<?xml version="1.0" encoding="utf-8"?>
<!-- Generator: Adobe Illustrator 28.0.0, SVG Export Plug-In . SVG Version: 6.00 Build 0)  -->
<svg version="1.1" id="레이어_1" xmlns="http://www.w3.org/2000/svg" xmlns:xlink="http://www.w3.org/1999/xlink" x="0px"
	 y="0px" viewBox="0 0 824 530" style="enable-background:new 0 0 824 530;" xml:space="preserve">
<style type="text/css">
	.st0{fill:none;stroke:#000000;stroke-width:2;}
	.st1{fill:url(#e_00000161625154261218537590000002274660863516193166_);}
	.st2{fill:#007070;}
	.st3{fill:#BD1A8D;}
	.st4{fill:#BD1A8D;stroke:#000000;}
	.st5{fill:none;stroke:#000000;stroke-width:0.75;}
	.st6{fill:url(#e_00000078731773008870359710000004889432116068783549_);}
	.st7{fill:url(#e_00000029758657138993163890000003529671287371908481_);}
	.st8{fill:url(#e_00000140725773050353112490000010839685268148862871_);}
	.st9{enable-background:new    ;}
	.st10{font-family:'AppleSDGothicNeoM00';}
	.st11{font-size:24px;}
	.st12{font-size:22px;}
	.st13{fill:#FFFFFF;}
	.st14{font-size:28px;}
	.st15{font-size:30.0038px;}
</style>
<path class="st0" d="M514.1,129.7l-7.6-8 M500,182.9l-10,4.8 M539.2,214.6l-1,11 M583.7,197.2l9.5,5.6 M593.4,150.6l9.8-5.2
	 M562.8,212l4.4,13.3 M514.9,203.9l-8.3,11.2 M498.1,159.6l-13.1-4.8 M547.4,117.1l0.1-14 M594.2,177.4l13.2,4.5 M581.3,130.4
	l8.7-10.9"/>
<path class="st0" d="M239.3,212.9l4.8,9.9 M204.6,210.4l-4.5,10.1 M271.1,186.3l10.1,4.5 M178.9,179.8l-10,4.7 M275.2,167.3l11,0.9
	 M258.5,202.9l7.1,8.4 M190.1,199.6l-7.3,8.3 M222.5,215.1l-0.3,11 M270.6,143.8l9.6-5.5 M177.6,160.8l-11-1 M184,142.5l-9.9-5
	 M256.9,127l4.9-9.9 M237.9,117.9l2-10.9 M214.7,118.8l-2.7-10.7 M196.5,127.6l-7.1-8.5"/>
<radialGradient id="e_00000132057548625633036100000002063637659891177861_" cx="64.3305" cy="447.3987" r="49.6974" gradientTransform="matrix(0.5669 -0.5301 -0.5867 -0.6275 457.1165 476.4832)" gradientUnits="userSpaceOnUse">
	<stop  offset="0" style="stop-color:#231F20"/>
	<stop  offset="0.5" style="stop-color:#1D0708"/>
	<stop  offset="1" style="stop-color:#EA242A"/>
</radialGradient>
<circle id="e" style="fill:url(#e_00000132057548625633036100000002063637659891177861_);" cx="226.4" cy="166" r="49.5"/>
<path class="st2" d="M566.8,223.3l9.9,4.6l-4.6,9.9l-9.9-4.6L566.8,223.3z M507.9,213.6l1.9,10.8l-10.8,1.9l-1.9-10.8L507.9,213.6z
	 M486.7,155.6l-9.8,4.9l-4.9-9.8l9.8-4.9L486.7,155.6z M547.3,105.1l-7.9-7.5l7.5-7.9l7.9,7.5L547.3,105.1z M605.6,181.1l9.7-5.1
	l5.1,9.7l-9.7,5.1L605.6,181.1z M588.7,120.8l-1.6-10.8l10.8-1.6l1.6,10.8L588.7,120.8z"/>
<path class="st0" d="M377.2,214.1l-2.9,13.7 M340.9,185.6l-12.6,6.1 M403.2,211.7l4.4,13.3 M422.1,198.9l10.4,9.4 M355.1,203.7
	l-8.3,11.2 M338.3,159.4l-13.1-4.8 M387.2,116.8l0.1-14 M434.4,154.7l13.4-3.8 M433.9,177.2l13.2,4.5 M420.9,130.2l8.7-10.9
	 M352.2,131.9l-8.7-10.9"/>
<path class="st2" d="M374.9,225.9l6.2,9l-9,6.2l-6.2-9L374.9,225.9z M330.1,191l-3.3,10.4l-10.4-3.3l3.3-10.4L330.1,191z M407.2,223
	l9.9,4.6l-4.6,9.9l-9.9-4.6L407.2,223z M431.2,206.8l10.9-0.9l0.9,10.9l-10.9,0.9L431.2,206.8z M348.1,213.5l1.9,10.8l-10.8,1.9
	l-1.9-10.8L348.1,213.5z M326.9,155.5l-9.8,4.9l-4.9-9.8l9.8-4.9L326.9,155.5z M387,104.7l-7.9-7.5l7.5-7.9l7.9,7.5L387,104.7z
	 M445.9,151.2l5-9.7l9.7,5l-5,9.7L445.9,151.2z M445.4,180.9l9.7-5.1l5.1,9.7l-9.7,5.1L445.4,180.9z M428.2,120.7l-1.6-10.8
	l10.8-1.6l1.6,10.8L428.2,120.7z M344.5,122.6l-10.9-0.9l0.9-10.9l10.9,0.9L344.5,122.6z"/>
<path class="st0" d="M702.9,121l-4.5-9.1 M686.4,132.8l-7.1-7.4 M676.6,147.9l-8.8-4.2 M673,165.7l-9.4-0.3 M675.5,182.5l-9.3,1.9
	 M682.4,196l-7.6,6.8 M694.9,207.5l-5.3,8.7 M707.8,213.2l-2.6,9.1 M722.5,215.4l0.3,9.5 M739.8,211.7l2.6,9.6 M750.3,205.7l4.5,7.4
	 M760.8,196.1l6.6,4.7 M768.1,183l6.8,3.4 M771.2,168.7l7.9,0.6 M770.4,154.4l7.1-1.5 M765.5,141.5l6.4-4.2 M758.2,131.4l5.8-4.9
	 M749.2,124.4l4.6-6.2 M738.4,119.1l3.2-7.9 M722,116.5v-7.3"/>
<path id="c" class="st2" d="M266.9,307.1l-13.4-3.7l0.5-1.9l13.4,3.7L266.9,307.1z M261.7,330.8l-13.8,1.6l-0.2-2l13.8-1.6
	L261.7,330.8z M252.7,298.9l-2-0.3l2-13.9l2,0.3L252.7,298.9z M252.5,303.6l-14.6,8.9l-0.7-1.2l14.6-8.9L252.5,303.6z M250.4,299.9
	l-14.7,8.6l-0.7-1.2l14.7-8.6L250.4,299.9z M246.2,330.4l-12.1-12.1l1-1l12.1,12.1L246.2,330.4z M245.6,348.4l-2,0l0.1-14l2,0
	L245.6,348.4z M243.2,333.5L231,321.6l1-1l12.3,11.9L243.2,333.5z M239.8,277.3l-9.9,9.9l-1.4-1.4l9.9-9.9L239.8,277.3z
	 M229.9,305.3l-1.4,0l-0.3-17.2l1.4,0L229.9,305.3z M224.4,287.1l-10.9-8.8l1.2-1.6l10.9,8.7L224.4,287.1z M223.9,288.1h1.4v17.2
	h-1.4V288.1z M216.8,337l-1.3-0.7l7.7-15.3l1.3,0.7L216.8,337z M221.8,350.5l-1.8,0.8l-5.8-12.8l1.8-0.8L221.8,350.5z M213.1,335.1
	l-1.3-0.6l7.4-15.4l1.3,0.6L213.1,335.1z M219,309.5l-15.5-7l0.6-1.3l15.5,7L219,309.5z M217.1,313.7l-15.4-7.3l0.6-1.3l15.4,7.3
	L217.1,313.7z M211.7,337.1l-13.3,4.2l-0.6-1.9l13.3-4.2L211.7,337.1z M203.4,300.5l-1.9,0.7l-4.6-13.2l1.9-0.7L203.4,300.5z
	 M201,305.6l-12.5,6.2l-0.9-1.8l12.5-6.2L201,305.6z"/>
<path id="d" class="st3" d="M410.9,303l-14.2,8.9l-0.7-1.2l14.2-8.9L410.9,303z M408.8,299.3l-14.4,8.6l-0.7-1.2l14.4-8.6
	L408.8,299.3z M388.8,304.7l-1.4,0l-0.3-17.2l1.4,0L388.8,304.7z M382.9,287.5h1.4v17.2h-1.4V287.5z M363,300.3l15.2,6.9l-0.6,1.3
	l-15.3-6.9L363,300.3z M361.2,304.2l15.1,7.2l-0.6,1.3l-15.1-7.2L361.2,304.2z M378.1,308.9l-15.2-7l0.6-1.3l15.2,7L378.1,308.9z
	 M353.2,288.8c4.7,0.3,9.4,6,9.1,10.6c0,0.6-1.3,1.9-1.5,1.3c-1.5-8.3-5.4-8.3-9.1-10.6C351.2,289.7,352.6,288.7,353.2,288.8
	L353.2,288.8z M376.2,313.1l-15.1-7.3l0.6-1.3l15.1,7.3L376.2,313.1z M359.6,305.6c-3.5,3.1-10.9,2.4-13.9-1.1
	c-0.4-0.5-0.4-2.3,0.1-2c6.9,4.8,9.7,2,14,1.1C360.3,303.5,360.1,305.2,359.6,305.6L359.6,305.6z M388.9,304.4l-1.4,0.1l-0.4-16.8
	l1.4-0.1L388.9,304.4z M384.3,304.5l-1.4,0l0-16.8l1.4,0L384.3,304.5z M394.7,273.9c1.7,4.3-1.3,11.1-5.6,12.8
	c-0.6,0.2-2.3-0.4-1.8-0.8c6.8-4.9,5.1-8.4,5.6-12.8C393,272.5,394.5,273.3,394.7,273.9L394.7,273.9z M382.3,286.9
	c-4.3-1.8-6.9-8.7-5.1-13c0.3-0.6,1.9-1.4,1.8-0.7c-1.3,8.3,2.4,9.6,5.1,13C384.5,286.7,382.9,287.1,382.3,286.9z M401.6,332.7
	l-11.7-12l1-1l11.7,12L401.6,332.7z M404.6,329.7l-11.5-12.2l1-1l11.5,12.2L404.6,329.7z M406.5,347c-4.2-2-6.6-9-4.6-13.2
	c0.3-0.6,2-1.3,1.8-0.7c-1.6,8.3,2,9.7,4.6,13.2C408.7,346.9,407.1,347.3,406.5,347L406.5,347z M406.6,329c4.4-1.6,11,1.6,12.6,6
	c0.2,0.6-0.4,2.3-0.8,1.8c-4.7-7-8.3-5.4-12.6-6C405.2,330.7,406,329.3,406.6,329L406.6,329z M396.6,310.3l14-9.1l0.8,1.2l-14,9.1
	L396.6,310.3z M394.1,306.5l14.2-8.9l0.8,1.2l-14.2,8.9L394.1,306.5z M426.5,300.3c-2.8,3.8-10.1,4.7-13.8,2
	c-0.5-0.4-0.9-2.2-0.3-1.9c7.8,3.2,9.9-0.1,13.9-2C426.7,298.1,426.8,299.8,426.5,300.3L426.5,300.3z M408.9,296.7
	c-0.7-4.6,3.8-10.5,8.4-11.2c0.6-0.1,2.2,0.9,1.6,1.1c-7.8,3.3-6.9,7.1-8.4,11.2C410.2,298.4,409,297.3,408.9,296.7L408.9,296.7z
	 M372.1,334l-1.3-0.6l7.2-15.1l1.3,0.6L372.1,334z M375.9,335.9l-1.3-0.6l7.5-15l1.3,0.6L375.9,335.9z M359,343
	c0.4-4.6,6.1-9.3,10.8-8.9c0.6,0.1,1.9,1.4,1.3,1.5c-8.3,1.3-8.4,5.2-10.8,8.9C359.9,345,359,343.6,359,343z M376,336.9
	c3,3.6,2.3,10.9-1.3,13.9c-0.5,0.4-2.3,0.4-1.9-0.1c4.9-6.8,2.2-9.6,1.3-13.9C373.9,336.2,375.6,336.4,376,336.9L376,336.9z"/>
<g transform="translate(543.667 -.339)">
	<path id="c_00000148632963012133518690000012271265859803390617_" class="st2" d="M810.5,306.8l-13.4-3.7l0.5-1.9l13.4,3.7
		L810.5,306.8z M805.4,330.5l-13.8,1.6l-0.2-2l13.8-1.6L805.4,330.5z M796.3,298.5l-2-0.3l2-13.9l2,0.3L796.3,298.5z M796.2,303.3
		l-14.6,8.9l-0.7-1.2l14.6-8.9L796.2,303.3z M794,299.6l-14.7,8.6l-0.7-1.2l14.7-8.6L794,299.6z M789.9,330.1L777.8,318l1-1
		l12.1,12.1L789.9,330.1z M789.3,348l-2,0l0.1-14l2,0L789.3,348z M786.9,333.1l-12.3-11.9l1-1l12.3,11.9L786.9,333.1z M783.5,277
		l-9.9,9.9l-1.4-1.4l9.9-9.9L783.5,277z M773.6,304.9l-1.4,0l-0.3-17.2l1.4,0L773.6,304.9z M768,286.8l-10.9-8.8l1.2-1.6l10.9,8.7
		L768,286.8z M767.6,287.7h1.4v17.2h-1.4V287.7z M760.5,336.7l-1.3-0.7l7.7-15.3l1.3,0.7L760.5,336.7z M765.4,350.2l-1.8,0.8
		l-5.8-12.8l1.8-0.8L765.4,350.2z M756.8,334.8l-1.3-0.6l7.4-15.4l1.3,0.6L756.8,334.8z M762.7,309.2l-15.5-7l0.6-1.3l15.5,7
		L762.7,309.2z M760.7,313.4l-15.4-7.3l0.6-1.3l15.4,7.3L760.7,313.4z M755.4,336.7l-13.3,4.2l-0.6-1.9l13.3-4.2L755.4,336.7z
		 M747,300.2l-1.9,0.7l-4.6-13.2l1.9-0.7L747,300.2z M744.6,305.2l-12.5,6.2l-0.9-1.8l12.5-6.2L744.6,305.2z"/>
</g>
<g transform="translate(297.835 -.604)">
	<path id="d_00000013157106726176060690000011950295559772329346_" class="st3" d="M708.7,302.4l-14.2,8.9l-0.7-1.2l14.2-8.9
		L708.7,302.4z M706.6,298.7l-14.4,8.6l-0.7-1.2l14.4-8.6L706.6,298.7z M686.6,304l-1.4,0l-0.3-17.2l1.4,0L686.6,304z M680.8,286.9
		h1.4v17.2h-1.4V286.9z M660.8,299.7l15.2,6.9l-0.6,1.3l-15.3-6.9L660.8,299.7z M659.1,303.6l15.1,7.2l-0.6,1.3l-15.1-7.2
		L659.1,303.6z M676,308.3l-15.2-7l0.6-1.3l15.2,7L676,308.3z M651.1,288.2c4.7,0.3,9.4,6,9.1,10.6c0,0.6-1.3,1.9-1.5,1.3
		c-1.5-8.3-5.4-8.3-9.1-10.6C649.1,289.1,650.4,288.1,651.1,288.2L651.1,288.2z M674,312.5l-15.1-7.3l0.6-1.3l15.1,7.3L674,312.5z
		 M657.4,305c-3.5,3.1-10.9,2.4-13.9-1.1c-0.4-0.5-0.4-2.3,0.1-2c6.9,4.8,9.7,2,14,1.1C658.2,302.9,657.9,304.6,657.4,305L657.4,305
		z M686.7,303.8l-1.4,0.1l-0.4-16.8l1.4-0.1L686.7,303.8z M682.1,303.9l-1.4,0l0-16.8l1.4,0L682.1,303.9z M692.5,273.3
		c1.7,4.3-1.3,11.1-5.6,12.8c-0.6,0.2-2.3-0.4-1.8-0.8c6.8-4.9,5.1-8.4,5.6-12.8C690.8,271.9,692.3,272.7,692.5,273.3L692.5,273.3z
		 M680.1,286.3c-4.3-1.8-6.9-8.7-5.1-13c0.3-0.6,1.9-1.4,1.8-0.7c-1.3,8.3,2.4,9.6,5.1,13C682.3,286.1,680.7,286.5,680.1,286.3z
		 M699.4,332.1l-11.7-12l1-1l11.7,12L699.4,332.1z M702.4,329.1l-11.5-12.2l1-1l11.5,12.2L702.4,329.1z M704.3,346.4
		c-4.2-2-6.6-9-4.6-13.2c0.3-0.6,2-1.3,1.8-0.7c-1.6,8.3,2,9.7,4.7,13.2C706.5,346.3,704.9,346.7,704.3,346.4L704.3,346.4z
		 M704.5,328.4c4.4-1.6,11,1.6,12.6,6c0.2,0.6-0.4,2.3-0.8,1.8c-4.7-7-8.3-5.4-12.6-6C703,330.1,703.9,328.7,704.5,328.4
		L704.5,328.4z M694.5,309.7l14-9.1l0.8,1.2l-14,9.1L694.5,309.7z M692,305.9l14.2-8.9l0.8,1.2l-14.2,8.9L692,305.9z M724.3,299.7
		c-2.8,3.8-10.1,4.7-13.8,2c-0.5-0.4-0.9-2.2-0.3-1.9c7.8,3.2,9.9-0.1,13.9-2C724.6,297.5,724.7,299.2,724.3,299.7L724.3,299.7z
		 M706.7,296c-0.7-4.6,3.8-10.5,8.4-11.2c0.6-0.1,2.2,0.9,1.6,1.1c-7.8,3.3-6.9,7.1-8.4,11.2C708.1,297.8,706.8,296.7,706.7,296
		L706.7,296z M669.9,333.4l-1.3-0.6l7.2-15.1l1.3,0.6L669.9,333.4z M673.7,335.3l-1.3-0.6l7.5-15l1.3,0.6L673.7,335.3z M656.9,342.4
		c0.4-4.6,6.1-9.3,10.8-8.9c0.6,0.1,1.9,1.4,1.3,1.5c-8.3,1.3-8.4,5.2-10.8,8.9C657.8,344.4,656.8,343,656.9,342.4z M673.8,336.3
		c3,3.6,2.3,10.9-1.3,13.9c-0.5,0.4-2.3,0.4-1.9-0.1c4.9-6.8,2.2-9.6,1.3-13.9C671.7,335.6,673.4,335.8,673.8,336.3L673.8,336.3z"/>
</g>
<g transform="translate(34.456 -23.564)">
	<path class="st0" d="M193,491.6l-0.1-11"/>
	
		<ellipse transform="matrix(0.6346 -0.7729 0.7729 0.6346 -296.2263 322.6074)" class="st4" cx="193" cy="474.6" rx="5.7" ry="5.7"/>
</g>
<path class="st0" d="M385.9,468l0.4-14"/>
<path class="st2" d="M386,456l-7.7-7.7l7.7-7.7l7.7,7.7L386,456z"/>
<g transform="translate(23.609 -25.406)">
	<path class="st0" d="M515.1,493.3l-0.1-11"/>
	<circle class="st4" cx="515.2" cy="476.3" r="5.7"/>
</g>
<path class="st0" d="M556.7,468l0.4-14"/>
<path class="st2" d="M556.8,456l-7.7-7.7l7.7-7.7l7.7,7.7L556.8,456z"/>
<path class="st5" d="M148,527.8V2h674v525.8H2v-451h822 M307,0v527.8 M0,252.8h822 M465,0v527.8 M632,0v527.8 M0,403.8h822"/>
<g>
	<circle class="st4" cx="241.1" cy="101.2" r="5.7"/>
	<circle class="st4" cx="210.7" cy="102.2" r="5.7"/>
	<circle class="st4" cx="185.8" cy="114.4" r="5.7"/>
	<circle class="st4" cx="168.9" cy="134.6" r="5.7"/>
	<circle class="st4" cx="160.7" cy="159.1" r="5.7"/>
	<circle class="st4" cx="163.4" cy="186.9" r="5.7"/>
	<circle class="st4" cx="178.7" cy="212.3" r="5.7"/>
	<circle class="st4" cx="197.5" cy="225.8" r="5.7"/>
	<circle class="st4" cx="221.7" cy="232.1" r="5.7"/>
	<circle class="st4" cx="246.5" cy="228.3" r="5.7"/>
	<circle class="st4" cx="269.4" cy="216" r="5.7"/>
	<circle class="st4" cx="286.6" cy="193.4" r="5.7"/>
	<circle class="st4" cx="292.2" cy="168.8" r="5.7"/>
	<circle class="st4" cx="285.4" cy="135.5" r="5.7"/>
	<circle class="st4" cx="264.7" cy="111.9" r="5.7"/>
</g>
<g>
	<circle class="st4" cx="502.5" cy="117.3" r="5.7"/>
	<circle class="st4" cx="484.6" cy="190" r="5.7"/>
	<circle class="st4" cx="537.3" cy="231.5" r="5.7"/>
	<circle class="st4" cx="598.3" cy="205.9" r="5.7"/>
	<circle class="st4" cx="608.6" cy="142.8" r="5.7"/>
</g>
<g transform="translate(160.254 0)">
	
		<radialGradient id="e_00000083808130862291293410000014754239734762209722_" cx="64.3305" cy="447.3987" r="49.6974" gradientTransform="matrix(0.5669 -0.5301 -0.5867 -0.6275 617.3705 476.4832)" gradientUnits="userSpaceOnUse">
		<stop  offset="0" style="stop-color:#231F20"/>
		<stop  offset="0.5" style="stop-color:#1D0708"/>
		<stop  offset="1" style="stop-color:#EA242A"/>
	</radialGradient>
	
		<circle id="e_00000080915916056733775310000000334583797287000753_" style="fill:url(#e_00000083808130862291293410000014754239734762209722_);" cx="386.6" cy="166" r="49.5"/>
</g>
<g transform="translate(320.061 0)">
	
		<radialGradient id="e_00000160900066023809554610000008835226211418696581_" cx="64.3305" cy="447.3987" r="49.6974" gradientTransform="matrix(0.5669 -0.5301 -0.5867 -0.6275 777.1776 476.4832)" gradientUnits="userSpaceOnUse">
		<stop  offset="0" style="stop-color:#231F20"/>
		<stop  offset="0.5" style="stop-color:#1D0708"/>
		<stop  offset="1" style="stop-color:#EA242A"/>
	</radialGradient>
	
		<circle id="e_00000015325480682527518470000010106304289890068890_" style="fill:url(#e_00000160900066023809554610000008835226211418696581_);" cx="546.4" cy="166" r="49.5"/>
</g>
<g transform="translate(495.796 0)">
	
		<radialGradient id="e_00000053525759008020344570000001271877619214458275_" cx="64.3305" cy="447.3987" r="49.6974" gradientTransform="matrix(0.5669 -0.5301 -0.5867 -0.6275 952.9125 476.4832)" gradientUnits="userSpaceOnUse">
		<stop  offset="0" style="stop-color:#231F20"/>
		<stop  offset="0.5" style="stop-color:#1D0708"/>
		<stop  offset="1" style="stop-color:#EA242A"/>
	</radialGradient>
	
		<circle id="e_00000074437962837621929440000014804472507570669496_" style="fill:url(#e_00000053525759008020344570000001271877619214458275_);" cx="722.2" cy="166" r="49.5"/>
</g>
<text transform="matrix(1 0 0 1 22.714 158.969)" class="st9"><tspan x="0" y="0" class="st10 st11">적혈구</tspan><tspan x="0" y="28.8" class="st10 st11">세포 유형</tspan></text>
<text transform="matrix(1 0 0 1 24.7779 318.3311)" class="st9"><tspan x="0" y="0" class="st10 st11">혈액중</tspan><tspan x="0" y="28.8" class="st10 st11">항체</tspan></text>
<text transform="matrix(1 0 0 1 27.0817 457.0019)" class="st9"><tspan x="0" y="0" class="st10 st11">혈액중</tspan><tspan x="0" y="28.8" class="st10 st11">항원</tspan></text>
<g>
	<text transform="matrix(1 0 0 1 197.1834 384.781)" class="st10 st12">Anti-B</text>
	<text transform="matrix(1 0 0 1 355.9114 384.781)" class="st10 st12">Anti-A</text>
	<text transform="matrix(1 0 0 1 521.9151 384.781)" class="st10 st12">None</text>
	<text transform="matrix(1 0 0 1 642.7769 384.781)" class="st10 st12">Anti-A and Anti-B</text>
	<text transform="matrix(1 0 0 1 181.0648 494.781)" class="st10 st12">A antigen</text>
	<text transform="matrix(1 0 0 1 339.3846 494.781)" class="st10 st12">B antigen</text>
	<text transform="matrix(1 0 0 1 509.481 488.781)" class="st10 st12">A and B</text>
	<text transform="matrix(1 0 0 1 506.6236 512.781)" class="st10 st12">antigens</text>
	<text transform="matrix(1 0 0 1 700.0381 496.926)" class="st10 st12">None</text>
</g>
<g>
	<text transform="matrix(1 0 0 1 217.8001 174.781)" class="st13 st10 st14">A</text>
	<text transform="matrix(1 0 0 1 376.5281 174.781)" class="st13 st10 st14">B</text>
	<text transform="matrix(1 0 0 1 529.5362 174.781)" class="st13 st10 st14">AB</text>
	<text transform="matrix(1 0 0 1 715.4454 174.781)" class="st13 st10 st14">O</text>
</g>
<text transform="matrix(1 0 0 1 201.9365 49.4758)" class="st10 st15">A 형</text>
<text transform="matrix(1 0 0 1 359.0346 49.4758)" class="st10 st15">B 형</text>
<text transform="matrix(1 0 0 1 514.9369 49.4758)" class="st10 st15">AB 형</text>
<text transform="matrix(1 0 0 1 684.9973 49.4758)" class="st10 st15">O 형</text>
</svg>
