<?xml version="1.0" encoding="UTF-8"?>
<svg id="_레이어_1" data-name="레이어 1" xmlns="http://www.w3.org/2000/svg" viewBox="0 0 239.31 126.833">
  <defs>
    <style>
      .cls-1 {
        font-size: 5.677px;
      }

      .cls-1, .cls-2 {
        fill: #231916;
        font-family: AppleSDGothicNeoR00, AppleSDGothicNeoR00;
      }

      .cls-3 {
        fill: #335b69;
      }

      .cls-3, .cls-4, .cls-5, .cls-6, .cls-7 {
        stroke-width: 0px;
      }

      .cls-8 {
        stroke: #e6e6e6;
        stroke-width: .5px;
      }

      .cls-8, .cls-9 {
        stroke-miterlimit: 10;
      }

      .cls-8, .cls-9, .cls-10 {
        fill: none;
      }

      .cls-4 {
        fill: #e3ddcc;
      }

      .cls-9, .cls-10 {
        stroke: #231916;
        stroke-width: .25px;
      }

      .cls-2 {
        font-size: 5.241px;
      }

      .cls-5 {
        fill: #f39800;
      }

      .cls-6 {
        fill: #fff;
      }

      .cls-7 {
        fill: #fbfaf5;
      }
    </style>
  </defs>
  <rect class="cls-7" x="17.177" y="2.476" width="103.158" height="106.972"/>
  <rect class="cls-4" x="120.339" y="2.476" width="118.946" height="106.972"/>
  <line class="cls-8" x1="17.304" y1="2.487" x2="239.202" y2="2.487"/>
  <line class="cls-10" x1="15.501" y1="2.487" x2="17.304" y2="2.487"/>
  <text class="cls-2" transform="translate(11.63 4.192)"><tspan x="0" y="0">2</tspan></text>
  <line class="cls-8" x1="17.304" y1="11.402" x2="239.202" y2="11.402"/>
  <line class="cls-10" x1="15.501" y1="11.402" x2="17.304" y2="11.402"/>
  <text class="cls-2" transform="translate(11.63 13.107)"><tspan x="0" y="0">1</tspan></text>
  <line class="cls-10" x1="17.304" y1="20.316" x2="239.202" y2="20.316"/>
  <line class="cls-10" x1="15.501" y1="20.316" x2="17.304" y2="20.316"/>
  <text class="cls-2" transform="translate(11.63 22.022)"><tspan x="0" y="0">0</tspan></text>
  <line class="cls-8" x1="17.304" y1="73.802" x2="239.202" y2="73.802"/>
  <line class="cls-10" x1="15.501" y1="73.802" x2="17.194" y2="73.802"/>
  <text class="cls-2" transform="translate(9.403 75.508)"><tspan x="0" y="0">–6</tspan></text>
  <line class="cls-8" x1="17.304" y1="64.888" x2="239.202" y2="64.888"/>
  <line class="cls-10" x1="15.501" y1="64.888" x2="17.194" y2="64.888"/>
  <text class="cls-2" transform="translate(9.403 66.593)"><tspan x="0" y="0">–5</tspan></text>
  <line class="cls-8" x1="17.304" y1="55.973" x2="239.202" y2="55.973"/>
  <line class="cls-10" x1="15.501" y1="55.973" x2="17.194" y2="55.973"/>
  <text class="cls-2" transform="translate(9.403 57.679)"><tspan x="0" y="0">–4</tspan></text>
  <line class="cls-8" x1="17.304" y1="47.059" x2="239.202" y2="47.059"/>
  <line class="cls-10" x1="15.501" y1="47.059" x2="17.194" y2="47.059"/>
  <text class="cls-2" transform="translate(9.403 48.765)"><tspan x="0" y="0">–3</tspan></text>
  <line class="cls-8" x1="17.304" y1="38.145" x2="239.202" y2="38.145"/>
  <line class="cls-10" x1="15.501" y1="38.145" x2="17.194" y2="38.145"/>
  <text class="cls-2" transform="translate(9.403 39.851)"><tspan x="0" y="0">–2</tspan></text>
  <line class="cls-8" x1="17.304" y1="29.23" x2="239.202" y2="29.23"/>
  <line class="cls-10" x1="15.501" y1="29.23" x2="17.194" y2="29.23"/>
  <text class="cls-2" transform="translate(9.403 30.936)"><tspan x="0" y="0">–1</tspan></text>
  <line class="cls-8" x1="17.304" y1="82.716" x2="239.202" y2="82.716"/>
  <line class="cls-10" x1="15.501" y1="82.716" x2="17.194" y2="82.716"/>
  <text class="cls-2" transform="translate(9.403 84.423)"><tspan x="0" y="0">–7</tspan></text>
  <line class="cls-8" x1="17.304" y1="91.631" x2="239.202" y2="91.631"/>
  <line class="cls-10" x1="15.501" y1="91.631" x2="17.194" y2="91.631"/>
  <text class="cls-2" transform="translate(9.403 93.337)"><tspan x="0" y="0">–8</tspan></text>
  <line class="cls-8" x1="17.304" y1="100.546" x2="239.202" y2="100.546"/>
  <line class="cls-10" x1="15.501" y1="100.546" x2="17.194" y2="100.546"/>
  <text class="cls-2" transform="translate(9.403 102.252)"><tspan x="0" y="0">–9</tspan></text>
  <polyline class="cls-10" points="17.193 2.49 17.193 109.463 239.31 109.463"/>
  <line class="cls-10" x1="15.501" y1="109.46" x2="17.194" y2="109.46"/>
  <text class="cls-2" transform="translate(6.521 111.165)"><tspan x="0" y="0">–10</tspan></text>
  <text class="cls-1" transform="translate(4.564 77.392) rotate(-90)"><tspan x="0" y="0">평균 체중 변화, %</tspan></text>
  <text class="cls-1" transform="translate(109.832 125.709)"><tspan x="0" y="0">기간 (월)</tspan></text>
  <line class="cls-10" x1="28.367" y1="109.487" x2="28.367" y2="111.179"/>
  <text class="cls-2" transform="translate(26.925 116.665)"><tspan x="0" y="0">1</tspan></text>
  <line class="cls-10" x1="23.417" y1="12.11" x2="23.417" y2="34.077"/>
  <line class="cls-10" x1="21.233" y1="12.11" x2="25.6" y2="12.11"/>
  <line class="cls-10" x1="21.233" y1="34.07" x2="25.6" y2="34.07"/>
  <path class="cls-6" d="m23.417,24.554c-.881,0-1.598-.716-1.598-1.597s.717-1.599,1.598-1.599,1.598.717,1.598,1.599-.717,1.597-1.598,1.597"/>
  <path class="cls-3" d="m23.417,21.619c.737,0,1.336.6,1.336,1.337s-.599,1.335-1.336,1.335-1.336-.599-1.336-1.335.599-1.337,1.336-1.337m0-.524c-1.026,0-1.86.836-1.86,1.861s.834,1.86,1.86,1.86,1.86-.834,1.86-1.86-.835-1.861-1.86-1.861Z"/>
  <line class="cls-10" x1="33.316" y1="39.969" x2="33.316" y2="59.515"/>
  <line class="cls-10" x1="31.133" y1="39.969" x2="35.5" y2="39.969"/>
  <line class="cls-10" x1="31.133" y1="59.508" x2="35.5" y2="59.508"/>
  <rect class="cls-3" x="31.569" y="47.885" width="3.494" height="3.494"/>
  <line class="cls-10" x1="28.367" y1="39.374" x2="28.367" y2="58.921"/>
  <line class="cls-10" x1="26.183" y1="39.374" x2="30.55" y2="39.374"/>
  <line class="cls-10" x1="26.183" y1="58.914" x2="30.55" y2="58.914"/>
  <polyline class="cls-5" points="28.367 47.022 26.267 51.223 30.466 51.223 28.367 47.022"/>
  <line class="cls-10" x1="46.765" y1="109.487" x2="46.765" y2="111.179"/>
  <text class="cls-2" transform="translate(45.324 116.665)"><tspan x="0" y="0">2</tspan></text>
  <line class="cls-10" x1="41.816" y1="10.099" x2="41.816" y2="31.938"/>
  <line class="cls-10" x1="39.632" y1="10.099" x2="43.999" y2="10.099"/>
  <line class="cls-10" x1="39.632" y1="31.931" x2="43.999" y2="31.931"/>
  <path class="cls-6" d="m41.816,22.698c-.881,0-1.598-.716-1.598-1.597s.717-1.599,1.598-1.599,1.598.717,1.598,1.599-.717,1.597-1.598,1.597"/>
  <path class="cls-3" d="m41.816,19.763c.737,0,1.336.6,1.336,1.337s-.599,1.335-1.336,1.335-1.336-.599-1.336-1.335.599-1.337,1.336-1.337m0-.524c-1.026,0-1.86.836-1.86,1.861s.834,1.86,1.86,1.86,1.86-.834,1.86-1.86-.835-1.861-1.86-1.861Z"/>
  <line class="cls-10" x1="51.714" y1="53.943" x2="51.714" y2="73.626"/>
  <line class="cls-10" x1="49.53" y1="53.943" x2="53.898" y2="53.943"/>
  <line class="cls-10" x1="49.53" y1="73.619" x2="53.898" y2="73.619"/>
  <rect class="cls-3" x="49.967" y="62.106" width="3.494" height="3.494"/>
  <line class="cls-10" x1="46.765" y1="44.936" x2="46.765" y2="64.591"/>
  <line class="cls-10" x1="44.582" y1="44.936" x2="48.949" y2="44.936"/>
  <line class="cls-10" x1="44.582" y1="64.585" x2="48.949" y2="64.585"/>
  <polyline class="cls-5" points="46.764 52.748 44.665 56.948 48.864 56.948 46.764 52.748"/>
  <line class="cls-10" x1="65.164" y1="109.487" x2="65.164" y2="111.179"/>
  <text class="cls-2" transform="translate(63.721 116.665)"><tspan x="0" y="0">3</tspan></text>
  <line class="cls-10" x1="60.214" y1="17.779" x2="60.214" y2="39.453"/>
  <line class="cls-10" x1="58.031" y1="17.779" x2="62.398" y2="17.779"/>
  <line class="cls-10" x1="58.031" y1="39.447" x2="62.398" y2="39.447"/>
  <path class="cls-6" d="m60.213,30.076c-.881,0-1.597-.716-1.597-1.597s.716-1.599,1.597-1.599,1.598.717,1.598,1.599-.717,1.597-1.598,1.597"/>
  <path class="cls-3" d="m60.213,27.142c.737,0,1.336.6,1.336,1.337s-.599,1.335-1.336,1.335-1.335-.599-1.335-1.335.599-1.337,1.335-1.337m0-.524c-1.025,0-1.86.836-1.86,1.861s.834,1.86,1.86,1.86,1.86-.834,1.86-1.86-.835-1.861-1.86-1.861Z"/>
  <line class="cls-10" x1="70.113" y1="67.045" x2="70.113" y2="86.727"/>
  <line class="cls-10" x1="67.929" y1="67.045" x2="72.296" y2="67.045"/>
  <line class="cls-10" x1="67.929" y1="86.72" x2="72.296" y2="86.72"/>
  <rect class="cls-3" x="68.366" y="75.235" width="3.494" height="3.494"/>
  <line class="cls-10" x1="65.163" y1="53.597" x2="65.163" y2="73.307"/>
  <line class="cls-10" x1="62.979" y1="53.597" x2="67.346" y2="53.597"/>
  <line class="cls-10" x1="62.979" y1="73.301" x2="67.346" y2="73.301"/>
  <polyline class="cls-5" points="65.163 61.336 63.063 65.536 67.263 65.536 65.163 61.336"/>
  <line class="cls-10" x1="83.562" y1="109.487" x2="83.562" y2="111.179"/>
  <text class="cls-2" transform="translate(82.12 116.665)"><tspan x="0" y="0">4</tspan></text>
  <line class="cls-10" x1="78.612" y1="15.428" x2="78.612" y2="37.16"/>
  <line class="cls-10" x1="76.428" y1="15.428" x2="80.795" y2="15.428"/>
  <line class="cls-10" x1="76.428" y1="37.153" x2="80.795" y2="37.153"/>
  <path class="cls-6" d="m78.612,27.85c-.881,0-1.598-.716-1.598-1.597s.717-1.599,1.598-1.599,1.598.717,1.598,1.599-.717,1.597-1.598,1.597"/>
  <path class="cls-3" d="m78.612,24.915c.737,0,1.336.6,1.336,1.337s-.599,1.335-1.336,1.335-1.336-.599-1.336-1.335.599-1.337,1.336-1.337m0-.524c-1.026,0-1.86.836-1.86,1.861s.834,1.86,1.86,1.86,1.86-.834,1.86-1.86-.835-1.861-1.86-1.861Z"/>
  <line class="cls-10" x1="88.51" y1="68.3" x2="88.51" y2="88.609"/>
  <line class="cls-10" x1="86.327" y1="68.3" x2="90.694" y2="68.3"/>
  <line class="cls-10" x1="86.327" y1="88.603" x2="90.694" y2="88.603"/>
  <rect class="cls-3" x="86.763" y="76.654" width="3.494" height="3.494"/>
  <line class="cls-10" x1="83.562" y1="59.62" x2="83.562" y2="79.903"/>
  <line class="cls-10" x1="81.378" y1="59.62" x2="85.745" y2="59.62"/>
  <line class="cls-10" x1="81.378" y1="79.896" x2="85.745" y2="79.896"/>
  <polyline class="cls-5" points="83.562 67.705 81.462 71.905 85.661 71.905 83.562 67.705"/>
  <line class="cls-10" x1="101.96" y1="109.487" x2="101.96" y2="111.179"/>
  <text class="cls-2" transform="translate(100.519 116.665)"><tspan x="0" y="0">5</tspan></text>
  <line class="cls-10" x1="97.01" y1="13.6" x2="97.01" y2="35.548"/>
  <line class="cls-10" x1="94.827" y1="13.6" x2="99.194" y2="13.6"/>
  <line class="cls-10" x1="94.827" y1="35.541" x2="99.194" y2="35.541"/>
  <path class="cls-6" d="m97.01,26.08c-.881,0-1.598-.716-1.598-1.597s.717-1.599,1.598-1.599,1.598.718,1.598,1.599-.717,1.597-1.598,1.597"/>
  <path class="cls-3" d="m97.01,23.146c.737,0,1.336.6,1.336,1.337s-.599,1.335-1.336,1.335-1.336-.599-1.336-1.335.599-1.337,1.336-1.337m0-.524c-1.026,0-1.86.836-1.86,1.861s.834,1.86,1.86,1.86,1.86-.834,1.86-1.86-.835-1.861-1.86-1.861Z"/>
  <line class="cls-10" x1="106.909" y1="69.583" x2="106.909" y2="90.085"/>
  <line class="cls-10" x1="104.725" y1="69.583" x2="109.092" y2="69.583"/>
  <line class="cls-10" x1="104.725" y1="90.078" x2="109.092" y2="90.078"/>
  <rect class="cls-3" x="105.162" y="78.237" width="3.494" height="3.494"/>
  <line class="cls-10" x1="101.959" y1="63.359" x2="101.959" y2="84.024"/>
  <line class="cls-10" x1="99.776" y1="63.359" x2="104.143" y2="63.359"/>
  <line class="cls-10" x1="99.776" y1="84.018" x2="104.143" y2="84.018"/>
  <polyline class="cls-5" points="101.959 71.526 99.86 75.727 104.06 75.727 101.959 71.526"/>
  <line class="cls-10" x1="120.359" y1="109.487" x2="120.359" y2="111.179"/>
  <text class="cls-2" transform="translate(118.917 116.665)"><tspan x="0" y="0">6</tspan></text>
  <line class="cls-10" x1="115.408" y1="15.274" x2="115.408" y2="37.514"/>
  <line class="cls-10" x1="113.225" y1="15.274" x2="117.592" y2="15.274"/>
  <line class="cls-10" x1="113.225" y1="37.507" x2="117.592" y2="37.507"/>
  <path class="cls-6" d="m115.409,28.009c-.881,0-1.598-.717-1.598-1.597s.717-1.599,1.598-1.599,1.597.717,1.597,1.599-.717,1.597-1.597,1.597"/>
  <path class="cls-3" d="m115.409,25.074c.736,0,1.335.6,1.335,1.337s-.599,1.335-1.335,1.335-1.336-.599-1.336-1.335.599-1.337,1.336-1.337m0-.524c-1.026,0-1.86.836-1.86,1.861s.834,1.86,1.86,1.86,1.86-.834,1.86-1.86-.835-1.861-1.86-1.861Z"/>
  <line class="cls-10" x1="125.307" y1="73.759" x2="125.307" y2="94.505"/>
  <line class="cls-10" x1="123.123" y1="73.759" x2="127.49" y2="73.759"/>
  <line class="cls-10" x1="123.123" y1="94.499" x2="127.49" y2="94.499"/>
  <rect class="cls-3" x="123.561" y="82.495" width="3.494" height="3.494"/>
  <line class="cls-10" x1="120.358" y1="71.601" x2="120.358" y2="92.595"/>
  <line class="cls-10" x1="118.174" y1="71.601" x2="122.541" y2="71.601"/>
  <line class="cls-10" x1="118.174" y1="92.588" x2="122.541" y2="92.588"/>
  <polyline class="cls-5" points="120.358 79.96 118.258 84.159 122.458 84.159 120.358 79.96"/>
  <line class="cls-10" x1="157.155" y1="109.487" x2="157.155" y2="111.179"/>
  <text class="cls-2" transform="translate(155.714 116.665)"><tspan x="0" y="0">8</tspan></text>
  <line class="cls-10" x1="152.205" y1="11.417" x2="152.205" y2="34.711"/>
  <line class="cls-10" x1="150.022" y1="11.417" x2="154.389" y2="11.417"/>
  <line class="cls-10" x1="150.022" y1="34.705" x2="154.389" y2="34.705"/>
  <path class="cls-6" d="m152.205,24.515c-.881,0-1.598-.717-1.598-1.597s.717-1.599,1.598-1.599,1.598.717,1.598,1.599-.717,1.597-1.598,1.597"/>
  <path class="cls-3" d="m152.205,21.581c.737,0,1.336.6,1.336,1.337s-.599,1.335-1.336,1.335-1.336-.599-1.336-1.335.599-1.337,1.336-1.337m0-.524c-1.026,0-1.86.836-1.86,1.861s.834,1.86,1.86,1.86,1.86-.834,1.86-1.86-.835-1.861-1.86-1.861Z"/>
  <line class="cls-10" x1="162.104" y1="69.255" x2="162.104" y2="90.658"/>
  <line class="cls-10" x1="159.92" y1="69.255" x2="164.287" y2="69.255"/>
  <line class="cls-10" x1="159.92" y1="90.651" x2="164.287" y2="90.651"/>
  <rect class="cls-3" x="160.357" y="78.21" width="3.494" height="3.494"/>
  <line class="cls-10" x1="157.154" y1="61.503" x2="157.154" y2="85.498"/>
  <line class="cls-10" x1="154.971" y1="61.503" x2="159.338" y2="61.503"/>
  <line class="cls-10" x1="154.971" y1="85.491" x2="159.338" y2="85.491"/>
  <polyline class="cls-5" points="157.155 71.281 155.054 75.481 159.255 75.481 157.155 71.281"/>
  <line class="cls-10" x1="193.951" y1="109.487" x2="193.951" y2="111.179"/>
  <text class="cls-2" transform="translate(191.07 116.665)"><tspan x="0" y="0">10</tspan></text>
  <line class="cls-10" x1="189.002" y1="8.36" x2="189.002" y2="31.472"/>
  <line class="cls-10" x1="186.818" y1="8.36" x2="191.185" y2="8.36"/>
  <line class="cls-10" x1="186.818" y1="31.466" x2="191.185" y2="31.466"/>
  <path class="cls-6" d="m189.002,21.567c-.881,0-1.598-.717-1.598-1.597s.717-1.599,1.598-1.599,1.598.717,1.598,1.599-.717,1.597-1.598,1.597"/>
  <path class="cls-3" d="m189.002,18.633c.737,0,1.336.6,1.336,1.337s-.599,1.335-1.336,1.335-1.336-.599-1.336-1.335.599-1.337,1.336-1.337m0-.524c-1.026,0-1.86.836-1.86,1.861s.834,1.86,1.86,1.86,1.86-.834,1.86-1.86-.835-1.861-1.86-1.861Z"/>
  <line class="cls-10" x1="198.9" y1="61.013" x2="198.9" y2="83.779"/>
  <line class="cls-10" x1="196.717" y1="61.013" x2="201.084" y2="61.013"/>
  <line class="cls-10" x1="196.717" y1="83.772" x2="201.084" y2="83.772"/>
  <rect class="cls-3" x="197.154" y="70.622" width="3.494" height="3.494"/>
  <line class="cls-10" x1="193.951" y1="55.553" x2="193.951" y2="78.621"/>
  <line class="cls-10" x1="191.768" y1="55.553" x2="196.135" y2="55.553"/>
  <line class="cls-10" x1="191.768" y1="78.614" x2="196.135" y2="78.614"/>
  <polyline class="cls-5" points="193.951 64.866 191.852 69.067 196.051 69.067 193.951 64.866"/>
  <line class="cls-10" x1="138.757" y1="109.487" x2="138.757" y2="111.179"/>
  <text class="cls-2" transform="translate(137.314 116.665)"><tspan x="0" y="0">7</tspan></text>
  <line class="cls-10" x1="133.807" y1="9.015" x2="133.807" y2="32.782"/>
  <line class="cls-10" x1="131.623" y1="9.015" x2="135.99" y2="9.015"/>
  <line class="cls-10" x1="131.623" y1="32.776" x2="135.99" y2="32.776"/>
  <path class="cls-6" d="m133.807,22.513c-.881,0-1.598-.716-1.598-1.597s.717-1.599,1.598-1.599,1.598.718,1.598,1.599-.717,1.597-1.598,1.597"/>
  <path class="cls-3" d="m133.807,19.579c.737,0,1.336.6,1.336,1.337s-.599,1.335-1.336,1.335-1.336-.599-1.336-1.335.599-1.337,1.336-1.337m0-.524c-1.026,0-1.86.836-1.86,1.861s.834,1.86,1.86,1.86,1.86-.834,1.86-1.86-.835-1.861-1.86-1.861Z"/>
  <line class="cls-10" x1="143.706" y1="71.275" x2="143.706" y2="92.786"/>
  <line class="cls-10" x1="141.523" y1="71.275" x2="145.89" y2="71.275"/>
  <line class="cls-10" x1="141.523" y1="92.779" x2="145.89" y2="92.779"/>
  <rect class="cls-3" x="141.959" y="80.12" width="3.494" height="3.493"/>
  <line class="cls-10" x1="138.756" y1="70.182" x2="138.756" y2="92.24"/>
  <line class="cls-10" x1="136.573" y1="70.182" x2="140.94" y2="70.182"/>
  <line class="cls-10" x1="136.573" y1="92.233" x2="140.94" y2="92.233"/>
  <polyline class="cls-5" points="138.756 79.032 136.657 83.233 140.856 83.233 138.756 79.032"/>
  <line class="cls-10" x1="175.554" y1="109.487" x2="175.554" y2="111.179"/>
  <text class="cls-2" transform="translate(174.111 116.665)"><tspan x="0" y="0">9</tspan></text>
  <line class="cls-10" x1="170.604" y1="8.433" x2="170.604" y2="31.982"/>
  <line class="cls-10" x1="168.42" y1="8.433" x2="172.788" y2="8.433"/>
  <line class="cls-10" x1="168.42" y1="31.976" x2="172.788" y2="31.976"/>
  <path class="cls-6" d="m170.604,21.822c-.881,0-1.598-.716-1.598-1.597s.717-1.599,1.598-1.599,1.597.718,1.597,1.599-.716,1.597-1.597,1.597"/>
  <path class="cls-3" d="m170.604,18.888c.736,0,1.335.6,1.335,1.337s-.599,1.335-1.335,1.335-1.336-.599-1.336-1.335.599-1.337,1.336-1.337m0-.524c-1.026,0-1.86.836-1.86,1.861s.834,1.86,1.86,1.86,1.86-.834,1.86-1.86-.835-1.861-1.86-1.861Z"/>
  <line class="cls-10" x1="180.502" y1="63.306" x2="180.502" y2="84.926"/>
  <line class="cls-10" x1="178.319" y1="63.306" x2="182.686" y2="63.306"/>
  <line class="cls-10" x1="178.319" y1="84.919" x2="182.686" y2="84.919"/>
  <rect class="cls-3" x="178.756" y="72.423" width="3.494" height="3.494"/>
  <line class="cls-10" x1="175.553" y1="60.575" x2="175.553" y2="83.588"/>
  <line class="cls-10" x1="173.369" y1="60.575" x2="177.736" y2="60.575"/>
  <line class="cls-10" x1="173.369" y1="83.582" x2="177.736" y2="83.582"/>
  <polyline class="cls-5" points="175.553 70.025 173.453 74.225 177.653 74.225 175.553 70.025"/>
  <line class="cls-10" x1="212.351" y1="109.487" x2="212.351" y2="111.179"/>
  <text class="cls-2" transform="translate(209.467 116.665)"><tspan x="0" y="0">11</tspan></text>
  <line class="cls-10" x1="207.4" y1="9.161" x2="207.4" y2="32.201"/>
  <line class="cls-10" x1="205.217" y1="9.161" x2="209.584" y2="9.161"/>
  <line class="cls-10" x1="205.217" y1="32.194" x2="209.584" y2="32.194"/>
  <path class="cls-6" d="m207.4,22.186c-.881,0-1.598-.716-1.598-1.597s.717-1.599,1.598-1.599,1.598.718,1.598,1.599-.717,1.597-1.598,1.597"/>
  <path class="cls-3" d="m207.4,19.251c.737,0,1.336.6,1.336,1.337s-.599,1.335-1.336,1.335-1.336-.599-1.336-1.335.599-1.337,1.336-1.337m0-.524c-1.026,0-1.86.836-1.86,1.861s.834,1.86,1.86,1.86,1.86-.834,1.86-1.86-.835-1.861-1.86-1.861Z"/>
  <line class="cls-10" x1="217.3" y1="55.581" x2="217.3" y2="78.074"/>
  <line class="cls-10" x1="215.116" y1="55.581" x2="219.483" y2="55.581"/>
  <line class="cls-10" x1="215.116" y1="78.068" x2="219.483" y2="78.068"/>
  <rect class="cls-3" x="215.552" y="65.026" width="3.494" height="3.494"/>
  <line class="cls-10" x1="212.35" y1="52.824" x2="212.35" y2="77.392"/>
  <line class="cls-10" x1="210.166" y1="52.824" x2="214.533" y2="52.824"/>
  <line class="cls-10" x1="210.166" y1="77.386" x2="214.533" y2="77.386"/>
  <polyline class="cls-5" points="212.35 63.12 210.249 67.32 214.45 67.32 212.35 63.12"/>
  <line class="cls-10" x1="230.749" y1="109.487" x2="230.749" y2="111.179"/>
  <text class="cls-2" transform="translate(227.866 116.665)"><tspan x="0" y="0">12</tspan></text>
  <line class="cls-10" x1="225.799" y1="4.586" x2="225.799" y2="27.462"/>
  <line class="cls-10" x1="223.615" y1="4.586" x2="227.982" y2="4.586"/>
  <line class="cls-10" x1="223.615" y1="27.456" x2="227.982" y2="27.456"/>
  <path class="cls-6" d="m225.799,17.757c-.881,0-1.598-.716-1.598-1.597s.717-1.599,1.598-1.599,1.597.718,1.597,1.599-.716,1.597-1.597,1.597"/>
  <path class="cls-3" d="m225.799,14.823c.736,0,1.335.6,1.335,1.337s-.599,1.335-1.335,1.335-1.336-.599-1.336-1.335.599-1.337,1.336-1.337m0-.524c-1.026,0-1.86.836-1.86,1.861s.834,1.86,1.86,1.86,1.86-.834,1.86-1.86-.835-1.861-1.86-1.861Z"/>
  <line class="cls-10" x1="235.697" y1="49.904" x2="235.697" y2="71.142"/>
  <line class="cls-10" x1="233.514" y1="49.904" x2="237.881" y2="49.904"/>
  <line class="cls-10" x1="233.514" y1="71.135" x2="237.881" y2="71.135"/>
  <rect class="cls-3" x="233.951" y="58.749" width="3.494" height="3.494"/>
  <line class="cls-10" x1="230.748" y1="52.49" x2="230.748" y2="75.721"/>
  <line class="cls-10" x1="228.564" y1="52.49" x2="232.931" y2="52.49"/>
  <line class="cls-10" x1="228.564" y1="75.714" x2="232.931" y2="75.714"/>
  <polyline class="cls-5" points="230.748 62.021 228.648 66.221 232.848 66.221 230.748 62.021"/>
  <rect class="cls-6" x="21.541" y="80.585" width="42.132" height="24.527"/>
  <rect class="cls-9" x="21.541" y="80.585" width="42.132" height="24.527"/>
  <text class="cls-2" transform="translate(30.741 87.725)"><tspan x="0" y="0">대조군</tspan></text>
  <path class="cls-6" d="m26.857,87.641c-.881,0-1.598-.717-1.598-1.597s.717-1.599,1.598-1.599,1.598.717,1.598,1.599-.717,1.597-1.598,1.597"/>
  <path class="cls-3" d="m26.857,84.706c.737,0,1.336.6,1.336,1.337s-.599,1.335-1.336,1.335-1.336-.599-1.336-1.335.599-1.337,1.336-1.337m0-.524c-1.026,0-1.86.836-1.86,1.861s.834,1.86,1.86,1.86,1.86-.834,1.86-1.86-.835-1.861-1.86-1.861Z"/>
  <text class="cls-2" transform="translate(30.741 94.661)"><tspan x="0" y="0">격일제 단식</tspan></text>
  <polyline class="cls-5" points="26.857 90.878 24.758 95.078 28.957 95.078 26.857 90.878"/>
  <text class="cls-2" transform="translate(30.741 101.597)"><tspan x="0" y="0">일정한 소식</tspan></text>
  <rect class="cls-3" x="25.11" y="98.166" width="3.494" height="3.494"/>
</svg>