<?xml version="1.0" encoding="UTF-8"?>
<svg id="_레이어_1" data-name="레이어 1" xmlns="http://www.w3.org/2000/svg" xmlns:xlink="http://www.w3.org/1999/xlink" viewBox="0 0 350.646 330.929">
  <defs>
    <style>
      .cls-1 {
        stroke-width: 1.663px;
      }

      .cls-1, .cls-2, .cls-3, .cls-4, .cls-5, .cls-6, .cls-7, .cls-8, .cls-9, .cls-10, .cls-11, .cls-12, .cls-13, .cls-14, .cls-15, .cls-16, .cls-17, .cls-18, .cls-19, .cls-20, .cls-21, .cls-22 {
        stroke: #231916;
      }

      .cls-1, .cls-4, .cls-23, .cls-9, .cls-10, .cls-15 {
        fill: #00504b;
      }

      .cls-1, .cls-4, .cls-10, .cls-24, .cls-16, .cls-25, .cls-26, .cls-20, .cls-21 {
        stroke-linecap: round;
      }

      .cls-1, .cls-4, .cls-10, .cls-16, .cls-26, .cls-20, .cls-21 {
        stroke-linejoin: bevel;
      }

      .cls-2, .cls-6, .cls-7, .cls-9, .cls-24, .cls-11, .cls-13, .cls-14, .cls-15, .cls-17, .cls-25, .cls-18, .cls-19, .cls-22 {
        stroke-miterlimit: 10;
      }

      .cls-2, .cls-17, .cls-19 {
        stroke-width: .468px;
      }

      .cls-2, .cls-18 {
        fill: #1b91a2;
      }

      .cls-27 {
        fill: #231916;
        font-family: AppleSDGothicNeoM00, AppleSDGothicNeoM00;
        font-size: 12px;
      }

      .cls-3, .cls-5 {
        stroke-width: .5px;
      }

      .cls-3, .cls-28, .cls-24, .cls-12, .cls-25, .cls-26 {
        fill: none;
      }

      .cls-4 {
        stroke-width: 1.599px;
      }

      .cls-23, .cls-28, .cls-29, .cls-30, .cls-31, .cls-32, .cls-33, .cls-34 {
        stroke-width: 0px;
      }

      .cls-5 {
        fill: url(#_무제_그라디언트_108);
      }

      .cls-6 {
        stroke-width: .457px;
      }

      .cls-6, .cls-7, .cls-11, .cls-19 {
        fill: #1c6b95;
      }

      .cls-35 {
        clip-path: url(#clippath-2);
      }

      .cls-7, .cls-14, .cls-18 {
        stroke-width: .487px;
      }

      .cls-8 {
        fill: #fbeccb;
        stroke-width: .896px;
      }

      .cls-36 {
        clip-path: url(#clippath-6);
      }

      .cls-9 {
        stroke-width: .32px;
      }

      .cls-10, .cls-16 {
        stroke-width: .266px;
      }

      .cls-24 {
        stroke: #3f3960;
        stroke-width: 1.316px;
      }

      .cls-11 {
        stroke-width: .475px;
      }

      .cls-12 {
        stroke-width: 1.383px;
      }

      .cls-37 {
        clip-path: url(#clippath-1);
      }

      .cls-38 {
        clip-path: url(#clippath-4);
      }

      .cls-29 {
        fill: url(#_무제_그라디언트_10-3);
      }

      .cls-13 {
        fill: url(#_무제_그라디언트_3);
      }

      .cls-13, .cls-22 {
        stroke-width: .567px;
      }

      .cls-14, .cls-17 {
        fill: #be4f49;
      }

      .cls-30 {
        fill: url(#_무제_그라디언트_10);
      }

      .cls-31 {
        fill: url(#_무제_그라디언트_11);
      }

      .cls-39 {
        clip-path: url(#clippath);
      }

      .cls-15 {
        stroke-width: .333px;
      }

      .cls-32 {
        fill: url(#_무제_그라디언트_11-3);
      }

      .cls-40 {
        clip-path: url(#clippath-3);
      }

      .cls-16 {
        fill: #c9743a;
      }

      .cls-33 {
        fill: url(#_무제_그라디언트_11-2);
      }

      .cls-25 {
        stroke: #785894;
        stroke-width: 3.07px;
      }

      .cls-26 {
        stroke: #8460a6;
        stroke-width: 2.649px;
      }

      .cls-41 {
        clip-path: url(#clippath-5);
      }

      .cls-20 {
        stroke-width: 1.476px;
      }

      .cls-20, .cls-21 {
        fill: #6486be;
      }

      .cls-21 {
        stroke-width: .277px;
      }

      .cls-34 {
        fill: url(#_무제_그라디언트_10-2);
      }

      .cls-22 {
        fill: url(#_무제_그라디언트_2);
      }
    </style>
    <radialGradient id="_무제_그라디언트_3" data-name="무제 그라디언트 3" cx="71.828" cy="75.173" fx="71.828" fy="75.173" r="49.146" gradientUnits="userSpaceOnUse">
      <stop offset="0" stop-color="#fff"/>
      <stop offset="1" stop-color="#acdce5"/>
    </radialGradient>
    <radialGradient id="_무제_그라디언트_2" data-name="무제 그라디언트 2" cx="72.627" cy="78.369" fx="72.627" fy="71.924" r="31.565" gradientUnits="userSpaceOnUse">
      <stop offset=".148" stop-color="#fff"/>
      <stop offset="1" stop-color="#5fc2d2"/>
    </radialGradient>
    <clipPath id="clippath">
      <path class="cls-28" d="m253.02,82.018c-5.98,4.348-7.092,11.312-7.23,17.193-.177,7.097,2.998,12.297,7.462,17.481,5.687,6.599,7.617,12.396,16.313,10.615l.874-.105c5.028-1.405,13.315-6.572,17.807-9.769,5.582-3.977,11.252-3.225,16.595-2.473,6.561.924,12.629,1.842,17.436-5.985,2.633-4.282,3.38-17.53-4.663-25.496-5.803-5.747-12.9-4.254-19.958-2.76-4.614.974-9.211,1.953-13.426.913-5.753-1.427-12.258-3.441-18.576-3.441-4.409,0-8.723.979-12.635,3.828"/>
    </clipPath>
    <radialGradient id="_무제_그라디언트_11" data-name="무제 그라디언트 11" cx="-98.122" cy="652.791" fx="-98.122" fy="652.791" r="5.532" gradientTransform="translate(908.357 4263.207) scale(6.33 -6.377)" gradientUnits="userSpaceOnUse">
      <stop offset="0" stop-color="#f4e3ed"/>
      <stop offset="1" stop-color="#dfacc9"/>
    </radialGradient>
    <clipPath id="clippath-1">
      <path class="cls-28" d="m195.816,48.501c-4.16,3.43-4.414,7.164-5.41,11.987-1.029,4.923-1.361,8.01-1.483,12.546-.183,6.439-.288,5.886-.559,10.737-.227,3.955-.586,3.618,1.427,7.142,1.593,2.766,3.767,3.275,6.715,4.541l.476.249c1.77.802,4.304,2.091,6.212,2.998,3.22,1.538,5.958,3.502,9.338,4.713,5.83,2.096,22.796,12.706,28.599,8.729,7.473-5.133,3.275-13.038,4.785-19.262,1.947-8.038,5.554-14.875,4.265-23.997-2.03-14.289-21.723-20.279-33.965-22.89-2.838-.597-5.902-1.068-8.906-1.068-4.176,0-8.259.896-11.495,3.573"/>
    </clipPath>
    <radialGradient id="_무제_그라디언트_11-2" data-name="무제 그라디언트 11" cx="-104.594" cy="615.237" fx="-104.594" fy="615.237" r="5.532" gradientTransform="translate(-3157.966 683.825) rotate(90) scale(5.782 -5.495)" xlink:href="#_무제_그라디언트_11"/>
    <clipPath id="clippath-2">
      <path class="cls-28" d="m236.325,26.878c-10.09,7.484-8.651,20.091-.586,25.247,3.231,2.058,11.877,8.486,13.536,12.059,1.449,3.059.404,12.966,4.492,14.41l.924.255c5.327.249,3.822-.935,10.571-.99,4.331-.033,4.973.193,8.193.769,5.277.951,5.703,2.097,9.846,2.661,28.489,3.85,19.92-22.227,25.977-34.817,6.777-14.084-27.144-21.657-40.531-23.261-5.272-.63-10.416-1.388-15.356-1.388-6.052,0-11.799,1.14-17.066,5.056"/>
    </clipPath>
    <radialGradient id="_무제_그라디언트_11-3" data-name="무제 그라디언트 11" cx="-95.566" cy="622.884" fx="-95.566" fy="622.884" r="5.532" gradientTransform="translate(-3609.945 668.849) rotate(90) scale(6.476 -6.231)" xlink:href="#_무제_그라디언트_11"/>
    <clipPath id="clippath-3">
      <path class="cls-28" d="m213.064,75.723c-1.643,6.107,1.964,12.391,8.06,14.034,6.101,1.643,12.391-1.964,14.029-8.065,1.654-6.096-1.964-12.386-8.071-14.034-.996-.271-1.997-.398-2.982-.398-5.039,0-9.658,3.358-11.036,8.464"/>
    </clipPath>
    <radialGradient id="_무제_그라디언트_10" data-name="무제 그라디언트 10" cx="-157.944" cy="580.025" fx="-157.944" fy="580.025" r="5.532" gradientTransform="translate(-1096.126 438.837) rotate(90) scale(2.277 -2.277)" gradientUnits="userSpaceOnUse">
      <stop offset="0" stop-color="#dfacc9"/>
      <stop offset=".048" stop-color="#dda7c6"/>
      <stop offset="1" stop-color="#c65b97"/>
    </radialGradient>
    <clipPath id="clippath-4">
      <path class="cls-28" d="m265.278,46.792c-1.654,6.102,1.953,12.38,8.054,14.034,6.112,1.643,12.391-1.969,14.034-8.071,1.659-6.101-1.958-12.38-8.065-14.029-1.001-.271-2.002-.398-2.987-.398-5.039,0-9.653,3.358-11.036,8.463"/>
    </clipPath>
    <radialGradient id="_무제_그라디언트_10-2" data-name="무제 그라디언트 10" cx="-142.54" cy="594.96" fx="-142.54" fy="594.96" r="5.532" gradientTransform="translate(-1077.601 374.761) rotate(90) scale(2.277 -2.277)" xlink:href="#_무제_그라디언트_10"/>
    <clipPath id="clippath-5">
      <path class="cls-28" d="m262.363,92.955c-3.972,4.923-3.197,12.126,1.726,16.097,4.907,3.966,12.115,3.203,16.086-1.72,3.961-4.912,3.197-12.115-1.715-16.081-2.119-1.715-4.663-2.545-7.186-2.545-3.341,0-6.655,1.455-8.911,4.248"/>
    </clipPath>
    <radialGradient id="_무제_그라디언트_10-3" data-name="무제 그라디언트 10" cx="-154.297" cy="679.444" fx="-154.297" fy="679.444" r="5.532" gradientTransform="translate(623.144 1647.379) scale(2.277 -2.277)" xlink:href="#_무제_그라디언트_10"/>
    <clipPath id="clippath-6">
      <path class="cls-3" d="m97.538,220.971c-3.351.882-6.491,1.637-10.047,1.686-6.643.122-12.984-3.527-14.835,4.984-1.463,6.637-.256,14.868,3.578,20.518,7.303,10.767,21.953,13.576,32.718,6.271,7.321-4.957,11.436-15.166,10.29-23.833-.643-4.903-2.911-7.83-6.025-9.387-4.284-2.142-10.177-1.694-15.678-.24"/>
    </clipPath>
    <radialGradient id="_무제_그라디언트_108" data-name="무제 그라디언트 108" cx="-93.577" cy="645.508" fx="-93.577" fy="645.508" r="3.585" gradientTransform="translate(696.397 4371.684) scale(6.405 -6.405)" gradientUnits="userSpaceOnUse">
      <stop offset="0" stop-color="#ffefc9"/>
      <stop offset="1" stop-color="#fdd469"/>
    </radialGradient>
  </defs>
  <g>
    <line class="cls-4" x1="99.325" y1="174.265" x2="99.325" y2="190.357"/>
    <rect class="cls-23" x="89.175" y="125.123" width="19.805" height="1.733" rx=".609" ry=".609" transform="translate(225.067 26.912) rotate(90)"/>
    <rect class="cls-23" x="83.357" y="125.618" width="19.805" height="1.733" rx=".609" ry=".609" transform="translate(219.744 33.225) rotate(90)"/>
    <path class="cls-19" d="m97.925,175.647h2.496c.592,0,1.073-.48,1.073-1.073v-16.071c0-.592-.48-1.073-1.073-1.073h-1.259c-.093,1.308-1.053,2.375-2.311,2.626v14.518c0,.592.48,1.073,1.073,1.073Z"/>
    <path class="cls-19" d="m93.407,157.389h-1.259c-.592,0-1.073.48-1.073,1.073v8.716c0,.592.48,1.073,1.073,1.073h2.496c.592,0,1.073-.48,1.073-1.073v-7.163c-1.258-.251-2.218-1.318-2.311-2.626Z"/>
    <rect class="cls-2" x="96.811" y="134.716" width="4.642" height="10.274" rx=".48" ry=".48"/>
    <path class="cls-2" d="m98.477,155.347h2.537c.265,0,.48-.215.48-.48v-9.315c0-.265-.215-.48-.48-.48h-3.683c-.265,0-.48.215-.48.48v8.84c.646.129,1.212.473,1.625.954Z"/>
    <rect class="cls-2" x="91.076" y="134.716" width="4.642" height="10.274" rx=".48" ry=".48"/>
    <path class="cls-2" d="m95.759,154.386v-8.834c0-.265-.215-.48-.48-.48h-3.683c-.265,0-.48.215-.48.48v9.315c0,.265.215.48.48.48h2.496c.421-.491,1.004-.839,1.666-.961Z"/>
    <circle class="cls-17" cx="96.313" cy="157.142" r="1.774"/>
    <rect class="cls-6" x="90.02" y="169.788" width="6.767" height="4.91" rx="1.725" ry="1.725" transform="translate(265.647 78.839) rotate(90)"/>
    <line class="cls-9" x1="99.201" y1="129.455" x2="92.517" y2="129.455"/>
  </g>
  <g>
    <line class="cls-1" x1="174.456" y1="55.27" x2="191.19" y2="55.27"/>
    <rect class="cls-23" x="113.957" y="54.626" width="20.596" height="1.802" rx=".609" ry=".609"/>
    <rect class="cls-23" x="114.472" y="60.676" width="20.596" height="1.802" rx=".609" ry=".609"/>
    <path class="cls-7" d="m175.894,56.725v-2.596c0-.616-.499-1.116-1.116-1.116h-16.713c-.616,0-1.116.499-1.116,1.116v1.309c1.36.096,2.47,1.095,2.73,2.403h15.098c.616,0,1.116-.499,1.116-1.116Z"/>
    <path class="cls-7" d="m156.907,61.423v1.309c0,.616.499,1.116,1.116,1.116h9.064c.616,0,1.116-.499,1.116-1.116v-2.596c0-.616-.499-1.116-1.116-1.116h-7.449c-.261,1.308-1.37,2.306-2.73,2.403Z"/>
    <rect class="cls-18" x="133.33" y="53.056" width="10.684" height="4.827" rx=".499" ry=".499"/>
    <path class="cls-18" d="m154.783,56.151v-2.639c0-.275-.223-.499-.499-.499h-9.686c-.275,0-.499.223-.499.499v3.83c0,.275.223.499.499.499h9.193c.134-.671.492-1.261.993-1.69Z"/>
    <rect class="cls-18" x="133.33" y="59.021" width="10.684" height="4.827" rx=".499" ry=".499"/>
    <path class="cls-18" d="m153.784,58.978h-9.186c-.275,0-.499.223-.499.499v3.83c0,.275.223.499.499.499h9.686c.275,0,.499-.223.499-.499v-2.596c-.511-.438-.872-1.044-.999-1.733Z"/>
    <circle class="cls-14" cx="156.65" cy="58.402" r="1.845"/>
    <rect class="cls-11" x="168.836" y="58.874" width="7.037" height="5.106" rx="1.725" ry="1.725"/>
    <line class="cls-15" x1="127.859" y1="55.398" x2="127.859" y2="62.35"/>
  </g>
  <g>
    <line class="cls-24" x1="76.258" y1="161.057" x2="76.258" y2="191.449"/>
    <g>
      <line class="cls-24" x1="76.258" y1="118.271" x2="76.258" y2="148.663"/>
      <rect class="cls-10" x="71.239" y="145.087" width="10.039" height="10.039" rx="3.29" ry="3.29" transform="translate(236.322 202.324) rotate(135)"/>
    </g>
    <polyline class="cls-25" points="84.182 153.134 76.258 161.057 68.335 153.134"/>
  </g>
  <line class="cls-24" x1="53.322" y1="161.057" x2="53.322" y2="191.449"/>
  <g>
    <line class="cls-24" x1="53.322" y1="118.271" x2="53.322" y2="148.663"/>
    <rect class="cls-16" x="48.303" y="145.087" width="10.039" height="10.039" rx="3.29" ry="3.29" transform="translate(197.168 218.543) rotate(135)"/>
  </g>
  <polyline class="cls-25" points="61.246 153.134 53.322 161.057 45.398 153.134"/>
  <g>
    <line class="cls-20" x1="186.708" y1="81.842" x2="155.432" y2="81.842"/>
    <circle class="cls-21" cx="153.666" cy="81.842" r="2.856"/>
    <line class="cls-20" x1="147.577" y1="81.937" x2="116.3" y2="81.937"/>
    <path class="cls-26" d="m153.361,87.102c-2.958,0-5.356-2.398-5.356-5.356s2.398-5.356,5.356-5.356"/>
  </g>
  <g>
    <circle class="cls-13" cx="71.828" cy="75.173" r="49.146"/>
    <circle class="cls-22" cx="72.627" cy="78.369" r="31.565"/>
  </g>
  <g>
    <g class="cls-39">
      <rect class="cls-31" x="240.668" y="56.089" width="89.934" height="94.64" transform="translate(27.336 263.292) rotate(-51.659)"/>
    </g>
    <path class="cls-12" d="m269.564,127.308c-8.696,1.776-10.621-4.022-16.313-10.621-4.458-5.178-7.639-10.377-7.462-17.475.138-5.886,1.25-12.845,7.235-17.198,9.509-6.925,21.447-2.799,31.205-.387,10.682,2.633,23.798-7.65,33.384,1.848,8.049,7.971,7.302,21.214,4.669,25.507-8.724,14.195-21.601-.404-34.037,8.453-4.492,3.192-12.778,8.364-17.801,9.775l-.88.099Z"/>
    <g class="cls-37">
      <rect class="cls-33" x="177.174" y="40.762" width="84.9" height="79.526" transform="translate(86.557 272.91) rotate(-75.465)"/>
    </g>
    <path class="cls-12" d="m196.506,95.458c-2.949-1.272-5.117-1.776-6.71-4.541-2.019-3.524-1.659-3.186-1.433-7.142.271-4.851.376-4.303.559-10.742.122-4.536.454-7.617,1.483-12.541.996-4.824,1.25-8.558,5.41-11.987,5.576-4.602,13.624-3.95,20.401-2.506,12.241,2.606,31.935,8.596,33.965,22.885,1.289,9.122-2.318,15.965-4.265,23.997-1.504,6.223,2.689,14.134-4.785,19.267-5.803,3.972-22.763-6.638-28.599-8.735-3.374-1.211-6.118-3.175-9.338-4.708-1.909-.907-4.436-2.202-6.212-2.998l-.476-.249Z"/>
    <g class="cls-35">
      <rect class="cls-32" x="229.228" y="2.063" width="83.833" height="102.835" transform="translate(151.322 302.522) rotate(-75.464)"/>
    </g>
    <path class="cls-12" d="m253.771,78.592c-4.094-1.444-3.048-11.351-4.498-14.404-1.659-3.579-10.306-10.002-13.536-12.065-8.06-5.156-9.498-17.757.586-25.247,9.559-7.108,20.689-5.078,32.422-3.667,13.387,1.604,47.313,9.177,40.537,23.261-6.063,12.596,2.506,38.672-25.983,34.817-4.138-.559-4.569-1.704-9.846-2.655-3.22-.581-3.856-.808-8.187-.769-6.754.05-5.249,1.233-10.577.985l-.918-.255Z"/>
    <g class="cls-40">
      <rect class="cls-30" x="209.151" y="63.93" width="29.924" height="30.801" transform="translate(89.1 275.012) rotate(-74.888)"/>
    </g>
    <path class="cls-12" d="m213.063,75.724c1.648-6.107,7.927-9.714,14.023-8.071,6.101,1.654,9.719,7.944,8.071,14.034-1.643,6.107-7.932,9.714-14.034,8.071-6.096-1.649-9.703-7.933-8.06-14.034Z"/>
    <g class="cls-38">
      <rect class="cls-34" x="261.361" y="34.991" width="29.929" height="30.817" transform="translate(155.628 304.028) rotate(-74.888)"/>
    </g>
    <path class="cls-12" d="m265.277,46.79c1.654-6.107,7.921-9.714,14.023-8.065,6.107,1.648,9.725,7.932,8.071,14.028-1.643,6.107-7.927,9.714-14.034,8.071-6.107-1.654-9.714-7.927-8.06-14.034Z"/>
    <g class="cls-41">
      <rect class="cls-29" x="253.719" y="83.211" width="35.089" height="35.303" transform="translate(22.403 248.598) rotate(-51.092)"/>
    </g>
    <path class="cls-12" d="m264.088,109.054c-4.923-3.977-5.692-11.174-1.726-16.097,3.972-4.918,11.18-5.687,16.097-1.709,4.912,3.966,5.681,11.174,1.715,16.092-3.972,4.912-11.18,5.681-16.086,1.715Z"/>
  </g>
  <g>
    <path class="cls-8" d="m113.568,278.715c1.882-.109,3.966.675,5.65,1.67,11.198,6.618,16.52,19.684,24.629,29.855,1.174,1.472,3.077,3.033,4.719,2.111.904-.507,1.294-1.596,1.497-2.612,2.141-10.708-8.734-21.579-16.541-27.202-3.991-2.874-9.029-6.539-6.149-12.263.374-.743.93-1.471,1.73-1.698,2.367-.672,3.517,3.104,5.824,3.96,2.304.855,4.641-1.831,4.505-4.285-.136-2.454-1.786-4.517-3.252-6.489-.303-.408-.615-.858-.613-1.367.004-1.156,1.466-1.639,2.618-1.749,9.839-.941,19.959,1.313,28.468,6.341,2.093,1.237,5.05,2.536,6.641.697,1.049-1.213.654-3.191-.427-4.375-1.081-1.184-2.652-1.769-4.161-2.313-4.598-1.659-9.201-3.32-13.907-4.646-3.922-1.105-7.959-1.994-11.548-3.924s-6.755-5.131-7.49-9.139c-.13-.707-.112-1.581.495-1.966.308-.195.693-.208,1.058-.215,2.823-.052,5.646-.103,8.47-.155,1.964-.036,4.361-.351,5.105-2.17.639-1.564-.484-3.399-2-4.146-1.515-.747-3.285-.695-4.974-.631s-3.461.105-4.967-.662c-.591-.301-1.14-.744-1.406-1.352-.648-1.482.601-3.086,1.866-4.094,4.945-3.938,11.245-5.344,17.16-7.153,4.551-1.391,14.345-4.041,15.226-9.784.212-1.381-.577-2.99-1.95-3.25-1.129-.214-2.205.488-3.155,1.134-5.623,3.822-11.863,6.849-18.519,8.234s-13.755,1.065-20.035-1.543c-.45-.187-.921-.406-1.189-.813-.398-.604-.223-1.415.072-2.076,1.606-3.603,5.941-5.211,8.063-8.536.2-.313.384-.686.278-1.041-.07-.235-.256-.416-.455-.559-1.655-1.188-4.008-.161-5.486,1.24-1.478,1.401-2.704,3.22-4.62,3.914-2.956,1.071-6.556-1.731-6.244-4.86.206-2.069,1.727-3.729,3.129-5.265,4.412-4.834,8.413-10.043,11.946-15.552-.993-1.05-2.758-.995-4.008-.269s-2.106,1.959-2.92,3.154c-2.105,3.087-4.21,6.174-6.315,9.262-1.761,2.582-4.392,5.51-7.399,4.657-2.257-.641-3.421-3.313-3.159-5.644.262-2.331,1.585-4.388,2.872-6.35,2.3-3.504,4.599-7.009,6.899-10.513,1.422-2.168,2.863-4.374,3.608-6.858s.707-5.328-.707-7.501c-.526-.809-1.263-1.522-2.184-1.81-2.261-.707-4.404,1.295-5.846,3.175-6.391,8.333-10.82,18.161-12.829,28.469-.271,1.389-1.015,3.182-2.41,2.951-1.261-.209-1.546-1.873-2.362-2.857-1.244-1.499-3.677-1.225-5.36-.245s-3.034,2.496-4.809,3.298c-4.617,2.087-9.996-1.34-14.989-.481-2.433.418-4.734,1.853-7.186,1.566-4.731-.554-8.168-7.409-10.811-10.843-9.274-12.046-12.324-14.872-14.787-13.993-1.496.534-2.338,1.28-2.712,2.153-1.661,3.88,4.867,10.098,6.118,11.243,3.557,3.256,4.752,2.7,9.486,6.598,3.796,3.126,5.923,4.877,6.772,7.897,1.396,4.969-1.345,10.964-3.662,11.119-1.98.133-3.868-3.983-3.98-4.249-.767-1.818-.371-8.299-3.25-7.585-2.583.645-1.252,6.091-.659,7.694.818,2.239,3.899,4.52,4.107,6.788.332,3.626-3.842,9.048-8.24,9.265-5.866.29-7.544-8.917-20.571-17.901-2.82-1.945-7.674-5.293-9.215-3.981-2.757,2.347,2.447,10.258,3.901,12.27,3.215,4.446,7.934,7.549,12.405,10.593,3.966,2.699,8.028,5.569,10.947,9.438,2.819,3.737,2.945,9.302,2.747,13.782-.019.42-.056.872-.329,1.191-.206.242-.514.368-.81.486-3.33,1.323-6.623,2.717-10.083,3.671-13.332,3.67-32.563-4.635-31.397,3.437.56,3.879,11.783,4.714,19.776,3.963,10.928-1.027,21.635-5.658,23.814-2.508.402.581.997,2.127,2.596,2.788,1.045.432,1.584.381,2.747.848.891.358,1.72,1.285,1.411,2.195-.191.562-.744.906-1.257,1.203l-8.375,4.851c-.59.342-1.25.79-1.293,1.47-.056.869.939,1.43,1.805,1.516,2.313.229,4.391-1.256,6.467-2.303,2.076-1.047,4.93-1.552,6.461.198.941,1.076,1.022,2.661.796,4.073-.416,2.596-1.686,4.978-3.128,7.176-5.416,8.253-13.366,14.488-19.681,22.075-.572.687-1.157,1.453-1.187,2.346-.053,1.556,1.654,2.671,3.211,2.685,3.118.028,5.411-2.776,7.319-5.242,3.706-4.79,7.801-9.279,12.231-13.409,2.521-2.35,5.637-6.892,9.096-7.797,2.325-.608,3.729,1.146,5.886,2.06,3.07,1.301,6.652,1.659,9.112,4.129,1.618,1.624,2.405,3.88,3.058,6.077,2.634,8.862,3.893,18.132,3.717,27.376-.064,3.348-.313,6.718.163,10.033.071.493.18,1.026.559,1.351,1.014.868,2.394-.57,2.86-1.821,2.256-6.044,2.123-12.72,1.272-19.116s-2.39-12.701-2.857-19.136c-.118-1.628-.11-3.434.956-4.67.21-.243.476-.465.795-.505.903-.113,1.272,1.123,1.276,2.033.028,6.922-.919,14.462,2.936,20.212,1.713-5.36,2.12-11.133,1.175-16.68-.233-1.366-.102-3.348,1.282-3.419.355-.018.698.122,1.011.291,1.875,1.009,2.99,2.998,3.859,4.942,4.465,9.999,5.358,21.998,12.937,29.901.614.64,1.456,1.293,2.3,1.02.484-.157.827-.591,1.057-1.044.833-1.642.519-3.607.162-5.413-1.879-9.497-4.412-18.851-6.963-28.19-.827-3.028-1.449-6.804.937-8.843.802-.685,1.757-1.004,2.772-1.063Z"/>
    <g>
      <g class="cls-36">
        <rect class="cls-5" x="60.724" y="204.014" width="65.911" height="67.412" transform="translate(-117.283 93.562) rotate(-34.146)"/>
      </g>
      <path class="cls-3" d="m97.538,220.971c-3.351.882-6.491,1.637-10.047,1.686-6.643.122-12.984-3.527-14.835,4.984-1.463,6.637-.256,14.868,3.578,20.518,7.303,10.767,21.953,13.576,32.718,6.271,7.321-4.957,11.436-15.166,10.29-23.833-.643-4.903-2.911-7.83-6.025-9.387-4.284-2.142-10.177-1.694-15.678-.24"/>
    </g>
  </g>
  <text class="cls-27" transform="translate(166.908 105.567)"><tspan x="0" y="0">PD-L1</tspan></text>
  <text class="cls-27" transform="translate(118.48 104.336)"><tspan x="0" y="0">PD-1</tspan></text>
  <text class="cls-27" transform="translate(115.658 39.556)"><tspan x="0" y="0">TCR</tspan></text>
  <text class="cls-27" transform="translate(158.018 37.621)"><tspan x="0" y="0">MHC</tspan></text>
  <text class="cls-27" transform="translate(189.126 245.384)"><tspan x="0" y="0">수지상세포</tspan></text>
  <text class="cls-27" transform="translate(24.901 14.29)"><tspan x="0" y="0">세포독성T세포</tspan></text>
  <text class="cls-27" transform="translate(267.477 14.29)"><tspan x="0" y="0">암세포</tspan></text>
  <text class="cls-27" transform="translate(163.021 119.929)"><tspan x="0" y="0">(면역억제)</tspan></text>
</svg>