<?xml version="1.0" encoding="UTF-8"?>
<svg id="_레이어_1" data-name="레이어 1" xmlns="http://www.w3.org/2000/svg" viewBox="0 0 195.887 120.904">
  <defs>
    <style>
      .cls-1, .cls-2 {
        stroke: #231f20;
      }

      .cls-1, .cls-2, .cls-3, .cls-4 {
        stroke-width: .5px;
      }

      .cls-1, .cls-2, .cls-3, .cls-4, .cls-5, .cls-6 {
        fill: none;
      }

      .cls-2 {
        stroke-linecap: square;
      }

      .cls-7 {
        fill: #5d86c2;
        stroke-width: 0px;
      }

      .cls-8 {
        font-size: 6px;
      }

      .cls-8, .cls-9, .cls-10, .cls-11 {
        fill: #231f20;
        font-family: AppleSDGothicNeoEB00, AppleSDGothicNeoEB00;
      }

      .cls-9 {
        font-size: 7.5px;
      }

      .cls-3, .cls-4, .cls-5, .cls-6 {
        stroke-linejoin: round;
      }

      .cls-3, .cls-6 {
        stroke: #5d86c2;
      }

      .cls-4, .cls-5 {
        stroke: #a7a9ac;
      }

      .cls-5, .cls-6 {
        stroke-linecap: round;
      }

      .cls-10 {
        font-size: 7px;
      }

      .cls-11 {
        font-size: 7px;
      }
    </style>
  </defs>
  <line class="cls-2" x1="195.637" y1="96.66" x2="28.575" y2="96.66"/>
  <line class="cls-1" x1="28.574" y1="34.316" x2="25.324" y2="34.316"/>
  <line class="cls-1" x1="28.574" y1="18.731" x2="25.324" y2="18.731"/>
  <line class="cls-1" x1="28.574" y1="49.902" x2="25.324" y2="49.902"/>
  <line class="cls-1" x1="28.574" y1="65.489" x2="25.324" y2="65.489"/>
  <line class="cls-1" x1="28.574" y1="81.073" x2="25.324" y2="81.073"/>
  <line class="cls-1" x1="28.574" y1="96.66" x2="25.324" y2="96.66"/>
  <text class="cls-10" transform="translate(26.824 106.534)"><tspan x="0" y="0">0</tspan></text>
  <line class="cls-1" x1="28.574" y1="96.66" x2="28.574" y2="99.91"/>
  <text class="cls-10" transform="translate(53.963 106.534)"><tspan x="0" y="0">2</tspan></text>
  <line class="cls-1" x1="55.714" y1="96.66" x2="55.714" y2="99.91"/>
  <text class="cls-10" transform="translate(67.532 106.534)"><tspan x="0" y="0">3</tspan></text>
  <line class="cls-1" x1="69.282" y1="96.66" x2="69.282" y2="99.91"/>
  <text class="cls-10" transform="translate(94.671 106.534)"><tspan x="0" y="0">5</tspan></text>
  <line class="cls-1" x1="96.422" y1="96.66" x2="96.422" y2="99.91"/>
  <text class="cls-10" transform="translate(121.81 106.534)"><tspan x="0" y="0">7</tspan></text>
  <line class="cls-1" x1="123.559" y1="96.66" x2="123.559" y2="99.91"/>
  <text class="cls-10" transform="translate(148.949 106.534)"><tspan x="0" y="0">9</tspan></text>
  <line class="cls-1" x1="150.699" y1="96.66" x2="150.699" y2="99.91"/>
  <text class="cls-10" transform="translate(160.772 106.534)"><tspan x="0" y="0">10</tspan></text>
  <line class="cls-1" x1="164.268" y1="96.66" x2="164.268" y2="99.91"/>
  <text class="cls-10" transform="translate(187.91 106.537)"><tspan x="0" y="0">12</tspan></text>
  <line class="cls-1" x1="191.407" y1="96.66" x2="191.407" y2="99.91"/>
  <text class="cls-10" transform="translate(40.397 106.534)"><tspan x="0" y="0">1</tspan></text>
  <line class="cls-1" x1="42.143" y1="96.66" x2="42.143" y2="99.91"/>
  <text class="cls-10" transform="translate(81.102 106.534)"><tspan x="0" y="0">4</tspan></text>
  <line class="cls-1" x1="82.852" y1="96.66" x2="82.852" y2="99.91"/>
  <text class="cls-10" transform="translate(108.241 106.534)"><tspan x="0" y="0">6</tspan></text>
  <line class="cls-1" x1="109.99" y1="96.66" x2="109.99" y2="99.91"/>
  <text class="cls-10" transform="translate(135.379 106.534)"><tspan x="0" y="0">8</tspan></text>
  <line class="cls-1" x1="137.129" y1="96.66" x2="137.129" y2="99.91"/>
  <text class="cls-10" transform="translate(174.345 106.537)"><tspan x="0" y="0">11</tspan></text>
  <line class="cls-1" x1="177.837" y1="96.66" x2="177.837" y2="99.91"/>
  <text class="cls-9" transform="translate(101.632 118.992)"><tspan x="0" y="0">기간(달)</tspan></text>
  <text class="cls-11" transform="translate(49.264 37.959)"><tspan x="0" y="0">칼로리제한</tspan></text>
  <text class="cls-11" transform="translate(41.612 80.805)"><tspan x="0" y="0">시간제한식이</tspan></text>
  <line class="cls-1" x1="28.574" y1="3.144" x2="25.324" y2="3.144"/>
  <line class="cls-2" x1="28.574" y1="96.66" x2="28.574" y2="3.138"/>
  <path class="cls-3" d="m27.014,3.09h1.597m-1.597,0h1.597"/>
  <path class="cls-3" d="m40.811,35.825v2.131m0-2.131v-1.862m-.797,3.993h1.597m-1.597-3.993h1.597"/>
  <path class="cls-3" d="m54.38,52.592v2.663m0-2.663v-2.926m-.797,5.589h1.597m-1.597-5.589h1.597"/>
  <path class="cls-3" d="m67.953,69.891v3.462m0-3.462v-3.458m-.797,6.92h1.597m-1.597-6.92h1.597"/>
  <path class="cls-3" d="m81.522,74.682v3.994m0-3.994v-3.724m-.797,7.718h1.597m-1.597-7.718h1.597"/>
  <path class="cls-3" d="m95.092,77.343v4.527m0-4.527v-4.522m-.796,9.049h1.597m-1.597-9.049h1.597"/>
  <path class="cls-3" d="m108.662,76.012v4.793m0-4.793v-5.054m-.796,9.847h1.597m-1.597-9.847h1.597"/>
  <path class="cls-3" d="m122.226,73.616v5.326m0-5.326v-5.32m-.796,10.646h1.597m-1.597-10.646h1.597"/>
  <path class="cls-3" d="m135.802,73.617v5.591m0-5.591v-5.853m-.796,11.444h1.597m-1.597-11.444h1.597"/>
  <path class="cls-3" d="m149.365,76.544v6.124m0-6.124v-6.119m-.795,12.243h1.597m-1.597-12.243h1.597"/>
  <path class="cls-3" d="m162.934,72.02v6.39m0-6.39v-6.119m-.795,12.509h1.597m-1.597-12.509h1.597"/>
  <path class="cls-3" d="m176.919,69.625v6.39m0-6.39v-6.385m-.795,12.775h1.597m-1.597-12.775h1.597"/>
  <path class="cls-3" d="m190.081,66.431v6.922m0-6.922v-6.918m-.795,13.84h1.597m-1.597-13.84h1.597"/>
  <path class="cls-4" d="m27.014,3.09h1.597m-1.597,0h1.597"/>
  <path class="cls-4" d="m29.409,3.09h1.597m-1.597,0h1.597"/>
  <path class="cls-4" d="m43.537,34.493v1.866m0-1.866v-2.127m-.797,3.993h1.597m-1.597-3.993h1.597"/>
  <path class="cls-4" d="m57.106,50.995v2.663m0-2.663v-2.926m-.797,5.589h1.597m-1.597-5.589h1.597"/>
  <path class="cls-4" d="m70.678,64.302v3.462m0-3.462v-3.458m-.796,6.92h1.597m-1.597-6.92h1.597"/>
  <path class="cls-4" d="m84.248,69.891v3.994m0-3.994v-3.724m-.797,7.718h1.597m-1.597-7.718h1.597"/>
  <path class="cls-4" d="m97.818,73.617v4.261m0-4.261v-4.522m-.796,8.783h1.597m-1.597-8.783h1.597"/>
  <path class="cls-4" d="m111.388,72.02v5.059m0-5.059v-4.788m-.796,9.847h1.597m-1.597-9.847h1.597"/>
  <path class="cls-4" d="m124.952,76.012v5.059m0-5.059v-5.32m-.796,10.379h1.597m-1.597-10.379h1.597"/>
  <path class="cls-4" d="m138.527,73.35v5.592m0-5.592v-5.586m-.795,11.178h1.597m-1.597-11.178h1.597"/>
  <path class="cls-4" d="m152.091,74.948v5.857m0-5.857v-5.587m-.796,11.444h1.597m-1.597-11.444h1.597"/>
  <path class="cls-4" d="m165.66,69.625v6.124m0-6.124v-5.853m-.795,11.977h1.597m-1.597-11.977h1.597"/>
  <path class="cls-4" d="m179.645,68.826v6.39m0-6.39v-6.119m-.795,12.509h1.597m-1.597-12.509h1.597"/>
  <path class="cls-4" d="m192.807,57.915v6.656m0-6.656v-6.652m-.795,13.308h1.597m-1.597-13.308h1.597"/>
  <polyline class="cls-6" points="27.812 3.09 41.142 35.825 54.711 52.592 68.283 69.891 81.853 74.682 95.422 77.345 108.992 76.012 122.556 73.617 136.132 73.617 149.695 76.545 163.265 72.02 177.249 69.625 190.416 66.431"/>
  <path class="cls-7" d="m28.679,2.924c0,.662-.536,1.198-1.197,1.198s-1.198-.536-1.198-1.198.536-1.198,1.198-1.198,1.197.537,1.197,1.198"/>
  <path class="cls-7" d="m42.011,35.926c0,.661-.537,1.198-1.198,1.198s-1.198-.537-1.198-1.198.537-1.198,1.198-1.198,1.198.536,1.198,1.198"/>
  <path class="cls-7" d="m55.579,52.427c0,.662-.536,1.198-1.197,1.198s-1.198-.536-1.198-1.198.536-1.197,1.198-1.197,1.197.536,1.197,1.197"/>
  <path class="cls-7" d="m69.152,69.993c0,.662-.536,1.198-1.198,1.198s-1.198-.536-1.198-1.198.537-1.198,1.198-1.198,1.198.536,1.198,1.198"/>
  <path class="cls-7" d="m82.721,74.784c0,.662-.536,1.198-1.197,1.198s-1.198-.536-1.198-1.198.536-1.197,1.198-1.197,1.197.535,1.197,1.197"/>
  <path class="cls-7" d="m96.292,77.445c0,.662-.536,1.198-1.198,1.198s-1.197-.536-1.197-1.198.536-1.198,1.197-1.198,1.198.537,1.198,1.198"/>
  <path class="cls-7" d="m109.862,75.849c0,.661-.536,1.198-1.197,1.198s-1.198-.537-1.198-1.198.536-1.198,1.198-1.198,1.197.536,1.197,1.198"/>
  <path class="cls-7" d="m123.426,73.453c0,.662-.536,1.198-1.197,1.198s-1.198-.536-1.198-1.198.536-1.198,1.198-1.198,1.197.536,1.197,1.198"/>
  <path class="cls-7" d="m137.002,73.453c0,.662-.536,1.198-1.198,1.198s-1.197-.536-1.197-1.198.536-1.198,1.197-1.198,1.198.536,1.198,1.198"/>
  <path class="cls-7" d="m150.565,76.647c0,.661-.536,1.198-1.197,1.198s-1.198-.537-1.198-1.198.536-1.198,1.198-1.198,1.197.536,1.197,1.198"/>
  <path class="cls-7" d="m164.135,72.123c0,.661-.536,1.198-1.198,1.198s-1.197-.537-1.197-1.198.536-1.198,1.197-1.198,1.198.536,1.198,1.198"/>
  <path class="cls-7" d="m178.12,69.461c0,.662-.536,1.197-1.197,1.197s-1.198-.535-1.198-1.197.536-1.198,1.198-1.198,1.197.536,1.197,1.198"/>
  <path class="cls-7" d="m191.282,66.533c0,.662-.536,1.198-1.198,1.198s-1.197-.536-1.197-1.198.536-1.198,1.197-1.198,1.198.536,1.198,1.198"/>
  <path class="cls-5" d="m30.207,3.09l13.33,31.404,13.569,16.501,13.572,13.307,13.44,5.558c.087.021.172.044.258.069l13.442,3.688,13.57-1.597,13.564,3.995,13.575-2.664,13.564,1.597,13.569-5.323,13.984-.798,13.167-10.912"/>
  <path class="cls-4" d="m31.341,4.388l-2.395-2.396m1.197,0v2.396m-1.197,0l2.395-2.396"/>
  <path class="cls-4" d="m44.672,35.793l-2.396-2.395m1.198,0v2.395m-1.198,0l2.396-2.395"/>
  <path class="cls-4" d="m58.241,52.294l-2.395-2.396m1.197,0v2.396m-1.197,0l2.395-2.396"/>
  <path class="cls-4" d="m71.813,65.602l-2.395-2.395m1.197,0v2.395m-1.197,0l2.395-2.395"/>
  <path class="cls-4" d="m85.383,71.191l-2.395-2.396m1.197,0v2.396m-1.197,0l2.395-2.396"/>
  <path class="cls-4" d="m98.953,74.917l-2.395-2.396m1.198,0v2.396m-1.198,0l2.395-2.396"/>
  <path class="cls-4" d="m112.523,73.32l-2.395-2.396m1.197,0v2.396m-1.197,0l2.395-2.396"/>
  <path class="cls-4" d="m126.088,77.312l-2.396-2.396m1.198,0v2.396m-1.198,0l2.396-2.396"/>
  <path class="cls-4" d="m139.663,74.651l-2.395-2.396m1.197,0v2.396m-1.197,0l2.395-2.396"/>
  <path class="cls-4" d="m153.227,76.248l-2.396-2.395m1.198,0v2.395m-1.198,0l2.396-2.395"/>
  <path class="cls-4" d="m166.796,70.924l-2.395-2.395m1.197,0v2.395m-1.197,0l2.395-2.395"/>
  <path class="cls-4" d="m180.781,70.126l-2.395-2.396m1.198,0v2.396m-1.198,0l2.395-2.396"/>
  <path class="cls-4" d="m193.944,59.214l-2.395-2.396m1.197,0v2.396m-1.197,0l2.395-2.396"/>
  <text class="cls-8" transform="translate(14.355 5.28)"><tspan x="0" y="0">0.0</tspan></text>
  <text class="cls-8" transform="translate(12.777 20.989)"><tspan x="0" y="0">-2.0</tspan></text>
  <text class="cls-8" transform="translate(12.381 36.698)"><tspan x="0" y="0">-4.0</tspan></text>
  <text class="cls-8" transform="translate(12.471 52.407)"><tspan x="0" y="0">-6.0</tspan></text>
  <text class="cls-8" transform="translate(12.381 68.116)"><tspan x="0" y="0">-8.0</tspan></text>
  <text class="cls-8" transform="translate(9.831 83.825)"><tspan x="0" y="0">-10.0</tspan></text>
  <text class="cls-8" transform="translate(10.527 99.534)"><tspan x="0" y="0">-12.0</tspan></text>
  <text class="cls-11" transform="translate(6.16 67.854) rotate(-90)"><tspan x="0" y="0">체중감량 (kg)</tspan></text>
</svg>