<?xml version="1.0" encoding="UTF-8"?>
<svg id="_레이어_1" data-name="레이어 1" xmlns="http://www.w3.org/2000/svg" xmlns:xlink="http://www.w3.org/1999/xlink" viewBox="0 0 1248.093 862.733">
  <defs>
    <style>
      .cls-1 {
        font-family: AppleSDGothicNeoL00, AppleSDGothicNeoL00;
      }

      .cls-1, .cls-2, .cls-3 {
        font-size: 23.256px;
      }

      .cls-4, .cls-5, .cls-6, .cls-7, .cls-8, .cls-9, .cls-10, .cls-11 {
        fill: none;
      }

      .cls-4, .cls-12, .cls-9 {
        stroke: #ed1c24;
      }

      .cls-4, .cls-7, .cls-10, .cls-11 {
        stroke-width: 1.938px;
      }

      .cls-5, .cls-6, .cls-7, .cls-11 {
        stroke: #242020;
      }

      .cls-5, .cls-9 {
        stroke-width: .969px;
      }

      .cls-13 {
        font-size: 11.628px;
      }

      .cls-13, .cls-14, .cls-15, .cls-2, .cls-16, .cls-3 {
        font-weight: 300;
      }

      .cls-13, .cls-14, .cls-15, .cls-16, .cls-3 {
        font-family: HelveticaNeue-Light, 'Helvetica Neue';
      }

      .cls-6 {
        stroke-linecap: square;
        stroke-width: 3.101px;
      }

      .cls-6, .cls-12 {
        stroke-miterlimit: 10;
      }

      .cls-17 {
        letter-spacing: -.017em;
      }

      .cls-14, .cls-18 {
        font-size: 25.194px;
      }

      .cls-12, .cls-19 {
        fill: #fff;
      }

      .cls-15 {
        font-size: 25.194px;
      }

      .cls-7 {
        stroke-dasharray: 0 0 19.38 5.814;
      }

      .cls-8, .cls-19 {
        stroke-width: 0px;
      }

      .cls-20 {
        letter-spacing: -.017em;
      }

      .cls-2 {
        font-family: HelveticaNeue-LightItalic, 'Helvetica Neue';
        font-style: italic;
      }

      .cls-21 {
        letter-spacing: -.017em;
      }

      .cls-16 {
        font-size: 16.279px;
      }

      .cls-10 {
        stroke: #1c75bc;
        stroke-dasharray: 0 0 0 0 19.38 7.752 1.938 7.752;
      }

      .cls-11 {
        stroke-dasharray: 0 0 7.752 3.876;
      }

      .cls-22 {
        letter-spacing: -.017em;
      }

      .cls-23 {
        letter-spacing: 0em;
      }

      .cls-24 {
        clip-path: url(#clippath);
      }

      .cls-25 {
        letter-spacing: -.036em;
      }

      .cls-26 {
        letter-spacing: -.017em;
      }

      .cls-27 {
        letter-spacing: -.036em;
      }

      .cls-28 {
        letter-spacing: .017em;
      }

      .cls-18 {
        font-family: AppleSDGothicNeoEB00, AppleSDGothicNeoEB00;
        letter-spacing: -.056em;
      }

      .cls-29 {
        letter-spacing: 0em;
      }

      .cls-30 {
        letter-spacing: -.138em;
      }

      .cls-31 {
        letter-spacing: .039em;
      }

      .cls-32 {
        letter-spacing: -.091em;
      }
    </style>
    <clipPath id="clippath">
      <rect class="cls-8" width="1248.093" height="860.486"/>
    </clipPath>
  </defs>
  <path class="cls-6" d="m417.305,402.677l144.669-13.411m-289.342,7.764l144.673,5.647m-288.636-13.411l143.964,7.764"/>
  <path class="cls-10" d="m1195.775,635.863c-23.345-32.066-54.559-73.579-83.839-108.11,0,0-55.233-56.206-88.18-81.401,0,0-36.822-34.884-94.478-59.109,0,0-52.326-31.977-149.712-30.039,0,0-33.915,3.876-50.388,10.659"/>
  <path class="cls-11" d="m1195.767,621.983c-25.741-35.113-63.393-83.106-102.242-120.878,0,0-68.8-63.474-113.374-89.637,0,0-63.955-33.431-104.653-41.183,0,0-78.49-18.896-145.836,8.721"/>
  <path class="cls-7" d="m730.632,370.607c62.338-18.086,145.677,6.136,145.677,6.136,60.404,17.768,106.913,45.225,106.913,45.225,43.284,25.841,120.8,93.994,120.8,93.994,27.795,22.132,64.42,65.121,91.842,99.455"/>
  <path class="cls-4" d="m1195.767,617.909c-26.221-34.888-62.272-80.47-97.881-117.773,0,0-58.466-58.788-120.804-94.967,0,0-30.357-21.318-84.947-37.47,0,0-17.772-6.136-78.815-10.981,0,0-57.168,2.907-83.009,13.888"/>
  <path class="cls-5" d="m80.462,170.472h7.663m619.913,198.592h527.485m-1147.65,0h505.31"/>
  <text class="cls-3" transform="translate(50.405 179.276)"><tspan x="0" y="0">15</tspan></text>
  <line class="cls-5" x1="80.462" y1="699.879" x2="88.125" y2="699.879"/>
  <text class="cls-3" transform="translate(38.779 708.669)"><tspan x="0" y="0">–25</tspan></text>
  <text class="cls-2" transform="translate(341.776 229.99)"><tspan x="0" y="0">r</tspan></text>
  <text class="cls-16" transform="translate(349.1 229.99) scale(1 1.429)"><tspan x="0" y="0"> </tspan></text>
  <text class="cls-3" transform="translate(353.627 229.99)"><tspan x="0" y="0">=</tspan></text>
  <text class="cls-13" transform="translate(367.58 229.99) scale(1 2)"><tspan x="0" y="0"> </tspan></text>
  <text class="cls-3" transform="translate(370.811 229.99)"><tspan x="0" y="0">0.07, </tspan></text>
  <text class="cls-2" transform="translate(429 229.99)"><tspan x="0" y="0">P</tspan></text>
  <text class="cls-13" transform="translate(443.653 229.99) scale(1 2)"><tspan x="0" y="0"> </tspan></text>
  <text class="cls-3" transform="translate(446.884 229.99)"><tspan x="0" y="0">=</tspan></text>
  <text class="cls-13" transform="translate(460.836 229.99) scale(1 2)"><tspan x="0" y="0"> </tspan></text>
  <text class="cls-3" transform="translate(464.071 229.99)"><tspan x="0" y="0">.40</tspan></text>
  <text class="cls-2" transform="translate(967.747 229.99)"><tspan x="0" y="0">r</tspan></text>
  <text class="cls-16" transform="translate(975.07 229.99) scale(1 1.429)"><tspan x="0" y="0"> </tspan></text>
  <text class="cls-3" transform="translate(979.597 229.99)"><tspan x="0" y="0">=</tspan></text>
  <text class="cls-13" transform="translate(993.55 229.99) scale(1 2)"><tspan x="0" y="0"> </tspan></text>
  <text class="cls-3" transform="translate(996.781 229.99)"><tspan class="cls-31" x="0" y="0">–</tspan><tspan x="12.535" y="0">0.60, </tspan></text>
  <text class="cls-2" transform="translate(1067.529 229.99)"><tspan x="0" y="0">P</tspan></text>
  <text class="cls-16" transform="translate(1082.181 229.99) scale(1 1.429)"><tspan x="0" y="0"> </tspan></text>
  <text class="cls-1" transform="translate(1086.705 229.99)"><tspan x="0" y="0">&lt;</tspan></text>
  <text class="cls-3" transform="translate(1099.47 229.99)"><tspan x="0" y="0">.001</tspan></text>
  <line class="cls-5" x1="80.462" y1="435.174" x2="88.125" y2="435.174"/>
  <text class="cls-3" transform="translate(51.708 443.978)"><tspan x="0" y="0">–5</tspan></text>
  <line class="cls-5" x1="80.462" y1="501.353" x2="88.125" y2="501.353"/>
  <text class="cls-3" transform="translate(38.779 510.142)"><tspan x="0" y="0">–10</tspan></text>
  <line class="cls-5" x1="80.462" y1="567.524" x2="88.125" y2="567.524"/>
  <text class="cls-3" transform="translate(38.779 576.317)"><tspan x="0" y="0">–15</tspan></text>
  <line class="cls-5" x1="80.462" y1="633.704" x2="88.125" y2="633.704"/>
  <text class="cls-3" transform="translate(38.779 642.498)"><tspan x="0" y="0">–20</tspan></text>
  <line class="cls-5" x1="80.462" y1="368.998" x2="88.125" y2="368.998"/>
  <text class="cls-3" transform="translate(63.336 377.803)"><tspan x="0" y="0">0</tspan></text>
  <line class="cls-5" x1="80.462" y1="302.822" x2="88.125" y2="302.822"/>
  <text class="cls-3" transform="translate(63.336 311.629)"><tspan x="0" y="0">5</tspan></text>
  <line class="cls-5" x1="80.462" y1="236.643" x2="88.125" y2="236.643"/>
  <text class="cls-3" transform="translate(50.405 245.45)"><tspan x="0" y="0">10</tspan></text>
  <line class="cls-5" x1="80.462" y1="766.051" x2="88.125" y2="766.051"/>
  <text class="cls-3" transform="translate(38.779 774.84)"><tspan x="0" y="0">–30</tspan></text>
  <text class="cls-15" transform="translate(23.697 689.593) rotate(-90)"><tspan x="0" y="0">Absolute Change in </tspan><tspan class="cls-21" x="219.334" y="0">W</tspan><tspan x="241.757" y="0">eight at 12 mo, kg</tspan></text>
  <text class="cls-18" transform="translate(180.296 155.584)"><tspan x="0" y="0">다이어트 방법에 따른 체중 변화</tspan></text>
  <polyline class="cls-5" points="88.168 169.925 88.168 789.291 593.04 789.291"/>
  <text class="cls-3" transform="translate(248.381 821.271)"><tspan x="0" y="0">Zone</tspan></text>
  <path class="cls-19" d="m273.779,678.918c4.043,0,7.314-3.279,7.314-7.314s-3.271-7.306-7.314-7.306-7.306,3.271-7.306,7.306,3.271,7.314,7.306,7.314"/>
  <path class="cls-5" d="m273.779,678.918c4.043,0,7.314-3.279,7.314-7.314s-3.271-7.306-7.314-7.306-7.306,3.271-7.306,7.306,3.271,7.314,7.306,7.314Z"/>
  <path class="cls-19" d="m273.779,575.234c4.043,0,7.314-3.279,7.314-7.314s-3.271-7.306-7.314-7.306-7.306,3.271-7.306,7.306,3.271,7.314,7.306,7.314"/>
  <path class="cls-5" d="m273.779,575.234c4.043,0,7.314-3.279,7.314-7.314s-3.271-7.306-7.314-7.306-7.306,3.271-7.306,7.306,3.271,7.314,7.306,7.314Z"/>
  <path class="cls-19" d="m273.779,572.567c4.043,0,7.314-3.275,7.314-7.31s-3.271-7.306-7.314-7.306-7.306,3.268-7.306,7.306,3.271,7.31,7.306,7.31"/>
  <path class="cls-5" d="m273.779,572.567c4.043,0,7.314-3.275,7.314-7.31s-3.271-7.306-7.314-7.306-7.306,3.268-7.306,7.306,3.271,7.31,7.306,7.31Z"/>
  <path class="cls-19" d="m273.779,560.214c4.043,0,7.314-3.279,7.314-7.314s-3.271-7.306-7.314-7.306-7.306,3.271-7.306,7.306,3.271,7.314,7.306,7.314"/>
  <path class="cls-5" d="m273.779,560.214c4.043,0,7.314-3.279,7.314-7.314s-3.271-7.306-7.314-7.306-7.306,3.271-7.306,7.306,3.271,7.314,7.306,7.314Z"/>
  <path class="cls-19" d="m273.779,551.978c4.043,0,7.314-3.279,7.314-7.314s-3.271-7.306-7.314-7.306-7.306,3.271-7.306,7.306,3.271,7.314,7.306,7.314"/>
  <path class="cls-5" d="m273.779,551.978c4.043,0,7.314-3.279,7.314-7.314s-3.271-7.306-7.314-7.306-7.306,3.271-7.306,7.306,3.271,7.314,7.306,7.314Z"/>
  <path class="cls-19" d="m273.779,522.907c4.043,0,7.314-3.279,7.314-7.314s-3.271-7.306-7.314-7.306-7.306,3.271-7.306,7.306,3.271,7.314,7.306,7.314"/>
  <path class="cls-5" d="m273.779,522.907c4.043,0,7.314-3.279,7.314-7.314s-3.271-7.306-7.314-7.306-7.306,3.271-7.306,7.306,3.271,7.314,7.306,7.314Z"/>
  <path class="cls-19" d="m273.779,491.415c4.043,0,7.314-3.275,7.314-7.314s-3.271-7.302-7.314-7.302-7.306,3.267-7.306,7.302,3.271,7.314,7.306,7.314"/>
  <path class="cls-5" d="m273.779,491.415c4.043,0,7.314-3.275,7.314-7.314s-3.271-7.302-7.314-7.302-7.306,3.267-7.306,7.302,3.271,7.314,7.306,7.314Z"/>
  <path class="cls-19" d="m273.779,478.577c4.043,0,7.314-3.279,7.314-7.314s-3.271-7.306-7.314-7.306-7.306,3.271-7.306,7.306,3.271,7.314,7.306,7.314"/>
  <path class="cls-5" d="m273.779,478.577c4.043,0,7.314-3.279,7.314-7.314s-3.271-7.306-7.314-7.306-7.306,3.271-7.306,7.306,3.271,7.314,7.306,7.314Z"/>
  <path class="cls-19" d="m273.779,470.581c4.043,0,7.314-3.275,7.314-7.31s-3.271-7.306-7.314-7.306-7.306,3.267-7.306,7.306,3.271,7.31,7.306,7.31"/>
  <path class="cls-5" d="m273.779,470.581c4.043,0,7.314-3.275,7.314-7.31s-3.271-7.306-7.314-7.306-7.306,3.267-7.306,7.306,3.271,7.31,7.306,7.31Z"/>
  <path class="cls-19" d="m273.779,450.112c4.043,0,7.314-3.279,7.314-7.314s-3.271-7.306-7.314-7.306-7.306,3.271-7.306,7.306,3.271,7.314,7.306,7.314"/>
  <path class="cls-5" d="m273.779,450.112c4.043,0,7.314-3.279,7.314-7.314s-3.271-7.306-7.314-7.306-7.306,3.271-7.306,7.306,3.271,7.314,7.306,7.314Z"/>
  <path class="cls-19" d="m273.779,435.697c4.043,0,7.314-3.275,7.314-7.31s-3.271-7.306-7.314-7.306-7.306,3.268-7.306,7.306,3.271,7.31,7.306,7.31"/>
  <path class="cls-5" d="m273.779,435.697c4.043,0,7.314-3.275,7.314-7.31s-3.271-7.306-7.314-7.306-7.306,3.268-7.306,7.306,3.271,7.31,7.306,7.31Z"/>
  <path class="cls-19" d="m273.779,431.336c4.043,0,7.314-3.275,7.314-7.314s-3.271-7.303-7.314-7.303-7.306,3.268-7.306,7.303,3.271,7.314,7.306,7.314"/>
  <path class="cls-5" d="m273.779,431.336c4.043,0,7.314-3.275,7.314-7.314s-3.271-7.303-7.314-7.303-7.306,3.268-7.306,7.303,3.271,7.314,7.306,7.314Z"/>
  <path class="cls-19" d="m273.779,425.766c4.043,0,7.314-3.279,7.314-7.314s-3.271-7.306-7.314-7.306-7.306,3.271-7.306,7.306,3.271,7.314,7.306,7.314"/>
  <path class="cls-5" d="m273.779,425.766c4.043,0,7.314-3.279,7.314-7.314s-3.271-7.306-7.314-7.306-7.306,3.271-7.306,7.306,3.271,7.314,7.306,7.314Z"/>
  <path class="cls-19" d="m273.779,416.317c4.043,0,7.314-3.275,7.314-7.31s-3.271-7.306-7.314-7.306-7.306,3.268-7.306,7.306,3.271,7.31,7.306,7.31"/>
  <path class="cls-5" d="m273.779,416.317c4.043,0,7.314-3.275,7.314-7.31s-3.271-7.306-7.314-7.306-7.306,3.268-7.306,7.306,3.271,7.31,7.306,7.31Z"/>
  <path class="cls-19" d="m273.779,403.964c4.043,0,7.314-3.279,7.314-7.314s-3.271-7.306-7.314-7.306-7.306,3.271-7.306,7.306,3.271,7.314,7.306,7.314"/>
  <path class="cls-5" d="m273.779,403.964c4.043,0,7.314-3.279,7.314-7.314s-3.271-7.306-7.314-7.306-7.306,3.271-7.306,7.306,3.271,7.314,7.306,7.314Z"/>
  <path class="cls-19" d="m273.779,391.971c4.043,0,7.314-3.279,7.314-7.314s-3.271-7.306-7.314-7.306-7.306,3.271-7.306,7.306,3.271,7.314,7.306,7.314"/>
  <path class="cls-5" d="m273.779,391.971c4.043,0,7.314-3.279,7.314-7.314s-3.271-7.306-7.314-7.306-7.306,3.271-7.306,7.306,3.271,7.314,7.306,7.314Z"/>
  <path class="cls-19" d="m273.779,376.343c4.043,0,7.314-3.275,7.314-7.31s-3.271-7.306-7.314-7.306-7.306,3.271-7.306,7.306,3.271,7.31,7.306,7.31"/>
  <path class="cls-5" d="m273.779,376.343c4.043,0,7.314-3.275,7.314-7.31s-3.271-7.306-7.314-7.306-7.306,3.271-7.306,7.306,3.271,7.31,7.306,7.31Z"/>
  <path class="cls-19" d="m273.779,364.475c4.043,0,7.314-3.279,7.314-7.314s-3.271-7.306-7.314-7.306-7.306,3.271-7.306,7.306,3.271,7.314,7.306,7.314"/>
  <path class="cls-5" d="m273.779,364.475c4.043,0,7.314-3.279,7.314-7.314s-3.271-7.306-7.314-7.306-7.306,3.271-7.306,7.306,3.271,7.314,7.306,7.314Z"/>
  <path class="cls-19" d="m273.779,360.839c4.043,0,7.314-3.275,7.314-7.31s-3.271-7.306-7.314-7.306-7.306,3.271-7.306,7.306,3.271,7.31,7.306,7.31"/>
  <path class="cls-5" d="m273.779,360.839c4.043,0,7.314-3.275,7.314-7.31s-3.271-7.306-7.314-7.306-7.306,3.271-7.306,7.306,3.271,7.31,7.306,7.31Z"/>
  <path class="cls-19" d="m273.779,352.362c4.043,0,7.314-3.279,7.314-7.314s-3.271-7.306-7.314-7.306-7.306,3.271-7.306,7.306,3.271,7.314,7.306,7.314"/>
  <path class="cls-5" d="m273.779,352.362c4.043,0,7.314-3.279,7.314-7.314s-3.271-7.306-7.314-7.306-7.306,3.271-7.306,7.306,3.271,7.314,7.306,7.314Z"/>
  <path class="cls-19" d="m273.779,321.11c4.043,0,7.314-3.275,7.314-7.31s-3.271-7.306-7.314-7.306-7.306,3.271-7.306,7.306,3.271,7.31,7.306,7.31"/>
  <path class="cls-5" d="m273.779,321.11c4.043,0,7.314-3.275,7.314-7.31s-3.271-7.306-7.314-7.306-7.306,3.271-7.306,7.306,3.271,7.31,7.306,7.31Z"/>
  <path class="cls-19" d="m273.779,315.175c4.043,0,7.314-3.279,7.314-7.314s-3.271-7.303-7.314-7.303-7.306,3.268-7.306,7.303,3.271,7.314,7.306,7.314"/>
  <path class="cls-5" d="m273.779,315.175c4.043,0,7.314-3.279,7.314-7.314s-3.271-7.303-7.314-7.303-7.306,3.268-7.306,7.303,3.271,7.314,7.306,7.314Z"/>
  <path class="cls-19" d="m273.779,308.997c4.043,0,7.314-3.275,7.314-7.31s-3.271-7.306-7.314-7.306-7.306,3.271-7.306,7.306,3.271,7.31,7.306,7.31"/>
  <path class="cls-5" d="m273.779,308.997c4.043,0,7.314-3.275,7.314-7.31s-3.271-7.306-7.314-7.306-7.306,3.271-7.306,7.306,3.271,7.31,7.306,7.31Z"/>
  <text class="cls-3" transform="translate(529.423 821.271)"><tspan x="0" y="0">O</tspan><tspan class="cls-28" x="17.232" y="0">r</tspan><tspan x="24.953" y="0">nish</tspan></text>
  <polyline class="cls-19" points="569.935 753.803 561.92 740.268 553.9 753.803 569.935 753.803"/>
  <polygon class="cls-5" points="569.935 753.803 561.92 740.268 553.9 753.803 569.935 753.803"/>
  <polyline class="cls-19" points="569.935 686.615 561.92 673.08 553.9 686.615 569.935 686.615"/>
  <polygon class="cls-5" points="569.935 686.615 561.92 673.08 553.9 686.615 569.935 686.615"/>
  <polyline class="cls-19" points="569.935 507.671 561.92 494.14 553.9 507.671 569.935 507.671"/>
  <polygon class="cls-5" points="569.935 507.671 561.92 494.14 553.9 507.671 569.935 507.671"/>
  <polyline class="cls-19" points="569.935 492.167 561.92 478.635 553.9 492.167 569.935 492.167"/>
  <polygon class="cls-5" points="569.935 492.167 561.92 478.635 553.9 492.167 569.935 492.167"/>
  <polyline class="cls-19" points="569.935 383.96 561.92 370.428 553.9 383.96 569.935 383.96"/>
  <polygon class="cls-5" points="569.935 383.96 561.92 370.428 553.9 383.96 569.935 383.96"/>
  <polyline class="cls-19" points="569.935 454.116 561.92 440.581 553.9 454.116 569.935 454.116"/>
  <polygon class="cls-5" points="569.935 454.116 561.92 440.581 553.9 454.116 569.935 454.116"/>
  <polyline class="cls-19" points="569.935 451.995 561.92 438.464 553.9 451.995 569.935 451.995"/>
  <polygon class="cls-5" points="569.935 451.995 561.92 438.464 553.9 451.995 569.935 451.995"/>
  <polyline class="cls-19" points="569.935 450.6 561.92 437.069 553.9 450.6 569.935 450.6"/>
  <polygon class="cls-5" points="569.935 450.6 561.92 437.069 553.9 450.6 569.935 450.6"/>
  <polyline class="cls-19" points="569.935 447.755 561.92 434.224 553.9 447.755 569.935 447.755"/>
  <polygon class="cls-5" points="569.935 447.755 561.92 434.224 553.9 447.755 569.935 447.755"/>
  <polyline class="cls-19" points="569.935 442.123 561.92 428.592 553.9 442.123 569.935 442.123"/>
  <polygon class="cls-5" points="569.935 442.123 561.92 428.592 553.9 442.123 569.935 442.123"/>
  <polyline class="cls-19" points="569.935 440.003 561.92 426.472 553.9 440.003 569.935 440.003"/>
  <polygon class="cls-5" points="569.935 440.003 561.92 426.472 553.9 440.003 569.935 440.003"/>
  <polyline class="cls-19" points="569.935 436.491 561.92 422.96 553.9 436.491 569.935 436.491"/>
  <polygon class="cls-5" points="569.935 436.491 561.92 422.96 553.9 436.491 569.935 436.491"/>
  <polyline class="cls-19" points="569.935 424.499 561.92 410.968 553.9 424.499 569.935 424.499"/>
  <polygon class="cls-5" points="569.935 424.499 561.92 410.968 553.9 424.499 569.935 424.499"/>
  <polyline class="cls-19" points="569.935 418.867 561.92 405.336 553.9 418.867 569.935 418.867"/>
  <polygon class="cls-5" points="569.935 418.867 561.92 405.336 553.9 418.867 569.935 418.867"/>
  <text class="cls-3" transform="translate(99.166 821.271)"><tspan x="0" y="0">Atkins</tspan></text>
  <rect class="cls-12" x="122.355" y="583.339" width="14.725" height="14.721"/>
  <rect class="cls-9" x="122.355" y="583.339" width="14.725" height="14.721"/>
  <rect class="cls-12" x="122.355" y="536.342" width="14.725" height="14.721"/>
  <rect class="cls-9" x="122.355" y="536.342" width="14.725" height="14.721"/>
  <rect class="cls-12" x="122.355" y="498.551" width="14.725" height="14.721"/>
  <rect class="cls-9" x="122.355" y="498.55" width="14.725" height="14.721"/>
  <rect class="cls-12" x="122.355" y="489.829" width="14.725" height="14.721"/>
  <rect class="cls-9" x="122.355" y="489.829" width="14.725" height="14.721"/>
  <rect class="cls-12" x="122.355" y="472.143" width="14.725" height="14.725"/>
  <rect class="cls-9" x="122.355" y="472.143" width="14.725" height="14.725"/>
  <rect class="cls-12" x="122.355" y="464.027" width="14.725" height="14.725"/>
  <rect class="cls-9" x="122.355" y="464.027" width="14.725" height="14.725"/>
  <rect class="cls-12" x="122.355" y="457.244" width="14.725" height="14.725"/>
  <rect class="cls-9" x="122.355" y="457.244" width="14.725" height="14.725"/>
  <rect class="cls-12" x="122.355" y="451.794" width="14.725" height="14.725"/>
  <rect class="cls-9" x="122.355" y="451.794" width="14.725" height="14.725"/>
  <rect class="cls-12" x="122.355" y="422.968" width="14.725" height="14.721"/>
  <rect class="cls-9" x="122.355" y="422.968" width="14.725" height="14.721"/>
  <rect class="cls-12" x="122.355" y="413.278" width="14.725" height="14.721"/>
  <rect class="cls-9" x="122.355" y="413.278" width="14.725" height="14.721"/>
  <rect class="cls-12" x="122.355" y="374.998" width="14.725" height="14.725"/>
  <rect class="cls-9" x="122.355" y="374.998" width="14.725" height="14.725"/>
  <rect class="cls-12" x="122.355" y="362.401" width="14.725" height="14.725"/>
  <rect class="cls-9" x="122.355" y="362.401" width="14.725" height="14.725"/>
  <rect class="cls-12" x="122.355" y="357.556" width="14.725" height="14.725"/>
  <rect class="cls-9" x="122.355" y="357.556" width="14.725" height="14.725"/>
  <rect class="cls-12" x="122.355" y="348.595" width="14.725" height="14.725"/>
  <rect class="cls-9" x="122.355" y="348.595" width="14.725" height="14.725"/>
  <rect class="cls-12" x="122.355" y="337.207" width="14.725" height="14.725"/>
  <rect class="cls-9" x="122.355" y="337.207" width="14.725" height="14.725"/>
  <rect class="cls-12" x="122.355" y="333.815" width="14.725" height="14.725"/>
  <rect class="cls-9" x="122.355" y="333.815" width="14.725" height="14.725"/>
  <rect class="cls-12" x="122.355" y="330.908" width="14.725" height="14.725"/>
  <rect class="cls-9" x="122.355" y="330.908" width="14.725" height="14.725"/>
  <rect class="cls-12" x="122.355" y="261.14" width="14.725" height="14.725"/>
  <rect class="cls-9" x="122.355" y="261.14" width="14.725" height="14.725"/>
  <text class="cls-3" transform="translate(382.984 821.271)"><tspan class="cls-26" x="0" y="0">W</tspan><tspan class="cls-29" x="20.698" y="0">eight</tspan></text>
  <text class="cls-3" transform="translate(370.274 849.176)"><tspan class="cls-27" x="0" y="0">W</tspan><tspan x="20.256" y="0">atchers</tspan></text>
  <polyline class="cls-19" points="417.848 597.657 426.766 587.467 417.848 577.276 408.937 587.467 417.848 597.657"/>
  <polygon class="cls-5" points="417.848 597.657 426.766 587.467 417.848 577.276 408.937 587.467 417.848 597.657"/>
  <polyline class="cls-19" points="417.848 549.447 426.766 539.257 417.848 529.07 408.937 539.257 417.848 549.447"/>
  <polygon class="cls-5" points="417.848 549.447 426.766 539.257 417.848 529.07 408.937 539.257 417.848 549.447"/>
  <polyline class="cls-19" points="417.848 538.303 426.766 528.113 417.848 517.927 408.937 528.113 417.848 538.303"/>
  <polygon class="cls-5" points="417.848 538.303 426.766 528.113 417.848 517.927 408.937 528.113 417.848 538.303"/>
  <polyline class="cls-19" points="417.848 523.768 426.766 513.578 417.848 503.392 408.937 513.578 417.848 523.768"/>
  <polygon class="cls-5" points="417.848 523.768 426.766 513.578 417.848 503.392 408.937 513.578 417.848 523.768"/>
  <polyline class="cls-19" points="417.848 516.14 426.766 505.95 417.848 495.76 408.937 505.95 417.848 516.14"/>
  <polygon class="cls-5" points="417.848 516.14 426.766 505.95 417.848 495.76 408.937 505.95 417.848 516.14"/>
  <polyline class="cls-19" points="417.848 507.419 426.766 497.229 417.848 487.039 408.937 497.229 417.848 507.419"/>
  <polygon class="cls-5" points="417.848 507.419 426.766 497.229 417.848 487.039 408.937 497.229 417.848 507.419"/>
  <polyline class="cls-19" points="417.848 492.035 426.766 481.845 417.848 471.655 408.937 481.845 417.848 492.035"/>
  <polygon class="cls-5" points="417.848 492.035 426.766 481.845 417.848 471.655 408.937 481.845 417.848 492.035"/>
  <polyline class="cls-19" points="417.848 486.101 426.766 475.911 417.848 465.721 408.937 475.911 417.848 486.101"/>
  <polygon class="cls-5" points="417.848 486.101 426.766 475.911 417.848 465.721 408.937 475.911 417.848 486.101"/>
  <polyline class="cls-19" points="417.848 458.24 426.766 448.05 417.848 437.86 408.937 448.05 417.848 458.24"/>
  <polygon class="cls-5" points="417.848 458.24 426.766 448.05 417.848 437.86 408.937 448.05 417.848 458.24"/>
  <polyline class="cls-19" points="417.848 450.368 426.766 440.177 417.848 429.987 408.937 440.177 417.848 450.368"/>
  <polygon class="cls-5" points="417.848 450.368 426.766 440.177 417.848 429.987 408.937 440.177 417.848 450.368"/>
  <polyline class="cls-19" points="417.848 448.914 426.766 438.724 417.848 428.534 408.937 438.724 417.848 448.914"/>
  <polygon class="cls-5" points="417.848 448.914 426.766 438.724 417.848 428.534 408.937 438.724 417.848 448.914"/>
  <polyline class="cls-19" points="417.848 426.867 426.766 416.677 417.848 406.491 408.937 416.677 417.848 426.867"/>
  <polygon class="cls-5" points="417.848 426.867 426.766 416.677 417.848 406.491 408.937 416.677 417.848 426.867"/>
  <polyline class="cls-19" points="417.848 424.871 426.766 414.681 417.848 404.491 408.937 414.681 417.848 424.871"/>
  <polygon class="cls-5" points="417.848 424.871 426.766 414.681 417.848 404.491 408.937 414.681 417.848 424.871"/>
  <polyline class="cls-19" points="417.848 421.418 426.766 411.227 417.848 401.037 408.937 411.227 417.848 421.418"/>
  <polygon class="cls-5" points="417.848 421.418 426.766 411.227 417.848 401.037 408.937 411.227 417.848 421.418"/>
  <polyline class="cls-19" points="417.848 418.328 426.766 408.138 417.848 397.948 408.937 408.138 417.848 418.328"/>
  <polygon class="cls-5" points="417.848 418.328 426.766 408.138 417.848 397.948 408.937 408.138 417.848 418.328"/>
  <polyline class="cls-19" points="417.848 412.879 426.766 402.688 417.848 392.498 408.937 402.688 417.848 412.879"/>
  <polygon class="cls-5" points="417.848 412.879 426.766 402.688 417.848 392.498 408.937 402.688 417.848 412.879"/>
  <polyline class="cls-19" points="417.848 411.363 426.766 401.173 417.848 390.987 408.937 401.173 417.848 411.363"/>
  <polygon class="cls-5" points="417.848 411.363 426.766 401.173 417.848 390.987 408.937 401.173 417.848 411.363"/>
  <polyline class="cls-19" points="417.848 407.185 426.766 396.995 417.848 386.805 408.937 396.995 417.848 407.185"/>
  <polygon class="cls-5" points="417.848 407.185 426.766 396.995 417.848 386.805 408.937 396.995 417.848 407.185"/>
  <polyline class="cls-19" points="417.848 402.886 426.766 392.696 417.848 382.506 408.937 392.696 417.848 402.886"/>
  <polygon class="cls-5" points="417.848 402.886 426.766 392.696 417.848 382.506 408.937 392.696 417.848 402.886"/>
  <polyline class="cls-19" points="417.848 379.793 426.766 369.603 417.848 359.413 408.937 369.603 417.848 379.793"/>
  <polygon class="cls-5" points="417.848 379.793 426.766 369.603 417.848 359.413 408.937 369.603 417.848 379.793"/>
  <polyline class="cls-19" points="417.848 359.199 426.766 349.009 417.848 338.819 408.937 349.009 417.848 359.199"/>
  <polygon class="cls-5" points="417.848 359.199 426.766 349.009 417.848 338.819 408.937 349.009 417.848 359.199"/>
  <polyline class="cls-19" points="417.848 353.463 426.766 343.277 417.848 333.087 408.937 343.277 417.848 353.463"/>
  <polygon class="cls-5" points="417.848 353.463 426.766 343.277 417.848 333.087 408.937 343.277 417.848 353.463"/>
  <polyline class="cls-19" points="417.848 351.366 426.766 341.176 417.848 330.986 408.937 341.176 417.848 351.366"/>
  <polygon class="cls-5" points="417.848 351.366 426.766 341.176 417.848 330.986 408.937 341.176 417.848 351.366"/>
  <polyline class="cls-19" points="417.848 318.358 426.766 308.168 417.848 297.981 408.937 308.168 417.848 318.358"/>
  <polygon class="cls-5" points="417.848 318.358 426.766 308.168 417.848 297.981 408.937 308.168 417.848 318.358"/>
  <polyline class="cls-19" points="417.848 312.668 426.766 302.478 417.848 292.288 408.937 302.478 417.848 312.668"/>
  <polygon class="cls-5" points="417.848 312.668 426.766 302.478 417.848 292.288 408.937 302.478 417.848 312.668"/>
  <polyline class="cls-19" points="569.935 372.975 561.92 359.444 553.9 372.975 569.935 372.975"/>
  <polygon class="cls-5" points="569.935 372.975 561.92 359.444 553.9 372.975 569.935 372.975"/>
  <polyline class="cls-19" points="569.935 369.42 561.92 355.889 553.9 369.42 569.935 369.42"/>
  <polygon class="cls-5" points="569.935 369.42 561.92 355.889 553.9 369.42 569.935 369.42"/>
  <polyline class="cls-19" points="569.935 357.471 561.92 343.936 553.9 357.471 569.935 357.471"/>
  <polygon class="cls-5" points="569.935 357.471 561.92 343.936 553.9 357.471 569.935 357.471"/>
  <polyline class="cls-19" points="569.935 312.896 561.92 299.365 553.9 312.896 569.935 312.896"/>
  <polygon class="cls-5" points="569.935 312.896 561.92 299.365 553.9 312.896 569.935 312.896"/>
  <polyline class="cls-19" points="569.935 237.523 561.92 223.992 553.9 237.523 569.935 237.523"/>
  <polygon class="cls-5" points="569.935 237.523 561.92 223.992 553.9 237.523 569.935 237.523"/>
  <polyline class="cls-19" points="569.935 677.894 561.92 664.359 553.9 677.894 569.935 677.894"/>
  <path class="cls-5" d="m701.922,766.051h7.663m-7.663-529.408h7.663m-7.663,66.179h7.663m-7.663,66.175h7.663m-7.663,264.706h7.663m-7.663-66.179h7.663m-7.663-66.172h7.663m-7.663-66.179h7.663m-7.663,264.706h7.663m-7.663-529.408h7.663m-139.649,507.423l-8.016-13.535-8.02,13.535h16.035Z"/>
  <text class="cls-18" transform="translate(770.733 155.584)"><tspan x="0" y="0">다이어트 순응도에 따른 체중변화</tspan></text>
  <polyline class="cls-5" points="709.628 169.983 709.628 789.291 1235.605 789.291"/>
  <path class="cls-19" d="m1039.598,677.848c4.043,0,7.314-3.275,7.314-7.31s-3.271-7.306-7.314-7.306-7.306,3.271-7.306,7.306,3.271,7.31,7.306,7.31"/>
  <path class="cls-5" d="m1039.598,677.848c4.043,0,7.314-3.275,7.314-7.31s-3.271-7.306-7.314-7.306-7.306,3.271-7.306,7.306,3.271,7.31,7.306,7.31Z"/>
  <path class="cls-19" d="m1057.687,573.838c4.043,0,7.314-3.275,7.314-7.31s-3.271-7.306-7.314-7.306-7.306,3.271-7.306,7.306,3.271,7.31,7.306,7.31"/>
  <path class="cls-5" d="m1057.687,573.838c4.043,0,7.314-3.275,7.314-7.31s-3.271-7.306-7.314-7.306-7.306,3.271-7.306,7.306,3.271,7.31,7.306,7.31Z"/>
  <path class="cls-19" d="m1034.431,571.575c4.043,0,7.314-3.275,7.314-7.31s-3.271-7.306-7.314-7.306-7.306,3.271-7.306,7.306,3.271,7.31,7.306,7.31"/>
  <path class="cls-5" d="m1034.431,571.575c4.043,0,7.314-3.275,7.314-7.31s-3.271-7.306-7.314-7.306-7.306,3.271-7.306,7.306,3.271,7.31,7.306,7.31Z"/>
  <path class="cls-19" d="m963.046,559.947c4.043,0,7.314-3.275,7.314-7.31s-3.271-7.306-7.314-7.306-7.306,3.271-7.306,7.306,3.271,7.31,7.306,7.31"/>
  <path class="cls-5" d="m963.046,559.947c4.043,0,7.314-3.275,7.314-7.31s-3.271-7.306-7.314-7.306-7.306,3.271-7.306,7.306,3.271,7.31,7.306,7.31Z"/>
  <path class="cls-19" d="m893.599,551.873c4.043,0,7.314-3.275,7.314-7.31s-3.271-7.306-7.314-7.306-7.306,3.271-7.306,7.306,3.271,7.31,7.306,7.31"/>
  <path class="cls-5" d="m893.599,551.873c4.043,0,7.314-3.275,7.314-7.31s-3.271-7.306-7.314-7.306-7.306,3.271-7.306,7.306,3.271,7.31,7.306,7.31Z"/>
  <path class="cls-19" d="m1057.687,522.156c4.043,0,7.314-3.275,7.314-7.31s-3.271-7.306-7.314-7.306-7.306,3.271-7.306,7.306,3.271,7.31,7.306,7.31"/>
  <path class="cls-5" d="m1057.687,522.156c4.043,0,7.314-3.275,7.314-7.31s-3.271-7.306-7.314-7.306-7.306,3.271-7.306,7.306,3.271,7.31,7.306,7.31Z"/>
  <path class="cls-19" d="m1103.878,479.845c4.043,0,7.314-3.275,7.314-7.31s-3.271-7.306-7.314-7.306-7.306,3.271-7.306,7.306,3.271,7.31,7.306,7.31"/>
  <path class="cls-5" d="m1103.878,479.845c4.043,0,7.314-3.275,7.314-7.31s-3.271-7.306-7.314-7.306-7.306,3.271-7.306,7.306,3.271,7.31,7.306,7.31Z"/>
  <path class="cls-19" d="m1071.579,491.151c4.043,0,7.314-3.279,7.314-7.314s-3.271-7.306-7.314-7.306-7.306,3.271-7.306,7.306,3.271,7.314,7.306,7.314"/>
  <path class="cls-5" d="m1071.579,491.151c4.043,0,7.314-3.279,7.314-7.314s-3.271-7.306-7.314-7.306-7.306,3.271-7.306,7.306,3.271,7.314,7.306,7.314Z"/>
  <path class="cls-19" d="m1035.078,471.445c4.043,0,7.314-3.275,7.314-7.31s-3.271-7.306-7.314-7.306-7.306,3.271-7.306,7.306,3.271,7.31,7.306,7.31"/>
  <path class="cls-5" d="m1035.078,471.445c4.043,0,7.314-3.275,7.314-7.31s-3.271-7.306-7.314-7.306-7.306,3.271-7.306,7.306,3.271,7.31,7.306,7.31Z"/>
  <path class="cls-19" d="m991.795,436.239c4.043,0,7.314-3.275,7.314-7.31s-3.271-7.306-7.314-7.306-7.306,3.271-7.306,7.306,3.271,7.31,7.306,7.31"/>
  <path class="cls-5" d="m991.795,436.239c4.043,0,7.314-3.275,7.314-7.31s-3.271-7.306-7.314-7.306-7.306,3.271-7.306,7.306,3.271,7.31,7.306,7.31Z"/>
  <path class="cls-19" d="m1014.408,432.042c4.043,0,7.314-3.279,7.314-7.314s-3.271-7.306-7.314-7.306-7.306,3.271-7.306,7.306,3.271,7.314,7.306,7.314"/>
  <path class="cls-5" d="m1014.408,432.042c4.043,0,7.314-3.279,7.314-7.314s-3.271-7.306-7.314-7.306-7.306,3.271-7.306,7.306,3.271,7.314,7.306,7.314Z"/>
  <path class="cls-19" d="m1024.741,416.537c4.043,0,7.314-3.279,7.314-7.314s-3.271-7.306-7.314-7.306-7.306,3.271-7.306,7.306,3.271,7.314,7.306,7.314"/>
  <path class="cls-5" d="m1024.741,416.537c4.043,0,7.314-3.279,7.314-7.314s-3.271-7.306-7.314-7.306-7.306,3.271-7.306,7.306,3.271,7.314,7.306,7.314Z"/>
  <path class="cls-19" d="m1039.602,396.51c4.043,0,7.314-3.275,7.314-7.31s-3.271-7.306-7.314-7.306-7.306,3.268-7.306,7.306,3.271,7.31,7.306,7.31"/>
  <path class="cls-5" d="m1039.602,396.51c4.043,0,7.314-3.275,7.314-7.31s-3.271-7.306-7.314-7.306-7.306,3.268-7.306,7.306,3.271,7.31,7.306,7.31Z"/>
  <path class="cls-19" d="m1048.323,322.137c4.043,0,7.314-3.275,7.314-7.31s-3.271-7.306-7.314-7.306-7.306,3.271-7.306,7.306,3.271,7.31,7.306,7.31"/>
  <path class="cls-5" d="m1048.323,322.137c4.043,0,7.314-3.275,7.314-7.31s-3.271-7.306-7.314-7.306-7.306,3.271-7.306,7.306,3.271,7.31,7.306,7.31Z"/>
  <path class="cls-19" d="m968.136,309.784c4.043,0,7.314-3.279,7.314-7.314s-3.271-7.303-7.314-7.303-7.302,3.268-7.302,7.303,3.267,7.314,7.302,7.314"/>
  <path class="cls-5" d="m968.136,309.784c4.043,0,7.314-3.279,7.314-7.314s-3.271-7.303-7.314-7.303-7.302,3.268-7.302,7.303,3.267,7.314,7.302,7.314Z"/>
  <path class="cls-19" d="m931.073,316.082c4.043,0,7.314-3.279,7.314-7.314s-3.271-7.303-7.314-7.303-7.306,3.268-7.306,7.303,3.271,7.314,7.306,7.314"/>
  <path class="cls-5" d="m931.073,316.082c4.043,0,7.314-3.279,7.314-7.314s-3.271-7.303-7.314-7.303-7.306,3.268-7.306,7.303,3.271,7.314,7.306,7.314Z"/>
  <path class="cls-19" d="m809.703,353.63c4.043,0,7.314-3.275,7.314-7.31s-3.271-7.306-7.314-7.306-7.302,3.271-7.302,7.306,3.267,7.31,7.302,7.31"/>
  <path class="cls-5" d="m809.703,353.63c4.043,0,7.314-3.275,7.314-7.31s-3.271-7.306-7.314-7.306-7.302,3.271-7.302,7.306,3.267,7.31,7.302,7.31Z"/>
  <path class="cls-19" d="m813.823,377.13c4.043,0,7.314-3.279,7.314-7.314s-3.271-7.303-7.314-7.303-7.306,3.268-7.306,7.303,3.271,7.314,7.306,7.314"/>
  <path class="cls-5" d="m813.823,377.13c4.043,0,7.314-3.279,7.314-7.314s-3.271-7.303-7.314-7.303-7.306,3.268-7.306,7.303,3.271,7.314,7.306,7.314Z"/>
  <path class="cls-19" d="m809.703,377.13c4.043,0,7.314-3.279,7.314-7.314s-3.271-7.303-7.314-7.303-7.302,3.268-7.302,7.303,3.267,7.314,7.302,7.314"/>
  <path class="cls-5" d="m809.703,377.13c4.043,0,7.314-3.279,7.314-7.314s-3.271-7.303-7.314-7.303-7.302,3.268-7.302,7.303,3.267,7.314,7.302,7.314Z"/>
  <path class="cls-19" d="m766.741,377.13c4.043,0,7.314-3.279,7.314-7.314s-3.271-7.303-7.314-7.303-7.302,3.268-7.302,7.303,3.268,7.314,7.302,7.314"/>
  <path class="cls-5" d="m766.741,377.13c4.043,0,7.314-3.279,7.314-7.314s-3.271-7.303-7.314-7.303-7.302,3.268-7.302,7.303,3.268,7.314,7.302,7.314Z"/>
  <path class="cls-19" d="m763.671,377.13c4.043,0,7.314-3.279,7.314-7.314s-3.271-7.303-7.314-7.303-7.302,3.268-7.302,7.303,3.267,7.314,7.302,7.314"/>
  <path class="cls-5" d="m763.671,377.13c4.043,0,7.314-3.279,7.314-7.314s-3.271-7.303-7.314-7.303-7.302,3.268-7.302,7.303,3.267,7.314,7.302,7.314Z"/>
  <path class="cls-19" d="m753.496,377.13c4.043,0,7.314-3.279,7.314-7.314s-3.271-7.303-7.314-7.303-7.302,3.268-7.302,7.303,3.267,7.314,7.302,7.314"/>
  <path class="cls-5" d="m753.496,377.13c4.043,0,7.314-3.279,7.314-7.314s-3.271-7.303-7.314-7.303-7.302,3.268-7.302,7.303,3.267,7.314,7.302,7.314Z"/>
  <path class="cls-19" d="m749.136,377.13c4.043,0,7.314-3.279,7.314-7.314s-3.271-7.303-7.314-7.303-7.302,3.268-7.302,7.303,3.267,7.314,7.302,7.314"/>
  <path class="cls-5" d="m749.136,377.13c4.043,0,7.314-3.279,7.314-7.314s-3.271-7.303-7.314-7.303-7.302,3.268-7.302,7.303,3.267,7.314,7.302,7.314Z"/>
  <path class="cls-19" d="m729.279,375.952c4.043,0,7.314-3.279,7.314-7.314s-3.271-7.306-7.314-7.306-7.302,3.271-7.302,7.306,3.268,7.314,7.302,7.314"/>
  <path class="cls-5" d="m729.279,375.952c4.043,0,7.314-3.279,7.314-7.314s-3.271-7.306-7.314-7.306-7.302,3.271-7.302,7.306,3.268,7.314,7.302,7.314Z"/>
  <path class="cls-19" d="m1011.822,404.909c4.043,0,7.314-3.279,7.314-7.314s-3.271-7.306-7.314-7.306-7.306,3.271-7.306,7.306,3.271,7.314,7.306,7.314"/>
  <path class="cls-5" d="m1011.822,404.909c4.043,0,7.314-3.279,7.314-7.314s-3.271-7.306-7.314-7.306-7.306,3.271-7.306,7.306,3.271,7.314,7.306,7.314Z"/>
  <path class="cls-19" d="m1011.822,392.312c4.043,0,7.314-3.279,7.314-7.314s-3.271-7.306-7.314-7.306-7.306,3.271-7.306,7.306,3.271,7.314,7.306,7.314"/>
  <path class="cls-5" d="m1011.822,392.312c4.043,0,7.314-3.279,7.314-7.314s-3.271-7.306-7.314-7.306-7.306,3.271-7.306,7.306,3.271,7.314,7.306,7.314Z"/>
  <path class="cls-19" d="m1003.101,392.634c4.043,0,7.314-3.275,7.314-7.314s-3.271-7.303-7.314-7.303-7.306,3.268-7.306,7.303,3.271,7.314,7.306,7.314"/>
  <path class="cls-5" d="m1003.101,392.634c4.043,0,7.314-3.275,7.314-7.314s-3.271-7.303-7.314-7.303-7.306,3.268-7.306,7.303,3.271,7.314,7.306,7.314Z"/>
  <path class="cls-19" d="m959.817,396.51c4.043,0,7.314-3.275,7.314-7.31s-3.271-7.306-7.314-7.306-7.306,3.268-7.306,7.306,3.271,7.31,7.306,7.31"/>
  <path class="cls-5" d="m959.817,396.51c4.043,0,7.314-3.275,7.314-7.31s-3.271-7.306-7.314-7.306-7.306,3.268-7.306,7.306,3.271,7.31,7.306,7.31Z"/>
  <path class="cls-19" d="m944.639,426.549c4.043,0,7.314-3.275,7.314-7.31s-3.271-7.306-7.314-7.306-7.306,3.271-7.306,7.306,3.271,7.31,7.306,7.31"/>
  <path class="cls-5" d="m944.639,426.549c4.043,0,7.314-3.275,7.314-7.31s-3.271-7.306-7.314-7.306-7.306,3.271-7.306,7.306,3.271,7.31,7.306,7.31Z"/>
  <path class="cls-19" d="m939.468,449.805c4.043,0,7.314-3.275,7.314-7.31s-3.271-7.306-7.314-7.306-7.306,3.271-7.306,7.306,3.271,7.31,7.306,7.31"/>
  <path class="cls-5" d="m939.468,449.805c4.043,0,7.314-3.275,7.314-7.31s-3.271-7.306-7.314-7.306-7.306,3.271-7.306,7.306,3.271,7.31,7.306,7.31Z"/>
  <path class="cls-19" d="m951.096,376.804c4.043,0,7.314-3.275,7.314-7.31s-3.271-7.306-7.314-7.306-7.306,3.271-7.306,7.306,3.271,7.31,7.306,7.31"/>
  <path class="cls-5" d="m951.096,376.804c4.043,0,7.314-3.275,7.314-7.31s-3.271-7.306-7.314-7.306-7.306,3.271-7.306,7.306,3.271,7.31,7.306,7.31Z"/>
  <path class="cls-19" d="m936.24,376.804c4.043,0,7.314-3.275,7.314-7.31s-3.271-7.306-7.314-7.306-7.306,3.271-7.306,7.306,3.271,7.31,7.306,7.31"/>
  <path class="cls-5" d="m936.24,376.804c4.043,0,7.314-3.275,7.314-7.31s-3.271-7.306-7.314-7.306-7.306,3.271-7.306,7.306,3.271,7.31,7.306,7.31Z"/>
  <path class="cls-19" d="m926.55,393.281c4.043,0,7.314-3.279,7.314-7.314s-3.271-7.306-7.314-7.306-7.306,3.271-7.306,7.306,3.271,7.314,7.306,7.314"/>
  <path class="cls-5" d="m926.55,393.281c4.043,0,7.314-3.279,7.314-7.314s-3.271-7.306-7.314-7.306-7.306,3.271-7.306,7.306,3.271,7.314,7.306,7.314Z"/>
  <path class="cls-19" d="m902.324,364.855c4.043,0,7.314-3.279,7.314-7.314s-3.271-7.302-7.314-7.302-7.306,3.268-7.306,7.302,3.271,7.314,7.306,7.314"/>
  <path class="cls-5" d="m902.324,364.855c4.043,0,7.314-3.279,7.314-7.314s-3.271-7.302-7.314-7.302-7.306,3.268-7.306,7.302,3.271,7.314,7.306,7.314Z"/>
  <path class="cls-19" d="m888.115,360.979c4.043,0,7.314-3.279,7.314-7.314s-3.271-7.302-7.314-7.302-7.306,3.268-7.306,7.302,3.271,7.314,7.306,7.314"/>
  <path class="cls-5" d="m888.115,360.979c4.043,0,7.314-3.279,7.314-7.314s-3.271-7.302-7.314-7.302-7.306,3.268-7.306,7.302,3.271,7.314,7.306,7.314Z"/>
  <polyline class="cls-19" points="1199.872 752.109 1191.856 738.57 1183.84 752.109 1199.872 752.109"/>
  <polygon class="cls-5" points="1199.872 752.109 1191.856 738.57 1183.84 752.109 1199.872 752.109"/>
  <polyline class="cls-19" points="1144.638 676.766 1136.623 663.231 1128.607 676.766 1144.638 676.766"/>
  <polygon class="cls-5" points="1144.638 676.766 1136.623 663.231 1128.607 676.766 1144.638 676.766"/>
  <polyline class="cls-19" points="1093.041 685.003 1085.025 671.468 1077.005 685.003 1093.041 685.003"/>
  <polygon class="cls-5" points="1093.041 685.003 1085.025 671.468 1077.005 685.003 1093.041 685.003"/>
  <polyline class="cls-19" points="1021.919 491.953 1013.904 478.422 1005.888 491.953 1021.919 491.953"/>
  <polygon class="cls-5" points="1021.919 491.953 1013.904 478.422 1005.888 491.953 1021.919 491.953"/>
  <polyline class="cls-19" points="998.876 507.737 990.861 494.205 982.841 507.737 998.876 507.737"/>
  <polygon class="cls-5" points="998.876 507.737 990.861 494.205 982.841 507.737 998.876 507.737"/>
  <polyline class="cls-19" points="981.202 437.344 973.182 423.813 965.166 437.344 981.202 437.344"/>
  <polygon class="cls-5" points="981.202 437.344 973.182 423.813 965.166 437.344 981.202 437.344"/>
  <polyline class="cls-19" points="952.476 448.395 944.461 434.859 936.445 448.395 952.476 448.395"/>
  <polygon class="cls-5" points="952.476 448.395 944.461 434.859 936.445 448.395 952.476 448.395"/>
  <polyline class="cls-19" points="943.321 454.705 935.306 441.174 927.286 454.705 943.321 454.705"/>
  <polygon class="cls-5" points="943.321 454.705 935.306 441.174 927.286 454.705 943.321 454.705"/>
  <polyline class="cls-19" points="906.076 440.499 898.057 426.968 890.041 440.499 906.076 440.499"/>
  <polygon class="cls-5" points="906.076 440.499 898.057 426.968 890.041 440.499 906.076 440.499"/>
  <polyline class="cls-19" points="952.476 419.352 944.461 405.82 936.445 419.352 952.476 419.352"/>
  <polygon class="cls-5" points="952.476 419.352 944.461 405.82 936.445 419.352 952.476 419.352"/>
  <polyline class="cls-19" points="1046.544 442.712 1038.528 429.181 1030.509 442.712 1046.544 442.712"/>
  <polygon class="cls-5" points="1046.544 442.712 1038.528 429.181 1030.509 442.712 1046.544 442.712"/>
  <polyline class="cls-19" points="1069.905 425.666 1061.889 412.134 1053.873 425.666 1069.905 425.666"/>
  <polygon class="cls-5" points="1069.905 425.666 1061.889 412.134 1053.873 425.666 1069.905 425.666"/>
  <polyline class="cls-19" points="1092.948 452.813 1084.928 439.282 1076.912 452.813 1092.948 452.813"/>
  <polygon class="cls-5" points="1092.948 452.813 1084.928 439.282 1076.912 452.813 1092.948 452.813"/>
  <polyline class="cls-19" points="1121.355 450.6 1113.336 437.069 1105.32 450.6 1121.355 450.6"/>
  <polygon class="cls-5" points="1121.355 450.6 1113.336 437.069 1105.32 450.6 1121.355 450.6"/>
  <polyline class="cls-19" points="1196.29 450.922 1188.271 437.391 1180.255 450.922 1196.29 450.922"/>
  <polygon class="cls-5" points="1196.29 450.922 1188.271 437.391 1180.255 450.922 1196.29 450.922"/>
  <polyline class="cls-19" points="1055.381 370.106 1047.365 356.575 1039.346 370.106 1055.381 370.106"/>
  <polygon class="cls-5" points="1055.381 370.106 1047.365 356.575 1039.346 370.106 1055.381 370.106"/>
  <polyline class="cls-19" points="1004.245 383.994 996.225 370.463 988.209 383.994 1004.245 383.994"/>
  <polygon class="cls-5" points="1004.245 383.994 996.225 370.463 988.209 383.994 1004.245 383.994"/>
  <polyline class="cls-19" points="961 374.211 952.98 360.68 944.965 374.211 961 374.211"/>
  <polygon class="cls-5" points="961 374.211 952.98 360.68 944.965 374.211 961 374.211"/>
  <polyline class="cls-19" points="943.321 374.211 935.306 360.68 927.286 374.211 943.321 374.211"/>
  <polygon class="cls-5" points="943.321 374.211 935.306 360.68 927.286 374.211 943.321 374.211"/>
  <polyline class="cls-19" points="931.957 374.529 923.941 360.994 915.925 374.529 931.957 374.529"/>
  <polygon class="cls-5" points="931.957 374.529 923.941 360.994 915.925 374.529 931.957 374.529"/>
  <polyline class="cls-19" points="906.076 374.529 898.057 360.994 890.041 374.529 906.076 374.529"/>
  <polygon class="cls-5" points="906.076 374.529 898.057 360.994 890.041 374.529 906.076 374.529"/>
  <polyline class="cls-19" points="843.413 313.16 835.393 299.625 827.377 313.16 843.413 313.16"/>
  <polygon class="cls-5" points="843.413 313.16 835.393 299.625 827.377 313.16 843.413 313.16"/>
  <polyline class="cls-19" points="854.072 358.703 846.052 345.168 838.037 358.703 854.072 358.703"/>
  <polygon class="cls-5" points="854.072 358.703 846.052 345.168 838.037 358.703 854.072 358.703"/>
  <polyline class="cls-19" points="867.96 374.529 859.94 360.994 851.924 374.529 867.96 374.529"/>
  <polygon class="cls-5" points="867.96 374.529 859.94 360.994 851.924 374.529 867.96 374.529"/>
  <polyline class="cls-19" points="854.072 373.882 846.052 360.351 838.037 373.882 854.072 373.882"/>
  <polygon class="cls-5" points="854.072 373.882 846.052 360.351 838.037 373.882 854.072 373.882"/>
  <polyline class="cls-19" points="843.413 374.208 835.393 360.672 827.377 374.208 843.413 374.208"/>
  <polygon class="cls-5" points="843.413 374.208 835.393 360.672 827.377 374.208 843.413 374.208"/>
  <polyline class="cls-19" points="737.302 375.642 729.283 362.11 721.267 375.642 737.302 375.642"/>
  <polygon class="cls-5" points="737.302 375.642 729.283 362.11 721.267 375.642 737.302 375.642"/>
  <polyline class="cls-19" points="759.349 374.692 751.334 361.157 743.314 374.692 759.349 374.692"/>
  <polygon class="cls-5" points="759.349 374.692 751.334 361.157 743.314 374.692 759.349 374.692"/>
  <polyline class="cls-19" points="779.214 374.208 771.198 360.672 763.179 374.208 779.214 374.208"/>
  <polygon class="cls-5" points="779.214 374.208 771.198 360.672 763.179 374.208 779.214 374.208"/>
  <polyline class="cls-19" points="906.076 238.221 898.057 224.69 890.041 238.221 906.076 238.221"/>
  <path class="cls-5" d="m728.981,797.044v-7.752m177.096-551.071l-8.02-13.531-8.016,13.531h16.035Z"/>
  <text class="cls-3" transform="translate(722.512 821.271)"><tspan x="0" y="0">1</tspan></text>
  <line class="cls-5" x1="785.226" y1="797.044" x2="785.226" y2="789.291"/>
  <text class="cls-3" transform="translate(778.753 821.271)"><tspan x="0" y="0">2</tspan></text>
  <line class="cls-5" x1="841.467" y1="797.044" x2="841.467" y2="789.291"/>
  <text class="cls-3" transform="translate(835.001 821.271)"><tspan x="0" y="0">3</tspan></text>
  <line class="cls-5" x1="897.708" y1="797.044" x2="897.708" y2="789.291"/>
  <text class="cls-3" transform="translate(891.239 821.271)"><tspan x="0" y="0">4</tspan></text>
  <line class="cls-5" x1="953.953" y1="797.044" x2="953.953" y2="789.291"/>
  <text class="cls-3" transform="translate(947.48 821.271)"><tspan x="0" y="0">5</tspan></text>
  <line class="cls-5" x1="1010.194" y1="797.044" x2="1010.194" y2="789.291"/>
  <text class="cls-3" transform="translate(1003.724 821.271)"><tspan x="0" y="0">6</tspan></text>
  <line class="cls-5" x1="1066.439" y1="797.044" x2="1066.439" y2="789.291"/>
  <text class="cls-3" transform="translate(1059.968 821.271)"><tspan x="0" y="0">7</tspan></text>
  <line class="cls-5" x1="1122.681" y1="797.044" x2="1122.681" y2="789.291"/>
  <text class="cls-3" transform="translate(1116.209 821.271)"><tspan x="0" y="0">8</tspan></text>
  <line class="cls-5" x1="1178.922" y1="797.044" x2="1178.922" y2="789.291"/>
  <text class="cls-3" transform="translate(1172.458 821.271)"><tspan x="0" y="0">9</tspan></text>
  <line class="cls-5" x1="1235.167" y1="797.044" x2="1235.167" y2="789.291"/>
  <text class="cls-3" transform="translate(1222.232 821.271)"><tspan x="0" y="0">10</tspan></text>
  <rect class="cls-19" x="988.244" y="581.517" width="14.725" height="14.725"/>
  <rect class="cls-5" x="988.244" y="581.517" width="14.725" height="14.725"/>
  <rect class="cls-19" x="1040.218" y="497.535" width="14.725" height="14.725"/>
  <rect class="cls-5" x="1040.218" y="497.535" width="14.725" height="14.725"/>
  <rect class="cls-19" x="1043.447" y="488.725" width="14.725" height="14.725"/>
  <rect class="cls-5" x="1043.447" y="488.725" width="14.725" height="14.725"/>
  <rect class="cls-19" x="1044.032" y="471.108" width="14.725" height="14.725"/>
  <rect class="cls-5" x="1044.032" y="471.108" width="14.725" height="14.725"/>
  <rect class="cls-19" x="1020.838" y="462.003" width="14.725" height="14.725"/>
  <rect class="cls-5" x="1020.838" y="462.003" width="14.725" height="14.725"/>
  <rect class="cls-19" x="1058.718" y="463.763" width="14.721" height="14.725"/>
  <rect class="cls-5" x="1058.718" y="463.763" width="14.721" height="14.725"/>
  <rect class="cls-19" x="1081.331" y="449.964" width="14.721" height="14.725"/>
  <rect class="cls-5" x="1081.331" y="449.964" width="14.721" height="14.725"/>
  <rect class="cls-19" x="1058.559" y="412.898" width="14.721" height="14.725"/>
  <rect class="cls-5" x="1058.559" y="412.898" width="14.721" height="14.725"/>
  <rect class="cls-19" x="1016.892" y="347.49" width="14.721" height="14.725"/>
  <rect class="cls-5" x="1016.892" y="347.49" width="14.721" height="14.725"/>
  <rect class="cls-19" x="974.256" y="334.164" width="14.721" height="14.725"/>
  <rect class="cls-5" x="974.256" y="334.164" width="14.721" height="14.725"/>
  <rect class="cls-19" x="974.581" y="261.492" width="14.721" height="14.725"/>
  <rect class="cls-5" x="974.581" y="261.488" width="14.721" height="14.725"/>
  <rect class="cls-19" x="947.608" y="422.588" width="14.721" height="14.725"/>
  <rect class="cls-5" x="947.608" y="422.588" width="14.721" height="14.725"/>
  <rect class="cls-19" x="932.104" y="455.534" width="14.721" height="14.725"/>
  <rect class="cls-5" x="932.104" y="455.534" width="14.721" height="14.725"/>
  <rect class="cls-19" x="946.395" y="361.3" width="14.725" height="14.725"/>
  <rect class="cls-5" x="946.395" y="361.296" width="14.725" height="14.725"/>
  <rect class="cls-19" x="928.468" y="346.037" width="14.725" height="14.725"/>
  <rect class="cls-5" x="928.468" y="346.036" width="14.725" height="14.725"/>
  <rect class="cls-19" x="917.084" y="336.346" width="14.721" height="14.725"/>
  <rect class="cls-5" x="917.084" y="336.346" width="14.721" height="14.725"/>
  <rect class="cls-19" x="900.611" y="349.913" width="14.721" height="14.725"/>
  <rect class="cls-5" x="900.611" y="349.912" width="14.721" height="14.725"/>
  <rect class="cls-19" x="917.569" y="361.056" width="14.721" height="14.725"/>
  <rect class="cls-5" x="917.569" y="361.056" width="14.721" height="14.725"/>
  <rect class="cls-19" x="913.449" y="361.056" width="14.725" height="14.725"/>
  <rect class="cls-5" x="913.449" y="361.056" width="14.725" height="14.725"/>
  <rect class="cls-19" x="917.809" y="375.107" width="14.725" height="14.725"/>
  <rect class="cls-5" x="917.809" y="375.106" width="14.725" height="14.725"/>
  <rect class="cls-19" x="862.091" y="369.537" width="14.725" height="14.725"/>
  <rect class="cls-5" x="862.091" y="369.533" width="14.725" height="14.725"/>
  <rect class="cls-19" x="853.37" y="361.3" width="14.725" height="14.725"/>
  <rect class="cls-5" x="853.37" y="361.296" width="14.725" height="14.725"/>
  <rect class="cls-19" x="819.699" y="361.541" width="14.721" height="14.725"/>
  <rect class="cls-5" x="819.699" y="361.54" width="14.721" height="14.725"/>
  <rect class="cls-19" x="796.927" y="369.048" width="14.721" height="14.725"/>
  <rect class="cls-5" x="796.927" y="369.048" width="14.721" height="14.725"/>
  <rect class="cls-19" x="782.148" y="361.056" width="14.725" height="14.725"/>
  <rect class="cls-5" x="782.148" y="361.056" width="14.725" height="14.725"/>
  <rect class="cls-19" x="758.407" y="329.803" width="14.725" height="14.725"/>
  <rect class="cls-5" x="758.407" y="329.803" width="14.725" height="14.725"/>
  <rect class="cls-19" x="752.837" y="360.327" width="14.721" height="14.725"/>
  <rect class="cls-5" x="752.837" y="360.327" width="14.721" height="14.725"/>
  <rect class="cls-19" x="750.415" y="360.327" width="14.721" height="14.725"/>
  <rect class="cls-5" x="750.415" y="360.327" width="14.721" height="14.725"/>
  <rect class="cls-19" x="721.922" y="361.281" width="14.725" height="14.725"/>
  <rect class="cls-5" x="721.922" y="361.277" width="14.725" height="14.725"/>
  <rect class="cls-19" x="1114.801" y="534.826" width="14.725" height="14.725"/>
  <rect class="cls-5" x="1114.801" y="534.826" width="14.725" height="14.725"/>
  <polyline class="cls-19" points="1088.723 595.719 1097.641 585.529 1088.723 575.338 1079.812 585.529 1088.723 595.719"/>
  <g class="cls-24">
    <path class="cls-5" d="m258.857,82.908h730.329V.484H258.857v82.424Zm829.866,512.811l8.919-10.19-8.919-10.19-8.911,10.19,8.911,10.19Z"/>
  </g>
  <text class="cls-3" transform="translate(520.933 33.991)"><tspan x="0" y="0">Assigned Diet G</tspan><tspan class="cls-20" x="161.512" y="0">r</tspan><tspan class="cls-29" x="168.442" y="0">oup</tspan></text>
  <text class="cls-3" transform="translate(483.179 66.08)"><tspan x="0" y="0">Zone</tspan></text>
  <path class="cls-19" d="m455.31,64.815c4.043,0,7.314-3.279,7.314-7.314s-3.271-7.306-7.314-7.306-7.302,3.272-7.302,7.306,3.267,7.314,7.302,7.314"/>
  <path class="cls-5" d="m455.31,64.815c4.043,0,7.314-3.279,7.314-7.314s-3.271-7.306-7.314-7.306-7.302,3.272-7.302,7.306,3.267,7.314,7.302,7.314Z"/>
  <text class="cls-3" transform="translate(909.817 66.08)"><tspan x="0" y="0">O</tspan><tspan class="cls-28" x="17.232" y="0">r</tspan><tspan x="24.953" y="0">nish</tspan></text>
  <polyline class="cls-19" points="893.855 64.02 885.84 50.485 877.824 64.02 893.855 64.02"/>
  <polygon class="cls-5" points="893.855 64.02 885.84 50.485 877.824 64.02 893.855 64.02"/>
  <text class="cls-3" transform="translate(315.505 66.08)"><tspan x="0" y="0">Atkins</tspan></text>
  <rect class="cls-19" x="284.152" y="49.892" width="14.725" height="14.725"/>
  <rect class="cls-5" x="284.152" y="49.892" width="14.725" height="14.725"/>
  <text class="cls-3" transform="translate(638.275 66.08)"><tspan class="cls-26" x="0" y="0">W</tspan><tspan class="cls-29" x="20.698" y="0">eight</tspan><tspan class="cls-30" x="69.372" y="0"> </tspan><tspan class="cls-25" x="72.628" y="0">W</tspan><tspan class="cls-29" x="92.885" y="0">atchers</tspan></text>
  <polyline class="cls-19" points="614.289 67.451 623.208 57.261 614.289 47.07 605.378 57.261 614.289 67.451"/>
  <path class="cls-5" d="m718.376,780.183h276.427v-160.413h-276.427v160.413Zm-104.087-712.732l8.919-10.19-8.919-10.19-8.911,10.19,8.911,10.19Z"/>
  <text class="cls-3" transform="translate(733.114 649.074)"><tspan x="0" y="0">Assigned Diet G</tspan><tspan class="cls-20" x="161.512" y="0">r</tspan><tspan class="cls-29" x="168.442" y="0">oup</tspan></text>
  <line class="cls-7" x1="802.955" y1="699.806" x2="734.581" y2="699.806"/>
  <text class="cls-3" transform="translate(818.428 708.606)"><tspan x="0" y="0">Zone</tspan></text>
  <text class="cls-3" transform="translate(814.543 768.141)"><tspan x="0" y="0">O</tspan><tspan class="cls-28" x="17.232" y="0">r</tspan><tspan x="24.953" y="0">nish</tspan></text>
  <line class="cls-10" x1="802.955" y1="759.345" x2="734.581" y2="759.345"/>
  <line class="cls-4" x1="802.955" y1="670.038" x2="734.581" y2="670.038"/>
  <text class="cls-3" transform="translate(814.551 678.836)"><tspan x="0" y="0">Atkins</tspan></text>
  <line class="cls-11" x1="802.951" y1="729.57" x2="734.581" y2="729.57"/>
  <text class="cls-3" transform="translate(814.543 738.375)"><tspan class="cls-26" x="0" y="0">W</tspan><tspan class="cls-29" x="20.698" y="0">eight</tspan><tspan class="cls-30" x="69.372" y="0"> </tspan><tspan class="cls-25" x="72.628" y="0">W</tspan><tspan class="cls-29" x="92.885" y="0">atchers</tspan></text>
  <polyline class="cls-19" points="1088.401 548.237 1097.32 538.047 1088.401 527.857 1079.49 538.047 1088.401 548.237"/>
  <polygon class="cls-5" points="1088.401 548.237 1097.32 538.047 1088.401 527.857 1079.49 538.047 1088.401 548.237"/>
  <polyline class="cls-19" points="1038.334 523.369 1047.253 513.179 1038.334 502.989 1029.423 513.179 1038.334 523.369"/>
  <polygon class="cls-5" points="1038.334 523.369 1047.253 513.179 1038.334 502.989 1029.423 513.179 1038.334 523.369"/>
  <polyline class="cls-19" points="1028.322 536.288 1037.241 526.097 1028.322 515.907 1019.411 526.097 1028.322 536.288"/>
  <polygon class="cls-5" points="1028.322 536.288 1037.241 526.097 1028.322 515.907 1019.411 526.097 1028.322 536.288"/>
  <polyline class="cls-19" points="952.74 514.322 961.659 504.132 952.74 493.946 943.829 504.132 952.74 514.322"/>
  <polygon class="cls-5" points="952.74 514.322 961.659 504.132 952.74 493.946 943.829 504.132 952.74 514.322"/>
  <polyline class="cls-19" points="938.852 485.577 947.771 475.387 938.852 465.197 929.941 475.387 938.852 485.577"/>
  <polygon class="cls-5" points="938.852 485.577 947.771 475.387 938.852 465.197 929.941 475.387 938.852 485.577"/>
  <polyline class="cls-19" points="981.488 457.798 990.407 447.608 981.488 437.418 972.577 447.608 981.488 457.798"/>
  <polygon class="cls-5" points="981.488 457.798 990.407 447.608 981.488 437.418 972.577 447.608 981.488 457.798"/>
  <polyline class="cls-19" points="883.94 406.762 892.859 396.572 883.94 386.382 875.029 396.572 883.94 406.762"/>
  <polygon class="cls-5" points="883.94 406.762 892.859 396.572 883.94 386.382 875.029 396.572 883.94 406.762"/>
  <polyline class="cls-19" points="883.297 379.63 892.216 369.44 883.297 359.25 874.386 369.44 883.297 379.63"/>
  <polygon class="cls-5" points="883.297 379.63 892.216 369.44 883.297 359.25 874.386 369.44 883.297 379.63"/>
  <polyline class="cls-19" points="920.763 379.308 929.681 369.118 920.763 358.928 911.852 369.118 920.763 379.308"/>
  <polygon class="cls-5" points="920.763 379.308 929.681 369.118 920.763 358.928 911.852 369.118 920.763 379.308"/>
  <polyline class="cls-19" points="928.84 379.308 937.759 369.118 928.84 358.928 919.929 369.118 928.84 379.308"/>
  <polygon class="cls-5" points="928.84 379.308 937.759 369.118 928.84 358.928 919.929 369.118 928.84 379.308"/>
  <polyline class="cls-19" points="981.488 379.63 990.407 369.44 981.488 359.25 972.577 369.44 981.488 379.63"/>
  <polygon class="cls-5" points="981.488 379.63 990.407 369.44 981.488 359.25 972.577 369.44 981.488 379.63"/>
  <polyline class="cls-19" points="981.81 402.886 990.729 392.696 981.81 382.506 972.899 392.696 981.81 402.886"/>
  <polygon class="cls-5" points="981.81 402.886 990.729 392.696 981.81 382.506 972.899 392.696 981.81 402.886"/>
  <polyline class="cls-19" points="975.996 418.39 984.915 408.2 975.996 398.014 967.085 408.2 975.996 418.39"/>
  <polygon class="cls-5" points="975.996 418.39 984.915 408.2 975.996 398.014 967.085 408.2 975.996 418.39"/>
  <polyline class="cls-19" points="962.108 426.142 971.027 415.952 962.108 405.766 953.197 415.952 962.108 426.142"/>
  <polygon class="cls-5" points="962.108 426.142 971.027 415.952 962.108 405.766 953.197 415.952 962.108 426.142"/>
  <polyline class="cls-19" points="996.023 424.53 1004.942 414.34 996.023 404.15 987.113 414.34 996.023 424.53"/>
  <polygon class="cls-5" points="996.023 424.53 1004.942 414.34 996.023 404.15 987.113 414.34 996.023 424.53"/>
  <polyline class="cls-19" points="1009.911 421.297 1018.83 411.107 1009.911 400.921 1001 411.107 1009.911 421.297"/>
  <polygon class="cls-5" points="1009.911 421.297 1018.83 411.107 1009.911 400.921 1001 411.107 1009.911 421.297"/>
  <polyline class="cls-19" points="1028.322 410.964 1037.241 400.774 1028.322 390.584 1019.411 400.774 1028.322 410.964"/>
  <polygon class="cls-5" points="1028.322 410.964 1037.241 400.774 1028.322 390.584 1019.411 400.774 1028.322 410.964"/>
  <polyline class="cls-19" points="1041.889 413.224 1050.807 403.033 1041.889 392.843 1032.978 403.033 1041.889 413.224"/>
  <polygon class="cls-5" points="1041.889 413.224 1050.807 403.033 1041.889 392.843 1032.978 403.033 1041.889 413.224"/>
  <polyline class="cls-19" points="1041.889 426.468 1050.807 416.278 1041.889 406.088 1032.978 416.278 1041.889 426.468"/>
  <polygon class="cls-5" points="1041.889 426.468 1050.807 416.278 1041.889 406.088 1032.978 416.278 1041.889 426.468"/>
  <polyline class="cls-19" points="1013.787 449.724 1022.706 439.534 1013.787 429.344 1004.876 439.534 1013.787 449.724"/>
  <polygon class="cls-5" points="1013.787 449.724 1022.706 439.534 1013.787 429.344 1004.876 439.534 1013.787 449.724"/>
  <polyline class="cls-19" points="1009.911 447.461 1018.83 437.27 1009.911 427.084 1001 437.27 1009.911 447.461"/>
  <polygon class="cls-5" points="1009.911 447.461 1018.83 437.27 1009.911 427.084 1001 437.27 1009.911 447.461"/>
  <polyline class="cls-19" points="1013.466 358.959 1022.384 348.769 1013.466 338.579 1004.555 348.769 1013.466 358.959"/>
  <polygon class="cls-5" points="1013.466 358.959 1022.384 348.769 1013.466 338.579 1004.555 348.769 1013.466 358.959"/>
  <polyline class="cls-19" points="1010.233 351.203 1019.152 341.017 1010.233 330.827 1001.322 341.017 1010.233 351.203"/>
  <polygon class="cls-5" points="1010.233 351.203 1019.152 341.017 1010.233 330.827 1001.322 341.017 1010.233 351.203"/>
  <polyline class="cls-19" points="832.257 507.221 841.176 497.031 832.257 486.841 823.346 497.031 832.257 507.221"/>
  <polygon class="cls-5" points="832.257 507.221 841.176 497.031 832.257 486.841 823.346 497.031 832.257 507.221"/>
  <polyline class="cls-19" points="752.151 407.088 761.07 396.898 752.151 386.708 743.24 396.898 752.151 407.088"/>
  <polygon class="cls-5" points="752.151 407.088 761.07 396.898 752.151 386.708 743.24 396.898 752.151 407.088"/>
  <polyline class="cls-19" points="751.504 378.339 760.423 368.149 751.504 357.959 742.593 368.149 751.504 378.339"/>
  <polygon class="cls-5" points="751.504 378.339 760.423 368.149 751.504 357.959 742.593 368.149 751.504 378.339"/>
  <polyline class="cls-19" points="748.597 378.339 757.516 368.149 748.597 357.959 739.686 368.149 748.597 378.339"/>
  <polygon class="cls-5" points="748.597 378.339 757.516 368.149 748.597 357.959 739.686 368.149 748.597 378.339"/>
  <polyline class="cls-19" points="729.279 378.832 738.198 368.641 729.279 358.451 720.372 368.641 729.279 378.832"/>
  <polygon class="cls-5" points="729.279 378.832 738.198 368.641 729.279 358.451 720.372 368.641 729.279 378.832"/>
  <polyline class="cls-19" points="841.626 354.436 850.544 344.246 841.626 334.056 832.715 344.246 841.626 354.436"/>
  <polygon class="cls-5" points="841.626 354.436 850.544 344.246 841.626 334.056 832.715 344.246 841.626 354.436"/>
  <polyline class="cls-19" points="907.034 312.044 915.953 301.853 907.034 291.663 898.123 301.853 907.034 312.044"/>
  <polygon class="cls-5" points="907.034 312.044 915.953 301.853 907.034 291.663 898.123 301.853 907.034 312.044"/>
  <polyline class="cls-19" points="901.22 318.583 910.138 308.392 901.22 298.202 892.309 308.392 901.22 318.583"/>
  <polygon class="cls-5" points="901.22 318.583 910.138 308.392 901.22 298.202 892.309 308.392 901.22 318.583"/>
  <polyline class="cls-19" points="835.164 379.63 844.083 369.44 835.164 359.25 826.253 369.44 835.164 379.63"/>
  <polygon class="cls-5" points="835.164 379.63 844.083 369.44 835.164 359.25 826.253 369.44 835.164 379.63"/>
  <polyline class="cls-19" points="831.936 379.63 840.854 369.44 831.936 359.25 823.025 369.44 831.936 379.63"/>
  <polygon class="cls-5" points="831.936 379.63 840.854 369.44 831.936 359.25 823.025 369.44 831.936 379.63"/>
  <polyline class="cls-19" points="1113.595 492.035 1122.514 481.845 1113.595 471.655 1104.684 481.845 1113.595 492.035"/>
  <polygon class="cls-5" points="1113.595 492.035 1122.514 481.845 1113.595 471.655 1104.684 481.845 1113.595 492.035"/>
  <text class="cls-14" transform="translate(745.075 855.049)"><tspan x="0" y="0">Mean Dietary Adhe</tspan><tspan class="cls-17" x="206.741" y="0">r</tspan><tspan class="cls-23" x="214.249" y="0">ence Sco</tspan><tspan class="cls-22" x="316.965" y="0">r</tspan><tspan x="324.472" y="0">e Over 1 </tspan><tspan class="cls-32" x="423.913" y="0">Y</tspan><tspan class="cls-23" x="437.014" y="0">ear</tspan></text>
</svg>