<?xml version="1.0" encoding="UTF-8"?>
<svg id="_레이어_1" data-name="레이어 1" xmlns="http://www.w3.org/2000/svg" viewBox="0 0 481.468 456.32">
  <defs>
    <style>
      .cls-1, .cls-2 {
        stroke: #231f20;
      }

      .cls-1, .cls-2, .cls-3, .cls-4, .cls-5 {
        stroke-miterlimit: 10;
      }

      .cls-1, .cls-2, .cls-4, .cls-5, .cls-6 {
        fill: none;
      }

      .cls-7 {
        letter-spacing: -.038em;
      }

      .cls-8 {
        letter-spacing: -.025em;
      }

      .cls-8, .cls-9, .cls-10, .cls-11, .cls-12, .cls-13, .cls-14, .cls-3, .cls-15, .cls-16, .cls-17, .cls-18, .cls-19, .cls-20, .cls-21, .cls-22, .cls-23, .cls-24 {
        fill: #231f20;
      }

      .cls-8, .cls-13, .cls-14, .cls-19 {
        font-size: 12px;
      }

      .cls-8, .cls-13, .cls-19 {
        font-family: AppleSDGothicNeoM00, AppleSDGothicNeoM00;
      }

      .cls-25, .cls-26, .cls-27, .cls-28, .cls-29, .cls-20, .cls-21, .cls-30 {
        stroke-width: 0px;
      }

      .cls-25, .cls-31, .cls-32, .cls-33, .cls-34, .cls-35 {
        fill: #00aeef;
      }

      .cls-25, .cls-27, .cls-28, .cls-21, .cls-4 {
        fill-rule: evenodd;
      }

      .cls-26 {
        fill: #072330;
      }

      .cls-2 {
        stroke-dasharray: 0 0 4.029 4.029;
      }

      .cls-9 {
        letter-spacing: -.025em;
      }

      .cls-9, .cls-10, .cls-11, .cls-12 {
        font-size: 9.701px;
      }

      .cls-9, .cls-10, .cls-11, .cls-12, .cls-14, .cls-32 {
        font-family: AppleSDGothicNeoEB00, AppleSDGothicNeoEB00;
      }

      .cls-10 {
        letter-spacing: -.025em;
      }

      .cls-11, .cls-36 {
        letter-spacing: -.025em;
      }

      .cls-37, .cls-15, .cls-16, .cls-18, .cls-22, .cls-35, .cls-38 {
        font-family: KoreanHJJ-B, KoreanHJJB;
      }

      .cls-37, .cls-15, .cls-32, .cls-35, .cls-38 {
        font-size: 9.5px;
      }

      .cls-39 {
        letter-spacing: -.013em;
      }

      .cls-13, .cls-14 {
        letter-spacing: -.025em;
      }

      .cls-40, .cls-33 {
        letter-spacing: 0em;
      }

      .cls-31, .cls-17 {
        font-size: 21px;
        letter-spacing: -.025em;
      }

      .cls-31, .cls-17, .cls-34, .cls-24 {
        font-family: AcuminConcept-Medium, 'Acumin Variable Concept';
        font-variation-settings: 'wght' 500, 'wdth' 100, 'slnt' 0;
        font-weight: 500;
      }

      .cls-3, .cls-4 {
        stroke: #00aeef;
      }

      .cls-27, .cls-30 {
        fill: #181614;
      }

      .cls-28, .cls-29, .cls-38 {
        fill: #ec008c;
      }

      .cls-16, .cls-18 {
        font-size: 8.278px;
      }

      .cls-18, .cls-41 {
        letter-spacing: -.025em;
      }

      .cls-19 {
        letter-spacing: -.025em;
      }

      .cls-5 {
        stroke: #f7941d;
        stroke-width: 1.062px;
      }

      .cls-34, .cls-24 {
        font-size: 17.923px;
        letter-spacing: -.025em;
      }

      .cls-42 {
        letter-spacing: -.025em;
      }

      .cls-22 {
        font-size: 24.994px;
      }

      .cls-6 {
        stroke: #181614;
        stroke-width: .5px;
      }
    </style>
  </defs>
  <path class="cls-27" d="m73.151,332.937c-.011-1.502-1.039-2.373-2.804-2.373-1.68,0-2.719.86-2.719,2.247,0,.934.494,1.522,1.501,1.785l1.901.504c.966.252,1.407.64,1.407,1.238,0,.41-.221.83-.546,1.061-.305.21-.787.326-1.407.326-.829,0-1.397-.2-1.764-.641-.283-.336-.409-.704-.399-1.176h-.924c.011.704.147,1.165.451,1.585.525.714,1.407,1.092,2.573,1.092.913,0,1.659-.21,2.153-.588.514-.409.84-1.091.84-1.753,0-.945-.588-1.638-1.628-1.921l-1.921-.515c-.924-.252-1.26-.546-1.26-1.134,0-.777.682-1.292,1.711-1.292,1.218,0,1.9.557,1.911,1.555h.924Z"/>
  <path class="cls-27" d="m80.844,333.063c-.305-1.681-1.27-2.499-2.95-2.499-1.029,0-1.859.325-2.426.955-.693.756-1.071,1.848-1.071,3.087,0,1.26.389,2.342,1.113,3.087.588.609,1.344.892,2.342.892,1.868,0,2.919-1.008,3.149-3.034h-1.007c-.084.525-.19.882-.347,1.187-.315.629-.966.987-1.785.987-1.523,0-2.489-1.219-2.489-3.129,0-1.964.924-3.172,2.405-3.172.62,0,1.197.19,1.512.483.284.263.441.588.556,1.156h.998Z"/>
  <path class="cls-27" d="m84.249,332.685c-1.543,0-2.478,1.102-2.478,2.95s.924,2.95,2.488,2.95c1.544,0,2.489-1.102,2.489-2.908,0-1.9-.914-2.992-2.499-2.992Zm.01.808c.988,0,1.575.808,1.575,2.173,0,1.292-.609,2.111-1.575,2.111-.976,0-1.575-.809-1.575-2.142,0-1.323.599-2.142,1.575-2.142Z"/>
  <path class="cls-27" d="m92.37,336.044l.788,2.3h1.091l-2.687-7.654h-1.261l-2.729,7.654h1.039l.808-2.3h2.951Zm-.273-.818h-2.436l1.26-3.486,1.176,3.486Z"/>
  <path class="cls-28" d="m32.723,25.832c-.305-1.681-1.27-2.499-2.95-2.499-1.029,0-1.859.325-2.426.955-.693.756-1.071,1.849-1.071,3.087,0,1.261.389,2.342,1.113,3.087.588.609,1.344.893,2.342.893,1.868,0,2.919-1.008,3.149-3.034h-1.007c-.084.525-.19.882-.347,1.187-.315.63-.966.987-1.785.987-1.523,0-2.489-1.219-2.489-3.129,0-1.964.924-3.172,2.405-3.172.62,0,1.197.189,1.512.483.284.263.441.588.556,1.155h.998Z"/>
  <path class="cls-21" d="m37.357,23.333c-2.195,0-3.686,1.617-3.686,4.011s1.491,4.011,3.696,4.011c.924,0,1.754-.283,2.373-.809.83-.703,1.323-1.89,1.323-3.139,0-2.468-1.46-4.074-3.706-4.074Zm0,.86c1.658,0,2.729,1.261,2.729,3.192,0,1.848-1.102,3.108-2.719,3.108-1.627,0-2.719-1.261-2.719-3.15s1.092-3.15,2.709-3.15Z"/>
  <path class="cls-25" d="m45.607,23.333c-2.195,0-3.686,1.617-3.686,4.011s1.491,4.011,3.696,4.011c.924,0,1.754-.283,2.373-.809.83-.703,1.323-1.89,1.323-3.139,0-2.468-1.46-4.074-3.706-4.074Zm0,.86c1.658,0,2.729,1.261,2.729,3.192,0,1.848-1.102,3.108-2.719,3.108-1.627,0-2.719-1.261-2.719-3.15s1.092-3.15,2.709-3.15Z"/>
  <path class="cls-21" d="m32.723,43.582c-.305-1.681-1.27-2.499-2.95-2.499-1.029,0-1.859.325-2.426.955-.693.756-1.071,1.849-1.071,3.087,0,1.261.389,2.342,1.113,3.087.588.609,1.344.893,2.342.893,1.868,0,2.919-1.008,3.149-3.034h-1.007c-.084.525-.19.882-.347,1.187-.315.63-.966.987-1.785.987-1.523,0-2.489-1.219-2.489-3.129,0-1.964.924-3.172,2.405-3.172.62,0,1.197.189,1.512.483.284.263.441.588.556,1.155h.998Z"/>
  <path class="cls-20" d="m29.772,40.463h-.6v-8.449h.6v8.449Z"/>
  <path class="cls-21" d="m32.723,61.582c-.305-1.681-1.27-2.499-2.95-2.499-1.029,0-1.859.325-2.426.955-.693.756-1.071,1.849-1.071,3.087,0,1.261.389,2.342,1.113,3.087.588.609,1.344.893,2.342.893,1.868,0,2.919-1.008,3.149-3.034h-1.007c-.084.525-.19.882-.347,1.187-.315.63-.966.987-1.785.987-1.523,0-2.489-1.219-2.489-3.129,0-1.964.924-3.172,2.405-3.172.62,0,1.197.189,1.512.483.284.263.441.588.556,1.155h.998Z"/>
  <path class="cls-21" d="m39.057,63.377v3.486h.977v-7.654h-.977v3.308h-3.937v-3.308h-.977v7.654h.987v-3.486h3.927Z"/>
  <path class="cls-21" d="m44.756,68.178h-2.936c.07-.456.322-.748,1.008-1.15l.787-.425c.779-.426,1.181-1,1.181-1.686,0-.465-.189-.897-.52-1.197-.33-.299-.74-.44-1.268-.44-.709,0-1.236.252-1.543.725-.197.299-.284.646-.299,1.212h.693c.023-.378.07-.606.165-.787.182-.339.544-.543.961-.543.63,0,1.102.448,1.102,1.047,0,.441-.259.819-.755,1.103l-.725.409c-1.166.662-1.504,1.189-1.567,2.418h3.716v-.686Z"/>
  <path class="cls-20" d="m29.772,58.413h-.6v-8.55h.6v8.55Z"/>
  <path class="cls-21" d="m47.357,41.083c-2.195,0-3.686,1.617-3.686,4.011s1.491,4.011,3.696,4.011c.924,0,1.754-.283,2.373-.809.83-.703,1.323-1.89,1.323-3.139,0-2.468-1.46-4.074-3.706-4.074Zm0,.86c1.658,0,2.729,1.261,2.729,3.192,0,1.848-1.102,3.108-2.719,3.108-1.627,0-2.719-1.261-2.719-3.15s1.092-3.15,2.709-3.15Z"/>
  <path class="cls-20" d="m42.822,42.913v.601h-9v-.601h9Z"/>
  <path class="cls-20" d="m42.822,46.113v.6h-9v-.6h9Z"/>
  <path class="cls-21" d="m32.723,79.332c-.305-1.681-1.27-2.499-2.95-2.499-1.029,0-1.859.325-2.426.955-.693.756-1.071,1.849-1.071,3.087,0,1.261.389,2.342,1.113,3.087.588.609,1.344.893,2.342.893,1.868,0,2.919-1.008,3.149-3.034h-1.007c-.084.525-.19.882-.347,1.187-.315.63-.966.987-1.785.987-1.523,0-2.489-1.219-2.489-3.129,0-1.964.924-3.172,2.405-3.172.62,0,1.197.189,1.512.483.284.263.441.588.556,1.155h.998Z"/>
  <path class="cls-21" d="m37.357,76.833c-2.195,0-3.686,1.617-3.686,4.011s1.491,4.011,3.696,4.011c.924,0,1.754-.283,2.373-.809.83-.703,1.323-1.89,1.323-3.139,0-2.468-1.46-4.074-3.706-4.074Zm0,.86c1.658,0,2.729,1.261,2.729,3.192,0,1.848-1.102,3.108-2.719,3.108-1.627,0-2.719-1.261-2.719-3.15s1.092-3.15,2.709-3.15Z"/>
  <path class="cls-21" d="m45.607,76.833c-2.195,0-3.686,1.617-3.686,4.011s1.491,4.011,3.696,4.011c.924,0,1.754-.283,2.373-.809.83-.703,1.323-1.89,1.323-3.139,0-2.468-1.46-4.074-3.706-4.074Zm0,.86c1.658,0,2.729,1.261,2.729,3.192,0,1.848-1.102,3.108-2.719,3.108-1.627,0-2.719-1.261-2.719-3.15s1.092-3.15,2.709-3.15Z"/>
  <path class="cls-20" d="m29.772,76.264h-.6v-8.4h.6v8.4Z"/>
  <path class="cls-3" d="m49.372,23.163h5.25"/>
  <path class="cls-3" d="m48.872,77.863h5.25"/>
  <path class="cls-28" d="m400.162,341.039c-.305-1.681-1.27-2.499-2.95-2.499-1.029,0-1.859.325-2.426.955-.693.756-1.071,1.849-1.071,3.087,0,1.261.389,2.342,1.113,3.087.588.609,1.344.893,2.342.893,1.868,0,2.919-1.008,3.149-3.034h-1.007c-.084.525-.19.882-.347,1.187-.315.63-.966.987-1.785.987-1.523,0-2.489-1.219-2.489-3.129,0-1.964.924-3.172,2.405-3.172.62,0,1.197.189,1.512.483.284.263.441.588.556,1.155h.998Z"/>
  <path class="cls-21" d="m404.796,338.539c-2.195,0-3.686,1.617-3.686,4.011s1.491,4.011,3.696,4.011c.924,0,1.754-.283,2.373-.809.83-.703,1.323-1.89,1.323-3.139,0-2.468-1.46-4.074-3.706-4.074Zm0,.86c1.658,0,2.729,1.261,2.729,3.192,0,1.848-1.102,3.108-2.719,3.108-1.627,0-2.719-1.261-2.719-3.15s1.092-3.15,2.709-3.15Z"/>
  <path class="cls-25" d="m413.046,338.539c-2.195,0-3.686,1.617-3.686,4.011s1.491,4.011,3.696,4.011c.924,0,1.754-.283,2.373-.809.83-.703,1.323-1.89,1.323-3.139,0-2.468-1.46-4.074-3.706-4.074Zm0,.86c1.658,0,2.729,1.261,2.729,3.192,0,1.848-1.102,3.108-2.719,3.108-1.627,0-2.719-1.261-2.719-3.15s1.092-3.15,2.709-3.15Z"/>
  <path class="cls-21" d="m400.162,358.789c-.305-1.681-1.27-2.499-2.95-2.499-1.029,0-1.859.325-2.426.955-.693.756-1.071,1.849-1.071,3.087,0,1.261.389,2.342,1.113,3.087.588.609,1.344.893,2.342.893,1.868,0,2.919-1.008,3.149-3.034h-1.007c-.084.525-.19.882-.347,1.187-.315.63-.966.987-1.785.987-1.523,0-2.489-1.219-2.489-3.129,0-1.964.924-3.172,2.405-3.172.62,0,1.197.189,1.512.483.284.263.441.588.556,1.155h.998Z"/>
  <path class="cls-20" d="m397.211,355.669h-.6v-8.449h.6v8.449Z"/>
  <path class="cls-21" d="m400.162,376.789c-.305-1.681-1.27-2.499-2.95-2.499-1.029,0-1.859.325-2.426.955-.693.756-1.071,1.849-1.071,3.087,0,1.261.389,2.342,1.113,3.087.588.609,1.344.893,2.342.893,1.868,0,2.919-1.008,3.149-3.034h-1.007c-.084.525-.19.882-.347,1.187-.315.63-.966.987-1.785.987-1.523,0-2.489-1.219-2.489-3.129,0-1.964.924-3.172,2.405-3.172.62,0,1.197.189,1.512.483.284.263.441.588.556,1.155h.998Z"/>
  <path class="cls-21" d="m406.496,378.583v3.486h.977v-7.654h-.977v3.308h-3.937v-3.308h-.977v7.654h.987v-3.486h3.927Z"/>
  <path class="cls-21" d="m412.195,383.384h-2.936c.07-.456.322-.748,1.008-1.15l.787-.425c.779-.426,1.181-1,1.181-1.686,0-.465-.189-.897-.52-1.197-.33-.299-.74-.44-1.268-.44-.709,0-1.236.252-1.543.725-.197.299-.284.646-.299,1.212h.693c.023-.378.07-.606.165-.787.182-.339.544-.543.961-.543.63,0,1.102.448,1.102,1.047,0,.441-.259.819-.755,1.103l-.725.409c-1.166.662-1.504,1.189-1.567,2.418h3.716v-.686Z"/>
  <path class="cls-20" d="m397.211,373.62h-.6v-8.55h.6v8.55Z"/>
  <path class="cls-21" d="m414.796,356.289c-2.195,0-3.686,1.617-3.686,4.011s1.491,4.011,3.696,4.011c.924,0,1.754-.283,2.373-.809.83-.703,1.323-1.89,1.323-3.139,0-2.468-1.46-4.074-3.706-4.074Zm0,.86c1.658,0,2.729,1.261,2.729,3.192,0,1.848-1.102,3.108-2.719,3.108-1.627,0-2.719-1.261-2.719-3.15s1.092-3.15,2.709-3.15Z"/>
  <path class="cls-20" d="m410.261,358.12v.601h-9v-.601h9Z"/>
  <path class="cls-20" d="m410.261,361.32v.6h-9v-.6h9Z"/>
  <path class="cls-21" d="m400.162,394.539c-.305-1.681-1.27-2.499-2.95-2.499-1.029,0-1.859.325-2.426.955-.693.756-1.071,1.849-1.071,3.087,0,1.261.389,2.342,1.113,3.087.588.609,1.344.893,2.342.893,1.868,0,2.919-1.008,3.149-3.034h-1.007c-.084.525-.19.882-.347,1.187-.315.63-.966.987-1.785.987-1.523,0-2.489-1.219-2.489-3.129,0-1.964.924-3.172,2.405-3.172.62,0,1.197.189,1.512.483.284.263.441.588.556,1.155h.998Z"/>
  <path class="cls-21" d="m404.796,392.039c-2.195,0-3.686,1.617-3.686,4.011s1.491,4.011,3.696,4.011c.924,0,1.754-.283,2.373-.809.83-.703,1.323-1.89,1.323-3.139,0-2.468-1.46-4.074-3.706-4.074Zm0,.86c1.658,0,2.729,1.261,2.729,3.192,0,1.848-1.102,3.108-2.719,3.108-1.627,0-2.719-1.261-2.719-3.15s1.092-3.15,2.709-3.15Z"/>
  <path class="cls-21" d="m413.046,392.039c-2.195,0-3.686,1.617-3.686,4.011s1.491,4.011,3.696,4.011c.924,0,1.754-.283,2.373-.809.83-.703,1.323-1.89,1.323-3.139,0-2.468-1.46-4.074-3.706-4.074Zm0,.86c1.658,0,2.729,1.261,2.729,3.192,0,1.848-1.102,3.108-2.719,3.108-1.627,0-2.719-1.261-2.719-3.15s1.092-3.15,2.709-3.15Z"/>
  <path class="cls-20" d="m397.211,391.47h-.6v-8.4h.6v8.4Z"/>
  <path class="cls-3" d="m416.811,338.37h5.25"/>
  <path class="cls-3" d="m416.311,393.07h5.25"/>
  <path class="cls-21" d="m242.423,60.954c-.305-1.681-1.27-2.499-2.95-2.499-1.029,0-1.859.325-2.426.955-.693.756-1.071,1.849-1.071,3.087,0,1.261.389,2.342,1.113,3.087.588.609,1.344.893,2.342.893,1.868,0,2.919-1.008,3.149-3.034h-1.007c-.084.525-.19.882-.347,1.187-.315.63-.966.987-1.785.987-1.523,0-2.489-1.219-2.489-3.129,0-1.964.924-3.172,2.405-3.172.62,0,1.197.189,1.512.483.284.263.441.588.556,1.155h.998Z"/>
  <path class="cls-20" d="m239.472,57.834h-.6v-8.449h.6v8.449Z"/>
  <path class="cls-21" d="m242.423,78.954c-.305-1.681-1.27-2.499-2.95-2.499-1.029,0-1.859.325-2.426.955-.693.756-1.071,1.849-1.071,3.087,0,1.261.389,2.342,1.113,3.087.588.609,1.344.893,2.342.893,1.868,0,2.919-1.008,3.149-3.034h-1.007c-.084.525-.19.882-.347,1.187-.315.63-.966.987-1.785.987-1.523,0-2.489-1.219-2.489-3.129,0-1.964.924-3.172,2.405-3.172.62,0,1.197.189,1.512.483.284.263.441.588.556,1.155h.998Z"/>
  <path class="cls-21" d="m248.757,80.749v3.486h.977v-7.654h-.977v3.308h-3.937v-3.308h-.977v7.654h.987v-3.486h3.927Z"/>
  <path class="cls-21" d="m254.456,85.549h-2.936c.07-.456.322-.748,1.008-1.15l.787-.425c.779-.426,1.181-1,1.181-1.686,0-.465-.189-.897-.52-1.197-.33-.299-.74-.44-1.268-.44-.709,0-1.236.252-1.543.725-.197.299-.284.646-.299,1.212h.693c.023-.378.07-.606.165-.787.182-.339.544-.543.961-.543.63,0,1.102.448,1.102,1.047,0,.441-.259.819-.755,1.103l-.725.409c-1.166.662-1.504,1.189-1.567,2.418h3.716v-.686Z"/>
  <path class="cls-20" d="m239.472,75.785h-.6v-8.55h.6v8.55Z"/>
  <path class="cls-21" d="m219.104,59.161c-2.195,0-3.686,1.617-3.686,4.011s1.491,4.011,3.696,4.011c.924,0,1.754-.283,2.373-.809.83-.703,1.323-1.89,1.323-3.139,0-2.468-1.46-4.074-3.706-4.074Zm0,.86c1.658,0,2.729,1.261,2.729,3.192,0,1.848-1.102,3.108-2.719,3.108-1.627,0-2.719-1.261-2.719-3.15s1.092-3.15,2.709-3.15Z"/>
  <path class="cls-20" d="m252.522,62.572v.6h-9v-.6h9Z"/>
  <path class="cls-20" d="m233.168,62.872v.6h-9v-.6h9Z"/>
  <path class="cls-21" d="m242.423,96.704c-.305-1.681-1.27-2.499-2.95-2.499-1.029,0-1.859.325-2.426.955-.693.756-1.071,1.849-1.071,3.087,0,1.261.389,2.342,1.113,3.087.588.609,1.344.893,2.342.893,1.868,0,2.919-1.008,3.149-3.034h-1.007c-.084.525-.19.882-.347,1.187-.315.63-.966.987-1.785.987-1.523,0-2.489-1.219-2.489-3.129,0-1.964.924-3.172,2.405-3.172.62,0,1.197.189,1.512.483.284.263.441.588.556,1.155h.998Z"/>
  <path class="cls-21" d="m247.057,94.205c-2.195,0-3.686,1.617-3.686,4.011s1.491,4.011,3.696,4.011c.924,0,1.754-.283,2.373-.809.83-.703,1.323-1.89,1.323-3.139,0-2.468-1.46-4.074-3.706-4.074Zm0,.86c1.658,0,2.729,1.261,2.729,3.192,0,1.848-1.102,3.108-2.719,3.108-1.627,0-2.719-1.261-2.719-3.15s1.092-3.15,2.709-3.15Z"/>
  <path class="cls-21" d="m255.307,94.205c-2.195,0-3.686,1.617-3.686,4.011s1.491,4.011,3.696,4.011c.924,0,1.754-.283,2.373-.809.83-.703,1.323-1.89,1.323-3.139,0-2.468-1.46-4.074-3.706-4.074Zm0,.86c1.658,0,2.729,1.261,2.729,3.192,0,1.848-1.102,3.108-2.719,3.108-1.627,0-2.719-1.261-2.719-3.15s1.092-3.15,2.709-3.15Z"/>
  <path class="cls-20" d="m239.472,93.635h-.6v-8.4h.6v8.4Z"/>
  <path class="cls-28" d="m259.911,61.039c-.305-1.681-1.27-2.499-2.95-2.499-1.029,0-1.859.325-2.426.955-.693.756-1.071,1.849-1.071,3.087,0,1.261.389,2.342,1.113,3.087.588.609,1.344.893,2.342.893,1.868,0,2.919-1.008,3.149-3.034h-1.007c-.084.525-.19.882-.347,1.187-.315.63-.966.987-1.785.987-1.523,0-2.489-1.219-2.489-3.129,0-1.964.924-3.172,2.405-3.172.62,0,1.197.189,1.512.483.284.263.441.588.556,1.155h.998Z"/>
  <path class="cls-21" d="m264.545,58.54c-2.195,0-3.686,1.617-3.686,4.011s1.491,4.011,3.696,4.011c.924,0,1.754-.283,2.373-.809.83-.703,1.323-1.89,1.323-3.139,0-2.468-1.46-4.074-3.706-4.074Zm0,.86c1.658,0,2.729,1.261,2.729,3.192,0,1.848-1.102,3.108-2.719,3.108-1.627,0-2.719-1.261-2.719-3.15s1.092-3.15,2.709-3.15Z"/>
  <path class="cls-25" d="m272.795,58.54c-2.195,0-3.686,1.617-3.686,4.011s1.491,4.011,3.696,4.011c.924,0,1.754-.283,2.373-.809.83-.703,1.323-1.89,1.323-3.139,0-2.468-1.46-4.074-3.706-4.074Zm0,.86c1.658,0,2.729,1.261,2.729,3.192,0,1.848-1.102,3.108-2.719,3.108-1.627,0-2.719-1.261-2.719-3.15s1.092-3.15,2.709-3.15Z"/>
  <path class="cls-1" d="m276.56,58.37h5.25"/>
  <path class="cls-1" d="m258.572,95.235h5.25"/>
  <path class="cls-27" d="m301.409,361.233c-.305-1.681-1.27-2.499-2.95-2.499-1.029,0-1.859.325-2.426.955-.693.756-1.071,1.848-1.071,3.087,0,1.26.389,2.342,1.113,3.087.588.609,1.344.892,2.342.892,1.868,0,2.919-1.008,3.149-3.034h-1.007c-.084.525-.19.882-.347,1.187-.315.629-.966.987-1.785.987-1.523,0-2.489-1.219-2.489-3.129,0-1.964.924-3.172,2.405-3.172.62,0,1.197.19,1.512.483.284.263.441.588.556,1.156h.998Z"/>
  <path class="cls-27" d="m307.743,363.028v3.486h.977v-7.654h-.977v3.307h-3.937v-3.307h-.977v7.654h.987v-3.486h3.927Z"/>
  <path class="cls-27" d="m313.442,367.828h-2.936c.07-.456.322-.748,1.008-1.149l.787-.425c.779-.426,1.181-1,1.181-1.685,0-.465-.189-.898-.52-1.198-.33-.298-.74-.44-1.268-.44-.709,0-1.236.252-1.543.725-.197.298-.284.645-.299,1.212h.693c.023-.378.07-.607.165-.788.182-.338.544-.543.961-.543.63,0,1.102.449,1.102,1.047,0,.442-.259.82-.755,1.103l-.725.409c-1.166.662-1.504,1.189-1.567,2.418h3.716v-.686Z"/>
  <path class="cls-27" d="m301.409,379.233c-.305-1.681-1.27-2.499-2.95-2.499-1.029,0-1.859.325-2.426.955-.693.756-1.071,1.848-1.071,3.087,0,1.26.389,2.342,1.113,3.087.588.609,1.344.892,2.342.892,1.868,0,2.919-1.008,3.149-3.034h-1.007c-.084.525-.19.882-.347,1.187-.315.629-.966.987-1.785.987-1.523,0-2.489-1.219-2.489-3.129,0-1.964.924-3.172,2.405-3.172.62,0,1.197.19,1.512.483.284.263.441.588.556,1.156h.998Z"/>
  <path class="cls-27" d="m307.743,381.028v3.486h.977v-7.654h-.977v3.307h-3.937v-3.307h-.977v7.654h.987v-3.486h3.927Z"/>
  <path class="cls-27" d="m313.442,385.578h-2.936c.07-.456.322-.748,1.008-1.149l.787-.425c.779-.426,1.181-1,1.181-1.685,0-.465-.189-.898-.52-1.198-.33-.298-.74-.44-1.268-.44-.709,0-1.236.252-1.543.725-.197.298-.284.645-.299,1.212h.693c.023-.378.07-.607.165-.788.182-.338.544-.543.961-.543.63,0,1.102.449,1.102,1.047,0,.442-.259.82-.755,1.103l-.725.409c-1.166.662-1.504,1.189-1.567,2.418h3.716v-.686Z"/>
  <path class="cls-30" d="m298.408,376.014h-.6v-8.4h.6v8.4Z"/>
  <path class="cls-27" d="m301.409,396.983c-.305-1.681-1.27-2.499-2.95-2.499-1.029,0-1.859.325-2.426.955-.693.756-1.071,1.848-1.071,3.087,0,1.26.389,2.342,1.113,3.087.588.609,1.344.892,2.342.892,1.868,0,2.919-1.008,3.149-3.034h-1.007c-.084.525-.19.882-.347,1.187-.315.629-.966.987-1.785.987-1.523,0-2.489-1.219-2.489-3.129,0-1.964.924-3.172,2.405-3.172.62,0,1.197.19,1.512.483.284.263.441.588.556,1.156h.998Z"/>
  <path class="cls-27" d="m306.043,394.484c-2.195,0-3.686,1.617-3.686,4.01s1.491,4.011,3.696,4.011c.924,0,1.754-.283,2.373-.808.83-.704,1.323-1.89,1.323-3.139,0-2.468-1.46-4.074-3.706-4.074Zm0,.86c1.658,0,2.729,1.261,2.729,3.192,0,1.848-1.102,3.109-2.719,3.109-1.627,0-2.719-1.261-2.719-3.151s1.092-3.15,2.709-3.15Z"/>
  <path class="cls-27" d="m314.293,394.484c-2.195,0-3.686,1.617-3.686,4.01s1.491,4.011,3.696,4.011c.924,0,1.754-.283,2.373-.808.83-.704,1.323-1.89,1.323-3.139,0-2.468-1.46-4.074-3.706-4.074Zm0,.86c1.658,0,2.729,1.261,2.729,3.192,0,1.848-1.102,3.109-2.719,3.109-1.627,0-2.719-1.261-2.719-3.151s1.092-3.15,2.709-3.15Z"/>
  <path class="cls-30" d="m298.408,393.864h-.6v-8.4h.6v8.4Z"/>
  <path class="cls-28" d="m301.409,343.483c-.305-1.681-1.27-2.499-2.95-2.499-1.029,0-1.859.325-2.426.955-.693.756-1.071,1.848-1.071,3.087,0,1.26.389,2.342,1.113,3.087.588.609,1.344.892,2.342.892,1.868,0,2.919-1.008,3.149-3.034h-1.007c-.084.525-.19.882-.347,1.187-.315.629-.966.987-1.785.987-1.523,0-2.489-1.219-2.489-3.129,0-1.964.924-3.172,2.405-3.172.62,0,1.197.19,1.512.483.284.263.441.588.556,1.156h.998Z"/>
  <path class="cls-27" d="m306.043,340.984c-2.195,0-3.686,1.617-3.686,4.01s1.491,4.011,3.696,4.011c.924,0,1.754-.283,2.373-.808.83-.704,1.323-1.89,1.323-3.139,0-2.468-1.46-4.074-3.706-4.074Zm0,.86c1.658,0,2.729,1.261,2.729,3.192,0,1.848-1.102,3.109-2.719,3.109-1.627,0-2.719-1.261-2.719-3.151s1.092-3.15,2.709-3.15Z"/>
  <path class="cls-25" d="m314.293,340.984c-2.195,0-3.686,1.617-3.686,4.01s1.491,4.011,3.696,4.011c.924,0,1.754-.283,2.373-.808.83-.704,1.323-1.89,1.323-3.139,0-2.468-1.46-4.074-3.706-4.074Zm0,.86c1.658,0,2.729,1.261,2.729,3.192,0,1.848-1.102,3.109-2.719,3.109-1.627,0-2.719-1.261-2.719-3.151s1.092-3.15,2.709-3.15Z"/>
  <path class="cls-30" d="m297.808,349.664h.6v8.5h-.6v-8.5Z"/>
  <path class="cls-6" d="m317.958,341.514h5.25"/>
  <path class="cls-6" d="m317.958,395.514h5.25"/>
  <path class="cls-30" d="m112.042,54.325l.52-.3,4.225,7.318-.52.3-4.225-7.318Z"/>
  <path class="cls-29" d="m131.778,65.132l.015.626-8.782-.011.01-.583,8.757-.032Z"/>
  <path class="cls-29" d="m131.778,63.172l.015.626-8.782-.011.01-.583,8.757-.032Z"/>
  <path class="cls-30" d="m112.513,77.063l-.535-.327,4.364-7.542.51.283-4.338,7.586Z"/>
  <path class="cls-30" d="m96.299,50.281l-.015-.626,8.739.036-.01.583-8.714.007Z"/>
  <g>
    <path class="cls-25" d="m270.068,175.779v3.486s.987,0,.987,0v-7.654s-.977,0-.977,0v3.308h-3.937v-3.308s-.977,0-.977,0v7.654s.977,0,.977,0v-3.486h3.927Z"/>
    <path class="cls-25" d="m256.635,175.559c0,1.249.493,2.436,1.323,3.139.619.525,1.449.809,2.373.809,2.205,0,3.696-1.617,3.696-4.011,0-2.394-1.491-4.011-3.686-4.011-2.246,0-3.706,1.607-3.706,4.074Zm6.415-.063c0,1.89-1.092,3.15-2.719,3.15-1.617,0-2.719-1.261-2.719-3.108,0-1.932,1.071-3.192,2.729-3.192,1.617,0,2.709,1.261,2.709,3.15Z"/>
  </g>
  <path class="cls-28" d="m243.671,173.684c-.305-1.681-1.27-2.499-2.95-2.499-1.029,0-1.859.325-2.426.955-.693.756-1.071,1.849-1.071,3.087,0,1.261.389,2.342,1.113,3.087.588.609,1.344.893,2.342.893,1.868,0,2.919-1.008,3.149-3.034h-1.007c-.084.525-.19.882-.347,1.187-.315.63-.966.987-1.785.987-1.523,0-2.489-1.219-2.489-3.129,0-1.964.924-3.172,2.405-3.172.62,0,1.197.189,1.512.483.284.263.441.588.556,1.155h.998Z"/>
  <path class="cls-25" d="m261.253,192.806v3.486h.977v-7.654h-.977v3.308h-3.937v-3.308h-.977v7.654h.987v-3.486h3.927Z"/>
  <path class="cls-27" d="m223.017,176.136v3.486h.977v-7.654h-.977v3.308h-3.937v-3.308h-.977v7.654h.987v-3.486h3.927Z"/>
  <path class="cls-27" d="m243.671,191.684c-.305-1.681-1.27-2.499-2.95-2.499-1.029,0-1.859.325-2.426.955-.693.756-1.071,1.849-1.071,3.087,0,1.261.389,2.342,1.113,3.087.588.609,1.344.893,2.342.893,1.868,0,2.919-1.008,3.149-3.034h-1.007c-.084.525-.19.882-.347,1.187-.315.63-.966.987-1.785.987-1.523,0-2.489-1.219-2.489-3.129,0-1.964.924-3.172,2.405-3.172.62,0,1.197.189,1.512.483.284.263.441.588.556,1.155h.998Z"/>
  <path class="cls-30" d="m240.87,188.415h-.6v-8.351h.6v8.351Z"/>
  <path class="cls-27" d="m243.671,209.434c-.305-1.681-1.27-2.499-2.95-2.499-1.029,0-1.859.325-2.426.955-.693.756-1.071,1.849-1.071,3.087,0,1.261.389,2.342,1.113,3.087.588.609,1.344.893,2.342.893,1.868,0,2.919-1.008,3.149-3.034h-1.007c-.084.525-.19.882-.347,1.187-.315.63-.966.987-1.785.987-1.523,0-2.489-1.219-2.489-3.129,0-1.964.924-3.172,2.405-3.172.62,0,1.197.189,1.512.483.284.263.441.588.556,1.155h.998Z"/>
  <path class="cls-27" d="m250.255,211.229v3.486h.977v-7.654h-.977v3.308h-3.937v-3.308h-.977v7.654h.987v-3.486h3.927Z"/>
  <path class="cls-27" d="m255.954,216.03h-2.936c.07-.456.322-.748,1.008-1.15l.787-.425c.779-.426,1.181-1,1.181-1.686,0-.465-.189-.897-.52-1.197-.33-.299-.74-.44-1.268-.44-.709,0-1.236.252-1.543.725-.197.299-.284.646-.299,1.212h.693c.023-.378.07-.606.165-.787.182-.339.544-.543.961-.543.63,0,1.102.448,1.102,1.047,0,.441-.259.819-.755,1.103l-.725.409c-1.166.662-1.504,1.189-1.567,2.418h3.716v-.686Z"/>
  <path class="cls-30" d="m240.87,206.315h-.6v-8.5h.6v8.5Z"/>
  <path class="cls-30" d="m254.27,192.465v.6h-9.35v-.6h9.35Z"/>
  <path class="cls-30" d="m254.27,174.896v.6h-9.35v-.6h9.35Z"/>
  <path class="cls-30" d="m227.32,193.065v-.6h9.15v.6h-9.15Z"/>
  <path class="cls-30" d="m227.32,175.795v-.6h9.15v.6h-9.15Z"/>
  <path class="cls-28" d="m243.671,155.934c-.305-1.681-1.27-2.499-2.95-2.499-1.029,0-1.859.325-2.426.955-.693.756-1.071,1.849-1.071,3.087,0,1.261.389,2.342,1.113,3.087.588.609,1.344.893,2.342.893,1.868,0,2.919-1.008,3.149-3.034h-1.007c-.084.525-.19.882-.347,1.187-.315.63-.966.987-1.785.987-1.523,0-2.489-1.219-2.489-3.129,0-1.964.924-3.172,2.405-3.172.62,0,1.197.189,1.512.483.284.263.441.588.556,1.155h.998Z"/>
  <path class="cls-28" d="m248.555,153.435c-2.195,0-3.686,1.617-3.686,4.011s1.491,4.011,3.696,4.011c.924,0,1.754-.283,2.373-.809.83-.703,1.323-1.89,1.323-3.139,0-2.468-1.46-4.074-3.706-4.074Zm0,.86c1.658,0,2.729,1.261,2.729,3.192,0,1.848-1.102,3.108-2.719,3.108-1.627,0-2.719-1.261-2.719-3.15s1.092-3.15,2.709-3.15Z"/>
  <path class="cls-25" d="m256.555,153.435c-2.195,0-3.686,1.617-3.686,4.011s1.491,4.011,3.696,4.011c.924,0,1.754-.283,2.373-.809.83-.703,1.323-1.89,1.323-3.139,0-2.468-1.46-4.074-3.706-4.074Zm0,.86c1.658,0,2.729,1.261,2.729,3.192,0,1.848-1.102,3.108-2.719,3.108-1.627,0-2.719-1.261-2.719-3.15s1.092-3.15,2.709-3.15Z"/>
  <path class="cls-30" d="m240.27,162.115h.6v8.5h-.6v-8.5Z"/>
  <path class="cls-27" d="m243.671,227.434c-.305-1.681-1.27-2.499-2.95-2.499-1.029,0-1.859.325-2.426.955-.693.756-1.071,1.849-1.071,3.087,0,1.261.389,2.342,1.113,3.087.588.609,1.344.893,2.342.893,1.868,0,2.919-1.008,3.149-3.034h-1.007c-.084.525-.19.882-.347,1.187-.315.63-.966.987-1.785.987-1.523,0-2.489-1.219-2.489-3.129,0-1.964.924-3.172,2.405-3.172.62,0,1.197.189,1.512.483.284.263.441.588.556,1.155h.998Z"/>
  <path class="cls-27" d="m248.555,224.935c-2.195,0-3.686,1.617-3.686,4.011s1.491,4.011,3.696,4.011c.924,0,1.754-.283,2.373-.809.83-.703,1.323-1.89,1.323-3.139,0-2.468-1.46-4.074-3.706-4.074Zm0,.86c1.658,0,2.729,1.261,2.729,3.192,0,1.848-1.102,3.108-2.719,3.108-1.627,0-2.719-1.261-2.719-3.15s1.092-3.15,2.709-3.15Z"/>
  <path class="cls-27" d="m256.555,224.935c-2.195,0-3.686,1.617-3.686,4.011s1.491,4.011,3.696,4.011c.924,0,1.754-.283,2.373-.809.83-.703,1.323-1.89,1.323-3.139,0-2.468-1.46-4.074-3.706-4.074Zm0,.86c1.658,0,2.729,1.261,2.729,3.192,0,1.848-1.102,3.108-2.719,3.108-1.627,0-2.719-1.261-2.719-3.15s1.092-3.15,2.709-3.15Z"/>
  <path class="cls-30" d="m240.87,224.215h-.6v-8.45h.6v8.45Z"/>
  <path class="cls-28" d="m224.193,191.684c-.305-1.681-1.27-2.499-2.95-2.499-1.029,0-1.859.325-2.426.955-.693.756-1.071,1.849-1.071,3.087,0,1.261.389,2.342,1.113,3.087.588.609,1.344.893,2.342.893,1.868,0,2.919-1.008,3.149-3.034h-1.007c-.084.525-.19.882-.347,1.187-.315.63-.966.987-1.785.987-1.523,0-2.489-1.219-2.489-3.129,0-1.964.924-3.172,2.405-3.172.62,0,1.197.189,1.512.483.284.263.441.588.556,1.155h.998Z"/>
  <path class="cls-27" d="m212.769,189.185c-2.195,0-3.686,1.617-3.686,4.011s1.491,4.011,3.696,4.011c.924,0,1.754-.283,2.373-.809.83-.703,1.323-1.89,1.323-3.139,0-2.468-1.46-4.074-3.706-4.074Zm0,.86c1.658,0,2.729,1.261,2.729,3.192,0,1.848-1.102,3.108-2.719,3.108-1.627,0-2.719-1.261-2.719-3.15s1.092-3.15,2.709-3.15Z"/>
  <path class="cls-25" d="m204.5,189.185c-2.195,0-3.686,1.617-3.686,4.011s1.491,4.011,3.696,4.011c.924,0,1.754-.283,2.373-.809.83-.703,1.323-1.89,1.323-3.139,0-2.468-1.46-4.074-3.706-4.074Zm0,.86c1.658,0,2.729,1.261,2.729,3.192,0,1.848-1.102,3.108-2.719,3.108-1.627,0-2.719-1.261-2.719-3.15s1.092-3.15,2.709-3.15Z"/>
  <path class="cls-6" d="m195.641,189.965h5.25"/>
  <path class="cls-6" d="m260.22,153.965h5.25"/>
  <path class="cls-6" d="m261.22,225.965h5.25"/>
  <path class="cls-27" d="m397.491,194.658c-.115.567-.272.893-.556,1.155-.315.294-.892.483-1.512.483-1.481,0-2.405-1.208-2.405-3.172,0-1.91.966-3.129,2.489-3.129.819,0,1.47.358,1.785.987.157.305.263.661.347,1.187h1.007c-.23-2.026-1.281-3.034-3.149-3.034-.998,0-1.754.283-2.342.893-.724.745-1.113,1.826-1.113,3.087,0,1.238.378,2.331,1.071,3.087.567.63,1.397.955,2.426.955,1.68,0,2.645-.818,2.95-2.499h-.998Z"/>
  <path class="cls-28" d="m397.491,176.658c-.115.567-.272.893-.556,1.155-.315.294-.892.483-1.512.483-1.481,0-2.405-1.208-2.405-3.172,0-1.91.966-3.129,2.489-3.129.819,0,1.47.358,1.785.987.157.305.263.661.347,1.187h1.007c-.23-2.026-1.281-3.034-3.149-3.034-.998,0-1.754.283-2.342.893-.724.745-1.113,1.826-1.113,3.087,0,1.238.378,2.331,1.071,3.087.567.63,1.397.955,2.426.955,1.68,0,2.645-.818,2.95-2.499h-.998Z"/>
  <path class="cls-30" d="m393.45,179.877h.6v8.45h-.6v-8.45Z"/>
  <path class="cls-30" d="m396.65,179.877h.6v8.45h-.6v-8.45Z"/>
  <path class="cls-27" d="m416.392,201.613v-3.486s-.977,0-.977,0v7.654s.977,0,.977,0v-3.308h3.937v3.308s.977,0,.977,0v-7.654s-.987,0-.987,0v3.486h-3.927Z"/>
  <path class="cls-27" d="m426.579,208.098h-2.936c.07-.456.322-.748,1.008-1.15l.787-.425c.779-.426,1.181-1,1.181-1.686,0-.465-.189-.897-.52-1.197-.33-.299-.74-.44-1.268-.44-.709,0-1.236.252-1.543.725-.197.299-.284.646-.299,1.212h.693c.023-.378.07-.606.165-.787.182-.339.544-.543.961-.543.63,0,1.102.448,1.102,1.047,0,.441-.259.819-.755,1.103l-.725.409c-1.166.662-1.504,1.189-1.567,2.418h3.716s0-.686,0-.686Z"/>
  <path class="cls-27" d="m412.741,203.408c-.115.567-.272.893-.556,1.155-.315.294-.892.483-1.512.483-1.481,0-2.405-1.208-2.405-3.172,0-1.91.966-3.129,2.489-3.129.819,0,1.47.358,1.785.987.157.305.263.661.347,1.187h1.007c-.23-2.026-1.281-3.034-3.149-3.034-.998,0-1.754.283-2.342.893-.724.745-1.113,1.826-1.113,3.087,0,1.238.378,2.331,1.071,3.087.567.63,1.397.955,2.426.955,1.68,0,2.645-.818,2.95-2.499h-.998Z"/>
  <path class="cls-30" d="m406.7,199.577l-.3.55-7.6-4.4.3-.5,7.6,4.351Z"/>
  <path class="cls-28" d="m381.991,203.408c-.115.567-.272.893-.556,1.155-.315.294-.892.483-1.512.483-1.481,0-2.405-1.208-2.405-3.172,0-1.91.966-3.129,2.489-3.129.819,0,1.47.358,1.785.987.157.305.263.661.347,1.187h1.007c-.23-2.026-1.281-3.034-3.149-3.034-.998,0-1.754.283-2.342.893-.724.745-1.113,1.826-1.113,3.087,0,1.238.378,2.331,1.071,3.087.567.63,1.397.955,2.426.955,1.68,0,2.645-.818,2.95-2.499h-.998Z"/>
  <path class="cls-27" d="m372.065,205.907c2.195,0,3.686-1.617,3.686-4.011,0-2.394-1.491-4.011-3.696-4.011-.924,0-1.754.283-2.373.809-.83.703-1.323,1.89-1.323,3.139,0,2.468,1.46,4.074,3.706,4.074Zm0-.86c-1.658,0-2.729-1.261-2.729-3.192,0-1.848,1.102-3.108,2.719-3.108,1.627,0,2.719,1.261,2.719,3.15,0,1.89-1.092,3.15-2.709,3.15Z"/>
  <path class="cls-25" d="m363.815,205.907c2.195,0,3.686-1.617,3.686-4.011,0-2.394-1.491-4.011-3.696-4.011-.924,0-1.754.283-2.373.809-.83.703-1.323,1.89-1.323,3.139,0,2.468,1.46,4.074,3.706,4.074Zm0-.86c-1.658,0-2.729-1.261-2.729-3.192,0-1.848,1.102-3.108,2.719-3.108,1.627,0,2.719,1.261,2.719,3.15,0,1.89-1.092,3.15-2.709,3.15Z"/>
  <path class="cls-30" d="m384.05,200.278l-.3-.551,7.55-4.35.3.5-7.55,4.4Z"/>
  <path class="cls-28" d="m381.991,167.908c-.115.567-.272.893-.556,1.155-.315.294-.892.483-1.512.483-1.481,0-2.405-1.208-2.405-3.172,0-1.91.966-3.129,2.489-3.129.819,0,1.47.358,1.785.987.157.305.263.661.347,1.187h1.007c-.23-2.026-1.281-3.034-3.149-3.034-.998,0-1.754.283-2.342.893-.724.745-1.113,1.826-1.113,3.087,0,1.238.378,2.331,1.071,3.087.567.63,1.397.955,2.426.955,1.68,0,2.645-.818,2.95-2.499h-.998Z"/>
  <path class="cls-28" d="m372.065,170.407c2.195,0,3.686-1.617,3.686-4.011,0-2.394-1.491-4.011-3.696-4.011-.924,0-1.754.283-2.373.809-.83.703-1.323,1.89-1.323,3.139,0,2.468,1.46,4.074,3.706,4.074Zm0-.86c-1.658,0-2.729-1.261-2.729-3.192,0-1.848,1.102-3.108,2.719-3.108,1.627,0,2.719,1.261,2.719,3.15,0,1.89-1.092,3.15-2.709,3.15Z"/>
  <path class="cls-25" d="m363.815,170.407c2.195,0,3.686-1.617,3.686-4.011,0-2.394-1.491-4.011-3.696-4.011-.924,0-1.754.283-2.373.809-.83.703-1.323,1.89-1.323,3.139,0,2.468,1.46,4.074,3.706,4.074Zm0-.86c-1.658,0-2.729-1.261-2.729-3.192,0-1.848,1.102-3.108,2.719-3.108,1.627,0,2.719,1.261,2.719,3.15,0,1.89-1.092,3.15-2.709,3.15Z"/>
  <path class="cls-30" d="m383.4,168.977l.3-.55,7.55,4.4-.3.5-7.55-4.351Z"/>
  <path class="cls-27" d="m408.865,166.113v-3.486s-.977,0-.977,0v7.654s.977,0,.977,0v-3.308h3.937v3.308s.977,0,.977,0v-7.654s-.987,0-.987,0v3.486h-3.927Z"/>
  <path class="cls-28" d="m409.256,41.602v-3.486s-.977,0-.977,0v7.654s.977,0,.977,0v-3.308h3.937v3.308s.977,0,.977,0v-7.654s-.987,0-.987,0v3.486h-3.927Z"/>
  <path class="cls-28" d="m372.462,41.602v-3.486s-.977,0-.977,0v7.654s.977,0,.977,0v-3.308h3.937v3.308s.977,0,.977,0v-7.654s-.987,0-.987,0v3.486h-3.927Z"/>
  <path class="cls-30" d="m406.3,168.877l.3.55-7.1,4.101-.3-.551,7.1-4.1Z"/>
  <path class="cls-27" d="m412.491,221.408c-.115.567-.272.893-.556,1.155-.315.294-.892.483-1.512.483-1.481,0-2.405-1.208-2.405-3.172,0-1.91.966-3.129,2.489-3.129.819,0,1.47.358,1.785.987.157.305.263.661.347,1.187h1.007c-.23-2.026-1.281-3.034-3.149-3.034-.998,0-1.754.283-2.342.893-.724.745-1.113,1.826-1.113,3.087,0,1.238.378,2.331,1.071,3.087.567.63,1.397.955,2.426.955,1.68,0,2.645-.818,2.95-2.499h-.998Z"/>
  <path class="cls-27" d="m426.629,223.907c2.195,0,3.686-1.617,3.686-4.011,0-2.394-1.491-4.011-3.696-4.011-.924,0-1.754.283-2.373.809-.83.703-1.323,1.89-1.323,3.139,0,2.468,1.46,4.074,3.706,4.074Zm0-.86c-1.658,0-2.729-1.261-2.729-3.192,0-1.848,1.102-3.108,2.719-3.108,1.627,0,2.719,1.261,2.719,3.15,0,1.89-1.092,3.15-2.709,3.15Z"/>
  <path class="cls-27" d="m418.294,223.907c2.195,0,3.686-1.617,3.686-4.011,0-2.394-1.491-4.011-3.696-4.011-.924,0-1.754.283-2.373.809-.83.703-1.323,1.89-1.323,3.139,0,2.468,1.46,4.074,3.706,4.074Zm0-.86c-1.658,0-2.729-1.261-2.729-3.192,0-1.848,1.102-3.108,2.719-3.108,1.627,0,2.719,1.261,2.719,3.15,0,1.89-1.092,3.15-2.709,3.15Z"/>
  <path class="cls-30" d="m411.05,215.077h-.6v-8.5h.6v8.5Z"/>
  <path class="cls-6" d="m435.038,217.155h-5.25"/>
  <path class="cls-6" d="m359.4,198.746h-5.25"/>
  <path class="cls-6" d="m359.4,163.246h-5.25"/>
  <g>
    <path class="cls-25" d="m94.365,177.59c0,1.249.493,2.436,1.323,3.139.619.525,1.449.809,2.373.809,2.205,0,3.696-1.617,3.696-4.011,0-2.394-1.491-4.011-3.686-4.011-2.246,0-3.706,1.607-3.706,4.074Zm6.415-.063c0,1.89-1.092,3.15-2.719,3.15-1.617,0-2.719-1.261-2.719-3.108,0-1.932,1.071-3.192,2.729-3.192,1.617,0,2.709,1.261,2.709,3.15Z"/>
    <g>
      <path class="cls-20" d="m92,175.927v.6h-9.35v-.6h9.35Z"/>
      <path class="cls-20" d="m92,177.692v.6h-9.35v-.6h9.35Z"/>
    </g>
  </g>
  <path class="cls-28" d="m81.605,175.715c-.305-1.681-1.27-2.499-2.95-2.499-1.029,0-1.859.325-2.426.955-.693.756-1.071,1.849-1.071,3.087,0,1.261.389,2.342,1.113,3.087.588.609,1.344.893,2.342.893,1.868,0,2.919-1.008,3.149-3.034h-1.007c-.084.525-.19.882-.347,1.187-.315.63-.966.987-1.785.987-1.523,0-2.489-1.219-2.489-3.129,0-1.964.924-3.172,2.405-3.172.62,0,1.197.189,1.512.483.284.263.441.588.556,1.155h.998Z"/>
  <path class="cls-21" d="m99.186,194.837v3.486h.977v-7.654h-.977v3.308h-3.937v-3.308h-.977v7.654h.987v-3.486h3.927Z"/>
  <path class="cls-27" d="m60.95,195.568v3.486h.977v-7.654h-.977v3.308h-3.937v-3.308h-.977v7.654h.987v-3.486h3.927Z"/>
  <path class="cls-27" d="m81.605,193.715c-.305-1.681-1.27-2.499-2.95-2.499-1.029,0-1.859.325-2.426.955-.693.756-1.071,1.849-1.071,3.087,0,1.261.389,2.342,1.113,3.087.588.609,1.344.893,2.342.893,1.868,0,2.919-1.008,3.149-3.034h-1.007c-.084.525-.19.882-.347,1.187-.315.63-.966.987-1.785.987-1.523,0-2.489-1.219-2.489-3.129,0-1.964.924-3.172,2.405-3.172.62,0,1.197.189,1.512.483.284.263.441.588.556,1.155h.998Z"/>
  <path class="cls-30" d="m78.804,190.446h-.6v-8.351h.6v8.351Z"/>
  <path class="cls-27" d="m81.605,211.465c-.305-1.681-1.27-2.499-2.95-2.499-1.029,0-1.859.325-2.426.955-.693.756-1.071,1.849-1.071,3.087,0,1.261.389,2.342,1.113,3.087.588.609,1.344.893,2.342.893,1.868,0,2.919-1.008,3.149-3.034h-1.007c-.084.525-.19.882-.347,1.187-.315.63-.966.987-1.785.987-1.523,0-2.489-1.219-2.489-3.129,0-1.964.924-3.172,2.405-3.172.62,0,1.197.189,1.512.483.284.263.441.588.556,1.155h.998Z"/>
  <path class="cls-27" d="m88.189,213.26v3.486h.977v-7.654h-.977v3.308h-3.937v-3.308h-.977v7.654h.987v-3.486h3.927Z"/>
  <path class="cls-27" d="m93.888,218.061h-2.936c.07-.456.322-.748,1.008-1.15l.787-.425c.779-.426,1.181-1,1.181-1.686,0-.465-.189-.897-.52-1.197-.33-.299-.74-.44-1.268-.44-.709,0-1.236.252-1.543.725-.197.299-.284.646-.299,1.212h.693c.023-.378.07-.606.165-.787.182-.339.544-.543.961-.543.63,0,1.102.448,1.102,1.047,0,.441-.259.819-.755,1.103l-.725.409c-1.166.662-1.504,1.189-1.567,2.418h3.716v-.686Z"/>
  <path class="cls-30" d="m78.804,208.346h-.6v-8.5h.6v8.5Z"/>
  <path class="cls-30" d="m92.204,194.496v.6h-9.35v-.6h9.35Z"/>
  <path class="cls-30" d="m65.254,195.096v-.6h9.15v.6h-9.15Z"/>
  <path class="cls-28" d="m81.605,157.965c-.305-1.681-1.27-2.499-2.95-2.499-1.029,0-1.859.325-2.426.955-.693.756-1.071,1.849-1.071,3.087,0,1.261.389,2.342,1.113,3.087.588.609,1.344.893,2.342.893,1.868,0,2.919-1.008,3.149-3.034h-1.007c-.084.525-.19.882-.347,1.187-.315.63-.966.987-1.785.987-1.523,0-2.489-1.219-2.489-3.129,0-1.964.924-3.172,2.405-3.172.62,0,1.197.189,1.512.483.284.263.441.588.556,1.155h.998Z"/>
  <path class="cls-28" d="m86.489,155.466c-2.195,0-3.686,1.617-3.686,4.011s1.491,4.011,3.696,4.011c.924,0,1.754-.283,2.373-.809.83-.703,1.323-1.89,1.323-3.139,0-2.468-1.46-4.074-3.706-4.074Zm0,.86c1.658,0,2.729,1.261,2.729,3.192,0,1.848-1.102,3.108-2.719,3.108-1.627,0-2.719-1.261-2.719-3.15s1.092-3.15,2.709-3.15Z"/>
  <path class="cls-25" d="m94.489,155.466c-2.195,0-3.686,1.617-3.686,4.011s1.491,4.011,3.696,4.011c.924,0,1.754-.283,2.373-.809.83-.703,1.323-1.89,1.323-3.139,0-2.468-1.46-4.074-3.706-4.074Zm0,.86c1.658,0,2.729,1.261,2.729,3.192,0,1.848-1.102,3.108-2.719,3.108-1.627,0-2.719-1.261-2.719-3.15s1.092-3.15,2.709-3.15Z"/>
  <path class="cls-30" d="m78.204,164.147h.6v8.5h-.6v-8.5Z"/>
  <path class="cls-27" d="m81.605,229.465c-.305-1.681-1.27-2.499-2.95-2.499-1.029,0-1.859.325-2.426.955-.693.756-1.071,1.849-1.071,3.087,0,1.261.389,2.342,1.113,3.087.588.609,1.344.893,2.342.893,1.868,0,2.919-1.008,3.149-3.034h-1.007c-.084.525-.19.882-.347,1.187-.315.63-.966.987-1.785.987-1.523,0-2.489-1.219-2.489-3.129,0-1.964.924-3.172,2.405-3.172.62,0,1.197.189,1.512.483.284.263.441.588.556,1.155h.998Z"/>
  <path class="cls-27" d="m86.489,226.966c-2.195,0-3.686,1.617-3.686,4.011s1.491,4.011,3.696,4.011c.924,0,1.754-.283,2.373-.809.83-.703,1.323-1.89,1.323-3.139,0-2.468-1.46-4.074-3.706-4.074Zm0,.86c1.658,0,2.729,1.261,2.729,3.192,0,1.848-1.102,3.108-2.719,3.108-1.627,0-2.719-1.261-2.719-3.15s1.092-3.15,2.709-3.15Z"/>
  <path class="cls-27" d="m94.489,226.966c-2.195,0-3.686,1.617-3.686,4.011s1.491,4.011,3.696,4.011c.924,0,1.754-.283,2.373-.809.83-.703,1.323-1.89,1.323-3.139,0-2.468-1.46-4.074-3.706-4.074Zm0,.86c1.658,0,2.729,1.261,2.729,3.192,0,1.848-1.102,3.108-2.719,3.108-1.627,0-2.719-1.261-2.719-3.15s1.092-3.15,2.709-3.15Z"/>
  <path class="cls-30" d="m78.804,226.246h-.6v-8.45h.6v8.45Z"/>
  <path class="cls-6" d="m98.154,155.996h5.25"/>
  <path class="cls-6" d="m99.154,227.996h5.25"/>
  <g>
    <path class="cls-25" d="m87.131,354.838c0,1.249.493,2.436,1.323,3.139.619.525,1.449.809,2.373.809,2.205,0,3.696-1.617,3.696-4.011,0-2.394-1.491-4.011-3.686-4.011-2.246,0-3.706,1.607-3.706,4.074Zm6.415-.063c0,1.89-1.092,3.15-2.719,3.15-1.617,0-2.719-1.261-2.719-3.108,0-1.932,1.071-3.192,2.729-3.192,1.617,0,2.709,1.261,2.709,3.15Z"/>
    <g>
      <path class="cls-20" d="m84.766,353.175v.6h-9.35v-.6h9.35Z"/>
      <path class="cls-20" d="m84.766,354.94v.6h-9.35v-.6h9.35Z"/>
    </g>
  </g>
  <path class="cls-28" d="m74.371,352.963c-.305-1.681-1.27-2.499-2.95-2.499-1.029,0-1.859.325-2.426.955-.693.756-1.071,1.849-1.071,3.087,0,1.261.389,2.342,1.113,3.087.588.609,1.344.893,2.342.893,1.868,0,2.919-1.008,3.149-3.034h-1.007c-.084.525-.19.882-.347,1.187-.315.63-.966.987-1.785.987-1.523,0-2.489-1.219-2.489-3.129,0-1.964.924-3.172,2.405-3.172.62,0,1.197.189,1.512.483.284.263.441.588.556,1.155h.998Z"/>
  <path class="cls-21" d="m91.952,372.085v3.486h.977v-7.654h-.977v3.308h-3.937v-3.308h-.977v7.654h.987v-3.486h3.927Z"/>
  <path class="cls-27" d="m368.493,63.213v3.486h.977v-7.654h-.977v3.308h-3.937v-3.308h-.977v7.654h.987v-3.486h3.927Z"/>
  <path class="cls-27" d="m74.371,370.963c-.305-1.681-1.27-2.499-2.95-2.499-1.029,0-1.859.325-2.426.955-.693.756-1.071,1.849-1.071,3.087,0,1.261.389,2.342,1.113,3.087.588.609,1.344.893,2.342.893,1.868,0,2.919-1.008,3.149-3.034h-1.007c-.084.525-.19.882-.347,1.187-.315.63-.966.987-1.785.987-1.523,0-2.489-1.219-2.489-3.129,0-1.964.924-3.172,2.405-3.172.62,0,1.197.189,1.512.483.284.263.441.588.556,1.155h.998Z"/>
  <path class="cls-30" d="m71.57,367.695h-.6v-8.351h.6v8.351Z"/>
  <path class="cls-27" d="m74.371,388.713c-.305-1.681-1.27-2.499-2.95-2.499-1.029,0-1.859.325-2.426.955-.693.756-1.071,1.849-1.071,3.087,0,1.261.389,2.342,1.113,3.087.588.609,1.344.893,2.342.893,1.868,0,2.919-1.008,3.149-3.034h-1.007c-.084.525-.19.882-.347,1.187-.315.63-.966.987-1.785.987-1.523,0-2.489-1.219-2.489-3.129,0-1.964.924-3.172,2.405-3.172.62,0,1.197.189,1.512.483.284.263.441.588.556,1.155h.998Z"/>
  <path class="cls-27" d="m80.955,390.508v3.486h.977v-7.654h-.977v3.308h-3.937v-3.308h-.977v7.654h.987v-3.486h3.927Z"/>
  <path class="cls-27" d="m86.654,395.309h-2.936c.07-.456.322-.748,1.008-1.15l.787-.425c.779-.426,1.181-1,1.181-1.686,0-.465-.189-.897-.52-1.197-.33-.299-.74-.44-1.268-.44-.709,0-1.236.252-1.543.725-.197.299-.284.646-.299,1.212h.693c.023-.378.07-.606.165-.787.182-.339.544-.543.961-.543.63,0,1.102.448,1.102,1.047,0,.441-.259.819-.755,1.103l-.725.409c-1.166.662-1.504,1.189-1.567,2.418h3.716v-.686Z"/>
  <path class="cls-30" d="m71.57,385.594h-.6v-8.5h.6v8.5Z"/>
  <path class="cls-30" d="m84.97,371.745v.6h-9.35v-.6h9.35Z"/>
  <path class="cls-30" d="m58.02,372.344v-.6h9.15v.6h-9.15Z"/>
  <path class="cls-30" d="m70.97,341.395h.6v8.5h-.6v-8.5Z"/>
  <path class="cls-27" d="m74.371,406.713c-.305-1.681-1.27-2.499-2.95-2.499-1.029,0-1.859.325-2.426.955-.693.756-1.071,1.849-1.071,3.087,0,1.261.389,2.342,1.113,3.087.588.609,1.344.893,2.342.893,1.868,0,2.919-1.008,3.149-3.034h-1.007c-.084.525-.19.882-.347,1.187-.315.63-.966.987-1.785.987-1.523,0-2.489-1.219-2.489-3.129,0-1.964.924-3.172,2.405-3.172.62,0,1.197.189,1.512.483.284.263.441.588.556,1.155h.998Z"/>
  <path class="cls-27" d="m79.255,404.214c-2.195,0-3.686,1.617-3.686,4.011s1.491,4.011,3.696,4.011c.924,0,1.754-.283,2.373-.809.83-.703,1.323-1.89,1.323-3.139,0-2.468-1.46-4.074-3.706-4.074Zm0,.86c1.658,0,2.729,1.261,2.729,3.192,0,1.848-1.102,3.108-2.719,3.108-1.627,0-2.719-1.261-2.719-3.15s1.092-3.15,2.709-3.15Z"/>
  <path class="cls-27" d="m87.255,404.214c-2.195,0-3.686,1.617-3.686,4.011s1.491,4.011,3.696,4.011c.924,0,1.754-.283,2.373-.809.83-.703,1.323-1.89,1.323-3.139,0-2.468-1.46-4.074-3.706-4.074Zm0,.86c1.658,0,2.729,1.261,2.729,3.192,0,1.848-1.102,3.108-2.719,3.108-1.627,0-2.719-1.261-2.719-3.15s1.092-3.15,2.709-3.15Z"/>
  <path class="cls-30" d="m71.57,403.495h-.6v-8.45h.6v8.45Z"/>
  <path class="cls-6" d="m91.92,405.245h5.25"/>
  <g>
    <path class="cls-25" d="m216.765,354.838c0,1.249.493,2.436,1.323,3.139.619.525,1.449.809,2.373.809,2.205,0,3.696-1.617,3.696-4.011,0-2.394-1.491-4.011-3.686-4.011-2.246,0-3.706,1.607-3.706,4.074Zm6.415-.063c0,1.89-1.092,3.15-2.719,3.15-1.617,0-2.719-1.261-2.719-3.108,0-1.932,1.071-3.192,2.729-3.192,1.617,0,2.709,1.261,2.709,3.15Z"/>
    <g>
      <path class="cls-20" d="m214.4,353.175v.6h-9.35v-.6h9.35Z"/>
      <path class="cls-20" d="m214.4,354.94v.6h-9.35v-.6h9.35Z"/>
    </g>
  </g>
  <path class="cls-28" d="m204.005,352.963c-.305-1.681-1.27-2.499-2.95-2.499-1.029,0-1.859.325-2.426.955-.693.756-1.071,1.849-1.071,3.087,0,1.261.389,2.342,1.113,3.087.588.609,1.344.893,2.342.893,1.868,0,2.919-1.008,3.149-3.034h-1.007c-.084.525-.19.882-.347,1.187-.315.63-.966.987-1.785.987-1.523,0-2.489-1.219-2.489-3.129,0-1.964.924-3.172,2.405-3.172.62,0,1.197.189,1.512.483.284.263.441.588.556,1.155h.998Z"/>
  <path class="cls-21" d="m221.586,372.085v3.486h.977v-7.654h-.977v3.308h-3.937v-3.308h-.977v7.654h.987v-3.486h3.927Z"/>
  <path class="cls-27" d="m204.005,370.963c-.305-1.681-1.27-2.499-2.95-2.499-1.029,0-1.859.325-2.426.955-.693.756-1.071,1.849-1.071,3.087,0,1.261.389,2.342,1.113,3.087.588.609,1.344.893,2.342.893,1.868,0,2.919-1.008,3.149-3.034h-1.007c-.084.525-.19.882-.347,1.187-.315.63-.966.987-1.785.987-1.523,0-2.489-1.219-2.489-3.129,0-1.964.924-3.172,2.405-3.172.62,0,1.197.189,1.512.483.284.263.441.588.556,1.155h.998Z"/>
  <path class="cls-30" d="m201.204,367.695h-.6v-8.351h.6v8.351Z"/>
  <path class="cls-27" d="m204.005,388.713c-.305-1.681-1.27-2.499-2.95-2.499-1.029,0-1.859.325-2.426.955-.693.756-1.071,1.849-1.071,3.087,0,1.261.389,2.342,1.113,3.087.588.609,1.344.893,2.342.893,1.868,0,2.919-1.008,3.149-3.034h-1.007c-.084.525-.19.882-.347,1.187-.315.63-.966.987-1.785.987-1.523,0-2.489-1.219-2.489-3.129,0-1.964.924-3.172,2.405-3.172.62,0,1.197.189,1.512.483.284.263.441.588.556,1.155h.998Z"/>
  <path class="cls-27" d="m210.589,390.508v3.486h.977v-7.654h-.977v3.308h-3.937v-3.308h-.977v7.654h.987v-3.486h3.927Z"/>
  <path class="cls-27" d="m216.288,395.309h-2.936c.07-.456.322-.748,1.008-1.15l.787-.425c.779-.426,1.181-1,1.181-1.686,0-.465-.189-.897-.52-1.197-.33-.299-.74-.44-1.268-.44-.709,0-1.236.252-1.543.725-.197.299-.284.646-.299,1.212h.693c.023-.378.07-.606.165-.787.182-.339.544-.543.961-.543.63,0,1.102.448,1.102,1.047,0,.441-.259.819-.755,1.103l-.725.409c-1.166.662-1.504,1.189-1.567,2.418h3.716v-.686Z"/>
  <path class="cls-30" d="m201.204,385.594h-.6v-8.5h.6v8.5Z"/>
  <path class="cls-30" d="m214.604,371.745v.6h-9.35v-.6h9.35Z"/>
  <path class="cls-30" d="m187.654,372.344v-.6h9.15v.6h-9.15Z"/>
  <path class="cls-30" d="m200.604,341.395h.6v8.5h-.6v-8.5Z"/>
  <path class="cls-27" d="m204.005,406.713c-.305-1.681-1.27-2.499-2.95-2.499-1.029,0-1.859.325-2.426.955-.693.756-1.071,1.849-1.071,3.087,0,1.261.389,2.342,1.113,3.087.588.609,1.344.893,2.342.893,1.868,0,2.919-1.008,3.149-3.034h-1.007c-.084.525-.19.882-.347,1.187-.315.63-.966.987-1.785.987-1.523,0-2.489-1.219-2.489-3.129,0-1.964.924-3.172,2.405-3.172.62,0,1.197.189,1.512.483.284.263.441.588.556,1.155h.998Z"/>
  <path class="cls-27" d="m208.889,404.214c-2.195,0-3.686,1.617-3.686,4.011s1.491,4.011,3.696,4.011c.924,0,1.754-.283,2.373-.809.83-.703,1.323-1.89,1.323-3.139,0-2.468-1.46-4.074-3.706-4.074Zm0,.86c1.658,0,2.729,1.261,2.729,3.192,0,1.848-1.102,3.108-2.719,3.108-1.627,0-2.719-1.261-2.719-3.15s1.092-3.15,2.709-3.15Z"/>
  <path class="cls-27" d="m216.889,404.214c-2.195,0-3.686,1.617-3.686,4.011s1.491,4.011,3.696,4.011c.924,0,1.754-.283,2.373-.809.83-.703,1.323-1.89,1.323-3.139,0-2.468-1.46-4.074-3.706-4.074Zm0,.86c1.658,0,2.729,1.261,2.729,3.192,0,1.848-1.102,3.108-2.719,3.108-1.627,0-2.719-1.261-2.719-3.15s1.092-3.15,2.709-3.15Z"/>
  <path class="cls-30" d="m201.204,403.495h-.6v-8.45h.6v8.45Z"/>
  <path class="cls-6" d="m221.554,405.245h5.25"/>
  <text class="cls-38" transform="translate(115.415 68.194)"><tspan x="0" y="0">C</tspan></text>
  <text class="cls-38" transform="translate(94.341 85.235)"><tspan x="0" y="0">H</tspan></text>
  <text class="cls-38" transform="translate(101.228 86.398) scale(.583)"><tspan x="0" y="0">3</tspan></text>
  <text class="cls-38" transform="translate(104.828 85.235)"><tspan x="0" y="0">C</tspan></text>
  <text class="cls-38" transform="translate(134.535 68.194)"><tspan x="0" y="0">O</tspan></text>
  <path class="cls-21" d="m397.739,60.954c-.305-1.681-1.27-2.499-2.95-2.499-1.029,0-1.859.325-2.426.955-.693.756-1.071,1.849-1.071,3.087,0,1.261.389,2.342,1.113,3.087.588.609,1.344.893,2.342.893,1.868,0,2.919-1.008,3.149-3.034h-1.007c-.084.525-.19.882-.347,1.187-.315.63-.966.987-1.785.987-1.523,0-2.489-1.219-2.489-3.129,0-1.964.924-3.172,2.405-3.172.62,0,1.197.189,1.512.483.284.263.441.588.556,1.155h.998Z"/>
  <path class="cls-20" d="m394.788,57.834h-.6v-8.449h.6v8.449Z"/>
  <path class="cls-29" d="m395.088,34.704h-.6v-8.449h.6v8.449Z"/>
  <path class="cls-21" d="m397.739,78.954c-.305-1.681-1.27-2.499-2.95-2.499-1.029,0-1.859.325-2.426.955-.693.756-1.071,1.849-1.071,3.087,0,1.261.389,2.342,1.113,3.087.588.609,1.344.893,2.342.893,1.868,0,2.919-1.008,3.149-3.034h-1.007c-.084.525-.19.882-.347,1.187-.315.63-.966.987-1.785.987-1.523,0-2.489-1.219-2.489-3.129,0-1.964.924-3.172,2.405-3.172.62,0,1.197.189,1.512.483.284.263.441.588.556,1.155h.998Z"/>
  <path class="cls-21" d="m404.073,80.749v3.486h.977v-7.654h-.977v3.308h-3.937v-3.308h-.977v7.654h.987v-3.486h3.927Z"/>
  <path class="cls-25" d="m420.692,19.527v3.486h.977v-7.654h-.977v3.308h-3.937v-3.308h-.977v7.654h.987v-3.486h3.927Z"/>
  <path class="cls-21" d="m409.772,85.549h-2.936c.07-.456.322-.748,1.008-1.15l.787-.425c.779-.426,1.181-1,1.181-1.686,0-.465-.189-.897-.52-1.197-.33-.299-.74-.44-1.268-.44-.709,0-1.236.252-1.543.725-.197.299-.284.646-.299,1.212h.693c.023-.378.07-.606.165-.787.182-.339.544-.543.961-.543.63,0,1.102.448,1.102,1.047,0,.441-.259.819-.755,1.103l-.725.409c-1.166.662-1.504,1.189-1.567,2.418h3.716v-.686Z"/>
  <path class="cls-20" d="m394.788,75.785h-.6v-8.55h.6v8.55Z"/>
  <path class="cls-21" d="m374.42,59.161c-2.195,0-3.686,1.617-3.686,4.011s1.491,4.011,3.696,4.011c.924,0,1.754-.283,2.373-.809.83-.703,1.323-1.89,1.323-3.139,0-2.468-1.46-4.074-3.706-4.074Zm0,.86c1.658,0,2.729,1.261,2.729,3.192,0,1.848-1.102,3.108-2.719,3.108-1.627,0-2.719-1.261-2.719-3.15s1.092-3.15,2.709-3.15Z"/>
  <path class="cls-20" d="m407.838,62.572v.6h-9v-.6h9Z"/>
  <path class="cls-20" d="m388.483,62.872v.6h-9v-.6h9Z"/>
  <path class="cls-20" d="m388.483,41.697v.6h-9v-.6h9Z"/>
  <path class="cls-20" d="m407.838,41.697v.6h-9v-.6h9Z"/>
  <path class="cls-21" d="m397.739,96.704c-.305-1.681-1.27-2.499-2.95-2.499-1.029,0-1.859.325-2.426.955-.693.756-1.071,1.849-1.071,3.087,0,1.261.389,2.342,1.113,3.087.588.609,1.344.893,2.342.893,1.868,0,2.919-1.008,3.149-3.034h-1.007c-.084.525-.19.882-.347,1.187-.315.63-.966.987-1.785.987-1.523,0-2.489-1.219-2.489-3.129,0-1.964.924-3.172,2.405-3.172.62,0,1.197.189,1.512.483.284.263.441.588.556,1.155h.998Z"/>
  <path class="cls-21" d="m402.373,94.205c-2.195,0-3.686,1.617-3.686,4.011s1.491,4.011,3.696,4.011c.924,0,1.754-.283,2.373-.809.83-.703,1.323-1.89,1.323-3.139,0-2.468-1.46-4.074-3.706-4.074Zm0,.86c1.658,0,2.729,1.261,2.729,3.192,0,1.848-1.102,3.108-2.719,3.108-1.627,0-2.719-1.261-2.719-3.15s1.092-3.15,2.709-3.15Z"/>
  <path class="cls-21" d="m410.623,94.205c-2.195,0-3.686,1.617-3.686,4.011s1.491,4.011,3.696,4.011c.924,0,1.754-.283,2.373-.809.83-.703,1.323-1.89,1.323-3.139,0-2.468-1.46-4.074-3.706-4.074Zm0,.86c1.658,0,2.729,1.261,2.729,3.192,0,1.848-1.102,3.108-2.719,3.108-1.627,0-2.719-1.261-2.719-3.15s1.092-3.15,2.709-3.15Z"/>
  <path class="cls-20" d="m394.788,93.635h-.6v-8.4h.6v8.4Z"/>
  <path class="cls-28" d="m415.227,61.039c-.305-1.681-1.27-2.499-2.95-2.499-1.029,0-1.859.325-2.426.955-.693.756-1.071,1.849-1.071,3.087,0,1.261.389,2.342,1.113,3.087.588.609,1.344.893,2.342.893,1.868,0,2.919-1.008,3.149-3.034h-1.007c-.084.525-.19.882-.347,1.187-.315.63-.966.987-1.785.987-1.523,0-2.489-1.219-2.489-3.129,0-1.964.924-3.172,2.405-3.172.62,0,1.197.189,1.512.483.284.263.441.588.556,1.155h.998Z"/>
  <path class="cls-21" d="m419.861,58.54c-2.195,0-3.686,1.617-3.686,4.011s1.491,4.011,3.696,4.011c.924,0,1.754-.283,2.373-.809.83-.703,1.323-1.89,1.323-3.139,0-2.468-1.46-4.074-3.706-4.074Zm0,.86c1.658,0,2.729,1.261,2.729,3.192,0,1.848-1.102,3.108-2.719,3.108-1.627,0-2.719-1.261-2.719-3.15s1.092-3.15,2.709-3.15Z"/>
  <path class="cls-25" d="m428.111,58.54c-2.195,0-3.686,1.617-3.686,4.011s1.491,4.011,3.696,4.011c.924,0,1.754-.283,2.373-.809.83-.703,1.323-1.89,1.323-3.139,0-2.468-1.46-4.074-3.706-4.074Zm0,.86c1.658,0,2.729,1.261,2.729,3.192,0,1.848-1.102,3.108-2.719,3.108-1.627,0-2.719-1.261-2.719-3.15s1.092-3.15,2.709-3.15Z"/>
  <path class="cls-3" d="m431.876,58.37h5.25"/>
  <path class="cls-28" d="m398.33,17.674c-.305-1.681-1.27-2.499-2.95-2.499-1.029,0-1.859.325-2.426.955-.693.756-1.071,1.849-1.071,3.087,0,1.261.389,2.342,1.113,3.087.588.609,1.344.893,2.342.893,1.868,0,2.919-1.008,3.149-3.034h-1.007c-.084.525-.19.882-.347,1.187-.315.63-.966.987-1.785.987-1.523,0-2.489-1.219-2.489-3.129,0-1.964.924-3.172,2.405-3.172.62,0,1.197.189,1.512.483.284.263.441.588.556,1.155h.998Z"/>
  <path class="cls-28" d="m402.964,15.175c-2.195,0-3.686,1.617-3.686,4.011s1.491,4.011,3.696,4.011c.924,0,1.754-.283,2.373-.809.83-.703,1.323-1.89,1.323-3.139,0-2.468-1.46-4.074-3.706-4.074Zm0,.86c1.658,0,2.729,1.261,2.729,3.192,0,1.848-1.102,3.108-2.719,3.108-1.627,0-2.719-1.261-2.719-3.15s1.092-3.15,2.709-3.15Z"/>
  <path class="cls-25" d="m411.214,15.175c-2.195,0-3.686,1.617-3.686,4.011s1.491,4.011,3.696,4.011c.924,0,1.754-.283,2.373-.809.83-.703,1.323-1.89,1.323-3.139,0-2.468-1.46-4.074-3.706-4.074Zm0,.86c1.658,0,2.729,1.261,2.729,3.192,0,1.848-1.102,3.108-2.719,3.108-1.627,0-2.719-1.261-2.719-3.15s1.092-3.15,2.709-3.15Z"/>
  <path class="cls-3" d="m413.888,95.235h5.25"/>
  <text class="cls-38" transform="translate(391.25 44.755)"><tspan x="0" y="0">C</tspan></text>
  <text class="cls-15" transform="translate(105.023 53.61)"><tspan x="0" y="0">S</tspan></text>
  <text class="cls-15" transform="translate(74.748 53.61)"><tspan x="0" y="0">C</tspan><tspan class="cls-39" x="7.201" y="0">o</tspan><tspan class="cls-40" x="13.252" y="0">A</tspan></text>
  <g>
    <path class="cls-30" d="m125.687,271.825l-.015-.626,8.739.036-.01.583-8.714.007Z"/>
    <text class="cls-15" transform="translate(134.411 275.154) scale(.932 1)"><tspan x="0" y="0">SH</tspan></text>
    <text class="cls-15" transform="translate(104.135 275.154)"><tspan x="0" y="0">C</tspan><tspan class="cls-39" x="7.201" y="0">o</tspan><tspan class="cls-40" x="13.252" y="0">A</tspan></text>
  </g>
  <path class="cls-30" d="m243.377,13.135l.52-.3,4.225,7.318-.52.3-4.225-7.318Z"/>
  <path class="cls-29" d="m263.114,23.942l.015.626-8.782-.011.01-.583,8.757-.032Z"/>
  <path class="cls-29" d="m263.114,21.982l.015.626-8.782-.011.01-.583,8.757-.032Z"/>
  <path class="cls-30" d="m243.848,35.873l-.535-.327,4.364-7.542.51.283-4.338,7.586Z"/>
  <path class="cls-30" d="m227.635,9.091l-.015-.626,8.739.036-.01.583-8.714.007Z"/>
  <text class="cls-38" transform="translate(246.75 27.004)"><tspan x="0" y="0">C</tspan></text>
  <text class="cls-38" transform="translate(225.676 44.045)"><tspan x="0" y="0">H</tspan></text>
  <text class="cls-38" transform="translate(232.563 45.208) scale(.583)"><tspan x="0" y="0">2</tspan></text>
  <text class="cls-38" transform="translate(236.119 44.045)"><tspan x="0" y="0">C</tspan></text>
  <text class="cls-32" transform="translate(304.924 40.535)"><tspan x="0" y="0">H</tspan></text>
  <text class="cls-32" transform="translate(311.535 41.698) scale(.583)"><tspan x="0" y="0">2</tspan></text>
  <text class="cls-32" transform="translate(314.504 40.535)"><tspan x="0" y="0">O</tspan></text>
  <text class="cls-35" transform="translate(319.707 164.779)"><tspan x="0" y="0">H</tspan></text>
  <text class="cls-35" transform="translate(326.594 165.942) scale(.583)"><tspan x="0" y="0">2</tspan></text>
  <text class="cls-35" transform="translate(330.15 164.779)"><tspan x="0" y="0">O</tspan></text>
  <text class="cls-38" transform="translate(265.87 27.004)"><tspan x="0" y="0">O</tspan></text>
  <text class="cls-15" transform="translate(236.358 12.42)"><tspan x="0" y="0">S</tspan></text>
  <text class="cls-15" transform="translate(206.083 12.42)"><tspan x="0" y="0">C</tspan><tspan class="cls-39" x="7.201" y="0">o</tspan><tspan class="cls-40" x="13.252" y="0">A</tspan></text>
  <path class="cls-30" d="m459.265,17.835l-.015-.626,8.739.036-.01.583-8.714.007Z"/>
  <text class="cls-37" transform="translate(467.988 21.164)"><tspan class="cls-23" x="0" y="0">S</tspan><tspan class="cls-33" x="6.593" y="0">H</tspan></text>
  <text class="cls-15" transform="translate(437.713 21.164)"><tspan x="0" y="0">C</tspan><tspan class="cls-39" x="7.201" y="0">o</tspan><tspan class="cls-40" x="13.252" y="0">A</tspan></text>
  <text class="cls-22" transform="translate(61.726 72.255) scale(.508 .583)"><tspan x="0" y="0">+</tspan></text>
  <g>
    <line class="cls-1" x1="156.366" y1="65.132" x2="196.624" y2="65.132"/>
    <polygon class="cls-20" points="201.566 65.132 194.601 67.978 196.254 65.132 194.601 62.287 201.566 65.132"/>
  </g>
  <g>
    <line class="cls-1" x1="178.966" y1="191.4" x2="138.709" y2="191.4"/>
    <polygon class="cls-20" points="133.767 191.4 140.731 188.554 139.079 191.4 140.731 194.245 133.767 191.4"/>
  </g>
  <g>
    <line class="cls-1" x1="340.147" y1="191.4" x2="299.89" y2="191.4"/>
    <polygon class="cls-20" points="294.947 191.4 301.912 188.554 300.259 191.4 301.912 194.245 294.947 191.4"/>
  </g>
  <g>
    <line class="cls-1" x1="311.297" y1="65.132" x2="351.554" y2="65.132"/>
    <polygon class="cls-20" points="356.497 65.132 349.532 67.978 351.185 65.132 349.532 62.287 356.497 65.132"/>
  </g>
  <path class="cls-1" d="m336.551,64.631c-11.733,0-21.244-9.511-21.244-21.244"/>
  <path class="cls-1" d="m309.085,191.299c11.733,0,21.244-9.511,21.244-21.244"/>
  <g>
    <path class="cls-1" d="m411.399,134.481c-9.363-2.218-16.328-10.632-16.328-20.673"/>
    <polygon class="cls-20" points="416.315 135.053 409.794 131.302 411.051 134.343 409.033 136.942 416.315 135.053"/>
  </g>
  <g>
    <line class="cls-1" x1="118.757" y1="372.475" x2="159.014" y2="372.475"/>
    <polygon class="cls-20" points="163.956 372.475 156.992 375.321 158.644 372.475 156.992 369.63 163.956 372.475"/>
  </g>
  <g>
    <line class="cls-1" x1="236.684" y1="372.475" x2="276.941" y2="372.475"/>
    <polygon class="cls-20" points="281.884 372.475 274.919 375.321 276.572 372.475 274.919 369.63 281.884 372.475"/>
  </g>
  <g>
    <line class="cls-1" x1="331.55" y1="372.475" x2="333.55" y2="372.475"/>
    <line class="cls-2" x1="337.579" y1="372.475" x2="367.793" y2="372.475"/>
    <line class="cls-1" x1="369.807" y1="372.475" x2="371.807" y2="372.475"/>
    <polygon class="cls-20" points="376.75 372.475 369.785 375.321 371.438 372.475 369.785 369.63 376.75 372.475"/>
  </g>
  <g>
    <line class="cls-1" x1="79.955" y1="273.177" x2="79.955" y2="313.434"/>
    <polygon class="cls-20" points="79.955 318.376 77.109 311.412 79.955 313.065 82.8 311.412 79.955 318.376"/>
  </g>
  <g>
    <path class="cls-1" d="m175.185,191.299c-10.041,0-18.455-6.966-20.673-16.328"/>
    <polygon class="cls-20" points="153.94 170.055 157.692 176.576 154.651 175.319 152.052 177.337 153.94 170.055"/>
  </g>
  <g>
    <line class="cls-1" x1="395.185" y1="112.14" x2="395.185" y2="137.753"/>
    <polygon class="cls-20" points="395.185 142.695 392.339 135.731 395.185 137.383 398.03 135.731 395.185 142.695"/>
  </g>
  <g>
    <path class="cls-28" d="m164.329,163.267c-.305-1.681-1.27-2.499-2.95-2.499-1.029,0-1.859.325-2.426.955-.693.756-1.071,1.849-1.071,3.087,0,1.261.389,2.342,1.113,3.087.588.609,1.344.893,2.342.893,1.868,0,2.919-1.008,3.149-3.034h-1.007c-.084.525-.19.882-.347,1.187-.315.63-.966.987-1.785.987-1.523,0-2.489-1.219-2.489-3.129,0-1.964.924-3.172,2.405-3.172.62,0,1.197.189,1.512.483.284.263.441.588.556,1.155h.998Z"/>
    <path class="cls-29" d="m173.011,158.116l.289.556-7.89,3.856-.248-.528,7.849-3.884Z"/>
    <path class="cls-29" d="m172.148,156.356l.289.556-7.89,3.856-.248-.528,7.849-3.884Z"/>
    <text class="cls-31" transform="translate(173.3 159.871) scale(.583)"><tspan x="0" y="0">O</tspan></text>
    <text class="cls-17" transform="translate(140.721 158.711) scale(.583)"><tspan x="0" y="0">O</tspan></text>
    <g>
      <path class="cls-20" d="m157.019,162.429l-.248.528-7.89-3.856.289-.556,7.849,3.884Z"/>
      <path class="cls-20" d="m157.882,160.669l-.248.528-7.89-3.856.289-.556,7.849,3.884Z"/>
    </g>
  </g>
  <path class="cls-28" d="m131.262,312.897c-.26-1.434-1.084-2.133-2.518-2.133-.878,0-1.587.278-2.071.815-.591.645-.914,1.578-.914,2.635,0,1.076.332,1.999.95,2.635.502.52,1.147.762,1.999.762,1.594,0,2.491-.86,2.688-2.59h-.859c-.072.448-.162.753-.296,1.013-.269.538-.824.843-1.523.843-1.3,0-2.124-1.04-2.124-2.67,0-1.676.789-2.707,2.053-2.707.529,0,1.022.162,1.29.413.242.224.376.502.475.986h.852Z"/>
  <path class="cls-29" d="m138.672,308.501l.247.474-6.734,3.291-.212-.45,6.699-3.315Z"/>
  <path class="cls-29" d="m137.935,306.999l.247.474-6.734,3.291-.212-.45,6.699-3.315Z"/>
  <text class="cls-34" transform="translate(138.919 309.999) scale(.583)"><tspan x="0" y="0">O</tspan></text>
  <text class="cls-24" transform="translate(111.113 309.008) scale(.583)"><tspan x="0" y="0">O</tspan></text>
  <g>
    <path class="cls-20" d="m125.023,312.182l-.212.45-6.734-3.291.247-.474,6.699,3.315Z"/>
    <path class="cls-20" d="m125.76,310.68l-.212.45-6.734-3.291.247-.474,6.699,3.315Z"/>
  </g>
  <ellipse class="cls-5" cx="210.06" cy="192.465" rx="16.602" ry="10.612"/>
  <g>
    <path class="cls-1" d="m101.364,314.087c-11.774,0-21.319-9.545-21.319-21.319s9.545-21.319,21.319-21.319"/>
    <polygon class="cls-20" points="106.307 314.087 99.342 311.241 100.995 314.087 99.342 316.932 106.307 314.087"/>
  </g>
  <g>
    <path class="cls-1" d="m280.603,351.26c0,11.774-9.545,21.319-21.319,21.319s-21.319-9.545-21.319-21.319"/>
    <polygon class="cls-20" points="280.603 346.318 277.757 353.282 280.603 351.629 283.448 353.282 280.603 346.318"/>
  </g>
  <text class="cls-15" transform="translate(418.506 138.609)"><tspan x="0" y="0">H</tspan></text>
  <text class="cls-15" transform="translate(425.393 139.773) scale(.583)"><tspan x="0" y="0">2</tspan></text>
  <text class="cls-15" transform="translate(428.949 138.609)"><tspan x="0" y="0">O</tspan></text>
  <path class="cls-4" d="m261.499,166.896c-3.051.511-5.009.839-6.452,2.452-2.521,2.818-.636,6.399-.129,14.71.644,10.564-1.849,13.828.774,16.129,2.794,2.451,8.706,1.455,12.129-1.419,2.433-2.043,2.372-3.998,4.903-14.452,2.748-11.348,3.826-13.193,2.323-15.226-2.936-3.971-11.223-2.583-13.548-2.194Z"/>
  <path class="cls-26" d="m410.344,10.353s0-.003,0-.004c0-.001,0-.003,0-.004,0-.001,0-.003,0-.004,0-.001,0-.003,0-.004,0-.001,0-.003,0-.004,0-.001,0-.003,0-.004v-.004s0-.003,0-.004c0-.001,0-.003,0-.004,0-.001,0-.003,0-.004,0-.001,0-.003,0-.004,0-.001,0-.003,0-.004,0-.001,0-.003,0-.004s0-.003,0-.004c0-.001,0-.003,0-.004,0-.001,0-.003,0-.004,0-.001,0-.003,0-.004,0-.001,0-.003,0-.004,0-.001,0-.003,0-.004,0-.001,0-.003,0-.004s0-.003,0-.004,0-.003,0-.004,0-.003,0-.004v-.004s.001-.003.002-.004,0-.003,0-.004,0-.003,0-.004c0-.002,0-.003,0-.004,0-.001,0-.003,0-.004,0-.001,0-.003,0-.004,0-.001,0-.003,0-.004s0-.003.001-.004c0-.002.002-.009.006-.022.003-.013.008-.031.015-.054s.015-.051.025-.083c.01-.032.022-.069.035-.11s.029-.086.046-.136c.017-.049.037-.102.058-.159.022-.056.045-.116.071-.18.026-.063.054-.129.084-.198.03-.069.063-.141.098-.215.035-.074.073-.151.113-.23.04-.079.083-.16.129-.242.045-.083.094-.167.145-.253s.105-.173.161-.261c.057-.088.116-.177.179-.267.063-.09.128-.18.197-.271.069-.091.141-.182.216-.273.075-.091.154-.182.236-.273.082-.091.167-.181.256-.271.089-.09.181-.179.277-.266.096-.088.196-.175.299-.26.103-.085.21-.169.321-.251.111-.082.226-.162.344-.24.119-.078.241-.154.368-.228.127-.073.258-.144.393-.213.135-.068.274-.133.418-.195.144-.062.291-.121.444-.176s.309-.107.47-.155.327-.092.498-.132c.171-.04.346-.075.526-.106.18-.031.365-.057.554-.078.19-.021.384-.038.584-.049s.404-.017.614-.017h21.098c.084,0,.167-.002.249-.006.082-.004.164-.009.244-.017s.16-.017.239-.027.157-.024.235-.038c.077-.014.154-.03.23-.048.076-.018.151-.037.225-.058.074-.021.147-.043.219-.067.072-.024.144-.049.214-.076.07-.027.14-.055.209-.084.069-.029.136-.06.203-.092.067-.032.133-.066.197-.1s.129-.071.192-.108.125-.075.186-.115c.061-.039.121-.08.18-.122s.117-.084.173-.128.113-.088.167-.134c.055-.046.108-.092.161-.14s.104-.096.154-.145c.05-.049.1-.099.148-.15.048-.051.095-.102.141-.154.046-.052.091-.105.134-.159s.086-.108.127-.163c.041-.055.081-.11.12-.166.039-.056.076-.112.113-.169.036-.057.072-.114.106-.172.034-.058.067-.116.098-.174.031-.058.062-.117.091-.176.029-.059.057-.118.083-.178.026-.06.051-.119.075-.179.024-.06.046-.12.067-.18.021-.06.041-.12.059-.181.018-.06.035-.121.051-.181.002-.008.005-.017.007-.025.003-.008.005-.017.008-.025.003-.008.006-.016.009-.024.003-.008.007-.016.01-.024s.007-.015.011-.023.008-.015.012-.023c.004-.007.008-.015.013-.022s.009-.014.014-.021c.005-.007.009-.014.014-.021.005-.007.01-.013.015-.02s.011-.013.016-.019c.005-.006.011-.013.017-.019.006-.006.011-.012.017-.018.006-.006.012-.012.018-.017.006-.006.012-.011.019-.016.006-.005.013-.011.019-.016.007-.005.013-.01.02-.015s.014-.01.021-.014c.007-.005.014-.009.021-.013s.014-.008.022-.012c.007-.004.015-.008.022-.011.007-.004.015-.007.023-.011s.015-.007.023-.01c.008-.003.016-.006.024-.009.008-.003.016-.005.024-.008.008-.002.016-.005.024-.007.008-.002.016-.004.025-.006.008-.002.017-.003.025-.005.008-.001.017-.003.025-.004.009-.001.017-.002.026-.003s.017-.001.026-.002.017,0,.026,0,.018,0,.026,0,.017,0,.026.002.017.002.026.003c.009.001.017.002.025.004.008.001.017.003.025.005.008.002.017.004.025.006.008.002.016.004.024.007.008.002.016.005.024.008.008.003.016.006.024.009.008.003.016.006.023.01.008.003.015.007.023.011.008.004.015.008.022.011.007.004.015.008.022.012s.014.009.021.013c.007.005.014.009.021.014s.013.01.02.015c.007.005.013.01.019.016.006.005.013.011.019.016.006.006.012.011.018.017.006.006.012.012.017.018.006.006.011.012.017.019.005.006.011.013.016.019s.01.013.015.02c.005.007.01.014.014.021.005.007.009.014.014.021.004.007.009.015.013.022.004.007.008.015.012.023s.007.015.011.023c.003.008.007.016.01.024.003.008.006.016.009.024.003.008.006.016.008.025.003.008.005.017.007.025.016.06.033.121.051.181.018.06.038.121.059.181.021.06.044.12.067.18.024.06.049.12.075.179.026.06.054.119.083.178.029.059.059.118.091.176.031.058.064.117.098.174.034.058.069.115.106.172s.074.113.113.169c.039.056.079.111.12.166.041.055.084.109.127.163.044.054.088.106.134.159.046.052.093.104.141.154s.097.101.148.15.102.098.154.145.106.094.161.14c.055.046.11.09.167.134.057.044.115.086.173.128s.119.082.18.122c.061.039.123.078.186.115.063.037.127.073.192.108s.131.068.197.1.134.063.203.092c.069.029.138.058.209.084.07.027.142.052.214.076.072.024.145.046.219.067.074.021.149.04.225.058s.152.034.23.048c.077.014.156.027.235.038s.159.02.239.027c.081.007.162.013.244.017.082.004.165.006.249.006h21.099c.21,0,.414.006.614.017s.394.027.584.049c.19.021.374.047.554.078.18.031.355.066.526.106.171.04.336.084.498.132.161.048.318.1.47.155s.3.114.444.176c.144.062.283.127.418.195.135.068.266.139.393.213.127.073.249.149.368.228.119.078.233.158.344.24s.218.166.321.251c.103.085.203.172.299.26.096.088.188.177.277.266.089.09.174.18.256.271s.16.182.236.273c.075.091.147.182.216.273.069.091.135.181.197.271.063.09.122.179.179.267.057.088.11.175.161.261.051.086.099.17.145.253.045.083.088.164.129.242.04.079.078.156.113.23.035.074.068.146.098.215.03.069.058.135.084.198.026.063.049.123.071.18.022.056.041.109.058.159.017.049.033.094.046.136s.025.078.035.11c.01.032.018.06.025.083s.011.041.015.054c.003.013.005.02.006.022.002.01.005.021.007.031s.004.021.005.031c.001.01.002.021.003.031,0,.01.001.02.002.031s0,.02,0,.031c0,.01,0,.02-.001.03,0,.01-.002.02-.003.03-.001.01-.003.02-.004.03-.002.01-.004.02-.006.029-.002.01-.005.019-.007.029s-.005.019-.008.029-.006.019-.01.028-.007.018-.011.027c-.004.009-.008.018-.012.027-.004.009-.009.018-.014.026-.005.009-.01.017-.015.026-.005.008-.011.017-.016.025-.006.008-.011.016-.017.024-.006.008-.012.016-.018.023-.006.008-.013.015-.02.022-.007.007-.014.014-.021.021-.007.007-.014.014-.022.02s-.015.013-.023.019-.016.012-.024.018c-.008.006-.016.012-.025.017s-.017.011-.026.016c-.009.005-.018.01-.027.015s-.018.009-.027.014c-.009.004-.019.008-.028.012-.01.004-.019.008-.029.011-.01.003-.02.007-.03.01-.01.003-.02.006-.031.008-.01.002-.021.005-.031.007-.01.002-.021.004-.031.005-.01.001-.021.002-.031.003s-.021.001-.031.002c-.01,0-.02,0-.031,0-.01,0-.02,0-.03-.001-.01,0-.02-.002-.03-.003-.01-.001-.02-.003-.03-.004s-.02-.004-.029-.006c-.01-.002-.019-.005-.029-.007-.01-.003-.019-.005-.029-.008-.009-.003-.019-.006-.028-.01-.009-.003-.018-.007-.027-.011s-.018-.008-.027-.012c-.009-.004-.018-.009-.026-.014-.009-.005-.017-.01-.026-.015s-.017-.011-.025-.016c-.008-.006-.016-.011-.024-.017-.008-.006-.016-.012-.023-.018-.008-.006-.015-.013-.022-.02-.007-.007-.014-.014-.021-.021-.007-.007-.014-.014-.02-.022-.007-.007-.013-.015-.019-.023-.006-.008-.012-.016-.018-.024-.006-.008-.012-.016-.017-.025s-.011-.017-.016-.026c-.005-.009-.01-.018-.015-.027-.005-.009-.009-.018-.014-.027-.004-.009-.008-.019-.012-.028-.004-.01-.008-.019-.011-.029s-.007-.02-.01-.03c-.003-.01-.006-.02-.008-.031-.002-.006-.004-.017-.008-.032-.004-.015-.009-.034-.015-.056-.006-.023-.014-.049-.024-.079-.009-.03-.02-.064-.032-.101-.012-.037-.026-.077-.041-.121s-.033-.09-.051-.139c-.019-.049-.039-.101-.062-.155-.022-.054-.047-.111-.073-.17-.026-.059-.054-.12-.085-.182s-.063-.127-.097-.194c-.034-.066-.071-.134-.11-.203-.039-.069-.08-.14-.124-.211-.043-.072-.089-.144-.138-.217s-.099-.147-.152-.222c-.053-.074-.109-.149-.168-.225-.059-.075-.12-.15-.184-.226-.064-.075-.131-.15-.2-.225-.07-.075-.142-.149-.218-.223s-.154-.147-.236-.219c-.082-.072-.166-.143-.254-.213-.088-.07-.179-.139-.273-.206-.094-.067-.192-.133-.293-.197-.101-.064-.205-.126-.313-.186-.108-.06-.219-.118-.334-.174-.115-.056-.233-.109-.355-.16s-.248-.099-.377-.144c-.13-.045-.263-.087-.4-.126-.137-.039-.278-.075-.424-.107s-.294-.061-.447-.086c-.153-.025-.311-.046-.472-.064-.162-.017-.327-.031-.497-.039s-.344-.014-.523-.014h-21.099c-.082,0-.163-.001-.244-.004-.081-.003-.161-.007-.241-.013-.08-.006-.159-.013-.237-.022-.078-.009-.156-.019-.233-.03-.077-.011-.154-.024-.23-.038-.076-.014-.151-.029-.226-.046-.075-.017-.149-.034-.222-.053-.073-.019-.146-.039-.218-.061-.072-.021-.143-.044-.214-.068s-.14-.049-.21-.075c-.069-.026-.138-.053-.205-.081s-.135-.058-.201-.088c-.066-.03-.132-.062-.197-.094-.065-.032-.129-.066-.192-.1-.063-.034-.126-.07-.188-.106s-.123-.073-.183-.112c-.06-.038-.12-.077-.178-.117-.059-.04-.117-.081-.174-.122-.057-.042-.113-.084-.169-.127s-.11-.087-.164-.132c-.054-.045-.107-.09-.159-.136-.052-.046-.104-.093-.154-.14-.05-.047-.1-.096-.149-.144-.049-.049-.097-.098-.144-.148s-.093-.101-.139-.152-.09-.103-.133-.155c-.044-.052-.086-.105-.128-.158-.042-.053-.083-.107-.122-.161-.04-.054-.079-.109-.117-.164-.038-.055-.075-.11-.111-.166-.036-.056-.071-.112-.106-.168-.034-.056-.068-.113-.1-.17-.032.057-.066.114-.1.17-.034.056-.069.113-.106.168-.036.056-.073.111-.111.166-.038.055-.077.11-.117.164-.04.054-.081.108-.122.161-.042.053-.084.106-.128.158-.044.052-.088.104-.133.155-.045.051-.091.102-.139.152s-.095.099-.144.148c-.049.049-.098.097-.149.144-.051.047-.102.094-.154.14-.052.046-.105.091-.159.136-.054.045-.109.089-.164.132s-.112.085-.169.127c-.057.042-.115.082-.174.122-.059.04-.118.079-.178.117-.06.038-.121.075-.183.112s-.124.072-.188.106c-.063.034-.127.068-.192.1-.065.032-.13.064-.197.094-.066.03-.133.06-.201.088s-.136.055-.205.081c-.069.026-.139.051-.21.075-.071.024-.142.046-.214.068-.072.021-.145.042-.218.061-.073.019-.147.037-.222.053-.075.017-.15.032-.226.046-.076.014-.152.027-.23.038-.077.011-.155.021-.233.03-.078.009-.157.016-.237.022-.08.006-.16.01-.241.013-.081.003-.162.004-.244.004h-21.098c-.179,0-.353.005-.523.014s-.336.022-.497.039-.319.039-.472.064c-.153.025-.302.054-.447.086-.145.032-.286.068-.424.107-.137.039-.271.081-.4.126-.13.045-.255.093-.377.144-.122.051-.241.104-.355.16-.115.056-.226.114-.334.174-.108.06-.212.122-.313.186-.101.064-.198.13-.293.197-.094.067-.185.136-.273.206s-.172.141-.254.213c-.082.072-.16.145-.236.219-.076.074-.148.148-.218.223-.07.075-.136.15-.2.225-.064.075-.125.151-.184.226s-.115.15-.168.225c-.053.075-.104.149-.152.222-.048.073-.094.146-.138.217-.044.072-.085.142-.124.211-.039.069-.076.137-.11.203-.034.066-.067.131-.097.194-.03.063-.058.124-.085.183-.026.059-.051.115-.073.17-.022.054-.043.106-.062.155-.019.049-.036.095-.051.139-.015.043-.029.084-.042.121-.012.037-.023.071-.032.101-.009.03-.017.057-.024.08-.006.023-.012.042-.016.057-.004.015-.007.026-.008.032-.003.01-.005.02-.008.031-.003.01-.006.02-.01.03-.003.01-.007.019-.011.029-.004.01-.008.019-.012.028-.004.009-.009.018-.014.027s-.01.018-.015.026c-.005.009-.011.017-.016.026-.006.008-.011.017-.017.025s-.012.016-.018.024c-.006.008-.013.015-.019.023-.007.007-.013.015-.02.022s-.014.014-.021.021c-.007.007-.015.013-.022.019-.008.006-.015.012-.023.018-.008.006-.016.012-.024.017-.008.006-.016.011-.025.016-.008.005-.017.01-.026.015-.009.005-.017.009-.026.014s-.018.008-.027.012-.018.008-.027.011c-.009.003-.019.007-.028.01s-.019.006-.029.008c-.01.003-.019.005-.029.007-.01.002-.02.004-.029.006-.01.002-.02.003-.03.004-.01.001-.02.002-.03.003-.01,0-.02.001-.03.001-.01,0-.02,0-.031,0-.01,0-.02,0-.031-.002-.01,0-.021-.002-.031-.003-.01-.001-.021-.003-.031-.005-.01-.002-.021-.004-.031-.007-.009-.002-.018-.004-.026-.007-.009-.002-.017-.005-.026-.008-.008-.003-.017-.006-.025-.009-.008-.003-.016-.006-.024-.01-.008-.003-.016-.007-.024-.011-.008-.004-.016-.008-.023-.012s-.015-.008-.023-.013c-.007-.004-.015-.009-.022-.014-.007-.005-.014-.01-.021-.014-.007-.005-.014-.01-.021-.015s-.013-.011-.02-.016c-.006-.006-.013-.011-.019-.017-.006-.006-.012-.012-.018-.018-.006-.006-.012-.012-.018-.018-.006-.006-.011-.013-.017-.019s-.011-.013-.016-.02c-.005-.007-.01-.013-.015-.02s-.01-.014-.014-.021-.009-.014-.013-.021c-.004-.007-.008-.015-.013-.022-.004-.007-.008-.015-.012-.022-.004-.008-.007-.015-.011-.023-.003-.008-.007-.015-.01-.023-.003-.008-.006-.016-.009-.024-.003-.008-.005-.016-.008-.024-.002-.008-.005-.016-.007-.024s-.004-.016-.006-.025c-.002-.008-.003-.017-.005-.025s-.003-.017-.004-.025c-.001-.009-.002-.017-.003-.026,0-.009-.001-.017-.002-.026s0-.017,0-.026Z"/>
  <text class="cls-11" transform="translate(118.077 346.542) scale(.583)"><tspan x="0" y="0">2-</tspan></text>
  <text class="cls-10" transform="translate(122.97 349.773)"><tspan x="0" y="0">OPO</tspan></text>
  <text class="cls-11" transform="translate(141.741 351.618) scale(.583)"><tspan x="0" y="0">3</tspan></text>
  <text class="cls-9" transform="translate(144.631 349.773)"><tspan x="0" y="0">H</tspan></text>
  <text class="cls-14" transform="translate(196.804 338.362)"><tspan x="0" y="0">OPO</tspan></text>
  <text class="cls-12" transform="translate(220.024 340.206) scale(.583)"><tspan class="cls-36" x="0" y="0">3</tspan><tspan class="cls-42" x="4.957" y="-11.082">-2</tspan></text>
  <text class="cls-18" transform="translate(231.895 346.446)"><tspan x="0" y="0">GDP</tspan></text>
  <text class="cls-16" transform="translate(268.11 345.965)"><tspan class="cls-7" x="0" y="0">G</tspan><tspan class="cls-41" x="6.3" y="0">TP</tspan></text>
  <g>
    <path class="cls-1" d="m406.024,438.922v8.641c0,4.56-3.697,8.257-8.257,8.257H36.029c-4.56,0-8.257-3.697-8.257-8.257V129.855"/>
    <polygon class="cls-20" points="27.773 124.912 30.619 131.877 27.773 130.224 24.928 131.877 27.773 124.912"/>
  </g>
  <path class="cls-1" d="m146.327,372.581c-8.996,0-16.289-7.293-16.289-16.289"/>
  <text class="cls-13" transform="translate(0 107.165)"><tspan x="0" y="0">옥살아세트산</tspan></text>
  <text class="cls-13" transform="translate(81.762 107.165)"><tspan x="0" y="0">아세틸C</tspan></text>
  <text class="cls-8" transform="translate(118.421 107.165) scale(.7)"><tspan x="0" y="0">O</tspan></text>
  <text class="cls-19" transform="translate(123.915 107.165)"><tspan x="0" y="0">A</tspan></text>
  <text class="cls-13" transform="translate(432.413 107.165)"><tspan x="0" y="0">시트릭산</tspan></text>
  <text class="cls-13" transform="translate(207.228 249.41)"><tspan x="0" y="0">아이소-시트릭산</tspan></text>
  <text class="cls-13" transform="translate(43.671 249.41)"><tspan x="0" y="0">알파-케토글루타르산</tspan></text>
  <text class="cls-13" transform="translate(49.313 432.894)"><tspan x="0" y="0">석시닐-C</tspan></text>
  <text class="cls-8" transform="translate(90.928 432.894) scale(.7)"><tspan x="0" y="0">O</tspan></text>
  <text class="cls-13" transform="translate(96.422 432.894)"><tspan x="0" y="0">A</tspan></text>
  <text class="cls-13" transform="translate(282.791 432.894)"><tspan x="0" y="0">석신산</tspan></text>
  <text class="cls-13" transform="translate(378.126 432.894)"><tspan x="0" y="0">옥살아세트산</tspan></text>
</svg>