<?xml version="1.0" encoding="UTF-8"?>
<svg id="_레이어_1" data-name="레이어 1" xmlns="http://www.w3.org/2000/svg" viewBox="0 0 397.327 308.766">
  <defs>
    <style>
      .cls-1 {
        stroke-width: .98px;
      }

      .cls-1, .cls-2, .cls-3, .cls-4, .cls-5 {
        stroke: #231f20;
        stroke-miterlimit: 1;
      }

      .cls-1, .cls-5 {
        fill: #010101;
      }

      .cls-6 {
        letter-spacing: 0em;
      }

      .cls-2, .cls-7, .cls-8 {
        fill: #eb2127;
      }

      .cls-2, .cls-4 {
        stroke-linecap: square;
        stroke-width: 1.202px;
      }

      .cls-7, .cls-9 {
        font-size: 12.65px;
      }

      .cls-7, .cls-9, .cls-10 {
        font-family: AppleSDGothicNeoB00, AppleSDGothicNeoB00;
      }

      .cls-9, .cls-3, .cls-11, .cls-10, .cls-12 {
        fill: #231f20;
      }

      .cls-3, .cls-5 {
        stroke-width: .655px;
      }

      .cls-4 {
        fill: none;
      }

      .cls-11 {
        fill-rule: evenodd;
        stroke-width: 0px;
      }

      .cls-13 {
        letter-spacing: -.062em;
      }

      .cls-10 {
        font-size: 19.659px;
      }

      .cls-12, .cls-8 {
        font-family: ArialMT, Arial;
        font-size: 11.308px;
      }
    </style>
  </defs>
  <path class="cls-3" d="m80.461,29.51c.469.627.704,1.428.704,2.405,0,1.057-.268,1.936-.805,2.637-.63.823-1.528,1.234-2.694,1.234-1.089,0-1.946-.36-2.569-1.08-.556-.694-.834-1.571-.834-2.632,0-.957.237-1.777.713-2.458.611-.874,1.513-1.311,2.709-1.311,1.25,0,2.175.401,2.776,1.205Zm-.846,4.513c.378-.606.566-1.303.566-2.091,0-.833-.218-1.503-.653-2.012-.435-.508-1.031-.762-1.786-.762-.732,0-1.33.252-1.793.755-.463.504-.694,1.245-.694,2.226,0,.785.198,1.447.595,1.985.397.538,1.04.808,1.93.808.845,0,1.456-.304,1.834-.91Z"/>
  <polygon class="cls-3" points="57.539 43.917 57.391 44.263 56.799 43.769 50.136 32.269 50.284 31.924 50.926 32.417 57.539 43.917"/>
  <polygon class="cls-3" points="71.161 40.314 71.161 40.66 71.013 41.005 57.391 44.558 57.391 44.263 57.539 43.917 71.161 40.314"/>
  <polygon class="cls-3" points="84.191 43.769 84.833 44.263 84.882 44.558 71.754 41.103 71.161 40.66 71.161 40.314 84.191 43.769"/>
  <polygon class="cls-3" points="80.193 36.81 80.687 36.514 84.932 43.818 84.833 44.263 84.191 43.769 80.193 36.81"/>
  <polygon class="cls-3" points="63.956 35.823 63.956 35.527 64.104 35.181 72.642 32.96 72.79 33.553 63.956 35.823"/>
  <polygon class="cls-3" points="50.926 32.417 50.284 31.924 50.284 31.628 63.363 35.083 63.956 35.527 63.956 35.823 50.926 32.417"/>
  <path class="cls-3" d="m104.252,31.731c.469.627.704,1.428.704,2.405,0,1.057-.268,1.936-.805,2.637-.629.823-1.528,1.234-2.694,1.234-1.089,0-1.945-.36-2.569-1.08-.556-.694-.834-1.571-.834-2.632,0-.957.238-1.777.713-2.458.61-.874,1.513-1.311,2.709-1.311,1.25,0,2.176.401,2.776,1.205Zm-.846,4.513c.378-.606.567-1.303.567-2.091,0-.833-.218-1.503-.653-2.012-.435-.508-1.031-.762-1.785-.762-.732,0-1.33.252-1.793.755-.463.504-.694,1.245-.694,2.226,0,.785.198,1.447.596,1.985.396.538,1.04.808,1.93.808.845,0,1.457-.304,1.834-.91Z"/>
  <polygon class="cls-3" points="96.777 36.661 97.072 37.155 84.882 44.558 84.833 44.263 84.932 43.818 96.777 36.661"/>
  <polygon class="cls-3" points="121.503 34.342 121.158 34.934 106.45 34.44 106.5 33.849 121.503 34.342"/>
  <path class="cls-3" d="m144.67,41.356c.469.627.704,1.428.704,2.405,0,1.057-.268,1.936-.805,2.637-.629.823-1.528,1.234-2.694,1.234-1.089,0-1.945-.36-2.569-1.08-.556-.694-.834-1.571-.834-2.632,0-.957.238-1.777.713-2.458.61-.874,1.513-1.311,2.709-1.311,1.25,0,2.176.401,2.776,1.205Zm-.846,4.513c.378-.606.567-1.303.567-2.091,0-.833-.218-1.503-.653-2.012-.435-.508-1.031-.762-1.785-.762-.732,0-1.33.252-1.793.755-.463.504-.694,1.245-.694,2.226,0,.785.198,1.447.596,1.985.396.538,1.04.808,1.93.808.845,0,1.456-.304,1.834-.91Z"/>
  <polygon class="cls-3" points="121.75 55.762 121.603 56.108 121.01 55.614 114.347 44.115 114.495 43.769 115.138 44.263 121.75 55.762"/>
  <polygon class="cls-3" points="135.373 52.16 135.373 52.505 135.225 52.851 121.603 56.404 121.603 56.108 121.75 55.762 135.373 52.16"/>
  <polygon class="cls-3" points="148.402 55.614 149.044 56.108 148.748 56.305 135.965 52.949 135.373 52.505 135.373 52.16 148.402 55.614"/>
  <polygon class="cls-3" points="144.405 48.655 144.898 48.359 149.34 56.009 149.044 56.108 148.402 55.614 144.405 48.655"/>
  <polygon class="cls-3" points="128.166 47.668 128.166 47.372 128.315 47.026 136.854 44.805 137.001 45.398 128.166 47.668"/>
  <polygon class="cls-3" points="115.138 44.263 114.495 43.769 114.495 43.473 127.575 46.928 128.166 47.372 128.166 47.668 115.138 44.263"/>
  <polygon class="cls-3" points="128.315 47.026 128.166 47.372 127.575 46.928 121.158 34.934 121.503 34.342 128.315 47.026"/>
  <polygon class="cls-3" points="56.503 23.237 57.194 23.237 64.104 35.181 63.956 35.527 63.363 35.083 56.503 23.237"/>
  <g>
    <path class="cls-3" d="m66.688,8.473c.469.627.704,1.428.704,2.405,0,1.057-.268,1.936-.805,2.637-.63.823-1.528,1.234-2.694,1.234-1.089,0-1.946-.36-2.569-1.08-.556-.694-.834-1.571-.834-2.632,0-.957.237-1.777.713-2.458.611-.874,1.513-1.311,2.709-1.311,1.25,0,2.175.401,2.776,1.205Zm-.846,4.513c.378-.606.566-1.303.566-2.091,0-.833-.218-1.503-.653-2.012-.435-.508-1.031-.762-1.786-.762-.732,0-1.33.252-1.793.755-.463.504-.694,1.245-.694,2.226,0,.785.198,1.447.595,1.985s1.04.808,1.93.808c.845,0,1.456-.304,1.834-.91Z"/>
    <path class="cls-3" d="m68.51,7.46h1.374l2.036,5.986,2.022-5.986h1.365v7.081h-.916v-4.179c0-.145.003-.384.01-.718s.01-.692.01-1.075l-2.022,5.972h-.951l-2.041-5.972v.217c0,.174.005.438.014.793s.014.616.014.783v4.179h-.916v-7.08h0Z"/>
    <path class="cls-3" d="m79.83,9.521c.342.172.602.394.781.668.173.26.288.564.345.911.051.237.077.617.077,1.138h-3.754c.016.525.139.947.368,1.264.23.318.585.476,1.067.476.449,0,.808-.15,1.076-.45.15-.175.256-.376.319-.606h.853c-.023.19-.097.401-.224.634s-.268.423-.424.571c-.262.257-.585.43-.971.521-.207.051-.442.077-.703.077-.639,0-1.18-.234-1.624-.701s-.666-1.122-.666-1.964c0-.829.224-1.502.67-2.02.447-.517,1.032-.776,1.754-.776.364,0,.717.085,1.059.258Zm.311,2.027c-.035-.376-.116-.676-.244-.901-.236-.418-.629-.627-1.181-.627-.395,0-.727.144-.995.431-.268.288-.409.653-.425,1.097,0,0,2.844,0,2.844,0Z"/>
  </g>
  <polygon class="cls-3" points="60.945 15.587 61.438 15.883 57.194 23.237 56.503 23.237 60.945 15.587"/>
  <path class="cls-3" d="m39.296,33.212c.469.627.704,1.428.704,2.405,0,1.057-.268,1.936-.805,2.637-.63.823-1.528,1.234-2.694,1.234-1.089,0-1.946-.36-2.569-1.08-.556-.694-.834-1.571-.834-2.632,0-.957.237-1.777.713-2.458.611-.874,1.513-1.311,2.709-1.311,1.25,0,2.175.401,2.776,1.205Zm-.846,4.513c.378-.606.566-1.303.566-2.091,0-.833-.218-1.503-.653-2.012-.435-.508-1.031-.762-1.786-.762-.732,0-1.33.252-1.793.755-.463.504-.694,1.245-.694,2.226,0,.785.198,1.447.595,1.985s1.04.808,1.93.808c.845,0,1.456-.304,1.834-.91Z"/>
  <polygon class="cls-3" points="41.499 34.589 41.351 34.046 50.284 31.628 50.284 31.924 50.136 32.269 41.499 34.589"/>
  <path class="cls-3" d="m46.406,38.148c.469.627.704,1.428.704,2.405,0,1.057-.268,1.936-.805,2.637-.63.823-1.528,1.234-2.694,1.234-1.089,0-1.946-.36-2.569-1.08-.556-.694-.834-1.571-.834-2.632,0-.957.237-1.777.713-2.458.611-.874,1.513-1.311,2.709-1.311,1.25,0,2.175.401,2.776,1.205Zm-.846,4.513c.378-.606.566-1.303.566-2.091,0-.833-.218-1.503-.653-2.012-.435-.508-1.031-.762-1.786-.762-.732,0-1.33.252-1.793.755-.463.504-.694,1.245-.694,2.226,0,.785.198,1.447.595,1.985s1.04.808,1.93.808c.845,0,1.456-.304,1.834-.91Z"/>
  <polygon class="cls-3" points="48.507 42.19 48.655 41.597 56.799 43.769 57.391 44.263 57.391 44.558 48.507 42.19"/>
  <path class="cls-3" d="m21.664,24.989h3.169c.626,0,1.132.177,1.517.533s.578.854.578,1.496c0,.553-.172,1.034-.516,1.444s-.87.614-1.577.614h-2.211v2.993h-.959v-7.08h0Zm3.72.974c-.211-.1-.499-.15-.866-.15h-1.895v2.453h1.895c.427,0,.774-.092,1.04-.275s.4-.506.4-.969c0-.521-.191-.874-.574-1.06Z"/>
  <polygon class="cls-3" points="27.087 30.492 27.383 29.999 32.269 32.812 31.973 33.306 27.087 30.492"/>
  <path class="cls-3" d="m27.011,11.897c.469.627.704,1.428.704,2.405,0,1.057-.268,1.936-.805,2.637-.63.823-1.528,1.234-2.694,1.234-1.089,0-1.946-.36-2.569-1.08-.556-.694-.834-1.571-.834-2.632,0-.957.237-1.777.713-2.458.611-.874,1.513-1.311,2.709-1.311,1.25,0,2.175.401,2.776,1.205Zm-.846,4.513c.378-.606.566-1.303.566-2.091,0-.833-.218-1.503-.653-2.012-.435-.508-1.031-.762-1.786-.762-.732,0-1.33.252-1.793.755-.463.504-.694,1.245-.694,2.226,0,.785.198,1.447.595,1.985s1.04.808,1.93.808c.845,0,1.457-.303,1.834-.91Z"/>
  <rect class="cls-3" x="22.694" y="19.733" width=".592" height="3.702"/>
  <rect class="cls-3" x="25.261" y="19.733" width=".592" height="3.702"/>
  <g>
    <path class="cls-3" d="m.328,28.737h.969v2.926h3.639v-2.926h.969v7.08h-.969v-3.311H1.296v3.311H.328v-7.08Z"/>
    <path class="cls-3" d="m13.264,29.749c.469.627.704,1.428.704,2.405,0,1.057-.268,1.936-.805,2.637-.63.823-1.528,1.234-2.694,1.234-1.089,0-1.946-.36-2.569-1.08-.556-.694-.834-1.571-.834-2.632,0-.957.237-1.777.713-2.458.611-.874,1.513-1.311,2.709-1.311,1.25,0,2.175.402,2.776,1.205Zm-.846,4.513c.378-.606.566-1.303.566-2.091,0-.833-.218-1.503-.653-2.012-.435-.508-1.031-.762-1.786-.762-.732,0-1.33.252-1.793.755-.463.504-.694,1.245-.694,2.226,0,.785.198,1.447.595,1.985.397.538,1.04.808,1.93.808.845,0,1.456-.303,1.834-.91Z"/>
  </g>
  <polygon class="cls-3" points="15.439 31.184 15.291 30.591 19.585 29.456 19.733 30.048 15.439 31.184"/>
  <g>
    <path class="cls-3" d="m6.936,37.375h.969v2.926h3.639v-2.926h.969v7.08h-.969v-3.311h-3.639v3.311h-.969v-7.08Z"/>
    <path class="cls-3" d="m19.873,38.386c.469.627.704,1.428.704,2.405,0,1.057-.268,1.936-.805,2.637-.63.823-1.528,1.234-2.694,1.234-1.089,0-1.946-.36-2.569-1.08-.556-.694-.834-1.571-.834-2.632,0-.957.237-1.777.713-2.458.611-.874,1.513-1.311,2.709-1.311,1.25,0,2.175.402,2.776,1.205Zm-.846,4.513c.378-.606.566-1.303.566-2.091,0-.833-.218-1.503-.653-2.012-.435-.508-1.031-.762-1.786-.762-.732,0-1.33.252-1.793.755-.463.504-.694,1.245-.694,2.226,0,.785.198,1.447.595,1.985s1.04.808,1.93.808c.845,0,1.457-.303,1.834-.91Z"/>
  </g>
  <polygon class="cls-3" points="20.029 36.465 19.486 36.168 21.066 33.503 21.559 33.799 20.029 36.465"/>
  <g>
    <path class="cls-3" d="m75.416,49.412h1.13l3.531,5.721v-5.721h.916v7.081h-1.078l-3.583-5.714v5.714h-.916v-7.081h0Z"/>
    <path class="cls-3" d="m82.568,49.412h.969v2.926h3.639v-2.926h.969v7.081h-.969v-3.311h-3.639v3.311h-.969v-7.081Z"/>
  </g>
  <polygon class="cls-3" points="75.505 47.569 74.962 47.866 71.013 41.005 71.161 40.66 71.754 41.103 75.505 47.569"/>
  <polygon class="cls-3" points="71.507 65.239 70.816 65.239 74.962 58.033 75.505 58.329 71.507 65.239"/>
  <polygon class="cls-3" points="78.614 77.578 77.923 77.578 70.816 65.239 71.507 65.239 78.614 77.578"/>
  <polygon class="cls-3" points="71.507 89.867 70.816 89.867 77.923 77.578 78.614 77.578 71.507 89.867"/>
  <polygon class="cls-3" points="78.614 102.206 77.923 102.206 70.816 89.867 71.507 89.867 78.614 102.206"/>
  <polygon class="cls-3" points="71.507 114.495 70.816 114.495 77.923 102.206 78.614 102.206 71.507 114.495"/>
  <polygon class="cls-3" points="78.614 126.785 77.923 126.785 70.816 114.495 71.507 114.495 78.614 126.785"/>
  <polygon class="cls-3" points="71.507 139.124 70.816 139.124 77.923 126.785 78.614 126.785 71.507 139.124"/>
  <polygon class="cls-5" points="78.614 151.413 77.923 151.413 70.816 139.124 71.507 139.124 78.614 151.413"/>
  <polygon class="cls-5" points="71.507 163.752 70.816 163.752 77.923 151.413 78.614 151.413 71.507 163.752"/>
  <polygon class="cls-5" points="78.614 176.041 77.923 176.041 70.816 163.752 71.507 163.752 78.614 176.041"/>
  <path class="cls-3" d="m59.732,62.825c.469.627.704,1.428.704,2.405,0,1.057-.268,1.936-.805,2.637-.63.823-1.528,1.234-2.694,1.234-1.089,0-1.946-.36-2.569-1.08-.556-.694-.834-1.571-.834-2.632,0-.957.237-1.777.713-2.458.611-.874,1.513-1.311,2.709-1.311,1.25,0,2.175.401,2.776,1.205Zm-.846,4.513c.378-.606.566-1.303.566-2.091,0-.833-.218-1.503-.653-2.012-.435-.508-1.031-.762-1.786-.762-.732,0-1.33.252-1.793.755-.463.504-.694,1.245-.694,2.226,0,.785.198,1.447.595,1.985s1.04.808,1.93.808c.845,0,1.456-.304,1.834-.91Z"/>
  <rect class="cls-3" x="61.981" y="66.226" width="9.921" height=".592"/>
  <rect class="cls-3" x="61.981" y="63.709" width="9.921" height=".592"/>
  <polygon class="cls-5" points="71.458 188.43 70.865 188.282 77.923 176.041 78.614 176.041 71.458 188.43"/>
  <polygon class="cls-5" points="71.458 202.496 70.865 202.644 70.865 188.282 71.458 188.43 71.458 202.496"/>
  <rect class="cls-5" x="73.432" y="189.022" width=".592" height="12.832"/>
  <polygon class="cls-5" points="78.614 214.883 77.923 214.883 70.865 202.644 71.458 202.496 78.614 214.883"/>
  <polygon class="cls-5" points="71.507 227.174 70.816 227.174 77.923 214.883 78.614 214.883 71.507 227.174"/>
  <polygon class="cls-5" points="78.614 239.512 77.923 239.512 70.816 227.174 71.507 227.174 78.614 239.512"/>
  <polygon class="cls-5" points="71.507 251.801 70.816 251.801 77.923 239.512 78.614 239.512 71.507 251.801"/>
  <polygon class="cls-1" points="78.614 264.092 77.923 264.092 70.816 251.801 71.507 251.801 78.614 264.092"/>
  <polygon class="cls-1" points="71.408 276.577 70.915 276.282 77.923 264.092 78.614 264.092 71.408 276.577"/>
  <g>
    <path class="cls-3" d="m139.632,61.273h1.13l3.531,5.721v-5.721h.916v7.081h-1.078l-3.583-5.714v5.714h-.916v-7.081h0Z"/>
    <path class="cls-3" d="m146.785,61.273h.969v2.926h3.639v-2.926h.969v7.081h-.969v-3.311h-3.639v3.311h-.969v-7.081Z"/>
  </g>
  <polygon class="cls-3" points="139.716 59.415 139.173 59.711 135.225 52.851 135.373 52.505 135.965 52.949 139.716 59.415"/>
  <path class="cls-3" d="m151.78,76.444c.469.627.704,1.428.704,2.405,0,1.057-.268,1.936-.805,2.637-.629.823-1.528,1.234-2.694,1.234-1.089,0-1.945-.36-2.569-1.08-.556-.694-.834-1.571-.834-2.632,0-.957.238-1.777.713-2.458.61-.874,1.513-1.311,2.709-1.311,1.25,0,2.176.401,2.776,1.205Zm-.846,4.513c.378-.606.567-1.303.567-2.091,0-.833-.218-1.503-.653-2.012-.435-.508-1.031-.762-1.785-.762-.732,0-1.33.252-1.793.755-.463.504-.694,1.245-.694,2.226,0,.785.198,1.447.596,1.985.396.538,1.04.808,1.93.808.845,0,1.456-.303,1.834-.91Z"/>
  <polygon class="cls-3" points="149.34 73.728 148.748 73.728 148.748 56.305 149.044 56.108 149.34 56.009 149.34 73.728"/>
  <path class="cls-3" d="m158.718,82.442h3.169c.626,0,1.132.177,1.517.533.384.355.577.854.577,1.496,0,.553-.172,1.034-.516,1.444-.343.41-.87.614-1.578.614h-2.211v2.993h-.959v-7.08h0Zm3.72.974c-.21-.1-.499-.15-.866-.15h-1.895v2.453h1.895c.427,0,.774-.092,1.04-.275.267-.183.4-.506.4-.969,0-.52-.192-.874-.574-1.06Z"/>
  <polygon class="cls-3" points="156.645 82.908 156.349 83.401 153.388 81.723 153.684 81.23 156.645 82.908"/>
  <path class="cls-3" d="m176.357,76.444c.469.627.704,1.428.704,2.405,0,1.057-.268,1.936-.805,2.637-.629.823-1.528,1.234-2.694,1.234-1.089,0-1.945-.36-2.569-1.08-.556-.694-.834-1.571-.834-2.632,0-.957.238-1.777.713-2.458.61-.874,1.513-1.311,2.709-1.311,1.25,0,2.176.401,2.776,1.205Zm-.846,4.513c.378-.606.567-1.303.567-2.091,0-.833-.218-1.503-.653-2.012-.435-.508-1.031-.762-1.785-.762-.732,0-1.33.252-1.793.755-.463.504-.694,1.245-.694,2.226,0,.785.198,1.447.596,1.985.396.538,1.04.808,1.93.808.845,0,1.456-.303,1.834-.91Z"/>
  <polygon class="cls-3" points="168.243 80.193 168.539 80.687 165.134 82.661 164.838 82.118 168.243 80.193"/>
  <polygon class="cls-3" points="169.527 82.365 169.823 82.908 166.417 84.833 166.121 84.339 169.527 82.365"/>
  <g>
    <path class="cls-3" d="m147.452,96.261h.969v2.926h3.639v-2.926h.969v7.081h-.969v-3.311h-3.639v3.311h-.969v-7.081Z"/>
    <path class="cls-3" d="m160.389,97.274c.469.627.704,1.428.704,2.405,0,1.057-.268,1.936-.805,2.637-.629.823-1.528,1.234-2.694,1.234-1.089,0-1.945-.36-2.569-1.08-.556-.694-.834-1.571-.834-2.632,0-.957.238-1.777.713-2.458.61-.874,1.513-1.311,2.709-1.311,1.251,0,2.176.401,2.776,1.205Zm-.846,4.513c.378-.606.567-1.303.567-2.091,0-.833-.218-1.503-.653-2.012-.435-.508-1.031-.762-1.785-.762-.732,0-1.33.252-1.793.755-.463.504-.694,1.245-.694,2.226,0,.785.198,1.447.596,1.985.396.538,1.04.808,1.93.808.845,0,1.457-.304,1.834-.91Z"/>
  </g>
  <polygon class="cls-3" points="159.311 94.753 158.718 94.605 159.606 91.348 160.149 91.496 159.311 94.753"/>
  <g>
    <path class="cls-3" d="m171.175,95.839c.469.627.704,1.428.704,2.405,0,1.057-.268,1.936-.805,2.637-.629.823-1.528,1.234-2.694,1.234-1.089,0-1.945-.36-2.569-1.08-.556-.694-.834-1.571-.834-2.632,0-.957.238-1.777.713-2.458.61-.874,1.513-1.311,2.709-1.311,1.25,0,2.176.401,2.776,1.205Zm-.846,4.513c.378-.606.567-1.303.567-2.091,0-.833-.218-1.503-.653-2.012-.435-.508-1.031-.762-1.785-.762-.732,0-1.33.252-1.793.755-.463.504-.694,1.245-.694,2.226,0,.785.198,1.447.596,1.985.396.538,1.04.808,1.93.808.845,0,1.456-.303,1.834-.91Z"/>
    <path class="cls-3" d="m173.045,94.827h.969v2.926h3.639v-2.926h.969v7.081h-.969v-3.311h-3.639v3.311h-.969v-7.081Z"/>
  </g>
  <polygon class="cls-3" points="166.121 93.618 165.578 93.914 162.419 88.485 162.962 88.14 166.121 93.618"/>
  <polygon class="cls-3" points="135.718 77.084 135.027 77.084 139.173 69.878 139.716 70.174 135.718 77.084"/>
  <polygon class="cls-3" points="142.825 89.423 142.134 89.423 135.027 77.084 135.718 77.084 142.825 89.423"/>
  <polygon class="cls-3" points="135.718 101.712 135.027 101.712 142.134 89.423 142.825 89.423 135.718 101.712"/>
  <polygon class="cls-3" points="142.825 114.051 142.134 114.051 135.027 101.712 135.718 101.712 142.825 114.051"/>
  <polygon class="cls-3" points="135.718 126.341 135.027 126.341 142.134 114.051 142.825 114.051 135.718 126.341"/>
  <polygon class="cls-3" points="142.825 138.63 142.134 138.63 135.027 126.341 135.718 126.341 142.825 138.63"/>
  <polygon class="cls-5" points="135.718 150.968 135.027 150.968 142.134 138.63 142.825 138.63 135.718 150.968"/>
  <polygon class="cls-5" points="142.825 163.258 142.134 163.258 135.027 150.968 135.718 150.968 142.825 163.258"/>
  <polygon class="cls-5" points="135.718 175.597 135.027 175.597 142.134 163.258 142.825 163.258 135.718 175.597"/>
  <polygon class="cls-5" points="142.825 187.886 142.134 187.886 135.027 175.597 135.718 175.597 142.825 187.886"/>
  <polygon class="cls-5" points="135.718 200.177 135.027 200.177 142.134 187.886 142.825 187.886 135.718 200.177"/>
  <polygon class="cls-5" points="142.825 212.515 142.134 212.515 135.027 200.177 135.718 200.177 142.825 212.515"/>
  <polygon class="cls-5" points="135.718 224.804 135.027 224.804 142.134 212.515 142.825 212.515 135.718 224.804"/>
  <polygon class="cls-5" points="142.726 236.995 142.233 237.291 135.027 224.804 135.718 224.804 142.726 236.995"/>
  <path class="cls-3" d="m123.941,74.671c.469.627.704,1.428.704,2.405,0,1.057-.268,1.936-.805,2.637-.629.823-1.528,1.234-2.694,1.234-1.089,0-1.945-.36-2.569-1.08-.556-.694-.834-1.571-.834-2.632,0-.957.238-1.777.713-2.458.61-.874,1.513-1.311,2.709-1.311,1.25,0,2.176.401,2.776,1.205Zm-.846,4.513c.378-.606.567-1.303.567-2.091,0-.833-.218-1.503-.653-2.012-.435-.508-1.031-.762-1.785-.762-.732,0-1.33.252-1.793.755-.463.504-.694,1.245-.694,2.226,0,.785.198,1.447.596,1.985.396.538,1.04.808,1.93.808.845,0,1.456-.304,1.834-.91Z"/>
  <rect class="cls-3" x="126.192" y="78.071" width="9.921" height=".592"/>
  <rect class="cls-3" x="126.192" y="75.554" width="9.921" height=".592"/>
  <path class="cls-3" d="m123.941,99.302c.469.627.704,1.428.704,2.405,0,1.057-.268,1.936-.805,2.637-.629.823-1.528,1.234-2.694,1.234-1.089,0-1.945-.36-2.569-1.08-.556-.694-.834-1.571-.834-2.632,0-.957.238-1.777.713-2.458.61-.874,1.513-1.311,2.709-1.311,1.25,0,2.176.401,2.776,1.205Zm-.846,4.513c.378-.606.567-1.303.567-2.091,0-.833-.218-1.503-.653-2.012-.435-.508-1.031-.762-1.785-.762-.732,0-1.33.252-1.793.755-.463.504-.694,1.245-.694,2.226,0,.785.198,1.447.596,1.985.396.538,1.04.808,1.93.808.845,0,1.456-.304,1.834-.91Z"/>
  <rect class="cls-3" x="126.192" y="102.699" width="9.921" height=".592"/>
  <rect class="cls-3" x="126.192" y="100.133" width="9.921" height=".592"/>
  <path class="cls-3" d="m110.622,49.993c.469.627.704,1.428.704,2.405,0,1.057-.268,1.936-.805,2.637-.629.823-1.528,1.234-2.694,1.234-1.089,0-1.945-.36-2.569-1.08-.556-.694-.834-1.571-.834-2.632,0-.957.238-1.777.713-2.458.61-.874,1.513-1.311,2.709-1.311,1.251,0,2.176.401,2.776,1.205Zm-.846,4.513c.378-.606.567-1.303.567-2.091,0-.833-.218-1.503-.653-2.012-.435-.508-1.031-.762-1.785-.762-.732,0-1.33.252-1.793.755-.463.504-.694,1.245-.694,2.226,0,.785.198,1.447.596,1.985.396.538,1.04.808,1.93.808.846,0,1.457-.304,1.834-.91Z"/>
  <polygon class="cls-3" points="112.719 54.035 112.866 53.442 121.01 55.614 121.603 56.108 121.603 56.404 112.719 54.035"/>
  <g>
    <path class="cls-3" d="m90.594,44.045h.969v2.926h3.639v-2.926h.969v7.081h-.969v-3.311h-3.639v3.311h-.969v-7.081Z"/>
    <path class="cls-3" d="m103.53,45.057c.469.627.704,1.428.704,2.405,0,1.057-.268,1.936-.805,2.637-.629.823-1.528,1.234-2.694,1.234-1.089,0-1.945-.36-2.569-1.08-.556-.694-.834-1.571-.834-2.632,0-.957.238-1.777.713-2.458.61-.874,1.513-1.311,2.709-1.311,1.25,0,2.176.401,2.776,1.205Zm-.846,4.513c.378-.606.567-1.303.567-2.091,0-.833-.218-1.503-.653-2.012-.435-.508-1.031-.762-1.785-.762-.732,0-1.33.252-1.793.755-.463.504-.694,1.245-.694,2.226,0,.785.198,1.447.596,1.985.396.538,1.04.808,1.93.808.845,0,1.457-.304,1.834-.91Z"/>
  </g>
  <polygon class="cls-3" points="105.71 46.434 105.562 45.891 114.495 43.473 114.495 43.769 114.347 44.115 105.71 46.434"/>
  <polygon class="cls-3" points="101.12 64.745 100.429 64.745 104.871 57.046 105.365 57.342 101.12 64.745"/>
  <polygon class="cls-3" points="108.228 77.035 107.536 77.035 100.429 64.745 101.12 64.745 108.228 77.035"/>
  <polygon class="cls-3" points="101.12 89.324 100.429 89.324 107.536 77.035 108.228 77.035 101.12 89.324"/>
  <polygon class="cls-3" points="108.228 101.663 107.536 101.663 100.429 89.324 101.12 89.324 108.228 101.663"/>
  <polygon class="cls-3" points="101.12 113.952 100.429 113.952 107.536 101.663 108.228 101.663 101.12 113.952"/>
  <polygon class="cls-3" points="108.228 126.241 107.536 126.241 100.429 113.952 101.12 113.952 108.228 126.241"/>
  <polygon class="cls-3" points="101.12 138.58 100.429 138.58 107.536 126.241 108.228 126.241 101.12 138.58"/>
  <polygon class="cls-5" points="108.228 150.87 107.536 150.87 100.429 138.58 101.12 138.58 108.228 150.87"/>
  <polygon class="cls-5" points="101.12 163.209 100.429 163.209 107.536 150.87 108.228 150.87 101.12 163.209"/>
  <polygon class="cls-5" points="108.129 175.35 107.635 175.646 100.429 163.209 101.12 163.209 108.129 175.35"/>
  <polygon class="cls-3" points="36.909 52.9 36.218 52.9 40.66 45.2 41.153 45.497 36.909 52.9"/>
  <polygon class="cls-3" points="44.016 65.189 43.325 65.189 36.218 52.9 36.909 52.9 44.016 65.189"/>
  <polygon class="cls-3" points="36.909 77.479 36.563 77.479 36.415 77.183 43.325 65.189 44.016 65.189 36.909 77.479"/>
  <polygon class="cls-3" points="44.016 89.818 43.325 89.818 36.415 77.824 36.563 77.479 36.909 77.479 44.016 89.818"/>
  <polygon class="cls-3" points="36.909 102.107 36.218 102.107 43.325 89.818 44.016 89.818 36.909 102.107"/>
  <polygon class="cls-3" points="44.016 114.396 43.325 114.396 36.218 102.107 36.909 102.107 44.016 114.396"/>
  <polygon class="cls-3" points="36.909 126.735 36.218 126.735 43.325 114.396 44.016 114.396 36.909 126.735"/>
  <polygon class="cls-3" points="44.016 139.025 43.325 139.025 36.218 126.735 36.909 126.735 44.016 139.025"/>
  <polygon class="cls-5" points="36.909 151.363 36.218 151.363 43.325 139.025 44.016 139.025 36.909 151.363"/>
  <polygon class="cls-5" points="43.917 163.505 43.424 163.8 36.218 151.363 36.909 151.363 43.917 163.505"/>
  <g>
    <path class="cls-3" d="m5.554,74.052h1.374l2.036,5.986,2.022-5.986h1.365v7.081h-.916v-4.179c0-.145.003-.384.01-.718s.01-.692.01-1.075l-2.022,5.972h-.951l-2.041-5.972v.217c0,.174.005.438.014.793s.014.616.014.783v4.179h-.916v-7.08h0Z"/>
    <path class="cls-3" d="m16.874,76.112c.342.172.602.394.781.668.173.26.288.564.345.911.051.237.077.617.077,1.138h-3.754c.016.525.139.947.368,1.264.23.318.585.476,1.067.476.449,0,.808-.15,1.076-.45.15-.175.256-.376.319-.606h.853c-.023.19-.097.401-.224.634s-.268.423-.424.571c-.262.257-.585.43-.971.521-.207.051-.442.077-.703.077-.639,0-1.18-.234-1.624-.701s-.666-1.122-.666-1.964c0-.829.224-1.502.67-2.02.447-.517,1.032-.776,1.754-.776.364,0,.717.085,1.058.257Zm.311,2.027c-.035-.376-.116-.676-.244-.901-.236-.418-.629-.627-1.181-.627-.395,0-.727.144-.995.431-.268.288-.409.653-.425,1.097h2.844Z"/>
    <path class="cls-3" d="m25.123,75.064c.469.627.704,1.428.704,2.405,0,1.057-.268,1.936-.805,2.637-.63.823-1.528,1.234-2.694,1.234-1.089,0-1.946-.36-2.569-1.08-.556-.694-.834-1.571-.834-2.632,0-.957.237-1.777.713-2.458.611-.874,1.513-1.311,2.709-1.311,1.25,0,2.175.401,2.776,1.205Zm-.846,4.513c.378-.606.566-1.303.566-2.091,0-.833-.218-1.503-.653-2.012-.435-.508-1.031-.762-1.786-.762-.732,0-1.33.252-1.793.755-.463.504-.694,1.245-.694,2.226,0,.785.198,1.447.595,1.985s1.04.808,1.93.808c.845,0,1.456-.304,1.834-.91Z"/>
  </g>
  <polygon class="cls-3" points="27.383 78.959 27.383 75.998 36.415 77.183 36.563 77.479 36.415 77.824 27.383 78.959"/>
  <g>
    <g>
      <line class="cls-4" x1="239.226" y1="27.016" x2="229.565" y2="30.353"/>
      <line class="cls-4" x1="285.647" y1="43.214" x2="307.506" y2="22.639"/>
      <line class="cls-4" x1="249.888" y1="44.164" x2="239.424" y2="46.051"/>
      <line class="cls-4" x1="268.892" y1="45.379" x2="267.703" y2="38.213"/>
      <polyline class="cls-4" points="254.625 13.905 249.888 16.844 257.427 32.004"/>
      <polyline class="cls-4" points="239.226 27.016 257.427 32.001 270.808 27.005"/>
      <line class="cls-4" x1="285.647" y1="43.214" x2="277.643" y2="29.585"/>
      <line class="cls-4" x1="267.916" y1="38.213" x2="285.432" y2="43.214"/>
      <polyline class="cls-11" points="268.712 41.406 267.703 38.213 269.193 35.589 284.467 42.163 285.647 43.214 285.799 43.742 268.712 41.406"/>
      <line class="cls-4" x1="267.492" y1="38.213" x2="250.099" y2="44.164"/>
      <polyline class="cls-11" points="269.193 35.587 267.703 38.213 267.582 40.394 250.465 46.106 249.888 44.162 251.494 41.493 269.193 35.587"/>
      <line class="cls-4" x1="249.682" y1="43.936" x2="239.444" y2="27.24"/>
      <polyline class="cls-11" points="251.494 41.491 249.888 44.164 246.733 44.214 238.987 27.63 239.226 27.014 240.558 27.907 251.494 41.491"/>
      <line class="cls-4" x1="322.256" y1="50.773" x2="312.586" y2="33.941"/>
      <polyline class="cls-11" points="324.134 48.374 322.462 51.001 319.603 51.631 312.18 34.494 312.369 33.715 313.602 34.538 324.134 48.374"/>
      <line class="cls-4" x1="340.011" y1="45.601" x2="322.673" y2="51.003"/>
      <polyline class="cls-11" points="341.811 42.999 340.226 45.599 340.117 47.754 322.993 52.96 322.462 51.001 324.134 48.372 341.811 42.999"/>
      <line class="cls-4" x1="358.452" y1="50.378" x2="340.437" y2="45.599"/>
      <polyline class="cls-11" points="357.554 49.39 358.667 50.38 358.188 50.823 341.273 48.781 340.226 45.601 341.811 42.997 357.554 49.39"/>
      <line class="cls-4" x1="358.667" y1="50.378" x2="350.757" y2="36.265"/>
      <line class="cls-4" x1="343.99" y1="33.544" x2="330.688" y2="38.213"/>
      <polyline class="cls-4" points="312.369 33.713 330.688 38.213 322.462 23.128"/>
      <line class="cls-4" x1="315.375" y1="20.806" x2="322.462" y2="23.128"/>
      <line class="cls-4" x1="340.226" y1="45.599" x2="341.284" y2="51.596"/>
      <line class="cls-4" x1="322.462" y1="50.999" x2="316.627" y2="53.382"/>
      <line class="cls-4" x1="358.667" y1="50.376" x2="358.667" y2="58.464"/>
      <line class="cls-4" x1="312.369" y1="33.711" x2="308.671" y2="36.629"/>
      <text class="cls-12" transform="translate(252.329 10.5) scale(1 1.063)"><tspan x="0" y="0">O</tspan></text>
      <text class="cls-12" transform="translate(259.926 10.319) scale(1 1.063)"><tspan x="0" y="0">H</tspan></text>
      <text class="cls-8" transform="translate(220.293 35.425) scale(1 1.063)"><tspan x="0" y="0">O</tspan></text>
      <text class="cls-12" transform="translate(306.096 20.815) scale(1 1.063)"><tspan x="0" y="0">O</tspan></text>
      <text class="cls-12" transform="translate(267.047 54.423) scale(1 1.063)"><tspan x="0" y="0">N</tspan></text>
      <text class="cls-12" transform="translate(275.209 54.363) scale(1 1.063)"><tspan x="0" y="0">H</tspan></text>
      <text class="cls-12" transform="translate(230.206 49.626) scale(1 1.063)"><tspan x="0" y="0">O</tspan></text>
      <text class="cls-12" transform="translate(272.42 26.815) scale(1 1.063)"><tspan x="0" y="0">O</tspan></text>
      <text class="cls-12" transform="translate(345.627 33.44) scale(1 1.063)"><tspan x="0" y="0">O</tspan></text>
      <text class="cls-12" transform="translate(339.635 60.915) scale(1 1.063)"><tspan class="cls-13" x="0" y="0">N</tspan><tspan class="cls-6" x="7.465" y="0">H</tspan></text>
      <text class="cls-12" transform="translate(307.514 58.669) scale(1 1.063)"><tspan x="0" y="0">O</tspan></text>
      <text class="cls-8" transform="translate(353.778 68.912) scale(1 1.063)"><tspan x="0" y="0">O</tspan></text>
      <text class="cls-12" transform="translate(292.999 45.021) scale(1 1.063)"><tspan x="0" y="0">H</tspan></text>
      <text class="cls-12" transform="translate(300.192 45.201) scale(1 1.063)"><tspan x="0" y="0">O</tspan></text>
      <polyline class="cls-4" points="337.394 68.759 342.162 78.865 337.394 89.044 342.162 99.643 337.394 109.402"/>
      <polyline class="cls-4" points="337.394 109.4 342.162 119.445 337.394 129.212 342.162 139.257"/>
      <polyline class="cls-4" points="342.162 139.255 337.394 149.645 342.162 159.128 337.394 169.18"/>
      <line class="cls-4" x1="337.394" y1="169.177" x2="342.162" y2="180.175"/>
      <line class="cls-4" x1="342.162" y1="180.175" x2="337.394" y2="190.209"/>
      <line class="cls-4" x1="337.394" y1="190.211" x2="342.162" y2="199.919"/>
      <text class="cls-12" transform="translate(321.657 72.325) scale(1 1.063)"><tspan x="0" y="0">O</tspan></text>
      <line class="cls-4" x1="337.997" y1="70.025" x2="330.921" y2="70.025"/>
      <line class="cls-4" x1="337.883" y1="67.493" x2="330.919" y2="67.493"/>
      <text class="cls-12" transform="translate(314.52 92.432) scale(1 1.063)"><tspan x="0" y="0">H</tspan></text>
      <text class="cls-12" transform="translate(321.711 92.611) scale(1 1.063)"><tspan x="0" y="0">O</tspan></text>
      <line class="cls-4" x1="331.055" y1="89.044" x2="337.179" y2="89.044"/>
      <polyline class="cls-11" points="330.853 92.099 330.853 85.99 337.146 88.441 337.394 89.044 337.141 89.655 330.853 92.099"/>
      <line class="cls-4" x1="340.211" y1="61.588" x2="337.394" y2="68.759"/>
      <polyline class="cls-4" points="263.499 61.45 268.969 71.973 263.499 82.084"/>
      <line class="cls-4" x1="263.499" y1="82.082" x2="268.969" y2="92.055"/>
      <polyline class="cls-4" points="268.969 92.057 263.499 101.617 268.969 111.867"/>
      <line class="cls-4" x1="268.969" y1="111.867" x2="263.499" y2="121.973"/>
      <polyline class="cls-4" points="263.499 121.973 268.969 132.284 263.499 142.533"/>
      <line class="cls-4" x1="263.499" y1="142.533" x2="268.969" y2="152.234"/>
      <line class="cls-4" x1="268.969" y1="152.234" x2="263.499" y2="162.836"/>
      <polyline class="cls-4" points="263.499 162.834 268.969 172.254 263.499 182.429"/>
      <line class="cls-4" x1="263.499" y1="182.431" x2="268.969" y2="192.616"/>
      <text class="cls-12" transform="translate(247.709 65.013) scale(1 1.063)"><tspan x="0" y="0">O</tspan></text>
      <line class="cls-4" x1="264.153" y1="62.712" x2="256.967" y2="62.712"/>
      <line class="cls-4" x1="264.205" y1="60.182" x2="256.967" y2="60.182"/>
      <text class="cls-12" transform="translate(247.709 83.516) scale(1 1.063)"><tspan x="0" y="0">O</tspan></text>
      <line class="cls-4" x1="257.037" y1="82.082" x2="263.284" y2="82.082"/>
      <polyline class="cls-11" points="256.824 85.141 256.824 79.026 263.271 81.488 263.499 82.082 263.275 82.675 256.824 85.141"/>
      <line class="cls-4" x1="267.056" y1="55.108" x2="263.499" y2="61.45"/>
      <polyline class="cls-4" points="305.788 62.185 310.429 72.708 305.788 82.819"/>
      <line class="cls-4" x1="305.788" y1="82.817" x2="310.429" y2="92.79"/>
      <line class="cls-4" x1="310.429" y1="92.792" x2="305.788" y2="102.352"/>
      <polyline class="cls-4" points="305.788 102.35 310.429 113.076 305.788 123.255"/>
      <polyline class="cls-4" points="305.788 123.257 310.429 133.026 305.788 143.268 310.429 152.973 305.788 163.569 310.429 172.991"/>
      <polyline class="cls-4" points="310.429 172.993 305.788 183.161 310.429 193.338"/>
      <text class="cls-12" transform="translate(290.114 65.753) scale(1 1.063)"><tspan x="0" y="0">O</tspan></text>
      <line class="cls-4" x1="306.348" y1="63.453" x2="299.381" y2="63.453"/>
      <line class="cls-4" x1="306.953" y1="60.921" x2="299.381" y2="60.921"/>
      <text class="cls-12" transform="translate(282.971 86.212) scale(1 1.063)"><tspan x="0" y="0">H</tspan></text>
      <text class="cls-12" transform="translate(290.159 86.39) scale(1 1.063)"><tspan x="0" y="0">O</tspan></text>
      <line class="cls-4" x1="299.517" y1="82.819" x2="305.575" y2="82.819"/>
      <polyline class="cls-11" points="299.302 85.874 299.302 79.763 305.54 82.214 305.788 82.817 305.54 83.425 299.302 85.874"/>
      <line class="cls-4" x1="309.033" y1="58.67" x2="305.788" y2="62.185"/>
      <line class="cls-2" x1="370.208" y1="56.366" x2="370.208" y2="52.364"/>
      <line class="cls-2" x1="372.585" y1="56.366" x2="372.585" y2="52.364"/>
      <line class="cls-2" x1="375.202" y1="65.353" x2="379.935" y2="65.353"/>
      <line class="cls-2" x1="371.4" y1="67.971" x2="371.4" y2="72.88"/>
      <text class="cls-8" transform="translate(368.911 66.582) scale(1 1.063)"><tspan x="0" y="0">P</tspan></text>
      <text class="cls-8" transform="translate(368.637 48.944) scale(1 1.063)"><tspan x="0" y="0">O</tspan></text>
      <text class="cls-8" transform="translate(381.565 68.916) scale(1 1.063)"><tspan x="0" y="0">O</tspan></text>
      <text class="cls-8" transform="translate(389.161 68.748) scale(1 1.063)"><tspan x="0" y="0">H</tspan></text>
      <text class="cls-8" transform="translate(368.637 83.334) scale(1 1.063)"><tspan x="0" y="0">O</tspan></text>
      <text class="cls-8" transform="translate(376.235 83.153) scale(1 1.063)"><tspan x="0" y="0">H</tspan></text>
      <line class="cls-2" x1="363.046" y1="65.353" x2="367.424" y2="65.353"/>
      <line class="cls-2" x1="208.681" y1="25.151" x2="208.681" y2="19.371"/>
      <line class="cls-2" x1="211.057" y1="25.151" x2="211.057" y2="19.369"/>
      <line class="cls-2" x1="205.894" y1="32.003" x2="200.955" y2="32.003"/>
      <line class="cls-2" x1="209.863" y1="36.756" x2="209.863" y2="40.85"/>
      <text class="cls-8" transform="translate(207.393 35.36) scale(1 1.063)"><tspan x="0" y="0">P</tspan></text>
      <text class="cls-8" transform="translate(206.057 16.843) scale(1 1.063)"><tspan x="0" y="0">O</tspan></text>
      <text class="cls-8" transform="translate(184.627 35.395) scale(1 1.063)"><tspan x="0" y="0">H</tspan></text>
      <text class="cls-8" transform="translate(191.807 35.574) scale(1 1.063)"><tspan x="0" y="0">O</tspan></text>
      <text class="cls-8" transform="translate(204.985 51.631) scale(1 1.063)"><tspan x="0" y="0">O</tspan></text>
      <text class="cls-8" transform="translate(197.778 51.631) scale(1 1.063)"><tspan x="0" y="0">H</tspan></text>
      <line class="cls-2" x1="219.399" y1="31.863" x2="214.405" y2="32.003"/>
      <polyline class="cls-4" points="227.941 54.74 233.833 64.697 227.941 74.194"/>
      <line class="cls-4" x1="227.941" y1="74.196" x2="233.833" y2="84.377"/>
      <line class="cls-4" x1="233.833" y1="84.377" x2="227.941" y2="94.144"/>
      <line class="cls-4" x1="227.941" y1="94.142" x2="233.833" y2="104.391"/>
      <polyline class="cls-4" points="233.833 104.391 227.941 114.577 233.833 124.96 227.941 134.86"/>
      <polyline class="cls-4" points="227.941 134.858 233.833 144.833 227.941 154.944 233.833 164.914"/>
      <line class="cls-4" x1="233.833" y1="164.916" x2="227.941" y2="175.032"/>
      <line class="cls-4" x1="227.941" y1="175.03" x2="233.833" y2="185"/>
      <text class="cls-12" transform="translate(212.2 58.301) scale(1 1.063)"><tspan x="0" y="0">O</tspan></text>
      <line class="cls-4" x1="228.685" y1="56.004" x2="221.466" y2="56.004"/>
      <line class="cls-4" x1="228.982" y1="53.469" x2="221.466" y2="53.469"/>
      <text class="cls-12" transform="translate(212.2 77.777) scale(1 1.063)"><tspan x="0" y="0">O</tspan></text>
      <line class="cls-4" x1="221.677" y1="74.196" x2="227.733" y2="74.196"/>
      <polyline class="cls-11" points="221.466 77.253 221.466 71.14 227.737 73.606 227.941 74.196 227.729 74.789 221.466 77.253"/>
      <line class="cls-4" x1="232.007" y1="49.794" x2="227.941" y2="54.74"/>
      <polyline class="cls-4" points="210.636 84.105 216.027 93.942 210.636 104.191 216.027 114.302"/>
      <polyline class="cls-4" points="216.027 114.3 210.636 124.611 216.027 134.581 210.636 144.569"/>
      <line class="cls-4" x1="210.636" y1="144.571" x2="216.027" y2="155.012"/>
      <polyline class="cls-4" points="216.027 155.014 210.636 164.578 216.027 174.749"/>
      <line class="cls-4" x1="216.027" y1="174.749" x2="210.636" y2="184.936"/>
      <line class="cls-4" x1="210.636" y1="184.936" x2="216.027" y2="194.971"/>
      <polyline class="cls-4" points="216.027 194.973 210.636 205.022 216.027 215.193"/>
      <text class="cls-12" transform="translate(194.737 87.956) scale(1 1.063)"><tspan x="0" y="0">O</tspan></text>
      <line class="cls-4" x1="211.325" y1="85.371" x2="204.279" y2="85.371"/>
      <line class="cls-4" x1="211.456" y1="82.844" x2="204.279" y2="82.844"/>
      <line class="cls-4" x1="214.405" y1="78.321" x2="210.636" y2="84.108"/>
      <line class="cls-4" x1="246.5" y1="91.445" x2="251.898" y2="101.277"/>
      <polyline class="cls-4" points="251.898 101.28 246.5 111.527 251.898 121.625 246.5 131.946 251.898 141.923"/>
      <polyline class="cls-4" points="251.898 141.923 246.5 151.894 251.898 162.341"/>
      <polyline class="cls-4" points="251.898 162.34 246.5 171.912 251.898 182.086 246.5 192.263"/>
      <line class="cls-4" x1="246.5" y1="192.263" x2="251.898" y2="202.313"/>
      <text class="cls-12" transform="translate(230.893 95.003) scale(1 1.063)"><tspan x="0" y="0">O</tspan></text>
      <line class="cls-4" x1="247.202" y1="92.707" x2="240.146" y2="92.707"/>
      <line class="cls-4" x1="247.327" y1="90.177" x2="240.146" y2="90.177"/>
      <line class="cls-4" x1="250.011" y1="86.043" x2="246.5" y2="91.445"/>
    </g>
    <text class="cls-9" transform="translate(206.6 228.737)"><tspan x="0" y="0">14</tspan></text>
    <text class="cls-9" transform="translate(221.678 197.289)"><tspan x="0" y="0">14</tspan></text>
    <text class="cls-7" transform="translate(246.5 213.589)"><tspan x="0" y="0">12</tspan></text>
    <text class="cls-9" transform="translate(263.286 205.085)"><tspan x="0" y="0">14</tspan></text>
    <text class="cls-9" transform="translate(302.866 204.706)"><tspan x="0" y="0">14</tspan></text>
    <text class="cls-9" transform="translate(337.18 210.815)"><tspan x="0" y="0">14</tspan></text>
  </g>
  <text class="cls-10" transform="translate(228.983 304.165)"><tspan x="0" y="0">Lipid A</tspan></text>
  <text class="cls-10" transform="translate(29.68 304.165)"><tspan x="0" y="0">에리토란</tspan></text>
</svg>