<?xml version="1.0" encoding="utf-8"?>
<!-- Generator: Adobe Illustrator 28.0.0, SVG Export Plug-In . SVG Version: 6.00 Build 0)  -->
<svg version="1.1" xmlns="http://www.w3.org/2000/svg" xmlns:xlink="http://www.w3.org/1999/xlink" x="0px" y="0px"
	 viewBox="0 0 979.109 1131.441" enable-background="new 0 0 979.109 1131.441" xml:space="preserve">
<g id="Back">
</g>
<g id="Front">
	<g>
		<path fill="#FFE2DB" d="M836.598,282.828c-0.444,1.216-0.985,2.432-1.585,3.671c2.483,0.745,4.971,1.63,7.423,2.494
			c4.18,1.473,6.352,3.984,8.349,7.829l0.518,0.997c2.462,4.688,4.543,10.028,6.184,15.87c3.908,13.908,5.371,28.835,6.785,43.27
			l0.072,0.735c1.518,15.482,0.629,29.659-2.719,43.341c-0.568,2.321-1.233,4.619-1.976,6.827
			c-2.359,7.018-5.032,14.973-10.073,20.584c-7.664,8.533-19.835,12.859-36.175,12.859c-9.214,0-18.423-1.513-27.329-2.977
			c-2.711-0.445-5.512-0.906-8.292-1.321c-4.784-1.186-9.831-1.775-14.713-2.346c-2.368-0.277-4.817-0.562-7.147-0.91
			c-1.513-0.225-3.042-0.418-4.575-0.611c-5.297-0.668-10.774-1.358-15.513-3.514c-3.199-1.446-5.171-3.168-5.866-5.122l-1.861-5.23
			l-4.764,2.85c-0.886,0.53-1.762,1.006-2.607,1.414c-0.971,0.461-1.898,0.848-2.818,1.177c-4.138,1.52-8.575,2.196-14.406,2.196
			c-2.674,0-5.332-0.133-8.147-0.273l-2.047-0.1c-4.01-0.189-8.063-0.284-12.046-0.284c-11.14,0-22.424,0.751-33.539,2.233
			c-11.345,1.5-23.349,3.664-35.678,6.428c-6.105,1.372-12.268,3.06-18.229,4.693c-8.103,2.22-18.187,4.982-27.968,6.566
			c-5.979,0.968-12.04,1.509-18.094,1.641c-3.877,0.085-8.46,0.073-11.714-2.362c-1.394-1.043-2.355-2.511-2.832-4.18
			c-7.206,6.703-20.924,11.542-30.074,11.542c-6.913,0-13.888-1.274-19.64-3.587c-9.828-3.952-17.365-9.171-22.401-15.514
			c-11.094-13.973-13.97-35.225-7.506-55.463c0,0,2.105-6.494,2.962-9.272c-9.681,4.063-23.002,7.01-33.111,7.011
			c-22.777,0.001-48.424-3.575-57.736-17.113c-3.308-4.81-6.51-11.797-4.462-19.316l1.842-4.809l-4.998-1.237
			c-4.329-1.071-7.596-3.612-9.711-7.553c-5.741-10.694-3.135-30.499,1.995-45.384l0.586-0.607l0.009-1.058
			c12.559-34.868,26.291-52.667,40.814-52.903l7.529-0.122c0,0-2.715-6.445-0.063-14.134c3.136-9.096,22.372-21.529,55.515-39.196
			c2.438-1.298,5.024-2.762,7.761-4.312c11.994-6.793,26.87-15.22,39.699-15.22c3.869,0,7.263,0.746,10.376,2.282l2.113,1.042
			c0,0,0.534,0,0.536,0c1.052,0,1.238-0.214,2.982-2.233c0.838-0.969,2.398-2.774,2.698-3.069c1.021-0.899,2.344-1.787,4.005-2.678
			c6.201-3.324,13.084-4.124,20.371-4.971c1.316-0.153,2.631-0.306,3.941-0.474c9.56-1.229,19.278-2.076,28.885-2.518
			c5.271-0.242,10.579-0.365,15.777-0.365c4.628,0,9.304,0.096,13.896,0.286c2.024,0.085,4.35,0.105,6.813,0.126
			c12.635,0.109,31.657,0.273,37.027,9.375l2.453,4.16l2.004-1.35c1.905-1.283,3.507-2.362,5.418-3.047
			c2.115-0.758,4.509-1.142,7.116-1.142c5.406,0,11.18,1.637,16.115,3.238c6.39,2.074,12.372,4.656,19.527,7.817
			c2.431,1.073,4.72,2.084,6.722,2.906c20.08,8.253,39.073,18.788,56.45,31.312c1.284,0.925,2.671,1.868,3.895,2.7
			c7.127,4.846,13.859,9.423,14.291,16.963l0.341,5.959l5.657-1.907c0.439-0.148,0.856-0.217,1.311-0.217
			c4.684,0,10.526,7.111,15.634,13.776c1.086,1.417,2.111,2.755,3.03,3.846c1.092,1.297,2.366,2.755,3.758,4.347
			c5.126,5.866,10.219,11.796,14.57,18.271c3.123,4.648,6.071,9.698,7.425,15.18C838.276,276.338,837.783,279.583,836.598,282.828z"
			/>
	</g>
	<path fill="#FAC1B4" d="M672.282,365.967c4.142-10.125,5.878-20.998,4.114-31.992c-0.601-3.78-1.509-7.387-2.672-10.834
		l0.027-0.013c0.146,0.468,0.32,0.922,0.507,1.376c0.694,1.683,1.642,3.259,2.925,4.675c0.4,0.441,0.828,0.855,1.269,1.243
		c10.62,9.511,31.819,5.063,35.88-9.364c8-28.398-41.424-54.259-61.099-63.61c-34.249-16.243-74.243-22.695-112.287-17.218
		c-31.458,4.515-73.588,18.687-80.334,54.7c-1.376,7.361-0.147,15.282,4.007,21.573c5.037,7.614,11.956,9.604,20.384,11.247
		c5.21,1.015,10.767,3.126,14.428,7.133c2.004,2.191,3.513,4.782,4.594,7.547c2.231,5.704,2.659,12.156,1.389,18.127
		c-0.173,0.802-0.387,1.603-0.641,2.377c-39.513,0.614-78.265-29.601-69.261-78.156c9.07-48.997,81.363-81.483,155.191-76.207
		c76.221,5.437,142.678,46.032,147.867,90.66C745.055,354.984,701.309,384.361,672.282,365.967z"/>
	<g>
		<path fill="#FAC1B4" d="M726.802,519.844c-12.811,0-24.754-5.628-34.537-16.274c-15.724-17.113-24.427-45.376-22.171-72.002
			c1.73-20.555,9.848-37.379,22.859-47.374c6.277-4.821,13.108-7.165,20.884-7.165c11.8,0,25.56,5.512,42.065,16.852l1.171,0.812
			c7.874,5.49,16.325,8.784,24.498,11.969c3.453,1.345,7.02,2.735,10.548,4.29c12.493,5.503,24.438,11.064,33.272,18.564
			c4.429,3.763,7.684,8.454,9.165,13.209l0.178,0.587l0.22,0.834l0.033,0.137c0.041,0.159,0.075,0.315,0.104,0.466
			c0.19,0.924,0.31,1.754,0.374,2.569c0.519,6.441-3.512,12.841-12.684,20.147c-4.996,3.98-10.816,7.641-15.951,10.871
			c-4.05,2.548-7.864,4.948-10.82,7.205l-1.133,0.866c-4.756,3.633-9.654,7.375-14.541,10.865
			c-10.501,7.508-18.887,12.482-27.193,16.13c-5.327,2.342-10.401,4.04-15.516,5.194
			C733.963,519.424,730.321,519.844,726.802,519.844z"/>
	</g>
	<g>
		<path fill="#E69888" d="M485.005,327.751c5.21,1.015,10.767,3.126,14.428,7.133c2.004,2.191,3.513,4.782,4.594,7.547
			c2.231,5.704,2.659,12.156,1.389,18.127c-0.173,0.802-0.387,1.603-0.641,2.377c-1.055,3.339-2.765,6.479-4.782,9.297
			c-1.991,2.766-4.649,4.689-7.173,6.893c-2.004,1.75-9.004,7.64-6.439,10.753c1.576,1.924,6.893,1.216,8.897,0.428
			c0.869-0.321,6.037-2.044,6.305-2.698c-0.227,0.588-0.467,1.175-0.708,1.75c-2.657,6.558-5.395,13.344-7.332,20.223
			c-0.027,0.121-0.053,0.227-0.067,0.348c-0.081,0.734,0.253,1.469,0.895,1.883c0.28,0.187,0.587,0.281,0.908,0.321
			c0.52,0.04,1.042-0.107,1.456-0.441c0.16-0.134,0.321-0.254,0.481-0.374c7.76-6.265,16.002-11.942,24.659-16.884
			c8.349-4.769,17.646-10.419,27.437-11.22c6.292-0.521,17.618-1.977,22.574,3.259c3.834,4.047,6.212,8.99,9.258,13.679
			c1.602,2.484,3.406,4.902,5.716,7.079c2.899,3.5,0.04,8.068-4.1,9.297c-5.277,0.668-10.472,0.494-15.001,2.552
			c-1.764,0.801-3.419,1.95-4.943,3.62c-7.694,7.974-9.764,18.126-9.297,28.091l0.04,0.802c0,0.08,0,0.16,0.013,0.241
			c0.214,2.752,1.697,7.614,2.192,9.217c1.336,4.368,2.565,7.12,3.873,10.031c0.695,1.523,1.402,3.112,2.151,4.969
			c0.481,1.202,0.895,2.191,1.295,3.112l0.054,0.12c0.267,0.601,0.507,1.149,0.749,1.67c0.307,0.654,0.614,1.296,0.921,1.923
			c0.227,0.481,0.454,0.935,0.695,1.389c0.24,0.481,0.48,0.948,0.734,1.416l0.04,0.053l0.026,0.053
			c0.013,0.053,0.053,0.093,0.067,0.147l0.081,0.147l0.16,0.267c0.146,0.267,0.294,0.548,0.454,0.815l0.08,0.134
			c0.053,0.12,0.12,0.227,0.187,0.334c0,0,0.014,0.04,0.04,0.067c0.188,0.334,0.387,0.668,0.588,1.002
			c0.227,0.387,0.441,0.735,0.668,1.082c0.307,0.507,0.627,0.989,0.948,1.47c0.534,0.802,1.042,1.536,1.563,2.231
			c0.253,0.361,0.521,0.708,0.788,1.055c0.28,0.374,0.588,0.735,0.882,1.109c0.16,0.2,0.334,0.4,0.494,0.601
			c0.187,0.227,0.373,0.44,0.587,0.681c0.173,0.2,0.334,0.387,0.507,0.575c0,0,0.027,0.027,0.04,0.04
			c0.28,0.321,0.561,0.628,0.856,0.935c0.28,0.293,0.561,0.588,0.841,0.868c0.067,0.053,0.133,0.12,0.2,0.187
			c0.295,0.294,0.601,0.588,0.909,0.868l0.053,0.053c0.067,0.067,0.146,0.147,0.227,0.214c0.28,0.267,0.574,0.52,0.854,0.761
			c0.841,0.734,1.71,1.429,2.631,2.111c0.334,0.254,0.695,0.507,1.055,0.748l0.053,0.04c0.027,0.027,0.067,0.04,0.094,0.067
			c0,0,0.173,0.107,0.187,0.121c0.334,0.227,0.695,0.467,1.149,0.748c0,0,0.187,0.12,0.2,0.133l0.147,0.08
			c0.201,0.121,0.401,0.254,0.614,0.374c0.961,0.561,1.91,1.068,2.926,1.549c0.32,0.147,0.641,0.294,0.974,0.455
			c2.485,0.854,5.21,1.322,7.882,1.322c2.885,0,5.65-0.547,7.987-1.59c0.348-0.16,1.991-1.082,2.419-1.336l7.199-4.448l-4.435,7.2
			c-3.379,5.504-5.65,12.49-7.84,19.262c-1.323,7.948,1.321,16.123,8.308,25.701c1.17,1.357,2.317,2.715,3.445,4.074h61.059
			c-0.325-1.235-0.65-2.468-0.974-3.713c-1.321-5.009-2.618-10.059-3.913-15.108c-2.111-8.268-3.967-16.497-5.651-24.726
			c-4.928-23.884-8.535-47.767-13.424-72.226c-0.655-3.112-1.362-6.211-2.137-9.27c-2.338-9.35-5.236-18.461-9.417-27.384
			c-1.31-2.819-2.752-5.611-4.341-8.389c-2.284-3.874-5.197-7.106-8.456-9.911c-4.649-4.047-10.046-7.199-15.455-10.085
			c-11.836-5.023-24.886-7.107-37.682-5.931c-13.959,1.282-28.359,6.986-40.928,13.024c-13.572,6.532-25.461,14.774-32.727,20.25
			c1.109-3.179,2.618-6.251,3.873-9.377c1.203-3.032,4.221-7.066,4.515-10.299c0.361-4.007-4.288-3.74-6.812-2.511
			c-1.937,0.948-3.806,2.298-5.958,2.338c-0.227,0-0.454-0.013-0.627-0.147c-0.481-0.401,0.039-1.149,0.534-1.536
			c2.992-2.338,6.225-5.45,8.456-8.55c1.657-2.311,2.886-4.435,3.808-7.119c0.48-1.349,0.734-2.992,1.321-4.395
			c0.361-0.882,0.856-1.67,1.603-2.258c2.645-2.057,5.944-4.929,5.864-8.602c-0.093-3.78-3.806-6.986-6.812-8.722
			c-2.698-1.55-2.792-5.918-4.275-8.389c-2.083-3.486-5.703-6.238-9.404-7.828c-4.875-2.097-10.406-2.738-14.133-6.892
			c-10.378-11.582-2.404-27.144,7.227-36.494c5.624-5.463,12.343-9.684,19.45-12.917c42.291-19.262,102.107-12.129,141.473,11.822
			c7.505,4.555,9.66,11.446,14.001,19.234c7.402,13.279,9.395,34.362,29.977,33.887c9.014-0.208,18.357-5.626,20.928-14.758
			c8-28.398-41.424-54.259-61.099-63.61c-34.249-16.243-74.243-22.695-112.287-17.218c-31.458,4.515-73.588,18.687-80.334,54.7
			c-1.376,7.361-0.147,15.282,4.007,21.573C469.658,324.117,476.577,326.108,485.005,327.751z"/>
	</g>
	<path fill="#D17360" d="M559.783,391.962c-4.883,0.221-9.01,4.391-9.292,9.383c-0.209,3.698,2.224,7.387,5.931,8.194
		c4.309,0.938,8.314-2.601,10.393-6.025c1.329-2.189,2.005-5.135,0.667-7.463c-1.191-2.073-3.365-3.545-5.712-3.959
		C561.099,391.973,560.434,391.932,559.783,391.962z"/>
	<g>
		
			<ellipse transform="matrix(0.094 -0.9956 0.9956 0.094 206.5774 888.0072)" fill="#F7AA99" cx="591.205" cy="330.499" rx="29.097" ry="44.558"/>
	</g>
	<g>
		<path fill="#F7AA99" d="M676.998,345.65c-0.107,1.95-0.321,3.887-0.614,5.811c-0.775,4.956-2.177,9.804-4.101,14.506
			c-2.537,6.252-5.998,12.209-10.125,17.753c-3.126,4.195-6.625,8.148-10.378,11.781c-0.721,0.695-1.456,1.376-2.192,2.044
			c-0.146,0.134-0.28,0.254-0.427,0.387c-3.153,2.818-6.599,5.383-10.245,7.681c-9.524,6.078-20.452,10.433-31.352,13.398
			c-10.498,2.846-23.71,5.677-34.463,2.512c-2.044-0.601-3.834-1.443-5.343-2.445c-6.879-4.582-7.614-12.53,3.099-16.484
			c3.312-1.229,6.786-1.897,10.286-2.444c3.713-0.588,7.467-1.042,11.1-1.897c11.581-2.738,23.457-5.436,33.876-10.94
			c2.19-1.149,4.301-2.431,6.345-3.86c6.906-4.836,12.69-10.954,16.924-17.9c0.173-0.293,0.36-0.588,0.521-0.895
			c2.898-4.956,5.022-10.312,6.199-15.922c0.32-1.496,0.561-2.966,0.734-4.422c5.517-45.897-56.21-73.722-97.953-55.796
			c-3.767,1.616-7.347,3.607-10.646,5.944c-2.365,1.697-4.57,3.579-6.586,5.624c-2.43,2.484-4.622,5.17-6.491,8.028
			c-1.109,1.696-2.9,7.186-5.116,7.668c-4.382,0.948-0.601-8.897-0.121-10.232c6.92-18.928,25.821-29,45.979-31.738
			c41.155-5.598,85.169,11.995,97.819,49.33c1.162,3.446,2.07,7.053,2.672,10.834C677.024,337.889,677.212,341.79,676.998,345.65z"
			/>
	</g>
	<g>
		<g>
			<path fill="#FAC1B4" d="M369.146,311.599c3.718-3.45,6.762-7.46,8.958-11.868c2.236-4.408,3.332-9.187,4.083-14.149
				c0.843-4.923,1.473-10.102,3.614-14.906c1.037-2.384,2.431-4.64,4.205-6.552c1.773-1.904,3.995-3.418,6.435-4.147
				c-2.228,1.226-4.097,2.907-5.527,4.904c-0.739,0.977-1.366,2.035-1.916,3.127c-0.556,1.089-1.05,2.211-1.454,3.368
				c-0.822,2.307-1.39,4.691-1.803,7.149c-0.443,2.446-0.789,4.936-1.18,7.448c-0.435,2.504-0.913,5.038-1.675,7.526
				c-0.784,2.482-1.805,4.898-3.137,7.124C377.126,305.091,373.477,308.941,369.146,311.599z"/>
		</g>
		<g>
			<path fill="#FAC1B4" d="M384.295,330.53c1.786,5.505,5.759,9.758,10.239,13.041c2.27,1.628,4.669,3.083,7.189,4.305
				c2.508,1.244,5.104,2.321,7.768,3.199c2.651,0.916,5.369,1.649,8.123,2.193c2.749,0.58,5.541,0.923,8.342,1.124
				c5.591,0.323,11.318-0.072,16.655-2.239c-2.421,1.561-5.201,2.56-8.032,3.216c-2.844,0.63-5.766,0.911-8.681,0.901
				c-5.838-0.004-11.646-1.065-17.176-2.915c-5.506-1.9-10.816-4.558-15.339-8.309c-2.259-1.864-4.296-4.023-5.922-6.464
				C385.858,336.139,384.669,333.388,384.295,330.53z"/>
		</g>
		<g>
			<path fill="#FAC1B4" d="M429.267,328.392c-4.159-10.519-7.711-21.467-8.665-32.935c-0.501-5.716-0.245-11.523,0.805-17.203
				c1.075-5.672,3.031-11.223,5.994-16.244c1.495-2.497,3.279-4.839,5.194-6.986c1.912-2.155,3.917-4.172,5.849-6.211
				c1.93-2.033,3.8-4.113,5.335-6.375c1.53-2.266,2.8-4.724,3.535-7.328c0.737-2.594,0.92-5.351,0.251-7.945
				c-0.675-2.591-2.11-4.989-4.075-6.917c-1.917-1.984-4.267-3.562-6.716-4.938c-2.461-1.367-5.05-2.525-7.647-3.661
				c2.69,0.893,5.37,1.851,7.94,3.094c2.567,1.236,5.079,2.688,7.242,4.654c2.178,1.93,3.893,4.486,4.777,7.345
				c0.888,2.88,0.751,5.985,0.045,8.848c-0.705,2.884-1.998,5.568-3.595,8.016c-1.603,2.463-3.499,4.648-5.423,6.76
				c-1.928,2.109-3.922,4.111-5.751,6.212c-1.841,2.093-3.486,4.292-4.893,6.664c-2.842,4.727-4.721,10.015-5.83,15.45
				c-1.135,5.442-1.439,11.051-1.168,16.637C423.081,306.533,425.979,317.558,429.267,328.392z"/>
		</g>
		<g>
			<path fill="#FAC1B4" d="M447.838,231.926c2.238-2.478,4.916-4.502,7.727-6.198c2.805-1.721,5.758-3.116,8.685-4.473
				c2.931-1.362,5.843-2.673,8.6-4.22c2.755-1.547,5.408-3.266,7.711-5.362c2.281-2.098,4.246-4.556,5.411-7.389
				c0.329-0.692,0.518-1.438,0.769-2.162c0.167-0.752,0.396-1.488,0.492-2.262c0.286-1.523,0.382-3.099,0.454-4.676
				c0.102-3.167-0.053-6.392,0.073-9.645c0.073-3.239,0.519-6.551,1.74-9.552c-0.736,3.156-0.804,6.353-0.638,9.544
				c0.173,3.191,0.519,6.4,0.538,9.678c-0.004,3.262-0.323,6.667-1.642,9.813c-1.25,3.163-3.374,5.889-5.789,8.173
				c-2.444,2.272-5.189,4.153-8.054,5.747c-2.87,1.599-5.846,2.925-8.761,4.269c-2.917,1.35-5.806,2.704-8.539,4.284
				c-2.735,1.575-5.27,3.442-7.452,5.664L447.838,231.926z"/>
		</g>
		<g>
			<path fill="#FAC1B4" d="M516.227,156.471c1.565,2.218,2.718,4.712,3.555,7.305c0.838,2.595,1.366,5.301,1.557,8.031
				c0.2,2.729,0.057,5.482-0.404,8.17c-0.462,2.686-1.253,5.318-2.492,7.734c0.276-2.697,0.523-5.316,0.624-7.932
				c0.102-2.614,0.049-5.213-0.128-7.802c-0.186-2.589-0.502-5.168-0.971-7.742C517.499,161.659,516.884,159.101,516.227,156.471z"
				/>
		</g>
		<g>
			<path fill="#FAC1B4" d="M397.731,225.806c2.068,0.658,4.015,1.521,5.918,2.454c1.903,0.935,3.763,1.94,5.575,3.027
				c1.816,1.08,3.579,2.248,5.302,3.484c1.722,1.237,3.4,2.547,4.955,4.063c-2.07-0.656-4.017-1.517-5.92-2.451
				c-1.902-0.936-3.764-1.939-5.573-3.031c-1.813-1.084-3.578-2.25-5.3-3.487C400.966,228.628,399.287,227.319,397.731,225.806z"/>
		</g>
		<g>
			<path fill="#FAC1B4" d="M489.166,200.691c0.367,1.201,0.952,2.283,1.779,3.125c0.833,0.836,1.901,1.428,3.088,1.807
				c2.394,0.75,5.139,0.692,7.816,0.349c5.415-0.735,10.682-2.556,16.079-4.302c10.914-3.327,22.105-5.38,33.339-6.767
				c5.616-0.699,11.241-1.259,16.864-1.763l8.429-0.725c2.759-0.252,5.506-0.628,8.19-1.261c5.352-1.254,10.564-3.409,14.795-6.949
				c4.214-3.503,7.554-8.3,8.675-13.865c-0.497,5.666-3.549,10.991-7.755,14.907c-4.236,3.974-9.657,6.498-15.214,7.932
				c-2.787,0.73-5.63,1.206-8.482,1.484l-8.413,0.825c-5.601,0.569-11.19,1.194-16.755,1.955
				c-11.111,1.561-22.184,3.573-32.854,6.827c-5.308,1.728-10.772,3.626-16.571,4.329c-2.89,0.326-5.931,0.417-8.939-0.547
				c-1.488-0.486-2.953-1.308-4.086-2.507c-1.134-1.197-1.879-2.69-2.299-4.192L489.166,200.691z"/>
		</g>
		<g>
			<path fill="#FAC1B4" d="M654.067,153.719c0.834,1.133,1.272,2.572,1.379,4.029c0.088,1.462-0.135,2.938-0.563,4.323
				c-0.856,2.785-2.356,5.267-4.041,7.512c-1.644,2.196-3.325,4.292-4.649,6.572c-1.311,2.271-2.284,4.75-2.149,7.564
				c-0.576-1.283-0.74-2.76-0.629-4.205c0.133-1.447,0.531-2.866,1.093-4.189c1.123-2.658,2.755-4.995,4.412-7.189
				c1.607-2.147,3.13-4.337,4.209-6.714C654.19,159.057,654.8,156.448,654.067,153.719z"/>
		</g>
		<g>
			<path fill="#FAC1B4" d="M770.581,341.131c-3.205,3.232-5.68,6.988-7.459,11.02c-1.754,4.037-2.848,8.35-3.06,12.701
				c-0.254,4.341,0.406,8.737,2.154,12.716c1.744,3.987,4.672,7.443,8.365,10.109c-4.192-1.78-7.84-5.108-10.052-9.281
				c-1.142-2.067-1.89-4.336-2.38-6.641c-0.458-2.316-0.595-4.684-0.49-7.03c0.277-4.691,1.57-9.296,3.781-13.394
				C763.629,347.24,766.732,343.592,770.581,341.131z"/>
		</g>
		<g>
			<path fill="#FAC1B4" d="M637.525,201.281c3.296-0.802,6.874-0.238,10.053,0.989c3.213,1.211,6.18,2.898,9.114,4.501
				c1.471,0.794,2.943,1.561,4.421,2.264c1.481,0.686,3.005,1.269,4.56,1.732c3.1,0.939,6.335,1.446,9.524,1.236
				c3.192-0.148,6.302-1.031,9.057-2.621c2.768-1.551,5.104-3.853,6.627-6.617c1.52-2.775,2.026-6.068,2.168-9.381
				c0.187-3.319,0.061-6.735,0.588-10.074c0.007,3.372,0.449,6.683,0.594,10.082c0.058,1.698,0.034,3.42-0.193,5.151
				c-0.232,1.727-0.718,3.452-1.48,5.068c-1.515,3.245-4.128,5.885-7.144,7.733c-3.034,1.843-6.566,2.861-10.084,3.061
				c-3.53,0.181-7.044-0.387-10.344-1.471c-3.31-1.087-6.383-2.753-9.234-4.544c-2.879-1.758-5.648-3.623-8.633-5.037
				C644.17,201.883,640.903,201.019,637.525,201.281z"/>
		</g>
		<g>
			<path fill="#FAC1B4" d="M684.49,209.341c4.253,1.931,8.982,2.808,13.736,2.957c4.766,0.152,9.571-0.385,14.313-1.253
				c9.49-1.738,18.863-4.704,28.568-5.49c-9.663,1.189-18.818,4.517-28.326,6.67c-4.758,1.074-9.629,1.831-14.575,1.879
				c-4.931,0.049-9.972-0.651-14.661-2.548L684.49,209.341z"/>
		</g>
		<g>
			<path fill="#FAC1B4" d="M786.052,218.702c0.065,3.197-1.037,6.47-2.987,9.155c-0.954,1.364-2.169,2.547-3.501,3.572
				c-1.349,1-2.817,1.774-4.269,2.47c-1.473,0.661-2.936,1.249-4.359,1.856c-1.442,0.582-2.794,1.233-4.088,1.991
				c-2.539,1.552-4.894,3.628-5.84,6.712c-0.048-1.602,0.499-3.245,1.385-4.647c0.891-1.409,2.079-2.611,3.393-3.615
				c2.659-2.053,5.729-3.158,8.497-4.48c2.823-1.245,5.314-2.794,7.325-5.033C783.619,224.466,785.122,221.75,786.052,218.702z"/>
		</g>
		<g>
			<path fill="#FAC1B4" d="M835.254,286.645c-4.005,0.089-7.871,1.326-11.145,3.446c-3.305,2.071-6.043,4.953-8.082,8.205
				c-2.013,3.268-3.248,7.007-3.809,10.812c-0.586,3.813-0.495,7.731,0.114,11.562c0.29,1.918,0.695,3.824,1.238,5.693
				c0.534,1.881,1.203,3.778,1.693,5.78c0.492,1.991,0.834,4.115,0.64,6.288c-0.158,2.173-1.05,4.327-2.42,5.999
				c-2.765,3.382-6.966,5.053-11.035,5.37c-4.106,0.276-8.091-0.442-11.986-1.297c3.975,0.321,7.989,0.782,11.847,0.125
				c3.81-0.559,7.482-2.391,9.688-5.346c1.076-1.48,1.705-3.199,1.803-5.018c0.111-1.817-0.226-3.689-0.744-5.549
				c-0.507-1.865-1.161-3.74-1.744-5.69c-0.588-1.96-1.039-3.962-1.359-5.988c-0.596-4.052-0.687-8.216,0.019-12.289
				c0.733-4.052,2.108-8.048,4.483-11.47c2.336-3.412,5.447-6.276,9.063-8.202C827.141,287.203,831.258,286.188,835.254,286.645z"/>
		</g>
		<g>
			<path fill="#FAC1B4" d="M816.06,338.723c-0.24,2.583,0.926,5.371,2.743,7.491c1.866,2.108,4.458,3.69,7.01,5.261
				c2.549,1.577,5.232,3.219,7.212,5.598c0.995,1.165,1.834,2.479,2.372,3.911c0.548,1.428,0.734,2.99,0.485,4.48
				c0.148-1.505-0.141-3.016-0.764-4.365c-0.614-1.353-1.508-2.564-2.54-3.621c-2.054-2.157-4.71-3.55-7.363-4.958
				c-2.654-1.413-5.418-2.805-7.737-5.079c-2.216-2.292-3.874-5.36-3.822-8.858L816.06,338.723z"/>
		</g>
		<g>
			<path fill="#FAC1B4" d="M854.223,421.473c-1.27,2.614-3.565,4.677-6.132,6.127c-2.588,1.415-5.589,2.31-8.679,2.101
				c-3.067-0.173-6.04-1.371-8.493-3.209c-2.472-1.829-4.351-4.422-5.603-7.14c-2.501-5.467-3.131-11.292-5.914-16.025
				c-1.343-2.371-3.382-4.283-5.717-5.851c-2.329-1.588-4.933-2.823-7.496-4.139c2.76,0.822,5.498,1.76,8.104,3.126
				c2.569,1.377,5.041,3.292,6.692,5.854c3.405,5.083,4.154,11.078,6.511,16.018c1.111,2.504,2.706,4.7,4.815,6.361
				c2.069,1.699,4.612,2.782,7.271,3.141c2.649,0.336,5.437-0.201,7.989-1.292C850.127,425.457,852.504,423.794,854.223,421.473z"/>
		</g>
		<g>
			<path fill="#FAC1B4" d="M718.561,254.8c4.266,0.247,8.51-0.002,12.35-1.358c3.83-1.351,7.117-3.857,9.465-7.132
				c1.205-1.619,2.145-3.433,2.988-5.302c0.812-1.883,1.411-3.861,2.004-5.901c0.575-2.035,1.179-4.114,1.993-6.125
				c0.817-2.005,1.916-3.94,3.414-5.476c-2.272,3.669-2.833,7.85-3.675,12.024c-0.759,4.196-2.165,8.539-4.789,12.18
				c-1.3,1.824-2.919,3.439-4.754,4.751c-1.849,1.295-3.928,2.248-6.081,2.818C727.147,256.421,722.638,256.065,718.561,254.8z"/>
		</g>
		<g>
			<path fill="#FAC1B4" d="M736.87,249.921c1.957-1.719,4.474-2.355,6.793-2.491c2.35-0.13,4.635,0.177,6.845,0.664
				c4.421,1.001,8.575,2.731,12.528,4.779c3.947,2.067,7.692,4.502,11.149,7.312c3.42,2.828,6.677,6,8.894,9.981
				c0.542,0.992,0.996,2.071,1.283,3.169c0.303,1.082,0.541,2.181,0.699,3.291c0.339,2.217,0.386,4.467,0.201,6.689
				c-0.355,4.45-1.683,8.782-3.685,12.727c-1.987,3.949-4.415,7.624-6.279,11.593c-0.927,1.981-1.712,4.042-2.115,6.197
				c-0.409,2.148-0.388,4.392,0.179,6.52c-0.617-2.113-0.692-4.371-0.33-6.547c0.356-2.182,1.101-4.281,1.987-6.297
				c1.784-4.039,4.135-7.784,6.007-11.735c1.882-3.932,3.074-8.194,3.318-12.523c0.129-2.16,0.032-4.333-0.344-6.455
				c-0.176-1.062-0.43-2.11-0.743-3.137c-0.293-1.023-0.719-1.974-1.25-2.899c-2.156-3.684-5.381-6.715-8.771-9.386
				c-3.426-2.66-7.14-4.959-11.024-6.882c-3.885-1.906-7.958-3.486-12.142-4.332c-2.085-0.413-4.207-0.637-6.249-0.476
				c-2.031,0.161-3.989,0.772-5.338,2.023c-0.487,0.453-1.249,0.425-1.701-0.061c-0.453-0.487-0.425-1.249,0.061-1.701
				C736.851,249.938,736.864,249.927,736.87,249.921z"/>
		</g>
		<g>
			<path fill="#FAC1B4" d="M533.323,441.912c0.546-2.325,0.943-4.573,1.152-6.832c0.206-2.256,0.214-4.506,0.071-6.748
				c-0.152-2.242-0.448-4.479-0.903-6.711c-0.456-2.234-1.06-4.452-1.699-6.755c1.529,1.838,2.677,3.978,3.505,6.238
				c0.828,2.261,1.349,4.651,1.499,7.073c0.159,2.42-0.048,4.869-0.629,7.22C535.741,437.743,534.775,440.009,533.323,441.912z"/>
		</g>
	</g>
	<path fill="#D17360" d="M667.805,310.832c-0.501-4.732-1.701-9.317-3.348-13.709c-3.319-8.782-8.639-16.728-15.245-23.288
		c-6.574-6.615-14.425-11.798-22.713-15.679c-4.135-1.992-8.438-3.516-12.774-4.832c-2.174-0.627-4.36-1.218-6.562-1.671
		c-2.194-0.527-4.403-0.893-6.611-1.282c-2.208-0.386-4.423-0.608-6.634-0.915c-2.211-0.191-4.426-0.417-6.633-0.574
		c-4.434-0.302-8.792-0.438-13.26-0.4c-17.906,0.246-35.413,3.981-51.97,10.602c-8.28,3.344-16.346,7.414-24.001,12.811
		c-3.807,2.73-7.518,5.792-10.93,9.573c-1.711,1.869-3.319,3.968-4.766,6.306c-1.466,2.363-2.664,4.74-3.635,7.388
		c-1.93,5.229-2.766,11.214-1.884,17.294c0.889,6.058,3.685,12.08,7.856,16.782c2.086,2.347,4.466,4.385,6.988,6.101
		c2.525,1.718,5.218,3.056,7.927,4.176c2.455,0.989,6.071,2.536,8.557,3.134c9.927,10.926,25.945,18.228,46.018,20.124
		c33.067,3.123,61.527-11.85,63.566-33.443c0.904-9.56-3.531-18.812-11.616-26.43l24.465-24.775c3.031,1.891,5.905,4.003,8.58,6.332
		c5.595,4.915,10.277,10.886,13.383,17.603c1.543,3.351,2.743,6.871,3.384,10.448c0.322,1.786,0.53,3.583,0.585,5.36
		c0.034,1.906,0.01,3.959-0.077,5.927c-0.354,7.942-1.561,15.861-3.967,23.395c-2.415,7.513-5.888,14.718-10.697,20.995
		c-2.388,3.146-5.055,6.091-7.98,8.788c-2.956,2.662-6.153,5.073-9.529,7.253c-3.411,2.124-6.996,4.004-10.715,5.635
		c-3.745,1.566-7.576,2.998-11.534,4.074c-7.886,2.247-28.114,3.461-36.387,4.132c-0.82,0.068-1.464,0.762-1.449,1.596
		c0.015,0.869,0.733,1.503,1.6,1.546c11.996,0.592,29.008-0.853,37.389-2.674c4.2-0.862,8.332-2.107,12.417-3.521
		c4.065-1.482,8.044-3.252,11.891-5.324c3.816-2.13,7.493-4.549,10.951-7.289c3.427-2.776,6.614-5.87,9.514-9.226
		c5.839-6.7,10.278-14.561,13.513-22.806c3.229-8.27,5.127-16.978,6.076-25.736c0.238-2.21,0.399-4.347,0.511-6.63
		C668.16,315.59,668.058,313.197,667.805,310.832z M603.679,267.541l-13.703,24.603c-3.485-1.639-7.218-3.064-11.155-4.237
		l6.91-23.034C591.817,265.304,597.833,266.192,603.679,267.541z M574.286,264.596c2.271-0.052,4.54-0.035,6.803,0.039
		l-6.631,22.099c-3.244-0.785-6.6-1.409-10.057-1.842l2.696-19.911C569.495,264.783,571.892,264.648,574.286,264.596z
		 M537.369,285.567l-2.761-13.607c3.799-1.337,7.676-2.49,11.595-3.471l-0.38,15.967
		C542.928,284.687,540.104,285.06,537.369,285.567z M500.822,293.141c0.993-1.307,2.197-2.575,3.441-3.826
		c0.44-0.411,0.896-0.816,1.349-1.222l5.799,8.185c-2.062,1.544-3.926,3.21-5.562,4.99l-7.22-4.887
		C499.235,295.309,499.957,294.215,500.822,293.141z M522.044,290.175c-2.448,1.066-4.75,2.262-6.893,3.573l-6.047-8.535
		c2.665-2.048,5.553-3.934,8.582-5.646L522.044,290.175z M526.245,288.524l-4.556-11.096c2.166-1.092,4.38-2.114,6.636-3.061
		c0.663-0.278,1.333-0.542,2.003-0.808l2.629,12.954C530.636,287.086,528.399,287.761,526.245,288.524z M496.739,301.082
		c0.036-0.145,0.083-0.296,0.123-0.444l6.138,4.154c-1.698,2.43-3,5.026-3.868,7.758
		C496.597,309.923,495.555,306.017,496.739,301.082z M550.344,284.211l0.4-16.788c0.047-0.01,0.094-0.022,0.14-0.031
		c1.709-0.37,3.428-0.698,5.15-0.997l6.435-0.883l-2.565,18.935C556.663,284.199,553.469,284.123,550.344,284.211z M602.712,299.942
		c-2.625-2.081-5.546-4.006-8.712-5.747l14.203-25.502c4.049,1.117,8.005,2.452,11.825,4.021c2.239,0.915,4.412,1.952,6.528,3.082
		L602.712,299.942z"/>
	<path fill="#E69888" d="M768.658,445.191c-9.407-0.177-18.813-0.157-28.217-0.067c2.372-1.165,4.592-2.604,6.636-4.239
		c4.944-3.979,8.957-8.93,12.273-14.251c0.143-0.23,0.077-0.534-0.15-0.684c-0.232-0.152-0.543-0.087-0.698,0.15
		c-3.384,5.153-7.453,9.919-12.32,13.643c-2.432,1.852-5.07,3.425-7.879,4.541c-0.877,0.35-1.773,0.635-2.678,0.888
		c-2.959,0.035-5.916,0.074-8.873,0.118l-20.932,0.429c-2.252,0.044-4.502,0.077-6.751,0.129c0.853-0.734,1.68-1.488,2.458-2.269
		c4.224-4.293,7.549-9.069,10.727-13.852c0.871-1.345,1.726-2.695,2.574-4.047c1.018-0.8,2.128-1.52,3.29-2.154
		c2.135-1.168,4.446-2.068,6.807-2.801c2.365-0.729,4.795-1.282,7.253-1.648c2.456-0.357,4.954-0.551,7.424-0.365
		c0.263,0.02,0.498-0.17,0.532-0.436c0.035-0.274-0.158-0.525-0.433-0.56c-2.57-0.33-5.142-0.262-7.69-0.027
		c-2.549,0.244-5.078,0.681-7.573,1.308c-2.364,0.602-4.701,1.372-6.95,2.415c4.279-6.91,8.503-13.777,13.466-20.176
		c0.154-0.198,0.14-0.486-0.042-0.666c-0.197-0.195-0.515-0.194-0.71,0.003c-4.035,4.077-7.639,8.561-11.125,13.092
		c-0.38,0.502-0.749,1.008-1.126,1.512c0.12-0.826,0.215-1.655,0.261-2.484c0.333-5.396-0.506-10.74-2.113-15.787
		c-0.076-0.239-0.322-0.389-0.574-0.34c-0.273,0.053-0.449,0.317-0.394,0.598c0.5,2.549,0.916,5.109,1.076,7.683
		c0.206,2.567,0.211,5.143-0.07,7.671c-0.296,2.523-0.8,5.012-1.714,7.335c-0.017,0.044-0.035,0.088-0.052,0.132
		c-1.826,2.47-3.651,4.93-5.51,7.343c-3.407,4.478-6.927,8.877-10.942,12.458c-2.004,1.779-4.136,3.328-6.372,4.431
		c-3.307,1.63-7.096,1.49-10.709,1.306c-3.706-0.189-7.441-0.643-10.972-1.83c-1.571-0.528-3.094-1.203-4.52-2.051
		c-5.08-3.022-7.33-8.335-7.477-14.094c-0.307-11.447,8.122-15.963,8.135-27.771c0.014-7.801-1.923-12.222-3.847-16.056
		c-3.126,4.195-6.625,8.148-10.378,11.781c-0.721,0.695-1.456,1.376-2.192,2.044c-0.146,0.134-0.28,0.254-0.427,0.387
		c-0.053,6.679,0.093,13.906,0.814,20.491c1.203,10.993,3.634,21.68,14.481,27.05c1.201,0.588,2.458,1.082,3.74,1.469
		c1.549,0.482,3.14,0.816,4.741,1.075c1.146,0.185,2.891,0.469,3.255,1.526c0.213,0.618,0.063,1.329-0.311,1.865
		c-0.474,0.68-1.088,1.036-1.718,1.546c-0.773,0.626-1.502,1.304-2.184,2.028c-1.337,1.419-2.486,3.005-3.463,4.691
		c-3.967,6.839-5.222,14.881-5.609,22.669c-0.428,8.883-0.068,17.806,0.548,26.689c0.12,1.83,0.266,3.66,0.44,5.463
		c1.684,8.229,3.54,16.457,5.651,24.726c1.295,5.049,2.592,10.099,3.913,15.108c-1.094-7.828-2.231-15.656-3.166-23.51
		c-1.936-16.27-3.205-32.66-2.604-49.05c0.28-7.761,1.055-16.924,6.572-22.948c2.274-2.482,5.262-5.073,8.555-5.988
		c3.044-0.846,6.108-0.761,9.021,0.462c2.31,0.974,4.544,2.403,6.657,4.069c4.236,3.356,8.017,7.549,11.68,11.832
		c1.904,2.239,3.779,4.523,5.656,6.817c0.073,0.156,0.154,0.306,0.224,0.464c1.019,2.297,1.672,4.769,2.039,7.291
		c0.36,2.524,0.519,5.097,0.425,7.675c-0.082,2.578-0.338,5.159-0.738,7.726c-0.039,0.252,0.117,0.504,0.369,0.569
		c0.269,0.068,0.541-0.093,0.611-0.361c0.656-2.567,1.114-5.191,1.324-7.847c0.193-2.654,0.217-5.344-0.138-8.014
		c-0.141-1.078-0.347-2.151-0.595-3.217c4.199,5.086,8.509,10.112,13.302,14.685c0.189,0.177,0.49,0.185,0.685,0.008
		c0.203-0.187,0.218-0.504,0.031-0.708c-5.561-6.177-10.288-12.985-15.069-19.827c0.086,0.038,0.17,0.082,0.256,0.119
		c2.4,1.017,4.893,1.71,7.406,2.227c2.515,0.509,5.059,0.828,7.614,0.954c2.553,0.115,5.124,0.065,7.676-0.384
		c0.262-0.047,0.445-0.293,0.41-0.56c-0.036-0.275-0.288-0.467-0.578-0.428c-2.438,0.326-4.944,0.276-7.419,0.06
		c-2.477-0.224-4.937-0.637-7.344-1.229c-2.404-0.597-4.768-1.365-6.976-2.411c-1.329-0.629-2.6-1.372-3.762-2.22
		c-0.853-1.207-1.713-2.412-2.586-3.611c-3.392-4.624-6.92-9.239-11.322-13.32c-0.968-0.888-1.993-1.741-3.068-2.552
		c2.478-0.137,4.953-0.313,7.428-0.476l20.891-1.417l7.349-0.53c1.25,0.256,2.494,0.594,3.714,1.012
		c2.758,0.945,5.412,2.255,7.959,3.744c2.546,1.496,4.987,3.188,7.285,5.055c2.288,1.872,4.467,3.911,6.288,6.233
		c0.166,0.21,0.47,0.254,0.687,0.095c0.224-0.162,0.274-0.475,0.112-0.7c-1.801-2.481-3.951-4.643-6.224-6.65
		c-2.28-1.999-4.712-3.825-7.275-5.463c-2.224-1.413-4.553-2.685-7.006-3.725l28.872-2.083c0.256-0.02,0.462-0.23,0.467-0.491
		C769.157,445.425,768.936,445.196,768.658,445.191z"/>
	<circle fill="#E69888" cx="492.165" cy="414.232" r="7.301"/>
	<circle fill="#E69888" cx="475.609" cy="340.52" r="10.247"/>
	<g>
		<g>
			
				<line fill="none" stroke="#000000" stroke-width="2" stroke-miterlimit="10" x1="202.647" y1="624.54" x2="479.666" y2="421.077"/>
			<g>
				<path d="M489.394,413.932c-3.33,5.061-6.881,12.13-8.147,17.786l-2.858-9.703l-8.402-5.628
					C475.762,416.871,483.571,415.597,489.394,413.932z"/>
			</g>
		</g>
	</g>
	<g>
		<path d="M62.84,358.375l-2.654,3.434c-1.483-0.91-2.986-2.303-4.508-4.176c-1.522-1.873-2.57-3.681-3.142-5.425
			c-0.573,1.978-1.653,3.948-3.239,5.912c-1.587,1.965-3.278,3.441-5.073,4.43l-2.771-3.356c5.75-3.72,8.625-9.067,8.625-16.04
			v-5.308H54.8v5.073C54.8,349.764,57.48,354.916,62.84,358.375z M70.021,369.693h-4.566v-34.772h4.566V369.693z"/>
		<path d="M95.465,350.102l-2.615,3.551c-1.458-0.546-2.94-1.476-4.449-2.79c-1.509-1.313-2.628-2.725-3.356-4.234
			c-0.494,1.692-1.529,3.285-3.103,4.781c-1.574,1.496-3.22,2.543-4.937,3.142l-2.771-3.629c2.576-0.91,4.625-2.354,6.146-4.332
			c1.522-1.977,2.283-4.254,2.283-6.83v-3.278h4.683v3.005c0,2.55,0.8,4.775,2.4,6.673C91.348,348.06,93.254,349.374,95.465,350.102
			z M102.607,362.668c0,2.16-1.054,3.87-3.161,5.132s-5.034,1.893-8.781,1.893c-3.721,0-6.628-0.631-8.722-1.893
			c-2.094-1.262-3.142-2.972-3.142-5.132c0-2.185,1.047-3.909,3.142-5.171c2.094-1.262,5.001-1.893,8.722-1.893
			c3.772,0,6.706,0.624,8.801,1.873C101.56,358.727,102.607,360.457,102.607,362.668z M90.665,359.234
			c-2.238,0-3.994,0.306-5.269,0.917c-1.275,0.612-1.912,1.451-1.912,2.517c0,1.041,0.631,1.86,1.893,2.459
			c1.262,0.599,3.025,0.898,5.288,0.898c2.289,0,4.078-0.299,5.366-0.898c1.288-0.598,1.932-1.418,1.932-2.459
			c0-1.067-0.644-1.906-1.932-2.517C94.743,359.54,92.954,359.234,90.665,359.234z M107.173,346.941h-4.956v8.313h-4.605v-20.333
			h4.605v8.274h4.956V346.941z"/>
		<path d="M128.793,346.824h-20.177v-3.629h20.177V346.824z M110.334,355.527c0-2.159,0.781-3.948,2.342-5.366
			c1.561-1.418,3.577-2.127,6.049-2.127c2.498,0,4.52,0.702,6.069,2.107c1.548,1.405,2.322,3.2,2.322,5.386
			c0,2.16-0.781,3.948-2.342,5.366c-1.561,1.418-3.578,2.127-6.049,2.127c-2.498,0-4.521-0.696-6.069-2.088
			C111.108,359.54,110.334,357.738,110.334,355.527z M113.495,340.775v-3.59h10.732v3.59H113.495z M114.783,355.527
			c0,1.119,0.371,2.029,1.112,2.732c0.742,0.702,1.684,1.054,2.83,1.054c1.249,0,2.218-0.345,2.907-1.034
			c0.689-0.689,1.034-1.606,1.034-2.751c0-1.145-0.371-2.068-1.112-2.771s-1.685-1.054-2.829-1.054c-1.145,0-2.088,0.351-2.83,1.054
			C115.154,353.458,114.783,354.382,114.783,355.527z M135.974,334.921v14.089h4.839v3.786h-4.839v16.898h-4.605v-34.772H135.974z"
			/>
		<path d="M160.443,369.732h-4.566v-11.435H142.53v-3.629h31.416v3.629h-13.503V369.732z M170.161,351.156h-23.845V336.56h4.527
			v3.942h14.713v-3.981h4.605V351.156z M165.556,347.526v-3.473h-14.713v3.473H165.556z"/>
		<path d="M2.304,408.298v-24.192h6.768v9.324h7.596v-9.324h6.804v24.192h-6.804V398.29H9.072v10.008H2.304z"/>
		<path d="M29.736,413.698c-0.816,0-1.536-0.156-2.16-0.468v-1.692c0.72,0.168,1.32,0.252,1.8,0.252c0.888,0,1.602-0.21,2.142-0.63
			c0.54-0.42,0.978-1.098,1.314-2.034l0.576-1.692l-6.84-16.92h2.376l5.58,13.968h0.072l5.184-13.968h2.232l-7.056,18.864
			c-0.576,1.512-1.248,2.61-2.016,3.294C32.172,413.356,31.104,413.698,29.736,413.698z"/>
		<path d="M45.396,413.626V390.55h2.16v1.44h0.144c1.536-1.176,3.372-1.764,5.508-1.764c2.16,0,3.9,0.69,5.22,2.07
			c1.32,1.38,1.98,3.63,1.98,6.75v0.396c0,3.096-0.702,5.394-2.106,6.894c-1.404,1.5-3.378,2.25-5.922,2.25
			c-1.848,0-3.432-0.408-4.752-1.224v6.264H45.396z M52.164,406.75c3.912,0,5.868-2.316,5.868-6.948v-0.648
			c0-2.592-0.444-4.404-1.332-5.436c-0.888-1.032-2.244-1.548-4.068-1.548c-1.896,0-3.564,0.492-5.004,1.476v11.808
			C48.924,406.318,50.436,406.75,52.164,406.75z"/>
		<path d="M71.387,408.586c-2.472,0-4.416-0.768-5.832-2.304c-1.417-1.536-2.124-3.72-2.124-6.552v-0.504
			c0-2.832,0.732-5.04,2.196-6.624c1.464-1.584,3.396-2.376,5.796-2.376c2.472,0,4.422,0.774,5.85,2.322
			c1.427,1.548,2.142,3.738,2.142,6.57v0.468c0,2.808-0.738,5.01-2.214,6.606C75.725,407.788,73.787,408.586,71.387,408.586z
			 M67.319,405.058c1.031,1.104,2.412,1.656,4.14,1.656s3.096-0.594,4.104-1.782c1.008-1.188,1.512-2.898,1.512-5.13v-0.756
			c0-2.448-0.51-4.224-1.53-5.328c-1.021-1.104-2.406-1.656-4.158-1.656c-1.728,0-3.096,0.6-4.104,1.8
			c-1.008,1.2-1.512,2.904-1.512,5.112v0.828C65.771,402.202,66.287,403.954,67.319,405.058z"/>
		<path d="M88.991,408.478c-2.952,0-4.428-1.344-4.428-4.032v-11.988h-2.592v-1.908h2.592v-4.212h2.268v4.212h4.716v1.908h-4.716
			v11.664c0,0.912,0.192,1.56,0.576,1.944c0.384,0.384,1.104,0.576,2.16,0.576c0.816,0,1.584-0.12,2.304-0.36v1.512
			C91.102,408.25,90.143,408.478,88.991,408.478z"/>
		<path d="M95.794,408.298v-25.776h2.268v9.576h0.144c1.823-1.224,3.912-1.836,6.264-1.836c1.728,0,3.012,0.378,3.852,1.134
			c0.84,0.756,1.26,1.962,1.26,3.618v13.284h-2.268v-12.816c0-1.2-0.282-2.052-0.846-2.556c-0.564-0.504-1.554-0.756-2.97-0.756
			c-1.776,0-3.588,0.504-5.436,1.512v14.616H95.794z"/>
		<path d="M119.014,408.586c-1.633,0-2.952-0.426-3.96-1.278c-1.008-0.852-1.512-2.058-1.512-3.618c0-3,1.776-4.704,5.328-5.112
			l5.04-0.576v-2.088c0-1.416-0.336-2.394-1.008-2.934c-0.672-0.54-1.824-0.81-3.456-0.81c-1.2,0-2.664,0.204-4.392,0.612v-1.62
			c1.584-0.624,3.324-0.936,5.22-0.936c3.936,0,5.904,1.716,5.904,5.148v12.924h-1.836l-0.216-1.584h-0.144
			C122.83,407.962,121.174,408.586,119.014,408.586z M119.59,406.786c1.848,0,3.288-0.468,4.32-1.404v-5.688l-4.428,0.504
			c-1.248,0.12-2.16,0.45-2.736,0.99c-0.576,0.54-0.864,1.35-0.864,2.43c0,1.008,0.33,1.788,0.99,2.34
			C117.532,406.51,118.438,406.786,119.59,406.786z"/>
		<path d="M131.433,408.298v-25.776h2.268v25.776H131.433z"/>
		<path d="M143.313,408.586c-1.633,0-2.952-0.426-3.96-1.278c-1.008-0.852-1.512-2.058-1.512-3.618c0-3,1.776-4.704,5.328-5.112
			l5.04-0.576v-2.088c0-1.416-0.336-2.394-1.008-2.934c-0.672-0.54-1.824-0.81-3.456-0.81c-1.2,0-2.664,0.204-4.392,0.612v-1.62
			c1.584-0.624,3.324-0.936,5.22-0.936c3.936,0,5.904,1.716,5.904,5.148v12.924h-1.836l-0.216-1.584h-0.144
			C147.129,407.962,145.473,408.586,143.313,408.586z M143.889,406.786c1.848,0,3.288-0.468,4.32-1.404v-5.688l-4.428,0.504
			c-1.248,0.12-2.16,0.45-2.736,0.99c-0.576,0.54-0.864,1.35-0.864,2.43c0,1.008,0.33,1.788,0.99,2.34
			C141.831,406.51,142.737,406.786,143.889,406.786z"/>
		<path d="M155.661,408.298V390.55h2.16v1.584h0.144c1.968-1.272,3.888-1.908,5.76-1.908c2.064,0,3.468,0.66,4.212,1.98h0.144
			c2.112-1.32,4.176-1.98,6.192-1.98c3.264,0,4.896,1.584,4.896,4.752v13.32h-2.232v-12.816c0-1.176-0.276-2.022-0.828-2.538
			c-0.552-0.516-1.44-0.774-2.664-0.774c-1.536,0-3.204,0.504-5.004,1.512c0.072,0.432,0.108,0.864,0.108,1.296v13.32h-2.268
			v-12.816c0-1.176-0.264-2.022-0.792-2.538c-0.528-0.516-1.392-0.774-2.592-0.774c-1.608,0-3.264,0.504-4.968,1.512v14.616H155.661
			z"/>
		<path d="M189.608,408.586c-1.728,0-3.06-0.426-3.996-1.278c-0.936-0.852-1.404-2.118-1.404-3.798v-12.996h2.268v12.708
			c0,1.224,0.288,2.1,0.864,2.628c0.576,0.528,1.548,0.792,2.916,0.792c1.776,0,3.552-0.528,5.328-1.584v-14.544h2.232v17.784
			h-1.944l-0.216-1.656h-0.108C193.556,407.938,191.576,408.586,189.608,408.586z"/>
		<path d="M207.536,408.55c-2.256,0-4.14-0.42-5.652-1.26v-1.8c1.848,0.768,3.648,1.152,5.4,1.152c2.784,0,4.176-0.984,4.176-2.952
			c0-0.912-0.246-1.602-0.738-2.07c-0.492-0.468-1.35-0.87-2.574-1.206l-1.8-0.54c-1.44-0.36-2.52-0.906-3.24-1.638
			c-0.72-0.732-1.08-1.794-1.08-3.186c0-1.464,0.504-2.634,1.512-3.51c1.008-0.876,2.484-1.314,4.428-1.314
			c1.823,0,3.407,0.348,4.752,1.044v1.836c-1.296-0.648-2.844-0.972-4.644-0.972c-2.592,0-3.888,0.912-3.888,2.736
			c0,0.816,0.216,1.446,0.648,1.89c0.432,0.444,1.176,0.822,2.232,1.134l1.908,0.504c1.728,0.504,2.952,1.11,3.672,1.818
			c0.72,0.708,1.08,1.806,1.08,3.294c0,1.584-0.54,2.82-1.62,3.708C211.028,408.106,209.504,408.55,207.536,408.55z"/>
	</g>
	<g>
		<g>
			
				<line fill="none" stroke="#000000" stroke-width="2" stroke-miterlimit="10" x1="204.195" y1="348.927" x2="521.437" y2="369.192"/>
			<g>
				<path d="M533.483,369.962c-5.802,1.741-13.064,4.88-17.666,8.403l4.04-9.273l-2.827-9.71
					C521.146,363.461,527.949,367.498,533.483,369.962z"/>
			</g>
		</g>
	</g>
	<g>
		<path d="M62.176,629.388h-7.298v6.947c4.345-0.208,7.402-0.442,9.171-0.702l0.429,3.512c-2.576,0.338-6.427,0.624-11.552,0.859
			c-4.449,0.234-8.156,0.351-11.123,0.351l-0.624-3.708c3.122,0,6.166-0.039,9.132-0.117v-7.142h-6.01v-14.049h4.566v10.42h13.308
			V629.388z M70.567,612.139v34.772h-4.566v-34.772H70.567z"/>
		<path d="M95.036,624.042H74.859v-3.63h20.177V624.042z M76.577,632.745c0-2.159,0.781-3.948,2.342-5.366
			c1.561-1.418,3.577-2.127,6.049-2.127c2.498,0,4.52,0.702,6.069,2.107c1.548,1.405,2.322,3.2,2.322,5.386
			c0,2.16-0.781,3.948-2.342,5.366c-1.561,1.418-3.578,2.127-6.049,2.127c-2.498,0-4.521-0.696-6.069-2.088
			C77.35,636.758,76.577,634.956,76.577,632.745z M79.738,617.993v-3.59H90.47v3.59H79.738z M81.026,632.745
			c0,1.119,0.371,2.029,1.112,2.732c0.742,0.702,1.684,1.054,2.83,1.054c1.249,0,2.218-0.345,2.907-1.034
			c0.689-0.689,1.034-1.606,1.034-2.751c0-1.145-0.371-2.068-1.112-2.771c-0.741-0.703-1.685-1.054-2.829-1.054
			c-1.145,0-2.088,0.351-2.83,1.054C81.396,630.676,81.026,631.6,81.026,632.745z M102.217,612.139v14.089h4.839v3.786h-4.839
			v16.898h-4.605v-34.772H102.217z"/>
		<path d="M126.686,646.95h-4.605v-12.371h-13.308v-3.59h31.416v3.59h-13.503V646.95z M138.901,624.393l-1.99,3.708
			c-2.628-0.39-5.145-1.34-7.552-2.849c-2.407-1.509-4.026-3.2-4.859-5.073c-0.755,1.873-2.322,3.558-4.703,5.054
			c-2.381,1.496-4.924,2.465-7.63,2.907l-1.951-3.747c3.174-0.338,5.945-1.418,8.312-3.239c2.367-1.821,3.552-3.981,3.552-6.478
			v-1.795h4.839v1.795c0,1.665,0.618,3.226,1.854,4.683c1.236,1.457,2.758,2.615,4.566,3.473
			C135.148,623.691,137.002,624.211,138.901,624.393z"/>
		<path d="M159.624,636.413l-2.576,3.239c-1.197-0.703-2.4-1.788-3.61-3.259c-1.21-1.47-2.023-2.947-2.439-4.429
			c-0.417,1.587-1.249,3.187-2.498,4.8c-1.249,1.614-2.602,2.836-4.059,3.668l-2.771-3.083c2.315-1.483,4.045-3.233,5.19-5.249
			c1.145-2.016,1.782-4.559,1.912-7.63h-5.698v-3.63h15.65v3.63h-5.464C153.522,630.117,155.643,634.098,159.624,636.413z
			 M155.604,618.539h-9.093v-3.59h9.093V618.539z M165.4,645.311h-4.293v-14.986h-4.293v-3.668h4.293v-13.854h4.293V645.311z
			 M172.112,646.911h-4.332v-34.772h4.332V646.911z"/>
		<path d="M47.911,684.358v-23.52h9.765c3.103,0,5.431,0.654,6.983,1.96c1.552,1.307,2.327,3.209,2.327,5.705
			c0,2.637-0.782,4.637-2.345,6.002c-1.563,1.365-3.827,2.047-6.79,2.047h-3.36v7.805H47.911z M54.491,672.318h2.415
			c1.19,0,2.03-0.274,2.52-0.823c0.49-0.548,0.735-1.429,0.735-2.642c0-1.283-0.245-2.188-0.735-2.713
			c-0.49-0.525-1.283-0.787-2.38-0.787h-2.555V672.318z"/>
		<path d="M70.556,663.498v-2.415h2.275v2.415H70.556z M70.591,684.358v-17.255h2.205v17.255H70.591z"/>
		<path d="M83.295,684.533c-2.87,0-4.305-1.307-4.305-3.92v-11.655h-2.52v-1.855h2.52v-4.095h2.205v4.095h4.585v1.855h-4.585v11.34
			c0,0.887,0.187,1.517,0.56,1.89c0.373,0.374,1.073,0.56,2.1,0.56c0.793,0,1.54-0.116,2.24-0.35v1.47
			C85.348,684.312,84.416,684.533,83.295,684.533z"/>
		<path d="M95.055,684.638c-1.68,0-2.975-0.414-3.885-1.243c-0.91-0.828-1.365-2.059-1.365-3.693v-12.635h2.205v12.355
			c0,1.19,0.28,2.042,0.84,2.555c0.56,0.514,1.505,0.77,2.835,0.77c1.726,0,3.453-0.513,5.18-1.54v-14.14h2.17v17.29h-1.89
			l-0.21-1.61h-0.105C98.893,684.008,96.968,684.638,95.055,684.638z"/>
		<path d="M108.215,663.498v-2.415h2.275v2.415H108.215z M108.25,684.358v-17.255h2.205v17.255H108.25z"/>
		<path d="M120.954,684.533c-2.87,0-4.305-1.307-4.305-3.92v-11.655h-2.52v-1.855h2.52v-4.095h2.205v4.095h4.585v1.855h-4.585v11.34
			c0,0.887,0.187,1.517,0.56,1.89c0.373,0.374,1.073,0.56,2.1,0.56c0.793,0,1.54-0.116,2.24-0.35v1.47
			C123.007,684.312,122.074,684.533,120.954,684.533z"/>
		<path d="M131.734,684.638c-1.587,0-2.87-0.414-3.85-1.243c-0.98-0.828-1.47-2-1.47-3.517c0-2.917,1.727-4.573,5.18-4.97l4.9-0.56
			v-2.03c0-1.376-0.327-2.328-0.98-2.852c-0.654-0.525-1.773-0.788-3.36-0.788c-1.167,0-2.59,0.199-4.27,0.595v-1.575
			c1.54-0.606,3.231-0.91,5.075-0.91c3.826,0,5.74,1.668,5.74,5.005v12.565h-1.785l-0.21-1.54h-0.14
			C135.444,684.032,133.834,684.638,131.734,684.638z M132.294,682.888c1.796,0,3.197-0.455,4.2-1.365v-5.53l-4.305,0.49
			c-1.214,0.117-2.1,0.438-2.66,0.963c-0.56,0.525-0.84,1.312-0.84,2.362c0,0.98,0.32,1.739,0.962,2.275
			C130.293,682.62,131.174,682.888,132.294,682.888z"/>
		<path d="M143.739,684.358v-17.29h2.1v1.995h0.14c0.56-0.606,1.289-1.125,2.188-1.557c0.898-0.431,1.825-0.647,2.782-0.647
			c0.49,0,0.84,0.035,1.05,0.105v2.03c-0.42-0.07-0.828-0.105-1.225-0.105c-1.82,0-3.43,0.583-4.83,1.75v13.72H143.739z"/>
		<path d="M156.863,689.608c-0.793,0-1.493-0.152-2.1-0.455v-1.645c0.7,0.163,1.283,0.245,1.75,0.245
			c0.863,0,1.558-0.205,2.083-0.613c0.525-0.408,0.95-1.068,1.278-1.977l0.56-1.645l-6.65-16.45h2.31l5.425,13.58h0.07l5.04-13.58
			h2.17l-6.86,18.34c-0.56,1.47-1.213,2.537-1.96,3.202C159.231,689.276,158.193,689.608,156.863,689.608z"/>
	</g>
	<g>
		<g>
			<path fill="#FFA91C" d="M756.203,922.081c-0.86,3.7-1.72,7.42-2.75,11.07c0,4.3-2.73,11.47-5.07,15.02
				c-0.83,1.26-1.83,2.4-2.68,3.66c-2.71,4.03-3.44,8.89-5.61,13.17c-2.14,4.2-5.03,4.82-7.97,8.09c-2.81,3.12-4.62,7.04-7.55,10.12
				c-2.75,2.9-5.93,4.81-9.08,7.16c-2.96,2.22-3.84,6.19-5.64,9.42c-3.92,7.03-12.71,9.18-20.27,10.19
				c-0.39,0.05-0.77,0.1-1.13,0.14c-11.82,1.42-17.25-5.22-23.52-13.95c-4.29-5.99-9-12.96-16.44-18.96
				c-43.4-35-83.22-75.14-119.34-117.53c-6.95-8.14-14.15-19.23-9.21-28.72c3.79-7.34,3.91-9.44,12.12-10.34
				c7.86-0.86,15.75-1.51,23.65-1.91c5.22-0.27,10.21-1.59,15.31-1.86c4.75-0.25,9.43,0.55,14.18,0.01
				c6.55-0.75,12.89-1.83,19.46-0.6c3.87,0.72,7.57,2.52,11.45,3.06c5.82,0.8,11.7-1.49,17.51-0.62c2.44,0.36,4.69,1.5,6.88,2.64
				c5.02,2.61,10.12,5.35,15.72,6.24c2.22,0.35,4.51,0.41,6.63,1.18c4.07,1.46,5.54,5.18,10.03,6.92c5.62,2.18,11.16,4.56,16.6,7.17
				c11.21,5.37,21.12,11.43,32.01,19.16c5.03,3.56,9.39,7.67,14.44,10.96c5.5,3.58,9.85,7.98,11.35,14.61
				c0.64,2.81,0.72,5.74,1.67,8.45c1.82,5.2,6.62,9.03,8.02,14.36C757.983,914.211,757.093,918.241,756.203,922.081z"/>
		</g>
		<g>
			<path fill="#FF931C" d="M756.203,922.081c-0.86,3.7-1.72,7.42-2.75,11.07c0,4.3-2.73,11.47-5.07,15.02
				c-0.83,1.26-1.83,2.4-2.68,3.66c-2.71,4.03-3.44,8.89-5.61,13.17c-2.14,4.2-5.03,4.82-7.97,8.09c-2.81,3.12-4.62,7.04-7.55,10.12
				c-2.75,2.9-5.93,4.81-9.08,7.16c-2.96,2.22-3.84,6.19-5.64,9.42c-3.92,7.03-12.71,9.18-20.27,10.19
				c-0.39,0.05-0.77,0.1-1.13,0.14c-11.82,1.42-17.25-5.22-23.52-13.95c1.53-1.68,3.31-3.33,5.46-5
				c7.65-5.92,16.2-10.78,24.22-16.41c5.97-4.2,11.64-8.82,16.43-14.64c11.88-14.41,15.57-37.18,11.08-55.09
				c-4.23-16.95-12.13-32.69-21.46-47.37c-3.08-4.85-7.22-9.74-11.18-14.81c11.21,5.37,21.12,11.43,32.01,19.16
				c5.03,3.56,9.39,7.67,14.44,10.96c5.5,3.58,9.85,7.98,11.35,14.61c0.64,2.81,0.72,5.74,1.67,8.45c1.82,5.2,6.62,9.03,8.02,14.36
				C757.983,914.211,757.093,918.241,756.203,922.081z"/>
		</g>
		<g>
			<path fill="#FFD27D" d="M603.336,834.689c41.86,23.961,87.998,85.763,94.857,134.473
				c14.569,103.465-102.725-14.794-127.509-25.357c-39.625-16.888-88.479,7.879-129.37-4.635
				c-70.631-21.614,36.346-99.907,63.355-110.846C541.946,813.228,574.817,818.365,603.336,834.689z"/>
		</g>
		<g>
			<path fill="#FFBE40" d="M681.717,1003.809c-18.17,0.003-53.525-27.201-76.92-45.202c-13.701-10.541-24.521-18.867-31.172-21.702
				c-10.617-4.525-22.784-6.725-37.197-6.725c-11.439,0-23.152,1.339-34.48,2.634c-10.942,1.25-22.255,2.542-32.9,2.542
				c-9.801,0-18.155-1.097-25.539-3.357c-17.946-5.492-18.292-13.361-18.404-15.946c-0.486-11.049,11.432-28.107,32.698-46.797
				c20.168-17.728,41.194-30.542,49.682-33.979c13.828-5.602,27.587-8.44,40.895-8.44c17.345,0,34.581,4.832,51.231,14.363
				c42.292,24.206,84.888,84.491,91.156,129.009c2.971,21.1-0.353,28.585-2.599,31.17
				C687.183,1002.509,685.562,1003.808,681.717,1003.809z"/>
		</g>
		<g>
			<path fill="#E64041" d="M666.854,965.37c1.034,4.144-3.446,7.478-7.066,5.212c-13.883-8.688-29.192-20.513-41.27-29.806
				c-17.603-13.545-27.202-20.789-36.07-24.568c-13.462-5.738-28.515-8.527-46.019-8.527c-12.721,0-25.081,1.412-37.034,2.779
				c-10.79,1.232-20.982,2.396-30.346,2.396c-3.754,0-7.177-0.193-10.312-0.583c-4.112-0.512-6.062-5.351-3.438-8.557
				c4.367-5.334,10.927-12.169,20.54-20.306c17.673-14.962,34.831-25.15,40.09-27.28c11.134-4.509,22.052-6.794,32.451-6.794
				c13.563,0,26.664,3.725,40.053,11.389C620.637,879.158,657.219,926.748,666.854,965.37z"/>
		</g>
		<g>
			<path fill="#FF4041" d="M662.275,966.815c-0.009,0-0.042-0.012-0.101-0.047c-13.398-8.385-28.217-19.79-40.127-28.954
				l-0.787-0.605c-17.899-13.772-27.675-21.147-37.05-25.141c-14.03-5.979-29.66-8.887-47.783-8.887
				c-12.987,0-25.472,1.427-37.545,2.808c-10.674,1.219-20.735,2.367-29.835,2.367c-3.555,0-6.838-0.185-9.754-0.548
				c-0.303-0.038-0.514-0.201-0.628-0.485c-0.165-0.415,0.047-0.672,0.116-0.757c4.992-6.097,11.708-12.732,19.966-19.721
				c17.073-14.454,34.002-24.573,38.871-26.544c10.594-4.289,20.943-6.464,30.762-6.464c12.759,0,25.128,3.53,37.818,10.794
				c32.178,18.417,67.115,65.048,76.291,101.829c0.038,0.149,0.007,0.189-0.026,0.233c-0.067,0.086-0.161,0.123-0.188,0.123H662.275
				z"/>
		</g>
		<g>
			<g>
				<path fill="#FF931C" d="M548.487,845.811c-0.199-2.358-0.093-4.691,0.085-7.017c0.209-2.324,0.491-4.642,1.081-6.934
					c0.201,2.358,0.095,4.691-0.085,7.017C549.357,841.201,549.074,843.519,548.487,845.811z"/>
			</g>
			<g>
				<path fill="#FF931C" d="M555.51,846.207c-0.152-2.361,0-4.692,0.223-7.014c0.255-2.319,0.583-4.631,1.217-6.911
					c0.154,2.362,0.002,4.692-0.223,7.014C556.47,841.614,556.142,843.926,555.51,846.207z"/>
			</g>
			<g>
				<path fill="#FF931C" d="M562.609,847.297c0.078-2.365,0.456-4.669,0.904-6.959c0.479-2.284,1.03-4.553,1.883-6.76
					c-0.076,2.365-0.453,4.67-0.904,6.959C564.011,842.819,563.459,845.088,562.609,847.297z"/>
			</g>
			<g>
				<path fill="#FF931C" d="M569.668,849.072c0.292-2.348,0.877-4.609,1.53-6.849c0.684-2.231,1.438-4.441,2.488-6.562
					c-0.29,2.349-0.875,4.61-1.53,6.849C571.47,844.741,570.716,846.951,569.668,849.072z"/>
			</g>
			<g>
				<path fill="#FF931C" d="M576.675,851.501c0.487-2.316,1.26-4.519,2.098-6.697c0.868-2.166,1.805-4.305,3.028-6.331
					c-0.485,2.316-1.258,4.52-2.098,6.697C578.833,847.336,577.896,849.475,576.675,851.501z"/>
			</g>
			<g>
				<path fill="#FF931C" d="M583.61,854.549c0.664-2.271,1.603-4.409,2.607-6.516c1.032-2.093,2.131-4.153,3.506-6.079
					c-0.662,2.272-1.601,4.41-2.607,6.516C586.082,850.562,584.983,852.622,583.61,854.549z"/>
			</g>
			<g>
				<path fill="#FF931C" d="M590.451,858.179c0.823-2.219,1.91-4.285,3.06-6.316c1.177-2.015,2.418-3.993,3.926-5.817
					c-0.821,2.22-1.908,4.286-3.06,6.316C593.198,854.375,591.957,856.353,590.451,858.179z"/>
			</g>
			<g>
				<path fill="#FF931C" d="M597.174,862.35c0.964-2.161,2.183-4.153,3.461-6.105c1.305-1.935,2.671-3.828,4.293-5.551
					c-0.962,2.162-2.181,4.154-3.461,6.105C600.161,858.732,598.794,860.626,597.174,862.35z"/>
			</g>
			<g>
				<path fill="#FF931C" d="M603.755,867.021c1.091-2.1,2.426-4.016,3.818-5.889c1.417-1.854,2.893-3.663,4.615-5.287
					c-1.089,2.101-2.424,4.017-3.817,5.889C606.952,863.587,605.476,865.396,603.755,867.021z"/>
			</g>
			<g>
				<path fill="#FF931C" d="M610.171,872.149c1.204-2.037,2.642-3.877,4.134-5.671c1.517-1.773,3.09-3.499,4.898-5.026
					c-1.202,2.039-2.64,3.878-4.134,5.671C613.551,868.895,611.978,870.621,610.171,872.149z"/>
			</g>
			<g>
				<path fill="#FF931C" d="M616.397,877.687c1.306-1.973,2.836-3.738,4.417-5.453c1.605-1.694,3.264-3.337,5.147-4.77
					c-1.305,1.975-2.834,3.739-4.417,5.453C619.938,874.609,618.279,876.253,616.397,877.687z"/>
			</g>
			<g>
				<path fill="#FF931C" d="M622.409,883.59c1.398-1.909,3.01-3.599,4.672-5.237c1.683-1.616,3.419-3.178,5.368-4.52
					c-1.397,1.911-3.008,3.6-4.671,5.237C626.092,880.683,624.357,882.246,622.409,883.59z"/>
			</g>
			<g>
				<path fill="#FF931C" d="M628.186,889.809c1.483-1.844,3.168-3.46,4.901-5.023c1.754-1.539,3.557-3.022,5.565-4.275
					c-1.481,1.846-3.167,3.462-4.901,5.022C631.996,887.071,630.192,888.554,628.186,889.809z"/>
			</g>
			<g>
				<path fill="#FF931C" d="M633.705,896.297c1.56-1.779,3.313-3.322,5.111-4.809c1.818-1.462,3.683-2.867,5.743-4.034
					c-1.558,1.781-3.312,3.324-5.111,4.809C637.628,893.724,635.763,895.129,633.705,896.297z"/>
			</g>
			<g>
				<path fill="#FF931C" d="M638.944,903.006c1.632-1.714,3.446-3.183,5.304-4.595c1.877-1.386,3.798-2.714,5.903-3.795
					c-1.63,1.716-3.445,3.185-5.304,4.595C642.969,900.596,641.048,901.923,638.944,903.006z"/>
			</g>
			<g>
				<path fill="#FF931C" d="M643.883,909.886c1.699-1.647,3.571-3.043,5.484-4.38c1.93-1.31,3.903-2.56,6.05-3.556
					c-1.697,1.649-3.57,3.045-5.484,4.38C648.001,907.639,646.029,908.889,643.883,909.886z"/>
			</g>
			<g>
				<path fill="#FF931C" d="M648.501,916.889c1.762-1.579,3.688-2.9,5.652-4.16c1.981-1.234,4.001-2.405,6.185-3.315
					c-1.761,1.581-3.687,2.902-5.652,4.16C652.705,914.806,650.684,915.977,648.501,916.889z"/>
			</g>
			<g>
				<path fill="#FF931C" d="M652.778,923.965c1.823-1.509,3.799-2.753,5.811-3.935c2.028-1.155,4.092-2.245,6.311-3.069
					c-1.822,1.511-3.798,2.755-5.811,3.935C657.06,922.048,654.995,923.139,652.778,923.965z"/>
			</g>
			<g>
				<path fill="#FF931C" d="M656.694,931.062c1.882-1.435,3.906-2.599,5.963-3.7c2.072-1.073,4.179-2.08,6.428-2.815
					c-1.881,1.437-3.905,2.601-5.963,3.7C661.049,929.318,658.942,930.326,656.694,931.062z"/>
			</g>
			<g>
				<path fill="#FF931C" d="M660.229,938.131c1.939-1.356,4.009-2.437,6.11-3.452c2.114-0.987,4.26-1.907,6.539-2.549
					c-1.938,1.358-4.008,2.439-6.11,3.452C664.652,936.567,662.506,937.487,660.229,938.131z"/>
			</g>
			<g>
				<path fill="#FF931C" d="M663.365,945.12c1.995-1.272,4.11-2.262,6.253-3.186c2.155-0.895,4.339-1.722,6.642-2.265
					c-1.995,1.274-4.109,2.264-6.253,3.186C667.851,943.747,665.668,944.574,663.365,945.12z"/>
			</g>
			<g>
				<path fill="#FF931C" d="M666.083,951.974c2.052-1.179,4.21-2.071,6.392-2.896c2.194-0.795,4.413-1.521,6.739-1.959
					c-2.051,1.181-4.209,2.073-6.392,2.896C670.628,950.809,668.408,951.535,666.083,951.974z"/>
			</g>
			<g>
				<path fill="#FF931C" d="M668.365,958.641c2.108-1.076,4.307-1.86,6.528-2.575c2.23-0.685,4.483-1.3,6.828-1.621
					c-2.107,1.078-4.307,1.862-6.528,2.575C672.962,957.703,670.71,958.317,668.365,958.641z"/>
			</g>
			<g>
				<path fill="#FF931C" d="M670.196,965.062c2.164-0.958,4.403-1.62,6.66-2.212c2.265-0.562,4.548-1.052,6.907-1.244
					c-2.163,0.96-4.403,1.622-6.66,2.212C674.837,964.378,672.554,964.868,670.196,965.062z"/>
			</g>
			<g>
				<path fill="#FF931C" d="M671.56,971.178c2.219-0.822,4.495-1.344,6.784-1.795c2.295-0.42,4.604-0.768,6.97-0.813
					c-2.219,0.824-4.495,1.346-6.784,1.795C676.235,970.782,673.926,971.13,671.56,971.178z"/>
			</g>
			<g>
				<path fill="#FF931C" d="M672.447,976.925c2.272-0.662,4.579-1.02,6.895-1.308c2.319-0.256,4.647-0.438,7.011-0.315
					c-2.272,0.664-4.579,1.023-6.895,1.307C677.138,976.864,674.81,977.047,672.447,976.925z"/>
			</g>
			<g>
				<path fill="#FF931C" d="M672.508,979.996c2.241,0.761,4.337,1.79,6.398,2.883c2.047,1.121,4.058,2.306,5.924,3.763
					c-2.242-0.759-4.338-1.789-6.398-2.883C676.386,982.637,674.375,981.451,672.508,979.996z"/>
			</g>
			<g>
				<path fill="#FF931C" d="M671.296,980.86c0.798,2.228,1.295,4.509,1.721,6.803c0.395,2.3,0.718,4.612,0.737,6.979
					c-0.8-2.227-1.297-4.509-1.721-6.803C671.64,985.539,671.318,983.226,671.296,980.86z"/>
			</g>
			<g>
				<path fill="#FF931C" d="M668.124,979.554c-0.755,2.243-1.779,4.341-2.866,6.406c-1.115,2.05-2.296,4.064-3.747,5.934
					c0.753-2.244,1.777-4.342,2.867-6.406C665.494,983.439,666.674,981.424,668.124,979.554z"/>
			</g>
			<g>
				<path fill="#FF931C" d="M661.213,975.603c-0.869,2.201-1.999,4.244-3.191,6.25c-1.219,1.99-2.501,3.941-4.047,5.733
					c0.867-2.202,1.997-4.245,3.191-6.25C658.387,979.348,659.669,977.397,661.213,975.603z"/>
			</g>
			<g>
				<path fill="#FF931C" d="M654.011,971.053c-0.952,2.167-2.16,4.165-3.427,6.124c-1.294,1.942-2.649,3.843-4.262,5.575
					c0.95-2.168,2.158-4.166,3.427-6.124C651.044,974.687,652.4,972.786,654.011,971.053z"/>
			</g>
			<g>
				<path fill="#FF931C" d="M646.623,966.038c-1.013,2.139-2.276,4.103-3.598,6.025c-1.348,1.905-2.757,3.767-4.418,5.453
					c1.011-2.14,2.274-4.104,3.598-6.025C643.556,969.588,644.964,967.726,646.623,966.038z"/>
			</g>
			<g>
				<path fill="#FF931C" d="M639.148,960.697c-1.056,2.118-2.359,4.055-3.72,5.951c-1.386,1.877-2.833,3.71-4.528,5.362
					c1.054-2.119,2.358-4.057,3.72-5.951C636.009,964.183,637.455,962.35,639.148,960.697z"/>
			</g>
			<g>
				<path fill="#FF931C" d="M631.676,955.163c-1.085,2.103-2.415,4.022-3.803,5.898c-1.412,1.857-2.884,3.67-4.602,5.298
					c1.084-2.104,2.414-4.023,3.803-5.898C628.488,958.605,629.96,956.792,631.676,955.163z"/>
			</g>
			<g>
				<path fill="#FF931C" d="M624.294,949.57c-1.102,2.094-2.447,4.003-3.85,5.868c-1.427,1.846-2.913,3.647-4.644,5.261
					c1.1-2.095,2.445-4.004,3.849-5.868C621.079,952.987,622.565,951.185,624.294,949.57z"/>
			</g>
			<g>
				<path fill="#FF931C" d="M617.085,944.05c-1.107,2.092-2.456,3.997-3.862,5.86c-1.431,1.843-2.921,3.641-4.655,5.251
					c1.105-2.093,2.454-3.999,3.862-5.859C613.862,947.46,615.352,945.662,617.085,944.05z"/>
			</g>
			<g>
				<path fill="#FF931C" d="M610.127,938.734c-1.098,2.096-2.439,4.008-3.838,5.876c-1.423,1.849-2.906,3.653-4.633,5.271
					c1.096-2.098,2.437-4.009,3.838-5.876C606.919,942.157,608.402,940.353,610.127,938.734z"/>
			</g>
			<g>
				<path fill="#FF931C" d="M603.497,933.748c-1.073,2.109-2.392,4.036-3.768,5.92c-1.402,1.865-2.863,3.687-4.571,5.325
					c1.071-2.11,2.39-4.037,3.768-5.92C600.329,937.209,601.791,935.387,603.497,933.748z"/>
			</g>
			<g>
				<path fill="#FF931C" d="M597.26,929.216c-1.027,2.132-2.303,4.088-3.638,6.002c-1.36,1.896-2.781,3.749-4.453,5.424
					c1.025-2.133,2.301-4.089,3.638-6.001C594.169,932.746,595.59,930.893,597.26,929.216z"/>
			</g>
			<g>
				<path fill="#FF931C" d="M591.466,925.256c-0.947,2.169-2.15,4.17-3.413,6.132c-1.289,1.945-2.64,3.849-4.249,5.585
					c0.945-2.17,2.148-4.171,3.413-6.132C588.508,928.898,589.859,926.993,591.466,925.256z"/>
			</g>
			<g>
				<path fill="#FF931C" d="M586.129,921.975c-0.81,2.224-1.886,4.296-3.024,6.333c-1.165,2.021-2.395,4.006-3.893,5.839
					c0.808-2.224,1.884-4.297,3.024-6.333C583.404,925.793,584.634,923.809,586.129,921.975z"/>
			</g>
			<g>
				<path fill="#FF931C" d="M581.168,919.467c-0.559,2.299-1.399,4.478-2.305,6.629c-0.935,2.138-1.937,4.247-3.223,6.234
					c0.557-2.3,1.397-4.479,2.305-6.628C578.882,923.564,579.885,921.456,581.168,919.467z"/>
			</g>
			<g>
				<path fill="#FF931C" d="M572.151,916.148c-0.318,2.345-0.927,4.599-1.605,6.832c-0.708,2.223-1.487,4.425-2.56,6.534
					c0.316-2.346,0.925-4.6,1.605-6.832C570.302,920.46,571.08,918.259,572.151,916.148z"/>
			</g>
			<g>
				<path fill="#FF931C" d="M562.996,913.767c-0.096,2.365-0.492,4.666-0.957,6.952c-0.496,2.28-1.065,4.544-1.935,6.745
					c0.094-2.365,0.49-4.666,0.958-6.952C561.559,918.234,562.128,915.969,562.996,913.767z"/>
			</g>
			<g>
				<path fill="#FF931C" d="M553.838,912.235c0.1,2.364-0.104,4.69-0.378,7.008c-0.306,2.313-0.685,4.617-1.37,6.883
					c-0.102-2.365,0.102-4.691,0.378-7.008C552.776,916.805,553.155,914.501,553.838,912.235z"/>
			</g>
			<g>
				<path fill="#FF931C" d="M544.723,911.423c0.267,2.351,0.228,4.686,0.118,7.017c-0.142,2.329-0.357,4.654-0.88,6.962
					c-0.269-2.351-0.23-4.686-0.118-7.017C543.987,916.056,544.202,913.731,544.723,911.423z"/>
			</g>
			<g>
				<path fill="#FF931C" d="M535.688,911.202c0.403,2.332,0.5,4.665,0.526,6.998c-0.006,2.333-0.086,4.667-0.474,7.002
					c-0.405-2.332-0.503-4.665-0.526-6.998C535.223,915.871,535.303,913.537,535.688,911.202z"/>
			</g>
			<g>
				<path fill="#FF931C" d="M526.766,911.448c0.509,2.311,0.713,4.637,0.845,6.967c0.101,2.331,0.128,4.666-0.153,7.016
					c-0.511-2.311-0.715-4.637-0.845-6.967C526.514,916.133,526.488,913.798,526.766,911.448z"/>
			</g>
			<g>
				<path fill="#FF931C" d="M517.985,912.039c0.586,2.293,0.867,4.611,1.077,6.935c0.179,2.326,0.283,4.659,0.081,7.017
					c-0.588-2.292-0.87-4.611-1.077-6.935C517.89,916.729,517.785,914.397,517.985,912.039z"/>
			</g>
			<g>
				<path fill="#FF931C" d="M509.375,912.854c0.635,2.28,0.965,4.591,1.224,6.91c0.228,2.322,0.382,4.652,0.23,7.014
					c-0.637-2.279-0.967-4.591-1.224-6.91C509.38,917.546,509.226,915.216,509.375,912.854z"/>
			</g>
			<g>
				<path fill="#FF931C" d="M500.967,913.779c0.655,2.274,1.006,4.583,1.286,6.899c0.249,2.32,0.424,4.648,0.293,7.012
					c-0.657-2.274-1.008-4.582-1.286-6.899C501.013,918.47,500.838,916.142,500.967,913.779z"/>
			</g>
			<g>
				<path fill="#FF931C" d="M492.793,914.7c0.646,2.276,0.989,4.586,1.26,6.904c0.24,2.321,0.406,4.65,0.266,7.013
					c-0.648-2.276-0.991-4.586-1.26-6.904C492.822,919.392,492.655,917.063,492.793,914.7z"/>
			</g>
			<g>
				<path fill="#FF931C" d="M484.89,915.508c0.607,2.287,0.909,4.603,1.14,6.925c0.2,2.325,0.326,4.656,0.145,7.016
					c-0.609-2.287-0.912-4.602-1.14-6.924C484.837,920.199,484.711,917.867,484.89,915.508z"/>
			</g>
			<g>
				<path fill="#FF931C" d="M477.298,916.096c0.533,2.306,0.761,4.63,0.917,6.958c0.125,2.33,0.176,4.664-0.081,7.017
					c-0.535-2.306-0.763-4.629-0.917-6.958C477.094,920.783,477.043,918.448,477.298,916.096z"/>
			</g>
			<g>
				<path fill="#FF931C" d="M470.06,916.364c0.419,2.329,0.533,4.661,0.576,6.994c0.011,2.333-0.053,4.667-0.424,7.005
					c-0.422-2.329-0.536-4.661-0.576-6.994C469.628,921.035,469.691,918.701,470.06,916.364z"/>
			</g>
			<g>
				<path fill="#FF931C" d="M463.224,916.219c0.26,2.352,0.216,4.687,0.099,7.017c-0.148,2.329-0.37,4.653-0.899,6.96
					c-0.263-2.352-0.218-4.687-0.099-7.017C462.476,920.851,462.697,918.526,463.224,916.219z"/>
			</g>
			<g>
				<path fill="#FF931C" d="M456.832,915.581c0.05,2.366-0.203,4.687-0.527,6.998c-0.355,2.306-0.783,4.602-1.516,6.852
					c-0.052-2.366,0.201-4.687,0.527-6.998C455.673,920.128,456.101,917.832,456.832,915.581z"/>
			</g>
			<g>
				<path fill="#FF931C" d="M450.915,914.382c-0.483,2.316-1.251,4.522-2.086,6.701c-0.864,2.167-1.797,4.308-3.017,6.336
					c0.481-2.317,1.249-4.522,2.086-6.7C448.764,918.551,449.697,916.411,450.915,914.382z"/>
			</g>
			<g>
				<path fill="#FF931C" d="M447.363,912.738c-1.629,1.717-3.441,3.19-5.296,4.605c-1.874,1.39-3.793,2.721-5.896,3.806
					c1.627-1.719,3.439-3.191,5.296-4.605C443.342,915.156,445.261,913.825,447.363,912.738z"/>
			</g>
			<g>
				<path fill="#FF931C" d="M447.721,909.879c-2.466-0.608-3.916-1.176-6.621-2.326c-2.135-0.941-4.24-1.951-6.224-3.243
					c2.298,0.564,4.475,1.411,6.621,2.326C443.632,907.58,445.737,908.589,447.721,909.879z"/>
			</g>
			<g>
				<path fill="#FF931C" d="M451.41,904.485c-2.106-1.079-4.03-2.402-5.911-3.784c-1.862-1.406-3.679-2.872-5.313-4.585
					c2.107,1.077,4.031,2.401,5.91,3.784C447.958,901.309,449.775,902.774,451.41,904.485z"/>
			</g>
			<g>
				<path fill="#FF931C" d="M455.975,898.807c-2.027-1.222-3.854-2.676-5.634-4.184c-1.76-1.532-3.472-3.12-4.983-4.942
					c2.028,1.22,3.855,2.674,5.634,4.184C452.751,895.398,454.463,896.987,455.975,898.807z"/>
			</g>
			<g>
				<path fill="#FF931C" d="M461.303,892.971c-1.953-1.337-3.693-2.893-5.384-4.502c-1.669-1.631-3.286-3.315-4.689-5.221
					c1.954,1.335,3.695,2.892,5.384,4.502C458.281,889.382,459.898,891.066,461.303,892.971z"/>
			</g>
			<g>
				<path fill="#FF931C" d="M467.282,887.088c-1.883-1.433-3.544-3.075-5.152-4.766c-1.585-1.712-3.116-3.475-4.422-5.449
					c1.885,1.431,3.545,3.073,5.151,4.766C464.443,883.353,465.974,885.116,467.282,887.088z"/>
			</g>
			<g>
				<path fill="#FF931C" d="M473.797,881.258c-1.816-1.517-3.4-3.232-4.93-4.995c-1.506-1.783-2.955-3.613-4.17-5.644
					c1.818,1.515,3.402,3.231,4.93,4.995C471.131,877.398,472.58,879.229,473.797,881.258z"/>
			</g>
			<g>
				<path fill="#FF931C" d="M480.738,875.577c-1.75-1.593-3.259-3.375-4.711-5.201c-1.428-1.845-2.797-3.737-3.925-5.818
					c1.751,1.592,3.26,3.374,4.711,5.201C478.239,871.606,479.608,873.497,480.738,875.577z"/>
			</g>
			<g>
				<path fill="#FF931C" d="M487.991,870.135c-1.681-1.665-3.114-3.509-4.488-5.395c-1.349-1.904-2.638-3.851-3.676-5.978
					c1.683,1.664,3.116,3.508,4.488,5.395C485.661,866.063,486.95,868.01,487.991,870.135z"/>
			</g>
			<g>
				<path fill="#FF931C" d="M495.444,865.021c-1.608-1.736-2.96-3.64-4.253-5.583c-1.266-1.96-2.47-3.961-3.416-6.13
					c1.61,1.735,2.962,3.638,4.253,5.583C493.291,860.852,494.495,862.853,495.444,865.021z"/>
			</g>
			<g>
				<path fill="#FF931C" d="M502.982,860.323c-1.527-1.808-2.792-3.771-3.994-5.771c-1.175-2.016-2.287-4.069-3.134-6.279
					c1.529,1.806,2.793,3.77,3.994,5.77C501.022,856.061,502.133,858.114,502.982,860.323z"/>
			</g>
			<g>
				<path fill="#FF931C" d="M510.489,856.127c-1.435-1.882-2.599-3.906-3.699-5.964c-1.073-2.072-2.08-4.179-2.814-6.429
					c1.437,1.881,2.601,3.905,3.699,5.964C508.745,851.772,509.752,853.878,510.489,856.127z"/>
			</g>
			<g>
				<path fill="#FF931C" d="M517.841,852.519c-1.324-1.961-2.37-4.049-3.351-6.166c-0.952-2.13-1.836-4.291-2.441-6.579
					c1.326,1.96,2.372,4.048,3.351,6.166C516.35,848.071,517.235,850.232,517.841,852.519z"/>
			</g>
			<g>
				<path fill="#FF931C" d="M524.91,849.581c-1.188-2.047-2.089-4.201-2.923-6.38c-0.805-2.19-1.54-4.406-1.987-6.731
					c1.19,2.046,2.091,4.2,2.922,6.38C523.726,845.042,524.461,847.258,524.91,849.581z"/>
			</g>
			<g>
				<path fill="#FF931C" d="M531.553,847.39c-1.011-2.139-1.728-4.362-2.377-6.603c-0.618-2.25-1.164-4.52-1.414-6.874
					c1.013,2.139,1.731,4.361,2.376,6.603C530.755,842.767,531.301,845.037,531.553,847.39z"/>
			</g>
			<g>
				<path fill="#FF931C" d="M537.61,846.01c-0.776-2.236-1.251-4.522-1.655-6.82c-0.373-2.303-0.673-4.619-0.669-6.986
					c0.778,2.235,1.253,4.521,1.655,6.82C537.312,841.328,537.612,843.644,537.61,846.01z"/>
			</g>
			<g>
				<path fill="#FF931C" d="M542.899,845.472c-0.453-2.323-0.599-4.653-0.675-6.986c-0.044-2.333-0.013-4.668,0.325-7.01
					c0.455,2.323,0.602,4.653,0.674,6.985C543.265,840.795,543.234,843.13,542.899,845.472z"/>
			</g>
		</g>
		<g>
			<path fill="#BD0025" d="M484.225,897.81c-0.014,0.375,0.003,0.772,0.203,1.09c0.475,0.754,1.687,0.586,2.337-0.023
				c0.65-0.609,0.962-1.491,1.479-2.216c1.249-1.749,3.588-2.46,4.834-4.211c0.393-0.552,0.666-1.229,0.575-1.901
				c-0.116-0.856-0.876-1.58-1.736-1.654C488.119,888.568,484.342,894.636,484.225,897.81z"/>
		</g>
		<g>
			<path fill="#BD0025" d="M525.828,869.552c0.378,1.111,0.656,2.515,1.774,2.871c1.09,0.347,2.225-0.724,2.357-1.861
				c0.132-1.137-0.432-2.232-1.047-3.196c-0.981-1.537-2.214-3.018-3.905-3.7c-1.422-0.574-3.28-0.135-2.604,1.547
				C523.053,866.828,525.179,867.643,525.828,869.552z"/>
		</g>
		<g>
			<path fill="#BD0025" d="M540.456,878.808c-0.597,0.741-1.295,1.604-1.071,2.529c0.18,0.745,0.959,1.24,1.725,1.27
				c0.766,0.031,1.502-0.32,2.114-0.783c1.648-1.246,2.551-3.293,2.787-5.345c0.108-0.938,0.086-1.912-0.254-2.793
				c-0.662-1.718-3.417-3.057-3.645-0.613c-0.068,0.735,0.612,1.392,0.464,2.281C542.376,876.557,541.193,877.893,540.456,878.808z"
				/>
		</g>
		<g>
			<path fill="#BD0025" d="M575.626,900.961c0.791,0.819,1.797,1.522,2.934,1.592c1.137,0.07,2.372-0.693,2.503-1.825
				c0.147-1.268-1.014-2.27-1.5-3.451c-0.306-0.744-0.341-1.571-0.585-2.337c-0.425-1.333-1.515-2.435-2.843-2.873
				C570.494,890.204,573.987,899.264,575.626,900.961z"/>
		</g>
		<g>
			<path fill="#BD0025" d="M590.612,890.414c0.35,0.237,0.782,0.377,1.199,0.308c0.638-0.105,1.118-0.679,1.306-1.297
				c0.189-0.619,0.142-1.281,0.094-1.926c-0.045-0.598-0.09-1.197-0.134-1.795c-0.115-1.535-0.272-3.179-1.254-4.364
				c-0.749-0.903-1.941-1.42-3.112-1.347c-3.101,0.192-2.081,2.448-0.928,3.849C589.295,885.679,588.581,889.039,590.612,890.414z"
				/>
		</g>
		<g>
			<path fill="#BD0025" d="M619.29,913.513c-0.594,0.388-1.228,0.742-1.689,1.281c-0.461,0.539-0.716,1.328-0.411,1.969
				c0.26,0.545,0.86,0.854,1.454,0.963c2.051,0.376,3.93-1.164,5.327-2.711c1.093-1.211,2.124-2.533,2.626-4.085
				c0.659-2.038-1.273-3.431-2.873-2.145C622.05,910.13,621.244,912.234,619.29,913.513z"/>
		</g>
		<g>
			<g>
				<path fill="#00CCE5" d="M504.42,879.056c0.38,0.268,0.747,0.577,1.192,0.711c1.141,0.342,2.368-0.743,2.431-1.933
					c0.063-1.19-0.786-2.287-1.846-2.832c-1.06-0.545-2.292-0.634-3.484-0.617c-1.983,0.028-4.171,0.434-5.388,2
					c-0.229,0.294-0.421,0.647-0.391,1.021c0.111,1.339,2.661,0.316,3.477,0.338C501.835,877.785,503.254,878.236,504.42,879.056z"
					/>
			</g>
			<g>
				<path fill="#00CCE5" d="M515.544,890.029c-0.288,1.701-0.574,3.468-0.116,5.131c0.182,0.662,0.502,1.319,1.063,1.714
					c0.561,0.395,1.402,0.445,1.899-0.027c0.655-0.623,0.42-1.685,0.411-2.589c-0.011-1.213,0.479-2.37,0.669-3.568
					c0.124-0.783,0.12-1.586-0.013-2.367c-0.147-0.862-0.517-1.776-1.299-2.166C515.935,885.049,515.739,888.878,515.544,890.029z"
					/>
			</g>
			<g>
				<path fill="#00CCE5" d="M556.801,863.126c0.614,0.102,1.367,0.177,1.739-0.322c0.291-0.39,0.183-0.945-0.012-1.391
					c-1.558-3.556-7.313-4.445-10.192-2.075c-1.292,1.064-1.805,2.816,0.091,3.62c1.063,0.451,2.813-0.114,3.951-0.142
					C553.857,862.78,555.341,862.884,556.801,863.126z"/>
			</g>
			<g>
				<path fill="#00CCE5" d="M550.828,895.053c0.803-0.221,1.595-0.552,2.216-1.107c0.622-0.554,1.058-1.358,1.029-2.19
					c-0.029-0.817-0.531-1.601-1.261-1.969c-0.73-0.368-1.659-0.306-2.333,0.156c-0.38,0.261-0.677,0.632-1.066,0.88
					c-0.761,0.484-1.735,0.419-2.633,0.338c-0.907-0.082-1.815-0.165-2.722-0.247c-0.727-0.066-1.523-0.115-2.123,0.301
					c-2.342,1.625,1.073,2.893,2.184,3.325C546.281,895.382,548.559,895.677,550.828,895.053z"/>
			</g>
			<g>
				<path fill="#00CCE5" d="M568.99,873.571c-0.662,0.89-1.034,1.991-1.046,3.1c-0.007,0.655,0.137,1.365,0.631,1.795
					c0.217,0.189,0.489,0.311,0.771,0.367c1.268,0.254,2.417-0.757,3.251-1.745c1.205-1.429,2.288-3.058,2.554-4.909
					c0.187-1.302-1.389-6.605-3.535-4.815c-0.551,0.459-0.081,2.2-0.249,2.856C571.002,871.652,569.834,872.438,568.99,873.571z"/>
			</g>
			<g>
				<path fill="#00CCE5" d="M602.724,915.385c0.795,0.499,1.925,0.793,2.607,0.148c0.721-0.682,0.408-1.911-0.178-2.712
					c-0.586-0.801-1.406-1.48-1.667-2.437c-0.454-1.663,0.968-3.465,0.37-5.083c-1.227-3.324-5.234-0.287-5.242,2.164
					C598.605,910.113,600.518,914.001,602.724,915.385z"/>
			</g>
			<g>
				<path fill="#00CCE5" d="M609.343,895.983c0.544,0.588,1.256,1.319,2.003,1.028c0.359-0.14,0.592-0.491,0.732-0.85
					c0.498-1.28,0.03-2.8-0.917-3.796c-0.946-0.996-2.292-1.529-3.644-1.772c-0.763-0.137-1.568-0.188-2.297,0.077
					c-1.652,0.601-1.844,2.472-0.315,3.195c0.527,0.25,1.357,0.018,1.952,0.231C607.793,894.43,608.682,895.268,609.343,895.983z"/>
			</g>
			<g>
				<path fill="#00CCE5" d="M628.653,934.108c0.199,0.691,0.415,1.412,0.917,1.926c0.502,0.515,1.385,0.734,1.944,0.282
					c0.363-0.294,0.5-0.78,0.583-1.24c0.545-3.007-0.44-6.252-2.564-8.449c-1.323-1.37-3.941-1.48-3.501,0.878
					c0.142,0.759,1.076,1.627,1.387,2.367C627.977,931.201,628.254,932.724,628.653,934.108z"/>
			</g>
		</g>
		<g>
			<path fill="#BD0025" d="M641.058,942.916c0.136,0.409,0.417,0.877,0.846,0.845c0.323-0.024,0.542-0.326,0.716-0.599
				c0.449-0.706,0.898-1.412,1.347-2.118c0.798-1.255,1.631-2.69,1.297-4.139c-0.036-0.157-0.086-0.312-0.166-0.452
				c-0.344-0.605-1.173-0.785-1.843-0.596C640.487,936.638,640.311,940.671,641.058,942.916z"/>
		</g>
		<g>
			<g>
				<path fill="#FF931C" d="M661.918,841.075c-2.446-1.114-5.046-1.38-7.596-0.905c0.635-1.307,0.894-2.761,0.541-4.224
					c-0.786-3.257-5.463-0.393-4.601,2.39c0.52,1.677-1.435,2.798-2.752,3.133c-1.448,0.368-2.981,0.103-4.469-0.109
					c1.974-3.274,2.556-8.228-1.688-9.76c-2.369-0.855-5.545,3.366-2.892,4.399c2.305,0.898,2.109,3.353,0.681,5.055
					c-1.763,2.102-4.169,1.402-6.469,0.685c-0.312-0.097-0.856,0.285-0.644,0.645c1.046,1.779,2.111,3.104,4.322,3.157
					c1.851,0.044,3.634-0.859,4.992-2.092c1.955,2.295,5.753,2.192,8.397,1.053c0.856-0.369,1.683-0.901,2.421-1.548
					c5.04-0.55,9.557,2.495,10.22,7.612c0.445,3.436,5.115,0.881,5.411-1.444C668.281,845.298,665.121,842.534,661.918,841.075z"/>
			</g>
			<g>
				<path fill="#FF931C" d="M681.93,867.463c-2.135,3.917-7.546,2.835-11.069,1.171c0.429-1.515,0.446-3.07-0.375-4.322
					c1.091-1.427,1.824-3.139,2.075-4.993c0.078-0.578-0.131-1.195-0.694-1.45c-2.696-1.221-3.071,3.498-4.172,4.737
					c-1.151,1.293-2.941,1.722-4.616,1.498c-1.72-0.229-2.875-1.5-4.54-1.778c-0.849-0.142-1.623,0.787-1.574,1.574
					c0.225,3.63,5.609,4.718,8.463,3.9c0.25-0.072,0.481-0.178,0.721-0.268c0.056,0.092,0.106,0.185,0.182,0.272
					c0.323,0.372-0.331,1.89-0.482,2.262c-0.342,0.847-0.825,1.656-1.534,2.25c-1.034,0.867-3.367,0.521-3.711,2.091
					c-0.023,0.105-0.046,0.209-0.069,0.314c-0.059,0.272,0.036,0.729,0.264,0.915c2.609,2.135,6.019-0.577,7.741-2.665
					c0.17-0.206,0.34-0.433,0.509-0.67c3.422,4.241,13.469,0.987,15.886-3.448C686.271,866.402,683.114,865.29,681.93,867.463z"/>
			</g>
			<g>
				<path fill="#FF931C" d="M691,854.035c-0.178-1.826-2.353-1.241-3.249-0.433c-0.48,0.433-0.645,1.203-1.229,1.448
					c-0.302,0.127-0.654,0.113-0.99,0.022c1.351-2.698,1.879-5.713,0.498-8.575c-1.276-2.643-5.9,0.748-4.504,2.96
					c0.888,1.408,1.025,2.825,0.494,4.41c-0.241,0.716-0.543,1.63-1.046,2.189c-0.65,0.722-1.127,0.841-2.156,0.933
					c-1.088,0.097-2.268,1.701-1.394,2.651c1.723,1.876,4.032,0.54,5.68-1.115c1.185,0.589,2.557,0.697,3.886,0.284
					C688.932,858.205,691.216,856.245,691,854.035z"/>
			</g>
			<g>
				<path fill="#FF931C" d="M702.391,881.329c-0.263-2.391-3.444-0.872-3.953,0.565c-0.664,1.875-2.269,3.527-3.802,4.78
					c-1.283,1.048-2.758,1.512-4.303,1.813c0.724-1.215,1.277-2.522,1.551-3.957c0.442-2.318,0.179-5.599-2.41-6.43
					c-1.658-0.532-4.365,1.469-3.34,3.34c1.324,2.419,1.365,3.951-0.03,6.38c-0.852,1.483-4.062,7.002-5.776,3.812
					c-0.738-1.373-2.692,0.159-2.558,1.329c0.219,1.911,1.705,3.059,3.638,3.026c2.674-0.045,4.743-2.295,6.392-4.14
					c0.243-0.272,0.481-0.548,0.714-0.828c1.509,0.955,3.489,0.851,5.478,0.105c0.18,0.766,0.544,1.424,0.828,2.372
					c0.464,1.547,0.523,3.241,0.123,4.812c-0.341,1.343-1.128,3.063-2.279,3.918c-1.807,1.343-3.886,0.173-5.942,0.688
					c-0.482,0.121-0.973,0.546-0.905,1.099c0.338,2.773,3.509,3.299,5.872,2.736c2.563-0.612,4.752-2.723,6.085-4.918
					c1.748-2.878,3.299-10.314,0.339-13.147C700.725,886.538,702.646,883.641,702.391,881.329z"/>
			</g>
			<g>
				<path fill="#FF931C" d="M711.847,908.337c-1.757-1.387-4.898,0.758-4.428,2.933c0.581,2.687,0.824,4.737-1.664,6.579
					c-0.936,0.693-2.324,1.447-3.543,1.37c-0.933-0.059-1.606-0.532-2.582-0.396c-0.406,0.057-0.893,0.42-1.009,0.832
					c-0.553,1.955,0.982,2.836,2.781,2.982c1.599,0.13,3.241-0.347,4.712-1.052c-0.018,0.246-0.044,0.495-0.101,0.754
					c-0.404,1.863-2.04,3.269-3.537,4.295c-3.158,2.164-5.884,1.956-9.417,1.302c-0.145-0.027-0.295,0.126-0.314,0.259
					c-0.943,6.611,8.429,3.618,11.339,1.916c2.442-1.427,4.682-3.417,5.825-6.059c0.696-1.608,1.306-4.105,0.538-5.783
					c0.761-0.92,1.384-1.952,1.803-3.065C712.914,913.438,713.61,909.729,711.847,908.337z"/>
			</g>
			<g>
				<path fill="#FF931C" d="M623.773,829.698c-1.141,0.688-1.364,1.193-2.801,0.755c-0.568-0.173-1.098-0.409-1.625-0.637
					c1.248-1.238,2.112-2.87,2.422-4.663c0.611-3.541-4.692-2.085-5.109,0.73c-0.618,4.179-5.768,1.08-7.9,0.789
					c-0.626-0.086-1.375,0.614-1.259,1.259c0.536,2.983,4.724,4.497,7.418,4.116c0.126-0.018,0.241-0.06,0.364-0.084
					c0.921,1.938,2.876,3.2,5.067,3.451c2.431,0.278,5.764-1.023,6.46-3.58C627.388,829.703,625.62,828.584,623.773,829.698z"/>
			</g>
		</g>
	</g>
	<g>
		<path d="M92.928,904.243h-4.566v-11.435H75.016v-3.629h31.416v3.629H92.928V904.243z M102.646,885.666H78.801V871.07h4.527v3.942
			h14.713v-3.981h4.605V885.666z M98.041,882.037v-3.473H83.328v3.473H98.041z"/>
		<path d="M129.925,885.861l-2.576,3.63c-1.379-0.52-2.843-1.503-4.39-2.947c-1.548-1.444-2.687-2.946-3.415-4.508
			c-0.521,1.717-1.574,3.383-3.161,4.995c-1.587,1.614-3.214,2.706-4.878,3.278l-2.771-3.63c2.549-0.91,4.585-2.42,6.107-4.527
			c1.522-2.107,2.283-4.462,2.283-7.064v-3.668h4.761v3.434c0,2.55,0.8,4.846,2.4,6.888
			C125.886,883.787,127.765,885.159,129.925,885.861z M138.277,903.267h-24.157v-10.888h4.605v7.298h19.552V903.267z
			 M137.535,894.642h-4.566v-25.211h4.566V894.642z"/>
		<path d="M7.399,941.651l8.225-23.52h7.035l8.155,23.52h-6.72l-1.575-4.655h-7.7l-1.47,4.655H7.399z M18.564,924.956l-2.485,7.805
			h5.11l-2.485-7.805H18.564z"/>
		<path d="M39.914,941.931c-2.007,0-3.693-0.682-5.058-2.047s-2.047-3.518-2.047-6.458v-0.455c0-2.986,0.688-5.215,2.065-6.685
			c1.376-1.47,3.231-2.205,5.565-2.205c1.843,0,3.418,0.42,4.725,1.26v-8.75h2.205v25.06h-1.855l-0.21-1.505h-0.14
			C43.857,941.336,42.107,941.931,39.914,941.931z M40.544,940.146c1.843,0,3.383-0.548,4.62-1.645v-11.305
			c-1.027-0.817-2.485-1.225-4.375-1.225c-3.803,0-5.705,2.252-5.705,6.755v0.63C35.084,937.883,36.904,940.146,40.544,940.146z"/>
		<path d="M52.479,941.651v-17.29h2.1v1.995h0.14c0.56-0.606,1.289-1.125,2.188-1.557c0.898-0.431,1.825-0.647,2.782-0.647
			c0.49,0,0.84,0.035,1.05,0.105v2.03c-0.42-0.07-0.828-0.105-1.225-0.105c-1.82,0-3.43,0.583-4.83,1.75v13.72H52.479z"/>
		<path d="M71.308,941.931c-2.684,0-4.714-0.758-6.09-2.275c-1.377-1.516-2.065-3.663-2.065-6.44v-0.42
			c0-2.847,0.711-5.01,2.135-6.493c1.423-1.481,3.22-2.222,5.39-2.222c4.573,0,6.86,2.683,6.86,8.05v1.26h-12.11
			c0.023,2.333,0.548,4.025,1.575,5.075c1.027,1.05,2.578,1.575,4.655,1.575c1.937,0,3.721-0.42,5.355-1.26v1.68
			C75.543,941.441,73.641,941.931,71.308,941.931z M70.608,925.866c-1.377,0-2.543,0.467-3.5,1.4
			c-0.957,0.933-1.505,2.392-1.645,4.375h9.765c0-1.96-0.38-3.412-1.137-4.358C73.332,926.338,72.171,925.866,70.608,925.866z"/>
		<path d="M81.563,941.651v-17.255h2.1v1.54h0.14c1.89-1.237,3.955-1.855,6.195-1.855c1.68,0,2.928,0.367,3.745,1.102
			c0.816,0.735,1.225,1.907,1.225,3.518v12.95h-2.205v-12.46c0-1.167-0.274-1.995-0.822-2.485c-0.549-0.49-1.511-0.735-2.888-0.735
			c-1.797,0-3.558,0.49-5.285,1.47v14.21H81.563z"/>
		<path d="M104.137,941.931c-1.587,0-2.87-0.414-3.85-1.243c-0.98-0.828-1.47-2-1.47-3.517c0-2.917,1.727-4.573,5.18-4.97l4.9-0.56
			v-2.03c0-1.376-0.327-2.328-0.98-2.852c-0.654-0.525-1.773-0.788-3.36-0.788c-1.167,0-2.59,0.199-4.27,0.595v-1.575
			c1.54-0.606,3.231-0.91,5.075-0.91c3.826,0,5.74,1.668,5.74,5.005v12.565h-1.785l-0.21-1.54h-0.14
			C107.847,941.324,106.237,941.931,104.137,941.931z M104.697,940.181c1.796,0,3.197-0.455,4.2-1.365v-5.53l-4.305,0.49
			c-1.214,0.117-2.1,0.438-2.66,0.963c-0.56,0.525-0.84,1.312-0.84,2.362c0,0.98,0.32,1.739,0.962,2.275
			C102.696,939.913,103.577,940.181,104.697,940.181z"/>
		<path d="M116.212,941.651v-25.06h2.205v25.06H116.212z"/>
		<path d="M138.716,946.901c-2.59,0-4.515-0.362-5.775-1.085c-1.26-0.724-1.89-1.727-1.89-3.01c0-1.633,1.12-2.847,3.36-3.64v-0.14
			c-0.49-0.14-0.905-0.396-1.242-0.77c-0.339-0.373-0.508-0.828-0.508-1.365c0-0.933,0.618-1.89,1.855-2.87
			c-1.447-0.98-2.17-2.403-2.17-4.27v-0.21c0-1.703,0.6-3.051,1.802-4.042c1.201-0.992,2.747-1.488,4.637-1.488
			c0.77,0,1.552,0.094,2.345,0.28h5.81v1.68h-3.36c1.003,0.864,1.505,2.03,1.505,3.5v0.175c0,1.774-0.59,3.132-1.768,4.078
			c-1.178,0.945-2.701,1.417-4.568,1.417c-1.143,0-2.17-0.175-3.08-0.525c-0.607,0.56-0.91,1.074-0.91,1.54
			c0,0.957,0.607,1.435,1.82,1.435h4.9c3.593,0,5.39,1.365,5.39,4.095c0,1.54-0.677,2.794-2.03,3.762
			C143.488,946.416,141.446,946.901,138.716,946.901z M138.646,945.116c3.943,0,5.915-1.038,5.915-3.115
			c0-0.933-0.262-1.563-0.787-1.89c-0.525-0.326-1.406-0.49-2.643-0.49h-5.075c-1.774,0.583-2.66,1.54-2.66,2.87
			c0,0.886,0.408,1.546,1.225,1.978C135.438,944.9,136.779,945.116,138.646,945.116z M138.751,933.461
			c1.307,0,2.322-0.315,3.045-0.945c0.723-0.63,1.085-1.552,1.085-2.765v-0.315c0-1.237-0.367-2.164-1.103-2.783
			c-0.735-0.618-1.744-0.927-3.028-0.927c-1.283,0-2.298,0.321-3.045,0.963c-0.747,0.642-1.12,1.535-1.12,2.677v0.315
			c0,1.237,0.373,2.176,1.12,2.818C136.453,933.14,137.468,933.461,138.751,933.461z"/>
		<path d="M150.196,941.651v-25.06h2.205v25.06H150.196z"/>
		<path d="M161.746,941.931c-1.587,0-2.87-0.414-3.85-1.243c-0.98-0.828-1.47-2-1.47-3.517c0-2.917,1.727-4.573,5.18-4.97l4.9-0.56
			v-2.03c0-1.376-0.327-2.328-0.98-2.852c-0.654-0.525-1.773-0.788-3.36-0.788c-1.167,0-2.59,0.199-4.27,0.595v-1.575
			c1.54-0.606,3.231-0.91,5.075-0.91c3.826,0,5.74,1.668,5.74,5.005v12.565h-1.785l-0.21-1.54h-0.14
			C165.456,941.324,163.846,941.931,161.746,941.931z M162.306,940.181c1.796,0,3.197-0.455,4.2-1.365v-5.53l-4.305,0.49
			c-1.214,0.117-2.1,0.438-2.66,0.963c-0.56,0.525-0.84,1.312-0.84,2.362c0,0.98,0.32,1.739,0.962,2.275
			C160.305,939.913,161.186,940.181,162.306,940.181z"/>
		<path d="M173.751,941.651v-17.255h2.1v1.54h0.14c1.89-1.237,3.955-1.855,6.195-1.855c1.68,0,2.928,0.367,3.745,1.102
			c0.816,0.735,1.225,1.907,1.225,3.518v12.95h-2.205v-12.46c0-1.167-0.274-1.995-0.822-2.485c-0.549-0.49-1.511-0.735-2.888-0.735
			c-1.797,0-3.558,0.49-5.285,1.47v14.21H173.751z"/>
		<path d="M198.25,941.931c-2.007,0-3.693-0.682-5.058-2.047s-2.047-3.518-2.047-6.458v-0.455c0-2.986,0.688-5.215,2.065-6.685
			c1.376-1.47,3.231-2.205,5.565-2.205c1.843,0,3.418,0.42,4.725,1.26v-8.75h2.205v25.06h-1.855l-0.21-1.505h-0.14
			C202.193,941.336,200.443,941.931,198.25,941.931z M198.88,940.146c1.843,0,3.383-0.548,4.62-1.645v-11.305
			c-1.027-0.817-2.485-1.225-4.375-1.225c-3.803,0-5.705,2.252-5.705,6.755v0.63C193.42,937.883,195.24,940.146,198.88,940.146z"/>
	</g>
	<g>
		<path fill="#29ABE2" d="M405.025,404.65c-4.133,0-7.35-1.192-9.651-3.578c-2.302-2.385-3.453-5.935-3.453-10.65v-1.04
			c0-2.496,0.346-4.68,1.04-6.552c0.693-1.872,1.67-3.349,2.933-4.431c1.262-1.082,2.69-1.886,4.285-2.413
			c1.594-0.526,3.363-0.79,5.304-0.79c3.106,0,5.533,0.472,7.28,1.414v4.451c-2.552-0.832-4.729-1.248-6.531-1.248
			c-2.524,0-4.486,0.735-5.886,2.205c-1.401,1.47-2.101,3.744-2.101,6.823v1.414c0,3.19,0.638,5.603,1.914,7.239
			c1.275,1.637,3.314,2.454,6.115,2.454c2.302,0,4.535-0.485,6.698-1.456v4.451C410.919,404.082,408.271,404.65,405.025,404.65z"/>
		<path fill="#29ABE2" d="M417.256,404.193v-28.539h10.234c6.85,0,10.276,2.829,10.276,8.487c0,3.606-1.692,6.047-5.075,7.322v0.208
			l7.072,12.522h-6.781l-5.658-11.232h-4.16v11.232H417.256z M423.122,389.091h3.661c1.719,0,2.96-0.381,3.723-1.144
			c0.762-0.762,1.144-1.934,1.144-3.515c0-1.553-0.382-2.676-1.144-3.37c-0.763-0.693-2.018-1.04-3.765-1.04h-3.619V389.091z"/>
		<path fill="#29ABE2" d="M443.007,404.193v-28.539h5.907v11.607h11.274v-11.607h5.949v28.539h-5.949v-12.439h-11.274v12.439
			H443.007z"/>
	</g>
	<g>
		<path fill="#29ABE2" d="M364.771,627.181l10.151-28.539h6.157l10.026,28.539h-6.074l-2.371-6.823h-10.151l-2.33,6.823H364.771z
			 M377.418,605.34l-3.578,10.816h7.447l-3.702-10.816H377.418z"/>
		<path fill="#29ABE2" d="M406.165,627.639c-4.133,0-7.35-1.192-9.651-3.578c-2.302-2.385-3.453-5.935-3.453-10.65v-1.04
			c0-2.496,0.346-4.68,1.04-6.552c0.693-1.872,1.67-3.349,2.933-4.431c1.262-1.082,2.69-1.886,4.285-2.413
			c1.594-0.526,3.363-0.79,5.304-0.79c3.106,0,5.533,0.472,7.28,1.414v4.451c-2.552-0.832-4.729-1.248-6.531-1.248
			c-2.524,0-4.486,0.735-5.886,2.205c-1.401,1.47-2.101,3.744-2.101,6.823v1.414c0,3.19,0.638,5.603,1.914,7.239
			c1.275,1.637,3.314,2.454,6.115,2.454c2.302,0,4.535-0.485,6.698-1.456v4.451C412.058,627.07,409.41,627.639,406.165,627.639z"/>
		<path fill="#29ABE2" d="M424.303,627.181v-24.087h-7.946v-4.451h21.841v4.451h-8.029v24.087H424.303z"/>
		<path fill="#29ABE2" d="M441.983,627.181v-28.539h5.907v11.607h11.274v-11.607h5.949v28.539h-5.949v-12.439H447.89v12.439H441.983
			z"/>
	</g>
	<g>
		<path d="M795.009,918.055c-0.028,4.382-0.735,8.223-2.122,11.524c-1.387,3.301-3.21,6.019-5.471,8.154
			c-2.261,2.136-5.138,4.119-8.632,5.949l-1.747-2.122c6.573-2.995,10.996-7.169,13.271-12.522l-12.605,1.373l-0.666-2.496
			l14.103-1.082c0.666-2.246,1.012-4.41,1.04-6.49H778.95v-2.288H795.009z M804.244,914.103v15.226h6.115v2.246h-6.115v18.887
			h-2.663v-36.36H804.244z"/>
		<path d="M825.252,930.369h-8.569v8.445c5.103,0.139,9.346-0.194,12.729-0.998l0.25,2.246c-4.077,0.86-9.292,1.248-15.643,1.165
			v-22.673h13.396v2.288h-10.733v7.405h8.569V930.369z M833.198,929.994h-5.575v-2.288h5.575v-12.688h2.621v33.531h-2.621V929.994z
			 M843.058,950.462h-2.663v-36.36h2.663V950.462z"/>
		<path d="M881.247,932.532h-32.823v-2.288h13.729v-4.743h2.621v4.743h16.474V932.532z M876.92,915.6v3.078
			c0,3.772-0.361,6.879-1.082,9.319l-2.579-0.374c0.333-1.22,0.582-2.746,0.749-4.576l-21.633,1.248l-0.541-2.33l22.298-0.998v-3.12
			h-21.425V915.6H876.92z M878.252,949.963h-25.71v-8.279h21.633v-3.619h-21.758v-2.205h24.42v7.946h-21.633v3.952h23.047V949.963z"
			/>
		<path d="M885.199,929.703c0-3.911,0.776-7.003,2.33-9.277c1.553-2.274,3.744-3.411,6.573-3.411c2.801,0,4.978,1.144,6.531,3.432
			c1.553,2.288,2.33,5.387,2.33,9.298s-0.777,7.01-2.33,9.298c-1.554,2.288-3.73,3.432-6.531,3.432
			c-2.829,0-5.021-1.144-6.573-3.432C885.975,936.755,885.199,933.641,885.199,929.703z M898.657,937.212
			c1.15-1.927,1.726-4.416,1.726-7.467c0-3.051-0.576-5.547-1.726-7.488c-1.151-1.941-2.669-2.912-4.555-2.912
			c-1.887,0-3.405,0.971-4.556,2.912c-1.151,1.942-1.727,4.438-1.727,7.488c0,3.051,0.575,5.54,1.727,7.467
			c1.15,1.928,2.669,2.891,4.556,2.891C895.987,940.103,897.506,939.14,898.657,937.212z M918.355,931.201h-6.157v19.261h-2.663
			v-36.36h2.663v14.81h6.157V931.201z"/>
		<path d="M939.155,934.03h-16.891v-16.474h16.891V934.03z M936.493,931.742v-11.94h-11.565v11.94H936.493z M950.762,949.172
			h-24.253v-11.108h2.663v8.861h21.591V949.172z M950.013,940.519h-2.662v-26.417h2.662V940.519z"/>
		<path d="M783.392,991.65c-3.85-4.06-5.775-8.808-5.775-14.245v-0.63c0-5.437,1.925-10.185,5.775-14.245h1.96
			c-1.61,1.867-2.922,4.007-3.938,6.422c-1.015,2.415-1.522,4.953-1.522,7.613v0.875c0,2.614,0.513,5.168,1.54,7.665
			c1.027,2.497,2.333,4.678,3.92,6.545H783.392z"/>
		<path d="M788.082,974.535c0-3.29,0.653-5.891,1.96-7.805c1.306-1.913,3.15-2.87,5.53-2.87c2.356,0,4.188,0.963,5.495,2.888
			c1.307,1.925,1.96,4.532,1.96,7.823c0,3.29-0.653,5.897-1.96,7.823c-1.307,1.925-3.139,2.887-5.495,2.887
			c-2.38,0-4.224-0.963-5.53-2.887C788.734,980.468,788.082,977.849,788.082,974.535z M799.404,980.853
			c0.968-1.621,1.453-3.715,1.453-6.282c0-2.567-0.484-4.667-1.453-6.3c-0.968-1.633-2.246-2.45-3.832-2.45
			c-1.587,0-2.865,0.817-3.833,2.45c-0.969,1.634-1.453,3.734-1.453,6.3c0,2.567,0.484,4.661,1.453,6.282
			c0.968,1.622,2.245,2.432,3.833,2.432C797.158,983.285,798.436,982.475,799.404,980.853z M815.977,975.795h-5.18V992h-2.24v-30.59
			h2.24v12.46h5.18V975.795z"/>
		<path d="M845.306,987.73h-27.615v-1.89h27.615V987.73z M841.946,978.42h-20.615v-13.86h20.3v1.925h-18.06v10.045h18.375V978.42z"
			/>
		<path d="M862.246,983.39c-3.034,0.583-7.467,0.875-13.3,0.875v-10.99h8.855v-6.265h-8.925v-1.925h11.165v10.08h-8.855v7.14
			c4.433,0,8.026-0.28,10.78-0.84L862.246,983.39z M867.986,990.39h-2.24v-15.085h-4.62v-1.925h4.62v-11.2h2.24V990.39z
			 M873.726,992h-2.24v-30.59h2.24V992z"/>
		<path d="M896.37,973.905c-1.96,0.397-4.544,0.729-7.752,0.997c-3.209,0.269-6.26,0.403-9.153,0.403v-12.25h2.24v10.255
			c6.137-0.093,10.908-0.548,14.315-1.365L896.37,973.905z M902.811,991.79h-20.37v-7.56h16.94v-3.465h-17.115v-1.925h19.354v7.14
			h-16.939v3.885h18.13V991.79z M906.38,969.95h-4.76v6.895h-2.24V961.41h2.24v6.615h4.76V969.95z"/>
		<path d="M911.595,965.593c1.54-1.365,3.407-2.047,5.601-2.047c2.192,0,4.054,0.677,5.582,2.03
			c1.528,1.354,2.293,3.115,2.293,5.285c0,2.194-0.765,3.973-2.293,5.338s-3.39,2.047-5.582,2.047c-2.194,0-4.061-0.677-5.601-2.03
			c-1.54-1.353-2.31-3.115-2.31-5.285C909.285,968.737,910.055,966.958,911.595,965.593z M917.195,965.54
			c-1.61,0-2.946,0.496-4.008,1.487c-1.062,0.992-1.593,2.27-1.593,3.833c0,1.587,0.537,2.888,1.61,3.903
			c1.073,1.015,2.403,1.522,3.99,1.522c1.68,0,3.033-0.49,4.06-1.47c1.026-0.98,1.54-2.275,1.54-3.885s-0.514-2.911-1.54-3.903
			C920.228,966.036,918.875,965.54,917.195,965.54z M934.24,990.915h-20.65v-9.31h2.24v7.42h18.41V990.915z M933.435,983.635h-2.24
			V961.41h2.24V983.635z"/>
		<path d="M937.984,992.63l1.365-6.825h2.835l-2.555,6.825H937.984z"/>
		<path d="M776.182,1019.79h-9.415v8.155h12.74v1.89h-27.615v-1.89h12.635v-8.155h-9.065v-13.615h2.24v11.725h18.48V1019.79z"/>
		<path d="M809.782,1029.73h-27.615v-1.89h27.615V1029.73z M806.877,1022.205h-21.105v-9.275h18.095v-5.145h-18.13v-1.89h20.37
			v8.925h-18.095v5.46h18.865V1022.205z"/>
		<path d="M813.106,1016.535c0-3.29,0.653-5.891,1.96-7.805c1.307-1.913,3.15-2.87,5.53-2.87c2.356,0,4.188,0.963,5.495,2.888
			c1.306,1.925,1.96,4.532,1.96,7.823c0,3.29-0.654,5.897-1.96,7.823c-1.307,1.925-3.138,2.887-5.495,2.887
			c-2.38,0-4.224-0.963-5.53-2.887C813.759,1022.468,813.106,1019.849,813.106,1016.535z M824.429,1022.853
			c0.968-1.621,1.453-3.715,1.453-6.282c0-2.567-0.485-4.667-1.453-6.3c-0.969-1.633-2.246-2.45-3.832-2.45
			c-1.587,0-2.865,0.817-3.833,2.45c-0.968,1.634-1.452,3.734-1.452,6.3c0,2.567,0.484,4.661,1.452,6.282
			c0.968,1.622,2.246,2.432,3.833,2.432C822.183,1025.285,823.46,1024.475,824.429,1022.853z M841.001,1017.795h-5.18V1034h-2.24
			v-30.59h2.24v12.46h5.18V1017.795z"/>
		<path d="M870.331,1029.73h-27.615v-1.89h27.615V1029.73z M866.971,1020.42h-20.615v-13.86h20.3v1.925h-18.061v10.045h18.375
			V1020.42z"/>
		<path d="M887.271,1025.39c-3.033,0.583-7.467,0.875-13.3,0.875v-10.99h8.855v-6.265H873.9v-1.925h11.165v10.08h-8.854v7.14
			c4.433,0,8.026-0.28,10.78-0.84L887.271,1025.39z M893.011,1032.39h-2.24v-15.085h-4.62v-1.925h4.62v-11.2h2.24V1032.39z
			 M898.751,1034h-2.24v-30.59h2.24V1034z"/>
		<path d="M921.396,1015.905c-1.96,0.397-4.545,0.729-7.753,0.997c-3.208,0.269-6.259,0.403-9.152,0.403v-12.25h2.24v10.255
			c6.136-0.093,10.908-0.548,14.315-1.365L921.396,1015.905z M927.835,1033.79h-20.37v-7.56h16.94v-3.465H907.29v-1.925h19.355v7.14
			h-16.94v3.885h18.13V1033.79z M931.405,1011.95h-4.76v6.895h-2.24v-15.435h2.24v6.615h4.76V1011.95z"/>
		<path d="M936.62,1007.593c1.54-1.365,3.406-2.047,5.6-2.047s4.054,0.677,5.583,2.03c1.527,1.354,2.292,3.115,2.292,5.285
			c0,2.194-0.765,3.973-2.292,5.338c-1.529,1.365-3.39,2.047-5.583,2.047s-4.06-0.677-5.6-2.03c-1.54-1.353-2.31-3.115-2.31-5.285
			C934.31,1010.737,935.08,1008.958,936.62,1007.593z M942.22,1007.54c-1.61,0-2.946,0.496-4.007,1.487
			c-1.062,0.992-1.592,2.27-1.592,3.833c0,1.587,0.536,2.888,1.61,3.903c1.073,1.015,2.403,1.522,3.99,1.522
			c1.68,0,3.033-0.49,4.061-1.47c1.026-0.98,1.54-2.275,1.54-3.885s-0.514-2.911-1.54-3.903
			C945.253,1008.036,943.9,1007.54,942.22,1007.54z M959.265,1032.915h-20.649v-9.31h2.24v7.42h18.41V1032.915z M958.46,1025.635
			h-2.24v-22.225h2.24V1025.635z"/>
		<path d="M963.01,1034.63l1.365-6.825h2.835l-2.556,6.825H963.01z"/>
		<path d="M787.924,1048.542c1.517-1.248,3.383-1.872,5.6-1.872c2.217,0,4.089,0.619,5.618,1.855
			c1.528,1.237,2.292,2.847,2.292,4.83c0,1.984-0.764,3.6-2.292,4.848c-1.529,1.249-3.401,1.873-5.618,1.873
			c-2.217,0-4.083-0.618-5.6-1.855c-1.517-1.236-2.275-2.846-2.275-4.83C785.649,1051.407,786.407,1049.791,787.924,1048.542z
			 M793.524,1048.63c-1.61,0-2.94,0.438-3.99,1.312s-1.575,2.013-1.575,3.412c0,1.4,0.525,2.538,1.575,3.413s2.38,1.312,3.99,1.312
			c1.703,0,3.062-0.426,4.078-1.278c1.015-0.851,1.522-1.989,1.522-3.412c0-1.423-0.514-2.573-1.54-3.448
			C796.557,1049.068,795.204,1048.63,793.524,1048.63z M809.799,1075.79h-20.195v-7.56h16.765v-3.465h-16.905v-1.925h19.145v7.14
			h-16.765v3.885h17.955V1075.79z M813.369,1054.265h-4.76v6.895h-2.24v-15.75h2.24v6.965h4.76V1054.265z"/>
		<path d="M843.119,1072.08h-27.615v-1.925h12.635v-8.085h-8.96v-14h20.335v1.925h-18.095v10.15h18.234v1.925h-9.274v8.085h12.74
			V1072.08z"/>
		<path d="M873.394,1071.73h-27.615v-1.89h27.615V1071.73z M872.203,1061.23l-1.26,1.82c-2.59-0.84-4.994-2.176-7.21-4.008
			c-2.217-1.831-3.617-3.505-4.2-5.022c-0.49,1.54-1.82,3.22-3.99,5.04c-2.17,1.82-4.608,3.127-7.314,3.92l-1.226-1.82
			c1.703-0.35,3.424-1.062,5.163-2.135c1.738-1.073,3.214-2.403,4.427-3.99c1.213-1.587,1.82-3.15,1.82-4.69v-2.17h2.31v2.17
			c0,2.264,1.26,4.486,3.78,6.668C867.023,1059.195,869.59,1060.6,872.203,1061.23z"/>
		<path d="M886.833,1059.095h-7.21v7.105c4.293,0.117,7.863-0.163,10.71-0.84l0.21,1.89c-3.43,0.724-7.817,1.05-13.16,0.98v-19.075
			h11.27v1.925h-9.03v6.23h7.21V1059.095z M893.518,1058.78h-4.689v-1.925h4.689v-10.675h2.205v28.21h-2.205V1058.78z M901.813,1076
			h-2.24v-30.59h2.24V1076z"/>
		<path d="M930.792,1059.34h-9.59v3.535h12.74v1.925h-27.615v-1.925h12.635v-3.535h-8.96v-7.28h18.025v-3.465h-18.025v-1.82h20.265
			v7.035h-18.025v3.675h18.55V1059.34z M930.583,1074.985h-20.58v-7.63h2.24v5.74h18.34V1074.985z"/>
		<path d="M936.007,1075.65c1.61-1.867,2.917-4.007,3.92-6.422c1.003-2.415,1.505-4.94,1.505-7.578v-0.91
			c0-2.613-0.507-5.174-1.522-7.682c-1.015-2.508-2.316-4.684-3.902-6.527h1.96c3.85,4.107,5.775,8.855,5.775,14.245v0.63
			c0,5.39-1.925,10.139-5.775,14.245H936.007z"/>
	</g>
	<g>
		<path d="M360.142,1016.847c-5.408,0.971-11.871,1.359-19.386,1.165v-15.684h16.058v2.247h-13.396v11.191
			c2.746,0.083,5.643,0.014,8.695-0.208c3.051-0.222,5.588-0.541,7.613-0.957L360.142,1016.847z M364.427,1023.732
			c2.052,1.234,3.079,2.878,3.079,4.93c0,2.053-1.026,3.696-3.079,4.93c-2.053,1.234-5.006,1.851-8.861,1.851
			c-3.855,0-6.795-0.61-8.819-1.831c-2.025-1.22-3.037-2.87-3.037-4.95c0-2.107,1.012-3.765,3.037-4.971
			c2.024-1.206,4.964-1.81,8.819-1.81C359.42,1021.881,362.374,1022.499,364.427,1023.732z M355.566,1024.128
			c-2.829,0-5.054,0.416-6.677,1.248c-1.622,0.832-2.434,1.928-2.434,3.287c0,1.387,0.804,2.482,2.413,3.286
			c1.608,0.804,3.841,1.207,6.698,1.207c2.856,0,5.103-0.402,6.74-1.207c1.636-0.804,2.454-1.899,2.454-3.286
			c0-1.387-0.818-2.489-2.454-3.307C360.668,1024.537,358.422,1024.128,355.566,1024.128z M372.747,1011.314h-5.658v9.901h-2.663
			v-21.924h2.663v9.735h5.658V1011.314z"/>
		<path d="M376.823,1003.826v-2.246h19.636v2.246h-8.57v1.123c0,2.247,0.929,4.341,2.787,6.282c1.858,1.942,3.979,3.314,6.365,4.119
			l-1.498,2.122c-1.886-0.776-3.689-1.899-5.408-3.37c-1.72-1.47-2.927-3.009-3.619-4.618c-0.499,1.581-1.678,3.238-3.536,4.971
			c-1.858,1.734-3.772,3.072-5.741,4.015l-1.539-2.039c2.468-0.97,4.673-2.551,6.615-4.742c1.941-2.191,2.912-4.451,2.912-6.781
			v-1.082H376.823z M406.319,1035.318h-24.586v-8.736h20.51v-4.035h-20.718v-2.246h23.38v8.403h-20.509v4.368h21.924V1035.318z
			 M404.904,1018.179h-2.662v-18.887h2.662V1018.179z"/>
		<path d="M444.092,1030.201h-32.823v-2.288h13.229v-9.402h2.663v9.402h16.932V1030.201z M439.599,1003.244v4.285
			c0,6.435-0.458,11.704-1.373,15.808l-2.579-0.374c0.416-1.775,0.749-4.756,0.999-8.944l-21.55,1.207l-0.499-2.371l22.132-0.998
			c0-0.333,0.007-0.832,0.021-1.498c0.013-0.666,0.021-1.151,0.021-1.456v-3.37h-21.3v-2.288H439.599z"/>
		<path d="M480.077,1030.576h-32.823v-2.246h32.823V1030.576z M476.624,1021.631h-25.086v-11.024h21.508v-6.115h-21.55v-2.247
			h24.212v10.608h-21.508v6.49h22.423V1021.631z"/>
		<path d="M505.786,1025.292c-5.131,0.915-11.856,1.373-20.177,1.373v-23.838h16.599v2.246h-13.937v7.904h12.813v2.205h-12.813
			v9.111c7.932,0,13.659-0.43,17.181-1.29L505.786,1025.292z M512.817,999.292v36.36h-2.663v-36.36H512.817z"/>
		<path d="M552.046,1030.201h-32.823v-2.288h13.229v-9.402h2.663v9.402h16.932V1030.201z M547.553,1003.244v4.285
			c0,6.435-0.458,11.704-1.373,15.808l-2.579-0.374c0.416-1.775,0.749-4.756,0.999-8.944l-21.55,1.207l-0.499-2.371l22.132-0.998
			c0-0.333,0.007-0.832,0.021-1.498c0.013-0.666,0.021-1.151,0.021-1.456v-3.37h-21.3v-2.288H547.553z"/>
		<path d="M556.913,1014.892c0-3.911,0.776-7.01,2.33-9.298c1.553-2.288,3.73-3.432,6.531-3.432c2.829,0,5.019,1.144,6.573,3.432
			c1.553,2.288,2.33,5.402,2.33,9.339c0,3.911-0.777,7.017-2.33,9.319c-1.554,2.302-3.744,3.453-6.573,3.453
			c-2.802,0-4.979-1.151-6.531-3.453C557.689,1021.951,556.913,1018.831,556.913,1014.892z M570.35,1022.401
			c1.165-1.927,1.747-4.416,1.747-7.467c0-3.051-0.582-5.547-1.747-7.488c-1.165-1.941-2.69-2.912-4.576-2.912
			c-1.886,0-3.398,0.964-4.535,2.891c-1.137,1.928-1.706,4.431-1.706,7.509c0,3.051,0.568,5.54,1.706,7.467
			c1.137,1.928,2.648,2.891,4.535,2.891C567.66,1025.292,569.185,1024.329,570.35,1022.401z M584.786,1035.651h-2.663v-36.36h2.663
			V1035.651z"/>
		<path d="M624.015,1030.576h-32.823v-2.246h32.823V1030.576z M620.022,1019.51h-24.503v-16.474h24.129v2.288h-21.466v11.939h21.841
			V1019.51z"/>
		<path d="M418.414,1076.839c-3.85-4.06-5.775-8.808-5.775-14.245v-0.63c0-5.436,1.925-10.185,5.775-14.245h1.96
			c-1.61,1.867-2.922,4.007-3.938,6.422c-1.015,2.415-1.522,4.953-1.522,7.612v0.875c0,2.614,0.513,5.169,1.54,7.665
			c1.027,2.497,2.333,4.678,3.92,6.545H418.414z"/>
		<path d="M450.053,1072.604h-27.615v-1.925h11.13v-7.91h2.24v7.91h14.245V1072.604z M446.273,1049.924v3.605
			c0,5.413-0.385,9.847-1.155,13.3l-2.17-0.315c0.35-1.493,0.63-4.001,0.84-7.525l-18.13,1.015l-0.42-1.995l18.62-0.84
			c0-0.28,0.005-0.7,0.018-1.26c0.011-0.56,0.017-0.968,0.017-1.225v-2.835h-17.92v-1.925H446.273z"/>
		<path d="M480.328,1072.919h-27.615v-1.89h27.615V1072.919z M477.423,1065.394h-21.105v-9.275h18.095v-5.145h-18.13v-1.89h20.37
			v8.925h-18.095v5.46h18.865V1065.394z"/>
		<path d="M501.958,1068.474c-4.317,0.77-9.975,1.155-16.975,1.155v-20.055h13.965v1.89h-11.725v6.65h10.78v1.855h-10.78v7.665
			c6.673,0,11.491-0.362,14.455-1.085L501.958,1068.474z M507.873,1046.599v30.59h-2.24v-30.59H507.873z"/>
		<path d="M540.877,1062.489h-27.615v-1.89h12.635v-4.445h2.24v4.445h12.74V1062.489z M539.407,1055.839l-1.085,1.82
			c-2.614-0.536-4.976-1.458-7.087-2.765c-2.112-1.307-3.506-2.66-4.182-4.06c-0.514,1.423-1.815,2.794-3.903,4.113
			c-2.089,1.318-4.486,2.234-7.193,2.747l-1.085-1.82c2.777-0.303,5.314-1.208,7.613-2.713c2.298-1.505,3.448-3.237,3.448-5.198
			v-0.98h2.31v0.98c0,1.33,0.613,2.585,1.837,3.763c1.225,1.179,2.672,2.112,4.34,2.8
			C536.088,1055.215,537.75,1055.653,539.407,1055.839z M538.462,1076.839h-21.63v-6.895h18.2v-2.73h-18.305v-1.925h20.545v6.475
			h-18.2v3.185h19.39V1076.839z"/>
		<path d="M542.942,1076.839c1.61-1.867,2.916-4.007,3.92-6.422c1.003-2.415,1.505-4.94,1.505-7.578v-0.91
			c0-2.613-0.507-5.174-1.522-7.682c-1.015-2.508-2.316-4.684-3.902-6.527h1.96c3.85,4.107,5.775,8.855,5.775,14.245v0.63
			c0,5.39-1.925,10.138-5.775,14.245H542.942z"/>
	</g>
	<g>
		<g>
			<path fill="none" stroke="#0000FF" stroke-width="2.196" stroke-miterlimit="10" d="M604.116,1050.18
				c0,0,260.191-325.18-95.24-621.576"/>
			<g>
				
					<rect x="501.729" y="427.516" transform="matrix(0.6502 -0.7598 0.7598 0.6502 -147.6371 536.5861)" fill="#0000FF" width="14.274" height="2.196"/>
			</g>
		</g>
	</g>
	<g>
		<g>
			<path fill="none" stroke="#0000FF" stroke-width="2.162" stroke-miterlimit="10" d="M623.67,1043.265
				c0,0,306.33-381.606-80.413-651.66"/>
			<g>
				
					<rect x="536.22" y="390.537" transform="matrix(0.5845 -0.8114 0.8114 0.5845 -92.0338 603.5149)" fill="#0000FF" width="14.053" height="2.162"/>
			</g>
		</g>
	</g>
	<g>
		<g>
			<path fill="none" stroke="#0000FF" stroke-width="2" stroke-miterlimit="10" d="M527.808,375.766c0,0-29.5-5.491-33.276,23.972"
				/>
			<g>
				<path fill="#0000FF" d="M494.37,411.811c-1.963-5.731-5.379-12.867-9.075-17.331l9.421,3.681l9.594-3.198
					C500.392,399.234,496.619,406.187,494.37,411.811z"/>
			</g>
		</g>
	</g>
	<g>
		<g>
			<path fill="none" stroke="#0000FF" stroke-width="2" stroke-miterlimit="10" d="M493.228,419.12
				c0,0-90.636,208.967,89.17,475.208"/>
			<g>
				<path fill="#0000FF" d="M589.228,904.281c-4.911-3.547-11.82-7.402-17.415-8.912l9.818-2.433l5.988-8.15
					C586.884,890.535,587.817,898.391,589.228,904.281z"/>
			</g>
		</g>
	</g>
	<g>
		<g>
			<path fill="none" stroke="#0000FF" stroke-width="2.2291" stroke-miterlimit="10" d="M592.84,912.927
				c0,0-37.497,19.229-38.13,62.062"/>
			<g>
				<path fill="#0000FF" d="M555.679,988.411c-2.743-6.17-7.237-13.755-11.78-18.347l10.822,3.159l10.336-4.495
					C561.127,973.854,557.622,981.945,555.679,988.411z"/>
			</g>
		</g>
	</g>
	<g>
		<g>
			
				<line fill="none" stroke="#000000" stroke-width="2" stroke-miterlimit="10" x1="167.808" y1="885.056" x2="466.676" y2="886.775"/>
			<g>
				<path d="M478.746,886.845c-5.692,2.075-12.759,5.63-17.149,9.413l3.495-9.492l-3.386-9.529
					C466.053,881.07,473.079,884.706,478.746,886.845z"/>
			</g>
		</g>
	</g>
	<g>
		<path fill="#29ABE2" d="M777.861,690.929h-33.489v-4.327h11.939v-8.695h5.491v8.695h16.058V690.929z M774.2,661.849
			c0.055,1.609,0.083,2.843,0.083,3.703c0,2.662-0.181,5.686-0.541,9.069c-0.361,3.384-0.791,6.102-1.29,8.154
			c-2.469-0.305-4.188-0.541-5.158-0.707c0.499-2.219,0.874-4.576,1.123-7.072c-4.05,0.25-10.914,0.638-20.593,1.165
			c-0.389-2.69-0.597-4.229-0.624-4.618l21.591-0.624c0.055-0.776,0.083-1.872,0.083-3.286v-1.331h-20.218v-4.451H774.2z"/>
		<path fill="#29ABE2" d="M813.846,691.054h-33.489v-4.41h33.489V691.054z M810.643,681.527h-26.084v-12.564h19.636v-3.619h-19.677
			v-4.41h25.169v12.397H790.05v3.869h20.593V681.527z"/>
		<path fill="#29ABE2" d="M839.513,685.729c-4.188,0.805-9.583,1.206-16.183,1.206c-0.555,0-1.373-0.007-2.454-0.021
			c-1.082-0.014-1.9-0.021-2.455-0.021v-25.377h17.514v4.285h-12.064v5.824h11.773v4.41h-11.773v6.407
			c0.388,0.028,1.04,0.042,1.955,0.042c5.242,0,9.624-0.333,13.146-0.998L839.513,685.729z M846.71,695.463h-5.574v-37.067h5.574
			V695.463z"/>
		<path fill="#29ABE2" d="M885.815,678.199h-33.489v-4.41h14.02v-3.536h5.45v3.536h14.02V678.199z M869.05,665.261
			c-1.055,1.914-2.815,3.502-5.283,4.763c-2.469,1.262-5.076,2.059-7.821,2.392l-2.08-4.327c3.521-0.36,6.469-1.303,8.84-2.829
			c2.371-1.525,3.557-3.508,3.557-5.949v-0.541h5.574v0.541c0,2.441,1.165,4.417,3.495,5.928c2.33,1.512,5.297,2.462,8.903,2.85
			l-2.08,4.327c-2.802-0.36-5.423-1.158-7.863-2.392C871.851,668.791,870.104,667.203,869.05,665.261z M882.695,695.38h-26.333
			v-9.735h19.469v-1.539h-19.552v-4.327h25.085v9.61h-19.552v1.539h20.884V695.38z"/>
	</g>
	<g>
		<path d="M467.514,41.111V7.497h6.958v13.671h13.279V7.497h7.007v33.614h-7.007V26.46h-13.279v14.651H467.514z"/>
		<path d="M501.618,41.111V7.497h12.446c8.134,0,12.201,3.414,12.201,10.241c0,3.561-1.053,6.313-3.16,8.257
			c-2.107,1.944-5.022,2.915-8.747,2.915h-5.782v12.201H501.618z M508.576,23.814h4.557c2.09,0,3.593-0.465,4.508-1.397
			c0.914-0.931,1.372-2.393,1.372-4.385c0-2.058-0.433-3.454-1.298-4.189c-0.866-0.735-2.361-1.103-4.484-1.103h-4.655V23.814z"/>
		<path d="M527.98,41.111l11.956-33.614h7.252l11.809,33.614h-7.154l-2.793-8.036h-11.956l-2.744,8.036H527.98z M542.876,15.386
			l-4.214,12.74h8.771l-4.361-12.74H542.876z"/>
		<path d="M578.155,33.467h12.054v-2.744h-16.366v-5.145h39.445v5.145h-16.66v2.744h11.515v13.671h-6.468V38.71h-23.52V33.467z
			 M611.083,19.355l-2.254,4.9c-3.332,0.033-6.452-0.522-9.359-1.666c-2.908-1.143-4.884-2.613-5.929-4.41
			c-1.046,1.83-2.973,3.316-5.782,4.459c-2.81,1.144-5.978,1.699-9.506,1.666l-2.254-5.047c6.566,0,10.845-1.29,12.838-3.871h-10.78
			v-4.949h31.017v4.949h-10.682C600.45,18.032,604.68,19.355,611.083,19.355z M586.191,8.771v-4.9h14.7v4.9H586.191z"/>
	</g>
	<g>
	</g>
	<g>
	</g>
	<g>
	</g>
	<g>
	</g>
	<g>
	</g>
	<g>
	</g>
	<g>
	</g>
	<g>
	</g>
	<g>
	</g>
	<g>
	</g>
	<g>
	</g>
	<g>
	</g>
	<g>
	</g>
	<g>
	</g>
	<g>
	</g>
	<g>
	</g>
	<g>
	</g>
</g>
</svg>
