<?xml version="1.0" encoding="utf-8"?>
<!-- Generator: Adobe Illustrator 28.0.0, SVG Export Plug-In . SVG Version: 6.00 Build 0)  -->
<svg version="1.1" id="레이어_1" xmlns="http://www.w3.org/2000/svg" xmlns:xlink="http://www.w3.org/1999/xlink" x="0px"
	 y="0px" viewBox="0 0 511.876 479.265" enable-background="new 0 0 511.876 479.265" xml:space="preserve">
<g>
	<g>
		<path fill="none" stroke="#D9D9D9" stroke-width="0.8665" stroke-linejoin="round" stroke-miterlimit="10" d="M336.828,401.604
			 M34.788,401.604"/>
	</g>
	<g>
		<linearGradient id="SVGID_1_" gradientUnits="userSpaceOnUse" x1="185.8078" y1="478.7653" x2="185.8078" y2="13.7119">
			<stop  offset="0" style="stop-color:#197B3B"/>
			<stop  offset="0.0124" style="stop-color:#2F7A39"/>
			<stop  offset="0.0931" style="stop-color:#707331"/>
			<stop  offset="0.18" style="stop-color:#946929"/>
			<stop  offset="0.2722" style="stop-color:#AE5E23"/>
			<stop  offset="0.3712" style="stop-color:#C0511E"/>
			<stop  offset="0.4797" style="stop-color:#CC461A"/>
			<stop  offset="0.6025" style="stop-color:#D53B18"/>
			<stop  offset="0.7514" style="stop-color:#D93417"/>
			<stop  offset="1" style="stop-color:#DB3116"/>
		</linearGradient>
		<path fill="url(#SVGID_1_)" d="M40.068,401.604h16.92v77.161h-16.92V401.604L40.068,401.604z M67.548,371.018h16.92v107.748
			h-16.92V371.018L67.548,371.018z M94.908,359.721h17.04v119.044h-17.04V359.721L94.908,359.721z M122.388,341.648h16.92v137.118
			h-16.92V341.648L122.388,341.648z M149.868,330.004h16.92v148.761h-16.92V330.004L149.868,330.004z M177.348,292.466h16.92
			v186.299h-16.92V292.466L177.348,292.466z M204.828,261.706h16.92v217.06h-16.92V261.706L204.828,261.706z M232.188,222.43h17.04
			v256.336h-17.04V222.43L232.188,222.43z M259.668,204.53h16.92v274.235h-16.92V204.53L259.668,204.53z M287.148,134.494h16.92
			v344.272h-16.92V134.494L287.148,134.494z M314.628,13.712h16.92v465.053h-16.92V13.712L314.628,13.712z"/>
	</g>
	<g>
		
			<line fill="none" stroke="#D9D9D9" stroke-width="0.8665" stroke-linejoin="round" stroke-miterlimit="10" x1="34.788" y1="478.765" x2="336.828" y2="478.765"/>
	</g>
	<g>
		<g>
			<g>
				<path fill="#404040" d="M49.008,397.566h-0.854v-6.826c-0.165,0.164-0.433,0.343-0.806,0.534s-0.712,0.325-1.021,0.399v-0.912
					c0.394-0.111,0.816-0.292,1.268-0.543s0.808-0.494,1.069-0.73h0.344V397.566z"/>
			</g>
		</g>
	</g>
	<g>
		<g>
			<g>
				<path fill="#404040" d="M72.401,361.074c0-0.473-0.14-0.844-0.419-1.112s-0.65-0.403-1.112-0.403
					c-0.33,0-0.659,0.086-0.988,0.256s-0.626,0.403-0.892,0.701v-0.924c0.512-0.506,1.174-0.758,1.987-0.758
					c0.677,0,1.222,0.195,1.635,0.586c0.414,0.39,0.621,0.916,0.621,1.578c0,0.57-0.132,1.068-0.397,1.496s-0.716,0.869-1.354,1.324
					c-0.602,0.423-1.02,0.743-1.254,0.961c-0.234,0.219-0.399,0.426-0.494,0.621c-0.095,0.195-0.142,0.427-0.142,0.695h3.835v0.773
					h-4.743v-0.387c0-0.434,0.06-0.803,0.18-1.109c0.12-0.306,0.321-0.604,0.602-0.896c0.281-0.292,0.731-0.652,1.351-1.082
					c0.566-0.391,0.971-0.763,1.216-1.115C72.278,361.927,72.401,361.525,72.401,361.074z"/>
				<path fill="#404040" d="M74.743,366.396c0-0.168,0.059-0.311,0.177-0.427s0.256-0.175,0.414-0.175s0.295,0.059,0.414,0.175
					s0.177,0.259,0.177,0.427c0,0.157-0.058,0.296-0.175,0.416c-0.116,0.12-0.255,0.18-0.416,0.18s-0.3-0.058-0.416-0.174
					C74.801,366.702,74.743,366.562,74.743,366.396z"/>
				<path fill="#404040" d="M81.828,364.457c0,0.781-0.25,1.4-0.75,1.859c-0.499,0.458-1.168,0.688-2.006,0.688
					c-0.734,0-1.28-0.109-1.638-0.328v-0.924c0.548,0.351,1.098,0.526,1.649,0.526c0.566,0,1.021-0.164,1.367-0.491
					c0.345-0.328,0.518-0.753,0.518-1.275c0-0.534-0.175-0.946-0.526-1.238s-0.857-0.438-1.52-0.438c-0.444,0-0.89,0.026-1.337,0.08
					l0.269-3.953h3.625v0.779h-2.857l-0.172,2.379c0.276-0.025,0.528-0.037,0.757-0.037c0.82,0,1.462,0.212,1.925,0.636
					C81.596,363.145,81.828,363.724,81.828,364.457z"/>
			</g>
		</g>
	</g>
	<g>
		<g>
			<g>
				<path fill="#404040" d="M96.239,354.388c0.544,0.43,1.153,0.645,1.826,0.645c0.551,0,0.997-0.14,1.334-0.419
					c0.339-0.279,0.508-0.657,0.508-1.133c0-1.057-0.743-1.585-2.229-1.585h-0.655v-0.726h0.623c1.321,0,1.982-0.494,1.982-1.482
					c0-0.912-0.503-1.369-1.509-1.369c-0.559,0-1.083,0.191-1.574,0.574v-0.854c0.501-0.301,1.098-0.451,1.789-0.451
					c0.63,0,1.148,0.174,1.555,0.521c0.406,0.347,0.609,0.8,0.609,1.358c0,1.035-0.528,1.706-1.584,2.015v0.016
					c0.569,0.05,1.023,0.249,1.362,0.596c0.338,0.348,0.507,0.779,0.507,1.295c0,0.72-0.26,1.295-0.782,1.725
					c-0.521,0.43-1.182,0.645-1.984,0.645c-0.738,0-1.33-0.142-1.778-0.425V354.388z"/>
				<path fill="#404040" d="M102.196,355.15c0-0.168,0.059-0.311,0.177-0.427s0.256-0.175,0.414-0.175s0.295,0.059,0.414,0.175
					s0.177,0.259,0.177,0.427c0,0.157-0.058,0.296-0.175,0.416c-0.116,0.12-0.255,0.18-0.416,0.18s-0.3-0.058-0.416-0.174
					C102.254,355.456,102.196,355.315,102.196,355.15z"/>
				<path fill="#404040" d="M109.281,353.211c0,0.781-0.25,1.4-0.75,1.859c-0.499,0.458-1.168,0.688-2.006,0.688
					c-0.734,0-1.28-0.109-1.638-0.328v-0.924c0.548,0.351,1.098,0.526,1.649,0.526c0.566,0,1.021-0.164,1.367-0.491
					c0.345-0.328,0.518-0.753,0.518-1.275c0-0.534-0.175-0.946-0.526-1.238s-0.857-0.438-1.52-0.438c-0.444,0-0.89,0.026-1.337,0.08
					l0.269-3.953h3.625v0.779h-2.857l-0.172,2.379c0.276-0.025,0.528-0.037,0.757-0.037c0.82,0,1.462,0.212,1.925,0.636
					C109.049,351.898,109.281,352.478,109.281,353.211z"/>
			</g>
		</g>
	</g>
	<g>
		<g>
			<g>
				<path fill="#404040" d="M132.665,330.562c-0.416-0.208-0.847-0.312-1.294-0.312c-0.73,0-1.303,0.321-1.719,0.964
					s-0.621,1.489-0.618,2.538h0.027c0.365-0.756,0.969-1.133,1.81-1.133c0.698,0,1.251,0.225,1.66,0.676s0.612,1.041,0.612,1.768
					c0,0.748-0.23,1.373-0.69,1.875c-0.46,0.501-1.052,0.752-1.775,0.752c-0.813,0-1.437-0.319-1.872-0.957
					c-0.435-0.637-0.652-1.52-0.652-2.647c0-1.332,0.281-2.426,0.843-3.282c0.562-0.855,1.35-1.283,2.363-1.283
					c0.548,0,0.983,0.075,1.305,0.226V330.562z M129.098,334.966c0,0.555,0.148,1.026,0.446,1.415s0.686,0.583,1.166,0.583
					c0.462,0,0.837-0.173,1.125-0.519c0.289-0.346,0.433-0.771,0.433-1.275c0-0.573-0.138-1.02-0.414-1.34s-0.661-0.48-1.155-0.48
					c-0.451,0-0.831,0.156-1.139,0.47S129.098,334.515,129.098,334.966z"/>
			</g>
		</g>
	</g>
	<g>
		<g>
			<g>
				<path fill="#404040" d="M150.96,323.698c0-0.444,0.135-0.862,0.406-1.254c0.27-0.393,0.622-0.669,1.055-0.83
					c-0.34-0.176-0.614-0.417-0.822-0.726c-0.208-0.308-0.312-0.643-0.312-1.004c0-0.376,0.095-0.719,0.285-1.028
					s0.455-0.553,0.795-0.728c0.34-0.176,0.716-0.264,1.128-0.264c0.637,0,1.166,0.19,1.584,0.572
					c0.419,0.381,0.628,0.863,0.628,1.447c0,0.365-0.105,0.701-0.317,1.007c-0.211,0.307-0.48,0.547-0.806,0.723
					c0.43,0.165,0.779,0.442,1.047,0.833c0.269,0.39,0.403,0.807,0.403,1.251c0,0.698-0.236,1.263-0.709,1.692
					s-1.083,0.645-1.832,0.645c-0.741,0-1.349-0.218-1.824-0.653C151.197,324.947,150.96,324.386,150.96,323.698z M151.83,323.617
					c0,0.516,0.156,0.927,0.467,1.233c0.312,0.306,0.712,0.459,1.203,0.459c0.487,0,0.889-0.157,1.206-0.473
					c0.316-0.315,0.475-0.722,0.475-1.22c0-0.461-0.159-0.853-0.475-1.173c-0.317-0.32-0.719-0.481-1.206-0.481
					c-0.469,0-0.865,0.155-1.187,0.465S151.83,323.135,151.83,323.617z M152.163,319.955c0,0.383,0.132,0.703,0.397,0.961
					s0.578,0.387,0.94,0.387s0.676-0.129,0.942-0.387c0.267-0.258,0.4-0.578,0.4-0.961c0-0.395-0.127-0.72-0.381-0.976
					s-0.575-0.384-0.961-0.384c-0.379,0-0.697,0.126-0.953,0.379C152.291,319.227,152.163,319.554,152.163,319.955z"/>
				<path fill="#404040" d="M157.11,325.428c0-0.168,0.059-0.311,0.177-0.427s0.256-0.175,0.414-0.175s0.295,0.059,0.414,0.175
					s0.177,0.259,0.177,0.427c0,0.157-0.058,0.296-0.175,0.416c-0.116,0.12-0.255,0.18-0.416,0.18s-0.3-0.058-0.416-0.174
					C157.168,325.733,157.11,325.593,157.11,325.428z"/>
				<path fill="#404040" d="M164.195,323.488c0,0.781-0.25,1.4-0.75,1.859c-0.499,0.458-1.168,0.688-2.006,0.688
					c-0.734,0-1.28-0.109-1.638-0.328v-0.924c0.548,0.351,1.098,0.526,1.649,0.526c0.566,0,1.021-0.164,1.367-0.491
					c0.345-0.328,0.518-0.753,0.518-1.275c0-0.534-0.175-0.946-0.526-1.238s-0.857-0.438-1.52-0.438c-0.444,0-0.89,0.026-1.337,0.08
					l0.269-3.953h3.625v0.779h-2.857l-0.172,2.379c0.276-0.025,0.528-0.037,0.757-0.037c0.82,0,1.462,0.212,1.925,0.636
					C163.963,322.176,164.195,322.755,164.195,323.488z"/>
			</g>
		</g>
	</g>
	<g>
		<g>
			<g>
				<path fill="#404040" d="M183.542,282.656c0-0.473-0.14-0.844-0.419-1.112s-0.65-0.403-1.112-0.403
					c-0.33,0-0.659,0.086-0.988,0.256s-0.626,0.403-0.892,0.701v-0.924c0.512-0.506,1.174-0.758,1.987-0.758
					c0.677,0,1.222,0.195,1.635,0.586c0.414,0.39,0.621,0.916,0.621,1.578c0,0.57-0.132,1.068-0.397,1.496s-0.716,0.869-1.354,1.324
					c-0.602,0.423-1.02,0.743-1.254,0.961c-0.234,0.219-0.399,0.426-0.494,0.621c-0.095,0.195-0.142,0.427-0.142,0.695h3.835v0.773
					h-4.743v-0.387c0-0.434,0.06-0.803,0.18-1.109c0.12-0.306,0.321-0.604,0.602-0.896c0.281-0.292,0.731-0.652,1.351-1.082
					c0.566-0.391,0.971-0.763,1.216-1.115C183.419,283.509,183.542,283.107,183.542,282.656z"/>
				<path fill="#404040" d="M190.395,281.458c-0.416-0.208-0.847-0.312-1.294-0.312c-0.73,0-1.303,0.321-1.719,0.964
					s-0.621,1.489-0.618,2.538h0.027c0.365-0.756,0.969-1.133,1.81-1.133c0.698,0,1.251,0.225,1.66,0.676s0.612,1.041,0.612,1.768
					c0,0.748-0.23,1.373-0.69,1.875c-0.46,0.501-1.052,0.752-1.775,0.752c-0.813,0-1.437-0.319-1.872-0.957
					c-0.435-0.637-0.652-1.52-0.652-2.647c0-1.332,0.281-2.426,0.843-3.282c0.562-0.855,1.35-1.283,2.363-1.283
					c0.548,0,0.983,0.075,1.305,0.226V281.458z M186.829,285.862c0,0.555,0.148,1.026,0.446,1.415s0.686,0.583,1.166,0.583
					c0.462,0,0.837-0.173,1.125-0.519c0.289-0.346,0.433-0.771,0.433-1.275c0-0.573-0.138-1.02-0.414-1.34s-0.661-0.48-1.155-0.48
					c-0.451,0-0.831,0.156-1.139,0.47S186.829,285.411,186.829,285.862z"/>
			</g>
		</g>
	</g>
	<g>
		<g>
			<g>
				<path fill="#404040" d="M207.109,250.614c-0.414-0.208-0.846-0.312-1.293-0.312c-0.73,0-1.305,0.321-1.719,0.964
					c-0.416,0.643-0.623,1.489-0.619,2.538h0.027c0.365-0.756,0.969-1.133,1.811-1.133c0.697,0,1.252,0.225,1.66,0.676
					s0.611,1.041,0.611,1.768c0,0.748-0.23,1.373-0.689,1.875c-0.461,0.501-1.053,0.752-1.775,0.752
					c-0.812,0-1.438-0.319-1.873-0.957c-0.434-0.637-0.652-1.52-0.652-2.647c0-1.332,0.281-2.426,0.843-3.282
					c0.562-0.855,1.35-1.283,2.363-1.283c0.549,0,0.982,0.075,1.305,0.226V250.614z M203.543,255.019
					c0,0.555,0.148,1.026,0.447,1.415c0.297,0.389,0.686,0.583,1.164,0.583c0.463,0,0.838-0.173,1.125-0.519
					c0.289-0.346,0.434-0.771,0.434-1.275c0-0.573-0.139-1.02-0.414-1.34s-0.66-0.48-1.154-0.48c-0.451,0-0.832,0.156-1.139,0.47
					C203.697,254.186,203.543,254.567,203.543,255.019z"/>
				<path fill="#404040" d="M213.324,255.195c0,0.781-0.249,1.4-0.749,1.859c-0.499,0.458-1.168,0.688-2.006,0.688
					c-0.734,0-1.28-0.109-1.638-0.328v-0.924c0.547,0.351,1.097,0.526,1.648,0.526c0.565,0,1.021-0.164,1.367-0.491
					c0.346-0.328,0.518-0.753,0.518-1.275c0-0.534-0.175-0.946-0.525-1.238c-0.352-0.292-0.858-0.438-1.521-0.438
					c-0.444,0-0.89,0.026-1.337,0.08l0.268-3.953h3.626v0.779h-2.857l-0.172,2.379c0.275-0.025,0.528-0.037,0.757-0.037
					c0.82,0,1.462,0.212,1.926,0.636C213.093,253.883,213.324,254.462,213.324,255.195z"/>
				<path fill="#404040" d="M214.716,257.135c0-0.168,0.06-0.311,0.177-0.427c0.119-0.116,0.257-0.175,0.414-0.175
					s0.295,0.059,0.414,0.175c0.117,0.116,0.177,0.259,0.177,0.427c0,0.157-0.059,0.296-0.175,0.416s-0.255,0.18-0.416,0.18
					s-0.3-0.058-0.416-0.174S214.716,257.3,214.716,257.135z"/>
				<path fill="#404040" d="M217.235,256.372c0.544,0.43,1.152,0.645,1.826,0.645c0.551,0,0.996-0.14,1.334-0.419
					c0.339-0.279,0.508-0.657,0.508-1.133c0-1.057-0.743-1.585-2.229-1.585h-0.656v-0.726h0.623c1.322,0,1.982-0.494,1.982-1.482
					c0-0.912-0.503-1.369-1.51-1.369c-0.559,0-1.083,0.191-1.573,0.574v-0.854c0.501-0.301,1.098-0.451,1.788-0.451
					c0.631,0,1.149,0.174,1.556,0.521c0.406,0.347,0.609,0.8,0.609,1.358c0,1.035-0.528,1.706-1.585,2.015v0.016
					c0.57,0.05,1.023,0.249,1.362,0.596c0.338,0.348,0.507,0.779,0.507,1.295c0,0.72-0.26,1.295-0.781,1.725
					c-0.521,0.43-1.183,0.645-1.984,0.645c-0.737,0-1.33-0.142-1.777-0.425V256.372z"/>
			</g>
		</g>
	</g>
	<g>
		<g>
			<g>
				<path fill="#404040" d="M235.089,212.542c0-0.473-0.14-0.844-0.419-1.112s-0.65-0.403-1.111-0.403
					c-0.33,0-0.659,0.086-0.988,0.256c-0.33,0.17-0.627,0.403-0.893,0.701v-0.924c0.513-0.506,1.175-0.758,1.988-0.758
					c0.676,0,1.222,0.195,1.635,0.586c0.414,0.39,0.621,0.916,0.621,1.578c0,0.57-0.133,1.068-0.398,1.496
					c-0.265,0.428-0.716,0.869-1.354,1.324c-0.602,0.423-1.02,0.743-1.254,0.96c-0.234,0.219-0.399,0.426-0.494,0.621
					s-0.143,0.427-0.143,0.695h3.836v0.773h-4.743v-0.387c0-0.434,0.06-0.803,0.18-1.109c0.12-0.306,0.32-0.604,0.602-0.896
					c0.281-0.292,0.731-0.652,1.351-1.082c0.566-0.391,0.972-0.763,1.217-1.115S235.089,212.993,235.089,212.542z"/>
				<path fill="#404040" d="M240.653,218.336h-0.854v-6.826c-0.164,0.164-0.433,0.343-0.805,0.534
					c-0.373,0.191-0.713,0.325-1.021,0.399v-0.912c0.395-0.111,0.816-0.292,1.268-0.543s0.808-0.494,1.069-0.73h0.344V218.336z"/>
				<path fill="#404040" d="M246.711,218.336h-0.854v-6.826c-0.164,0.164-0.433,0.343-0.804,0.534
					c-0.373,0.191-0.713,0.325-1.021,0.399v-0.912c0.395-0.111,0.816-0.292,1.267-0.543c0.451-0.251,0.808-0.494,1.069-0.73h0.344
					V218.336z"/>
			</g>
		</g>
	</g>
	<g>
		<g>
			<g>
				<path fill="#404040" d="M258.935,199.304c0.544,0.43,1.152,0.645,1.826,0.645c0.551,0,0.996-0.14,1.334-0.419
					c0.339-0.279,0.508-0.657,0.508-1.133c0-1.057-0.743-1.585-2.229-1.585h-0.656v-0.726h0.623c1.322,0,1.982-0.494,1.982-1.482
					c0-0.912-0.503-1.369-1.51-1.369c-0.559,0-1.083,0.191-1.573,0.574v-0.854c0.501-0.301,1.098-0.451,1.788-0.451
					c0.631,0,1.149,0.174,1.556,0.521c0.406,0.347,0.609,0.8,0.609,1.358c0,1.035-0.528,1.706-1.585,2.015v0.016
					c0.57,0.05,1.023,0.249,1.362,0.596c0.338,0.348,0.507,0.779,0.507,1.295c0,0.72-0.26,1.295-0.781,1.725
					c-0.521,0.43-1.183,0.645-1.984,0.645c-0.737,0-1.33-0.142-1.777-0.425V199.304z"/>
				<path fill="#404040" d="M269.558,198.127c0,0.781-0.249,1.4-0.749,1.859c-0.499,0.458-1.168,0.688-2.006,0.688
					c-0.734,0-1.28-0.109-1.638-0.328v-0.924c0.547,0.351,1.097,0.526,1.648,0.526c0.565,0,1.021-0.164,1.367-0.491
					c0.346-0.328,0.518-0.753,0.518-1.275c0-0.534-0.175-0.946-0.525-1.238c-0.352-0.292-0.858-0.438-1.521-0.438
					c-0.444,0-0.89,0.026-1.337,0.08l0.268-3.953h3.626v0.779h-2.857l-0.172,2.379c0.275-0.025,0.528-0.037,0.757-0.037
					c0.82,0,1.462,0.212,1.926,0.636C269.327,196.815,269.558,197.394,269.558,198.127z"/>
				<path fill="#404040" d="M271.293,199.573c0.44,0.251,0.904,0.376,1.392,0.376c0.719,0,1.281-0.293,1.686-0.878
					c0.405-0.586,0.607-1.421,0.607-2.506c-0.007,0.007-0.015,0.007-0.021,0c-0.344,0.688-0.937,1.031-1.777,1.031
					c-0.681,0-1.236-0.233-1.668-0.701c-0.432-0.467-0.647-1.054-0.647-1.759c0-0.759,0.231-1.388,0.695-1.886
					c0.464-0.497,1.071-0.746,1.823-0.746c0.795,0,1.403,0.312,1.824,0.935s0.631,1.513,0.631,2.669c0,1.443-0.276,2.565-0.83,3.365
					c-0.553,0.801-1.34,1.201-2.36,1.201c-0.53,0-0.981-0.09-1.354-0.27V199.573z M271.734,195.007c0,0.548,0.144,0.988,0.43,1.321
					s0.686,0.5,1.197,0.5c0.444,0,0.815-0.148,1.112-0.443c0.297-0.296,0.446-0.656,0.446-1.082c0-0.584-0.146-1.074-0.438-1.473
					c-0.292-0.396-0.685-0.596-1.179-0.596c-0.462,0-0.839,0.173-1.131,0.519S271.734,194.517,271.734,195.007z"/>
			</g>
		</g>
	</g>
	<g>
		<g>
			<g>
				<path fill="#404040" d="M286.768,124.653c0-0.473-0.14-0.843-0.419-1.112s-0.65-0.403-1.111-0.403
					c-0.33,0-0.659,0.085-0.988,0.255c-0.33,0.17-0.627,0.403-0.893,0.701v-0.924c0.513-0.505,1.175-0.757,1.988-0.757
					c0.676,0,1.222,0.195,1.635,0.585c0.414,0.39,0.621,0.917,0.621,1.579c0,0.569-0.133,1.068-0.398,1.496
					c-0.265,0.428-0.716,0.87-1.354,1.324c-0.602,0.422-1.02,0.743-1.254,0.961s-0.399,0.425-0.494,0.621
					c-0.095,0.195-0.143,0.427-0.143,0.695h3.836v0.773h-4.743v-0.387c0-0.433,0.06-0.803,0.18-1.109
					c0.12-0.306,0.32-0.605,0.602-0.896c0.281-0.292,0.731-0.653,1.351-1.083c0.566-0.39,0.972-0.762,1.217-1.115
					C286.645,125.506,286.768,125.104,286.768,124.653z"/>
				<path fill="#404040" d="M289.454,129.481c0.44,0.25,0.904,0.376,1.392,0.376c0.719,0,1.281-0.293,1.686-0.878
					c0.405-0.586,0.607-1.421,0.607-2.506c-0.007,0.007-0.015,0.007-0.021,0c-0.344,0.688-0.937,1.031-1.777,1.031
					c-0.681,0-1.236-0.233-1.668-0.701c-0.432-0.467-0.647-1.053-0.647-1.759c0-0.759,0.231-1.388,0.695-1.885
					s1.071-0.747,1.823-0.747c0.795,0,1.403,0.312,1.824,0.935s0.631,1.513,0.631,2.669c0,1.443-0.276,2.565-0.83,3.365
					c-0.553,0.801-1.34,1.201-2.36,1.201c-0.53,0-0.981-0.089-1.354-0.269V129.481z M289.894,124.916
					c0,0.548,0.144,0.988,0.43,1.321s0.686,0.5,1.197,0.5c0.444,0,0.815-0.148,1.112-0.443c0.297-0.296,0.446-0.656,0.446-1.083
					c0-0.583-0.146-1.074-0.438-1.472s-0.685-0.596-1.179-0.596c-0.462,0-0.839,0.173-1.131,0.519
					C290.04,124.007,289.894,124.425,289.894,124.916z"/>
				<path fill="#404040" d="M298.391,130.448h-0.854v-6.827c-0.164,0.165-0.433,0.343-0.805,0.535
					c-0.373,0.191-0.713,0.325-1.021,0.4v-0.913c0.395-0.111,0.816-0.292,1.268-0.542s0.808-0.494,1.069-0.73h0.344V130.448z"/>
				<path fill="#404040" d="M304.45,130.448h-0.854v-6.827c-0.164,0.165-0.433,0.343-0.805,0.535
					c-0.373,0.191-0.713,0.325-1.021,0.4v-0.913c0.395-0.111,0.816-0.292,1.268-0.542s0.808-0.494,1.069-0.73h0.344V130.448z"/>
			</g>
		</g>
	</g>
	<g>
		<g>
			<g>
				<path fill="#404040" d="M307.125,9.657h-0.854V2.831c-0.164,0.165-0.433,0.343-0.805,0.535c-0.373,0.191-0.713,0.325-1.021,0.4
					V2.852c0.395-0.111,0.816-0.292,1.268-0.542s0.808-0.494,1.069-0.73h0.344V9.657z"/>
				<path fill="#404040" d="M309.828,5.865c0-1.396,0.227-2.453,0.682-3.169s1.11-1.074,1.966-1.074c1.644,0,2.466,1.35,2.466,4.05
					c0,1.332-0.229,2.352-0.686,3.059c-0.456,0.708-1.109,1.061-1.957,1.061c-0.803,0-1.415-0.343-1.838-1.029
					C310.039,8.077,309.828,7.111,309.828,5.865z M310.697,5.822c0,2.163,0.564,3.244,1.692,3.244c1.121,0,1.681-1.098,1.681-3.292
					c0-2.281-0.546-3.421-1.638-3.421C311.276,2.353,310.697,3.509,310.697,5.822z"/>
				<path fill="#404040" d="M320.929,2.272c-0.842,1.479-1.499,2.841-1.974,4.087s-0.77,2.345-0.884,3.298h-0.93
					c0.086-0.609,0.248-1.283,0.484-2.022c0.236-0.739,0.537-1.519,0.902-2.339s0.832-1.742,1.401-2.766h-4.022V1.751h5.021V2.272z"
					/>
				<path fill="#404040" d="M325.795,3.862c0-0.473-0.14-0.843-0.419-1.112s-0.65-0.403-1.111-0.403
					c-0.33,0-0.659,0.085-0.988,0.255c-0.33,0.17-0.627,0.403-0.893,0.701V2.379c0.513-0.505,1.175-0.757,1.988-0.757
					c0.676,0,1.222,0.195,1.635,0.585c0.414,0.39,0.621,0.917,0.621,1.579c0,0.569-0.133,1.068-0.398,1.496
					c-0.265,0.428-0.716,0.87-1.354,1.324c-0.602,0.422-1.02,0.743-1.254,0.961s-0.399,0.425-0.494,0.621
					c-0.095,0.195-0.143,0.427-0.143,0.695h3.836v0.773h-4.743V9.271c0-0.433,0.06-0.803,0.18-1.109
					c0.12-0.306,0.32-0.605,0.602-0.896c0.281-0.292,0.731-0.653,1.351-1.083c0.566-0.39,0.972-0.762,1.217-1.115
					C325.672,4.715,325.795,4.313,325.795,3.862z"/>
				<path fill="#404040" d="M332.804,7.246c0,0.781-0.249,1.4-0.749,1.858c-0.499,0.458-1.168,0.688-2.006,0.688
					c-0.734,0-1.28-0.109-1.638-0.328V8.54c0.547,0.351,1.097,0.526,1.648,0.526c0.565,0,1.021-0.164,1.367-0.491
					c0.346-0.328,0.518-0.753,0.518-1.276c0-0.534-0.175-0.946-0.525-1.238c-0.352-0.292-0.858-0.438-1.521-0.438
					c-0.444,0-0.89,0.027-1.337,0.081l0.268-3.953h3.626V2.53h-2.857l-0.172,2.379c0.275-0.025,0.528-0.038,0.757-0.038
					c0.82,0,1.462,0.212,1.926,0.636C332.573,5.933,332.804,6.512,332.804,7.246z"/>
				<path fill="#404040" d="M334.54,8.69c0.44,0.25,0.904,0.376,1.392,0.376c0.719,0,1.281-0.293,1.686-0.878
					c0.405-0.586,0.607-1.421,0.607-2.506c-0.007,0.007-0.015,0.007-0.021,0c-0.344,0.688-0.937,1.031-1.777,1.031
					c-0.681,0-1.236-0.233-1.668-0.701c-0.432-0.467-0.647-1.053-0.647-1.759c0-0.759,0.231-1.388,0.695-1.885
					s1.071-0.747,1.823-0.747c0.795,0,1.403,0.312,1.824,0.935s0.631,1.513,0.631,2.669c0,1.443-0.276,2.565-0.83,3.365
					c-0.553,0.801-1.34,1.201-2.36,1.201c-0.53,0-0.981-0.089-1.354-0.269V8.69z M334.98,4.125c0,0.548,0.144,0.988,0.43,1.321
					s0.686,0.5,1.197,0.5c0.444,0,0.815-0.148,1.112-0.443c0.297-0.296,0.446-0.656,0.446-1.083c0-0.583-0.146-1.074-0.438-1.472
					s-0.685-0.596-1.179-0.596c-0.462,0-0.839,0.173-1.131,0.519C335.125,3.216,334.98,3.634,334.98,4.125z"/>
			</g>
		</g>
	</g>
	<g>
		<path d="M349.59,399.621v-0.732l1.729-1.8c0.688-0.728,1.191-1.326,1.512-1.794c0.319-0.468,0.479-0.946,0.479-1.434
			c0-0.512-0.134-0.887-0.401-1.122c-0.269-0.236-0.674-0.354-1.218-0.354c-0.553,0-1.133,0.2-1.74,0.601l-0.252-0.948
			c0.728-0.448,1.487-0.672,2.279-0.672c0.856,0,1.511,0.206,1.963,0.618c0.451,0.412,0.678,0.989,0.678,1.733
			c0,0.345-0.057,0.677-0.168,0.996c-0.112,0.32-0.294,0.656-0.546,1.008c-0.252,0.353-0.477,0.639-0.672,0.858
			c-0.196,0.22-0.482,0.53-0.858,0.93l-1.104,1.104h3.456v1.008H349.59z"/>
		<path d="M359.143,399.765c-0.921,0-1.664-0.319-2.232-0.96c-0.568-0.64-0.852-1.62-0.852-2.939v-0.576
			c0-1.36,0.289-2.354,0.869-2.982c0.58-0.628,1.326-0.941,2.238-0.941c0.896,0,1.624,0.312,2.185,0.936
			c0.56,0.624,0.84,1.604,0.84,2.94v0.611c0,1.337-0.28,2.322-0.84,2.958C360.791,399.447,360.054,399.765,359.143,399.765z
			 M359.143,398.781c0.592,0,1.033-0.223,1.325-0.666c0.292-0.444,0.438-1.158,0.438-2.143v-0.744c0-1.92-0.584-2.88-1.752-2.88
			c-1.185,0-1.776,0.937-1.776,2.809v0.744C357.378,397.821,357.966,398.781,359.143,398.781z"/>
		<path d="M368.767,397.569l-0.708,0.852c-0.408-0.256-0.811-0.642-1.206-1.158c-0.396-0.516-0.671-1.038-0.822-1.565
			c-0.128,0.584-0.389,1.147-0.78,1.691c-0.392,0.545-0.848,0.98-1.368,1.309l-0.744-0.84c0.681-0.448,1.232-1.086,1.656-1.914
			s0.636-1.771,0.636-2.826v-1.681h1.188v1.669c0,0.991,0.198,1.886,0.594,2.682C367.609,396.583,368.126,397.177,368.767,397.569z
			 M370.254,400.569h-1.151v-5.437h-1.536v-1.02h1.536v-3.517h1.151V400.569z M372.367,401.073h-1.176v-10.692h1.176V401.073z"/>
		<path d="M382.35,391.209c-0.048,1.44-0.492,2.638-1.332,3.594s-1.992,1.658-3.456,2.106l-0.636-0.984
			c1.039-0.224,1.943-0.662,2.712-1.313c0.768-0.652,1.228-1.442,1.38-2.37h-3.588v-1.032H382.35z M385.938,400.797h-7.248v-3.372
			h1.236v2.389h6.012V400.797z M385.686,398.133h-1.225v-3.504h-2.1v-1.008h2.1v-3.24h1.225V398.133z"/>
		<path d="M392.598,391.149c-0.024,1.392-0.465,2.556-1.32,3.491c-0.856,0.937-2.017,1.62-3.48,2.053l-0.636-0.996
			c1.008-0.216,1.902-0.638,2.682-1.267c0.78-0.628,1.242-1.382,1.387-2.262h-3.54v-1.02H392.598z M395.717,398.937
			c0,0.648-0.321,1.164-0.966,1.549c-0.644,0.384-1.534,0.575-2.67,0.575c-1.128,0-2.012-0.191-2.652-0.575
			c-0.64-0.385-0.96-0.9-0.96-1.549c0-0.655,0.32-1.174,0.96-1.554c0.641-0.38,1.524-0.569,2.652-0.569
			c1.136,0,2.026,0.189,2.67,0.569C395.396,397.763,395.717,398.281,395.717,398.937z M394.458,398.937c0-0.359-0.21-0.64-0.63-0.84
			c-0.42-0.199-1.002-0.3-1.746-0.3s-1.322,0.101-1.733,0.3c-0.413,0.2-0.618,0.48-0.618,0.84c0,0.353,0.205,0.631,0.618,0.835
			c0.411,0.203,0.989,0.306,1.733,0.306s1.326-0.103,1.746-0.306C394.248,399.567,394.458,399.289,394.458,398.937z
			 M397.146,393.993h-1.572v2.712h-1.236v-6.324h1.236v2.592h1.572V393.993z"/>
		<path d="M403.757,393.237h-6.191v-0.973h6.191V393.237z M403.194,395.505c0,0.552-0.236,1-0.708,1.344
			c-0.473,0.345-1.072,0.517-1.8,0.517c-0.729,0-1.332-0.172-1.812-0.517c-0.48-0.344-0.72-0.792-0.72-1.344
			c0-0.544,0.237-0.99,0.714-1.338c0.476-0.348,1.082-0.522,1.818-0.522c0.72,0,1.317,0.175,1.794,0.522
			C402.956,394.515,403.194,394.961,403.194,395.505z M399.114,391.605v-0.984h3.132v0.984H399.114z M406.265,400.785h-7.151v-2.868
			h1.235v1.884h5.916V400.785z M402.017,395.505c0-0.271-0.13-0.494-0.39-0.666s-0.574-0.258-0.941-0.258
			c-0.385,0-0.707,0.084-0.967,0.252s-0.39,0.392-0.39,0.672s0.128,0.502,0.384,0.666s0.58,0.246,0.973,0.246
			c0.375,0,0.691-0.082,0.947-0.246S402.017,395.785,402.017,395.505z M405.954,390.381v3.348h1.584v1.021h-1.584v3.54h-1.236
			v-7.908H405.954z"/>
		<path d="M411.558,391.929v-1.008h5.628v1.008h-2.137c0.024,0.713,0.269,1.322,0.732,1.83c0.464,0.509,1.027,0.866,1.692,1.074
			l-0.685,0.96c-0.439-0.16-0.89-0.446-1.35-0.858c-0.46-0.411-0.803-0.846-1.026-1.302c-0.152,0.504-0.472,0.988-0.96,1.452
			s-1.012,0.804-1.572,1.021l-0.744-0.948c0.776-0.288,1.406-0.714,1.891-1.278c0.483-0.563,0.733-1.214,0.75-1.95H411.558z
			 M416.058,399.861l0.119,0.972c-0.68,0.128-1.516,0.2-2.508,0.216h-1.224v-2.604h2.22v-0.805h-2.22v-0.924h3.396v2.557h-2.208
			v0.815C414.593,400.105,415.402,400.029,416.058,399.861z M419.994,401.049h-3.456v-4.32h3.456V401.049z M419.994,396.153h-1.224
			v-2.484h-1.729v-1.008h1.729v-2.28h1.224V396.153z M418.89,400.149v-2.521h-1.248v2.521H418.89z"/>
		<path d="M431.225,396.813h-9.659v-0.984h9.659V396.813z M429.102,391.215c0.663,0.389,0.995,0.898,0.995,1.53
			s-0.33,1.144-0.989,1.536c-0.66,0.392-1.562,0.588-2.706,0.588c-1.145,0-2.046-0.196-2.706-0.588
			c-0.66-0.393-0.99-0.904-0.99-1.536s0.33-1.142,0.99-1.53c0.66-0.388,1.558-0.582,2.693-0.582
			C427.534,390.633,428.437,390.827,429.102,391.215z M430.097,400.773h-7.296v-3.097h1.236v2.112h6.06V400.773z M428.826,392.757
			c0-0.359-0.218-0.642-0.654-0.846c-0.436-0.204-1.03-0.306-1.782-0.306c-0.743,0-1.334,0.102-1.77,0.306
			c-0.437,0.204-0.654,0.486-0.654,0.846c0,0.353,0.218,0.63,0.654,0.834c0.436,0.204,1.026,0.307,1.77,0.307
			c0.752,0,1.347-0.103,1.782-0.307C428.608,393.387,428.826,393.109,428.826,392.757z"/>
		<path d="M432.99,397.677c-0.488-0.68-0.732-1.588-0.732-2.724s0.244-2.044,0.732-2.725c0.487-0.68,1.155-1.02,2.004-1.02
			c0.848,0,1.512,0.34,1.992,1.02c0.479,0.681,0.72,1.593,0.72,2.736c0,1.136-0.24,2.042-0.72,2.718
			c-0.48,0.677-1.145,1.015-1.992,1.015C434.145,398.697,433.477,398.357,432.99,397.677z M436.116,396.963
			c0.283-0.492,0.426-1.162,0.426-2.01s-0.143-1.516-0.426-2.004c-0.284-0.488-0.658-0.732-1.122-0.732
			c-0.456,0-0.824,0.244-1.104,0.732s-0.42,1.156-0.42,2.004s0.14,1.518,0.42,2.01s0.648,0.738,1.104,0.738
			C435.458,397.701,435.832,397.455,436.116,396.963z M440.742,401.073h-1.225v-10.692h1.225V401.073z"/>
	</g>
	<g>
		<path d="M350.167,376.721l3.072-7.115h-3.889v-0.996h5.257v0.756l-3.049,7.355H350.167z"/>
		<path d="M358.794,376.84c-0.921,0-1.664-0.318-2.232-0.959s-0.852-1.621-0.852-2.939v-0.576c0-1.361,0.289-2.354,0.869-2.982
			s1.326-0.941,2.238-0.941c0.896,0,1.624,0.311,2.185,0.936c0.56,0.623,0.84,1.604,0.84,2.939v0.611c0,1.338-0.28,2.322-0.84,2.959
			C360.442,376.523,359.706,376.84,358.794,376.84z M358.794,375.857c0.592,0,1.033-0.223,1.325-0.666
			c0.292-0.445,0.438-1.158,0.438-2.143v-0.744c0-1.92-0.584-2.881-1.752-2.881c-1.185,0-1.776,0.938-1.776,2.809v0.744
			C357.03,374.896,357.618,375.857,358.794,375.857z"/>
		<path d="M368.418,374.645l-0.708,0.852c-0.408-0.256-0.811-0.641-1.206-1.158c-0.396-0.516-0.671-1.037-0.822-1.564
			c-0.128,0.584-0.389,1.146-0.78,1.691s-0.848,0.98-1.368,1.309l-0.744-0.84c0.681-0.449,1.232-1.086,1.656-1.914
			s0.636-1.771,0.636-2.826v-1.682h1.188v1.67c0,0.99,0.198,1.885,0.594,2.682C367.26,373.658,367.778,374.252,368.418,374.645z
			 M369.906,377.645h-1.151v-5.436h-1.536v-1.02h1.536v-3.518h1.151V377.645z M372.018,378.148h-1.176v-10.691h1.176V378.148z"/>
		<path d="M382.002,368.285c-0.048,1.439-0.492,2.637-1.332,3.594c-0.84,0.955-1.992,1.658-3.456,2.105L376.579,373
			c1.039-0.223,1.943-0.662,2.712-1.312c0.768-0.652,1.228-1.443,1.38-2.371h-3.588v-1.031H382.002z M385.59,377.873h-7.248V374.5
			h1.236v2.389h6.012V377.873z M385.338,375.209h-1.225v-3.504h-2.1v-1.008h2.1v-3.24h1.225V375.209z"/>
		<path d="M392.25,368.225c-0.024,1.393-0.465,2.557-1.32,3.492c-0.856,0.936-2.017,1.619-3.48,2.053l-0.636-0.996
			c1.008-0.217,1.902-0.639,2.682-1.268c0.78-0.627,1.242-1.381,1.387-2.262h-3.54v-1.02H392.25z M395.37,376.012
			c0,0.648-0.321,1.164-0.966,1.549c-0.644,0.385-1.534,0.576-2.67,0.576c-1.128,0-2.012-0.191-2.652-0.576
			c-0.64-0.385-0.96-0.9-0.96-1.549c0-0.654,0.32-1.174,0.96-1.553c0.641-0.381,1.524-0.57,2.652-0.57
			c1.136,0,2.026,0.189,2.67,0.57C395.048,374.838,395.37,375.357,395.37,376.012z M394.11,376.012c0-0.359-0.21-0.639-0.63-0.84
			c-0.42-0.199-1.002-0.299-1.746-0.299s-1.322,0.1-1.733,0.299c-0.413,0.201-0.618,0.48-0.618,0.84
			c0,0.354,0.205,0.631,0.618,0.836c0.411,0.203,0.989,0.305,1.733,0.305s1.326-0.102,1.746-0.305
			C393.9,376.643,394.11,376.365,394.11,376.012z M396.798,371.068h-1.572v2.713h-1.236v-6.324h1.236v2.592h1.572V371.068z"/>
		<path d="M403.41,370.312h-6.191v-0.973h6.191V370.312z M402.846,372.58c0,0.553-0.236,1-0.708,1.344
			c-0.473,0.346-1.072,0.518-1.8,0.518c-0.729,0-1.332-0.172-1.812-0.518c-0.48-0.344-0.72-0.791-0.72-1.344
			c0-0.543,0.237-0.99,0.714-1.338c0.476-0.348,1.082-0.521,1.818-0.521c0.72,0,1.317,0.174,1.794,0.521
			C402.608,371.59,402.846,372.037,402.846,372.58z M398.766,368.682v-0.984h3.132v0.984H398.766z M405.917,377.861h-7.151v-2.869
			h1.235v1.885h5.916V377.861z M401.669,372.58c0-0.271-0.13-0.494-0.39-0.666s-0.574-0.258-0.941-0.258
			c-0.385,0-0.707,0.084-0.967,0.252s-0.39,0.393-0.39,0.672c0,0.281,0.128,0.502,0.384,0.666s0.58,0.246,0.973,0.246
			c0.375,0,0.691-0.082,0.947-0.246S401.669,372.861,401.669,372.58z M405.606,367.457v3.348h1.584v1.02h-1.584v3.541h-1.236v-7.908
			H405.606z"/>
		<path d="M419.345,373.025h-3.084v2.771h4.235v0.984h-9.659v-0.984h4.199v-2.771h-3v-4.729h1.225v3.732h6.084V373.025z"/>
		<path d="M426.25,368.98c0.509,0.488,0.763,1.117,0.763,1.885s-0.254,1.396-0.763,1.883c-0.508,0.488-1.166,0.732-1.974,0.732
			c-0.816,0-1.48-0.244-1.992-0.732c-0.512-0.486-0.768-1.111-0.768-1.871c0-0.768,0.256-1.398,0.768-1.891s1.176-0.738,1.992-0.738
			C425.084,368.248,425.743,368.492,426.25,368.98z M425.789,370.865c0-0.473-0.136-0.857-0.407-1.152
			c-0.272-0.297-0.641-0.443-1.104-0.443c-0.448,0-0.814,0.148-1.098,0.449c-0.284,0.301-0.426,0.682-0.426,1.146
			c0,0.447,0.142,0.822,0.426,1.121c0.283,0.301,0.649,0.451,1.098,0.451c0.456,0,0.822-0.15,1.098-0.451
			C425.651,371.688,425.789,371.312,425.789,370.865z M430.265,377.836h-7.32v-3.359h1.224v2.377h6.097V377.836z M430.013,375.209
			h-1.225v-7.752h1.225V375.209z"/>
	</g>
	<g>
		<path d="M353.333,18.515l0.108,0.948c-0.576,0.112-1.477,0.204-2.7,0.276c-1.192,0.056-2.068,0.084-2.628,0.084l-0.168-1.032
			c0.56,0,0.976-0.004,1.248-0.012l-0.265-4.176l1.176-0.133l0.181,4.272l0.684-0.036h0.181l0.228-4.224l1.188,0.12l-0.336,4.031
			C352.636,18.611,353.004,18.571,353.333,18.515z M353.128,13.896h-4.944v-0.996h4.944V13.896z M357.125,22.319h-1.176v-5.46
			h-0.984v4.943H353.8v-9.96h1.164v3.984h0.984v-4.2h1.176V22.319z"/>
		<path d="M364.276,14.063h-5.771v-0.948h5.771V14.063z M364.024,16.043c0,0.504-0.235,0.904-0.708,1.2
			c-0.472,0.296-1.075,0.444-1.812,0.444c-0.72,0-1.316-0.15-1.788-0.45s-0.708-0.698-0.708-1.194c0-0.487,0.234-0.878,0.702-1.17
			s1.065-0.438,1.794-0.438c0.736,0,1.34,0.146,1.812,0.438C363.789,15.165,364.024,15.556,364.024,16.043z M359.968,12.563v-0.948
			h3.132v0.948H359.968z M362.836,16.043c0-0.216-0.13-0.39-0.39-0.521c-0.261-0.133-0.574-0.198-0.942-0.198
			s-0.68,0.065-0.937,0.198c-0.256,0.132-0.384,0.306-0.384,0.521c0,0.24,0.128,0.424,0.384,0.552
			c0.257,0.129,0.568,0.192,0.937,0.192c0.376,0,0.691-0.063,0.948-0.192C362.708,16.467,362.836,16.283,362.836,16.043z
			 M367.636,22.283h-7.296v-2.472h5.736v-0.648h-5.784v-0.948h7.008v2.484h-5.724v0.647h6.06V22.283z M367.289,17.639h-1.225v-0.827
			h-1.535v-1.009h1.535v-0.936h-1.535v-0.984h1.535v-2.256h1.225V17.639z"/>
		<path d="M378.532,16.728v0.983h-9.659v-0.983H378.532z M378.052,15.071l-0.54,0.972c-0.8-0.096-1.562-0.344-2.286-0.744
			c-0.724-0.399-1.229-0.855-1.518-1.368c-0.248,0.528-0.723,0.99-1.422,1.387c-0.7,0.396-1.49,0.642-2.37,0.737l-0.54-0.972
			c0.872-0.048,1.653-0.256,2.346-0.624s1.122-0.84,1.29-1.416h-3.168v-0.996h7.74v0.996h-3.145
			c0.185,0.561,0.637,1.026,1.356,1.398S377.268,15.023,378.052,15.071z M376.432,18.905c0.656,0.355,0.984,0.83,0.984,1.422
			s-0.328,1.065-0.984,1.422c-0.656,0.355-1.564,0.534-2.724,0.534c-1.168,0-2.078-0.176-2.73-0.528
			c-0.652-0.352-0.978-0.828-0.978-1.428c0-0.592,0.325-1.066,0.978-1.422c0.652-0.356,1.559-0.534,2.718-0.534
			C374.864,18.371,375.776,18.549,376.432,18.905z M376.144,20.327c0-0.296-0.218-0.53-0.654-0.702
			c-0.436-0.172-1.033-0.258-1.794-0.258c-0.752,0-1.346,0.086-1.781,0.258c-0.437,0.172-0.654,0.406-0.654,0.702
			c0,0.312,0.216,0.55,0.648,0.714c0.432,0.164,1.027,0.246,1.787,0.246c0.769,0,1.368-0.082,1.801-0.246
			C375.928,20.877,376.144,20.639,376.144,20.327z"/>
		<path d="M384.856,22.115c-0.64-0.608-1.162-1.338-1.565-2.19c-0.404-0.852-0.606-1.786-0.606-2.802v-0.204
			c0-1.016,0.202-1.944,0.606-2.784c0.403-0.84,0.926-1.571,1.565-2.195h1.044c-0.592,0.655-1.073,1.403-1.445,2.243
			c-0.372,0.841-0.559,1.717-0.559,2.629v0.323c0,0.896,0.188,1.788,0.564,2.677c0.376,0.888,0.855,1.655,1.439,2.304H384.856z"/>
		<path d="M393.484,19.067l0.096,0.947c-1.695,0.217-4.036,0.341-7.02,0.372l-0.192-1.02c1.521,0,2.5-0.008,2.94-0.024v-1.884h1.236
			v1.836C391.808,19.239,392.788,19.163,393.484,19.067z M386.98,14.819v-0.984h5.796v0.984h-2.208
			c0.096,0.472,0.395,0.894,0.895,1.266c0.499,0.372,1.038,0.599,1.613,0.678l-0.6,0.984c-0.488-0.112-0.974-0.34-1.458-0.684
			c-0.484-0.345-0.842-0.716-1.074-1.116c-0.176,0.456-0.512,0.888-1.008,1.296s-1.036,0.692-1.62,0.852l-0.647-0.983
			c0.68-0.16,1.266-0.45,1.758-0.87s0.781-0.895,0.87-1.422H386.98z M388.396,13.163v-0.984h3v0.984H388.396z M395.32,11.627v10.692
			h-1.235V11.627H395.32z"/>
		<path d="M401.596,18.419l0.155,0.984c-0.872,0.2-2.06,0.3-3.563,0.3h-1.08v-6.78h4.032v0.996c-0.312,0-0.778-0.002-1.398-0.006
			s-1.082-0.006-1.386-0.006v4.775C399.732,18.683,400.812,18.595,401.596,18.419z M405.772,22.319h-1.188v-5.412h-1.08v4.896
			h-1.163v-9.96h1.163v4.032h1.08v-4.248h1.188V22.319z"/>
		<path d="M406.9,22.115c0.592-0.656,1.074-1.406,1.446-2.25s0.558-1.722,0.558-2.634v-0.324c0-0.888-0.188-1.776-0.564-2.664
			s-0.855-1.656-1.439-2.304h1.044c0.64,0.616,1.162,1.348,1.566,2.195c0.403,0.849,0.605,1.776,0.605,2.784v0.204
			c0,1.024-0.202,1.96-0.605,2.808c-0.404,0.849-0.927,1.576-1.566,2.185H406.9z"/>
	</g>
	<g>
		<path d="M354.499,135.937l0.108,0.948c-0.576,0.112-1.477,0.204-2.7,0.276c-1.192,0.056-2.068,0.084-2.628,0.084l-0.168-1.032
			c0.56,0,0.976-0.004,1.248-0.012l-0.265-4.176l1.176-0.133l0.181,4.272l0.684-0.036h0.181l0.228-4.224l1.188,0.12l-0.336,4.031
			C353.802,136.034,354.17,135.994,354.499,135.937z M354.294,131.318h-4.944v-0.996h4.944V131.318z M358.291,139.742h-1.176v-5.46
			h-0.984v4.943h-1.164v-9.96h1.164v3.984h0.984v-4.2h1.176V139.742z"/>
		<path d="M365.442,131.486h-5.771v-0.948h5.771V131.486z M365.19,133.465c0,0.504-0.235,0.904-0.708,1.2
			c-0.472,0.296-1.075,0.444-1.812,0.444c-0.72,0-1.316-0.15-1.788-0.45s-0.708-0.698-0.708-1.194c0-0.487,0.234-0.878,0.702-1.17
			s1.065-0.438,1.794-0.438c0.736,0,1.34,0.146,1.812,0.438C364.955,132.587,365.19,132.978,365.19,133.465z M361.134,129.986
			v-0.948h3.132v0.948H361.134z M364.002,133.465c0-0.216-0.13-0.39-0.39-0.521c-0.261-0.133-0.574-0.198-0.942-0.198
			s-0.68,0.065-0.937,0.198c-0.256,0.132-0.384,0.306-0.384,0.521c0,0.24,0.128,0.424,0.384,0.552
			c0.257,0.129,0.568,0.192,0.937,0.192c0.376,0,0.691-0.063,0.948-0.192C363.875,133.889,364.002,133.706,364.002,133.465z
			 M368.802,139.706h-7.296v-2.472h5.736v-0.648h-5.784v-0.948h7.008v2.484h-5.724v0.647h6.06V139.706z M368.455,135.061h-1.225
			v-0.827h-1.535v-1.009h1.535v-0.936h-1.535v-0.984h1.535v-2.256h1.225V135.061z"/>
		<path d="M379.698,134.15v0.983h-9.659v-0.983H379.698z M379.218,132.494l-0.54,0.972c-0.8-0.096-1.562-0.344-2.286-0.744
			c-0.724-0.399-1.229-0.855-1.518-1.368c-0.248,0.528-0.723,0.99-1.422,1.387c-0.7,0.396-1.49,0.642-2.37,0.737l-0.54-0.972
			c0.872-0.048,1.653-0.256,2.346-0.624s1.122-0.84,1.29-1.416h-3.168v-0.996h7.74v0.996h-3.145
			c0.185,0.561,0.637,1.026,1.356,1.398S378.434,132.446,379.218,132.494z M377.598,136.328c0.656,0.355,0.984,0.83,0.984,1.422
			s-0.328,1.065-0.984,1.422c-0.656,0.355-1.564,0.534-2.724,0.534c-1.168,0-2.078-0.176-2.73-0.528
			c-0.652-0.352-0.978-0.828-0.978-1.428c0-0.592,0.325-1.066,0.978-1.422c0.652-0.356,1.559-0.534,2.718-0.534
			C376.03,135.793,376.942,135.971,377.598,136.328z M377.31,137.75c0-0.296-0.218-0.53-0.654-0.702
			c-0.436-0.172-1.033-0.258-1.794-0.258c-0.752,0-1.346,0.086-1.781,0.258c-0.437,0.172-0.654,0.406-0.654,0.702
			c0,0.312,0.216,0.55,0.648,0.714c0.432,0.164,1.027,0.246,1.787,0.246c0.769,0,1.368-0.082,1.801-0.246
			C377.094,138.299,377.31,138.061,377.31,137.75z"/>
		<path d="M386.022,139.538c-0.64-0.608-1.162-1.338-1.565-2.19c-0.404-0.852-0.606-1.786-0.606-2.802v-0.204
			c0-1.016,0.202-1.944,0.606-2.784c0.403-0.84,0.926-1.571,1.565-2.195h1.044c-0.592,0.655-1.073,1.403-1.445,2.243
			c-0.372,0.841-0.559,1.717-0.559,2.629v0.323c0,0.896,0.188,1.788,0.564,2.677c0.376,0.888,0.855,1.655,1.439,2.304H386.022z"/>
		<path d="M393.534,132.877l0.192,1.008c-1.232,0.296-2.776,0.452-4.632,0.468h-1.141v-4.691h1.213v3.647
			C390.902,133.293,392.358,133.15,393.534,132.877z M388.962,135.637h7.067v0.973h-2.868c0.064,0.592,0.44,1.1,1.128,1.523
			c0.688,0.424,1.444,0.68,2.269,0.769l-0.564,0.936c-0.688-0.056-1.399-0.302-2.136-0.738c-0.736-0.436-1.192-0.89-1.368-1.361
			c-0.208,0.479-0.656,0.926-1.344,1.338c-0.688,0.412-1.412,0.657-2.172,0.737l-0.564-0.911c0.849-0.057,1.603-0.298,2.263-0.727
			c0.66-0.428,1.05-0.95,1.17-1.565h-2.88V135.637z M397.41,132.482h-1.571v2.508h-1.225v-5.94h1.225v2.4h1.571V132.482z"/>
		<path d="M407.585,135.482h-9.659v-0.984h9.659V135.482z M405.462,129.883c0.663,0.389,0.995,0.898,0.995,1.53
			s-0.33,1.144-0.989,1.536c-0.66,0.392-1.562,0.588-2.706,0.588c-1.145,0-2.046-0.196-2.706-0.588
			c-0.66-0.393-0.99-0.904-0.99-1.536s0.33-1.142,0.99-1.53c0.66-0.388,1.558-0.582,2.693-0.582
			C403.894,129.301,404.797,129.496,405.462,129.883z M406.458,139.442h-7.296v-3.097h1.236v2.112h6.06V139.442z M405.186,131.425
			c0-0.359-0.218-0.642-0.654-0.846c-0.436-0.204-1.03-0.306-1.782-0.306c-0.743,0-1.334,0.102-1.77,0.306
			c-0.437,0.204-0.654,0.486-0.654,0.846c0,0.353,0.218,0.63,0.654,0.834c0.436,0.204,1.026,0.307,1.77,0.307
			c0.752,0,1.347-0.103,1.782-0.307C404.968,132.055,405.186,131.778,405.186,131.425z"/>
		<path d="M408.702,129.662h4.933c-0.017,0.72-0.16,1.382-0.433,1.985c-0.271,0.604-0.638,1.116-1.098,1.536
			s-0.966,0.772-1.519,1.057c-0.552,0.284-1.144,0.502-1.775,0.653l-0.624-1.008c1.016-0.151,1.908-0.521,2.676-1.109
			c0.768-0.589,1.236-1.282,1.404-2.082h-3.564V129.662z M413.226,139.61h-3.637v-4.152h1.164v1.188h1.309v-1.212h1.164V139.61z
			 M412.062,138.685v-1.128h-1.309v1.128H412.062z M417.942,138.889l-0.696,0.853c-0.336-0.145-0.676-0.4-1.02-0.769
			c-0.345-0.367-0.548-0.699-0.612-0.996c-0.064,0.32-0.254,0.656-0.57,1.009c-0.315,0.352-0.658,0.619-1.025,0.804l-0.732-0.828
			c0.568-0.24,0.998-0.612,1.29-1.116s0.438-1.084,0.438-1.74v-0.756h1.199v0.756c0,0.608,0.145,1.163,0.433,1.662
			C416.934,138.267,417.366,138.641,417.942,138.889z M418.182,132.566h-1.572v2.243h-1.236v-5.76h1.236v2.484h1.572V132.566z"/>
		<path d="M418.446,139.538c0.592-0.656,1.074-1.406,1.446-2.25s0.558-1.722,0.558-2.634v-0.324c0-0.888-0.188-1.776-0.564-2.664
			s-0.855-1.656-1.439-2.304h1.044c0.64,0.616,1.162,1.348,1.566,2.195c0.403,0.849,0.605,1.776,0.605,2.784v0.204
			c0,1.024-0.202,1.96-0.605,2.808c-0.404,0.849-0.927,1.576-1.566,2.185H418.446z"/>
	</g>
	<g>
		<path d="M355.542,207.402l0.108,0.948c-0.576,0.112-1.477,0.204-2.7,0.276c-1.192,0.056-2.068,0.084-2.628,0.084l-0.168-1.032
			c0.56,0,0.976-0.004,1.248-0.012l-0.265-4.176l1.176-0.133l0.181,4.272l0.684-0.036h0.181l0.228-4.224l1.188,0.12l-0.336,4.031
			C354.846,207.499,355.214,207.458,355.542,207.402z M355.338,202.783h-4.944v-0.996h4.944V202.783z M359.334,211.207h-1.176v-5.46
			h-0.984v4.943h-1.164v-9.96h1.164v3.984h0.984v-4.2h1.176V211.207z"/>
		<path d="M366.486,202.951h-5.771v-0.948h5.771V202.951z M366.234,204.93c0,0.504-0.235,0.904-0.708,1.2
			c-0.472,0.296-1.075,0.444-1.812,0.444c-0.72,0-1.316-0.15-1.788-0.45s-0.708-0.698-0.708-1.194c0-0.487,0.234-0.878,0.702-1.17
			s1.065-0.438,1.794-0.438c0.736,0,1.34,0.146,1.812,0.438C365.999,204.052,366.234,204.443,366.234,204.93z M362.178,201.451
			v-0.948h3.132v0.948H362.178z M365.046,204.93c0-0.216-0.13-0.39-0.39-0.521c-0.261-0.133-0.574-0.198-0.942-0.198
			s-0.68,0.065-0.937,0.198c-0.256,0.132-0.384,0.306-0.384,0.521c0,0.24,0.128,0.424,0.384,0.552
			c0.257,0.129,0.568,0.192,0.937,0.192c0.376,0,0.691-0.063,0.948-0.192C364.918,205.354,365.046,205.17,365.046,204.93z
			 M369.846,211.17h-7.296v-2.472h5.736v-0.648h-5.784v-0.948h7.008v2.484h-5.724v0.647h6.06V211.17z M369.499,206.526h-1.225
			v-0.827h-1.535v-1.009h1.535v-0.936h-1.535v-0.984h1.535v-2.256h1.225V206.526z"/>
		<path d="M380.742,205.615v0.983h-9.659v-0.983H380.742z M380.262,203.958l-0.54,0.972c-0.8-0.096-1.562-0.344-2.286-0.744
			c-0.724-0.399-1.229-0.855-1.518-1.368c-0.248,0.528-0.723,0.99-1.422,1.387c-0.7,0.396-1.49,0.642-2.37,0.737l-0.54-0.972
			c0.872-0.048,1.653-0.256,2.346-0.624s1.122-0.84,1.29-1.416h-3.168v-0.996h7.74v0.996h-3.145
			c0.185,0.561,0.637,1.026,1.356,1.398S379.478,203.911,380.262,203.958z M378.642,207.792c0.656,0.355,0.984,0.83,0.984,1.422
			s-0.328,1.065-0.984,1.422c-0.656,0.355-1.564,0.534-2.724,0.534c-1.168,0-2.078-0.176-2.73-0.528
			c-0.652-0.352-0.978-0.828-0.978-1.428c0-0.592,0.325-1.066,0.978-1.422c0.652-0.356,1.559-0.534,2.718-0.534
			C377.074,207.258,377.986,207.436,378.642,207.792z M378.354,209.214c0-0.296-0.218-0.53-0.654-0.702
			c-0.436-0.172-1.033-0.258-1.794-0.258c-0.752,0-1.346,0.086-1.781,0.258c-0.437,0.172-0.654,0.406-0.654,0.702
			c0,0.312,0.216,0.55,0.648,0.714c0.432,0.164,1.027,0.246,1.787,0.246c0.769,0,1.368-0.082,1.801-0.246
			C378.138,209.764,378.354,209.526,378.354,209.214z"/>
		<path d="M391.266,208.218l-0.66,0.912c-0.544-0.256-1.08-0.654-1.607-1.194c-0.528-0.54-0.876-1.065-1.044-1.578
			c-0.137,0.553-0.454,1.118-0.954,1.698s-1.059,1.026-1.674,1.338l-0.78-0.899c0.855-0.448,1.53-1.046,2.021-1.794
			c0.492-0.748,0.738-1.643,0.738-2.683v-0.048h-2.22v-0.972h5.676v0.972h-2.184v0.048c0,1.017,0.243,1.872,0.731,2.568
			S390.451,207.827,391.266,208.218z M386.323,202.098v-0.972h3.191v0.972H386.323z M393.426,211.207h-1.224v-10.692h1.224V211.207z
			"/>
		<path d="M403.722,207.054h-1.596v1.812h2.531v0.983h-9.659v-0.983h2.508v-1.812h-1.272v-3.456h5.952v-1.355h-5.976v-0.984h7.2
			v3.336h-5.94v1.464h6.252V207.054z M398.718,207.054v1.812h2.196v-1.812H398.718z"/>
		<path d="M408.845,209.754v-0.732l1.729-1.8c0.688-0.728,1.191-1.326,1.512-1.794c0.319-0.468,0.479-0.946,0.479-1.434
			c0-0.512-0.134-0.887-0.401-1.122c-0.269-0.236-0.674-0.354-1.218-0.354c-0.553,0-1.133,0.2-1.74,0.601l-0.252-0.948
			c0.728-0.448,1.487-0.672,2.279-0.672c0.856,0,1.511,0.206,1.963,0.618c0.451,0.412,0.678,0.989,0.678,1.733
			c0,0.345-0.057,0.677-0.168,0.996c-0.112,0.32-0.294,0.656-0.546,1.008c-0.252,0.353-0.477,0.639-0.672,0.858
			c-0.196,0.22-0.482,0.53-0.858,0.93l-1.104,1.104h3.456v1.008H408.845z"/>
		<path d="M420.366,211.194h-1.225v-3.804h-4.199v-0.983h9.659v0.983h-4.235V211.194z M423.702,201.942h-3.252
			c0.104,0.624,0.532,1.169,1.284,1.633s1.556,0.739,2.412,0.827l-0.553,0.973c-0.752-0.112-1.508-0.386-2.268-0.822
			c-0.761-0.436-1.276-0.897-1.548-1.386c-0.257,0.512-0.756,0.986-1.5,1.422c-0.744,0.437-1.517,0.714-2.316,0.834l-0.588-0.972
			c0.88-0.088,1.7-0.37,2.46-0.847c0.76-0.476,1.192-1.029,1.296-1.662h-3.3v-0.995h7.872V201.942z"/>
		<path d="M430.746,211.207h-1.225v-2.772h-4.199v-0.983h9.659v0.983h-4.235V211.207z M434.429,203.119h-8.532v-0.948h8.532V203.119
			z M433.517,205.218c0,0.504-0.306,0.91-0.918,1.218c-0.611,0.309-1.422,0.462-2.43,0.462c-1.016,0-1.826-0.153-2.43-0.462
			c-0.604-0.308-0.906-0.714-0.906-1.218c0-0.52,0.302-0.934,0.906-1.242c0.604-0.308,1.414-0.462,2.43-0.462
			s1.828,0.154,2.436,0.462C433.213,204.285,433.517,204.699,433.517,205.218z M432.246,205.218c0-0.24-0.198-0.424-0.594-0.552
			c-0.396-0.128-0.891-0.192-1.482-0.192s-1.086,0.064-1.482,0.192c-0.396,0.128-0.594,0.312-0.594,0.552
			c0,0.232,0.2,0.41,0.601,0.534c0.399,0.124,0.892,0.186,1.476,0.186s1.076-0.062,1.476-0.186
			C432.045,205.628,432.246,205.451,432.246,205.218z M428.286,201.57v-0.983h3.731v0.983H428.286z"/>
	</g>
	<g>
		<path d="M355.542,223.759l0.108,0.948c-0.576,0.112-1.477,0.204-2.7,0.276c-1.192,0.056-2.068,0.084-2.628,0.084l-0.168-1.032
			c0.56,0,0.976-0.004,1.248-0.012l-0.265-4.176l1.176-0.133l0.181,4.272l0.684-0.036h0.181l0.228-4.224l1.188,0.12l-0.336,4.031
			C354.846,223.855,355.214,223.815,355.542,223.759z M355.338,219.14h-4.944v-0.996h4.944V219.14z M359.334,227.563h-1.176v-5.46
			h-0.984v4.943h-1.164v-9.96h1.164v3.984h0.984v-4.2h1.176V227.563z"/>
		<path d="M366.486,219.308h-5.771v-0.948h5.771V219.308z M366.234,221.287c0,0.504-0.235,0.904-0.708,1.2
			c-0.472,0.296-1.075,0.444-1.812,0.444c-0.72,0-1.316-0.15-1.788-0.45s-0.708-0.698-0.708-1.194c0-0.487,0.234-0.878,0.702-1.17
			s1.065-0.438,1.794-0.438c0.736,0,1.34,0.146,1.812,0.438C365.999,220.409,366.234,220.8,366.234,221.287z M362.178,217.808
			v-0.948h3.132v0.948H362.178z M365.046,221.287c0-0.216-0.13-0.39-0.39-0.521c-0.261-0.133-0.574-0.198-0.942-0.198
			s-0.68,0.065-0.937,0.198c-0.256,0.132-0.384,0.306-0.384,0.521c0,0.24,0.128,0.424,0.384,0.552
			c0.257,0.129,0.568,0.192,0.937,0.192c0.376,0,0.691-0.063,0.948-0.192C364.918,221.711,365.046,221.527,365.046,221.287z
			 M369.846,227.527h-7.296v-2.472h5.736v-0.648h-5.784v-0.948h7.008v2.484h-5.724v0.647h6.06V227.527z M369.499,222.883h-1.225
			v-0.827h-1.535v-1.009h1.535v-0.936h-1.535v-0.984h1.535v-2.256h1.225V222.883z"/>
		<path d="M380.742,221.972v0.983h-9.659v-0.983H380.742z M380.262,220.315l-0.54,0.972c-0.8-0.096-1.562-0.344-2.286-0.744
			c-0.724-0.399-1.229-0.855-1.518-1.368c-0.248,0.528-0.723,0.99-1.422,1.387c-0.7,0.396-1.49,0.642-2.37,0.737l-0.54-0.972
			c0.872-0.048,1.653-0.256,2.346-0.624s1.122-0.84,1.29-1.416h-3.168v-0.996h7.74v0.996h-3.145
			c0.185,0.561,0.637,1.026,1.356,1.398S379.478,220.268,380.262,220.315z M378.642,224.149c0.656,0.355,0.984,0.83,0.984,1.422
			s-0.328,1.065-0.984,1.422c-0.656,0.355-1.564,0.534-2.724,0.534c-1.168,0-2.078-0.176-2.73-0.528
			c-0.652-0.352-0.978-0.828-0.978-1.428c0-0.592,0.325-1.066,0.978-1.422c0.652-0.356,1.559-0.534,2.718-0.534
			C377.074,223.615,377.986,223.793,378.642,224.149z M378.354,225.571c0-0.296-0.218-0.53-0.654-0.702
			c-0.436-0.172-1.033-0.258-1.794-0.258c-0.752,0-1.346,0.086-1.781,0.258c-0.437,0.172-0.654,0.406-0.654,0.702
			c0,0.312,0.216,0.55,0.648,0.714c0.432,0.164,1.027,0.246,1.787,0.246c0.769,0,1.368-0.082,1.801-0.246
			C378.138,226.121,378.354,225.883,378.354,225.571z"/>
		<path d="M391.266,224.575l-0.66,0.912c-0.544-0.256-1.08-0.654-1.607-1.194c-0.528-0.54-0.876-1.065-1.044-1.578
			c-0.137,0.553-0.454,1.118-0.954,1.698s-1.059,1.026-1.674,1.338l-0.78-0.899c0.855-0.448,1.53-1.046,2.021-1.794
			c0.492-0.748,0.738-1.643,0.738-2.683v-0.048h-2.22v-0.972h5.676v0.972h-2.184v0.048c0,1.017,0.243,1.872,0.731,2.568
			S390.451,224.184,391.266,224.575z M386.323,218.455v-0.972h3.191v0.972H386.323z M393.426,227.563h-1.224v-10.692h1.224V227.563z
			"/>
		<path d="M403.722,223.411h-1.596v1.812h2.531v0.983h-9.659v-0.983h2.508v-1.812h-1.272v-3.456h5.952V218.6h-5.976v-0.984h7.2
			v3.336h-5.94v1.464h6.252V223.411z M398.718,223.411v1.812h2.196v-1.812H398.718z"/>
		<path d="M411.017,226.231c-0.96,0-1.72-0.192-2.279-0.576l0.228-0.924c0.216,0.136,0.502,0.252,0.858,0.348
			c0.355,0.096,0.686,0.145,0.989,0.145c0.608,0,1.072-0.126,1.393-0.378c0.319-0.253,0.479-0.614,0.479-1.087
			c0-0.903-0.604-1.363-1.812-1.38l-0.792-0.012v-0.948l0.708-0.012c0.504-0.008,0.901-0.126,1.193-0.354
			c0.292-0.229,0.438-0.547,0.438-0.954c0-0.816-0.504-1.225-1.512-1.225c-0.48,0-1.057,0.164-1.729,0.492l-0.156-0.948
			c0.257-0.159,0.593-0.294,1.009-0.401c0.415-0.108,0.812-0.162,1.188-0.162c0.752,0,1.352,0.178,1.8,0.534
			c0.448,0.355,0.672,0.854,0.672,1.493c0,0.929-0.5,1.564-1.5,1.908c1.192,0.232,1.788,0.904,1.788,2.017
			c0,0.735-0.268,1.324-0.804,1.764C412.641,226.012,411.921,226.231,411.017,226.231z"/>
		<path d="M420.389,227.551h-1.225v-3.804h-4.199v-0.983h9.659v0.983h-4.235V227.551z M423.725,218.299h-3.252
			c0.104,0.624,0.532,1.169,1.284,1.633s1.556,0.739,2.412,0.827l-0.553,0.973c-0.752-0.112-1.508-0.386-2.268-0.822
			c-0.761-0.436-1.276-0.897-1.548-1.386c-0.257,0.512-0.756,0.986-1.5,1.422c-0.744,0.437-1.517,0.714-2.316,0.834l-0.588-0.972
			c0.88-0.088,1.7-0.37,2.46-0.847c0.76-0.476,1.192-1.029,1.296-1.662h-3.3v-0.995h7.872V218.299z"/>
		<path d="M430.769,227.563h-1.225v-2.772h-4.199v-0.983h9.659v0.983h-4.235V227.563z M434.453,219.476h-8.532v-0.948h8.532V219.476
			z M433.541,221.575c0,0.504-0.306,0.91-0.918,1.218c-0.611,0.309-1.422,0.462-2.43,0.462c-1.016,0-1.826-0.153-2.43-0.462
			c-0.604-0.308-0.906-0.714-0.906-1.218c0-0.52,0.302-0.934,0.906-1.242c0.604-0.308,1.414-0.462,2.43-0.462
			s1.828,0.154,2.436,0.462C433.237,220.642,433.541,221.056,433.541,221.575z M432.269,221.575c0-0.24-0.198-0.424-0.594-0.552
			c-0.396-0.128-0.891-0.192-1.482-0.192s-1.086,0.064-1.482,0.192c-0.396,0.128-0.594,0.312-0.594,0.552
			c0,0.232,0.2,0.41,0.601,0.534c0.399,0.124,0.892,0.186,1.476,0.186s1.076-0.062,1.476-0.186
			C432.069,221.985,432.269,221.808,432.269,221.575z M428.309,217.927v-0.983h3.731v0.983H428.309z"/>
	</g>
	<g>
		<path d="M353.947,268.089h-1.236v-3.504h-2.388v-0.984h9.659v0.984h-2.424v3.504h-1.235v-3.504h-2.376V268.089z M359.046,262.497
			h-7.488v-2.928h5.952v-0.925h-5.964v-0.96h7.188v2.832h-5.952v1.021h6.264V262.497z"/>
		<path d="M366.006,258.417v6.888h-5.004v-6.888H366.006z M364.77,264.345v-4.968h-2.531v4.968H364.77z M369.006,257.385v4.176
			h1.644v1.021h-1.644v5.496h-1.236v-10.692H369.006z"/>
		<path d="M377.442,264.261l0.168,0.972c-1.096,0.225-2.688,0.345-4.775,0.36l-1.128,0.012v-7.26h4.896v0.973h-3.684v2.075h3.456
			v0.973h-3.456v2.22C374.911,264.585,376.418,264.477,377.442,264.261z M379.831,257.385v10.692h-1.236v-10.692H379.831z"/>
		<path d="M391.122,266.661h-9.659v-0.984h9.659V266.661z M390.87,262.365l-0.647,0.96c-0.824-0.216-1.62-0.603-2.388-1.158
			c-0.769-0.556-1.284-1.146-1.549-1.771c-0.239,0.641-0.746,1.236-1.518,1.788c-0.772,0.553-1.582,0.933-2.43,1.141l-0.601-1.008
			c0.601-0.097,1.196-0.305,1.788-0.624c0.592-0.32,1.096-0.746,1.512-1.278s0.624-1.09,0.624-1.674v-0.708h1.284v0.708
			c0,0.576,0.218,1.134,0.654,1.674c0.436,0.54,0.95,0.974,1.542,1.302S390.31,262.261,390.87,262.365z"/>
		<path d="M401.526,262.581l0.108,0.924c-1.729,0.232-3.972,0.364-6.732,0.396l-0.18-1.021h2.208v-2.244h1.212v2.196h0.024
			C399.55,262.785,400.67,262.701,401.526,262.581z M400.831,258.165c-0.017,1.784-0.12,3.044-0.312,3.78l-1.176-0.181
			c0.184-0.752,0.268-1.62,0.252-2.604h-4.128v-0.996H400.831z M403.722,267.801h-7.26v-3.132h1.235v2.148h6.024V267.801z
			 M404.922,261.657h-1.536v3.695h-1.224v-7.968h1.224v3.252h1.536V261.657z"/>
		<path d="M405.75,258.909v-1.008h5.615v1.008h-2.124c0.017,0.712,0.259,1.319,0.727,1.823c0.468,0.505,1.038,0.86,1.71,1.068
			l-0.685,0.96c-0.456-0.16-0.911-0.439-1.367-0.84s-0.797-0.828-1.021-1.284c-0.152,0.504-0.472,0.982-0.96,1.435
			s-1.016,0.785-1.584,1.002l-0.732-0.948c0.776-0.288,1.406-0.71,1.891-1.266c0.483-0.557,0.733-1.206,0.75-1.95H405.75z
			 M414.534,267.993h-7.308v-2.784h5.736v-0.84h-5.784v-0.996h7.008v2.748h-5.724v0.899h6.071V267.993z M414.174,262.821h-1.225
			v-2.16h-1.728v-1.008h1.728v-2.269h1.225V262.821z"/>
		<path d="M420.534,258.681c0.528,0.48,0.792,1.092,0.792,1.836s-0.262,1.345-0.786,1.801c-0.523,0.455-1.178,0.684-1.962,0.684
			c-0.76,0-1.401-0.229-1.926-0.69c-0.524-0.46-0.786-1.058-0.786-1.794c0-0.735,0.262-1.346,0.786-1.83
			c0.524-0.483,1.166-0.726,1.926-0.726C419.354,257.961,420.006,258.201,420.534,258.681z M419.688,261.603
			c0.284-0.292,0.426-0.657,0.426-1.098c0-0.439-0.138-0.804-0.414-1.092c-0.275-0.288-0.649-0.433-1.122-0.433
			c-0.439,0-0.802,0.148-1.086,0.444s-0.426,0.656-0.426,1.08c0,0.448,0.142,0.816,0.426,1.104c0.284,0.287,0.646,0.432,1.086,0.432
			C419.034,262.041,419.404,261.896,419.688,261.603z M424.578,267.945h-6.983v-4.021h6.983V267.945z M423.342,266.961v-2.064h-4.5
			v2.064H423.342z M424.566,263.396h-1.236v-1.199h-1.68l0.036-1.009h1.644v-1.439h-1.644l-0.036-1.008h1.68v-1.356h1.236V263.396z"
			/>
		<path d="M431.741,267.873c-0.64-0.608-1.162-1.338-1.565-2.19c-0.404-0.852-0.606-1.786-0.606-2.802v-0.204
			c0-1.016,0.202-1.944,0.606-2.784c0.403-0.84,0.926-1.571,1.565-2.195h1.044c-0.592,0.655-1.073,1.403-1.445,2.243
			c-0.372,0.841-0.559,1.717-0.559,2.629v0.323c0,0.896,0.188,1.788,0.564,2.677c0.376,0.888,0.855,1.655,1.439,2.304H431.741z"/>
		<path d="M439.913,265.089l-0.66,0.912c-0.544-0.256-1.08-0.654-1.607-1.194c-0.528-0.54-0.876-1.065-1.044-1.578
			c-0.137,0.553-0.454,1.118-0.954,1.698s-1.059,1.026-1.674,1.338l-0.78-0.899c0.855-0.448,1.53-1.046,2.021-1.794
			c0.492-0.748,0.738-1.643,0.738-2.683v-0.048h-2.22v-0.972h5.676v0.972h-2.184v0.048c0,1.017,0.243,1.872,0.731,2.568
			S439.097,264.697,439.913,265.089z M434.969,258.969v-0.972h3.191v0.972H434.969z M442.073,268.077h-1.224v-10.692h1.224V268.077z
			"/>
		<path d="M452.369,263.925h-1.596v1.812h2.531v0.983h-9.659v-0.983h2.508v-1.812h-1.272v-3.456h5.952v-1.355h-5.976v-0.984h7.2
			v3.336h-5.94v1.464h6.252V263.925z M447.365,263.925v1.812h2.196v-1.812H447.365z"/>
		<path d="M454.397,259.173v-1.008h5.628v1.008h-2.137v0.324c0,0.744,0.24,1.414,0.721,2.01c0.479,0.596,1.048,0.994,1.704,1.194
			l-0.685,0.983c-0.456-0.176-0.91-0.474-1.362-0.894c-0.451-0.42-0.79-0.874-1.014-1.362c-0.152,0.513-0.478,1.017-0.978,1.512
			c-0.5,0.497-1.022,0.845-1.566,1.045l-0.732-0.96c0.769-0.28,1.4-0.74,1.896-1.381c0.496-0.64,0.744-1.344,0.744-2.111v-0.36
			H454.397z M463.061,267.765h-7.213v-3.348h1.225v2.364h5.988V267.765z M462.821,265.148h-1.225v-3.863h-1.728v-1.032h1.728v-2.868
			h1.225V265.148z"/>
		<path d="M467.873,266.625v-0.732l1.729-1.8c0.688-0.728,1.191-1.326,1.512-1.794c0.319-0.468,0.479-0.946,0.479-1.434
			c0-0.512-0.134-0.887-0.401-1.122c-0.269-0.236-0.674-0.354-1.218-0.354c-0.553,0-1.133,0.2-1.74,0.601l-0.252-0.948
			c0.728-0.448,1.487-0.672,2.279-0.672c0.856,0,1.511,0.206,1.963,0.618c0.451,0.412,0.678,0.989,0.678,1.733
			c0,0.345-0.057,0.677-0.168,0.996c-0.112,0.32-0.294,0.656-0.546,1.008c-0.252,0.353-0.477,0.639-0.672,0.858
			c-0.196,0.22-0.482,0.53-0.858,0.93l-1.104,1.104h3.456v1.008H467.873z"/>
		<path d="M480.341,265.089l-0.648,0.912c-0.544-0.24-1.078-0.634-1.602-1.182c-0.524-0.548-0.87-1.078-1.038-1.591
			c-0.145,0.553-0.465,1.12-0.96,1.704c-0.496,0.584-1.053,1.028-1.668,1.332l-0.769-0.899c0.856-0.448,1.526-1.046,2.01-1.794
			c0.484-0.748,0.727-1.643,0.727-2.683v-0.048h-2.208v-0.972h5.664v0.972h-2.185v0.048c0,1.017,0.244,1.874,0.732,2.574
			C478.884,264.163,479.533,264.705,480.341,265.089z M475.409,258.969v-0.972h3.192v0.972H475.409z M482.273,257.385v4.26h1.608
			v1.032h-1.608v5.4h-1.236v-10.692H482.273z"/>
		<path d="M493.18,260.817c0,0.76-0.254,1.386-0.762,1.878c-0.509,0.491-1.171,0.737-1.986,0.737c-0.816,0-1.479-0.243-1.986-0.731
			s-0.762-1.116-0.762-1.884c0-0.761,0.254-1.389,0.762-1.885s1.17-0.744,1.986-0.744c0.815,0,1.478,0.246,1.986,0.738
			C492.926,259.419,493.18,260.049,493.18,260.817z M491.944,260.817c0-0.48-0.136-0.866-0.408-1.158
			c-0.271-0.292-0.64-0.438-1.104-0.438c-0.448,0-0.812,0.15-1.092,0.45c-0.28,0.3-0.42,0.683-0.42,1.146
			c0,0.447,0.14,0.821,0.42,1.121c0.279,0.301,0.644,0.45,1.092,0.45c0.456,0,0.822-0.149,1.098-0.45
			C491.806,261.639,491.944,261.265,491.944,260.817z M496.516,267.765h-7.248v-3.336h1.224v2.353h6.024V267.765z M493.396,262.545
			l0.024-0.996h1.655v-1.68h-1.655l-0.024-0.996h1.68v-1.488h1.225v7.752h-1.225v-2.592H493.396z"/>
		<path d="M506.26,257.997c0,1.88-0.12,3.4-0.36,4.56h1.644v0.996h-4.235v4.524h-1.225v-4.524h-4.199v-0.996h6.84
			c0.184-0.863,0.283-2.048,0.3-3.552h-5.916v-1.008H506.26z"/>
		<path d="M508.024,267.873c0.592-0.656,1.074-1.406,1.446-2.25s0.558-1.722,0.558-2.634v-0.324c0-0.888-0.188-1.776-0.564-2.664
			s-0.855-1.656-1.439-2.304h1.044c0.64,0.616,1.162,1.348,1.566,2.195c0.403,0.849,0.605,1.776,0.605,2.784v0.204
			c0,1.024-0.202,1.96-0.605,2.808c-0.404,0.849-0.927,1.576-1.566,2.185H508.024z"/>
	</g>
	<g>
		<path d="M353.947,297.906h-1.236v-3.504h-2.388v-0.984h9.659v0.984h-2.424v3.504h-1.235v-3.504h-2.376V297.906z M359.046,292.314
			h-7.488v-2.928h5.952v-0.925h-5.964v-0.96h7.188v2.832h-5.952v1.021h6.264V292.314z"/>
		<path d="M366.006,288.234v6.888h-5.004v-6.888H366.006z M364.77,294.162v-4.968h-2.531v4.968H364.77z M369.006,287.202v4.176
			h1.644v1.021h-1.644v5.496h-1.236v-10.692H369.006z"/>
		<path d="M377.442,294.078l0.168,0.972c-1.096,0.225-2.688,0.345-4.775,0.36l-1.128,0.012v-7.26h4.896v0.973h-3.684v2.075h3.456
			v0.973h-3.456v2.22C374.911,294.402,376.418,294.294,377.442,294.078z M379.831,287.202v10.692h-1.236v-10.692H379.831z"/>
		<path d="M391.122,296.479h-9.659v-0.984h9.659V296.479z M390.87,292.183l-0.647,0.96c-0.824-0.216-1.62-0.603-2.388-1.158
			c-0.769-0.556-1.284-1.146-1.549-1.771c-0.239,0.641-0.746,1.236-1.518,1.788c-0.772,0.553-1.582,0.933-2.43,1.141l-0.601-1.008
			c0.601-0.097,1.196-0.305,1.788-0.624c0.592-0.32,1.096-0.746,1.512-1.278s0.624-1.09,0.624-1.674v-0.708h1.284v0.708
			c0,0.576,0.218,1.134,0.654,1.674c0.436,0.54,0.95,0.974,1.542,1.302S390.31,292.078,390.87,292.183z"/>
		<path d="M401.526,292.398l0.108,0.924c-1.729,0.232-3.972,0.364-6.732,0.396l-0.18-1.021h2.208v-2.244h1.212v2.196h0.024
			C399.55,292.603,400.67,292.519,401.526,292.398z M400.831,287.982c-0.017,1.784-0.12,3.044-0.312,3.78l-1.176-0.181
			c0.184-0.752,0.268-1.62,0.252-2.604h-4.128v-0.996H400.831z M403.722,297.618h-7.26v-3.132h1.235v2.148h6.024V297.618z
			 M404.922,291.475h-1.536v3.695h-1.224v-7.968h1.224v3.252h1.536V291.475z"/>
		<path d="M405.75,288.727v-1.008h5.615v1.008h-2.124c0.017,0.712,0.259,1.319,0.727,1.823c0.468,0.505,1.038,0.86,1.71,1.068
			l-0.685,0.96c-0.456-0.16-0.911-0.439-1.367-0.84s-0.797-0.828-1.021-1.284c-0.152,0.504-0.472,0.982-0.96,1.435
			s-1.016,0.785-1.584,1.002l-0.732-0.948c0.776-0.288,1.406-0.71,1.891-1.266c0.483-0.557,0.733-1.206,0.75-1.95H405.75z
			 M414.534,297.811h-7.308v-2.784h5.736v-0.84h-5.784v-0.996h7.008v2.748h-5.724v0.899h6.071V297.811z M414.174,292.639h-1.225
			v-2.16h-1.728v-1.008h1.728v-2.269h1.225V292.639z"/>
		<path d="M420.534,288.498c0.528,0.48,0.792,1.092,0.792,1.836s-0.262,1.345-0.786,1.801c-0.523,0.455-1.178,0.684-1.962,0.684
			c-0.76,0-1.401-0.229-1.926-0.69c-0.524-0.46-0.786-1.058-0.786-1.794c0-0.735,0.262-1.346,0.786-1.83
			c0.524-0.483,1.166-0.726,1.926-0.726C419.354,287.778,420.006,288.019,420.534,288.498z M419.688,291.42
			c0.284-0.292,0.426-0.657,0.426-1.098c0-0.439-0.138-0.804-0.414-1.092c-0.275-0.288-0.649-0.433-1.122-0.433
			c-0.439,0-0.802,0.148-1.086,0.444s-0.426,0.656-0.426,1.08c0,0.448,0.142,0.816,0.426,1.104c0.284,0.287,0.646,0.432,1.086,0.432
			C419.034,291.858,419.404,291.713,419.688,291.42z M424.578,297.763h-6.983v-4.021h6.983V297.763z M423.342,296.778v-2.064h-4.5
			v2.064H423.342z M424.566,293.214h-1.236v-1.199h-1.68l0.036-1.009h1.644v-1.439h-1.644l-0.036-1.008h1.68v-1.356h1.236V293.214z"
			/>
		<path d="M431.741,297.69c-0.64-0.608-1.162-1.338-1.565-2.19c-0.404-0.852-0.606-1.786-0.606-2.802v-0.204
			c0-1.016,0.202-1.944,0.606-2.784c0.403-0.84,0.926-1.571,1.565-2.195h1.044c-0.592,0.655-1.073,1.403-1.445,2.243
			c-0.372,0.841-0.559,1.717-0.559,2.629v0.323c0,0.896,0.188,1.788,0.564,2.677c0.376,0.888,0.855,1.655,1.439,2.304H431.741z"/>
		<path d="M439.913,294.906l-0.66,0.912c-0.544-0.256-1.08-0.654-1.607-1.194c-0.528-0.54-0.876-1.065-1.044-1.578
			c-0.137,0.553-0.454,1.118-0.954,1.698s-1.059,1.026-1.674,1.338l-0.78-0.899c0.855-0.448,1.53-1.046,2.021-1.794
			c0.492-0.748,0.738-1.643,0.738-2.683v-0.048h-2.22v-0.972h5.676v0.972h-2.184v0.048c0,1.017,0.243,1.872,0.731,2.568
			S439.097,294.515,439.913,294.906z M434.969,288.786v-0.972h3.191v0.972H434.969z M442.073,297.895h-1.224v-10.692h1.224V297.895z
			"/>
		<path d="M452.369,293.742h-1.596v1.812h2.531v0.983h-9.659v-0.983h2.508v-1.812h-1.272v-3.456h5.952v-1.355h-5.976v-0.984h7.2
			v3.336h-5.94v1.464h6.252V293.742z M447.365,293.742v1.812h2.196v-1.812H447.365z"/>
		<path d="M454.397,288.99v-1.008h5.628v1.008h-2.137v0.324c0,0.744,0.24,1.414,0.721,2.01c0.479,0.596,1.048,0.994,1.704,1.194
			l-0.685,0.983c-0.456-0.176-0.91-0.474-1.362-0.894c-0.451-0.42-0.79-0.874-1.014-1.362c-0.152,0.513-0.478,1.017-0.978,1.512
			c-0.5,0.497-1.022,0.845-1.566,1.045l-0.732-0.96c0.769-0.28,1.4-0.74,1.896-1.381c0.496-0.64,0.744-1.344,0.744-2.111v-0.36
			H454.397z M463.061,297.582h-7.213v-3.348h1.225v2.364h5.988V297.582z M462.821,294.966h-1.225v-3.863h-1.728v-1.032h1.728v-2.868
			h1.225V294.966z"/>
		<path d="M469.145,296.49v-6.924l-1.44,0.312v-0.731l2.028-0.912h0.66v8.256H469.145z"/>
		<path d="M478.445,294.906l-0.648,0.912c-0.544-0.24-1.078-0.634-1.602-1.182c-0.524-0.548-0.87-1.078-1.038-1.591
			c-0.145,0.553-0.465,1.12-0.96,1.704c-0.496,0.584-1.053,1.028-1.668,1.332l-0.769-0.899c0.856-0.448,1.526-1.046,2.01-1.794
			c0.484-0.748,0.727-1.643,0.727-2.683v-0.048h-2.208v-0.972h5.664v0.972h-2.185v0.048c0,1.017,0.244,1.874,0.732,2.574
			C476.988,293.98,477.636,294.522,478.445,294.906z M473.512,288.786v-0.972h3.192v0.972H473.512z M480.376,287.202v4.26h1.608
			v1.032h-1.608v5.4h-1.236v-10.692H480.376z"/>
		<path d="M491.285,290.635c0,0.76-0.254,1.386-0.762,1.878c-0.509,0.491-1.171,0.737-1.986,0.737c-0.816,0-1.479-0.243-1.986-0.731
			s-0.762-1.116-0.762-1.884c0-0.761,0.254-1.389,0.762-1.885s1.17-0.744,1.986-0.744c0.815,0,1.478,0.246,1.986,0.738
			C491.031,289.236,491.285,289.866,491.285,290.635z M490.048,290.635c0-0.48-0.136-0.866-0.408-1.158
			c-0.271-0.292-0.64-0.438-1.104-0.438c-0.448,0-0.812,0.15-1.092,0.45c-0.28,0.3-0.42,0.683-0.42,1.146
			c0,0.447,0.14,0.821,0.42,1.121c0.279,0.301,0.644,0.45,1.092,0.45c0.456,0,0.822-0.149,1.098-0.45
			C489.911,291.456,490.048,291.082,490.048,290.635z M494.621,297.582h-7.248v-3.336h1.224v2.353h6.024V297.582z M491.5,292.362
			l0.024-0.996h1.655v-1.68h-1.655l-0.024-0.996h1.68v-1.488h1.225v7.752h-1.225v-2.592H491.5z"/>
		<path d="M504.365,287.814c0,1.88-0.12,3.4-0.36,4.56h1.644v0.996h-4.235v4.524h-1.225v-4.524h-4.199v-0.996h6.84
			c0.184-0.863,0.283-2.048,0.3-3.552h-5.916v-1.008H504.365z"/>
		<path d="M506.128,297.69c0.592-0.656,1.074-1.406,1.446-2.25s0.558-1.722,0.558-2.634v-0.324c0-0.888-0.188-1.776-0.564-2.664
			s-0.855-1.656-1.439-2.304h1.044c0.64,0.616,1.162,1.348,1.566,2.195c0.403,0.849,0.605,1.776,0.605,2.784v0.204
			c0,1.024-0.202,1.96-0.605,2.808c-0.404,0.849-0.927,1.576-1.566,2.185H506.128z"/>
	</g>
	<g>
		<path d="M353.947,335.546h-1.236v-3.504h-2.388v-0.984h9.659v0.984h-2.424v3.504h-1.235v-3.504h-2.376V335.546z M359.046,329.954
			h-7.488v-2.928h5.952v-0.925h-5.964v-0.96h7.188v2.832h-5.952v1.021h6.264V329.954z"/>
		<path d="M366.006,325.874v6.888h-5.004v-6.888H366.006z M364.77,331.802v-4.968h-2.531v4.968H364.77z M369.006,324.842v4.176
			h1.644v1.021h-1.644v5.496h-1.236v-10.692H369.006z"/>
		<path d="M377.442,331.718l0.168,0.972c-1.096,0.225-2.688,0.345-4.775,0.36l-1.128,0.012v-7.26h4.896v0.973h-3.684v2.075h3.456
			v0.973h-3.456v2.22C374.911,332.042,376.418,331.934,377.442,331.718z M379.831,324.842v10.692h-1.236v-10.692H379.831z"/>
		<path d="M391.122,334.118h-9.659v-0.984h9.659V334.118z M390.87,329.822l-0.647,0.96c-0.824-0.216-1.62-0.603-2.388-1.158
			c-0.769-0.556-1.284-1.146-1.549-1.771c-0.239,0.641-0.746,1.236-1.518,1.788c-0.772,0.553-1.582,0.933-2.43,1.141l-0.601-1.008
			c0.601-0.097,1.196-0.305,1.788-0.624c0.592-0.32,1.096-0.746,1.512-1.278s0.624-1.09,0.624-1.674v-0.708h1.284v0.708
			c0,0.576,0.218,1.134,0.654,1.674c0.436,0.54,0.95,0.974,1.542,1.302S390.31,329.718,390.87,329.822z"/>
		<path d="M401.526,330.038l0.108,0.924c-1.729,0.232-3.972,0.364-6.732,0.396l-0.18-1.021h2.208v-2.244h1.212v2.196h0.024
			C399.55,330.242,400.67,330.158,401.526,330.038z M400.831,325.622c-0.017,1.784-0.12,3.044-0.312,3.78l-1.176-0.181
			c0.184-0.752,0.268-1.62,0.252-2.604h-4.128v-0.996H400.831z M403.722,335.258h-7.26v-3.132h1.235v2.148h6.024V335.258z
			 M404.922,329.114h-1.536v3.695h-1.224v-7.968h1.224v3.252h1.536V329.114z"/>
		<path d="M405.75,326.366v-1.008h5.615v1.008h-2.124c0.017,0.712,0.259,1.319,0.727,1.823c0.468,0.505,1.038,0.86,1.71,1.068
			l-0.685,0.96c-0.456-0.16-0.911-0.439-1.367-0.84s-0.797-0.828-1.021-1.284c-0.152,0.504-0.472,0.982-0.96,1.435
			s-1.016,0.785-1.584,1.002l-0.732-0.948c0.776-0.288,1.406-0.71,1.891-1.266c0.483-0.557,0.733-1.206,0.75-1.95H405.75z
			 M414.534,335.45h-7.308v-2.784h5.736v-0.84h-5.784v-0.996h7.008v2.748h-5.724v0.899h6.071V335.45z M414.174,330.278h-1.225v-2.16
			h-1.728v-1.008h1.728v-2.269h1.225V330.278z"/>
		<path d="M420.534,326.138c0.528,0.48,0.792,1.092,0.792,1.836s-0.262,1.345-0.786,1.801c-0.523,0.455-1.178,0.684-1.962,0.684
			c-0.76,0-1.401-0.229-1.926-0.69c-0.524-0.46-0.786-1.058-0.786-1.794c0-0.735,0.262-1.346,0.786-1.83
			c0.524-0.483,1.166-0.726,1.926-0.726C419.354,325.418,420.006,325.658,420.534,326.138z M419.688,329.06
			c0.284-0.292,0.426-0.657,0.426-1.098c0-0.439-0.138-0.804-0.414-1.092c-0.275-0.288-0.649-0.433-1.122-0.433
			c-0.439,0-0.802,0.148-1.086,0.444s-0.426,0.656-0.426,1.08c0,0.448,0.142,0.816,0.426,1.104c0.284,0.287,0.646,0.432,1.086,0.432
			C419.034,329.498,419.404,329.353,419.688,329.06z M424.578,335.402h-6.983v-4.021h6.983V335.402z M423.342,334.418v-2.064h-4.5
			v2.064H423.342z M424.566,330.854h-1.236v-1.199h-1.68l0.036-1.009h1.644v-1.439h-1.644l-0.036-1.008h1.68v-1.356h1.236V330.854z"
			/>
		<path d="M426.27,330.626v-1.021h3.576v1.021H426.27z"/>
		<path d="M434.07,326.366v-1.008h5.628v1.008h-2.136c0.048,0.695,0.304,1.29,0.768,1.781c0.464,0.492,1.024,0.839,1.68,1.038
			l-0.684,0.948c-0.448-0.168-0.902-0.452-1.362-0.852c-0.46-0.4-0.802-0.828-1.025-1.284c-0.152,0.496-0.475,0.974-0.967,1.434
			c-0.491,0.46-1.018,0.798-1.577,1.015l-0.721-0.948c0.752-0.28,1.368-0.692,1.849-1.236c0.479-0.544,0.739-1.176,0.779-1.896
			H434.07z M442.602,335.45h-7.236v-2.772h5.64v-0.852h-5.688v-0.996h6.924v2.76h-5.652v0.888h6.013V335.45z M443.814,328.094
			h-1.572v2.172h-1.236v-5.424h1.236v2.244h1.572V328.094z"/>
		<path d="M454,330.038l0.108,0.924c-1.729,0.232-3.972,0.364-6.732,0.396l-0.18-1.021h2.208v-2.244h1.212v2.196h0.024
			C452.025,330.242,453.145,330.158,454,330.038z M453.305,325.622c-0.017,1.784-0.12,3.044-0.312,3.78l-1.176-0.181
			c0.184-0.752,0.268-1.62,0.252-2.604h-4.128v-0.996H453.305z M456.197,335.258h-7.26v-3.132h1.235v2.148h6.024V335.258z
			 M457.397,329.114h-1.536v3.695h-1.224v-7.968h1.224v3.252h1.536V329.114z"/>
		<path d="M464.441,331.694l0.132,1.008c-1.152,0.208-2.748,0.32-4.788,0.336l-1.32,0.012v-4.32h3.624v-1.968h-3.672v-0.983h4.896
			v3.936h-3.624v2.316C461.689,332.03,463.273,331.918,464.441,331.694z M466.649,335.534h-1.225v-10.692h1.225V335.534z"/>
		<path d="M475.289,329.738l0.048,0.947c-1.888,0.232-4.216,0.36-6.983,0.385l-0.181-1.021c0.968,0,1.96-0.012,2.977-0.036v-1.092
			h-1.933v-3.516h4.992v0.983h-3.768v1.536h3.876v0.996h-1.933v1.044C473.529,329.926,474.497,329.85,475.289,329.738z
			 M477.088,335.402h-7.128v-3.624h7.128V335.402z M475.865,334.418v-1.668h-4.681v1.668H475.865z M477.088,324.842v6.42h-1.224
			v-6.42H477.088z"/>
	</g>
	<g>
		<path d="M355.89,345.789h-5.04v-7.068h1.236v2.604h2.556v-2.616h1.248V345.789z M354.642,344.793v-2.496h-2.556v2.496H354.642z
			 M359.119,348.537h-1.225v-10.692h1.225V348.537z"/>
		<path d="M366.006,343.688h-4.968v-4.991h4.968V343.688z M369.318,348.213h-7.151v-3.396h1.235v2.4h5.916V348.213z M364.77,342.717
			v-3.048h-2.496v3.048H364.77z M369.006,337.845v3.096h1.572v1.032h-1.572v3.624h-1.236v-7.752H369.006z"/>
		<path d="M370.758,348.333l2.855-10.176h1.057l-2.856,10.176H370.758z"/>
		<path d="M380.837,340.677c0,0.696-0.26,1.262-0.779,1.698c-0.521,0.436-1.177,0.654-1.969,0.654c-0.768,0-1.412-0.217-1.932-0.648
			c-0.521-0.432-0.78-1-0.78-1.704c0-0.712,0.258-1.298,0.774-1.758c0.516-0.46,1.162-0.69,1.938-0.69
			c0.792,0,1.448,0.229,1.969,0.685C380.578,339.369,380.837,339.957,380.837,340.677z M379.614,340.665
			c0-0.408-0.141-0.746-0.42-1.015c-0.28-0.268-0.648-0.401-1.104-0.401c-0.416,0-0.771,0.138-1.067,0.414
			c-0.296,0.275-0.444,0.61-0.444,1.002s0.144,0.714,0.432,0.966s0.648,0.378,1.08,0.378c0.448,0,0.814-0.13,1.099-0.39
			C379.471,341.359,379.614,341.041,379.614,340.665z M383.921,348.417h-7.224v-2.76h5.64v-0.816h-5.664v-0.984h6.9v2.713h-5.652
			v0.852h6V348.417z M385.133,341.097h-1.56v2.124h-1.236v-5.376h1.236v2.244h1.56V341.097z"/>
		<path d="M395.31,347.192h-9.659v-0.995h9.659V347.192z M394.939,343.641l-0.505,1.008c-0.832-0.144-1.632-0.445-2.399-0.905
			c-0.769-0.46-1.288-0.966-1.561-1.519c-0.271,0.553-0.784,1.055-1.535,1.506c-0.753,0.452-1.561,0.755-2.425,0.906l-0.516-0.96
			c0.888-0.096,1.722-0.392,2.502-0.888s1.23-1.061,1.35-1.692h-3.3v-0.983h7.86v0.983h-3.276c0.128,0.632,0.588,1.2,1.38,1.704
			S394.115,343.585,394.939,343.641z M388.71,339.261v-0.996h3.528v0.996H388.71z"/>
		<path d="M402.162,341.337h-6.216v-0.996h6.216V341.337z M401.622,344.133c0,0.648-0.236,1.19-0.708,1.626
			c-0.473,0.437-1.084,0.654-1.836,0.654c-0.761,0-1.378-0.214-1.854-0.643c-0.476-0.428-0.714-0.974-0.714-1.638
			c0-0.647,0.238-1.189,0.714-1.626c0.477-0.436,1.094-0.654,1.854-0.654c0.752,0,1.363,0.215,1.836,0.643
			C401.385,342.923,401.622,343.469,401.622,344.133z M397.458,339.477v-1.008h3.24v1.008H397.458z M400.049,345.051
			c0.24-0.235,0.36-0.542,0.36-0.918s-0.126-0.682-0.378-0.918s-0.57-0.354-0.954-0.354c-0.393,0-0.712,0.117-0.96,0.354
			s-0.372,0.542-0.372,0.918s0.124,0.683,0.372,0.918c0.248,0.236,0.567,0.354,0.96,0.354
			C399.486,345.405,399.809,345.287,400.049,345.051z M404.333,337.845v4.393h1.656v1.031h-1.656v5.269h-1.236v-10.692H404.333z"/>
		<path d="M407.455,345.141c-0.488-0.68-0.732-1.588-0.732-2.724s0.244-2.044,0.732-2.725c0.487-0.68,1.155-1.02,2.004-1.02
			c0.848,0,1.512,0.34,1.992,1.02c0.479,0.681,0.72,1.593,0.72,2.736c0,1.136-0.24,2.042-0.72,2.718
			c-0.48,0.677-1.145,1.015-1.992,1.015C408.61,346.161,407.942,345.821,407.455,345.141z M410.581,344.427
			c0.283-0.492,0.426-1.162,0.426-2.01s-0.143-1.516-0.426-2.004c-0.284-0.488-0.658-0.732-1.122-0.732
			c-0.456,0-0.824,0.244-1.104,0.732s-0.42,1.156-0.42,2.004s0.14,1.518,0.42,2.01s0.648,0.738,1.104,0.738
			C409.922,345.165,410.296,344.919,410.581,344.427z M415.207,348.537h-1.225v-10.692h1.225V348.537z"/>
		<path d="M422.069,338.877v6.804h-4.92v-6.804H422.069z M420.845,344.721v-4.884h-2.46v4.884H420.845z M425.585,348.537h-1.225
			v-5.845h-1.8v-1.031h1.8v-3.816h1.225V348.537z"/>
		<path d="M436.973,345.549l-0.66,0.912c-0.544-0.256-1.08-0.654-1.607-1.194c-0.528-0.54-0.876-1.065-1.044-1.578
			c-0.137,0.553-0.454,1.118-0.954,1.698s-1.059,1.026-1.674,1.338l-0.78-0.899c0.855-0.448,1.53-1.046,2.021-1.794
			c0.492-0.748,0.738-1.643,0.738-2.683v-0.048h-2.22v-0.972h5.676v0.972h-2.184v0.048c0,1.017,0.243,1.872,0.731,2.568
			S436.158,345.157,436.973,345.549z M432.03,339.429v-0.972h3.191v0.972H432.03z M439.133,348.537h-1.224v-10.692h1.224V348.537z"
			/>
		<path d="M449.429,344.385h-1.596v1.812h2.531v0.983h-9.659v-0.983h2.508v-1.812h-1.272v-3.456h5.952v-1.355h-5.976v-0.984h7.2
			v3.336h-5.94v1.464h6.252V344.385z M444.425,344.385v1.812h2.196v-1.812H444.425z"/>
	</g>
	<g>
		<path d="M358.831,360.744h-3.084v2.771h4.235v0.984h-9.659v-0.984h4.199v-2.771h-3v-4.729h1.225v3.732h6.084V360.744z"/>
		<path d="M365.736,356.7c0.509,0.487,0.763,1.116,0.763,1.884s-0.254,1.396-0.763,1.884c-0.508,0.488-1.166,0.732-1.974,0.732
			c-0.816,0-1.48-0.244-1.992-0.732c-0.512-0.487-0.768-1.111-0.768-1.872c0-0.768,0.256-1.397,0.768-1.89s1.176-0.738,1.992-0.738
			C364.57,355.968,365.228,356.212,365.736,356.7z M365.274,358.584c0-0.472-0.136-0.856-0.407-1.152
			c-0.272-0.296-0.641-0.443-1.104-0.443c-0.448,0-0.814,0.149-1.098,0.449c-0.284,0.301-0.426,0.683-0.426,1.146
			c0,0.448,0.142,0.822,0.426,1.122c0.283,0.3,0.649,0.45,1.098,0.45c0.456,0,0.822-0.15,1.098-0.45
			C365.136,359.406,365.274,359.032,365.274,358.584z M369.75,365.556h-7.32v-3.359h1.224v2.376h6.097V365.556z M369.499,362.928
			h-1.225v-7.752h1.225V362.928z"/>
		<path d="M378.198,362.147l0.097,0.984c-2.145,0.232-4.513,0.356-7.104,0.372l-0.191-1.056c1.416,0.016,2.6-0.004,3.552-0.061
			C375.99,362.332,377.207,362.252,378.198,362.147z M377.25,358.572c0,0.728-0.267,1.315-0.798,1.764
			c-0.532,0.448-1.198,0.672-1.998,0.672c-0.792,0-1.446-0.226-1.963-0.678c-0.516-0.452-0.773-1.038-0.773-1.758
			c0-0.736,0.262-1.347,0.786-1.83c0.523-0.484,1.174-0.727,1.95-0.727c0.8,0,1.466,0.24,1.998,0.721
			C376.984,357.216,377.25,357.828,377.25,358.572z M376.014,358.56c0-0.447-0.148-0.808-0.444-1.08
			c-0.296-0.271-0.668-0.407-1.115-0.407c-0.425,0-0.786,0.14-1.086,0.42c-0.301,0.28-0.45,0.636-0.45,1.067
			c0,0.416,0.149,0.755,0.45,1.015c0.3,0.26,0.661,0.39,1.086,0.39c0.432,0,0.8-0.13,1.104-0.39S376.014,358.976,376.014,358.56z
			 M380.022,355.176v10.692h-1.224v-10.692H380.022z"/>
		<path d="M390.39,358.188c0,0.736-0.256,1.324-0.768,1.765c-0.513,0.439-1.168,0.66-1.968,0.66c-0.793,0-1.446-0.221-1.963-0.66
			c-0.516-0.44-0.773-1.028-0.773-1.765c0-0.728,0.262-1.332,0.786-1.812c0.523-0.48,1.174-0.72,1.95-0.72
			c0.783,0,1.436,0.235,1.955,0.708C390.13,356.836,390.39,357.444,390.39,358.188z M389.167,358.164
			c0-0.456-0.143-0.818-0.426-1.086c-0.284-0.269-0.646-0.402-1.086-0.402c-0.433,0-0.791,0.137-1.074,0.408
			c-0.284,0.272-0.426,0.632-0.426,1.08c0,0.439,0.142,0.788,0.426,1.044c0.283,0.256,0.642,0.384,1.074,0.384
			c0.432,0,0.792-0.128,1.079-0.384C389.022,358.952,389.167,358.604,389.167,358.164z M393.426,365.736h-6.984v-4.261h1.236v1.116
			h4.524v-1.14h1.224V365.736z M392.203,364.74v-1.164h-4.524v1.164H392.203z M393.415,360.888h-1.225v-5.712h1.225V360.888z"/>
		<path d="M399.258,362.88h-1.236v-1.944c-0.888,0.04-1.88,0.068-2.976,0.084l-0.168-1.02c1.384,0,2.567-0.02,3.552-0.061
			c1.328-0.048,2.5-0.127,3.516-0.239l0.084,0.912c-0.896,0.104-1.819,0.188-2.771,0.252V362.88z M400.962,357.408
			c0,0.576-0.248,1.044-0.744,1.403c-0.496,0.36-1.132,0.54-1.908,0.54s-1.416-0.18-1.92-0.54c-0.504-0.359-0.756-0.836-0.756-1.428
			c0-0.567,0.254-1.038,0.762-1.41s1.146-0.558,1.914-0.558c0.776,0,1.412,0.186,1.908,0.558S400.962,356.824,400.962,357.408z
			 M404.13,365.592h-7.74v-3.144h1.224v2.16h6.517V365.592z M399.354,358.128c0.265-0.192,0.396-0.432,0.396-0.72
			s-0.132-0.534-0.396-0.738c-0.264-0.204-0.612-0.306-1.044-0.306s-0.782,0.102-1.05,0.306c-0.269,0.204-0.402,0.45-0.402,0.738
			c0,0.28,0.134,0.518,0.402,0.714c0.268,0.196,0.618,0.294,1.05,0.294S399.09,358.32,399.354,358.128z M400.626,362.28v-0.9h2.088
			v-6.204h1.224v8.244h-1.224v-1.14H400.626z"/>
		<path d="M407.826,365.664c-0.64-0.608-1.162-1.338-1.565-2.19c-0.404-0.852-0.606-1.786-0.606-2.802v-0.204
			c0-1.016,0.202-1.944,0.606-2.784c0.403-0.84,0.926-1.571,1.565-2.195h1.044c-0.592,0.655-1.073,1.403-1.445,2.243
			c-0.372,0.841-0.559,1.717-0.559,2.629v0.323c0,0.896,0.188,1.788,0.564,2.677c0.376,0.888,0.855,1.655,1.439,2.304H407.826z"/>
		<path d="M414.846,356.304c-0.089,3.336-1.685,5.856-4.788,7.561l-0.769-0.937c1.208-0.552,2.19-1.34,2.946-2.364
			c0.756-1.023,1.186-2.107,1.29-3.252h-3.612v-1.008H414.846z M419.238,360.372h-1.584v5.496h-1.236v-10.692h1.236v4.176h1.584
			V360.372z"/>
		<path d="M420.102,356.88v-1.02h5.628v1.02h-2.137v0.036c0,0.76,0.238,1.424,0.715,1.992c0.476,0.567,1.05,0.956,1.722,1.164
			l-0.685,0.972c-0.472-0.184-0.934-0.476-1.386-0.876s-0.786-0.836-1.002-1.308c-0.152,0.504-0.474,0.994-0.966,1.47
			s-1.014,0.818-1.566,1.025l-0.744-0.96c0.776-0.287,1.41-0.737,1.902-1.35s0.738-1.302,0.738-2.07v-0.096H420.102z
			 M428.622,363.768c0,0.641-0.322,1.15-0.966,1.53c-0.645,0.38-1.538,0.57-2.683,0.57c-1.136,0-2.023-0.19-2.663-0.57
			c-0.641-0.38-0.96-0.89-0.96-1.53c0-0.647,0.319-1.164,0.96-1.548c0.64-0.384,1.527-0.576,2.663-0.576
			c1.145,0,2.038,0.192,2.683,0.576C428.299,362.604,428.622,363.12,428.622,363.768z M424.973,362.652
			c-0.735,0-1.312,0.098-1.728,0.294c-0.416,0.195-0.624,0.47-0.624,0.821c0,0.345,0.208,0.614,0.624,0.811s0.992,0.294,1.728,0.294
			c0.752,0,1.339-0.096,1.759-0.288s0.63-0.464,0.63-0.816c0-0.352-0.208-0.626-0.624-0.821
			C426.322,362.75,425.734,362.652,424.973,362.652z M425.562,358.788v-1.021h1.739v-2.592h1.236v6.433h-1.236v-2.82H425.562z"/>
		<path d="M437.045,365.364h-1.164v-5.028h-1.067c-0.057,0.952-0.276,1.727-0.66,2.322c-0.385,0.596-0.924,0.894-1.62,0.894
			c-0.513,0-0.946-0.176-1.302-0.528c-0.356-0.352-0.612-0.802-0.769-1.35s-0.233-1.174-0.233-1.878c0-1.08,0.193-1.972,0.581-2.676
			c0.389-0.704,0.962-1.057,1.723-1.057c0.696,0,1.237,0.303,1.626,0.906c0.388,0.604,0.605,1.386,0.654,2.347h1.067v-3.937h1.164
			V365.364z M433.385,361.746c0.192-0.484,0.288-1.13,0.288-1.938c0-0.808-0.096-1.458-0.288-1.949
			c-0.191-0.492-0.472-0.738-0.84-0.738s-0.647,0.246-0.84,0.738c-0.192,0.491-0.288,1.142-0.288,1.949
			c0,0.801,0.096,1.444,0.288,1.933c0.192,0.487,0.472,0.731,0.84,0.731S433.194,362.23,433.385,361.746z M439.122,365.868h-1.176
			v-10.692h1.176V365.868z"/>
		<path d="M446.994,362.52l-0.744,0.912c-0.48-0.304-0.971-0.76-1.47-1.368c-0.5-0.607-0.843-1.191-1.026-1.752
			c-0.185,0.633-0.519,1.255-1.002,1.866c-0.484,0.612-1.014,1.095-1.59,1.446l-0.769-0.888c0.84-0.553,1.5-1.252,1.98-2.101
			c0.479-0.848,0.72-1.775,0.72-2.784v-1.764h1.26v1.692c0,1,0.238,1.914,0.715,2.741
			C445.543,361.35,446.185,362.016,446.994,362.52z M449.297,365.868h-1.224v-5.977h-2.088v-1.031h2.088v-3.685h1.224V365.868z"/>
		<path d="M460.541,362.472l-0.732,0.924c-0.479-0.312-0.96-0.762-1.439-1.35c-0.48-0.588-0.816-1.166-1.008-1.734
			c-0.177,0.633-0.507,1.255-0.99,1.866c-0.484,0.612-1.022,1.099-1.614,1.458L454,362.736c0.84-0.553,1.502-1.255,1.986-2.106
			c0.483-0.852,0.726-1.778,0.726-2.778V356.1h1.272v1.681c0,1.008,0.226,1.916,0.678,2.724
			C459.115,361.312,459.741,361.968,460.541,362.472z M462.833,365.868h-1.224v-10.692h1.224V365.868z"/>
		<path d="M470.716,359.532l-0.684,0.924c-0.48-0.192-0.954-0.488-1.422-0.888c-0.469-0.4-0.814-0.845-1.038-1.332
			c-0.152,0.536-0.467,1.027-0.942,1.476s-1.002,0.788-1.578,1.02l-0.731-0.924c0.783-0.288,1.413-0.731,1.89-1.332
			c0.476-0.6,0.714-1.3,0.714-2.1v-0.853h1.272v0.805c0,0.775,0.254,1.452,0.762,2.027
			C469.466,358.932,470.052,359.324,470.716,359.532z M473.56,365.784h-7.332v-2.772h5.761v-0.84h-5.796v-0.996h7.02v2.748h-5.748
			v0.888h6.096V365.784z M473.201,360.612h-1.225v-2.448h-1.956v-1.032h1.956v-1.956h1.225V360.612z"/>
		<path d="M483.508,361.74h-3.3v1.788h4.235v0.983h-9.659v-0.983h4.199v-1.788h-2.964v-3.456h5.952v-1.38h-5.988v-0.984h7.213v3.36
			h-5.94v1.464h6.252V361.74z"/>
		<path d="M484.924,365.664c0.592-0.656,1.074-1.406,1.446-2.25s0.558-1.722,0.558-2.634v-0.324c0-0.888-0.188-1.776-0.564-2.664
			s-0.855-1.656-1.439-2.304h1.044c0.64,0.616,1.162,1.348,1.566,2.195c0.403,0.849,0.605,1.776,0.605,2.784v0.204
			c0,1.024-0.202,1.96-0.605,2.808c-0.404,0.849-0.927,1.576-1.566,2.185H484.924z"/>
	</g>
	<g>
		<line fill="#D9D9D9" x1="34.788" y1="400.125" x2="343.623" y2="400.125"/>
		<g>
			
				<line fill="none" stroke="#000000" stroke-width="0.4895" stroke-miterlimit="10" x1="34.788" y1="400.125" x2="36.256" y2="400.125"/>
			
				<line fill="none" stroke="#000000" stroke-width="0.4895" stroke-miterlimit="10" stroke-dasharray="2.9133,2.9133" x1="39.17" y1="400.125" x2="340.698" y2="400.125"/>
			
				<line fill="none" stroke="#000000" stroke-width="0.4895" stroke-miterlimit="10" x1="342.154" y1="400.125" x2="343.623" y2="400.125"/>
		</g>
	</g>
	<g>
		<line fill="#D9D9D9" x1="34.788" y1="371.018" x2="343.623" y2="371.018"/>
		<g>
			
				<line fill="none" stroke="#000000" stroke-width="0.4895" stroke-miterlimit="10" x1="34.788" y1="371.018" x2="36.256" y2="371.018"/>
			
				<line fill="none" stroke="#000000" stroke-width="0.4895" stroke-miterlimit="10" stroke-dasharray="2.9133,2.9133" x1="39.17" y1="371.018" x2="340.698" y2="371.018"/>
			
				<line fill="none" stroke="#000000" stroke-width="0.4895" stroke-miterlimit="10" x1="342.154" y1="371.018" x2="343.623" y2="371.018"/>
		</g>
	</g>
	<g>
		<line fill="#D9D9D9" x1="34.788" y1="359.721" x2="343.623" y2="359.721"/>
		<g>
			
				<line fill="none" stroke="#000000" stroke-width="0.4895" stroke-miterlimit="10" x1="34.788" y1="359.721" x2="36.256" y2="359.721"/>
			
				<line fill="none" stroke="#000000" stroke-width="0.4895" stroke-miterlimit="10" stroke-dasharray="2.9133,2.9133" x1="39.17" y1="359.721" x2="340.698" y2="359.721"/>
			
				<line fill="none" stroke="#000000" stroke-width="0.4895" stroke-miterlimit="10" x1="342.154" y1="359.721" x2="343.623" y2="359.721"/>
		</g>
	</g>
	<g>
		<line fill="#D9D9D9" x1="34.788" y1="339.894" x2="343.623" y2="339.894"/>
		<g>
			
				<line fill="none" stroke="#000000" stroke-width="0.4895" stroke-miterlimit="10" x1="34.788" y1="339.894" x2="36.256" y2="339.894"/>
			
				<line fill="none" stroke="#000000" stroke-width="0.4895" stroke-miterlimit="10" stroke-dasharray="2.9133,2.9133" x1="39.17" y1="339.894" x2="340.698" y2="339.894"/>
			
				<line fill="none" stroke="#000000" stroke-width="0.4895" stroke-miterlimit="10" x1="342.154" y1="339.894" x2="343.623" y2="339.894"/>
		</g>
	</g>
	<g>
		<line fill="#D9D9D9" x1="34.788" y1="329.52" x2="343.623" y2="329.52"/>
		<g>
			
				<line fill="none" stroke="#000000" stroke-width="0.4895" stroke-miterlimit="10" x1="34.788" y1="329.52" x2="36.256" y2="329.52"/>
			
				<line fill="none" stroke="#000000" stroke-width="0.4895" stroke-miterlimit="10" stroke-dasharray="2.9133,2.9133" x1="39.17" y1="329.52" x2="340.698" y2="329.52"/>
			
				<line fill="none" stroke="#000000" stroke-width="0.4895" stroke-miterlimit="10" x1="342.154" y1="329.52" x2="343.623" y2="329.52"/>
		</g>
	</g>
	<g>
		<line fill="#D9D9D9" x1="34.788" y1="292.466" x2="343.623" y2="292.466"/>
		<g>
			
				<line fill="none" stroke="#000000" stroke-width="0.4895" stroke-miterlimit="10" x1="34.788" y1="292.466" x2="36.256" y2="292.466"/>
			
				<line fill="none" stroke="#000000" stroke-width="0.4895" stroke-miterlimit="10" stroke-dasharray="2.9133,2.9133" x1="39.17" y1="292.466" x2="340.698" y2="292.466"/>
			
				<line fill="none" stroke="#000000" stroke-width="0.4895" stroke-miterlimit="10" x1="342.154" y1="292.466" x2="343.623" y2="292.466"/>
		</g>
	</g>
	<g>
		<line fill="#D9D9D9" x1="34.788" y1="261.706" x2="343.623" y2="261.706"/>
		<g>
			
				<line fill="none" stroke="#000000" stroke-width="0.4895" stroke-miterlimit="10" x1="34.788" y1="261.706" x2="36.256" y2="261.706"/>
			
				<line fill="none" stroke="#000000" stroke-width="0.4895" stroke-miterlimit="10" stroke-dasharray="2.9133,2.9133" x1="39.17" y1="261.706" x2="340.698" y2="261.706"/>
			
				<line fill="none" stroke="#000000" stroke-width="0.4895" stroke-miterlimit="10" x1="342.154" y1="261.706" x2="343.623" y2="261.706"/>
		</g>
	</g>
	<g>
		<line fill="#D9D9D9" x1="34.788" y1="222.43" x2="343.623" y2="222.43"/>
		<g>
			
				<line fill="none" stroke="#000000" stroke-width="0.4895" stroke-miterlimit="10" x1="34.788" y1="222.43" x2="36.256" y2="222.43"/>
			
				<line fill="none" stroke="#000000" stroke-width="0.4895" stroke-miterlimit="10" stroke-dasharray="2.9133,2.9133" x1="39.17" y1="222.43" x2="340.698" y2="222.43"/>
			
				<line fill="none" stroke="#000000" stroke-width="0.4895" stroke-miterlimit="10" x1="342.154" y1="222.43" x2="343.623" y2="222.43"/>
		</g>
	</g>
	<g>
		<line fill="#D9D9D9" x1="34.788" y1="205.816" x2="343.623" y2="205.816"/>
		<g>
			
				<line fill="none" stroke="#000000" stroke-width="0.4895" stroke-miterlimit="10" x1="34.788" y1="205.816" x2="36.256" y2="205.816"/>
			
				<line fill="none" stroke="#000000" stroke-width="0.4895" stroke-miterlimit="10" stroke-dasharray="2.9133,2.9133" x1="39.17" y1="205.816" x2="340.698" y2="205.816"/>
			
				<line fill="none" stroke="#000000" stroke-width="0.4895" stroke-miterlimit="10" x1="342.154" y1="205.816" x2="343.623" y2="205.816"/>
		</g>
	</g>
	<g>
		<line fill="#D9D9D9" x1="34.788" y1="134.494" x2="343.623" y2="134.494"/>
		<g>
			
				<line fill="none" stroke="#000000" stroke-width="0.4895" stroke-miterlimit="10" x1="34.788" y1="134.494" x2="36.256" y2="134.494"/>
			
				<line fill="none" stroke="#000000" stroke-width="0.4895" stroke-miterlimit="10" stroke-dasharray="2.9133,2.9133" x1="39.17" y1="134.494" x2="340.698" y2="134.494"/>
			
				<line fill="none" stroke="#000000" stroke-width="0.4895" stroke-miterlimit="10" x1="342.154" y1="134.494" x2="343.623" y2="134.494"/>
		</g>
	</g>
	<g>
		<line fill="#D9D9D9" x1="34.788" y1="13.709" x2="343.623" y2="13.709"/>
		<g>
			
				<line fill="none" stroke="#000000" stroke-width="0.4895" stroke-miterlimit="10" x1="34.788" y1="13.709" x2="36.256" y2="13.709"/>
			
				<line fill="none" stroke="#000000" stroke-width="0.4895" stroke-miterlimit="10" stroke-dasharray="2.9133,2.9133" x1="39.17" y1="13.709" x2="340.698" y2="13.709"/>
			
				<line fill="none" stroke="#000000" stroke-width="0.4895" stroke-miterlimit="10" x1="342.154" y1="13.709" x2="343.623" y2="13.709"/>
		</g>
	</g>
</g>
<line fill="none" stroke="#000000" stroke-miterlimit="10" x1="27.603" y1="478.765" x2="27.603" y2="1.579"/>
<line fill="none" stroke="#000000" stroke-miterlimit="10" x1="347.137" y1="478.765" x2="27.362" y2="478.765"/>
<g>
	<path d="M6.948,271.176v1.608H6.012v1.332H4.764v-1.332h-0.66v1.296H2.88v-1.296H0.816v-1.608H6.948z M1.992,278.448h-1.08v-2.868
		h1.08V278.448z M3.552,274.38v5.568H2.4v-5.568H3.552z M5.448,274.548c0.472,0,0.874,0.236,1.206,0.708
		c0.332,0.473,0.498,1.072,0.498,1.801c0,0.719-0.166,1.317-0.498,1.793c-0.332,0.477-0.734,0.715-1.206,0.715
		c-0.48,0-0.884-0.236-1.212-0.709c-0.328-0.471-0.492-1.071-0.492-1.799c0-0.729,0.164-1.328,0.492-1.801
		C4.564,274.784,4.968,274.548,5.448,274.548z M5.448,277.992c0.168,0,0.31-0.086,0.426-0.258c0.116-0.172,0.174-0.398,0.174-0.678
		c0-0.272-0.058-0.5-0.174-0.685c-0.116-0.185-0.258-0.276-0.426-0.276c-0.176,0-0.324,0.092-0.444,0.276
		c-0.12,0.185-0.18,0.412-0.18,0.685c0,0.279,0.06,0.506,0.18,0.678C5.124,277.906,5.272,277.992,5.448,277.992z M11.532,270.96
		v7.584H8.94v-5.784H8.544v5.797H7.392v-7.381h2.556v5.76h0.408v-5.976H11.532z"/>
	<path d="M4.2,260.46l1.236,0.636c-0.04,0.729-0.238,1.457-0.594,2.185s-0.802,1.252-1.338,1.571
		c0.552,0.265,1.002,0.759,1.35,1.482c0.348,0.725,0.542,1.49,0.582,2.299l-1.212,0.623c-0.032-0.808-0.208-1.521-0.528-2.142
		c-0.32-0.62-0.708-1.03-1.164-1.229v2.855H1.284v-7.859h1.248v2.951c0.448-0.232,0.834-0.682,1.158-1.35
		C4.014,261.814,4.184,261.141,4.2,260.46z M5.82,260.016h1.248v9.66H5.82V260.016z M9.468,261c0.592,0,1.066,0.342,1.422,1.026
		c0.356,0.684,0.534,1.622,0.534,2.813c0,1.2-0.178,2.143-0.534,2.826s-0.83,1.025-1.422,1.025c-0.608,0-1.088-0.337-1.44-1.014
		c-0.352-0.676-0.528-1.613-0.528-2.813c0-1.208,0.176-2.154,0.528-2.838C8.38,261.342,8.86,261,9.468,261z M9.492,262.645
		c-0.224,0-0.408,0.203-0.552,0.611s-0.216,0.944-0.216,1.608c0,0.647,0.072,1.176,0.216,1.584c0.144,0.407,0.328,0.612,0.552,0.612
		c0.2,0,0.372-0.206,0.516-0.619c0.144-0.411,0.216-0.938,0.216-1.577c0-0.647-0.072-1.181-0.216-1.597
		C9.864,262.852,9.692,262.645,9.492,262.645z"/>
	<path d="M10.068,255.625H1.836v-1.717h8.232V255.625z"/>
	<path d="M10.068,252.181H1.836v-1.704H8.76v-3.385h1.308V252.181z"/>
	<path d="M7.368,246.181H6.096v-3.42h1.272V246.181z"/>
	<path d="M10.212,238.561c0,1.016-0.324,1.793-0.972,2.328c-0.648,0.536-1.544,0.805-2.688,0.805H5.988
		c-0.768,0-1.436-0.099-2.004-0.295c-0.568-0.195-1.012-0.468-1.332-0.816c-0.32-0.348-0.556-0.737-0.708-1.17
		c-0.152-0.432-0.228-0.907-0.228-1.428c0-0.752,0.152-1.396,0.456-1.932l1.248,0.288c-0.24,0.479-0.36,1.008-0.36,1.584
		c0,0.616,0.188,1.104,0.564,1.464s1.02,0.568,1.932,0.624c-0.448-0.544-0.672-1.176-0.672-1.896c0-0.736,0.218-1.328,0.654-1.776
		s1.038-0.672,1.806-0.672c0.832,0,1.518,0.252,2.058,0.756S10.212,237.641,10.212,238.561z M8.988,238.597
		c0-0.408-0.132-0.729-0.396-0.966c-0.264-0.236-0.636-0.354-1.116-0.354c-0.488,0-0.846,0.123-1.074,0.371s-0.342,0.58-0.342,0.996
		c0,0.248,0.072,0.5,0.216,0.756s0.308,0.457,0.492,0.6H6.84C8.272,240,8.988,239.533,8.988,238.597z"/>
	<path d="M4.644,223.177v2.856h1.032v-4.032h1.248v9.66H5.676v-4.056H4.644v2.76h-3.6v-1.608h2.364v-5.58H4.644z M9.42,223.105
		c0.616,0,1.112,0.334,1.488,1.002s0.564,1.574,0.564,2.718c0,1.159-0.186,2.071-0.558,2.735s-0.87,0.996-1.494,0.996
		c-0.632,0-1.134-0.328-1.506-0.984c-0.372-0.655-0.558-1.562-0.558-2.723s0.186-2.074,0.558-2.742S8.788,223.105,9.42,223.105z
		 M9.444,224.736c-0.248,0-0.448,0.193-0.6,0.576c-0.152,0.385-0.228,0.896-0.228,1.537c0,0.623,0.076,1.125,0.228,1.506
		c0.152,0.379,0.352,0.569,0.6,0.569c0.224,0,0.41-0.192,0.558-0.575c0.148-0.385,0.222-0.885,0.222-1.5
		c0-0.633-0.074-1.143-0.222-1.531C9.854,224.932,9.668,224.736,9.444,224.736z"/>
	<path d="M6.672,212.785v2.88H8.94v-4.044h1.248v9.66H8.94v-4.044H6.672v2.808H1.548v-7.2H2.82v5.604h2.604v-5.664H6.672z"/>
	<path d="M11.316,205.321c-0.6,0.656-1.322,1.196-2.166,1.62c-0.844,0.424-1.786,0.636-2.826,0.636H6.096
		c-1.032,0-1.968-0.212-2.808-0.636s-1.56-0.964-2.16-1.62v-1.319c0.648,0.575,1.392,1.044,2.232,1.403
		c0.84,0.36,1.72,0.54,2.64,0.54h0.348c0.92,0,1.816-0.18,2.688-0.54c0.872-0.359,1.632-0.828,2.28-1.403V205.321z"/>
	<path d="M11.832,203.186h-7.98v-1.512h0.54v-0.06c-0.44-0.425-0.66-1.021-0.66-1.788c0-0.712,0.24-1.294,0.72-1.746
		s1.252-0.679,2.316-0.679H6.9c2.184,0,3.276,0.94,3.276,2.82c0,0.561-0.108,1.024-0.324,1.393h1.98V203.186z M9.024,200.462
		c0-0.48-0.144-0.84-0.432-1.08c-0.288-0.24-0.784-0.36-1.488-0.36H6.876c-0.704,0-1.192,0.112-1.464,0.336
		c-0.272,0.225-0.408,0.572-0.408,1.044c0,0.497,0.108,0.9,0.324,1.213h3.384C8.92,201.326,9.024,200.941,9.024,200.462z"/>
	<path d="M11.844,193.97c0,1.952-0.476,2.928-1.428,2.928c-0.568,0-0.976-0.388-1.224-1.164h-0.06
		c-0.176,0.433-0.459,0.648-0.852,0.648c-0.216,0-0.388-0.052-0.516-0.156c-0.128-0.104-0.3-0.296-0.516-0.576
		c-0.312,0.528-0.804,0.792-1.476,0.792H5.688c-0.64,0-1.124-0.226-1.452-0.678c-0.328-0.452-0.492-1.069-0.492-1.854
		c0-0.368,0.036-0.708,0.108-1.021v-2.124h0.972v0.937c0.232-0.2,0.504-0.3,0.816-0.3h0.096c0.64,0,1.116,0.226,1.428,0.678
		s0.468,1.062,0.468,1.83c0,0.392-0.036,0.712-0.108,0.96c0.104,0.12,0.2,0.18,0.288,0.18c0.144,0,0.232-0.034,0.264-0.102
		c0.032-0.068,0.048-0.206,0.048-0.414v-1.729c0-1.368,0.544-2.052,1.632-2.052c0.648,0,1.158,0.269,1.53,0.804
		C11.658,192.094,11.844,192.897,11.844,193.97z M6.672,193.91c0-0.664-0.304-0.996-0.912-0.996H5.628
		c-0.336,0-0.57,0.084-0.702,0.252c-0.132,0.168-0.198,0.416-0.198,0.744c0,0.68,0.292,1.02,0.876,1.02h0.144
		C6.364,194.93,6.672,194.59,6.672,193.91z M10.788,193.994c0-0.592-0.062-1.013-0.186-1.261c-0.124-0.247-0.318-0.371-0.582-0.371
		c-0.224,0-0.37,0.062-0.438,0.186s-0.102,0.366-0.102,0.726v1.524c0.128,0.376,0.36,0.564,0.696,0.564
		c0.224,0,0.382-0.103,0.474-0.307S10.788,194.498,10.788,193.994z"/>
	<path d="M11.316,190.646l-10.188-2.893v-1.38l10.188,2.893V190.646z"/>
	<path d="M10.068,185.497H3.852v-1.512h0.576v-0.06c-0.464-0.608-0.696-1.24-0.696-1.896c0-0.712,0.232-1.212,0.696-1.5v-0.06
		c-0.464-0.673-0.696-1.353-0.696-2.04c0-1.145,0.564-1.717,1.692-1.717h4.644v1.572H5.82c-0.288,0-0.496,0.066-0.624,0.198
		s-0.192,0.358-0.192,0.678c0,0.248,0.108,0.636,0.324,1.164c0.056-0.008,0.136-0.012,0.24-0.012h4.5v1.584H5.82
		c-0.288,0-0.496,0.065-0.624,0.198c-0.128,0.132-0.192,0.357-0.192,0.678c0,0.216,0.104,0.6,0.312,1.152h4.752V185.497z"/>
	<path d="M10.068,175.226H1.836v-1.704H8.76v-3.384h1.308V175.226z"/>
	<path d="M11.316,169.718c-0.648-0.584-1.394-1.061-2.238-1.429c-0.844-0.367-1.722-0.552-2.634-0.552h-0.36
		c-0.912,0-1.804,0.187-2.676,0.559c-0.872,0.371-1.632,0.846-2.28,1.422v-1.332c0.6-0.648,1.322-1.183,2.166-1.603
		c0.844-0.42,1.782-0.63,2.814-0.63h0.228c1.032,0,1.97,0.21,2.814,0.63c0.844,0.42,1.566,0.954,2.166,1.603V169.718z"/>
</g>
<g>
</g>
<g>
</g>
<g>
</g>
<g>
</g>
<g>
</g>
<g>
</g>
</svg>
