<?xml version="1.0" encoding="utf-8"?>
<!-- Generator: Adobe Illustrator 28.0.0, SVG Export Plug-In . SVG Version: 6.00 Build 0)  -->
<svg version="1.1" id="레이어_1" xmlns="http://www.w3.org/2000/svg" xmlns:xlink="http://www.w3.org/1999/xlink" x="0px"
	 y="0px" viewBox="0 0 294.39 241.806" enable-background="new 0 0 294.39 241.806" xml:space="preserve">
<g>
	<path fill="#00A0E9" d="M98.585,21.677H2.835C1.276,21.677,0,20.402,0,18.843L0,2.835C0,1.276,1.276,0,2.835,0l95.75,0
		c1.559,0,2.835,1.276,2.835,2.835v16.008C101.419,20.402,100.144,21.677,98.585,21.677z"/>
	<g>
		<path fill="#FEFDBE" stroke="#B5B5B6" stroke-width="0.25" stroke-miterlimit="10" d="M73.907,58.551H12.48
			c-1.258,0-2.287-1.029-2.287-2.287V39.16c0-1.258,1.029-2.287,2.287-2.287h61.427c1.258,0,2.287,1.029,2.287,2.287v17.104
			C76.194,57.522,75.165,58.551,73.907,58.551z"/>
		<g>
			<path d="M20.566,50.584v-6.048h1.663v6.048H20.566z"/>
			<path d="M23.374,50.584v-6.048h1.654v4.833h2.244v1.215H23.374z"/>
			<path d="M27.897,48.595v-1.206h2.597v1.206H27.897z"/>
			<path d="M33.583,50.71c-0.81,0-1.429-0.248-1.857-0.743c-0.428-0.495-0.643-1.168-0.643-2.021v-0.396
				c0-0.498,0.056-0.939,0.168-1.323c0.111-0.384,0.261-0.699,0.448-0.945c0.188-0.246,0.415-0.448,0.683-0.607
				c0.267-0.159,0.541-0.27,0.822-0.333c0.282-0.063,0.584-0.094,0.907-0.094c0.563,0,1.044,0.114,1.443,0.342l-0.229,1.215
				c-0.353-0.174-0.752-0.261-1.197-0.261c-0.887,0-1.364,0.498-1.435,1.494c0.404-0.264,0.851-0.396,1.338-0.396
				c0.562,0,1.006,0.161,1.329,0.481c0.322,0.321,0.483,0.775,0.483,1.363c0,0.654-0.192,1.188-0.576,1.602
				C34.884,50.503,34.322,50.71,33.583,50.71z M33.53,49.567c0.246,0,0.44-0.083,0.581-0.248s0.211-0.403,0.211-0.715
				s-0.078-0.539-0.233-0.68c-0.155-0.141-0.362-0.211-0.62-0.211c-0.129,0-0.271,0.038-0.423,0.112
				c-0.152,0.075-0.267,0.164-0.343,0.266v0.027C32.703,49.084,32.978,49.567,33.53,49.567z"/>
			<path d="M45.844,48.397h-7.165v-1.089h7.165V48.397z M45.201,45.04h-1.945c0.17,0.276,0.469,0.495,0.897,0.657
				c0.429,0.162,0.915,0.252,1.461,0.27l-0.537,1.08c-0.598-0.03-1.157-0.151-1.676-0.364c-0.52-0.213-0.899-0.518-1.141-0.914
				c-0.223,0.39-0.602,0.696-1.135,0.918c-0.534,0.222-1.098,0.351-1.69,0.387l-0.519-1.053c0.58-0.018,1.078-0.114,1.491-0.288
				c0.414-0.174,0.703-0.405,0.867-0.693h-1.937v-1.071h5.862V45.04z M45.227,50.107c0,0.444-0.268,0.807-0.801,1.089
				c-0.534,0.282-1.247,0.423-2.14,0.423c-0.909,0-1.632-0.14-2.169-0.419c-0.537-0.279-0.806-0.643-0.806-1.093
				c0-0.462,0.266-0.83,0.797-1.103s1.248-0.41,2.151-0.41c0.91,0,1.632,0.137,2.166,0.41C44.96,49.278,45.227,49.645,45.227,50.107
				z M42.261,49.684c-0.434,0-0.78,0.038-1.038,0.112c-0.259,0.075-0.388,0.185-0.388,0.329c0,0.126,0.133,0.229,0.396,0.311
				s0.607,0.122,1.029,0.122c0.435,0,0.785-0.041,1.052-0.122c0.268-0.081,0.401-0.185,0.401-0.311c0-0.144-0.131-0.253-0.393-0.329
				C43.06,49.722,42.707,49.684,42.261,49.684z"/>
			<path d="M50.455,44.428c-0.023,0.612-0.091,1.173-0.202,1.683c-0.111,0.51-0.295,1.026-0.55,1.548
				c-0.256,0.522-0.618,1.016-1.087,1.481c-0.47,0.465-1.042,0.886-1.717,1.264l-0.757-1.089c0.786-0.366,1.44-0.894,1.963-1.584
				s0.827-1.407,0.915-2.151h-2.402v-1.152H50.455z M53.562,47.758h-1.021v3.951h-1.364v-8.1h1.364v2.988h1.021V47.758z"/>
		</g>
	</g>
	<g>
		<path fill="#FEFDBE" stroke="#B5B5B6" stroke-width="0.25" stroke-miterlimit="10" d="M169.294,58.551h-61.427
			c-1.258,0-2.287-1.029-2.287-2.287V39.16c0-1.258,1.029-2.287,2.287-2.287h61.427c1.258,0,2.287,1.029,2.287,2.287v17.104
			C171.581,57.522,170.552,58.551,169.294,58.551z"/>
		<g>
			<path d="M114.481,51.025c-0.446,0-0.824-0.078-1.136-0.234v-0.639c0.323,0.132,0.678,0.198,1.065,0.198
				c0.604,0,0.906-0.324,0.906-0.972v-4.455h0.774v4.482c0,0.48-0.133,0.87-0.4,1.17C115.425,50.875,115.021,51.025,114.481,51.025z
				"/>
			<path d="M116.893,50.971l2.156-6.048h0.748l2.139,6.048h-0.81l-0.599-1.701h-2.306l-0.59,1.701H116.893z M119.349,45.986
				l-0.898,2.61h1.84l-0.915-2.61H119.349z"/>
			<path d="M122.772,50.971v-6.048h0.774v6.048H122.772z M126.082,50.971l-2.465-3.087l2.438-2.961h0.827l-2.395,2.871l2.509,3.177
				H126.082z"/>
			<path d="M127.208,51.889l2.042-7.488h0.678l-2.042,7.488H127.208z"/>
			<path d="M133.606,50.607c-0.329,0.315-0.827,0.473-1.496,0.473s-1.235-0.132-1.699-0.396v-0.675
				c0.499,0.264,1.051,0.396,1.655,0.396c0.827,0,1.241-0.348,1.241-1.044c0-0.276-0.068-0.489-0.203-0.639s-0.378-0.288-0.73-0.414
				l-0.616-0.207c-0.422-0.144-0.74-0.343-0.955-0.599c-0.214-0.255-0.32-0.604-0.32-1.048c0-0.492,0.161-0.887,0.483-1.184
				c0.323-0.297,0.786-0.445,1.391-0.445c0.54,0,1.021,0.111,1.443,0.333v0.666c-0.469-0.216-0.959-0.324-1.47-0.324
				c-0.34,0-0.603,0.077-0.787,0.229c-0.186,0.153-0.277,0.371-0.277,0.653c0,0.276,0.057,0.486,0.171,0.63
				c0.115,0.144,0.327,0.27,0.639,0.378l0.607,0.207c0.475,0.156,0.83,0.36,1.064,0.612s0.353,0.615,0.353,1.089
				C134.1,49.855,133.935,50.292,133.606,50.607z"/>
			<path d="M136.423,50.971v-5.364h-1.752v-0.684h4.269v0.684h-1.751v5.364H136.423z"/>
			<path d="M139.266,50.971l2.156-6.048h0.748l2.139,6.048h-0.81L142.9,49.27h-2.306l-0.59,1.701H139.266z M141.722,45.986
				l-0.898,2.61h1.84l-0.915-2.61H141.722z"/>
			<path d="M146.387,50.971v-5.364h-1.752v-0.684h4.269v0.684h-1.751v5.364H146.387z"/>
			<path d="M153.366,44.716c-0.053,1.002-0.38,1.858-0.981,2.569s-1.418,1.25-2.451,1.615l-0.448-0.648
				c0.763-0.204,1.426-0.568,1.988-1.093c0.563-0.525,0.907-1.121,1.03-1.787h-2.641v-0.657H153.366z M155.118,49.338
				c0.457,0.273,0.687,0.647,0.687,1.121c0,0.474-0.229,0.846-0.687,1.116c-0.458,0.27-1.104,0.405-1.937,0.405
				c-0.821,0-1.463-0.135-1.923-0.405c-0.461-0.27-0.691-0.642-0.691-1.116c0-0.474,0.23-0.847,0.691-1.121
				c0.46-0.273,1.102-0.409,1.923-0.409C154.015,48.928,154.66,49.065,155.118,49.338z M153.182,49.576
				c-0.563,0-1.005,0.078-1.325,0.234c-0.319,0.156-0.479,0.372-0.479,0.648c0,0.276,0.16,0.491,0.479,0.644
				c0.32,0.153,0.762,0.229,1.325,0.229c0.581,0,1.031-0.077,1.351-0.229c0.32-0.153,0.479-0.367,0.479-0.644
				c0-0.276-0.159-0.492-0.479-0.648C154.213,49.654,153.763,49.576,153.182,49.576z M153.375,47.812v-0.639h1.602v-0.954h-1.514
				V45.58h1.514v-1.467h0.784v4.869h-0.784v-1.17H153.375z"/>
			<path d="M164.007,50.98h-6.944v-0.648h3.063v-1.242h-2.227v-2.529h4.471v-1.152h-4.488v-0.648h5.263v2.448h-4.471v1.233h4.682
				v0.648h-2.446v1.242h3.098V50.98z"/>
		</g>
	</g>
	<g>
		<path fill="#FEFDBE" stroke="#B5B5B6" stroke-width="0.25" stroke-miterlimit="10" d="M291.547,58.551h-87.759
			c-1.494,0-2.717-1.223-2.717-2.717V39.591c0-1.494,1.223-2.717,2.717-2.717h87.759c1.495,0,2.717,1.223,2.717,2.717v16.243
			C294.265,57.328,293.042,58.551,291.547,58.551z"/>
		<g>
			<path d="M212.264,50.187v-6.048h1.136l1.628,5.004h0.026l1.61-5.004h1.136v6.048h-0.783v-4.995h-0.026l-1.638,4.995h-0.722
				l-1.637-4.995h-0.018v4.995H212.264z"/>
			<path d="M218.627,50.187l2.156-6.048h0.748l2.139,6.048h-0.81l-0.599-1.701h-2.306l-0.59,1.701H218.627z M221.083,45.201
				l-0.898,2.61h1.84l-0.915-2.61H221.083z"/>
			<path d="M224.507,50.187v-6.048h1.884c0.651,0,1.143,0.156,1.474,0.468c0.332,0.312,0.498,0.756,0.498,1.332
				c0,0.594-0.174,1.053-0.52,1.377c-0.347,0.324-0.804,0.486-1.373,0.486h-1.188v2.385H224.507z M225.281,47.145h1.021
				c0.434,0,0.748-0.093,0.941-0.279c0.193-0.186,0.29-0.474,0.29-0.864c0-0.426-0.092-0.729-0.277-0.909
				c-0.185-0.18-0.497-0.27-0.937-0.27h-1.039V47.145z"/>
			<path d="M229.348,50.187v-6.048h0.774v6.048H229.348z M232.657,50.187l-2.465-3.087l2.438-2.961h0.827l-2.395,2.871l2.509,3.177
				H232.657z"/>
			<path d="M238.412,50.268c-0.64,0-1.138-0.186-1.496-0.558c-0.357-0.372-0.537-0.924-0.537-1.656v-0.153
				c0-0.75,0.194-1.317,0.581-1.701c0.388-0.384,0.886-0.576,1.496-0.576c0.476,0,0.872,0.099,1.188,0.297v0.639
				c-0.422-0.186-0.836-0.279-1.241-0.279c-0.393,0-0.699,0.131-0.919,0.392c-0.221,0.261-0.33,0.635-0.33,1.121v0.234
				c0,0.552,0.111,0.956,0.334,1.21c0.223,0.255,0.558,0.383,1.003,0.383c0.364,0,0.77-0.105,1.215-0.315v0.612
				C239.349,50.151,238.917,50.268,238.412,50.268z"/>
			<path d="M241.615,50.268c-0.41,0-0.739-0.108-0.985-0.324c-0.246-0.216-0.37-0.531-0.37-0.945c0-0.756,0.44-1.191,1.32-1.305
				l1.162-0.144v-0.414c0-0.336-0.078-0.561-0.233-0.675c-0.155-0.114-0.436-0.171-0.841-0.171c-0.287,0-0.637,0.042-1.047,0.126
				v-0.549c0.417-0.162,0.862-0.243,1.338-0.243c1.015,0,1.522,0.441,1.522,1.323v3.24h-0.599l-0.079-0.378h-0.044
				C242.49,50.115,242.108,50.268,241.615,50.268z M241.801,49.674c0.41,0,0.725-0.102,0.941-0.306v-1.233l-0.968,0.099
				c-0.259,0.03-0.446,0.102-0.563,0.216c-0.117,0.114-0.176,0.292-0.176,0.531c0,0.228,0.068,0.4,0.206,0.518
				C241.379,49.615,241.565,49.674,241.801,49.674z"/>
			<path d="M245.778,50.259c-0.592,0-1.064-0.105-1.417-0.315v-0.603c0.452,0.186,0.887,0.279,1.303,0.279
				c0.628,0,0.942-0.207,0.942-0.621c0-0.18-0.055-0.323-0.163-0.428s-0.295-0.193-0.559-0.265l-0.414-0.117
				c-0.352-0.096-0.622-0.237-0.81-0.423s-0.282-0.459-0.282-0.819c0-0.408,0.128-0.73,0.384-0.967
				c0.255-0.237,0.638-0.355,1.148-0.355c0.457,0,0.856,0.087,1.196,0.261v0.621c-0.328-0.156-0.719-0.234-1.17-0.234
				c-0.563,0-0.846,0.198-0.846,0.594c0,0.18,0.048,0.315,0.142,0.405s0.258,0.168,0.492,0.234l0.414,0.108
				c0.44,0.12,0.749,0.273,0.929,0.459c0.179,0.186,0.269,0.471,0.269,0.855c0,0.432-0.139,0.762-0.414,0.99
				S246.266,50.259,245.778,50.259z"/>
			<path d="M250.012,50.268c-0.64,0-1.138-0.186-1.496-0.558c-0.357-0.372-0.537-0.924-0.537-1.656v-0.153
				c0-0.75,0.194-1.317,0.581-1.701c0.388-0.384,0.886-0.576,1.496-0.576c0.476,0,0.872,0.099,1.188,0.297v0.639
				c-0.422-0.186-0.836-0.279-1.241-0.279c-0.393,0-0.699,0.131-0.919,0.392c-0.221,0.261-0.33,0.635-0.33,1.121v0.234
				c0,0.552,0.111,0.956,0.334,1.21c0.223,0.255,0.558,0.383,1.003,0.383c0.364,0,0.77-0.105,1.215-0.315v0.612
				C250.948,50.151,250.517,50.268,250.012,50.268z"/>
			<path d="M253.215,50.268c-0.41,0-0.739-0.108-0.985-0.324c-0.246-0.216-0.37-0.531-0.37-0.945c0-0.756,0.44-1.191,1.32-1.305
				l1.162-0.144v-0.414c0-0.336-0.078-0.561-0.233-0.675c-0.155-0.114-0.436-0.171-0.841-0.171c-0.287,0-0.637,0.042-1.047,0.126
				v-0.549c0.417-0.162,0.862-0.243,1.338-0.243c1.015,0,1.522,0.441,1.522,1.323v3.24h-0.599l-0.079-0.378h-0.044
				C254.09,50.115,253.708,50.268,253.215,50.268z M253.4,49.674c0.41,0,0.725-0.102,0.941-0.306v-1.233l-0.968,0.099
				c-0.259,0.03-0.446,0.102-0.563,0.216c-0.117,0.114-0.176,0.292-0.176,0.531c0,0.228,0.068,0.4,0.206,0.518
				C252.978,49.615,253.165,49.674,253.4,49.674z"/>
			<path d="M257.801,50.268c-0.223,0-0.436-0.038-0.638-0.113c-0.203-0.075-0.394-0.193-0.572-0.355
				c-0.18-0.162-0.323-0.388-0.432-0.679s-0.163-0.635-0.163-1.031v-0.126c0-0.78,0.178-1.365,0.533-1.755
				c0.354-0.39,0.825-0.585,1.412-0.585c0.429,0,0.801,0.093,1.118,0.279v-2.16h0.748v6.444h-0.634l-0.07-0.36h-0.044
				C258.771,50.121,258.352,50.268,257.801,50.268z M258.047,49.638c0.394,0,0.73-0.117,1.013-0.351v-2.745
				c-0.211-0.174-0.552-0.261-1.021-0.261c-0.416,0-0.73,0.123-0.941,0.369s-0.316,0.651-0.316,1.215v0.198
				c0,0.57,0.109,0.975,0.33,1.215C257.33,49.518,257.643,49.638,258.047,49.638z"/>
			<path d="M262.817,50.268c-0.681,0-1.198-0.2-1.553-0.599c-0.355-0.399-0.533-0.95-0.533-1.651v-0.135
				c0-0.738,0.184-1.299,0.551-1.683c0.366-0.384,0.825-0.576,1.377-0.576c1.18,0,1.77,0.705,1.77,2.115v0.432h-2.922
				c0.023,0.516,0.155,0.885,0.396,1.107c0.24,0.222,0.587,0.333,1.039,0.333c0.486,0,0.938-0.114,1.355-0.342v0.567
				C263.927,50.124,263.434,50.268,262.817,50.268z M262.624,46.245c-0.287,0-0.538,0.101-0.752,0.301
				c-0.215,0.201-0.336,0.536-0.365,1.003h2.13c0-0.456-0.084-0.788-0.251-0.994C263.219,46.349,262.965,46.245,262.624,46.245z"/>
			<path d="M271.53,46.11c0,0.276-0.123,0.497-0.369,0.662s-0.578,0.269-0.995,0.311v0.351c0.922-0.054,1.576-0.114,1.963-0.18
				l0.079,0.594c-0.722,0.096-1.54,0.171-2.455,0.225c-1.162,0.048-1.96,0.072-2.395,0.072l-0.114-0.63
				c0.61,0,1.326-0.015,2.147-0.045v-0.378c-0.428-0.042-0.767-0.146-1.017-0.311c-0.249-0.165-0.374-0.388-0.374-0.67
				c0-0.318,0.162-0.562,0.484-0.733s0.745-0.256,1.268-0.256c0.54,0,0.971,0.085,1.294,0.256
				C271.369,45.548,271.53,45.792,271.53,46.11z M272.023,44.913h-4.506V44.31h4.506V44.913z M273.669,51.186h-5.324V49.53h4.26
				v-0.468h-4.295v-0.585h5.069v1.593h-4.26v0.54h4.55V51.186z M270.8,43.968h-2.147v-0.594h2.147V43.968z M270.492,46.425
				c0.188-0.072,0.281-0.177,0.281-0.315c0-0.138-0.094-0.243-0.281-0.315s-0.435-0.108-0.739-0.108c-0.3,0-0.54,0.036-0.722,0.108
				s-0.273,0.177-0.273,0.315c0,0.138,0.092,0.243,0.273,0.315c0.182,0.072,0.422,0.108,0.722,0.108
				C270.058,46.533,270.305,46.497,270.492,46.425z M274.523,46.272h-1.145v1.782h-0.766v-4.725h0.766v2.277h1.145V46.272z"/>
			<path d="M279.426,46.992l-0.458,0.621c-0.369-0.168-0.716-0.406-1.038-0.715c-0.323-0.309-0.558-0.649-0.704-1.021
				c-0.118,0.396-0.348,0.774-0.691,1.134c-0.343,0.36-0.729,0.639-1.157,0.837l-0.484-0.621c0.581-0.252,1.048-0.61,1.399-1.076
				c0.353-0.465,0.528-0.995,0.528-1.588V43.77h0.792v0.756c0,0.582,0.181,1.095,0.541,1.539
				C278.515,46.509,278.938,46.818,279.426,46.992z M280.706,48.553c0.455,0.273,0.683,0.647,0.683,1.121
				c0,0.474-0.228,0.846-0.683,1.116s-1.093,0.405-1.914,0.405c-0.815,0-1.451-0.135-1.905-0.405
				c-0.455-0.27-0.683-0.642-0.683-1.116c0-0.474,0.228-0.847,0.683-1.121c0.454-0.273,1.09-0.409,1.905-0.409
				C279.613,48.144,280.251,48.28,280.706,48.553z M278.792,48.783c-0.563,0-1.004,0.08-1.32,0.239s-0.476,0.376-0.476,0.652
				c0,0.276,0.159,0.492,0.476,0.648c0.316,0.156,0.757,0.234,1.32,0.234c0.569,0,1.012-0.078,1.329-0.234
				c0.316-0.156,0.475-0.372,0.475-0.648c0-0.276-0.158-0.493-0.475-0.652C279.804,48.862,279.361,48.783,278.792,48.783z
				 M280.543,45.741h-1.479v-0.648h1.479v-1.764h0.784v4.806h-0.784V45.741z"/>
			<path d="M287.426,49.647c-0.562,0.078-1.446,0.153-2.648,0.225c-0.775,0.042-1.503,0.063-2.184,0.063l-0.114-0.666
				c0.868,0,1.549-0.012,2.042-0.036v-0.711c-0.435-0.06-0.784-0.208-1.052-0.445c-0.267-0.237-0.4-0.527-0.4-0.869
				c0-0.402,0.172-0.728,0.515-0.977c0.344-0.249,0.785-0.374,1.325-0.374c0.551,0,0.996,0.123,1.333,0.369
				c0.338,0.246,0.506,0.573,0.506,0.981c0,0.348-0.132,0.641-0.396,0.877c-0.265,0.237-0.616,0.382-1.057,0.437v0.666
				c0.804-0.042,1.487-0.099,2.051-0.171L287.426,49.647z M287.232,45.534h-4.567v-0.657h4.567V45.534z M285.991,44.364H283.8
				v-0.648h2.191V44.364z M285.947,47.208c0-0.204-0.097-0.372-0.29-0.504s-0.443-0.198-0.748-0.198c-0.3,0-0.546,0.067-0.739,0.203
				c-0.194,0.135-0.291,0.301-0.291,0.5c0,0.192,0.097,0.357,0.291,0.495c0.193,0.138,0.439,0.207,0.739,0.207
				c0.305,0,0.555-0.069,0.748-0.207C285.851,47.565,285.947,47.4,285.947,47.208z M289.794,47.496h-1.188v3.699h-0.766v-7.866
				h0.766v3.501h1.188V47.496z"/>
		</g>
	</g>
	<g>
		<path fill="#FEFDBE" stroke="#B5B5B6" stroke-width="0.2877" stroke-miterlimit="10" d="M94.968,91.096H12.844
			c-1.447,0-2.631-1.184-2.631-2.631V72.05c0-1.447,1.184-2.631,2.631-2.631h82.125c1.447,0,2.631,1.184,2.631,2.631v16.415
			C97.599,89.912,96.415,91.096,94.968,91.096z"/>
		<g>
			<path d="M24.448,79.052c0,0.276-0.123,0.497-0.369,0.662s-0.578,0.269-0.995,0.311v0.351c0.922-0.054,1.576-0.114,1.963-0.18
				l0.079,0.594c-0.722,0.096-1.54,0.171-2.455,0.225c-1.162,0.048-1.96,0.072-2.395,0.072l-0.114-0.63
				c0.61,0,1.326-0.015,2.147-0.045v-0.378c-0.428-0.042-0.767-0.146-1.017-0.311c-0.249-0.165-0.374-0.388-0.374-0.67
				c0-0.318,0.162-0.562,0.484-0.733s0.745-0.256,1.268-0.256c0.54,0,0.971,0.085,1.294,0.256
				C24.287,78.49,24.448,78.735,24.448,79.052z M24.941,77.856h-4.506v-0.603h4.506V77.856z M26.587,84.129h-5.324v-1.656h4.26
				v-0.468h-4.295V81.42h5.069v1.593h-4.26v0.54h4.55V84.129z M23.718,76.91H21.57v-0.594h2.147V76.91z M23.41,79.367
				c0.188-0.072,0.281-0.177,0.281-0.315c0-0.138-0.094-0.243-0.281-0.315s-0.435-0.108-0.739-0.108c-0.3,0-0.54,0.036-0.722,0.108
				s-0.273,0.177-0.273,0.315c0,0.138,0.092,0.243,0.273,0.315c0.182,0.072,0.422,0.108,0.722,0.108
				C22.976,79.475,23.223,79.44,23.41,79.367z M27.441,79.215h-1.145v1.782h-0.766v-4.725h0.766v2.277h1.145V79.215z"/>
			<path d="M32.344,79.934l-0.458,0.621c-0.369-0.168-0.716-0.406-1.038-0.715c-0.323-0.309-0.558-0.649-0.704-1.021
				c-0.118,0.396-0.348,0.774-0.691,1.134c-0.343,0.36-0.729,0.639-1.157,0.837l-0.484-0.621c0.581-0.252,1.048-0.61,1.399-1.076
				c0.353-0.465,0.528-0.995,0.528-1.588v-0.792h0.792v0.756c0,0.582,0.181,1.095,0.541,1.539
				C31.433,79.452,31.856,79.76,32.344,79.934z M33.624,81.496c0.455,0.273,0.683,0.647,0.683,1.121
				c0,0.474-0.228,0.846-0.683,1.116s-1.093,0.405-1.914,0.405c-0.815,0-1.451-0.135-1.905-0.405
				c-0.455-0.27-0.683-0.642-0.683-1.116c0-0.474,0.228-0.847,0.683-1.121c0.454-0.273,1.09-0.409,1.905-0.409
				C32.531,81.087,33.169,81.223,33.624,81.496z M31.71,81.725c-0.563,0-1.004,0.08-1.32,0.239s-0.476,0.376-0.476,0.652
				c0,0.276,0.159,0.492,0.476,0.648c0.316,0.156,0.757,0.234,1.32,0.234c0.569,0,1.012-0.078,1.329-0.234
				c0.316-0.156,0.475-0.372,0.475-0.648c0-0.276-0.158-0.493-0.475-0.652C32.722,81.805,32.279,81.725,31.71,81.725z
				 M33.461,78.683h-1.479v-0.648h1.479v-1.764h0.784v4.806h-0.784V78.683z"/>
			<path d="M39.931,80.096l-0.458,0.63c-0.375-0.174-0.73-0.425-1.064-0.752c-0.335-0.327-0.584-0.682-0.748-1.066
				c-0.112,0.402-0.346,0.796-0.7,1.184c-0.355,0.387-0.735,0.677-1.14,0.869l-0.484-0.63c0.546-0.228,1.002-0.593,1.369-1.094
				c0.366-0.501,0.55-1.048,0.55-1.643v-0.882h0.792v0.846c0,0.6,0.188,1.128,0.563,1.584
				C38.985,79.598,39.426,79.917,39.931,80.096z M41.813,83.895h-5.122V81.42h0.783v1.827h4.339V83.895z M42.642,79.296h-1.153
				v2.691h-0.774v-5.715h0.774v2.358h1.153V79.296z"/>
			<path d="M50.104,83.138H43.16V82.49h3.063v-1.953h0.783v1.953h3.098V83.138z M49.858,80.096l-0.423,0.63
				c-0.604-0.174-1.178-0.477-1.72-0.909c-0.543-0.432-0.905-0.87-1.088-1.314c-0.152,0.45-0.501,0.89-1.047,1.318
				c-0.546,0.429-1.133,0.728-1.761,0.896l-0.396-0.648c0.681-0.12,1.318-0.439,1.914-0.958s0.894-1.09,0.894-1.714v-0.54h0.801
				v0.54c0,0.414,0.155,0.82,0.467,1.219c0.311,0.399,0.681,0.725,1.108,0.977C49.037,79.844,49.453,80.012,49.858,80.096z"/>
			<path d="M56.97,80.078h-3.635v-3.501h0.774v1.098h2.086v-1.107h0.774V80.078z M59.302,84.084h-5.166v-2.007h4.11V81.41h-4.172
				v-0.648h4.955v1.917H54.91v0.756h4.392V84.084z M56.195,79.44v-1.125h-2.086v1.125H56.195z M60.174,78.638h-1.145v1.701h-0.783
				v-4.068h0.783v1.71h1.145V78.638z"/>
			<path d="M64.548,79.925l-0.414,0.603c-0.275-0.138-0.563-0.358-0.862-0.662c-0.299-0.303-0.505-0.589-0.616-0.859
				c-0.094,0.312-0.289,0.641-0.585,0.985c-0.297,0.345-0.615,0.614-0.955,0.806l-0.467-0.576c0.458-0.252,0.843-0.604,1.153-1.057
				c0.311-0.453,0.467-0.953,0.467-1.499v-0.945h0.757v0.927c0,0.534,0.154,1,0.462,1.399S64.148,79.739,64.548,79.925z
				 M66.572,81.541c0.47,0.267,0.704,0.631,0.704,1.093s-0.234,0.827-0.704,1.094c-0.47,0.267-1.118,0.4-1.945,0.4
				c-0.821,0-1.465-0.134-1.932-0.4c-0.467-0.267-0.7-0.632-0.7-1.094s0.233-0.826,0.7-1.093s1.11-0.401,1.932-0.401
				C65.454,81.14,66.102,81.274,66.572,81.541z M64.627,81.788c-0.552,0-0.991,0.077-1.32,0.23
				c-0.328,0.153-0.492,0.358-0.492,0.616c0,0.258,0.162,0.462,0.488,0.612c0.325,0.15,0.767,0.225,1.324,0.225
				c0.563,0,1.011-0.075,1.343-0.225c0.331-0.15,0.497-0.354,0.497-0.612c0-0.258-0.166-0.463-0.497-0.616
				C65.638,81.865,65.19,81.788,64.627,81.788z M67.197,81.195h-0.748v-2.232h-0.863v1.827h-0.739v-4.374h0.739v1.899h0.863v-2.043
				h0.748V81.195z"/>
			<path d="M77.573,80.78h-6.944v-0.639h6.944V80.78z M77.257,78.981l-0.344,0.639c-0.604-0.09-1.173-0.285-1.707-0.585
				c-0.534-0.3-0.903-0.633-1.109-0.999c-0.164,0.372-0.506,0.708-1.025,1.008c-0.519,0.3-1.104,0.492-1.756,0.576l-0.343-0.63
				c0.651-0.054,1.242-0.231,1.773-0.531c0.531-0.3,0.841-0.675,0.929-1.125H71.28v-0.648h5.642v0.648h-2.385
				c0.105,0.444,0.436,0.819,0.99,1.125C76.082,78.764,76.658,78.939,77.257,78.981z M76.755,82.716c0,0.444-0.231,0.791-0.695,1.04
				c-0.463,0.249-1.117,0.374-1.963,0.374c-0.839,0-1.49-0.125-1.953-0.374c-0.464-0.249-0.695-0.596-0.695-1.04
				c0-0.438,0.231-0.781,0.695-1.03c0.463-0.249,1.114-0.374,1.953-0.374c0.846,0,1.5,0.121,1.963,0.364
				C76.523,81.919,76.755,82.265,76.755,82.716z M74.097,81.95c-0.568,0-1.02,0.068-1.351,0.203
				c-0.332,0.135-0.497,0.323-0.497,0.562c0,0.246,0.164,0.435,0.493,0.567c0.328,0.132,0.78,0.198,1.354,0.198
				c0.581,0,1.037-0.066,1.369-0.198c0.331-0.132,0.497-0.321,0.497-0.567c0-0.24-0.167-0.428-0.502-0.562
				C75.127,82.018,74.672,81.95,74.097,81.95z"/>
			<path d="M82.159,77.109c-0.023,1.224-0.331,2.298-0.924,3.222c-0.593,0.924-1.429,1.686-2.509,2.286l-0.476-0.603
				c0.893-0.438,1.609-1.038,2.152-1.8c0.543-0.762,0.85-1.572,0.92-2.43h-2.737v-0.675H82.159z M84.184,76.272v3.222h1.232v0.666
				h-1.232v3.978h-0.774v-7.866H84.184z"/>
		</g>
	</g>
	<g>
		<path fill="#FEFDBE" stroke="#B5B5B6" stroke-width="0.3096" stroke-miterlimit="10" d="M108.627,123.634H13.055
			c-1.558,0-2.832-1.274-2.832-2.832v-16.013c0-1.558,1.274-2.832,2.832-2.832h95.571c1.558,0,2.832,1.274,2.832,2.832v16.013
			C111.459,122.359,110.184,123.634,108.627,123.634z"/>
		<g>
			<path d="M24.161,114.155l-0.476,0.558c-0.299-0.21-0.593-0.516-0.88-0.918s-0.487-0.807-0.599-1.215
				c-0.094,0.432-0.286,0.864-0.576,1.296c-0.291,0.432-0.627,0.78-1.008,1.044l-0.484-0.558c0.481-0.318,0.883-0.786,1.206-1.404
				c0.322-0.618,0.484-1.305,0.484-2.061v-1.341h0.748v1.332c0,0.726,0.147,1.379,0.444,1.958
				C23.317,113.425,23.697,113.861,24.161,114.155z M25.305,116.288h-0.739v-4.032h-1.215v-0.657h1.215v-2.61h0.739V116.288z
				 M26.828,116.675H26.08v-7.866h0.748V116.675z"/>
			<path d="M34.274,113.453h-2.482v1.575h3.098v0.648h-6.944v-0.648h3.063v-1.575h-2.491v-0.648h1.285l-0.202-2.052l0.792-0.117
				l0.149,2.169h1.743l0.299-2.151l0.757,0.135l-0.325,2.016h1.259V113.453z M34.283,110.249h-5.774v-0.639h5.774V110.249z"/>
			<path d="M39.203,114.317c-0.599,0.144-1.467,0.228-2.605,0.252h-0.739v-4.887h0.783v4.212c1.092,0,1.907-0.078,2.447-0.234
				C39.111,113.78,39.15,113.999,39.203,114.317z M42.054,116.675h-0.748v-4.14h-0.942v3.753h-0.739v-7.308h0.739v2.898h0.942
				v-3.069h0.748V116.675z"/>
			<path d="M51.621,109.214c0,0.972-0.082,1.818-0.246,2.538h1.056v0.648h-6.944v-0.648H50.6c0.152-0.558,0.229-1.188,0.229-1.89
				h-4.515v-0.648H51.621z M51.903,116.567H46.34v-2.007h4.409v-0.738h-4.462v-0.648h5.245v1.971h-4.409v0.783h4.779V116.567z"/>
			<path d="M56.946,116.639h-0.783v-2.502h-3.063v-0.639h6.944v0.639h-3.098V116.639z M59.411,112.715h-5.466v-2.151h4.471v-0.81
				h-4.479v-0.621h5.254v2.043h-4.462v0.9h4.683V112.715z"/>
			<path d="M61.769,114.164c1.625,0,2.793-0.087,3.503-0.261l0.07,0.648c-0.804,0.168-2.013,0.261-3.626,0.279h-0.722v-5.292h3.679
				v0.639h-2.904v1.584h2.711v0.648h-2.711V114.164z M66.654,108.809v3.069h1.197v0.666h-1.197v4.131h-0.774v-7.866H66.654z"/>
			<path d="M73.21,114.542l-0.439,0.621c-0.417-0.204-0.827-0.512-1.232-0.923c-0.405-0.411-0.669-0.808-0.792-1.192
				c-0.1,0.408-0.338,0.834-0.713,1.278c-0.376,0.444-0.777,0.783-1.206,1.017l-0.493-0.594c0.581-0.3,1.062-0.732,1.439-1.296
				c0.379-0.564,0.567-1.203,0.567-1.917v-0.126h-1.742v-0.657h4.286v0.657h-1.742v0.117
				C71.143,112.835,71.831,113.84,73.21,114.542z M71.909,109.961h-2.298v-0.657h2.298V109.961z M74.69,116.675h-0.775v-7.866h0.775
				V116.675z"/>
			<path d="M82.109,110.591c0,0.438-0.204,0.792-0.611,1.062c-0.408,0.27-0.979,0.426-1.712,0.468v0.801h3.098v0.648h-6.944v-0.648
				h3.063l-0.009-0.801c-0.722-0.048-1.282-0.206-1.682-0.473c-0.398-0.267-0.598-0.62-0.598-1.058c0-0.48,0.238-0.856,0.717-1.129
				s1.137-0.41,1.976-0.41c0.852,0,1.515,0.137,1.989,0.41C81.872,109.735,82.109,110.111,82.109,110.591z M82.056,116.441h-5.219
				V114.2h0.774v1.602h4.444V116.441z M79.407,109.7c-0.574,0-1.031,0.08-1.368,0.239c-0.338,0.159-0.506,0.379-0.506,0.662
				c0,0.282,0.168,0.5,0.506,0.652c0.337,0.153,0.794,0.229,1.368,0.229c0.587,0,1.049-0.077,1.387-0.229
				c0.337-0.153,0.506-0.371,0.506-0.652c0-0.282-0.17-0.502-0.511-0.662C80.449,109.779,79.988,109.7,79.407,109.7z"/>
			<path d="M92.811,115.532h-6.944v-0.657h2.641v-2.646h0.783v2.646h3.521V115.532z M91.914,109.538v1.206
				c-0.018,1.278-0.126,2.349-0.325,3.213c-0.329-0.06-0.578-0.102-0.748-0.126c0.182-0.732,0.272-1.632,0.272-2.7v-0.945H86.58
				v-0.648H91.914z"/>
			<path d="M93.78,109.304h3.494c-0.029,0.516-0.143,0.989-0.339,1.417c-0.196,0.429-0.458,0.797-0.783,1.103
				c-0.326,0.306-0.683,0.566-1.069,0.779c-0.388,0.213-0.815,0.389-1.285,0.526l-0.388-0.648c0.798-0.174,1.461-0.486,1.989-0.936
				s0.859-0.978,0.995-1.584H93.78V109.304z M99.685,116.621h-5.157v-2.043h4.11v-0.72h-4.146v-0.648h4.929v1.989h-4.119v0.765
				h4.383V116.621z M100.566,111.167h-1.145v1.647h-0.783v-4.005h0.783v1.701h1.145V111.167z"/>
		</g>
	</g>
	<g>
		<path fill="#FEFDBE" stroke="#B5B5B6" stroke-width="0.2848" stroke-miterlimit="10" d="M93.23,156.148H12.815
			c-1.433,0-2.605-1.172-2.605-2.605v-16.468c0-1.433,1.172-2.605,2.605-2.605H93.23c1.433,0,2.605,1.172,2.605,2.605v16.468
			C95.834,154.976,94.662,156.148,93.23,156.148z"/>
		<g>
			<path d="M20.706,148.181v-6.048h1.787c0.903,0,1.591,0.238,2.063,0.715s0.709,1.189,0.709,2.137v0.18
				c0,0.966-0.228,1.71-0.683,2.232s-1.146,0.783-2.072,0.783H20.706z M21.481,147.497h1.048c0.656,0,1.138-0.175,1.443-0.526
				c0.305-0.351,0.457-0.914,0.457-1.688v-0.297c0-0.786-0.167-1.342-0.501-1.669c-0.335-0.327-0.84-0.49-1.515-0.49h-0.933V147.497
				z"/>
			<path d="M26.181,148.181v-0.468l1.355-1.44c0.492-0.528,0.852-0.967,1.078-1.318c0.226-0.351,0.339-0.718,0.339-1.103
				c0-0.396-0.097-0.688-0.291-0.877c-0.193-0.189-0.495-0.284-0.906-0.284c-0.405,0-0.842,0.159-1.312,0.477l-0.185-0.612
				c0.528-0.36,1.076-0.54,1.646-0.54c0.599,0,1.06,0.156,1.382,0.468c0.323,0.312,0.484,0.741,0.484,1.287
				c0,0.486-0.131,0.932-0.392,1.336c-0.262,0.405-0.68,0.905-1.254,1.499l-0.881,0.909h2.641v0.666H26.181z"/>
			<path d="M35.264,141.836c0.599,0,1.102,0.179,1.509,0.536c0.408,0.357,0.612,0.814,0.612,1.373c0,0.492-0.158,0.9-0.476,1.224
				c-0.316,0.324-0.725,0.525-1.224,0.603v1.287c1.027-0.066,1.702-0.126,2.024-0.18l0.079,0.639
				c-0.628,0.09-1.511,0.162-2.648,0.216c-0.828,0.054-1.556,0.081-2.184,0.081l-0.114-0.684c0.881,0,1.569-0.009,2.068-0.027
				v-1.323c-0.511-0.066-0.929-0.262-1.254-0.589c-0.326-0.327-0.488-0.74-0.488-1.238c0-0.558,0.2-1.017,0.603-1.377
				S34.671,141.836,35.264,141.836z M35.264,142.511c-0.364,0-0.671,0.114-0.92,0.342c-0.25,0.228-0.374,0.525-0.374,0.891
				c0,0.354,0.124,0.641,0.374,0.859c0.249,0.219,0.556,0.329,0.92,0.329c0.375,0,0.685-0.108,0.929-0.324
				c0.243-0.216,0.365-0.504,0.365-0.864c0-0.378-0.121-0.678-0.361-0.9C35.956,142.622,35.645,142.511,35.264,142.511z
				 M40.158,145.238h-1.188v3.951h-0.766v-7.866h0.766v3.249h1.188V145.238z"/>
			<path d="M43.308,148.181v-6.048h1.787c0.903,0,1.591,0.238,2.063,0.715s0.709,1.189,0.709,2.137v0.18
				c0,0.966-0.228,1.71-0.683,2.232s-1.146,0.783-2.072,0.783H43.308z M44.082,147.497h1.048c0.656,0,1.138-0.175,1.443-0.526
				c0.305-0.351,0.457-0.914,0.457-1.688v-0.297c0-0.786-0.167-1.342-0.501-1.669c-0.335-0.327-0.84-0.49-1.515-0.49h-0.933V147.497
				z"/>
			<path d="M49.742,148.217v-5.292l-1.073,0.243v-0.459l1.426-0.675h0.422v6.183H49.742z"/>
			<path d="M58.191,142.16c-0.023,1.206-0.351,2.272-0.981,3.199c-0.631,0.927-1.494,1.697-2.592,2.309l-0.476-0.603
				c0.91-0.444,1.653-1.048,2.231-1.813c0.578-0.765,0.902-1.57,0.973-2.417h-2.86v-0.675H58.191z M60.445,149.189h-0.784v-7.866
				h0.784V149.189z"/>
			<path d="M68.691,145.589h-6.944v-0.639h6.944V145.589z M67.899,147.668c0,0.456-0.231,0.812-0.695,1.066
				c-0.463,0.255-1.123,0.383-1.98,0.383c-0.856,0-1.515-0.127-1.976-0.383c-0.461-0.255-0.69-0.61-0.69-1.066
				c0-0.45,0.231-0.802,0.695-1.058c0.463-0.255,1.12-0.382,1.971-0.382c0.857,0,1.518,0.127,1.98,0.382
				C67.667,146.866,67.899,147.218,67.899,147.668z M67.846,144.176h-5.148v-2.646h0.774v1.998h4.374V144.176z M65.223,146.876
				c-0.58,0-1.037,0.069-1.368,0.207c-0.332,0.138-0.497,0.336-0.497,0.594c0,0.252,0.165,0.448,0.497,0.589
				c0.331,0.141,0.788,0.211,1.368,0.211c0.587,0,1.048-0.07,1.382-0.211c0.335-0.141,0.502-0.337,0.502-0.589
				c0-0.258-0.167-0.456-0.502-0.594C66.271,146.945,65.81,146.876,65.223,146.876z"/>
			<path d="M72.343,142.295c0.394-0.354,0.878-0.531,1.453-0.531c0.574,0,1.059,0.177,1.452,0.531
				c0.393,0.354,0.589,0.807,0.589,1.359c0,0.552-0.194,0.999-0.585,1.341s-0.876,0.513-1.456,0.513
				c-0.575,0-1.06-0.171-1.453-0.513c-0.393-0.342-0.589-0.789-0.589-1.341C71.754,143.102,71.951,142.65,72.343,142.295z
				 M73.796,142.439c-0.364,0-0.662,0.114-0.894,0.342c-0.232,0.228-0.348,0.516-0.348,0.864c0,0.36,0.115,0.652,0.348,0.877
				c0.231,0.225,0.529,0.337,0.894,0.337c0.375,0,0.677-0.112,0.906-0.337c0.229-0.225,0.343-0.514,0.343-0.868
				s-0.114-0.645-0.343-0.873C74.473,142.553,74.171,142.439,73.796,142.439z M77.616,149.198h-0.774v-2.205h-4.207v-0.639h4.981
				V149.198z M78.76,144.158v0.666h-1.145v1.125h-0.783v-4.626h0.783v1.206h1.145v0.657h-1.145v0.972H78.76z"/>
			<path d="M84.084,147.641c-0.562,0.078-1.446,0.153-2.648,0.225c-0.775,0.042-1.503,0.063-2.184,0.063l-0.114-0.666
				c0.868,0,1.549-0.012,2.042-0.036v-0.711c-0.435-0.06-0.784-0.208-1.052-0.445c-0.267-0.237-0.4-0.527-0.4-0.869
				c0-0.402,0.172-0.728,0.515-0.977c0.344-0.249,0.785-0.374,1.325-0.374c0.551,0,0.996,0.123,1.333,0.369
				c0.338,0.246,0.506,0.573,0.506,0.981c0,0.348-0.132,0.641-0.396,0.877c-0.265,0.237-0.616,0.382-1.057,0.437v0.666
				c0.804-0.042,1.487-0.099,2.051-0.171L84.084,147.641z M83.891,143.529h-4.567v-0.657h4.567V143.529z M82.65,142.358h-2.191
				v-0.648h2.191V142.358z M82.606,145.202c0-0.204-0.097-0.372-0.29-0.504s-0.443-0.198-0.748-0.198
				c-0.3,0-0.546,0.067-0.739,0.203c-0.194,0.135-0.291,0.301-0.291,0.5c0,0.192,0.097,0.357,0.291,0.495
				c0.193,0.138,0.439,0.207,0.739,0.207c0.305,0,0.555-0.069,0.748-0.207C82.509,145.559,82.606,145.394,82.606,145.202z
				 M86.453,145.49h-1.188v3.699h-0.766v-7.866h0.766v3.501h1.188V145.49z"/>
		</g>
	</g>
	<g>
		<path fill="#FEFDBE" stroke="#B5B5B6" stroke-width="0.355" stroke-miterlimit="10" d="M140.113,188.71H13.494
			c-1.786,0-3.248-1.461-3.248-3.248V170.28c0-1.786,1.461-3.248,3.248-3.248h126.619c1.786,0,3.248,1.461,3.248,3.248v15.182
			C143.361,187.248,141.899,188.71,140.113,188.71z"/>
		<g>
			<path d="M21.983,180.743v-5.364h-1.752v-0.684h4.269v0.684h-1.751v5.364H21.983z"/>
			<path d="M25.913,183.95c-0.394,0-0.71-0.084-0.95-0.252l0.093-0.356c0.096,0.066,0.22,0.121,0.372,0.165s0.293,0.065,0.423,0.065
				c0.274,0,0.485-0.06,0.634-0.179c0.149-0.118,0.224-0.286,0.224-0.504c0-0.213-0.073-0.373-0.221-0.479s-0.351-0.16-0.61-0.16
				h-0.334v-0.383h0.303c0.223-0.004,0.4-0.059,0.534-0.165c0.133-0.107,0.2-0.253,0.2-0.438c0-0.378-0.227-0.566-0.678-0.566
				c-0.223,0-0.474,0.08-0.754,0.241l-0.067-0.367c0.109-0.07,0.253-0.132,0.429-0.184c0.176-0.053,0.34-0.079,0.49-0.079
				c0.318,0,0.572,0.078,0.762,0.233c0.19,0.156,0.285,0.372,0.285,0.648c0,0.398-0.218,0.673-0.652,0.823
				c0.517,0.099,0.775,0.394,0.775,0.887c0,0.315-0.114,0.568-0.342,0.761S26.295,183.95,25.913,183.95z"/>
			<path d="M33.956,177.539l-0.414,0.603c-0.275-0.138-0.562-0.358-0.862-0.661c-0.299-0.303-0.505-0.59-0.616-0.859
				c-0.094,0.312-0.289,0.641-0.585,0.985c-0.297,0.345-0.615,0.613-0.955,0.806l-0.467-0.576c0.458-0.252,0.843-0.604,1.153-1.058
				s0.467-0.952,0.467-1.498v-0.945h0.757v0.927c0,0.534,0.154,1.001,0.462,1.399C33.204,177.061,33.557,177.353,33.956,177.539z
				 M35.981,179.154c0.47,0.268,0.704,0.632,0.704,1.094s-0.234,0.826-0.704,1.094c-0.47,0.267-1.118,0.4-1.945,0.4
				c-0.821,0-1.465-0.134-1.932-0.4c-0.467-0.268-0.7-0.632-0.7-1.094s0.233-0.826,0.7-1.094c0.467-0.267,1.11-0.4,1.932-0.4
				C34.863,178.754,35.511,178.888,35.981,179.154z M34.036,179.402c-0.552,0-0.991,0.077-1.32,0.23
				c-0.328,0.152-0.492,0.358-0.492,0.616s0.162,0.462,0.488,0.611c0.325,0.15,0.767,0.226,1.324,0.226
				c0.563,0,1.011-0.075,1.343-0.226c0.331-0.149,0.497-0.354,0.497-0.611s-0.166-0.464-0.497-0.616
				C35.046,179.479,34.599,179.402,34.036,179.402z M36.606,178.808h-0.748v-2.231h-0.863v1.827h-0.739v-4.374h0.739v1.898h0.863
				v-2.042h0.748V178.808z"/>
			<path d="M42.133,177.548l-0.458,0.621c-0.369-0.168-0.716-0.406-1.038-0.716c-0.323-0.309-0.558-0.649-0.704-1.021
				c-0.118,0.396-0.348,0.774-0.691,1.134c-0.343,0.36-0.729,0.64-1.157,0.838l-0.484-0.621c0.581-0.252,1.048-0.61,1.399-1.076
				c0.353-0.465,0.528-0.994,0.528-1.588v-0.792h0.792v0.756c0,0.582,0.181,1.095,0.541,1.539
				C41.222,177.066,41.646,177.374,42.133,177.548z M43.414,179.11c0.455,0.273,0.683,0.646,0.683,1.12
				c0,0.475-0.228,0.847-0.683,1.116c-0.455,0.271-1.093,0.405-1.914,0.405c-0.815,0-1.451-0.135-1.905-0.405
				c-0.455-0.27-0.683-0.642-0.683-1.116c0-0.474,0.228-0.847,0.683-1.12c0.454-0.273,1.09-0.409,1.905-0.409
				C42.321,178.7,42.958,178.836,43.414,179.11z M41.499,179.339c-0.563,0-1.004,0.079-1.32,0.238s-0.476,0.377-0.476,0.652
				c0,0.276,0.159,0.492,0.476,0.648s0.757,0.234,1.32,0.234c0.569,0,1.012-0.078,1.329-0.234c0.316-0.156,0.475-0.372,0.475-0.648
				c0-0.275-0.158-0.493-0.475-0.652C42.511,179.418,42.069,179.339,41.499,179.339z M43.25,176.297h-1.479v-0.648h1.479v-1.763
				h0.784v4.805H43.25V176.297z"/>
			<path d="M51.717,177.665h-3.705v-3.195h3.705V177.665z M54.419,181.265l-0.387,0.621c-0.563-0.09-1.08-0.257-1.55-0.499
				c-0.469-0.243-0.792-0.521-0.968-0.833c-0.152,0.306-0.479,0.585-0.977,0.837c-0.499,0.252-1.024,0.414-1.576,0.486l-0.387-0.621
				c0.558-0.03,1.079-0.167,1.566-0.409c0.487-0.243,0.795-0.533,0.924-0.869h-2.165v-0.639h5.29v0.639h-2.209
				c0.135,0.33,0.447,0.618,0.938,0.864C53.409,181.088,53.909,181.229,54.419,181.265z M50.952,177.035v-1.927h-2.174v1.927H50.952
				z M52.721,178.817h-2.403v-0.656h2.403V178.817z M53.962,178.16h-0.784v-4.275h0.784V178.16z"/>
			<path d="M57.843,180.743v-4.474h0.713v0.495H58.6c0.123-0.155,0.295-0.286,0.515-0.392c0.22-0.104,0.444-0.157,0.674-0.157
				c0.123,0,0.214,0.012,0.272,0.036v0.684c-0.123-0.018-0.234-0.026-0.334-0.026c-0.417,0-0.796,0.113-1.136,0.342v3.492H57.843z"
				/>
			<path d="M62.2,180.743v-5.364h-1.752v-0.684h4.269v0.684h-1.751v5.364H62.2z"/>
			<path d="M66.128,183.95c-0.394,0-0.71-0.084-0.95-0.252l0.093-0.356c0.096,0.066,0.22,0.121,0.372,0.165s0.293,0.065,0.423,0.065
				c0.274,0,0.485-0.06,0.634-0.179c0.149-0.118,0.224-0.286,0.224-0.504c0-0.213-0.073-0.373-0.221-0.479s-0.351-0.16-0.61-0.16
				h-0.334v-0.383h0.303c0.223-0.004,0.4-0.059,0.534-0.165c0.133-0.107,0.2-0.253,0.2-0.438c0-0.378-0.227-0.566-0.678-0.566
				c-0.223,0-0.474,0.08-0.754,0.241l-0.067-0.367c0.109-0.07,0.253-0.132,0.429-0.184c0.176-0.053,0.34-0.079,0.49-0.079
				c0.318,0,0.572,0.078,0.762,0.233c0.19,0.156,0.285,0.372,0.285,0.648c0,0.398-0.218,0.673-0.652,0.823
				c0.517,0.099,0.775,0.394,0.775,0.887c0,0.315-0.114,0.568-0.342,0.761S66.511,183.95,66.128,183.95z"/>
			<path d="M73.197,179.762c-0.552,0.072-1.49,0.145-2.816,0.216c-0.692,0.036-1.458,0.061-2.297,0.072l-0.124-0.684
				c0.969,0,1.816-0.019,2.544-0.055c1.109-0.048,1.98-0.107,2.614-0.18L73.197,179.762z M72.501,176.369
				c0,0.534-0.193,0.966-0.581,1.296c-0.387,0.33-0.865,0.495-1.435,0.495c-0.575,0-1.054-0.167-1.435-0.5
				c-0.382-0.333-0.572-0.764-0.572-1.291c0-0.54,0.192-0.984,0.576-1.332c0.385-0.349,0.861-0.522,1.431-0.522
				c0.581,0,1.062,0.171,1.443,0.514C72.311,175.37,72.501,175.818,72.501,176.369z M71.736,176.36c0-0.354-0.119-0.639-0.356-0.854
				c-0.238-0.216-0.536-0.324-0.894-0.324c-0.341,0-0.631,0.112-0.871,0.338c-0.241,0.225-0.361,0.505-0.361,0.841
				c0,0.33,0.119,0.603,0.356,0.815c0.238,0.213,0.529,0.319,0.876,0.319c0.346,0,0.641-0.105,0.885-0.315
				C71.614,176.969,71.736,176.696,71.736,176.36z M73.61,173.885h0.767v7.866H73.61V173.885z"/>
			<path d="M81.866,179.375l-0.467,0.566c-0.299-0.197-0.608-0.496-0.928-0.896c-0.32-0.398-0.53-0.781-0.63-1.147
				c-0.082,0.402-0.27,0.808-0.563,1.216c-0.293,0.407-0.622,0.737-0.985,0.989l-0.493-0.549c0.499-0.33,0.901-0.786,1.206-1.368
				s0.458-1.244,0.458-1.988v-0.738h-1.496v-0.639h3.679v0.639h-1.417v0.711c0,0.75,0.155,1.398,0.466,1.944
				C81.006,178.661,81.396,179.081,81.866,179.375z M82.914,181.364h-0.739v-3.996H81.03v-0.657h1.145v-2.646h0.739V181.364z
				 M84.436,181.751h-0.748v-7.866h0.748V181.751z"/>
			<path d="M89.409,174.722c-0.023,1.225-0.333,2.301-0.929,3.231c-0.596,0.93-1.43,1.694-2.504,2.295l-0.484-0.612
				c0.898-0.432,1.62-1.03,2.165-1.795c0.546-0.766,0.854-1.58,0.925-2.444h-2.702v-0.675H89.409z M91.081,177.701h-1.654v-0.666
				h1.654v-3.15h0.775v7.866h-0.775V177.701z"/>
			<path d="M97.083,174.722c-0.023,1.225-0.331,2.298-0.924,3.223c-0.593,0.924-1.429,1.686-2.509,2.285l-0.476-0.603
				c0.893-0.438,1.609-1.038,2.152-1.8s0.85-1.572,0.92-2.431H93.51v-0.675H97.083z M99.108,173.885v3.221h1.232v0.666h-1.232v3.979
				h-0.774v-7.866H99.108z"/>
			<path d="M109.467,181.688h-5.554v-1.881h4.497v-0.603h-4.497v-0.64h2.244v-0.656h-3.063v-0.657h6.944v0.657h-3.098v0.656h2.244
				v1.846h-4.497v0.621h4.779V181.688z M109.705,176.252l-0.353,0.639c-0.61-0.09-1.178-0.269-1.702-0.535
				c-0.525-0.267-0.888-0.574-1.088-0.923c-0.152,0.354-0.491,0.665-1.017,0.932c-0.524,0.268-1.11,0.442-1.756,0.526l-0.334-0.621
				c0.646-0.048,1.222-0.196,1.729-0.445s0.82-0.58,0.938-0.994h-2.359v-0.639h5.606v0.639h-2.341
				c0.129,0.401,0.459,0.728,0.99,0.977S109.112,176.204,109.705,176.252z"/>
			<path d="M111.245,179.231c-0.334-0.516-0.501-1.185-0.501-2.007c0-0.821,0.167-1.49,0.501-2.007
				c0.335-0.516,0.827-0.774,1.479-0.774c0.599,0,1.061,0.221,1.387,0.662c0.325,0.44,0.515,1.027,0.567,1.76h1.558v-2.979h0.784
				v7.866h-0.784v-4.212h-1.558c-0.047,0.744-0.233,1.341-0.559,1.791c-0.326,0.45-0.791,0.675-1.396,0.675
				C112.072,180.005,111.58,179.747,111.245,179.231z M113.912,177.233c0-0.63-0.104-1.138-0.312-1.525
				c-0.208-0.387-0.5-0.58-0.876-0.58c-0.381,0-0.673,0.192-0.875,0.576c-0.203,0.384-0.304,0.894-0.304,1.529
				c0,0.625,0.101,1.129,0.304,1.513c0.202,0.384,0.494,0.576,0.875,0.576c0.376,0,0.668-0.192,0.876-0.576
				S113.912,177.858,113.912,177.233z"/>
			<path d="M125.265,177.863h-6.944v-0.64h6.944V177.863z M124.614,181.688h-5.526v-1.962h4.479v-0.611h-4.506v-0.64h5.28v1.854
				h-4.479v0.711h4.752V181.688z M124.438,176.621h-5.28v-2.385h5.21v0.639h-4.436v1.098h4.506V176.621z"/>
			<path d="M132.878,178.295h-6.944v-0.648h6.944V178.295z M131.352,174.488c0.466,0.27,0.699,0.633,0.699,1.089
				s-0.234,0.82-0.704,1.093c-0.47,0.273-1.117,0.41-1.945,0.41c-0.827,0-1.474-0.137-1.94-0.41
				c-0.467-0.272-0.699-0.637-0.699-1.093s0.232-0.819,0.699-1.089c0.467-0.271,1.113-0.405,1.94-0.405
				C130.236,174.083,130.885,174.218,131.352,174.488z M132.034,181.643h-5.254v-2.583h5.254V181.643z M131.259,181.013v-1.323
				h-3.696v1.323H131.259z M130.74,176.198c0.335-0.156,0.502-0.363,0.502-0.621s-0.166-0.465-0.497-0.621
				c-0.332-0.156-0.779-0.234-1.343-0.234c-0.557,0-1,0.078-1.328,0.234c-0.329,0.156-0.493,0.363-0.493,0.621
				s0.164,0.465,0.493,0.621c0.328,0.155,0.771,0.233,1.328,0.233C129.959,176.432,130.406,176.354,130.74,176.198z"/>
		</g>
	</g>
	<g>
		<path fill="#FEFDBE" stroke="#B5B5B6" stroke-width="0.25" stroke-miterlimit="10" d="M291.547,91.115h-87.759
			c-1.494,0-2.717-1.223-2.717-2.717V72.155c0-1.494,1.223-2.717,2.717-2.717h87.759c1.495,0,2.717,1.223,2.717,2.717v16.243
			C294.265,89.892,293.042,91.115,291.547,91.115z"/>
		<g>
			<path d="M220.148,82.833c-0.223,0-0.436-0.038-0.638-0.113c-0.203-0.075-0.394-0.193-0.572-0.355
				c-0.18-0.162-0.323-0.388-0.432-0.679s-0.163-0.635-0.163-1.031v-0.126c0-0.78,0.178-1.365,0.533-1.755
				c0.354-0.39,0.825-0.585,1.412-0.585c0.429,0,0.801,0.093,1.118,0.279v-2.16h0.748v6.444h-0.634l-0.07-0.36h-0.044
				C221.119,82.686,220.7,82.833,220.148,82.833z M220.394,82.203c0.394,0,0.73-0.117,1.013-0.351v-2.745
				c-0.211-0.174-0.552-0.261-1.021-0.261c-0.416,0-0.73,0.123-0.941,0.369s-0.316,0.651-0.316,1.215v0.198
				c0,0.57,0.109,0.975,0.33,1.215C219.678,82.083,219.99,82.203,220.394,82.203z"/>
			<path d="M225.165,82.833c-0.681,0-1.198-0.2-1.553-0.599c-0.355-0.399-0.533-0.95-0.533-1.651v-0.135
				c0-0.738,0.184-1.299,0.551-1.683c0.366-0.384,0.825-0.576,1.377-0.576c1.18,0,1.77,0.705,1.77,2.115v0.432h-2.922
				c0.023,0.516,0.155,0.885,0.396,1.107c0.24,0.222,0.587,0.333,1.039,0.333c0.486,0,0.938-0.114,1.355-0.342v0.567
				C226.274,82.689,225.781,82.833,225.165,82.833z M224.972,78.81c-0.287,0-0.538,0.101-0.752,0.301
				c-0.215,0.201-0.336,0.536-0.365,1.003h2.13c0-0.456-0.084-0.788-0.251-0.994C225.566,78.913,225.312,78.81,224.972,78.81z"/>
			<path d="M227.718,77.397v-0.801h0.766v0.801H227.718z M227.718,82.752v-4.473h0.757v4.473H227.718z"/>
			<path d="M231.414,82.833c-0.628,0-1.116-0.197-1.465-0.59c-0.35-0.393-0.524-0.937-0.524-1.633v-0.153
				c0-0.696,0.183-1.248,0.546-1.656c0.364-0.408,0.848-0.612,1.452-0.612c0.628,0,1.118,0.198,1.47,0.594
				c0.353,0.396,0.528,0.945,0.528,1.647v0.144c0,0.696-0.184,1.247-0.55,1.652C232.504,82.63,232.018,82.833,231.414,82.833z
				 M231.432,82.203c0.388,0,0.686-0.134,0.894-0.401c0.208-0.267,0.312-0.649,0.312-1.147v-0.243c0-1.062-0.411-1.593-1.232-1.593
				c-0.381,0-0.678,0.135-0.889,0.405c-0.211,0.27-0.316,0.654-0.316,1.152v0.252C230.2,81.677,230.61,82.203,231.432,82.203z"/>
			<path d="M235.886,82.833c-0.223,0-0.436-0.038-0.638-0.113c-0.203-0.075-0.394-0.193-0.572-0.355
				c-0.18-0.162-0.323-0.388-0.432-0.679s-0.163-0.635-0.163-1.031v-0.126c0-0.78,0.178-1.365,0.533-1.755
				c0.354-0.39,0.825-0.585,1.412-0.585c0.429,0,0.801,0.093,1.118,0.279v-2.16h0.748v6.444h-0.634l-0.07-0.36h-0.044
				C236.856,82.686,236.437,82.833,235.886,82.833z M236.132,82.203c0.394,0,0.73-0.117,1.013-0.351v-2.745
				c-0.211-0.174-0.552-0.261-1.021-0.261c-0.416,0-0.73,0.123-0.941,0.369s-0.316,0.651-0.316,1.215v0.198
				c0,0.57,0.109,0.975,0.33,1.215C235.415,82.083,235.727,82.203,236.132,82.203z"/>
			<path d="M239.107,77.397v-0.801h0.766v0.801H239.107z M239.107,82.752v-4.473h0.757v4.473H239.107z"/>
			<path d="M241.088,82.752v-4.473h0.713v0.387h0.044c0.435-0.318,0.924-0.477,1.47-0.477c0.435,0,0.754,0.099,0.959,0.297
				c0.206,0.198,0.309,0.51,0.309,0.936v3.33h-0.739v-3.168c0-0.264-0.059-0.452-0.176-0.562c-0.118-0.111-0.344-0.167-0.678-0.167
				c-0.358,0-0.743,0.099-1.153,0.297v3.6H241.088z"/>
			<path d="M246.826,82.833c-0.41,0-0.739-0.108-0.985-0.324c-0.246-0.216-0.37-0.531-0.37-0.945c0-0.756,0.44-1.191,1.32-1.305
				l1.162-0.144V79.7c0-0.336-0.078-0.561-0.233-0.675c-0.155-0.114-0.436-0.171-0.841-0.171c-0.287,0-0.637,0.042-1.047,0.126
				v-0.549c0.417-0.162,0.862-0.243,1.338-0.243c1.015,0,1.522,0.441,1.522,1.323v3.24h-0.599l-0.079-0.378h-0.044
				C247.701,82.679,247.319,82.833,246.826,82.833z M247.012,82.238c0.41,0,0.725-0.102,0.941-0.306v-1.233l-0.968,0.099
				c-0.259,0.03-0.446,0.102-0.563,0.216c-0.117,0.114-0.176,0.292-0.176,0.531c0,0.228,0.068,0.4,0.206,0.518
				C246.59,82.18,246.776,82.238,247.012,82.238z"/>
			<path d="M250.989,82.823c-0.592,0-1.064-0.105-1.417-0.315v-0.603c0.452,0.186,0.887,0.279,1.303,0.279
				c0.628,0,0.942-0.207,0.942-0.621c0-0.18-0.055-0.323-0.163-0.428s-0.295-0.193-0.559-0.265l-0.414-0.117
				c-0.352-0.096-0.622-0.237-0.81-0.423s-0.282-0.459-0.282-0.819c0-0.408,0.128-0.73,0.384-0.967
				c0.255-0.237,0.638-0.355,1.148-0.355c0.457,0,0.856,0.087,1.196,0.261v0.621c-0.328-0.156-0.719-0.234-1.17-0.234
				c-0.563,0-0.846,0.198-0.846,0.594c0,0.18,0.048,0.315,0.142,0.405s0.258,0.168,0.492,0.234l0.414,0.108
				c0.44,0.12,0.749,0.273,0.929,0.459c0.179,0.186,0.269,0.471,0.269,0.855c0,0.432-0.139,0.762-0.414,0.99
				S251.477,82.823,250.989,82.823z"/>
			<path d="M255.275,82.833c-0.681,0-1.198-0.2-1.553-0.599c-0.355-0.399-0.533-0.95-0.533-1.651v-0.135
				c0-0.738,0.184-1.299,0.551-1.683c0.366-0.384,0.825-0.576,1.377-0.576c1.18,0,1.77,0.705,1.77,2.115v0.432h-2.922
				c0.023,0.516,0.155,0.885,0.396,1.107c0.24,0.222,0.587,0.333,1.039,0.333c0.486,0,0.938-0.114,1.355-0.342v0.567
				C256.385,82.689,255.892,82.833,255.275,82.833z M255.082,78.81c-0.287,0-0.538,0.101-0.752,0.301
				c-0.215,0.201-0.336,0.536-0.365,1.003h2.13c0-0.456-0.084-0.788-0.251-0.994C255.677,78.913,255.423,78.81,255.082,78.81z"/>
			<path d="M260.072,77.226v-0.657h4.146v0.657h-1.655v0.369c0,0.528,0.183,1.013,0.546,1.454c0.364,0.441,0.78,0.733,1.25,0.877
				l-0.432,0.639c-0.346-0.144-0.685-0.376-1.017-0.698c-0.331-0.321-0.576-0.658-0.734-1.012c-0.123,0.378-0.365,0.753-0.727,1.125
				c-0.36,0.372-0.743,0.642-1.148,0.81l-0.458-0.63c0.517-0.192,0.967-0.531,1.352-1.017c0.384-0.486,0.576-0.996,0.576-1.53
				v-0.387H260.072z M266.339,83.517h-5.229v-2.439h0.774v1.791h4.454V83.517z M266.172,81.635h-0.784v-2.952h-1.479v-0.648h1.479
				v-2.142h0.784V81.635z"/>
			<path d="M272.007,81.249l-0.467,0.594c-0.375-0.252-0.748-0.6-1.117-1.044c-0.37-0.444-0.622-0.879-0.757-1.305
				c-0.13,0.474-0.369,0.942-0.718,1.404s-0.743,0.843-1.184,1.143l-0.484-0.594c0.593-0.378,1.071-0.888,1.435-1.53
				c0.364-0.642,0.546-1.32,0.546-2.034v-1.314h0.801v1.278c0,0.708,0.182,1.362,0.546,1.962
				C270.971,80.408,271.437,80.888,272.007,81.249z M274.612,79.683h-1.197v4.077h-0.774v-7.866h0.774v3.132h1.197V79.683z"/>
			<path d="M284.346,80.403h-6.944v-0.639h6.944V80.403z M284.029,78.603l-0.344,0.639c-0.604-0.09-1.173-0.285-1.707-0.585
				c-0.534-0.3-0.903-0.633-1.109-0.999c-0.164,0.372-0.506,0.708-1.025,1.008c-0.519,0.3-1.104,0.492-1.756,0.576l-0.343-0.63
				c0.651-0.054,1.242-0.231,1.773-0.531c0.531-0.3,0.841-0.675,0.929-1.125h-2.395v-0.648h5.642v0.648h-2.385
				c0.105,0.444,0.436,0.819,0.99,1.125C282.854,78.386,283.431,78.561,284.029,78.603z M283.527,82.338
				c0,0.444-0.231,0.791-0.695,1.04c-0.463,0.249-1.117,0.374-1.963,0.374c-0.839,0-1.49-0.125-1.953-0.374
				c-0.464-0.249-0.695-0.596-0.695-1.04c0-0.438,0.231-0.781,0.695-1.03c0.463-0.249,1.114-0.374,1.953-0.374
				c0.846,0,1.5,0.121,1.963,0.364C283.296,81.541,283.527,81.887,283.527,82.338z M280.869,81.572c-0.568,0-1.02,0.068-1.351,0.203
				c-0.332,0.135-0.497,0.323-0.497,0.562c0,0.246,0.164,0.435,0.493,0.567c0.328,0.132,0.78,0.198,1.354,0.198
				c0.581,0,1.037-0.066,1.369-0.198c0.331-0.132,0.497-0.321,0.497-0.567c0-0.24-0.167-0.428-0.502-0.562
				C281.899,81.64,281.444,81.572,280.869,81.572z"/>
			<path d="M288.932,76.731c-0.023,1.224-0.331,2.298-0.924,3.222c-0.593,0.924-1.429,1.686-2.509,2.286l-0.476-0.603
				c0.893-0.438,1.609-1.038,2.152-1.8c0.543-0.762,0.85-1.572,0.92-2.43h-2.737v-0.675H288.932z M290.956,75.894v3.222h1.232v0.666
				h-1.232v3.978h-0.774v-7.866H290.956z"/>
		</g>
	</g>
	<g>
		<path fill="#FEFDBE" stroke="#B5B5B6" stroke-width="0.273" stroke-miterlimit="10" d="M291.286,123.652h-105.21
			c-1.632,0-2.967-1.335-2.967-2.967v-15.743c0-1.632,1.335-2.967,2.967-2.967h105.21c1.632,0,2.967,1.335,2.967,2.967v15.743
			C294.253,122.317,292.918,123.652,291.286,123.652z"/>
		<g>
			<path d="M192.851,115.289v-6.048h1.787c0.903,0,1.591,0.238,2.063,0.715s0.709,1.189,0.709,2.137v0.18
				c0,0.966-0.228,1.71-0.683,2.232s-1.146,0.783-2.072,0.783H192.851z M193.625,114.605h1.048c0.656,0,1.138-0.175,1.443-0.526
				c0.305-0.351,0.457-0.914,0.457-1.688v-0.297c0-0.786-0.167-1.342-0.501-1.669c-0.335-0.327-0.84-0.49-1.515-0.49h-0.933V114.605
				z"/>
			<path d="M199.285,115.325v-5.292l-1.073,0.243v-0.459l1.426-0.675h0.422v6.183H199.285z"/>
			<path d="M201.23,116.504l0.309-1.818h0.889l-0.546,1.818H201.23z"/>
			<path d="M206.211,115.289v-6.048h1.787c0.903,0,1.591,0.238,2.063,0.715c0.473,0.477,0.709,1.189,0.709,2.137v0.18
				c0,0.966-0.228,1.71-0.683,2.232c-0.455,0.522-1.145,0.783-2.072,0.783H206.211z M206.986,114.605h1.048
				c0.656,0,1.138-0.175,1.443-0.526c0.305-0.351,0.457-0.914,0.457-1.688v-0.297c0-0.786-0.167-1.342-0.501-1.669
				c-0.335-0.327-0.84-0.49-1.515-0.49h-0.933V114.605z"/>
			<path d="M211.685,115.289v-0.468l1.355-1.44c0.492-0.528,0.852-0.967,1.078-1.318c0.226-0.351,0.339-0.718,0.339-1.103
				c0-0.396-0.097-0.688-0.291-0.877c-0.193-0.189-0.495-0.284-0.906-0.284c-0.405,0-0.842,0.159-1.312,0.477l-0.185-0.612
				c0.528-0.36,1.076-0.54,1.646-0.54c0.599,0,1.06,0.156,1.382,0.468c0.323,0.312,0.484,0.741,0.484,1.287
				c0,0.486-0.131,0.932-0.392,1.336c-0.262,0.405-0.68,0.905-1.254,1.499l-0.881,0.909h2.641v0.666H211.685z"/>
			<path d="M222.563,112.211h-3.705v-3.195h3.705V112.211z M225.266,115.811l-0.387,0.621c-0.563-0.09-1.08-0.257-1.55-0.5
				c-0.469-0.243-0.792-0.521-0.968-0.833c-0.152,0.306-0.479,0.585-0.977,0.837c-0.499,0.252-1.024,0.414-1.576,0.486l-0.387-0.621
				c0.558-0.03,1.079-0.167,1.566-0.409c0.487-0.243,0.795-0.533,0.924-0.869h-2.165v-0.639h5.29v0.639h-2.209
				c0.135,0.33,0.447,0.618,0.938,0.864C224.255,115.634,224.755,115.775,225.266,115.811z M221.798,111.581v-1.926h-2.174v1.926
				H221.798z M223.567,113.362h-2.403v-0.657h2.403V113.362z M224.809,112.706h-0.784v-4.275h0.784V112.706z"/>
			<path d="M228.812,115.289v-6.048h1.787c0.903,0,1.591,0.238,2.063,0.715s0.709,1.189,0.709,2.137v0.18
				c0,0.966-0.228,1.71-0.683,2.232s-1.146,0.783-2.072,0.783H228.812z M229.587,114.605h1.048c0.656,0,1.138-0.175,1.443-0.526
				c0.305-0.351,0.457-0.914,0.457-1.688v-0.297c0-0.786-0.167-1.342-0.501-1.669c-0.335-0.327-0.84-0.49-1.515-0.49h-0.933V114.605
				z"/>
			<path d="M235.818,115.379c-0.675,0-1.218-0.144-1.628-0.432l0.158-0.612c0.164,0.114,0.377,0.208,0.638,0.284
				c0.262,0.075,0.503,0.112,0.727,0.112c0.469,0,0.831-0.102,1.087-0.306c0.255-0.204,0.383-0.492,0.383-0.864
				c0-0.366-0.126-0.641-0.379-0.824c-0.252-0.183-0.602-0.274-1.047-0.274h-0.572v-0.657h0.52c0.381-0.006,0.687-0.101,0.915-0.284
				s0.344-0.434,0.344-0.751c0-0.648-0.388-0.972-1.162-0.972c-0.382,0-0.812,0.138-1.294,0.414l-0.114-0.63
				c0.188-0.12,0.433-0.225,0.734-0.315c0.303-0.09,0.583-0.135,0.841-0.135c0.546,0,0.981,0.134,1.308,0.401
				c0.325,0.267,0.488,0.637,0.488,1.111c0,0.684-0.373,1.155-1.118,1.413c0.886,0.168,1.329,0.675,1.329,1.521
				c0,0.54-0.195,0.975-0.585,1.305C236.999,115.214,236.476,115.379,235.818,115.379z"/>
			<path d="M248.069,115.342h-6.944v-0.639h1.761v-0.954h0.757v0.954h1.893v-0.954h0.757v0.954h1.777V115.342z M247.639,110.645
				h-6.091v-0.639h6.091V110.645z M246.353,111.261c0.435,0.237,0.651,0.565,0.651,0.985s-0.217,0.749-0.651,0.985
				c-0.435,0.237-1.019,0.355-1.752,0.355c-0.728,0-1.308-0.118-1.742-0.355c-0.435-0.237-0.651-0.565-0.651-0.985
				s0.216-0.749,0.646-0.985c0.432-0.237,1.014-0.356,1.747-0.356S245.919,111.024,246.353,111.261z M245.751,112.791
				c0.313-0.123,0.471-0.305,0.471-0.544s-0.157-0.423-0.471-0.549c-0.314-0.126-0.697-0.189-1.149-0.189
				c-0.451,0-0.834,0.063-1.148,0.189c-0.313,0.126-0.471,0.31-0.471,0.549s0.157,0.421,0.471,0.544
				c0.314,0.123,0.697,0.185,1.148,0.185C245.054,112.976,245.436,112.914,245.751,112.791z M245.931,109.421h-2.675v-0.648h2.675
				V109.421z"/>
			<path d="M255.683,115.298h-6.944v-0.648h3.063v-1.953h0.783v1.953h3.098V115.298z M255.436,112.256l-0.423,0.63
				c-0.604-0.174-1.178-0.477-1.72-0.909c-0.543-0.432-0.905-0.87-1.088-1.314c-0.152,0.45-0.501,0.89-1.047,1.318
				c-0.546,0.429-1.133,0.728-1.761,0.896l-0.396-0.648c0.681-0.12,1.318-0.439,1.914-0.958s0.894-1.09,0.894-1.714v-0.54h0.801
				v0.54c0,0.414,0.155,0.82,0.467,1.219c0.311,0.399,0.681,0.725,1.108,0.977C254.615,112.004,255.031,112.172,255.436,112.256z"/>
			<path d="M263.094,110.24h-4.472v-0.621h4.472V110.24z M262.68,111.833c0,0.372-0.164,0.675-0.492,0.909
				c-0.329,0.234-0.761,0.351-1.294,0.351c-0.534,0-0.964-0.115-1.29-0.346c-0.325-0.231-0.488-0.536-0.488-0.914
				c0-0.384,0.163-0.691,0.488-0.922c0.326-0.231,0.756-0.347,1.29-0.347c0.533,0,0.965,0.116,1.294,0.347
				C262.516,111.141,262.68,111.449,262.68,111.833z M264.607,116.216h-4.885v-2.844h0.774v0.774h3.336v-0.783h0.774V116.216z
				 M261.958,109.133h-2.183v-0.63h2.183V109.133z M261.905,111.833c0-0.198-0.1-0.358-0.299-0.481
				c-0.2-0.123-0.438-0.185-0.713-0.185c-0.282,0-0.521,0.062-0.718,0.185s-0.295,0.283-0.295,0.481c0,0.192,0.1,0.35,0.3,0.473
				c0.199,0.123,0.437,0.185,0.713,0.185c0.275,0,0.513-0.062,0.713-0.185C261.806,112.182,261.905,112.025,261.905,111.833z
				 M263.833,115.577v-0.801h-3.336v0.801H263.833z M265.752,111.311h-1.145v1.665h-0.774v-4.545h0.774v2.214h1.145V111.311z"/>
			<path d="M270.689,112.093l-0.458,0.621c-0.369-0.168-0.716-0.406-1.038-0.715c-0.323-0.309-0.558-0.649-0.704-1.021
				c-0.118,0.396-0.348,0.774-0.691,1.134c-0.343,0.36-0.729,0.639-1.157,0.837l-0.484-0.621c0.581-0.252,1.048-0.61,1.399-1.076
				c0.353-0.465,0.528-0.995,0.528-1.588v-0.792h0.792v0.756c0,0.582,0.181,1.095,0.541,1.539
				C269.778,111.611,270.202,111.92,270.689,112.093z M271.97,113.655c0.455,0.273,0.683,0.647,0.683,1.121
				c0,0.474-0.228,0.846-0.683,1.116s-1.093,0.405-1.914,0.405c-0.815,0-1.451-0.135-1.905-0.405
				c-0.455-0.27-0.683-0.642-0.683-1.116c0-0.474,0.228-0.847,0.683-1.121c0.454-0.273,1.09-0.409,1.905-0.409
				C270.877,113.246,271.515,113.382,271.97,113.655z M270.056,113.884c-0.563,0-1.004,0.08-1.32,0.239s-0.476,0.376-0.476,0.652
				c0,0.276,0.159,0.492,0.476,0.648c0.316,0.156,0.757,0.234,1.32,0.234c0.569,0,1.012-0.078,1.329-0.234
				c0.316-0.156,0.475-0.372,0.475-0.648c0-0.276-0.158-0.493-0.475-0.652C271.067,113.964,270.625,113.884,270.056,113.884z
				 M271.807,110.842h-1.479v-0.648h1.479v-1.764h0.784v4.806h-0.784V110.842z"/>
			<path d="M283.151,112.94h-6.944V112.3h6.944V112.94z M282.835,111.14l-0.344,0.639c-0.604-0.09-1.173-0.285-1.707-0.585
				c-0.534-0.3-0.903-0.633-1.109-0.999c-0.164,0.372-0.506,0.708-1.025,1.008c-0.519,0.3-1.104,0.492-1.756,0.576l-0.343-0.63
				c0.651-0.054,1.242-0.231,1.773-0.531c0.531-0.3,0.841-0.675,0.929-1.125h-2.395v-0.648h5.642v0.648h-2.385
				c0.105,0.444,0.436,0.819,0.99,1.125C281.66,110.924,282.236,111.098,282.835,111.14z M282.333,114.875
				c0,0.444-0.231,0.791-0.695,1.04c-0.463,0.249-1.117,0.374-1.963,0.374c-0.839,0-1.49-0.125-1.953-0.374
				c-0.464-0.249-0.695-0.596-0.695-1.04c0-0.438,0.231-0.781,0.695-1.03c0.463-0.249,1.114-0.374,1.953-0.374
				c0.846,0,1.5,0.121,1.963,0.364C282.102,114.078,282.333,114.425,282.333,114.875z M279.675,114.11
				c-0.568,0-1.02,0.068-1.351,0.203c-0.332,0.135-0.497,0.323-0.497,0.562c0,0.246,0.164,0.435,0.493,0.567
				c0.328,0.132,0.78,0.198,1.354,0.198c0.581,0,1.037-0.066,1.369-0.198c0.331-0.132,0.497-0.321,0.497-0.567
				c0-0.24-0.167-0.428-0.502-0.562C280.705,114.177,280.25,114.11,279.675,114.11z"/>
			<path d="M287.737,109.268c-0.023,1.224-0.331,2.298-0.924,3.222c-0.593,0.924-1.429,1.686-2.509,2.286l-0.476-0.603
				c0.893-0.438,1.609-1.038,2.152-1.8c0.543-0.762,0.85-1.572,0.92-2.43h-2.737v-0.675H287.737z M289.762,108.431v3.222h1.232
				v0.666h-1.232v3.978h-0.774v-7.866H289.762z"/>
		</g>
	</g>
	<g>
		<path fill="#FEFDBE" stroke="#B5B5B6" stroke-width="0.25" stroke-miterlimit="10" d="M291.547,156.165h-87.759
			c-1.494,0-2.717-1.223-2.717-2.717v-16.243c0-1.494,1.223-2.717,2.717-2.717h87.759c1.495,0,2.717,1.223,2.717,2.717v16.243
			C294.265,154.943,293.042,156.165,291.547,156.165z"/>
		<g>
			<path d="M225.61,147.802v-6.048h1.787c0.903,0,1.591,0.238,2.063,0.715s0.709,1.189,0.709,2.137v0.18
				c0,0.966-0.228,1.71-0.683,2.232s-1.146,0.783-2.072,0.783H225.61z M226.385,147.118h1.048c0.656,0,1.138-0.175,1.443-0.526
				c0.305-0.351,0.457-0.914,0.457-1.688v-0.297c0-0.786-0.167-1.342-0.501-1.669c-0.335-0.327-0.84-0.49-1.515-0.49h-0.933V147.118
				z"/>
			<path d="M232.616,147.892c-0.675,0-1.218-0.144-1.628-0.432l0.158-0.612c0.164,0.114,0.377,0.208,0.638,0.284
				c0.262,0.075,0.503,0.112,0.727,0.112c0.469,0,0.831-0.102,1.087-0.306c0.255-0.204,0.383-0.492,0.383-0.864
				c0-0.366-0.126-0.641-0.379-0.824c-0.252-0.183-0.602-0.274-1.047-0.274h-0.572v-0.657h0.52c0.381-0.006,0.687-0.101,0.915-0.284
				s0.344-0.434,0.344-0.751c0-0.648-0.388-0.972-1.162-0.972c-0.382,0-0.812,0.138-1.294,0.414l-0.114-0.63
				c0.188-0.12,0.433-0.225,0.734-0.315c0.303-0.09,0.583-0.135,0.841-0.135c0.546,0,0.981,0.134,1.308,0.401
				c0.325,0.267,0.488,0.637,0.488,1.111c0,0.684-0.373,1.155-1.118,1.413c0.886,0.168,1.329,0.675,1.329,1.521
				c0,0.54-0.195,0.975-0.585,1.305C233.797,147.727,233.273,147.892,232.616,147.892z"/>
			<path d="M244.867,147.856h-6.944v-0.639h1.761v-0.954h0.757v0.954h1.893v-0.954h0.757v0.954h1.777V147.856z M244.436,143.158
				h-6.091v-0.639h6.091V143.158z M243.151,143.775c0.435,0.237,0.651,0.565,0.651,0.985s-0.217,0.749-0.651,0.985
				c-0.435,0.237-1.019,0.355-1.752,0.355c-0.728,0-1.308-0.118-1.742-0.355c-0.435-0.237-0.651-0.565-0.651-0.985
				s0.216-0.749,0.646-0.985c0.432-0.237,1.014-0.356,1.747-0.356S242.717,143.537,243.151,143.775z M242.549,145.304
				c0.313-0.123,0.471-0.305,0.471-0.544s-0.157-0.423-0.471-0.549c-0.314-0.126-0.697-0.189-1.149-0.189
				c-0.451,0-0.834,0.063-1.148,0.189c-0.313,0.126-0.471,0.31-0.471,0.549s0.157,0.421,0.471,0.544
				c0.314,0.123,0.697,0.185,1.148,0.185C241.852,145.489,242.234,145.427,242.549,145.304z M242.728,141.934h-2.675v-0.648h2.675
				V141.934z"/>
			<path d="M252.48,147.811h-6.944v-0.648h3.063v-1.953h0.783v1.953h3.098V147.811z M252.234,144.769l-0.423,0.63
				c-0.604-0.174-1.178-0.477-1.72-0.909c-0.543-0.432-0.905-0.87-1.088-1.314c-0.152,0.45-0.501,0.89-1.047,1.318
				c-0.546,0.429-1.133,0.728-1.761,0.896l-0.396-0.648c0.681-0.12,1.318-0.439,1.914-0.958s0.894-1.09,0.894-1.714v-0.54h0.801
				v0.54c0,0.414,0.155,0.82,0.467,1.219c0.311,0.399,0.681,0.725,1.108,0.977C251.413,144.517,251.829,144.685,252.234,144.769z"/>
			<path d="M259.592,143.725c0,0.276-0.123,0.497-0.369,0.662s-0.578,0.269-0.995,0.311v0.351c0.922-0.054,1.576-0.114,1.963-0.18
				l0.079,0.594c-0.722,0.096-1.54,0.171-2.455,0.225c-1.162,0.048-1.96,0.072-2.395,0.072l-0.114-0.63
				c0.61,0,1.326-0.015,2.147-0.045v-0.378c-0.428-0.042-0.767-0.146-1.017-0.311c-0.249-0.165-0.374-0.388-0.374-0.67
				c0-0.318,0.162-0.562,0.484-0.733s0.745-0.256,1.268-0.256c0.54,0,0.971,0.085,1.294,0.256
				C259.431,143.162,259.592,143.407,259.592,143.725z M260.085,142.528h-4.506v-0.603h4.506V142.528z M261.73,148.801h-5.324
				v-1.656h4.26v-0.468h-4.295v-0.585h5.069v1.593h-4.26v0.54h4.55V148.801z M258.861,141.583h-2.147v-0.594h2.147V141.583z
				 M258.554,144.04c0.188-0.072,0.281-0.177,0.281-0.315c0-0.138-0.094-0.243-0.281-0.315s-0.435-0.108-0.739-0.108
				c-0.3,0-0.54,0.036-0.722,0.108s-0.273,0.177-0.273,0.315c0,0.138,0.092,0.243,0.273,0.315c0.182,0.072,0.422,0.108,0.722,0.108
				C258.119,144.148,258.366,144.112,258.554,144.04z M262.585,143.887h-1.145v1.782h-0.766v-4.725h0.766v2.277h1.145V143.887z"/>
			<path d="M267.487,144.607l-0.458,0.621c-0.369-0.168-0.716-0.406-1.038-0.715c-0.323-0.309-0.558-0.649-0.704-1.021
				c-0.118,0.396-0.348,0.774-0.691,1.134c-0.343,0.36-0.729,0.639-1.157,0.837l-0.484-0.621c0.581-0.252,1.048-0.61,1.399-1.076
				c0.353-0.465,0.528-0.995,0.528-1.588v-0.792h0.792v0.756c0,0.582,0.181,1.095,0.541,1.539
				C266.576,144.124,267,144.433,267.487,144.607z M268.768,146.168c0.455,0.273,0.683,0.647,0.683,1.121
				c0,0.474-0.228,0.846-0.683,1.116s-1.093,0.405-1.914,0.405c-0.815,0-1.451-0.135-1.905-0.405
				c-0.455-0.27-0.683-0.642-0.683-1.116c0-0.474,0.228-0.847,0.683-1.121c0.454-0.273,1.09-0.409,1.905-0.409
				C267.675,145.759,268.312,145.895,268.768,146.168z M266.853,146.398c-0.563,0-1.004,0.08-1.32,0.239s-0.476,0.376-0.476,0.652
				c0,0.276,0.159,0.492,0.476,0.648c0.316,0.156,0.757,0.234,1.32,0.234c0.569,0,1.012-0.078,1.329-0.234
				c0.316-0.156,0.475-0.372,0.475-0.648c0-0.276-0.158-0.493-0.475-0.652C267.865,146.477,267.423,146.398,266.853,146.398z
				 M268.604,143.356h-1.479v-0.648h1.479v-1.764h0.784v4.806h-0.784V143.356z"/>
			<path d="M279.949,145.453h-6.944v-0.639h6.944V145.453z M279.633,143.653l-0.344,0.639c-0.604-0.09-1.173-0.285-1.707-0.585
				c-0.534-0.3-0.903-0.633-1.109-0.999c-0.164,0.372-0.506,0.708-1.025,1.008c-0.519,0.3-1.104,0.492-1.756,0.576l-0.343-0.63
				c0.651-0.054,1.242-0.231,1.773-0.531c0.531-0.3,0.841-0.675,0.929-1.125h-2.395v-0.648h5.642v0.648h-2.385
				c0.105,0.444,0.436,0.819,0.99,1.125C278.458,143.437,279.034,143.611,279.633,143.653z M279.131,147.388
				c0,0.444-0.231,0.791-0.695,1.04c-0.463,0.249-1.117,0.374-1.963,0.374c-0.839,0-1.49-0.125-1.953-0.374
				c-0.464-0.249-0.695-0.596-0.695-1.04c0-0.438,0.231-0.781,0.695-1.03c0.463-0.249,1.114-0.374,1.953-0.374
				c0.846,0,1.5,0.121,1.963,0.364C278.899,146.591,279.131,146.938,279.131,147.388z M276.473,146.623
				c-0.568,0-1.02,0.068-1.351,0.203c-0.332,0.135-0.497,0.323-0.497,0.562c0,0.246,0.164,0.435,0.493,0.567
				c0.328,0.132,0.78,0.198,1.354,0.198c0.581,0,1.037-0.066,1.369-0.198c0.331-0.132,0.497-0.321,0.497-0.567
				c0-0.24-0.167-0.428-0.502-0.562C277.503,146.691,277.048,146.623,276.473,146.623z"/>
			<path d="M284.535,141.781c-0.023,1.224-0.331,2.298-0.924,3.222c-0.593,0.924-1.429,1.686-2.509,2.286l-0.476-0.603
				c0.893-0.438,1.609-1.038,2.152-1.8c0.543-0.762,0.85-1.572,0.92-2.43h-2.737v-0.675H284.535z M286.56,140.944v3.222h1.232v0.666
				h-1.232v3.978h-0.774v-7.866H286.56z"/>
		</g>
	</g>
	<g>
		<path fill="#FEFDBE" stroke="#B5B5B6" stroke-width="0.2954" stroke-miterlimit="10" d="M291.031,188.74H167.34
			c-1.766,0-3.211-1.445-3.211-3.211v-15.256c0-1.766,1.445-3.211,3.211-3.211h123.692c1.766,0,3.211,1.445,3.211,3.211v15.256
			C294.242,187.295,292.797,188.74,291.031,188.74z"/>
		<g>
			<path d="M170.495,180.376v-5.364h-1.752v-0.684h4.269v0.684h-1.751v5.364H170.495z"/>
			<path d="M174.994,183.61v-0.761h-1.652v-0.32l1.734-2.582h0.344v2.535h0.574v0.367h-0.574v0.761H174.994z M173.813,182.482h1.186
				v-1.764L173.813,182.482z"/>
			<path d="M181.021,174.031c0.599,0,1.102,0.178,1.509,0.536c0.408,0.356,0.612,0.814,0.612,1.372c0,0.492-0.158,0.9-0.476,1.225
				c-0.316,0.323-0.725,0.524-1.224,0.603v1.287c1.027-0.066,1.702-0.126,2.024-0.18l0.079,0.639
				c-0.628,0.09-1.511,0.162-2.648,0.216c-0.828,0.054-1.556,0.081-2.184,0.081l-0.114-0.684c0.881,0,1.569-0.01,2.068-0.027v-1.323
				c-0.511-0.065-0.929-0.262-1.254-0.589c-0.326-0.327-0.488-0.74-0.488-1.238c0-0.558,0.2-1.017,0.603-1.377
				C179.932,174.211,180.429,174.031,181.021,174.031z M181.021,174.706c-0.364,0-0.671,0.113-0.92,0.342
				c-0.25,0.228-0.374,0.525-0.374,0.891c0,0.354,0.124,0.641,0.374,0.859c0.249,0.22,0.556,0.329,0.92,0.329
				c0.375,0,0.685-0.108,0.929-0.324c0.243-0.216,0.365-0.504,0.365-0.864c0-0.378-0.121-0.678-0.361-0.899
				C181.714,174.817,181.402,174.706,181.021,174.706z M185.915,177.433h-1.188v3.951h-0.766v-7.866h0.766v3.249h1.188V177.433z"/>
			<path d="M190.307,180.376v-5.364h-1.752v-0.684h4.269v0.684h-1.751v5.364H190.307z"/>
			<path d="M194.236,183.583c-0.394,0-0.71-0.084-0.95-0.252l0.093-0.356c0.096,0.066,0.22,0.121,0.372,0.165
				s0.293,0.065,0.423,0.065c0.274,0,0.485-0.06,0.634-0.179c0.149-0.118,0.224-0.286,0.224-0.504c0-0.213-0.073-0.373-0.221-0.479
				s-0.351-0.16-0.61-0.16h-0.334V181.5h0.303c0.223-0.004,0.4-0.059,0.534-0.165c0.133-0.107,0.2-0.253,0.2-0.438
				c0-0.378-0.227-0.566-0.678-0.566c-0.223,0-0.474,0.08-0.754,0.241l-0.067-0.367c0.109-0.07,0.253-0.132,0.429-0.184
				c0.176-0.053,0.34-0.079,0.49-0.079c0.318,0,0.572,0.078,0.762,0.233c0.19,0.156,0.285,0.372,0.285,0.648
				c0,0.398-0.218,0.673-0.652,0.823c0.517,0.099,0.775,0.394,0.775,0.887c0,0.315-0.114,0.568-0.342,0.761
				S194.619,183.583,194.236,183.583z"/>
			<path d="M202.359,179.008l-0.467,0.566c-0.299-0.197-0.608-0.496-0.928-0.896c-0.32-0.398-0.53-0.781-0.63-1.147
				c-0.082,0.402-0.27,0.808-0.563,1.216c-0.293,0.407-0.622,0.737-0.985,0.989l-0.493-0.549c0.499-0.33,0.901-0.786,1.206-1.368
				s0.458-1.244,0.458-1.988v-0.738h-1.496v-0.639h3.679v0.639h-1.417v0.711c0,0.75,0.155,1.398,0.466,1.944
				C201.5,178.294,201.89,178.714,202.359,179.008z M203.407,180.997h-0.739v-3.996h-1.145v-0.657h1.145v-2.646h0.739V180.997z
				 M204.93,181.384h-0.748v-7.866h0.748V181.384z"/>
			<path d="M209.902,174.355c-0.023,1.225-0.333,2.301-0.929,3.231c-0.596,0.93-1.43,1.694-2.504,2.295l-0.484-0.612
				c0.898-0.432,1.62-1.03,2.165-1.795c0.546-0.766,0.854-1.58,0.925-2.444h-2.702v-0.675H209.902z M211.574,177.334h-1.654v-0.666
				h1.654v-3.15h0.775v7.866h-0.775V177.334z"/>
			<path d="M222.919,178.027h-6.944v-0.639h6.944V178.027z M222.602,176.227l-0.344,0.639c-0.604-0.09-1.173-0.284-1.707-0.585
				c-0.534-0.3-0.903-0.633-1.109-0.999c-0.164,0.372-0.506,0.708-1.025,1.009c-0.519,0.3-1.104,0.491-1.756,0.575l-0.343-0.63
				c0.651-0.054,1.242-0.23,1.773-0.53c0.531-0.301,0.841-0.676,0.929-1.125h-2.395v-0.648h5.642v0.648h-2.385
				c0.105,0.443,0.436,0.818,0.99,1.125C221.428,176.011,222.004,176.185,222.602,176.227z M222.101,179.962
				c0,0.443-0.231,0.79-0.695,1.039c-0.463,0.249-1.117,0.374-1.963,0.374c-0.839,0-1.49-0.125-1.953-0.374
				c-0.464-0.249-0.695-0.596-0.695-1.039c0-0.438,0.231-0.781,0.695-1.03c0.463-0.249,1.114-0.374,1.953-0.374
				c0.846,0,1.5,0.121,1.963,0.364C221.869,179.165,222.101,179.512,222.101,179.962z M219.442,179.196
				c-0.568,0-1.02,0.068-1.351,0.203c-0.332,0.135-0.497,0.322-0.497,0.562c0,0.246,0.164,0.435,0.493,0.566
				c0.328,0.133,0.78,0.198,1.354,0.198c0.581,0,1.037-0.065,1.369-0.198c0.331-0.132,0.497-0.32,0.497-0.566
				c0-0.24-0.167-0.428-0.502-0.562C220.473,179.265,220.018,179.196,219.442,179.196z"/>
			<path d="M227.505,174.355c-0.023,1.225-0.331,2.298-0.924,3.223c-0.593,0.924-1.429,1.686-2.509,2.285l-0.476-0.603
				c0.893-0.438,1.609-1.038,2.152-1.8s0.85-1.572,0.92-2.431h-2.737v-0.675H227.505z M229.529,173.518v3.221h1.232v0.666h-1.232
				v3.979h-0.774v-7.866H229.529z"/>
			<path d="M231.069,181.591l0.309-1.818h0.889l-0.546,1.818H231.069z"/>
			<path d="M235.928,180.376v-4.474h0.713v0.495h0.044c0.123-0.155,0.295-0.286,0.515-0.392c0.22-0.104,0.444-0.157,0.674-0.157
				c0.123,0,0.214,0.012,0.272,0.036v0.684c-0.123-0.018-0.234-0.026-0.334-0.026c-0.417,0-0.796,0.113-1.136,0.342v3.492H235.928z"
				/>
			<path d="M240.284,180.376v-5.364h-1.752v-0.684h4.269v0.684h-1.751v5.364H240.284z"/>
			<path d="M244.213,183.583c-0.394,0-0.71-0.084-0.95-0.252l0.093-0.356c0.096,0.066,0.22,0.121,0.372,0.165
				s0.293,0.065,0.423,0.065c0.274,0,0.485-0.06,0.634-0.179c0.149-0.118,0.224-0.286,0.224-0.504c0-0.213-0.073-0.373-0.221-0.479
				s-0.351-0.16-0.61-0.16h-0.334V181.5h0.303c0.223-0.004,0.4-0.059,0.534-0.165c0.133-0.107,0.2-0.253,0.2-0.438
				c0-0.378-0.227-0.566-0.678-0.566c-0.223,0-0.474,0.08-0.754,0.241l-0.067-0.367c0.109-0.07,0.253-0.132,0.429-0.184
				c0.176-0.053,0.34-0.079,0.49-0.079c0.318,0,0.572,0.078,0.762,0.233c0.19,0.156,0.285,0.372,0.285,0.648
				c0,0.398-0.218,0.673-0.652,0.823c0.517,0.099,0.775,0.394,0.775,0.887c0,0.315-0.114,0.568-0.342,0.761
				S244.596,183.583,244.213,183.583z"/>
			<path d="M252.258,177.172l-0.414,0.603c-0.275-0.138-0.562-0.358-0.862-0.661c-0.299-0.303-0.505-0.59-0.616-0.859
				c-0.094,0.312-0.289,0.641-0.585,0.985c-0.297,0.345-0.615,0.613-0.955,0.806l-0.467-0.576c0.458-0.252,0.843-0.604,1.153-1.058
				s0.467-0.952,0.467-1.498v-0.945h0.757v0.927c0,0.534,0.154,1.001,0.462,1.399C251.505,176.694,251.858,176.986,252.258,177.172z
				 M254.282,178.787c0.47,0.268,0.704,0.632,0.704,1.094s-0.234,0.826-0.704,1.094c-0.47,0.267-1.118,0.4-1.945,0.4
				c-0.821,0-1.465-0.134-1.932-0.4c-0.467-0.268-0.7-0.632-0.7-1.094s0.233-0.826,0.7-1.094c0.467-0.267,1.11-0.4,1.932-0.4
				C253.164,178.387,253.812,178.521,254.282,178.787z M252.337,179.034c-0.552,0-0.991,0.077-1.32,0.23
				c-0.328,0.152-0.492,0.358-0.492,0.616s0.162,0.462,0.488,0.611c0.325,0.15,0.767,0.226,1.324,0.226
				c0.563,0,1.011-0.075,1.343-0.226c0.331-0.149,0.497-0.354,0.497-0.611s-0.166-0.464-0.497-0.616
				C253.348,179.112,252.9,179.034,252.337,179.034z M254.907,178.441h-0.748v-2.231h-0.863v1.827h-0.739v-4.374h0.739v1.898h0.863
				v-2.042h0.748V178.441z"/>
			<path d="M260.435,177.181l-0.458,0.621c-0.369-0.168-0.716-0.406-1.038-0.716c-0.323-0.309-0.558-0.649-0.704-1.021
				c-0.118,0.396-0.348,0.774-0.691,1.134c-0.343,0.36-0.729,0.64-1.157,0.838l-0.484-0.621c0.581-0.252,1.048-0.61,1.399-1.076
				c0.353-0.465,0.528-0.994,0.528-1.588v-0.792h0.792v0.756c0,0.582,0.181,1.095,0.541,1.539
				C259.523,176.698,259.947,177.007,260.435,177.181z M261.715,178.742c0.455,0.273,0.683,0.646,0.683,1.12
				c0,0.475-0.228,0.847-0.683,1.116c-0.455,0.271-1.093,0.405-1.914,0.405c-0.815,0-1.451-0.135-1.905-0.405
				c-0.455-0.27-0.683-0.642-0.683-1.116c0-0.474,0.228-0.847,0.683-1.12c0.454-0.273,1.09-0.409,1.905-0.409
				C260.622,178.333,261.26,178.469,261.715,178.742z M259.801,178.972c-0.563,0-1.004,0.079-1.32,0.238s-0.476,0.377-0.476,0.652
				c0,0.276,0.159,0.492,0.476,0.648s0.757,0.234,1.32,0.234c0.569,0,1.012-0.078,1.329-0.234c0.316-0.156,0.475-0.372,0.475-0.648
				c0-0.275-0.158-0.493-0.475-0.652C260.812,179.051,260.37,178.972,259.801,178.972z M261.552,175.93h-1.479v-0.648h1.479v-1.763
				h0.784v4.805h-0.784V175.93z"/>
			<path d="M272.896,178.027h-6.944v-0.639h6.944V178.027z M272.58,176.227l-0.344,0.639c-0.604-0.09-1.173-0.284-1.707-0.585
				c-0.534-0.3-0.903-0.633-1.109-0.999c-0.164,0.372-0.506,0.708-1.025,1.009c-0.519,0.3-1.104,0.491-1.756,0.575l-0.343-0.63
				c0.651-0.054,1.242-0.23,1.773-0.53c0.531-0.301,0.841-0.676,0.929-1.125h-2.395v-0.648h5.642v0.648h-2.385
				c0.105,0.443,0.436,0.818,0.99,1.125C271.405,176.011,271.981,176.185,272.58,176.227z M272.078,179.962
				c0,0.443-0.231,0.79-0.695,1.039c-0.463,0.249-1.117,0.374-1.963,0.374c-0.839,0-1.49-0.125-1.953-0.374
				c-0.464-0.249-0.695-0.596-0.695-1.039c0-0.438,0.231-0.781,0.695-1.03c0.463-0.249,1.114-0.374,1.953-0.374
				c0.846,0,1.5,0.121,1.963,0.364C271.847,179.165,272.078,179.512,272.078,179.962z M269.42,179.196
				c-0.568,0-1.02,0.068-1.351,0.203c-0.332,0.135-0.497,0.322-0.497,0.562c0,0.246,0.164,0.435,0.493,0.566
				c0.328,0.133,0.78,0.198,1.354,0.198c0.581,0,1.037-0.065,1.369-0.198c0.331-0.132,0.497-0.32,0.497-0.566
				c0-0.24-0.167-0.428-0.502-0.562C270.45,179.265,269.995,179.196,269.42,179.196z"/>
			<path d="M277.482,174.355c-0.023,1.225-0.331,2.298-0.924,3.223c-0.593,0.924-1.429,1.686-2.509,2.285l-0.476-0.603
				c0.893-0.438,1.609-1.038,2.152-1.8s0.85-1.572,0.92-2.431h-2.737v-0.675H277.482z M279.507,173.518v3.221h1.232v0.666h-1.232
				v3.979h-0.774v-7.866H279.507z"/>
		</g>
	</g>
	<polygon fill="#727171" points="41.644,61.217 34.787,61.217 38.215,66.581 	"/>
	<polygon fill="#727171" points="41.644,93.733 34.787,93.733 38.215,99.097 	"/>
	<polygon fill="#727171" points="41.644,126.249 34.787,126.249 38.215,131.613 	"/>
	<polygon fill="#727171" points="41.644,158.765 34.787,158.765 38.215,164.129 	"/>
	<polygon fill="#727171" points="272.912,61.217 266.055,61.217 269.484,66.581 	"/>
	<polygon fill="#727171" points="272.912,94.249 266.055,94.249 269.484,99.613 	"/>
	<polygon fill="#727171" points="272.912,127.281 266.055,127.281 269.484,132.645 	"/>
	<polygon fill="#727171" points="272.912,160.314 266.055,160.314 269.484,165.677 	"/>
	<polygon fill="#727171" points="89.705,43.41 89.705,50.267 95.069,46.839 	"/>
	<polygon fill="#727171" points="182.867,43.41 182.867,50.267 188.23,46.839 	"/>
	<polygon fill="#727171" points="107.456,148.59 107.456,141.733 102.092,145.161 	"/>
	<polygon fill="#727171" points="180.94,117.074 180.94,110.217 175.576,113.645 	"/>
	<polyline fill="none" stroke="#727171" stroke-width="0.25" stroke-miterlimit="10" points="106.71,145.032 149.548,145.032 
		149.548,113.839 174.839,113.839 	"/>
	<path fill="#00A0E9" d="M255.819,241.806H49.6c-2.867,0-5.213-2.346-5.213-5.213v-23.896c0-2.867,2.346-5.213,5.213-5.213h206.219
		c2.867,0,5.213,2.346,5.213,5.213v23.896C261.032,239.461,258.686,241.806,255.819,241.806z"/>
	<g>
		<path fill="#FEFDBE" stroke="#B5B5B6" stroke-width="0.3059" stroke-miterlimit="10" d="M148.815,235.355H55.596
			c-1.539,0-2.798-1.259-2.798-2.798v-16.081c0-1.539,1.259-2.798,2.798-2.798h93.219c1.539,0,2.798,1.259,2.798,2.798v16.081
			C151.613,234.096,150.354,235.355,148.815,235.355z"/>
		<g>
			<path d="M67.114,222.303h-4.208v-0.63h4.208V222.303z M66.875,223.743c0,0.378-0.167,0.675-0.502,0.891
				c-0.334,0.216-0.769,0.324-1.302,0.324c-0.517,0-0.943-0.108-1.281-0.324c-0.337-0.216-0.506-0.513-0.506-0.891
				c0-0.366,0.167-0.657,0.502-0.873c0.334-0.216,0.763-0.324,1.285-0.324c0.521,0,0.953,0.108,1.293,0.324
				C66.706,223.086,66.875,223.377,66.875,223.743z M66.198,221.214h-2.235v-0.63h2.235V221.214z M65.806,224.197
				c0.196-0.111,0.295-0.263,0.295-0.454c0-0.192-0.099-0.341-0.295-0.445c-0.196-0.105-0.441-0.158-0.734-0.158
				c-0.288,0-0.53,0.053-0.727,0.158c-0.196,0.104-0.295,0.253-0.295,0.445c0,0.191,0.099,0.343,0.295,0.454
				s0.438,0.167,0.727,0.167C65.365,224.364,65.61,224.309,65.806,224.197z M69.463,228.369h-5.211v-1.818h4.181v-0.54h-4.225
				v-0.612h5.009v1.729h-4.189v0.612h4.436V228.369z M67.254,222.987v-0.621h1.179v-1.836h0.784v4.428h-0.784v-0.648h-1.179v-0.603
				h1.179v-0.72H67.254z"/>
			<path d="M76.654,226.956c0,0.45-0.236,0.8-0.708,1.048c-0.473,0.249-1.125,0.374-1.959,0.374c-0.833,0-1.482-0.125-1.949-0.374
				c-0.467-0.248-0.699-0.598-0.699-1.048c0-0.414,0.196-0.741,0.589-0.981c0.394-0.239,0.945-0.378,1.655-0.414v-0.702h-3.063
				v-0.656h6.944v0.656h-3.098v0.693c0.722,0.036,1.283,0.176,1.686,0.419C76.453,226.213,76.654,226.542,76.654,226.956z
				 M77.138,223.131l-0.353,0.63c-0.604-0.084-1.17-0.275-1.698-0.576c-0.528-0.3-0.895-0.633-1.101-0.999
				c-0.164,0.372-0.506,0.707-1.025,1.004c-0.519,0.297-1.104,0.487-1.756,0.571l-0.343-0.621c0.634-0.054,1.21-0.224,1.729-0.508
				c0.52-0.285,0.838-0.644,0.955-1.076h-2.359v-0.647h5.606v0.647h-2.341c0.123,0.427,0.455,0.783,0.995,1.071
				C75.988,222.915,76.551,223.083,77.138,223.131z M75.351,226.389c-0.334-0.132-0.789-0.198-1.364-0.198
				c-0.574,0-1.026,0.066-1.354,0.198c-0.329,0.132-0.493,0.324-0.493,0.576s0.164,0.442,0.493,0.571
				c0.328,0.129,0.78,0.193,1.354,0.193c0.581,0,1.037-0.064,1.369-0.193c0.331-0.129,0.497-0.319,0.497-0.571
				S75.686,226.521,75.351,226.389z"/>
			<path d="M82.076,227.388v-5.364h-1.752v-0.684h4.269v0.684h-1.751v5.364H82.076z"/>
			<path d="M86.004,230.595c-0.394,0-0.71-0.084-0.95-0.252l0.093-0.356c0.096,0.066,0.22,0.122,0.372,0.165
				c0.152,0.044,0.293,0.065,0.423,0.065c0.274,0,0.485-0.059,0.634-0.178c0.149-0.119,0.224-0.287,0.224-0.504
				c0-0.213-0.073-0.373-0.221-0.48c-0.147-0.106-0.351-0.16-0.61-0.16h-0.334v-0.383h0.303c0.223-0.003,0.4-0.059,0.534-0.165
				c0.133-0.106,0.2-0.253,0.2-0.438c0-0.377-0.227-0.566-0.678-0.566c-0.223,0-0.474,0.081-0.754,0.241l-0.067-0.367
				c0.109-0.069,0.253-0.131,0.429-0.184s0.34-0.078,0.49-0.078c0.318,0,0.572,0.077,0.762,0.233
				c0.19,0.155,0.285,0.371,0.285,0.647c0,0.398-0.218,0.674-0.652,0.824c0.517,0.098,0.775,0.394,0.775,0.887
				c0,0.314-0.114,0.568-0.342,0.761S86.387,230.595,86.004,230.595z"/>
			<path d="M94.269,224.31h-3.705v-3.194h3.705V224.31z M96.971,227.91l-0.387,0.621c-0.563-0.091-1.08-0.257-1.55-0.5
				c-0.469-0.243-0.792-0.521-0.968-0.832c-0.152,0.306-0.479,0.585-0.977,0.837c-0.499,0.252-1.024,0.414-1.576,0.485l-0.387-0.621
				c0.558-0.029,1.079-0.166,1.566-0.409s0.795-0.532,0.924-0.868h-2.165v-0.64h5.29v0.64h-2.209
				c0.135,0.33,0.447,0.618,0.938,0.864C95.96,227.734,96.46,227.874,96.971,227.91z M93.503,223.68v-1.926H91.33v1.926H93.503z
				 M95.273,225.462H92.87v-0.657h2.403V225.462z M96.514,224.805H95.73v-4.274h0.784V224.805z"/>
			<path d="M101.759,227.388v-5.364h-1.752v-0.684h4.269v0.684h-1.751v5.364H101.759z"/>
			<path d="M106.257,230.621v-0.761h-1.652v-0.32l1.734-2.581h0.344v2.534h0.574v0.367h-0.574v0.761H106.257z M105.077,229.493
				h1.186v-1.763L105.077,229.493z"/>
			<path d="M113.615,226.263c-0.622,0.132-1.541,0.204-2.755,0.216h-0.643V223.5h2.086v-1.431H110.2v-0.648h2.878v2.736h-2.086
				v1.665c1.015,0,1.859-0.072,2.535-0.217C113.556,225.792,113.584,226.011,113.615,226.263z M115.058,228.009h-0.748v-3.852
				h-0.925v-0.648h0.925v-2.799h0.748V228.009z M116.51,228.396h-0.748v-7.865h0.748V228.396z"/>
			<path d="M120.99,224.238h-3.027v-3.357h0.774v0.981h1.479v-0.999h0.774v1.341h0.925v-1.513h0.739v3.925h-0.739v-1.755h-0.925
				V224.238z M120.215,223.59v-1.089h-1.479v1.089H120.215z M124.396,228.342h-5.351v-1.989h4.295v-0.656h-4.313v-0.648h5.088v1.908
				h-4.286v0.729h4.567V228.342z M124.123,224.67h-0.748v-4.14h0.748V224.67z"/>
			<path d="M127.881,221.115h3.485c-0.041,1.02-0.374,1.876-0.999,2.569c-0.625,0.692-1.451,1.181-2.478,1.462l-0.405-0.639
				c0.739-0.149,1.402-0.477,1.989-0.98c0.587-0.505,0.93-1.086,1.03-1.746h-2.623V221.115z M133.497,228.288h-4.876v-2.835h4.876
				V228.288z M132.722,227.658v-1.566h-3.327v1.566H132.722z M134.641,223.185h-1.145v1.872h-0.783v-4.526h0.783v1.998h1.145
				V223.185z"/>
			<path d="M142.113,227.397h-6.944v-0.647h3.063v-1.953h0.783v1.953h3.098V227.397z M141.867,224.355l-0.423,0.631
				c-0.604-0.175-1.178-0.478-1.72-0.909c-0.543-0.433-0.905-0.87-1.088-1.314c-0.152,0.45-0.501,0.89-1.047,1.318
				c-0.546,0.43-1.133,0.728-1.761,0.896l-0.396-0.647c0.681-0.12,1.318-0.439,1.914-0.959c0.596-0.519,0.894-1.09,0.894-1.714
				v-0.54h0.801v0.54c0,0.414,0.155,0.82,0.467,1.219c0.311,0.399,0.681,0.725,1.108,0.977
				C141.045,224.103,141.461,224.271,141.867,224.355z"/>
		</g>
	</g>
	<g>
		<path fill="#FEFDBE" stroke="#B5B5B6" stroke-width="0.2867" stroke-miterlimit="10" d="M248.603,235.355h-81.581
			c-1.443,0-2.623-1.18-2.623-2.623V216.3c0-1.443,1.18-2.623,2.623-2.623h81.581c1.443,0,2.623,1.18,2.623,2.623v16.432
			C251.226,234.175,250.046,235.355,248.603,235.355z"/>
		<g>
			<path d="M178.715,222.303h-4.208v-0.63h4.208V222.303z M178.477,223.743c0,0.378-0.167,0.675-0.502,0.891
				c-0.334,0.216-0.769,0.324-1.302,0.324c-0.517,0-0.943-0.108-1.281-0.324c-0.337-0.216-0.506-0.513-0.506-0.891
				c0-0.366,0.167-0.657,0.502-0.873c0.334-0.216,0.763-0.324,1.285-0.324c0.521,0,0.953,0.108,1.293,0.324
				C178.307,223.086,178.477,223.377,178.477,223.743z M177.799,221.214h-2.235v-0.63h2.235V221.214z M177.407,224.197
				c0.196-0.111,0.295-0.263,0.295-0.454c0-0.192-0.099-0.341-0.295-0.445c-0.196-0.105-0.441-0.158-0.734-0.158
				c-0.288,0-0.53,0.053-0.727,0.158c-0.196,0.104-0.295,0.253-0.295,0.445c0,0.191,0.099,0.343,0.295,0.454
				s0.438,0.167,0.727,0.167C176.966,224.364,177.211,224.309,177.407,224.197z M181.064,228.369h-5.211v-1.818h4.181v-0.54h-4.225
				v-0.612h5.009v1.729h-4.189v0.612h4.436V228.369z M178.855,222.987v-0.621h1.179v-1.836h0.784v4.428h-0.784v-0.648h-1.179v-0.603
				h1.179v-0.72H178.855z"/>
			<path d="M188.255,226.956c0,0.45-0.236,0.8-0.708,1.048c-0.473,0.249-1.125,0.374-1.959,0.374c-0.833,0-1.482-0.125-1.949-0.374
				c-0.467-0.248-0.699-0.598-0.699-1.048c0-0.414,0.196-0.741,0.589-0.981c0.394-0.239,0.945-0.378,1.655-0.414v-0.702h-3.063
				v-0.656h6.944v0.656h-3.098v0.693c0.722,0.036,1.283,0.176,1.686,0.419C188.054,226.213,188.255,226.542,188.255,226.956z
				 M188.739,223.131l-0.353,0.63c-0.604-0.084-1.17-0.275-1.698-0.576c-0.528-0.3-0.895-0.633-1.101-0.999
				c-0.164,0.372-0.506,0.707-1.025,1.004c-0.519,0.297-1.104,0.487-1.756,0.571l-0.343-0.621c0.634-0.054,1.21-0.224,1.729-0.508
				c0.52-0.285,0.838-0.644,0.955-1.076h-2.359v-0.647h5.606v0.647h-2.341c0.123,0.427,0.455,0.783,0.995,1.071
				C187.589,222.915,188.152,223.083,188.739,223.131z M186.952,226.389c-0.334-0.132-0.789-0.198-1.364-0.198
				c-0.574,0-1.026,0.066-1.354,0.198c-0.329,0.132-0.493,0.324-0.493,0.576s0.164,0.442,0.493,0.571
				c0.328,0.129,0.78,0.193,1.354,0.193c0.581,0,1.037-0.064,1.369-0.193c0.331-0.129,0.497-0.319,0.497-0.571
				S187.287,226.521,186.952,226.389z"/>
			<path d="M192.312,227.388v-4.473h0.713v0.495h0.044c0.123-0.156,0.295-0.287,0.515-0.392c0.22-0.105,0.444-0.157,0.674-0.157
				c0.123,0,0.214,0.012,0.272,0.035v0.685c-0.123-0.019-0.234-0.027-0.334-0.027c-0.417,0-0.796,0.114-1.136,0.342v3.492H192.312z"
				/>
			<path d="M196.669,227.388v-5.364h-1.752v-0.684h4.269v0.684h-1.751v5.364H196.669z"/>
			<path d="M200.599,230.595c-0.394,0-0.71-0.084-0.95-0.252l0.093-0.356c0.096,0.066,0.22,0.122,0.372,0.165
				c0.152,0.044,0.293,0.065,0.423,0.065c0.274,0,0.485-0.059,0.634-0.178c0.149-0.119,0.224-0.287,0.224-0.504
				c0-0.213-0.073-0.373-0.221-0.48c-0.147-0.106-0.351-0.16-0.61-0.16h-0.334v-0.383h0.303c0.223-0.003,0.4-0.059,0.534-0.165
				c0.133-0.106,0.2-0.253,0.2-0.438c0-0.377-0.227-0.566-0.678-0.566c-0.223,0-0.474,0.081-0.754,0.241l-0.067-0.367
				c0.109-0.069,0.253-0.131,0.429-0.184s0.34-0.078,0.49-0.078c0.318,0,0.572,0.077,0.762,0.233
				c0.19,0.155,0.285,0.371,0.285,0.647c0,0.398-0.218,0.674-0.652,0.824c0.517,0.098,0.775,0.394,0.775,0.887
				c0,0.314-0.114,0.568-0.342,0.761S200.981,230.595,200.599,230.595z"/>
			<path d="M210.711,226.263c-0.622,0.132-1.541,0.204-2.755,0.216h-0.643V223.5h2.086v-1.431h-2.104v-0.648h2.878v2.736h-2.086
				v1.665c1.015,0,1.859-0.072,2.535-0.217C210.652,225.792,210.681,226.011,210.711,226.263z M212.154,228.009h-0.748v-3.852
				h-0.925v-0.648h0.925v-2.799h0.748V228.009z M213.606,228.396h-0.748v-7.865h0.748V228.396z"/>
			<path d="M218.086,224.238h-3.027v-3.357h0.774v0.981h1.479v-0.999h0.774v1.341h0.925v-1.513h0.739v3.925h-0.739v-1.755h-0.925
				V224.238z M217.311,223.59v-1.089h-1.479v1.089H217.311z M221.492,228.342h-5.351v-1.989h4.295v-0.656h-4.313v-0.648h5.088v1.908
				h-4.286v0.729h4.567V228.342z M221.22,224.67h-0.748v-4.14h0.748V224.67z"/>
			<path d="M231.596,225.039h-6.944v-0.64h6.944V225.039z M231.279,223.239l-0.344,0.639c-0.604-0.09-1.173-0.285-1.707-0.585
				s-0.903-0.633-1.109-0.999c-0.164,0.372-0.506,0.708-1.025,1.008c-0.519,0.3-1.104,0.492-1.756,0.576l-0.343-0.63
				c0.651-0.054,1.242-0.231,1.773-0.531s0.841-0.675,0.929-1.125h-2.395v-0.647h5.642v0.647h-2.385
				c0.105,0.444,0.436,0.819,0.99,1.125S230.681,223.197,231.279,223.239z M230.777,226.974c0,0.444-0.231,0.791-0.695,1.04
				c-0.463,0.249-1.117,0.373-1.963,0.373c-0.839,0-1.49-0.124-1.953-0.373c-0.464-0.249-0.695-0.596-0.695-1.04
				c0-0.438,0.231-0.781,0.695-1.03c0.463-0.249,1.114-0.373,1.953-0.373c0.846,0,1.5,0.121,1.963,0.364
				C230.546,226.178,230.777,226.524,230.777,226.974z M228.119,226.209c-0.568,0-1.02,0.067-1.351,0.202
				c-0.332,0.135-0.497,0.323-0.497,0.562c0,0.246,0.164,0.436,0.493,0.567c0.328,0.132,0.78,0.198,1.354,0.198
				c0.581,0,1.037-0.066,1.369-0.198c0.331-0.132,0.497-0.321,0.497-0.567c0-0.239-0.167-0.428-0.502-0.562
				C229.149,226.277,228.694,226.209,228.119,226.209z"/>
			<path d="M236.182,221.367c-0.023,1.224-0.331,2.298-0.924,3.222s-1.429,1.687-2.509,2.286l-0.476-0.604
				c0.893-0.438,1.609-1.037,2.152-1.8c0.543-0.762,0.85-1.571,0.92-2.43h-2.737v-0.675H236.182z M238.206,220.53v3.222h1.232v0.666
				h-1.232v3.978h-0.774v-7.865H238.206z"/>
		</g>
	</g>
	<polygon fill="#727171" points="134.654,193.963 127.797,193.963 131.226,199.327 	"/>
	<polygon fill="#727171" points="183.557,193.963 176.701,193.963 180.129,199.327 	"/>
	<g>
		<g>
			<path fill="#FFFFFF" d="M24.562,8.196l-0.625,0.945c-0.316-0.108-0.646-0.312-0.99-0.612c-0.343-0.3-0.585-0.609-0.726-0.927
				c-0.105,0.354-0.347,0.701-0.722,1.04c-0.376,0.339-0.757,0.577-1.145,0.715l-0.599-0.936c0.587-0.21,1.043-0.536,1.369-0.977
				c0.325-0.441,0.488-0.956,0.488-1.543V5.28h1.188v0.558c0,0.612,0.159,1.111,0.479,1.499C23.601,7.724,24.028,8.01,24.562,8.196z
				 M26.27,12.75h-5.237V9.825h5.237V12.75z M25.081,11.832v-1.107h-2.878v1.107H25.081z M25.081,4.821h1.188v4.662h-1.188V4.821z"
				/>
			<path fill="#FFFFFF" d="M31.876,7.161h-4.577V6.252h4.577V7.161z M30.97,7.728c0.352,0.288,0.527,0.648,0.527,1.08
				c0,0.432-0.176,0.792-0.527,1.08c-0.353,0.288-0.808,0.432-1.364,0.432c-0.558,0-1.013-0.144-1.364-0.432
				c-0.353-0.288-0.528-0.648-0.528-1.08c0-0.432,0.176-0.792,0.528-1.08c0.352-0.288,0.807-0.432,1.364-0.432
				C30.163,7.296,30.618,7.44,30.97,7.728z M33.68,12.705h-5.395v-2.133h1.196v1.188h4.198V12.705z M28.435,5.919V5.046h2.358v0.873
				H28.435z M28.867,8.808c0,0.174,0.068,0.322,0.206,0.445s0.315,0.185,0.533,0.185c0.217,0,0.396-0.062,0.536-0.185
				c0.142-0.123,0.212-0.271,0.212-0.445c0-0.168-0.07-0.318-0.212-0.45c-0.141-0.132-0.319-0.198-0.536-0.198
				c-0.212,0-0.388,0.066-0.528,0.198S28.867,8.64,28.867,8.808z M33.522,4.821v2.7h1.057v0.972h-1.057v2.367H32.37V4.821H33.522z"
				/>
			<path fill="#FFFFFF" d="M37.641,6.162V5.217h4.128v0.945h-1.373c0.135,0.894,0.675,1.494,1.619,1.8l-0.643,0.909
				c-0.275-0.09-0.569-0.275-0.88-0.554c-0.312-0.279-0.555-0.583-0.73-0.914c-0.111,0.396-0.332,0.747-0.66,1.053
				c-0.329,0.306-0.687,0.522-1.074,0.648l-0.713-0.909c0.546-0.198,0.969-0.46,1.268-0.788c0.3-0.327,0.476-0.742,0.528-1.246
				H37.641z M44.022,12.777h-5.448v-2.169h4.049v-0.396H38.53V9.276h5.272v2.187h-4.058v0.378h4.277V12.777z M43.802,8.943h-1.18
				V4.821h1.18V8.943z"/>
			<path fill="#FFFFFF" d="M48.854,9.222h-3.652V5.361h1.161v1.098h1.329V5.361h1.162V9.222z M51.468,11.193
				c0,0.486-0.247,0.87-0.739,1.152c-0.493,0.282-1.171,0.423-2.033,0.423s-1.539-0.141-2.029-0.423
				c-0.489-0.282-0.734-0.666-0.734-1.152c0-0.492,0.245-0.88,0.734-1.166c0.49-0.285,1.167-0.427,2.029-0.427
				s1.54,0.143,2.033,0.427C51.221,10.313,51.468,10.701,51.468,11.193z M47.692,8.295V7.386h-1.329v0.909H47.692z M49.871,10.72
				c-0.278-0.111-0.671-0.167-1.175-0.167c-0.505,0-0.896,0.056-1.171,0.167c-0.275,0.111-0.413,0.269-0.413,0.473
				c0,0.192,0.139,0.345,0.418,0.459c0.278,0.114,0.667,0.171,1.166,0.171c0.504,0,0.896-0.055,1.175-0.167
				c0.278-0.111,0.418-0.265,0.418-0.463C50.289,10.989,50.149,10.832,49.871,10.72z M51.415,4.821v4.761h-1.18V8.457h-0.968V7.539
				h0.968V6.81h-0.968V5.892h0.968V4.821H51.415z"/>
			<path fill="#FFFFFF" d="M59.028,8.628h-3.811V5.46h3.811V8.628z M61.651,12.057l-0.448,0.945
				c-0.546-0.03-1.059-0.159-1.536-0.387c-0.479-0.228-0.832-0.504-1.061-0.828c-0.193,0.318-0.54,0.591-1.039,0.819
				c-0.498,0.228-1.018,0.354-1.558,0.378l-0.432-0.936c0.587-0.024,1.099-0.127,1.536-0.311c0.438-0.183,0.718-0.43,0.841-0.742
				h-2.121v-0.9h5.589v0.9h-2.165c0.123,0.3,0.403,0.539,0.84,0.715C60.535,11.888,61.052,12.003,61.651,12.057z M57.867,7.719V6.36
				h-1.496v1.359H57.867z M59.793,9.807H57.4V8.97h2.394V9.807z M61.343,9.249h-1.188V4.821h1.188V9.249z"/>
			<path fill="#FFFFFF" d="M69.378,8.304l-0.634,0.927c-0.316-0.102-0.646-0.3-0.985-0.594c-0.341-0.294-0.578-0.603-0.713-0.927
				c-0.112,0.366-0.354,0.719-0.727,1.058s-0.756,0.574-1.148,0.707l-0.59-0.936c0.587-0.204,1.043-0.528,1.369-0.972
				c0.325-0.444,0.488-0.96,0.488-1.548v-0.72h1.188v0.666C67.626,7.11,68.21,7.89,69.378,8.304z M70.997,11.193
				c0,0.498-0.248,0.891-0.743,1.179c-0.496,0.288-1.175,0.432-2.038,0.432c-0.856,0-1.531-0.144-2.024-0.432
				c-0.492-0.288-0.739-0.681-0.739-1.179c0-0.504,0.245-0.903,0.735-1.197s1.166-0.441,2.028-0.441
				c0.863,0,1.542,0.147,2.038,0.441C70.749,10.29,70.997,10.689,70.997,11.193z M68.216,10.509c-0.492,0-0.88,0.062-1.161,0.185
				c-0.282,0.123-0.423,0.29-0.423,0.5s0.141,0.375,0.423,0.495c0.281,0.12,0.669,0.18,1.161,0.18c0.511,0,0.904-0.06,1.18-0.18
				s0.414-0.285,0.414-0.495s-0.14-0.376-0.418-0.5C69.113,10.571,68.721,10.509,68.216,10.509z M72.01,7.719h-1.092V9.51h-1.161
				V4.821h1.161v1.926h1.092V7.719z"/>
			<path fill="#FFFFFF" d="M77.08,10.491l-0.651,0.954c-0.369-0.204-0.716-0.484-1.038-0.841c-0.323-0.357-0.549-0.728-0.678-1.112
				c-0.118,0.414-0.339,0.806-0.665,1.175c-0.325,0.369-0.682,0.652-1.069,0.851l-0.687-0.882c0.604-0.348,1.048-0.751,1.329-1.21
				c0.282-0.459,0.443-1.058,0.484-1.795h-1.54V6.684h4.251v0.945h-1.531c0.041,0.732,0.205,1.317,0.492,1.755
				C76.065,9.822,76.498,10.191,77.08,10.491z M73.506,6.126V5.181h2.358v0.945H73.506z M78.893,12.84h-1.18V9.15h-1.25V8.16h1.25
				V4.821h1.18V12.84z"/>
		</g>
	</g>
	<polygon fill="#727171" points="41.88,27.641 35.023,27.641 38.452,33.004 	"/>
</g>
<g>
</g>
<g>
</g>
<g>
</g>
<g>
</g>
<g>
</g>
<g>
</g>
</svg>
