<?xml version="1.0" encoding="UTF-8"?>
<svg id="_레이어_1" data-name="레이어 1" xmlns="http://www.w3.org/2000/svg" viewBox="0 0 442.374 327.232">
  <defs>
    <style>
      .cls-1 {
        stroke-width: 1.003px;
      }

      .cls-1, .cls-2 {
        stroke: #663a71;
      }

      .cls-1, .cls-2, .cls-3, .cls-4 {
        fill: none;
      }

      .cls-1, .cls-2, .cls-4 {
        stroke-miterlimit: 10;
      }

      .cls-5 {
        fill: #663a71;
      }

      .cls-5, .cls-3 {
        stroke-width: 0px;
      }

      .cls-4 {
        stroke: #231f20;
        stroke-width: 2px;
      }

      .cls-6 {
        fill: #231f20;
        font-family: AppleSDGothicNeoM00, AppleSDGothicNeoM00;
        font-size: 9px;
      }
    </style>
  </defs>
  <polyline class="cls-3" points="0 0 442.374 0 442.374 327.232 0 327.232"/>
  <g>
    <circle class="cls-5" cx="79.64" cy="31.5" r="2.032"/>
    <circle class="cls-5" cx="106.028" cy="49.048" r="2.032"/>
    <circle class="cls-5" cx="110.479" cy="51.758" r="2.032"/>
    <circle class="cls-5" cx="130.253" cy="41.113" r="2.032"/>
    <circle class="cls-5" cx="133.35" cy="51.339" r="2.032"/>
    <circle class="cls-5" cx="137.931" cy="61.145" r="2.032"/>
    <circle class="cls-5" cx="148.963" cy="70.887" r="2.032"/>
    <circle class="cls-5" cx="188.77" cy="61.5" r="2.032"/>
    <circle class="cls-5" cx="137.931" cy="50.177" r="2.032"/>
    <circle class="cls-5" cx="128.802" cy="47.694" r="2.032"/>
    <circle class="cls-5" cx="122.35" cy="55.823" r="2.032"/>
    <circle class="cls-5" cx="118.995" cy="60.726" r="2.032"/>
    <circle class="cls-5" cx="100.415" cy="87.436" r="2.032"/>
    <circle class="cls-5" cx="118.221" cy="112.081" r="2.032"/>
  </g>
  <g>
    <circle class="cls-5" cx="310.737" cy="31.5" r="2.032"/>
    <circle class="cls-5" cx="318.447" cy="112.081" r="2.032"/>
    <circle class="cls-5" cx="349.221" cy="51.758" r="2.032"/>
    <circle class="cls-5" cx="363.737" cy="50.016" r="2.032"/>
    <circle class="cls-5" cx="359.221" cy="55.823" r="2.032"/>
    <circle class="cls-5" cx="368.963" cy="60.694" r="2.032"/>
    <circle class="cls-5" cx="386.124" cy="70.855" r="2.032"/>
    <circle class="cls-5" cx="387.995" cy="51.403" r="2.032"/>
    <circle class="cls-5" cx="392.06" cy="41.097" r="2.032"/>
    <circle class="cls-5" cx="399.963" cy="61.436" r="2.032"/>
    <circle class="cls-5" cx="426.794" cy="61.532" r="2.032"/>
    <circle class="cls-5" cx="353.286" cy="48.629" r="2.032"/>
    <circle class="cls-5" cx="323.77" cy="47.694" r="2.032"/>
    <circle class="cls-5" cx="353.286" cy="87.403" r="2.032"/>
  </g>
  <circle class="cls-5" cx="81.608" cy="252.532" r="2.032"/>
  <circle class="cls-5" cx="102.64" cy="276.565" r="2.032"/>
  <circle class="cls-5" cx="131.415" cy="276.565" r="2.032"/>
  <circle class="cls-5" cx="121.447" cy="267.339" r="2.032"/>
  <circle class="cls-5" cx="112.544" cy="256.113" r="2.032"/>
  <circle class="cls-5" cx="120.64" cy="248.919" r="2.032"/>
  <circle class="cls-5" cx="108.189" cy="241.339" r="2.032"/>
  <circle class="cls-5" cx="124.705" cy="235.823" r="2.032"/>
  <circle class="cls-5" cx="132.673" cy="234.242" r="2.032"/>
  <circle class="cls-5" cx="140.415" cy="219.532" r="2.032"/>
  <circle class="cls-5" cx="191.608" cy="204.919" r="2.032"/>
  <circle class="cls-5" cx="428.323" cy="202.884" r="2.032"/>
  <circle class="cls-5" cx="393.243" cy="232.061" r="2.032"/>
  <circle class="cls-5" cx="364.56" cy="217.323" r="2.032"/>
  <circle class="cls-5" cx="360.108" cy="233.677" r="2.032"/>
  <circle class="cls-5" cx="354.157" cy="239.125" r="2.032"/>
  <circle class="cls-5" cx="350.286" cy="254.125" r="2.032"/>
  <circle class="cls-5" cx="324.689" cy="274.351" r="2.032"/>
  <circle class="cls-5" cx="319.27" cy="246.771" r="2.032"/>
  <circle class="cls-5" cx="311.528" cy="250.448" r="2.032"/>
  <circle class="cls-5" cx="401.227" cy="241.158" r="2.032"/>
  <circle class="cls-5" cx="387.485" cy="252.093" r="2.032"/>
  <circle class="cls-5" cx="370.21" cy="265.158" r="2.032"/>
  <circle class="cls-5" cx="354.35" cy="274.351" r="2.032"/>
  <circle class="cls-5" cx="389.178" cy="248.803" r="2.032"/>
  <circle class="cls-5" cx="140.673" cy="243.371" r="2.032"/>
  <circle class="cls-5" cx="135.963" cy="250.952" r="2.032"/>
  <circle class="cls-5" cx="151.544" cy="254.267" r="2.032"/>
  <g>
    <g>
      <polyline class="cls-2" points="285.237 12.758 288.463 12.758 288.463 132.758"/>
      <line class="cls-1" x1="285.237" y1="130.177" x2="436.237" y2="130.177"/>
      <line class="cls-2" x1="285.237" y1="32.887" x2="287.947" y2="32.887"/>
      <line class="cls-2" x1="285.237" y1="52.359" x2="287.947" y2="52.359"/>
      <line class="cls-2" x1="285.237" y1="71.831" x2="287.947" y2="71.831"/>
      <line class="cls-2" x1="285.237" y1="91.302" x2="287.947" y2="91.302"/>
      <line class="cls-2" x1="285.237" y1="110.774" x2="287.947" y2="110.774"/>
      <line class="cls-2" x1="337.431" y1="132.758" x2="337.431" y2="130.177"/>
      <line class="cls-2" x1="386.56" y1="132.758" x2="386.56" y2="130.177"/>
      <line class="cls-2" x1="435.753" y1="132.758" x2="435.753" y2="130.177"/>
    </g>
    <text class="cls-6" transform="translate(266.151 17.432)"><tspan x="0" y="0">200</tspan><tspan x="10.493" y="19">0</tspan><tspan x="-3.942" y="38">-200</tspan><tspan x="-4.194" y="57">-400</tspan><tspan x="-4.167" y="76">-600</tspan><tspan x="-4.356" y="95">-800</tspan><tspan x="-8.146" y="114">-1000</tspan></text>
    <text class="cls-6" transform="translate(281.731 144.975)"><tspan x="0" y="0">-50</tspan></text>
    <text class="cls-6" transform="translate(330.348 144.705)"><tspan x="0" y="0">-25</tspan></text>
    <text class="cls-6" transform="translate(383.82 144.435)"><tspan x="0" y="0">0</tspan></text>
    <text class="cls-6" transform="translate(430.827 145.516)"><tspan x="0" y="0">25</tspan></text>
  </g>
  <polyline class="cls-2" points="52.798 12.758 56.023 12.758 56.023 132.758"/>
  <line class="cls-1" x1="52.798" y1="130.177" x2="203.798" y2="130.177"/>
  <line class="cls-2" x1="52.798" y1="32.887" x2="55.507" y2="32.887"/>
  <line class="cls-2" x1="52.798" y1="52.359" x2="55.507" y2="52.359"/>
  <line class="cls-2" x1="52.798" y1="71.831" x2="55.507" y2="71.831"/>
  <line class="cls-2" x1="52.798" y1="91.302" x2="55.507" y2="91.302"/>
  <line class="cls-2" x1="52.798" y1="110.774" x2="55.507" y2="110.774"/>
  <line class="cls-2" x1="92.479" y1="132.758" x2="92.479" y2="130.177"/>
  <line class="cls-2" x1="128.866" y1="132.758" x2="128.866" y2="130.177"/>
  <line class="cls-2" x1="165.253" y1="132.758" x2="165.253" y2="130.177"/>
  <line class="cls-2" x1="201.64" y1="132.758" x2="201.64" y2="130.177"/>
  <text class="cls-6" transform="translate(33.712 17.432)"><tspan x="0" y="0">200</tspan><tspan x="10.493" y="19">0</tspan><tspan x="-3.942" y="38">-200</tspan><tspan x="-4.194" y="57">-400</tspan><tspan x="-4.167" y="76">-600</tspan><tspan x="-4.356" y="95">-800</tspan><tspan x="-8.146" y="114">-1000</tspan></text>
  <text class="cls-6" transform="translate(49.292 144.975)"><tspan x="0" y="0">-50</tspan></text>
  <text class="cls-6" transform="translate(89.407 144.705)"><tspan x="0" y="0">0</tspan></text>
  <text class="cls-6" transform="translate(123.918 144.705)"><tspan x="0" y="0">50</tspan></text>
  <text class="cls-6" transform="translate(157.758 144.705)"><tspan x="0" y="0">100</tspan></text>
  <text class="cls-6" transform="translate(194.744 145.516)"><tspan x="0" y="0">150</tspan></text>
  <polyline class="cls-2" points="54.798 179.024 58.024 179.024 58.024 299.024"/>
  <line class="cls-1" x1="54.798" y1="296.444" x2="205.798" y2="296.444"/>
  <line class="cls-2" x1="54.798" y1="199.153" x2="57.507" y2="199.153"/>
  <line class="cls-2" x1="54.798" y1="218.625" x2="57.507" y2="218.625"/>
  <line class="cls-2" x1="54.798" y1="238.097" x2="57.507" y2="238.097"/>
  <line class="cls-2" x1="54.798" y1="257.569" x2="57.507" y2="257.569"/>
  <line class="cls-2" x1="54.798" y1="277.04" x2="57.507" y2="277.04"/>
  <line class="cls-2" x1="94.479" y1="299.024" x2="94.479" y2="296.444"/>
  <line class="cls-2" x1="130.866" y1="299.024" x2="130.866" y2="296.444"/>
  <line class="cls-2" x1="167.254" y1="299.024" x2="167.254" y2="296.444"/>
  <line class="cls-2" x1="203.641" y1="299.024" x2="203.641" y2="296.444"/>
  <text class="cls-6" transform="translate(35.712 183.698)"><tspan x="0" y="0">200</tspan><tspan x="10.493" y="19">0</tspan><tspan x="-3.942" y="38">-200</tspan><tspan x="-4.194" y="57">-400</tspan><tspan x="-4.167" y="76">-600</tspan><tspan x="-4.356" y="95">-800</tspan><tspan x="-8.146" y="114">-1000</tspan></text>
  <text class="cls-6" transform="translate(51.292 311.241)"><tspan x="0" y="0">-50</tspan></text>
  <text class="cls-6" transform="translate(91.407 310.971)"><tspan x="0" y="0">0</tspan></text>
  <text class="cls-6" transform="translate(125.918 310.971)"><tspan x="0" y="0">50</tspan></text>
  <text class="cls-6" transform="translate(159.759 310.971)"><tspan x="0" y="0">100</tspan></text>
  <text class="cls-6" transform="translate(196.744 311.782)"><tspan x="0" y="0">150</tspan></text>
  <g>
    <g>
      <polyline class="cls-2" points="286.237 176.811 289.463 176.811 289.463 296.811"/>
      <line class="cls-1" x1="286.237" y1="294.23" x2="437.237" y2="294.23"/>
      <line class="cls-2" x1="286.237" y1="196.94" x2="288.947" y2="196.94"/>
      <line class="cls-2" x1="286.237" y1="216.412" x2="288.947" y2="216.412"/>
      <line class="cls-2" x1="286.237" y1="235.884" x2="288.947" y2="235.884"/>
      <line class="cls-2" x1="286.237" y1="255.355" x2="288.947" y2="255.355"/>
      <line class="cls-2" x1="286.237" y1="274.827" x2="288.947" y2="274.827"/>
      <line class="cls-2" x1="338.431" y1="296.811" x2="338.431" y2="294.23"/>
      <line class="cls-2" x1="387.56" y1="296.811" x2="387.56" y2="294.23"/>
      <line class="cls-2" x1="436.753" y1="296.811" x2="436.753" y2="294.23"/>
    </g>
    <text class="cls-6" transform="translate(267.151 181.485)"><tspan x="0" y="0">200</tspan><tspan x="10.493" y="19">0</tspan><tspan x="-3.942" y="38">-200</tspan><tspan x="-4.194" y="57">-400</tspan><tspan x="-4.167" y="76">-600</tspan><tspan x="-4.356" y="95">-800</tspan><tspan x="-8.146" y="114">-1000</tspan></text>
    <text class="cls-6" transform="translate(282.731 309.028)"><tspan x="0" y="0">-50</tspan></text>
    <text class="cls-6" transform="translate(331.348 308.758)"><tspan x="0" y="0">-25</tspan></text>
    <text class="cls-6" transform="translate(384.82 308.488)"><tspan x="0" y="0">0</tspan></text>
    <text class="cls-6" transform="translate(431.827 309.569)"><tspan x="0" y="0">25</tspan></text>
  </g>
  <text class="cls-6" transform="translate(11.13 94.761) rotate(-90)"><tspan x="0" y="0">30주 대사적응</tspan><tspan x="11.853" y="9.5">(kcal/d)</tspan></text>
  <text class="cls-6" transform="translate(105.489 161.36)"><tspan x="0" y="0">6년 후 체중증가 %</tspan></text>
  <text class="cls-6" transform="translate(105.489 324.337)"><tspan x="0" y="0">6년 후 체중증가 %</tspan></text>
  <text class="cls-6" transform="translate(345.076 160.665)"><tspan x="0" y="0">6년 후 체중변화 %</tspan></text>
  <text class="cls-6" transform="translate(345.076 324.967)"><tspan x="0" y="0">6년 후 체중변화 %</tspan></text>
  <text class="cls-6" transform="translate(242.227 94.761) rotate(-90)"><tspan x="0" y="0">30주 대사적응</tspan><tspan x="11.853" y="9.5">(kcal/d)</tspan></text>
  <text class="cls-6" transform="translate(242.227 257.078) rotate(-90)"><tspan x="0" y="0">6년후 대사적응</tspan><tspan x="12.996" y="9.5">(kcal/d)</tspan></text>
  <text class="cls-6" transform="translate(9.257 257.078) rotate(-90)"><tspan x="0" y="0">6년후 대사적응</tspan><tspan x="12.996" y="9.5">(kcal/d)</tspan></text>
  <text class="cls-6" transform="translate(166.55 36.432)"><tspan x="0" y="0">r = -0.1</tspan><tspan x="-.576" y="9.5">p= 0.75</tspan></text>
  <text class="cls-6" transform="translate(396.752 87.436)"><tspan x="0" y="0">r = 0.31</tspan><tspan x="-.657" y="9.5">p= 0.28</tspan></text>
  <text class="cls-6" transform="translate(171.44 243.596)"><tspan x="0" y="0">r = 0.59</tspan><tspan x="0" y="9.5">p= 0.025</tspan></text>
  <text class="cls-6" transform="translate(379.272 200.215)"><tspan x="0" y="0">r = 0.54</tspan><tspan x="0" y="9.5">p= 0.045</tspan></text>
  <line class="cls-4" x1="79.64" y1="55.432" x2="188.77" y2="64.565"/>
  <line class="cls-4" x1="310.737" y1="62.726" x2="426.794" y2="55.823"/>
  <line class="cls-4" x1="310.737" y1="263.125" x2="428.826" y2="223.855"/>
  <line class="cls-4" x1="81.673" y1="269.371" x2="191.608" y2="218.625"/>
</svg>