<?xml version="1.0" encoding="utf-8"?>
<!-- Generator: Adobe Illustrator 28.0.0, SVG Export Plug-In . SVG Version: 6.00 Build 0)  -->
<svg version="1.1" id="레이어_1" xmlns="http://www.w3.org/2000/svg" xmlns:xlink="http://www.w3.org/1999/xlink" x="0px"
	 y="0px" viewBox="0 0 391.58 135.052" enable-background="new 0 0 391.58 135.052" xml:space="preserve">
<g>
	<polygon fill="#C9CACA" stroke="#000000" stroke-width="0.5" stroke-miterlimit="10" points="22.406,58.018 10.437,58.018 
		4.452,68.384 10.437,78.75 22.406,78.75 28.391,68.384 	"/>
	<polygon fill="#C9CACA" stroke="#000000" stroke-width="0.5" stroke-miterlimit="10" points="52.464,58.018 40.495,58.018 
		34.51,68.384 40.495,78.75 52.464,78.75 58.449,68.384 	"/>
	<polygon fill="#C9CACA" stroke="#000000" stroke-width="0.5" stroke-miterlimit="10" points="82.522,58.018 70.552,58.018 
		64.567,68.384 70.552,78.75 82.522,78.75 88.506,68.384 	"/>
	<polygon fill="#6B4699" points="118.579,58.018 106.61,58.018 100.625,68.384 106.61,78.75 118.579,78.75 124.564,68.384 	"/>
	<polygon fill="#6B4699" points="148.637,58.018 136.667,58.018 130.683,68.384 136.667,78.75 148.637,78.75 154.621,68.384 	"/>
	<polygon fill="#704698" points="178.694,58.018 166.725,58.018 160.74,68.384 166.725,78.75 178.694,78.75 184.679,68.384 	"/>
	<polygon fill="#F6D369" stroke="#000000" stroke-width="0.5" stroke-miterlimit="10" points="208.752,58.018 196.782,58.018 
		190.798,68.384 196.782,78.75 208.752,78.75 214.736,68.384 	"/>
	<polygon fill="#F6D368" stroke="#000000" stroke-width="0.5" stroke-miterlimit="10" points="238.809,58.018 226.84,58.018 
		220.855,68.384 226.84,78.75 238.809,78.75 244.794,68.384 	"/>
	<polygon fill="#5893C9" stroke="#000000" stroke-width="0.5" stroke-miterlimit="10" points="268.867,58.018 256.897,58.018 
		250.913,68.384 256.897,78.75 268.867,78.75 274.851,68.384 	"/>
	
		<line fill="#FFFFFF" stroke="#000000" stroke-width="0.5" stroke-miterlimit="10" x1="28.391" y1="68.384" x2="34.51" y2="68.384"/>
	
		<line fill="#FFFFFF" stroke="#000000" stroke-width="0.5" stroke-miterlimit="10" x1="58.449" y1="68.384" x2="64.567" y2="68.384"/>
	
		<line fill="#FFFFFF" stroke="#000000" stroke-width="0.5" stroke-miterlimit="10" x1="88.506" y1="68.384" x2="100.625" y2="68.384"/>
	
		<line fill="#FFFFFF" stroke="#000000" stroke-width="0.5" stroke-miterlimit="10" x1="124.564" y1="68.384" x2="130.683" y2="68.384"/>
	
		<line fill="#FFFFFF" stroke="#000000" stroke-width="0.5" stroke-miterlimit="10" x1="154.621" y1="68.384" x2="160.74" y2="68.384"/>
	
		<line fill="#FFFFFF" stroke="#000000" stroke-width="0.5" stroke-miterlimit="10" x1="184.679" y1="68.384" x2="190.798" y2="68.384"/>
	
		<line fill="#FFFFFF" stroke="#000000" stroke-width="0.5" stroke-miterlimit="10" x1="214.736" y1="68.384" x2="220.855" y2="68.384"/>
	
		<line fill="#FFFFFF" stroke="#000000" stroke-width="0.5" stroke-miterlimit="10" x1="244.794" y1="68.384" x2="250.913" y2="68.384"/>
	<polygon fill="#C9CACA" stroke="#000000" stroke-width="0.5" stroke-miterlimit="10" points="82.197,29.063 70.228,29.063 
		64.243,39.429 70.228,49.795 82.197,49.795 88.182,39.429 	"/>
	<polygon fill="#2EA7E0" stroke="#000000" stroke-width="0.5" stroke-miterlimit="10" points="118.416,29.063 106.446,29.063 
		100.462,39.429 106.446,49.795 118.416,49.795 124.401,39.429 	"/>
	<polygon fill="#EA5515" stroke="#000000" stroke-width="0.5" stroke-miterlimit="10" points="178.854,29.063 166.884,29.063 
		160.9,39.429 166.884,49.795 178.854,49.795 184.838,39.429 	"/>
	<polygon fill="#F6D368" stroke="#000000" stroke-width="0.5" stroke-miterlimit="10" points="209.073,29.063 197.103,29.063 
		191.118,39.429 197.103,49.795 209.073,49.795 215.057,39.429 	"/>
	<polygon fill="#5893C9" stroke="#000000" stroke-width="0.5" stroke-miterlimit="10" points="268.808,29.063 256.838,29.063 
		250.853,39.429 256.838,49.795 268.808,49.795 274.792,39.429 	"/>
	<polygon fill="#5893C9" stroke="#000000" stroke-width="0.5" stroke-miterlimit="10" points="268.808,0.25 256.838,0.25 
		250.853,10.616 256.838,20.982 268.808,20.982 274.792,10.616 	"/>
	
		<line fill="#FFFFFF" stroke="#000000" stroke-width="0.5" stroke-miterlimit="10" x1="70.228" y1="49.795" x2="70.552" y2="58.018"/>
	
		<line fill="#FFFFFF" stroke="#000000" stroke-width="0.5" stroke-miterlimit="10" x1="106.446" y1="49.795" x2="106.61" y2="58.018"/>
	
		<line fill="#FFFFFF" stroke="#000000" stroke-width="0.5" stroke-miterlimit="10" x1="166.884" y1="49.795" x2="166.725" y2="58.018"/>
	
		<line fill="#FFFFFF" stroke="#000000" stroke-width="0.5" stroke-miterlimit="10" x1="197.103" y1="49.795" x2="196.782" y2="58.018"/>
	
		<line fill="#FFFFFF" stroke="#000000" stroke-width="0.5" stroke-miterlimit="10" x1="256.838" y1="49.795" x2="256.897" y2="58.018"/>
	
		<line fill="#FFFFFF" stroke="#000000" stroke-width="0.5" stroke-miterlimit="10" x1="256.838" y1="20.982" x2="256.838" y2="29.063"/>
	
		<line fill="#FFFFFF" stroke="#000000" stroke-width="0.5" stroke-miterlimit="10" x1="286.336" y1="68.846" x2="274.851" y2="68.384"/>
	<g>
		
			<line fill="none" stroke="#000000" stroke-width="0.5703" stroke-linecap="square" stroke-miterlimit="1" x1="299.515" y1="78.232" x2="301.098" y2="82.814"/>
		
			<line fill="none" stroke="#000000" stroke-width="0.5703" stroke-linecap="square" stroke-miterlimit="1" x1="307.198" y1="56.214" x2="297.439" y2="45.846"/>
		
			<line fill="none" stroke="#000000" stroke-width="0.5703" stroke-linecap="square" stroke-miterlimit="1" x1="307.648" y1="73.175" x2="308.543" y2="78.138"/>
		
			<line fill="none" stroke="#000000" stroke-width="0.5703" stroke-linecap="square" stroke-miterlimit="1" x1="308.225" y1="64.161" x2="304.826" y2="64.725"/>
		<polyline fill="none" stroke="#000000" stroke-width="0.5703" stroke-linecap="square" stroke-miterlimit="1" points="
			293.297,70.928 294.69,73.175 301.881,69.599 		"/>
		<polyline fill="none" stroke="#000000" stroke-width="0.5703" stroke-linecap="square" stroke-miterlimit="1" points="
			299.515,78.232 301.88,69.599 299.51,63.253 		"/>
		
			<line fill="none" stroke="#000000" stroke-width="0.5703" stroke-linecap="square" stroke-miterlimit="1" x1="307.198" y1="56.214" x2="300.734" y2="60.011"/>
		
			<line fill="none" stroke="#000000" stroke-width="0.5703" stroke-linecap="square" stroke-miterlimit="1" x1="304.826" y1="64.624" x2="307.198" y2="56.316"/>
		<polyline fill-rule="evenodd" clip-rule="evenodd" points="306.34,64.246 304.826,64.725 303.581,64.019 306.699,56.774 
			307.198,56.214 307.449,56.142 306.34,64.246 		"/>
		
			<line fill="none" stroke="#000000" stroke-width="0.5703" stroke-linecap="square" stroke-miterlimit="1" x1="304.826" y1="64.825" x2="307.648" y2="73.075"/>
		<polyline fill-rule="evenodd" clip-rule="evenodd" points="303.58,64.019 304.826,64.725 305.86,64.782 308.569,72.901 
			307.647,73.175 306.382,72.413 303.58,64.019 		"/>
		
			<line fill="none" stroke="#000000" stroke-width="0.5703" stroke-linecap="square" stroke-miterlimit="1" x1="307.54" y1="73.273" x2="299.621" y2="78.129"/>
		<polyline fill-rule="evenodd" clip-rule="evenodd" points="306.381,72.413 307.648,73.175 307.672,74.672 299.806,78.345 
			299.514,78.232 299.938,77.6 306.381,72.413 		"/>
		
			<line fill="none" stroke="#000000" stroke-width="0.5703" stroke-linecap="square" stroke-miterlimit="1" x1="310.783" y1="38.85" x2="302.8" y2="43.437"/>
		<polyline fill-rule="evenodd" clip-rule="evenodd" points="309.646,37.959 310.891,38.752 311.19,40.108 303.062,43.629 
			302.692,43.54 303.083,42.955 309.646,37.959 		"/>
		
			<line fill="none" stroke="#000000" stroke-width="0.5703" stroke-linecap="square" stroke-miterlimit="1" x1="308.33" y1="30.428" x2="310.892" y2="38.652"/>
		<polyline fill-rule="evenodd" clip-rule="evenodd" points="307.096,29.575 308.329,30.326 309.351,30.378 311.821,38.5 
			310.891,38.752 309.645,37.959 307.096,29.575 		"/>
		
			<line fill="none" stroke="#000000" stroke-width="0.5703" stroke-linecap="square" stroke-miterlimit="1" x1="310.596" y1="21.682" x2="308.329" y2="30.227"/>
		<polyline fill-rule="evenodd" clip-rule="evenodd" points="310.127,22.108 310.597,21.58 310.807,21.807 309.838,29.83 
			308.33,30.326 307.095,29.575 310.127,22.108 		"/>
		
			<line fill="none" stroke="#000000" stroke-width="0.5703" stroke-linecap="square" stroke-miterlimit="1" x1="310.596" y1="21.58" x2="303.902" y2="25.332"/>
		
			<line fill="none" stroke="#000000" stroke-width="0.5703" stroke-linecap="square" stroke-miterlimit="1" x1="302.611" y1="28.542" x2="304.826" y2="34.851"/>
		<polyline fill="none" stroke="#000000" stroke-width="0.5703" stroke-linecap="square" stroke-miterlimit="1" points="
			302.691,43.54 304.826,34.851 297.671,38.752 		"/>
		
			<line fill="none" stroke="#000000" stroke-width="0.5703" stroke-linecap="square" stroke-miterlimit="1" x1="296.57" y1="42.114" x2="297.671" y2="38.752"/>
		
			<line fill="none" stroke="#000000" stroke-width="0.5703" stroke-linecap="square" stroke-miterlimit="1" x1="308.329" y1="30.326" x2="311.173" y2="29.825"/>
		
			<line fill="none" stroke="#000000" stroke-width="0.5703" stroke-linecap="square" stroke-miterlimit="1" x1="310.89" y1="38.752" x2="312.021" y2="41.52"/>
		
			<line fill="none" stroke="#000000" stroke-width="0.5703" stroke-linecap="square" stroke-miterlimit="1" x1="310.595" y1="21.58" x2="314.431" y2="21.58"/>
		
			<line fill="none" stroke="#000000" stroke-width="0.5703" stroke-linecap="square" stroke-miterlimit="1" x1="302.69" y1="43.54" x2="304.075" y2="45.293"/>
		<g>
			<path fill="#010101" d="M289.693,71.759c-0.678,0-1.208-0.172-1.592-0.514s-0.575-0.784-0.575-1.325
				c0-0.354,0.09-0.674,0.271-0.959c0.18-0.284,0.431-0.501,0.753-0.65s0.688-0.224,1.096-0.224c0.414,0,0.784,0.078,1.111,0.235
				s0.574,0.38,0.742,0.668s0.252,0.599,0.252,0.933c0,0.361-0.093,0.684-0.278,0.969c-0.186,0.284-0.439,0.5-0.761,0.646
				C290.391,71.685,290.051,71.759,289.693,71.759z M289.701,71.234c0.492,0,0.88-0.124,1.163-0.373s0.425-0.561,0.425-0.937
				c0-0.382-0.144-0.696-0.429-0.943c-0.286-0.247-0.692-0.371-1.218-0.371c-0.332,0-0.622,0.053-0.87,0.158
				s-0.439,0.261-0.576,0.464s-0.205,0.432-0.205,0.685c0,0.36,0.132,0.669,0.395,0.929
				C288.648,71.104,289.086,71.234,289.701,71.234z"/>
		</g>
		<g>
			<path fill="#E60013" d="M301.515,86.953c-0.678,0-1.208-0.172-1.592-0.514s-0.575-0.784-0.575-1.325
				c0-0.354,0.09-0.674,0.271-0.959c0.18-0.284,0.431-0.501,0.753-0.65s0.688-0.224,1.096-0.224c0.414,0,0.784,0.078,1.111,0.235
				s0.574,0.38,0.742,0.668s0.252,0.599,0.252,0.933c0,0.361-0.093,0.684-0.278,0.969c-0.186,0.284-0.439,0.5-0.761,0.646
				C302.213,86.879,301.874,86.953,301.515,86.953z M301.523,86.429c0.492,0,0.88-0.124,1.163-0.373s0.425-0.561,0.425-0.937
				c0-0.382-0.144-0.696-0.429-0.943c-0.286-0.247-0.692-0.371-1.218-0.371c-0.332,0-0.622,0.053-0.87,0.158
				s-0.439,0.261-0.576,0.464s-0.205,0.432-0.205,0.685c0,0.36,0.132,0.669,0.395,0.929
				C300.47,86.299,300.909,86.429,301.523,86.429z"/>
		</g>
		<g>
			<path fill="#010101" d="M294.585,46.256c-0.678,0-1.208-0.172-1.592-0.514s-0.575-0.784-0.575-1.325
				c0-0.354,0.09-0.674,0.271-0.959c0.18-0.284,0.431-0.501,0.753-0.65s0.688-0.224,1.096-0.224c0.414,0,0.784,0.078,1.111,0.235
				s0.574,0.38,0.742,0.668s0.252,0.599,0.252,0.933c0,0.361-0.093,0.684-0.278,0.969c-0.186,0.284-0.439,0.5-0.761,0.646
				C295.284,46.182,294.944,46.256,294.585,46.256z M294.593,45.731c0.492,0,0.88-0.124,1.163-0.373s0.425-0.561,0.425-0.937
				c0-0.382-0.144-0.696-0.429-0.943c-0.286-0.247-0.692-0.371-1.218-0.371c-0.332,0-0.622,0.053-0.87,0.158
				s-0.439,0.261-0.576,0.464s-0.205,0.432-0.205,0.685c0,0.36,0.132,0.669,0.395,0.929
				C293.541,45.602,293.979,45.731,294.593,45.731z"/>
		</g>
		<g>
			<path fill="#010101" d="M312.514,64.627h-4.083v-0.521l3.205-2.017h-3.205v-0.487h4.083v0.521l-3.208,2.017h3.208V64.627z"/>
		</g>
		<g>
			<path fill="#010101" d="M312.486,60.734h-4.083v-0.508h1.677V58.23h-1.677v-0.508h4.083v0.508h-1.925v1.996h1.925V60.734z"/>
		</g>
		<g>
			<path fill="#010101" d="M308.251,82.252c-0.678,0-1.208-0.172-1.592-0.514s-0.575-0.784-0.575-1.325
				c0-0.354,0.09-0.674,0.271-0.959c0.18-0.284,0.431-0.501,0.753-0.65s0.688-0.224,1.096-0.224c0.414,0,0.784,0.078,1.111,0.235
				s0.574,0.38,0.742,0.668s0.252,0.599,0.252,0.933c0,0.361-0.093,0.684-0.278,0.969c-0.186,0.284-0.439,0.5-0.761,0.646
				C308.949,82.178,308.609,82.252,308.251,82.252z M308.258,81.728c0.492,0,0.88-0.124,1.163-0.373s0.425-0.561,0.425-0.937
				c0-0.382-0.144-0.696-0.429-0.943c-0.286-0.247-0.692-0.371-1.218-0.371c-0.332,0-0.622,0.053-0.87,0.158
				s-0.439,0.261-0.576,0.464s-0.205,0.432-0.205,0.685c0,0.36,0.132,0.669,0.395,0.929
				C307.206,81.598,307.644,81.728,308.258,81.728z"/>
		</g>
		<g>
			<path fill="#010101" d="M297.431,62.229c-0.678,0-1.208-0.172-1.592-0.514s-0.575-0.784-0.575-1.325
				c0-0.354,0.09-0.674,0.271-0.959c0.18-0.284,0.431-0.501,0.753-0.65s0.688-0.224,1.096-0.224c0.414,0,0.784,0.078,1.111,0.235
				s0.574,0.38,0.742,0.668s0.252,0.599,0.252,0.933c0,0.361-0.093,0.684-0.278,0.969c-0.186,0.284-0.439,0.5-0.761,0.646
				C298.129,62.154,297.79,62.229,297.431,62.229z M297.439,61.704c0.492,0,0.88-0.124,1.163-0.373s0.425-0.561,0.425-0.937
				c0-0.382-0.144-0.696-0.429-0.943c-0.286-0.247-0.692-0.371-1.218-0.371c-0.332,0-0.622,0.053-0.87,0.158
				s-0.439,0.261-0.576,0.464s-0.205,0.432-0.205,0.685c0,0.36,0.132,0.669,0.395,0.929
				C296.386,61.574,296.825,61.704,297.439,61.704z"/>
		</g>
		<g>
			<path fill="#010101" d="M300.574,27.506c-0.678,0-1.208-0.172-1.592-0.514s-0.575-0.784-0.575-1.325
				c0-0.354,0.09-0.674,0.271-0.959c0.18-0.284,0.431-0.501,0.753-0.65s0.688-0.224,1.096-0.224c0.414,0,0.784,0.078,1.111,0.235
				s0.574,0.38,0.742,0.668s0.252,0.599,0.252,0.933c0,0.361-0.093,0.684-0.278,0.969c-0.186,0.284-0.439,0.5-0.761,0.646
				C301.272,27.432,300.932,27.506,300.574,27.506z M300.582,26.981c0.492,0,0.88-0.124,1.163-0.373s0.425-0.561,0.425-0.937
				c0-0.382-0.144-0.696-0.429-0.943c-0.286-0.247-0.692-0.371-1.218-0.371c-0.332,0-0.622,0.053-0.87,0.158
				s-0.439,0.261-0.576,0.464s-0.205,0.432-0.205,0.685c0,0.36,0.132,0.669,0.395,0.929
				C299.529,26.852,299.967,26.981,300.582,26.981z"/>
		</g>
		<g>
			<path fill="#010101" d="M315.593,30.198h-4.083v-0.521l3.205-2.017h-3.205v-0.487h4.083v0.521l-3.208,2.017h3.208V30.198z"/>
			<path fill="#010101" d="M315.593,26.637h-4.083v-0.508h1.677v-1.996h-1.677v-0.508h4.083v0.508h-1.925v1.996h1.925V26.637z"/>
		</g>
		<g>
			<path fill="#010101" d="M312.54,45.584c-0.678,0-1.208-0.172-1.592-0.514s-0.575-0.784-0.575-1.325
				c0-0.354,0.09-0.674,0.271-0.959c0.18-0.284,0.431-0.501,0.753-0.65s0.688-0.224,1.096-0.224c0.414,0,0.784,0.078,1.111,0.235
				s0.574,0.38,0.742,0.668s0.252,0.599,0.252,0.933c0,0.361-0.093,0.684-0.278,0.969c-0.186,0.284-0.439,0.5-0.761,0.646
				C313.238,45.51,312.898,45.584,312.54,45.584z M312.547,45.06c0.492,0,0.88-0.124,1.163-0.373s0.425-0.561,0.425-0.937
				c0-0.382-0.144-0.696-0.429-0.943c-0.286-0.247-0.692-0.371-1.218-0.371c-0.332,0-0.622,0.053-0.87,0.158
				s-0.439,0.261-0.576,0.464s-0.205,0.432-0.205,0.685c0,0.36,0.132,0.669,0.395,0.929C311.495,44.93,311.933,45.06,312.547,45.06z
				"/>
		</g>
		<g>
			<path fill="#E60013" d="M317.398,23.64c-0.678,0-1.208-0.172-1.592-0.514s-0.575-0.784-0.575-1.325
				c0-0.354,0.09-0.674,0.271-0.959c0.18-0.284,0.431-0.501,0.753-0.65s0.688-0.224,1.096-0.224c0.414,0,0.784,0.078,1.111,0.235
				s0.574,0.38,0.742,0.668s0.252,0.599,0.252,0.933c0,0.361-0.093,0.684-0.278,0.969c-0.186,0.284-0.439,0.5-0.761,0.646
				C318.096,23.565,317.756,23.64,317.398,23.64z M317.406,23.115c0.492,0,0.88-0.124,1.163-0.373s0.425-0.561,0.425-0.937
				c0-0.382-0.144-0.696-0.429-0.943c-0.286-0.247-0.692-0.371-1.218-0.371c-0.332,0-0.622,0.053-0.87,0.158
				s-0.439,0.261-0.576,0.464s-0.205,0.432-0.205,0.685c0,0.36,0.132,0.669,0.395,0.929
				C316.353,22.985,316.792,23.115,317.406,23.115z"/>
		</g>
		<g>
			<path fill="#010101" d="M308.055,52.297h-4.083v-0.508h1.677v-1.996h-1.677v-0.508h4.083v0.508h-1.925v1.996h1.925V52.297z"/>
		</g>
		<g>
			<path fill="#010101" d="M306.152,49.057c-0.678,0-1.208-0.172-1.592-0.514s-0.575-0.784-0.575-1.325
				c0-0.354,0.09-0.674,0.271-0.959c0.18-0.284,0.431-0.501,0.753-0.65s0.688-0.224,1.096-0.224c0.414,0,0.784,0.078,1.111,0.235
				s0.574,0.38,0.742,0.668s0.252,0.599,0.252,0.933c0,0.361-0.093,0.684-0.278,0.969c-0.186,0.284-0.439,0.5-0.761,0.646
				C306.85,48.982,306.51,49.057,306.152,49.057z M306.16,48.532c0.492,0,0.88-0.124,1.163-0.373s0.425-0.561,0.425-0.937
				c0-0.382-0.144-0.696-0.429-0.943c-0.286-0.247-0.692-0.371-1.218-0.371c-0.332,0-0.622,0.053-0.87,0.158
				s-0.439,0.261-0.576,0.464s-0.205,0.432-0.205,0.685c0,0.36,0.132,0.669,0.395,0.929
				C305.107,48.402,305.545,48.532,306.16,48.532z"/>
		</g>
		<polyline fill="none" stroke="#000000" stroke-width="0.5703" stroke-linecap="square" stroke-miterlimit="1" points="
			319.314,31.67 324.108,29.409 328.936,31.67 333.963,29.409 338.592,31.67 		"/>
		<polyline fill="none" stroke="#000000" stroke-width="0.5703" stroke-linecap="square" stroke-miterlimit="1" points="
			338.591,31.67 343.355,29.409 347.988,31.67 352.752,29.409 		"/>
		<polyline fill="none" stroke="#000000" stroke-width="0.5703" stroke-linecap="square" stroke-miterlimit="1" points="
			352.751,29.409 357.679,31.67 362.177,29.409 366.945,31.67 		"/>
		
			<line fill="none" stroke="#000000" stroke-width="0.5703" stroke-linecap="square" stroke-miterlimit="1" x1="366.944" y1="31.67" x2="372.16" y2="29.409"/>
		
			<line fill="none" stroke="#000000" stroke-width="0.5703" stroke-linecap="square" stroke-miterlimit="1" x1="372.16" y1="29.409" x2="376.919" y2="31.67"/>
		
			<line fill="none" stroke="#000000" stroke-width="0.5703" stroke-linecap="square" stroke-miterlimit="1" x1="376.92" y1="31.67" x2="381.525" y2="29.409"/>
		<g>
			<path fill="#010101" d="M319.017,38.875c-0.678,0-1.208-0.172-1.592-0.514s-0.575-0.784-0.575-1.325
				c0-0.354,0.09-0.674,0.271-0.959c0.18-0.284,0.431-0.501,0.753-0.65s0.688-0.224,1.096-0.224c0.414,0,0.784,0.078,1.111,0.235
				s0.574,0.38,0.742,0.668s0.252,0.599,0.252,0.933c0,0.361-0.093,0.684-0.278,0.969c-0.186,0.284-0.439,0.5-0.761,0.646
				C319.715,38.801,319.376,38.875,319.017,38.875z M319.025,38.351c0.492,0,0.88-0.124,1.163-0.373s0.425-0.561,0.425-0.937
				c0-0.382-0.144-0.696-0.429-0.943c-0.286-0.247-0.692-0.371-1.218-0.371c-0.332,0-0.622,0.053-0.87,0.158
				s-0.439,0.261-0.576,0.464s-0.205,0.432-0.205,0.685c0,0.36,0.132,0.669,0.395,0.929
				C317.972,38.221,318.411,38.351,319.025,38.351z"/>
		</g>
		
			<line fill="none" stroke="#000000" stroke-width="0.5703" stroke-linecap="square" stroke-miterlimit="1" x1="319.915" y1="31.384" x2="319.915" y2="34.74"/>
		
			<line fill="none" stroke="#000000" stroke-width="0.5703" stroke-linecap="square" stroke-miterlimit="1" x1="318.714" y1="31.438" x2="318.714" y2="34.741"/>
		<g>
			<path fill="#010101" d="M330.543,42.09h-4.083v-0.508h1.677v-1.996h-1.677v-0.508h4.083v0.508h-1.925v1.996h1.925V42.09z"/>
		</g>
		<g>
			<path fill="#010101" d="M328.639,38.85c-0.678,0-1.208-0.172-1.592-0.514s-0.575-0.784-0.575-1.325
				c0-0.354,0.09-0.674,0.271-0.959c0.18-0.284,0.431-0.501,0.753-0.65s0.688-0.224,1.096-0.224c0.414,0,0.784,0.078,1.111,0.235
				s0.574,0.38,0.742,0.668s0.252,0.599,0.252,0.933c0,0.361-0.093,0.684-0.278,0.969c-0.186,0.284-0.439,0.5-0.761,0.646
				C329.337,38.775,328.998,38.85,328.639,38.85z M328.647,38.325c0.492,0,0.88-0.124,1.163-0.373s0.425-0.561,0.425-0.937
				c0-0.382-0.144-0.696-0.429-0.943c-0.286-0.247-0.692-0.371-1.218-0.371c-0.332,0-0.622,0.053-0.87,0.158
				s-0.439,0.261-0.576,0.464s-0.205,0.432-0.205,0.685c0,0.36,0.132,0.669,0.395,0.929
				C327.594,38.195,328.033,38.325,328.647,38.325z"/>
		</g>
		
			<line fill="none" stroke="#000000" stroke-width="0.5703" stroke-linecap="square" stroke-miterlimit="1" x1="328.936" y1="34.677" x2="328.936" y2="31.772"/>
		<polyline fill-rule="evenodd" clip-rule="evenodd" points="330.384,34.773 327.487,34.773 328.65,31.788 328.936,31.67 
			329.225,31.79 330.384,34.773 		"/>
		
			<line fill="none" stroke="#000000" stroke-width="0.5703" stroke-linecap="square" stroke-miterlimit="1" x1="315.913" y1="30.334" x2="319.314" y2="31.67"/>
		<polyline fill="none" stroke="#000000" stroke-width="0.5703" stroke-linecap="square" stroke-miterlimit="1" points="
			315.847,66.719 320.839,64.125 325.635,66.719 		"/>
		
			<line fill="none" stroke="#000000" stroke-width="0.5703" stroke-linecap="square" stroke-miterlimit="1" x1="325.634" y1="66.719" x2="330.364" y2="64.125"/>
		<polyline fill="none" stroke="#000000" stroke-width="0.5703" stroke-linecap="square" stroke-miterlimit="1" points="
			330.365,64.125 334.899,66.719 339.761,64.125 		"/>
		
			<line fill="none" stroke="#000000" stroke-width="0.5703" stroke-linecap="square" stroke-miterlimit="1" x1="339.761" y1="64.125" x2="344.554" y2="66.719"/>
		<polyline fill="none" stroke="#000000" stroke-width="0.5703" stroke-linecap="square" stroke-miterlimit="1" points="
			344.554,66.719 349.445,64.125 354.306,66.719 		"/>
		
			<line fill="none" stroke="#000000" stroke-width="0.5703" stroke-linecap="square" stroke-miterlimit="1" x1="354.306" y1="66.719" x2="358.907" y2="64.125"/>
		
			<line fill="none" stroke="#000000" stroke-width="0.5703" stroke-linecap="square" stroke-miterlimit="1" x1="358.907" y1="64.125" x2="363.936" y2="66.719"/>
		<polyline fill="none" stroke="#000000" stroke-width="0.5703" stroke-linecap="square" stroke-miterlimit="1" points="
			363.935,66.719 368.403,64.125 373.229,66.719 		"/>
		
			<line fill="none" stroke="#000000" stroke-width="0.5703" stroke-linecap="square" stroke-miterlimit="1" x1="373.23" y1="66.719" x2="378.061" y2="64.125"/>
		<g>
			<path fill="#010101" d="M315.549,73.95c-0.678,0-1.208-0.172-1.592-0.514s-0.575-0.784-0.575-1.325
				c0-0.354,0.09-0.674,0.271-0.959c0.18-0.284,0.431-0.501,0.753-0.65s0.688-0.224,1.096-0.224c0.414,0,0.784,0.078,1.111,0.235
				s0.574,0.38,0.742,0.668s0.252,0.599,0.252,0.933c0,0.361-0.093,0.684-0.278,0.969c-0.186,0.284-0.439,0.5-0.761,0.646
				C316.248,73.876,315.908,73.95,315.549,73.95z M315.557,73.426c0.492,0,0.88-0.124,1.163-0.373s0.425-0.561,0.425-0.937
				c0-0.382-0.144-0.696-0.429-0.943c-0.286-0.247-0.692-0.371-1.218-0.371c-0.332,0-0.622,0.053-0.87,0.158
				s-0.439,0.261-0.576,0.464s-0.205,0.432-0.205,0.685c0,0.36,0.132,0.669,0.395,0.929
				C314.504,73.296,314.943,73.426,315.557,73.426z"/>
		</g>
		
			<line fill="none" stroke="#000000" stroke-width="0.5703" stroke-linecap="square" stroke-miterlimit="1" x1="316.446" y1="66.409" x2="316.446" y2="69.818"/>
		
			<line fill="none" stroke="#000000" stroke-width="0.5703" stroke-linecap="square" stroke-miterlimit="1" x1="315.246" y1="66.384" x2="315.246" y2="69.818"/>
		<g>
			<path fill="#010101" d="M324.325,73.95c-0.678,0-1.208-0.172-1.592-0.514s-0.575-0.784-0.575-1.325
				c0-0.354,0.09-0.674,0.271-0.959c0.18-0.284,0.431-0.501,0.753-0.65s0.688-0.224,1.096-0.224c0.414,0,0.784,0.078,1.111,0.235
				s0.574,0.38,0.742,0.668s0.252,0.599,0.252,0.933c0,0.361-0.093,0.684-0.278,0.969c-0.186,0.284-0.439,0.5-0.761,0.646
				C325.023,73.876,324.683,73.95,324.325,73.95z M324.333,73.426c0.492,0,0.88-0.124,1.163-0.373s0.425-0.561,0.425-0.937
				c0-0.382-0.144-0.696-0.429-0.943c-0.286-0.247-0.692-0.371-1.218-0.371c-0.332,0-0.622,0.053-0.87,0.158
				s-0.439,0.261-0.576,0.464s-0.205,0.432-0.205,0.685c0,0.36,0.132,0.669,0.395,0.929
				C323.28,73.296,323.718,73.426,324.333,73.426z"/>
		</g>
		
			<line fill="none" stroke="#000000" stroke-width="0.5703" stroke-linecap="square" stroke-miterlimit="1" x1="325.634" y1="69.784" x2="325.634" y2="66.821"/>
		<polyline fill-rule="evenodd" clip-rule="evenodd" points="327.084,69.885 324.184,69.885 325.351,66.827 325.634,66.719 
			325.915,66.825 327.084,69.885 		"/>
		
			<line fill="none" stroke="#000000" stroke-width="0.5703" stroke-linecap="square" stroke-miterlimit="1" x1="312.84" y1="65.032" x2="315.847" y2="66.719"/>
		<polyline fill="none" stroke="#000000" stroke-width="0.5703" stroke-linecap="square" stroke-miterlimit="1" points="
			316.196,46.661 321.187,44.46 325.983,46.661 		"/>
		
			<line fill="none" stroke="#000000" stroke-width="0.5703" stroke-linecap="square" stroke-miterlimit="1" x1="325.982" y1="46.661" x2="330.712" y2="44.46"/>
		
			<line fill="none" stroke="#000000" stroke-width="0.5703" stroke-linecap="square" stroke-miterlimit="1" x1="330.713" y1="44.46" x2="335.248" y2="46.661"/>
		<polyline fill="none" stroke="#000000" stroke-width="0.5703" stroke-linecap="square" stroke-miterlimit="1" points="
			335.247,46.661 340.334,44.46 345.162,46.661 		"/>
		<polyline fill="none" stroke="#000000" stroke-width="0.5703" stroke-linecap="square" stroke-miterlimit="1" points="
			345.163,46.661 349.797,44.46 354.655,46.661 359.258,44.46 364.284,46.661 368.753,44.46 		"/>
		<polyline fill="none" stroke="#000000" stroke-width="0.5703" stroke-linecap="square" stroke-miterlimit="1" points="
			368.754,44.46 373.577,46.661 378.404,44.46 		"/>
		<g>
			<path fill="#010101" d="M315.9,53.837c-0.678,0-1.208-0.172-1.592-0.514s-0.575-0.784-0.575-1.325
				c0-0.354,0.09-0.674,0.271-0.959c0.18-0.284,0.431-0.501,0.753-0.65s0.688-0.224,1.096-0.224c0.414,0,0.784,0.078,1.111,0.235
				s0.574,0.38,0.742,0.668s0.252,0.599,0.252,0.933c0,0.361-0.093,0.684-0.278,0.969c-0.186,0.284-0.439,0.5-0.761,0.646
				C316.598,53.763,316.258,53.837,315.9,53.837z M315.908,53.312c0.492,0,0.88-0.124,1.163-0.373s0.425-0.561,0.425-0.937
				c0-0.382-0.144-0.696-0.429-0.943c-0.286-0.247-0.692-0.371-1.218-0.371c-0.332,0-0.622,0.053-0.87,0.158
				s-0.439,0.261-0.576,0.464s-0.205,0.432-0.205,0.685c0,0.36,0.132,0.669,0.395,0.929
				C314.855,53.183,315.293,53.312,315.908,53.312z"/>
		</g>
		
			<line fill="none" stroke="#000000" stroke-width="0.5703" stroke-linecap="square" stroke-miterlimit="1" x1="316.798" y1="46.396" x2="316.798" y2="49.7"/>
		
			<line fill="none" stroke="#000000" stroke-width="0.5703" stroke-linecap="square" stroke-miterlimit="1" x1="315.597" y1="46.108" x2="315.597" y2="49.7"/>
		<g>
			<path fill="#010101" d="M327.592,57.053h-4.083v-0.508h1.677v-1.996h-1.677v-0.508h4.083v0.508h-1.925v1.996h1.925V57.053z"/>
		</g>
		<g>
			<path fill="#010101" d="M325.689,53.815c-0.678,0-1.208-0.172-1.592-0.514s-0.575-0.784-0.575-1.325
				c0-0.354,0.09-0.674,0.271-0.959c0.18-0.284,0.431-0.501,0.753-0.65s0.688-0.224,1.096-0.224c0.414,0,0.784,0.078,1.111,0.235
				s0.574,0.38,0.742,0.668s0.252,0.599,0.252,0.933c0,0.361-0.093,0.684-0.278,0.969c-0.186,0.284-0.439,0.5-0.761,0.646
				C326.387,53.741,326.047,53.815,325.689,53.815z M325.697,53.291c0.492,0,0.88-0.124,1.163-0.373s0.425-0.561,0.425-0.937
				c0-0.382-0.144-0.696-0.429-0.943c-0.286-0.247-0.692-0.371-1.218-0.371c-0.332,0-0.622,0.053-0.87,0.158
				s-0.439,0.261-0.576,0.464s-0.205,0.432-0.205,0.685c0,0.36,0.132,0.669,0.395,0.929
				C324.644,53.161,325.083,53.291,325.697,53.291z"/>
		</g>
		
			<line fill="none" stroke="#000000" stroke-width="0.5703" stroke-linecap="square" stroke-miterlimit="1" x1="325.983" y1="49.635" x2="325.983" y2="46.762"/>
		<polyline fill-rule="evenodd" clip-rule="evenodd" points="327.432,49.737 324.533,49.737 325.696,46.779 325.982,46.661 
			326.27,46.779 327.432,49.737 		"/>
		
			<line fill="none" stroke="#000000" stroke-width="0.5703" stroke-linecap="square" stroke-miterlimit="1" x1="314.529" y1="45.122" x2="316.196" y2="46.661"/>
		
			<line fill="#E60013" stroke="#000000" stroke-width="0.5703" stroke-linecap="square" stroke-miterlimit="1" x1="313.436" y1="16.106" x2="311.538" y2="16.106"/>
		
			<line fill="#E60013" stroke="#000000" stroke-width="0.5703" stroke-linecap="square" stroke-miterlimit="1" x1="313.436" y1="14.979" x2="311.538" y2="14.979"/>
		
			<line fill="#E60013" stroke="#000000" stroke-width="0.5703" stroke-linecap="square" stroke-miterlimit="1" x1="317.699" y1="13.737" x2="317.699" y2="11.492"/>
		
			<line fill="#E60013" stroke="#000000" stroke-width="0.5703" stroke-linecap="square" stroke-miterlimit="1" x1="318.94" y1="15.541" x2="321.269" y2="15.541"/>
		<g>
			<path fill="#E60013" d="M318.282,16.307h-4.083v-1.448c0-0.255,0.014-0.449,0.039-0.584c0.033-0.188,0.098-0.347,0.191-0.474
				c0.094-0.128,0.225-0.23,0.394-0.308c0.169-0.078,0.354-0.117,0.557-0.117c0.348,0,0.642,0.104,0.882,0.312
				c0.24,0.207,0.36,0.583,0.36,1.126v0.984h1.66V16.307z M316.14,15.799v-0.992c0-0.328-0.065-0.562-0.195-0.699
				c-0.13-0.139-0.312-0.207-0.549-0.207c-0.17,0-0.316,0.04-0.438,0.121c-0.121,0.082-0.201,0.188-0.24,0.321
				c-0.024,0.086-0.036,0.243-0.036,0.474v0.982H316.14z"/>
		</g>
		<g>
			<path fill="#E60013" d="M307.927,16.592c-0.678,0-1.208-0.172-1.592-0.514s-0.575-0.784-0.575-1.325
				c0-0.354,0.09-0.674,0.271-0.959c0.18-0.284,0.431-0.501,0.753-0.65s0.688-0.224,1.096-0.224c0.414,0,0.784,0.078,1.111,0.235
				s0.574,0.38,0.742,0.668s0.252,0.599,0.252,0.933c0,0.361-0.093,0.684-0.278,0.969c-0.186,0.284-0.439,0.5-0.761,0.646
				C308.626,16.518,308.286,16.592,307.927,16.592z M307.935,16.067c0.492,0,0.88-0.124,1.163-0.373s0.425-0.561,0.425-0.937
				c0-0.382-0.144-0.696-0.429-0.943c-0.286-0.247-0.692-0.371-1.218-0.371c-0.332,0-0.622,0.053-0.87,0.158
				s-0.439,0.261-0.576,0.464s-0.205,0.432-0.205,0.685c0,0.36,0.132,0.669,0.395,0.929
				C306.882,15.938,307.321,16.067,307.935,16.067z"/>
		</g>
		<g>
			<path fill="#E60013" d="M317.4,10.461c-0.678,0-1.208-0.172-1.592-0.514s-0.575-0.784-0.575-1.325
				c0-0.354,0.09-0.674,0.271-0.959c0.18-0.284,0.431-0.501,0.753-0.65s0.688-0.224,1.096-0.224c0.414,0,0.784,0.078,1.111,0.235
				s0.574,0.38,0.742,0.668s0.252,0.599,0.252,0.933c0,0.361-0.093,0.684-0.278,0.969c-0.186,0.284-0.439,0.5-0.761,0.646
				C318.098,10.387,317.758,10.461,317.4,10.461z M317.408,9.937c0.492,0,0.88-0.124,1.163-0.373s0.425-0.561,0.425-0.937
				c0-0.382-0.144-0.696-0.429-0.943c-0.286-0.247-0.692-0.371-1.218-0.371c-0.332,0-0.622,0.053-0.87,0.158
				s-0.439,0.261-0.576,0.464s-0.205,0.432-0.205,0.685c0,0.36,0.132,0.669,0.395,0.929C316.355,9.807,316.793,9.937,317.408,9.937z
				"/>
		</g>
		<g>
			<path fill="#E60013" d="M319.308,6.687h-4.083V6.179h1.677V4.183h-1.677V3.675h4.083v0.508h-1.925v1.996h1.925V6.687z"/>
		</g>
		<g>
			<path fill="#E60013" d="M324.238,16.592c-0.678,0-1.208-0.172-1.592-0.514s-0.575-0.784-0.575-1.325
				c0-0.354,0.09-0.674,0.271-0.959c0.18-0.284,0.431-0.501,0.753-0.65s0.688-0.224,1.096-0.224c0.414,0,0.784,0.078,1.111,0.235
				s0.574,0.38,0.742,0.668s0.252,0.599,0.252,0.933c0,0.361-0.093,0.684-0.278,0.969c-0.186,0.284-0.439,0.5-0.761,0.646
				C324.936,16.518,324.596,16.592,324.238,16.592z M324.246,16.067c0.492,0,0.88-0.124,1.163-0.373s0.425-0.561,0.425-0.937
				c0-0.382-0.144-0.696-0.429-0.943c-0.286-0.247-0.692-0.371-1.218-0.371c-0.332,0-0.622,0.053-0.87,0.158
				s-0.439,0.261-0.576,0.464s-0.205,0.432-0.205,0.685c0,0.36,0.132,0.669,0.395,0.929
				C323.193,15.938,323.631,16.067,324.246,16.067z"/>
		</g>
		<g>
			<path fill="#E60013" d="M326.141,12.817h-4.083V12.31h1.677v-1.996h-1.677V9.806h4.083v0.508h-1.925v1.996h1.925V12.817z"/>
		</g>
		
			<line fill="#E60013" stroke="#000000" stroke-width="0.5703" stroke-linecap="square" stroke-miterlimit="1" x1="317.699" y1="19.503" x2="317.699" y2="17.426"/>
		
			<line fill="#E60013" stroke="#000000" stroke-width="0.5703" stroke-linecap="square" stroke-miterlimit="1" x1="298.63" y1="92.72" x2="295.889" y2="92.72"/>
		
			<line fill="#E60013" stroke="#000000" stroke-width="0.5703" stroke-linecap="square" stroke-miterlimit="1" x1="298.63" y1="91.593" x2="295.888" y2="91.593"/>
		
			<line fill="#E60013" stroke="#000000" stroke-width="0.5703" stroke-linecap="square" stroke-miterlimit="1" x1="301.88" y1="94.042" x2="301.88" y2="96.385"/>
		
			<line fill="#E60013" stroke="#000000" stroke-width="0.5703" stroke-linecap="square" stroke-miterlimit="1" x1="304.135" y1="92.159" x2="306.077" y2="92.159"/>
		<g>
			<path fill="#E60013" d="M303.472,92.916h-4.083v-1.448c0-0.255,0.014-0.449,0.039-0.584c0.033-0.188,0.098-0.347,0.191-0.474
				c0.094-0.128,0.225-0.23,0.394-0.308c0.169-0.078,0.354-0.117,0.557-0.117c0.348,0,0.642,0.104,0.882,0.312
				c0.24,0.207,0.36,0.583,0.36,1.126v0.984h1.66V92.916z M301.331,92.408v-0.992c0-0.328-0.065-0.562-0.195-0.699
				c-0.13-0.139-0.312-0.207-0.549-0.207c-0.17,0-0.316,0.04-0.438,0.121c-0.121,0.082-0.201,0.188-0.24,0.321
				c-0.024,0.086-0.036,0.243-0.036,0.474v0.982H301.331z"/>
		</g>
		<g>
			<path fill="#E60013" d="M292.702,93.706c-0.678,0-1.208-0.172-1.592-0.514s-0.575-0.784-0.575-1.325
				c0-0.354,0.09-0.674,0.271-0.959c0.18-0.284,0.431-0.501,0.753-0.65s0.688-0.224,1.096-0.224c0.414,0,0.784,0.078,1.111,0.235
				s0.574,0.38,0.742,0.668s0.252,0.599,0.252,0.933c0,0.361-0.093,0.684-0.278,0.969c-0.186,0.284-0.439,0.5-0.761,0.646
				C293.4,93.632,293.06,93.706,292.702,93.706z M292.71,93.182c0.492,0,0.88-0.124,1.163-0.373s0.425-0.561,0.425-0.937
				c0-0.382-0.144-0.696-0.429-0.943c-0.286-0.247-0.692-0.371-1.218-0.371c-0.332,0-0.622,0.053-0.87,0.158
				s-0.439,0.261-0.576,0.464S291,91.611,291,91.864c0,0.36,0.132,0.669,0.395,0.929C291.657,93.052,292.095,93.182,292.71,93.182z"
				/>
		</g>
		<g>
			<path fill="#E60013" d="M303.49,103.698h-4.083v-0.508h1.677v-1.996h-1.677v-0.508h4.083v0.508h-1.925v1.996h1.925V103.698z"/>
		</g>
		<g>
			<path fill="#E60013" d="M301.586,100.465c-0.678,0-1.208-0.172-1.592-0.514s-0.575-0.784-0.575-1.325
				c0-0.354,0.09-0.674,0.271-0.959c0.18-0.284,0.431-0.501,0.753-0.65s0.688-0.224,1.096-0.224c0.414,0,0.784,0.078,1.111,0.235
				s0.574,0.38,0.742,0.668s0.252,0.599,0.252,0.933c0,0.361-0.093,0.684-0.278,0.969c-0.186,0.284-0.439,0.5-0.761,0.646
				C302.285,100.391,301.945,100.465,301.586,100.465z M301.594,99.94c0.492,0,0.88-0.124,1.163-0.373s0.425-0.561,0.425-0.937
				c0-0.382-0.144-0.696-0.429-0.943c-0.286-0.247-0.692-0.371-1.218-0.371c-0.332,0-0.622,0.053-0.87,0.158
				s-0.439,0.261-0.576,0.464s-0.205,0.432-0.205,0.685c0,0.36,0.132,0.669,0.395,0.929C300.542,99.811,300.98,99.94,301.594,99.94z
				"/>
		</g>
		<g>
			<path fill="#E60013" d="M309.202,94.215c-0.678,0-1.208-0.172-1.592-0.514s-0.575-0.784-0.575-1.325
				c0-0.354,0.09-0.674,0.271-0.959c0.18-0.284,0.431-0.501,0.753-0.65s0.688-0.224,1.096-0.224c0.414,0,0.784,0.078,1.111,0.235
				s0.574,0.38,0.742,0.668s0.252,0.599,0.252,0.933c0,0.361-0.093,0.684-0.278,0.969c-0.186,0.284-0.439,0.5-0.761,0.646
				C309.9,94.141,309.56,94.215,309.202,94.215z M309.21,93.69c0.492,0,0.88-0.124,1.163-0.373s0.425-0.561,0.425-0.937
				c0-0.382-0.144-0.696-0.429-0.943c-0.286-0.247-0.692-0.371-1.218-0.371c-0.332,0-0.622,0.053-0.87,0.158
				s-0.439,0.261-0.576,0.464s-0.205,0.432-0.205,0.685c0,0.36,0.132,0.669,0.395,0.929C308.157,93.561,308.595,93.69,309.21,93.69z
				"/>
		</g>
		<g>
			<path fill="#E60013" d="M311.19,97.461h-4.083v-0.508h1.677v-1.996h-1.677v-0.508h4.083v0.508h-1.925v1.996h1.925V97.461z"/>
		</g>
		
			<line fill="#E60013" stroke="#000000" stroke-width="0.5703" stroke-linecap="square" stroke-miterlimit="1" x1="301.814" y1="87.636" x2="301.881" y2="90.005"/>
		<polyline fill="none" stroke="#000000" stroke-width="0.5703" stroke-linecap="square" stroke-miterlimit="1" points="
			312.665,83.585 317.388,80.79 321.892,83.585 		"/>
		
			<line fill="none" stroke="#000000" stroke-width="0.5703" stroke-linecap="square" stroke-miterlimit="1" x1="321.893" y1="83.585" x2="326.722" y2="80.79"/>
		
			<line fill="none" stroke="#000000" stroke-width="0.5703" stroke-linecap="square" stroke-miterlimit="1" x1="326.722" y1="80.79" x2="331.355" y2="83.585"/>
		
			<line fill="none" stroke="#000000" stroke-width="0.5703" stroke-linecap="square" stroke-miterlimit="1" x1="331.353" y1="83.585" x2="336.215" y2="80.79"/>
		<polyline fill="none" stroke="#000000" stroke-width="0.5703" stroke-linecap="square" stroke-miterlimit="1" points="
			336.215,80.79 341.046,83.585 345.971,80.79 350.667,83.585 		"/>
		<polyline fill="none" stroke="#000000" stroke-width="0.5703" stroke-linecap="square" stroke-miterlimit="1" points="
			350.666,83.585 355.397,80.79 360.193,83.585 364.922,80.79 		"/>
		
			<line fill="none" stroke="#000000" stroke-width="0.5703" stroke-linecap="square" stroke-miterlimit="1" x1="364.923" y1="80.79" x2="369.721" y2="83.585"/>
		
			<line fill="none" stroke="#000000" stroke-width="0.5703" stroke-linecap="square" stroke-miterlimit="1" x1="369.72" y1="83.585" x2="374.449" y2="80.79"/>
		<g>
			<path fill="#010101" d="M312.366,90.792c-0.678,0-1.208-0.172-1.592-0.514s-0.575-0.784-0.575-1.325
				c0-0.354,0.09-0.674,0.271-0.959c0.18-0.284,0.431-0.501,0.753-0.65s0.688-0.224,1.096-0.224c0.414,0,0.784,0.078,1.111,0.235
				s0.574,0.38,0.742,0.668s0.252,0.599,0.252,0.933c0,0.361-0.093,0.684-0.278,0.969c-0.186,0.284-0.439,0.5-0.761,0.646
				C313.064,90.718,312.724,90.792,312.366,90.792z M312.374,90.268c0.492,0,0.88-0.124,1.163-0.373s0.425-0.561,0.425-0.937
				c0-0.382-0.144-0.696-0.429-0.943c-0.286-0.247-0.692-0.371-1.218-0.371c-0.332,0-0.622,0.053-0.87,0.158
				s-0.439,0.261-0.576,0.464s-0.205,0.432-0.205,0.685c0,0.36,0.132,0.669,0.395,0.929
				C311.321,90.138,311.759,90.268,312.374,90.268z"/>
		</g>
		
			<line fill="none" stroke="#000000" stroke-width="0.5703" stroke-linecap="square" stroke-miterlimit="1" x1="313.264" y1="83.232" x2="313.264" y2="86.656"/>
		
			<line fill="none" stroke="#000000" stroke-width="0.5703" stroke-linecap="square" stroke-miterlimit="1" x1="312.062" y1="83.091" x2="312.062" y2="86.656"/>
		<g>
			<path fill="#010101" d="M321.603,90.792c-0.678,0-1.208-0.172-1.592-0.514s-0.575-0.784-0.575-1.325
				c0-0.354,0.09-0.674,0.271-0.959c0.18-0.284,0.431-0.501,0.753-0.65s0.688-0.224,1.096-0.224c0.414,0,0.784,0.078,1.111,0.235
				s0.574,0.38,0.742,0.668s0.252,0.599,0.252,0.933c0,0.361-0.093,0.684-0.278,0.969c-0.186,0.284-0.439,0.5-0.761,0.646
				C322.301,90.718,321.961,90.792,321.603,90.792z M321.611,90.268c0.492,0,0.88-0.124,1.163-0.373s0.425-0.561,0.425-0.937
				c0-0.382-0.144-0.696-0.429-0.943c-0.286-0.247-0.692-0.371-1.218-0.371c-0.332,0-0.622,0.053-0.87,0.158
				s-0.439,0.261-0.576,0.464s-0.205,0.432-0.205,0.685c0,0.36,0.132,0.669,0.395,0.929
				C320.558,90.138,320.997,90.268,321.611,90.268z"/>
		</g>
		
			<line fill="none" stroke="#000000" stroke-width="0.5703" stroke-linecap="square" stroke-miterlimit="1" x1="321.893" y1="86.556" x2="321.893" y2="83.683"/>
		<polyline fill-rule="evenodd" clip-rule="evenodd" points="323.343,86.656 320.443,86.656 321.613,83.681 321.893,83.585 
			322.174,83.686 323.343,86.656 		"/>
		
			<line fill="none" stroke="#000000" stroke-width="0.5703" stroke-linecap="square" stroke-miterlimit="1" x1="310.319" y1="81.656" x2="312.665" y2="83.585"/>
		<polyline fill="none" stroke="#000000" stroke-width="0.5703" stroke-linecap="square" stroke-miterlimit="1" points="
			326.593,91.793 331.259,89.236 336.12,91.793 340.916,89.236 		"/>
		<polyline fill="none" stroke="#000000" stroke-width="0.5703" stroke-linecap="square" stroke-miterlimit="1" points="
			340.915,89.236 345.805,91.793 350.534,89.236 355.272,91.793 		"/>
		
			<line fill="none" stroke="#000000" stroke-width="0.5703" stroke-linecap="square" stroke-miterlimit="1" x1="355.273" y1="91.793" x2="360.225" y2="89.236"/>
		<polyline fill="none" stroke="#000000" stroke-width="0.5703" stroke-linecap="square" stroke-miterlimit="1" points="
			360.226,89.236 364.762,91.793 369.586,89.236 		"/>
		
			<line fill="none" stroke="#000000" stroke-width="0.5703" stroke-linecap="square" stroke-miterlimit="1" x1="369.586" y1="89.236" x2="374.418" y2="91.793"/>
		
			<line fill="none" stroke="#000000" stroke-width="0.5703" stroke-linecap="square" stroke-miterlimit="1" x1="374.418" y1="91.793" x2="379.178" y2="89.236"/>
		<polyline fill="none" stroke="#000000" stroke-width="0.5703" stroke-linecap="square" stroke-miterlimit="1" points="
			379.179,89.236 383.945,91.793 388.769,89.236 		"/>
		<g>
			<path fill="#010101" d="M326.431,99.074c-0.678,0-1.208-0.172-1.592-0.514s-0.575-0.784-0.575-1.325
				c0-0.354,0.09-0.674,0.271-0.959c0.18-0.284,0.431-0.501,0.753-0.65s0.688-0.224,1.096-0.224c0.414,0,0.784,0.078,1.111,0.235
				s0.574,0.38,0.742,0.668s0.252,0.599,0.252,0.933c0,0.361-0.093,0.684-0.278,0.969c-0.186,0.284-0.439,0.5-0.761,0.646
				C327.129,99,326.79,99.074,326.431,99.074z M326.439,98.55c0.492,0,0.88-0.124,1.163-0.373s0.425-0.561,0.425-0.937
				c0-0.382-0.144-0.696-0.429-0.943c-0.286-0.247-0.692-0.371-1.218-0.371c-0.332,0-0.622,0.053-0.87,0.158
				s-0.439,0.261-0.576,0.464s-0.205,0.432-0.205,0.685c0,0.36,0.132,0.669,0.395,0.929C325.386,98.42,325.825,98.55,326.439,98.55z
				"/>
		</g>
		
			<line fill="none" stroke="#000000" stroke-width="0.5703" stroke-linecap="square" stroke-miterlimit="1" x1="327.194" y1="91.466" x2="327.194" y2="94.808"/>
		
			<line fill="none" stroke="#000000" stroke-width="0.5703" stroke-linecap="square" stroke-miterlimit="1" x1="325.995" y1="91.404" x2="325.995" y2="94.808"/>
		
			<line fill="none" stroke="#000000" stroke-width="0.5703" stroke-linecap="square" stroke-miterlimit="1" x1="323.85" y1="90.005" x2="326.594" y2="91.793"/>
		
			<line fill="none" stroke="#000000" stroke-width="0.5703" stroke-linecap="square" stroke-miterlimit="1" x1="330.074" y1="74.782" x2="334.738" y2="72.222"/>
		<polyline fill="none" stroke="#000000" stroke-width="0.5703" stroke-linecap="square" stroke-miterlimit="1" points="
			334.739,72.222 339.599,74.782 344.389,72.222 349.285,74.782 354.017,72.222 		"/>
		<polyline fill="none" stroke="#000000" stroke-width="0.5703" stroke-linecap="square" stroke-miterlimit="1" points="
			354.017,72.222 358.746,74.782 363.701,72.222 		"/>
		<polyline fill="none" stroke="#000000" stroke-width="0.5703" stroke-linecap="square" stroke-miterlimit="1" points="
			363.701,72.222 368.241,74.782 373.067,72.222 377.894,74.782 		"/>
		
			<line fill="none" stroke="#000000" stroke-width="0.5703" stroke-linecap="square" stroke-miterlimit="1" x1="377.894" y1="74.782" x2="382.66" y2="72.222"/>
		<g>
			<path fill="#010101" d="M329.774,81.926c-0.678,0-1.208-0.172-1.592-0.514s-0.575-0.784-0.575-1.325
				c0-0.354,0.09-0.674,0.271-0.959c0.18-0.284,0.431-0.501,0.753-0.65s0.688-0.224,1.096-0.224c0.414,0,0.784,0.078,1.111,0.235
				s0.574,0.38,0.742,0.668s0.252,0.599,0.252,0.933c0,0.361-0.093,0.684-0.278,0.969c-0.186,0.284-0.439,0.5-0.761,0.646
				C330.472,81.852,330.132,81.926,329.774,81.926z M329.782,81.401c0.492,0,0.88-0.124,1.163-0.373s0.425-0.561,0.425-0.937
				c0-0.382-0.144-0.696-0.429-0.943c-0.286-0.247-0.692-0.371-1.218-0.371c-0.332,0-0.622,0.053-0.87,0.158
				s-0.439,0.261-0.576,0.464s-0.205,0.432-0.205,0.685c0,0.36,0.132,0.669,0.395,0.929
				C328.729,81.271,329.168,81.401,329.782,81.401z"/>
		</g>
		
			<line fill="none" stroke="#000000" stroke-width="0.5703" stroke-linecap="square" stroke-miterlimit="1" x1="330.673" y1="74.449" x2="330.673" y2="77.796"/>
		
			<line fill="none" stroke="#000000" stroke-width="0.5703" stroke-linecap="square" stroke-miterlimit="1" x1="329.473" y1="74.39" x2="329.473" y2="77.796"/>
		
			<line fill="none" stroke="#000000" stroke-width="0.5703" stroke-linecap="square" stroke-miterlimit="1" x1="327.512" y1="73.117" x2="330.074" y2="74.782"/>
	</g>
	<g>
		<polyline fill="#FFFFFF" points="195.153,106.077 195.153,115.364 270.25,115.364 270.25,105.467 		"/>
		<g>
			<polyline fill="none" stroke="#000000" stroke-width="0.5" stroke-miterlimit="10" points="195.153,109.095 195.153,115.364 
				270.25,115.364 270.25,108.484 			"/>
			<g>
				<path d="M195.153,106.077c-0.527,1.42-1.426,3.182-2.378,4.274l2.378-0.86l2.377,0.86
					C196.579,109.259,195.68,107.497,195.153,106.077z"/>
			</g>
			<g>
				<path d="M270.25,105.467c0.527,1.42,1.426,3.182,2.378,4.274l-2.378-0.86l-2.377,0.86
					C268.825,108.648,269.724,106.887,270.25,105.467z"/>
			</g>
		</g>
	</g>
	<g>
		<polyline fill="#FFFFFF" points="283.637,106.077 283.637,115.364 388.766,115.364 388.766,105.467 		"/>
		<g>
			<polyline fill="none" stroke="#000000" stroke-width="0.5916" stroke-miterlimit="10" points="283.637,109.648 283.637,115.364 
				388.766,115.364 388.766,109.037 			"/>
			<g>
				<path d="M283.637,106.077c-0.623,1.68-1.687,3.764-2.814,5.057l2.814-1.018l2.813,1.018
					C285.323,109.842,284.26,107.757,283.637,106.077z"/>
			</g>
			<g>
				<path d="M388.766,105.467c0.623,1.68,1.687,3.764,2.814,5.057l-2.814-1.018l-2.813,1.018
					C387.08,109.231,388.143,107.147,388.766,105.467z"/>
			</g>
		</g>
	</g>
	<g>
		<polyline fill="#FFFFFF" points="105.003,106.077 105.003,115.364 180.099,115.364 180.099,105.467 		"/>
		<g>
			<polyline fill="none" stroke="#000000" stroke-width="0.5" stroke-miterlimit="10" points="105.003,109.095 105.003,115.364 
				180.099,115.364 180.099,108.484 			"/>
			<g>
				<path d="M105.003,106.077c-0.527,1.42-1.426,3.182-2.378,4.274l2.378-0.86l2.377,0.86
					C106.428,109.259,105.529,107.497,105.003,106.077z"/>
			</g>
			<g>
				<path d="M180.099,105.467c0.527,1.42,1.426,3.182,2.378,4.274l-2.378-0.86l-2.377,0.86
					C178.674,108.648,179.573,106.887,180.099,105.467z"/>
			</g>
		</g>
	</g>
	<g>
		<polyline fill="#FFFFFF" points="8.852,106.077 8.852,115.364 83.949,115.364 83.949,105.467 		"/>
		<g>
			<polyline fill="none" stroke="#000000" stroke-width="0.5" stroke-miterlimit="10" points="8.852,109.095 8.852,115.364 
				83.949,115.364 83.949,108.484 			"/>
			<g>
				<path d="M8.852,106.077c-0.527,1.42-1.426,3.182-2.378,4.274l2.378-0.86l2.377,0.86C10.277,109.259,9.379,107.497,8.852,106.077
					z"/>
			</g>
			<g>
				<path d="M83.949,105.467c0.527,1.42,1.426,3.182,2.378,4.274l-2.378-0.86l-2.377,0.86
					C82.524,108.648,83.423,106.887,83.949,105.467z"/>
			</g>
		</g>
	</g>
	<g>
		<path d="M213.028,130.145c-1.136,0.248-2.624,0.372-4.464,0.372v-6.456h0.769v5.772c0.552,0,1.188-0.034,1.908-0.102
			c0.72-0.068,1.268-0.15,1.644-0.246L213.028,130.145z M216.796,133.348h-0.769v-5.616h-1.548v5.064h-0.756v-9.672h0.756v3.96
			h1.548v-4.224h0.769V133.348z"/>
		<path d="M223.444,133.36h-0.768v-3.576h-4.332v-0.648h9.468v0.648h-4.368V133.36z M226.564,127.828h-6.96v-4.536h0.769v1.608
			h5.424v-1.608h0.768V127.828z M225.796,127.168v-1.608h-5.424v1.608H225.796z"/>
		<path d="M241.348,131.776h-9.468v-0.66h3.816v-2.712h0.768v2.712h4.884V131.776z M240.052,124v1.236
			c0,1.856-0.132,3.376-0.396,4.56l-0.744-0.108c0.12-0.512,0.216-1.372,0.288-2.58l-6.217,0.348l-0.144-0.684l6.384-0.288
			c0-0.096,0.002-0.24,0.006-0.432s0.006-0.332,0.006-0.42v-0.972h-6.144V124H240.052z"/>
		<path d="M243.112,129.982c-0.447-0.66-0.672-1.554-0.672-2.682s0.225-2.022,0.672-2.682c0.448-0.66,1.076-0.99,1.885-0.99
			c0.76,0,1.361,0.294,1.806,0.882s0.69,1.398,0.738,2.43h2.496v-4.08h0.768v10.488h-0.768V127.6h-2.496
			c-0.04,1.048-0.28,1.872-0.721,2.472c-0.439,0.6-1.048,0.9-1.823,0.9C244.188,130.972,243.56,130.642,243.112,129.982z
			 M246.808,127.312c0-0.88-0.166-1.6-0.498-2.16s-0.77-0.84-1.313-0.84c-0.545,0-0.98,0.278-1.309,0.834s-0.492,1.278-0.492,2.166
			c0,0.872,0.164,1.588,0.492,2.148s0.764,0.84,1.309,0.84c0.544,0,0.981-0.28,1.313-0.84S246.808,128.185,246.808,127.312z"/>
	</g>
	<g>
		<path d="M302.72,130.444c-1.64,0.232-3.684,0.348-6.132,0.348v-3.936h4.008v-2.352h-4.056v-0.66h4.824v3.66h-4.009v2.628
			c2.177,0.016,3.933-0.104,5.269-0.36L302.72,130.444z M304.497,133.348h-0.769V122.86h0.769V133.348z"/>
		<path d="M313.268,130.348c-1.76,0.216-4.012,0.344-6.756,0.384l-0.132-0.696c0.688,0,1.22-0.004,1.596-0.012l-0.396-4.452
			l0.792-0.096l0.312,4.524c0.44-0.008,1.024-0.028,1.752-0.06l0.324-4.464l0.792,0.096l-0.396,4.332
			c0.929-0.064,1.608-0.124,2.04-0.18L313.268,130.348z M312.537,124.684h-5.881v-0.648h5.881V124.684z M314.852,133.348h-0.768
			V122.86h0.768V133.348z"/>
		<path d="M326.192,131.884h-9.468v-0.648h9.468V131.884z M325.041,128.692h-7.068v-4.752h6.96v0.66h-6.192v3.444h6.301V128.692z"/>
		<path d="M330.044,132.004l2.976-8.052h0.769l2.964,8.052h-0.816l-0.912-2.46h-3.336l-0.899,2.46H330.044z M333.344,124.996
			l-1.428,3.876h2.868l-1.416-3.876H333.344z"/>
		<path d="M339.668,133.229c-1.319-1.392-1.979-3.02-1.979-4.884v-0.216c0-1.864,0.66-3.492,1.979-4.884h0.672
			c-0.552,0.64-1.002,1.374-1.35,2.202s-0.522,1.698-0.522,2.61v0.3c0,0.896,0.177,1.772,0.528,2.628s0.8,1.604,1.344,2.244H339.668
			z"/>
		<path d="M341.625,132.004v-8.052h0.768v7.392h3.78v0.66H341.625z"/>
		<path d="M347.504,124.853v-0.828h0.78v0.828H347.504z M347.517,132.004v-5.916h0.756v5.916H347.517z"/>
		<path d="M350.048,133.78v-7.692h0.72v0.48h0.048c0.513-0.392,1.124-0.588,1.837-0.588c0.72,0,1.3,0.23,1.739,0.69
			c0.44,0.46,0.66,1.21,0.66,2.25v0.132c0,1.032-0.233,1.798-0.702,2.298c-0.468,0.5-1.126,0.75-1.974,0.75
			c-0.616,0-1.145-0.136-1.584-0.408v2.088H350.048z M352.304,131.488c1.304,0,1.956-0.772,1.956-2.316v-0.216
			c0-0.864-0.148-1.468-0.444-1.812c-0.296-0.344-0.748-0.516-1.355-0.516c-0.632,0-1.188,0.164-1.668,0.492v3.936
			C351.224,131.344,351.728,131.488,352.304,131.488z"/>
		<path d="M356.456,124.853v-0.828h0.78v0.828H356.456z M356.468,132.004v-5.916h0.756v5.916H356.468z"/>
		<path d="M361.087,132.1c-0.688,0-1.266-0.234-1.733-0.702c-0.469-0.468-0.702-1.206-0.702-2.214v-0.156
			c0-1.024,0.235-1.788,0.708-2.292c0.472-0.504,1.107-0.756,1.907-0.756c0.632,0,1.172,0.144,1.62,0.432v-3h0.756v8.592h-0.636
			l-0.072-0.516h-0.048C362.439,131.896,361.839,132.1,361.087,132.1z M361.303,131.488c0.632,0,1.16-0.188,1.584-0.564v-3.876
			c-0.352-0.28-0.852-0.42-1.5-0.42c-1.304,0-1.956,0.772-1.956,2.316v0.216C359.431,130.712,360.055,131.488,361.303,131.488z"/>
		<path d="M367.916,132.004l2.976-8.052h0.769l2.964,8.052h-0.816l-0.912-2.46h-3.336l-0.899,2.46H367.916z M371.215,124.996
			l-1.428,3.876h2.868l-1.416-3.876H371.215z"/>
		<path d="M378.272,133.229c0.552-0.64,1-1.374,1.344-2.202s0.517-1.694,0.517-2.598v-0.312c0-0.896-0.174-1.774-0.522-2.634
			c-0.348-0.86-0.794-1.606-1.338-2.238h0.672c1.32,1.408,1.98,3.036,1.98,4.884v0.216c0,1.848-0.66,3.476-1.98,4.884H378.272z"/>
	</g>
	<g>
		<path d="M127.399,124.216c0.776,0,1.434,0.226,1.974,0.678c0.54,0.452,0.811,1.042,0.811,1.77c0,0.664-0.227,1.216-0.678,1.656
			c-0.452,0.44-1.022,0.696-1.71,0.768v1.8c1.455-0.072,2.531-0.16,3.228-0.264l0.072,0.648c-0.952,0.104-2.133,0.196-3.54,0.276
			c-1.2,0.072-2.336,0.108-3.408,0.108l-0.132-0.72c1.488,0,2.491-0.008,3.012-0.024v-1.824c-0.688-0.072-1.26-0.328-1.716-0.768
			s-0.685-0.988-0.685-1.644c0-0.728,0.271-1.32,0.811-1.776C125.978,124.444,126.632,124.216,127.399,124.216z M127.399,124.864
			c-0.568,0-1.042,0.168-1.422,0.504s-0.57,0.768-0.57,1.296c0,0.52,0.192,0.952,0.576,1.296c0.384,0.344,0.856,0.516,1.416,0.516
			c0.592,0,1.074-0.168,1.446-0.504s0.558-0.768,0.558-1.296c0-0.536-0.186-0.972-0.558-1.308S127.991,124.864,127.399,124.864z
			 M132.512,133.936h-0.769v-10.488h0.769V133.936z"/>
		<path d="M139.459,133.948h-0.768v-3.576h-4.332v-0.648h9.468v0.648h-4.368V133.948z M142.579,128.416h-6.96v-4.536h0.769v1.608
			h5.424v-1.608h0.768V128.416z M141.812,127.756v-1.608h-5.424v1.608H141.812z"/>
		<path d="M157.363,132.364h-9.468v-0.66h3.816v-2.712h0.768v2.712h4.884V132.364z M156.067,124.588v1.236
			c0,1.856-0.132,3.376-0.396,4.56l-0.744-0.108c0.12-0.512,0.216-1.372,0.288-2.58l-6.217,0.348l-0.144-0.684l6.384-0.288
			c0-0.096,0.002-0.24,0.006-0.432s0.006-0.332,0.006-0.42v-0.972h-6.144v-0.66H156.067z"/>
		<path d="M159.127,130.57c-0.447-0.66-0.672-1.554-0.672-2.682s0.225-2.022,0.672-2.682c0.448-0.66,1.076-0.99,1.885-0.99
			c0.76,0,1.361,0.294,1.806,0.882s0.69,1.398,0.738,2.43h2.496v-4.08h0.768v10.488h-0.768v-5.748h-2.496
			c-0.04,1.048-0.28,1.872-0.721,2.472c-0.439,0.6-1.048,0.9-1.823,0.9C160.203,131.56,159.575,131.23,159.127,130.57z
			 M162.823,127.9c0-0.88-0.166-1.6-0.498-2.16s-0.77-0.84-1.313-0.84c-0.545,0-0.98,0.278-1.309,0.834s-0.492,1.278-0.492,2.166
			c0,0.872,0.164,1.588,0.492,2.148s0.764,0.84,1.309,0.84c0.544,0,0.981-0.28,1.313-0.84S162.823,128.772,162.823,127.9z"/>
	</g>
	<g>
		<path d="M35.147,131.644c-0.624,0.72-1.48,1.08-2.568,1.08s-1.939-0.354-2.556-1.062s-0.924-1.71-0.924-3.006v-0.192
			c0-1.272,0.312-2.266,0.936-2.982c0.624-0.716,1.48-1.074,2.568-1.074s1.939,0.354,2.556,1.062s0.924,1.71,0.924,3.006v0.192
			C36.083,129.932,35.771,130.924,35.147,131.644z M32.592,132.064c0.855,0,1.512-0.294,1.968-0.882s0.684-1.382,0.684-2.382v-0.324
			c0-1.08-0.22-1.916-0.66-2.508c-0.439-0.592-1.111-0.892-2.016-0.9c-0.84,0-1.488,0.292-1.944,0.876s-0.684,1.376-0.684,2.376
			v0.324c0,1.08,0.22,1.92,0.66,2.52C31.039,131.764,31.703,132.064,32.592,132.064z"/>
		<path d="M46.224,125.836h-5.988v-0.66h5.988V125.836z M45.552,128.056c0,0.52-0.221,0.938-0.66,1.254
			c-0.44,0.316-1.004,0.474-1.692,0.474c-0.68,0-1.242-0.158-1.686-0.474c-0.444-0.316-0.666-0.734-0.666-1.254
			c0-0.536,0.218-0.958,0.653-1.266c0.437-0.308,1.003-0.462,1.698-0.462c0.696,0,1.262,0.154,1.698,0.462
			C45.333,127.098,45.552,127.521,45.552,128.056z M47.525,130.786c0.588,0.324,0.882,0.766,0.882,1.326s-0.294,1-0.882,1.32
			s-1.442,0.48-2.562,0.48c-1.12,0-1.971-0.16-2.551-0.48s-0.87-0.76-0.87-1.32c0-0.576,0.29-1.022,0.87-1.338
			s1.431-0.474,2.551-0.474C46.083,130.3,46.938,130.462,47.525,130.786z M44.796,128.056c0-0.336-0.154-0.602-0.463-0.798
			c-0.308-0.196-0.686-0.294-1.134-0.294s-0.826,0.098-1.134,0.294c-0.308,0.196-0.462,0.462-0.462,0.798
			c0,0.328,0.156,0.59,0.468,0.786c0.312,0.196,0.688,0.294,1.128,0.294c0.44,0,0.816-0.098,1.128-0.294
			C44.64,128.646,44.796,128.384,44.796,128.056z M44.724,124.408h-2.988v-0.672h2.988V124.408z M44.964,130.984
			c-0.824,0-1.469,0.1-1.933,0.3c-0.464,0.2-0.696,0.476-0.696,0.828s0.23,0.624,0.69,0.816s1.105,0.288,1.938,0.288
			c0.84,0,1.491-0.094,1.955-0.282c0.465-0.188,0.696-0.462,0.696-0.822c0-0.36-0.231-0.638-0.696-0.834
			C46.455,131.082,45.804,130.984,44.964,130.984z M49.955,127.432H48.3v2.832h-0.769v-6.816H48.3v3.336h1.655V127.432z"/>
		<path d="M54.299,130.948h-0.768v-1.884c-0.376,0.016-1.316,0.044-2.82,0.084l-0.155-0.684c0.808,0,1.972-0.024,3.491-0.072
			c1.528-0.072,2.629-0.148,3.301-0.228l0.071,0.612c-0.344,0.048-1.384,0.132-3.12,0.252V130.948z M55.854,124.48
			c0.492,0.344,0.738,0.812,0.738,1.404s-0.246,1.054-0.738,1.386c-0.492,0.332-1.134,0.498-1.926,0.498s-1.435-0.166-1.927-0.498
			c-0.491-0.332-0.737-0.794-0.737-1.386s0.247-1.06,0.743-1.404c0.496-0.344,1.137-0.516,1.921-0.516
			C54.72,123.964,55.361,124.136,55.854,124.48z M55.812,125.884c0-0.376-0.174-0.678-0.522-0.906
			c-0.348-0.228-0.802-0.342-1.361-0.342c-0.561,0-1.015,0.112-1.362,0.336c-0.348,0.224-0.522,0.528-0.522,0.912
			c0,0.384,0.175,0.686,0.522,0.906c0.348,0.22,0.802,0.33,1.362,0.33c0.56,0,1.014-0.11,1.361-0.33
			C55.638,126.57,55.812,126.268,55.812,125.884z M59.423,133.684h-7.331v-3h0.768v2.34h6.563V133.684z M59.195,131.464h-0.768
			v-1.176h-2.112v-0.648h2.112v-6.192h0.768V131.464z"/>
	</g>
	<polyline fill="none" stroke="#000000" stroke-width="0.5" stroke-miterlimit="10" points="6.444,28.209 0.25,31.829 0.25,75.329 
		6.444,80.05 	"/>
	<polyline fill="none" stroke="#000000" stroke-width="0.5198" stroke-miterlimit="10" points="85.073,28.209 91.766,31.829 
		91.766,75.329 85.073,80.05 	"/>
	<g>
		<path d="M92.674,81.585v-5.916h0.72v0.528h0.048c0.648-0.424,1.356-0.636,2.124-0.636c0.576,0,1.004,0.126,1.284,0.378
			c0.28,0.252,0.42,0.654,0.42,1.206v4.44h-0.756v-4.272c0-0.4-0.094-0.684-0.282-0.852s-0.518-0.252-0.99-0.252
			c-0.616,0-1.22,0.168-1.812,0.504v4.872H92.674z"/>
	</g>
</g>
<g>
</g>
<g>
</g>
<g>
</g>
<g>
</g>
<g>
</g>
<g>
</g>
<g>
</g>
</svg>
