<?xml version="1.0" encoding="UTF-8"?>
<svg id="_레이어_1" data-name="레이어 1" xmlns="http://www.w3.org/2000/svg" viewBox="0 0 513.322 392.624">
  <defs>
    <style>
      .cls-1, .cls-2 {
        fill: #d1d3d4;
      }

      .cls-1, .cls-2, .cls-3, .cls-4, .cls-5, .cls-6, .cls-7, .cls-8, .cls-9, .cls-10, .cls-11, .cls-12, .cls-13, .cls-14, .cls-15, .cls-16, .cls-17, .cls-18, .cls-19, .cls-20, .cls-21, .cls-22, .cls-23, .cls-24 {
        stroke-miterlimit: 10;
      }

      .cls-1, .cls-2, .cls-3, .cls-5, .cls-13 {
        stroke: #414042;
      }

      .cls-1, .cls-5, .cls-18, .cls-19 {
        stroke-width: .721px;
      }

      .cls-2, .cls-3 {
        stroke-width: .721px;
      }

      .cls-25 {
        font-family: AppleSDGothicNeoL00, AppleSDGothicNeoL00;
      }

      .cls-25, .cls-26 {
        font-size: 12px;
      }

      .cls-25, .cls-26, .cls-27, .cls-28 {
        fill: #231f20;
      }

      .cls-29, .cls-30 {
        stroke-linecap: square;
        stroke-miterlimit: 1;
        stroke-width: .411px;
      }

      .cls-29, .cls-30, .cls-7, .cls-8, .cls-9, .cls-10, .cls-11, .cls-15, .cls-16, .cls-20, .cls-22, .cls-24 {
        stroke: #231f20;
      }

      .cls-29, .cls-31 {
        fill: #ed1c24;
      }

      .cls-32 {
        fill: #242021;
      }

      .cls-32, .cls-31 {
        font-family: ArialMT, Arial;
        font-size: 4px;
      }

      .cls-3, .cls-30, .cls-4, .cls-5, .cls-6, .cls-8, .cls-11, .cls-12, .cls-15, .cls-17, .cls-23 {
        fill: none;
      }

      .cls-4 {
        stroke: #f4b336;
      }

      .cls-4, .cls-12, .cls-23 {
        stroke-width: 5.047px;
      }

      .cls-33 {
        fill: #2471b4;
      }

      .cls-33, .cls-34, .cls-35, .cls-27, .cls-28, .cls-36, .cls-37 {
        stroke-width: 0px;
      }

      .cls-34 {
        fill: #7151a1;
      }

      .cls-38 {
        letter-spacing: -.062em;
      }

      .cls-6 {
        stroke: #f4c0a5;
      }

      .cls-26 {
        font-family: AppleSDGothicNeoEB00, AppleSDGothicNeoEB00;
      }

      .cls-35, .cls-9 {
        fill: #fff;
      }

      .cls-7 {
        fill: #f4cc72;
      }

      .cls-7, .cls-9, .cls-10, .cls-15, .cls-16, .cls-20, .cls-22, .cls-24 {
        stroke-width: .36px;
      }

      .cls-8 {
        stroke-width: .375px;
      }

      .cls-10 {
        fill: #f15a29;
      }

      .cls-11 {
        stroke-width: .427px;
      }

      .cls-12 {
        stroke: #f5ce71;
      }

      .cls-13 {
        fill: #e9c6df;
        stroke-width: .635px;
      }

      .cls-14 {
        fill: #8fb9da;
        stroke-width: .815px;
      }

      .cls-14, .cls-21 {
        stroke: #96979b;
      }

      .cls-28 {
        fill-rule: evenodd;
      }

      .cls-16 {
        fill: #f4cc71;
      }

      .cls-17 {
        stroke: #58595b;
        stroke-width: .715px;
      }

      .cls-18 {
        fill: #c1cd49;
      }

      .cls-18, .cls-19 {
        stroke: #808285;
      }

      .cls-36 {
        fill: #f4c0a5;
      }

      .cls-37 {
        fill: #6c52a2;
      }

      .cls-19, .cls-21 {
        fill: #b0d1a6;
      }

      .cls-20 {
        fill: #bcbec0;
      }

      .cls-21 {
        stroke-width: .794px;
      }

      .cls-22 {
        fill: #27aae1;
      }

      .cls-23 {
        stroke: #ecb537;
      }

      .cls-24 {
        fill: #5694c6;
      }
    </style>
  </defs>
  <rect class="cls-36" x="391.013" y=".423" width="87.077" height="298.07"/>
  <g>
    <rect class="cls-36" x="233.419" y="99.873" width="26.886" height="137.127"/>
    <g>
      <g>
        <ellipse class="cls-2" cx="336.497" cy="268.067" rx="5.227" ry="5.303"/>
        <path class="cls-3" d="m338.606,263.137s-3.484-10.792.55-14.885c4.035-4.093,1.284-9.489,1.284-9.489"/>
        <path class="cls-3" d="m334.022,263.695s-4.951-8.745-.734-16.187c0,0,2.017-4.279,0-8.745"/>
      </g>
      <g>
        <ellipse class="cls-2" cx="325.334" cy="268.067" rx="5.227" ry="5.303"/>
        <path class="cls-3" d="m327.443,263.137s-3.484-10.792.55-14.885c4.035-4.093,1.284-9.489,1.284-9.489"/>
        <path class="cls-3" d="m322.858,263.695s-4.951-8.745-.734-16.187c0,0,2.017-4.279,0-8.745"/>
      </g>
      <g>
        <ellipse class="cls-2" cx="314.17" cy="268.067" rx="5.227" ry="5.303"/>
        <path class="cls-3" d="m316.279,263.137s-3.484-10.792.55-14.885c4.035-4.093,1.284-9.489,1.284-9.489"/>
        <path class="cls-3" d="m311.694,263.695s-4.951-8.745-.734-16.187c0,0,2.017-4.279,0-8.745"/>
      </g>
      <g>
        <ellipse class="cls-2" cx="303.006" cy="268.067" rx="5.227" ry="5.303"/>
        <path class="cls-3" d="m305.115,263.137s-3.484-10.792.55-14.885c4.035-4.093,1.284-9.489,1.284-9.489"/>
        <path class="cls-3" d="m300.531,263.695s-4.951-8.745-.734-16.187c0,0,2.017-4.279,0-8.745"/>
      </g>
      <g>
        <ellipse class="cls-2" cx="291.843" cy="268.067" rx="5.227" ry="5.303"/>
        <path class="cls-3" d="m293.952,263.137s-3.484-10.792.55-14.885c4.035-4.093,1.284-9.489,1.284-9.489"/>
        <path class="cls-3" d="m289.367,263.695s-4.951-8.745-.734-16.187c0,0,2.017-4.279,0-8.745"/>
      </g>
      <g>
        <ellipse class="cls-2" cx="280.679" cy="268.067" rx="5.227" ry="5.303"/>
        <path class="cls-3" d="m282.788,263.137s-3.484-10.792.55-14.885c4.035-4.093,1.284-9.489,1.284-9.489"/>
        <path class="cls-3" d="m278.203,263.695s-4.951-8.745-.734-16.187c0,0,2.017-4.279,0-8.745"/>
      </g>
      <g>
        <ellipse class="cls-2" cx="269.515" cy="268.067" rx="5.227" ry="5.303"/>
        <path class="cls-3" d="m271.624,263.137s-3.484-10.792.55-14.885c4.035-4.093,1.284-9.489,1.284-9.489"/>
        <path class="cls-3" d="m267.04,263.695s-4.951-8.745-.734-16.187c0,0,2.017-4.279,0-8.745"/>
      </g>
      <g>
        <ellipse class="cls-2" cx="258.352" cy="268.067" rx="5.227" ry="5.303"/>
        <path class="cls-3" d="m260.461,263.137s-3.484-10.792.55-14.885c4.034-4.093,1.284-9.489,1.284-9.489"/>
        <path class="cls-3" d="m255.876,263.695s-4.951-8.745-.734-16.187c0,0,2.017-4.279,0-8.745"/>
      </g>
      <g>
        <ellipse class="cls-2" cx="247.188" cy="268.067" rx="5.227" ry="5.303"/>
        <path class="cls-3" d="m249.297,263.137s-3.484-10.792.55-14.885c4.034-4.093,1.284-9.489,1.284-9.489"/>
        <path class="cls-3" d="m244.712,263.695s-4.951-8.745-.734-16.187c0,0,2.017-4.279,0-8.745"/>
      </g>
      <g>
        <ellipse class="cls-2" cx="236.024" cy="268.067" rx="5.227" ry="5.303"/>
        <path class="cls-3" d="m238.133,263.137s-3.484-10.792.55-14.885c4.035-4.093,1.284-9.489,1.284-9.489"/>
        <path class="cls-3" d="m233.549,263.695s-4.951-8.745-.734-16.187c0,0,2.017-4.279,0-8.745"/>
      </g>
      <g>
        <ellipse class="cls-2" cx="224.861" cy="268.067" rx="5.227" ry="5.303"/>
        <path class="cls-3" d="m226.97,263.137s-3.484-10.792.55-14.885c4.035-4.093,1.284-9.489,1.284-9.489"/>
        <path class="cls-3" d="m222.385,263.695s-4.951-8.745-.734-16.187c0,0,2.017-4.279,0-8.745"/>
      </g>
      <g>
        <ellipse class="cls-2" cx="213.697" cy="268.067" rx="5.227" ry="5.303"/>
        <path class="cls-3" d="m215.806,263.137s-3.484-10.792.55-14.885c4.035-4.093,1.284-9.489,1.284-9.489"/>
        <path class="cls-3" d="m211.221,263.695s-4.951-8.745-.734-16.187c0,0,2.017-4.279,0-8.745"/>
      </g>
      <g>
        <ellipse class="cls-2" cx="202.533" cy="268.067" rx="5.227" ry="5.303"/>
        <path class="cls-3" d="m204.642,263.137s-3.484-10.792.55-14.885c4.035-4.093,1.284-9.489,1.284-9.489"/>
        <path class="cls-3" d="m200.058,263.695s-4.951-8.745-.734-16.187c0,0,2.017-4.279,0-8.745"/>
      </g>
      <g>
        <ellipse class="cls-2" cx="191.37" cy="268.067" rx="5.227" ry="5.303"/>
        <path class="cls-3" d="m193.479,263.137s-3.484-10.792.55-14.885c4.035-4.093,1.284-9.489,1.284-9.489"/>
        <path class="cls-3" d="m188.894,263.695s-4.951-8.745-.734-16.187c0,0,2.017-4.279,0-8.745"/>
      </g>
      <g>
        <ellipse class="cls-2" cx="180.206" cy="268.067" rx="5.227" ry="5.303"/>
        <path class="cls-3" d="m182.315,263.137s-3.484-10.792.55-14.885c4.035-4.093,1.284-9.489,1.284-9.489"/>
        <path class="cls-3" d="m177.73,263.695s-4.951-8.745-.734-16.187c0,0,2.017-4.279,0-8.745"/>
      </g>
      <g>
        <ellipse class="cls-2" cx="169.042" cy="268.067" rx="5.227" ry="5.303"/>
        <path class="cls-3" d="m171.151,263.137s-3.484-10.792.55-14.885c4.035-4.093,1.284-9.489,1.284-9.489"/>
        <path class="cls-3" d="m166.567,263.695s-4.951-8.745-.734-16.187c0,0,2.017-4.279,0-8.745"/>
      </g>
      <g>
        <ellipse class="cls-2" cx="157.879" cy="268.067" rx="5.227" ry="5.303"/>
        <path class="cls-3" d="m159.988,263.137s-3.484-10.792.55-14.885c4.035-4.093,1.284-9.489,1.284-9.489"/>
        <path class="cls-3" d="m155.403,263.695s-4.951-8.745-.734-16.187c0,0,2.017-4.279,0-8.745"/>
      </g>
      <g>
        <ellipse class="cls-2" cx="146.715" cy="268.067" rx="5.227" ry="5.303"/>
        <path class="cls-3" d="m148.824,263.137s-3.484-10.792.55-14.885c4.035-4.093,1.284-9.489,1.284-9.489"/>
        <path class="cls-3" d="m144.239,263.695s-4.951-8.745-.734-16.187c0,0,2.017-4.279,0-8.745"/>
      </g>
      <g>
        <ellipse class="cls-2" cx="135.551" cy="268.067" rx="5.227" ry="5.303"/>
        <path class="cls-3" d="m137.66,263.137s-3.484-10.792.55-14.885c4.035-4.093,1.284-9.489,1.284-9.489"/>
        <path class="cls-3" d="m133.076,263.695s-4.951-8.745-.734-16.187c0,0,2.017-4.279,0-8.745"/>
      </g>
      <g>
        <ellipse class="cls-2" cx="124.388" cy="268.067" rx="5.227" ry="5.303"/>
        <path class="cls-3" d="m126.497,263.137s-3.484-10.792.55-14.885c4.035-4.093,1.284-9.489,1.284-9.489"/>
        <path class="cls-3" d="m121.912,263.695s-4.951-8.745-.734-16.187c0,0,2.017-4.279,0-8.745"/>
      </g>
      <g>
        <ellipse class="cls-2" cx="113.224" cy="268.067" rx="5.227" ry="5.303"/>
        <path class="cls-3" d="m115.333,263.137s-3.484-10.792.55-14.885c4.035-4.093,1.284-9.489,1.284-9.489"/>
        <path class="cls-3" d="m110.748,263.695s-4.951-8.745-.734-16.187c0,0,2.017-4.279,0-8.745"/>
      </g>
      <g>
        <ellipse class="cls-2" cx="102.06" cy="268.067" rx="5.227" ry="5.303"/>
        <path class="cls-3" d="m104.169,263.137s-3.484-10.792.55-14.885c4.035-4.093,1.284-9.489,1.284-9.489"/>
        <path class="cls-3" d="m99.585,263.695s-4.951-8.745-.734-16.187c0,0,2.017-4.279,0-8.745"/>
      </g>
      <g>
        <ellipse class="cls-2" cx="90.897" cy="268.067" rx="5.227" ry="5.303"/>
        <path class="cls-3" d="m93.006,263.137s-3.484-10.792.55-14.885c4.035-4.093,1.284-9.489,1.284-9.489"/>
        <path class="cls-3" d="m88.421,263.695s-4.951-8.745-.734-16.187c0,0,2.017-4.279,0-8.745"/>
      </g>
      <g>
        <ellipse class="cls-2" cx="79.733" cy="268.067" rx="5.227" ry="5.303"/>
        <path class="cls-3" d="m81.842,263.137s-3.484-10.792.55-14.885c4.035-4.093,1.284-9.489,1.284-9.489"/>
        <path class="cls-3" d="m77.257,263.695s-4.951-8.745-.734-16.187c0,0,2.017-4.279,0-8.745"/>
      </g>
    </g>
    <g>
      <g>
        <ellipse class="cls-2" cx="337.428" cy="386.96" rx="5.227" ry="5.303"/>
        <path class="cls-3" d="m339.537,382.03s-3.484-10.792.55-14.885c4.034-4.093,1.284-9.489,1.284-9.489"/>
        <path class="cls-3" d="m334.952,382.588s-4.951-8.745-.734-16.187c0,0,2.017-4.279,0-8.745"/>
      </g>
      <g>
        <ellipse class="cls-2" cx="326.264" cy="386.96" rx="5.227" ry="5.303"/>
        <path class="cls-3" d="m328.373,382.03s-3.484-10.792.55-14.885c4.034-4.093,1.284-9.489,1.284-9.489"/>
        <path class="cls-3" d="m323.788,382.588s-4.951-8.745-.734-16.187c0,0,2.017-4.279,0-8.745"/>
      </g>
      <g>
        <ellipse class="cls-2" cx="315.1" cy="386.96" rx="5.227" ry="5.303"/>
        <path class="cls-3" d="m317.209,382.03s-3.484-10.792.55-14.885c4.035-4.093,1.284-9.489,1.284-9.489"/>
        <path class="cls-3" d="m312.625,382.588s-4.951-8.745-.734-16.187c0,0,2.017-4.279,0-8.745"/>
      </g>
      <g>
        <ellipse class="cls-2" cx="303.937" cy="386.96" rx="5.227" ry="5.303"/>
        <path class="cls-3" d="m306.046,382.03s-3.484-10.792.55-14.885c4.035-4.093,1.284-9.489,1.284-9.489"/>
        <path class="cls-3" d="m301.461,382.588s-4.951-8.745-.734-16.187c0,0,2.017-4.279,0-8.745"/>
      </g>
      <g>
        <ellipse class="cls-2" cx="292.773" cy="386.96" rx="5.227" ry="5.303"/>
        <path class="cls-3" d="m294.882,382.03s-3.484-10.792.55-14.885c4.035-4.093,1.284-9.489,1.284-9.489"/>
        <path class="cls-3" d="m290.297,382.588s-4.951-8.745-.734-16.187c0,0,2.017-4.279,0-8.745"/>
      </g>
      <g>
        <ellipse class="cls-2" cx="281.609" cy="386.96" rx="5.227" ry="5.303"/>
        <path class="cls-3" d="m283.718,382.03s-3.484-10.792.55-14.885c4.035-4.093,1.284-9.489,1.284-9.489"/>
        <path class="cls-3" d="m279.134,382.588s-4.951-8.745-.734-16.187c0,0,2.017-4.279,0-8.745"/>
      </g>
      <g>
        <ellipse class="cls-2" cx="270.446" cy="386.96" rx="5.227" ry="5.303"/>
        <path class="cls-3" d="m272.555,382.03s-3.484-10.792.55-14.885c4.035-4.093,1.284-9.489,1.284-9.489"/>
        <path class="cls-3" d="m267.97,382.588s-4.951-8.745-.734-16.187c0,0,2.017-4.279,0-8.745"/>
      </g>
      <g>
        <ellipse class="cls-2" cx="259.282" cy="386.96" rx="5.227" ry="5.303"/>
        <path class="cls-3" d="m261.391,382.03s-3.484-10.792.55-14.885c4.035-4.093,1.284-9.489,1.284-9.489"/>
        <path class="cls-3" d="m256.806,382.588s-4.951-8.745-.734-16.187c0,0,2.017-4.279,0-8.745"/>
      </g>
      <g>
        <ellipse class="cls-2" cx="248.118" cy="386.96" rx="5.227" ry="5.303"/>
        <path class="cls-3" d="m250.227,382.03s-3.484-10.792.55-14.885c4.035-4.093,1.284-9.489,1.284-9.489"/>
        <path class="cls-3" d="m245.643,382.588s-4.951-8.745-.734-16.187c0,0,2.017-4.279,0-8.745"/>
      </g>
      <g>
        <ellipse class="cls-2" cx="236.955" cy="386.96" rx="5.227" ry="5.303"/>
        <path class="cls-3" d="m239.064,382.03s-3.484-10.792.55-14.885c4.034-4.093,1.284-9.489,1.284-9.489"/>
        <path class="cls-3" d="m234.479,382.588s-4.951-8.745-.734-16.187c0,0,2.017-4.279,0-8.745"/>
      </g>
      <g>
        <ellipse class="cls-2" cx="225.791" cy="386.96" rx="5.227" ry="5.303"/>
        <path class="cls-3" d="m227.9,382.03s-3.484-10.792.55-14.885c4.034-4.093,1.284-9.489,1.284-9.489"/>
        <path class="cls-3" d="m223.315,382.588s-4.951-8.745-.734-16.187c0,0,2.017-4.279,0-8.745"/>
      </g>
      <g>
        <ellipse class="cls-2" cx="214.627" cy="386.96" rx="5.227" ry="5.303"/>
        <path class="cls-3" d="m216.736,382.03s-3.484-10.792.55-14.885c4.035-4.093,1.284-9.489,1.284-9.489"/>
        <path class="cls-3" d="m212.152,382.588s-4.951-8.745-.734-16.187c0,0,2.017-4.279,0-8.745"/>
      </g>
      <g>
        <ellipse class="cls-2" cx="203.464" cy="386.96" rx="5.227" ry="5.303"/>
        <path class="cls-3" d="m205.573,382.03s-3.484-10.792.55-14.885c4.035-4.093,1.284-9.489,1.284-9.489"/>
        <path class="cls-3" d="m200.988,382.588s-4.951-8.745-.734-16.187c0,0,2.017-4.279,0-8.745"/>
      </g>
      <g>
        <ellipse class="cls-2" cx="192.3" cy="386.96" rx="5.227" ry="5.303"/>
        <path class="cls-3" d="m194.409,382.03s-3.484-10.792.55-14.885c4.035-4.093,1.284-9.489,1.284-9.489"/>
        <path class="cls-3" d="m189.824,382.588s-4.951-8.745-.734-16.187c0,0,2.017-4.279,0-8.745"/>
      </g>
      <g>
        <ellipse class="cls-2" cx="181.136" cy="386.96" rx="5.227" ry="5.303"/>
        <path class="cls-3" d="m183.245,382.03s-3.484-10.792.55-14.885c4.035-4.093,1.284-9.489,1.284-9.489"/>
        <path class="cls-3" d="m178.661,382.588s-4.951-8.745-.734-16.187c0,0,2.017-4.279,0-8.745"/>
      </g>
      <g>
        <ellipse class="cls-2" cx="169.973" cy="386.96" rx="5.227" ry="5.303"/>
        <path class="cls-3" d="m172.082,382.03s-3.484-10.792.55-14.885c4.035-4.093,1.284-9.489,1.284-9.489"/>
        <path class="cls-3" d="m167.497,382.588s-4.951-8.745-.734-16.187c0,0,2.017-4.279,0-8.745"/>
      </g>
      <g>
        <ellipse class="cls-2" cx="158.809" cy="386.96" rx="5.227" ry="5.303"/>
        <path class="cls-3" d="m160.918,382.03s-3.484-10.792.55-14.885c4.035-4.093,1.284-9.489,1.284-9.489"/>
        <path class="cls-3" d="m156.333,382.588s-4.951-8.745-.734-16.187c0,0,2.017-4.279,0-8.745"/>
      </g>
      <g>
        <ellipse class="cls-2" cx="147.645" cy="386.96" rx="5.227" ry="5.303"/>
        <path class="cls-3" d="m149.754,382.03s-3.484-10.792.55-14.885c4.035-4.093,1.284-9.489,1.284-9.489"/>
        <path class="cls-3" d="m145.17,382.588s-4.951-8.745-.734-16.187c0,0,2.017-4.279,0-8.745"/>
      </g>
      <g>
        <ellipse class="cls-2" cx="136.482" cy="386.96" rx="5.227" ry="5.303"/>
        <path class="cls-3" d="m138.591,382.03s-3.484-10.792.55-14.885c4.035-4.093,1.284-9.489,1.284-9.489"/>
        <path class="cls-3" d="m134.006,382.588s-4.951-8.745-.734-16.187c0,0,2.017-4.279,0-8.745"/>
      </g>
      <g>
        <ellipse class="cls-2" cx="125.318" cy="386.96" rx="5.227" ry="5.303"/>
        <path class="cls-3" d="m127.427,382.03s-3.484-10.792.55-14.885c4.035-4.093,1.284-9.489,1.284-9.489"/>
        <path class="cls-3" d="m122.842,382.588s-4.951-8.745-.734-16.187c0,0,2.017-4.279,0-8.745"/>
      </g>
      <g>
        <ellipse class="cls-2" cx="114.154" cy="386.96" rx="5.227" ry="5.303"/>
        <path class="cls-3" d="m116.263,382.03s-3.484-10.792.55-14.885c4.035-4.093,1.284-9.489,1.284-9.489"/>
        <path class="cls-3" d="m111.679,382.588s-4.951-8.745-.734-16.187c0,0,2.017-4.279,0-8.745"/>
      </g>
      <g>
        <ellipse class="cls-2" cx="102.991" cy="386.96" rx="5.227" ry="5.303"/>
        <path class="cls-3" d="m105.1,382.03s-3.484-10.792.55-14.885c4.035-4.093,1.284-9.489,1.284-9.489"/>
        <path class="cls-3" d="m100.515,382.588s-4.951-8.745-.734-16.187c0,0,2.017-4.279,0-8.745"/>
      </g>
      <g>
        <ellipse class="cls-2" cx="91.827" cy="386.96" rx="5.227" ry="5.303"/>
        <path class="cls-3" d="m93.936,382.03s-3.484-10.792.55-14.885c4.035-4.093,1.284-9.489,1.284-9.489"/>
        <path class="cls-3" d="m89.351,382.588s-4.951-8.745-.734-16.187c0,0,2.017-4.279,0-8.745"/>
      </g>
      <g>
        <ellipse class="cls-2" cx="80.663" cy="386.96" rx="5.227" ry="5.303"/>
        <path class="cls-3" d="m82.772,382.03s-3.484-10.792.55-14.885c4.035-4.093,1.284-9.489,1.284-9.489"/>
        <path class="cls-3" d="m78.188,382.588s-4.951-8.745-.734-16.187c0,0,2.017-4.279,0-8.745"/>
      </g>
    </g>
    <g>
      <g>
        <ellipse class="cls-2" cx="79.733" cy="327.616" rx="5.227" ry="5.303"/>
        <path class="cls-3" d="m77.624,332.546s3.484,10.792-.55,14.885c-4.035,4.093-1.284,9.489-1.284,9.489"/>
        <path class="cls-3" d="m82.209,331.988s4.951,8.745.734,16.187c0,0-2.017,4.279,0,8.745"/>
      </g>
      <g>
        <ellipse class="cls-2" cx="90.897" cy="327.616" rx="5.227" ry="5.303"/>
        <path class="cls-3" d="m88.788,332.546s3.484,10.792-.55,14.885c-4.035,4.093-1.284,9.489-1.284,9.489"/>
        <path class="cls-3" d="m93.372,331.988s4.951,8.745.734,16.187c0,0-2.017,4.279,0,8.745"/>
      </g>
      <g>
        <ellipse class="cls-2" cx="102.06" cy="327.616" rx="5.227" ry="5.303"/>
        <path class="cls-3" d="m99.951,332.546s3.484,10.792-.55,14.885c-4.035,4.093-1.284,9.489-1.284,9.489"/>
        <path class="cls-3" d="m104.536,331.988s4.951,8.745.734,16.187c0,0-2.017,4.279,0,8.745"/>
      </g>
      <g>
        <ellipse class="cls-2" cx="113.224" cy="327.616" rx="5.227" ry="5.303"/>
        <path class="cls-3" d="m111.115,332.546s3.484,10.792-.55,14.885c-4.035,4.093-1.284,9.489-1.284,9.489"/>
        <path class="cls-3" d="m115.7,331.988s4.951,8.745.734,16.187c0,0-2.017,4.279,0,8.745"/>
      </g>
      <g>
        <ellipse class="cls-2" cx="124.388" cy="327.616" rx="5.227" ry="5.303"/>
        <path class="cls-3" d="m122.279,332.546s3.484,10.792-.55,14.885c-4.035,4.093-1.284,9.489-1.284,9.489"/>
        <path class="cls-3" d="m126.863,331.988s4.951,8.745.734,16.187c0,0-2.017,4.279,0,8.745"/>
      </g>
      <g>
        <ellipse class="cls-2" cx="135.551" cy="327.616" rx="5.227" ry="5.303"/>
        <path class="cls-3" d="m133.442,332.546s3.484,10.792-.55,14.885c-4.035,4.093-1.284,9.489-1.284,9.489"/>
        <path class="cls-3" d="m138.027,331.988s4.951,8.745.734,16.187c0,0-2.017,4.279,0,8.745"/>
      </g>
      <g>
        <ellipse class="cls-2" cx="146.715" cy="327.616" rx="5.227" ry="5.303"/>
        <path class="cls-3" d="m144.606,332.546s3.484,10.792-.55,14.885c-4.035,4.093-1.284,9.489-1.284,9.489"/>
        <path class="cls-3" d="m149.191,331.988s4.951,8.745.734,16.187c0,0-2.017,4.279,0,8.745"/>
      </g>
      <g>
        <ellipse class="cls-2" cx="157.879" cy="327.616" rx="5.227" ry="5.303"/>
        <path class="cls-3" d="m155.77,332.546s3.484,10.792-.55,14.885c-4.035,4.093-1.284,9.489-1.284,9.489"/>
        <path class="cls-3" d="m160.354,331.988s4.951,8.745.734,16.187c0,0-2.017,4.279,0,8.745"/>
      </g>
      <g>
        <ellipse class="cls-2" cx="169.042" cy="327.616" rx="5.227" ry="5.303"/>
        <path class="cls-3" d="m166.933,332.546s3.484,10.792-.55,14.885c-4.035,4.093-1.284,9.489-1.284,9.489"/>
        <path class="cls-3" d="m171.518,331.988s4.951,8.745.734,16.187c0,0-2.017,4.279,0,8.745"/>
      </g>
      <g>
        <ellipse class="cls-2" cx="180.206" cy="327.616" rx="5.227" ry="5.303"/>
        <path class="cls-3" d="m178.097,332.546s3.484,10.792-.55,14.885c-4.035,4.093-1.284,9.489-1.284,9.489"/>
        <path class="cls-3" d="m182.682,331.988s4.951,8.745.734,16.187c0,0-2.017,4.279,0,8.745"/>
      </g>
      <g>
        <ellipse class="cls-2" cx="191.37" cy="327.616" rx="5.227" ry="5.303"/>
        <path class="cls-3" d="m189.261,332.546s3.484,10.792-.55,14.885c-4.035,4.093-1.284,9.489-1.284,9.489"/>
        <path class="cls-3" d="m193.845,331.988s4.951,8.745.734,16.187c0,0-2.017,4.279,0,8.745"/>
      </g>
      <g>
        <ellipse class="cls-2" cx="202.533" cy="327.616" rx="5.227" ry="5.303"/>
        <path class="cls-3" d="m200.424,332.546s3.484,10.792-.55,14.885c-4.035,4.093-1.284,9.489-1.284,9.489"/>
        <path class="cls-3" d="m205.009,331.988s4.951,8.745.734,16.187c0,0-2.017,4.279,0,8.745"/>
      </g>
      <g>
        <ellipse class="cls-2" cx="213.697" cy="327.616" rx="5.227" ry="5.303"/>
        <path class="cls-3" d="m211.588,332.546s3.484,10.792-.55,14.885c-4.035,4.093-1.284,9.489-1.284,9.489"/>
        <path class="cls-3" d="m216.173,331.988s4.951,8.745.734,16.187c0,0-2.017,4.279,0,8.745"/>
      </g>
      <g>
        <ellipse class="cls-2" cx="224.861" cy="327.616" rx="5.227" ry="5.303"/>
        <path class="cls-3" d="m222.752,332.546s3.484,10.792-.55,14.885c-4.035,4.093-1.284,9.489-1.284,9.489"/>
        <path class="cls-3" d="m227.336,331.988s4.951,8.745.734,16.187c0,0-2.017,4.279,0,8.745"/>
      </g>
      <g>
        <ellipse class="cls-2" cx="236.024" cy="327.616" rx="5.227" ry="5.303"/>
        <path class="cls-3" d="m233.915,332.546s3.484,10.792-.55,14.885c-4.035,4.093-1.284,9.489-1.284,9.489"/>
        <path class="cls-3" d="m238.5,331.988s4.951,8.745.734,16.187c0,0-2.017,4.279,0,8.745"/>
      </g>
      <g>
        <ellipse class="cls-2" cx="247.188" cy="327.616" rx="5.227" ry="5.303"/>
        <path class="cls-3" d="m245.079,332.546s3.484,10.792-.55,14.885c-4.035,4.093-1.284,9.489-1.284,9.489"/>
        <path class="cls-3" d="m249.664,331.988s4.951,8.745.734,16.187c0,0-2.017,4.279,0,8.745"/>
      </g>
      <g>
        <ellipse class="cls-2" cx="258.352" cy="327.616" rx="5.227" ry="5.303"/>
        <path class="cls-3" d="m256.243,332.546s3.484,10.792-.55,14.885c-4.034,4.093-1.284,9.489-1.284,9.489"/>
        <path class="cls-3" d="m260.827,331.988s4.951,8.745.734,16.187c0,0-2.017,4.279,0,8.745"/>
      </g>
      <g>
        <ellipse class="cls-2" cx="269.515" cy="327.616" rx="5.227" ry="5.303"/>
        <path class="cls-3" d="m267.406,332.546s3.484,10.792-.55,14.885c-4.034,4.093-1.284,9.489-1.284,9.489"/>
        <path class="cls-3" d="m271.991,331.988s4.951,8.745.734,16.187c0,0-2.017,4.279,0,8.745"/>
      </g>
      <g>
        <ellipse class="cls-2" cx="280.679" cy="327.616" rx="5.227" ry="5.303"/>
        <path class="cls-3" d="m278.57,332.546s3.484,10.792-.55,14.885c-4.035,4.093-1.284,9.489-1.284,9.489"/>
        <path class="cls-3" d="m283.155,331.988s4.951,8.745.734,16.187c0,0-2.017,4.279,0,8.745"/>
      </g>
      <g>
        <ellipse class="cls-2" cx="291.843" cy="327.616" rx="5.227" ry="5.303"/>
        <path class="cls-3" d="m289.734,332.546s3.484,10.792-.55,14.885c-4.035,4.093-1.284,9.489-1.284,9.489"/>
        <path class="cls-3" d="m294.318,331.988s4.951,8.745.734,16.187c0,0-2.017,4.279,0,8.745"/>
      </g>
      <g>
        <ellipse class="cls-2" cx="303.006" cy="327.616" rx="5.227" ry="5.303"/>
        <path class="cls-3" d="m300.897,332.546s3.484,10.792-.55,14.885c-4.035,4.093-1.284,9.489-1.284,9.489"/>
        <path class="cls-3" d="m305.482,331.988s4.951,8.745.734,16.187c0,0-2.017,4.279,0,8.745"/>
      </g>
      <g>
        <ellipse class="cls-2" cx="314.17" cy="327.616" rx="5.227" ry="5.303"/>
        <path class="cls-3" d="m312.061,332.546s3.484,10.792-.55,14.885c-4.035,4.093-1.284,9.489-1.284,9.489"/>
        <path class="cls-3" d="m316.646,331.988s4.951,8.745.734,16.187c0,0-2.017,4.279,0,8.745"/>
      </g>
      <g>
        <ellipse class="cls-2" cx="325.334" cy="327.616" rx="5.227" ry="5.303"/>
        <path class="cls-3" d="m323.225,332.546s3.484,10.792-.55,14.885c-4.035,4.093-1.284,9.489-1.284,9.489"/>
        <path class="cls-3" d="m327.809,331.988s4.951,8.745.734,16.187c0,0-2.017,4.279,0,8.745"/>
      </g>
      <g>
        <ellipse class="cls-2" cx="336.497" cy="327.616" rx="5.227" ry="5.303"/>
        <path class="cls-3" d="m334.388,332.546s3.484,10.792-.55,14.885c-4.035,4.093-1.284,9.489-1.284,9.489"/>
        <path class="cls-3" d="m338.973,331.988s4.951,8.745.734,16.187c0,0-2.017,4.279,0,8.745"/>
      </g>
    </g>
    <path class="cls-5" d="m135.551,212.626s3.535,10.792-.558,14.885c-4.093,4.093-1.302,9.489-1.302,9.489"/>
    <g>
      <circle class="cls-1" cx="137.691" cy="207.695" r="5.303"/>
      <path class="cls-5" d="m140.203,212.067s5.024,8.745.744,16.187c0,0-2.047,4.279,0,8.745"/>
      <circle class="cls-1" cx="148.924" cy="207.695" r="5.303"/>
      <path class="cls-5" d="m146.785,212.626s3.535,10.792-.558,14.885c-4.093,4.093-1.302,9.489-1.302,9.489"/>
    </g>
    <path class="cls-5" d="m151.436,212.067s5.024,8.745.744,16.187c0,0-2.047,4.279,0,8.745"/>
    <path class="cls-5" d="m216.302,212.626s3.535,10.792-.558,14.885c-4.093,4.093-1.302,9.489-1.302,9.489"/>
    <g>
      <circle class="cls-1" cx="218.442" cy="207.695" r="5.303"/>
      <path class="cls-5" d="m220.953,212.067s5.024,8.745.744,16.187c0,0-2.047,4.279,0,8.745"/>
      <circle class="cls-1" cx="229.675" cy="207.695" r="5.303"/>
      <path class="cls-5" d="m227.535,212.626s3.535,10.792-.558,14.885c-4.093,4.093-1.302,9.489-1.302,9.489"/>
    </g>
    <path class="cls-6" d="m232.187,212.067s5.024,8.745.744,16.187c0,0-2.047,4.279,0,8.745l158.082,61.493"/>
    <g>
      <circle class="cls-1" cx="81.501" cy="207.695" r="5.303"/>
      <path class="cls-5" d="m79.361,212.626s3.535,10.792-.558,14.885-1.302,9.489-1.302,9.489"/>
      <path class="cls-5" d="m84.012,212.067s5.024,8.745.744,16.187c0,0-2.047,4.279,0,8.745"/>
      <circle class="cls-1" cx="92.734" cy="207.695" r="5.303"/>
      <path class="cls-5" d="m90.594,212.626s3.535,10.792-.558,14.885c-4.093,4.093-1.302,9.489-1.302,9.489"/>
      <path class="cls-5" d="m95.246,212.067s5.024,8.745.744,16.187c0,0-2.047,4.279,0,8.745"/>
      <circle class="cls-1" cx="103.967" cy="207.695" r="5.303"/>
      <path class="cls-5" d="m101.828,212.626s3.535,10.792-.558,14.885c-4.093,4.093-1.302,9.489-1.302,9.489"/>
      <path class="cls-5" d="m106.479,212.067s5.024,8.745.744,16.187c0,0-2.047,4.279,0,8.745"/>
    </g>
    <g>
      <circle class="cls-1" cx="160.763" cy="207.695" r="5.303"/>
      <path class="cls-5" d="m158.623,212.626s3.535,10.792-.558,14.885c-4.093,4.093-1.302,9.489-1.302,9.489"/>
      <path class="cls-5" d="m163.274,212.067s5.024,8.745.744,16.187c0,0-2.047,4.279,0,8.745"/>
      <circle class="cls-1" cx="171.996" cy="207.695" r="5.303"/>
      <path class="cls-5" d="m169.856,212.626s3.535,10.792-.558,14.885c-4.093,4.093-1.302,9.489-1.302,9.489"/>
      <path class="cls-5" d="m174.508,212.067s5.024,8.745.744,16.187c0,0-2.047,4.279,0,8.745"/>
      <circle class="cls-1" cx="183.229" cy="207.695" r="5.303"/>
      <path class="cls-5" d="m181.09,212.626s3.535,10.792-.558,14.885c-4.093,4.093-1.302,9.489-1.302,9.489"/>
      <path class="cls-5" d="m185.741,212.067s5.024,8.745.744,16.187c0,0-2.047,4.279,0,8.745"/>
    </g>
    <g>
      <circle class="cls-1" cx="264.306" cy="207.695" r="5.303"/>
      <path class="cls-5" d="m262.166,212.626s3.535,10.792-.558,14.885c-4.093,4.093-1.302,9.489-1.302,9.489"/>
      <path class="cls-5" d="m266.817,212.067s5.024,8.745.744,16.187c0,0-2.047,4.279,0,8.745"/>
      <circle class="cls-1" cx="275.539" cy="207.695" r="5.303"/>
      <path class="cls-5" d="m273.399,212.626s3.535,10.792-.558,14.885-1.302,9.489-1.302,9.489"/>
      <path class="cls-5" d="m278.051,212.067s5.024,8.745.744,16.187c0,0-2.047,4.279,0,8.745"/>
      <circle class="cls-1" cx="286.772" cy="207.695" r="5.303"/>
      <path class="cls-5" d="m284.633,212.626s3.535,10.792-.558,14.885c-4.093,4.093-1.302,9.489-1.302,9.489"/>
      <path class="cls-5" d="m289.284,212.067s5.024,8.745.744,16.187c0,0-2.047,4.279,0,8.745"/>
    </g>
    <g>
      <circle class="cls-1" cx="320.868" cy="207.695" r="5.303"/>
      <path class="cls-5" d="m318.728,212.626s3.535,10.792-.558,14.885-1.302,9.489-1.302,9.489"/>
      <path class="cls-5" d="m323.38,212.067s5.024,8.745.744,16.187c0,0-2.047,4.279,0,8.745"/>
      <circle class="cls-1" cx="332.102" cy="207.695" r="5.303"/>
      <path class="cls-5" d="m329.962,212.626s3.535,10.792-.558,14.885c-4.093,4.093-1.302,9.489-1.302,9.489"/>
      <path class="cls-5" d="m334.613,212.067s5.024,8.745.744,16.187c0,0-2.047,4.279,0,8.745"/>
      <circle class="cls-1" cx="343.335" cy="207.695" r="5.303"/>
      <path class="cls-5" d="m341.195,212.626s3.535,10.792-.558,14.885c-4.093,4.093-1.302,9.489-1.302,9.489"/>
      <path class="cls-5" d="m345.847,212.067s5.024,8.745.744,16.187c0,0-2.047,4.279,0,8.745"/>
    </g>
    <g>
      <g>
        <path class="cls-33" d="m111.536,111.639c-1.509-.533-2.249-2.284-1.522-3.885.715-1.598,2.61-2.243,3.954-1.37,1.331.864,1.882,2.449,1.288,3.776-.598,1.315-2.227,2.007-3.72,1.478Z"/>
        <path class="cls-33" d="m109.927,117.205c-.778-.169-1.409-.644-1.793-1.302-.396-.658-.52-1.493-.264-2.312.454-1.669,2.198-2.516,3.667-1.952,1.505.576,2.254,2.135,1.872,3.56-.224.711-.699,1.282-1.308,1.652-.619.365-1.395.522-2.174.353Z"/>
        <path class="cls-33" d="m109.074,122.934c-.794-.065-1.481-.453-1.949-1.054-.466-.599-.731-1.412-.573-2.253.138-.843.582-1.553,1.184-1.991.635-.435,1.413-.602,2.191-.431.778.171,1.411.637,1.81,1.224.431.596.641,1.318.52,2.055-.142.734-.507,1.368-1.074,1.814-.566.444-1.315.702-2.108.637Z"/>
        <path class="cls-33" d="m108.976,128.726c-1.58.092-3.006-1.225-2.927-2.95.026-.853.341-1.615.909-2.127.572-.514,1.321-.782,2.115-.715.793.067,1.482.446,1.955.976.476.533.811,1.223.788,1.971-.076,1.479-1.24,2.752-2.84,2.844Z"/>
        <path class="cls-33" d="m109.589,134.488c-1.566.292-3.03-.852-3.263-2.556-.21-1.706,1.082-3.154,2.65-3.206,1.616-.057,2.898,1.102,3.083,2.573.205,1.469-.905,2.897-2.47,3.189Z"/>
        <path class="cls-33" d="m110.96,140.116c-1.5.468-3.234-.442-3.563-2.129-.37-1.674.583-3.236,2.192-3.5,1.535-.25,3.102.713,3.42,2.166.275,1.464-.508,2.984-2.049,3.463Z"/>
        <path class="cls-33" d="m112.946,145.559c-1.459.639-3.171-.118-3.818-1.692-.526-1.626.304-3.309,1.832-3.751,1.531-.443,3.134.353,3.587,1.776.577,1.385-.143,3.028-1.602,3.667Z"/>
        <path class="cls-33" d="m115.207,150.899c-1.484.579-3.176-.09-3.776-1.495-.151-.354-.221-.724-.22-1.093-.004-.386.061-.783.195-1.138.268-.716.806-1.302,1.539-1.614.733-.311,1.519-.298,2.188-.044.336.13.637.311.901.564.274.269.504.6.668.983.66,1.54-.011,3.258-1.495,3.837Z"/>
        <path class="cls-33" d="m117.095,156.378c-1.531.431-3.076-.393-3.616-1.812-.497-1.43.278-3.075,1.729-3.667,1.499-.611,3.165.182,3.721,1.777.596,1.579-.297,3.269-1.833,3.702Z"/>
        <path class="cls-33" d="m118.43,162.017c-1.573.247-3.093-.731-3.385-2.185-.363-1.449.516-2.991,2.05-3.454,1.515-.459,3.154.485,3.566,2.142.345,1.684-.658,3.251-2.231,3.498Z"/>
        <path class="cls-33" d="m118.975,167.785c-1.605-.001-2.919-1.171-3.038-2.618-.193-1.453.955-2.868,2.493-3.149,1.595-.291,3.028.877,3.248,2.599.146,1.741-1.123,3.172-2.703,3.169Z"/>
        <path class="cls-33" d="m118.501,173.554c-.782-.149-1.432-.593-1.856-1.143-.46-.563-.714-1.243-.632-1.954.06-1.42,1.398-2.622,2.962-2.672,1.62-.051,2.873,1.345,2.789,3.122-.096.88-.503,1.642-1.087,2.121-.622.481-1.394.675-2.176.526Z"/>
        <path class="cls-33" d="m116.718,179.049c-.705-.362-1.205-.959-1.504-1.598-.272-.626-.382-1.324-.149-1.967.183-.668.68-1.182,1.285-1.542.599-.358,1.367-.534,2.15-.389.783.145,1.429.606,1.83,1.279.396.667.475,1.545.226,2.417-.305.866-.882,1.541-1.616,1.86-.706.329-1.511.306-2.223-.06Z"/>
        <path class="cls-33" d="m113.927,184.098c-.749-.241-1.359-.795-1.606-1.561-.252-.761-.178-1.739.412-2.644.168-.238.31-.428.538-.647l.163-.152.09-.077c.035-.03.066-.055.05-.028-.003.021-.012.057,0,.07l.09-.04c.245-.082.557-.209.894-.253.666-.119,1.449-.077,2.162.284.707.358,1.207.985,1.356,1.779.057.4.066.821-.101,1.298l-.061.176c-.042.083-.107.19-.166.283-.043.063-.042.072-.038.077v.028s-.011.068-.011.068c-.014.071-.077.215-.144.301-.287.438-.801.794-1.45,1.002-.653.201-1.412.285-2.178.038Z"/>
        <path class="cls-33" d="m113.239,189.822c-1.574.119-2.986-1.299-2.788-3.223.125-.943.597-1.744,1.266-2.194.634-.46,1.466-.556,2.211-.307.765.255,1.323.755,1.739,1.323.381.562.607,1.189.515,1.833-.134,1.267-1.343,2.449-2.942,2.568Z"/>
        <path class="cls-33" d="m114.271,195.512c-.763.229-1.544.115-2.199-.294-.674-.397-1.159-1.117-1.319-2.002-.197-.87.07-1.752.52-2.364.446-.619,1.171-.994,1.966-1.03.796-.036,1.511.24,2.096.662.582.428.928,1,1.091,1.693.214,1.36-.606,2.852-2.155,3.335Z"/>
        <path class="cls-33" d="m116.387,200.904c-1.418.713-3.166.017-3.849-1.586-.299-.818-.265-1.672.043-2.357.308-.69.934-1.228,1.69-1.45.772-.227,1.521-.123,2.184.175.665.301,1.195.81,1.442,1.498.577,1.34-.082,3.003-1.51,3.72Z"/>
      </g>
      <g>
        <path class="cls-33" d="m125.242,161.003c1.298.911,1.597,2.729.564,3.987-1.036,1.258-2.89,1.302-4.024.191-1.142-1.118-1.29-2.809-.421-3.867.871-1.059,2.571-1.229,3.88-.31Z"/>
        <path class="cls-33" d="m128.102,156.394c1.423.734,1.95,2.493,1.094,3.876-.853,1.384-2.683,1.671-3.954.733-1.292-.953-1.66-2.612-.942-3.782.722-1.166,2.394-1.553,3.801-.827Z"/>
        <path class="cls-33" d="m130.31,151.44c1.5.516,2.276,2.191,1.616,3.686-.654,1.498-2.435,2.029-3.823,1.268-1.406-.769-1.99-2.358-1.447-3.611.552-1.246,2.144-1.864,3.655-1.343Z"/>
        <path class="cls-33" d="m131.738,146.21c1.566.282,2.612,1.829,2.162,3.41-.432,1.585-2.116,2.375-3.59,1.82-1.508-.564-2.322-2.05-1.969-3.358.375-1.303,1.829-2.155,3.397-1.873Z"/>
        <path class="cls-33" d="m132.357,140.824c.796.027,1.5.361,1.993.913.492.548.789,1.315.668,2.12-.171,1.64-1.722,2.679-3.28,2.353-1.56-.327-2.586-1.663-2.451-3.009.106-.678.444-1.27.991-1.702.546-.43,1.283-.702,2.079-.675Z"/>
        <path class="cls-33" d="m132.138,135.407c1.576-.215,3.028.935,3.101,2.58.08,1.645-1.287,2.917-2.882,2.837-1.586-.078-2.811-1.237-2.88-2.588-.059-1.351,1.081-2.614,2.661-2.829Z"/>
        <path class="cls-33" d="m131.07,130.09c1.529-.452,3.136.461,3.461,2.071.325,1.611-.815,3.077-2.394,3.246-1.589.171-2.991-.782-3.262-2.111-.266-1.33.668-2.756,2.194-3.206Z"/>
        <path class="cls-33" d="m129.225,124.991c1.441-.668,3.171-.007,3.727,1.533.563,1.538-.346,3.158-1.882,3.566-1.542.411-3.071-.323-3.541-1.6-.46-1.281.247-2.829,1.696-3.499Z"/>
      </g>
    </g>
    <g>
      <path class="cls-33" d="m216.899,113.202c-.425-.697-.5-1.494-.242-2.251.248-.768.857-1.446,1.704-1.85,1.718-.803,3.669-.016,4.08,1.563.409,1.565-.271,3.141-1.613,3.769-.676.325-1.431.334-2.131.137-.704-.212-1.378-.68-1.798-1.368Z"/>
      <path class="cls-33" d="m212.101,116.963c-.584-.578-.846-1.334-.763-2.128.085-.784.484-1.65,1.25-2.2.373-.287.78-.494,1.188-.617.419-.106.843-.121,1.238-.063.792.117,1.467.554,1.887,1.248.42.694.522,1.505.389,2.228-.067.363-.199.701-.384,1.005-.173.321-.404.603-.7.83-.612.431-1.285.661-2.031.607-.736-.051-1.503-.346-2.072-.908Z"/>
      <path class="cls-33" d="m208.462,121.846c-.711-.39-1.181-1.052-1.332-1.857-.184-.821.079-1.697.644-2.473.543-.797,1.403-1.207,2.196-1.294.799-.089,1.558.169,2.131.742.574.573.872,1.337.928,2.067.056.736-.165,1.414-.565,2.022-.897,1.107-2.539,1.553-4.002.793Z"/>
      <path class="cls-33" d="m206.293,127.533c-.791-.179-1.415-.682-1.768-1.406-.177-.361-.286-.774-.317-1.213-.015-.219-.014-.446.013-.674.048-.221.118-.445.209-.667.371-.887.997-1.568,1.73-1.876.775-.294,1.593-.246,2.301.148.709.394,1.189,1.037,1.417,1.704.264.691.334,1.436.046,2.102-.071.168-.16.324-.265.47-.084.154-.18.299-.293.431-.225.266-.509.487-.832.66-.646.343-1.451.499-2.242.32Z"/>
      <path class="cls-33" d="m205.693,133.597c-.811.011-1.54-.331-2.061-.937-.26-.302-.469-.668-.609-1.077-.143-.408-.223-.859-.138-1.328.129-.937.577-1.742,1.186-2.234.587-.5,1.444-.67,2.222-.489.802.186,1.384.657,1.86,1.261.453.603.687,1.311.578,2.045-.074.364-.152.718-.302,1.041-.153.322-.373.614-.643.865-.541.499-1.281.841-2.092.853Z"/>
      <path class="cls-33" d="m205.525,139.702c-.808-.07-1.512-.468-1.998-1.025-.246-.279-.424-.599-.558-.947-.149-.348-.231-.723-.231-1.114,0-.782.332-1.493.865-2.041.538-.604,1.28-.973,2.09-.977.812-.004,1.538.31,2.061.813.531.558.861,1.375.859,2.28,0,.452-.085.881-.235,1.264-.166.382-.419.717-.705.989-.579.545-1.339.829-2.147.758Z"/>
      <path class="cls-33" d="m204.587,145.733c-1.576-.378-2.538-1.913-2.329-3.455.297-1.531,1.627-2.695,3.267-2.576,1.596.114,2.873,1.697,2.536,3.487-.252,1.805-1.896,2.922-3.475,2.544Z"/>
      <path class="cls-33" d="m202.859,151.588c-1.513-.57-2.287-2.226-1.86-3.735.114-.379.308-.717.547-1.009.222-.297.501-.546.819-.74.636-.385,1.43-.551,2.221-.372.791.179,1.428.679,1.811,1.37.192.345.32.736.375,1.151.037.41-.012.839-.141,1.268-.497,1.74-2.25,2.64-3.773,2.067Z"/>
      <path class="cls-33" d="m200.442,157.196c-1.458-.748-2.006-2.475-1.408-3.935.662-1.435,2.274-2.218,3.825-1.672,1.51.53,2.314,2.369,1.567,4.004-.687,1.663-2.556,2.338-3.985,1.604Z"/>
      <path class="cls-33" d="m197.415,162.501c-1.345-.89-1.754-2.697-.959-4.066.383-.7,1.023-1.173,1.748-1.396.706-.231,1.512-.204,2.237.158.726.363,1.229,1.002,1.446,1.763.199.75.097,1.613-.331,2.392-.899,1.55-2.779,2.05-4.141,1.15Z"/>
      <path class="cls-33" d="m193.788,167.413c-1.194-1.094-1.396-2.857-.469-4.132.925-1.268,2.724-1.65,4.096-.78,1.368.867,1.703,2.798.639,4.258-1.059,1.456-3.067,1.754-4.266.654Z"/>
    </g>
    <g>
      <path class="cls-33" d="m189.6,123.778c-1.543.365-3.131-.739-3.393-2.499-.259-1.753.96-3.323,2.558-3.359,1.589-.036,2.931,1.047,3.15,2.533.22,1.478-.758,2.957-2.315,3.324Z"/>
      <path class="cls-33" d="m191.346,129.43c-1.446.616-3.242-.228-3.743-1.947-.525-1.71.434-3.381,1.997-3.706,1.555-.325,3.081.6,3.518,2.016.41,1.427-.286,3.006-1.772,3.636Z"/>
      <path class="cls-33" d="m194.111,134.652c-.653.448-1.458.582-2.218.373-.729-.22-1.421-.774-1.87-1.565-.815-1.637-.185-3.452,1.324-4.03,1.466-.561,3.147.06,3.785,1.353.365.629.409,1.359.213,2.069-.173.686-.573,1.347-1.233,1.8Z"/>
      <path class="cls-33" d="m198.05,139.045c-.508.613-1.227.939-2.023.929-.396-.004-.809-.091-1.211-.257-.379-.185-.725-.467-1.035-.814-.624-.693-.923-1.535-.813-2.333.083-.786.483-1.471,1.142-1.917s1.442-.59,2.143-.5c.683.114,1.358.386,1.83.909.236.263.39.579.499.906.127.305.191.643.195.995.005.703-.219,1.471-.727,2.083Z"/>
      <path class="cls-33" d="m203.091,142.108c-.297.739-.876,1.258-1.63,1.471-.741.202-1.689.154-2.496-.334-.786-.524-1.315-1.277-1.485-2.026-.169-.759.067-1.575.57-2.174.52-.621,1.196-.925,1.903-1.069.717-.148,1.414-.069,1.981.325.59.356,1.024.871,1.229,1.572.208.685.224,1.496-.073,2.235Z"/>
    </g>
    <g>
      <path class="cls-33" d="m174.708,154.169c-1.083,1.168-2.896,1.248-4.05.178-1.154-1.07-1.211-2.884-.128-4.052,1.083-1.168,2.896-1.248,4.05-.178,1.154,1.07,1.211,2.884.128,4.052Z"/>
      <path class="cls-33" d="m178.886,158.043c-1.083,1.168-2.896,1.248-4.05.178-1.154-1.07-1.211-2.884-.128-4.052,1.083-1.168,2.896-1.248,4.05-.178,1.154,1.07,1.211,2.884.128,4.052Z"/>
      <ellipse class="cls-33" cx="180.975" cy="159.98" rx="2.884" ry="2.849" transform="translate(-59.383 183.924) rotate(-47.165)"/>
      <ellipse class="cls-33" cx="185.152" cy="163.853" rx="2.884" ry="2.849" transform="translate(-60.887 188.228) rotate(-47.165)"/>
      <path class="cls-33" d="m191.143,169.829c-.613.215-1.223.245-1.689.368-.195.059-.364.121-.502.185-.069.032-.132.064-.186.097l-.077.048c-.047-.006-.105-.023-.156-.036-.421-.116-.822-.332-1.164-.65-1.154-1.07-1.211-2.884-.128-4.052,1.083-1.168,2.896-1.248,4.05-.178.342.317.588.7.735,1.112l.054.158.125.236c.077.155.142.305.193.448.102.287.15.55.143.783-.281.827-.785,1.265-1.398,1.48Z"/>
      <path class="cls-33" d="m192.583,175.341c-1.541.403-3.113-.505-3.511-2.027-.199-.761-.067-1.532.308-2.162.189-.308.431-.612.737-.806.311-.176.65-.379,1.025-.516.376-.137.755-.186,1.138-.083.379.084.726.184,1.045.375.635.367,1.128.974,1.327,1.735.398,1.522-.529,3.083-2.07,3.485Z"/>
      <path class="cls-33" d="m194.024,180.853c-1.541.403-3.113-.505-3.511-2.027s.529-3.083,2.07-3.485c1.541-.403,3.113.505,3.511,2.027s-.529,3.083-2.07,3.485Z"/>
      <path class="cls-33" d="m195.571,186.329c-.342.147-.696.225-1.046.237-.359-.008-.668.028-1.082-.287-.096-.08-.193-.172-.287-.275-.087-.076-.162-.116-.24-.181-.152-.121-.292-.259-.417-.411-.25-.304-.439-.666-.545-1.072-.398-1.522.529-3.083,2.07-3.485,1.541-.403,3.113.505,3.511,2.027.106.406.118.814.049,1.201-.034.194-.089.382-.162.563-.038.085-.075.19-.126.253l-.185.119c-.23.111-.392.488-.65.715-.249.247-.548.452-.89.599Z"/>
      <path class="cls-33" d="m197.83,191.559c-1.462.631-3.153-.028-3.777-1.472s.056-3.127,1.518-3.759c1.462-.631,3.153.028,3.777,1.472.624,1.444-.056,3.127-1.518,3.759Z"/>
      <path class="cls-33" d="m200.089,196.79c-1.462.631-3.153-.028-3.777-1.472-.624-1.444.056-3.127,1.518-3.759,1.462-.631,3.153.028,3.777,1.472.624,1.444-.056,3.127-1.518,3.759Z"/>
      <path class="cls-33" d="m202.347,202.02c-1.462.631-3.153-.028-3.777-1.472-.624-1.444.056-3.127,1.518-3.759,1.462-.631,3.153.028,3.777,1.472.624,1.444-.056,3.127-1.518,3.759Z"/>
    </g>
    <g>
      <path class="cls-33" d="m244.155,196.355c.795-.063,1.534.19,2.093.616.59.422.968,1.026,1.093,1.721.221,1.389-.716,2.748-2.221,3.254-1.518.512-3.192-.574-3.466-2.288-.151-.85.097-1.663.538-2.259.473-.599,1.17-.981,1.963-1.044Z"/>
      <path class="cls-33" d="m244.144,190.677c1.599.151,2.791,1.422,2.78,2.84-.005,1.42-1.186,2.685-2.769,2.838-1.587.153-3.002-1.118-2.999-2.84.014-1.72,1.417-2.989,2.988-2.839Z"/>
      <path class="cls-33" d="m245.058,185.072c1.507.394,2.566,1.856,2.279,3.245-.188,1.406-1.604,2.465-3.193,2.36-1.59-.104-2.735-1.577-2.501-3.281.337-1.688,1.839-2.735,3.415-2.324Z"/>
      <path class="cls-33" d="m246.855,179.685c1.457.644,2.233,2.242,1.722,3.566-.392,1.362-1.965,2.179-3.519,1.821-1.55-.356-2.44-1.993-1.953-3.643.609-1.609,2.294-2.388,3.751-1.744Z"/>
      <path class="cls-33" d="m249.503,174.664c.676.421,1.124,1.068,1.319,1.747.193.681.112,1.384-.18,2.045-.623,1.279-2.349,1.816-3.787,1.23-1.511-.618-2.086-2.352-1.329-3.893.351-.775,1.053-1.262,1.785-1.457.734-.197,1.516-.092,2.192.329Z"/>
      <path class="cls-33" d="m252.815,170.052c1.185,1.024,1.479,2.813.605,3.954-.22.29-.496.519-.809.689-.299.179-.614.312-.963.375-.691.128-1.468.014-2.145-.405-.677-.419-1.12-1.076-1.271-1.823-.073-.371-.087-.772-.002-1.155.098-.372.273-.739.527-1.075,1.031-1.354,2.833-1.618,4.059-.56Z"/>
      <path class="cls-33" d="m256.435,165.696c.538.274.947.698,1.169,1.253.106.276.164.579.161.905-.022.331-.031.65-.331,1.126-.114.13-.08.093-.087.105l-.005.015-.011.03-.023.06-.051.118c-.036.078-.076.154-.12.229-.088.148-.191.289-.311.419-.98,1.066-2.778,1.106-4.009.095-1.231-1.011-1.304-2.842-.157-4.085.137-.148.284-.28.439-.395.077-.057.157-.11.238-.159l.122-.07.062-.032.031-.016.016-.008s.041-.04-.066.082c.062.101.31.009.535-.011.232-.033.487-.053.753-.046.524.006,1.109.109,1.647.383Z"/>
      <path class="cls-33" d="m257.2,160.185c.783-.192,1.569-.024,2.168.578.616.583.944,1.605.802,2.677-.181,1.059-.776,1.891-1.504,2.264-.723.39-1.532.356-2.232-.008-.711-.369-1.211-.962-1.547-1.525-.32-.572-.514-1.111-.419-1.597.048-.485.392-.895.85-1.328.478-.422,1.121-.872,1.882-1.06Z"/>
      <path class="cls-33" d="m254.269,155.394c.611-.511,1.368-.737,2.083-.707.654-.042,1.538.494,2.11,1.324.267.447.469.9.532,1.37.055.479.017.93-.105,1.316-.295.807-.916,1.313-1.689,1.49-.777.178-1.557.066-2.149-.11-.326-.086-.607-.197-.822-.342-.227-.144-.454-.31-.578-.542-.329-.451-.356-1.013-.377-1.829.043-.75.385-1.457.995-1.968Z"/>
      <path class="cls-33" d="m250.905,150.817c1.347-.834,3.074-.537,3.931.628.85,1.173.652,2.906-.567,3.949-1.2,1.029-3.079.844-4.074-.524-1.002-1.364-.652-3.211.71-4.054Z"/>
      <path class="cls-33" d="m248.247,145.8c.728-.302,1.525-.298,2.203-.08.687.219,1.21.666,1.573,1.289.643,1.254.231,2.927-1.118,3.807-1.317.862-3.18.435-3.977-1.103-.424-.738-.436-1.611-.196-2.318.244-.715.773-1.288,1.516-1.596Z"/>
      <path class="cls-33" d="m246.7,140.345c.788-.114,1.557.083,2.15.438.301.178.54.4.751.656.225.255.393.547.485.877.16.661.093,1.35-.227,1.98-.322.628-.879,1.195-1.613,1.504s-1.515.281-2.2-.055c-.684-.331-1.283-.963-1.502-1.828-.12-.426-.156-.853-.116-1.253.054-.405.212-.793.414-1.119.412-.658,1.068-1.087,1.856-1.201Z"/>
      <path class="cls-33" d="m246.803,134.695c.781.153,1.432.588,1.86,1.094.445.515.777,1.122.721,1.762.017,1.256-1.144,2.523-2.684,2.795-.774.115-1.591-.092-2.133-.616-.543-.518-.976-1.327-.951-2.249.058-.925.399-1.746,1.005-2.245.626-.504,1.399-.693,2.181-.54Z"/>
      <path class="cls-33" d="m248.822,129.417c.679.415,1.157,1.06,1.41,1.706.126.324.193.651.191.966-.001.157-.02.312-.058.462-.014.159-.044.315-.096.466-.185.608-.753,1.031-1.327,1.352-.589.31-1.357.473-2.139.326-.782-.147-1.428-.609-1.819-1.308-.409-.697-.382-1.582-.088-2.466.078-.219.173-.425.284-.615.133-.177.28-.339.436-.484.312-.288.663-.504,1.027-.636.729-.266,1.501-.185,2.18.23Z"/>
      <path class="cls-33" d="m252.18,124.833c1.338.913,1.569,2.747.522,4.091-.429.59-.998.847-1.714.941-.705.078-1.496-.045-2.166-.448-.694-.418-1.125-1.064-1.224-1.819-.113-.74.134-1.646.635-2.32.879-1.136,2.652-1.326,3.947-.444Z"/>
      <path class="cls-33" d="m255.008,119.913c.728.322,1.247.909,1.477,1.639.245.737.158,1.584-.282,2.325-.414.763-1.121,1.233-1.862,1.393-.739.165-1.51.021-2.162-.437-.651-.458-1.069-1.131-1.235-1.82-.16-.69-.069-1.396.262-2.017.363-.61.949-1.013,1.607-1.22.673-.198,1.467-.185,2.195.137Z"/>
      <path class="cls-33" d="m256.596,114.476c.785.099,1.473.527,1.883,1.19.387.648.56,1.553.278,2.404-.238.875-.852,1.509-1.537,1.835-.68.335-1.481.333-2.211.007-.724-.323-1.247-.897-1.573-1.529-.316-.633-.377-1.311-.208-1.955.219-.64.618-1.142,1.24-1.496.594-.348,1.334-.557,2.129-.456Z"/>
      <path class="cls-33" d="m256.14,108.869c.72-.345,1.56-.22,2.232.271.667.483,1.146,1.341,1.214,2.308.03.481-.054.937-.19,1.343-.165.399-.397.745-.674,1.017-.558.545-1.345.773-2.126.668-1.582-.25-2.669-1.485-2.765-2.641-.072-1.173.885-2.263,2.309-2.967Z"/>
    </g>
    <g>
      <path class="cls-33" d="m304.098,198.245c.417.68.496,1.479.22,2.222-.272.742-.89,1.401-1.721,1.748-1.676.701-3.459-.143-3.87-1.683-.412-1.537.336-3.089,1.644-3.638,1.295-.532,2.856.02,3.727,1.351Z"/>
      <path class="cls-33" d="m307.248,193.719c.397-.063.786-.038,1.141.143.366.178.689.51.882.998.421.974.113,2.502-.702,3.403-.802.936-1.778,1.25-2.581,1.185-.813-.071-1.479-.524-1.89-1.203-.811-1.368-.419-3.099.053-3.692.26-.316.521-.196,1.08-.268.553-.061,1.232-.427,2.016-.566Z"/>
      <path class="cls-33" d="m303.757,189.133c1.154-1.1,2.982-1.046,4.082.058.769.762,1.186,1.937,1.027,2.89-.079.485-.275.873-.575,1.157-.291.277-.649.42-1.042.48-.803.098-1.535-.005-2.117.003-.588-.015-1.001-.066-1.373-.453-1.182-1.186-1.154-3.038-.002-4.135Z"/>
      <path class="cls-33" d="m299.767,184.851c1.179-1.071,3.006-.98,4.093.188,1.087,1.168,1.045,2.991-.103,4.095-1.149,1.103-3.002,1.034-4.118-.165-1.115-1.198-1.051-3.047.128-4.118Z"/>
      <path class="cls-33" d="m295.869,180.484c1.202-1.046,3.025-.918,4.089.272,1.063,1.191.985,3.019-.191,4.094-1.175,1.075-3.022.968-4.112-.252-1.09-1.22-.988-3.069.213-4.114Z"/>
      <path class="cls-33" d="m292.072,176.03c1.229-1.013,3.045-.843,4.078.368,1.033,1.212.916,3.036-.281,4.087-1.197,1.05-3.043.904-4.107-.344-1.065-1.248-.919-3.098.31-4.111Z"/>
      <path class="cls-33" d="m288.417,171.458c1.271-.962,3.068-.731,4.056.501.989,1.234.822,3.05-.402,4.07-1.223,1.02-3.068.824-4.101-.465-1.034-1.29-.823-3.146.447-4.106Z"/>
      <path class="cls-33" d="m285.032,166.685c1.354-.839,3.091-.506,3.99.745.899,1.257.658,3.055-.605,4.028-1.26.971-3.106.697-4.089-.675-.987-1.375-.651-3.259.703-4.098Z"/>
      <path class="cls-33" d="m282.871,161.354c.796.204,1.515.63,2.085.735.142.03.266.048.376.052.117.03.183-.061.297.049.221.173.4.399.549.697.572,1.173.202,2.935-1.145,3.798-1.329.854-3.188.447-4.045-1.283-.211-.426-.329-.911-.352-1.395-.005-.22-.043-.626,0-.898.026-.295.107-.563.201-.79.428-.934,1.27-1.163,2.036-.964Z"/>
      <path class="cls-33" d="m285.515,156.157c1.448.634,2.176,2.311,1.415,3.924-.144.339-.444.72-.719.989-.144.14-.294.263-.45.369-.095.067-.199.134-.298.191-.103.061-.148.022-.227.035-.263-.081-.637-.136-1.059-.17-.417-.033-.855-.039-1.305-.143-.841-.173-1.587-.873-1.297-2.052-.007-.089.021-.237-.002-.285-.02-.053-.039-.098-.053-.15-.018-.149-.024-.295-.016-.437.016-.302.086-.514.228-.845.621-1.309,2.316-2.07,3.785-1.427Z"/>
      <path class="cls-33" d="m287.873,150.801c1.443.697,2.058,2.367,1.438,3.821-.633,1.444-2.328,2.165-3.796,1.536-1.46-.625-2.155-2.327-1.49-3.843.649-1.52,2.422-2.203,3.848-1.513Z"/>
      <path class="cls-33" d="m290.608,145.629c1.338.824,1.844,2.565,1.114,3.889-.691,1.364-2.414,1.944-3.849,1.283-1.457-.672-2.029-2.446-1.257-3.965.828-1.508,2.617-2.052,3.992-1.207Z"/>
      <path class="cls-33" d="m293.997,140.867c1.195,1.052,1.395,2.762.568,3.976-.862,1.185-2.566,1.608-3.957.787-1.352-.795-1.791-2.677-.756-4.111,1.001-1.458,2.949-1.704,4.146-.652Z"/>
      <path class="cls-33" d="m298.235,136.853c.469.644.645,1.422.594,2.125-.027.352-.113.687-.261.985-.146.301-.32.621-.58.865-1.035.936-2.751,1.056-3.99.039-1.223-1.002-1.34-2.971.016-4.22.329-.309.673-.565,1.073-.7.403-.133.814-.187,1.204-.161.782.05,1.475.425,1.944,1.068Z"/>
      <path class="cls-33" d="m303.378,134.108c.255.754.199,1.561-.04,2.232-.237.688-.686,1.169-1.287,1.496-.587.359-1.284.397-1.987.206-.696-.187-1.351-.536-1.83-1.188-.464-.631-.652-1.454-.446-2.196.206-.734.764-1.448,1.564-1.92.817-.443,1.766-.435,2.488-.192.736.256,1.283.807,1.538,1.561Z"/>
    </g>
    <g>
      <g>
        <g>
          <path class="cls-17" d="m113.089,212.261c.208,2.486-3.833,2.824-3.624,5.311s4.249,2.147,4.457,4.632-3.832,2.825-3.624,5.312,4.249,2.151,4.457,4.639-3.832,2.827-3.624,5.316"/>
          <path class="cls-17" d="m114.01,212.129c.383,2.466-3.624,3.088-3.241,5.554s4.389,1.843,4.772,4.308-3.624,3.089-3.241,5.556,4.39,1.847,4.773,4.315-3.624,3.09-3.241,5.559"/>
        </g>
        <g>
          <path class="cls-17" d="m116.548,212.324c.406,2.462-3.595,3.122-3.188,5.585s4.407,1.801,4.813,4.262-3.594,3.123-3.188,5.586,4.407,1.805,4.814,4.27-3.594,3.125-3.188,5.59"/>
          <path class="cls-17" d="m117.456,212.12c.578,2.428-3.366,3.367-2.788,5.795s4.523,1.488,5.101,3.916-3.366,3.37-2.787,5.799,4.524,1.492,5.103,3.924-3.365,3.371-2.786,5.803"/>
        </g>
      </g>
      <g>
        <g>
          <path class="cls-17" d="m124.671,212.261c.208,2.486-3.833,2.824-3.624,5.311s4.249,2.147,4.457,4.632-3.832,2.825-3.624,5.312,4.249,2.151,4.457,4.639-3.832,2.827-3.624,5.316"/>
          <path class="cls-17" d="m125.593,212.129c.383,2.466-3.624,3.088-3.241,5.554s4.389,1.843,4.772,4.308-3.624,3.089-3.241,5.556,4.39,1.847,4.773,4.315-3.624,3.09-3.241,5.559"/>
        </g>
        <g>
          <path class="cls-17" d="m128.13,212.324c.406,2.462-3.595,3.122-3.188,5.585s4.407,1.801,4.813,4.262-3.594,3.123-3.188,5.586,4.407,1.805,4.814,4.27-3.594,3.125-3.188,5.59"/>
          <path class="cls-17" d="m129.038,212.12c.578,2.428-3.366,3.367-2.788,5.795s4.523,1.488,5.101,3.916-3.366,3.37-2.787,5.799,4.524,1.492,5.103,3.924-3.365,3.371-2.786,5.803"/>
        </g>
      </g>
      <g>
        <polygon class="cls-13" points="110.304 204.098 110.304 209.907 115.335 212.812 120.365 209.907 120.365 204.098 115.335 201.194 110.304 204.098"/>
        <polygon class="cls-13" points="121.654 204.098 121.654 209.907 126.685 212.812 131.715 209.907 131.715 204.098 126.685 201.194 121.654 204.098"/>
      </g>
    </g>
    <g>
      <g>
        <g>
          <path class="cls-17" d="m193.095,212.261c.208,2.486-3.833,2.824-3.624,5.311s4.249,2.147,4.457,4.632-3.832,2.825-3.624,5.312,4.249,2.151,4.457,4.639-3.832,2.827-3.624,5.316"/>
          <path class="cls-17" d="m194.017,212.129c.383,2.466-3.624,3.088-3.241,5.554s4.389,1.843,4.772,4.308-3.624,3.089-3.241,5.556,4.39,1.847,4.773,4.315-3.624,3.09-3.241,5.559"/>
        </g>
        <g>
          <path class="cls-17" d="m196.554,212.324c.406,2.462-3.595,3.122-3.188,5.585s4.407,1.801,4.813,4.262-3.594,3.123-3.188,5.586,4.407,1.805,4.814,4.27-3.594,3.125-3.188,5.59"/>
          <path class="cls-17" d="m197.462,212.12c.578,2.428-3.366,3.367-2.788,5.795s4.523,1.488,5.101,3.916-3.366,3.37-2.787,5.799,4.524,1.492,5.103,3.924-3.365,3.371-2.786,5.803"/>
        </g>
      </g>
      <g>
        <g>
          <path class="cls-17" d="m204.677,212.261c.208,2.486-3.833,2.824-3.624,5.311s4.249,2.147,4.457,4.632-3.832,2.825-3.624,5.312,4.249,2.151,4.457,4.639-3.832,2.827-3.624,5.316"/>
          <path class="cls-17" d="m205.599,212.129c.383,2.466-3.624,3.088-3.241,5.554s4.389,1.843,4.772,4.308-3.624,3.089-3.241,5.556,4.39,1.847,4.773,4.315-3.624,3.09-3.241,5.559"/>
        </g>
        <g>
          <path class="cls-17" d="m208.136,212.324c.406,2.462-3.595,3.122-3.188,5.585s4.407,1.801,4.813,4.262-3.594,3.123-3.188,5.586,4.407,1.805,4.814,4.27-3.594,3.125-3.188,5.59"/>
          <path class="cls-17" d="m209.045,212.12c.578,2.428-3.366,3.367-2.788,5.795s4.523,1.488,5.101,3.916-3.366,3.37-2.787,5.799,4.524,1.492,5.103,3.924-3.365,3.371-2.786,5.803"/>
        </g>
      </g>
      <g>
        <polygon class="cls-13" points="190.311 204.098 190.311 209.907 195.341 212.812 200.372 209.907 200.372 204.098 195.341 201.194 190.311 204.098"/>
        <polygon class="cls-13" points="201.66 204.098 201.66 209.907 206.691 212.812 211.722 209.907 211.722 204.098 206.691 201.194 201.66 204.098"/>
      </g>
    </g>
    <g>
      <g>
        <g>
          <path class="cls-17" d="m239.238,212.261c.208,2.486-3.833,2.824-3.624,5.311s4.249,2.147,4.457,4.632-3.832,2.825-3.624,5.312,4.249,2.151,4.457,4.639-3.832,2.827-3.624,5.316"/>
          <path class="cls-17" d="m240.16,212.129c.383,2.466-3.624,3.088-3.241,5.554s4.389,1.843,4.772,4.308-3.624,3.089-3.241,5.556,4.39,1.847,4.773,4.315-3.624,3.09-3.241,5.559"/>
        </g>
        <g>
          <path class="cls-17" d="m242.697,212.324c.406,2.462-3.595,3.122-3.188,5.585s4.407,1.801,4.813,4.262-3.594,3.123-3.188,5.586,4.407,1.805,4.814,4.27-3.594,3.125-3.188,5.59"/>
          <path class="cls-17" d="m243.606,212.12c.578,2.428-3.366,3.367-2.788,5.795s4.523,1.488,5.101,3.916-3.366,3.37-2.787,5.799,4.524,1.492,5.103,3.924-3.365,3.371-2.786,5.803"/>
        </g>
      </g>
      <g>
        <g>
          <path class="cls-17" d="m250.821,212.261c.208,2.486-3.833,2.824-3.624,5.311s4.249,2.147,4.457,4.632-3.832,2.825-3.624,5.312,4.249,2.151,4.457,4.639-3.832,2.827-3.624,5.316"/>
          <path class="cls-17" d="m251.742,212.129c.383,2.466-3.624,3.088-3.241,5.554s4.389,1.843,4.772,4.308-3.624,3.089-3.241,5.556,4.39,1.847,4.773,4.315-3.624,3.09-3.241,5.559"/>
        </g>
        <g>
          <path class="cls-17" d="m254.28,212.324c.406,2.462-3.595,3.122-3.188,5.585s4.407,1.801,4.813,4.262-3.594,3.123-3.188,5.586,4.407,1.805,4.814,4.27-3.594,3.125-3.188,5.59"/>
          <path class="cls-17" d="m255.188,212.12c.578,2.428-3.366,3.367-2.788,5.795s4.523,1.488,5.101,3.916-3.366,3.37-2.787,5.799,4.524,1.492,5.103,3.924-3.365,3.371-2.786,5.803"/>
        </g>
      </g>
      <g>
        <polygon class="cls-13" points="236.454 204.098 236.454 209.907 241.484 212.812 246.515 209.907 246.515 204.098 241.484 201.194 236.454 204.098"/>
        <polygon class="cls-13" points="247.803 204.098 247.803 209.907 252.834 212.812 257.865 209.907 257.865 204.098 252.834 201.194 247.803 204.098"/>
      </g>
    </g>
    <g>
      <g>
        <g>
          <path class="cls-17" d="m296.173,212.261c.208,2.486-3.833,2.824-3.624,5.311s4.249,2.147,4.457,4.632-3.832,2.825-3.624,5.312,4.249,2.151,4.457,4.639-3.832,2.827-3.624,5.316"/>
          <path class="cls-17" d="m297.095,212.129c.383,2.466-3.624,3.088-3.241,5.554s4.389,1.843,4.772,4.308-3.624,3.089-3.241,5.556,4.39,1.847,4.773,4.315-3.624,3.09-3.241,5.559"/>
        </g>
        <g>
          <path class="cls-17" d="m299.632,212.324c.406,2.462-3.595,3.122-3.188,5.585s4.407,1.801,4.813,4.262-3.594,3.123-3.188,5.586,4.407,1.805,4.814,4.27-3.594,3.125-3.188,5.59"/>
          <path class="cls-17" d="m300.54,212.12c.578,2.428-3.366,3.367-2.788,5.795s4.523,1.488,5.101,3.916-3.366,3.37-2.787,5.799,4.524,1.492,5.103,3.924-3.365,3.371-2.786,5.803"/>
        </g>
      </g>
      <g>
        <g>
          <path class="cls-17" d="m307.755,212.261c.208,2.486-3.833,2.824-3.624,5.311s4.249,2.147,4.457,4.632-3.832,2.825-3.624,5.312,4.249,2.151,4.457,4.639-3.832,2.827-3.624,5.316"/>
          <path class="cls-17" d="m308.677,212.129c.383,2.466-3.624,3.088-3.241,5.554s4.389,1.843,4.772,4.308-3.624,3.089-3.241,5.556,4.39,1.847,4.773,4.315-3.624,3.09-3.241,5.559"/>
        </g>
        <g>
          <path class="cls-17" d="m311.214,212.324c.406,2.462-3.595,3.122-3.188,5.585s4.407,1.801,4.813,4.262-3.594,3.123-3.188,5.586,4.407,1.805,4.814,4.27-3.594,3.125-3.188,5.59"/>
          <path class="cls-17" d="m312.123,212.12c.578,2.428-3.366,3.367-2.788,5.795s4.523,1.488,5.101,3.916-3.366,3.37-2.787,5.799,4.524,1.492,5.103,3.924-3.365,3.371-2.786,5.803"/>
        </g>
      </g>
      <g>
        <polygon class="cls-13" points="293.388 204.098 293.388 209.907 298.419 212.812 303.45 209.907 303.45 204.098 298.419 201.194 293.388 204.098"/>
        <polygon class="cls-13" points="304.738 204.098 304.738 209.907 309.769 212.812 314.799 209.907 314.799 204.098 309.769 201.194 304.738 204.098"/>
      </g>
    </g>
    <g>
      <ellipse class="cls-21" cx="275.888" cy="236.721" rx="39.557" ry="6.85" transform="translate(-22.625 444.184) rotate(-75.43)"/>
      <ellipse class="cls-21" cx="275.888" cy="236.721" rx="6.85" ry="39.557" transform="translate(-50.679 77.018) rotate(-14.57)"/>
      <ellipse class="cls-21" cx="275.888" cy="236.721" rx="6.838" ry="39.631"/>
    </g>
    <g>
      <rect class="cls-14" x="135.923" y="247.977" width="9.802" height="26.421" rx="4.901" ry="4.901"/>
      <rect class="cls-14" x="146.216" y="247.977" width="9.802" height="26.421" rx="4.901" ry="4.901"/>
    </g>
    <g>
      <path class="cls-12" d="m83.175,285.993s42.143,40.312,92.379,26.239c50.237-14.074,51.911-20.037,88.193-6.44,36.282,13.596,32.375,12.642,82.053-18.367"/>
      <path class="cls-12" d="m77.035,294.103s42.98-33.395,100.752-1.908c12.894,7.027,27.511,14.379,42.961,16.148,6.23.713,13.384.387,18.325-3.348,4.2-3.174,6.371-7.789,10.614-10.963,4.853-3.63,10.71-6.368,16.735-8.282,25.121-7.98,53.289-1.396,76.587,7.876"/>
      <path class="cls-4" d="m78.71,320.417c13.834-5.112,29.024-9.937,42.929-12.165,5.52-.918,11.125-1.246,16.652-.744,3.371.284,6.698.802,10.106,1.302,15.053,2.424,33.946,2.297,52.507.879,10.574-.89,20.921-1.992,30.245-4.375,6.972-1.872,13.03-4.884,20.183-7.232,21.735-7.781,42.323-5.223,61.883,5.42,6.739,3.684,12.922,8.206,19.507,12.122,5.337,3.215,10.495,5.584,15.869,7.894"/>
      <path class="cls-23" d="m78.151,290.286c14.441-3.628,30.14-6.81,44.833-2.466,8.175,2.423,17.854,6.441,27.543,6.603,12.429.721,24.029-3.239,34.906-7.125,5.4-1.784,11.214-2.49,17.052-2.518,11.694-.025,25.122,1.44,35.632,4.055,4.528,1.142,8.649,2.549,13.205,3.672,9.451,2.429,20.395,2.927,30.329,2.421,10.123-.469,19.602-1.467,29.554,1.606,13.546,4.021,27.425,12.657,38.224,19.753"/>
    </g>
    <path class="cls-19" d="m220.209,310.866c-2.514,1.318-2.061,2.54-5.21,5.21-3.998,3.39-5.985,2.485-8.373,5.396-2.199,2.681-2.48,5.847-2.605,7.256-.301,3.387.605,6.168,2.233,11.164,1.097,3.367,1.823,4.622,1.675,7.07-.145,2.378-.919,2.659-1.116,5.024-.311,3.728,1.456,4.951,1.675,8.001.277,3.855-2.311,5.188-4.093,9.489-1.822,4.399-3.131,12.696,1.488,17.862,4.415,4.938,12.427,4.979,17.676,2.791,1.22-.509,4.668-2,6.884-5.582,2.265-3.661,1.981-7.463,1.488-13.024-.37-4.175-.909-4.718-2.233-11.722-1.457-7.709-2.186-11.564-1.861-14.513.632-5.726,2.702-5.531,4.652-14.327,1.348-6.085,1.082-9.448.744-11.536-.537-3.321-1.119-6.92-4.093-8.745-2.893-1.775-6.648-1.011-8.931.186Z"/>
    <path class="cls-18" d="m116.015,348.915c0-2.114-1.946-3.84-4.409-3.986.321-.632.501-1.329.501-2.061,0-2.425-1.955-4.456-4.598-5.038-.911-1.324-2.633-2.219-4.612-2.219-2.496,0-4.583,1.423-5.147,3.338-1.914.541-3.318,2.296-3.318,4.383,0,.99.319,1.904.855,2.651-2.094.48-3.646,2.191-3.646,4.233s1.54,3.739,3.622,4.228c-.173.482-.273.999-.273,1.54,0,2.518,2.041,4.558,4.558,4.558.187,0,.37-.015.551-.037-.71,1.022-.968,2.251-.589,3.405.704,2.148,3.334,3.215,5.872,2.382,1.585-.52,2.76-1.657,3.248-2.961.012,0,.023.002.035.002,3.442,0,6.233-2.541,6.233-5.675,0-2.021-1.163-3.79-2.91-4.795,2.279-.293,4.026-1.947,4.026-3.95Z"/>
    <text class="cls-26" transform="translate(43.716 242.023)"><tspan x="0" y="0">외막</tspan></text>
    <text class="cls-26" transform="translate(73.865 169.964)"><tspan x="0" y="0">내독소</tspan></text>
    <text class="cls-26" transform="translate(153.499 175.919)"><tspan x="0" y="0">내독소</tspan></text>
    <text class="cls-26" transform="translate(214.9 159.546)"><tspan x="0" y="0">내독소</tspan></text>
    <text class="cls-26" transform="translate(288.952 155.452)"><tspan x="0" y="0">내독소</tspan></text>
    <text class="cls-26" transform="translate(0 301.517)"><tspan x="0" y="0">펩티도글리칸</tspan></text>
    <text class="cls-26" transform="translate(41.52 360.52)"><tspan x="0" y="0">내막</tspan></text>
  </g>
  <polygon class="cls-20" points="431.084 30.317 431.084 21.687 423.611 17.373 416.137 21.687 416.137 30.317 423.611 34.632 431.084 30.317"/>
  <polygon class="cls-20" points="431.084 51.988 431.084 43.359 423.611 39.044 416.137 43.359 416.137 51.988 423.611 56.303 431.084 51.988"/>
  <polygon class="cls-20" points="431.084 73.659 431.084 65.03 423.611 60.715 416.137 65.03 416.137 73.659 423.611 77.974 431.084 73.659"/>
  <polygon class="cls-37" points="431.084 99.656 431.084 91.027 423.611 86.712 416.137 91.027 416.137 99.656 423.611 103.971 431.084 99.656"/>
  <polygon class="cls-37" points="431.084 121.327 431.084 112.698 423.611 108.383 416.137 112.698 416.137 121.327 423.611 125.642 431.084 121.327"/>
  <polygon class="cls-34" points="431.084 142.999 431.084 134.369 423.611 130.054 416.137 134.369 416.137 142.999 423.611 147.313 431.084 142.999"/>
  <polygon class="cls-7" points="431.084 164.67 431.084 156.04 423.611 151.725 416.137 156.04 416.137 164.67 423.611 168.985 431.084 164.67"/>
  <polygon class="cls-16" points="431.084 186.341 431.084 177.711 423.611 173.396 416.137 177.711 416.137 186.341 423.611 190.656 431.084 186.341"/>
  <polygon class="cls-24" points="431.084 208.012 431.084 199.382 423.611 195.067 416.137 199.382 416.137 208.012 423.611 212.327 431.084 208.012"/>
  <line class="cls-9" x1="423.611" y1="34.632" x2="423.611" y2="39.044"/>
  <line class="cls-9" x1="423.611" y1="56.303" x2="423.611" y2="60.715"/>
  <line class="cls-9" x1="423.611" y1="77.974" x2="423.611" y2="86.712"/>
  <line class="cls-9" x1="423.611" y1="103.971" x2="423.611" y2="108.383"/>
  <line class="cls-9" x1="423.611" y1="125.642" x2="423.611" y2="130.054"/>
  <line class="cls-9" x1="423.611" y1="147.313" x2="423.611" y2="151.725"/>
  <line class="cls-9" x1="423.611" y1="168.985" x2="423.611" y2="173.396"/>
  <line class="cls-9" x1="423.611" y1="190.656" x2="423.611" y2="195.067"/>
  <polygon class="cls-20" points="451.961 73.425 451.961 64.796 444.487 60.481 437.013 64.796 437.013 73.425 444.487 77.74 451.961 73.425"/>
  <polygon class="cls-22" points="451.961 99.539 451.961 90.909 444.487 86.594 437.013 90.909 437.013 99.539 444.487 103.854 451.961 99.539"/>
  <polygon class="cls-10" points="451.961 143.114 451.961 134.484 444.487 130.169 437.013 134.484 437.013 143.114 444.487 147.428 451.961 143.114"/>
  <polygon class="cls-16" points="451.961 164.901 451.961 156.271 444.487 151.956 437.013 156.271 437.013 164.901 444.487 169.216 451.961 164.901"/>
  <polygon class="cls-24" points="451.961 207.969 451.961 199.339 444.487 195.025 437.013 199.339 437.013 207.969 444.487 212.284 451.961 207.969"/>
  <polygon class="cls-24" points="472.735 207.969 472.735 199.339 465.261 195.025 457.787 199.339 457.787 207.969 465.261 212.284 472.735 207.969"/>
  <line class="cls-9" x1="437.013" y1="64.796" x2="431.084" y2="65.03"/>
  <line class="cls-9" x1="437.013" y1="90.909" x2="431.084" y2="91.027"/>
  <line class="cls-9" x1="437.013" y1="134.484" x2="431.084" y2="134.369"/>
  <line class="cls-9" x1="437.013" y1="156.271" x2="431.084" y2="156.04"/>
  <line class="cls-9" x1="437.013" y1="199.339" x2="431.084" y2="199.382"/>
  <line class="cls-9" x1="457.787" y1="199.339" x2="451.961" y2="199.339"/>
  <line class="cls-9" x1="423.278" y1="220.607" x2="423.611" y2="212.327"/>
  <g>
    <line class="cls-30" x1="416.511" y1="230.109" x2="413.207" y2="231.25"/>
    <line class="cls-30" x1="432.385" y1="235.648" x2="439.86" y2="228.612"/>
    <line class="cls-30" x1="420.157" y1="235.973" x2="416.578" y2="236.618"/>
    <line class="cls-30" x1="426.656" y1="236.389" x2="426.249" y2="233.938"/>
    <polyline class="cls-30" points="421.777 225.625 420.157 226.63 422.735 231.814"/>
    <polyline class="cls-30" points="416.511 230.109 422.735 231.814 427.311 230.105"/>
    <line class="cls-30" x1="432.385" y1="235.648" x2="429.648" y2="230.987"/>
    <line class="cls-30" x1="426.322" y1="233.938" x2="432.312" y2="235.648"/>
    <polyline class="cls-28" points="426.594 235.03 426.249 233.938 426.758 233.04 431.982 235.289 432.385 235.648 432.437 235.829 426.594 235.03"/>
    <line class="cls-30" x1="426.177" y1="233.938" x2="420.229" y2="235.973"/>
    <polyline class="cls-28" points="426.758 233.04 426.249 233.938 426.208 234.684 420.354 236.637 420.157 235.972 420.706 235.06 426.758 233.04"/>
    <line class="cls-30" x1="420.086" y1="235.895" x2="416.585" y2="230.185"/>
    <polyline class="cls-28" points="420.706 235.059 420.157 235.973 419.078 235.99 416.429 230.319 416.511 230.108 416.966 230.413 420.706 235.059"/>
    <line class="cls-30" x1="444.904" y1="238.233" x2="441.598" y2="232.477"/>
    <polyline class="cls-28" points="445.547 237.413 444.975 238.311 443.997 238.526 441.459 232.666 441.523 232.4 441.945 232.681 445.547 237.413"/>
    <line class="cls-30" x1="450.976" y1="236.464" x2="445.047" y2="238.312"/>
    <polyline class="cls-28" points="451.592 235.574 451.05 236.464 451.012 237.201 445.157 238.981 444.975 238.311 445.547 237.412 451.592 235.574"/>
    <line class="cls-30" x1="457.282" y1="238.098" x2="451.122" y2="236.464"/>
    <polyline class="cls-28" points="456.976 237.76 457.356 238.099 457.192 238.25 451.408 237.552 451.05 236.464 451.592 235.574 456.976 237.76"/>
    <line class="cls-30" x1="457.356" y1="238.098" x2="454.651" y2="233.272"/>
    <line class="cls-30" x1="452.337" y1="232.341" x2="447.788" y2="233.938"/>
    <polyline class="cls-30" points="441.523 232.399 447.788 233.938 444.975 228.779"/>
    <line class="cls-30" x1="442.551" y1="227.985" x2="444.975" y2="228.779"/>
    <line class="cls-30" x1="451.05" y1="236.464" x2="451.412" y2="238.514"/>
    <line class="cls-30" x1="444.975" y1="238.31" x2="442.98" y2="239.125"/>
    <line class="cls-30" x1="457.356" y1="238.097" x2="457.356" y2="240.863"/>
    <line class="cls-30" x1="441.523" y1="232.398" x2="440.259" y2="233.396"/>
    <text class="cls-32" transform="translate(420.991 224.461) scale(1 1.063)"><tspan x="0" y="0">O</tspan></text>
    <text class="cls-31" transform="translate(410.037 232.985) scale(1 1.063)"><tspan x="0" y="0">O</tspan></text>
    <text class="cls-32" transform="translate(439.379 227.989) scale(1 1.063)"><tspan x="0" y="0">O</tspan></text>
    <text class="cls-32" transform="translate(426.026 239.481) scale(1 1.063)"><tspan x="0" y="0">N</tspan></text>
    <text class="cls-32" transform="translate(428.817 239.461) scale(1 1.063)"><tspan x="0" y="0">H</tspan></text>
    <text class="cls-32" transform="translate(413.426 237.84) scale(1 1.063)"><tspan x="0" y="0">O</tspan></text>
    <text class="cls-32" transform="translate(427.863 230.04) scale(1 1.063)"><tspan x="0" y="0">O</tspan></text>
    <text class="cls-32" transform="translate(452.898 232.305) scale(1 1.063)"><tspan x="0" y="0">O</tspan></text>
    <text class="cls-32" transform="translate(450.849 241.701) scale(1 1.063)"><tspan class="cls-38" x="0" y="0">N</tspan><tspan x="2.641" y="0">H</tspan></text>
    <text class="cls-32" transform="translate(439.863 240.932) scale(1 1.063)"><tspan x="0" y="0">O</tspan></text>
    <text class="cls-31" transform="translate(455.685 244.436) scale(1 1.063)"><tspan x="0" y="0">O</tspan></text>
    <text class="cls-32" transform="translate(434.901 236.266) scale(1 1.063)"><tspan x="0" y="0">H</tspan></text>
    <text class="cls-32" transform="translate(437.36 236.327) scale(1 1.063)"><tspan x="0" y="0">O</tspan></text>
    <polyline class="cls-30" points="450.081 244.384 451.712 247.84 450.081 251.321 451.712 254.945 450.081 258.283"/>
    <polyline class="cls-30" points="450.081 258.282 451.712 261.717 450.081 265.057 451.712 268.492"/>
    <polyline class="cls-30" points="451.712 268.491 450.081 272.044 451.712 275.287 450.081 278.725"/>
    <line class="cls-30" x1="450.081" y1="278.724" x2="451.712" y2="282.485"/>
    <line class="cls-30" x1="451.712" y1="282.485" x2="450.081" y2="285.916"/>
    <line class="cls-30" x1="450.081" y1="285.917" x2="451.712" y2="289.237"/>
    <text class="cls-32" transform="translate(444.7 245.603) scale(1 1.063)"><tspan x="0" y="0">O</tspan></text>
    <line class="cls-30" x1="450.288" y1="244.817" x2="447.868" y2="244.817"/>
    <line class="cls-30" x1="450.249" y1="243.951" x2="447.867" y2="243.951"/>
    <text class="cls-32" transform="translate(442.26 252.479) scale(1 1.063)"><tspan x="0" y="0">H</tspan></text>
    <text class="cls-32" transform="translate(444.719 252.541) scale(1 1.063)"><tspan x="0" y="0">O</tspan></text>
    <line class="cls-30" x1="447.913" y1="251.321" x2="450.008" y2="251.321"/>
    <polyline class="cls-28" points="447.844 252.365 447.844 250.276 449.996 251.114 450.081 251.321 449.995 251.529 447.844 252.365"/>
    <line class="cls-30" x1="451.045" y1="241.932" x2="450.081" y2="244.384"/>
    <polyline class="cls-30" points="424.811 241.884 426.682 245.483 424.811 248.941"/>
    <line class="cls-30" x1="424.811" y1="248.94" x2="426.682" y2="252.35"/>
    <polyline class="cls-30" points="426.682 252.351 424.811 255.62 426.682 259.125"/>
    <line class="cls-30" x1="426.682" y1="259.125" x2="424.811" y2="262.582"/>
    <polyline class="cls-30" points="424.811 262.582 426.682 266.108 424.811 269.613"/>
    <line class="cls-30" x1="424.811" y1="269.612" x2="426.682" y2="272.93"/>
    <line class="cls-30" x1="426.682" y1="272.93" x2="424.811" y2="276.556"/>
    <polyline class="cls-30" points="424.811 276.555 426.682 279.776 424.811 283.256"/>
    <line class="cls-30" x1="424.811" y1="283.256" x2="426.682" y2="286.74"/>
    <text class="cls-32" transform="translate(419.412 243.102) scale(1 1.063)"><tspan x="0" y="0">O</tspan></text>
    <line class="cls-30" x1="425.035" y1="242.316" x2="422.577" y2="242.316"/>
    <line class="cls-30" x1="425.053" y1="241.451" x2="422.577" y2="241.451"/>
    <text class="cls-32" transform="translate(419.412 249.43) scale(1 1.063)"><tspan x="0" y="0">O</tspan></text>
    <line class="cls-30" x1="422.601" y1="248.94" x2="424.738" y2="248.94"/>
    <polyline class="cls-28" points="422.529 249.986 422.529 247.895 424.733 248.737 424.811 248.94 424.735 249.143 422.529 249.986"/>
    <line class="cls-30" x1="426.028" y1="239.716" x2="424.811" y2="241.884"/>
    <polyline class="cls-30" points="439.273 242.136 440.86 245.734 439.273 249.192"/>
    <line class="cls-30" x1="439.273" y1="249.191" x2="440.86" y2="252.602"/>
    <line class="cls-30" x1="440.86" y1="252.602" x2="439.273" y2="255.872"/>
    <polyline class="cls-30" points="439.273 255.871 440.86 259.539 439.273 263.02"/>
    <polyline class="cls-30" points="439.273 263.021 440.86 266.361 439.273 269.864 440.86 273.183 439.273 276.806 440.86 280.028"/>
    <polyline class="cls-30" points="440.86 280.029 439.273 283.506 440.86 286.986"/>
    <text class="cls-32" transform="translate(433.913 243.356) scale(1 1.063)"><tspan x="0" y="0">O</tspan></text>
    <line class="cls-30" x1="439.464" y1="242.569" x2="437.082" y2="242.569"/>
    <line class="cls-30" x1="439.671" y1="241.703" x2="437.082" y2="241.703"/>
    <text class="cls-32" transform="translate(431.472 250.352) scale(1 1.063)"><tspan x="0" y="0">H</tspan></text>
    <text class="cls-32" transform="translate(433.929 250.413) scale(1 1.063)"><tspan x="0" y="0">O</tspan></text>
    <line class="cls-30" x1="437.128" y1="249.192" x2="439.2" y2="249.192"/>
    <polyline class="cls-28" points="437.055 250.237 437.055 248.147 439.188 248.985 439.273 249.191 439.188 249.399 437.055 250.237"/>
    <line class="cls-30" x1="440.383" y1="240.934" x2="439.273" y2="242.136"/>
    <line class="cls-29" x1="461.303" y1="240.146" x2="461.303" y2="238.777"/>
    <line class="cls-29" x1="462.116" y1="240.146" x2="462.116" y2="238.777"/>
    <line class="cls-29" x1="463.011" y1="243.219" x2="464.629" y2="243.219"/>
    <line class="cls-29" x1="461.71" y1="244.114" x2="461.71" y2="245.793"/>
    <text class="cls-31" transform="translate(460.861 243.639) scale(1 1.063)"><tspan x="0" y="0">P</tspan></text>
    <text class="cls-31" transform="translate(460.767 237.608) scale(1 1.063)"><tspan x="0" y="0">O</tspan></text>
    <text class="cls-31" transform="translate(465.187 244.437) scale(1 1.063)"><tspan x="0" y="0">O</tspan></text>
    <text class="cls-31" transform="translate(467.785 244.38) scale(1 1.063)"><tspan x="0" y="0">H</tspan></text>
    <text class="cls-31" transform="translate(460.767 249.368) scale(1 1.063)"><tspan x="0" y="0">O</tspan></text>
    <text class="cls-31" transform="translate(463.364 249.305) scale(1 1.063)"><tspan x="0" y="0">H</tspan></text>
    <line class="cls-29" x1="458.854" y1="243.219" x2="460.351" y2="243.219"/>
    <line class="cls-29" x1="406.065" y1="229.471" x2="406.065" y2="227.495"/>
    <line class="cls-29" x1="406.877" y1="229.471" x2="406.877" y2="227.494"/>
    <line class="cls-29" x1="405.112" y1="231.814" x2="403.423" y2="231.814"/>
    <line class="cls-29" x1="406.469" y1="233.44" x2="406.469" y2="234.84"/>
    <text class="cls-31" transform="translate(405.626 232.962) scale(1 1.063)"><tspan x="0" y="0">P</tspan></text>
    <text class="cls-31" transform="translate(405.168 226.63) scale(1 1.063)"><tspan x="0" y="0">O</tspan></text>
    <text class="cls-31" transform="translate(397.841 232.975) scale(1 1.063)"><tspan x="0" y="0">H</tspan></text>
    <text class="cls-31" transform="translate(400.295 233.036) scale(1 1.063)"><tspan x="0" y="0">O</tspan></text>
    <text class="cls-31" transform="translate(404.801 238.526) scale(1 1.063)"><tspan x="0" y="0">O</tspan></text>
    <text class="cls-31" transform="translate(402.338 238.526) scale(1 1.063)"><tspan x="0" y="0">H</tspan></text>
    <line class="cls-29" x1="409.73" y1="231.766" x2="408.023" y2="231.814"/>
    <polyline class="cls-30" points="412.652 239.59 414.666 242.995 412.652 246.242"/>
    <line class="cls-30" x1="412.652" y1="246.243" x2="414.666" y2="249.725"/>
    <line class="cls-30" x1="414.666" y1="249.725" x2="412.652" y2="253.065"/>
    <line class="cls-30" x1="412.652" y1="253.064" x2="414.666" y2="256.569"/>
    <polyline class="cls-30" points="414.666 256.569 412.652 260.052 414.666 263.603 412.652 266.988"/>
    <polyline class="cls-30" points="412.652 266.988 414.666 270.399 412.652 273.857 414.666 277.266"/>
    <line class="cls-30" x1="414.666" y1="277.267" x2="412.652" y2="280.726"/>
    <line class="cls-30" x1="412.652" y1="280.725" x2="414.666" y2="284.135"/>
    <text class="cls-32" transform="translate(407.269 240.807) scale(1 1.063)"><tspan x="0" y="0">O</tspan></text>
    <line class="cls-30" x1="412.906" y1="240.022" x2="410.437" y2="240.022"/>
    <line class="cls-30" x1="413.007" y1="239.155" x2="410.437" y2="239.155"/>
    <text class="cls-32" transform="translate(407.269 247.467) scale(1 1.063)"><tspan x="0" y="0">O</tspan></text>
    <line class="cls-30" x1="410.509" y1="246.243" x2="412.58" y2="246.243"/>
    <polyline class="cls-28" points="410.437 247.288 410.437 245.198 412.582 246.041 412.652 246.243 412.579 246.446 410.437 247.288"/>
    <line class="cls-30" x1="414.042" y1="237.898" x2="412.652" y2="239.59"/>
    <polyline class="cls-30" points="406.733 249.632 408.577 252.996 406.733 256.501 408.577 259.958"/>
    <polyline class="cls-30" points="408.577 259.958 406.733 263.483 408.577 266.893 406.733 270.309"/>
    <line class="cls-30" x1="406.733" y1="270.31" x2="408.577" y2="273.88"/>
    <polyline class="cls-30" points="408.577 273.88 406.733 277.151 408.577 280.629"/>
    <line class="cls-30" x1="408.577" y1="280.629" x2="406.733" y2="284.113"/>
    <line class="cls-30" x1="406.733" y1="284.113" x2="408.577" y2="287.545"/>
    <polyline class="cls-30" points="408.577 287.545 406.733 290.982 408.577 294.46"/>
    <text class="cls-32" transform="translate(401.298 250.948) scale(1 1.063)"><tspan x="0" y="0">O</tspan></text>
    <line class="cls-30" x1="406.969" y1="250.065" x2="404.56" y2="250.065"/>
    <line class="cls-30" x1="407.014" y1="249.2" x2="404.56" y2="249.2"/>
    <line class="cls-30" x1="408.023" y1="247.654" x2="406.733" y2="249.633"/>
    <line class="cls-30" x1="418.998" y1="252.142" x2="420.844" y2="255.504"/>
    <polyline class="cls-30" points="420.844 255.505 418.998 259.009 420.844 262.462 418.998 265.992 420.844 269.404"/>
    <polyline class="cls-30" points="420.844 269.404 418.998 272.814 420.844 276.386"/>
    <polyline class="cls-30" points="420.844 276.386 418.998 279.659 420.844 283.139 418.998 286.619"/>
    <line class="cls-30" x1="418.998" y1="286.619" x2="420.844" y2="290.055"/>
    <text class="cls-32" transform="translate(413.661 253.358) scale(1 1.063)"><tspan x="0" y="0">O</tspan></text>
    <line class="cls-30" x1="419.238" y1="252.573" x2="416.825" y2="252.573"/>
    <line class="cls-30" x1="419.281" y1="251.708" x2="416.825" y2="251.708"/>
    <line class="cls-30" x1="420.199" y1="250.294" x2="418.998" y2="252.142"/>
  </g>
  <g>
    <polyline class="cls-35" points="484.194 154.865 490.89 154.865 490.89 209.009 483.754 209.009"/>
    <g>
      <polyline class="cls-15" points="486.37 154.865 490.89 154.865 490.89 209.009 485.929 209.009"/>
      <path class="cls-27" d="m484.194,154.865c1.024.38,2.294,1.028,3.081,1.714l-.62-1.714.62-1.714c-.787.686-2.058,1.335-3.081,1.714Z"/>
      <path class="cls-27" d="m483.754,209.009c1.024-.38,2.294-1.028,3.081-1.714l-.62,1.714.62,1.714c-.787-.686-2.058-1.335-3.081-1.714Z"/>
    </g>
  </g>
  <g>
    <polyline class="cls-35" points="484.194 218.661 490.89 218.661 490.89 294.458 483.754 294.458"/>
    <g>
      <polyline class="cls-11" points="486.768 218.661 490.89 218.661 490.89 294.458 486.328 294.458"/>
      <path class="cls-27" d="m484.194,218.661c1.211.449,2.714,1.216,3.646,2.029l-.734-2.029.734-2.028c-.932.812-2.434,1.579-3.646,2.028Z"/>
      <path class="cls-27" d="m483.754,294.458c1.211-.449,2.714-1.216,3.646-2.029l-.734,2.029.734,2.028c-.932-.812-2.434-1.579-3.646-2.028Z"/>
    </g>
  </g>
  <g>
    <polyline class="cls-35" points="484.194 89.868 490.89 89.868 490.89 144.012 483.754 144.012"/>
    <g>
      <polyline class="cls-15" points="486.37 89.868 490.89 89.868 490.89 144.012 485.929 144.012"/>
      <path class="cls-27" d="m484.194,89.868c1.024.38,2.294,1.028,3.081,1.714l-.62-1.714.62-1.714c-.787.686-2.058,1.335-3.081,1.714Z"/>
      <path class="cls-27" d="m483.754,144.012c1.024-.38,2.294-1.028,3.081-1.714l-.62,1.714.62,1.714c-.787-.686-2.058-1.335-3.081-1.714Z"/>
    </g>
  </g>
  <g>
    <polyline class="cls-35" points="484.194 20.545 490.89 20.545 490.89 74.689 483.754 74.689"/>
    <g>
      <polyline class="cls-15" points="486.37 20.545 490.89 20.545 490.89 74.688 485.929 74.688"/>
      <path class="cls-27" d="m484.194,20.545c1.024.38,2.294,1.028,3.081,1.714l-.62-1.714.62-1.714c-.787.686-2.058,1.335-3.081,1.714Z"/>
      <path class="cls-27" d="m483.754,74.688c1.024-.38,2.294-1.028,3.081-1.714l-.62,1.714.62,1.714c-.787-.686-2.058-1.335-3.081-1.714Z"/>
    </g>
  </g>
  <text class="cls-25" transform="translate(503.675 163.773) rotate(90)"><tspan x="0" y="0">내부 코어</tspan></text>
  <text class="cls-25" transform="translate(503.675 227.22) rotate(90)"><tspan x="0" y="0">리피드 A(Lipid A )</tspan></text>
  <text class="cls-25" transform="translate(503.251 103.221) rotate(90)"><tspan x="0" y="0">외부 코어</tspan></text>
  <text class="cls-25" transform="translate(503.251 34.727) rotate(90)"><tspan x="0" y="0">O 항원</tspan></text>
  <polyline class="cls-15" points="452.577 18.808 449.966 14.343 418.603 14.343 415.2 18.808"/>
  <polyline class="cls-8" points="452.577 75.499 449.966 80.325 418.603 80.325 415.2 75.499"/>
  <text class="cls-25" transform="translate(413.73 80.348) rotate(90)"><tspan x="0" y="0">n</tspan></text>
  <line class="cls-6" x1="233.419" y1="99.873" x2="391.013" y2=".423"/>
</svg>