<?xml version="1.0" encoding="UTF-8"?>
<svg id="_레이어_1" data-name="레이어 1" xmlns="http://www.w3.org/2000/svg" viewBox="0 0 383.484 309.161">
  <defs>
    <style>
      .cls-1, .cls-2 {
        fill: none;
        stroke: #241d1e;
        stroke-miterlimit: 2.613;
        stroke-width: .052px;
      }

      .cls-3 {
        fill: #c5d82a;
      }

      .cls-3, .cls-4, .cls-5, .cls-6, .cls-7, .cls-8, .cls-9, .cls-10 {
        stroke-width: 0px;
      }

      .cls-3, .cls-4, .cls-6, .cls-2, .cls-8, .cls-9, .cls-10 {
        fill-rule: evenodd;
      }

      .cls-11 {
        font-family: AppleSDGothicNeoB00, AppleSDGothicNeoB00;
        font-size: 12px;
      }

      .cls-11, .cls-5 {
        fill: #231916;
      }

      .cls-4 {
        fill: #92d1d6;
      }

      .cls-6 {
        fill: #6b83c1;
      }

      .cls-12 {
        stroke-width: .2px;
      }

      .cls-12, .cls-13 {
        fill: #fff100;
        stroke: #231916;
        stroke-miterlimit: 10;
      }

      .cls-7 {
        fill: #fff;
      }

      .cls-8 {
        fill: #f7f8f9;
      }

      .cls-13 {
        stroke-width: .279px;
      }

      .cls-9 {
        fill: #fdeef2;
      }

      .cls-10 {
        fill: #dcf0f3;
      }
    </style>
  </defs>
  <rect class="cls-7" width="383.484" height="309.161"/>
  <g>
    <path class="cls-10" d="m93.055,133.196c-5.392-5.3-7.791-19.945-8.21-28.779-2.699-16.942,9.154-42.088,39.187-58.192,27.017-14.451,56.219-9.973,83.133,3.736,58.918,30.136,72.844,99.558,56.523,162.01-14.652,56.535-62.558,89.054-115.549,76.583-23.387-5.396-40.85-23.381-48.946-38.653-6.138-11.428-5.61-29.096-3.122-38.65,14.131-26.298,24.206-39.286-3.016-78.055"/>
    <path class="cls-8" d="m92.019,146.185c4.475,10.088-.934,11.546-11.946,10.609-10.596-2.079-23.588-3.118-30.762-2.495,3.841,2.799,2.805,8.309.307,10.488,8.428-1.033,12.17-.617,18.922.521,8.095,2.293,25.133,6.55,32.518,4.372,6.749-1.254,8.623.624.211,2.901-7.27,1.98-21.301-.822-24.522-1.756-7.788-2.184-17.665-4.478-27.228-3.534,4.986,2.693,3.848,8.306-.102,10.488,19.542-1.756,28.994,6.755,42.398,6.039,2.184.198,9.244-.326,3.525,5.29,11.55-7.59,13.206-24.938-3.32-42.923"/>
    <path class="cls-1" d="m92.019,146.185c4.475,10.088-.934,11.546-11.946,10.609-10.596-2.079-23.588-3.118-30.762-2.495,3.841,2.799,2.805,8.309.307,10.488,8.428-1.033,12.17-.617,18.922.521,8.095,2.293,25.133,6.55,32.518,4.372,6.749-1.254,8.623.624.211,2.901-7.27,1.98-21.301-.822-24.522-1.756-7.788-2.184-17.665-4.478-27.228-3.534,4.986,2.693,3.848,8.306-.102,10.488,19.542-1.756,28.994,6.755,42.398,6.039,2.184.198,9.244-.326,3.525,5.29,11.55-7.59,13.206-24.938-3.32-42.923Z"/>
    <path class="cls-3" d="m245.084,168.477c-8.533,0-15.388,6.969-15.388,15.391,0,8.514,6.854,15.368,15.388,15.368,8.409,0,15.369-6.854,15.369-15.368,0-8.421-6.96-15.391-15.369-15.391"/>
    <path class="cls-1" d="m245.084,168.477c-8.533,0-15.388,6.969-15.388,15.391,0,8.514,6.854,15.368,15.388,15.368,8.409,0,15.369-6.854,15.369-15.368,0-8.421-6.96-15.391-15.369-15.391Z"/>
    <path class="cls-3" d="m240.786,116.013c-6.701,0-12.127,5.429-12.127,12.127s5.426,12.13,12.127,12.13,12.113-5.434,12.113-12.13-5.428-12.127-12.113-12.127"/>
    <path class="cls-1" d="m240.786,116.013c-6.701,0-12.127,5.429-12.127,12.127s5.426,12.13,12.127,12.13,12.113-5.434,12.113-12.13-5.428-12.127-12.113-12.127Z"/>
    <path class="cls-3" d="m106.871,65.995c-5.519,0-10.021,4.506-10.021,10.037s4.502,10.013,10.021,10.013,10.029-4.494,10.029-10.013-4.494-10.037-10.029-10.037"/>
    <path class="cls-1" d="m106.871,65.995c-5.519,0-10.021,4.506-10.021,10.037s4.502,10.013,10.021,10.013,10.029-4.494,10.029-10.013-4.494-10.037-10.029-10.037Z"/>
    <path class="cls-3" d="m113.221,241.271c-3.637,0-6.557,2.914-6.557,6.451,0,3.64,2.92,6.541,6.557,6.541,3.538,0,6.442-2.901,6.442-6.541,0-3.538-2.904-6.451-6.442-6.451"/>
    <path class="cls-1" d="m113.221,241.271c-3.637,0-6.557,2.914-6.557,6.451,0,3.64,2.92,6.541,6.557,6.541,3.538,0,6.442-2.901,6.442-6.541,0-3.538-2.904-6.451-6.442-6.451Z"/>
    <path class="cls-3" d="m159.801,43.149c-7.883,0-14.365,6.474-14.365,14.359,0,7.962,6.482,14.37,14.365,14.37s14.368-6.407,14.368-14.37c0-7.885-6.482-14.359-14.368-14.359"/>
    <path class="cls-1" d="m159.801,43.149c-7.883,0-14.365,6.474-14.365,14.359,0,7.962,6.482,14.37,14.365,14.37s14.368-6.407,14.368-14.37c0-7.885-6.482-14.359-14.368-14.359Z"/>
    <path class="cls-3" d="m223.775,220.747c-8.89,0-16.149,7.253-16.149,16.161s7.259,16.152,16.149,16.152,16.164-7.256,16.164-16.152-7.256-16.161-16.164-16.161"/>
    <path class="cls-1" d="m223.775,220.747c-8.89,0-16.149,7.253-16.149,16.161s7.259,16.152,16.149,16.152,16.164-7.256,16.164-16.152-7.256-16.161-16.164-16.161Z"/>
    <path class="cls-4" d="m146.258,258.216c3.534-12.371,22.245-18.388,32.733-10.293,15.487,11.847,25.463,7.593,24.532-10.292-.937-12.871,7.686-21.922,22.456-20.783,16.203,1.462,19.12-9.032,5.712-18.589-7.593-9.989-7.491-23.697,5.613-30.97,14.025-7.695,8.517-15.589-.416-20.585-8.837-4.561-17.991-16.206-10.718-27.538,9.048-10.392,11.434-22.645-10.903-20.144-13.712.198-24.845-7.695-23.908-24.743,1.983-9.032.624-17.563-11.211-6.854-16.005,17.447-37.828,5.716-43.342-6.755-8.095-18.183-12.675,5.194-14.032,12.154-9.352,26.918-27.74,18.503-31.997,4.673-4.053,6.138-9.669,23.598-4.577,40.227,6.438,15.272,28.159,32.736,23.169,60.793-3.218,17.969-11.636,22.443-15.893,42.491-.838,6.237,2.383,20.483,4.577,27.238,2.802-14.767,20.985-20.163,27.321-3.538,4.257,15.586,16.322,29.515,20.883,13.51"/>
    <path class="cls-1" d="m146.258,258.216c3.534-12.371,22.245-18.388,32.733-10.293,15.487,11.847,25.463,7.593,24.532-10.292-.937-12.871,7.686-21.922,22.456-20.783,16.203,1.462,19.12-9.032,5.712-18.589-7.593-9.989-7.491-23.697,5.613-30.97,14.025-7.695,8.517-15.589-.416-20.585-8.837-4.561-17.991-16.206-10.718-27.538,9.048-10.392,11.434-22.645-10.903-20.144-13.712.198-24.845-7.695-23.908-24.743,1.983-9.032.624-17.563-11.211-6.854-16.005,17.447-37.828,5.716-43.342-6.755-8.095-18.183-12.675,5.194-14.032,12.154-9.352,26.918-27.74,18.503-31.997,4.673-4.053,6.138-9.669,23.598-4.577,40.227,6.438,15.272,28.159,32.736,23.169,60.793-3.218,17.969-11.636,22.443-15.893,42.491-.838,6.237,2.383,20.483,4.577,27.238,2.802-14.767,20.985-20.163,27.321-3.538,4.257,15.586,16.322,29.515,20.883,13.51Z"/>
    <path class="cls-6" d="m155.447,98.094c5.316-2.495,5.652-6.06,6.897.9,1.247,9.554,23.26,17.477,26.887,22.489,2.829,3.909-.514,4.586-.6,11.394-.1,7.896,5.697,14.293,8.015,19.486,2.381,5.336-2.126,7.229-4.316,14.797-2.199,7.596-1.092,15.909-1.894,20.998-1.673,10.625-6.053,12.75-9.9,13.585-7.577,1.244-8.064,17.762-12.694,18.591-5.715,1.023-7.552.269-10.67-1.087-6.541-2.597-19.765,2.951-26.411,8.984-4.369,4.158-1.85.791-7.882-5.446-5.194-5.514-16.725-6.134-29.614-.317-.825-6.541,3.953-17.972,9.349-26.288,19.226-35.227-8.936-55.39-12.672-69.105-5.613-7.906-6.33-19.021-6.032-25.977,0,0,21.302,13.091,35.755-.521,3.953-4.158-1.562-8.285,5.196-5.483,6.848,3.956,19.32,7.245,29.715,2.988"/>
    <path class="cls-2" d="m155.447,98.094c5.316-2.495,5.652-6.06,6.897.9,1.247,9.554,23.26,17.477,26.887,22.489,2.829,3.909-.514,4.586-.6,11.394-.1,7.896,5.697,14.293,8.015,19.486,2.381,5.336-2.126,7.229-4.316,14.797-2.199,7.596-1.092,15.909-1.894,20.998-1.673,10.625-6.053,12.75-9.9,13.585-7.577,1.244-8.064,17.762-12.694,18.591-5.715,1.023-7.552.269-10.67-1.087-6.541-2.597-19.765,2.951-26.411,8.984-4.369,4.158-1.85.791-7.882-5.446-5.194-5.514-16.725-6.134-29.614-.317-.825-6.541,3.953-17.972,9.349-26.288,19.226-35.227-8.936-55.39-12.672-69.105-5.613-7.906-6.33-19.021-6.032-25.977,0,0,21.302,13.091,35.755-.521,3.953-4.158-1.562-8.285,5.196-5.483,6.848,3.956,19.32,7.245,29.715,2.988"/>
    <path class="cls-9" d="m48.373,217.373c7.072,2.709,9.25,8.946,5.399,14.444,14.866-3.419,19.443-17.147,33.571-20.566-4.679,13.289-1.663,41.973,15.589,59.017,37.61,37.626,102.778,31.076,132.287,1.356,11.639-11.533,21.836-22.14,28.264-37.831,3.838,3.118,16.629,5.616,18.909,6.237.118-4.056,1.254-10.91,7.276-14.447-5.821-2.901-17.553-3.841-21.82-9.454,9.343-28.376,8.725-54.658,6.026-81.157,2.917-3.016,12.266-2.181,17.463-3.637-2.911-3.956-4.89-8.936-2.076-14.246-6.135.736-13.21.518-18.609,1.673-15.065-34.409-19.741-42.088-40.227-59.753-28.773-24.839-96.42-47.804-140.804,7.577-22.443,28.274-9.458,65.369,2.3,79.193,10.686,12.573,14.547,36.475,1.555,44.368-22.04,9.356-29.617,22.443-45.104,27.225m62.558-2.904c-7.798-1.254-5.505-8.834-1.868-13.929,3.221-6.032-2.073-12.052-7.897.102-1.973,3.637-4.049,7.174-5.092,10.708-8.012,28.06,5.399,53.42,35.534,70.868,1.462.518,2.175.102,2.175-1.558,0-10.075-8.409-50.922-9.653-81.362-.515-5.412-4.58-4.791-4.053,2.079.621,7.795.416,14.649-9.147,13.091m28.05-18.605c5.098,5.815,12.645,17.858,5.471,20.673-8.21,3.218-11.804-12.981-12.744-18.393-.617-4.459-4.353-2.482-3.937-.099,4.679,40.326,8.313,64.643,12.471,83.133.937,3.739,1.973,5.412,5.297,6.554,25.981,6.752,45.303,2.898,65.146-6.135,1.778-.723,2.085-3.736.643-5.818-8.741-11.748-46.665-53.315-69.326-82.714-1.973-1.98-6.131-.937-3.019,2.799m11.434-1.977c7.391,7.376,16.014,12.422,20.69,6.924,5.93-10.708-15.697-16.062-26.089-19.494-6.957-2.498-2.495-5.716,1.142-3.956,33.676,9.672,89.169,33.472,110.47,43.962,3.534,1.759,2.178,4.996,2.287,5.719-8.421,18.602-16.635,32.934-36.897,47.701-.62.301-2.386.301-3.633-.317-10.293-5.098-39.801-47.49-73.052-81.058-3.013-4.056-1.555-5.917,5.082.518m-.921-21.72c-6.758-1.343-7.174,1.254-3.019,2.914,44.471,10.597,65.369,22.242,111.395,39.59,3.336,1.257,4.894,0,5.197-1.036,6.032-24.945,6.649-33.04,7.072-51.645,0-.621-1.139-3.016-3.534-3.119-17.985-.937-100.488-1.874-117.849.94-5.396.822-5.396,3.838-1.036,3.419,6.653-.937,37.246-5.396,34.847,7.995-1.964,10.811-21.03,3.653-33.072.941m1.555-15.273c36.775-5.396,100.168-.937,116.074-2.914,2.392-.301,2.185-3.94,2.185-4.98-3.224-25.878-6.029-33.471-13.616-49.979-.518-1.158-3.323-2.92-5.613-2.399-15.372,3.637-70.145,34.914-101.422,48.638-3.023,2.38-.102,4.043,4.26,2.178,5.927-3.736,27.144-14.371,30.982-4.6,1.257,9.355-21.538,8.022-36.388,10.62-3.531.838-4.052,4.056,3.538,3.435m-3.234-15.589c42.725-23.176,86.773-42.405,99.66-49.675,2.082-1.142,1.663-3.739,1.359-4.676-8.93-14.434-25.252-29.198-43.348-37.933-2.799-1.238-4.036.118-5.296,1.561-18.804,22.14-36.564,47.18-57.975,78.253-2.597,3.323.106,7.798,4.564,2.501,4.791-6.339,19.031-25.763,24.06-15.949,5.464,10.661-12.629,15.732-21.764,20.827-5.517,3.115-3.538,6.551-1.26,5.092m-8.713-13.823c7.475-16.51,47.378-67.228,55.793-79.385,1.142-1.673,1.142-3.333-1.238-4.273-25.981-8.613-34.815-7.574-52.48-4.459-5.095,1.561-4.894,2.703-5.716,5.399-6.554,21.925-12.586,44.688-11.332,79.497.205,3.336,3.742,5.197,4.363.624.835-5.082-.905-24.606,9.695-22.425,10.289,2.178-1.382,17.227-2.94,22.841-1.865,3.637,1.558,7.491,3.854,2.181m-18.708-1.66c-3.749-45.207,7.571-71.606,9.874-80.639.403-1.759-.742-1.759-2.082-1.139-22.242,11.329-31.805,23.38-38.97,36.369-4.372,9.138-10.388,32.518,5.92,52.163,2.917,4.993,11.953,2.917,7.174-3.538-5.514-5.297-4.599-14.112.295-15.785,9.039-2.904,10.516,9.666,10.817,13.303.624,7.056,7.593,3.218,6.973-.736"/>
    <path class="cls-2" d="m48.373,217.373c7.072,2.709,9.25,8.946,5.399,14.444,14.866-3.419,19.443-17.147,33.571-20.566-4.679,13.289-1.663,41.973,15.589,59.017,37.61,37.626,102.778,31.076,132.287,1.356,11.639-11.533,21.836-22.14,28.264-37.831,3.838,3.118,16.629,5.616,18.909,6.237.118-4.056,1.254-10.91,7.276-14.447-5.821-2.901-17.553-3.841-21.82-9.454,9.343-28.376,8.725-54.658,6.026-81.157,2.917-3.016,12.266-2.181,17.463-3.637-2.911-3.956-4.89-8.936-2.076-14.246-6.135.736-13.21.518-18.609,1.673-15.065-34.409-19.741-42.088-40.227-59.753-28.773-24.839-96.42-47.804-140.804,7.577-22.443,28.274-9.458,65.369,2.3,79.193,10.686,12.573,14.547,36.475,1.555,44.368-22.04,9.356-29.617,22.443-45.104,27.225m62.558-2.904c-7.798-1.254-5.505-8.834-1.868-13.929,3.221-6.032-2.073-12.052-7.897.102-1.973,3.637-4.049,7.174-5.092,10.708-8.012,28.06,5.399,53.42,35.534,70.868,1.462.518,2.175.102,2.175-1.558,0-10.075-8.409-50.922-9.653-81.362-.515-5.412-4.58-4.791-4.053,2.079.621,7.795.416,14.649-9.147,13.091m28.05-18.605c5.098,5.815,12.645,17.858,5.471,20.673-8.21,3.218-11.804-12.981-12.744-18.393-.617-4.459-4.353-2.482-3.937-.099,4.679,40.326,8.313,64.643,12.471,83.133.937,3.739,1.973,5.412,5.297,6.554,25.981,6.752,45.303,2.898,65.146-6.135,1.778-.723,2.085-3.736.643-5.818-8.741-11.748-46.665-53.315-69.326-82.714-1.973-1.98-6.131-.937-3.019,2.799m11.434-1.977c7.391,7.376,16.014,12.422,20.69,6.924,5.93-10.708-15.697-16.062-26.089-19.494-6.957-2.498-2.495-5.716,1.142-3.956,33.676,9.672,89.169,33.472,110.47,43.962,3.534,1.759,2.178,4.996,2.287,5.719-8.421,18.602-16.635,32.934-36.897,47.701-.62.301-2.386.301-3.633-.317-10.293-5.098-39.801-47.49-73.052-81.058-3.013-4.056-1.555-5.917,5.082.518m-.921-21.72c-6.758-1.343-7.174,1.254-3.019,2.914,44.471,10.597,65.369,22.242,111.395,39.59,3.336,1.257,4.894,0,5.197-1.036,6.032-24.945,6.649-33.04,7.072-51.645,0-.621-1.139-3.016-3.534-3.119-17.985-.937-100.488-1.874-117.849.94-5.396.822-5.396,3.838-1.036,3.419,6.653-.937,37.246-5.396,34.847,7.995-1.964,10.811-21.03,3.653-33.072.941m1.555-15.273c36.775-5.396,100.168-.937,116.074-2.914,2.392-.301,2.185-3.94,2.185-4.98-3.224-25.878-6.029-33.471-13.616-49.979-.518-1.158-3.323-2.92-5.613-2.399-15.372,3.637-70.145,34.914-101.422,48.638-3.023,2.38-.102,4.043,4.26,2.178,5.927-3.736,27.144-14.371,30.982-4.6,1.257,9.355-21.538,8.022-36.388,10.62-3.531.838-4.052,4.056,3.538,3.435m-3.234-15.589c42.725-23.176,86.773-42.405,99.66-49.675,2.082-1.142,1.663-3.739,1.359-4.676-8.93-14.434-25.252-29.198-43.348-37.933-2.799-1.238-4.036.118-5.296,1.561-18.804,22.14-36.564,47.18-57.975,78.253-2.597,3.323.106,7.798,4.564,2.501,4.791-6.339,19.031-25.763,24.06-15.949,5.464,10.661-12.629,15.732-21.764,20.827-5.517,3.115-3.538,6.551-1.26,5.092m-8.713-13.823c7.475-16.51,47.378-67.228,55.793-79.385,1.142-1.673,1.142-3.333-1.238-4.273-25.981-8.613-34.815-7.574-52.48-4.459-5.095,1.561-4.894,2.703-5.716,5.399-6.554,21.925-12.586,44.688-11.332,79.497.205,3.336,3.742,5.197,4.363.624.835-5.082-.905-24.606,9.695-22.425,10.289,2.178-1.382,17.227-2.94,22.841-1.865,3.637,1.558,7.491,3.854,2.181m-18.708-1.66c-3.749-45.207,7.571-71.606,9.874-80.639.403-1.759-.742-1.759-2.082-1.139-22.242,11.329-31.805,23.38-38.97,36.369-4.372,9.138-10.388,32.518,5.92,52.163,2.917,4.993,11.953,2.917,7.174-3.538-5.514-5.297-4.599-14.112.295-15.785,9.039-2.904,10.516,9.666,10.817,13.303.624,7.056,7.593,3.218,6.973-.736"/>
    <path class="cls-1" d="m53.772,231.817c14.866-3.419,19.443-17.147,33.571-20.566-4.679,13.289-1.663,41.973,15.589,59.017,37.61,37.626,102.778,31.076,132.287,1.356,11.639-11.533,21.836-22.14,28.264-37.831,3.838,3.118,16.629,5.616,18.909,6.237.118-4.056,1.254-10.91,7.276-14.447-5.821-2.901-17.553-3.841-21.82-9.454,9.343-28.376,8.725-54.658,6.026-81.157,2.917-3.016,12.266-2.181,17.463-3.637-2.911-3.956-4.89-8.936-2.076-14.246-6.135.736-13.21.518-18.609,1.673-15.065-34.409-19.741-42.088-40.227-59.753-28.773-24.839-96.42-47.804-140.804,7.577-22.443,28.274-9.458,65.369,2.3,79.193,10.686,12.573,14.547,36.475,1.555,44.368-22.04,9.356-29.617,22.443-45.104,27.225,7.072,2.709,9.25,8.946,5.399,14.444Z"/>
  </g>
  <text class="cls-11" transform="translate(22.311 163.181)"><tspan x="0" y="0">동맥</tspan></text>
  <text class="cls-11" transform="translate(22.416 181.099)"><tspan x="0" y="0">정맥</tspan></text>
  <g>
    <path class="cls-13" d="m185.088,103.362l-2.594,1.586c-.358.219-.437.701-.175,1.029,1.144,1.432,2.816,2.423,4.721,2.681.42.057.796-.261.796-.684v-3.051c0-.313-.21-.591-.514-.666-.534-.132-1.01-.409-1.382-.789-.225-.229-.577-.273-.851-.105Z"/>
    <path class="cls-13" d="m191.167,101.192c0,.18-.017.357-.049.528-.06.323.102.645.401.782l2.738,1.251c.395.181.855-.033.981-.449.202-.668.311-1.377.311-2.111,0-1.061-.227-2.069-.635-2.979-.178-.396-.657-.554-1.027-.327l-2.562,1.566c-.285.174-.404.52-.3.838.093.284.143.587.143.902Z"/>
    <path class="cls-13" d="m184.865,101.246c0-.282.04-.554.115-.812.098-.337-.083-.694-.403-.84l-2.696-1.232c-.383-.175-.828.021-.97.417-.277.77-.428,1.601-.428,2.467,0,1.161.272,2.257.754,3.231.186.377.654.515,1.013.296l2.541-1.554c.303-.185.413-.561.281-.891-.134-.335-.207-.7-.207-1.082Z"/>
    <path class="cls-13" d="m190.743,102.941c-.531.612-1.6,1.081-2.208,1.305-.27.1-.447.358-.447.647v3.114c0,.423.376.749.794.684.692-.107,1.542-.327,2.438-.773,1.648-.82,2.673-2.019,3.249-2.872.238-.352.097-.834-.289-1.011l-2.743-1.253c-.271-.124-.598-.066-.794.159Z"/>
    <path class="cls-13" d="m191.018,99.288l3.016-1.844c.219-.134.278-.423.133-.635-1.266-1.86-3.367-3.105-5.764-3.194-.253-.009-.464.193-.464.446v3.599c0,.195.126.367.312.424.547.167,1.671.577,2.218,1.134.145.148.372.178.549.07Z"/>
    <path class="cls-13" d="m187.705,97.616v-3.388c0-.304-.262-.545-.565-.514-2.37.243-4.404,1.618-5.551,3.577-.153.261-.042.599.234.725l3.091,1.412c.222.102.478.023.623-.174.416-.568,1.032-.979,1.744-1.131.244-.052.424-.257.424-.506Z"/>
  </g>
  <ellipse class="cls-12" cx="190.694" cy="96.306" rx=".645" ry=".694"/>
  <ellipse class="cls-12" cx="193.758" cy="100.774" rx=".645" ry=".694"/>
  <ellipse class="cls-12" cx="190.919" cy="105.468" rx=".645" ry=".694"/>
  <ellipse class="cls-12" cx="185.645" cy="105.516" rx=".645" ry=".694"/>
  <ellipse class="cls-12" cx="182.661" cy="101.113" rx=".645" ry=".694"/>
  <ellipse class="cls-12" cx="185.161" cy="96.758" rx=".645" ry=".694"/>
  <text class="cls-11" transform="translate(136.53 20.682)"><tspan x="0" y="0">B세포 소포(B cell follicle)</tspan></text>
  <text class="cls-11" transform="translate(197.052 83.028)"><tspan x="0" y="0">B세포 존</tspan></text>
  <text class="cls-11" transform="translate(126.896 91.454)"><tspan x="0" y="0">T세포 존</tspan></text>
  <text class="cls-11" transform="translate(298.642 124.961)"><tspan x="0" y="0">들림프관</tspan></text>
  <text class="cls-11" transform="translate(289.752 238.299)"><tspan x="0" y="0">들림프관</tspan></text>
  <text class="cls-11" transform="translate(14.219 247.839)"><tspan x="0" y="0">날림프관</tspan></text>
  <text class="cls-11" transform="translate(111.171 169.281)"><tspan x="0" y="0">속질</tspan></text>
  <line class="cls-5" x1="194.403" y1="100.774" x2="276.065" y2="87.29"/>
  <text class="cls-11" transform="translate(280.71 85.742)"><tspan x="0" y="0">큰키혈관내피세정맥</tspan><tspan x="0" y="14.4">(HEV)</tspan></text>
  <line class="cls-5" x1="142.903" y1="24.323" x2="159.419" y2="56.839"/>
  <line class="cls-5" x1="225.484" y1="166.774" x2="283.806" y2="160.581"/>
  <text class="cls-11" transform="translate(34.516 85.226)"><tspan x="0" y="0">속겉질</tspan></text>
  <text class="cls-11" transform="translate(64.764 53.837)"><tspan x="0" y="0">겉질</tspan></text>
  <line class="cls-5" x1="69.097" y1="80.065" x2="92.323" y2="94"/>
  <line class="cls-5" x1="88.194" y1="48.065" x2="116.581" y2="59.935"/>
</svg>