<?xml version="1.0" encoding="utf-8"?>
<!-- Generator: Adobe Illustrator 28.0.0, SVG Export Plug-In . SVG Version: 6.00 Build 0)  -->
<svg version="1.1" id="레이어_1" xmlns="http://www.w3.org/2000/svg" xmlns:xlink="http://www.w3.org/1999/xlink" x="0px"
	 y="0px" viewBox="0 0 441.074 203.021" enable-background="new 0 0 441.074 203.021" xml:space="preserve">
<g>
	<g>
		<path d="M15.37,102.634V91.676h2.54l4.233,7.284h0.048v-7.284h1.997v10.958h-2.236l-4.537-7.859h-0.048v7.859H15.37z"/>
		<path d="M26.423,102.634V91.676h6.965v1.709h-4.696v3.052h3.658v1.725h-3.658v4.473H26.423z"/>
		<path d="M34.698,99.04v-1.693h4.553v1.693H34.698z"/>
		<path d="M40.88,102.634V90.957h2.108v11.677H40.88z M45.864,102.634c-1.321-1.948-2.269-3.375-2.843-4.28
			c0.437-0.65,1.363-1.976,2.779-3.978h2.141l-2.748,3.833c0.521,0.788,1.501,2.264,2.939,4.425H45.864z"/>
		<path d="M49.474,102.634V91.676h4.105c2.438,0,3.658,0.921,3.658,2.764c0,1.214-0.607,2.019-1.821,2.412v0.048
			c1.512,0.256,2.269,1.124,2.269,2.604c0,0.938-0.325,1.693-0.975,2.269c-0.65,0.575-1.613,0.862-2.891,0.862H49.474z
			 M51.726,96.309h1.406c1.235,0,1.853-0.512,1.853-1.534c0-0.543-0.146-0.929-0.439-1.157c-0.293-0.229-0.743-0.344-1.35-0.344
			h-1.47V96.309z M51.726,101.021h1.693c1.288,0,1.933-0.564,1.933-1.693c0-1.075-0.671-1.613-2.013-1.613h-1.613V101.021z"/>
	</g>
	<g>
		<path d="M390.408,102.634V91.676h2.54l4.233,7.284h0.048v-7.284h1.996v10.958h-2.236l-4.536-7.859h-0.048v7.859H390.408z"/>
		<path d="M401.27,102.634v-8.274h2.013v0.975h0.08c0.224-0.319,0.526-0.575,0.91-0.767s0.793-0.288,1.229-0.288
			c0.267,0,0.427,0.021,0.479,0.064v1.853c-0.234-0.042-0.452-0.063-0.654-0.063c-0.735,0-1.391,0.17-1.965,0.511v5.99H401.27z"/>
		<path d="M407.739,102.634v-6.709h-1.118v-1.565h1.118v-0.975c0-0.852,0.25-1.49,0.751-1.917c0.5-0.426,1.166-0.639,1.997-0.639
			c0.691,0,1.24,0.086,1.645,0.256v1.374c-0.351-0.075-0.692-0.112-1.021-0.112c-0.863,0-1.294,0.421-1.294,1.262v0.751h1.789v1.565
			h-1.789v6.709H407.739z"/>
		<path d="M412.691,102.634v-1.31l1.901-2.028c0.628-0.671,1.107-1.201,1.438-1.59s0.642-0.841,0.935-1.357s0.439-0.978,0.439-1.382
			c0-0.629-0.174-1.073-0.52-1.334s-0.87-0.392-1.573-0.392c-0.64,0-1.374,0.219-2.205,0.655l-0.287-1.613
			c0.927-0.521,1.98-0.783,3.163-0.783c1.246,0,2.186,0.27,2.819,0.807c0.634,0.538,0.95,1.318,0.95,2.341
			c0,0.469-0.093,0.944-0.279,1.43c-0.187,0.484-0.469,0.974-0.847,1.469c-0.378,0.496-0.682,0.877-0.91,1.143
			c-0.229,0.267-0.557,0.618-0.982,1.055l-1.135,1.149h4.186v1.741H412.691z"/>
	</g>
	<g>
		<g>
			<path d="M213.554,176.822c0-1.001,0.354-1.821,1.062-2.46c0.708-0.64,1.6-0.959,2.676-0.959c1.075,0,1.97,0.319,2.684,0.959
				c0.713,0.639,1.07,1.459,1.07,2.46s-0.357,1.823-1.07,2.468c-0.714,0.645-1.608,0.967-2.684,0.967
				c-1.076,0-1.968-0.319-2.676-0.959C213.908,178.659,213.554,177.834,213.554,176.822z M216.062,175.616
				c-0.319,0.304-0.479,0.711-0.479,1.222c0,0.512,0.16,0.913,0.479,1.206s0.729,0.439,1.23,0.439c0.5,0,0.91-0.146,1.229-0.439
				s0.479-0.694,0.479-1.206c0-0.511-0.163-0.918-0.487-1.222c-0.325-0.304-0.732-0.455-1.222-0.455
				C216.791,175.161,216.381,175.312,216.062,175.616z M225.247,186.646h-9.617v-5.288h9.617V186.646z M223.09,185.017v-2.076
				h-5.319v2.076H223.09z M225.247,180.752h-2.157v-1.582h-1.613l0.064-1.789h1.549v-1.342h-1.549l-0.064-1.805h1.613v-1.661h2.157
				V180.752z"/>
			<path d="M240.087,179.234v1.661h-12.859v-1.661H240.087z M239.495,177.078l-0.847,1.645c-0.969-0.053-1.938-0.316-2.907-0.79
				s-1.667-1.067-2.093-1.781c-0.351,0.734-1.009,1.334-1.973,1.797s-1.983,0.722-3.059,0.774l-0.831-1.613
				c1.076-0.042,2.026-0.276,2.852-0.702c0.825-0.427,1.371-0.943,1.638-1.55h-3.802v-1.661h10.463v1.661h-3.93
				c0.309,0.597,0.907,1.11,1.797,1.541C237.693,176.83,238.59,177.057,239.495,177.078z M238.777,184.09
				c0,0.789-0.455,1.42-1.365,1.894c-0.911,0.474-2.159,0.711-3.746,0.711c-1.598,0-2.852-0.237-3.762-0.711
				c-0.911-0.474-1.366-1.104-1.366-1.894c0-0.809,0.45-1.447,1.35-1.916c0.9-0.469,2.148-0.703,3.746-0.703
				c1.608,0,2.867,0.234,3.778,0.703C238.322,182.643,238.777,183.281,238.777,184.09z M236.588,184.122
				c0-0.298-0.271-0.543-0.814-0.734c-0.543-0.192-1.257-0.288-2.141-0.288c-0.862,0-1.565,0.096-2.108,0.288
				c-0.543,0.191-0.814,0.437-0.814,0.734c0,0.267,0.273,0.495,0.822,0.688c0.549,0.191,1.249,0.287,2.101,0.287
				c0.862,0,1.57-0.096,2.125-0.287C236.312,184.617,236.588,184.389,236.588,184.122z"/>
		</g>
	</g>
	<g>
		<g>
			<path d="M197.075,7.572l-1.15,1.677c-0.575-0.191-1.171-0.563-1.789-1.118c-0.618-0.554-1.054-1.123-1.31-1.709
				c-0.202,0.649-0.647,1.292-1.333,1.925c-0.687,0.634-1.376,1.058-2.069,1.271l-1.07-1.662c1.065-0.361,1.896-0.942,2.492-1.741
				c0.596-0.798,0.895-1.725,0.895-2.779V1.821h2.156v1.502c0,1.086,0.288,1.986,0.863,2.699
				C195.334,6.736,196.106,7.253,197.075,7.572z M200.142,14.984h-9.489v-4.681h2.125v3.035h7.364V14.984z M199.854,1.087v3.961
				h1.965v1.758h-1.965v4.648h-2.077V1.087H199.854z"/>
			<path d="M210.412,8.323c0,0.575-0.227,1.081-0.678,1.518c-0.453,0.437-1.058,0.729-1.813,0.878v0.703
				c1.171-0.042,2.226-0.128,3.163-0.256l0.111,1.63c-2.886,0.362-5.75,0.543-8.594,0.543c-0.096-0.586-0.186-1.188-0.271-1.805
				c1.299,0.021,2.465,0.011,3.499-0.032v-0.783c-0.756-0.148-1.358-0.441-1.805-0.878s-0.671-0.942-0.671-1.518
				c0-0.714,0.328-1.308,0.982-1.781s1.504-0.711,2.548-0.711c1.033,0,1.879,0.237,2.54,0.711S210.412,7.609,210.412,8.323z
				 M210.989,5.512h-8.211V3.93h8.211V5.512z M204.918,3.387V1.806h4.057v1.581H204.918z M208.257,8.323
				c0-0.277-0.133-0.512-0.399-0.703c-0.267-0.191-0.591-0.288-0.975-0.288c-0.394,0-0.722,0.097-0.982,0.288
				c-0.261,0.191-0.391,0.426-0.391,0.703c0,0.276,0.13,0.503,0.391,0.679c0.261,0.176,0.588,0.264,0.982,0.264
				s0.721-0.091,0.982-0.271C208.126,8.812,208.257,8.589,208.257,8.323z M213.879,1.087v5.687h1.709v1.726h-1.709v6.82h-2.092
				V1.087H213.879z"/>
			<path d="M229.167,13.498h-12.859v-1.677h12.859V13.498z M228.816,7.572l-0.942,1.709c-1.013-0.202-2.032-0.646-3.06-1.334
				c-1.027-0.687-1.728-1.51-2.101-2.468c-0.362,0.958-1.046,1.778-2.053,2.46c-1.006,0.682-2.026,1.129-3.059,1.342
				c-0.054-0.106-0.197-0.361-0.432-0.767c-0.234-0.404-0.41-0.719-0.527-0.942c1.268-0.16,2.409-0.668,3.427-1.525
				c1.017-0.857,1.525-1.898,1.525-3.123V2.077h2.269v0.847c0,1.225,0.503,2.263,1.51,3.115
				C226.379,6.891,227.527,7.402,228.816,7.572z"/>
			<path d="M242.985,11.901v1.646h-12.859v-1.646H242.985z M241.036,6.917h-7.156v1.454h7.699v1.661h-9.808V2.253h9.632v1.661
				h-7.523v1.357h7.156V6.917z"/>
			<path d="M250.252,11.678c-1.097,0.266-2.54,0.399-4.329,0.399c-0.182,0-0.444-0.003-0.791-0.009
				c-0.346-0.005-0.604-0.008-0.774-0.008V6.135h2.955V4.186h-2.892V2.444h4.984v5.463h-2.955v2.429h0.335
				c1.385,0,2.487-0.102,3.307-0.304C250.157,10.735,250.209,11.283,250.252,11.678z M253.272,14.665h-1.965V7.892h-1.342V6.166
				h1.342V1.342h1.965V14.665z M256.082,15.319h-2.013V1.087h2.013V15.319z"/>
			<path d="M270.62,13.498H257.76v-1.677h12.859V13.498z M270.268,7.572l-0.942,1.709c-1.013-0.202-2.032-0.646-3.06-1.334
				c-1.027-0.687-1.728-1.51-2.101-2.468c-0.362,0.958-1.046,1.778-2.053,2.46c-1.006,0.682-2.026,1.129-3.059,1.342
				c-0.054-0.106-0.197-0.361-0.432-0.767c-0.234-0.404-0.41-0.719-0.527-0.942c1.268-0.16,2.409-0.668,3.427-1.525
				c1.017-0.857,1.525-1.898,1.525-3.123V2.077h2.269v0.847c0,1.225,0.503,2.263,1.51,3.115
				C267.831,6.891,268.979,7.402,270.268,7.572z"/>
		</g>
	</g>
	<g>
		<g>
			
				<line fill="none" stroke="#000000" stroke-width="1.2138" stroke-miterlimit="10" x1="84.864" y1="113.262" x2="180.46" y2="158.907"/>
			<g>
				<polygon points="188.193,162.599 175.17,161.849 179.882,158.63 179.421,152.944 				"/>
			</g>
		</g>
	</g>
	<g>
		<g>
			
				<line fill="none" stroke="#000000" stroke-width="1.2138" stroke-miterlimit="10" x1="278.875" y1="20.281" x2="374.47" y2="65.925"/>
			<g>
				<polygon points="382.204,69.618 369.18,68.868 373.892,65.649 373.432,59.963 				"/>
			</g>
		</g>
	</g>
	<g>
		<g>
			
				<line fill="none" stroke="#ED1C24" stroke-width="1.214" stroke-miterlimit="10" x1="283.858" y1="10.569" x2="386.64" y2="59.645"/>
			<g>
				
					<rect x="279.913" y="9.962" transform="matrix(0.4309 -0.9024 0.9024 0.4309 152.0116 262.1715)" fill="#ED1C24" width="7.891" height="1.214"/>
			</g>
		</g>
	</g>
	<g>
		<g>
			
				<line fill="none" stroke="#ED1C24" stroke-width="1.214" stroke-miterlimit="10" x1="369.719" y1="113.262" x2="266.938" y2="162.338"/>
			<g>
				
					<rect x="266.331" y="158.392" transform="matrix(0.9024 -0.4309 0.4309 0.9024 -43.8963 130.8508)" fill="#ED1C24" width="1.214" height="7.891"/>
			</g>
		</g>
	</g>
	<g>
		<g>
			
				<line fill="none" stroke="#000000" stroke-width="1.214" stroke-miterlimit="10" x1="183.919" y1="27.027" x2="88.325" y2="72.671"/>
			<g>
				<polygon points="80.59,76.364 89.364,66.706 88.904,72.395 93.616,75.613 				"/>
			</g>
		</g>
	</g>
	<g>
		<g>
			
				<line fill="none" stroke="#000000" stroke-width="1.214" stroke-miterlimit="10" x1="172.057" y1="19.012" x2="76.463" y2="64.656"/>
			<g>
				<polygon points="179.792,15.319 166.766,16.07 171.479,19.289 171.019,24.976 				"/>
			</g>
		</g>
	</g>
	<g>
		<path d="M88.4,138.613l-6.071-2.989l1.648-3.349l6.071,2.989L88.4,138.613z M87.813,137.388l0.901-1.83l-4.167-2.052l-0.901,1.83
			L87.813,137.388z M87.482,127.273c0.661,0.325,1.117,0.817,1.367,1.476c0.251,0.658,0.212,1.322-0.116,1.989
			c-0.325,0.66-0.816,1.081-1.471,1.263c-0.656,0.181-1.321,0.105-1.996-0.227c-0.667-0.329-1.131-0.81-1.391-1.441
			c-0.259-0.631-0.226-1.277,0.099-1.938c0.325-0.66,0.824-1.095,1.497-1.303C86.145,126.885,86.815,126.945,87.482,127.273z
			 M87.079,128.092c-0.423-0.208-0.839-0.239-1.25-0.094c-0.411,0.146-0.718,0.427-0.923,0.843c-0.208,0.424-0.245,0.84-0.107,1.251
			c0.136,0.41,0.416,0.72,0.839,0.929c0.431,0.212,0.846,0.247,1.245,0.104c0.4-0.142,0.705-0.425,0.914-0.848
			c0.212-0.431,0.254-0.849,0.129-1.254C87.799,128.618,87.518,128.308,87.079,128.092z M89.432,130.106l0.372-0.808l1.604,0.79
			l0.604-1.228l0.958,0.472l-2.693,5.469l-0.958-0.471l0.625-1.271l-1.604-0.789l0.413-0.786l1.583,0.779l0.679-1.378
			L89.432,130.106z"/>
		<path d="M98.26,141.515c-0.262,0.531-0.749,0.807-1.462,0.825c-0.714,0.019-1.587-0.227-2.621-0.735
			c-1.026-0.506-1.749-1.047-2.171-1.624c-0.42-0.576-0.499-1.13-0.237-1.661c0.258-0.524,0.744-0.796,1.457-0.814
			c0.715-0.019,1.584,0.225,2.611,0.729c1.034,0.51,1.762,1.048,2.187,1.619C98.446,140.423,98.525,140.977,98.26,141.515z
			 M100.401,139.693l-8.494-4.182l0.376-0.765l8.494,4.182L100.401,139.693z M95.459,138.999c-0.695-0.342-1.287-0.533-1.772-0.571
			s-0.798,0.087-0.939,0.374c-0.145,0.294-0.055,0.619,0.269,0.975c0.325,0.355,0.837,0.707,1.542,1.053
			c0.71,0.35,1.308,0.546,1.791,0.588c0.484,0.042,0.797-0.084,0.942-0.379c0.142-0.287,0.048-0.612-0.282-0.975
			C96.68,139.7,96.162,139.346,95.459,138.999z M101.074,137.35l-0.796,0.558c-0.686-0.472-1.268-1.048-1.743-1.729
			c-0.478-0.68-0.733-1.301-0.769-1.863c-0.42,0.347-1.035,0.543-1.848,0.589c-0.812,0.047-1.64-0.076-2.488-0.368l-0.048-0.961
			c0.828,0.328,1.656,0.473,2.482,0.434c0.827-0.039,1.426-0.302,1.798-0.787l-2.929-1.441l0.382-0.775l6.901,3.398l-0.382,0.775
			l-2.917-1.438c-0.133,0.596,0.05,1.242,0.548,1.942C99.764,136.383,100.366,136.939,101.074,137.35z"/>
		<path d="M107.758,144.379c0.395,0.601,0.453,1.185,0.174,1.751c-0.279,0.567-0.777,0.875-1.492,0.925
			c-0.715,0.049-1.575-0.174-2.581-0.669c-0.996-0.491-1.694-1.035-2.092-1.632c-0.397-0.597-0.456-1.179-0.176-1.745
			c0.279-0.567,0.776-0.877,1.494-0.93s1.575,0.166,2.571,0.657C106.662,143.231,107.362,143.778,107.758,144.379z M107.11,141.739
			l-0.925,0.468c-0.354-0.423-0.636-0.917-0.85-1.481c-0.211-0.563-0.299-1.112-0.259-1.646c-0.377,0.404-0.881,0.717-1.512,0.941
			c-0.633,0.224-1.269,0.325-1.909,0.304l-0.227-1.034c0.859,0.048,1.641-0.1,2.346-0.443c0.704-0.345,1.232-0.872,1.582-1.582
			l0.466-0.948l0.969,0.478l-0.445,0.904c-0.343,0.696-0.424,1.418-0.244,2.167C106.281,140.613,106.617,141.239,107.11,141.739z
			 M105.28,143.501c-0.688-0.34-1.273-0.509-1.754-0.511c-0.481,0-0.803,0.165-0.965,0.495c-0.163,0.33-0.097,0.684,0.199,1.061
			c0.296,0.379,0.788,0.736,1.477,1.076c0.697,0.342,1.285,0.516,1.765,0.52c0.479,0.005,0.8-0.158,0.963-0.488
			c0.162-0.33,0.096-0.686-0.197-1.067C106.473,144.206,105.977,143.844,105.28,143.501z M109.216,140.917l-1.81-0.891l0.381-0.775
			l1.81,0.891l1.039-2.109l0.957,0.471l-2.831,5.749l-0.957-0.472L109.216,140.917z"/>
		<path d="M118.409,149.817l-0.92,0.43c-0.311-0.527-0.562-1.168-0.752-1.922c-0.19-0.754-0.243-1.426-0.157-2.017
			c-0.437,0.489-1.006,0.904-1.705,1.247c-0.699,0.342-1.406,0.561-2.122,0.654l-0.241-1.002c0.947-0.096,1.833-0.417,2.656-0.966
			c0.822-0.55,1.443-1.251,1.864-2.105l0.774-1.571l0.98,0.482l-0.753,1.529c-0.417,0.847-0.581,1.738-0.489,2.675
			C117.637,148.189,117.926,149.044,118.409,149.817z M122.518,149.514l-1.465-0.722l-2.401,4.877l-0.947-0.466l4.633-9.409
			l0.947,0.466l-1.845,3.747l1.465,0.721L122.518,149.514z"/>
		<path d="M123.683,149.458c0.484-0.983,1.082-1.682,1.792-2.094c0.711-0.412,1.465-0.422,2.262-0.029
			c0.797,0.392,1.247,0.994,1.351,1.808c0.104,0.813-0.089,1.716-0.577,2.706s-1.085,1.692-1.792,2.106
			c-0.708,0.414-1.46,0.425-2.257,0.033c-0.797-0.393-1.248-0.998-1.353-1.816C123.004,151.353,123.195,150.448,123.683,149.458z
			 M126.294,153.011c0.474-0.332,0.898-0.875,1.269-1.629s0.543-1.422,0.52-2.004c-0.026-0.584-0.275-0.992-0.749-1.225
			c-0.467-0.23-0.938-0.177-1.416,0.158c-0.479,0.336-0.902,0.881-1.273,1.635c-0.371,0.753-0.544,1.42-0.516,1.999
			c0.026,0.579,0.273,0.983,0.74,1.214C125.344,153.392,125.818,153.343,126.294,153.011z M128.461,158.498l-0.959-0.472
			l4.633-9.409l0.959,0.472L128.461,158.498z"/>
		<path d="M140.054,156.956l-5.222-2.57l-0.673,1.367l5.631,2.772l-0.376,0.765l-2.875-1.416l-0.853,1.733l3.789,1.866l-0.382,0.775
			l-8.493-4.183l0.382-0.775l3.746,1.845l0.853-1.733l-2.745-1.352l2.412-4.897l6.48,3.19l-0.387,0.786l-5.533-2.725l-0.604,1.227
			l5.222,2.571L140.054,156.956z"/>
		<path d="M148.356,157.835c-1.517,3.061-4.062,4.607-7.636,4.64l-0.23-1.022c1.924,0.056,3.532-0.402,4.821-1.372l-3.173-1.161
			l0.242-0.924l3.63,1.452c0.366-0.381,0.683-0.814,0.948-1.299l-3.369-1.659l0.397-0.807L148.356,157.835z M151.222,158.016
			l-1.866,3.789l1.497,0.737l-0.387,0.785l-1.497-0.736l-2.38,4.834l-0.946-0.467l4.633-9.409L151.222,158.016z"/>
		<path d="M156.713,172.048l-6.405-3.154l1.442-2.928l0.957,0.471l-1.065,2.164l5.448,2.683L156.713,172.048z M153.551,160.786
			c0.693-0.215,1.403-0.145,2.128,0.213c0.725,0.356,1.217,0.875,1.476,1.555c0.258,0.681,0.221,1.357-0.111,2.032
			s-0.84,1.109-1.524,1.303c-0.683,0.194-1.392,0.11-2.124-0.25c-0.725-0.356-1.219-0.865-1.481-1.525
			c-0.265-0.66-0.231-1.324,0.097-1.992C152.342,161.446,152.855,161.002,153.551,160.786z M155.276,161.816
			c-0.438-0.215-0.87-0.249-1.294-0.102s-0.746,0.44-0.961,0.878c-0.212,0.431-0.247,0.859-0.104,1.286s0.433,0.748,0.87,0.963
			c0.46,0.227,0.895,0.267,1.305,0.121s0.724-0.438,0.939-0.875c0.223-0.452,0.267-0.888,0.134-1.306
			C156.032,162.365,155.736,162.043,155.276,161.816z M157.621,169.659l-0.957-0.472l3.366-6.836l0.957,0.472L157.621,169.659z"/>
		<path d="M82.821,151.355l-0.838,0.51c-0.636-0.447-1.17-0.957-1.601-1.53c-0.431-0.574-0.663-1.1-0.694-1.579
			c-0.367,0.273-0.929,0.411-1.688,0.413c-0.758,0.001-1.496-0.121-2.212-0.367l-0.109-0.977c0.699,0.299,1.418,0.451,2.157,0.453
			c0.739,0.003,1.286-0.158,1.643-0.481l-2.648-1.304l0.376-0.765l6.47,3.186l-0.376,0.765l-2.702-1.33
			c-0.029,0.476,0.183,1.008,0.638,1.597C81.689,150.535,82.219,151.005,82.821,151.355z M81.637,145.422l-4.532-2.231l1.882-3.821
			l4.532,2.231L81.637,145.422z M81.071,144.207l1.135-2.304l-2.659-1.31l-1.135,2.304L81.071,144.207z M82.186,147.404
			l-2.939-1.447l0.387-0.786l2.939,1.447L82.186,147.404z M84.09,147.366l-0.958-0.473l2.518-5.113l0.958,0.472L84.09,147.366z"/>
		<path d="M91.662,153.341l-3.703-1.823l2.91-5.91l3.703,1.823L91.662,153.341z M91.118,152.137l2.162-4.393l-1.884-0.928
			l-2.162,4.393L91.118,152.137z M94.346,157.752l-0.915-0.45l2.417-4.91l-1.034-0.509l-2.189,4.446l-0.914-0.45l4.305-8.741
			l0.914,0.449l-1.728,3.51l1.034,0.51l1.829-3.715l0.915,0.451L94.346,157.752z"/>
		<path d="M103.751,152.124c-0.696,1.378-1.584,2.443-2.663,3.195c-1.08,0.752-2.389,1.232-3.926,1.438l-0.312-1.023
			c1.226-0.083,2.317-0.417,3.275-1.002c0.957-0.585,1.721-1.349,2.291-2.289l-2.756-1.357l0.387-0.786L103.751,152.124z
			 M103.658,162.337l-0.915-0.45l2.465-5.007l-1.109-0.545l-2.237,4.543l-0.894-0.44l4.299-8.731l0.894,0.44l-1.68,3.413
			l1.109,0.546l1.786-3.628l0.915,0.449L103.658,162.337z"/>
		<path d="M113.103,166.626l-6.405-3.154l1.442-2.928l0.957,0.472l-1.065,2.164l5.448,2.682L113.103,166.626z M109.94,155.364
			c0.694-0.215,1.403-0.145,2.129,0.213c0.725,0.357,1.217,0.875,1.475,1.555c0.259,0.681,0.221,1.357-0.111,2.032
			c-0.333,0.675-0.841,1.109-1.525,1.304c-0.684,0.193-1.393,0.109-2.124-0.251c-0.726-0.356-1.219-0.865-1.482-1.525
			c-0.263-0.66-0.23-1.324,0.099-1.991C108.732,156.025,109.245,155.58,109.94,155.364z M111.666,156.396
			c-0.438-0.216-0.869-0.25-1.294-0.103s-0.746,0.44-0.961,0.878c-0.212,0.431-0.247,0.859-0.104,1.286
			c0.142,0.427,0.433,0.747,0.87,0.964c0.459,0.226,0.894,0.266,1.304,0.12c0.411-0.146,0.724-0.437,0.939-0.875
			c0.223-0.452,0.267-0.887,0.134-1.305C112.421,156.943,112.125,156.621,111.666,156.396z M114.011,164.237l-0.958-0.472
			l3.366-6.836l0.958,0.472L114.011,164.237z"/>
		<path d="M121.307,167.429l-0.904,0.425c-0.339-0.506-0.606-1.133-0.8-1.879c-0.194-0.747-0.239-1.407-0.135-1.979
			c-0.41,0.468-0.965,0.869-1.67,1.204c-0.705,0.335-1.421,0.538-2.151,0.606l-0.269-1.002c0.948-0.06,1.835-0.354,2.663-0.883
			c0.826-0.529,1.456-1.232,1.887-2.107l0.382-0.775l-2.121-1.045l0.387-0.785l5.179,2.55l-0.387,0.786l-2.078-1.023l-0.376,0.765
			c-0.431,0.876-0.602,1.769-0.51,2.679C120.493,165.874,120.795,166.695,121.307,167.429z M125.471,167.044l-1.476-0.727
			l-2.391,4.855l-0.947-0.466l4.633-9.409l0.947,0.466l-1.85,3.757l1.476,0.727L125.471,167.044z"/>
		<path d="M70.48,160.555l3.159-6.417l-2.142-1.055l0.403-0.818l5.222,2.571l-0.403,0.818l-2.144-1.055l-3.159,6.416L70.48,160.555z
			"/>
		<path d="M74.701,162.633l3.562-7.235l1.119,0.552l0.548,7.252l0.022,0.011l2.767-5.62l0.871,0.43l-3.562,7.234l-0.979-0.481
			l-0.54-7.623l-0.022-0.011l-2.916,5.921L74.701,162.633z"/>
		<path d="M81.796,166.126l3.562-7.235l4.188,2.062l-0.403,0.818l-3.24-1.596l-1.192,2.422l2.497,1.229l-0.397,0.809l-2.497-1.23
			l-1.569,3.187L81.796,166.126z"/>
		<path d="M88.479,165.563l0.387-0.785l3.542,1.744l-0.387,0.785L88.479,165.563z"/>
		<path d="M98.049,167.507l0.818,0.403c-0.571,0.923-1.208,2.099-1.911,3.526c-0.145,0.295-0.212,0.526-0.202,0.696
			s0.103,0.303,0.278,0.397l-0.414,0.652c-0.079-0.003-0.193-0.041-0.344-0.115c-0.524-0.259-0.649-0.757-0.374-1.495l-0.032-0.017
			c-0.735,0.513-1.481,0.582-2.242,0.208c-0.596-0.294-0.974-0.771-1.133-1.435c-0.16-0.663-0.055-1.371,0.316-2.124
			c0.396-0.804,0.944-1.353,1.646-1.646c0.701-0.292,1.356-0.287,1.967,0.014c0.746,0.367,1.102,0.951,1.062,1.753l0.043,0.021
			C97.669,168.097,97.843,167.816,98.049,167.507z M93.8,168.665l-0.005,0.012c-0.24,0.487-0.326,0.965-0.257,1.432
			c0.07,0.466,0.309,0.8,0.718,1.002c0.309,0.151,0.648,0.165,1.018,0.039c0.369-0.126,0.68-0.336,0.932-0.631
			c0.128-0.169,0.259-0.391,0.393-0.663c0.12-0.243,0.199-0.433,0.239-0.564c0.107-0.384,0.104-0.757-0.011-1.122
			c-0.115-0.363-0.33-0.623-0.646-0.779c-0.416-0.205-0.846-0.188-1.291,0.054C94.446,167.685,94.082,168.091,93.8,168.665z"/>
		<path d="M96.411,175.127l1.448-1.989l1.087,0.535l-1.738,1.847L96.411,175.127z"/>
		<path d="M103.251,176.689l3.562-7.234l0.948,0.467l-3.562,7.234L103.251,176.689z"/>
		<path d="M105.997,178.042l3.562-7.235l0.947,0.467l-3.165,6.427l3.187,1.569l-0.397,0.808L105.997,178.042z"/>
		<path d="M112.539,177.411l0.387-0.786l3.542,1.744l-0.387,0.786L112.539,177.411z"/>
		<path d="M118.217,184.219c-0.818-0.403-1.306-0.993-1.463-1.771c-0.157-0.776,0.02-1.682,0.528-2.716l0.275-0.56
			c0.615-1.249,1.329-2.05,2.14-2.404c0.812-0.354,1.659-0.313,2.542,0.121c0.337,0.166,0.64,0.371,0.908,0.614
			c0.269,0.244,0.461,0.462,0.581,0.654l-0.581,0.583c-0.101-0.157-0.272-0.336-0.511-0.539c-0.24-0.202-0.47-0.358-0.693-0.468
			c-0.639-0.314-1.221-0.35-1.748-0.104c-0.526,0.244-1.066,0.877-1.622,1.896c0.749-0.255,1.462-0.216,2.137,0.116
			c0.631,0.311,1.053,0.769,1.264,1.371c0.211,0.604,0.153,1.239-0.176,1.906c-0.354,0.719-0.856,1.204-1.508,1.459
			C119.64,184.632,118.948,184.579,118.217,184.219z M118.571,183.443c0.452,0.223,0.878,0.257,1.275,0.1
			c0.398-0.156,0.722-0.485,0.969-0.987c0.502-1.02,0.271-1.766-0.69-2.24c-0.309-0.151-0.648-0.209-1.018-0.173
			c-0.37,0.036-0.694,0.128-0.973,0.276l-0.037,0.075C117.38,181.951,117.537,182.935,118.571,183.443z"/>
		<path d="M120.698,187.085l1.448-1.988l1.087,0.535l-1.738,1.846L120.698,187.085z"/>
		<path d="M130.194,190.103c-0.99-0.488-1.615-1.176-1.872-2.065c-0.258-0.89-0.092-1.934,0.498-3.132l0.122-0.248
			c0.311-0.631,0.669-1.14,1.072-1.525c0.404-0.385,0.827-0.64,1.273-0.764c0.445-0.125,0.895-0.157,1.352-0.098
			c0.456,0.061,0.921,0.207,1.395,0.439c0.71,0.351,1.237,0.774,1.581,1.273l-0.387,0.786c-0.544-0.58-1.1-1.01-1.667-1.289
			c-0.681-0.336-1.328-0.389-1.94-0.159c-0.613,0.229-1.139,0.792-1.581,1.689l-0.191,0.388c-0.933,1.895-0.639,3.216,0.883,3.966
			c0.596,0.293,1.299,0.447,2.112,0.465l-0.397,0.807C131.755,190.68,131.004,190.502,130.194,190.103z"/>
		<path d="M136.222,193.07c-0.99-0.487-1.61-1.185-1.859-2.092s-0.088-1.942,0.484-3.105l0.101-0.204
			c0.552-1.12,1.273-1.863,2.163-2.232c0.892-0.368,1.834-0.308,2.833,0.184c0.991,0.488,1.608,1.185,1.853,2.09
			c0.246,0.906,0.082,1.94-0.49,3.103l-0.101,0.205c-0.555,1.127-1.272,1.874-2.154,2.242
			C138.17,193.629,137.227,193.565,136.222,193.07z M136.636,192.312c0.711,0.35,1.37,0.364,1.978,0.044
			c0.609-0.32,1.11-0.882,1.506-1.687l0.169-0.344c0.94-1.909,0.681-3.223-0.776-3.939c-0.704-0.348-1.357-0.363-1.961-0.051
			c-0.604,0.314-1.105,0.872-1.501,1.676l-0.175,0.355C134.933,190.282,135.186,191.597,136.636,192.312z"/>
		<path d="M140.263,194.913l4.177-2.532l-0.496-4.645l1.066,0.525l0.398,3.728l0.032,0.016l3.068-2.021l0.99,0.487l-3.914,2.488
			l0.469,4.806l-1.065-0.525l-0.378-3.904l-0.032-0.017l-3.347,2.071L140.263,194.913z"/>
		<path d="M147.002,198.231l0.276-0.56l2.506-0.906c0.915-0.335,1.612-0.645,2.096-0.928c0.482-0.284,0.837-0.655,1.063-1.114
			c0.233-0.475,0.288-0.883,0.161-1.226c-0.125-0.343-0.439-0.638-0.941-0.885c-0.495-0.243-1.124-0.317-1.885-0.219l0.135-0.844
			c0.858-0.112,1.635,0.003,2.331,0.345c0.732,0.361,1.203,0.825,1.415,1.393c0.211,0.567,0.155,1.178-0.166,1.831
			c-0.286,0.581-0.709,1.035-1.266,1.362c-0.559,0.328-1.364,0.674-2.417,1.037l-1.612,0.558l3.23,1.591l-0.393,0.797
			L147.002,198.231z"/>
	</g>
	<g>
		<g>
			
				<line fill="none" stroke="#ED1C24" stroke-width="1.3312" stroke-miterlimit="10" x1="94.627" y1="86.453" x2="367.644" y2="86.453"/>
			<g>
				<rect x="366.978" y="82.127" fill="#ED1C24" width="1.331" height="8.653"/>
			</g>
		</g>
	</g>
	<g>
		<g>
			
				<line fill="none" stroke="#ED1C24" stroke-width="1.3312" stroke-miterlimit="10" x1="368.31" y1="99.858" x2="95.293" y2="99.858"/>
			<g>
				<rect x="94.627" y="95.531" fill="#ED1C24" width="1.331" height="8.653"/>
			</g>
		</g>
	</g>
	
		<rect x="0.607" y="76.364" fill="none" stroke="#000000" stroke-width="1.214" stroke-miterlimit="10" width="66.093" height="41.609"/>
	
		<rect x="374.374" y="76.364" fill="none" stroke="#000000" stroke-width="1.214" stroke-miterlimit="10" width="66.093" height="41.609"/>
	<g>
		<path d="M129.03,75.902v-7.392h0.968v7.392H129.03z M133.166,75.902l-3.08-3.773l3.047-3.618h1.034l-2.992,3.509l3.135,3.883
			H133.166z"/>
		<path d="M137.533,76.001c-0.851,0-1.498-0.243-1.942-0.731c-0.443-0.487-0.665-1.16-0.665-2.019v-0.165
			c0-0.901,0.229-1.587,0.688-2.057c0.458-0.47,1.032-0.704,1.721-0.704c1.474,0,2.211,0.862,2.211,2.585v0.528h-3.652
			c0.029,0.631,0.194,1.082,0.495,1.353c0.3,0.271,0.733,0.407,1.298,0.407c0.608,0,1.173-0.14,1.694-0.418v0.693
			C138.919,75.825,138.303,76.001,137.533,76.001z M137.291,71.084c-0.359,0-0.673,0.123-0.94,0.369
			c-0.268,0.245-0.42,0.654-0.457,1.227h2.662c0-0.558-0.104-0.963-0.313-1.216S137.716,71.084,137.291,71.084z"/>
		<path d="M142.042,76.001c-0.513,0-0.924-0.132-1.232-0.396c-0.308-0.265-0.462-0.649-0.462-1.155c0-0.924,0.55-1.455,1.65-1.595
			l1.452-0.176v-0.507c0-0.41-0.097-0.686-0.292-0.824c-0.194-0.14-0.544-0.209-1.051-0.209c-0.359,0-0.795,0.051-1.309,0.153
			v-0.671c0.521-0.198,1.078-0.297,1.672-0.297c1.269,0,1.903,0.539,1.903,1.617v3.96h-0.748l-0.099-0.462h-0.055
			C143.135,75.814,142.659,76.001,142.042,76.001z M142.273,75.275c0.513,0,0.906-0.125,1.177-0.374v-1.507l-1.21,0.121
			c-0.323,0.036-0.558,0.124-0.704,0.264c-0.147,0.14-0.22,0.355-0.22,0.649c0,0.278,0.086,0.489,0.259,0.632
			C141.747,75.204,141.98,75.275,142.273,75.275z"/>
		<path d="M145.838,77.541v-7.105h0.891v0.439h0.055c0.381-0.366,0.906-0.55,1.573-0.55c0.66,0,1.197,0.207,1.611,0.621
			c0.414,0.415,0.622,1.092,0.622,2.03v0.143c0,0.976-0.214,1.696-0.644,2.161c-0.429,0.466-1.036,0.699-1.82,0.699
			c-0.521,0-0.972-0.117-1.353-0.353v1.914H145.838z M148.049,75.221c1.056,0,1.584-0.656,1.584-1.97v-0.242
			c0-0.703-0.125-1.193-0.374-1.468c-0.25-0.275-0.634-0.413-1.155-0.413c-0.558,0-1.001,0.125-1.331,0.374v3.345
			C147.066,75.096,147.491,75.221,148.049,75.221z"/>
		<path d="M152.889,75.946v-6.468l-1.342,0.297v-0.562l1.782-0.824h0.528v7.557H152.889z"/>
		<path d="M164.163,72.415h-8.679v-0.792h8.679V72.415z M163.437,77.068h-6.963v-2.354h5.632v-0.692h-5.654v-0.792h6.622v2.211
			h-5.632v0.825h5.995V77.068z M163.162,69.357c0,0.535-0.293,0.951-0.88,1.248c-0.586,0.297-1.404,0.445-2.453,0.445
			c-1.042,0-1.854-0.148-2.437-0.445s-0.875-0.713-0.875-1.248c0-0.543,0.292-0.963,0.875-1.26s1.395-0.445,2.437-0.445
			c1.048,0,1.866,0.148,2.453,0.445C162.869,68.395,163.162,68.814,163.162,69.357z M159.829,68.434
			c-0.697,0-1.254,0.084-1.672,0.253s-0.627,0.393-0.627,0.671c0,0.271,0.209,0.491,0.627,0.66s0.976,0.253,1.672,0.253
			c0.711,0,1.277-0.084,1.699-0.253s0.633-0.389,0.633-0.66c0-0.278-0.211-0.502-0.633-0.671S160.54,68.434,159.829,68.434z"/>
		<path d="M172.677,69.974h-4.84v-0.781h4.84V69.974z M172.292,71.821c0,0.462-0.187,0.829-0.561,1.1
			c-0.374,0.271-0.858,0.407-1.452,0.407c-0.594,0-1.077-0.136-1.447-0.407c-0.37-0.271-0.555-0.638-0.555-1.1
			c0-0.455,0.187-0.817,0.561-1.089c0.374-0.271,0.854-0.407,1.441-0.407c0.594,0,1.078,0.136,1.452,0.407
			S172.292,71.366,172.292,71.821z M171.522,68.609h-2.442v-0.792h2.442V68.609z M171.071,72.36c0.205-0.14,0.308-0.319,0.308-0.539
			s-0.103-0.396-0.308-0.528c-0.206-0.132-0.47-0.197-0.792-0.197c-0.323,0-0.587,0.065-0.792,0.197
			c-0.206,0.132-0.308,0.309-0.308,0.528s0.103,0.399,0.308,0.539c0.205,0.14,0.469,0.209,0.792,0.209
			C170.601,72.569,170.866,72.5,171.071,72.36z M176.021,77.146h-0.979v-2.432h-5.544v-0.78h6.523V77.146z M176.01,73.472h-0.935
			v-2.421h-1.056v2.311h-0.924v-5.665h0.924v2.552h1.056v-2.728h0.935V73.472z"/>
		<path d="M186.086,75.836h-8.679v-0.792h8.679V75.836z M185.217,70.831c0,0.748-0.319,1.352-0.957,1.81
			c-0.638,0.459-1.478,0.688-2.519,0.688c-1.034,0-1.868-0.229-2.502-0.688c-0.634-0.458-0.952-1.062-0.952-1.81
			c0-0.74,0.317-1.342,0.952-1.804s1.468-0.693,2.502-0.693c1.042,0,1.881,0.231,2.519,0.693S185.217,70.091,185.217,70.831z
			 M184.227,70.831c0-0.483-0.227-0.878-0.682-1.183c-0.455-0.304-1.056-0.456-1.804-0.456c-0.741,0-1.336,0.152-1.788,0.456
			c-0.451,0.305-0.676,0.699-0.676,1.183c0,0.491,0.226,0.888,0.676,1.188c0.451,0.301,1.047,0.451,1.788,0.451
			c0.748,0,1.349-0.15,1.804-0.451C184,71.719,184.227,71.322,184.227,70.831z"/>
		<path d="M195.601,75.913h-8.679v-0.792h3.828v-1.518h-2.783v-3.091h5.588v-1.408h-5.61v-0.792h6.578v2.992h-5.588v1.507h5.852
			v0.792h-3.058v1.518h3.872V75.913z"/>
		<path d="M199.67,71.634c0-1.004,0.209-1.82,0.627-2.447c0.418-0.627,1.034-0.94,1.848-0.94s1.428,0.313,1.843,0.94
			c0.414,0.627,0.622,1.446,0.622,2.459c0,1.012-0.208,1.831-0.622,2.458c-0.415,0.627-1.029,0.94-1.843,0.94
			s-1.43-0.314-1.848-0.945C199.879,73.468,199.67,72.646,199.67,71.634z M203.257,73.499c0.256-0.466,0.385-1.084,0.385-1.854
			c0-0.771-0.128-1.39-0.385-1.859c-0.257-0.469-0.627-0.704-1.111-0.704c-0.477,0-0.843,0.235-1.1,0.704
			c-0.256,0.47-0.385,1.089-0.385,1.859c0,0.77,0.128,1.388,0.385,1.854c0.257,0.466,0.624,0.698,1.1,0.698
			C202.629,74.197,203,73.965,203.257,73.499z M207.261,77.134h-0.979v-9.613h0.979V77.134z"/>
		<path d="M216.467,71.15h-2.805v1.144h3.861v0.792h-8.679v-0.792h3.839V71.15h-2.794v-3.245h6.511v0.792h-5.543v1.661h5.609V71.15z
			 M215.631,74.159c0.58,0.297,0.869,0.717,0.869,1.259c0,0.543-0.289,0.965-0.869,1.266c-0.578,0.3-1.396,0.45-2.453,0.45
			c-1.049,0-1.863-0.15-2.442-0.45c-0.58-0.301-0.869-0.723-0.869-1.266c0-0.527,0.292-0.943,0.875-1.248s1.395-0.457,2.437-0.457
			C214.235,73.713,215.053,73.861,215.631,74.159z M213.179,74.505c-0.711,0-1.274,0.083-1.688,0.248
			c-0.415,0.165-0.622,0.391-0.622,0.677c0,0.293,0.206,0.521,0.616,0.682s0.975,0.242,1.694,0.242c0.726,0,1.296-0.081,1.71-0.242
			s0.621-0.389,0.621-0.682c0-0.294-0.207-0.521-0.621-0.683S213.905,74.505,213.179,74.505z"/>
		<path d="M224.201,74.099l-0.583,0.726c-0.483-0.337-0.951-0.769-1.402-1.292c-0.451-0.524-0.757-1.047-0.918-1.568
			c-0.169,0.587-0.47,1.163-0.902,1.728s-0.924,1.026-1.475,1.386l-0.604-0.715c0.733-0.47,1.327-1.095,1.782-1.876
			c0.454-0.78,0.682-1.607,0.682-2.48v-1.639h1.012v1.595c0,0.866,0.228,1.671,0.683,2.415
			C222.928,73.121,223.504,73.695,224.201,74.099z M226.313,77.134h-0.968v-9.613h0.968V77.134z"/>
		<path d="M232.67,68.532c0,1.115-0.172,2.112-0.517,2.992s-0.823,1.63-1.436,2.249c-0.612,0.62-1.385,1.172-2.315,1.656
			l-0.627-0.716c1.591-0.74,2.702-1.774,3.333-3.102l-3.015,0.33l-0.176-0.858l3.487-0.274c0.139-0.47,0.224-0.953,0.253-1.452
			h-3.256v-0.825H232.67z M232.649,73.581v-0.813h2.134v-1.738h-1.991v-0.825h1.991v-2.684h0.968v9.613h-0.968v-3.553H232.649z"/>
		<path d="M240.766,75.902v-7.392h1.144l3.388,5.741h0.022v-5.741h0.891v7.392h-1.001l-3.53-6.05h-0.022v6.05H240.766z"/>
		<path d="M247.861,75.902v-5.467h0.891v0.604h0.056c0.153-0.19,0.368-0.35,0.644-0.479c0.274-0.128,0.555-0.192,0.841-0.192
			c0.154,0,0.268,0.015,0.341,0.044v0.836c-0.153-0.021-0.293-0.033-0.418-0.033c-0.521,0-0.993,0.14-1.419,0.418v4.269H247.861z"/>
		<path d="M251.909,75.902v-4.687h-0.803v-0.78h0.803v-0.781c0-0.572,0.156-1.001,0.468-1.287s0.728-0.429,1.249-0.429
			c0.388,0,0.7,0.062,0.935,0.187v0.671c-0.271-0.059-0.528-0.088-0.771-0.088c-0.638,0-0.956,0.341-0.956,1.023v0.704h1.254v0.78
			h-1.254v4.687H251.909z"/>
		<path d="M255,75.902V75.33l1.693-1.76c0.616-0.646,1.065-1.183,1.348-1.611c0.282-0.43,0.424-0.878,0.424-1.348
			c0-0.484-0.121-0.842-0.363-1.072c-0.242-0.231-0.619-0.347-1.133-0.347c-0.506,0-1.053,0.194-1.639,0.583l-0.231-0.748
			c0.66-0.44,1.346-0.66,2.058-0.66c0.748,0,1.323,0.19,1.727,0.572c0.403,0.381,0.605,0.905,0.605,1.573
			c0,0.594-0.164,1.138-0.49,1.633s-0.849,1.105-1.567,1.832l-1.1,1.11h3.3v0.814H255z"/>
		<path d="M267.1,74.703c-0.689,0.088-1.863,0.176-3.521,0.264c-0.865,0.045-1.822,0.074-2.871,0.089l-0.154-0.836
			c1.21,0,2.271-0.022,3.18-0.066c1.386-0.059,2.475-0.132,3.267-0.22L267.1,74.703z M266.231,70.557
			c0,0.652-0.242,1.181-0.727,1.584c-0.483,0.403-1.081,0.604-1.793,0.604c-0.719,0-1.316-0.203-1.793-0.61
			s-0.715-0.934-0.715-1.578c0-0.66,0.24-1.203,0.721-1.628c0.48-0.426,1.076-0.639,1.787-0.639c0.727,0,1.327,0.209,1.805,0.627
			C265.993,69.335,266.231,69.882,266.231,70.557z M265.274,70.545c0-0.433-0.148-0.78-0.445-1.045
			c-0.298-0.264-0.67-0.396-1.117-0.396c-0.425,0-0.788,0.138-1.089,0.412c-0.301,0.275-0.451,0.618-0.451,1.028
			c0,0.403,0.148,0.735,0.445,0.996c0.298,0.26,0.662,0.391,1.095,0.391s0.802-0.129,1.105-0.386
			C265.121,71.29,265.274,70.956,265.274,70.545z M267.617,67.521h0.957v9.613h-0.957V67.521z"/>
		<path d="M278.188,70.919c0,0.338-0.154,0.607-0.462,0.809c-0.309,0.202-0.723,0.328-1.243,0.38v0.429
			c1.151-0.065,1.969-0.139,2.453-0.22l0.099,0.726c-0.901,0.117-1.925,0.209-3.068,0.275c-1.452,0.059-2.45,0.088-2.992,0.088
			l-0.144-0.77c0.763,0,1.657-0.019,2.685-0.056v-0.462c-0.536-0.051-0.959-0.178-1.271-0.38c-0.312-0.201-0.468-0.475-0.468-0.819
			c0-0.389,0.201-0.688,0.605-0.896c0.402-0.209,0.931-0.313,1.584-0.313c0.674,0,1.213,0.104,1.616,0.313
			S278.188,70.53,278.188,70.919z M278.804,69.456h-5.633V68.72h5.633V69.456z M280.861,77.123h-6.655V75.1h5.324v-0.572h-5.368
			v-0.715h6.336v1.946h-5.323v0.66h5.687V77.123z M277.275,68.301h-2.684v-0.726h2.684V68.301z M276.89,71.305
			c0.234-0.089,0.352-0.217,0.352-0.386c0-0.168-0.117-0.297-0.352-0.385c-0.235-0.088-0.543-0.132-0.924-0.132
			c-0.374,0-0.675,0.044-0.902,0.132s-0.341,0.217-0.341,0.385c0,0.169,0.113,0.297,0.341,0.386
			c0.228,0.088,0.528,0.132,0.902,0.132C276.347,71.437,276.655,71.393,276.89,71.305z M281.928,71.117h-1.431v2.178h-0.957v-5.774
			h0.957v2.783h1.431V71.117z"/>
		<path d="M288.054,71.997l-0.571,0.759c-0.463-0.205-0.896-0.496-1.299-0.874s-0.696-0.794-0.88-1.249
			c-0.146,0.484-0.435,0.946-0.863,1.387c-0.429,0.439-0.911,0.78-1.446,1.022l-0.605-0.759c0.727-0.308,1.31-0.746,1.749-1.314
			c0.44-0.568,0.66-1.216,0.66-1.941V68.06h0.99v0.924c0,0.711,0.226,1.338,0.677,1.881
			C286.915,71.407,287.446,71.784,288.054,71.997z M289.655,73.905c0.568,0.334,0.853,0.791,0.853,1.37s-0.284,1.034-0.853,1.364
			s-1.365,0.494-2.393,0.494c-1.02,0-1.813-0.164-2.381-0.494c-0.568-0.33-0.853-0.785-0.853-1.364s0.284-1.036,0.853-1.37
			c0.567-0.333,1.361-0.5,2.381-0.5C288.289,73.405,289.086,73.572,289.655,73.905z M287.262,74.187
			c-0.704,0-1.254,0.097-1.649,0.291c-0.396,0.194-0.595,0.461-0.595,0.798s0.198,0.602,0.595,0.792
			c0.396,0.19,0.945,0.286,1.649,0.286c0.712,0,1.266-0.096,1.661-0.286c0.396-0.19,0.594-0.455,0.594-0.792
			s-0.197-0.604-0.594-0.798C288.528,74.283,287.974,74.187,287.262,74.187z M289.452,70.468h-1.849v-0.792h1.849v-2.155h0.979
			v5.874h-0.979V70.468z"/>
		<path d="M300.737,72.415h-8.679v-0.792h8.679V72.415z M300.011,77.068h-6.963v-2.354h5.632v-0.692h-5.654v-0.792h6.622v2.211
			h-5.632v0.825h5.995V77.068z M299.736,69.357c0,0.535-0.293,0.951-0.88,1.248s-1.404,0.445-2.453,0.445
			c-1.041,0-1.854-0.148-2.437-0.445s-0.874-0.713-0.874-1.248c0-0.543,0.291-0.963,0.874-1.26s1.396-0.445,2.437-0.445
			c1.049,0,1.866,0.148,2.453,0.445S299.736,68.814,299.736,69.357z M296.403,68.434c-0.696,0-1.254,0.084-1.672,0.253
			s-0.627,0.393-0.627,0.671c0,0.271,0.209,0.491,0.627,0.66s0.976,0.253,1.672,0.253c0.712,0,1.278-0.084,1.7-0.253
			c0.421-0.169,0.632-0.389,0.632-0.66c0-0.278-0.211-0.502-0.632-0.671C297.681,68.518,297.115,68.434,296.403,68.434z"/>
		<path d="M310.077,71.799c-1.122,0.257-2.57,0.4-4.346,0.43h-0.891V68.06h0.968v3.344c1.687-0.029,3.059-0.165,4.114-0.407
			L310.077,71.799z M305.743,73.493h6.313v0.781h-2.618c0.096,0.491,0.461,0.961,1.095,1.408c0.635,0.447,1.311,0.696,2.029,0.748
			l-0.495,0.759c-0.63-0.096-1.271-0.353-1.919-0.771c-0.649-0.418-1.065-0.821-1.249-1.21c-0.183,0.403-0.581,0.807-1.193,1.21
			s-1.274,0.653-1.985,0.748l-0.495-0.736c0.763-0.052,1.459-0.298,2.09-0.737c0.631-0.44,0.99-0.913,1.078-1.419h-2.65V73.493z
			 M313.322,70.557h-1.431v2.31h-0.979v-5.346h0.979v2.222h1.431V70.557z"/>
		<path d="M321.604,77.002h-6.589v-2.947h2.805v-0.892h-3.839v-0.792h8.679v0.792h-3.86v0.892h2.805V77.002z M322.231,71.128
			l-0.407,0.814c-0.74-0.088-1.446-0.282-2.117-0.583s-1.135-0.652-1.392-1.056c-0.249,0.425-0.7,0.784-1.353,1.077
			c-0.653,0.294-1.364,0.48-2.135,0.562l-0.429-0.814c0.763-0.036,1.459-0.18,2.09-0.429s1.045-0.564,1.243-0.946h-2.86v-0.77h6.887
			v0.77h-2.827c0.205,0.382,0.631,0.697,1.275,0.946C320.852,70.948,321.527,71.092,322.231,71.128z M320.624,76.243v-1.419h-4.642
			v1.419H320.624z M319.866,68.334h-3.112v-0.792h3.112V68.334z"/>
	</g>
	<g>
		<g>
			<path d="M167.505,117.512v-7.392h0.968v7.392H167.505z"/>
			<path d="M170.309,117.512v-7.392h0.968v7.392H170.309z M174.446,117.512l-3.08-3.773l3.047-3.618h1.034l-2.992,3.509l3.135,3.883
				H174.446z"/>
			<path d="M176.701,117.512v-7.392h0.968v7.392H176.701z M180.837,117.512l-3.08-3.773l3.047-3.618h1.034l-2.992,3.509l3.135,3.883
				H180.837z"/>
			<path d="M189.086,116.312c-0.689,0.088-1.863,0.176-3.52,0.264c-0.865,0.045-1.822,0.074-2.871,0.089l-0.154-0.836
				c1.21,0,2.27-0.022,3.179-0.066c1.386-0.059,2.475-0.132,3.267-0.22L189.086,116.312z M188.217,112.166
				c0,0.652-0.242,1.181-0.726,1.584c-0.484,0.403-1.082,0.604-1.793,0.604c-0.719,0-1.316-0.203-1.793-0.61
				s-0.715-0.934-0.715-1.578c0-0.66,0.24-1.203,0.721-1.628c0.48-0.426,1.076-0.639,1.787-0.639c0.726,0,1.328,0.209,1.804,0.627
				S188.217,111.491,188.217,112.166z M187.26,112.154c0-0.433-0.148-0.78-0.445-1.045c-0.297-0.264-0.669-0.396-1.117-0.396
				c-0.425,0-0.788,0.138-1.089,0.412c-0.301,0.275-0.451,0.618-0.451,1.028c0,0.403,0.148,0.735,0.445,0.996
				c0.297,0.26,0.662,0.391,1.094,0.391s0.801-0.129,1.105-0.386C187.108,112.899,187.26,112.565,187.26,112.154z M189.603,109.13
				h0.957v9.613h-0.957V109.13z"/>
			<path d="M203.694,117.501h-8.679v-0.804h8.679V117.501z M202.88,110.89h-7.106v-0.781h7.106V110.89z M202.869,114.86h-7.084
				v-0.78h1.518l-0.264-2.585l0.99-0.144l0.198,2.729h2.222l0.33-2.706l0.957,0.165l-0.396,2.541h1.529V114.86z"/>
			<path d="M213.209,117.522h-8.679v-0.792h3.828v-1.518h-2.783v-3.091h5.588v-1.408h-5.61v-0.792h6.578v2.992h-5.588v1.507h5.852
				v0.792h-3.058v1.518h3.872V117.522z"/>
			<path d="M217.554,113.596h-2.222v1.991c1.298,0.021,2.328-0.059,3.091-0.242l0.11,0.781c-0.895,0.19-2.284,0.282-4.169,0.274
				v-6.116h3.652v0.792h-2.684v1.749h2.222V113.596z M219.369,113.606h-1.21v-0.792h1.21v-3.476h0.924v8.932h-0.924V113.606z
				 M222.163,118.743h-0.935v-9.613h0.935V118.743z"/>
			<path d="M224.319,115.669c-0.411-0.627-0.616-1.446-0.616-2.458c0-1.013,0.205-1.832,0.616-2.459s1.02-0.94,1.826-0.94
				s1.414,0.313,1.821,0.94c0.407,0.627,0.61,1.45,0.61,2.47c0,1.005-0.204,1.82-0.61,2.447c-0.407,0.627-1.014,0.94-1.821,0.94
				S224.729,116.296,224.319,115.669z M227.619,113.222c0-0.771-0.128-1.392-0.385-1.864c-0.256-0.474-0.62-0.71-1.089-0.71
				s-0.831,0.235-1.083,0.704c-0.253,0.47-0.379,1.093-0.379,1.87c0,0.763,0.126,1.379,0.379,1.848
				c0.253,0.47,0.614,0.704,1.083,0.704s0.833-0.234,1.089-0.704C227.491,114.601,227.619,113.984,227.619,113.222z M232.525,113.75
				h-1.54v4.993h-0.979v-9.613h0.979v3.816h1.54V113.75z"/>
			<path d="M241.753,114.553h-8.679v-0.803h3.839v-1.364h0.979v1.364h3.861V114.553z M241.358,112.254l-0.43,0.78
				c-0.755-0.109-1.467-0.348-2.134-0.715c-0.667-0.366-1.129-0.773-1.386-1.221c-0.206,0.462-0.633,0.874-1.281,1.237
				c-0.649,0.363-1.381,0.596-2.195,0.698l-0.429-0.77c0.807-0.066,1.536-0.275,2.189-0.627c0.652-0.353,1.048-0.796,1.188-1.331
				h-2.992v-0.792h7.052v0.792h-2.971c0.14,0.528,0.554,0.972,1.243,1.331S240.617,112.202,241.358,112.254z M240.642,118.611
				h-6.457v-3.179h6.457V118.611z M239.663,117.842v-1.64h-4.51v1.64H239.663z"/>
			<path d="M250.344,116.709h-0.968v-1.771h-3.895v-0.792h8.68v0.792h-3.817V116.709z M253.072,113.155h-6.512v-3.718h0.979v1.133
				h4.564v-1.144h0.968V113.155z M253.149,118.458h-6.589v-2.641h0.979v1.849h5.609V118.458z M252.104,112.363v-1.022h-4.564v1.022
				H252.104z"/>
			<path d="M259.783,112.298h-4.764v-0.803h4.764V112.298z M259.584,114.618c0,0.58-0.194,1.04-0.583,1.381
				s-0.898,0.512-1.529,0.512c-0.623,0-1.133-0.178-1.529-0.533c-0.396-0.356-0.594-0.809-0.594-1.359
				c0-0.571,0.196-1.028,0.589-1.369c0.392-0.341,0.903-0.512,1.534-0.512s1.141,0.171,1.529,0.512S259.584,114.047,259.584,114.618
				z M258.671,110.647h-2.585v-0.792h2.585V110.647z M258.314,115.41c0.224-0.212,0.335-0.477,0.335-0.792
				c0-0.314-0.111-0.575-0.335-0.78s-0.505-0.309-0.842-0.309c-0.345,0-0.629,0.104-0.853,0.313s-0.335,0.468-0.335,0.775
				c0,0.323,0.109,0.589,0.33,0.798c0.22,0.209,0.506,0.313,0.857,0.313C257.809,115.729,258.09,115.623,258.314,115.41z
				 M263.116,118.743h-0.936v-4.84h-0.99v4.367h-0.935v-8.932h0.935v3.762h0.99v-3.971h0.936V118.743z"/>
			<path d="M270.551,118.743h-0.968v-3.344h-2.179v-0.803h8.68v0.803h-2.211v3.344h-0.969v-3.344h-2.354V118.743z M275.149,111.671
				c0,0.631-0.308,1.14-0.924,1.528c-0.616,0.39-1.444,0.583-2.486,0.583c-1.041,0-1.868-0.193-2.48-0.583
				c-0.612-0.389-0.918-0.897-0.918-1.528c0-0.623,0.306-1.128,0.918-1.513s1.439-0.577,2.48-0.577c1.042,0,1.87,0.192,2.486,0.577
				S275.149,111.048,275.149,111.671z M273.483,110.758c-0.437-0.234-1.018-0.353-1.744-0.353c-0.726,0-1.307,0.118-1.743,0.353
				s-0.654,0.539-0.654,0.913c0,0.381,0.216,0.689,0.648,0.924s1.016,0.352,1.749,0.352s1.316-0.117,1.749-0.352
				s0.649-0.543,0.649-0.924C274.137,111.297,273.918,110.992,273.483,110.758z"/>
			<path d="M285.599,117.522h-8.68v-0.792h3.828v-2.255h-2.794v-4.565h6.622v0.792h-5.654v2.981h5.709v0.792h-2.903v2.255h3.872
				V117.522z"/>
			<path d="M176.31,127.049v-0.616h5.72l-0.781-1.309l0.154-0.176l2.156,1.793l-2.156,1.781l-0.154-0.176l0.781-1.298H176.31z"/>
			<path d="M187.859,130.712v-7.392h1.144l3.388,5.741h0.022v-5.741h0.891v7.392h-1.001l-3.531-6.05h-0.022v6.05H187.859z"/>
			<path d="M195.108,130.712v-7.392h4.279v0.836h-3.311v2.475h2.552v0.825h-2.552v3.256H195.108z"/>
			<path d="M200.377,127.544v-0.803h3.619v0.803H200.377z"/>
			<path d="M207.351,127.632v0.033c0.396,0.103,0.92,0.594,1.573,1.474l0.935,1.298h-1.155l-0.792-1.089
				c-0.572-0.777-1.056-1.177-1.452-1.199h-0.088v2.288h-0.99v-4.025c0-0.579-0.041-0.961-0.121-1.145h0.957
				c0.103,0.125,0.154,0.418,0.154,0.88v1.408h0.044c0.264-0.257,0.528-0.522,0.792-0.797c0.264-0.275,0.537-0.563,0.819-0.864
				s0.482-0.51,0.6-0.627h1.144v0.056c-0.264,0.249-0.677,0.643-1.238,1.182S207.578,127.419,207.351,127.632z"/>
			<path d="M210.816,130.712v-7.392h2.288c1.606,0,2.409,0.623,2.409,1.869c0,0.808-0.403,1.339-1.21,1.596v0.044
				c1.012,0.19,1.518,0.784,1.518,1.781c0,0.631-0.217,1.139-0.649,1.524c-0.433,0.385-1.06,0.577-1.881,0.577H210.816z
				 M211.785,126.499h1.155c1.042,0,1.562-0.393,1.562-1.177c0-0.44-0.119-0.745-0.357-0.913c-0.238-0.169-0.61-0.253-1.117-0.253
				h-1.243V126.499z M211.785,129.897h1.452c1.049,0,1.573-0.443,1.573-1.331c0-0.454-0.138-0.782-0.413-0.984
				c-0.275-0.201-0.684-0.302-1.227-0.302h-1.386V129.897z"/>
			<path d="M224.764,125.729c0,0.338-0.154,0.607-0.462,0.809c-0.308,0.202-0.723,0.328-1.243,0.38v0.429
				c1.151-0.065,1.969-0.139,2.453-0.22l0.099,0.726c-0.902,0.117-1.925,0.209-3.069,0.275c-1.452,0.059-2.449,0.088-2.992,0.088
				l-0.143-0.77c0.762,0,1.657-0.019,2.684-0.056v-0.462c-0.535-0.051-0.958-0.178-1.271-0.38c-0.312-0.201-0.467-0.475-0.467-0.819
				c0-0.389,0.202-0.688,0.605-0.896s0.931-0.313,1.584-0.313c0.675,0,1.214,0.104,1.617,0.313
				C224.562,125.041,224.764,125.34,224.764,125.729z M225.38,124.266h-5.632v-0.736h5.632V124.266z M227.437,131.933h-6.655v-2.023
				h5.324v-0.572h-5.368v-0.715h6.336v1.946h-5.324v0.66h5.687V131.933z M223.851,123.11h-2.684v-0.726h2.684V123.11z
				 M223.466,126.114c0.235-0.089,0.352-0.217,0.352-0.386c0-0.168-0.117-0.297-0.352-0.385c-0.234-0.088-0.542-0.132-0.924-0.132
				c-0.374,0-0.675,0.044-0.902,0.132c-0.228,0.088-0.341,0.217-0.341,0.385c0,0.169,0.114,0.297,0.341,0.386
				c0.227,0.088,0.528,0.132,0.902,0.132C222.923,126.246,223.231,126.202,223.466,126.114z M228.504,125.927h-1.43v2.178h-0.957
				v-5.774h0.957v2.783h1.43V125.927z"/>
			<path d="M234.631,126.807l-0.572,0.759c-0.462-0.205-0.895-0.496-1.298-0.874s-0.697-0.794-0.88-1.249
				c-0.147,0.484-0.435,0.946-0.864,1.387c-0.429,0.439-0.911,0.78-1.446,1.022l-0.604-0.759c0.726-0.308,1.309-0.746,1.749-1.314
				c0.439-0.568,0.659-1.216,0.659-1.941v-0.968h0.99v0.924c0,0.711,0.226,1.338,0.677,1.881S234.022,126.594,234.631,126.807z
				 M236.231,128.715c0.568,0.334,0.853,0.791,0.853,1.37s-0.284,1.034-0.853,1.364s-1.365,0.494-2.392,0.494
				c-1.02,0-1.813-0.164-2.382-0.494s-0.853-0.785-0.853-1.364s0.284-1.036,0.853-1.37c0.568-0.333,1.362-0.5,2.382-0.5
				C234.866,128.215,235.662,128.382,236.231,128.715z M233.839,128.996c-0.704,0-1.255,0.097-1.65,0.291
				c-0.396,0.194-0.594,0.461-0.594,0.798s0.197,0.602,0.594,0.792c0.396,0.19,0.946,0.286,1.65,0.286
				c0.711,0,1.265-0.096,1.66-0.286c0.396-0.19,0.595-0.455,0.595-0.792s-0.198-0.604-0.595-0.798
				C235.104,129.093,234.55,128.996,233.839,128.996z M236.028,125.277h-1.848v-0.792h1.848v-2.155h0.979v5.874h-0.979V125.277z"/>
			<path d="M238.975,126.443c0-1.004,0.209-1.82,0.628-2.447c0.418-0.627,1.033-0.94,1.848-0.94c0.813,0,1.428,0.313,1.843,0.94
				c0.414,0.627,0.621,1.446,0.621,2.459c0,1.012-0.207,1.831-0.621,2.458c-0.415,0.627-1.029,0.94-1.843,0.94
				c-0.814,0-1.43-0.314-1.848-0.945C239.184,128.277,238.975,127.456,238.975,126.443z M242.562,128.309
				c0.256-0.466,0.385-1.084,0.385-1.854c0-0.771-0.129-1.39-0.385-1.859c-0.257-0.469-0.628-0.704-1.111-0.704
				c-0.477,0-0.844,0.235-1.101,0.704c-0.256,0.47-0.385,1.089-0.385,1.859c0,0.77,0.129,1.388,0.385,1.854
				c0.257,0.466,0.624,0.698,1.101,0.698C241.934,129.007,242.305,128.774,242.562,128.309z M246.566,131.943h-0.979v-9.613h0.979
				V131.943z"/>
			<path d="M256.652,126.608c-1.122,0.257-2.57,0.4-4.345,0.43h-0.891v-4.169h0.968v3.344c1.687-0.029,3.058-0.165,4.114-0.407
				L256.652,126.608z M252.318,128.303h6.314v0.781h-2.618c0.096,0.491,0.46,0.961,1.095,1.408c0.634,0.447,1.311,0.696,2.029,0.748
				l-0.495,0.759c-0.631-0.096-1.271-0.353-1.919-0.771c-0.649-0.418-1.065-0.821-1.249-1.21c-0.184,0.403-0.581,0.807-1.193,1.21
				s-1.274,0.653-1.985,0.748l-0.495-0.736c0.763-0.052,1.459-0.298,2.09-0.737c0.631-0.44,0.99-0.913,1.078-1.419h-2.651V128.303z
				 M259.897,125.366h-1.43v2.31h-0.979v-5.346h0.979v2.222h1.43V125.366z"/>
			<path d="M261.316,128.869c-0.41-0.627-0.615-1.446-0.615-2.458c0-1.013,0.205-1.832,0.615-2.459
				c0.411-0.627,1.02-0.94,1.826-0.94s1.414,0.313,1.821,0.94c0.406,0.627,0.61,1.45,0.61,2.47c0,1.005-0.204,1.82-0.61,2.447
				c-0.407,0.627-1.015,0.94-1.821,0.94S261.727,129.496,261.316,128.869z M264.617,126.422c0-0.771-0.129-1.392-0.386-1.864
				c-0.256-0.474-0.619-0.71-1.089-0.71c-0.469,0-0.83,0.235-1.083,0.704c-0.253,0.47-0.38,1.093-0.38,1.87
				c0,0.763,0.127,1.379,0.38,1.848c0.253,0.47,0.614,0.704,1.083,0.704c0.47,0,0.833-0.234,1.089-0.704
				C264.488,127.801,264.617,127.185,264.617,126.422z M269.522,126.95h-1.54v4.993h-0.979v-9.613h0.979v3.816h1.54V126.95z"/>
			<path d="M270.412,123.793v-0.792h5.28v0.792h-2.145v0.23c0,0.639,0.242,1.214,0.726,1.728c0.484,0.514,1.026,0.861,1.628,1.045
				l-0.539,0.781c-0.454-0.184-0.901-0.464-1.342-0.842s-0.759-0.779-0.957-1.204c-0.154,0.454-0.456,0.901-0.907,1.342
				c-0.451,0.439-0.926,0.759-1.425,0.957l-0.583-0.748c0.66-0.242,1.227-0.647,1.699-1.216c0.474-0.568,0.71-1.175,0.71-1.82
				v-0.253H270.412z M277.959,131.812h-6.26v-3.377h6.26V131.812z M276.98,131.031v-1.826h-4.312v1.826H276.98z M276.98,122.33
				h0.979v5.565h-0.979V122.33z"/>
		</g>
	</g>
</g>
<g>
</g>
<g>
</g>
<g>
</g>
<g>
</g>
<g>
</g>
<g>
</g>
<g>
</g>
<g>
</g>
</svg>
