<?xml version="1.0" encoding="UTF-8"?>
<svg id="_레이어_1" data-name="레이어 1" xmlns="http://www.w3.org/2000/svg" xmlns:xlink="http://www.w3.org/1999/xlink" viewBox="0 0 427.816 303.253">
  <defs>
    <style>
      .cls-1 {
        fill: #8fd6ed;
      }

      .cls-1, .cls-2, .cls-3, .cls-4, .cls-5, .cls-6, .cls-7, .cls-8, .cls-9, .cls-10, .cls-11, .cls-12, .cls-13 {
        stroke-miterlimit: 10;
      }

      .cls-1, .cls-2, .cls-3, .cls-4, .cls-5, .cls-6, .cls-8, .cls-9, .cls-10, .cls-11, .cls-12, .cls-13 {
        stroke: #231f20;
      }

      .cls-1, .cls-4, .cls-5, .cls-6, .cls-7, .cls-8, .cls-13 {
        stroke-width: .511px;
      }

      .cls-14 {
        fill: #072330;
      }

      .cls-14, .cls-15, .cls-16, .cls-17, .cls-18, .cls-19, .cls-20 {
        stroke-width: 0px;
      }

      .cls-2, .cls-15 {
        fill: #bf392f;
      }

      .cls-2, .cls-9, .cls-11, .cls-12 {
        stroke-width: 1.021px;
      }

      .cls-21, .cls-22, .cls-23, .cls-24, .cls-25, .cls-26 {
        font-family: AppleSDGothicNeoEB00, AppleSDGothicNeoEB00;
      }

      .cls-21, .cls-22, .cls-25 {
        font-size: 10px;
      }

      .cls-21, .cls-26 {
        fill: #fff;
      }

      .cls-3 {
        stroke-width: 2.042px;
      }

      .cls-3, .cls-16, .cls-27, .cls-12 {
        fill: none;
      }

      .cls-4 {
        fill: #44afe3;
      }

      .cls-5 {
        fill: #30a3dc;
      }

      .cls-6 {
        fill: #047cb6;
      }

      .cls-27 {
        stroke: #263373;
        stroke-linecap: round;
        stroke-linejoin: round;
        stroke-width: 4.085px;
      }

      .cls-17 {
        fill: #1c75bc;
      }

      .cls-22 {
        letter-spacing: -.075em;
      }

      .cls-22, .cls-23, .cls-24, .cls-20, .cls-25 {
        fill: #231f20;
      }

      .cls-23 {
        font-size: 8.043px;
      }

      .cls-24 {
        font-size: 13.686px;
      }

      .cls-7 {
        fill: #fcdd5f;
        stroke: #6f4a1d;
      }

      .cls-8 {
        fill: #0075b4;
      }

      .cls-9, .cls-10 {
        fill: #4177bc;
      }

      .cls-10 {
        stroke-width: .717px;
      }

      .cls-18 {
        fill: #263373;
      }

      .cls-19 {
        fill: #21396f;
      }

      .cls-28 {
        clip-path: url(#clippath);
      }

      .cls-11 {
        fill: #c43f93;
      }

      .cls-13 {
        fill: #8bd5e9;
      }

      .cls-26 {
        font-size: 10.371px;
      }
    </style>
    <clipPath id="clippath">
      <path class="cls-16" d="m139.758,230.079v16.261h160.964v-16.261h-160.964Zm21.509,6.714c-.867-1.314-1.803-2.312-3.103-2.586.463-.6.979-1.159,1.564-1.635,1.268.585,2.231,1.633,3.051,2.815-.543.273-1.026.75-1.512,1.406Zm23.548.003c-.868-1.315-1.803-2.314-3.103-2.589.464-.601.98-1.159,1.564-1.634,1.271.587,2.236,1.64,3.057,2.826-.56.278-1.046.766-1.518,1.397Zm23.546,0c-.866-1.313-1.799-2.312-3.096-2.59.464-.601.981-1.156,1.567-1.631,1.264.588,2.226,1.637,3.044,2.819-.544.272-1.033.758-1.515,1.401Zm23.547,0c-.869-1.317-1.806-2.317-3.109-2.59.469-.609.985-1.165,1.563-1.637,1.271.585,2.236,1.635,3.058,2.82-.533.268-1.018.743-1.511,1.407Zm23.55,0c-.868-1.316-1.804-2.315-3.106-2.59.446-.581.961-1.144,1.565-1.635,1.267.585,2.23,1.632,3.05,2.813-.506.257-.991.716-1.509,1.411Zm23.55-.001c-.867-1.313-1.801-2.312-3.1-2.588.466-.599.99-1.152,1.578-1.628,1.258.587,2.216,1.631,3.032,2.807-.53.265-1.012.738-1.51,1.409Z"/>
    </clipPath>
  </defs>
  <g>
    <circle class="cls-1" cx="52.712" cy="202.678" r="4.599"/>
    <circle class="cls-1" cx="57.311" cy="198.593" r="4.599"/>
    <circle class="cls-1" cx="52.712" cy="138.422" r="4.599"/>
    <circle class="cls-1" cx="59.899" cy="191.998" r="4.599"/>
    <circle class="cls-1" cx="50.701" cy="144.574" r="4.599"/>
    <circle class="cls-1" cx="44.182" cy="148.605" r="4.599"/>
    <g>
      <circle class="cls-13" cx="41.73" cy="185.495" r="4.599"/>
      <circle class="cls-5" cx="41.73" cy="179.274" r="4.599"/>
      <circle class="cls-8" cx="41.73" cy="173.339" r="4.599"/>
      <circle class="cls-6" cx="41.73" cy="167.334" r="4.599"/>
      <circle class="cls-4" cx="41.73" cy="161.182" r="4.599"/>
      <circle class="cls-1" cx="41.73" cy="154.562" r="4.599"/>
    </g>
    <g>
      <circle class="cls-13" cx="46.969" cy="187.4" r="4.599"/>
      <circle class="cls-5" cx="46.969" cy="181.178" r="4.599"/>
      <circle class="cls-8" cx="46.969" cy="175.243" r="4.599"/>
      <circle class="cls-6" cx="46.969" cy="169.238" r="4.599"/>
      <circle class="cls-4" cx="46.969" cy="163.087" r="4.599"/>
      <circle class="cls-1" cx="46.969" cy="156.467" r="4.599"/>
    </g>
    <g>
      <circle class="cls-13" cx="59.899" cy="185.495" r="4.599"/>
      <circle class="cls-5" cx="59.899" cy="179.274" r="4.599"/>
      <circle class="cls-8" cx="59.899" cy="173.339" r="4.599"/>
      <circle class="cls-6" cx="59.899" cy="167.334" r="4.599"/>
      <circle class="cls-4" cx="59.899" cy="161.182" r="4.599"/>
      <circle class="cls-1" cx="59.899" cy="154.562" r="4.599"/>
    </g>
    <g>
      <circle class="cls-13" cx="53.38" cy="187.4" r="4.599"/>
      <circle class="cls-5" cx="53.38" cy="181.178" r="4.599"/>
      <circle class="cls-8" cx="53.38" cy="175.243" r="4.599"/>
      <circle class="cls-6" cx="53.38" cy="169.238" r="4.599"/>
      <circle class="cls-4" cx="53.38" cy="163.087" r="4.599"/>
      <circle class="cls-1" cx="53.38" cy="156.467" r="4.599"/>
    </g>
  </g>
  <g>
    <rect class="cls-9" x="205.649" y="71.48" width="25.694" height="47.831" rx="12.847" ry="12.847" transform="translate(123.101 313.892) rotate(-90)"/>
    <text class="cls-26" transform="translate(208.368 98.636)"><tspan x="0" y="0">Nrf2</tspan></text>
  </g>
  <g>
    <rect class="cls-9" x="291.429" y="120.659" width="25.694" height="47.831" rx="12.847" ry="12.847" transform="translate(159.702 448.85) rotate(-90)"/>
    <text class="cls-26" transform="translate(294.147 147.815)"><tspan x="0" y="0">Nrf2</tspan></text>
  </g>
  <rect class="cls-10" x="160.104" y="207.159" width="18.041" height="33.584" rx="9.02" ry="9.02" transform="translate(-54.826 393.075) rotate(-90)"/>
  <text class="cls-21" transform="translate(159.391 227.248)"><tspan x="0" y="0">Nrf2</tspan></text>
  <g>
    <rect class="cls-9" x="119.325" y="71.48" width="25.694" height="47.831" rx="12.847" ry="12.847" transform="translate(36.777 227.568) rotate(-90)"/>
    <text class="cls-26" transform="translate(122.044 98.636)"><tspan x="0" y="0">Nrf2</tspan></text>
  </g>
  <g>
    <rect class="cls-11" x="206.313" y="41.143" width="25.694" height="47.831" rx="12.847" ry="12.847"/>
    <text class="cls-26" transform="translate(215.92 50.395) rotate(90)"><tspan x="0" y="0">KEAP1</tspan></text>
  </g>
  <g>
    <rect class="cls-11" x="310.25" y="74.295" width="25.694" height="47.831" rx="12.847" ry="12.847" transform="translate(224.887 421.308) rotate(-90)"/>
    <text class="cls-26" transform="translate(308.434 101.452)"><tspan x="0" y="0">KEAP1</tspan></text>
  </g>
  <g>
    <circle class="cls-2" cx="102.568" cy="98.636" r="10.675"/>
    <text class="cls-26" transform="translate(96.096 101.877)"><tspan x="0" y="0">Ub</tspan></text>
  </g>
  <g>
    <circle class="cls-2" cx="96.781" cy="113.998" r="10.675"/>
    <text class="cls-26" transform="translate(90.31 117.239)"><tspan x="0" y="0">Ub</tspan></text>
  </g>
  <g>
    <circle class="cls-2" cx="113.243" cy="111.058" r="10.675"/>
    <text class="cls-26" transform="translate(106.772 114.299)"><tspan x="0" y="0">Ub</tspan></text>
  </g>
  <g>
    <line class="cls-12" x1="189.491" y1="95.395" x2="170.216" y2="95.395"/>
    <polygon class="cls-20" points="163.006 95.395 173.166 91.244 170.755 95.395 173.166 99.546 163.006 95.395"/>
  </g>
  <g>
    <line class="cls-15" x1="249.98" y1="95.395" x2="276.465" y2="95.395"/>
    <g>
      <line class="cls-12" x1="249.98" y1="95.395" x2="269.255" y2="95.395"/>
      <polygon class="cls-20" points="276.465 95.395 266.305 99.547 268.716 95.395 266.305 91.245 276.465 95.395"/>
    </g>
  </g>
  <g>
    <line class="cls-15" x1="309.16" y1="235.838" x2="335.645" y2="235.838"/>
    <g>
      <line class="cls-12" x1="309.16" y1="235.838" x2="328.435" y2="235.838"/>
      <polygon class="cls-20" points="335.645 235.838 325.485 239.989 327.896 235.838 325.485 231.687 335.645 235.838"/>
    </g>
  </g>
  <g>
    <line class="cls-15" x1="249.45" y1="108.812" x2="269.879" y2="125.667"/>
    <g>
      <line class="cls-12" x1="249.45" y1="108.812" x2="264.318" y2="121.078"/>
      <polygon class="cls-20" points="269.879 125.667 259.4 122.403 263.902 120.735 264.684 115.999 269.879 125.667"/>
    </g>
  </g>
  <text class="cls-25" transform="translate(37.131 224.886)"><tspan x="0" y="0">프로테오좀</tspan></text>
  <text class="cls-25" transform="translate(242.412 218.551)"><tspan x="0" y="0">Target 유전자</tspan></text>
  <text class="cls-25" transform="translate(344.547 228.703)"><tspan x="0" y="0">SOD</tspan><tspan x="0" y="12">Catalase</tspan><tspan x="0" y="24">글루타치온 시스템</tspan><tspan x="0" y="36">Phase II 해독 효소군</tspan><tspan x="0" y="48">헴/철 </tspan><tspan x="0" y="60">NADPH 관련 효소</tspan><tspan x="0" y="72">등등 </tspan></text>
  <text class="cls-23" transform="translate(0 156.467)"><tspan x="0" y="0">Nrf2 분해</tspan></text>
  <path class="cls-3" d="m92.469,235.838s92.855-99.035,262.041-28.561"/>
  <g>
    <path class="cls-19" d="m298.404,237.7c-1.422,2.467-2.649,4.598-5.003,4.598s-3.582-2.131-5.004-4.598c-1.518-2.634-3.239-5.62-6.773-5.62s-5.255,2.986-6.773,5.62c-1.421,2.467-2.649,4.598-5.002,4.598s-3.582-2.131-5.003-4.598c-1.518-2.634-3.238-5.62-6.772-5.62s-5.255,2.986-6.773,5.62c-1.421,2.467-2.649,4.598-5.002,4.598s-3.581-2.131-5.002-4.598c-1.518-2.634-3.239-5.62-6.773-5.62s-5.254,2.986-6.772,5.62c-1.421,2.467-2.649,4.598-5.002,4.598s-3.58-2.131-5.001-4.597c-1.518-2.635-3.238-5.621-6.772-5.621s-5.253,2.986-6.771,5.62c-1.421,2.467-2.648,4.598-5.001,4.598s-3.581-2.131-5.002-4.598c-1.518-2.634-3.238-5.62-6.772-5.62s-5.254,2.986-6.771,5.621c-1.421,2.467-2.648,4.597-5.001,4.597s-3.581-2.131-5.002-4.598c-1.518-2.634-3.238-5.62-6.772-5.62s-5.254,2.986-6.772,5.621c-1.421,2.467-2.648,4.597-5.001,4.597s-3.581-2.131-5.002-4.598c-1.298-2.254-2.749-4.759-5.353-5.437v2.162c1.489.669,2.478,2.378,3.582,4.294,1.518,2.634,3.238,5.62,6.772,5.62s5.254-2.986,6.771-5.62c1.421-2.467,2.649-4.598,5.002-4.598s3.581,2.131,5.002,4.598c1.518,2.634,3.238,5.62,6.772,5.62s5.253-2.986,6.771-5.62c1.421-2.467,2.648-4.598,5.001-4.598s3.581,2.131,5.002,4.598c1.518,2.634,3.238,5.62,6.772,5.62s5.254-2.986,6.771-5.621c1.421-2.467,2.648-4.597,5.001-4.597s3.581,2.131,5.002,4.598c1.518,2.635,3.238,5.62,6.771,5.62s5.254-2.986,6.772-5.62c1.421-2.467,2.649-4.598,5.002-4.598s3.582,2.131,5.003,4.598c1.518,2.635,3.238,5.62,6.772,5.62s5.254-2.986,6.772-5.62c1.422-2.467,2.649-4.598,5.003-4.598s3.581,2.131,5.002,4.598c1.518,2.634,3.239,5.62,6.773,5.62s5.254-2.986,6.772-5.62c1.422-2.467,2.649-4.598,5.003-4.598s3.582,2.131,5.004,4.598c1.518,2.635,3.239,5.62,6.773,5.62,2.484,0,4.07-1.476,5.322-3.267v-3.924c-.107.184-.214.368-.319.55Z"/>
    <path class="cls-17" d="m291.949,237.7c-1.422,2.467-2.649,4.598-5.003,4.598s-3.582-2.131-5.004-4.598c-1.518-2.634-3.239-5.62-6.773-5.62s-5.255,2.986-6.773,5.62c-1.421,2.467-2.649,4.598-5.003,4.598s-3.581-2.131-5.002-4.598c-1.518-2.634-3.239-5.62-6.773-5.62s-5.254,2.986-6.772,5.62c-1.422,2.467-2.649,4.598-5.003,4.598s-3.581-2.131-5.002-4.598c-1.518-2.634-3.239-5.62-6.772-5.62s-5.254,2.986-6.772,5.62c-1.421,2.467-2.649,4.598-5.002,4.598s-3.581-2.131-5.002-4.598c-1.518-2.634-3.238-5.62-6.771-5.62s-5.254,2.986-6.771,5.621c-1.421,2.467-2.648,4.597-5.001,4.597s-3.581-2.131-5.002-4.598c-1.518-2.634-3.238-5.62-6.772-5.62s-5.254,2.986-6.771,5.621c-1.421,2.467-2.648,4.597-5.001,4.597s-3.581-2.131-5.002-4.598c-1.518-2.634-3.238-5.62-6.772-5.62s-5.254,2.986-6.771,5.62c-1.421,2.467-2.649,4.598-5.002,4.598-1.736,0-2.859-1.161-3.899-2.759v3.209c1.019.949,2.263,1.593,3.899,1.593,3.534,0,5.254-2.986,6.772-5.621,1.421-2.467,2.648-4.597,5.001-4.597s3.581,2.131,5.002,4.598c1.518,2.634,3.238,5.62,6.772,5.62s5.253-2.986,6.771-5.62c1.421-2.467,2.648-4.598,5.001-4.598s3.581,2.131,5.002,4.598c1.518,2.634,3.239,5.62,6.772,5.62s5.253-2.986,6.771-5.62c1.421-2.467,2.648-4.598,5.001-4.598s3.58,2.131,5.001,4.597c1.518,2.635,3.238,5.621,6.772,5.621s5.254-2.986,6.772-5.62c1.421-2.467,2.649-4.598,5.002-4.598s3.581,2.131,5.002,4.598c1.518,2.634,3.239,5.62,6.772,5.62s5.255-2.986,6.773-5.62c1.421-2.467,2.649-4.598,5.002-4.598s3.582,2.131,5.003,4.598c1.518,2.635,3.238,5.62,6.772,5.62s5.255-2.986,6.773-5.62c1.421-2.467,2.649-4.598,5.003-4.598s3.582,2.131,5.004,4.598c1.518,2.634,3.239,5.62,6.773,5.62s5.255-2.986,6.773-5.62c1.422-2.467,2.65-4.598,5.004-4.598v-2.042c-3.535,0-5.256,2.986-6.774,5.62Z"/>
    <g class="cls-28">
      <path class="cls-19" d="m298.404,237.7c-1.422,2.467-2.649,4.598-5.003,4.598s-3.582-2.131-5.004-4.598c-1.518-2.634-3.239-5.62-6.773-5.62s-5.255,2.986-6.773,5.62c-1.421,2.467-2.649,4.598-5.002,4.598s-3.582-2.131-5.003-4.598c-1.518-2.634-3.238-5.62-6.772-5.62s-5.255,2.986-6.773,5.62c-1.421,2.467-2.649,4.598-5.002,4.598s-3.581-2.131-5.002-4.598c-1.518-2.634-3.239-5.62-6.773-5.62s-5.254,2.986-6.772,5.62c-1.421,2.467-2.649,4.598-5.002,4.598s-3.58-2.131-5.001-4.597c-1.518-2.635-3.238-5.621-6.772-5.621s-5.253,2.986-6.771,5.62c-1.421,2.467-2.648,4.598-5.001,4.598s-3.581-2.131-5.002-4.598c-1.518-2.634-3.238-5.62-6.772-5.62s-5.254,2.986-6.771,5.621c-1.421,2.467-2.648,4.597-5.001,4.597s-3.581-2.131-5.002-4.598c-1.518-2.634-3.238-5.62-6.772-5.62s-5.254,2.986-6.772,5.621c-1.421,2.467-2.648,4.597-5.001,4.597s-3.581-2.131-5.002-4.598c-1.298-2.254-2.749-4.759-5.353-5.437v2.162c1.489.669,2.478,2.378,3.582,4.294,1.518,2.634,3.238,5.62,6.772,5.62s5.254-2.986,6.771-5.62c1.421-2.467,2.649-4.598,5.002-4.598s3.581,2.131,5.002,4.598c1.518,2.634,3.238,5.62,6.772,5.62s5.253-2.986,6.771-5.62c1.421-2.467,2.648-4.598,5.001-4.598s3.581,2.131,5.002,4.598c1.518,2.634,3.238,5.62,6.772,5.62s5.254-2.986,6.771-5.621c1.421-2.467,2.648-4.597,5.001-4.597s3.581,2.131,5.002,4.598c1.518,2.635,3.238,5.62,6.771,5.62s5.254-2.986,6.772-5.62c1.421-2.467,2.649-4.598,5.002-4.598s3.582,2.131,5.003,4.598c1.518,2.635,3.238,5.62,6.772,5.62s5.254-2.986,6.772-5.62c1.422-2.467,2.649-4.598,5.003-4.598s3.581,2.131,5.002,4.598c1.518,2.634,3.239,5.62,6.773,5.62s5.254-2.986,6.772-5.62c1.422-2.467,2.649-4.598,5.003-4.598s3.582,2.131,5.004,4.598c1.518,2.635,3.239,5.62,6.773,5.62,2.484,0,4.07-1.476,5.322-3.267v-3.924c-.107.184-.214.368-.319.55Z"/>
    </g>
  </g>
  <circle class="cls-7" cx="196.211" cy="224.785" r="9.855"/>
  <g>
    <polyline class="cls-27" points="212.481 231.066 212.481 216.835 234.056 216.835"/>
    <polygon class="cls-18" points="232.864 220.909 239.918 216.835 232.864 212.762 232.864 220.909"/>
  </g>
  <g>
    <line class="cls-15" x1="276.465" y1="154.562" x2="179.608" y2="207.277"/>
    <g>
      <line class="cls-12" x1="276.465" y1="154.562" x2="185.941" y2="203.83"/>
      <polygon class="cls-20" points="179.608 207.277 186.547 198.773 186.415 203.572 190.516 206.066 179.608 207.277"/>
    </g>
  </g>
  <text class="cls-22" transform="translate(185.917 226.928)"><tspan x="0" y="0">sMAF</tspan></text>
  <text class="cls-24" transform="translate(100.153 12.044)"><tspan x="0" y="0">기본 활성 </tspan></text>
  <text class="cls-24" transform="translate(280.36 12.044)"><tspan x="0" y="0">스트레스 상황</tspan></text>
  <path class="cls-14" d="m372.903,35.662c0,.008,0,.016,0,.024,0,.008,0,.016-.002.024,0,.008-.002.016-.002.024-.001.008-.002.016-.003.023-.001.008-.003.015-.004.023-.002.008-.003.015-.005.023-.002.008-.004.015-.006.023-.002.007-.005.015-.007.022-.003.007-.005.015-.008.022-.003.007-.006.014-.009.021-.003.007-.006.014-.01.021-.003.007-.007.014-.011.021-.004.007-.008.014-.012.02-.004.007-.008.013-.012.02-.004.006-.009.013-.013.019-.005.006-.009.012-.014.019-.005.006-.01.012-.015.018-.005.006-.01.012-.015.017-.005.006-.011.011-.016.017-.005.006-.011.011-.017.016-.006.005-.012.01-.018.016-.006.005-.012.01-.018.015-.006.005-.012.009-.019.014-.006.005-.013.009-.02.013s-.013.008-.02.013c-.007.004-.014.008-.021.012-.007.004-.014.007-.021.011-.007.003-.015.007-.022.01s-.015.006-.023.009c-.008.003-.015.006-.023.008s-.016.005-.024.007c-.008.002-.016.004-.024.006-.01.002-.019.004-.029.006-.009.002-.019.003-.028.005-.009.001-.019.002-.028.003-.009,0-.019.001-.028.002-.009,0-.019,0-.028,0-.009,0-.019,0-.028-.001-.009,0-.018-.001-.028-.003-.009-.001-.018-.002-.027-.004-.009-.002-.018-.003-.027-.005-.009-.002-.018-.004-.027-.006-.009-.002-.018-.005-.026-.008-.009-.003-.017-.006-.026-.009-.009-.003-.017-.007-.025-.01-.008-.004-.017-.007-.025-.011-.008-.004-.016-.008-.024-.013-.008-.004-.016-.009-.024-.014-.008-.005-.015-.01-.023-.015-.007-.005-.015-.01-.022-.016-.007-.005-.014-.011-.021-.017-.007-.006-.014-.012-.021-.018-.007-.006-.013-.012-.02-.019-.006-.006-.013-.013-.019-.02-.006-.007-.012-.014-.018-.021s-.011-.014-.017-.022c-.005-.007-.011-.015-.016-.023-.005-.008-.01-.016-.015-.024-.005-.008-.009-.016-.014-.024-.004-.008-.009-.017-.013-.025-.004-.009-.008-.017-.011-.026-.004-.009-.007-.018-.01-.027s-.006-.018-.009-.027c-.003-.009-.005-.019-.008-.028-.003-.012-.008-.033-.015-.061s-.017-.065-.03-.109c-.012-.044-.027-.095-.045-.153-.018-.058-.038-.123-.061-.195-.023-.071-.05-.149-.079-.232-.029-.083-.062-.173-.098-.267s-.075-.194-.118-.299-.089-.214-.139-.327c-.05-.113-.104-.231-.162-.352-.058-.121-.12-.246-.186-.373-.066-.128-.136-.258-.21-.392-.074-.133-.153-.269-.236-.407s-.171-.278-.263-.419c-.093-.141-.19-.284-.292-.427-.102-.144-.209-.288-.321-.433-.112-.145-.229-.29-.352-.435s-.251-.29-.384-.434c-.133-.144-.272-.287-.417-.429-.145-.142-.295-.283-.451-.422-.156-.139-.318-.276-.487-.411-.168-.135-.343-.267-.523-.397-.181-.13-.368-.256-.561-.379-.193-.123-.394-.243-.6-.359-.207-.116-.42-.227-.64-.335-.22-.107-.448-.21-.682-.308-.234-.098-.476-.19-.724-.277-.249-.087-.505-.168-.768-.243-.263-.075-.534-.144-.813-.206-.279-.062-.565-.118-.859-.166-.294-.048-.596-.089-.906-.123-.31-.033-.628-.059-.955-.076-.326-.017-.661-.026-1.004-.026h-38.788c-.158,0-.315-.003-.471-.009-.156-.006-.31-.016-.463-.028-.153-.012-.305-.028-.455-.046-.151-.018-.3-.039-.448-.063s-.294-.051-.439-.08c-.145-.029-.289-.062-.431-.096s-.283-.072-.423-.112c-.139-.04-.277-.083-.414-.128s-.272-.093-.405-.142c-.134-.05-.266-.102-.396-.157-.131-.055-.26-.111-.387-.17s-.253-.12-.378-.184c-.124-.063-.247-.129-.368-.196-.121-.067-.241-.137-.359-.208-.118-.071-.234-.145-.349-.22-.115-.075-.228-.152-.339-.231-.111-.079-.221-.159-.329-.242s-.214-.166-.318-.252c-.104-.086-.207-.173-.308-.261-.101-.089-.2-.179-.297-.27-.097-.092-.193-.184-.286-.279-.094-.094-.185-.19-.275-.287-.09-.097-.178-.195-.264-.294-.086-.099-.171-.2-.253-.301-.082-.101-.163-.204-.241-.307-.079-.103-.155-.208-.23-.313-.075-.105-.147-.212-.218-.319-.071-.107-.139-.215-.206-.323-.067-.109-.131-.218-.194-.328-.063-.11-.123-.22-.181-.331-.058-.111-.115-.223-.169-.335-.054-.112-.106-.225-.156-.337-.05.113-.102.225-.156.337-.054.112-.111.224-.169.335-.058.111-.119.222-.181.331-.063.11-.127.219-.194.328-.067.109-.135.216-.206.323-.071.107-.143.213-.218.319-.075.105-.151.21-.23.313s-.159.206-.241.307c-.082.101-.167.202-.253.301-.086.099-.174.197-.264.294-.09.097-.182.192-.275.287s-.189.187-.286.279-.196.182-.297.27-.204.176-.308.261c-.104.086-.211.17-.318.252-.108.082-.217.163-.329.242-.111.079-.224.156-.339.231-.115.075-.231.149-.349.22-.118.071-.238.141-.359.208-.121.067-.244.133-.368.196-.124.063-.25.125-.378.184s-.257.116-.387.17-.263.107-.396.157c-.134.05-.269.097-.405.142-.137.045-.275.088-.414.128s-.28.077-.423.112-.286.067-.431.096c-.145.029-.292.056-.439.08-.148.024-.297.045-.447.063-.15.018-.302.033-.455.046-.153.012-.308.022-.463.028-.156.006-.313.009-.471.009h-38.788c-.344,0-.68.009-1.007.027-.327.018-.646.044-.957.078s-.614.077-.909.127c-.295.05-.582.107-.862.171-.28.064-.551.135-.816.212s-.521.161-.771.25c-.25.089-.492.184-.727.285-.235.1-.463.206-.684.316-.221.11-.435.225-.643.343s-.408.241-.603.368c-.194.126-.382.256-.563.388-.181.133-.357.268-.525.406-.169.138-.332.278-.489.42s-.308.285-.453.43c-.145.145-.285.291-.418.437-.134.147-.262.294-.385.441s-.241.295-.353.441c-.112.147-.22.293-.322.438-.102.145-.2.289-.292.432-.092.142-.18.283-.263.422-.083.139-.162.275-.236.408-.074.133-.144.264-.209.391-.066.127-.127.251-.184.371s-.111.236-.16.348c-.049.112-.095.219-.137.321-.042.102-.08.199-.115.29-.035.091-.066.177-.095.256s-.053.152-.075.219c-.022.066-.041.126-.057.178-.016.052-.029.097-.04.134-.011.037-.018.066-.024.086-.005.021-.008.033-.009.036-.002.01-.005.019-.007.028s-.006.018-.009.028c-.003.009-.006.018-.01.027s-.007.017-.011.026-.008.017-.012.025-.009.016-.014.024c-.005.008-.01.016-.015.024s-.01.015-.016.023c-.005.007-.011.015-.017.022-.006.007-.012.014-.018.021-.006.007-.012.013-.019.02-.006.006-.013.013-.02.019-.007.006-.014.012-.02.018-.007.006-.014.011-.021.017-.007.005-.015.011-.022.016-.007.005-.015.01-.023.015-.008.005-.016.009-.023.014s-.016.009-.024.013c-.008.004-.016.008-.025.011s-.017.007-.025.01-.017.006-.026.009c-.009.003-.017.005-.026.008-.009.002-.018.005-.027.007s-.018.004-.027.005c-.009.002-.018.003-.027.004s-.018.002-.028.003c-.009,0-.019.001-.028.001s-.019,0-.028,0c-.009,0-.019,0-.028-.002-.009,0-.019-.002-.028-.003-.009-.001-.019-.003-.029-.005s-.019-.004-.029-.006c-.01-.002-.019-.005-.028-.007-.009-.003-.018-.006-.027-.009-.009-.003-.018-.006-.027-.01s-.017-.007-.026-.011c-.009-.004-.017-.008-.025-.012-.008-.004-.016-.009-.024-.014-.008-.005-.016-.01-.024-.015-.008-.005-.015-.01-.023-.016s-.015-.011-.022-.017c-.007-.006-.014-.012-.021-.018-.007-.006-.013-.012-.02-.019-.007-.006-.013-.013-.019-.02-.006-.007-.012-.014-.018-.02-.006-.007-.011-.014-.017-.021-.005-.007-.011-.015-.016-.022-.005-.007-.01-.015-.015-.023-.005-.008-.009-.016-.014-.023s-.009-.016-.013-.024c-.004-.008-.008-.016-.011-.025-.004-.008-.007-.017-.01-.025-.003-.009-.006-.017-.009-.026-.003-.009-.005-.017-.008-.026-.002-.009-.005-.018-.007-.027-.002-.009-.004-.018-.005-.027s-.003-.018-.004-.027c-.001-.009-.002-.018-.003-.028,0-.009-.001-.019-.001-.028,0-.009,0-.019,0-.028s0-.019.002-.028c0-.009.002-.019.003-.028.001-.009.003-.019.005-.029s.004-.019.006-.029c0-.003.004-.016.01-.039.006-.022.015-.054.026-.094.012-.04.026-.089.043-.146.018-.057.038-.122.062-.195s.051-.152.082-.239c.031-.087.065-.18.103-.28s.08-.205.125-.317c.046-.111.095-.228.149-.35s.112-.249.174-.38c.062-.131.129-.266.2-.405.071-.139.147-.282.227-.427.08-.146.166-.295.256-.446.09-.151.185-.305.286-.46.1-.156.206-.313.317-.471s.227-.318.349-.478c.122-.16.249-.321.383-.482s.272-.322.417-.482c.145-.16.296-.319.453-.478.157-.158.321-.315.491-.47s.346-.308.529-.458c.183-.15.372-.298.569-.443.196-.145.4-.286.61-.424.21-.138.428-.272.652-.401.225-.13.456-.255.696-.375s.486-.235.74-.345c.254-.11.516-.213.786-.311s.548-.189.833-.273.58-.162.882-.232c.302-.07.613-.133.932-.187s.646-.101.983-.138c.336-.038.681-.066,1.035-.086.354-.019.716-.029,1.088-.029h38.788c.163,0,.324-.004.484-.011.16-.007.318-.018.475-.033.157-.014.312-.032.466-.054.154-.021.306-.046.456-.074.151-.028.3-.059.447-.093.147-.034.293-.072.437-.112.144-.04.286-.084.427-.13.141-.046.279-.095.416-.147.137-.052.272-.107.406-.164.133-.057.265-.117.395-.18.13-.063.258-.128.384-.195.126-.068.25-.138.373-.21.122-.072.243-.147.361-.224.118-.077.235-.156.35-.237s.227-.164.338-.249c.11-.085.219-.172.325-.261.106-.089.211-.18.313-.272s.202-.187.3-.282c.098-.096.194-.193.287-.292.094-.099.185-.199.274-.301.089-.102.176-.205.261-.309.085-.104.167-.21.248-.317.08-.107.158-.214.234-.323.076-.109.149-.219.22-.329s.139-.222.206-.335c.066-.112.13-.226.191-.339.061-.114.12-.228.176-.343.056-.115.11-.231.161-.347.051-.116.1-.232.146-.349s.09-.234.131-.351.08-.235.115-.352.069-.235.1-.353c.002-.008.004-.016.007-.023.002-.008.005-.015.007-.023.003-.007.005-.015.008-.022.003-.007.006-.015.009-.022.003-.007.007-.014.01-.021.003-.007.007-.014.011-.021.004-.007.008-.014.012-.02.004-.007.008-.013.012-.02.004-.006.009-.013.013-.019.005-.006.009-.012.014-.018.005-.006.01-.012.015-.018.005-.006.01-.012.015-.017.005-.006.011-.011.016-.016.005-.005.011-.011.017-.016.006-.005.011-.01.017-.015.006-.005.012-.01.018-.014.006-.005.012-.009.018-.014s.013-.009.019-.013c.006-.004.013-.008.019-.012.007-.004.013-.008.02-.011.007-.004.014-.007.02-.011s.014-.007.021-.01c.007-.003.014-.006.021-.009s.014-.005.022-.008c.007-.003.015-.005.022-.007.007-.002.015-.004.022-.006.008-.002.015-.004.023-.005s.015-.003.023-.004c.008-.001.016-.002.023-.003.008-.001.016-.002.024-.002s.016-.001.024-.002c.008,0,.016,0,.024,0s.016,0,.024,0c.008,0,.016,0,.024.002s.016.001.024.002c.008,0,.016.002.023.003.008.001.015.003.023.004s.015.003.023.005c.008.002.015.004.022.006.007.002.015.005.022.007.007.003.015.005.022.008s.014.006.021.009c.007.003.014.006.021.01.007.003.014.007.02.011.007.004.013.007.02.011.007.004.013.008.019.012.006.004.013.008.019.013.006.004.012.009.018.014.006.005.012.009.018.014s.012.01.017.015c.006.005.011.01.017.016s.011.011.016.016c.005.006.01.011.015.017.005.006.01.012.015.018s.009.012.014.018c.005.006.009.013.013.019.004.006.008.013.012.02.004.007.008.013.012.02.004.007.007.014.011.021.004.007.007.014.01.021.003.007.006.014.009.022.003.007.006.015.008.022.003.008.005.015.007.023.002.008.005.015.007.023.031.118.064.235.1.353s.074.235.115.352c.041.117.085.234.131.351.046.117.095.233.146.349.051.116.105.232.161.347.056.115.115.23.176.343.061.114.125.227.191.339.066.112.135.224.206.335.071.111.144.221.22.329.076.109.154.217.234.323.08.107.163.212.248.316.085.104.172.207.261.309.089.102.181.202.274.301.094.099.189.196.287.292s.198.19.3.282.207.183.313.272.215.176.325.261c.111.085.223.168.338.249.115.081.231.16.35.237.118.077.239.151.361.224s.247.142.373.21c.126.068.254.133.384.195.13.063.262.123.395.18.133.057.269.112.406.164.137.052.276.101.416.147.141.046.283.09.427.13.144.04.29.078.437.112s.296.065.447.093.303.052.457.074c.154.021.309.039.466.054.157.014.315.025.475.033s.321.011.484.011h38.788c.372,0,.734.01,1.088.029.354.019.699.048,1.035.086s.664.084.983.138c.319.054.629.117.932.187.302.07.596.148.882.232s.564.176.833.273.532.201.786.311c.254.11.501.225.74.345s.471.245.696.375c.225.13.442.264.652.401s.414.279.61.424c.196.145.386.293.569.443s.359.303.529.458c.17.155.333.312.491.47.157.158.308.318.453.478.145.16.284.321.417.482.133.161.261.322.383.482.122.16.238.32.349.478.111.159.216.316.317.471s.195.309.286.46c.09.151.175.3.256.446.08.146.156.288.227.427s.138.274.2.405c.062.131.12.258.174.38.054.122.103.239.149.35.046.111.087.217.125.317.038.1.072.193.103.28.031.087.058.167.082.239s.045.138.062.195.032.106.043.146c.012.04.02.072.026.094s.009.036.01.039c0,.001,0,.003,0,.004,0,.001,0,.003,0,.004,0,.001,0,.003,0,.004,0,.001,0,.003,0,.004,0,.001,0,.003,0,.004,0,.001,0,.003,0,.004,0,.001,0,.003,0,.004,0,.001,0,.003,0,.004,0,.001,0,.003,0,.004,0,.001,0,.003,0,.004,0,.001,0,.003,0,.004,0,.001,0,.003,0,.004,0,.001,0,.003,0,.004,0,.001,0,.003,0,.004,0,.001,0,.003,0,.004,0,.001,0,.003,0,.004,0,.001,0,.003,0,.004,0,.001,0,.003,0,.004,0,.001,0,.003,0,.004,0,.001,0,.003,0,.004,0,.001,0,.003,0,.004,0,.001,0,.003,0,.004,0,.001,0,.003,0,.004,0,.001,0,.003,0,.004,0,.001,0,.003,0,.004s0,.003,0,.004v.004s0,.003,0,.004c0,.001,0,.003,0,.004s0,.003,0,.004,0,.003,0,.004v.004Z"/>
  <path class="cls-14" d="m188.237,35.662c0,.008,0,.016,0,.024,0,.008,0,.016-.002.024,0,.008-.002.016-.002.024-.001.008-.002.016-.003.023-.001.008-.003.015-.004.023-.002.008-.003.015-.005.023-.002.008-.004.015-.006.023-.002.007-.005.015-.007.022-.003.007-.005.015-.008.022-.003.007-.006.014-.009.021-.003.007-.006.014-.01.021-.003.007-.007.014-.011.021-.004.007-.008.014-.012.02-.004.007-.008.013-.012.02-.004.006-.009.013-.013.019-.005.006-.009.012-.014.019-.005.006-.01.012-.015.018-.005.006-.01.012-.015.017-.005.006-.011.011-.016.017-.005.006-.011.011-.017.016-.006.005-.012.01-.018.016-.006.005-.012.01-.018.015-.006.005-.012.009-.019.014-.006.005-.013.009-.02.013s-.013.008-.02.013c-.007.004-.014.008-.021.012-.007.004-.014.007-.021.011-.007.003-.015.007-.022.01s-.015.006-.023.009c-.008.003-.015.006-.023.008s-.016.005-.024.007c-.008.002-.016.004-.024.006-.01.002-.019.004-.029.006-.009.002-.019.003-.028.005-.009.001-.019.002-.028.003-.009,0-.019.001-.028.002-.009,0-.019,0-.028,0-.009,0-.019,0-.028-.001-.009,0-.018-.001-.028-.003-.009-.001-.018-.002-.027-.004-.009-.002-.018-.003-.027-.005-.009-.002-.018-.004-.027-.006-.009-.002-.018-.005-.026-.008-.009-.003-.017-.006-.026-.009-.009-.003-.017-.007-.025-.01-.008-.004-.017-.007-.025-.011-.008-.004-.016-.008-.024-.013-.008-.004-.016-.009-.024-.014-.008-.005-.015-.01-.023-.015-.007-.005-.015-.01-.022-.016-.007-.005-.014-.011-.021-.017-.007-.006-.014-.012-.021-.018-.007-.006-.013-.012-.02-.019-.006-.006-.013-.013-.019-.02-.006-.007-.012-.014-.018-.021s-.011-.014-.017-.022c-.005-.007-.011-.015-.016-.023-.005-.008-.01-.016-.015-.024-.005-.008-.009-.016-.014-.024-.004-.008-.009-.017-.013-.025-.004-.009-.008-.017-.011-.026-.004-.009-.007-.018-.01-.027s-.006-.018-.009-.027c-.003-.009-.005-.019-.008-.028-.003-.012-.008-.033-.015-.061s-.017-.065-.03-.109c-.012-.044-.027-.095-.045-.153-.018-.058-.038-.123-.061-.195-.023-.071-.05-.149-.079-.232-.029-.083-.062-.173-.098-.267s-.075-.194-.118-.299-.089-.214-.139-.327c-.05-.113-.104-.231-.162-.352-.058-.121-.12-.246-.186-.373-.066-.128-.136-.258-.21-.392-.074-.133-.153-.269-.236-.407s-.171-.278-.263-.419c-.093-.141-.19-.284-.292-.427-.102-.144-.209-.288-.321-.433-.112-.145-.229-.29-.352-.435s-.251-.29-.384-.434c-.133-.144-.272-.287-.417-.429-.145-.142-.295-.283-.451-.422-.156-.139-.318-.276-.487-.411-.168-.135-.343-.267-.523-.397-.181-.13-.368-.256-.561-.379-.193-.123-.394-.243-.6-.359-.207-.116-.42-.227-.64-.335-.22-.107-.448-.21-.682-.308-.234-.098-.476-.19-.724-.277-.249-.087-.505-.168-.768-.243-.263-.075-.534-.144-.813-.206-.279-.062-.565-.118-.859-.166-.294-.048-.596-.089-.906-.123-.31-.033-.628-.059-.955-.076-.326-.017-.661-.026-1.004-.026h-38.788c-.158,0-.315-.003-.471-.009-.156-.006-.31-.016-.463-.028-.153-.012-.305-.028-.455-.046-.151-.018-.3-.039-.448-.063s-.294-.051-.439-.08c-.145-.029-.289-.062-.431-.096s-.283-.072-.423-.112c-.139-.04-.277-.083-.414-.128s-.272-.093-.405-.142c-.134-.05-.266-.102-.396-.157-.131-.055-.26-.111-.387-.17s-.253-.12-.378-.184c-.124-.063-.247-.129-.368-.196-.121-.067-.241-.137-.359-.208-.118-.071-.234-.145-.349-.22-.115-.075-.228-.152-.339-.231-.111-.079-.221-.159-.329-.242s-.214-.166-.318-.252c-.104-.086-.207-.173-.308-.261-.101-.089-.2-.179-.297-.27-.097-.092-.193-.184-.286-.279-.094-.094-.185-.19-.275-.287-.09-.097-.178-.195-.264-.294-.086-.099-.171-.2-.253-.301-.082-.101-.163-.204-.241-.307-.079-.103-.155-.208-.23-.313-.075-.105-.147-.212-.218-.319-.071-.107-.139-.215-.206-.323-.067-.109-.131-.218-.194-.328-.063-.11-.123-.22-.181-.331-.058-.111-.115-.223-.169-.335-.054-.112-.106-.225-.156-.337-.05.113-.102.225-.156.337-.054.112-.111.224-.169.335-.058.111-.119.222-.181.331-.063.11-.127.219-.194.328-.067.109-.135.216-.206.323-.071.107-.143.213-.218.319-.075.105-.151.21-.23.313s-.159.206-.241.307c-.082.101-.167.202-.253.301-.086.099-.174.197-.264.294-.09.097-.182.192-.275.287s-.189.187-.286.279-.196.182-.297.27-.204.176-.308.261c-.104.086-.211.17-.318.252-.108.082-.217.163-.329.242-.111.079-.224.156-.339.231-.115.075-.231.149-.349.22-.118.071-.238.141-.359.208-.121.067-.244.133-.368.196-.124.063-.25.125-.378.184s-.257.116-.387.17-.263.107-.396.157c-.134.05-.269.097-.405.142-.137.045-.275.088-.414.128s-.28.077-.423.112-.286.067-.431.096c-.145.029-.292.056-.439.08-.148.024-.297.045-.447.063-.15.018-.302.033-.455.046-.153.012-.308.022-.463.028-.156.006-.313.009-.471.009h-38.788c-.344,0-.68.009-1.007.027-.327.018-.646.044-.957.078s-.614.077-.909.127c-.295.05-.582.107-.862.171-.28.064-.551.135-.816.212s-.521.161-.771.25c-.25.089-.492.184-.727.285-.235.1-.463.206-.684.316-.221.11-.435.225-.643.343s-.408.241-.603.368c-.194.126-.382.256-.563.388-.181.133-.357.268-.525.406-.169.138-.332.278-.489.42s-.308.285-.453.43c-.145.145-.285.291-.418.437-.134.147-.262.294-.385.441s-.241.295-.353.441c-.112.147-.22.293-.322.438-.102.145-.2.289-.292.432-.092.142-.18.283-.263.422-.083.139-.162.275-.236.408-.074.133-.144.264-.209.391-.066.127-.127.251-.184.371s-.111.236-.16.348c-.049.112-.095.219-.137.321-.042.102-.08.199-.115.29-.035.091-.066.177-.095.256s-.053.152-.075.219c-.022.066-.041.126-.057.178-.016.052-.029.097-.04.134-.011.037-.018.066-.024.086-.005.021-.008.033-.009.036-.002.01-.005.019-.007.028s-.006.018-.009.028c-.003.009-.006.018-.01.027s-.007.017-.011.026-.008.017-.012.025-.009.016-.014.024c-.005.008-.01.016-.015.024s-.01.015-.016.023c-.005.007-.011.015-.017.022-.006.007-.012.014-.018.021-.006.007-.012.013-.019.02-.006.006-.013.013-.02.019-.007.006-.014.012-.02.018-.007.006-.014.011-.021.017-.007.005-.015.011-.022.016-.007.005-.015.01-.023.015-.008.005-.016.009-.023.014s-.016.009-.024.013c-.008.004-.016.008-.025.011s-.017.007-.025.01-.017.006-.026.009c-.009.003-.017.005-.026.008-.009.002-.018.005-.027.007s-.018.004-.027.005c-.009.002-.018.003-.027.004s-.018.002-.028.003c-.009,0-.019.001-.028.001s-.019,0-.028,0c-.009,0-.019,0-.028-.002-.009,0-.019-.002-.028-.003-.009-.001-.019-.003-.029-.005s-.019-.004-.029-.006c-.01-.002-.019-.005-.028-.007-.009-.003-.018-.006-.027-.009-.009-.003-.018-.006-.027-.01s-.017-.007-.026-.011c-.009-.004-.017-.008-.025-.012-.008-.004-.016-.009-.024-.014-.008-.005-.016-.01-.024-.015-.008-.005-.015-.01-.023-.016s-.015-.011-.022-.017c-.007-.006-.014-.012-.021-.018-.007-.006-.013-.012-.02-.019-.007-.006-.013-.013-.019-.02-.006-.007-.012-.014-.018-.02-.006-.007-.011-.014-.017-.021-.005-.007-.011-.015-.016-.022-.005-.007-.01-.015-.015-.023-.005-.008-.009-.016-.014-.023s-.009-.016-.013-.024c-.004-.008-.008-.016-.011-.025-.004-.008-.007-.017-.01-.025-.003-.009-.006-.017-.009-.026-.003-.009-.005-.017-.008-.026-.002-.009-.005-.018-.007-.027-.002-.009-.004-.018-.005-.027s-.003-.018-.004-.027c-.001-.009-.002-.018-.003-.028,0-.009-.001-.019-.001-.028,0-.009,0-.019,0-.028s0-.019.002-.028c0-.009.002-.019.003-.028.001-.009.003-.019.005-.029s.004-.019.006-.029c0-.003.004-.016.01-.039.006-.022.015-.054.026-.094.012-.04.026-.089.043-.146.018-.057.038-.122.062-.195s.051-.152.082-.239c.031-.087.065-.18.103-.28s.08-.205.125-.317c.046-.111.095-.228.149-.35s.112-.249.174-.38c.062-.131.129-.266.2-.405.071-.139.147-.282.227-.427.08-.146.166-.295.256-.446.09-.151.185-.305.286-.46.1-.156.206-.313.317-.471s.227-.318.349-.478c.122-.16.249-.321.383-.482s.272-.322.417-.482c.145-.16.296-.319.453-.478.157-.158.321-.315.491-.47s.346-.308.529-.458c.183-.15.372-.298.569-.443.196-.145.4-.286.61-.424.21-.138.428-.272.652-.401.225-.13.456-.255.696-.375s.486-.235.74-.345c.254-.11.516-.213.786-.311s.548-.189.833-.273.58-.162.882-.232c.302-.07.613-.133.932-.187s.646-.101.983-.138c.336-.038.681-.066,1.035-.086.354-.019.716-.029,1.088-.029h38.788c.163,0,.324-.004.484-.011.16-.007.318-.018.475-.033.157-.014.312-.032.466-.054.154-.021.306-.046.456-.074.151-.028.3-.059.447-.093.147-.034.293-.072.437-.112.144-.04.286-.084.427-.13.141-.046.279-.095.416-.147.137-.052.272-.107.406-.164.133-.057.265-.117.395-.18.13-.063.258-.128.384-.195.126-.068.25-.138.373-.21.122-.072.243-.147.361-.224.118-.077.235-.156.35-.237s.227-.164.338-.249c.11-.085.219-.172.325-.261.106-.089.211-.18.313-.272s.202-.187.3-.282c.098-.096.194-.193.287-.292.094-.099.185-.199.274-.301.089-.102.176-.205.261-.309.085-.104.167-.21.248-.317.08-.107.158-.214.234-.323.076-.109.149-.219.22-.329s.139-.222.206-.335c.066-.112.13-.226.191-.339.061-.114.12-.228.176-.343.056-.115.11-.231.161-.347.051-.116.1-.232.146-.349s.09-.234.131-.351.08-.235.115-.352.069-.235.1-.353c.002-.008.004-.016.007-.023.002-.008.005-.015.007-.023.003-.007.005-.015.008-.022.003-.007.006-.015.009-.022.003-.007.007-.014.01-.021.003-.007.007-.014.011-.021.004-.007.008-.014.012-.02.004-.007.008-.013.012-.02.004-.006.009-.013.013-.019.005-.006.009-.012.014-.018.005-.006.01-.012.015-.018.005-.006.01-.012.015-.017.005-.006.011-.011.016-.016.005-.005.011-.011.017-.016.006-.005.011-.01.017-.015.006-.005.012-.01.018-.014.006-.005.012-.009.018-.014s.013-.009.019-.013c.006-.004.013-.008.019-.012.007-.004.013-.008.02-.011.007-.004.014-.007.02-.011s.014-.007.021-.01c.007-.003.014-.006.021-.009s.014-.005.022-.008c.007-.003.015-.005.022-.007.007-.002.015-.004.022-.006.008-.002.015-.004.023-.005s.015-.003.023-.004c.008-.001.016-.002.023-.003.008-.001.016-.002.024-.002s.016-.001.024-.002c.008,0,.016,0,.024,0s.016,0,.024,0c.008,0,.016,0,.024.002s.016.001.024.002c.008,0,.016.002.023.003.008.001.015.003.023.004s.015.003.023.005c.008.002.015.004.022.006.007.002.015.005.022.007.007.003.015.005.022.008s.014.006.021.009c.007.003.014.006.021.01.007.003.014.007.02.011.007.004.013.007.02.011.007.004.013.008.019.012.006.004.013.008.019.013.006.004.012.009.018.014.006.005.012.009.018.014s.012.01.017.015c.006.005.011.01.017.016s.011.011.016.016c.005.006.01.011.015.017.005.006.01.012.015.018s.009.012.014.018c.005.006.009.013.013.019.004.006.008.013.012.02.004.007.008.013.012.02.004.007.007.014.011.021.004.007.007.014.01.021.003.007.006.014.009.022.003.007.006.015.008.022.003.008.005.015.007.023.002.008.005.015.007.023.031.118.064.235.1.353s.074.235.115.352c.041.117.085.234.131.351.046.117.095.233.146.349.051.116.105.232.161.347.056.115.115.23.176.343.061.114.125.227.191.339.066.112.135.224.206.335.071.111.144.221.22.329.076.109.154.217.234.323.08.107.163.212.248.316.085.104.172.207.261.309.089.102.181.202.274.301.094.099.189.196.287.292s.198.19.3.282.207.183.313.272.215.176.325.261c.111.085.223.168.338.249.115.081.231.16.35.237.118.077.239.151.361.224s.247.142.373.21c.126.068.254.133.384.195.13.063.262.123.395.18.133.057.269.112.406.164.137.052.276.101.416.147.141.046.283.09.427.13.144.04.29.078.437.112s.296.065.447.093.303.052.457.074c.154.021.309.039.466.054.157.014.315.025.475.033s.321.011.484.011h38.788c.372,0,.734.01,1.088.029.354.019.699.048,1.035.086s.664.084.983.138c.319.054.629.117.932.187.302.07.596.148.882.232s.564.176.833.273.532.201.786.311c.254.11.501.225.74.345s.471.245.696.375c.225.13.442.264.652.401s.414.279.61.424c.196.145.386.293.569.443s.359.303.529.458c.17.155.333.312.491.47.157.158.308.318.453.478.145.16.284.321.417.482.133.161.261.322.383.482.122.16.238.32.349.478.111.159.216.316.317.471s.195.309.286.46c.09.151.175.3.256.446.08.146.156.288.227.427s.138.274.2.405c.062.131.12.258.174.38.054.122.103.239.149.35.046.111.087.217.125.317.038.1.072.193.103.28.031.087.058.167.082.239s.045.138.062.195.032.106.043.146c.012.04.02.072.026.094s.009.036.01.039c0,.001,0,.003,0,.004,0,.001,0,.003,0,.004,0,.001,0,.003,0,.004,0,.001,0,.003,0,.004,0,.001,0,.003,0,.004,0,.001,0,.003,0,.004,0,.001,0,.003,0,.004,0,.001,0,.003,0,.004,0,.001,0,.003,0,.004,0,.001,0,.003,0,.004,0,.001,0,.003,0,.004,0,.001,0,.003,0,.004,0,.001,0,.003,0,.004,0,.001,0,.003,0,.004,0,.001,0,.003,0,.004,0,.001,0,.003,0,.004,0,.001,0,.003,0,.004,0,.001,0,.003,0,.004,0,.001,0,.003,0,.004,0,.001,0,.003,0,.004,0,.001,0,.003,0,.004,0,.001,0,.003,0,.004,0,.001,0,.003,0,.004,0,.001,0,.003,0,.004,0,.001,0,.003,0,.004s0,.003,0,.004v.004s0,.003,0,.004c0,.001,0,.003,0,.004s0,.003,0,.004,0,.003,0,.004v.004Z"/>
</svg>