<?xml version="1.0" encoding="utf-8"?>
<!-- Generator: Adobe Illustrator 28.0.0, SVG Export Plug-In . SVG Version: 6.00 Build 0)  -->
<svg version="1.1" id="레이어_1" xmlns="http://www.w3.org/2000/svg" xmlns:xlink="http://www.w3.org/1999/xlink" x="0px"
	 y="0px" viewBox="0 0 452.023 467.358" enable-background="new 0 0 452.023 467.358" xml:space="preserve">
<rect x="347.996" y="322.577" fill="#EAEBEB" width="103.905" height="50.895"/>
<rect x="347.996" y="322.577" fill="none" stroke="#000000" stroke-width="0.2427" stroke-linejoin="round" stroke-miterlimit="10" width="103.905" height="50.895"/>
<rect x="348.461" y="268.06" fill="#EAEBEB" width="103.44" height="50.895"/>
<rect x="348.461" y="268.06" fill="none" stroke="#000000" stroke-width="0.2427" stroke-linejoin="round" stroke-miterlimit="10" width="103.44" height="50.895"/>
<rect x="349.018" y="173.515" fill="#EAEBEB" width="102.883" height="90.088"/>
<rect x="349.018" y="173.515" fill="none" stroke="#000000" stroke-width="0.2427" stroke-linejoin="round" stroke-miterlimit="10" width="102.883" height="90.088"/>
<rect x="349.482" y="115.47" fill="#EAEBEB" width="102.42" height="52.565"/>
<rect x="349.482" y="115.47" fill="none" stroke="#000000" stroke-width="0.2427" stroke-linejoin="round" stroke-miterlimit="10" width="102.42" height="52.565"/>
<rect x="349.946" y="47.115" fill="#EAEBEB" width="101.955" height="63.804"/>
<rect x="349.946" y="47.115" fill="none" stroke="#000000" stroke-width="0.2427" stroke-linejoin="round" stroke-miterlimit="10" width="101.955" height="63.804"/>
<rect x="350.505" y="24.825" fill="#EAEBEB" width="101.397" height="18.946"/>
<rect x="350.505" y="24.825" fill="none" stroke="#000000" stroke-width="0.2427" stroke-linejoin="round" stroke-miterlimit="10" width="101.397" height="18.946"/>
<rect y="153.825" fill="#00A1E9" width="107.361" height="54.238"/>
<rect x="349.946" y="0.121" fill="#EAEBEB" width="101.955" height="20.433"/>
<rect x="349.946" y="0.121" fill="none" stroke="#000000" stroke-width="0.2427" stroke-linejoin="round" stroke-miterlimit="10" width="101.955" height="20.433"/>
<path fill="none" stroke="#000000" stroke-width="1.4853" stroke-linejoin="round" stroke-miterlimit="10" d="M239.222,358.889
	c-6.898,0-12.492-0.931-12.492-2.081v-70.414c0-1.149-5.594-2.082-12.492-2.082c6.898,0,12.492-0.932,12.492-2.082v-70.411
	c0-1.149,5.594-2.082,12.492-2.082"/>
<path fill="none" stroke="#000000" stroke-width="1.4853" stroke-linejoin="round" stroke-miterlimit="10" d="M239.222,152.248
	c-6.898,0-12.492-0.931-12.492-2.081V79.753c0-1.15-5.594-2.081-12.492-2.081c6.898,0,12.492-0.932,12.492-2.082V5.176
	c0-1.15,5.594-2.081,12.492-2.081"/>
<path fill="none" stroke="#000000" stroke-width="1.4853" stroke-linejoin="round" stroke-miterlimit="10" d="M346.583,111.941
	c-5.487,0-9.938-0.742-9.938-1.656V81.649c0-0.914-4.448-1.656-9.938-1.656c5.49,0,9.938-0.742,9.938-1.656V49.7
	c0-0.914,4.45-1.655,9.938-1.655"/>
<path fill="none" stroke="#000000" stroke-width="1.4853" stroke-linejoin="round" stroke-miterlimit="10" d="M346.583,263.419
	c-5.487,0-9.938-0.742-9.938-1.658v-38.528c0-0.914-4.448-1.655-9.938-1.655c5.49,0,9.938-0.742,9.938-1.656v-38.528
	c0-0.914,4.45-1.656,9.938-1.656"/>
<path fill="none" stroke="#000000" stroke-width="1.4853" stroke-linejoin="round" stroke-miterlimit="10" d="M346.583,311.806
	c-5.487,0-9.938-0.742-9.938-1.656v-13.779c0-0.914-4.448-1.655-9.938-1.655c5.49,0,9.938-0.742,9.938-1.656v-13.776
	c0-0.914,4.45-1.656,9.938-1.656"/>
<path fill="none" stroke="#000000" stroke-width="1.4853" stroke-linejoin="round" stroke-miterlimit="10" d="M346.583,367.62
	c-5.308,0-9.612-0.714-9.612-1.601v-17.647c0-0.884-4.306-1.6-9.612-1.6c5.307,0,9.612-0.719,9.612-1.604v-17.645
	c0-0.884,4.304-1.601,9.612-1.601"/>
<path fill="none" stroke="#000000" stroke-width="1.4853" stroke-linejoin="round" stroke-miterlimit="10" d="M346.583,164.786
	c-5.308,0-9.612-0.716-9.612-1.6v-17.601c0-0.885-4.306-1.601-9.612-1.601c5.307,0,9.612-0.717,9.612-1.602v-17.599
	c0-0.885,4.304-1.603,9.612-1.603"/>
<line fill="none" stroke="#000000" stroke-width="1.4853" stroke-linejoin="round" stroke-miterlimit="10" x1="326.708" y1="33.371" x2="346.583" y2="33.464"/>
<line fill="none" stroke="#000000" stroke-width="1.4853" stroke-linejoin="round" stroke-miterlimit="10" x1="326.708" y1="9.596" x2="346.583" y2="9.688"/>
<path fill="none" stroke="#000000" stroke-width="1.4853" stroke-linejoin="round" stroke-miterlimit="10" d="M139.589,288.214
	c-6.9,0-12.492-0.931-12.492-2.081V182.284c0-1.149-5.592-2.081-12.49-2.081c6.898,0,12.49-0.932,12.49-2.081V74.274
	c0-1.149,5.592-2.081,12.492-2.081"/>
<g>
	<path d="M159.726,74.837v-8.064h2.568c0.888,0,1.558,0.208,2.01,0.624c0.452,0.416,0.678,1.008,0.678,1.776
		c0,0.792-0.236,1.404-0.708,1.836c-0.472,0.432-1.096,0.648-1.872,0.648h-1.62v3.18H159.726z M160.783,70.781h1.392
		c0.592,0,1.02-0.124,1.284-0.372c0.264-0.248,0.396-0.632,0.396-1.152c0-0.568-0.126-0.972-0.378-1.212
		c-0.252-0.24-0.678-0.36-1.278-0.36h-1.416V70.781z"/>
	<path d="M165.498,74.837l2.94-8.064h1.02l2.916,8.064h-1.104l-0.816-2.268h-3.144l-0.804,2.268H165.498z M168.846,68.189
		l-1.224,3.48h2.508l-1.248-3.48H168.846z"/>
	<path d="M173.514,74.837v-8.064h1.548l2.22,6.672h0.036l2.196-6.672h1.548v8.064h-1.068v-6.66h-0.036l-2.232,6.66h-0.984
		l-2.232-6.66h-0.024v6.66H173.514z"/>
	<path d="M183.018,74.837v-8.064h2.568c0.888,0,1.558,0.208,2.01,0.624c0.452,0.416,0.678,1.008,0.678,1.776
		c0,0.792-0.236,1.404-0.708,1.836c-0.472,0.432-1.096,0.648-1.872,0.648h-1.62v3.18H183.018z M184.074,70.781h1.392
		c0.592,0,1.02-0.124,1.284-0.372c0.264-0.248,0.396-0.632,0.396-1.152c0-0.568-0.126-0.972-0.378-1.212
		c-0.252-0.24-0.678-0.36-1.278-0.36h-1.416V70.781z"/>
	<path d="M151.872,90.461c-0.624-0.616-1.132-1.34-1.524-2.172s-0.588-1.74-0.588-2.724v-0.204c0-1.88,0.704-3.508,2.112-4.884h0.9
		c-0.576,0.64-1.046,1.376-1.41,2.208c-0.364,0.833-0.546,1.692-0.546,2.58v0.312c0,0.864,0.184,1.736,0.552,2.616
		s0.836,1.636,1.404,2.268H151.872z"/>
	<path d="M160.452,88.097c-1.008,0.12-2.168,0.212-3.48,0.276c-1.232,0.064-2.372,0.096-3.42,0.096l-0.156-0.912
		c1.232,0,2.188-0.008,2.868-0.024v-1.68c-0.688-0.088-1.25-0.355-1.686-0.804s-0.654-0.996-0.654-1.644
		c0-0.744,0.272-1.36,0.816-1.848c0.544-0.488,1.224-0.732,2.04-0.732c0.824,0,1.51,0.238,2.058,0.714
		c0.548,0.476,0.822,1.098,0.822,1.866c0,0.648-0.216,1.192-0.648,1.632s-0.992,0.712-1.68,0.816v1.632
		c1.4-0.056,2.408-0.132,3.024-0.228L160.452,88.097z M158.556,83.393c0-0.496-0.17-0.892-0.51-1.188
		c-0.34-0.296-0.762-0.444-1.266-0.444c-0.496,0-0.916,0.154-1.26,0.462c-0.344,0.308-0.516,0.698-0.516,1.17
		c0,0.464,0.17,0.842,0.51,1.134s0.762,0.438,1.266,0.438c0.488,0,0.906-0.146,1.254-0.438S158.556,83.857,158.556,83.393z
		 M162.06,90.581h-1.056V80.093h1.056V90.581z"/>
	<path d="M169.009,90.593h-1.068v-3.408h-4.176v-0.876h9.468v0.876h-4.224V90.593z M172.068,85.121h-7.164v-4.632h1.068v1.488h5.04
		v-1.488h1.056V85.121z M171.013,84.269v-1.428h-5.04v1.428H171.013z"/>
	<path d="M182.88,90.509h-7.62v-2.484h6.168v-0.768h-6.24v-0.864h3.132v-0.948h-4.176v-0.84h9.468v0.84h-4.224v0.948h3.096v2.424
		h-6.168v0.816h6.564V90.509z M182.424,83.765h-7.056v-3.264h7.056V83.765z M181.344,82.913v-1.56h-4.92v1.56H181.344z"/>
	<path d="M184.908,81.545v-0.852h5.76v0.852h-2.352v0.012c0,0.696,0.262,1.316,0.786,1.86c0.524,0.544,1.118,0.92,1.782,1.128
		l-0.588,0.84c-0.496-0.2-0.984-0.506-1.464-0.918s-0.828-0.846-1.044-1.302c-0.16,0.488-0.504,0.976-1.032,1.464
		c-0.528,0.488-1.072,0.844-1.632,1.068l-0.624-0.816c0.728-0.272,1.366-0.716,1.914-1.332c0.548-0.616,0.822-1.272,0.822-1.968
		v-0.036H184.908z M193.488,90.509h-7.236v-2.676h5.808v-0.936h-5.832v-0.852h6.9v2.592h-5.808v0.996h6.168V90.509z M193.128,85.481
		h-1.068v-5.388h1.068V85.481z"/>
	<path d="M194.58,90.461c0.584-0.64,1.058-1.376,1.422-2.208c0.364-0.832,0.546-1.692,0.546-2.58v-0.324
		c0-0.864-0.184-1.734-0.552-2.61c-0.368-0.876-0.84-1.63-1.416-2.262h0.912c0.632,0.616,1.144,1.338,1.536,2.166
		c0.392,0.828,0.588,1.734,0.588,2.718v0.204c0,0.984-0.196,1.892-0.588,2.724c-0.392,0.832-0.904,1.556-1.536,2.172H194.58z"/>
</g>
<g>
	<path d="M161.543,287.54v-8.064h2.436c1.232,0,2.17,0.318,2.814,0.954c0.644,0.636,0.966,1.586,0.966,2.85v0.24
		c0,1.288-0.311,2.28-0.93,2.976c-0.62,0.696-1.562,1.044-2.826,1.044H161.543z M162.599,286.628h1.428
		c0.896,0,1.552-0.234,1.968-0.702c0.416-0.468,0.624-1.218,0.624-2.25v-0.396c0-1.048-0.228-1.79-0.684-2.226
		c-0.456-0.436-1.144-0.654-2.064-0.654h-1.272V286.628z"/>
	<path d="M168.443,287.54l2.94-8.064h1.02l2.916,8.064h-1.104l-0.816-2.268h-3.144l-0.804,2.268H168.443z M171.791,280.893
		l-1.224,3.48h2.508l-1.248-3.48H171.791z"/>
	<path d="M176.459,287.54v-8.064h1.548l2.22,6.672h0.036l2.196-6.672h1.548v8.064h-1.068v-6.66h-0.036l-2.232,6.66h-0.984
		l-2.232-6.66h-0.024v6.66H176.459z"/>
	<path d="M185.963,287.54v-8.064h2.568c0.888,0,1.558,0.208,2.01,0.624c0.452,0.416,0.678,1.008,0.678,1.776
		c0,0.792-0.236,1.404-0.708,1.836c-0.472,0.432-1.096,0.648-1.872,0.648h-1.62v3.18H185.963z M187.019,283.484h1.392
		c0.592,0,1.02-0.124,1.284-0.372c0.264-0.248,0.396-0.632,0.396-1.152c0-0.568-0.126-0.972-0.378-1.212
		c-0.252-0.24-0.678-0.36-1.278-0.36h-1.416V283.484z"/>
	<path d="M142.295,303.165c-0.624-0.616-1.132-1.34-1.524-2.172s-0.588-1.74-0.588-2.724v-0.204c0-1.88,0.704-3.508,2.112-4.884h0.9
		c-0.576,0.64-1.046,1.376-1.41,2.208c-0.364,0.833-0.546,1.692-0.546,2.58v0.312c0,0.864,0.184,1.736,0.552,2.616
		s0.836,1.636,1.404,2.268H142.295z"/>
	<path d="M144.839,294.254c0.528-0.5,1.196-0.75,2.004-0.75c0.808,0,1.478,0.248,2.01,0.744s0.798,1.12,0.798,1.872
		c0,0.752-0.264,1.366-0.792,1.842c-0.528,0.476-1.2,0.714-2.016,0.714c-0.808,0-1.476-0.238-2.004-0.714
		c-0.528-0.476-0.792-1.086-0.792-1.83C144.047,295.38,144.311,294.754,144.839,294.254z M146.843,294.416
		c-0.488,0-0.89,0.16-1.206,0.48c-0.316,0.32-0.474,0.724-0.474,1.212c0,0.48,0.158,0.88,0.474,1.2
		c0.316,0.32,0.718,0.48,1.206,0.48c0.512,0,0.92-0.156,1.224-0.468c0.304-0.312,0.456-0.712,0.456-1.2
		c0-0.504-0.152-0.914-0.456-1.23C147.763,294.574,147.355,294.416,146.843,294.416z M152.651,302.96h-7.14v-3.264h1.068v2.412
		h6.072V302.96z M152.411,300.416h-1.068v-7.62h1.068V300.416z"/>
	<path d="M159.407,300.296l-0.624,0.768c-0.416-0.256-0.822-0.62-1.218-1.092c-0.396-0.472-0.662-0.948-0.798-1.428
		c-0.128,0.512-0.39,1.03-0.786,1.554c-0.396,0.524-0.83,0.93-1.302,1.218l-0.672-0.708c1.488-0.928,2.232-2.308,2.232-4.14v-0.18
		h-1.98v-0.864h4.944v0.864h-1.92v0.144c0,0.944,0.198,1.738,0.594,2.382S158.783,299.953,159.407,300.296z M155.387,294.5v-0.876
		h2.76v0.876H155.387z M159.995,298.208h-1.5v-0.864h1.5v-4.308h0.996v9.732h-0.996V298.208z M163.043,303.284h-1.02v-10.488h1.02
		V303.284z"/>
	<path d="M167.999,303.284h-1.056v-3.648h-2.376v-0.876h9.468v0.876h-2.412v3.648h-1.056v-3.648h-2.568V303.284z M173.014,295.568
		c0,0.688-0.336,1.244-1.008,1.668c-0.672,0.424-1.576,0.636-2.712,0.636c-1.136,0-2.038-0.212-2.706-0.636
		c-0.668-0.424-1.002-0.98-1.002-1.668c0-0.68,0.334-1.23,1.002-1.65s1.57-0.63,2.706-0.63c1.136,0,2.04,0.21,2.712,0.63
		S173.014,294.889,173.014,295.568z M171.197,294.572c-0.476-0.256-1.11-0.384-1.902-0.384s-1.426,0.128-1.902,0.384
		c-0.476,0.256-0.714,0.588-0.714,0.996c0,0.416,0.236,0.752,0.708,1.008c0.472,0.256,1.108,0.384,1.908,0.384
		c0.8,0,1.436-0.128,1.908-0.384c0.472-0.256,0.708-0.592,0.708-1.008C171.91,295.16,171.673,294.829,171.197,294.572z"/>
	<path d="M180.035,300.428c-1.144,0.224-2.488,0.336-4.032,0.336h-0.768v-4.02h3.084v-2.004h-3.108v-0.864h4.164v3.744h-3.084v2.268
		c1.424,0,2.628-0.104,3.612-0.312L180.035,300.428z M183.803,303.284h-1.02v-5.46h-1.224v4.944h-1.008v-9.744h1.008v3.936h1.224
		v-4.164h1.02V303.284z"/>
	<path d="M197.218,303.212h-7.62v-2.484h6.168v-0.768h-6.24v-0.864h3.132v-0.948h-4.176v-0.84h9.468v0.84h-4.224v0.948h3.096v2.424
		h-6.168v0.816h6.564V303.212z M196.762,296.468h-7.056v-3.264h7.056V296.468z M195.682,295.616v-1.56h-4.92v1.56H195.682z"/>
	<path d="M199.246,294.249v-0.852h5.76v0.852h-2.352v0.012c0,0.696,0.262,1.316,0.786,1.86c0.524,0.544,1.118,0.92,1.782,1.128
		l-0.588,0.84c-0.496-0.2-0.984-0.506-1.464-0.918s-0.828-0.846-1.044-1.302c-0.16,0.488-0.504,0.976-1.032,1.464
		c-0.528,0.488-1.072,0.844-1.632,1.068l-0.624-0.816c0.728-0.272,1.366-0.716,1.914-1.332c0.548-0.616,0.822-1.272,0.822-1.968
		v-0.036H199.246z M207.826,303.212h-7.236v-2.676h5.808V299.6h-5.832v-0.852h6.9v2.592h-5.808v0.996h6.168V303.212z
		 M207.466,298.185h-1.068v-5.388h1.068V298.185z"/>
	<path d="M208.918,303.165c0.584-0.64,1.058-1.376,1.422-2.208c0.364-0.832,0.546-1.692,0.546-2.58v-0.324
		c0-0.864-0.184-1.734-0.552-2.61c-0.368-0.876-0.84-1.63-1.416-2.262h0.912c0.632,0.616,1.144,1.338,1.536,2.166
		c0.392,0.828,0.588,1.734,0.588,2.718v0.204c0,0.984-0.196,1.892-0.588,2.724c-0.392,0.832-0.904,1.556-1.536,2.172H208.918z"/>
</g>
<g>
	<path d="M256.675,9.214l-0.624,0.816c-0.496-0.224-0.988-0.564-1.477-1.02s-0.836-0.932-1.044-1.428
		c-0.152,0.528-0.474,1.046-0.966,1.554c-0.492,0.508-1.046,0.914-1.662,1.218l-0.648-0.816c0.784-0.336,1.435-0.832,1.95-1.488
		c0.517-0.656,0.774-1.392,0.774-2.208v-1.02h1.092v0.972c0,0.808,0.264,1.52,0.792,2.136S255.994,8.974,256.675,9.214z
		 M258.93,14.89h-1.068v-2.844h-5.964v-0.864h7.032V14.89z M258.93,10.618h-1.068V4.402h1.068V10.618z"/>
	<path d="M269.442,14.806h-7.62v-2.484h6.168v-0.768h-6.24V10.69h3.132V9.742h-4.176v-0.84h9.468v0.84h-4.224v0.948h3.096v2.424
		h-6.168v0.816h6.564V14.806z M268.986,8.062h-7.056V4.798h7.056V8.062z M267.906,7.21V5.65h-4.92v1.56H267.906z"/>
	<path d="M274.518,14.878h-1.057V11.23h-2.376v-0.876h9.468v0.876h-2.411v3.648h-1.057V11.23h-2.567V14.878z M279.534,7.162
		c0,0.688-0.336,1.244-1.008,1.668c-0.672,0.424-1.576,0.636-2.712,0.636c-1.137,0-2.038-0.212-2.706-0.636
		c-0.668-0.424-1.002-0.98-1.002-1.668c0-0.68,0.334-1.23,1.002-1.65s1.569-0.63,2.706-0.63c1.136,0,2.04,0.21,2.712,0.63
		S279.534,6.482,279.534,7.162z M277.716,6.166c-0.476-0.256-1.109-0.384-1.901-0.384s-1.427,0.128-1.902,0.384
		c-0.476,0.256-0.714,0.588-0.714,0.996c0,0.416,0.235,0.752,0.708,1.008c0.472,0.256,1.107,0.384,1.908,0.384
		c0.8,0,1.436-0.128,1.907-0.384c0.473-0.256,0.708-0.592,0.708-1.008C278.43,6.754,278.192,6.422,277.716,6.166z"/>
	<path d="M286.554,12.022c-1.144,0.224-2.488,0.336-4.031,0.336h-0.769v-4.02h3.084V6.334h-3.107V5.47h4.163v3.744h-3.084v2.268
		c1.424,0,2.629-0.104,3.612-0.312L286.554,12.022z M290.322,14.878h-1.021v-5.46h-1.224v4.944h-1.008V4.618h1.008v3.936h1.224V4.39
		h1.021V14.878z"/>
	<path d="M303.737,14.806h-7.62v-2.484h6.169v-0.768h-6.24V10.69h3.132V9.742h-4.176v-0.84h9.468v0.84h-4.224v0.948h3.096v2.424
		h-6.168v0.816h6.563V14.806z M303.281,8.062h-7.056V4.798h7.056V8.062z M302.201,7.21V5.65h-4.92v1.56H302.201z"/>
	<path d="M305.765,5.842V4.99h5.76v0.852h-2.352v0.012c0,0.696,0.262,1.316,0.786,1.86c0.523,0.544,1.117,0.92,1.781,1.128
		l-0.588,0.84c-0.496-0.2-0.983-0.506-1.464-0.918c-0.479-0.412-0.828-0.846-1.044-1.302c-0.16,0.488-0.504,0.976-1.032,1.464
		c-0.527,0.488-1.072,0.844-1.632,1.068l-0.624-0.816c0.728-0.272,1.366-0.716,1.914-1.332s0.822-1.272,0.822-1.968V5.842H305.765z
		 M314.346,14.806h-7.236V12.13h5.809v-0.936h-5.832v-0.852h6.899v2.592h-5.808v0.996h6.168V14.806z M313.985,9.778h-1.067V4.39
		h1.067V9.778z"/>
</g>
<g>
	<path d="M366.471,9.442h0.372c1.863,0,3.26-0.096,4.188-0.288l0.108,0.828c-1.04,0.208-2.62,0.32-4.74,0.336h-0.972V5.074h4.824
		v0.864h-3.78v1.224h3.66v0.864h-3.66V9.442z M366.339,11.254h6.828v3.624h-1.057v-2.772h-5.771V11.254z M374.726,8.002h-1.56v2.7
		h-1.068V4.39h1.068v2.736h1.56V8.002z"/>
	<path d="M384.914,9.862h-9.468V8.998h4.176v-1.32h1.068v1.32h4.224V9.862z M384.471,7.45l-0.492,0.828
		c-0.816-0.144-1.592-0.434-2.328-0.87s-1.229-0.91-1.476-1.422c-0.217,0.52-0.683,0.994-1.398,1.422
		c-0.716,0.428-1.506,0.718-2.37,0.87l-0.468-0.828c0.952-0.104,1.806-0.406,2.562-0.906c0.757-0.5,1.135-1.098,1.135-1.794V4.486
		h1.104V4.75c0,0.464,0.208,0.904,0.624,1.32s0.904,0.74,1.464,0.972C383.387,7.274,383.934,7.41,384.471,7.45z M384.062,14.806
		h-7.464v-2.52h6v-0.768h-6v-0.864h7.067v2.436h-6v0.84h6.396V14.806z"/>
</g>
<g>
	<path d="M250.711,28.26v-0.864h5.748v0.864h-2.316v0.432c0,0.704,0.263,1.354,0.786,1.95c0.524,0.596,1.11,0.994,1.758,1.194
		l-0.588,0.852c-0.472-0.192-0.95-0.512-1.434-0.96c-0.484-0.448-0.834-0.908-1.05-1.38c-0.168,0.496-0.509,1-1.021,1.512
		c-0.512,0.512-1.04,0.88-1.584,1.104l-0.636-0.84c0.712-0.256,1.338-0.712,1.878-1.368c0.54-0.656,0.81-1.336,0.81-2.04V28.26
		H250.711z M259.159,36.612h-7.068V33.36h1.068v2.4h6V36.612z M258.93,34.057h-1.067v-7.62h1.067V34.057z"/>
	<path d="M268.927,27.013c0,1.632-0.104,2.916-0.312,3.852h1.561v0.864h-2.532v2.676h-1.067v-2.676h-1.824v2.616h-1.057v-2.616
		h-2.987v-0.864h6.852c0.208-0.904,0.304-1.9,0.288-2.988h-5.904v-0.864H268.927z M269.07,36.601h-7.128v-3.168h1.057v2.316h6.071
		V36.601z"/>
	<path d="M277.675,36.924h-1.057v-3.648h-2.376V32.4h9.468v0.876h-2.411v3.648h-1.057v-3.648h-2.567V36.924z M282.69,29.208
		c0,0.688-0.336,1.244-1.008,1.668c-0.672,0.424-1.576,0.636-2.712,0.636c-1.137,0-2.038-0.212-2.706-0.636
		c-0.668-0.424-1.002-0.98-1.002-1.668c0-0.68,0.334-1.23,1.002-1.65s1.569-0.63,2.706-0.63c1.136,0,2.04,0.21,2.712,0.63
		S282.69,28.529,282.69,29.208z M280.872,28.212c-0.476-0.256-1.109-0.384-1.901-0.384s-1.427,0.128-1.902,0.384
		c-0.476,0.256-0.714,0.588-0.714,0.996c0,0.416,0.235,0.752,0.708,1.008c0.472,0.256,1.107,0.384,1.908,0.384
		c0.8,0,1.436-0.128,1.907-0.384c0.473-0.256,0.708-0.592,0.708-1.008C281.586,28.8,281.348,28.469,280.872,28.212z"/>
	<path d="M289.71,34.068c-1.144,0.224-2.488,0.336-4.031,0.336h-0.769v-4.02h3.084V28.38h-3.107v-0.864h4.163v3.744h-3.084v2.268
		c1.424,0,2.629-0.104,3.612-0.312L289.71,34.068z M293.478,36.924h-1.021v-5.46h-1.224v4.944h-1.008v-9.744h1.008v3.936h1.224
		v-4.164h1.021V36.924z"/>
</g>
<g>
	<path d="M255.606,82.214h-4.932V77.27h1.056v1.668h2.809v-1.68h1.067V82.214z M258.427,87.11h-1.068v-2.844h-5.735V83.39h6.804
		V87.11z M254.539,81.362v-1.584h-2.809v1.584H254.539z M259.987,80.174h-1.561v2.712h-1.068V76.61h1.068v2.688h1.561V80.174z"/>
	<path d="M264.535,81.482h-2.425v2.172c1.416,0.024,2.54-0.064,3.372-0.264l0.12,0.852c-0.976,0.208-2.492,0.308-4.548,0.3V77.87
		h3.984v0.864h-2.929v1.908h2.425V81.482z M266.514,81.494h-1.32V80.63h1.32v-3.792h1.008v9.744h-1.008V81.494z M269.562,87.098
		h-1.02V76.61h1.02V87.098z"/>
	<path d="M277.759,83.402l0.107,0.876c-1.271,0.208-2.916,0.324-4.932,0.348h-1.308v-4.128h3.924v-2.076h-3.972v-0.864h5.027v3.792
		h-3.924v2.376h0.312C275.026,83.726,276.614,83.618,277.759,83.402z M278.671,76.61h1.067v10.488h-1.067V76.61z"/>
	<path d="M282.295,83.744c-0.448-0.684-0.673-1.578-0.673-2.682s0.225-1.998,0.673-2.682c0.447-0.684,1.111-1.026,1.991-1.026
		s1.542,0.342,1.986,1.026s0.666,1.582,0.666,2.694c0,1.096-0.222,1.986-0.666,2.67s-1.106,1.026-1.986,1.026
		S282.742,84.428,282.295,83.744z M285.894,81.074c0-0.84-0.14-1.518-0.42-2.034c-0.28-0.516-0.676-0.774-1.188-0.774
		c-0.512,0-0.905,0.256-1.182,0.768c-0.276,0.512-0.414,1.192-0.414,2.04c0,0.832,0.138,1.504,0.414,2.016
		c0.276,0.512,0.67,0.768,1.182,0.768c0.513,0,0.908-0.256,1.188-0.768C285.755,82.579,285.894,81.906,285.894,81.074z
		 M291.246,81.65h-1.68v5.448h-1.068V76.61h1.068v4.164h1.68V81.65z"/>
	<path d="M298.434,87.098h-1.057V83.45h-2.376v-0.876h9.468v0.876h-2.411v3.648h-1.057V83.45h-2.567V87.098z M303.45,79.382
		c0,0.688-0.336,1.244-1.008,1.668c-0.672,0.424-1.576,0.636-2.712,0.636c-1.137,0-2.038-0.212-2.706-0.636
		c-0.668-0.424-1.002-0.98-1.002-1.668c0-0.68,0.334-1.23,1.002-1.65s1.569-0.63,2.706-0.63c1.136,0,2.04,0.21,2.712,0.63
		S303.45,78.703,303.45,79.382z M301.632,78.386c-0.476-0.256-1.109-0.384-1.901-0.384s-1.427,0.128-1.902,0.384
		c-0.476,0.256-0.714,0.588-0.714,0.996c0,0.416,0.235,0.752,0.708,1.008c0.472,0.256,1.107,0.384,1.908,0.384
		c0.8,0,1.436-0.128,1.907-0.384c0.473-0.256,0.708-0.592,0.708-1.008C302.346,78.974,302.108,78.643,301.632,78.386z"/>
	<path d="M310.47,84.242c-1.144,0.224-2.488,0.336-4.031,0.336h-0.769v-4.02h3.084v-2.004h-3.107V77.69h4.163v3.744h-3.084v2.268
		c1.424,0,2.629-0.104,3.612-0.312L310.47,84.242z M314.238,87.098h-1.021v-5.46h-1.224v4.944h-1.008v-9.744h1.008v3.936h1.224
		V76.61h1.021V87.098z"/>
</g>
<g>
	<path d="M255.583,148.974h-4.92v-6.996h1.044v2.616h2.808v-2.628h1.068V148.974z M254.514,148.122v-2.676h-2.808v2.676H254.514z
		 M260.095,146.082h-1.668v5.496h-1.056V141.09h1.056v4.104h1.668V146.082z"/>
	<path d="M261.079,145.578c0-1.096,0.228-1.986,0.684-2.67s1.128-1.026,2.016-1.026c0.889,0,1.559,0.342,2.011,1.026
		c0.451,0.684,0.678,1.578,0.678,2.682s-0.227,1.998-0.678,2.682c-0.452,0.684-1.122,1.026-2.011,1.026
		c-0.888,0-1.56-0.344-2.016-1.032C261.306,147.578,261.079,146.682,261.079,145.578z M264.991,147.612
		c0.279-0.508,0.42-1.182,0.42-2.022s-0.141-1.516-0.42-2.028c-0.28-0.512-0.685-0.768-1.213-0.768c-0.52,0-0.92,0.256-1.199,0.768
		c-0.28,0.512-0.42,1.188-0.42,2.028s0.14,1.514,0.42,2.022c0.279,0.508,0.68,0.762,1.199,0.762
		C264.306,148.374,264.711,148.121,264.991,147.612z M269.358,151.578h-1.067V141.09h1.067V151.578z"/>
	<path d="M277.051,147.93l0.107,0.864c-1.159,0.216-2.704,0.324-4.632,0.324h-1.104v-4.176h3.779v-2.04h-3.779v-0.864h4.836v3.768
		h-3.78v2.436C274.43,148.242,275.954,148.138,277.051,147.93z M279.679,151.578h-1.056v-5.58h-1.765v-0.9h1.765v-4.008h1.056
		V151.578z"/>
	<path d="M290.934,150.162h-9.468v-0.864h9.468V150.162z M290.646,146.406l-0.576,0.84c-0.824-0.232-1.614-0.64-2.37-1.224
		s-1.258-1.168-1.506-1.752c-0.208,0.592-0.692,1.178-1.452,1.758s-1.567,0.982-2.424,1.206l-0.54-0.864
		c0.592-0.104,1.18-0.324,1.765-0.66c0.583-0.336,1.081-0.768,1.493-1.296c0.412-0.528,0.618-1.072,0.618-1.632v-0.816h1.092v0.816
		c0,0.552,0.217,1.096,0.648,1.632c0.432,0.536,0.942,0.974,1.53,1.314C289.513,146.068,290.087,146.294,290.646,146.406z"/>
	<path d="M298.434,151.578h-1.057v-3.648h-2.376v-0.876h9.468v0.876h-2.411v3.648h-1.057v-3.648h-2.567V151.578z M303.45,143.862
		c0,0.688-0.336,1.244-1.008,1.668c-0.672,0.424-1.576,0.636-2.712,0.636c-1.137,0-2.038-0.212-2.706-0.636
		c-0.668-0.424-1.002-0.98-1.002-1.668c0-0.68,0.334-1.23,1.002-1.65s1.569-0.63,2.706-0.63c1.136,0,2.04,0.21,2.712,0.63
		S303.45,143.183,303.45,143.862z M301.632,142.866c-0.476-0.256-1.109-0.384-1.901-0.384s-1.427,0.128-1.902,0.384
		c-0.476,0.256-0.714,0.588-0.714,0.996c0,0.416,0.235,0.752,0.708,1.008c0.472,0.256,1.107,0.384,1.908,0.384
		c0.8,0,1.436-0.128,1.907-0.384c0.473-0.256,0.708-0.592,0.708-1.008C302.346,143.454,302.108,143.123,301.632,142.866z"/>
	<path d="M310.47,148.722c-1.144,0.224-2.488,0.336-4.031,0.336h-0.769v-4.02h3.084v-2.004h-3.107v-0.864h4.163v3.744h-3.084v2.268
		c1.424,0,2.629-0.104,3.612-0.312L310.47,148.722z M314.238,151.578h-1.021v-5.46h-1.224v4.944h-1.008v-9.744h1.008v3.936h1.224
		v-4.164h1.021V151.578z"/>
</g>
<g>
	<path d="M255.547,224.462l-0.648,0.744c-0.407-0.28-0.808-0.688-1.199-1.224c-0.393-0.536-0.664-1.076-0.816-1.62
		c-0.128,0.576-0.39,1.152-0.786,1.728c-0.396,0.576-0.854,1.04-1.374,1.392l-0.66-0.744c0.656-0.424,1.204-1.048,1.645-1.872
		c0.439-0.824,0.66-1.74,0.66-2.748v-1.788h1.02v1.776c0,0.968,0.202,1.838,0.606,2.61
		C254.396,223.488,254.915,224.07,255.547,224.462z M257.106,227.306h-1.008v-5.376h-1.656v-0.876h1.656v-3.48h1.008V227.306z
		 M259.182,227.822h-1.02v-10.488h1.02V227.822z"/>
	<path d="M269.335,223.526h-3.384v2.1h4.224v0.864h-9.468v-0.864h4.176v-2.1h-3.396v-0.864h1.752l-0.275-2.736l1.08-0.156
		l0.204,2.892h2.376l0.407-2.868l1.032,0.18l-0.443,2.688h1.716V223.526z M269.346,219.254h-7.872v-0.852h7.872V219.254z"/>
	<path d="M274.518,227.822h-1.056v-3.648h-2.376v-0.876h9.468v0.876h-2.412v3.648h-1.056v-3.648h-2.568V227.822z M279.534,220.106
		c0,0.688-0.336,1.244-1.008,1.668c-0.672,0.424-1.576,0.636-2.712,0.636s-2.038-0.212-2.706-0.636
		c-0.668-0.424-1.002-0.98-1.002-1.668c0-0.68,0.334-1.23,1.002-1.65s1.57-0.63,2.706-0.63s2.04,0.21,2.712,0.63
		S279.534,219.426,279.534,220.106z M277.717,219.11c-0.477-0.256-1.11-0.384-1.902-0.384s-1.426,0.128-1.901,0.384
		c-0.477,0.256-0.715,0.588-0.715,0.996c0,0.416,0.236,0.752,0.708,1.008c0.473,0.256,1.108,0.384,1.908,0.384
		s1.437-0.128,1.908-0.384c0.472-0.256,0.708-0.592,0.708-1.008C278.43,219.698,278.192,219.366,277.717,219.11z"/>
	<path d="M286.555,224.966c-1.145,0.224-2.488,0.336-4.032,0.336h-0.768v-4.02h3.084v-2.004h-3.108v-0.864h4.164v3.744h-3.084v2.268
		c1.424,0,2.628-0.104,3.612-0.312L286.555,224.966z M290.322,227.822h-1.02v-5.46h-1.225v4.944h-1.008v-9.744h1.008v3.936h1.225
		v-4.164h1.02V227.822z"/>
</g>
<g>
	<path d="M255.547,292.298l-0.648,0.744c-0.407-0.28-0.808-0.688-1.199-1.224c-0.393-0.536-0.664-1.076-0.816-1.62
		c-0.128,0.576-0.39,1.152-0.786,1.728c-0.396,0.576-0.854,1.04-1.374,1.392l-0.66-0.744c0.656-0.424,1.204-1.048,1.645-1.872
		c0.439-0.824,0.66-1.74,0.66-2.748v-1.788h1.02v1.776c0,0.968,0.202,1.838,0.606,2.61
		C254.396,291.324,254.915,291.906,255.547,292.298z M257.106,295.142h-1.008v-5.376h-1.656v-0.876h1.656v-3.48h1.008V295.142z
		 M259.182,295.658h-1.02V285.17h1.02V295.658z"/>
	<path d="M269.335,291.362h-3.384v2.1h4.224v0.864h-9.468v-0.864h4.176v-2.1h-3.396v-0.864h1.752l-0.275-2.736l1.08-0.156
		l0.204,2.892h2.376l0.407-2.868l1.032,0.18l-0.443,2.688h1.716V291.362z M269.346,287.09h-7.872v-0.852h7.872V287.09z"/>
	<path d="M278.154,293.174c-1.008,0.12-2.168,0.212-3.479,0.276c-1.232,0.064-2.372,0.096-3.42,0.096l-0.156-0.912
		c1.231,0,2.188-0.008,2.868-0.024v-1.68c-0.688-0.088-1.25-0.355-1.687-0.804c-0.436-0.448-0.653-0.996-0.653-1.644
		c0-0.744,0.271-1.36,0.815-1.848c0.544-0.488,1.225-0.732,2.04-0.732c0.824,0,1.51,0.238,2.059,0.714
		c0.548,0.476,0.821,1.098,0.821,1.866c0,0.648-0.216,1.192-0.647,1.632c-0.433,0.44-0.992,0.712-1.681,0.816v1.632
		c1.4-0.056,2.408-0.132,3.024-0.228L278.154,293.174z M276.259,288.47c0-0.496-0.17-0.892-0.51-1.188
		c-0.341-0.296-0.763-0.444-1.267-0.444c-0.496,0-0.916,0.154-1.26,0.462c-0.344,0.308-0.516,0.698-0.516,1.17
		c0,0.464,0.17,0.842,0.51,1.134s0.762,0.438,1.266,0.438c0.488,0,0.906-0.146,1.254-0.438
		C276.085,289.312,276.259,288.934,276.259,288.47z M279.763,295.658h-1.056V285.17h1.056V295.658z"/>
	<path d="M286.998,286.286c-0.031,1.608-0.478,3.03-1.338,4.266c-0.859,1.236-2.038,2.262-3.533,3.078l-0.648-0.804
		c1.24-0.592,2.254-1.398,3.042-2.418s1.23-2.094,1.326-3.222h-3.9v-0.9H286.998z M290.07,295.658h-1.067V285.17h1.067V295.658z"/>
	<path d="M292.23,286.622v-0.852h5.76v0.852h-2.352v0.012c0,0.696,0.262,1.316,0.786,1.86c0.523,0.544,1.117,0.92,1.781,1.128
		l-0.588,0.84c-0.496-0.2-0.983-0.506-1.464-0.918c-0.479-0.412-0.828-0.846-1.044-1.302c-0.16,0.488-0.504,0.976-1.032,1.464
		c-0.527,0.488-1.072,0.844-1.632,1.068l-0.624-0.816c0.728-0.272,1.366-0.716,1.914-1.332s0.822-1.272,0.822-1.968v-0.036H292.23z
		 M300.81,295.586h-7.236v-2.676h5.809v-0.936h-5.832v-0.852h6.899v2.592h-5.808v0.996h6.168V295.586z M300.45,290.558h-1.067
		v-5.388h1.067V290.558z"/>
	<path d="M253.759,310.058h-1.056v-3.648h-2.376v-0.876h9.468v0.876h-2.412v3.648h-1.056v-3.648h-2.568V310.058z M258.774,302.342
		c0,0.688-0.336,1.244-1.008,1.668c-0.672,0.424-1.576,0.636-2.712,0.636c-1.136,0-2.038-0.212-2.706-0.636
		c-0.668-0.424-1.002-0.98-1.002-1.668c0-0.68,0.334-1.23,1.002-1.65s1.57-0.63,2.706-0.63c1.136,0,2.04,0.21,2.712,0.63
		S258.774,301.662,258.774,302.342z M256.957,301.346c-0.477-0.256-1.11-0.384-1.902-0.384s-1.426,0.128-1.901,0.384
		c-0.477,0.256-0.715,0.588-0.715,0.996c0,0.416,0.236,0.752,0.708,1.008c0.473,0.256,1.108,0.384,1.908,0.384
		s1.437-0.128,1.908-0.384c0.472-0.256,0.708-0.592,0.708-1.008C257.671,301.934,257.432,301.602,256.957,301.346z"/>
	<path d="M265.795,307.202c-1.145,0.224-2.488,0.336-4.032,0.336h-0.768v-4.02h3.084v-2.004h-3.108v-0.864h4.164v3.744h-3.084v2.268
		c1.424,0,2.628-0.104,3.612-0.312L265.795,307.202z M269.562,310.058h-1.02v-5.46h-1.225v4.944h-1.008v-9.744h1.008v3.936h1.225
		v-4.164h1.02V310.058z"/>
</g>
<g>
	<path d="M255.858,344.926c-0.031,1.608-0.478,3.03-1.338,4.266c-0.859,1.236-2.038,2.263-3.533,3.078l-0.648-0.804
		c1.24-0.592,2.254-1.398,3.042-2.418c0.788-1.021,1.23-2.094,1.326-3.222h-3.9v-0.9H255.858z M258.93,354.298h-1.067V343.81h1.067
		V354.298z"/>
	<path d="M262.146,350.951c2.216,0,3.809-0.116,4.776-0.349l0.096,0.864c-1.096,0.224-2.744,0.348-4.943,0.372h-0.984v-7.056h5.016
		v0.852h-3.96v2.112h3.696v0.863h-3.696V350.951z M268.806,343.81v4.092h1.632v0.889h-1.632v5.508h-1.056V343.81H268.806z"/>
</g>
<g>
	<path d="M371.138,36.41l-0.624,0.792c-0.536-0.312-1.06-0.762-1.572-1.35c-0.512-0.588-0.848-1.162-1.008-1.722
		c-0.151,0.616-0.472,1.23-0.96,1.842c-0.488,0.612-1.044,1.103-1.668,1.47l-0.672-0.768c0.824-0.488,1.488-1.146,1.992-1.974
		c0.504-0.828,0.756-1.738,0.756-2.73v-0.84h-2.376v-0.864h5.82v0.864h-2.353v0.84c0,0.976,0.248,1.854,0.744,2.634
		C369.714,35.384,370.353,35.986,371.138,36.41z M372.265,29.21h1.068v10.488h-1.068V29.21z"/>
	<path d="M384.529,38.366h-9.468v-0.864h4.176V35.15h-3.048v-5.004h7.2v5.004h-3.084v2.352h4.224V38.366z M382.334,34.274V31.01
		h-5.088v3.264H382.334z"/>
	<path d="M391.418,34.311l-0.624,0.84c-0.513-0.232-0.996-0.566-1.452-1.002s-0.796-0.91-1.021-1.422
		c-0.151,0.536-0.47,1.062-0.954,1.578c-0.483,0.516-1.002,0.902-1.554,1.158l-0.66-0.84c0.744-0.304,1.366-0.79,1.866-1.458
		s0.75-1.398,0.75-2.19v-1.176h1.08v1.128c0,0.8,0.256,1.504,0.768,2.112C390.13,33.646,390.729,34.07,391.418,34.311z
		 M393.985,39.374h-6.983v-3.3h1.067v2.436h5.916V39.374z M395.113,33.242h-1.571v3.588h-1.057v-7.62h1.057v3.144h1.571V33.242z"/>
</g>
<g>
	<path d="M365.21,61.681v-8.064h1.056v7.164h3.552v0.9H365.21z"/>
	<path d="M371.149,61.681v-8.064h2.568c0.888,0,1.558,0.208,2.01,0.624s0.679,1.008,0.679,1.776c0,0.792-0.236,1.404-0.708,1.836
		c-0.473,0.432-1.097,0.648-1.872,0.648h-1.62v3.18H371.149z M372.206,57.625h1.392c0.592,0,1.021-0.124,1.284-0.372
		c0.264-0.248,0.396-0.632,0.396-1.152c0-0.568-0.126-0.972-0.378-1.212c-0.252-0.24-0.678-0.36-1.277-0.36h-1.416V57.625z"/>
	<path d="M381.529,61.195c-0.448,0.42-1.128,0.63-2.04,0.63s-1.684-0.176-2.315-0.528v-0.9c0.68,0.352,1.432,0.528,2.256,0.528
		c1.128,0,1.691-0.464,1.691-1.392c0-0.368-0.092-0.652-0.275-0.852c-0.185-0.2-0.517-0.384-0.996-0.552l-0.84-0.276
		c-0.576-0.192-1.011-0.458-1.303-0.798s-0.438-0.806-0.438-1.398c0-0.656,0.22-1.182,0.66-1.578
		c0.439-0.396,1.071-0.594,1.896-0.594c0.736,0,1.393,0.148,1.968,0.444v0.888c-0.64-0.288-1.308-0.432-2.004-0.432
		c-0.464,0-0.821,0.102-1.073,0.306s-0.379,0.494-0.379,0.87c0,0.368,0.078,0.648,0.234,0.84c0.156,0.192,0.446,0.36,0.87,0.504
		l0.828,0.276c0.647,0.208,1.132,0.48,1.452,0.816c0.319,0.336,0.479,0.82,0.479,1.452
		C382.201,60.193,381.977,60.775,381.529,61.195z"/>
	<path d="M366.901,76.081v-7.152h-2.388v-0.912h5.82v0.912h-2.388v7.152H366.901z"/>
	<path d="M373.91,76.189c-0.929,0-1.635-0.266-2.118-0.798c-0.484-0.532-0.727-1.266-0.727-2.202v-0.18
		c0-0.984,0.25-1.732,0.75-2.244c0.5-0.512,1.126-0.768,1.878-0.768c1.608,0,2.412,0.94,2.412,2.82v0.576h-3.983
		c0.031,0.688,0.212,1.18,0.54,1.476s0.8,0.444,1.416,0.444c0.664,0,1.279-0.152,1.848-0.456v0.756
		C375.422,75.997,374.75,76.189,373.91,76.189z M373.645,70.825c-0.392,0-0.733,0.134-1.025,0.402s-0.458,0.714-0.498,1.338h2.903
		c0-0.608-0.113-1.05-0.342-1.326C374.456,70.963,374.109,70.825,373.645,70.825z"/>
	<path d="M377.389,68.941v-1.068h1.044v1.068H377.389z M377.389,76.081v-5.964h1.032v5.964H377.389z"/>
	<path d="M382.489,76.189c-0.872,0-1.552-0.248-2.04-0.744c-0.488-0.496-0.732-1.232-0.732-2.208v-0.204
		c0-1,0.265-1.756,0.792-2.268c0.528-0.512,1.208-0.768,2.04-0.768c0.648,0,1.188,0.132,1.62,0.396v0.852
		c-0.576-0.248-1.14-0.372-1.691-0.372c-0.536,0-0.954,0.174-1.254,0.522c-0.301,0.348-0.45,0.846-0.45,1.494v0.312
		c0,0.736,0.151,1.274,0.456,1.614c0.304,0.34,0.76,0.51,1.368,0.51c0.495,0,1.048-0.14,1.655-0.42v0.816
		C383.764,76.033,383.177,76.189,382.489,76.189z"/>
	<path d="M385.392,76.081v-8.592h1.021v3.12h0.06c0.584-0.408,1.236-0.612,1.956-0.612c0.592,0,1.028,0.132,1.309,0.396
		c0.279,0.264,0.42,0.68,0.42,1.248v4.44h-1.009v-4.224c0-0.352-0.08-0.602-0.239-0.75c-0.16-0.148-0.469-0.222-0.924-0.222
		c-0.488,0-1.013,0.132-1.572,0.396v4.8H385.392z"/>
	<path d="M394.093,76.189c-0.856,0-1.522-0.262-1.998-0.786c-0.476-0.524-0.714-1.25-0.714-2.178v-0.204
		c0-0.928,0.248-1.664,0.744-2.208s1.155-0.816,1.979-0.816c0.856,0,1.524,0.264,2.004,0.792c0.48,0.528,0.721,1.26,0.721,2.196
		v0.192c0,0.928-0.25,1.662-0.75,2.202S394.917,76.189,394.093,76.189z M394.117,75.349c0.527,0,0.934-0.178,1.218-0.534
		c0.283-0.356,0.426-0.866,0.426-1.53v-0.324c0-1.416-0.56-2.124-1.68-2.124c-0.521,0-0.924,0.18-1.212,0.54
		s-0.433,0.872-0.433,1.536v0.336C392.436,74.649,392.997,75.349,394.117,75.349z"/>
	<path d="M398.1,68.941v-1.068h1.044v1.068H398.1z M398.1,76.081v-5.964h1.032v5.964H398.1z"/>
	<path d="M403.2,76.189c-0.872,0-1.552-0.248-2.04-0.744c-0.488-0.496-0.732-1.232-0.732-2.208v-0.204c0-1,0.265-1.756,0.792-2.268
		c0.528-0.512,1.208-0.768,2.04-0.768c0.648,0,1.188,0.132,1.62,0.396v0.852c-0.576-0.248-1.14-0.372-1.691-0.372
		c-0.536,0-0.954,0.174-1.254,0.522c-0.301,0.348-0.45,0.846-0.45,1.494v0.312c0,0.736,0.151,1.274,0.456,1.614
		c0.304,0.34,0.76,0.51,1.368,0.51c0.495,0,1.048-0.14,1.655-0.42v0.816C404.475,76.033,403.888,76.189,403.2,76.189z"/>
	<path d="M410.723,76.189c-0.561,0-1.008-0.144-1.344-0.432s-0.504-0.708-0.504-1.26c0-1.008,0.6-1.588,1.8-1.74l1.584-0.192v-0.552
		c0-0.448-0.106-0.748-0.318-0.9c-0.212-0.152-0.594-0.228-1.146-0.228c-0.393,0-0.868,0.056-1.429,0.168v-0.732
		c0.568-0.216,1.177-0.324,1.824-0.324c1.384,0,2.076,0.588,2.076,1.764v4.32h-0.816l-0.107-0.504h-0.061
		C411.916,75.985,411.395,76.189,410.723,76.189z M410.975,75.397c0.56,0,0.988-0.136,1.284-0.408v-1.644l-1.32,0.132
		c-0.352,0.04-0.608,0.136-0.768,0.288c-0.16,0.152-0.24,0.388-0.24,0.708c0,0.304,0.094,0.534,0.282,0.69
		C410.401,75.319,410.655,75.397,410.975,75.397z"/>
	<path d="M417.263,76.189c-0.872,0-1.552-0.248-2.04-0.744c-0.488-0.496-0.732-1.232-0.732-2.208v-0.204
		c0-1,0.265-1.756,0.792-2.268c0.528-0.512,1.208-0.768,2.04-0.768c0.648,0,1.188,0.132,1.62,0.396v0.852
		c-0.576-0.248-1.14-0.372-1.691-0.372c-0.536,0-0.954,0.174-1.254,0.522c-0.301,0.348-0.45,0.846-0.45,1.494v0.312
		c0,0.736,0.151,1.274,0.456,1.614c0.304,0.34,0.76,0.51,1.368,0.51c0.495,0,1.048-0.14,1.655-0.42v0.816
		C418.539,76.033,417.951,76.189,417.263,76.189z"/>
	<path d="M420.191,68.941v-1.068h1.044v1.068H420.191z M420.191,76.081v-5.964h1.032v5.964H420.191z"/>
	<path d="M425.003,76.189c-0.304,0-0.594-0.05-0.87-0.15c-0.275-0.1-0.536-0.258-0.78-0.474s-0.439-0.518-0.588-0.906
		c-0.147-0.388-0.222-0.846-0.222-1.374v-0.168c0-1.04,0.242-1.82,0.726-2.34c0.484-0.52,1.126-0.78,1.927-0.78
		c0.584,0,1.092,0.124,1.523,0.372v-2.88h1.021v8.592h-0.864l-0.096-0.48h-0.061C426.327,75.993,425.755,76.189,425.003,76.189z
		 M425.339,75.349c0.536,0,0.996-0.156,1.38-0.468v-3.66c-0.288-0.232-0.752-0.348-1.392-0.348c-0.568,0-0.996,0.164-1.284,0.492
		c-0.288,0.328-0.432,0.868-0.432,1.62v0.264c0,0.76,0.149,1.3,0.449,1.62C424.361,75.189,424.787,75.349,425.339,75.349z"/>
	<path d="M366.086,85.981h0.468c1.76,0,3.124-0.108,4.092-0.324l0.145,0.852c-1.16,0.24-2.725,0.36-4.692,0.36h-1.056v-4.716h4.752
		v0.852h-3.708V85.981z M372.914,89.761c0,0.616-0.309,1.11-0.924,1.482c-0.616,0.372-1.48,0.558-2.593,0.558
		c-1.111,0-1.974-0.184-2.586-0.552c-0.611-0.368-0.918-0.864-0.918-1.488c0-0.632,0.307-1.132,0.918-1.5
		c0.612-0.368,1.475-0.552,2.586-0.552c1.112,0,1.977,0.186,2.593,0.558C372.605,88.639,372.914,89.137,372.914,89.761z
		 M371.174,90.613c0.432-0.208,0.648-0.492,0.648-0.852c0-0.36-0.217-0.646-0.648-0.858s-1.024-0.318-1.776-0.318
		s-1.342,0.106-1.77,0.318s-0.643,0.498-0.643,0.858c0,0.36,0.215,0.644,0.643,0.852s1.018,0.312,1.77,0.312
		S370.742,90.821,371.174,90.613z M374.342,84.901h-1.56v2.664h-1.068v-6.228h1.068v2.688h1.56V84.901z"/>
	<path d="M381.517,88.537l-0.624,0.792c-0.536-0.312-1.06-0.762-1.572-1.35c-0.512-0.588-0.848-1.162-1.008-1.722
		c-0.151,0.616-0.472,1.23-0.96,1.842c-0.488,0.612-1.044,1.103-1.668,1.47l-0.672-0.768c0.824-0.488,1.488-1.146,1.992-1.974
		c0.504-0.828,0.756-1.738,0.756-2.73v-0.84h-2.376v-0.864h5.82v0.864h-2.353v0.84c0,0.976,0.248,1.854,0.744,2.634
		C380.094,87.511,380.733,88.113,381.517,88.537z M382.645,81.337h1.068v10.488h-1.068V81.337z"/>
	<path d="M385.825,82.789v-0.852h5.761v0.852h-2.353v0.012c0,0.696,0.262,1.316,0.786,1.86c0.524,0.544,1.118,0.92,1.782,1.128
		l-0.588,0.84c-0.496-0.2-0.984-0.506-1.464-0.918c-0.48-0.412-0.828-0.846-1.044-1.302c-0.16,0.488-0.505,0.976-1.032,1.464
		c-0.528,0.488-1.072,0.844-1.632,1.068l-0.624-0.816c0.728-0.272,1.365-0.716,1.914-1.332c0.548-0.616,0.821-1.272,0.821-1.968
		v-0.036H385.825z M394.405,91.753h-7.235v-2.676h5.808v-0.936h-5.832v-0.852h6.9v2.592h-5.809v0.996h6.168V91.753z M394.046,86.725
		h-1.068v-5.388h1.068V86.725z"/>
	<path d="M368.269,105.013c-1.104,0-1.968-0.342-2.592-1.026s-0.936-1.694-0.936-3.03v-0.276c0-0.704,0.096-1.318,0.288-1.842
		c0.191-0.524,0.46-0.94,0.804-1.248s0.733-0.536,1.17-0.684c0.436-0.148,0.918-0.222,1.446-0.222c0.792,0,1.451,0.148,1.979,0.444
		v0.876c-0.744-0.28-1.432-0.42-2.063-0.42c-0.761,0-1.364,0.238-1.812,0.714s-0.672,1.214-0.672,2.214v0.432
		c0,2.112,0.848,3.168,2.544,3.168c0.664,0,1.364-0.172,2.1-0.516v0.9C369.926,104.841,369.174,105.013,368.269,105.013z"/>
	<path d="M371.762,106.669v-7.752h0.973v0.48h0.06c0.416-0.4,0.988-0.6,1.716-0.6c0.721,0,1.307,0.226,1.758,0.678
		c0.452,0.452,0.679,1.19,0.679,2.214v0.156c0,1.064-0.234,1.85-0.702,2.358c-0.468,0.508-1.13,0.762-1.986,0.762
		c-0.568,0-1.06-0.128-1.476-0.384v2.088H371.762z M374.174,104.137c1.152,0,1.729-0.716,1.729-2.148v-0.264
		c0-0.768-0.137-1.302-0.408-1.602c-0.272-0.3-0.692-0.45-1.26-0.45c-0.608,0-1.093,0.136-1.452,0.408v3.648
		C373.101,104.001,373.566,104.137,374.174,104.137z"/>
	<path d="M381.685,105.013c-1.176,0-2.094-0.328-2.754-0.984c-0.659-0.656-0.989-1.656-0.989-3v-0.24
		c0-0.736,0.104-1.378,0.312-1.926s0.496-0.976,0.864-1.284c0.368-0.308,0.771-0.534,1.212-0.678
		c0.439-0.144,0.924-0.216,1.452-0.216c0.808,0,1.512,0.164,2.111,0.492v0.9c-0.743-0.328-1.476-0.492-2.195-0.492
		c-0.912,0-1.576,0.288-1.992,0.864s-0.624,1.304-0.624,2.184v0.372c0,1,0.192,1.77,0.576,2.31s1.071,0.81,2.063,0.81
		c0.544,0,1.024-0.076,1.44-0.228v-2.088h-1.692v-0.876h2.736v3.612C383.446,104.857,382.605,105.013,381.685,105.013z"/>
	<path d="M389.077,104.881v-8.064h2.437c1.231,0,2.17,0.318,2.813,0.954c0.645,0.636,0.967,1.586,0.967,2.85v0.24
		c0,1.288-0.311,2.28-0.931,2.976c-0.62,0.696-1.562,1.044-2.826,1.044H389.077z M390.134,103.969h1.428
		c0.896,0,1.552-0.234,1.968-0.702c0.416-0.468,0.624-1.218,0.624-2.25v-0.396c0-1.048-0.228-1.79-0.684-2.226
		c-0.456-0.436-1.145-0.654-2.064-0.654h-1.271V103.969z"/>
	<path d="M396.805,104.881v-8.064h1.248l3.696,6.264h0.023v-6.264h0.972v8.064h-1.092l-3.852-6.6h-0.024v6.6H396.805z"/>
	<path d="M403.885,104.881l2.94-8.064h1.021l2.916,8.064h-1.104l-0.816-2.268h-3.144l-0.804,2.268H403.885z M407.233,98.233
		l-1.225,3.48h2.509l-1.248-3.48H407.233z"/>
</g>
<g>
	<path d="M366.577,130.28c-0.808,0-1.452-0.14-1.932-0.42v-0.804c0.616,0.248,1.208,0.372,1.775,0.372
		c0.856,0,1.284-0.276,1.284-0.828c0-0.24-0.074-0.43-0.222-0.57c-0.148-0.14-0.402-0.258-0.762-0.354l-0.564-0.156
		c-0.479-0.128-0.848-0.316-1.104-0.564c-0.257-0.248-0.385-0.612-0.385-1.092c0-0.544,0.175-0.974,0.522-1.29
		c0.348-0.316,0.87-0.474,1.566-0.474c0.623,0,1.167,0.116,1.632,0.348v0.828c-0.448-0.208-0.98-0.312-1.597-0.312
		c-0.768,0-1.151,0.264-1.151,0.792c0,0.24,0.063,0.42,0.191,0.54s0.353,0.224,0.672,0.312l0.564,0.144
		c0.6,0.16,1.021,0.364,1.266,0.612c0.244,0.248,0.366,0.628,0.366,1.14c0,0.576-0.188,1.016-0.563,1.32
		C367.761,130.128,367.241,130.28,366.577,130.28z"/>
	<path d="M371.485,130.28c-0.809,0-1.452-0.14-1.933-0.42v-0.804c0.616,0.248,1.208,0.372,1.776,0.372
		c0.855,0,1.284-0.276,1.284-0.828c0-0.24-0.074-0.43-0.223-0.57c-0.147-0.14-0.401-0.258-0.762-0.354l-0.563-0.156
		c-0.48-0.128-0.849-0.316-1.104-0.564s-0.384-0.612-0.384-1.092c0-0.544,0.174-0.974,0.521-1.29
		c0.349-0.316,0.87-0.474,1.566-0.474c0.624,0,1.168,0.116,1.632,0.348v0.828c-0.448-0.208-0.979-0.312-1.596-0.312
		c-0.769,0-1.152,0.264-1.152,0.792c0,0.24,0.064,0.42,0.192,0.54s0.352,0.224,0.672,0.312l0.564,0.144
		c0.6,0.16,1.021,0.364,1.266,0.612c0.244,0.248,0.366,0.628,0.366,1.14c0,0.576-0.188,1.016-0.564,1.32
		C372.669,130.128,372.149,130.28,371.485,130.28z"/>
	<path d="M375.025,130.184v-8.064h2.436c1.232,0,2.17,0.318,2.814,0.954c0.644,0.636,0.966,1.586,0.966,2.85v0.24
		c0,1.288-0.311,2.28-0.93,2.976c-0.62,0.696-1.562,1.044-2.826,1.044H375.025z M376.081,129.272h1.428
		c0.896,0,1.553-0.234,1.969-0.702c0.416-0.468,0.624-1.218,0.624-2.25v-0.396c0-1.048-0.229-1.79-0.685-2.226
		c-0.456-0.436-1.144-0.654-2.063-0.654h-1.272V129.272z"/>
	<path d="M382.753,130.184v-8.064h1.248l3.696,6.264h0.024v-6.264h0.972v8.064h-1.092l-3.853-6.6h-0.023v6.6H382.753z"/>
	<path d="M389.833,130.184l2.94-8.064h1.02l2.916,8.064h-1.104l-0.816-2.268h-3.145l-0.804,2.268H389.833z M393.18,123.536
		l-1.224,3.48h2.508l-1.248-3.48H393.18z"/>
	<path d="M367.153,144.692c-0.304,0-0.594-0.05-0.87-0.15c-0.275-0.1-0.536-0.258-0.78-0.474s-0.439-0.518-0.588-0.906
		c-0.147-0.388-0.222-0.846-0.222-1.374v-0.168c0-1.04,0.242-1.82,0.726-2.34c0.484-0.52,1.126-0.78,1.927-0.78
		c0.584,0,1.092,0.124,1.523,0.372v-2.88h1.021v8.592h-0.864l-0.096-0.48h-0.061C368.477,144.496,367.905,144.692,367.153,144.692z
		 M367.489,143.852c0.536,0,0.996-0.156,1.38-0.468v-3.66c-0.288-0.232-0.752-0.348-1.392-0.348c-0.568,0-0.996,0.164-1.284,0.492
		c-0.288,0.328-0.432,0.868-0.432,1.62v0.264c0,0.76,0.149,1.3,0.449,1.62C366.512,143.692,366.937,143.852,367.489,143.852z"/>
	<path d="M373.057,144.68c-0.809,0-1.452-0.14-1.933-0.42v-0.804c0.616,0.248,1.208,0.372,1.776,0.372
		c0.855,0,1.284-0.276,1.284-0.828c0-0.24-0.074-0.43-0.223-0.57c-0.147-0.14-0.401-0.258-0.762-0.354l-0.563-0.156
		c-0.48-0.128-0.849-0.316-1.104-0.564s-0.384-0.612-0.384-1.092c0-0.544,0.174-0.974,0.521-1.29
		c0.349-0.316,0.87-0.474,1.566-0.474c0.624,0,1.168,0.116,1.632,0.348v0.828c-0.448-0.208-0.979-0.312-1.596-0.312
		c-0.769,0-1.152,0.264-1.152,0.792c0,0.24,0.064,0.42,0.192,0.54s0.352,0.224,0.672,0.312l0.564,0.144
		c0.6,0.16,1.021,0.364,1.266,0.612c0.244,0.248,0.366,0.628,0.366,1.14c0,0.576-0.188,1.016-0.564,1.32
		C374.241,144.528,373.721,144.68,373.057,144.68z"/>
	<path d="M376.597,144.584v-8.064h2.364c1.8,0,2.699,0.764,2.699,2.292c0,1.048-0.508,1.752-1.523,2.112v0.06l2.112,3.6h-1.213
		l-1.943-3.408h-1.44v3.408H376.597z M377.653,140.336h1.248c0.576,0,0.994-0.12,1.254-0.36c0.26-0.24,0.391-0.62,0.391-1.14
		c0-0.504-0.131-0.864-0.391-1.08s-0.682-0.324-1.266-0.324h-1.236V140.336z"/>
	<path d="M383.461,144.584v-8.064h1.248l3.696,6.264h0.024v-6.264h0.972v8.064h-1.092l-3.853-6.6h-0.023v6.6H383.461z"/>
	<path d="M390.541,144.584l2.94-8.064h1.02l2.916,8.064h-1.104l-0.816-2.268h-3.145l-0.804,2.268H390.541z M393.888,137.936
		l-1.224,3.48h2.508l-1.248-3.48H393.888z"/>
	<path d="M368.269,159.116c-1.104,0-1.968-0.342-2.592-1.026s-0.937-1.694-0.937-3.03v-0.276c0-0.704,0.096-1.318,0.288-1.842
		s0.46-0.94,0.804-1.248s0.734-0.536,1.17-0.684c0.437-0.148,0.918-0.222,1.446-0.222c0.792,0,1.452,0.148,1.98,0.444v0.876
		c-0.744-0.28-1.433-0.42-2.064-0.42c-0.76,0-1.364,0.238-1.812,0.714c-0.448,0.476-0.673,1.214-0.673,2.214v0.432
		c0,2.112,0.849,3.168,2.545,3.168c0.663,0,1.363-0.172,2.1-0.516v0.9C369.926,158.944,369.173,159.116,368.269,159.116z"/>
	<path d="M371.762,160.772v-7.752h0.972v0.48h0.061c0.415-0.4,0.987-0.6,1.716-0.6c0.72,0,1.306,0.226,1.758,0.678
		c0.452,0.452,0.678,1.19,0.678,2.214v0.156c0,1.064-0.233,1.85-0.702,2.358c-0.468,0.508-1.13,0.762-1.985,0.762
		c-0.568,0-1.061-0.128-1.477-0.384v2.088H371.762z M374.174,158.24c1.151,0,1.728-0.716,1.728-2.148v-0.264
		c0-0.768-0.136-1.302-0.408-1.602c-0.271-0.3-0.691-0.45-1.26-0.45c-0.607,0-1.092,0.136-1.452,0.408v3.648
		C373.101,158.104,373.565,158.24,374.174,158.24z"/>
	<path d="M381.685,159.116c-1.176,0-2.094-0.328-2.754-0.984c-0.66-0.656-0.99-1.656-0.99-3v-0.24c0-0.736,0.104-1.378,0.312-1.926
		s0.495-0.976,0.863-1.284c0.368-0.308,0.772-0.534,1.212-0.678c0.44-0.144,0.925-0.216,1.452-0.216
		c0.809,0,1.513,0.164,2.112,0.492v0.9c-0.744-0.328-1.476-0.492-2.196-0.492c-0.912,0-1.576,0.288-1.992,0.864
		s-0.624,1.304-0.624,2.184v0.372c0,1,0.192,1.77,0.576,2.31c0.385,0.54,1.072,0.81,2.064,0.81c0.544,0,1.023-0.076,1.439-0.228
		v-2.088h-1.691v-0.876h2.735v3.612C383.445,158.96,382.605,159.116,381.685,159.116z"/>
	<path d="M389.077,158.984v-8.064h2.436c1.232,0,2.17,0.318,2.814,0.954c0.644,0.636,0.966,1.586,0.966,2.85v0.24
		c0,1.288-0.311,2.28-0.93,2.976c-0.62,0.696-1.562,1.044-2.826,1.044H389.077z M390.133,158.072h1.428
		c0.896,0,1.553-0.234,1.969-0.702c0.416-0.468,0.624-1.218,0.624-2.25v-0.396c0-1.048-0.229-1.79-0.685-2.226
		c-0.456-0.436-1.144-0.654-2.063-0.654h-1.272V158.072z"/>
	<path d="M396.805,158.984v-8.064h1.248l3.696,6.264h0.024v-6.264h0.972v8.064h-1.092l-3.853-6.6h-0.023v6.6H396.805z"/>
	<path d="M403.885,158.984l2.94-8.064h1.02l2.916,8.064h-1.104l-0.816-2.268h-3.145l-0.804,2.268H403.885z M407.232,152.336
		l-1.224,3.48h2.508l-1.248-3.48H407.232z"/>
</g>
<g>
	<path d="M365.209,187.985v-8.064h1.057v3.444h3.876v-3.444h1.056v8.064h-1.056v-3.732h-3.876v3.732H365.209z"/>
	<path d="M376.945,187.498c-0.448,0.42-1.128,0.63-2.04,0.63s-1.684-0.176-2.315-0.528v-0.9c0.68,0.352,1.432,0.528,2.256,0.528
		c1.128,0,1.691-0.464,1.691-1.392c0-0.368-0.092-0.652-0.275-0.852c-0.185-0.2-0.517-0.384-0.996-0.552l-0.84-0.276
		c-0.576-0.192-1.011-0.458-1.303-0.798s-0.438-0.806-0.438-1.398c0-0.656,0.22-1.182,0.66-1.578
		c0.439-0.396,1.071-0.594,1.896-0.594c0.736,0,1.393,0.148,1.968,0.444v0.888c-0.64-0.288-1.308-0.432-2.004-0.432
		c-0.464,0-0.821,0.102-1.073,0.306s-0.379,0.494-0.379,0.87c0,0.368,0.078,0.648,0.234,0.84c0.156,0.192,0.446,0.36,0.87,0.504
		l0.828,0.276c0.647,0.208,1.132,0.48,1.452,0.816c0.319,0.336,0.479,0.82,0.479,1.452
		C377.617,186.497,377.393,187.079,376.945,187.498z"/>
	<path d="M379.093,187.985v-8.064h2.568c0.888,0,1.558,0.208,2.01,0.624s0.679,1.008,0.679,1.776c0,0.792-0.236,1.404-0.708,1.836
		c-0.473,0.432-1.097,0.648-1.872,0.648h-1.62v3.18H379.093z M380.149,183.929h1.392c0.592,0,1.021-0.124,1.284-0.372
		c0.264-0.248,0.396-0.632,0.396-1.152c0-0.568-0.126-0.972-0.378-1.212c-0.252-0.24-0.678-0.36-1.277-0.36h-1.416V183.929z"/>
	<path d="M388.189,188.129c-0.912,0-1.61-0.314-2.094-0.942c-0.484-0.628-0.727-1.518-0.727-2.67v-0.624
		c0-1.392,0.286-2.426,0.858-3.102c0.571-0.676,1.35-1.014,2.334-1.014c0.376,0,0.737,0.05,1.086,0.15
		c0.348,0.1,0.618,0.21,0.81,0.33l-0.264,0.78c-0.16-0.096-0.393-0.182-0.696-0.258s-0.58-0.114-0.828-0.114
		c-0.712,0-1.25,0.227-1.613,0.678c-0.364,0.452-0.57,1.258-0.618,2.418c0.56-0.56,1.216-0.84,1.968-0.84
		c0.704,0,1.284,0.224,1.74,0.672c0.456,0.448,0.684,1.044,0.684,1.788c0,0.8-0.236,1.458-0.708,1.974
		C389.649,187.871,389.005,188.129,388.189,188.129z M388.165,187.277c0.504,0,0.9-0.158,1.188-0.474s0.432-0.754,0.432-1.314
		c0-1.136-0.536-1.704-1.608-1.704c-0.344,0-0.674,0.098-0.989,0.294c-0.316,0.196-0.566,0.422-0.75,0.678v0.084
		C386.437,186.465,387.013,187.277,388.165,187.277z"/>
	<path d="M395.209,188.129c-0.904,0-1.63-0.318-2.178-0.954c-0.548-0.636-0.822-1.61-0.822-2.922v-0.636
		c0-1.336,0.28-2.31,0.84-2.922c0.561-0.612,1.284-0.918,2.172-0.918c0.872,0,1.578,0.302,2.118,0.906
		c0.54,0.604,0.811,1.566,0.811,2.886v0.696c0,1.312-0.271,2.284-0.811,2.916C396.799,187.813,396.089,188.129,395.209,188.129z
		 M395.209,187.265c0.616,0,1.078-0.228,1.386-0.684c0.309-0.456,0.462-1.184,0.462-2.184v-0.828c0-1.952-0.611-2.928-1.836-2.928
		c-1.256,0-1.884,0.948-1.884,2.844v0.852C393.337,186.289,393.961,187.265,395.209,187.265z"/>
	<path d="M399.277,189.605l0.42-2.424h1.212l-0.744,2.424H399.277z"/>
	<path d="M406.381,188.021l3.132-7.2h-4.008v-0.888h5.172v0.672l-3.108,7.416H406.381z"/>
	<path d="M414.816,188.129c-0.904,0-1.63-0.318-2.178-0.954c-0.548-0.636-0.822-1.61-0.822-2.922v-0.636
		c0-1.336,0.28-2.31,0.84-2.922c0.561-0.612,1.284-0.918,2.172-0.918c0.872,0,1.578,0.302,2.118,0.906
		c0.54,0.604,0.811,1.566,0.811,2.886v0.696c0,1.312-0.271,2.284-0.811,2.916C416.406,187.813,415.696,188.129,414.816,188.129z
		 M414.816,187.265c0.616,0,1.078-0.228,1.386-0.684c0.309-0.456,0.462-1.184,0.462-2.184v-0.828c0-1.952-0.611-2.928-1.836-2.928
		c-1.256,0-1.884,0.948-1.884,2.844v0.852C412.944,186.289,413.568,187.265,414.816,187.265z"/>
	<path d="M418.885,189.605l0.42-2.424h1.212l-0.744,2.424H418.885z"/>
	<path d="M427.884,179.777c0.912,0,1.616,0.304,2.112,0.912s0.744,1.484,0.744,2.628v0.528c0,1.416-0.276,2.484-0.828,3.204
		c-0.552,0.72-1.328,1.08-2.328,1.08c-0.392,0-0.768-0.05-1.128-0.15s-0.64-0.218-0.84-0.354l0.264-0.768
		c0.448,0.264,0.996,0.396,1.645,0.396c0.68,0,1.197-0.23,1.554-0.69c0.355-0.46,0.554-1.23,0.594-2.31
		c-0.52,0.576-1.176,0.864-1.968,0.864c-0.704,0-1.29-0.232-1.758-0.696s-0.702-1.076-0.702-1.836c0-0.8,0.236-1.468,0.708-2.004
		C426.424,180.045,427.068,179.777,427.884,179.777z M427.896,180.629c-0.504,0-0.898,0.172-1.183,0.516
		c-0.284,0.344-0.426,0.796-0.426,1.356c0,0.584,0.15,1.022,0.45,1.314s0.702,0.438,1.206,0.438c0.336,0,0.662-0.096,0.978-0.288
		c0.316-0.192,0.566-0.416,0.75-0.672v-0.228c0-0.76-0.146-1.356-0.438-1.788S428.496,180.629,427.896,180.629z"/>
	<path d="M435.192,188.129c-0.904,0-1.631-0.318-2.179-0.954c-0.548-0.636-0.821-1.61-0.821-2.922v-0.636
		c0-1.336,0.279-2.31,0.84-2.922c0.56-0.612,1.284-0.918,2.172-0.918c0.872,0,1.578,0.302,2.118,0.906
		c0.54,0.604,0.81,1.566,0.81,2.886v0.696c0,1.312-0.27,2.284-0.81,2.916C436.782,187.813,436.072,188.129,435.192,188.129z
		 M435.192,187.265c0.615,0,1.077-0.228,1.386-0.684c0.308-0.456,0.462-1.184,0.462-2.184v-0.828c0-1.952-0.612-2.928-1.836-2.928
		c-1.256,0-1.884,0.948-1.884,2.844v0.852C433.32,186.289,433.944,187.265,435.192,187.265z"/>
	<path d="M365.209,202.385v-8.064h1.057v3.444h3.876v-3.444h1.056v8.064h-1.056v-3.732h-3.876v3.732H365.209z"/>
	<path d="M373.165,202.385v-8.064h1.549l2.22,6.672h0.036l2.195-6.672h1.549v8.064h-1.068v-6.66h-0.036l-2.232,6.66h-0.983
		l-2.232-6.66h-0.023v6.66H373.165z"/>
	<path d="M385.945,202.517c-1.176,0-2.094-0.328-2.754-0.984c-0.66-0.656-0.99-1.656-0.99-3v-0.24c0-0.736,0.104-1.378,0.312-1.926
		s0.495-0.976,0.863-1.284c0.368-0.308,0.772-0.534,1.212-0.678c0.44-0.144,0.925-0.216,1.452-0.216
		c0.809,0,1.513,0.164,2.112,0.492v0.9c-0.744-0.328-1.476-0.492-2.196-0.492c-0.912,0-1.576,0.288-1.992,0.864
		s-0.624,1.304-0.624,2.184v0.372c0,1,0.192,1.77,0.576,2.31c0.385,0.54,1.072,0.81,2.064,0.81c0.544,0,1.023-0.076,1.439-0.228
		v-2.088h-1.691v-0.876h2.735v3.612C387.705,202.361,386.865,202.517,385.945,202.517z"/>
	<path d="M390.18,202.385v-8.064h2.496c1.752,0,2.628,0.68,2.628,2.04c0,0.88-0.439,1.46-1.319,1.74v0.048
		c1.104,0.208,1.655,0.856,1.655,1.944c0,0.688-0.235,1.242-0.708,1.662c-0.472,0.42-1.155,0.63-2.052,0.63H390.18z
		 M391.237,197.789h1.26c1.136,0,1.704-0.428,1.704-1.284c0-0.48-0.13-0.812-0.391-0.996c-0.26-0.184-0.665-0.276-1.218-0.276
		h-1.355V197.789z M391.237,201.497h1.584c1.144,0,1.716-0.484,1.716-1.452c0-0.496-0.15-0.854-0.45-1.074
		c-0.3-0.22-0.746-0.33-1.338-0.33h-1.512V201.497z"/>
	<path d="M398.184,202.433v-7.056l-1.464,0.324v-0.612l1.944-0.9h0.576v8.244H398.184z"/>
	<path d="M400.837,204.005l0.42-2.424h1.212l-0.744,2.424H400.837z"/>
	<path d="M409.32,202.385v-7.152h-2.388v-0.912h5.819v0.912h-2.388v7.152H409.32z"/>
	<path d="M414.024,202.385v-8.064h4.668v0.912h-3.612v2.7h2.784v0.9h-2.784v3.552H414.024z"/>
	<path d="M419.292,202.385l2.94-8.064h1.02l2.916,8.064h-1.104l-0.816-2.268h-3.145l-0.804,2.268H419.292z M422.639,195.737
		l-1.224,3.48h2.508l-1.248-3.48H422.639z"/>
	<path d="M427.307,202.385v-8.064h1.549l2.22,6.672h0.036l2.195-6.672h1.549v8.064h-1.068v-6.66h-0.036l-2.232,6.66h-0.983
		l-2.232-6.66h-0.023v6.66H427.307z"/>
	<path d="M365.209,216.785v-8.064h1.549l2.22,6.672h0.036l2.195-6.672h1.549v8.064h-1.068v-6.66h-0.036l-2.232,6.66h-0.983
		l-2.232-6.66h-0.023v6.66H365.209z"/>
	<path d="M374.713,216.785v-8.064h2.364c1.8,0,2.7,0.764,2.7,2.292c0,1.048-0.508,1.752-1.524,2.112v0.06l2.112,3.6h-1.212
		l-1.944-3.408h-1.439v3.408H374.713z M375.769,212.537h1.248c0.575,0,0.993-0.12,1.254-0.36c0.26-0.24,0.39-0.62,0.39-1.14
		c0-0.504-0.13-0.864-0.39-1.08c-0.261-0.216-0.683-0.324-1.267-0.324h-1.235V212.537z"/>
	<path d="M381.577,216.785v-8.064h2.567c0.889,0,1.559,0.208,2.011,0.624c0.451,0.416,0.678,1.008,0.678,1.776
		c0,0.792-0.236,1.404-0.708,1.836s-1.096,0.648-1.872,0.648h-1.62v3.18H381.577z M382.633,212.728h1.393
		c0.592,0,1.02-0.124,1.283-0.372c0.265-0.248,0.396-0.632,0.396-1.152c0-0.568-0.126-0.972-0.378-1.212
		c-0.252-0.24-0.678-0.36-1.278-0.36h-1.416V212.728z"/>
	<path d="M390.66,216.94c-0.88,0-1.577-0.202-2.094-0.606c-0.516-0.404-0.773-0.938-0.773-1.602c0-0.488,0.172-0.918,0.516-1.29
		c0.344-0.372,0.764-0.654,1.26-0.846c-1.023-0.416-1.536-1.076-1.536-1.98c0-0.6,0.236-1.092,0.708-1.476
		c0.473-0.384,1.101-0.576,1.885-0.576c0.783,0,1.411,0.176,1.884,0.528c0.472,0.352,0.708,0.84,0.708,1.464
		c0,0.768-0.536,1.424-1.608,1.968c1.28,0.424,1.92,1.124,1.92,2.1c0,0.672-0.26,1.226-0.779,1.662
		C392.228,216.723,391.532,216.94,390.66,216.94z M390.637,216.088c0.52,0,0.946-0.127,1.278-0.384
		c0.331-0.256,0.498-0.58,0.498-0.972c0-0.456-0.152-0.806-0.456-1.05c-0.305-0.244-0.82-0.478-1.549-0.702
		c-0.439,0.152-0.81,0.372-1.109,0.66s-0.45,0.632-0.45,1.032c0,0.432,0.164,0.776,0.492,1.032
		C389.669,215.961,390.1,216.088,390.637,216.088z M390.829,212.141c0.871-0.376,1.308-0.888,1.308-1.536
		c0-0.352-0.13-0.638-0.39-0.858c-0.261-0.22-0.627-0.33-1.099-0.33c-0.464,0-0.83,0.104-1.098,0.312
		c-0.269,0.208-0.402,0.496-0.402,0.864C389.148,211.345,389.709,211.861,390.829,212.141z"/>
	<path d="M394.416,218.405l0.42-2.424h1.213l-0.744,2.424H394.416z"/>
	<path d="M402.252,216.832v-7.056l-1.464,0.324v-0.612l1.943-0.9h0.576v8.244H402.252z"/>
	<path d="M408.767,216.964v-1.74h-3.864v-0.732l4.057-5.904h0.804v5.796h1.344v0.84h-1.344v1.74H408.767z M406.008,214.385h2.771
		v-4.032L406.008,214.385z"/>
	<path d="M368.989,230.699c-0.448,0.42-1.128,0.63-2.04,0.63s-1.684-0.176-2.315-0.528v-0.9c0.68,0.352,1.432,0.528,2.256,0.528
		c1.128,0,1.691-0.464,1.691-1.392c0-0.368-0.092-0.652-0.275-0.852c-0.185-0.2-0.517-0.384-0.996-0.552l-0.84-0.276
		c-0.576-0.192-1.011-0.458-1.303-0.798s-0.438-0.806-0.438-1.398c0-0.656,0.22-1.182,0.66-1.578
		c0.439-0.396,1.071-0.594,1.896-0.594c0.736,0,1.393,0.148,1.968,0.444v0.888c-0.64-0.288-1.308-0.432-2.004-0.432
		c-0.464,0-0.821,0.102-1.073,0.306s-0.379,0.494-0.379,0.87c0,0.368,0.078,0.648,0.234,0.84c0.156,0.192,0.446,0.36,0.87,0.504
		l0.828,0.276c0.647,0.208,1.132,0.48,1.452,0.816c0.319,0.336,0.479,0.82,0.479,1.452
		C369.661,229.697,369.437,230.279,368.989,230.699z"/>
	<path d="M372.18,231.233v-7.056l-1.464,0.324v-0.612l1.944-0.9h0.576v8.244H372.18z"/>
	<path d="M378.361,231.329c-0.904,0-1.631-0.318-2.179-0.954c-0.548-0.636-0.821-1.61-0.821-2.922v-0.636
		c0-1.336,0.279-2.31,0.84-2.922c0.56-0.612,1.284-0.918,2.172-0.918c0.872,0,1.578,0.302,2.118,0.906
		c0.54,0.604,0.81,1.566,0.81,2.886v0.696c0,1.312-0.27,2.284-0.81,2.916C379.951,231.013,379.241,231.329,378.361,231.329z
		 M378.361,230.465c0.615,0,1.077-0.228,1.386-0.684c0.308-0.456,0.462-1.184,0.462-2.184v-0.828c0-1.952-0.612-2.928-1.836-2.928
		c-1.256,0-1.884,0.948-1.884,2.844v0.852C376.489,229.489,377.113,230.465,378.361,230.465z"/>
	<path d="M385.957,231.329c-0.904,0-1.631-0.318-2.179-0.954c-0.548-0.636-0.821-1.61-0.821-2.922v-0.636
		c0-1.336,0.279-2.31,0.84-2.922c0.56-0.612,1.284-0.918,2.172-0.918c0.872,0,1.578,0.302,2.118,0.906
		c0.54,0.604,0.81,1.566,0.81,2.886v0.696c0,1.312-0.27,2.284-0.81,2.916C387.547,231.013,386.837,231.329,385.957,231.329z
		 M385.957,230.465c0.615,0,1.077-0.228,1.386-0.684c0.308-0.456,0.462-1.184,0.462-2.184v-0.828c0-1.952-0.612-2.928-1.836-2.928
		c-1.256,0-1.884,0.948-1.884,2.844v0.852C384.085,229.489,384.709,230.465,385.957,230.465z"/>
	<path d="M390.732,231.185v-8.064h2.496c1.752,0,2.628,0.68,2.628,2.04c0,0.88-0.44,1.46-1.32,1.74v0.048
		c1.104,0.208,1.656,0.856,1.656,1.944c0,0.688-0.236,1.242-0.708,1.662c-0.473,0.42-1.156,0.63-2.052,0.63H390.732z
		 M391.788,226.589h1.26c1.137,0,1.704-0.428,1.704-1.284c0-0.48-0.13-0.812-0.39-0.996s-0.666-0.276-1.218-0.276h-1.356V226.589z
		 M391.788,230.297h1.584c1.145,0,1.716-0.484,1.716-1.452c0-0.496-0.149-0.854-0.449-1.074c-0.301-0.22-0.746-0.33-1.339-0.33
		h-1.512V230.297z"/>
	<path d="M368.485,245.717c-1.176,0-2.094-0.328-2.754-0.984c-0.66-0.656-0.99-1.656-0.99-3v-0.24c0-0.736,0.104-1.378,0.312-1.926
		s0.495-0.976,0.863-1.284c0.368-0.308,0.772-0.534,1.212-0.678c0.44-0.144,0.925-0.216,1.452-0.216
		c0.809,0,1.513,0.164,2.112,0.492v0.9c-0.744-0.328-1.476-0.492-2.196-0.492c-0.912,0-1.576,0.288-1.992,0.864
		s-0.624,1.304-0.624,2.184v0.372c0,1,0.192,1.77,0.576,2.31c0.385,0.54,1.072,0.81,2.064,0.81c0.544,0,1.023-0.076,1.439-0.228
		v-2.088h-1.691v-0.876h2.735v3.612C370.245,245.561,369.405,245.717,368.485,245.717z"/>
	<path d="M374.016,245.693c-0.56,0-1.008-0.144-1.344-0.432s-0.504-0.708-0.504-1.26c0-1.008,0.601-1.588,1.8-1.74l1.584-0.192
		v-0.552c0-0.448-0.105-0.748-0.317-0.9c-0.212-0.152-0.595-0.228-1.146-0.228c-0.392,0-0.868,0.056-1.428,0.168v-0.732
		c0.567-0.216,1.176-0.324,1.824-0.324c1.384,0,2.076,0.588,2.076,1.764v4.32h-0.816l-0.108-0.504h-0.06
		C375.209,245.489,374.689,245.693,374.016,245.693z M374.269,244.901c0.56,0,0.987-0.136,1.283-0.408v-1.644l-1.319,0.132
		c-0.353,0.04-0.608,0.136-0.769,0.288s-0.24,0.388-0.24,0.708c0,0.304,0.095,0.534,0.282,0.69
		C373.695,244.823,373.949,244.901,374.269,244.901z"/>
	<path d="M378.18,245.585v-8.592h1.032v8.592H378.18z"/>
	<path d="M382.345,245.693c-0.561,0-1.008-0.144-1.344-0.432s-0.504-0.708-0.504-1.26c0-1.008,0.6-1.588,1.8-1.74l1.584-0.192
		v-0.552c0-0.448-0.106-0.748-0.318-0.9c-0.212-0.152-0.594-0.228-1.146-0.228c-0.393,0-0.868,0.056-1.429,0.168v-0.732
		c0.568-0.216,1.177-0.324,1.824-0.324c1.384,0,2.076,0.588,2.076,1.764v4.32h-0.816l-0.107-0.504h-0.061
		C383.537,245.489,383.016,245.693,382.345,245.693z M382.596,244.901c0.56,0,0.988-0.136,1.284-0.408v-1.644l-1.32,0.132
		c-0.352,0.04-0.608,0.136-0.768,0.288c-0.16,0.152-0.24,0.388-0.24,0.708c0,0.304,0.094,0.534,0.282,0.69
		C382.022,244.823,382.276,244.901,382.596,244.901z"/>
	<path d="M388.885,245.693c-0.872,0-1.552-0.248-2.04-0.744c-0.488-0.496-0.732-1.232-0.732-2.208v-0.204
		c0-1,0.265-1.756,0.792-2.268c0.528-0.512,1.208-0.768,2.04-0.768c0.648,0,1.188,0.132,1.62,0.396v0.852
		c-0.576-0.248-1.14-0.372-1.691-0.372c-0.536,0-0.954,0.174-1.254,0.522c-0.301,0.348-0.45,0.846-0.45,1.494v0.312
		c0,0.736,0.151,1.274,0.456,1.614c0.304,0.34,0.76,0.51,1.368,0.51c0.495,0,1.048-0.14,1.655-0.42v0.816
		C390.16,245.537,389.572,245.693,388.885,245.693z"/>
	<path d="M393.708,245.645c-1.071,0-1.607-0.488-1.607-1.464v-3.708h-0.853v-0.852h0.853v-1.416h1.02v1.416h1.5v0.852h-1.5v3.564
		c0,0.288,0.062,0.49,0.187,0.606c0.124,0.116,0.35,0.174,0.678,0.174c0.248,0,0.5-0.032,0.756-0.096v0.696
		C394.388,245.569,394.044,245.645,393.708,245.645z"/>
	<path d="M395.94,238.445v-1.068h1.044v1.068H395.94z M395.94,245.585v-5.964h1.032v5.964H395.94z"/>
	<path d="M398.64,245.585v-5.964h0.972v0.516h0.061c0.592-0.424,1.26-0.636,2.004-0.636c0.592,0,1.027,0.132,1.308,0.396
		c0.28,0.264,0.42,0.68,0.42,1.248v4.44h-1.008v-4.224c0-0.352-0.08-0.602-0.24-0.75s-0.468-0.222-0.924-0.222
		c-0.488,0-1.012,0.132-1.572,0.396v4.8H398.64z"/>
	<path d="M404.82,242.129v-0.876h3.948v0.876H404.82z"/>
	<path d="M412.248,245.705c-0.92,0-1.66-0.192-2.22-0.576l0.216-0.816c0.224,0.152,0.514,0.278,0.87,0.378
		c0.355,0.1,0.686,0.15,0.99,0.15c0.64,0,1.134-0.136,1.481-0.408c0.349-0.272,0.522-0.656,0.522-1.152
		c0-0.488-0.172-0.854-0.517-1.098c-0.344-0.244-0.819-0.366-1.428-0.366h-0.78v-0.876h0.708c0.521-0.008,0.937-0.134,1.248-0.378
		c0.312-0.244,0.469-0.578,0.469-1.002c0-0.864-0.528-1.296-1.584-1.296c-0.521,0-1.108,0.185-1.765,0.552l-0.156-0.84
		c0.257-0.16,0.591-0.3,1.003-0.42c0.411-0.12,0.793-0.18,1.146-0.18c0.744,0,1.338,0.178,1.782,0.534
		c0.443,0.356,0.666,0.851,0.666,1.482c0,0.912-0.509,1.54-1.524,1.884c1.208,0.224,1.812,0.9,1.812,2.028
		c0,0.72-0.267,1.3-0.798,1.74C413.858,245.485,413.144,245.705,412.248,245.705z"/>
	<path d="M368.269,260.117c-1.104,0-1.968-0.342-2.592-1.026s-0.937-1.694-0.937-3.03v-0.276c0-0.704,0.096-1.318,0.288-1.842
		s0.46-0.94,0.804-1.248s0.734-0.536,1.17-0.684c0.437-0.148,0.918-0.222,1.446-0.222c0.792,0,1.452,0.148,1.98,0.444v0.876
		c-0.744-0.28-1.433-0.42-2.064-0.42c-0.76,0-1.364,0.238-1.812,0.714c-0.448,0.476-0.673,1.214-0.673,2.214v0.432
		c0,2.112,0.849,3.168,2.545,3.168c0.663,0,1.363-0.172,2.1-0.516v0.9C369.926,259.945,369.173,260.117,368.269,260.117z"/>
	<path d="M371.762,261.773v-7.752h0.972v0.48h0.061c0.415-0.4,0.987-0.6,1.716-0.6c0.72,0,1.306,0.226,1.758,0.678
		c0.452,0.452,0.678,1.19,0.678,2.214v0.156c0,1.064-0.233,1.85-0.702,2.358c-0.468,0.508-1.13,0.762-1.985,0.762
		c-0.568,0-1.061-0.128-1.477-0.384v2.088H371.762z M374.174,259.241c1.151,0,1.728-0.716,1.728-2.148v-0.264
		c0-0.768-0.136-1.302-0.408-1.602c-0.271-0.3-0.691-0.45-1.26-0.45c-0.607,0-1.092,0.136-1.452,0.408v3.648
		C373.101,259.105,373.565,259.241,374.174,259.241z"/>
	<path d="M381.685,260.117c-1.176,0-2.094-0.328-2.754-0.984c-0.66-0.656-0.99-1.656-0.99-3v-0.24c0-0.736,0.104-1.378,0.312-1.926
		s0.495-0.976,0.863-1.284c0.368-0.308,0.772-0.534,1.212-0.678c0.44-0.144,0.925-0.216,1.452-0.216
		c0.809,0,1.513,0.164,2.112,0.492v0.9c-0.744-0.328-1.476-0.492-2.196-0.492c-0.912,0-1.576,0.288-1.992,0.864
		s-0.624,1.304-0.624,2.184v0.372c0,1,0.192,1.77,0.576,2.31c0.385,0.54,1.072,0.81,2.064,0.81c0.544,0,1.023-0.076,1.439-0.228
		v-2.088h-1.691v-0.876h2.735v3.612C383.445,259.961,382.605,260.117,381.685,260.117z"/>
	<path d="M389.077,259.985v-8.064h2.436c1.232,0,2.17,0.318,2.814,0.954c0.644,0.636,0.966,1.586,0.966,2.85v0.24
		c0,1.288-0.311,2.28-0.93,2.976c-0.62,0.696-1.562,1.044-2.826,1.044H389.077z M390.133,259.073h1.428
		c0.896,0,1.553-0.234,1.969-0.702c0.416-0.468,0.624-1.218,0.624-2.25v-0.396c0-1.048-0.229-1.79-0.685-2.226
		c-0.456-0.436-1.144-0.654-2.063-0.654h-1.272V259.073z"/>
	<path d="M396.805,259.985v-8.064h1.248l3.696,6.264h0.024v-6.264h0.972v8.064h-1.092l-3.853-6.6h-0.023v6.6H396.805z"/>
	<path d="M403.885,259.985l2.94-8.064h1.02l2.916,8.064h-1.104l-0.816-2.268h-3.145l-0.804,2.268H403.885z M407.232,253.337
		l-1.224,3.48h2.508l-1.248-3.48H407.232z"/>
</g>
<g>
	<path d="M371.389,286.612l0.084,0.852c-0.832,0.12-1.889,0.212-3.168,0.276c-1.385,0.072-2.5,0.108-3.349,0.108l-0.168-0.9
		c0.664,0,1.164-0.004,1.5-0.012l-0.359-4.272l1.056-0.12l0.264,4.368c0.513-0.016,0.876-0.032,1.093-0.048
		c0.071,0,0.204-0.008,0.396-0.024l0.276-4.308l1.044,0.12l-0.384,4.14C370.393,286.745,370.965,286.685,371.389,286.612z
		 M370.873,281.8h-5.76v-0.864h5.76V281.8z M373.069,279.893v4.14h1.668v0.888h-1.668v5.46h-1.068v-10.488H373.069z"/>
	<path d="M375.721,284.38c0-1.096,0.228-1.986,0.684-2.67s1.128-1.026,2.016-1.026c0.889,0,1.559,0.342,2.011,1.026
		c0.451,0.684,0.678,1.578,0.678,2.682s-0.227,1.998-0.678,2.682c-0.452,0.684-1.122,1.026-2.011,1.026
		c-0.888,0-1.56-0.344-2.016-1.032C375.949,286.38,375.721,285.484,375.721,284.38z M379.634,286.415
		c0.279-0.508,0.42-1.182,0.42-2.022s-0.141-1.516-0.42-2.028c-0.28-0.512-0.685-0.768-1.213-0.768c-0.52,0-0.92,0.256-1.199,0.768
		c-0.28,0.512-0.42,1.188-0.42,2.028s0.14,1.514,0.42,2.022c0.279,0.508,0.68,0.762,1.199,0.762
		C378.949,287.177,379.353,286.923,379.634,286.415z M384.001,290.38h-1.067v-10.488h1.067V290.38z"/>
	<path d="M395.197,288.977h-9.468v-0.864h9.468V288.977z M394.021,286.168h-7.128v-5.34h1.067v1.824h5.004v-1.836h1.057V286.168z
		 M392.965,285.292v-1.776h-5.004v1.776H392.965z"/>
	<path d="M405.577,289.048h-9.468v-0.864h4.176v-1.656h-3.036v-3.372h6.096v-1.536h-6.12v-0.864h7.177v3.264h-6.097v1.644h6.385
		v0.864h-3.336v1.656h4.224V289.048z"/>
	<path d="M411.409,284.933c-0.912,0.224-2.072,0.344-3.48,0.36h-0.912v-4.704h1.057v3.804c1.359,0,2.42-0.108,3.18-0.324
		C411.333,284.453,411.385,284.741,411.409,284.933z M408.205,286.517h7.14v3.864h-1.056v-3.012h-6.084V286.517z M412.321,282.809
		h-2.16v-0.876h2.16v-1.848h1.008v5.772h-1.008V282.809z M415.345,285.964h-1.02v-6.072h1.02V285.964z"/>
	<path d="M423.169,284.896l0.107,0.84c-0.951,0.2-2.563,0.308-4.836,0.324h-0.995v-5.316h4.896v0.864h-3.828v1.308h3.66v0.852h-3.66
		v1.428h0.349C420.709,285.196,422.144,285.097,423.169,284.896z M425.713,290.057h-7.104v-3.168h1.068v2.304h6.036V290.057z
		 M425.472,279.893v7.644h-1.067v-7.644H425.472z"/>
	<path d="M365.798,301.426c-0.448-0.684-0.673-1.578-0.673-2.682s0.225-1.998,0.673-2.682c0.447-0.684,1.111-1.026,1.991-1.026
		s1.542,0.342,1.986,1.026s0.666,1.582,0.666,2.694c0,1.096-0.222,1.986-0.666,2.67s-1.106,1.026-1.986,1.026
		S366.245,302.11,365.798,301.426z M369.397,298.756c0-0.84-0.14-1.518-0.42-2.034c-0.28-0.516-0.676-0.774-1.188-0.774
		c-0.512,0-0.905,0.256-1.182,0.768c-0.276,0.512-0.414,1.192-0.414,2.04c0,0.832,0.138,1.504,0.414,2.016
		c0.276,0.512,0.67,0.768,1.182,0.768c0.513,0,0.908-0.256,1.188-0.768C369.258,300.261,369.397,299.588,369.397,298.756z
		 M374.749,299.332h-1.68v5.448h-1.068v-10.488h1.068v4.164h1.68V299.332z"/>
	<path d="M380.821,299.165h-4.932v-4.272h4.932V299.165z M379.765,298.324v-2.58h-2.832v2.58H379.765z M384.325,304.708h-7.2v-2.712
		h5.761v-0.96h-5.772v-0.864h6.84v2.628h-5.771v1.032h6.144V304.708z M383.953,299.621h-1.067v-5.328h1.067V299.621z"/>
	<path d="M395.197,303.448h-9.468v-0.864h4.176v-1.656h-3.036v-3.372h6.096v-1.536h-6.12v-0.864h7.177v3.264h-6.097v1.644h6.385
		v0.864h-3.336v1.656h4.224V303.448z"/>
	<path d="M396.481,298.78c0-1.096,0.228-1.986,0.684-2.67s1.128-1.026,2.016-1.026c0.889,0,1.559,0.342,2.011,1.026
		c0.451,0.684,0.678,1.578,0.678,2.682s-0.227,1.998-0.678,2.682c-0.452,0.684-1.122,1.026-2.011,1.026
		c-0.888,0-1.56-0.344-2.016-1.032C396.709,300.78,396.481,299.884,396.481,298.78z M400.393,300.814
		c0.279-0.508,0.42-1.182,0.42-2.022s-0.141-1.516-0.42-2.028c-0.28-0.512-0.685-0.768-1.213-0.768c-0.52,0-0.92,0.256-1.199,0.768
		c-0.28,0.512-0.42,1.188-0.42,2.028s0.14,1.514,0.42,2.022c0.279,0.508,0.68,0.762,1.199,0.762
		C399.709,301.577,400.113,301.323,400.393,300.814z M404.761,304.78h-1.067v-10.488h1.067V304.78z"/>
	<path d="M415.957,303.364h-9.468V302.5h9.468V303.364z M414.829,300.292h-7.116v-4.968h7.021v0.864h-5.965v3.252h6.061V300.292z"/>
	<path d="M417.049,299.98v-0.876h3.948v0.876H417.049z"/>
	<path d="M426.696,302.165h-4.235v-6.828h1.044v2.532h2.147v-2.544h1.044v2.892h1.2v-3.684h1.008v9.732h-1.008v-5.172h-1.2V302.165z
		 M425.652,301.3v-2.58h-2.147v2.58H425.652z M430.98,304.78h-1.02v-10.488h1.02V304.78z"/>
	<path d="M433.944,301.433c2.216,0,3.809-0.116,4.776-0.348l0.096,0.864c-1.096,0.224-2.744,0.348-4.943,0.372h-0.984v-7.056h5.016
		v0.852h-3.96v2.112h3.696v0.864h-3.696V301.433z M440.604,294.292v4.092h1.632v0.888h-1.632v5.508h-1.056v-10.488H440.604z"/>
</g>
<g>
	<path d="M371.125,333.47l-0.624,0.84c-0.512-0.232-0.996-0.566-1.452-1.002s-0.796-0.91-1.02-1.422
		c-0.152,0.536-0.471,1.062-0.954,1.578c-0.484,0.516-1.002,0.902-1.554,1.158l-0.66-0.84c0.744-0.304,1.366-0.79,1.866-1.458
		c0.499-0.668,0.75-1.398,0.75-2.19v-1.176h1.079v1.128c0,0.8,0.257,1.504,0.769,2.112S370.436,333.229,371.125,333.47z
		 M373.693,338.534h-6.984v-3.3h1.068v2.436h5.916V338.534z M374.821,332.401h-1.572v3.588h-1.056v-7.62h1.056v3.144h1.572V332.401z
		"/>
	<path d="M382.069,336.793c-0.769,0.104-1.973,0.204-3.612,0.3c-1.056,0.056-2.048,0.084-2.976,0.084l-0.156-0.888
		c1.184,0,2.111-0.016,2.784-0.048v-0.948c-0.593-0.08-1.07-0.278-1.435-0.594s-0.546-0.702-0.546-1.158
		c0-0.536,0.234-0.97,0.702-1.302s1.069-0.498,1.806-0.498c0.752,0,1.358,0.164,1.818,0.492c0.46,0.328,0.689,0.764,0.689,1.308
		c0,0.464-0.18,0.854-0.539,1.17c-0.36,0.316-0.841,0.51-1.44,0.582v0.888c1.096-0.056,2.028-0.132,2.796-0.228L382.069,336.793z
		 M381.805,331.31h-6.228v-0.876h6.228V331.31z M380.113,329.749h-2.988v-0.864h2.988V329.749z M380.053,333.541
		c0-0.272-0.132-0.496-0.396-0.672c-0.265-0.176-0.604-0.264-1.021-0.264c-0.408,0-0.744,0.09-1.008,0.27
		c-0.264,0.18-0.396,0.402-0.396,0.666c0,0.256,0.132,0.476,0.396,0.66s0.6,0.276,1.008,0.276c0.416,0,0.756-0.092,1.021-0.276
		C379.921,334.018,380.053,333.798,380.053,333.541z M385.297,333.926h-1.62v4.932h-1.044V328.37h1.044v4.668h1.62V333.926z"/>
	<path d="M392.856,334.609c-1.096,0.12-2.224,0.212-3.384,0.276c-1.552,0.064-2.696,0.096-3.432,0.096l-0.156-0.9
		c1.264,0,2.244-0.012,2.94-0.036v-1.296h-2.064v-3.636h5.304v0.876h-4.248v1.896h4.345v0.864h-2.28v1.248
		c1.184-0.048,2.144-0.124,2.88-0.228L392.856,334.609z M394.717,338.582h-7.068v-2.952h1.068v2.088h6V338.582z M394.537,336.242
		h-1.057v-7.872h1.057V336.242z"/>
	<path d="M399.972,337.514v-8.064h1.056v7.164h3.552v0.9H399.972z"/>
	<path d="M405.912,337.514v-8.064h2.437c1.231,0,2.17,0.318,2.813,0.954c0.645,0.636,0.967,1.586,0.967,2.85v0.24
		c0,1.288-0.311,2.28-0.931,2.976c-0.62,0.696-1.562,1.044-2.826,1.044H405.912z M406.969,336.602h1.428
		c0.896,0,1.552-0.234,1.968-0.702c0.416-0.468,0.624-1.218,0.624-2.25v-0.396c0-1.048-0.228-1.79-0.684-2.226
		c-0.456-0.436-1.145-0.654-2.064-0.654h-1.271V336.602z"/>
	<path d="M413.64,337.514v-8.064h1.056v7.164h3.552v0.9H413.64z"/>
	<path d="M371.329,350.029l-0.624,0.78c-0.528-0.304-1.044-0.748-1.548-1.332s-0.836-1.155-0.996-1.716
		c-0.16,0.6-0.482,1.206-0.966,1.818c-0.484,0.611-1.038,1.109-1.662,1.493l-0.685-0.779c0.824-0.472,1.49-1.128,1.998-1.968
		c0.509-0.841,0.763-1.748,0.763-2.725v-0.864h-2.364v-0.876h5.772v0.876h-2.316v0.853c0,0.976,0.242,1.852,0.726,2.628
		C369.911,348.994,370.545,349.597,371.329,350.029z M374.893,347.845h-1.645v5.412h-1.056v-10.488h1.056v4.188h1.645V347.845z"/>
	<path d="M378.961,353.257h-1.056v-3.648h-2.376v-0.876h9.468v0.876h-2.412v3.648h-1.056v-3.648h-2.568V353.257z M383.976,345.541
		c0,0.688-0.336,1.244-1.008,1.668s-1.576,0.636-2.712,0.636s-2.038-0.212-2.706-0.636s-1.002-0.98-1.002-1.668
		c0-0.68,0.334-1.23,1.002-1.65s1.57-0.63,2.706-0.63s2.04,0.21,2.712,0.63S383.976,344.862,383.976,345.541z M382.159,344.545
		c-0.477-0.256-1.11-0.384-1.902-0.384s-1.426,0.128-1.901,0.384c-0.477,0.256-0.715,0.588-0.715,0.996
		c0,0.416,0.236,0.752,0.708,1.008c0.473,0.256,1.108,0.384,1.908,0.384s1.437-0.128,1.908-0.384s0.708-0.592,0.708-1.008
		C382.873,345.133,382.635,344.801,382.159,344.545z"/>
	<path d="M395.52,349.969l-0.624,0.792c-0.536-0.312-1.06-0.762-1.572-1.35c-0.512-0.589-0.848-1.162-1.008-1.723
		c-0.151,0.616-0.472,1.23-0.96,1.842c-0.488,0.612-1.044,1.103-1.668,1.471l-0.672-0.769c0.824-0.487,1.488-1.146,1.992-1.974
		s0.756-1.738,0.756-2.73v-0.84h-2.376v-0.863h5.82v0.863h-2.353v0.84c0,0.977,0.248,1.854,0.744,2.635
		C394.096,348.943,394.736,349.545,395.52,349.969z M396.648,342.769h1.068v10.488h-1.068V342.769z"/>
	<path d="M404.724,348.361h-4.944v-5.052h1.057v1.692h2.819v-1.704h1.068V348.361z M406.753,349.717
		c0.607,0.368,0.911,0.864,0.911,1.488s-0.306,1.12-0.918,1.487c-0.611,0.368-1.47,0.553-2.573,0.553
		c-1.097,0-1.946-0.185-2.551-0.553c-0.604-0.367-0.905-0.863-0.905-1.487s0.302-1.12,0.905-1.488
		c0.604-0.368,1.454-0.552,2.551-0.552C405.284,349.165,406.144,349.349,406.753,349.717z M403.656,347.498v-1.632h-2.819v1.632
		H403.656z M404.173,350.029c-0.744,0-1.326,0.106-1.746,0.318s-0.63,0.498-0.63,0.858c0,0.359,0.212,0.646,0.636,0.857
		s1.004,0.318,1.74,0.318c0.76,0,1.352-0.104,1.775-0.312c0.424-0.208,0.637-0.495,0.637-0.863c0-0.36-0.213-0.646-0.637-0.858
		S404.932,350.029,404.173,350.029z M409.104,346.309h-1.56v2.784h-1.068v-6.324h1.068v2.664h1.56V346.309z"/>
	<path d="M415.801,347.87l-0.624,0.84c-0.513-0.232-0.996-0.566-1.452-1.002c-0.456-0.437-0.796-0.91-1.021-1.422
		c-0.151,0.536-0.47,1.062-0.954,1.577c-0.483,0.517-1.002,0.902-1.554,1.158l-0.66-0.84c0.744-0.304,1.366-0.79,1.866-1.458
		s0.75-1.397,0.75-2.189v-1.177h1.08v1.128c0,0.801,0.256,1.505,0.768,2.112C414.513,347.206,415.112,347.629,415.801,347.87z
		 M418.368,352.933h-6.983v-3.3h1.067v2.436h5.916V352.933z M419.496,346.801h-1.571v3.588h-1.057v-7.62h1.057v3.145h1.571V346.801z
		"/>
	<path d="M366.091,358.675c0.532-0.5,1.202-0.75,2.011-0.75c0.808,0,1.478,0.25,2.01,0.75c0.531,0.5,0.798,1.134,0.798,1.901
		c0,0.769-0.264,1.393-0.792,1.872c-0.528,0.48-1.196,0.721-2.004,0.721c-0.824,0-1.5-0.24-2.028-0.721
		c-0.528-0.479-0.792-1.1-0.792-1.859C365.293,359.813,365.558,359.175,366.091,358.675z M368.101,358.825
		c-0.505,0-0.917,0.164-1.236,0.492c-0.32,0.328-0.48,0.744-0.48,1.248s0.16,0.914,0.48,1.23c0.319,0.315,0.735,0.474,1.248,0.474
		c0.512,0,0.924-0.156,1.235-0.468c0.312-0.312,0.469-0.72,0.469-1.225c0-0.512-0.156-0.932-0.469-1.26
		C369.037,358.989,368.621,358.825,368.101,358.825z M373.596,367.321h-6.983v-3.288h1.056v2.425h5.928V367.321z M374.821,361.117
		h-1.572v3.673h-1.056v-7.62h1.056v3.06h1.572V361.117z"/>
	<path d="M381.985,364.369l-0.624,0.793c-0.536-0.312-1.061-0.763-1.572-1.351s-0.848-1.162-1.008-1.722
		c-0.152,0.616-0.473,1.229-0.96,1.842c-0.488,0.612-1.044,1.103-1.668,1.47l-0.672-0.768c0.823-0.488,1.487-1.146,1.991-1.975
		c0.504-0.827,0.756-1.737,0.756-2.729v-0.84h-2.376v-0.864h5.82v0.864h-2.352v0.84c0,0.976,0.248,1.854,0.744,2.634
		C380.56,363.343,381.201,363.945,381.985,364.369z M383.113,357.169h1.067v10.487h-1.067V357.169z"/>
	<path d="M394.549,360.733c0,0.816-0.306,1.486-0.918,2.01c-0.612,0.524-1.434,0.826-2.466,0.906v1.776h4.212v0.876h-9.468v-0.876
		h4.188v-1.788c-1.023-0.088-1.84-0.392-2.448-0.912c-0.607-0.52-0.911-1.184-0.911-1.992c0-0.872,0.357-1.576,1.073-2.111
		c0.716-0.536,1.658-0.805,2.826-0.805c1.184,0,2.132,0.267,2.844,0.798C394.192,359.147,394.549,359.853,394.549,360.733z
		 M392.677,362.197c0.521-0.376,0.78-0.863,0.78-1.464c0-0.6-0.258-1.088-0.774-1.464c-0.516-0.376-1.198-0.563-2.046-0.563
		c-0.84,0-1.518,0.188-2.034,0.563c-0.516,0.376-0.773,0.864-0.773,1.464c0,0.601,0.258,1.088,0.773,1.464
		c0.517,0.377,1.194,0.564,2.034,0.564S392.157,362.574,392.677,362.197z"/>
	<path d="M397.789,362.341h0.239c1.368,0,2.389-0.076,3.061-0.229l0.12,0.828c-0.809,0.177-1.893,0.265-3.252,0.265h-1.225v-5.112
		h3.937v0.864h-2.88v1.224h2.436v0.852h-2.436V362.341z M405.421,367.345h-7.212v-3.276h1.067v2.412h6.145V367.345z
		 M403.177,364.633h-1.02v-3.66h-1.393v-0.852h1.393v-2.761h1.02V364.633z M405.144,364.969h-1.02v-7.8h1.02V364.969z"/>
	<path d="M413.016,362.33l-0.612,0.827c-0.512-0.216-1.01-0.554-1.493-1.014c-0.484-0.46-0.835-0.946-1.051-1.458
		c-0.16,0.552-0.485,1.098-0.978,1.638s-1.015,0.935-1.566,1.183l-0.647-0.828c0.744-0.312,1.369-0.814,1.878-1.506
		c0.508-0.692,0.762-1.438,0.762-2.238v-1.176h1.08v1.128c0,0.792,0.266,1.504,0.798,2.136S412.328,362.089,413.016,362.33z
		 M415.501,367.357h-7.068v-3.275h1.068v2.411h6V367.357z M415.272,364.79h-1.067v-7.62h1.067V364.79z"/>
	<path d="M420.768,366.313v-8.063h1.056v8.063H420.768z"/>
	<path d="M423.864,366.313v-8.063h1.056v8.063H423.864z"/>
</g>
<g>
	<path fill="#FFFFFF" d="M35.043,177.774v-6.948h-2.292v-1.284h6.3v1.284h-2.316v6.948H35.043z"/>
	<path fill="#FFFFFF" d="M40.143,177.774v-8.232h1.704v6.924h3.384v1.308H40.143z"/>
	<path fill="#FFFFFF" d="M46.395,177.774v-8.232h2.952c1.976,0,2.964,0.816,2.964,2.448c0,1.04-0.488,1.744-1.464,2.112v0.06
		l2.04,3.612h-1.956l-1.632-3.24h-1.2v3.24H46.395z M48.087,173.418h1.056c0.496,0,0.854-0.11,1.074-0.33
		c0.22-0.22,0.33-0.558,0.33-1.014c0-0.448-0.11-0.772-0.33-0.972c-0.22-0.2-0.582-0.3-1.086-0.3h-1.044V173.418z"/>
	<path fill="#FFFFFF" d="M55.443,177.882c-0.856,0-1.544-0.144-2.064-0.432v-1.128c0.6,0.256,1.212,0.384,1.836,0.384
		c0.784,0,1.176-0.224,1.176-0.672c0-0.2-0.064-0.352-0.192-0.456s-0.352-0.188-0.672-0.252l-0.576-0.132
		c-0.52-0.104-0.916-0.296-1.188-0.576c-0.272-0.28-0.408-0.696-0.408-1.248c0-0.6,0.2-1.07,0.6-1.41
		c0.4-0.34,0.992-0.51,1.776-0.51c0.72,0,1.332,0.112,1.836,0.336v1.128c-0.584-0.2-1.144-0.3-1.68-0.3
		c-0.704,0-1.056,0.216-1.056,0.648c0,0.2,0.06,0.346,0.18,0.438c0.12,0.092,0.328,0.166,0.624,0.222l0.588,0.12
		c0.607,0.128,1.042,0.334,1.302,0.618c0.26,0.284,0.39,0.698,0.39,1.242c0,0.648-0.21,1.14-0.63,1.476
		C56.865,177.714,56.251,177.882,55.443,177.882z"/>
	<path fill="#FFFFFF" d="M65.547,178.722h-1.464v-4.932h-0.66c-0.048,0.6-0.152,1.138-0.312,1.614s-0.414,0.878-0.762,1.206
		c-0.348,0.328-0.766,0.492-1.254,0.492c-0.544,0-1-0.204-1.368-0.612c-0.368-0.408-0.624-0.896-0.768-1.464
		c-0.144-0.568-0.216-1.192-0.216-1.872c0-0.664,0.072-1.274,0.216-1.83s0.4-1.034,0.768-1.434c0.368-0.4,0.824-0.6,1.368-0.6
		c0.472,0,0.878,0.152,1.218,0.456c0.34,0.304,0.592,0.678,0.756,1.122s0.274,0.954,0.33,1.53h0.684v-3.672h1.464V178.722z
		 M61.971,173.178c0-1.608-0.288-2.412-0.864-2.412c-0.568,0-0.852,0.804-0.852,2.412c0,1.6,0.284,2.4,0.852,2.4
		C61.683,175.578,61.971,174.778,61.971,173.178z M67.755,179.214h-1.488v-10.692h1.488V179.214z"/>
	<path fill="#FFFFFF" d="M23.787,183.366c-0.008,0.984-0.238,1.858-0.69,2.622c-0.452,0.764-1.046,1.364-1.782,1.8
		c-0.736,0.436-1.576,0.73-2.52,0.882l-0.576-1.308c0.984-0.144,1.824-0.458,2.52-0.942c0.696-0.484,1.112-1.066,1.248-1.746h-3.288
		v-1.308H23.787z M27.399,193.542h-7.428v-2.952h5.52v-0.588h-5.52v-1.236h7.128v2.964h-5.532v0.552h5.832V193.542z M27.099,188.226
		h-1.608v-0.78h-1.716v-1.188h1.716v-0.792h-1.632v-1.176h1.632v-1.368h1.608V188.226z"/>
	<path fill="#FFFFFF" d="M34.779,185.862h-6.216v-1.164h6.216V185.862z M34.287,187.77c0,0.48-0.244,0.884-0.732,1.212
		c-0.488,0.328-1.104,0.492-1.848,0.492c-0.76,0-1.382-0.164-1.866-0.492c-0.484-0.328-0.726-0.732-0.726-1.212
		c0-0.488,0.242-0.896,0.726-1.224c0.484-0.328,1.106-0.492,1.866-0.492c0.752,0,1.37,0.164,1.854,0.492
		C34.045,186.874,34.287,187.282,34.287,187.77z M36.999,193.53h-7.092v-3.72h1.596v0.72h3.924v-0.72h1.572V193.53z M30.135,184.35
		v-1.188h3.156v1.188H30.135z M30.987,187.32c-0.184,0.116-0.276,0.266-0.276,0.45s0.092,0.33,0.276,0.438s0.424,0.162,0.72,0.162
		s0.536-0.054,0.72-0.162s0.276-0.254,0.276-0.438s-0.094-0.334-0.282-0.45c-0.188-0.116-0.426-0.174-0.714-0.174
		C31.411,187.146,31.171,187.204,30.987,187.32z M35.427,192.318v-0.6h-3.924v0.6H35.427z M38.439,187.242h-1.44v2.184h-1.572
		v-6.504h1.572v3.024h1.44V187.242z"/>
	<path fill="#FFFFFF" d="M45.111,186.714h-6.216v-1.248h6.216V186.714z M39.459,189.366c0-0.688,0.246-1.242,0.738-1.662
		c0.492-0.42,1.114-0.63,1.866-0.63c0.744,0,1.368,0.212,1.872,0.636c0.504,0.424,0.756,0.976,0.756,1.656
		c0,0.68-0.252,1.234-0.756,1.662c-0.504,0.428-1.128,0.642-1.872,0.642c-0.744,0-1.364-0.214-1.86-0.642
		C39.707,190.6,39.459,190.046,39.459,189.366z M40.431,184.842v-1.272h3.3v1.272H40.431z M41.205,188.526
		c-0.228,0.216-0.342,0.496-0.342,0.84c0,0.344,0.114,0.624,0.342,0.84s0.514,0.324,0.858,0.324c0.336,0,0.622-0.108,0.858-0.324
		c0.236-0.216,0.354-0.496,0.354-0.84c0-0.344-0.116-0.624-0.348-0.84c-0.232-0.216-0.52-0.324-0.864-0.324
		C41.719,188.202,41.433,188.31,41.205,188.526z M47.379,182.922v4.344h1.452v1.296h-1.452v5.052h-1.584v-10.692H47.379z"/>
	<path fill="#FFFFFF" d="M59.019,189.354h-9.66v-1.272h9.66V189.354z M57.903,193.326h-7.356v-3.168h1.596v1.932h5.76V193.326z
		 M57.855,187.17h-7.224v-3.9h1.608v2.664h5.616V187.17z"/>
	<path fill="#FFFFFF" d="M71.618,193.59h-7.572v-2.88h5.712v-0.48h-5.7v-1.248h2.88v-0.66h-4.044v-1.188h9.66v1.188h-4.044v0.66
		h2.844v2.832h-5.724v0.492h5.988V193.59z M71.27,186.642h-7.092v-3.384h7.092V186.642z M69.651,185.43v-0.948h-3.876v0.948H69.651z
		"/>
	<path fill="#FFFFFF" d="M73.754,184.71v-1.26h5.628v1.26h-1.872c0.184,1.192,0.92,1.992,2.208,2.4l-0.876,1.212
		c-0.376-0.12-0.776-0.366-1.2-0.738c-0.424-0.372-0.756-0.778-0.996-1.218c-0.152,0.528-0.452,0.996-0.9,1.404
		c-0.448,0.408-0.936,0.696-1.464,0.864l-0.972-1.212c0.744-0.264,1.32-0.614,1.728-1.05s0.648-0.99,0.72-1.662H73.754z
		 M82.454,193.53h-7.428v-2.892h5.52v-0.528h-5.58v-1.248h7.188v2.916h-5.532v0.504h5.832V193.53z M82.155,188.418h-1.608v-5.496
		h1.608V188.418z"/>
</g>
<g>
	<rect x="225.517" y="467.358" fill="none" width="3.973" height="0"/>
</g>
<g>
</g>
<g>
</g>
<g>
</g>
<g>
</g>
<g>
</g>
<g>
</g>
</svg>
