<?xml version="1.0" encoding="UTF-8"?>
<svg id="_레이어_1" data-name="레이어 1" xmlns="http://www.w3.org/2000/svg" xmlns:xlink="http://www.w3.org/1999/xlink" viewBox="0 0 250.694 234.722">
  <defs>
    <style>
      .cls-1 {
        fill: url(#_무제_그라디언트_4-4);
      }

      .cls-1, .cls-2, .cls-3, .cls-4, .cls-5, .cls-6, .cls-7, .cls-8, .cls-9, .cls-10 {
        stroke-width: 0px;
      }

      .cls-2, .cls-11, .cls-12 {
        fill: #ed1c24;
      }

      .cls-13, .cls-14, .cls-15, .cls-11, .cls-16, .cls-12, .cls-17, .cls-18, .cls-19, .cls-20, .cls-21 {
        stroke: #231f20;
      }

      .cls-13, .cls-15, .cls-18, .cls-19, .cls-20, .cls-21 {
        stroke-miterlimit: 10;
      }

      .cls-13, .cls-6 {
        fill: #fff;
      }

      .cls-13, .cls-17, .cls-18 {
        stroke-width: .479px;
      }

      .cls-3 {
        fill: #00aeef;
      }

      .cls-22 {
        clip-path: url(#clippath-2);
      }

      .cls-14, .cls-15, .cls-4, .cls-16, .cls-17, .cls-18, .cls-19, .cls-21 {
        fill: none;
      }

      .cls-14, .cls-11 {
        stroke-width: .119px;
      }

      .cls-15, .cls-20 {
        stroke-width: .414px;
      }

      .cls-23 {
        font-family: AppleSDGothicNeoB00, AppleSDGothicNeoB00;
        font-size: 6.708px;
      }

      .cls-23, .cls-7 {
        fill: #231f20;
      }

      .cls-24 {
        clip-path: url(#clippath-1);
      }

      .cls-5 {
        fill: url(#_무제_그라디언트_4-2);
      }

      .cls-16, .cls-12 {
        stroke-width: .027px;
      }

      .cls-25 {
        clip-path: url(#clippath);
      }

      .cls-26 {
        clip-path: url(#clippath-3);
      }

      .cls-8 {
        fill: url(#_무제_그라디언트_4-3);
      }

      .cls-9 {
        fill: url(#_무제_그라디언트_4);
      }

      .cls-19 {
        stroke-width: .958px;
      }

      .cls-10, .cls-20 {
        fill: #b4ddea;
      }

      .cls-21 {
        stroke-width: .24px;
      }
    </style>
    <clipPath id="clippath">
      <path class="cls-4" d="m158.201,203.713c0-.806-.654-1.461-1.461-1.461s-1.461.655-1.461,1.461v10.655c0,.519.285,1.009.735,1.267.315.181.715.284,1.06.108.203-.103.069-.301.017-.608-.083-.505-.028-1.043.293-1.604.385-.676.816-.521.816-.975v-8.845Z"/>
    </clipPath>
    <radialGradient id="_무제_그라디언트_4" data-name="무제 그라디언트 4" cx="-101.492" cy="474.35" fx="-101.492" fy="474.35" r=".479" gradientTransform="translate(-1101.154 -5666.985) rotate(-180) scale(12.394 -12.394)" gradientUnits="userSpaceOnUse">
      <stop offset="0" stop-color="#e8f3f9"/>
      <stop offset="1" stop-color="#0faed6"/>
    </radialGradient>
    <clipPath id="clippath-1">
      <path class="cls-4" d="m161.714,203.713c0-.806-.654-1.461-1.46-1.461s-1.461.655-1.461,1.461v8.845c0,.453.431.299.817.975.321.562.375,1.099.292,1.604-.051.306-.185.505.018.608.345.175.746.072,1.06-.108.449-.259.735-.748.735-1.267v-10.655Z"/>
    </clipPath>
    <radialGradient id="_무제_그라디언트_4-2" data-name="무제 그라디언트 4" cx="-101.184" cy="474.35" fx="-101.184" fy="474.35" r=".479" gradientTransform="translate(-1093.834 -5667.024) rotate(-180) scale(12.394 -12.394)" xlink:href="#_무제_그라디언트_4"/>
    <clipPath id="clippath-2">
      <path class="cls-4" d="m190.812,193.941c0-.182-.148-.33-.33-.33s-.33.148-.33.33v2.407c0,.117.064.228.166.286.071.041.162.064.24.024.046-.023.016-.068.004-.137-.019-.114-.006-.236.066-.362.087-.153.184-.118.184-.22v-1.998Z"/>
    </clipPath>
    <radialGradient id="_무제_그라디언트_4-3" data-name="무제 그라디언트 4" cx="-104.216" cy="473.043" fx="-104.216" fy="473.043" r=".108" xlink:href="#_무제_그라디언트_4"/>
    <clipPath id="clippath-3">
      <path class="cls-4" d="m191.605,193.941c0-.182-.148-.33-.33-.33s-.33.148-.33.33v1.998c0,.102.097.068.184.22.073.127.085.248.066.362-.012.069-.042.114.004.137.078.04.168.016.24-.024.102-.058.166-.169.166-.286v-2.407Z"/>
    </clipPath>
    <radialGradient id="_무제_그라디언트_4-4" data-name="무제 그라디언트 4" cx="-103.689" cy="473.043" fx="-103.689" fy="473.043" r=".108" gradientTransform="translate(-1093.834 -5667.024) rotate(-180) scale(12.394 -12.394)" xlink:href="#_무제_그라디언트_4"/>
  </defs>
  <rect class="cls-6" width="250.694" height="234.722"/>
  <g>
    <path class="cls-10" d="m11.926,25.099v166.919c4.573.036,20.162.112,28.617.046,21.874-.169,27.077-.767,41.262-.666,3.126.022,13.218.459,33.276,1.331,13.088.569,26.189.872,39.266,1.664,10.742.65,21.607-.734,32.278.666,1.562.205,9.654,1.296,10.316-.666.375-1.112-2.024-2.059-2.995-4.659-1.467-3.929.49-11.206,6.322-12.978,6.035-1.834,11.825,3.563,12.645,7.986.85,4.587-4.331,7.761-2.995,9.983,1.225,2.037,6.263.681,12.645,0,4.541-.485,7.938-1.716,16.133-.612V19.717l-2.49-.688c-22.577,1.082-34.493.661-41.262,0-.651-.064-5.059-.495-10.981-.666-2.337-.067-2.293-.008-16.305.666-6.026.29-8.404.393-9.983,2.329-1.814,2.226-1.371,5.399-1.331,5.657.439,2.857,2.257,3.402,3.328,5.99,1.334,3.225.843,8.012-1.997,10.981-3.509,3.668-10.433,4.38-14.641.333-3.427-3.296-4.022-8.756-1.997-11.979,2.729-4.342,9.444-3.394,9.65-5.657.173-1.896-4.402-4.122-8.319-4.991-3.622-.804-5.341-.149-9.317,0-10.638.399-14.258-3.688-22.628-1.331-3.579,1.008-4.158,2.105-4.326,2.662-.982,3.255,6.573,6.246,5.99,9.983-.579,3.71-9.089,7.576-13.31,4.326-2.175-1.675-2.854-4.963-2.662-7.321.27-3.318,2.233-4.425,1.664-5.657-.897-1.941-6.601-.986-16.305.333-13.627,1.852-18.846,2.205-20.964-.666-1.251-1.696-1.234-4.266-2.329-4.326-1.03-.056-1.976,2.164-2.329,2.995-1.414,3.32-.461,5.079-1.664,5.99-1.386,1.05-4.619.205-5.657-1.664-1.234-2.222,1.165-4.936,0-5.99-.965-.873-3.428.255-4.326.666-1.79.82-2.897,1.903-2.995,1.997-1.636,1.569-8.734,2.277-29.283,0v1.411Z"/>
    <g>
      <path class="cls-18" d="m238.696,19.335l-2.49-.688c-22.577,1.082-34.493.661-41.262,0-.651-.064-5.059-.495-10.981-.666-2.337-.067-2.293-.008-16.305.666-6.026.29-8.404.393-9.983,2.329-1.814,2.226-1.371,5.399-1.331,5.657.439,2.857,2.257,3.402,3.328,5.99,1.334,3.225.843,8.012-1.997,10.981-3.509,3.668-10.433,4.38-14.641.333-3.427-3.296-4.022-8.756-1.997-11.979,2.729-4.342,9.444-3.394,9.65-5.657.173-1.896-4.402-4.122-8.319-4.991-3.622-.804-5.341-.149-9.317,0-10.638.399-14.258-3.688-22.628-1.331-3.579,1.008-4.158,2.105-4.326,2.662-.982,3.255,6.573,6.246,5.99,9.983-.579,3.71-9.089,7.576-13.31,4.326-2.175-1.675-2.854-4.963-2.662-7.321.27-3.318,2.233-4.425,1.664-5.657-.897-1.941-6.601-.986-16.305.333-13.627,1.852-18.846,2.205-20.964-.666-1.251-1.696-1.234-4.266-2.329-4.326-1.03-.056-1.976,2.164-2.329,2.995-1.414,3.32-.461,5.079-1.664,5.99-1.386,1.05-4.619.205-5.657-1.664-1.234-2.222,1.165-4.936,0-5.99-.965-.873-3.428.255-4.326.666-1.79.82-2.897,1.903-2.995,1.997-1.636,1.569-8.734,2.277-29.283,0v1.411"/>
      <path class="cls-18" d="m11.926,191.635c4.573.036,20.162.112,28.617.046,21.874-.169,27.077-.767,41.262-.666,3.126.022,13.218.459,33.276,1.331,13.088.569,26.189.872,39.266,1.664,10.742.65,21.607-.734,32.278.666,1.562.205,9.654,1.296,10.316-.666.375-1.112-2.024-2.059-2.995-4.659-1.467-3.929.49-11.206,6.322-12.978,6.035-1.834,11.825,3.563,12.645,7.986.85,4.587-4.331,7.761-2.995,9.983,1.225,2.037,6.263.681,12.645,0,4.541-.485,7.938-1.716,16.133-.612"/>
      <path class="cls-13" d="m193.203,35.233c-.983-.294-6.896-1.926-10.981,1.997-3.425,3.289-3.434,8.439-1.997,11.979,1.811,4.46,6.381,7.504,11.314,7.321,5.079-.189,10.187-3.786,10.981-8.984.932-6.103-4.617-10.906-9.317-12.312Z"/>
      <path class="cls-13" d="m207.946,65.426c-3.201.318-7.056,2.161-8.593,5.729-2.134,4.954.914,11.578,6.301,13.748,5.539,2.232,12.627-.616,14.321-6.015,1.396-4.449-1.339-9.138-4.583-11.457-.652-.466-3.506-2.396-7.447-2.005Z"/>
      <circle class="cls-13" cx="225.972" cy="68.966" r="3.592"/>
      <path class="cls-13" d="m223.099,102.704c-1.984,0-3.592,1.608-3.592,3.592,0,.044.005.087.007.131-.869-1.337-1.974-2.491-3.148-3.33-.652-.466-3.506-2.396-7.447-2.005-3.201.318-7.056,2.161-8.593,5.729-2.134,4.954.914,11.578,6.301,13.748,5.539,2.232,12.627-.616,14.321-6.015.583-1.857.439-3.754-.154-5.505.624.523,1.428.839,2.306.839,1.984,0,3.592-1.608,3.592-3.592s-1.608-3.592-3.592-3.592Z"/>
      <path class="cls-13" d="m208.863,138.397c-1.282.317-5.225,1.293-7.542,5.028-2.069,3.335-2.08,7.644-.314,10.999,2.413,4.585,8.131,7.366,13.513,5.656,4.747-1.508,7.743-6.037,7.856-10.684.121-4.968-3.062-9.578-7.228-10.999-2.643-.901-5.054-.305-6.285,0Z"/>
      <g>
        <path class="cls-18" d="m25.962,42.425c40.455-2.11,73.443,1.002,96.7,4.452,43.274,6.418,50.627,13.672,53.42,16.817,4.578,5.156,11.499,15.707,12.366,94.474.12,10.892.092,20.215.029,27.314"/>
        <polygon class="cls-7" points="186.673 184.135 188.448 184.888 190.222 184.135 188.448 188.341 186.673 184.135"/>
      </g>
      <circle class="cls-2" cx="52.672" cy="24.584" r="1.608"/>
      <circle class="cls-2" cx="39.564" cy="19.436" r="1.608"/>
      <circle class="cls-2" cx="49.457" cy="16.221" r="1.608"/>
      <circle class="cls-2" cx="58.36" cy="7.317" r="1.608"/>
      <circle class="cls-2" cx="156.678" cy="32.187" r="1.608"/>
      <circle class="cls-2" cx="181.75" cy="42.669" r="1.608"/>
      <circle class="cls-2" cx="190.972" cy="37.165" r="1.608"/>
      <circle class="cls-2" cx="204.296" cy="68.966" r="1.608"/>
      <circle class="cls-2" cx="200.574" cy="44.832" r="1.608"/>
      <circle class="cls-2" cx="194.187" cy="53.322" r="1.608"/>
      <circle class="cls-2" cx="211.116" cy="82.954" r="1.608"/>
      <circle class="cls-2" cx="184.418" cy="51.715" r="1.608"/>
      <circle class="cls-2" cx="189.098" cy="45.884" r="1.608"/>
      <circle class="cls-2" cx="210.531" cy="75.52" r="1.608"/>
      <circle class="cls-2" cx="211.116" cy="113.118" r="1.608"/>
      <circle class="cls-2" cx="213.987" cy="69.703" r="1.608"/>
      <circle class="cls-2" cx="217.941" cy="75.52" r="1.608"/>
      <circle class="cls-2" cx="203.121" cy="78.384" r="1.608"/>
      <circle class="cls-2" cx="204.296" cy="113.812" r="1.608"/>
      <circle class="cls-2" cx="98.672" cy="28.71" r="1.608"/>
      <circle class="cls-2" cx="101.887" cy="35.821" r="1.608"/>
      <circle class="cls-2" cx="151.608" cy="44.867" r="1.608"/>
      <circle class="cls-2" cx="107.246" cy="28.71" r="1.608"/>
      <circle class="cls-2" cx="158.286" cy="39.036" r="1.608"/>
      <circle class="cls-2" cx="145.071" cy="30.812" r="1.608"/>
      <circle class="cls-2" cx="107.741" cy="34.213" r="1.608"/>
      <circle class="cls-2" cx="141.856" cy="37.984" r="1.608"/>
      <circle class="cls-2" cx="204.729" cy="104.659" r="1.608"/>
      <circle class="cls-2" cx="211.549" cy="118.647" r="1.608"/>
      <circle class="cls-2" cx="214.42" cy="105.397" r="1.608"/>
      <circle class="cls-2" cx="207.105" cy="154.225" r=".504"/>
      <circle class="cls-2" cx="206.408" cy="194.608" r=".504"/>
      <circle class="cls-2" cx="209.149" cy="197.314" r=".504"/>
      <circle class="cls-2" cx="207.609" cy="200.305" r=".504"/>
      <circle class="cls-2" cx="202.47" cy="199.297" r=".504"/>
      <circle class="cls-2" cx="203.544" cy="201.831" r=".504"/>
      <circle class="cls-2" cx="205.103" cy="151.573" r=".504"/>
      <circle class="cls-2" cx="202.47" cy="151.069" r=".504"/>
      <circle class="cls-2" cx="208.141" cy="151.804" r=".504"/>
      <circle class="cls-2" cx="216.913" cy="150.669" r=".504"/>
      <circle class="cls-2" cx="211.194" cy="151.069" r=".504"/>
      <circle class="cls-2" cx="202.47" cy="180.909" r=".504"/>
      <circle class="cls-2" cx="205.052" cy="183.033" r=".504"/>
      <circle class="cls-2" cx="200.167" cy="188.341" r=".504"/>
      <circle class="cls-2" cx="203.544" cy="192.007" r=".504"/>
      <circle class="cls-2" cx="204.048" cy="197.314" r=".504"/>
      <circle class="cls-2" cx="198.997" cy="198.679" r=".504"/>
      <circle class="cls-2" cx="206.336" cy="189.681" r=".504"/>
      <circle class="cls-2" cx="215.251" cy="153.843" r=".504"/>
      <circle class="cls-2" cx="212.078" cy="157.563" r=".504"/>
      <circle class="cls-2" cx="200.671" cy="194.104" r=".504"/>
      <circle class="cls-2" cx="215.619" cy="148.375" r=".504"/>
      <circle class="cls-2" cx="213.67" cy="146.354" r=".504"/>
      <circle class="cls-2" cx="214.747" cy="143.493" r=".504"/>
      <circle class="cls-2" cx="208.645" cy="147.943" r=".504"/>
      <circle class="cls-2" cx="209.639" cy="144.082" r=".504"/>
      <circle class="cls-2" cx="205.904" cy="144.479" r=".504"/>
      <circle class="cls-2" cx="218.373" cy="111.214" r="1.608"/>
      <g>
        <path class="cls-3" d="m224.179,68.45c-.199,0-.361-.162-.361-.361s.162-.361.361-.361.361.162.361.361-.162.361-.361.361Zm0-.599c-.131,0-.238.107-.238.238s.107.238.238.238.238-.107.238-.238-.107-.238-.238-.238Z"/>
        <path class="cls-3" d="m224.179,66.987c-.199,0-.361-.162-.361-.361s.162-.361.361-.361.361.162.361.361-.162.361-.361.361Zm0-.599c-.131,0-.238.107-.238.238s.107.238.238.238.238-.107.238-.238-.107-.238-.238-.238Z"/>
        <path class="cls-3" d="m224.504,66.765l.509.509.103.103.853.853c.006.006-.002.02-.012.021l-.169.008c-.133.006-.248-.037-.326-.122l-.526-.58-.102-.112-.48-.529.15-.15Z"/>
        <rect class="cls-3" x="224.85" y="67.339" width=".251" height=".149" transform="translate(18.225 178.826) rotate(-45)"/>
        <path class="cls-3" d="m224.491,67.977l1.465-1.465c.006-.006-.002-.02-.012-.021l-.169-.008c-.133-.006-.248.037-.326.122l-1.108,1.221.15.15Z"/>
        <circle class="cls-3" cx="224.921" cy="67.362" r=".054"/>
      </g>
      <g>
        <path class="cls-3" d="m226.332,69.351c-.199,0-.361-.162-.361-.361s.162-.361.361-.361.361.162.361.361-.162.361-.361.361Zm0-.599c-.131,0-.238.107-.238.238s.107.238.238.238.238-.107.238-.238-.107-.238-.238-.238Z"/>
        <path class="cls-3" d="m226.332,67.888c-.199,0-.361-.162-.361-.361s.162-.361.361-.361.361.162.361.361-.162.361-.361.361Zm0-.599c-.131,0-.238.107-.238.238s.107.238.238.238.238-.107.238-.238-.107-.238-.238-.238Z"/>
        <path class="cls-3" d="m226.658,67.666l.509.509.103.103.853.853c.006.006-.002.02-.012.021l-.169.008c-.133.006-.248-.037-.326-.122l-.526-.58-.102-.112-.48-.529.15-.15Z"/>
        <rect class="cls-3" x="227.003" y="68.24" width=".251" height=".149" transform="translate(18.219 180.612) rotate(-45)"/>
        <path class="cls-3" d="m226.644,68.878l1.465-1.465c.006-.006-.002-.02-.012-.021l-.169-.008c-.133-.006-.248.037-.326.122l-1.108,1.221.15.15Z"/>
        <circle class="cls-3" cx="227.074" cy="68.263" r=".054"/>
      </g>
      <g>
        <path class="cls-3" d="m224.26,71.666c-.199,0-.361-.162-.361-.361s.162-.361.361-.361.361.162.361.361-.162.361-.361.361Zm0-.599c-.131,0-.238.107-.238.238s.107.238.238.238.238-.107.238-.238-.107-.238-.238-.238Z"/>
        <path class="cls-3" d="m224.26,70.203c-.199,0-.361-.162-.361-.361s.162-.361.361-.361.361.162.361.361-.162.361-.361.361Zm0-.599c-.131,0-.238.107-.238.238s.107.238.238.238.238-.107.238-.238-.107-.238-.238-.238Z"/>
        <path class="cls-3" d="m224.585,69.98l.509.509.103.103.853.853c.006.006-.002.02-.012.021l-.169.008c-.133.006-.248-.037-.326-.122l-.526-.58-.102-.112-.48-.529.15-.15Z"/>
        <rect class="cls-3" x="224.93" y="70.554" width=".251" height=".149" transform="translate(15.975 179.824) rotate(-45)"/>
        <path class="cls-3" d="m224.571,71.192l1.465-1.465c.006-.006-.002-.02-.012-.021l-.169-.008c-.133-.006-.248.037-.326.122l-1.108,1.221.15.15Z"/>
        <circle class="cls-3" cx="225.001" cy="70.577" r=".054"/>
      </g>
      <g>
        <path class="cls-3" d="m226.6,71.864c-.199,0-.361-.162-.361-.361s.162-.361.361-.361.361.162.361.361-.162.361-.361.361Zm0-.599c-.131,0-.238.107-.238.238s.107.238.238.238.238-.107.238-.238-.107-.238-.238-.238Z"/>
        <path class="cls-3" d="m226.6,70.401c-.199,0-.361-.162-.361-.361s.162-.361.361-.361.361.162.361.361-.162.361-.361.361Zm0-.599c-.131,0-.238.107-.238.238s.107.238.238.238.238-.107.238-.238-.107-.238-.238-.238Z"/>
        <path class="cls-3" d="m226.925,70.179l.509.509.103.103.853.853c.006.006-.002.02-.012.021l-.169.008c-.133.006-.248-.037-.326-.122l-.526-.58-.102-.112-.48-.529.15-.15Z"/>
        <rect class="cls-3" x="227.271" y="70.753" width=".251" height=".149" transform="translate(16.52 181.537) rotate(-45)"/>
        <path class="cls-3" d="m226.912,71.39l1.465-1.465c.006-.006-.002-.02-.012-.021l-.169-.008c-.133-.006-.248.037-.326.122l-1.108,1.221.15.15Z"/>
        <circle class="cls-3" cx="227.342" cy="70.775" r=".054"/>
      </g>
      <g>
        <path class="cls-3" d="m222.149,105.568c-.199,0-.361-.162-.361-.361s.162-.361.361-.361.361.162.361.361-.162.361-.361.361Zm0-.599c-.131,0-.238.107-.238.238s.107.238.238.238.238-.107.238-.238-.107-.238-.238-.238Z"/>
        <path class="cls-3" d="m222.149,104.105c-.199,0-.361-.162-.361-.361s.162-.361.361-.361.361.162.361.361-.162.361-.361.361Zm0-.599c-.131,0-.238.107-.238.238s.107.238.238.238.238-.107.238-.238-.107-.238-.238-.238Z"/>
        <path class="cls-3" d="m222.474,103.882l.509.509.103.103.853.853c.006.006-.002.02-.012.021l-.169.008c-.133.006-.248-.037-.326-.122l-.526-.58-.102-.112-.48-.529.15-.15Z"/>
        <rect class="cls-3" x="222.819" y="104.456" width=".251" height=".149" transform="translate(-8.615 188.261) rotate(-45)"/>
        <path class="cls-3" d="m222.46,105.094l1.465-1.465c.006-.006-.002-.02-.012-.021l-.169-.008c-.133-.006-.248.037-.326.122l-1.108,1.221.15.15Z"/>
        <circle class="cls-3" cx="222.89" cy="104.479" r=".054"/>
      </g>
      <g>
        <path class="cls-3" d="m221.793,108.096c-.199,0-.361-.162-.361-.361s.162-.361.361-.361.361.162.361.361-.162.361-.361.361Zm0-.599c-.131,0-.238.107-.238.238s.107.238.238.238.238-.107.238-.238-.107-.238-.238-.238Z"/>
        <path class="cls-3" d="m221.793,106.633c-.199,0-.361-.162-.361-.361s.162-.361.361-.361.361.162.361.361-.162.361-.361.361Zm0-.599c-.131,0-.238.107-.238.238s.107.238.238.238.238-.107.238-.238-.107-.238-.238-.238Z"/>
        <path class="cls-3" d="m222.119,106.411l.509.509.103.103.853.853c.006.006-.002.02-.012.021l-.169.008c-.133.006-.248-.037-.326-.122l-.526-.58-.102-.112-.48-.529.15-.15Z"/>
        <rect class="cls-3" x="222.464" y="106.985" width=".251" height=".149" transform="translate(-10.508 188.751) rotate(-45)"/>
        <path class="cls-3" d="m222.105,107.623l1.465-1.465c.006-.006-.002-.02-.012-.021l-.169-.008c-.133-.006-.248.037-.326.122l-1.108,1.221.15.15Z"/>
        <circle class="cls-3" cx="222.535" cy="107.008" r=".054"/>
      </g>
      <g>
        <path class="cls-3" d="m210.833,108.153c-.199,0-.361-.162-.361-.361s.162-.361.361-.361.361.162.361.361-.162.361-.361.361Zm0-.599c-.131,0-.238.107-.238.238s.107.238.238.238.238-.107.238-.238-.107-.238-.238-.238Z"/>
        <path class="cls-3" d="m210.833,106.691c-.199,0-.361-.162-.361-.361s.162-.361.361-.361.361.162.361.361-.162.361-.361.361Zm0-.599c-.131,0-.238.107-.238.238s.107.238.238.238.238-.107.238-.238-.107-.238-.238-.238Z"/>
        <path class="cls-3" d="m211.159,106.468l.509.509.103.103.853.853c.006.006-.002.02-.012.021l-.169.008c-.133.006-.248-.037-.326-.122l-.526-.58-.102-.112-.48-.529.15-.15Z"/>
        <rect class="cls-3" x="211.504" y="107.042" width=".251" height=".149" transform="translate(-13.758 181.017) rotate(-45)"/>
        <path class="cls-3" d="m211.145,107.68l1.465-1.465c.006-.006-.002-.02-.012-.021l-.169-.008c-.133-.006-.248.037-.326.122l-1.108,1.221.15.15Z"/>
        <circle class="cls-3" cx="211.575" cy="107.065" r=".054"/>
      </g>
      <g>
        <path class="cls-3" d="m213.271,113.114c-.199,0-.361-.162-.361-.361s.162-.361.361-.361.361.162.361.361-.162.361-.361.361Zm0-.599c-.131,0-.238.107-.238.238s.107.238.238.238.238-.107.238-.238-.107-.238-.238-.238Z"/>
        <path class="cls-3" d="m213.271,111.651c-.199,0-.361-.162-.361-.361s.162-.361.361-.361.361.162.361.361-.162.361-.361.361Zm0-.599c-.131,0-.238.107-.238.238s.107.238.238.238.238-.107.238-.238-.107-.238-.238-.238Z"/>
        <path class="cls-3" d="m213.596,111.429l.509.509.103.103.853.853c.006.006-.002.02-.012.021l-.169.008c-.133.006-.248-.037-.326-.122l-.526-.58-.102-.112-.48-.529.15-.15Z"/>
        <rect class="cls-3" x="213.942" y="112.002" width=".251" height=".149" transform="translate(-16.552 184.194) rotate(-45)"/>
        <path class="cls-3" d="m213.583,112.64l1.465-1.465c.006-.006-.002-.02-.012-.021l-.169-.008c-.133-.006-.248.037-.326.122l-1.108,1.221.15.15Z"/>
        <circle class="cls-3" cx="214.013" cy="112.025" r=".054"/>
      </g>
      <g>
        <path class="cls-3" d="m217.658,148.663c-.199,0-.361-.162-.361-.361s.162-.361.361-.361.361.162.361.361-.162.361-.361.361Zm0-.599c-.131,0-.238.107-.238.238s.107.238.238.238.238-.107.238-.238-.107-.238-.238-.238Z"/>
        <path class="cls-3" d="m217.658,147.2c-.199,0-.361-.162-.361-.361s.162-.361.361-.361.361.162.361.361-.162.361-.361.361Zm0-.599c-.131,0-.238.107-.238.238s.107.238.238.238.238-.107.238-.238-.107-.238-.238-.238Z"/>
        <path class="cls-3" d="m217.983,146.978l.509.509.103.103.853.853c.006.006-.002.02-.012.021l-.169.008c-.133.006-.248-.037-.326-.122l-.526-.58-.102-.112-.48-.529.15-.15Z"/>
        <rect class="cls-3" x="218.328" y="147.552" width=".251" height=".149" transform="translate(-40.404 197.708) rotate(-45)"/>
        <path class="cls-3" d="m217.969,148.19l1.465-1.465c.006-.006-.002-.02-.012-.021l-.169-.008c-.133-.006-.248.037-.326.122l-1.108,1.221.15.15Z"/>
        <circle class="cls-3" cx="218.399" cy="147.575" r=".054"/>
      </g>
      <g>
        <path class="cls-3" d="m211.423,155.821c-.199,0-.361-.162-.361-.361s.162-.361.361-.361.361.162.361.361-.162.361-.361.361Zm0-.599c-.131,0-.238.107-.238.238s.107.238.238.238.238-.107.238-.238-.107-.238-.238-.238Z"/>
        <path class="cls-3" d="m211.423,154.358c-.199,0-.361-.162-.361-.361s.162-.361.361-.361.361.162.361.361-.162.361-.361.361Zm0-.599c-.131,0-.238.107-.238.238s.107.238.238.238.238-.107.238-.238-.107-.238-.238-.238Z"/>
        <path class="cls-3" d="m211.748,154.136l.509.509.103.103.853.853c.006.006-.002.02-.012.021l-.169.008c-.133.006-.248-.037-.326-.122l-.526-.58-.102-.112-.48-.529.15-.15Z"/>
        <rect class="cls-3" x="212.093" y="154.71" width=".251" height=".149" transform="translate(-47.292 195.396) rotate(-45)"/>
        <path class="cls-3" d="m211.734,155.347l1.465-1.465c.006-.006-.002-.02-.012-.021l-.169-.008c-.133-.006-.248.037-.326.122l-1.108,1.221.15.15Z"/>
        <circle class="cls-3" cx="212.164" cy="154.733" r=".054"/>
      </g>
      <g>
        <path class="cls-3" d="m204.891,149.539c-.199,0-.361-.162-.361-.361s.162-.361.361-.361.361.162.361.361-.162.361-.361.361Zm0-.599c-.131,0-.238.107-.238.238s.107.238.238.238.238-.107.238-.238-.107-.238-.238-.238Z"/>
        <path class="cls-3" d="m204.891,148.076c-.199,0-.361-.162-.361-.361s.162-.361.361-.361.361.162.361.361-.162.361-.361.361Zm0-.599c-.131,0-.238.107-.238.238s.107.238.238.238.238-.107.238-.238-.107-.238-.238-.238Z"/>
        <path class="cls-3" d="m205.216,147.854l.509.509.103.103.853.853c.006.006-.002.02-.012.021l-.169.008c-.133.006-.248-.037-.326-.122l-.526-.58-.102-.112-.48-.529.15-.15Z"/>
        <rect class="cls-3" x="205.561" y="148.428" width=".251" height=".149" transform="translate(-44.763 188.937) rotate(-45)"/>
        <path class="cls-3" d="m205.202,149.065l1.465-1.465c.006-.006-.002-.02-.012-.021l-.169-.008c-.133-.006-.248.037-.326.122l-1.108,1.221.15.15Z"/>
        <circle class="cls-3" cx="205.632" cy="148.451" r=".054"/>
      </g>
      <g>
        <path class="cls-3" d="m212.555,144.67c-.199,0-.361-.162-.361-.361s.162-.361.361-.361.361.162.361.361-.162.361-.361.361Zm0-.599c-.131,0-.238.107-.238.238s.107.238.238.238.238-.107.238-.238-.107-.238-.238-.238Z"/>
        <path class="cls-3" d="m212.555,143.207c-.199,0-.361-.162-.361-.361s.162-.361.361-.361.361.162.361.361-.162.361-.361.361Zm0-.599c-.131,0-.238.107-.238.238s.107.238.238.238.238-.107.238-.238-.107-.238-.238-.238Z"/>
        <path class="cls-3" d="m212.88,142.985l.509.509.103.103.853.853c.006.006-.002.02-.012.021l-.169.008c-.133.006-.248-.037-.326-.122l-.526-.58-.102-.112-.48-.529.15-.15Z"/>
        <rect class="cls-3" x="213.226" y="143.558" width=".251" height=".149" transform="translate(-39.075 192.93) rotate(-45)"/>
        <path class="cls-3" d="m212.867,144.196l1.465-1.465c.006-.006-.002-.02-.012-.021l-.169-.008c-.133-.006-.248.037-.326.122l-1.108,1.221.15.15Z"/>
        <circle class="cls-3" cx="213.297" cy="143.581" r=".054"/>
      </g>
    </g>
    <path class="cls-15" d="m143.571,205.363c-1.054,2.084-1.644,4.42-1.644,6.889,0,8.759,7.433,15.859,16.601,15.859s16.601-7.1,16.601-15.859c0-2.469-.591-4.806-1.644-6.889-4.046,1.231-9.261,1.974-14.957,1.974s-10.911-.743-14.957-1.974Z"/>
    <path class="cls-20" d="m158.527,196.393c-6.584,0-12.273,3.662-14.957,8.97,4.046,1.231,9.261,1.974,14.957,1.974s10.911-.743,14.957-1.974c-2.684-5.308-8.373-8.97-14.957-8.97Z"/>
    <g class="cls-25">
      <rect class="cls-9" x="155.28" y="202.253" width="2.921" height="13.667"/>
    </g>
    <path class="cls-14" d="m157.386,213.533c-.321.561-.376,1.099-.292,1.604.052.306.184.505-.018.608-.345.175-.746.072-1.06-.108-.451-.259-.735-.748-.735-1.267v-10.656c0-.806.654-1.461,1.461-1.461s1.46.654,1.46,1.461v8.845c0,.453-.429.299-.815.975Z"/>
    <g class="cls-24">
      <rect class="cls-5" x="158.793" y="202.253" width="2.922" height="13.667"/>
    </g>
    <path class="cls-14" d="m159.609,213.533c.321.561.375,1.099.292,1.604-.052.306-.184.505.018.608.345.175.745.072,1.06-.108.45-.259.735-.748.735-1.267v-10.656c0-.806-.655-1.461-1.46-1.461s-1.461.654-1.461,1.461v8.845c0,.453.431.299.817.975Z"/>
    <path class="cls-11" d="m159.816,215.26c0,.944-.59,1.707-1.319,1.707s-1.32-.763-1.32-1.707.591-1.707,1.32-1.707,1.319.764,1.319,1.707Z"/>
    <g class="cls-22">
      <rect class="cls-8" x="190.152" y="193.611" width=".66" height="3.088"/>
    </g>
    <path class="cls-16" d="m190.627,196.159c-.072.127-.085.248-.066.362.012.069.042.114-.004.137-.078.04-.168.016-.24-.024-.102-.058-.166-.169-.166-.286v-2.407c0-.182.148-.33.33-.33s.33.148.33.33v1.998c0,.102-.097.068-.184.22Z"/>
    <g class="cls-26">
      <rect class="cls-1" x="190.945" y="193.611" width=".66" height="3.088"/>
    </g>
    <path class="cls-16" d="m191.13,196.159c.072.127.085.248.066.362-.012.069-.042.114.004.137.078.04.168.016.24-.024.102-.058.166-.169.166-.286v-2.407c0-.182-.148-.33-.33-.33s-.33.148-.33.33v1.998c0,.102.097.068.184.22Z"/>
    <path class="cls-12" d="m191.176,196.549c0,.213-.133.386-.298.386s-.298-.172-.298-.386.134-.386.298-.386.298.173.298.386Z"/>
    <circle class="cls-17" cx="190.616" cy="195.187" r="3.802"/>
    <g>
      <path class="cls-19" d="m185.453,196.331s-5.664.339-9.282,4.016"/>
      <polygon class="cls-7" points="175.365 199.132 174.881 201.958 177.57 200.964 175.365 199.132"/>
    </g>
    <text class="cls-23" transform="translate(20.804 183.735)"><tspan x="0" y="0">세포질</tspan></text>
    <text class="cls-23" transform="translate(86.342 14.573)"><tspan x="0" y="0">세포내이입</tspan></text>
    <text class="cls-23" transform="translate(180.264 31.075)"><tspan x="0" y="0">파고좀</tspan></text>
    <text class="cls-23" transform="translate(214.394 61.989)"><tspan x="0" y="0">라이소좀</tspan></text>
    <text class="cls-23" transform="translate(118.661 211.613)"><tspan x="0" y="0">MHC II</tspan></text>
    <text class="cls-23" transform="translate(123.855 223.484)"><tspan x="0" y="0">항원</tspan></text>
    <g>
      <path class="cls-21" d="m137.289,221.248s15.099,1.887,19.614-1.869"/>
      <polygon class="cls-7" points="157.089 220.444 156.673 219.574 155.759 219.269 157.816 218.28 157.089 220.444"/>
    </g>
    <g>
      <path class="cls-21" d="m139.267,210.275s4.465-.013,13.161.076"/>
      <polygon class="cls-7" points="151.75 211.24 152.133 210.355 151.761 209.466 153.859 210.366 151.75 211.24"/>
    </g>
  </g>
</svg>