<?xml version="1.0" encoding="UTF-8"?>
<svg id="_레이어_1" data-name="레이어 1" xmlns="http://www.w3.org/2000/svg" viewBox="0 0 486.806 427.778">
  <defs>
    <style>
      .cls-1 {
        fill: #00a1e9;
      }

      .cls-1, .cls-2, .cls-3, .cls-4, .cls-5 {
        stroke-width: 0px;
      }

      .cls-6 {
        font-family: AppleSDGothicNeoM00, AppleSDGothicNeoM00;
        font-size: 12px;
      }

      .cls-6, .cls-2 {
        fill: #231916;
      }

      .cls-7 {
        fill: none;
      }

      .cls-7, .cls-8 {
        stroke: #231916;
        stroke-miterlimit: 10;
      }

      .cls-3, .cls-8 {
        fill: #fff;
      }

      .cls-4 {
        fill: #c1e3ef;
      }

      .cls-5 {
        fill: #e60013;
      }
    </style>
  </defs>
  <rect class="cls-3" width="486.806" height="427.778"/>
  <path class="cls-4" d="m4.877,51.611v348.348c9.544.075,42.077.234,59.722.097,45.649-.353,56.508-1.602,86.111-1.389,6.523.047,27.586.958,69.444,2.778,27.314,1.188,54.655,1.821,81.944,3.472,22.417,1.357,45.093-1.531,67.361,1.389,3.26.428,20.147,2.704,21.528-1.389.783-2.32-4.225-4.298-6.25-9.722-3.061-8.199,1.023-23.385,13.194-27.083,12.595-3.827,24.678,7.437,26.389,16.667,1.774,9.573-9.038,16.197-6.25,20.833,2.557,4.251,13.07,1.422,26.389,0,9.476-1.012,16.565-3.582,33.669-1.278V40.381l-5.197-1.435c-47.117,2.257-71.983,1.38-86.111,0-1.358-.133-10.558-1.033-22.917-1.389-4.876-.14-4.786-.017-34.028,1.389-12.575.605-17.539.82-20.833,4.861-3.786,4.645-2.861,11.266-2.778,11.806.916,5.962,4.71,7.099,6.944,12.5,2.785,6.729,1.76,16.721-4.167,22.917-7.323,7.656-21.773,9.141-30.556.694-7.151-6.878-8.395-18.274-4.167-25,5.696-9.062,19.709-7.084,20.139-11.806.36-3.957-9.186-8.603-17.361-10.417-7.559-1.677-11.147-.311-19.444,0-22.201.832-29.755-7.697-47.222-2.778-7.47,2.104-8.677,4.393-9.028,5.556-2.049,6.793,13.716,13.035,12.5,20.833-1.208,7.742-18.967,15.81-27.778,9.028-4.54-3.495-5.956-10.357-5.556-15.278.564-6.924,4.66-9.235,3.472-11.806-1.872-4.051-13.776-2.057-34.028.694-28.439,3.864-39.331,4.601-43.75-1.389-2.611-3.539-2.575-8.902-4.861-9.028-2.149-.118-4.123,4.517-4.861,6.25-2.951,6.93-.962,10.599-3.472,12.5-2.893,2.191-9.639.428-11.806-3.472-2.576-4.637,2.431-10.302,0-12.5-2.015-1.822-7.155.531-9.028,1.389-3.736,1.71-6.045,3.97-6.25,4.167-3.415,3.274-18.228,4.752-61.111,0v2.944Z"/>
  <g>
    <path class="cls-7" d="m478.129,39.583l-5.197-1.435c-47.117,2.257-71.983,1.38-86.111,0-1.358-.133-10.558-1.033-22.917-1.389-4.876-.14-4.786-.017-34.028,1.389-12.575.605-17.539.82-20.833,4.861-3.786,4.645-2.861,11.266-2.778,11.806.916,5.962,4.71,7.099,6.944,12.5,2.785,6.729,1.76,16.721-4.167,22.917-7.323,7.656-21.773,9.141-30.556.694-7.151-6.878-8.395-18.274-4.167-25,5.696-9.062,19.709-7.084,20.139-11.806.36-3.957-9.186-8.603-17.361-10.417-7.559-1.677-11.147-.311-19.444,0-22.201.832-29.755-7.697-47.222-2.778-7.47,2.104-8.677,4.393-9.028,5.556-2.049,6.793,13.716,13.035,12.5,20.833-1.208,7.742-18.967,15.81-27.778,9.028-4.54-3.495-5.956-10.357-5.556-15.278.564-6.924,4.66-9.235,3.472-11.806-1.872-4.051-13.776-2.057-34.028.694-28.439,3.864-39.331,4.601-43.75-1.389-2.611-3.539-2.575-8.902-4.861-9.028-2.149-.118-4.123,4.517-4.861,6.25-2.951,6.93-.962,10.599-3.472,12.5-2.893,2.191-9.639.428-11.806-3.472-2.576-4.637,2.431-10.302,0-12.5-2.015-1.822-7.155.531-9.028,1.389-3.736,1.71-6.045,3.97-6.25,4.167-3.415,3.274-18.228,4.752-61.111,0v2.944"/>
    <path class="cls-7" d="m4.877,399.162c9.544.075,42.077.234,59.722.097,45.649-.353,56.508-1.602,86.111-1.389,6.523.047,27.586.958,69.444,2.778,27.314,1.188,54.655,1.821,81.944,3.472,22.417,1.357,45.093-1.531,67.361,1.389,3.26.428,20.147,2.704,21.528-1.389.783-2.32-4.225-4.298-6.25-9.722-3.061-8.199,1.023-23.385,13.194-27.083,12.595-3.827,24.678,7.437,26.389,16.667,1.774,9.573-9.038,16.197-6.25,20.833,2.557,4.251,13.07,1.422,26.389,0,9.476-1.012,16.565-3.582,33.669-1.278"/>
    <path class="cls-8" d="m383.188,72.761c-2.052-.614-14.392-4.019-22.917,4.167-7.148,6.865-7.168,17.611-4.167,25,3.78,9.307,13.316,15.661,23.611,15.278,10.599-.394,21.26-7.9,22.917-18.75,1.945-12.736-9.636-22.76-19.444-25.694Z"/>
    <path class="cls-8" d="m413.957,135.771c-6.68.663-14.725,4.509-17.933,11.955-4.453,10.338,1.908,24.162,13.151,28.692,11.559,4.657,26.352-1.286,29.888-12.553,2.914-9.284-2.794-19.07-9.564-23.91-1.36-.972-7.317-5-15.542-4.184Z"/>
    <circle class="cls-8" cx="451.574" cy="143.16" r="7.497"/>
    <path class="cls-8" d="m445.58,213.568c-4.14,0-7.497,3.356-7.497,7.497,0,.093.01.182.014.274-1.814-2.791-4.119-5.198-6.571-6.95-1.36-.972-7.317-5-15.542-4.184-6.68.663-14.725,4.509-17.933,11.955-4.453,10.338,1.908,24.162,13.151,28.692,11.559,4.657,26.352-1.286,29.888-12.553,1.216-3.875.916-7.834-.322-11.488,1.302,1.092,2.979,1.751,4.812,1.751,4.14,0,7.497-3.356,7.497-7.497s-3.356-7.497-7.497-7.497Z"/>
    <path class="cls-8" d="m415.87,288.057c-2.675.662-10.905,2.699-15.74,10.493-4.318,6.96-4.34,15.952-.656,22.953,5.036,9.569,16.97,15.372,28.2,11.805,9.906-3.147,16.158-12.598,16.395-22.298.253-10.368-6.391-19.989-15.084-22.953-5.516-1.881-10.547-.636-13.116,0Z"/>
    <g>
      <path class="cls-7" d="m34.167,87.771c84.426-4.403,153.27,2.092,201.806,9.29,90.31,13.394,105.655,28.533,111.484,35.097,9.555,10.76,23.998,32.78,25.806,197.161.25,22.732.193,42.188.06,57.002"/>
      <polygon class="cls-2" points="369.561 383.508 373.264 385.082 376.967 383.508 373.264 392.287 369.561 383.508"/>
    </g>
    <circle class="cls-5" cx="89.909" cy="50.538" r="3.355"/>
    <circle class="cls-5" cx="62.554" cy="39.794" r="3.355"/>
    <circle class="cls-5" cx="83.199" cy="33.084" r="3.355"/>
    <circle class="cls-5" cx="101.78" cy="14.503" r="3.355"/>
    <circle class="cls-5" cx="306.963" cy="66.404" r="3.355"/>
    <circle class="cls-5" cx="359.286" cy="88.279" r="3.355"/>
    <circle class="cls-5" cx="378.532" cy="76.793" r="3.355"/>
    <circle class="cls-5" cx="406.338" cy="143.16" r="3.355"/>
    <circle class="cls-5" cx="398.572" cy="92.793" r="3.355"/>
    <circle class="cls-5" cx="385.242" cy="110.512" r="3.355"/>
    <circle class="cls-5" cx="420.572" cy="172.351" r="3.355"/>
    <circle class="cls-5" cx="364.855" cy="107.157" r="3.355"/>
    <circle class="cls-5" cx="374.62" cy="94.989" r="3.355"/>
    <circle class="cls-5" cx="419.35" cy="156.838" r="3.355"/>
    <circle class="cls-5" cx="420.572" cy="235.303" r="3.355"/>
    <circle class="cls-5" cx="426.563" cy="144.698" r="3.355"/>
    <circle class="cls-5" cx="434.814" cy="156.838" r="3.355"/>
    <circle class="cls-5" cx="403.887" cy="162.815" r="3.355"/>
    <circle class="cls-5" cx="406.338" cy="236.751" r="3.355"/>
    <circle class="cls-5" cx="185.909" cy="59.148" r="3.355"/>
    <circle class="cls-5" cx="192.619" cy="73.989" r="3.355"/>
    <circle class="cls-5" cx="296.383" cy="92.867" r="3.355"/>
    <circle class="cls-5" cx="203.802" cy="59.148" r="3.355"/>
    <circle class="cls-5" cx="310.318" cy="80.698" r="3.355"/>
    <circle class="cls-5" cx="282.74" cy="63.535" r="3.355"/>
    <circle class="cls-5" cx="204.834" cy="70.634" r="3.355"/>
    <circle class="cls-5" cx="276.03" cy="78.503" r="3.355"/>
    <circle class="cls-5" cx="407.242" cy="217.649" r="3.355"/>
    <circle class="cls-5" cx="421.475" cy="246.841" r="3.355"/>
    <circle class="cls-5" cx="427.466" cy="219.188" r="3.355"/>
    <circle class="cls-5" cx="412.201" cy="321.09" r="1.052"/>
    <circle class="cls-5" cx="410.745" cy="405.365" r="1.052"/>
    <circle class="cls-5" cx="416.466" cy="411.013" r="1.052"/>
    <circle class="cls-5" cx="413.253" cy="417.255" r="1.052"/>
    <circle class="cls-5" cx="402.527" cy="415.152" r="1.052"/>
    <circle class="cls-5" cx="404.77" cy="420.439" r="1.052"/>
    <circle class="cls-5" cx="408.022" cy="315.555" r="1.052"/>
    <circle class="cls-5" cx="402.527" cy="314.503" r="1.052"/>
    <circle class="cls-5" cx="414.362" cy="316.037" r="1.052"/>
    <circle class="cls-5" cx="432.668" cy="313.668" r="1.052"/>
    <circle class="cls-5" cx="420.734" cy="314.503" r="1.052"/>
    <circle class="cls-5" cx="402.527" cy="376.778" r="1.052"/>
    <circle class="cls-5" cx="407.916" cy="381.209" r="1.052"/>
    <circle class="cls-5" cx="397.721" cy="392.287" r="1.052"/>
    <circle class="cls-5" cx="404.77" cy="399.938" r="1.052"/>
    <circle class="cls-5" cx="405.822" cy="411.013" r="1.052"/>
    <circle class="cls-5" cx="390.119" cy="415.152" r="1.052"/>
    <circle class="cls-5" cx="410.596" cy="395.084" r="1.052"/>
    <circle class="cls-5" cx="429.201" cy="320.291" r="1.052"/>
    <circle class="cls-5" cx="422.579" cy="328.055" r="1.052"/>
    <circle class="cls-5" cx="398.773" cy="404.313" r="1.052"/>
    <circle class="cls-5" cx="429.97" cy="308.881" r="1.052"/>
    <circle class="cls-5" cx="425.9" cy="304.664" r="1.052"/>
    <circle class="cls-5" cx="428.149" cy="298.693" r="1.052"/>
    <circle class="cls-5" cx="415.414" cy="307.98" r="1.052"/>
    <circle class="cls-5" cx="417.489" cy="299.922" r="1.052"/>
    <circle class="cls-5" cx="409.693" cy="300.75" r="1.052"/>
    <circle class="cls-5" cx="435.717" cy="231.328" r="3.355"/>
    <g>
      <path class="cls-1" d="m447.833,142.084c-.415,0-.753-.338-.753-.753s.338-.753.753-.753.753.338.753.753-.338.753-.753.753Zm0-1.25c-.274,0-.497.223-.497.497s.223.497.497.497.497-.223.497-.497-.223-.497-.497-.497Z"/>
      <path class="cls-1" d="m447.833,139.031c-.415,0-.753-.338-.753-.753s.338-.753.753-.753.753.338.753.753-.338.753-.753.753Zm0-1.25c-.274,0-.497.223-.497.497s.223.497.497.497.497-.223.497-.497-.223-.497-.497-.497Z"/>
      <path class="cls-1" d="m448.512,138.567l1.061,1.061.216.216,1.78,1.78c.013.013-.004.042-.025.043l-.353.017c-.277.013-.518-.077-.68-.255l-1.098-1.209-.213-.234-1.003-1.104.314-.314Z"/>
      <polygon class="cls-1" points="449.573 139.628 449.789 139.844 449.414 140.219 449.201 139.985 449.573 139.628"/>
      <path class="cls-1" d="m448.484,141.095l3.057-3.057c.013-.013-.004-.042-.025-.043l-.353-.017c-.277-.013-.518.077-.68.255l-2.313,2.548.314.314Z"/>
      <circle class="cls-1" cx="449.381" cy="139.812" r=".114"/>
    </g>
    <g>
      <path class="cls-1" d="m452.326,143.964c-.415,0-.753-.338-.753-.753s.338-.753.753-.753.753.338.753.753-.338.753-.753.753Zm0-1.25c-.274,0-.497.223-.497.497s.223.497.497.497.497-.223.497-.497-.223-.497-.497-.497Z"/>
      <path class="cls-1" d="m452.326,140.911c-.415,0-.753-.338-.753-.753s.338-.753.753-.753.753.338.753.753-.338.753-.753.753Zm0-1.25c-.274,0-.497.223-.497.497s.223.497.497.497.497-.223.497-.497-.223-.497-.497-.497Z"/>
      <path class="cls-1" d="m453.005,140.447l1.061,1.061.216.216,1.78,1.78c.013.013-.004.042-.025.043l-.353.017c-.277.013-.518-.077-.68-.255l-1.098-1.209-.213-.234-1.003-1.104.314-.314Z"/>
      <polygon class="cls-1" points="454.067 141.509 454.282 141.724 453.907 142.1 453.694 141.865 454.067 141.509"/>
      <path class="cls-1" d="m452.977,142.975l3.057-3.057c.013-.013-.004-.042-.025-.043l-.353-.017c-.277-.013-.518.077-.68.255l-2.313,2.548.314.314Z"/>
      <circle class="cls-1" cx="453.874" cy="141.692" r=".114"/>
    </g>
    <g>
      <path class="cls-1" d="m448.001,148.793c-.415,0-.753-.338-.753-.753s.338-.753.753-.753.753.338.753.753-.338.753-.753.753Zm0-1.25c-.274,0-.497.223-.497.497s.223.497.497.497.497-.223.497-.497-.223-.497-.497-.497Z"/>
      <path class="cls-1" d="m448.001,145.74c-.415,0-.753-.338-.753-.753s.338-.753.753-.753.753.338.753.753-.338.753-.753.753Zm0-1.25c-.274,0-.497.223-.497.497s.223.497.497.497.497-.223.497-.497-.223-.497-.497-.497Z"/>
      <path class="cls-1" d="m448.68,145.277l1.061,1.061.216.216,1.78,1.78c.013.013-.004.042-.025.043l-.353.017c-.277.013-.518-.077-.68-.255l-1.098-1.209-.213-.234-1.003-1.104.314-.314Z"/>
      <polygon class="cls-1" points="449.741 146.338 449.957 146.554 449.581 146.929 449.369 146.695 449.741 146.338"/>
      <path class="cls-1" d="m448.652,147.805l3.057-3.057c.013-.013-.004-.042-.025-.043l-.353-.017c-.277-.013-.518.077-.68.255l-2.313,2.548.314.314Z"/>
      <circle class="cls-1" cx="449.549" cy="146.521" r=".114"/>
    </g>
    <g>
      <path class="cls-1" d="m452.885,149.208c-.415,0-.753-.338-.753-.753s.338-.753.753-.753.753.338.753.753-.338.753-.753.753Zm0-1.25c-.274,0-.497.223-.497.497s.223.497.497.497.497-.223.497-.497-.223-.497-.497-.497Z"/>
      <path class="cls-1" d="m452.885,146.155c-.415,0-.753-.338-.753-.753s.338-.753.753-.753.753.338.753.753-.338.753-.753.753Zm0-1.25c-.274,0-.497.223-.497.497s.223.497.497.497.497-.223.497-.497-.223-.497-.497-.497Z"/>
      <path class="cls-1" d="m453.564,145.691l1.061,1.061.216.216,1.78,1.78c.013.013-.004.042-.025.043l-.353.017c-.277.013-.518-.077-.68-.255l-1.098-1.209-.213-.234-1.003-1.104.314-.314Z"/>
      <polygon class="cls-1" points="454.626 146.753 454.841 146.968 454.466 147.344 454.253 147.109 454.626 146.753"/>
      <path class="cls-1" d="m453.536,148.219l3.057-3.057c.013-.013-.004-.042-.025-.043l-.353-.017c-.277-.013-.518.077-.68.255l-2.313,2.548.314.314Z"/>
      <circle class="cls-1" cx="454.433" cy="146.936" r=".114"/>
    </g>
    <g>
      <path class="cls-1" d="m443.595,219.545c-.415,0-.753-.338-.753-.753s.338-.753.753-.753.753.338.753.753-.338.753-.753.753Zm0-1.25c-.274,0-.497.223-.497.497s.223.497.497.497.497-.223.497-.497-.223-.497-.497-.497Z"/>
      <path class="cls-1" d="m443.595,216.492c-.415,0-.753-.338-.753-.753s.338-.753.753-.753.753.338.753.753-.338.753-.753.753Zm0-1.25c-.274,0-.497.223-.497.497s.223.497.497.497.497-.223.497-.497-.223-.497-.497-.497Z"/>
      <path class="cls-1" d="m444.274,216.028l1.061,1.061.216.216,1.78,1.78c.013.013-.004.042-.025.043l-.353.017c-.277.013-.518-.077-.68-.255l-1.098-1.209-.213-.234-1.003-1.104.314-.314Z"/>
      <polygon class="cls-1" points="445.336 217.089 445.551 217.305 445.176 217.68 444.963 217.446 445.336 217.089"/>
      <path class="cls-1" d="m444.246,218.556l3.057-3.057c.013-.013-.004-.042-.025-.043l-.353-.017c-.277-.013-.518.077-.68.255l-2.313,2.548.314.314Z"/>
      <circle class="cls-1" cx="445.143" cy="217.273" r=".114"/>
    </g>
    <g>
      <path class="cls-1" d="m442.854,224.822c-.415,0-.753-.338-.753-.753s.338-.753.753-.753.753.338.753.753-.338.753-.753.753Zm0-1.25c-.274,0-.497.223-.497.497s.223.497.497.497.497-.223.497-.497-.223-.497-.497-.497Z"/>
      <path class="cls-1" d="m442.854,221.769c-.415,0-.753-.338-.753-.753s.338-.753.753-.753.753.338.753.753-.338.753-.753.753Zm0-1.25c-.274,0-.497.223-.497.497s.223.497.497.497.497-.223.497-.497-.223-.497-.497-.497Z"/>
      <path class="cls-1" d="m443.533,221.305l1.061,1.061.216.216,1.78,1.78c.013.013-.004.042-.025.043l-.353.017c-.277.013-.518-.077-.68-.255l-1.098-1.209-.213-.234-1.003-1.104.314-.314Z"/>
      <polygon class="cls-1" points="444.594 222.367 444.81 222.582 444.435 222.958 444.222 222.723 444.594 222.367"/>
      <path class="cls-1" d="m443.505,223.833l3.057-3.057c.013-.013-.004-.042-.025-.043l-.353-.017c-.277-.013-.518.077-.68.255l-2.313,2.548.314.314Z"/>
      <circle class="cls-1" cx="444.402" cy="222.55" r=".114"/>
    </g>
    <g>
      <path class="cls-1" d="m419.981,224.941c-.415,0-.753-.338-.753-.753s.338-.753.753-.753.753.338.753.753-.338.753-.753.753Zm0-1.25c-.274,0-.497.223-.497.497s.223.497.497.497.497-.223.497-.497-.223-.497-.497-.497Z"/>
      <path class="cls-1" d="m419.981,221.888c-.415,0-.753-.338-.753-.753s.338-.753.753-.753.753.338.753.753-.338.753-.753.753Zm0-1.25c-.274,0-.497.223-.497.497s.223.497.497.497.497-.223.497-.497-.223-.497-.497-.497Z"/>
      <path class="cls-1" d="m420.66,221.424l1.061,1.061.216.216,1.78,1.78c.013.013-.004.042-.025.043l-.353.017c-.277.013-.518-.077-.68-.255l-1.098-1.209-.213-.234-1.003-1.104.314-.314Z"/>
      <polygon class="cls-1" points="421.721 222.486 421.937 222.701 421.562 223.077 421.349 222.842 421.721 222.486"/>
      <path class="cls-1" d="m420.632,223.952l3.057-3.057c.013-.013-.004-.042-.025-.043l-.353-.017c-.277-.013-.518.077-.68.255l-2.313,2.548.314.314Z"/>
      <circle class="cls-1" cx="421.529" cy="222.669" r=".114"/>
    </g>
    <g>
      <path class="cls-1" d="m425.069,235.294c-.415,0-.753-.338-.753-.753s.338-.753.753-.753.753.338.753.753-.338.753-.753.753Zm0-1.25c-.274,0-.497.223-.497.497s.223.497.497.497.497-.223.497-.497-.223-.497-.497-.497Z"/>
      <path class="cls-1" d="m425.069,232.241c-.415,0-.753-.338-.753-.753s.338-.753.753-.753.753.338.753.753-.338.753-.753.753Zm0-1.25c-.274,0-.497.223-.497.497s.223.497.497.497.497-.223.497-.497-.223-.497-.497-.497Z"/>
      <path class="cls-1" d="m425.747,231.777l1.061,1.061.216.216,1.78,1.78c.013.013-.004.042-.025.043l-.353.017c-.277.013-.518-.077-.68-.255l-1.098-1.209-.213-.234-1.003-1.104.314-.314Z"/>
      <polygon class="cls-1" points="426.809 232.838 427.024 233.054 426.649 233.429 426.436 233.195 426.809 232.838"/>
      <path class="cls-1" d="m425.719,234.305l3.057-3.057c.013-.013-.004-.042-.025-.043l-.353-.017c-.277-.013-.518.077-.68.255l-2.313,2.548.314.314Z"/>
      <circle class="cls-1" cx="426.616" cy="233.022" r=".114"/>
    </g>
    <g>
      <path class="cls-1" d="m434.223,309.483c-.415,0-.753-.338-.753-.753s.338-.753.753-.753.753.338.753.753-.338.753-.753.753Zm0-1.25c-.274,0-.497.223-.497.497s.223.497.497.497.497-.223.497-.497-.223-.497-.497-.497Z"/>
      <path class="cls-1" d="m434.223,306.43c-.415,0-.753-.338-.753-.753s.338-.753.753-.753.753.338.753.753-.338.753-.753.753Zm0-1.25c-.274,0-.497.223-.497.497s.223.497.497.497.497-.223.497-.497-.223-.497-.497-.497Z"/>
      <path class="cls-1" d="m434.902,305.966l1.061,1.061.216.216,1.78,1.78c.013.013-.004.042-.025.043l-.353.017c-.277.013-.518-.077-.68-.255l-1.098-1.209-.213-.234-1.003-1.104.314-.314Z"/>
      <polygon class="cls-1" points="435.963 307.027 436.179 307.243 435.803 307.618 435.591 307.384 435.963 307.027"/>
      <path class="cls-1" d="m434.873,308.494l3.057-3.057c.013-.013-.004-.042-.025-.043l-.353-.017c-.277-.013-.518.077-.68.255l-2.313,2.548.314.314Z"/>
      <circle class="cls-1" cx="435.771" cy="307.211" r=".114"/>
    </g>
    <g>
      <path class="cls-1" d="m421.211,324.421c-.415,0-.753-.338-.753-.753s.338-.753.753-.753.753.338.753.753-.338.753-.753.753Zm0-1.25c-.274,0-.497.223-.497.497s.223.497.497.497.497-.223.497-.497-.223-.497-.497-.497Z"/>
      <path class="cls-1" d="m421.211,321.368c-.415,0-.753-.338-.753-.753s.338-.753.753-.753.753.338.753.753-.338.753-.753.753Zm0-1.25c-.274,0-.497.223-.497.497s.223.497.497.497.497-.223.497-.497-.223-.497-.497-.497Z"/>
      <path class="cls-1" d="m421.89,320.904l1.061,1.061.216.216,1.78,1.78c.013.013-.004.042-.025.043l-.353.017c-.277.013-.518-.077-.68-.255l-1.098-1.209-.213-.234-1.003-1.104.314-.314Z"/>
      <polygon class="cls-1" points="422.951 321.965 423.167 322.181 422.792 322.556 422.579 322.322 422.951 321.965"/>
      <path class="cls-1" d="m421.862,323.432l3.057-3.057c.013-.013-.004-.042-.025-.043l-.353-.017c-.277-.013-.518.077-.68.255l-2.313,2.548.314.314Z"/>
      <circle class="cls-1" cx="422.759" cy="322.149" r=".114"/>
    </g>
    <g>
      <path class="cls-1" d="m407.579,311.311c-.415,0-.753-.338-.753-.753s.338-.753.753-.753.753.338.753.753-.338.753-.753.753Zm0-1.25c-.274,0-.497.223-.497.497s.223.497.497.497.497-.223.497-.497-.223-.497-.497-.497Z"/>
      <path class="cls-1" d="m407.579,308.258c-.415,0-.753-.338-.753-.753s.338-.753.753-.753.753.338.753.753-.338.753-.753.753Zm0-1.25c-.274,0-.497.223-.497.497s.223.497.497.497.497-.223.497-.497-.223-.497-.497-.497Z"/>
      <path class="cls-1" d="m408.258,307.794l1.061,1.061.216.216,1.78,1.78c.013.013-.004.042-.025.043l-.353.017c-.277.013-.518-.077-.68-.255l-1.098-1.209-.213-.234-1.003-1.104.314-.314Z"/>
      <polygon class="cls-1" points="409.32 308.855 409.535 309.071 409.16 309.446 408.947 309.212 409.32 308.855"/>
      <path class="cls-1" d="m408.23,310.322l3.057-3.057c.013-.013-.004-.042-.025-.043l-.353-.017c-.277-.013-.518.077-.68.255l-2.313,2.548.314.314Z"/>
      <circle class="cls-1" cx="409.127" cy="309.039" r=".114"/>
    </g>
    <g>
      <path class="cls-1" d="m423.574,301.149c-.415,0-.753-.338-.753-.753s.338-.753.753-.753.753.338.753.753-.338.753-.753.753Zm0-1.25c-.274,0-.497.223-.497.497s.223.497.497.497.497-.223.497-.497-.223-.497-.497-.497Z"/>
      <path class="cls-1" d="m423.574,298.096c-.415,0-.753-.338-.753-.753s.338-.753.753-.753.753.338.753.753-.338.753-.753.753Zm0-1.25c-.274,0-.497.223-.497.497s.223.497.497.497.497-.223.497-.497-.223-.497-.497-.497Z"/>
      <path class="cls-1" d="m424.253,297.632l1.061,1.061.216.216,1.78,1.78c.013.013-.004.042-.025.043l-.353.017c-.277.013-.518-.077-.68-.255l-1.098-1.209-.213-.234-1.003-1.104.314-.314Z"/>
      <polygon class="cls-1" points="425.315 298.693 425.53 298.909 425.155 299.284 424.942 299.05 425.315 298.693"/>
      <path class="cls-1" d="m424.225,300.16l3.057-3.057c.013-.013-.004-.042-.025-.043l-.353-.017c-.277-.013-.518.077-.68.255l-2.313,2.548.314.314Z"/>
      <circle class="cls-1" cx="425.122" cy="298.877" r=".114"/>
    </g>
  </g>
  <text class="cls-6" transform="translate(34.167 375.726)"><tspan x="0" y="0">세포질</tspan></text>
  <text class="cls-6" transform="translate(215.553 76.793)"><tspan x="0" y="0">세포내이입</tspan><tspan x="-7.422" y="14.4">(endocytosis)</tspan></text>
  <text class="cls-6" transform="translate(390.464 358.302)"><tspan x="0" y="0">exocytosis</tspan></text>
  <text class="cls-6" transform="translate(381.887 66.404)"><tspan x="0" y="0">파고좀</tspan></text>
  <text class="cls-6" transform="translate(428.781 126.136)"><tspan x="0" y="0">라이소좀</tspan></text>
</svg>