<?xml version="1.0" encoding="utf-8"?>
<!-- Generator: Adobe Illustrator 28.0.0, SVG Export Plug-In . SVG Version: 6.00 Build 0)  -->
<svg version="1.1" id="레이어_1" xmlns="http://www.w3.org/2000/svg" xmlns:xlink="http://www.w3.org/1999/xlink" x="0px"
	 y="0px" viewBox="0 0 478.388 410.342" enable-background="new 0 0 478.388 410.342" xml:space="preserve">
<rect y="32.602" fill="#FFFFFF" width="477.778" height="368.056"/>
<path fill="#C1E3EF" d="M4.877,40.463v348.348c9.544,0.075,42.077,0.234,59.722,0.097c45.649-0.353,56.508-1.602,86.111-1.389
	c6.523,0.047,27.586,0.958,69.444,2.778c27.314,1.188,54.655,1.821,81.944,3.472c22.417,1.357,45.093-1.531,67.361,1.389
	c3.26,0.428,20.147,2.704,21.528-1.389c0.783-2.32-4.225-4.298-6.25-9.722c-3.061-8.199,1.023-23.385,13.194-27.083
	c12.595-3.827,24.678,7.437,26.389,16.667c1.774,9.573-9.038,16.197-6.25,20.833c2.557,4.251,13.07,1.422,26.389,0
	c9.476-1.012,16.565-3.582,33.669-1.278V29.232l-5.197-1.435c-47.117,2.257-71.983,1.38-86.111,0
	c-1.358-0.133-10.558-1.033-22.917-1.389c-4.876-0.14-4.786-0.017-34.028,1.389c-12.575,0.605-17.539,0.82-20.833,4.861
	c-3.786,4.645-2.861,11.266-2.778,11.806c0.916,5.962,4.71,7.099,6.944,12.5c2.785,6.729,1.76,16.721-4.167,22.917
	c-7.323,7.656-21.773,9.141-30.556,0.694c-7.151-6.878-8.395-18.274-4.167-25c5.696-9.062,19.709-7.084,20.139-11.806
	c0.36-3.957-9.186-8.603-17.361-10.417c-7.559-1.677-11.147-0.311-19.444,0c-22.201,0.832-29.755-7.697-47.222-2.778
	c-7.47,2.104-8.677,4.393-9.028,5.556c-2.049,6.793,13.716,13.035,12.5,20.833c-1.208,7.742-18.967,15.81-27.778,9.028
	c-4.54-3.495-5.956-10.357-5.556-15.278c0.564-6.924,4.66-9.235,3.472-11.806c-1.872-4.051-13.776-2.057-34.028,0.694
	c-28.439,3.864-39.331,4.601-43.75-1.389c-2.611-3.539-2.575-8.902-4.861-9.028c-2.149-0.118-4.123,4.517-4.861,6.25
	c-2.951,6.93-0.962,10.599-3.472,12.5c-2.893,2.191-9.639,0.428-11.806-3.472c-2.576-4.637,2.431-10.302,0-12.5
	c-2.015-1.822-7.155,0.531-9.028,1.389c-3.736,1.71-6.045,3.97-6.25,4.167c-3.415,3.274-18.228,4.752-61.111,0V40.463z"/>
<g>
	<path fill="none" stroke="#000000" stroke-miterlimit="10" d="M478.129,28.435L472.932,27c-47.117,2.257-71.983,1.38-86.111,0
		c-1.358-0.133-10.558-1.033-22.917-1.389c-4.876-0.14-4.786-0.017-34.028,1.389c-12.575,0.605-17.539,0.82-20.833,4.861
		c-3.786,4.645-2.861,11.266-2.778,11.806c0.916,5.962,4.71,7.099,6.944,12.5c2.785,6.729,1.76,16.721-4.167,22.917
		c-7.323,7.656-21.773,9.141-30.556,0.694c-7.151-6.878-8.395-18.274-4.167-25c5.696-9.062,19.709-7.084,20.139-11.806
		c0.36-3.957-9.186-8.603-17.361-10.417c-7.559-1.677-11.147-0.311-19.444,0c-22.201,0.832-29.755-7.697-47.222-2.778
		c-7.47,2.104-8.677,4.393-9.028,5.556c-2.049,6.793,13.716,13.035,12.5,20.833c-1.208,7.742-18.967,15.81-27.778,9.028
		c-4.54-3.495-5.956-10.357-5.556-15.278c0.564-6.924,4.66-9.235,3.472-11.806c-1.872-4.051-13.776-2.057-34.028,0.694
		c-28.439,3.864-39.331,4.601-43.75-1.389c-2.611-3.539-2.575-8.902-4.861-9.028c-2.149-0.118-4.123,4.517-4.861,6.25
		c-2.951,6.93-0.962,10.599-3.472,12.5c-2.893,2.191-9.639,0.428-11.806-3.472c-2.576-4.637,2.431-10.302,0-12.5
		c-2.015-1.822-7.155,0.531-9.028,1.389c-3.736,1.71-6.045,3.97-6.25,4.167c-3.415,3.274-18.228,4.752-61.111,0v2.944"/>
	<path fill="none" stroke="#000000" stroke-miterlimit="10" d="M4.877,388.014c9.544,0.075,42.077,0.234,59.722,0.097
		c45.649-0.353,56.508-1.602,86.111-1.389c6.523,0.047,27.586,0.958,69.444,2.778c27.314,1.188,54.655,1.821,81.944,3.472
		c22.417,1.357,45.093-1.531,67.361,1.389c3.26,0.428,20.147,2.704,21.528-1.389c0.783-2.32-4.225-4.298-6.25-9.722
		c-3.061-8.199,1.023-23.385,13.194-27.083c12.595-3.827,24.678,7.437,26.389,16.667c1.774,9.573-9.038,16.197-6.25,20.833
		c2.557,4.251,13.07,1.422,26.389,0c9.476-1.012,16.565-3.582,33.669-1.278"/>
	<path fill="#FFFFFF" stroke="#000000" stroke-miterlimit="10" d="M383.188,61.613c-2.052-0.614-14.392-4.019-22.917,4.167
		c-7.148,6.865-7.168,17.611-4.167,25c3.78,9.307,13.316,15.661,23.611,15.278c10.599-0.394,21.26-7.9,22.917-18.75
		C404.578,74.57,392.996,64.547,383.188,61.613z"/>
	<path fill="#FFFFFF" stroke="#000000" stroke-miterlimit="10" d="M413.957,124.623c-6.68,0.663-14.725,4.509-17.933,11.955
		c-4.453,10.338,1.908,24.162,13.151,28.692c11.559,4.657,26.352-1.286,29.888-12.553c2.914-9.284-2.794-19.07-9.564-23.91
		C428.138,127.835,422.181,123.807,413.957,124.623z"/>
	<circle fill="#FFFFFF" stroke="#000000" stroke-miterlimit="10" cx="451.574" cy="132.011" r="7.497"/>
	<path fill="#FFFFFF" stroke="#000000" stroke-miterlimit="10" d="M445.58,202.42c-4.14,0-7.497,3.356-7.497,7.497
		c0,0.093,0.01,0.182,0.014,0.274c-1.814-2.791-4.119-5.198-6.571-6.95c-1.36-0.972-7.317-5-15.542-4.184
		c-6.68,0.663-14.725,4.509-17.933,11.955c-4.453,10.338,1.908,24.162,13.151,28.692c11.559,4.657,26.352-1.286,29.888-12.553
		c1.216-3.875,0.916-7.834-0.322-11.488c1.302,1.092,2.979,1.751,4.812,1.751c4.14,0,7.497-3.356,7.497-7.497
		C453.077,205.776,449.72,202.42,445.58,202.42z"/>
	<path fill="#FFFFFF" stroke="#000000" stroke-miterlimit="10" d="M415.87,276.908c-2.675,0.662-10.905,2.699-15.74,10.493
		c-4.318,6.96-4.34,15.952-0.656,22.953c5.036,9.569,16.97,15.372,28.2,11.805c9.906-3.147,16.158-12.598,16.395-22.298
		c0.253-10.368-6.391-19.989-15.084-22.953C423.471,275.027,418.439,276.272,415.87,276.908z"/>
	<path fill="#EDEBEB" stroke="#000000" stroke-miterlimit="10" d="M167.874,59.485"/>
	<g>
		<g>
			<path fill="none" stroke="#000000" stroke-miterlimit="10" d="M34.167,76.622c84.426-4.403,153.27,2.092,201.806,9.29
				c90.31,13.394,105.655,28.533,111.484,35.097c9.555,10.76,23.998,32.78,25.806,197.161c0.25,22.732,0.193,42.188,0.06,57.002"/>
			<g>
				<polygon points="369.561,372.36 373.264,373.933 376.967,372.36 373.264,381.138 				"/>
			</g>
		</g>
	</g>
	<circle fill="#E60013" cx="89.909" cy="39.39" r="3.355"/>
	<circle fill="#E60013" cx="62.554" cy="28.645" r="3.355"/>
	<circle fill="#E60013" cx="83.199" cy="21.935" r="3.355"/>
	<circle fill="#E60013" cx="101.78" cy="3.355" r="3.355"/>
	<circle fill="#E60013" cx="306.963" cy="55.255" r="3.355"/>
	<circle fill="#E60013" cx="359.286" cy="77.13" r="3.355"/>
	<circle fill="#E60013" cx="378.532" cy="65.645" r="3.355"/>
	<circle fill="#E60013" cx="406.338" cy="132.011" r="3.355"/>
	<circle fill="#E60013" cx="398.572" cy="81.645" r="3.355"/>
	<circle fill="#E60013" cx="385.242" cy="99.364" r="3.355"/>
	<circle fill="#E60013" cx="420.572" cy="161.202" r="3.355"/>
	<circle fill="#E60013" cx="364.855" cy="96.009" r="3.355"/>
	<circle fill="#E60013" cx="374.62" cy="83.84" r="3.355"/>
	<circle fill="#E60013" cx="419.35" cy="145.69" r="3.355"/>
	<circle fill="#E60013" cx="420.572" cy="224.154" r="3.355"/>
	<circle fill="#E60013" cx="426.563" cy="133.55" r="3.355"/>
	<circle fill="#E60013" cx="434.814" cy="145.69" r="3.355"/>
	<circle fill="#E60013" cx="403.887" cy="151.667" r="3.355"/>
	<circle fill="#E60013" cx="406.338" cy="225.602" r="3.355"/>
	<circle fill="#E60013" cx="185.909" cy="48" r="3.355"/>
	<circle fill="#E60013" cx="192.619" cy="62.84" r="3.355"/>
	<circle fill="#E60013" cx="296.383" cy="81.719" r="3.355"/>
	<circle fill="#E60013" cx="203.802" cy="48" r="3.355"/>
	<circle fill="#E60013" cx="310.318" cy="69.55" r="3.355"/>
	<circle fill="#E60013" cx="282.74" cy="52.387" r="3.355"/>
	<circle fill="#E60013" cx="204.834" cy="59.485" r="3.355"/>
	<circle fill="#E60013" cx="276.03" cy="67.355" r="3.355"/>
	<path fill="#00A1E9" d="M465.544,153.032"/>
	<circle fill="#E60013" cx="407.242" cy="206.501" r="3.355"/>
	<circle fill="#E60013" cx="421.475" cy="235.692" r="3.355"/>
	<circle fill="#E60013" cx="427.466" cy="208.04" r="3.355"/>
	<circle fill="#E60013" cx="412.201" cy="309.941" r="1.052"/>
	<circle fill="#E60013" cx="410.745" cy="394.216" r="1.052"/>
	<circle fill="#E60013" cx="416.466" cy="399.865" r="1.052"/>
	<circle fill="#E60013" cx="413.253" cy="406.107" r="1.052"/>
	<circle fill="#E60013" cx="402.527" cy="404.003" r="1.052"/>
	<circle fill="#E60013" cx="404.77" cy="409.29" r="1.052"/>
	<circle fill="#E60013" cx="408.022" cy="304.407" r="1.052"/>
	<circle fill="#E60013" cx="402.527" cy="303.355" r="1.052"/>
	<circle fill="#E60013" cx="414.362" cy="304.889" r="1.052"/>
	<circle fill="#E60013" cx="432.668" cy="302.52" r="1.052"/>
	<circle fill="#E60013" cx="420.734" cy="303.355" r="1.052"/>
	<circle fill="#E60013" cx="402.527" cy="365.63" r="1.052"/>
	<circle fill="#E60013" cx="407.916" cy="370.061" r="1.052"/>
	<circle fill="#E60013" cx="397.721" cy="381.138" r="1.052"/>
	<circle fill="#E60013" cx="404.77" cy="388.79" r="1.052"/>
	<circle fill="#E60013" cx="405.822" cy="399.865" r="1.052"/>
	<circle fill="#E60013" cx="390.119" cy="404.003" r="1.052"/>
	<circle fill="#E60013" cx="410.596" cy="383.935" r="1.052"/>
	<circle fill="#E60013" cx="429.201" cy="309.143" r="1.052"/>
	<circle fill="#E60013" cx="422.579" cy="316.907" r="1.052"/>
	<circle fill="#E60013" cx="398.773" cy="393.165" r="1.052"/>
	<circle fill="#E60013" cx="429.97" cy="297.733" r="1.052"/>
	<circle fill="#E60013" cx="425.9" cy="293.516" r="1.052"/>
	<circle fill="#E60013" cx="428.149" cy="287.545" r="1.052"/>
	<circle fill="#E60013" cx="415.414" cy="296.831" r="1.052"/>
	<circle fill="#E60013" cx="417.489" cy="288.773" r="1.052"/>
	<circle fill="#E60013" cx="409.693" cy="289.602" r="1.052"/>
	<circle fill="#E60013" cx="435.717" cy="220.18" r="3.355"/>
	<g>
		<g>
			<path fill="#00A1E9" d="M447.833,130.935c-0.415,0-0.753-0.338-0.753-0.753c0-0.415,0.338-0.753,0.753-0.753
				s0.753,0.338,0.753,0.753C448.586,130.598,448.248,130.935,447.833,130.935z M447.833,129.686c-0.274,0-0.497,0.223-0.497,0.497
				c0,0.274,0.223,0.497,0.497,0.497s0.497-0.223,0.497-0.497C448.33,129.909,448.107,129.686,447.833,129.686z"/>
		</g>
		<g>
			<path fill="#00A1E9" d="M447.833,127.882c-0.415,0-0.753-0.338-0.753-0.753c0-0.415,0.338-0.753,0.753-0.753
				s0.753,0.338,0.753,0.753C448.586,127.545,448.248,127.882,447.833,127.882z M447.833,126.633c-0.274,0-0.497,0.223-0.497,0.497
				c0,0.274,0.223,0.497,0.497,0.497s0.497-0.223,0.497-0.497C448.33,126.856,448.107,126.633,447.833,126.633z"/>
		</g>
		<g>
			<path fill="#00A1E9" d="M448.512,127.418l1.061,1.061l0.216,0.216l1.78,1.78c0.013,0.013-0.004,0.042-0.025,0.043l-0.353,0.017
				c-0.277,0.013-0.518-0.077-0.68-0.255l-1.098-1.209l-0.213-0.234l-1.003-1.104L448.512,127.418z"/>
		</g>
		<g>
			<polygon fill="#00A1E9" points="449.573,128.48 449.789,128.695 449.414,129.071 449.201,128.837 			"/>
		</g>
		<g>
			<path fill="#00A1E9" d="M448.484,129.947l3.057-3.057c0.013-0.013-0.004-0.042-0.025-0.043l-0.353-0.017
				c-0.277-0.013-0.518,0.077-0.68,0.255l-2.313,2.548L448.484,129.947z"/>
		</g>
		<g>
			<circle fill="#00A1E9" cx="449.381" cy="128.663" r="0.114"/>
		</g>
	</g>
	<g>
		<g>
			<path fill="#00A1E9" d="M452.326,132.816c-0.415,0-0.753-0.338-0.753-0.753c0-0.415,0.338-0.753,0.753-0.753
				s0.753,0.338,0.753,0.753C453.079,132.478,452.741,132.816,452.326,132.816z M452.326,131.566c-0.274,0-0.497,0.223-0.497,0.497
				c0,0.274,0.223,0.497,0.497,0.497s0.497-0.223,0.497-0.497C452.823,131.789,452.6,131.566,452.326,131.566z"/>
		</g>
		<g>
			<path fill="#00A1E9" d="M452.326,129.763c-0.415,0-0.753-0.338-0.753-0.753c0-0.415,0.338-0.753,0.753-0.753
				s0.753,0.338,0.753,0.753C453.079,129.425,452.741,129.763,452.326,129.763z M452.326,128.513c-0.274,0-0.497,0.223-0.497,0.497
				c0,0.274,0.223,0.497,0.497,0.497s0.497-0.223,0.497-0.497C452.823,128.736,452.6,128.513,452.326,128.513z"/>
		</g>
		<g>
			<path fill="#00A1E9" d="M453.005,129.299l1.061,1.061l0.216,0.216l1.78,1.78c0.013,0.013-0.004,0.042-0.025,0.043l-0.353,0.017
				c-0.277,0.013-0.518-0.077-0.68-0.255l-1.098-1.209l-0.213-0.234l-1.003-1.104L453.005,129.299z"/>
		</g>
		<g>
			<polygon fill="#00A1E9" points="454.067,130.36 454.282,130.576 453.907,130.951 453.694,130.717 			"/>
		</g>
		<g>
			<path fill="#00A1E9" d="M452.977,131.827l3.057-3.057c0.013-0.013-0.004-0.042-0.025-0.043l-0.353-0.017
				c-0.277-0.013-0.518,0.077-0.68,0.255l-2.313,2.548L452.977,131.827z"/>
		</g>
		<g>
			<circle fill="#00A1E9" cx="453.874" cy="130.544" r="0.114"/>
		</g>
	</g>
	<g>
		<g>
			<path fill="#00A1E9" d="M448.001,137.645c-0.415,0-0.753-0.338-0.753-0.753s0.338-0.753,0.753-0.753
				c0.415,0,0.753,0.338,0.753,0.753S448.416,137.645,448.001,137.645z M448.001,136.395c-0.274,0-0.497,0.223-0.497,0.497
				c0,0.274,0.223,0.497,0.497,0.497c0.274,0,0.497-0.223,0.497-0.497C448.498,136.618,448.275,136.395,448.001,136.395z"/>
		</g>
		<g>
			<path fill="#00A1E9" d="M448.001,134.592c-0.415,0-0.753-0.338-0.753-0.753c0-0.415,0.338-0.753,0.753-0.753
				c0.415,0,0.753,0.338,0.753,0.753C448.754,134.254,448.416,134.592,448.001,134.592z M448.001,133.342
				c-0.274,0-0.497,0.223-0.497,0.497c0,0.274,0.223,0.497,0.497,0.497c0.274,0,0.497-0.223,0.497-0.497
				C448.498,133.565,448.275,133.342,448.001,133.342z"/>
		</g>
		<g>
			<path fill="#00A1E9" d="M448.68,134.128l1.061,1.061l0.216,0.216l1.78,1.78c0.013,0.013-0.004,0.042-0.025,0.043l-0.353,0.017
				c-0.277,0.013-0.518-0.077-0.68-0.255l-1.098-1.209l-0.213-0.234l-1.003-1.104L448.68,134.128z"/>
		</g>
		<g>
			<polygon fill="#00A1E9" points="449.741,135.19 449.957,135.405 449.581,135.781 449.369,135.546 			"/>
		</g>
		<g>
			<path fill="#00A1E9" d="M448.652,136.656l3.057-3.057c0.013-0.013-0.004-0.042-0.025-0.043l-0.353-0.017
				c-0.277-0.013-0.518,0.077-0.68,0.255l-2.313,2.548L448.652,136.656z"/>
		</g>
		<g>
			<circle fill="#00A1E9" cx="449.549" cy="135.373" r="0.114"/>
		</g>
	</g>
	<g>
		<g>
			<path fill="#00A1E9" d="M452.885,138.06c-0.415,0-0.753-0.338-0.753-0.753s0.338-0.753,0.753-0.753
				c0.415,0,0.753,0.338,0.753,0.753S453.3,138.06,452.885,138.06z M452.885,136.81c-0.274,0-0.497,0.223-0.497,0.497
				s0.223,0.497,0.497,0.497s0.497-0.223,0.497-0.497S453.159,136.81,452.885,136.81z"/>
		</g>
		<g>
			<path fill="#00A1E9" d="M452.885,135.007c-0.415,0-0.753-0.338-0.753-0.753c0-0.415,0.338-0.753,0.753-0.753
				c0.415,0,0.753,0.338,0.753,0.753C453.638,134.669,453.3,135.007,452.885,135.007z M452.885,133.757
				c-0.274,0-0.497,0.223-0.497,0.497c0,0.274,0.223,0.497,0.497,0.497s0.497-0.223,0.497-0.497
				C453.382,133.98,453.159,133.757,452.885,133.757z"/>
		</g>
		<g>
			<path fill="#00A1E9" d="M453.564,134.543l1.061,1.061l0.216,0.216l1.78,1.78c0.013,0.013-0.004,0.042-0.025,0.043l-0.353,0.017
				c-0.277,0.013-0.518-0.077-0.68-0.255l-1.098-1.209l-0.213-0.234l-1.003-1.104L453.564,134.543z"/>
		</g>
		<g>
			<polygon fill="#00A1E9" points="454.626,135.604 454.841,135.82 454.466,136.195 454.253,135.961 			"/>
		</g>
		<g>
			<path fill="#00A1E9" d="M453.536,137.071l3.057-3.057c0.013-0.013-0.004-0.042-0.025-0.043l-0.353-0.017
				c-0.277-0.013-0.518,0.077-0.68,0.255l-2.313,2.548L453.536,137.071z"/>
		</g>
		<g>
			<circle fill="#00A1E9" cx="454.433" cy="135.788" r="0.114"/>
		</g>
	</g>
	<g>
		<g>
			<path fill="#00A1E9" d="M443.595,208.396c-0.415,0-0.753-0.338-0.753-0.753s0.338-0.753,0.753-0.753s0.753,0.338,0.753,0.753
				S444.01,208.396,443.595,208.396z M443.595,207.147c-0.274,0-0.497,0.223-0.497,0.497c0,0.274,0.223,0.497,0.497,0.497
				s0.497-0.223,0.497-0.497C444.092,207.37,443.87,207.147,443.595,207.147z"/>
		</g>
		<g>
			<path fill="#00A1E9" d="M443.595,205.343c-0.415,0-0.753-0.338-0.753-0.753c0-0.415,0.338-0.753,0.753-0.753
				s0.753,0.338,0.753,0.753C444.348,205.006,444.01,205.343,443.595,205.343z M443.595,204.094c-0.274,0-0.497,0.223-0.497,0.497
				c0,0.274,0.223,0.497,0.497,0.497s0.497-0.223,0.497-0.497C444.092,204.317,443.87,204.094,443.595,204.094z"/>
		</g>
		<g>
			<path fill="#00A1E9" d="M444.274,204.879l1.061,1.061l0.216,0.216l1.78,1.78c0.013,0.013-0.004,0.042-0.025,0.043l-0.353,0.017
				c-0.277,0.013-0.518-0.077-0.68-0.255l-1.098-1.209l-0.213-0.234l-1.003-1.104L444.274,204.879z"/>
		</g>
		<g>
			<polygon fill="#00A1E9" points="445.336,205.941 445.551,206.156 445.176,206.532 444.963,206.298 			"/>
		</g>
		<g>
			<path fill="#00A1E9" d="M444.246,207.408l3.057-3.057c0.013-0.013-0.004-0.042-0.025-0.043l-0.353-0.017
				c-0.277-0.013-0.518,0.077-0.68,0.255l-2.313,2.548L444.246,207.408z"/>
		</g>
		<g>
			<circle fill="#00A1E9" cx="445.143" cy="206.124" r="0.114"/>
		</g>
	</g>
	<g>
		<g>
			<path fill="#00A1E9" d="M442.854,213.674c-0.415,0-0.753-0.338-0.753-0.753c0-0.415,0.338-0.753,0.753-0.753
				s0.753,0.338,0.753,0.753C443.607,213.336,443.269,213.674,442.854,213.674z M442.854,212.424c-0.274,0-0.497,0.223-0.497,0.497
				c0,0.274,0.223,0.497,0.497,0.497s0.497-0.223,0.497-0.497C443.351,212.647,443.128,212.424,442.854,212.424z"/>
		</g>
		<g>
			<path fill="#00A1E9" d="M442.854,210.621c-0.415,0-0.753-0.338-0.753-0.753c0-0.415,0.338-0.753,0.753-0.753
				s0.753,0.338,0.753,0.753C443.607,210.283,443.269,210.621,442.854,210.621z M442.854,209.371c-0.274,0-0.497,0.223-0.497,0.497
				c0,0.274,0.223,0.497,0.497,0.497s0.497-0.223,0.497-0.497C443.351,209.594,443.128,209.371,442.854,209.371z"/>
		</g>
		<g>
			<path fill="#00A1E9" d="M443.533,210.157l1.061,1.061l0.216,0.216l1.78,1.78c0.013,0.013-0.004,0.042-0.025,0.043l-0.353,0.017
				c-0.277,0.013-0.518-0.077-0.68-0.255l-1.098-1.209l-0.213-0.234l-1.003-1.104L443.533,210.157z"/>
		</g>
		<g>
			<polygon fill="#00A1E9" points="444.594,211.218 444.81,211.434 444.435,211.809 444.222,211.575 			"/>
		</g>
		<g>
			<path fill="#00A1E9" d="M443.505,212.685l3.057-3.057c0.013-0.013-0.004-0.042-0.025-0.043l-0.353-0.017
				c-0.277-0.013-0.518,0.077-0.68,0.255l-2.313,2.548L443.505,212.685z"/>
		</g>
		<g>
			<circle fill="#00A1E9" cx="444.402" cy="211.402" r="0.114"/>
		</g>
	</g>
	<g>
		<g>
			<path fill="#00A1E9" d="M419.981,213.793c-0.415,0-0.753-0.338-0.753-0.753c0-0.415,0.338-0.753,0.753-0.753
				c0.415,0,0.753,0.338,0.753,0.753C420.734,213.455,420.396,213.793,419.981,213.793z M419.981,212.543
				c-0.274,0-0.497,0.223-0.497,0.497c0,0.274,0.223,0.497,0.497,0.497s0.497-0.223,0.497-0.497
				C420.478,212.766,420.255,212.543,419.981,212.543z"/>
		</g>
		<g>
			<path fill="#00A1E9" d="M419.981,210.74c-0.415,0-0.753-0.338-0.753-0.753c0-0.415,0.338-0.753,0.753-0.753
				c0.415,0,0.753,0.338,0.753,0.753C420.734,210.402,420.396,210.74,419.981,210.74z M419.981,209.49
				c-0.274,0-0.497,0.223-0.497,0.497c0,0.274,0.223,0.497,0.497,0.497s0.497-0.223,0.497-0.497
				C420.478,209.713,420.255,209.49,419.981,209.49z"/>
		</g>
		<g>
			<path fill="#00A1E9" d="M420.66,210.276l1.061,1.061l0.216,0.216l1.78,1.78c0.013,0.013-0.004,0.042-0.025,0.043l-0.353,0.017
				c-0.277,0.013-0.518-0.077-0.68-0.255l-1.098-1.209l-0.213-0.234l-1.003-1.104L420.66,210.276z"/>
		</g>
		<g>
			<polygon fill="#00A1E9" points="421.721,211.337 421.937,211.553 421.561,211.928 421.349,211.694 			"/>
		</g>
		<g>
			<path fill="#00A1E9" d="M420.632,212.804l3.057-3.057c0.013-0.013-0.004-0.042-0.025-0.043l-0.353-0.017
				c-0.277-0.013-0.518,0.077-0.68,0.255l-2.313,2.548L420.632,212.804z"/>
		</g>
		<g>
			<circle fill="#00A1E9" cx="421.529" cy="211.521" r="0.114"/>
		</g>
	</g>
	<g>
		<g>
			<path fill="#00A1E9" d="M425.069,224.145c-0.415,0-0.753-0.338-0.753-0.753c0-0.415,0.338-0.753,0.753-0.753
				s0.753,0.338,0.753,0.753C425.821,223.808,425.483,224.145,425.069,224.145z M425.069,222.896c-0.274,0-0.497,0.223-0.497,0.497
				c0,0.274,0.223,0.497,0.497,0.497s0.497-0.223,0.497-0.497C425.566,223.118,425.343,222.896,425.069,222.896z"/>
		</g>
		<g>
			<path fill="#00A1E9" d="M425.069,221.092c-0.415,0-0.753-0.338-0.753-0.753s0.338-0.753,0.753-0.753s0.753,0.338,0.753,0.753
				S425.483,221.092,425.069,221.092z M425.069,219.843c-0.274,0-0.497,0.223-0.497,0.497s0.223,0.497,0.497,0.497
				s0.497-0.223,0.497-0.497S425.343,219.843,425.069,219.843z"/>
		</g>
		<g>
			<path fill="#00A1E9" d="M425.747,220.628l1.061,1.061l0.216,0.216l1.78,1.78c0.013,0.013-0.004,0.042-0.025,0.043l-0.353,0.017
				c-0.277,0.013-0.518-0.077-0.68-0.255l-1.098-1.209l-0.213-0.234l-1.003-1.104L425.747,220.628z"/>
		</g>
		<g>
			<polygon fill="#00A1E9" points="426.809,221.69 427.024,221.905 426.649,222.281 426.436,222.046 			"/>
		</g>
		<g>
			<path fill="#00A1E9" d="M425.719,223.156l3.057-3.057c0.013-0.013-0.004-0.042-0.025-0.043l-0.353-0.017
				c-0.277-0.013-0.518,0.077-0.68,0.255l-2.313,2.548L425.719,223.156z"/>
		</g>
		<g>
			<circle fill="#00A1E9" cx="426.616" cy="221.873" r="0.114"/>
		</g>
	</g>
	<g>
		<g>
			<path fill="#00A1E9" d="M434.223,298.334c-0.415,0-0.753-0.338-0.753-0.753c0-0.415,0.338-0.753,0.753-0.753
				s0.753,0.338,0.753,0.753C434.976,297.997,434.638,298.334,434.223,298.334z M434.223,297.085c-0.274,0-0.497,0.223-0.497,0.497
				s0.223,0.497,0.497,0.497s0.497-0.223,0.497-0.497S434.497,297.085,434.223,297.085z"/>
		</g>
		<g>
			<path fill="#00A1E9" d="M434.223,295.281c-0.415,0-0.753-0.338-0.753-0.753c0-0.415,0.338-0.753,0.753-0.753
				s0.753,0.338,0.753,0.753C434.976,294.944,434.638,295.281,434.223,295.281z M434.223,294.032c-0.274,0-0.497,0.223-0.497,0.497
				c0,0.274,0.223,0.497,0.497,0.497s0.497-0.223,0.497-0.497C434.72,294.255,434.497,294.032,434.223,294.032z"/>
		</g>
		<g>
			<path fill="#00A1E9" d="M434.902,294.817l1.061,1.061l0.216,0.216l1.78,1.78c0.013,0.013-0.004,0.042-0.025,0.043l-0.353,0.017
				c-0.277,0.013-0.518-0.077-0.68-0.255l-1.098-1.209l-0.213-0.234l-1.003-1.104L434.902,294.817z"/>
		</g>
		<g>
			<polygon fill="#00A1E9" points="435.963,295.879 436.179,296.094 435.803,296.47 435.591,296.236 			"/>
		</g>
		<g>
			<path fill="#00A1E9" d="M434.873,297.345l3.057-3.057c0.013-0.013-0.004-0.042-0.025-0.043l-0.353-0.017
				c-0.277-0.013-0.518,0.077-0.68,0.255l-2.313,2.548L434.873,297.345z"/>
		</g>
		<g>
			<circle fill="#00A1E9" cx="435.771" cy="296.062" r="0.114"/>
		</g>
	</g>
	<g>
		<g>
			<path fill="#00A1E9" d="M421.211,313.272c-0.415,0-0.753-0.338-0.753-0.753c0-0.415,0.338-0.753,0.753-0.753
				s0.753,0.338,0.753,0.753C421.964,312.935,421.626,313.272,421.211,313.272z M421.211,312.023c-0.274,0-0.497,0.223-0.497,0.497
				c0,0.274,0.223,0.497,0.497,0.497s0.497-0.223,0.497-0.497C421.708,312.246,421.485,312.023,421.211,312.023z"/>
		</g>
		<g>
			<path fill="#00A1E9" d="M421.211,310.219c-0.415,0-0.753-0.338-0.753-0.753c0-0.415,0.338-0.753,0.753-0.753
				s0.753,0.338,0.753,0.753C421.964,309.882,421.626,310.219,421.211,310.219z M421.211,308.97c-0.274,0-0.497,0.223-0.497,0.497
				s0.223,0.497,0.497,0.497s0.497-0.223,0.497-0.497S421.485,308.97,421.211,308.97z"/>
		</g>
		<g>
			<path fill="#00A1E9" d="M421.89,309.755l1.061,1.061l0.216,0.216l1.78,1.78c0.013,0.013-0.004,0.042-0.025,0.043l-0.353,0.017
				c-0.277,0.013-0.518-0.077-0.68-0.255l-1.098-1.209l-0.213-0.234l-1.003-1.104L421.89,309.755z"/>
		</g>
		<g>
			<polygon fill="#00A1E9" points="422.951,310.817 423.167,311.032 422.792,311.408 422.579,311.173 			"/>
		</g>
		<g>
			<path fill="#00A1E9" d="M421.862,312.283l3.057-3.057c0.013-0.013-0.004-0.042-0.025-0.043l-0.353-0.017
				c-0.277-0.013-0.518,0.077-0.68,0.255l-2.313,2.548L421.862,312.283z"/>
		</g>
		<g>
			<circle fill="#00A1E9" cx="422.759" cy="311" r="0.114"/>
		</g>
	</g>
	<g>
		<g>
			<path fill="#00A1E9" d="M407.579,300.162c-0.415,0-0.753-0.338-0.753-0.753c0-0.415,0.338-0.753,0.753-0.753
				s0.753,0.338,0.753,0.753C408.332,299.824,407.994,300.162,407.579,300.162z M407.579,298.913c-0.274,0-0.497,0.223-0.497,0.497
				c0,0.274,0.223,0.497,0.497,0.497s0.497-0.223,0.497-0.497C408.076,299.135,407.853,298.913,407.579,298.913z"/>
		</g>
		<g>
			<path fill="#00A1E9" d="M407.579,297.109c-0.415,0-0.753-0.338-0.753-0.753s0.338-0.753,0.753-0.753s0.753,0.338,0.753,0.753
				S407.994,297.109,407.579,297.109z M407.579,295.859c-0.274,0-0.497,0.223-0.497,0.497s0.223,0.497,0.497,0.497
				s0.497-0.223,0.497-0.497S407.853,295.859,407.579,295.859z"/>
		</g>
		<g>
			<path fill="#00A1E9" d="M408.258,296.645l1.061,1.061l0.216,0.216l1.78,1.78c0.013,0.013-0.004,0.042-0.025,0.043l-0.353,0.017
				c-0.277,0.013-0.518-0.077-0.68-0.255l-1.098-1.209l-0.213-0.234l-1.003-1.104L408.258,296.645z"/>
		</g>
		<g>
			<polygon fill="#00A1E9" points="409.32,297.707 409.535,297.922 409.16,298.298 408.947,298.063 			"/>
		</g>
		<g>
			<path fill="#00A1E9" d="M408.23,299.173l3.057-3.057c0.013-0.013-0.004-0.042-0.025-0.043l-0.353-0.017
				c-0.277-0.013-0.518,0.077-0.68,0.255l-2.313,2.548L408.23,299.173z"/>
		</g>
		<g>
			<circle fill="#00A1E9" cx="409.127" cy="297.89" r="0.114"/>
		</g>
	</g>
	<g>
		<g>
			<path fill="#00A1E9" d="M423.574,290c-0.415,0-0.753-0.338-0.753-0.753c0-0.415,0.338-0.753,0.753-0.753s0.753,0.338,0.753,0.753
				C424.327,289.663,423.989,290,423.574,290z M423.574,288.751c-0.274,0-0.497,0.223-0.497,0.497s0.223,0.497,0.497,0.497
				s0.497-0.223,0.497-0.497S423.849,288.751,423.574,288.751z"/>
		</g>
		<g>
			<path fill="#00A1E9" d="M423.574,286.947c-0.415,0-0.753-0.338-0.753-0.753c0-0.415,0.338-0.753,0.753-0.753
				s0.753,0.338,0.753,0.753C424.327,286.61,423.989,286.947,423.574,286.947z M423.574,285.698c-0.274,0-0.497,0.223-0.497,0.497
				c0,0.274,0.223,0.497,0.497,0.497s0.497-0.223,0.497-0.497C424.072,285.921,423.849,285.698,423.574,285.698z"/>
		</g>
		<g>
			<path fill="#00A1E9" d="M424.253,286.483l1.061,1.061l0.216,0.216l1.78,1.78c0.013,0.013-0.004,0.042-0.025,0.043l-0.353,0.017
				c-0.277,0.013-0.518-0.077-0.68-0.255l-1.098-1.209l-0.213-0.234l-1.003-1.104L424.253,286.483z"/>
		</g>
		<g>
			<polygon fill="#00A1E9" points="425.315,287.545 425.53,287.76 425.155,288.136 424.942,287.902 			"/>
		</g>
		<g>
			<path fill="#00A1E9" d="M424.225,289.012l3.057-3.057c0.013-0.013-0.004-0.042-0.025-0.043l-0.353-0.017
				c-0.277-0.013-0.518,0.077-0.68,0.255l-2.313,2.548L424.225,289.012z"/>
		</g>
		<g>
			<circle fill="#00A1E9" cx="425.122" cy="287.728" r="0.114"/>
		</g>
	</g>
</g>
<g>
	<path d="M24.174,365.257c-1.104,0-1.968-0.342-2.592-1.026c-0.624-0.684-0.936-1.693-0.936-3.029v-0.276
		c0-0.704,0.096-1.317,0.288-1.842c0.192-0.524,0.46-0.94,0.804-1.248s0.734-0.536,1.17-0.684c0.436-0.148,0.918-0.223,1.446-0.223
		c0.792,0,1.452,0.148,1.98,0.444v0.876c-0.744-0.28-1.432-0.42-2.064-0.42c-0.76,0-1.364,0.238-1.812,0.714
		c-0.448,0.476-0.672,1.214-0.672,2.214v0.432c0,2.112,0.848,3.168,2.544,3.168c0.664,0,1.364-0.172,2.1-0.516v0.9
		C25.831,365.085,25.078,365.257,24.174,365.257z"/>
	<path d="M28.05,366.914c-0.288,0-0.544-0.057-0.768-0.168v-0.72c0.192,0.031,0.384,0.048,0.576,0.048
		c0.632,0,1.024-0.185,1.176-0.553l0.276-0.779l-2.292-5.58h1.104l1.68,4.224h0.048l1.548-4.224h0.996l-2.412,6.504
		c-0.192,0.528-0.424,0.868-0.696,1.02C29.014,366.837,28.602,366.914,28.05,366.914z"/>
	<path d="M35.31,365.185c-1.072,0-1.608-0.487-1.608-1.464v-3.708H32.85v-0.852h0.852v-1.416h1.02v1.416h1.5v0.852h-1.5v3.564
		c0,0.288,0.062,0.49,0.186,0.605c0.124,0.116,0.35,0.174,0.678,0.174c0.248,0,0.5-0.031,0.756-0.096v0.696
		C35.99,365.11,35.646,365.185,35.31,365.185z"/>
	<path d="M39.858,365.233c-0.856,0-1.522-0.262-1.998-0.785c-0.476-0.524-0.714-1.25-0.714-2.179v-0.204
		c0-0.928,0.248-1.663,0.744-2.208c0.496-0.544,1.156-0.815,1.98-0.815c0.856,0,1.524,0.264,2.004,0.792s0.72,1.26,0.72,2.196v0.191
		c0,0.929-0.25,1.662-0.75,2.202S40.682,365.233,39.858,365.233z M39.882,364.393c0.528,0,0.934-0.178,1.218-0.533
		c0.284-0.356,0.426-0.866,0.426-1.53v-0.324c0-1.416-0.56-2.124-1.68-2.124c-0.52,0-0.924,0.18-1.212,0.54
		s-0.432,0.872-0.432,1.536v0.336C38.202,363.694,38.762,364.393,39.882,364.393z"/>
	<path d="M45.378,365.221c-0.808,0-1.452-0.14-1.932-0.42v-0.804c0.616,0.248,1.208,0.372,1.776,0.372
		c0.856,0,1.284-0.276,1.284-0.828c0-0.24-0.074-0.43-0.222-0.57c-0.148-0.14-0.402-0.258-0.762-0.354l-0.564-0.156
		c-0.48-0.128-0.848-0.316-1.104-0.564c-0.256-0.247-0.384-0.611-0.384-1.092c0-0.544,0.174-0.974,0.522-1.29
		c0.348-0.315,0.87-0.474,1.566-0.474c0.624,0,1.167,0.116,1.632,0.348v0.828c-0.448-0.208-0.98-0.312-1.596-0.312
		c-0.768,0-1.152,0.264-1.152,0.792c0,0.239,0.064,0.42,0.192,0.54c0.128,0.119,0.352,0.224,0.672,0.312l0.564,0.145
		c0.6,0.16,1.021,0.363,1.266,0.611s0.366,0.628,0.366,1.141c0,0.575-0.188,1.016-0.564,1.319
		C46.561,365.07,46.042,365.221,45.378,365.221z"/>
	<path d="M51.09,365.233c-0.856,0-1.522-0.262-1.998-0.785c-0.476-0.524-0.714-1.25-0.714-2.179v-0.204
		c0-0.928,0.248-1.663,0.744-2.208c0.496-0.544,1.156-0.815,1.98-0.815c0.856,0,1.524,0.264,2.004,0.792s0.72,1.26,0.72,2.196v0.191
		c0,0.929-0.25,1.662-0.75,2.202S51.914,365.233,51.09,365.233z M51.114,364.393c0.528,0,0.934-0.178,1.218-0.533
		c0.284-0.356,0.426-0.866,0.426-1.53v-0.324c0-1.416-0.56-2.124-1.68-2.124c-0.52,0-0.924,0.18-1.212,0.54
		s-0.432,0.872-0.432,1.536v0.336C49.434,363.694,49.994,364.393,51.114,364.393z"/>
	<path d="M55.098,365.125v-8.592h1.032v8.592H55.098z"/>
</g>
<g>
	<path d="M148.732,24.894c-0.928,0-1.634-0.266-2.118-0.798c-0.484-0.531-0.726-1.266-0.726-2.202v-0.18
		c0-0.983,0.25-1.731,0.75-2.244c0.5-0.512,1.126-0.768,1.878-0.768c1.608,0,2.412,0.94,2.412,2.82v0.575h-3.984
		c0.032,0.688,0.212,1.181,0.54,1.477s0.8,0.443,1.416,0.443c0.664,0,1.28-0.151,1.848-0.455v0.756
		C150.244,24.703,149.572,24.894,148.732,24.894z M148.468,19.531c-0.392,0-0.734,0.134-1.026,0.401
		c-0.292,0.269-0.458,0.715-0.498,1.339h2.904c0-0.608-0.114-1.051-0.342-1.326C149.278,19.668,148.932,19.531,148.468,19.531z"/>
	<path d="M152.188,24.787v-5.964h0.972v0.516h0.06c0.592-0.424,1.26-0.636,2.004-0.636c0.592,0,1.028,0.132,1.308,0.396
		c0.28,0.265,0.42,0.681,0.42,1.248v4.44h-1.008v-4.224c0-0.353-0.08-0.603-0.24-0.75c-0.16-0.148-0.468-0.223-0.924-0.223
		c-0.488,0-1.012,0.132-1.572,0.396v4.8H152.188z"/>
	<path d="M160.661,24.894c-0.304,0-0.594-0.05-0.87-0.149s-0.536-0.258-0.78-0.474c-0.244-0.217-0.44-0.519-0.588-0.906
		s-0.222-0.847-0.222-1.374v-0.168c0-1.04,0.242-1.82,0.726-2.34c0.484-0.521,1.126-0.78,1.926-0.78
		c0.584,0,1.092,0.124,1.524,0.372v-2.88h1.02v8.592h-0.864l-0.096-0.48h-0.06C161.984,24.699,161.412,24.894,160.661,24.894z
		 M160.997,24.054c0.536,0,0.996-0.155,1.38-0.468v-3.66c-0.288-0.231-0.752-0.348-1.392-0.348c-0.568,0-0.996,0.164-1.284,0.492
		c-0.288,0.328-0.432,0.868-0.432,1.62v0.264c0,0.76,0.15,1.3,0.45,1.62C160.018,23.895,160.444,24.054,160.997,24.054z"/>
	<path d="M167.368,24.894c-0.856,0-1.522-0.262-1.998-0.785c-0.476-0.524-0.714-1.25-0.714-2.179v-0.204
		c0-0.928,0.248-1.663,0.744-2.208c0.496-0.544,1.156-0.815,1.98-0.815c0.856,0,1.524,0.264,2.004,0.792s0.72,1.26,0.72,2.196v0.191
		c0,0.929-0.25,1.662-0.75,2.202S168.192,24.894,167.368,24.894z M167.392,24.054c0.528,0,0.934-0.178,1.218-0.533
		c0.284-0.356,0.426-0.866,0.426-1.53v-0.324c0-1.416-0.56-2.124-1.68-2.124c-0.52,0-0.924,0.18-1.212,0.54
		s-0.432,0.872-0.432,1.536v0.336C165.712,23.355,166.272,24.054,167.392,24.054z"/>
	<path d="M173.752,24.894c-0.872,0-1.552-0.247-2.04-0.743c-0.488-0.496-0.732-1.232-0.732-2.208v-0.204
		c0-1,0.264-1.756,0.792-2.269c0.528-0.512,1.208-0.768,2.04-0.768c0.648,0,1.188,0.132,1.62,0.396v0.853
		c-0.576-0.248-1.14-0.372-1.692-0.372c-0.536,0-0.954,0.174-1.254,0.521c-0.3,0.349-0.45,0.847-0.45,1.494v0.312
		c0,0.736,0.152,1.273,0.456,1.614c0.304,0.34,0.76,0.51,1.368,0.51c0.496,0,1.048-0.14,1.656-0.42v0.815
		C175.028,24.739,174.44,24.894,173.752,24.894z"/>
	<path d="M177.04,26.575c-0.288,0-0.544-0.057-0.768-0.168v-0.72c0.192,0.031,0.384,0.048,0.576,0.048
		c0.632,0,1.024-0.185,1.176-0.553l0.276-0.779l-2.292-5.58h1.104l1.68,4.224h0.048l1.548-4.224h0.996l-2.412,6.504
		c-0.192,0.528-0.424,0.868-0.696,1.02C178.004,26.498,177.592,26.575,177.04,26.575z"/>
	<path d="M184.299,24.846c-1.072,0-1.608-0.487-1.608-1.464v-3.708h-0.852v-0.852h0.852v-1.416h1.02v1.416h1.5v0.852h-1.5v3.564
		c0,0.288,0.062,0.49,0.186,0.605c0.124,0.116,0.35,0.174,0.678,0.174c0.248,0,0.5-0.031,0.756-0.096v0.696
		C184.979,24.771,184.635,24.846,184.299,24.846z"/>
	<path d="M188.847,24.894c-0.856,0-1.522-0.262-1.998-0.785c-0.476-0.524-0.714-1.25-0.714-2.179v-0.204
		c0-0.928,0.248-1.663,0.744-2.208c0.496-0.544,1.156-0.815,1.98-0.815c0.856,0,1.524,0.264,2.004,0.792s0.72,1.26,0.72,2.196v0.191
		c0,0.929-0.25,1.662-0.75,2.202S189.671,24.894,188.847,24.894z M188.872,24.054c0.528,0,0.934-0.178,1.218-0.533
		c0.284-0.356,0.426-0.866,0.426-1.53v-0.324c0-1.416-0.56-2.124-1.68-2.124c-0.52,0-0.924,0.18-1.212,0.54
		s-0.432,0.872-0.432,1.536v0.336C187.191,23.355,187.751,24.054,188.872,24.054z"/>
	<path d="M194.368,24.882c-0.808,0-1.452-0.14-1.932-0.42v-0.804c0.616,0.248,1.208,0.372,1.776,0.372
		c0.856,0,1.284-0.276,1.284-0.828c0-0.24-0.074-0.43-0.222-0.57c-0.148-0.14-0.402-0.258-0.762-0.354l-0.564-0.156
		c-0.48-0.128-0.848-0.316-1.104-0.564c-0.256-0.247-0.384-0.611-0.384-1.092c0-0.544,0.174-0.974,0.522-1.29
		c0.348-0.315,0.87-0.474,1.566-0.474c0.624,0,1.167,0.116,1.632,0.348v0.828c-0.448-0.208-0.98-0.312-1.596-0.312
		c-0.768,0-1.152,0.264-1.152,0.792c0,0.239,0.064,0.42,0.192,0.54c0.128,0.119,0.352,0.224,0.672,0.312l0.564,0.145
		c0.6,0.16,1.021,0.363,1.266,0.611s0.366,0.628,0.366,1.141c0,0.575-0.188,1.016-0.564,1.319
		C195.551,24.731,195.032,24.882,194.368,24.882z"/>
	<path d="M197.763,17.647v-1.068h1.044v1.068H197.763z M197.763,24.787v-5.964h1.032v5.964H197.763z"/>
	<path d="M201.999,24.882c-0.808,0-1.452-0.14-1.932-0.42v-0.804c0.616,0.248,1.208,0.372,1.776,0.372
		c0.856,0,1.284-0.276,1.284-0.828c0-0.24-0.074-0.43-0.222-0.57c-0.148-0.14-0.402-0.258-0.762-0.354l-0.564-0.156
		c-0.48-0.128-0.848-0.316-1.104-0.564c-0.256-0.247-0.384-0.611-0.384-1.092c0-0.544,0.174-0.974,0.522-1.29
		c0.348-0.315,0.87-0.474,1.566-0.474c0.624,0,1.167,0.116,1.632,0.348v0.828c-0.448-0.208-0.98-0.312-1.596-0.312
		c-0.768,0-1.152,0.264-1.152,0.792c0,0.239,0.064,0.42,0.192,0.54c0.128,0.119,0.352,0.224,0.672,0.312l0.564,0.145
		c0.6,0.16,1.021,0.363,1.266,0.611s0.366,0.628,0.366,1.141c0,0.575-0.188,1.016-0.564,1.319
		C203.183,24.731,202.664,24.882,201.999,24.882z"/>
</g>
<g>
	<path d="M393.751,346.757c-0.928,0-1.634-0.266-2.118-0.798c-0.483-0.531-0.726-1.266-0.726-2.202v-0.18
		c0-0.983,0.25-1.731,0.75-2.244c0.5-0.512,1.126-0.768,1.878-0.768c1.608,0,2.412,0.94,2.412,2.82v0.575h-3.984
		c0.032,0.688,0.212,1.181,0.54,1.477s0.8,0.443,1.416,0.443c0.664,0,1.28-0.151,1.849-0.455v0.756
		C395.263,346.566,394.591,346.757,393.751,346.757z M393.488,341.394c-0.393,0-0.734,0.134-1.026,0.401
		c-0.292,0.269-0.458,0.715-0.498,1.339h2.904c0-0.608-0.114-1.051-0.342-1.326C394.297,341.532,393.952,341.394,393.488,341.394z"
		/>
	<path d="M396.607,346.65l2.005-3.036l-1.921-2.928h1.225l1.404,2.208l1.296-2.208h1.104l-1.824,2.928l1.98,3.036h-1.225
		l-1.439-2.304l-1.476,2.304H396.607z"/>
	<path d="M405.223,346.757c-0.856,0-1.522-0.262-1.998-0.785c-0.476-0.524-0.714-1.25-0.714-2.179v-0.204
		c0-0.928,0.248-1.663,0.744-2.208c0.496-0.544,1.155-0.815,1.979-0.815c0.856,0,1.524,0.264,2.004,0.792
		c0.48,0.528,0.721,1.26,0.721,2.196v0.191c0,0.929-0.25,1.662-0.75,2.202S406.047,346.757,405.223,346.757z M405.247,345.917
		c0.527,0,0.934-0.178,1.218-0.533c0.283-0.356,0.426-0.866,0.426-1.53v-0.324c0-1.416-0.56-2.124-1.68-2.124
		c-0.521,0-0.924,0.18-1.212,0.54s-0.433,0.872-0.433,1.536v0.336C403.567,345.218,404.127,345.917,405.247,345.917z"/>
	<path d="M411.607,346.757c-0.872,0-1.552-0.247-2.04-0.743c-0.487-0.496-0.731-1.232-0.731-2.208v-0.204
		c0-1,0.264-1.756,0.792-2.269c0.528-0.512,1.208-0.768,2.04-0.768c0.647,0,1.188,0.132,1.62,0.396v0.853
		c-0.576-0.248-1.141-0.372-1.692-0.372c-0.536,0-0.954,0.174-1.254,0.521c-0.3,0.349-0.45,0.847-0.45,1.494v0.312
		c0,0.736,0.152,1.273,0.456,1.614c0.304,0.34,0.76,0.51,1.368,0.51c0.496,0,1.048-0.14,1.656-0.42v0.815
		C412.883,346.602,412.295,346.757,411.607,346.757z"/>
	<path d="M414.895,348.438c-0.288,0-0.544-0.057-0.768-0.168v-0.72c0.191,0.031,0.384,0.048,0.575,0.048
		c0.632,0,1.024-0.185,1.177-0.553l0.275-0.779l-2.292-5.58h1.104l1.68,4.224h0.048l1.548-4.224h0.996l-2.412,6.504
		c-0.191,0.528-0.424,0.868-0.695,1.02C415.859,348.362,415.447,348.438,414.895,348.438z"/>
	<path d="M422.155,346.709c-1.071,0-1.607-0.487-1.607-1.464v-3.708h-0.853v-0.852h0.853v-1.416h1.02v1.416h1.5v0.852h-1.5v3.564
		c0,0.288,0.062,0.49,0.187,0.605c0.124,0.116,0.35,0.174,0.678,0.174c0.248,0,0.5-0.031,0.756-0.096v0.696
		C422.835,346.634,422.491,346.709,422.155,346.709z"/>
	<path d="M426.703,346.757c-0.855,0-1.521-0.262-1.997-0.785c-0.477-0.524-0.715-1.25-0.715-2.179v-0.204
		c0-0.928,0.248-1.663,0.744-2.208c0.496-0.544,1.156-0.815,1.98-0.815c0.855,0,1.523,0.264,2.004,0.792
		c0.479,0.528,0.72,1.26,0.72,2.196v0.191c0,0.929-0.25,1.662-0.75,2.202S427.527,346.757,426.703,346.757z M426.727,345.917
		c0.528,0,0.934-0.178,1.218-0.533c0.284-0.356,0.427-0.866,0.427-1.53v-0.324c0-1.416-0.561-2.124-1.681-2.124
		c-0.52,0-0.924,0.18-1.212,0.54s-0.432,0.872-0.432,1.536v0.336C425.047,345.218,425.607,345.917,426.727,345.917z"/>
	<path d="M432.223,346.746c-0.809,0-1.452-0.14-1.933-0.42v-0.804c0.616,0.248,1.208,0.372,1.776,0.372
		c0.855,0,1.284-0.276,1.284-0.828c0-0.24-0.074-0.43-0.223-0.57c-0.147-0.14-0.401-0.258-0.762-0.354l-0.563-0.156
		c-0.48-0.128-0.849-0.316-1.104-0.564c-0.256-0.247-0.384-0.611-0.384-1.092c0-0.544,0.174-0.974,0.521-1.29
		c0.349-0.315,0.87-0.474,1.566-0.474c0.624,0,1.168,0.116,1.632,0.348v0.828c-0.448-0.208-0.979-0.312-1.596-0.312
		c-0.769,0-1.152,0.264-1.152,0.792c0,0.239,0.064,0.42,0.192,0.54c0.128,0.119,0.352,0.224,0.672,0.312l0.564,0.145
		c0.6,0.16,1.021,0.363,1.266,0.611s0.366,0.628,0.366,1.141c0,0.575-0.188,1.016-0.564,1.319
		C433.407,346.594,432.887,346.746,432.223,346.746z"/>
	<path d="M435.619,339.51v-1.068h1.044v1.068H435.619z M435.619,346.65v-5.964h1.032v5.964H435.619z"/>
	<path d="M439.855,346.746c-0.809,0-1.452-0.14-1.933-0.42v-0.804c0.616,0.248,1.208,0.372,1.776,0.372
		c0.855,0,1.284-0.276,1.284-0.828c0-0.24-0.074-0.43-0.223-0.57c-0.147-0.14-0.401-0.258-0.762-0.354l-0.563-0.156
		c-0.48-0.128-0.849-0.316-1.104-0.564c-0.256-0.247-0.384-0.611-0.384-1.092c0-0.544,0.174-0.974,0.521-1.29
		c0.349-0.315,0.87-0.474,1.566-0.474c0.624,0,1.168,0.116,1.632,0.348v0.828c-0.448-0.208-0.979-0.312-1.596-0.312
		c-0.769,0-1.152,0.264-1.152,0.792c0,0.239,0.064,0.42,0.192,0.54c0.128,0.119,0.352,0.224,0.672,0.312l0.564,0.145
		c0.6,0.16,1.021,0.363,1.266,0.611s0.366,0.628,0.366,1.141c0,0.575-0.188,1.016-0.564,1.319
		C441.039,346.594,440.519,346.746,439.855,346.746z"/>
</g>
<g>
	<path d="M382.871,54.751v-8.064h2.568c0.888,0,1.558,0.208,2.01,0.624s0.679,1.009,0.679,1.776c0,0.792-0.236,1.404-0.708,1.836
		c-0.473,0.432-1.097,0.648-1.872,0.648h-1.62v3.18H382.871z M383.927,50.696h1.392c0.592,0,1.021-0.124,1.284-0.372
		s0.396-0.632,0.396-1.152c0-0.568-0.126-0.972-0.378-1.212s-0.678-0.36-1.277-0.36h-1.416V50.696z"/>
	<path d="M389.302,54.751V46.16h1.021v3.12h0.06c0.584-0.408,1.236-0.612,1.956-0.612c0.592,0,1.028,0.132,1.309,0.396
		c0.279,0.265,0.42,0.681,0.42,1.248v4.44h-1.009v-4.224c0-0.353-0.08-0.603-0.239-0.75c-0.16-0.148-0.469-0.223-0.924-0.223
		c-0.488,0-1.013,0.132-1.572,0.396v4.8H389.302z"/>
	<path d="M397.126,54.859c-0.56,0-1.008-0.144-1.344-0.432s-0.504-0.708-0.504-1.26c0-1.008,0.601-1.588,1.8-1.74l1.584-0.191
		v-0.553c0-0.447-0.105-0.748-0.317-0.899c-0.212-0.152-0.595-0.229-1.146-0.229c-0.392,0-0.868,0.057-1.428,0.168v-0.731
		c0.567-0.217,1.176-0.324,1.824-0.324c1.384,0,2.076,0.588,2.076,1.764v4.32h-0.816l-0.108-0.504h-0.06
		C398.319,54.656,397.799,54.859,397.126,54.859z M397.379,54.067c0.56,0,0.987-0.136,1.283-0.407v-1.645l-1.319,0.132
		c-0.353,0.04-0.608,0.137-0.769,0.288c-0.16,0.152-0.24,0.389-0.24,0.708c0,0.305,0.095,0.534,0.282,0.69
		C396.805,53.99,397.059,54.067,397.379,54.067z"/>
	<path d="M403.367,56.515c-1.8,0-2.7-0.432-2.7-1.296c0-0.296,0.103-0.546,0.307-0.75s0.474-0.354,0.81-0.45v-0.06
		c-0.4-0.152-0.6-0.392-0.6-0.72c0-0.393,0.228-0.752,0.684-1.08c-0.496-0.312-0.744-0.792-0.744-1.44v-0.12
		c0-0.6,0.21-1.071,0.63-1.416c0.421-0.344,0.967-0.516,1.639-0.516c0.312,0,0.604,0.036,0.876,0.107h2.028v0.769h-1.021
		c0.248,0.256,0.372,0.592,0.372,1.008v0.12c0,0.608-0.21,1.072-0.63,1.392c-0.42,0.32-0.966,0.48-1.638,0.48
		c-0.353,0-0.681-0.048-0.984-0.145c-0.168,0.129-0.252,0.28-0.252,0.456c0,0.145,0.044,0.244,0.132,0.301
		c0.088,0.056,0.232,0.084,0.432,0.084h1.633c1.264,0,1.896,0.504,1.896,1.512C406.235,55.927,405.279,56.515,403.367,56.515z
		 M403.343,55.711c0.672,0,1.144-0.06,1.416-0.18c0.271-0.12,0.407-0.328,0.407-0.624c0-0.248-0.076-0.428-0.228-0.54
		c-0.152-0.112-0.416-0.168-0.792-0.168h-1.68c-0.48,0.168-0.721,0.46-0.721,0.876c0,0.256,0.118,0.426,0.354,0.51
		C402.336,55.669,402.75,55.711,403.343,55.711z M403.379,51.775c0.84,0,1.26-0.352,1.26-1.056v-0.18
		c0-0.368-0.112-0.645-0.336-0.828c-0.225-0.184-0.532-0.276-0.924-0.276c-0.393,0-0.696,0.097-0.912,0.288
		c-0.217,0.192-0.324,0.456-0.324,0.792v0.181C402.143,51.415,402.555,51.775,403.379,51.775z"/>
	<path d="M409.607,54.859c-0.856,0-1.522-0.262-1.998-0.785c-0.476-0.524-0.714-1.25-0.714-2.179v-0.204
		c0-0.928,0.248-1.663,0.744-2.208c0.496-0.544,1.155-0.815,1.979-0.815c0.856,0,1.524,0.264,2.004,0.792
		c0.48,0.528,0.721,1.26,0.721,2.196v0.191c0,0.929-0.25,1.662-0.75,2.202S410.431,54.859,409.607,54.859z M409.631,54.019
		c0.527,0,0.934-0.178,1.218-0.533c0.283-0.356,0.426-0.866,0.426-1.53v-0.324c0-1.416-0.56-2.124-1.68-2.124
		c-0.521,0-0.924,0.18-1.212,0.54s-0.433,0.872-0.433,1.536v0.336C407.951,53.32,408.511,54.019,409.631,54.019z"/>
	<path d="M415.126,54.847c-0.808,0-1.452-0.14-1.932-0.42v-0.804c0.616,0.248,1.208,0.372,1.775,0.372
		c0.856,0,1.284-0.276,1.284-0.828c0-0.24-0.074-0.43-0.222-0.57c-0.148-0.14-0.402-0.258-0.762-0.354l-0.564-0.156
		c-0.479-0.128-0.848-0.316-1.104-0.564c-0.257-0.247-0.385-0.611-0.385-1.092c0-0.544,0.175-0.974,0.522-1.29
		c0.348-0.315,0.87-0.474,1.566-0.474c0.623,0,1.167,0.116,1.632,0.348v0.828c-0.448-0.208-0.98-0.312-1.597-0.312
		c-0.768,0-1.151,0.264-1.151,0.792c0,0.239,0.063,0.42,0.191,0.54c0.128,0.119,0.353,0.224,0.672,0.312l0.564,0.145
		c0.6,0.16,1.021,0.363,1.266,0.611s0.366,0.628,0.366,1.141c0,0.575-0.188,1.016-0.563,1.319
		C416.31,54.696,415.79,54.847,415.126,54.847z"/>
	<path d="M420.838,54.859c-0.855,0-1.521-0.262-1.997-0.785c-0.477-0.524-0.715-1.25-0.715-2.179v-0.204
		c0-0.928,0.248-1.663,0.744-2.208c0.496-0.544,1.156-0.815,1.98-0.815c0.855,0,1.523,0.264,2.004,0.792
		c0.479,0.528,0.72,1.26,0.72,2.196v0.191c0,0.929-0.25,1.662-0.75,2.202S421.663,54.859,420.838,54.859z M420.863,54.019
		c0.528,0,0.934-0.178,1.218-0.533c0.284-0.356,0.427-0.866,0.427-1.53v-0.324c0-1.416-0.561-2.124-1.681-2.124
		c-0.52,0-0.924,0.18-1.212,0.54s-0.432,0.872-0.432,1.536v0.336C419.183,53.32,419.743,54.019,420.863,54.019z"/>
	<path d="M424.823,54.751v-5.964h0.972v0.516h0.061c0.615-0.424,1.22-0.636,1.812-0.636c0.664,0,1.14,0.22,1.428,0.66h0.061
		c0.672-0.44,1.332-0.66,1.979-0.66c1.097,0,1.645,0.548,1.645,1.644v4.44h-1.008v-4.224c0-0.353-0.076-0.603-0.229-0.75
		c-0.152-0.148-0.424-0.223-0.815-0.223c-0.4,0-0.881,0.137-1.44,0.408c0.016,0.144,0.024,0.26,0.024,0.348v4.44h-1.021v-4.224
		c0-0.353-0.076-0.603-0.228-0.75c-0.152-0.148-0.42-0.223-0.805-0.223c-0.416,0-0.888,0.132-1.416,0.396v4.8H424.823z"/>
	<path d="M436.846,54.859c-0.928,0-1.634-0.266-2.118-0.798c-0.483-0.531-0.726-1.266-0.726-2.202v-0.18
		c0-0.983,0.25-1.731,0.75-2.244c0.5-0.512,1.126-0.768,1.878-0.768c1.608,0,2.412,0.94,2.412,2.82v0.575h-3.984
		c0.032,0.688,0.212,1.181,0.54,1.477s0.8,0.443,1.416,0.443c0.664,0,1.28-0.151,1.849-0.455v0.756
		C438.358,54.667,437.686,54.859,436.846,54.859z M436.582,49.496c-0.393,0-0.734,0.134-1.026,0.401
		c-0.292,0.269-0.458,0.715-0.498,1.339h2.904c0-0.608-0.114-1.051-0.342-1.326C437.392,49.633,437.046,49.496,436.582,49.496z"/>
</g>
<g>
	<path d="M429.765,114.484v-8.064h1.056v7.164h3.552v0.9H429.765z"/>
	<path d="M435.921,116.272c-0.288,0-0.545-0.057-0.769-0.168v-0.72c0.192,0.031,0.384,0.048,0.576,0.048
		c0.632,0,1.023-0.185,1.176-0.553l0.276-0.779l-2.292-5.58h1.104l1.681,4.224h0.048l1.548-4.224h0.996l-2.412,6.504
		c-0.192,0.528-0.424,0.868-0.696,1.02C436.885,116.196,436.473,116.272,435.921,116.272z"/>
	<path d="M442.797,114.58c-0.809,0-1.452-0.14-1.933-0.42v-0.804c0.616,0.248,1.208,0.372,1.776,0.372
		c0.855,0,1.284-0.276,1.284-0.828c0-0.24-0.074-0.43-0.223-0.57c-0.147-0.14-0.401-0.258-0.762-0.354l-0.563-0.156
		c-0.48-0.128-0.849-0.316-1.104-0.564c-0.256-0.247-0.384-0.611-0.384-1.092c0-0.544,0.174-0.974,0.521-1.29
		c0.349-0.315,0.87-0.474,1.566-0.474c0.624,0,1.168,0.116,1.632,0.348v0.828c-0.448-0.208-0.979-0.312-1.596-0.312
		c-0.769,0-1.152,0.264-1.152,0.792c0,0.239,0.064,0.42,0.192,0.54c0.128,0.119,0.352,0.224,0.672,0.312l0.564,0.145
		c0.6,0.16,1.021,0.363,1.266,0.611s0.366,0.628,0.366,1.141c0,0.575-0.188,1.016-0.564,1.319
		C443.981,114.428,443.461,114.58,442.797,114.58z"/>
	<path d="M448.508,114.591c-0.855,0-1.521-0.262-1.997-0.785c-0.477-0.524-0.715-1.25-0.715-2.179v-0.204
		c0-0.928,0.248-1.663,0.744-2.208c0.496-0.544,1.156-0.815,1.98-0.815c0.855,0,1.523,0.264,2.004,0.792
		c0.479,0.528,0.72,1.26,0.72,2.196v0.191c0,0.929-0.25,1.662-0.75,2.202S449.332,114.591,448.508,114.591z M448.533,113.751
		c0.528,0,0.934-0.178,1.218-0.533c0.284-0.356,0.427-0.866,0.427-1.53v-0.324c0-1.416-0.561-2.124-1.681-2.124
		c-0.52,0-0.924,0.18-1.212,0.54s-0.432,0.872-0.432,1.536v0.336C446.853,113.052,447.413,113.751,448.533,113.751z"/>
	<path d="M454.029,114.58c-0.809,0-1.452-0.14-1.933-0.42v-0.804c0.616,0.248,1.208,0.372,1.776,0.372
		c0.855,0,1.284-0.276,1.284-0.828c0-0.24-0.074-0.43-0.223-0.57c-0.147-0.14-0.401-0.258-0.762-0.354l-0.563-0.156
		c-0.48-0.128-0.849-0.316-1.104-0.564c-0.256-0.247-0.384-0.611-0.384-1.092c0-0.544,0.174-0.974,0.521-1.29
		c0.349-0.315,0.87-0.474,1.566-0.474c0.624,0,1.168,0.116,1.632,0.348v0.828c-0.448-0.208-0.979-0.312-1.596-0.312
		c-0.769,0-1.152,0.264-1.152,0.792c0,0.239,0.064,0.42,0.192,0.54c0.128,0.119,0.352,0.224,0.672,0.312l0.564,0.145
		c0.6,0.16,1.021,0.363,1.266,0.611s0.366,0.628,0.366,1.141c0,0.575-0.188,1.016-0.564,1.319
		C455.212,114.428,454.693,114.58,454.029,114.58z"/>
	<path d="M459.741,114.591c-0.856,0-1.522-0.262-1.998-0.785c-0.476-0.524-0.714-1.25-0.714-2.179v-0.204
		c0-0.928,0.248-1.663,0.744-2.208c0.496-0.544,1.155-0.815,1.979-0.815c0.856,0,1.524,0.264,2.004,0.792
		c0.48,0.528,0.721,1.26,0.721,2.196v0.191c0,0.929-0.25,1.662-0.75,2.202S460.565,114.591,459.741,114.591z M459.765,113.751
		c0.527,0,0.934-0.178,1.218-0.533c0.283-0.356,0.426-0.866,0.426-1.53v-0.324c0-1.416-0.56-2.124-1.68-2.124
		c-0.521,0-0.924,0.18-1.212,0.54s-0.433,0.872-0.433,1.536v0.336C458.084,113.052,458.645,113.751,459.765,113.751z"/>
	<path d="M463.724,114.484v-5.964h0.973v0.516h0.06c0.616-0.424,1.22-0.636,1.812-0.636c0.663,0,1.14,0.22,1.428,0.66h0.06
		c0.672-0.44,1.332-0.66,1.98-0.66c1.096,0,1.644,0.548,1.644,1.644v4.44h-1.008v-4.224c0-0.353-0.076-0.603-0.228-0.75
		c-0.152-0.148-0.425-0.223-0.816-0.223c-0.4,0-0.88,0.137-1.44,0.408c0.017,0.144,0.024,0.26,0.024,0.348v4.44h-1.02v-4.224
		c0-0.353-0.076-0.603-0.229-0.75c-0.152-0.148-0.42-0.223-0.804-0.223c-0.416,0-0.889,0.132-1.416,0.396v4.8H463.724z"/>
	<path d="M475.748,114.591c-0.928,0-1.634-0.266-2.118-0.798c-0.483-0.531-0.726-1.266-0.726-2.202v-0.18
		c0-0.983,0.25-1.731,0.75-2.244c0.5-0.512,1.126-0.768,1.878-0.768c1.608,0,2.412,0.94,2.412,2.82v0.575h-3.984
		c0.032,0.688,0.212,1.181,0.54,1.477s0.8,0.443,1.416,0.443c0.664,0,1.28-0.151,1.849-0.455v0.756
		C477.26,114.4,476.588,114.591,475.748,114.591z M475.485,109.228c-0.393,0-0.734,0.134-1.026,0.401
		c-0.292,0.269-0.458,0.715-0.498,1.339h2.904c0-0.608-0.114-1.051-0.342-1.326C476.294,109.366,475.949,109.228,475.485,109.228z"
		/>
</g>
<g>
</g>
<g>
</g>
<g>
</g>
<g>
</g>
<g>
</g>
<g>
</g>
<g>
</g>
</svg>
