<?xml version="1.0" encoding="UTF-8"?>
<svg id="_레이어_1" data-name="레이어 1" xmlns="http://www.w3.org/2000/svg" xmlns:xlink="http://www.w3.org/1999/xlink" viewBox="0 0 398.516 398.936">
  <defs>
    <style>
      .cls-1 {
        clip-path: url(#clippath-45);
      }

      .cls-2 {
        font-family: NotoSansCJKkr-Regular-KSCpc-EUC-H, 'Noto Sans CJK KR';
        font-size: 8px;
      }

      .cls-3 {
        clip-path: url(#clippath-20);
      }

      .cls-4, .cls-5, .cls-6, .cls-7, .cls-8, .cls-9, .cls-10 {
        fill: none;
      }

      .cls-4, .cls-5, .cls-7, .cls-8, .cls-9, .cls-10 {
        stroke-linejoin: round;
      }

      .cls-4, .cls-8 {
        stroke-linecap: round;
        stroke-width: .872px;
      }

      .cls-4, .cls-10 {
        stroke: #28ade4;
      }

      .cls-11 {
        clip-path: url(#clippath-11);
      }

      .cls-12 {
        clip-path: url(#clippath-16);
      }

      .cls-5 {
        stroke: #000;
      }

      .cls-5, .cls-7, .cls-9, .cls-10 {
        stroke-width: .667px;
      }

      .cls-13 {
        clip-path: url(#clippath-33);
      }

      .cls-14 {
        clip-path: url(#clippath-47);
      }

      .cls-15 {
        clip-path: url(#clippath-41);
      }

      .cls-16 {
        clip-path: url(#clippath-32);
      }

      .cls-17 {
        clip-path: url(#clippath-2);
      }

      .cls-18 {
        clip-path: url(#clippath-13);
      }

      .cls-19 {
        clip-path: url(#clippath-37);
      }

      .cls-20 {
        clip-path: url(#clippath-46);
      }

      .cls-21 {
        clip-path: url(#clippath-25);
      }

      .cls-22 {
        clip-path: url(#clippath-15);
      }

      .cls-23 {
        clip-path: url(#clippath-6);
      }

      .cls-24, .cls-25, .cls-26 {
        font-family: Helvetica, Helvetica;
      }

      .cls-24, .cls-27 {
        font-size: 6.002px;
      }

      .cls-28 {
        clip-path: url(#clippath-40);
      }

      .cls-29 {
        clip-path: url(#clippath-26);
      }

      .cls-6, .cls-30, .cls-31 {
        stroke-width: 0px;
      }

      .cls-30 {
        fill: #28ade4;
      }

      .cls-32 {
        clip-path: url(#clippath-7);
      }

      .cls-33 {
        clip-path: url(#clippath-21);
      }

      .cls-34 {
        clip-path: url(#clippath-34);
      }

      .cls-35 {
        clip-path: url(#clippath-1);
      }

      .cls-36 {
        clip-path: url(#clippath-4);
      }

      .cls-37 {
        clip-path: url(#clippath-38);
      }

      .cls-38 {
        clip-path: url(#clippath-36);
      }

      .cls-39 {
        clip-path: url(#clippath-27);
      }

      .cls-40 {
        clip-path: url(#clippath-44);
      }

      .cls-41 {
        clip-path: url(#clippath-12);
      }

      .cls-7, .cls-8 {
        stroke: #ed2024;
      }

      .cls-42 {
        clip-path: url(#clippath-24);
      }

      .cls-43 {
        clip-path: url(#clippath-30);
      }

      .cls-25 {
        font-size: 4.002px;
      }

      .cls-44 {
        clip-path: url(#clippath-22);
      }

      .cls-45 {
        clip-path: url(#clippath-9);
      }

      .cls-46 {
        clip-path: url(#clippath-52);
      }

      .cls-47 {
        clip-path: url(#clippath);
      }

      .cls-48 {
        clip-path: url(#clippath-50);
      }

      .cls-49 {
        clip-path: url(#clippath-48);
      }

      .cls-50 {
        clip-path: url(#clippath-39);
      }

      .cls-27 {
        font-family: Symbol2, Symbol2;
      }

      .cls-51 {
        clip-path: url(#clippath-19);
      }

      .cls-52 {
        clip-path: url(#clippath-31);
      }

      .cls-9 {
        stroke: #595959;
      }

      .cls-53 {
        clip-path: url(#clippath-3);
      }

      .cls-54 {
        clip-path: url(#clippath-43);
      }

      .cls-55 {
        clip-path: url(#clippath-8);
      }

      .cls-26 {
        fill: #fff;
        font-size: 8.567px;
      }

      .cls-56 {
        clip-path: url(#clippath-29);
      }

      .cls-57 {
        clip-path: url(#clippath-18);
      }

      .cls-58 {
        clip-path: url(#clippath-14);
      }

      .cls-59 {
        clip-path: url(#clippath-17);
      }

      .cls-60 {
        clip-path: url(#clippath-5);
      }

      .cls-31 {
        fill: #ed2024;
      }

      .cls-61 {
        clip-path: url(#clippath-42);
      }

      .cls-62 {
        clip-path: url(#clippath-10);
      }

      .cls-63 {
        clip-path: url(#clippath-23);
      }

      .cls-64 {
        clip-path: url(#clippath-49);
      }

      .cls-65 {
        clip-path: url(#clippath-51);
      }

      .cls-66 {
        clip-path: url(#clippath-28);
      }

      .cls-67 {
        clip-path: url(#clippath-35);
      }
    </style>
    <clipPath id="clippath">
      <rect class="cls-6" x="229.94" y="283.772" width="160.471" height="91.88"/>
    </clipPath>
    <clipPath id="clippath-1">
      <rect class="cls-6" x="229.94" y="283.772" width="160.471" height="91.88"/>
    </clipPath>
    <clipPath id="clippath-2">
      <rect class="cls-6" x="229.94" y="283.772" width="160.471" height="91.88"/>
    </clipPath>
    <clipPath id="clippath-3">
      <rect class="cls-6" x="229.94" y="283.772" width="160.471" height="92.547"/>
    </clipPath>
    <clipPath id="clippath-4">
      <rect class="cls-6" width="398.516" height="398.936"/>
    </clipPath>
    <clipPath id="clippath-5">
      <rect class="cls-6" x="229.94" y="283.772" width="160.471" height="92.547"/>
    </clipPath>
    <clipPath id="clippath-6">
      <rect class="cls-6" width="398.516" height="398.936"/>
    </clipPath>
    <clipPath id="clippath-7">
      <rect class="cls-6" width="398.516" height="398.936"/>
    </clipPath>
    <clipPath id="clippath-8">
      <rect class="cls-6" width="398.516" height="398.936"/>
    </clipPath>
    <clipPath id="clippath-9">
      <rect class="cls-6" x="28.218" y="283.772" width="160.47" height="91.88"/>
    </clipPath>
    <clipPath id="clippath-10">
      <rect class="cls-6" x="28.218" y="283.772" width="160.47" height="91.88"/>
    </clipPath>
    <clipPath id="clippath-11">
      <rect class="cls-6" x="28.218" y="283.772" width="160.47" height="91.88"/>
    </clipPath>
    <clipPath id="clippath-12">
      <rect class="cls-6" x="28.218" y="283.772" width="160.47" height="92.547"/>
    </clipPath>
    <clipPath id="clippath-13">
      <rect class="cls-6" width="398.516" height="398.936"/>
    </clipPath>
    <clipPath id="clippath-14">
      <rect class="cls-6" x="28.218" y="283.772" width="160.47" height="92.547"/>
    </clipPath>
    <clipPath id="clippath-15">
      <rect class="cls-6" width="398.516" height="398.936"/>
    </clipPath>
    <clipPath id="clippath-16">
      <rect class="cls-6" width="398.516" height="398.936"/>
    </clipPath>
    <clipPath id="clippath-17">
      <rect class="cls-6" width="398.516" height="398.936"/>
    </clipPath>
    <clipPath id="clippath-18">
      <rect class="cls-6" x="229.94" y="148.903" width="160.471" height="91.882"/>
    </clipPath>
    <clipPath id="clippath-19">
      <rect class="cls-6" x="229.94" y="148.903" width="160.471" height="91.882"/>
    </clipPath>
    <clipPath id="clippath-20">
      <rect class="cls-6" x="229.94" y="148.903" width="160.471" height="91.882"/>
    </clipPath>
    <clipPath id="clippath-21">
      <rect class="cls-6" x="229.94" y="148.902" width="160.471" height="92.497"/>
    </clipPath>
    <clipPath id="clippath-22">
      <rect class="cls-6" width="398.516" height="398.936"/>
    </clipPath>
    <clipPath id="clippath-23">
      <rect class="cls-6" x="229.94" y="148.902" width="160.471" height="92.497"/>
    </clipPath>
    <clipPath id="clippath-24">
      <rect class="cls-6" width="398.516" height="398.936"/>
    </clipPath>
    <clipPath id="clippath-25">
      <rect class="cls-6" width="398.516" height="398.936"/>
    </clipPath>
    <clipPath id="clippath-26">
      <rect class="cls-6" width="398.516" height="398.936"/>
    </clipPath>
    <clipPath id="clippath-27">
      <rect class="cls-6" x="28.218" y="148.852" width="160.47" height="91.879"/>
    </clipPath>
    <clipPath id="clippath-28">
      <rect class="cls-6" x="28.218" y="148.852" width="160.47" height="91.879"/>
    </clipPath>
    <clipPath id="clippath-29">
      <rect class="cls-6" x="28.218" y="148.852" width="160.47" height="91.879"/>
    </clipPath>
    <clipPath id="clippath-30">
      <rect class="cls-6" x="28.218" y="148.851" width="160.47" height="92.496"/>
    </clipPath>
    <clipPath id="clippath-31">
      <rect class="cls-6" width="398.516" height="398.936"/>
    </clipPath>
    <clipPath id="clippath-32">
      <rect class="cls-6" x="28.218" y="148.851" width="160.47" height="92.496"/>
    </clipPath>
    <clipPath id="clippath-33">
      <rect class="cls-6" width="398.516" height="398.936"/>
    </clipPath>
    <clipPath id="clippath-34">
      <rect class="cls-6" width="398.516" height="398.936"/>
    </clipPath>
    <clipPath id="clippath-35">
      <rect class="cls-6" width="398.516" height="398.936"/>
    </clipPath>
    <clipPath id="clippath-36">
      <rect class="cls-6" x="229.94" y="13.625" width="160.471" height="91.931"/>
    </clipPath>
    <clipPath id="clippath-37">
      <rect class="cls-6" x="229.94" y="13.625" width="160.471" height="91.931"/>
    </clipPath>
    <clipPath id="clippath-38">
      <rect class="cls-6" x="229.94" y="13.625" width="160.471" height="91.931"/>
    </clipPath>
    <clipPath id="clippath-39">
      <rect class="cls-6" x="229.94" y="13.624" width="160.471" height="92.548"/>
    </clipPath>
    <clipPath id="clippath-40">
      <rect class="cls-6" width="398.516" height="398.936"/>
    </clipPath>
    <clipPath id="clippath-41">
      <rect class="cls-6" x="229.94" y="13.624" width="160.471" height="92.548"/>
    </clipPath>
    <clipPath id="clippath-42">
      <rect class="cls-6" width="398.516" height="398.936"/>
    </clipPath>
    <clipPath id="clippath-43">
      <rect class="cls-6" width="398.516" height="398.936"/>
    </clipPath>
    <clipPath id="clippath-44">
      <rect class="cls-6" width="398.516" height="398.936"/>
    </clipPath>
    <clipPath id="clippath-45">
      <rect class="cls-6" x="28.218" y="13.676" width="160.47" height="91.88"/>
    </clipPath>
    <clipPath id="clippath-46">
      <rect class="cls-6" x="28.218" y="13.676" width="160.47" height="91.88"/>
    </clipPath>
    <clipPath id="clippath-47">
      <rect class="cls-6" x="28.218" y="13.676" width="160.47" height="91.88"/>
    </clipPath>
    <clipPath id="clippath-48">
      <rect class="cls-6" x="28.218" y="13.675" width="160.47" height="92.497"/>
    </clipPath>
    <clipPath id="clippath-49">
      <rect class="cls-6" width="398.516" height="398.936"/>
    </clipPath>
    <clipPath id="clippath-50">
      <rect class="cls-6" x="28.218" y="13.675" width="160.47" height="92.497"/>
    </clipPath>
    <clipPath id="clippath-51">
      <rect class="cls-6" width="398.516" height="398.936"/>
    </clipPath>
    <clipPath id="clippath-52">
      <rect class="cls-6" width="398.516" height="398.936"/>
    </clipPath>
  </defs>
  <line class="cls-5" x1="229.965" y1="375.679" x2="229.965" y2="283.797"/>
  <path class="cls-5" d="m228.068,283.797h1.897m-1.897,11.493h1.897m-1.897,11.491h1.897m-1.897,11.492h1.897m-1.897,11.491h1.897m-1.897,11.44h1.897m-1.897,11.492h1.897m-1.897,11.492h1.897m-1.897,11.491h1.897"/>
  <line class="cls-5" x1="229.965" y1="375.679" x2="389.769" y2="375.679"/>
  <path class="cls-5" d="m389.359,375.679v1.897m-26.575-1.897v1.897m-26.574-1.897v1.897m-26.573-1.897v1.897m-26.574-1.897v1.897m-26.524-1.897v1.897m-26.574-1.897v1.897"/>
  <g class="cls-47">
    <path class="cls-9" d="m228.017,367.574h3.847m-3.847,4.718h3.847m-1.899-2.358v-2.36m0,2.36v2.358"/>
  </g>
  <path class="cls-9" d="m232.48,367.727h3.846m-3.846,4.668h3.846m-1.949-2.308v-2.36m0,2.36v2.308"/>
  <path class="cls-9" d="m236.892,364.905h3.846m-3.846,5.49h3.846m-1.949-2.771v-2.719m0,2.719v2.771"/>
  <path class="cls-9" d="m241.304,362.34h3.846m-3.846,6.054h3.846m-1.896-3.027v-3.027m0,3.027v3.027"/>
  <path class="cls-9" d="m254.591,340.229h3.846m-3.846,10.978h3.846m-1.898-5.488v-5.49m0,5.49v5.488"/>
  <path class="cls-9" d="m267.877,316.887h3.847m-3.847,15.544h3.847m-1.897-7.746v-7.798m0,7.798v7.746"/>
  <path class="cls-9" d="m281.166,298.161h3.846m-3.846,19.495h3.846m-1.949-9.746v-9.749m0,9.749v9.746"/>
  <path class="cls-9" d="m307.739,296.111h3.847m-3.847,22.469h3.847m-1.949-11.235v-11.234m0,11.234v11.235"/>
  <path class="cls-9" d="m334.313,315.297h3.848m-3.848,18.726h3.848m-1.951-9.338v-9.388m0,9.388v9.338"/>
  <path class="cls-9" d="m360.886,337.51h3.847m-3.847,12.159h3.847m-1.949-6.104v-6.055m0,6.055v6.104"/>
  <g class="cls-35">
    <path class="cls-9" d="m387.409,351.002h3.847m-3.847,8.824h3.847m-1.898-4.412v-4.412m0,4.412v4.412"/>
    <path class="cls-9" d="m228.017,348.387h3.847m-3.847,10.106h3.847m-1.899-5.079v-5.027m0,5.027v5.079"/>
  </g>
  <path class="cls-9" d="m232.48,350.182h3.846m-3.846,9.235h3.846m-1.949-4.618v-4.617m0,4.617v4.618"/>
  <path class="cls-9" d="m236.892,350.848h3.846m-3.846,9.03h3.846m-1.949-4.515v-4.515m0,4.515v4.515"/>
  <path class="cls-9" d="m241.304,349.875h3.846m-3.846,9.439h3.846m-1.896-4.721v-4.718m0,4.718v4.721"/>
  <path class="cls-9" d="m254.591,346.18h3.846m-3.846,10.465h3.846m-1.898-5.232v-5.233m0,5.233v5.232"/>
  <path class="cls-9" d="m267.877,343.872h3.847m-3.847,10.568h3.847m-1.897-5.284v-5.284m0,5.284v5.284"/>
  <path class="cls-9" d="m281.166,340.845h3.846m-3.846,10.977h3.846m-1.949-5.488v-5.489m0,5.489v5.488"/>
  <path class="cls-9" d="m307.739,335.562h3.847m-3.847,12.979h3.847m-1.949-6.516v-6.463m0,6.463v6.516"/>
  <path class="cls-9" d="m334.313,337.203h3.848m-3.848,12.21h3.848m-1.951-6.105v-6.105m0,6.105v6.105"/>
  <path class="cls-9" d="m360.886,342.589h3.847m-3.847,10.877h3.847m-1.949-5.439v-5.438m0,5.438v5.439"/>
  <g class="cls-17">
    <path class="cls-9" d="m387.409,346.334h3.847m-3.847,11.235h3.847m-1.898-5.643v-5.592m0,5.592v5.643"/>
  </g>
  <g class="cls-53">
    <polyline class="cls-8" points="229.965 369.934 234.377 370.087 238.789 367.624 243.254 365.368 256.539 345.719 269.827 324.685 283.063 307.911 309.637 307.345 336.21 324.685 362.784 343.565 389.359 355.414"/>
  </g>
  <g class="cls-36">
    <path class="cls-31" d="m232.017,369.897c0,1.162-.939,2.104-2.103,2.104s-2.103-.942-2.103-2.104.941-2.104,2.103-2.104,2.103.942,2.103,2.104"/>
    <path class="cls-7" d="m232.017,369.897c0,1.162-.939,2.104-2.103,2.104s-2.103-.942-2.103-2.104.941-2.104,2.103-2.104,2.103.942,2.103,2.104Z"/>
    <path class="cls-31" d="m236.43,370.051c0,1.161-.94,2.104-2.104,2.104s-2.103-.943-2.103-2.104.941-2.104,2.103-2.104,2.104.941,2.104,2.104"/>
    <path class="cls-7" d="m236.43,370.051c0,1.161-.94,2.104-2.104,2.104s-2.103-.943-2.103-2.104.941-2.104,2.103-2.104,2.104.941,2.104,2.104Z"/>
    <path class="cls-31" d="m240.842,367.587c0,1.162-.943,2.104-2.104,2.104s-2.102-.942-2.102-2.104.94-2.103,2.102-2.103,2.104.942,2.104,2.103"/>
    <path class="cls-7" d="m240.842,367.587c0,1.162-.943,2.104-2.104,2.104s-2.102-.942-2.102-2.104.94-2.103,2.102-2.103,2.104.942,2.104,2.103Z"/>
    <path class="cls-31" d="m245.305,365.33c0,1.163-.941,2.103-2.103,2.103s-2.104-.94-2.104-2.103.941-2.104,2.104-2.104,2.103.944,2.103,2.104"/>
    <path class="cls-7" d="m245.305,365.33c0,1.163-.941,2.103-2.103,2.103s-2.104-.94-2.104-2.103.941-2.104,2.104-2.104,2.103.944,2.103,2.104Z"/>
    <path class="cls-31" d="m258.591,345.684c0,1.161-.939,2.103-2.103,2.103s-2.103-.942-2.103-2.103.941-2.104,2.103-2.104,2.103.941,2.103,2.104"/>
    <path class="cls-7" d="m258.591,345.684c0,1.161-.939,2.103-2.103,2.103s-2.103-.942-2.103-2.103.941-2.104,2.103-2.104,2.103.941,2.103,2.104Z"/>
    <path class="cls-31" d="m271.879,324.649c0,1.163-.941,2.103-2.103,2.103s-2.104-.94-2.104-2.103.941-2.104,2.104-2.104,2.103.943,2.103,2.104"/>
    <path class="cls-7" d="m271.879,324.649c0,1.163-.941,2.103-2.103,2.103s-2.104-.94-2.104-2.103.941-2.104,2.104-2.104,2.103.943,2.103,2.104Z"/>
    <path class="cls-31" d="m285.114,307.873c0,1.162-.941,2.104-2.103,2.104s-2.104-.942-2.104-2.104.942-2.103,2.104-2.103,2.103.941,2.103,2.103"/>
    <path class="cls-7" d="m285.114,307.873c0,1.162-.941,2.104-2.103,2.104s-2.104-.942-2.104-2.104.942-2.103,2.104-2.103,2.103.941,2.103,2.103Z"/>
    <path class="cls-31" d="m311.689,307.309c0,1.162-.941,2.104-2.104,2.104s-2.103-.942-2.103-2.104.941-2.104,2.103-2.104,2.104.942,2.104,2.104"/>
    <path class="cls-7" d="m311.689,307.309c0,1.162-.941,2.104-2.104,2.104s-2.103-.942-2.103-2.104.941-2.104,2.103-2.104,2.104.942,2.104,2.104Z"/>
    <path class="cls-31" d="m338.263,324.649c0,1.163-.941,2.103-2.104,2.103s-2.103-.94-2.103-2.103.941-2.104,2.103-2.104,2.104.943,2.104,2.104"/>
    <path class="cls-7" d="m338.263,324.649c0,1.163-.941,2.103-2.104,2.103s-2.103-.94-2.103-2.103.941-2.104,2.103-2.104,2.104.943,2.104,2.104Z"/>
    <path class="cls-31" d="m364.836,343.527c0,1.162-.94,2.104-2.104,2.104s-2.103-.942-2.103-2.104.942-2.104,2.103-2.104,2.104.942,2.104,2.104"/>
    <path class="cls-7" d="m364.836,343.527c0,1.162-.94,2.104-2.104,2.104s-2.103-.942-2.103-2.104.942-2.104,2.103-2.104,2.104.942,2.104,2.104Z"/>
    <path class="cls-31" d="m391.41,355.378c0,1.162-.941,2.104-2.104,2.104s-2.103-.942-2.103-2.104.941-2.104,2.103-2.104,2.104.942,2.104,2.104"/>
    <path class="cls-7" d="m391.41,355.378c0,1.162-.941,2.104-2.104,2.104s-2.103-.942-2.103-2.104.941-2.104,2.103-2.104,2.104.942,2.104,2.104Z"/>
  </g>
  <g class="cls-60">
    <polyline class="cls-4" points="229.965 353.414 234.377 354.799 238.789 355.363 243.254 354.593 256.539 351.413 269.827 349.156 283.063 346.334 309.637 342.024 336.21 343.308 362.784 348.026 389.359 351.926"/>
  </g>
  <g class="cls-23">
    <path class="cls-30" d="m232.017,353.377c0,1.161-.939,2.104-2.103,2.104s-2.103-.943-2.103-2.104.941-2.103,2.103-2.103,2.103.942,2.103,2.103"/>
    <path class="cls-10" d="m232.017,353.377c0,1.161-.939,2.104-2.103,2.104s-2.103-.943-2.103-2.104.941-2.103,2.103-2.103,2.103.942,2.103,2.103Z"/>
    <path class="cls-30" d="m236.43,354.762c0,1.162-.94,2.104-2.104,2.104s-2.103-.942-2.103-2.104.941-2.103,2.103-2.103,2.104.942,2.104,2.103"/>
    <path class="cls-10" d="m236.43,354.762c0,1.162-.94,2.104-2.104,2.104s-2.103-.942-2.103-2.104.941-2.103,2.103-2.103,2.104.942,2.104,2.103Z"/>
    <path class="cls-30" d="m240.842,355.326c0,1.163-.943,2.104-2.104,2.104s-2.102-.941-2.102-2.104.94-2.103,2.102-2.103,2.104.942,2.104,2.103"/>
    <path class="cls-10" d="m240.842,355.326c0,1.163-.943,2.104-2.104,2.104s-2.102-.941-2.102-2.104.94-2.103,2.102-2.103,2.104.942,2.104,2.103Z"/>
    <path class="cls-30" d="m245.305,354.557c0,1.162-.941,2.104-2.103,2.104s-2.104-.942-2.104-2.104.941-2.103,2.104-2.103,2.103.941,2.103,2.103"/>
    <path class="cls-10" d="m245.305,354.557c0,1.162-.941,2.104-2.103,2.104s-2.104-.942-2.104-2.104.941-2.103,2.104-2.103,2.103.941,2.103,2.103Z"/>
    <path class="cls-30" d="m258.591,351.377c0,1.162-.939,2.104-2.103,2.104s-2.103-.942-2.103-2.104.941-2.104,2.103-2.104,2.103.942,2.103,2.104"/>
    <path class="cls-10" d="m258.591,351.377c0,1.162-.939,2.104-2.103,2.104s-2.103-.942-2.103-2.104.941-2.104,2.103-2.104,2.103.942,2.103,2.104Z"/>
    <path class="cls-30" d="m271.879,349.119c0,1.162-.941,2.104-2.103,2.104s-2.104-.942-2.104-2.104.941-2.104,2.104-2.104,2.103.942,2.103,2.104"/>
    <path class="cls-10" d="m271.879,349.119c0,1.162-.941,2.104-2.103,2.104s-2.104-.942-2.104-2.104.941-2.104,2.104-2.104,2.103.942,2.103,2.104Z"/>
    <path class="cls-30" d="m285.114,346.298c0,1.162-.941,2.104-2.103,2.104s-2.104-.942-2.104-2.104.942-2.103,2.104-2.103,2.103.942,2.103,2.103"/>
    <path class="cls-10" d="m285.114,346.298c0,1.162-.941,2.104-2.103,2.104s-2.104-.942-2.104-2.104.942-2.103,2.104-2.103,2.103.942,2.103,2.103Z"/>
    <path class="cls-30" d="m311.689,341.988c0,1.162-.941,2.104-2.104,2.104s-2.103-.942-2.103-2.104.941-2.104,2.103-2.104,2.104.942,2.104,2.104"/>
    <path class="cls-10" d="m311.689,341.988c0,1.162-.941,2.104-2.104,2.104s-2.103-.942-2.103-2.104.941-2.104,2.103-2.104,2.104.942,2.104,2.104Z"/>
    <path class="cls-30" d="m338.263,343.272c0,1.162-.941,2.104-2.104,2.104s-2.103-.942-2.103-2.104.941-2.104,2.103-2.104,2.104.942,2.104,2.104"/>
    <path class="cls-10" d="m338.263,343.272c0,1.162-.941,2.104-2.104,2.104s-2.103-.942-2.103-2.104.941-2.104,2.103-2.104,2.104.942,2.104,2.104Z"/>
    <path class="cls-30" d="m364.836,347.99c0,1.162-.94,2.104-2.104,2.104s-2.103-.942-2.103-2.104.942-2.104,2.103-2.104,2.104.942,2.104,2.104"/>
    <path class="cls-10" d="m364.836,347.99c0,1.162-.94,2.104-2.104,2.104s-2.103-.942-2.103-2.104.942-2.104,2.103-2.104,2.104.942,2.104,2.104Z"/>
    <path class="cls-30" d="m391.41,351.89c0,1.161-.941,2.103-2.104,2.103s-2.103-.942-2.103-2.103.941-2.104,2.103-2.104,2.104.943,2.104,2.104"/>
    <path class="cls-10" d="m391.41,351.89c0,1.161-.941,2.103-2.104,2.103s-2.103-.942-2.103-2.103.941-2.104,2.103-2.104,2.104.943,2.104,2.104Z"/>
  </g>
  <text class="cls-24" transform="translate(218.005 378.094)"><tspan x="0" y="0">50</tspan></text>
  <text class="cls-24" transform="translate(218.005 366.606)"><tspan x="0" y="0">70</tspan></text>
  <text class="cls-24" transform="translate(218.005 355.118)"><tspan x="0" y="0">90</tspan></text>
  <text class="cls-24" transform="translate(214.667 343.629)"><tspan x="0" y="0">110</tspan></text>
  <text class="cls-24" transform="translate(214.667 332.141)"><tspan x="0" y="0">130</tspan></text>
  <text class="cls-24" transform="translate(214.667 320.653)"><tspan x="0" y="0">150</tspan></text>
  <text class="cls-24" transform="translate(214.667 309.164)"><tspan x="0" y="0">170</tspan></text>
  <text class="cls-24" transform="translate(214.667 297.676)"><tspan x="0" y="0">190</tspan></text>
  <text class="cls-24" transform="translate(214.667 286.188)"><tspan x="0" y="0">210</tspan></text>
  <text class="cls-24" transform="translate(228.43 385.657)"><tspan x="0" y="0">0</tspan></text>
  <text class="cls-24" transform="translate(253.472 385.657)"><tspan x="0" y="0">60</tspan></text>
  <text class="cls-24" transform="translate(278.513 385.657)"><tspan x="0" y="0">120</tspan></text>
  <text class="cls-24" transform="translate(305.078 385.657)"><tspan x="0" y="0">180</tspan></text>
  <text class="cls-24" transform="translate(331.644 385.657)"><tspan x="0" y="0">240</tspan></text>
  <text class="cls-24" transform="translate(358.21 385.657)"><tspan x="0" y="0">300</tspan></text>
  <text class="cls-24" transform="translate(384.776 385.657)"><tspan x="0" y="0">360</tspan></text>
  <text class="cls-24" transform="translate(209.61 359.448) rotate(-90)"><tspan x="0" y="0">Triglycerides (mg dl</tspan></text>
  <text class="cls-25" transform="translate(206.611 307.092) rotate(-90)"><tspan x="0" y="0">–1</tspan></text>
  <text class="cls-24" transform="translate(209.611 302.641) rotate(-90)"><tspan x="0" y="0">)</tspan></text>
  <text class="cls-24" transform="translate(296.677 396.547)"><tspan x="0" y="0">Time (min)</tspan></text>
  <line class="cls-8" x1="259.464" y1="280.669" x2="275.88" y2="280.669"/>
  <g class="cls-32">
    <path class="cls-31" d="m269.39,280.694c0,.936-.757,1.692-1.691,1.692s-1.694-.756-1.694-1.692.757-1.693,1.694-1.693,1.691.757,1.691,1.693"/>
    <path class="cls-7" d="m269.39,280.694c0,.936-.757,1.692-1.691,1.692s-1.694-.756-1.694-1.692.757-1.693,1.694-1.693,1.691.757,1.691,1.693Z"/>
  </g>
  <text class="cls-24" transform="translate(279.622 282.47)"><tspan x="0" y="0">LC diet</tspan></text>
  <line class="cls-4" x1="320.665" y1="280.669" x2="337.082" y2="280.669"/>
  <g class="cls-55">
    <path class="cls-30" d="m330.592,280.694c0,.936-.757,1.692-1.691,1.692s-1.694-.756-1.694-1.692.759-1.693,1.694-1.693,1.691.757,1.691,1.693"/>
    <path class="cls-10" d="m330.592,280.694c0,.936-.757,1.692-1.691,1.692s-1.694-.756-1.694-1.692.759-1.693,1.694-1.693,1.691.757,1.691,1.693Z"/>
  </g>
  <text class="cls-24" transform="translate(340.806 282.47)"><tspan x="0" y="0">LF diet</tspan></text>
  <line class="cls-5" x1="28.244" y1="375.679" x2="28.244" y2="283.797"/>
  <path class="cls-5" d="m26.346,283.797h1.898m-1.898,9.185h1.898m-1.898,9.183h1.898m-1.898,9.182h1.898m-1.898,9.183h1.898m-1.898,9.234h1.898m-1.898,9.183h1.898m-1.898,9.183h1.898m-1.898,9.183h1.898m-1.898,9.182h1.898m-1.898,9.184h1.898"/>
  <line class="cls-5" x1="28.244" y1="375.679" x2="188.098" y2="375.679"/>
  <path class="cls-5" d="m187.637,375.679v1.897m-26.574-1.897v1.897m-26.574-1.897v1.897m-26.523-1.897v1.897m-26.575-1.897v1.897m-26.573-1.897v1.897m-26.574-1.897v1.897"/>
  <g class="cls-45">
    <path class="cls-9" d="m26.346,293.135h3.847m-3.847,11.697h3.847m-1.949-5.849v-5.848m0,5.848v5.849"/>
  </g>
  <path class="cls-9" d="m30.758,302.781h3.847m-3.847,7.796h3.847m-1.95-3.899v-3.897m0,3.897v3.899"/>
  <path class="cls-9" d="m35.17,310.422h3.847m-3.847,7.029h3.847m-1.898-3.54v-3.489m0,3.489v3.54"/>
  <path class="cls-9" d="m39.581,314.99h3.847m-3.847,5.489h3.847m-1.897-2.72v-2.769m0,2.769v2.72"/>
  <path class="cls-9" d="m52.868,314.169h3.847m-3.847,6.103h3.847m-1.897-3.026v-3.077m0,3.077v3.026"/>
  <path class="cls-9" d="m66.155,309.192h3.848m-3.848,6.72h3.848m-1.898-3.334v-3.386m0,3.386v3.334"/>
  <path class="cls-9" d="m79.443,304.473h3.847m-3.847,4.874h3.847m-1.898-2.463v-2.411m0,2.411v2.463"/>
  <path class="cls-9" d="m106.017,295.65h3.848m-3.848,7.796h3.848m-1.899-3.899v-3.897m0,3.897v3.899"/>
  <path class="cls-9" d="m132.591,294.161h3.848m-3.848,9.387h3.848m-1.95-4.668v-4.719m0,4.719v4.668"/>
  <path class="cls-9" d="m159.164,298.265h3.848m-3.848,7.336h3.848m-1.949-3.642v-3.694m0,3.694v3.642"/>
  <g class="cls-62">
    <path class="cls-9" d="m185.738,301.086h3.848m-3.848,9.594h3.848m-1.949-4.771v-4.823m0,4.823v4.771"/>
    <path class="cls-9" d="m26.346,316.171h3.847m-3.847,10.515h3.847m-1.949-5.283v-5.232m0,5.232v5.283"/>
  </g>
  <path class="cls-9" d="m30.758,325.096h3.847m-3.847,9.644h3.847m-1.95-4.821v-4.823m0,4.823v4.821"/>
  <path class="cls-9" d="m35.17,335.305h3.847m-3.847,8.515h3.847m-1.898-4.258v-4.257m0,4.257v4.258"/>
  <path class="cls-9" d="m39.581,345.873h3.847m-3.847,6.874h3.847m-1.897-3.436v-3.438m0,3.438v3.436"/>
  <path class="cls-9" d="m52.868,362.647h3.847m-3.847,2.72h3.847m-1.897-1.334v-1.386m0,1.386v1.334"/>
  <path class="cls-9" d="m66.155,365.212h3.848m-3.848,2.412h3.848m-1.898-1.231v-1.181m0,1.181v1.231"/>
  <path class="cls-9" d="m79.443,366.393h3.847m-3.847,2.259h3.847m-1.898-1.13v-1.129m0,1.129v1.13"/>
  <path class="cls-9" d="m106.017,362.136h3.848m-3.848,3.897h3.848m-1.899-1.949v-1.948m0,1.948v1.949"/>
  <path class="cls-9" d="m132.591,355.773h3.848m-3.848,5.49h3.848m-1.95-2.77v-2.72m0,2.72v2.77"/>
  <path class="cls-9" d="m159.164,334.534h3.848m-3.848,10.825h3.848m-1.949-5.438v-5.387m0,5.387v5.438"/>
  <g class="cls-11">
    <path class="cls-9" d="m185.738,322.121h3.848m-3.848,10.925h3.848m-1.949-5.488v-5.437m0,5.437v5.488"/>
  </g>
  <g class="cls-41">
    <polyline class="cls-8" points="28.244 298.983 32.655 306.678 37.119 313.912 41.531 317.759 54.818 317.247 68.105 312.579 81.391 306.884 107.966 299.547 134.489 298.88 161.063 301.96 187.637 305.91"/>
  </g>
  <g class="cls-18">
    <path class="cls-31" d="m30.311,298.946c0,1.163-.942,2.104-2.104,2.104s-2.104-.941-2.104-2.104.942-2.103,2.104-2.103,2.104.942,2.104,2.103"/>
    <path class="cls-7" d="m30.311,298.946c0,1.163-.942,2.104-2.104,2.104s-2.104-.941-2.104-2.104.942-2.103,2.104-2.103,2.104.942,2.104,2.103Z"/>
    <path class="cls-31" d="m34.722,306.642c0,1.162-.941,2.104-2.104,2.104s-2.103-.942-2.103-2.104.941-2.103,2.103-2.103,2.104.941,2.104,2.103"/>
    <path class="cls-7" d="m34.722,306.642c0,1.162-.941,2.104-2.104,2.104s-2.103-.942-2.103-2.104.941-2.103,2.103-2.103,2.104.941,2.104,2.103Z"/>
    <path class="cls-31" d="m39.185,313.875c0,1.162-.941,2.104-2.103,2.104s-2.104-.942-2.104-2.104.942-2.103,2.104-2.103,2.103.941,2.103,2.103"/>
    <path class="cls-7" d="m39.185,313.875c0,1.162-.941,2.104-2.103,2.104s-2.104-.942-2.104-2.104.942-2.103,2.104-2.103,2.103.941,2.103,2.103Z"/>
    <path class="cls-31" d="m43.597,317.724c0,1.161-.941,2.103-2.104,2.103s-2.103-.942-2.103-2.103.941-2.104,2.103-2.104,2.104.942,2.104,2.104"/>
    <path class="cls-7" d="m43.597,317.724c0,1.161-.941,2.103-2.104,2.103s-2.103-.942-2.103-2.103.941-2.104,2.103-2.104,2.104.942,2.104,2.104Z"/>
    <path class="cls-31" d="m56.884,317.21c0,1.162-.941,2.104-2.104,2.104s-2.103-.942-2.103-2.104.941-2.104,2.103-2.104,2.104.942,2.104,2.104"/>
    <path class="cls-7" d="m56.884,317.21c0,1.162-.941,2.104-2.104,2.104s-2.103-.942-2.103-2.104.941-2.104,2.103-2.104,2.104.942,2.104,2.104Z"/>
    <path class="cls-31" d="m70.171,312.542c0,1.161-.941,2.103-2.103,2.103s-2.104-.942-2.104-2.103.942-2.104,2.104-2.104,2.103.942,2.103,2.104"/>
    <path class="cls-7" d="m70.171,312.542c0,1.161-.941,2.103-2.103,2.103s-2.104-.942-2.104-2.103.942-2.104,2.104-2.104,2.103.942,2.103,2.104Z"/>
    <path class="cls-31" d="m83.458,306.847c0,1.162-.941,2.104-2.104,2.104s-2.103-.942-2.103-2.104.942-2.104,2.103-2.104,2.104.943,2.104,2.104"/>
    <path class="cls-7" d="m83.458,306.847c0,1.162-.941,2.104-2.104,2.104s-2.103-.942-2.103-2.104.942-2.104,2.103-2.104,2.104.943,2.104,2.104Z"/>
    <path class="cls-31" d="m110.032,299.511c0,1.162-.942,2.104-2.104,2.104s-2.103-.942-2.103-2.104.941-2.104,2.103-2.104,2.104.942,2.104,2.104"/>
    <path class="cls-7" d="m110.032,299.511c0,1.162-.942,2.104-2.104,2.104s-2.103-.942-2.103-2.104.941-2.104,2.103-2.104,2.104.942,2.104,2.104Z"/>
    <path class="cls-31" d="m136.555,298.844c0,1.163-.941,2.104-2.104,2.104s-2.103-.941-2.103-2.104.942-2.103,2.103-2.103,2.104.942,2.104,2.103"/>
    <path class="cls-7" d="m136.555,298.844c0,1.163-.941,2.104-2.104,2.104s-2.103-.941-2.103-2.104.942-2.103,2.103-2.103,2.104.942,2.104,2.103Z"/>
    <path class="cls-31" d="m163.129,301.922c0,1.162-.941,2.104-2.103,2.104s-2.104-.942-2.104-2.104.942-2.104,2.104-2.104,2.103.943,2.103,2.104"/>
    <path class="cls-7" d="m163.129,301.922c0,1.162-.941,2.104-2.103,2.104s-2.104-.942-2.104-2.104.942-2.104,2.104-2.104,2.103.943,2.103,2.104Z"/>
    <path class="cls-31" d="m189.703,305.873c0,1.161-.941,2.103-2.103,2.103s-2.104-.942-2.104-2.103.942-2.104,2.104-2.104,2.103.941,2.103,2.104"/>
    <path class="cls-7" d="m189.703,305.873c0,1.161-.941,2.103-2.103,2.103s-2.104-.942-2.104-2.103.942-2.104,2.104-2.104,2.103.941,2.103,2.104Z"/>
  </g>
  <g class="cls-58">
    <polyline class="cls-4" points="28.244 321.402 32.655 329.92 37.119 339.562 41.531 349.311 54.818 364.034 68.105 366.393 81.391 367.522 107.966 364.085 134.489 358.493 161.063 339.922 187.637 327.558"/>
  </g>
  <g class="cls-22">
    <path class="cls-30" d="m30.311,321.365c0,1.162-.942,2.104-2.104,2.104s-2.104-.942-2.104-2.104.942-2.104,2.104-2.104,2.104.941,2.104,2.104"/>
    <path class="cls-10" d="m30.311,321.365c0,1.162-.942,2.104-2.104,2.104s-2.104-.942-2.104-2.104.942-2.104,2.104-2.104,2.104.941,2.104,2.104Z"/>
    <path class="cls-30" d="m34.722,329.882c0,1.162-.941,2.104-2.104,2.104s-2.103-.942-2.103-2.104.941-2.104,2.103-2.104,2.104.942,2.104,2.104"/>
    <path class="cls-10" d="m34.722,329.882c0,1.162-.941,2.104-2.104,2.104s-2.103-.942-2.103-2.104.941-2.104,2.103-2.104,2.104.942,2.104,2.104Z"/>
    <path class="cls-30" d="m39.185,339.525c0,1.163-.941,2.104-2.103,2.104s-2.104-.941-2.104-2.104.942-2.103,2.104-2.103,2.103.942,2.103,2.103"/>
    <path class="cls-10" d="m39.185,339.525c0,1.163-.941,2.104-2.103,2.104s-2.104-.941-2.104-2.104.942-2.103,2.104-2.103,2.103.942,2.103,2.103Z"/>
    <path class="cls-30" d="m43.597,349.274c0,1.162-.941,2.104-2.104,2.104s-2.103-.942-2.103-2.104.941-2.104,2.103-2.104,2.104.942,2.104,2.104"/>
    <path class="cls-10" d="m43.597,349.274c0,1.162-.941,2.104-2.104,2.104s-2.103-.942-2.103-2.104.941-2.104,2.103-2.104,2.104.942,2.104,2.104Z"/>
    <path class="cls-30" d="m56.884,363.997c0,1.161-.941,2.104-2.104,2.104s-2.103-.943-2.103-2.104.941-2.104,2.103-2.104,2.104.942,2.104,2.104"/>
    <path class="cls-10" d="m56.884,363.997c0,1.161-.941,2.104-2.104,2.104s-2.103-.943-2.103-2.104.941-2.104,2.103-2.104,2.104.942,2.104,2.104Z"/>
    <path class="cls-30" d="m70.171,366.358c0,1.161-.941,2.103-2.103,2.103s-2.104-.942-2.104-2.103.942-2.104,2.104-2.104,2.103.941,2.103,2.104"/>
    <path class="cls-10" d="m70.171,366.358c0,1.161-.941,2.103-2.103,2.103s-2.104-.942-2.104-2.103.942-2.104,2.104-2.104,2.103.941,2.103,2.104Z"/>
    <path class="cls-30" d="m83.458,367.486c0,1.162-.941,2.104-2.104,2.104s-2.103-.942-2.103-2.104.942-2.103,2.103-2.103,2.104.941,2.104,2.103"/>
    <path class="cls-10" d="m83.458,367.486c0,1.162-.941,2.104-2.104,2.104s-2.103-.942-2.103-2.104.942-2.103,2.103-2.103,2.104.941,2.104,2.103Z"/>
    <path class="cls-30" d="m110.032,364.048c0,1.162-.942,2.104-2.104,2.104s-2.103-.942-2.103-2.104.941-2.104,2.103-2.104,2.104.943,2.104,2.104"/>
    <path class="cls-10" d="m110.032,364.048c0,1.162-.942,2.104-2.104,2.104s-2.103-.942-2.103-2.104.941-2.104,2.103-2.104,2.104.943,2.104,2.104Z"/>
    <path class="cls-30" d="m136.555,358.456c0,1.162-.941,2.103-2.104,2.103s-2.103-.941-2.103-2.103.942-2.104,2.103-2.104,2.104.944,2.104,2.104"/>
    <path class="cls-10" d="m136.555,358.456c0,1.162-.941,2.103-2.104,2.103s-2.103-.941-2.103-2.103.942-2.104,2.103-2.104,2.104.944,2.104,2.104Z"/>
    <path class="cls-30" d="m163.129,339.885c0,1.162-.941,2.104-2.103,2.104s-2.104-.942-2.104-2.104.942-2.103,2.104-2.103,2.103.942,2.103,2.103"/>
    <path class="cls-10" d="m163.129,339.885c0,1.162-.941,2.104-2.103,2.104s-2.104-.942-2.104-2.104.942-2.103,2.104-2.103,2.103.942,2.103,2.103Z"/>
    <path class="cls-30" d="m189.703,327.522c0,1.162-.941,2.104-2.103,2.104s-2.104-.942-2.104-2.104.942-2.103,2.104-2.103,2.103.941,2.103,2.103"/>
    <path class="cls-10" d="m189.703,327.522c0,1.162-.941,2.104-2.103,2.104s-2.104-.942-2.104-2.104.942-2.103,2.104-2.103,2.103.941,2.103,2.103Z"/>
  </g>
  <text class="cls-24" transform="translate(20.126 378.094)"><tspan x="0" y="0">0</tspan></text>
  <text class="cls-24" transform="translate(15.12 368.887)"><tspan x="0" y="0">0.1</tspan></text>
  <text class="cls-24" transform="translate(15.12 359.679)"><tspan x="0" y="0">0.2</tspan></text>
  <text class="cls-24" transform="translate(15.12 350.472)"><tspan x="0" y="0">0.3</tspan></text>
  <text class="cls-24" transform="translate(15.12 341.264)"><tspan x="0" y="0">0.4</tspan></text>
  <text class="cls-24" transform="translate(15.12 332.057)"><tspan x="0" y="0">0.5</tspan></text>
  <text class="cls-24" transform="translate(15.12 322.85)"><tspan x="0" y="0">0.6</tspan></text>
  <text class="cls-24" transform="translate(15.12 313.642)"><tspan x="0" y="0">0.7</tspan></text>
  <text class="cls-24" transform="translate(15.12 304.435)"><tspan x="0" y="0">0.8</tspan></text>
  <text class="cls-24" transform="translate(15.12 295.228)"><tspan x="0" y="0">0.9</tspan></text>
  <text class="cls-24" transform="translate(20.126 286.02)"><tspan x="0" y="0">1</tspan></text>
  <text class="cls-24" transform="translate(26.729 385.687)"><tspan x="0" y="0">0</tspan></text>
  <text class="cls-24" transform="translate(51.77 385.687)"><tspan x="0" y="0">60</tspan></text>
  <text class="cls-24" transform="translate(76.811 385.687)"><tspan x="0" y="0">120</tspan></text>
  <text class="cls-24" transform="translate(103.377 385.687)"><tspan x="0" y="0">180</tspan></text>
  <text class="cls-24" transform="translate(129.942 385.687)"><tspan x="0" y="0">240</tspan></text>
  <text class="cls-24" transform="translate(156.508 385.687)"><tspan x="0" y="0">300</tspan></text>
  <text class="cls-24" transform="translate(183.074 385.687)"><tspan x="0" y="0">360</tspan></text>
  <text class="cls-24" transform="translate(8.879 358.005) rotate(-90)"><tspan x="0" y="0">Free fatty acids (mM)</tspan></text>
  <text class="cls-24" transform="translate(94.969 396.547)"><tspan x="0" y="0">Time (min)</tspan></text>
  <line class="cls-8" x1="57.742" y1="280.669" x2="74.158" y2="280.669"/>
  <g class="cls-12">
    <path class="cls-31" d="m67.669,280.694c0,.936-.758,1.692-1.692,1.692s-1.694-.756-1.694-1.692.757-1.693,1.694-1.693,1.692.757,1.692,1.693"/>
    <path class="cls-7" d="m67.669,280.694c0,.936-.758,1.692-1.692,1.692s-1.694-.756-1.694-1.692.757-1.693,1.694-1.693,1.692.757,1.692,1.693Z"/>
  </g>
  <text class="cls-24" transform="translate(77.916 282.47)"><tspan x="0" y="0">LC diet</tspan></text>
  <line class="cls-4" x1="118.945" y1="280.669" x2="135.361" y2="280.669"/>
  <g class="cls-59">
    <path class="cls-30" d="m128.871,280.694c0,.936-.758,1.692-1.692,1.692s-1.694-.756-1.694-1.692.758-1.693,1.694-1.693,1.692.757,1.692,1.693"/>
    <path class="cls-10" d="m128.871,280.694c0,.936-.758,1.692-1.692,1.692s-1.694-.756-1.694-1.692.758-1.693,1.694-1.693,1.692.757,1.692,1.693Z"/>
  </g>
  <text class="cls-24" transform="translate(139.098 282.47)"><tspan x="0" y="0">LF diet</tspan></text>
  <line class="cls-5" x1="229.965" y1="240.81" x2="229.965" y2="148.929"/>
  <path class="cls-5" d="m228.068,148.929h1.897m-1.897,15.288h1.897m-1.897,15.339h1.897m-1.897,15.288h1.897m-1.897,15.339h1.897m-1.897,15.287h1.897m-1.897,15.34h1.897"/>
  <line class="cls-5" x1="229.965" y1="240.81" x2="389.769" y2="240.81"/>
  <path class="cls-5" d="m389.359,240.81v1.897m-26.575-1.897v1.897m-26.574-1.897v1.897m-26.573-1.897v1.897m-26.574-1.897v1.897m-26.524-1.897v1.897m-26.574-1.897v1.897"/>
  <g class="cls-57">
    <path class="cls-9" d="m228.017,213.979h3.847m-3.847,2.822h3.847m-1.899-1.438v-1.384m0,1.384v1.438"/>
  </g>
  <path class="cls-9" d="m232.48,213.773h3.846m-3.846,2.31h3.846m-1.949-1.182v-1.128m0,1.128v1.182"/>
  <path class="cls-9" d="m236.892,215.57h3.846m-3.846,2.974h3.846m-1.949-1.487v-1.487m0,1.487v1.487"/>
  <path class="cls-9" d="m241.304,215.467h3.846m-3.846,3.18h3.846m-1.896-1.59v-1.59m0,1.59v1.59"/>
  <path class="cls-9" d="m254.591,216.851h3.846m-3.846,2.874h3.846m-1.898-1.437v-1.437m0,1.437v1.437"/>
  <path class="cls-9" d="m267.877,216.492h3.847m-3.847,2.667h3.847m-1.897-1.333v-1.334m0,1.334v1.333"/>
  <path class="cls-9" d="m281.166,215.467h3.846m-3.846,3.18h3.846m-1.949-1.59v-1.59m0,1.59v1.59"/>
  <path class="cls-9" d="m307.739,216.801h3.847m-3.847,2.05h3.847m-1.949-1.025v-1.025m0,1.025v1.025"/>
  <path class="cls-9" d="m334.313,218.852h3.848m-3.848,1.334h3.848m-1.951-.667v-.667m0,.667v.667"/>
  <path class="cls-9" d="m360.886,216.955h3.847m-3.847,2.718h3.847m-1.949-1.385v-1.333m0,1.333v1.385"/>
  <g class="cls-51">
    <path class="cls-9" d="m387.409,217.314h3.847m-3.847,1.693h3.847m-1.898-.873v-.82m0,.82v.873"/>
    <path class="cls-9" d="m228.017,209.465h3.847m-3.847,2.049h3.847m-1.899-1.024v-1.025m0,1.025v1.024"/>
  </g>
  <path class="cls-9" d="m232.48,194.022h3.846m-3.846,5.952h3.846m-1.949-2.976v-2.976m0,2.976v2.976"/>
  <path class="cls-9" d="m236.892,171.963h3.846m-3.846,9.644h3.846m-1.949-4.822v-4.822m0,4.822v4.822"/>
  <path class="cls-9" d="m241.304,162.524h3.846m-3.846,10.158h3.846m-1.896-5.079v-5.079m0,5.079v5.079"/>
  <path class="cls-9" d="m254.591,154.265h3.846m-3.846,8.002h3.846m-1.898-4.001v-4.001m0,4.001v4.001"/>
  <path class="cls-9" d="m267.877,165.038h3.847m-3.847,7.592h3.847m-1.897-3.796v-3.796m0,3.796v3.796"/>
  <path class="cls-9" d="m281.166,180.582h3.846m-3.846,5.283h3.846m-1.949-2.667v-2.616m0,2.616v2.667"/>
  <path class="cls-9" d="m307.739,195.408h3.847m-3.847,4.771h3.847m-1.949-2.411v-2.36m0,2.36v2.411"/>
  <path class="cls-9" d="m334.313,202.692h3.848m-3.848,4.668h3.848m-1.951-2.359v-2.309m0,2.309v2.359"/>
  <path class="cls-9" d="m360.886,207.668h3.847m-3.847,3.745h3.847m-1.949-1.897v-1.848m0,1.848v1.897"/>
  <g class="cls-3">
    <path class="cls-9" d="m387.409,208.797h3.847m-3.847,3.078h3.847m-1.898-1.539v-1.539m0,1.539v1.539"/>
  </g>
  <g class="cls-33">
    <polyline class="cls-8" points="229.965 215.363 234.377 214.901 238.789 217.056 243.254 217.056 256.539 218.288 269.827 217.826 283.063 217.056 309.637 217.826 336.21 219.518 362.784 218.288 389.359 218.134"/>
  </g>
  <g class="cls-44">
    <path class="cls-31" d="m232.017,215.318c0,1.161-.939,2.104-2.103,2.104s-2.103-.943-2.103-2.104.941-2.104,2.103-2.104,2.103.941,2.103,2.104"/>
    <path class="cls-7" d="m232.017,215.318c0,1.161-.939,2.104-2.103,2.104s-2.103-.943-2.103-2.104.941-2.104,2.103-2.104,2.103.941,2.103,2.104Z"/>
    <path class="cls-31" d="m236.43,214.857c0,1.162-.94,2.104-2.104,2.104s-2.103-.942-2.103-2.104.941-2.104,2.103-2.104,2.104.942,2.104,2.104"/>
    <path class="cls-7" d="m236.43,214.857c0,1.162-.94,2.104-2.104,2.104s-2.103-.942-2.103-2.104.941-2.104,2.103-2.104,2.104.942,2.104,2.104Z"/>
    <path class="cls-31" d="m240.842,217.011c0,1.163-.943,2.104-2.104,2.104s-2.102-.941-2.102-2.104.94-2.104,2.102-2.104,2.104.943,2.104,2.104"/>
    <path class="cls-7" d="m240.842,217.011c0,1.163-.943,2.104-2.104,2.104s-2.102-.941-2.102-2.104.94-2.104,2.102-2.104,2.104.943,2.104,2.104Z"/>
    <path class="cls-31" d="m245.305,217.011c0,1.163-.941,2.104-2.103,2.104s-2.104-.941-2.104-2.104.941-2.104,2.104-2.104,2.103.943,2.103,2.104"/>
    <path class="cls-7" d="m245.305,217.011c0,1.163-.941,2.104-2.103,2.104s-2.104-.941-2.104-2.104.941-2.104,2.104-2.104,2.103.943,2.103,2.104Z"/>
    <path class="cls-31" d="m258.591,218.242c0,1.161-.939,2.104-2.103,2.104s-2.103-.943-2.103-2.104.941-2.103,2.103-2.103,2.103.94,2.103,2.103"/>
    <path class="cls-7" d="m258.591,218.242c0,1.161-.939,2.104-2.103,2.104s-2.103-.943-2.103-2.104.941-2.103,2.103-2.103,2.103.94,2.103,2.103Z"/>
    <path class="cls-31" d="m271.879,217.779c0,1.163-.941,2.104-2.103,2.104s-2.104-.941-2.104-2.104.941-2.103,2.104-2.103,2.103.943,2.103,2.103"/>
    <path class="cls-7" d="m271.879,217.779c0,1.163-.941,2.104-2.103,2.104s-2.104-.941-2.104-2.104.941-2.103,2.104-2.103,2.103.943,2.103,2.103Z"/>
    <path class="cls-31" d="m285.114,217.011c0,1.163-.941,2.104-2.103,2.104s-2.104-.941-2.104-2.104.942-2.104,2.104-2.104,2.103.943,2.103,2.104"/>
    <path class="cls-7" d="m285.114,217.011c0,1.163-.941,2.104-2.103,2.104s-2.104-.941-2.104-2.104.942-2.104,2.104-2.104,2.103.943,2.103,2.104Z"/>
    <path class="cls-31" d="m311.689,217.779c0,1.163-.941,2.104-2.104,2.104s-2.103-.941-2.103-2.104.941-2.103,2.103-2.103,2.104.943,2.104,2.103"/>
    <path class="cls-7" d="m311.689,217.779c0,1.163-.941,2.104-2.104,2.104s-2.103-.941-2.103-2.104.941-2.103,2.103-2.103,2.104.943,2.104,2.103Z"/>
    <path class="cls-31" d="m338.263,219.473c0,1.162-.941,2.104-2.104,2.104s-2.103-.942-2.103-2.104.941-2.103,2.103-2.103,2.104.942,2.104,2.103"/>
    <path class="cls-7" d="m338.263,219.473c0,1.162-.941,2.104-2.104,2.104s-2.103-.942-2.103-2.104.941-2.103,2.103-2.103,2.104.942,2.104,2.103Z"/>
    <path class="cls-31" d="m364.836,218.242c0,1.161-.94,2.104-2.104,2.104s-2.103-.943-2.103-2.104.942-2.103,2.103-2.103,2.104.94,2.104,2.103"/>
    <path class="cls-7" d="m364.836,218.242c0,1.161-.94,2.104-2.104,2.104s-2.103-.943-2.103-2.104.942-2.103,2.103-2.103,2.104.94,2.104,2.103Z"/>
    <path class="cls-31" d="m391.41,218.088c0,1.161-.941,2.104-2.104,2.104s-2.103-.943-2.103-2.104.941-2.104,2.103-2.104,2.104.943,2.104,2.104"/>
    <path class="cls-7" d="m391.41,218.088c0,1.161-.941,2.104-2.104,2.104s-2.103-.943-2.103-2.104.941-2.104,2.103-2.104,2.104.943,2.104,2.104Z"/>
  </g>
  <g class="cls-63">
    <polyline class="cls-4" points="229.965 210.49 234.377 196.998 238.789 176.785 243.254 167.602 256.539 158.265 269.827 168.833 283.063 183.198 309.637 197.767 336.21 205.001 362.784 209.515 389.359 210.336"/>
  </g>
  <g class="cls-42">
    <path class="cls-30" d="m232.017,210.445c0,1.162-.939,2.103-2.103,2.103s-2.103-.941-2.103-2.103.941-2.104,2.103-2.104,2.103.941,2.103,2.104"/>
    <path class="cls-10" d="m232.017,210.445c0,1.162-.939,2.103-2.103,2.103s-2.103-.941-2.103-2.103.941-2.104,2.103-2.104,2.103.941,2.103,2.104Z"/>
    <path class="cls-30" d="m236.43,196.952c0,1.163-.94,2.104-2.104,2.104s-2.103-.941-2.103-2.104.941-2.103,2.103-2.103,2.104.941,2.104,2.103"/>
    <path class="cls-10" d="m236.43,196.952c0,1.163-.94,2.104-2.104,2.104s-2.103-.941-2.103-2.104.941-2.103,2.103-2.103,2.104.941,2.104,2.103Z"/>
    <path class="cls-30" d="m240.842,176.74c0,1.162-.943,2.103-2.104,2.103s-2.102-.941-2.102-2.103.94-2.103,2.102-2.103,2.104.94,2.104,2.103"/>
    <path class="cls-10" d="m240.842,176.74c0,1.162-.943,2.103-2.104,2.103s-2.102-.941-2.102-2.103.94-2.103,2.102-2.103,2.104.94,2.104,2.103Z"/>
    <path class="cls-30" d="m245.305,167.557c0,1.162-.941,2.103-2.103,2.103s-2.104-.941-2.104-2.103.941-2.104,2.104-2.104,2.103.942,2.103,2.104"/>
    <path class="cls-10" d="m245.305,167.557c0,1.162-.941,2.103-2.103,2.103s-2.104-.941-2.104-2.103.941-2.104,2.104-2.104,2.103.942,2.103,2.104Z"/>
    <path class="cls-30" d="m258.591,158.22c0,1.162-.939,2.103-2.103,2.103s-2.103-.941-2.103-2.103.941-2.104,2.103-2.104,2.103.942,2.103,2.104"/>
    <path class="cls-10" d="m258.591,158.22c0,1.162-.939,2.103-2.103,2.103s-2.103-.941-2.103-2.103.941-2.104,2.103-2.104,2.103.942,2.103,2.104Z"/>
    <path class="cls-30" d="m271.879,168.788c0,1.162-.941,2.104-2.103,2.104s-2.104-.942-2.104-2.104.941-2.104,2.104-2.104,2.103.942,2.103,2.104"/>
    <path class="cls-10" d="m271.879,168.788c0,1.162-.941,2.104-2.103,2.104s-2.104-.942-2.104-2.104.941-2.104,2.104-2.104,2.103.942,2.103,2.104Z"/>
    <path class="cls-30" d="m285.114,183.152c0,1.162-.941,2.104-2.103,2.104s-2.104-.942-2.104-2.104.942-2.103,2.104-2.103,2.103.94,2.103,2.103"/>
    <path class="cls-10" d="m285.114,183.152c0,1.162-.941,2.104-2.103,2.104s-2.104-.942-2.104-2.104.942-2.103,2.104-2.103,2.103.94,2.103,2.103Z"/>
    <path class="cls-30" d="m311.689,197.722c0,1.162-.941,2.104-2.104,2.104s-2.103-.942-2.103-2.104.941-2.103,2.103-2.103,2.104.941,2.104,2.103"/>
    <path class="cls-10" d="m311.689,197.722c0,1.162-.941,2.104-2.104,2.104s-2.103-.942-2.103-2.104.941-2.103,2.103-2.103,2.104.941,2.104,2.103Z"/>
    <path class="cls-30" d="m338.263,204.956c0,1.161-.941,2.103-2.104,2.103s-2.103-.942-2.103-2.103.941-2.104,2.103-2.104,2.104.941,2.104,2.104"/>
    <path class="cls-10" d="m338.263,204.956c0,1.161-.941,2.103-2.104,2.103s-2.103-.942-2.103-2.103.941-2.104,2.103-2.104,2.104.941,2.104,2.104Z"/>
    <path class="cls-30" d="m364.836,209.471c0,1.161-.94,2.103-2.104,2.103s-2.103-.942-2.103-2.103.942-2.104,2.103-2.104,2.104.942,2.104,2.104"/>
    <path class="cls-10" d="m364.836,209.471c0,1.161-.94,2.103-2.104,2.103s-2.103-.942-2.103-2.103.942-2.104,2.103-2.104,2.104.942,2.104,2.104Z"/>
    <path class="cls-30" d="m391.41,210.291c0,1.161-.941,2.103-2.104,2.103s-2.103-.942-2.103-2.103.941-2.104,2.103-2.104,2.104.942,2.104,2.104"/>
    <path class="cls-10" d="m391.41,210.291c0,1.161-.941,2.103-2.104,2.103s-2.103-.942-2.103-2.103.941-2.104,2.103-2.104,2.104.942,2.104,2.104Z"/>
  </g>
  <text class="cls-24" transform="translate(221.433 243.415)"><tspan x="0" y="0">0</tspan></text>
  <text class="cls-24" transform="translate(216.427 228.104)"><tspan x="0" y="0">0.5</tspan></text>
  <text class="cls-24" transform="translate(221.433 212.792)"><tspan x="0" y="0">1</tspan></text>
  <text class="cls-24" transform="translate(216.427 197.481)"><tspan x="0" y="0">1.5</tspan></text>
  <text class="cls-24" transform="translate(221.433 182.169)"><tspan x="0" y="0">2</tspan></text>
  <text class="cls-24" transform="translate(216.427 166.858)"><tspan x="0" y="0">2.5</tspan></text>
  <text class="cls-24" transform="translate(221.433 151.545)"><tspan x="0" y="0">3</tspan></text>
  <text class="cls-24" transform="translate(228.432 250.276)"><tspan x="0" y="0">0</tspan></text>
  <text class="cls-24" transform="translate(253.479 250.276)"><tspan x="0" y="0">60</tspan></text>
  <text class="cls-24" transform="translate(278.526 250.276)"><tspan x="0" y="0">120</tspan></text>
  <text class="cls-24" transform="translate(305.092 250.276)"><tspan x="0" y="0">180</tspan></text>
  <text class="cls-24" transform="translate(331.658 250.276)"><tspan x="0" y="0">240</tspan></text>
  <text class="cls-24" transform="translate(358.223 250.276)"><tspan x="0" y="0">300</tspan></text>
  <text class="cls-24" transform="translate(384.789 250.276)"><tspan x="0" y="0">360</tspan></text>
  <text class="cls-24" transform="translate(211.646 213.494) rotate(-90)"><tspan x="0" y="0">Lactate (mMl)</tspan></text>
  <text class="cls-24" transform="translate(296.728 261.145)"><tspan x="0" y="0">Time (min)</tspan></text>
  <line class="cls-8" x1="259.464" y1="145.799" x2="275.88" y2="145.799"/>
  <g class="cls-21">
    <path class="cls-31" d="m269.39,145.825c0,.936-.757,1.693-1.691,1.693s-1.694-.757-1.694-1.693.757-1.693,1.694-1.693,1.691.757,1.691,1.693"/>
    <path class="cls-7" d="m269.39,145.825c0,.936-.757,1.693-1.691,1.693s-1.694-.757-1.694-1.693.757-1.693,1.694-1.693,1.691.757,1.691,1.693Z"/>
  </g>
  <text class="cls-24" transform="translate(279.622 147.59)"><tspan x="0" y="0">LC diet</tspan></text>
  <line class="cls-4" x1="320.665" y1="145.799" x2="337.082" y2="145.799"/>
  <g class="cls-29">
    <path class="cls-30" d="m330.592,145.825c0,.936-.757,1.693-1.691,1.693s-1.694-.757-1.694-1.693.759-1.693,1.694-1.693,1.691.757,1.691,1.693"/>
    <path class="cls-10" d="m330.592,145.825c0,.936-.757,1.693-1.691,1.693s-1.694-.757-1.694-1.693.759-1.693,1.694-1.693,1.691.757,1.691,1.693Z"/>
  </g>
  <text class="cls-24" transform="translate(340.806 147.59)"><tspan x="0" y="0">LF diet</tspan></text>
  <line class="cls-5" x1="28.244" y1="240.757" x2="28.244" y2="148.877"/>
  <path class="cls-5" d="m26.346,148.877h1.898m-1.898,10.21h1.898m-1.898,10.209h1.898m-1.898,10.208h1.898m-1.898,10.209h1.898m-1.898,10.209h1.898m-1.898,10.21h1.898m-1.898,10.208h1.898m-1.898,10.21h1.898m-1.898,10.207h1.898"/>
  <line class="cls-5" x1="28.244" y1="240.757" x2="188.098" y2="240.757"/>
  <path class="cls-5" d="m187.637,240.757v1.899m-26.574-1.899v1.899m-26.574-1.899v1.899m-26.523-1.899v1.899m-26.575-1.899v1.899m-26.573-1.899v1.899m-26.574-1.899v1.899"/>
  <g class="cls-39">
    <path class="cls-9" d="m26.346,223.161h3.847m-3.847,3.232h3.847m-1.949-1.641v-1.591m0,1.591v1.641"/>
  </g>
  <path class="cls-9" d="m30.758,214.646h3.847m-3.847,5.849h3.847m-1.95-2.924v-2.925m0,2.925v2.924"/>
  <path class="cls-9" d="m35.17,210.592h3.847m-3.847,6.157h3.847m-1.898-3.078v-3.079m0,3.079v3.078"/>
  <path class="cls-9" d="m39.581,210.233h3.847m-3.847,6.208h3.847m-1.897-3.078v-3.13m0,3.13v3.078"/>
  <path class="cls-9" d="m52.868,204.847h3.847m-3.847,6.721h3.847m-1.897-3.386v-3.335m0,3.335v3.386"/>
  <path class="cls-9" d="m66.155,203.205h3.848m-3.848,7.08h3.848m-1.898-3.54v-3.54m0,3.54v3.54"/>
  <path class="cls-9" d="m79.443,202.847h3.847m-3.847,6.462h3.847m-1.898-3.231v-3.231m0,3.231v3.231"/>
  <path class="cls-9" d="m106.017,208.746h3.848m-3.848,5.335h3.848m-1.899-2.668v-2.667m0,2.667v2.668"/>
  <path class="cls-9" d="m132.591,217.211h3.848m-3.848,3.284h3.848m-1.95-1.643v-1.641m0,1.641v1.643"/>
  <path class="cls-9" d="m159.164,223.623h3.848m-3.848,2.411h3.848m-1.949-1.23v-1.181m0,1.181v1.23"/>
  <g class="cls-66">
    <path class="cls-9" d="m185.738,226.137h3.848m-3.848,2.207h3.848m-1.949-1.13v-1.077m0,1.077v1.13"/>
    <path class="cls-9" d="m26.346,220.237h3.847m-3.847,2.771h3.847m-1.949-1.386v-1.385m0,1.385v1.386"/>
  </g>
  <path class="cls-9" d="m30.758,179.043h3.847m-3.847,14.877h3.847m-1.95-7.439v-7.438m0,7.438v7.439"/>
  <path class="cls-9" d="m35.17,158.266h3.847m-3.847,15.647h3.847m-1.898-7.85v-7.797m0,7.797v7.85"/>
  <path class="cls-9" d="m39.581,155.649h3.847m-3.847,13.595h3.847m-1.897-6.772v-6.823m0,6.823v6.772"/>
  <path class="cls-9" d="m52.868,159.599h3.847m-3.847,11.697h3.847m-1.897-5.849v-5.848m0,5.848v5.849"/>
  <path class="cls-9" d="m66.155,161.856h3.848m-3.848,13.441h3.848m-1.898-6.72v-6.721m0,6.721v6.72"/>
  <path class="cls-9" d="m79.443,164.012h3.847m-3.847,14.825h3.847m-1.898-7.387v-7.438m0,7.438v7.387"/>
  <path class="cls-9" d="m106.017,182.736h3.848m-3.848,8.773h3.848m-1.899-4.412v-4.361m0,4.361v4.412"/>
  <path class="cls-9" d="m132.591,204.437h3.848m-3.848,6.618h3.848m-1.95-3.335v-3.283m0,3.283v3.335"/>
  <path class="cls-9" d="m159.164,212.697h3.848m-3.848,5.745h3.848m-1.949-2.872v-2.873m0,2.873v2.872"/>
  <g class="cls-56">
    <path class="cls-9" d="m185.738,218.492h3.848m-3.848,3.438h3.848m-1.949-1.693v-1.745m0,1.745v1.693"/>
  </g>
  <g class="cls-43">
    <polyline class="cls-8" points="28.244 224.752 32.655 217.57 37.119 213.671 41.531 213.363 54.818 208.182 68.105 206.745 81.391 206.078 107.966 211.413 134.489 218.852 161.063 224.804 187.637 227.214"/>
  </g>
  <g class="cls-52">
    <path class="cls-31" d="m30.311,224.71c0,1.162-.942,2.104-2.104,2.104s-2.104-.942-2.104-2.104.942-2.104,2.104-2.104,2.104.942,2.104,2.104"/>
    <path class="cls-7" d="m30.311,224.71c0,1.162-.942,2.104-2.104,2.104s-2.104-.942-2.104-2.104.942-2.104,2.104-2.104,2.104.942,2.104,2.104Z"/>
    <path class="cls-31" d="m34.722,217.529c0,1.161-.941,2.104-2.104,2.104s-2.103-.943-2.103-2.104.941-2.104,2.103-2.104,2.104.941,2.104,2.104"/>
    <path class="cls-7" d="m34.722,217.529c0,1.161-.941,2.104-2.104,2.104s-2.103-.943-2.103-2.104.941-2.104,2.103-2.104,2.104.941,2.104,2.104Z"/>
    <path class="cls-31" d="m39.185,213.629c0,1.161-.941,2.103-2.103,2.103s-2.104-.942-2.104-2.103.942-2.104,2.104-2.104,2.103.942,2.103,2.104"/>
    <path class="cls-7" d="m39.185,213.629c0,1.161-.941,2.103-2.103,2.103s-2.104-.942-2.104-2.103.942-2.104,2.104-2.104,2.103.942,2.103,2.104Z"/>
    <path class="cls-31" d="m43.597,213.32c0,1.162-.941,2.104-2.104,2.104s-2.103-.942-2.103-2.104.941-2.104,2.103-2.104,2.104.943,2.104,2.104"/>
    <path class="cls-7" d="m43.597,213.32c0,1.162-.941,2.104-2.104,2.104s-2.103-.942-2.103-2.104.941-2.104,2.103-2.104,2.104.943,2.104,2.104Z"/>
    <path class="cls-31" d="m56.884,208.139c0,1.162-.941,2.104-2.104,2.104s-2.103-.942-2.103-2.104.941-2.103,2.103-2.103,2.104.942,2.104,2.103"/>
    <path class="cls-7" d="m56.884,208.139c0,1.162-.941,2.104-2.104,2.104s-2.103-.942-2.103-2.104.941-2.103,2.103-2.103,2.104.942,2.104,2.103Z"/>
    <path class="cls-31" d="m70.171,206.702c0,1.162-.941,2.104-2.103,2.104s-2.104-.942-2.104-2.104.942-2.103,2.104-2.103,2.103.941,2.103,2.103"/>
    <path class="cls-7" d="m70.171,206.702c0,1.162-.941,2.104-2.103,2.104s-2.104-.942-2.104-2.104.942-2.103,2.104-2.103,2.103.941,2.103,2.103Z"/>
    <path class="cls-31" d="m83.458,206.036c0,1.162-.941,2.103-2.104,2.103s-2.103-.941-2.103-2.103.942-2.104,2.103-2.104,2.104.942,2.104,2.104"/>
    <path class="cls-7" d="m83.458,206.036c0,1.162-.941,2.103-2.104,2.103s-2.103-.941-2.103-2.103.942-2.104,2.103-2.104,2.104.942,2.104,2.104Z"/>
    <path class="cls-31" d="m110.032,211.371c0,1.162-.942,2.104-2.104,2.104s-2.103-.942-2.103-2.104.941-2.104,2.103-2.104,2.104.942,2.104,2.104"/>
    <path class="cls-7" d="m110.032,211.371c0,1.162-.942,2.104-2.104,2.104s-2.103-.942-2.103-2.104.941-2.104,2.103-2.104,2.104.942,2.104,2.104Z"/>
    <path class="cls-31" d="m136.555,218.811c0,1.161-.941,2.103-2.104,2.103s-2.103-.942-2.103-2.103.942-2.104,2.103-2.104,2.104.942,2.104,2.104"/>
    <path class="cls-7" d="m136.555,218.811c0,1.161-.941,2.103-2.104,2.103s-2.103-.942-2.103-2.103.942-2.104,2.103-2.104,2.104.942,2.104,2.104Z"/>
    <path class="cls-31" d="m163.129,224.762c0,1.161-.941,2.104-2.103,2.104s-2.104-.943-2.104-2.104.942-2.104,2.104-2.104,2.103.941,2.103,2.104"/>
    <path class="cls-7" d="m163.129,224.762c0,1.161-.941,2.104-2.103,2.104s-2.104-.943-2.104-2.104.942-2.104,2.104-2.104,2.103.941,2.103,2.104Z"/>
    <path class="cls-31" d="m189.703,227.172c0,1.163-.941,2.103-2.103,2.103s-2.104-.94-2.104-2.103.942-2.104,2.104-2.104,2.103.943,2.103,2.104"/>
    <path class="cls-7" d="m189.703,227.172c0,1.163-.941,2.103-2.103,2.103s-2.104-.94-2.104-2.103.942-2.104,2.104-2.104,2.103.943,2.103,2.104Z"/>
  </g>
  <g class="cls-16">
    <polyline class="cls-4" points="28.244 221.622 32.655 186.48 37.119 166.063 41.531 162.472 54.818 165.447 68.105 168.577 81.391 171.45 107.966 187.097 134.489 207.72 161.063 215.569 187.637 220.237"/>
  </g>
  <g class="cls-13">
    <path class="cls-30" d="m30.311,221.579c0,1.162-.942,2.104-2.104,2.104s-2.104-.942-2.104-2.104.942-2.103,2.104-2.103,2.104.942,2.104,2.103"/>
    <path class="cls-10" d="m30.311,221.579c0,1.162-.942,2.104-2.104,2.104s-2.104-.942-2.104-2.104.942-2.103,2.104-2.103,2.104.942,2.104,2.103Z"/>
    <path class="cls-30" d="m34.722,186.439c0,1.162-.941,2.103-2.104,2.103s-2.103-.941-2.103-2.103.941-2.103,2.103-2.103,2.104.941,2.104,2.103"/>
    <path class="cls-10" d="m34.722,186.439c0,1.162-.941,2.103-2.104,2.103s-2.103-.941-2.103-2.103.941-2.103,2.103-2.103,2.104.941,2.104,2.103Z"/>
    <path class="cls-30" d="m39.185,166.021c0,1.162-.941,2.103-2.103,2.103s-2.104-.941-2.104-2.103.942-2.103,2.104-2.103,2.103.94,2.103,2.103"/>
    <path class="cls-10" d="m39.185,166.021c0,1.162-.941,2.103-2.103,2.103s-2.104-.941-2.104-2.103.942-2.103,2.104-2.103,2.103.94,2.103,2.103Z"/>
    <path class="cls-30" d="m43.597,162.43c0,1.162-.941,2.104-2.104,2.104s-2.103-.942-2.103-2.104.941-2.103,2.103-2.103,2.104.941,2.104,2.103"/>
    <path class="cls-10" d="m43.597,162.43c0,1.162-.941,2.104-2.104,2.104s-2.103-.942-2.103-2.104.941-2.103,2.103-2.103,2.104.941,2.104,2.103Z"/>
    <path class="cls-30" d="m56.884,165.405c0,1.162-.941,2.104-2.104,2.104s-2.103-.942-2.103-2.104.941-2.104,2.103-2.104,2.104.942,2.104,2.104"/>
    <path class="cls-10" d="m56.884,165.405c0,1.162-.941,2.104-2.104,2.104s-2.103-.942-2.103-2.104.941-2.104,2.103-2.104,2.104.942,2.104,2.104Z"/>
    <path class="cls-30" d="m70.171,168.535c0,1.162-.941,2.104-2.103,2.104s-2.104-.942-2.104-2.104.942-2.103,2.104-2.103,2.103.941,2.103,2.103"/>
    <path class="cls-10" d="m70.171,168.535c0,1.162-.941,2.104-2.103,2.104s-2.104-.942-2.104-2.104.942-2.103,2.104-2.103,2.103.941,2.103,2.103Z"/>
    <path class="cls-30" d="m83.458,171.408c0,1.162-.941,2.103-2.104,2.103s-2.103-.941-2.103-2.103.942-2.104,2.103-2.104,2.104.942,2.104,2.104"/>
    <path class="cls-10" d="m83.458,171.408c0,1.162-.941,2.103-2.104,2.103s-2.103-.941-2.103-2.103.942-2.104,2.103-2.104,2.104.942,2.104,2.104Z"/>
    <path class="cls-30" d="m110.032,187.054c0,1.163-.942,2.103-2.104,2.103s-2.103-.94-2.103-2.103.941-2.103,2.103-2.103,2.104.941,2.104,2.103"/>
    <path class="cls-10" d="m110.032,187.054c0,1.163-.942,2.103-2.104,2.103s-2.103-.94-2.103-2.103.941-2.103,2.103-2.103,2.104.941,2.104,2.103Z"/>
    <path class="cls-30" d="m136.555,207.677c0,1.163-.941,2.104-2.104,2.104s-2.103-.941-2.103-2.104.942-2.103,2.103-2.103,2.104.941,2.104,2.103"/>
    <path class="cls-10" d="m136.555,207.677c0,1.163-.941,2.104-2.104,2.104s-2.103-.941-2.103-2.104.942-2.103,2.103-2.103,2.104.941,2.104,2.103Z"/>
    <path class="cls-30" d="m163.129,215.526c0,1.162-.941,2.104-2.103,2.104s-2.104-.942-2.104-2.104.942-2.104,2.104-2.104,2.103.942,2.103,2.104"/>
    <path class="cls-10" d="m163.129,215.526c0,1.162-.941,2.104-2.103,2.104s-2.104-.942-2.104-2.104.942-2.104,2.104-2.104,2.103.942,2.103,2.104Z"/>
    <path class="cls-30" d="m189.703,220.195c0,1.161-.941,2.103-2.103,2.103s-2.104-.942-2.104-2.103.942-2.104,2.104-2.104,2.103.943,2.103,2.104"/>
    <path class="cls-10" d="m189.703,220.195c0,1.161-.941,2.103-2.103,2.103s-2.104-.942-2.104-2.103.942-2.104,2.104-2.104,2.103.943,2.103,2.104Z"/>
  </g>
  <text class="cls-24" transform="translate(19.958 243.467)"><tspan x="0" y="0">0</tspan></text>
  <text class="cls-24" transform="translate(19.958 233.257)"><tspan x="0" y="0">1</tspan></text>
  <text class="cls-24" transform="translate(19.958 223.047)"><tspan x="0" y="0">2</tspan></text>
  <text class="cls-24" transform="translate(19.958 212.838)"><tspan x="0" y="0">3</tspan></text>
  <text class="cls-24" transform="translate(19.958 202.628)"><tspan x="0" y="0">4</tspan></text>
  <text class="cls-24" transform="translate(19.958 192.418)"><tspan x="0" y="0">5</tspan></text>
  <text class="cls-24" transform="translate(19.958 182.208)"><tspan x="0" y="0">6</tspan></text>
  <text class="cls-24" transform="translate(19.958 171.998)"><tspan x="0" y="0">7</tspan></text>
  <text class="cls-24" transform="translate(19.958 161.789)"><tspan x="0" y="0">8</tspan></text>
  <text class="cls-24" transform="translate(19.958 151.579)"><tspan x="0" y="0">9</tspan></text>
  <text class="cls-24" transform="translate(26.728 250.28)"><tspan x="0" y="0">0</tspan></text>
  <text class="cls-24" transform="translate(51.775 250.28)"><tspan x="0" y="0">60</tspan></text>
  <text class="cls-24" transform="translate(76.823 250.28)"><tspan x="0" y="0">120</tspan></text>
  <text class="cls-24" transform="translate(103.388 250.28)"><tspan x="0" y="0">180</tspan></text>
  <text class="cls-24" transform="translate(129.954 250.28)"><tspan x="0" y="0">240</tspan></text>
  <text class="cls-24" transform="translate(156.52 250.28)"><tspan x="0" y="0">300</tspan></text>
  <text class="cls-24" transform="translate(183.086 250.28)"><tspan x="0" y="0">360</tspan></text>
  <text class="cls-24" transform="translate(13.781 219.304) rotate(-90)"><tspan x="0" y="0">C-peptide (ng ml</tspan></text>
  <text class="cls-25" transform="translate(10.781 174.942) rotate(-90)"><tspan x="0" y="0">–1</tspan></text>
  <text class="cls-24" transform="translate(13.781 170.492) rotate(-90)"><tspan x="0" y="0">)</tspan></text>
  <text class="cls-24" transform="translate(95.02 261.144)"><tspan x="0" y="0">Time (min)</tspan></text>
  <line class="cls-8" x1="57.742" y1="145.748" x2="74.158" y2="145.748"/>
  <g class="cls-34">
    <path class="cls-31" d="m67.669,145.774c0,.936-.758,1.693-1.692,1.693s-1.694-.757-1.694-1.693.757-1.693,1.694-1.693,1.692.758,1.692,1.693"/>
    <path class="cls-7" d="m67.669,145.774c0,.936-.758,1.693-1.692,1.693s-1.694-.757-1.694-1.693.757-1.693,1.694-1.693,1.692.758,1.692,1.693Z"/>
  </g>
  <text class="cls-24" transform="translate(77.916 147.542)"><tspan x="0" y="0">LC diet</tspan></text>
  <line class="cls-4" x1="118.945" y1="145.748" x2="135.361" y2="145.748"/>
  <g class="cls-67">
    <path class="cls-30" d="m128.871,145.774c0,.936-.758,1.693-1.692,1.693s-1.694-.757-1.694-1.693.758-1.693,1.694-1.693,1.692.758,1.692,1.693"/>
    <path class="cls-10" d="m128.871,145.774c0,.936-.758,1.693-1.692,1.693s-1.694-.757-1.694-1.693.758-1.693,1.694-1.693,1.692.758,1.692,1.693Z"/>
  </g>
  <text class="cls-24" transform="translate(139.098 147.542)"><tspan x="0" y="0">LF diet</tspan></text>
  <line class="cls-5" x1="229.965" y1="105.583" x2="229.965" y2="13.651"/>
  <path class="cls-5" d="m228.068,13.651h1.897m-1.897,13.133h1.897m-1.897,13.133h1.897m-1.897,13.133h1.897m-1.897,13.133h1.897m-1.897,13.133h1.897m-1.897,13.134h1.897m-1.897,13.133h1.897"/>
  <line class="cls-5" x1="229.965" y1="105.583" x2="389.769" y2="105.583"/>
  <path class="cls-5" d="m389.359,105.583v1.897m-26.575-1.897v1.897m-26.574-1.897v1.897m-26.573-1.897v1.897m-26.574-1.897v1.897m-26.524-1.897v1.897m-26.574-1.897v1.897"/>
  <g class="cls-38">
    <path class="cls-9" d="m228.017,100.863h3.847m-3.847,1.231h3.847m-1.899-.616v-.615m0,.615v.616"/>
  </g>
  <path class="cls-9" d="m232.48,91.577h3.846m-3.846,4.668h3.846m-1.949-2.36v-2.308m0,2.308v2.36"/>
  <path class="cls-9" d="m236.892,90.243h3.846m-3.846,4.771h3.846m-1.949-2.411v-2.36m0,2.36v2.411"/>
  <path class="cls-9" d="m241.304,89.474h3.846m-3.846,5.899h3.846m-1.896-2.923v-2.976m0,2.976v2.923"/>
  <path class="cls-9" d="m254.591,87.627h3.846m-3.846,4.873h3.846m-1.898-2.411v-2.462m0,2.462v2.411"/>
  <path class="cls-9" d="m267.877,86.498h3.847m-3.847,5.542h3.847m-1.897-2.771v-2.771m0,2.771v2.771"/>
  <path class="cls-9" d="m281.166,85.934h3.846m-3.846,6.156h3.846m-1.949-3.078v-3.078m0,3.078v3.078"/>
  <path class="cls-9" d="m307.739,93.116h3.847m-3.847,3.899h3.847m-1.949-1.95v-1.949m0,1.949v1.95"/>
  <path class="cls-9" d="m334.313,98.708h3.848m-3.848,1.436h3.848m-1.951-.718v-.718m0,.718v.718"/>
  <path class="cls-9" d="m360.886,101.581h3.847m-3.847.873h3.847m-1.949-.411v-.462m0,.462v.411"/>
  <g class="cls-19">
    <path class="cls-9" d="m387.409,102.196h3.847m-3.847.872h3.847m-1.898-.461v-.411m0,.411v.461"/>
    <path class="cls-9" d="m228.017,99.426h3.847m-3.847,1.385h3.847m-1.899-.667v-.718m0,.718v.667"/>
  </g>
  <path class="cls-9" d="m232.48,46.329h3.846m-3.846,20.675h3.846m-1.949-10.312v-10.363m0,10.363v10.312"/>
  <path class="cls-9" d="m236.892,19.653h3.846m-3.846,25.701h3.846m-1.949-12.825v-12.876m0,12.876v12.825"/>
  <path class="cls-9" d="m241.304,25.244h3.846m-3.846,21.239h3.846m-1.896-10.62v-10.619m0,10.619v10.62"/>
  <path class="cls-9" d="m254.591,32.58h3.846m-3.846,26.266h3.846m-1.898-13.133v-13.133m0,13.133v13.133"/>
  <path class="cls-9" d="m267.877,34.941h3.847m-3.847,29.755h3.847m-1.897-14.878v-14.877m0,14.877v14.878"/>
  <path class="cls-9" d="m281.166,42.533h3.846m-3.846,28.78h3.846m-1.949-14.416v-14.364m0,14.364v14.416"/>
  <path class="cls-9" d="m307.739,74.698h3.847m-3.847,8.978h3.847m-1.949-4.463v-4.515m0,4.515v4.463"/>
  <path class="cls-9" d="m334.313,94.809h3.848m-3.848,2.77h3.848m-1.951-1.385v-1.385m0,1.385v1.385"/>
  <path class="cls-9" d="m360.886,96.861h3.847m-3.847,2.514h3.847m-1.949-1.283v-1.231m0,1.231v1.283"/>
  <g class="cls-37">
    <path class="cls-9" d="m387.409,99.631h3.847m-3.847,1.283h3.847m-1.898-.616v-.667m0,.667v.616"/>
  </g>
  <g class="cls-50">
    <polyline class="cls-8" points="229.965 101.478 234.377 93.886 238.789 92.603 243.254 92.45 256.539 90.089 269.827 89.269 283.063 89.013 309.637 95.065 336.21 99.426 362.784 102.043 389.359 102.607"/>
  </g>
  <g class="cls-28">
    <path class="cls-31" d="m232.017,101.416c0,1.163-.939,2.104-2.103,2.104s-2.103-.941-2.103-2.104.941-2.104,2.103-2.104,2.103.942,2.103,2.104"/>
    <path class="cls-7" d="m232.017,101.416c0,1.163-.939,2.104-2.103,2.104s-2.103-.941-2.103-2.104.941-2.104,2.103-2.104,2.103.942,2.103,2.104Z"/>
    <path class="cls-31" d="m236.43,93.824c0,1.162-.941,2.103-2.104,2.103s-2.103-.941-2.103-2.103.941-2.103,2.103-2.103,2.104.941,2.104,2.103"/>
    <path class="cls-7" d="m236.43,93.824c0,1.162-.941,2.103-2.104,2.103s-2.103-.941-2.103-2.103.941-2.103,2.103-2.103,2.104.941,2.104,2.103Z"/>
    <path class="cls-31" d="m240.842,92.541c0,1.162-.943,2.104-2.104,2.104s-2.102-.942-2.102-2.104.94-2.103,2.102-2.103,2.104.941,2.104,2.103"/>
    <path class="cls-7" d="m240.842,92.541c0,1.162-.943,2.104-2.104,2.104s-2.102-.942-2.102-2.104.94-2.103,2.102-2.103,2.104.941,2.104,2.103Z"/>
    <path class="cls-31" d="m245.305,92.387c0,1.162-.941,2.104-2.103,2.104s-2.104-.942-2.104-2.104.941-2.104,2.104-2.104,2.103.941,2.103,2.104"/>
    <path class="cls-7" d="m245.305,92.387c0,1.162-.941,2.104-2.103,2.104s-2.104-.942-2.104-2.104.941-2.104,2.104-2.104,2.103.941,2.103,2.104Z"/>
    <path class="cls-31" d="m258.591,90.027c0,1.162-.939,2.103-2.103,2.103s-2.103-.941-2.103-2.103.941-2.103,2.103-2.103,2.103.942,2.103,2.103"/>
    <path class="cls-7" d="m258.591,90.027c0,1.162-.939,2.103-2.103,2.103s-2.103-.941-2.103-2.103.941-2.103,2.103-2.103,2.103.942,2.103,2.103Z"/>
    <path class="cls-31" d="m271.879,89.207c0,1.162-.942,2.104-2.103,2.104s-2.104-.942-2.104-2.104.941-2.103,2.104-2.103,2.103.941,2.103,2.103"/>
    <path class="cls-7" d="m271.879,89.207c0,1.162-.942,2.104-2.103,2.104s-2.104-.942-2.104-2.104.941-2.103,2.104-2.103,2.103.941,2.103,2.103Z"/>
    <path class="cls-31" d="m285.113,88.95c0,1.162-.94,2.104-2.103,2.104s-2.103-.942-2.103-2.104.942-2.104,2.103-2.104,2.103.942,2.103,2.104"/>
    <path class="cls-7" d="m285.113,88.95c0,1.162-.94,2.104-2.103,2.104s-2.103-.942-2.103-2.104.942-2.104,2.103-2.104,2.103.942,2.103,2.104Z"/>
    <path class="cls-31" d="m311.689,95.004c0,1.162-.941,2.104-2.104,2.104s-2.103-.942-2.103-2.104.941-2.104,2.103-2.104,2.104.942,2.104,2.104"/>
    <path class="cls-7" d="m311.689,95.004c0,1.162-.941,2.104-2.104,2.104s-2.103-.942-2.103-2.104.941-2.104,2.103-2.104,2.104.942,2.104,2.104Z"/>
    <path class="cls-31" d="m338.263,99.364c0,1.162-.941,2.104-2.104,2.104s-2.103-.942-2.103-2.104.941-2.103,2.103-2.103,2.104.941,2.104,2.103"/>
    <path class="cls-7" d="m338.263,99.364c0,1.162-.941,2.104-2.104,2.104s-2.103-.942-2.103-2.104.941-2.103,2.103-2.103,2.104.941,2.104,2.103Z"/>
    <path class="cls-31" d="m364.836,101.98c0,1.162-.94,2.104-2.104,2.104s-2.103-.942-2.103-2.104.942-2.103,2.103-2.103,2.104.942,2.104,2.103"/>
    <path class="cls-7" d="m364.836,101.98c0,1.162-.94,2.104-2.104,2.104s-2.103-.942-2.103-2.104.942-2.103,2.103-2.103,2.104.942,2.104,2.103Z"/>
    <path class="cls-31" d="m391.41,102.545c0,1.162-.941,2.104-2.104,2.104s-2.103-.942-2.103-2.104.941-2.103,2.103-2.103,2.104.941,2.104,2.103"/>
    <path class="cls-7" d="m391.41,102.545c0,1.162-.941,2.104-2.104,2.104s-2.103-.942-2.103-2.104.941-2.103,2.103-2.103,2.104.941,2.104,2.103Z"/>
  </g>
  <g class="cls-15">
    <polyline class="cls-4" points="229.965 100.144 234.377 56.692 238.789 32.529 243.254 35.863 256.539 45.713 269.827 49.817 283.063 56.897 309.637 79.213 336.21 96.194 362.784 98.092 389.359 100.298"/>
  </g>
  <g class="cls-61">
    <path class="cls-30" d="m232.017,100.083c0,1.162-.939,2.103-2.103,2.103s-2.103-.941-2.103-2.103.941-2.104,2.103-2.104,2.103.941,2.103,2.104"/>
    <path class="cls-10" d="m232.017,100.083c0,1.162-.939,2.103-2.103,2.103s-2.103-.941-2.103-2.103.941-2.104,2.103-2.104,2.103.941,2.103,2.104Z"/>
    <path class="cls-30" d="m236.43,56.63c0,1.162-.941,2.103-2.104,2.103s-2.103-.941-2.103-2.103.941-2.104,2.103-2.104,2.104.942,2.104,2.104"/>
    <path class="cls-10" d="m236.43,56.63c0,1.162-.941,2.103-2.104,2.103s-2.103-.941-2.103-2.103.941-2.104,2.103-2.104,2.104.942,2.104,2.104Z"/>
    <path class="cls-30" d="m240.842,32.468c0,1.161-.943,2.103-2.104,2.103s-2.102-.942-2.102-2.103.94-2.104,2.102-2.104,2.104.941,2.104,2.104"/>
    <path class="cls-10" d="m240.842,32.468c0,1.161-.943,2.103-2.104,2.103s-2.102-.942-2.102-2.103.94-2.104,2.102-2.104,2.104.941,2.104,2.104Z"/>
    <path class="cls-30" d="m245.305,35.802c0,1.162-.941,2.104-2.103,2.104s-2.104-.942-2.104-2.104.941-2.103,2.104-2.103,2.103.941,2.103,2.103"/>
    <path class="cls-10" d="m245.305,35.802c0,1.162-.941,2.104-2.103,2.104s-2.104-.942-2.104-2.104.941-2.103,2.104-2.103,2.103.941,2.103,2.103Z"/>
    <path class="cls-30" d="m258.591,45.652c0,1.162-.939,2.103-2.103,2.103s-2.103-.941-2.103-2.103.941-2.103,2.103-2.103,2.103.941,2.103,2.103"/>
    <path class="cls-10" d="m258.591,45.652c0,1.162-.939,2.103-2.103,2.103s-2.103-.941-2.103-2.103.941-2.103,2.103-2.103,2.103.941,2.103,2.103Z"/>
    <path class="cls-30" d="m271.879,49.755c0,1.162-.942,2.104-2.103,2.104s-2.104-.942-2.104-2.104.941-2.104,2.104-2.104,2.103.943,2.103,2.104"/>
    <path class="cls-10" d="m271.879,49.755c0,1.162-.942,2.104-2.103,2.104s-2.104-.942-2.104-2.104.941-2.104,2.104-2.104,2.103.943,2.103,2.104Z"/>
    <path class="cls-30" d="m285.113,56.836c0,1.162-.94,2.104-2.103,2.104s-2.103-.942-2.103-2.104.942-2.104,2.103-2.104,2.103.942,2.103,2.104"/>
    <path class="cls-10" d="m285.113,56.836c0,1.162-.94,2.104-2.103,2.104s-2.103-.942-2.103-2.104.942-2.104,2.103-2.104,2.103.942,2.103,2.104Z"/>
    <path class="cls-30" d="m311.689,79.151c0,1.163-.941,2.104-2.104,2.104s-2.103-.941-2.103-2.104.941-2.103,2.103-2.103,2.104.941,2.104,2.103"/>
    <path class="cls-10" d="m311.689,79.151c0,1.163-.941,2.104-2.104,2.104s-2.103-.941-2.103-2.104.941-2.103,2.103-2.103,2.104.941,2.104,2.103Z"/>
    <path class="cls-30" d="m338.263,96.132c0,1.162-.941,2.104-2.104,2.104s-2.103-.942-2.103-2.104.941-2.103,2.103-2.103,2.104.941,2.104,2.103"/>
    <path class="cls-10" d="m338.263,96.132c0,1.162-.941,2.104-2.104,2.104s-2.103-.942-2.103-2.104.941-2.103,2.103-2.103,2.104.941,2.104,2.103Z"/>
    <path class="cls-30" d="m364.836,98.03c0,1.162-.94,2.103-2.104,2.103s-2.103-.941-2.103-2.103.942-2.104,2.103-2.104,2.104.942,2.104,2.104"/>
    <path class="cls-10" d="m364.836,98.03c0,1.162-.94,2.103-2.104,2.103s-2.103-.941-2.103-2.103.942-2.104,2.103-2.104,2.104.942,2.104,2.104Z"/>
    <path class="cls-30" d="m391.41,100.237c0,1.162-.941,2.103-2.104,2.103s-2.103-.941-2.103-2.103.941-2.103,2.103-2.103,2.104.941,2.104,2.103"/>
    <path class="cls-10" d="m391.41,100.237c0,1.162-.941,2.103-2.104,2.103s-2.103-.941-2.103-2.103.941-2.103,2.103-2.103,2.104.941,2.104,2.103Z"/>
  </g>
  <text class="cls-24" transform="translate(221.24 107.87)"><tspan x="0" y="0">0</tspan></text>
  <text class="cls-24" transform="translate(217.903 94.743)"><tspan x="0" y="0">20</tspan></text>
  <text class="cls-24" transform="translate(217.903 81.618)"><tspan x="0" y="0">40</tspan></text>
  <text class="cls-24" transform="translate(217.903 68.491)"><tspan x="0" y="0">60</tspan></text>
  <text class="cls-24" transform="translate(217.903 55.364)"><tspan x="0" y="0">80</tspan></text>
  <text class="cls-24" transform="translate(214.566 42.237)"><tspan x="0" y="0">100</tspan></text>
  <text class="cls-24" transform="translate(214.566 29.11)"><tspan x="0" y="0">120</tspan></text>
  <text class="cls-24" transform="translate(214.566 15.983)"><tspan x="0" y="0">140</tspan></text>
  <text class="cls-24" transform="translate(228.431 115.349)"><tspan x="0" y="0">0</tspan></text>
  <text class="cls-24" transform="translate(253.472 115.349)"><tspan x="0" y="0">60</tspan></text>
  <text class="cls-24" transform="translate(278.513 115.349)"><tspan x="0" y="0">120</tspan></text>
  <text class="cls-24" transform="translate(305.079 115.349)"><tspan x="0" y="0">180</tspan></text>
  <text class="cls-24" transform="translate(331.645 115.349)"><tspan x="0" y="0">240</tspan></text>
  <text class="cls-24" transform="translate(358.211 115.349)"><tspan x="0" y="0">300</tspan></text>
  <text class="cls-24" transform="translate(384.776 115.349)"><tspan x="0" y="0">360</tspan></text>
  <text class="cls-24" transform="translate(209.118 81.526) rotate(-90)"><tspan x="0" y="0">Insulin (</tspan></text>
  <text class="cls-27" transform="translate(209.118 60.512) rotate(-90)"><tspan x="0" y="0">µ</tspan></text>
  <text class="cls-24" transform="translate(209.119 57.054) rotate(-90)"><tspan x="0" y="0">U ml</tspan></text>
  <text class="cls-25" transform="translate(206.118 44.721) rotate(-90)"><tspan x="0" y="0">–1</tspan></text>
  <text class="cls-24" transform="translate(209.119 40.27) rotate(-90)"><tspan x="0" y="0">)</tspan></text>
  <text class="cls-24" transform="translate(296.728 125.925)"><tspan x="0" y="0">Time (min)</tspan></text>
  <line class="cls-8" x1="259.464" y1="10.521" x2="275.88" y2="10.521"/>
  <g class="cls-54">
    <path class="cls-31" d="m269.39,10.547c0,.935-.757,1.692-1.691,1.692s-1.694-.757-1.694-1.692.757-1.693,1.694-1.693,1.691.757,1.691,1.693"/>
    <path class="cls-7" d="m269.39,10.547c0,.935-.757,1.692-1.691,1.692s-1.694-.757-1.694-1.692.757-1.693,1.694-1.693,1.691.757,1.691,1.693Z"/>
  </g>
  <text class="cls-24" transform="translate(279.622 12.347)"><tspan x="0" y="0">LC diet</tspan></text>
  <line class="cls-4" x1="320.665" y1="10.521" x2="337.082" y2="10.521"/>
  <g class="cls-40">
    <path class="cls-30" d="m330.592,10.547c0,.935-.757,1.692-1.691,1.692s-1.694-.757-1.694-1.692.759-1.693,1.694-1.693,1.691.757,1.691,1.693"/>
    <path class="cls-10" d="m330.592,10.547c0,.935-.757,1.692-1.691,1.692s-1.694-.757-1.694-1.692.759-1.693,1.694-1.693,1.691.757,1.691,1.693Z"/>
  </g>
  <text class="cls-24" transform="translate(340.806 12.347)"><tspan x="0" y="0">LF diet</tspan></text>
  <line class="cls-5" x1="28.244" y1="105.583" x2="28.244" y2="13.702"/>
  <path class="cls-5" d="m26.346,13.702h1.898m-1.898,15.288h1.898m-1.898,15.339h1.898m-1.898,15.288h1.898m-1.898,15.339h1.898m-1.898,15.288h1.898m-1.898,15.339h1.898"/>
  <line class="cls-5" x1="28.244" y1="105.583" x2="188.098" y2="105.583"/>
  <path class="cls-5" d="m187.637,105.583v1.897m-26.574-1.897v1.897m-26.574-1.897v1.897m-26.523-1.897v1.897m-26.575-1.897v1.897m-26.573-1.897v1.897m-26.574-1.897v1.897"/>
  <g class="cls-1">
    <path class="cls-9" d="m26.346,81.676h3.847m-3.847,5.54h3.847m-1.949-2.77v-2.77m0,2.77v2.77"/>
  </g>
  <path class="cls-9" d="m30.758,78.753h3.847m-3.847,5.386h3.847m-1.95-2.719v-2.667m0,2.667v2.719"/>
  <path class="cls-9" d="m35.17,77.059h3.847m-3.847,5.541h3.847m-1.898-2.771v-2.77m0,2.77v2.771"/>
  <path class="cls-9" d="m39.581,76.649h3.847m-3.847,6.105h3.847m-1.897-3.079v-3.026m0,3.026v3.079"/>
  <path class="cls-9" d="m52.868,69.62h3.847m-3.847,6.361h3.847m-1.897-3.18v-3.181m0,3.181v3.18"/>
  <path class="cls-9" d="m66.155,64.387h3.848m-3.848,6.413h3.848m-1.898-3.232v-3.181m0,3.181v3.232"/>
  <path class="cls-9" d="m79.443,62.283h3.847m-3.847,6.772h3.847m-1.898-3.385v-3.387m0,3.387v3.385"/>
  <path class="cls-9" d="m106.017,68.03h3.848m-3.848,4.309h3.848m-1.899-2.155v-2.154m0,2.154v2.155"/>
  <path class="cls-9" d="m132.591,78.752h3.848m-3.848,5.079h3.848m-1.95-2.565v-2.514m0,2.514v2.565"/>
  <path class="cls-9" d="m159.164,85.677h3.848m-3.848,4.873h3.848m-1.949-2.462v-2.411m0,2.411v2.462"/>
  <g class="cls-20">
    <path class="cls-9" d="m185.738,91.32h3.848m-3.848,5.028h3.848m-1.949-2.514v-2.514m0,2.514v2.514"/>
    <path class="cls-9" d="m26.346,76.084h3.847m-3.847,3.334h3.847m-1.949-1.641v-1.693m0,1.693v1.641"/>
  </g>
  <path class="cls-9" d="m30.758,46.842h3.847m-3.847,10.979h3.847m-1.95-5.49v-5.489m0,5.489v5.49"/>
  <path class="cls-9" d="m35.17,27.964h3.847m-3.847,10.67h3.847m-1.898-5.335v-5.335m0,5.335v5.335"/>
  <path class="cls-9" d="m39.581,27.963h3.847m-3.847,12.159h3.847m-1.897-6.054v-6.105m0,6.105v6.054"/>
  <path class="cls-9" d="m52.868,46.38h3.847m-3.847,12.569h3.847m-1.897-6.31v-6.259m0,6.259v6.31"/>
  <path class="cls-9" d="m66.155,46.893h3.848m-3.848,11.851h3.848m-1.898-5.951v-5.9m0,5.9v5.951"/>
  <path class="cls-9" d="m79.443,48.792h3.847m-3.847,10.465h3.847m-1.898-5.233v-5.232m0,5.232v5.233"/>
  <path class="cls-9" d="m106.017,54.691h3.848m-3.848,8.619h3.848m-1.899-4.31v-4.309m0,4.309v4.31"/>
  <path class="cls-9" d="m132.591,62.284h3.848m-3.848,8.722h3.848m-1.95-4.361v-4.361m0,4.361v4.361"/>
  <path class="cls-9" d="m159.164,64.644h3.848m-3.848,8.157h3.848m-1.949-4.053v-4.104m0,4.104v4.053"/>
  <g class="cls-14">
    <path class="cls-9" d="m185.738,70.8h3.848m-3.848,5.694h3.848m-1.949-2.873v-2.821m0,2.821v2.873"/>
  </g>
  <g class="cls-49">
    <polyline class="cls-8" points="28.244 84.446 32.655 81.42 37.119 79.829 41.531 79.675 54.818 72.801 68.105 67.568 81.391 65.67 107.966 70.184 134.489 81.266 161.063 88.089 187.637 93.834"/>
  </g>
  <g class="cls-64">
    <path class="cls-31" d="m30.311,84.386c0,1.162-.942,2.103-2.104,2.103s-2.104-.941-2.104-2.103.942-2.104,2.104-2.104,2.104.941,2.104,2.104"/>
    <path class="cls-7" d="m30.311,84.386c0,1.162-.942,2.103-2.104,2.103s-2.104-.941-2.104-2.103.942-2.104,2.104-2.104,2.104.941,2.104,2.104Z"/>
    <path class="cls-31" d="m34.722,81.359c0,1.162-.941,2.103-2.104,2.103s-2.103-.941-2.103-2.103.941-2.104,2.103-2.104,2.104.942,2.104,2.104"/>
    <path class="cls-7" d="m34.722,81.359c0,1.162-.941,2.103-2.104,2.103s-2.103-.941-2.103-2.103.941-2.104,2.103-2.104,2.104.942,2.104,2.104Z"/>
    <path class="cls-31" d="m39.185,79.769c0,1.162-.941,2.104-2.103,2.104s-2.104-.942-2.104-2.104.942-2.103,2.104-2.103,2.103.941,2.103,2.103"/>
    <path class="cls-7" d="m39.185,79.769c0,1.162-.941,2.104-2.103,2.104s-2.104-.942-2.104-2.104.942-2.104,2.104-2.104,2.103.941,2.103,2.104Z"/>
    <path class="cls-31" d="m43.597,79.615c0,1.161-.941,2.104-2.104,2.104s-2.103-.943-2.103-2.104.941-2.104,2.103-2.104,2.104.942,2.104,2.104"/>
    <path class="cls-7" d="m43.597,79.615c0,1.161-.941,2.104-2.104,2.104s-2.103-.943-2.103-2.104.941-2.104,2.103-2.104,2.104.942,2.104,2.104Z"/>
    <path class="cls-31" d="m56.884,72.741c0,1.162-.941,2.104-2.104,2.104s-2.103-.942-2.103-2.104.941-2.104,2.103-2.104,2.104.942,2.104,2.104"/>
    <path class="cls-7" d="m56.884,72.741c0,1.162-.941,2.104-2.104,2.104s-2.103-.942-2.103-2.104.941-2.104,2.103-2.104,2.104.942,2.104,2.104Z"/>
    <path class="cls-31" d="m70.171,67.508c0,1.162-.941,2.104-2.103,2.104s-2.104-.942-2.104-2.104.942-2.104,2.104-2.104,2.103.942,2.103,2.104"/>
    <path class="cls-7" d="m70.171,67.508c0,1.162-.941,2.104-2.103,2.104s-2.104-.942-2.104-2.104.942-2.104,2.104-2.104,2.103.942,2.103,2.104Z"/>
    <path class="cls-31" d="m83.458,65.61c0,1.162-.941,2.104-2.104,2.104s-2.103-.942-2.103-2.104.942-2.104,2.103-2.104,2.104.942,2.104,2.104"/>
    <path class="cls-7" d="m83.458,65.61c0,1.162-.941,2.104-2.104,2.104s-2.103-.942-2.103-2.104.942-2.104,2.103-2.104,2.104.942,2.104,2.104Z"/>
    <path class="cls-31" d="m110.032,70.124c0,1.162-.942,2.104-2.104,2.104s-2.103-.942-2.103-2.104.941-2.103,2.103-2.103,2.104.941,2.104,2.103"/>
    <path class="cls-7" d="m110.032,70.124c0,1.162-.942,2.104-2.104,2.104s-2.103-.942-2.103-2.104.941-2.103,2.103-2.103,2.104.941,2.104,2.103Z"/>
    <path class="cls-31" d="m136.555,81.205c0,1.162-.941,2.103-2.104,2.103s-2.103-.941-2.103-2.103.942-2.103,2.103-2.103,2.104.941,2.104,2.103"/>
    <path class="cls-7" d="m136.555,81.205c0,1.162-.941,2.103-2.104,2.103s-2.103-.941-2.103-2.103.942-2.103,2.103-2.103,2.104.941,2.104,2.103Z"/>
    <path class="cls-31" d="m163.129,88.029c0,1.162-.941,2.103-2.103,2.103s-2.104-.941-2.104-2.103.942-2.103,2.104-2.103,2.103.941,2.103,2.103"/>
    <path class="cls-7" d="m163.129,88.029c0,1.162-.941,2.103-2.103,2.103s-2.104-.941-2.104-2.103.942-2.103,2.104-2.103,2.103.941,2.103,2.103Z"/>
    <path class="cls-31" d="m189.703,93.774c0,1.162-.941,2.104-2.103,2.104s-2.104-.942-2.104-2.104.942-2.103,2.104-2.103,2.103.941,2.103,2.103"/>
    <path class="cls-7" d="m189.703,93.774c0,1.162-.941,2.104-2.103,2.104s-2.104-.942-2.104-2.104.942-2.103,2.104-2.103,2.103.941,2.103,2.103Z"/>
  </g>
  <g class="cls-48">
    <polyline class="cls-4" points="28.244 77.777 32.655 52.332 37.119 33.298 41.531 34.068 54.818 52.639 68.105 52.793 81.391 54.024 107.966 59 134.489 66.645 161.063 68.748 187.637 73.621"/>
  </g>
  <g class="cls-65">
    <path class="cls-30" d="m30.311,77.717c0,1.162-.942,2.103-2.104,2.103s-2.104-.941-2.104-2.103.942-2.103,2.104-2.103,2.104.941,2.104,2.103"/>
    <path class="cls-10" d="m30.311,77.717c0,1.162-.942,2.103-2.104,2.103s-2.104-.941-2.104-2.103.942-2.103,2.104-2.103,2.104.941,2.104,2.103Z"/>
    <path class="cls-30" d="m34.722,52.271c0,1.162-.941,2.104-2.104,2.104s-2.103-.942-2.103-2.104.941-2.103,2.103-2.103,2.104.941,2.104,2.103"/>
    <path class="cls-10" d="m34.722,52.271c0,1.162-.941,2.104-2.104,2.104s-2.103-.942-2.103-2.104.941-2.103,2.103-2.103,2.104.941,2.104,2.103Z"/>
    <path class="cls-30" d="m39.185,33.239c0,1.162-.941,2.103-2.103,2.103s-2.104-.941-2.104-2.103.942-2.103,2.104-2.103,2.103.941,2.103,2.103"/>
    <path class="cls-10" d="m39.185,33.239c0,1.162-.941,2.103-2.103,2.103s-2.104-.941-2.104-2.103.942-2.103,2.104-2.103,2.103.941,2.103,2.103Z"/>
    <path class="cls-30" d="m43.597,34.008c0,1.163-.941,2.104-2.104,2.104s-2.103-.941-2.103-2.104.941-2.103,2.103-2.103,2.104.941,2.104,2.103"/>
    <path class="cls-10" d="m43.597,34.008c0,1.163-.941,2.104-2.104,2.104s-2.103-.941-2.103-2.104.941-2.103,2.103-2.103,2.104.941,2.104,2.103Z"/>
    <path class="cls-30" d="m56.884,52.579c0,1.162-.941,2.104-2.104,2.104s-2.103-.942-2.103-2.104.941-2.103,2.103-2.103,2.104.942,2.104,2.103"/>
    <path class="cls-10" d="m56.884,52.579c0,1.162-.941,2.104-2.104,2.104s-2.103-.942-2.103-2.104.941-2.103,2.103-2.103,2.104.942,2.104,2.103Z"/>
    <path class="cls-30" d="m70.171,52.733c0,1.162-.941,2.104-2.103,2.104s-2.104-.942-2.104-2.104.942-2.103,2.104-2.103,2.103.941,2.103,2.103"/>
    <path class="cls-10" d="m70.171,52.733c0,1.162-.941,2.104-2.103,2.104s-2.104-.942-2.104-2.104.942-2.103,2.104-2.103,2.103.941,2.103,2.103Z"/>
    <path class="cls-30" d="m83.458,53.965c0,1.161-.941,2.103-2.104,2.103s-2.103-.942-2.103-2.103.942-2.104,2.103-2.104,2.104.942,2.104,2.104"/>
    <path class="cls-10" d="m83.458,53.965c0,1.161-.941,2.103-2.104,2.103s-2.103-.942-2.103-2.103.942-2.104,2.103-2.104,2.104.942,2.104,2.104Z"/>
    <path class="cls-30" d="m110.032,58.941c0,1.162-.942,2.104-2.104,2.104s-2.103-.942-2.103-2.104.941-2.104,2.103-2.104,2.104.942,2.104,2.104"/>
    <path class="cls-10" d="m110.032,58.941c0,1.162-.942,2.104-2.104,2.104s-2.103-.942-2.103-2.104.941-2.104,2.103-2.104,2.104.942,2.104,2.104Z"/>
    <path class="cls-30" d="m136.555,66.584c0,1.162-.941,2.104-2.104,2.104s-2.103-.942-2.103-2.104.942-2.103,2.103-2.103,2.104.941,2.104,2.103"/>
    <path class="cls-10" d="m136.555,66.584c0,1.162-.941,2.104-2.104,2.104s-2.103-.942-2.103-2.104.942-2.103,2.103-2.103,2.104.941,2.104,2.103Z"/>
    <path class="cls-30" d="m163.129,68.688c0,1.162-.941,2.103-2.103,2.103s-2.104-.941-2.104-2.103.942-2.104,2.104-2.104,2.103.943,2.103,2.104"/>
    <path class="cls-10" d="m163.129,68.688c0,1.162-.941,2.103-2.103,2.103s-2.104-.941-2.104-2.103.942-2.104,2.104-2.104,2.103.943,2.103,2.104Z"/>
    <path class="cls-30" d="m189.703,73.562c0,1.162-.941,2.104-2.103,2.104s-2.104-.942-2.104-2.104.942-2.104,2.104-2.104,2.103.942,2.103,2.104"/>
    <path class="cls-10" d="m189.703,73.562c0,1.162-.941,2.104-2.103,2.104s-2.104-.942-2.104-2.104.942-2.104,2.104-2.104,2.103.942,2.103,2.104Z"/>
  </g>
  <text class="cls-24" transform="translate(16.299 107.973)"><tspan x="0" y="0">70</tspan></text>
  <text class="cls-24" transform="translate(16.299 92.661)"><tspan x="0" y="0">80</tspan></text>
  <text class="cls-24" transform="translate(16.299 77.35)"><tspan x="0" y="0">90</tspan></text>
  <text class="cls-24" transform="translate(12.961 62.038)"><tspan x="0" y="0">100</tspan></text>
  <text class="cls-24" transform="translate(12.961 46.727)"><tspan x="0" y="0">110</tspan></text>
  <text class="cls-24" transform="translate(12.961 31.415)"><tspan x="0" y="0">120</tspan></text>
  <text class="cls-24" transform="translate(12.961 16.104)"><tspan x="0" y="0">130</tspan></text>
  <text class="cls-24" transform="translate(26.724 115.35)"><tspan x="0" y="0">0</tspan></text>
  <text class="cls-24" transform="translate(51.766 115.35)"><tspan x="0" y="0">60</tspan></text>
  <text class="cls-24" transform="translate(76.807 115.35)"><tspan x="0" y="0">120</tspan></text>
  <text class="cls-24" transform="translate(103.373 115.35)"><tspan x="0" y="0">180</tspan></text>
  <text class="cls-24" transform="translate(129.938 115.35)"><tspan x="0" y="0">240</tspan></text>
  <text class="cls-24" transform="translate(156.504 115.35)"><tspan x="0" y="0">300</tspan></text>
  <text class="cls-24" transform="translate(183.07 115.35)"><tspan x="0" y="0">360</tspan></text>
  <text class="cls-24" transform="translate(7.411 83.328) rotate(-90)"><tspan x="0" y="0">Glucose (mg dl</tspan></text>
  <text class="cls-25" transform="translate(4.411 42.97) rotate(-90)"><tspan x="0" y="0">–1</tspan></text>
  <text class="cls-24" transform="translate(7.411 38.52) rotate(-90)"><tspan x="0" y="0">)</tspan></text>
  <text class="cls-24" transform="translate(95.02 125.925)"><tspan x="0" y="0">Time (min)</tspan></text>
  <line class="cls-8" x1="57.742" y1="10.521" x2="74.158" y2="10.521"/>
  <g class="cls-46">
    <path class="cls-31" d="m67.669,10.547c0,.935-.758,1.692-1.692,1.692s-1.694-.757-1.694-1.692.757-1.693,1.694-1.693,1.692.757,1.692,1.693"/>
    <path class="cls-7" d="m67.669,10.547c0,.935-.758,1.692-1.692,1.692s-1.694-.757-1.694-1.692.757-1.693,1.694-1.693,1.692.757,1.692,1.693Z"/>
  </g>
  <text class="cls-24" transform="translate(77.916 12.349)"><tspan x="0" y="0">LC diet</tspan></text>
  <line class="cls-4" x1="118.945" y1="10.521" x2="135.361" y2="10.521"/>
  <g>
    <path class="cls-30" d="m128.871,10.547c0,.935-.758,1.692-1.692,1.692s-1.694-.757-1.694-1.692.758-1.693,1.694-1.693,1.692.757,1.692,1.693"/>
    <path class="cls-10" d="m128.871,10.547c0,.935-.758,1.692-1.692,1.692s-1.694-.757-1.694-1.692.758-1.693,1.694-1.693,1.692.757,1.692,1.693Z"/>
  </g>
  <text class="cls-24" transform="translate(139.098 12.349)"><tspan x="0" y="0">LF diet</tspan></text>
  <text class="cls-2" transform="translate(3.723 9.697)"><tspan x="0" y="0">a</tspan></text>
  <text class="cls-2" transform="translate(203.835 9.697)"><tspan x="0" y="0">b</tspan></text>
  <text class="cls-2" transform="translate(3.723 144.464)"><tspan x="0" y="0">c</tspan></text>
  <text class="cls-2" transform="translate(203.835 144.464)"><tspan x="0" y="0">d</tspan></text>
  <text class="cls-2" transform="translate(3.723 279.472)"><tspan x="0" y="0">e</tspan></text>
  <text class="cls-2" transform="translate(203.835 279.472)"><tspan x="0" y="0">f</tspan></text>
  <text class="cls-26" transform="translate(78.833 237.35)"><tspan x="0" y="0">271</tspan></text>
  <text class="cls-26" transform="translate(91.915 237.35)"><tspan x="0" y="0">±</tspan></text>
  <text class="cls-26" transform="translate(96.173 237.35)"><tspan x="0" y="0">21</tspan></text>
  <text class="cls-26" transform="translate(161.679 216.077)"><tspan x="0" y="0">1556</tspan></text>
  <text class="cls-26" transform="translate(179.122 216.077)"><tspan x="0" y="0">±</tspan></text>
  <text class="cls-26" transform="translate(183.38 216.077)"><tspan x="0" y="0">117</tspan></text>
  <text class="cls-26" transform="translate(165.834 191.129)"><tspan x="0" y="0">218</tspan></text>
  <text class="cls-26" transform="translate(178.916 191.129)"><tspan x="0" y="0">±</tspan></text>
  <text class="cls-26" transform="translate(183.174 191.129)"><tspan x="0" y="0">18</tspan></text>
  <text class="cls-26" transform="translate(78.825 163.91)"><tspan x="0" y="0">425</tspan></text>
  <text class="cls-26" transform="translate(91.907 163.91)"><tspan x="0" y="0">±</tspan></text>
  <text class="cls-26" transform="translate(96.165 163.91)"><tspan x="0" y="0">31</tspan></text>
</svg>