<?xml version="1.0" encoding="UTF-8"?>
<svg id="_레이어_1" data-name="레이어 1" xmlns="http://www.w3.org/2000/svg" xmlns:xlink="http://www.w3.org/1999/xlink" viewBox="0 0 186.651 413.097">
  <defs>
    <style>
      .cls-1 {
        font-size: 6.279px;
      }

      .cls-1, .cls-2, .cls-3 {
        font-family: Helvetica, Helvetica;
      }

      .cls-4 {
        clip-path: url(#clippath-45);
      }

      .cls-5 {
        font-family: NotoSansCJKkr-Regular-KSCpc-EUC-H, 'Noto Sans CJK KR';
        font-size: 8px;
      }

      .cls-6 {
        clip-path: url(#clippath-20);
      }

      .cls-7 {
        clip-path: url(#clippath-11);
      }

      .cls-8 {
        clip-path: url(#clippath-16);
      }

      .cls-2, .cls-9 {
        font-size: 6px;
      }

      .cls-10 {
        clip-path: url(#clippath-33);
      }

      .cls-11 {
        clip-path: url(#clippath-47);
      }

      .cls-12, .cls-13, .cls-14, .cls-15, .cls-16, .cls-17, .cls-18, .cls-19, .cls-20, .cls-21, .cls-22, .cls-23 {
        fill: none;
      }

      .cls-12, .cls-14 {
        stroke: #ed2024;
      }

      .cls-12, .cls-14, .cls-18, .cls-19, .cls-21, .cls-22 {
        stroke-linejoin: round;
      }

      .cls-12, .cls-18, .cls-21 {
        stroke-width: .698px;
      }

      .cls-13 {
        stroke-width: .427px;
      }

      .cls-13, .cls-14, .cls-16, .cls-17, .cls-19, .cls-20, .cls-23 {
        stroke-linecap: round;
      }

      .cls-13, .cls-16, .cls-17, .cls-20, .cls-23 {
        stroke-miterlimit: 1.427;
      }

      .cls-13, .cls-17, .cls-22, .cls-23 {
        stroke: #000;
      }

      .cls-24 {
        clip-path: url(#clippath-41);
      }

      .cls-25 {
        clip-path: url(#clippath-32);
      }

      .cls-26 {
        clip-path: url(#clippath-2);
      }

      .cls-27 {
        fill-rule: evenodd;
      }

      .cls-27, .cls-28, .cls-15, .cls-29, .cls-30, .cls-31, .cls-32 {
        stroke-width: 0px;
      }

      .cls-33 {
        clip-path: url(#clippath-13);
      }

      .cls-34 {
        clip-path: url(#clippath-37);
      }

      .cls-35 {
        clip-path: url(#clippath-46);
      }

      .cls-36 {
        clip-path: url(#clippath-25);
      }

      .cls-37 {
        clip-path: url(#clippath-15);
      }

      .cls-38 {
        clip-path: url(#clippath-6);
      }

      .cls-39 {
        clip-path: url(#clippath-40);
      }

      .cls-40 {
        clip-path: url(#clippath-26);
      }

      .cls-14, .cls-19 {
        stroke-width: .912px;
      }

      .cls-29 {
        fill: #28ade4;
      }

      .cls-41 {
        clip-path: url(#clippath-7);
      }

      .cls-42 {
        clip-path: url(#clippath-21);
      }

      .cls-43 {
        clip-path: url(#clippath-34);
      }

      .cls-44 {
        clip-path: url(#clippath-1);
      }

      .cls-45 {
        clip-path: url(#clippath-4);
      }

      .cls-46 {
        clip-path: url(#clippath-38);
      }

      .cls-16 {
        stroke: #ef4343;
      }

      .cls-16, .cls-20 {
        stroke-width: 1.388px;
      }

      .cls-47 {
        clip-path: url(#clippath-36);
      }

      .cls-48 {
        clip-path: url(#clippath-27);
      }

      .cls-17 {
        stroke-width: .641px;
      }

      .cls-49 {
        clip-path: url(#clippath-44);
      }

      .cls-50 {
        clip-path: url(#clippath-12);
      }

      .cls-30 {
        fill: #6999d1;
      }

      .cls-51 {
        clip-path: url(#clippath-24);
      }

      .cls-52 {
        clip-path: url(#clippath-30);
      }

      .cls-53 {
        clip-path: url(#clippath-22);
      }

      .cls-54 {
        clip-path: url(#clippath-9);
      }

      .cls-55 {
        clip-path: url(#clippath);
      }

      .cls-18, .cls-19 {
        stroke: #28ade4;
      }

      .cls-56 {
        clip-path: url(#clippath-48);
      }

      .cls-57 {
        clip-path: url(#clippath-39);
      }

      .cls-58 {
        clip-path: url(#clippath-19);
      }

      .cls-59 {
        clip-path: url(#clippath-31);
      }

      .cls-60 {
        clip-path: url(#clippath-3);
      }

      .cls-20 {
        stroke: #6999d1;
      }

      .cls-61 {
        clip-path: url(#clippath-43);
      }

      .cls-62 {
        clip-path: url(#clippath-8);
      }

      .cls-21 {
        stroke: #595959;
      }

      .cls-9 {
        font-family: Symbol, Symbol;
      }

      .cls-31 {
        fill: #ef4343;
      }

      .cls-63 {
        clip-path: url(#clippath-29);
      }

      .cls-64 {
        clip-path: url(#clippath-18);
      }

      .cls-65 {
        clip-path: url(#clippath-14);
      }

      .cls-66 {
        clip-path: url(#clippath-17);
      }

      .cls-67 {
        clip-path: url(#clippath-5);
      }

      .cls-32 {
        fill: #ed2024;
      }

      .cls-3 {
        font-size: 4px;
      }

      .cls-68 {
        clip-path: url(#clippath-42);
      }

      .cls-22 {
        stroke-width: .25px;
      }

      .cls-69 {
        clip-path: url(#clippath-10);
      }

      .cls-70 {
        clip-path: url(#clippath-23);
      }

      .cls-71 {
        opacity: .988;
      }

      .cls-23 {
        stroke-width: .107px;
      }

      .cls-72 {
        clip-path: url(#clippath-28);
      }

      .cls-73 {
        clip-path: url(#clippath-35);
      }
    </style>
    <clipPath id="clippath">
      <rect class="cls-15" x="26.423" y="290.731" width="152.155" height="101.328"/>
    </clipPath>
    <clipPath id="clippath-1">
      <rect class="cls-15" x="26.423" y="290.731" width="152.155" height="101.328"/>
    </clipPath>
    <clipPath id="clippath-2">
      <rect class="cls-15" width="186.651" height="413.097"/>
    </clipPath>
    <clipPath id="clippath-3">
      <rect class="cls-15" x="34.94" y="367.866" width="4.4" height="4.401"/>
    </clipPath>
    <clipPath id="clippath-4">
      <rect class="cls-15" x="34.94" y="367.866" width="4.401" height="4.401"/>
    </clipPath>
    <clipPath id="clippath-5">
      <rect class="cls-15" x="45.674" y="378.117" width="4.4" height="4.401"/>
    </clipPath>
    <clipPath id="clippath-6">
      <rect class="cls-15" x="45.674" y="378.117" width="4.401" height="4.401"/>
    </clipPath>
    <clipPath id="clippath-7">
      <rect class="cls-15" x="56.407" y="380.908" width="4.401" height="4.401"/>
    </clipPath>
    <clipPath id="clippath-8">
      <rect class="cls-15" x="56.407" y="380.908" width="4.401" height="4.401"/>
    </clipPath>
    <clipPath id="clippath-9">
      <rect class="cls-15" x="67.142" y="381.606" width="4.401" height="4.4"/>
    </clipPath>
    <clipPath id="clippath-10">
      <rect class="cls-15" x="67.142" y="381.606" width="4.401" height="4.4"/>
    </clipPath>
    <clipPath id="clippath-11">
      <rect class="cls-15" x="77.876" y="379.459" width="4.401" height="4.401"/>
    </clipPath>
    <clipPath id="clippath-12">
      <rect class="cls-15" x="77.876" y="379.459" width="4.401" height="4.401"/>
    </clipPath>
    <clipPath id="clippath-13">
      <rect class="cls-15" x="88.663" y="383.324" width="4.401" height="4.4"/>
    </clipPath>
    <clipPath id="clippath-14">
      <rect class="cls-15" x="88.663" y="383.324" width="4.401" height="4.4"/>
    </clipPath>
    <clipPath id="clippath-15">
      <rect class="cls-15" x="99.397" y="381.284" width="4.402" height="4.4"/>
    </clipPath>
    <clipPath id="clippath-16">
      <rect class="cls-15" x="99.397" y="381.284" width="4.402" height="4.4"/>
    </clipPath>
    <clipPath id="clippath-17">
      <rect class="cls-15" x="110.132" y="384.45" width="4.4" height="4.401"/>
    </clipPath>
    <clipPath id="clippath-18">
      <rect class="cls-15" x="110.132" y="384.45" width="4.4" height="4.401"/>
    </clipPath>
    <clipPath id="clippath-19">
      <rect class="cls-15" x="120.865" y="383.055" width="4.402" height="4.401"/>
    </clipPath>
    <clipPath id="clippath-20">
      <rect class="cls-15" x="120.865" y="383.056" width="4.402" height="4.4"/>
    </clipPath>
    <clipPath id="clippath-21">
      <rect class="cls-15" x="131.6" y="384.881" width="4.4" height="4.4"/>
    </clipPath>
    <clipPath id="clippath-22">
      <rect class="cls-15" x="131.6" y="384.881" width="4.4" height="4.4"/>
    </clipPath>
    <clipPath id="clippath-23">
      <rect class="cls-15" x="142.334" y="383.806" width="4.4" height="4.402"/>
    </clipPath>
    <clipPath id="clippath-24">
      <rect class="cls-15" x="142.334" y="383.807" width="4.4" height="4.401"/>
    </clipPath>
    <clipPath id="clippath-25">
      <rect class="cls-15" x="153.121" y="384.505" width="4.401" height="4.4"/>
    </clipPath>
    <clipPath id="clippath-26">
      <rect class="cls-15" x="153.121" y="384.505" width="4.401" height="4.4"/>
    </clipPath>
    <clipPath id="clippath-27">
      <rect class="cls-15" x="163.855" y="383.055" width="4.401" height="4.401"/>
    </clipPath>
    <clipPath id="clippath-28">
      <rect class="cls-15" x="163.855" y="383.056" width="4.401" height="4.4"/>
    </clipPath>
    <clipPath id="clippath-29">
      <rect class="cls-15" x="174.589" y="383.539" width="4.4" height="4.4"/>
    </clipPath>
    <clipPath id="clippath-30">
      <rect class="cls-15" x="174.589" y="383.539" width="4.4" height="4.4"/>
    </clipPath>
    <clipPath id="clippath-31">
      <rect class="cls-15" width="186.651" height="413.097"/>
    </clipPath>
    <clipPath id="clippath-32">
      <rect class="cls-15" width="186.651" height="413.097"/>
    </clipPath>
    <clipPath id="clippath-33">
      <rect class="cls-15" x="120.131" y="290.462" width="3.542" height="3.542"/>
    </clipPath>
    <clipPath id="clippath-34">
      <rect class="cls-15" x="120.131" y="290.462" width="3.542" height="3.542"/>
    </clipPath>
    <clipPath id="clippath-35">
      <rect class="cls-15" x="27.175" y="152.697" width="152.153" height="101.328"/>
    </clipPath>
    <clipPath id="clippath-36">
      <rect class="cls-15" x="27.175" y="152.697" width="152.153" height="101.328"/>
    </clipPath>
    <clipPath id="clippath-37">
      <rect class="cls-15" x="27.175" y="152.697" width="152.153" height="101.328"/>
    </clipPath>
    <clipPath id="clippath-38">
      <rect class="cls-15" x="27.175" y="152.696" width="152.153" height="102.029"/>
    </clipPath>
    <clipPath id="clippath-39">
      <rect class="cls-15" width="186.651" height="413.097"/>
    </clipPath>
    <clipPath id="clippath-40">
      <rect class="cls-15" x="27.175" y="152.696" width="152.153" height="102.029"/>
    </clipPath>
    <clipPath id="clippath-41">
      <rect class="cls-15" width="186.651" height="413.097"/>
    </clipPath>
    <clipPath id="clippath-42">
      <rect class="cls-15" width="186.651" height="413.097"/>
    </clipPath>
    <clipPath id="clippath-43">
      <rect class="cls-15" x="30.54" y="9.746" width="151.379" height="112.591"/>
    </clipPath>
    <clipPath id="clippath-44">
      <rect class="cls-15" x="30.54" y="9.746" width="151.379" height="112.591"/>
    </clipPath>
    <clipPath id="clippath-45">
      <rect class="cls-15" x="30.54" y="9.746" width="151.379" height="112.591"/>
    </clipPath>
    <clipPath id="clippath-46">
      <rect class="cls-15" x="30.54" y="9.746" width="151.379" height="112.591"/>
    </clipPath>
    <clipPath id="clippath-47">
      <rect class="cls-15" x="30.54" y="9.746" width="151.379" height="112.591"/>
    </clipPath>
    <clipPath id="clippath-48">
      <rect class="cls-15" x="30.54" y="9.746" width="151.379" height="112.591"/>
    </clipPath>
  </defs>
  <line class="cls-22" x1="26.45" y1="392.086" x2="26.45" y2="290.757"/>
  <path class="cls-22" d="m24.464,290.757h1.986m-1.986,16.852h1.986m-1.986,16.907h1.986m-1.986,16.905h1.986m-1.986,16.906h1.986m-1.986,16.906h1.986m-1.986,16.853h1.986"/>
  <line class="cls-22" x1="26.45" y1="392.086" x2="177.906" y2="392.086"/>
  <path class="cls-22" d="m176.833,392.086v1.985m-21.468-1.985v1.985m-21.521-1.985v1.985m-21.468-1.985v1.985m-21.468-1.985v1.985m-21.522-1.985v1.985m-21.468-1.985v1.985m-21.468-1.985v1.985"/>
  <path class="cls-21" d="m35.144,381.942h4.025m-4.025,3.382h4.025m-1.985-1.663v-1.719m0,1.719v1.663"/>
  <path class="cls-21" d="m45.878,377.488h4.026m-4.026,5.098h4.026m-1.986-2.575v-2.523m0,2.523v2.575"/>
  <path class="cls-21" d="m56.666,369.705h4.026m-4.026,10.036h4.026m-2.04-4.99v-5.046m0,5.046v4.99"/>
  <path class="cls-21" d="m67.4,363.856h4.025m-4.025,8.157h4.025m-2.039-4.078v-4.079m0,4.079v4.078"/>
  <path class="cls-21" d="m78.134,341.1h4.025m-4.025,18.194h4.025m-2.039-9.071v-9.123m0,9.123v9.071"/>
  <path class="cls-21" d="m88.868,327.307h4.025m-4.025,25.815h4.025m-1.985-12.935v-12.88m0,12.88v12.935"/>
  <path class="cls-21" d="m99.602,322.798h4.025m-4.025,24.205h4.025m-1.985-12.075v-12.13m0,12.13v12.075"/>
  <path class="cls-21" d="m110.336,328.38h4.025m-4.025,24.151h4.025m-1.985-12.075v-12.076m0,12.076v12.075"/>
  <path class="cls-21" d="m121.124,314.534h4.025m-4.025,31.075h4.025m-2.04-15.512v-15.563m0,15.563v15.512"/>
  <path class="cls-21" d="m131.859,319.632h4.025m-4.025,29.143h4.025m-2.04-14.545v-14.598m0,14.598v14.545"/>
  <path class="cls-21" d="m142.592,314.051h4.025m-4.025,28.177h4.025m-2.039-14.062v-14.115m0,14.115v14.062"/>
  <path class="cls-21" d="m153.327,313.459h4.025m-4.025,34.671h4.025m-1.986-17.335v-17.336m0,17.336v17.335"/>
  <path class="cls-21" d="m164.061,308.683h4.024m-4.024,32.738h4.024m-1.986-16.369v-16.369m0,16.369v16.369"/>
  <g class="cls-55">
    <path class="cls-21" d="m174.848,306.536h4.025m-4.025,33.866h4.025m-2.04-16.906v-16.96m0,16.96v16.906"/>
  </g>
  <path class="cls-21" d="m35.144,363.587h4.025m-4.025,13.15h4.025m-1.985-6.602v-6.548m0,6.548v6.602"/>
  <path class="cls-21" d="m45.878,376.146h4.026m-4.026,8.534h4.026m-1.986-4.294v-4.24m0,4.24v4.294"/>
  <path class="cls-21" d="m56.666,379.849h4.026m-4.026,6.655h4.026m-2.04-3.327v-3.328m0,3.328v3.327"/>
  <path class="cls-21" d="m67.4,381.299h4.025m-4.025,5.206h4.025m-2.039-2.63v-2.576m0,2.576v2.63"/>
  <path class="cls-21" d="m78.134,377.488h4.025m-4.025,8.534h4.025m-2.039-4.294v-4.24m0,4.24v4.294"/>
  <path class="cls-21" d="m88.868,383.928h4.025m-4.025,3.328h4.025m-1.985-1.664v-1.664m0,1.664v1.664"/>
  <path class="cls-21" d="m99.602,380.171h4.025m-4.025,6.763h4.025m-1.985-3.381v-3.382m0,3.382v3.381"/>
  <path class="cls-21" d="m110.336,385.538h4.025m-4.025,2.362h4.025m-1.985-1.181v-1.181m0,1.181v1.181"/>
  <path class="cls-21" d="m121.124,383.284h4.025m-4.025,4.133h4.025m-2.04-2.093v-2.04m0,2.04v2.093"/>
  <path class="cls-21" d="m131.859,386.397h4.025m-4.025,1.503h4.025m-2.04-.751v-.752m0,.752v.751"/>
  <path class="cls-21" d="m142.592,385.055h4.025m-4.025,2.041h4.025m-2.039-1.021v-1.02m0,1.02v1.021"/>
  <path class="cls-21" d="m153.327,386.237h4.025m-4.025,1.127h4.025m-1.986-.591v-.536m0,.536v.591"/>
  <path class="cls-21" d="m164.061,384.466h4.024m-4.024,1.771h4.024m-1.986-.913v-.858m0,.858v.913"/>
  <g class="cls-44">
    <path class="cls-21" d="m174.848,384.948h4.025m-4.025,1.717h4.025m-2.04-.858v-.859m0,.859v.858"/>
  </g>
  <polyline class="cls-14" points="37.184 383.661 47.918 380.012 58.652 374.752 69.386 367.935 80.12 350.223 90.908 340.187 101.642 334.929 112.376 340.456 123.109 330.098 133.844 334.23 144.578 328.166 155.365 330.796 166.099 325.053 176.833 323.496"/>
  <g class="cls-26">
    <path class="cls-32" d="m39.34,383.591c0,1.216-.984,2.2-2.2,2.2s-2.201-.984-2.201-2.2.985-2.2,2.201-2.2,2.2.985,2.2,2.2"/>
    <path class="cls-12" d="m39.34,383.591c0,1.216-.984,2.2-2.2,2.2s-2.201-.984-2.201-2.2.985-2.2,2.201-2.2,2.2.985,2.2,2.2Z"/>
    <path class="cls-32" d="m50.074,379.942c0,1.216-.984,2.2-2.2,2.2s-2.201-.984-2.201-2.2.985-2.2,2.201-2.2,2.2.985,2.2,2.2"/>
    <path class="cls-12" d="m50.074,379.942c0,1.216-.984,2.2-2.2,2.2s-2.201-.984-2.201-2.2.985-2.2,2.201-2.2,2.2.985,2.2,2.2Z"/>
    <path class="cls-32" d="m60.808,374.682c0,1.216-.984,2.2-2.2,2.2s-2.201-.984-2.201-2.2.985-2.2,2.201-2.2,2.2.985,2.2,2.2"/>
    <path class="cls-12" d="m60.808,374.682c0,1.216-.984,2.2-2.2,2.2s-2.201-.984-2.201-2.2.985-2.2,2.201-2.2,2.2.985,2.2,2.2Z"/>
    <path class="cls-32" d="m71.543,367.866c0,1.217-.985,2.201-2.201,2.201s-2.2-.984-2.2-2.201.985-2.2,2.2-2.2,2.201.985,2.201,2.2"/>
    <path class="cls-12" d="m71.543,367.866c0,1.217-.985,2.201-2.201,2.201s-2.2-.984-2.2-2.201.984-2.2,2.2-2.2,2.201.985,2.201,2.2Z"/>
    <path class="cls-32" d="m82.277,350.155c0,1.217-.985,2.201-2.201,2.201s-2.2-.984-2.2-2.201.984-2.2,2.2-2.2,2.201.985,2.201,2.2"/>
    <path class="cls-12" d="m82.277,350.155c0,1.217-.985,2.201-2.201,2.201s-2.2-.984-2.2-2.201.984-2.2,2.2-2.2,2.201.985,2.201,2.2Z"/>
    <path class="cls-32" d="m93.065,340.12c0,1.215-.985,2.2-2.201,2.2s-2.2-.985-2.2-2.2.984-2.201,2.2-2.201,2.201.984,2.201,2.201"/>
    <path class="cls-12" d="m93.065,340.12c0,1.215-.985,2.2-2.201,2.2s-2.2-.985-2.2-2.2.984-2.201,2.2-2.201,2.201.984,2.201,2.201Z"/>
    <path class="cls-32" d="m103.799,334.86c0,1.215-.985,2.2-2.201,2.2s-2.2-.985-2.2-2.2.984-2.201,2.2-2.201,2.201.985,2.201,2.201"/>
    <path class="cls-12" d="m103.799,334.86c0,1.215-.985,2.2-2.201,2.2s-2.2-.985-2.2-2.2.984-2.201,2.2-2.201,2.201.985,2.201,2.201Z"/>
    <path class="cls-32" d="m114.532,340.387c0,1.216-.985,2.2-2.2,2.2s-2.2-.984-2.2-2.2.984-2.2,2.2-2.2,2.2.984,2.2,2.2"/>
    <path class="cls-12" d="m114.532,340.387c0,1.216-.985,2.2-2.2,2.2s-2.2-.984-2.2-2.2.984-2.2,2.2-2.2,2.2.984,2.2,2.2Z"/>
    <path class="cls-32" d="m125.267,330.029c0,1.216-.985,2.2-2.2,2.2s-2.201-.984-2.201-2.2.984-2.2,2.201-2.2,2.2.985,2.2,2.2"/>
    <path class="cls-12" d="m125.267,330.029c0,1.216-.985,2.2-2.2,2.2s-2.201-.984-2.201-2.2.984-2.2,2.201-2.2,2.2.985,2.2,2.2Z"/>
    <path class="cls-32" d="m136,334.162c0,1.216-.985,2.2-2.2,2.2s-2.2-.984-2.2-2.2.984-2.2,2.2-2.2,2.2.984,2.2,2.2"/>
    <path class="cls-12" d="m136,334.162c0,1.216-.985,2.2-2.2,2.2s-2.2-.984-2.2-2.2.984-2.2,2.2-2.2,2.2.984,2.2,2.2Z"/>
    <path class="cls-32" d="m146.734,328.097c0,1.216-.985,2.2-2.2,2.2s-2.2-.984-2.2-2.2.984-2.201,2.2-2.201,2.2.985,2.2,2.201"/>
    <path class="cls-12" d="m146.734,328.097c0,1.216-.985,2.2-2.2,2.2s-2.2-.984-2.2-2.2.984-2.201,2.2-2.201,2.2.985,2.2,2.201Z"/>
    <path class="cls-32" d="m157.522,330.727c0,1.215-.984,2.2-2.2,2.2s-2.2-.985-2.2-2.2.985-2.2,2.2-2.2,2.2.984,2.2,2.2"/>
    <path class="cls-12" d="m157.522,330.727c0,1.215-.984,2.2-2.2,2.2s-2.2-.985-2.2-2.2.985-2.2,2.2-2.2,2.2.984,2.2,2.2Z"/>
    <path class="cls-32" d="m168.256,324.984c0,1.216-.984,2.201-2.2,2.201s-2.201-.985-2.201-2.201.985-2.2,2.201-2.2,2.2.984,2.2,2.2"/>
    <path class="cls-12" d="m168.256,324.984c0,1.216-.984,2.201-2.2,2.201s-2.201-.985-2.201-2.201.985-2.2,2.201-2.2,2.2.984,2.2,2.2Z"/>
    <path class="cls-32" d="m178.989,323.427c0,1.217-.984,2.201-2.2,2.201s-2.2-.984-2.2-2.201.985-2.2,2.2-2.2,2.2.984,2.2,2.2"/>
    <path class="cls-12" d="m178.989,323.427c0,1.217-.984,2.201-2.2,2.201s-2.2-.984-2.2-2.201.985-2.2,2.2-2.2,2.2.984,2.2,2.2Z"/>
    <polyline class="cls-19" points="37.184 370.135 47.918 380.386 58.652 383.177 69.386 383.874 80.12 381.728 90.908 385.592 101.642 383.553 112.376 386.719 123.109 385.323 133.844 387.149 144.578 386.074 155.365 386.773 166.099 385.323 176.833 385.807"/>
    <g class="cls-71">
      <g class="cls-60">
        <g class="cls-45">
          <path class="cls-29" d="m39.34,370.067c0,1.216-.984,2.2-2.2,2.2s-2.201-.984-2.201-2.2.985-2.201,2.201-2.201,2.2.985,2.2,2.201"/>
        </g>
      </g>
    </g>
    <path class="cls-18" d="m39.34,370.067c0,1.216-.984,2.2-2.2,2.2s-2.201-.984-2.201-2.2.985-2.201,2.201-2.201,2.2.985,2.2,2.201Z"/>
    <g class="cls-71">
      <g class="cls-67">
        <g class="cls-38">
          <path class="cls-29" d="m50.074,380.318c0,1.216-.984,2.2-2.2,2.2s-2.201-.984-2.201-2.2.985-2.201,2.201-2.201,2.2.985,2.2,2.201"/>
        </g>
      </g>
    </g>
    <path class="cls-18" d="m50.074,380.318c0,1.216-.984,2.2-2.2,2.2s-2.201-.984-2.201-2.2.985-2.201,2.201-2.201,2.2.985,2.2,2.201Z"/>
    <g class="cls-71">
      <g class="cls-41">
        <g class="cls-62">
          <path class="cls-29" d="m60.808,383.108c0,1.217-.984,2.201-2.2,2.201s-2.201-.984-2.201-2.201.985-2.2,2.201-2.2,2.2.985,2.2,2.2"/>
        </g>
      </g>
    </g>
    <path class="cls-18" d="m60.808,383.108c0,1.217-.984,2.201-2.2,2.201s-2.201-.984-2.201-2.201.985-2.2,2.201-2.2,2.2.985,2.2,2.2Z"/>
    <g class="cls-71">
      <g class="cls-54">
        <g class="cls-69">
          <path class="cls-29" d="m71.543,383.806c0,1.216-.985,2.2-2.201,2.2s-2.2-.984-2.2-2.2.985-2.2,2.2-2.2,2.201.984,2.201,2.2"/>
        </g>
      </g>
    </g>
    <path class="cls-18" d="m71.543,383.806c0,1.216-.985,2.2-2.201,2.2s-2.2-.984-2.2-2.2.984-2.2,2.2-2.2,2.201.984,2.201,2.2Z"/>
    <g class="cls-71">
      <g class="cls-7">
        <g class="cls-50">
          <path class="cls-29" d="m82.277,381.66c0,1.216-.985,2.2-2.201,2.2s-2.2-.984-2.2-2.2.984-2.201,2.2-2.201,2.201.985,2.201,2.201"/>
        </g>
      </g>
    </g>
    <path class="cls-18" d="m82.277,381.66c0,1.216-.985,2.2-2.201,2.2s-2.2-.984-2.2-2.2.984-2.201,2.2-2.201,2.201.985,2.201,2.201Z"/>
    <g class="cls-71">
      <g class="cls-33">
        <g class="cls-65">
          <path class="cls-29" d="m93.065,385.524c0,1.216-.985,2.2-2.201,2.2s-2.2-.984-2.2-2.2.984-2.2,2.2-2.2,2.201.984,2.201,2.2"/>
        </g>
      </g>
    </g>
    <path class="cls-18" d="m93.065,385.524c0,1.216-.985,2.2-2.201,2.2s-2.2-.984-2.2-2.2.984-2.2,2.2-2.2,2.201.984,2.201,2.2Z"/>
    <g class="cls-71">
      <g class="cls-37">
        <g class="cls-8">
          <path class="cls-29" d="m103.799,383.484c0,1.216-.985,2.2-2.201,2.2s-2.2-.984-2.2-2.2.984-2.2,2.2-2.2,2.201.985,2.201,2.2"/>
        </g>
      </g>
    </g>
    <path class="cls-18" d="m103.799,383.484c0,1.216-.985,2.2-2.201,2.2s-2.2-.984-2.2-2.2.984-2.2,2.2-2.2,2.201.985,2.201,2.2Z"/>
    <g class="cls-71">
      <g class="cls-66">
        <g class="cls-64">
          <path class="cls-29" d="m114.532,386.651c0,1.216-.985,2.2-2.2,2.2s-2.2-.984-2.2-2.2.984-2.201,2.2-2.201,2.2.985,2.2,2.201"/>
        </g>
      </g>
    </g>
    <path class="cls-18" d="m114.532,386.651c0,1.216-.985,2.2-2.2,2.2s-2.2-.984-2.2-2.2.984-2.201,2.2-2.201,2.2.985,2.2,2.201Z"/>
    <g class="cls-71">
      <g class="cls-58">
        <g class="cls-6">
          <path class="cls-29" d="m125.267,385.255c0,1.216-.985,2.2-2.2,2.2s-2.201-.984-2.201-2.2.984-2.2,2.201-2.2,2.2.984,2.2,2.2"/>
        </g>
      </g>
    </g>
    <path class="cls-18" d="m125.267,385.255c0,1.216-.985,2.2-2.2,2.2s-2.201-.984-2.201-2.2.984-2.2,2.201-2.2,2.2.984,2.2,2.2Z"/>
    <g class="cls-71">
      <g class="cls-42">
        <g class="cls-53">
          <path class="cls-29" d="m136,387.081c0,1.215-.985,2.2-2.2,2.2s-2.2-.985-2.2-2.2.984-2.2,2.2-2.2,2.2.984,2.2,2.2"/>
        </g>
      </g>
    </g>
    <path class="cls-18" d="m136,387.081c0,1.215-.985,2.2-2.2,2.2s-2.2-.985-2.2-2.2.984-2.2,2.2-2.2,2.2.984,2.2,2.2Z"/>
    <g class="cls-71">
      <g class="cls-70">
        <g class="cls-51">
          <path class="cls-29" d="m146.734,386.006c0,1.217-.985,2.201-2.2,2.201s-2.2-.984-2.2-2.201.984-2.2,2.2-2.2,2.2.985,2.2,2.2"/>
        </g>
      </g>
    </g>
    <path class="cls-18" d="m146.734,386.006c0,1.217-.985,2.201-2.2,2.201s-2.2-.984-2.2-2.201.984-2.2,2.2-2.2,2.2.985,2.2,2.2Z"/>
    <g class="cls-71">
      <g class="cls-36">
        <g class="cls-40">
          <path class="cls-29" d="m157.522,386.705c0,1.215-.984,2.2-2.2,2.2s-2.2-.985-2.2-2.2.985-2.2,2.2-2.2,2.2.984,2.2,2.2"/>
        </g>
      </g>
    </g>
    <path class="cls-18" d="m157.522,386.705c0,1.215-.984,2.2-2.2,2.2s-2.2-.985-2.2-2.2.985-2.2,2.2-2.2,2.2.984,2.2,2.2Z"/>
    <g class="cls-71">
      <g class="cls-48">
        <g class="cls-72">
          <path class="cls-29" d="m168.256,385.255c0,1.216-.984,2.2-2.2,2.2s-2.201-.984-2.201-2.2.985-2.2,2.201-2.2,2.2.984,2.2,2.2"/>
        </g>
      </g>
    </g>
    <path class="cls-18" d="m168.256,385.255c0,1.216-.984,2.2-2.2,2.2s-2.201-.984-2.201-2.2.985-2.2,2.201-2.2,2.2.984,2.2,2.2Z"/>
    <g class="cls-71">
      <g class="cls-63">
        <g class="cls-52">
          <path class="cls-29" d="m178.989,385.739c0,1.215-.984,2.2-2.2,2.2s-2.2-.985-2.2-2.2.985-2.2,2.2-2.2,2.2.984,2.2,2.2"/>
        </g>
      </g>
    </g>
    <path class="cls-18" d="m178.989,385.739c0,1.215-.984,2.2-2.2,2.2s-2.2-.985-2.2-2.2.985-2.2,2.2-2.2,2.2.984,2.2,2.2Z"/>
  </g>
  <text class="cls-1" transform="translate(18.129 394.393)"><tspan x="0" y="0">0</tspan></text>
  <text class="cls-1" transform="translate(12.892 377.495)"><tspan x="0" y="0">0.5</tspan></text>
  <text class="cls-1" transform="translate(18.129 360.598)"><tspan x="0" y="0">1</tspan></text>
  <text class="cls-1" transform="translate(12.892 343.699)"><tspan x="0" y="0">1.5</tspan></text>
  <text class="cls-1" transform="translate(18.129 326.802)"><tspan x="0" y="0">2</tspan></text>
  <text class="cls-1" transform="translate(12.892 309.904)"><tspan x="0" y="0">2.5</tspan></text>
  <text class="cls-1" transform="translate(18.129 293.006)"><tspan x="0" y="0">3</tspan></text>
  <text class="cls-2" transform="translate(24.914 401.319)"><tspan x="0" y="0">0</tspan></text>
  <text class="cls-2" transform="translate(46.424 401.319)"><tspan x="0" y="0">2</tspan></text>
  <text class="cls-2" transform="translate(67.934 401.319)"><tspan x="0" y="0">4</tspan></text>
  <text class="cls-2" transform="translate(89.444 401.319)"><tspan x="0" y="0">6</tspan></text>
  <text class="cls-2" transform="translate(110.954 401.319)"><tspan x="0" y="0">8</tspan></text>
  <text class="cls-2" transform="translate(130.796 401.319)"><tspan x="0" y="0">10</tspan></text>
  <text class="cls-2" transform="translate(152.306 401.319)"><tspan x="0" y="0">12</tspan></text>
  <text class="cls-2" transform="translate(173.816 401.319)"><tspan x="0" y="0">14</tspan></text>
  <text class="cls-2" transform="translate(7.542 385.712) rotate(-90)"><tspan x="0" y="0">Capillary </tspan></text>
  <text class="cls-9" transform="translate(7.542 360.71) rotate(-90)"><tspan x="0" y="0">β</tspan></text>
  <text class="cls-2" transform="translate(7.542 357.416) rotate(-90)"><tspan x="0" y="0">-hydroxybutyrate (mM)</tspan></text>
  <text class="cls-2" transform="translate(85.826 410.708)"><tspan x="0" y="0">Days on diet</tspan></text>
  <line class="cls-14" x1="54.036" y1="292.207" x2="71.211" y2="292.207"/>
  <g class="cls-59">
    <path class="cls-32" d="m64.422,292.234c0,.979-.792,1.771-1.771,1.771s-1.771-.792-1.771-1.771.792-1.771,1.771-1.771,1.771.792,1.771,1.771"/>
    <path class="cls-12" d="m64.422,292.234c0,.979-.792,1.771-1.771,1.771s-1.771-.792-1.771-1.771.792-1.771,1.771-1.771,1.771.792,1.771,1.771Z"/>
  </g>
  <text class="cls-2" transform="translate(74.739 293.995)"><tspan x="0" y="0">LC diet</tspan></text>
  <line class="cls-19" x1="113.288" y1="292.207" x2="130.462" y2="292.207"/>
  <g class="cls-25">
    <g class="cls-71">
      <g class="cls-10">
        <g class="cls-43">
          <path class="cls-29" d="m123.673,292.234c0,.979-.792,1.771-1.771,1.771s-1.771-.792-1.771-1.771.792-1.771,1.771-1.771,1.771.792,1.771,1.771"/>
        </g>
      </g>
    </g>
    <path class="cls-18" d="m123.673,292.234c0,.979-.792,1.771-1.771,1.771s-1.771-.792-1.771-1.771.792-1.771,1.771-1.771,1.771.792,1.771,1.771Z"/>
  </g>
  <text class="cls-2" transform="translate(133.954 293.995)"><tspan x="0" y="0">LF diet</tspan></text>
  <line class="cls-22" x1="27.201" y1="254.053" x2="27.201" y2="152.724"/>
  <path class="cls-22" d="m25.216,152.724h1.985m-1.985,20.233h1.985m-1.985,20.287h1.985m-1.985,20.288h1.985m-1.985,20.288h1.985m-1.985,20.233h1.985"/>
  <line class="cls-22" x1="27.201" y1="254.053" x2="178.712" y2="254.053"/>
  <path class="cls-22" d="m177.424,254.053v1.985m-18.731-1.985v1.985m-18.785-1.985v1.985m-18.784-1.985v1.985m-18.784-1.985v1.985m-18.785-1.985v1.985m-18.785-1.985v1.985m-18.784-1.985v1.985m-18.785-1.985v1.985"/>
  <g class="cls-73">
    <path class="cls-21" d="m25.216,236.127h4.025m-4.025,10.089h4.025m-2.04-5.044v-5.045m0,5.045v5.044"/>
  </g>
  <path class="cls-21" d="m31.442,236.717h4.025m-4.025,9.876h4.025m-1.986-4.938v-4.938m0,4.938v4.938"/>
  <path class="cls-21" d="m37.72,236.556h4.026m-4.026,9.768h4.026m-1.986-4.884v-4.884m0,4.884v4.884"/>
  <path class="cls-21" d="m44,236.18h4.026m-4.026,9.983h4.026m-2.04-4.991v-4.992m0,4.992v4.991"/>
  <path class="cls-21" d="m50.226,235h4.025m-4.025,9.982h4.025m-1.986-4.991v-4.991m0,4.991v4.991"/>
  <path class="cls-21" d="m56.506,233.337h4.025m-4.025,10.036h4.025m-2.04-5.045v-4.991m0,4.991v5.045"/>
  <path class="cls-21" d="m62.785,231.296h4.025m-4.025,10.144h4.025m-2.04-5.045v-5.099m0,5.099v5.045"/>
  <path class="cls-21" d="m69.01,229.15h4.026m-4.026,10.358h4.026m-1.986-5.206v-5.152m0,5.152v5.206"/>
  <path class="cls-21" d="m75.29,228.184h4.025m-4.025,10.841h4.025m-2.04-5.421v-5.42m0,5.42v5.421"/>
  <path class="cls-21" d="m81.516,226.359h4.025m-4.025,10.948h4.025m-1.986-5.474v-5.474m0,5.474v5.474"/>
  <path class="cls-21" d="m87.795,225.5h4.025m-4.025,11.11h4.025m-1.986-5.582v-5.528m0,5.528v5.582"/>
  <path class="cls-21" d="m94.075,224.051h4.025m-4.025,11.431h4.025m-2.04-5.689v-5.742m0,5.742v5.689"/>
  <path class="cls-21" d="m100.3,223.247h4.025m-4.025,11.592h4.025m-1.985-5.796v-5.796m0,5.796v5.796"/>
  <path class="cls-21" d="m106.579,222.656h4.025m-4.025,11.808h4.025m-2.039-5.904v-5.904m0,5.904v5.904"/>
  <path class="cls-21" d="m112.859,222.011h4.025m-4.025,12.022h4.025m-2.039-6.011v-6.011m0,6.011v6.011"/>
  <path class="cls-21" d="m119.084,221.797h4.025m-4.025,12.398h4.025m-1.985-6.172v-6.226m0,6.226v6.172"/>
  <path class="cls-21" d="m125.364,221.797h4.025m-4.025,12.666h4.025m-2.039-6.333v-6.333m0,6.333v6.333"/>
  <path class="cls-21" d="m131.589,222.119h4.025m-4.025,12.72h4.025m-1.985-6.333v-6.387m0,6.387v6.333"/>
  <path class="cls-21" d="m137.869,222.441h4.025m-4.025,12.828h4.025m-1.986-6.441v-6.387m0,6.387v6.441"/>
  <path class="cls-21" d="m144.148,222.333h4.025m-4.025,12.881h4.025m-2.038-6.44v-6.441m0,6.441v6.44"/>
  <path class="cls-21" d="m150.373,222.656h4.025m-4.025,12.988h4.025m-1.985-6.494v-6.494m0,6.494v6.494"/>
  <path class="cls-21" d="m156.654,222.978h4.025m-4.025,12.558h4.025m-1.985-6.279v-6.279m0,6.279v6.279"/>
  <path class="cls-21" d="m162.933,223.3h4.025m-4.025,12.29h4.025m-2.039-6.172v-6.118m0,6.118v6.172"/>
  <path class="cls-21" d="m169.158,223.193h4.025m-4.025,11.968h4.025m-1.986-5.957v-6.011m0,6.011v5.957"/>
  <g class="cls-47">
    <path class="cls-21" d="m175.438,223.353h4.025m-4.025,12.022h4.025m-2.039-6.011v-6.011m0,6.011v6.011"/>
    <path class="cls-21" d="m25.216,223.944h4.025m-4.025,6.655h4.025m-2.04-3.327v-3.328m0,3.328v3.327"/>
  </g>
  <path class="cls-21" d="m31.442,225.232h4.025m-4.025,6.118h4.025m-1.986-3.059v-3.059m0,3.059v3.059"/>
  <path class="cls-21" d="m37.72,223.997h4.026m-4.026,6.226h4.026m-1.986-3.113v-3.113m0,3.113v3.113"/>
  <path class="cls-21" d="m44,221.046h4.026m-4.026,6.28h4.026m-2.04-3.167v-3.113m0,3.113v3.167"/>
  <path class="cls-21" d="m50.226,213.263h4.025m-4.025,7.461h4.025m-1.986-3.757v-3.704m0,3.704v3.757"/>
  <path class="cls-21" d="m56.506,201.993h4.025m-4.025,9.178h4.025m-2.04-4.616v-4.562m0,4.562v4.616"/>
  <path class="cls-21" d="m62.785,189.596h4.025m-4.025,10.841h4.025m-2.04-5.421v-5.42m0,5.42v5.421"/>
  <path class="cls-21" d="m69.01,176.769h4.026m-4.026,12.827h4.026m-1.986-6.387v-6.44m0,6.44v6.387"/>
  <path class="cls-21" d="m75.29,166.41h4.025m-4.025,14.545h4.025m-2.04-7.246v-7.299m0,7.299v7.246"/>
  <path class="cls-21" d="m81.516,159.97h4.025m-4.025,15.778h4.025m-1.986-7.889v-7.889m0,7.889v7.889"/>
  <path class="cls-21" d="m87.795,157.232h4.025m-4.025,16.208h4.025m-1.986-8.104v-8.104m0,8.104v8.104"/>
  <path class="cls-21" d="m94.075,158.091h4.025m-4.025,16.369h4.025m-2.04-8.158v-8.211m0,8.211v8.158"/>
  <path class="cls-21" d="m100.3,159.54h4.025m-4.025,16.53h4.025m-1.985-8.265v-8.265m0,8.265v8.265"/>
  <path class="cls-21" d="m106.579,163.083h4.025m-4.025,16.691h4.025m-2.039-8.319v-8.372m0,8.372v8.319"/>
  <path class="cls-21" d="m112.859,166.249h4.025m-4.025,16.423h4.025m-2.039-8.212v-8.211m0,8.211v8.212"/>
  <path class="cls-21" d="m119.084,169.147h4.025m-4.025,16.155h4.025m-1.985-8.051v-8.104m0,8.104v8.051"/>
  <path class="cls-21" d="m125.364,172.528h4.025m-4.025,15.564h4.025m-2.039-7.782v-7.782m0,7.782v7.782"/>
  <path class="cls-21" d="m131.589,174.782h4.025m-4.025,14.867h4.025m-1.985-7.46v-7.407m0,7.407v7.46"/>
  <path class="cls-21" d="m137.869,176.447h4.025m-4.025,14.061h4.025m-1.986-7.031v-7.03m0,7.03v7.031"/>
  <path class="cls-21" d="m144.148,177.573h4.025m-4.025,13.793h4.025m-2.038-6.923v-6.87m0,6.87v6.923"/>
  <path class="cls-21" d="m150.373,179.237h4.025m-4.025,13.041h4.025m-1.985-6.547v-6.494m0,6.494v6.547"/>
  <path class="cls-21" d="m156.654,180.042h4.025m-4.025,12.558h4.025m-1.985-6.279v-6.279m0,6.279v6.279"/>
  <path class="cls-21" d="m162.933,180.418h4.025m-4.025,13.042h4.025m-2.039-6.548v-6.494m0,6.494v6.548"/>
  <path class="cls-21" d="m169.158,181.491h4.025m-4.025,12.452h4.025m-1.986-6.226v-6.226m0,6.226v6.226"/>
  <g class="cls-34">
    <path class="cls-21" d="m175.438,181.759h4.025m-4.025,11.807h4.025m-2.039-5.903v-5.904m0,5.904v5.903"/>
  </g>
  <g class="cls-46">
    <polyline class="cls-14" points="27.201 241.172 33.48 241.654 39.76 241.44 45.986 241.172 52.265 239.99 58.491 238.327 64.77 236.395 71.05 234.302 77.275 233.604 83.555 231.833 89.834 231.028 96.059 229.794 102.34 229.042 108.565 228.559 114.845 228.022 121.124 228.022 127.349 228.13 133.629 228.505 139.908 228.828 146.135 228.774 152.413 229.15 158.693 229.257 164.919 229.418 171.197 229.203 177.424 229.364"/>
  </g>
  <g class="cls-57">
    <path class="cls-32" d="m29.358,241.108c0,1.215-.985,2.201-2.2,2.201s-2.201-.986-2.201-2.201.985-2.2,2.201-2.2,2.2.984,2.2,2.2"/>
    <path class="cls-12" d="m29.358,241.108c0,1.215-.985,2.201-2.2,2.201s-2.201-.986-2.201-2.201.985-2.2,2.201-2.2,2.2.984,2.2,2.2Z"/>
    <path class="cls-32" d="m35.638,241.591c0,1.215-.985,2.2-2.201,2.2s-2.2-.985-2.2-2.2.984-2.2,2.2-2.2,2.201.984,2.201,2.2"/>
    <path class="cls-12" d="m35.637,241.591c0,1.215-.985,2.2-2.201,2.2s-2.2-.985-2.2-2.2.985-2.2,2.2-2.2,2.201.984,2.201,2.2Z"/>
    <path class="cls-32" d="m41.917,241.376c0,1.216-.984,2.2-2.201,2.2s-2.2-.984-2.2-2.2.985-2.2,2.2-2.2,2.201.984,2.201,2.2"/>
    <path class="cls-12" d="m41.917,241.376c0,1.216-.984,2.2-2.201,2.2s-2.2-.984-2.2-2.2.985-2.2,2.2-2.2,2.201.984,2.201,2.2Z"/>
    <path class="cls-32" d="m48.143,241.108c0,1.215-.985,2.201-2.201,2.201s-2.2-.986-2.2-2.201.984-2.2,2.2-2.2,2.201.984,2.201,2.2"/>
    <path class="cls-12" d="m48.143,241.108c0,1.215-.985,2.201-2.201,2.201s-2.2-.986-2.2-2.201.984-2.2,2.2-2.2,2.201.984,2.201,2.2Z"/>
    <path class="cls-32" d="m54.422,239.927c0,1.216-.984,2.2-2.2,2.2s-2.201-.984-2.201-2.2.985-2.2,2.201-2.2,2.2.985,2.2,2.2"/>
    <path class="cls-12" d="m54.422,239.927c0,1.216-.984,2.2-2.2,2.2s-2.201-.984-2.201-2.2.985-2.2,2.201-2.2,2.2.985,2.2,2.2Z"/>
    <path class="cls-32" d="m60.648,238.264c0,1.215-.985,2.2-2.2,2.2s-2.201-.985-2.201-2.2.985-2.2,2.201-2.2,2.2.984,2.2,2.2"/>
    <path class="cls-12" d="m60.648,238.264c0,1.215-.985,2.2-2.2,2.2s-2.201-.985-2.201-2.2.985-2.2,2.201-2.2,2.2.984,2.2,2.2Z"/>
    <path class="cls-32" d="m66.927,236.332c0,1.215-.985,2.2-2.2,2.2s-2.2-.985-2.2-2.2.984-2.2,2.2-2.2,2.2.984,2.2,2.2"/>
    <path class="cls-12" d="m66.927,236.332c0,1.215-.985,2.2-2.2,2.2s-2.2-.985-2.2-2.2.984-2.2,2.2-2.2,2.2.984,2.2,2.2Z"/>
    <path class="cls-32" d="m73.207,234.239c0,1.215-.985,2.2-2.201,2.2s-2.2-.985-2.2-2.2.984-2.201,2.2-2.201,2.201.985,2.201,2.201"/>
    <path class="cls-12" d="m73.207,234.239c0,1.215-.985,2.2-2.201,2.2s-2.2-.985-2.2-2.2.984-2.201,2.2-2.201,2.201.985,2.201,2.201Z"/>
    <path class="cls-32" d="m79.432,233.541c0,1.215-.985,2.2-2.201,2.2s-2.2-.985-2.2-2.2.984-2.2,2.2-2.2,2.201.984,2.201,2.2"/>
    <path class="cls-12" d="m79.432,233.541c0,1.215-.985,2.2-2.201,2.2s-2.2-.985-2.2-2.2.984-2.2,2.2-2.2,2.201.984,2.201,2.2Z"/>
    <path class="cls-32" d="m85.712,231.769c0,1.216-.985,2.2-2.2,2.2s-2.201-.984-2.201-2.2.984-2.2,2.201-2.2,2.2.985,2.2,2.2"/>
    <path class="cls-12" d="m85.712,231.769c0,1.216-.985,2.2-2.2,2.2s-2.201-.984-2.201-2.2.984-2.2,2.201-2.2,2.2.985,2.2,2.2Z"/>
    <path class="cls-32" d="m91.991,230.965c0,1.215-.985,2.2-2.2,2.2s-2.201-.985-2.201-2.2.985-2.201,2.201-2.201,2.2.985,2.2,2.201"/>
    <path class="cls-12" d="m91.991,230.965c0,1.215-.985,2.2-2.2,2.2s-2.201-.985-2.201-2.2.985-2.201,2.201-2.201,2.2.985,2.2,2.201Z"/>
    <path class="cls-32" d="m98.217,229.73c0,1.215-.985,2.201-2.201,2.201s-2.2-.986-2.2-2.201.984-2.201,2.2-2.201,2.201.985,2.201,2.201"/>
    <path class="cls-12" d="m98.217,229.73c0,1.215-.985,2.201-2.201,2.201s-2.2-.986-2.2-2.201.984-2.201,2.2-2.201,2.201.985,2.201,2.201Z"/>
    <path class="cls-32" d="m104.495,228.979c0,1.216-.984,2.2-2.2,2.2s-2.2-.984-2.2-2.2.985-2.2,2.2-2.2,2.2.985,2.2,2.2"/>
    <path class="cls-12" d="m104.495,228.979c0,1.216-.984,2.2-2.2,2.2s-2.2-.984-2.2-2.2.985-2.2,2.2-2.2,2.2.985,2.2,2.2Z"/>
    <path class="cls-32" d="m110.721,228.496c0,1.215-.984,2.201-2.2,2.201s-2.2-.986-2.2-2.201.985-2.2,2.2-2.2,2.2.985,2.2,2.2"/>
    <path class="cls-12" d="m110.721,228.496c0,1.215-.984,2.2-2.2,2.2s-2.2-.985-2.2-2.2.985-2.2,2.2-2.2,2.2.985,2.2,2.2Z"/>
    <path class="cls-32" d="m117.001,227.959c0,1.215-.985,2.2-2.2,2.2s-2.2-.985-2.2-2.2.984-2.201,2.2-2.201,2.2.985,2.2,2.201"/>
    <path class="cls-12" d="m117.001,227.959c0,1.215-.985,2.2-2.2,2.2s-2.2-.985-2.2-2.2.984-2.201,2.2-2.201,2.2.985,2.2,2.201Z"/>
    <path class="cls-32" d="m123.28,227.959c0,1.215-.984,2.2-2.201,2.2s-2.2-.985-2.2-2.2.985-2.201,2.2-2.201,2.201.985,2.201,2.201"/>
    <path class="cls-12" d="m123.28,227.959c0,1.215-.984,2.2-2.201,2.2s-2.2-.985-2.2-2.2.985-2.201,2.2-2.201,2.201.985,2.201,2.201Z"/>
    <path class="cls-32" d="m129.506,228.066c0,1.215-.984,2.2-2.2,2.2s-2.201-.985-2.201-2.2.985-2.201,2.201-2.201,2.2.985,2.2,2.201"/>
    <path class="cls-12" d="m129.506,228.066c0,1.215-.984,2.2-2.2,2.2s-2.201-.985-2.201-2.2.985-2.201,2.201-2.201,2.2.985,2.2,2.201Z"/>
    <path class="cls-32" d="m135.785,228.442c0,1.215-.985,2.2-2.2,2.2s-2.2-.985-2.2-2.2.984-2.2,2.2-2.2,2.2.985,2.2,2.2"/>
    <path class="cls-12" d="m135.785,228.442c0,1.215-.985,2.2-2.2,2.2s-2.2-.985-2.2-2.2.984-2.2,2.2-2.2,2.2.985,2.2,2.2Z"/>
    <path class="cls-32" d="m142.065,228.764c0,1.216-.984,2.201-2.2,2.201s-2.2-.985-2.2-2.201.985-2.2,2.2-2.2,2.2.985,2.2,2.2"/>
    <path class="cls-12" d="m142.065,228.764c0,1.216-.984,2.201-2.2,2.201s-2.2-.985-2.2-2.201.985-2.2,2.2-2.2,2.2.985,2.2,2.2Z"/>
    <path class="cls-32" d="m148.29,228.71c0,1.216-.984,2.201-2.2,2.201s-2.2-.985-2.2-2.201.985-2.2,2.2-2.2,2.2.985,2.2,2.2"/>
    <path class="cls-12" d="m148.29,228.71c0,1.216-.984,2.201-2.2,2.201s-2.2-.985-2.2-2.201.985-2.2,2.2-2.2,2.2.985,2.2,2.2Z"/>
    <path class="cls-32" d="m154.57,229.086c0,1.216-.985,2.2-2.201,2.2s-2.2-.984-2.2-2.2.984-2.2,2.2-2.2,2.201.984,2.201,2.2"/>
    <path class="cls-12" d="m154.57,229.086c0,1.216-.985,2.2-2.201,2.2s-2.2-.984-2.2-2.2.984-2.2,2.2-2.2,2.201.984,2.201,2.2Z"/>
    <path class="cls-32" d="m160.849,229.193c0,1.216-.984,2.2-2.2,2.2s-2.2-.984-2.2-2.2.985-2.201,2.2-2.201,2.2.985,2.2,2.201"/>
    <path class="cls-12" d="m160.849,229.193c0,1.216-.984,2.2-2.2,2.2s-2.2-.984-2.2-2.2.985-2.201,2.2-2.201,2.2.985,2.2,2.201Z"/>
    <path class="cls-32" d="m167.074,229.355c0,1.215-.984,2.2-2.2,2.2s-2.2-.985-2.2-2.2.985-2.201,2.2-2.201,2.2.985,2.2,2.201"/>
    <path class="cls-12" d="m167.074,229.355c0,1.215-.984,2.201-2.2,2.201s-2.2-.986-2.2-2.201.985-2.201,2.2-2.201,2.2.985,2.2,2.201Z"/>
    <path class="cls-32" d="m173.355,229.14c0,1.215-.985,2.201-2.2,2.201s-2.201-.986-2.201-2.201.985-2.2,2.201-2.2,2.2.984,2.2,2.2"/>
    <path class="cls-12" d="m173.355,229.14c0,1.215-.985,2.201-2.2,2.201s-2.201-.986-2.201-2.201.985-2.2,2.201-2.2,2.2.984,2.2,2.2Z"/>
    <path class="cls-32" d="m179.58,229.301c0,1.216-.984,2.2-2.2,2.2s-2.2-.984-2.2-2.2.984-2.201,2.2-2.201,2.2.985,2.2,2.201"/>
    <path class="cls-12" d="m179.58,229.301c0,1.216-.984,2.2-2.2,2.2s-2.2-.984-2.2-2.2.984-2.201,2.2-2.201,2.2.985,2.2,2.201Z"/>
  </g>
  <g class="cls-39">
    <polyline class="cls-19" points="27.201 227.272 33.48 228.292 39.76 227.111 45.986 224.159 52.265 216.967 58.491 206.555 64.77 195.016 71.05 183.209 77.275 173.709 83.555 167.859 89.834 165.337 96.059 166.303 102.34 167.806 108.565 171.455 114.845 174.46 121.124 177.251 127.349 180.311 133.629 182.189 139.908 183.477 146.135 184.443 152.413 185.731 158.693 186.322 164.919 186.912 171.197 187.717 177.424 187.664"/>
  </g>
  <g class="cls-24">
    <path class="cls-29" d="m29.358,227.208c0,1.216-.985,2.201-2.2,2.201s-2.201-.985-2.201-2.201.985-2.2,2.201-2.2,2.2.984,2.2,2.2"/>
    <path class="cls-18" d="m29.358,227.208c0,1.216-.985,2.201-2.2,2.201s-2.201-.985-2.201-2.201.985-2.2,2.201-2.2,2.2.984,2.2,2.2Z"/>
    <path class="cls-29" d="m35.638,228.227c0,1.216-.985,2.2-2.201,2.2s-2.2-.984-2.2-2.2.984-2.201,2.2-2.201,2.201.986,2.201,2.201"/>
    <path class="cls-18" d="m35.637,228.227c0,1.216-.985,2.2-2.201,2.2s-2.2-.984-2.2-2.2.985-2.201,2.2-2.201,2.201.986,2.201,2.201Z"/>
    <path class="cls-29" d="m41.917,227.046c0,1.216-.984,2.201-2.201,2.201s-2.2-.985-2.2-2.201.985-2.2,2.2-2.2,2.201.985,2.201,2.2"/>
    <path class="cls-18" d="m41.917,227.046c0,1.216-.984,2.201-2.201,2.201s-2.2-.985-2.2-2.201.985-2.2,2.2-2.2,2.201.985,2.201,2.2Z"/>
    <path class="cls-29" d="m48.143,224.095c0,1.215-.985,2.201-2.201,2.201s-2.2-.986-2.2-2.201.984-2.2,2.2-2.2,2.201.984,2.201,2.2"/>
    <path class="cls-18" d="m48.143,224.095c0,1.215-.985,2.201-2.201,2.201s-2.2-.986-2.2-2.201.984-2.2,2.2-2.2,2.201.984,2.201,2.2Z"/>
    <path class="cls-29" d="m54.422,216.903c0,1.216-.984,2.201-2.2,2.201s-2.201-.985-2.201-2.201.985-2.2,2.201-2.2,2.2.985,2.2,2.2"/>
    <path class="cls-18" d="m54.422,216.903c0,1.216-.984,2.201-2.2,2.201s-2.201-.985-2.201-2.201.985-2.2,2.201-2.2,2.2.985,2.2,2.2Z"/>
    <path class="cls-29" d="m60.648,206.491c0,1.216-.985,2.201-2.2,2.201s-2.201-.985-2.201-2.201.985-2.2,2.201-2.2,2.2.985,2.2,2.2"/>
    <path class="cls-18" d="m60.648,206.491c0,1.216-.985,2.201-2.2,2.201s-2.201-.985-2.201-2.201.985-2.2,2.201-2.2,2.2.985,2.2,2.2Z"/>
    <path class="cls-29" d="m66.927,194.952c0,1.215-.985,2.2-2.2,2.2s-2.2-.985-2.2-2.2.984-2.201,2.2-2.201,2.2.985,2.2,2.201"/>
    <path class="cls-18" d="m66.927,194.952c0,1.215-.985,2.2-2.2,2.2s-2.2-.985-2.2-2.2.984-2.201,2.2-2.201,2.2.985,2.2,2.201Z"/>
    <path class="cls-29" d="m73.207,183.145c0,1.216-.985,2.201-2.201,2.201s-2.2-.985-2.2-2.201.984-2.201,2.2-2.201,2.201.985,2.201,2.201"/>
    <path class="cls-18" d="m73.207,183.145c0,1.216-.985,2.201-2.201,2.201s-2.2-.985-2.2-2.201.984-2.201,2.2-2.201,2.201.985,2.201,2.201Z"/>
    <path class="cls-29" d="m79.432,173.645c0,1.216-.985,2.201-2.201,2.201s-2.2-.985-2.2-2.201.984-2.2,2.2-2.2,2.201.985,2.201,2.2"/>
    <path class="cls-18" d="m79.432,173.645c0,1.216-.985,2.201-2.201,2.201s-2.2-.985-2.2-2.201.984-2.2,2.2-2.2,2.201.984,2.201,2.2Z"/>
    <path class="cls-29" d="m85.712,167.795c0,1.216-.985,2.201-2.2,2.201s-2.201-.985-2.201-2.201.984-2.2,2.201-2.2,2.2.984,2.2,2.2"/>
    <path class="cls-18" d="m85.712,167.795c0,1.216-.985,2.201-2.2,2.201s-2.201-.985-2.201-2.201.984-2.2,2.201-2.2,2.2.984,2.2,2.2Z"/>
    <path class="cls-29" d="m91.991,165.272c0,1.216-.985,2.2-2.2,2.2s-2.201-.984-2.201-2.2.985-2.201,2.201-2.201,2.2.985,2.2,2.201"/>
    <path class="cls-18" d="m91.991,165.272c0,1.216-.985,2.2-2.2,2.2s-2.201-.984-2.201-2.2.985-2.201,2.201-2.201,2.2.985,2.2,2.201Z"/>
    <path class="cls-29" d="m98.217,166.238c0,1.216-.985,2.201-2.201,2.201s-2.2-.985-2.2-2.201.984-2.2,2.2-2.2,2.201.985,2.201,2.2"/>
    <path class="cls-18" d="m98.217,166.238c0,1.216-.985,2.201-2.201,2.201s-2.2-.985-2.2-2.201.984-2.2,2.2-2.2,2.201.985,2.201,2.2Z"/>
    <path class="cls-29" d="m104.495,167.741c0,1.216-.984,2.201-2.2,2.201s-2.2-.985-2.2-2.201.985-2.2,2.2-2.2,2.2.985,2.2,2.2"/>
    <path class="cls-18" d="m104.495,167.741c0,1.216-.984,2.201-2.2,2.201s-2.2-.985-2.2-2.201.985-2.2,2.2-2.2,2.2.985,2.2,2.2Z"/>
    <path class="cls-29" d="m110.721,171.391c0,1.215-.984,2.2-2.2,2.2s-2.2-.985-2.2-2.2.985-2.201,2.2-2.201,2.2.985,2.2,2.201"/>
    <path class="cls-18" d="m110.721,171.391c0,1.215-.984,2.2-2.2,2.2s-2.2-.985-2.2-2.2.985-2.201,2.2-2.201,2.2.985,2.2,2.201Z"/>
    <path class="cls-29" d="m117.001,174.397c0,1.215-.985,2.2-2.2,2.2s-2.2-.985-2.2-2.2.984-2.201,2.2-2.201,2.2.985,2.2,2.201"/>
    <path class="cls-18" d="m117.001,174.397c0,1.215-.985,2.2-2.2,2.2s-2.2-.985-2.2-2.2.984-2.201,2.2-2.201,2.2.985,2.2,2.201Z"/>
    <path class="cls-29" d="m123.28,177.188c0,1.215-.984,2.2-2.201,2.2s-2.2-.985-2.2-2.2.985-2.201,2.2-2.201,2.201.985,2.201,2.201"/>
    <path class="cls-18" d="m123.28,177.188c0,1.215-.984,2.2-2.201,2.2s-2.2-.985-2.2-2.2.985-2.201,2.2-2.201,2.201.985,2.201,2.201Z"/>
    <path class="cls-29" d="m129.506,180.247c0,1.215-.984,2.2-2.2,2.2s-2.201-.985-2.201-2.2.985-2.201,2.201-2.201,2.2.985,2.2,2.201"/>
    <path class="cls-18" d="m129.506,180.247c0,1.215-.984,2.2-2.2,2.2s-2.201-.985-2.201-2.2.985-2.201,2.201-2.201,2.2.985,2.2,2.201Z"/>
    <path class="cls-29" d="m135.785,182.125c0,1.215-.985,2.2-2.2,2.2s-2.2-.985-2.2-2.2.984-2.201,2.2-2.201,2.2.985,2.2,2.201"/>
    <path class="cls-18" d="m135.785,182.125c0,1.215-.985,2.2-2.2,2.2s-2.2-.985-2.2-2.2.984-2.201,2.2-2.201,2.2.985,2.2,2.201Z"/>
    <path class="cls-29" d="m142.065,183.413c0,1.215-.984,2.2-2.2,2.2s-2.2-.985-2.2-2.2.985-2.201,2.2-2.201,2.2.985,2.2,2.201"/>
    <path class="cls-18" d="m142.065,183.413c0,1.215-.984,2.2-2.2,2.2s-2.2-.985-2.2-2.2.985-2.201,2.2-2.201,2.2.985,2.2,2.201Z"/>
    <path class="cls-29" d="m148.29,184.379c0,1.216-.984,2.201-2.2,2.201s-2.2-.985-2.2-2.201.985-2.2,2.2-2.2,2.2.984,2.2,2.2"/>
    <path class="cls-18" d="m148.29,184.379c0,1.216-.984,2.201-2.2,2.201s-2.2-.985-2.2-2.201.985-2.2,2.2-2.2,2.2.984,2.2,2.2Z"/>
    <path class="cls-29" d="m154.57,185.667c0,1.216-.985,2.201-2.201,2.201s-2.2-.985-2.2-2.201.984-2.2,2.2-2.2,2.201.985,2.201,2.2"/>
    <path class="cls-18" d="m154.57,185.667c0,1.216-.985,2.201-2.201,2.201s-2.2-.985-2.2-2.201.984-2.2,2.2-2.2,2.201.985,2.201,2.2Z"/>
    <path class="cls-29" d="m160.849,186.257c0,1.216-.984,2.201-2.2,2.201s-2.2-.985-2.2-2.201.985-2.201,2.2-2.201,2.2.985,2.2,2.201"/>
    <path class="cls-18" d="m160.849,186.257c0,1.216-.984,2.201-2.2,2.201s-2.2-.985-2.2-2.201.985-2.201,2.2-2.201,2.2.985,2.2,2.201Z"/>
    <path class="cls-29" d="m167.074,186.848c0,1.215-.984,2.201-2.2,2.201s-2.2-.986-2.2-2.201.985-2.2,2.2-2.2,2.2.985,2.2,2.2"/>
    <path class="cls-18" d="m167.074,186.848c0,1.215-.984,2.201-2.2,2.201s-2.2-.986-2.2-2.201.985-2.2,2.2-2.2,2.2.985,2.2,2.2Z"/>
    <path class="cls-29" d="m173.355,187.653c0,1.215-.985,2.2-2.2,2.2s-2.201-.985-2.201-2.2.985-2.201,2.201-2.201,2.2.985,2.2,2.201"/>
    <path class="cls-18" d="m173.355,187.653c0,1.215-.985,2.2-2.2,2.2s-2.201-.985-2.201-2.2.985-2.201,2.201-2.201,2.2.985,2.2,2.201Z"/>
    <path class="cls-29" d="m179.58,187.599c0,1.215-.984,2.2-2.2,2.2s-2.2-.985-2.2-2.2.984-2.201,2.2-2.201,2.2.985,2.2,2.201"/>
    <path class="cls-18" d="m179.58,187.599c0,1.215-.984,2.2-2.2,2.2s-2.2-.985-2.2-2.2.984-2.201,2.2-2.201,2.2.985,2.2,2.201Z"/>
  </g>
  <text class="cls-2" transform="translate(16.053 256.064)"><tspan x="0" y="0">70</tspan></text>
  <text class="cls-2" transform="translate(16.053 235.79)"><tspan x="0" y="0">80</tspan></text>
  <text class="cls-2" transform="translate(16.053 215.516)"><tspan x="0" y="0">90</tspan></text>
  <text class="cls-2" transform="translate(12.717 195.242)"><tspan x="0" y="0">100</tspan></text>
  <text class="cls-2" transform="translate(12.717 174.968)"><tspan x="0" y="0">110</tspan></text>
  <text class="cls-2" transform="translate(12.717 154.695)"><tspan x="0" y="0">120</tspan></text>
  <text class="cls-2" transform="translate(25.701 263.204)"><tspan x="0" y="0">0</tspan></text>
  <text class="cls-2" transform="translate(42.855 263.204)"><tspan x="0" y="0">15</tspan></text>
  <text class="cls-2" transform="translate(61.677 263.204)"><tspan x="0" y="0">30</tspan></text>
  <text class="cls-2" transform="translate(80.493 263.204)"><tspan x="0" y="0">45</tspan></text>
  <text class="cls-2" transform="translate(99.315 263.204)"><tspan x="0" y="0">60</tspan></text>
  <text class="cls-2" transform="translate(118.137 263.204)"><tspan x="0" y="0">75</tspan></text>
  <text class="cls-2" transform="translate(136.953 263.204)"><tspan x="0" y="0">90</tspan></text>
  <text class="cls-2" transform="translate(154.107 263.204)"><tspan x="0" y="0">105</tspan></text>
  <text class="cls-2" transform="translate(172.929 263.204)"><tspan x="0" y="0">120</tspan></text>
  <text class="cls-2" transform="translate(7.408 227.105) rotate(-90)"><tspan x="0" y="0">Glucose (mg dl</tspan></text>
  <text class="cls-3" transform="translate(4.408 186.761) rotate(-90)"><tspan x="0" y="0">–1</tspan></text>
  <text class="cls-2" transform="translate(7.409 182.313) rotate(-90)"><tspan x="0" y="0">)</tspan></text>
  <text class="cls-2" transform="translate(88.92 272.779)"><tspan x="0" y="0">Time (min)</tspan></text>
  <line class="cls-14" x1="54.036" y1="149.235" x2="71.211" y2="149.235"/>
  <g class="cls-68">
    <path class="cls-32" d="m64.422,149.262c0,.979-.792,1.771-1.771,1.771s-1.771-.792-1.771-1.771.792-1.771,1.771-1.771,1.771.792,1.771,1.771"/>
    <path class="cls-12" d="m64.422,149.262c0,.979-.792,1.771-1.771,1.771s-1.771-.792-1.771-1.771.792-1.771,1.771-1.771,1.771.792,1.771,1.771Z"/>
  </g>
  <text class="cls-2" transform="translate(75.038 151.031)"><tspan x="0" y="0">LC diet</tspan></text>
  <line class="cls-19" x1="113.288" y1="149.235" x2="130.462" y2="149.235"/>
  <g>
    <path class="cls-29" d="m123.673,149.262c0,.979-.792,1.771-1.771,1.771s-1.771-.792-1.771-1.771.792-1.771,1.771-1.771,1.771.792,1.771,1.771"/>
    <path class="cls-18" d="m123.673,149.262c0,.979-.792,1.771-1.771,1.771s-1.771-.792-1.771-1.771.792-1.771,1.771-1.771,1.771.792,1.771,1.771Z"/>
  </g>
  <text class="cls-2" transform="translate(134.254 151.031)"><tspan x="0" y="0">LF diet</tspan></text>
  <rect class="cls-30" x="146.985" y="105.155" width="23.288" height="17.182"/>
  <g class="cls-61">
    <polyline class="cls-20" points="147.626 122.337 147.626 105.795 169.633 105.795 169.633 122.337"/>
  </g>
  <rect class="cls-31" x="112.052" y="109.637" width="23.289" height="12.7"/>
  <g class="cls-49">
    <polyline class="cls-16" points="112.693 122.337 112.693 110.277 134.699 110.277 134.699 122.337"/>
  </g>
  <rect class="cls-30" x="77.118" y="34.506" width="23.289" height="87.832"/>
  <g class="cls-4">
    <polyline class="cls-20" points="77.759 122.337 77.759 35.146 99.766 35.146 99.766 122.337"/>
  </g>
  <rect class="cls-31" x="42.185" y="46.032" width="23.29" height="76.306"/>
  <g class="cls-35">
    <polyline class="cls-16" points="42.826 122.337 42.826 46.672 64.833 46.672 64.833 122.337"/>
  </g>
  <line class="cls-13" x1="30.327" y1="122.337" x2="182.132" y2="122.337"/>
  <text class="cls-2" transform="translate(18.834 124.428)"><tspan x="0" y="0">0</tspan></text>
  <text class="cls-2" transform="translate(15.897 105.666)"><tspan x="0" y="0">20</tspan></text>
  <text class="cls-2" transform="translate(15.897 86.905)"><tspan x="0" y="0">40</tspan></text>
  <text class="cls-2" transform="translate(15.897 68.142)"><tspan x="0" y="0">60</tspan></text>
  <text class="cls-2" transform="translate(15.897 49.38)"><tspan x="0" y="0">80</tspan></text>
  <text class="cls-2" transform="translate(12.557 30.618)"><tspan x="0" y="0">100</tspan></text>
  <text class="cls-2" transform="translate(12.557 11.856)"><tspan x="0" y="0">120</tspan></text>
  <path class="cls-13" d="m30.541,9.747h-5.021m5.021,18.783h-5.021m5.021,18.783h-5.021m5.021,18.783h-5.021m5.021,18.783h-5.021m5.021,18.782h-5.021m5.021,18.677h-5.021m5.021.213V9.533"/>
  <line class="cls-17" x1="158.629" y1="104.515" x2="158.629" y2="105.155"/>
  <line class="cls-17" x1="158.629" y1="105.155" x2="158.629" y2="105.795"/>
  <line class="cls-17" x1="152.861" y1="104.515" x2="164.398" y2="104.515"/>
  <line class="cls-17" x1="152.861" y1="105.795" x2="164.398" y2="105.795"/>
  <polygon class="cls-28" points="160.232 106.649 161.193 104.729 162.155 106.649 160.232 106.649"/>
  <polygon class="cls-23" points="161.194 104.729 162.155 106.65 160.232 106.65 161.194 104.729"/>
  <polygon class="cls-28" points="155.104 103.661 156.066 101.74 157.028 103.661 155.104 103.661"/>
  <polygon class="cls-23" points="156.065 101.74 157.027 103.661 155.104 103.661 156.065 101.74"/>
  <polygon class="cls-28" points="152.54 107.183 153.502 105.262 154.464 107.183 152.54 107.183"/>
  <polygon class="cls-23" points="153.502 105.262 154.464 107.183 152.54 107.183 153.502 105.262"/>
  <polygon class="cls-28" points="162.796 106.436 163.757 104.515 164.719 106.436 162.796 106.436"/>
  <polygon class="cls-23" points="163.758 104.515 164.719 106.436 162.796 106.436 163.758 104.515"/>
  <polygon class="cls-28" points="155.104 110.171 156.066 108.25 157.028 110.171 155.104 110.171"/>
  <polygon class="cls-23" points="156.065 108.25 157.027 110.171 155.104 110.171 156.065 108.25"/>
  <polygon class="cls-28" points="157.668 107.503 158.629 105.582 159.591 107.503 157.668 107.503"/>
  <polygon class="cls-23" points="158.629 105.582 159.591 107.503 157.668 107.503 158.629 105.582"/>
  <polygon class="cls-28" points="155.104 106.863 156.066 104.942 157.028 106.863 155.104 106.863"/>
  <polygon class="cls-23" points="156.065 104.942 157.027 106.863 155.104 106.863 156.065 104.942"/>
  <polygon class="cls-28" points="160.232 104.301 161.193 102.38 162.155 104.301 160.232 104.301"/>
  <polygon class="cls-23" points="161.194 102.38 162.155 104.301 160.232 104.301 161.194 102.38"/>
  <polygon class="cls-28" points="157.668 101.314 158.629 99.393 159.591 101.314 157.668 101.314"/>
  <polygon class="cls-23" points="158.629 99.392 159.591 101.313 157.668 101.313 158.629 99.392"/>
  <polygon class="cls-28" points="157.668 103.234 158.629 101.313 159.591 103.234 157.668 103.234"/>
  <polygon class="cls-23" points="158.629 101.313 159.591 103.234 157.668 103.234 158.629 101.313"/>
  <polygon class="cls-28" points="162.796 105.155 163.757 103.234 164.719 105.155 162.796 105.155"/>
  <polygon class="cls-23" points="163.758 103.234 164.719 105.155 162.796 105.155 163.758 103.234"/>
  <polygon class="cls-28" points="149.977 106.329 150.938 104.408 151.9 106.329 149.977 106.329"/>
  <polygon class="cls-23" points="150.938 104.408 151.9 106.329 149.977 106.329 150.938 104.408"/>
  <polygon class="cls-28" points="152.54 105.902 153.502 103.981 154.464 105.902 152.54 105.902"/>
  <polygon class="cls-23" points="153.502 103.981 154.464 105.902 152.54 105.902 153.502 103.981"/>
  <polygon class="cls-28" points="155.104 108.144 156.066 106.223 157.028 108.144 155.104 108.144"/>
  <polygon class="cls-23" points="156.065 106.222 157.027 108.143 155.104 108.143 156.065 106.222"/>
  <polygon class="cls-28" points="160.232 109.744 161.193 107.823 162.155 109.744 160.232 109.744"/>
  <polygon class="cls-23" points="161.194 107.823 162.155 109.744 160.232 109.744 161.194 107.823"/>
  <polygon class="cls-28" points="157.668 109.21 158.629 107.289 159.591 109.21 157.668 109.21"/>
  <polygon class="cls-23" points="158.629 107.29 159.591 109.211 157.668 109.211 158.629 107.29"/>
  <polygon class="cls-28" points="165.361 106.222 166.322 104.301 167.283 106.222 165.361 106.222"/>
  <polygon class="cls-23" points="166.321 104.301 167.282 106.222 165.36 106.222 166.321 104.301"/>
  <polygon class="cls-28" points="160.232 108.25 161.193 106.329 162.155 108.25 160.232 108.25"/>
  <polygon class="cls-23" points="161.194 106.329 162.155 108.25 160.232 108.25 161.194 106.329"/>
  <polygon class="cls-28" points="155.104 100.353 156.066 98.432 157.028 100.353 155.104 100.353"/>
  <polygon class="cls-23" points="156.065 98.432 157.027 100.353 155.104 100.353 156.065 98.432"/>
  <line class="cls-17" x1="123.695" y1="108.997" x2="123.695" y2="109.637"/>
  <line class="cls-17" x1="123.695" y1="109.637" x2="123.695" y2="110.278"/>
  <line class="cls-17" x1="117.927" y1="108.997" x2="129.465" y2="108.997"/>
  <line class="cls-17" x1="117.927" y1="110.278" x2="129.465" y2="110.278"/>
  <polygon class="cls-28" points="116.325 112.412 117.286 110.491 118.248 112.412 116.325 112.412"/>
  <polygon class="cls-23" points="117.287 110.491 118.248 112.412 116.325 112.412 117.287 110.491"/>
  <polygon class="cls-28" points="124.017 111.238 124.979 109.317 125.94 111.238 124.017 111.238"/>
  <polygon class="cls-23" points="124.979 109.317 125.94 111.238 124.017 111.238 124.979 109.317"/>
  <polygon class="cls-28" points="126.58 111.558 127.542 109.637 128.504 111.558 126.58 111.558"/>
  <polygon class="cls-23" points="127.542 109.637 128.504 111.558 126.58 111.558 127.542 109.637"/>
  <polygon class="cls-28" points="118.889 112.412 119.851 110.491 120.812 112.412 118.889 112.412"/>
  <polygon class="cls-23" points="119.851 110.491 120.812 112.412 118.889 112.412 119.851 110.491"/>
  <polygon class="cls-28" points="121.452 111.345 122.414 109.424 123.376 111.345 121.452 111.345"/>
  <polygon class="cls-23" points="122.414 109.424 123.375 111.345 121.452 111.345 122.414 109.424"/>
  <polygon class="cls-28" points="118.889 109.21 119.851 107.289 120.812 109.21 118.889 109.21"/>
  <polygon class="cls-23" points="119.851 107.29 120.812 109.211 118.889 109.211 119.851 107.29"/>
  <polygon class="cls-28" points="124.017 109.851 124.979 107.93 125.94 109.851 124.017 109.851"/>
  <polygon class="cls-23" points="124.979 107.93 125.94 109.851 124.017 109.851 124.979 107.93"/>
  <polygon class="cls-28" points="118.889 107.93 119.851 106.009 120.812 107.93 118.889 107.93"/>
  <polygon class="cls-23" points="119.851 106.009 120.812 107.93 118.889 107.93 119.851 106.009"/>
  <polygon class="cls-28" points="121.452 113.16 122.414 111.239 123.376 113.16 121.452 113.16"/>
  <polygon class="cls-23" points="122.414 111.238 123.375 113.159 121.452 113.159 122.414 111.238"/>
  <polygon class="cls-28" points="129.145 110.278 130.106 108.357 131.068 110.278 129.145 110.278"/>
  <polygon class="cls-23" points="130.106 108.357 131.068 110.278 129.145 110.278 130.106 108.357"/>
  <polygon class="cls-28" points="129.145 111.879 130.106 109.958 131.068 111.879 129.145 111.879"/>
  <polygon class="cls-23" points="130.106 109.958 131.068 111.879 129.145 111.879 130.106 109.958"/>
  <polygon class="cls-28" points="129.145 113.16 130.106 111.239 131.068 113.16 129.145 113.16"/>
  <polygon class="cls-23" points="130.106 111.238 131.068 113.159 129.145 113.159 130.106 111.238"/>
  <polygon class="cls-28" points="116.325 114.013 117.286 112.092 118.248 114.013 116.325 114.013"/>
  <polygon class="cls-23" points="117.287 112.092 118.248 114.013 116.325 114.013 117.287 112.092"/>
  <polygon class="cls-28" points="124.017 108.25 124.979 106.329 125.94 108.25 124.017 108.25"/>
  <polygon class="cls-23" points="124.979 106.329 125.94 108.25 124.017 108.25 124.979 106.329"/>
  <polygon class="cls-28" points="122.736 106.329 123.695 104.408 124.658 106.329 122.736 106.329"/>
  <polygon class="cls-23" points="123.695 104.408 124.657 106.329 122.735 106.329 123.695 104.408"/>
  <polygon class="cls-28" points="126.58 108.891 127.542 106.97 128.504 108.891 126.58 108.891"/>
  <polygon class="cls-23" points="127.542 106.97 128.504 108.891 126.58 108.891 127.542 106.97"/>
  <polygon class="cls-28" points="118.889 110.812 119.851 108.891 120.812 110.812 118.889 110.812"/>
  <polygon class="cls-23" points="119.851 108.891 120.812 110.812 118.889 110.812 119.851 108.891"/>
  <polygon class="cls-28" points="126.58 114.12 127.542 112.199 128.504 114.12 126.58 114.12"/>
  <polygon class="cls-23" points="127.542 112.199 128.504 114.12 126.58 114.12 127.542 112.199"/>
  <polygon class="cls-28" points="122.736 101.847 123.695 99.926 124.658 101.847 122.736 101.847"/>
  <polygon class="cls-23" points="123.695 99.926 124.657 101.847 122.735 101.847 123.695 99.926"/>
  <polygon class="cls-28" points="124.017 113.052 124.979 111.131 125.94 113.052 124.017 113.052"/>
  <polygon class="cls-23" points="124.979 111.131 125.94 113.052 124.017 113.052 124.979 111.131"/>
  <line class="cls-17" x1="88.763" y1="33.439" x2="88.763" y2="34.506"/>
  <line class="cls-17" x1="88.763" y1="34.506" x2="88.763" y2="35.573"/>
  <line class="cls-17" x1="82.994" y1="33.439" x2="94.532" y2="33.439"/>
  <line class="cls-17" x1="82.994" y1="35.573" x2="94.532" y2="35.573"/>
  <g class="cls-11">
    <path class="cls-27" d="m89.724,29.918c0,.53-.43.96-.961.96s-.962-.43-.962-.96.43-.96.962-.96.961.429.961.96"/>
    <path class="cls-23" d="m89.724,29.918c0,.53-.43.96-.961.96s-.962-.43-.962-.96.43-.96.962-.96.961.429.961.96Z"/>
    <path class="cls-27" d="m87.16,36.96c0,.531-.43.96-.961.96s-.962-.429-.962-.96.431-.96.962-.96.961.43.961.96"/>
    <path class="cls-23" d="m87.16,36.96c0,.531-.43.96-.961.96s-.962-.429-.962-.96.431-.96.962-.96.961.43.961.96Z"/>
    <path class="cls-27" d="m89.724,41.55c0,.531-.43.96-.961.96s-.962-.429-.962-.96.43-.96.962-.96.961.429.961.96"/>
    <path class="cls-23" d="m89.724,41.55c0,.531-.43.96-.961.96s-.962-.429-.962-.96.43-.96.962-.96.961.429.961.96Z"/>
    <path class="cls-27" d="m87.16,34.506c0,.531-.43.961-.961.961s-.962-.43-.962-.961.431-.96.962-.96.961.43.961.96"/>
    <path class="cls-23" d="m87.16,34.506c0,.531-.43.96-.961.96s-.962-.429-.962-.96.431-.96.962-.96.961.43.961.96Z"/>
    <path class="cls-27" d="m84.596,30.984c0,.531-.43.96-.961.96s-.962-.429-.962-.96.431-.96.962-.96.961.43.961.96"/>
    <path class="cls-23" d="m84.596,30.984c0,.531-.43.96-.961.96s-.962-.429-.962-.96.431-.96.962-.96.961.429.961.96Z"/>
    <path class="cls-27" d="m89.724,31.305c0,.53-.43.96-.961.96s-.962-.43-.962-.96.43-.96.962-.96.961.43.961.96"/>
    <path class="cls-23" d="m89.724,31.305c0,.53-.43.96-.961.96s-.962-.43-.962-.96.43-.96.962-.96.961.429.961.96Z"/>
    <path class="cls-27" d="m89.724,46.352c0,.531-.43.961-.961.961s-.962-.43-.962-.961.43-.96.962-.96.961.43.961.96"/>
    <path class="cls-23" d="m89.724,46.352c0,.531-.43.96-.961.96s-.962-.429-.962-.96.43-.96.962-.96.961.43.961.96Z"/>
    <path class="cls-27" d="m89.724,38.135c0,.531-.43.96-.961.96s-.962-.429-.962-.96.43-.96.962-.96.961.43.961.96"/>
    <path class="cls-23" d="m89.724,38.135c0,.53-.43.96-.961.96s-.962-.43-.962-.96.43-.96.962-.96.961.429.961.96Z"/>
    <path class="cls-27" d="m89.724,25.542c0,.53-.43.961-.961.961s-.962-.431-.962-.961.43-.96.962-.96.961.43.961.96"/>
    <path class="cls-23" d="m89.724,25.542c0,.53-.43.961-.961.961s-.962-.431-.962-.961.43-.96.962-.96.961.43.961.96Z"/>
    <path class="cls-27" d="m92.288,30.878c0,.53-.431.96-.961.96s-.962-.43-.962-.96.431-.96.962-.96.961.429.961.96"/>
    <path class="cls-23" d="m92.288,30.878c0,.53-.431.96-.961.96s-.962-.43-.962-.96.431-.96.962-.96.961.429.961.96Z"/>
    <path class="cls-27" d="m94.852,33.545c0,.531-.431.96-.961.96s-.962-.429-.962-.96.431-.96.962-.96.961.43.961.96"/>
    <path class="cls-23" d="m94.852,33.545c0,.531-.431.96-.961.96s-.962-.429-.962-.96.431-.96.962-.96.961.43.961.96Z"/>
    <path class="cls-27" d="m87.16,30.451c0,.531-.43.96-.961.96s-.962-.429-.962-.96.431-.96.962-.96.961.43.961.96"/>
    <path class="cls-23" d="m87.16,30.451c0,.531-.43.96-.961.96s-.962-.429-.962-.96.431-.96.962-.96.961.43.961.96Z"/>
    <path class="cls-27" d="m84.596,33.439c0,.531-.43.96-.961.96s-.962-.429-.962-.96.431-.96.962-.96.961.429.961.96"/>
    <path class="cls-23" d="m84.596,33.439c0,.531-.43.96-.961.96s-.962-.429-.962-.96.431-.96.962-.96.961.429.961.96Z"/>
    <path class="cls-27" d="m89.724,34.079c0,.531-.43.96-.961.96s-.962-.429-.962-.96.43-.96.962-.96.961.429.961.96"/>
    <path class="cls-23" d="m89.724,34.079c0,.531-.43.96-.961.96s-.962-.429-.962-.96.43-.96.962-.96.961.429.961.96Z"/>
    <path class="cls-27" d="m92.288,37.601c0,.53-.431.961-.961.961s-.962-.431-.962-.961.431-.96.962-.96.961.43.961.96"/>
    <path class="cls-23" d="m92.288,37.601c0,.53-.431.96-.961.96s-.962-.43-.962-.96.431-.96.962-.96.961.43.961.96Z"/>
    <path class="cls-27" d="m92.288,34.613c0,.53-.431.96-.961.96s-.962-.43-.962-.96.431-.96.962-.96.961.43.961.96"/>
    <path class="cls-23" d="m92.288,34.613c0,.53-.431.96-.961.96s-.962-.43-.962-.96.431-.96.962-.96.961.43.961.96Z"/>
    <path class="cls-27" d="m89.724,35.467c0,.53-.43.96-.961.96s-.962-.43-.962-.96.43-.961.962-.961.961.43.961.961"/>
    <path class="cls-23" d="m89.724,35.466c0,.531-.43.96-.961.96s-.962-.429-.962-.96.43-.96.962-.96.961.43.961.96Z"/>
    <path class="cls-27" d="m94.852,30.984c0,.531-.431.96-.961.96s-.962-.429-.962-.96.431-.96.962-.96.961.43.961.96"/>
    <path class="cls-23" d="m94.852,30.984c0,.531-.431.96-.961.96s-.962-.429-.962-.96.431-.96.962-.96.961.429.961.96Z"/>
    <path class="cls-27" d="m89.724,39.522c0,.53-.43.961-.961.961s-.962-.431-.962-.961.43-.96.962-.96.961.43.961.96"/>
    <path class="cls-23" d="m89.724,39.522c0,.53-.43.961-.961.961s-.962-.431-.962-.961.43-.96.962-.96.961.43.961.96Z"/>
  </g>
  <line class="cls-17" x1="53.829" y1="44.005" x2="53.829" y2="46.032"/>
  <line class="cls-17" x1="53.829" y1="46.032" x2="53.829" y2="48.06"/>
  <line class="cls-17" x1="48.061" y1="44.005" x2="59.599" y2="44.005"/>
  <line class="cls-17" x1="48.061" y1="48.06" x2="59.599" y2="48.06"/>
  <g class="cls-56">
    <path class="cls-27" d="m54.684,25.222c0,.471-.383.854-.855.854s-.854-.383-.854-.854.382-.854.854-.854.855.382.855.854"/>
    <path class="cls-23" d="m54.684,25.222c0,.471-.383.854-.855.854s-.854-.383-.854-.854.382-.854.854-.854.855.382.855.854Z"/>
    <path class="cls-27" d="m55.966,53.396c0,.472-.382.854-.854.854s-.855-.382-.855-.854.383-.854.855-.854.854.383.854.854"/>
    <path class="cls-23" d="m55.966,53.396c0,.472-.382.854-.854.854s-.855-.382-.855-.854.383-.854.855-.854.854.382.854.854Z"/>
    <path class="cls-27" d="m54.684,58.091c0,.472-.383.854-.855.854s-.854-.382-.854-.854.382-.854.854-.854.855.382.855.854"/>
    <path class="cls-23" d="m54.684,58.091c0,.471-.383.854-.855.854s-.854-.383-.854-.854.382-.854.854-.854.855.382.855.854Z"/>
    <path class="cls-27" d="m55.966,39.949c0,.472-.382.854-.854.854s-.855-.382-.855-.854.383-.854.855-.854.854.382.854.854"/>
    <path class="cls-23" d="m55.966,39.949c0,.472-.382.854-.854.854s-.855-.382-.855-.854.383-.854.855-.854.854.382.854.854Z"/>
    <path class="cls-27" d="m55.966,52.115c0,.471-.382.854-.854.854s-.855-.383-.855-.854.383-.854.855-.854.854.382.854.854"/>
    <path class="cls-23" d="m55.966,52.115c0,.471-.382.854-.854.854s-.855-.383-.855-.854.383-.854.855-.854.854.382.854.854Z"/>
    <path class="cls-27" d="m53.402,34.933c0,.471-.382.854-.854.854s-.855-.383-.855-.854.382-.854.855-.854.854.382.854.854"/>
    <path class="cls-23" d="m53.402,34.933c0,.471-.382.854-.854.854s-.855-.383-.855-.854.383-.854.855-.854.854.382.854.854Z"/>
    <path class="cls-27" d="m53.402,53.716c0,.472-.382.854-.854.854s-.855-.382-.855-.854.382-.854.855-.854.854.382.854.854"/>
    <path class="cls-23" d="m53.402,53.716c0,.471-.382.854-.854.854s-.855-.383-.855-.854.383-.854.855-.854.854.382.854.854Z"/>
    <path class="cls-27" d="m50.839,50.087c0,.472-.383.854-.855.854s-.854-.382-.854-.854.382-.854.854-.854.855.382.855.854"/>
    <path class="cls-23" d="m50.839,50.087c0,.472-.383.854-.855.854s-.854-.382-.854-.854.382-.854.854-.854.855.382.855.854Z"/>
    <path class="cls-27" d="m50.839,38.775c0,.472-.383.854-.855.854s-.854-.382-.854-.854.382-.854.854-.854.855.383.855.854"/>
    <path class="cls-23" d="m50.839,38.775c0,.472-.383.854-.855.854s-.854-.382-.854-.854.382-.854.854-.854.855.382.855.854Z"/>
    <path class="cls-27" d="m54.684,37.494c0,.472-.383.854-.855.854s-.854-.382-.854-.854.382-.854.854-.854.855.382.855.854"/>
    <path class="cls-23" d="m54.684,37.494c0,.472-.383.854-.855.854s-.854-.382-.854-.854.382-.854.854-.854.855.382.855.854Z"/>
    <path class="cls-27" d="m55.966,50.514c0,.472-.382.854-.854.854s-.855-.382-.855-.854.383-.854.855-.854.854.382.854.854"/>
    <path class="cls-23" d="m55.966,50.514c0,.472-.382.854-.854.854s-.855-.382-.855-.854.383-.854.855-.854.854.382.854.854Z"/>
    <path class="cls-27" d="m55.966,46.246c0,.472-.382.854-.854.854s-.855-.382-.855-.854.383-.854.855-.854.854.382.854.854"/>
    <path class="cls-23" d="m55.966,46.246c0,.471-.382.854-.854.854s-.855-.383-.855-.854.383-.854.855-.854.854.382.854.854Z"/>
    <path class="cls-27" d="m53.402,39.629c0,.471-.382.854-.854.854s-.855-.383-.855-.854.382-.854.855-.854.854.382.854.854"/>
    <path class="cls-23" d="m53.402,39.629c0,.471-.382.854-.854.854s-.855-.383-.855-.854.383-.854.855-.854.854.382.854.854Z"/>
    <path class="cls-27" d="m53.402,45.178c0,.472-.382.854-.854.854s-.855-.382-.855-.854.382-.854.855-.854.854.382.854.854"/>
    <path class="cls-23" d="m53.402,45.178c0,.472-.382.854-.854.854s-.855-.382-.855-.854.383-.853.855-.853.854.382.854.853Z"/>
    <path class="cls-27" d="m53.402,50.621c0,.472-.382.854-.854.854s-.855-.382-.855-.854.382-.854.855-.854.854.383.854.854"/>
    <path class="cls-23" d="m53.402,50.621c0,.472-.382.854-.854.854s-.855-.382-.855-.854.383-.854.855-.854.854.382.854.854Z"/>
    <path class="cls-27" d="m53.402,47.419c0,.472-.382.854-.854.854s-.855-.382-.855-.854.382-.854.855-.854.854.382.854.854"/>
    <path class="cls-23" d="m53.402,47.419c0,.471-.382.854-.854.854s-.855-.383-.855-.854.383-.854.855-.854.854.382.854.854Z"/>
    <path class="cls-27" d="m50.839,52.435c0,.472-.383.854-.855.854s-.854-.382-.854-.854.382-.854.854-.854.855.382.855.854"/>
    <path class="cls-23" d="m50.839,52.435c0,.472-.383.854-.855.854s-.854-.382-.854-.854.382-.854.854-.854.855.382.855.854Z"/>
    <path class="cls-27" d="m58.53,50.301c0,.472-.383.854-.855.854s-.854-.382-.854-.854.382-.854.854-.854.855.383.855.854"/>
    <path class="cls-23" d="m58.53,50.301c0,.471-.383.854-.854.854s-.855-.383-.855-.854.382-.854.855-.854.854.382.854.854Z"/>
    <path class="cls-27" d="m55.966,34.293c0,.471-.382.854-.854.854s-.855-.383-.855-.854.383-.854.855-.854.854.382.854.854"/>
    <path class="cls-23" d="m55.966,34.293c0,.471-.382.854-.854.854s-.855-.383-.855-.854.383-.854.855-.854.854.382.854.854Z"/>
    <path class="cls-27" d="m54.684,60.653c0,.472-.383.854-.855.854s-.854-.382-.854-.854.382-.854.854-.854.855.382.855.854"/>
    <path class="cls-23" d="m54.684,60.653c0,.472-.383.854-.855.854s-.854-.382-.854-.854.382-.854.854-.854.855.382.855.854Z"/>
  </g>
  <text class="cls-2" transform="translate(7.859 73.04) rotate(-90)"><tspan x="0" y="0">CGM</tspan></text>
  <text class="cls-2" transform="translate(42.158 130.674)"><tspan x="0" y="0">Mean glucose (mg dl</tspan></text>
  <text class="cls-3" transform="translate(97.901 127.674)"><tspan x="0" y="0">–1</tspan></text>
  <text class="cls-2" transform="translate(102.354 130.674)"><tspan x="0" y="0">)</tspan></text>
  <text class="cls-2" transform="translate(122.775 130.674)"><tspan x="0" y="0">CV glucose (%)</tspan></text>
  <text class="cls-5" transform="translate(2.262 9.696)"><tspan x="0" y="0">a</tspan></text>
  <text class="cls-5" transform="translate(2.262 148.927)"><tspan x="0" y="0">b</tspan></text>
  <text class="cls-5" transform="translate(2.262 290.32)"><tspan x="0" y="0">c</tspan></text>
  <path class="cls-28" d="m60.234,16.714v1.662h-.516v-4.396h1.208c.471,0,.835.114,1.093.343.259.229.388.552.388.969s-.144.759-.431,1.024c-.287.266-.675.398-1.164.398h-.579Zm0-2.269v1.803h.54c.355,0,.627-.081.814-.244.187-.162.28-.392.28-.688,0-.581-.343-.871-1.03-.871h-.604Z"/>
  <text class="cls-1" transform="translate(63.331 18.376)"><tspan x="0" y="0" xml:space="preserve"> &lt; 0.0001</tspan></text>
  <path class="cls-28" d="m128.579,92.632v1.662h-.515v-4.396h1.208c.47,0,.834.114,1.093.343.258.229.388.552.388.969s-.144.759-.431,1.024-.675.398-1.164.398h-.58Zm0-2.269v1.803h.54c.356,0,.627-.081.814-.244.187-.162.281-.392.281-.688,0-.581-.343-.871-1.03-.871h-.604Z"/>
  <text class="cls-1" transform="translate(133.421 94.294)"><tspan x="0" y="0">&lt; 0.0001</tspan></text>
</svg>