<?xml version="1.0" encoding="UTF-8"?>
<svg id="_레이어_1" data-name="레이어 1" xmlns="http://www.w3.org/2000/svg" viewBox="0 0 388.464 431.442">
  <defs>
    <style>
      .cls-1 {
        fill: none;
        stroke: #231f20;
        stroke-miterlimit: 10;
      }

      .cls-2 {
        font-size: 10px;
      }

      .cls-2, .cls-3 {
        font-family: AppleSDGothicNeoB00, AppleSDGothicNeoB00;
      }

      .cls-2, .cls-3, .cls-4 {
        fill: #231f20;
      }

      .cls-5, .cls-4 {
        stroke-width: 0px;
      }

      .cls-3 {
        font-size: 12px;
      }
    </style>
  </defs>
  <text class="cls-3" transform="translate(20.639 71.528)"><tspan x="0" y="0">Activator 세포</tspan></text>
  <text class="cls-3" transform="translate(0 112.215)"><tspan x="0" y="0">Peritoneal Exudate 세포</tspan><tspan x="0" y="14.4">(75-85% 대식세포)</tspan></text>
  <text class="cls-3" transform="translate(248.553 116.475)"><tspan x="0" y="0">림프절 세포</tspan></text>
  <text class="cls-3" transform="translate(244.091 177.357)"><tspan x="0" y="0">Adherence 컬럼을 이용한</tspan><tspan x="0" y="14.4">T세포 분리 (37도 60분)</tspan></text>
  <text class="cls-3" transform="translate(236.09 243.73)"><tspan x="0" y="0">T 림프구가 풍부한 PEL 과 LNLs</tspan></text>
  <text class="cls-3" transform="translate(0 171.828)"><tspan x="0" y="0">유리 부착 대식세포</tspan></text>
  <text class="cls-3" transform="translate(0 229.33)"><tspan x="0" y="0">Mitomycin C + 항체</tspan><tspan x="0" y="14.4">37도, 60분</tspan></text>
  <text class="cls-3" transform="translate(52.882 279.041)"><tspan x="0" y="0">4회 세척</tspan></text>
  <text class="cls-3" transform="translate(240.102 71.528)"><tspan x="0" y="0">Indicator 세포</tspan></text>
  <text class="cls-3" transform="translate(93.451 322.283)"><tspan x="0" y="0">대식세포와 림프구를 혼합하고</tspan><tspan x="0" y="14.4">37도에서 48 혹은 72시간 배양</tspan><tspan x="0" y="28.8">마지막 18시간 동안 배양액에 [3H] 첨가</tspan></text>
  <g>
    <path class="cls-5" d="m123.436,41.23c.548.384,1.087.78,1.63,1.171.028-.03.057-.059.085-.089-.173-.201-.347-.402-.52-.602.01-.011.02-.023.03-.034.459.269.894.598,1.381.795.839.339,1.719.575,2.568.894.534.2,1.04.471,1.56.709.154.071.31.136.514.125-.622-.377-1.243-.754-1.865-1.132.018-.041.037-.083.055-.124,2.376,1.019,4.846,1.68,7.425,1.982-.589-.255-1.179-.51-1.768-.766.011-.025.022-.051.033-.076.98.21,1.96.419,3.007.643-.09-.117-.129-.167-.19-.245.566.108,1.101.209,1.636.311.01-.029.02-.057.03-.086-1.378-.669-2.756-1.338-4.135-2.007.011-.024.021-.048.032-.072l3.728,1.344c.013-.028.027-.057.04-.085-.328-.18-.655-.36-.983-.54.009-.022.017-.044.026-.066,1.806.428,3.612.857,5.393,1.279-1.988-1.578-3.995-3.171-6.001-4.763.017-.021.034-.042.05-.063,1.155.461,2.31.922,3.465,1.383.019-.038.039-.076.058-.113-.609-.444-1.218-.887-1.827-1.331l.052-.086c1.086.525,2.171,1.049,3.257,1.574-1.94-1.569-3.937-3.048-6.074-4.326-2.15-1.285-4.4-2.365-6.811-3.288.723,0,3.576,1.311,5.711,2.463,1.813.978,3.586,2.031,5.461,3.098-.595-.777-1.125-1.469-1.655-2.162.014-.009.028-.017.042-.026l2.979,2.329c.04-.041.08-.082.12-.124-.712-.768-1.423-1.536-2.135-2.304.019-.025.038-.049.057-.074.973.68,1.945,1.359,2.943,2.056-1.253-1.523-2.482-3.018-3.712-4.512.014-.012.029-.025.043-.037.193.2.385.399.578.599.037-.033.074-.065.11-.098-.8-.956-1.599-1.913-2.399-2.869l.034-.066c.316.183.632.367.955.554v-.207c5.372,1.149,10.544,2.82,15.435,5.339-.139-.084-.276-.173-.417-.252-2.576-1.451-5.302-2.541-8.115-3.439-2.206-.704-4.416-1.384-6.698-1.798-.367-.067-.631-.253-.868-.558-.916-1.177-2.134-2.019-3.323-2.887-.103-.075-.21-.144-.282-.279.309.164.624.318.925.494.333.194.659.403.98.616.303.201.596.417.91.604-1.141-1.51-2.604-2.65-4.213-3.622.024-.038.049-.076.073-.114,1.137.587,2.274,1.174,3.41,1.76.025-.034.051-.067.076-.101-.916-.68-1.795-1.419-2.759-2.023-.97-.608-2.024-1.082-3.122-1.657.737.178,1.404.338,2.071.499-1.381-.575-2.77-1.119-4.274-1.426l2.149-.279c-.001-.026-.003-.051-.004-.077-.635-.119-1.271-.238-1.969-.368.159-.175.269-.296.432-.477-.465.057-.867.106-1.26.153.537-.588,1.047-1.146,1.556-1.704-.036-.047-.073-.094-.109-.141-.245.128-.49.256-.735.384-.018-.029-.036-.057-.054-.086.362-.256.723-.513,1.085-.769-.01-.022-.021-.044-.031-.066-.106.045-.213.09-.411.173.402-.604.754-1.131,1.105-1.659l-.081-.093c-.167.106-.334.212-.5.318-.02-.018-.041-.036-.061-.053.448-.575.88-1.163,1.348-1.721,1.912-2.277,3.792-4.583,5.77-6.801,1.161-1.301,2.586-2.33,4.096-3.242-.271.268-.552.526-.809.807-.267.292-.509.606-.705.972,1.533-.974,3.066-1.947,4.599-2.921.027.029.054.059.081.088-.197.15-.393.3-.59.45l.123.151c1.709-1.151,3.616-1.8,5.611-2.223-.007-.05-.014-.101-.021-.151-.619.047-1.241.07-1.856.147-.612.076-1.218.205-1.86.215.239-.129.479-.258.718-.388-2.201.398-4.296,1.097-6.372,1.944.889-.683,1.778-1.366,2.667-2.05-.016-.037-.031-.073-.047-.11-1.291.532-2.582,1.064-3.873,1.596-.011-.014-.022-.027-.033-.041.508-.376,1.017-.753,1.525-1.129-.019-.032-.039-.065-.058-.097-5.5,2.483-10.897,5.145-15.719,8.993.339-.472.632-.903.95-1.315.322-.417.669-.816.977-1.251-1.771,1.321-3.241,2.96-4.754,4.551l-.098-.078c.72-.917,1.441-1.834,2.172-2.765-.124.088-.251.166-.363.261-2.321,1.964-4.505,4.063-6.262,6.561-1.173,1.668-2.164,3.436-2.667,5.437-.256,1.018-.236,2.045-.016,3.06.065.301.269.593.471.839.397.482.714.993.846,1.635-.127.046-.242.088-.364.132-.081-.132-.153-.25-.225-.369-.054.046-.109.092-.163.138.692,3.732,2.014,7.127,5.104,9.537.095-.007.119-.005.12-.009.017-.062.03-.125.051-.214.401.227.792.448,1.183.669.019-.023.038-.047.057-.07-.208-.222-.427-.434-.619-.669-.189-.231-.351-.485-.511-.752.779.762,1.759,1.146,2.849,1.578-.162-.248-.263-.403-.364-.558,1.135.876,2.48,1.216,3.832,1.538-.008.037-.016.074-.024.11-.663-.106-1.328-.204-1.989-.321-.537-.095-1.069-.219-1.605-.318-.075-.014-.162.038-.246.058-.192-.12-.382-.239-.572-.358-.036.042-.072.084-.108.126.289.366.579.733.868,1.099-.023.029-.046.059-.069.088-.124-.052-.251-.099-.371-.158-.535-.264-1.066-.539-1.604-.797-.552-.265-1.227-.394-1.642-.796-.915-.886-1.763-1.859-2.514-2.888-.479-.656-.737-1.475-1.091-2.222-.127-.268-.293-.529-.363-.812-.24-.966-.433-1.943-.667-2.91-.193-.8-.428-1.589-.629-2.387-.144-.572-.175-1.215-.954-1.35.198.043.396.086.537.116,0-.723-.07-1.441.014-2.139.224-1.866.964-3.55,1.994-5.107,1.579-2.389,3.504-4.483,5.643-6.367,1.348-1.187,2.767-2.302,4.225-3.352,1.892-1.364,3.909-2.535,6.028-3.52.142-.066.403-.176.394-.221-.087-.42.314-.334.473-.487.06-.058.149-.084.221-.129.242-.152.308-.321.071-.544-.208-.196-.396-.413-.604-.608-.661-.619-.769-1.244-.333-2.036.509-.922,1.218-1.666,2.117-2.203,1.173-.7,2.36-.712,3.508.081.576.398,1.147.805,1.702,1.231.336.258.656.366,1.048.136.1-.059.242-.046.388-.07-.034.169-.06.295-.099.484.311-.108.559-.194.842-.293-.02.129-.033.211-.043.276.711-.261,1.403-.516,2.095-.77.011.034.022.069.034.103-.114.124-.228.249-.378.412h3.094l.011.098-1.279.359c.006.022.013.044.019.066h3.059c-.02.076-.047.176-.08.299,2.588.531,5.128,1.114,7.546,2.154h-1.301c1.807.753,3.693,1.297,5.369,2.34-.296-.028-.592-.056-.887-.084,1.474.914,3.007,1.674,4.314,2.94-.703-.296-1.312-.553-1.921-.81-.024.033-.047.065-.071.098.052.026.111.044.156.08,1.239.991,2.509,1.945,3.707,2.984,1.804,1.564,3.573,3.169,5.327,4.789,1.641,1.515,3.551,2.405,5.757,2.724,1.895.274,3.79.562,5.67.924,3.526.681,6.77,2.073,9.739,4.088,2.332,1.583,4.364,3.51,6.255,5.591,2.762,3.04,4.948,6.465,6.792,10.119,1.694,3.358,2.817,6.9,3.394,10.615.555,3.576.324,7.125-.357,10.665-.615,3.197-1.705,6.183-3.57,8.88-1.968,2.845-4.507,4.902-7.881,5.78-1.557.406-3.158.665-4.751.91-2.235.344-4.346,1.098-6.467,1.828-.912.314-.91.321-.758-.635-.13.039-.25.069-.366.112-.536.199-1.069.404-1.605.602-.583.215-.776.059-.686-.559.032-.221.091-.438.157-.749-1.049.379-2.023.731-2.997,1.083-.044-.048-.087-.096-.131-.144.236-.632.471-1.264.719-1.926-6.032.383-12.048.744-17.996-.596-.114.331-.219.637-.325.943-.016-.005-.033-.01-.049-.015.047-.357.094-.714.141-1.071-.055-.013-.109-.027-.164-.04-.218.503-.436,1.007-.654,1.51-.029-.007-.057-.013-.086-.02v-1.147c-2.101,2.11-4.77,2.684-7.422,3.508.032-.331.055-.561.082-.843-1.063.124-2.018.453-2.967.939,0-.194.005-.307,0-.419-.04-.735-.307-.93-.988-.67-.49.187-.957.434-1.529.697,0-.307-.026-.571.005-.828.064-.523.077-.54-.441-.531-.477.008-.953.062-1.465.098.166-.859.656-1.538,1.171-2.281-.588.135-1.081.285-1.586.356-.777.11-1.585.259-2.322-.103-1.015-.498-1.075-.518-1.893.272-.014.013-.052.002-.137.002-.029-.393-.059-.794-.093-1.25-.494.204-.942.389-1.472.608.135-.379.265-.665.34-.964.443-1.764,1.653-2.676,3.359-3.023.373-.076.614-.253.791-.578.509-.932.421-1.903.216-2.884-.354-1.689-1.239-3.09-2.362-4.362-2.173-2.463-3.924-5.198-5.272-8.193-.059-.131-.136-.254-.204-.381-.046.008-.093.017-.139.025-.079.98-.158,1.96-.237,2.952-.095-.27-.22-.552-.294-.847-.425-1.704-.839-3.412-1.254-5.119-.023-.095-.042-.204-.019-.294.147-.573.307-1.142.42-1.553.264,1.339.554,2.816.845,4.292.025-.005.049-.009.074-.014.014-.305.028-.61.042-.914.01,0,.02,0,.03,0,.055.461.111.923.166,1.384.053-.001.105-.002.158-.003.095-.559.189-1.117.296-1.745.885,1.821,1.251,3.804,2.478,5.504-.043-.225-.07-.359-.096-.493.022-.006.045-.013.067-.019.193.371.385.741.578,1.112l.057-.026c-.3-.892-.6-1.784-.9-2.675.049-.019.098-.039.148-.058.572,1.666,1.489,3.145,2.458,4.59.968,1.445,1.99,2.854,2.988,4.279.024-.012.048-.023.072-.035-.111-.286-.222-.572-.333-.858.737.745,1.275,1.592,1.469,2.619.252,1.338.252,2.651-.492,3.861-.316.514-.726.867-1.364,1.007-.632.139-1.249.399-1.831.69-.458.229-.784.635-.915,1.18.793.034.782.024,1.236-.494.392-.447.864-.773,1.466-.849-.35.321-.75.574-1.082.897-.334.326-.563.734-.469,1.343.944-.644,2.161-.432,2.927-1.33.037.044.074.087.111.131-.43.475-.86.95-1.282,1.415.315-.098.662-.213,1.013-.314.489-.139,1.018-.215,1.096-.916.04.031.079.061.119.092-.079.34-.158.68-.237,1.02.766-.757.692-1.728.722-2.672.043.003.087.007.13.01-.043.818-.087,1.636-.13,2.454.764-2.178.565-4.399.2-6.627.043-.008.086-.017.129-.025.271.894.542,1.789.813,2.683.026-.002.052-.004.078-.005-.101-.905-.202-1.81-.302-2.714.023-.004.046-.009.069-.013.135.465.271.929.406,1.394.052-.014.103-.029.155-.043-.183-.7-.365-1.4-.55-2.11.296.387.591.773.886,1.159.052-.035.104-.069.156-.104-.924-2.305-2.685-4.118-3.809-6.311.577.685,1.154,1.37,1.731,2.055-.111-.456-.313-.849-.48-1.256-.162-.396-.302-.803-.425-1.213-.122-.404-.21-.819-.314-1.229.039-.014.078-.029.117-.043.606,1.724,1.763,3.069,2.952,4.393-.137-.294-.318-.56-.478-.838-.16-.279-.298-.57-.445-.856.02-.005.04-.011.06-.016l2.383,2.587c.017-.012.034-.025.05-.037-.362-.604-.723-1.207-1.085-1.811.04-.028.08-.055.12-.083.312.348.655.673.93,1.048.962,1.312,1.615,2.775,2.032,4.351-.012-2.245-.682-4.36-1.24-6.501.428,1.147.819,2.303,1.123,3.483.606,2.349.724,4.712.047,7.077-.078.273-.205.426-.472.539-1.179.499-2.299,1.102-3.173,2.067-.29.32-.531.683-.795,1.027.036.048.072.096.108.144.431-.195.889-.347,1.286-.595.713-.447,1.379-.967,2.086-1.424.291-.188.637-.292.958-.434-2.194,1.46-3.213,2.516-3.163,3.357.471-.15.951-.286,1.417-.458.178-.065.376-.176.479-.325.586-.847,1.375-1.444,2.273-1.916.19-.1.389-.181.584-.27-1.051.91-2.199,1.706-2.413,3.269,1.206-.382,2.277-.849,3.116-1.754.454-.49,1.008-.861,1.678-1.045-.903.772-1.72,1.588-1.907,2.905,1.223-.338,2.307-.819,3.316-1.477,1.032-.673,1.796-1.587,2.455-2.62-.203.519-.405,1.038-.608,1.557.043.022.085.044.128.066.426-.736.912-1.444,1.26-2.214.357-.788.629-1.625.845-2.464.208-.807.296-1.644.437-2.467-.017.917-.068,1.832-.209,2.733-.142.912-.374,1.81-.567,2.715.032.014.064.028.096.042.237-.57.475-1.139.71-1.709.043-.105.045-.291.11-.313.56-.192.416-.717.511-1.101.163-.662.246-1.345.362-2.019.032.003.064.006.095.009-.052,1.267-.103,2.534-.156,3.815.411-1.247.404-2.536.443-3.813.038-1.277.008-2.556.008-3.746.345,1.626.763,3.324,1.709,4.967-.214-1.175-.406-2.225-.597-3.275.027-.004.053-.008.08-.011.072.099.144.197.193.263-.307-1.198-.618-2.416-.93-3.634.042-.012.083-.023.125-.035.42,1.781,1.089,3.44,2.367,4.799-.183-.406-.366-.812-.549-1.218.015-.006.029-.012.044-.018.269.333.537.667.806,1,.027-.019.054-.038.081-.057l-1.829-6.233c.057-.029.113-.058.17-.087.238,1.304,1.055,2.124,2.064,2.668-.523-1.149-1.078-2.367-1.632-3.585.033-.016.065-.031.098-.047.275.4.532.815.829,1.198.637.822,1.28,1.641,1.954,2.434.192.226.496.358.749.534.01-.021.021-.042.031-.062-.5-.612-.999-1.224-1.499-1.836.04-.037.08-.075.12-.112.967,1.168,2.222,1.901,3.605,2.445-.876-.923-1.934-1.674-2.582-2.801.678.587,1.311,1.23,2.216,1.502l-.891-.815c.026-.036.052-.072.079-.108.629.408,1.237.867,2.031.889-.662-.301-1.171-.759-1.542-1.373-.296-.489-.611-.968-.886-1.469-.251-.456-.46-.934-.687-1.403.03-.021.06-.042.09-.064.744,1.04,1.753,1.717,2.931,2.225-2.243-2.526-2.835-5.587-3.12-8.756.069.061.103.137.112.216.203,1.904.76,3.72,1.367,5.524.461,1.371,1.342,2.426,2.562,3.378-2.751-3.614-3.624-7.66-3.583-11.971.112,1.751.392,3.475,1.033,5.137-.026-.35-.053-.699-.083-1.108.362,1.1.705,2.142,1.048,3.184.038-.012.076-.023.114-.035-.096-.632-.192-1.264-.288-1.896.016-.003.032-.006.049-.008.059.221.118.441.177.662l.077-.023c.073-1.399.146-2.798.22-4.197.04.002.08.004.12.006.084.665.168,1.329.253,1.994.035-.001.069-.003.104-.004v-1.487c.439.909.841,1.744,1.244,2.578.017-.008.035-.016.052-.024-.203-1.825-.405-3.65-.608-5.475.031-.005.062-.01.094-.016.284,1.064.569,2.127.853,3.191.059-.016.118-.031.176-.047-.368-1.577-.737-3.154-1.105-4.731.058-.015.116-.03.174-.045.585,2.018,1.169,4.035,1.718,5.931.043-2.083-.277-4.267-.744-6.435.042-.007.083-.015.125-.022.34,1.698.68,3.396,1.021,5.095.021-.002.041-.004.062-.006-.119-1.272-.238-2.545-.358-3.817.047-.01.093-.02.14-.03.25,1.146.5,2.292.773,3.544-.045-2.502-.428-4.829-1.298-7.073,1.004,1.687,2.17,3.292,2.443,5.315.054-2.704-.513-5.282-1.548-7.776.911.975,1.482,2.132,1.973,3.338l.098-.036c-.055-.546-.11-1.093-.166-1.639.036-.006.072-.012.107-.018.138.457.276.914.414,1.371.04-.546.042-1.079-.058-1.593-.101-.515-.282-1.018-.469-1.511-.179-.474-.411-.928-.62-1.39,1.249,1.338,2.104,2.884,2.666,4.599-.416-2.933-1.781-5.462-3.417-7.877.027-.023.055-.046.082-.069l2.145,2.178c.042-.029.084-.058.126-.086-.913-1.822-1.826-3.643-2.739-5.465.014-.012.028-.024.042-.035,1.017,1.136,2.035,2.271,3.052,3.407.029-.025.058-.049.087-.074l-1.936-2.516c.03-.036.06-.073.09-.109,1.311,1.033,2.623,2.067,3.934,3.1.025-.025.049-.051.074-.076-1.067-1.318-2.135-2.636-3.202-3.953.012-.014.025-.028.037-.043l1.396,1.148c.031-.034.063-.068.094-.102-.555-.534-1.109-1.069-1.67-1.609,1.314.538,2.609,1.069,3.904,1.599.014-.029.027-.058.041-.088-.773-.722-1.545-1.443-2.318-2.165l.03-.043c.207.084.415.168.622.252.012-.029.025-.058.037-.087-.637-.352-1.273-.703-1.91-1.055.021-.051.042-.103.063-.154,1.837.561,3.675,1.122,5.291,1.615-1-.827-2.166-1.792-3.332-2.756.017-.029.034-.059.051-.088.891.228,1.782.456,2.673.683.011-.026.023-.052.034-.077-1.518-.892-3.035-1.785-4.657-2.738,1.153.151,2.169.311,3.191.41,1.006.098,2.019.133,3.028.196.003-.031.005-.063.008-.094-1.322-.464-2.644-.928-4.014-1.409h2.984c-.604-.246-1.174-.468-1.735-.71-.534-.23-1.053-.497-1.59-.717-.281-.116-.589-.168-.884-.249.004-.027.008-.054.012-.081h2.535c.009-.036.018-.071.027-.107-1.366-.538-2.731-1.076-4.211-1.659.615.047,1.116.085,1.617.124-1.306-.546-2.508-1.198-3.593-2.034.847.133,1.685.264,2.523.396.01-.049.02-.098.029-.147-.639-.258-1.278-.516-1.917-.774.009-.027.018-.055.026-.082.324.074.649.148.973.223l.061-.173c-1.06-.501-2.121-1.002-3.228-1.526.823.154,1.602.299,2.382.445-.052-.095-.119-.137-.192-.166-2.285-.935-4.336-2.219-6.144-3.92-1.978-1.861-4.023-3.652-6.048-5.464-.34-.304-.724-.559-1.087-.836-.017.021-.033.042-.05.063.741.974,1.481,1.948,2.222,2.922l-.102.085c-.211-.189-.425-.375-.633-.568-.219-.205-.426-.424-.65-.623-.197-.175-.41-.332-.549-.442.894,1.122,1.824,2.287,2.753,3.453-.041.034-.081.068-.122.103-.609-.613-1.217-1.227-1.826-1.84,1.162,1.984,2.57,3.77,4.293,5.305-.028.034-.057.069-.085.103-.748-.537-1.496-1.074-2.244-1.611-.013.013-.025.025-.038.038,1.011,1.307,2.022,2.613,3.033,3.92-.014.016-.028.033-.042.049-.847-.671-1.694-1.342-2.638-2.09.411.883.97,1.523,1.576,2.111.61.591,1.275,1.126,1.916,1.685-.009.015-.018.03-.028.045-.813-.505-1.626-1.01-2.525-1.569.72,1.156,1.566,2.037,2.705,2.623-1.021-.199-1.752-.948-2.655-1.367,1.106,1.19,2.366,2.121,4.029,2.394-1.47.588-2.956.986-4.529,1.01.002.063.004.126.005.188.673.043,1.346.087,2.06.133-.311.13-.604.252-.897.374.013.047.027.094.04.14.613-.161,1.227-.322,1.808-.474-.088.105-.195.299-.357.415-.745.535-1.506,1.048-2.265,1.571.728-.195,1.49-.4,2.252-.604-1.067.933-2.305,1.521-3.713,1.777,1.579.215,3.024-.25,4.461-.801-1.232,1.339-2.336,2.839-4.324,3.148,1.124.125,2.186-.057,3.218-.525-.432.813-1.317.975-1.965,1.467.927-.199,1.88-.311,2.606-1.023-1.097,1.669-2.558,2.815-4.53,3.266,1.247.026,2.427-.204,3.546-.75-1.004.784-1.941,1.655-3.188,2.06.013.032.026.065.04.097.593-.122,1.185-.244,1.869-.384-.308.207-.532.382-.778.516-.262.142-.544.251-.821.364-.245.1-.495.186-.743.278,1.321-.063,2.356-.705,3.3-1.554-1.577,2.022-3.378,3.748-5.952,4.512.1.072.167.121.259.187-.29.065-.542.115-.79.179-.229.059-.455.132-.683.199.016.056.032.112.048.169,1.226-.302,2.453-.603,3.67-.903-.148.111-.31.231-.472.352.019.029.038.058.056.087.563-.341,1.125-.683,1.688-1.024-.936,1.09-2.114,1.87-3.328,2.606.021.044.042.087.063.131.597-.201,1.193-.403,1.79-.604-1.049.732-2.263,1.076-3.443,1.479-1.174.401-2.388.682-3.511.994,1.433.377,2.971.226,4.517.019-2.462,1.339-5.147,1.755-7.905,1.896,2.015.556,4.006.427,5.995-.149-.581.332-1.156.662-1.771.875-.629.218-1.29.379-1.95.46-.623.076-1.264.016-1.896.016,0,.031-.001.061-.002.092.668.084,1.337.168,2.005.252l.005.066c-.21.042-.42.085-.63.127.003.025.005.049.008.074h1.408c-1.804.891-3.737,1.022-5.7,1.145l2.476.447c-.001.031-.003.062-.004.093h-3.839c0,.024,0,.048-.001.073.315.072.63.144.946.216-.008.042-.016.083-.025.125-1.097-.159-2.194-.318-3.291-.476-.036.025-.072.051-.109.076.196.132.393.264.589.395l-.078.094c-1.584-.667-3.168-1.334-4.84-2.038.868.71,1.676,1.373,2.485,2.035-.019.022-.038.044-.056.066-.391-.243-.783-.485-1.248-.774.661.894,1.312,1.677,1.851,2.531.542.858.898,1.813,1.05,2.829-.224-.368-.399-.759-.62-1.123-.229-.377-.487-.741-.762-1.086-.267-.334-.563-.647-.864-.953-.297-.302-.616-.583-.926-.874-.032.022-.065.043-.097.065.417,1.066.416,2.111-.096,3.207-.395-1.982-1.657-3.329-2.958-4.678.737,1.438.208,2.837-.008,4.241-.126-1.45-.748-2.814-1.501-3.191.122,1.59.085,2.092-.201,2.498-.021-.131-.044-.242-.055-.354-.22-2.183-1.243-4.016-2.662-5.599-1.02-1.137-2.272-2.05-3.704-2.66-.893-.38-1.792-.745-2.69-1.114-.029-.012-.073.011-.165.029.284.262.536.495.751.694-.732-.395-1.496-.808-2.26-1.221,2.192,2.361,3.664,5.105,4.874,8.029v-1.297l.112-.012c.127.878.255,1.756.382,2.633.025.004.05.009.075.013.095-.272.19-.544.299-.855.155,1.307-.594,2.247-1.078,3.276.334-2.879-1.117-5.196-2.344-7.59-.088.528-.176,1.057-.264,1.585-.201-.688-.38-1.353-.473-2.029-.209-1.505-1.072-2.496-2.339-3.245-.983-.581-1.933-1.223-2.865-1.884-.577-.409-1.187-.816-1.458-1.53.379.25.763.492,1.134.752Zm68.183,34.744c-1.924-.343-3.833-.77-5.753-1.14-1.226-.236-2.455-.371-3.684.04-1.329.444-2.182,1.413-2.901,2.542-.049.077-.06.179-.108.33.766-.303,1.515-.512,2.173-.884.652-.368,1.213-.9,1.813-1.36.03.035.061.071.091.106-.295.351-.622.681-.877,1.059-.252.375-.452.791-.629,1.208-.06.142-.042.413.053.497.105.094.392.119.51.04.611-.408,1.272-.785,1.763-1.315.542-.585,1.096-1.099,1.881-1.374-.126.133-.245.272-.378.398-.492.465-.974.942-1.075,1.652-.025.173.013.447.125.523.117.079.389.029.54-.058,1.171-.68,2.391-1.242,3.733-1.454,1.198-.189,2.408-.302,3.614-.44.508-.058,1.019-.092,1.529-.137l-.002-.052c-.807-.056-1.628-.041-2.42-.182Zm-32.701-54.133c1.545-1.212,2.356-2.801,2.279-4.797-.027-.717-.338-1.331-.765-1.876-.678-.865-1.423-1.679-2.087-2.555-.62-.817-1.186-1.677-1.748-2.535-.461-.705-.864-1.448-1.323-2.154-1.885-2.903-5.522-2.453-7.217-.954-.488.432-.925.933-1.329,1.446-.458.581-.498,1.272-.389,2.008.057-.044.092-.057.093-.072.126-1.972,1.781-3.747,3.801-3.997.673-.083,1.367-.044,2.048,0,.959.061,1.708.57,2.273,1.308.546.712,1.083,1.445,1.511,2.23.745,1.367,1.652,2.602,2.688,3.754.43.478.817.993,1.234,1.482.973,1.139,1.104,2.41.584,3.773-.507,1.33-1.267,2.47-2.576,3.135-.743.378-1.552.468-2.379.398-.112-.01-.224-.016-.336-.024,1.311.422,2.554.279,3.637-.57Zm-17.907-6.271c-.025-.034-.05-.067-.075-.101-.378.175-.757.35-1.178.545.121.031.199.05.403.102-.212.112-.339.213-.478.233-.048.007-.122-.185-.192-.28-.088-.121-.164-.263-.28-.349-1.819-1.345-4.395-1.043-5.525,1.461-.286.634-.45,1.322-.679,1.982-.21.606-.433,1.208-.651,1.811-.052.143-.108.284-.162.425.047.021.095.043.142.064.28-.603.598-1.192.831-1.813.255-.68.382-1.41.658-2.08.214-.519.516-1.027.88-1.454,1.029-1.21,3.156-1.107,4.295-.276.578.423.755,1.106.857,1.772.161,1.055-.073,2.05-.637,2.956-.711,1.143-1.809,1.453-3.051,1.268-.9-.134-1.776-.421-2.67-.608-.272-.057-.567-.009-.836.055,1.106.26,2.204.561,3.32.768,1.087.201,2.173.156,2.967-.769,1.166-1.359,1.6-2.88.875-4.548.426-.419.805-.791,1.184-1.164Zm-4.131,1.748c-.006-.497-.557-1.049-1.049-1.049-.598,0-1.174.66-1.184,1.357-.008.569.358.925.948.922.794-.004,1.293-.482,1.285-1.23Zm17.9,4.978c-2.233-1.005-3.222-3.044-4.218-5.078.816,2.182,1.864,4.172,4.218,5.078Zm7.347,46.755l-.12-.004v3.176c.226-.962.334-2.062.12-3.172Z"/>
    <path class="cls-5" d="m131.684,45.392c.745.612,1.49,1.224,2.236,1.836.02-.024.04-.047.06-.071-.737-.622-1.475-1.244-2.212-1.867-.028.034-.056.067-.084.101Z"/>
    <path class="cls-5" d="m144.057,64.745c.395.628.79,1.255,1.185,1.883.045-.028.09-.056.136-.084-.4-.622-.8-1.244-1.2-1.866-.04.023-.08.045-.12.068Z"/>
    <path class="cls-5" d="m120.388,27.963c-1.176.178-2.209.361-2.809,1.417-.221.39-.127.986.257,1.191.085.045.248.008.346-.044.69-.371,1.38-.744,2.053-1.145.212-.126.398-.319.548-.517.1-.133.212-.403.151-.482-.15-.194-.397-.313-.546-.419Z"/>
    <path class="cls-5" d="m126.84,34.526c2.559,1.618,4.744,3.708,7.028,5.676-2.178-2.091-4.349-4.19-7.028-5.676Z"/>
    <path class="cls-5" d="m133.769,31.809c-1.863-.362-3.731-.787-5.654-.792,1.885.264,3.77.528,5.654.792Z"/>
    <path class="cls-5" d="m121.22,29.797c-.775.256-1.55.512-2.324.768.014.039.027.077.041.116.84-.077,1.531-.58,2.283-.884Z"/>
    <path class="cls-5" d="m135.713,30.251c.559.483,1.118.966,1.676,1.45.039-.048.078-.096.117-.144-.575-.463-1.15-.927-1.724-1.39-.023.028-.046.056-.069.084Z"/>
    <path class="cls-5" d="m125.687,35.605c.605.552,1.21,1.105,1.815,1.657-.01.011-.021.022-.031.033-.575-.579-1.15-1.159-1.725-1.738-.02.016-.04.032-.059.048Z"/>
  </g>
  <text class="cls-2" transform="translate(5.265 405.103)"><tspan x="0" y="0">LNLs, lymph node lymphocytes; </tspan><tspan x="0" y="12">PECs, peritoneal exudate cells; </tspan><tspan x="0" y="24">PELs, peritoneal exudate lymphocytes;</tspan></text>
  <g>
    <line class="cls-1" x1="120.952" y1="66.627" x2="84.478" y2="91.8"/>
    <path class="cls-4" d="m85.956,90.781l3.85,1.721-.055.137-6.161,1.417c-1.94.792-3.881,1.584-5.821,2.376,1.429-1.533,2.858-3.066,4.286-4.6l3.51-5.258.136-.019.254,4.227Z"/>
  </g>
  <g>
    <line class="cls-1" x1="27.188" y1="133.076" x2="27.188" y2="142.795"/>
    <path class="cls-4" d="m27.188,141l3.603-2.191.082.123-2.334,5.875c-.45,2.047-.9,4.094-1.351,6.141-.45-2.047-.9-4.094-1.351-6.141l-2.333-5.875.062-.123,3.623,2.191Z"/>
  </g>
  <g>
    <line class="cls-1" x1="27.188" y1="182.433" x2="27.188" y2="203.375"/>
    <path class="cls-4" d="m27.188,201.58l3.603-2.191.082.123-2.334,5.875c-.45,2.047-.9,4.094-1.351,6.141-.45-2.047-.9-4.094-1.351-6.141l-2.333-5.875.062-.123,3.623,2.191Z"/>
  </g>
  <g>
    <line class="cls-1" x1="107.188" y1="127.575" x2="107.188" y2="203.375"/>
    <path class="cls-4" d="m107.188,201.58l3.603-2.191.082.123-2.333,5.875c-.45,2.047-.9,4.094-1.351,6.141-.45-2.047-.9-4.094-1.351-6.141l-2.333-5.875.062-.123,3.623,2.191Z"/>
  </g>
  <g>
    <line class="cls-1" x1="133.769" y1="119.657" x2="227.038" y2="165.928"/>
    <path class="cls-4" d="m225.43,165.13l-.362-4.202.146-.018,4.226,4.701c1.634,1.313,3.267,2.626,4.9,3.939-2.034-.506-4.067-1.013-6.101-1.519l-6.3-.521-.083-.11,3.573-2.272Z"/>
  </g>
  <g>
    <line class="cls-1" x1="215.059" y1="74.61" x2="253.13" y2="92.901"/>
    <path class="cls-4" d="m251.512,92.123l-.415-4.197.146-.02,4.285,4.647c1.65,1.292,3.3,2.584,4.95,3.877-2.04-.481-4.08-.961-6.12-1.441l-6.306-.441-.084-.109,3.544-2.317Z"/>
  </g>
  <g>
    <line class="cls-1" x1="282.672" y1="122.237" x2="282.672" y2="153.931"/>
    <path class="cls-4" d="m282.672,152.136l3.603-2.191.082.123-2.333,5.875c-.45,2.047-.9,4.094-1.351,6.141-.45-2.047-.9-4.094-1.351-6.141l-2.333-5.875.062-.123,3.623,2.191Z"/>
  </g>
  <g>
    <line class="cls-1" x1="282.672" y1="200.173" x2="282.672" y2="211.434"/>
    <path class="cls-4" d="m282.672,209.639l3.603-2.191.082.123-2.333,5.875c-.45,2.047-.9,4.094-1.351,6.141-.45-2.047-.9-4.094-1.351-6.141l-2.333-5.875.062-.123,3.623,2.191Z"/>
  </g>
  <g>
    <line class="cls-1" x1="45.253" y1="250.753" x2="59.78" y2="258.709"/>
    <path class="cls-4" d="m58.205,257.847l-.191-4.213.147-.012,4.032,4.869c1.579,1.378,3.158,2.756,4.737,4.134-2.012-.588-4.023-1.177-6.035-1.764l-6.274-.775-.078-.113,3.662-2.125Z"/>
  </g>
  <g>
    <line class="cls-1" x1="98.926" y1="282.237" x2="118.238" y2="293.59"/>
    <path class="cls-4" d="m116.69,292.68l-.063-4.217.147-.008,3.882,4.989c1.536,1.425,3.073,2.851,4.609,4.277-1.993-.649-3.985-1.298-5.978-1.947l-6.247-.966-.075-.115,3.725-2.013Z"/>
  </g>
  <g>
    <line class="cls-1" x1="282.672" y1="256.689" x2="216.999" y2="293.717"/>
    <path class="cls-4" d="m218.563,292.836l3.678,2.062-.067.131-6.264.853c-2.004.613-4.008,1.226-6.013,1.839,1.562-1.397,3.124-2.795,4.685-4.193l3.972-4.918.137-.007-.129,4.232Z"/>
  </g>
</svg>