<?xml version="1.0" encoding="UTF-8" standalone="no"?>
<!-- Created with Inkscape (http://www.inkscape.org/) -->
<svg
   xmlns:svg="http://www.w3.org/2000/svg"
   xmlns="http://www.w3.org/2000/svg"
   version="1.0"
   width="440"
   height="295.48999"
   viewBox="0 0 1617.001 1058.963"
   id="svg2"
   xml:space="preserve"><defs
   id="defs130" />
	
		<g
   transform="matrix(0.9136142,0,0,0.9136144,66.185821,60.010426)"
   id="レイヤー_1">
			<g
   id="g7">
				<polygon
   points="240.502,913.496 236.503,915.996 232.5,913.496 232.5,769.492 240.502,774.492 240.502,913.496 "
   style="fill:#231815"
   id="polygon9" />
				<polygon
   points="361,983.496 361,992.5 236.503,920.996 236.503,915.996 240.502,913.496 361,983.496 "
   style="fill:#231815"
   id="polygon11" />
				<polygon
   points="481.503,913.496 485.502,915.996 485.502,920.488 361,992.5 361,983.496 481.503,913.496 "
   style="fill:#231815"
   id="polygon13" />
				<polygon
   points="481.503,774.492 485.502,771.992 489.501,774.492 489.501,913.496 485.502,915.996 481.503,913.496 481.503,774.492 "
   style="fill:#231815"
   id="polygon15" />
				<polygon
   points="361,704.492 361,695.488 481,765 485.502,771.992 481.503,774.492 361,704.492 "
   style="fill:#231815"
   id="polygon17" />
				<polygon
   points="240.502,774.492 232.5,769.492 361,695.488 361,704.492 240.502,774.492 "
   style="fill:#231815"
   id="polygon19" />
				<polygon
   points="610.502,983.496 610.502,992.5 485.502,920.488 485.502,915.996 489.501,913.496 610.502,983.496 "
   style="fill:#231815"
   id="polygon21" />
				<polygon
   points="612.5,954.492 608.5,961.504 509.501,904.492 513.5,897.5 612.5,954.492 "
   style="fill:#231815"
   id="polygon23" />
				<polygon
   points="731,913.496 739.003,918.496 610.502,992.5 610.502,983.496 731,913.496 "
   style="fill:#231815"
   id="polygon25" />
				<polygon
   points="731,774.492 735,771.992 739.003,774.492 739.003,918.496 731,913.496 731,774.492 "
   style="fill:#231815"
   id="polygon27" />
				<polygon
   points="610.502,704.492 610.502,700 614.501,697.5 730,764.492 735,771.992 731,774.492 610.502,704.492 "
   style="fill:#231815"
   id="polygon29" />
				<polygon
   points="489.501,774.492 485.502,771.992 490.502,765 606.503,697.5 610.502,700 610.502,704.492 489.501,774.492 "
   style="fill:#231815"
   id="polygon31" />
				<polygon
   points="856.005,697.5 860,700 860.498,704.492 739.003,774.492 735,771.992 740,764.492 856.005,697.5 "
   style="fill:#231815"
   id="polygon33" />
				<polygon
   points="856.005,558.496 860,555.996 864.003,559.004 864.003,696.992 860,700 856.005,697.5 856.005,558.496 "
   style="fill:#231815"
   id="polygon35" />
				<polygon
   points="735,488.496 735,479.497 855.498,549.004 860,555.996 856.005,558.496 735,488.496 "
   style="fill:#231815"
   id="polygon37" />
				<polygon
   points="614.501,558.496 606.503,553.496 735,479.497 735,488.496 614.501,558.496 "
   style="fill:#231815"
   id="polygon39" />
				<polygon
   points="614.501,697.5 610.502,700 606.503,697.5 606.503,553.496 614.501,558.496 614.501,697.5 "
   style="fill:#231815"
   id="polygon41" />
				<polygon
   points="995.498,740 998.505,749.004 860.498,704.492 860,700 864.003,696.992 995.498,740 "
   style="fill:#231815"
   id="polygon43" />
				<polygon
   points="1076.503,627.988 1086.503,627.988 998.505,749.004 995.498,740 1076.503,627.988 "
   style="fill:#231815"
   id="polygon45" />
				<polygon
   points="995.498,515.996 997.001,511.499 1001.503,510.996 1086.503,627.988 1076.503,627.988 995.498,515.996 "
   style="fill:#231815"
   id="polygon47" />
				<polygon
   points="864.003,559.004 860,555.996 864.501,550.488 993.505,508.496 997.001,511.499 995.498,515.996 864.003,559.004 "
   style="fill:#231815"
   id="polygon49" />
				<polygon
   points="845,411.997 860,411.997 875,411.997 864.501,550.488 860,555.996 855.498,549.004 845,411.997 "
   style="fill:#231815"
   id="polygon51" />
				<text
   transform="translate(699.0098,666.9902)"
   id="text53"><tspan
     x="0"
     y="0"
     style="font-size:100px;fill:#231815;font-family:ArialMT"
     id="tspan55">H</tspan></text>

				<polygon
   points="720,679.004 750,679.004 740,764.492 735,771.992 730,764.492 720,679.004 "
   style="fill:#231815"
   id="polygon57" />
				<polygon
   points="470.502,627.988 485.502,627.988 500.502,627.988 490.502,765 485.502,771.992 481,765 470.502,627.988 "
   style="fill:#231815"
   id="polygon59" />
				<polygon
   points="1026.503,370.996 1055.498,378.999 1001.503,510.996 997.001,511.499 993.505,508.496 1026.503,370.996 "
   style="fill:#231815"
   id="polygon61" />
				<polygon
   points="1182.998,370.996 1187.5,378.999 1055.498,378.999 1026.503,370.996 1182.998,370.996 "
   style="fill:#231815"
   id="polygon63" />
				<polygon
   points="956.005,257.998 984.003,246.499 982.001,242.998 985.498,250 961.005,264.497 956.005,257.998 "
   style="fill:#231815"
   id="polygon65" />
				<polygon
   points="969.501,276.997 992.001,263.999 995.498,270.996 974.003,283.496 969.501,276.997 "
   style="fill:#231815"
   id="polygon67" />
				<polygon
   points="982.998,295.996 1001.503,285 1005,292.5 987.5,302.5 982.998,295.996 "
   style="fill:#231815"
   id="polygon69" />
				<polygon
   points="996.503,315 1011.503,305.996 1015,313.496 1001.005,321.499 996.503,315 "
   style="fill:#231815"
   id="polygon71" />
				<polygon
   points="1009.501,333.999 1021.503,327.5 1024.501,334.497 1014.501,340.498 1009.501,333.999 "
   style="fill:#231815"
   id="polygon73" />
				<polygon
   points="1022.998,352.998 1031.005,348.496 1034.501,355.498 1027.5,359.497 1022.998,352.998 "
   style="fill:#231815"
   id="polygon75" />
				<polygon
   points="1255,246.499 1259.501,254.497 1187.5,378.999 1182.998,370.996 1255,246.499 "
   style="fill:#231815"
   id="polygon77" />
				<polygon
   points="1399.003,246.499 1403.505,254.497 1259.501,254.497 1255,246.499 1399.003,246.499 "
   style="fill:#231815"
   id="polygon79" />
				<polygon
   points="1468.505,125.996 1472.998,125.996 1475,130 1403.505,254.497 1399.003,246.499 1468.505,125.996 "
   style="fill:#231815"
   id="polygon81" />
				<polygon
   points="1616.503,121.997 1616.503,125.996 1616.503,130 1475,130 1472.998,125.996 1475,121.997 1616.503,121.997 "
   style="fill:#231815"
   id="polygon83" />
				<polygon
   points="1397.5,3.999 1401.005,1.997 1404.501,0 1475,121.997 1472.998,125.996 1468.505,125.996 1397.5,3.999 "
   style="fill:#231815"
   id="polygon85" />
				<text
   transform="translate(824.0093,882.9941)"
   id="text87"><tspan
     x="0"
     y="0"
     style="font-size:100px;fill:#231815;font-family:ArialMT"
     id="tspan89">H</tspan></text>

				<polygon
   points="875,800 845,800 846.005,791.992 873.505,791.992 875,800 "
   style="fill:#231815"
   id="polygon91" />
				<polygon
   points="871.503,775.996 847.998,775.996 849.003,767.988 870.498,767.988 871.503,775.996 "
   style="fill:#231815"
   id="polygon93" />
				<polygon
   points="867.998,751.992 851.503,751.992 852.5,744.004 867.001,744.004 867.998,751.992 "
   style="fill:#231815"
   id="polygon95" />
				<polygon
   points="865,727.988 854.501,727.988 856.005,720 864.003,720 865,727.988 "
   style="fill:#231815"
   id="polygon97" />
				<text
   transform="translate(574.501,882.9941)"
   id="text99"><tspan
     x="0"
     y="0"
     style="font-size:100px;fill:#231815;font-family:ArialMT"
     id="tspan101">H</tspan></text>

				<polygon
   points="625.502,800 595.502,800 596.503,791.992 624.501,791.992 625.502,800 "
   style="fill:#231815"
   id="polygon103" />
				<polygon
   points="622.001,775.996 598.5,775.996 600,767.988 621,767.988 622.001,775.996 "
   style="fill:#231815"
   id="polygon105" />
				<polygon
   points="619.003,751.992 602.001,751.992 603.002,744.004 617.5,744.004 619.003,751.992 "
   style="fill:#231815"
   id="polygon107" />
				<polygon
   points="615.502,727.988 605.502,727.988 606.503,720 614.501,720 615.502,727.988 "
   style="fill:#231815"
   id="polygon109" />
				<text
   transform="translate(-2e-3,1026.4932)"
   id="text111"><tspan
     x="0"
     y="0"
     style="font-size:100px;fill:#231815;font-family:ArialMT"
     id="tspan113">HO</tspan></text>

				<polygon
   points="158.002,978.496 143.002,952.5 232.5,913.496 236.503,915.996 236.503,920.996 158.002,978.496 "
   style="fill:#231815"
   id="polygon115" />
				<polygon
   points="1476.005,349.497 1450,364.497 1446.503,357.5 1471.005,342.998 1476.005,349.497 "
   style="fill:#231815"
   id="polygon117" />
				<polygon
   points="1461.503,330.498 1440,342.998 1437.001,335.498 1457.001,323.999 1461.503,330.498 "
   style="fill:#231815"
   id="polygon119" />
				<polygon
   points="1447.5,310.996 1430.498,320.996 1427.001,313.496 1442.998,304.497 1447.5,310.996 "
   style="fill:#231815"
   id="polygon121" />
				<polygon
   points="1433.505,291.499 1420.498,298.999 1417.5,291.499 1428.505,285 1433.505,291.499 "
   style="fill:#231815"
   id="polygon123" />
				<polygon
   points="1419.501,271.997 1411.005,276.997 1407.5,269.497 1414.501,265.498 1419.501,271.997 "
   style="fill:#231815"
   id="polygon125" />
				<polygon
   points="1617.001,370.498 1617.001,374.497 1617.001,378.496 1472.998,378.496 1472.998,374.497 1472.998,370.498 1617.001,370.498 "
   style="fill:#231815"
   id="polygon127" />
			</g>
		</g>
	</svg>