<?xml version="1.0" encoding="UTF-8"?>
<svg id="_레이어_1" data-name="레이어 1" xmlns="http://www.w3.org/2000/svg" xmlns:xlink="http://www.w3.org/1999/xlink" viewBox="0 0 284.53 112.497">
  <defs>
    <style>
      .cls-1 {
        fill: #4855a3;
      }

      .cls-1, .cls-2 {
        stroke-width: 0px;
      }

      .cls-3 {
        stroke: #d9d9d9;
      }

      .cls-3, .cls-4, .cls-2, .cls-5, .cls-6, .cls-7, .cls-8, .cls-9, .cls-10 {
        fill: none;
      }

      .cls-3, .cls-4, .cls-5, .cls-7, .cls-8, .cls-10 {
        stroke-linejoin: round;
      }

      .cls-3, .cls-7 {
        stroke-width: .26px;
      }

      .cls-11, .cls-12 {
        fill: #595959;
      }

      .cls-11, .cls-12, .cls-13, .cls-14 {
        font-family: MalgunGothic, 'Malgun Gothic';
      }

      .cls-11, .cls-14 {
        font-size: 3.562px;
      }

      .cls-15 {
        fill: #231916;
      }

      .cls-15, .cls-16 {
        font-family: AppleSDGothicNeoM00, AppleSDGothicNeoM00;
        font-size: 5.343px;
      }

      .cls-4 {
        stroke: #1d2088;
      }

      .cls-4, .cls-8, .cls-10 {
        stroke-linecap: round;
        stroke-width: .737px;
      }

      .cls-17 {
        letter-spacing: .009em;
      }

      .cls-2 {
        clip-rule: evenodd;
      }

      .cls-5 {
        stroke-width: .427px;
      }

      .cls-5, .cls-8 {
        stroke: #000;
      }

      .cls-12, .cls-13 {
        font-size: 4.195px;
      }

      .cls-6 {
        stroke: #e60013;
      }

      .cls-6, .cls-9 {
        stroke-miterlimit: 10;
        stroke-width: .55px;
      }

      .cls-7 {
        stroke: #c0bfbf;
      }

      .cls-13 {
        fill: #404040;
      }

      .cls-9 {
        stroke: #231916;
      }

      .cls-18 {
        clip-path: url(#clippath);
      }

      .cls-14, .cls-16 {
        fill: #e60013;
      }

      .cls-10 {
        stroke: #601986;
      }

      .cls-19 {
        letter-spacing: -.004em;
      }
    </style>
    <clipPath id="clippath">
      <polygon class="cls-2" points="8.876 104.096 125.585 104.096 125.585 2.195 8.876 2.195 8.876 104.096 8.876 104.096"/>
    </clipPath>
  </defs>
  <g>
    <g class="cls-18">
      <path class="cls-1" d="m12.064,72.968h6.628v30.876h-6.628v-30.876h0Zm12.921-5.496h6.67v36.372h-6.67v-36.372h0Zm12.963-9.146h6.628v45.518h-6.628v-45.518h0Zm12.921-26.639h6.628v72.157h-6.628V31.687h0Zm12.963-17.452h6.628v89.609h-6.628V14.235h0Zm12.921-5.286h6.628v94.895h-6.628V8.949h0Zm12.963-.629h6.628v95.524h-6.628V8.32h0Zm12.921-.21h6.628v95.734h-6.628V8.11h0Zm12.921,28.485h6.67v67.249h-6.67V36.596h0Z"/>
    </g>
    <line class="cls-5" x1="8.918" y1="103.844" x2="8.918" y2="2.237"/>
    <path class="cls-5" d="m7.407,103.844h1.51m-1.51-20.305h1.51m-1.51-20.347h1.51m-1.51-20.305h1.51m-1.51-20.347h1.51M7.407,2.237h1.51"/>
    <line class="cls-5" x1="8.918" y1="103.844" x2="125.375" y2="103.844"/>
    <path class="cls-5" d="m8.918,103.844v1.51m12.921-1.51v1.51m12.963-1.51v1.51m12.921-1.51v1.51m12.963-1.51v1.51m12.921-1.51v1.51m12.921-1.51v1.51m12.963-1.51v1.51m12.921-1.51v1.51m12.963-1.51v1.51"/>
    <text class="cls-13" transform="translate(11.466 69.559)"><tspan x="0" y="0">15.2</tspan></text>
    <text class="cls-13" transform="translate(24.4 64.076)"><tspan x="0" y="0">17.9</tspan></text>
    <text class="cls-13" transform="translate(37.341 54.929)"><tspan x="0" y="0">22.4</tspan></text>
    <text class="cls-13" transform="translate(50.281 28.304)"><tspan x="0" y="0">35.5</tspan></text>
    <text class="cls-13" transform="translate(63.22 10.827)"><tspan x="0" y="0">44.1</tspan></text>
    <text class="cls-13" transform="translate(76.157 5.545)"><tspan x="0" y="0">46.7</tspan></text>
    <text class="cls-13" transform="translate(89.095 4.936)"><tspan x="0" y="0">47.0</tspan></text>
    <text class="cls-13" transform="translate(102.033 4.731)"><tspan x="0" y="0">47.1</tspan></text>
    <text class="cls-13" transform="translate(114.974 33.185)"><tspan x="0" y="0">33.1</tspan></text>
    <text class="cls-12" transform="translate(2.305 105.293)"><tspan x="0" y="0">0</tspan></text>
    <text class="cls-12" transform="translate(0 84.971)"><tspan x="0" y="0">10</tspan></text>
    <text class="cls-12" transform="translate(0 64.649)"><tspan x="0" y="0">20</tspan></text>
    <text class="cls-12" transform="translate(0 44.329)"><tspan x="0" y="0">30</tspan></text>
    <text class="cls-12" transform="translate(0 24.003)"><tspan x="0" y="0">40</tspan></text>
    <text class="cls-12" transform="translate(0 3.683)"><tspan x="0" y="0">50</tspan></text>
    <text class="cls-12" transform="translate(11.064 111.457)"><tspan x="0" y="0">6-11</tspan></text>
    <text class="cls-12" transform="translate(22.852 111.457)"><tspan x="0" y="0">12-17</tspan></text>
    <text class="cls-12" transform="translate(35.79 111.457)"><tspan x="0" y="0">18-24</tspan></text>
    <text class="cls-12" transform="translate(48.728 111.457)"><tspan x="0" y="0">25-34</tspan></text>
    <text class="cls-12" transform="translate(61.665 111.457)"><tspan x="0" y="0">35-44</tspan></text>
    <text class="cls-12" transform="translate(74.605 111.457)"><tspan x="0" y="0">45-54</tspan></text>
    <text class="cls-12" transform="translate(87.544 111.457)"><tspan x="0" y="0">55-64</tspan></text>
    <text class="cls-12" transform="translate(100.484 111.457)"><tspan x="0" y="0">65-74</tspan></text>
    <text class="cls-12" transform="translate(115.121 111.457)"><tspan x="0" y="0">75+</tspan></text>
  </g>
  <g>
    <path class="cls-3" d="m268.243,86.729-116.454-1.076,116.454-15.319-116.454-1.076,116.454-15.319-116.454-1.076,116.454-15.36-116.454-1.076,116.454-15.319-116.454-1.076,116.454-15.319"/>
    <path class="cls-3" d="m152.148,102.05,21.526,0,21.526,0,21.526,0,21.479,0,21.526,0,8.51-97.34v98.415"/>
    <line class="cls-7" x1="268.243" y1="103.125" x2="268.243" y2="4.71"/>
    <text class="cls-14" transform="translate(271.847 104.184)"><tspan x="0" y="0">0</tspan></text>
    <text class="cls-14" transform="translate(271.847 93.246)"><tspan x="0" y="0">5</tspan></text>
    <text class="cls-14" transform="translate(271.847 82.309)"><tspan class="cls-19" x="0" y="0">1</tspan><tspan x="1.947" y="0">0</tspan></text>
    <text class="cls-14" transform="translate(271.847 71.373)"><tspan class="cls-19" x="0" y="0">1</tspan><tspan x="1.947" y="0">5</tspan></text>
    <text class="cls-14" transform="translate(271.847 60.432)"><tspan class="cls-19" x="0" y="0">2</tspan><tspan x="1.947" y="0">0</tspan></text>
    <text class="cls-14" transform="translate(271.847 49.496)"><tspan class="cls-19" x="0" y="0">2</tspan><tspan x="1.947" y="0">5</tspan></text>
    <text class="cls-14" transform="translate(271.847 38.56)"><tspan class="cls-19" x="0" y="0">3</tspan><tspan x="1.947" y="0">0</tspan></text>
    <text class="cls-14" transform="translate(271.847 27.623)"><tspan class="cls-19" x="0" y="0">3</tspan><tspan x="1.947" y="0">5</tspan></text>
    <text class="cls-14" transform="translate(271.847 16.686)"><tspan class="cls-19" x="0" y="0">4</tspan><tspan x="1.947" y="0">0</tspan></text>
    <text class="cls-14" transform="translate(271.847 5.748)"><tspan class="cls-19" x="0" y="0">4</tspan><tspan x="1.947" y="0">5</tspan></text>
    <text class="cls-11" transform="translate(146.268 103.108)"><tspan x="0" y="0">0</tspan></text>
    <text class="cls-11" transform="translate(144.336 86.701)"><tspan class="cls-19" x="0" y="0">2</tspan><tspan x="1.947" y="0">0</tspan></text>
    <text class="cls-11" transform="translate(144.336 70.298)"><tspan class="cls-19" x="0" y="0">4</tspan><tspan x="1.947" y="0">0</tspan></text>
    <text class="cls-11" transform="translate(144.336 53.888)"><tspan class="cls-19" x="0" y="0">6</tspan><tspan x="1.947" y="0">0</tspan></text>
    <text class="cls-11" transform="translate(144.336 37.484)"><tspan class="cls-19" x="0" y="0">8</tspan><tspan x="1.947" y="0">0</tspan></text>
    <text class="cls-11" transform="translate(142.401 21.078)"><tspan class="cls-19" x="0" y="0">1</tspan><tspan class="cls-17" x="1.947" y="0">0</tspan><tspan x="3.941" y="0">0</tspan></text>
    <text class="cls-11" transform="translate(142.401 4.672)"><tspan class="cls-19" x="0" y="0">1</tspan><tspan class="cls-17" x="1.947" y="0">2</tspan><tspan x="3.941" y="0">0</tspan></text>
    <text class="cls-11" transform="translate(148.291 107.547)"><tspan class="cls-19" x="0" y="0">1</tspan><tspan class="cls-17" x="1.947" y="0">9</tspan><tspan class="cls-19" x="3.941" y="0">7</tspan><tspan x="5.889" y="0">0</tspan></text>
    <text class="cls-11" transform="translate(169.807 107.547)"><tspan class="cls-19" x="0" y="0">1</tspan><tspan class="cls-17" x="1.947" y="0">9</tspan><tspan class="cls-19" x="3.941" y="0">8</tspan><tspan x="5.889" y="0">0</tspan></text>
    <text class="cls-11" transform="translate(191.324 107.547)"><tspan class="cls-19" x="0" y="0">1</tspan><tspan class="cls-17" x="1.947" y="0">9</tspan><tspan class="cls-19" x="3.941" y="0">9</tspan><tspan x="5.889" y="0">0</tspan></text>
    <text class="cls-11" transform="translate(212.84 107.547)"><tspan class="cls-19" x="0" y="0">2</tspan><tspan class="cls-17" x="1.947" y="0">0</tspan><tspan class="cls-19" x="3.941" y="0">0</tspan><tspan x="5.889" y="0">0</tspan></text>
    <text class="cls-11" transform="translate(234.358 107.547)"><tspan class="cls-19" x="0" y="0">2</tspan><tspan class="cls-17" x="1.947" y="0">0</tspan><tspan class="cls-19" x="3.941" y="0">1</tspan><tspan x="5.889" y="0">0</tspan></text>
    <text class="cls-11" transform="translate(255.874 107.547)"><tspan class="cls-19" x="0" y="0">2</tspan><tspan class="cls-17" x="1.947" y="0">0</tspan><tspan class="cls-19" x="3.941" y="0">2</tspan><tspan x="5.889" y="0">0</tspan></text>
    <g>
      <polyline class="cls-4" points="152.171 41.149 154.324 40.908 156.477 40.827 158.629 41.711 160.782 44.765 162.935 48.663 165.087 46.132 167.24 45.649 169.392 47.297 171.498 48.583 173.651 51.999 175.804 54.53 177.956 57.946 180.109 59.956 182.261 62.166 184.414 64.497 186.567 66.104 188.719 64.697 190.872 64.898 193.025 64.497 195.177 63.532 197.33 64.014 199.482 63.612 201.635 63.854 203.788 63.532 205.94 63.211 208.093 63.13 210.246 63.211 212.398 63.17 214.551 62.367 216.703 62.849 218.856 63.452 221.009 64.215 223.161 65.622 225.314 65.22 227.467 64.376 229.619 64.858 231.772 65.461 233.924 63.13 236.077 64.135 238.23 62.608 240.382 62.608 242.535 62.166 244.688 61.362 246.84 61.081 248.993 60.599 251.146 60.277 253.298 60.599 255.451 60.96 257.603 61.081 259.756 60.88 261.909 60.317"/>
      <polyline class="cls-10" points="152.171 101.749 154.324 101.588 156.477 101.387 158.629 100.824 160.782 100.422 162.935 99.136 165.087 97.77 167.24 96.324 169.392 95.6 171.498 93.229 173.651 90.698 175.804 88.407 177.956 86.116 180.109 83.384 182.261 79.767 184.414 75.025 186.567 74.704 188.719 73.498 190.872 72.735 193.025 73.217 195.177 72.373 197.33 71.931 199.482 71.408 201.635 69.922 203.788 68.234 205.94 67.109 208.093 66.305 210.246 64.537 212.398 63.532 214.551 62.648 216.703 63.532 218.856 63.894 221.009 63.653 223.161 64.697 225.314 65.26 227.467 65.662 229.619 66.064 231.772 67.51 233.924 69.439 236.077 71.087 238.23 71.81 240.382 72.976 242.535 73.498 244.688 74.623 246.84 74.503 248.993 75.266 251.146 75.99 253.298 76.713 255.451 77.517 257.603 78.079 259.756 77.999 261.909 78.401"/>
      <polyline class="cls-8" points="152.171 30.459 154.324 29.857 156.477 29.013 158.629 28.812 160.782 31.263 162.935 33.674 165.087 30.057 167.24 28.33 169.392 29.173 171.498 28.45 173.651 29.857 175.804 30.138 177.956 31.343 180.109 30.379 182.261 28.932 184.414 26.28 186.567 27.405 188.719 24.673 190.872 23.869 193.025 24.914 195.177 22.543 197.33 22.261 199.482 20.855 201.635 19.127 203.788 17.037 205.94 15.189 208.093 13.863 210.246 11.853 212.398 11.09 214.551 9.804 216.703 11.492 218.856 12.577 221.009 13.019 223.161 15.952 225.314 15.912 227.467 15.55 229.619 17.439 231.772 19.69 233.924 19.649 236.077 22.583 238.23 21.659 240.382 23.146 242.535 23.146 244.688 23.708 246.84 22.824 248.993 23.025 251.146 23.668 253.298 24.03 255.451 25.195 257.603 25.959 259.756 25.838 261.909 25.436"/>
      <polyline class="cls-6" points="158.554 70.336 169.43 69.121 197.388 51.23 214.699 34.26 218.835 33.734 223.201 29.919 227.414 25.183 231.78 27.222 236.069 23.012 240.358 24.788 244.878 18.408 249.244 14.396 253.456 8.147"/>
    </g>
    <rect class="cls-9" x="151.814" y="2.312" width="116.429" height="100.612"/>
  </g>
  <text class="cls-15" transform="translate(186.505 42.575)"><tspan x="0" y="0">비만율</tspan></text>
  <text class="cls-16" transform="translate(283.622 62.648) rotate(-90)"><tspan x="0" y="0">비만율(%)</tspan></text>
  <text class="cls-15" transform="translate(177.612 20.03)"><tspan x="0" y="0">당 소비량 총량</tspan></text>
  <text class="cls-15" transform="translate(227.938 58.231)"><tspan x="0" y="0">설탕</tspan></text>
  <text class="cls-15" transform="translate(191.642 82.198)"><tspan x="0" y="0">액상과당</tspan></text>
  <text class="cls-15" transform="translate(140.966 77.902) rotate(-90)"><tspan x="0" y="0">개인당 총 당 사용량(g/일)</tspan></text>
</svg>