<?xml version="1.0" encoding="utf-8"?>
<!-- Generator: Adobe Illustrator 28.0.0, SVG Export Plug-In . SVG Version: 6.00 Build 0)  -->
<svg version="1.1" id="레이어_1" xmlns="http://www.w3.org/2000/svg" xmlns:xlink="http://www.w3.org/1999/xlink" x="0px"
	 y="0px" viewBox="0 0 293.996 277.053" enable-background="new 0 0 293.996 277.053" xml:space="preserve">
<g>
	<circle fill="#A588B9" stroke="#595857" stroke-width="0.1776" stroke-miterlimit="10" cx="32.558" cy="237.636" r="9.349"/>
	<circle fill="#572E72" stroke="#595857" stroke-width="0.1776" stroke-miterlimit="10" cx="32.558" cy="237.636" r="6.874"/>
</g>
<g>
	
		<line fill="#FFFFFF" stroke="#F39800" stroke-width="4" stroke-linecap="round" stroke-miterlimit="10" x1="2" y1="183.504" x2="68.065" y2="161.826"/>
	<polygon fill="#F8B62D" stroke="#FFFFFF" stroke-width="0.5" stroke-linecap="round" stroke-miterlimit="10" points="
		35.032,172.665 26.216,187.934 43.848,187.934 	"/>
	<circle fill="#654384" cx="5.677" cy="171.858" r="1.839"/>
	<circle fill="#B25430" cx="63.095" cy="157.084" r="1.839"/>
	<circle fill="#654384" cx="13.806" cy="173.697" r="1.839"/>
	<circle fill="#654384" cx="10.129" cy="170.02" r="1.839"/>
	<circle fill="#654384" cx="6.839" cy="167.246" r="1.839"/>
	<circle fill="#654384" cx="8.29" cy="175.471" r="1.839"/>
	<circle fill="#654384" cx="3.839" cy="177.31" r="1.839"/>
</g>
<line fill="#FFFFFF" stroke="#F39800" stroke-width="4" stroke-linecap="round" stroke-miterlimit="10" x1="282.035" y1="183.772" x2="215.971" y2="162.095"/>
<polygon fill="#F8B62D" stroke="#FFFFFF" stroke-width="0.5" stroke-linecap="round" stroke-miterlimit="10" points="
	249.003,172.933 257.819,188.203 240.187,188.203 "/>
<circle fill="#B25430" cx="278.358" cy="172.127" r="1.839"/>
<circle fill="#654384" cx="220.94" cy="157.353" r="1.839"/>
<circle fill="#B25430" cx="270.229" cy="173.966" r="1.839"/>
<circle fill="#B25430" cx="273.906" cy="170.288" r="1.839"/>
<circle fill="#B25430" cx="277.197" cy="167.514" r="1.839"/>
<circle fill="#B25430" cx="275.745" cy="175.74" r="1.839"/>
<circle fill="#B25430" cx="280.197" cy="177.579" r="1.839"/>
<g>
	<circle fill="#A588B9" cx="35.032" cy="82.517" r="13.161"/>
	<circle fill="#572E72" cx="35.032" cy="82.517" r="9.677"/>
</g>
<g>
	<circle fill="#D09495" cx="249.003" cy="82.517" r="13.161"/>
	<circle fill="#AB5330" cx="249.003" cy="82.517" r="9.677"/>
</g>
<g>
	<circle fill="#A588B9" stroke="#595857" stroke-width="0.1776" stroke-miterlimit="10" cx="14.21" cy="260.184" r="9.349"/>
	<circle fill="#572E72" stroke="#595857" stroke-width="0.1776" stroke-miterlimit="10" cx="14.21" cy="260.184" r="6.874"/>
</g>
<g>
	<circle fill="#A588B9" stroke="#595857" stroke-width="0.1776" stroke-miterlimit="10" cx="37.231" cy="260.184" r="9.349"/>
	<circle fill="#572E72" stroke="#595857" stroke-width="0.1776" stroke-miterlimit="10" cx="37.231" cy="260.184" r="6.874"/>
</g>
<g>
	<circle fill="#A588B9" stroke="#595857" stroke-width="0.1776" stroke-miterlimit="10" cx="53.454" cy="257.709" r="9.349"/>
	<circle fill="#572E72" stroke="#595857" stroke-width="0.1776" stroke-miterlimit="10" cx="53.454" cy="257.709" r="6.874"/>
</g>
<g>
	<circle fill="#A588B9" stroke="#595857" stroke-width="0.1776" stroke-miterlimit="10" cx="25.683" cy="250.835" r="9.349"/>
	<circle fill="#572E72" stroke="#595857" stroke-width="0.1776" stroke-miterlimit="10" cx="25.683" cy="250.835" r="6.874"/>
</g>
<g>
	<circle fill="#A588B9" stroke="#595857" stroke-width="0.1776" stroke-miterlimit="10" cx="46.58" cy="246.985" r="9.349"/>
	<circle fill="#572E72" stroke="#595857" stroke-width="0.1776" stroke-miterlimit="10" cx="46.58" cy="246.985" r="6.874"/>
</g>
<g>
	<circle fill="#D09495" cx="249.003" cy="233.959" r="9.993"/>
	<circle fill="#7D2A26" cx="249.003" cy="233.959" r="7.348"/>
</g>
<g>
	<circle fill="#D09495" cx="261.322" cy="244.51" r="9.993"/>
	<circle fill="#7D2A26" cx="261.322" cy="244.51" r="7.348"/>
</g>
<g>
	<circle fill="#D09495" cx="239.01" cy="248.36" r="9.993"/>
	<circle fill="#7D2A26" cx="239.01" cy="248.36" r="7.348"/>
</g>
<g>
	<circle fill="#D09495" cx="231.661" cy="264.583" r="9.993"/>
	<circle fill="#7D2A26" cx="231.661" cy="264.583" r="7.348"/>
</g>
<g>
	<circle fill="#D09495" cx="251.328" cy="260.184" r="9.993"/>
	<circle fill="#7D2A26" cx="251.328" cy="260.184" r="7.348"/>
</g>
<g>
	<circle fill="#D09495" cx="268.672" cy="267.058" r="9.993"/>
	<circle fill="#7D2A26" cx="268.672" cy="267.058" r="7.348"/>
</g>
<polygon fill="#CB8182" points="209.04,254.561 209.04,234.46 75.429,234.46 "/>
<polygon fill="#A588B9" points="75.429,240.139 75.429,260.239 209.04,260.239 "/>
<g>
	<path d="M167.116,238.46c0-0.667,0.244-1.225,0.731-1.672c0.488-0.447,1.087-0.671,1.799-0.671c0.719,0,1.321,0.222,1.81,0.665
		c0.487,0.443,0.731,1.003,0.731,1.678c0,0.682-0.24,1.23-0.721,1.645s-1.087,0.621-1.82,0.621c-0.719,0-1.32-0.209-1.804-0.627
		C167.358,239.681,167.116,239.135,167.116,238.46z M168.37,238.45c0,0.381,0.117,0.69,0.353,0.929
		c0.234,0.238,0.542,0.357,0.924,0.357c0.381,0,0.694-0.12,0.94-0.362s0.368-0.55,0.368-0.924c0-0.367-0.119-0.672-0.357-0.913
		c-0.238-0.242-0.556-0.363-0.951-0.363c-0.374,0-0.681,0.123-0.919,0.368C168.489,237.787,168.37,238.09,168.37,238.45z
		 M174.739,245.258h-6.357v-3.729h6.357V245.258z M173.452,244.257v-1.749h-3.784v1.749H173.452z M176.125,238.9h-1.386v2.123
		h-1.309v-5.444h1.309v2.276h1.386V238.9z"/>
	<path d="M188.336,240.264v1.012h-8.855v-1.012H188.336z M187.885,238.702l-0.55,1.012c-0.719-0.059-1.399-0.261-2.041-0.605
		s-1.102-0.751-1.38-1.221c-0.242,0.484-0.679,0.893-1.31,1.227s-1.338,0.533-2.123,0.6l-0.527-0.99
		c0.784-0.036,1.472-0.207,2.062-0.512c0.59-0.304,0.97-0.698,1.138-1.183h-2.761v-1.022h7.062v1.022h-2.75
		c0.183,0.478,0.584,0.866,1.204,1.166C186.529,238.496,187.187,238.665,187.885,238.702z M187.335,243.553
		c0,0.572-0.301,1.02-0.902,1.342c-0.602,0.323-1.441,0.484-2.519,0.484c-1.086,0-1.93-0.161-2.53-0.484
		c-0.602-0.322-0.902-0.77-0.902-1.342c0-0.558,0.301-0.997,0.902-1.32c0.601-0.322,1.44-0.483,2.519-0.483s1.92,0.161,2.524,0.483
		C187.032,242.556,187.335,242.995,187.335,243.553z M185.442,244.153c0.382-0.144,0.572-0.339,0.572-0.589
		c0-0.249-0.19-0.445-0.572-0.588c-0.381-0.144-0.895-0.215-1.54-0.215c-0.638,0-1.146,0.071-1.523,0.215
		c-0.378,0.143-0.566,0.339-0.566,0.588c0,0.25,0.188,0.445,0.566,0.589c0.378,0.143,0.886,0.215,1.523,0.215
		C184.548,244.368,185.061,244.295,185.442,244.153z"/>
	<path d="M194.979,239.825l-0.736,0.989c-0.403-0.146-0.82-0.405-1.249-0.775s-0.746-0.768-0.951-1.193
		c-0.14,0.477-0.431,0.926-0.875,1.348c-0.443,0.422-0.907,0.717-1.392,0.886l-0.78-1.023c0.726-0.264,1.303-0.673,1.732-1.227
		c0.429-0.554,0.644-1.197,0.644-1.931v-0.847h1.331v0.781c0,0.719,0.224,1.346,0.671,1.881S194.356,239.618,194.979,239.825z
		 M190.47,241.826h6.645v3.563h-1.299v-2.541h-5.346V241.826z M197.102,241.353h-1.287v-5.764h1.287V241.353z"/>
</g>
<g>
	<path fill="#FFFFFF" d="M76.804,251.66c0-0.667,0.244-1.225,0.731-1.672s1.087-0.671,1.798-0.671c0.719,0,1.322,0.222,1.81,0.665
		s0.731,1.003,0.731,1.678c0,0.682-0.24,1.23-0.72,1.645c-0.48,0.414-1.087,0.621-1.821,0.621c-0.719,0-1.32-0.209-1.804-0.627
		S76.804,252.334,76.804,251.66z M78.057,251.649c0,0.381,0.117,0.69,0.352,0.929s0.542,0.357,0.924,0.357s0.695-0.12,0.941-0.362
		c0.246-0.242,0.368-0.55,0.368-0.924c0-0.367-0.119-0.672-0.357-0.913c-0.238-0.242-0.556-0.363-0.952-0.363
		c-0.374,0-0.68,0.123-0.918,0.368C78.177,250.987,78.057,251.289,78.057,251.649z M84.427,258.457h-6.358v-3.729h6.358V258.457z
		 M83.139,257.456v-1.749h-3.784v1.749H83.139z M85.812,252.099h-1.386v2.123h-1.309v-5.444h1.309v2.276h1.386V252.099z"/>
	<path fill="#FFFFFF" d="M89.245,251.66c0-0.675,0.242-1.241,0.726-1.699c0.484-0.459,1.082-0.688,1.793-0.688
		c0.711,0,1.313,0.227,1.804,0.682s0.737,1.022,0.737,1.705c0,0.689-0.242,1.248-0.726,1.678c-0.484,0.429-1.089,0.644-1.815,0.644
		c-0.711,0-1.309-0.217-1.793-0.649C89.487,252.899,89.245,252.341,89.245,251.66z M90.488,251.66c0,0.381,0.119,0.696,0.357,0.946
		c0.238,0.249,0.544,0.373,0.918,0.373c0.381,0,0.693-0.126,0.935-0.379c0.242-0.253,0.363-0.566,0.363-0.94
		s-0.118-0.688-0.352-0.94c-0.235-0.253-0.55-0.38-0.946-0.38c-0.374,0-0.68,0.129-0.918,0.385
		C90.607,250.981,90.488,251.292,90.488,251.66z M90.642,254.97h6.644v3.619h-1.298v-2.606h-5.346V254.97z M97.275,254.475h-1.287
		v-2.343h-1.32v-1.034h1.32v-2.32h1.287V254.475z"/>
	<path fill="#FFFFFF" d="M103.512,255.388l-0.726,0.924c-0.337-0.212-0.677-0.54-1.018-0.984c-0.341-0.443-0.57-0.874-0.688-1.292
		c-0.117,0.455-0.357,0.928-0.721,1.419c-0.363,0.491-0.742,0.851-1.138,1.078l-0.781-0.869c1.349-0.895,2.024-2.313,2.024-4.257
		v-0.474h-1.65v-1.022h4.422v1.022h-1.529v0.451c0,0.953,0.154,1.773,0.462,2.459S102.925,255.043,103.512,255.388z
		 M105.063,258.127h-1.199v-4.917h-1.276v-1.056h1.276v-3.19h1.199V258.127z M107.032,258.578h-1.221v-9.801h1.221V258.578z"/>
</g>
<g>
	<path d="M20.903,204.471H16.36v-4.588h4.543V204.471z M24.269,208.596h-6.644v-3.036h1.276v2.013h5.368V208.596z M19.627,203.469
		v-2.596h-1.991v2.596H19.627z M22.795,201.611h-1.364v-1.012h1.364v-1.54h1.276v7.105h-1.276v-2.397h-1.364v-1.013h1.364V201.611z"
		/>
	<path d="M26.299,203.629c-0.48-0.429-0.721-0.984-0.721-1.667c0-0.682,0.24-1.252,0.721-1.71c0.48-0.458,1.076-0.688,1.787-0.688
		c0.711,0,1.309,0.229,1.793,0.688c0.484,0.458,0.726,1.028,0.726,1.71c0,0.683-0.238,1.238-0.715,1.667s-1.078,0.644-1.804,0.644
		C27.375,204.273,26.779,204.058,26.299,203.629z M26.766,205.174h6.831v3.696H32.31v-2.673h-5.544V205.174z M26.822,201.951
		c0,0.389,0.115,0.706,0.346,0.951c0.231,0.246,0.537,0.369,0.918,0.369s0.691-0.125,0.93-0.374s0.357-0.564,0.357-0.946
		c0-0.374-0.115-0.688-0.346-0.94s-0.545-0.38-0.941-0.38c-0.374,0-0.678,0.129-0.913,0.386
		C26.939,201.274,26.822,201.585,26.822,201.951z M30.903,203.613l0.033-1.078h1.375v-1.199h-1.375l-0.033-1.078h1.408v-1.198h1.287
		v5.609H32.31v-1.056H30.903z"/>
	<path d="M43.816,205.648l-0.715,0.935c-0.462-0.227-0.935-0.612-1.419-1.155c-0.484-0.542-0.795-1.045-0.935-1.507
		c-0.125,0.521-0.413,1.062-0.864,1.623c-0.451,0.561-0.955,0.977-1.512,1.248l-0.792-0.957c1.657-0.909,2.486-2.394,2.486-4.455
		v-0.264h-1.98v-1.056h5.225v1.056h-1.914v0.253C41.396,203.334,42.203,204.76,43.816,205.648z M45.565,199.059v3.772h1.397v1.067
		h-1.397v4.961h-1.287v-9.801H45.565z"/>
	<path d="M55.135,199.4c0,1.356-0.103,2.537-0.308,3.542h1.441v1.022h-8.855v-1.022h6.193c0.176-0.844,0.257-1.687,0.242-2.53
		h-5.302V199.4H55.135z M48.492,205.274h6.644v3.597h-1.276v-2.585h-5.368V205.274z"/>
</g>
<g>
	<path d="M27.595,109.424v-5.89h-1.97v-0.97h5.15v0.97h-1.95v5.89H27.595z"/>
	<path d="M31.745,109.424v-7.31h1.15v2.6h0.05c0.48-0.354,1.027-0.53,1.64-0.53c0.506,0,0.883,0.112,1.13,0.335
		c0.247,0.224,0.37,0.585,0.37,1.085v3.82h-1.16v-3.55c0-0.267-0.06-0.455-0.18-0.565c-0.12-0.109-0.35-0.165-0.69-0.165
		c-0.387,0-0.773,0.094-1.16,0.28v4H31.745z"/>
	<path d="M38.264,109.464v-5.64l-1.15,0.229v-0.72l1.74-0.78h0.65v6.91H38.264z"/>
</g>
<g>
	<path d="M40.471,128.437v-6.048h0.792v6.048H40.471z"/>
	<path d="M42.765,128.437v-6.048h0.792v5.373h2.664v0.675H42.765z"/>
	<path d="M46.96,125.845v-0.657h2.961v0.657H46.96z"/>
	<path d="M50.965,128.437v-0.468l1.386-1.44c0.504-0.527,0.872-0.968,1.103-1.318s0.347-0.719,0.347-1.103
		c0-0.396-0.099-0.688-0.297-0.878c-0.198-0.188-0.507-0.283-0.927-0.283c-0.414,0-0.861,0.159-1.341,0.478l-0.189-0.612
		c0.54-0.36,1.101-0.54,1.683-0.54c0.612,0,1.083,0.156,1.413,0.468c0.33,0.312,0.495,0.741,0.495,1.287
		c0,0.486-0.133,0.932-0.4,1.337c-0.267,0.404-0.694,0.904-1.283,1.498l-0.9,0.909h2.7v0.666H50.965z"/>
	<path d="M40.471,139.237v-6.048h0.792v6.048H40.471z"/>
	<path d="M42.765,139.237v-6.048h3.501v0.684h-2.709v2.025h2.088v0.675h-2.088v2.664H42.765z"/>
	<path d="M47.337,139.237v-6.048h0.936l2.772,4.698h0.018v-4.698h0.729v6.048h-0.819l-2.889-4.95h-0.018v4.95H47.337z"/>
	<path d="M53.008,136.645v-0.657h2.961v0.657H53.008z"/>
	<path d="M58.848,140.577h-0.783c0.036-0.954-0.018-1.725-0.162-2.312c-0.144-0.631-0.362-1.267-0.653-1.908
		c-0.291-0.643-0.571-1.167-0.841-1.575h0.909c0.216,0.33,0.451,0.809,0.707,1.436c0.255,0.627,0.442,1.237,0.562,1.831h0.036
		c0.648-1.229,0.972-2.22,0.972-2.97c0-0.042-0.001-0.095-0.004-0.157c-0.003-0.063-0.005-0.109-0.005-0.14h0.765
		c0.012,0.054,0.018,0.153,0.018,0.297c0,0.966-0.498,2.205-1.494,3.717c-0.036,0.042-0.054,0.111-0.054,0.207
		C58.84,139.447,58.848,139.971,58.848,140.577z"/>
	<path d="M41.713,150.036v-5.364h-1.791v-0.684h4.365v0.684h-1.791v5.364H41.713z"/>
	<path d="M45.241,150.036v-6.048h0.936l2.772,4.698h0.018v-4.698h0.729v6.048h-0.819l-2.889-4.95H45.97v4.95H45.241z"/>
	<path d="M51.172,150.036v-6.048h3.501v0.684h-2.709v2.025h2.088v0.675h-2.088v2.664H51.172z"/>
	<path d="M55.483,147.445v-0.657h2.961v0.657H55.483z"/>
	<path d="M60.414,151.386H59.65c-0.06-0.264-0.09-0.708-0.09-1.332v-4.005c0-0.972,0.219-1.659,0.657-2.061
		c0.33-0.312,0.747-0.468,1.251-0.468c0.444,0,0.813,0.141,1.107,0.423s0.441,0.65,0.441,1.106c0,0.307-0.075,0.581-0.225,0.824
		c-0.15,0.242-0.333,0.418-0.549,0.526v0.045c0.36,0.065,0.665,0.244,0.914,0.535s0.374,0.665,0.374,1.12
		c0,0.553-0.18,0.992-0.54,1.319s-0.789,0.49-1.287,0.49c-0.558,0-1.002-0.174-1.332-0.522h-0.018v0.576
		C60.351,150.655,60.372,151.128,60.414,151.386z M60.343,145.959v2.655c0.114,0.18,0.276,0.337,0.486,0.473
		c0.21,0.135,0.447,0.202,0.711,0.202c0.342,0,0.623-0.114,0.842-0.342c0.219-0.229,0.329-0.514,0.329-0.855
		c0-0.39-0.123-0.695-0.369-0.918c-0.246-0.222-0.567-0.342-0.963-0.359h-0.234v-0.531c0.042,0,0.093-0.006,0.153-0.019
		c0.306-0.018,0.543-0.132,0.711-0.342s0.252-0.462,0.252-0.756c0-0.306-0.08-0.552-0.238-0.738
		c-0.159-0.186-0.365-0.278-0.617-0.278C60.697,144.151,60.343,144.753,60.343,145.959z"/>
</g>
<g>
	<path d="M254.738,128.437v-6.048h0.792v6.048H254.738z"/>
	<path d="M257.033,128.437v-6.048h0.792v5.373h2.664v0.675H257.033z"/>
	<path d="M261.227,125.845v-0.657h2.961v0.657H261.227z"/>
	<path d="M267.797,128.572v-1.305h-2.897v-0.549l3.042-4.429h0.603v4.348h1.008v0.63h-1.008v1.305H267.797z M265.727,126.637h2.078
		v-3.024L265.727,126.637z"/>
	<path d="M269.948,129.652l0.314-1.818h0.909l-0.558,1.818H269.948z"/>
	<path d="M275.068,128.437v-6.048h0.792v6.048H275.068z"/>
	<path d="M277.363,128.437v-6.048h0.792v5.373h2.664v0.675H277.363z"/>
	<path d="M281.557,125.845v-0.657h2.961v0.657H281.557z"/>
	<path d="M287.002,128.545c-0.702,0-1.271-0.15-1.71-0.45l0.153-0.63c0.18,0.113,0.398,0.213,0.657,0.297
		c0.258,0.084,0.501,0.126,0.729,0.126c0.468,0,0.834-0.122,1.099-0.364c0.264-0.243,0.396-0.575,0.396-0.995
		c0-0.828-0.486-1.242-1.458-1.242c-0.402,0-0.822,0.1-1.26,0.297l0.216-3.203h3.087v0.656h-2.457l-0.117,1.765
		c0.312-0.084,0.595-0.126,0.847-0.126c0.624,0,1.106,0.155,1.448,0.468c0.343,0.312,0.514,0.78,0.514,1.404
		c0,0.563-0.195,1.038-0.585,1.422C288.169,128.353,287.65,128.545,287.002,128.545z"/>
	<path d="M254.738,139.237v-6.048h0.792v6.048H254.738z"/>
	<path d="M257.033,139.237v-6.048h0.792v5.373h2.664v0.675H257.033z"/>
	<path d="M261.227,136.645v-0.657h2.961v0.657H261.227z"/>
	<path d="M267.302,139.345c-0.684,0-1.207-0.236-1.57-0.707s-0.544-1.139-0.544-2.002v-0.469c0-1.044,0.214-1.819,0.644-2.326
		c0.429-0.507,1.012-0.761,1.75-0.761c0.282,0,0.554,0.038,0.814,0.112c0.261,0.075,0.464,0.158,0.607,0.248l-0.198,0.585
		c-0.12-0.072-0.294-0.137-0.521-0.193c-0.229-0.058-0.436-0.086-0.621-0.086c-0.534,0-0.938,0.17-1.211,0.509
		c-0.272,0.339-0.427,0.943-0.463,1.813c0.42-0.42,0.912-0.63,1.476-0.63c0.528,0,0.963,0.168,1.306,0.504
		c0.342,0.336,0.513,0.783,0.513,1.341c0,0.601-0.177,1.094-0.531,1.48C268.397,139.151,267.914,139.345,267.302,139.345z
		 M267.284,138.705c0.378,0,0.675-0.118,0.891-0.355c0.217-0.236,0.324-0.565,0.324-0.985c0-0.852-0.402-1.278-1.206-1.278
		c-0.258,0-0.506,0.074-0.742,0.221c-0.237,0.147-0.425,0.316-0.562,0.509v0.062C265.988,138.097,266.42,138.705,267.284,138.705z"
		/>
	<path d="M269.921,140.451l0.315-1.818h0.909l-0.559,1.818H269.921z"/>
	<path d="M275.042,139.237v-6.048h0.792v6.048H275.042z"/>
	<path d="M277.336,139.237v-6.048h0.792v5.373h2.664v0.675H277.336z"/>
	<path d="M281.53,136.645v-0.657h2.961v0.657H281.53z"/>
	<path d="M286.516,139.273v-5.292l-1.099,0.243v-0.459l1.458-0.676h0.433v6.184H286.516z"/>
	<path d="M291.151,139.345c-0.679,0-1.223-0.239-1.634-0.716c-0.411-0.478-0.616-1.208-0.616-2.191v-0.478
		c0-1.002,0.21-1.732,0.63-2.191s0.963-0.688,1.629-0.688c0.654,0,1.184,0.227,1.589,0.68c0.404,0.453,0.607,1.175,0.607,2.164
		v0.522c0,0.984-0.203,1.713-0.607,2.187C292.344,139.108,291.811,139.345,291.151,139.345z M291.151,138.697
		c0.462,0,0.809-0.171,1.039-0.513c0.231-0.343,0.347-0.889,0.347-1.639v-0.621c0-1.464-0.459-2.195-1.377-2.195
		c-0.942,0-1.413,0.711-1.413,2.133v0.639C289.747,137.964,290.215,138.697,291.151,138.697z"/>
	<path d="M254.738,150.036v-6.048h0.792v6.048H254.738z"/>
	<path d="M257.033,150.036v-6.048h0.792v5.373h2.664v0.675H257.033z"/>
	<path d="M261.227,147.445v-0.657h2.961v0.657H261.227z"/>
	<path d="M266.213,150.073v-5.292l-1.098,0.243v-0.459l1.458-0.676h0.432v6.184H266.213z"/>
	<path d="M270.1,150.126c-0.689,0-1.245-0.144-1.665-0.432l0.162-0.612c0.168,0.114,0.386,0.209,0.652,0.283
		c0.268,0.075,0.515,0.113,0.743,0.113c0.479,0,0.851-0.103,1.111-0.307s0.392-0.492,0.392-0.864c0-0.365-0.129-0.64-0.388-0.823
		c-0.258-0.183-0.614-0.274-1.07-0.274h-0.585v-0.657h0.53c0.391-0.006,0.702-0.1,0.937-0.283c0.234-0.183,0.351-0.434,0.351-0.752
		c0-0.647-0.396-0.972-1.188-0.972c-0.391,0-0.831,0.139-1.323,0.414l-0.117-0.63c0.192-0.12,0.442-0.225,0.752-0.315
		c0.309-0.09,0.596-0.135,0.859-0.135c0.558,0,1.004,0.134,1.337,0.4c0.333,0.268,0.499,0.638,0.499,1.111
		c0,0.685-0.381,1.155-1.143,1.413c0.905,0.168,1.358,0.676,1.358,1.521c0,0.54-0.199,0.975-0.599,1.305
		C271.308,149.961,270.772,150.126,270.1,150.126z"/>
</g>
<g>
	<path d="M134.798,36.65v-5.89h-1.97v-0.97h5.15v0.97h-1.95v5.89H134.798z"/>
	<path d="M138.948,36.65v-7.31h1.15v2.6h0.05c0.48-0.354,1.027-0.53,1.64-0.53c0.506,0,0.883,0.112,1.13,0.335
		c0.247,0.224,0.37,0.585,0.37,1.085v3.82h-1.16V33.1c0-0.267-0.06-0.455-0.18-0.565c-0.12-0.109-0.35-0.165-0.69-0.165
		c-0.387,0-0.773,0.094-1.16,0.28v4H138.948z"/>
	<path d="M147.137,36.77c-0.801,0-1.444-0.271-1.93-0.815c-0.487-0.543-0.73-1.368-0.73-2.475v-0.43c0-0.594,0.071-1.11,0.215-1.55
		c0.144-0.44,0.342-0.787,0.595-1.04c0.253-0.254,0.535-0.44,0.844-0.561c0.311-0.12,0.648-0.18,1.016-0.18
		c0.78,0,1.415,0.267,1.905,0.8c0.489,0.533,0.734,1.367,0.734,2.5v0.43c0,1.134-0.246,1.971-0.74,2.511
		C148.554,36.501,147.917,36.77,147.137,36.77z M147.137,35.83c0.466,0,0.812-0.181,1.04-0.545c0.227-0.363,0.34-0.948,0.34-1.755
		v-0.51c0-1.566-0.457-2.35-1.37-2.35c-0.474,0-0.823,0.182-1.05,0.545c-0.227,0.363-0.34,0.941-0.34,1.734v0.53
		C145.757,35.047,146.217,35.83,147.137,35.83z"/>
</g>
<g>
	<path d="M172.551,11.26v6.402h-4.653V11.26H172.551z M171.253,16.639v-4.355h-2.068v4.355H171.253z M175.554,20.159h-1.287v-9.801
		h1.287V20.159z"/>
	<path d="M177.292,12.031v-1.057h5.17v1.057h-1.87c0.051,0.646,0.282,1.199,0.692,1.661c0.411,0.462,0.902,0.788,1.475,0.979
		l-0.693,1.012c-0.403-0.153-0.809-0.406-1.216-0.759c-0.406-0.352-0.709-0.744-0.907-1.177c-0.146,0.462-0.439,0.902-0.88,1.32
		c-0.439,0.418-0.905,0.711-1.396,0.88l-0.771-1.013c0.696-0.249,1.254-0.625,1.672-1.127s0.646-1.095,0.683-1.776H177.292z
		 M185.08,20.038h-6.502v-3.927h1.287v0.968h3.916v-0.99h1.299V20.038z M183.781,19.015V18.07h-3.916v0.945H183.781z
		 M185.068,15.594h-1.287v-1.99h-1.451V12.57h1.451v-2.211h1.287V15.594z"/>
	<path d="M195.331,16.639h-8.854v-1.022h3.762v-0.924h1.287v0.924h3.806V16.639z M194.946,14.033l-0.495,1.056
		c-0.726-0.051-1.428-0.218-2.106-0.5s-1.16-0.614-1.446-0.996c-0.279,0.396-0.744,0.731-1.397,1.007
		c-0.652,0.275-1.371,0.427-2.155,0.456l-0.518-1.033c0.785,0,1.485-0.114,2.102-0.342c0.615-0.227,1.022-0.513,1.221-0.857h-2.794
		v-0.99h7.095v0.99h-2.761c0.205,0.345,0.617,0.632,1.237,0.863C193.547,13.917,194.221,14.033,194.946,14.033z M187.378,17.222
		h6.843v2.948h-1.276v-1.936h-5.566V17.222z M189.27,11.414v-1.001h3.256v1.001H189.27z"/>
	<path d="M201.017,18.839v-6.479h-2.167v-1.067h5.665v1.067h-2.145v6.479H201.017z"/>
	<path d="M210.114,16.86l-0.726,0.913c-0.352-0.221-0.708-0.552-1.067-0.996c-0.359-0.443-0.598-0.893-0.715-1.348
		c-0.139,0.514-0.381,1.005-0.726,1.475c-0.345,0.469-0.744,0.84-1.199,1.11l-0.759-0.88c0.646-0.418,1.149-0.997,1.513-1.737
		c0.362-0.741,0.544-1.617,0.544-2.63v-1.463h1.232v1.452c0,0.946,0.167,1.776,0.5,2.491C209.046,15.963,209.513,16.5,210.114,16.86
		z M211.545,19.708h-1.199v-4.928h-1.32v-1.045h1.32v-3.19h1.199V19.708z M213.503,20.159h-1.222v-9.801h1.222V20.159z"/>
	<path d="M223.534,18.927h-8.854v-1.012h3.762v-1.892h-2.948V15h1.441l-0.275-2.255l1.287-0.165l0.198,2.42h1.958l0.352-2.398
		l1.243,0.21L221.29,15h1.387v1.023h-2.948v1.892h3.806V18.927z M222.698,12.118h-7.227v-1.023h7.227V12.118z"/>
</g>
<g>
	<path d="M242.428,109.424v-5.89h-1.97v-0.97h5.149v0.97h-1.949v5.89H242.428z"/>
	<path d="M246.578,109.424v-7.31h1.149v2.6h0.05c0.48-0.354,1.027-0.53,1.641-0.53c0.506,0,0.883,0.112,1.13,0.335
		c0.246,0.224,0.37,0.585,0.37,1.085v3.82h-1.16v-3.55c0-0.267-0.061-0.455-0.18-0.565c-0.12-0.109-0.351-0.165-0.69-0.165
		c-0.387,0-0.773,0.094-1.16,0.28v4H246.578z"/>
	<path d="M252.088,109.424v-0.72l1.31-1.38c0.58-0.613,1.01-1.122,1.29-1.525s0.42-0.798,0.42-1.185c0-0.407-0.108-0.7-0.325-0.88
		c-0.217-0.181-0.548-0.271-0.994-0.271c-0.44,0-0.914,0.153-1.421,0.46l-0.199-0.91c0.593-0.347,1.243-0.52,1.949-0.52
		c0.74,0,1.304,0.17,1.69,0.51c0.387,0.34,0.58,0.823,0.58,1.45c0,0.286-0.052,0.575-0.155,0.865s-0.265,0.583-0.484,0.88
		c-0.221,0.297-0.412,0.536-0.575,0.72c-0.164,0.184-0.385,0.422-0.665,0.715l-0.811,0.83h2.75v0.96H252.088z"/>
</g>
<g>
	<path d="M216.641,200.731v-1.057h5.17v1.057h-1.881c0.029,0.689,0.251,1.275,0.666,1.76c0.414,0.484,0.918,0.825,1.513,1.023
		l-0.704,1.001c-0.396-0.14-0.8-0.389-1.21-0.748c-0.411-0.359-0.716-0.752-0.913-1.178c-0.147,0.462-0.44,0.902-0.88,1.32
		c-0.44,0.418-0.906,0.712-1.397,0.88l-0.759-1.012c0.719-0.257,1.288-0.649,1.71-1.177c0.422-0.528,0.64-1.151,0.655-1.87H216.641z
		 M217.775,205.307h6.644v3.563h-1.298v-2.552h-5.346V205.307z M224.408,204.8h-1.287v-2.32h-1.452v-1.034h1.452v-2.387h1.287V204.8
		z"/>
	<path d="M234.671,203.525v1.022h-8.854v-1.022H234.671z M233.67,206.99c0,0.558-0.301,0.999-0.901,1.325
		c-0.602,0.326-1.441,0.49-2.52,0.49s-1.918-0.164-2.519-0.49c-0.602-0.326-0.902-0.768-0.902-1.325
		c0-0.564,0.301-1.012,0.902-1.342c0.601-0.33,1.437-0.495,2.508-0.495c1.078,0,1.919,0.165,2.524,0.495
		C233.367,205.978,233.67,206.425,233.67,206.99z M227.741,202.54c-0.602-0.349-0.902-0.802-0.902-1.358
		c0-0.558,0.301-1.009,0.902-1.354s1.434-0.517,2.497-0.517c1.07,0,1.908,0.172,2.514,0.517c0.604,0.345,0.907,0.796,0.907,1.354
		c0,0.557-0.301,1.01-0.902,1.358c-0.602,0.348-1.438,0.522-2.508,0.522S228.343,202.888,227.741,202.54z M232.339,207
		c0-0.249-0.188-0.449-0.566-0.6c-0.378-0.149-0.889-0.226-1.534-0.226c-0.639,0-1.146,0.076-1.523,0.226
		c-0.378,0.15-0.566,0.351-0.566,0.6c0,0.242,0.188,0.433,0.566,0.572c0.377,0.14,0.885,0.209,1.523,0.209
		c0.646,0,1.156-0.069,1.534-0.209S232.339,207.243,232.339,207z M228.709,200.538c-0.366,0.157-0.55,0.372-0.55,0.644
		c0,0.271,0.185,0.489,0.556,0.654c0.37,0.165,0.878,0.247,1.523,0.247c0.638,0,1.147-0.084,1.528-0.253
		c0.382-0.168,0.572-0.385,0.572-0.648c0-0.271-0.186-0.486-0.556-0.644c-0.37-0.158-0.885-0.237-1.545-0.237
		C229.585,200.301,229.076,200.38,228.709,200.538z"/>
	<path d="M240.259,204.471h-4.543v-4.588h4.543V204.471z M243.625,208.596h-6.645v-3.036h1.276v2.013h5.368V208.596z
		 M238.982,203.469v-2.596h-1.99v2.596H238.982z M242.15,201.611h-1.363v-1.012h1.363v-1.54h1.276v7.105h-1.276v-2.397h-1.363
		v-1.013h1.363V201.611z"/>
	<path d="M245.654,203.629c-0.48-0.429-0.721-0.984-0.721-1.667c0-0.682,0.24-1.252,0.721-1.71c0.479-0.458,1.076-0.688,1.787-0.688
		s1.309,0.229,1.793,0.688s0.726,1.028,0.726,1.71c0,0.683-0.238,1.238-0.715,1.667s-1.078,0.644-1.804,0.644
		C246.73,204.273,246.134,204.058,245.654,203.629z M246.121,205.174h6.831v3.696h-1.287v-2.673h-5.544V205.174z M246.177,201.951
		c0,0.389,0.115,0.706,0.346,0.951c0.231,0.246,0.537,0.369,0.919,0.369c0.381,0,0.691-0.125,0.93-0.374s0.357-0.564,0.357-0.946
		c0-0.374-0.115-0.688-0.347-0.94c-0.23-0.253-0.545-0.38-0.94-0.38c-0.374,0-0.679,0.129-0.913,0.386
		S246.177,201.585,246.177,201.951z M250.258,203.613l0.032-1.078h1.375v-1.199h-1.375l-0.032-1.078h1.407v-1.198h1.287v5.609
		h-1.287v-1.056H250.258z"/>
	<path d="M257.33,201.941c0-0.675,0.242-1.241,0.726-1.699c0.484-0.459,1.082-0.688,1.793-0.688c0.712,0,1.313,0.227,1.805,0.682
		s0.736,1.022,0.736,1.705c0,0.689-0.241,1.248-0.726,1.678c-0.484,0.429-1.089,0.644-1.815,0.644c-0.711,0-1.309-0.217-1.793-0.649
		C257.572,203.18,257.33,202.622,257.33,201.941z M258.573,201.941c0,0.381,0.119,0.696,0.357,0.946
		c0.238,0.249,0.544,0.373,0.918,0.373c0.382,0,0.693-0.126,0.936-0.379s0.363-0.566,0.363-0.94s-0.118-0.688-0.353-0.94
		s-0.55-0.38-0.946-0.38c-0.374,0-0.68,0.129-0.918,0.385C258.692,201.262,258.573,201.574,258.573,201.941z M258.727,205.251h6.644
		v3.619h-1.298v-2.606h-5.346V205.251z M265.36,204.756h-1.287v-2.343h-1.32v-1.034h1.32v-2.32h1.287V204.756z"/>
	<path d="M271.597,205.669l-0.727,0.924c-0.337-0.212-0.677-0.54-1.018-0.984c-0.341-0.443-0.57-0.874-0.688-1.292
		c-0.117,0.455-0.357,0.928-0.721,1.419c-0.362,0.491-0.742,0.851-1.138,1.078l-0.781-0.869c1.349-0.895,2.023-2.313,2.023-4.257
		v-0.474H266.9v-1.022h4.422v1.022h-1.529v0.451c0,0.953,0.154,1.773,0.462,2.459C270.563,204.81,271.011,205.325,271.597,205.669z
		 M273.148,208.409h-1.199v-4.917h-1.276v-1.056h1.276v-3.19h1.199V208.409z M275.117,208.86h-1.221v-9.801h1.221V208.86z"/>
</g>
<g>
	<circle fill="#DCDEE0" cx="142.235" cy="13.161" r="13.161"/>
	<circle fill="#4C535A" cx="142.235" cy="13.161" r="9.677"/>
</g>
<g>
	<line x1="35.032" y1="117.419" x2="35.032" y2="162.095"/>
	<g>
		
			<line fill="none" stroke="#000000" stroke-width="0.5" stroke-miterlimit="10" x1="35.032" y1="117.419" x2="35.032" y2="159.11"/>
		<g>
			<polygon points="33.181,157.706 35.032,158.492 36.884,157.706 35.032,162.095 			"/>
		</g>
	</g>
</g>
<g>
	<line x1="249.005" y1="117.419" x2="249.005" y2="162.095"/>
	<g>
		
			<line fill="none" stroke="#000000" stroke-width="0.5" stroke-miterlimit="10" x1="249.005" y1="117.419" x2="249.005" y2="159.11"/>
		<g>
			<polygon points="247.153,157.706 249.005,158.492 250.857,157.706 249.005,162.095 			"/>
		</g>
	</g>
</g>
<g>
	<polyline fill="none" stroke="#000000" stroke-width="0.433" stroke-miterlimit="10" points="35.032,62.065 35.032,52 142.235,52 
		249.005,52 249.005,62.065 	"/>
	<line fill="none" stroke="#000000" stroke-width="0.433" stroke-miterlimit="10" x1="142.235" y1="41.935" x2="142.235" y2="52"/>
</g>
<g>
</g>
<g>
</g>
<g>
</g>
<g>
</g>
<g>
</g>
<g>
</g>
<g>
</g>
</svg>
