<?xml version="1.0" encoding="utf-8"?>
<!-- Generator: Adobe Illustrator 28.0.0, SVG Export Plug-In . SVG Version: 6.00 Build 0)  -->
<svg version="1.1" id="레이어_1" xmlns="http://www.w3.org/2000/svg" xmlns:xlink="http://www.w3.org/1999/xlink" x="0px"
	 y="0px" viewBox="0 0 431.044 185.183" enable-background="new 0 0 431.044 185.183" xml:space="preserve">
<g>
	<path fill="none" stroke="#313B94" stroke-width="5" stroke-miterlimit="10" d="M22.368,45.468
		c29.611,29.611,77.532,29.611,107.143,0"/>
	<path fill="none" stroke="#313B94" stroke-width="5" stroke-miterlimit="10" d="M306.473,45.468
		c29.611,29.611,77.532,29.611,107.144,0"/>
	<line fill="none" stroke="#313B94" stroke-width="5" stroke-miterlimit="10" x1="75.919" y1="71.676" x2="360.044" y2="71.676"/>
	<polygon fill="#2F4399" points="198.18,122.135 217.981,73.559 237.782,122.135 	"/>
	<line fill="none" stroke="#000000" stroke-width="2" stroke-miterlimit="10" x1="15" y1="122.135" x2="426" y2="122.135"/>
	<g>
		<path d="M64.105,2.348h1.489V14.08h-1.489V2.348z"/>
		<path d="M68.793,2.348h1.489v10.468h5.122v1.265h-6.611V2.348z"/>
		<path d="M75.64,9.038h4.098v1.12H75.64V9.038z"/>
		<path d="M81.16,13.216c3.682-3.218,5.378-5.555,5.378-7.571c0-1.345-0.705-2.32-2.161-2.32c-0.96,0-1.792,0.592-2.433,1.36
			l-0.849-0.833c0.96-1.04,1.969-1.729,3.458-1.729c2.097,0,3.409,1.377,3.409,3.474c0,2.337-1.84,4.722-4.594,7.331
			c0.608-0.048,1.329-0.112,1.921-0.112h3.25v1.265H81.16V13.216z"/>
		<path d="M59.665,21.548h1.489V33.28h-1.489V21.548z"/>
		<path d="M64.353,21.548h1.489v10.468h5.122v1.265h-6.611V21.548z"/>
		<path d="M71.2,28.238h4.098v1.12H71.2V28.238z"/>
		<path d="M77.424,32.063h2.609v-8.755h-2.081V22.38c1.04-0.192,1.792-0.464,2.433-0.832h1.121v10.516h2.353v1.217h-6.435V32.063z"
			/>
		<path d="M85.6,32.416c3.682-3.218,5.378-5.555,5.378-7.571c0-1.345-0.704-2.321-2.161-2.321c-0.96,0-1.792,0.593-2.433,1.361
			l-0.849-0.833c0.96-1.04,1.969-1.729,3.458-1.729c2.097,0,3.409,1.377,3.409,3.474c0,2.337-1.84,4.722-4.594,7.331
			c0.608-0.048,1.329-0.112,1.921-0.112h3.25v1.265H85.6V32.416z"/>
		<path d="M57.889,40.748h1.489V52.48h-1.489V40.748z"/>
		<path d="M62.577,40.748h6.771v1.248h-5.282v3.97h4.482v1.248h-4.482v5.267h-1.489V40.748z"/>
		<path d="M71.409,40.748h1.537l4.274,7.395l1.249,2.417h0.08c-0.08-1.185-0.192-2.497-0.192-3.714v-6.098h1.409V52.48h-1.521
			l-4.274-7.411l-1.265-2.417h-0.064c0.064,1.185,0.176,2.434,0.176,3.666v6.162h-1.409V40.748z"/>
		<path d="M82.096,47.438h4.098v1.12h-4.098V47.438z"/>
		<path d="M90.497,53.521c0-2.896-1.729-7.267-3.474-9.571l1.457-0.385c1.088,1.521,2.369,4.482,2.881,7.203h0.08
			c1.121-2.192,2.097-4.562,2.289-6.979h1.473c-0.464,2.929-1.312,5.122-3.458,8.611c0.144,1.04,0.192,2.273,0.192,3.266h-1.504
			C90.497,54.882,90.497,54.481,90.497,53.521z"/>
	</g>
	<g>
		<path d="M346.437,2.348h1.488V14.08h-1.488V2.348z"/>
		<path d="M351.125,2.348h1.489v10.468h5.122v1.265h-6.611V2.348z"/>
		<path d="M357.972,9.038h4.098v1.12h-4.098V9.038z"/>
		<path d="M371.16,10.847h-1.553v3.233h-1.393v-3.233h-5.106v-0.96l4.882-7.539h1.617v7.331h1.553V10.847z M368.214,9.679V6.077
			c0-0.576,0.063-1.521,0.096-2.129h-0.064c-0.288,0.576-0.607,1.152-0.944,1.729l-2.673,4.002H368.214z"/>
		<path d="M346.437,21.548h1.488V33.28h-1.488V21.548z"/>
		<path d="M351.125,21.548h1.489v10.468h5.122v1.265h-6.611V21.548z"/>
		<path d="M357.972,28.238h4.098v1.12h-4.098V28.238z"/>
		<path d="M363.236,31.936l0.721-0.96c0.672,0.672,1.521,1.296,2.881,1.296c1.377,0,2.497-1.056,2.497-2.769
			c0-1.681-0.96-2.673-2.433-2.673c-0.785,0-1.281,0.239-1.953,0.688l-0.784-0.479l0.368-5.49h5.714v1.248h-4.434l-0.288,3.394
			c0.513-0.288,1.04-0.464,1.745-0.464c1.952,0,3.537,1.152,3.537,3.729s-1.856,4.033-3.842,4.033
			C365.141,33.488,364.02,32.72,363.236,31.936z"/>
		<path d="M343.789,40.748h1.489V52.48h-1.489V40.748z"/>
		<path d="M348.477,40.748h1.488v10.468h5.122v1.265h-6.61V40.748z"/>
		<path d="M355.325,47.438h4.098v1.12h-4.098V47.438z"/>
		<path d="M361.548,51.264h2.609v-8.755h-2.081V41.58c1.04-0.192,1.793-0.464,2.433-0.832h1.121v10.516h2.353v1.217h-6.435V51.264z"
			/>
		<path d="M369.804,46.574c0-4.082,1.425-6.051,3.665-6.051c2.226,0,3.649,1.985,3.649,6.051c0,4.081-1.424,6.114-3.649,6.114
			C371.229,52.688,369.804,50.655,369.804,46.574z M375.695,46.574c0-3.426-0.896-4.866-2.226-4.866c-1.344,0-2.24,1.44-2.24,4.866
			c0,3.457,0.896,4.946,2.24,4.946C374.798,51.521,375.695,50.031,375.695,46.574z"/>
	</g>
	<g>
		<path d="M49.39,104.65h-3.554v-1.248h8.596v1.248h-3.554v10.484H49.39V104.65z"/>
		<path d="M56.397,102.393h1.457v3.489l-0.048,1.793c0.8-0.801,1.696-1.457,2.881-1.457c1.825,0,2.657,1.185,2.657,3.41v5.506
			h-1.457v-5.314c0-1.633-0.496-2.32-1.649-2.32c-0.896,0-1.504,0.448-2.385,1.328v6.307h-1.457V102.393z"/>
		<path d="M66.045,113.917h2.609v-8.755h-2.081v-0.929c1.04-0.192,1.792-0.464,2.433-0.832h1.121v10.516h2.353v1.217h-6.435V113.917
			z"/>
		<path d="M82.206,106.01c0,2.306,1.073,4.738,2.961,5.891l-0.752,1.024c-1.36-0.832-2.321-2.353-2.833-4.098
			c-0.512,1.905-1.553,3.537-2.978,4.418l-0.816-0.992c1.969-1.152,3.153-3.729,3.153-6.194v-2.737h1.264V106.01z M85.983,102.281
			h1.232v13.334h-1.232v-7.411h-2.369v-1.089h2.369V102.281z M90.145,101.961v14.357h-1.249v-14.357H90.145z"/>
		<path d="M105.681,113.454v1.072H92.668v-1.072h5.811v-3.297h-4.626V109.1h2.193v-4.706H93.82v-1.057h10.644v1.057h-2.225v4.706
			h2.193v1.057h-4.626v3.297H105.681z M97.358,109.1h3.57v-4.706h-3.57V109.1z"/>
	</g>
	<g>
		<path d="M339.389,104.65h-3.554v-1.248h8.596v1.248h-3.554v10.484h-1.488V104.65z"/>
		<path d="M346.396,102.393h1.457v3.489l-0.048,1.793c0.8-0.801,1.696-1.457,2.881-1.457c1.824,0,2.657,1.185,2.657,3.41v5.506
			h-1.457v-5.314c0-1.633-0.496-2.32-1.648-2.32c-0.896,0-1.505,0.448-2.385,1.328v6.307h-1.457V102.393z"/>
		<path d="M355.339,114.27c3.682-3.218,5.379-5.555,5.379-7.571c0-1.345-0.705-2.32-2.161-2.32c-0.96,0-1.793,0.592-2.433,1.36
			l-0.849-0.833c0.96-1.04,1.969-1.729,3.457-1.729c2.097,0,3.409,1.377,3.409,3.474c0,2.337-1.84,4.722-4.594,7.331
			c0.608-0.048,1.329-0.112,1.921-0.112h3.25v1.265h-7.38V114.27z"/>
		<path d="M372.206,106.01c0,2.306,1.072,4.738,2.961,5.891l-0.752,1.024c-1.36-0.832-2.321-2.353-2.833-4.098
			c-0.513,1.905-1.553,3.537-2.978,4.418l-0.816-0.992c1.969-1.152,3.153-3.729,3.153-6.194v-2.737h1.265V106.01z M375.983,102.281
			h1.232v13.334h-1.232v-7.411h-2.369v-1.089h2.369V102.281z M380.145,101.961v14.357h-1.249v-14.357H380.145z"/>
		<path d="M395.681,113.454v1.072h-13.014v-1.072h5.811v-3.297h-4.626V109.1h2.192v-4.706h-2.225v-1.057h10.645v1.057h-2.225v4.706
			h2.192v1.057h-4.626v3.297H395.681z M387.357,109.1h3.57v-4.706h-3.57V109.1z"/>
	</g>
	<g>
		<rect x="142" y="135.135" fill="none" width="142" height="41"/>
		<path d="M191.611,143.997h-6.547v-6.691h6.547v1.265h3.297v-2.513h1.329v10.468h-1.329v-3.81h-3.297V143.997z M190.331,138.346
			h-3.969v4.609h3.969V138.346z M196.573,149.006v1.072h-9.572v-4.481h1.312v3.409H196.573z M191.611,139.642v2.001h3.297v-2.001
			H191.611z"/>
		<path d="M210.958,136.042v8.467h-1.329v-2.064h-3.633c-0.672,0.816-1.713,1.312-2.961,1.312c-2.113,0-3.682-1.44-3.682-3.474
			c0-2.017,1.569-3.441,3.682-3.441c1.249,0,2.305,0.496,2.977,1.312h3.618v-2.097L210.958,136.042z M205.483,140.283
			c0-1.345-1.041-2.321-2.449-2.321c-1.393,0-2.433,0.977-2.433,2.321c0,1.377,1.041,2.353,2.433,2.353
			C204.443,142.635,205.483,141.66,205.483,140.283z M201.354,145.292h9.604v5.122h-1.329v-4.05h-8.275V145.292z M209.629,141.372
			v-2.161h-3.057c0.096,0.336,0.16,0.688,0.16,1.072c0,0.4-0.064,0.752-0.16,1.089H209.629z"/>
		<path d="M221.084,144.188h-6.643v-7.106h1.297v2.4h4.065v-2.4h1.281V144.188z M219.802,140.507h-4.065v2.625h4.065V140.507z
			 M217.37,149.006h8.259v1.072h-9.571v-4.498h1.312V149.006z M227.118,140.395v1.104h-2.129v5.09h-1.312v-10.532h1.312v4.338
			H227.118z"/>
		<path d="M241.533,143.02v1.057h-12.965v-1.057H241.533z M240.092,139.146c0,1.713-1.937,2.722-5.042,2.722
			c-3.089,0-5.042-1.009-5.042-2.722c0-1.729,1.953-2.736,5.042-2.736C238.156,136.41,240.092,137.417,240.092,139.146z
			 M239.964,147.837c0,1.633-1.841,2.562-4.914,2.562c-3.057,0-4.914-0.929-4.914-2.562c0-1.648,1.857-2.561,4.914-2.561
			C238.124,145.277,239.964,146.189,239.964,147.837z M231.353,139.146c0,1.057,1.424,1.697,3.697,1.697
			c2.272,0,3.697-0.641,3.697-1.697c0-1.072-1.425-1.713-3.697-1.713C232.777,137.433,231.353,138.074,231.353,139.146z
			 M231.465,147.837c0,0.977,1.328,1.537,3.585,1.537s3.585-0.561,3.585-1.537c0-0.976-1.328-1.552-3.585-1.552
			S231.465,146.862,231.465,147.837z"/>
	</g>
	<g>
		<rect x="289.044" y="135.135" fill="none" width="142" height="41"/>
		<path d="M328.27,140.458c0,2.289,1.152,4.658,3.089,5.698l-0.752,0.993c-1.393-0.785-2.417-2.241-2.945-3.97
			c-0.496,1.824-1.505,3.425-2.913,4.273l-0.769-0.977c1.937-1.152,3.041-3.665,3.041-6.019v-0.688h-2.656v-1.089h2.656v-2.129
			h1.265v2.129h2.642v1.089h-2.657V140.458z M332.143,136.377h1.249v13.27h-1.249v-6.852h-2.192v-1.088h2.192V136.377z
			 M336.29,136.042v14.342h-1.265v-14.342H336.29z"/>
		<path d="M342.221,143.708c-1.889,0-3.266-1.377-3.266-3.378c0-2.017,1.377-3.394,3.266-3.394c1.873,0,3.266,1.377,3.266,3.394
			C345.487,142.332,344.094,143.708,342.221,143.708z M342.221,142.62c1.185,0,2.065-0.96,2.065-2.289
			c0-1.328-0.881-2.289-2.065-2.289c-1.2,0-2.081,0.961-2.081,2.289C340.14,141.66,341.021,142.62,342.221,142.62z M341.277,145.405
			h9.652v5.01h-1.312v-3.953h-8.34V145.405z M350.929,136.042v8.547h-1.265v-3.777h-1.825v3.697h-1.232v-8.195h1.232v3.426h1.825
			v-3.697H350.929z"/>
		<path d="M361.247,143.869c-1.568-0.593-2.785-1.729-3.409-3.218c-0.608,1.696-1.904,2.993-3.634,3.649l-0.688-1.072
			c2.208-0.784,3.633-2.705,3.633-4.898v-1.473h1.312v1.425c0,2.049,1.393,3.826,3.489,4.562L361.247,143.869z M365.392,147.677
			c0,1.713-1.824,2.706-4.77,2.706s-4.786-0.993-4.786-2.706c0-1.729,1.841-2.705,4.786-2.705S365.392,145.949,365.392,147.677z
			 M364.096,147.677c0-1.056-1.312-1.681-3.474-1.681s-3.474,0.625-3.474,1.681c0,1.041,1.312,1.665,3.474,1.665
			S364.096,148.718,364.096,147.677z M364.032,140.17h-3.121v-1.072h3.121v-3.041h1.329v8.483h-1.329V140.17z"/>
		<path d="M375.455,143.997h-6.547v-6.691h6.547v1.265h3.297v-2.513h1.328v10.468h-1.328v-3.81h-3.297V143.997z M374.173,138.346
			h-3.969v4.609h3.969V138.346z M380.417,149.006v1.072h-9.572v-4.481h1.312v3.409H380.417z M375.455,139.642v2.001h3.297v-2.001
			H375.455z"/>
		<path d="M394.799,136.042v8.467h-1.328v-2.064h-3.634c-0.672,0.816-1.713,1.312-2.961,1.312c-2.113,0-3.682-1.44-3.682-3.474
			c0-2.017,1.568-3.441,3.682-3.441c1.248,0,2.305,0.496,2.978,1.312h3.617v-2.097L394.799,136.042z M389.326,140.283
			c0-1.345-1.041-2.321-2.449-2.321c-1.393,0-2.433,0.977-2.433,2.321c0,1.377,1.04,2.353,2.433,2.353
			C388.285,142.635,389.326,141.66,389.326,140.283z M385.196,145.292h9.604v5.122h-1.328v-4.05h-8.275V145.292z M393.471,141.372
			v-2.161h-3.058c0.097,0.336,0.16,0.688,0.16,1.072c0,0.4-0.063,0.752-0.16,1.089H393.471z"/>
		<path d="M326.669,163.437c0-3.138,0.881-5.73,2.354-8.116l0.912,0.417c-1.393,2.288-2.049,4.978-2.049,7.699
			c0,2.721,0.656,5.426,2.049,7.698l-0.912,0.433C327.549,169.167,326.669,166.589,326.669,163.437z"/>
		<path d="M339.968,157.915h-8.468v-1.057h3.569v-1.745h1.312v1.745h3.586V157.915z M335.726,163.708
			c-2.049,0-3.425-0.992-3.425-2.545c0-1.536,1.376-2.529,3.425-2.529s3.441,0.993,3.441,2.529
			C339.168,162.716,337.775,163.708,335.726,163.708z M342.769,167.102c0,1.568-1.793,2.481-4.674,2.481
			c-2.897,0-4.674-0.913-4.674-2.481c0-1.585,1.776-2.481,4.674-2.481C340.976,164.621,342.769,165.517,342.769,167.102z
			 M335.726,162.716c1.312,0,2.193-0.608,2.193-1.553c0-0.929-0.881-1.536-2.193-1.536c-1.296,0-2.177,0.607-2.177,1.536
			C333.549,162.108,334.43,162.716,335.726,162.716z M341.472,167.102c0-0.929-1.28-1.473-3.377-1.473s-3.377,0.544-3.377,1.473
			s1.28,1.473,3.377,1.473S341.472,168.031,341.472,167.102z M344.722,159.227v1.088h-2.129v4.162h-1.312v-9.235h1.312v3.985
			H344.722z"/>
		<path d="M350.35,159.659c0,2.289,1.152,4.658,3.089,5.698l-0.752,0.993c-1.393-0.785-2.417-2.241-2.945-3.97
			c-0.496,1.824-1.505,3.425-2.913,4.273l-0.769-0.977c1.937-1.152,3.041-3.665,3.041-6.019v-0.688h-2.656v-1.089h2.656v-2.129
			h1.265v2.129h2.642v1.089h-2.657V159.659z M354.223,155.578h1.249v13.27h-1.249v-6.852h-2.192v-1.088h2.192V155.578z
			 M358.37,155.242v14.342h-1.265v-14.342H358.37z"/>
		<path d="M368.095,163.197h-6.547v-6.691h6.547v1.265h3.297v-2.513h1.329v10.468h-1.329v-3.81h-3.297V163.197z M366.814,157.546
			h-3.969v4.609h3.969V157.546z M373.057,168.207v1.072h-9.572v-4.481h1.312v3.409H373.057z M368.095,158.842v2.001h3.297v-2.001
			H368.095z"/>
		<path d="M387.44,155.242v8.467h-1.328v-2.064h-3.634c-0.672,0.816-1.713,1.312-2.961,1.312c-2.112,0-3.682-1.44-3.682-3.474
			c0-2.017,1.569-3.441,3.682-3.441c1.248,0,2.305,0.496,2.978,1.312h3.617v-2.097L387.44,155.242z M381.966,159.483
			c0-1.345-1.041-2.321-2.449-2.321c-1.393,0-2.433,0.977-2.433,2.321c0,1.377,1.04,2.353,2.433,2.353
			C380.925,161.835,381.966,160.86,381.966,159.483z M377.837,164.493h9.604v5.122h-1.328v-4.05h-8.275V164.493z M386.112,160.572
			v-2.161h-3.058c0.097,0.336,0.16,0.688,0.16,1.072c0,0.4-0.063,0.752-0.16,1.089H386.112z"/>
		<path d="M390.171,171.135c1.376-2.272,2.049-4.978,2.049-7.698c0-2.722-0.673-5.411-2.049-7.699l0.896-0.417
			c1.488,2.386,2.368,4.979,2.368,8.116c0,3.152-0.88,5.729-2.368,8.131L390.171,171.135z"/>
	</g>
	<g>
		<rect y="135.135" fill="none" width="150.029" height="41"/>
		<path d="M43.321,140.09c0,2.306,1.073,4.738,2.961,5.891l-0.752,1.024c-1.36-0.832-2.321-2.353-2.833-4.098
			c-0.512,1.905-1.553,3.537-2.978,4.418l-0.816-0.992c1.969-1.152,3.153-3.729,3.153-6.194v-2.737h1.264V140.09z M47.099,136.361
			h1.232v13.334h-1.232v-7.411H44.73v-1.089h2.369V136.361z M51.26,136.042v14.357h-1.249v-14.357H51.26z"/>
		<path d="M66.796,147.534v1.072H53.783v-1.072h5.811v-3.297h-4.626v-1.057h2.193v-4.706h-2.225v-1.057H65.58v1.057h-2.225v4.706
			h2.193v1.057h-4.626v3.297H66.796z M58.473,143.18h3.57v-4.706h-3.57V143.18z"/>
		<path d="M76.218,143.869c-1.569-0.593-2.785-1.729-3.409-3.218c-0.608,1.696-1.905,2.993-3.634,3.649l-0.688-1.072
			c2.208-0.784,3.633-2.705,3.633-4.898v-1.473h1.312v1.425c0,2.049,1.393,3.826,3.489,4.562L76.218,143.869z M80.363,147.677
			c0,1.713-1.825,2.706-4.77,2.706c-2.945,0-4.786-0.993-4.786-2.706c0-1.729,1.841-2.705,4.786-2.705
			C78.539,144.972,80.363,145.949,80.363,147.677z M79.067,147.677c0-1.056-1.312-1.681-3.473-1.681
			c-2.161,0-3.474,0.625-3.474,1.681c0,1.041,1.312,1.665,3.474,1.665C77.754,149.342,79.067,148.718,79.067,147.677z
			 M79.003,140.17h-3.121v-1.072h3.121v-3.041h1.329v8.483h-1.329V140.17z"/>
		<path d="M90.425,143.997h-6.546v-6.691h6.546v1.265h3.298v-2.513h1.328v10.468h-1.328v-3.81h-3.298V143.997z M89.145,138.346
			h-3.969v4.609h3.969V138.346z M95.388,149.006v1.072h-9.572v-4.481h1.312v3.409H95.388z M90.425,139.642v2.001h3.298v-2.001
			H90.425z"/>
		<path d="M109.771,136.042v8.467h-1.328v-2.064h-3.634c-0.672,0.816-1.713,1.312-2.961,1.312c-2.113,0-3.682-1.44-3.682-3.474
			c0-2.017,1.568-3.441,3.682-3.441c1.248,0,2.305,0.496,2.978,1.312h3.617v-2.097L109.771,136.042z M104.297,140.283
			c0-1.345-1.041-2.321-2.449-2.321c-1.393,0-2.433,0.977-2.433,2.321c0,1.377,1.04,2.353,2.433,2.353
			C103.256,142.635,104.297,141.66,104.297,140.283z M100.167,145.292h9.604v5.122h-1.328v-4.05h-8.275V145.292z M108.442,141.372
			v-2.161h-3.058c0.097,0.336,0.16,0.688,0.16,1.072c0,0.4-0.063,0.752-0.16,1.089H108.442z"/>
		<path d="M2.927,163.437c0-3.138,0.88-5.73,2.353-8.116l0.912,0.417c-1.393,2.288-2.049,4.978-2.049,7.699
			c0,2.721,0.656,5.426,2.049,7.698l-0.912,0.433C3.808,169.167,2.927,166.589,2.927,163.437z"/>
		<path d="M10.912,157.93H7.358v-1.248h8.596v1.248H12.4v10.484h-1.488V157.93z"/>
		<path d="M21.552,159.291c0,2.306,1.073,4.738,2.961,5.891l-0.752,1.024c-1.36-0.832-2.321-2.353-2.833-4.098
			c-0.512,1.905-1.553,3.537-2.978,4.418l-0.816-0.992c1.969-1.152,3.153-3.729,3.153-6.194v-2.737h1.264V159.291z M25.33,155.561
			h1.232v13.334H25.33v-7.411h-2.369v-1.089h2.369V155.561z M29.492,155.242v14.357h-1.249v-14.357H29.492z"/>
		<path d="M45.028,166.734v1.072H32.014v-1.072h5.811v-3.297h-4.626v-1.057h2.193v-4.706h-2.225v-1.057h10.644v1.057h-2.225v4.706
			h2.193v1.057h-4.626v3.297H45.028z M36.704,162.38h3.57v-4.706h-3.57V162.38z"/>
		<path d="M58.673,162.044h-6.707v-5.875h6.707V162.044z M59.106,165.469c0.016,1.377,2.257,2.77,4.722,3.073l-0.448,1.009
			c-2.161-0.305-4.082-1.297-4.93-2.625c-0.865,1.36-2.85,2.32-5.01,2.625l-0.432-1.009c2.449-0.288,4.738-1.648,4.754-3.073h-4.194
			v-1.008h4.21v-1.393h1.329v1.393h4.209v1.008H59.106z M57.393,157.21h-4.146v3.777h4.146V157.21z M62.979,163.485h-1.312v-8.243
			h1.312V163.485z"/>
		<path d="M78.418,163.037c-1.648-0.593-2.945-1.825-3.585-3.409c-0.624,1.696-1.937,3.024-3.618,3.665l-0.672-1.04
			c2.161-0.785,3.617-2.785,3.617-4.931v-1.408h1.312v1.408c0,2.065,1.473,3.938,3.602,4.674L78.418,163.037z M72.591,164.621h9.604
			v4.994h-1.312v-3.938h-8.291V164.621z M82.195,155.257v8.627h-1.312v-8.627H82.195z"/>
		<path d="M89.392,159.291c0,2.306,1.073,4.738,2.961,5.891l-0.752,1.024c-1.361-0.832-2.321-2.353-2.833-4.098
			c-0.512,1.905-1.553,3.537-2.978,4.418l-0.816-0.992c1.969-1.152,3.153-3.729,3.153-6.194v-2.737h1.264V159.291z M93.17,155.561
			h1.232v13.334H93.17v-7.411h-2.369v-1.089h2.369V155.561z M97.331,155.242v14.357h-1.248v-14.357H97.331z"/>
		<path d="M112.867,166.734v1.072H99.855v-1.072h5.81v-3.297h-4.625v-1.057h2.192v-4.706h-2.225v-1.057h10.645v1.057h-2.226v4.706
			h2.193v1.057h-4.626v3.297H112.867z M104.544,162.38h3.569v-4.706h-3.569V162.38z"/>
		<path d="M121.776,163.197h-6.546v-6.691h6.546v1.265h3.298v-2.513h1.328v10.468h-1.328v-3.81h-3.298V163.197z M120.496,157.546
			h-3.97v4.609h3.97V157.546z M126.739,168.207v1.072h-9.572v-4.481h1.312v3.409H126.739z M121.776,158.842v2.001h3.298v-2.001
			H121.776z"/>
		<path d="M141.122,155.242v8.467h-1.328v-2.064h-3.634c-0.672,0.816-1.713,1.312-2.961,1.312c-2.113,0-3.682-1.44-3.682-3.474
			c0-2.017,1.568-3.441,3.682-3.441c1.248,0,2.305,0.496,2.978,1.312h3.617v-2.097L141.122,155.242z M135.649,159.483
			c0-1.345-1.041-2.321-2.449-2.321c-1.393,0-2.433,0.977-2.433,2.321c0,1.377,1.04,2.353,2.433,2.353
			C134.608,161.835,135.649,160.86,135.649,159.483z M131.519,164.493h9.604v5.122h-1.328v-4.05h-8.275V164.493z M139.794,160.572
			v-2.161h-3.058c0.097,0.336,0.16,0.688,0.16,1.072c0,0.4-0.063,0.752-0.16,1.089H139.794z"/>
		<path d="M143.854,171.135c1.376-2.272,2.049-4.978,2.049-7.698c0-2.722-0.673-5.411-2.049-7.699l0.896-0.417
			c1.488,2.386,2.368,4.979,2.368,8.116c0,3.152-0.88,5.729-2.368,8.131L143.854,171.135z"/>
	</g>
</g>
<g>
</g>
<g>
</g>
<g>
</g>
<g>
</g>
<g>
</g>
<g>
</g>
</svg>
