<?xml version="1.0" encoding="UTF-8"?>
<svg id="_레이어_1" data-name="레이어 1" xmlns="http://www.w3.org/2000/svg" viewBox="0 0 454.677 313.278">
  <defs>
    <style>
      .cls-1 {
        font-size: 14px;
      }

      .cls-1, .cls-2 {
        fill: #231f20;
        font-family: AppleSDGothicNeoEB00, AppleSDGothicNeoEB00;
      }

      .cls-2 {
        font-size: 11px;
      }

      .cls-3, .cls-4 {
        stroke-width: 0px;
      }

      .cls-4 {
        fill: #fff;
      }
    </style>
  </defs>
  <g>
    <path class="cls-3" d="m42.029,277.427V0h412.648v277.427H42.029Zm.891-257.834c.989,0,1.815-.029,2.637.008.753.034,1.502.139,2.253.213-.021.201-.042.403-.063.604h-4.764v49.98h4.841c-.051.283-.061.455-.086.457-1.57.142-3.14.269-4.758.402v49.724h4.865c-.002.19-.005.38-.007.57h-4.861v51.191h42.383c.035-.336.072-.57.081-.805.193-5.519.408-11.037.569-16.557.485-16.657,1.035-33.313,1.395-49.973.31-14.318.375-28.642.583-42.962.184-12.707.386-25.414.64-38.12.128-6.4.385-12.798.603-19.196.014-.41.185-.814.283-1.221.154,0,.309,0,.463,0,.247.879.495,1.759.764,2.717.328-.686.6-1.255.872-1.823.143.005.286.01.429.015.327.988.655,1.976,1.027,3.099.301-.753.52-1.301.739-1.849.141.012.282.024.423.036.094.473.239.943.273,1.421.332,4.578.681,9.154.955,13.736.583,9.751,1.176,19.503,1.664,29.259.352,7.028.518,14.065.806,21.097.411,10.009.787,20.02,1.308,30.023.513,9.852,1.185,19.696,1.795,29.544.193,3.112.409,6.223.615,9.334.389-3.607.595-7.211.74-10.817.433-10.743.812-21.488,1.276-32.229.217-5.026.544-10.049.921-15.066.052-.693.686-1.342,1.051-2.011.303.662.795,1.303.875,1.991.391,3.344.733,6.696.98,10.053.596,8.085,1.148,16.174,1.684,24.263.356,5.361.625,10.728.986,16.089.532,7.895.962,15.801,1.723,23.674.5,5.176,1.495,10.306,2.31,15.45.052.328.446.834.713.855,1.156.091,2.398.216,2.569-1.51.071-.718.343-1.417.538-2.121.35-1.262.945-2.3,2.18-2.969.468-.253.857-.914.996-1.462.467-1.84.733-3.732,1.218-5.567.32-1.21.733-2.449,1.38-3.506.888-1.45,2.108-1.368,2.937.109.422.752.724,1.607.906,2.453.626,2.902,1.132,5.83,1.786,8.724.148.654.573,1.523,1.106,1.758,1.358.599,1.938,1.636,2.091,2.937.121,1.029.574,1.253,1.523,1.25,11.684-.04,23.369-.064,35.053-.032,1.157.003,1.639-.413,1.866-1.463.668-3.094,1.332-6.191,2.089-9.265.698-2.832,1.484-5.645,2.317-8.44.118-.397.72-.651,1.098-.97.223.396.605.777.645,1.19.255,2.672.471,5.349.63,8.028.213,3.597.362,7.198.535,10.733.226.098.312.167.398.167,4.399-.002,8.8.027,13.198-.057.674-.013,1.456-.412,1.981-.869.953-.83,1.877-1.344,2.965-.414,1.058.904,1.753.427,2.408-.455.582-.782,1.071-1.645,1.723-2.361,1.359-1.49,2.603-1.31,3.6.438.371.651.731,1.308,1.137,2.036,1.169-.976,2.133-1.877,3.193-2.645,1.622-1.175,3.101-.672,3.736,1.249.319.964.492,1.977.755,3.064,2.275,0,4.565-.032,6.854.017.872.019,1.291-.351,1.631-1.109.797-1.778,1.667-3.524,2.532-5.271.614-1.239,1.463-1.931,3.024-1.716,2.347.323,4.767-1.518,5.15-3.846.642-3.897,1.18-7.811,1.786-11.715.684-4.405.51-8.989,2.709-13.083.133-.248.182-.56.205-.847.505-6.23,1.025-12.459,1.492-18.691.525-7.014.987-14.033,1.511-21.047.102-1.36.302-2.721.585-4.054.091-.427.596-.766.911-1.146.284.343.721.645.823,1.036.258.985.411,2.004.525,3.018,1.196,10.617,2.25,21.252,3.603,31.848.938,7.346,2.178,14.66,3.477,21.953.947,5.318,2.193,10.584,3.341,15.865.637,2.932,1.346,5.849,2.027,8.789,3.231,0,6.307-.021,9.382.014.846.01,1.052-.42,1.169-1.135,1.317-8.028,3.09-16.01,3.879-24.089,1.043-10.688,1.307-21.452,1.938-32.182.094-1.603.313-3.203.579-4.787.064-.381.545-.693.835-1.036.328.353.684.684.973,1.067.136.18.179.454.202.691.204,2.089.464,4.175.577,6.269.453,8.391.857,16.785,1.288,25.178.037.711.143,1.419.217,2.129.315-1.861.46-3.702.571-5.544.44-7.363.863-14.726,1.303-22.089.542-9.069,1.086-18.138,1.65-27.206.182-2.925.399-5.849.679-8.765.039-.408.539-.773.826-1.157.178.41.469.807.515,1.231.232,2.135.452,4.274.58,6.417.351,5.901.625,11.807.982,17.707.743,12.288,1.515,24.575,2.287,36.862.441,7.023,2.235,13.743,4.702,20.292.27.716,1.054,1.59,1.735,1.73,1.574.324,2.336,1.258,2.879,2.596.931,2.292,2.027,2.734,4.07,1.204,2.088-1.564,3.714-.94,4.393,1.66.061.232.132.461.253.885.628-1.324,1.153-2.516,1.75-3.67,1.277-2.472,2.103-2.594,4.114-.675.062.059.18.059.508.157.509-.638,1.159-1.292,1.617-2.062.898-1.506,1.669-3.088,2.529-4.617,1.184-2.106,2.253-2.146,3.686-.165.592.818,1.172,1.645,1.806,2.534.374-.394.627-.623.836-.887,1.563-1.979,2.425-1.929,3.809.245.235.369.485.743.64,1.148,1.11,2.908,2.268,5.802,3.251,8.753.336,1.01.715,1.36,1.788,1.348,6.892-.072,13.785-.088,20.677-.07,1.049.003,1.828-.259,2.598-1.004.55-.531,1.397-.763,2.125-1.098.983-.452,2.151-.673,2.938-1.346,2.511-2.144,3.54-1.891,4.481,1.333.068.235.188.469.192.705.023,1.31.749,1.502,1.917,1.496,9.68-.053,19.36-.045,29.04-.045,8.8,0,17.6-.023,26.4.053,1.598.014,2.631-.466,3.416-1.862,1.171-2.082,2.492-4.079,3.735-6.121,1.348-2.213,3.073-2.734,5.314-1.427,1.044.609,1.901,1.528,2.91,2.206,2.787,1.871,5.509,3.875,8.457,5.453,1.571.841,3.549.945,5.356,1.317,1.203.247,2.429.38,3.761.582V.868H42.92v18.725Zm348.763,177.986c-.134-.03-.268-.06-.402-.09-.83,1.584-1.645,3.176-2.495,4.748-.686,1.268-1.188,2.941-2.917,2.936-1.728-.006-2.329-1.63-2.894-2.959-1.523-3.585-2.943-7.214-4.422-10.818-.251-.611-.594-1.184-1.002-1.986-.769.593-1.384,1.038-1.967,1.522-1.427,1.185-2.718,1-3.593-.632-.385-.719-.599-1.54-.822-2.334-.434-1.546-.778-3.117-1.238-4.655-.312-1.044-.958-1.7-2.168-1.872-1.879-.267-3.215-1.395-3.886-3.177-.392-1.042-.77-2.131-.883-3.226-.128-1.244-.698-1.486-1.812-1.447-2.197.078-4.402-.038-6.597.066-.688.033-1.492.363-2.004.823-1.011.907-2.401,1.874-3.375,1.2-2.413-1.671-4.446-.844-6.571.265-1.01.527-2.132,1.016-2.888,1.818-1.807,1.917-3.381,4.049-5.133,6.02-1.952,2.195-3.311,1.891-4.284-.882-.209-.595-.362-1.213-.499-1.83-.424-1.903-.89-3.8-1.219-5.72-.227-1.32-.745-1.789-2.194-1.782-15.351.066-30.701.039-46.052.038-4.107,0-8.213-.017-12.32.026-.449.005-1.079.224-1.309.56-1.043,1.521-1.946,3.136-2.95,4.684-.686,1.058-1.516,1.841-2.984,1.73-.491-.037-1.034.573-1.549.894-.619.386-1.234.779-1.851,1.17-.346-.602-.833-1.164-1.012-1.812-.658-2.379-1.213-4.785-1.789-7.107-.243-.068-.336-.116-.429-.116-10.217-.013-20.435-.033-30.652.008-.376.001-1.026.556-1.08.922-.46,3.137-.829,6.288-1.192,9.439-.798,6.931-1.545,13.869-2.41,20.792-.097.779-.822,1.48-1.256,2.217-.44-.729-1.17-1.419-1.276-2.194-1.157-8.508-2.218-17.028-3.304-25.546-.238-1.868-.477-3.737-.721-5.646-5.617,0-11.09.009-16.562-.008-1.038-.003-1.999,0-2.821.842-.323.331-1.1.607-1.465.445-1.762-.783-2.916.264-4.2,1.122-.848.566-1.764,1.047-2.695,1.468-4.473,2.025-6.556.967-7.47-3.87-1.575,0-3.178-.024-4.778.025-.25.008-.646.298-.711.531-.797,2.878-3.081,4.578-5.139,6.417-.765.683-1.802,1.17-2.799,1.464-2.197.647-4.163-.18-5.88-1.469-2.891-2.17-6.05-2.736-9.527-1.988-2.056.442-3.06,1.886-3.281,4.912-.767,10.522-1.587,21.04-2.27,31.567-.875,13.502-1.627,27.011-2.454,40.516-.188,3.069-.443,6.135-.734,9.196-.041.433-.458.831-.701,1.245-.281-.441-.76-.86-.811-1.326-.444-4.074-.914-8.15-1.183-12.239-.732-11.113-1.371-22.231-2.043-33.348-.81-13.406-1.608-26.812-2.433-40.217-.107-1.738-.35-3.468-.54-5.3-4.004,0-7.86.036-11.714-.02-1.315-.019-2.303.088-3.127,1.417-1.074,1.733-2.406,1.545-3.227-.326-.383-.873-.851-1.095-1.75-1.092-7.969.031-15.937.012-23.906.008-.471,0-.943,0-1.421,0-.047.489-.085.778-.103,1.069-.765,12.626-1.492,25.255-2.323,37.876-.169,2.565-.69,5.112-1.151,7.65-.081.446-.665.801-1.017,1.198-.244-.434-.657-.85-.704-1.305-.432-4.174-.84-8.351-1.178-12.533-.554-6.864-1.005-13.738-1.609-20.597-.132-1.496-.73-2.951-1.113-4.425-.165.017-.331.033-.496.05-.208.625-.514,1.235-.608,1.876-1.002,6.901-1.975,13.806-2.945,20.711-.42,2.995-.783,5.998-1.251,8.985-.076.485-.569.905-.869,1.355-.283-.388-.748-.746-.817-1.169-.347-2.115-.607-4.244-.866-6.373-.415-3.407-.804-6.818-1.205-10.227-1.183,8.39-2.044,16.781-2.918,25.171-.273,2.62-.55,5.241-.901,7.851-.058.433-.51.812-.781,1.216-.387-.36-.891-.657-1.129-1.097-.267-.495-.324-1.115-.421-1.689-.793-4.712-1.615-9.419-2.333-14.142-.217-1.429-.723-2.468-2.245-2.601-2.553-.223-5.115-.34-7.672-.516-1.49-.102-2.983-.187-4.46-.392-.233-.032-.384-.657-.572-1.008.377-.062.759-.196,1.13-.172,1.224.078,2.443.221,3.665.324,2.944.248,5.9.392,8.827.772,1.346.175,2.121,1.161,2.319,2.638.374,2.798.88,5.579,1.358,8.363.358,2.085.759,4.163,1.141,6.244.89-5.948,1.463-11.866,2.096-17.776.556-5.189,1.152-10.375,1.812-15.551.069-.543.693-1.015,1.059-1.52.312.498.827.968.903,1.5.454,3.185.806,6.385,1.193,9.58.226,1.872.452,3.744.678,5.616.687-2.749,1.008-5.49,1.392-8.223.863-6.131,1.729-12.262,2.665-18.381.176-1.153.323-2.688,1.898-2.738,1.455-.046,1.839,1.445,2.066,2.491.485,2.228.76,4.516.946,6.793.56,6.862,1.025,13.731,1.552,20.596.155,2.024.392,4.041.591,6.061,2.238-14.416,2.557-28.93,3.171-43.468h-42.451v48.479h4.874c.001.192.002.385.003.577h-4.877v53.748h51.104v-5.226l.595-.033c.348,1.706-.01,3.503.208,5.305h51.287c0-1.012-.082-1.94.025-2.846.095-.805-.498-1.854.854-2.698v5.511h52.052v-5.234c.202-.011.404-.023.606-.034.342,1.702.002,3.494.192,5.289h50.98c0-1.016-.082-1.944.024-2.851.094-.804-.507-1.853.854-2.69v5.536h51.393c0-1.017-.021-1.936.006-2.854.024-.81.103-1.619.158-2.429.232.015.464.03.697.045v5.222h51.129v-5.236c.193-.013.387-.027.58-.04.476,1.716-.065,3.582.294,5.28h52.494c0-1.038-.029-1.961.009-2.882.033-.794.142-1.585.218-2.378.213.025.427.05.64.075v5.171h44.407v-102.804c-.305-.031-.538-.075-.77-.075-9.435.002-18.871-.012-28.305.059-.566.004-1.294.559-1.661,1.066-1.258,1.736-2.435,3.535-3.554,5.365-1.293,2.114-2.709,4.193-3.68,6.455-1.318,3.072-2.261,6.305-3.374,9.466-.194.55-.375,1.12-.668,1.618-.796,1.351-2.017,1.53-3.131.438-.482-.472-.827-1.082-1.488-1.968-1.012,1.385-1.804,2.286-2.385,3.307-.975,1.713-2.492,2.412-4.288,2.142-1.498-.225-2.491.21-3.502,1.226-1.547,1.556-2.648,1.302-3.524-.733-.633-1.47-1.179-2.978-1.764-4.469ZM105.74,85.844c-.083-.013-.166-.027-.248-.04-.118,1.843-.267,3.685-.347,5.53-.491,11.225-.938,22.453-1.456,33.677-.357,7.755-.794,15.507-1.239,23.257-.024.423-.457.823-.699,1.233-.267-.398-.706-.77-.769-1.198-.19-1.302-.255-2.624-.332-3.94-.51-8.775-.999-17.551-1.517-26.326-.637-10.774-1.408-21.542-1.919-32.322-.704-14.884-1.16-29.779-1.835-44.665-.469-10.342-1.128-20.676-1.706-31.092-1.863.052-1.14-1.8-2.078-2.581-.487.862-1.315,1.67-1.366,2.524-.294,4.925-.485,9.859-.563,14.792-.327,20.621-.506,41.245-.919,61.864-.513,25.601-1.211,51.197-1.808,76.796-.072,3.105-.01,6.213-.01,9.358h26.074c-.058-.345-.097-.583-.139-.82-.645-3.647-1.547-7.271-1.881-10.947-.69-7.586-1.081-15.199-1.587-22.801-.965-14.524-1.914-29.049-2.894-43.572-.197-2.914-.505-5.821-.762-8.731Zm258.16,87.829c.377,1.386.68,2.651,1.07,3.889.488,1.549,1.647,2.46,3.194,2.662,1.545.202,2.36,1.067,2.772,2.425.537,1.771,1.009,3.562,1.505,5.346.72,2.586,1.239,2.772,3.276,1.174,1.666-1.308,2.815-1.032,3.648.913.537,1.254,1.008,2.536,1.531,3.796,1.158,2.789,2.287,5.592,3.53,8.343.294.65.992,1.116,1.505,1.667.491-.576,1.082-1.095,1.453-1.74.73-1.266,1.227-2.676,2.034-3.883.555-.831,1.405-1.898,2.237-2.009,1.289-.172,1.404,1.352,1.801,2.303.535,1.279,1.022,2.579,1.571,3.977.441-.248.699-.316.835-.482,1.305-1.596,2.901-2.04,4.95-1.701,1.139.188,2.209-.432,2.88-1.618.564-.997,1.344-1.888,2.115-2.749.876-.977,1.794-.757,2.653.104.502.504,1.024.987,1.762,1.696,1.676-4.414,2.955-8.71,4.911-12.671,1.958-3.965,4.592-7.595,6.972-11.441h-58.208Zm-82.248-84.877c-.059.016-.118.032-.177.048-.247,4.289-.494,8.579-.743,12.868-.662,11.41-1.301,22.821-1.998,34.228-.262,4.288-.619,8.572-1.037,12.847-.073.752-.66,1.454-1.01,2.179-.32-.751-.875-1.488-.924-2.257-.526-8.284-.962-16.573-1.444-24.86-.187-3.218-.429-6.432-.645-9.648-.15-.002-.301-.004-.451-.006-.531,9.78-1.072,19.56-1.589,29.341-.519,9.821-2.197,19.471-4.358,29.131h35.934c-.194-.901-.32-1.674-.53-2.424-.506-1.81-.974-1.954-2.494-.923-2.413,1.637-4.967,1.464-5.95-1.61-.234-.732-.977-1.689-1.634-1.823-1.891-.389-2.744-1.644-3.233-3.227-1.08-3.491-2.206-6.981-3.028-10.537-1.958-8.467-1.999-17.15-2.561-25.764-.643-9.842-1.058-19.699-1.591-29.548-.145-2.674-.355-5.344-.536-8.015Zm-27.141,83.952c-6.623-25.728-10.111-51.741-12.606-77.932-.434,2.958-.743,5.906-.961,8.861-.729,9.887-1.402,19.779-2.163,29.664-.11,1.434-.549,2.849-.901,4.257-.422,1.69-1.083,3.337-1.346,5.048-.918,5.98-1.88,11.963-2.484,17.979-.369,3.673-3.827,5.375-6.648,5.397-.545.004-1.364.292-1.582.702-1.018,1.916-1.87,3.92-2.842,6.022h31.532Zm-121.25.983c1.712,28.576,3.418,57.064,5.125,85.552.124-.006.249-.013.373-.019.427-6.775.849-13.549,1.281-20.324.763-11.991,1.514-23.983,2.305-35.972.45-6.823.936-13.644,1.469-20.461.231-2.956,1.528-4.512,3.996-5.088,3.685-.86,7.155-.497,10.276,1.832.391.291.807.551,1.225.802,2.284,1.369,4.645,1.173,6.609-.624,1.116-1.021,2.208-2.085,3.184-3.237.55-.65.843-1.518,1.343-2.461h-37.186Zm189.482-12.52c-.289.365-.498.63-.708.894-1.458,1.836-2.298,1.819-3.732-.104-.606-.813-1.176-1.653-1.923-2.708-1.001,1.86-1.865,3.539-2.802,5.175-.505.881-1.048,1.771-1.732,2.513-1.015,1.102-2.077,1.054-3.167.051-.237-.218-.499-.41-.931-.762-1.085,2.186-2.11,4.25-3.229,6.505h23.143c-.31-2.915-3.291-9.972-4.92-11.563Zm-101.532,12.558h-7.718c1.265,10.257,2.512,20.37,3.759,30.482l.563-.026c1.13-10.129,2.259-20.258,3.396-30.456Zm-89.106-.997c-.75-1.142-1.119-2.254-1.883-2.733-1.049-.658-1.733-1.409-1.966-2.557-.435-2.146-.779-4.311-1.206-6.459-.352-1.772-.625-3.586-1.938-5.377-.418.879-.806,1.45-.967,2.079-.602,2.357-1.162,4.725-1.671,7.104-.257,1.203-.613,2.192-1.92,2.697-.489.189-.894.889-1.106,1.444-.459,1.202-.769,2.46-1.171,3.802h13.828Zm292.536.01h19.155c-3.093-2.322-6.347-4.773-9.612-7.208-.585-.436-1.184-.873-1.832-1.199-1.392-.7-2.29-.481-3.12.841-1.526,2.429-2.981,4.904-4.591,7.566Zm-92.388,11.353c.572-.455.878-.628,1.091-.879,1.576-1.86,3.152-3.722,4.692-5.612,1.103-1.353,2.323-2.465,4.119-2.841.666-.139,1.27-.579,1.902-.881-.029-.077-.059-.155-.088-.232h-14.647c1.252,3.388,1.238,7.018,2.931,10.446Zm-155.952-28.322c-.144-.016-.287-.033-.431-.049-1.291,5.619-2.583,11.238-3.889,16.924h5.171c-.288-5.711-.569-11.293-.85-16.875Zm79.575,17.918c.627,2.513,1.224,4.908,1.888,7.571,1.063-1.471,2.123-2.317,3.728-2.161.236.023.592-.172.736-.377,1.131-1.603,2.223-3.234,3.449-5.034h-9.8Zm-43.645-1.045c-.28-.975-.462-1.833-.775-2.64-.345-.891-.948-1.234-1.799-.505-.777.666-1.558,1.328-2.333,1.996-1.497,1.29-2.251,1.142-3.165-.564-.395-.737-.883-1.424-1.516-2.433-1.058,1.528-1.899,2.742-2.872,4.147h12.459Zm-33.71,1.011c-.178,2.289.885,3.779,2.861,3.528,2.566-.326,4.643-1.858,7.04-3.528h-9.9Zm182.734-4.727c-1.164.96-2.005,1.897-3.05,2.447-1.029.541-2.264.69-3.409,1.012.02.09.041.18.061.271h7.765c-.476-1.298-.894-2.438-1.366-3.729Zm-9.847,4.718h-3.24c1.357,1.111,1.85,1.121,3.24,0Z"/>
    <path class="cls-4" d="m42.92,19.593V.868h410.848v172.16c-1.332-.202-2.559-.334-3.761-.582-1.807-.372-3.785-.476-5.356-1.317-2.948-1.578-5.671-3.582-8.457-5.453-1.009-.678-1.867-1.597-2.91-2.206-2.24-1.307-3.966-.786-5.314,1.427-1.244,2.042-2.565,4.039-3.735,6.121-.785,1.396-1.817,1.875-3.416,1.862-8.799-.076-17.6-.053-26.4-.053-9.68,0-19.36-.008-29.04.045-1.168.006-1.894-.186-1.917-1.496-.004-.236-.123-.471-.192-.705-.94-3.224-1.97-3.477-4.481-1.333-.788.673-1.955.894-2.938,1.346-.728.335-1.576.567-2.125,1.098-.771.745-1.55,1.007-2.598,1.004-6.892-.018-13.785-.002-20.677.07-1.073.011-1.452-.339-1.788-1.348-.983-2.951-2.142-5.844-3.251-8.753-.155-.405-.405-.779-.64-1.148-1.384-2.173-2.246-2.224-3.809-.245-.209.264-.462.493-.836.887-.633-.89-1.214-1.716-1.806-2.534-1.432-1.981-2.501-1.941-3.686.165-.86,1.53-1.631,3.111-2.529,4.617-.458.769-1.109,1.424-1.617,2.062-.328-.098-.446-.098-.508-.157-2.011-1.92-2.836-1.797-4.114.675-.597,1.155-1.122,2.346-1.75,3.67-.121-.423-.192-.653-.253-.885-.679-2.599-2.304-3.224-4.393-1.66-2.043,1.53-3.139,1.088-4.07-1.204-.543-1.337-1.305-2.271-2.879-2.596-.682-.14-1.465-1.014-1.735-1.73-2.468-6.549-4.261-13.27-4.702-20.292-.772-12.287-1.543-24.573-2.287-36.862-.357-5.901-.631-11.806-.982-17.707-.128-2.143-.348-4.282-.58-6.417-.046-.424-.337-.821-.515-1.231-.287.385-.786.749-.826,1.157-.281,2.917-.498,5.84-.679,8.765-.564,9.068-1.108,18.137-1.65,27.206-.44,7.363-.863,14.726-1.303,22.089-.11,1.842-.255,3.683-.571,5.544-.074-.71-.181-1.417-.217-2.129-.431-8.393-.835-16.787-1.288-25.178-.113-2.094-.373-4.18-.577-6.269-.023-.237-.066-.511-.202-.691-.289-.383-.645-.714-.973-1.067-.289.344-.771.655-.835,1.036-.266,1.584-.485,3.184-.579,4.787-.63,10.73-.895,21.494-1.938,32.182-.788,8.079-2.562,16.061-3.879,24.089-.117.715-.323,1.145-1.169,1.135-3.076-.035-6.152-.014-9.382-.014-.68-2.94-1.39-5.857-2.027-8.789-1.148-5.282-2.394-10.547-3.341-15.865-1.299-7.293-2.539-14.607-3.477-21.953-1.353-10.597-2.407-21.231-3.603-31.848-.114-1.014-.268-2.034-.525-3.018-.102-.39-.539-.693-.823-1.036-.315.379-.82.719-.911,1.146-.283,1.333-.484,2.694-.585,4.054-.524,7.014-.986,14.033-1.511,21.047-.467,6.233-.987,12.461-1.492,18.691-.023.287-.072.599-.205.847-2.199,4.094-2.026,8.678-2.709,13.083-.606,3.903-1.144,7.817-1.786,11.715-.384,2.328-2.804,4.169-5.15,3.846-1.56-.215-2.41.477-3.024,1.716-.866,1.747-1.735,3.493-2.532,5.271-.34.757-.759,1.127-1.631,1.109-2.289-.049-4.579-.017-6.854-.017-.263-1.088-.436-2.1-.755-3.064-.635-1.921-2.114-2.424-3.736-1.249-1.06.768-2.024,1.668-3.193,2.645-.406-.728-.766-1.386-1.137-2.036-.997-1.748-2.241-1.928-3.6-.438-.653.715-1.142,1.578-1.723,2.361-.655.881-1.349,1.359-2.408.455-1.088-.929-2.012-.416-2.965.414-.525.458-1.307.857-1.981.869-4.398.084-8.798.055-13.198.057-.086,0-.172-.07-.398-.167-.173-3.535-.322-7.136-.535-10.733-.159-2.679-.375-5.356-.63-8.028-.039-.413-.421-.794-.645-1.19-.378.32-.98.573-1.098.97-.833,2.796-1.619,5.608-2.317,8.44-.758,3.073-1.421,6.17-2.089,9.265-.227,1.05-.709,1.466-1.866,1.463-11.684-.032-23.369-.009-35.053.032-.949.003-1.402-.221-1.523-1.25-.152-1.301-.732-2.338-2.091-2.937-.533-.235-.958-1.104-1.106-1.758-.654-2.895-1.16-5.823-1.786-8.724-.183-.846-.484-1.701-.906-2.453-.829-1.477-2.05-1.559-2.937-.109-.647,1.057-1.06,2.296-1.38,3.506-.486,1.834-.751,3.726-1.218,5.567-.139.548-.529,1.209-.996,1.462-1.235.669-1.829,1.707-2.18,2.969-.195.704-.467,1.403-.538,2.121-.171,1.726-1.413,1.601-2.569,1.51-.267-.021-.661-.527-.713-.855-.815-5.144-1.81-10.273-2.31-15.45-.761-7.874-1.191-15.78-1.723-23.674-.361-5.361-.631-10.728-.986-16.089-.537-8.089-1.088-16.178-1.684-24.263-.248-3.357-.589-6.709-.98-10.053-.081-.688-.573-1.329-.875-1.991-.365.669-.999,1.318-1.051,2.011-.378,5.017-.704,10.039-.921,15.066-.464,10.741-.842,21.486-1.276,32.229-.145,3.606-.351,7.21-.74,10.817-.206-3.111-.422-6.222-.615-9.334-.61-9.847-1.281-19.691-1.795-29.544-.521-10.003-.898-20.014-1.308-30.023-.288-7.032-.455-14.069-.806-21.097-.488-9.756-1.081-19.508-1.664-29.259-.274-4.581-.624-9.158-.955-13.736-.035-.478-.18-.947-.273-1.421-.141-.012-.282-.024-.423-.036-.219.548-.438,1.096-.739,1.849-.372-1.123-.7-2.111-1.027-3.099-.143-.005-.286-.01-.429-.015-.272.568-.544,1.137-.872,1.823-.27-.958-.517-1.838-.764-2.717-.154,0-.309,0-.463,0-.098.407-.269.812-.283,1.221-.217,6.398-.475,12.796-.603,19.196-.254,12.706-.456,25.413-.64,38.12-.208,14.321-.273,28.644-.583,42.962-.36,16.66-.91,33.316-1.395,49.973-.161,5.52-.376,11.038-.569,16.557-.008.235-.046.469-.081.805h-42.383v-51.191h4.861c.002-.19.005-.38.007-.57h-4.865v-49.724c1.618-.133,3.189-.261,4.758-.402.025-.002.034-.174.086-.457h-4.841V20.419h4.764c.021-.201.042-.403.063-.604-.751-.074-1.5-.179-2.253-.213-.822-.037-1.648-.008-2.637-.008Z"/>
    <path class="cls-4" d="m391.682,197.579c.585,1.491,1.131,2.998,1.764,4.469.876,2.035,1.977,2.29,3.524.733,1.01-1.016,2.004-1.451,3.502-1.226,1.796.27,3.313-.428,4.288-2.142.581-1.021,1.373-1.921,2.385-3.307.66.887,1.006,1.497,1.488,1.968,1.114,1.092,2.335.913,3.131-.438.293-.498.474-1.068.668-1.618,1.113-3.161,2.056-6.394,3.374-9.466.971-2.262,2.387-4.341,3.68-6.455,1.119-1.829,2.296-3.629,3.554-5.365.367-.506,1.095-1.061,1.661-1.066,9.435-.07,18.87-.057,28.305-.059.232,0,.465.044.77.075v102.804h-44.407v-5.171c-.213-.025-.427-.05-.64-.075-.076.793-.185,1.584-.218,2.378-.038.92-.009,1.844-.009,2.882h-52.494c-.359-1.698.183-3.564-.294-5.28-.193.013-.387.027-.58.04v5.236h-51.129v-5.222c-.232-.015-.464-.03-.697-.045-.055.81-.134,1.618-.158,2.429-.028.918-.006,1.837-.006,2.854h-51.393v-5.536c-1.361.837-.76,1.887-.854,2.69-.106.906-.024,1.835-.024,2.851h-50.98c-.19-1.795.15-3.587-.192-5.289-.202.011-.404.023-.606.034v5.234h-52.052v-5.511c-1.352.844-.759,1.893-.854,2.698-.106.906-.025,1.834-.025,2.846h-51.287c-.217-1.802.14-3.599-.208-5.305l-.595.033v5.226h-51.104v-53.748h4.877c-.001-.192-.002-.385-.003-.577h-4.874v-48.479h42.451c-.615,14.537-.933,29.051-3.171,43.468-.199-2.02-.435-4.038-.591-6.061-.527-6.865-.992-13.734-1.552-20.596-.186-2.278-.461-4.565-.946-6.793-.228-1.046-.611-2.536-2.066-2.491-1.575.049-1.722,1.584-1.898,2.738-.936,6.12-1.802,12.251-2.665,18.381-.385,2.732-.705,5.473-1.392,8.223-.226-1.872-.452-3.744-.678-5.616-.386-3.195-.739-6.395-1.193-9.58-.076-.532-.591-1.002-.903-1.5-.366.505-.99.977-1.059,1.52-.66,5.177-1.256,10.362-1.812,15.551-.633,5.911-1.207,11.828-2.096,17.776-.382-2.081-.783-4.159-1.141-6.244-.478-2.784-.984-5.565-1.358-8.363-.197-1.477-.973-2.463-2.319-2.638-2.926-.381-5.883-.524-8.827-.772-1.222-.103-2.441-.246-3.665-.324-.372-.024-.753.111-1.13.172.189.351.34.975.572,1.008,1.476.204,2.97.29,4.46.392,2.557.175,5.119.293,7.672.516,1.522.133,2.028,1.172,2.245,2.601.718,4.723,1.54,9.43,2.333,14.142.097.574.153,1.194.421,1.689.238.441.742.737,1.129,1.097.27-.404.722-.784.781-1.216.351-2.61.628-5.231.901-7.851.874-8.39,1.734-16.78,2.918-25.171.4,3.409.79,6.819,1.205,10.227.259,2.128.519,4.258.866,6.373.069.423.535.781.817,1.169.3-.45.793-.87.869-1.355.468-2.987.831-5.99,1.251-8.985.969-6.906,1.943-13.81,2.945-20.711.093-.641.4-1.252.608-1.876.165-.017.331-.033.496-.05.383,1.474.981,2.929,1.113,4.425.605,6.86,1.055,13.733,1.609,20.597.338,4.182.746,8.36,1.178,12.533.047.454.46.871.704,1.305.352-.397.936-.752,1.017-1.198.46-2.537.982-5.084,1.151-7.65.831-12.622,1.558-25.25,2.323-37.876.018-.291.055-.58.103-1.069.479,0,.95,0,1.421,0,7.969.004,15.938.023,23.906-.008.899-.003,1.367.219,1.75,1.092.821,1.87,2.153,2.058,3.227.326.824-1.329,1.812-1.436,3.127-1.417,3.854.056,7.71.02,11.714.02.19,1.832.433,3.562.54,5.3.826,13.405,1.623,26.811,2.433,40.217.672,11.116,1.311,22.235,2.043,33.348.269,4.088.739,8.164,1.183,12.239.051.466.53.885.811,1.326.243-.414.66-.812.701-1.245.29-3.061.546-6.127.734-9.196.827-13.505,1.579-27.015,2.454-40.516.682-10.527,1.502-21.046,2.27-31.567.221-3.026,1.225-4.47,3.281-4.912,3.477-.748,6.636-.182,9.527,1.988,1.717,1.289,3.683,2.116,5.88,1.469.997-.294,2.034-.78,2.799-1.464,2.058-1.839,4.342-3.539,5.139-6.417.064-.233.461-.523.711-.531,1.6-.048,3.203-.025,4.778-.025.914,4.837,2.997,5.895,7.47,3.87.93-.421,1.847-.902,2.695-1.468,1.284-.858,2.439-1.905,4.2-1.122.365.162,1.142-.114,1.465-.445.822-.842,1.783-.845,2.821-.842,5.472.018,10.945.008,16.562.008.244,1.91.483,3.778.721,5.646,1.087,8.517,2.147,17.038,3.304,25.546.105.775.836,1.464,1.276,2.194.434-.737,1.159-1.438,1.256-2.217.865-6.923,1.611-13.861,2.41-20.792.363-3.151.732-6.302,1.192-9.439.054-.366.704-.92,1.08-.922,10.217-.041,20.434-.021,30.652-.008.093,0,.185.049.429.116.576,2.322,1.131,4.729,1.789,7.107.179.648.666,1.211,1.012,1.812.617-.39,1.232-.784,1.851-1.17.515-.321,1.058-.932,1.549-.894,1.467.111,2.297-.672,2.984-1.73,1.004-1.548,1.908-3.164,2.95-4.684.23-.336.86-.555,1.309-.56,4.106-.042,8.213-.026,12.32-.026,15.351.001,30.702.028,46.052-.038,1.45-.006,1.968.463,2.194,1.782.33,1.92.795,3.817,1.219,5.72.137.617.29,1.235.499,1.83.972,2.773,2.332,3.077,4.284.882,1.752-1.971,3.327-4.104,5.133-6.02.756-.803,1.878-1.291,2.888-1.818,2.125-1.108,4.159-1.935,6.571-.265.974.674,2.364-.293,3.375-1.2.512-.46,1.315-.79,2.004-.823,2.195-.104,4.4.011,6.597-.066,1.114-.039,1.683.203,1.812,1.447.113,1.096.49,2.184.883,3.226.671,1.782,2.007,2.91,3.886,3.177,1.21.172,1.856.829,2.168,1.872.459,1.538.804,3.109,1.238,4.655.223.794.437,1.615.822,2.334.875,1.632,2.166,1.817,3.593.632.583-.484,1.198-.929,1.967-1.522.408.802.751,1.375,1.002,1.986,1.479,3.604,2.899,7.233,4.422,10.818.565,1.329,1.165,2.953,2.894,2.959,1.729.006,2.231-1.668,2.917-2.936.851-1.573,1.665-3.165,2.495-4.748.134.03.268.06.402.09Z"/>
    <path class="cls-4" d="m105.74,85.844c.257,2.91.566,5.816.762,8.731.98,14.523,1.929,29.048,2.894,43.572.505,7.602.897,15.215,1.587,22.801.334,3.676,1.236,7.299,1.881,10.947.042.237.08.474.139.82h-26.074c0-3.145-.063-6.253.01-9.358.597-25.599,1.295-51.196,1.808-76.796.413-20.619.592-41.243.919-61.864.078-4.933.269-9.867.563-14.792.051-.854.879-1.662,1.366-2.524.939.781.216,2.633,2.078,2.581.578,10.416,1.237,20.749,1.706,31.092.675,14.885,1.131,29.781,1.835,44.665.51,10.78,1.282,21.548,1.919,32.322.519,8.774,1.007,17.551,1.517,26.326.077,1.316.142,2.638.332,3.94.062.428.502.8.769,1.198.242-.41.675-.81.699-1.233.445-7.751.882-15.502,1.239-23.257.517-11.224.965-22.451,1.456-33.677.081-1.845.23-3.687.347-5.53.083.013.166.027.248.04Z"/>
    <path class="cls-4" d="m363.9,173.673h58.208c-2.381,3.846-5.015,7.477-6.972,11.441-1.956,3.962-3.235,8.257-4.911,12.671-.738-.708-1.26-1.192-1.762-1.696-.859-.861-1.777-1.081-2.653-.104-.771.86-1.551,1.751-2.115,2.749-.671,1.185-1.741,1.806-2.88,1.618-2.049-.339-3.645.105-4.95,1.701-.136.166-.394.234-.835.482-.55-1.398-1.037-2.697-1.571-3.977-.397-.951-.512-2.475-1.801-2.303-.832.111-1.682,1.178-2.237,2.009-.807,1.208-1.305,2.618-2.034,3.883-.372.645-.962,1.164-1.453,1.74-.512-.551-1.211-1.018-1.505-1.667-1.243-2.751-2.372-5.554-3.53-8.343-.523-1.26-.994-2.542-1.531-3.796-.833-1.945-1.982-2.22-3.648-.913-2.037,1.599-2.556,1.412-3.276-1.174-.497-1.783-.968-3.575-1.505-5.346-.412-1.358-1.227-2.223-2.772-2.425-1.548-.202-2.706-1.113-3.194-2.662-.39-1.238-.693-2.504-1.07-3.889Z"/>
    <path class="cls-4" d="m281.652,88.796c.18,2.672.391,5.342.536,8.015.533,9.849.948,19.706,1.591,29.548.562,8.614.603,17.297,2.561,25.764.822,3.556,1.948,7.046,3.028,10.537.49,1.583,1.342,2.839,3.233,3.227.657.135,1.4,1.092,1.634,1.823.983,3.074,3.537,3.247,5.95,1.61,1.52-1.031,1.988-.887,2.494.923.21.75.336,1.523.53,2.424h-35.934c2.161-9.66,3.839-19.309,4.358-29.131.517-9.781,1.059-19.56,1.589-29.341.15.002.301.004.451.006.217,3.216.458,6.431.645,9.648.482,8.287.919,16.576,1.444,24.86.049.769.604,1.505.924,2.257.35-.725.937-1.427,1.01-2.179.418-4.276.775-8.559,1.037-12.847.698-11.407,1.337-22.818,1.998-34.228.249-4.289.495-8.579.743-12.868.059-.016.118-.032.177-.048Z"/>
    <path class="cls-4" d="m254.511,172.748h-31.532c.971-2.102,1.823-4.106,2.842-6.022.218-.41,1.037-.698,1.582-.702,2.821-.023,6.279-1.724,6.648-5.397.604-6.016,1.566-11.999,2.484-17.979.263-1.711.923-3.358,1.346-5.048.352-1.408.791-2.823.901-4.257.761-9.885,1.433-19.777,2.163-29.664.218-2.955.527-5.904.961-8.861,2.495,26.191,5.984,52.204,12.606,77.932Z"/>
    <path class="cls-4" d="m133.261,173.731h37.186c-.5.943-.793,1.812-1.343,2.461-.976,1.152-2.068,2.215-3.184,3.237-1.964,1.797-4.325,1.993-6.609.624-.418-.251-.835-.511-1.225-.802-3.121-2.329-6.591-2.692-10.276-1.832-2.468.576-3.765,2.131-3.996,5.088-.533,6.817-1.019,13.638-1.469,20.461-.79,11.989-1.542,23.981-2.305,35.972-.431,6.774-.854,13.549-1.281,20.324-.124.006-.249.013-.373.019-1.707-28.488-3.413-56.976-5.125-85.552Z"/>
    <path class="cls-4" d="m322.743,161.211c1.629,1.591,4.609,8.648,4.92,11.563h-23.143c1.12-2.256,2.144-4.32,3.229-6.505.431.351.693.543.931.762,1.091,1.003,2.152,1.051,3.167-.051.683-.741,1.227-1.631,1.732-2.513.937-1.636,1.801-3.315,2.802-5.175.748,1.055,1.317,1.895,1.923,2.708,1.434,1.923,2.273,1.941,3.732.104.21-.264.418-.529.708-.894Z"/>
    <path class="cls-4" d="m221.211,173.769c-1.137,10.198-2.267,20.327-3.396,30.456l-.563.026c-1.247-10.112-2.494-20.225-3.759-30.482h7.718Z"/>
    <path class="cls-4" d="m132.105,172.772h-13.828c.403-1.342.712-2.6,1.171-3.802.212-.555.617-1.255,1.106-1.444,1.307-.505,1.662-1.495,1.92-2.697.509-2.378,1.069-4.747,1.671-7.104.161-.629.549-1.2.967-2.079,1.313,1.792,1.586,3.606,1.938,5.377.427,2.148.771,4.313,1.206,6.459.233,1.147.917,1.899,1.966,2.557.765.479,1.133,1.591,1.883,2.733Z"/>
    <path class="cls-4" d="m424.641,172.782c1.61-2.663,3.065-5.137,4.591-7.566.83-1.322,1.729-1.541,3.12-.841.648.326,1.247.763,1.832,1.199,3.265,2.436,6.519,4.886,9.612,7.208h-19.155Z"/>
    <path class="cls-4" d="m332.253,184.135c-1.693-3.428-1.679-7.058-2.931-10.446h14.647c.029.077.059.155.088.232-.632.303-1.236.742-1.902.881-1.796.376-3.016,1.488-4.119,2.841-1.541,1.89-3.116,3.752-4.692,5.612-.213.252-.52.425-1.091.879Z"/>
    <path class="cls-4" d="m176.302,155.813c.281,5.582.563,11.163.85,16.875h-5.171c1.307-5.686,2.598-11.305,3.889-16.924.144.016.287.033.431.049Z"/>
    <path class="cls-4" d="m255.877,173.73h9.8c-1.225,1.8-2.318,3.43-3.449,5.034-.144.204-.5.4-.736.377-1.605-.156-2.665.69-3.728,2.161-.664-2.663-1.261-5.058-1.888-7.571Z"/>
    <path class="cls-4" d="m212.231,172.685h-12.459c.973-1.405,1.813-2.619,2.872-4.147.633,1.008,1.121,1.695,1.516,2.433.914,1.707,1.669,1.854,3.165.564.775-.668,1.555-1.33,2.333-1.996.852-.729,1.454-.386,1.799.505.313.807.495,1.665.775,2.64Z"/>
    <path class="cls-4" d="m178.522,173.697h9.9c-2.397,1.671-4.474,3.203-7.04,3.528-1.976.251-3.039-1.239-2.861-3.528Z"/>
    <path class="cls-4" d="m361.255,168.969c.473,1.29.891,2.431,1.366,3.729h-7.765c-.02-.09-.041-.18-.061-.271,1.145-.321,2.38-.47,3.409-1.012,1.045-.55,1.886-1.487,3.05-2.447Z"/>
    <path class="cls-4" d="m351.408,173.687c-1.39,1.121-1.883,1.111-3.24,0h3.24Z"/>
  </g>
  <text class="cls-1" transform="translate(12.321 178.772) rotate(-90)"><tspan x="0" y="0">흡광도 차이</tspan></text>
  <text class="cls-1" transform="translate(218.021 309.708)"><tspan x="0" y="0">이동 거리</tspan></text>
  <text class="cls-2" transform="translate(24.164 25.959)"><tspan x="0" y="0">60</tspan></text>
  <text class="cls-2" transform="translate(348.167 290.769)"><tspan x="0" y="0">60</tspan></text>
  <text class="cls-2" transform="translate(23.999 74.593)"><tspan x="0" y="0">40</tspan></text>
  <text class="cls-2" transform="translate(243.808 291.066)"><tspan x="0" y="0">40</tspan></text>
  <text class="cls-2" transform="translate(24.725 124.142)"><tspan x="0" y="0">20</tspan></text>
  <text class="cls-2" transform="translate(139.907 291.385)"><tspan x="0" y="0">20</tspan></text>
  <text class="cls-2" transform="translate(30.621 177.252)"><tspan x="0" y="0">0</tspan></text>
  <text class="cls-2" transform="translate(37.188 291.705)"><tspan x="0" y="0">0</tspan></text>
  <text class="cls-2" transform="translate(20.556 227.059)"><tspan x="0" y="0">-20</tspan></text>
  <text class="cls-2" transform="translate(19.83 279.885)"><tspan x="0" y="0">-40</tspan></text>
</svg>