<?xml version="1.0" encoding="utf-8"?>
<!-- Generator: Adobe Illustrator 28.0.0, SVG Export Plug-In . SVG Version: 6.00 Build 0)  -->
<svg version="1.1" id="레이어_1" xmlns="http://www.w3.org/2000/svg" xmlns:xlink="http://www.w3.org/1999/xlink" x="0px"
	 y="0px" viewBox="0 0 1200 800" style="enable-background:new 0 0 1200 800;" xml:space="preserve">
<style type="text/css">
	.st0{fill:#F4B000;}
	.st1{fill:#FFFFFF;}
	.st2{font-family:'NotoSansKR-Bold-KSCpc-EUC-H';}
	.st3{font-size:34.8027px;}
	.st4{fill:#1F78B4;}
	.st5{font-family:'NotoSansKR-Medium-KSCpc-EUC-H';}
	.st6{font-size:34px;}
	.st7{font-family:'NotoSansKR-Regular-KSCpc-EUC-H';}
	.st8{font-size:26px;}
</style>
<circle class="st0" cx="602.7" cy="394" r="120"/>
<g>
	<text transform="matrix(1 0 0 1 541.6324 390.4434)" class="st1 st2 st3">비타민 C</text>
	<text transform="matrix(1 0 0 1 510.0499 431.875)" class="st1 st2 st3">(Vitamin C)</text>
</g>
<text transform="matrix(1 0 0 1 491.175 87)" class="st4 st5 st6">콜라겐 합성 증가</text>
<text transform="matrix(1 0 0 1 536.8047 127)" class="st4 st7 st8">(장벽 무결성)</text>
<text transform="matrix(1 0 0 1 216.4671 167)" class="st4 st5 st6">카르니틴 증가</text>
<text transform="matrix(1 0 0 1 216.4671 207)" class="st4 st7 st8">(에너지 대사)</text>
<text transform="matrix(1 0 0 1 75.8333 387)" class="st4 st5 st6">카테콜아민 증가</text>
<text transform="matrix(1 0 0 1 75.8333 427)" class="st4 st7 st8">(호르몬 조절)</text>
<text transform="matrix(1 0 0 1 129.8333 612.1221)" class="st4 st5 st6">아미드화 펩타이드 증가</text>
<text transform="matrix(1 0 0 1 129.8333 652.1221)" class="st4 st7 st8">(호르몬 조절)</text>
<text transform="matrix(1 0 0 1 473.0638 707)" class="st4 st5 st6">아직 밝혀지지 않은</text>
<text transform="matrix(1 0 0 1 499.8217 747)" class="st4 st5 st6">보조인자 기능?</text>
<text transform="matrix(1 0 0 1 831.5365 585.6279)" class="st4 st5 st6">히스톤 메틸화 감소</text>
<text transform="matrix(1 0 0 1 831.5365 625.6279)" class="st4 st7 st8">(후성유전 조절)</text>
<text transform="matrix(1 0 0 1 877.8333 394.7711)" class="st4 st5 st6">DNA 메틸화 감소</text>
<text transform="matrix(1 0 0 1 877.8333 434.7711)" class="st4 st7 st8">(후성유전 조절)</text>
<text transform="matrix(1 0 0 1 795.6667 162.1221)" class="st4 st5 st6">저산소 유도 인자 감소</text>
<text transform="matrix(1 0 0 1 795.6667 202.1221)" class="st4 st7 st8">(유전자 전사)</text>
<g>
	<g>
		<polygon class="st0" points="386.6,373.2 350.7,394 386.6,414.8 386.6,402.6 468.7,402.6 468.7,385.4 386.6,385.4 		"/>
		<polygon class="st0" points="818.7,414.8 854.7,394 818.7,373.2 818.7,385.4 736.7,385.4 736.7,402.6 818.7,402.6 		"/>
	</g>
	<g>
		<polygon class="st0" points="623.4,178 602.7,142 581.9,178 594.1,178 594.1,260 611.3,260 611.3,178 		"/>
		<polygon class="st0" points="581.9,610 602.7,646 623.4,610 611.3,610 611.3,528 594.1,528 594.1,610 		"/>
	</g>
</g>
<g>
	<g>
		<polygon class="st0" points="435.2,532.1 424.5,572.2 464.6,561.4 456,552.8 514,494.8 501.8,482.7 443.8,540.7 		"/>
		<polygon class="st0" points="770.1,255.9 780.9,215.8 740.7,226.6 749.3,235.2 691.3,293.2 703.5,305.3 761.5,247.3 		"/>
	</g>
	<g>
		<polygon class="st0" points="464.6,226.6 424.5,215.8 435.2,255.9 443.8,247.3 501.8,305.3 514,293.2 456,235.2 		"/>
		<polygon class="st0" points="740.7,561.4 780.9,572.2 770.1,532.1 761.5,540.7 703.5,482.7 691.3,494.8 749.3,552.8 		"/>
	</g>
</g>
</svg>
