<?xml version="1.0" encoding="utf-8"?>
<!-- Generator: Adobe Illustrator 28.0.0, SVG Export Plug-In . SVG Version: 6.00 Build 0)  -->
<svg version="1.1" id="레이어_1" xmlns="http://www.w3.org/2000/svg" xmlns:xlink="http://www.w3.org/1999/xlink" x="0px"
	 y="0px" viewBox="0 0 530.042 352.874" enable-background="new 0 0 530.042 352.874" xml:space="preserve">
<g>
	<path opacity="0.15" fill="#009444" d="M32.802,283.613c18.845-0.742,52.984-14.782,74.601-34.408
		c9.772-8.43,17.843-17.012,26.634-28.559c40.278-58.401,72.9-81.567,129.179-20.843c5.16,5.304,9.946,10.599,14.273,15.584
		c19.415,27.696,71.026,55.79,126.152,62.033"/>
	<path opacity="0.3" fill="#662D91" d="M525.389,160.933v121.26l-386.786-0.49c42.105,2.991,69.424-8.391,82.839-15.484
		c19.105-10.102,36.915-25.736,54.538-41.205c8.525-7.483,15.052-12.868,22.967-21.696c15.722-17.536,20.599-29.994,54.069-44.564
		c18.652-7.513,41.158-11.296,60.573-10.224c13.844,0.764,20.477,2.071,37.723,4.816
		C468.916,156.147,525.389,160.933,525.389,160.933z"/>
	<path fill="none" stroke="#2E3192" stroke-width="4" stroke-miterlimit="10" d="M32.802,276.182c0,0,39.583-159.028,65.278-159.028
		s65.972,159.028,65.972,159.028"/>
	<path fill="none" stroke="#ED1C24" stroke-width="3" stroke-miterlimit="10" d="M36.082,283.613
		c13.98-2.751,28.826-6.136,40.402-13.439c20.443-12.155,35.789-31.626,46.487-52.47c11.477-22.197,20.563-47.72,25.418-72.118
		c1.887-10.015,2.992-20.206,4.184-30.56c1.258-10.459,2.353-22.556,5.827-30.809c3.388-9.094,11.475-14.459,16.396-4.23
		c2.671,5.627,2.915,15.405,3.01,22.896c0.022,8.592,0.303,18.187,1.049,26.22c2.993,30.31,11.662,66.648,34.09,88.333
		c9.279,9.101,21.437,13.991,34.277,17.819c12.699,3.797,27.441,7.374,40.193,9.848c7.691,1.463,14.541,2.29,21.67,2.779
		c73.577,2.625,147.305,3.717,220.914,5.797"/>
	<path fill="none" stroke="#009444" stroke-width="3" stroke-miterlimit="10" d="M32.802,283.613
		c18.845-0.742,52.984-14.782,74.601-34.408c9.772-8.43,17.843-17.012,26.634-28.559c40.278-58.401,72.9-81.567,129.179-20.843
		c5.16,5.304,9.946,10.599,14.273,15.584c19.415,27.696,71.026,55.79,126.152,62.033"/>
	<path fill="none" stroke="#27AAE1" stroke-width="3" stroke-miterlimit="10" d="M29.591,280.069
		c25.849,1.429,54.524,0.981,80.355-2.309c11.678-1.472,22.908-3.027,34.053-6.44c27.628-8.573,50.086-28.127,68.244-50.098
		c10.079-11.859,20.007-24.276,28.258-36.822c6.085-9.21,11.508-19.122,16.154-29.226c4.473-9.494,7.77-18.9,12.189-28.158
		c7.318-14.65,19.584-31.125,36.455-34.925c10.608-1.818,18.797,2.63,29.223,8.438c9.123,5.343,17.964,11.515,26.429,17.819
		c26.248,20.052,47.161,41.571,74.402,59.978c26.765,19.658,60.67,28.89,93.16,28.98"/>
	<path fill="none" stroke="#662D91" stroke-width="3" stroke-miterlimit="10" d="M141.728,281.656
		c42.105,2.991,69.424-8.391,82.839-15.484c19.105-10.102,36.915-25.736,54.538-41.205c8.525-7.483,15.052-12.868,22.967-21.696
		c15.722-17.536,20.599-29.994,54.069-44.564c18.652-7.513,41.158-11.296,60.573-10.224c13.844,0.764,20.477,2.071,37.723,4.816
		c17.604,2.802,42.742,6.059,74.078,7.587"/>
	<path fill="none" stroke="#F7941D" stroke-width="3" stroke-miterlimit="10" d="M150.209,282.146
		c24.364-0.11,53.795-3.091,79.642-9.378c18.829-4.684,37.589-10.489,54.176-20.135c21.014-12.22,21.774-22.129,54.076-46.092
		c21.346-15.836,29.89-18.64,37.396-19.729c13.078-1.897,23.926,1.28,40.948,6.454c19.31,5.869,31.55,12.009,40.095,15.799
		c15.964,7.081,39.528,15.05,71.971,18.113"/>
	<g>
		<g>
			<line fill="none" stroke="#000000" stroke-width="2" stroke-miterlimit="10" x1="28.513" y1="7.176" x2="28.513" y2="295.958"/>
			<g>
				<polygon points="23.526,8.635 28.513,0 33.498,8.635 				"/>
			</g>
		</g>
	</g>
	<g>
		<g>
			
				<line fill="none" stroke="#000000" stroke-width="2" stroke-miterlimit="10" x1="519.093" y1="281.797" x2="29.513" y2="281.797"/>
			<g>
				<polygon points="517.634,276.81 526.269,281.797 517.634,286.782 				"/>
			</g>
		</g>
	</g>
	<line fill="none" stroke="#000000" stroke-width="2" stroke-miterlimit="10" x1="62.577" y1="295.958" x2="62.577" y2="280.087"/>
	<line fill="none" stroke="#000000" stroke-width="2" stroke-miterlimit="10" x1="96.254" y1="295.958" x2="96.254" y2="280.087"/>
	
		<line fill="none" stroke="#000000" stroke-width="2" stroke-miterlimit="10" x1="129.932" y1="295.958" x2="129.932" y2="280.087"/>
	
		<line fill="none" stroke="#000000" stroke-width="2" stroke-miterlimit="10" x1="163.609" y1="295.958" x2="163.609" y2="280.087"/>
	
		<line fill="none" stroke="#000000" stroke-width="2" stroke-miterlimit="10" x1="197.287" y1="295.958" x2="197.287" y2="280.087"/>
	
		<line fill="none" stroke="#000000" stroke-width="2" stroke-miterlimit="10" x1="230.964" y1="295.958" x2="230.964" y2="280.087"/>
	
		<line fill="none" stroke="#000000" stroke-width="2" stroke-miterlimit="10" x1="264.642" y1="295.958" x2="264.642" y2="280.087"/>
	
		<line fill="none" stroke="#000000" stroke-width="2" stroke-miterlimit="10" x1="298.319" y1="295.958" x2="298.319" y2="280.087"/>
	
		<line fill="none" stroke="#000000" stroke-width="2" stroke-miterlimit="10" x1="331.996" y1="295.958" x2="331.996" y2="280.087"/>
	
		<line fill="none" stroke="#000000" stroke-width="2" stroke-miterlimit="10" x1="365.674" y1="295.958" x2="365.674" y2="280.087"/>
	
		<line fill="none" stroke="#000000" stroke-width="2" stroke-miterlimit="10" x1="399.351" y1="295.958" x2="399.351" y2="280.087"/>
	
		<line fill="none" stroke="#000000" stroke-width="2" stroke-miterlimit="10" x1="433.029" y1="295.958" x2="433.029" y2="280.087"/>
	
		<line fill="none" stroke="#000000" stroke-width="2" stroke-miterlimit="10" x1="466.706" y1="295.958" x2="466.706" y2="280.087"/>
	
		<line fill="none" stroke="#000000" stroke-width="2" stroke-miterlimit="10" x1="500.383" y1="295.958" x2="500.383" y2="280.087"/>
	<g>
		<path d="M30.449,311.846c-0.992,0-1.79-0.328-2.394-0.984s-0.906-1.66-0.906-3.012v-0.433c0-0.72,0.09-1.35,0.27-1.89
			c0.18-0.54,0.428-0.966,0.744-1.278c0.316-0.312,0.668-0.542,1.056-0.689c0.388-0.148,0.806-0.223,1.254-0.223
			c0.96,0,1.748,0.33,2.364,0.99c0.616,0.66,0.924,1.679,0.924,3.055v0.42c0,1.392-0.31,2.414-0.93,3.065
			C32.21,311.519,31.417,311.846,30.449,311.846z M30.449,310.573c0.528,0,0.918-0.21,1.17-0.63s0.378-1.102,0.378-2.046v-0.516
			c0-1.849-0.512-2.772-1.536-2.772c-0.52,0-0.904,0.216-1.152,0.648c-0.248,0.432-0.372,1.111-0.372,2.039v0.517
			c0,0.936,0.122,1.63,0.366,2.082C29.546,310.347,29.929,310.573,30.449,310.573z"/>
	</g>
	<g>
		<path d="M60.38,311.749v-6.611l-1.344,0.252v-0.996l2.184-0.96h0.876v8.315H60.38z"/>
	</g>
	<g>
		<path d="M93.169,310.681v-0.984l0.981-1.524c0.324-0.504,0.572-0.902,0.742-1.194s0.331-0.632,0.482-1.02
			c0.151-0.388,0.227-0.734,0.227-1.038c0-0.472-0.089-0.806-0.268-1.002s-0.449-0.294-0.812-0.294c-0.33,0-0.709,0.164-1.138,0.492
			l-0.148-1.212c0.479-0.392,1.022-0.588,1.632-0.588c0.643,0,1.128,0.202,1.455,0.606c0.327,0.404,0.491,0.99,0.491,1.758
			c0,0.353-0.048,0.71-0.145,1.074c-0.096,0.364-0.242,0.732-0.437,1.104c-0.195,0.372-0.352,0.658-0.47,0.858
			c-0.118,0.2-0.287,0.464-0.507,0.792l-0.585,0.864h2.16v1.308H93.169z"/>
	</g>
	<g>
		<path d="M128.644,311.821c-0.488,0-0.97-0.056-1.446-0.168c-0.476-0.112-0.838-0.248-1.086-0.408l0.264-1.2
			c0.2,0.129,0.498,0.236,0.894,0.324s0.754,0.132,1.074,0.132c1.032,0,1.548-0.428,1.548-1.283c0-0.4-0.128-0.688-0.384-0.864
			c-0.256-0.176-0.636-0.272-1.14-0.288l-0.9-0.024v-1.188l0.804-0.024c0.456-0.016,0.812-0.12,1.068-0.312
			c0.256-0.192,0.384-0.468,0.384-0.828c0-0.368-0.112-0.632-0.336-0.792c-0.224-0.16-0.56-0.24-1.008-0.24
			c-0.568,0-1.152,0.128-1.752,0.384l-0.18-1.235c0.264-0.137,0.622-0.248,1.074-0.336s0.894-0.133,1.326-0.133
			c0.792,0,1.416,0.177,1.872,0.528c0.456,0.353,0.684,0.86,0.684,1.524c0,0.943-0.484,1.592-1.452,1.943
			c1.152,0.217,1.728,0.885,1.728,2.004c0,0.776-0.268,1.385-0.804,1.824C130.339,311.601,129.596,311.821,128.644,311.821z"/>
	</g>
	<g>
		<path d="M163.396,311.869v-1.632h-3.708v-0.912l4.2-5.892h1.116v5.58h1.248v1.224h-1.248v1.632H163.396z M161.428,309.013h1.98
			v-2.772L161.428,309.013z"/>
	</g>
	<g>
		<path d="M198.977,311.047c-0.548,0.517-1.29,0.774-2.226,0.774s-1.728-0.184-2.376-0.552l0.288-1.272
			c0.592,0.305,1.136,0.456,1.632,0.456c0.552,0,0.982-0.12,1.29-0.359c0.308-0.24,0.462-0.589,0.462-1.044
			c0-0.92-0.56-1.381-1.68-1.381c-0.224,0-0.502,0.049-0.834,0.145s-0.606,0.2-0.822,0.312l0.312-4.655h4.368v1.283h-3.108
			l-0.12,1.837c0.264-0.097,0.583-0.145,0.96-0.145c0.848,0,1.506,0.222,1.974,0.666c0.468,0.444,0.702,1.098,0.702,1.962
			C199.799,309.873,199.525,310.531,198.977,311.047z"/>
	</g>
	<g>
		<path d="M231.299,311.846c-1.016,0-1.792-0.324-2.328-0.973c-0.536-0.647-0.804-1.544-0.804-2.688v-0.564
			c0-0.768,0.098-1.436,0.294-2.004c0.196-0.567,0.468-1.012,0.816-1.332c0.348-0.319,0.738-0.556,1.17-0.708
			c0.432-0.151,0.908-0.228,1.428-0.228c0.752,0,1.396,0.151,1.932,0.456l-0.288,1.248c-0.48-0.24-1.008-0.36-1.584-0.36
			c-0.616,0-1.104,0.188-1.464,0.564s-0.568,1.02-0.624,1.932c0.544-0.448,1.176-0.672,1.896-0.672c0.736,0,1.328,0.218,1.776,0.653
			c0.448,0.437,0.672,1.038,0.672,1.807c0,0.832-0.252,1.518-0.756,2.058S232.219,311.846,231.299,311.846z M231.263,310.621
			c0.408,0,0.73-0.132,0.966-0.396c0.236-0.265,0.354-0.636,0.354-1.116c0-0.488-0.124-0.846-0.372-1.074
			c-0.248-0.228-0.58-0.342-0.996-0.342c-0.248,0-0.5,0.072-0.756,0.216c-0.256,0.145-0.456,0.309-0.6,0.492v0.072
			C229.859,309.905,230.327,310.621,231.263,310.621z"/>
	</g>
	<g>
		<path d="M263.178,311.701l2.916-6.924h-3.576v-1.308h5.424v0.983l-2.892,7.248H263.178z"/>
	</g>
	<g>
		<path d="M299.227,311.846c-1.008,0-1.786-0.2-2.334-0.601c-0.548-0.399-0.822-0.939-0.822-1.62c0-0.487,0.152-0.916,0.456-1.283
			c0.304-0.368,0.696-0.648,1.176-0.841c-0.936-0.439-1.403-1.092-1.403-1.956c0-0.672,0.264-1.207,0.792-1.607
			c0.527-0.4,1.243-0.601,2.147-0.601s1.61,0.183,2.118,0.547c0.508,0.363,0.762,0.874,0.762,1.529c0,0.425-0.128,0.803-0.384,1.134
			c-0.256,0.333-0.608,0.599-1.056,0.799c1.176,0.416,1.764,1.111,1.764,2.088c0,0.72-0.286,1.302-0.858,1.746
			C301.013,311.623,300.227,311.846,299.227,311.846z M298.033,310.34c0.276,0.212,0.658,0.317,1.146,0.317
			c0.487,0,0.872-0.104,1.151-0.312c0.28-0.208,0.42-0.484,0.42-0.828c0-0.729-0.588-1.229-1.764-1.5
			c-0.384,0.128-0.708,0.322-0.972,0.582c-0.265,0.26-0.396,0.546-0.396,0.857C297.619,309.833,297.757,310.128,298.033,310.34z
			 M299.443,306.805c0.328-0.128,0.598-0.298,0.81-0.511c0.212-0.212,0.318-0.462,0.318-0.75c0-0.304-0.11-0.548-0.33-0.731
			s-0.546-0.276-0.978-0.276c-0.4,0-0.714,0.086-0.942,0.258c-0.228,0.173-0.342,0.406-0.342,0.702
			C297.979,306.145,298.466,306.581,299.443,306.805z"/>
	</g>
	<g>
		<path d="M333.013,303.349c1.032,0,1.826,0.317,2.382,0.954c0.556,0.636,0.834,1.538,0.834,2.706v0.563
			c0,2.849-1.212,4.272-3.636,4.272c-0.752,0-1.424-0.176-2.016-0.528l0.239-1.236c0.185,0.104,0.444,0.2,0.78,0.288
			s0.636,0.132,0.9,0.132c0.647,0,1.144-0.159,1.487-0.479s0.532-0.948,0.564-1.884c-0.536,0.439-1.168,0.659-1.896,0.659
			c-0.735,0-1.328-0.228-1.775-0.684c-0.448-0.456-0.672-1.076-0.672-1.86c0-0.871,0.237-1.573,0.714-2.105
			C331.395,303.615,332.093,303.349,333.013,303.349z M333.061,304.561c-0.4,0-0.708,0.136-0.924,0.408
			c-0.216,0.271-0.324,0.651-0.324,1.14c0,0.504,0.124,0.88,0.372,1.128s0.576,0.372,0.984,0.372c0.256,0,0.514-0.07,0.773-0.21
			s0.458-0.302,0.595-0.486v-0.191C334.538,305.281,334.045,304.561,333.061,304.561z"/>
	</g>
	<g>
		<path d="M362.87,311.749v-6.611l-1.344,0.252v-0.996l2.185-0.96h0.876v8.315H362.87z"/>
		<path d="M369.53,311.846c-0.992,0-1.79-0.328-2.394-0.984c-0.604-0.656-0.906-1.66-0.906-3.012v-0.433c0-0.72,0.09-1.35,0.27-1.89
			c0.181-0.54,0.429-0.966,0.744-1.278c0.316-0.312,0.668-0.542,1.057-0.689c0.388-0.148,0.806-0.223,1.254-0.223
			c0.96,0,1.748,0.33,2.364,0.99c0.615,0.66,0.924,1.679,0.924,3.055v0.42c0,1.392-0.311,2.414-0.931,3.065
			C371.292,311.519,370.498,311.846,369.53,311.846z M369.53,310.573c0.528,0,0.918-0.21,1.17-0.63s0.378-1.102,0.378-2.046v-0.516
			c0-1.849-0.512-2.772-1.536-2.772c-0.52,0-0.903,0.216-1.151,0.648c-0.248,0.432-0.372,1.111-0.372,2.039v0.517
			c0,0.936,0.122,1.63,0.366,2.082C368.627,310.347,369.01,310.573,369.53,310.573z"/>
	</g>
	<g>
		<path d="M398.577,311.749v-6.611l-1.344,0.252v-0.996l2.184-0.96h0.876v8.315H398.577z"/>
		<path d="M403.077,311.749v-6.611l-1.344,0.252v-0.996l2.184-0.96h0.876v8.315H403.077z"/>
	</g>
	<g>
		<path d="M431.655,311.749v-6.611l-1.344,0.252v-0.996l2.185-0.96h0.876v8.315H431.655z"/>
		<path d="M435.04,311.701v-0.983l1.428-1.524c0.472-0.504,0.832-0.902,1.08-1.194s0.481-0.632,0.702-1.02
			c0.22-0.388,0.33-0.734,0.33-1.038c0-0.472-0.131-0.806-0.391-1.002s-0.654-0.294-1.182-0.294c-0.48,0-1.032,0.164-1.656,0.492
			l-0.216-1.212c0.696-0.393,1.488-0.589,2.376-0.589c0.936,0,1.642,0.202,2.118,0.606c0.476,0.404,0.714,0.99,0.714,1.758
			c0,0.353-0.07,0.71-0.21,1.074c-0.141,0.364-0.353,0.732-0.636,1.104c-0.284,0.372-0.513,0.658-0.685,0.858
			s-0.418,0.464-0.738,0.792l-0.852,0.864h3.144v1.308H435.04z"/>
	</g>
	<g>
		<path d="M465.7,311.749v-6.611l-1.344,0.252v-0.996l2.185-0.96h0.876v8.315H465.7z"/>
		<path d="M471.34,311.821c-0.488,0-0.971-0.056-1.446-0.168s-0.838-0.248-1.086-0.408l0.264-1.2c0.2,0.129,0.498,0.236,0.895,0.324
			c0.396,0.088,0.754,0.132,1.074,0.132c1.031,0,1.548-0.428,1.548-1.283c0-0.4-0.128-0.688-0.385-0.864
			c-0.256-0.176-0.636-0.272-1.14-0.288l-0.9-0.024v-1.188l0.805-0.024c0.456-0.016,0.812-0.12,1.067-0.312
			c0.257-0.192,0.385-0.468,0.385-0.828c0-0.368-0.112-0.632-0.336-0.792c-0.225-0.16-0.561-0.24-1.009-0.24
			c-0.567,0-1.151,0.128-1.752,0.384l-0.18-1.235c0.264-0.137,0.622-0.248,1.074-0.336s0.894-0.133,1.326-0.133
			c0.792,0,1.416,0.177,1.872,0.528c0.455,0.353,0.684,0.86,0.684,1.524c0,0.943-0.484,1.592-1.452,1.943
			c1.152,0.217,1.729,0.885,1.729,2.004c0,0.776-0.269,1.385-0.805,1.824C473.036,311.601,472.292,311.821,471.34,311.821z"/>
	</g>
	<g>
		<path d="M499.348,311.749v-6.611l-1.344,0.252v-0.996l2.185-0.96h0.876v8.315H499.348z"/>
		<path d="M506.092,311.869v-1.632h-3.708v-0.912l4.2-5.892h1.116v5.58h1.248v1.224h-1.248v1.632H506.092z M504.125,309.013h1.98
			v-2.772L504.125,309.013z"/>
	</g>
	<g>
		<g>
			<path d="M7.02,192.653v2.232h3.582v2.376H1.224v-2.376h3.853v-2.232H7.02z M8.189,198.035l1.854,1.296
				c-0.204,0.648-0.6,1.32-1.188,2.016c-0.588,0.696-1.206,1.182-1.854,1.458c0.732,0.229,1.438,0.723,2.115,1.485
				s1.148,1.545,1.413,2.349l-1.872,1.206c-0.408-1.2-1.057-2.133-1.944-2.799s-1.92-0.999-3.096-0.999h-1.44v-2.43H3.51
				C5.802,201.617,7.362,200.423,8.189,198.035z M13.968,194.723c0.996,0,1.782,0.507,2.358,1.521
				c0.575,1.014,0.863,2.403,0.863,4.167c0,1.752-0.288,3.132-0.863,4.14c-0.576,1.008-1.362,1.512-2.358,1.512
				c-1.008,0-1.806-0.501-2.394-1.503s-0.883-2.385-0.883-4.149c0-1.764,0.295-3.153,0.883-4.167S12.96,194.723,13.968,194.723z
				 M12.6,200.411c0,1.008,0.123,1.8,0.369,2.376c0.246,0.576,0.579,0.864,0.999,0.864s0.75-0.288,0.99-0.864
				c0.24-0.576,0.359-1.368,0.359-2.376c0-1.044-0.119-1.848-0.359-2.412s-0.57-0.846-0.99-0.846s-0.753,0.285-0.999,0.855
				C12.723,198.578,12.6,199.379,12.6,200.411z"/>
			<path d="M17.262,178.235v2.268h-7.92v1.188h7.182v2.232H1.494v-2.232h5.939v-1.188h-6.21v-2.268H17.262z M11.718,189.125v-0.36
				c0-1.764-0.108-3.12-0.324-4.068l1.8-0.234c0.288,1.332,0.433,3.103,0.433,5.31v1.728H3.096v-6.084H4.95v3.708H11.718z"/>
			<path d="M10.691,163.008v2.43H6.912v2.106H5.004v-2.106h-3.78v-2.43H10.691z M3.978,175.716H2.052v-8.46h1.926v2.97
				c1.104-0.083,2.022-0.456,2.754-1.116c0.732-0.66,1.267-1.5,1.603-2.52l1.89,1.314c-0.216,0.636-0.633,1.311-1.251,2.025
				c-0.618,0.714-1.251,1.215-1.898,1.503c0.684,0.192,1.367,0.678,2.052,1.458c0.684,0.78,1.158,1.572,1.422,2.376l-1.89,1.206
				c-0.408-1.164-1.005-2.07-1.791-2.718s-1.749-0.996-2.89-1.044V175.716z M11.357,173.951v-10.926h5.923v2.394h-4.015v8.532
				H11.357z"/>
			<path d="M12.852,147.456v2.412H1.224v-2.412H12.852z M6.443,160.362c-1.163,0-2.114-0.423-2.853-1.269
				c-0.738-0.846-1.107-1.899-1.107-3.159c0-1.26,0.369-2.316,1.107-3.168s1.689-1.278,2.853-1.278c1.152,0,2.098,0.426,2.836,1.278
				c0.737,0.852,1.106,1.908,1.106,3.168c0,1.26-0.369,2.313-1.106,3.159C8.541,159.939,7.596,160.362,6.443,160.362z M6.443,158.04
				c0.589,0,1.06-0.198,1.413-0.594c0.354-0.396,0.531-0.9,0.531-1.512c0-0.612-0.177-1.119-0.531-1.521
				c-0.354-0.402-0.824-0.603-1.413-0.603c-0.6,0-1.082,0.201-1.448,0.603s-0.549,0.909-0.549,1.521
				c0,0.612,0.183,1.116,0.549,1.512S5.844,158.04,6.443,158.04z M16.866,147.132v11.25h-5.202v-2.394h3.348v-8.856H16.866z"/>
			<path d="M7.614,125.784v1.854h3.582v2.358H1.224v-2.358H5.67v-1.854H7.614z M2.988,137.61H1.404v-4.446h1.584V137.61z
				 M5.094,131.004v9.144H3.456v-9.144H5.094z M10.998,130.716c0.324,3.108,0.485,6.312,0.485,9.612
				c-0.443,0.084-1.044,0.18-1.8,0.288c0.036-0.84,0.055-1.74,0.055-2.7v-1.26H9.342c-0.12,0.84-0.351,1.509-0.693,2.007
				c-0.342,0.498-0.747,0.747-1.215,0.747c-0.624,0-1.131-0.366-1.521-1.098c-0.39-0.731-0.585-1.68-0.585-2.844
				s0.195-2.118,0.585-2.862s0.903-1.116,1.539-1.116c0.468,0,0.87,0.252,1.206,0.756s0.563,1.176,0.684,2.016H9.63
				c-0.084-1.26-0.18-2.4-0.288-3.42C9.738,130.806,10.29,130.764,10.998,130.716z M7.452,133.884c-0.396,0-0.595,0.528-0.595,1.584
				c0,1.056,0.198,1.584,0.595,1.584c0.144,0,0.27-0.135,0.378-0.405c0.107-0.27,0.162-0.663,0.162-1.179
				c0-0.516-0.055-0.909-0.162-1.179C7.722,134.019,7.596,133.884,7.452,133.884z M17.37,127.278v11.52h-3.384v-8.784h-0.559v8.802
				h-1.53v-11.178h3.456v8.766h0.54v-9.126H17.37z"/>
			<path d="M10.638,111.564v2.43H6.426v2.466H4.518v-2.466H1.224v-2.43H10.638z M8.315,115.344l1.854,1.26
				c-0.204,0.624-0.609,1.275-1.215,1.953c-0.606,0.678-1.233,1.161-1.881,1.449c0.731,0.24,1.446,0.744,2.142,1.512
				c0.696,0.768,1.17,1.542,1.422,2.322l-1.926,1.206c-0.42-1.2-1.068-2.13-1.944-2.79c-0.876-0.66-1.901-0.99-3.078-0.99H2.25
				v-2.448h1.296c1.224,0,2.232-0.312,3.024-0.936C7.362,117.259,7.944,116.412,8.315,115.344z M13.968,111.474
				c0.972,0,1.74,0.504,2.304,1.512c0.564,1.008,0.847,2.394,0.847,4.158c0,1.764-0.282,3.147-0.847,4.149
				c-0.563,1.002-1.332,1.503-2.304,1.503c-0.983,0-1.761-0.501-2.331-1.503c-0.569-1.002-0.854-2.385-0.854-4.149
				c0-1.764,0.285-3.15,0.854-4.158C12.207,111.978,12.984,111.474,13.968,111.474z M13.022,114.741
				c-0.222,0.57-0.333,1.371-0.333,2.403s0.111,1.83,0.333,2.394c0.223,0.564,0.537,0.846,0.945,0.846
				c0.384,0,0.69-0.285,0.918-0.855c0.229-0.57,0.342-1.365,0.342-2.385c0-1.032-0.11-1.833-0.333-2.403
				c-0.222-0.57-0.53-0.855-0.927-0.855C13.56,113.886,13.245,114.171,13.022,114.741z"/>
		</g>
	</g>
	<g>
		<path d="M239.938,334.586c-0.072,2.16-0.759,3.942-2.061,5.347c-1.302,1.403-3.123,2.441-5.463,3.113l-0.936-1.926
			c1.476-0.3,2.769-0.888,3.879-1.764s1.743-1.812,1.899-2.809h-4.95v-1.962H239.938z M244.33,349.526h-10.458v-6.229h10.458
			V349.526z M241.972,347.69v-2.61h-5.724v2.61H241.972z M246.562,339.176h-2.232v3.349h-2.376v-8.856h2.376v3.564h2.232V339.176z"
			/>
		<path d="M247.462,338.456c0-1.128,0.398-2.052,1.197-2.771c0.798-0.721,1.803-1.08,3.015-1.08c1.212,0,2.22,0.359,3.024,1.08
			c0.804,0.72,1.206,1.644,1.206,2.771s-0.402,2.056-1.206,2.781c-0.804,0.726-1.812,1.089-3.024,1.089
			c-1.212,0-2.217-0.36-3.015-1.08C247.86,340.526,247.462,339.596,247.462,338.456z M250.288,337.097
			c-0.36,0.342-0.54,0.801-0.54,1.377c0,0.575,0.18,1.028,0.54,1.358c0.36,0.33,0.822,0.495,1.386,0.495
			c0.564,0,1.026-0.165,1.386-0.495c0.36-0.33,0.54-0.783,0.54-1.358c0-0.576-0.183-1.035-0.549-1.377
			c-0.366-0.343-0.825-0.514-1.377-0.514C251.109,336.584,250.648,336.755,250.288,337.097z M260.638,349.526h-10.836v-5.958h10.836
			V349.526z M258.208,347.69v-2.34h-5.994v2.34H258.208z M260.638,342.884h-2.43v-1.781h-1.818l0.072-2.017h1.746v-1.512h-1.746
			l-0.072-2.034h1.818v-1.872h2.43V342.884z"/>
		<path d="M276.009,349.67h-2.358v-3.527h-6.048v-1.872h14.49v1.872h-6.084V349.67z M281.301,338.186h-12.888v-1.872h12.888V338.186
			z M278.809,339.266c0.941,0.479,1.413,1.115,1.413,1.907s-0.472,1.422-1.413,1.891c-0.942,0.468-2.254,0.702-3.934,0.702
			c-1.68,0-2.988-0.234-3.924-0.702c-0.936-0.469-1.404-1.099-1.404-1.891s0.468-1.428,1.404-1.907
			c0.936-0.48,2.244-0.721,3.924-0.721C276.555,338.546,277.867,338.786,278.809,339.266z M271.923,335.702v-1.836h5.868v1.836
			H271.923z M277.684,341.192c0-0.228-0.262-0.426-0.783-0.594c-0.522-0.168-1.197-0.253-2.025-0.253s-1.5,0.085-2.016,0.253
			s-0.774,0.366-0.774,0.594c0,0.24,0.258,0.444,0.774,0.611c0.516,0.169,1.188,0.253,2.016,0.253s1.503-0.084,2.025-0.253
			C277.422,341.637,277.684,341.432,277.684,341.192z"/>
		<path d="M296.241,334.676c-0.06,2.16-0.75,3.96-2.069,5.4c-1.32,1.44-3.139,2.473-5.454,3.096l-0.918-1.872
			c1.464-0.3,2.754-0.899,3.869-1.8c1.116-0.899,1.752-1.859,1.908-2.88h-4.968v-1.944H296.241z M301.334,346.376
			c0,1.021-0.488,1.83-1.467,2.431c-0.978,0.6-2.331,0.899-4.059,0.899c-1.692,0-3.024-0.3-3.996-0.899
			c-0.972-0.601-1.458-1.41-1.458-2.431c0-1.031,0.486-1.851,1.458-2.457c0.972-0.605,2.304-0.909,3.996-0.909
			c1.728,0,3.081,0.304,4.059,0.909C300.846,344.525,301.334,345.345,301.334,346.376z M298.077,347.447
			c0.528-0.258,0.792-0.615,0.792-1.071s-0.267-0.815-0.801-1.08c-0.534-0.264-1.287-0.396-2.259-0.396
			c-0.925,0-1.65,0.132-2.178,0.396c-0.528,0.265-0.792,0.624-0.792,1.08s0.261,0.813,0.782,1.071
			c0.522,0.258,1.251,0.387,2.188,0.387C296.792,347.834,297.548,347.705,298.077,347.447z M301.245,342.704h-2.43v-1.439h-2.574
			v-1.837h2.574v-1.403h-2.448v-1.818h2.448v-2.538h2.43V342.704z"/>
		<path d="M313.233,346.052c-1.692,0.229-3.648,0.402-5.868,0.522c-1.86,0.061-3.198,0.09-4.014,0.09l-0.252-1.944h3.132v-4.338
			h2.268v4.248c2.064-0.132,3.582-0.258,4.555-0.378L313.233,346.052z M312.657,335.234c0,3.132-0.187,5.532-0.558,7.2l-2.214-0.234
			c0.252-1.512,0.378-3.186,0.378-5.022h-6.192v-1.943H312.657z M318.254,342.002h-2.088v7.704h-2.357v-16.038h2.357v6.391h2.088
			V342.002z"/>
		<path d="M319.497,337.952c0-1.104,0.414-2.001,1.242-2.691c0.828-0.689,1.859-1.034,3.096-1.034c1.248,0,2.292,0.348,3.132,1.044
			c0.84,0.695,1.261,1.59,1.261,2.682c0,1.08-0.421,1.971-1.261,2.673s-1.884,1.053-3.132,1.053s-2.283-0.351-3.104-1.053
			C319.908,339.923,319.497,339.032,319.497,337.952z M332.817,349.58h-11.196v-4.464h8.334v-0.774h-8.298v-1.872h10.71v4.356
			h-8.353v0.882h8.803V349.58z M321.819,337.952c0,0.552,0.188,0.996,0.566,1.332s0.861,0.504,1.449,0.504s1.077-0.168,1.467-0.504
			s0.585-0.78,0.585-1.332s-0.195-0.999-0.585-1.341s-0.879-0.513-1.467-0.513s-1.071,0.168-1.449,0.504
			S321.819,337.388,321.819,337.952z M332.367,341.858h-2.412v-8.19h2.412V341.858z"/>
	</g>
	<g>
		<g>
			<line fill="none" stroke="#006838" stroke-width="2" stroke-miterlimit="10" x1="41.867" y1="25.358" x2="41.867" y2="28.358"/>
			
				<line fill="none" stroke="#006838" stroke-width="2" stroke-miterlimit="10" stroke-dasharray="6.0132,2.0044" x1="41.867" y1="30.363" x2="41.867" y2="277.904"/>
			
				<line fill="none" stroke="#006838" stroke-width="2" stroke-miterlimit="10" x1="41.867" y1="278.907" x2="41.867" y2="281.907"/>
		</g>
	</g>
	<g>
		<g>
			
				<line fill="none" stroke="#000000" stroke-width="2" stroke-miterlimit="10" x1="199.799" y1="25.248" x2="199.799" y2="28.248"/>
			
				<line fill="none" stroke="#000000" stroke-width="2" stroke-miterlimit="10" stroke-dasharray="6.0132,2.0044" x1="199.799" y1="30.253" x2="199.799" y2="277.794"/>
			
				<line fill="none" stroke="#000000" stroke-width="2" stroke-miterlimit="10" x1="199.799" y1="278.797" x2="199.799" y2="281.797"/>
		</g>
	</g>
	<g>
		<g>
			
				<line fill="none" stroke="#F7941D" stroke-width="2" stroke-miterlimit="10" x1="265.898" y1="25.248" x2="265.898" y2="28.248"/>
			
				<line fill="none" stroke="#F7941D" stroke-width="2" stroke-miterlimit="10" stroke-dasharray="6.0132,2.0044" x1="265.898" y1="30.253" x2="265.898" y2="277.794"/>
			
				<line fill="none" stroke="#F7941D" stroke-width="2" stroke-miterlimit="10" x1="265.898" y1="278.797" x2="265.898" y2="281.797"/>
		</g>
	</g>
	<g>
		<path d="M79.22,145.659v-6.948h-2.292v-1.284h6.3v1.284h-2.316v6.948H79.22z"/>
		<path d="M85.076,147.41c-0.432,0-0.764-0.064-0.996-0.192v-1.068c0.152,0.048,0.364,0.072,0.636,0.072
			c0.288,0,0.502-0.044,0.642-0.132s0.266-0.26,0.378-0.516l0.216-0.552l-2.34-5.58h1.656l1.452,3.648h0.048l1.38-3.648h1.512
			l-2.256,6.012C86.956,146.759,86.18,147.41,85.076,147.41z"/>
		<path d="M90.5,147.423v-7.98h1.512v0.54h0.06c0.424-0.44,1.02-0.66,1.788-0.66c0.712,0,1.294,0.24,1.746,0.72
			c0.452,0.48,0.678,1.252,0.678,2.316v0.132c0,2.184-0.94,3.276-2.82,3.276c-0.56,0-1.024-0.108-1.392-0.324v1.98H90.5z
			 M93.224,144.615c0.48,0,0.84-0.144,1.08-0.432c0.24-0.288,0.36-0.784,0.36-1.488v-0.228c0-0.704-0.112-1.192-0.336-1.464
			s-0.572-0.408-1.044-0.408c-0.496,0-0.9,0.108-1.212,0.324v3.384C92.36,144.511,92.744,144.615,93.224,144.615z"/>
		<path d="M100.184,145.767c-1.032,0-1.812-0.272-2.34-0.816c-0.528-0.544-0.792-1.32-0.792-2.328v-0.156
			c0-1,0.268-1.772,0.804-2.316c0.536-0.544,1.24-0.816,2.112-0.816c0.928,0,1.606,0.256,2.034,0.768
			c0.428,0.512,0.642,1.276,0.642,2.292v0.576H98.66c0.056,0.576,0.236,0.986,0.54,1.23c0.304,0.244,0.752,0.366,1.344,0.366
			c0.624,0,1.252-0.136,1.884-0.408v1.032C101.852,145.575,101.104,145.767,100.184,145.767z M99.932,140.451
			c-0.328,0-0.612,0.116-0.852,0.348c-0.24,0.232-0.38,0.616-0.42,1.152h2.436c0-0.536-0.096-0.92-0.288-1.152
			S100.324,140.451,99.932,140.451z"/>
		<path d="M107.059,145.659v-8.232h1.716v8.232H107.059z"/>
		<path d="M73.046,154.286c0-0.776,0.282-1.41,0.846-1.902s1.266-0.738,2.106-0.738c0.84,0,1.544,0.246,2.112,0.738
			c0.568,0.492,0.852,1.126,0.852,1.902c0,0.768-0.284,1.398-0.852,1.89c-0.568,0.492-1.272,0.738-2.112,0.738
			c-0.84,0-1.542-0.246-2.106-0.738S73.046,155.055,73.046,154.286z M81.866,161.235h-7.5v-3.468h1.596v2.232h5.904V161.235z
			 M74.594,154.286c0,0.392,0.132,0.706,0.396,0.942c0.264,0.236,0.6,0.354,1.008,0.354c0.408,0,0.746-0.118,1.014-0.354
			c0.268-0.236,0.402-0.55,0.402-0.942c0-0.4-0.134-0.722-0.402-0.966s-0.606-0.366-1.014-0.366c-0.408,0-0.744,0.122-1.008,0.366
			S74.594,153.887,74.594,154.286z M81.65,158.558h-1.608v-7.752h1.608V158.558z"/>
		<path d="M85.118,157.695c0.272,0.016,0.492,0.024,0.66,0.024c1.192,0,2.244-0.096,3.156-0.288c0.008,0.12,0.02,0.248,0.036,0.384
			c0.016,0.136,0.036,0.288,0.06,0.456c0.024,0.168,0.04,0.296,0.048,0.384c-1.216,0.24-2.6,0.36-4.152,0.36
			c-0.504,0-0.964-0.016-1.38-0.048v-7.26h4.896v1.236h-3.324v1.632h2.952v1.26h-2.952V157.695z M92.018,161.499h-1.596v-5.592
			h-1.704v-1.356h1.704v-3.744h1.596V161.499z"/>
		<path d="M98.414,158.739c-1.592,0.224-3.212,0.336-4.86,0.336l-0.18-1.368c0.072,0,0.214-0.001,0.426-0.006
			c0.212-0.004,0.382-0.006,0.51-0.006l-0.264-3.72c0.032,0,0.242-0.02,0.63-0.06c0.388-0.04,0.678-0.068,0.87-0.084l0.072,3.816
			c0.144,0,0.352-0.008,0.624-0.024c0.064-1.72,0.116-2.984,0.156-3.792c0.032,0,0.516,0.048,1.452,0.144
			c-0.024,0.44-0.07,1.064-0.138,1.872c-0.068,0.808-0.114,1.372-0.138,1.692c0.256-0.024,0.512-0.056,0.768-0.096
			C98.341,157.491,98.365,157.923,98.414,158.739z M98.341,153.375h-4.764v-1.236h4.764V153.375z M100.609,161.007h-1.5v-4.968
			h-0.96v-1.332h0.96v-3.708h1.5V161.007z M102.649,161.499h-1.512v-10.692h1.512V161.499z"/>
		<path d="M112.478,155.859h-2.988v0.816h4.08v1.272h-9.66v-1.272h4.008v-0.816h-2.748v-2.94h5.496v-0.6h-5.496v-1.176h7.104v2.904
			h-5.496v0.624h5.7V155.859z M112.405,161.235h-7.284v-2.892h1.584v1.656h5.7V161.235z"/>
	</g>
	<g>
		<path d="M144.523,64.653v-8.232h1.908l3.18,5.472h0.036v-5.472h1.5v8.232h-1.68l-3.408-5.904h-0.036v5.904H144.523z"/>
		<path d="M152.827,64.653v-8.232h1.692v8.232H152.827z M157.531,64.653c-1.352-1.928-2.336-3.316-2.952-4.164
			c0.312-0.432,0.8-1.102,1.464-2.01c0.664-0.908,1.164-1.598,1.5-2.07c0.2,0,0.496,0.002,0.888,0.006s0.684,0.006,0.876,0.006
			l-2.892,3.9c1.12,1.56,2.14,3.004,3.06,4.332H157.531z"/>
		<path d="M168.583,62.301l-0.948,1.236c-0.352-0.224-0.718-0.574-1.098-1.05c-0.38-0.476-0.63-0.938-0.75-1.386
			c-0.136,0.504-0.4,1.014-0.792,1.53c-0.392,0.516-0.82,0.906-1.284,1.17l-0.9-1.188c0.728-0.439,1.274-1.042,1.638-1.806
			c0.364-0.764,0.546-1.738,0.546-2.922v-1.452h1.584v1.428c0,1.176,0.168,2.106,0.504,2.79S167.919,61.886,168.583,62.301z
			 M170.095,65.613h-1.44v-5.268h-1.272v-1.332h1.272v-3.42h1.44V65.613z M172.255,66.094h-1.488V55.401h1.488V66.094z"/>
		<path d="M183.175,64.762h-9.66v-1.236h4.044v-1.92h-3.18v-1.248h1.512l-0.336-2.304l1.572-0.156l0.216,2.46h2.016l0.24-2.448
			l1.572,0.168l-0.408,2.28h1.488v1.248h-3.12v1.92h4.044V64.762z M182.275,57.49h-7.908v-1.26h7.908V57.49z"/>
	</g>
	<g>
		<path d="M303.99,81.408h-5.124v-7.212h1.572v2.52h1.943v-2.52h1.608V81.408z M302.381,80.16v-2.232h-1.943v2.232H302.381z
			 M306.881,73.344v3.96h1.429V78.6h-1.429v5.436h-1.571V73.344H306.881z"/>
		<path d="M309.15,77.892c0-1.144,0.25-2.074,0.75-2.79s1.182-1.074,2.046-1.074c0.872,0,1.56,0.358,2.063,1.074
			c0.505,0.716,0.757,1.646,0.757,2.79c0,1.128-0.252,2.048-0.757,2.76c-0.504,0.712-1.191,1.068-2.063,1.068
			c-0.856,0-1.536-0.355-2.04-1.068C309.402,79.94,309.15,79.02,309.15,77.892z M313.278,77.892c0-0.792-0.122-1.4-0.366-1.824
			c-0.244-0.424-0.566-0.636-0.966-0.636c-0.376,0-0.685,0.214-0.924,0.642c-0.24,0.428-0.36,1.034-0.36,1.818
			c0,0.776,0.12,1.378,0.36,1.806c0.239,0.428,0.548,0.642,0.924,0.642c0.399,0,0.722-0.212,0.966-0.636
			C313.156,79.28,313.278,78.676,313.278,77.892z M317.742,84.036h-1.584V73.344h1.584V84.036z"/>
		<path d="M325.085,79.98l0.132,1.284c-0.96,0.216-2.496,0.324-4.607,0.324c-0.265,0-0.62-0.008-1.068-0.024v-4.548h3.288v-1.548
			h-3.3v-1.236h4.896v4.032h-3.275v2.004C322.333,80.324,323.646,80.228,325.085,79.98z M328.11,84.036h-1.597V78.48h-1.464v-1.332
			h1.464v-3.804h1.597V84.036z"/>
		<path d="M339.282,82.668h-9.66v-1.26h9.66V82.668z M339.017,78.216l-0.708,1.284c-0.76-0.152-1.525-0.486-2.298-1.002
			c-0.771-0.516-1.298-1.134-1.578-1.854c-0.271,0.72-0.785,1.336-1.542,1.848c-0.756,0.512-1.521,0.848-2.298,1.008
			c-0.04-0.08-0.147-0.272-0.324-0.576c-0.176-0.304-0.308-0.54-0.396-0.708c0.952-0.12,1.81-0.502,2.574-1.146
			c0.764-0.644,1.146-1.426,1.146-2.346v-0.636h1.704v0.636c0,0.92,0.378,1.7,1.134,2.34S338.049,78.088,339.017,78.216z"/>
		<path d="M352.817,80.16h-9.66V78.9h9.66V80.16z M344.309,80.772h7.272v3.348h-1.584v-2.1h-5.688V80.772z M351.389,76.644h-5.424
			v0.516h5.676v1.2h-7.248v-4.62h7.164v1.224h-5.592v0.492h5.424V76.644z"/>
		<path d="M353.825,77.892c0-1.144,0.25-2.074,0.75-2.79s1.183-1.074,2.046-1.074c0.872,0,1.561,0.358,2.064,1.074
			s0.756,1.646,0.756,2.79c0,1.128-0.252,2.048-0.756,2.76c-0.504,0.712-1.192,1.068-2.064,1.068c-0.855,0-1.535-0.355-2.04-1.068
			C354.077,79.94,353.825,79.02,353.825,77.892z M357.953,77.892c0-0.792-0.122-1.4-0.365-1.824
			c-0.244-0.424-0.566-0.636-0.967-0.636c-0.376,0-0.684,0.214-0.924,0.642c-0.24,0.428-0.359,1.034-0.359,1.818
			c0,0.776,0.119,1.378,0.359,1.806c0.24,0.428,0.548,0.642,0.924,0.642c0.4,0,0.723-0.212,0.967-0.636
			C357.831,79.28,357.953,78.676,357.953,77.892z M362.417,84.036h-1.585V73.344h1.585V84.036z"/>
		<path d="M364.336,75.18v-1.284h5.641v1.284h-1.98c0.057,0.736,0.305,1.348,0.744,1.836c0.44,0.488,1,0.844,1.68,1.068l-0.876,1.26
			c-0.424-0.144-0.874-0.422-1.35-0.834c-0.476-0.412-0.81-0.834-1.002-1.266c-0.128,0.456-0.452,0.912-0.972,1.368
			c-0.521,0.456-1.049,0.772-1.584,0.948l-0.805-1.26c0.776-0.272,1.38-0.67,1.812-1.194c0.432-0.524,0.664-1.166,0.696-1.926
			H364.336z M365.513,80.1h7.284v3.948h-1.597v-2.676h-5.688V80.1z M372.809,79.656h-1.62v-2.52h-1.404v-1.272h1.404v-2.52h1.62
			V79.656z"/>
		<path d="M379.636,82.596v-6.948h-2.292v-1.284h6.3v1.284h-2.315v6.948H379.636z"/>
		<path d="M392.861,80.244l-0.948,1.236c-0.353-0.224-0.718-0.574-1.098-1.05c-0.381-0.476-0.631-0.938-0.75-1.386
			c-0.137,0.504-0.4,1.014-0.792,1.53c-0.393,0.516-0.82,0.906-1.284,1.17l-0.9-1.188c0.728-0.439,1.274-1.042,1.638-1.806
			c0.364-0.764,0.547-1.738,0.547-2.922v-1.452h1.584v1.428c0,1.176,0.168,2.106,0.504,2.79S392.197,79.828,392.861,80.244z
			 M394.373,83.556h-1.44v-5.268h-1.271v-1.332h1.271v-3.42h1.44V83.556z M396.533,84.036h-1.488V73.344h1.488V84.036z"/>
		<path d="M407.453,82.704h-9.66v-1.236h4.044v-1.92h-3.18V78.3h1.512l-0.336-2.304l1.572-0.156l0.216,2.46h2.016l0.24-2.448
			l1.572,0.168l-0.408,2.28h1.488v1.248h-3.12v1.92h4.044V82.704z M406.552,75.432h-7.908v-1.26h7.908V75.432z"/>
	</g>
	<g>
		<path d="M437.111,143.786h2.952v-0.672h-4.008v-1.26h9.66v1.26h-4.08v0.672h2.819v3.348h-1.584v-2.064h-5.76V143.786z
			 M445.175,140.33l-0.552,1.2c-0.816,0.008-1.58-0.128-2.292-0.408c-0.713-0.28-1.196-0.64-1.452-1.08
			c-0.257,0.448-0.729,0.812-1.416,1.092c-0.688,0.28-1.464,0.416-2.328,0.408l-0.552-1.236c1.607,0,2.655-0.316,3.144-0.948h-2.64
			v-1.212h7.596v1.212h-2.616C442.571,140.006,443.607,140.33,445.175,140.33z M439.079,137.738v-1.2h3.601v1.2H439.079z"/>
		<path d="M446.855,138.242v-1.284h5.64v1.284h-1.979c0.056,0.736,0.304,1.348,0.744,1.836c0.439,0.488,1,0.844,1.68,1.068
			l-0.876,1.26c-0.424-0.144-0.874-0.422-1.35-0.834c-0.477-0.412-0.811-0.834-1.002-1.266c-0.129,0.456-0.452,0.912-0.973,1.368
			c-0.52,0.456-1.048,0.772-1.584,0.948l-0.804-1.26c0.775-0.272,1.38-0.67,1.812-1.194c0.433-0.524,0.664-1.166,0.696-1.926
			H446.855z M448.031,143.162h7.284v3.948h-1.596v-2.676h-5.688V143.162z M455.327,142.718h-1.62v-2.52h-1.403v-1.272h1.403v-2.52
			h1.62V142.718z"/>
		<path d="M463.727,142.946c-0.776,0.104-1.872,0.196-3.288,0.276c-1.608,0.064-2.752,0.088-3.433,0.072l-0.191-1.284
			c0.952,0,1.86-0.012,2.724-0.036v-1.08h-1.788v-3.84h5.112v1.272h-3.504v1.32h3.492v1.248h-1.729v1.02
			c0.553-0.016,1.388-0.068,2.508-0.156L463.727,142.946z M465.935,146.858h-7.404v-3.072h1.596v1.824h5.809V146.858z
			 M465.767,136.406v7.932h-1.572v-7.932H465.767z"/>
		<path d="M480.01,145.766h-9.66v-1.236h4.009v-2.304h1.571v2.304h4.08V145.766z M479.71,141.29c-0.152,0.28-0.388,0.7-0.708,1.26
			c-0.488-0.096-0.97-0.242-1.446-0.438c-0.476-0.196-0.947-0.48-1.416-0.852c-0.468-0.372-0.794-0.786-0.978-1.242
			c-0.185,0.448-0.5,0.862-0.948,1.242c-0.448,0.38-0.914,0.674-1.397,0.882c-0.484,0.208-0.967,0.36-1.446,0.456l-0.72-1.26
			c0.88-0.104,1.674-0.41,2.382-0.918c0.708-0.508,1.122-1.15,1.242-1.926h-3.181v-1.248h8.172v1.248h-3.216
			c0.08,0.528,0.314,0.998,0.702,1.41c0.388,0.412,0.836,0.73,1.344,0.954S479.142,141.226,479.71,141.29z"/>
		<path d="M481.174,138.326v-1.296h5.748v1.296h-1.992c0.064,0.712,0.32,1.312,0.769,1.8c0.447,0.488,1.012,0.848,1.691,1.08
			l-0.864,1.248c-0.432-0.136-0.894-0.412-1.386-0.828s-0.834-0.836-1.025-1.26c-0.129,0.456-0.461,0.91-0.996,1.362
			c-0.536,0.452-1.072,0.762-1.608,0.93l-0.804-1.236c0.768-0.264,1.378-0.66,1.83-1.188c0.451-0.528,0.702-1.164,0.75-1.908
			H481.174z M482.338,143.138h7.296v3.972h-1.596v-2.736h-5.7V143.138z M489.623,142.67h-1.62v-6.264h1.62V142.67z"/>
		<path d="M503.926,143.126h-9.66v-1.248h4.032v-1.428h1.571v1.428h4.057V143.126z M499.09,138.806
			c-0.28,0.584-0.786,1.09-1.519,1.518c-0.731,0.428-1.481,0.698-2.25,0.81l-0.611-1.236c1.008-0.128,1.855-0.444,2.544-0.948
			c0.688-0.504,1.031-1.132,1.031-1.884v-0.348h1.608v0.348c0,0.76,0.336,1.38,1.008,1.86s1.528,0.788,2.568,0.924l-0.601,1.236
			c-0.792-0.112-1.548-0.374-2.268-0.786C499.882,139.888,499.378,139.39,499.09,138.806z M502.834,146.858h-7.345v-3.156h1.584
			v1.908h5.761V146.858z"/>
		<path d="M510.946,141.05l-0.864,1.236c-0.432-0.136-0.88-0.4-1.344-0.792c-0.464-0.392-0.788-0.804-0.972-1.236
			c-0.152,0.488-0.482,0.958-0.99,1.41s-1.03,0.766-1.566,0.942l-0.804-1.248c0.8-0.272,1.422-0.704,1.866-1.296
			c0.444-0.592,0.666-1.28,0.666-2.064v-0.96h1.62v0.888C508.558,139.458,509.354,140.498,510.946,141.05z M513.154,144.902
			c0,0.664-0.338,1.188-1.014,1.572c-0.677,0.384-1.603,0.576-2.778,0.576c-1.168,0-2.088-0.192-2.76-0.576
			c-0.672-0.384-1.008-0.908-1.008-1.572c0-0.672,0.334-1.204,1.002-1.596c0.668-0.392,1.59-0.588,2.766-0.588
			s2.102,0.196,2.778,0.588C512.816,143.698,513.154,144.23,513.154,144.902z M509.362,143.99c-0.672,0-1.2,0.083-1.584,0.246
			c-0.384,0.164-0.576,0.386-0.576,0.666c0,0.28,0.192,0.5,0.576,0.66s0.912,0.24,1.584,0.24c0.696,0,1.232-0.08,1.608-0.24
			s0.563-0.38,0.563-0.66c0-0.28-0.189-0.502-0.569-0.666C510.583,144.073,510.05,143.99,509.362,143.99z M514.534,140.27h-1.488
			v2.388h-1.584v-6.252h1.584v2.568h1.488V140.27z"/>
	</g>
	<g>
		<path fill="#F78F1E" d="M348.417,207.639h-6.228v-1.212h6.228V207.639z M347.913,209.619c0,0.52-0.244,0.958-0.732,1.314
			c-0.487,0.356-1.104,0.534-1.848,0.534c-0.752,0-1.372-0.178-1.86-0.534c-0.487-0.356-0.731-0.794-0.731-1.314
			c0-0.512,0.241-0.942,0.726-1.29c0.484-0.348,1.106-0.522,1.866-0.522c0.744,0,1.36,0.176,1.848,0.528
			C347.668,208.688,347.913,209.116,347.913,209.619z M350.661,213.495c0,0.56-0.326,0.992-0.979,1.296
			c-0.651,0.304-1.554,0.456-2.706,0.456c-1.151,0-2.056-0.152-2.712-0.456c-0.655-0.304-0.983-0.736-0.983-1.296
			c0-0.552,0.33-0.98,0.989-1.284c0.66-0.304,1.562-0.456,2.706-0.456c1.145,0,2.044,0.152,2.7,0.456
			C350.333,212.515,350.661,212.944,350.661,213.495z M343.737,205.995v-1.2h3.204v1.2H343.737z M344.336,209.619
			c0,0.2,0.094,0.37,0.282,0.51c0.188,0.14,0.426,0.21,0.714,0.21s0.528-0.07,0.72-0.21c0.192-0.14,0.288-0.31,0.288-0.51
			c0-0.192-0.098-0.358-0.294-0.498c-0.196-0.14-0.434-0.21-0.714-0.21c-0.288,0-0.526,0.07-0.714,0.21
			C344.43,209.262,344.336,209.428,344.336,209.619z M346.976,212.931c-0.647,0-1.153,0.054-1.518,0.162s-0.546,0.246-0.546,0.414
			c0,0.176,0.182,0.316,0.546,0.42s0.87,0.156,1.518,0.156c0.656,0,1.168-0.052,1.536-0.156s0.553-0.244,0.553-0.42
			c0-0.168-0.185-0.306-0.553-0.414S347.632,212.931,346.976,212.931z M351.968,209.008h-1.344v2.736h-1.572v-7.164h1.572v3.132
			h1.344V209.008z"/>
		<path fill="#F78F1E" d="M357.909,211.948l-0.84,1.2c-0.36-0.2-0.729-0.522-1.104-0.966s-0.632-0.874-0.768-1.29
			c-0.12,0.448-0.364,0.898-0.732,1.35c-0.368,0.452-0.784,0.818-1.248,1.098l-0.864-1.128c0.681-0.384,1.183-0.86,1.506-1.428
			c0.324-0.568,0.507-1.336,0.547-2.304h-1.681v-1.236h4.812v1.236h-1.597c0.049,0.936,0.232,1.662,0.553,2.178
			C356.812,211.174,357.285,211.604,357.909,211.948z M356.6,206.572h-2.819v-1.224h2.819V206.572z M359.672,214.791h-1.476v-4.488
			h-1.212v-1.272h1.212v-4.26h1.476V214.791z M361.724,215.272h-1.487v-10.692h1.487V215.272z"/>
		<path fill="#F78F1E" d="M368.096,211.431c0.104,0.008,0.284,0.012,0.54,0.012c1.456,0,2.672-0.092,3.647-0.276
			c0.017,0.136,0.04,0.338,0.072,0.606s0.056,0.47,0.072,0.606c-1.296,0.24-2.756,0.36-4.38,0.36c-0.168,0-0.423-0.004-0.763-0.012
			c-0.34-0.008-0.594-0.012-0.762-0.012v-7.188h4.92v1.236h-3.348v1.596h3.191v1.272h-3.191V211.431z M374.528,204.579v3.96h1.416
			v1.308h-1.416v5.424h-1.572v-10.692H374.528z"/>
		<path fill="#F78F1E" d="M376.808,209.128c0-1.144,0.25-2.074,0.75-2.79s1.182-1.074,2.046-1.074c0.872,0,1.56,0.358,2.063,1.074
			c0.505,0.716,0.757,1.646,0.757,2.79c0,1.128-0.252,2.048-0.757,2.76c-0.504,0.712-1.191,1.068-2.063,1.068
			c-0.856,0-1.536-0.355-2.04-1.068C377.06,211.176,376.808,210.256,376.808,209.128z M380.936,209.128
			c0-0.792-0.122-1.4-0.366-1.824c-0.244-0.424-0.566-0.636-0.966-0.636c-0.376,0-0.685,0.214-0.924,0.642
			c-0.24,0.428-0.36,1.034-0.36,1.818c0,0.776,0.12,1.378,0.36,1.806c0.239,0.428,0.548,0.642,0.924,0.642
			c0.399,0,0.722-0.212,0.966-0.636C380.814,210.515,380.936,209.911,380.936,209.128z M385.4,215.272h-1.584v-10.692h1.584V215.272
			z"/>
		<path fill="#F78F1E" d="M388.868,211.468c0.272,0.016,0.492,0.024,0.66,0.024c1.192,0,2.244-0.096,3.156-0.288
			c0.008,0.12,0.02,0.248,0.036,0.384c0.016,0.136,0.035,0.288,0.06,0.456c0.024,0.168,0.04,0.296,0.048,0.384
			c-1.216,0.24-2.6,0.36-4.151,0.36c-0.505,0-0.965-0.016-1.381-0.048v-7.26h4.896v1.236h-3.324v1.632h2.952v1.26h-2.952V211.468z
			 M395.768,215.272h-1.597v-5.592h-1.703v-1.356h1.703v-3.744h1.597V215.272z"/>
	</g>
	<g>
		<g>
			<line fill="none" stroke="#006838" stroke-width="2" stroke-miterlimit="10" x1="35.688" y1="25.248" x2="190.111" y2="25.248"/>
			<g>
				<polygon fill="#006838" points="37.147,30.235 28.513,25.248 37.147,20.262 				"/>
			</g>
			<g>
				<polygon fill="#006838" points="188.652,30.235 197.287,25.248 188.652,20.262 				"/>
			</g>
		</g>
	</g>
	<g>
		<g>
			
				<line fill="none" stroke="#F7941D" stroke-width="2" stroke-miterlimit="10" x1="206.975" y1="25.248" x2="515.272" y2="25.248"/>
			<g>
				<polygon fill="#F7941D" points="208.434,30.235 199.799,25.248 208.434,20.262 				"/>
			</g>
			<g>
				<polygon fill="#F7941D" points="513.813,30.235 522.448,25.248 513.813,20.262 				"/>
			</g>
		</g>
	</g>
	<g>
		<path fill="#004030" d="M106.563,265.59h-5.124v-7.212h1.572v2.52h1.944v-2.52h1.608V265.59z M104.955,264.342v-2.232h-1.944
			v2.232H104.955z M109.455,257.526v3.96h1.428v1.296h-1.428v5.436h-1.572v-10.692H109.455z"/>
		<path fill="#004030" d="M111.723,262.075c0-1.144,0.25-2.074,0.75-2.79s1.182-1.074,2.046-1.074c0.872,0,1.56,0.358,2.064,1.074
			c0.504,0.716,0.756,1.646,0.756,2.79c0,1.128-0.252,2.048-0.756,2.76c-0.504,0.712-1.192,1.068-2.064,1.068
			c-0.856,0-1.536-0.355-2.04-1.068C111.975,264.122,111.723,263.202,111.723,262.075z M115.851,262.075
			c0-0.792-0.122-1.4-0.366-1.824c-0.244-0.424-0.566-0.636-0.966-0.636c-0.376,0-0.684,0.214-0.924,0.642
			c-0.24,0.428-0.36,1.034-0.36,1.818c0,0.776,0.12,1.378,0.36,1.806c0.24,0.428,0.548,0.642,0.924,0.642
			c0.4,0,0.722-0.212,0.966-0.636C115.729,263.462,115.851,262.858,115.851,262.075z M120.315,268.219h-1.584v-10.692h1.584V268.219
			z"/>
		<path fill="#004030" d="M127.659,264.162l0.132,1.284c-0.96,0.216-2.496,0.324-4.608,0.324c-0.264,0-0.62-0.008-1.068-0.024
			v-4.548h3.288v-1.548h-3.3v-1.236h4.896v4.032h-3.276v2.004C124.907,264.506,126.219,264.41,127.659,264.162z M130.683,268.219
			h-1.596v-5.556h-1.464v-1.332h1.464v-3.804h1.596V268.219z"/>
		<path fill="#004030" d="M141.855,266.85h-9.66v-1.26h9.66V266.85z M141.591,262.398l-0.708,1.284
			c-0.76-0.152-1.526-0.486-2.298-1.002c-0.772-0.516-1.298-1.134-1.578-1.854c-0.272,0.72-0.786,1.336-1.542,1.848
			c-0.756,0.512-1.522,0.848-2.298,1.008c-0.04-0.08-0.148-0.272-0.324-0.576c-0.176-0.304-0.308-0.54-0.396-0.708
			c0.952-0.12,1.81-0.502,2.574-1.146c0.764-0.644,1.146-1.426,1.146-2.346v-0.636h1.704v0.636c0,0.92,0.378,1.7,1.134,2.34
			S140.623,262.27,141.591,262.398z"/>
		<path fill="#004030" d="M147.687,264.378c0.104,0.008,0.284,0.012,0.54,0.012c1.456,0,2.672-0.092,3.648-0.276
			c0.016,0.136,0.04,0.338,0.072,0.606c0.032,0.268,0.056,0.47,0.072,0.606c-1.296,0.24-2.756,0.36-4.38,0.36
			c-0.168,0-0.422-0.004-0.762-0.012c-0.34-0.008-0.594-0.012-0.762-0.012v-7.188h4.92v1.236h-3.348v1.596h3.192v1.272h-3.192
			V264.378z M154.119,257.526v3.96h1.416v1.308h-1.416v5.424h-1.572v-10.692H154.119z"/>
		<path fill="#004030" d="M156.398,262.075c0-1.144,0.25-2.074,0.75-2.79s1.182-1.074,2.046-1.074c0.872,0,1.56,0.358,2.064,1.074
			c0.504,0.716,0.756,1.646,0.756,2.79c0,1.128-0.252,2.048-0.756,2.76c-0.504,0.712-1.192,1.068-2.064,1.068
			c-0.856,0-1.536-0.355-2.04-1.068C156.65,264.122,156.398,263.202,156.398,262.075z M160.526,262.075
			c0-0.792-0.122-1.4-0.366-1.824c-0.244-0.424-0.566-0.636-0.966-0.636c-0.376,0-0.684,0.214-0.924,0.642
			c-0.24,0.428-0.36,1.034-0.36,1.818c0,0.776,0.12,1.378,0.36,1.806c0.24,0.428,0.548,0.642,0.924,0.642
			c0.4,0,0.722-0.212,0.966-0.636C160.404,263.462,160.526,262.858,160.526,262.075z M164.991,268.219h-1.584v-10.692h1.584V268.219
			z"/>
		<path fill="#004030" d="M168.458,264.414c0.272,0.016,0.492,0.024,0.66,0.024c1.192,0,2.244-0.096,3.156-0.288
			c0.008,0.12,0.02,0.248,0.036,0.384c0.016,0.136,0.036,0.288,0.06,0.456c0.024,0.168,0.04,0.296,0.048,0.384
			c-1.216,0.24-2.6,0.36-4.152,0.36c-0.504,0-0.964-0.016-1.38-0.048v-7.26h4.896v1.236h-3.324v1.632h2.952v1.26h-2.952V264.414z
			 M175.358,268.219h-1.596v-5.592h-1.704v-1.356h1.704v-3.744h1.596V268.219z"/>
	</g>
</g>
<g>
</g>
<g>
</g>
<g>
</g>
<g>
</g>
<g>
</g>
<g>
</g>
<g>
</g>
</svg>
