<?xml version="1.0" encoding="utf-8"?>
<!-- Generator: Adobe Illustrator 28.0.0, SVG Export Plug-In . SVG Version: 6.00 Build 0)  -->
<svg version="1.1" id="레이어_1" xmlns="http://www.w3.org/2000/svg" xmlns:xlink="http://www.w3.org/1999/xlink" x="0px"
	 y="0px" viewBox="0 0 397.618 214.968" enable-background="new 0 0 397.618 214.968" xml:space="preserve">
<g>
	<g>
		<g>
			<path fill="#E07B5B" d="M291.317,32.516H95.446c-6.6,0-12-5.4-12-12V12c0-6.6,5.4-12,12-12h195.871c6.6,0,12,5.4,12,12v8.516
				C303.317,27.116,297.917,32.516,291.317,32.516z"/>
			<path fill="#F3DC7E" d="M291.317,214.968H95.446c-6.6,0-12-5.4-12-12v-8.516c0-6.6,5.4-12,12-12h195.871c6.6,0,12,5.4,12,12
				v8.516C303.317,209.568,297.917,214.968,291.317,214.968z"/>
			<g>
				<path d="M232.546,75.353c0,0.687-0.229,1.252-0.688,1.696s-1.057,0.667-1.794,0.667s-1.335-0.221-1.794-0.661
					c-0.459-0.441-0.688-1.009-0.688-1.702c0-0.687,0.229-1.254,0.688-1.702s1.057-0.672,1.794-0.672s1.335,0.222,1.794,0.666
					S232.546,74.659,232.546,75.353z M231.43,75.353c0-0.434-0.123-0.782-0.369-1.047c-0.245-0.264-0.578-0.396-0.997-0.396
					c-0.405,0-0.735,0.136-0.992,0.407c-0.257,0.271-0.385,0.616-0.385,1.035c0,0.404,0.128,0.742,0.385,1.014
					c0.257,0.271,0.587,0.406,0.992,0.406c0.412,0,0.742-0.136,0.992-0.406C231.305,76.096,231.43,75.758,231.43,75.353z
					 M235.17,81.619h-6.473v-3.067h1.117v2.168h5.355V81.619z M234.888,72.253v2.754h1.431v0.932h-1.431v3.317h-1.105v-7.003
					H234.888z"/>
				<path d="M245.491,79.744v0.878h-8.728v-0.878H245.491z M244.471,77.554h-6.592V73.12h6.494v0.878h-5.377v2.667h5.475V77.554z"/>
				<path d="M254.023,78.182h-2.981v1.615h3.827v0.89h-8.728v-0.89h3.794v-1.615h-2.678V75.06h5.378v-1.247h-5.41v-0.889h6.516
					v3.035h-5.366v1.323h5.648V78.182z"/>
				<path d="M259.638,73.152c-0.008,2.327-1.157,4.008-3.448,5.041l-0.65-0.835c0.816-0.296,1.491-0.74,2.022-1.333
					s0.833-1.25,0.905-1.973h-2.505v-0.9H259.638z M263.909,81.652h-6.656v-3.079h1.106v2.189h5.55V81.652z M261.828,79.137h-1.052
					V76.08h-1.258v-0.911h1.258v-2.743h1.052V79.137z M263.66,79.419h-1.062v-7.166h1.062V79.419z"/>
				<path d="M272.734,76.752h-4.511v-3.925h4.511V76.752z M276.213,81.207l-0.521,0.856c-0.679-0.094-1.32-0.309-1.924-0.645
					s-1.003-0.685-1.198-1.046c-0.195,0.383-0.598,0.738-1.209,1.067c-0.61,0.329-1.259,0.529-1.945,0.602l-0.531-0.835
					c0.708-0.036,1.356-0.207,1.945-0.515c0.589-0.307,0.96-0.678,1.111-1.111h-2.71v-0.867h6.656v0.867h-2.667
					c0.152,0.42,0.514,0.781,1.084,1.084C274.876,80.969,275.512,81.149,276.213,81.207z M271.617,75.874v-2.169h-2.276v2.169
					H271.617z M274.067,78.237h-2.992v-0.89h2.992V78.237z M275.693,77.445h-1.105v-5.192h1.105V77.445z"/>
				<path d="M233.088,89.641l-0.64,0.867c-0.426-0.181-0.849-0.459-1.269-0.835c-0.419-0.376-0.729-0.784-0.932-1.225
					c-0.145,0.483-0.434,0.939-0.867,1.365c-0.434,0.427-0.904,0.737-1.409,0.933l-0.673-0.856c0.716-0.282,1.29-0.705,1.724-1.269
					s0.65-1.21,0.65-1.94v-0.965h1.139v0.922c0,0.708,0.228,1.333,0.683,1.875C231.951,89.055,232.482,89.431,233.088,89.641z
					 M235.43,93.013c0,0.578-0.291,1.041-0.872,1.388c-0.582,0.347-1.39,0.521-2.424,0.521c-1.026,0-1.828-0.174-2.406-0.521
					s-0.867-0.81-0.867-1.388c0-0.585,0.289-1.053,0.867-1.403s1.38-0.526,2.406-0.526c1.034,0,1.842,0.176,2.424,0.526
					C235.139,91.96,235.43,92.428,235.43,93.013z M234.281,93.013c0-0.325-0.188-0.578-0.563-0.759s-0.903-0.271-1.583-0.271
					c-0.665,0-1.185,0.092-1.561,0.276c-0.376,0.184-0.563,0.436-0.563,0.753c0,0.318,0.188,0.567,0.563,0.748
					s0.896,0.271,1.561,0.271c0.68,0,1.207-0.091,1.583-0.271S234.281,93.331,234.281,93.013z M235.343,90.942h-1.105V88.21h-1.767
					V87.3h1.767v-2.038h1.105V90.942z"/>
				<path d="M236.882,86.801V85.88h5.085v0.921h-1.93v0.032c0,0.673,0.215,1.268,0.645,1.784s0.945,0.872,1.545,1.067l-0.607,0.878
					c-0.426-0.173-0.842-0.438-1.246-0.797c-0.405-0.357-0.709-0.753-0.911-1.187c-0.137,0.462-0.428,0.907-0.872,1.333
					c-0.445,0.427-0.916,0.733-1.415,0.922l-0.65-0.867c0.701-0.261,1.271-0.667,1.713-1.22c0.44-0.553,0.661-1.177,0.661-1.87
					v-0.076H236.882z M244.395,93.013c0,0.578-0.291,1.041-0.872,1.388c-0.582,0.347-1.387,0.521-2.412,0.521
					c-1.02,0-1.818-0.174-2.396-0.521s-0.867-0.81-0.867-1.388c0-0.593,0.289-1.061,0.867-1.403
					c0.578-0.344,1.377-0.516,2.396-0.516c1.025,0,1.83,0.172,2.412,0.516C244.104,91.952,244.395,92.42,244.395,93.013z
					 M243.257,93.013c0-0.325-0.188-0.576-0.564-0.753c-0.375-0.178-0.903-0.266-1.582-0.266c-0.673,0-1.194,0.088-1.566,0.266
					c-0.373,0.177-0.559,0.428-0.559,0.753c0,0.318,0.186,0.565,0.559,0.743c0.372,0.177,0.894,0.266,1.566,0.266
					c0.672,0,1.197-0.089,1.577-0.266C243.067,93.578,243.257,93.331,243.257,93.013z M245.696,88.568h-1.431v2.406h-1.116v-5.713
					h1.116v2.385h1.431V88.568z"/>
				<path d="M254.869,93.771h-8.728v-0.899h3.794v-1.084c-0.759-0.065-1.356-0.248-1.794-0.548s-0.655-0.685-0.655-1.154
					c0-0.527,0.274-0.949,0.823-1.263c0.55-0.314,1.283-0.472,2.201-0.472s1.651,0.157,2.2,0.472
					c0.55,0.313,0.824,0.735,0.824,1.263c0,0.477-0.224,0.865-0.672,1.165s-1.056,0.479-1.821,0.537v1.084h3.827V93.771z
					 M254.326,87.95h-7.643v-0.899h7.643V87.95z M251.86,90.741c0.365-0.155,0.548-0.374,0.548-0.655
					c0-0.282-0.182-0.499-0.543-0.65c-0.361-0.152-0.812-0.228-1.354-0.228s-0.994,0.075-1.355,0.228
					c-0.361,0.151-0.542,0.368-0.542,0.65c0,0.281,0.183,0.5,0.548,0.655c0.364,0.156,0.814,0.233,1.35,0.233
					C251.044,90.974,251.495,90.897,251.86,90.741z M248.787,86.443v-0.889h3.426v0.889H248.787z"/>
				<path d="M264.246,93.674h-8.728v-0.889h8.728V93.674z M263.4,91.267h-6.766v-3.101h5.378v-1.279h-5.378v-0.889h6.483v3.046
					h-5.366v1.334h5.648V91.267z"/>
				<path d="M272.463,89.164h-2.667v1.106h3.827v0.899h-8.728V90.27h3.794v-1.106h-2.634v-3.545h6.407V89.164z M272.604,94.649
					h-6.592v-2.753h1.117v1.864h5.475V94.649z M271.346,88.264v-1.757h-4.174v1.757H271.346z"/>
				<path d="M280.702,91.56l0.087,0.889c-1.938,0.21-4.076,0.321-6.418,0.336l-0.174-0.954c1.279,0.015,2.349-0.003,3.209-0.054
					C278.707,91.726,279.805,91.654,280.702,91.56z M279.845,88.329c0,0.658-0.24,1.189-0.721,1.594
					c-0.48,0.405-1.083,0.607-1.806,0.607c-0.715,0-1.306-0.204-1.772-0.612c-0.466-0.408-0.699-0.938-0.699-1.589
					c0-0.664,0.237-1.216,0.711-1.652c0.473-0.438,1.061-0.656,1.761-0.656c0.723,0,1.325,0.217,1.806,0.65
					S279.845,87.657,279.845,88.329z M278.729,88.318c0-0.404-0.134-0.729-0.401-0.976c-0.268-0.245-0.604-0.368-1.009-0.368
					c-0.383,0-0.71,0.126-0.98,0.379c-0.271,0.253-0.406,0.575-0.406,0.965c0,0.376,0.135,0.682,0.406,0.916
					c0.271,0.235,0.598,0.353,0.98,0.353c0.391,0,0.723-0.117,0.998-0.353C278.591,89,278.729,88.694,278.729,88.318z
					 M282.349,85.262v9.659h-1.105v-9.659H282.349z"/>
				<path d="M291.315,85.88c-0.029,1.265-0.432,2.307-1.209,3.127c-0.776,0.82-1.823,1.397-3.139,1.729l-0.563-0.878
					c0.911-0.174,1.72-0.529,2.429-1.068c0.708-0.538,1.127-1.201,1.258-1.989h-3.209V85.88H291.315z M294.003,94.802h-6.18v-3.643
					h6.18V94.802z M292.887,93.924v-1.887h-3.946v1.887H292.887z M295.423,88.481h-1.42v2.2h-1.116v-5.42h1.116v2.287h1.42V88.481z"
					/>
				<path d="M304.607,93.707h-8.728v-0.9h3.794v-2.374h1.106v2.374h3.827V93.707z M304.325,89.641l-0.574,0.856
					c-0.745-0.188-1.455-0.533-2.131-1.035c-0.676-0.503-1.137-1.043-1.382-1.621c-0.217,0.585-0.667,1.129-1.35,1.632
					c-0.684,0.502-1.404,0.844-2.163,1.024l-0.542-0.9c0.86-0.137,1.656-0.511,2.391-1.122c0.733-0.61,1.1-1.306,1.1-2.087v-0.574
					h1.16v0.574c0,0.514,0.193,1.013,0.58,1.496c0.387,0.484,0.842,0.875,1.366,1.171C303.303,89.352,303.819,89.548,304.325,89.641
					z"/>
			</g>
			<g>
				<path d="M318.491,79.755h-8.728v-0.889h8.728V79.755z M318.262,75.874l-0.585,0.867c-0.744-0.195-1.464-0.544-2.157-1.046
					c-0.694-0.503-1.16-1.036-1.398-1.6c-0.217,0.578-0.674,1.117-1.372,1.615c-0.697,0.499-1.429,0.843-2.195,1.03l-0.542-0.911
					c0.542-0.086,1.081-0.274,1.615-0.563c0.535-0.289,0.99-0.674,1.366-1.154s0.563-0.984,0.563-1.513v-0.64h1.16v0.64
					c0,0.521,0.197,1.024,0.591,1.513c0.395,0.487,0.858,0.88,1.394,1.176C317.236,75.585,317.756,75.78,318.262,75.874z"/>
				<path d="M327.868,78.92v0.89h-8.728v-0.89H327.868z M326.415,75.05h-5.041v1.236h5.464v0.878h-6.581v-5.052h6.483v0.889h-5.366
					v1.171h5.041V75.05z"/>
				<path d="M332.887,77.565l0.141,0.878c-0.723,0.173-1.836,0.268-3.339,0.281h-0.813v-3.739h2.288v-1.67h-2.32v-0.878h3.437v3.426
					h-2.298v1.951C331.081,77.814,332.048,77.731,332.887,77.565z M334.751,80.568h-1.04v-4.716h-1.052v-0.911h1.052v-3.36h1.04
					V80.568z M336.66,81.034h-1.073v-9.659h1.073V81.034z"/>
				<path d="M346.623,79.755h-8.728v-0.889h8.728V79.755z M346.394,75.874l-0.585,0.867c-0.744-0.195-1.464-0.544-2.157-1.046
					c-0.694-0.503-1.16-1.036-1.398-1.6c-0.217,0.578-0.674,1.117-1.372,1.615c-0.697,0.499-1.429,0.843-2.195,1.03l-0.542-0.911
					c0.542-0.086,1.081-0.274,1.615-0.563c0.535-0.289,0.99-0.674,1.366-1.154s0.563-0.984,0.563-1.513v-0.64h1.16v0.64
					c0,0.521,0.197,1.024,0.591,1.513c0.395,0.487,0.858,0.88,1.394,1.176C345.368,75.585,345.888,75.78,346.394,75.874z"/>
				<path d="M353.54,80.579h-1.052v-4.543h-0.965c-0.051,0.86-0.25,1.56-0.597,2.098c-0.347,0.539-0.835,0.808-1.464,0.808
					c-0.462,0-0.854-0.158-1.176-0.477s-0.553-0.725-0.693-1.22c-0.142-0.495-0.212-1.061-0.212-1.696
					c0-0.976,0.175-1.781,0.525-2.418c0.351-0.636,0.869-0.954,1.556-0.954c0.629,0,1.119,0.273,1.47,0.818
					c0.351,0.546,0.547,1.253,0.591,2.12h0.965v-3.556h1.052V80.579z M350.233,77.31c0.173-0.438,0.26-1.021,0.26-1.751
					c0-0.73-0.087-1.317-0.26-1.762c-0.174-0.444-0.427-0.667-0.759-0.667c-0.333,0-0.586,0.223-0.759,0.667
					c-0.174,0.444-0.261,1.031-0.261,1.762c0,0.723,0.087,1.305,0.261,1.745c0.173,0.441,0.426,0.661,0.759,0.661
					C349.806,77.966,350.059,77.748,350.233,77.31z M355.415,81.034h-1.062v-9.659h1.062V81.034z"/>
				<path d="M365.93,77.674l0.087,0.889c-1.938,0.21-4.076,0.321-6.418,0.336l-0.174-0.954c1.279,0.015,2.349-0.003,3.209-0.054
					C363.935,77.84,365.034,77.767,365.93,77.674z M365.074,74.442c0,0.658-0.24,1.189-0.721,1.594
					c-0.48,0.405-1.083,0.607-1.806,0.607c-0.715,0-1.306-0.204-1.772-0.612c-0.466-0.408-0.699-0.938-0.699-1.589
					c0-0.664,0.237-1.216,0.711-1.652c0.473-0.438,1.061-0.656,1.761-0.656c0.723,0,1.325,0.217,1.806,0.65
					S365.074,73.77,365.074,74.442z M363.958,74.431c0-0.404-0.134-0.729-0.401-0.976c-0.268-0.245-0.604-0.368-1.009-0.368
					c-0.383,0-0.71,0.126-0.98,0.379c-0.271,0.253-0.406,0.575-0.406,0.965c0,0.376,0.135,0.682,0.406,0.916
					c0.271,0.235,0.598,0.353,0.98,0.353c0.391,0,0.723-0.117,0.998-0.353C363.82,75.113,363.958,74.807,363.958,74.431z
					 M367.578,71.375v9.659h-1.105v-9.659H367.578z"/>
				<path d="M374.397,73.955h-5.595v-0.878h5.595V73.955z M373.887,76.004c0,0.499-0.214,0.903-0.64,1.214
					c-0.427,0.312-0.969,0.467-1.626,0.467c-0.658,0-1.204-0.155-1.638-0.467c-0.434-0.311-0.65-0.715-0.65-1.214
					c0-0.491,0.215-0.895,0.646-1.209c0.43-0.314,0.978-0.472,1.643-0.472c0.65,0,1.19,0.157,1.62,0.472
					C373.672,75.109,373.887,75.513,373.887,76.004z M370.201,72.48v-0.889h2.83v0.889H370.201z M376.663,80.774h-6.462v-2.592
					h1.117v1.702h5.345V80.774z M372.825,76.004c0-0.245-0.117-0.446-0.353-0.602c-0.234-0.155-0.519-0.233-0.851-0.233
					c-0.348,0-0.639,0.076-0.873,0.228c-0.235,0.152-0.353,0.354-0.353,0.607s0.116,0.454,0.347,0.602
					c0.231,0.148,0.524,0.223,0.879,0.223c0.339,0,0.625-0.074,0.856-0.223C372.708,76.458,372.825,76.257,372.825,76.004z
					 M376.38,71.375v3.024h1.431v0.922h-1.431v3.198h-1.116v-7.145H376.38z"/>
				<path d="M318.491,92.763h-8.728v-0.889h3.23v-2.233h1.117v2.233h4.38V92.763z M317.45,85.425c0,2.24-0.145,4.032-0.434,5.377
					l-1.073-0.108c0.145-0.636,0.245-1.352,0.304-2.146l-5.616,0.304l-0.141-0.879l5.811-0.281l0.021-1.388h-5.528v-0.878H317.45z"
					/>
				<path d="M327.868,92.796h-8.728v-0.889h8.728V92.796z M327.022,90.389h-6.766v-3.101h5.378V86.01h-5.378v-0.889h6.483v3.046
					h-5.366v1.334h5.648V90.389z"/>
				<path d="M334.264,90.596l0.151,0.878c-0.99,0.202-2.429,0.311-4.314,0.325l-1.02,0.011v-6.559h4.424v0.878h-3.328v1.876h3.122
					v0.878h-3.122v2.006C331.976,90.888,333.338,90.791,334.264,90.596z M336.421,84.384v9.659h-1.117v-9.659H336.421z"/>
				<path d="M346.623,89.381h-8.728v-0.878h3.794v-1.148h1.106v1.148h3.827V89.381z M346.232,87.094l-0.488,0.867
					c-0.723-0.123-1.424-0.383-2.103-0.78c-0.68-0.397-1.139-0.839-1.377-1.322c-0.225,0.498-0.665,0.939-1.323,1.322
					c-0.657,0.383-1.373,0.636-2.146,0.759l-0.477-0.856c0.882-0.087,1.666-0.357,2.353-0.813c0.687-0.455,1.03-1.008,1.03-1.658
					v-0.217h1.148v0.217c0,0.434,0.19,0.842,0.569,1.225c0.38,0.384,0.824,0.68,1.334,0.89
					C345.261,86.934,345.754,87.057,346.232,87.094z M345.831,93.977h-6.819v-2.353h5.345v-0.661h-5.377v-0.878h6.483v2.331h-5.334
					v0.683h5.702V93.977z"/>
				<path d="M346.98,93.858l2.58-9.193h0.954l-2.58,9.193H346.98z"/>
				<path d="M351.826,90.974c-0.44-0.614-0.661-1.435-0.661-2.461c0-1.025,0.221-1.846,0.661-2.461
					c0.441-0.614,1.045-0.921,1.811-0.921c0.767,0,1.366,0.307,1.8,0.921c0.434,0.615,0.65,1.438,0.65,2.472
					c0,1.026-0.217,1.846-0.65,2.456s-1.033,0.916-1.8,0.916C352.871,91.896,352.267,91.589,351.826,90.974z M354.65,90.33
					c0.257-0.444,0.385-1.05,0.385-1.816c0-0.766-0.128-1.369-0.385-1.811c-0.257-0.44-0.595-0.661-1.014-0.661
					c-0.412,0-0.744,0.221-0.997,0.661c-0.253,0.441-0.38,1.045-0.38,1.811c0,0.767,0.127,1.372,0.38,1.816s0.585,0.667,0.997,0.667
					C354.055,90.997,354.393,90.774,354.65,90.33z M358.558,84.384v3.772h1.496v0.922h-1.496v4.965h-1.116v-9.659H358.558z"/>
				<path d="M369.162,91.875v0.878h-8.728v-0.878H369.162z M368.142,89.684h-6.592v-4.434h6.494v0.878h-5.377v2.667h5.475V89.684z"
					/>
				<path d="M374.18,90.574l0.141,0.878c-0.723,0.173-1.836,0.268-3.339,0.281h-0.813v-3.739h2.288v-1.67h-2.32v-0.878h3.437v3.426
					h-2.298v1.951C372.374,90.823,373.341,90.74,374.18,90.574z M376.044,93.577h-1.04v-4.716h-1.052V87.95h1.052v-3.36h1.04V93.577
					z M377.953,94.043h-1.073v-9.659h1.073V94.043z"/>
				<path d="M384.598,87.506l0.173,0.933c-0.99,0.238-2.385,0.372-4.185,0.4h-1.03v-3.957h1.096v3.015
					C382.148,87.896,383.463,87.765,384.598,87.506z M387.004,93.967h-6.526v-2.58h5.096v-0.812h-5.161v-0.89h6.267v2.548h-5.096
					v0.856h5.421V93.967z M388.099,87.202h-1.42v1.974h-1.105v-4.792h1.105v1.897h1.42V87.202z"/>
				<path d="M394.236,88.991l0.141,0.867c-0.896,0.202-2.266,0.311-4.108,0.325h-1.214v-3.068h3.209v-1.171H389v-0.899h4.38v2.927
					h-3.209v1.312c0.672,0,1.415-0.027,2.228-0.082C393.211,89.148,393.824,89.078,394.236,88.991z M396.773,93.826h-6.656v-2.852
					h1.105v1.952h5.551V93.826z M396.512,91.387h-1.105v-7.003h1.105V91.387z"/>
				<path d="M317.45,102.424h-2.786v2.504h3.827v0.889h-8.728v-0.889h3.794v-2.504h-2.71v-4.271h1.105v3.371h5.497V102.424z"/>
				<path d="M327.868,105.805h-8.728v-0.889h8.728V105.805z M327.022,103.399h-6.766v-3.101h5.378v-1.279h-5.378v-0.889h6.483v3.046
					h-5.366v1.334h5.648V103.399z"/>
				<path d="M329.288,103.984c-0.44-0.614-0.661-1.435-0.661-2.461c0-1.025,0.221-1.846,0.661-2.461
					c0.441-0.614,1.045-0.921,1.811-0.921c0.767,0,1.366,0.307,1.8,0.921c0.434,0.615,0.65,1.438,0.65,2.472
					c0,1.026-0.217,1.846-0.65,2.456s-1.033,0.916-1.8,0.916C330.333,104.906,329.729,104.598,329.288,103.984z M332.112,103.34
					c0.257-0.444,0.385-1.05,0.385-1.816c0-0.766-0.128-1.369-0.385-1.811c-0.257-0.44-0.595-0.661-1.014-0.661
					c-0.412,0-0.744,0.221-0.997,0.661c-0.253,0.441-0.38,1.045-0.38,1.811c0,0.767,0.127,1.372,0.38,1.816s0.585,0.667,0.997,0.667
					C331.517,104.007,331.855,103.784,332.112,103.34z M336.02,97.393v3.772h1.496v0.922h-1.496v4.965h-1.116v-9.659H336.02z"/>
				<path d="M346.623,104.885v0.878h-8.728v-0.878H346.623z M345.603,102.694h-6.592v-4.434h6.494v0.878h-5.377v2.667h5.475V102.694
					z"/>
				<path d="M351.642,103.584l0.141,0.878c-0.723,0.173-1.836,0.268-3.339,0.281h-0.813v-3.739h2.288v-1.67h-2.32v-0.878h3.437
					v3.426h-2.298v1.951C349.835,103.833,350.803,103.75,351.642,103.584z M353.506,106.587h-1.04v-4.716h-1.052v-0.911h1.052v-3.36
					h1.04V106.587z M355.415,107.053h-1.073v-9.659h1.073V107.053z"/>
				<path d="M362.06,100.515l0.173,0.933c-0.99,0.238-2.385,0.372-4.185,0.4h-1.03v-3.957h1.096v3.015
					C359.61,100.906,360.925,100.775,362.06,100.515z M364.466,106.976h-6.526v-2.58h5.096v-0.812h-5.161v-0.89h6.267v2.548h-5.096
					v0.856h5.421V106.976z M365.561,100.212h-1.42v1.974h-1.105v-4.792h1.105v1.897h1.42V100.212z"/>
				<path d="M371.698,102.001l0.141,0.867c-0.896,0.202-2.266,0.311-4.108,0.325h-1.214v-3.068h3.209v-1.171h-3.264v-0.899h4.38
					v2.927h-3.209v1.312c0.672,0,1.415-0.027,2.228-0.082C370.673,102.158,371.286,102.088,371.698,102.001z M374.235,106.836
					h-6.656v-2.852h1.105v1.952h5.551V106.836z M373.974,104.396h-1.105v-7.003h1.105V104.396z"/>
				<path d="M386.984,102.001v0.889h-8.728v-0.889H386.984z M386.549,100.505l-0.487,0.878c-0.723-0.087-1.411-0.311-2.065-0.672
					s-1.111-0.773-1.371-1.236c-0.225,0.478-0.652,0.895-1.285,1.252c-0.632,0.358-1.346,0.58-2.141,0.667l-0.488-0.878
					c0.788-0.043,1.494-0.231,2.12-0.563c0.625-0.333,1.014-0.759,1.165-1.279h-2.862v-0.9h6.993v0.9h-2.841
					c0.166,0.506,0.574,0.927,1.225,1.263C385.163,100.271,385.841,100.461,386.549,100.505z M385.086,103.969
					c0.593,0.321,0.889,0.75,0.889,1.284c0,0.535-0.296,0.963-0.889,1.285c-0.593,0.321-1.413,0.482-2.461,0.482
					c-1.056,0-1.878-0.159-2.467-0.478s-0.883-0.748-0.883-1.29c0-0.534,0.294-0.963,0.883-1.284
					c0.589-0.322,1.408-0.482,2.456-0.482C383.669,103.486,384.494,103.646,385.086,103.969z M384.826,105.253
					c0-0.268-0.196-0.479-0.591-0.634c-0.394-0.155-0.934-0.233-1.62-0.233c-0.68,0-1.217,0.078-1.61,0.233
					s-0.591,0.366-0.591,0.634c0,0.282,0.195,0.497,0.586,0.646c0.39,0.147,0.929,0.222,1.615,0.222
					c0.693,0,1.235-0.074,1.626-0.222C384.631,105.75,384.826,105.535,384.826,105.253z"/>
				<path d="M392.598,98.412c-0.079,3.014-1.521,5.291-4.325,6.83l-0.693-0.846c1.091-0.498,1.979-1.21,2.661-2.136
					c0.683-0.925,1.071-1.904,1.165-2.938h-3.263v-0.911H392.598z M396.566,102.088h-1.431v4.965h-1.116v-9.659h1.116v3.772h1.431
					V102.088z"/>
			</g>
			<g>
				<path d="M154.038,80.193l-0.661,0.835c-0.441-0.289-0.893-0.706-1.355-1.252s-0.777-1.071-0.943-1.577
					c-0.167,0.57-0.468,1.134-0.905,1.69c-0.438,0.557-0.923,0.994-1.458,1.312l-0.683-0.813c0.766-0.499,1.368-1.131,1.805-1.897
					c0.437-0.766,0.656-1.604,0.656-2.515v-1.409h1.138v1.344c0,0.903,0.219,1.728,0.656,2.472
					C152.724,79.128,153.308,79.731,154.038,80.193z M155.761,73.732v3.772h1.453v0.933h-1.453v4.954h-1.117v-9.659H155.761z"/>
				<path d="M158.58,80.323c-0.441-0.614-0.662-1.435-0.662-2.461c0-1.025,0.221-1.846,0.662-2.461
					c0.44-0.614,1.044-0.921,1.811-0.921c0.766,0,1.366,0.307,1.799,0.921c0.434,0.615,0.65,1.438,0.65,2.472
					c0,1.026-0.217,1.846-0.65,2.456s-1.034,0.916-1.799,0.916C159.624,81.245,159.021,80.937,158.58,80.323z M161.404,79.679
					c0.257-0.444,0.385-1.05,0.385-1.816c0-0.766-0.128-1.369-0.385-1.811c-0.256-0.44-0.594-0.661-1.013-0.661
					c-0.412,0-0.745,0.221-0.998,0.661c-0.253,0.441-0.379,1.045-0.379,1.811c0,0.767,0.126,1.372,0.379,1.816
					s0.585,0.667,0.998,0.667C160.81,80.346,161.147,80.123,161.404,79.679z M165.583,83.391h-1.105v-9.659h1.105V83.391z"/>
				<path d="M174.711,79.477h-2.797v1.8h3.827v0.89h-8.727v-0.89h3.794v-1.8h-2.678v-5.03h6.483v0.9h-5.366v1.171h5.041v0.878
					h-5.041v1.192h5.464V79.477z"/>
				<path d="M181.281,74.74c-0.007,3.151-1.435,5.475-4.282,6.971l-0.715-0.802c1.503-0.687,2.58-1.688,3.23-3.003l-2.829,0.304
					l-0.174-0.965l3.372-0.25c0.13-0.47,0.209-0.921,0.239-1.354h-3.123v-0.9H181.281z M183.894,73.732v3.772h1.496v0.922h-1.496
					v4.965h-1.117v-9.659H183.894z"/>
				<path d="M190.317,75.109c0.459,0.44,0.688,1.008,0.688,1.702c0,0.693-0.229,1.261-0.688,1.701
					c-0.459,0.441-1.054,0.662-1.783,0.662c-0.737,0-1.337-0.221-1.8-0.662c-0.462-0.44-0.694-1.004-0.694-1.69
					c0-0.694,0.231-1.264,0.694-1.708s1.062-0.667,1.8-0.667C189.263,74.447,189.858,74.668,190.317,75.109z M189.899,76.811
					c0-0.427-0.123-0.773-0.368-1.041c-0.246-0.268-0.578-0.401-0.997-0.401c-0.405,0-0.736,0.136-0.992,0.406
					c-0.256,0.271-0.385,0.616-0.385,1.036c0,0.404,0.128,0.742,0.385,1.014c0.256,0.271,0.587,0.406,0.992,0.406
					c0.411,0,0.742-0.136,0.991-0.406C189.775,77.554,189.899,77.216,189.899,76.811z M193.943,83.109h-6.613v-3.035h1.106v2.146
					h5.507V83.109z M193.715,80.735h-1.105v-7.003h1.105V80.735z"/>
				<path d="M201.575,80.031l0.087,0.889c-1.937,0.21-4.076,0.321-6.418,0.336l-0.173-0.954c1.279,0.015,2.349-0.003,3.209-0.054
					C199.581,80.197,200.679,80.125,201.575,80.031z M200.718,76.8c0,0.658-0.24,1.189-0.721,1.594
					c-0.48,0.405-1.082,0.607-1.805,0.607c-0.716,0-1.307-0.204-1.772-0.612c-0.467-0.408-0.699-0.938-0.699-1.589
					c0-0.664,0.236-1.216,0.71-1.652c0.473-0.438,1.061-0.656,1.762-0.656c0.723,0,1.324,0.217,1.805,0.65
					S200.718,76.128,200.718,76.8z M199.602,76.789c0-0.404-0.134-0.729-0.401-0.976c-0.268-0.245-0.604-0.368-1.008-0.368
					c-0.384,0-0.71,0.126-0.981,0.379c-0.271,0.253-0.406,0.575-0.406,0.965c0,0.376,0.136,0.682,0.406,0.916
					c0.271,0.235,0.598,0.353,0.981,0.353c0.39,0,0.723-0.117,0.997-0.353C199.464,77.471,199.602,77.165,199.602,76.789z
					 M203.223,73.732v9.659h-1.106v-9.659H203.223z"/>
				<path d="M153.094,92.042h-4.412v-4.466h4.412V92.042z M151.978,91.185v-2.742h-2.19v2.742H151.978z M156.412,96.118h-6.504
					v-2.98h1.117v2.092h5.388V96.118z M153.593,89.18v-0.9h1.507v-1.539h1.105v7.003H155.1v-2.428h-1.507v-0.911h1.507V89.18
					H153.593z"/>
				<path d="M161.952,87.901c0.477,0.44,0.715,0.997,0.715,1.669s-0.235,1.22-0.705,1.643s-1.059,0.634-1.767,0.634
					c-0.687,0-1.269-0.211-1.746-0.634s-0.715-0.971-0.715-1.643c0-0.665,0.238-1.22,0.715-1.664s1.059-0.667,1.746-0.667
					C160.889,87.239,161.475,87.46,161.952,87.901z M161.583,89.559c0-0.397-0.125-0.731-0.374-1.003
					c-0.25-0.271-0.587-0.406-1.014-0.406c-0.397,0-0.725,0.14-0.981,0.417c-0.257,0.278-0.385,0.609-0.385,0.992
					c0,0.412,0.128,0.752,0.385,1.02c0.256,0.268,0.583,0.4,0.981,0.4c0.412,0,0.746-0.135,1.003-0.406
					C161.455,90.303,161.583,89.965,161.583,89.559z M158.949,92.811h6.646v3.6h-1.117v-2.699h-5.529V92.811z M162.949,91.142
					l0.043-0.911h1.485v-1.344h-1.485l-0.043-0.911h1.529v-1.235h1.117v5.562h-1.117v-1.16H162.949z"/>
				<path d="M171.903,93.234l-0.64,0.771c-0.368-0.231-0.731-0.58-1.089-1.047c-0.358-0.466-0.605-0.938-0.743-1.414
					c-0.116,0.527-0.351,1.037-0.705,1.528s-0.766,0.886-1.236,1.182l-0.672-0.759c0.614-0.405,1.113-0.981,1.496-1.729
					c0.383-0.748,0.575-1.599,0.575-2.553v-1.518h1.073v1.507c0,0.896,0.179,1.704,0.537,2.423S171.325,92.881,171.903,93.234z
					 M173.248,95.945h-1.041v-4.911h-1.388v-0.922h1.388v-3.176h1.041V95.945z M175.156,96.4h-1.062v-9.659h1.062V96.4z"/>
				<path d="M184.262,92.194h-2.97v2.092h3.827v0.89h-8.727v-0.89h3.794v-2.092h-2.981v-0.9h1.496l-0.249-2.298l1.105-0.108
					l0.195,2.406h2.005l0.358-2.385l1.095,0.163l-0.401,2.222h1.453V92.194z M184.273,88.41h-7.079v-0.889h7.079V88.41z"/>
				<path d="M194.517,91.608l0.098,0.803c-1.561,0.209-3.588,0.329-6.082,0.357l-0.162-0.889c1.12,0,1.97-0.004,2.548-0.011v-0.456
					c-0.528-0.058-0.943-0.189-1.247-0.396s-0.455-0.472-0.455-0.797c0-0.375,0.202-0.676,0.607-0.899
					c0.404-0.224,0.946-0.336,1.626-0.336c0.679,0,1.225,0.112,1.637,0.336s0.618,0.524,0.618,0.899c0,0.318-0.15,0.58-0.45,0.786
					s-0.71,0.338-1.23,0.396v0.423C193.223,91.753,194.055,91.68,194.517,91.608z M194.181,88.768h-5.442v-0.813h5.442V88.768z
					 M196.544,96.411h-6.602v-2.027h5.149v-0.531h-5.183v-0.77h6.288v2.017h-5.139v0.542h5.485V96.411z M190.126,87.576v-0.792h2.7
					v0.792H190.126z M192.621,90.221c0-0.151-0.107-0.271-0.32-0.357s-0.497-0.13-0.851-0.13c-0.348,0-0.627,0.043-0.841,0.13
					c-0.213,0.087-0.319,0.206-0.319,0.357c0,0.145,0.106,0.261,0.319,0.348c0.214,0.086,0.493,0.13,0.841,0.13
					c0.354,0,0.638-0.044,0.851-0.13C192.513,90.481,192.621,90.365,192.621,90.221z M197.585,90.351h-1.388v2.211h-1.105v-5.821
					h1.105v2.688h1.388V90.351z"/>
				<path d="M203.7,91.121l-0.64,0.867c-0.427-0.181-0.85-0.459-1.269-0.835c-0.42-0.376-0.73-0.784-0.933-1.225
					c-0.145,0.483-0.434,0.939-0.867,1.365c-0.434,0.427-0.903,0.737-1.409,0.933l-0.673-0.856c0.716-0.282,1.291-0.705,1.725-1.269
					s0.65-1.21,0.65-1.94v-0.965h1.138v0.922c0,0.708,0.228,1.333,0.684,1.875C202.561,90.535,203.092,90.911,203.7,91.121z
					 M206.041,94.492c0,0.578-0.291,1.041-0.872,1.388c-0.582,0.347-1.39,0.521-2.423,0.521c-1.026,0-1.829-0.174-2.407-0.521
					s-0.867-0.81-0.867-1.388c0-0.585,0.289-1.053,0.867-1.403s1.381-0.526,2.407-0.526c1.033,0,1.841,0.176,2.423,0.526
					C205.75,93.439,206.041,93.907,206.041,94.492z M204.892,94.492c0-0.325-0.188-0.578-0.564-0.759
					c-0.375-0.181-0.903-0.271-1.582-0.271c-0.665,0-1.186,0.092-1.562,0.276c-0.376,0.184-0.563,0.436-0.563,0.753
					c0,0.318,0.188,0.567,0.563,0.748s0.896,0.271,1.562,0.271c0.679,0,1.207-0.091,1.582-0.271
					C204.704,95.059,204.892,94.81,204.892,94.492z M205.955,92.422h-1.106v-2.732h-1.767v-0.91h1.767v-2.038h1.106V92.422z"/>
				<path d="M213.283,93.701l0.087,0.856c-1.647,0.217-3.672,0.332-6.071,0.347l-0.151-0.922c1.134,0,2.002-0.011,2.602-0.032
					v-0.867c-0.563-0.072-1.018-0.255-1.36-0.548c-0.344-0.292-0.516-0.648-0.516-1.067c0-0.478,0.219-0.867,0.657-1.171
					c0.437-0.304,0.998-0.455,1.686-0.455c0.687,0,1.248,0.151,1.686,0.455c0.437,0.304,0.655,0.693,0.655,1.171
					c0,0.391-0.153,0.73-0.46,1.019c-0.308,0.29-0.718,0.481-1.23,0.575v0.846C211.92,93.835,212.726,93.765,213.283,93.701z
					 M212.979,89.495h-5.583v-0.868h5.583V89.495z M208.795,88.085v-0.867h2.818v0.867H208.795z M211.072,92.015
					c0.224-0.142,0.336-0.324,0.336-0.548s-0.112-0.408-0.336-0.553c-0.225-0.145-0.51-0.217-0.856-0.217
					c-0.34,0-0.624,0.072-0.852,0.217s-0.342,0.329-0.342,0.553s0.112,0.406,0.337,0.548c0.224,0.141,0.509,0.211,0.856,0.211
					C210.562,92.226,210.847,92.156,211.072,92.015z M214.953,86.741v4.108h1.377v0.922h-1.377V96.4h-1.106v-9.659H214.953z"/>
			</g>
			<g>
				<path d="M12.64,77.001l0.098,0.824c-1.619,0.217-3.646,0.34-6.082,0.368l-0.163-0.932c1.121,0,1.966-0.008,2.537-0.021v-0.618
					c-0.506-0.065-0.916-0.215-1.23-0.45c-0.314-0.234-0.472-0.522-0.472-0.861c0-0.42,0.211-0.758,0.634-1.014
					c0.423-0.257,0.959-0.386,1.61-0.386c0.658,0,1.2,0.127,1.626,0.38s0.64,0.589,0.64,1.008c0,0.348-0.155,0.639-0.466,0.873
					c-0.311,0.235-0.723,0.385-1.236,0.45v0.574C11.104,77.16,11.939,77.096,12.64,77.001z M12.304,73.673H6.862v-0.846h5.442
					V73.673z M14.559,80.871H8V78.53h1.105v1.441h5.453V80.871z M8.25,72.427v-0.867h2.7v0.867H8.25z M10.423,75.717
					c0.213-0.104,0.32-0.244,0.32-0.418c0-0.173-0.107-0.313-0.32-0.423c-0.213-0.108-0.497-0.162-0.851-0.162
					s-0.638,0.054-0.851,0.162c-0.213,0.109-0.32,0.25-0.32,0.423c0,0.174,0.106,0.313,0.32,0.418
					c0.213,0.104,0.497,0.157,0.851,0.157S10.21,75.821,10.423,75.717z M14.321,71.375v3.296h1.388v0.932h-1.388v3.166h-1.106
					v-7.394H14.321z"/>
				<path d="M21.996,77.955l-0.64,0.803c-0.47-0.261-0.947-0.661-1.431-1.203c-0.484-0.543-0.799-1.052-0.943-1.529
					c-0.13,0.528-0.417,1.073-0.862,1.638c-0.444,0.563-0.952,1.001-1.523,1.312l-0.694-0.824c0.781-0.434,1.393-1.03,1.837-1.789
					c0.445-0.759,0.667-1.615,0.667-2.569v-0.509h-2.017v-0.9h5.128v0.9h-1.962v0.509c0,0.94,0.221,1.766,0.662,2.478
					C20.659,76.981,21.251,77.543,21.996,77.955z M23.622,71.375v3.783h1.464v0.933h-1.464v4.943h-1.117v-9.659H23.622z"/>
				<path d="M25.433,73.944v-0.878h4.716v0.878H25.433z M29.899,75.798c0,0.412-0.188,0.761-0.563,1.046
					c-0.376,0.286-0.86,0.429-1.453,0.429c-0.585,0-1.066-0.143-1.442-0.429c-0.376-0.285-0.564-0.634-0.564-1.046
					s0.188-0.765,0.564-1.057c0.375-0.293,0.856-0.439,1.442-0.439c0.592,0,1.077,0.145,1.453,0.434
					C29.711,75.024,29.899,75.379,29.899,75.798z M26.571,72.556v-0.889h2.58v0.889H26.571z M28.934,75.798
					c0-0.195-0.099-0.353-0.298-0.472c-0.199-0.119-0.45-0.179-0.753-0.179c-0.304,0-0.551,0.06-0.743,0.179
					c-0.192,0.119-0.288,0.276-0.288,0.472c0,0.188,0.098,0.344,0.293,0.466c0.195,0.123,0.441,0.185,0.737,0.185
					c0.303,0,0.554-0.062,0.753-0.185C28.835,76.141,28.934,75.986,28.934,75.798z M33.715,79.343c0,0.535-0.295,0.954-0.884,1.258
					c-0.589,0.304-1.397,0.455-2.423,0.455c-1.034,0-1.847-0.151-2.439-0.455s-0.889-0.723-0.889-1.258
					c0-0.527,0.296-0.943,0.889-1.246c0.593-0.304,1.406-0.456,2.439-0.456c1.026,0,1.833,0.152,2.423,0.456
					C33.42,78.399,33.715,78.815,33.715,79.343z M30.398,78.486c-0.68,0-1.213,0.078-1.599,0.233
					c-0.387,0.155-0.58,0.367-0.58,0.634c0,0.268,0.193,0.478,0.58,0.629c0.386,0.152,0.919,0.228,1.599,0.228
					c0.665,0,1.192-0.075,1.583-0.228c0.39-0.151,0.585-0.361,0.585-0.629c0-0.267-0.193-0.479-0.58-0.634
					S31.07,78.486,30.398,78.486z M33.639,77.532h-1.062v-2.58h-0.932v2.244h-1.052v-5.648h1.052v2.472h0.932v-2.645h1.062V77.532z"
					/>
				<path d="M42.562,74.941h-2.786v1.009h3.827v0.899h-8.727V75.95h3.794v-1.009h-2.645v-3.307h6.461v0.911h-5.345v1.496h5.421
					V74.941z M42.594,79.278c0,0.549-0.294,0.98-0.883,1.295c-0.589,0.314-1.411,0.472-2.466,0.472
					c-1.056,0-1.877-0.157-2.466-0.472c-0.589-0.314-0.884-0.746-0.884-1.295c0-0.535,0.294-0.962,0.884-1.279
					c0.589-0.318,1.407-0.478,2.455-0.478c1.055,0,1.879,0.159,2.472,0.478C42.297,78.316,42.594,78.743,42.594,79.278z
					 M40.859,79.923c0.39-0.147,0.585-0.359,0.585-0.634s-0.197-0.49-0.591-0.646c-0.394-0.155-0.934-0.233-1.621-0.233
					c-0.679,0-1.216,0.078-1.61,0.233s-0.591,0.371-0.591,0.646s0.195,0.486,0.585,0.634c0.391,0.148,0.929,0.223,1.615,0.223
					C39.927,80.145,40.469,80.071,40.859,79.923z"/>
			</g>
			<g>
				<path d="M7.599,100.359c0.477-0.434,1.062-0.65,1.756-0.65s1.281,0.215,1.762,0.645c0.481,0.431,0.721,0.978,0.721,1.643
					c0,0.672-0.237,1.211-0.71,1.615c-0.474,0.405-1.064,0.607-1.773,0.607c-0.694,0-1.279-0.202-1.756-0.607
					c-0.477-0.404-0.716-0.943-0.716-1.615C6.883,101.339,7.122,100.793,7.599,100.359z M9.355,100.63
					c-0.405,0-0.739,0.131-1.002,0.391c-0.264,0.261-0.396,0.582-0.396,0.965c0,0.405,0.132,0.737,0.396,0.997
					c0.264,0.261,0.598,0.391,1.002,0.391c0.412,0,0.748-0.13,1.008-0.391c0.26-0.26,0.391-0.589,0.391-0.986
					s-0.127-0.725-0.38-0.98C10.121,100.759,9.782,100.63,9.355,100.63z M14.841,106.929c0,0.571-0.293,1.03-0.878,1.377
					c-0.585,0.347-1.395,0.521-2.429,0.521c-1.026,0-1.829-0.174-2.407-0.521S8.26,107.5,8.26,106.929
					c0-0.592,0.289-1.062,0.867-1.409s1.38-0.521,2.407-0.521c1.041,0,1.852,0.174,2.434,0.521
					C14.55,105.866,14.841,106.337,14.841,106.929z M11.534,105.91c-0.665,0-1.187,0.09-1.566,0.271s-0.569,0.431-0.569,0.748
					c0,0.312,0.19,0.555,0.569,0.732c0.379,0.177,0.901,0.266,1.566,0.266c0.687,0,1.22-0.089,1.599-0.266
					c0.379-0.178,0.569-0.421,0.569-0.732c0-0.317-0.19-0.567-0.569-0.748S12.221,105.91,11.534,105.91z M12.174,101.248
					l-0.033-0.899h1.518v-1.182h1.117v5.832h-1.117v-1.441h-1.518l0.033-0.911h1.485v-1.398H12.174z"/>
				<path d="M21.215,101.985c0,0.672-0.237,1.211-0.71,1.615c-0.474,0.405-1.064,0.607-1.773,0.607c-0.701,0-1.29-0.202-1.767-0.607
					c-0.477-0.404-0.715-0.939-0.715-1.604c0-0.657,0.24-1.203,0.721-1.637c0.48-0.434,1.067-0.65,1.761-0.65
					s1.281,0.213,1.762,0.64C20.975,100.775,21.215,101.32,21.215,101.985z M22.955,105.498c0.575,0.347,0.862,0.813,0.862,1.398
					s-0.287,1.052-0.862,1.398c-0.574,0.347-1.378,0.521-2.412,0.521c-1.026,0-1.825-0.174-2.396-0.521
					c-0.571-0.347-0.856-0.813-0.856-1.398c0-0.593,0.285-1.061,0.856-1.404c0.571-0.343,1.369-0.515,2.396-0.515
					C21.577,104.977,22.381,105.151,22.955,105.498z M20.131,101.985c0-0.391-0.127-0.714-0.38-0.97
					c-0.253-0.257-0.592-0.386-1.019-0.386c-0.412,0-0.746,0.131-1.002,0.391c-0.257,0.261-0.385,0.582-0.385,0.965
					c0,0.405,0.128,0.735,0.385,0.992c0.256,0.257,0.591,0.385,1.002,0.385c0.412,0,0.748-0.13,1.008-0.391
					C20.001,102.712,20.131,102.383,20.131,101.985z M22.115,107.644c0.375-0.181,0.563-0.43,0.563-0.748s-0.188-0.569-0.563-0.754
					c-0.376-0.184-0.9-0.276-1.572-0.276c-0.658,0-1.172,0.093-1.545,0.276c-0.372,0.185-0.558,0.436-0.558,0.754
					s0.184,0.567,0.553,0.748s0.885,0.271,1.55,0.271C21.215,107.915,21.739,107.825,22.115,107.644z M25.118,101.432h-1.42v1.214
					h1.42v0.911h-1.42v1.312h-1.117v-5.702h1.117v1.366h1.42V101.432z"/>
				<path d="M30.528,99.622c-0.022,0.636-0.156,1.222-0.401,1.756c-0.246,0.535-0.575,0.99-0.986,1.366
					c-0.412,0.376-0.864,0.69-1.355,0.943c-0.491,0.253-1.026,0.452-1.604,0.597l-0.574-0.9c0.947-0.173,1.752-0.511,2.417-1.014
					c0.665-0.502,1.084-1.111,1.257-1.826h-3.198v-0.922H30.528z M33.845,108.761h-6.613v-2.547h5.182v-0.792h-5.247v-0.889h6.353
					v2.504h-5.171v0.835h5.497V108.761z M33.52,104.023h-1.105v-0.91h-1.93v-0.846h1.93v-0.9h-1.767v-0.856h1.767v-1.344h1.105
					V104.023z"/>
				<path d="M37.184,101.086l0.141,2.309l0.705-0.032c0.115,0,0.296-0.007,0.542-0.021l0.141-2.266l1.084,0.108l-0.239,2.103
					c0.564-0.028,1.03-0.079,1.398-0.151l0.087,0.856c-0.701,0.13-1.717,0.228-3.046,0.293c-1.099,0.05-2.045,0.075-2.84,0.075
					l-0.163-0.932c0.607,0,1.059-0.004,1.355-0.012l-0.26-2.222L37.184,101.086z M40.642,100.641h-5.333v-0.9h5.333V100.641z
					 M42.919,108.696h-6.32v-3.729h1.127v0.997h4.076v-1.008h1.117V108.696z M41.802,107.806v-0.965h-4.076v0.965H41.802z
					 M42.908,104.446h-1.117v-5.279h1.117V104.446z"/>
			</g>
			<g>
				<path d="M5.171,125.566c-0.015,0.651-0.138,1.249-0.369,1.795c-0.231,0.546-0.548,1.012-0.949,1.398
					c-0.401,0.387-0.848,0.712-1.339,0.976c-0.492,0.264-1.034,0.476-1.626,0.634l-0.585-0.91c1.236-0.253,2.183-0.741,2.84-1.464
					l-2.613,0.304l-0.217-0.954l3.437-0.26c0.087-0.225,0.148-0.427,0.184-0.607H0.759v-0.911H5.171z M8.142,134.76H1.615v-2.482
					H6.71v-0.759H1.572v-0.878h6.255v2.461H2.721v0.78h5.42V134.76z M9.248,128.114h-1.42v1.94H6.71v-4.878h1.117v2.027h1.42
					V128.114z"/>
				<path d="M17.313,134.717h-6.494v-3.274h1.106v-0.986H9.703v-0.899h8.727v0.899h-2.255v0.986h1.138V134.717z M18.04,128.093
					l-0.488,0.878c-0.708-0.108-1.41-0.363-2.104-0.764c-0.694-0.401-1.153-0.858-1.376-1.372c-0.224,0.521-0.672,0.976-1.344,1.366
					c-0.672,0.391-1.384,0.64-2.136,0.748l-0.477-0.856c0.542-0.058,1.066-0.193,1.572-0.406s0.934-0.51,1.285-0.89
					c0.351-0.379,0.526-0.793,0.526-1.241v-0.303h1.16v0.303c0,0.441,0.189,0.858,0.569,1.253c0.379,0.394,0.824,0.699,1.333,0.916
					C17.069,127.941,17.562,128.064,18.04,128.093z M16.208,133.828v-1.529h-4.282v1.529H16.208z M13.031,130.456v0.986h2.038
					v-0.986H13.031z"/>
				<path d="M19.405,134.912l0.163-2.418h1.214l-0.477,2.418H19.405z"/>
				<path d="M29.433,126.109v6.223h-4.521v-6.223H29.433z M28.316,131.465v-4.488h-2.288v4.488H28.316z M32.143,125.177v3.772h1.485
					v0.922h-1.485v4.965h-1.117v-9.659H32.143z"/>
				<path d="M42.746,133.427h-8.727v-0.9h8.727V133.427z M41.607,126.218c0,2.385-0.141,4.264-0.423,5.637l-1.095-0.141
					c0.116-0.47,0.211-1.154,0.288-2.055c0.076-0.899,0.114-1.754,0.114-2.563h-5.464v-0.878H41.607z"/>
				<path d="M47.982,132.103c-0.904,0.182-1.962,0.278-3.177,0.293l-0.954,0.011v-6.298h1.105v5.355
					c1.193,0,2.146-0.095,2.862-0.282L47.982,132.103z M49.586,134.37h-1.052v-5.183h-1.973v-0.921h1.973v-2.895h1.052V134.37z
					 M51.527,134.836h-1.062v-9.659h1.062V134.836z"/>
				<path d="M60.384,134.717H53.89v-3.274h1.106v-0.986h-2.223v-0.899H61.5v0.899h-2.255v0.986h1.138V134.717z M61.11,128.093
					l-0.488,0.878c-0.708-0.108-1.41-0.363-2.104-0.764c-0.694-0.401-1.153-0.858-1.376-1.372c-0.224,0.521-0.672,0.976-1.344,1.366
					c-0.672,0.391-1.384,0.64-2.136,0.748l-0.477-0.856c0.542-0.058,1.066-0.193,1.572-0.406s0.934-0.51,1.285-0.89
					c0.351-0.379,0.526-0.793,0.526-1.241v-0.303h1.16v0.303c0,0.441,0.189,0.858,0.569,1.253c0.379,0.394,0.824,0.699,1.333,0.916
					C60.14,127.941,60.633,128.064,61.11,128.093z M59.278,133.828v-1.529h-4.282v1.529H59.278z M56.102,130.456v0.986h2.038v-0.986
					H56.102z"/>
				<path d="M5.355,145.362H0.802v-6.386h1.117v2.353h2.309v-2.363h1.127V145.362z M4.228,144.462v-2.255H1.919v2.255H4.228z
					 M8.271,147.845H7.166v-9.659h1.105V147.845z"/>
				<path d="M14.31,141.796v0.867h-3.122v2.06c1.698,0,3.024-0.102,3.979-0.304l0.152,0.867c-0.969,0.21-2.371,0.322-4.207,0.336
					l-1.019,0.011v-6.58h4.423v0.878h-3.328v1.865H14.31z M18.646,142.804h-1.453v5.041h-1.106v-9.659h1.106v3.686h1.453V142.804z"
					/>
				<path d="M24.056,143.465h-4.488v-4.51h4.488V143.465z M27.232,147.562h-6.569v-3.057h1.105v2.168h5.464V147.562z
					 M22.939,142.587v-2.754h-2.255v2.754H22.939z M27.026,145.188h-1.105v-7.003h1.105V145.188z"/>
				<path d="M31.851,146.533v-7.427h2.32c1.142,0,2.014,0.291,2.618,0.873s0.905,1.458,0.905,2.629v0.228
					c0,1.192-0.291,2.107-0.873,2.743c-0.582,0.636-1.458,0.954-2.629,0.954H31.851z M32.967,145.6h1.247
					c0.788,0,1.364-0.206,1.729-0.618c0.365-0.412,0.547-1.08,0.547-2.005v-0.369c0-0.939-0.199-1.603-0.596-1.989
					s-1.001-0.58-1.811-0.58h-1.117V145.6z"/>
				<path d="M38.81,147.921l0.163-2.418h1.214l-0.477,2.418H38.81z"/>
				<path d="M5.355,158.372H0.802v-6.386h1.117v2.353h2.309v-2.363h1.127V158.372z M4.228,157.471v-2.255H1.919v2.255H4.228z
					 M8.271,160.854H7.166v-9.659h1.105V160.854z"/>
				<path d="M14.31,154.805v0.867h-3.122v2.06c1.698,0,3.024-0.102,3.979-0.304l0.152,0.867c-0.969,0.21-2.371,0.322-4.207,0.336
					l-1.019,0.011v-6.58h4.423v0.878h-3.328v1.865H14.31z M18.646,155.813h-1.453v5.041h-1.106v-9.659h1.106v3.686h1.453V155.813z"
					/>
				<path d="M24.056,156.474h-4.488v-4.51h4.488V156.474z M27.232,160.572h-6.569v-3.057h1.105v2.168h5.464V160.572z
					 M22.939,155.596v-2.754h-2.255v2.754H22.939z M27.026,158.198h-1.105v-7.003h1.105V158.198z"/>
				<path d="M31.851,159.543v-7.427h1.117v7.427H31.851z M36.035,159.543l-2.862-3.784l2.84-3.643h1.171l-2.743,3.534l2.905,3.893
					H36.035z"/>
				<path d="M45.597,160.865h-1.106v-3.252h-3.794v-0.9h8.727v0.9h-3.827V160.865z M48.34,155.564h-6.559v-4.001h1.095v1.16h4.358
					v-1.182h1.106V155.564z M47.234,154.664v-1.062h-4.358v1.062H47.234z"/>
				<path d="M58.801,156.81h-8.727v-0.899h3.784v-1.29h1.105v1.29h3.838V156.81z M58.432,154.285l-0.488,0.867
					c-0.73-0.087-1.431-0.311-2.103-0.673c-0.672-0.361-1.138-0.77-1.398-1.225c-0.224,0.47-0.663,0.884-1.317,1.241
					s-1.378,0.58-2.174,0.667l-0.477-0.867c0.824-0.058,1.556-0.261,2.195-0.607s1.024-0.784,1.154-1.312h-2.938v-0.9h7.112v0.9
					h-2.916c0.101,0.347,0.337,0.667,0.71,0.959c0.372,0.293,0.792,0.518,1.257,0.673C57.516,154.164,57.977,154.256,58.432,154.285
					z M51.093,157.613h6.581v3.273h-1.106v-2.374h-5.475V157.613z"/>
			</g>
			<g>
				<path d="M99.944,112.837l0.098,0.803c-1.561,0.209-3.588,0.329-6.082,0.357l-0.163-0.889c1.121,0,1.97-0.004,2.548-0.011v-0.456
					c-0.528-0.058-0.943-0.189-1.247-0.396c-0.304-0.206-0.456-0.472-0.456-0.797c0-0.375,0.202-0.676,0.607-0.899
					c0.404-0.224,0.946-0.336,1.626-0.336c0.679,0,1.225,0.112,1.637,0.336c0.412,0.224,0.618,0.524,0.618,0.899
					c0,0.318-0.15,0.58-0.45,0.786c-0.3,0.206-0.71,0.338-1.23,0.396v0.423C98.65,112.981,99.481,112.909,99.944,112.837z
					 M99.608,109.997h-5.442v-0.813h5.442V109.997z M101.971,117.639h-6.602v-2.027h5.149v-0.531h-5.182v-0.77h6.288v2.017h-5.139
					v0.542h5.485V117.639z M95.553,108.804v-0.792h2.7v0.792H95.553z M98.047,111.449c0-0.151-0.107-0.271-0.32-0.357
					c-0.213-0.087-0.497-0.13-0.851-0.13c-0.347,0-0.627,0.043-0.84,0.13s-0.32,0.206-0.32,0.357c0,0.145,0.106,0.261,0.32,0.348
					c0.213,0.086,0.493,0.13,0.84,0.13c0.354,0,0.638-0.044,0.851-0.13C97.94,111.71,98.047,111.594,98.047,111.449z
					 M103.012,111.58h-1.388v2.211h-1.106v-5.821h1.106v2.688h1.388V111.58z"/>
				<path d="M111.11,111.536h-2.786v1.009h3.827v0.899h-8.727v-0.899h3.794v-1.009h-2.645v-3.307h6.461v0.911h-5.345v1.496h5.421
					V111.536z M111.143,115.873c0,0.549-0.294,0.98-0.883,1.295c-0.589,0.314-1.411,0.472-2.466,0.472
					c-1.056,0-1.877-0.157-2.466-0.472c-0.589-0.314-0.884-0.746-0.884-1.295c0-0.535,0.294-0.962,0.884-1.279
					c0.589-0.318,1.407-0.478,2.455-0.478c1.055,0,1.879,0.159,2.472,0.478C110.846,114.911,111.143,115.338,111.143,115.873z
					 M109.408,116.517c0.39-0.147,0.585-0.359,0.585-0.634s-0.197-0.49-0.591-0.646c-0.394-0.155-0.934-0.233-1.621-0.233
					c-0.679,0-1.216,0.078-1.61,0.233s-0.591,0.371-0.591,0.646s0.195,0.486,0.585,0.634c0.391,0.148,0.929,0.223,1.615,0.223
					C108.476,116.74,109.018,116.666,109.408,116.517z"/>
				<path d="M117.702,117.639h-1.106v-3.252h-3.794v-0.9h8.727v0.9h-3.827V117.639z M120.444,112.339h-6.559v-4.001h1.095v1.16
					h4.358v-1.182h1.106V112.339z M119.338,111.438v-1.062h-4.358v1.062H119.338z"/>
				<path d="M130.906,113.585h-8.727v-0.899h3.784v-1.29h1.105v1.29h3.838V113.585z M130.537,111.059l-0.488,0.867
					c-0.73-0.087-1.431-0.311-2.103-0.673c-0.672-0.361-1.138-0.77-1.398-1.225c-0.224,0.47-0.663,0.884-1.317,1.241
					s-1.378,0.58-2.174,0.667l-0.477-0.867c0.824-0.058,1.556-0.261,2.195-0.607s1.024-0.784,1.154-1.312h-2.938v-0.9h7.112v0.9
					h-2.916c0.101,0.347,0.337,0.667,0.71,0.959c0.372,0.293,0.792,0.518,1.257,0.673
					C129.621,110.938,130.082,111.03,130.537,111.059z M123.198,114.388h6.581v3.273h-1.106v-2.374h-5.475V114.388z"/>
				<path d="M102.773,126.247h-8.727v-0.899h6.212c0.166-0.73,0.25-1.713,0.25-2.949h-5.291v-0.867h6.396
					c0,1.655-0.083,2.927-0.249,3.816h1.409V126.247z M101.884,130.312h-6.667v-3.079h1.106v2.201h5.561V130.312z"/>
				<path d="M104.443,127.471h1.247v-1.182h-2.266v-0.889h8.727v0.889h-2.298v1.182h1.171v3.198h-1.106v-2.319h-5.475V127.471z
					 M111.132,122.919c0,0.549-0.294,0.992-0.883,1.328c-0.589,0.336-1.408,0.504-2.456,0.504c-1.048,0-1.867-0.168-2.456-0.504
					c-0.589-0.336-0.884-0.779-0.884-1.328s0.294-0.992,0.884-1.328c0.589-0.336,1.404-0.504,2.444-0.504
					c1.055,0,1.877,0.166,2.467,0.498C110.837,121.918,111.132,122.362,111.132,122.919z M109.994,122.919
					c0-0.304-0.195-0.542-0.585-0.716c-0.39-0.173-0.933-0.26-1.626-0.26c-0.687,0-1.225,0.087-1.615,0.26
					c-0.39,0.174-0.585,0.412-0.585,0.716c0,0.296,0.195,0.533,0.585,0.71c0.391,0.177,0.929,0.266,1.615,0.266
					c0.68,0,1.218-0.089,1.616-0.266C109.794,123.452,109.994,123.215,109.994,122.919z M106.795,126.29v1.182h1.951v-1.182H106.795
					z"/>
				<path d="M117.615,121.596c-0.029,1.265-0.432,2.307-1.209,3.127s-1.823,1.397-3.138,1.729l-0.564-0.878
					c0.911-0.174,1.72-0.529,2.429-1.068c0.708-0.538,1.127-1.201,1.257-1.989h-3.209v-0.921H117.615z M120.303,130.518h-6.179
					v-3.643h6.179V130.518z M119.187,129.64v-1.887h-3.946v1.887H119.187z M121.724,124.198h-1.42v2.2h-1.117v-5.42h1.117v2.287
					h1.42V124.198z"/>
				<path d="M130.906,129.424h-8.727v-0.9h3.794v-2.374h1.106v2.374h3.827V129.424z M130.624,125.358l-0.575,0.856
					c-0.745-0.188-1.455-0.533-2.13-1.035c-0.676-0.503-1.137-1.043-1.382-1.621c-0.217,0.585-0.667,1.129-1.35,1.632
					c-0.683,0.502-1.404,0.844-2.163,1.024l-0.542-0.9c0.86-0.137,1.657-0.511,2.39-1.122c0.734-0.61,1.101-1.306,1.101-2.087
					v-0.574h1.16v0.574c0,0.514,0.193,1.013,0.58,1.496c0.387,0.484,0.842,0.875,1.366,1.171
					C129.603,125.069,130.118,125.264,130.624,125.358z"/>
			</g>
			<g>
				<g>
					<line fill="none" stroke="#000000" stroke-miterlimit="10" x1="173.836" y1="35.355" x2="173.836" y2="60.985"/>
					<g>
						<polygon points="170.845,60.11 173.836,65.29 176.828,60.11 						"/>
					</g>
				</g>
			</g>
			<g>
				<g>
					<line fill="none" stroke="#000000" stroke-miterlimit="10" x1="247.127" y1="35.355" x2="247.127" y2="60.985"/>
					<g>
						<polygon points="244.135,60.11 247.127,65.29 250.118,60.11 						"/>
					</g>
				</g>
			</g>
			<g>
				<g>
					<polyline fill="none" stroke="#000000" stroke-miterlimit="10" points="124.288,35.355 124.288,89.032 117.224,97.584 					"/>
					<g>
						<polygon points="115.475,95.004 114.482,100.903 120.087,98.814 						"/>
					</g>
				</g>
			</g>
			<g>
				<g>
					<line fill="none" stroke="#000000" stroke-miterlimit="10" x1="87.643" y1="35.355" x2="35.694" y2="63.253"/>
					<g>
						<polygon points="35.05,60.203 31.901,65.29 37.88,65.475 						"/>
					</g>
				</g>
			</g>
			<g>
				<g>
					<line fill="none" stroke="#000000" stroke-miterlimit="10" x1="22.094" y1="85.261" x2="22.094" y2="89.737"/>
					<g>
						<polygon points="19.103,88.862 22.094,94.043 25.086,88.862 						"/>
					</g>
				</g>
			</g>
			<g>
				<g>
					<line fill="none" stroke="#000000" stroke-miterlimit="10" x1="22.094" y1="116.588" x2="22.094" y2="121.063"/>
					<g>
						<polygon points="19.103,120.188 22.094,125.369 25.086,120.188 						"/>
					</g>
				</g>
			</g>
			<g>
				<g>
					<line fill="none" stroke="#000000" stroke-miterlimit="10" x1="46.869" y1="80.177" x2="82.005" y2="103.794"/>
					<g>
						<polygon points="79.61,105.789 85.578,106.196 82.947,100.823 						"/>
					</g>
				</g>
			</g>
			<g>
				<g>
					<line fill="none" stroke="#000000" stroke-miterlimit="10" x1="110.869" y1="138.185" x2="110.869" y2="176.082"/>
					<g>
						<polygon points="107.877,175.206 110.869,180.387 113.86,175.206 						"/>
					</g>
				</g>
			</g>
			<g>
				<g>
					<line fill="none" stroke="#000000" stroke-miterlimit="10" x1="31.901" y1="165.936" x2="81.463" y2="181.185"/>
					<g>
						<polygon points="79.747,183.787 85.578,182.452 81.506,178.069 						"/>
					</g>
				</g>
			</g>
			<g>
				<g>
					<line fill="none" stroke="#000000" stroke-miterlimit="10" x1="173.836" y1="108.826" x2="173.836" y2="178.146"/>
					<g>
						<polygon points="170.845,177.271 173.836,182.452 176.828,177.271 						"/>
					</g>
				</g>
			</g>
			<g>
				<g>
					<line fill="none" stroke="#000000" stroke-miterlimit="10" x1="247.127" y1="106.196" x2="247.127" y2="176.082"/>
					<g>
						<polygon points="244.135,175.206 247.127,180.387 250.118,175.206 						"/>
					</g>
				</g>
			</g>
			<g>
				<g>
					<line fill="none" stroke="#000000" stroke-miterlimit="10" x1="343.643" y1="116.588" x2="291.736" y2="177.119"/>
					<g>
						<polygon points="290.035,174.507 288.933,180.387 294.577,178.402 						"/>
					</g>
				</g>
			</g>
			<g>
				<path d="M187.778,11.47c0.527,0.48,0.792,1.092,0.792,1.836s-0.263,1.345-0.786,1.801c-0.524,0.455-1.178,0.684-1.962,0.684
					c-0.76,0-1.402-0.229-1.926-0.69c-0.524-0.46-0.786-1.058-0.786-1.794c0-0.735,0.262-1.346,0.786-1.83
					c0.524-0.483,1.166-0.726,1.926-0.726C186.598,10.75,187.25,10.991,187.778,11.47z M186.932,14.392
					c0.284-0.292,0.426-0.657,0.426-1.098c0-0.439-0.138-0.804-0.414-1.092c-0.276-0.288-0.65-0.433-1.122-0.433
					c-0.44,0-0.802,0.148-1.086,0.444c-0.284,0.296-0.426,0.656-0.426,1.08c0,0.448,0.142,0.816,0.426,1.104
					c0.284,0.287,0.646,0.432,1.086,0.432C186.278,14.83,186.647,14.685,186.932,14.392z M191.822,20.735h-6.984v-4.021h6.984
					V20.735z M190.585,19.75v-2.064h-4.5v2.064H190.585z M191.809,16.186h-1.235v-1.199h-1.681l0.036-1.009h1.645v-1.439h-1.645
					l-0.036-1.008h1.681v-1.356h1.235V16.186z"/>
				<path d="M203.042,15.275v0.983h-9.66v-0.983H203.042z M202.561,13.618l-0.54,0.972c-0.8-0.096-1.562-0.344-2.286-0.744
					c-0.724-0.399-1.229-0.855-1.518-1.368c-0.248,0.528-0.722,0.99-1.422,1.387c-0.7,0.396-1.49,0.642-2.37,0.737l-0.54-0.972
					c0.872-0.048,1.654-0.256,2.346-0.624c0.692-0.368,1.122-0.84,1.29-1.416h-3.168v-0.996h7.74v0.996h-3.144
					c0.184,0.561,0.636,1.026,1.355,1.398S201.777,13.571,202.561,13.618z M200.941,17.452c0.656,0.355,0.984,0.83,0.984,1.422
					s-0.328,1.065-0.984,1.422c-0.655,0.355-1.563,0.534-2.724,0.534c-1.168,0-2.078-0.176-2.73-0.528
					c-0.651-0.352-0.978-0.828-0.978-1.428c0-0.592,0.326-1.066,0.978-1.422c0.652-0.356,1.559-0.534,2.719-0.534
					C199.374,16.918,200.286,17.096,200.941,17.452z M200.653,18.874c0-0.296-0.218-0.53-0.653-0.702
					c-0.437-0.172-1.034-0.258-1.794-0.258c-0.752,0-1.347,0.086-1.782,0.258c-0.437,0.172-0.654,0.406-0.654,0.702
					c0,0.312,0.216,0.55,0.648,0.714c0.432,0.164,1.027,0.246,1.788,0.246c0.768,0,1.367-0.082,1.8-0.246
					C200.437,19.424,200.653,19.186,200.653,18.874z"/>
			</g>
			<g>
				<path d="M177.304,200.492h-3v-7.128h1.104v2.628h0.804v-2.64h1.092V200.492z M176.212,199.496v-2.532h-0.804v2.532H176.212z
					 M180.856,200.492h-2.988v-7.128h1.08v2.616h0.816v-2.628h1.092v1.632h1.224v-2.616h1.2v10.692h-1.2v-4.356h-1.224V200.492z
					 M179.765,199.509v-2.545h-0.816v2.545H179.765z M180.856,197.696h1.224v-1.716h-1.224V197.696z"/>
				<path d="M191.693,199.34l0.096,0.984c-2.145,0.232-4.512,0.356-7.104,0.372l-0.192-1.056c1.416,0.016,2.6-0.004,3.552-0.061
					C189.485,199.524,190.701,199.444,191.693,199.34z M190.745,195.764c0,0.728-0.267,1.315-0.798,1.764
					c-0.532,0.448-1.198,0.672-1.998,0.672c-0.792,0-1.446-0.226-1.962-0.678s-0.774-1.038-0.774-1.758
					c0-0.736,0.262-1.347,0.786-1.83c0.523-0.484,1.174-0.727,1.95-0.727c0.8,0,1.466,0.24,1.998,0.721
					C190.478,194.408,190.745,195.02,190.745,195.764z M189.508,195.752c0-0.447-0.147-0.808-0.443-1.08
					c-0.297-0.271-0.668-0.407-1.116-0.407c-0.424,0-0.787,0.14-1.086,0.42s-0.45,0.636-0.45,1.067c0,0.416,0.15,0.755,0.45,1.015
					s0.662,0.39,1.086,0.39c0.432,0,0.8-0.13,1.104-0.39C189.357,196.507,189.508,196.168,189.508,195.752z M193.516,192.368v10.692
					h-1.224v-10.692H193.516z"/>
				<path d="M207.772,198.896h-9.66V197.9h4.212v-1.596h1.225v1.596h4.224V198.896z M207.352,195.98l-0.54,0.96
					c-0.784-0.12-1.56-0.424-2.328-0.912c-0.768-0.488-1.279-1.02-1.536-1.596c-0.239,0.576-0.731,1.102-1.476,1.578
					c-0.744,0.476-1.536,0.781-2.376,0.918l-0.528-0.948c0.944-0.104,1.807-0.444,2.586-1.021c0.78-0.575,1.17-1.235,1.17-1.979
					v-0.384h1.272v0.384c0,0.496,0.208,0.976,0.624,1.439c0.416,0.465,0.912,0.832,1.488,1.104
					C206.285,195.796,206.833,195.948,207.352,195.98z M206.656,202.761h-7.308v-3.12h1.236v2.136h6.071V202.761z"/>
				<path d="M214.936,196.724l-0.696,0.924c-0.479-0.192-0.952-0.486-1.416-0.882c-0.464-0.396-0.808-0.842-1.031-1.338
					c-0.16,0.536-0.479,1.029-0.954,1.481c-0.477,0.452-1.002,0.79-1.578,1.014L208.528,197c0.784-0.288,1.416-0.731,1.896-1.332
					c0.479-0.6,0.72-1.3,0.72-2.1v-0.853h1.26v0.805c0,0.775,0.254,1.452,0.763,2.027
					C213.674,196.124,214.264,196.516,214.936,196.724z M217.648,202.976h-7.32v-2.809h5.736v-0.852h-5.771v-0.984h6.995v2.748
					h-5.724v0.924h6.084V202.976z M217.288,197.768h-1.224v-5.4h1.224V197.768z"/>
			</g>
		</g>
		<g>
			<path d="M118.283,66.092v1.03h-5.21v-1.03H118.283z M114.503,73.032h-0.82v-4.7h0.82v1.79h0.029c0.627,0,1.176-0.2,1.646-0.6
				s0.792-0.88,0.965-1.44l0.81,0.57c-0.152,0.387-0.396,0.769-0.729,1.145c-0.333,0.377-0.7,0.659-1.1,0.845
				c0.433,0.126,0.845,0.395,1.234,0.805c0.391,0.41,0.672,0.845,0.845,1.305l-0.789,0.62c-0.247-0.646-0.62-1.175-1.12-1.585
				c-0.5-0.41-1.07-0.615-1.71-0.615h-0.08V73.032z M118.743,72.092v-6.01h3.24v1.03h-2.43v4.98H118.743z"/>
			<path d="M117.823,57.442v1.02h-1.84v1.44h-0.85v-1.44h-2.07v-1.02H117.823z M114.383,64.472h-0.84v-4.69h0.84v1.78
				c0.627,0,1.175-0.197,1.645-0.59c0.471-0.394,0.795-0.87,0.976-1.43l0.81,0.57c-0.153,0.387-0.396,0.769-0.729,1.145
				c-0.334,0.377-0.697,0.655-1.091,0.835c0.427,0.127,0.835,0.395,1.226,0.805c0.39,0.41,0.672,0.845,0.845,1.305l-0.79,0.62
				c-0.24-0.647-0.616-1.175-1.13-1.585c-0.514-0.41-1.09-0.615-1.729-0.615h-0.03V64.472z M121.863,57.432v5.8h-3.55v-1.03h0.96
				v-3.75h-0.99v-1.02H121.863z M121.033,58.452h-0.96v3.75h0.96V58.452z"/>
		</g>
		<g>
			<path d="M166.841,153.246v1.031h-5.21v-1.031H166.841z M163.062,160.186h-0.82v-4.7h0.82v1.791h0.029
				c0.627,0,1.176-0.201,1.646-0.601s0.792-0.88,0.965-1.44l0.81,0.57c-0.152,0.387-0.396,0.769-0.729,1.145
				c-0.333,0.377-0.7,0.659-1.1,0.846c0.433,0.127,0.845,0.395,1.234,0.805c0.391,0.41,0.672,0.846,0.845,1.305l-0.789,0.621
				c-0.247-0.646-0.62-1.176-1.12-1.586s-1.07-0.615-1.71-0.615h-0.08V160.186z M167.301,159.246v-6.01h3.24v1.03h-2.43v4.979
				H167.301z"/>
			<path d="M166.381,144.596v1.021h-1.84v1.439h-0.85v-1.439h-2.07v-1.021H166.381z M162.941,151.627h-0.84v-4.689h0.84v1.779
				c0.627,0,1.175-0.197,1.645-0.59c0.471-0.394,0.795-0.87,0.976-1.43l0.81,0.569c-0.153,0.387-0.396,0.769-0.729,1.146
				c-0.334,0.377-0.697,0.654-1.091,0.834c0.427,0.127,0.835,0.396,1.226,0.806c0.39,0.41,0.672,0.845,0.845,1.306l-0.79,0.619
				c-0.24-0.646-0.616-1.175-1.13-1.585c-0.514-0.409-1.09-0.614-1.729-0.614h-0.03V151.627z M170.421,144.587v5.8h-3.55v-1.029
				h0.96v-3.75h-0.99v-1.021H170.421z M169.591,145.607h-0.96v3.75h0.96V145.607z"/>
		</g>
	</g>
	<g>
		<g>
			<line fill="none" stroke="#000000" stroke-miterlimit="10" x1="288.933" y1="35.355" x2="334.812" y2="63.064"/>
			<g>
				<polygon points="332.516,65.173 338.497,65.29 335.609,60.051 				"/>
			</g>
		</g>
	</g>
</g>
<g>
</g>
<g>
</g>
<g>
</g>
<g>
</g>
<g>
</g>
<g>
</g>
<g>
</g>
</svg>
