<?xml version="1.0" encoding="utf-8"?>
<!-- Generator: Adobe Illustrator 28.0.0, SVG Export Plug-In . SVG Version: 6.00 Build 0)  -->
<svg version="1.1" id="레이어_1" xmlns="http://www.w3.org/2000/svg" xmlns:xlink="http://www.w3.org/1999/xlink" x="0px"
	 y="0px" viewBox="0 0 609.44 430.288" enable-background="new 0 0 609.44 430.288" xml:space="preserve">
<g>
	<defs>
		<rect id="SVGID_1_" x="127.581" width="481.397" height="430.288"/>
	</defs>
	<clipPath id="SVGID_00000145759811339081170270000001820625933561973656_">
		<use xlink:href="#SVGID_1_"  overflow="visible"/>
	</clipPath>
	
		<path clip-path="url(#SVGID_00000145759811339081170270000001820625933561973656_)" fill="#FAE3D4" stroke="#F39800" stroke-width="0.9243" stroke-miterlimit="10" d="
		M577.236,375.532H336.462c-17.458,0-31.742-14.284-31.742-31.742v-204.59c0-17.458,14.284-31.742,31.742-31.742h240.774
		c17.458,0,31.742,14.284,31.742,31.742v204.59C608.978,361.249,594.694,375.532,577.236,375.532z"/>
	
		<path clip-path="url(#SVGID_00000145759811339081170270000001820625933561973656_)" fill="#FAE3D4" stroke="#F39800" stroke-width="0.9243" stroke-miterlimit="10" d="
		M272.978,375.532H32.204c-17.458,0-31.742-14.284-31.742-31.742v-204.59c0-17.458,14.284-31.742,31.742-31.742h240.774
		c17.458,0,31.742,14.284,31.742,31.742v204.59C304.72,361.249,290.436,375.532,272.978,375.532z"/>
	<g clip-path="url(#SVGID_00000145759811339081170270000001820625933561973656_)">
		<ellipse fill="#FFFFFF" cx="477.197" cy="308.687" rx="89.032" ry="61.038"/>
		
			<ellipse fill="none" stroke="#F39800" stroke-miterlimit="10" stroke-dasharray="21.1352,10.5676,21.1352,10.5676,21.1352,10.5676" cx="477.197" cy="308.687" rx="89.032" ry="61.038"/>
	</g>
	<g clip-path="url(#SVGID_00000145759811339081170270000001820625933561973656_)">
		<ellipse fill="#FFFFFF" cx="186.855" cy="298.983" rx="89.032" ry="61.038"/>
		
			<ellipse fill="none" stroke="#F39800" stroke-miterlimit="10" stroke-dasharray="21.1352,10.5676,21.1352,10.5676,21.1352,10.5676" cx="186.855" cy="298.983" rx="89.032" ry="61.038"/>
	</g>
	<g clip-path="url(#SVGID_00000145759811339081170270000001820625933561973656_)">
		<path d="M505.99,71.633v10.422h-7.614V71.633H505.99z M503.885,80.381v-7.056h-3.42v7.056H503.885z M510.527,70.157v6.156h2.178
			v1.746h-2.178v8.136h-2.142V70.157H510.527z"/>
		<path d="M515.108,81.137c-0.737-1.044-1.106-2.423-1.106-4.14c0-1.716,0.369-3.102,1.106-4.158
			c0.738-1.056,1.749-1.584,3.033-1.584c1.296,0,2.313,0.528,3.051,1.584c0.738,1.056,1.107,2.442,1.107,4.158
			c0,1.704-0.369,3.081-1.107,4.131c-0.737,1.05-1.755,1.575-3.051,1.575C516.857,82.703,515.846,82.181,515.108,81.137z
			 M520.283,76.997c0-1.248-0.198-2.235-0.595-2.961c-0.396-0.726-0.912-1.089-1.548-1.089c-0.612,0-1.113,0.363-1.503,1.089
			s-0.585,1.713-0.585,2.961c0,1.236,0.195,2.214,0.585,2.934c0.39,0.72,0.891,1.08,1.503,1.08c0.636,0,1.152-0.36,1.548-1.08
			C520.085,79.211,520.283,78.233,520.283,76.997z M526.799,86.195h-2.088V70.157h2.088V86.195z"/>
		<path d="M543.611,84.197h-14.49v-1.674h6.174v-2.556c-1.464-0.168-2.631-0.651-3.501-1.449s-1.305-1.779-1.305-2.943
			c0-1.308,0.54-2.37,1.62-3.186s2.502-1.224,4.266-1.224s3.187,0.408,4.266,1.224c1.08,0.816,1.62,1.878,1.62,3.186
			c0,1.176-0.438,2.164-1.313,2.961s-2.059,1.275-3.546,1.431v2.556h6.21V84.197z M540.136,75.593c0-0.804-0.342-1.455-1.025-1.953
			c-0.685-0.498-1.597-0.747-2.736-0.747c-1.128,0-2.034,0.249-2.718,0.747c-0.685,0.498-1.026,1.149-1.026,1.953
			c0,0.816,0.342,1.47,1.026,1.962c0.684,0.492,1.59,0.738,2.718,0.738s2.037-0.246,2.728-0.738
			C539.791,77.063,540.136,76.409,540.136,75.593z"/>
		<path d="M559.18,84.107h-14.49v-1.674h14.49V84.107z M558.873,77.537l-1.062,1.638c-1.188-0.276-2.358-0.81-3.51-1.602
			c-1.152-0.792-1.944-1.686-2.376-2.682c-0.396,1.02-1.18,1.935-2.35,2.745c-1.17,0.81-2.354,1.347-3.555,1.611l-0.99-1.71
			c0.912-0.132,1.803-0.432,2.673-0.9c0.87-0.468,1.611-1.101,2.224-1.899c0.611-0.798,0.918-1.647,0.918-2.547v-1.062h2.195v1.062
			c0,0.54,0.123,1.071,0.369,1.593c0.246,0.522,0.573,0.987,0.981,1.395c0.407,0.408,0.866,0.777,1.377,1.107
			c0.51,0.33,1.028,0.6,1.557,0.81S558.369,77.453,558.873,77.537z"/>
		<path d="M562.96,80.903c2.748,0,4.859-0.162,6.336-0.486c0.023,0.192,0.062,0.468,0.117,0.828c0.054,0.36,0.093,0.636,0.116,0.828
			c-1.512,0.348-3.888,0.522-7.128,0.522h-1.529V71.561h7.361v1.656h-5.273v2.916h4.985v1.674h-4.985V80.903z M572.788,70.157v6.048
			h2.231v1.728h-2.231v8.262h-2.106V70.157H572.788z"/>
		<path d="M585.514,79.211c-1.68,0.348-4.104,0.522-7.271,0.522h-1.512v-8.37h7.47v1.674h-5.4v1.62h5.094v1.674H578.8v1.71h0.721
			c2.411,0,4.331-0.144,5.76-0.432C585.388,78.425,585.466,78.959,585.514,79.211z M589.51,85.763h-11.142v-5.04h2.124v3.366h9.018
			V85.763z M589.078,70.157v11.628h-2.106V70.157H589.078z"/>
	</g>
	<g clip-path="url(#SVGID_00000145759811339081170270000001820625933561973656_)">
		<path d="M535.8,227.198c0,2.676-0.144,4.788-0.432,6.336h2.286v1.656h-14.49v-1.656h10.116c0.3-1.152,0.438-2.711,0.414-4.68
			h-8.586v-1.656H535.8z M536.214,241.94h-11.105v-5.221h2.105v3.528h9V241.94z"/>
		<path d="M540.445,237.026h1.926v-1.674h-3.636v-1.656h14.49v1.656h-3.69v1.674h1.818v5.399h-2.088V238.7h-8.82V237.026z
			 M540.391,229.808c0-0.924,0.491-1.671,1.476-2.241s2.352-0.855,4.104-0.855c1.764,0,3.141,0.285,4.131,0.855
			s1.484,1.317,1.484,2.241c0,0.912-0.494,1.656-1.484,2.232c-0.99,0.576-2.361,0.864-4.113,0.864s-3.123-0.288-4.113-0.864
			C540.886,231.464,540.391,230.72,540.391,229.808z M543.469,228.737c-0.601,0.27-0.9,0.627-0.9,1.071
			c0,0.444,0.303,0.801,0.909,1.071c0.605,0.27,1.437,0.405,2.493,0.405c1.044,0,1.878-0.138,2.502-0.414
			c0.623-0.276,0.936-0.63,0.936-1.062c0-0.443-0.303-0.801-0.909-1.071c-0.605-0.27-1.448-0.405-2.528-0.405
			C544.903,228.332,544.069,228.467,543.469,228.737z M544.477,235.352v1.674h2.952v-1.674H544.477z"/>
		<path d="M562.367,233.48l-1.062,1.584c-0.552-0.24-1.122-0.64-1.71-1.197s-0.984-1.089-1.188-1.593
			c-0.228,0.636-0.633,1.266-1.215,1.89s-1.209,1.092-1.881,1.404l-1.151-1.494c0.995-0.552,1.772-1.266,2.33-2.142
			c0.559-0.875,0.838-1.866,0.838-2.97v-1.584h2.033v1.53c0,1.056,0.279,1.978,0.837,2.763
			C560.757,232.457,561.48,233.06,562.367,233.48z M568.073,239.168c0,0.984-0.501,1.771-1.503,2.358s-2.366,0.882-4.095,0.882
			c-1.728,0-3.09-0.294-4.086-0.882s-1.494-1.374-1.494-2.358c0-0.996,0.498-1.785,1.494-2.367s2.358-0.873,4.086-0.873
			c1.74,0,3.107,0.291,4.104,0.873C567.575,237.382,568.073,238.172,568.073,239.168z M565.005,240.301
			c0.618-0.275,0.927-0.653,0.927-1.134c0-0.479-0.309-0.857-0.927-1.134s-1.461-0.414-2.529-0.414
			c-1.044,0-1.872,0.138-2.484,0.414c-0.611,0.276-0.918,0.654-0.918,1.134c0,0.48,0.307,0.858,0.918,1.134
			c0.612,0.276,1.44,0.414,2.484,0.414C563.544,240.715,564.387,240.578,565.005,240.301z M567.948,236h-1.998v-3.978h-1.313v3.348
			h-1.944v-8.712h1.944v3.672h1.313v-3.96h1.998V236z"/>
		<path d="M579.467,233.48l-1.206,1.638c-0.66-0.264-1.338-0.699-2.034-1.305c-0.695-0.606-1.205-1.257-1.529-1.953
			c-0.229,0.792-0.711,1.533-1.449,2.223c-0.738,0.69-1.497,1.167-2.277,1.431l-1.26-1.674c1.188-0.432,2.13-1.1,2.826-2.006
			c0.695-0.906,1.044-1.953,1.044-3.141v-1.584h2.178v1.476c0,1.176,0.363,2.202,1.089,3.078
			C577.574,232.538,578.448,233.144,579.467,233.48z M583.247,239.168c0,0.984-0.486,1.768-1.458,2.349
			c-0.972,0.582-2.328,0.873-4.068,0.873c-1.704,0-3.039-0.291-4.005-0.873c-0.966-0.581-1.449-1.364-1.449-2.349
			c0-1.008,0.48-1.803,1.44-2.385s2.298-0.873,4.014-0.873c1.74,0,3.097,0.291,4.068,0.873S583.247,238.16,583.247,239.168z
			 M577.721,237.602c-1.032,0-1.839,0.138-2.421,0.413c-0.582,0.276-0.873,0.66-0.873,1.152c0,0.48,0.291,0.855,0.873,1.125
			c0.582,0.271,1.389,0.405,2.421,0.405c1.068,0,1.894-0.135,2.476-0.405c0.582-0.27,0.873-0.645,0.873-1.125
			c0-0.492-0.291-0.876-0.873-1.152C579.615,237.74,578.789,237.602,577.721,237.602z M583.139,235.73h-2.105v-4.356h-2.736V229.7
			h2.736v-3.33h2.105V235.73z"/>
	</g>
	<g clip-path="url(#SVGID_00000145759811339081170270000001820625933561973656_)">
		<path d="M405.455,316.892v-12.348h2.484l5.13,8.712h0.054v-8.712h1.962v12.348h-2.196l-5.418-9.306h-0.054v9.306H405.455z"/>
		<path d="M417.984,316.892v-12.348h7.578v1.746h-5.364v3.689h4.176v1.71h-4.176v5.202H417.984z"/>
		<path d="M427.289,312.77v-1.728h4.95v1.728H427.289z"/>
		<path d="M434.291,316.892v-13.158h2.07v13.158H434.291z M439.818,316.892c-0.048-0.072-0.594-0.867-1.638-2.385
			c-1.044-1.519-1.591-2.319-1.639-2.403c0.048-0.096,0.579-0.846,1.594-2.25c1.014-1.404,1.539-2.142,1.574-2.214h2.16
			c-0.084,0.096-0.611,0.813-1.584,2.151c-0.972,1.338-1.5,2.066-1.584,2.187c0.012,0.012,0.204,0.285,0.576,0.819
			s0.75,1.08,1.134,1.638s0.753,1.092,1.107,1.603c0.354,0.51,0.549,0.795,0.585,0.854H439.818z"/>
		<path d="M443.939,316.892v-12.348h4.32c2.712,0,4.067,1.038,4.067,3.113c0,1.368-0.672,2.269-2.016,2.7v0.055
			c1.704,0.312,2.556,1.296,2.556,2.951c0,1.068-0.366,1.924-1.098,2.565c-0.732,0.642-1.8,0.963-3.204,0.963H443.939z
			 M446.135,309.8h1.728c1.512,0,2.269-0.612,2.269-1.836c0-0.648-0.178-1.107-0.531-1.377c-0.354-0.271-0.903-0.405-1.647-0.405
			h-1.817V309.8z M446.135,315.236h2.124c1.523,0,2.286-0.666,2.286-1.998c0-0.695-0.201-1.196-0.604-1.503
			c-0.402-0.306-1.005-0.459-1.809-0.459h-1.998V315.236z"/>
	</g>
	<g clip-path="url(#SVGID_00000145759811339081170270000001820625933561973656_)">
		<path d="M199.169,316.892v-12.348h2.484l5.13,8.712h0.054v-8.712h1.962v12.348h-2.196l-5.418-9.306h-0.054v9.306H199.169z"/>
		<path d="M211.697,316.892v-12.348h7.578v1.746h-5.364v3.689h4.176v1.71h-4.176v5.202H211.697z"/>
		<path d="M221.003,312.77v-1.728h4.95v1.728H221.003z"/>
		<path d="M228.005,316.892v-13.158h2.07v13.158H228.005z M233.531,316.892c-0.048-0.072-0.594-0.867-1.638-2.385
			c-1.044-1.519-1.591-2.319-1.639-2.403c0.048-0.096,0.579-0.846,1.594-2.25c1.014-1.404,1.539-2.142,1.574-2.214h2.16
			c-0.084,0.096-0.611,0.813-1.584,2.151c-0.972,1.338-1.5,2.066-1.584,2.187c0.012,0.012,0.204,0.285,0.576,0.819
			s0.75,1.08,1.134,1.638s0.753,1.092,1.107,1.603c0.354,0.51,0.549,0.795,0.585,0.854H233.531z"/>
		<path d="M237.652,316.892v-12.348h4.32c2.712,0,4.067,1.038,4.067,3.113c0,1.368-0.672,2.269-2.016,2.7v0.055
			c1.704,0.312,2.556,1.296,2.556,2.951c0,1.068-0.366,1.924-1.098,2.565c-0.732,0.642-1.8,0.963-3.204,0.963H237.652z
			 M239.848,309.8h1.728c1.512,0,2.269-0.612,2.269-1.836c0-0.648-0.178-1.107-0.531-1.377c-0.354-0.271-0.903-0.405-1.647-0.405
			h-1.817V309.8z M239.848,315.236h2.124c1.523,0,2.286-0.666,2.286-1.998c0-0.695-0.201-1.196-0.604-1.503
			c-0.402-0.306-1.005-0.459-1.809-0.459h-1.998V315.236z"/>
	</g>
	<g clip-path="url(#SVGID_00000145759811339081170270000001820625933561973656_)">
		<path d="M486.267,310.791v-12.348h3.114l3.006,9.306h0.054l3.006-9.306h3.097v12.348h-2.215v-9.594h-0.071l-3.097,9.594h-1.817
			l-3.078-9.594h-0.054v9.594H486.267z"/>
		<path d="M502.269,313.455c-0.588,0-1.038-0.103-1.351-0.306v-1.387c0.265,0.061,0.564,0.091,0.9,0.091
			c0.456,0,0.819-0.079,1.089-0.234c0.271-0.156,0.483-0.444,0.64-0.864l0.252-0.647l-3.492-8.586h2.195l2.341,6.012h0.071
			l2.16-6.012h1.998l-3.582,9.521c-0.3,0.876-0.696,1.497-1.188,1.863C503.811,313.271,503.133,313.455,502.269,313.455z"/>
		<path d="M514.508,310.953c-1.403,0-2.487-0.405-3.249-1.215c-0.762-0.811-1.143-1.941-1.143-3.394v-0.288
			c0-1.464,0.401-2.612,1.206-3.446c0.804-0.834,1.872-1.251,3.204-1.251c1.392,0,2.469,0.404,3.23,1.215
			c0.762,0.81,1.144,1.953,1.144,3.429v0.252c0,1.465-0.402,2.613-1.206,3.447C516.89,310.536,515.828,310.953,514.508,310.953z
			 M514.544,309.386c1.464,0,2.196-0.983,2.196-2.952v-0.449c0-1.128-0.201-1.92-0.604-2.376c-0.401-0.456-0.951-0.685-1.646-0.685
			c-0.72,0-1.275,0.252-1.665,0.756c-0.391,0.504-0.585,1.249-0.585,2.232v0.432c0,1.116,0.204,1.902,0.612,2.358
			C513.26,309.159,513.824,309.386,514.544,309.386z"/>
		<path d="M524.21,313.419c-1.416,0-2.484-0.188-3.204-0.566c-0.72-0.379-1.08-0.903-1.08-1.575c0-0.876,0.576-1.482,1.729-1.818
			v-0.072c-0.288-0.096-0.522-0.267-0.702-0.513s-0.271-0.524-0.271-0.837c0-0.3,0.087-0.555,0.262-0.765
			c0.174-0.21,0.446-0.436,0.818-0.676c-0.78-0.504-1.17-1.229-1.17-2.178v-0.162c0-0.936,0.336-1.649,1.008-2.142
			s1.572-0.738,2.7-0.738c0.48,0,0.96,0.048,1.44,0.145h3.132v1.367h-1.422c0.312,0.349,0.468,0.786,0.468,1.314v0.126
			c0,0.948-0.33,1.659-0.99,2.133c-0.66,0.475-1.542,0.711-2.646,0.711c-0.612,0-1.099-0.06-1.458-0.18
			c-0.024,0.024-0.058,0.051-0.1,0.081s-0.071,0.054-0.09,0.072c-0.018,0.018-0.039,0.039-0.062,0.062
			c-0.024,0.024-0.042,0.048-0.055,0.072c-0.012,0.024-0.021,0.051-0.026,0.081c-0.007,0.03-0.009,0.062-0.009,0.099
			c0,0.408,0.275,0.612,0.827,0.612h2.557c2.004,0,3.006,0.78,3.006,2.34c0,0.912-0.387,1.641-1.161,2.187
			S525.77,313.419,524.21,313.419z M524.174,312.014c1.716,0,2.574-0.42,2.574-1.26c0-0.359-0.103-0.605-0.306-0.738
			c-0.204-0.132-0.583-0.197-1.135-0.197h-2.376c-0.636,0.204-0.954,0.588-0.954,1.151
			C521.978,311.667,522.71,312.014,524.174,312.014z M524.282,305.84c1.092,0,1.638-0.474,1.638-1.422v-0.234
			c0-0.995-0.546-1.493-1.638-1.493c-1.104,0-1.656,0.485-1.656,1.458v0.216C522.626,305.349,523.178,305.84,524.282,305.84z"/>
		<path d="M534.542,310.953c-1.512,0-2.655-0.408-3.429-1.224c-0.774-0.816-1.161-1.969-1.161-3.456v-0.252
			c0-1.5,0.398-2.649,1.197-3.447c0.798-0.798,1.814-1.197,3.051-1.197c1.344,0,2.334,0.372,2.97,1.116s0.954,1.866,0.954,3.366
			v0.863h-6.048c0.06,0.937,0.326,1.605,0.801,2.008c0.474,0.401,1.167,0.603,2.079,0.603c1.02,0,1.974-0.228,2.862-0.684v1.439
			C536.943,310.665,535.85,310.953,534.542,310.953z M534.164,302.907c-1.272,0-1.968,0.798-2.088,2.394h3.941
			c0-0.852-0.152-1.464-0.459-1.836C535.253,303.092,534.788,302.907,534.164,302.907z"/>
		<path d="M540.031,310.791v-9.27h1.998v0.827h0.072c0.912-0.659,1.926-0.989,3.042-0.989c0.912,0,1.59,0.201,2.034,0.603
			c0.443,0.402,0.666,1.053,0.666,1.953v6.876h-2.088v-6.39c0-0.48-0.108-0.819-0.324-1.018c-0.216-0.197-0.63-0.297-1.242-0.297
			c-0.696,0-1.392,0.168-2.088,0.504v7.2H540.031z"/>
		<path d="M550.274,299.991V298.1h2.106v1.891H550.274z M550.274,310.791v-9.27h2.088v9.27H550.274z"/>
		<path d="M554.863,310.791v-9.27h1.998v0.827h0.072c0.912-0.659,1.926-0.989,3.042-0.989c0.912,0,1.59,0.201,2.034,0.603
			c0.443,0.402,0.666,1.053,0.666,1.953v6.876h-2.088v-6.39c0-0.48-0.108-0.819-0.324-1.018c-0.216-0.197-0.63-0.297-1.242-0.297
			c-0.696,0-1.392,0.168-2.088,0.504v7.2H554.863z"/>
		<path d="M486.267,332.391v-12.349h3.114l3.006,9.307h0.054l3.006-9.307h3.097v12.349h-2.215v-9.595h-0.071l-3.097,9.595h-1.817
			l-3.078-9.595h-0.054v9.595H486.267z"/>
		<path d="M502.269,335.054c-0.588,0-1.038-0.102-1.351-0.306v-1.386c0.265,0.06,0.564,0.09,0.9,0.09
			c0.456,0,0.819-0.078,1.089-0.234c0.271-0.155,0.483-0.443,0.64-0.863l0.252-0.648l-3.492-8.586h2.195l2.341,6.012h0.071
			l2.16-6.012h1.998l-3.582,9.522c-0.3,0.875-0.696,1.496-1.188,1.862C503.811,334.872,503.133,335.054,502.269,335.054z"/>
		<path d="M514.508,332.552c-1.403,0-2.487-0.404-3.249-1.215c-0.762-0.81-1.143-1.94-1.143-3.393v-0.288
			c0-1.464,0.401-2.613,1.206-3.447c0.804-0.834,1.872-1.251,3.204-1.251c1.392,0,2.469,0.405,3.23,1.215
			c0.762,0.811,1.144,1.953,1.144,3.43v0.252c0,1.464-0.402,2.612-1.206,3.446C516.89,332.136,515.828,332.552,514.508,332.552z
			 M514.544,330.987c1.464,0,2.196-0.984,2.196-2.952v-0.45c0-1.128-0.201-1.92-0.604-2.376c-0.401-0.456-0.951-0.684-1.646-0.684
			c-0.72,0-1.275,0.252-1.665,0.756c-0.391,0.504-0.585,1.248-0.585,2.231v0.433c0,1.116,0.204,1.902,0.612,2.357
			C513.26,330.759,513.824,330.987,514.544,330.987z"/>
		<path d="M521.042,332.391v-12.349h4.05c3.936,0,5.904,1.95,5.904,5.851v0.359c0,2.005-0.492,3.528-1.477,4.572
			c-0.983,1.044-2.454,1.566-4.409,1.566H521.042z M523.256,330.645h1.872c1.224,0,2.118-0.327,2.682-0.981
			c0.564-0.654,0.847-1.719,0.847-3.195v-0.594c0-1.487-0.307-2.541-0.918-3.159c-0.612-0.617-1.536-0.927-2.772-0.927h-1.71
			V330.645z"/>
	</g>
	<g clip-path="url(#SVGID_00000145759811339081170270000001820625933561973656_)">
		<g>
			<g>
				<g>
					<g>
						<g>
							<path fill="#94CFE6" d="M410.926,66.36c1.346,0.974,2.255,1.986,2.074,2.292c-0.172,0.313-1.521-0.032-3.004-0.765
								s-2.44-1.777-2.128-2.326C408.193,65.019,409.592,65.393,410.926,66.36z"/>
							<path fill="none" stroke="#FFFFFF" stroke-width="0.1172" stroke-miterlimit="10" d="M410.926,66.36
								c1.346,0.974,2.255,1.986,2.074,2.292c-0.172,0.313-1.521-0.032-3.004-0.765s-2.44-1.777-2.128-2.326
								C408.193,65.019,409.592,65.393,410.926,66.36z"/>
						</g>
					</g>
					<g>
						<g>
							<path fill="#94CFE6" d="M412.138,64.894c1.178,1.171,1.912,2.3,1.703,2.584c-0.232,0.265-1.5-0.272-2.849-1.213
								c-1.363-0.952-2.164-2.139-1.75-2.624C409.634,63.138,410.97,63.732,412.138,64.894z"/>
							<path fill="none" stroke="#FFFFFF" stroke-width="0.1172" stroke-miterlimit="10" d="M412.138,64.894
								c1.178,1.171,1.912,2.3,1.703,2.584c-0.232,0.265-1.5-0.272-2.849-1.213c-1.363-0.952-2.164-2.139-1.75-2.624
								C409.634,63.138,410.97,63.732,412.138,64.894z"/>
						</g>
					</g>
					<g>
						<g>
							<path fill="#94CFE6" d="M413.563,63.633c0.969,1.332,1.533,2.584,1.277,2.82c-0.276,0.213-1.423-0.491-2.621-1.642
								c-1.188-1.14-1.816-2.461-1.32-2.869C411.377,61.514,412.586,62.29,413.563,63.633z"/>
							<path fill="none" stroke="#FFFFFF" stroke-width="0.1172" stroke-miterlimit="10" d="M413.563,63.633
								c0.969,1.332,1.533,2.584,1.277,2.82c-0.276,0.213-1.423-0.491-2.621-1.642c-1.188-1.14-1.816-2.461-1.32-2.869
								C411.377,61.514,412.586,62.29,413.563,63.633z"/>
						</g>
					</g>
					<g>
						<g>
							<path fill="#94CFE6" d="M415.173,62.619c0.736,1.47,1.098,2.81,0.805,2.988c-0.3,0.168-1.319-0.712-2.321-2.041
								c-0.99-1.311-1.398-2.717-0.842-3.046C413.367,60.182,414.428,61.131,415.173,62.619z"/>
							<path fill="none" stroke="#FFFFFF" stroke-width="0.1172" stroke-miterlimit="10" d="M415.173,62.619
								c0.736,1.47,1.098,2.81,0.805,2.988c-0.3,0.168-1.319-0.712-2.321-2.041c-0.99-1.311-1.398-2.717-0.842-3.046
								C413.367,60.182,414.428,61.131,415.173,62.619z"/>
						</g>
					</g>
					<g>
						<g>
							<path fill="#94CFE6" d="M416.93,61.889c0.471,1.574,0.606,2.961,0.293,3.079c-0.313,0.121-1.176-0.927-1.946-2.4
								c-0.764-1.458-0.926-2.903-0.32-3.146C415.567,59.185,416.453,60.294,416.93,61.889z"/>
							<path fill="none" stroke="#FFFFFF" stroke-width="0.1172" stroke-miterlimit="10" d="M416.93,61.889
								c0.471,1.574,0.606,2.961,0.293,3.079c-0.313,0.121-1.176-0.927-1.946-2.4c-0.764-1.458-0.926-2.903-0.32-3.146
								C415.567,59.185,416.453,60.294,416.93,61.889z"/>
						</g>
					</g>
					<g>
						<g>
							<path fill="#94CFE6" d="M418.79,61.485c0.17,1.634,0.056,3.019-0.261,3.078c-0.317,0.062-0.981-1.123-1.487-2.706
								c-0.502-1.568-0.406-3.019,0.245-3.155C417.941,58.575,418.617,59.829,418.79,61.485z"/>
							<path fill="none" stroke="#FFFFFF" stroke-width="0.1172" stroke-miterlimit="10" d="M418.79,61.485
								c0.17,1.634,0.056,3.019-0.261,3.078c-0.317,0.062-0.981-1.123-1.487-2.706c-0.502-1.568-0.406-3.019,0.245-3.155
								C417.941,58.575,418.617,59.829,418.79,61.485z"/>
						</g>
					</g>
					<g>
						<g>
							<path fill="#94CFE6" d="M420.691,61.451c-0.17,1.634-0.548,2.959-0.853,2.964c-0.305-0.007-0.729-1.288-0.933-2.94
								c-0.203-1.631,0.169-3.049,0.852-3.05C420.442,58.418,420.862,59.795,420.691,61.451z"/>
							<path fill="none" stroke="#FFFFFF" stroke-width="0.1172" stroke-miterlimit="10" d="M420.691,61.451
								c-0.17,1.634-0.548,2.959-0.853,2.964c-0.305-0.007-0.729-1.288-0.933-2.94c-0.203-1.631,0.169-3.049,0.852-3.05
								C420.442,58.418,420.862,59.795,420.691,61.451z"/>
						</g>
					</g>
					<g>
						<g>
							<path fill="#94CFE6" d="M422.553,61.826c-0.54,1.559-1.187,2.752-1.47,2.706c-0.272-0.083-0.416-1.404-0.278-3.068
								c0.132-1.633,0.801-2.964,1.489-2.8C422.987,58.799,423.096,60.259,422.553,61.826z"/>
							<path fill="none" stroke="#FFFFFF" stroke-width="0.1172" stroke-miterlimit="10" d="M422.553,61.826
								c-0.54,1.559-1.187,2.752-1.47,2.706c-0.272-0.083-0.416-1.404-0.278-3.068c0.132-1.633,0.801-2.964,1.489-2.8
								C422.987,58.799,423.096,60.259,422.553,61.826z"/>
						</g>
					</g>
					<g>
						<g>
							<path fill="#94CFE6" d="M424.275,62.627c-0.902,1.382-1.815,2.38-2.066,2.282c-0.23-0.14-0.051-1.462,0.454-3.046
								c0.498-1.568,1.464-2.7,2.108-2.37C425.43,59.789,425.181,61.239,424.275,62.627z"/>
							<path fill="none" stroke="#FFFFFF" stroke-width="0.1172" stroke-miterlimit="10" d="M424.275,62.627
								c-0.902,1.382-1.815,2.38-2.066,2.282c-0.23-0.14-0.051-1.462,0.454-3.046c0.498-1.568,1.464-2.7,2.108-2.37
								C425.43,59.789,425.181,61.239,424.275,62.627z"/>
						</g>
					</g>
					<g>
						<g>
							<path fill="#94CFE6" d="M425.754,63.818c-0.592,0.578-1.19,1.035-1.646,1.337c-0.464,0.306-0.797,0.479-0.912,0.377
								c-0.195-0.202,0.301-1.42,1.175-2.842c0.856-1.397,2.088-2.266,2.621-1.792c0.26,0.22,0.28,0.67,0.049,1.201
								C426.807,62.637,426.346,63.24,425.754,63.818z"/>
							<path fill="none" stroke="#FFFFFF" stroke-width="0.1172" stroke-miterlimit="10" d="M425.754,63.818
								c-0.592,0.578-1.19,1.035-1.646,1.337c-0.464,0.306-0.797,0.479-0.912,0.377c-0.195-0.202,0.301-1.42,1.175-2.842
								c0.856-1.397,2.088-2.266,2.621-1.792c0.26,0.22,0.28,0.67,0.049,1.201C426.807,62.637,426.346,63.24,425.754,63.818z"/>
						</g>
					</g>
					<g>
						<g>
							<path fill="#94CFE6" d="M426.931,65.311c-1.406,0.86-2.687,1.338-2.881,1.105c-0.166-0.261,0.599-1.337,1.783-2.514
								c1.161-1.157,2.552-1.714,2.949-1.159C429.21,63.282,428.347,64.444,426.931,65.311z"/>
							<path fill="none" stroke="#FFFFFF" stroke-width="0.1172" stroke-miterlimit="10" d="M426.931,65.311
								c-1.406,0.86-2.687,1.338-2.881,1.105c-0.166-0.261,0.599-1.337,1.783-2.514c1.161-1.157,2.552-1.714,2.949-1.159
								C429.21,63.282,428.347,64.444,426.931,65.311z"/>
						</g>
					</g>
					<g>
						<g>
							<path fill="#94CFE6" d="M427.8,67.003c-1.535,0.601-2.888,0.83-3.045,0.537c-0.13-0.312,0.834-1.228,2.237-2.13
								c1.379-0.89,2.837-1.163,3.111-0.57C430.404,65.424,429.345,66.397,427.8,67.003z"/>
							<path fill="none" stroke="#FFFFFF" stroke-width="0.1172" stroke-miterlimit="10" d="M427.8,67.003
								c-1.535,0.601-2.888,0.83-3.045,0.537c-0.13-0.312,0.834-1.228,2.237-2.13c1.379-0.89,2.837-1.163,3.111-0.57
								C430.404,65.424,429.345,66.397,427.8,67.003z"/>
						</g>
					</g>
					<g>
						<g>
							<path fill="#94CFE6" d="M428.379,68.816c-1.608,0.36-2.985,0.369-3.096,0.033c-0.087-0.347,1.02-1.101,2.559-1.738
								c1.517-0.63,2.987-0.662,3.157-0.052C431.193,67.663,429.999,68.452,428.379,68.816z"/>
							<path fill="none" stroke="#FFFFFF" stroke-width="0.1172" stroke-miterlimit="10" d="M428.379,68.816
								c-1.608,0.36-2.985,0.369-3.096,0.033c-0.087-0.347,1.02-1.101,2.559-1.738c1.517-0.63,2.987-0.662,3.157-0.052
								C431.193,67.663,429.999,68.452,428.379,68.816z"/>
						</g>
					</g>
					<g>
						<g>
							<path fill="#94CFE6" d="M428.685,70.694c-1.643,0.129-3.008-0.06-3.07-0.419c-0.04-0.363,1.17-0.956,2.788-1.346
								c1.598-0.387,3.047-0.209,3.129,0.41C431.633,69.955,430.341,70.564,428.685,70.694z"/>
							<path fill="none" stroke="#FFFFFF" stroke-width="0.1172" stroke-miterlimit="10" d="M428.685,70.694
								c-1.643,0.129-3.008-0.06-3.07-0.419c-0.04-0.363,1.17-0.956,2.788-1.346c1.598-0.387,3.047-0.209,3.129,0.41
								C431.633,69.955,430.341,70.564,428.685,70.694z"/>
						</g>
					</g>
					<g>
						<g>
							<path fill="#94CFE6" d="M428.719,72.597c-1.647-0.114-2.965-0.49-2.977-0.851c0.013-0.36,1.294-0.782,2.951-0.936
								c1.636-0.154,3.046,0.22,3.039,0.85C431.747,72.287,430.373,72.712,428.719,72.597z"/>
							<path fill="none" stroke="#FFFFFF" stroke-width="0.1172" stroke-miterlimit="10" d="M428.719,72.597
								c-1.647-0.114-2.965-0.49-2.977-0.851c0.013-0.36,1.294-0.782,2.951-0.936c1.636-0.154,3.046,0.22,3.039,0.85
								C431.747,72.287,430.373,72.712,428.719,72.597z"/>
						</g>
					</g>
					<g>
						<g>
							<path fill="#94CFE6" d="M428.456,74.481c-1.611-0.409-2.833-0.965-2.801-1.305c0.062-0.328,1.399-0.553,3.057-0.464
								c1.646,0.088,2.978,0.668,2.873,1.316C431.508,74.673,430.053,74.887,428.456,74.481z"/>
							<path fill="none" stroke="#FFFFFF" stroke-width="0.1172" stroke-miterlimit="10" d="M428.456,74.481
								c-1.611-0.409-2.833-0.965-2.801-1.305c0.062-0.328,1.399-0.553,3.057-0.464c1.646,0.088,2.978,0.668,2.873,1.316
								C431.508,74.673,430.053,74.887,428.456,74.481z"/>
						</g>
					</g>
					<g>
						<g>
							<path fill="#94CFE6" d="M427.828,76.275c-1.457-0.766-2.57-1.585-2.469-1.837c0.045-0.15,0.409-0.18,0.971-0.152
								c0.552,0.025,1.297,0.111,2.102,0.308c0.802,0.197,1.509,0.48,1.982,0.819c0.463,0.336,0.69,0.732,0.583,1.053
								C430.741,77.134,429.299,77.049,427.828,76.275z"/>
							<path fill="none" stroke="#FFFFFF" stroke-width="0.1172" stroke-miterlimit="10" d="M427.828,76.275
								c-1.457-0.766-2.57-1.585-2.469-1.837c0.045-0.15,0.409-0.18,0.971-0.152c0.552,0.025,1.297,0.111,2.102,0.308
								c0.802,0.197,1.509,0.48,1.982,0.819c0.463,0.336,0.69,0.732,0.583,1.053C430.741,77.134,429.299,77.049,427.828,76.275z"/>
						</g>
					</g>
					<g>
						<g>
							<path fill="#94CFE6" d="M426.781,77.862c-1.262-1.077-2.101-2.157-1.948-2.393c0.167-0.224,1.446,0.178,2.94,0.908
								c1.48,0.721,2.431,1.86,2.025,2.444C429.403,79.407,428.033,78.933,426.781,77.862z"/>
							<path fill="none" stroke="#FFFFFF" stroke-width="0.1172" stroke-miterlimit="10" d="M426.781,77.862
								c-1.262-1.077-2.101-2.157-1.948-2.393c0.167-0.224,1.446,0.178,2.94,0.908c1.48,0.721,2.431,1.86,2.025,2.444
								C429.403,79.407,428.033,78.933,426.781,77.862z"/>
						</g>
					</g>
					<g>
						<g>
							<path fill="#94CFE6" d="M425.476,79.249c-1.169-1.174-1.82-2.409-1.538-2.707c0.292-0.295,1.479,0.359,2.767,1.407
								c1.28,1.041,1.966,2.322,1.564,2.732C427.871,81.099,426.641,80.419,425.476,79.249z"/>
							<path fill="none" stroke="#FFFFFF" stroke-width="0.1172" stroke-miterlimit="10" d="M425.476,79.249
								c-1.169-1.174-1.82-2.409-1.538-2.707c0.292-0.295,1.479,0.359,2.767,1.407c1.28,1.041,1.966,2.322,1.564,2.732
								C427.871,81.099,426.641,80.419,425.476,79.249z"/>
						</g>
					</g>
					<g>
						<g>
							<path fill="#94CFE6" d="M424.139,80.607c-1.222-1.111-1.888-2.375-1.509-2.752c0.38-0.385,1.595,0.306,2.763,1.475
								c1.171,1.171,1.809,2.419,1.496,2.738C426.566,82.389,425.366,81.722,424.139,80.607z"/>
							<path fill="none" stroke="#FFFFFF" stroke-width="0.1172" stroke-miterlimit="10" d="M424.139,80.607
								c-1.222-1.111-1.888-2.375-1.509-2.752c0.38-0.385,1.595,0.306,2.763,1.475c1.171,1.171,1.809,2.419,1.496,2.738
								C426.566,82.389,425.366,81.722,424.139,80.607z"/>
						</g>
					</g>
					<g>
						<g>
							<path fill="#94CFE6" d="M422.915,82.066c-1.342-0.978-2.122-2.151-1.747-2.622c0.387-0.448,1.681,0.113,2.892,1.247
								c1.204,1.128,1.969,2.292,1.708,2.59C425.531,83.586,424.248,83.037,422.915,82.066z"/>
							<path fill="none" stroke="#FFFFFF" stroke-width="0.1172" stroke-miterlimit="10" d="M422.915,82.066
								c-1.342-0.978-2.122-2.151-1.747-2.622c0.387-0.448,1.681,0.113,2.892,1.247c1.204,1.128,1.969,2.292,1.708,2.59
								C425.531,83.586,424.248,83.037,422.915,82.066z"/>
						</g>
					</g>
					<g>
						<g>
							<path fill="#94CFE6" d="M421.876,83.662c-1.452-0.809-2.372-1.88-2.049-2.392c0.327-0.509,1.702-0.098,3.021,0.891
								c1.328,0.994,2.213,2.042,2.007,2.365C424.653,84.851,423.315,84.464,421.876,83.662z"/>
							<path fill="none" stroke="#FFFFFF" stroke-width="0.1172" stroke-miterlimit="10" d="M421.876,83.662
								c-1.452-0.809-2.372-1.88-2.049-2.392c0.327-0.509,1.702-0.098,3.021,0.891c1.328,0.994,2.213,2.042,2.007,2.365
								C424.653,84.851,423.315,84.464,421.876,83.662z"/>
						</g>
					</g>
					<g>
						<g>
							<path fill="#94CFE6" d="M421.026,85.366c-1.528-0.646-2.571-1.608-2.31-2.14c0.268-0.531,1.674-0.285,3.105,0.538
								c1.437,0.826,2.442,1.767,2.265,2.118C423.912,86.237,422.546,86.009,421.026,85.366z"/>
							<path fill="none" stroke="#FFFFFF" stroke-width="0.1172" stroke-miterlimit="10" d="M421.026,85.366
								c-1.528-0.646-2.571-1.608-2.31-2.14c0.268-0.531,1.674-0.285,3.105,0.538c1.437,0.826,2.442,1.767,2.265,2.118
								C423.912,86.237,422.546,86.009,421.026,85.366z"/>
						</g>
					</g>
					<g>
						<g>
							<path fill="#94CFE6" d="M420.36,87.151c-1.578-0.48-2.729-1.329-2.52-1.882c0.2-0.556,1.626-0.457,3.141,0.204
								c1.517,0.663,2.613,1.492,2.48,1.867C423.318,87.711,421.947,87.634,420.36,87.151z"/>
							<path fill="none" stroke="#FFFFFF" stroke-width="0.1172" stroke-miterlimit="10" d="M420.36,87.151
								c-1.578-0.48-2.729-1.329-2.52-1.882c0.2-0.556,1.626-0.457,3.141,0.204c1.517,0.663,2.613,1.492,2.48,1.867
								C423.318,87.711,421.947,87.634,420.36,87.151z"/>
						</g>
					</g>
					<g>
						<g>
							<path fill="#94CFE6" d="M419.883,88.995c-1.623-0.322-2.847-1.047-2.701-1.614c0.147-0.568,1.567-0.619,3.142-0.12
								c1.58,0.5,2.762,1.215,2.662,1.604C422.885,89.255,421.505,89.317,419.883,88.995z"/>
							<path fill="none" stroke="#FFFFFF" stroke-width="0.1172" stroke-miterlimit="10" d="M419.883,88.995
								c-1.623-0.322-2.847-1.047-2.701-1.614c0.147-0.568,1.567-0.619,3.142-0.12c1.58,0.5,2.762,1.215,2.662,1.604
								C422.885,89.255,421.505,89.317,419.883,88.995z"/>
						</g>
					</g>
					<g>
						<g>
							<path fill="#94CFE6" d="M419.585,90.876c-1.649-0.17-2.928-0.773-2.844-1.346c0.094-0.573,1.496-0.762,3.119-0.422
								c1.616,0.338,2.868,0.937,2.801,1.339C422.602,90.852,421.227,91.045,419.585,90.876z"/>
							<path fill="none" stroke="#FFFFFF" stroke-width="0.1172" stroke-miterlimit="10" d="M419.585,90.876
								c-1.649-0.17-2.928-0.773-2.844-1.346c0.094-0.573,1.496-0.762,3.119-0.422c1.616,0.338,2.868,0.937,2.801,1.339
								C422.602,90.852,421.227,91.045,419.585,90.876z"/>
						</g>
					</g>
					<g>
						<g>
							<path fill="#94CFE6" d="M419.457,92.776c-1.656-0.03-2.985-0.515-2.951-1.086c0.039-0.572,1.421-0.886,3.067-0.699
								c1.642,0.186,2.94,0.669,2.912,1.084C422.46,92.49,421.109,92.806,419.457,92.776z"/>
							<path fill="none" stroke="#FFFFFF" stroke-width="0.1172" stroke-miterlimit="10" d="M419.457,92.776
								c-1.656-0.03-2.985-0.515-2.951-1.086c0.039-0.572,1.421-0.886,3.067-0.699c1.642,0.186,2.94,0.669,2.912,1.084
								C422.46,92.49,421.109,92.806,419.457,92.776z"/>
						</g>
					</g>
					<g>
						<g>
							<path fill="#94CFE6" d="M419.484,94.681c-1.65,0.097-3.017-0.278-3.026-0.842c-0.009-0.566,1.341-0.991,2.997-0.947
								c1.652,0.044,2.986,0.42,2.993,0.843C422.454,94.159,421.137,94.584,419.484,94.681z"/>
							<path fill="none" stroke="#FFFFFF" stroke-width="0.1172" stroke-miterlimit="10" d="M419.484,94.681
								c-1.65,0.097-3.017-0.278-3.026-0.842c-0.009-0.566,1.341-0.991,2.997-0.947c1.652,0.044,2.986,0.42,2.993,0.843
								C422.454,94.159,421.137,94.584,419.484,94.681z"/>
						</g>
					</g>
				</g>
			</g>
		</g>
		<g>
			<g>
				<g>
					<g>
						<g>
							<path fill="#94CFE6" d="M439.181,66.36c1.334-0.967,2.733-1.34,3.058-0.798c0.312,0.549-0.645,1.593-2.128,2.326
								c-1.483,0.733-2.832,1.078-3.004,0.765C436.926,68.346,437.836,67.334,439.181,66.36z"/>
							<path fill="none" stroke="#FFFFFF" stroke-width="0.1172" stroke-miterlimit="10" d="M439.181,66.36
								c1.334-0.967,2.733-1.34,3.058-0.798c0.312,0.549-0.645,1.593-2.128,2.326c-1.483,0.733-2.832,1.078-3.004,0.765
								C436.926,68.346,437.836,67.334,439.181,66.36z"/>
						</g>
					</g>
					<g>
						<g>
							<path fill="#94CFE6" d="M437.969,64.894c1.168-1.162,2.504-1.755,2.897-1.254c0.414,0.485-0.387,1.672-1.75,2.624
								c-1.349,0.942-2.617,1.478-2.849,1.213C436.057,67.194,436.791,66.064,437.969,64.894z"/>
							<path fill="none" stroke="#FFFFFF" stroke-width="0.1172" stroke-miterlimit="10" d="M437.969,64.894
								c1.168-1.162,2.504-1.755,2.897-1.254c0.414,0.485-0.387,1.672-1.75,2.624c-1.349,0.942-2.617,1.478-2.849,1.213
								C436.057,67.194,436.791,66.064,437.969,64.894z"/>
						</g>
					</g>
					<g>
						<g>
							<path fill="#94CFE6" d="M436.544,63.633c0.978-1.343,2.187-2.119,2.664-1.692c0.496,0.408-0.132,1.729-1.32,2.869
								c-1.198,1.151-2.345,1.855-2.621,1.642C435.011,66.217,435.575,64.965,436.544,63.633z"/>
							<path fill="none" stroke="#FFFFFF" stroke-width="0.1172" stroke-miterlimit="10" d="M436.544,63.633
								c0.978-1.343,2.187-2.119,2.664-1.692c0.496,0.408-0.132,1.729-1.32,2.869c-1.198,1.151-2.345,1.855-2.621,1.642
								C435.011,66.217,435.575,64.965,436.544,63.633z"/>
						</g>
					</g>
					<g>
						<g>
							<path fill="#94CFE6" d="M434.934,62.619c0.745-1.488,1.807-2.436,2.358-2.099c0.556,0.329,0.148,1.735-0.842,3.046
								c-1.002,1.33-2.022,2.209-2.321,2.041C433.836,65.428,434.198,64.089,434.934,62.619z"/>
							<path fill="none" stroke="#FFFFFF" stroke-width="0.1172" stroke-miterlimit="10" d="M434.934,62.619
								c0.745-1.488,1.807-2.436,2.358-2.099c0.556,0.329,0.148,1.735-0.842,3.046c-1.002,1.33-2.022,2.209-2.321,2.041
								C433.836,65.428,434.198,64.089,434.934,62.619z"/>
						</g>
					</g>
					<g>
						<g>
							<path fill="#94CFE6" d="M433.177,61.889c0.478-1.595,1.364-2.704,1.974-2.467c0.606,0.243,0.443,1.688-0.32,3.146
								c-0.77,1.473-1.633,2.521-1.946,2.4C432.571,64.85,432.706,63.463,433.177,61.889z"/>
							<path fill="none" stroke="#FFFFFF" stroke-width="0.1172" stroke-miterlimit="10" d="M433.177,61.889
								c0.478-1.595,1.364-2.704,1.974-2.467c0.606,0.243,0.443,1.688-0.32,3.146c-0.77,1.473-1.633,2.521-1.946,2.4
								C432.571,64.85,432.706,63.463,433.177,61.889z"/>
						</g>
					</g>
					<g>
						<g>
							<path fill="#94CFE6" d="M431.318,61.485c0.173-1.657,0.849-2.91,1.503-2.782c0.65,0.136,0.746,1.587,0.245,3.155
								c-0.505,1.583-1.17,2.768-1.487,2.706C431.262,64.505,431.148,63.119,431.318,61.485z"/>
							<path fill="none" stroke="#FFFFFF" stroke-width="0.1172" stroke-miterlimit="10" d="M431.318,61.485
								c0.173-1.657,0.849-2.91,1.503-2.782c0.65,0.136,0.746,1.587,0.245,3.155c-0.505,1.583-1.17,2.768-1.487,2.706
								C431.262,64.505,431.148,63.119,431.318,61.485z"/>
						</g>
					</g>
					<g>
						<g>
							<path fill="#94CFE6" d="M429.417,61.451c-0.171-1.656,0.249-3.033,0.934-3.026c0.683,0.001,1.055,1.419,0.852,3.05
								c-0.204,1.652-0.627,2.933-0.933,2.94C429.965,64.411,429.586,63.086,429.417,61.451z"/>
							<path fill="none" stroke="#FFFFFF" stroke-width="0.1172" stroke-miterlimit="10" d="M429.417,61.451
								c-0.171-1.656,0.249-3.033,0.934-3.026c0.683,0.001,1.055,1.419,0.852,3.05c-0.204,1.652-0.627,2.933-0.933,2.94
								C429.965,64.411,429.586,63.086,429.417,61.451z"/>
						</g>
					</g>
					<g>
						<g>
							<path fill="#94CFE6" d="M427.554,61.826c-0.542-1.567-0.433-3.027,0.259-3.161c0.688-0.164,1.357,1.167,1.489,2.8
								c0.137,1.664-0.007,2.985-0.278,3.068C428.741,64.578,428.094,63.385,427.554,61.826z"/>
							<path fill="none" stroke="#FFFFFF" stroke-width="0.1172" stroke-miterlimit="10" d="M427.554,61.826
								c-0.542-1.567-0.433-3.027,0.259-3.161c0.688-0.164,1.357,1.167,1.489,2.8c0.137,1.664-0.007,2.985-0.278,3.068
								C428.741,64.578,428.094,63.385,427.554,61.826z"/>
						</g>
					</g>
					<g>
						<g>
							<path fill="#94CFE6" d="M425.832,62.627c-0.906-1.388-1.155-2.838-0.496-3.134c0.644-0.33,1.61,0.802,2.108,2.37
								c0.504,1.584,0.684,2.906,0.454,3.046C427.647,65.007,426.735,64.009,425.832,62.627z"/>
							<path fill="none" stroke="#FFFFFF" stroke-width="0.1172" stroke-miterlimit="10" d="M425.832,62.627
								c-0.906-1.388-1.155-2.838-0.496-3.134c0.644-0.33,1.61,0.802,2.108,2.37c0.504,1.584,0.684,2.906,0.454,3.046
								C427.647,65.007,426.735,64.009,425.832,62.627z"/>
						</g>
					</g>
					<g>
						<g>
							<path fill="#94CFE6" d="M424.353,63.818c-0.592-0.578-1.053-1.181-1.287-1.719c-0.231-0.531-0.211-0.98,0.049-1.201
								c0.532-0.473,1.765,0.395,2.621,1.792c0.875,1.423,1.371,2.641,1.175,2.842c-0.115,0.102-0.448-0.072-0.912-0.377
								C425.543,64.853,424.945,64.396,424.353,63.818z"/>
							<path fill="none" stroke="#FFFFFF" stroke-width="0.1172" stroke-miterlimit="10" d="M424.353,63.818
								c-0.592-0.578-1.053-1.181-1.287-1.719c-0.231-0.531-0.211-0.98,0.049-1.201c0.532-0.473,1.765,0.395,2.621,1.792
								c0.875,1.423,1.371,2.641,1.175,2.842c-0.115,0.102-0.448-0.072-0.912-0.377C425.543,64.853,424.945,64.396,424.353,63.818z"
								/>
						</g>
					</g>
					<g>
						<g>
							<path fill="#94CFE6" d="M423.176,65.311c-1.416-0.866-2.279-2.028-1.852-2.568c0.397-0.555,1.788,0.002,2.949,1.159
								c1.184,1.177,1.949,2.253,1.783,2.514C425.863,66.648,424.582,66.17,423.176,65.311z"/>
							<path fill="none" stroke="#FFFFFF" stroke-width="0.1172" stroke-miterlimit="10" d="M423.176,65.311
								c-1.416-0.866-2.279-2.028-1.852-2.568c0.397-0.555,1.788,0.002,2.949,1.159c1.184,1.177,1.949,2.253,1.783,2.514
								C425.863,66.648,424.582,66.17,423.176,65.311z"/>
						</g>
					</g>
					<g>
						<g>
							<path fill="#94CFE6" d="M422.307,67.003c-1.546-0.605-2.604-1.579-2.303-2.164c0.273-0.593,1.732-0.319,3.111,0.57
								c1.402,0.902,2.367,1.818,2.237,2.13C425.196,67.832,423.842,67.603,422.307,67.003z"/>
							<path fill="none" stroke="#FFFFFF" stroke-width="0.1172" stroke-miterlimit="10" d="M422.307,67.003
								c-1.546-0.605-2.604-1.579-2.303-2.164c0.273-0.593,1.732-0.319,3.111,0.57c1.402,0.902,2.367,1.818,2.237,2.13
								C425.196,67.832,423.842,67.603,422.307,67.003z"/>
						</g>
					</g>
					<g>
						<g>
							<path fill="#94CFE6" d="M421.729,68.816c-1.621-0.363-2.814-1.152-2.621-1.757c0.17-0.609,1.641-0.577,3.157,0.052
								c1.54,0.637,2.646,1.391,2.559,1.738C424.714,69.185,423.336,69.176,421.729,68.816z"/>
							<path fill="none" stroke="#FFFFFF" stroke-width="0.1172" stroke-miterlimit="10" d="M421.729,68.816
								c-1.621-0.363-2.814-1.152-2.621-1.757c0.17-0.609,1.641-0.577,3.157,0.052c1.54,0.637,2.646,1.391,2.559,1.738
								C424.714,69.185,423.336,69.176,421.729,68.816z"/>
						</g>
					</g>
					<g>
						<g>
							<path fill="#94CFE6" d="M421.422,70.694c-1.656-0.13-2.948-0.739-2.847-1.356c0.082-0.619,1.531-0.797,3.129-0.41
								c1.618,0.391,2.829,0.983,2.788,1.346C424.43,70.634,423.065,70.823,421.422,70.694z"/>
							<path fill="none" stroke="#FFFFFF" stroke-width="0.1172" stroke-miterlimit="10" d="M421.422,70.694
								c-1.656-0.13-2.948-0.739-2.847-1.356c0.082-0.619,1.531-0.797,3.129-0.41c1.618,0.391,2.829,0.983,2.788,1.346
								C424.43,70.634,423.065,70.823,421.422,70.694z"/>
						</g>
					</g>
					<g>
						<g>
							<path fill="#94CFE6" d="M421.388,72.597c-1.654,0.114-3.028-0.31-3.013-0.937c-0.008-0.63,1.402-1.004,3.039-0.85
								c1.658,0.154,2.938,0.577,2.951,0.936C424.353,72.107,423.035,72.483,421.388,72.597z"/>
							<path fill="none" stroke="#FFFFFF" stroke-width="0.1172" stroke-miterlimit="10" d="M421.388,72.597
								c-1.654,0.114-3.028-0.31-3.013-0.937c-0.008-0.63,1.402-1.004,3.039-0.85c1.658,0.154,2.938,0.577,2.951,0.936
								C424.353,72.107,423.035,72.483,421.388,72.597z"/>
						</g>
					</g>
					<g>
						<g>
							<path fill="#94CFE6" d="M421.651,74.481c-1.597,0.406-3.051,0.191-3.129-0.453c-0.105-0.648,1.227-1.228,2.873-1.316
								c1.657-0.089,2.995,0.135,3.057,0.464C424.484,73.516,423.262,74.072,421.651,74.481z"/>
							<path fill="none" stroke="#FFFFFF" stroke-width="0.1172" stroke-miterlimit="10" d="M421.651,74.481
								c-1.597,0.406-3.051,0.191-3.129-0.453c-0.105-0.648,1.227-1.228,2.873-1.316c1.657-0.089,2.995,0.135,3.057,0.464
								C424.484,73.516,423.262,74.072,421.651,74.481z"/>
						</g>
					</g>
					<g>
						<g>
							<path fill="#94CFE6" d="M422.279,76.275c-1.471,0.774-2.913,0.86-3.168,0.19c-0.106-0.321,0.121-0.716,0.583-1.053
								c0.472-0.338,1.179-0.622,1.982-0.819c0.804-0.197,1.549-0.284,2.102-0.308c0.562-0.028,0.926,0.002,0.971,0.152
								C424.85,74.689,423.736,75.508,422.279,76.275z"/>
							<path fill="none" stroke="#FFFFFF" stroke-width="0.1172" stroke-miterlimit="10" d="M422.279,76.275
								c-1.471,0.774-2.913,0.86-3.168,0.19c-0.106-0.321,0.121-0.716,0.583-1.053c0.472-0.338,1.179-0.622,1.982-0.819
								c0.804-0.197,1.549-0.284,2.102-0.308c0.562-0.028,0.926,0.002,0.971,0.152C424.85,74.689,423.736,75.508,422.279,76.275z"/>
						</g>
					</g>
					<g>
						<g>
							<path fill="#94CFE6" d="M423.326,77.862c-1.252,1.071-2.622,1.545-3.017,0.959c-0.406-0.584,0.545-1.723,2.025-2.444
								c1.494-0.73,2.773-1.132,2.94-0.908C425.427,75.705,424.588,76.785,423.326,77.862z"/>
							<path fill="none" stroke="#FFFFFF" stroke-width="0.1172" stroke-miterlimit="10" d="M423.326,77.862
								c-1.252,1.071-2.622,1.545-3.017,0.959c-0.406-0.584,0.545-1.723,2.025-2.444c1.494-0.73,2.773-1.132,2.94-0.908
								C425.427,75.705,424.588,76.785,423.326,77.862z"/>
						</g>
					</g>
					<g>
						<g>
							<path fill="#94CFE6" d="M424.632,79.249c-1.165,1.17-2.395,1.85-2.794,1.432c-0.402-0.41,0.284-1.691,1.564-2.732
								c1.288-1.048,2.475-1.702,2.767-1.407C426.452,76.84,425.801,78.075,424.632,79.249z"/>
							<path fill="none" stroke="#FFFFFF" stroke-width="0.1172" stroke-miterlimit="10" d="M424.632,79.249
								c-1.165,1.17-2.395,1.85-2.794,1.432c-0.402-0.41,0.284-1.691,1.564-2.732c1.288-1.048,2.475-1.702,2.767-1.407
								C426.452,76.84,425.801,78.075,424.632,79.249z"/>
						</g>
					</g>
					<g>
						<g>
							<path fill="#94CFE6" d="M425.968,80.607c-1.226,1.115-2.427,1.781-2.75,1.461c-0.314-0.319,0.325-1.568,1.496-2.738
								c1.169-1.169,2.384-1.86,2.763-1.475C427.856,78.232,427.19,79.496,425.968,80.607z"/>
							<path fill="none" stroke="#FFFFFF" stroke-width="0.1172" stroke-miterlimit="10" d="M425.968,80.607
								c-1.226,1.115-2.427,1.781-2.75,1.461c-0.314-0.319,0.325-1.568,1.496-2.738c1.169-1.169,2.384-1.86,2.763-1.475
								C427.856,78.232,427.19,79.496,425.968,80.607z"/>
						</g>
					</g>
					<g>
						<g>
							<path fill="#94CFE6" d="M427.192,82.066c-1.332,0.97-2.616,1.52-2.853,1.216c-0.261-0.298,0.505-1.463,1.708-2.59
								c1.211-1.134,2.504-1.696,2.892-1.247C429.314,79.915,428.534,81.089,427.192,82.066z"/>
							<path fill="none" stroke="#FFFFFF" stroke-width="0.1172" stroke-miterlimit="10" d="M427.192,82.066
								c-1.332,0.97-2.616,1.52-2.853,1.216c-0.261-0.298,0.505-1.463,1.708-2.59c1.211-1.134,2.504-1.696,2.892-1.247
								C429.314,79.915,428.534,81.089,427.192,82.066z"/>
						</g>
					</g>
					<g>
						<g>
							<path fill="#94CFE6" d="M428.231,83.662c-1.439,0.801-2.777,1.188-2.98,0.863c-0.206-0.323,0.679-1.371,2.007-2.365
								c1.32-0.989,2.694-1.4,3.021-0.891C430.603,81.782,429.682,82.854,428.231,83.662z"/>
							<path fill="none" stroke="#FFFFFF" stroke-width="0.1172" stroke-miterlimit="10" d="M428.231,83.662
								c-1.439,0.801-2.777,1.188-2.98,0.863c-0.206-0.323,0.679-1.371,2.007-2.365c1.32-0.989,2.694-1.4,3.021-0.891
								C430.603,81.782,429.682,82.854,428.231,83.662z"/>
						</g>
					</g>
					<g>
						<g>
							<path fill="#94CFE6" d="M429.081,85.366c-1.52,0.642-2.886,0.871-3.06,0.516c-0.177-0.351,0.828-1.292,2.265-2.118
								c1.431-0.823,2.837-1.069,3.105-0.538C431.652,83.759,430.609,84.72,429.081,85.366z"/>
							<path fill="none" stroke="#FFFFFF" stroke-width="0.1172" stroke-miterlimit="10" d="M429.081,85.366
								c-1.52,0.642-2.886,0.871-3.06,0.516c-0.177-0.351,0.828-1.292,2.265-2.118c1.431-0.823,2.837-1.069,3.105-0.538
								C431.652,83.759,430.609,84.72,429.081,85.366z"/>
						</g>
					</g>
					<g>
						<g>
							<path fill="#94CFE6" d="M429.747,87.151c-1.587,0.483-2.958,0.561-3.101,0.189c-0.133-0.375,0.963-1.205,2.48-1.867
								c1.515-0.661,2.941-0.76,3.141-0.204C432.476,85.821,431.325,86.671,429.747,87.151z"/>
							<path fill="none" stroke="#FFFFFF" stroke-width="0.1172" stroke-miterlimit="10" d="M429.747,87.151
								c-1.587,0.483-2.958,0.561-3.101,0.189c-0.133-0.375,0.963-1.205,2.48-1.867c1.515-0.661,2.941-0.76,3.141-0.204
								C432.476,85.821,431.325,86.671,429.747,87.151z"/>
						</g>
					</g>
					<g>
						<g>
							<path fill="#94CFE6" d="M430.224,88.995c-1.622,0.322-3.002,0.26-3.103-0.13c-0.1-0.389,1.082-1.104,2.662-1.604
								c1.574-0.499,2.995-0.448,3.142,0.12C433.071,87.948,431.847,88.672,430.224,88.995z"/>
							<path fill="none" stroke="#FFFFFF" stroke-width="0.1172" stroke-miterlimit="10" d="M430.224,88.995
								c-1.622,0.322-3.002,0.26-3.103-0.13c-0.1-0.389,1.082-1.104,2.662-1.604c1.574-0.499,2.995-0.448,3.142,0.12
								C433.071,87.948,431.847,88.672,430.224,88.995z"/>
						</g>
					</g>
					<g>
						<g>
							<path fill="#94CFE6" d="M430.522,90.876c-1.642,0.17-3.017-0.024-3.076-0.429c-0.067-0.402,1.185-1.001,2.801-1.339
								c1.623-0.34,3.025-0.151,3.119,0.422C433.451,90.103,432.171,90.705,430.522,90.876z"/>
							<path fill="none" stroke="#FFFFFF" stroke-width="0.1172" stroke-miterlimit="10" d="M430.522,90.876
								c-1.642,0.17-3.017-0.024-3.076-0.429c-0.067-0.402,1.185-1.001,2.801-1.339c1.623-0.34,3.025-0.151,3.119,0.422
								C433.451,90.103,432.171,90.705,430.522,90.876z"/>
						</g>
					</g>
					<g>
						<g>
							<path fill="#94CFE6" d="M430.65,92.776c-1.652,0.029-3.003-0.286-3.027-0.702c-0.028-0.414,1.27-0.897,2.912-1.084
								c1.646-0.186,3.028,0.127,3.067,0.699C433.635,92.262,432.306,92.747,430.65,92.776z"/>
							<path fill="none" stroke="#FFFFFF" stroke-width="0.1172" stroke-miterlimit="10" d="M430.65,92.776
								c-1.652,0.029-3.003-0.286-3.027-0.702c-0.028-0.414,1.27-0.897,2.912-1.084c1.646-0.186,3.028,0.127,3.067,0.699
								C433.635,92.262,432.306,92.747,430.65,92.776z"/>
						</g>
					</g>
					<g>
						<g>
							<path fill="#94CFE6" d="M430.624,94.681c-1.653-0.097-2.97-0.523-2.964-0.946c0.007-0.423,1.341-0.799,2.993-0.843
								c1.655-0.044,3.006,0.381,2.997,0.947C433.64,94.404,432.273,94.778,430.624,94.681z"/>
							<path fill="none" stroke="#FFFFFF" stroke-width="0.1172" stroke-miterlimit="10" d="M430.624,94.681
								c-1.653-0.097-2.97-0.523-2.964-0.946c0.007-0.423,1.341-0.799,2.993-0.843c1.655-0.044,3.006,0.381,2.997,0.947
								C433.64,94.404,432.273,94.778,430.624,94.681z"/>
						</g>
					</g>
				</g>
			</g>
		</g>
		<path fill="#B693BD" stroke="#595857" stroke-width="0.2489" stroke-miterlimit="10" d="M423.623,107.081l-2.664,0.507
			c-1.061,0.202-2.094-0.501-2.295-1.562l-1.606-8.446c-0.202-1.061,0.501-2.094,1.562-2.295l2.664-0.507
			c1.061-0.202,2.094,0.501,2.295,1.562l1.606,8.446C425.387,105.846,424.684,106.879,423.623,107.081z"/>
		<path fill="#B693BD" stroke="#595857" stroke-width="0.2489" stroke-miterlimit="10" d="M427.4,107.081l2.664,0.507
			c1.061,0.202,2.094-0.501,2.295-1.562l1.606-8.446c0.202-1.061-0.501-2.094-1.562-2.295l-2.664-0.507
			c-1.061-0.202-2.094,0.501-2.295,1.562l-1.606,8.446C425.636,105.846,426.339,106.879,427.4,107.081z"/>
		<g>
			<path fill="#92C496" stroke="#595857" stroke-width="0.2489" stroke-miterlimit="10" d="M421.692,120.65l-2.816,0.757
				c-1.121,0.302-2.286-0.369-2.587-1.49l-0.757-2.816c-0.302-1.121,0.369-2.286,1.49-2.587l2.816-0.757
				c1.121-0.302,2.286,0.369,2.587,1.49l0.757,2.816C423.484,119.184,422.814,120.348,421.692,120.65z"/>
			<path fill="#92C496" stroke="#595857" stroke-width="0.2489" stroke-miterlimit="10" d="M424.424,114.429l-2.865,0.545
				c-1.141,0.217-2.252-0.539-2.468-1.68l-0.545-2.865c-0.217-1.141,0.539-2.252,1.68-2.468l2.865-0.545
				c1.141-0.217,2.252,0.539,2.468,1.68l0.545,2.865C426.32,113.101,425.565,114.212,424.424,114.429z"/>
		</g>
		<path fill="#92C496" stroke="#595857" stroke-width="0.2489" stroke-miterlimit="10" d="M429.916,120.65l2.816,0.757
			c1.121,0.302,2.286-0.369,2.587-1.49l0.757-2.816c0.302-1.121-0.369-2.286-1.49-2.587l-2.816-0.757
			c-1.121-0.302-2.286,0.369-2.587,1.49l-0.757,2.816C428.124,119.184,428.795,120.348,429.916,120.65z"/>
		<path fill="#92C496" stroke="#595857" stroke-width="0.2489" stroke-miterlimit="10" d="M427.802,114.429l2.865,0.545
			c1.141,0.217,2.252-0.539,2.468-1.68l0.545-2.865c0.217-1.141-0.539-2.252-1.68-2.468l-2.865-0.545
			c-1.141-0.217-2.252,0.539-2.468,1.68l-0.545,2.865C425.906,113.101,426.662,114.212,427.802,114.429z"/>
		<g>
			<g>
				<path fill="#91CDE7" stroke="#595857" stroke-width="0.2489" stroke-miterlimit="10" d="M427.494,154.484h-3.837
					c-1.528,0-2.778-1.25-2.778-2.778v-3.837c0-1.528,1.25-2.778,2.778-2.778h3.837c1.528,0,2.778,1.25,2.778,2.778v3.837
					C430.272,153.234,429.022,154.484,427.494,154.484z"/>
				<path fill="#91CDE7" stroke="#595857" stroke-width="0.2489" stroke-miterlimit="10" d="M421.358,157.49h-3.837
					c-1.528,0-2.778-1.25-2.778-2.778v-3.837c0-1.528,1.25-2.778,2.778-2.778h3.837c1.528,0,2.778,1.25,2.778,2.778v3.837
					C424.135,156.24,422.885,157.49,421.358,157.49z"/>
				<path fill="#91CDE7" stroke="#595857" stroke-width="0.2489" stroke-miterlimit="10" d="M433.381,157.49h-3.837
					c-1.528,0-2.778-1.25-2.778-2.778v-3.837c0-1.528,1.25-2.778,2.778-2.778h3.837c1.528,0,2.778,1.25,2.778,2.778v3.837
					C436.158,156.24,434.908,157.49,433.381,157.49z"/>
				<path fill="#91CDE7" stroke="#595857" stroke-width="0.2489" stroke-miterlimit="10" d="M427.494,160.621h-3.837
					c-1.528,0-2.778-1.25-2.778-2.778v-3.837c0-1.528,1.25-2.778,2.778-2.778h3.837c1.528,0,2.778,1.25,2.778,2.778v3.837
					C430.272,159.371,429.022,160.621,427.494,160.621z"/>
			</g>
			<g>
				<path fill="#ADCD7C" stroke="#595857" stroke-width="0.2489" stroke-miterlimit="10" d="M427.62,145.092h-3.837
					c-1.528,0-2.778-1.25-2.778-2.778v-3.837c0-1.528,1.25-2.778,2.778-2.778h3.837c1.528,0,2.778,1.25,2.778,2.778v3.837
					C430.397,143.841,429.147,145.092,427.62,145.092z"/>
				<path fill="#ADCD7C" stroke="#595857" stroke-width="0.2489" stroke-miterlimit="10" d="M421.483,148.097h-3.837
					c-1.528,0-2.778-1.25-2.778-2.778v-3.837c0-1.528,1.25-2.778,2.778-2.778h3.837c1.528,0,2.778,1.25,2.778,2.778v3.837
					C424.261,146.847,423.011,148.097,421.483,148.097z"/>
				<path fill="#ADCD7C" stroke="#595857" stroke-width="0.2489" stroke-miterlimit="10" d="M433.506,148.097h-3.837
					c-1.528,0-2.778-1.25-2.778-2.778v-3.837c0-1.528,1.25-2.778,2.778-2.778h3.837c1.528,0,2.778,1.25,2.778,2.778v3.837
					C436.284,146.847,435.034,148.097,433.506,148.097z"/>
				<path fill="#ADCD7C" stroke="#595857" stroke-width="0.2489" stroke-miterlimit="10" d="M427.62,151.228h-3.837
					c-1.528,0-2.778-1.25-2.778-2.778v-3.837c0-1.528,1.25-2.778,2.778-2.778h3.837c1.528,0,2.778,1.25,2.778,2.778v3.837
					C430.397,149.978,429.147,151.228,427.62,151.228z"/>
			</g>
			<g>
				<path fill="#F2A964" stroke="#595857" stroke-width="0.2489" stroke-miterlimit="10" d="M427.62,135.699h-3.837
					c-1.528,0-2.778-1.25-2.778-2.778v-3.837c0-1.528,1.25-2.778,2.778-2.778h3.837c1.528,0,2.778,1.25,2.778,2.778v3.837
					C430.397,134.449,429.147,135.699,427.62,135.699z"/>
				<path fill="#F2A964" stroke="#595857" stroke-width="0.2489" stroke-miterlimit="10" d="M421.483,138.704h-3.837
					c-1.528,0-2.778-1.25-2.778-2.778v-3.837c0-1.528,1.25-2.778,2.778-2.778h3.837c1.528,0,2.778,1.25,2.778,2.778v3.837
					C424.261,137.454,423.011,138.704,421.483,138.704z"/>
				<path fill="#F2A964" stroke="#595857" stroke-width="0.2489" stroke-miterlimit="10" d="M433.506,138.704h-3.837
					c-1.528,0-2.778-1.25-2.778-2.778v-3.837c0-1.528,1.25-2.778,2.778-2.778h3.837c1.528,0,2.778,1.25,2.778,2.778v3.837
					C436.284,137.454,435.034,138.704,433.506,138.704z"/>
				<path fill="#F2A964" stroke="#595857" stroke-width="0.2489" stroke-miterlimit="10" d="M427.62,141.835h-3.837
					c-1.528,0-2.778-1.25-2.778-2.778v-3.837c0-1.528,1.25-2.778,2.778-2.778h3.837c1.528,0,2.778,1.25,2.778,2.778v3.837
					C430.397,140.585,429.147,141.835,427.62,141.835z"/>
			</g>
			<g>
				<path fill="#F2A964" stroke="#595857" stroke-width="0.2489" stroke-miterlimit="10" d="M422.841,131.002h-3.837
					c-1.528,0-2.778-1.25-2.778-2.778v-3.837c0-1.528,1.25-2.778,2.778-2.778h3.837c1.534,0,2.778,1.244,2.778,2.778v3.837
					C425.619,129.752,424.369,131.002,422.841,131.002z"/>
				<path fill="#F2A964" stroke="#595857" stroke-width="0.2489" stroke-miterlimit="10" d="M433.361,131.002h-3.837
					c-1.528,0-2.778-1.25-2.778-2.778v-3.837c0-1.528,1.25-2.778,2.778-2.778h3.837c1.534,0,2.778,1.244,2.778,2.778v3.837
					C436.139,129.752,434.889,131.002,433.361,131.002z"/>
			</g>
		</g>
	</g>
	
		<circle clip-path="url(#SVGID_00000145759811339081170270000001820625933561973656_)" fill="#E60013" stroke="#595857" stroke-width="0" stroke-miterlimit="10" cx="416.226" cy="71.084" r="5.696"/>
	
		<circle clip-path="url(#SVGID_00000145759811339081170270000001820625933561973656_)" fill="#E60013" stroke="#595857" stroke-width="0" stroke-miterlimit="10" cx="435.228" cy="71.084" r="5.696"/>
	<g clip-path="url(#SVGID_00000145759811339081170270000001820625933561973656_)">
		<path d="M332.464,87.166V76.564h-3.546v-1.746h9.27v1.746h-3.51v10.602H332.464z"/>
		<path d="M340.168,87.166V74.818h2.484l5.13,8.712h0.054v-8.712h1.962v12.348h-2.196l-5.418-9.306h-0.054v9.306H340.168z"/>
		<path d="M352.696,87.166V74.818h7.578v1.746h-5.364v3.69h4.176v1.71h-4.176v5.202H352.696z"/>
		<path d="M364.558,87.327c-0.864,0-1.554-0.222-2.07-0.666c-0.516-0.444-0.773-1.098-0.773-1.962c0-1.56,0.99-2.484,2.97-2.772
			l2.178-0.252v-0.702c0-0.612-0.152-1.023-0.459-1.233c-0.306-0.21-0.86-0.315-1.665-0.315c-0.756,0-1.506,0.084-2.25,0.252v-1.422
			c0.853-0.336,1.872-0.504,3.061-0.504c2.256,0,3.384,0.918,3.384,2.754v6.66h-1.71l-0.162-0.756h-0.107
			C366.424,87.022,365.626,87.327,364.558,87.327z M365.188,85.869c0.721,0,1.278-0.186,1.674-0.558v-2.286l-1.71,0.18
			c-0.468,0.036-0.818,0.162-1.053,0.378c-0.234,0.216-0.351,0.552-0.351,1.008c0,0.42,0.129,0.738,0.387,0.954
			C364.393,85.761,364.743,85.869,365.188,85.869z"/>
	</g>
	<g clip-path="url(#SVGID_00000145759811339081170270000001820625933561973656_)">
		<path d="M391.825,42.23V29.882h2.214v10.602h5.22v1.746H391.825z"/>
		<path d="M401.312,42.23V29.882h4.32c1.439,0,2.525,0.324,3.258,0.972c0.731,0.648,1.098,1.59,1.098,2.826
			c0,1.26-0.375,2.229-1.125,2.907s-1.779,1.017-3.087,1.017h-2.25v4.626H401.312z M403.526,35.947h1.836
			c0.816,0,1.404-0.174,1.765-0.522c0.359-0.348,0.539-0.888,0.539-1.62c0-0.804-0.174-1.374-0.521-1.71
			c-0.349-0.336-0.93-0.504-1.746-0.504h-1.872V35.947z"/>
		<path d="M418.277,41.446c-0.738,0.666-1.84,0.999-3.304,0.999s-2.693-0.264-3.689-0.792v-1.746
			c1.151,0.504,2.322,0.756,3.51,0.756c1.572,0,2.358-0.6,2.358-1.8c0-0.504-0.13-0.882-0.388-1.134
			c-0.258-0.252-0.729-0.486-1.413-0.702l-1.17-0.324c-0.924-0.264-1.623-0.666-2.097-1.206c-0.474-0.54-0.711-1.308-0.711-2.304
			c0-1.08,0.351-1.935,1.053-2.565c0.702-0.63,1.731-0.945,3.087-0.945c1.284,0,2.347,0.222,3.187,0.666v1.728
			c-0.972-0.408-2.022-0.612-3.15-0.612c-0.647,0-1.146,0.132-1.494,0.396c-0.348,0.264-0.521,0.642-0.521,1.134
			c0,0.492,0.11,0.861,0.333,1.107c0.222,0.246,0.639,0.453,1.251,0.621l1.152,0.36c1.056,0.3,1.838,0.711,2.349,1.233
			c0.51,0.522,0.765,1.299,0.765,2.331C419.383,39.847,419.014,40.78,418.277,41.446z"/>
	</g>
	<g clip-path="url(#SVGID_00000145759811339081170270000001820625933561973656_)">
		<path d="M440.316,100.444V89.842h-3.546v-1.746h9.27v1.746h-3.51v10.602H440.316z"/>
		<path d="M448.02,100.444V88.096h2.214v10.602h5.22v1.746H448.02z"/>
		<path d="M457.505,100.444V88.096h4.14c2.868,0,4.303,1.206,4.303,3.618c0,1.548-0.744,2.61-2.232,3.186v0.09l3.06,5.454h-2.411
			l-2.755-4.986h-1.89v4.986H457.505z M459.719,93.928h1.692c0.792,0,1.364-0.174,1.719-0.522c0.354-0.348,0.531-0.888,0.531-1.62
			c0-0.696-0.181-1.2-0.54-1.512c-0.36-0.312-0.937-0.468-1.729-0.468h-1.674V93.928z"/>
		<path d="M473.29,100.642v-2.52h-5.67v-1.296l6.246-8.73h1.513v8.388h1.817v1.638h-1.817v2.52H473.29z M470.032,96.484h3.276V91.84
			L470.032,96.484z"/>
	</g>
	<g clip-path="url(#SVGID_00000145759811339081170270000001820625933561973656_)">
		<g>
			<line fill="none" stroke="#EA5515" stroke-miterlimit="10" x1="337.236" y1="94.335" x2="367.073" y2="203.66"/>
			<g>
				<polygon fill="#EA5515" points="368.932,210.472 362.39,201.944 366.934,203.151 370.233,199.803 				"/>
			</g>
		</g>
	</g>
	<g clip-path="url(#SVGID_00000145759811339081170270000001820625933561973656_)">
		<g>
			<line fill="none" stroke="#EA5515" stroke-miterlimit="10" x1="372.075" y1="221.946" x2="399.566" y2="288.298"/>
			<g>
				<polygon fill="#EA5515" points="402.269,294.821 394.705,287.185 399.364,287.81 402.215,284.074 				"/>
			</g>
		</g>
	</g>
	<g clip-path="url(#SVGID_00000145759811339081170270000001820625933561973656_)">
		<g>
			<line fill="none" stroke="#EA5515" stroke-miterlimit="10" x1="419.357" y1="293.594" x2="355.319" y2="101.678"/>
			<g>
				<polygon fill="#EA5515" points="353.084,94.981 360.09,103.132 355.486,102.179 352.378,105.705 				"/>
			</g>
		</g>
	</g>
	<g clip-path="url(#SVGID_00000145759811339081170270000001820625933561973656_)">
		<g>
			<line fill="none" stroke="#EA5515" stroke-miterlimit="10" x1="425.576" y1="167.424" x2="425.576" y2="198.42"/>
			<g>
				<polygon fill="#EA5515" points="425.576,205.48 421.51,195.531 425.576,197.892 429.64,195.531 				"/>
			</g>
		</g>
	</g>
	<g clip-path="url(#SVGID_00000145759811339081170270000001820625933561973656_)">
		<g>
			<line fill="none" stroke="#EA5515" stroke-miterlimit="10" x1="424.261" y1="216.09" x2="429.701" y2="283.073"/>
			<g>
				<polygon fill="#EA5515" points="430.272,290.11 425.415,280.523 429.658,282.547 433.518,279.865 				"/>
			</g>
		</g>
	</g>
	<g clip-path="url(#SVGID_00000145759811339081170270000001820625933561973656_)">
		<g>
			<line fill="none" stroke="#EA5515" stroke-miterlimit="10" x1="444.075" y1="290.138" x2="515.141" y2="100.945"/>
			<g>
				<polygon fill="#EA5515" points="517.623,94.335 517.931,105.078 514.955,101.439 510.32,102.22 				"/>
			</g>
		</g>
	</g>
	<g clip-path="url(#SVGID_00000145759811339081170270000001820625933561973656_)">
		<g>
			<line fill="none" stroke="#E83929" stroke-miterlimit="10" x1="225.752" y1="290.11" x2="314.875" y2="100.723"/>
			<g>
				<polygon fill="#E83929" points="317.881,94.335 317.324,105.068 314.65,101.201 309.968,101.607 				"/>
			</g>
		</g>
	</g>
	<g clip-path="url(#SVGID_00000145759811339081170270000001820625933561973656_)">
		<g>
			<polyline fill="none" stroke="#E83929" stroke-miterlimit="10" points="314.785,78.075 207.946,78.075 207.946,283.05 			"/>
			<g>
				<polygon fill="#E83929" points="207.946,290.11 203.881,280.161 207.946,282.522 212.01,280.161 				"/>
			</g>
		</g>
	</g>
	<g clip-path="url(#SVGID_00000145759811339081170270000001820625933561973656_)">
		<g>
			<path fill="none" stroke="#000000" stroke-miterlimit="10" d="M401.044,50.129c0,0-18.682,21.121,6.577,24.292"/>
			<g>
				<polygon points="414.674,74.818 404.477,78.213 407.103,74.313 405.017,70.101 				"/>
			</g>
		</g>
	</g>
	<g clip-path="url(#SVGID_00000145759811339081170270000001820625933561973656_)">
		<g>
			<line fill="none" stroke="#1D2088" stroke-miterlimit="10" x1="456.849" y1="308.687" x2="476.197" y2="308.687"/>
			<g>
				<rect x="475.197" y="302.187" fill="#1D2088" width="2" height="13"/>
			</g>
		</g>
	</g>
	<g clip-path="url(#SVGID_00000145759811339081170270000001820625933561973656_)">
		<g>
			<line fill="none" stroke="#1D2088" stroke-miterlimit="10" x1="548.313" y1="94.981" x2="548.313" y2="215.089"/>
			<g>
				<rect x="541.813" y="214.089" fill="#1D2088" width="13" height="2"/>
			</g>
		</g>
	</g>
	<g clip-path="url(#SVGID_00000145759811339081170270000001820625933561973656_)">
		<path d="M336.137,215.208c-0.864,0-1.554-0.222-2.07-0.666c-0.516-0.444-0.773-1.098-0.773-1.962c0-1.56,0.99-2.484,2.97-2.772
			l2.178-0.252v-0.702c0-0.612-0.152-1.023-0.459-1.233c-0.306-0.21-0.86-0.315-1.665-0.315c-0.756,0-1.506,0.084-2.25,0.252v-1.422
			c0.853-0.336,1.872-0.504,3.061-0.504c2.256,0,3.384,0.918,3.384,2.754v6.66h-1.71l-0.162-0.756h-0.107
			C338.003,214.902,337.205,215.208,336.137,215.208z M336.767,213.75c0.721,0,1.278-0.186,1.674-0.558v-2.286l-1.71,0.18
			c-0.468,0.036-0.818,0.162-1.053,0.378c-0.234,0.216-0.351,0.552-0.351,1.008c0,0.42,0.129,0.738,0.387,0.954
			C335.972,213.642,336.323,213.75,336.767,213.75z"/>
		<path d="M345.677,215.208c-1.871,0-2.808-0.9-2.808-2.7v-6.732h2.07v6.336c0,0.516,0.11,0.882,0.333,1.098
			c0.222,0.216,0.614,0.324,1.179,0.324c0.563,0,1.254-0.186,2.07-0.558v-7.2h2.069v9.27h-1.8l-0.18-0.81h-0.09
			C347.621,214.884,346.673,215.208,345.677,215.208z"/>
		<path d="M356.189,215.154c-1.752,0-2.628-0.798-2.628-2.394v-5.364h-1.296v-1.62h1.296v-2.178h2.034v2.178h2.214v1.62h-2.214
			v5.076c0,0.396,0.09,0.672,0.271,0.828c0.18,0.156,0.51,0.234,0.989,0.234c0.36,0,0.714-0.048,1.062-0.144v1.386
			C357.413,215.028,356.837,215.154,356.189,215.154z"/>
		<path d="M363.677,215.208c-1.403,0-2.487-0.405-3.249-1.215s-1.143-1.941-1.143-3.393v-0.288c0-1.464,0.401-2.613,1.206-3.447
			c0.804-0.834,1.872-1.251,3.204-1.251c1.392,0,2.469,0.405,3.23,1.215s1.144,1.953,1.144,3.429v0.252
			c0,1.464-0.402,2.613-1.206,3.447C366.059,214.791,364.997,215.208,363.677,215.208z M363.713,213.642
			c1.464,0,2.196-0.984,2.196-2.952v-0.45c0-1.128-0.201-1.92-0.604-2.376c-0.401-0.456-0.951-0.684-1.646-0.684
			c-0.72,0-1.275,0.252-1.665,0.756c-0.391,0.504-0.585,1.249-0.585,2.232v0.432c0,1.116,0.204,1.902,0.612,2.358
			C362.429,213.414,362.993,213.642,363.713,213.642z"/>
		<path d="M373.882,215.208c-1.392,0-2.478-0.39-3.258-1.17c-0.78-0.78-1.17-1.92-1.17-3.42v-0.288c0-1.536,0.417-2.706,1.251-3.51
			c0.834-0.804,1.923-1.206,3.267-1.206c1.021,0,1.872,0.186,2.557,0.558v1.62c-0.853-0.335-1.662-0.504-2.431-0.504
			c-0.78,0-1.392,0.243-1.836,0.729c-0.444,0.486-0.666,1.185-0.666,2.097v0.414c0,1.044,0.216,1.809,0.648,2.295
			c0.432,0.486,1.098,0.729,1.998,0.729c0.756,0,1.548-0.192,2.376-0.576v1.512C375.863,214.968,374.95,215.208,373.882,215.208z"/>
		<path d="M378.418,215.046v-9.27h1.998v1.08h0.072c0.252-0.335,0.6-0.612,1.044-0.828c0.444-0.216,0.906-0.324,1.386-0.324
			c0.288,0,0.48,0.018,0.576,0.054v1.836c-0.228-0.036-0.479-0.054-0.756-0.054c-0.864,0-1.614,0.204-2.25,0.612v6.894H378.418z"/>
		<path d="M385.24,204.246v-1.89h2.106v1.89H385.24z M385.24,215.046v-9.27h2.088v9.27H385.24z"/>
		<path d="M389.83,215.046v-9.27h1.998v0.828h0.072c0.912-0.66,1.926-0.99,3.042-0.99c0.912,0,1.59,0.201,2.034,0.603
			c0.443,0.402,0.666,1.053,0.666,1.953v6.876h-2.088v-6.39c0-0.48-0.108-0.819-0.324-1.017c-0.216-0.198-0.63-0.297-1.242-0.297
			c-0.696,0-1.392,0.168-2.088,0.504v7.2H389.83z"/>
		<path d="M404.104,215.208c-1.512,0-2.655-0.408-3.429-1.224c-0.774-0.816-1.161-1.968-1.161-3.456v-0.252
			c0-1.5,0.398-2.649,1.197-3.447c0.798-0.798,1.814-1.197,3.051-1.197c1.344,0,2.334,0.372,2.97,1.116
			c0.636,0.744,0.954,1.866,0.954,3.366v0.864h-6.048c0.06,0.936,0.326,1.605,0.801,2.007c0.474,0.402,1.167,0.603,2.079,0.603
			c1.02,0,1.974-0.228,2.862-0.684v1.44C406.504,214.92,405.411,215.208,404.104,215.208z M403.726,207.162
			c-1.272,0-1.968,0.798-2.088,2.394h3.941c0-0.852-0.152-1.464-0.459-1.836C404.815,207.348,404.35,207.162,403.726,207.162z"/>
		<path d="M333.851,236.646v-13.158h2.088v13.158H333.851z"/>
		<path d="M342.311,236.808c-1.403,0-2.487-0.405-3.249-1.215s-1.143-1.94-1.143-3.393v-0.288c0-1.464,0.401-2.613,1.206-3.447
			c0.804-0.834,1.872-1.251,3.204-1.251c1.392,0,2.469,0.405,3.23,1.215c0.762,0.811,1.144,1.953,1.144,3.429v0.252
			c0,1.465-0.402,2.614-1.206,3.448C344.693,236.391,343.631,236.808,342.311,236.808z M342.347,235.243
			c1.464,0,2.196-0.984,2.196-2.953v-0.45c0-1.128-0.201-1.92-0.604-2.376c-0.401-0.456-0.951-0.684-1.646-0.684
			c-0.72,0-1.275,0.252-1.665,0.756c-0.391,0.504-0.585,1.248-0.585,2.231v0.433c0,1.116,0.204,1.902,0.612,2.358
			C341.063,235.014,341.627,235.243,342.347,235.243z"/>
		<path d="M352.481,236.808c-1.403,0-2.487-0.405-3.249-1.215s-1.143-1.94-1.143-3.393v-0.288c0-1.464,0.401-2.613,1.206-3.447
			c0.804-0.834,1.872-1.251,3.204-1.251c1.392,0,2.469,0.405,3.23,1.215c0.762,0.811,1.144,1.953,1.144,3.429v0.252
			c0,1.465-0.402,2.614-1.206,3.448C354.863,236.391,353.801,236.808,352.481,236.808z M352.517,235.243
			c1.464,0,2.196-0.984,2.196-2.953v-0.45c0-1.128-0.201-1.92-0.604-2.376c-0.401-0.456-0.951-0.684-1.646-0.684
			c-0.72,0-1.275,0.252-1.665,0.756c-0.391,0.504-0.585,1.248-0.585,2.231v0.433c0,1.116,0.204,1.902,0.612,2.358
			C351.233,235.014,351.797,235.243,352.517,235.243z"/>
		<path d="M358.781,239.329v-11.953h1.998v0.792h0.072c0.636-0.636,1.53-0.954,2.682-0.954c1.08,0,1.963,0.357,2.646,1.071
			c0.684,0.714,1.026,1.862,1.026,3.446v0.234c0,3.229-1.398,4.842-4.194,4.842c-0.816,0-1.536-0.174-2.16-0.521v3.042H358.781z
			 M362.723,235.243c0.768,0,1.347-0.231,1.737-0.693c0.39-0.462,0.585-1.233,0.585-2.314v-0.378c0-1.092-0.184-1.856-0.549-2.295
			c-0.366-0.438-0.934-0.656-1.701-0.656c-0.78,0-1.429,0.18-1.944,0.539v5.257C361.295,235.062,361.919,235.243,362.723,235.243z"
			/>
	</g>
	<g clip-path="url(#SVGID_00000145759811339081170270000001820625933561973656_)">
		<path d="M168.987,70.456c-0.864,0-1.554-0.222-2.07-0.666c-0.516-0.444-0.773-1.098-0.773-1.962c0-1.56,0.99-2.484,2.97-2.772
			l2.178-0.252v-0.702c0-0.611-0.152-1.022-0.459-1.232c-0.306-0.21-0.86-0.315-1.665-0.315c-0.756,0-1.506,0.084-2.25,0.252v-1.422
			c0.853-0.336,1.872-0.504,3.061-0.504c2.256,0,3.384,0.918,3.384,2.754v6.66h-1.71l-0.162-0.756h-0.107
			C170.853,70.15,170.055,70.456,168.987,70.456z M169.616,68.998c0.721,0,1.278-0.186,1.674-0.558v-2.286l-1.71,0.18
			c-0.468,0.036-0.818,0.162-1.053,0.378s-0.351,0.552-0.351,1.008c0,0.421,0.129,0.738,0.387,0.954S169.172,68.998,169.616,68.998z
			"/>
		<path d="M178.527,70.456c-1.871,0-2.808-0.9-2.808-2.7v-6.731h2.07v6.336c0,0.516,0.11,0.882,0.333,1.098
			c0.222,0.216,0.614,0.324,1.179,0.324c0.563,0,1.254-0.187,2.07-0.559v-7.199h2.069v9.27h-1.8l-0.18-0.81h-0.09
			C180.471,70.132,179.523,70.456,178.527,70.456z"/>
		<path d="M189.038,70.402c-1.752,0-2.628-0.798-2.628-2.395v-5.364h-1.296v-1.619h1.296v-2.179h2.034v2.179h2.214v1.619h-2.214
			v5.076c0,0.396,0.09,0.673,0.271,0.828c0.18,0.156,0.51,0.234,0.989,0.234c0.36,0,0.714-0.048,1.062-0.145v1.387
			C190.263,70.276,189.687,70.402,189.038,70.402z"/>
		<path d="M196.527,70.456c-1.403,0-2.487-0.405-3.249-1.215c-0.762-0.811-1.143-1.941-1.143-3.394v-0.288
			c0-1.464,0.401-2.612,1.206-3.446c0.804-0.834,1.872-1.251,3.204-1.251c1.392,0,2.469,0.404,3.23,1.215
			c0.762,0.81,1.144,1.953,1.144,3.429v0.252c0,1.465-0.402,2.613-1.206,3.447C198.908,70.039,197.847,70.456,196.527,70.456z
			 M196.563,68.889c1.464,0,2.196-0.983,2.196-2.952v-0.449c0-1.128-0.201-1.92-0.604-2.376c-0.401-0.456-0.951-0.685-1.646-0.685
			c-0.72,0-1.275,0.252-1.665,0.756c-0.391,0.504-0.585,1.249-0.585,2.232v0.432c0,1.116,0.204,1.902,0.612,2.358
			C195.279,68.662,195.843,68.889,196.563,68.889z"/>
		<path d="M206.732,70.456c-1.392,0-2.478-0.39-3.258-1.17s-1.17-1.92-1.17-3.42v-0.288c0-1.536,0.417-2.706,1.251-3.51
			s1.923-1.206,3.267-1.206c1.021,0,1.872,0.186,2.557,0.558v1.62c-0.853-0.336-1.662-0.504-2.431-0.504
			c-0.78,0-1.392,0.243-1.836,0.729c-0.444,0.486-0.666,1.186-0.666,2.098v0.414c0,1.044,0.216,1.809,0.648,2.295
			c0.432,0.485,1.098,0.729,1.998,0.729c0.756,0,1.548-0.191,2.376-0.576v1.513C208.712,70.215,207.8,70.456,206.732,70.456z"/>
		<path d="M211.268,70.294v-9.27h1.998v1.079h0.072c0.252-0.335,0.6-0.611,1.044-0.827c0.444-0.217,0.906-0.324,1.386-0.324
			c0.288,0,0.48,0.018,0.576,0.054v1.836c-0.228-0.036-0.479-0.054-0.756-0.054c-0.864,0-1.614,0.204-2.25,0.612v6.894H211.268z"/>
		<path d="M218.09,59.494v-1.891h2.106v1.891H218.09z M218.09,70.294v-9.27h2.088v9.27H218.09z"/>
		<path d="M222.68,70.294v-9.27h1.998v0.827h0.072c0.912-0.659,1.926-0.989,3.042-0.989c0.912,0,1.59,0.201,2.034,0.603
			c0.443,0.402,0.666,1.053,0.666,1.953v6.876h-2.088v-6.39c0-0.48-0.108-0.819-0.324-1.018c-0.216-0.197-0.63-0.297-1.242-0.297
			c-0.696,0-1.392,0.168-2.088,0.504v7.2H222.68z"/>
		<path d="M236.953,70.456c-1.512,0-2.655-0.408-3.429-1.224c-0.774-0.816-1.161-1.969-1.161-3.456v-0.252
			c0-1.5,0.398-2.649,1.197-3.447c0.798-0.798,1.814-1.197,3.051-1.197c1.344,0,2.334,0.372,2.97,1.116s0.954,1.866,0.954,3.366
			v0.863h-6.048c0.06,0.937,0.326,1.605,0.801,2.008c0.474,0.401,1.167,0.603,2.079,0.603c1.02,0,1.974-0.228,2.862-0.684v1.439
			C239.354,70.168,238.261,70.456,236.953,70.456z M236.575,62.41c-1.272,0-1.968,0.798-2.088,2.394h3.941
			c0-0.852-0.152-1.464-0.459-1.836C237.664,62.595,237.199,62.41,236.575,62.41z"/>
		<path d="M166.7,91.893V78.736h2.088v13.157H166.7z"/>
		<path d="M175.16,92.055c-1.403,0-2.487-0.405-3.249-1.215s-1.143-1.94-1.143-3.393V87.16c0-1.464,0.401-2.613,1.206-3.447
			c0.804-0.834,1.872-1.251,3.204-1.251c1.392,0,2.469,0.405,3.23,1.215c0.762,0.811,1.144,1.953,1.144,3.429v0.252
			c0,1.465-0.402,2.613-1.206,3.447C177.542,91.638,176.481,92.055,175.16,92.055z M175.197,90.49c1.464,0,2.196-0.984,2.196-2.952
			v-0.45c0-1.128-0.201-1.92-0.604-2.376c-0.401-0.456-0.951-0.684-1.646-0.684c-0.72,0-1.275,0.252-1.665,0.756
			c-0.391,0.504-0.585,1.248-0.585,2.231v0.433c0,1.115,0.204,1.901,0.612,2.357C173.912,90.261,174.477,90.49,175.197,90.49z"/>
		<path d="M185.33,92.055c-1.403,0-2.487-0.405-3.249-1.215s-1.143-1.94-1.143-3.393V87.16c0-1.464,0.401-2.613,1.206-3.447
			c0.804-0.834,1.872-1.251,3.204-1.251c1.392,0,2.469,0.405,3.23,1.215c0.762,0.811,1.144,1.953,1.144,3.429v0.252
			c0,1.465-0.402,2.613-1.206,3.447C187.712,91.638,186.651,92.055,185.33,92.055z M185.366,90.49c1.464,0,2.196-0.984,2.196-2.952
			v-0.45c0-1.128-0.201-1.92-0.604-2.376c-0.401-0.456-0.951-0.684-1.646-0.684c-0.72,0-1.275,0.252-1.665,0.756
			c-0.391,0.504-0.585,1.248-0.585,2.231v0.433c0,1.115,0.204,1.901,0.612,2.357C184.082,90.261,184.647,90.49,185.366,90.49z"/>
		<path d="M191.63,94.576V82.624h1.998v0.792h0.072c0.636-0.636,1.53-0.954,2.682-0.954c1.08,0,1.963,0.357,2.646,1.071
			s1.026,1.862,1.026,3.446v0.234c0,3.229-1.398,4.842-4.194,4.842c-0.816,0-1.536-0.174-2.16-0.521v3.042H191.63z M195.573,90.49
			c0.768,0,1.347-0.231,1.737-0.693c0.39-0.462,0.585-1.233,0.585-2.313v-0.378c0-1.092-0.184-1.856-0.549-2.295
			c-0.366-0.438-0.934-0.656-1.701-0.656c-0.78,0-1.429,0.18-1.944,0.539v5.257C194.145,90.309,194.769,90.49,195.573,90.49z"/>
	</g>
</g>
<g>
	<path d="M471.051,382.569c0,2.677-0.144,4.788-0.432,6.336h2.286v1.656h-14.49v-1.656h10.116c0.3-1.151,0.438-2.711,0.414-4.68
		h-8.586v-1.656H471.051z M471.465,397.311H460.36v-5.22h2.105v3.528h9V397.311z"/>
	<path d="M474.111,388.582c0-1.716,0.372-3.103,1.116-4.158s1.758-1.584,3.042-1.584c1.296,0,2.312,0.528,3.051,1.584
		s1.107,2.442,1.107,4.158c0,1.704-0.369,3.081-1.107,4.131s-1.755,1.575-3.051,1.575c-1.284,0-2.298-0.525-3.042-1.575
		S474.111,390.286,474.111,388.582z M480.41,388.582c0-1.248-0.198-2.235-0.594-2.961c-0.396-0.727-0.912-1.09-1.548-1.09
		c-0.612,0-1.116,0.363-1.513,1.09c-0.396,0.726-0.594,1.713-0.594,2.961c0,1.235,0.198,2.214,0.594,2.934
		c0.396,0.72,0.9,1.08,1.513,1.08c0.636,0,1.151-0.36,1.548-1.08C480.212,390.796,480.41,389.817,480.41,388.582z M486.531,381.741
		v6.156h2.376v1.746h-2.376v8.136h-2.142v-16.038H486.531z"/>
	<path d="M497.655,392.38l-1.188,1.494c-0.576-0.36-1.158-0.903-1.746-1.629c-0.588-0.727-0.979-1.461-1.17-2.205
		c-0.229,0.84-0.624,1.644-1.188,2.412c-0.563,0.768-1.218,1.374-1.962,1.817l-1.242-1.439c1.057-0.685,1.882-1.632,2.476-2.845
		c0.594-1.212,0.891-2.646,0.891-4.302v-2.394h2.017v2.376c0,1.548,0.272,2.906,0.818,4.076
		C495.906,390.913,496.671,391.792,497.655,392.38z M499.995,397.042h-1.963v-8.064h-2.159v-1.71h2.159v-5.22h1.963V397.042z
		 M503.198,397.779H501.2v-16.038h1.998V397.779z"/>
	<path d="M519.615,395.763h-14.49v-1.656h6.156v-3.096h-4.824v-1.674h2.358l-0.45-3.69l2.105-0.27l0.324,3.96h3.204l0.576-3.924
		l2.034,0.342l-0.666,3.582h2.268v1.674h-4.824v3.096h6.229V395.763z M518.247,384.622h-11.826v-1.675h11.826V384.622z"/>
	<path d="M524.349,397.491c-0.973-0.912-1.771-2.004-2.395-3.275s-0.936-2.676-0.936-4.212v-0.324c0-1.536,0.312-2.937,0.936-4.203
		c0.624-1.266,1.422-2.354,2.395-3.267h1.781c-0.888,0.983-1.607,2.105-2.159,3.365c-0.553,1.261-0.828,2.574-0.828,3.942v0.504
		c0,1.356,0.281,2.697,0.846,4.023c0.563,1.326,1.278,2.475,2.142,3.446H524.349z"/>
	<path d="M527.516,395.62v-9.271h1.998v0.828h0.072c0.937-0.66,1.878-0.99,2.826-0.99c1.067,0,1.8,0.349,2.196,1.044h0.107
		c1.02-0.695,2.034-1.044,3.042-1.044c0.853,0,1.491,0.201,1.917,0.604c0.426,0.401,0.64,1.047,0.64,1.935v6.895h-2.053v-6.408
		c0-0.468-0.104-0.801-0.314-0.999s-0.579-0.297-1.107-0.297c-0.564,0-1.206,0.174-1.926,0.521c0.023,0.192,0.036,0.33,0.036,0.414
		v6.769h-2.034v-6.408c0-0.468-0.108-0.801-0.324-0.999s-0.582-0.297-1.098-0.297c-0.624,0-1.26,0.168-1.908,0.504v7.2H527.516z"/>
	<path d="M543.771,398.283c-0.588,0-1.038-0.102-1.351-0.306v-1.386c0.265,0.06,0.564,0.09,0.9,0.09
		c0.456,0,0.819-0.078,1.089-0.234c0.271-0.155,0.483-0.443,0.64-0.863l0.252-0.648l-3.492-8.586h2.195l2.341,6.012h0.071
		l2.16-6.012h1.998l-3.582,9.522c-0.3,0.875-0.696,1.496-1.188,1.862C545.313,398.1,544.635,398.283,543.771,398.283z"/>
	<path d="M556.01,395.781c-1.403,0-2.487-0.404-3.249-1.215c-0.762-0.81-1.143-1.94-1.143-3.393v-0.288
		c0-1.464,0.401-2.613,1.206-3.447c0.804-0.834,1.872-1.251,3.204-1.251c1.392,0,2.469,0.405,3.23,1.215
		c0.762,0.811,1.144,1.953,1.144,3.43v0.252c0,1.464-0.402,2.612-1.206,3.446C558.392,395.365,557.33,395.781,556.01,395.781z
		 M556.046,394.215c1.464,0,2.196-0.984,2.196-2.952v-0.45c0-1.128-0.201-1.92-0.604-2.376c-0.401-0.456-0.951-0.684-1.646-0.684
		c-0.72,0-1.275,0.252-1.665,0.756c-0.391,0.504-0.585,1.248-0.585,2.231v0.433c0,1.116,0.204,1.902,0.612,2.357
		C554.762,393.988,555.326,394.215,556.046,394.215z"/>
	<path d="M565.928,395.817c-1.5,0-2.706-0.18-3.618-0.54v-12.815h2.07v4.518h0.09c0.804-0.527,1.716-0.792,2.736-0.792
		c0.996,0,1.833,0.354,2.511,1.062s1.018,1.848,1.018,3.42v0.216c0,1.632-0.408,2.862-1.225,3.689
		C568.694,395.403,567.5,395.817,565.928,395.817z M566.054,394.233c1.68,0,2.521-1.014,2.521-3.042v-0.359
		c0-1.092-0.184-1.857-0.549-2.295c-0.366-0.438-0.964-0.657-1.791-0.657c-0.601,0-1.219,0.15-1.854,0.45v5.634
		C564.896,394.143,565.454,394.233,566.054,394.233z"/>
	<path d="M572.732,395.62v-13.158h2.088v13.158H572.732z"/>
	<path d="M579.644,395.781c-0.864,0-1.554-0.222-2.07-0.666c-0.516-0.443-0.773-1.098-0.773-1.962c0-1.56,0.99-2.483,2.97-2.771
		l2.178-0.252v-0.702c0-0.612-0.152-1.023-0.459-1.233c-0.306-0.21-0.86-0.314-1.665-0.314c-0.756,0-1.506,0.084-2.25,0.252v-1.422
		c0.853-0.336,1.872-0.504,3.061-0.504c2.256,0,3.384,0.918,3.384,2.754v6.66h-1.71l-0.162-0.757h-0.107
		C581.51,395.475,580.712,395.781,579.644,395.781z M580.274,394.323c0.721,0,1.278-0.186,1.674-0.558v-2.286l-1.71,0.18
		c-0.468,0.036-0.818,0.162-1.053,0.379c-0.234,0.216-0.351,0.552-0.351,1.008c0,0.42,0.129,0.737,0.387,0.954
		C579.479,394.215,579.829,394.323,580.274,394.323z"/>
	<path d="M588.967,395.763c-1.26,0-2.28-0.21-3.06-0.63v-1.512c0.972,0.384,1.89,0.575,2.754,0.575c1.224,0,1.836-0.371,1.836-1.115
		c0-0.336-0.103-0.595-0.306-0.774c-0.204-0.18-0.559-0.324-1.062-0.432l-0.864-0.198c-0.756-0.156-1.338-0.441-1.745-0.855
		c-0.408-0.414-0.612-1.017-0.612-1.809c0-0.876,0.288-1.562,0.864-2.061c0.575-0.498,1.434-0.747,2.573-0.747
		c1.021,0,1.908,0.168,2.664,0.504v1.565c-0.78-0.336-1.607-0.504-2.483-0.504c-1.104,0-1.656,0.36-1.656,1.08
		c0,0.312,0.093,0.546,0.279,0.702c0.186,0.156,0.507,0.288,0.963,0.396l0.882,0.198c0.912,0.204,1.56,0.514,1.944,0.927
		c0.384,0.414,0.575,1.018,0.575,1.81c0,0.948-0.303,1.665-0.908,2.15C590.998,395.52,590.119,395.763,588.967,395.763z"/>
	<path d="M597.607,395.727c-1.752,0-2.628-0.798-2.628-2.394v-5.364h-1.296v-1.62h1.296v-2.178h2.034v2.178h2.214v1.62h-2.214v5.076
		c0,0.396,0.09,0.672,0.271,0.828c0.18,0.155,0.51,0.233,0.989,0.233c0.36,0,0.714-0.048,1.062-0.144v1.386
		C598.831,395.601,598.255,395.727,597.607,395.727z"/>
	<path d="M600.163,397.491c0.888-0.972,1.607-2.091,2.16-3.356c0.552-1.266,0.828-2.583,0.828-3.951v-0.521
		c0-1.345-0.279-2.683-0.837-4.015c-0.559-1.332-1.275-2.478-2.151-3.438h1.782c0.96,0.912,1.752,2.004,2.376,3.275
		c0.623,1.272,0.936,2.671,0.936,4.194v0.324c0,1.536-0.312,2.94-0.936,4.212c-0.624,1.271-1.416,2.363-2.376,3.275H600.163z"/>
</g>
<g>
</g>
<g>
</g>
<g>
</g>
<g>
</g>
<g>
</g>
<g>
</g>
<g>
</g>
<g>
</g>
</svg>
