<?xml version="1.0" encoding="utf-8"?>
<!-- Generator: Adobe Illustrator 28.0.0, SVG Export Plug-In . SVG Version: 6.00 Build 0)  -->
<svg version="1.1" id="레이어_1" xmlns="http://www.w3.org/2000/svg" xmlns:xlink="http://www.w3.org/1999/xlink" x="0px"
	 y="0px" viewBox="0 0 243.351 432.247" enable-background="new 0 0 243.351 432.247" xml:space="preserve">
<g>
	<g>
		<line fill="#72AF2D" x1="120.528" y1="11.827" x2="120.528" y2="54.222"/>
		<g>
			
				<line fill="none" stroke="#396BB4" stroke-width="5.5" stroke-miterlimit="10" x1="120.528" y1="11.827" x2="120.528" y2="49.884"/>
			<g>
				<polygon fill="#396BB4" points="125.54,49.212 115.517,49.212 120.528,54.222 				"/>
			</g>
		</g>
	</g>
	<g>
		<g>
			<defs>
				<path id="SVGID_00000014604412210106587490000016152650417361586366_" d="M106.747,79.871c-5.35,1.469-9.107,4.474-9.701,8.399
					c-1.018,6.727,7.634,13.616,19.328,15.386c11.692,1.769,21.997-2.248,23.015-8.977c1.018-6.727-7.634-13.615-19.328-15.384
					c-1.868-0.283-3.7-0.418-5.465-0.418C111.761,78.877,109.099,79.225,106.747,79.871"/>
			</defs>
			<clipPath id="SVGID_00000054250216195155125600000007506495068296849542_">
				<use xlink:href="#SVGID_00000014604412210106587490000016152650417361586366_"  overflow="visible"/>
			</clipPath>
			
				<radialGradient id="SVGID_00000043417019561904183550000018416997946438017214_" cx="-170.6688" cy="569.5278" r="0.5893" gradientTransform="matrix(29.2984 4.4938 4.4938 -29.2984 2559.2139 17544.6738)" gradientUnits="userSpaceOnUse">
				<stop  offset="0" style="stop-color:#EF9F45"/>
				<stop  offset="1" style="stop-color:#F8CE9D"/>
			</radialGradient>
			
				<polygon clip-path="url(#SVGID_00000054250216195155125600000007506495068296849542_)" fill="url(#SVGID_00000043417019561904183550000018416997946438017214_)" points="
				97.048,72.226 144.385,79.487 139.387,112.075 92.05,104.815 			"/>
		</g>
		<path fill="none" stroke="#000000" stroke-width="0.1473" d="M97.046,88.269c0.594-3.925,4.351-6.929,9.701-8.398
			c3.818-1.048,8.445-1.314,13.314-0.577c11.693,1.77,20.346,8.658,19.328,15.385c-1.018,6.729-11.322,10.746-23.015,8.977
			C104.68,101.886,96.028,94.997,97.046,88.269z"/>
		<g>
			<defs>
				<path id="SVGID_00000159436928250228195600000011276672291144013733_" d="M111.044,81.205c-1.23,0.906-1.444,2.33-1.444,2.33
					l-1.664,10.188c0,0-0.085,1.186-1.249,1.027c-0.592-0.083-1.078-0.894-1.078-0.894s1.474-9.731,1.836-10.525
					c0.365-0.795-0.978-0.755-0.978-0.755s-1.833,0.086-3.658,0.902c-1.822,0.816-3.192,4.252-3.39,5.557
					c-0.197,1.306-0.09,4.6,0.351,4.909c0.437,0.309,0.866-0.111,0.866-0.111l1.103-4.082c0,0,0.29-0.321,1.004-0.213
					c0.712,0.108,0.485,0.801,0.485,0.801s-0.921,4.475-0.773,5.104c0.147,0.63,1.144,1.266,2.123,2.021
					c0.978,0.755,3.908,1.442,4.62,1.55c0.711,0.108,1.009-1.063,1.009-1.063l1.15-7.594c0,0,0.176-1.099,1.366-1.007
					c0.846,0.066,0.634,1.43,0.634,1.43l-1.041,6.885c0,0-0.199,1.304,0.087,1.833c0.282,0.527,0.301,0.41,2.301,0.833
					c1.999,0.425,3.951,0.355,4.564,0.328c0.61-0.029,1.081-1.536,1.081-1.536l1.133-7.475c0,0,0.299-1.17,1.247-1.027
					c0.951,0.144,0.753,1.451,0.753,1.451l-1.15,7.593c0,0-0.108,0.712,0.076,1.105c0.183,0.39,0.895,0.5,2.1,0.56
					c1.203,0.061,2.838-0.3,3.722-0.529c0.885-0.231,0.672-1.233,0.672-1.233l0.952-6.291c0,0,0.388-1.762,1.336-1.618
					c0.95,0.144,0.509,2.262,0.509,2.262s-1.719,6.537-1.005,6.645c0.711,0.108,2.628-0.583,3.435-1.057
					c1.767-1.04,2.694-3.755,2.734-6.021c0.041-2.399-1.794-5.006-1.794-5.006s-0.942-0.992-2.057-1.648
					c-1.114-0.653-2.146-1.052-3.186-0.602c-1.04,0.45-1.927,7.114-2.125,8.419c-0.197,1.305-0.787,2.794-1.399,2.822
					c-0.61,0.031-0.95-1.722-0.825-2.552c0.126-0.832,1.06-7.001,1.713-8.117c0.657-1.116,2.003-2.003,1.143-2.741
					c-0.859-0.737-4.211-1.851-5.954-2.358c-1.744-0.506-2.541,1.558-2.541,1.558l-1.78,11.748c0,0-0.727,1.589-1.44,1.481
					c-0.711-0.107-0.806-1.093-0.806-1.093l2.355-11.539c0,0,0.162-1.069,0.133-1.68c-0.031-0.611-0.057-1.222-1.955-1.51
					c-0.759-0.114-1.561-0.197-2.33-0.197C112.861,80.475,111.783,80.661,111.044,81.205"/>
			</defs>
			<clipPath id="SVGID_00000178180666110303190100000006117943042271582856_">
				<use xlink:href="#SVGID_00000159436928250228195600000011276672291144013733_"  overflow="visible"/>
			</clipPath>
			
				<linearGradient id="SVGID_00000140010015671949364560000003653657548386692250_" gradientUnits="userSpaceOnUse" x1="-172.4261" y1="568.0181" x2="-171.8367" y2="568.0181" gradientTransform="matrix(63.3507 9.7167 9.7167 -63.3507 5503.6201 37747.8398)">
				<stop  offset="0" style="stop-color:#FFF9EC"/>
				<stop  offset="1" style="stop-color:#FFEFC9"/>
			</linearGradient>
			
				<polygon clip-path="url(#SVGID_00000178180666110303190100000006117943042271582856_)" fill="url(#SVGID_00000140010015671949364560000003653657548386692250_)" points="
				100.088,74.828 140.039,80.956 136.038,107.038 96.087,100.91 			"/>
		</g>
	</g>
	<path fill="none" stroke="#C4561C" stroke-width="3" stroke-miterlimit="10" d="M161.055,282.859h-84c-6.6,0-12-5.4-12-12V26.214
		c0-6.6,5.4-12,12-12h84c6.6,0,12,5.4,12,12v244.645C173.055,277.459,167.655,282.859,161.055,282.859z"/>
	<g>
		<ellipse fill="#82B3E1" stroke="#6BBFEC" stroke-miterlimit="10" cx="122.137" cy="29.816" rx="31.742" ry="11.032"/>
		<g>
			<path d="M101.319,30.944c-0.056,0.07-0.136,0.172-0.241,0.308c-0.105,0.135-0.186,0.235-0.242,0.301
				c-0.285-0.182-0.572-0.438-0.861-0.77c-0.29-0.331-0.483-0.656-0.581-0.973c-0.103,0.35-0.294,0.701-0.574,1.054
				c-0.28,0.353-0.581,0.624-0.903,0.815c-0.229-0.28-0.397-0.479-0.504-0.595c1.031-0.663,1.547-1.628,1.547-2.898v-0.854h0.847
				v0.812c0,0.607,0.132,1.148,0.396,1.624C100.466,30.244,100.838,30.636,101.319,30.944z M102.439,26.807v2.401h0.896v0.672
				h-0.896v3.164h-0.812v-6.237H102.439z"/>
			<path d="M104.227,31.077c-0.287-0.406-0.431-0.942-0.431-1.61s0.144-1.207,0.431-1.617s0.68-0.616,1.18-0.616
				c0.504,0,0.899,0.205,1.187,0.616c0.287,0.411,0.43,0.95,0.43,1.617c0,0.663-0.144,1.198-0.43,1.606
				c-0.287,0.408-0.683,0.612-1.187,0.612C104.907,31.686,104.514,31.483,104.227,31.077z M106.24,29.467
				c0-0.485-0.077-0.869-0.231-1.151c-0.154-0.283-0.355-0.424-0.602-0.424c-0.238,0-0.433,0.141-0.584,0.424
				c-0.152,0.282-0.228,0.666-0.228,1.151c0,0.48,0.076,0.861,0.228,1.141c0.151,0.28,0.346,0.42,0.584,0.42
				c0.247,0,0.448-0.14,0.602-0.42C106.163,30.328,106.24,29.947,106.24,29.467z M108.773,33.044h-0.812v-6.237h0.812V33.044z"/>
			<path d="M114.667,30.552h-1.778v1.064h2.422v0.644h-5.635v-0.644h2.394v-1.064h-1.68v-3.311h4.221v0.651h-3.402v0.693h3.192
				v0.644h-3.192v0.672h3.458V30.552z"/>
			<path d="M121.366,32.218h-5.635v-0.644h5.635V32.218z M120.708,27.486c0,1.694-0.103,2.956-0.308,3.787
				c-0.145-0.014-0.406-0.038-0.784-0.07c0.079-0.317,0.147-0.793,0.203-1.428c-0.392,0.019-0.981,0.049-1.768,0.091
				c-0.786,0.042-1.375,0.072-1.767,0.091l-0.105-0.651c1.61-0.065,2.835-0.117,3.675-0.154c0.023-0.411,0.035-0.751,0.035-1.022
				h-3.486v-0.644H120.708z"/>
			<path d="M126.833,29.6h-1.834v0.427h2.422v0.651h-5.635v-0.651h2.394V29.6h-1.652v-1.589h3.318v-0.364H122.5v-0.609h4.172v1.561
				h-3.325v0.385h3.486V29.6z M126.707,32.967H122.5v-1.918h4.208V32.967z M125.881,32.344v-0.679h-2.569v0.679H125.881z"/>
			<path d="M130.038,32.204v-4.802h1.681c0.56,0,0.982,0.126,1.267,0.378c0.285,0.252,0.427,0.618,0.427,1.099
				c0,0.49-0.146,0.867-0.438,1.13c-0.291,0.264-0.691,0.396-1.2,0.396h-0.875v1.799H130.038z M130.899,29.761h0.714
				c0.317,0,0.546-0.067,0.687-0.203c0.14-0.135,0.21-0.345,0.21-0.63c0-0.312-0.068-0.534-0.203-0.665
				c-0.136-0.13-0.362-0.196-0.68-0.196h-0.728V29.761z"/>
			<path d="M136.017,32.281v-0.98h-2.205v-0.504l2.429-3.395h0.588v3.262h0.707v0.637h-0.707v0.98H136.017z M134.749,30.664h1.274
				v-1.806L134.749,30.664z"/>
			<path d="M139.334,32.274c-0.551,0-1.006-0.11-1.365-0.329l0.154-0.658c0.322,0.191,0.653,0.287,0.994,0.287
				c0.336,0,0.599-0.078,0.787-0.234c0.189-0.156,0.284-0.379,0.284-0.668c0-0.574-0.346-0.861-1.036-0.861
				c-0.304,0-0.628,0.086-0.974,0.259l0.176-2.639h2.506v0.672h-1.849l-0.091,1.169c0.215-0.056,0.416-0.084,0.603-0.084
				c0.49,0,0.871,0.126,1.145,0.378c0.272,0.252,0.409,0.627,0.409,1.127c0,0.457-0.157,0.835-0.473,1.134
				C140.29,32.125,139.866,32.274,139.334,32.274z"/>
			<path d="M143.583,32.288c-0.56,0-1.011-0.19-1.351-0.57c-0.341-0.38-0.512-0.958-0.512-1.732v-0.301
				c0-0.415,0.051-0.777,0.15-1.085c0.101-0.308,0.239-0.55,0.417-0.728c0.177-0.177,0.374-0.308,0.592-0.392
				c0.217-0.084,0.453-0.126,0.71-0.126c0.546,0,0.99,0.187,1.334,0.56c0.343,0.374,0.515,0.957,0.515,1.75v0.301
				c0,0.793-0.173,1.379-0.519,1.757S144.129,32.288,143.583,32.288z M143.583,31.63c0.326,0,0.569-0.127,0.728-0.382
				c0.159-0.254,0.238-0.664,0.238-1.229v-0.357c0-1.097-0.319-1.645-0.959-1.645c-0.331,0-0.576,0.127-0.734,0.382
				c-0.159,0.254-0.238,0.659-0.238,1.214v0.371C142.617,31.082,142.939,31.63,143.583,31.63z"/>
		</g>
	</g>
	<g>
		<g>
			<defs>
				<path id="SVGID_7_" d="M106.624,120.15c-5.35,1.469-9.107,4.474-9.701,8.399c-1.018,6.727,7.634,13.616,19.328,15.386
					c11.692,1.769,21.997-2.248,23.015-8.977c1.018-6.727-7.634-13.615-19.328-15.384c-1.868-0.283-3.7-0.418-5.465-0.418
					C111.638,119.156,108.976,119.505,106.624,120.15"/>
			</defs>
			<clipPath id="SVGID_00000030470918208625140920000011847193668063283607_">
				<use xlink:href="#SVGID_7_"  overflow="visible"/>
			</clipPath>
			
				<radialGradient id="SVGID_00000174597089604148561590000018113862418421055116_" cx="-170.4669" cy="568.1839" r="0.5893" gradientTransform="matrix(29.2984 4.4938 4.4938 -29.2984 2559.2139 17544.6738)" gradientUnits="userSpaceOnUse">
				<stop  offset="0" style="stop-color:#EF9F45"/>
				<stop  offset="1" style="stop-color:#F8CE9D"/>
			</radialGradient>
			
				<polygon clip-path="url(#SVGID_00000030470918208625140920000011847193668063283607_)" fill="url(#SVGID_00000174597089604148561590000018113862418421055116_)" points="
				96.925,112.506 144.262,119.766 139.264,152.355 91.927,145.094 			"/>
		</g>
		<path fill="none" stroke="#000000" stroke-width="0.1473" d="M96.922,128.549c0.594-3.925,4.351-6.929,9.701-8.398
			c3.818-1.048,8.445-1.314,13.314-0.577c11.693,1.77,20.346,8.658,19.328,15.385c-1.018,6.729-11.322,10.746-23.015,8.977
			C104.557,142.165,95.905,135.277,96.922,128.549z"/>
		<g>
			<defs>
				<path id="SVGID_10_" d="M110.921,121.484c-1.23,0.906-1.444,2.33-1.444,2.33l-1.664,10.188c0,0-0.085,1.186-1.249,1.027
					c-0.592-0.083-1.078-0.894-1.078-0.894s1.474-9.731,1.836-10.525c0.365-0.795-0.978-0.755-0.978-0.755s-1.833,0.086-3.658,0.902
					c-1.822,0.816-3.192,4.252-3.39,5.557c-0.197,1.306-0.09,4.6,0.351,4.909c0.437,0.309,0.866-0.111,0.866-0.111l1.103-4.082
					c0,0,0.29-0.321,1.004-0.213c0.712,0.108,0.485,0.801,0.485,0.801s-0.921,4.475-0.773,5.104c0.147,0.63,1.144,1.266,2.123,2.021
					c0.978,0.755,3.908,1.442,4.62,1.55c0.711,0.108,1.009-1.063,1.009-1.063l1.15-7.594c0,0,0.176-1.099,1.366-1.007
					c0.846,0.066,0.634,1.43,0.634,1.43l-1.041,6.885c0,0-0.199,1.304,0.087,1.833c0.282,0.527,0.301,0.41,2.301,0.833
					c1.999,0.425,3.951,0.355,4.564,0.328c0.61-0.029,1.081-1.536,1.081-1.536l1.133-7.475c0,0,0.299-1.17,1.247-1.027
					c0.951,0.144,0.753,1.451,0.753,1.451l-1.15,7.593c0,0-0.108,0.712,0.076,1.105c0.183,0.39,0.895,0.5,2.1,0.56
					c1.203,0.061,2.838-0.3,3.722-0.529c0.885-0.231,0.672-1.233,0.672-1.233l0.952-6.291c0,0,0.388-1.762,1.336-1.618
					c0.95,0.144,0.509,2.262,0.509,2.262s-1.719,6.537-1.005,6.645c0.711,0.108,2.628-0.583,3.435-1.057
					c1.767-1.04,2.694-3.755,2.734-6.021c0.041-2.399-1.794-5.006-1.794-5.006s-0.942-0.992-2.057-1.648
					c-1.114-0.653-2.146-1.052-3.186-0.602c-1.04,0.45-1.927,7.114-2.125,8.419c-0.197,1.305-0.787,2.794-1.399,2.822
					c-0.61,0.031-0.95-1.722-0.825-2.552c0.126-0.832,1.06-7.001,1.713-8.117c0.657-1.116,2.003-2.003,1.143-2.741
					c-0.859-0.737-4.211-1.851-5.954-2.358c-1.744-0.506-2.541,1.558-2.541,1.558l-1.78,11.748c0,0-0.727,1.589-1.44,1.481
					c-0.711-0.107-0.806-1.093-0.806-1.093l2.355-11.539c0,0,0.162-1.069,0.133-1.68c-0.031-0.611-0.057-1.222-1.955-1.51
					c-0.759-0.114-1.561-0.197-2.33-0.197C112.738,120.754,111.659,120.941,110.921,121.484"/>
			</defs>
			<clipPath id="SVGID_00000076573185748462814210000010332593810191031955_">
				<use xlink:href="#SVGID_10_"  overflow="visible"/>
			</clipPath>
			
				<linearGradient id="SVGID_00000034060960590435704320000017387852734098903709_" gradientUnits="userSpaceOnUse" x1="-172.3327" y1="567.3965" x2="-171.7433" y2="567.3965" gradientTransform="matrix(63.3507 9.7167 9.7167 -63.3507 5503.6201 37747.8398)">
				<stop  offset="0" style="stop-color:#FFF9EC"/>
				<stop  offset="1" style="stop-color:#FFEFC9"/>
			</linearGradient>
			
				<polygon clip-path="url(#SVGID_00000076573185748462814210000010332593810191031955_)" fill="url(#SVGID_00000034060960590435704320000017387852734098903709_)" points="
				99.965,115.107 139.916,121.235 135.915,147.318 95.964,141.19 			"/>
		</g>
	</g>
	<g>
		<g>
			<defs>
				<path id="SVGID_2_" d="M106.747,161.348c-5.35,1.469-9.107,4.474-9.701,8.399c-1.018,6.727,7.634,13.616,19.328,15.386
					c11.692,1.769,21.997-2.248,23.015-8.977c1.018-6.727-7.634-13.615-19.328-15.384c-1.868-0.283-3.7-0.418-5.465-0.418
					C111.761,160.354,109.1,160.703,106.747,161.348"/>
			</defs>
			<clipPath id="SVGID_00000072982634729441187890000017643426808764633017_">
				<use xlink:href="#SVGID_2_"  overflow="visible"/>
			</clipPath>
			
				<radialGradient id="SVGID_00000126300006882875618260000010904354013889203595_" cx="-170.2521" cy="566.8107" r="0.5893" gradientTransform="matrix(29.2984 4.4938 4.4938 -29.2984 2559.2139 17544.6738)" gradientUnits="userSpaceOnUse">
				<stop  offset="0" style="stop-color:#EF9F45"/>
				<stop  offset="1" style="stop-color:#F8CE9D"/>
			</radialGradient>
			
				<polygon clip-path="url(#SVGID_00000072982634729441187890000017643426808764633017_)" fill="url(#SVGID_00000126300006882875618260000010904354013889203595_)" points="
				97.048,153.703 144.385,160.964 139.387,193.553 92.05,186.292 			"/>
		</g>
		<path fill="none" stroke="#000000" stroke-width="0.1473" d="M97.046,169.747c0.594-3.925,4.351-6.929,9.701-8.398
			c3.818-1.048,8.445-1.314,13.314-0.577c11.693,1.77,20.346,8.658,19.328,15.385c-1.018,6.729-11.322,10.746-23.015,8.977
			C104.68,183.363,96.028,176.474,97.046,169.747z"/>
		<g>
			<defs>
				<path id="SVGID_1_" d="M111.044,162.682c-1.23,0.906-1.444,2.33-1.444,2.33l-1.664,10.188c0,0-0.085,1.186-1.249,1.027
					c-0.592-0.083-1.078-0.894-1.078-0.894s1.474-9.731,1.836-10.525c0.365-0.795-0.978-0.755-0.978-0.755s-1.833,0.086-3.658,0.902
					c-1.822,0.816-3.192,4.252-3.39,5.557c-0.197,1.306-0.09,4.6,0.351,4.909c0.437,0.309,0.866-0.111,0.866-0.111l1.103-4.082
					c0,0,0.29-0.321,1.004-0.213c0.713,0.108,0.485,0.801,0.485,0.801s-0.921,4.475-0.773,5.104c0.147,0.63,1.144,1.266,2.123,2.021
					c0.978,0.755,3.908,1.442,4.62,1.55c0.711,0.108,1.009-1.063,1.009-1.063l1.15-7.594c0,0,0.176-1.099,1.366-1.007
					c0.846,0.066,0.634,1.43,0.634,1.43l-1.041,6.885c0,0-0.199,1.304,0.087,1.833c0.282,0.527,0.301,0.41,2.301,0.833
					c1.999,0.425,3.951,0.355,4.564,0.328c0.61-0.029,1.081-1.536,1.081-1.536l1.133-7.475c0,0,0.299-1.17,1.247-1.027
					c0.951,0.144,0.753,1.451,0.753,1.451l-1.15,7.593c0,0-0.108,0.712,0.076,1.105c0.183,0.39,0.895,0.5,2.1,0.56
					c1.203,0.061,2.838-0.3,3.722-0.529c0.885-0.231,0.672-1.233,0.672-1.233l0.952-6.291c0,0,0.388-1.762,1.336-1.618
					c0.95,0.144,0.509,2.262,0.509,2.262s-1.719,6.537-1.005,6.645c0.711,0.108,2.628-0.583,3.435-1.057
					c1.767-1.04,2.694-3.755,2.734-6.021c0.041-2.399-1.794-5.006-1.794-5.006s-0.942-0.992-2.057-1.648
					c-1.114-0.653-2.146-1.052-3.186-0.602c-1.04,0.45-1.927,7.114-2.125,8.419c-0.197,1.305-0.787,2.794-1.399,2.822
					c-0.61,0.031-0.95-1.722-0.825-2.552c0.126-0.832,1.06-7.001,1.713-8.117c0.657-1.116,2.003-2.003,1.143-2.741
					c-0.859-0.737-4.211-1.851-5.954-2.358c-1.744-0.506-2.541,1.558-2.541,1.558l-1.78,11.748c0,0-0.727,1.589-1.44,1.481
					c-0.711-0.107-0.806-1.093-0.806-1.093l2.355-11.539c0,0,0.162-1.069,0.133-1.68c-0.031-0.611-0.057-1.222-1.955-1.51
					c-0.759-0.114-1.561-0.197-2.33-0.197C112.861,161.952,111.783,162.138,111.044,162.682"/>
			</defs>
			<clipPath id="SVGID_00000104699368315595319770000012430538259952985505_">
				<use xlink:href="#SVGID_1_"  overflow="visible"/>
			</clipPath>
			
				<linearGradient id="SVGID_00000065770061722852669670000012358158766907636128_" gradientUnits="userSpaceOnUse" x1="-172.2333" y1="566.7615" x2="-171.644" y2="566.7615" gradientTransform="matrix(63.3507 9.7167 9.7167 -63.3507 5503.6201 37747.8398)">
				<stop  offset="0" style="stop-color:#FFF9EC"/>
				<stop  offset="1" style="stop-color:#FFEFC9"/>
			</linearGradient>
			
				<polygon clip-path="url(#SVGID_00000104699368315595319770000012430538259952985505_)" fill="url(#SVGID_00000065770061722852669670000012358158766907636128_)" points="
				100.088,156.305 140.039,162.433 136.039,188.515 96.087,182.388 			"/>
		</g>
	</g>
	<path fill="#EB602C" d="M102.21,112.856c-3.167,5.464-5.482,5.667-7.206-1.079c-1.553,5.937-4.197,6.076-8.133,0.985
		c2.913,6.371,1.756,7.806-5.411,3.799c5.561,5.665,4.128,6.953-4.4,5.709c6.409,2.467,9.436,4.553,0.528,6.738
		c9.771-0.374,10.744,1.382,4.296,8.083c8.155-5.294,10.561-5.143,12.368,3.203c2.139-7.953,4.663-7.675,10.815-1.807
		c-4.711-6.804-2.955-8.007,5.293-5.211c-6.047-3.641-3.756-4.167,2.458-4.131c-6.775-1.729-6.574-2.788-0.028-4.226
		c-6.284,0.095-5.881-1.257-0.801-3.774c-6.5,1.453-7.964,0.257-3.918-4.42C102.354,120.868,100.262,118.776,102.21,112.856z"/>
	<g>
		<path fill="#FFFFFF" d="M88.837,125.731c-0.406,0.053-0.922,0.096-1.55,0.128s-1.149,0.048-1.566,0.048l-0.086-0.506
			c0.576,0,1.011-0.001,1.303-0.005v-0.171c-0.273-0.03-0.487-0.099-0.643-0.205s-0.233-0.241-0.233-0.404
			c0-0.201,0.107-0.361,0.321-0.48c0.214-0.12,0.507-0.179,0.879-0.179c0.371,0,0.664,0.06,0.879,0.179
			c0.214,0.119,0.321,0.28,0.321,0.48c0,0.163-0.076,0.298-0.228,0.404c-0.152,0.106-0.362,0.174-0.632,0.205v0.148
			c0.471-0.026,0.868-0.062,1.194-0.108L88.837,125.731z M88.689,123.849h-2.855v-0.466h2.855V123.849z M89.906,127.79H86.34v-1.069
			h2.73v-0.222h-2.741v-0.443h3.406v1.069h-2.724v0.228h2.895V127.79z M86.573,123.206v-0.455h1.416v0.455H86.573z M87.819,124.616
			c0-0.148-0.187-0.222-0.558-0.222c-0.368,0-0.552,0.074-0.552,0.222c0,0.061,0.049,0.112,0.147,0.154
			c0.099,0.042,0.233,0.062,0.404,0.062c0.174,0,0.311-0.021,0.409-0.062C87.77,124.728,87.819,124.677,87.819,124.616z
			 M90.366,124.702h-0.631v1.12H89.07v-3.116h0.665v1.444h0.631V124.702z"/>
		<path fill="#FFFFFF" d="M93.671,124.952l-0.382,0.518c-0.208-0.083-0.423-0.221-0.643-0.412s-0.381-0.397-0.483-0.617
			c-0.071,0.25-0.225,0.484-0.457,0.702c-0.233,0.218-0.474,0.369-0.72,0.452l-0.398-0.529c0.376-0.136,0.673-0.348,0.894-0.634
			c0.22-0.287,0.329-0.617,0.329-0.993v-0.5h0.688v0.466c0,0.372,0.114,0.696,0.344,0.973S93.349,124.846,93.671,124.952z
			 M94.865,126.749c0,0.311-0.154,0.558-0.461,0.742c-0.308,0.184-0.735,0.275-1.285,0.275c-0.539,0-0.961-0.092-1.266-0.275
			c-0.306-0.184-0.458-0.432-0.458-0.742c0-0.319,0.151-0.57,0.455-0.754c0.304-0.184,0.727-0.275,1.269-0.275
			c0.55,0,0.978,0.092,1.285,0.275C94.711,126.179,94.865,126.43,94.865,126.749z M93.119,126.254c-0.326,0-0.581,0.044-0.766,0.131
			c-0.184,0.087-0.275,0.208-0.275,0.364c0,0.151,0.092,0.27,0.275,0.355c0.185,0.085,0.439,0.128,0.766,0.128
			c0.337,0,0.598-0.043,0.781-0.128c0.185-0.085,0.276-0.204,0.276-0.355c0-0.156-0.092-0.277-0.276-0.364
			C93.717,126.298,93.456,126.254,93.119,126.254z M94.831,125.663h-0.666v-1.376h-0.864v-0.529h0.864v-1.052h0.666V125.663z"/>
		<path fill="#FFFFFF" d="M98.51,125.1l-0.381,0.518c-0.201-0.08-0.414-0.223-0.64-0.429c-0.226-0.207-0.39-0.422-0.492-0.646
			c-0.076,0.25-0.228,0.492-0.455,0.725c-0.228,0.233-0.463,0.397-0.705,0.492l-0.398-0.523c0.368-0.133,0.662-0.355,0.882-0.668
			s0.33-0.661,0.33-1.043v-0.535h0.683v0.5c0,0.375,0.117,0.712,0.353,1.009C97.92,124.797,98.195,124.997,98.51,125.1z
			 M99.647,127.642h-3.35v-1.644h0.665v1.121h2.685V127.642z M99.522,122.706v1.45h0.722v0.551h-0.722v1.672h-0.666v-3.674H99.522z"
			/>
		<path fill="#FFFFFF" d="M105.056,127.141h-4.578v-0.523h1.939v-1.206h0.671v1.206h1.968V127.141z M104.925,124.952l-0.313,0.523
			c-0.371-0.087-0.738-0.256-1.1-0.506c-0.362-0.25-0.612-0.533-0.748-0.847c-0.084,0.216-0.229,0.421-0.438,0.614
			c-0.208,0.193-0.435,0.352-0.68,0.475c-0.244,0.124-0.485,0.211-0.725,0.265l-0.302-0.541c0.284-0.042,0.562-0.133,0.831-0.276
			c0.269-0.142,0.498-0.337,0.688-0.585c0.189-0.249,0.284-0.515,0.284-0.799v-0.307h0.694v0.307c0,0.212,0.058,0.418,0.173,0.617
			c0.116,0.199,0.264,0.37,0.444,0.512c0.18,0.142,0.374,0.262,0.583,0.358C104.524,124.858,104.728,124.921,104.925,124.952z"/>
	</g>
	<g>
		<g>
			<g>
				<g>
					<path fill="#364546" d="M133.584,225.346c-0.134-3.107-0.452-6.931-0.644-9.182c2.884,0.184,8.342,0.092,12.569-2.545
						c0.673-0.417,0.87-1.293,0.457-1.961c-0.42-0.672-1.293-0.869-1.962-0.455c-0.184,0.119-0.377,0.226-0.569,0.325l-9.225-9.228
						c0.061-0.116,0.117-0.227,0.182-0.341c0.396-0.676,0.166-1.548-0.506-1.947c-0.674-0.402-1.547-0.173-1.944,0.502
						c-2.406,4.092-2.538,9.235-2.383,12.099c-2.218-0.197-6.179-0.527-9.375-0.667c-5.012-0.226-6.353,3.68-6.441,5.211
						c-0.006,0.042-0.006,0.088-0.006,0.135l0.386,10.853c-3.455-0.202-10.381,0-14.654,4.275c-0.913,0.913-1.506,1.994-1.812,3.305
						c-0.174,0.766,0.3,1.533,1.068,1.707c0.761,0.178,1.527-0.295,1.701-1.064c0.059-0.234,0.133-0.451,0.212-0.662l9.4,9.4
						c-0.261,0.117-0.532,0.221-0.832,0.295c-0.757,0.195-1.218,0.965-1.025,1.729c0.066,0.254,0.197,0.483,0.371,0.656
						c0.341,0.342,0.856,0.497,1.357,0.371c1.376-0.348,2.494-0.97,3.41-1.887c4.354-4.353,4.485-11.471,4.259-14.858l10.659,0.381
						c0.048,0,0.094,0,0.137-0.004C129.898,231.694,133.811,230.359,133.584,225.346z M133.768,203.204l8.77,8.77
						c-0.549,0.241-1.124,0.448-1.701,0.612l-7.686-7.685C133.317,204.323,133.53,203.754,133.768,203.204z M132.875,205.961
						l6.899,6.897c-0.668,0.152-1.332,0.259-1.98,0.334l-5.252-5.251C132.617,207.291,132.725,206.628,132.875,205.961z
						 M132.422,209.169l4.143,4.141c-1.683,0.114-3.169,0.048-4.104-0.033c-0.004-0.062-0.008-0.122-0.015-0.194
						C132.367,212.148,132.312,210.745,132.422,209.169z M130.269,218.365l-3.101-3.104c1.169,0.098,2.166,0.184,2.855,0.244
						C130.086,216.196,130.171,217.191,130.269,218.365z M125.715,215.144l4.675,4.672c0.069,0.928,0.138,1.911,0.205,2.887
						l-7.769-7.766C123.804,215.002,124.788,215.073,125.715,215.144z M120.052,214.787c0.443,0.017,0.888,0.042,1.345,0.065
						l9.277,9.277c0.028,0.461,0.053,0.908,0.07,1.341c0.024,0.513-0.017,0.939-0.104,1.306l-11.882-11.881
						C119.127,214.808,119.549,214.762,120.052,214.787z M111.308,244.26c-0.127,0.126-0.269,0.247-0.415,0.357l-9.776-9.777
						c0.108-0.144,0.23-0.277,0.363-0.409c0.277-0.277,0.572-0.526,0.879-0.766l9.715,9.715
						C111.833,243.685,111.584,243.983,111.308,244.26z M112.619,242.59l-9.471-9.469c0.509-0.32,1.04-0.597,1.59-0.83l8.715,8.713
						C113.216,241.551,112.938,242.084,112.619,242.59z M113.819,240.038l-8.111-8.112c0.63-0.215,1.27-0.384,1.898-0.516
						l3.259,3.256l3.477,3.468C114.203,238.766,114.034,239.406,113.819,240.038z M114.759,234.799
						c-0.039,0.694-0.108,1.434-0.221,2.195l-5.789-5.789c0.762-0.111,1.501-0.184,2.195-0.221L114.759,234.799z M114.505,231.027
						c0.07,0.006,0.131,0.01,0.193,0.016c0.051,0.616,0.103,1.465,0.094,2.454l-2.545-2.545
						C113.141,230.942,113.912,230.98,114.505,231.027z M116.908,226.453l2.17,2.172l-2.096-0.077L116.908,226.453z
						 M120.471,228.672l-3.61-3.613l-0.1-2.779l6.489,6.489L120.471,228.672z M124.642,228.818l-7.926-7.927l-0.099-2.782
						l10.809,10.81L124.642,228.818z M128.703,228.865l-12.037-12.037c0.129-0.457,0.43-1.105,1.133-1.548l12.456,12.456
						C129.823,228.432,129.187,228.737,128.703,228.865z"/>
				</g>
			</g>
		</g>
	</g>
	<g>
		<path d="M88.654,209.607v-4.802h1.575c1.53,0,2.296,0.758,2.296,2.274v0.141c0,0.779-0.191,1.372-0.574,1.777
			c-0.382,0.406-0.954,0.609-1.715,0.609H88.654z M89.516,208.928h0.728c0.476,0,0.824-0.128,1.043-0.382
			c0.219-0.254,0.329-0.669,0.329-1.242v-0.231c0-0.578-0.119-0.988-0.357-1.229c-0.238-0.24-0.597-0.36-1.078-0.36h-0.665V208.928z
			"/>
		<path d="M93.414,209.607v-4.802h0.966l1.995,3.388h0.021v-3.388h0.763v4.802h-0.854l-2.107-3.619h-0.021v3.619H93.414z"/>
		<path d="M97.81,209.607l1.75-4.802h0.882l1.708,4.802h-0.889l-0.434-1.218h-1.785l-0.434,1.218H97.81z M99.917,205.827
			l-0.672,1.918h1.365l-0.672-1.918H99.917z"/>
		<path d="M109.955,209.663h-5.635v-0.637h2.387v-1.394h0.826v1.394h2.422V209.663z M109.787,207.17l-0.413,0.638
			c-0.467-0.107-0.915-0.303-1.344-0.585s-0.728-0.617-0.896-1.004c-0.149,0.392-0.442,0.729-0.878,1.011
			c-0.437,0.283-0.893,0.478-1.369,0.585l-0.392-0.665c0.341-0.047,0.669-0.146,0.984-0.298c0.315-0.151,0.589-0.362,0.822-0.633
			c0.233-0.271,0.366-0.567,0.399-0.89h-1.897v-0.644h4.669v0.644h-1.897c0.033,0.317,0.172,0.614,0.417,0.89
			c0.245,0.275,0.525,0.489,0.84,0.644S109.465,207.12,109.787,207.17z"/>
		<path d="M113.511,204.587c-0.014,0.841-0.271,1.537-0.77,2.09c-0.5,0.553-1.179,0.93-2.037,1.131l-0.399-0.638
			c0.354-0.064,0.69-0.178,1.008-0.339s0.599-0.379,0.844-0.654c0.245-0.275,0.396-0.581,0.451-0.917h-2.002v-0.673H113.511z
			 M115.261,210.454h-0.826v-1.645h-3.29v-0.651h4.116V210.454z M116.143,206.359h-0.889v1.512h-0.826v-3.661h0.826v1.478h0.889
			V206.359z"/>
		<path d="M119.817,207.353c0,0.257-0.095,0.475-0.284,0.654s-0.442,0.302-0.759,0.367v0.406c0.667-0.042,1.141-0.082,1.421-0.119
			c0,0.019,0.008,0.107,0.024,0.267c0.016,0.158,0.029,0.277,0.039,0.356c-0.607,0.089-1.309,0.154-2.107,0.196
			c-0.663,0.028-1.216,0.042-1.659,0.042l-0.112-0.679c0.7,0,1.223-0.008,1.568-0.021v-0.441c-0.332-0.051-0.597-0.17-0.798-0.356
			s-0.301-0.411-0.301-0.672c0-0.309,0.14-0.561,0.42-0.756c0.28-0.196,0.635-0.294,1.064-0.294c0.434,0,0.79,0.098,1.068,0.294
			C119.678,206.792,119.817,207.044,119.817,207.353z M120.111,206.107h-3.556v-0.623h3.556V206.107z M117.472,205.218v-0.631h1.764
			v0.631H117.472z M119.005,207.353c0-0.121-0.063-0.223-0.189-0.305s-0.287-0.122-0.483-0.122c-0.191,0-0.349,0.04-0.472,0.122
			c-0.124,0.082-0.186,0.184-0.186,0.305c0,0.116,0.063,0.218,0.189,0.305c0.126,0.086,0.282,0.129,0.469,0.129
			c0.191,0,0.352-0.043,0.479-0.129C118.941,207.571,119.005,207.469,119.005,207.353z M121.357,204.209v2.548h0.805v0.673h-0.805
			v3.017h-0.812v-6.237H121.357z"/>
	</g>
	<g>
		<path d="M97.708,308.421v-4.802h1.575c1.53,0,2.296,0.759,2.296,2.275v0.14c0,0.779-0.191,1.372-0.574,1.778
			c-0.382,0.405-0.954,0.608-1.715,0.608H97.708z M98.57,307.743h0.728c0.476,0,0.824-0.127,1.043-0.382
			c0.219-0.254,0.329-0.668,0.329-1.242v-0.23c0-0.579-0.119-0.988-0.357-1.229c-0.238-0.241-0.597-0.361-1.078-0.361H98.57V307.743
			z"/>
		<path d="M101.992,308.421l1.75-4.802h0.882l1.708,4.802h-0.889l-0.434-1.218h-1.785l-0.434,1.218H101.992z M104.1,304.642
			l-0.672,1.918h1.365l-0.672-1.918H104.1z"/>
		<path d="M107.018,308.421v-4.802h1.211l1.169,3.619h0.021l1.169-3.619h1.204v4.802h-0.861v-3.73h-0.028l-1.204,3.73h-0.707
			l-1.197-3.73h-0.021v3.73H107.018z"/>
		<path d="M112.919,308.421v-4.802h1.68c0.56,0,0.982,0.126,1.267,0.378s0.427,0.618,0.427,1.1c0,0.489-0.146,0.866-0.438,1.13
			s-0.692,0.396-1.2,0.396h-0.875v1.799H112.919z M113.78,305.979h0.714c0.317,0,0.546-0.067,0.686-0.203
			c0.14-0.136,0.21-0.346,0.21-0.63c0-0.312-0.068-0.534-0.203-0.665s-0.362-0.196-0.679-0.196h-0.728V305.979z"/>
		<path d="M121.858,307.897h-0.819v-1.022h-2.464v-0.644h5.635v0.644h-2.352V307.897z M123.488,305.754h-4.192v-2.478h0.819v0.644
			h2.562v-0.65h0.812V305.754z M123.552,309.093h-4.256v-1.75h0.819v1.106h3.437V309.093z M122.677,305.104v-0.546h-2.562v0.546
			H122.677z"/>
		<path d="M127.885,307.722h-2.947v-4.193h0.812v1.498h1.309v-1.512h0.826V307.722z M127.059,307.078v-1.407h-1.309v1.407H127.059z
			 M129.781,309.262h-0.812v-6.237h0.812V309.262z"/>
	</g>
	<g>
		<path d="M98.069,328.404h-2.891v-2.919h2.891V328.404z M100.211,331.029h-4.228v-1.932h0.812v1.281h3.416V331.029z
			 M97.257,327.767v-1.651H95.99v1.651H97.257z M99.273,326.584h-0.868v-0.645h0.868v-0.979h0.812v4.521h-0.812v-1.525h-0.868
			v-0.645h0.868V326.584z"/>
		<path d="M101.502,327.869c-0.306-0.272-0.458-0.626-0.458-1.061c0-0.434,0.153-0.797,0.458-1.088
			c0.306-0.292,0.685-0.438,1.137-0.438s0.833,0.146,1.141,0.438c0.308,0.291,0.462,0.654,0.462,1.088
			c0,0.435-0.151,0.788-0.455,1.061c-0.303,0.273-0.686,0.409-1.148,0.409C102.187,328.278,101.808,328.142,101.502,327.869z
			 M101.8,328.852h4.347v2.353h-0.819v-1.701H101.8V328.852z M101.835,326.801c0,0.247,0.073,0.449,0.22,0.605
			s0.342,0.234,0.584,0.234s0.44-0.079,0.592-0.238c0.151-0.158,0.228-0.358,0.228-0.602c0-0.238-0.074-0.438-0.221-0.599
			s-0.347-0.241-0.599-0.241c-0.238,0-0.432,0.082-0.581,0.245C101.91,326.37,101.835,326.568,101.835,326.801z M104.432,327.858
			l0.021-0.686h0.875v-0.763h-0.875l-0.021-0.687h0.896v-0.763h0.819v3.57h-0.819v-0.673H104.432z"/>
		<path d="M110.192,329.097l-0.462,0.581c-0.224-0.14-0.45-0.351-0.679-0.634c-0.229-0.282-0.381-0.567-0.455-0.857
			c-0.089,0.327-0.243,0.64-0.462,0.938c-0.219,0.299-0.474,0.534-0.763,0.707l-0.483-0.561c0.411-0.266,0.731-0.635,0.962-1.105
			c0.231-0.472,0.347-1.029,0.347-1.673v-0.932h0.784v0.924c0,0.603,0.106,1.131,0.318,1.586S109.81,328.869,110.192,329.097z
			 M111.103,330.911h-0.763v-3.137h-0.84v-0.665h0.84v-2.029h0.763V330.911z M112.349,331.198h-0.777v-6.237h0.777V331.198z"/>
		<path d="M118.732,330.414h-5.635v-0.645h2.394v-1.204h-1.876v-0.65h0.917l-0.175-1.436l0.819-0.104l0.126,1.54h1.246l0.224-1.526
			l0.791,0.133l-0.259,1.394h0.882v0.65h-1.876v1.204h2.422V330.414z M118.2,326.081h-4.599v-0.651h4.599V326.081z"/>
		<path d="M121.266,326.717v-0.651h3.29v0.651h-1.196c0.135,0.602,0.583,1.013,1.344,1.232c-0.033,0.051-0.096,0.15-0.189,0.297
			c-0.093,0.147-0.165,0.261-0.217,0.34c-0.266-0.084-0.533-0.228-0.802-0.431c-0.268-0.203-0.461-0.428-0.577-0.676
			c-0.112,0.275-0.307,0.532-0.585,0.771c-0.277,0.238-0.57,0.406-0.878,0.504c-0.046-0.065-0.114-0.17-0.203-0.315
			c-0.089-0.145-0.159-0.252-0.21-0.321c0.831-0.28,1.302-0.747,1.414-1.4H121.266z M122,325.73v-0.65h1.813v0.65H122z
			 M126.152,331.121h-4.131v-2.185h4.131V331.121z M125.333,330.476v-0.924h-2.492v0.924H125.333z M126.152,328.615h-0.819v-3.654
			h0.819V328.615z"/>
		<path d="M129.651,329.811h-0.812v-1.134h-1.792v-0.651h5.635v0.651h-1.4v1.134h-0.812v-1.134h-0.819V329.811z M132.046,326.41
			c0,0.373-0.195,0.677-0.585,0.909c-0.39,0.233-0.92,0.351-1.593,0.351c-0.672,0-1.201-0.117-1.589-0.351
			c-0.387-0.232-0.581-0.536-0.581-0.909c0-0.364,0.194-0.663,0.581-0.896c0.388-0.233,0.915-0.35,1.582-0.35
			c0.672,0,1.204,0.116,1.597,0.35C131.85,325.747,132.046,326.045,132.046,326.41z M132.031,331.029h-4.27v-1.757h0.819v1.106h3.45
			V331.029z M131.198,326.417c0-0.191-0.12-0.345-0.36-0.459s-0.565-0.171-0.977-0.171c-0.401,0-0.722,0.057-0.962,0.171
			s-0.36,0.268-0.36,0.459c0,0.187,0.12,0.336,0.36,0.448c0.24,0.111,0.561,0.168,0.962,0.168c0.411,0,0.736-0.057,0.977-0.168
			C131.078,326.752,131.198,326.603,131.198,326.417z"/>
	</g>
	<g>
		<path fill="#72AF2D" d="M115.155,84.888c-0.664,0-1.274,0.225-1.762,0.601c-0.482-2.539-2.711-4.459-5.39-4.459
			c-0.037,0-0.074,0.002-0.111,0.003c-0.664-4.171-4.277-7.359-8.634-7.359c-4.305,0-7.882,3.112-8.608,7.209
			c-1.006-1.16-2.49-1.894-4.145-1.894c-3.031,0-5.488,2.457-5.488,5.488c0,0.039,0.002,0.078,0.003,0.116
			c-0.321-0.075-0.656-0.116-1.001-0.116c-2.418,0-4.378,1.96-4.378,4.378c0,2.418,1.96,4.379,4.378,4.379
			c0.922,0,1.777-0.286,2.483-0.772c0.589,2.553,2.874,4.457,5.606,4.457c1.779,0,3.37-0.808,4.425-2.076
			c1.037,1.515,2.778,2.509,4.752,2.509c2.38,0,4.422-1.445,5.298-3.505c0.672,0.427,1.468,0.675,2.323,0.675
			c1.574,0,2.952-0.838,3.713-2.092c0.502,1.245,1.72,2.123,3.145,2.123c1.872,0,3.39-1.518,3.39-3.39
			c0-0.172-0.013-0.34-0.038-0.505c0.013,0,0.025,0.001,0.038,0.001c1.594,0,2.886-1.292,2.886-2.886
			C118.041,86.18,116.749,84.888,115.155,84.888z"/>
		<g>
			<path d="M79.922,87.667c1.041,0,1.855-0.061,2.443-0.182c0.019,0.154,0.056,0.362,0.112,0.623
				c-0.606,0.145-1.526,0.217-2.758,0.217H79.11v-2.947h2.779v0.644h-1.967V87.667z M83.926,90.922h-4.144v-1.988h0.819v1.33h3.325
				V90.922z M84.668,87.24h-0.889v2.128h-0.826v-4.501h0.826v1.701h0.889V87.24z"/>
			<path d="M87.713,88.122h-2.527v-2.863h0.826v0.84h0.875v-0.847h0.826V88.122z M85.942,88.815h4.326v2.296h-0.819v-1.645h-3.507
				V88.815z M86.887,87.471v-0.735h-0.875v0.735H86.887z M90.268,88.5h-0.784v-1.505h-0.469v1.435h-0.763v-3.451h0.763v1.358h0.469
				v-1.47h0.784V88.5z"/>
			<path d="M91.297,85.854v-0.651h3.29v0.651h-1.176c0.051,0.373,0.202,0.682,0.452,0.927c0.25,0.245,0.552,0.423,0.906,0.536
				l-0.448,0.637c-0.243-0.088-0.494-0.245-0.752-0.469c-0.259-0.224-0.457-0.467-0.592-0.728c-0.093,0.299-0.278,0.574-0.553,0.826
				c-0.275,0.252-0.57,0.434-0.882,0.546l-0.49-0.623c0.896-0.332,1.391-0.882,1.484-1.652H91.297z M96.365,91.055h-4.291v-1.666
				h3.283V88.99h-3.325v-0.651h4.137v1.652h-3.269v0.406h3.465V91.055z M96.168,88.024h-0.812v-3.157h0.812V88.024z"/>
			<path d="M101.131,90.817h-0.77v-2.905h-0.532c-0.037,0.551-0.169,1.005-0.396,1.362c-0.226,0.357-0.544,0.535-0.955,0.535
				c-0.304,0-0.56-0.109-0.77-0.329c-0.21-0.22-0.358-0.493-0.445-0.819s-0.129-0.693-0.129-1.099c0-0.401,0.043-0.763,0.129-1.085
				c0.086-0.322,0.235-0.592,0.445-0.812c0.21-0.219,0.466-0.329,0.77-0.329c0.415,0,0.735,0.178,0.959,0.535
				c0.224,0.357,0.354,0.813,0.392,1.369h0.532v-2.254h0.77V90.817z M98.933,88.661c0.098-0.28,0.147-0.644,0.147-1.092
				c0-0.448-0.049-0.813-0.147-1.096c-0.098-0.282-0.247-0.423-0.448-0.423c-0.191,0-0.336,0.141-0.434,0.423
				c-0.098,0.283-0.147,0.647-0.147,1.096c0,0.443,0.049,0.806,0.147,1.088s0.243,0.423,0.434,0.423
				C98.686,89.081,98.835,88.941,98.933,88.661z M102.377,91.104h-0.77v-6.237h0.77V91.104z"/>
			<path d="M108.173,85.133c0,0.425-0.081,0.814-0.242,1.169c-0.161,0.354-0.377,0.652-0.647,0.893s-0.567,0.44-0.889,0.599
				c-0.322,0.159-0.665,0.275-1.029,0.35l-0.399-0.665c0.574-0.079,1.073-0.268,1.498-0.567c0.425-0.298,0.69-0.665,0.798-1.099
				h-1.995v-0.679H108.173z M110.315,91.062h-4.291v-1.68h3.283v-0.434h-3.318v-0.651h4.13v1.68h-3.269v0.427h3.465V91.062z
				 M110.119,87.989h-0.812v-0.532h-1.169v-0.616h1.169v-0.525h-1.057V85.7h1.057v-0.833h0.812V87.989z"/>
			<path d="M114.626,86.526h-3.654V85.91h3.654V86.526z M114.312,87.667c0,0.303-0.139,0.548-0.417,0.735s-0.631,0.28-1.061,0.28
				c-0.434,0-0.793-0.093-1.078-0.28s-0.427-0.432-0.427-0.735c0-0.294,0.142-0.536,0.427-0.725s0.644-0.284,1.078-0.284
				c0.425,0,0.777,0.095,1.057,0.284C114.171,87.131,114.312,87.373,114.312,87.667z M115.9,91.055h-4.046V88.85h0.812v0.483h2.415
				v-0.49h0.819V91.055z M111.911,85.616v-0.623h1.848v0.623H111.911z M112.148,87.667c0,0.126,0.066,0.226,0.2,0.301
				c0.133,0.075,0.295,0.112,0.486,0.112c0.187,0,0.345-0.037,0.476-0.112c0.13-0.075,0.196-0.175,0.196-0.301
				c0-0.122-0.065-0.22-0.196-0.294c-0.131-0.074-0.29-0.112-0.476-0.112c-0.196,0-0.359,0.038-0.49,0.112
				C112.214,87.447,112.148,87.545,112.148,87.667z M115.082,90.411V89.97h-2.415v0.441H115.082z M116.775,87.24H115.9v1.309h-0.819
				v-3.682h0.819v1.701h0.875V87.24z"/>
		</g>
	</g>
	<g>
		<path d="M105.438,272.504l-0.594,0.746c-0.288-0.18-0.579-0.451-0.873-0.814c-0.294-0.362-0.489-0.73-0.585-1.103
			c-0.114,0.421-0.312,0.822-0.594,1.206c-0.282,0.385-0.609,0.688-0.981,0.909l-0.621-0.72c0.528-0.342,0.941-0.816,1.238-1.422
			c0.297-0.606,0.445-1.323,0.445-2.151v-1.197h1.008v1.188c0,0.774,0.136,1.453,0.409,2.038S104.946,272.21,105.438,272.504z
			 M106.608,274.834h-0.981v-4.031h-1.08v-0.855h1.08v-2.609h0.981V274.834z M108.21,275.204h-0.999v-8.019h0.999V275.204z"/>
		<path d="M116.418,274.196h-7.245v-0.828h3.078v-1.548h-2.412v-0.837h1.179l-0.225-1.845l1.053-0.136l0.162,1.98h1.602l0.288-1.962
			l1.017,0.171l-0.333,1.791h1.134v0.837h-2.412v1.548h3.114V274.196z M115.734,268.625h-5.913v-0.837h5.913V268.625z"/>
		<path d="M124.698,273.341c-1.565,0.186-3.315,0.278-5.247,0.278c-0.036-0.222-0.087-0.504-0.153-0.846
			c0.732,0,1.281-0.003,1.647-0.009v-2.178h0.999v2.142c0.99-0.03,1.875-0.093,2.655-0.189
			C124.623,272.762,124.656,273.029,124.698,273.341z M123.942,268.067c0,1.554-0.087,2.721-0.261,3.501
			c-0.223-0.03-0.562-0.069-1.018-0.117c0.15-0.852,0.226-1.697,0.226-2.538h-3.042v-0.846H123.942z M126.094,267.185v8.019h-1.054
			v-8.019H126.094z"/>
		<path d="M131.935,272.504c-0.072,0.09-0.176,0.222-0.311,0.396c-0.136,0.174-0.239,0.303-0.311,0.387
			c-0.366-0.233-0.735-0.563-1.107-0.989c-0.372-0.427-0.621-0.844-0.747-1.251c-0.132,0.449-0.378,0.901-0.738,1.354
			c-0.359,0.452-0.747,0.802-1.16,1.048c-0.295-0.359-0.511-0.615-0.648-0.765c1.326-0.853,1.989-2.094,1.989-3.727v-1.098h1.089
			v1.044c0,0.78,0.169,1.477,0.509,2.088C130.838,271.604,131.316,272.108,131.935,272.504z M133.374,267.185v3.087h1.152v0.864
			h-1.152v4.067h-1.044v-8.019H133.374z"/>
	</g>
	<g>
		<path d="M104.768,5.985c1.374,0,2.43-0.081,3.168-0.243c0.012,0.096,0.031,0.234,0.059,0.414c0.027,0.18,0.046,0.318,0.058,0.414
			c-0.756,0.174-1.944,0.261-3.564,0.261h-0.765V1.314h3.681v0.828h-2.637V3.6h2.493v0.837h-2.493V5.985z M109.682,0.612v3.024
			h1.116V4.5h-1.116v4.131h-1.053V0.612H109.682z"/>
		<path d="M111.981,6.102c-0.369-0.522-0.553-1.212-0.553-2.07c0-0.858,0.185-1.551,0.553-2.079
			c0.369-0.528,0.875-0.792,1.517-0.792c0.648,0,1.157,0.264,1.525,0.792c0.369,0.528,0.554,1.221,0.554,2.079
			c0,0.852-0.185,1.541-0.554,2.066c-0.369,0.525-0.877,0.787-1.525,0.787C112.856,6.885,112.351,6.624,111.981,6.102z
			 M114.569,4.032c0-0.624-0.099-1.117-0.297-1.48c-0.198-0.363-0.456-0.544-0.774-0.544c-0.306,0-0.557,0.182-0.751,0.544
			c-0.195,0.363-0.292,0.857-0.292,1.48c0,0.618,0.098,1.107,0.292,1.467s0.445,0.54,0.751,0.54c0.318,0,0.576-0.18,0.774-0.54
			C114.47,5.139,114.569,4.65,114.569,4.032z M117.827,8.631h-1.044V0.612h1.044V8.631z"/>
		<path d="M122.525,5.715l0.108,0.81c-0.624,0.156-1.536,0.234-2.736,0.234h-0.648V3.555h1.791v-1.26h-1.791V1.449h2.835v2.943
			h-1.773v1.503C121.181,5.895,121.919,5.835,122.525,5.715z M124.263,8.262h-0.981V4.383h-0.873V3.537h0.873V0.765h0.981V8.262z
			 M125.811,8.631h-1.008V0.612h1.008V8.631z"/>
		<path d="M133.128,3.258h-2.214v0.693h3.104v0.846h-7.245V3.951h3.078V3.258h-2.105V0.765h1.053v1.656h4.329V3.258z M133.353,8.595
			h-5.688V6.543h4.347V6.102h-4.365V5.265h5.409v2.016h-4.347V7.74h4.644V8.595z"/>
		<path d="M135.92,8.336c-0.747-0.933-1.12-1.997-1.12-3.192V4.992c0-1.184,0.373-2.242,1.12-3.176h0.2
			c-0.752,0.939-1.128,1.989-1.128,3.152v0.184c0,1.184,0.376,2.246,1.128,3.184H135.92z"/>
		<path d="M136.863,4.456c0-0.72,0.157-1.292,0.473-1.716c0.314-0.424,0.709-0.636,1.184-0.636c0.47,0,0.86,0.213,1.172,0.64
			c0.312,0.427,0.469,1,0.469,1.72c0,0.704-0.158,1.273-0.473,1.708s-0.704,0.652-1.168,0.652c-0.475,0-0.869-0.217-1.184-0.652
			C137.021,5.737,136.863,5.166,136.863,4.456z M137.08,4.456c0,0.64,0.139,1.156,0.416,1.548s0.618,0.588,1.023,0.588
			s0.745-0.194,1.021-0.584c0.274-0.389,0.412-0.904,0.412-1.544c0-0.65-0.138-1.17-0.412-1.56
			c-0.275-0.389-0.615-0.584-1.021-0.584s-0.746,0.193-1.023,0.58S137.08,3.805,137.08,4.456z M143.176,4.672h-1.256v3.784h-0.216
			V1.52h0.216v2.936h1.256V4.672z"/>
		<path d="M147.111,6.504L146.96,6.68c-0.353-0.229-0.678-0.554-0.977-0.976s-0.504-0.848-0.616-1.28
			c-0.074,0.454-0.265,0.907-0.571,1.36c-0.307,0.454-0.655,0.806-1.044,1.056l-0.145-0.176c0.513-0.299,0.915-0.726,1.208-1.28
			c0.294-0.555,0.44-1.168,0.44-1.84v-1.32h0.231v1.328c0,0.629,0.157,1.209,0.473,1.74C146.274,5.823,146.658,6.227,147.111,6.504z
			 M148.031,8.056h-0.208V4.384h-1.479V4.176h1.479V1.728h0.208V8.056z M149.424,8.456h-0.2V1.52h0.2V8.456z"/>
		<path d="M156.8,7.488h-6.256V7.272h3.016v-1.76h-2.136V2.176h4.544v0.208h-4.328v1.312h4.176v0.208h-4.176v1.408h4.392v0.2h-2.256
			v1.76h3.024V7.488z"/>
		<path d="M157.623,4.456c0-0.72,0.157-1.292,0.473-1.716c0.314-0.424,0.709-0.636,1.184-0.636c0.47,0,0.86,0.213,1.172,0.64
			c0.312,0.427,0.469,1,0.469,1.72c0,0.704-0.158,1.273-0.473,1.708s-0.704,0.652-1.168,0.652c-0.475,0-0.869-0.217-1.184-0.652
			C157.78,5.737,157.623,5.166,157.623,4.456z M157.84,4.456c0,0.64,0.139,1.156,0.416,1.548s0.618,0.588,1.023,0.588
			s0.745-0.194,1.021-0.584c0.274-0.389,0.412-0.904,0.412-1.544c0-0.65-0.138-1.17-0.412-1.56
			c-0.275-0.389-0.615-0.584-1.021-0.584s-0.746,0.193-1.023,0.58S157.84,3.805,157.84,4.456z M163.936,4.672h-1.256v3.784h-0.216
			V1.52h0.216v2.936h1.256V4.672z"/>
		<path d="M167.848,6.6h-3.008V2.264h3.008V6.6z M167.623,6.392V2.48h-2.584v3.912H167.623z M169.959,8.456h-0.199V1.52h0.199V8.456
			z"/>
		<path d="M177.56,7.448h-6.256V7.232h3.016V5.056h-2.168V2.168h0.208v2.68h4.448v0.208h-2.272v2.176h3.024V7.448z"/>
		<path d="M181.799,5.032l0.032,0.192c-0.288,0.042-0.869,0.093-1.744,0.152c-0.181,0.011-0.783,0.032-1.808,0.064l-0.048-0.232
			c0.191,0,0.501-0.005,0.928-0.016l-0.224-2.152l0.239-0.032l0.2,2.176l0.696-0.032l0.456-0.016l0.224-2.152l0.232,0.032
			l-0.272,2.112C181.213,5.096,181.575,5.064,181.799,5.032z M181.583,2.464h-3.224v-0.2h3.224V2.464z M184.215,8.152h-4.584v-2.12
			h0.208v1.92h4.376V8.152z M182.728,6.528h-0.2V3.856h-1.168V3.64h1.168V1.68h0.2V6.528z M183.991,6.72h-0.216V1.528h0.216V6.72z"
			/>
		<path d="M185.079,8.336c0.747-0.944,1.12-2,1.12-3.168V4.984c0-1.168-0.373-2.224-1.12-3.168h0.185
			c0.757,0.912,1.136,1.971,1.136,3.176v0.152c0,1.216-0.379,2.28-1.136,3.192H185.079z"/>
	</g>
	<g>
		<path d="M105.078,59.143c-0.198,0.066-0.562,0.125-1.093,0.175c-0.531,0.051-1.04,0.077-1.526,0.077l-0.72-0.009v-3.465h1.044
			v2.601c0.978,0,1.71-0.072,2.196-0.216L105.078,59.143z M108.201,63.409h-5.409V60.25h1.062v0.819h3.294v-0.837h1.053V63.409z
			 M107.148,62.572v-0.684h-3.294v0.684H107.148z M108.201,59.89h-0.999v-1.746h-0.756v1.665h-0.981v-4.176h0.981v1.665h0.756
			v-1.809h0.999V59.89z"/>
		<path d="M113.799,56.065c0,1.254-0.084,2.34-0.252,3.258c0.42-0.03,0.723-0.06,0.909-0.09l0.063,0.783
			c-0.618,0.078-1.377,0.141-2.277,0.189v2.925h-1.053v-2.862c-0.78,0.03-1.434,0.045-1.962,0.045l-0.144-0.828
			c1.182,0,2.325-0.033,3.429-0.099c0.072-0.354,0.126-0.699,0.162-1.035c-0.39,0.036-0.957,0.087-1.701,0.153
			c-0.744,0.066-1.176,0.105-1.296,0.117c-0.054-0.348-0.102-0.633-0.144-0.855l3.186-0.198c0.012-0.288,0.018-0.516,0.018-0.684
			h-2.952v-0.819H113.799z M115.941,55.489v8.019h-1.044v-8.019H115.941z"/>
		<path d="M118.786,63.364c-0.486-0.456-0.885-1.002-1.197-1.638c-0.312-0.636-0.468-1.338-0.468-2.106v-0.162
			c0-0.768,0.156-1.469,0.468-2.102s0.711-1.178,1.197-1.634h0.891c-0.444,0.492-0.804,1.053-1.08,1.683
			c-0.276,0.63-0.414,1.287-0.414,1.971v0.252c0,0.678,0.141,1.349,0.423,2.011c0.282,0.663,0.639,1.238,1.071,1.724H118.786z"/>
		<path d="M120.486,62.428v-6.174h1.242l2.565,4.356h0.026v-4.356h0.981v6.174h-1.099l-2.709-4.653h-0.027v4.653H120.486z"/>
		<path d="M126.139,62.428l2.25-6.174h1.134l2.196,6.174h-1.143l-0.559-1.566h-2.295l-0.558,1.566H126.139z M128.848,57.568
			l-0.864,2.466h1.755l-0.863-2.466H128.848z"/>
		<path d="M132.601,62.428v-6.174h2.16c0.72,0,1.263,0.162,1.629,0.486c0.366,0.324,0.549,0.795,0.549,1.413
			c0,0.63-0.188,1.115-0.562,1.454s-0.89,0.508-1.543,0.508h-1.125v2.313H132.601z M133.708,59.287h0.918
			c0.408,0,0.702-0.087,0.882-0.261c0.18-0.174,0.27-0.444,0.27-0.81c0-0.402-0.087-0.687-0.261-0.855s-0.465-0.252-0.873-0.252
			h-0.936V59.287z"/>
		<path d="M143.248,59.413c0,0.744-0.152,1.345-0.455,1.804s-0.733,0.77-1.291,0.932l1.935,0.441l-0.225,0.909l-3.483-1.008
			c-0.678-0.192-1.194-0.531-1.548-1.017c-0.354-0.486-0.531-1.164-0.531-2.034v-0.198c0-0.978,0.257-1.737,0.77-2.277
			s1.198-0.81,2.057-0.81c0.846,0,1.52,0.263,2.021,0.788s0.752,1.286,0.752,2.281V59.413z M140.458,61.69
			c0.527,0,0.928-0.192,1.201-0.576c0.272-0.384,0.409-0.9,0.409-1.548v-0.315c0-1.482-0.549-2.226-1.646-2.232
			c-0.522,0-0.918,0.188-1.188,0.562c-0.27,0.375-0.405,0.886-0.405,1.534v0.315C138.828,60.937,139.371,61.69,140.458,61.69z"/>
		<path d="M144.417,62.428v-6.174h1.116v6.174H144.417z"/>
		<path d="M146.37,63.364c0.444-0.486,0.804-1.045,1.08-1.678c0.276-0.633,0.414-1.292,0.414-1.976v-0.261
			c0-0.672-0.14-1.341-0.418-2.007c-0.279-0.666-0.638-1.239-1.076-1.719h0.892c0.479,0.456,0.876,1.002,1.188,1.638
			c0.312,0.636,0.468,1.335,0.468,2.097v0.162c0,0.768-0.156,1.47-0.468,2.106c-0.312,0.636-0.708,1.182-1.188,1.638H146.37z"/>
	</g>
	<g>
		<line fill="#72AF2D" x1="120.528" y1="64.853" x2="120.528" y2="75.706"/>
		<g>
			
				<line fill="none" stroke="#396BB4" stroke-width="5.5" stroke-miterlimit="10" x1="120.528" y1="64.853" x2="120.528" y2="71.368"/>
			<g>
				<polygon fill="#396BB4" points="125.54,70.696 115.517,70.696 120.528,75.706 				"/>
			</g>
		</g>
	</g>
	<g>
		<line fill="#72AF2D" x1="120.528" y1="106.35" x2="120.528" y2="117.203"/>
		<g>
			
				<line fill="none" stroke="#396BB4" stroke-width="5.5" stroke-miterlimit="10" x1="120.528" y1="106.35" x2="120.528" y2="112.866"/>
			<g>
				<polygon fill="#396BB4" points="125.54,112.194 115.517,112.194 120.528,117.203 				"/>
			</g>
		</g>
	</g>
	<g>
		<line fill="#72AF2D" x1="120.528" y1="147.576" x2="120.528" y2="158.429"/>
		<g>
			
				<line fill="none" stroke="#396BB4" stroke-width="5.5" stroke-miterlimit="10" x1="120.528" y1="147.576" x2="120.528" y2="154.091"/>
			<g>
				<polygon fill="#396BB4" points="125.54,153.419 115.517,153.419 120.528,158.429 				"/>
			</g>
		</g>
	</g>
	<g>
		<line fill="#72AF2D" x1="120.528" y1="187.834" x2="120.528" y2="198.687"/>
		<g>
			
				<line fill="none" stroke="#396BB4" stroke-width="5.5" stroke-miterlimit="10" x1="120.528" y1="187.834" x2="120.528" y2="194.349"/>
			<g>
				<polygon fill="#396BB4" points="125.54,193.677 115.517,193.677 120.528,198.687 				"/>
			</g>
		</g>
	</g>
	<g>
		<line fill="#72AF2D" x1="120.528" y1="245.512" x2="120.528" y2="256.364"/>
		<g>
			
				<line fill="none" stroke="#396BB4" stroke-width="5.5" stroke-miterlimit="10" x1="120.528" y1="245.512" x2="120.528" y2="252.027"/>
			<g>
				<polygon fill="#396BB4" points="125.54,251.355 115.517,251.355 120.528,256.364 				"/>
			</g>
		</g>
	</g>
	<g>
		<line fill="#72AF2D" x1="114.985" y1="287.705" x2="114.985" y2="298.558"/>
		<g>
			
				<line fill="none" stroke="#396BB4" stroke-width="5.5" stroke-miterlimit="10" x1="114.985" y1="287.705" x2="114.985" y2="294.22"/>
			<g>
				<polygon fill="#396BB4" points="119.996,293.548 109.974,293.548 114.985,298.558 				"/>
			</g>
		</g>
	</g>
	<g>
		<line fill="#72AF2D" x1="114.729" y1="310.673" x2="114.729" y2="321.526"/>
		<g>
			
				<line fill="none" stroke="#396BB4" stroke-width="5.5" stroke-miterlimit="10" x1="114.729" y1="310.673" x2="114.729" y2="317.188"/>
			<g>
				<polygon fill="#396BB4" points="119.74,316.516 109.718,316.516 114.729,321.526 				"/>
			</g>
		</g>
	</g>
	<g>
		<line fill="#72AF2D" x1="114.729" y1="333.205" x2="114.729" y2="344.058"/>
		<g>
			
				<line fill="none" stroke="#396BB4" stroke-width="5.5" stroke-miterlimit="10" x1="114.729" y1="333.205" x2="114.729" y2="339.72"/>
			<g>
				<polygon fill="#396BB4" points="119.74,339.048 109.718,339.048 114.729,344.058 				"/>
			</g>
		</g>
	</g>
	<g>
		<path d="M79.099,153.319v4.074h-2.961v-4.074H79.099z M78.273,156.742v-2.772h-1.316v2.772H78.273z M81.01,158.982h-0.819v-6.237
			h0.819V158.982z"/>
		<path d="M86.897,156.49h-1.778v1.064h2.422v0.644h-5.635v-0.644H84.3v-1.064h-1.68v-3.311h4.221v0.651h-3.402v0.693h3.192v0.644
			h-3.192v0.672h3.458V156.49z"/>
		<path d="M93.596,156.546H87.96v-0.658h2.107v-0.854h0.812v0.854h2.716V156.546z M92.938,152.997c0,1.181-0.065,2.046-0.196,2.597
			l-0.791-0.084c0.065-0.248,0.109-0.522,0.133-0.826l-3.528,0.168l-0.098-0.623l3.654-0.147v-0.434h-3.437v-0.651H92.938z
			 M92.952,158.814h-4.27v-1.876h0.812v1.232h3.458V158.814z"/>
		<path d="M99.65,157.512v0.651h-5.635v-0.651H99.65z M98.999,156.196h-4.263v-2.926h4.207v0.658h-3.395v1.617h3.451V156.196z"/>
		<path d="M103.864,156.7l0.091,0.651c-0.667,0.136-1.626,0.203-2.877,0.203h-0.658v-2.59h2.023v-1.036h-2.051v-0.651h2.877v2.338
			h-2.037v1.267C102.329,156.882,103.206,156.822,103.864,156.7z M104.41,152.745h0.812v6.237h-0.812V152.745z"/>
		<path d="M106.173,155.405c0-0.667,0.145-1.207,0.434-1.617c0.29-0.411,0.684-0.616,1.183-0.616c0.504,0,0.899,0.205,1.187,0.616
			s0.431,0.95,0.431,1.617c0,0.663-0.144,1.198-0.431,1.606s-0.683,0.612-1.187,0.612c-0.5,0-0.894-0.204-1.183-0.612
			C106.318,156.604,106.173,156.068,106.173,155.405z M108.624,155.405c0-0.485-0.077-0.869-0.231-1.151
			c-0.154-0.283-0.354-0.424-0.602-0.424c-0.238,0-0.434,0.141-0.588,0.424c-0.154,0.282-0.231,0.666-0.231,1.151
			c0,0.48,0.077,0.861,0.231,1.141c0.154,0.28,0.35,0.42,0.588,0.42c0.248,0,0.448-0.14,0.602-0.42
			C108.546,156.266,108.624,155.886,108.624,155.405z M111.003,152.745v2.394h0.924v0.679h-0.924v3.164h-0.833v-6.237H111.003z"/>
		<path d="M79.064,167.389h-0.819v-1.995h-2.394v-0.651h5.635v0.651h-2.422V167.389z M80.576,163.175h-3.192v0.427h3.451v0.651
			h-4.263v-2.814h4.214v0.658h-3.402v0.434h3.192V163.175z"/>
		<path d="M85.728,165.919c-0.542,0.07-1.284,0.133-2.226,0.189c-0.644,0.028-1.19,0.042-1.638,0.042l-0.105-0.665
			c0.574,0,1.001-0.002,1.281-0.007v-1.757h0.784v1.722c0.803-0.042,1.417-0.091,1.841-0.147L85.728,165.919z M85.441,161.824
			c0,1.19-0.07,2.098-0.21,2.723l-0.784-0.084c0.107-0.499,0.161-1.159,0.161-1.981h-2.457v-0.658H85.441z M87.667,164.372h-0.826
			v3.01h-0.812v-6.237h0.812v2.555h0.826V164.372z"/>
		<path d="M91.691,163.91l-0.469,0.637c-0.257-0.103-0.521-0.271-0.791-0.507c-0.271-0.235-0.469-0.489-0.595-0.759
			c-0.089,0.308-0.276,0.596-0.563,0.864c-0.287,0.269-0.582,0.454-0.885,0.557l-0.49-0.651c0.462-0.168,0.828-0.428,1.099-0.781
			c0.271-0.352,0.406-0.759,0.406-1.221v-0.616h0.847v0.574c0,0.458,0.141,0.856,0.423,1.197S91.295,163.779,91.691,163.91z
			 M93.162,166.122c0,0.383-0.189,0.687-0.567,0.914c-0.378,0.226-0.906,0.339-1.582,0.339c-0.663,0-1.182-0.113-1.558-0.339
			c-0.376-0.227-0.563-0.531-0.563-0.914c0-0.392,0.187-0.701,0.56-0.927c0.373-0.227,0.894-0.34,1.561-0.34
			c0.676,0,1.204,0.113,1.582,0.34C92.973,165.421,93.162,165.73,93.162,166.122z M91.013,165.513c-0.402,0-0.715,0.054-0.942,0.161
			c-0.226,0.107-0.339,0.256-0.339,0.448c0,0.187,0.113,0.333,0.339,0.438c0.227,0.105,0.54,0.158,0.942,0.158
			c0.415,0,0.736-0.053,0.962-0.158c0.226-0.105,0.339-0.251,0.339-0.438c0-0.191-0.113-0.34-0.339-0.448
			C91.749,165.567,91.428,165.513,91.013,165.513z M93.12,164.785H92.3v-1.694h-1.064v-0.651H92.3v-1.295h0.819V164.785z"/>
		<path d="M76.068,170.714v-0.672h3.29v0.672h-1.197c0.004,0.453,0.141,0.848,0.41,1.187c0.268,0.338,0.594,0.568,0.976,0.689
			l-0.448,0.644c-0.248-0.093-0.503-0.259-0.767-0.497c-0.264-0.238-0.458-0.495-0.584-0.77c-0.093,0.299-0.281,0.587-0.563,0.865
			s-0.578,0.47-0.885,0.578l-0.483-0.644c0.458-0.168,0.823-0.432,1.096-0.791s0.41-0.772,0.41-1.239v-0.021H76.068z
			 M81.143,175.614h-4.305v-1.967h0.826v1.323h3.479V175.614z M81.01,174.067h-0.819v-2.205h-0.938v-0.658h0.938v-1.659h0.819
			V174.067z"/>
		<path d="M82.511,173.815c-0.287-0.406-0.431-0.942-0.431-1.61s0.144-1.207,0.431-1.617s0.68-0.616,1.18-0.616
			c0.504,0,0.899,0.205,1.187,0.616c0.287,0.411,0.43,0.95,0.43,1.617c0,0.663-0.144,1.198-0.43,1.606
			c-0.287,0.408-0.683,0.612-1.187,0.612C83.191,174.424,82.798,174.221,82.511,173.815z M84.524,172.205
			c0-0.485-0.077-0.869-0.231-1.151c-0.154-0.283-0.355-0.424-0.602-0.424c-0.238,0-0.433,0.141-0.584,0.424
			c-0.152,0.282-0.228,0.666-0.228,1.151c0,0.48,0.076,0.861,0.228,1.141c0.151,0.28,0.346,0.42,0.584,0.42
			c0.247,0,0.448-0.14,0.602-0.42C84.447,173.066,84.524,172.686,84.524,172.205z M87.058,175.782h-0.812v-6.237h0.812V175.782z"/>
	</g>
	<g>
		<line x1="77.325" y1="282.859" x2="162.685" y2="282.859"/>
		<g>
			
				<line fill="none" stroke="#FFFFFF" stroke-width="4" stroke-miterlimit="10" x1="77.325" y1="282.859" x2="80.325" y2="282.859"/>
			
				<line fill="none" stroke="#FFFFFF" stroke-width="4" stroke-miterlimit="10" stroke-dasharray="6.3488,3.1744" x1="83.5" y1="282.859" x2="158.098" y2="282.859"/>
			
				<line fill="none" stroke="#FFFFFF" stroke-width="4" stroke-miterlimit="10" x1="159.685" y1="282.859" x2="162.685" y2="282.859"/>
		</g>
	</g>
	<g>
		<g>
			<path d="M94.697,417.12c-0.006,1.104-0.349,2.029-1.03,2.776s-1.543,1.253-2.587,1.517l-0.522-0.837
				c0.72-0.126,1.369-0.422,1.948-0.887s0.932-1.03,1.058-1.696h-2.601v-0.873H94.697z M97.137,424.292h-5.355v-2.583h1.062v1.746
				h4.293V424.292z M98.082,419.658h-1.143v2.655h-1.062v-5.806h1.062v2.286h1.143V419.658z"/>
			<path d="M104.948,424.536h-1.062v-2.853h-3.069v-0.828h7.245v0.828h-3.114V424.536z M107.765,419.333l-0.459,0.855
				c-0.606-0.09-1.187-0.31-1.741-0.657c-0.555-0.348-0.929-0.738-1.121-1.17c-0.174,0.432-0.536,0.82-1.084,1.165
				c-0.549,0.346-1.136,0.569-1.759,0.671l-0.45-0.864c0.732-0.078,1.371-0.327,1.917-0.747s0.819-0.918,0.819-1.494v-0.414h1.116
				v0.414c0,0.385,0.143,0.744,0.427,1.08c0.285,0.336,0.636,0.604,1.053,0.802C106.9,419.171,107.327,419.292,107.765,419.333z"/>
			<path d="M113.48,421.592l0.117,0.837c-0.858,0.175-2.091,0.262-3.699,0.262h-0.846v-3.33h2.601v-1.332h-2.637v-0.837h3.699v3.006
				h-2.619v1.629C111.506,421.827,112.634,421.749,113.48,421.592z M114.182,416.507h1.044v8.02h-1.044V416.507z"/>
			<path d="M116.126,424.382l2.151-7.641h0.9l-2.142,7.641H116.126z"/>
			<path d="M124.163,420.467c0,0.343-0.131,0.634-0.392,0.873c-0.262,0.24-0.607,0.394-1.04,0.459v0.612
				c0.937-0.054,1.617-0.108,2.043-0.162l0.09,0.801c-1.662,0.187-3.372,0.279-5.129,0.279l-0.135-0.854
				c0.462,0,1.155-0.006,2.079-0.019v-0.666c-0.414-0.078-0.746-0.233-0.994-0.468c-0.249-0.234-0.374-0.519-0.374-0.855
				c0-0.407,0.18-0.739,0.54-0.994c0.36-0.255,0.819-0.383,1.377-0.383c0.564,0,1.027,0.128,1.39,0.383
				S124.163,420.06,124.163,420.467z M124.541,418.875h-4.68v-0.792h4.68V418.875z M121.058,417.723v-0.792h2.331v0.792H121.058z
				 M122.854,420.873c0.165-0.114,0.247-0.249,0.247-0.405c0-0.155-0.082-0.289-0.247-0.4c-0.165-0.11-0.374-0.166-0.625-0.166
				c-0.246,0-0.452,0.056-0.617,0.166c-0.165,0.111-0.248,0.245-0.248,0.4c0,0.156,0.083,0.291,0.248,0.405s0.371,0.171,0.617,0.171
				C122.48,421.043,122.688,420.987,122.854,420.873z M126.287,416.507v8.02h-1.054v-8.02H126.287z"/>
			<path d="M133.712,419.694h-2.188v0.729h3.114v0.847h-7.245v-0.847h3.078v-0.729h-2.151v-3.061h1.054v0.811h3.294v-0.828h1.044
				V419.694z M128.249,421.88h5.454v2.655h-1.044v-1.818h-4.41V421.88z M132.668,418.857v-0.604h-3.294v0.604H132.668z"/>
		</g>
	</g>
	<path fill="#EB602C" d="M123.578,349.126c-4.381,7.557-7.583,7.839-9.968-1.493c-2.148,8.212-5.806,8.405-11.249,1.362
		c4.029,8.813,2.428,10.798-7.485,5.255c7.693,7.836,5.71,9.618-6.086,7.897c8.866,3.413,13.053,6.298,0.73,9.32
		c13.515-0.518,14.861,1.912,5.942,11.18c11.28-7.322,14.608-7.115,17.107,4.431c2.959-11.001,6.449-10.616,14.96-2.5
		c-6.517-9.412-4.088-11.075,7.321-7.208c-8.365-5.036-5.195-5.764,3.4-5.714c-9.371-2.392-9.093-3.857-0.039-5.846
		c-8.692,0.131-8.135-1.739-1.108-5.22c-8.991,2.009-11.016,0.356-5.42-6.114C123.778,360.208,120.883,357.314,123.578,349.126z"/>
	<g>
		<path d="M101.377,364.066c0-0.425,0.153-0.78,0.458-1.067s0.688-0.431,1.145-0.431c0.458,0,0.84,0.143,1.148,0.427
			c0.308,0.285,0.462,0.642,0.462,1.071c0,0.438-0.153,0.791-0.458,1.057c-0.306,0.267-0.689,0.399-1.152,0.399
			c-0.457,0-0.839-0.135-1.145-0.402C101.53,364.851,101.377,364.5,101.377,364.066z M102.168,364.066
			c0,0.242,0.075,0.44,0.224,0.595s0.345,0.231,0.588,0.231c0.248,0,0.447-0.078,0.599-0.234c0.152-0.157,0.228-0.354,0.228-0.592
			s-0.075-0.435-0.224-0.588c-0.149-0.154-0.35-0.231-0.602-0.231c-0.238,0-0.433,0.08-0.584,0.238
			C102.244,363.643,102.168,363.837,102.168,364.066z M106.487,368.392h-4.109v-2.373h4.109V368.392z M105.668,367.754v-1.105
			h-2.464v1.105H105.668z M106.487,365.717h-0.819v-0.622h-0.875l0.021-0.693h0.854v-0.721h-0.854l-0.021-0.693h0.875v-0.756h0.819
			V365.717z"/>
		<path d="M113.018,365.213v0.645h-5.635v-0.645H113.018z M112.731,364.22l-0.35,0.644c-0.458-0.037-0.89-0.166-1.298-0.385
			c-0.409-0.22-0.701-0.479-0.879-0.777c-0.154,0.309-0.432,0.568-0.833,0.78c-0.402,0.213-0.852,0.34-1.351,0.382l-0.336-0.63
			c0.499-0.023,0.937-0.132,1.312-0.325c0.375-0.194,0.617-0.445,0.724-0.753h-1.757v-0.651h4.494v0.651h-1.75
			c0.116,0.304,0.372,0.551,0.766,0.742C111.869,364.089,112.288,364.197,112.731,364.22z M112.381,367.307
			c0,0.363-0.191,0.648-0.574,0.854c-0.382,0.205-0.917,0.309-1.603,0.309c-0.69,0-1.227-0.104-1.61-0.309s-0.574-0.49-0.574-0.854
			c0-0.354,0.191-0.635,0.574-0.841c0.383-0.205,0.917-0.308,1.603-0.308s1.222,0.103,1.606,0.308
			C112.188,366.672,112.381,366.953,112.381,367.307z M111.177,367.688c0.243-0.091,0.364-0.216,0.364-0.374
			c0-0.159-0.122-0.284-0.364-0.375s-0.569-0.136-0.98-0.136c-0.406,0-0.729,0.045-0.969,0.136
			c-0.241,0.091-0.361,0.216-0.361,0.375c0,0.158,0.12,0.283,0.361,0.374c0.24,0.091,0.563,0.137,0.969,0.137
			C110.607,367.825,110.934,367.779,111.177,367.688z"/>
		<path d="M118.631,364.822c0,0.215-0.096,0.392-0.287,0.532c-0.191,0.14-0.45,0.23-0.777,0.272v0.218
			c0.663-0.033,1.162-0.077,1.498-0.134c0.004,0.08,0.016,0.196,0.035,0.351c0.019,0.153,0.028,0.242,0.028,0.266
			c-0.5,0.061-1.134,0.112-1.904,0.154c-0.77,0.042-1.397,0.062-1.883,0.062l-0.112-0.657c0.34,0,0.847-0.005,1.519-0.015v-0.238
			c-0.327-0.042-0.586-0.134-0.777-0.276c-0.191-0.142-0.287-0.32-0.287-0.535c0-0.262,0.136-0.469,0.409-0.623
			s0.626-0.231,1.061-0.231c0.438,0,0.794,0.077,1.067,0.231S118.631,364.56,118.631,364.822z M118.932,363.799h-3.507v-0.602h3.507
			V363.799z M115.929,366.824h4.291v1.652h-0.819v-1.009h-3.472V366.824z M116.37,362.974v-0.603h1.694v0.603H116.37z
			 M117.833,364.822c0-0.089-0.06-0.161-0.179-0.217c-0.119-0.057-0.286-0.084-0.5-0.084c-0.21,0-0.375,0.027-0.494,0.084
			c-0.119,0.056-0.178,0.128-0.178,0.217s0.06,0.159,0.178,0.21c0.119,0.052,0.284,0.077,0.494,0.077
			C117.607,365.109,117.833,365.013,117.833,364.822z M120.22,362.232v1.967h0.77v0.679h-0.77v1.666h-0.819v-4.312H120.22z"/>
		<path d="M122.334,366.32c0.732,0.023,1.335-0.023,1.806-0.14l0.078,0.644c-0.416,0.112-1.119,0.168-2.108,0.168h-0.595v-4.018
			h2.359v0.65c-0.168,0-0.424-0.001-0.767-0.003c-0.343-0.003-0.601-0.004-0.773-0.004V366.32z M126.64,368.469h-0.785v-3.13h-0.553
			v2.843h-0.77v-5.838h0.77v2.345h0.553v-2.457h0.785V368.469z"/>
	</g>
	<g>
		<line fill="#72AF2D" x1="114.985" y1="393.957" x2="114.985" y2="404.81"/>
		<g>
			
				<line fill="none" stroke="#396BB4" stroke-width="5.5" stroke-miterlimit="10" x1="114.985" y1="393.957" x2="114.985" y2="400.472"/>
			<g>
				<polygon fill="#396BB4" points="119.996,399.8 109.974,399.8 114.985,404.81 				"/>
			</g>
		</g>
	</g>
</g>
<g>
	<polyline fill="none" stroke="#000000" stroke-width="0.5" stroke-miterlimit="10" points="47.194,14.214 39.452,14.214 
		39.452,67.771 47.194,67.771 	"/>
</g>
<g>
	<polyline fill="none" stroke="#000000" stroke-width="0.5" stroke-miterlimit="10" points="47.194,74.558 39.452,74.558 
		39.452,282.859 47.194,282.859 	"/>
</g>
<g>
	<path d="M1.557,38.94c0.942,0.03,1.716-0.03,2.322-0.18l0.099,0.828c-0.534,0.144-1.437,0.216-2.709,0.216H0.504v-5.166h3.033
		v0.837c-0.216,0-0.544-0.001-0.986-0.004c-0.441-0.003-0.772-0.004-0.994-0.004V38.94z M7.092,41.703H6.084V37.68H5.373v3.654
		h-0.99v-7.506h0.99v3.015h0.711v-3.159h1.008V41.703z"/>
	<path d="M12.879,39.003c-0.072,0.09-0.176,0.222-0.311,0.396c-0.135,0.174-0.239,0.303-0.311,0.387
		c-0.366-0.234-0.735-0.564-1.107-0.99c-0.372-0.426-0.621-0.843-0.747-1.251c-0.132,0.45-0.378,0.901-0.738,1.354
		c-0.36,0.453-0.747,0.802-1.161,1.048c-0.294-0.36-0.51-0.615-0.648-0.765c1.326-0.852,1.989-2.094,1.989-3.726v-1.098h1.089v1.044
		c0,0.78,0.169,1.476,0.509,2.088C11.783,38.103,12.261,38.607,12.879,39.003z M14.319,33.684v3.087h1.152v0.864h-1.152v4.068
		h-1.044v-8.019H14.319z"/>
	<path d="M19.512,37.284c1.338,0,2.385-0.078,3.141-0.234c0.024,0.198,0.072,0.465,0.144,0.801c-0.78,0.186-1.962,0.279-3.546,0.279
		h-0.783v-3.789h3.573v0.828h-2.529V37.284z M24.66,41.469h-5.328v-2.556h1.053v1.71h4.275V41.469z M25.614,36.735h-1.143v2.736
		h-1.062v-5.787h1.062v2.187h1.143V36.735z"/>
	<path d="M29.331,34.629c0.012,2.412-0.939,4.248-2.853,5.508l-0.684-0.729c0.762-0.462,1.356-1.03,1.782-1.706
		c0.426-0.675,0.672-1.417,0.738-2.228h-2.016v-0.846H29.331z M31.212,41.334H30.23v-2.7h-1.017v-0.855h1.017v-1.134h-0.819V35.79
		h0.819v-1.953h0.981V41.334z M32.813,41.703h-0.999v-8.019h0.999V41.703z"/>
</g>
<g>
	<path d="M5.283,156.971c-0.48,0.084-1.203,0.155-2.169,0.211c-0.966,0.057-1.893,0.085-2.781,0.085
		c-0.048-0.258-0.096-0.549-0.144-0.873h1.089l-0.252-3.114c0.126-0.012,0.471-0.054,1.035-0.126l0.171,3.213
		c0.042,0,0.342-0.009,0.9-0.027c0.012-0.24,0.032-0.576,0.059-1.008c0.027-0.432,0.051-0.826,0.072-1.183
		c0.021-0.357,0.041-0.695,0.058-1.013l1.008,0.117c-0.06,0.672-0.156,1.68-0.288,3.024c0.54-0.042,0.927-0.087,1.161-0.135
		L5.283,156.971z M4.932,152.642H0.459v-0.828h4.473V152.642z M6.903,159.14H5.85v-8.019h1.053V159.14z"/>
	<path d="M8.046,153.875v-0.837h3.825v0.837H8.046z M11.241,154.626c0.324,0.303,0.486,0.707,0.486,1.211
		c0,0.504-0.162,0.907-0.486,1.21c-0.324,0.303-0.747,0.455-1.269,0.455c-0.516,0-0.938-0.158-1.265-0.473s-0.49-0.712-0.49-1.192
		c0-0.504,0.163-0.908,0.49-1.211c0.327-0.303,0.749-0.454,1.265-0.454C10.494,154.172,10.917,154.323,11.241,154.626z
		 M8.919,152.579v-0.837h2.16v0.837H8.919z M10.782,155.837c0-0.246-0.077-0.447-0.229-0.603C10.399,155.078,10.206,155,9.972,155
		s-0.426,0.078-0.576,0.234c-0.15,0.156-0.225,0.357-0.225,0.603c0,0.252,0.075,0.454,0.225,0.607
		c0.15,0.153,0.342,0.229,0.576,0.229s0.427-0.08,0.581-0.239C10.706,156.276,10.782,156.077,10.782,155.837z M14.877,159.14h-0.999
		v-3.933h-0.666v3.564h-0.981v-7.506h0.981v3.096h0.666v-3.24h0.999V159.14z"/>
	<path d="M19.512,154.721c1.338,0,2.385-0.078,3.141-0.234c0.024,0.198,0.072,0.465,0.144,0.801
		c-0.78,0.186-1.962,0.279-3.546,0.279h-0.783v-3.789h3.573v0.828h-2.529V154.721z M24.66,158.906h-5.328v-2.556h1.053v1.71h4.275
		V158.906z M25.614,154.172h-1.143v2.736h-1.062v-5.787h1.062v2.187h1.143V154.172z"/>
	<path d="M29.331,152.066c0.012,2.412-0.939,4.248-2.853,5.508l-0.684-0.729c0.762-0.462,1.356-1.03,1.782-1.706
		c0.426-0.675,0.672-1.417,0.738-2.228h-2.016v-0.846H29.331z M31.212,158.771H30.23v-2.7h-1.017v-0.855h1.017v-1.134h-0.819v-0.855
		h0.819v-1.953h0.981V158.771z M32.813,159.14h-0.999v-8.019h0.999V159.14z"/>
</g>
<g>
	<path d="M203.832,151.733c-0.006,1.104-0.35,2.029-1.03,2.776c-0.682,0.747-1.544,1.252-2.588,1.517l-0.521-0.837
		c0.72-0.126,1.369-0.421,1.948-0.886s0.932-1.031,1.058-1.697h-2.602v-0.873H203.832z M206.271,158.906h-5.355v-2.583h1.062v1.746
		h4.293V158.906z M207.216,154.271h-1.143v2.655h-1.062v-5.805h1.062v2.286h1.143V154.271z"/>
	<path d="M211.473,156.323c1.446,0,2.535-0.081,3.268-0.243c0.012,0.078,0.057,0.366,0.135,0.864c-0.738,0.18-1.953,0.27-3.646,0.27
		c-0.09,0-0.224-0.001-0.4-0.005c-0.177-0.003-0.311-0.004-0.4-0.004v-5.346h3.646v0.837h-2.602V156.323z M216.521,159.14h-1.062
		v-8.019h1.062V159.14z"/>
	<path d="M224.136,154.685h-2.269v0.585h3.114v0.846h-7.245v-0.846h3.078v-0.585h-2.124v-3.357h5.382v0.828h-4.319v0.459h4.05v0.801
		h-4.05v0.468h4.383V154.685z M218.592,156.629h5.454v2.52h-1.044v-1.683h-4.41V156.629z"/>
	<path d="M232.767,158.096h-7.245v-0.837h7.245V158.096z M232.613,154.811l-0.53,0.819c-0.595-0.138-1.18-0.405-1.755-0.801
		c-0.576-0.396-0.973-0.843-1.188-1.341c-0.198,0.51-0.59,0.967-1.175,1.373c-0.585,0.405-1.177,0.673-1.777,0.805l-0.495-0.855
		c0.456-0.066,0.901-0.216,1.337-0.45c0.435-0.234,0.806-0.55,1.111-0.95c0.306-0.399,0.459-0.823,0.459-1.273v-0.531h1.098v0.531
		c0,0.27,0.062,0.536,0.185,0.796c0.123,0.261,0.287,0.494,0.491,0.698c0.203,0.204,0.433,0.388,0.688,0.553
		c0.255,0.165,0.514,0.3,0.778,0.405C232.104,154.695,232.361,154.769,232.613,154.811z"/>
</g>
<g>
	<path d="M0.837,339.107c0-0.546,0.196-1.003,0.589-1.372s0.883-0.554,1.472-0.554c0.588,0,1.08,0.184,1.476,0.549
		c0.396,0.366,0.594,0.825,0.594,1.377c0,0.564-0.196,1.018-0.589,1.359s-0.887,0.513-1.48,0.513c-0.588,0-1.079-0.172-1.472-0.518
		C1.033,340.117,0.837,339.666,0.837,339.107z M1.854,339.107c0,0.312,0.096,0.567,0.288,0.766c0.192,0.198,0.444,0.297,0.756,0.297
		c0.318,0,0.574-0.101,0.77-0.302c0.195-0.201,0.292-0.454,0.292-0.761c0-0.306-0.096-0.558-0.288-0.756
		c-0.192-0.197-0.45-0.297-0.774-0.297c-0.306,0-0.557,0.103-0.751,0.307C1.951,338.564,1.854,338.813,1.854,339.107z
		 M7.407,344.669H2.124v-3.051h5.283V344.669z M6.354,343.85v-1.422H3.186v1.422H6.354z M7.407,341.231H6.354v-0.801H5.229
		l0.027-0.891h1.098v-0.927H5.256l-0.027-0.892h1.125v-0.972h1.053V341.231z"/>
	<path d="M15.804,340.583v0.828H8.559v-0.828H15.804z M15.435,339.305l-0.45,0.828c-0.588-0.048-1.145-0.213-1.669-0.495
		s-0.901-0.615-1.129-0.999c-0.198,0.396-0.555,0.73-1.071,1.004c-0.516,0.272-1.095,0.437-1.737,0.49l-0.432-0.81
		c0.642-0.03,1.204-0.17,1.688-0.419c0.483-0.249,0.793-0.571,0.931-0.968H9.306V337.1h5.778v0.837h-2.25
		c0.15,0.391,0.479,0.708,0.985,0.954C14.327,339.137,14.865,339.276,15.435,339.305z M14.985,343.274
		c0,0.469-0.246,0.834-0.738,1.099c-0.492,0.264-1.179,0.396-2.061,0.396c-0.888,0-1.578-0.132-2.07-0.396
		c-0.492-0.265-0.738-0.63-0.738-1.099c0-0.455,0.246-0.815,0.738-1.079c0.492-0.265,1.179-0.396,2.061-0.396
		c0.882,0,1.57,0.132,2.065,0.396C14.738,342.458,14.985,342.819,14.985,343.274z M13.437,343.765
		c0.312-0.117,0.468-0.277,0.468-0.481s-0.156-0.365-0.468-0.481c-0.312-0.117-0.732-0.176-1.26-0.176
		c-0.522,0-0.938,0.059-1.247,0.176c-0.309,0.116-0.463,0.277-0.463,0.481s0.154,0.364,0.463,0.481s0.725,0.175,1.247,0.175
		C12.705,343.94,13.125,343.882,13.437,343.765z"/>
	<path d="M20.016,340.349c1.338,0,2.385-0.078,3.141-0.233c0.024,0.197,0.072,0.465,0.144,0.801
		c-0.78,0.186-1.962,0.279-3.546,0.279h-0.783v-3.789h3.573v0.827h-2.529V340.349z M25.164,344.535h-5.328v-2.557h1.053v1.71h4.275
		V344.535z M26.118,339.8h-1.143v2.736h-1.062v-5.787h1.062v2.187h1.143V339.8z"/>
	<path d="M29.834,337.695c0.012,2.411-0.939,4.247-2.853,5.508l-0.684-0.729c0.762-0.462,1.356-1.03,1.782-1.705
		c0.426-0.675,0.672-1.418,0.738-2.228h-2.016v-0.846H29.834z M31.716,344.399h-0.981V341.7h-1.017v-0.855h1.017v-1.134h-0.819
		v-0.855h0.819v-1.952h0.981V344.399z M33.317,344.768h-0.999v-8.019h0.999V344.768z"/>
</g>
<g>
	<path d="M5.661,413.16c0,0.343-0.131,0.634-0.392,0.873c-0.261,0.24-0.607,0.394-1.04,0.459v0.612
		c0.936-0.054,1.617-0.108,2.043-0.162l0.09,0.801c-1.662,0.187-3.372,0.279-5.13,0.279l-0.135-0.854
		c0.462,0,1.155-0.006,2.079-0.019v-0.666c-0.414-0.078-0.746-0.233-0.994-0.468c-0.249-0.234-0.374-0.519-0.374-0.855
		c0-0.407,0.18-0.739,0.54-0.994c0.36-0.255,0.819-0.383,1.377-0.383c0.564,0,1.027,0.128,1.39,0.383
		C5.479,412.42,5.661,412.752,5.661,413.16z M6.039,411.567h-4.68v-0.792h4.68V411.567z M2.556,410.416v-0.792h2.331v0.792H2.556z
		 M4.352,413.565c0.165-0.114,0.248-0.249,0.248-0.405c0-0.155-0.083-0.289-0.248-0.4c-0.165-0.11-0.374-0.166-0.625-0.166
		c-0.246,0-0.452,0.056-0.617,0.166c-0.165,0.111-0.248,0.245-0.248,0.4c0,0.156,0.083,0.291,0.248,0.405s0.371,0.171,0.617,0.171
		C3.978,413.736,4.187,413.679,4.352,413.565z M7.785,409.2v8.02H6.732v-8.02H7.785z"/>
	<path d="M15.21,412.386h-2.187v0.729h3.114v0.847H8.892v-0.847h3.078v-0.729H9.819v-3.061h1.053v0.811h3.294v-0.828h1.044V412.386z
		 M9.747,414.573h5.454v2.655h-1.044v-1.818h-4.41V414.573z M14.166,411.549v-0.604h-3.294v0.604H14.166z"/>
	<path d="M20.349,412.8c1.338,0,2.385-0.078,3.141-0.234c0.024,0.198,0.072,0.465,0.144,0.801c-0.78,0.187-1.962,0.279-3.546,0.279
		h-0.783v-3.789h3.573v0.828h-2.529V412.8z M25.497,416.985h-5.328v-2.556h1.053v1.71h4.275V416.985z M26.451,412.251h-1.143v2.735
		h-1.062V409.2h1.062v2.188h1.143V412.251z"/>
	<path d="M30.167,410.145c0.012,2.412-0.939,4.248-2.853,5.508l-0.684-0.729c0.762-0.462,1.356-1.03,1.782-1.706
		c0.426-0.675,0.672-1.417,0.738-2.228h-2.016v-0.846H30.167z M32.049,416.85h-0.981v-2.7h-1.017v-0.854h1.017v-1.135h-0.819v-0.854
		h0.819v-1.953h0.981V416.85z M33.65,417.219h-0.999v-8.02h0.999V417.219z"/>
</g>
<g>
	<polyline fill="none" stroke="#000000" stroke-width="0.5" stroke-miterlimit="10" points="47.194,303.866 39.452,303.866 
		39.452,385.424 47.194,385.424 	"/>
</g>
<g>
	<polyline fill="none" stroke="#000000" stroke-width="0.5" stroke-miterlimit="10" points="47.194,392.798 39.452,392.798 
		39.452,429.353 47.194,429.353 	"/>
</g>
<g>
	<polyline fill="none" stroke="#000000" stroke-width="0.5" stroke-miterlimit="10" points="182.287,15.005 190.029,15.005 
		190.029,280.309 182.287,280.309 	"/>
</g>
<polyline fill="none" stroke="#000000" stroke-width="0.5" stroke-miterlimit="10" points="182.528,296.701 190.27,296.701 
	190.27,431.997 182.528,431.997 "/>
<g>
	<path fill="#2D50A1" d="M203.994,353.13h-3.717v-3.753h3.717V353.13z M206.749,356.505h-5.437v-2.484h1.044v1.647h4.393V356.505z
		 M202.95,352.311v-2.124h-1.629v2.124H202.95z M205.543,350.79h-1.116v-0.827h1.116v-1.261h1.044v5.814h-1.044v-1.962h-1.116
		v-0.828h1.116V350.79z"/>
	<path fill="#2D50A1" d="M208.409,352.442c-0.393-0.352-0.59-0.806-0.59-1.364c0-0.558,0.197-1.024,0.59-1.399
		s0.881-0.562,1.463-0.562s1.07,0.188,1.467,0.562c0.396,0.375,0.594,0.842,0.594,1.399c0,0.559-0.195,1.013-0.585,1.364
		c-0.39,0.351-0.882,0.526-1.476,0.526C209.29,352.968,208.802,352.792,208.409,352.442z M208.792,353.706h5.589v3.024h-1.053
		v-2.187h-4.536V353.706z M208.837,351.069c0,0.318,0.095,0.578,0.283,0.778c0.189,0.201,0.439,0.302,0.752,0.302
		c0.312,0,0.565-0.102,0.76-0.306c0.195-0.204,0.293-0.462,0.293-0.774c0-0.306-0.095-0.562-0.283-0.77
		c-0.189-0.207-0.446-0.311-0.77-0.311c-0.307,0-0.556,0.105-0.747,0.315C208.933,350.514,208.837,350.769,208.837,351.069z
		 M212.176,352.428l0.027-0.882h1.125v-0.981h-1.125l-0.027-0.882h1.152v-0.981h1.053v4.591h-1.053v-0.864H212.176z"/>
	<path fill="#2D50A1" d="M219.421,353.904c1.445,0,2.534-0.081,3.267-0.243c0.012,0.078,0.057,0.366,0.135,0.864
		c-0.737,0.18-1.952,0.271-3.645,0.271c-0.09,0-0.224-0.002-0.4-0.005c-0.178-0.003-0.311-0.005-0.4-0.005v-5.346h3.645v0.837
		h-2.601V353.904z M224.47,356.721h-1.062v-8.02h1.062V356.721z"/>
	<path fill="#2D50A1" d="M232.083,352.266h-2.268v0.585h3.114v0.846h-7.245v-0.846h3.078v-0.585h-2.124v-3.357h5.382v0.828h-4.32
		v0.459h4.05v0.801h-4.05v0.469h4.383V352.266z M226.539,354.21h5.454v2.52h-1.044v-1.683h-4.41V354.21z"/>
	<path fill="#2D50A1" d="M240.715,355.677h-7.245v-0.837h7.245V355.677z M240.562,352.392l-0.531,0.819
		c-0.594-0.139-1.179-0.405-1.755-0.802c-0.576-0.396-0.972-0.843-1.188-1.341c-0.198,0.51-0.59,0.968-1.175,1.373
		c-0.585,0.404-1.178,0.673-1.777,0.805l-0.495-0.854c0.456-0.066,0.901-0.216,1.336-0.45c0.436-0.233,0.806-0.55,1.112-0.949
		c0.306-0.399,0.459-0.823,0.459-1.273v-0.531h1.098v0.531c0,0.27,0.062,0.535,0.185,0.796c0.123,0.262,0.286,0.494,0.49,0.698
		s0.434,0.388,0.688,0.553s0.515,0.301,0.778,0.405C240.052,352.277,240.31,352.35,240.562,352.392z"/>
</g>
<g>
</g>
<g>
</g>
<g>
</g>
<g>
</g>
<g>
</g>
<g>
</g>
<g>
</g>
</svg>
