<?xml version="1.0" encoding="utf-8"?>
<!-- Generator: Adobe Illustrator 28.0.0, SVG Export Plug-In . SVG Version: 6.00 Build 0)  -->
<svg version="1.1" id="레이어_1" xmlns="http://www.w3.org/2000/svg" xmlns:xlink="http://www.w3.org/1999/xlink" x="0px"
	 y="0px" viewBox="0 0 1133 780.898" enable-background="new 0 0 1133 780.898" xml:space="preserve">
<rect x="265" y="119" fill="#FFD2D2" width="230" height="60"/>
<path d="M431.114,147.738v1.224h-2.592v8.37h-1.476v-16.146h1.476v6.552H431.114z M416.966,142.914h7.38
	c0,4.59-2.106,8.748-7.326,11.358l-0.81-1.152c4.122-2.07,6.336-5.166,6.678-8.982h-5.922V142.914z M399.544,148.872h14.598v1.188
	h-14.598V148.872z M406.834,151.464c3.438,0,5.526,1.044,5.526,2.916c0,1.89-2.088,2.934-5.526,2.934
	c-3.456,0-5.526-1.044-5.526-2.934C401.308,152.508,403.378,151.464,406.834,151.464z M406.834,156.144
	c2.52,0,4.032-0.63,4.032-1.764c0-1.116-1.512-1.764-4.032-1.764c-2.538,0-4.032,0.648-4.032,1.764
	C402.802,155.514,404.296,156.144,406.834,156.144z M400.894,147.882l-0.522-1.17c2.862-0.306,5.454-1.71,5.526-3.51h-5.004v-1.188
	h11.934v1.188h-5.022c0.072,1.8,2.664,3.204,5.526,3.51l-0.522,1.17c-2.646-0.324-5.076-1.494-5.958-3.258
	C405.952,146.388,403.54,147.558,400.894,147.882z M377.923,153.948h14.634v1.224h-14.634V153.948z M391.837,149.304l-0.666,1.224
	c-2.448-0.558-4.968-2.286-5.994-4.662c-1.026,2.358-3.546,4.086-5.976,4.662l-0.666-1.224c2.826-0.558,5.868-2.988,5.868-5.742
	v-1.242h1.548v1.242C385.951,146.316,389.011,148.764,391.837,149.304z M373.658,141.186h1.422v16.146h-1.422V141.186z
	 M370.4,146.982v-5.4h1.386v14.904H370.4v-8.28h-1.998v-1.224H370.4z M363.326,148.566v3.564c1.836,0,3.582-0.072,5.652-0.432
	l0.126,1.206c-2.25,0.378-4.086,0.468-6.138,0.468h-1.062v-5.976h4.32v-3.222h-4.374v-1.206h5.796v5.598H363.326z M344.788,154.038
	h14.652v1.206h-14.652V154.038z M357.766,149.898v1.188h-11.088v-8.496h10.926v1.188h-9.432v2.394h9.072v1.17h-9.072v2.556H357.766z
	 M328.247,153.948h14.634v1.224h-14.634V153.948z M342.161,149.304l-0.666,1.224c-2.448-0.558-4.968-2.286-5.994-4.662
	c-1.026,2.358-3.546,4.086-5.976,4.662l-0.666-1.224c2.826-0.558,5.868-2.988,5.868-5.742v-1.242h1.548v1.242
	C336.275,146.316,339.335,148.764,342.161,149.304z"/>
<rect x="265" y="219" fill="#FFD2D2" width="230" height="60"/>
<path d="M418.478,247.99v4.248h4.68v-4.248H418.478z M417.02,242.554h1.458v4.266h4.68v-4.266h1.458v10.89h-7.596V242.554z
	 M427.838,241.186h1.476v16.164h-1.476V241.186z M399.508,249.718h14.67v1.188h-6.48v3.132h-1.476v-3.132h-6.714V249.718z
	 M402.838,252.58v3.186h9.702v1.206h-11.16v-4.392H402.838z M412.234,241.69v6.462H401.47v-6.462h1.458v2.07h7.848v-2.07H412.234z
	 M410.776,246.982v-2.088h-7.848v2.088H410.776z M385.951,248.224h6.57v1.188h-14.616v-1.188h6.57v-2.088h1.476V248.224z
	 M381.163,254.434V256h9.972v1.152h-11.412v-3.798h9.468v-1.494h-9.522v-1.116h10.98v3.69H381.163z M391.693,245.83l-0.504,1.152
	c-2.556-0.342-4.95-1.458-5.976-3.186c-1.008,1.728-3.42,2.844-5.976,3.186l-0.504-1.152c2.97-0.324,5.724-1.854,5.724-3.924v-0.594
	h1.512v0.594C385.969,243.976,388.723,245.506,391.693,245.83z M373.136,241.186h1.476v16.128h-1.476V241.186z M363.848,248.368
	v3.87c2.934,0,5.022-0.108,7.434-0.54l0.144,1.206c-2.52,0.432-4.68,0.54-7.758,0.54h-1.278v-10.8h7.83v1.206h-6.372v3.33h5.778
	v1.188H363.848z M344.788,254.074h14.67v1.224h-14.67V254.074z M356.2,246.118v-2.502h-9.612v-1.188h11.052v4.878h-9.558v2.628
	h9.936v1.206h-11.394v-5.022H356.2z M335.411,253.93h7.434v1.206h-14.598v-1.206h5.688v-4.194h1.476V253.93z M329.561,247.054
	l10.044-0.414c0.036-0.846,0.036-1.62,0.036-2.358v-0.324h-9.648v-1.206h11.106v1.53c0,1.98,0,4.194-0.684,7.506l-1.458-0.18
	c0.306-1.44,0.468-2.7,0.576-3.816l-9.756,0.522L329.561,247.054z"/>
<rect y="338" fill="#D9D9D9" width="230" height="60"/>
<path d="M162.91,360.186h1.494v9.666h-1.494v-4.248h-3.15v-1.206h3.15V360.186z M153.604,371.922v-1.188h10.8v5.616h-1.494v-4.428
	H153.604z M160.624,368.07l-0.738,1.152c-1.8-0.648-3.186-1.98-3.906-3.654c-0.684,1.854-2.16,3.33-4.05,4.032l-0.774-1.17
	c2.394-0.846,4.068-3.006,4.068-5.292v-0.648h-3.6v-1.206h8.622v1.206H156.7v0.648C156.7,365.208,158.284,367.242,160.624,368.07z
	 M149.142,369.492h-6.552v1.854h4.752v4.932h-1.476v-3.762h-9.702v-1.17h4.95v-1.854h-6.57v-1.188h14.598V369.492z M135.876,367.404
	l-0.45-1.116c3.042-0.306,5.49-1.548,5.616-3.348h-4.986v-1.17h5.058v-1.674h1.476v1.674h5.058v1.17h-5.004
	c0.126,1.8,2.574,3.042,5.634,3.348l-0.468,1.116c-2.646-0.27-4.986-1.242-5.958-2.862
	C140.88,366.162,138.522,367.134,135.876,367.404z M125.451,364.254h2.394v1.224h-2.394v4.428h-1.476v-9.72h1.476V364.254z
	 M120.321,370.32c3.276,0,5.31,1.098,5.31,3.006s-2.034,3.006-5.31,3.006c-3.294,0-5.328-1.098-5.328-3.006
	S117.027,370.32,120.321,370.32z M120.321,375.162c2.376,0,3.834-0.684,3.834-1.836s-1.458-1.818-3.834-1.818
	c-2.412,0-3.852,0.666-3.852,1.818S117.909,375.162,120.321,375.162z M121.059,361.212v7.434h-7.47v-7.434h1.458v2.43h4.572v-2.43
	H121.059z M119.619,367.458v-2.664h-4.572v2.664H119.619z M108.1,360.204h1.476v16.128H108.1V360.204z M102.124,363.066v2.052
	c0,2.736,1.944,5.526,4.32,6.534l-0.828,1.188c-1.872-0.864-3.456-2.718-4.23-4.932c-0.738,2.358-2.322,4.392-4.158,5.328
	l-0.864-1.188c2.322-1.098,4.284-4.14,4.284-6.93v-2.052h-3.744v-1.224h9.018v1.224H102.124z M92.334,364.272h2.394v1.242h-2.394
	v4.428h-1.476v-9.738h1.476V364.272z M87.204,370.356c3.276,0,5.31,1.098,5.31,2.97c0,1.89-2.034,2.988-5.31,2.988
	c-3.312,0-5.328-1.098-5.328-2.988C81.876,371.454,83.892,370.356,87.204,370.356z M87.204,375.144c2.376,0,3.834-0.666,3.834-1.818
	c0-1.134-1.458-1.8-3.834-1.8c-2.412,0-3.852,0.666-3.852,1.8C83.352,374.478,84.792,375.144,87.204,375.144z M89.166,367.998
	l-0.702,1.152c-1.836-0.594-3.222-1.872-3.906-3.474c-0.684,1.836-2.142,3.276-4.068,3.96l-0.756-1.17
	c2.43-0.846,4.05-2.934,4.05-5.256v-0.63h-3.618v-1.188h8.658v1.188H85.26v0.63C85.26,365.316,86.79,367.206,89.166,367.998z
	 M75.523,360.186h1.422v16.128h-1.422v-8.334h-2.286v7.524h-1.386v-14.958h1.386v6.21h2.286V360.186z M65.515,362.148v8.712
	c1.548-0.018,3.258-0.126,5.184-0.504l0.144,1.278c-2.178,0.414-4.032,0.504-5.778,0.504h-1.026v-9.99H65.515z"/>
<rect y="472" fill="#D9D9D9" width="230" height="60"/>
<path d="M127.482,499.1h2.376v1.242h-2.376v5.652h-1.476v-11.826h1.476V499.1z M118.914,504.896v3.87h9.288v1.206h-10.764v-5.076
	H118.914z M123.036,495.626v7.47h-7.416v-7.47H123.036z M121.596,501.926v-5.112h-4.536v5.112H121.596z M100.771,500.99v4.248h4.68
	v-4.248H100.771z M99.313,495.554h1.458v4.266h4.68v-4.266h1.458v10.89h-7.596V495.554z M110.131,494.186h1.476v16.164h-1.476
	V494.186z"/>
<rect y="572" fill="#FFD2D2" width="230" height="60"/>
<path d="M147.025,600.738v1.224h-2.592v8.37h-1.476v-16.146h1.476v6.552H147.025z M132.877,595.914h7.38
	c0,4.59-2.106,8.748-7.326,11.358l-0.81-1.152c4.122-2.07,6.336-5.166,6.678-8.982h-5.922V595.914z M115.454,601.872h14.598v1.188
	h-14.598V601.872z M122.744,604.464c3.438,0,5.526,1.044,5.526,2.916c0,1.89-2.088,2.934-5.526,2.934
	c-3.456,0-5.526-1.044-5.526-2.934C117.218,605.508,119.288,604.464,122.744,604.464z M122.744,609.144
	c2.52,0,4.032-0.63,4.032-1.764c0-1.116-1.512-1.764-4.032-1.764c-2.538,0-4.032,0.648-4.032,1.764
	C118.712,608.514,120.206,609.144,122.744,609.144z M116.804,600.882l-0.522-1.17c2.862-0.306,5.454-1.71,5.526-3.51h-5.004v-1.188
	h11.934v1.188h-5.022c0.072,1.8,2.664,3.204,5.526,3.51l-0.522,1.17c-2.646-0.324-5.076-1.494-5.958-3.258
	C121.862,599.388,119.45,600.558,116.804,600.882z M98.895,601.872h14.598v1.188H98.895V601.872z M106.185,604.464
	c3.438,0,5.526,1.044,5.526,2.916c0,1.89-2.088,2.934-5.526,2.934c-3.456,0-5.526-1.044-5.526-2.934
	C100.659,605.508,102.729,604.464,106.185,604.464z M106.185,609.144c2.52,0,4.032-0.63,4.032-1.764
	c0-1.116-1.512-1.764-4.032-1.764c-2.538,0-4.032,0.648-4.032,1.764C102.153,608.514,103.647,609.144,106.185,609.144z
	 M100.245,600.882l-0.522-1.17c2.862-0.306,5.454-1.71,5.526-3.51h-5.004v-1.188h11.934v1.188h-5.022
	c0.072,1.8,2.664,3.204,5.526,3.51l-0.522,1.17c-2.646-0.324-5.076-1.494-5.958-3.258
	C105.303,599.388,102.891,600.558,100.245,600.882z M94.145,594.204l1.494-0.018v9.288h-1.494v-2.16h-4.104
	c-0.756,0.882-1.926,1.422-3.294,1.422c-2.394,0-4.158-1.584-4.158-3.834c0-2.214,1.764-3.78,4.158-3.78
	c1.35,0,2.538,0.522,3.276,1.368h4.122V594.204z M86.747,601.494c1.584,0,2.736-1.08,2.736-2.592c0-1.476-1.152-2.538-2.736-2.538
	c-1.584,0-2.754,1.062-2.754,2.538C83.993,600.414,85.163,601.494,86.747,601.494z M90.689,600.126h3.456v-2.43h-3.456
	c0.126,0.378,0.198,0.774,0.198,1.206C90.887,599.352,90.815,599.748,90.689,600.126z M85.145,610.116v-5.814h10.494v5.814H85.145z
	 M86.585,605.472v3.456h7.614v-3.456H86.585z"/>
<rect x="265" y="338" fill="#D9D9D9" width="230" height="60"/>
<path d="M414.056,366.738v1.224h-2.592v8.37h-1.476v-16.146h1.476v6.552H414.056z M399.908,361.914h7.38
	c0,4.59-2.106,8.748-7.326,11.358l-0.81-1.152c4.122-2.07,6.336-5.166,6.678-8.982h-5.922V361.914z M382.485,367.872h14.598v1.188
	h-14.598V367.872z M389.775,370.464c3.438,0,5.526,1.044,5.526,2.916c0,1.89-2.088,2.934-5.526,2.934
	c-3.456,0-5.526-1.044-5.526-2.934C384.249,371.508,386.319,370.464,389.775,370.464z M389.775,375.144
	c2.52,0,4.032-0.63,4.032-1.764c0-1.116-1.512-1.764-4.032-1.764c-2.538,0-4.032,0.648-4.032,1.764
	C385.743,374.514,387.237,375.144,389.775,375.144z M383.835,366.882l-0.522-1.17c2.862-0.306,5.454-1.71,5.526-3.51h-5.004v-1.188
	h11.934v1.188h-5.022c0.072,1.8,2.664,3.204,5.526,3.51l-0.522,1.17c-2.646-0.324-5.076-1.494-5.958-3.258
	C388.893,365.388,386.481,366.558,383.835,366.882z M373.41,364.38h2.376v1.224h-2.376v4.194h-1.494v-9.612h1.494V364.38z
	 M368.262,370.122c3.258,0,5.31,1.152,5.31,3.096c0,1.944-2.052,3.096-5.31,3.096c-3.276,0-5.328-1.152-5.328-3.096
	C362.934,371.274,364.986,370.122,368.262,370.122z M368.262,375.126c2.376,0,3.852-0.72,3.852-1.908s-1.476-1.908-3.852-1.908
	c-2.394,0-3.87,0.72-3.87,1.908S365.868,375.126,368.262,375.126z M370.224,366.738l0.162,1.206c-2.214,0.45-4.14,0.558-7.542,0.558
	h-1.26v-7.074h7.128v1.188h-5.67v4.68C366.246,367.296,368.1,367.188,370.224,366.738z M348.68,375.036h9.378v1.116h-10.836v-3.726
	h8.91v-1.35h-8.946v-1.098h10.404v3.51h-8.91V375.036z M352.568,366.27c0,1.656-1.494,2.736-3.654,2.736
	c-2.16,0-3.654-1.08-3.654-2.736c0-1.692,1.494-2.754,3.654-2.754C351.074,363.516,352.568,364.578,352.568,366.27z M346.664,366.27
	c0,0.972,0.9,1.656,2.25,1.656c1.332,0,2.25-0.684,2.25-1.656c0-1.008-0.918-1.656-2.25-1.656
	C347.564,364.614,346.664,365.262,346.664,366.27z M353.378,361.626v1.134h-9.036v-1.134h3.852v-1.62h1.476v1.62H353.378z
	 M356.114,366.612v-1.692h-2.718v-1.17h2.718v-3.546h1.476v8.982h-1.476v-1.404h-2.736v-1.17H356.114z"/>
<rect x="635" y="119" fill="#D9D9D9" width="230" height="60"/>
<path d="M801.06,148.044v1.242h-2.52v8.046h-1.476v-16.146h1.476v6.858H801.06z M791.772,151.212v1.71
	c1.458-0.072,2.952-0.18,4.338-0.396l0.09,1.098c-3.456,0.612-7.254,0.648-10.08,0.648l-0.198-1.242c1.296,0,2.808,0,4.374-0.054
	v-1.764c-1.854-0.234-3.078-1.35-3.078-2.952c0-1.818,1.566-2.988,3.816-2.988s3.816,1.17,3.816,2.988
	C794.85,149.862,793.626,150.978,791.772,151.212z M788.622,148.26c0,1.116,0.972,1.836,2.412,1.836s2.412-0.72,2.412-1.836
	c0-1.116-0.972-1.854-2.412-1.854S788.622,147.144,788.622,148.26z M795.84,143.148v1.17h-9.648v-1.17h4.104v-1.944h1.476v1.944
	H795.84z M784.412,144.876h-2.34v2.232h2.34v1.206h-2.34v2.466h-1.476v-9.576h1.476v2.448h2.34V144.876z M771.578,152.742v-1.206
	h10.494v5.796h-1.476v-4.59H771.578z M778.274,145.974c0,2.25-1.782,3.816-4.212,3.816c-2.448,0-4.212-1.566-4.212-3.816
	c0-2.268,1.764-3.816,4.212-3.816C776.492,142.158,778.274,143.706,778.274,145.974z M771.29,145.974
	c0,1.512,1.152,2.574,2.772,2.574c1.602,0,2.772-1.062,2.772-2.574c0-1.53-1.17-2.574-2.772-2.574
	C772.442,143.4,771.29,144.444,771.29,145.974z M758.921,149.178h3.6v1.188h-14.616v-1.188h3.618v-2.268
	c-1.278-0.522-1.98-1.332-1.98-2.43c0-1.89,2.178-3.006,5.67-3.006c3.51,0,5.67,1.116,5.67,3.006c0,1.08-0.72,1.908-1.962,2.412
	V149.178z M751.055,144.48c0,1.152,1.584,1.854,4.158,1.854c2.574,0,4.158-0.702,4.158-1.854c0-1.17-1.584-1.854-4.158-1.854
	C752.639,142.626,751.055,143.31,751.055,144.48z M752.981,147.288v1.89h4.482v-1.89c-0.666,0.108-1.422,0.18-2.25,0.18
	C754.403,147.468,753.647,147.396,752.981,147.288z M755.213,151.572c3.474,0,5.526,1.026,5.526,2.88s-2.052,2.862-5.526,2.862
	c-3.456,0-5.526-1.008-5.526-2.862S751.757,151.572,755.213,151.572z M755.213,156.18c2.52,0,4.032-0.63,4.032-1.728
	s-1.512-1.728-4.032-1.728c-2.538,0-4.032,0.63-4.032,1.728S752.675,156.18,755.213,156.18z M746.286,145.434v1.224h-2.394v4.266
	h-1.476v-9.72h1.476v4.23H746.286z M733.38,152.976v-1.188h10.512v5.562h-1.476v-4.374H733.38z M740.742,149.088l-0.756,1.152
	c-1.8-0.63-3.186-1.944-3.888-3.6c-0.684,1.8-2.142,3.222-4.032,3.924l-0.774-1.17c2.43-0.846,4.05-2.934,4.05-5.238v-0.648h-3.618
	v-1.188h8.658v1.188h-3.564v0.63C736.818,146.28,738.366,148.278,740.742,149.088z M726.578,141.204h1.476v9.702h-1.476V141.204z
	 M717.254,152.922v-1.188h10.8v5.616h-1.476v-4.428H717.254z M724.544,148.782l-0.738,1.17c-1.854-0.666-3.312-2.052-4.032-3.834
	c-0.702,1.908-2.178,3.402-4.068,4.122l-0.756-1.17c2.43-0.882,4.068-3.132,4.068-5.544v-1.584h1.476v1.584
	C720.494,145.848,722.15,147.954,724.544,148.782z M713.169,145.2v1.224h-2.394v4.266h-1.476v-9.486h1.476v3.996H713.169z
	 M700.641,157.116v-5.58h10.134v5.58H700.641z M702.081,152.706v3.222h7.236v-3.222H702.081z M707.409,148.26l0.162,1.17
	c-2.196,0.396-4.05,0.468-7.362,0.468h-1.224v-7.704h7.38v1.188h-5.904v2.016h5.616v1.17h-5.616v2.142
	C703.557,148.71,705.321,148.62,707.409,148.26z"/>
<rect x="902" y="119" fill="#D9D9D9" width="230" height="60"/>
<path d="M1066.378,149.106h6.552v1.188h-14.58v-1.188h6.552v-1.566c-3.06-0.162-4.932-1.242-4.932-3.024
	c0-1.926,2.178-3.042,5.67-3.042c3.492,0,5.67,1.116,5.67,3.042c0,1.782-1.89,2.88-4.932,3.024V149.106z M1061.482,144.516
	c0,1.188,1.602,1.89,4.158,1.89c2.556,0,4.158-0.702,4.158-1.89s-1.602-1.89-4.158-1.89
	C1063.084,142.626,1061.482,143.328,1061.482,144.516z M1060.15,157.116v-5.31h11.016v5.31H1060.15z M1061.59,152.976v2.952h8.136
	v-2.952H1061.59z M1046.49,143.76c-1.584,0-2.7,1.692-2.7,4.302c0,2.628,1.116,4.32,2.7,4.32c1.566,0,2.682-1.692,2.682-4.32
	C1049.172,145.452,1048.056,143.76,1046.49,143.76z M1046.49,142.428c2.394,0,4.104,2.196,4.104,5.634
	c0,3.438-1.71,5.634-4.104,5.634c-2.394,0-4.104-2.196-4.104-5.634C1042.386,144.624,1044.096,142.428,1046.49,142.428z
	 M1053.528,141.186h1.476v16.182h-1.476V141.186z M1040.317,147.54v1.242h-2.664v8.532h-1.476v-16.11h1.476v6.336H1040.317z
	 M1031.947,146.82v-4.266h1.44v10.89h-7.506v-10.89h1.458v4.266H1031.947z M1031.947,152.238v-4.248h-4.608v4.248H1031.947z
	 M1016.721,154.128h6.606v1.206h-14.67v-1.206h6.57v-3.042h-4.734V146.1h9.576v-2.52h-9.612v-1.206h11.052v4.914h-9.558v2.61h9.936
	v1.188h-5.166V154.128z M992.134,153.876h14.598v1.206h-14.598V153.876z M993.448,147.738l10.008-0.432
	c0.036-0.846,0.036-1.674,0.036-2.502v-0.774h-9.63v-1.206h11.07v1.98c0,2.394,0,4.572-0.702,7.884l-1.458-0.144
	c0.36-1.548,0.54-2.88,0.63-4.122l-9.738,0.54L993.448,147.738z M980.255,143.76c-1.584,0-2.7,1.692-2.7,4.302
	c0,2.628,1.116,4.32,2.7,4.32c1.566,0,2.682-1.692,2.682-4.32C982.938,145.452,981.821,143.76,980.255,143.76z M980.255,142.428
	c2.394,0,4.104,2.196,4.104,5.634c0,3.438-1.71,5.634-4.104,5.634c-2.394,0-4.104-2.196-4.104-5.634
	C976.151,144.624,977.861,142.428,980.255,142.428z M987.293,141.186h1.476v16.182h-1.476V141.186z M974.083,147.63v1.242h-2.664
	v8.46h-1.476v-16.128h1.476v6.426H974.083z M959.647,153.228v-10.422h7.398v10.422H959.647z M961.087,143.994v8.046h4.518v-8.046
	H961.087z"/>
<rect x="635" y="219" fill="#FFD2D2" width="230" height="60"/>
<path d="M804.537,247.99v4.248h4.68v-4.248H804.537z M803.079,242.554h1.458v4.266h4.68v-4.266h1.458v10.89h-7.596V242.554z
	 M813.897,241.186h1.476v16.164h-1.476V241.186z M785.566,249.718h14.67v1.188h-6.48v3.132h-1.476v-3.132h-6.714V249.718z
	 M788.896,252.58v3.186h9.702v1.206h-11.16v-4.392H788.896z M798.292,241.69v6.462h-10.764v-6.462h1.458v2.07h7.848v-2.07H798.292z
	 M796.834,246.982v-2.088h-7.848v2.088H796.834z M768.265,255.982h9.504v1.17h-10.962v-4.032h8.964v-1.62h-9v-1.152h10.458v3.87
	h-8.964V255.982z M773.863,248.098l-0.684,1.152c-1.89-0.576-3.384-1.854-4.122-3.51c-0.684,1.782-2.196,3.186-4.158,3.852
	l-0.702-1.17c2.43-0.774,4.086-2.754,4.086-4.95v-0.18h-3.69v-1.188h8.856v1.188h-3.654v0.18
	C769.795,245.542,771.469,247.396,773.863,248.098z M777.211,241.204v8.37h-1.476v-8.37H777.211z M762.021,249.178h-6.57v1.584
	h4.698v3.636h-9.486V256h9.972v1.152h-11.412v-3.834h9.468v-1.44h-9.522v-1.116h4.806v-1.584h-6.57v-1.188h14.616V249.178z
	 M760.131,241.726v4.914h-10.818v-4.914H760.131z M758.673,245.47v-2.574h-7.92v2.574H758.673z M743.392,244.66h2.394v1.224h-2.394
	v3.654h-1.476v-8.334h1.476V244.66z M734.626,254.218v1.764h9.36v1.17h-10.8v-4.032h8.748v-1.656h-8.802v-1.17h10.26v3.924H734.626z
	 M739,241.852v7.056h-7.47v-7.056h1.458v2.322h4.572v-2.322H739z M737.56,247.72v-2.412h-4.572v2.412H737.56z M728.922,250.384
	v1.206h-3.816v5.742h-1.494v-5.742h-4.05v5.742h-1.494v-5.742h-3.762v-1.206H728.922z M721.578,248.872
	c-3.348,0-5.634-1.368-5.634-3.528c0-2.16,2.286-3.51,5.634-3.51c3.366,0,5.652,1.35,5.652,3.51
	C727.23,247.504,724.944,248.872,721.578,248.872z M721.578,243.022c-2.448,0-4.122,0.9-4.122,2.322c0,1.422,1.674,2.34,4.122,2.34
	c2.466,0,4.14-0.918,4.14-2.34C725.718,243.922,724.044,243.022,721.578,243.022z M697.747,248.872h14.598v1.188h-14.598V248.872z
	 M705.037,251.464c3.438,0,5.526,1.044,5.526,2.916c0,1.89-2.088,2.934-5.526,2.934c-3.456,0-5.526-1.044-5.526-2.934
	C699.511,252.508,701.581,251.464,705.037,251.464z M705.037,256.144c2.52,0,4.032-0.63,4.032-1.764
	c0-1.116-1.512-1.764-4.032-1.764c-2.538,0-4.032,0.648-4.032,1.764C701.005,255.514,702.499,256.144,705.037,256.144z
	 M699.097,247.882l-0.522-1.17c2.862-0.306,5.454-1.71,5.526-3.51h-5.004v-1.188h11.934v1.188h-5.022
	c0.072,1.8,2.664,3.204,5.526,3.51l-0.522,1.17c-2.646-0.324-5.076-1.494-5.958-3.258
	C704.155,246.388,701.743,247.558,699.097,247.882z M692.996,241.204l1.494-0.018v9.288h-1.494v-2.16h-4.104
	c-0.756,0.882-1.926,1.422-3.294,1.422c-2.394,0-4.158-1.584-4.158-3.834c0-2.214,1.764-3.78,4.158-3.78
	c1.35,0,2.538,0.522,3.276,1.368h4.122V241.204z M685.598,248.494c1.584,0,2.736-1.08,2.736-2.592c0-1.476-1.152-2.538-2.736-2.538
	c-1.584,0-2.754,1.062-2.754,2.538C682.844,247.414,684.014,248.494,685.598,248.494z M689.54,247.126h3.456v-2.43h-3.456
	c0.126,0.378,0.198,0.774,0.198,1.206C689.738,246.352,689.666,246.748,689.54,247.126z M683.996,257.116v-5.814h10.494v5.814
	H683.996z M685.436,252.472v3.456h7.614v-3.456H685.436z"/>
<rect x="635" y="338" fill="#D9D9D9" width="230" height="60"/>
<path d="M794.076,370.23c3.312,0,5.382,1.098,5.382,3.042c0,1.926-2.07,3.042-5.382,3.042s-5.382-1.116-5.382-3.042
	C788.694,371.328,790.764,370.23,794.076,370.23z M794.076,375.144c2.43,0,3.906-0.702,3.906-1.872c0-1.188-1.476-1.89-3.906-1.89
	s-3.906,0.702-3.906,1.89C790.17,374.442,791.646,375.144,794.076,375.144z M795.57,367.836l-0.792,1.152
	c-1.764-0.666-3.132-1.944-3.834-3.618c-0.684,1.908-2.142,3.366-4.086,4.104l-0.774-1.206c2.484-0.882,4.086-3.042,4.086-5.508
	v-1.656h1.476v1.602C791.646,365.01,793.212,367.008,795.57,367.836z M797.91,369.744v-4.914h-3.51v-1.206h3.51v-3.42h1.494v9.54
	H797.91z M782.072,364.668h2.376v1.224h-2.376v4.68h-1.476v-10.386h1.476V364.668z M777.014,370.734c3.24,0,5.256,1.008,5.256,2.79
	c0,1.764-2.016,2.79-5.256,2.79c-3.258,0-5.256-1.026-5.256-2.79C771.758,371.742,773.756,370.734,777.014,370.734z M777.014,375.18
	c2.358,0,3.798-0.612,3.798-1.656s-1.44-1.656-3.798-1.656c-2.358,0-3.798,0.612-3.798,1.656S774.656,375.18,777.014,375.18z
	 M778.22,366.846c0,1.746-1.566,2.862-3.87,2.862c-2.304,0-3.852-1.116-3.852-2.862c0-1.728,1.548-2.844,3.852-2.844
	C776.654,364.002,778.22,365.118,778.22,366.846z M771.902,366.846c0,1.062,0.972,1.746,2.448,1.746
	c1.476,0,2.466-0.684,2.466-1.746c0-1.044-0.99-1.728-2.466-1.728C772.874,365.118,771.902,365.802,771.902,366.846z
	 M779.12,362.004v1.188h-9.522v-1.188h4.014v-1.962h1.476v1.962H779.12z M764.811,360.186h1.476v16.164h-1.476v-9.09h-3.492v-1.206
	h3.492V360.186z M758.565,363.048v1.872c0,2.682,1.89,5.616,4.23,6.732l-0.882,1.152c-1.8-0.918-3.348-2.844-4.086-5.076
	c-0.702,2.376-2.268,4.446-4.104,5.418l-0.864-1.17c2.304-1.134,4.23-4.194,4.23-7.056v-1.872h-3.654v-1.206h8.802v1.206H758.565z
	 M735.54,374.766h9.504v1.206h-10.98v-4.806h1.476V374.766z M741.192,368.052l0.144,1.206c-2.574,0.432-4.734,0.54-7.83,0.54h-1.296
	v-4.914h5.832v-2.358h-5.886v-1.188h7.344V366h-5.85v2.592C736.602,368.592,738.708,368.484,741.192,368.052z M744.594,360.204
	v11.88h-1.476v-11.88H744.594z M729.404,368.016h-3.852v1.692h1.98v3.672h-9.486V375h9.972v1.152h-11.412V372.3h9.468v-1.476h-9.522
	v-1.116h2.088v-1.692h-3.852v-1.188h14.616V368.016z M724.076,369.708v-1.692h-3.96v1.692H724.076z M728.63,364.668l-0.504,1.116
	c-2.574-0.324-5.004-1.422-6.012-3.132c-1.026,1.71-3.474,2.808-6.048,3.132l-0.486-1.116c2.934-0.306,5.778-1.854,5.778-3.78
	v-0.612h1.512v0.612C722.87,362.814,725.678,364.362,728.63,364.668z M702.585,374.766h9.396v1.206h-10.872v-5.184h1.476V374.766z
	 M707.049,365.28c0,2.34-1.818,3.996-4.23,3.996c-2.394,0-4.194-1.656-4.194-3.996c0-2.322,1.8-3.96,4.194-3.96
	C705.231,361.32,707.049,362.958,707.049,365.28z M700.065,365.28c0,1.602,1.188,2.718,2.754,2.718c1.602,0,2.79-1.116,2.79-2.718
	c0-1.566-1.188-2.682-2.79-2.682C701.253,362.598,700.065,363.714,700.065,365.28z M711.495,360.204v11.79h-1.476v-11.79H711.495z"
	/>
<rect x="903" y="338" fill="#D9D9D9" width="230" height="60"/>
<path d="M1053.315,373.02h6.66v1.206h-14.652v-1.206h6.516v-3.924h1.476V373.02z M1059.255,368.07l-0.63,1.224
	c-2.466-0.522-5.004-2.196-6.048-4.5c-1.044,2.304-3.564,3.978-6.048,4.5l-0.612-1.224c2.826-0.504,5.886-2.88,5.886-5.562v-1.242
	h1.548v1.242C1053.351,365.19,1056.429,367.566,1059.255,368.07z M1043.687,364.128v1.224h-2.394v3.996h-1.476v-9.18h1.476v3.96
	H1043.687z M1031.122,376.098v-5.994h10.17v5.994H1031.122z M1032.58,371.292v3.618h7.254v-3.618H1032.58z M1029.466,361.212h7.452
	c0,4.104-2.844,7.002-7.596,8.298l-0.576-1.17c3.942-1.062,6.3-3.186,6.588-5.922h-5.868V361.212z M1022.065,363.93h-2.394v2.178
	h2.394v1.224h-2.394v2.628h-1.476v-9.756h1.476v2.502h2.394V363.93z M1014.523,370.428c3.276,0,5.31,1.08,5.31,2.952
	c0,1.872-2.034,2.934-5.31,2.934c-3.294,0-5.31-1.062-5.31-2.934C1009.213,371.508,1011.229,370.428,1014.523,370.428z
	 M1014.523,375.18c2.412,0,3.852-0.666,3.852-1.8c0-1.134-1.44-1.8-3.852-1.8s-3.87,0.666-3.87,1.8
	C1010.653,374.514,1012.111,375.18,1014.523,375.18z M1016.647,367.278l0.144,1.206c-2.556,0.432-4.68,0.522-7.668,0.522h-1.278
	v-4.572h5.778V362.4h-5.814v-1.206h7.272v4.374h-5.778v2.232C1012.129,367.8,1014.199,367.71,1016.647,367.278z M1005.183,369.15
	h-3.852v2.052h2.052v5.148h-1.476v-3.96h-9.702v-1.188h2.232v-2.052h-3.852v-1.188h14.598V369.15z M999.855,371.202v-2.052h-3.942
	v2.052H999.855z M997.875,366.738c-3.474,0-5.67-1.134-5.67-3.078c0-1.944,2.196-3.096,5.67-3.096c3.492,0,5.67,1.152,5.67,3.096
	C1003.545,365.604,1001.367,366.738,997.875,366.738z M997.875,361.734c-2.556,0-4.158,0.72-4.158,1.926s1.602,1.926,4.158,1.926
	c2.556,0,4.158-0.72,4.158-1.926S1000.431,361.734,997.875,361.734z M986.374,367.62h2.304v1.188h-14.67v-1.188h10.872
	c0.45-2.232,0.45-3.816,0.45-5.22v-0.054h-9.45v-1.206h10.908v1.26C986.788,363.786,986.788,365.424,986.374,367.62z
	 M977.41,370.626v4.122h9.846v1.206h-11.304v-5.328H977.41z"/>
<rect x="767" y="472" fill="#D9D9D9" width="231" height="60"/>
<rect x="767" y="572" fill="#D9D9D9" width="231" height="60"/>
<rect x="404" y="472" fill="#D9D9D9" width="231" height="60"/>
<path d="M941.517,514.477c0,1.611-0.211,3.094-0.633,4.449c-0.418,1.351-1.016,2.595-1.796,3.733h-1.329
	c0.307-0.422,0.592-0.942,0.856-1.56c0.269-0.614,0.503-1.287,0.703-2.02c0.2-0.737,0.356-1.498,0.467-2.282
	c0.115-0.788,0.173-1.562,0.173-2.32c0-1.014-0.098-2.043-0.294-3.087s-0.46-2.013-0.793-2.908
	c-0.332-0.895-0.703-1.624-1.112-2.186h1.329c0.78,1.138,1.379,2.384,1.796,3.739C941.306,511.386,941.517,512.866,941.517,514.477z
	 M932.992,505.168h1.476v16.2h-1.476V505.168z M927.268,513.772v2.736c1.566-0.09,3.168-0.216,4.662-0.45l0.126,1.098
	c-3.636,0.666-7.542,0.702-10.458,0.702l-0.18-1.242c1.296,0,2.79,0,4.374-0.054v-2.79c-2.088-0.27-3.564-1.728-3.564-3.762
	c0-2.25,1.818-3.78,4.302-3.78c2.538,0,4.338,1.53,4.338,3.78C930.868,512.044,929.41,513.52,927.268,513.772z M923.668,510.01
	c0,1.512,1.224,2.556,2.862,2.556c1.692,0,2.898-1.044,2.898-2.556c0-1.494-1.206-2.52-2.898-2.52
	C924.892,507.49,923.668,508.516,923.668,510.01z M917.046,505.168h1.422v16.146h-1.422V505.168z M913.806,510.982v-5.436h1.404
	v14.94h-1.404v-8.298h-2.664v-1.206H913.806z M909.486,508.282v1.458c0,2.808,1.206,5.616,3.438,6.876l-0.9,1.08
	c-1.566-0.936-2.682-2.664-3.24-4.716c-0.558,2.214-1.728,4.104-3.33,5.112l-0.9-1.098c2.25-1.35,3.51-4.284,3.51-7.254v-1.458
	h-3.06v-1.206h7.362v1.206H909.486z M895.443,505.186h1.404v16.128h-1.404V505.186z M892.203,509.686v-4.068h1.404v14.886h-1.404
	v-5.58h-2.916v-1.206h2.916v-2.844h-2.664c-0.756,2.718-2.502,5.148-5.562,6.966l-0.864-1.044c3.474-2.07,5.202-4.968,5.454-8.352
	h-4.734v-1.206h6.192c0,0.828-0.072,1.638-0.216,2.448H892.203z M878.38,505.204l1.494-0.018v9.522h-1.494v-2.322h-4.086
	c-0.756,0.918-1.926,1.476-3.33,1.476c-2.376,0-4.14-1.62-4.14-3.906c0-2.268,1.764-3.87,4.14-3.87c1.404,0,2.592,0.558,3.348,1.476
	h4.068V505.204z M870.964,512.602c1.584,0,2.754-1.098,2.754-2.646c0-1.512-1.17-2.61-2.754-2.61c-1.566,0-2.736,1.098-2.736,2.61
	C868.228,511.504,869.398,512.602,870.964,512.602z M874.942,511.18h3.438v-2.43h-3.438c0.108,0.378,0.18,0.774,0.18,1.206
	C875.122,510.406,875.05,510.802,874.942,511.18z M869.074,516.796v-1.206h10.8v5.76h-1.494v-4.554H869.074z M854.406,519.766h9.288
	v1.206H852.93v-5.04h1.476V519.766z M858.114,512.692v1.44h-7.362v-7.524h7.362v1.422h3.708v-2.826h1.494v11.772h-1.494v-4.284
	H858.114z M861.822,509.236h-3.708v2.25h3.708V509.236z M856.673,512.962v-5.184h-4.464v5.184H856.673z M848.652,506.295
	l-4.219,15.673h-1.381l4.219-15.673H848.652z M838.757,505.186h1.476v16.146h-1.476V505.186z M833.213,513.016v3.474
	c1.512-0.072,3.042-0.162,4.482-0.36l0.108,1.098c-3.582,0.576-7.434,0.63-10.494,0.63l-0.198-1.242
	c1.422,0,3.006-0.018,4.626-0.072v-3.528h-3.366v-6.228h1.476v5.022h6.876v1.206H833.213z M821.481,514.477
	c0-1.611,0.209-3.092,0.626-4.442c0.422-1.355,1.023-2.602,1.803-3.739h1.33c-0.307,0.422-0.594,0.942-0.863,1.56
	c-0.264,0.614-0.496,1.289-0.697,2.026c-0.2,0.733-0.358,1.491-0.473,2.276c-0.111,0.784-0.166,1.557-0.166,2.32
	c0,1.014,0.098,2.043,0.294,3.087c0.196,1.044,0.46,2.013,0.793,2.908s0.703,1.624,1.112,2.186h-1.33
	c-0.78-1.138-1.381-2.382-1.803-3.733C821.69,517.571,821.481,516.088,821.481,514.477z M936.905,496.02h6.66v1.206h-14.652v-1.206
	h6.516v-3.924h1.476V496.02z M942.845,491.07l-0.63,1.224c-2.466-0.522-5.004-2.196-6.048-4.5c-1.044,2.304-3.564,3.978-6.048,4.5
	l-0.612-1.224c2.826-0.504,5.886-2.88,5.886-5.562v-1.242h1.548v1.242C936.941,488.19,940.019,490.566,942.845,491.07z
	 M927.276,487.128v1.224h-2.394v3.996h-1.476v-9.18h1.476v3.96H927.276z M914.712,499.098v-5.994h10.17v5.994H914.712z
	 M916.17,494.292v3.618h7.254v-3.618H916.17z M913.056,484.212h7.452c0,4.104-2.844,7.002-7.596,8.298l-0.576-1.17
	c3.942-1.062,6.3-3.186,6.588-5.922h-5.868V484.212z M893.109,489.99v4.248h4.68v-4.248H893.109z M891.651,484.554h1.458v4.266h4.68
	v-4.266h1.458v10.89h-7.596V484.554z M902.469,483.186h1.476v16.164h-1.476V483.186z M882.167,496.02h6.66v1.206h-14.652v-1.206
	h6.516v-3.924h1.476V496.02z M888.107,491.07l-0.63,1.224c-2.466-0.522-5.004-2.196-6.048-4.5c-1.044,2.304-3.564,3.978-6.048,4.5
	l-0.612-1.224c2.826-0.504,5.886-2.88,5.886-5.562v-1.242h1.548v1.242C882.203,488.19,885.281,490.566,888.107,491.07z
	 M864.29,483.204h1.476v16.128h-1.476V483.204z M858.314,486.066v2.052c0,2.736,1.944,5.526,4.32,6.534l-0.828,1.188
	c-1.872-0.864-3.456-2.718-4.23-4.932c-0.738,2.358-2.322,4.392-4.158,5.328l-0.864-1.188c2.322-1.098,4.284-4.14,4.284-6.93v-2.052
	h-3.744v-1.224h9.018v1.224H858.314z M847.821,483.186h1.476v16.182h-1.476v-9.63h-4.95v-1.224h4.95V483.186z M838.353,484.986
	v9.234c2.394-0.018,4.59-0.18,6.966-0.666l0.198,1.26c-2.556,0.486-4.824,0.648-7.38,0.648h-1.26v-10.476H838.353z M831.748,483.186
	h1.404v16.146h-1.404V483.186z M828.544,489.468v-5.922h1.404v14.994h-1.404v-7.866h-2.034c-0.126,3.168-1.44,5.112-3.42,5.112
	c-2.106,0-3.456-2.16-3.456-5.652c0-3.438,1.35-5.598,3.456-5.598c1.944,0,3.24,1.89,3.42,4.932H828.544z M823.09,494.418
	c1.26,0,2.088-1.638,2.088-4.284c0-2.592-0.828-4.23-2.088-4.23c-1.296,0-2.106,1.638-2.106,4.23
	C820.984,492.78,821.794,494.418,823.09,494.418z"/>
<path d="M917.315,607.02h6.66v1.206h-14.652v-1.206h6.516v-3.924h1.476V607.02z M923.255,602.07l-0.63,1.224
	c-2.466-0.522-5.004-2.196-6.048-4.5c-1.044,2.304-3.564,3.978-6.048,4.5l-0.612-1.224c2.826-0.504,5.886-2.88,5.886-5.562v-1.242
	h1.548v1.242C917.351,599.19,920.429,601.566,923.255,602.07z M907.687,598.128v1.224h-2.394v3.996h-1.476v-9.18h1.476v3.96H907.687
	z M895.122,610.098v-5.994h10.17v5.994H895.122z M896.58,605.292v3.618h7.254v-3.618H896.58z M893.466,595.212h7.452
	c0,4.104-2.844,7.002-7.596,8.298l-0.576-1.17c3.942-1.062,6.3-3.186,6.588-5.922h-5.868V595.212z M886.065,597.93h-2.394v2.178
	h2.394v1.224h-2.394v2.628h-1.476v-9.756h1.476v2.502h2.394V597.93z M878.523,604.428c3.276,0,5.31,1.08,5.31,2.952
	c0,1.872-2.034,2.934-5.31,2.934c-3.294,0-5.31-1.062-5.31-2.934C873.213,605.508,875.229,604.428,878.523,604.428z M878.523,609.18
	c2.412,0,3.852-0.666,3.852-1.8s-1.44-1.8-3.852-1.8s-3.87,0.666-3.87,1.8S876.111,609.18,878.523,609.18z M880.647,601.278
	l0.144,1.206c-2.556,0.432-4.68,0.522-7.668,0.522h-1.278v-4.572h5.778V596.4h-5.814v-1.206h7.272v4.374h-5.778v2.232
	C876.129,601.8,878.199,601.71,880.647,601.278z M862.631,602.16h6.57v1.188h-14.616v-1.188h6.57v-1.872h-4.734v-5.364h10.962v1.188
	h-9.486v2.988h9.594v1.188h-4.86V602.16z M861.893,604.5c3.42,0,5.508,1.044,5.508,2.916s-2.088,2.916-5.508,2.916
	c-3.456,0-5.544-1.044-5.544-2.916S858.437,604.5,861.893,604.5z M861.893,609.18c2.52,0,4.014-0.63,4.014-1.764
	s-1.494-1.764-4.014-1.764c-2.556,0-4.05,0.63-4.05,1.764S859.337,609.18,861.893,609.18z M850.536,598.308h2.376v1.242h-2.376
	v4.176h-1.476v-9.54h1.476V598.308z M841.572,607.722v1.368h9.576v1.062h-11.016v-3.42h8.946v-1.26h-9v-1.044h10.458v3.294H841.572z
	 M848.106,601.782l0.09,0.936c-3.438,0.612-7.254,0.63-10.08,0.63l-0.162-1.098c1.26,0,2.754,0,4.302-0.054v-0.99
	c-1.872-0.144-3.042-0.9-3.042-2.106c0-1.332,1.476-2.124,3.78-2.124c2.268,0,3.762,0.792,3.762,2.124
	c0,1.188-1.17,1.944-3.024,2.106v0.954C845.208,602.088,846.72,601.962,848.106,601.782z M840.618,599.1
	c0,0.72,0.918,1.17,2.376,1.17c1.44,0,2.358-0.45,2.358-1.17c0-0.72-0.918-1.152-2.358-1.152
	C841.536,597.948,840.618,598.38,840.618,599.1z M847.62,595.41v1.062h-9.27v-1.062h3.906v-1.386h1.476v1.386H847.62z"/>
<path d="M580.925,511.738v1.224h-2.592v8.37h-1.476v-16.146h1.476v6.552H580.925z M566.777,506.914h7.38
	c0,4.59-2.106,8.748-7.326,11.358l-0.81-1.152c4.122-2.07,6.336-5.166,6.678-8.982h-5.922V506.914z M549.354,512.872h14.598v1.188
	h-14.598V512.872z M556.644,515.464c3.438,0,5.526,1.044,5.526,2.916c0,1.89-2.088,2.934-5.526,2.934
	c-3.456,0-5.526-1.044-5.526-2.934C551.118,516.508,553.188,515.464,556.644,515.464z M556.644,520.144
	c2.52,0,4.032-0.63,4.032-1.764c0-1.116-1.512-1.764-4.032-1.764c-2.538,0-4.032,0.648-4.032,1.764
	C552.612,519.514,554.106,520.144,556.644,520.144z M550.704,511.882l-0.522-1.17c2.862-0.306,5.454-1.71,5.526-3.51h-5.004v-1.188
	h11.934v1.188h-5.022c0.072,1.8,2.664,3.204,5.526,3.51l-0.522,1.17c-2.646-0.324-5.076-1.494-5.958-3.258
	C555.762,510.388,553.35,511.558,550.704,511.882z M530.109,511.99v4.248h4.68v-4.248H530.109z M528.651,506.554h1.458v4.266h4.68
	v-4.266h1.458v10.89h-7.596V506.554z M539.469,505.186h1.476v16.164h-1.476V505.186z M519.167,518.02h6.66v1.206h-14.652v-1.206
	h6.516v-3.924h1.476V518.02z M525.107,513.07l-0.63,1.224c-2.466-0.522-5.004-2.196-6.048-4.5c-1.044,2.304-3.564,3.978-6.048,4.5
	l-0.612-1.224c2.826-0.504,5.886-2.88,5.886-5.562v-1.242h1.548v1.242C519.203,510.19,522.281,512.566,525.107,513.07z
	 M501.29,505.204h1.476v16.128h-1.476V505.204z M495.314,508.066v2.052c0,2.736,1.944,5.526,4.32,6.534l-0.828,1.188
	c-1.872-0.864-3.456-2.718-4.23-4.932c-0.738,2.358-2.322,4.392-4.158,5.328l-0.864-1.188c2.322-1.098,4.284-4.14,4.284-6.93v-2.052
	h-3.744v-1.224h9.018v1.224H495.314z M484.821,505.186h1.476v16.182h-1.476v-9.63h-4.95v-1.224h4.95V505.186z M475.353,506.986
	v9.234c2.394-0.018,4.59-0.18,6.966-0.666l0.198,1.26c-2.556,0.486-4.824,0.648-7.38,0.648h-1.26v-10.476H475.353z M468.748,505.186
	h1.404v16.146h-1.404V505.186z M465.544,511.468v-5.922h1.404v14.994h-1.404v-7.866h-2.034c-0.126,3.168-1.44,5.112-3.42,5.112
	c-2.106,0-3.456-2.16-3.456-5.652c0-3.438,1.35-5.598,3.456-5.598c1.944,0,3.24,1.89,3.42,4.932H465.544z M460.09,516.418
	c1.26,0,2.088-1.638,2.088-4.284c0-2.592-0.828-4.23-2.088-4.23c-1.296,0-2.106,1.638-2.106,4.23
	C457.984,514.78,458.794,516.418,460.09,516.418z M551.533,483.186h1.404v16.128h-1.404V483.186z M548.293,487.686v-4.068h1.404
	v14.886h-1.404v-5.58h-2.916v-1.206h2.916v-2.844h-2.664c-0.756,2.718-2.502,5.148-5.562,6.966l-0.864-1.044
	c3.474-2.07,5.202-4.968,5.454-8.352h-4.734v-1.206h6.192c0,0.828-0.072,1.638-0.216,2.448H548.293z M534.47,483.204l1.494-0.018
	v9.522h-1.494v-2.322h-4.086c-0.756,0.918-1.926,1.476-3.33,1.476c-2.376,0-4.14-1.62-4.14-3.906c0-2.268,1.764-3.87,4.14-3.87
	c1.404,0,2.592,0.558,3.348,1.476h4.068V483.204z M527.054,490.602c1.584,0,2.754-1.098,2.754-2.646c0-1.512-1.17-2.61-2.754-2.61
	c-1.566,0-2.736,1.098-2.736,2.61C524.318,489.504,525.488,490.602,527.054,490.602z M531.032,489.18h3.438v-2.43h-3.438
	c0.108,0.378,0.18,0.774,0.18,1.206C531.212,488.406,531.14,488.802,531.032,489.18z M525.164,494.796v-1.206h10.8v5.76h-1.494
	v-4.554H525.164z M510.495,497.766h9.288v1.206h-10.764v-5.04h1.476V497.766z M514.203,490.692v1.44h-7.362v-7.524h7.362v1.422
	h3.708v-2.826h1.494v11.772h-1.494v-4.284H514.203z M517.911,487.236h-3.708v2.25h3.708V487.236z M512.763,490.962v-5.184h-4.464
	v5.184H512.763z M504.742,484.295l-4.219,15.673h-1.381l4.219-15.673H504.742z M494.847,483.186h1.476v16.146h-1.476V483.186z
	 M489.303,491.016v3.474c1.512-0.072,3.042-0.162,4.482-0.36l0.108,1.098c-3.582,0.576-7.434,0.63-10.494,0.63l-0.198-1.242
	c1.422,0,3.006-0.018,4.626-0.072v-3.528h-3.366v-6.228h1.476v5.022h6.876v1.206H489.303z"/>
<rect x="262" fill="#D9D9D9" width="230" height="60"/>
<path d="M387.893,22.186h1.476v16.146h-1.476V22.186z M382.349,30.016v3.474c1.512-0.072,3.042-0.162,4.482-0.36l0.108,1.098
	c-3.582,0.576-7.434,0.63-10.494,0.63l-0.198-1.242c1.422,0,3.006-0.018,4.626-0.072v-3.528h-3.366v-6.228h1.476v5.022h6.876v1.206
	H382.349z"/>
<rect x="636" fill="#D9D9D9" width="230" height="60"/>
<path d="M773.545,22.186h1.404v16.128h-1.404V22.186z M770.305,26.686v-4.068h1.404v14.886h-1.404v-5.58h-2.916v-1.206h2.916v-2.844
	h-2.664c-0.756,2.718-2.502,5.148-5.562,6.966l-0.864-1.044c3.474-2.07,5.202-4.968,5.454-8.352h-4.734v-1.206h6.192
	c0,0.828-0.072,1.638-0.216,2.448H770.305z M756.483,22.204l1.494-0.018v9.522h-1.494v-2.322h-4.086
	c-0.756,0.918-1.926,1.476-3.33,1.476c-2.376,0-4.14-1.62-4.14-3.906c0-2.268,1.764-3.87,4.14-3.87c1.404,0,2.592,0.558,3.348,1.476
	h4.068V22.204z M749.067,29.602c1.584,0,2.754-1.098,2.754-2.646c0-1.512-1.17-2.61-2.754-2.61c-1.566,0-2.736,1.098-2.736,2.61
	C746.331,28.504,747.501,29.602,749.067,29.602z M753.045,28.18h3.438v-2.43h-3.438c0.108,0.378,0.18,0.774,0.18,1.206
	C753.225,27.406,753.153,27.802,753.045,28.18z M747.177,33.796V32.59h10.8v5.76h-1.494v-4.554H747.177z M732.508,36.766h9.288
	v1.206h-10.764v-5.04h1.476V36.766z M736.216,29.692v1.44h-7.362v-7.524h7.362v1.422h3.708v-2.826h1.494v11.772h-1.494v-4.284
	H736.216z M739.924,26.236h-3.708v2.25h3.708V26.236z M734.776,29.962v-5.184h-4.464v5.184H734.776z"/>
<circle fill="#FFFFFF" cx="750" cy="179" r="3"/>
<path d="M749,182v37h2v-37H749z M750,181c-1.114,0-2-0.886-2-2h-2c0,2.219,1.781,4,4,4V181z M752,179c0,1.114-0.886,2-2,2v2
	c2.219,0,4-1.781,4-4H752z M750,177c1.114,0,2,0.886,2,2h2c0-2.219-1.781-4-4-4V177z M748,179c0-1.114,0.886-2,2-2v-2
	c-2.219,0-4,1.781-4,4H748z M749.293,219.707c0.391,0.391,1.024,0.391,1.414,0l6.364-6.364c0.391-0.391,0.391-1.024,0-1.414
	c-0.391-0.391-1.024-0.391-1.414,0L750,217.586l-5.657-5.657c-0.391-0.391-1.024-0.391-1.414,0c-0.391,0.391-0.391,1.024,0,1.414
	L749.293,219.707z"/>
<circle fill="#FFFFFF" cx="750" cy="279" r="3"/>
<path d="M749,288.5c0,11.598,9.402,21,21,21v-2c-10.493,0-19-8.507-19-19H749z M998,309.5c10.493,0,19,8.507,19,19h2
	c0-11.598-9.402-21-21-21V309.5z M1017,328.5v9.5h2v-9.5H1017z M770,309.5h228v-2H770V309.5z M749,282v6.5h2V282H749z M750,281
	c-1.114,0-2-0.886-2-2h-2c0,2.219,1.781,4,4,4V281z M752,279c0,1.114-0.886,2-2,2v2c2.219,0,4-1.781,4-4H752z M750,277
	c1.114,0,2,0.886,2,2h2c0-2.219-1.781-4-4-4V277z M748,279c0-1.114,0.886-2,2-2v-2c-2.219,0-4,1.781-4,4H748z M1017.293,338.707
	c0.391,0.391,1.024,0.391,1.414,0l6.364-6.364c0.391-0.391,0.391-1.024,0-1.414c-0.391-0.391-1.024-0.391-1.414,0l-5.657,5.657
	l-5.657-5.657c-0.391-0.391-1.024-0.391-1.414,0c-0.391,0.391-0.391,1.024,0,1.414L1017.293,338.707z"/>
<circle fill="#FFFFFF" cx="380" cy="179" r="3"/>
<path d="M379,182v37h2v-37H379z M380,181c-1.114,0-2-0.886-2-2h-2c0,2.219,1.781,4,4,4V181z M382,179c0,1.114-0.886,2-2,2v2
	c2.219,0,4-1.781,4-4H382z M380,177c1.114,0,2,0.886,2,2h2c0-2.219-1.781-4-4-4V177z M378,179c0-1.114,0.886-2,2-2v-2
	c-2.219,0-4,1.781-4,4H378z M379.293,219.707c0.391,0.391,1.024,0.391,1.414,0l6.364-6.364c0.391-0.391,0.391-1.024,0-1.414
	c-0.391-0.391-1.024-0.391-1.414,0L380,217.586l-5.657-5.657c-0.391-0.391-1.024-0.391-1.414,0c-0.391,0.391-0.391,1.024,0,1.414
	L379.293,219.707z"/>
<circle fill="#FFFFFF" cx="380" cy="279" r="3"/>
<path d="M379,282v56h2v-56H379z M380,281c-1.114,0-2-0.886-2-2h-2c0,2.219,1.781,4,4,4V281z M382,279c0,1.114-0.886,2-2,2v2
	c2.219,0,4-1.781,4-4H382z M380,277c1.114,0,2,0.886,2,2h2c0-2.219-1.781-4-4-4V277z M378,279c0-1.114,0.886-2,2-2v-2
	c-2.219,0-4,1.781-4,4H378z M379.293,338.707c0.391,0.391,1.024,0.391,1.414,0l6.364-6.364c0.391-0.391,0.391-1.024,0-1.414
	c-0.391-0.391-1.024-0.391-1.414,0L380,336.586l-5.657-5.657c-0.391-0.391-1.024-0.391-1.414,0c-0.391,0.391-0.391,1.024,0,1.414
	L379.293,338.707z"/>
<circle fill="#FFFFFF" cx="380" cy="279" r="3"/>
<path d="M379,288.5c0,10.493-8.507,19-19,19v2c11.598,0,21-9.402,21-21H379z M135,307.5c-11.598,0-21,9.402-21,21h2
	c0-10.493,8.507-19,19-19V307.5z M114,328.5v9.5h2v-9.5H114z M360,307.5H135v2h225V307.5z M379,282v6.5h2V282H379z M380,281
	c-1.114,0-2-0.886-2-2h-2c0,2.219,1.781,4,4,4V281z M382,279c0,1.114-0.886,2-2,2v2c2.219,0,4-1.781,4-4H382z M380,277
	c1.114,0,2,0.886,2,2h2c0-2.219-1.781-4-4-4V277z M378,279c0-1.114,0.886-2,2-2v-2c-2.219,0-4,1.781-4,4H378z M114.293,338.707
	c0.391,0.391,1.024,0.391,1.414,0l6.364-6.364c0.391-0.391,0.391-1.024,0-1.414c-0.391-0.391-1.024-0.391-1.414,0L115,336.586
	l-5.657-5.657c-0.391-0.391-1.024-0.391-1.414,0c-0.391,0.391-0.391,1.024,0,1.414L114.293,338.707z"/>
<ellipse fill="#FFFFFF" cx="635" cy="240.262" rx="3" ry="2.738"/>
<path fill="#FF0000" d="M585,239.262c-10.493,0-19-8.507-19-19h-2c0,11.598,9.402,21,21,21V239.262z M566,169
	c0-11.598-9.402-21-21-21v2c10.493,0,19,8.507,19,19H566z M545,148h-50v2h50V148z M566,220.262V169h-2v51.262H566z M632,239.262h-47
	v2h47V239.262z M635,242c-1.202,0-2-0.853-2-1.738h-2c0,2.157,1.869,3.738,4,3.738V242z M637,240.262c0,0.885-0.798,1.738-2,1.738v2
	c2.131,0,4-1.58,4-3.738H637z M635,238.524c1.202,0,2,0.853,2,1.738h2c0-2.157-1.869-3.738-4-3.738V238.524z M633,240.262
	c0-0.885,0.798-1.738,2-1.738v-2c-2.131,0-4,1.581-4,3.738H633z M494.293,148.293c-0.391,0.391-0.391,1.024,0,1.414l6.364,6.364
	c0.391,0.391,1.024,0.391,1.414,0s0.391-1.024,0-1.414L496.414,149l5.657-5.657c0.391-0.391,0.391-1.024,0-1.414
	c-0.391-0.391-1.024-0.391-1.414,0L494.293,148.293z"/>
<path fill="#FF0000" d="M629,255v8h2v-8H629z M497,260h133v-2H497V260z"/>
<circle fill="#FFFFFF" cx="1018" cy="398" r="3"/>
<path d="M1017,415c0,10.493-8.507,19-19,19v2c11.598,0,21-9.402,21-21H1017z M902.5,434c-11.598,0-21,9.402-21,21h2
	c0-10.493,8.506-19,19-19V434z M881.5,455v17h2v-17H881.5z M998,434h-95.5v2H998V434z M1017,401v14h2v-14H1017z M1018,400
	c-1.114,0-2-0.886-2-2h-2c0,2.219,1.781,4,4,4V400z M1020,398c0,1.114-0.886,2-2,2v2c2.219,0,4-1.781,4-4H1020z M1018,396
	c1.114,0,2,0.886,2,2h2c0-2.219-1.781-4-4-4V396z M1016,398c0-1.114,0.886-2,2-2v-2c-2.219,0-4,1.781-4,4H1016z M881.793,472.707
	c0.391,0.391,1.024,0.391,1.414,0l6.364-6.364c0.391-0.391,0.391-1.024,0-1.414c-0.391-0.391-1.024-0.391-1.414,0l-5.657,5.657
	l-5.657-5.657c-0.391-0.391-1.024-0.391-1.414,0c-0.391,0.391-0.391,1.024,0,1.414L881.793,472.707z"/>
<circle fill="#FFFFFF" cx="750" cy="398" r="3"/>
<path d="M749,415c0,11.598,9.402,21,21,21v-2c-10.493,0-19-8.507-19-19H749z M862.5,436c10.493,0,19,8.507,19,19h2
	c0-11.598-9.402-21-21-21V436z M881.5,455v17h2v-17H881.5z M770,436h92.5v-2H770V436z M749,401v14h2v-14H749z M750,400
	c-1.114,0-2-0.886-2-2h-2c0,2.219,1.781,4,4,4V400z M752,398c0,1.114-0.886,2-2,2v2c2.219,0,4-1.781,4-4H752z M750,396
	c1.114,0,2,0.886,2,2h2c0-2.219-1.781-4-4-4V396z M748,398c0-1.114,0.886-2,2-2v-2c-2.219,0-4,1.781-4,4H748z M881.793,472.707
	c0.391,0.391,1.024,0.391,1.414,0l6.364-6.364c0.391-0.391,0.391-1.024,0-1.414c-0.391-0.391-1.024-0.391-1.414,0l-5.657,5.657
	l-5.657-5.657c-0.391-0.391-1.024-0.391-1.414,0c-0.391,0.391-0.391,1.024,0,1.414L881.793,472.707z"/>
<circle fill="#FFFFFF" cx="750" cy="279" r="3"/>
<path d="M749,282v56h2v-56H749z M750,281c-1.114,0-2-0.886-2-2h-2c0,2.219,1.781,4,4,4V281z M752,279c0,1.114-0.886,2-2,2v2
	c2.219,0,4-1.781,4-4H752z M750,277c1.114,0,2,0.886,2,2h2c0-2.219-1.781-4-4-4V277z M748,279c0-1.114,0.886-2,2-2v-2
	c-2.219,0-4,1.781-4,4H748z M749.293,338.707c0.391,0.391,1.024,0.391,1.414,0l6.364-6.364c0.391-0.391,0.391-1.024,0-1.414
	c-0.391-0.391-1.024-0.391-1.414,0L750,336.586l-5.657-5.657c-0.391-0.391-1.024-0.391-1.414,0c-0.391,0.391-0.391,1.024,0,1.414
	L749.293,338.707z"/>
<circle fill="#FFFFFF" cx="380" cy="279" r="3"/>
<path d="M379,288.5c0,11.598,9.402,21,21,21v-2c-10.493,0-19-8.507-19-19H379z M730,309.5c10.493,0,19,8.507,19,19h2
	c0-11.598-9.402-21-21-21V309.5z M749,328.5v9.5h2v-9.5H749z M400,309.5h330v-2H400V309.5z M379,282v6.5h2V282H379z M380,281
	c-1.114,0-2-0.886-2-2h-2c0,2.219,1.781,4,4,4V281z M382,279c0,1.114-0.886,2-2,2v2c2.219,0,4-1.781,4-4H382z M380,277
	c1.114,0,2,0.886,2,2h2c0-2.219-1.781-4-4-4V277z M378,279c0-1.114,0.886-2,2-2v-2c-2.219,0-4,1.781-4,4H378z"/>
<circle fill="#FFFFFF" cx="380" cy="398" r="3"/>
<path d="M379,415c0,11.598,9.402,21,21,21v-2c-10.493,0-19-8.507-19-19H379z M499.5,436c10.493,0,19,8.507,19,19h2
	c0-11.598-9.402-21-21-21V436z M518.5,455v17h2v-17H518.5z M400,436h99.5v-2H400V436z M379,401v14h2v-14H379z M380,400
	c-1.114,0-2-0.886-2-2h-2c0,2.219,1.781,4,4,4V400z M382,398c0,1.114-0.886,2-2,2v2c2.219,0,4-1.781,4-4H382z M380,396
	c1.114,0,2,0.886,2,2h2c0-2.219-1.781-4-4-4V396z M378,398c0-1.114,0.886-2,2-2v-2c-2.219,0-4,1.781-4,4H378z M518.793,472.707
	c0.391,0.391,1.024,0.391,1.414,0l6.364-6.364c0.391-0.391,0.391-1.024,0-1.414c-0.391-0.391-1.024-0.391-1.414,0l-5.657,5.657
	l-5.657-5.657c-0.391-0.391-1.024-0.391-1.414,0c-0.391,0.391-0.391,1.024,0,1.414L518.793,472.707z"/>
<circle fill="#FFFFFF" cx="750" cy="398" r="3"/>
<path d="M749,415c0,10.493-8.507,19-19,19v2c11.598,0,21-9.402,21-21H749z M539.5,434c-11.598,0-21,9.402-21,21h2
	c0-10.493,8.507-19,19-19V434z M518.5,455v17h2v-17H518.5z M730,434H539.5v2H730V434z M749,401v14h2v-14H749z M750,400
	c-1.114,0-2-0.886-2-2h-2c0,2.219,1.781,4,4,4V400z M752,398c0,1.114-0.886,2-2,2v2c2.219,0,4-1.781,4-4H752z M750,396
	c1.114,0,2,0.886,2,2h2c0-2.219-1.781-4-4-4V396z M748,398c0-1.114,0.886-2,2-2v-2c-2.219,0-4,1.781-4,4H748z M518.793,472.707
	c0.391,0.391,1.024,0.391,1.414,0l6.364-6.364c0.391-0.391,0.391-1.024,0-1.414c-0.391-0.391-1.024-0.391-1.414,0l-5.657,5.657
	l-5.657-5.657c-0.391-0.391-1.024-0.391-1.414,0c-0.391,0.391-0.391,1.024,0,1.414L518.793,472.707z"/>
<circle fill="#FFFFFF" cx="115" cy="398" r="3"/>
<path d="M114,401v71h2v-71H114z M115,400c-1.114,0-2-0.886-2-2h-2c0,2.219,1.781,4,4,4V400z M117,398c0,1.114-0.886,2-2,2v2
	c2.219,0,4-1.781,4-4H117z M115,396c1.114,0,2,0.886,2,2h2c0-2.219-1.781-4-4-4V396z M113,398c0-1.114,0.886-2,2-2v-2
	c-2.219,0-4,1.781-4,4H113z M114.293,472.707c0.391,0.391,1.024,0.391,1.414,0l6.364-6.364c0.391-0.391,0.391-1.024,0-1.414
	c-0.391-0.391-1.024-0.391-1.414,0L115,470.586l-5.657-5.657c-0.391-0.391-1.024-0.391-1.414,0c-0.391,0.391-0.391,1.024,0,1.414
	L114.293,472.707z"/>
<circle fill="#FFFFFF" cx="882.5" cy="532" r="3"/>
<path d="M881.5,535v37h2v-37H881.5z M882.5,534c-1.115,0-2-0.886-2-2h-2c0,2.219,1.781,4,4,4V534z M884.5,532c0,1.114-0.886,2-2,2v2
	c2.219,0,4-1.781,4-4H884.5z M882.5,530c1.114,0,2,0.886,2,2h2c0-2.219-1.781-4-4-4V530z M880.5,532c0-1.114,0.885-2,2-2v-2
	c-2.219,0-4,1.781-4,4H880.5z M881.793,572.707c0.391,0.391,1.024,0.391,1.414,0l6.364-6.364c0.391-0.391,0.391-1.024,0-1.414
	s-1.024-0.391-1.414,0l-5.657,5.657l-5.657-5.657c-0.391-0.391-1.024-0.391-1.414,0s-0.391,1.024,0,1.414L881.793,572.707z"/>
<circle fill="#FFFFFF" cx="115" cy="532" r="3"/>
<path d="M114,535v37h2v-37H114z M115,534c-1.114,0-2-0.886-2-2h-2c0,2.219,1.781,4,4,4V534z M117,532c0,1.114-0.886,2-2,2v2
	c2.219,0,4-1.781,4-4H117z M115,530c1.114,0,2,0.886,2,2h2c0-2.219-1.781-4-4-4V530z M113,532c0-1.114,0.886-2,2-2v-2
	c-2.219,0-4,1.781-4,4H113z M114.293,572.707c0.391,0.391,1.024,0.391,1.414,0l6.364-6.364c0.391-0.391,0.391-1.024,0-1.414
	c-0.391-0.391-1.024-0.391-1.414,0L115,570.586l-5.657-5.657c-0.391-0.391-1.024-0.391-1.414,0c-0.391,0.391-0.391,1.024,0,1.414
	L114.293,572.707z"/>
<circle fill="#FFFFFF" cx="635" cy="368" r="3"/>
<path d="M632,367H495v2h137V367z M635,370c-1.114,0-2-0.886-2-2h-2c0,2.219,1.781,4,4,4V370z M637,368c0,1.114-0.886,2-2,2v2
	c2.219,0,4-1.781,4-4H637z M635,366c1.114,0,2,0.886,2,2h2c0-2.219-1.781-4-4-4V366z M633,368c0-1.114,0.886-2,2-2v-2
	c-2.219,0-4,1.781-4,4H633z M494.293,367.293c-0.391,0.391-0.391,1.024,0,1.414l6.364,6.364c0.391,0.391,1.024,0.391,1.414,0
	c0.391-0.391,0.391-1.024,0-1.414L496.414,368l5.657-5.657c0.391-0.391,0.391-1.024,0-1.414c-0.391-0.391-1.024-0.391-1.414,0
	L494.293,367.293z"/>
<path fill="#FE0808" d="M116.766,676.972c153.417,36.918,274.726,58.211,400.102,59.621c125.379,1.41,254.775-17.064,424.375-59.623
	l-0.487-1.94c-169.499,42.534-298.714,60.971-423.866,59.563c-125.155-1.408-246.296-22.661-399.657-59.566L116.766,676.972z"/>
<path d="M567.508,766.766c-1.922,0-3.211,0.984-3.211,2.438s1.289,2.391,3.211,2.367c1.898,0.023,3.188-0.914,3.188-2.367
	S569.406,766.766,567.508,766.766z M573.766,762.617v1.5h-12.562v-1.5h5.367v-2.508h1.852v2.508H573.766z M560.828,775.344
	c1.699,0,3.68,0,5.742-0.07v-2.32c-2.426-0.27-4.008-1.688-3.984-3.75c-0.023-2.344,1.969-3.867,4.922-3.867
	c2.906,0,4.922,1.523,4.945,3.867c-0.023,2.062-1.629,3.48-4.031,3.773v2.227c1.945-0.094,3.902-0.246,5.719-0.516l0.117,1.406
	c-4.547,0.773-9.469,0.82-13.125,0.82L560.828,775.344z M577.258,760.062v8.883h3.328v1.547h-3.328v10.406h-1.852v-20.836H577.258z
	 M557.219,769.555v1.547h-6.469v5.555h8.672v1.523h-19.078v-1.523h8.578v-5.555h-6.234v-9.258h1.875v7.711H557.219z
	 M536.242,774.102v6.797h-1.852v-5.32h-12.68v-1.477H536.242z M530.008,761.375c0,2.766,3.75,5.086,7.43,5.602l-0.75,1.477
	c-3.164-0.551-6.293-2.227-7.594-4.641c-1.312,2.426-4.453,4.09-7.641,4.641l-0.703-1.477c3.68-0.516,7.406-2.836,7.406-5.602
	v-0.984h1.852V761.375z M538.656,770.539v1.523h-19.055v-1.523h8.578v-3.211h1.805v3.211H538.656z M509.594,762.312
	c0,5.906-2.766,11.273-9.562,14.625L499,775.484c5.391-2.684,8.32-6.691,8.742-11.625h-7.781v-1.547H509.594z M514.984,760.062
	v8.484h3.375v1.547h-3.375v10.805h-1.828v-20.836H514.984z"/>
<circle fill="#FFFFFF" cx="1017" cy="179" r="3"/>
<path d="M1016,182c0,8.837-7.163,16-16,16v2c9.941,0,18-8.059,18-18H1016z M770,198c-11.598,0-21,9.402-21,21h2
	c0-10.493,8.507-19,19-19V198z M1000,198H770v2h230V198z M1017,181c-1.114,0-2-0.886-2-2h-2c0,2.219,1.781,4,4,4V181z M1019,179
	c0,1.114-0.886,2-2,2v2c2.219,0,4-1.781,4-4H1019z M1017,177c1.114,0,2,0.886,2,2h2c0-2.219-1.781-4-4-4V177z M1015,179
	c0-1.114,0.886-2,2-2v-2c-2.219,0-4,1.781-4,4H1015z M749,219c0,0.552,0.448,1,1,1c0.552,0,1-0.448,1-1H749z"/>
<path d="M562.5,335.035V338h1v-2.965H562.5z M562.5,326.14v5.93h1v-5.93H562.5z M562.5,317.245v5.93h1v-5.93H562.5z M562.5,308.351
	v5.93h1v-5.93H562.5z M562.5,299.456v5.93h1v-5.93H562.5z M562.5,290.561v5.93h1v-5.93H562.5z M562.5,281.667v5.93h1v-5.93H562.5z
	 M562.5,272.772v5.93h1v-5.93H562.5z M562.5,263.877v5.93h1v-5.93H562.5z M562.5,254.982v5.93h1v-5.93H562.5z M562.5,246.088v5.93h1
	v-5.93H562.5z M562.5,237.193v5.93h1v-5.93H562.5z M562.5,228.298v5.93h1v-5.93H562.5z M562.5,219.403v5.93h1v-5.93H562.5z
	 M562.5,210.509v5.93h1v-5.93H562.5z M562.5,201.614v5.93h1v-5.93H562.5z M562.5,192.719v5.93h1v-5.93H562.5z M562.5,183.825v5.93h1
	v-5.93H562.5z M562.5,174.93v5.93h1v-5.93H562.5z M562.5,166.035v5.93h1v-5.93H562.5z M562.5,157.14v5.93h1v-5.93H562.5z
	 M562.5,148.246v5.93h1v-5.93H562.5z M562.5,139.351v5.93h1v-5.93H562.5z M562.5,130.456v5.93h1v-5.93H562.5z M562.5,121.561v5.93h1
	v-5.93H562.5z M562.5,112.667v5.93h1v-5.93H562.5z M562.5,103.772v5.93h1v-5.93H562.5z M562.5,94.877v5.93h1v-5.93H562.5z
	 M562.5,85.982v5.93h1v-5.93H562.5z M562.5,77.088v5.93h1v-5.93H562.5z M562.5,68.193v5.93h1v-5.93H562.5z M562.5,59.298v5.93h1
	v-5.93H562.5z M562.5,50.404v5.93h1v-5.93H562.5z M562.5,41.509v5.93h1v-5.93H562.5z M562.5,32.614v5.93h1v-5.93H562.5z
	 M562.5,23.719v5.93h1v-5.93H562.5z M562.5,14.825v5.93h1v-5.93H562.5z M562.5,5.93v5.93h1V5.93H562.5z M562.5,0v2.965h1V0H562.5z
	 M563.5,335.035c0-0.276-0.224-0.5-0.5-0.5c-0.276,0-0.5,0.224-0.5,0.5H563.5z M562.5,332.07c0,0.276,0.224,0.5,0.5,0.5
	c0.276,0,0.5-0.224,0.5-0.5H562.5z M563.5,326.14c0-0.276-0.224-0.5-0.5-0.5c-0.276,0-0.5,0.224-0.5,0.5H563.5z M562.5,323.175
	c0,0.276,0.224,0.5,0.5,0.5c0.276,0,0.5-0.224,0.5-0.5H562.5z M563.5,317.245c0-0.276-0.224-0.5-0.5-0.5c-0.276,0-0.5,0.224-0.5,0.5
	H563.5z M562.5,314.28c0,0.276,0.224,0.5,0.5,0.5c0.276,0,0.5-0.224,0.5-0.5H562.5z M563.5,308.351c0-0.276-0.224-0.5-0.5-0.5
	c-0.276,0-0.5,0.224-0.5,0.5H563.5z M562.5,305.386c0,0.276,0.224,0.5,0.5,0.5c0.276,0,0.5-0.224,0.5-0.5H562.5z M563.5,299.456
	c0-0.276-0.224-0.5-0.5-0.5c-0.276,0-0.5,0.224-0.5,0.5H563.5z M562.5,296.491c0,0.276,0.224,0.5,0.5,0.5c0.276,0,0.5-0.224,0.5-0.5
	H562.5z M563.5,290.561c0-0.276-0.224-0.5-0.5-0.5c-0.276,0-0.5,0.224-0.5,0.5H563.5z M562.5,287.596c0,0.276,0.224,0.5,0.5,0.5
	c0.276,0,0.5-0.224,0.5-0.5H562.5z M563.5,281.667c0-0.276-0.224-0.5-0.5-0.5c-0.276,0-0.5,0.224-0.5,0.5H563.5z M562.5,278.702
	c0,0.276,0.224,0.5,0.5,0.5c0.276,0,0.5-0.224,0.5-0.5H562.5z M563.5,272.772c0-0.276-0.224-0.5-0.5-0.5c-0.276,0-0.5,0.224-0.5,0.5
	H563.5z M562.5,269.807c0,0.276,0.224,0.5,0.5,0.5c0.276,0,0.5-0.224,0.5-0.5H562.5z M563.5,263.877c0-0.276-0.224-0.5-0.5-0.5
	c-0.276,0-0.5,0.224-0.5,0.5H563.5z M562.5,260.912c0,0.276,0.224,0.5,0.5,0.5c0.276,0,0.5-0.224,0.5-0.5H562.5z M563.5,254.982
	c0-0.276-0.224-0.5-0.5-0.5c-0.276,0-0.5,0.224-0.5,0.5H563.5z M562.5,252.017c0,0.276,0.224,0.5,0.5,0.5c0.276,0,0.5-0.224,0.5-0.5
	H562.5z M563.5,246.088c0-0.276-0.224-0.5-0.5-0.5c-0.276,0-0.5,0.224-0.5,0.5H563.5z M562.5,243.123c0,0.276,0.224,0.5,0.5,0.5
	c0.276,0,0.5-0.224,0.5-0.5H562.5z M563.5,237.193c0-0.276-0.224-0.5-0.5-0.5c-0.276,0-0.5,0.224-0.5,0.5H563.5z M562.5,234.228
	c0,0.276,0.224,0.5,0.5,0.5c0.276,0,0.5-0.224,0.5-0.5H562.5z M563.5,228.298c0-0.276-0.224-0.5-0.5-0.5c-0.276,0-0.5,0.224-0.5,0.5
	H563.5z M562.5,225.333c0,0.276,0.224,0.5,0.5,0.5c0.276,0,0.5-0.224,0.5-0.5H562.5z M563.5,219.403c0-0.276-0.224-0.5-0.5-0.5
	c-0.276,0-0.5,0.224-0.5,0.5H563.5z M562.5,216.439c0,0.276,0.224,0.5,0.5,0.5c0.276,0,0.5-0.224,0.5-0.5H562.5z M563.5,210.509
	c0-0.276-0.224-0.5-0.5-0.5c-0.276,0-0.5,0.224-0.5,0.5H563.5z M562.5,207.544c0,0.276,0.224,0.5,0.5,0.5c0.276,0,0.5-0.224,0.5-0.5
	H562.5z M563.5,201.614c0-0.276-0.224-0.5-0.5-0.5c-0.276,0-0.5,0.224-0.5,0.5H563.5z M562.5,198.649c0,0.276,0.224,0.5,0.5,0.5
	c0.276,0,0.5-0.224,0.5-0.5H562.5z M563.5,192.719c0-0.276-0.224-0.5-0.5-0.5c-0.276,0-0.5,0.224-0.5,0.5H563.5z M562.5,189.754
	c0,0.276,0.224,0.5,0.5,0.5c0.276,0,0.5-0.224,0.5-0.5H562.5z M563.5,183.825c0-0.276-0.224-0.5-0.5-0.5c-0.276,0-0.5,0.224-0.5,0.5
	H563.5z M562.5,180.86c0,0.276,0.224,0.5,0.5,0.5c0.276,0,0.5-0.224,0.5-0.5H562.5z M563.5,174.93c0-0.276-0.224-0.5-0.5-0.5
	c-0.276,0-0.5,0.224-0.5,0.5H563.5z M562.5,171.965c0,0.276,0.224,0.5,0.5,0.5c0.276,0,0.5-0.224,0.5-0.5H562.5z M563.5,166.035
	c0-0.276-0.224-0.5-0.5-0.5c-0.276,0-0.5,0.224-0.5,0.5H563.5z M562.5,163.07c0,0.276,0.224,0.5,0.5,0.5c0.276,0,0.5-0.224,0.5-0.5
	H562.5z M563.5,157.14c0-0.276-0.224-0.5-0.5-0.5c-0.276,0-0.5,0.224-0.5,0.5H563.5z M562.5,154.175c0,0.276,0.224,0.5,0.5,0.5
	c0.276,0,0.5-0.224,0.5-0.5H562.5z M563.5,148.246c0-0.276-0.224-0.5-0.5-0.5c-0.276,0-0.5,0.224-0.5,0.5H563.5z M562.5,145.281
	c0,0.276,0.224,0.5,0.5,0.5c0.276,0,0.5-0.224,0.5-0.5H562.5z M563.5,139.351c0-0.276-0.224-0.5-0.5-0.5c-0.276,0-0.5,0.224-0.5,0.5
	H563.5z M562.5,136.386c0,0.276,0.224,0.5,0.5,0.5c0.276,0,0.5-0.224,0.5-0.5H562.5z M563.5,130.456c0-0.276-0.224-0.5-0.5-0.5
	c-0.276,0-0.5,0.224-0.5,0.5H563.5z M562.5,127.491c0,0.276,0.224,0.5,0.5,0.5c0.276,0,0.5-0.224,0.5-0.5H562.5z M563.5,121.561
	c0-0.276-0.224-0.5-0.5-0.5c-0.276,0-0.5,0.224-0.5,0.5H563.5z M562.5,118.596c0,0.276,0.224,0.5,0.5,0.5c0.276,0,0.5-0.224,0.5-0.5
	H562.5z M563.5,112.667c0-0.276-0.224-0.5-0.5-0.5c-0.276,0-0.5,0.224-0.5,0.5H563.5z M562.5,109.702c0,0.276,0.224,0.5,0.5,0.5
	c0.276,0,0.5-0.224,0.5-0.5H562.5z M563.5,103.772c0-0.276-0.224-0.5-0.5-0.5c-0.276,0-0.5,0.224-0.5,0.5H563.5z M562.5,100.807
	c0,0.276,0.224,0.5,0.5,0.5c0.276,0,0.5-0.224,0.5-0.5H562.5z M563.5,94.877c0-0.276-0.224-0.5-0.5-0.5c-0.276,0-0.5,0.224-0.5,0.5
	H563.5z M562.5,91.912c0,0.276,0.224,0.5,0.5,0.5c0.276,0,0.5-0.224,0.5-0.5H562.5z M563.5,85.982c0-0.276-0.224-0.5-0.5-0.5
	c-0.276,0-0.5,0.224-0.5,0.5H563.5z M562.5,83.018c0,0.276,0.224,0.5,0.5,0.5c0.276,0,0.5-0.224,0.5-0.5H562.5z M563.5,77.088
	c0-0.276-0.224-0.5-0.5-0.5c-0.276,0-0.5,0.224-0.5,0.5H563.5z M562.5,74.123c0,0.276,0.224,0.5,0.5,0.5c0.276,0,0.5-0.224,0.5-0.5
	H562.5z M563.5,68.193c0-0.276-0.224-0.5-0.5-0.5c-0.276,0-0.5,0.224-0.5,0.5H563.5z M562.5,65.228c0,0.276,0.224,0.5,0.5,0.5
	c0.276,0,0.5-0.224,0.5-0.5H562.5z M563.5,59.298c0-0.276-0.224-0.5-0.5-0.5c-0.276,0-0.5,0.224-0.5,0.5H563.5z M562.5,56.333
	c0,0.276,0.224,0.5,0.5,0.5c0.276,0,0.5-0.224,0.5-0.5H562.5z M563.5,50.404c0-0.276-0.224-0.5-0.5-0.5c-0.276,0-0.5,0.224-0.5,0.5
	H563.5z M562.5,47.439c0,0.276,0.224,0.5,0.5,0.5c0.276,0,0.5-0.224,0.5-0.5H562.5z M563.5,41.509c0-0.276-0.224-0.5-0.5-0.5
	c-0.276,0-0.5,0.224-0.5,0.5H563.5z M562.5,38.544c0,0.276,0.224,0.5,0.5,0.5c0.276,0,0.5-0.224,0.5-0.5H562.5z M563.5,32.614
	c0-0.276-0.224-0.5-0.5-0.5c-0.276,0-0.5,0.224-0.5,0.5H563.5z M562.5,29.649c0,0.276,0.224,0.5,0.5,0.5c0.276,0,0.5-0.224,0.5-0.5
	H562.5z M563.5,23.719c0-0.276-0.224-0.5-0.5-0.5c-0.276,0-0.5,0.224-0.5,0.5H563.5z M562.5,20.754c0,0.276,0.224,0.5,0.5,0.5
	c0.276,0,0.5-0.224,0.5-0.5H562.5z M563.5,14.825c0-0.276-0.224-0.5-0.5-0.5c-0.276,0-0.5,0.224-0.5,0.5H563.5z M562.5,11.86
	c0,0.276,0.224,0.5,0.5,0.5c0.276,0,0.5-0.224,0.5-0.5H562.5z M563.5,5.93c0-0.276-0.224-0.5-0.5-0.5c-0.276,0-0.5,0.224-0.5,0.5
	H563.5z M562.5,2.965c0,0.276,0.224,0.5,0.5,0.5c0.276,0,0.5-0.224,0.5-0.5H562.5z"/>
</svg>
