<?xml version="1.0" encoding="utf-8"?>
<!-- Generator: Adobe Illustrator 28.0.0, SVG Export Plug-In . SVG Version: 6.00 Build 0)  -->
<svg version="1.1" id="레이어_1" xmlns="http://www.w3.org/2000/svg" xmlns:xlink="http://www.w3.org/1999/xlink" x="0px"
	 y="0px" viewBox="0 0 512.199 197.422" enable-background="new 0 0 512.199 197.422" xml:space="preserve">
<linearGradient id="SVGID_1_" gradientUnits="userSpaceOnUse" x1="132.1105" y1="1.7455" x2="132.1105" y2="84.1417">
	<stop  offset="0" style="stop-color:#FFFFFF"/>
	<stop  offset="0.4385" style="stop-color:#FFFFFF"/>
	<stop  offset="0.4492" style="stop-color:#FFF4EF"/>
	<stop  offset="0.5132" style="stop-color:#FBC6B3"/>
	<stop  offset="0.5793" style="stop-color:#F79F84"/>
	<stop  offset="0.6459" style="stop-color:#F38064"/>
	<stop  offset="0.7132" style="stop-color:#F1654B"/>
	<stop  offset="0.7814" style="stop-color:#EF4D39"/>
	<stop  offset="0.851" style="stop-color:#ED382E"/>
	<stop  offset="0.9228" style="stop-color:#ED2829"/>
	<stop  offset="1" style="stop-color:#EC2227"/>
</linearGradient>
<circle fill="url(#SVGID_1_)" stroke="#010101" stroke-width="0.8851" stroke-miterlimit="10" cx="132.11" cy="38.943" r="38.5"/>
<linearGradient id="SVGID_00000073684538598492647000000012792600454907331505_" gradientUnits="userSpaceOnUse" x1="250.4438" y1="1.7455" x2="250.4438" y2="84.1417">
	<stop  offset="0" style="stop-color:#FFFFFF"/>
	<stop  offset="0.1482" style="stop-color:#FFFFFF"/>
	<stop  offset="0.1643" style="stop-color:#FFF4EF"/>
	<stop  offset="0.2614" style="stop-color:#FBC6B3"/>
	<stop  offset="0.3617" style="stop-color:#F79F84"/>
	<stop  offset="0.4627" style="stop-color:#F38064"/>
	<stop  offset="0.5648" style="stop-color:#F1654B"/>
	<stop  offset="0.6684" style="stop-color:#EF4D39"/>
	<stop  offset="0.774" style="stop-color:#ED382E"/>
	<stop  offset="0.8828" style="stop-color:#ED2829"/>
	<stop  offset="1" style="stop-color:#EC2227"/>
</linearGradient>
<circle fill="url(#SVGID_00000073684538598492647000000012792600454907331505_)" stroke="#010101" stroke-width="0.8851" stroke-miterlimit="10" cx="250.444" cy="38.943" r="38.5"/>
<linearGradient id="SVGID_00000059295038802722301960000008004728241757547436_" gradientUnits="userSpaceOnUse" x1="368.7771" y1="1.7455" x2="368.7771" y2="84.1417">
	<stop  offset="0" style="stop-color:#FFFFFF"/>
	<stop  offset="0.4385" style="stop-color:#FFFFFF"/>
	<stop  offset="0.4492" style="stop-color:#FFF4EF"/>
	<stop  offset="0.5132" style="stop-color:#FBC6B3"/>
	<stop  offset="0.5793" style="stop-color:#F79F84"/>
	<stop  offset="0.6459" style="stop-color:#F38064"/>
	<stop  offset="0.7132" style="stop-color:#F1654B"/>
	<stop  offset="0.7814" style="stop-color:#EF4D39"/>
	<stop  offset="0.851" style="stop-color:#ED382E"/>
	<stop  offset="0.9228" style="stop-color:#ED2829"/>
	<stop  offset="1" style="stop-color:#EC2227"/>
</linearGradient>
<circle fill="url(#SVGID_00000059295038802722301960000008004728241757547436_)" stroke="#010101" stroke-width="0.8851" stroke-miterlimit="10" cx="368.777" cy="38.943" r="38.5"/>
<linearGradient id="SVGID_00000165200654067109352170000007527757546332329637_" gradientUnits="userSpaceOnUse" x1="309.8605" y1="27.263" x2="309.8605" y2="53.1277" gradientTransform="matrix(-1 0 0 1 501.3876 0)">
	<stop  offset="0" style="stop-color:#FFFFFF"/>
	<stop  offset="0.4385" style="stop-color:#FFFFFF"/>
	<stop  offset="0.4492" style="stop-color:#FFF4EF"/>
	<stop  offset="0.5132" style="stop-color:#FBC6B3"/>
	<stop  offset="0.5793" style="stop-color:#F79F84"/>
	<stop  offset="0.6459" style="stop-color:#F38064"/>
	<stop  offset="0.7132" style="stop-color:#F1654B"/>
	<stop  offset="0.7814" style="stop-color:#EF4D39"/>
	<stop  offset="0.851" style="stop-color:#ED382E"/>
	<stop  offset="0.9228" style="stop-color:#ED2829"/>
	<stop  offset="1" style="stop-color:#EC2227"/>
</linearGradient>
<polygon fill="url(#SVGID_00000165200654067109352170000007527757546332329637_)" stroke="#010101" stroke-width="0.4255" stroke-miterlimit="10" points="
	174.277,38.939 182.327,26.854 182.327,31.962 208.777,31.962 208.777,45.917 182.327,45.917 182.327,51.025 "/>
<linearGradient id="SVGID_00000024720474795519579280000015889336920112522385_" gradientUnits="userSpaceOnUse" x1="309.5271" y1="27.263" x2="309.5271" y2="53.1277">
	<stop  offset="0" style="stop-color:#FFFFFF"/>
	<stop  offset="0.4385" style="stop-color:#FFFFFF"/>
	<stop  offset="0.4492" style="stop-color:#FFF4EF"/>
	<stop  offset="0.5132" style="stop-color:#FBC6B3"/>
	<stop  offset="0.5793" style="stop-color:#F79F84"/>
	<stop  offset="0.6459" style="stop-color:#F38064"/>
	<stop  offset="0.7132" style="stop-color:#F1654B"/>
	<stop  offset="0.7814" style="stop-color:#EF4D39"/>
	<stop  offset="0.851" style="stop-color:#ED382E"/>
	<stop  offset="0.9228" style="stop-color:#ED2829"/>
	<stop  offset="1" style="stop-color:#EC2227"/>
</linearGradient>
<polygon fill="url(#SVGID_00000024720474795519579280000015889336920112522385_)" stroke="#010101" stroke-width="0.4255" stroke-miterlimit="10" points="
	326.777,38.939 318.727,26.854 318.727,31.962 292.277,31.962 292.277,45.917 318.727,45.917 318.727,51.025 "/>
<g>
	<rect x="352.1" y="24.717" fill="none" width="33.768" height="21.226"/>
	<path fill="#010101" d="M364.305,35.097h-1.068v-3.516h-4.176v-0.852h9.468v0.852h-4.224V35.097z M367.46,29.468h-7.26v-4.152
		h7.152v0.864h-6.084v2.412h6.191V29.468z"/>
	<path fill="#010101" d="M375.692,29.804h-2.305v2.281c1.305-0.072,2.292-0.152,2.965-0.241l0.084,0.852
		c-0.681,0.08-1.849,0.176-3.504,0.288c-1.385,0.072-2.484,0.108-3.301,0.108l-0.18-0.9c1.072,0,2.028-0.02,2.868-0.061v-2.328
		h-2.04v-4.236h1.056v3.372h4.356V29.804z M378.116,35.156h-1.056V24.669h1.056V35.156z"/>
</g>
<g>
	<rect x="234.1" y="24.717" fill="none" width="33.768" height="21.226"/>
	<path fill="#010101" d="M247.409,29.829l-0.612,0.828c-0.512-0.216-1.01-0.554-1.494-1.014c-0.484-0.46-0.834-0.946-1.05-1.458
		c-0.16,0.552-0.486,1.098-0.978,1.638c-0.492,0.54-1.014,0.934-1.566,1.182l-0.648-0.828c0.744-0.312,1.37-0.814,1.878-1.506
		c0.508-0.692,0.762-1.438,0.762-2.238v-1.176h1.08v1.128c0,0.792,0.266,1.504,0.798,2.136
		C246.11,29.153,246.72,29.589,247.409,29.829z M249.893,34.857h-7.068v-3.276h1.068v2.412h6V34.857z M249.665,32.288h-1.068v-7.62
		h1.068V32.288z"/>
	<path fill="#010101" d="M256.66,32.169l-0.624,0.768c-0.416-0.256-0.822-0.62-1.218-1.092c-0.396-0.472-0.662-0.948-0.798-1.428
		c-0.129,0.512-0.391,1.03-0.786,1.553c-0.396,0.524-0.83,0.931-1.302,1.219l-0.672-0.708c1.488-0.928,2.232-2.308,2.232-4.14v-0.18
		h-1.98v-0.864h4.944v0.864h-1.92v0.144c0,0.944,0.198,1.738,0.594,2.382C255.526,31.331,256.036,31.825,256.66,32.169z
		 M252.64,26.373v-0.876h2.761v0.876H252.64z M257.248,30.081h-1.5v-0.864h1.5v-4.308h0.996v9.732h-0.996V30.081z M260.296,35.156
		h-1.02V24.669h1.02V35.156z"/>
</g>
<g>
	<rect x="98.1" y="24.717" fill="none" width="72.677" height="39.226"/>
	<path fill="#010101" d="M129.843,30.537h-4.848v-4.944h4.848V30.537z M128.799,29.696v-3.252h-2.76v3.252H128.799z M133.347,34.832
		h-7.032v-3.228h1.056v2.364h5.976V34.832z M132.051,27.273h-1.692v-0.852h1.692v-1.752h1.068v7.62h-1.068v-2.7h-1.692v-0.852h1.692
		V27.273z"/>
	<path fill="#010101" d="M135.783,25.946c0.512-0.476,1.14-0.714,1.884-0.714s1.374,0.236,1.89,0.708
		c0.516,0.472,0.774,1.072,0.774,1.8c0,0.728-0.256,1.318-0.768,1.77c-0.512,0.452-1.144,0.678-1.896,0.678
		c-0.744,0-1.372-0.226-1.884-0.678c-0.512-0.452-0.768-1.042-0.768-1.77C135.015,27.021,135.271,26.423,135.783,25.946z
		 M137.667,26.121c-0.472,0-0.858,0.154-1.158,0.462c-0.3,0.308-0.45,0.69-0.45,1.146c0,0.472,0.15,0.858,0.45,1.158
		c0.3,0.3,0.686,0.45,1.158,0.45c0.48,0,0.868-0.15,1.164-0.45c0.296-0.3,0.444-0.682,0.444-1.146c0-0.464-0.146-0.85-0.438-1.158
		S138.154,26.121,137.667,26.121z M136.371,31.329h7.128v3.839h-1.068v-2.987h-6.06V31.329z M140.654,26.924l-0.012-0.876h1.788
		v-1.38h1.068v6.108h-1.068v-1.392h-1.788l0.012-0.888h1.776v-1.572H140.654z"/>
</g>
<g>
	<g>
		<polyline fill="none" stroke="#010101" stroke-width="0.885" stroke-miterlimit="10" points="132.11,87.73 132.11,106.694 
			368.984,106.694 368.984,88.638 		"/>
		<g>
			<path fill="#010101" d="M132.11,82.389c-0.933,2.513-2.524,5.632-4.209,7.564l4.209-1.522l4.208,1.522
				C134.633,88.02,133.042,84.902,132.11,82.389z"/>
		</g>
		<g>
			<polygon fill="#010101" points="368.984,82.389 372.582,91.194 368.984,89.105 365.387,91.194 			"/>
		</g>
	</g>
</g>
<g>
	<path d="M246.393,112.59c0,0.969-0.181,1.857-0.542,2.666c-0.362,0.809-0.852,1.488-1.469,2.036s-1.293,1.003-2.028,1.365
		c-0.734,0.362-1.517,0.628-2.347,0.798l-0.926-1.517c1.32-0.181,2.464-0.612,3.433-1.293c0.969-0.681,1.57-1.517,1.804-2.507h-4.55
		v-1.548H246.393z M250.783,126.082h-9.708v-3.8h7.409v-0.99h-7.504v-1.485h9.388v3.816h-7.424v0.958h7.839V126.082z
		 M252.396,116.422h-2.028v2.714h-1.884v-7.153h1.884v2.906h2.028V116.422z"/>
	<path d="M265.903,118.482v1.485H253.05v-1.485H265.903z M264.435,123.511c0,0.82-0.434,1.463-1.302,1.932
		c-0.867,0.468-2.083,0.702-3.648,0.702c-1.564,0-2.78-0.234-3.647-0.702c-0.868-0.469-1.302-1.112-1.302-1.932
		c0-0.83,0.434-1.482,1.302-1.956c0.867-0.473,2.078-0.71,3.632-0.71c1.564,0,2.783,0.237,3.656,0.71
		C263.998,122.029,264.435,122.681,264.435,123.511z M264.402,117.348h-9.644v-4.95h9.532v1.501h-7.664v1.964h7.775V117.348z
		 M262.519,123.527c0-0.373-0.274-0.665-0.822-0.878c-0.549-0.213-1.291-0.319-2.228-0.319c-0.926,0-1.66,0.106-2.203,0.319
		c-0.543,0.213-0.814,0.506-0.814,0.878c0,0.362,0.271,0.644,0.814,0.846s1.277,0.303,2.203,0.303c0.937,0,1.679-0.101,2.228-0.303
		C262.244,124.171,262.519,123.889,262.519,123.527z"/>
</g>
<g>
	<path d="M83.44,129.996h-4.848v-4.74h4.848V129.996z M82.672,129.337v-3.432H79.36v3.432H82.672z M86.644,134.376h-6.948v-3.204
		h0.768v2.556h6.18V134.376z M87.82,128.076h-1.632v3.804H85.42v-7.62h0.768v3.156h1.632V128.076z"/>
	<path d="M94.528,129.337l-0.468,0.612c-0.568-0.288-1.08-0.656-1.536-1.104c-0.456-0.448-0.776-0.928-0.96-1.44
		c-0.168,0.544-0.484,1.064-0.948,1.56s-1.024,0.92-1.68,1.272l-0.468-0.576c0.808-0.392,1.458-0.91,1.95-1.554
		c0.492-0.644,0.738-1.37,0.738-2.178v-1.032h0.768v1.008c0,0.792,0.266,1.502,0.798,2.13
		C93.253,128.662,93.855,129.096,94.528,129.337z M97.216,132.804c0,0.6-0.304,1.072-0.912,1.416s-1.468,0.516-2.58,0.516
		s-1.972-0.172-2.58-0.516s-0.912-0.816-0.912-1.416c0-0.608,0.304-1.084,0.912-1.428c0.608-0.344,1.468-0.516,2.58-0.516
		s1.972,0.172,2.58,0.516C96.912,131.72,97.216,132.196,97.216,132.804z M95.728,131.839c-0.48-0.228-1.148-0.342-2.004-0.342
		s-1.522,0.114-1.998,0.342s-0.714,0.55-0.714,0.966s0.238,0.738,0.714,0.966s1.142,0.342,1.998,0.342s1.524-0.114,2.004-0.342
		s0.72-0.55,0.72-0.966S96.208,132.067,95.728,131.839z M96.328,127.344h-2.232v-0.66h2.232v-2.424h0.768v6.336h-0.768V127.344z"/>
	<path d="M101.716,124.861c0.728,0,1.346,0.224,1.854,0.672c0.508,0.448,0.762,1.036,0.762,1.764c0,0.728-0.254,1.318-0.762,1.77
		c-0.508,0.452-1.126,0.678-1.854,0.678c-0.736,0-1.356-0.224-1.86-0.672s-0.756-1.036-0.756-1.764c0-0.728,0.252-1.318,0.756-1.77
		C100.359,125.087,100.979,124.861,101.716,124.861z M101.716,125.52c-0.536,0-0.977,0.167-1.32,0.498
		c-0.344,0.332-0.516,0.758-0.516,1.278s0.174,0.948,0.522,1.284c0.348,0.336,0.786,0.504,1.314,0.504
		c0.552,0,0.996-0.164,1.332-0.492c0.336-0.328,0.504-0.756,0.504-1.284c0-0.528-0.168-0.958-0.504-1.29
		C102.711,125.687,102.268,125.52,101.716,125.52z M107.488,134.592h-6.66v-3.744h6.66V134.592z M106.72,133.945v-2.436h-5.136
		v2.436H106.72z M104.644,126.348v-0.636h2.064v-1.452h0.768v6.06h-0.768v-1.512h-2.064v-0.636h2.064v-1.824H104.644z"/>
	<path d="M118.779,130.092h-9.468v-0.648h9.468V130.092z M118.299,127.98l-0.36,0.648c-0.904-0.168-1.718-0.46-2.442-0.876
		c-0.724-0.416-1.21-0.86-1.458-1.332c-0.2,0.472-0.656,0.916-1.368,1.332c-0.712,0.416-1.536,0.704-2.472,0.864l-0.36-0.636
		c0.584-0.063,1.152-0.202,1.704-0.414c0.552-0.212,1.028-0.5,1.428-0.864c0.4-0.364,0.624-0.762,0.672-1.194h-3.42v-0.66h7.62v0.66
		h-3.384c0.048,0.432,0.286,0.832,0.714,1.2c0.428,0.368,0.918,0.658,1.47,0.87C117.195,127.79,117.748,127.924,118.299,127.98z
		 M117.64,132.876c0,0.584-0.312,1.034-0.936,1.35s-1.512,0.474-2.664,0.474c-1.136,0-2.018-0.16-2.646-0.48
		c-0.628-0.32-0.942-0.768-0.942-1.344c0-0.568,0.313-1.012,0.942-1.332c0.628-0.32,1.51-0.48,2.646-0.48
		c1.152,0,2.04,0.154,2.664,0.462S117.64,132.284,117.64,132.876z M114.04,131.724c-0.872,0-1.556,0.102-2.052,0.306
		s-0.744,0.486-0.744,0.846c0,0.376,0.248,0.666,0.744,0.87s1.18,0.306,2.052,0.306c0.88,0,1.568-0.102,2.064-0.306
		s0.744-0.494,0.744-0.87c0-0.368-0.248-0.652-0.744-0.852C115.607,131.824,114.919,131.724,114.04,131.724z"/>
	<path d="M36.785,146.352l-0.468,0.612c-0.56-0.28-1.098-0.69-1.614-1.23c-0.516-0.54-0.87-1.086-1.062-1.638
		c-0.144,0.552-0.48,1.132-1.008,1.74c-0.528,0.608-1.068,1.072-1.62,1.392l-0.54-0.552c0.664-0.312,1.292-0.858,1.884-1.638
		c0.592-0.78,0.888-1.598,0.888-2.454v-0.624h-2.472v-0.66h5.7v0.66h-2.448v0.612c0,0.848,0.304,1.64,0.912,2.376
		S36.161,146.153,36.785,146.352z M35.117,140.028h-3.036v-0.672h3.036V140.028z M38.885,149.148h-0.768V138.66h0.768V149.148z"/>
	<path d="M44.009,149.148h-0.768v-3.78h-2.52v-0.66h9.468v0.66h-2.544v3.78h-0.768v-3.78h-2.868V149.148z M49.073,141.408
		c0,0.664-0.324,1.198-0.972,1.602s-1.536,0.606-2.664,0.606c-1.12,0-2.002-0.2-2.646-0.6s-0.966-0.936-0.966-1.608
		s0.322-1.21,0.966-1.614c0.644-0.404,1.526-0.606,2.646-0.606c1.128,0,2.016,0.202,2.664,0.606
		C48.749,140.198,49.073,140.736,49.073,141.408z M45.437,139.872c-0.872,0-1.56,0.14-2.064,0.42
		c-0.504,0.28-0.756,0.652-0.756,1.116c0,0.472,0.252,0.844,0.756,1.116c0.504,0.272,1.192,0.408,2.064,0.408
		c0.888,0,1.584-0.136,2.088-0.408c0.504-0.271,0.756-0.644,0.756-1.116c0-0.464-0.254-0.836-0.762-1.116
		C47.011,140.012,46.316,139.872,45.437,139.872z"/>
	<path d="M58.048,146.544c-0.832,0.104-1.956,0.196-3.372,0.276c-1.28,0.064-2.417,0.096-3.408,0.096l-0.132-0.708
		c1.424,0,2.432-0.012,3.024-0.036v-2.268h-2.208v-4.176h5.28v0.648h-4.512v2.88h4.584v0.648h-2.376v2.232
		c1.264-0.048,2.28-0.124,3.048-0.228L58.048,146.544z M59.632,149.148h-0.768V138.66h0.768V149.148z"/>
	<path d="M67.937,145.932l-0.504,0.576c-0.576-0.392-1.124-0.88-1.644-1.464c-0.521-0.583-0.868-1.176-1.044-1.776
		c-0.176,0.664-0.508,1.306-0.996,1.926c-0.488,0.62-1.052,1.158-1.692,1.614l-0.504-0.588c0.784-0.48,1.444-1.134,1.98-1.962
		c0.536-0.828,0.804-1.698,0.804-2.61v-1.224h-2.472v-0.66h5.784v0.66h-2.52v1.2c0,0.888,0.278,1.728,0.834,2.52
		S67.176,145.532,67.937,145.932z M69.256,138.66h0.768v10.488h-0.768V138.66z"/>
	<path d="M75.934,139.896c0.508-0.448,1.13-0.672,1.866-0.672c0.736,0,1.36,0.222,1.872,0.666c0.512,0.444,0.768,1.018,0.768,1.722
		c0,0.72-0.256,1.304-0.768,1.752c-0.512,0.448-1.132,0.672-1.86,0.672c-0.744,0-1.37-0.222-1.878-0.666
		c-0.508-0.444-0.762-1.022-0.762-1.734S75.426,140.344,75.934,139.896z M77.8,139.908c-0.536,0-0.978,0.158-1.326,0.474
		s-0.522,0.726-0.522,1.23c0,0.52,0.176,0.94,0.528,1.26c0.352,0.32,0.796,0.48,1.332,0.48c0.552,0,0.998-0.158,1.338-0.474
		c0.34-0.316,0.51-0.73,0.51-1.242c0-0.52-0.17-0.938-0.51-1.254C78.81,140.067,78.36,139.908,77.8,139.908z M79.084,148.38
		c-0.96,0.304-2.004,0.444-3.132,0.42v-3.684h0.768v2.988c0.583,0.024,1.332-0.112,2.244-0.408L79.084,148.38z M84.088,146.064
		h-5.256v-0.636h5.256V146.064z M82.864,146.826c0.376,0.252,0.564,0.59,0.564,1.014c0,0.424-0.188,0.764-0.564,1.02
		c-0.376,0.256-0.844,0.384-1.404,0.384c-0.552,0-1.016-0.128-1.392-0.384c-0.376-0.256-0.564-0.596-0.564-1.02
		c0-0.424,0.186-0.762,0.558-1.014s0.838-0.378,1.398-0.378S82.488,146.574,82.864,146.826z M82.324,148.392
		c0.224-0.12,0.336-0.304,0.336-0.552s-0.112-0.432-0.336-0.552c-0.224-0.12-0.512-0.18-0.864-0.18
		c-0.336,0-0.618,0.062-0.846,0.186c-0.228,0.125-0.342,0.306-0.342,0.546c0,0.24,0.114,0.422,0.342,0.546s0.51,0.186,0.846,0.186
		C81.812,148.572,82.1,148.512,82.324,148.392z M82.72,144.936h-2.424v-0.672h2.424V144.936z M84.664,141.84h-1.632v1.908h-0.768
		v-5.088h0.768v2.532h1.632V141.84z"/>
	<path d="M94.864,144.768h-9.468v-0.66h9.468V144.768z M92.752,139.53c0.616,0.332,0.924,0.826,0.924,1.482s-0.308,1.15-0.924,1.482
		c-0.616,0.332-1.492,0.498-2.628,0.498c-1.128,0-2-0.166-2.616-0.498s-0.924-0.826-0.924-1.482s0.31-1.15,0.93-1.482
		c0.62-0.332,1.494-0.498,2.622-0.498C91.264,139.032,92.136,139.198,92.752,139.53z M93.712,148.8h-7.056v-3.012h0.768v2.364h6.288
		V148.8z M90.136,139.68c-0.856,0-1.53,0.112-2.022,0.336c-0.492,0.224-0.738,0.556-0.738,0.996c0,0.432,0.244,0.762,0.732,0.99
		s1.16,0.342,2.016,0.342c0.864,0,1.546-0.114,2.046-0.342s0.75-0.558,0.75-0.99c0-0.44-0.248-0.772-0.744-0.996
		S91,139.68,90.136,139.68z"/>
	<path d="M101.716,139.26c0.728,0,1.346,0.224,1.854,0.672c0.508,0.448,0.762,1.036,0.762,1.764s-0.254,1.318-0.762,1.77
		c-0.508,0.452-1.126,0.678-1.854,0.678c-0.736,0-1.356-0.224-1.86-0.672s-0.756-1.036-0.756-1.764c0-0.728,0.252-1.318,0.756-1.77
		C100.359,139.486,100.979,139.26,101.716,139.26z M101.716,139.92c-0.536,0-0.977,0.167-1.32,0.498
		c-0.344,0.332-0.516,0.758-0.516,1.278s0.174,0.948,0.522,1.284c0.348,0.336,0.786,0.504,1.314,0.504
		c0.552,0,0.996-0.164,1.332-0.492c0.336-0.328,0.504-0.756,0.504-1.284c0-0.528-0.168-0.958-0.504-1.29
		C102.711,140.087,102.268,139.92,101.716,139.92z M107.488,148.992h-6.66v-3.744h6.66V148.992z M106.72,148.344v-2.436h-5.136
		v2.436H106.72z M104.644,140.748v-0.636h2.064v-1.452h0.768v6.06h-0.768v-1.512h-2.064v-0.636h2.064v-1.824H104.644z"/>
	<path d="M118.779,144.492h-9.468v-0.648h9.468V144.492z M118.299,142.38l-0.36,0.648c-0.904-0.168-1.718-0.46-2.442-0.876
		c-0.724-0.416-1.21-0.86-1.458-1.332c-0.2,0.472-0.656,0.916-1.368,1.332s-1.536,0.704-2.472,0.864l-0.36-0.636
		c0.584-0.063,1.152-0.202,1.704-0.414c0.552-0.212,1.028-0.5,1.428-0.864c0.4-0.364,0.624-0.762,0.672-1.194h-3.42v-0.66h7.62v0.66
		h-3.384c0.048,0.432,0.286,0.832,0.714,1.2c0.428,0.368,0.918,0.658,1.47,0.87C117.195,142.19,117.748,142.324,118.299,142.38z
		 M117.64,147.276c0,0.584-0.312,1.034-0.936,1.35s-1.512,0.474-2.664,0.474c-1.136,0-2.018-0.16-2.646-0.48
		c-0.628-0.32-0.942-0.768-0.942-1.344c0-0.568,0.313-1.012,0.942-1.332c0.628-0.32,1.51-0.48,2.646-0.48
		c1.152,0,2.04,0.154,2.664,0.462S117.64,146.684,117.64,147.276z M114.04,146.124c-0.872,0-1.556,0.102-2.052,0.306
		s-0.744,0.486-0.744,0.846c0,0.376,0.248,0.666,0.744,0.87s1.18,0.306,2.052,0.306c0.88,0,1.568-0.102,2.064-0.306
		s0.744-0.494,0.744-0.87c0-0.368-0.248-0.652-0.744-0.852C115.607,146.224,114.919,146.124,114.04,146.124z"/>
	<path d="M12.125,153.816h4.716c-0.088,1.32-0.558,2.416-1.41,3.288s-1.978,1.52-3.378,1.944l-0.396-0.66
		c1.104-0.24,2.07-0.73,2.898-1.47c0.828-0.74,1.306-1.554,1.434-2.442h-3.864V153.816z M12.761,159.876h6.972v3.756h-0.768v-3.108
		h-6.204V159.876z M21.365,156.408h-1.632v2.904h-0.768v-6.252h0.768v2.7h1.632V156.408z"/>
	<path d="M31.565,158.916h-9.468v-0.648h4.344v-1.56h0.768v1.56h4.356V158.916z M31.085,156.636l-0.36,0.648
		c-0.904-0.16-1.718-0.448-2.442-0.864c-0.724-0.416-1.21-0.864-1.458-1.344c-0.2,0.48-0.656,0.928-1.368,1.344
		s-1.536,0.7-2.472,0.852l-0.36-0.636c0.584-0.064,1.152-0.202,1.704-0.414c0.552-0.212,1.028-0.502,1.428-0.87
		c0.4-0.368,0.624-0.768,0.672-1.2h-3.42v-0.648h7.62v0.648h-3.384c0.048,0.432,0.286,0.834,0.714,1.206
		c0.428,0.372,0.918,0.664,1.47,0.876C29.981,156.446,30.533,156.58,31.085,156.636z M29.489,160.344
		c0.624,0.32,0.936,0.78,0.936,1.38s-0.312,1.058-0.936,1.374c-0.624,0.316-1.512,0.474-2.664,0.474
		c-1.144,0-2.028-0.162-2.652-0.486c-0.624-0.324-0.936-0.778-0.936-1.362c0-0.576,0.313-1.03,0.942-1.362
		c0.628-0.332,1.51-0.498,2.646-0.498C27.977,159.864,28.865,160.024,29.489,160.344z M26.825,160.524
		c-0.872,0-1.556,0.106-2.052,0.318c-0.496,0.212-0.744,0.506-0.744,0.882s0.248,0.668,0.744,0.876s1.18,0.312,2.052,0.312
		c0.88,0,1.568-0.102,2.064-0.306s0.744-0.498,0.744-0.882c0-0.376-0.248-0.67-0.744-0.882
		C28.393,160.631,27.705,160.524,26.825,160.524z"/>
	<path d="M40.901,158.796h-4.848v-4.74h4.848V158.796z M40.133,158.136v-3.432h-3.312v3.432H40.133z M44.105,163.176h-6.948v-3.204
		h0.768v2.556h6.18V163.176z M45.281,156.876h-1.632v3.804h-0.768v-7.62h0.768v3.156h1.632V156.876z"/>
	<path d="M51.989,158.136l-0.468,0.612c-0.568-0.288-1.08-0.656-1.536-1.104c-0.456-0.448-0.776-0.928-0.96-1.44
		c-0.168,0.544-0.484,1.064-0.948,1.56s-1.024,0.92-1.68,1.272l-0.468-0.576c0.808-0.392,1.458-0.91,1.95-1.554
		c0.492-0.644,0.738-1.37,0.738-2.178v-1.032h0.768v1.008c0,0.792,0.266,1.502,0.798,2.13
		C50.714,157.462,51.316,157.896,51.989,158.136z M54.677,161.604c0,0.6-0.304,1.072-0.912,1.416s-1.468,0.516-2.58,0.516
		s-1.972-0.172-2.58-0.516s-0.912-0.816-0.912-1.416c0-0.608,0.304-1.084,0.912-1.428c0.608-0.344,1.468-0.516,2.58-0.516
		s1.972,0.172,2.58,0.516C54.373,160.52,54.677,160.996,54.677,161.604z M53.188,160.638c-0.48-0.228-1.148-0.342-2.004-0.342
		s-1.522,0.114-1.998,0.342s-0.714,0.55-0.714,0.966s0.238,0.738,0.714,0.966s1.142,0.342,1.998,0.342s1.524-0.114,2.004-0.342
		s0.72-0.55,0.72-0.966S53.668,160.866,53.188,160.638z M53.789,156.144h-2.232v-0.66h2.232v-2.424h0.768v6.336h-0.768V156.144z"/>
	<path d="M56.836,154.368v-0.648H62.5v0.648h-2.472v0.324c0,0.648,0.268,1.252,0.804,1.812c0.536,0.56,1.148,0.956,1.836,1.188
		l-0.432,0.612c-0.544-0.224-1.064-0.548-1.56-0.972c-0.497-0.424-0.844-0.868-1.044-1.332c-0.144,0.456-0.484,0.934-1.02,1.434
		c-0.536,0.5-1.088,0.886-1.656,1.158l-0.444-0.588c0.712-0.28,1.348-0.736,1.908-1.368c0.56-0.632,0.84-1.284,0.84-1.956v-0.312
		H56.836z M65.345,163.452h-7.092v-2.52h5.916v-1.164h-5.976v-0.648h6.744v2.424h-5.916v1.26h6.324V163.452z M64.937,158.508h-0.768
		v-5.448h0.768V158.508z"/>
	<path d="M73.36,159.864c-0.976,0.12-2.096,0.216-3.36,0.288c-1.344,0.096-2.424,0.144-3.24,0.144l-0.144-0.684
		c0.688,0,1.652-0.02,2.892-0.06v-0.768c-0.592-0.048-1.068-0.19-1.428-0.426c-0.36-0.236-0.54-0.578-0.54-1.026
		c0-0.504,0.222-0.882,0.666-1.134c0.444-0.252,1.01-0.378,1.698-0.378c0.696,0,1.268,0.126,1.716,0.378
		c0.448,0.252,0.672,0.626,0.672,1.122c0,0.44-0.186,0.782-0.558,1.026s-0.858,0.39-1.458,0.438v0.72
		c1.456-0.088,2.464-0.172,3.024-0.252L73.36,159.864z M72.917,155.436h-5.94v-0.66h5.94V155.436z M75.064,163.296H68.26v-2.58
		h0.768v1.92h6.036V163.296z M71.561,157.32c0-0.271-0.158-0.48-0.474-0.624c-0.316-0.144-0.71-0.216-1.182-0.216
		s-0.862,0.072-1.17,0.216c-0.308,0.144-0.462,0.353-0.462,0.624c0,0.264,0.154,0.466,0.462,0.606c0.308,0.14,0.698,0.21,1.17,0.21
		s0.866-0.07,1.182-0.21C71.402,157.786,71.561,157.584,71.561,157.32z M71.428,154.044h-2.868v-0.672h2.868V154.044z
		 M76.42,157.596h-1.632v3.564h-0.768v-8.1h0.768v3.888h1.632V157.596z"/>
	<path d="M76.876,163.764l0.468-2.34h0.972l-0.876,2.34H76.876z"/>
	<path d="M85.636,153.66c0.728,0,1.346,0.224,1.854,0.672c0.508,0.448,0.762,1.036,0.762,1.764s-0.254,1.318-0.762,1.77
		c-0.508,0.452-1.126,0.678-1.854,0.678c-0.736,0-1.356-0.224-1.86-0.672s-0.756-1.036-0.756-1.764c0-0.728,0.252-1.318,0.756-1.77
		C84.28,153.886,84.9,153.66,85.636,153.66z M85.636,154.32c-0.536,0-0.977,0.167-1.32,0.498c-0.344,0.332-0.516,0.758-0.516,1.278
		s0.174,0.948,0.522,1.284c0.348,0.336,0.786,0.504,1.314,0.504c0.552,0,0.996-0.164,1.332-0.492
		c0.336-0.328,0.504-0.756,0.504-1.284c0-0.528-0.168-0.958-0.504-1.29C86.632,154.486,86.188,154.32,85.636,154.32z M90.88,163.392
		h-6.528v-3.744h6.528V163.392z M90.112,162.744v-2.436H85.12v2.436H90.112z M92.5,156.396h-1.632v2.688H90.1v-6.024h0.768v2.688
		H92.5V156.396z"/>
	<path d="M92.956,163.764l0.468-2.34h0.972l-0.876,2.34H92.956z"/>
	<path d="M104.943,158.124c-1.56,0.28-3.424,0.392-5.592,0.336v-4.524h4.632v0.648h-3.864v3.228c0.792,0.024,1.628,0.004,2.508-0.06
		s1.612-0.156,2.196-0.276L104.943,158.124z M106.18,160.11c0.592,0.356,0.888,0.83,0.888,1.422c0,0.592-0.296,1.066-0.888,1.422
		c-0.592,0.356-1.444,0.534-2.556,0.534s-1.96-0.176-2.544-0.528s-0.876-0.828-0.876-1.428c0-0.608,0.292-1.086,0.876-1.434
		c0.584-0.348,1.432-0.522,2.544-0.522S105.587,159.754,106.18,160.11z M103.624,160.224c-0.816,0-1.458,0.12-1.926,0.36
		c-0.468,0.24-0.702,0.556-0.702,0.948c0,0.4,0.232,0.716,0.696,0.948s1.108,0.348,1.932,0.348c0.824,0,1.472-0.116,1.944-0.348
		c0.472-0.232,0.708-0.548,0.708-0.948c0-0.4-0.236-0.718-0.708-0.954C105.096,160.342,104.447,160.224,103.624,160.224z
		 M108.58,156.528h-1.632v2.856h-0.768v-6.324h0.768v2.808h1.632V156.528z"/>
	<path d="M118.779,162.12h-9.468v-0.648h2.64v-2.628h0.768v2.628h2.616v-2.628h0.768v2.628h2.676V162.12z M117.64,158.184h-7.104
		v-4.224h0.768v3.564h6.336V158.184z"/>
</g>
<g>
	<path d="M0.9,16.377v-0.648h5.664v0.648H4.092v0.324c0,0.648,0.268,1.252,0.804,1.812c0.536,0.56,1.148,0.956,1.836,1.188
		L6.3,20.313c-0.544-0.224-1.064-0.548-1.56-0.972c-0.497-0.424-0.844-0.868-1.044-1.332c-0.144,0.456-0.484,0.934-1.02,1.434
		c-0.536,0.5-1.088,0.886-1.656,1.158l-0.444-0.588c0.712-0.28,1.348-0.736,1.908-1.368c0.56-0.632,0.84-1.284,0.84-1.956v-0.312
		H0.9z M9.408,25.461H2.316v-2.52h5.916v-1.164H2.256v-0.648H9v2.424H3.084v1.26h6.324V25.461z M9,20.517H8.232v-5.448H9V20.517z"/>
	<path d="M15.924,20.853h-4.548v-5.136h0.768v1.992h3.024v-2.016h0.756V20.853z M15.168,20.205v-1.836h-3.024v1.836H15.168z
		 M19.464,23.613c0,0.6-0.312,1.072-0.936,1.416s-1.5,0.516-2.628,0.516c-1.136,0-2.014-0.172-2.634-0.516
		c-0.62-0.344-0.93-0.816-0.93-1.416c0-0.608,0.31-1.084,0.93-1.428c0.62-0.344,1.498-0.516,2.634-0.516
		c1.128,0,2.004,0.172,2.628,0.516C19.152,22.529,19.464,23.005,19.464,23.613z M17.94,24.567c0.488-0.228,0.732-0.546,0.732-0.954
		s-0.244-0.726-0.732-0.954c-0.488-0.228-1.168-0.342-2.04-0.342s-1.554,0.114-2.046,0.342c-0.492,0.228-0.738,0.546-0.738,0.954
		s0.246,0.726,0.738,0.954c0.492,0.228,1.174,0.342,2.046,0.342S17.452,24.795,17.94,24.567z M19.38,15.069v6.54h-0.768v-2.028
		H16.56v-0.648h2.052v-1.572H16.56v-0.648h2.052v-1.644H19.38z"/>
	<path d="M20.856,25.449l2.856-9.984h0.696l-2.868,9.984H20.856z"/>
	<path d="M30.324,20.805h-4.632v-4.764h4.632V20.805z M29.556,20.145v-3.444H26.46v3.444H29.556z M33.924,25.185h-6.936v-3.204
		h0.768v2.556h6.168V25.185z M30.768,17.577v-0.66h2.16v-1.848h0.768v7.62h-0.768v-2.784h-2.16v-0.66h2.16v-1.668H30.768z"/>
	<path d="M38.316,15.669c0.728,0,1.346,0.224,1.854,0.672c0.508,0.448,0.762,1.036,0.762,1.764s-0.254,1.318-0.762,1.77
		c-0.508,0.452-1.126,0.678-1.854,0.678c-0.736,0-1.356-0.224-1.86-0.672S35.7,18.845,35.7,18.117c0-0.728,0.252-1.318,0.756-1.77
		C36.959,15.895,37.58,15.669,38.316,15.669z M38.316,16.329c-0.536,0-0.977,0.167-1.32,0.498c-0.344,0.332-0.516,0.758-0.516,1.278
		s0.174,0.948,0.522,1.284c0.348,0.336,0.786,0.504,1.314,0.504c0.552,0,0.996-0.164,1.332-0.492
		c0.336-0.328,0.504-0.756,0.504-1.284c0-0.528-0.168-0.958-0.504-1.29C39.312,16.495,38.868,16.329,38.316,16.329z M37.127,21.813
		h6.948v3.756h-0.768v-3.096h-6.18V21.813z M41.244,17.157v-0.636h2.064v-1.452h0.768v6.204h-0.768v-1.656h-2.064v-0.636h2.064
		v-1.824H41.244z"/>
	<path d="M54.18,18.933h-3.156v1.392h4.356v0.66h-9.468v-0.66h4.344v-1.392h-3.108v-3.432h6.972v0.648h-6.204v2.124h6.264V18.933z
		 M46.979,22.173h7.152v3.468h-0.768v-2.808h-6.384V22.173z"/>
	<path d="M65.759,24.213h-9.468v-0.66h4.332v-2.688h0.768v2.688h4.368V24.213z M65.352,20.337l-0.432,0.624
		c-0.888-0.288-1.712-0.748-2.472-1.38c-0.76-0.632-1.24-1.212-1.44-1.74c-0.168,0.536-0.624,1.118-1.368,1.746
		c-0.744,0.628-1.58,1.078-2.508,1.35l-0.42-0.624c0.584-0.12,1.174-0.364,1.77-0.732c0.596-0.368,1.102-0.824,1.518-1.368
		s0.624-1.08,0.624-1.608v-0.72h0.792v0.72c0,0.776,0.432,1.538,1.296,2.286C63.576,19.639,64.456,20.121,65.352,20.337z"/>
	<path d="M68.891,25.437c-1.32-1.392-1.98-3.02-1.98-4.884v-0.216c0-1.864,0.66-3.492,1.98-4.884h0.672
		c-0.552,0.64-1.002,1.374-1.35,2.202s-0.522,1.698-0.522,2.61v0.3c0,0.896,0.176,1.772,0.528,2.628s0.8,1.604,1.344,2.244H68.891z"
		/>
	<path d="M70.847,24.213v-8.052h0.768v7.392h3.78v0.66H70.847z"/>
	<path d="M76.871,24.213v-8.052h2.34c1.784,0,2.676,0.78,2.676,2.34c0,0.768-0.226,1.358-0.678,1.77
		c-0.452,0.412-1.078,0.618-1.878,0.618h-1.68v3.324H76.871z M77.651,20.241h1.512c0.664,0,1.144-0.138,1.44-0.414
		c0.296-0.276,0.444-0.698,0.444-1.266c0-0.608-0.142-1.05-0.426-1.326c-0.284-0.276-0.782-0.414-1.494-0.414h-1.476V20.241z"/>
	<path d="M85.079,24.357c-0.864,0-1.628-0.188-2.292-0.564v-0.66c0.648,0.352,1.396,0.528,2.244,0.528
		c1.272,0,1.908-0.516,1.908-1.548c0-0.432-0.116-0.764-0.348-0.996c-0.232-0.232-0.616-0.432-1.152-0.6l-0.696-0.24
		c-0.632-0.208-1.096-0.476-1.392-0.804c-0.296-0.328-0.444-0.784-0.444-1.368c0-0.616,0.214-1.116,0.642-1.5
		c0.428-0.384,1.038-0.576,1.83-0.576c0.72,0,1.368,0.148,1.944,0.444v0.672c-0.592-0.288-1.252-0.432-1.98-0.432
		c-0.528,0-0.934,0.116-1.218,0.348c-0.284,0.232-0.426,0.552-0.426,0.96c0,0.424,0.096,0.748,0.288,0.972
		c0.192,0.224,0.544,0.416,1.056,0.576l0.72,0.24c0.672,0.224,1.168,0.498,1.488,0.822c0.32,0.324,0.48,0.798,0.48,1.422
		c0,0.72-0.218,1.284-0.654,1.692C86.641,24.153,85.975,24.357,85.079,24.357z"/>
	<path d="M88.583,25.437c0.552-0.64,1-1.374,1.344-2.202c0.344-0.828,0.516-1.694,0.516-2.598v-0.312
		c0-0.896-0.174-1.774-0.522-2.634c-0.348-0.86-0.794-1.606-1.338-2.238h0.672c1.32,1.408,1.98,3.036,1.98,4.884v0.216
		c0,1.848-0.66,3.476-1.98,4.884H88.583z"/>
	<path d="M53.231,34.917h-4.812v-4.872h0.768v1.716h3.276v-1.716h0.768V34.917z M52.464,34.269v-1.848h-3.276v1.848H52.464z
		 M56.04,39.801h-6.528v-3.684h6.528V39.801z M55.271,39.153v-2.388H50.28v2.388H55.271z M57.66,32.841h-1.632v2.7H55.26v-6.072
		h0.768v2.724h1.632V32.841z"/>
	<path d="M60.611,39.837c-1.32-1.392-1.98-3.02-1.98-4.884v-0.216c0-1.864,0.66-3.492,1.98-4.884h0.672
		c-0.552,0.64-1.002,1.374-1.35,2.202c-0.348,0.828-0.522,1.698-0.522,2.61v0.3c0,0.896,0.176,1.772,0.528,2.628
		s0.8,1.604,1.344,2.244H60.611z"/>
	<path d="M62.568,38.613v-8.052h0.936l4.152,6.744h0.024v-6.744h0.72v8.052h-0.816l-4.272-6.984h-0.024v6.984H62.568z"/>
	<path d="M70.319,31.461v-0.828h0.78v0.828H70.319z M70.331,38.613v-5.916h0.756v5.916H70.331z"/>
	<path d="M74.891,40.413c-0.888,0-1.548-0.124-1.98-0.372c-0.432-0.248-0.648-0.592-0.648-1.032c0-0.56,0.384-0.976,1.152-1.248
		v-0.048c-0.168-0.048-0.311-0.136-0.426-0.264c-0.116-0.128-0.174-0.284-0.174-0.468c0-0.32,0.212-0.648,0.636-0.984
		c-0.496-0.336-0.744-0.824-0.744-1.464v-0.072c0-0.584,0.206-1.046,0.618-1.386c0.412-0.34,0.942-0.51,1.59-0.51
		c0.264,0,0.532,0.032,0.804,0.096h1.992v0.576h-1.152c0.344,0.296,0.516,0.696,0.516,1.2v0.06c0,0.608-0.202,1.074-0.606,1.398
		c-0.404,0.324-0.926,0.486-1.566,0.486c-0.392,0-0.744-0.06-1.056-0.18c-0.208,0.192-0.312,0.368-0.312,0.528
		c0,0.328,0.208,0.492,0.624,0.492h1.68c1.232,0,1.848,0.468,1.848,1.404c0,0.528-0.232,0.958-0.696,1.29
		S75.827,40.413,74.891,40.413z M74.867,39.801c1.352,0,2.028-0.356,2.028-1.068c0-0.32-0.09-0.536-0.27-0.648
		c-0.18-0.112-0.482-0.168-0.906-0.168h-1.74c-0.608,0.2-0.912,0.528-0.912,0.984c0,0.304,0.14,0.53,0.42,0.678
		C73.767,39.727,74.227,39.801,74.867,39.801z M74.903,35.805c0.448,0,0.796-0.108,1.044-0.324c0.248-0.216,0.372-0.532,0.372-0.948
		v-0.108c0-0.424-0.126-0.742-0.378-0.954s-0.598-0.318-1.038-0.318s-0.788,0.11-1.044,0.33c-0.256,0.22-0.384,0.526-0.384,0.918
		v0.108c0,0.424,0.128,0.746,0.384,0.966C74.115,35.695,74.463,35.805,74.903,35.805z"/>
	<path d="M78.803,38.613v-8.592h0.756v3.192h0.048c0.608-0.408,1.304-0.612,2.088-0.612c0.576,0,1.004,0.126,1.284,0.378
		c0.28,0.252,0.42,0.654,0.42,1.206v4.428h-0.756v-4.272c0-0.4-0.094-0.684-0.282-0.852s-0.518-0.252-0.99-0.252
		c-0.592,0-1.196,0.168-1.812,0.504v4.872H78.803z"/>
	<path d="M86.939,38.673c-0.984,0-1.476-0.448-1.476-1.344v-3.996h-0.864v-0.636h0.864v-1.404h0.756v1.404h1.572v0.636h-1.572v3.888
		c0,0.304,0.064,0.52,0.192,0.648s0.368,0.192,0.72,0.192c0.272,0,0.528-0.04,0.768-0.12v0.504
		C87.643,38.597,87.323,38.673,86.939,38.673z"/>
	<path d="M88.583,39.837c0.552-0.64,1-1.374,1.344-2.202c0.344-0.828,0.516-1.694,0.516-2.598v-0.312
		c0-0.896-0.174-1.774-0.522-2.634c-0.348-0.86-0.794-1.606-1.338-2.238h0.672c1.32,1.408,1.98,3.036,1.98,4.884v0.216
		c0,1.848-0.66,3.476-1.98,4.884H88.583z"/>
	<path d="M22.74,51.177l-0.516,0.612c-0.552-0.392-1.088-0.89-1.608-1.494c-0.52-0.604-0.876-1.21-1.068-1.818
		c-0.184,0.648-0.514,1.282-0.99,1.902c-0.476,0.62-1.042,1.182-1.698,1.686l-0.528-0.6c0.768-0.472,1.43-1.144,1.986-2.016
		c0.556-0.872,0.834-1.744,0.834-2.616v-1.98h0.792v1.968c0,0.888,0.276,1.73,0.828,2.526C21.324,50.143,21.979,50.753,22.74,51.177
		z M26.34,48.813h-1.752v5.544H23.82V43.869h0.768v4.284h1.752V48.813z"/>
	<path d="M27.444,48.369c0-1.128,0.224-2.022,0.672-2.682c0.448-0.66,1.076-0.99,1.884-0.99c0.816,0,1.448,0.33,1.896,0.99
		s0.672,1.558,0.672,2.694c0,1.128-0.224,2.024-0.672,2.688c-0.448,0.665-1.08,0.996-1.896,0.996c-0.808,0-1.436-0.332-1.884-0.996
		C27.667,50.405,27.444,49.505,27.444,48.369z M31.32,50.535c0.336-0.556,0.504-1.274,0.504-2.154c0-0.88-0.168-1.6-0.504-2.16
		c-0.336-0.56-0.776-0.84-1.32-0.84s-0.98,0.278-1.308,0.834c-0.328,0.556-0.492,1.278-0.492,2.166c0,0.88,0.164,1.598,0.492,2.154
		s0.764,0.834,1.308,0.834S30.983,51.091,31.32,50.535z M35.483,54.357h-0.768V43.869h0.768V54.357z"/>
	<path d="M45.264,47.769h-5.904v1.68h6.252v0.648h-3.18v2.256h4.368v0.66h-9.468v-0.66h4.332v-2.256h-3.072v-5.28h6.912v0.66h-6.144
		v1.668h5.904V47.769z"/>
	<path d="M53.063,45.009c-0.008,1.264-0.212,2.372-0.612,3.324c-0.4,0.952-0.926,1.736-1.578,2.352
		c-0.652,0.616-1.482,1.188-2.49,1.716l-0.504-0.612c1.896-0.864,3.172-2.068,3.828-3.612l-3.636,0.396l-0.192-0.72l4.068-0.312
		c0.192-0.648,0.292-1.272,0.3-1.872h-3.816v-0.66H53.063z M55.728,43.869v4.392h1.764v0.648h-1.764v5.448h-0.768V43.869H55.728z"/>
	<path d="M59.147,45.303c0.528-0.468,1.168-0.702,1.92-0.702s1.39,0.232,1.914,0.696c0.524,0.464,0.786,1.068,0.786,1.812
		c0,0.752-0.262,1.362-0.786,1.83c-0.524,0.468-1.162,0.702-1.914,0.702s-1.392-0.232-1.92-0.696
		c-0.528-0.464-0.792-1.068-0.792-1.812C58.355,46.381,58.619,45.771,59.147,45.303z M61.067,45.285c-0.552,0-1.01,0.17-1.374,0.51
		c-0.364,0.34-0.546,0.778-0.546,1.314c0,0.544,0.184,0.99,0.552,1.338c0.368,0.348,0.824,0.522,1.368,0.522
		c0.576,0,1.04-0.168,1.392-0.504c0.352-0.336,0.528-0.78,0.528-1.332c0-0.552-0.176-0.998-0.528-1.338
		C62.107,45.455,61.643,45.285,61.067,45.285z M66.911,53.985h-7.08v-3.192h0.768v2.544h6.312V53.985z M66.635,51.489h-0.768v-7.62
		h0.768V51.489z"/>
	<path d="M77.939,52.893h-9.468v-0.648h9.468V52.893z M76.931,47.409c0,0.792-0.342,1.424-1.026,1.896s-1.59,0.708-2.718,0.708
		s-2.03-0.236-2.706-0.708c-0.676-0.472-1.014-1.104-1.014-1.896c0-0.784,0.34-1.414,1.02-1.89c0.68-0.476,1.58-0.714,2.7-0.714
		c1.128,0,2.034,0.238,2.718,0.714C76.589,45.995,76.931,46.625,76.931,47.409z M76.175,47.409c0-0.576-0.272-1.04-0.816-1.392
		c-0.544-0.352-1.268-0.528-2.172-0.528c-0.896,0-1.614,0.176-2.154,0.528s-0.81,0.816-0.81,1.392c0,0.568,0.272,1.028,0.816,1.38
		s1.26,0.528,2.148,0.528c0.896,0,1.618-0.176,2.166-0.528S76.175,47.977,76.175,47.409z"/>
	<path d="M88.319,53.013h-9.468v-0.66h4.332v-1.944h-3.072v-3.24h6.18v-1.776h-6.18v-0.648h6.948v3.072h-6.18v1.944h6.456v0.648
		h-3.384v1.944h4.368V53.013z"/>
	<path d="M52.812,68.601h-0.768v-3.564h-4.332v-0.648h9.468v0.648h-4.368V68.601z M56.003,62.949h-6.972v-3.984h6.816v0.648h-6.06
		v2.688h6.216V62.949z"/>
	<path d="M64.415,63.273h-2.52v2.52c1.432-0.088,2.472-0.172,3.12-0.252l0.06,0.636c-0.672,0.096-1.876,0.2-3.612,0.312
		c-1.44,0.088-2.496,0.136-3.168,0.144l-0.132-0.708c0.912,0,1.9-0.028,2.964-0.084v-2.568h-2.22v-4.068h0.768v3.408h4.74V63.273z
		 M66.623,68.757h-0.768V58.269h0.768V68.757z"/>
	<path d="M74.411,58.869c0.728,0,1.346,0.224,1.854,0.672c0.508,0.448,0.762,1.036,0.762,1.764s-0.254,1.318-0.762,1.77
		c-0.508,0.452-1.126,0.678-1.854,0.678c-0.736,0-1.356-0.224-1.86-0.672s-0.756-1.036-0.756-1.764c0-0.728,0.252-1.318,0.756-1.77
		C73.055,59.095,73.675,58.869,74.411,58.869z M74.411,59.529c-0.536,0-0.977,0.167-1.32,0.498
		c-0.344,0.332-0.516,0.758-0.516,1.278s0.174,0.948,0.522,1.284c0.348,0.336,0.786,0.504,1.314,0.504
		c0.552,0,0.996-0.164,1.332-0.492c0.336-0.328,0.504-0.756,0.504-1.284c0-0.528-0.168-0.958-0.504-1.29
		C75.407,59.695,74.963,59.529,74.411,59.529z M80.183,68.757h-0.78v-3.096h-6.18v-0.648h6.96V68.757z M79.403,61.629h-1.92v-0.648
		h1.92v-2.712h0.768v6.192h-0.768V61.629z"/>
	<path d="M87.299,65.709l-0.516,0.564c-0.416-0.304-0.838-0.738-1.266-1.302c-0.428-0.564-0.718-1.118-0.87-1.662
		c-0.088,0.584-0.34,1.16-0.756,1.728s-0.912,1.068-1.488,1.5l-0.528-0.564c0.64-0.4,1.2-0.998,1.68-1.794
		c0.48-0.796,0.72-1.658,0.72-2.586v-1.38h-2.088v-0.66h4.836v0.66h-1.992v1.344c0,0.944,0.222,1.768,0.666,2.472
		C86.141,64.733,86.675,65.293,87.299,65.709z M88.763,68.205h-0.768v-5.436h-1.716v-0.648h1.716v-3.588h0.768V68.205z
		 M90.839,68.757h-0.768V58.269h0.768V68.757z"/>
</g>
<g>
	<path d="M385.816,133.536c-0.889,0-1.589-0.116-2.101-0.348v-8.376h0.744v3.096h0.061c0.575-0.352,1.203-0.528,1.884-0.528
		c0.68,0,1.235,0.226,1.668,0.678c0.432,0.452,0.647,1.202,0.647,2.25v0.144c0,0.992-0.252,1.754-0.756,2.286
		S386.744,133.536,385.816,133.536z M385.864,132.888c0.624,0,1.124-0.182,1.5-0.546s0.563-0.954,0.563-1.77v-0.216
		c0-0.864-0.149-1.468-0.449-1.812c-0.301-0.344-0.767-0.516-1.398-0.516c-0.504,0-1.044,0.148-1.62,0.444v4.188
		C384.868,132.813,385.336,132.888,385.864,132.888z"/>
	<path d="M390.124,133.404v-5.928h0.72v0.684h0.048c0.192-0.208,0.442-0.386,0.75-0.534c0.308-0.148,0.626-0.222,0.954-0.222
		c0.168,0,0.288,0.012,0.36,0.036v0.696c-0.145-0.024-0.284-0.036-0.42-0.036c-0.624,0-1.177,0.2-1.656,0.6v4.704H390.124z"/>
	<path d="M395.596,133.5c-0.544,0-0.984-0.142-1.32-0.426c-0.336-0.284-0.504-0.686-0.504-1.206c0-1,0.592-1.568,1.776-1.704
		l1.68-0.192v-0.696c0-0.472-0.112-0.798-0.336-0.978c-0.224-0.18-0.608-0.27-1.151-0.27c-0.4,0-0.889,0.068-1.465,0.204v-0.54
		c0.528-0.208,1.108-0.312,1.74-0.312c1.312,0,1.968,0.572,1.968,1.716v4.308h-0.611l-0.072-0.528h-0.048
		C396.868,133.293,396.315,133.5,395.596,133.5z M395.788,132.901c0.615,0,1.096-0.156,1.439-0.468v-1.896l-1.476,0.168
		c-0.416,0.04-0.72,0.15-0.912,0.33s-0.288,0.45-0.288,0.81c0,0.336,0.11,0.596,0.33,0.78
		C395.102,132.808,395.403,132.901,395.788,132.901z"/>
	<path d="M399.724,126.253v-0.828h0.78v0.828H399.724z M399.735,133.404v-5.916h0.756v5.916H399.735z"/>
	<path d="M402.268,133.404v-5.916h0.721v0.528h0.048c0.647-0.424,1.355-0.636,2.124-0.636c0.576,0,1.004,0.126,1.283,0.378
		c0.28,0.252,0.421,0.654,0.421,1.206v4.44h-0.757v-4.272c0-0.4-0.094-0.684-0.281-0.852c-0.188-0.168-0.519-0.252-0.99-0.252
		c-0.616,0-1.22,0.168-1.812,0.504v4.872H402.268z"/>
	<path d="M412.119,133.404v-5.28h-0.911v-0.636h0.911V126.6c0-0.624,0.162-1.088,0.486-1.392c0.324-0.304,0.771-0.456,1.338-0.456
		c0.408,0,0.74,0.06,0.996,0.18v0.552c-0.32-0.08-0.607-0.12-0.864-0.12c-0.808,0-1.212,0.428-1.212,1.284v0.84h1.429v0.636h-1.429
		v5.28H412.119z"/>
	<path d="M417.795,133.5c-0.824,0-1.472-0.256-1.943-0.768c-0.473-0.512-0.708-1.24-0.708-2.184v-0.168
		c0-0.944,0.243-1.68,0.731-2.208c0.488-0.528,1.132-0.792,1.932-0.792c0.824,0,1.475,0.258,1.95,0.774
		c0.477,0.516,0.714,1.246,0.714,2.19v0.156c0,0.936-0.245,1.67-0.737,2.202C419.241,133.235,418.595,133.5,417.795,133.5z
		 M416.439,132.324c0.344,0.368,0.804,0.552,1.38,0.552s1.032-0.198,1.368-0.594s0.504-0.966,0.504-1.71v-0.252
		c0-0.816-0.17-1.408-0.511-1.776c-0.34-0.368-0.802-0.552-1.386-0.552c-0.576,0-1.032,0.2-1.368,0.6s-0.504,0.968-0.504,1.704
		v0.276C415.923,131.372,416.095,131.957,416.439,132.324z"/>
	<path d="M423.867,135.204c-0.888,0-1.548-0.124-1.98-0.372c-0.432-0.248-0.647-0.592-0.647-1.032c0-0.56,0.384-0.976,1.152-1.248
		v-0.048c-0.169-0.048-0.311-0.136-0.427-0.264s-0.174-0.284-0.174-0.468c0-0.32,0.212-0.648,0.636-0.984
		c-0.496-0.336-0.743-0.824-0.743-1.464v-0.072c0-0.584,0.205-1.046,0.617-1.386c0.412-0.34,0.942-0.51,1.591-0.51
		c0.264,0,0.531,0.032,0.804,0.096h1.992v0.576h-1.152c0.344,0.296,0.516,0.696,0.516,1.2v0.06c0,0.608-0.202,1.074-0.605,1.398
		c-0.404,0.324-0.926,0.486-1.566,0.486c-0.392,0-0.744-0.06-1.056-0.18c-0.208,0.192-0.312,0.368-0.312,0.528
		c0,0.328,0.208,0.492,0.624,0.492h1.681c1.231,0,1.848,0.468,1.848,1.404c0,0.528-0.232,0.958-0.696,1.29
		S424.803,135.204,423.867,135.204z M423.843,134.592c1.353,0,2.028-0.356,2.028-1.068c0-0.32-0.09-0.536-0.27-0.648
		c-0.181-0.112-0.482-0.168-0.906-0.168h-1.74c-0.608,0.2-0.912,0.528-0.912,0.984c0,0.304,0.14,0.53,0.42,0.678
		S423.203,134.592,423.843,134.592z M423.879,130.596c0.448,0,0.796-0.108,1.044-0.324c0.248-0.216,0.372-0.532,0.372-0.948v-0.108
		c0-0.424-0.126-0.742-0.378-0.954s-0.598-0.318-1.038-0.318c-0.439,0-0.788,0.11-1.044,0.33c-0.256,0.22-0.384,0.526-0.384,0.918
		v0.108c0,0.424,0.128,0.746,0.384,0.966C423.091,130.486,423.439,130.596,423.879,130.596z"/>
	<path d="M383.452,140.124v-0.648h5.484v0.648h-2.353v0.588c0,0.665,0.258,1.286,0.774,1.866c0.516,0.58,1.109,0.982,1.781,1.206
		l-0.42,0.636c-0.536-0.216-1.04-0.55-1.512-1.002c-0.472-0.452-0.816-0.918-1.032-1.398c-0.128,0.48-0.454,0.978-0.978,1.494
		c-0.524,0.516-1.082,0.91-1.674,1.182l-0.433-0.588c0.704-0.28,1.334-0.746,1.891-1.398c0.556-0.652,0.834-1.318,0.834-1.998
		v-0.588H383.452z M392.08,148.572l-0.408,0.588c-0.752-0.128-1.481-0.422-2.189-0.882s-1.158-0.926-1.351-1.398
		c-0.216,0.497-0.656,0.966-1.319,1.41c-0.664,0.444-1.404,0.73-2.221,0.858l-0.42-0.576c0.904-0.112,1.694-0.418,2.37-0.918
		s1.062-1.022,1.158-1.566h-2.988v-0.648h6.769v0.648h-2.916c0.104,0.521,0.506,1.04,1.206,1.56
		C390.47,148.169,391.24,148.476,392.08,148.572z M392.944,142.224h-1.632v2.676h-0.769v-6.24h0.769v2.916h1.632V142.224z"/>
	<path d="M403.144,144.768h-9.468v-0.66h9.468V144.768z M401.032,139.53c0.615,0.332,0.924,0.826,0.924,1.482
		s-0.309,1.15-0.924,1.482c-0.616,0.332-1.492,0.498-2.628,0.498c-1.128,0-2-0.166-2.616-0.498s-0.924-0.826-0.924-1.482
		s0.31-1.15,0.93-1.482s1.494-0.498,2.622-0.498S400.416,139.198,401.032,139.53z M401.992,148.8h-7.057v-3.012h0.769v2.364h6.288
		V148.8z M398.416,139.68c-0.856,0-1.53,0.112-2.022,0.336c-0.491,0.224-0.737,0.556-0.737,0.996c0,0.432,0.244,0.762,0.731,0.99
		c0.488,0.228,1.16,0.342,2.017,0.342c0.863,0,1.546-0.114,2.046-0.342s0.75-0.558,0.75-0.99c0-0.44-0.248-0.772-0.744-0.996
		S399.28,139.68,398.416,139.68z"/>
	<path d="M414.136,146.148c-1.76,0.216-4.013,0.344-6.756,0.384l-0.132-0.696c0.688,0,1.22-0.004,1.596-0.012l-0.396-4.452
		l0.792-0.096l0.312,4.524c0.439-0.008,1.023-0.028,1.752-0.06l0.324-4.464l0.792,0.096l-0.396,4.332
		c0.928-0.064,1.608-0.124,2.04-0.18L414.136,146.148z M413.403,140.484h-5.88v-0.648h5.88V140.484z M415.72,149.148h-0.769V138.66
		h0.769V149.148z"/>
	<path d="M427.06,147.804h-9.468v-0.66h4.332V145.2h-3.072v-3.24h6.18v-1.776h-6.18v-0.648h6.948v3.072h-6.181v1.944h6.456v0.648
		h-3.384v1.944h4.368V147.804z"/>
	<path d="M428.379,139.416h4.801c-0.112,1.384-0.597,2.516-1.452,3.396c-0.856,0.88-1.992,1.54-3.408,1.98l-0.408-0.66
		c1.112-0.24,2.086-0.738,2.922-1.494s1.326-1.61,1.471-2.562h-3.925V139.416z M435.999,148.992h-6.527V145.2h6.527V148.992z
		 M435.231,148.344v-2.484h-4.992v2.484H435.231z M437.619,142.068h-1.632v2.58h-0.768v-5.988h0.768v2.76h1.632V142.068z"/>
	<path d="M389.308,158.124c-1.56,0.28-3.424,0.392-5.592,0.336v-4.524h4.632v0.648h-3.863v3.228c0.792,0.024,1.628,0.004,2.508-0.06
		s1.612-0.156,2.196-0.276L389.308,158.124z M390.544,160.11c0.592,0.356,0.888,0.83,0.888,1.422c0,0.592-0.296,1.066-0.888,1.422
		s-1.444,0.534-2.556,0.534c-1.112,0-1.96-0.176-2.544-0.528s-0.876-0.828-0.876-1.428c0-0.608,0.292-1.086,0.876-1.434
		c0.584-0.348,1.432-0.522,2.544-0.522C389.1,159.576,389.952,159.754,390.544,160.11z M387.988,160.224
		c-0.816,0-1.458,0.12-1.926,0.36c-0.469,0.24-0.702,0.556-0.702,0.948c0,0.4,0.231,0.716,0.695,0.948s1.108,0.348,1.933,0.348
		c0.823,0,1.472-0.116,1.943-0.348c0.473-0.232,0.708-0.548,0.708-0.948c0-0.4-0.235-0.718-0.708-0.954
		C389.46,160.342,388.812,160.224,387.988,160.224z M392.944,156.528h-1.632v2.856h-0.769v-6.324h0.769v2.808h1.632V156.528z"/>
	<path d="M403.144,162.12h-9.468v-0.648h2.641v-2.628h0.768v2.628h2.616v-2.628h0.768v2.628h2.676V162.12z M402.004,158.184H394.9
		v-4.224h0.768v3.564h6.336V158.184z"/>
</g>
<g>
	<path d="M415.672,13.403v-0.648h5.508v0.648h-2.376v0.636c0,0.656,0.267,1.274,0.798,1.854c0.532,0.58,1.139,0.982,1.818,1.206
		l-0.432,0.624c-0.536-0.216-1.05-0.548-1.542-0.996c-0.492-0.448-0.843-0.908-1.051-1.38c-0.128,0.48-0.455,0.98-0.983,1.5
		c-0.528,0.521-1.088,0.912-1.68,1.176l-0.433-0.588c0.704-0.28,1.336-0.748,1.896-1.404c0.56-0.656,0.84-1.32,0.84-1.992v-0.636
		H415.672z M423.928,20.471c0,0.608-0.306,1.086-0.918,1.434c-0.611,0.348-1.474,0.522-2.586,0.522s-1.972-0.174-2.58-0.522
		c-0.607-0.348-0.912-0.826-0.912-1.434c0-0.616,0.305-1.1,0.912-1.452c0.608-0.352,1.468-0.528,2.58-0.528s1.975,0.176,2.586,0.528
		C423.622,19.371,423.928,19.855,423.928,20.471z M420.424,19.163c-0.856,0-1.521,0.114-1.998,0.342
		c-0.476,0.228-0.714,0.55-0.714,0.966c0,0.408,0.238,0.726,0.714,0.954c0.477,0.228,1.142,0.342,1.998,0.342
		s1.524-0.114,2.004-0.342c0.48-0.228,0.721-0.546,0.721-0.954c0-0.416-0.238-0.738-0.715-0.966
		C421.958,19.277,421.288,19.163,420.424,19.163z M423.076,15.287h-2.101v-0.648h2.101v-2.7h0.768v6.528h-0.768V15.287z"/>
	<path d="M431.536,16.871l-0.456,0.612c-0.568-0.288-1.08-0.654-1.536-1.098c-0.456-0.444-0.78-0.93-0.972-1.458
		c-0.32,1.104-1.192,2.056-2.616,2.856l-0.468-0.588c0.792-0.4,1.434-0.918,1.926-1.554c0.492-0.636,0.738-1.358,0.738-2.166v-1.02
		h0.768v0.996c0,0.784,0.268,1.486,0.804,2.106C430.26,16.177,430.864,16.615,431.536,16.871z M433.852,20.447
		c0,0.608-0.312,1.088-0.936,1.44c-0.624,0.352-1.48,0.528-2.568,0.528s-1.942-0.174-2.562-0.522
		c-0.62-0.348-0.931-0.83-0.931-1.446c0-0.616,0.311-1.1,0.931-1.452c0.619-0.352,1.474-0.528,2.562-0.528s1.944,0.176,2.568,0.528
		S433.852,19.831,433.852,20.447z M430.348,19.115c-0.832,0-1.49,0.116-1.974,0.348c-0.484,0.232-0.727,0.56-0.727,0.984
		c0,0.416,0.242,0.74,0.727,0.972c0.483,0.232,1.142,0.348,1.974,0.348c0.84,0,1.502-0.116,1.986-0.348
		c0.483-0.232,0.726-0.556,0.726-0.972c0-0.424-0.242-0.752-0.726-0.984C431.85,19.231,431.188,19.115,430.348,19.115z
		 M435.328,15.551h-1.632v2.82h-0.769v-6.432h0.769v2.952h1.632V15.551z"/>
	<path d="M417.52,36.707c-1.319-1.392-1.979-3.02-1.979-4.884v-0.216c0-1.864,0.66-3.492,1.979-4.884h0.673
		c-0.553,0.64-1.002,1.374-1.351,2.202c-0.348,0.828-0.521,1.698-0.521,2.61v0.3c0,0.896,0.176,1.772,0.527,2.628
		c0.353,0.856,0.8,1.604,1.345,2.244H417.52z"/>
	<path d="M425.116,30.899c-0.664,0.136-1.544,0.248-2.64,0.336c-1.097,0.088-2.148,0.132-3.156,0.132v-4.356h0.768v3.684
		c2.128-0.048,3.764-0.204,4.908-0.468L425.116,30.899z M427.685,36.251l-0.408,0.588c-0.752-0.128-1.482-0.422-2.19-0.882
		s-1.158-0.926-1.35-1.398c-0.216,0.497-0.656,0.966-1.32,1.41s-1.404,0.73-2.22,0.858l-0.42-0.576
		c0.903-0.112,1.693-0.418,2.37-0.918c0.676-0.5,1.062-1.022,1.157-1.566h-2.987v-0.648h6.768v0.648h-2.916
		c0.104,0.521,0.506,1.04,1.206,1.56C426.074,35.847,426.844,36.155,427.685,36.251z M428.548,29.531h-1.632v2.772h-0.768v-5.964
		h0.768v2.544h1.632V29.531z"/>
	<path d="M429.076,36.707c0.552-0.64,1-1.374,1.344-2.202s0.516-1.694,0.516-2.598v-0.312c0-0.896-0.174-1.774-0.521-2.634
		s-0.794-1.606-1.338-2.238h0.672c1.32,1.408,1.979,3.036,1.979,4.884v0.216c0,1.848-0.659,3.476-1.979,4.884H429.076z"/>
	<path d="M423.256,46.031c0,0.536-0.25,0.952-0.75,1.248s-1.198,0.464-2.094,0.504v1.512h4.355v0.648H415.3v-0.648h4.344v-1.512
		c-0.88-0.04-1.567-0.21-2.063-0.51c-0.496-0.3-0.744-0.714-0.744-1.242c0-0.576,0.286-1.016,0.858-1.32
		c0.571-0.304,1.354-0.456,2.346-0.456c1.008,0,1.796,0.152,2.364,0.456C422.972,45.015,423.256,45.455,423.256,46.031z
		 M424.18,43.631h-8.292v-0.66h8.292V43.631z M422.452,46.031c0-0.376-0.232-0.658-0.696-0.846
		c-0.464-0.188-1.036-0.282-1.716-0.282c-0.672,0-1.24,0.094-1.704,0.282c-0.464,0.188-0.696,0.47-0.696,0.846
		c0,0.368,0.232,0.646,0.696,0.834s1.032,0.282,1.704,0.282c0.68,0,1.252-0.094,1.716-0.282S422.452,46.399,422.452,46.031z
		 M421.924,41.987h-3.792v-0.684h3.792V41.987z"/>
	<path d="M435.147,49.763h-9.468v-0.648h9.468V49.763z M434.152,47.183h-7.236v-3.18h6.204v-1.764h-6.216v-0.648h6.983v3.06h-6.204
		v1.872h6.469V47.183z"/>
	<path d="M445.527,47.051h-9.468v-0.66h4.332v-1.476h-3.06v-3.66h6.936v3.66h-3.107v1.476h4.367V47.051z M444.376,50.879h-7.057
		v-2.916h0.769v2.268h6.288V50.879z M443.5,44.255v-2.34h-5.4v2.34H443.5z"/>
	<path d="M446.08,51.119l2.855-9.984h0.696l-2.868,9.984H446.08z"/>
	<path d="M456.592,45.983l-0.432,0.624c-0.601-0.272-1.137-0.636-1.608-1.092c-0.473-0.456-0.812-0.96-1.021-1.512
		c-0.16,0.552-0.485,1.1-0.978,1.644c-0.492,0.544-1.046,0.984-1.662,1.32l-0.479-0.6c0.743-0.344,1.382-0.86,1.913-1.548
		c0.532-0.688,0.799-1.436,0.799-2.244v-1.236h0.768v1.224c0,0.824,0.268,1.532,0.804,2.124
		C455.231,45.279,455.863,45.711,456.592,45.983z M459.147,50.891h-6.924v-3.18h0.768v2.532h6.156V50.891z M458.92,48.359h-0.769
		v-7.62h0.769V48.359z"/>
	<path d="M466.107,41.639c-0.08,1.256-0.538,2.354-1.374,3.294c-0.836,0.94-1.966,1.666-3.39,2.178l-0.468-0.648
		c1.136-0.328,2.111-0.882,2.928-1.662c0.815-0.78,1.296-1.614,1.439-2.502h-3.863v-0.66H466.107z M469.384,49.283
		c0,0.6-0.312,1.072-0.937,1.416s-1.5,0.516-2.628,0.516c-1.136,0-2.014-0.172-2.634-0.516s-0.93-0.816-0.93-1.416
		c0-0.608,0.31-1.084,0.93-1.428c0.62-0.344,1.498-0.516,2.634-0.516c1.128,0,2.004,0.172,2.628,0.516
		C469.071,48.199,469.384,48.675,469.384,49.283z M467.859,48.335c-0.488-0.224-1.168-0.336-2.04-0.336s-1.554,0.112-2.046,0.336
		c-0.492,0.224-0.738,0.54-0.738,0.948s0.246,0.724,0.738,0.948c0.492,0.224,1.174,0.336,2.046,0.336s1.552-0.112,2.04-0.336
		c0.488-0.224,0.732-0.54,0.732-0.948S468.348,48.559,467.859,48.335z M466.107,45.647v-0.648h2.424v-1.512h-2.315v-0.66h2.315
		v-2.088h0.769v6.636h-0.769v-1.728H466.107z"/>
	<path d="M471.508,42.395v-0.648h5.496v0.648h-2.353v0.792c0,0.656,0.258,1.276,0.774,1.86c0.516,0.584,1.109,0.988,1.781,1.212
		l-0.42,0.624c-0.536-0.216-1.04-0.55-1.512-1.002s-0.816-0.918-1.032-1.398c-0.136,0.48-0.468,0.98-0.996,1.5
		c-0.527,0.52-1.088,0.912-1.68,1.176l-0.432-0.576c0.712-0.28,1.348-0.748,1.907-1.404c0.561-0.656,0.841-1.324,0.841-2.004v-0.78
		H471.508z M479.907,50.855h-6.936v-3.204h0.768v2.556h6.168V50.855z M478.911,44.375h-2.027v-0.66h2.027v-2.976h0.769v7.668h-0.769
		V44.375z"/>
	<path d="M487.455,45.323c-1.567,0.272-3.416,0.38-5.544,0.324v-4.248h4.704v0.648h-3.936v2.952c1.808,0.064,3.367-0.043,4.68-0.324
		L487.455,45.323z M489.939,51.155h-6.924v-2.592h5.748v-1.188h-5.832v-0.66h6.6v2.448h-5.748v1.332h6.156V51.155z M491.163,43.775
		h-1.632v2.364h-0.768v-5.4h0.768v2.388h1.632V43.775z"/>
	<path d="M500.535,51.059h-7.416v-2.376h6.24v-0.96h-6.312v-0.648h3.181v-1.116h-4.332v-0.636h9.468v0.636h-4.368v1.116h3.132v2.232
		h-6.239v1.104h6.647V51.059z M500.104,44.351h-6.937v-3.156h6.937V44.351z M499.335,43.691v-1.848h-5.399v1.848H499.335z"/>
	<path d="M502.719,42.047v-0.648h5.664v0.648h-2.472v0.324c0,0.648,0.268,1.252,0.804,1.812c0.536,0.56,1.148,0.956,1.836,1.188
		l-0.432,0.612c-0.544-0.224-1.064-0.548-1.56-0.972c-0.497-0.424-0.845-0.868-1.045-1.332c-0.144,0.456-0.483,0.934-1.02,1.434
		s-1.088,0.886-1.656,1.158l-0.443-0.588c0.712-0.28,1.348-0.736,1.907-1.368c0.561-0.632,0.841-1.284,0.841-1.956v-0.312H502.719z
		 M511.228,51.131h-7.093v-2.52h5.916v-1.164h-5.976v-0.648h6.744v2.424h-5.916v1.26h6.324V51.131z M510.819,46.187h-0.769v-5.448
		h0.769V46.187z"/>
	<path d="M424.768,64.283H415.3v-0.66h4.332v-1.944h-3.072v-3.24h6.181v-1.776h-6.181v-0.648h6.948v3.072h-6.18v1.944h6.456v0.648
		H420.4v1.944h4.367V64.283z"/>
	<path d="M434.008,60.875h-4.632v-4.764h4.632V60.875z M433.239,60.215v-3.444h-3.096v3.444H433.239z M437.607,65.255h-6.936v-3.204
		h0.768v2.556h6.168V65.255z M434.451,57.647v-0.66h2.16v-1.848h0.769v7.62h-0.769v-2.784h-2.16v-0.66h2.16v-1.668H434.451z"/>
	<path d="M442,55.739c0.728,0,1.346,0.224,1.854,0.672c0.508,0.448,0.762,1.036,0.762,1.764s-0.254,1.318-0.762,1.77
		c-0.508,0.452-1.126,0.678-1.854,0.678c-0.736,0-1.356-0.224-1.86-0.672s-0.756-1.036-0.756-1.764c0-0.728,0.252-1.318,0.756-1.77
		C440.644,55.965,441.264,55.739,442,55.739z M442,56.399c-0.536,0-0.977,0.167-1.32,0.498c-0.344,0.332-0.517,0.758-0.517,1.278
		s0.175,0.948,0.522,1.284s0.786,0.504,1.314,0.504c0.552,0,0.995-0.164,1.331-0.492c0.337-0.328,0.505-0.756,0.505-1.284
		c0-0.528-0.168-0.958-0.505-1.29C442.995,56.566,442.552,56.399,442,56.399z M440.812,61.883h6.948v3.756h-0.769v-3.096h-6.18
		V61.883z M444.928,57.227v-0.636h2.063v-1.452h0.769v6.204h-0.769v-1.656h-2.063v-0.636h2.063v-1.824H444.928z"/>
	<path d="M452.38,55.739c0.728,0,1.346,0.224,1.854,0.672c0.508,0.448,0.762,1.036,0.762,1.764s-0.254,1.318-0.762,1.77
		c-0.508,0.452-1.126,0.678-1.854,0.678c-0.736,0-1.356-0.224-1.86-0.672s-0.756-1.036-0.756-1.764c0-0.728,0.252-1.318,0.756-1.77
		C451.023,55.965,451.644,55.739,452.38,55.739z M452.38,56.399c-0.536,0-0.977,0.167-1.32,0.498
		c-0.344,0.332-0.517,0.758-0.517,1.278s0.175,0.948,0.522,1.284s0.786,0.504,1.314,0.504c0.552,0,0.995-0.164,1.331-0.492
		c0.337-0.328,0.505-0.756,0.505-1.284c0-0.528-0.168-0.958-0.505-1.29C453.375,56.566,452.932,56.399,452.38,56.399z
		 M458.151,65.627h-0.78v-3.096h-6.18v-0.648h6.96V65.627z M457.371,58.499h-1.92v-0.648h1.92v-2.712h0.769v6.192h-0.769V58.499z"/>
	<path d="M465.268,62.579l-0.517,0.564c-0.416-0.304-0.838-0.738-1.266-1.302s-0.718-1.118-0.87-1.662
		c-0.088,0.584-0.34,1.16-0.756,1.728s-0.912,1.068-1.488,1.5l-0.527-0.564c0.64-0.4,1.199-0.998,1.68-1.794
		c0.479-0.796,0.72-1.658,0.72-2.586v-1.38h-2.088v-0.66h4.836v0.66h-1.992v1.344c0,0.944,0.223,1.768,0.666,2.472
		C464.109,61.603,464.644,62.163,465.268,62.579z M466.731,65.075h-0.769v-5.436h-1.716v-0.648h1.716v-3.588h0.769V65.075z
		 M468.808,65.627h-0.769V55.139h0.769V65.627z"/>
</g>
<g>
	<path d="M234.454,144.849h-5.928v-0.648h5.928V144.849z M233.272,145.635c0.452,0.276,0.678,0.67,0.678,1.182
		c0,0.512-0.22,0.906-0.66,1.182s-1.024,0.414-1.752,0.414c-0.696,0-1.27-0.14-1.722-0.42c-0.452-0.28-0.678-0.672-0.678-1.176
		c0-0.512,0.224-0.906,0.672-1.182c0.448-0.276,1.024-0.414,1.728-0.414C232.242,145.221,232.82,145.36,233.272,145.635z
		 M233.17,146.817c0-0.32-0.154-0.562-0.462-0.726c-0.308-0.164-0.698-0.246-1.17-0.246c-0.48,0-0.87,0.08-1.17,0.24
		c-0.3,0.16-0.45,0.404-0.45,0.732c0,0.312,0.154,0.554,0.462,0.726c0.308,0.172,0.694,0.258,1.158,0.258
		c0.464,0,0.852-0.086,1.164-0.258C233.014,147.371,233.17,147.129,233.17,146.817z M233.014,143.481h-2.988v-0.684h2.988V143.481z
		 M237.466,153.033h-7.02v-2.34h5.904v-0.936h-5.928v-0.624h6.696v2.184h-5.916v1.08h6.264V153.033z M234.526,145.725v-0.636h1.812
		v-2.472h0.768v5.904h-0.768v-1.044h-1.812v-0.612h1.812v-1.14H234.526z"/>
	<path d="M244.954,147.681c-1.56,0.28-3.424,0.392-5.592,0.336v-4.524h4.632v0.648h-3.864v3.228c0.792,0.024,1.628,0.004,2.508-0.06
		s1.612-0.156,2.196-0.276L244.954,147.681z M246.19,149.667c0.592,0.356,0.888,0.83,0.888,1.422c0,0.592-0.296,1.066-0.888,1.422
		c-0.592,0.356-1.444,0.534-2.556,0.534s-1.96-0.176-2.544-0.528s-0.876-0.828-0.876-1.428c0-0.608,0.292-1.086,0.876-1.434
		c0.584-0.348,1.432-0.522,2.544-0.522S245.598,149.311,246.19,149.667z M243.634,149.781c-0.816,0-1.458,0.12-1.926,0.36
		c-0.468,0.24-0.702,0.556-0.702,0.948c0,0.4,0.232,0.716,0.696,0.948s1.108,0.348,1.932,0.348c0.824,0,1.472-0.116,1.944-0.348
		c0.472-0.232,0.708-0.548,0.708-0.948c0-0.4-0.236-0.718-0.708-0.954C245.106,149.9,244.458,149.781,243.634,149.781z
		 M248.59,146.085h-1.632v2.856h-0.768v-6.324h0.768v2.808h1.632V146.085z"/>
	<path d="M261.945,148.449h-9.468v-0.648h9.468V148.449z M261.465,146.337l-0.359,0.648c-0.904-0.168-1.719-0.46-2.442-0.876
		s-1.21-0.86-1.458-1.332c-0.2,0.472-0.656,0.916-1.368,1.332s-1.536,0.704-2.472,0.864l-0.36-0.636
		c0.584-0.063,1.152-0.202,1.704-0.414c0.553-0.212,1.028-0.5,1.429-0.864c0.399-0.364,0.624-0.762,0.672-1.194h-3.42v-0.66h7.619
		v0.66h-3.384c0.048,0.432,0.286,0.832,0.714,1.2c0.429,0.368,0.918,0.658,1.471,0.87
		C260.361,146.147,260.913,146.281,261.465,146.337z M260.806,151.233c0,0.584-0.312,1.034-0.937,1.35s-1.512,0.474-2.664,0.474
		c-1.136,0-2.018-0.16-2.646-0.48c-0.629-0.32-0.942-0.768-0.942-1.344c0-0.568,0.313-1.012,0.942-1.332
		c0.628-0.32,1.51-0.48,2.646-0.48c1.152,0,2.04,0.154,2.664,0.462S260.806,150.641,260.806,151.233z M257.205,150.081
		c-0.872,0-1.556,0.102-2.052,0.306s-0.744,0.486-0.744,0.846c0,0.376,0.248,0.666,0.744,0.87s1.18,0.306,2.052,0.306
		c0.88,0,1.568-0.102,2.064-0.306s0.744-0.494,0.744-0.87c0-0.368-0.248-0.652-0.744-0.852
		C258.773,150.181,258.085,150.081,257.205,150.081z"/>
	<path d="M268.113,143.757c-0.032,1.64-0.473,3.06-1.32,4.26s-1.968,2.176-3.359,2.928l-0.469-0.612
		c1.32-0.656,2.351-1.498,3.09-2.526c0.74-1.028,1.158-2.158,1.255-3.39h-3.996v-0.66H268.113z M270.873,142.617v4.476h1.776v0.66
		h-1.776v5.352h-0.768v-10.488H270.873z"/>
	<path d="M227.65,165.933h-9.468v-0.66h3.816v-2.712h0.768v2.712h4.884V165.933z M226.354,158.157v1.236
		c0,1.856-0.132,3.376-0.396,4.56l-0.744-0.108c0.12-0.512,0.216-1.372,0.288-2.58l-6.216,0.348l-0.144-0.684l6.384-0.288
		c0-0.096,0.002-0.24,0.006-0.432c0.004-0.192,0.006-0.332,0.006-0.42v-0.972h-6.144v-0.66H226.354z"/>
	<path d="M238.03,166.041h-9.468v-0.648h9.468V166.041z M237.034,163.461h-7.236v-3.18h6.204v-1.764h-6.216v-0.648h6.984v3.06
		h-6.204v1.872h6.468V163.461z"/>
	<path d="M245.446,164.517c-1.48,0.264-3.42,0.396-5.82,0.396v-6.876h4.788v0.648h-4.02v2.28h3.696v0.636h-3.696v2.628
		c2.288,0,3.94-0.124,4.956-0.372L245.446,164.517z M247.474,157.017v10.488h-0.768v-10.488H247.474z"/>
	<path d="M258.789,162.465h-9.467v-0.648h4.332v-1.524h0.769v1.524h4.367V162.465z M258.285,160.185l-0.372,0.624
		c-0.896-0.184-1.706-0.5-2.43-0.948c-0.724-0.448-1.202-0.912-1.434-1.392c-0.177,0.488-0.622,0.958-1.338,1.41
		c-0.716,0.452-1.538,0.766-2.466,0.942l-0.372-0.624c0.952-0.104,1.822-0.414,2.61-0.93c0.788-0.516,1.182-1.11,1.182-1.782v-0.336
		h0.792v0.336c0,0.456,0.21,0.886,0.631,1.29c0.42,0.404,0.915,0.724,1.487,0.96C257.147,159.971,257.718,160.121,258.285,160.185z
		 M257.962,167.385h-7.416v-2.364h6.239v-0.936h-6.275v-0.66h7.044v2.22h-6.24v1.092h6.648V167.385z"/>
	<path d="M272.325,162.849h-9.468v-0.648h9.468V162.849z M271.845,160.737l-0.359,0.648c-0.904-0.168-1.719-0.46-2.442-0.876
		s-1.21-0.86-1.458-1.332c-0.2,0.472-0.656,0.916-1.368,1.332s-1.536,0.704-2.472,0.864l-0.36-0.636
		c0.584-0.063,1.152-0.202,1.704-0.414c0.553-0.212,1.028-0.5,1.429-0.864c0.399-0.364,0.624-0.762,0.672-1.194h-3.42v-0.66h7.619
		v0.66h-3.384c0.048,0.432,0.286,0.832,0.714,1.2c0.429,0.368,0.918,0.658,1.471,0.87
		C270.741,160.547,271.293,160.681,271.845,160.737z M271.186,165.633c0,0.584-0.312,1.034-0.937,1.35s-1.512,0.474-2.664,0.474
		c-1.136,0-2.018-0.16-2.646-0.48c-0.629-0.32-0.942-0.768-0.942-1.344c0-0.568,0.313-1.012,0.942-1.332
		c0.628-0.32,1.51-0.48,2.646-0.48c1.152,0,2.04,0.154,2.664,0.462S271.186,165.041,271.186,165.633z M267.585,164.481
		c-0.872,0-1.556,0.102-2.052,0.306s-0.744,0.486-0.744,0.846c0,0.376,0.248,0.666,0.744,0.87s1.18,0.306,2.052,0.306
		c0.88,0,1.568-0.102,2.064-0.306s0.744-0.494,0.744-0.87c0-0.368-0.248-0.652-0.744-0.852
		C269.153,164.581,268.465,164.481,267.585,164.481z"/>
	<path d="M278.493,158.157c-0.032,1.64-0.472,3.06-1.32,4.26c-0.848,1.2-1.968,2.176-3.359,2.928l-0.469-0.612
		c1.32-0.656,2.351-1.498,3.091-2.526c0.739-1.028,1.157-2.158,1.254-3.39h-3.996v-0.66H278.493z M281.253,157.017v4.476h1.776v0.66
		h-1.776v5.352h-0.768v-10.488H281.253z"/>
	<path d="M214.018,176.661l-0.432,0.624c-0.6-0.272-1.136-0.636-1.608-1.092s-0.812-0.96-1.02-1.512
		c-0.16,0.552-0.486,1.1-0.978,1.644c-0.492,0.544-1.046,0.984-1.662,1.32l-0.48-0.6c0.744-0.344,1.382-0.86,1.914-1.548
		c0.532-0.688,0.798-1.436,0.798-2.244v-1.236h0.768v1.224c0,0.824,0.268,1.532,0.804,2.124
		C212.658,175.957,213.29,176.389,214.018,176.661z M216.574,181.569h-6.924v-3.18h0.768v2.532h6.156V181.569z M216.346,179.037
		h-0.768v-7.62h0.768V179.037z"/>
	<path d="M223.534,172.317c-0.08,1.256-0.538,2.354-1.374,3.294c-0.836,0.94-1.966,1.666-3.39,2.178l-0.468-0.648
		c1.136-0.328,2.112-0.882,2.928-1.662c0.816-0.78,1.296-1.614,1.44-2.502h-3.864v-0.66H223.534z M226.81,179.961
		c0,0.6-0.312,1.072-0.936,1.416s-1.5,0.516-2.628,0.516c-1.136,0-2.014-0.172-2.634-0.516c-0.62-0.344-0.93-0.816-0.93-1.416
		c0-0.608,0.31-1.084,0.93-1.428c0.62-0.344,1.498-0.516,2.634-0.516c1.128,0,2.004,0.172,2.628,0.516
		C226.498,178.877,226.81,179.353,226.81,179.961z M225.286,179.013c-0.488-0.224-1.168-0.336-2.04-0.336s-1.554,0.112-2.046,0.336
		c-0.492,0.224-0.738,0.54-0.738,0.948s0.246,0.724,0.738,0.948c0.492,0.224,1.174,0.336,2.046,0.336s1.552-0.112,2.04-0.336
		c0.488-0.224,0.732-0.54,0.732-0.948S225.774,179.237,225.286,179.013z M223.534,176.325v-0.648h2.424v-1.512h-2.316v-0.66h2.316
		v-2.088h0.768v6.636h-0.768v-1.728H223.534z"/>
	<path d="M228.934,173.073v-0.648h5.496v0.648h-2.352v0.792c0,0.656,0.258,1.276,0.774,1.86s1.11,0.988,1.782,1.212l-0.42,0.624
		c-0.536-0.216-1.04-0.55-1.512-1.002c-0.472-0.452-0.816-0.918-1.032-1.398c-0.136,0.48-0.468,0.98-0.996,1.5
		c-0.528,0.52-1.088,0.912-1.68,1.176l-0.432-0.576c0.712-0.28,1.348-0.748,1.908-1.404c0.56-0.656,0.84-1.324,0.84-2.004v-0.78
		H228.934z M237.334,181.533h-6.936v-3.204h0.768v2.556h6.168V181.533z M236.338,175.053h-2.028v-0.66h2.028v-2.976h0.768v7.668
		h-0.768V175.053z"/>
	<path d="M244.882,176.001c-1.568,0.272-3.416,0.38-5.544,0.324v-4.248h4.704v0.648h-3.936v2.952
		c1.808,0.064,3.368-0.043,4.68-0.324L244.882,176.001z M247.366,181.833h-6.924v-2.592h5.748v-1.188h-5.832v-0.66h6.6v2.448h-5.748
		v1.332h6.156V181.833z M248.59,174.453h-1.632v2.364h-0.768v-5.4h0.768v2.388h1.632V174.453z"/>
	<path d="M257.962,181.737h-7.416v-2.376h6.239v-0.96h-6.312v-0.648h3.18v-1.116h-4.332v-0.636h9.467v0.636h-4.367v1.116h3.132
		v2.232h-6.24v1.104h6.648V181.737z M257.529,175.029h-6.936v-3.156h6.936V175.029z M256.762,174.369v-1.848h-5.4v1.848H256.762z"/>
	<path d="M260.146,172.725v-0.648h5.664v0.648h-2.473v0.324c0,0.648,0.269,1.252,0.805,1.812c0.535,0.56,1.147,0.956,1.836,1.188
		l-0.433,0.612c-0.544-0.224-1.063-0.548-1.56-0.972c-0.496-0.424-0.844-0.868-1.044-1.332c-0.145,0.456-0.484,0.934-1.021,1.434
		c-0.535,0.5-1.088,0.886-1.655,1.158l-0.444-0.588c0.712-0.28,1.348-0.736,1.908-1.368c0.56-0.632,0.84-1.284,0.84-1.956v-0.312
		H260.146z M268.653,181.809h-7.092v-2.52h5.916v-1.164h-5.977v-0.648h6.744v2.424h-5.916v1.26h6.324V181.809z M268.245,176.865
		h-0.768v-5.448h0.768V176.865z"/>
	<path d="M282.705,177.249h-9.468v-0.648h9.468V177.249z M282.226,175.137l-0.36,0.648c-0.904-0.168-1.718-0.46-2.442-0.876
		c-0.724-0.416-1.21-0.86-1.458-1.332c-0.199,0.472-0.655,0.916-1.367,1.332c-0.713,0.416-1.536,0.704-2.473,0.864l-0.36-0.636
		c0.585-0.063,1.152-0.202,1.705-0.414c0.552-0.212,1.027-0.5,1.428-0.864c0.399-0.364,0.624-0.762,0.672-1.194h-3.42v-0.66h7.62
		v0.66h-3.385c0.049,0.432,0.286,0.832,0.715,1.2c0.428,0.368,0.918,0.658,1.47,0.87S281.673,175.081,282.226,175.137z
		 M281.565,180.033c0,0.584-0.312,1.034-0.937,1.35s-1.512,0.474-2.664,0.474c-1.136,0-2.018-0.16-2.646-0.48
		s-0.942-0.768-0.942-1.344c0-0.568,0.314-1.012,0.942-1.332c0.628-0.32,1.51-0.48,2.646-0.48c1.152,0,2.04,0.154,2.664,0.462
		S281.565,179.441,281.565,180.033z M277.965,178.881c-0.872,0-1.556,0.102-2.052,0.306s-0.744,0.486-0.744,0.846
		c0,0.376,0.248,0.666,0.744,0.87s1.18,0.306,2.052,0.306c0.88,0,1.568-0.102,2.064-0.306s0.744-0.494,0.744-0.87
		c0-0.368-0.248-0.652-0.744-0.852C279.533,178.981,278.845,178.881,277.965,178.881z"/>
	<path d="M288.873,172.557c-0.032,1.64-0.472,3.06-1.32,4.26c-0.848,1.2-1.968,2.176-3.359,2.928l-0.468-0.612
		c1.319-0.656,2.35-1.498,3.09-2.526c0.739-1.028,1.157-2.158,1.254-3.39h-3.996v-0.66H288.873z M291.633,171.417v4.476h1.776v0.66
		h-1.776v5.352h-0.768v-10.488H291.633z"/>
	<path d="M220.678,193.245l-0.48,0.588c-0.56-0.384-1.092-0.872-1.596-1.464c-0.504-0.592-0.852-1.196-1.044-1.812
		c-0.368,1.28-1.248,2.456-2.64,3.528l-0.516-0.576c0.768-0.464,1.42-1.124,1.956-1.98c0.536-0.856,0.804-1.72,0.804-2.592v-1.356
		h-2.376v-0.66h5.544v0.66h-2.376v1.332c0,0.888,0.266,1.726,0.798,2.514C219.284,192.215,219.926,192.821,220.678,193.245z
		 M224.362,190.798h-1.776v5.508h-0.768v-10.488h0.768v4.32h1.776V190.798z"/>
	<path d="M233.614,196.137h-7.488v-2.268h6.312v-0.924h-6.336v-0.636h1.5v-1.308h-2.652v-0.648h9.468v0.648h-2.712v1.308h1.5v2.184
		h-6.312v1.008h6.72V196.137z M233.254,187.882c0,0.6-0.312,1.048-0.936,1.344c-0.624,0.296-1.5,0.444-2.628,0.444
		c-1.112,0-1.982-0.15-2.61-0.45c-0.628-0.3-0.942-0.746-0.942-1.338c0-0.592,0.314-1.038,0.942-1.338
		c0.628-0.3,1.498-0.45,2.61-0.45c1.128,0,2.004,0.15,2.628,0.45C232.942,186.843,233.254,187.29,233.254,187.882z M231.73,187.006
		c-0.504-0.2-1.184-0.3-2.04-0.3s-1.53,0.1-2.022,0.3c-0.492,0.2-0.738,0.492-0.738,0.876s0.246,0.674,0.738,0.87
		c0.492,0.196,1.166,0.294,2.022,0.294s1.536-0.1,2.04-0.3c0.504-0.2,0.756-0.488,0.756-0.864
		C232.486,187.498,232.234,187.206,231.73,187.006z M228.37,191.002v1.308h2.568v-1.308H228.37z"/>
	<path d="M241.546,191.062l-0.432,0.624c-0.6-0.272-1.136-0.636-1.608-1.092s-0.812-0.96-1.02-1.512
		c-0.16,0.552-0.486,1.1-0.978,1.644c-0.492,0.544-1.046,0.984-1.662,1.32l-0.48-0.6c0.744-0.344,1.382-0.86,1.914-1.548
		c0.532-0.688,0.798-1.436,0.798-2.244v-1.236h0.768v1.224c0,0.824,0.268,1.532,0.804,2.124
		C240.186,190.358,240.818,190.79,241.546,191.062z M244.102,195.969h-6.924v-3.18h0.768v2.532h6.156V195.969z M243.874,193.438
		h-0.768v-7.62h0.768V193.438z"/>
	<path d="M251.062,186.717c-0.08,1.256-0.538,2.354-1.374,3.294c-0.836,0.94-1.966,1.666-3.39,2.178l-0.468-0.648
		c1.136-0.328,2.112-0.882,2.928-1.662c0.816-0.78,1.296-1.614,1.44-2.502h-3.864v-0.66H251.062z M254.338,194.361
		c0,0.6-0.312,1.072-0.937,1.416s-1.5,0.516-2.627,0.516c-1.136,0-2.014-0.172-2.634-0.516c-0.62-0.344-0.93-0.816-0.93-1.416
		c0-0.608,0.31-1.084,0.93-1.428c0.62-0.344,1.498-0.516,2.634-0.516c1.128,0,2.003,0.172,2.627,0.516
		C254.025,193.278,254.338,193.754,254.338,194.361z M252.813,193.414c-0.488-0.224-1.167-0.336-2.04-0.336
		s-1.554,0.112-2.046,0.336c-0.492,0.224-0.738,0.54-0.738,0.948s0.246,0.724,0.738,0.948c0.492,0.224,1.174,0.336,2.046,0.336
		s1.551-0.112,2.04-0.336c0.488-0.224,0.732-0.54,0.732-0.948S253.302,193.637,252.813,193.414z M251.062,190.725v-0.648h2.423
		v-1.512h-2.315v-0.66h2.315v-2.088h0.769v6.636h-0.769v-1.728H251.062z"/>
	<path d="M262.281,190.281l-0.443,0.612c-0.561-0.224-1.068-0.544-1.524-0.96c-0.456-0.416-0.808-0.896-1.056-1.44
		c-0.345,1.08-1.217,1.984-2.616,2.712l-0.48-0.588c0.744-0.304,1.378-0.754,1.902-1.35c0.524-0.596,0.786-1.29,0.786-2.082v-0.912
		h0.768v0.888c0,0.417,0.084,0.804,0.252,1.164c0.168,0.36,0.393,0.666,0.673,0.918c0.279,0.252,0.563,0.462,0.852,0.63
		S261.978,190.177,262.281,190.281z M265.042,196.234h-7.093v-2.544h5.916v-1.176h-5.976v-0.66h6.744v2.448h-5.916v1.272h6.324
		V196.234z M264.634,191.265h-0.769v-5.448h0.769V191.265z"/>
	<path d="M275.938,194.962h-9.468v-0.66h4.332v-2.58h0.768v2.58h4.368V194.962z M275.038,187.522h-3.433v0.264
		c0,0.496,0.22,1.006,0.66,1.53c0.439,0.524,0.962,0.964,1.565,1.32c0.604,0.356,1.175,0.586,1.711,0.69l-0.408,0.636
		c-0.864-0.256-1.676-0.68-2.437-1.272c-0.76-0.592-1.26-1.168-1.5-1.728c-0.2,0.568-0.682,1.148-1.446,1.74
		c-0.764,0.592-1.594,1.008-2.489,1.248l-0.396-0.636c0.544-0.096,1.116-0.318,1.716-0.666c0.601-0.348,1.12-0.786,1.561-1.314
		c0.439-0.528,0.66-1.044,0.66-1.548v-0.264h-3.433v-0.648h7.669V187.522z"/>
	<path d="M286.317,191.65h-9.468v-0.648h9.468V191.65z M285.838,189.537l-0.36,0.648c-0.904-0.168-1.718-0.46-2.442-0.876
		c-0.724-0.416-1.21-0.86-1.458-1.332c-0.199,0.472-0.655,0.916-1.367,1.332c-0.713,0.416-1.536,0.704-2.473,0.864l-0.359-0.636
		c0.584-0.063,1.151-0.202,1.704-0.414c0.552-0.212,1.027-0.5,1.428-0.864c0.399-0.364,0.624-0.762,0.672-1.194h-3.42v-0.66h7.62
		v0.66h-3.385c0.049,0.432,0.286,0.832,0.715,1.2c0.428,0.368,0.918,0.658,1.47,0.87S285.285,189.482,285.838,189.537z
		 M285.178,194.433c0,0.584-0.312,1.034-0.937,1.35s-1.512,0.474-2.664,0.474c-1.136,0-2.018-0.16-2.646-0.48
		s-0.942-0.768-0.942-1.344c0-0.568,0.314-1.012,0.942-1.332c0.628-0.32,1.51-0.48,2.646-0.48c1.152,0,2.04,0.154,2.664,0.462
		S285.178,193.841,285.178,194.433z M281.577,193.281c-0.872,0-1.556,0.102-2.052,0.306s-0.744,0.486-0.744,0.846
		c0,0.376,0.248,0.666,0.744,0.87s1.18,0.306,2.052,0.306c0.88,0,1.568-0.102,2.064-0.306s0.744-0.494,0.744-0.87
		c0-0.368-0.248-0.652-0.744-0.852C283.146,193.382,282.457,193.281,281.577,193.281z"/>
</g>
<g>
	<g>
		<line fill="none" stroke="#000000" stroke-miterlimit="10" x1="132.11" y1="111.983" x2="132.11" y2="173.466"/>
		<g>
			<polygon points="132.11,180.527 128.045,170.577 132.11,172.938 136.175,170.577 			"/>
		</g>
	</g>
</g>
<g>
	<g>
		<line fill="none" stroke="#000000" stroke-miterlimit="10" x1="368.777" y1="111.641" x2="368.777" y2="173.124"/>
		<g>
			<polygon points="368.777,180.185 364.712,170.235 368.777,172.596 372.842,170.235 			"/>
		</g>
	</g>
</g>
<g>
</g>
<g>
</g>
<g>
</g>
<g>
</g>
<g>
</g>
<g>
</g>
<g>
</g>
<g>
</g>
</svg>
