<?xml version="1.0" encoding="utf-8"?>
<!-- Generator: Adobe Illustrator 28.0.0, SVG Export Plug-In . SVG Version: 6.00 Build 0)  -->
<svg version="1.1" id="레이어_1" xmlns="http://www.w3.org/2000/svg" xmlns:xlink="http://www.w3.org/1999/xlink" x="0px"
	 y="0px" viewBox="0 0 215.005 264.591" enable-background="new 0 0 215.005 264.591" xml:space="preserve">
<path fill="none" stroke="#000000" stroke-width="3" stroke-miterlimit="10" d="M23.586,207.824c0,0,8.71-10.645,15.677-41.032
	s19.161-77.419,26.903-85.355s24.581-21.871,80.129,12.194c0,0,18.387,10.258,45.484,8.129c0,0,14.71,0.774,18.387,2.323"/>
<path fill="none" stroke="#000000" stroke-width="3" stroke-miterlimit="10" d="M23.586,210.534c0,0,10.452-19.742,14.129-36.581
	c3.677-16.839,18.968-70.258,34.065-77.613c15.097-7.355,34.452-4.645,59.032,7.161s34.452,10.839,65.419,10.839
	c0,0,12.968,0,17.226,2.323"/>
<polyline fill="none" stroke="#000000" stroke-miterlimit="10" points="17.844,34.663 17.844,232.082 215.005,232.082 "/>
<line fill="none" stroke="#000000" stroke-miterlimit="10" x1="23.005" y1="232.082" x2="23.005" y2="236.985"/>
<line fill="none" stroke="#000000" stroke-miterlimit="10" x1="12.941" y1="39.598" x2="17.844" y2="39.598"/>
<line fill="none" stroke="#000000" stroke-miterlimit="10" x1="12.941" y1="86.203" x2="17.844" y2="86.203"/>
<line fill="none" stroke="#000000" stroke-miterlimit="10" x1="12.941" y1="132.808" x2="17.844" y2="132.808"/>
<line fill="none" stroke="#000000" stroke-miterlimit="10" x1="12.941" y1="179.413" x2="17.844" y2="179.413"/>
<line fill="none" stroke="#000000" stroke-miterlimit="10" x1="12.941" y1="226.018" x2="17.844" y2="226.018"/>
<line fill="none" stroke="#000000" stroke-miterlimit="10" x1="85.715" y1="232.082" x2="85.715" y2="236.985"/>
<line fill="none" stroke="#000000" stroke-miterlimit="10" x1="147.521" y1="232.082" x2="147.521" y2="236.985"/>
<line fill="none" stroke="#000000" stroke-miterlimit="10" x1="209.167" y1="232.082" x2="209.167" y2="236.985"/>
<g>
	<path d="M23.374,247.938c-0.96,0-1.732-0.326-2.316-0.979c-0.584-0.651-0.876-1.642-0.876-2.97v-0.516
		c0-0.712,0.086-1.332,0.258-1.86c0.172-0.528,0.41-0.943,0.714-1.248c0.304-0.304,0.642-0.528,1.014-0.672
		c0.372-0.144,0.778-0.216,1.218-0.216c0.936,0,1.698,0.32,2.286,0.96c0.588,0.64,0.882,1.64,0.882,3v0.516
		c0,1.36-0.296,2.364-0.888,3.013C25.074,247.613,24.31,247.938,23.374,247.938z M23.374,246.81c0.56,0,0.976-0.218,1.248-0.654
		c0.272-0.436,0.408-1.138,0.408-2.105v-0.612c0-1.88-0.548-2.82-1.644-2.82c-0.568,0-0.988,0.219-1.26,0.654
		c-0.272,0.437-0.408,1.13-0.408,2.082v0.636C21.718,245.869,22.27,246.81,23.374,246.81z"/>
</g>
<g>
	<path d="M9.648,93.995v-1.859h-6.32v1.487H2.621c-0.12-0.755-0.336-1.295-0.624-1.751v-0.828h7.652v-1.691h0.912v4.641H9.648z"/>
	<path d="M9.625,89.267l-0.708-0.552c0.456-0.408,0.863-0.899,0.863-1.703c0-0.828-0.743-1.511-1.931-1.511
		c-1.164,0-1.883,0.6-1.883,1.427c0,0.468,0.167,0.756,0.468,1.164l-0.348,0.576l-4.09-0.276v-3.754h0.948v2.806l2.519,0.216
		c-0.204-0.324-0.324-0.624-0.324-1.08c0-1.14,0.828-2.183,2.674-2.183c1.859,0,2.891,1.2,2.891,2.507
		C10.704,88.044,10.176,88.751,9.625,89.267z"/>
	<path d="M6.23,83.939c-2.975,0-4.377-0.959-4.377-2.363c0-1.403,1.403-2.362,4.377-2.362c2.986,0,4.474,0.959,4.474,2.362
		C10.704,82.979,9.217,83.939,6.23,83.939z M6.23,80.269c-2.591,0-3.49,0.552-3.49,1.307c0,0.756,0.899,1.308,3.49,1.308
		c2.579,0,3.586-0.552,3.586-1.308C9.816,80.821,8.809,80.269,6.23,80.269z"/>
</g>
<g>
	<path d="M9.648,140.803v-1.858h-6.32v1.486H2.621c-0.12-0.755-0.336-1.295-0.624-1.75v-0.828h7.652v-1.691h0.912v4.642H9.648z"/>
	<path d="M6.23,135.847c-2.975,0-4.377-0.959-4.377-2.363c0-1.403,1.403-2.362,4.377-2.362c2.986,0,4.474,0.959,4.474,2.362
		C10.704,134.887,9.217,135.847,6.23,135.847z M6.23,132.177c-2.591,0-3.49,0.552-3.49,1.307c0,0.756,0.899,1.308,3.49,1.308
		c2.579,0,3.586-0.552,3.586-1.308C9.816,132.729,8.809,132.177,6.23,132.177z"/>
	<path d="M6.23,130.747c-2.975,0-4.377-0.959-4.377-2.363c0-1.403,1.403-2.362,4.377-2.362c2.986,0,4.474,0.959,4.474,2.362
		C10.704,129.787,9.217,130.747,6.23,130.747z M6.23,127.077c-2.591,0-3.49,0.552-3.49,1.307c0,0.756,0.899,1.308,3.49,1.308
		c2.579,0,3.586-0.552,3.586-1.308C9.816,127.628,8.809,127.077,6.23,127.077z"/>
</g>
<g>
	<path d="M9.625,185.081l-0.708-0.553c0.456-0.407,0.863-0.898,0.863-1.703c0-0.827-0.743-1.511-1.931-1.511
		c-1.164,0-1.883,0.6-1.883,1.427c0,0.469,0.167,0.756,0.468,1.164l-0.348,0.576l-4.09-0.276v-3.754h0.948v2.806l2.519,0.217
		c-0.204-0.324-0.324-0.624-0.324-1.08c0-1.139,0.828-2.183,2.674-2.183c1.859,0,2.891,1.2,2.891,2.507
		C10.704,183.857,10.176,184.565,9.625,185.081z"/>
	<path d="M6.23,179.753c-2.975,0-4.377-0.96-4.377-2.363c0-1.402,1.403-2.362,4.377-2.362c2.986,0,4.474,0.96,4.474,2.362
		C10.704,178.793,9.217,179.753,6.23,179.753z M6.23,176.083c-2.591,0-3.49,0.551-3.49,1.307s0.899,1.308,3.49,1.308
		c2.579,0,3.586-0.552,3.586-1.308S8.809,176.083,6.23,176.083z"/>
</g>
<g>
	<path d="M6.231,228.798c-2.975,0-4.377-0.959-4.377-2.363c0-1.402,1.403-2.361,4.377-2.361c2.986,0,4.474,0.959,4.474,2.361
		C10.705,227.839,9.217,228.798,6.231,228.798z M6.231,225.128c-2.591,0-3.49,0.552-3.49,1.307c0,0.756,0.899,1.309,3.49,1.309
		c2.579,0,3.586-0.553,3.586-1.309C9.817,225.68,8.81,225.128,6.231,225.128z"/>
</g>
<g>
	<path d="M9.925,47.892C7.418,45.721,5.859,44.51,4.36,44.51c-0.936,0-1.619,0.396-1.619,1.271c0,0.6,0.432,1.127,0.959,1.511
		l-0.611,0.66c-0.744-0.624-1.248-1.307-1.248-2.303c0-1.379,0.983-2.23,2.482-2.23c1.607,0,3.227,1.235,5.373,2.974
		c-0.024-0.468-0.06-0.899-0.06-1.343v-2.015h0.923v4.857H9.925z"/>
	<path d="M6.231,42.72c-2.975,0-4.377-0.959-4.377-2.363c0-1.403,1.403-2.362,4.377-2.362c2.986,0,4.474,0.959,4.474,2.362
		C10.705,41.76,9.217,42.72,6.231,42.72z M6.231,39.05c-2.591,0-3.49,0.552-3.49,1.307c0,0.756,0.899,1.308,3.49,1.308
		c2.579,0,3.586-0.552,3.586-1.308C9.817,39.602,8.81,39.05,6.231,39.05z"/>
	<path d="M6.231,37.62c-2.975,0-4.377-0.959-4.377-2.363c0-1.403,1.403-2.362,4.377-2.362c2.986,0,4.474,0.959,4.474,2.362
		C10.705,36.66,9.217,37.62,6.231,37.62z M6.231,33.95c-2.591,0-3.49,0.552-3.49,1.307c0,0.756,0.899,1.308,3.49,1.308
		c2.579,0,3.586-0.552,3.586-1.308C9.817,34.501,8.81,33.95,6.231,33.95z"/>
</g>
<g>
	<path d="M84.35,247.913c-0.944,0-1.724-0.188-2.34-0.563l0.264-1.128c0.552,0.328,1.12,0.492,1.704,0.492
		c0.576,0,1.026-0.135,1.35-0.402c0.324-0.268,0.486-0.65,0.486-1.146c0-0.983-0.592-1.476-1.776-1.476
		c-0.52,0-1.076,0.148-1.668,0.444l0.3-4.524h4.296v1.152h-3.168l-0.156,2.004c0.368-0.097,0.712-0.145,1.032-0.145
		c0.84,0,1.494,0.216,1.962,0.648c0.468,0.432,0.702,1.076,0.702,1.932c0,0.784-0.27,1.433-0.81,1.944S85.262,247.913,84.35,247.913
		z"/>
</g>
<g>
	<path d="M144.209,247.842v-6.769l-1.38,0.276v-0.864l2.088-0.936h0.78v8.292H144.209z"/>
	<path d="M150.713,247.938c-0.96,0-1.731-0.326-2.315-0.979c-0.584-0.651-0.876-1.642-0.876-2.97v-0.516
		c0-0.712,0.086-1.332,0.258-1.86s0.41-0.943,0.714-1.248c0.304-0.304,0.643-0.528,1.014-0.672c0.372-0.144,0.778-0.216,1.219-0.216
		c0.936,0,1.697,0.32,2.286,0.96c0.588,0.64,0.882,1.64,0.882,3v0.516c0,1.36-0.296,2.364-0.889,3.013
		C152.413,247.613,151.649,247.938,150.713,247.938z M150.713,246.81c0.561,0,0.977-0.218,1.248-0.654
		c0.272-0.436,0.408-1.138,0.408-2.105v-0.612c0-1.88-0.548-2.82-1.644-2.82c-0.568,0-0.988,0.219-1.261,0.654
		c-0.271,0.437-0.407,1.13-0.407,2.082v0.636C149.058,245.869,149.609,246.81,150.713,246.81z"/>
</g>
<g>
	<path d="M205.757,247.842v-6.769l-1.38,0.276v-0.864l2.088-0.936h0.78v8.292H205.757z"/>
	<path d="M211.133,247.913c-0.944,0-1.725-0.188-2.34-0.563l0.264-1.128c0.552,0.328,1.12,0.492,1.704,0.492
		c0.576,0,1.026-0.135,1.35-0.402c0.324-0.268,0.486-0.65,0.486-1.146c0-0.983-0.592-1.476-1.776-1.476
		c-0.52,0-1.076,0.148-1.668,0.444l0.301-4.524h4.296v1.152h-3.168l-0.156,2.004c0.368-0.097,0.712-0.145,1.032-0.145
		c0.84,0,1.493,0.216,1.962,0.648c0.468,0.432,0.702,1.076,0.702,1.932c0,0.784-0.271,1.433-0.811,1.944
		S212.045,247.913,211.133,247.913z"/>
</g>
<g>
	<path d="M105.784,259.622c-0.592,0.16-1.362,0.284-2.31,0.372c-0.948,0.089-1.79,0.133-2.526,0.133h-0.972v-7.021h1.392v5.82
		c1.688,0,3.112-0.141,4.272-0.42L105.784,259.622z M107.908,252.038v4.068h1.536v1.164h-1.536v5.46h-1.404v-10.692H107.908z"/>
	<path d="M110.985,259.358c-0.492-0.696-0.738-1.616-0.738-2.76c0-1.145,0.246-2.068,0.738-2.772
		c0.492-0.703,1.166-1.056,2.022-1.056c0.864,0,1.542,0.353,2.034,1.056c0.491,0.704,0.737,1.628,0.737,2.772
		c0,1.136-0.246,2.054-0.737,2.754c-0.492,0.7-1.17,1.05-2.034,1.05C112.151,260.402,111.478,260.055,110.985,259.358z
		 M114.436,256.599c0-0.832-0.132-1.49-0.396-1.975c-0.265-0.483-0.608-0.726-1.032-0.726c-0.408,0-0.742,0.242-1.002,0.726
		c-0.261,0.484-0.391,1.143-0.391,1.975c0,0.824,0.13,1.476,0.391,1.956c0.26,0.479,0.594,0.72,1.002,0.72
		c0.424,0,0.768-0.24,1.032-0.72C114.304,258.074,114.436,257.423,114.436,256.599z M118.779,262.73h-1.392v-10.692h1.392V262.73z"
		/>
	<path d="M125.919,262.538c-0.647-0.607-1.18-1.336-1.596-2.184s-0.624-1.784-0.624-2.808v-0.217c0-1.023,0.208-1.957,0.624-2.802
		c0.416-0.844,0.948-1.569,1.596-2.178h1.188c-0.592,0.656-1.072,1.404-1.44,2.244s-0.552,1.716-0.552,2.628v0.336
		c0,0.904,0.188,1.798,0.564,2.682c0.376,0.885,0.852,1.65,1.428,2.298H125.919z"/>
	<path d="M133.839,256.299l-0.779,1.044c-0.456-0.168-0.917-0.448-1.381-0.84c-0.464-0.393-0.804-0.82-1.02-1.284
		c-0.152,0.52-0.47,1.006-0.954,1.458s-0.99,0.766-1.518,0.941l-0.828-1.056c0.792-0.288,1.418-0.729,1.878-1.326
		c0.46-0.596,0.689-1.29,0.689-2.082v-0.792h1.44v0.72c0,0.776,0.242,1.452,0.726,2.028
		C132.577,255.687,133.159,256.082,133.839,256.299z M136.263,262.646h-7.308v-2.844h5.568v-0.708h-5.641v-1.116h7.057v2.844h-5.58
		v0.696h5.903V262.646z M137.463,255.387h-1.523v2.052h-1.416v-5.4h1.416v2.196h1.523V255.387z"/>
	<path d="M137.703,262.538c0.592-0.647,1.072-1.394,1.439-2.237c0.368-0.845,0.553-1.723,0.553-2.635v-0.348
		c0-0.896-0.187-1.788-0.559-2.676s-0.85-1.652-1.434-2.292h1.188c0.641,0.608,1.168,1.336,1.584,2.184
		c0.416,0.849,0.624,1.78,0.624,2.796v0.217c0,1.023-0.208,1.96-0.624,2.808s-0.943,1.576-1.584,2.184H137.703z"/>
</g>
<g>
	<path d="M125.014,69.094c-1.24,0.304-2.796,0.456-4.668,0.456h-1.068v-4.836h1.404v3.648c1.552,0,2.928-0.132,4.128-0.396
		c0.016,0.12,0.048,0.304,0.096,0.552C124.954,68.766,124.989,68.958,125.014,69.094z M127.233,74.722h-6.924v-4.08h6.924V74.722z
		 M125.817,73.618v-1.896h-4.104v1.896H125.817z M128.758,67.594h-1.524v2.472h-1.416v-5.904h1.416v2.28h1.524V67.594z"/>
	<path d="M135.718,71.35l-0.78,1.02c-0.504-0.248-1.02-0.668-1.548-1.26s-0.868-1.14-1.021-1.644
		c-0.136,0.568-0.449,1.158-0.941,1.77c-0.492,0.612-1.042,1.066-1.65,1.362l-0.863-1.044c1.808-0.992,2.712-2.612,2.712-4.86
		v-0.288h-2.16v-1.152h5.7v1.152h-2.089v0.276C133.077,68.826,133.958,70.382,135.718,71.35z M137.626,64.162v4.116h1.523v1.164
		h-1.523v5.412h-1.404V64.162H137.626z"/>
</g>
<g>
	<path d="M107.363,110.271c0-1.152,0.244-2.078,0.732-2.778s1.16-1.05,2.016-1.05c0.864,0,1.54,0.35,2.027,1.05
		c0.488,0.7,0.732,1.626,0.732,2.778c0,1.136-0.244,2.054-0.732,2.754c-0.487,0.7-1.163,1.05-2.027,1.05
		c-0.856,0-1.528-0.348-2.016-1.044C107.607,112.334,107.363,111.415,107.363,110.271z M111.527,110.271
		c0-0.832-0.13-1.49-0.39-1.974c-0.26-0.484-0.602-0.726-1.026-0.726c-0.408,0-0.74,0.242-0.996,0.726
		c-0.256,0.484-0.384,1.142-0.384,1.974c0,0.824,0.128,1.476,0.384,1.956s0.588,0.72,0.996,0.72c0.424,0,0.766-0.24,1.026-0.72
		C111.397,111.747,111.527,111.095,111.527,110.271z M113.159,112.455l0.048-1.2h1.536v-2.244h-1.536l-0.048-1.188h1.584v-2.112
		h1.404v10.692h-1.404v-3.948H113.159z"/>
	<path d="M124.139,112.898l-0.779,1.02c-0.504-0.248-1.021-0.668-1.549-1.26c-0.527-0.592-0.867-1.14-1.02-1.644
		c-0.136,0.568-0.45,1.158-0.942,1.77c-0.491,0.612-1.042,1.066-1.649,1.362l-0.864-1.044c1.808-0.992,2.712-2.612,2.712-4.86
		v-0.288h-2.16v-1.152h5.7v1.152h-2.088v0.276C121.499,110.375,122.379,111.931,124.139,112.898z M126.047,105.71v4.116h1.524v1.164
		h-1.524v5.412h-1.404V105.71H126.047z"/>
</g>
<g>
	<path d="M77.359,6.12h-2.244v2.136c1.336-0.064,2.276-0.136,2.82-0.216l0.132,1.08c-0.792,0.104-1.976,0.192-3.552,0.264
		c-1.368,0.072-2.508,0.108-3.42,0.108l-0.192-1.14c0.96,0,1.896-0.012,2.808-0.036V6.12h-1.848V1.8h1.404v3.204h4.092V6.12z
		 M79.939,0.816v10.692h-1.404V0.816H79.939z"/>
	<path d="M87.595,8.772c-1.056,0.136-2.26,0.24-3.612,0.312c-1.6,0.064-2.72,0.092-3.36,0.084l-0.204-1.2
		c1.312,0,2.472-0.02,3.48-0.06c1.392-0.048,2.584-0.136,3.576-0.264L87.595,8.772z M80.827,4.068c0-0.76,0.272-1.378,0.816-1.854
		c0.544-0.476,1.264-0.714,2.16-0.714s1.614,0.238,2.154,0.714c0.54,0.476,0.81,1.094,0.81,1.854c0,0.752-0.27,1.368-0.81,1.848
		s-1.258,0.72-2.154,0.72c-0.888,0-1.606-0.24-2.154-0.72C81.101,5.436,80.827,4.82,80.827,4.068z M82.267,4.056
		c0,0.408,0.138,0.744,0.414,1.008c0.276,0.264,0.65,0.396,1.122,0.396s0.848-0.132,1.128-0.396c0.28-0.264,0.42-0.6,0.42-1.008
		c0-0.392-0.14-0.718-0.42-0.978c-0.28-0.26-0.656-0.39-1.128-0.39c-0.464,0-0.836,0.13-1.116,0.39
		C82.407,3.338,82.267,3.664,82.267,4.056z M89.431,0.816v10.692h-1.392V0.816H89.431z"/>
	<path d="M101.803,10.164h-9.66V9.06h4.104V6.996h-3.216V5.88h1.572l-0.3-2.46l1.404-0.18l0.216,2.64h2.136l0.384-2.616l1.356,0.228
		L99.354,5.88h1.512v1.116h-3.216V9.06h4.152V10.164z M100.891,2.736h-7.884V1.62h7.884V2.736z"/>
	<path d="M110.106,6.588h-2.976V9.06h4.152v1.104h-9.66V9.06h4.104V6.588h-2.856V1.596h7.176v1.116h-5.772v2.76h5.832V6.588z"/>
	<path d="M112.843,5.376c1.831,0,3.239-0.108,4.224-0.324l0.156,1.08c-1.097,0.248-2.672,0.372-4.729,0.372h-1.044V1.62h4.765v1.116
		h-3.372V5.376z M119.587,9.348c0,0.656-0.324,1.176-0.973,1.56c-0.647,0.384-1.548,0.576-2.7,0.576
		c-1.144,0-2.038-0.192-2.682-0.576c-0.645-0.384-0.966-0.904-0.966-1.56c0-0.672,0.321-1.2,0.966-1.584
		c0.644-0.384,1.538-0.576,2.682-0.576c1.16,0,2.062,0.192,2.706,0.576C119.265,8.148,119.587,8.676,119.587,9.348z M117.553,10.098
		c0.388-0.18,0.582-0.43,0.582-0.75s-0.194-0.572-0.582-0.756c-0.389-0.184-0.935-0.276-1.639-0.276
		c-0.695,0-1.237,0.092-1.626,0.276c-0.388,0.184-0.582,0.436-0.582,0.756s0.194,0.57,0.582,0.75c0.389,0.18,0.931,0.27,1.626,0.27
		C116.618,10.368,117.164,10.278,117.553,10.098z M120.967,4.56h-1.513v2.508h-1.416V0.816h1.416V3.42h1.513V4.56z"/>
	<path d="M132.498,10.176h-9.66V9.072h4.093V6.528h1.416v2.544h4.151V10.176z M132.223,5.556l-0.66,1.104
		c-0.784-0.184-1.559-0.54-2.322-1.068c-0.764-0.528-1.29-1.124-1.578-1.788c-0.176,0.456-0.484,0.888-0.924,1.296
		c-0.44,0.408-0.918,0.742-1.434,1.002c-0.517,0.26-1.026,0.446-1.53,0.558l-0.636-1.14c0.6-0.088,1.184-0.282,1.752-0.582
		c0.567-0.3,1.052-0.712,1.451-1.236c0.4-0.524,0.601-1.086,0.601-1.686V1.368h1.464v0.648c0,0.448,0.122,0.882,0.366,1.302
		c0.244,0.42,0.556,0.78,0.936,1.08c0.38,0.3,0.79,0.552,1.23,0.756C131.378,5.358,131.807,5.492,132.223,5.556z"/>
	<path d="M137.898,8.868h-5.052V1.68h1.392v2.568h2.244V1.656h1.416V8.868z M136.482,7.764V5.352h-2.244v2.412H136.482z
		 M141.15,11.508h-1.393V0.816h1.393V11.508z"/>
	<path d="M147.93,6.468c-0.448,0.104-1.094,0.19-1.938,0.258c-0.845,0.068-1.643,0.102-2.395,0.102h-1.428v-3.3h3.336V2.496h-3.384
		V1.392h4.8v3.192h-3.336v1.128c2,0,3.388-0.108,4.164-0.324L147.93,6.468z M149.31,7.95c0.648,0.372,0.973,0.874,0.973,1.506
		s-0.324,1.132-0.973,1.5c-0.647,0.368-1.548,0.552-2.7,0.552c-1.151,0-2.05-0.185-2.693-0.552c-0.645-0.368-0.966-0.868-0.966-1.5
		s0.321-1.134,0.966-1.506c0.644-0.372,1.542-0.558,2.693-0.558C147.762,7.392,148.662,7.578,149.31,7.95z M146.609,8.496
		c-0.688,0-1.229,0.088-1.626,0.264c-0.396,0.176-0.594,0.408-0.594,0.696s0.196,0.518,0.588,0.69
		c0.392,0.172,0.937,0.258,1.632,0.258c0.704,0,1.25-0.086,1.639-0.258c0.388-0.172,0.582-0.402,0.582-0.69s-0.196-0.52-0.588-0.696
		C147.85,8.584,147.306,8.496,146.609,8.496z M151.529,4.608v1.14h-1.38V7.26h-1.416V0.816h1.416v1.476h1.38v1.14h-1.38v1.176
		H151.529z"/>
	<path d="M155.97,11.316c-0.648-0.608-1.181-1.336-1.596-2.184c-0.416-0.848-0.624-1.784-0.624-2.808V6.108
		c0-1.024,0.208-1.958,0.624-2.802c0.415-0.844,0.947-1.57,1.596-2.178h1.188c-0.592,0.656-1.071,1.404-1.439,2.244
		S155.166,5.088,155.166,6v0.336c0,0.904,0.188,1.798,0.563,2.682c0.376,0.884,0.853,1.65,1.428,2.298H155.97z"/>
	<path d="M159.449,11.82c-0.943,0-1.655-0.126-2.136-0.378s-0.72-0.602-0.72-1.05c0-0.584,0.384-0.988,1.151-1.212V9.132
		c-0.191-0.063-0.348-0.178-0.468-0.342s-0.18-0.35-0.18-0.558c0-0.2,0.058-0.37,0.174-0.51s0.298-0.29,0.546-0.45
		c-0.521-0.336-0.78-0.82-0.78-1.452V5.712c0-0.624,0.225-1.1,0.673-1.428c0.447-0.328,1.048-0.492,1.8-0.492
		c0.319,0,0.64,0.032,0.96,0.096h2.088V4.8h-0.948c0.208,0.232,0.312,0.524,0.312,0.876V5.76c0,0.632-0.221,1.106-0.66,1.422
		c-0.44,0.316-1.028,0.474-1.765,0.474c-0.407,0-0.731-0.04-0.972-0.12c-0.016,0.016-0.038,0.034-0.065,0.054
		c-0.028,0.021-0.049,0.036-0.061,0.048c-0.012,0.012-0.026,0.026-0.042,0.042s-0.028,0.032-0.036,0.048s-0.014,0.034-0.018,0.054
		s-0.006,0.042-0.006,0.066c0,0.272,0.184,0.408,0.552,0.408h1.704c1.336,0,2.004,0.521,2.004,1.56c0,0.608-0.258,1.094-0.774,1.458
		C161.268,11.638,160.489,11.82,159.449,11.82z M159.426,10.884c1.144,0,1.716-0.28,1.716-0.84c0-0.24-0.068-0.404-0.204-0.492
		s-0.388-0.132-0.756-0.132h-1.584c-0.424,0.136-0.636,0.392-0.636,0.768C157.962,10.652,158.449,10.884,159.426,10.884z
		 M159.497,6.768c0.729,0,1.093-0.316,1.093-0.948V5.664c0-0.664-0.364-0.996-1.093-0.996c-0.735,0-1.104,0.324-1.104,0.972v0.144
		C158.394,6.44,158.762,6.768,159.497,6.768z"/>
	<path d="M161.922,11.316l2.867-10.188h1.2l-2.855,10.188H161.922z"/>
	<path d="M165.978,3.66c0-0.712,0.268-1.304,0.804-1.776c0.536-0.472,1.216-0.708,2.04-0.708c0.816,0,1.49,0.232,2.022,0.696
		c0.531,0.464,0.798,1.06,0.798,1.788c0,0.712-0.265,1.288-0.792,1.728c-0.528,0.44-1.204,0.66-2.028,0.66
		c-0.808,0-1.484-0.218-2.028-0.654S165.978,4.38,165.978,3.66z M167.802,2.718c-0.288,0.26-0.433,0.57-0.433,0.93
		c0,0.36,0.139,0.656,0.414,0.888c0.276,0.232,0.622,0.348,1.038,0.348c0.424,0,0.769-0.12,1.032-0.36
		c0.264-0.24,0.396-0.532,0.396-0.876c0-0.376-0.128-0.69-0.384-0.942s-0.604-0.378-1.044-0.378
		C168.43,2.328,168.09,2.458,167.802,2.718z M174.833,11.424h-7.355V8.556h5.628V7.812h-5.688V6.708h7.08v2.856h-5.615v0.732h5.951
		V11.424z M174.497,6.168h-1.392V0.816h1.392V6.168z"/>
	<path d="M174.893,11.316c0.592-0.648,1.072-1.394,1.44-2.238s0.552-1.722,0.552-2.634V6.096c0-0.896-0.186-1.788-0.558-2.676
		c-0.372-0.888-0.851-1.652-1.435-2.292h1.188c0.64,0.608,1.168,1.336,1.584,2.184c0.416,0.848,0.624,1.78,0.624,2.796v0.216
		c0,1.024-0.208,1.96-0.624,2.808c-0.416,0.848-0.944,1.576-1.584,2.184H174.893z"/>
</g>
<g>
</g>
<g>
</g>
<g>
</g>
<g>
</g>
<g>
</g>
<g>
</g>
</svg>
