<?xml version="1.0" encoding="utf-8"?>
<!-- Generator: Adobe Illustrator 28.0.0, SVG Export Plug-In . SVG Version: 6.00 Build 0)  -->
<svg version="1.1" id="레이어_1" xmlns="http://www.w3.org/2000/svg" xmlns:xlink="http://www.w3.org/1999/xlink" x="0px"
	 y="0px" viewBox="0 0 472.384 284.625" enable-background="new 0 0 472.384 284.625" xml:space="preserve">
<g>
	<path fill="#EA5515" d="M191.176,145.235h60.063v3.524l-2.856,10.07l-2.239,9.245l-7.817,10.578l-9.213,6.999l-7.906,1.431h-6.936
		l-6.569-5.171c-1.803-5.615-4.081-11.757-6.98-18.248C197.628,156.732,194.355,150.586,191.176,145.235z"/>
	<polygon fill="#9FA0A0" stroke="#9FA0A0" stroke-width="1.9579" stroke-miterlimit="10" points="252.419,146.235 322.293,146.235 
		300.414,168.356 293.915,179.963 281.694,176.636 274.624,184.869 261.718,198.845 254.03,198.845 238.208,181.573 
		246.422,169.955 249.577,160.636 251.031,153.436 	"/>
	<path fill="none" stroke="#009944" stroke-width="2" stroke-miterlimit="10" d="M86.821,85.718
		c2.479-0.449,4.244-1.257,5.419-1.935c1.604-0.925,3.539-2.351,5.419-1.935c1.183,0.261,1.174,1.052,3.097,2.71
		c0.908,0.782,2.812,2.424,5.284,3.073c2.517,0.661,13.277,1.311,17.167,1.185c4.087-0.133,5.683,0.116,8.129-0.774
		c1.372-0.499,2.487-0.905,3.484-1.935c2.141-2.213,3.338-13.449,5.419-17.032c1.48-2.547,6.58-10.705,7.355-10.839
		c3.07-0.531,6.713,5.901,9.29,10.452c3.074,5.428,2.089,5.579,4.645,9.29c3.296,4.785,8.152,12.551,9.677,15.871
		c1.179,2.567,2.43,4.658,3.452,6.355c1.532,2.545,2.776,4.353,3.129,4.871c3.869,5.685,9.171,13.754,10.839,23.226
		c0.383,2.175,0.513,4.587,1.548,9.677c0.777,3.823,1.329,5.537,1.548,6.194c1.339,4.009,6.91,16.78,13.161,30.194
		c2.912,6.247,4.054,7.833,5.806,9.29c0.854,0.71,5.227,4.194,11.226,3.871c4.11-0.221,6.869-2.212,12.387-6.194
		c5.46-3.939,8.235-7.611,8.903-8.516c0.852-1.155,4.728-16.31,7.742-24c1.149-2.933,1.307-2.112,2.71-5.419
		c3.989-9.409,1.271-12.659,4.258-18.581c1.724-3.417,5.278-6.02,12.387-11.226c6.113-4.477,7.515-4.366,10.452-7.355
		c4.544-4.625,5.795-9.582,7.355-14.323c3.115-9.469,10.105-30.714,23.226-34.839c1.054-0.331,5.86-1.842,10.839,0
		c4.251,1.573,4.055,3.898,7.742,5.806c7.309,3.782,12.734-2.948,20.903,0.387c3.859,1.575,3.985,3.622,6.06,5.375
		c0,0,0.988,0.825,2.843,1.593c2.873,1.189,11.53,1.602,23.014,0.561c4.083,2.524,10.467,6.444,18.793,11.439
		c6.042,3.625,9.906,5.903,13.935,4.645c1.464-0.457,3.299-1.595,6.968-3.871c4.069-2.524,5.319-3.743,7.355-3.484
		c0.584,0.074,1.582,0.315,4.645,3.097c2.11,1.916,3.669,3.333,5.806,6.194c4.301,5.758,6.601,11.556,6.589,11.562
		c-0.004,0.002-0.395-0.723-0.395-0.723c2.832,2.026,4.263,1.928,5.032,1.548c2.417-1.193,0.261-6.136,3.484-10.452
		c2.151-2.881,4.034-1.915,5.806-5.032c1.354-2.382,0.767-3.847,2.323-6.968c0.998-2.003,2.242-3.41,3.097-4.258"/>
	<path fill="none" stroke="#595857" stroke-width="2" stroke-miterlimit="10" d="M131.95,88.202c2.457-0.33,5.743-0.32,8.516,1.548
		c1.59,1.071,1.693,1.866,3.097,2.71c3.499,2.103,7.385-0.113,10.839-0.387c2.788-0.221,5.584,0.801,15.097,9.29
		c17.985,16.051,20.31,23.394,27.871,29.032c1.256,0.937,3.556,2.497,4.645,5.419c1.084,2.908,0.024,4.631,1.161,7.355
		c1.166,2.792,3.588,4.115,5.032,5.032c5.679,3.605,4.712,6.306,15.097,18.194c6.402,7.328,6.732,6.259,12,12.774
		c2.826,3.495,5.739,6.919,8.516,10.452c2.957,3.761,3.957,5.179,6.194,6.581c1.305,0.818,5.997,3.757,10.452,2.323
		c3.698-1.191,3.099-4.065,10.452-11.226c2.236-2.178,2.876-2.481,4.258-4.258c3.236-4.162,2.832-6.49,5.032-7.355
		c2.592-1.019,10.77,2.821,8.129,1.935l0,0c1.446,0.737,3.49,1.462,5.419,0.774c3.12-1.112,3.308-4.979,6.194-10.065
		c1.198-2.112,3.767-4.763,8.903-10.065c3.339-3.447,6.256-6.171,10.839-10.452c3.349-3.128,3.308-3.009,5.419-5.032
		c5.642-5.407,5.446-5.79,8.903-8.903c4.194-3.776,4.19-2.949,9.677-7.742c3.289-2.873,4.095-3.873,6.581-5.419
		c0.637-0.397,3.415-2.092,7.742-3.484c4.602-1.48,5.586-0.889,9.677-1.935c5.964-1.525,5.476-3.192,12-5.419
		c7.203-2.46,8.663-0.724,12.387-3.484c2.4-1.778,2.117-2.739,6.581-6.581c1.703-1.466,3.304-2.669,5.419-4.258
		c4.292-3.225,4.549-3.099,6.194-4.645c2.987-2.807,2.781-3.823,4.645-4.645c1.856-0.818,3.13-0.283,7.355,0.387
		c6.841,1.085,6.521,0.159,10.839,1.161c5.208,1.209,5.011,2.402,9.29,3.097c3.527,0.573,6.218,0.178,10.065-0.387
		c2.976-0.437,7.149-1.289,12-3.097"/>
	<line fill="none" stroke="#000000" stroke-miterlimit="10" x1="124.983" y1="242.267" x2="124.983" y2="249.621"/>
	<line fill="none" stroke="#000000" stroke-miterlimit="10" x1="330.067" y1="242.267" x2="330.067" y2="249.621"/>
	<line fill="none" stroke="#000000" stroke-miterlimit="10" x1="398.428" y1="242.267" x2="398.428" y2="249.621"/>
	<line fill="none" stroke="#000000" stroke-miterlimit="10" x1="466.789" y1="242.267" x2="466.789" y2="249.621"/>
	<line fill="none" stroke="#000000" stroke-miterlimit="10" x1="261.705" y1="242.267" x2="261.705" y2="249.621"/>
	<polyline fill="none" stroke="#000000" stroke-miterlimit="10" points="193.344,242.267 193.344,245.944 193.344,249.621 	"/>
	<polyline fill="none" stroke="#000000" stroke-miterlimit="10" points="46.911,16.589 54.466,16.589 54.466,249.621 	"/>
	<line fill="none" stroke="#000000" stroke-miterlimit="10" x1="56.467" y1="242.267" x2="466.789" y2="242.267"/>
	<g>
		<g>
			<line fill="none" stroke="#000000" stroke-miterlimit="10" x1="74.66" y1="249.621" x2="74.66" y2="234.902"/>
			<g>
				<polygon points="78.151,235.924 74.66,229.879 71.17,235.924 				"/>
			</g>
		</g>
	</g>
	<g>
		<g>
			<line fill="none" stroke="#000000" stroke-miterlimit="10" x1="90.725" y1="249.621" x2="90.725" y2="234.902"/>
			<g>
				<polygon points="94.215,235.924 90.725,229.879 87.235,235.924 				"/>
			</g>
		</g>
	</g>
	<g>
		<g>
			<line fill="none" stroke="#000000" stroke-miterlimit="10" x1="107.854" y1="249.621" x2="107.854" y2="234.902"/>
			<g>
				<polygon points="111.344,235.924 107.854,229.879 104.364,235.924 				"/>
			</g>
		</g>
	</g>
	<line fill="none" stroke="#000000" stroke-miterlimit="10" x1="47.911" y1="145.493" x2="463.467" y2="145.493"/>
	<g>
		<path d="M336.422,178.331h-9.659v-1.128h9.659V178.331z M335.45,173.867h-7.764v-1.104h7.764V173.867z M335.427,176.699h-7.704
			v-1.104h1.487l-0.216-1.236l1.368-0.192l0.168,1.428h2.1l0.229-1.428l1.355,0.192l-0.275,1.236h1.488V176.699z M335.522,183.167
			h-7.572v-2.628h5.856v-0.504h-5.88v-1.104h7.271v2.592h-5.844v0.492h6.168V183.167z"/>
		<path d="M343.454,180.431c-1.168,0.224-2.756,0.336-4.764,0.336h-1.128v-4.44h3.468v-1.776h-3.516v-1.116h4.92v4.008h-3.469v2.172
			c1.776,0,3.232-0.104,4.368-0.312L343.454,180.431z M345.494,172.522v4.104h1.5v1.152h-1.5v5.436h-1.404v-10.692H345.494z"/>
		<path d="M354.158,179.734l-0.816,1.056c-0.456-0.28-0.918-0.708-1.386-1.284c-0.468-0.576-0.79-1.132-0.966-1.668
			c-0.176,0.608-0.508,1.214-0.996,1.818s-1.008,1.058-1.56,1.362l-0.853-1.032c1.768-1.144,2.652-2.788,2.652-4.932v-1.632h1.452
			v1.56C351.687,177.087,352.51,178.671,354.158,179.734z M356.366,183.215h-1.404v-10.692h1.404V183.215z"/>
		<path d="M367.562,181.883h-9.659v-1.116h4.104v-2.076h-2.939v-5.436h1.392v1.656h4.548v-1.68h1.404v5.46h-3v2.076h4.151V181.883z
			 M365.006,177.575v-1.584h-4.548v1.584H365.006z"/>
	</g>
	<g>
		<path fill="#006935" d="M230.779,75.384c-1.256,0-2.229-0.33-2.916-0.99c-0.688-0.66-1.032-1.69-1.032-3.09v-0.252
			c0-0.752,0.108-1.406,0.324-1.962s0.516-0.99,0.9-1.302c0.384-0.312,0.808-0.54,1.271-0.684s0.977-0.216,1.536-0.216
			c0.896,0,1.648,0.16,2.256,0.48v1.176c-0.696-0.304-1.436-0.456-2.22-0.456c-1.672,0-2.508,0.948-2.508,2.844v0.372
			c0,0.944,0.17,1.666,0.51,2.166s0.962,0.75,1.866,0.75c0.464,0,0.884-0.06,1.26-0.18v-1.872h-1.524v-1.104h2.965v3.816
			C232.635,75.216,231.739,75.384,230.779,75.384z"/>
		<path fill="#006935" d="M234.848,72.504v-1.152h3.3v1.152H234.848z"/>
		<path fill="#006935" d="M242.959,75.384c-1.168,0-2.078-0.346-2.729-1.038c-0.652-0.692-0.979-1.718-0.979-3.078v-0.3
			c0-1.4,0.356-2.43,1.068-3.09c0.712-0.66,1.644-0.99,2.796-0.99c0.848,0,1.536,0.144,2.064,0.432v1.152
			c-0.648-0.256-1.301-0.384-1.956-0.384c-1.584,0-2.376,0.908-2.376,2.724v0.42c0,0.977,0.188,1.712,0.563,2.208
			c0.376,0.496,0.984,0.744,1.824,0.744c0.64,0,1.315-0.148,2.028-0.444v1.14C244.631,75.216,243.863,75.384,242.959,75.384z"/>
		<path fill="#006935" d="M250.861,74.73c-0.492,0.444-1.226,0.666-2.202,0.666c-0.976,0-1.796-0.176-2.46-0.528v-1.164
			c0.769,0.336,1.548,0.504,2.34,0.504c1.048,0,1.572-0.4,1.572-1.2c0-0.336-0.086-0.588-0.258-0.756s-0.486-0.324-0.942-0.468
			l-0.779-0.216c-0.616-0.176-1.082-0.444-1.398-0.804s-0.474-0.872-0.474-1.536c0-0.72,0.233-1.29,0.702-1.71
			c0.468-0.42,1.153-0.63,2.058-0.63c0.855,0,1.563,0.148,2.124,0.444v1.152c-0.648-0.272-1.349-0.408-2.101-0.408
			c-0.432,0-0.764,0.088-0.995,0.264c-0.232,0.176-0.349,0.428-0.349,0.756s0.074,0.574,0.223,0.738
			c0.147,0.164,0.426,0.302,0.834,0.414l0.768,0.24c0.704,0.2,1.226,0.474,1.566,0.822c0.34,0.348,0.51,0.866,0.51,1.554
			C251.6,73.664,251.354,74.286,250.861,74.73z"/>
		<path fill="#006935" d="M253.087,75.252V67.02h5.053v1.164h-3.576v2.46h2.784v1.14h-2.784v3.468H253.087z"/>
	</g>
	<g>
		<line x1="322.293" y1="176.073" x2="301.112" y2="176.073"/>
		<g>
			<line fill="none" stroke="#000000" stroke-miterlimit="10" x1="322.293" y1="176.073" x2="307.082" y2="176.073"/>
			<g>
				<polygon points="309.89,172.37 308.317,176.073 309.89,179.776 301.112,176.073 				"/>
			</g>
		</g>
	</g>
	<g>
		<line fill="#006935" x1="261.705" y1="72.331" x2="291.821" y2="72.331"/>
		<g>
			<line fill="none" stroke="#006935" stroke-miterlimit="10" x1="261.705" y1="72.331" x2="285.852" y2="72.331"/>
			<g>
				<polygon fill="#006935" points="283.043,76.034 284.616,72.331 283.043,68.628 291.821,72.331 				"/>
			</g>
		</g>
	</g>
	<g>
		<path d="M55.887,263.414c-0.96,0-1.732-0.326-2.315-0.979c-0.585-0.651-0.876-1.642-0.876-2.97v-0.516
			c0-0.712,0.085-1.332,0.258-1.86c0.172-0.528,0.409-0.943,0.714-1.248c0.304-0.304,0.642-0.528,1.014-0.672
			s0.778-0.216,1.218-0.216c0.937,0,1.698,0.32,2.286,0.96s0.882,1.64,0.882,3v0.516c0,1.36-0.296,2.364-0.888,3.013
			C57.587,263.09,56.824,263.414,55.887,263.414z M55.887,262.286c0.56,0,0.977-0.218,1.248-0.654
			c0.272-0.436,0.408-1.138,0.408-2.105v-0.612c0-1.88-0.548-2.82-1.645-2.82c-0.567,0-0.987,0.219-1.26,0.654
			c-0.271,0.437-0.408,1.13-0.408,2.082v0.636C54.231,261.346,54.784,262.286,55.887,262.286z"/>
	</g>
	<g>
		<path d="M124.758,263.402v-1.68h-3.78v-0.864l4.164-5.82h1.008v5.593h1.212v1.092h-1.212v1.68H124.758z M122.586,260.631h2.184
			v-3.097L122.586,260.631z"/>
	</g>
	<g>
		<path d="M194.75,262.755c-0.557,0.439-1.314,0.659-2.274,0.659s-1.71-0.199-2.25-0.6s-0.81-0.939-0.81-1.62
			c0-0.487,0.159-0.916,0.479-1.284c0.32-0.367,0.724-0.647,1.212-0.84c-0.968-0.439-1.452-1.096-1.452-1.968
			c0-0.64,0.256-1.158,0.769-1.554c0.512-0.396,1.195-0.595,2.052-0.595c0.864,0,1.544,0.181,2.04,0.54
			c0.496,0.36,0.744,0.86,0.744,1.5c0,0.824-0.5,1.477-1.5,1.956c1.216,0.408,1.824,1.101,1.824,2.076
			C195.584,261.738,195.306,262.314,194.75,262.755z M191.245,261.998c0.292,0.225,0.69,0.336,1.194,0.336s0.906-0.109,1.206-0.329
			c0.3-0.221,0.45-0.511,0.45-0.87c0-0.408-0.15-0.734-0.45-0.979s-0.771-0.45-1.41-0.618c-0.4,0.137-0.738,0.341-1.014,0.612
			c-0.276,0.272-0.414,0.58-0.414,0.924C190.808,261.467,190.953,261.774,191.245,261.998z M192.68,258.458
			c0.792-0.327,1.188-0.779,1.188-1.355c0-0.32-0.115-0.58-0.348-0.78c-0.232-0.199-0.572-0.3-1.02-0.3
			c-0.425,0-0.759,0.094-1.003,0.282c-0.243,0.188-0.365,0.441-0.365,0.762C191.132,257.738,191.647,258.202,192.68,258.458z"/>
	</g>
	<g>
		<path d="M257.164,263.318v-6.769l-1.38,0.276v-0.864l2.088-0.936h0.78v8.292H257.164z"/>
		<path d="M260.452,263.27v-0.863l1.572-1.656c0.695-0.736,1.212-1.346,1.548-1.83s0.504-0.958,0.504-1.422
			c0-0.488-0.13-0.84-0.39-1.056c-0.261-0.217-0.658-0.324-1.194-0.324c-0.528,0-1.096,0.184-1.704,0.552l-0.24-1.092
			c0.712-0.416,1.492-0.624,2.34-0.624c0.889,0,1.564,0.204,2.028,0.612c0.464,0.407,0.696,0.987,0.696,1.739
			c0,0.345-0.062,0.69-0.187,1.038c-0.124,0.349-0.317,0.7-0.582,1.057c-0.264,0.355-0.494,0.644-0.689,0.863
			c-0.196,0.221-0.462,0.507-0.798,0.858l-0.973,0.996h3.301v1.151H260.452z"/>
	</g>
	<g>
		<path d="M325.2,263.318v-6.769l-1.38,0.276v-0.864l2.088-0.936h0.78v8.292H325.2z"/>
		<path d="M331.464,263.414c-0.983,0-1.733-0.322-2.25-0.966c-0.516-0.645-0.773-1.538-0.773-2.683v-0.588
			c0-1.447,0.324-2.512,0.972-3.191c0.648-0.681,1.5-1.021,2.556-1.021c0.761,0,1.4,0.152,1.921,0.456l-0.288,1.08
			c-0.168-0.088-0.404-0.17-0.708-0.246c-0.305-0.076-0.584-0.114-0.84-0.114c-0.656,0-1.164,0.202-1.524,0.606
			s-0.568,1.106-0.624,2.105c0.56-0.479,1.2-0.72,1.92-0.72c0.728,0,1.318,0.218,1.771,0.654c0.451,0.436,0.678,1.038,0.678,1.806
			c0,0.816-0.248,1.49-0.744,2.022S332.344,263.414,331.464,263.414z M331.429,262.322c0.439,0,0.785-0.143,1.037-0.427
			c0.252-0.283,0.379-0.682,0.379-1.193c0-1.008-0.484-1.512-1.452-1.512c-0.28,0-0.557,0.08-0.828,0.239
			c-0.272,0.16-0.488,0.349-0.648,0.564v0.072C329.916,261.57,330.42,262.322,331.429,262.322z"/>
	</g>
	<g>
		<path d="M390.902,263.271v-0.864l1.572-1.656c0.695-0.735,1.212-1.346,1.548-1.829c0.336-0.484,0.504-0.958,0.504-1.423
			c0-0.487-0.13-0.84-0.39-1.056c-0.261-0.216-0.658-0.324-1.194-0.324c-0.528,0-1.096,0.185-1.704,0.553l-0.24-1.093
			c0.712-0.416,1.492-0.624,2.34-0.624c0.889,0,1.564,0.204,2.028,0.612s0.696,0.988,0.696,1.74c0,0.344-0.062,0.689-0.187,1.038
			c-0.124,0.348-0.317,0.7-0.582,1.056c-0.264,0.356-0.494,0.645-0.689,0.864c-0.196,0.22-0.462,0.506-0.798,0.857l-0.973,0.996
			h3.301v1.152H390.902z"/>
		<path d="M400.538,263.414c-0.96,0-1.732-0.325-2.315-0.978c-0.585-0.652-0.876-1.642-0.876-2.97v-0.517
			c0-0.712,0.085-1.332,0.258-1.859c0.172-0.528,0.409-0.944,0.714-1.248c0.304-0.305,0.642-0.528,1.014-0.672
			c0.372-0.145,0.778-0.217,1.218-0.217c0.937,0,1.698,0.32,2.286,0.96c0.588,0.641,0.882,1.641,0.882,3v0.517
			c0,1.36-0.296,2.364-0.888,3.012C402.238,263.091,401.475,263.414,400.538,263.414z M400.538,262.286
			c0.56,0,0.977-0.218,1.248-0.653c0.272-0.437,0.408-1.139,0.408-2.106v-0.612c0-1.88-0.548-2.819-1.645-2.819
			c-0.567,0-0.987,0.218-1.26,0.653c-0.271,0.437-0.408,1.131-0.408,2.082v0.637C398.882,261.347,399.435,262.286,400.538,262.286z"
			/>
	</g>
	<g>
		<path d="M459.544,263.271v-0.864l1.572-1.656c0.695-0.735,1.212-1.346,1.548-1.829c0.336-0.484,0.504-0.958,0.504-1.423
			c0-0.487-0.13-0.84-0.39-1.056c-0.261-0.216-0.658-0.324-1.194-0.324c-0.528,0-1.096,0.185-1.704,0.553l-0.24-1.093
			c0.712-0.416,1.492-0.624,2.34-0.624c0.889,0,1.564,0.204,2.028,0.612s0.696,0.988,0.696,1.74c0,0.344-0.062,0.689-0.187,1.038
			c-0.124,0.348-0.317,0.7-0.582,1.056c-0.264,0.356-0.494,0.645-0.689,0.864c-0.196,0.22-0.462,0.506-0.798,0.857l-0.973,0.996
			h3.301v1.152H459.544z"/>
		<path d="M469.408,263.402v-1.68h-3.78v-0.864l4.164-5.82h1.008v5.593h1.212v1.092H470.8v1.68H469.408z M467.236,260.631h2.184
			v-3.097L467.236,260.631z"/>
	</g>
	<g>
		<path d="M73.799,216.069h-6.204v-1.092h6.204V216.069z M72.545,216.867c0.477,0.34,0.714,0.782,0.714,1.326
			s-0.237,0.984-0.714,1.32c-0.476,0.336-1.082,0.504-1.817,0.504c-0.744,0-1.36-0.168-1.849-0.504
			c-0.487-0.336-0.731-0.776-0.731-1.32s0.244-0.986,0.731-1.326c0.488-0.34,1.104-0.51,1.849-0.51
			C71.463,216.357,72.07,216.527,72.545,216.867z M76.091,222.045c0,0.576-0.321,1.026-0.966,1.35
			c-0.644,0.324-1.538,0.486-2.682,0.486c-1.145,0-2.038-0.162-2.683-0.486c-0.644-0.324-0.966-0.774-0.966-1.35
			c0-0.584,0.322-1.038,0.966-1.362c0.645-0.324,1.538-0.486,2.683-0.486c1.144,0,2.038,0.162,2.682,0.486
			C75.77,221.007,76.091,221.461,76.091,222.045z M69.144,214.521v-1.104h3.168v1.104H69.144z M69.9,217.623
			c-0.225,0.148-0.336,0.338-0.336,0.57s0.111,0.42,0.336,0.564c0.224,0.144,0.5,0.216,0.828,0.216c0.312,0,0.582-0.074,0.81-0.222
			c0.229-0.148,0.342-0.333,0.342-0.558c0-0.232-0.112-0.422-0.336-0.57c-0.224-0.148-0.496-0.222-0.815-0.222
			C70.4,217.401,70.124,217.475,69.9,217.623z M74.07,221.481c-0.396-0.144-0.938-0.216-1.626-0.216
			c-0.688,0-1.23,0.072-1.626,0.216c-0.396,0.144-0.594,0.333-0.594,0.564s0.197,0.42,0.594,0.564
			c0.396,0.144,0.938,0.216,1.626,0.216c0.688,0,1.229-0.072,1.626-0.216c0.396-0.144,0.594-0.332,0.594-0.564
			S74.465,221.625,74.07,221.481z M77.412,217.389h-1.404v2.736h-1.403v-6.96h1.403v3.072h1.404V217.389z"/>
		<path d="M78.072,216.309c0-0.728,0.266-1.336,0.798-1.824c0.532-0.488,1.186-0.732,1.962-0.732c0.784,0,1.442,0.242,1.974,0.726
			c0.532,0.484,0.799,1.094,0.799,1.83c0,0.744-0.263,1.342-0.786,1.794c-0.524,0.452-1.187,0.678-1.986,0.678
			c-0.784,0-1.44-0.228-1.968-0.684C78.335,217.641,78.072,217.045,78.072,216.309z M79.44,216.297c0,0.416,0.128,0.754,0.384,1.014
			c0.256,0.26,0.592,0.39,1.008,0.39s0.758-0.132,1.026-0.396c0.268-0.264,0.401-0.6,0.401-1.008c0-0.4-0.13-0.732-0.39-0.996
			c-0.26-0.264-0.606-0.396-1.038-0.396c-0.408,0-0.742,0.134-1.002,0.402S79.44,215.905,79.44,216.297z M86.387,223.725h-6.936
			v-4.068h6.936V223.725z M84.984,222.633v-1.908h-4.128v1.908H84.984z M87.9,216.789h-1.513v2.316h-1.428v-5.94h1.428v2.484H87.9
			V216.789z"/>
		<path d="M93.671,220.377l-0.792,1.008c-0.368-0.232-0.738-0.59-1.11-1.074c-0.372-0.484-0.622-0.954-0.75-1.41
			c-0.128,0.496-0.39,1.012-0.785,1.548c-0.396,0.536-0.811,0.928-1.242,1.176l-0.853-0.948c1.473-0.976,2.208-2.524,2.208-4.644
			v-0.516h-1.8v-1.116h4.824v1.116h-1.668v0.492c0,1.04,0.168,1.934,0.504,2.682S93.032,220.001,93.671,220.377z M95.364,223.365
			h-1.309v-5.364h-1.392v-1.152h1.392v-3.48h1.309V223.365z M97.511,223.857h-1.332v-10.692h1.332V223.857z"/>
		<path d="M107.448,223.869h-1.404v-3.42h-4.104v-1.116h9.659v1.116h-4.151V223.869z M110.04,216.645h-5.472v0.732h5.916v1.116
			h-7.309v-4.824h7.225v1.128h-5.832v0.744h5.472V216.645z"/>
		<path d="M112.379,217.725c0-1.152,0.244-2.078,0.732-2.778c0.487-0.7,1.159-1.05,2.016-1.05c0.864,0,1.54,0.35,2.028,1.05
			c0.487,0.7,0.731,1.626,0.731,2.778c0,1.136-0.244,2.054-0.731,2.754c-0.488,0.7-1.164,1.05-2.028,1.05
			c-0.856,0-1.528-0.348-2.016-1.044C112.624,219.789,112.379,218.869,112.379,217.725z M116.543,217.725
			c0-0.832-0.13-1.49-0.39-1.974c-0.261-0.484-0.603-0.726-1.026-0.726c-0.408,0-0.74,0.242-0.996,0.726
			c-0.256,0.484-0.384,1.142-0.384,1.974c0,0.824,0.128,1.476,0.384,1.956s0.588,0.72,0.996,0.72c0.424,0,0.766-0.24,1.026-0.72
			C116.414,219.201,116.543,218.549,116.543,217.725z M118.175,219.909l0.048-1.2h1.536v-2.244h-1.536l-0.048-1.188h1.584v-2.112
			h1.404v10.692h-1.404v-3.948H118.175z"/>
	</g>
	<g>
		<path d="M232.261,215.664h-5.17v-0.91h5.17V215.664z M231.216,216.329c0.396,0.284,0.596,0.652,0.596,1.105
			c0,0.454-0.199,0.82-0.596,1.1c-0.396,0.28-0.901,0.42-1.515,0.42c-0.62,0-1.134-0.14-1.54-0.42c-0.407-0.28-0.61-0.646-0.61-1.1
			c0-0.453,0.203-0.821,0.61-1.105c0.406-0.283,0.92-0.425,1.54-0.425C230.314,215.904,230.819,216.045,231.216,216.329z
			 M234.171,220.644c0,0.48-0.269,0.855-0.805,1.125c-0.537,0.27-1.282,0.405-2.235,0.405s-1.698-0.135-2.234-0.405
			c-0.537-0.27-0.806-0.645-0.806-1.125c0-0.486,0.269-0.865,0.806-1.135c0.536-0.27,1.281-0.405,2.234-0.405
			s1.698,0.135,2.235,0.405C233.902,219.779,234.171,220.157,234.171,220.644z M228.381,214.374v-0.92h2.641v0.92H228.381z
			 M229.011,216.959c-0.187,0.123-0.279,0.282-0.279,0.475c0,0.194,0.093,0.35,0.279,0.47s0.417,0.18,0.69,0.18
			c0.26,0,0.485-0.062,0.675-0.185c0.19-0.124,0.285-0.278,0.285-0.465c0-0.193-0.094-0.352-0.28-0.475
			c-0.187-0.124-0.413-0.185-0.68-0.185C229.428,216.774,229.197,216.835,229.011,216.959z M232.486,220.174
			c-0.33-0.12-0.782-0.18-1.355-0.18s-1.024,0.06-1.354,0.18s-0.495,0.277-0.495,0.47c0,0.194,0.165,0.35,0.495,0.47
			s0.781,0.18,1.354,0.18s1.025-0.06,1.355-0.18s0.495-0.276,0.495-0.47C232.981,220.451,232.816,220.294,232.486,220.174z
			 M235.271,216.764h-1.171v2.28h-1.17v-5.8h1.17v2.56h1.171V216.764z"/>
		<path d="M235.82,215.864c0-0.606,0.222-1.113,0.665-1.52s0.988-0.61,1.635-0.61c0.653,0,1.202,0.202,1.646,0.605
			s0.665,0.912,0.665,1.525c0,0.62-0.219,1.119-0.655,1.495s-0.988,0.565-1.655,0.565c-0.653,0-1.199-0.19-1.64-0.57
			C236.04,216.974,235.82,216.477,235.82,215.864z M236.961,215.854c0,0.347,0.106,0.628,0.319,0.845
			c0.214,0.217,0.493,0.325,0.84,0.325s0.632-0.11,0.855-0.33c0.224-0.22,0.335-0.5,0.335-0.84c0-0.333-0.108-0.61-0.325-0.83
			c-0.217-0.22-0.505-0.33-0.865-0.33c-0.34,0-0.618,0.112-0.835,0.335C237.068,215.252,236.961,215.527,236.961,215.854z
			 M242.75,222.044h-5.779v-3.39h5.779V222.044z M241.58,221.134v-1.59h-3.439v1.59H241.58z M244.011,216.264h-1.261v1.93h-1.189
			v-4.95h1.189v2.07h1.261V216.264z"/>
		<path d="M248.821,219.254l-0.66,0.84c-0.307-0.193-0.615-0.492-0.925-0.895c-0.311-0.403-0.519-0.795-0.625-1.175
			c-0.107,0.413-0.325,0.843-0.655,1.29c-0.33,0.446-0.675,0.773-1.035,0.98l-0.71-0.79c1.227-0.813,1.84-2.104,1.84-3.87v-0.43
			h-1.5v-0.93h4.021v0.93h-1.391v0.41c0,0.867,0.141,1.612,0.42,2.235C247.881,218.472,248.287,218.94,248.821,219.254z
			 M250.23,221.744h-1.09v-4.47h-1.16v-0.96h1.16v-2.9h1.09V221.744z M252.021,222.154h-1.109v-8.91h1.109V222.154z"/>
		<path d="M260.371,218.724h-2.7v1.39h3.46v0.93h-8.05v-0.93h3.42v-1.39h-2.39v-2.95h4.84v-1.03h-4.89v-0.93h6.05v2.89h-4.84v1.08
			h5.1V218.724z"/>
		<path d="M267.422,222.144h-1.17v-2.97h-1.891v-0.93h8.05v0.93h-1.93v2.97h-1.17v-2.97h-1.89V222.144z M271.542,215.624
			c0,0.594-0.289,1.072-0.865,1.435c-0.577,0.364-1.346,0.545-2.306,0.545c-0.953,0-1.718-0.182-2.295-0.545
			c-0.576-0.363-0.864-0.841-0.864-1.435c0-0.586,0.288-1.062,0.864-1.425c0.577-0.363,1.342-0.545,2.295-0.545
			c0.96,0,1.729,0.182,2.306,0.545C271.253,214.562,271.542,215.037,271.542,215.624z M269.786,216.369
			c0.357-0.196,0.535-0.445,0.535-0.745c0-0.3-0.177-0.546-0.529-0.74c-0.354-0.193-0.827-0.29-1.421-0.29
			c-0.593,0-1.066,0.097-1.42,0.29s-0.529,0.44-0.529,0.74c0,0.3,0.176,0.549,0.529,0.745c0.354,0.197,0.827,0.295,1.42,0.295
			C268.958,216.664,269.43,216.565,269.786,216.369z"/>
		<path d="M277.451,217.444h-4.21v-3.86h1.149v1.12h1.891v-1.14h1.17V217.444z M280.23,222.084h-6.069v-2.36h4.63v-0.57h-4.7v-0.93
			h5.89v2.36h-4.659v0.56h4.909V222.084z M276.281,216.534v-0.91h-1.891v0.91H276.281z M281.23,216.034h-1.25v1.73h-1.189v-4.52
			h1.189v1.83h1.25V216.034z"/>
		<path d="M287.562,218.604c-0.86,0.106-1.813,0.183-2.86,0.23c-1.167,0.06-2.149,0.09-2.95,0.09l-0.159-0.95
			c0.913,0,1.72-0.013,2.42-0.04v-1h-1.551v-3.06h4.181v0.93h-3.011v1.2h3.08v0.93h-1.52v0.96c0.934-0.046,1.687-0.11,2.26-0.19
			L287.562,218.604z M289.161,221.894h-6.02v-2.5h1.18v1.57h4.84V221.894z M289.092,213.244v6.54h-1.181v-6.54H289.092z"/>
		<path d="M300.991,221.104h-8.05v-0.93h3.42v-0.87c-0.693-0.073-1.239-0.255-1.64-0.545s-0.6-0.651-0.6-1.085
			c0-0.493,0.26-0.892,0.779-1.195c0.521-0.304,1.21-0.455,2.07-0.455s1.55,0.151,2.07,0.455c0.52,0.303,0.779,0.702,0.779,1.195
			c0,0.44-0.205,0.807-0.614,1.1c-0.41,0.293-0.969,0.473-1.676,0.54v0.86h3.46V221.104z M300.502,215.734h-7.07v-0.92h7.07V215.734
			z M298.632,217.674c0-0.24-0.158-0.428-0.476-0.565c-0.316-0.137-0.711-0.205-1.185-0.205s-0.868,0.068-1.186,0.205
			c-0.316,0.137-0.475,0.325-0.475,0.565c0,0.247,0.156,0.437,0.47,0.57c0.313,0.134,0.71,0.2,1.19,0.2
			c0.479,0,0.877-0.066,1.189-0.2C298.475,218.11,298.632,217.92,298.632,217.674z M295.382,214.354v-0.92h3.149v0.92H295.382z"/>
		<path d="M309.641,218.294h-3.46v0.57c0.827,0.053,1.469,0.222,1.926,0.505c0.456,0.284,0.685,0.648,0.685,1.095
			c0,0.5-0.278,0.892-0.835,1.175s-1.339,0.425-2.345,0.425c-1,0-1.778-0.142-2.335-0.425s-0.835-0.675-0.835-1.175
			c0-0.447,0.225-0.812,0.675-1.095c0.45-0.283,1.081-0.452,1.895-0.505v-0.57h-3.42v-0.94h8.05V218.294z M309.231,216.104
			l-0.5,0.93c-0.654-0.053-1.272-0.236-1.855-0.55s-1.005-0.684-1.265-1.11c-0.227,0.44-0.625,0.812-1.195,1.115
			s-1.208,0.485-1.915,0.545c-0.06-0.12-0.148-0.287-0.265-0.5c-0.117-0.213-0.192-0.35-0.226-0.41
			c0.714-0.033,1.339-0.187,1.875-0.46c0.537-0.273,0.882-0.63,1.035-1.07h-2.5v-0.93h6.42v0.93h-2.51
			c0.173,0.427,0.542,0.778,1.104,1.055C307.999,215.925,308.598,216.077,309.231,216.104z M307.601,220.474
			c0-0.22-0.18-0.392-0.54-0.515c-0.359-0.124-0.847-0.185-1.46-0.185c-0.606,0-1.086,0.062-1.439,0.185
			c-0.354,0.123-0.53,0.295-0.53,0.515c0,0.213,0.177,0.38,0.53,0.5c0.354,0.12,0.833,0.18,1.439,0.18c0.613,0,1.101-0.06,1.46-0.18
			C307.421,220.854,307.601,220.687,307.601,220.474z"/>
		<path d="M317.262,213.724c0,1.547-0.097,2.813-0.29,3.8h1.319v0.93h-3.46v3.7h-1.17v-3.7h-3.42v-0.93h5.62
			c0.16-0.773,0.24-1.727,0.24-2.86h-4.87v-0.94H317.262z"/>
		<path d="M324.882,219.874c-0.88,0.114-1.884,0.2-3.01,0.26c-1.334,0.053-2.267,0.077-2.8,0.07l-0.171-1
			c1.094,0,2.061-0.017,2.9-0.05c1.16-0.04,2.153-0.113,2.98-0.22L324.882,219.874z M319.242,215.954
			c0-0.633,0.227-1.148,0.68-1.545c0.453-0.396,1.053-0.595,1.8-0.595s1.345,0.198,1.795,0.595c0.45,0.397,0.675,0.912,0.675,1.545
			c0,0.627-0.225,1.14-0.675,1.54s-1.048,0.6-1.795,0.6c-0.74,0-1.338-0.2-1.795-0.6S319.242,216.581,319.242,215.954z
			 M320.441,215.944c0,0.34,0.115,0.62,0.346,0.84c0.229,0.22,0.541,0.33,0.935,0.33s0.707-0.11,0.94-0.33
			c0.233-0.22,0.35-0.5,0.35-0.84c0-0.327-0.116-0.598-0.35-0.815s-0.547-0.325-0.94-0.325c-0.387,0-0.696,0.108-0.93,0.325
			S320.441,215.617,320.441,215.944z M326.412,213.244v8.91h-1.16v-8.91H326.412z"/>
		<path d="M232.931,231.364l0.091,0.89c-1.521,0.207-3.421,0.31-5.7,0.31l-0.17-0.95c1.093,0,1.899-0.006,2.42-0.02v-1.46h1.18v1.41
			C231.458,231.517,232.185,231.457,232.931,231.364z M227.691,228.004v-0.92h4.859v0.92h-1.76c0.094,0.367,0.342,0.695,0.745,0.985
			s0.828,0.465,1.275,0.525l-0.54,0.93c-0.381-0.08-0.777-0.263-1.19-0.55c-0.413-0.286-0.71-0.586-0.89-0.9
			c-0.167,0.374-0.462,0.72-0.886,1.04c-0.423,0.32-0.864,0.537-1.324,0.65l-0.58-0.9c0.546-0.12,1.021-0.343,1.425-0.67
			s0.645-0.697,0.725-1.11H227.691z M228.831,226.594v-0.92h2.66v0.92H228.831z M234.571,225.244v8.91h-1.181v-8.91H234.571z"/>
		<path d="M241.261,231.444l-0.66,0.86c-0.42-0.22-0.851-0.573-1.29-1.06c-0.44-0.486-0.724-0.94-0.85-1.36
			c-0.114,0.474-0.375,0.965-0.785,1.475c-0.41,0.51-0.865,0.885-1.365,1.125l-0.73-0.86c1.507-0.826,2.261-2.176,2.261-4.05v-0.46
			h-1.79v-0.96h4.739v0.96h-1.729v0.45C239.061,229.351,239.794,230.644,241.261,231.444z M243.15,234.154h-1.17v-4.85h-1.5v-0.99
			h1.5v-3.07h1.17V234.154z"/>
		<path d="M244.741,226.774v-0.96h4.699v0.96h-1.71c0.04,0.6,0.249,1.113,0.625,1.54c0.377,0.427,0.829,0.727,1.355,0.9l-0.64,0.92
			c-0.367-0.14-0.735-0.37-1.105-0.69c-0.37-0.32-0.645-0.673-0.825-1.06c-0.133,0.42-0.399,0.82-0.8,1.2
			c-0.4,0.38-0.823,0.65-1.27,0.81l-0.69-0.92c0.633-0.233,1.144-0.583,1.53-1.05s0.593-1.017,0.62-1.65H244.741z M251.801,234.044
			h-5.92v-3.29h5.92V234.044z M250.631,233.134v-1.48h-3.59v1.48H250.631z M251.801,230.324h-1.17v-1.99h-1.32v-0.94h1.32v-2.15
			h1.17V230.324z"/>
		<path d="M253.946,231.344c-0.41-0.58-0.615-1.347-0.615-2.3c0-0.954,0.205-1.724,0.615-2.31c0.41-0.587,0.972-0.88,1.685-0.88
			c0.721,0,1.285,0.293,1.695,0.88c0.41,0.586,0.615,1.356,0.615,2.31c0,0.947-0.205,1.711-0.615,2.295s-0.975,0.875-1.695,0.875
			C254.918,232.214,254.356,231.924,253.946,231.344z M256.821,229.044c0-0.693-0.11-1.242-0.33-1.645s-0.507-0.605-0.86-0.605
			c-0.34,0-0.618,0.202-0.835,0.605s-0.324,0.952-0.324,1.645c0,0.687,0.107,1.23,0.324,1.63s0.495,0.6,0.835,0.6
			c0.354,0,0.641-0.2,0.86-0.6S256.821,229.73,256.821,229.044z M260.441,234.154h-1.16v-8.91h1.16V234.154z"/>
		<path d="M267.812,233.064c-1.047,0-1.856-0.275-2.43-0.825c-0.574-0.55-0.86-1.408-0.86-2.575v-0.21
			c0-0.626,0.09-1.171,0.271-1.635c0.18-0.463,0.43-0.825,0.75-1.085c0.319-0.26,0.673-0.45,1.06-0.57
			c0.387-0.12,0.813-0.18,1.28-0.18c0.746,0,1.373,0.133,1.88,0.4v0.98c-0.58-0.253-1.197-0.38-1.851-0.38
			c-1.393,0-2.09,0.79-2.09,2.37v0.31c0,0.787,0.142,1.389,0.425,1.805c0.284,0.417,0.802,0.625,1.556,0.625
			c0.387,0,0.736-0.05,1.05-0.15v-1.56h-1.271v-0.92h2.471v3.18C269.358,232.924,268.611,233.064,267.812,233.064z"/>
		<path d="M271.201,230.664v-0.96h2.75v0.96H271.201z"/>
		<path d="M277.961,233.064c-0.974,0-1.731-0.289-2.274-0.865c-0.544-0.577-0.815-1.432-0.815-2.565v-0.25
			c0-1.167,0.297-2.025,0.89-2.575c0.594-0.55,1.37-0.825,2.33-0.825c0.707,0,1.28,0.12,1.721,0.36v0.96
			c-0.54-0.213-1.084-0.32-1.631-0.32c-1.319,0-1.979,0.757-1.979,2.27v0.35c0,0.813,0.156,1.426,0.47,1.84s0.82,0.62,1.521,0.62
			c0.533,0,1.097-0.124,1.689-0.37v0.95C279.354,232.924,278.715,233.064,277.961,233.064z"/>
		<path d="M284.547,232.519c-0.41,0.37-1.022,0.555-1.835,0.555c-0.813,0-1.497-0.146-2.051-0.44v-0.97
			c0.641,0.28,1.29,0.42,1.95,0.42c0.873,0,1.311-0.333,1.311-1c0-0.28-0.072-0.49-0.216-0.63c-0.143-0.14-0.404-0.27-0.784-0.39
			l-0.65-0.18c-0.514-0.146-0.901-0.37-1.165-0.67c-0.264-0.3-0.395-0.727-0.395-1.28c0-0.6,0.194-1.075,0.585-1.425
			c0.39-0.35,0.961-0.525,1.715-0.525c0.713,0,1.303,0.124,1.77,0.37v0.96c-0.54-0.227-1.123-0.34-1.75-0.34
			c-0.359,0-0.637,0.074-0.83,0.22s-0.29,0.356-0.29,0.63s0.062,0.479,0.186,0.615c0.123,0.137,0.354,0.251,0.694,0.345l0.641,0.2
			c0.586,0.167,1.021,0.395,1.305,0.685s0.425,0.722,0.425,1.295C285.161,231.63,284.956,232.149,284.547,232.519z"/>
		<path d="M286.401,232.954v-6.86h4.21v0.97h-2.979v2.05h2.32v0.95h-2.32v2.89H286.401z"/>
		<path d="M298.541,234.164h-1.17v-2.85h-3.42v-0.93h8.05v0.93h-3.46V234.164z M300.701,228.144h-4.56v0.61h4.93v0.93h-6.09v-4.02
			h6.02v0.94h-4.859v0.62h4.56V228.144z"/>
		<path d="M302.65,229.044c0-0.96,0.204-1.732,0.61-2.315c0.406-0.583,0.967-0.875,1.68-0.875c0.721,0,1.283,0.292,1.69,0.875
			c0.406,0.583,0.61,1.355,0.61,2.315c0,0.947-0.204,1.711-0.61,2.295c-0.407,0.583-0.97,0.875-1.69,0.875
			c-0.713,0-1.273-0.29-1.68-0.87S302.65,229.997,302.65,229.044z M306.121,229.044c0-0.693-0.108-1.242-0.325-1.645
			s-0.502-0.605-0.855-0.605c-0.34,0-0.616,0.202-0.83,0.605c-0.213,0.403-0.319,0.952-0.319,1.645c0,0.687,0.106,1.23,0.319,1.63
			c0.214,0.4,0.49,0.6,0.83,0.6c0.354,0,0.639-0.2,0.855-0.6S306.121,229.73,306.121,229.044z M307.48,230.864l0.04-1h1.28v-1.87
			h-1.28l-0.04-0.99h1.32v-1.76h1.17v8.91h-1.17v-3.29H307.48z"/>
		<path d="M316.781,231.254l-0.68,0.88c-0.381-0.233-0.766-0.59-1.155-1.07s-0.658-0.943-0.805-1.39
			c-0.147,0.507-0.424,1.012-0.83,1.515c-0.407,0.503-0.841,0.881-1.301,1.135l-0.71-0.86c1.474-0.954,2.21-2.323,2.21-4.11v-1.36
			h1.21v1.3C314.721,229.047,315.408,230.367,316.781,231.254z M318.621,234.154h-1.17v-8.91h1.17V234.154z"/>
		<path d="M327.651,231.704c-0.807,0.2-2.094,0.3-3.86,0.3h-0.859v-5.94h4v0.94h-2.84v4.05c1.479,0,2.609-0.093,3.39-0.28
			L327.651,231.704z M329.892,234.154h-1.16v-4.89h-2.13v-0.99h2.13v-3.03h1.16V234.154z"/>
		<path d="M336.431,229.434h-2.58v-3.79h1.01v1.05h0.551v-1.05h1.02V229.434z M335.411,228.504v-0.88h-0.551v0.88H335.411z
			 M341.341,234.084h-6.28v-2.39h4.851v-0.62h-4.851v-0.92h6.021v2.38h-4.851v0.61h5.11V234.084z M339.431,229.434h-2.57v-3.79h1
			v1.05h0.561v-1.05h1.01V229.434z M338.421,228.504v-0.88h-0.561v0.88H338.421z M342.061,228.044h-0.99v1.7h-1.119v-4.5h1.119v1.85
			h0.99V228.044z"/>
		<path d="M347.88,230.894l0.13,0.93c-0.953,0.193-2.323,0.29-4.109,0.29h-0.94v-3.7h2.891v-1.48h-2.931v-0.93h4.11v3.34h-2.91v1.81
			C345.687,231.154,346.94,231.067,347.88,230.894z M348.66,225.244h1.16v8.91h-1.16V225.244z"/>
		<path d="M358.921,231.564c-0.494,0.133-1.136,0.236-1.926,0.31c-0.79,0.074-1.491,0.11-2.104,0.11h-0.811v-5.85h1.16v4.85
			c1.407,0,2.594-0.117,3.561-0.35L358.921,231.564z M360.69,225.244v3.39h1.28v0.97h-1.28v4.55h-1.17v-8.91H360.69z"/>
		<path d="M363.89,231.214c1.526,0,2.7-0.09,3.521-0.27c0.013,0.106,0.035,0.26,0.064,0.46c0.03,0.2,0.052,0.354,0.065,0.46
			c-0.84,0.193-2.16,0.29-3.96,0.29h-0.851v-6.13h4.091v0.92h-2.931v1.62h2.771v0.93h-2.771V231.214z M369.35,225.244v3.36h1.24
			v0.96h-1.24v4.59h-1.17v-8.91H369.35z"/>
		<path d="M376.15,229.354c-1.033,0.253-2.33,0.38-3.891,0.38h-0.89v-4.03h1.17v3.04c1.294,0,2.44-0.11,3.44-0.33
			c0.013,0.1,0.04,0.253,0.08,0.46C376.101,229.081,376.13,229.241,376.15,229.354z M378,234.044h-5.77v-3.4H378V234.044z
			 M376.82,233.124v-1.58h-3.42v1.58H376.82z M379.271,228.104H378v2.06h-1.18v-4.92H378v1.9h1.271V228.104z"/>
	</g>
	
		<rect x="219.434" y="208.976" fill="none" stroke="#009944" stroke-width="1.2281" stroke-miterlimit="10" width="188.129" height="29.419"/>
	<g>
		<g>
			
				<line fill="none" stroke="#898989" stroke-width="1.228" stroke-miterlimit="10" x1="124.983" y1="238.396" x2="124.983" y2="235.396"/>
			
				<line fill="none" stroke="#898989" stroke-width="1.228" stroke-miterlimit="10" stroke-dasharray="6.0995,2.0332" x1="124.983" y1="233.362" x2="124.983" y2="22.928"/>
			
				<line fill="none" stroke="#898989" stroke-width="1.228" stroke-miterlimit="10" x1="124.983" y1="21.912" x2="124.983" y2="18.912"/>
		</g>
	</g>
	<g>
		<path d="M67.435,139.822c-1.047,0-1.856-0.275-2.43-0.825c-0.574-0.55-0.86-1.408-0.86-2.575v-0.21
			c0-0.626,0.09-1.171,0.271-1.635c0.18-0.463,0.43-0.825,0.75-1.085c0.319-0.26,0.673-0.45,1.06-0.57
			c0.387-0.12,0.813-0.18,1.28-0.18c0.746,0,1.373,0.133,1.88,0.4v0.98c-0.58-0.253-1.197-0.38-1.851-0.38
			c-1.393,0-2.09,0.79-2.09,2.37v0.31c0,0.787,0.142,1.389,0.425,1.805c0.284,0.417,0.802,0.625,1.556,0.625
			c0.387,0,0.736-0.05,1.05-0.15v-1.56h-1.271v-0.92h2.471v3.18C68.982,139.682,68.235,139.822,67.435,139.822z"/>
		<path d="M70.955,139.711v-5.15h1.11v0.6h0.04c0.14-0.187,0.333-0.34,0.58-0.46c0.246-0.12,0.503-0.18,0.77-0.18
			c0.16,0,0.267,0.01,0.32,0.03v1.02c-0.127-0.02-0.267-0.03-0.42-0.03c-0.48,0-0.896,0.113-1.25,0.34v3.83H70.955z"/>
		<path d="M76.014,139.802c-0.479,0-0.863-0.124-1.149-0.37c-0.287-0.247-0.431-0.61-0.431-1.09c0-0.867,0.551-1.38,1.65-1.54
			l1.21-0.14v-0.39c0-0.34-0.085-0.568-0.255-0.685c-0.17-0.116-0.479-0.175-0.925-0.175c-0.42,0-0.837,0.047-1.25,0.14v-0.79
			c0.473-0.187,1.04-0.28,1.699-0.28c1.254,0,1.881,0.51,1.881,1.53v3.7h-0.95l-0.09-0.42h-0.061
			C77.051,139.631,76.608,139.802,76.014,139.802z M76.365,138.992c0.399,0,0.71-0.104,0.93-0.31v-1.27l-0.95,0.1
			c-0.26,0.02-0.455,0.09-0.585,0.21s-0.195,0.307-0.195,0.56c0,0.233,0.072,0.41,0.216,0.53
			C75.922,138.932,76.118,138.992,76.365,138.992z"/>
		<path d="M81.614,139.802c-0.58,0-1.073-0.204-1.479-0.61c-0.407-0.406-0.61-1.04-0.61-1.9v-0.13c0-0.907,0.207-1.582,0.62-2.025
			s0.974-0.665,1.68-0.665c0.46,0,0.87,0.097,1.23,0.29v-2.36h1.14v7.31h-0.979l-0.101-0.41h-0.04
			C82.72,139.635,82.234,139.802,81.614,139.802z M82.014,138.912c0.38,0,0.727-0.117,1.04-0.35v-2.93
			c-0.227-0.18-0.577-0.27-1.05-0.27c-0.427,0-0.75,0.13-0.971,0.39c-0.22,0.26-0.33,0.693-0.33,1.3v0.19
			c0,0.606,0.113,1.037,0.341,1.29C81.271,138.785,81.594,138.912,82.014,138.912z"/>
		<path d="M87.814,139.802c-0.841,0-1.476-0.227-1.905-0.68c-0.43-0.453-0.646-1.093-0.646-1.92v-0.14
			c0-0.833,0.222-1.472,0.665-1.915s1.009-0.665,1.695-0.665c0.746,0,1.297,0.207,1.65,0.62c0.353,0.414,0.529,1.037,0.529,1.87
			v0.48h-3.359c0.033,0.52,0.182,0.892,0.444,1.115c0.264,0.224,0.648,0.335,1.155,0.335c0.566,0,1.097-0.126,1.59-0.38v0.8
			C89.147,139.642,88.541,139.802,87.814,139.802z M87.604,135.332c-0.707,0-1.094,0.443-1.16,1.33h2.189
			c0-0.473-0.085-0.813-0.255-1.02S87.95,135.332,87.604,135.332z"/>
		<path d="M96.203,139.822v-1.4h-3.149v-0.72l3.47-4.85h0.84v4.66h1.01v0.91h-1.01v1.4H96.203z M94.393,137.512h1.82v-2.58
			L94.393,137.512z"/>
		<path d="M109.663,139.862h-8.05v-0.93h3.42v-0.87c-0.693-0.073-1.239-0.255-1.64-0.545s-0.6-0.651-0.6-1.085
			c0-0.493,0.26-0.892,0.779-1.195c0.521-0.304,1.21-0.455,2.07-0.455s1.55,0.151,2.07,0.455c0.52,0.303,0.779,0.702,0.779,1.195
			c0,0.44-0.205,0.807-0.614,1.1c-0.41,0.293-0.969,0.473-1.676,0.54v0.86h3.46V139.862z M109.173,134.492h-7.07v-0.92h7.07V134.492
			z M107.303,136.432c0-0.24-0.158-0.428-0.476-0.565c-0.316-0.137-0.711-0.205-1.185-0.205s-0.868,0.068-1.186,0.205
			c-0.316,0.137-0.475,0.325-0.475,0.565c0,0.247,0.156,0.437,0.47,0.57c0.313,0.134,0.71,0.2,1.19,0.2
			c0.479,0,0.877-0.066,1.189-0.2C107.146,136.868,107.303,136.678,107.303,136.432z M104.053,133.112v-0.92h3.149v0.92H104.053z"/>
		<path d="M118.313,137.052h-3.46v0.57c0.827,0.053,1.469,0.222,1.926,0.505c0.456,0.284,0.685,0.648,0.685,1.095
			c0,0.5-0.278,0.892-0.835,1.175s-1.339,0.425-2.345,0.425c-1,0-1.778-0.142-2.335-0.425s-0.835-0.675-0.835-1.175
			c0-0.447,0.225-0.812,0.675-1.095c0.45-0.283,1.081-0.452,1.895-0.505v-0.57h-3.42v-0.94h8.05V137.052z M117.904,134.862
			l-0.5,0.93c-0.654-0.053-1.272-0.236-1.855-0.55s-1.005-0.684-1.265-1.11c-0.227,0.44-0.625,0.812-1.195,1.115
			s-1.208,0.485-1.915,0.545c-0.06-0.12-0.148-0.287-0.265-0.5c-0.117-0.213-0.192-0.35-0.226-0.41
			c0.714-0.033,1.339-0.187,1.875-0.46c0.537-0.273,0.882-0.63,1.035-1.07h-2.5v-0.93h6.42v0.93h-2.51
			c0.173,0.427,0.542,0.778,1.104,1.055C116.671,134.683,117.27,134.835,117.904,134.862z M116.273,139.231
			c0-0.22-0.18-0.392-0.54-0.515c-0.359-0.124-0.847-0.185-1.46-0.185c-0.606,0-1.086,0.062-1.439,0.185
			c-0.354,0.123-0.53,0.295-0.53,0.515c0,0.213,0.177,0.38,0.53,0.5c0.354,0.12,0.833,0.18,1.439,0.18c0.613,0,1.101-0.06,1.46-0.18
			C116.093,139.612,116.273,139.445,116.273,139.231z"/>
		<path d="M125.934,132.481c0,1.547-0.097,2.813-0.29,3.8h1.319v0.93h-3.46v3.7h-1.17v-3.7h-3.42v-0.93h5.62
			c0.16-0.773,0.24-1.727,0.24-2.86h-4.87v-0.94H125.934z"/>
		<path d="M132.044,132.542c-0.021,1.193-0.386,2.17-1.096,2.93c-0.71,0.76-1.682,1.287-2.915,1.58l-0.569-0.93
			c0.513-0.086,0.995-0.236,1.444-0.45c0.45-0.213,0.851-0.51,1.2-0.89c0.351-0.38,0.565-0.807,0.646-1.28h-2.86v-0.96H132.044z
			 M134.534,140.802h-5.77v-3.41h5.77V140.802z M133.364,139.892v-1.59h-3.43v1.59H133.364z M135.804,135.021h-1.271v1.94h-1.18
			v-4.96h1.18v2.07h1.271V135.021z"/>
		<path d="M144.264,139.802h-8.05v-0.92h3.41v-2.12h1.18v2.12h3.46V139.802z M144.035,135.952l-0.55,0.92
			c-0.653-0.153-1.299-0.45-1.936-0.89s-1.075-0.937-1.314-1.49c-0.147,0.38-0.403,0.74-0.771,1.08
			c-0.366,0.34-0.765,0.618-1.194,0.835c-0.431,0.217-0.855,0.372-1.275,0.465l-0.53-0.95c0.5-0.073,0.986-0.235,1.46-0.485
			s0.877-0.593,1.21-1.03c0.334-0.437,0.5-0.905,0.5-1.405v-0.54h1.221v0.54c0,0.374,0.102,0.735,0.305,1.085
			c0.203,0.35,0.463,0.65,0.78,0.9c0.316,0.25,0.658,0.46,1.024,0.63C143.332,135.787,143.688,135.898,144.035,135.952z"/>
		<path d="M152.915,136.262v0.92h-8.05v-0.92H152.915z M152.505,134.842l-0.5,0.92c-0.654-0.053-1.272-0.237-1.855-0.55
			c-0.583-0.313-1.002-0.683-1.255-1.11c-0.22,0.44-0.617,0.812-1.19,1.115c-0.573,0.303-1.217,0.485-1.93,0.545l-0.479-0.9
			c0.713-0.034,1.338-0.188,1.875-0.465c0.536-0.276,0.881-0.635,1.034-1.075h-2.51v-0.93h6.42v0.93h-2.5
			c0.167,0.433,0.532,0.787,1.095,1.06C151.273,134.655,151.872,134.808,152.505,134.842z M152.005,139.251
			c0,0.52-0.273,0.927-0.82,1.22c-0.547,0.293-1.311,0.44-2.29,0.44c-0.986,0-1.754-0.147-2.3-0.44c-0.547-0.293-0.82-0.7-0.82-1.22
			c0-0.506,0.273-0.906,0.82-1.2c0.546-0.293,1.31-0.44,2.29-0.44c0.979,0,1.745,0.146,2.295,0.44S152.005,138.745,152.005,139.251z
			 M150.285,139.796c0.347-0.13,0.521-0.308,0.521-0.535s-0.174-0.405-0.521-0.535s-0.813-0.195-1.399-0.195
			c-0.58,0-1.042,0.065-1.386,0.195c-0.343,0.13-0.515,0.309-0.515,0.535s0.172,0.405,0.515,0.535
			c0.344,0.13,0.806,0.195,1.386,0.195C149.471,139.992,149.938,139.927,150.285,139.796z"/>
	</g>
	<g>
		<path d="M249.243,280.176l-0.68,0.88c-0.381-0.233-0.766-0.59-1.155-1.07c-0.39-0.479-0.658-0.943-0.805-1.39
			c-0.147,0.507-0.424,1.012-0.83,1.515c-0.407,0.504-0.841,0.882-1.301,1.135l-0.71-0.859c1.474-0.954,2.21-2.323,2.21-4.11v-1.36
			h1.21v1.301C247.182,277.969,247.87,279.289,249.243,280.176z M251.083,283.075h-1.17v-8.91h1.17V283.075z"/>
		<path d="M256.842,274.846c-0.007,1.227-0.389,2.255-1.146,3.085s-1.715,1.392-2.875,1.685l-0.58-0.93
			c0.801-0.141,1.521-0.469,2.165-0.985s1.035-1.145,1.175-1.885h-2.89v-0.97H256.842z M259.553,282.815h-5.951v-2.87h1.18v1.94
			h4.771V282.815z M260.603,277.665h-1.271v2.95h-1.18v-6.45h1.18v2.54h1.271V277.665z"/>
		<path d="M265.673,282.915c-0.54-0.507-0.983-1.113-1.33-1.819c-0.347-0.707-0.52-1.487-0.52-2.34v-0.181
			c0-0.854,0.173-1.632,0.52-2.335s0.79-1.309,1.33-1.814h0.99c-0.494,0.546-0.894,1.17-1.2,1.869c-0.307,0.7-0.46,1.431-0.46,2.19
			v0.28c0,0.753,0.156,1.498,0.47,2.234c0.313,0.737,0.71,1.375,1.19,1.915H265.673z"/>
		<path d="M267.312,276.535c0-0.593,0.224-1.086,0.671-1.479c0.446-0.394,1.013-0.59,1.699-0.59c0.681,0,1.242,0.193,1.686,0.579
			c0.443,0.387,0.665,0.884,0.665,1.49c0,0.594-0.221,1.073-0.66,1.44c-0.44,0.366-1.004,0.55-1.69,0.55
			c-0.673,0-1.236-0.182-1.689-0.545C267.539,277.617,267.312,277.136,267.312,276.535z M268.833,275.75
			c-0.24,0.217-0.36,0.476-0.36,0.775s0.115,0.547,0.346,0.74c0.229,0.193,0.518,0.29,0.864,0.29c0.354,0,0.641-0.101,0.86-0.3
			c0.22-0.2,0.33-0.443,0.33-0.73c0-0.313-0.106-0.575-0.32-0.785c-0.213-0.21-0.503-0.314-0.87-0.314
			C269.356,275.426,269.073,275.534,268.833,275.75z M274.693,283.006h-6.131v-2.391h4.69v-0.62h-4.74v-0.92h5.9v2.38h-4.68v0.61
			h4.96V283.006z M274.413,278.625h-1.16v-4.46h1.16V278.625z"/>
		<path d="M275.492,282.915c0.493-0.54,0.894-1.161,1.2-1.864c0.307-0.704,0.46-1.436,0.46-2.195v-0.29
			c0-0.747-0.155-1.49-0.465-2.23c-0.311-0.739-0.709-1.376-1.195-1.909h0.99c0.533,0.506,0.974,1.113,1.32,1.819
			c0.346,0.707,0.52,1.483,0.52,2.33v0.181c0,0.853-0.174,1.633-0.52,2.34c-0.347,0.706-0.787,1.312-1.32,1.819H275.492z"/>
	</g>
	<g>
		<path d="M14.064,174.229l-8.232-3v-1.512l8.232-2.928v1.523l-2.088,0.744v3.061l2.088,0.743V174.229z M7.584,170.617l3.288,1.151
			v-2.34l-3.288,1.152V170.617z"/>
		<path d="M14.064,165.613H5.832v-1.656l5.808-3.42v-0.036H5.832v-1.308h8.232v1.464l-6.204,3.611v0.036h6.204V165.613z"/>
		<path d="M14.196,153.974c0,1.168-0.346,2.078-1.038,2.729c-0.692,0.652-1.718,0.979-3.078,0.979h-0.3
			c-1.4,0-2.43-0.356-3.09-1.068c-0.66-0.712-0.99-1.644-0.99-2.796c0-0.848,0.144-1.536,0.432-2.064h1.152
			c-0.256,0.648-0.384,1.301-0.384,1.956c0,1.584,0.908,2.376,2.724,2.376h0.42c0.977,0,1.712-0.188,2.208-0.563
			c0.496-0.376,0.744-0.984,0.744-1.824c0-0.64-0.148-1.315-0.444-2.028h1.14C14.028,152.302,14.196,153.069,14.196,153.974z"/>
		<path d="M6.864,147.205h-1.26v-1.404h1.26V147.205z M14.064,147.205h-6.18v-1.393h6.18V147.205z"/>
		<path d="M14.064,144.145h-6.18v-1.332h0.552v-0.048c-0.44-0.607-0.66-1.284-0.66-2.027c0-0.608,0.134-1.061,0.402-1.356
			s0.702-0.444,1.302-0.444h4.584v1.393h-4.26c-0.32,0-0.546,0.072-0.678,0.216c-0.132,0.144-0.198,0.42-0.198,0.828
			c0,0.464,0.112,0.928,0.336,1.392h4.8V144.145z"/>
		<path d="M14.172,131.581c0,0.928-0.26,1.652-0.78,2.172c-0.52,0.521-1.28,0.78-2.28,0.78H10.92c-1.024,0-1.804-0.278-2.34-0.834
			c-0.536-0.557-0.804-1.282-0.804-2.179c0-0.68,0.124-1.247,0.372-1.703h1.08c-0.224,0.567-0.336,1.107-0.336,1.619
			c0,0.521,0.162,0.929,0.486,1.225c0.324,0.296,0.791,0.443,1.398,0.443h0.276c0.696,0,1.206-0.144,1.53-0.432
			c0.324-0.288,0.486-0.731,0.486-1.332c0-0.504-0.128-1.032-0.384-1.584h1.008C14.012,130.261,14.172,130.869,14.172,131.581z"/>
		<path d="M15.84,127.849c0,0.393-0.068,0.692-0.204,0.9h-0.924c0.04-0.176,0.06-0.376,0.06-0.6c0-0.305-0.052-0.546-0.156-0.727
			c-0.104-0.18-0.296-0.321-0.576-0.426l-0.432-0.168l-5.724,2.328v-1.464l4.008-1.561v-0.048l-4.008-1.439v-1.332l6.348,2.388
			c0.584,0.2,0.998,0.464,1.242,0.792S15.84,127.273,15.84,127.849z"/>
		<path d="M14.172,119.665c0,0.928-0.26,1.652-0.78,2.172c-0.52,0.521-1.28,0.78-2.28,0.78H10.92c-1.024,0-1.804-0.278-2.34-0.834
			c-0.536-0.557-0.804-1.282-0.804-2.179c0-0.68,0.124-1.247,0.372-1.703h1.08c-0.224,0.567-0.336,1.107-0.336,1.619
			c0,0.521,0.162,0.929,0.486,1.225c0.324,0.296,0.791,0.443,1.398,0.443h0.276c0.696,0,1.206-0.144,1.53-0.432
			c0.324-0.288,0.486-0.731,0.486-1.332c0-0.504-0.128-1.032-0.384-1.584h1.008C14.012,118.345,14.172,118.953,14.172,119.665z"/>
		<path d="M14.064,116.617H5.292v-1.393h8.772V116.617z"/>
		<path d="M14.172,110.845c0,1.009-0.272,1.771-0.816,2.286c-0.544,0.517-1.312,0.774-2.304,0.774h-0.168
			c-1,0-1.766-0.266-2.298-0.798c-0.532-0.532-0.798-1.21-0.798-2.034c0-0.896,0.248-1.556,0.744-1.98
			c0.496-0.424,1.244-0.636,2.244-0.636h0.576v4.032c0.624-0.04,1.07-0.218,1.338-0.534c0.269-0.316,0.402-0.778,0.402-1.386
			c0-0.68-0.152-1.316-0.456-1.908h0.96C13.98,109.245,14.172,109.974,14.172,110.845z M8.808,111.097
			c0,0.849,0.532,1.312,1.596,1.393v-2.628c-0.568,0-0.976,0.102-1.224,0.306S8.808,110.682,8.808,111.097z"/>
		<path d="M14.112,103.009H7.344l0.276,1.38H6.756l-0.936-2.088v-0.78h8.292V103.009z"/>
		<path d="M15.684,99.997l-2.424-0.48v-1.512l2.424,0.864V99.997z"/>
		<path d="M14.064,93.937l-3.168-2.016l-3.012,1.908v-1.597l2.136-1.308l-2.136-1.188v-1.428l3,1.824l3.18-1.992v1.62l-2.244,1.356
			l2.244,1.38V93.937z"/>
		<path d="M14.112,82.908H7.344l0.276,1.38H6.756L5.82,82.2v-0.78h8.292V82.908z"/>
		<path d="M14.208,76.404c0,0.96-0.326,1.732-0.978,2.315c-0.652,0.585-1.642,0.876-2.97,0.876H9.744
			c-0.712,0-1.332-0.085-1.86-0.258c-0.528-0.172-0.944-0.409-1.248-0.714c-0.304-0.304-0.528-0.642-0.672-1.014
			c-0.144-0.372-0.216-0.778-0.216-1.218c0-0.937,0.32-1.698,0.96-2.286c0.64-0.588,1.64-0.882,3-0.882h0.516
			c1.36,0,2.364,0.296,3.012,0.888S14.208,75.468,14.208,76.404z M13.08,76.404c0-0.56-0.218-0.977-0.654-1.248
			c-0.436-0.272-1.138-0.408-2.106-0.408H9.708c-1.88,0-2.82,0.548-2.82,1.645c0,0.567,0.218,0.987,0.654,1.26
			c0.437,0.271,1.13,0.408,2.082,0.408h0.636C12.14,78.061,13.08,77.508,13.08,76.404z"/>
		<path d="M5.432,70.613c0-0.574,0.182-1.016,0.545-1.326c0.364-0.31,0.884-0.465,1.56-0.465h0.322c1.665,0,2.498,0.672,2.498,2.015
			c0,0.443-0.1,0.833-0.301,1.169l-0.629-0.147c0.061-0.107,0.115-0.257,0.165-0.447c0.049-0.191,0.073-0.366,0.073-0.525
			c0-0.382-0.108-0.676-0.325-0.881s-0.61-0.317-1.179-0.336c0.284,0.312,0.427,0.688,0.427,1.126c0,0.415-0.135,0.757-0.406,1.025
			c-0.271,0.268-0.632,0.402-1.084,0.402c-0.49,0-0.89-0.141-1.2-0.42C5.587,71.522,5.432,71.126,5.432,70.613z M6.069,70.592
			c0,0.257,0.086,0.455,0.259,0.595c0.172,0.141,0.408,0.21,0.707,0.21c0.308,0,0.54-0.078,0.696-0.234
			c0.157-0.156,0.234-0.362,0.234-0.619c0-0.168-0.046-0.332-0.14-0.493s-0.203-0.285-0.329-0.374H7.377
			C6.505,69.676,6.069,69.981,6.069,70.592z"/>
		<path d="M15.312,68.446L5.124,65.578v-1.2l10.188,2.856V68.446z"/>
		<path d="M14.064,63.19H5.832v-1.477H12.9v-3.479h1.164V63.19z"/>
	</g>
	<line fill="none" stroke="#000000" stroke-miterlimit="10" x1="47.911" y1="73.008" x2="54.466" y2="73.008"/>
	<line fill="none" stroke="#000000" stroke-miterlimit="10" x1="47.911" y1="129.428" x2="54.466" y2="129.428"/>
	<line fill="none" stroke="#000000" stroke-miterlimit="10" x1="47.911" y1="185.847" x2="54.466" y2="185.847"/>
	<line fill="none" stroke="#000000" stroke-miterlimit="10" x1="47.911" y1="16.76" x2="54.46" y2="16.419"/>
	<line fill="none" stroke="#000000" stroke-miterlimit="10" x1="47.911" y1="242.267" x2="57.467" y2="242.267"/>
	<g>
		<path d="M25.134,18.616v-4.512l-0.92,0.184v-0.576l1.393-0.624h0.52v5.528H25.134z"/>
		<path d="M29.47,18.68c-0.64,0-1.154-0.217-1.544-0.652c-0.389-0.435-0.584-1.095-0.584-1.98v-0.344
			c0-0.475,0.058-0.888,0.172-1.24c0.115-0.352,0.273-0.629,0.477-0.832c0.202-0.203,0.428-0.352,0.676-0.448
			s0.519-0.144,0.812-0.144c0.624,0,1.132,0.213,1.523,0.64c0.393,0.427,0.588,1.093,0.588,2v0.344c0,0.907-0.197,1.576-0.592,2.008
			C30.604,18.463,30.094,18.68,29.47,18.68z M29.47,17.928c0.374,0,0.651-0.146,0.832-0.436c0.182-0.291,0.272-0.759,0.272-1.404
			V15.68c0-1.253-0.365-1.88-1.096-1.88c-0.379,0-0.659,0.145-0.841,0.436c-0.181,0.291-0.271,0.753-0.271,1.388v0.424
			C28.367,17.301,28.735,17.928,29.47,17.928z"/>
		<path d="M34.638,18.68c-0.64,0-1.154-0.217-1.544-0.652c-0.389-0.435-0.584-1.095-0.584-1.98v-0.344
			c0-0.475,0.058-0.888,0.172-1.24c0.115-0.352,0.273-0.629,0.477-0.832c0.202-0.203,0.428-0.352,0.676-0.448
			s0.519-0.144,0.812-0.144c0.624,0,1.132,0.213,1.523,0.64c0.393,0.427,0.588,1.093,0.588,2v0.344c0,0.907-0.197,1.576-0.592,2.008
			C35.772,18.463,35.262,18.68,34.638,18.68z M34.638,17.928c0.374,0,0.651-0.146,0.832-0.436c0.182-0.291,0.272-0.759,0.272-1.404
			V15.68c0-1.253-0.365-1.88-1.096-1.88c-0.379,0-0.659,0.145-0.841,0.436c-0.181,0.291-0.271,0.753-0.271,1.388v0.424
			C33.535,17.301,33.903,17.928,34.638,17.928z"/>
		<path d="M37.766,18.711v-0.936h0.977v0.936H37.766z"/>
		<path d="M41.814,18.68c-0.64,0-1.154-0.217-1.544-0.652c-0.389-0.435-0.584-1.095-0.584-1.98v-0.344
			c0-0.475,0.058-0.888,0.172-1.24c0.115-0.352,0.273-0.629,0.477-0.832c0.202-0.203,0.428-0.352,0.676-0.448
			s0.519-0.144,0.812-0.144c0.624,0,1.132,0.213,1.523,0.64c0.393,0.427,0.588,1.093,0.588,2v0.344c0,0.907-0.197,1.576-0.592,2.008
			C42.948,18.463,42.438,18.68,41.814,18.68z M41.814,17.928c0.374,0,0.651-0.146,0.832-0.436c0.182-0.291,0.272-0.759,0.272-1.404
			V15.68c0-1.253-0.365-1.88-1.096-1.88c-0.379,0-0.659,0.145-0.841,0.436c-0.181,0.291-0.271,0.753-0.271,1.388v0.424
			C40.71,17.301,41.079,17.928,41.814,17.928z"/>
	</g>
	<g>
		<path d="M30.79,74.516v-4.512l-0.92,0.184v-0.576l1.393-0.624h0.52v5.528H30.79z"/>
		<path d="M35.126,74.58c-0.64,0-1.154-0.217-1.544-0.652c-0.389-0.435-0.584-1.095-0.584-1.98v-0.344
			c0-0.475,0.058-0.888,0.172-1.24c0.115-0.352,0.273-0.629,0.477-0.832c0.202-0.203,0.428-0.352,0.676-0.448
			s0.519-0.144,0.812-0.144c0.624,0,1.132,0.213,1.523,0.64c0.393,0.427,0.588,1.093,0.588,2v0.344c0,0.907-0.197,1.576-0.592,2.008
			C36.26,74.364,35.75,74.58,35.126,74.58z M35.126,73.828c0.374,0,0.651-0.146,0.832-0.436c0.182-0.291,0.272-0.759,0.272-1.404
			V71.58c0-1.253-0.365-1.88-1.096-1.88c-0.379,0-0.659,0.145-0.841,0.436c-0.181,0.291-0.271,0.753-0.271,1.388v0.424
			C34.022,73.201,34.391,73.828,35.126,73.828z"/>
		<path d="M38.254,74.612v-0.936h0.977v0.936H38.254z"/>
		<path d="M42.302,74.58c-0.64,0-1.154-0.217-1.544-0.652c-0.389-0.435-0.584-1.095-0.584-1.98v-0.344
			c0-0.475,0.058-0.888,0.172-1.24c0.115-0.352,0.273-0.629,0.477-0.832c0.202-0.203,0.428-0.352,0.676-0.448
			s0.519-0.144,0.812-0.144c0.624,0,1.132,0.213,1.523,0.64c0.393,0.427,0.588,1.093,0.588,2v0.344c0,0.907-0.197,1.576-0.592,2.008
			C43.436,74.364,42.926,74.58,42.302,74.58z M42.302,73.828c0.374,0,0.651-0.146,0.832-0.436c0.182-0.291,0.272-0.759,0.272-1.404
			V71.58c0-1.253-0.365-1.88-1.096-1.88c-0.379,0-0.659,0.145-0.841,0.436c-0.181,0.291-0.271,0.753-0.271,1.388v0.424
			C41.198,73.201,41.566,73.828,42.302,73.828z"/>
	</g>
	<g>
		<path d="M34.982,131.706v-4.512l-0.92,0.184v-0.576l1.393-0.624h0.52v5.528H34.982z"/>
		<path d="M37.278,131.801v-0.936h0.977v0.936H37.278z"/>
		<path d="M41.326,131.77c-0.64,0-1.154-0.217-1.544-0.652c-0.389-0.435-0.584-1.095-0.584-1.98v-0.344
			c0-0.475,0.058-0.888,0.172-1.24c0.115-0.352,0.273-0.629,0.477-0.832c0.202-0.203,0.428-0.352,0.676-0.448
			s0.519-0.144,0.812-0.144c0.624,0,1.132,0.213,1.523,0.64c0.393,0.427,0.588,1.093,0.588,2v0.344c0,0.907-0.197,1.576-0.592,2.008
			C42.46,131.553,41.95,131.77,41.326,131.77z M41.326,131.018c0.374,0,0.651-0.146,0.832-0.436
			c0.182-0.291,0.272-0.759,0.272-1.404v-0.408c0-1.253-0.365-1.88-1.096-1.88c-0.379,0-0.659,0.145-0.841,0.436
			c-0.181,0.291-0.271,0.753-0.271,1.388v0.424C40.223,130.391,40.591,131.018,41.326,131.018z"/>
	</g>
	<g>
		<path d="M34.725,148.028c-0.64,0-1.154-0.217-1.544-0.652c-0.389-0.435-0.584-1.095-0.584-1.98v-0.344
			c0-0.475,0.058-0.888,0.172-1.24c0.115-0.352,0.273-0.629,0.477-0.832c0.202-0.203,0.428-0.352,0.676-0.448
			s0.519-0.144,0.812-0.144c0.624,0,1.132,0.213,1.523,0.64c0.393,0.427,0.588,1.093,0.588,2v0.344c0,0.907-0.197,1.576-0.592,2.008
			C35.859,147.812,35.349,148.028,34.725,148.028z M34.725,147.276c0.374,0,0.651-0.146,0.832-0.436
			c0.182-0.291,0.272-0.759,0.272-1.404v-0.408c0-1.253-0.365-1.88-1.096-1.88c-0.379,0-0.659,0.145-0.841,0.436
			c-0.181,0.291-0.271,0.753-0.271,1.388v0.424C33.622,146.649,33.99,147.276,34.725,147.276z"/>
		<path d="M37.853,148.06v-0.936h0.977v0.936H37.853z"/>
		<path d="M41.149,148.012c-0.629,0-1.149-0.125-1.56-0.376l0.176-0.752c0.368,0.219,0.747,0.328,1.136,0.328
			c0.385,0,0.685-0.089,0.9-0.268s0.324-0.433,0.324-0.764c0-0.656-0.395-0.984-1.185-0.984c-0.347,0-0.717,0.099-1.111,0.296
			l0.2-3.016h2.863v0.768h-2.111l-0.104,1.336c0.245-0.064,0.475-0.096,0.688-0.096c0.56,0,0.995,0.144,1.308,0.432
			c0.312,0.288,0.468,0.718,0.468,1.288c0,0.523-0.18,0.955-0.54,1.296C42.242,147.841,41.757,148.012,41.149,148.012z"/>
	</g>
	<g>
		<path d="M36.318,189.261c-0.64,0-1.154-0.217-1.544-0.652c-0.389-0.435-0.584-1.095-0.584-1.98v-0.344
			c0-0.475,0.058-0.888,0.172-1.24c0.115-0.352,0.273-0.629,0.477-0.832c0.202-0.203,0.428-0.352,0.676-0.448
			s0.519-0.144,0.812-0.144c0.624,0,1.132,0.213,1.523,0.64c0.393,0.427,0.588,1.093,0.588,2v0.344c0,0.907-0.197,1.576-0.592,2.008
			C37.452,189.044,36.942,189.261,36.318,189.261z M36.318,188.509c0.374,0,0.651-0.146,0.832-0.436
			c0.182-0.291,0.272-0.759,0.272-1.404v-0.408c0-1.253-0.365-1.88-1.096-1.88c-0.379,0-0.659,0.145-0.841,0.436
			c-0.181,0.291-0.271,0.753-0.271,1.388v0.424C35.214,187.882,35.583,188.509,36.318,188.509z"/>
		<path d="M39.446,189.292v-0.936h0.977v0.936H39.446z"/>
		<path d="M42.158,189.197v-4.512l-0.92,0.184v-0.576l1.393-0.624h0.52v5.528H42.158z"/>
	</g>
	<g>
		<path d="M31.638,244.105c-0.64,0-1.154-0.217-1.544-0.652c-0.389-0.435-0.584-1.095-0.584-1.98v-0.344
			c0-0.475,0.058-0.888,0.172-1.24c0.115-0.352,0.273-0.629,0.477-0.832c0.202-0.203,0.428-0.352,0.676-0.448
			s0.519-0.144,0.812-0.144c0.624,0,1.132,0.213,1.523,0.64c0.393,0.427,0.588,1.093,0.588,2v0.344c0,0.907-0.197,1.576-0.592,2.008
			C32.771,243.889,32.262,244.105,31.638,244.105z M31.638,243.354c0.374,0,0.651-0.146,0.832-0.436
			c0.182-0.291,0.272-0.759,0.272-1.404v-0.408c0-1.253-0.365-1.88-1.096-1.88c-0.379,0-0.659,0.145-0.841,0.436
			c-0.181,0.291-0.271,0.753-0.271,1.388v0.424C30.534,242.727,30.902,243.354,31.638,243.354z"/>
		<path d="M34.766,244.137v-0.936h0.977v0.936H34.766z"/>
		<path d="M38.813,244.105c-0.64,0-1.154-0.217-1.544-0.652c-0.389-0.435-0.584-1.095-0.584-1.98v-0.344
			c0-0.475,0.058-0.888,0.172-1.24c0.115-0.352,0.273-0.629,0.477-0.832c0.202-0.203,0.428-0.352,0.676-0.448
			s0.519-0.144,0.812-0.144c0.624,0,1.132,0.213,1.523,0.64c0.393,0.427,0.588,1.093,0.588,2v0.344c0,0.907-0.197,1.576-0.592,2.008
			C39.947,243.889,39.438,244.105,38.813,244.105z M38.813,243.354c0.374,0,0.651-0.146,0.832-0.436
			c0.182-0.291,0.272-0.759,0.272-1.404v-0.408c0-1.253-0.365-1.88-1.096-1.88c-0.379,0-0.659,0.145-0.841,0.436
			c-0.181,0.291-0.271,0.753-0.271,1.388v0.424C37.71,242.727,38.078,243.354,38.813,243.354z"/>
		<path d="M42.646,244.042v-4.512l-0.92,0.184v-0.576l1.393-0.624h0.52v5.528H42.646z"/>
	</g>
	<g>
		<path d="M128.732,8.5c-1.047,0-1.856-0.275-2.43-0.825c-0.574-0.55-0.86-1.408-0.86-2.575V4.89c0-0.626,0.09-1.171,0.271-1.635
			c0.18-0.463,0.43-0.825,0.75-1.085c0.319-0.26,0.673-0.45,1.06-0.57c0.387-0.12,0.813-0.18,1.28-0.18
			c0.746,0,1.373,0.133,1.88,0.4V2.8c-0.58-0.253-1.197-0.38-1.851-0.38c-1.393,0-2.09,0.79-2.09,2.37V5.1
			c0,0.787,0.142,1.389,0.425,1.805c0.284,0.417,0.802,0.625,1.556,0.625c0.387,0,0.736-0.05,1.05-0.15V5.82h-1.271V4.9h2.471v3.18
			C130.279,8.36,129.532,8.5,128.732,8.5z"/>
		<path d="M132.122,6.1V5.14h2.75V6.1H132.122z"/>
		<path d="M138.882,8.5c-0.974,0-1.731-0.289-2.274-0.865c-0.544-0.577-0.815-1.432-0.815-2.565V4.82
			c0-1.167,0.297-2.025,0.89-2.575c0.594-0.55,1.37-0.825,2.33-0.825c0.707,0,1.28,0.12,1.721,0.36v0.96
			c-0.54-0.213-1.084-0.32-1.631-0.32c-1.319,0-1.979,0.757-1.979,2.27v0.35c0,0.813,0.156,1.426,0.47,1.84s0.82,0.62,1.521,0.62
			c0.533,0,1.097-0.124,1.689-0.37v0.95C140.275,8.36,139.636,8.5,138.882,8.5z"/>
		<path d="M145.468,7.955c-0.41,0.37-1.022,0.555-1.835,0.555c-0.813,0-1.497-0.146-2.051-0.44V7.1c0.641,0.28,1.29,0.42,1.95,0.42
			c0.873,0,1.311-0.333,1.311-1c0-0.28-0.072-0.49-0.216-0.63c-0.143-0.14-0.404-0.27-0.784-0.39l-0.65-0.18
			c-0.514-0.146-0.901-0.37-1.165-0.67c-0.264-0.3-0.395-0.727-0.395-1.28c0-0.6,0.194-1.075,0.585-1.425
			c0.39-0.35,0.961-0.525,1.715-0.525c0.713,0,1.303,0.124,1.77,0.37v0.96c-0.54-0.227-1.123-0.34-1.75-0.34
			c-0.359,0-0.637,0.074-0.83,0.22s-0.29,0.356-0.29,0.63s0.062,0.479,0.186,0.615c0.123,0.137,0.354,0.251,0.694,0.345l0.641,0.2
			c0.586,0.167,1.021,0.395,1.305,0.685s0.425,0.722,0.425,1.295C146.082,7.067,145.877,7.585,145.468,7.955z"/>
		<path d="M147.322,8.39V1.53h4.21V2.5h-2.979v2.05h2.32V5.5h-2.32v2.89H147.322z"/>
		<path d="M162.922,6.86h-8.05V5.95h3.42v-0.41c-0.727-0.047-1.274-0.179-1.645-0.395c-0.37-0.217-0.556-0.492-0.556-0.825
			c0-0.387,0.235-0.693,0.705-0.92c0.471-0.227,1.172-0.34,2.105-0.34c0.927,0,1.625,0.114,2.095,0.34s0.705,0.533,0.705,0.92
			c0,0.333-0.188,0.61-0.564,0.83c-0.377,0.22-0.936,0.354-1.676,0.4v0.4h3.46V6.86z M162.422,2.85h-7.05V1.96h7.05V2.85z
			 M155.742,7.291h6.14v2.32h-1.159V8.19h-4.98V7.291z M160.513,4.32c0-0.3-0.537-0.45-1.61-0.45s-1.61,0.15-1.61,0.45
			c0,0.293,0.537,0.44,1.61,0.44S160.513,4.614,160.513,4.32z M157.312,1.62V0.76h3.149v0.86H157.312z"/>
		<path d="M171.571,6.1h-8.05V5.16h8.05V6.1z M170.662,2.791c0,0.533-0.279,0.966-0.835,1.3c-0.558,0.333-1.315,0.5-2.275,0.5
			s-1.717-0.167-2.271-0.5c-0.553-0.333-0.829-0.767-0.829-1.3c0-0.52,0.276-0.947,0.829-1.28c0.554-0.333,1.307-0.5,2.261-0.5
			c0.96,0,1.72,0.167,2.279,0.5C170.382,1.844,170.662,2.271,170.662,2.791z M170.642,9.35h-6.13v-2.6h1.17v1.68h4.96V9.35z
			 M169.452,2.81c0-0.273-0.172-0.491-0.516-0.655c-0.344-0.163-0.809-0.245-1.395-0.245c-0.574,0-1.032,0.082-1.375,0.245
			c-0.344,0.164-0.516,0.382-0.516,0.655c0,0.26,0.172,0.47,0.516,0.63c0.343,0.16,0.801,0.24,1.375,0.24
			c0.586,0,1.051-0.08,1.395-0.24C169.28,3.28,169.452,3.07,169.452,2.81z"/>
		<path d="M182.852,5.521h-8.05V4.58h8.05V5.521z M182.042,1.8h-6.47V0.88h6.47V1.8z M182.021,4.16h-6.42V3.24h1.24l-0.18-1.03
			l1.14-0.16l0.141,1.19h1.75l0.189-1.19l1.13,0.16l-0.229,1.03h1.239V4.16z M182.102,9.55h-6.31V7.36h4.88V6.94h-4.9v-0.92h6.061
			v2.16h-4.87v0.41h5.14V9.55z"/>
		<path d="M188.711,7.271c-0.973,0.187-2.296,0.28-3.97,0.28h-0.939v-3.7h2.89V2.37h-2.93V1.44h4.1v3.34h-2.89v1.81
			c1.479,0,2.693-0.086,3.64-0.26L188.711,7.271z M190.411,0.68V4.1h1.25v0.96h-1.25v4.53h-1.17V0.68H190.411z"/>
		<path d="M197.632,6.69l-0.68,0.88c-0.381-0.233-0.766-0.59-1.155-1.07s-0.658-0.943-0.805-1.39
			c-0.147,0.507-0.424,1.012-0.83,1.515c-0.407,0.503-0.841,0.881-1.301,1.135l-0.71-0.86c1.474-0.954,2.21-2.323,2.21-4.11V1.43
			h1.21v1.3C195.571,4.484,196.259,5.804,197.632,6.69z M199.472,9.59h-1.17V0.68h1.17V9.59z"/>
		<path d="M208.802,8.48h-8.05V7.55h3.42V5.82h-2.45v-4.53h1.16v1.38h3.79v-1.4h1.17v4.55h-2.5v1.73h3.46V8.48z M206.672,4.89V3.57
			h-3.79v1.32H206.672z"/>
		<path d="M216.622,9.6h-1.17V6.75h-3.42V5.82h8.05v0.93h-3.46V9.6z M218.782,3.58h-4.56v0.61h4.93v0.93h-6.09V1.1h6.02v0.94h-4.859
			v0.62h4.56V3.58z"/>
		<path d="M220.731,4.48c0-0.96,0.204-1.732,0.61-2.315c0.406-0.583,0.967-0.875,1.68-0.875c0.721,0,1.283,0.292,1.69,0.875
			c0.406,0.583,0.61,1.355,0.61,2.315c0,0.947-0.204,1.711-0.61,2.295c-0.407,0.583-0.97,0.875-1.69,0.875
			c-0.713,0-1.273-0.29-1.68-0.87S220.731,5.434,220.731,4.48z M224.202,4.48c0-0.693-0.108-1.242-0.325-1.645
			s-0.502-0.605-0.855-0.605c-0.34,0-0.616,0.202-0.83,0.605c-0.213,0.403-0.319,0.952-0.319,1.645c0,0.687,0.106,1.23,0.319,1.63
			c0.214,0.4,0.49,0.6,0.83,0.6c0.354,0,0.639-0.2,0.855-0.6S224.202,5.167,224.202,4.48z M225.562,6.3l0.04-1h1.28V3.43h-1.28
			l-0.04-0.99h1.32V0.68h1.17v8.91h-1.17V6.3H225.562z"/>
	</g>
</g>
<g>
</g>
<g>
</g>
<g>
</g>
<g>
</g>
<g>
</g>
<g>
</g>
<g>
</g>
<g>
</g>
</svg>
