<?xml version="1.0" encoding="utf-8"?>
<!-- Generator: Adobe Illustrator 28.0.0, SVG Export Plug-In . SVG Version: 6.00 Build 0)  -->
<svg version="1.1" id="레이어_1" xmlns="http://www.w3.org/2000/svg" xmlns:xlink="http://www.w3.org/1999/xlink" x="0px"
	 y="0px" viewBox="0 0 236.71 190.491" enable-background="new 0 0 236.71 190.491" xml:space="preserve">
<g>
	<g>
		<polygon fill-rule="evenodd" clip-rule="evenodd" fill="#5893C9" points="52.416,183.886 55.719,183.886 55.719,187.189 
			52.416,187.189 52.416,183.886 		"/>
	</g>
	<g>
		<defs>
			<polygon id="SVGID_1_" points="2.718,190.491 129.662,190.491 129.662,181.148 2.718,181.148 2.718,190.491 			"/>
		</defs>
		<clipPath id="SVGID_00000127743492090963165710000004581497414722289855_">
			<use xlink:href="#SVGID_1_"  overflow="visible"/>
		</clipPath>
		<g clip-path="url(#SVGID_00000127743492090963165710000004581497414722289855_)">
			<defs>
				<rect id="SVGID_00000094578675774653455820000016062073537042694020_" x="2.718" y="181.148" width="126.943" height="9.343"/>
			</defs>
			<clipPath id="SVGID_00000129183707593409731950000004648261025218424241_">
				<use xlink:href="#SVGID_00000094578675774653455820000016062073537042694020_"  overflow="visible"/>
			</clipPath>
			<g clip-path="url(#SVGID_00000129183707593409731950000004648261025218424241_)">
				<path fill="#595959" d="M59.489,184.24c0.22,0.25,0.33,0.554,0.33,0.912s-0.109,0.664-0.326,0.918
					c-0.218,0.254-0.514,0.381-0.889,0.381c-0.37,0-0.666-0.127-0.888-0.381s-0.332-0.56-0.332-0.918s0.11-0.662,0.332-0.912
					s0.518-0.375,0.888-0.375C58.976,183.865,59.271,183.99,59.489,184.24z M62.084,188.45l-0.302,0.49
					c-0.358-0.069-0.712-0.22-1.061-0.453c-0.348-0.234-0.585-0.474-0.709-0.72c-0.105,0.254-0.332,0.497-0.68,0.729
					c-0.349,0.231-0.714,0.378-1.097,0.438l-0.296-0.489c0.459-0.052,0.867-0.218,1.227-0.498c0.358-0.28,0.537-0.604,0.537-0.97
					v-0.193h0.641v0.193c0,0.362,0.177,0.681,0.531,0.954C61.23,188.205,61.633,188.377,62.084,188.45z M59.239,185.152
					c0-0.218-0.06-0.4-0.179-0.55c-0.118-0.149-0.271-0.224-0.456-0.224s-0.337,0.074-0.456,0.224s-0.178,0.332-0.178,0.55
					c0,0.222,0.059,0.406,0.178,0.556s0.271,0.224,0.456,0.224s0.338-0.074,0.456-0.224
					C59.18,185.558,59.239,185.374,59.239,185.152z M61.849,187h-0.598v-1.68h-0.472v1.227h-0.58v-2.954h0.58v1.214h0.472v-1.311
					h0.598V187z"/>
				<path fill="#595959" d="M65.347,183.908c-0.012,0.713-0.233,1.326-0.665,1.842c-0.431,0.516-1.011,0.891-1.739,1.124
					l-0.32-0.483c0.713-0.189,1.259-0.529,1.637-1.021l-1.498,0.169l-0.12-0.514l1.902-0.151c0.053-0.137,0.095-0.285,0.127-0.446
					h-1.788v-0.52H65.347z M67.123,188.74h-3.649v-1.679h0.622v1.184h3.027V188.74z M66.972,187.399h-0.616v-3.902h0.616V187.399z"
					/>
				<path fill="#595959" d="M72.632,188.167H67.77v-0.496h4.862V188.167z M72.505,186.003l-0.326,0.483
					c-0.414-0.108-0.815-0.303-1.202-0.583s-0.646-0.577-0.779-0.891c-0.12,0.322-0.375,0.622-0.764,0.899
					c-0.389,0.278-0.797,0.47-1.224,0.574l-0.302-0.508c0.302-0.048,0.602-0.152,0.9-0.313c0.298-0.161,0.552-0.376,0.761-0.644
					s0.314-0.549,0.314-0.843v-0.356h0.646v0.356c0,0.29,0.109,0.571,0.329,0.843c0.219,0.271,0.478,0.49,0.776,0.655
					C71.934,185.842,72.224,185.952,72.505,186.003z"/>
			</g>
		</g>
	</g>
	<g>
		<polygon fill-rule="evenodd" clip-rule="evenodd" fill="#E37933" points="78.514,183.886 81.816,183.886 81.816,187.189 
			78.514,187.189 78.514,183.886 		"/>
	</g>
	<g>
		<defs>
			<polygon id="SVGID_00000180366954091490593420000005799747795878962609_" points="17.458,190.491 170.902,190.491 
				170.902,181.148 17.458,181.148 17.458,190.491 			"/>
		</defs>
		<clipPath id="SVGID_00000072277893403028437150000017473197964869981335_">
			<use xlink:href="#SVGID_00000180366954091490593420000005799747795878962609_"  overflow="visible"/>
		</clipPath>
		<g clip-path="url(#SVGID_00000072277893403028437150000017473197964869981335_)">
			<defs>
				<rect id="SVGID_00000111164286390182316870000005378311692447241376_" x="17.458" y="181.148" width="153.444" height="9.343"/>
			</defs>
			<clipPath id="SVGID_00000139251746118028501940000002942255537881220998_">
				<use xlink:href="#SVGID_00000111164286390182316870000005378311692447241376_"  overflow="visible"/>
			</clipPath>
			<g clip-path="url(#SVGID_00000139251746118028501940000002942255537881220998_)">
				<path fill="#595959" d="M88.264,186.862h-4.862v-0.502h2.114v-0.773h0.616v0.773h2.132V186.862z M88.059,185.387l-0.271,0.495
					c-0.411-0.056-0.804-0.183-1.179-0.38c-0.374-0.197-0.632-0.421-0.772-0.671c-0.121,0.262-0.364,0.489-0.729,0.683
					s-0.771,0.316-1.217,0.368l-0.267-0.482c0.476-0.032,0.896-0.153,1.263-0.363c0.367-0.209,0.574-0.471,0.623-0.785h-1.655
					v-0.501h3.963v0.501h-1.644c0.04,0.21,0.163,0.401,0.368,0.574c0.206,0.173,0.443,0.306,0.713,0.398
					C87.525,185.317,87.793,185.372,88.059,185.387z M87.714,188.728h-3.69v-1.547h0.622v1.052h3.068V188.728z"/>
			</g>
		</g>
	</g>
	<g>
		<defs>
			<polygon id="SVGID_00000114755865080145438730000013848482632622423218_" points="17.458,190.491 170.902,190.491 
				170.902,181.148 17.458,181.148 17.458,190.491 			"/>
		</defs>
		<clipPath id="SVGID_00000039826293766424860980000000923721463057440667_">
			<use xlink:href="#SVGID_00000114755865080145438730000013848482632622423218_"  overflow="visible"/>
		</clipPath>
		<g clip-path="url(#SVGID_00000039826293766424860980000000923721463057440667_)">
			<defs>
				<rect id="SVGID_00000156559540780666915610000015940345017876095650_" x="17.458" y="181.148" width="153.444" height="9.343"/>
			</defs>
			<clipPath id="SVGID_00000048461576798027819220000017498390234355025079_">
				<use xlink:href="#SVGID_00000156559540780666915610000015940345017876095650_"  overflow="visible"/>
			</clipPath>
			<g clip-path="url(#SVGID_00000048461576798027819220000017498390234355025079_)">
				<path fill="#595959" d="M90.676,188.777c-0.322-0.307-0.586-0.674-0.789-1.103c-0.203-0.43-0.305-0.899-0.305-1.411v-0.103
					c0-0.512,0.102-0.979,0.305-1.401s0.467-0.792,0.789-1.105h0.525c-0.299,0.33-0.541,0.707-0.729,1.13
					c-0.187,0.423-0.28,0.863-0.28,1.322v0.163c0,0.451,0.095,0.9,0.283,1.348c0.189,0.447,0.432,0.833,0.726,1.16H90.676z"/>
				<path fill="#595959" d="M91.484,188.148v-0.465l2.163-3.136v-0.018h-2.012v-0.52h2.755v0.459l-2.169,3.142v0.018h2.103v0.52
					H91.484z"/>
				<path fill="#595959" d="M96.228,188.203c-0.455,0-0.808-0.134-1.058-0.402c-0.25-0.268-0.374-0.643-0.374-1.126v-0.103
					c0-0.483,0.131-0.865,0.393-1.146c0.262-0.279,0.61-0.42,1.045-0.42c0.447,0,0.795,0.137,1.045,0.408s0.375,0.651,0.375,1.139
					v0.091c0,0.483-0.131,0.863-0.393,1.142C96.998,188.064,96.654,188.203,96.228,188.203z M96.233,187.738
					c0.254,0,0.45-0.089,0.589-0.267c0.139-0.177,0.209-0.433,0.209-0.767v-0.163c0-0.705-0.271-1.058-0.81-1.058
					c-0.263,0-0.464,0.089-0.604,0.266c-0.141,0.178-0.212,0.434-0.212,0.768v0.163C95.405,187.385,95.682,187.738,96.233,187.738z"
					/>
				<path fill="#595959" d="M98.293,188.148v-3.081h0.574v0.266h0.024c0.31-0.217,0.654-0.326,1.033-0.326
					c0.302,0,0.525,0.068,0.67,0.203c0.146,0.135,0.218,0.349,0.218,0.643v2.296h-0.599v-2.156c0-0.178-0.037-0.301-0.111-0.372
					c-0.074-0.07-0.225-0.105-0.45-0.105c-0.245,0-0.501,0.064-0.767,0.193v2.44H98.293z"/>
				<path fill="#595959" d="M102.872,188.203c-0.492,0-0.863-0.137-1.115-0.411c-0.251-0.273-0.377-0.656-0.377-1.147v-0.079
					c0-0.503,0.131-0.889,0.393-1.156s0.59-0.402,0.984-0.402c0.85,0,1.274,0.492,1.274,1.475v0.29h-2.042
					c0.021,0.342,0.112,0.585,0.275,0.728c0.163,0.144,0.401,0.215,0.716,0.215c0.302,0,0.62-0.074,0.954-0.224v0.417
					C103.661,188.104,103.307,188.203,102.872,188.203z M102.732,185.478c-0.193,0-0.36,0.064-0.501,0.193s-0.222,0.351-0.242,0.664
					h1.42c0-0.306-0.056-0.525-0.166-0.658S102.962,185.478,102.732,185.478z"/>
				<path fill="#595959" d="M104.273,188.777c0.298-0.331,0.541-0.708,0.728-1.133c0.188-0.425,0.281-0.867,0.281-1.326v-0.163
					c0-0.447-0.095-0.895-0.284-1.342c-0.189-0.446-0.431-0.833-0.725-1.159h0.525c0.322,0.31,0.585,0.679,0.788,1.105
					c0.204,0.427,0.306,0.894,0.306,1.401v0.103c0,0.516-0.102,0.987-0.306,1.414c-0.203,0.427-0.466,0.793-0.788,1.1H104.273z"/>
			</g>
		</g>
	</g>
	<g>
		<polygon fill-rule="evenodd" clip-rule="evenodd" fill="#A5A5A5" points="108.397,183.886 111.699,183.886 111.699,187.189 
			108.397,187.189 108.397,183.886 		"/>
	</g>
	<g>
		<defs>
			<polygon id="SVGID_00000019639761167017354100000017815261410520363907_" points="0.221,190.491 236.71,190.491 236.71,181.148 
				0.221,181.148 0.221,190.491 			"/>
		</defs>
		<clipPath id="SVGID_00000165199045291199300910000006249024522970869429_">
			<use xlink:href="#SVGID_00000019639761167017354100000017815261410520363907_"  overflow="visible"/>
		</clipPath>
		<g clip-path="url(#SVGID_00000165199045291199300910000006249024522970869429_)">
			<defs>
				<rect id="SVGID_00000067202863375343118850000015355161612044211619_" x="0.221" y="181.148" width="236.488" height="9.343"/>
			</defs>
			<clipPath id="SVGID_00000079476939925837743430000006804617813657080742_">
				<use xlink:href="#SVGID_00000067202863375343118850000015355161612044211619_"  overflow="visible"/>
			</clipPath>
			<g clip-path="url(#SVGID_00000079476939925837743430000006804617813657080742_)">
				<path fill="#595959" d="M114.92,188.462h-0.592v-1.704c-0.37,0.021-0.741,0.032-1.111,0.037l-0.079-0.508
					c0.616-0.008,1.139-0.021,1.565-0.036c0.362-0.017,0.803-0.051,1.322-0.103l0.037,0.446c-0.254,0.036-0.635,0.079-1.143,0.127
					V188.462z M115.428,184.164c0.218,0.191,0.326,0.435,0.326,0.729s-0.107,0.536-0.323,0.728s-0.496,0.287-0.843,0.287
					s-0.626-0.096-0.84-0.287c-0.213-0.191-0.32-0.434-0.32-0.728s0.108-0.537,0.323-0.729c0.216-0.19,0.495-0.286,0.837-0.286
					C114.931,183.877,115.21,183.973,115.428,184.164z M115.002,185.26c0.106-0.097,0.16-0.219,0.16-0.368s-0.054-0.271-0.16-0.368
					s-0.245-0.146-0.414-0.146s-0.307,0.05-0.414,0.148c-0.106,0.099-0.16,0.22-0.16,0.365c0,0.149,0.054,0.271,0.16,0.368
					c0.107,0.097,0.245,0.146,0.414,0.146S114.896,185.357,115.002,185.26z M116.878,188.62h-0.586v-1.16h-0.925v-0.441h0.925
					v-3.413h0.586V188.62z M117.917,188.879h-0.593v-5.383h0.593V188.879z"/>
				<path fill="#595959" d="M119.022,187.169c-0.246-0.342-0.369-0.8-0.369-1.371c0-0.572,0.123-1.029,0.369-1.371
					c0.245-0.343,0.582-0.514,1.009-0.514s0.761,0.171,1.003,0.514c0.241,0.342,0.362,0.801,0.362,1.377
					c0,0.572-0.121,1.028-0.362,1.368c-0.242,0.341-0.576,0.511-1.003,0.511S119.268,187.512,119.022,187.169z M120.596,186.81
					c0.144-0.248,0.215-0.585,0.215-1.012s-0.071-0.764-0.215-1.009c-0.143-0.246-0.331-0.369-0.564-0.369
					c-0.229,0-0.415,0.123-0.556,0.369c-0.142,0.245-0.212,0.582-0.212,1.009s0.07,0.764,0.212,1.012
					c0.141,0.248,0.326,0.371,0.556,0.371C120.265,187.181,120.453,187.058,120.596,186.81z M122.925,188.879h-0.616v-5.383h0.616
					V188.879z"/>
				<path fill="#595959" d="M128.585,187.701v0.496h-4.862v-0.496H128.585z M127.775,185.544h-2.809v0.688h3.045v0.489h-3.667
					v-2.814h3.612v0.495h-2.99v0.652h2.809V185.544z"/>
			</g>
		</g>
	</g>
	<g>
		<defs>
			<polygon id="SVGID_00000058579406935563047280000016785737134003275408_" points="0.221,190.491 236.71,190.491 236.71,181.148 
				0.221,181.148 0.221,190.491 			"/>
		</defs>
		<clipPath id="SVGID_00000119080297220613623350000001716137520649671062_">
			<use xlink:href="#SVGID_00000058579406935563047280000016785737134003275408_"  overflow="visible"/>
		</clipPath>
		<g clip-path="url(#SVGID_00000119080297220613623350000001716137520649671062_)">
			<defs>
				<rect id="SVGID_00000175295324506027072860000009060563201401222539_" x="0.221" y="181.148" width="236.488" height="9.343"/>
			</defs>
			<clipPath id="SVGID_00000127014640005026441940000004627341688758240420_">
				<use xlink:href="#SVGID_00000175295324506027072860000009060563201401222539_"  overflow="visible"/>
			</clipPath>
			<g clip-path="url(#SVGID_00000127014640005026441940000004627341688758240420_)">
				<path fill="#595959" d="M134.788,188.722h-0.622v-1.86c-0.419,0.016-0.898,0.023-1.438,0.023l-0.085-0.507
					c0.681,0,1.289-0.009,1.824-0.024c0.737-0.036,1.346-0.081,1.824-0.133l0.043,0.478c-0.472,0.056-0.987,0.101-1.547,0.133
					V188.722z M135.846,184.843c0,0.311-0.13,0.571-0.39,0.782c-0.26,0.212-0.589,0.317-0.988,0.317
					c-0.402,0-0.73-0.104-0.984-0.313c-0.254-0.21-0.381-0.472-0.381-0.786c0-0.326,0.126-0.597,0.378-0.812
					c0.252-0.215,0.581-0.323,0.987-0.323c0.407,0,0.738,0.108,0.994,0.323C135.718,184.247,135.846,184.517,135.846,184.843z
					 M135.229,184.837c0-0.185-0.072-0.334-0.215-0.447c-0.143-0.112-0.325-0.169-0.547-0.169c-0.217,0-0.396,0.057-0.537,0.169
					c-0.142,0.113-0.212,0.263-0.212,0.447c0,0.178,0.07,0.32,0.212,0.429c0.141,0.109,0.32,0.163,0.537,0.163
					c0.226,0,0.409-0.053,0.55-0.159C135.158,185.163,135.229,185.019,135.229,184.837z M135.489,187.628v-0.483h1.153v-3.648h0.616
					v5.383h-0.616v-1.251H135.489z"/>
				<path fill="#595959" d="M141.216,187.399l-0.332,0.459c-0.27-0.129-0.539-0.333-0.807-0.613
					c-0.268-0.279-0.444-0.549-0.528-0.806c-0.068,0.277-0.229,0.562-0.483,0.854s-0.536,0.517-0.846,0.674l-0.387-0.453
					c0.431-0.226,0.77-0.528,1.015-0.906c0.246-0.379,0.369-0.828,0.369-1.348v-0.024h-1.118v-0.489h2.87v0.489h-1.112v0.024
					c0,0.512,0.125,0.945,0.375,1.302C140.48,186.918,140.81,187.198,141.216,187.399z M138.715,184.293v-0.489h1.619v0.489H138.715
					z M142.418,188.879h-0.616v-2.508h-0.984v-0.513h0.984v-2.362h0.616V188.879z"/>
				<path fill="#595959" d="M148.072,188.167h-4.862v-0.496h4.862V188.167z M147.945,186.003l-0.326,0.483
					c-0.414-0.108-0.815-0.303-1.202-0.583s-0.646-0.577-0.779-0.891c-0.12,0.322-0.375,0.622-0.764,0.899
					c-0.389,0.278-0.797,0.47-1.224,0.574l-0.302-0.508c0.302-0.048,0.602-0.152,0.9-0.313c0.298-0.161,0.552-0.376,0.761-0.644
					s0.314-0.549,0.314-0.843v-0.356h0.646v0.356c0,0.29,0.109,0.571,0.329,0.843c0.219,0.271,0.478,0.49,0.776,0.655
					C147.374,185.842,147.664,185.952,147.945,186.003z"/>
			</g>
		</g>
	</g>
	<g>
		<polygon fill-rule="evenodd" clip-rule="evenodd" fill="#F5BA1B" points="153.906,183.886 157.29,183.886 157.29,187.189 
			153.906,187.189 153.906,183.886 		"/>
	</g>
	<g>
		<defs>
			<polygon id="SVGID_00000056408076494182239150000004051877488607298442_" points="86.166,190.491 236.71,190.491 236.71,181.148 
				86.166,181.148 86.166,190.491 			"/>
		</defs>
		<clipPath id="SVGID_00000159437600157336140500000016287022786884648584_">
			<use xlink:href="#SVGID_00000056408076494182239150000004051877488607298442_"  overflow="visible"/>
		</clipPath>
		<g clip-path="url(#SVGID_00000159437600157336140500000016287022786884648584_)">
			<defs>
				<rect id="SVGID_00000000213005809045308730000007679773663250472630_" x="86.166" y="181.148" width="150.544" height="9.343"/>
			</defs>
			<clipPath id="SVGID_00000023266943665817923050000003980842821243053696_">
				<use xlink:href="#SVGID_00000000213005809045308730000007679773663250472630_"  overflow="visible"/>
			</clipPath>
			<g clip-path="url(#SVGID_00000023266943665817923050000003980842821243053696_)">
				<path fill="#595959" d="M163.71,188.19h-4.862v-0.495h2.114v-0.918c-0.5-0.049-0.896-0.204-1.19-0.468
					c-0.294-0.265-0.441-0.598-0.441-1c0-0.443,0.179-0.801,0.535-1.072c0.356-0.272,0.826-0.408,1.41-0.408
					c0.593,0,1.066,0.136,1.423,0.408c0.356,0.271,0.535,0.629,0.535,1.072c0,0.402-0.149,0.736-0.447,1.003
					c-0.298,0.266-0.701,0.423-1.208,0.471v0.912h2.132V188.19z M162.611,185.315c0-0.29-0.122-0.525-0.366-0.707
					c-0.243-0.181-0.566-0.271-0.97-0.271c-0.395,0-0.714,0.091-0.957,0.271c-0.244,0.182-0.365,0.417-0.365,0.707
					c0,0.286,0.121,0.517,0.365,0.691c0.243,0.176,0.562,0.263,0.957,0.263c0.399,0,0.722-0.087,0.967-0.263
					C162.488,185.832,162.611,185.601,162.611,185.315z"/>
				<path fill="#595959" d="M168.936,188.184h-4.862v-0.495h4.862V188.184z M168.465,186.843h-3.77v-1.728h2.996v-0.713h-2.996
					v-0.495h3.612v1.697h-2.99v0.743h3.147V186.843z"/>
				<path fill="#595959" d="M172.597,186.813l0.072,0.508c-0.31,0.076-0.711,0.139-1.202,0.187
					c-0.491,0.049-0.922,0.075-1.292,0.079h-0.562v-3.534h0.61v2.99c0.343,0.013,0.745-0.006,1.208-0.055
					C171.894,186.94,172.283,186.881,172.597,186.813z M173.708,188.879h-0.616v-5.383h0.616V188.879z"/>
				<path fill="#595959" d="M177.805,187.169l-0.369,0.465c-0.241-0.156-0.483-0.383-0.725-0.68
					c-0.242-0.296-0.411-0.587-0.508-0.872c-0.088,0.317-0.255,0.631-0.498,0.938c-0.244,0.309-0.515,0.554-0.812,0.734
					l-0.381-0.453c0.423-0.277,0.756-0.631,1-1.061c0.243-0.429,0.365-0.895,0.365-1.398v-0.882h0.641v0.846
					c0,0.508,0.113,0.965,0.342,1.372C177.086,186.585,177.401,186.916,177.805,187.169z M178.958,188.879h-0.616v-5.383h0.616
					V188.879z"/>
			</g>
		</g>
	</g>
</g>
<g>
	<path d="M50.834,7.872c1.864,0,3.271-0.108,4.224-0.324c0.016,0.12,0.04,0.306,0.072,0.558c0.032,0.252,0.06,0.438,0.084,0.558
		c-0.936,0.24-2.516,0.36-4.74,0.36h-1.032V1.8h4.884v1.128h-3.492V7.872z M57.386,0.816v4.032h1.536v1.164h-1.536v5.496h-1.404
		V0.816H57.386z"/>
	<path d="M60.452,8.136c-0.492-0.696-0.738-1.616-0.738-2.76s0.246-2.068,0.738-2.772c0.492-0.704,1.166-1.056,2.022-1.056
		c0.864,0,1.542,0.353,2.034,1.056C65,3.308,65.246,4.232,65.246,5.376c0,1.136-0.246,2.054-0.738,2.754
		c-0.492,0.7-1.17,1.05-2.034,1.05C61.618,9.18,60.944,8.832,60.452,8.136z M63.902,5.376c0-0.832-0.132-1.49-0.396-1.974
		c-0.264-0.484-0.608-0.726-1.032-0.726c-0.408,0-0.742,0.242-1.002,0.726c-0.26,0.484-0.39,1.142-0.39,1.974
		c0,0.824,0.13,1.476,0.39,1.956c0.26,0.48,0.594,0.72,1.002,0.72c0.424,0,0.768-0.24,1.032-0.72
		C63.77,6.852,63.902,6.2,63.902,5.376z M68.246,11.508h-1.392V0.816h1.392V11.508z"/>
	<path d="M70.604,8.136c-0.492-0.696-0.738-1.616-0.738-2.76s0.246-2.068,0.738-2.772c0.492-0.704,1.166-1.056,2.022-1.056
		c0.776,0,1.402,0.288,1.878,0.864s0.758,1.352,0.846,2.328h1.884V0.816h1.404v10.692h-1.404v-5.58h-1.872
		c-0.08,0.984-0.36,1.772-0.84,2.364c-0.48,0.592-1.112,0.888-1.896,0.888C71.77,9.18,71.096,8.832,70.604,8.136z M74.042,5.376
		c0-0.832-0.13-1.49-0.39-1.974c-0.26-0.484-0.602-0.726-1.026-0.726c-0.408,0-0.742,0.242-1.002,0.726
		c-0.26,0.484-0.39,1.142-0.39,1.974c0,0.824,0.13,1.476,0.39,1.956s0.594,0.72,1.002,0.72c0.424,0,0.766-0.24,1.026-0.72
		C73.912,6.852,74.042,6.2,74.042,5.376z"/>
	<path d="M89.833,9.06v1.104h-9.66V9.06H89.833z M88.37,5.064h-5.568v1.164h5.928v1.104h-7.32V1.656h7.212V2.76h-5.82v1.2h5.568
		V5.064z"/>
	<path d="M99.037,6.336h-5.064v-4.92h1.392v1.452h2.256V1.392h1.416V6.336z M102.193,9.348c0,0.664-0.324,1.19-0.972,1.578
		c-0.648,0.388-1.548,0.582-2.7,0.582c-1.144,0-2.04-0.194-2.688-0.582c-0.648-0.388-0.972-0.914-0.972-1.578
		c0-0.672,0.324-1.202,0.972-1.59c0.648-0.388,1.544-0.582,2.688-0.582c1.16,0,2.062,0.192,2.706,0.576
		C101.871,8.136,102.193,8.668,102.193,9.348z M97.621,5.22V3.96h-2.256v1.26H97.621z M98.521,8.292
		c-0.696,0-1.238,0.094-1.626,0.282s-0.582,0.446-0.582,0.774c0,0.32,0.194,0.572,0.582,0.756s0.93,0.276,1.626,0.276
		c0.704,0,1.252-0.092,1.644-0.276s0.588-0.436,0.588-0.756c0-0.328-0.196-0.586-0.588-0.774S99.225,8.292,98.521,8.292z
		 M103.585,4.512h-1.512v2.556h-1.428V0.816h1.428V3.36h1.512V4.512z"/>
	<path d="M109.465,6.12h-5.028V1.308h1.404V2.7h2.232V1.284h1.392V6.12z M108.073,4.992V3.78h-2.232v1.212H108.073z M112.933,11.376
		h-7.044V7.152h1.428v1.032h4.212V7.14h1.404V11.376z M111.529,10.26V9.276h-4.212v0.984H111.529z M112.921,6.588h-1.392v-2.28
		h-1.524V3.12h1.524V0.816h1.392V6.588z"/>
	<path d="M119.845,5.904h-5.04V1.272h1.416v1.296h2.22V1.26h1.404V5.904z M118.44,4.788V3.672h-2.22v1.116H118.44z M123.637,11.424
		h-7.368V8.556h5.639V7.824h-5.688V6.708h7.08v2.868h-5.616v0.72h5.952V11.424z M123.301,6.216h-1.393V5.184h-1.548V4.128h1.548
		V3.18h-1.548V2.124h1.548V0.816h1.393V6.216z"/>
	<path d="M133.261,8.28l-0.792,0.996c-0.368-0.216-0.738-0.55-1.11-1.002c-0.372-0.452-0.622-0.906-0.75-1.362
		c-0.128,0.488-0.384,0.98-0.769,1.476c-0.384,0.496-0.8,0.872-1.247,1.128l-0.853-0.948c0.712-0.456,1.244-0.994,1.596-1.614
		c0.353-0.62,0.548-1.402,0.588-2.346h-1.752V3.492h4.812v1.116h-1.68C131.384,6.344,132.036,7.568,133.261,8.28z M132.024,2.784
		h-2.796V1.68h2.796V2.784z M135.036,11.016h-1.32V6.408h-1.319V5.28h1.319V1.02h1.32V11.016z M137.101,11.508h-1.332V0.816h1.332
		V11.508z"/>
	<path d="M148.044,6.876h-4.151V7.56c0.991,0.064,1.762,0.266,2.31,0.606c0.548,0.34,0.822,0.778,0.822,1.314
		c0,0.6-0.334,1.07-1.002,1.41s-1.606,0.51-2.814,0.51c-1.2,0-2.134-0.17-2.802-0.51s-1.002-0.81-1.002-1.41
		c0-0.536,0.27-0.974,0.81-1.314c0.54-0.34,1.298-0.542,2.274-0.606V6.876h-4.104V5.748h9.66V6.876z M147.552,4.248l-0.6,1.116
		c-0.784-0.064-1.526-0.284-2.226-0.66c-0.7-0.376-1.206-0.82-1.519-1.332c-0.271,0.528-0.75,0.974-1.434,1.338
		c-0.685,0.364-1.45,0.582-2.298,0.654c-0.072-0.144-0.179-0.344-0.318-0.6s-0.23-0.42-0.271-0.492
		c0.856-0.04,1.606-0.224,2.25-0.552c0.645-0.328,1.059-0.756,1.242-1.284h-3V1.32h7.704v1.116h-3.012
		c0.208,0.512,0.649,0.934,1.326,1.266C146.074,4.034,146.792,4.216,147.552,4.248z M145.596,9.492c0-0.264-0.216-0.47-0.647-0.618
		s-1.017-0.222-1.752-0.222c-0.729,0-1.304,0.074-1.729,0.222c-0.424,0.148-0.636,0.354-0.636,0.618c0,0.256,0.212,0.456,0.636,0.6
		c0.425,0.144,1,0.216,1.729,0.216c0.735,0,1.32-0.072,1.752-0.216C145.38,9.948,145.596,9.748,145.596,9.492z"/>
	<path d="M154.14,1.464c-0.023,1.432-0.462,2.604-1.313,3.516c-0.853,0.912-2.019,1.544-3.498,1.896l-0.684-1.116
		c0.615-0.104,1.193-0.284,1.733-0.54s1.021-0.612,1.44-1.068c0.42-0.456,0.678-0.968,0.773-1.536h-3.432V1.464H154.14z
		 M157.128,11.376h-6.924V7.284h6.924V11.376z M155.724,10.284V8.376h-4.115v1.908H155.724z M158.652,4.44h-1.524v2.328h-1.416
		V0.816h1.416V3.3h1.524V4.44z"/>
	<path d="M165.276,6.468c-0.449,0.104-1.096,0.19-1.939,0.258s-1.641,0.102-2.393,0.102h-1.429v-3.3h3.337V2.496h-3.385V1.392h4.801
		v3.192h-3.336v1.128c1.998,0,3.387-0.108,4.162-0.324L165.276,6.468z M166.655,7.95c0.648,0.372,0.973,0.874,0.973,1.506
		s-0.324,1.132-0.973,1.5c-0.648,0.368-1.547,0.552-2.699,0.552s-2.051-0.185-2.695-0.552c-0.643-0.368-0.965-0.868-0.965-1.5
		s0.322-1.134,0.965-1.506c0.645-0.372,1.543-0.558,2.695-0.558S166.007,7.578,166.655,7.95z M163.956,8.496
		c-0.689,0-1.23,0.088-1.627,0.264c-0.395,0.176-0.594,0.408-0.594,0.696s0.195,0.518,0.588,0.69
		c0.393,0.172,0.936,0.258,1.633,0.258c0.703,0,1.25-0.086,1.637-0.258c0.389-0.172,0.582-0.402,0.582-0.69s-0.195-0.52-0.588-0.696
		C165.196,8.584,164.651,8.496,163.956,8.496z M168.876,4.608v1.14h-1.381V7.26h-1.416V0.816h1.416v1.476h1.381v1.14h-1.381v1.176
		H168.876z"/>
	<path d="M182.339,10.248h-9.659V9.132h2.363V7.956h1.356v1.176h2.208V7.956h1.355v1.176h2.376V10.248z M181.751,3.78h-8.483V2.676
		h8.483V3.78z M180.012,4.644c0.632,0.344,0.947,0.796,0.947,1.356s-0.315,1.008-0.947,1.344c-0.633,0.336-1.465,0.504-2.496,0.504
		c-1.032,0-1.862-0.168-2.49-0.504S174.083,6.56,174.083,6s0.314-1.012,0.942-1.356c0.628-0.344,1.458-0.516,2.49-0.516
		C178.547,4.128,179.379,4.3,180.012,4.644z M178.949,6.606c0.388-0.148,0.582-0.35,0.582-0.606c0-0.256-0.194-0.458-0.582-0.606
		s-0.866-0.222-1.434-0.222c-0.568,0-1.046,0.074-1.435,0.222c-0.388,0.148-0.582,0.35-0.582,0.606c0,0.256,0.194,0.458,0.582,0.606
		c0.389,0.148,0.866,0.222,1.435,0.222C178.083,6.828,178.562,6.754,178.949,6.606z M175.607,2.124V1.02h3.78v1.104H175.607z"/>
	<path d="M189.611,9c-0.929,0.12-2.2,0.228-3.816,0.324c-1.104,0.048-2.04,0.072-2.808,0.072l-0.18-1.14
		c0.983,0,1.716-0.004,2.195-0.012V5.232h1.345v2.952c1.375-0.072,2.428-0.156,3.155-0.252L189.611,9z M189.119,1.98
		c0,2.04-0.12,3.596-0.36,4.668l-1.344-0.144c0.185-0.856,0.276-1.988,0.276-3.396h-4.212V1.98H189.119z M192.936,6.348h-1.416v5.16
		h-1.393V0.816h1.393v4.38h1.416V6.348z"/>
	<path d="M99.877,20.664c-0.432-0.405-0.787-0.891-1.064-1.456c-0.277-0.565-0.416-1.189-0.416-1.872v-0.144
		c0-0.683,0.139-1.306,0.416-1.868s0.632-1.047,1.064-1.452h0.792c-0.395,0.438-0.714,0.936-0.96,1.496
		c-0.245,0.56-0.368,1.144-0.368,1.752v0.224c0,0.603,0.125,1.199,0.376,1.788c0.25,0.589,0.568,1.1,0.952,1.532H99.877z"/>
	<path d="M104.565,14.096c-0.016,0.955-0.308,1.736-0.876,2.344c-0.568,0.608-1.346,1.03-2.332,1.264l-0.456-0.744
		c0.411-0.069,0.796-0.189,1.156-0.36c0.36-0.17,0.68-0.408,0.96-0.712c0.28-0.304,0.452-0.646,0.516-1.024h-2.288v-0.768H104.565z
		 M106.557,20.704h-4.616v-2.728h4.616V20.704z M105.621,19.976v-1.272h-2.744v1.272H105.621z M107.573,16.08h-1.016v1.552h-0.944
		v-3.968h0.944v1.656h1.016V16.08z"/>
	<path d="M114.341,19.904h-6.44v-0.736h2.728v-1.696h0.944v1.696h2.768V19.904z M114.157,16.824l-0.44,0.736
		c-0.523-0.123-1.039-0.36-1.548-0.712s-0.86-0.749-1.052-1.192c-0.117,0.304-0.323,0.592-0.616,0.864s-0.612,0.495-0.956,0.668
		c-0.344,0.173-0.684,0.297-1.02,0.372l-0.424-0.76c0.4-0.059,0.79-0.188,1.168-0.388c0.379-0.2,0.701-0.475,0.968-0.824
		c0.267-0.35,0.4-0.724,0.4-1.124v-0.432h0.976v0.432c0,0.298,0.081,0.588,0.244,0.868c0.163,0.28,0.371,0.52,0.624,0.72
		c0.253,0.2,0.527,0.368,0.82,0.504C113.594,16.692,113.88,16.782,114.157,16.824z"/>
	<path d="M118.325,18.64l-0.528,0.664c-0.245-0.144-0.492-0.367-0.74-0.668c-0.248-0.301-0.415-0.604-0.5-0.908
		c-0.085,0.326-0.256,0.653-0.512,0.984c-0.256,0.331-0.533,0.582-0.832,0.752l-0.568-0.632c0.475-0.304,0.829-0.663,1.064-1.076
		c0.235-0.414,0.365-0.935,0.392-1.564h-1.168v-0.744h3.208v0.744h-1.12C117.074,17.35,117.509,18.166,118.325,18.64z
		 M117.501,14.976h-1.864V14.24h1.864V14.976z M119.509,20.464h-0.88v-3.072h-0.88V16.64h0.88V13.8h0.88V20.464z M120.885,20.792
		h-0.888v-7.128h0.888V20.792z"/>
	<path d="M128.181,17.704h-2.768v0.456c0.661,0.043,1.174,0.177,1.54,0.404c0.365,0.227,0.548,0.519,0.548,0.876
		c0,0.4-0.223,0.713-0.668,0.94c-0.445,0.227-1.071,0.34-1.876,0.34c-0.801,0-1.423-0.113-1.868-0.34
		c-0.445-0.227-0.668-0.54-0.668-0.94c0-0.357,0.18-0.649,0.54-0.876c0.359-0.227,0.865-0.361,1.516-0.404v-0.456h-2.735v-0.752
		h6.439V17.704z M127.853,15.952l-0.399,0.744c-0.523-0.043-1.018-0.189-1.484-0.44c-0.467-0.251-0.804-0.547-1.012-0.888
		c-0.182,0.352-0.5,0.649-0.956,0.892s-0.967,0.388-1.532,0.436c-0.048-0.096-0.119-0.229-0.212-0.4
		c-0.094-0.171-0.153-0.28-0.18-0.328c0.57-0.027,1.07-0.149,1.5-0.368c0.429-0.219,0.705-0.504,0.827-0.856h-2V14h5.137v0.744
		h-2.008c0.138,0.341,0.433,0.623,0.884,0.844C126.867,15.81,127.346,15.931,127.853,15.952z M126.549,19.448
		c0-0.176-0.145-0.313-0.432-0.412c-0.288-0.099-0.678-0.148-1.168-0.148c-0.486,0-0.87,0.049-1.152,0.148
		c-0.283,0.099-0.424,0.236-0.424,0.412c0,0.171,0.141,0.304,0.424,0.4c0.282,0.096,0.666,0.144,1.152,0.144
		c0.49,0,0.88-0.048,1.168-0.144C126.404,19.752,126.549,19.619,126.549,19.448z"/>
	<path d="M128.652,20.912l0.32-1.616h1.008l-0.576,1.616H128.652z"/>
	<path d="M133.076,19.832v-5.848h0.92v5.848H133.076z M135.532,19.832c-0.021-0.032-0.264-0.385-0.728-1.06
		c-0.464-0.674-0.707-1.03-0.729-1.068c0.021-0.042,0.258-0.376,0.708-1c0.451-0.624,0.685-0.952,0.7-0.984h0.96
		c-0.037,0.042-0.271,0.361-0.704,0.956c-0.432,0.595-0.667,0.918-0.704,0.972c0.006,0.005,0.091,0.127,0.256,0.364
		c0.166,0.237,0.334,0.48,0.505,0.728c0.17,0.248,0.334,0.485,0.491,0.712s0.244,0.354,0.261,0.38H135.532z"/>
	<path d="M138.772,21c-0.63,0-1.104-0.084-1.425-0.252c-0.319-0.168-0.479-0.401-0.479-0.7c0-0.39,0.256-0.659,0.768-0.808v-0.032
		c-0.128-0.042-0.231-0.119-0.312-0.228c-0.08-0.109-0.12-0.233-0.12-0.372c0-0.133,0.039-0.247,0.116-0.34s0.198-0.193,0.363-0.3
		c-0.347-0.224-0.52-0.547-0.52-0.968v-0.072c0-0.416,0.149-0.733,0.448-0.952s0.698-0.328,1.2-0.328
		c0.213,0,0.426,0.021,0.64,0.064h1.392v0.608h-0.632c0.139,0.155,0.208,0.349,0.208,0.584v0.056c0,0.421-0.146,0.738-0.439,0.948
		c-0.294,0.211-0.686,0.316-1.177,0.316c-0.271,0-0.487-0.026-0.647-0.08c-0.011,0.011-0.025,0.023-0.044,0.036
		s-0.032,0.024-0.04,0.032c-0.008,0.008-0.018,0.018-0.028,0.028s-0.019,0.021-0.023,0.032c-0.006,0.011-0.01,0.023-0.013,0.036
		s-0.004,0.028-0.004,0.044c0,0.182,0.123,0.272,0.368,0.272h1.136c0.891,0,1.336,0.347,1.336,1.04c0,0.405-0.172,0.729-0.516,0.972
		S139.465,21,138.772,21z M138.756,20.376c0.763,0,1.145-0.187,1.145-0.56c0-0.16-0.046-0.269-0.137-0.328s-0.259-0.088-0.504-0.088
		h-1.056c-0.283,0.09-0.424,0.261-0.424,0.512C137.78,20.221,138.105,20.376,138.756,20.376z M138.804,17.632
		c0.485,0,0.729-0.211,0.729-0.632v-0.104c0-0.442-0.243-0.664-0.729-0.664c-0.49,0-0.735,0.216-0.735,0.648v0.096
		C138.068,17.414,138.313,17.632,138.804,17.632z"/>
	<path d="M141.084,20.664c0.395-0.432,0.715-0.929,0.96-1.492c0.245-0.563,0.368-1.148,0.368-1.756v-0.232
		c0-0.597-0.124-1.192-0.372-1.784c-0.248-0.592-0.566-1.102-0.956-1.528h0.792c0.427,0.405,0.778,0.891,1.056,1.456
		s0.416,1.187,0.416,1.864v0.144c0,0.683-0.139,1.307-0.416,1.872c-0.277,0.565-0.629,1.051-1.056,1.456H141.084z"/>
</g>
<g>
	<path fill="none" stroke="#D9D9D9" stroke-width="0.72" stroke-linejoin="round" stroke-miterlimit="10" d="M11.408,145.85h212.328
		 M11.408,127.51h212.328 M11.408,109.169h212.328 M11.408,90.828h212.328 M11.408,72.41h212.328 M11.408,54.069h212.328
		 M11.408,35.728h212.328 M223.735,17.388"/>
</g>
<g>
	<path fill="#5893C9" d="M22.459,121.083H32.57v43.108H22.459V121.083L22.459,121.083z M93.235,110.972h10.111v53.219H93.235
		V110.972L93.235,110.972z M164.011,128.372h10.111v35.819h-10.111V128.372L164.011,128.372z"/>
</g>
<g>
	<path fill="#E37933" d="M35.313,121.945h10.111v42.246H35.313V121.945L35.313,121.945z M106.089,116.458H116.2v47.733h-10.111
		V116.458L106.089,116.458z M176.865,119.202h10.111v44.989h-10.111V119.202L176.865,119.202z"/>
</g>
<g>
	<path fill="#A5A5A5" d="M48.167,125.629h10.111v38.562H48.167V125.629L48.167,125.629z M118.943,121.083h10.111v43.108h-10.111
		V121.083L118.943,121.083z M189.719,121.945h10.111v42.246h-10.111V121.945L189.719,121.945z"/>
</g>
<g>
	<path fill="#F5BA1B" d="M61.021,118.339h10.111v45.852H61.021V118.339L61.021,118.339z M131.797,102.742h10.032v61.449h-10.032
		V102.742L131.797,102.742z M202.495,103.604h10.111v60.587h-10.111V103.604L202.495,103.604z"/>
</g>
<g>
	<path fill="none" stroke="#5893C9" stroke-width="0.72" stroke-linejoin="round" stroke-miterlimit="10" d="M27.554,121.083V94.434
		 M26.064,94.434h2.9"/>
</g>
<g>
	<path fill="none" stroke="#5893C9" stroke-width="0.72" stroke-linejoin="round" stroke-miterlimit="10" d="M98.329,110.972V62.377
		 M96.84,62.377h2.9"/>
</g>
<g>
	<path fill="none" stroke="#5893C9" stroke-width="0.72" stroke-linejoin="round" stroke-miterlimit="10" d="M169.027,128.372V73.35
		 M167.616,73.35h2.9"/>
</g>
<g>
	<path fill="none" stroke="#E37933" stroke-width="0.72" stroke-linejoin="round" stroke-miterlimit="10" d="M40.408,121.945V90.828
		 M38.918,90.828h2.9"/>
</g>
<g>
	<path fill="none" stroke="#E37933" stroke-width="0.72" stroke-linejoin="round" stroke-miterlimit="10" d="M111.105,116.458
		V57.753 M109.694,57.753h2.9"/>
</g>
<g>
	<path fill="none" stroke="#E37933" stroke-width="0.72" stroke-linejoin="round" stroke-miterlimit="10" d="M181.881,119.202V55.95
		 M180.392,55.95h2.978"/>
</g>
<g>
	<path fill="none" stroke="#A5A5A5" stroke-width="0.72" stroke-linejoin="round" stroke-miterlimit="10" d="M53.183,125.629v-34.8
		 M51.773,90.828h2.9"/>
</g>
<g>
	<path fill="none" stroke="#A5A5A5" stroke-width="0.72" stroke-linejoin="round" stroke-miterlimit="10" d="M123.959,121.083V65.12
		 M122.47,65.12h2.978"/>
</g>
<g>
	<path fill="none" stroke="#A5A5A5" stroke-width="0.72" stroke-linejoin="round" stroke-miterlimit="10" d="M194.735,121.945V72.41
		 M193.246,72.41h2.978"/>
</g>
<g>
	<path fill="none" stroke="#F5BA1B" stroke-width="0.72" stroke-linejoin="round" stroke-miterlimit="10" d="M66.037,118.339V90.828
		 M64.548,90.828h2.978"/>
</g>
<g>
	<path fill="none" stroke="#F5BA1B" stroke-width="0.72" stroke-linejoin="round" stroke-miterlimit="10" d="M136.813,102.742
		V29.301 M135.324,29.301h2.978"/>
</g>
<g>
	<path fill="none" stroke="#F5BA1B" stroke-width="0.72" stroke-linejoin="round" stroke-miterlimit="10" d="M207.589,103.604
		V18.328 M206.1,18.328h2.978"/>
</g>
<g>
	
		<line fill="none" stroke="#D9D9D9" stroke-width="0.72" stroke-linejoin="round" stroke-miterlimit="10" x1="11.408" y1="164.191" x2="223.735" y2="164.191"/>
</g>
<g>
	<g>
		<g>
			<path fill="#595959" d="M5.75,163.95c0,0.285-0.022,0.545-0.067,0.78s-0.12,0.438-0.224,0.607
				c-0.104,0.169-0.241,0.3-0.409,0.393s-0.376,0.14-0.623,0.14c-0.233,0-0.43-0.042-0.59-0.125
				c-0.16-0.083-0.288-0.206-0.386-0.367c-0.098-0.162-0.167-0.361-0.208-0.598c-0.042-0.236-0.062-0.507-0.062-0.813
				c0-0.283,0.023-0.543,0.069-0.779s0.121-0.439,0.224-0.608c0.103-0.169,0.239-0.301,0.408-0.394
				c0.168-0.093,0.375-0.139,0.62-0.139c0.235,0,0.433,0.041,0.593,0.125c0.16,0.083,0.289,0.205,0.386,0.367
				s0.167,0.36,0.208,0.597S5.75,163.643,5.75,163.95z M5.245,163.984c0-0.186-0.007-0.353-0.02-0.5
				c-0.014-0.146-0.033-0.277-0.059-0.39c-0.026-0.113-0.059-0.21-0.101-0.292c-0.041-0.081-0.09-0.148-0.147-0.2
				c-0.058-0.053-0.123-0.091-0.197-0.115c-0.074-0.023-0.156-0.036-0.248-0.036c-0.163,0-0.295,0.038-0.396,0.115
				c-0.101,0.076-0.181,0.182-0.24,0.315c-0.058,0.134-0.098,0.291-0.119,0.471c-0.021,0.18-0.032,0.373-0.032,0.58
				c0,0.277,0.014,0.514,0.043,0.707c0.029,0.194,0.074,0.353,0.136,0.476c0.062,0.122,0.142,0.211,0.238,0.267
				s0.214,0.083,0.352,0.083c0.107,0,0.202-0.017,0.283-0.051c0.082-0.035,0.151-0.084,0.209-0.148
				c0.059-0.063,0.107-0.141,0.145-0.23c0.039-0.091,0.069-0.189,0.092-0.299s0.039-0.228,0.047-0.354
				C5.241,164.254,5.245,164.122,5.245,163.984z"/>
		</g>
	</g>
</g>
<g>
	<g>
		<g>
			<path fill="#595959" d="M5.627,147.257c0,0.035-0.002,0.065-0.007,0.093c-0.005,0.026-0.012,0.049-0.02,0.067
				c-0.009,0.018-0.02,0.031-0.035,0.04c-0.014,0.009-0.03,0.013-0.047,0.013H3.465c-0.027,0-0.05-0.003-0.07-0.01
				s-0.037-0.018-0.052-0.033c-0.014-0.016-0.025-0.037-0.031-0.066c-0.007-0.028-0.01-0.063-0.01-0.105
				c0-0.039,0.001-0.072,0.004-0.101c0.003-0.029,0.009-0.055,0.02-0.076c0.01-0.022,0.022-0.044,0.037-0.066
				c0.015-0.021,0.034-0.045,0.058-0.07l0.743-0.764c0.171-0.176,0.309-0.334,0.413-0.474s0.183-0.267,0.24-0.382
				c0.056-0.114,0.093-0.219,0.111-0.312c0.018-0.094,0.026-0.182,0.026-0.264c0-0.083-0.014-0.16-0.042-0.234
				c-0.027-0.073-0.067-0.138-0.12-0.193c-0.053-0.056-0.118-0.1-0.197-0.132c-0.079-0.033-0.17-0.049-0.272-0.049
				c-0.12,0-0.229,0.016-0.324,0.049c-0.096,0.032-0.18,0.067-0.252,0.105c-0.072,0.039-0.132,0.074-0.181,0.106
				s-0.084,0.049-0.108,0.049c-0.014,0-0.026-0.004-0.037-0.012s-0.02-0.02-0.026-0.037s-0.013-0.04-0.017-0.068
				c-0.004-0.029-0.006-0.063-0.006-0.104c0-0.029,0.001-0.054,0.003-0.075c0.002-0.021,0.005-0.039,0.01-0.055
				c0.004-0.015,0.011-0.029,0.019-0.043c0.007-0.013,0.023-0.03,0.046-0.05c0.023-0.021,0.062-0.048,0.119-0.082
				c0.056-0.034,0.127-0.068,0.212-0.102c0.085-0.033,0.179-0.062,0.281-0.085c0.103-0.022,0.21-0.034,0.323-0.034
				c0.18,0,0.337,0.025,0.472,0.076c0.135,0.051,0.247,0.12,0.336,0.208s0.155,0.19,0.2,0.307c0.044,0.117,0.066,0.241,0.066,0.373
				c0,0.119-0.011,0.237-0.032,0.354c-0.021,0.118-0.065,0.245-0.133,0.382s-0.166,0.289-0.294,0.457
				c-0.128,0.167-0.298,0.36-0.511,0.578l-0.588,0.614h1.616c0.016,0,0.03,0.004,0.044,0.013c0.015,0.009,0.027,0.021,0.038,0.039
				c0.01,0.017,0.018,0.038,0.023,0.064C5.625,147.193,5.627,147.223,5.627,147.257z"/>
		</g>
	</g>
</g>
<g>
	<g>
		<g>
			<path fill="#595959" d="M5.785,128.07c0,0.063-0.01,0.113-0.029,0.149s-0.046,0.055-0.08,0.055H5.256v0.781
				c0,0.015-0.004,0.027-0.012,0.038s-0.021,0.02-0.042,0.027c-0.02,0.008-0.045,0.014-0.077,0.018
				c-0.032,0.004-0.072,0.006-0.121,0.006c-0.047,0-0.087-0.002-0.119-0.006c-0.031-0.004-0.057-0.01-0.075-0.018
				s-0.031-0.017-0.039-0.027c-0.007-0.011-0.01-0.023-0.01-0.038v-0.781h-1.52c-0.022,0-0.042-0.003-0.057-0.009
				s-0.029-0.016-0.042-0.031s-0.021-0.037-0.025-0.066c-0.005-0.028-0.007-0.065-0.007-0.111c0-0.037,0.001-0.069,0.003-0.098
				c0.002-0.029,0.006-0.056,0.011-0.079c0.006-0.024,0.013-0.047,0.023-0.069c0.009-0.021,0.021-0.045,0.034-0.07l1.324-2.256
				c0.01-0.016,0.024-0.028,0.042-0.04s0.042-0.021,0.072-0.028c0.029-0.008,0.065-0.014,0.108-0.017
				c0.042-0.002,0.093-0.004,0.152-0.004c0.064,0,0.121,0.003,0.168,0.007c0.048,0.005,0.086,0.012,0.116,0.019
				c0.029,0.008,0.051,0.019,0.067,0.03c0.016,0.013,0.023,0.027,0.023,0.045v2.371h0.419c0.032,0,0.059,0.017,0.079,0.05
				S5.785,128.001,5.785,128.07z M4.763,125.829H4.757l-1.194,2.038h1.2V125.829z"/>
		</g>
	</g>
</g>
<g>
	<g>
		<g>
			<path fill="#595959" d="M5.722,109.579c0,0.163-0.025,0.32-0.075,0.473s-0.126,0.286-0.229,0.401
				c-0.104,0.116-0.235,0.209-0.394,0.279c-0.159,0.069-0.346,0.104-0.562,0.104c-0.155,0-0.292-0.02-0.411-0.058
				s-0.222-0.093-0.31-0.163c-0.088-0.071-0.162-0.158-0.22-0.262c-0.059-0.104-0.105-0.221-0.141-0.353
				c-0.036-0.133-0.061-0.277-0.076-0.434c-0.015-0.157-0.023-0.325-0.023-0.506c0-0.158,0.009-0.319,0.026-0.481
				c0.017-0.163,0.048-0.32,0.092-0.471c0.044-0.151,0.104-0.294,0.179-0.427c0.076-0.133,0.17-0.249,0.284-0.348
				c0.114-0.098,0.25-0.176,0.409-0.233s0.343-0.086,0.554-0.086c0.071,0,0.142,0.004,0.215,0.013s0.14,0.021,0.201,0.034
				c0.061,0.015,0.113,0.03,0.155,0.048c0.042,0.017,0.07,0.031,0.083,0.041c0.013,0.011,0.023,0.022,0.03,0.035
				c0.006,0.012,0.012,0.025,0.016,0.04c0.004,0.014,0.007,0.03,0.009,0.049c0.001,0.018,0.002,0.04,0.002,0.067
				c0,0.034,0,0.064-0.001,0.089s-0.004,0.045-0.011,0.061c-0.007,0.015-0.015,0.026-0.026,0.034s-0.024,0.012-0.042,0.012
				c-0.021,0-0.05-0.007-0.086-0.021c-0.036-0.014-0.08-0.028-0.132-0.044c-0.052-0.017-0.114-0.031-0.188-0.045
				s-0.159-0.021-0.257-0.021c-0.178,0-0.331,0.037-0.459,0.109c-0.128,0.073-0.233,0.171-0.314,0.293
				c-0.082,0.122-0.142,0.265-0.181,0.426c-0.039,0.162-0.062,0.331-0.067,0.507c0.05-0.028,0.106-0.058,0.168-0.086
				s0.13-0.055,0.204-0.077c0.074-0.023,0.152-0.042,0.234-0.057c0.082-0.014,0.17-0.021,0.264-0.021
				c0.201,0,0.371,0.027,0.508,0.082s0.249,0.13,0.334,0.227c0.085,0.097,0.146,0.211,0.182,0.342
				C5.703,109.284,5.722,109.426,5.722,109.579z M5.222,109.625c0-0.111-0.011-0.212-0.033-0.304
				c-0.022-0.091-0.059-0.168-0.11-0.23c-0.052-0.063-0.121-0.112-0.207-0.146c-0.086-0.034-0.192-0.052-0.319-0.052
				c-0.071,0-0.142,0.006-0.212,0.019s-0.139,0.03-0.205,0.052c-0.066,0.022-0.129,0.048-0.189,0.077
				c-0.061,0.03-0.115,0.062-0.165,0.097c0,0.247,0.016,0.453,0.047,0.62c0.031,0.166,0.078,0.3,0.138,0.4s0.135,0.172,0.225,0.215
				c0.09,0.043,0.195,0.064,0.316,0.064c0.123,0,0.229-0.022,0.319-0.068c0.09-0.046,0.165-0.107,0.224-0.186
				c0.06-0.077,0.103-0.164,0.131-0.261C5.208,109.826,5.222,109.726,5.222,109.625z"/>
		</g>
	</g>
</g>
<g>
	<g>
		<g>
			<path fill="#595959" d="M5.713,91.484c0,0.161-0.029,0.304-0.086,0.43c-0.058,0.125-0.14,0.23-0.249,0.316
				c-0.108,0.087-0.242,0.151-0.4,0.195s-0.34,0.066-0.545,0.066c-0.191,0-0.362-0.021-0.514-0.061s-0.279-0.1-0.385-0.178
				c-0.105-0.078-0.186-0.175-0.241-0.29C3.238,91.848,3.21,91.717,3.21,91.57c0-0.116,0.019-0.224,0.058-0.321
				c0.038-0.098,0.093-0.188,0.165-0.27s0.16-0.159,0.265-0.231c0.105-0.071,0.224-0.14,0.356-0.205
				c-0.115-0.06-0.216-0.122-0.304-0.188c-0.088-0.066-0.163-0.138-0.224-0.216c-0.062-0.077-0.108-0.16-0.139-0.248
				c-0.032-0.088-0.047-0.184-0.047-0.287c0-0.13,0.023-0.252,0.07-0.366c0.047-0.113,0.118-0.213,0.212-0.297
				s0.215-0.15,0.361-0.199s0.317-0.073,0.513-0.073c0.188,0,0.35,0.022,0.486,0.067s0.25,0.106,0.339,0.184
				c0.089,0.077,0.154,0.169,0.196,0.274c0.042,0.104,0.063,0.218,0.063,0.339c0,0.097-0.016,0.19-0.047,0.281
				c-0.032,0.09-0.078,0.175-0.14,0.255c-0.061,0.08-0.136,0.155-0.225,0.226c-0.089,0.069-0.191,0.136-0.306,0.196
				c0.136,0.067,0.257,0.136,0.363,0.207c0.106,0.07,0.195,0.146,0.267,0.229c0.072,0.081,0.126,0.167,0.164,0.258
				C5.694,91.275,5.713,91.375,5.713,91.484z M5.213,91.536c0-0.088-0.016-0.168-0.049-0.239c-0.032-0.072-0.082-0.139-0.148-0.201
				c-0.066-0.062-0.148-0.122-0.247-0.181s-0.213-0.119-0.343-0.183c-0.12,0.06-0.226,0.119-0.317,0.178
				c-0.091,0.06-0.166,0.121-0.224,0.184c-0.058,0.063-0.102,0.13-0.132,0.2c-0.03,0.069-0.044,0.146-0.044,0.23
				c0,0.186,0.063,0.329,0.191,0.431c0.127,0.102,0.317,0.152,0.57,0.152c0.245,0,0.43-0.051,0.555-0.153S5.213,91.711,5.213,91.536
				z M5.093,89.579c0-0.081-0.014-0.153-0.042-0.219c-0.028-0.064-0.068-0.12-0.122-0.166s-0.12-0.081-0.199-0.105
				c-0.08-0.023-0.17-0.035-0.271-0.035c-0.207,0-0.363,0.047-0.469,0.141c-0.106,0.094-0.159,0.222-0.159,0.385
				c0,0.074,0.013,0.144,0.039,0.208c0.026,0.063,0.066,0.125,0.121,0.182c0.055,0.058,0.124,0.113,0.207,0.168
				c0.083,0.055,0.183,0.111,0.297,0.171c0.193-0.1,0.341-0.209,0.445-0.33C5.041,89.857,5.093,89.723,5.093,89.579z"/>
		</g>
	</g>
</g>
<g>
	<g>
		<g>
			<path fill="#595959" d="M2.661,73.908c0,0.036-0.003,0.067-0.008,0.092c-0.006,0.025-0.014,0.045-0.023,0.061
				c-0.01,0.016-0.021,0.026-0.033,0.033c-0.013,0.007-0.025,0.01-0.039,0.01h-1.94c-0.014,0-0.026-0.003-0.038-0.01
				c-0.011-0.007-0.022-0.018-0.033-0.033C0.536,74.044,0.528,74.025,0.522,74c-0.006-0.024-0.009-0.056-0.009-0.092
				c0-0.034,0.003-0.063,0.009-0.089c0.006-0.024,0.013-0.046,0.021-0.062c0.009-0.017,0.019-0.029,0.032-0.037
				c0.012-0.009,0.026-0.014,0.042-0.014h0.775v-2.824L0.674,71.31c-0.036,0.02-0.065,0.031-0.087,0.034
				c-0.022,0.004-0.04,0-0.053-0.013c-0.013-0.013-0.022-0.033-0.027-0.062C0.502,71.242,0.5,71.205,0.5,71.161
				c0-0.032,0.001-0.06,0.004-0.083c0.003-0.022,0.007-0.042,0.013-0.058c0.006-0.015,0.014-0.028,0.024-0.04
				s0.024-0.022,0.042-0.034l0.855-0.549c0.008-0.005,0.017-0.01,0.029-0.014c0.011-0.004,0.026-0.008,0.043-0.012
				s0.037-0.006,0.06-0.007c0.023-0.001,0.052-0.002,0.086-0.002c0.046,0,0.084,0.002,0.115,0.006s0.055,0.009,0.072,0.016
				s0.029,0.016,0.034,0.026c0.006,0.011,0.009,0.021,0.009,0.033v3.263h0.672c0.015,0,0.029,0.005,0.043,0.014
				c0.013,0.008,0.024,0.021,0.033,0.037c0.009,0.016,0.016,0.037,0.021,0.062C2.658,73.844,2.661,73.874,2.661,73.908z"/>
			<path fill="#595959" d="M5.755,72.238c0,0.285-0.022,0.545-0.067,0.78s-0.12,0.438-0.224,0.607
				c-0.104,0.169-0.241,0.3-0.409,0.393s-0.376,0.14-0.623,0.14c-0.233,0-0.43-0.042-0.59-0.125
				c-0.16-0.083-0.288-0.206-0.386-0.367c-0.098-0.162-0.167-0.361-0.208-0.598c-0.042-0.236-0.062-0.507-0.062-0.813
				c0-0.283,0.023-0.543,0.069-0.779s0.121-0.439,0.224-0.608c0.103-0.169,0.239-0.301,0.408-0.394
				c0.168-0.093,0.375-0.139,0.62-0.139c0.235,0,0.433,0.041,0.593,0.125c0.16,0.083,0.289,0.205,0.386,0.367
				s0.167,0.36,0.208,0.597S5.755,71.931,5.755,72.238z M5.25,72.272c0-0.186-0.007-0.353-0.02-0.5
				c-0.014-0.146-0.033-0.277-0.059-0.39c-0.026-0.113-0.059-0.21-0.101-0.292c-0.041-0.081-0.09-0.148-0.147-0.2
				c-0.058-0.053-0.123-0.091-0.197-0.115c-0.074-0.023-0.156-0.036-0.248-0.036c-0.163,0-0.295,0.038-0.396,0.115
				C3.98,70.93,3.9,71.036,3.842,71.169c-0.058,0.134-0.098,0.291-0.119,0.471c-0.021,0.18-0.032,0.373-0.032,0.58
				c0,0.277,0.014,0.514,0.043,0.707c0.029,0.194,0.074,0.353,0.136,0.476c0.062,0.122,0.142,0.211,0.238,0.267
				s0.214,0.083,0.352,0.083c0.107,0,0.202-0.017,0.283-0.051c0.082-0.035,0.151-0.084,0.209-0.148
				c0.059-0.063,0.107-0.141,0.145-0.23c0.039-0.091,0.069-0.189,0.092-0.299s0.039-0.228,0.047-0.354
				C5.246,72.542,5.25,72.41,5.25,72.272z"/>
		</g>
	</g>
</g>
<g>
	<g>
		<g>
			<path fill="#595959" d="M2.661,55.557c0,0.036-0.003,0.067-0.008,0.092c-0.006,0.025-0.014,0.045-0.023,0.061
				c-0.01,0.016-0.021,0.026-0.033,0.033c-0.013,0.007-0.025,0.01-0.039,0.01h-1.94c-0.014,0-0.026-0.003-0.038-0.01
				c-0.011-0.007-0.022-0.018-0.033-0.033c-0.011-0.016-0.019-0.035-0.024-0.061c-0.006-0.024-0.009-0.056-0.009-0.092
				c0-0.034,0.003-0.063,0.009-0.089c0.006-0.024,0.013-0.046,0.021-0.062c0.009-0.017,0.019-0.029,0.032-0.037
				c0.012-0.009,0.026-0.014,0.042-0.014h0.775v-2.824l-0.718,0.428c-0.036,0.02-0.065,0.031-0.087,0.034
				c-0.022,0.004-0.04,0-0.053-0.013c-0.013-0.013-0.022-0.033-0.027-0.062C0.502,52.891,0.5,52.854,0.5,52.81
				c0-0.032,0.001-0.06,0.004-0.083c0.003-0.022,0.007-0.042,0.013-0.058c0.006-0.015,0.014-0.028,0.024-0.04
				s0.024-0.022,0.042-0.034l0.855-0.549c0.008-0.005,0.017-0.01,0.029-0.014c0.011-0.004,0.026-0.008,0.043-0.012
				s0.037-0.006,0.06-0.007c0.023-0.001,0.052-0.002,0.086-0.002c0.046,0,0.084,0.002,0.115,0.006s0.055,0.009,0.072,0.016
				s0.029,0.016,0.034,0.026c0.006,0.011,0.009,0.021,0.009,0.033v3.263h0.672c0.015,0,0.029,0.005,0.043,0.014
				c0.013,0.008,0.024,0.021,0.033,0.037c0.009,0.016,0.016,0.037,0.021,0.062C2.658,55.494,2.661,55.523,2.661,55.557z"/>
			<path fill="#595959" d="M5.632,55.54c0,0.035-0.002,0.065-0.007,0.093c-0.005,0.026-0.012,0.049-0.02,0.067
				c-0.009,0.018-0.02,0.031-0.035,0.04c-0.014,0.009-0.03,0.013-0.047,0.013H3.47c-0.027,0-0.05-0.003-0.07-0.01
				s-0.037-0.018-0.052-0.033c-0.014-0.016-0.025-0.037-0.031-0.066c-0.007-0.028-0.01-0.063-0.01-0.105
				c0-0.039,0.001-0.072,0.004-0.101c0.003-0.029,0.009-0.055,0.02-0.076c0.01-0.022,0.022-0.044,0.037-0.066
				c0.015-0.021,0.034-0.045,0.058-0.07l0.743-0.764c0.171-0.176,0.309-0.334,0.413-0.474s0.183-0.267,0.24-0.382
				c0.056-0.114,0.093-0.219,0.111-0.312c0.018-0.094,0.026-0.182,0.026-0.264c0-0.083-0.014-0.16-0.042-0.234
				c-0.027-0.073-0.067-0.138-0.12-0.193c-0.053-0.056-0.118-0.1-0.197-0.132c-0.079-0.033-0.17-0.049-0.272-0.049
				c-0.12,0-0.229,0.016-0.324,0.049c-0.096,0.032-0.18,0.067-0.252,0.105c-0.072,0.039-0.132,0.074-0.181,0.106
				S3.485,52.73,3.461,52.73c-0.014,0-0.026-0.004-0.037-0.012s-0.02-0.02-0.026-0.037s-0.013-0.04-0.017-0.068
				c-0.004-0.029-0.006-0.063-0.006-0.104c0-0.029,0.001-0.054,0.003-0.075c0.002-0.021,0.005-0.039,0.01-0.055
				c0.004-0.015,0.011-0.029,0.019-0.043c0.007-0.013,0.023-0.03,0.046-0.05c0.023-0.021,0.062-0.048,0.119-0.082
				c0.056-0.034,0.127-0.068,0.212-0.102c0.085-0.033,0.179-0.062,0.281-0.085c0.103-0.022,0.21-0.034,0.323-0.034
				c0.18,0,0.337,0.025,0.472,0.076c0.135,0.051,0.247,0.12,0.336,0.208s0.155,0.19,0.2,0.307c0.044,0.117,0.066,0.241,0.066,0.373
				c0,0.119-0.011,0.237-0.032,0.354c-0.021,0.118-0.065,0.245-0.133,0.382s-0.166,0.289-0.294,0.457
				c-0.128,0.167-0.298,0.36-0.511,0.578l-0.588,0.614H5.52c0.016,0,0.03,0.004,0.044,0.013c0.015,0.009,0.027,0.021,0.038,0.039
				c0.01,0.017,0.018,0.038,0.023,0.064C5.629,55.475,5.632,55.505,5.632,55.54z"/>
		</g>
	</g>
</g>
<g>
	<g>
		<g>
			<path fill="#595959" d="M2.661,37.218c0,0.036-0.003,0.067-0.008,0.092c-0.006,0.025-0.014,0.045-0.023,0.061
				c-0.01,0.016-0.021,0.026-0.033,0.033c-0.013,0.007-0.025,0.01-0.039,0.01h-1.94c-0.014,0-0.026-0.003-0.038-0.01
				c-0.011-0.007-0.022-0.018-0.033-0.033c-0.011-0.016-0.019-0.035-0.024-0.061c-0.006-0.024-0.009-0.056-0.009-0.092
				c0-0.034,0.003-0.063,0.009-0.089c0.006-0.024,0.013-0.046,0.021-0.062c0.009-0.017,0.019-0.029,0.032-0.037
				c0.012-0.009,0.026-0.014,0.042-0.014h0.775v-2.824l-0.718,0.428c-0.036,0.02-0.065,0.031-0.087,0.034
				c-0.022,0.004-0.04,0-0.053-0.013c-0.013-0.013-0.022-0.033-0.027-0.062C0.502,34.552,0.5,34.515,0.5,34.471
				c0-0.032,0.001-0.06,0.004-0.083c0.003-0.022,0.007-0.042,0.013-0.058c0.006-0.015,0.014-0.028,0.024-0.04
				s0.024-0.022,0.042-0.034l0.855-0.549c0.008-0.005,0.017-0.01,0.029-0.014c0.011-0.004,0.026-0.008,0.043-0.012
				s0.037-0.006,0.06-0.007c0.023-0.001,0.052-0.002,0.086-0.002c0.046,0,0.084,0.002,0.115,0.006s0.055,0.009,0.072,0.016
				s0.029,0.016,0.034,0.026c0.006,0.011,0.009,0.021,0.009,0.033v3.263h0.672c0.015,0,0.029,0.005,0.043,0.014
				c0.013,0.008,0.024,0.021,0.033,0.037c0.009,0.016,0.016,0.037,0.021,0.062C2.658,37.155,2.661,37.184,2.661,37.218z"/>
			<path fill="#595959" d="M5.79,36.357c0,0.063-0.01,0.113-0.029,0.149s-0.046,0.055-0.08,0.055H5.261v0.781
				c0,0.015-0.004,0.027-0.012,0.038s-0.021,0.02-0.042,0.027c-0.02,0.008-0.045,0.014-0.077,0.018
				C5.1,37.429,5.06,37.431,5.01,37.431c-0.047,0-0.087-0.002-0.119-0.006c-0.031-0.004-0.057-0.01-0.075-0.018
				s-0.031-0.017-0.039-0.027c-0.007-0.011-0.01-0.023-0.01-0.038v-0.781h-1.52c-0.022,0-0.042-0.003-0.057-0.009
				s-0.029-0.016-0.042-0.031s-0.021-0.037-0.025-0.066c-0.005-0.028-0.007-0.065-0.007-0.111c0-0.037,0.001-0.069,0.003-0.098
				c0.002-0.029,0.006-0.056,0.011-0.079c0.006-0.024,0.013-0.047,0.023-0.069c0.009-0.021,0.021-0.045,0.034-0.07l1.324-2.256
				c0.01-0.016,0.024-0.028,0.042-0.04s0.042-0.021,0.072-0.028c0.029-0.008,0.065-0.014,0.108-0.017
				c0.042-0.002,0.093-0.004,0.152-0.004c0.064,0,0.121,0.003,0.168,0.007c0.048,0.005,0.086,0.012,0.116,0.019
				c0.029,0.008,0.051,0.019,0.067,0.03c0.016,0.013,0.023,0.027,0.023,0.045v2.371h0.419c0.032,0,0.059,0.017,0.079,0.05
				S5.79,36.289,5.79,36.357z M4.768,34.116H4.762l-1.194,2.038h1.2V34.116z"/>
		</g>
	</g>
</g>
<g>
	<g>
		<g>
			<path fill="#595959" d="M45.021,175.288c0,0.035-0.002,0.065-0.007,0.093c-0.005,0.026-0.012,0.049-0.02,0.067
				c-0.009,0.018-0.02,0.031-0.035,0.04c-0.014,0.009-0.03,0.013-0.047,0.013H42.86c-0.027,0-0.05-0.003-0.07-0.01
				s-0.037-0.018-0.052-0.033c-0.014-0.016-0.025-0.037-0.031-0.066c-0.007-0.028-0.01-0.063-0.01-0.105
				c0-0.039,0.001-0.072,0.004-0.101c0.003-0.029,0.009-0.055,0.02-0.076c0.01-0.022,0.022-0.044,0.037-0.066
				c0.015-0.021,0.034-0.045,0.058-0.07l0.743-0.764c0.171-0.176,0.309-0.334,0.413-0.474s0.183-0.267,0.24-0.382
				c0.056-0.114,0.093-0.219,0.111-0.312c0.018-0.094,0.026-0.182,0.026-0.264c0-0.083-0.014-0.16-0.042-0.234
				c-0.027-0.073-0.067-0.138-0.12-0.193c-0.053-0.056-0.118-0.1-0.197-0.132c-0.079-0.033-0.17-0.049-0.272-0.049
				c-0.12,0-0.229,0.016-0.324,0.049c-0.096,0.032-0.18,0.067-0.252,0.105c-0.072,0.039-0.132,0.074-0.181,0.106
				s-0.084,0.049-0.108,0.049c-0.014,0-0.026-0.004-0.037-0.012s-0.02-0.02-0.026-0.037s-0.013-0.04-0.017-0.068
				c-0.004-0.029-0.006-0.063-0.006-0.104c0-0.029,0.001-0.054,0.003-0.075c0.002-0.021,0.005-0.039,0.01-0.055
				c0.004-0.015,0.011-0.029,0.019-0.043c0.007-0.013,0.023-0.03,0.046-0.05c0.023-0.021,0.062-0.048,0.119-0.082
				c0.056-0.034,0.127-0.068,0.212-0.102c0.085-0.033,0.179-0.062,0.281-0.085c0.103-0.022,0.21-0.034,0.323-0.034
				c0.18,0,0.337,0.025,0.472,0.076c0.135,0.051,0.247,0.12,0.336,0.208s0.155,0.19,0.2,0.307c0.044,0.117,0.066,0.241,0.066,0.373
				c0,0.119-0.011,0.237-0.032,0.354c-0.021,0.118-0.065,0.245-0.133,0.382s-0.166,0.289-0.294,0.457
				c-0.128,0.167-0.298,0.36-0.511,0.578l-0.588,0.614h1.616c0.016,0,0.03,0.004,0.044,0.013c0.015,0.009,0.027,0.021,0.038,0.039
				c0.01,0.017,0.018,0.038,0.023,0.064C45.019,175.223,45.021,175.253,45.021,175.288z"/>
		</g>
	</g>
</g>
<g>
	<g>
		<g>
			<path fill="#595959" d="M48.923,172.891c-0.44,0.038-1.378,0.058-2.815,0.058v-2.222h2.618v0.376h-2.193v1.47h0.37
				c0.922,0,1.586-0.016,1.992-0.046L48.923,172.891z M46.69,175.894v-1.358h2.934v-0.539H46.69v-0.382h3.355v1.292h-2.934v0.605
				h3.083v0.382H46.69z M50.045,172.173v1.134h-0.428v-2.827h0.428v1.312h0.835v0.381H50.045z"/>
		</g>
	</g>
</g>
<g>
	<g>
		<g>
			<path fill="#595959" d="M115.882,174.297c0,0.163-0.025,0.32-0.075,0.473s-0.126,0.286-0.229,0.401
				c-0.104,0.116-0.235,0.209-0.394,0.279c-0.159,0.069-0.346,0.104-0.562,0.104c-0.155,0-0.292-0.02-0.411-0.058
				s-0.222-0.093-0.31-0.163c-0.088-0.071-0.162-0.158-0.22-0.262c-0.059-0.104-0.105-0.221-0.141-0.353
				c-0.036-0.133-0.061-0.277-0.076-0.434c-0.015-0.157-0.023-0.325-0.023-0.506c0-0.158,0.009-0.319,0.026-0.481
				c0.017-0.163,0.048-0.32,0.092-0.471c0.044-0.151,0.104-0.294,0.179-0.427c0.076-0.133,0.17-0.249,0.284-0.348
				c0.114-0.098,0.25-0.176,0.409-0.233s0.343-0.086,0.554-0.086c0.071,0,0.142,0.004,0.215,0.013s0.14,0.021,0.201,0.034
				c0.061,0.015,0.113,0.03,0.155,0.048c0.042,0.017,0.07,0.031,0.083,0.041c0.013,0.011,0.023,0.022,0.03,0.035
				c0.006,0.012,0.012,0.025,0.016,0.04c0.004,0.014,0.007,0.03,0.009,0.049c0.001,0.018,0.002,0.04,0.002,0.067
				c0,0.034,0,0.064-0.001,0.089s-0.004,0.045-0.011,0.061c-0.007,0.015-0.015,0.026-0.026,0.034s-0.024,0.012-0.042,0.012
				c-0.021,0-0.05-0.007-0.086-0.021c-0.036-0.014-0.08-0.028-0.132-0.044c-0.052-0.017-0.114-0.031-0.188-0.045
				s-0.159-0.021-0.257-0.021c-0.178,0-0.331,0.037-0.459,0.109c-0.128,0.073-0.233,0.171-0.314,0.293
				c-0.082,0.122-0.142,0.265-0.181,0.426c-0.039,0.162-0.062,0.331-0.067,0.507c0.05-0.028,0.106-0.058,0.168-0.086
				s0.13-0.055,0.204-0.077c0.074-0.023,0.152-0.042,0.234-0.057c0.082-0.014,0.17-0.021,0.264-0.021
				c0.201,0,0.371,0.027,0.508,0.082s0.249,0.13,0.334,0.227c0.085,0.097,0.146,0.211,0.182,0.342
				C115.863,174.002,115.882,174.145,115.882,174.297z M115.382,174.344c0-0.111-0.011-0.212-0.033-0.304
				c-0.022-0.091-0.059-0.168-0.11-0.23c-0.052-0.063-0.121-0.112-0.207-0.146c-0.086-0.034-0.192-0.052-0.319-0.052
				c-0.071,0-0.142,0.006-0.212,0.019s-0.139,0.03-0.205,0.052c-0.066,0.022-0.129,0.048-0.189,0.077
				c-0.061,0.03-0.115,0.062-0.165,0.097c0,0.247,0.016,0.453,0.047,0.62c0.031,0.166,0.078,0.3,0.138,0.4s0.135,0.172,0.225,0.215
				c0.09,0.043,0.195,0.064,0.316,0.064c0.123,0,0.229-0.022,0.319-0.068c0.09-0.046,0.165-0.107,0.224-0.186
				c0.06-0.077,0.103-0.164,0.131-0.261C115.368,174.544,115.382,174.445,115.382,174.344z"/>
		</g>
	</g>
</g>
<g>
	<g>
		<g>
			<path fill="#595959" d="M119.687,172.891c-0.44,0.038-1.379,0.058-2.815,0.058v-2.222h2.617v0.376h-2.192v1.47h0.37
				c0.922,0,1.586-0.016,1.992-0.046L119.687,172.891z M117.453,175.894v-1.358h2.934v-0.539h-2.934v-0.382h3.355v1.292h-2.933
				v0.605h3.082v0.382H117.453z M120.809,172.173v1.134h-0.428v-2.827h0.428v1.312h0.836v0.381H120.809z"/>
		</g>
	</g>
</g>
<g>
	<g>
		<g>
			<path fill="#595959" d="M185.069,175.305c0,0.036-0.003,0.067-0.009,0.092c-0.006,0.025-0.014,0.045-0.023,0.061
				s-0.021,0.026-0.032,0.033c-0.013,0.007-0.025,0.01-0.039,0.01h-1.94c-0.014,0-0.026-0.003-0.037-0.01
				c-0.012-0.007-0.022-0.018-0.033-0.033s-0.019-0.035-0.024-0.061c-0.006-0.024-0.009-0.056-0.009-0.092
				c0-0.034,0.003-0.063,0.009-0.089c0.006-0.024,0.013-0.046,0.021-0.062c0.009-0.017,0.02-0.029,0.031-0.037
				c0.013-0.009,0.026-0.014,0.042-0.014h0.775v-2.824l-0.718,0.428c-0.037,0.02-0.065,0.031-0.088,0.034
				c-0.021,0.004-0.04,0-0.053-0.013c-0.014-0.013-0.022-0.033-0.027-0.062s-0.008-0.065-0.008-0.109
				c0-0.032,0.002-0.06,0.005-0.083c0.003-0.022,0.007-0.042,0.013-0.058c0.006-0.015,0.014-0.028,0.024-0.04
				s0.024-0.022,0.042-0.034l0.855-0.549c0.007-0.005,0.017-0.01,0.028-0.014s0.025-0.008,0.043-0.012s0.037-0.006,0.061-0.007
				c0.022-0.001,0.052-0.002,0.086-0.002c0.046,0,0.084,0.002,0.114,0.006c0.031,0.004,0.055,0.009,0.072,0.016
				s0.028,0.016,0.034,0.026s0.009,0.021,0.009,0.033v3.263h0.672c0.015,0,0.029,0.005,0.043,0.014
				c0.014,0.008,0.024,0.021,0.033,0.037c0.009,0.016,0.015,0.037,0.02,0.062C185.066,175.242,185.069,175.271,185.069,175.305z"/>
			<path fill="#595959" d="M188.04,175.288c0,0.035-0.003,0.065-0.008,0.093c-0.004,0.026-0.011,0.049-0.02,0.067
				c-0.009,0.018-0.021,0.031-0.034,0.04c-0.015,0.009-0.03,0.013-0.048,0.013h-2.052c-0.027,0-0.051-0.003-0.07-0.01
				c-0.021-0.007-0.038-0.018-0.052-0.033c-0.015-0.016-0.025-0.037-0.032-0.066c-0.007-0.028-0.01-0.063-0.01-0.105
				c0-0.039,0.002-0.072,0.005-0.101c0.003-0.029,0.009-0.055,0.019-0.076c0.01-0.022,0.022-0.044,0.037-0.066
				c0.015-0.021,0.034-0.045,0.058-0.07l0.742-0.764c0.172-0.176,0.31-0.334,0.413-0.474s0.184-0.267,0.239-0.382
				c0.057-0.114,0.094-0.219,0.111-0.312s0.026-0.182,0.026-0.264c0-0.083-0.014-0.16-0.041-0.234
				c-0.028-0.073-0.068-0.138-0.12-0.193c-0.053-0.056-0.118-0.1-0.197-0.132c-0.079-0.033-0.17-0.049-0.272-0.049
				c-0.12,0-0.229,0.016-0.324,0.049c-0.096,0.032-0.18,0.067-0.252,0.105c-0.072,0.039-0.132,0.074-0.181,0.106
				c-0.048,0.032-0.084,0.049-0.107,0.049c-0.015,0-0.026-0.004-0.037-0.012s-0.021-0.02-0.027-0.037s-0.012-0.04-0.016-0.068
				c-0.004-0.029-0.006-0.063-0.006-0.104c0-0.029,0.001-0.054,0.003-0.075c0.001-0.021,0.005-0.039,0.01-0.055
				c0.005-0.015,0.011-0.029,0.019-0.043c0.008-0.013,0.022-0.03,0.046-0.05c0.022-0.021,0.062-0.048,0.119-0.082
				s0.127-0.068,0.212-0.102c0.086-0.033,0.18-0.062,0.281-0.085c0.103-0.022,0.211-0.034,0.323-0.034
				c0.18,0,0.338,0.025,0.473,0.076s0.246,0.12,0.336,0.208c0.089,0.088,0.155,0.19,0.199,0.307
				c0.044,0.117,0.065,0.241,0.065,0.373c0,0.119-0.01,0.237-0.031,0.354c-0.021,0.118-0.065,0.245-0.134,0.382
				c-0.067,0.137-0.166,0.289-0.294,0.457c-0.128,0.167-0.299,0.36-0.511,0.578l-0.589,0.614h1.616c0.016,0,0.03,0.004,0.045,0.013
				c0.014,0.009,0.026,0.021,0.037,0.039c0.011,0.017,0.019,0.038,0.022,0.064C188.037,175.223,188.04,175.253,188.04,175.288z"/>
		</g>
	</g>
</g>
<g>
	<g>
		<g>
			<path fill="#595959" d="M191.942,172.891c-0.44,0.038-1.379,0.058-2.815,0.058v-2.222h2.617v0.376h-2.192v1.47h0.37
				c0.922,0,1.586-0.016,1.992-0.046L191.942,172.891z M189.709,175.894v-1.358h2.934v-0.539h-2.934v-0.382h3.355v1.292h-2.933
				v0.605h3.082v0.382H189.709z M193.064,172.173v1.134h-0.428v-2.827h0.428v1.312h0.836v0.381H193.064z"/>
		</g>
	</g>
</g>
<g>
</g>
<g>
</g>
<g>
</g>
<g>
</g>
<g>
</g>
<g>
</g>
</svg>
