<?xml version="1.0" encoding="utf-8"?>
<!-- Generator: Adobe Illustrator 28.0.0, SVG Export Plug-In . SVG Version: 6.00 Build 0)  -->
<svg version="1.1" id="레이어_1" xmlns="http://www.w3.org/2000/svg" xmlns:xlink="http://www.w3.org/1999/xlink" x="0px"
	 y="0px" viewBox="0 0 404.773 293.457" enable-background="new 0 0 404.773 293.457" xml:space="preserve">
<line fill="#FFFFFF" stroke="#000000" stroke-width="2.0026" stroke-miterlimit="10" x1="47.894" y1="237.044" x2="366.152" y2="237.044"/>
<line fill="#FFFFFF" stroke="#000000" stroke-width="2" stroke-miterlimit="10" x1="365.313" y1="237.044" x2="365.313" y2="241.69"/>
<line fill="#FFFFFF" stroke="#000000" stroke-width="2" stroke-miterlimit="10" x1="302.965" y1="237.044" x2="302.965" y2="241.69"/>
<line fill="#FFFFFF" stroke="#000000" stroke-width="2" stroke-miterlimit="10" x1="240.617" y1="237.044" x2="240.617" y2="241.69"/>
<line fill="#FFFFFF" stroke="#000000" stroke-width="2" stroke-miterlimit="10" x1="178.268" y1="237.044" x2="178.268" y2="241.69"/>
<line fill="#FFFFFF" stroke="#000000" stroke-width="2" stroke-miterlimit="10" x1="115.92" y1="237.044" x2="115.92" y2="241.69"/>
<polyline fill="#FFFFFF" stroke="#000000" stroke-width="2" stroke-miterlimit="10" points="53.571,241.69 53.571,237.044 
	53.571,29.044 53.571,241.69 "/>
<g>
	<path fill="none" stroke="#C30F23" stroke-width="2" stroke-miterlimit="10" d="M130.733,95.319
		c1.532,3.356,3.914,8.653,6.71,15.226c4.389,10.32,5.118,12.781,9.29,22.71c4.627,11.01,8.148,18.49,10.581,23.484
		c4.797,9.847,7.426,14.255,10.581,18.581c3.117,4.274,5.812,7.185,8,9.548c3.901,4.214,5.91,6.355,8.774,8
		c4.655,2.674,9.052,3.153,11.097,3.355c3.021,0.298,6.958-0.313,14.71-1.548c6.726-1.072,7.105-1.327,11.097-1.806
		c3.627-0.435,7.399-0.888,11.613-0.774c2.695,0.073,5.231,0.368,16.258,3.097c10.078,2.494,10.39,2.85,17.032,4.387
		c5.158,1.194,9.726,2.251,16,3.097c6.644,0.896,11.992,1.121,16,1.29c4.864,0.205,9.764,0.238,12.645,0.258
		c2.659,0.018,4.879,0.011,6.452,0"/>
	<path fill="none" stroke="#1D2088" stroke-width="2" stroke-miterlimit="10" d="M131.765,84.528
		c3.388,8.465,6.323,15.485,8.516,20.645c3.347,7.873,2.877,6.484,6.71,15.484c4.588,10.772,5.242,12.728,7.742,17.548
		c2.158,4.161,2.034,3.404,6.194,11.097c3.345,6.187,4.087,7.9,6.452,11.613c1.658,2.604,3.483,5.442,6.452,8.774
		c2.449,2.749,4.406,4.946,7.742,6.968c3.505,2.124,6.63,2.901,8.516,3.355c5.266,1.266,9.594,0.959,11.355,0.774
		c5.018-0.526,5.392-1.75,15.742-4.645c4.241-1.186,6.42-1.785,9.29-2.065c3.644-0.354,6.702-0.115,11.097,0.516
		c8.435,1.211,14.923,2.874,16.774,3.355c16.123,4.184,15.75,4.599,23.742,6.452c8.921,2.068,16.054,3.097,21.419,3.871
		c6.97,1.006,13.086,1.644,18.065,2.065"/>
	<path fill="none" stroke="#009944" stroke-width="2" stroke-miterlimit="10" d="M131.765,129.69c0,0,38.194-11.613,66.839,14.194
		c10.625,9.214,20.817,14.377,27.871,17.29c2.397,0.99,19.122,7.76,36.129,8c1.831,0.026,7.772,0.034,16,0.516
		c5.413,0.317,8.177,0.479,12.129,1.032c6.281,0.879,8.268,1.725,15.226,2.839c4.512,0.722,8.213,1.092,10.581,1.29"/>
</g>
<line fill="#FFFFFF" stroke="#000000" stroke-width="2" stroke-miterlimit="10" x1="46.604" y1="29.044" x2="54.539" y2="29.044"/>
<line fill="#FFFFFF" stroke="#000000" stroke-width="2" stroke-miterlimit="10" x1="46.604" y1="81.044" x2="54.539" y2="81.044"/>
<line fill="#FFFFFF" stroke="#000000" stroke-width="2" stroke-miterlimit="10" x1="46.604" y1="133.044" x2="54.539" y2="133.044"/>
<line fill="#FFFFFF" stroke="#000000" stroke-width="2" stroke-miterlimit="10" x1="46.604" y1="185.044" x2="54.539" y2="185.044"/>
<g>
	<path stroke="#000000" stroke-width="0.5" stroke-miterlimit="10" d="M7.405,190.438c-0.775,0-1.418-0.238-1.931-0.714
		s-0.817-1.149-0.913-2.02v-0.007h1.634v0.007c0.045,0.365,0.175,0.648,0.39,0.851s0.492,0.304,0.834,0.304
		c0.387,0,0.687-0.129,0.899-0.386s0.318-0.619,0.318-1.083v-0.834c0-0.465-0.102-0.825-0.304-1.08s-0.489-0.383-0.858-0.383
		c-0.255,0-0.486,0.068-0.694,0.205s-0.37,0.328-0.489,0.574H4.78v-5.476h5.202v1.565H6.414v1.996
		c0.16-0.141,0.353-0.25,0.581-0.328s0.458-0.116,0.69-0.116c0.82,0,1.456,0.266,1.907,0.796s0.677,1.279,0.677,2.246v0.834
		c0,0.971-0.25,1.722-0.749,2.252S8.317,190.438,7.405,190.438z"/>
	<path stroke="#000000" stroke-width="0.5" stroke-miterlimit="10" d="M15.089,190.438c-0.966,0-1.692-0.254-2.177-0.762
		s-0.728-1.195-0.728-2.061v-4.519c0-0.879,0.245-1.57,0.735-2.071s1.213-0.752,2.17-0.752c0.961,0,1.686,0.25,2.174,0.749
		s0.731,1.19,0.731,2.075v4.519c0,0.879-0.245,1.57-0.735,2.071S16.046,190.438,15.089,190.438z M15.089,188.872
		c0.451,0,0.776-0.133,0.974-0.4s0.297-0.632,0.297-1.097v-4.04c0-0.469-0.099-0.836-0.297-1.101s-0.523-0.396-0.974-0.396
		s-0.776,0.132-0.974,0.396s-0.297,0.631-0.297,1.101v4.04c0,0.465,0.099,0.831,0.297,1.097S14.638,188.872,15.089,188.872z"/>
	<path stroke="#000000" stroke-width="0.5" stroke-miterlimit="10" d="M19.293,192.652v-3.985h1.668v2.331L19.293,192.652z"/>
	<path stroke="#000000" stroke-width="0.5" stroke-miterlimit="10" d="M25.165,190.438c-0.966,0-1.692-0.254-2.177-0.762
		s-0.728-1.195-0.728-2.061v-4.519c0-0.879,0.245-1.57,0.735-2.071s1.213-0.752,2.17-0.752c0.961,0,1.686,0.25,2.174,0.749
		s0.731,1.19,0.731,2.075v4.519c0,0.879-0.245,1.57-0.735,2.071S26.122,190.438,25.165,190.438z M25.165,188.872
		c0.451,0,0.776-0.133,0.974-0.4s0.297-0.632,0.297-1.097v-4.04c0-0.469-0.099-0.836-0.297-1.101s-0.523-0.396-0.974-0.396
		s-0.776,0.132-0.974,0.396s-0.297,0.631-0.297,1.101v4.04c0,0.465,0.099,0.831,0.297,1.097S24.714,188.872,25.165,188.872z"/>
	<path stroke="#000000" stroke-width="0.5" stroke-miterlimit="10" d="M32.616,190.438c-0.966,0-1.692-0.254-2.177-0.762
		s-0.728-1.195-0.728-2.061v-4.519c0-0.879,0.245-1.57,0.735-2.071s1.213-0.752,2.17-0.752c0.961,0,1.686,0.25,2.174,0.749
		s0.731,1.19,0.731,2.075v4.519c0,0.879-0.245,1.57-0.735,2.071S33.573,190.438,32.616,190.438z M32.616,188.872
		c0.451,0,0.776-0.133,0.974-0.4s0.297-0.632,0.297-1.097v-4.04c0-0.469-0.099-0.836-0.297-1.101s-0.523-0.396-0.974-0.396
		s-0.776,0.132-0.974,0.396s-0.297,0.631-0.297,1.101v4.04c0,0.465,0.099,0.831,0.297,1.097S32.165,188.872,32.616,188.872z"/>
	<path stroke="#000000" stroke-width="0.5" stroke-miterlimit="10" d="M40.067,190.438c-0.966,0-1.692-0.254-2.177-0.762
		s-0.728-1.195-0.728-2.061v-4.519c0-0.879,0.245-1.57,0.735-2.071s1.213-0.752,2.17-0.752c0.961,0,1.686,0.25,2.174,0.749
		s0.731,1.19,0.731,2.075v4.519c0,0.879-0.245,1.57-0.735,2.071S41.024,190.438,40.067,190.438z M40.067,188.872
		c0.451,0,0.776-0.133,0.974-0.4s0.297-0.632,0.297-1.097v-4.04c0-0.469-0.099-0.836-0.297-1.101s-0.523-0.396-0.974-0.396
		s-0.776,0.132-0.974,0.396s-0.297,0.631-0.297,1.101v4.04c0,0.465,0.099,0.831,0.297,1.097S39.616,188.872,40.067,188.872z"/>
</g>
<g>
	<path stroke="#000000" stroke-width="0.5" stroke-miterlimit="10" d="M41.461,241.792c-0.966,0-1.692-0.254-2.177-0.762
		s-0.728-1.195-0.728-2.061v-4.519c0-0.879,0.245-1.57,0.735-2.071s1.213-0.752,2.17-0.752c0.961,0,1.686,0.25,2.174,0.749
		s0.731,1.19,0.731,2.075v4.519c0,0.879-0.245,1.57-0.735,2.071S42.418,241.792,41.461,241.792z M41.461,240.227
		c0.451,0,0.776-0.133,0.974-0.4s0.297-0.632,0.297-1.097v-4.04c0-0.469-0.099-0.836-0.297-1.101s-0.523-0.396-0.974-0.396
		s-0.776,0.132-0.974,0.396s-0.297,0.631-0.297,1.101v4.04c0,0.465,0.099,0.831,0.297,1.097S41.01,240.227,41.461,240.227z"/>
</g>
<g>
	<path stroke="#000000" stroke-width="0.5" stroke-miterlimit="10" d="M116.339,258.364c-0.966,0-1.692-0.254-2.177-0.762
		s-0.728-1.195-0.728-2.061v-4.519c0-0.879,0.245-1.57,0.735-2.071s1.213-0.752,2.17-0.752c0.961,0,1.686,0.25,2.174,0.749
		s0.731,1.19,0.731,2.075v4.519c0,0.879-0.245,1.57-0.735,2.071S117.296,258.364,116.339,258.364z M116.339,256.799
		c0.451,0,0.776-0.133,0.974-0.4s0.297-0.632,0.297-1.097v-4.04c0-0.469-0.099-0.836-0.297-1.101s-0.523-0.396-0.974-0.396
		s-0.776,0.132-0.974,0.396s-0.297,0.631-0.297,1.101v4.04c0,0.465,0.099,0.831,0.297,1.097S115.888,256.799,116.339,256.799z"/>
</g>
<g>
	<path stroke="#000000" stroke-width="0.5" stroke-miterlimit="10" d="M172.123,258.262v-1.449l3.438-4.553
		c0.178-0.232,0.315-0.472,0.414-0.718s0.147-0.479,0.147-0.697v-0.014c0-0.333-0.102-0.59-0.304-0.772s-0.491-0.273-0.865-0.273
		c-0.355,0-0.645,0.11-0.868,0.332s-0.358,0.534-0.403,0.94v0.007H172v-0.007c0.096-0.902,0.403-1.601,0.923-2.095
		s1.192-0.742,2.017-0.742c0.912,0,1.618,0.226,2.119,0.677s0.752,1.089,0.752,1.914v0.007c0,0.401-0.076,0.809-0.229,1.224
		s-0.363,0.8-0.632,1.155l-2.666,3.5h3.582v1.565H172.123z"/>
	<path stroke="#000000" stroke-width="0.5" stroke-miterlimit="10" d="M182.411,258.364c-0.967,0-1.692-0.254-2.178-0.762
		c-0.485-0.508-0.728-1.195-0.728-2.061v-4.519c0-0.879,0.245-1.57,0.734-2.071c0.49-0.501,1.214-0.752,2.171-0.752
		c0.961,0,1.686,0.25,2.174,0.749c0.487,0.499,0.731,1.19,0.731,2.075v4.519c0,0.879-0.245,1.57-0.735,2.071
		C184.091,258.114,183.368,258.364,182.411,258.364z M182.411,256.799c0.451,0,0.775-0.133,0.974-0.4s0.298-0.632,0.298-1.097v-4.04
		c0-0.469-0.1-0.836-0.298-1.101s-0.522-0.396-0.974-0.396s-0.776,0.132-0.975,0.396s-0.297,0.631-0.297,1.101v4.04
		c0,0.465,0.099,0.831,0.297,1.097S181.959,256.799,182.411,256.799z"/>
</g>
<g>
	<path stroke="#000000" stroke-width="0.5" stroke-miterlimit="10" d="M234.587,256.737v-1.463l3.199-6.945h1.777l-3.117,6.863
		h4.669v1.545H234.587z M238.737,258.269v-5.852h1.613v5.852H238.737z"/>
	<path stroke="#000000" stroke-width="0.5" stroke-miterlimit="10" d="M245.593,258.364c-0.966,0-1.691-0.254-2.177-0.762
		s-0.729-1.195-0.729-2.061v-4.519c0-0.879,0.245-1.57,0.735-2.071c0.489-0.501,1.213-0.752,2.17-0.752
		c0.962,0,1.687,0.25,2.174,0.749c0.488,0.499,0.731,1.19,0.731,2.075v4.519c0,0.879-0.245,1.57-0.734,2.071
		C247.274,258.114,246.55,258.364,245.593,258.364z M245.593,256.799c0.451,0,0.776-0.133,0.975-0.4s0.297-0.632,0.297-1.097v-4.04
		c0-0.469-0.099-0.836-0.297-1.101s-0.523-0.396-0.975-0.396s-0.775,0.132-0.974,0.396s-0.298,0.631-0.298,1.101v4.04
		c0,0.465,0.1,0.831,0.298,1.097S245.142,256.799,245.593,256.799z"/>
</g>
<g>
	<path stroke="#000000" stroke-width="0.5" stroke-miterlimit="10" d="M298.517,258.364c-0.897,0-1.595-0.262-2.092-0.786
		c-0.496-0.524-0.745-1.262-0.745-2.215v-0.007c0-0.428,0.061-0.882,0.182-1.36c0.12-0.479,0.29-0.943,0.509-1.395l2.092-4.279
		h1.805l-2.461,4.956l-0.232-0.246c0.237-0.451,0.659-0.677,1.265-0.677c0.803,0,1.423,0.259,1.863,0.776
		c0.439,0.517,0.659,1.248,0.659,2.191v0.007c0,0.961-0.248,1.708-0.745,2.239C300.12,258.099,299.419,258.364,298.517,258.364z
		 M298.517,256.792c0.393,0,0.691-0.116,0.899-0.349c0.207-0.232,0.311-0.565,0.311-0.998v-0.007c0-0.483-0.106-0.855-0.321-1.118
		c-0.214-0.262-0.521-0.393-0.923-0.393c-0.369,0-0.656,0.132-0.861,0.396s-0.308,0.638-0.308,1.121v0.007
		c0,0.433,0.105,0.765,0.314,0.995C297.838,256.677,298.134,256.792,298.517,256.792z"/>
	<path stroke="#000000" stroke-width="0.5" stroke-miterlimit="10" d="M305.975,258.364c-0.966,0-1.691-0.254-2.177-0.762
		s-0.729-1.195-0.729-2.061v-4.519c0-0.879,0.245-1.57,0.735-2.071c0.489-0.501,1.213-0.752,2.17-0.752
		c0.962,0,1.687,0.25,2.174,0.749c0.488,0.499,0.731,1.19,0.731,2.075v4.519c0,0.879-0.245,1.57-0.734,2.071
		C307.656,258.114,306.932,258.364,305.975,258.364z M305.975,256.799c0.451,0,0.776-0.133,0.975-0.4s0.297-0.632,0.297-1.097v-4.04
		c0-0.469-0.099-0.836-0.297-1.101s-0.523-0.396-0.975-0.396s-0.775,0.132-0.974,0.396s-0.298,0.631-0.298,1.101v4.04
		c0,0.465,0.1,0.831,0.298,1.097S305.524,256.799,305.975,256.799z"/>
</g>
<g>
	<path stroke="#000000" stroke-width="0.5" stroke-miterlimit="10" d="M361.832,258.364c-0.619,0-1.161-0.114-1.623-0.342
		c-0.463-0.228-0.821-0.549-1.077-0.964c-0.255-0.415-0.383-0.9-0.383-1.456v-0.164c0-0.497,0.13-0.964,0.39-1.401
		s0.608-0.768,1.046-0.991c-0.364-0.191-0.66-0.467-0.889-0.827c-0.228-0.36-0.342-0.741-0.342-1.142v-0.246
		c0-0.789,0.263-1.421,0.786-1.897c0.524-0.476,1.222-0.714,2.092-0.714c0.871,0,1.568,0.238,2.092,0.714
		c0.524,0.476,0.786,1.108,0.786,1.897v0.246c0,0.41-0.115,0.794-0.345,1.152c-0.23,0.358-0.532,0.63-0.906,0.817
		c0.442,0.223,0.796,0.554,1.06,0.991c0.265,0.438,0.396,0.905,0.396,1.401v0.164c0,0.556-0.127,1.042-0.383,1.456
		c-0.255,0.415-0.614,0.736-1.076,0.964C362.993,258.25,362.452,258.364,361.832,258.364z M361.832,256.792
		c0.438,0,0.79-0.126,1.057-0.379s0.399-0.584,0.399-0.995v-0.096c0-0.401-0.133-0.724-0.399-0.967s-0.619-0.366-1.057-0.366
		s-0.789,0.122-1.056,0.366s-0.4,0.568-0.4,0.974v0.103c0,0.41,0.134,0.739,0.4,0.988S361.394,256.792,361.832,256.792z
		 M361.832,252.417c0.374,0,0.675-0.119,0.902-0.355c0.229-0.237,0.342-0.554,0.342-0.95v-0.096c0-0.369-0.113-0.666-0.342-0.889
		c-0.228-0.223-0.528-0.335-0.902-0.335c-0.373,0-0.674,0.112-0.902,0.335c-0.228,0.223-0.342,0.522-0.342,0.896v0.103
		c0,0.387,0.114,0.7,0.342,0.937C361.158,252.298,361.458,252.417,361.832,252.417z"/>
	<path stroke="#000000" stroke-width="0.5" stroke-miterlimit="10" d="M369.631,258.364c-0.966,0-1.691-0.254-2.177-0.762
		s-0.729-1.195-0.729-2.061v-4.519c0-0.879,0.245-1.57,0.735-2.071c0.489-0.501,1.213-0.752,2.17-0.752
		c0.962,0,1.687,0.25,2.174,0.749c0.488,0.499,0.731,1.19,0.731,2.075v4.519c0,0.879-0.245,1.57-0.734,2.071
		C371.312,258.114,370.588,258.364,369.631,258.364z M369.631,256.799c0.451,0,0.776-0.133,0.975-0.4s0.297-0.632,0.297-1.097v-4.04
		c0-0.469-0.099-0.836-0.297-1.101s-0.523-0.396-0.975-0.396s-0.775,0.132-0.974,0.396s-0.298,0.631-0.298,1.101v4.04
		c0,0.465,0.1,0.831,0.298,1.097S369.18,256.799,369.631,256.799z"/>
</g>
<g>
	<path stroke="#000000" stroke-width="0.5" stroke-miterlimit="10" d="M3.743,129.589v9.939H2.109v-8.08l-1.312,0.663v-1.716
		l1.449-0.807H3.743z"/>
	<path stroke="#000000" stroke-width="0.5" stroke-miterlimit="10" d="M8.768,139.631c-0.966,0-1.692-0.254-2.177-0.762
		s-0.728-1.195-0.728-2.061v-4.519c0-0.879,0.245-1.57,0.735-2.071s1.213-0.752,2.17-0.752c0.961,0,1.686,0.25,2.174,0.749
		s0.731,1.19,0.731,2.075v4.519c0,0.879-0.245,1.57-0.735,2.071S9.725,139.631,8.768,139.631z M8.768,138.065
		c0.451,0,0.776-0.133,0.974-0.4s0.297-0.632,0.297-1.097v-4.04c0-0.469-0.099-0.836-0.297-1.101s-0.523-0.396-0.974-0.396
		s-0.776,0.132-0.974,0.396s-0.297,0.631-0.297,1.101v4.04c0,0.465,0.099,0.831,0.297,1.097S8.316,138.065,8.768,138.065z"/>
	<path stroke="#000000" stroke-width="0.5" stroke-miterlimit="10" d="M16.219,139.631c-0.966,0-1.692-0.254-2.177-0.762
		s-0.728-1.195-0.728-2.061v-4.519c0-0.879,0.245-1.57,0.735-2.071s1.213-0.752,2.17-0.752c0.961,0,1.686,0.25,2.174,0.749
		s0.731,1.19,0.731,2.075v4.519c0,0.879-0.245,1.57-0.735,2.071S17.176,139.631,16.219,139.631z M16.219,138.065
		c0.451,0,0.776-0.133,0.974-0.4s0.297-0.632,0.297-1.097v-4.04c0-0.469-0.099-0.836-0.297-1.101s-0.523-0.396-0.974-0.396
		s-0.776,0.132-0.974,0.396s-0.297,0.631-0.297,1.101v4.04c0,0.465,0.099,0.831,0.297,1.097S15.768,138.065,16.219,138.065z"/>
	<path stroke="#000000" stroke-width="0.5" stroke-miterlimit="10" d="M20.423,141.846v-3.985h1.668v2.331L20.423,141.846z"/>
	<path stroke="#000000" stroke-width="0.5" stroke-miterlimit="10" d="M26.295,139.631c-0.966,0-1.692-0.254-2.177-0.762
		s-0.728-1.195-0.728-2.061v-4.519c0-0.879,0.245-1.57,0.735-2.071s1.213-0.752,2.17-0.752c0.961,0,1.686,0.25,2.174,0.749
		s0.731,1.19,0.731,2.075v4.519c0,0.879-0.245,1.57-0.735,2.071S27.252,139.631,26.295,139.631z M26.295,138.065
		c0.451,0,0.776-0.133,0.974-0.4s0.297-0.632,0.297-1.097v-4.04c0-0.469-0.099-0.836-0.297-1.101s-0.523-0.396-0.974-0.396
		s-0.776,0.132-0.974,0.396s-0.297,0.631-0.297,1.101v4.04c0,0.465,0.099,0.831,0.297,1.097S25.844,138.065,26.295,138.065z"/>
	<path stroke="#000000" stroke-width="0.5" stroke-miterlimit="10" d="M33.746,139.631c-0.966,0-1.692-0.254-2.177-0.762
		s-0.728-1.195-0.728-2.061v-4.519c0-0.879,0.245-1.57,0.735-2.071s1.213-0.752,2.17-0.752c0.961,0,1.686,0.25,2.174,0.749
		s0.731,1.19,0.731,2.075v4.519c0,0.879-0.245,1.57-0.735,2.071S34.703,139.631,33.746,139.631z M33.746,138.065
		c0.451,0,0.776-0.133,0.974-0.4s0.297-0.632,0.297-1.097v-4.04c0-0.469-0.099-0.836-0.297-1.101s-0.523-0.396-0.974-0.396
		s-0.776,0.132-0.974,0.396s-0.297,0.631-0.297,1.101v4.04c0,0.465,0.099,0.831,0.297,1.097S33.295,138.065,33.746,138.065z"/>
	<path stroke="#000000" stroke-width="0.5" stroke-miterlimit="10" d="M41.197,139.631c-0.966,0-1.692-0.254-2.177-0.762
		s-0.728-1.195-0.728-2.061v-4.519c0-0.879,0.245-1.57,0.735-2.071s1.213-0.752,2.17-0.752c0.961,0,1.686,0.25,2.174,0.749
		s0.731,1.19,0.731,2.075v4.519c0,0.879-0.245,1.57-0.735,2.071S42.154,139.631,41.197,139.631z M41.197,138.065
		c0.451,0,0.776-0.133,0.974-0.4s0.297-0.632,0.297-1.097v-4.04c0-0.469-0.099-0.836-0.297-1.101s-0.523-0.396-0.974-0.396
		s-0.776,0.132-0.974,0.396s-0.297,0.631-0.297,1.101v4.04c0,0.465,0.099,0.831,0.297,1.097S40.746,138.065,41.197,138.065z"/>
</g>
<g>
	<path stroke="#000000" stroke-width="0.5" stroke-miterlimit="10" d="M3.743,76.686v9.939H2.109v-8.08l-1.312,0.663v-1.716
		l1.449-0.807H3.743z"/>
	<path stroke="#000000" stroke-width="0.5" stroke-miterlimit="10" d="M8.706,86.728c-0.775,0-1.418-0.238-1.931-0.714
		s-0.817-1.149-0.913-2.02v-0.007h1.634v0.007c0.045,0.365,0.175,0.648,0.39,0.851s0.492,0.304,0.834,0.304
		c0.387,0,0.687-0.129,0.899-0.386s0.318-0.619,0.318-1.083v-0.834c0-0.465-0.102-0.825-0.304-1.08s-0.489-0.383-0.858-0.383
		c-0.255,0-0.486,0.068-0.694,0.205s-0.37,0.328-0.489,0.574H6.081v-5.476h5.202v1.565H7.715v1.996
		c0.16-0.141,0.353-0.25,0.581-0.328s0.458-0.116,0.69-0.116c0.82,0,1.456,0.266,1.907,0.796s0.677,1.279,0.677,2.246v0.834
		c0,0.971-0.25,1.722-0.749,2.252S9.618,86.728,8.706,86.728z"/>
	<path stroke="#000000" stroke-width="0.5" stroke-miterlimit="10" d="M16.39,86.728c-0.966,0-1.692-0.254-2.177-0.762
		s-0.728-1.195-0.728-2.061v-4.519c0-0.879,0.245-1.57,0.735-2.071s1.213-0.752,2.17-0.752c0.961,0,1.686,0.25,2.174,0.749
		s0.731,1.19,0.731,2.075v4.519c0,0.879-0.245,1.57-0.735,2.071S17.347,86.728,16.39,86.728z M16.39,85.162
		c0.451,0,0.776-0.133,0.974-0.4s0.297-0.632,0.297-1.097v-4.04c0-0.469-0.099-0.836-0.297-1.101s-0.523-0.396-0.974-0.396
		s-0.776,0.132-0.974,0.396s-0.297,0.631-0.297,1.101v4.04c0,0.465,0.099,0.831,0.297,1.097S15.938,85.162,16.39,85.162z"/>
	<path stroke="#000000" stroke-width="0.5" stroke-miterlimit="10" d="M20.594,88.942v-3.985h1.668v2.331L20.594,88.942z"/>
	<path stroke="#000000" stroke-width="0.5" stroke-miterlimit="10" d="M26.466,86.728c-0.966,0-1.692-0.254-2.177-0.762
		s-0.728-1.195-0.728-2.061v-4.519c0-0.879,0.245-1.57,0.735-2.071s1.213-0.752,2.17-0.752c0.961,0,1.686,0.25,2.174,0.749
		s0.731,1.19,0.731,2.075v4.519c0,0.879-0.245,1.57-0.735,2.071S27.423,86.728,26.466,86.728z M26.466,85.162
		c0.451,0,0.776-0.133,0.974-0.4s0.297-0.632,0.297-1.097v-4.04c0-0.469-0.099-0.836-0.297-1.101s-0.523-0.396-0.974-0.396
		s-0.776,0.132-0.974,0.396s-0.297,0.631-0.297,1.101v4.04c0,0.465,0.099,0.831,0.297,1.097S26.015,85.162,26.466,85.162z"/>
	<path stroke="#000000" stroke-width="0.5" stroke-miterlimit="10" d="M33.917,86.728c-0.966,0-1.692-0.254-2.177-0.762
		s-0.728-1.195-0.728-2.061v-4.519c0-0.879,0.245-1.57,0.735-2.071s1.213-0.752,2.17-0.752c0.961,0,1.686,0.25,2.174,0.749
		s0.731,1.19,0.731,2.075v4.519c0,0.879-0.245,1.57-0.735,2.071S34.874,86.728,33.917,86.728z M33.917,85.162
		c0.451,0,0.776-0.133,0.974-0.4s0.297-0.632,0.297-1.097v-4.04c0-0.469-0.099-0.836-0.297-1.101s-0.523-0.396-0.974-0.396
		s-0.776,0.132-0.974,0.396s-0.297,0.631-0.297,1.101v4.04c0,0.465,0.099,0.831,0.297,1.097S33.466,85.162,33.917,85.162z"/>
	<path stroke="#000000" stroke-width="0.5" stroke-miterlimit="10" d="M41.368,86.728c-0.966,0-1.692-0.254-2.177-0.762
		s-0.728-1.195-0.728-2.061v-4.519c0-0.879,0.245-1.57,0.735-2.071s1.213-0.752,2.17-0.752c0.961,0,1.686,0.25,2.174,0.749
		s0.731,1.19,0.731,2.075v4.519c0,0.879-0.245,1.57-0.735,2.071S42.325,86.728,41.368,86.728z M41.368,85.162
		c0.451,0,0.776-0.133,0.974-0.4s0.297-0.632,0.297-1.097v-4.04c0-0.469-0.099-0.836-0.297-1.101s-0.523-0.396-0.974-0.396
		s-0.776,0.132-0.974,0.396s-0.297,0.631-0.297,1.101v4.04c0,0.465,0.099,0.831,0.297,1.097S40.917,85.162,41.368,85.162z"/>
</g>
<g>
	<path stroke="#000000" stroke-width="0.5" stroke-miterlimit="10" d="M1.057,34.374v-1.449l3.438-4.553
		c0.178-0.232,0.315-0.472,0.414-0.718s0.147-0.479,0.147-0.697v-0.014c0-0.333-0.102-0.59-0.304-0.772s-0.491-0.273-0.865-0.273
		c-0.355,0-0.645,0.11-0.868,0.332s-0.358,0.534-0.403,0.94v0.007H0.934v-0.007c0.096-0.902,0.403-1.601,0.923-2.095
		s1.192-0.742,2.017-0.742c0.912,0,1.618,0.226,2.119,0.677s0.752,1.089,0.752,1.914v0.007c0,0.401-0.076,0.809-0.229,1.224
		s-0.363,0.8-0.632,1.155l-2.666,3.5h3.582v1.565H1.057z"/>
	<path stroke="#000000" stroke-width="0.5" stroke-miterlimit="10" d="M11.345,34.476c-0.966,0-1.692-0.254-2.177-0.762
		s-0.728-1.195-0.728-2.061v-4.519c0-0.879,0.245-1.57,0.735-2.071s1.213-0.752,2.17-0.752c0.961,0,1.686,0.25,2.174,0.749
		s0.731,1.19,0.731,2.075v4.519c0,0.879-0.245,1.57-0.735,2.071S12.302,34.476,11.345,34.476z M11.345,32.911
		c0.451,0,0.776-0.133,0.974-0.4s0.297-0.632,0.297-1.097v-4.04c0-0.469-0.099-0.836-0.297-1.101s-0.523-0.396-0.974-0.396
		s-0.776,0.132-0.974,0.396s-0.297,0.631-0.297,1.101v4.04c0,0.465,0.099,0.831,0.297,1.097S10.894,32.911,11.345,32.911z"/>
	<path stroke="#000000" stroke-width="0.5" stroke-miterlimit="10" d="M18.796,34.476c-0.966,0-1.692-0.254-2.177-0.762
		s-0.728-1.195-0.728-2.061v-4.519c0-0.879,0.245-1.57,0.735-2.071s1.213-0.752,2.17-0.752c0.961,0,1.686,0.25,2.174,0.749
		s0.731,1.19,0.731,2.075v4.519c0,0.879-0.245,1.57-0.735,2.071S19.753,34.476,18.796,34.476z M18.796,32.911
		c0.451,0,0.776-0.133,0.974-0.4s0.297-0.632,0.297-1.097v-4.04c0-0.469-0.099-0.836-0.297-1.101s-0.523-0.396-0.974-0.396
		s-0.776,0.132-0.974,0.396s-0.297,0.631-0.297,1.101v4.04c0,0.465,0.099,0.831,0.297,1.097S18.345,32.911,18.796,32.911z"/>
	<path stroke="#000000" stroke-width="0.5" stroke-miterlimit="10" d="M23,36.691v-3.985h1.668v2.331L23,36.691z"/>
	<path stroke="#000000" stroke-width="0.5" stroke-miterlimit="10" d="M28.872,34.476c-0.966,0-1.692-0.254-2.177-0.762
		s-0.728-1.195-0.728-2.061v-4.519c0-0.879,0.245-1.57,0.735-2.071s1.213-0.752,2.17-0.752c0.961,0,1.686,0.25,2.174,0.749
		s0.731,1.19,0.731,2.075v4.519c0,0.879-0.245,1.57-0.735,2.071S29.829,34.476,28.872,34.476z M28.872,32.911
		c0.451,0,0.776-0.133,0.974-0.4s0.297-0.632,0.297-1.097v-4.04c0-0.469-0.099-0.836-0.297-1.101s-0.523-0.396-0.974-0.396
		s-0.776,0.132-0.974,0.396s-0.297,0.631-0.297,1.101v4.04c0,0.465,0.099,0.831,0.297,1.097S28.421,32.911,28.872,32.911z"/>
	<path stroke="#000000" stroke-width="0.5" stroke-miterlimit="10" d="M36.323,34.476c-0.966,0-1.692-0.254-2.177-0.762
		s-0.728-1.195-0.728-2.061v-4.519c0-0.879,0.245-1.57,0.735-2.071s1.213-0.752,2.17-0.752c0.961,0,1.686,0.25,2.174,0.749
		s0.731,1.19,0.731,2.075v4.519c0,0.879-0.245,1.57-0.735,2.071S37.28,34.476,36.323,34.476z M36.323,32.911
		c0.451,0,0.776-0.133,0.974-0.4s0.297-0.632,0.297-1.097v-4.04c0-0.469-0.099-0.836-0.297-1.101s-0.523-0.396-0.974-0.396
		s-0.776,0.132-0.974,0.396s-0.297,0.631-0.297,1.101v4.04c0,0.465,0.099,0.831,0.297,1.097S35.872,32.911,36.323,32.911z"/>
	<path stroke="#000000" stroke-width="0.5" stroke-miterlimit="10" d="M43.774,34.476c-0.966,0-1.692-0.254-2.177-0.762
		s-0.728-1.195-0.728-2.061v-4.519c0-0.879,0.245-1.57,0.735-2.071s1.213-0.752,2.17-0.752c0.961,0,1.686,0.25,2.174,0.749
		s0.731,1.19,0.731,2.075v4.519c0,0.879-0.245,1.57-0.735,2.071S44.731,34.476,43.774,34.476z M43.774,32.911
		c0.451,0,0.776-0.133,0.974-0.4s0.297-0.632,0.297-1.097v-4.04c0-0.469-0.099-0.836-0.297-1.101s-0.523-0.396-0.974-0.396
		s-0.776,0.132-0.974,0.396s-0.297,0.631-0.297,1.101v4.04c0,0.465,0.099,0.831,0.297,1.097S43.323,32.911,43.774,32.911z"/>
</g>
<g>
	<path d="M120.387,6.642l0.218,1.809c-1.403,0.312-3.534,0.468-6.393,0.468c-0.583,0-1.003-0.005-1.263-0.016V2.059h6.299v1.871
		h-3.882v3.056h0.327C117.669,6.985,119.233,6.871,120.387,6.642z M123.973,14.656h-9.667V10.01h2.464v2.76h7.203V14.656z
		 M125.407,6.595h-1.73v4.475h-2.463V0.982h2.463v3.633h1.73V6.595z"/>
	<path d="M132.579,5.317h-6.61V3.571h6.61V5.317z M127.076,9.644c-0.593-0.431-0.889-1.006-0.889-1.723
		c0-0.717,0.296-1.292,0.889-1.723c0.592-0.431,1.33-0.647,2.214-0.647c0.894,0,1.64,0.216,2.237,0.647
		c0.598,0.432,0.896,1.006,0.896,1.723c0,0.717-0.299,1.292-0.896,1.723c-0.598,0.432-1.344,0.647-2.237,0.647
		C128.406,10.291,127.668,10.075,127.076,9.644z M131.238,3.103h-3.648V1.357h3.648V3.103z M138.208,15.03h-2.417v-2.37h-7.842
		v-1.902h10.259V15.03z M128.463,7.921c0,0.208,0.078,0.374,0.233,0.499c0.156,0.125,0.348,0.188,0.577,0.188
		c0.25,0,0.455-0.062,0.616-0.188c0.161-0.125,0.242-0.291,0.242-0.499c0-0.188-0.083-0.348-0.25-0.483s-0.369-0.203-0.608-0.203
		c-0.229,0-0.421,0.067-0.577,0.203C128.541,7.573,128.463,7.733,128.463,7.921z M138.208,10.244h-2.276V6.72h-0.686v3.477h-2.23
		v-8.95h2.23v3.57h0.686V0.982h2.276V10.244z"/>
	<path d="M147.017,15.015h-2.448v-5.41h-5.052V7.733h8.638c0.229-0.998,0.343-2.141,0.343-3.43c0-0.062-0.003-0.167-0.008-0.312
		c-0.005-0.146-0.008-0.25-0.008-0.312h-7.578V1.747h9.963v0.889c0,1.996-0.156,3.695-0.468,5.098h1.809v1.871h-5.192V15.015z"/>
	<path d="M161.75,9.885l0.203,1.964c-1.632,0.25-3.327,0.39-5.083,0.421c-1.455,0.052-2.682,0.078-3.68,0.078l-0.249-2.074
		c1.631,0,3.113-0.016,4.443-0.047C159.526,10.104,160.981,9.989,161.75,9.885z M157.26,1.871c1.102,0,2.02,0.335,2.752,1.006
		c0.733,0.67,1.099,1.504,1.099,2.502c0,0.988-0.366,1.814-1.099,2.479c-0.732,0.665-1.655,0.998-2.767,0.998
		c-1.102,0-2.017-0.335-2.744-1.006c-0.728-0.67-1.092-1.499-1.092-2.487c0-0.987,0.364-1.816,1.092-2.487
		C155.228,2.207,156.147,1.871,157.26,1.871z M157.26,3.929c-0.437,0-0.792,0.135-1.068,0.405c-0.275,0.271-0.413,0.619-0.413,1.045
		c0,0.395,0.138,0.725,0.413,0.99c0.275,0.265,0.626,0.398,1.053,0.398c0.416,0,0.769-0.135,1.06-0.405
		c0.291-0.271,0.437-0.603,0.437-0.998c0-0.416-0.146-0.759-0.437-1.029C158.014,4.064,157.666,3.929,157.26,3.929z M162.452,0.982
		h2.417v14.032h-2.417V0.982z"/>
	<path d="M171.573,10.595c-0.696-0.961-1.044-2.19-1.044-3.688c0-1.497,0.348-2.726,1.044-3.688
		c0.696-0.961,1.626-1.442,2.791-1.442c1.174,0,2.104,0.478,2.791,1.434c0.686,0.957,1.029,2.188,1.029,3.695
		c0,1.497-0.343,2.726-1.029,3.688s-1.616,1.442-2.791,1.442C173.199,12.037,172.269,11.556,171.573,10.595z M175.813,6.907
		c0-0.956-0.135-1.681-0.405-2.175c-0.271-0.494-0.619-0.741-1.044-0.741c-0.416,0-0.754,0.247-1.014,0.741s-0.39,1.219-0.39,2.175
		c0,0.967,0.13,1.697,0.39,2.19c0.26,0.494,0.598,0.741,1.014,0.741c0.426,0,0.774-0.247,1.044-0.741
		C175.678,8.604,175.813,7.874,175.813,6.907z M181.738,0.982v5.146h1.715v1.996h-1.715v6.891h-2.447V0.982H181.738z"/>
	<path d="M191.701,7.733h-6.906V1.653h6.906V7.733z M195.973,14.921h-9.604v-4.038h7.016v-0.562h-7.031V8.466h9.464v4.054h-6.985
		v0.515h7.142V14.921z M189.285,5.847V3.524h-2.074v2.323H189.285z M195.817,7.905h-2.464V0.998h2.464V7.905z"/>
	<path d="M209.226,9.948h-4.102v1.575h5.13v1.917h-12.691v-1.917h5.13V9.948h-3.742V4.833h7.516V3.852h-7.516V1.825h9.979V6.86
		h-7.516v1.061h7.812V9.948z"/>
	<path d="M212.437,10.782c-0.696-0.961-1.045-2.19-1.045-3.688c0-1.497,0.349-2.726,1.045-3.687s1.621-1.442,2.775-1.442
		c1.174,0,2.107,0.476,2.799,1.427c0.691,0.951,1.037,2.18,1.037,3.687c0,1.497-0.346,2.729-1.037,3.695s-1.625,1.45-2.799,1.45
		C214.058,12.224,213.133,11.743,212.437,10.782z M216.677,7.079c0-0.945-0.135-1.663-0.404-2.151
		c-0.271-0.488-0.624-0.733-1.061-0.733c-0.416,0-0.759,0.245-1.029,0.733c-0.27,0.489-0.405,1.206-0.405,2.151
		c0,0.957,0.136,1.679,0.405,2.167c0.271,0.489,0.613,0.733,1.029,0.733c0.437,0,0.789-0.242,1.061-0.725
		C216.542,8.771,216.677,8.045,216.677,7.079z M222.883,15.015h-2.433V0.982h2.433V15.015z"/>
	<path d="M237.227,13.424h-12.691v-1.933h12.691V13.424z M235.902,9.262h-9.947V2.059h9.869v1.98h-7.438v3.274h7.516V9.262z"/>
	<path d="M244.15,11.788h-5.832V2.292h2.401v2.962h1.029V2.292h2.401v3.555h0.826V1.216h2.245v13.237h-2.245v-6.72h-0.826V11.788z
		 M241.749,9.729V7.281h-1.029v2.448H241.749z M250.183,15.015h-2.307V0.982h2.307V15.015z"/>
	<path d="M258.509,5.956V7.89h-4.039v2.151c1.736,0.042,3.373-0.067,4.912-0.327l0.219,1.886c-1.498,0.271-3.686,0.406-6.564,0.406
		h-0.998V2.105h6.627v1.887h-4.195v1.964H258.509z M264.402,8.014h-1.762v7h-2.416V0.982h2.416v5.036h1.762V8.014z"/>
	<path d="M275.503,4.179h-1.793v0.39c0,0.593,0.028,1.123,0.086,1.59c0.057,0.468,0.166,0.954,0.327,1.458
		c0.161,0.504,0.405,0.959,0.733,1.364c0.326,0.405,0.734,0.754,1.223,1.044V7.749h-1.496V5.52h1.496V1.232h2.23v13.19h-2.23v-3.898
		l-1.106,1.559c-0.458-0.27-0.933-0.694-1.427-1.271c-0.494-0.577-0.812-1.13-0.959-1.661c-0.135,0.603-0.436,1.224-0.904,1.863
		c-0.467,0.639-0.951,1.104-1.449,1.396l-1.466-1.668c0.53-0.353,0.974-0.764,1.333-1.231c0.358-0.468,0.626-0.977,0.803-1.528
		c0.177-0.551,0.299-1.091,0.367-1.621c0.066-0.53,0.101-1.128,0.101-1.793v-0.39h-2.026V2.261h6.158V4.179z M281.226,15.015h-2.246
		V0.982h2.246V15.015z"/>
	<path d="M289.816,2.401c-0.021,0.873-0.086,1.668-0.195,2.385c-0.108,0.717-0.301,1.461-0.576,2.23s-0.631,1.473-1.068,2.112
		c-0.437,0.639-1.016,1.271-1.738,1.895s-1.566,1.19-2.533,1.699l-1.342-1.886c1.455-0.665,2.602-1.577,3.438-2.736
		s1.317-2.394,1.442-3.703h-4.21V2.401H289.816z M294.462,15.015h-2.447V8.264h-2.542V6.19h2.542V0.982h2.447V15.015z"/>
	<path d="M312.859,8.981h-12.691V7.125h12.691V8.981z M311.582,12.208c0,0.759-0.461,1.377-1.381,1.855
		c-0.92,0.478-2.148,0.717-3.688,0.717c-1.559,0-2.801-0.236-3.726-0.709c-0.925-0.473-1.388-1.094-1.388-1.863
		c0-0.78,0.457-1.403,1.372-1.871s2.146-0.702,3.694-0.702c1.57,0,2.814,0.234,3.734,0.702S311.582,11.429,311.582,12.208z
		 M311.488,6.315h-9.776V1.326h2.464v3.118h7.312V6.315z M306.466,11.491c-0.748,0-1.343,0.065-1.785,0.195
		c-0.441,0.13-0.662,0.314-0.662,0.554c0,0.208,0.227,0.382,0.678,0.522c0.453,0.141,1.043,0.21,1.77,0.21
		c0.749,0,1.354-0.07,1.816-0.21c0.463-0.14,0.694-0.314,0.694-0.522c0-0.239-0.226-0.424-0.679-0.554
		C307.847,11.556,307.236,11.491,306.466,11.491z"/>
	<path d="M320.764,7.204l0.265,1.809c-0.883,0.229-2.76,0.343-5.628,0.343h-1.294V4.584h3.897V3.742h-3.897V1.855h6.346v4.491
		h-3.883v1.185c0.551,0.031,1.287,0.013,2.207-0.054C319.697,7.409,320.359,7.318,320.764,7.204z M315.556,10.197h10.01v4.833
		h-2.463v-2.947h-7.547V10.197z M321.248,4.802V2.791h1.84V0.982h2.463v8.653h-2.463V7.858h-1.84v-1.98h1.84V4.802H321.248z"/>
</g>
<g>
	<path d="M165.965,284.46l0.25,2.042c-1.694,0.405-3.95,0.608-6.767,0.608h-1.107v-9.495h2.401v7.296
		C162.311,284.955,164.052,284.804,165.965,284.46z M170.845,283.432h-1.73v6.907h-2.463v-14.032h2.463v5.099h1.73V283.432z"/>
	<path d="M172.856,286.105c-0.696-0.961-1.044-2.19-1.044-3.688c0-1.497,0.348-2.726,1.044-3.687s1.622-1.442,2.775-1.442
		c1.174,0,2.107,0.476,2.799,1.427c0.691,0.951,1.037,2.18,1.037,3.687c0,1.497-0.346,2.729-1.037,3.695
		c-0.691,0.967-1.625,1.45-2.799,1.45C174.478,287.548,173.552,287.067,172.856,286.105z M177.097,282.402
		c0-0.945-0.135-1.663-0.405-2.151c-0.271-0.488-0.624-0.733-1.06-0.733c-0.416,0-0.759,0.245-1.029,0.733
		c-0.27,0.489-0.405,1.206-0.405,2.151c0,0.957,0.135,1.679,0.405,2.167c0.271,0.489,0.613,0.733,1.029,0.733
		c0.437,0,0.79-0.242,1.06-0.725C176.961,284.094,177.097,283.369,177.097,282.402z M183.302,290.338h-2.432v-14.032h2.432V290.338z
		"/>
	<path d="M188.058,289.98c-0.832-0.697-1.531-1.59-2.098-2.682s-0.85-2.308-0.85-3.648v-0.328c0-1.341,0.283-2.554,0.85-3.641
		c0.566-1.086,1.266-1.972,2.098-2.658h2.166c-0.727,0.821-1.316,1.762-1.77,2.822c-0.451,1.06-0.678,2.178-0.678,3.352v0.483
		c0,1.206,0.229,2.349,0.686,3.43s1.045,2.037,1.762,2.869H188.058z"/>
	<path d="M192.719,290.666c-0.655,0-1.169-0.083-1.544-0.25v-1.746c0.375,0.062,0.66,0.093,0.857,0.093
		c0.707,0,1.154-0.239,1.342-0.717l0.125-0.343l-2.979-7.359h2.775l1.512,4.35h0.031l1.575-4.35h2.495l-3.104,8.264
		c-0.27,0.779-0.634,1.317-1.092,1.614C194.257,290.518,193.592,290.666,192.719,290.666z"/>
	<path d="M203.882,288.53c-2.827,0-4.24-1.361-4.24-4.085v-0.203c0-1.237,0.355-2.219,1.067-2.947
		c0.712-0.728,1.671-1.091,2.876-1.091c1.311,0,2.256,0.349,2.838,1.044c0.582,0.697,0.873,1.731,0.873,3.103v0.686h-4.957
		c0.072,0.613,0.285,1.037,0.639,1.271s0.883,0.351,1.59,0.351c0.791,0,1.591-0.161,2.401-0.483v1.637
		C206.159,288.291,205.13,288.53,203.882,288.53z M203.585,281.95c-0.748,0-1.168,0.53-1.262,1.59h2.432
		c0-0.571-0.094-0.979-0.281-1.224C204.288,282.073,203.992,281.95,203.585,281.95z"/>
	<path d="M210.742,288.53c-0.758,0-1.363-0.192-1.816-0.577c-0.451-0.384-0.678-0.951-0.678-1.7c0-0.8,0.246-1.385,0.74-1.754
		c0.494-0.369,1.214-0.616,2.16-0.741l1.465-0.218v-0.327c0-0.416-0.109-0.691-0.327-0.827c-0.218-0.135-0.629-0.203-1.231-0.203
		c-0.729,0-1.435,0.078-2.121,0.234v-1.746c0.79-0.312,1.835-0.468,3.135-0.468c1.039,0,1.832,0.192,2.377,0.577
		c0.546,0.384,0.818,1.013,0.818,1.886v5.722h-2.197l-0.188-0.624H212.8C212.436,288.275,211.75,288.53,210.742,288.53z
		 M211.646,286.862c0.447,0,0.77-0.109,0.967-0.328v-1.559l-0.936,0.094c-0.312,0.031-0.537,0.117-0.678,0.257
		c-0.141,0.141-0.211,0.356-0.211,0.647C210.789,286.565,211.075,286.862,211.646,286.862z"/>
	<path d="M216.885,288.374v-8.03h2.558v0.967h0.078c0.218-0.312,0.504-0.563,0.857-0.756c0.353-0.192,0.732-0.289,1.138-0.289
		c0.187,0,0.343,0.021,0.468,0.062v2.338c-0.344-0.062-0.572-0.093-0.686-0.093c-0.666,0-1.248,0.125-1.746,0.374v5.426H216.885z"/>
	<path d="M225.725,288.53c-1.164,0-2.089-0.176-2.774-0.53v-1.778c0.83,0.312,1.626,0.468,2.385,0.468
		c0.904,0,1.356-0.223,1.356-0.67c0-0.197-0.067-0.337-0.202-0.421c-0.136-0.083-0.375-0.146-0.718-0.187l-0.733-0.109
		c-1.424-0.208-2.135-1.045-2.135-2.51c0-0.821,0.275-1.458,0.826-1.91s1.371-0.678,2.463-0.678c1.05,0,1.896,0.14,2.541,0.421
		v1.762c-0.789-0.239-1.522-0.358-2.197-0.358c-0.78,0-1.17,0.208-1.17,0.624c0,0.187,0.07,0.325,0.211,0.413
		c0.14,0.089,0.376,0.159,0.709,0.21l0.748,0.094c0.779,0.104,1.342,0.361,1.684,0.772c0.344,0.411,0.516,0.979,0.516,1.707
		C229.234,287.636,228.064,288.53,225.725,288.53z"/>
	<path d="M229.81,289.98c0.728-0.821,1.318-1.762,1.77-2.822c0.453-1.06,0.679-2.183,0.679-3.368v-0.483
		c0-1.206-0.226-2.346-0.679-3.422c-0.451-1.076-1.042-2.029-1.77-2.861h2.168c0.82,0.686,1.518,1.575,2.089,2.666
		c0.571,1.092,0.857,2.308,0.857,3.648v0.328c0,1.341-0.283,2.554-0.85,3.641c-0.567,1.086-1.266,1.977-2.097,2.674H229.81z"/>
</g>
<g>
	<path d="M329.702,178.585c-1.391,0-2.473-0.401-3.248-1.204c-0.774-0.803-1.162-1.997-1.162-3.584v-0.35
		c0-0.84,0.117-1.575,0.351-2.205c0.233-0.63,0.562-1.127,0.987-1.491c0.424-0.364,0.904-0.635,1.441-0.812s1.132-0.266,1.785-0.266
		c1.045,0,1.862,0.159,2.45,0.476v1.498c-0.859-0.28-1.592-0.42-2.198-0.42c-0.85,0-1.51,0.247-1.981,0.742
		c-0.471,0.495-0.706,1.26-0.706,2.296v0.476c0,1.074,0.214,1.886,0.644,2.436c0.429,0.551,1.115,0.826,2.058,0.826
		c0.775,0,1.526-0.163,2.254-0.49v1.498C331.685,178.394,330.793,178.585,329.702,178.585z"/>
	<path d="M333.818,178.431v-9.604h3.289c3.108,0,4.662,1.521,4.662,4.564v0.28c0,1.559-0.392,2.742-1.176,3.549
		c-0.784,0.808-1.941,1.211-3.472,1.211H333.818z M335.805,176.905h1.316c0.887,0,1.533-0.235,1.938-0.707
		c0.406-0.471,0.609-1.257,0.609-2.359v-0.476c0-1.12-0.22-1.906-0.658-2.359s-1.105-0.679-2.002-0.679h-1.204V176.905z"/>
	<path d="M344.261,178.487v-7.714l-1.567,0.294v-1.162l2.548-1.12h1.021v9.702H344.261z"/>
	<path d="M352.129,178.627v-1.904h-4.326v-1.064l4.9-6.874h1.302v6.51h1.456v1.428h-1.456v1.904H352.129z M349.833,175.295h2.311
		v-3.234L349.833,175.295z"/>
	<path d="M357.941,174.082c-0.224,0-0.432-0.038-0.625-0.114s-0.372-0.192-0.538-0.347c-0.166-0.155-0.297-0.37-0.393-0.645
		c-0.095-0.274-0.143-0.594-0.143-0.959v-0.106c0-0.751,0.172-1.307,0.515-1.669c0.343-0.362,0.803-0.542,1.379-0.542
		c0.376,0,0.699,0.076,0.972,0.229v-1.886h1.069v5.967h-0.914l-0.09-0.335h-0.041C358.843,173.946,358.447,174.082,357.941,174.082z
		 M358.333,173.266c0.299,0,0.558-0.09,0.775-0.27v-2.31c-0.158-0.12-0.416-0.179-0.775-0.179c-0.327,0-0.573,0.099-0.739,0.298
		s-0.249,0.537-0.249,1.016v0.147c0,0.484,0.085,0.822,0.254,1.012C357.766,173.171,358.011,173.266,358.333,173.266z"/>
	<path d="M361.131,169.144v-0.914h1.094v0.914H361.131z M361.14,174.009v-4.228h1.077v4.228H361.14z"/>
	<path d="M363.181,174.009v-4.228h1.028v0.392h0.041c0.413-0.315,0.843-0.473,1.289-0.473c0.484,0,0.824,0.158,1.021,0.473h0.041
		c0.457-0.315,0.919-0.473,1.388-0.473c0.777,0,1.167,0.383,1.167,1.151v3.159h-1.069v-2.89c0-0.196-0.045-0.337-0.135-0.424
		s-0.243-0.13-0.461-0.13c-0.169,0-0.433,0.073-0.792,0.22c0.005,0.038,0.008,0.093,0.008,0.163v3.061h-1.077v-2.89
		c0-0.196-0.045-0.337-0.135-0.424s-0.243-0.13-0.461-0.13c-0.146,0-0.408,0.071-0.783,0.212v3.232H363.181z"/>
	<path d="M374.524,178.585c-1.391,0-2.473-0.401-3.248-1.204c-0.774-0.803-1.162-1.997-1.162-3.584v-0.35
		c0-0.84,0.117-1.575,0.351-2.205c0.233-0.63,0.562-1.127,0.987-1.491c0.424-0.364,0.904-0.635,1.441-0.812s1.132-0.266,1.785-0.266
		c1.045,0,1.862,0.159,2.45,0.476v1.498c-0.859-0.28-1.592-0.42-2.198-0.42c-0.85,0-1.51,0.247-1.981,0.742
		c-0.471,0.495-0.706,1.26-0.706,2.296v0.476c0,1.074,0.214,1.886,0.644,2.436c0.429,0.551,1.115,0.826,2.058,0.826
		c0.775,0,1.526-0.163,2.254-0.49v1.498C376.507,178.394,375.616,178.585,374.524,178.585z"/>
	<path d="M378.64,178.431v-9.604h3.289c3.108,0,4.662,1.521,4.662,4.564v0.28c0,1.559-0.392,2.742-1.176,3.549
		c-0.784,0.808-1.941,1.211-3.472,1.211H378.64z M380.627,176.905h1.316c0.887,0,1.533-0.235,1.938-0.707
		c0.406-0.471,0.609-1.257,0.609-2.359v-0.476c0-1.12-0.22-1.906-0.658-2.359s-1.105-0.679-2.002-0.679h-1.204V176.905z"/>
	<path d="M389.083,178.487v-7.714l-1.567,0.294v-1.162l2.548-1.12h1.021v9.702H389.083z"/>
	<path d="M396.629,178.6c-1.185,0-2.091-0.378-2.716-1.134s-0.938-1.801-0.938-3.136v-0.658c0-0.896,0.114-1.675,0.343-2.338
		s0.546-1.181,0.952-1.554c0.406-0.373,0.861-0.648,1.365-0.826s1.059-0.266,1.666-0.266c0.877,0,1.628,0.177,2.254,0.532
		l-0.336,1.456c-0.561-0.28-1.177-0.42-1.849-0.42c-0.719,0-1.288,0.219-1.708,0.658c-0.42,0.438-0.662,1.19-0.728,2.254
		c0.635-0.522,1.372-0.784,2.212-0.784c0.858,0,1.549,0.254,2.072,0.763c0.522,0.509,0.783,1.211,0.783,2.107
		c0,0.971-0.294,1.771-0.882,2.401S397.703,178.6,396.629,178.6z M396.587,177.171c0.477,0,0.853-0.154,1.128-0.462
		c0.274-0.308,0.412-0.742,0.412-1.302c0-0.569-0.145-0.987-0.434-1.253s-0.677-0.399-1.162-0.399c-0.289,0-0.583,0.084-0.882,0.252
		s-0.532,0.359-0.7,0.574v0.084C394.95,176.336,395.496,177.171,396.587,177.171z"/>
	<path d="M402.202,173.078v-1.371h-1.306v-0.874h1.306v-1.347h0.955v1.347h1.298v0.874h-1.298v1.371H402.202z"/>
	<path d="M336.464,192.389h-11.271v-1.47h4.718v-1.022h1.834v1.022h4.719V192.389z M335.764,189.057l-0.645,1.372
		c-0.924-0.019-1.787-0.177-2.59-0.476c-0.803-0.298-1.372-0.686-1.708-1.162c-0.308,0.476-0.858,0.864-1.651,1.162
		c-0.794,0.299-1.676,0.462-2.646,0.49l-0.63-1.414c1.932-0.056,3.136-0.438,3.612-1.148h-3.011v-1.4h8.652v1.4h-2.982
		C332.67,188.609,333.869,189.001,335.764,189.057z M334.098,193.222c0.812,0.387,1.218,0.913,1.218,1.575s-0.406,1.192-1.218,1.589
		c-0.812,0.396-1.899,0.595-3.263,0.595c-1.381,0-2.476-0.198-3.282-0.595c-0.808-0.397-1.211-0.926-1.211-1.589
		s0.4-1.188,1.204-1.575c0.802-0.387,1.89-0.581,3.262-0.581C332.189,192.641,333.286,192.835,334.098,193.222z M333.398,194.839
		c0-0.233-0.24-0.422-0.721-0.567c-0.481-0.145-1.104-0.217-1.869-0.217c-0.756,0-1.37,0.072-1.841,0.217
		c-0.472,0.145-0.707,0.334-0.707,0.567c0,0.205,0.24,0.383,0.721,0.532c0.48,0.149,1.09,0.224,1.827,0.224
		c0.746,0,1.365-0.075,1.854-0.224C333.153,195.222,333.398,195.044,333.398,194.839z M328.722,186.033v-1.386h4.2v1.386H328.722z"
		/>
	<path d="M343.198,190.023c2.081,0,3.678-0.116,4.788-0.35l0.154,1.414c-1.456,0.28-3.36,0.42-5.712,0.42
		c-0.112,0-0.285-0.002-0.519-0.007c-0.233-0.004-0.415-0.007-0.546-0.007v-6.062h5.586v1.47h-3.752V190.023z M351.01,196.547h-8.33
		v-4.018h1.861v2.576h6.469V196.547z M352.508,189.281h-1.736v4.144h-1.862v-8.988h1.862v3.332h1.736V189.281z"/>
	<path d="M353.067,188.273v-1.4h5.992v1.4H353.067z M358.919,190.527c0,0.579-0.247,1.062-0.742,1.449
		c-0.495,0.388-1.162,0.581-2.002,0.581c-0.821,0-1.479-0.193-1.974-0.581c-0.495-0.387-0.742-0.87-0.742-1.449
		s0.247-1.062,0.742-1.449c0.494-0.387,1.152-0.581,1.974-0.581c0.84,0,1.507,0.191,2.002,0.574S358.919,189.939,358.919,190.527z
		 M354.509,186.341v-1.344h3.276v1.344H354.509z M354.943,193.187h8.792v3.738h-1.861v-2.268h-6.931V193.187z M356.953,191.024
		c0.19-0.154,0.287-0.32,0.287-0.497s-0.097-0.343-0.287-0.497c-0.191-0.154-0.451-0.231-0.777-0.231
		c-0.327,0-0.581,0.075-0.763,0.224c-0.183,0.149-0.273,0.318-0.273,0.504s0.091,0.354,0.273,0.504
		c0.182,0.149,0.436,0.224,0.763,0.224C356.501,191.255,356.761,191.178,356.953,191.024z M363.735,192.641H362v-2.954h-0.812v2.954
		h-1.708v-7.98h1.708v3.528H362v-3.752h1.735V192.641z"/>
	<path d="M375.118,185.053c0.056,1.998-0.084,3.808-0.42,5.432h1.778v1.456h-4.761v4.97h-1.834v-4.97h-4.676v-1.456h7.771
		c0.271-1.148,0.382-2.464,0.336-3.948h-6.776v-1.484H375.118z"/>
	<path d="M329.702,212.186c-1.391,0-2.473-0.401-3.248-1.204c-0.774-0.803-1.162-1.997-1.162-3.584v-0.35
		c0-0.84,0.117-1.575,0.351-2.205c0.233-0.63,0.562-1.127,0.987-1.491c0.424-0.364,0.904-0.635,1.441-0.812s1.132-0.266,1.785-0.266
		c1.045,0,1.862,0.159,2.45,0.476v1.498c-0.859-0.28-1.592-0.42-2.198-0.42c-0.85,0-1.51,0.247-1.981,0.742
		c-0.471,0.495-0.706,1.26-0.706,2.296v0.476c0,1.074,0.214,1.886,0.644,2.436c0.429,0.551,1.115,0.826,2.058,0.826
		c0.775,0,1.526-0.163,2.254-0.49v1.498C331.685,211.994,330.793,212.186,329.702,212.186z"/>
	<path d="M333.818,212.031v-9.604h3.289c3.108,0,4.662,1.521,4.662,4.564v0.28c0,1.559-0.392,2.742-1.176,3.549
		c-0.784,0.808-1.941,1.211-3.472,1.211H333.818z M335.805,210.505h1.316c0.887,0,1.533-0.235,1.938-0.707
		c0.406-0.471,0.609-1.257,0.609-2.359v-0.476c0-1.12-0.22-1.906-0.658-2.359s-1.105-0.679-2.002-0.679h-1.204V210.505z"/>
	<path d="M344.261,212.087v-7.714l-1.567,0.294v-1.162l2.548-1.12h1.021v9.702H344.261z"/>
	<path d="M352.129,212.228v-1.904h-4.326v-1.064l4.9-6.874h1.302v6.51h1.456v1.428h-1.456v1.904H352.129z M349.833,208.896h2.311
		v-3.234L349.833,208.896z"/>
	<path d="M357.589,206.678v-1.371h-1.306v-0.874h1.306v-1.347h0.955v1.347h1.298v0.874h-1.298v1.371H357.589z"/>
	<path d="M365.088,212.186c-1.391,0-2.473-0.401-3.248-1.204c-0.774-0.803-1.162-1.997-1.162-3.584v-0.35
		c0-0.84,0.117-1.575,0.351-2.205c0.233-0.63,0.562-1.127,0.987-1.491c0.424-0.364,0.904-0.635,1.441-0.812s1.132-0.266,1.785-0.266
		c1.045,0,1.862,0.159,2.45,0.476v1.498c-0.859-0.28-1.592-0.42-2.198-0.42c-0.85,0-1.51,0.247-1.981,0.742
		c-0.471,0.495-0.706,1.26-0.706,2.296v0.476c0,1.074,0.214,1.886,0.644,2.436c0.429,0.551,1.115,0.826,2.058,0.826
		c0.775,0,1.526-0.163,2.254-0.49v1.498C367.072,211.994,366.18,212.186,365.088,212.186z"/>
	<path d="M369.205,212.031v-9.604h3.289c3.108,0,4.662,1.521,4.662,4.564v0.28c0,1.559-0.392,2.742-1.176,3.549
		c-0.784,0.808-1.941,1.211-3.472,1.211H369.205z M371.192,210.505h1.316c0.887,0,1.533-0.235,1.938-0.707
		c0.406-0.471,0.609-1.257,0.609-2.359v-0.476c0-1.12-0.22-1.906-0.658-2.359s-1.105-0.679-2.002-0.679h-1.204V210.505z"/>
	<path d="M379.648,212.087v-7.714l-1.567,0.294v-1.162l2.548-1.12h1.021v9.702H379.648z"/>
	<path d="M387.194,212.2c-1.185,0-2.091-0.378-2.716-1.134s-0.938-1.801-0.938-3.136v-0.658c0-0.896,0.114-1.675,0.343-2.338
		s0.546-1.181,0.952-1.554c0.406-0.373,0.861-0.648,1.365-0.826s1.059-0.266,1.666-0.266c0.877,0,1.628,0.177,2.254,0.532
		l-0.336,1.456c-0.561-0.28-1.177-0.42-1.849-0.42c-0.719,0-1.288,0.219-1.708,0.658c-0.42,0.438-0.662,1.19-0.728,2.254
		c0.635-0.522,1.372-0.784,2.212-0.784c0.858,0,1.549,0.254,2.072,0.763c0.522,0.509,0.783,1.211,0.783,2.107
		c0,0.971-0.294,1.771-0.882,2.401S388.267,212.2,387.194,212.2z M387.152,210.771c0.477,0,0.853-0.154,1.128-0.462
		c0.274-0.308,0.412-0.742,0.412-1.302c0-0.569-0.145-0.987-0.434-1.253s-0.677-0.399-1.162-0.399c-0.289,0-0.583,0.084-0.882,0.252
		s-0.532,0.359-0.7,0.574v0.084C385.514,209.937,386.06,210.771,387.152,210.771z"/>
	<path d="M392.766,206.678v-1.371h-1.306v-0.874h1.306v-1.347h0.955v1.347h1.298v0.874h-1.298v1.371H392.766z"/>
</g>
<g>
</g>
<g>
</g>
<g>
</g>
<g>
</g>
<g>
</g>
<g>
</g>
</svg>
