<?xml version="1.0" encoding="utf-8"?>
<!-- Generator: Adobe Illustrator 28.0.0, SVG Export Plug-In . SVG Version: 6.00 Build 0)  -->
<svg version="1.1" id="레이어_1" xmlns="http://www.w3.org/2000/svg" xmlns:xlink="http://www.w3.org/1999/xlink" x="0px"
	 y="0px" viewBox="0 0 350.345 187.818" enable-background="new 0 0 350.345 187.818" xml:space="preserve">
<polygon fill="#00A0E9" points="350.345,25.059 328.291,0 328.291,12.646 0,12.646 0,37.473 328.291,37.473 328.291,50.118 "/>
<polygon fill="#00A0E9" points="0,82.99 22.054,108.049 22.054,95.404 350.345,95.404 350.345,70.576 22.054,70.576 22.054,57.931 
	"/>
<g>
	<path d="M40.529,58.87V48.118h3.248c1.643,0,2.893,0.424,3.752,1.272c0.858,0.848,1.288,2.115,1.288,3.8v0.32
		c0,1.718-0.414,3.04-1.24,3.968c-0.827,0.928-2.083,1.392-3.768,1.392H40.529z M41.938,57.654h1.904
		c1.194,0,2.069-0.312,2.624-0.936s0.832-1.624,0.832-3V53.19c0-1.397-0.304-2.386-0.912-2.968s-1.525-0.872-2.752-0.872h-1.696
		V57.654z"/>
	<path d="M50.834,58.87V48.118h3.152c2.4,0,3.6,1.019,3.6,3.056c0,1.397-0.677,2.336-2.032,2.816v0.08l2.816,4.8h-1.616
		l-2.592-4.544h-1.92v4.544H50.834z M52.242,53.206h1.664c0.768,0,1.326-0.16,1.672-0.48c0.346-0.32,0.52-0.827,0.52-1.52
		c0-0.672-0.174-1.152-0.52-1.44c-0.347-0.288-0.91-0.432-1.688-0.432h-1.648V53.206z"/>
	<path d="M62.418,59.03c-1.227,0-2.214-0.256-2.96-0.768l0.288-1.088c0.299,0.203,0.686,0.371,1.16,0.504s0.915,0.2,1.32,0.2
		c0.854,0,1.512-0.181,1.976-0.544c0.464-0.362,0.696-0.875,0.696-1.536c0-0.65-0.229-1.138-0.688-1.464
		c-0.459-0.325-1.094-0.488-1.904-0.488h-1.04v-1.168h0.944c0.693-0.011,1.248-0.179,1.664-0.504
		c0.416-0.325,0.624-0.771,0.624-1.336c0-1.152-0.704-1.728-2.112-1.728c-0.693,0-1.478,0.246-2.352,0.736l-0.208-1.12
		c0.341-0.213,0.787-0.4,1.336-0.56s1.059-0.24,1.528-0.24c0.992,0,1.784,0.238,2.376,0.712c0.592,0.475,0.888,1.133,0.888,1.976
		c0,1.216-0.677,2.054-2.032,2.512c1.61,0.299,2.416,1.2,2.416,2.704c0,0.96-0.355,1.733-1.064,2.32
		C64.564,58.737,63.612,59.03,62.418,59.03z"/>
	<path d="M102.225,58.87V48.118h3.248c1.643,0,2.893,0.424,3.752,1.272c0.858,0.848,1.288,2.115,1.288,3.8v0.32
		c0,1.718-0.414,3.04-1.24,3.968c-0.827,0.928-2.083,1.392-3.768,1.392H102.225z M103.633,57.654h1.904
		c1.194,0,2.069-0.312,2.624-0.936s0.832-1.624,0.832-3V53.19c0-1.397-0.304-2.386-0.912-2.968s-1.525-0.872-2.752-0.872h-1.696
		V57.654z"/>
	<path d="M112.529,58.87V48.118h3.152c2.4,0,3.6,1.019,3.6,3.056c0,1.397-0.677,2.336-2.032,2.816v0.08l2.816,4.8h-1.616
		l-2.592-4.544h-1.92v4.544H112.529z M113.937,53.206h1.664c0.768,0,1.326-0.16,1.672-0.48c0.346-0.32,0.52-0.827,0.52-1.52
		c0-0.672-0.174-1.152-0.52-1.44c-0.347-0.288-0.91-0.432-1.688-0.432h-1.648V53.206z"/>
	<path d="M123.889,59.062c-1.248,0-2.262-0.267-3.04-0.8l0.272-1.12c0.32,0.203,0.709,0.378,1.168,0.528s0.891,0.224,1.296,0.224
		c0.832,0,1.483-0.216,1.952-0.648s0.704-1.021,0.704-1.768c0-1.472-0.864-2.208-2.592-2.208c-0.714,0-1.461,0.176-2.24,0.528
		l0.384-5.696h5.488v1.168h-4.368l-0.208,3.136c0.555-0.149,1.056-0.224,1.504-0.224c1.109,0,1.968,0.277,2.576,0.832
		s0.912,1.387,0.912,2.496c0,1.003-0.347,1.846-1.04,2.528S125.041,59.062,123.889,59.062z"/>
	<path d="M163.376,58.87V48.118h3.248c1.643,0,2.894,0.424,3.752,1.272c0.859,0.848,1.288,2.115,1.288,3.8v0.32
		c0,1.718-0.413,3.04-1.239,3.968c-0.827,0.928-2.083,1.392-3.769,1.392H163.376z M164.784,57.654h1.904
		c1.194,0,2.069-0.312,2.624-0.936s0.832-1.624,0.832-3V53.19c0-1.397-0.304-2.386-0.912-2.968s-1.525-0.872-2.752-0.872h-1.696
		V57.654z"/>
	<path d="M173.68,58.87V48.118h3.152c2.4,0,3.601,1.019,3.601,3.056c0,1.397-0.678,2.336-2.032,2.816v0.08l2.815,4.8h-1.615
		l-2.593-4.544h-1.92v4.544H173.68z M175.088,53.206h1.664c0.769,0,1.325-0.16,1.672-0.48c0.347-0.32,0.521-0.827,0.521-1.52
		c0-0.672-0.174-1.152-0.521-1.44s-0.909-0.432-1.688-0.432h-1.648V53.206z"/>
	<path d="M187.04,59.11v-2.32h-5.151v-0.976l5.408-7.872h1.071v7.728h1.792v1.12h-1.792v2.32H187.04z M183.36,55.67h3.696v-5.376
		L183.36,55.67z"/>
	<path d="M225.472,58.87V48.118h3.248c1.643,0,2.894,0.424,3.752,1.272c0.859,0.848,1.288,2.115,1.288,3.8v0.32
		c0,1.718-0.413,3.04-1.239,3.968c-0.827,0.928-2.083,1.392-3.769,1.392H225.472z M226.88,57.654h1.904
		c1.194,0,2.069-0.312,2.624-0.936s0.832-1.624,0.832-3V53.19c0-1.397-0.304-2.386-0.912-2.968s-1.525-0.872-2.752-0.872h-1.696
		V57.654z"/>
	<path d="M235.776,58.87V48.118h3.152c2.4,0,3.601,1.019,3.601,3.056c0,1.397-0.678,2.336-2.032,2.816v0.08l2.815,4.8h-1.615
		l-2.593-4.544h-1.92v4.544H235.776z M237.184,53.206h1.664c0.769,0,1.325-0.16,1.672-0.48c0.347-0.32,0.521-0.827,0.521-1.52
		c0-0.672-0.174-1.152-0.521-1.44s-0.909-0.432-1.688-0.432h-1.648V53.206z"/>
	<path d="M244.576,58.87v-0.832l2.464-2.56c0.896-0.938,1.55-1.72,1.96-2.344c0.411-0.624,0.616-1.277,0.616-1.96
		c0-0.704-0.176-1.224-0.528-1.56c-0.352-0.336-0.901-0.504-1.647-0.504c-0.736,0-1.531,0.283-2.384,0.848l-0.337-1.088
		c0.961-0.64,1.958-0.96,2.992-0.96c1.088,0,1.926,0.277,2.513,0.832c0.586,0.555,0.88,1.317,0.88,2.288
		c0,0.864-0.237,1.656-0.712,2.376c-0.476,0.72-1.235,1.608-2.28,2.664l-1.6,1.616h4.8v1.184H244.576z"/>
	<path d="M287.119,58.87V48.118h3.248c1.643,0,2.894,0.424,3.752,1.272c0.859,0.848,1.288,2.115,1.288,3.8v0.32
		c0,1.718-0.413,3.04-1.239,3.968c-0.827,0.928-2.083,1.392-3.769,1.392H287.119z M288.527,57.654h1.904
		c1.194,0,2.069-0.312,2.624-0.936s0.832-1.624,0.832-3V53.19c0-1.397-0.304-2.386-0.912-2.968s-1.525-0.872-2.752-0.872h-1.696
		V57.654z"/>
	<path d="M297.423,58.87V48.118h3.152c2.4,0,3.601,1.019,3.601,3.056c0,1.397-0.678,2.336-2.032,2.816v0.08l2.815,4.8h-1.615
		l-2.593-4.544h-1.92v4.544H297.423z M298.831,53.206h1.664c0.769,0,1.325-0.16,1.672-0.48c0.347-0.32,0.521-0.827,0.521-1.52
		c0-0.672-0.174-1.152-0.521-1.44s-0.909-0.432-1.688-0.432h-1.648V53.206z"/>
	<path d="M307.967,58.934v-9.408l-1.952,0.432v-0.816l2.592-1.2h0.769v10.992H307.967z"/>
</g>
<g>
	<path fill="#FFFFFF" d="M151.701,29.099h-12.624v-1.152h5.568v-3.28h-4.064v-6.64h9.632v1.152h-8.224v4.336h8.304v1.152h-4.224
		v3.28h5.632V29.099z"/>
	<path fill="#FFFFFF" d="M161.477,25.851l0.112,1.136c-1.109,0.16-2.517,0.283-4.224,0.368c-1.846,0.096-3.333,0.144-4.464,0.144
		l-0.224-1.2c0.885,0,1.552-0.005,2-0.016l-0.48-5.696l1.408-0.16l0.352,5.824c0.683-0.021,1.168-0.042,1.456-0.064
		c0.096,0,0.272-0.011,0.528-0.032l0.368-5.744l1.392,0.16l-0.512,5.52C160.149,26.027,160.912,25.947,161.477,25.851z
		 M160.789,19.435h-7.68v-1.152h7.68V19.435z M163.717,16.891v5.52h2.224v1.184h-2.224v7.28h-1.424V16.891H163.717z"/>
	<path fill="#FFFFFF" d="M174.133,24.603h-6.672v-6.432h6.672V24.603z M172.741,23.483v-4.176h-3.872v4.176H172.741z
		 M178.517,30.443h-9.472v-4.368h1.424v3.232h8.048V30.443z M178.229,27.051h-1.424v-10.16h1.424V27.051z"/>
	<path fill="#FFFFFF" d="M195.892,21.771h-4.079v1.808h5.615v1.152h-12.624v-1.152h5.584v-1.808h-3.856v-4.592h1.408v3.44h7.951
		V21.771z M195.988,28.346c0,0.79-0.422,1.408-1.265,1.856c-0.843,0.448-2.042,0.672-3.599,0.672c-1.558,0-2.755-0.224-3.592-0.672
		c-0.837-0.448-1.256-1.067-1.256-1.856c0-0.81,0.418-1.437,1.256-1.88c0.837-0.442,2.035-0.664,3.592-0.664
		c1.568,0,2.77,0.222,3.608,0.664C195.569,26.909,195.988,27.536,195.988,28.346z M191.125,26.923c-1.056,0-1.886,0.123-2.488,0.368
		s-0.904,0.597-0.904,1.056c0,0.448,0.301,0.795,0.904,1.04c0.603,0.246,1.432,0.368,2.488,0.368c1.066,0,1.904-0.123,2.511-0.368
		c0.608-0.245,0.912-0.592,0.912-1.04c0-0.458-0.304-0.81-0.912-1.056C193.028,27.045,192.191,26.923,191.125,26.923z"/>
	<path fill="#FFFFFF" d="M211.268,29.099h-12.624v-1.152h5.568v-3.28h-4.064v-6.64h9.633v1.152h-8.225v4.336h8.305v1.152h-4.225
		v3.28h5.632V29.099z"/>
</g>
<g>
	<path fill="#FFFFFF" d="M114.997,87.751h-12.624v-1.152h5.568v-3.28h-4.064v-6.64h9.632v1.152h-8.224v4.336h8.304v1.152h-4.224
		v3.28h5.632V87.751z"/>
	<path fill="#FFFFFF" d="M124.773,84.503l0.112,1.136c-1.109,0.16-2.517,0.283-4.224,0.368c-1.846,0.096-3.333,0.144-4.464,0.144
		l-0.224-1.2c0.885,0,1.552-0.005,2-0.016l-0.48-5.696l1.408-0.16l0.352,5.824c0.683-0.021,1.168-0.042,1.456-0.064
		c0.096,0,0.272-0.011,0.528-0.032l0.368-5.744l1.392,0.16l-0.512,5.52C123.445,84.679,124.208,84.599,124.773,84.503z
		 M124.085,78.087h-7.68v-1.152h7.68V78.087z M127.013,75.543v5.52h2.224v1.184h-2.224v7.28h-1.424V75.543H127.013z"/>
	<path fill="#FFFFFF" d="M137.429,83.255h-6.672v-6.432h6.672V83.255z M136.037,82.135v-4.176h-3.872v4.176H136.037z
		 M141.813,89.095h-9.472v-4.368h1.424v3.232h8.048V89.095z M141.525,85.703h-1.424v-10.16h1.424V85.703z"/>
	<path fill="#FFFFFF" d="M155.092,89.543h-1.424v-5.024H148.1v-1.136h12.624v1.136h-5.632V89.543z M160.244,80.839l-0.672,1.152
		c-1.067-0.203-2.104-0.619-3.112-1.248c-1.008-0.629-1.693-1.322-2.056-2.08c-0.299,0.747-0.955,1.438-1.968,2.072
		s-2.075,1.059-3.184,1.272l-0.64-1.152c1.312-0.171,2.482-0.646,3.512-1.424c1.029-0.778,1.544-1.637,1.544-2.576v-0.88h1.488v0.88
		c0,0.619,0.267,1.229,0.8,1.832c0.533,0.603,1.189,1.094,1.968,1.472C158.703,80.538,159.476,80.764,160.244,80.839z"/>
	<path fill="#FFFFFF" d="M173.06,78.519c0,0.96-0.56,1.67-1.68,2.128v1.904h3.184v1.152H161.94v-1.152h3.12v-1.936
		c-1.088-0.458-1.632-1.157-1.632-2.096c0-0.811,0.424-1.448,1.272-1.912c0.848-0.464,2.029-0.696,3.544-0.696
		c1.514,0,2.696,0.232,3.544,0.696C172.636,77.071,173.06,77.708,173.06,78.519z M171.9,85.127c0.88,0.438,1.32,1.056,1.32,1.856
		c0,0.8-0.44,1.421-1.32,1.864c-0.88,0.442-2.099,0.664-3.656,0.664c-1.547,0-2.758-0.222-3.632-0.664s-1.312-1.064-1.312-1.864
		c0-0.8,0.438-1.418,1.312-1.856s2.085-0.656,3.632-0.656C169.801,84.471,171.02,84.69,171.9,85.127z M168.244,85.607
		c-1.056,0-1.894,0.12-2.512,0.36c-0.619,0.24-0.928,0.584-0.928,1.032c0,0.438,0.309,0.774,0.928,1.008
		c0.619,0.235,1.456,0.352,2.512,0.352c1.077,0,1.928-0.117,2.552-0.352c0.624-0.234,0.936-0.571,0.936-1.008
		c0-0.448-0.314-0.792-0.944-1.032C170.159,85.727,169.311,85.607,168.244,85.607z M171.62,78.519c0-0.48-0.299-0.848-0.896-1.104
		c-0.598-0.256-1.424-0.384-2.48-0.384c-1.045,0-1.867,0.131-2.464,0.392c-0.598,0.261-0.896,0.626-0.896,1.096
		c0,0.47,0.299,0.835,0.896,1.096c0.597,0.262,1.418,0.392,2.464,0.392c1.045,0,1.869-0.13,2.472-0.392
		C171.318,79.354,171.62,78.989,171.62,78.519z M168.244,81.143c-0.662,0-1.253-0.048-1.776-0.144v1.552h3.504v-1.536
		C169.428,81.1,168.852,81.143,168.244,81.143z"/>
	<path fill="#FFFFFF" d="M182.74,85.543l-0.832,1.024c-0.555-0.341-1.096-0.827-1.624-1.456c-0.528-0.629-0.882-1.264-1.064-1.904
		c-0.17,0.683-0.52,1.374-1.048,2.072s-1.107,1.24-1.736,1.624l-0.896-0.944c1.984-1.237,2.976-3.077,2.976-5.52v-0.24h-2.64v-1.152
		h6.592v1.152h-2.56v0.192c0,1.259,0.264,2.317,0.792,3.176C181.228,84.426,181.908,85.085,182.74,85.543z M177.38,77.815v-1.168
		h3.68v1.168H177.38z M183.524,82.759h-2v-1.152h2v-5.744h1.328v12.976h-1.328V82.759z M187.588,89.527h-1.36V75.543h1.36V89.527z"
		/>
	<path fill="#FFFFFF" d="M199.044,85.991c-1.003,0.128-2.71,0.256-5.12,0.384c-1.259,0.064-2.651,0.107-4.176,0.128l-0.224-1.216
		c1.76,0,3.301-0.032,4.625-0.096c2.016-0.085,3.6-0.192,4.752-0.32L199.044,85.991z M197.78,79.959c0,0.95-0.353,1.718-1.057,2.304
		c-0.704,0.587-1.573,0.88-2.607,0.88c-1.046,0-1.915-0.296-2.608-0.888c-0.693-0.592-1.04-1.357-1.04-2.296
		c0-0.96,0.349-1.749,1.048-2.368s1.565-0.928,2.601-0.928c1.056,0,1.931,0.304,2.624,0.912S197.78,78.978,197.78,79.959z
		 M196.388,79.943c0-0.629-0.216-1.136-0.647-1.52c-0.433-0.384-0.974-0.576-1.624-0.576c-0.619,0-1.147,0.2-1.584,0.6
		c-0.438,0.4-0.657,0.899-0.657,1.496c0,0.586,0.216,1.069,0.649,1.448c0.432,0.379,0.962,0.568,1.592,0.568
		c0.629,0,1.165-0.186,1.607-0.56S196.388,80.54,196.388,79.943z M199.796,75.543h1.392v13.984h-1.392V75.543z"/>
	<path fill="#FFFFFF" d="M216.132,83.255l-0.721,1.152c-0.64-0.203-1.301-0.573-1.983-1.112s-1.163-1.102-1.44-1.688
		c-0.213,0.629-0.655,1.25-1.328,1.864c-0.672,0.614-1.387,1.054-2.144,1.32l-0.784-1.104c0.971-0.309,1.795-0.84,2.472-1.592
		c0.678-0.752,1.027-1.581,1.049-2.488h-3.057v-1.136h7.616v1.136h-3.104c0.021,0.875,0.376,1.648,1.063,2.32
		C214.46,82.599,215.246,83.042,216.132,83.255z M219.46,89.159h-9.44v-4.16h1.424v3.008h8.017V89.159z M213.94,77.223h-3.888
		v-1.136h3.888V77.223z M219.14,85.815h-1.424V75.543h1.424V85.815z"/>
	<path fill="#FFFFFF" d="M230.228,86.775c-1.024,0.139-2.63,0.272-4.816,0.4c-1.408,0.075-2.73,0.112-3.968,0.112l-0.208-1.184
		c1.578,0,2.816-0.021,3.712-0.064v-1.264c-0.789-0.106-1.427-0.371-1.912-0.792s-0.728-0.936-0.728-1.544
		c0-0.715,0.312-1.293,0.936-1.736c0.624-0.442,1.427-0.664,2.408-0.664c1.003,0,1.811,0.219,2.424,0.656s0.92,1.019,0.92,1.744
		c0,0.619-0.239,1.139-0.72,1.56c-0.479,0.422-1.12,0.68-1.92,0.776v1.184c1.461-0.074,2.704-0.176,3.728-0.304L230.228,86.775z
		 M229.875,79.463h-8.304v-1.168h8.304V79.463z M227.619,77.383h-3.983v-1.152h3.983V77.383z M227.539,82.439
		c0-0.363-0.176-0.662-0.527-0.896c-0.353-0.235-0.806-0.352-1.36-0.352c-0.544,0-0.992,0.12-1.344,0.36
		c-0.353,0.24-0.528,0.536-0.528,0.888c0,0.341,0.176,0.635,0.528,0.88c0.352,0.246,0.8,0.368,1.344,0.368
		c0.555,0,1.008-0.122,1.36-0.368C227.363,83.074,227.539,82.781,227.539,82.439z M234.531,82.951h-2.16v6.576h-1.392V75.543h1.392
		v6.224h2.16V82.951z"/>
	<path fill="#FFFFFF" d="M247.972,87.751h-12.624v-1.152h5.567v-3.28h-4.063v-6.64h9.632v1.152h-8.225v4.336h8.305v1.152h-4.225
		v3.28h5.633V87.751z"/>
</g>
<g>
	<linearGradient id="SVGID_1_" gradientUnits="userSpaceOnUse" x1="1.052330e-05" y1="165.0593" x2="350.3448" y2="165.0593">
		<stop  offset="0.4693" style="stop-color:#EA5514"/>
		<stop  offset="0.4994" style="stop-color:#B75E4A"/>
		<stop  offset="0.5396" style="stop-color:#79698B"/>
		<stop  offset="0.5688" style="stop-color:#536FB4"/>
		<stop  offset="0.5838" style="stop-color:#4472C4"/>
	</linearGradient>
	<rect x="0" y="142.301" fill="url(#SVGID_1_)" width="350.345" height="45.517"/>
	<g>
		<path fill="#FFFFFF" d="M44.304,159.17c0.981,0,1.816,0.32,2.504,0.96c0.688,0.64,1.032,1.456,1.032,2.448
			c0,0.981-0.338,1.773-1.016,2.376c-0.678,0.603-1.518,0.904-2.52,0.904c-0.992,0-1.83-0.301-2.512-0.904s-1.024-1.395-1.024-2.376
			s0.341-1.794,1.024-2.44S43.312,159.17,44.304,159.17z M44.304,160.386c-0.63,0-1.147,0.208-1.552,0.624s-0.608,0.934-0.608,1.552
			c0,0.629,0.203,1.149,0.608,1.56s0.922,0.616,1.552,0.616c0.64,0,1.157-0.203,1.552-0.608c0.395-0.405,0.592-0.922,0.592-1.552
			c0-0.64-0.195-1.165-0.584-1.576C45.475,160.592,44.955,160.386,44.304,160.386z M52.08,172.195h-9.024v-4.976h9.024V172.195z
			 M50.656,171.074v-2.72h-6.192v2.72H50.656z M48.304,161.41l-0.032-1.184h2.384v-1.824h1.424v8.128h-1.424v-1.888h-2.384
			l0.032-1.184h2.352v-2.048H48.304z"/>
		<path fill="#FFFFFF" d="M67.072,166.418H54.448v-1.136h12.624V166.418z M66.496,163.218l-0.624,1.136
			c-1.099-0.16-2.134-0.506-3.104-1.04c-0.971-0.533-1.643-1.125-2.016-1.776c-0.299,0.662-0.92,1.259-1.864,1.792
			c-0.944,0.534-2.008,0.875-3.192,1.024l-0.624-1.12c1.184-0.096,2.259-0.41,3.224-0.944c0.965-0.533,1.528-1.2,1.688-2h-4.352
			v-1.152h10.256v1.152h-4.336c0.192,0.79,0.792,1.456,1.8,2C64.36,162.834,65.408,163.144,66.496,163.218z M65.584,169.858
			c0,0.79-0.422,1.406-1.264,1.848c-0.843,0.442-2.032,0.664-3.568,0.664c-1.525,0-2.709-0.222-3.552-0.664
			s-1.264-1.059-1.264-1.848c0-0.778,0.421-1.389,1.264-1.832c0.843-0.442,2.027-0.664,3.552-0.664c1.536,0,2.725,0.216,3.568,0.648
			C65.162,168.442,65.584,169.058,65.584,169.858z M60.752,168.498c-1.035,0-1.854,0.12-2.456,0.36c-0.603,0.24-0.904,0.574-0.904,1
			c0,0.438,0.299,0.774,0.896,1.008c0.597,0.235,1.418,0.352,2.464,0.352c1.056,0,1.885-0.117,2.488-0.352
			c0.603-0.234,0.904-0.571,0.904-1.008c0-0.426-0.304-0.76-0.912-1C62.624,168.618,61.797,168.498,60.752,168.498z"/>
		<path fill="#FFFFFF" d="M85.12,166.418H72.496v-1.136H85.12V166.418z M84.544,163.218l-0.624,1.136
			c-1.099-0.16-2.134-0.506-3.104-1.04c-0.971-0.533-1.643-1.125-2.016-1.776c-0.299,0.662-0.92,1.259-1.864,1.792
			c-0.944,0.534-2.008,0.875-3.192,1.024l-0.624-1.12c1.184-0.096,2.259-0.41,3.224-0.944c0.965-0.533,1.528-1.2,1.688-2H73.68
			v-1.152h10.256v1.152H79.6c0.192,0.79,0.792,1.456,1.8,2C82.408,162.834,83.456,163.144,84.544,163.218z M83.632,169.858
			c0,0.79-0.422,1.406-1.264,1.848c-0.843,0.442-2.032,0.664-3.568,0.664c-1.525,0-2.709-0.222-3.552-0.664
			s-1.264-1.059-1.264-1.848c0-0.778,0.421-1.389,1.264-1.832c0.843-0.442,2.027-0.664,3.552-0.664c1.536,0,2.725,0.216,3.568,0.648
			C83.21,168.442,83.632,169.058,83.632,169.858z M78.8,168.498c-1.035,0-1.854,0.12-2.456,0.36c-0.603,0.24-0.904,0.574-0.904,1
			c0,0.438,0.299,0.774,0.896,1.008c0.597,0.235,1.418,0.352,2.464,0.352c1.056,0,1.885-0.117,2.488-0.352
			c0.603-0.234,0.904-0.571,0.904-1.008c0-0.426-0.304-0.76-0.912-1C80.672,168.618,79.845,168.498,78.8,168.498z"/>
		<path fill="#FFFFFF" d="M93.456,159.89c-0.043,2.176-0.603,4.085-1.68,5.728c-1.077,1.643-2.597,2.998-4.56,4.064l-0.864-1.072
			c1.621-0.779,2.925-1.846,3.912-3.2c0.986-1.354,1.544-2.794,1.672-4.32H86.96v-1.2H93.456z M97.136,158.403v5.728h2.24v1.184
			h-2.24v7.072h-1.408v-13.984H97.136z"/>
	</g>
	<g>
		<path fill="#FFFFFF" d="M237.589,156.311c0.98,0,1.815,0.32,2.504,0.96c0.688,0.64,1.031,1.456,1.031,2.448
			c0,0.981-0.338,1.773-1.016,2.376s-1.518,0.904-2.52,0.904c-0.992,0-1.83-0.301-2.513-0.904s-1.023-1.395-1.023-2.376
			s0.341-1.794,1.023-2.44S236.597,156.311,237.589,156.311z M237.589,157.527c-0.63,0-1.147,0.208-1.553,0.624
			s-0.607,0.934-0.607,1.552c0,0.629,0.202,1.149,0.607,1.56s0.923,0.616,1.553,0.616c0.64,0,1.157-0.203,1.552-0.608
			c0.395-0.405,0.592-0.922,0.592-1.552c0-0.64-0.194-1.165-0.584-1.576C238.759,157.733,238.239,157.527,237.589,157.527z
			 M245.364,169.335h-9.023v-4.976h9.023V169.335z M243.941,168.215v-2.72h-6.192v2.72H243.941z M241.589,158.551l-0.032-1.184
			h2.384v-1.824h1.424v8.128h-1.424v-1.888h-2.384l0.032-1.184h2.352v-2.048H241.589z"/>
		<path fill="#FFFFFF" d="M260.357,163.559h-12.624v-1.136h12.624V163.559z M259.78,160.359l-0.624,1.136
			c-1.099-0.16-2.134-0.506-3.104-1.04c-0.972-0.533-1.644-1.125-2.017-1.776c-0.299,0.662-0.92,1.259-1.864,1.792
			c-0.943,0.534-2.008,0.875-3.191,1.024l-0.624-1.12c1.184-0.096,2.259-0.41,3.224-0.944c0.966-0.533,1.528-1.2,1.688-2h-4.353
			v-1.152h10.256v1.152h-4.336c0.192,0.79,0.792,1.456,1.801,2C257.645,159.975,258.693,160.284,259.78,160.359z M258.868,166.999
			c0,0.79-0.422,1.406-1.264,1.848c-0.843,0.442-2.032,0.664-3.568,0.664c-1.525,0-2.709-0.222-3.552-0.664
			s-1.264-1.059-1.264-1.848c0-0.778,0.421-1.389,1.264-1.832c0.843-0.442,2.026-0.664,3.552-0.664c1.536,0,2.726,0.216,3.568,0.648
			C258.446,165.583,258.868,166.199,258.868,166.999z M254.036,165.639c-1.034,0-1.854,0.12-2.456,0.36
			c-0.603,0.24-0.904,0.574-0.904,1c0,0.438,0.299,0.774,0.896,1.008c0.598,0.235,1.419,0.352,2.464,0.352
			c1.056,0,1.886-0.117,2.488-0.352c0.603-0.234,0.904-0.571,0.904-1.008c0-0.426-0.305-0.76-0.912-1
			C255.908,165.759,255.081,165.639,254.036,165.639z"/>
		<path fill="#FFFFFF" d="M266.948,157.231c0.704-0.656,1.562-0.984,2.576-0.984c1.013,0,1.872,0.326,2.576,0.976
			c0.703,0.651,1.056,1.478,1.056,2.48c0,0.992-0.35,1.797-1.048,2.416c-0.699,0.619-1.561,0.928-2.584,0.928
			c-1.024,0-1.886-0.31-2.584-0.928c-0.699-0.619-1.048-1.424-1.048-2.416C265.893,158.711,266.244,157.887,266.948,157.231z
			 M269.525,157.479c-0.641,0-1.168,0.211-1.584,0.632s-0.624,0.947-0.624,1.576c0,0.64,0.208,1.168,0.624,1.584
			c0.416,0.416,0.943,0.624,1.584,0.624c0.65,0,1.181-0.205,1.592-0.616c0.41-0.411,0.616-0.936,0.616-1.576s-0.2-1.17-0.601-1.592
			C270.733,157.69,270.196,157.479,269.525,157.479z M277.269,169.543h-1.44v-3.936h-7.936v-1.136h9.376V169.543z M275.828,160.183
			h-2.24v-1.168h2.24v-3.472h1.424v8.208h-1.424V160.183z"/>
		<path fill="#FFFFFF" d="M286.756,165.303l-0.848,1.008c-0.544-0.352-1.107-0.882-1.688-1.592s-0.963-1.389-1.144-2.04
			c-0.149,0.715-0.491,1.435-1.024,2.16s-1.131,1.312-1.792,1.76l-0.896-0.976c0.906-0.586,1.637-1.397,2.191-2.432
			s0.832-2.213,0.832-3.536v-1.312h-2.72v-1.136h6.688v1.136h-2.576v1.264c0,1.333,0.282,2.485,0.848,3.456
			C285.193,164.034,285.902,164.781,286.756,165.303z M288.66,168.839h-1.344v-7.104h-2.08v-1.168h2.08v-4.704h1.344V168.839z
			 M291.428,169.527h-1.359v-13.984h1.359V169.527z"/>
	</g>
</g>
<g>
</g>
<g>
</g>
<g>
</g>
<g>
</g>
<g>
</g>
<g>
</g>
</svg>
