<?xml version="1.0" encoding="utf-8"?>
<!-- Generator: Adobe Illustrator 28.0.0, SVG Export Plug-In . SVG Version: 6.00 Build 0)  -->
<svg version="1.1" id="레이어_1" xmlns="http://www.w3.org/2000/svg" xmlns:xlink="http://www.w3.org/1999/xlink" x="0px"
	 y="0px" viewBox="0 0 414.126 292.649" enable-background="new 0 0 414.126 292.649" xml:space="preserve">
<g>
	<g>
		<path fill="#B41E23" d="M135.583,171.469c-0.254-0.991-0.733-2.969,0.194-4.839c1.177-2.375,3.9-3.12,7.355-4.065
			c4.029-1.102,6.881-1.881,10.065-0.581c3.252,1.329,4.966,4.059,5.419,4.839c2.263,3.895,0.398,6.201,3.097,10.839
			c0.666,1.145,1.277,1.859,1.548,3.29c0.403,2.126-0.3,3.946-0.968,5.613c-0.943,2.356-1.537,3.837-3.097,5.032
			c-3.394,2.599-7.833,1.138-8.323,0.968c-0.526-0.182-4.182-1.449-4.645-4.065c-0.179-1.013,0.255-1.466,0.387-2.323
			C147.313,181.649,137.524,179.041,135.583,171.469z"/>
		<path fill="#B41E23" d="M138.242,126.241c-0.336,0.764-0.499,1.471-0.581,1.935c-0.046,0.263-0.426,2.602,0.581,5.032
			c1.209,2.918,2.95,2.428,5.613,6c1.847,2.477,1.509,3.383,3.097,4.452c2.231,1.502,4.923,1.077,5.613,0.968
			c2.469-0.39,4.26-1.943,7.742-5.032c3.287-2.917,4.931-4.375,6.387-6.774c0.978-1.611,2.503-4.188,2.71-7.742
			c0.147-2.524-0.439-4.375-1.161-6.581c-1.943-5.934-3.904-5.965-6.387-12.387c-0.647-1.673-1.261-3.603-2.71-6.774
			c-1.424-3.117-2.068-3.959-2.903-4.645c-1.677-1.378-4.686-2.591-6.774-1.355c-1.516,0.897-1.905,2.705-2.323,4.645
			c-0.696,3.232,0.133,4.276,0,8.323c-0.094,2.849-0.591,4.949-1.161,7.355c-0.969,4.092-1.454,6.138-2.516,7.355
			C141.643,123.106,139.486,123.412,138.242,126.241z"/>
		<g>
			<path fill="#B4B7B6" d="M159.153,80.071c-5.52-6.081-10.504-10.391-12.456-12.041c-7.99-6.752-15.558-11.49-21.474-14.728
				c-2.535-0.196-6.326-0.486-10.928-0.824c-15.468-1.135-23.241-1.728-25.27-1.738c-7.31-0.035-18.25,1.755-32.266,10.977
				c-6.207,2.891-10.036,6.312-12.387,8.903c-1.523,1.678-1.987,2.526-6.256,8.246c-4.015,5.38-6.578,8.614-7.293,9.56
				c-5.055,6.687-11.58,23.065-12,41.806v0c0,3.262,0.095,13.177,2.323,24.387c1.717,8.642,4.091,14.978,6.194,20.516
				c2.463,6.488,6.907,18.193,14.323,29.032c18.5,27.042,40.226,26.377,45.29,46.839c0.537,2.169,2.759,12.141,5.572,12.104
				c1.529-0.02,2.507-2.34,5.611-4.802c1.515-1.202,3.603-1.477,5.513-1.171c8.782,1.407,14.189,4.659,16.343,2.893
				c2.194-1.799-2.344-6.96-0.91-14.056c0.897-4.438,3.615-7.088,10.065-13.161c10.291-9.692,15.437-14.537,16.645-15.484
				c6.178-4.838,28.401-22.244,37.445-46.744c9.486-25.699,1.121-50.057-0.83-55.223C176.139,98.782,164.393,85.843,159.153,80.071z
				"/>
			<path fill="#D8E1F2" stroke="#3F3B3A" stroke-width="0.75" stroke-miterlimit="10" d="M154.359,85.042
				c-5.147-5.669-9.793-9.688-11.613-11.226c-7.449-6.295-14.505-10.712-20.02-13.73c-2.363-0.183-5.898-0.453-10.189-0.768
				c-15.199-1.115-18.547-2.81-23.559-1.62c-4.015,0.953-9.752,3.738-15.522,12.635c-6.634,4.235-12.235,5.882-16.257,6.58
				c-7.872,1.367-11.423,4.307-17.024,10.071c-5.239,5.391-9.936,11.497-12.334,18.708c-2.551,7.67-2.326,15.948-2.074,24.027
				c0.29,9.301,0.798,20.315,4.414,34.636c2.079,8.234,5.443,21.142,14.242,35.655c6.041,9.965,12.077,16.451,20.903,25.936
				c8.815,9.473,63.747,7.25,66.581,0c12.601-32.236,34.359-27.487,44.903-56.516c8.972-24.702,0.485-48.151-0.774-51.484
				C170.195,102.486,159.244,90.423,154.359,85.042z"/>
			<g>
				<path fill="none" stroke="#B2C3E2" stroke-width="5" stroke-miterlimit="10" d="M70.816,72.011"/>
				<path fill="none" stroke="#B2C3E2" stroke-width="5" stroke-miterlimit="10" d="M99.853,231.106c-0.11,0-0.22-0.001-0.33-0.001
					C99.633,231.105,99.743,231.106,99.853,231.106z"/>
				<path fill="none" stroke="#B2C3E2" stroke-width="5" stroke-miterlimit="10" d="M98.118,231.094
					c0.062,0.001,0.125,0.001,0.187,0.002C98.242,231.094,98.18,231.094,98.118,231.094L98.118,231.094z"/>
				<path fill="none" stroke="#B2C3E2" stroke-width="5" stroke-miterlimit="10" d="M99.523,231.105
					c-0.406-0.002-0.813-0.005-1.219-0.01C98.711,231.1,99.117,231.103,99.523,231.105z"/>
				<path fill="none" stroke="#B2C3E2" stroke-width="5" stroke-miterlimit="10" d="M101.17,177.892
					c5.977-10.5,4.485-21.617,3.484-26.516L70.783,72.028c0.011-0.005,0.022-0.012,0.033-0.017c-4.475,2.212-8.31,3.25-11.281,3.766
					c-7.872,1.367-11.423,4.307-17.024,10.07c-5.239,5.391-9.936,11.497-12.334,18.708c-2.551,7.67-2.326,15.948-2.074,24.027
					c0.29,9.302,0.798,20.315,4.414,34.636c2.079,8.234,5.443,21.142,14.242,35.655c6.041,9.965,12.077,16.451,20.903,25.935
					c3.917,4.21,16.942,6.108,30.455,6.283l-0.818-47.781C98.649,181.777,99.981,179.982,101.17,177.892z"/>
				<path fill="none" stroke="#B2C3E2" stroke-width="5" stroke-miterlimit="10" d="M99.853,231.106"/>
			</g>
			<g>
				<path fill="#BE3A22" stroke="#A62025" stroke-miterlimit="10" d="M103.773,232.169c-0.735-0.023-1.468-0.049-2.196-0.083
					C102.305,232.119,103.037,232.146,103.773,232.169z"/>
				<path fill="#BE3A22" stroke="#A62025" stroke-miterlimit="10" d="M101.337,232.074"/>
				<path fill="#BE3A22" stroke="#A62025" stroke-miterlimit="10" d="M106.34,232.227c-0.723-0.01-1.444-0.025-2.163-0.046
					C104.896,232.201,105.617,232.216,106.34,232.227z"/>
				<path fill="#BE3A22" stroke="#A62025" stroke-miterlimit="10" d="M77.477,73.971c0.09-0.04,0.18-0.082,0.271-0.122
					C77.658,73.889,77.567,73.931,77.477,73.971z"/>
				<path fill="#BE3A22" stroke="#A62025" stroke-miterlimit="10" d="M71.893,74.639c0.048-0.019,0.094-0.036,0.142-0.055
					C71.987,74.603,71.941,74.62,71.893,74.639z"/>
				<path fill="#BE3A22" stroke="#A62025" stroke-miterlimit="10" d="M175.79,117.946c-5.841-15.458-16.792-27.522-21.677-32.903
					c-5.147-5.669-9.793-9.688-11.613-11.226c-7.449-6.295-14.505-10.712-20.02-13.73c-2.363-0.183-0.898-0.453-5.188-0.768
					c-15.199-1.115-12.547-2.81-17.559-1.62c-4.015,0.953-9.752,3.738-15.522,12.635c-1.781,1.137-3.485,2.082-5.106,2.878
					c0.044-0.022,0.086-0.04,0.131-0.062c-0.011,0.005-0.022,0.012-0.033,0.017l33.872,79.348c1.001,4.9,2.493,16.016-3.484,26.516
					c-1.189,2.089-2.521,3.885-3.871,5.419l0.818,47.779c16.894,0.219,23.55-2.255,25.125-6.283
					c12.601-32.236,34.359-27.487,44.903-56.516C185.536,144.728,177.049,121.278,175.79,117.946z"/>
				<path fill="#BE3A22" stroke="#A62025" stroke-miterlimit="10" d="M106.723,232.233c-0.062-0.001-0.125-0.002-0.187-0.002v0.001
					C106.598,232.232,106.66,232.232,106.723,232.233z"/>
				<path fill="#BE3A22" stroke="#A62025" stroke-miterlimit="10" d="M72.035,74.584c0.471-0.19,4.953-0.395,5.442-0.612
					C76.988,74.188,72.506,74.394,72.035,74.584z"/>
				<path fill="#BE3A22" stroke="#A62025" stroke-miterlimit="10" d="M77.748,73.849c0.445-0.201,0.897-0.413,1.356-0.638
					C78.644,73.436,78.193,73.648,77.748,73.849z"/>
				<path fill="#BE3A22" stroke="#A62025" stroke-miterlimit="10" d="M104.177,232.181c-0.135-0.004-0.27-0.008-0.404-0.013
					C103.908,232.173,104.042,232.177,104.177,232.181z"/>
				<path fill="#BE3A22" stroke="#A62025" stroke-miterlimit="10" d="M101.577,232.086c-0.08-0.004-0.16-0.008-0.24-0.012
					C101.417,232.077,101.497,232.082,101.577,232.086z"/>
				<path fill="#BE3A22" stroke="#A62025" stroke-miterlimit="10" d="M106.536,232.231v-0.002c-0.065-0.001-0.131-0.001-0.196-0.002
					C106.405,232.228,106.47,232.23,106.536,232.231z"/>
			</g>
			<g>
				<path fill="none" stroke="#A62025" stroke-width="6" stroke-miterlimit="10" d="M100.418,232.169
					c-0.735-0.023-1.468-0.049-2.196-0.083C98.95,232.119,99.683,232.146,100.418,232.169z"/>
				<path fill="none" stroke="#A62025" stroke-width="6" stroke-miterlimit="10" d="M97.983,232.074"/>
				<path fill="none" stroke="#A62025" stroke-width="6" stroke-miterlimit="10" d="M102.985,232.227
					c-0.723-0.01-1.444-0.025-2.163-0.046C101.541,232.201,102.262,232.216,102.985,232.227z"/>
				<path fill="none" stroke="#A62025" stroke-width="6" stroke-miterlimit="10" d="M74.123,73.971
					c0.09-0.04,0.18-0.082,0.271-0.122C74.303,73.889,74.212,73.931,74.123,73.971z"/>
				<path fill="none" stroke="#A62025" stroke-width="6" stroke-miterlimit="10" d="M68.539,74.639
					c0.048-0.019,0.094-0.036,0.142-0.055C68.633,74.603,68.587,74.62,68.539,74.639z"/>
				<path fill="none" stroke="#A62025" stroke-width="6" stroke-miterlimit="10" d="M172.435,117.946
					c-5.841-15.458-16.792-27.522-21.677-32.903c-5.147-5.669-9.793-9.688-11.613-11.226c-7.449-6.295-14.505-10.712-20.02-13.73
					c-2.363-0.183-0.898-0.453-5.188-0.768c-15.199-1.115-12.547-2.81-17.559-1.62c-4.015,0.953-9.752,3.738-15.522,12.635
					c-1.781,1.137-3.485,2.082-5.106,2.878c0.044-0.022,0.086-0.04,0.131-0.062c-0.011,0.005-0.022,0.012-0.033,0.017l33.872,79.348
					c1.001,4.9,2.493,16.016-3.484,26.516c-1.189,2.089-2.521,3.885-3.871,5.419l0.818,47.779
					c16.894,0.219,23.55-2.255,25.125-6.283c12.601-32.236,34.359-27.487,44.903-56.516
					C182.182,144.728,173.695,121.278,172.435,117.946z"/>
				<path fill="none" stroke="#A62025" stroke-width="6" stroke-miterlimit="10" d="M103.368,232.233
					c-0.062-0.001-0.125-0.002-0.187-0.002v0.001C103.244,232.232,103.306,232.232,103.368,232.233z"/>
				<path fill="none" stroke="#A62025" stroke-width="6" stroke-miterlimit="10" d="M68.681,74.584
					c0.471-0.19,4.953-0.395,5.442-0.612C73.634,74.188,69.152,74.394,68.681,74.584z"/>
				<path fill="none" stroke="#A62025" stroke-width="6" stroke-miterlimit="10" d="M74.393,73.849
					c0.445-0.201,0.897-0.413,1.356-0.638C75.29,73.436,74.838,73.648,74.393,73.849z"/>
				<path fill="none" stroke="#A62025" stroke-width="6" stroke-miterlimit="10" d="M100.823,232.181
					c-0.135-0.004-0.27-0.008-0.404-0.013C100.553,232.173,100.688,232.177,100.823,232.181z"/>
				<path fill="none" stroke="#A62025" stroke-width="6" stroke-miterlimit="10" d="M98.223,232.086
					c-0.08-0.004-0.16-0.008-0.24-0.012C98.063,232.077,98.142,232.082,98.223,232.086z"/>
				<path fill="none" stroke="#A62025" stroke-width="6" stroke-miterlimit="10" d="M103.181,232.231v-0.002
					c-0.065-0.001-0.131-0.001-0.196-0.002C103.051,232.228,103.116,232.23,103.181,232.231z"/>
			</g>
			<g>
				<path fill="#9AACCB" d="M46.872,108.063c-0.869,3.448,0.429,9.494,1.788,13.367c2.105,5.996,5.366,9.836,7.742,12.581
					c1.725,1.993,6.544,7.228,14.516,11.419c7.863,4.134,14.74,5.122,18.387,5.613c6.729,0.905,11.883,0.43,16.258,0
					c8.68-0.854,14.891-2.818,19.355-4.258c6.762-2.182,10.208-3.335,13.355-6.387c3.659-3.548,5.34-7.775,6-9.484
					c1.763-4.56,1.914-8.338,1.935-9.097c0,0,0.201-6.962-3.612-13.938C133.126,90.552,51.547,89.514,46.872,108.063z"/>
				<path fill="#E8D5C2" stroke="#595857" stroke-miterlimit="10" d="M56.371,17.975C56.396,6.596,59.665,3.51,61.016,2.491
					c2.969-2.237,6.593-2.039,8.516-1.935c21.865,1.179,48.387,2.323,48.387,2.323c0,0,0.001,0.002,0.002,0.006
					c0.189,0.455,1.954,4.748,2.32,8.124c0.299,2.757-0.339,4.853-0.62,5.971c-1.445,5.742-2.795,22.723,2.556,37.384
					c3.031,8.304,7.969,15.19,11.226,19.742c4.272,5.97,6.415,7.657,8.903,13.161c1.264,2.796,3.68,8.929,3.871,17.032
					c0.103,4.374,0.215,9.105-2.323,14.323c-2.023,4.16-4.744,6.601-7.742,9.29c-1.249,1.12-4.801,4.189-13.161,8.516
					c-7.27,3.763-10.905,5.645-16.258,6.968c-8.876,2.193-16.01,1.319-23.613,0.387c-7.751-0.95-11.719-1.482-16.258-4.258
					c-4.023-2.461-6.171-5.26-10.452-10.839c-2.643-3.445-6.509-8.555-9.677-16.258c-2.004-4.871-4.102-9.973-4.258-17.032
					c-0.162-7.334,1.859-12.929,3.097-16.258c2.396-6.444,4.148-7.609,7.742-14.71c3.972-7.847,6.825-13.483,7.342-20.555
					C61.365,33.616,56.341,32.097,56.371,17.975z"/>
			</g>
			<g>
				<path fill="#9FB2D2" d="M50.139,196.196c-2.742-3.714-2.265-8.584-2.129-9.968c0.135-1.376,0.359-3.424,1.742-5.516
					c1.089-1.649,2.412-2.589,3-3c1.904-1.328,3.679-1.752,4.065-1.839c2.582-0.58,4.614,0.08,7.065,0.774
					c3.192,0.904,6.456,1.53,9.677,2.323c3.72,0.915,7.028,1.223,13.645,1.839c7.498,0.698,11.246,1.046,14.419,0.774
					c1.395-0.12,0.821-0.135,15.871-3.194c0.449-0.091,3.138-0.577,8.516-1.548c4.053-0.732,6.121-1.096,8.129-0.968
					c2.047,0.13,4.812,0.341,7.548,2.226c0.712,0.491,2.57,1.885,3.871,4.355c2.745,5.213,0.642,10.728,0.194,11.903
					c-1.793,4.702-5.303,7.339-6.484,8.226c-17.305,13.001-64.406,2.099-81-1.742C56.4,200.408,52.551,199.462,50.139,196.196z"/>
				<path fill="#E8D5C2" stroke="#595857" stroke-miterlimit="10" d="M68.816,237.712c-3.336-5.671-5.127-7.034-7.742-11.032
					c-0.573-0.876-2.454-5.048-6.194-13.355c-2.488-5.527-3.555-7.941-4.645-11.613c-1.972-6.641-1.501-8.919-1.161-10.065
					c0.166-0.559,1.626-5.228,5.806-6.968c1.54-0.641,3.095-0.737,10.452,0.774c4.178,0.858,6.267,1.287,8.516,1.935
					c8.817,2.541,19.162,2.167,25.548,1.935c8.811-0.319,23.398-0.847,29.419-5.032c0.698-0.485,3.269-2.401,6.968-2.71
					c0.564-0.047,2.36-0.182,4.258,0.387c4.966,1.489,8.497,7.153,8.903,12.387c0.179,2.307-0.655,4.893-2.323,10.065
					c-1.629,5.052-3.234,8.723-3.484,9.29c-5.613,12.741-7.994,15.759-10.452,22.065c-2.358,6.05-2.991,10.614-4.258,19.742
					c-2.302,16.592-3.454,24.888-2.71,30.194c0.167,1.189,0.421,2.659-0.387,4.065c-2.191,3.814-9.201,1.943-22.848,1.706
					c-14.839-0.258-22.123,1.683-24.764-2.674c-0.728-1.201-0.636-2.109-0.774-4.645c-0.508-9.301-2.445-9.834-3.484-18.581
					c-1.394-11.734,1.565-15.206-1.935-22.839C70.639,240.811,69.313,238.557,68.816,237.712z"/>
			</g>
		</g>
	</g>
	<g>
		<g>
			<defs>
				<path id="SVGID_00000091716560467948049930000014914719854367474562_" d="M138.395,171.587
					c-0.157,0.203-0.284,0.423-0.386,0.653c-1.302,1.474-3.372,2.213-3.003,2.635c0.223,0.258,0.456,0.029,0.714-0.18
					c0.248-0.2,0.519-0.381,0.83-0.101c0.634,0.573-1.642,2.335-1.009,2.825c0.765,0.592,1.284-0.796,2.188-0.096
					c0.904,0.7-0.75,1.257,0.467,2.199c1.216,0.942,1.571-0.951,2.648-0.117c1.079,0.835-0.482,1.7,0.528,2.482
					c1.008,0.781,1.847-0.878,2.705-0.404c0.393,0.218,0.368,0.62,0.321,1.004c-0.056,0.452-0.144,0.88,0.385,0.957
					c1.513,0.219,2.45-3.075,3.029-3.703c0.264-0.286,0.468-0.481,0.479-0.494c1.478-1.909,0.462-5.171-2.271-7.287
					C143.287,169.846,139.874,169.678,138.395,171.587"/>
			</defs>
			<clipPath id="SVGID_00000170957014537579796400000006698461533917253041_">
				<use xlink:href="#SVGID_00000091716560467948049930000014914719854367474562_"  overflow="visible"/>
			</clipPath>
			
				<radialGradient id="SVGID_00000132806491818662060490000008923371078120076423_" cx="-96.4063" cy="737.4432" r="0.6441" gradientTransform="matrix(7.5784 5.8684 5.8062 -7.4981 -3408.5933 6271.2334)" gradientUnits="userSpaceOnUse">
				<stop  offset="0" style="stop-color:#FBF2DD"/>
				<stop  offset="0.2431" style="stop-color:#FAEED4"/>
				<stop  offset="0.6548" style="stop-color:#F6E3BA"/>
				<stop  offset="1" style="stop-color:#F2D9A0"/>
			</radialGradient>
			
				<polygon clip-path="url(#SVGID_00000170957014537579796400000006698461533917253041_)" fill="url(#SVGID_00000132806491818662060490000008923371078120076423_)" points="
				140.11,167.386 151.857,176.482 145.264,184.996 133.517,175.9 			"/>
		</g>
		<g>
			<defs>
				<path id="SVGID_00000047766931255285176840000002035202529688572803_" d="M139.615,172.263
					c-0.593,0.766-0.447,1.872,0.328,2.472c0.774,0.599,1.883,0.465,2.476-0.301c0.593-0.766,0.446-1.873-0.328-2.472
					C141.316,171.362,140.209,171.497,139.615,172.263"/>
			</defs>
			<clipPath id="SVGID_00000106121766032833119230000018234878708083653803_">
				<use xlink:href="#SVGID_00000047766931255285176840000002035202529688572803_"  overflow="visible"/>
			</clipPath>
			
				<radialGradient id="SVGID_00000102538233466961126880000000795245870591885500_" cx="-128.3385" cy="763.4019" r="0.6441" gradientTransform="matrix(2.1763 1.6852 1.6674 -2.1532 -852.6276 2033.3615)" gradientUnits="userSpaceOnUse">
				<stop  offset="0" style="stop-color:#F2D9A0"/>
				<stop  offset="0.0112" style="stop-color:#F2D9A0"/>
				<stop  offset="0.9944" style="stop-color:#E5B847"/>
				<stop  offset="1" style="stop-color:#E5B847"/>
			</radialGradient>
			
				<polygon clip-path="url(#SVGID_00000106121766032833119230000018234878708083653803_)" fill="url(#SVGID_00000102538233466961126880000000795245870591885500_)" points="
				140.689,170.876 143.493,173.047 141.345,175.821 138.542,173.65 			"/>
		</g>
		<g>
			<defs>
				<path id="SVGID_00000032634856225427692320000013169914222321347257_" d="M143.717,177.399
					c-0.467,0.603-0.351,1.476,0.258,1.947c0.609,0.472,1.483,0.365,1.949-0.238c0.467-0.603,0.352-1.476-0.257-1.947
					C145.058,176.689,144.184,176.795,143.717,177.399"/>
			</defs>
			<clipPath id="SVGID_00000128445544544363042380000011888929111142288020_">
				<use xlink:href="#SVGID_00000032634856225427692320000013169914222321347257_"  overflow="visible"/>
			</clipPath>
			
				<radialGradient id="SVGID_00000083809025563837236760000006314243957500065422_" cx="-141.8043" cy="773.8704" r="0.6439" gradientTransform="matrix(1.7138 1.3271 1.313 -1.6956 -628.3409 1678.6355)" gradientUnits="userSpaceOnUse">
				<stop  offset="0" style="stop-color:#F2D9A0"/>
				<stop  offset="0.0112" style="stop-color:#F2D9A0"/>
				<stop  offset="0.9944" style="stop-color:#E5B847"/>
				<stop  offset="1" style="stop-color:#E5B847"/>
			</radialGradient>
			
				<polygon clip-path="url(#SVGID_00000128445544544363042380000011888929111142288020_)" fill="url(#SVGID_00000083809025563837236760000006314243957500065422_)" points="
				144.563,176.306 146.771,178.015 145.079,180.201 142.871,178.491 			"/>
		</g>
		<g>
			<defs>
				<path id="SVGID_00000071539844204669222840000001473910386114262167_" d="M144.878,174.054
					c-0.467,0.603-0.352,1.476,0.258,1.948c0.61,0.472,1.483,0.365,1.95-0.238c0.467-0.604,0.352-1.475-0.258-1.947
					C146.218,173.344,145.345,173.45,144.878,174.054"/>
			</defs>
			<clipPath id="SVGID_00000110466020231648805630000014297414092155906706_">
				<use xlink:href="#SVGID_00000071539844204669222840000001473910386114262167_"  overflow="visible"/>
			</clipPath>
			
				<radialGradient id="SVGID_00000175305621612924211020000011211779602474284968_" cx="-141.6646" cy="772.8876" r="0.6439" gradientTransform="matrix(1.7138 1.3271 1.313 -1.6956 -626.0941 1673.3702)" gradientUnits="userSpaceOnUse">
				<stop  offset="0" style="stop-color:#F2D9A0"/>
				<stop  offset="0.0112" style="stop-color:#F2D9A0"/>
				<stop  offset="0.9944" style="stop-color:#E5B847"/>
				<stop  offset="1" style="stop-color:#E5B847"/>
			</radialGradient>
			
				<polygon clip-path="url(#SVGID_00000110466020231648805630000014297414092155906706_)" fill="url(#SVGID_00000175305621612924211020000011211779602474284968_)" points="
				145.724,172.961 147.931,174.671 146.239,176.856 144.032,175.147 			"/>
		</g>
		<g>
			<defs>
				<path id="SVGID_00000141417564733745788470000000088896357630087053_" d="M140.107,176.526
					c-0.378,0.488-0.285,1.193,0.208,1.574c0.493,0.382,1.198,0.296,1.576-0.193c0.377-0.487,0.284-1.192-0.209-1.574
					C141.19,175.953,140.484,176.039,140.107,176.526"/>
			</defs>
			<clipPath id="SVGID_00000142896920234662712600000008112480675608424097_">
				<use xlink:href="#SVGID_00000141417564733745788470000000088896357630087053_"  overflow="visible"/>
			</clipPath>
			
				<radialGradient id="SVGID_00000047040684097177116860000003921688851093074561_" cx="-154.6087" cy="785.4564" r="0.6441" gradientTransform="matrix(1.3854 1.0728 1.0614 -1.3707 -478.5487 1419.6779)" gradientUnits="userSpaceOnUse">
				<stop  offset="0" style="stop-color:#F2D9A0"/>
				<stop  offset="0.0112" style="stop-color:#F2D9A0"/>
				<stop  offset="0.9944" style="stop-color:#E5B847"/>
				<stop  offset="1" style="stop-color:#E5B847"/>
			</radialGradient>
			
				<polygon clip-path="url(#SVGID_00000142896920234662712600000008112480675608424097_)" fill="url(#SVGID_00000047040684097177116860000003921688851093074561_)" points="
				140.79,175.643 142.575,177.025 141.207,178.791 139.423,177.409 			"/>
		</g>
	</g>
	<g>
		<defs>
			<path id="SVGID_7_" d="M158.839,151.159c-1.983,0.589,0.621,1.443-0.474,2.702c-0.724-0.124-1.197-0.993-1.813-1.074
				c-1.013-0.136-0.864,0.756-1.395,1.311c-0.314,0.322-5.684,2.892-3.327,4.029c0.292,0.142,0.666,0.031,1.016-0.08
				c0.547-0.175,1.031-0.35,1.03,0.456c-0.003,1.039-1.856,0.958-1.939,1.818c-0.063,0.65,1.019,0.962,1.305,1.367
				c0.697,0.99,0.471,0.431-0.376,1.044c-1.086,0.788-1.712,1.664-0.688,3.071c1.479,2.035,2.931,1.17,4.855,1.982
				c1.084,0.459,1.755,1.666,2.859,2.227c0.877,0.446,2.072,0.569,2.916-0.099c0.6-0.477,0.967-1.208,1.672-1.513
				c0.585-0.253,1.129-0.12,1.678,0.014c0.374,0.091,0.75,0.182,1.144,0.15c0.675-0.054,3.088-0.846,3.123-1.708
				c0.04-0.957-2.062-1.025-1.592-2.329l0.223-0.143c1.191-0.775,1.899-1.772,2.177-3.458c0.289-1.746-1.205-1.881-2.038-3.17
				c-0.796-1.225-0.331-2.057,0.108-3.21c0.293-0.768,0.799-2.146-0.366-2.294c-0.649-0.083-1.282,0.521-1.902,1.126
				c-0.938,0.915-1.846,1.83-2.734,0.357c-0.564-0.932-0.186-1.601-1.267-2.205c-0.673-0.378-1.708-0.56-2.667-0.56
				C159.8,150.97,159.259,151.034,158.839,151.159"/>
		</defs>
		<clipPath id="SVGID_00000147918505778997896280000001154743783657640856_">
			<use xlink:href="#SVGID_7_"  overflow="visible"/>
		</clipPath>
		
			<radialGradient id="SVGID_00000159467178401384641080000002644194338152859323_" cx="-84.6069" cy="733.2323" r="0.9997" gradientTransform="matrix(-9.9823 1.2574 1.3585 10.7863 -1679.2815 -7640.1035)" gradientUnits="userSpaceOnUse">
			<stop  offset="0" style="stop-color:#FFFFFF"/>
			<stop  offset="1" style="stop-color:#9FC0E3"/>
		</radialGradient>
		
			<polygon clip-path="url(#SVGID_00000147918505778997896280000001154743783657640856_)" fill="url(#SVGID_00000159467178401384641080000002644194338152859323_)" points="
			173.953,170.275 149.817,173.315 147.041,151.277 171.177,148.236 		"/>
	</g>
	<g>
		<path fill="none" stroke="#000000" stroke-width="0.25" d="M168.833,164.528c-0.471,1.304,1.632,1.371,1.592,2.329
			c-0.035,0.862-2.449,1.654-3.124,1.708c-0.969,0.077-1.838-0.592-2.822-0.165c-0.705,0.306-1.072,1.036-1.672,1.513
			c-0.844,0.669-2.038,0.545-2.915,0.1c-1.104-0.561-1.775-1.769-2.86-2.228c-1.923-0.811-3.376,0.054-4.854-1.981
			c-1.025-1.408-0.399-2.284,0.688-3.071c0.847-0.613,1.072-0.054,0.375-1.045c-0.285-0.405-1.368-0.716-1.304-1.366
			c0.083-0.86,1.936-0.78,1.938-1.818c0.002-1.321-1.293-0.012-2.046-0.376c-2.356-1.137,3.013-3.707,3.327-4.03
			c0.531-0.554,0.383-1.447,1.395-1.311c0.617,0.081,1.089,0.95,1.813,1.074c1.095-1.258-1.509-2.113,0.474-2.702
			c1.132-0.336,3.124-0.229,4.195,0.371c1.081,0.605,0.704,1.273,1.267,2.206c1.476,2.444,3.004-1.692,4.637-1.484
			c1.164,0.148,0.659,1.526,0.366,2.295c-0.44,1.153-0.905,1.984-0.109,3.21c0.834,1.289,2.327,1.423,2.038,3.17
			c-0.278,1.686-0.985,2.683-2.176,3.459L168.833,164.528z"/>
	</g>
	<g>
		<defs>
			<path id="SVGID_10_" d="M161.75,156.713c-0.395,0.24-0.677,0.824-1.049,1.015c-0.421,0.215-0.9,0.064-1.356,0.217
				c-1.024,0.342-1.666,1.194-1.945,2.298c-1.223,4.801,7.4,5.857,8.069,0.622c0.079-0.622,0.062-1.304-0.06-1.958
				c-0.276-1.485-1.218-2.576-2.411-2.576C162.606,156.33,162.184,156.449,161.75,156.713"/>
		</defs>
		<clipPath id="SVGID_00000076563676811537946190000007538709768997875073_">
			<use xlink:href="#SVGID_10_"  overflow="visible"/>
		</clipPath>
		
			<radialGradient id="SVGID_00000104704607801858034430000017593807888378730144_" cx="-77.9961" cy="710.7189" r="1" gradientTransform="matrix(3.8894 0.039 -0.039 -4.1922 492.4854 3142.8416)" gradientUnits="userSpaceOnUse">
			<stop  offset="0" style="stop-color:#9FC0E3"/>
			<stop  offset="1" style="stop-color:#258DCA"/>
		</radialGradient>
		
			<polygon clip-path="url(#SVGID_00000076563676811537946190000007538709768997875073_)" fill="url(#SVGID_00000104704607801858034430000017593807888378730144_)" points="
			156.086,156.235 165.549,156.33 165.64,166.194 156.177,166.099 		"/>
	</g>
	<path fill="none" stroke="#000000" stroke-width="0.25" d="M165.409,158.906c0.123,0.654,0.14,1.337,0.061,1.958
		c-0.669,5.236-9.292,4.179-8.07-0.621c0.279-1.105,0.921-1.956,1.946-2.298c0.455-0.154,0.934-0.002,1.355-0.218
		c0.372-0.19,0.654-0.775,1.049-1.014C163.496,155.652,165.043,156.931,165.409,158.906z"/>
	<g>
		<g>
			<defs>
				<path id="SVGID_58_" d="M159.123,111.234c-0.964,0.077-1.008,0.99-1.728,1.439c-0.759,0.474-1.483,0.058-2.2,0.639
					c-0.587,0.474,0.011,1.847-0.109,2.353c-0.211,0.89-1.902,1.338-1.569,2.354c0.139,0.428,1.081,1.002,1.144,1.645
					c0.145,1.485-1.114,1.643-0.781,2.694c0.4,1.269,1.312,0.723,2.105,1.305c0.992,0.729,0.715,2.082,1.611,2.367
					c0.634,0.202,1.104-0.04,1.541-0.283c0.373-0.207,0.721-0.414,1.126-0.345c0.719,0.124,0.965,0.548,1.48,0.849
					c0.715,0.417,1.036-0.45,1.353-0.94c0.51-0.788,1.042-0.416,1.595-0.044c0.496,0.334,1.01,0.668,1.543,0.163
					c0.781-0.738,0.061-1.942,0.798-2.838c0.829-1.007,1.457-0.507,1.806-1.273c0.325-0.712-0.498-1.054-0.553-1.781
					c-0.075-1.004,0.82-1.01,1.007-1.884c0.175-0.811-0.315-1.177-1.108-1.556c-0.075-0.034-0.139-0.074-0.195-0.115
					c-0.682-0.506-0.07-1.573-0.531-2.188c-0.529-0.704-1.2-0.613-1.691-0.521c-0.17,0.031-0.318,0.062-0.431,0.062
					c-1.072-0.008-0.759-1.888-2.041-1.849c-0.899,0.026-1.316,0.74-2.079,0.824c-0.627,0.069-0.904-0.233-1.155-0.535
					c-0.227-0.272-0.432-0.545-0.853-0.545C159.179,111.23,159.152,111.232,159.123,111.234"/>
			</defs>
			<clipPath id="SVGID_00000092429985832366912990000000122905886746015363_">
				<use xlink:href="#SVGID_58_"  overflow="visible"/>
			</clipPath>
			
				<radialGradient id="SVGID_00000106848370113186736610000014379469008122149028_" cx="-79.7984" cy="-132.3934" r="0.4106" gradientTransform="matrix(18.8134 0 0 -18.8134 1664.3624 -2372.3115)" gradientUnits="userSpaceOnUse">
				<stop  offset="0" style="stop-color:#FBE4DE"/>
				<stop  offset="1" style="stop-color:#F5BEB6"/>
			</radialGradient>
			
				<rect x="153.185" y="111.23" clip-path="url(#SVGID_00000092429985832366912990000000122905886746015363_)" fill="url(#SVGID_00000106848370113186736610000014379469008122149028_)" width="16.281" height="15.438"/>
		</g>
		<path fill="none" stroke="#000000" stroke-width="0.1027" d="M167.987,115.983c0.056,0.041,0.12,0.081,0.195,0.115
			c0.793,0.379,1.283,0.744,1.108,1.556c-0.187,0.874-1.082,0.88-1.007,1.884c0.055,0.727,0.878,1.068,0.553,1.78
			c-0.349,0.766-0.977,0.266-1.806,1.273c-0.737,0.896-0.018,2.1-0.798,2.838c-1.126,1.066-2.17-1.615-3.139-0.119
			c-0.317,0.489-0.637,1.356-1.353,0.94c-0.515-0.301-0.761-0.725-1.48-0.849c-0.879-0.15-1.491,1.001-2.666,0.627
			c-0.896-0.285-0.618-1.638-1.611-2.367c-0.793-0.582-1.704-0.036-2.105-1.305c-0.332-1.051,0.926-1.208,0.781-2.694
			c-0.063-0.643-1.004-1.217-1.144-1.645c-0.332-1.016,1.359-1.464,1.569-2.354c0.12-0.506-0.478-1.879,0.109-2.353
			c0.717-0.58,1.441-0.164,2.2-0.639c0.72-0.449,0.764-1.363,1.728-1.439c0.974-0.077,0.863,1.21,2.09,1.076
			c0.763-0.083,1.181-0.797,2.079-0.823c1.282-0.039,0.969,1.84,2.041,1.849c0.442,0.005,1.411-0.487,2.122,0.46
			C167.918,114.41,167.306,115.477,167.987,115.983z"/>
		<g>
			<defs>
				<path id="SVGID_61_" d="M159.1,114.364c-0.749,0.679-0.364,2.355,0.694,2.355c0.095,0,0.198-0.013,0.303-0.043
					c0.254-0.071,0.55-0.223,0.732-0.418c0.186-0.199,0.236-0.447,0.521-0.565c0.232-0.096,0.5-0.137,0.765-0.137
					c0.219,0,0.438,0.027,0.635,0.074c0.495,0.116,1.08,0.34,1.274,0.83c0.116,0.291,0.246,1.02,0.119,1.326
					c-0.173,0.419-0.829,0.444-1.088,0.8c-0.291,0.4-0.321,0.943-0.097,1.379c0.148,0.289,0.534,0.393,0.65,0.692
					c0.35,0.901-0.339,1.67-1.209,1.804c-0.092,0.014-0.192,0.022-0.299,0.022c-0.149,0-0.309-0.014-0.471-0.042
					c-0.596-0.104-1.221-0.398-1.423-0.886c-0.199-0.48-0.381-0.745-0.932-0.745h-0.044c-0.675,0.016-1.19,0.87-1.172,1.487
					c0.016,0.588,0.632,1.195,1.227,1.195c0.174,0,0.346-0.052,0.502-0.171c0.257-0.198,0.375-0.605,0.74-0.607h0.003
					c0.346,0,0.717,0.265,1.064,0.31c0.216,0.028,0.445,0.047,0.673,0.047c0.869,0,1.741-0.266,1.956-1.242
					c0.114-0.522-0.026-1.017,0.521-1.275c0.714-0.337,1.025-1.087,0.554-1.796c-0.133-0.199-0.371-0.329-0.487-0.532
					c-0.264-0.463,0.029-1.07-0.1-1.578c-0.143-0.563-0.467-1.101-1.022-1.332c-0.656-0.272-1.387-0.043-2.057-0.265
					c-0.327-0.109-0.4-0.214-0.564-0.488c-0.229-0.383-0.621-0.56-1.025-0.56C159.704,114.003,159.359,114.128,159.1,114.364"/>
			</defs>
			<clipPath id="SVGID_00000163787097391752021380000016142518546175733182_">
				<use xlink:href="#SVGID_61_"  overflow="visible"/>
			</clipPath>
			
				<radialGradient id="SVGID_00000178177366609133172770000015593792446425322637_" cx="-79.7883" cy="-37.9406" r="0.4106" gradientTransform="matrix(18.8067 0 0 18.8067 1663.5297 831.9977)" gradientUnits="userSpaceOnUse">
				<stop  offset="0" style="stop-color:#F5BEB6"/>
				<stop  offset="1" style="stop-color:#EB8A83"/>
			</radialGradient>
			
				<rect x="158.041" y="114.003" clip-path="url(#SVGID_00000163787097391752021380000016142518546175733182_)" fill="url(#SVGID_00000178177366609133172770000015593792446425322637_)" width="7.728" height="9.49"/>
		</g>
		<g>
			<defs>
				<path id="SVGID_64_" d="M156.097,114.626c0,0.285,0.231,0.515,0.515,0.515c0.283,0,0.515-0.23,0.515-0.515
					c0-0.285-0.232-0.515-0.515-0.515C156.328,114.112,156.097,114.342,156.097,114.626"/>
			</defs>
			<clipPath id="SVGID_00000137814009690333232450000005092276683501991332_">
				<use xlink:href="#SVGID_64_"  overflow="visible"/>
			</clipPath>
			
				<radialGradient id="SVGID_00000109736039238627254100000011614529218779264674_" cx="4.9794" cy="-798.0957" r="0.4107" gradientTransform="matrix(1.2538 0 0 -1.2538 150.3691 -885.9939)" gradientUnits="userSpaceOnUse">
				<stop  offset="0" style="stop-color:#F5BEB6"/>
				<stop  offset="1" style="stop-color:#EB8A83"/>
			</radialGradient>
			
				<rect x="156.097" y="114.112" clip-path="url(#SVGID_00000137814009690333232450000005092276683501991332_)" fill="url(#SVGID_00000109736039238627254100000011614529218779264674_)" width="1.03" height="1.029"/>
		</g>
		<g>
			<defs>
				<path id="SVGID_67_" d="M155.895,122.243c0,0.285,0.23,0.514,0.514,0.514c0.285,0,0.515-0.23,0.515-0.514
					c0-0.285-0.23-0.514-0.515-0.514C156.125,121.73,155.895,121.958,155.895,122.243"/>
			</defs>
			<clipPath id="SVGID_00000036241498211474815380000009370809467187962514_">
				<use xlink:href="#SVGID_67_"  overflow="visible"/>
			</clipPath>
			
				<radialGradient id="SVGID_00000160869800357712228230000010684486881563002789_" cx="5.3094" cy="-790.141" r="0.4106" gradientTransform="matrix(1.2524 0 0 -1.2524 149.7603 -867.329)" gradientUnits="userSpaceOnUse">
				<stop  offset="0" style="stop-color:#F5BEB6"/>
				<stop  offset="1" style="stop-color:#EB8A83"/>
			</radialGradient>
			
				<rect x="155.895" y="121.73" clip-path="url(#SVGID_00000036241498211474815380000009370809467187962514_)" fill="url(#SVGID_00000160869800357712228230000010684486881563002789_)" width="1.029" height="1.028"/>
		</g>
		<g>
			<defs>
				<path id="SVGID_70_" d="M166.014,121.186c0,0.284,0.23,0.514,0.514,0.514c0.285,0,0.516-0.23,0.516-0.514
					c0-0.284-0.23-0.515-0.516-0.515C166.244,120.671,166.014,120.902,166.014,121.186"/>
			</defs>
			<clipPath id="SVGID_00000104698146427466159510000013314648121029502353_">
				<use xlink:href="#SVGID_70_"  overflow="visible"/>
			</clipPath>
			
				<radialGradient id="SVGID_00000043445667586681922870000002678161504566300554_" cx="-6.3725" cy="-790.5879" r="0.4106" gradientTransform="matrix(1.2538 0 0 -1.2538 174.5185 -870.0221)" gradientUnits="userSpaceOnUse">
				<stop  offset="0" style="stop-color:#F5BEB6"/>
				<stop  offset="1" style="stop-color:#EB8A83"/>
			</radialGradient>
			
				<rect x="166.014" y="120.671" clip-path="url(#SVGID_00000104698146427466159510000013314648121029502353_)" fill="url(#SVGID_00000043445667586681922870000002678161504566300554_)" width="1.03" height="1.029"/>
		</g>
		<g>
			<defs>
				<path id="SVGID_73_" d="M164.466,114.597c0,0.284,0.23,0.515,0.514,0.515c0.285,0,0.515-0.23,0.515-0.515
					c0-0.285-0.23-0.516-0.515-0.516C164.696,114.081,164.466,114.312,164.466,114.597"/>
			</defs>
			<clipPath id="SVGID_00000034055204534234389680000003381510547803675803_">
				<use xlink:href="#SVGID_73_"  overflow="visible"/>
			</clipPath>
			
				<radialGradient id="SVGID_00000005249432891827853500000016859897564104140722_" cx="-4.5798" cy="-798.3067" r="0.4107" gradientTransform="matrix(1.2535 0 0 -1.2535 170.721 -886.041)" gradientUnits="userSpaceOnUse">
				<stop  offset="0" style="stop-color:#F5BEB6"/>
				<stop  offset="1" style="stop-color:#EB8A83"/>
			</radialGradient>
			
				<rect x="164.466" y="114.081" clip-path="url(#SVGID_00000034055204534234389680000003381510547803675803_)" fill="url(#SVGID_00000005249432891827853500000016859897564104140722_)" width="1.029" height="1.03"/>
		</g>
		<g>
			<defs>
				<path id="SVGID_76_" d="M155.314,118.149c0,0.284,0.23,0.515,0.514,0.515c0.286,0,0.516-0.23,0.516-0.515
					c0-0.285-0.23-0.515-0.516-0.515C155.544,117.635,155.314,117.865,155.314,118.149"/>
			</defs>
			<clipPath id="SVGID_00000018949552464950205470000012785118914431079085_">
				<use xlink:href="#SVGID_76_"  overflow="visible"/>
			</clipPath>
			
				<radialGradient id="SVGID_00000165925220617900197140000004088888526445879939_" cx="5.8967" cy="-794.222" r="0.4106" gradientTransform="matrix(1.2535 0 0 -1.2535 148.4374 -877.392)" gradientUnits="userSpaceOnUse">
				<stop  offset="0" style="stop-color:#F5BEB6"/>
				<stop  offset="1" style="stop-color:#EB8A83"/>
			</radialGradient>
			
				<rect x="155.314" y="117.635" clip-path="url(#SVGID_00000018949552464950205470000012785118914431079085_)" fill="url(#SVGID_00000165925220617900197140000004088888526445879939_)" width="1.03" height="1.029"/>
		</g>
		<g>
			<defs>
				<path id="SVGID_79_" d="M158.732,112.848c0,0.284,0.229,0.515,0.515,0.515c0.284,0,0.514-0.231,0.514-0.515
					c0-0.285-0.23-0.516-0.514-0.516C158.961,112.332,158.732,112.563,158.732,112.848"/>
			</defs>
			<clipPath id="SVGID_00000031904018439413676430000000623884950330321826_">
				<use xlink:href="#SVGID_79_"  overflow="visible"/>
			</clipPath>
			
				<radialGradient id="SVGID_00000069362000699991214170000003350588023390403499_" cx="1.9831" cy="-800.2927" r="0.4107" gradientTransform="matrix(1.2535 0 0 -1.2535 156.7607 -890.3035)" gradientUnits="userSpaceOnUse">
				<stop  offset="0" style="stop-color:#F5BEB6"/>
				<stop  offset="1" style="stop-color:#EB8A83"/>
			</radialGradient>
			
				<rect x="158.732" y="112.332" clip-path="url(#SVGID_00000031904018439413676430000000623884950330321826_)" fill="url(#SVGID_00000069362000699991214170000003350588023390403499_)" width="1.029" height="1.03"/>
		</g>
		<g>
			<defs>
				<path id="SVGID_82_" d="M162.338,113.4c0,0.283,0.231,0.515,0.515,0.515c0.285,0,0.515-0.231,0.515-0.515
					c0-0.285-0.23-0.515-0.515-0.515C162.569,112.886,162.338,113.115,162.338,113.4"/>
			</defs>
			<clipPath id="SVGID_00000160880047412096960300000001767397493583411357_">
				<use xlink:href="#SVGID_82_"  overflow="visible"/>
			</clipPath>
			
				<radialGradient id="SVGID_00000057140084467495899230000009388953347754469264_" cx="-2.1459" cy="-799.6599" r="0.4106" gradientTransform="matrix(1.2535 0 0 -1.2535 165.5426 -888.9573)" gradientUnits="userSpaceOnUse">
				<stop  offset="0" style="stop-color:#F5BEB6"/>
				<stop  offset="1" style="stop-color:#EB8A83"/>
			</radialGradient>
			
				<rect x="162.338" y="112.886" clip-path="url(#SVGID_00000160880047412096960300000001767397493583411357_)" fill="url(#SVGID_00000057140084467495899230000009388953347754469264_)" width="1.03" height="1.029"/>
		</g>
		<g>
			<defs>
				<path id="SVGID_85_" d="M166.299,118.844c0,0.284,0.23,0.514,0.515,0.514c0.285,0,0.515-0.23,0.515-0.514
					c0-0.285-0.23-0.515-0.515-0.515C166.529,118.329,166.299,118.559,166.299,118.844"/>
			</defs>
			<clipPath id="SVGID_00000011721911606622988100000009098989549863578260_">
				<use xlink:href="#SVGID_85_"  overflow="visible"/>
			</clipPath>
			
				<radialGradient id="SVGID_00000140729805510817195710000008368669569442243495_" cx="-6.6473" cy="-793.7266" r="0.4106" gradientTransform="matrix(1.2529 0 0 -1.2529 175.1424 -875.6564)" gradientUnits="userSpaceOnUse">
				<stop  offset="0" style="stop-color:#F5BEB6"/>
				<stop  offset="1" style="stop-color:#EB8A83"/>
			</radialGradient>
			
				<rect x="166.299" y="118.329" clip-path="url(#SVGID_00000011721911606622988100000009098989549863578260_)" fill="url(#SVGID_00000140729805510817195710000008368669569442243495_)" width="1.029" height="1.028"/>
		</g>
		<g>
			<defs>
				<path id="SVGID_88_" d="M164.456,123.676c0,0.285,0.23,0.517,0.515,0.517c0.284,0,0.514-0.231,0.514-0.517
					c0-0.283-0.23-0.514-0.514-0.514C164.686,123.162,164.456,123.393,164.456,123.676"/>
			</defs>
			<clipPath id="SVGID_00000058570957091809598610000014835303063855660421_">
				<use xlink:href="#SVGID_88_"  overflow="visible"/>
			</clipPath>
			
				<radialGradient id="SVGID_00000043459574572206172340000009216596946632476329_" cx="-4.5725" cy="-787.8757" r="0.4106" gradientTransform="matrix(1.2535 0 0 -1.2535 170.7022 -863.9329)" gradientUnits="userSpaceOnUse">
				<stop  offset="0" style="stop-color:#F5BEB6"/>
				<stop  offset="1" style="stop-color:#EB8A83"/>
			</radialGradient>
			
				<rect x="164.456" y="123.162" clip-path="url(#SVGID_00000058570957091809598610000014835303063855660421_)" fill="url(#SVGID_00000043459574572206172340000009216596946632476329_)" width="1.028" height="1.03"/>
		</g>
		<g>
			<defs>
				<path id="SVGID_91_" d="M161.433,117.132c0,0.285,0.231,0.515,0.515,0.515c0.286,0,0.515-0.23,0.515-0.515
					c0-0.285-0.229-0.514-0.515-0.514C161.664,116.618,161.433,116.848,161.433,117.132"/>
			</defs>
			<clipPath id="SVGID_00000035490511249418582460000018407042824620218784_">
				<use xlink:href="#SVGID_91_"  overflow="visible"/>
			</clipPath>
			
				<radialGradient id="SVGID_00000110432563675451062320000015327066927039307929_" cx="-1.0747" cy="-795.6868" r="0.4107" gradientTransform="matrix(1.2529 0 0 -1.2529 163.2945 -879.8234)" gradientUnits="userSpaceOnUse">
				<stop  offset="0" style="stop-color:#F5BEB6"/>
				<stop  offset="1" style="stop-color:#EB8A83"/>
			</radialGradient>
			
				<rect x="161.433" y="116.618" clip-path="url(#SVGID_00000035490511249418582460000018407042824620218784_)" fill="url(#SVGID_00000110432563675451062320000015327066927039307929_)" width="1.029" height="1.029"/>
		</g>
		<g>
			<defs>
				<path id="SVGID_94_" d="M161.663,124.091c0,0.285,0.231,0.515,0.515,0.515c0.284,0,0.515-0.23,0.515-0.515
					c0-0.285-0.231-0.515-0.515-0.515C161.894,123.576,161.663,123.806,161.663,124.091"/>
			</defs>
			<clipPath id="SVGID_00000034804025323840891850000006682123175487874717_">
				<use xlink:href="#SVGID_94_"  overflow="visible"/>
			</clipPath>
			
				<radialGradient id="SVGID_00000071532167378628730230000013065431900947847309_" cx="-1.391" cy="-787.2618" r="0.4106" gradientTransform="matrix(1.2538 0 0 -1.2538 163.9215 -862.9465)" gradientUnits="userSpaceOnUse">
				<stop  offset="0" style="stop-color:#F5BEB6"/>
				<stop  offset="1" style="stop-color:#EB8A83"/>
			</radialGradient>
			
				<rect x="161.663" y="123.576" clip-path="url(#SVGID_00000034804025323840891850000006682123175487874717_)" fill="url(#SVGID_00000071532167378628730230000013065431900947847309_)" width="1.029" height="1.03"/>
		</g>
		<g>
			<defs>
				<path id="SVGID_97_" d="M158.935,118.431c0,0.285,0.232,0.516,0.515,0.516c0.284,0,0.515-0.231,0.515-0.516
					c0-0.284-0.232-0.514-0.515-0.514C159.167,117.917,158.935,118.147,158.935,118.431"/>
			</defs>
			<clipPath id="SVGID_00000003068180240274362060000000757076401501988495_">
				<use xlink:href="#SVGID_97_"  overflow="visible"/>
			</clipPath>
			
				<radialGradient id="SVGID_00000137847627044847596360000003307144669651553460_" cx="1.6921" cy="-793.4236" r="0.4107" gradientTransform="matrix(1.2543 0 0 -1.2543 157.3278 -876.7753)" gradientUnits="userSpaceOnUse">
				<stop  offset="0" style="stop-color:#F5BEB6"/>
				<stop  offset="1" style="stop-color:#EB8A83"/>
			</radialGradient>
			
				<rect x="158.935" y="117.917" clip-path="url(#SVGID_00000003068180240274362060000000757076401501988495_)" fill="url(#SVGID_00000137847627044847596360000003307144669651553460_)" width="1.031" height="1.03"/>
		</g>
		<g>
			<defs>
				<path id="SVGID_100_" d="M166.115,116.378c0,0.284,0.229,0.514,0.514,0.514c0.284,0,0.515-0.23,0.515-0.514
					c0-0.285-0.23-0.515-0.515-0.515C166.344,115.863,166.115,116.093,166.115,116.378"/>
			</defs>
			<clipPath id="SVGID_00000011717442060561367170000014256179144463842954_">
				<use xlink:href="#SVGID_100_"  overflow="visible"/>
			</clipPath>
			
				<radialGradient id="SVGID_00000173840455537824058000000001135318873574058624_" cx="-6.4016" cy="-796.8638" r="0.4107" gradientTransform="matrix(1.2524 0 0 -1.2524 174.6464 -881.6149)" gradientUnits="userSpaceOnUse">
				<stop  offset="0" style="stop-color:#F5BEB6"/>
				<stop  offset="1" style="stop-color:#EB8A83"/>
			</radialGradient>
			
				<rect x="166.115" y="115.863" clip-path="url(#SVGID_00000011717442060561367170000014256179144463842954_)" fill="url(#SVGID_00000173840455537824058000000001135318873574058624_)" width="1.028" height="1.029"/>
		</g>
		<g>
			<defs>
				<path id="SVGID_103_" d="M161.001,120.148c0,0.285,0.231,0.514,0.514,0.514c0.285,0,0.515-0.229,0.515-0.514
					c0-0.285-0.23-0.515-0.515-0.515C161.232,119.633,161.001,119.863,161.001,120.148"/>
			</defs>
			<clipPath id="SVGID_00000024704065187530379910000012715227327703147160_">
				<use xlink:href="#SVGID_103_"  overflow="visible"/>
			</clipPath>
			
				<radialGradient id="SVGID_00000162338824008987629080000004556649015967186620_" cx="-0.5775" cy="-792.2439" r="0.4106" gradientTransform="matrix(1.2529 0 0 -1.2529 162.2389 -872.4785)" gradientUnits="userSpaceOnUse">
				<stop  offset="0" style="stop-color:#F5BEB6"/>
				<stop  offset="1" style="stop-color:#EB8A83"/>
			</radialGradient>
			
				<rect x="161.001" y="119.633" clip-path="url(#SVGID_00000024704065187530379910000012715227327703147160_)" fill="url(#SVGID_00000162338824008987629080000004556649015967186620_)" width="1.029" height="1.029"/>
		</g>
		<g>
			<defs>
				<path id="SVGID_106_" d="M158.102,124.769c0,0.284,0.23,0.514,0.514,0.514c0.285,0,0.516-0.23,0.516-0.514
					c0-0.285-0.23-0.515-0.516-0.515C158.332,124.254,158.102,124.484,158.102,124.769"/>
			</defs>
			<clipPath id="SVGID_00000157994210482662302610000016840112177826253728_">
				<use xlink:href="#SVGID_106_"  overflow="visible"/>
			</clipPath>
			
				<radialGradient id="SVGID_00000018232013375852985130000011615969533412124089_" cx="2.7433" cy="-786.9507" r="0.4107" gradientTransform="matrix(1.2529 0 0 -1.2529 155.1792 -861.226)" gradientUnits="userSpaceOnUse">
				<stop  offset="0" style="stop-color:#F5BEB6"/>
				<stop  offset="1" style="stop-color:#EB8A83"/>
			</radialGradient>
			
				<rect x="158.102" y="124.254" clip-path="url(#SVGID_00000157994210482662302610000016840112177826253728_)" fill="url(#SVGID_00000018232013375852985130000011615969533412124089_)" width="1.029" height="1.029"/>
		</g>
		<g>
			<defs>
				<path id="SVGID_109_" d="M156.958,119.624c0,0.284,0.23,0.515,0.515,0.515s0.515-0.231,0.515-0.515
					c0-0.284-0.231-0.515-0.515-0.515S156.958,119.34,156.958,119.624"/>
			</defs>
			<clipPath id="SVGID_00000123417063843862560780000004403206732348581551_">
				<use xlink:href="#SVGID_109_"  overflow="visible"/>
			</clipPath>
			
				<radialGradient id="SVGID_00000051383329192962626820000003687470242311340454_" cx="4.0343" cy="-792.6911" r="0.4107" gradientTransform="matrix(1.2532 0 0 -1.2532 152.4165 -873.7764)" gradientUnits="userSpaceOnUse">
				<stop  offset="0" style="stop-color:#F5BEB6"/>
				<stop  offset="1" style="stop-color:#EB8A83"/>
			</radialGradient>
			
				<rect x="156.958" y="119.109" clip-path="url(#SVGID_00000123417063843862560780000004403206732348581551_)" fill="url(#SVGID_00000051383329192962626820000003687470242311340454_)" width="1.029" height="1.029"/>
		</g>
		<g>
			<defs>
				<path id="SVGID_112_" d="M156.871,116.424c0,0.285,0.231,0.515,0.514,0.515c0.285,0,0.515-0.23,0.515-0.515
					c0-0.284-0.23-0.514-0.515-0.514C157.101,115.91,156.871,116.14,156.871,116.424"/>
			</defs>
			<clipPath id="SVGID_00000083806592996871036790000011530623720831433632_">
				<use xlink:href="#SVGID_112_"  overflow="visible"/>
			</clipPath>
			
				<radialGradient id="SVGID_00000080915185481974262050000012267523883296387250_" cx="4.1539" cy="-796.5085" r="0.4107" gradientTransform="matrix(1.2529 0 0 -1.2529 152.1806 -881.5449)" gradientUnits="userSpaceOnUse">
				<stop  offset="0" style="stop-color:#F5BEB6"/>
				<stop  offset="1" style="stop-color:#EB8A83"/>
			</radialGradient>
			
				<rect x="156.871" y="115.91" clip-path="url(#SVGID_00000083806592996871036790000011530623720831433632_)" fill="url(#SVGID_00000080915185481974262050000012267523883296387250_)" width="1.029" height="1.029"/>
		</g>
	</g>
	<g>
		<path fill="none" d="M139.874,148.631c-4.253,0-7.699,3.447-7.699,7.699"/>
		<path fill="none" d="M132.175,156.33c0,4.252,3.446,7.699,7.699,7.699c4.252,0,7.699-3.447,7.699-7.699
			c0-4.252-3.447-7.699-7.699-7.699"/>
		<g>
			<defs>
				<path id="SVGID_8_" d="M139.874,148.632c4.252,0,7.699,3.446,7.699,7.699c0,4.252-3.447,7.699-7.699,7.699
					c-4.253,0-7.699-3.447-7.699-7.699C132.175,152.078,135.622,148.632,139.874,148.632"/>
			</defs>
			<clipPath id="SVGID_00000103985506961776624680000009793546542645221052_">
				<use xlink:href="#SVGID_8_"  overflow="visible"/>
			</clipPath>
			
				<radialGradient id="SVGID_00000119832630872927740740000012584209230569852082_" cx="-97.4255" cy="-134.0051" r="0.4598" gradientTransform="matrix(19.0084 0 0 -19.0084 1993.5543 -2392.9641)" gradientUnits="userSpaceOnUse">
				<stop  offset="0" style="stop-color:#FFFFFF"/>
				<stop  offset="0.347" style="stop-color:#FCE7E2"/>
				<stop  offset="0.7739" style="stop-color:#F7CAC2"/>
				<stop  offset="1" style="stop-color:#F5BEB6"/>
			</radialGradient>
			
				<polyline clip-path="url(#SVGID_00000103985506961776624680000009793546542645221052_)" fill="url(#SVGID_00000119832630872927740740000012584209230569852082_)" points="
				147.573,148.631 147.573,164.029 132.175,164.029 132.175,148.631 			"/>
		</g>
		<g>
			<defs>
				<path id="SVGID_1_" d="M135.26,156.503c0,2.922,2.369,5.291,5.292,5.291s5.292-2.369,5.292-5.291
					c0-2.924-2.37-5.293-5.292-5.293S135.26,153.579,135.26,156.503"/>
			</defs>
			<clipPath id="SVGID_00000110437162230270723490000001350598813266150823_">
				<use xlink:href="#SVGID_1_"  overflow="visible"/>
			</clipPath>
			
				<radialGradient id="SVGID_00000065762016983819961050000003716413631529782461_" cx="-96.3891" cy="-40.4073" r="0.4598" gradientTransform="matrix(20.7482 0 0 20.7482 2141.1697 992.0573)" gradientUnits="userSpaceOnUse">
				<stop  offset="0" style="stop-color:#F5BEB6"/>
				<stop  offset="0.3948" style="stop-color:#F0A8A0"/>
				<stop  offset="1" style="stop-color:#EB8A83"/>
			</radialGradient>
			
				<rect x="135.26" y="151.21" clip-path="url(#SVGID_00000110437162230270723490000001350598813266150823_)" fill="url(#SVGID_00000065762016983819961050000003716413631529782461_)" width="10.584" height="10.584"/>
		</g>
	</g>
	<g>
		<defs>
			<path id="SVGID_12_" d="M141.795,125.328c-0.698,0.355,0.924,1.609,0.777,3.033c-0.033,0.326-0.022,0.514-0.194,0.659
				c-0.411,0.189-0.793,0.431-1.134,0.721c-0.002,0.001-0.006,0.003-0.008,0.004c-0.36,0.094-1.02-0.098-1.363-0.207
				c-0.552-0.176-1.094-0.591-1.58-0.902c-0.597-0.383-1.787-0.781-2.073-0.42c-0.516,0.651,0.723,0.863,1.038,0.993
				c0.699,0.29,1.415,0.47,2.224,1.446c0.173,0.209,0.312,0.647,0.35,1.056c-0.109,0.275-0.196,0.56-0.254,0.857
				c-0.131,0.052-0.312,0.02-0.564-0.156c-0.168-0.118-0.489-0.711-0.704-0.49c-0.191,0.199,0.225,0.606,0.366,0.714
				c0.195,0.152,0.592,0.184,0.735,0.373c0.038,0.049,0.066,0.12,0.088,0.199c-0.007,0.108-0.016,0.217-0.016,0.327
				c0,0.163,0.009,0.323,0.024,0.481c-0.062,0.245-0.187,0.438-0.382,0.453c-1.243,0.09-2.105-0.685-2.628-0.848
				c-0.642-0.201-1.022,0.397-0.751,0.751c0.489,0.641,1.599,0.935,2.5,1.059c0.28,0.039,0.556,0.034,0.807,0.03
				c0.359-0.007,0.667-0.014,0.868,0.107c0.164,0.365,0.371,0.706,0.614,1.019c-0.141,0.163-0.494,0.502-0.846,0.872
				c-0.989,1.042-2.964,1.413-2.417,2.06c0.598,0.568,2.739-1.439,2.999-1.649c0.301-0.243,0.654-0.695,0.911-0.597
				c0.018,0.016,0.036,0.033,0.054,0.049c0.07,0.299-0.265,0.511-0.081,0.669c0.1,0.087,0.163-0.041,0.235-0.17
				c0.062-0.11,0.132-0.22,0.24-0.195c0.052,0.036,0.106,0.069,0.159,0.103c0.183,0.301-0.578,1.001-0.162,1.001
				c0.487-0.001,0.546-0.551,0.909-0.606c0.144,0.06,0.29,0.114,0.439,0.161c0.375,0.38,0.171,1.293,0.145,1.698
				c-0.026,0.418-0.727,2.015-0.093,2.181c0.64,0.167,0.558-1.554,0.686-2.056c0.181-0.71,0.267-1.401,0.758-1.6
				c0.527-0.001,1.034-0.086,1.51-0.239c0.455,0.004,0.72,0.364,0.93,0.576c0.52,0.527,0.742,0.674,1.096,1.324
				c0.051,0.094,0.738,1.239,1.035,1.112c0.32-0.136-0.004-0.632-0.275-0.996c-0.12-0.16-1.77-1.925-1.852-2.429
				c0.06-0.035,0.119-0.071,0.178-0.108c0.109,0.06,0.197,0.208,0.244,0.275c0.26,0.369,0.27,0.518,0.578,0.855
				c0.021,0.026,0.313,0.465,0.484,0.315c0.172-0.15-0.584-0.829-0.864-1.249c-0.194-0.292-0.061-0.681,0.458-0.591
				c0.53,0.092,1.467,1.221,1.964,1.551c0.233,0.154,1.534,0.939,1.336,0.254c-0.114-0.396-0.533-0.684-0.856-0.884
				c-0.72-0.446-2.069-1.083-1.629-2.331c0.058-0.104,0.108-0.211,0.158-0.319c0.197-0.233,0.608-0.307,1.41-0.071
				c0.506,0.149,1.542,0.692,2.032,0.901c0.477,0.204,1.339,0.307,1.067-0.365c-0.39-0.964-2.108-0.873-2.859-1.286
				c-0.275-0.151-1.086-0.515-1.139-0.875c-0.009-0.058,0.003-0.116,0.039-0.173c0.098-0.152,1.446-0.056,1.399-0.421
				c0.02-0.228-0.297-0.199-0.592-0.171c-0.159,0.016-0.313,0.031-0.403,0.006c-0.39-0.106-0.393-0.179-0.376-0.521
				c0.042-0.74,1.486-1.005,2.101-1.066c0.391-0.039,1.721-0.022,1.484-0.681c-0.13-0.342-0.999-0.02-1.373,0.051
				c-0.785,0.149-1.642,0.524-2.441,0.476c-0.18-0.011-0.431-0.223-0.608-0.461c-0.047-0.077-0.091-0.155-0.142-0.229
				c-0.033-0.066-0.06-0.131-0.072-0.19c-0.077-0.386,0.733-0.621,0.58-1.003c-0.076-0.189-0.295-0.015-0.521,0.159
				c-0.231,0.179-0.468,0.357-0.566,0.145c-0.153-0.334,0.546-1.257,0.747-1.49c0.277-0.319,0.553-0.593,0.803-0.935
				c0.331-0.454,0.876-1.095,0.279-1.417c-0.445-0.053-0.699,0.652-0.865,0.947c-0.39,0.695-1.154,1.509-1.552,1.702
				c-0.317,0.154-0.576,0.37-0.893,0.356c-0.07-0.032-0.142-0.063-0.214-0.092c-0.226-0.513,0.267-1.334-0.159-1.509
				c-0.74-0.131-0.201,1.029-0.645,1.25c-0.006,0.004-0.016,0.005-0.024,0.008c-0.188-0.039-0.38-0.064-0.575-0.081
				c-0.008-0.005-0.016-0.01-0.022-0.016c-0.203-0.219-0.059-0.826-0.029-1.076c0.071-0.585,0.396-1.517,0.15-1.725
				c-0.619-0.212-0.459,1.451-0.485,1.754c-0.046,0.555-0.205,1.162-0.876,0.706c-0.509-0.348-0.746-1.124-0.994-1.662
				c-0.243-0.527-0.27-1.282-0.657-1.282C141.923,125.283,141.863,125.297,141.795,125.328"/>
		</defs>
		<clipPath id="SVGID_00000183217037824404986510000001251502214876063669_">
			<use xlink:href="#SVGID_12_"  overflow="visible"/>
		</clipPath>
		
			<radialGradient id="SVGID_00000136371113893237672580000015983184044383228844_" cx="-78.1756" cy="-127.2123" r="0.4003" fx="-78.5708" fy="-127.1488" gradientTransform="matrix(21.4799 0 0 -21.4799 1823.9139 -2599.1353)" gradientUnits="userSpaceOnUse">
			<stop  offset="0" style="stop-color:#DFDCEB"/>
			<stop  offset="0.0055" style="stop-color:#DEDAEA"/>
			<stop  offset="0.2646" style="stop-color:#B9A9D0"/>
			<stop  offset="0.4586" style="stop-color:#A48ABF"/>
			<stop  offset="0.5644" style="stop-color:#9B7FB8"/>
			<stop  offset="0.816" style="stop-color:#7D8EB6"/>
			<stop  offset="0.8982" style="stop-color:#6075A4"/>
			<stop  offset="1" style="stop-color:#3C5D92"/>
		</radialGradient>
		
			<rect x="135.474" y="125.283" clip-path="url(#SVGID_00000183217037824404986510000001251502214876063669_)" fill="url(#SVGID_00000136371113893237672580000015983184044383228844_)" stroke="#006935" stroke-width="0.2549" stroke-miterlimit="10" width="18.272" height="17.047"/>
		<use xlink:href="#SVGID_12_"  overflow="visible" fill="none" stroke="#006935" stroke-width="0.2549" stroke-miterlimit="10"/>
	</g>
	<g>
		<defs>
			<path id="SVGID_11_" d="M144.947,132.011c-0.832,1.302-1.525,1.025-2.09,1.276c-0.438,0.195-0.612,0.668-0.456,1.135
				c0.255,0.759,0.867,1.384,1.694,1.622c0.232,0.066,0.466,0.098,0.697,0.098c1.094,0,2.103-0.72,2.42-1.825
				c0.226-0.787,0.051-1.593-0.402-2.202c-0.284-0.329-0.698-0.529-1.08-0.529C145.423,131.588,145.135,131.716,144.947,132.011"/>
		</defs>
		<clipPath id="SVGID_00000018951820688496252450000010105714791741659532_">
			<use xlink:href="#SVGID_11_"  overflow="visible"/>
		</clipPath>
		
			<radialGradient id="SVGID_00000169524264517021332330000003511135549290060431_" cx="-143.0363" cy="-38.5986" r="0.4003" fx="-143.434" fy="-38.6442" gradientTransform="matrix(6.0476 -10.7828 10.7828 6.0476 1426.1575 -1176.225)" gradientUnits="userSpaceOnUse">
			<stop  offset="0" style="stop-color:#8594BA"/>
			<stop  offset="0.656" style="stop-color:#815EA2"/>
			<stop  offset="1" style="stop-color:#7F4396"/>
		</radialGradient>
		
			<polygon clip-path="url(#SVGID_00000018951820688496252450000010105714791741659532_)" fill="url(#SVGID_00000169524264517021332330000003511135549290060431_)" points="
			146.195,138.359 149.382,132.678 143.487,129.372 140.3,135.053 		"/>
	</g>
	<path fill="none" stroke="#141313" stroke-width="0.5" stroke-miterlimit="10" d="M414.126,105.369"/>
	<g>
		<circle fill="none" stroke="#000000" stroke-miterlimit="10" cx="304.894" cy="133.728" r="76.839"/>
		<g>
			<defs>
				<path id="SVGID_4_" d="M276.346,89.361c0,7.319,5.932,13.251,13.251,13.251c7.319,0,13.251-5.932,13.251-13.251
					c0-7.318-5.932-13.251-13.251-13.251C282.278,76.11,276.346,82.043,276.346,89.361"/>
			</defs>
			<clipPath id="SVGID_00000082348419410312591320000012410651469682343809_">
				<use xlink:href="#SVGID_4_"  overflow="visible"/>
			</clipPath>
			
				<radialGradient id="SVGID_00000013183474585700514880000007518378412251832206_" cx="-85.8371" cy="-130.4033" r="0.7914" gradientTransform="matrix(19.0084 0 0 -19.0084 1924.2803 -2392.9641)" gradientUnits="userSpaceOnUse">
				<stop  offset="0" style="stop-color:#FFFFFF"/>
				<stop  offset="0.3113" style="stop-color:#D2D5E5"/>
				<stop  offset="0.6222" style="stop-color:#A9B1CD"/>
				<stop  offset="0.8614" style="stop-color:#8F9CBF"/>
				<stop  offset="1" style="stop-color:#8594BA"/>
			</radialGradient>
			
				<rect x="276.346" y="76.11" clip-path="url(#SVGID_00000082348419410312591320000012410651469682343809_)" fill="url(#SVGID_00000013183474585700514880000007518378412251832206_)" width="26.503" height="26.503"/>
		</g>
		
			<ellipse transform="matrix(1 -0.0079 0.0079 1 -0.6946 2.2829)" fill="none" stroke="#000000" stroke-width="0.1979" stroke-miterlimit="10" cx="289.597" cy="89.361" rx="13.251" ry="13.251"/>
		<g>
			<defs>
				<path id="SVGID_2_" d="M281.655,89.658c0,5.029,4.078,9.107,9.108,9.107c5.031,0,9.109-4.078,9.109-9.107
					c0-5.033-4.078-9.11-9.109-9.11C285.733,80.548,281.655,84.625,281.655,89.658"/>
			</defs>
			<clipPath id="SVGID_00000144304863223312728920000008860957577938940033_">
				<use xlink:href="#SVGID_2_"  overflow="visible"/>
			</clipPath>
			
				<radialGradient id="SVGID_00000147203849115570302480000011731981864784485768_" cx="-85.7856" cy="-43.7272" r="0.7914" gradientTransform="matrix(20.7482 0 0 20.7482 2071.8958 992.0573)" gradientUnits="userSpaceOnUse">
				<stop  offset="0" style="stop-color:#8594BA"/>
				<stop  offset="0.5308" style="stop-color:#5E73A3"/>
				<stop  offset="1" style="stop-color:#3C5D92"/>
			</radialGradient>
			
				<rect x="281.655" y="80.548" clip-path="url(#SVGID_00000144304863223312728920000008860957577938940033_)" fill="url(#SVGID_00000147203849115570302480000011731981864784485768_)" width="18.217" height="18.217"/>
		</g>
		<g>
			<g>
				<defs>
					<path id="SVGID_00000106121604451331024210000011135293689039124151_" d="M282.146,159.732
						c-3.162,0.939,0.99,2.301-0.756,4.309c-1.155-0.198-1.909-1.584-2.892-1.713c-1.616-0.216-1.378,1.206-2.225,2.091
						c-0.501,0.514-9.065,4.613-5.306,6.426c0.466,0.226,1.062,0.049,1.621-0.128c0.872-0.28,1.645-0.558,1.642,0.727
						c-0.005,1.656-2.96,1.528-3.092,2.899c-0.1,1.036,1.625,1.534,2.082,2.18c1.112,1.579,0.751,0.688-0.6,1.665
						c-1.732,1.257-2.73,2.654-1.097,4.898c2.359,3.246,4.675,1.866,7.743,3.161c1.729,0.732,2.799,2.657,4.56,3.552
						c1.399,0.711,3.305,0.907,4.651-0.158c0.957-0.761,1.543-1.927,2.666-2.413c0.934-0.404,1.801-0.192,2.676,0.022
						c0.596,0.146,1.196,0.29,1.825,0.239c1.076-0.086,4.925-1.349,4.981-2.724c0.064-1.526-3.289-1.635-2.539-3.714l0.356-0.228
						c1.899-1.236,3.029-2.826,3.473-5.515c0.461-2.785-1.922-3-3.25-5.056c-1.269-1.954-0.528-3.281,0.172-5.119
						c0.467-1.225,1.274-3.423-0.584-3.659c-1.035-0.132-2.044,0.832-3.033,1.796c-1.496,1.459-2.944,2.918-4.36,0.569
						c-0.9-1.487-0.297-2.553-2.021-3.517c-1.073-0.603-2.724-0.893-4.254-0.893C283.679,159.43,282.818,159.532,282.146,159.732"/>
				</defs>
				<clipPath id="SVGID_00000075844027518085367220000007585931166934113695_">
					<use xlink:href="#SVGID_00000106121604451331024210000011135293689039124151_"  overflow="visible"/>
				</clipPath>
				
					<radialGradient id="SVGID_00000019645835168637246540000010887318832091663532_" cx="-96.7268" cy="736.0585" r="1.5944" gradientTransform="matrix(-9.9823 1.2574 1.3585 10.7863 -1679.2815 -7640.1035)" gradientUnits="userSpaceOnUse">
					<stop  offset="0" style="stop-color:#FFFFFF"/>
					<stop  offset="1" style="stop-color:#9FC0E3"/>
				</radialGradient>
				
					<polygon clip-path="url(#SVGID_00000075844027518085367220000007585931166934113695_)" fill="url(#SVGID_00000019645835168637246540000010887318832091663532_)" points="
					306.252,190.219 267.758,195.067 263.331,159.919 301.824,155.07 				"/>
			</g>
			<path fill="none" stroke="#000000" stroke-width="0.3987" d="M298.087,181.053c-0.751,2.079,2.602,2.186,2.539,3.714
				c-0.055,1.375-3.905,2.638-4.983,2.724c-1.545,0.123-2.931-0.944-4.5-0.263c-1.125,0.488-1.71,1.652-2.666,2.413
				c-1.346,1.067-3.25,0.869-4.649,0.16c-1.761-0.895-2.832-2.821-4.562-3.553c-3.067-1.294-5.384,0.086-7.741-3.159
				c-1.635-2.246-0.636-3.643,1.097-4.898c1.351-0.977,1.71-0.086,0.598-1.666c-0.454-0.646-2.181-1.142-2.079-2.178
				c0.132-1.372,3.088-1.244,3.091-2.9c0.003-2.106-2.062-0.019-3.263-0.6c-3.757-1.813,4.805-5.912,5.305-6.427
				c0.847-0.884,0.611-2.307,2.225-2.091c0.984,0.129,1.737,1.515,2.891,1.713c1.747-2.007-2.406-3.37,0.756-4.309
				c1.805-0.536,4.982-0.365,6.69,0.592c1.724,0.965,1.123,2.03,2.021,3.518c2.354,3.898,4.791-2.699,7.396-2.367
				c1.856,0.236,1.051,2.434,0.583,3.66c-0.702,1.839-1.443,3.165-0.174,5.119c1.33,2.056,3.712,2.27,3.251,5.055
				c-0.443,2.689-1.571,4.279-3.47,5.517L298.087,181.053z"/>
			<g>
				<defs>
					<path id="SVGID_00000141432119668043046230000010964643289180436367_" d="M286.79,168.588
						c-0.629,0.382-1.079,1.314-1.673,1.618c-0.671,0.344-1.435,0.102-2.162,0.347c-1.633,0.545-2.657,1.904-3.102,3.665
						c-1.951,7.657,11.802,9.341,12.869,0.992c0.126-0.992,0.099-2.08-0.096-3.123c-0.44-2.368-1.942-4.109-3.845-4.109
						C288.154,167.979,287.482,168.169,286.79,168.588"/>
				</defs>
				<clipPath id="SVGID_00000168091256888633644450000011753911163687349928_">
					<use xlink:href="#SVGID_00000141432119668043046230000010964643289180436367_"  overflow="visible"/>
				</clipPath>
				
					<radialGradient id="SVGID_00000080174371017884718580000001522360879713682620_" cx="-45.93" cy="707.6719" r="1.5949" gradientTransform="matrix(3.8894 0.039 -0.039 -4.1922 492.4854 3142.8416)" gradientUnits="userSpaceOnUse">
					<stop  offset="0" style="stop-color:#9FC0E3"/>
					<stop  offset="1" style="stop-color:#258DCA"/>
				</radialGradient>
				
					<polygon clip-path="url(#SVGID_00000168091256888633644450000011753911163687349928_)" fill="url(#SVGID_00000080174371017884718580000001522360879713682620_)" points="
					277.756,167.827 292.848,167.979 292.994,183.711 277.902,183.559 				"/>
			</g>
			<path fill="none" stroke="#000000" stroke-width="0.3987" d="M292.626,172.087c0.196,1.043,0.223,2.132,0.097,3.123
				c-1.067,8.35-14.819,6.664-12.87-0.991c0.445-1.762,1.469-3.12,3.103-3.666c0.726-0.245,1.49-0.003,2.162-0.347
				c0.593-0.303,1.043-1.236,1.673-1.618C289.575,166.898,292.042,168.937,292.626,172.087z"/>
			<path fill="none" stroke="#000000" stroke-width="0.3987" stroke-miterlimit="10" d="M302.849,182.924"/>
		</g>
		<path fill="none" stroke="#000000" stroke-width="0.25" stroke-miterlimit="10" d="M345.512,174.909"/>
		<g>
			<path fill="#006935" d="M247.898,135.784c-1.191,0-2.12-0.344-2.783-1.032c-0.665-0.688-0.996-1.712-0.996-3.072v-0.3
				c0-0.72,0.1-1.35,0.3-1.89s0.481-0.966,0.846-1.278s0.776-0.544,1.236-0.696s0.97-0.228,1.53-0.228
				c0.896,0,1.596,0.136,2.1,0.408v1.284c-0.736-0.24-1.364-0.36-1.884-0.36c-0.729,0-1.294,0.212-1.698,0.636
				c-0.404,0.424-0.606,1.08-0.606,1.968v0.408c0,0.92,0.185,1.616,0.553,2.088c0.367,0.472,0.955,0.708,1.764,0.708
				c0.664,0,1.308-0.14,1.932-0.42v1.284C249.598,135.62,248.834,135.784,247.898,135.784z"/>
			<path fill="#006935" d="M250.827,135.651l2.58-4.224l-2.4-4.008h1.896l1.703,2.904h0.036l1.633-2.904h1.691l-2.34,3.984
				l2.508,4.248h-1.896l-1.824-3.096h-0.048l-1.812,3.096H250.827z"/>
			<path fill="#006935" d="M262.61,135.784c-1.191,0-2.12-0.344-2.783-1.032c-0.665-0.688-0.996-1.712-0.996-3.072v-0.3
				c0-0.72,0.1-1.35,0.3-1.89s0.481-0.966,0.846-1.278s0.776-0.544,1.236-0.696s0.97-0.228,1.53-0.228
				c0.896,0,1.596,0.136,2.1,0.408v1.284c-0.736-0.24-1.364-0.36-1.884-0.36c-0.729,0-1.294,0.212-1.698,0.636
				c-0.404,0.424-0.606,1.08-0.606,1.968v0.408c0,0.92,0.185,1.616,0.553,2.088c0.367,0.472,0.955,0.708,1.764,0.708
				c0.664,0,1.308-0.14,1.932-0.42v1.284C264.31,135.62,263.546,135.784,262.61,135.784z"/>
			<path fill="#006935" d="M266.138,135.651v-8.232h1.704v6.924h3.384v1.308H266.138z"/>
			<path fill="#006935" d="M275.138,135.795c-1.008,0-1.786-0.2-2.334-0.6c-0.548-0.4-0.822-0.939-0.822-1.62
				c0-0.488,0.152-0.916,0.456-1.284c0.305-0.368,0.696-0.648,1.177-0.84c-0.937-0.44-1.404-1.092-1.404-1.956
				c0-0.672,0.264-1.208,0.792-1.608s1.244-0.6,2.147-0.6c0.904,0,1.61,0.182,2.118,0.546c0.508,0.364,0.763,0.874,0.763,1.53
				c0,0.424-0.129,0.802-0.385,1.134s-0.607,0.598-1.056,0.798c1.176,0.416,1.764,1.112,1.764,2.088c0,0.72-0.286,1.302-0.857,1.746
				C276.924,135.574,276.138,135.795,275.138,135.795z M273.944,134.29c0.276,0.212,0.658,0.318,1.146,0.318
				s0.872-0.104,1.152-0.312c0.279-0.208,0.42-0.484,0.42-0.828c0-0.728-0.588-1.228-1.765-1.5
				c-0.384,0.128-0.708,0.322-0.972,0.582c-0.264,0.26-0.396,0.546-0.396,0.858C273.531,133.784,273.668,134.078,273.944,134.29z
				 M275.354,130.755c0.328-0.128,0.599-0.298,0.811-0.51s0.317-0.462,0.317-0.75c0-0.304-0.109-0.548-0.33-0.732
				c-0.22-0.184-0.546-0.276-0.978-0.276c-0.4,0-0.714,0.086-0.942,0.258c-0.228,0.172-0.342,0.406-0.342,0.702
				C273.89,130.096,274.378,130.532,275.354,130.755z"/>
		</g>
		<g>
			<path fill="#006935" d="M294.987,135.784c-1.191,0-2.12-0.344-2.783-1.032c-0.665-0.688-0.996-1.712-0.996-3.072v-0.3
				c0-0.72,0.1-1.35,0.3-1.89s0.481-0.966,0.846-1.278s0.776-0.544,1.236-0.696s0.97-0.228,1.53-0.228
				c0.896,0,1.596,0.136,2.1,0.408v1.284c-0.736-0.24-1.364-0.36-1.884-0.36c-0.729,0-1.294,0.212-1.698,0.636
				c-0.404,0.424-0.606,1.08-0.606,1.968v0.408c0,0.92,0.185,1.616,0.553,2.088c0.367,0.472,0.955,0.708,1.764,0.708
				c0.664,0,1.308-0.14,1.932-0.42v1.284C296.687,135.62,295.923,135.784,294.987,135.784z"/>
			<path fill="#006935" d="M301.899,135.784c-1.191,0-2.12-0.344-2.783-1.032c-0.665-0.688-0.996-1.712-0.996-3.072v-0.3
				c0-0.72,0.1-1.35,0.3-1.89s0.481-0.966,0.846-1.278s0.776-0.544,1.236-0.696s0.97-0.228,1.53-0.228
				c0.896,0,1.596,0.136,2.1,0.408v1.284c-0.736-0.24-1.364-0.36-1.884-0.36c-0.729,0-1.294,0.212-1.698,0.636
				c-0.404,0.424-0.606,1.08-0.606,1.968v0.408c0,0.92,0.185,1.616,0.553,2.088c0.367,0.472,0.955,0.708,1.764,0.708
				c0.664,0,1.308-0.14,1.932-0.42v1.284C303.599,135.62,302.835,135.784,301.899,135.784z"/>
			<path fill="#006935" d="M305.427,135.651v-8.232h1.704v6.924h3.384v1.308H305.427z"/>
			<path fill="#006935" d="M311.416,135.651v-0.984l1.428-1.524c0.472-0.504,0.832-0.902,1.08-1.194s0.481-0.632,0.702-1.02
				c0.22-0.388,0.33-0.734,0.33-1.038c0-0.472-0.13-0.806-0.391-1.002c-0.26-0.196-0.653-0.294-1.182-0.294
				c-0.479,0-1.032,0.164-1.656,0.492l-0.216-1.212c0.696-0.392,1.488-0.588,2.376-0.588c0.937,0,1.642,0.202,2.118,0.606
				c0.476,0.404,0.714,0.99,0.714,1.758c0,0.353-0.07,0.71-0.21,1.074c-0.14,0.364-0.352,0.732-0.636,1.104
				s-0.513,0.658-0.685,0.858c-0.172,0.2-0.418,0.464-0.737,0.792l-0.853,0.864h3.145v1.308H311.416z"/>
		</g>
		<g>
			<path fill="#C30F23" d="M341.299,118.945v-6.906h1.439v6.906H341.299z"/>
			<path fill="#C30F23" d="M344.188,118.945v-6.906h1.429v5.809h2.839v1.097H344.188z"/>
			<path fill="#C30F23" d="M349.221,116.68v-1.067h2.869v1.067H349.221z"/>
			<path fill="#C30F23" d="M353.962,118.985v-5.546l-1.127,0.211v-0.835l1.832-0.805h0.735v6.976H353.962z"/>
		</g>
		<g>
			<path fill="#C30F23" d="M347.646,135.371v-5.829h-1.923v-1.077h5.285v1.077h-1.942v5.829H347.646z"/>
			<path fill="#C30F23" d="M351.925,135.371v-6.906h1.601l2.667,4.59h0.03v-4.59h1.259v6.906h-1.409l-2.859-4.953h-0.03v4.953
				H351.925z"/>
			<path fill="#C30F23" d="M358.891,135.371v-6.906h4.389v1.077h-2.96v1.923h2.306v1.087h-2.306v2.819H358.891z"/>
		</g>
		<g>
			<path fill="#C30F23" d="M346.248,152.068v-6.906h1.439v6.906H346.248z"/>
			<path fill="#C30F23" d="M349.136,152.068v-6.906h1.429v5.809h2.839v1.097H349.136z"/>
			<path fill="#C30F23" d="M354.169,149.803v-1.067h2.869v1.067H354.169z"/>
			<path fill="#C30F23" d="M360.562,152.189c-0.853,0-1.503-0.272-1.953-0.815c-0.449-0.543-0.674-1.295-0.674-2.255v-0.473
				c0-0.644,0.082-1.205,0.246-1.681s0.393-0.849,0.685-1.117s0.619-0.466,0.981-0.594c0.362-0.127,0.762-0.191,1.198-0.191
				c0.631,0,1.171,0.127,1.62,0.382l-0.241,1.047c-0.402-0.201-0.846-0.302-1.329-0.302c-0.517,0-0.926,0.158-1.228,0.473
				c-0.303,0.315-0.477,0.855-0.523,1.621c0.456-0.376,0.986-0.564,1.59-0.564c0.618,0,1.114,0.183,1.49,0.549
				s0.563,0.871,0.563,1.515c0,0.698-0.211,1.273-0.634,1.727C361.931,151.962,361.333,152.189,360.562,152.189z M360.532,151.162
				c0.343,0,0.612-0.111,0.811-0.332c0.198-0.222,0.297-0.534,0.297-0.936c0-0.41-0.104-0.71-0.312-0.901
				c-0.208-0.191-0.486-0.287-0.835-0.287c-0.208,0-0.42,0.061-0.635,0.181s-0.382,0.258-0.503,0.413v0.061
				C359.354,150.562,359.747,151.162,360.532,151.162z"/>
		</g>
		<g>
			<path fill="#1D2088" d="M335.986,169.846v-6.906h1.439v6.906H335.986z"/>
			<path fill="#1D2088" d="M338.875,169.846v-6.906h1.429v5.809h2.839v1.097H338.875z"/>
			<path fill="#1D2088" d="M343.908,167.581v-1.067h2.869v1.067H343.908z"/>
			<path fill="#1D2088" d="M348.649,169.886v-5.546l-1.127,0.211v-0.835l1.832-0.805h0.735v6.976H348.649z"/>
			<path fill="#1D2088" d="M354.237,169.966c-0.832,0-1.502-0.275-2.009-0.825s-0.76-1.393-0.76-2.527v-0.362
				c0-0.604,0.075-1.133,0.227-1.585c0.151-0.453,0.359-0.811,0.624-1.072c0.266-0.262,0.561-0.455,0.886-0.579
				c0.326-0.124,0.677-0.186,1.053-0.186c0.805,0,1.466,0.277,1.982,0.831s0.775,1.408,0.775,2.562v0.352
				c0,1.168-0.26,2.025-0.78,2.572S355.048,169.966,354.237,169.966z M354.237,168.899c0.443,0,0.771-0.176,0.981-0.529
				c0.211-0.352,0.317-0.924,0.317-1.716v-0.433c0-1.55-0.43-2.326-1.289-2.326c-0.437,0-0.758,0.181-0.966,0.544
				c-0.208,0.362-0.312,0.933-0.312,1.711v0.433c0,0.785,0.103,1.368,0.308,1.747C353.48,168.71,353.8,168.899,354.237,168.899z"/>
		</g>
		<g>
			<path fill="#C30F23" d="M324.469,190.085c-2.255,0-3.383-1.141-3.383-3.423v-0.222c0-0.63,0.093-1.179,0.277-1.646
				c0.185-0.467,0.439-0.829,0.765-1.087c0.326-0.258,0.687-0.448,1.082-0.569c0.396-0.121,0.832-0.181,1.31-0.181
				c0.778,0,1.429,0.131,1.952,0.393v1.107c-0.657-0.242-1.269-0.362-1.832-0.362c-1.369,0-2.054,0.751-2.054,2.255v0.312
				c0,0.772,0.133,1.355,0.398,1.751c0.265,0.396,0.749,0.594,1.454,0.594c0.329,0,0.651-0.051,0.967-0.151v-1.449h-1.198V186.4
				h2.577v3.262C326.053,189.944,325.281,190.085,324.469,190.085z"/>
			<path fill="#C30F23" d="M327.993,189.974v-6.906h1.982l1.57,4.913h0.03l1.551-4.913h1.953v6.906h-1.41v-5.165h-0.03l-1.641,5.165
				h-1.117l-1.621-5.174h-0.03v5.174H327.993z"/>
			<path fill="#C30F23" d="M336.277,187.709v-1.067h2.869v1.067H336.277z"/>
			<path fill="#C30F23" d="M343.142,190.085c-1,0-1.778-0.289-2.335-0.866c-0.558-0.577-0.836-1.436-0.836-2.577v-0.252
				c0-0.604,0.084-1.132,0.252-1.585s0.404-0.81,0.71-1.072c0.305-0.262,0.65-0.457,1.037-0.584
				c0.386-0.127,0.813-0.191,1.283-0.191c0.751,0,1.339,0.114,1.762,0.342v1.077c-0.618-0.201-1.145-0.302-1.581-0.302
				c-0.61,0-1.085,0.178-1.424,0.534c-0.339,0.356-0.509,0.906-0.509,1.651v0.342c0,0.772,0.154,1.356,0.463,1.751
				c0.309,0.396,0.803,0.594,1.48,0.594c0.557,0,1.097-0.117,1.62-0.353v1.077C344.569,189.947,343.928,190.085,343.142,190.085z"/>
			<path fill="#C30F23" d="M347.883,190.085c-0.865,0-1.57-0.141-2.114-0.423v-1.098c0.658,0.282,1.319,0.423,1.983,0.423
				c0.839,0,1.259-0.302,1.259-0.906c0-0.269-0.069-0.468-0.207-0.599s-0.391-0.243-0.76-0.337l-0.624-0.161
				c-0.544-0.141-0.951-0.363-1.223-0.665c-0.272-0.302-0.408-0.755-0.408-1.359c0-0.611,0.201-1.097,0.604-1.46
				c0.402-0.362,0.989-0.543,1.761-0.543c0.766,0,1.396,0.125,1.893,0.373v1.077c-0.678-0.235-1.278-0.353-1.802-0.353
				c-0.725,0-1.087,0.269-1.087,0.806c0,0.241,0.063,0.424,0.191,0.548c0.127,0.125,0.355,0.23,0.685,0.317l0.604,0.161
				c0.611,0.161,1.061,0.391,1.35,0.69c0.288,0.298,0.433,0.75,0.433,1.354c0,0.685-0.213,1.214-0.64,1.59
				C349.355,189.897,348.722,190.085,347.883,190.085z"/>
			<path fill="#C30F23" d="M351.437,189.974v-6.906h4.389v1.077h-2.96v1.923h2.306v1.087h-2.306v2.819H351.437z"/>
		</g>
		<g>
			<g>
				<path fill="none" stroke="#141313" stroke-width="0.5" stroke-miterlimit="10" d="M299.872,155.316
					c5.462-2.751,13.437-7.565,21.222-15.624c6.606-6.839,10.872-13.734,13.578-19.061"/>
				<g>
					<path fill="#141313" d="M335.985,117.917c-0.165,1.505-0.15,3.483,0.212,4.886l-1.741-1.834l-2.511-0.296
						C333.286,120.123,334.879,118.951,335.985,117.917z"/>
				</g>
			</g>
		</g>
		<g>
			<g>
				<path fill="none" stroke="#141313" stroke-width="0.5" stroke-miterlimit="10" d="M308.707,164.029
					c0,0,22.167-7.394,29.346-13.15"/>
				<g>
					<path fill="#141313" d="M340.062,148.632c-0.577,1.4-1.113,3.304-1.155,4.752l-1.162-2.246l-2.33-0.982
						C336.855,150.001,338.711,149.317,340.062,148.632z"/>
				</g>
			</g>
		</g>
		<g>
			<g>
				<path fill="none" stroke="#141313" stroke-width="0.5" stroke-miterlimit="10" d="M308.707,169.966
					c0,0,15.636,1.387,22.366-1.744"/>
				<g>
					<path fill="#141313" d="M333.481,166.401c-0.848,1.255-1.758,3.011-2.093,4.42l-0.684-2.435l-2.083-1.433
						C330.064,167.093,332.02,166.799,333.481,166.401z"/>
				</g>
			</g>
		</g>
		<g>
			<g>
				<path fill="none" stroke="#141313" stroke-width="0.5" stroke-miterlimit="10" d="M317.929,186.143c0,0-8.08,0.625-13.004-3.191
					"/>
				<g>
					<path fill="#141313" d="M302.849,180.758c1.371,0.643,3.248,1.268,4.693,1.378l-2.298,1.055l-1.091,2.281
						C304.064,184.025,303.469,182.139,302.849,180.758z"/>
				</g>
			</g>
		</g>
		<g>
			<g>
				<path fill="none" stroke="#141313" stroke-width="0.5332" stroke-miterlimit="10" d="M287.804,155.316
					c0,0,7.115-5.272,9.711-13.266"/>
				<g>
					<path fill="#141313" d="M298.255,138.918c0.185,1.604,0.668,3.657,1.377,5.03l-2.244-1.495l-2.681,0.287
						C295.971,141.851,297.349,140.254,298.255,138.918z"/>
				</g>
			</g>
		</g>
		<g>
			<g>
				<path fill="none" stroke="#141313" stroke-width="0.5" stroke-miterlimit="10" d="M303.675,159.43
					c0,0,25.065-10.45,33.863-22.23"/>
				<g>
					<path fill="#141313" d="M339.158,134.659c-0.34,1.476-0.556,3.442-0.361,4.877l-1.515-2.025l-2.459-0.587
						C336.22,136.535,337.939,135.557,339.158,134.659z"/>
				</g>
			</g>
		</g>
		<g>
			<g>
				<path fill="none" stroke="#141313" stroke-width="0.5" stroke-miterlimit="10" d="M273.781,158.603
					c0,0-12.335-1.868-14.041-15.511"/>
				<g>
					<path fill="#141313" d="M259.546,140.079c0.632,1.376,1.662,3.065,2.693,4.082l-2.436-0.678l-2.306,1.037
						C258.364,143.359,259.128,141.534,259.546,140.079z"/>
				</g>
			</g>
		</g>
		<g>
			<g>
				<path fill="none" stroke="#141313" stroke-width="0.5" stroke-miterlimit="10" d="M257.223,120.595
					c0,0,0.417-14.062,13.882-21.955"/>
				<g>
					<path fill="#141313" d="M273.781,97.24c-1.008,1.131-2.143,2.75-2.661,4.103l-0.354-2.504l-1.874-1.697
						C270.302,97.472,272.28,97.44,273.781,97.24z"/>
				</g>
			</g>
		</g>
		<g>
			<g>
				<path fill="none" stroke="#141313" stroke-width="0.5" stroke-miterlimit="10" d="M300.449,121.369
					c0,0,2.582-11.616-2.444-15.842"/>
				<g>
					<path fill="#141313" d="M295.287,104.208c1.503,0.185,3.481,0.196,4.888-0.148l-1.857,1.717l-0.329,2.507
						C297.458,106.936,296.307,105.328,295.287,104.208z"/>
				</g>
			</g>
		</g>
		<g>
			<path d="M311.995,80.542c1.784,0,3.152-0.1,4.104-0.3l0.132,1.212c-1.248,0.24-2.88,0.36-4.896,0.36
				c-0.096,0-0.244-0.002-0.443-0.006c-0.2-0.004-0.356-0.006-0.469-0.006v-5.196h4.788v1.26h-3.216V80.542z M318.691,86.134h-7.141
				V82.69h1.597v2.208h5.544V86.134z M319.975,79.906h-1.488v3.552h-1.596v-7.704h1.596v2.856h1.488V79.906z"/>
			<path d="M320.455,79.042v-1.2h5.136v1.2H320.455z M325.47,80.974c0,0.496-0.212,0.91-0.636,1.242
				c-0.424,0.333-0.996,0.498-1.716,0.498c-0.704,0-1.268-0.166-1.692-0.498c-0.424-0.332-0.636-0.746-0.636-1.242
				s0.212-0.91,0.636-1.242c0.425-0.332,0.988-0.498,1.692-0.498c0.72,0,1.292,0.164,1.716,0.492S325.47,80.47,325.47,80.974z
				 M321.691,77.386v-1.152h2.808v1.152H321.691z M322.063,83.254h7.536v3.204h-1.597v-1.944h-5.939V83.254z M323.785,81.4
				c0.164-0.132,0.246-0.274,0.246-0.426s-0.082-0.294-0.246-0.426c-0.164-0.132-0.386-0.198-0.666-0.198s-0.498,0.064-0.654,0.192
				c-0.155,0.128-0.233,0.272-0.233,0.432s0.078,0.304,0.233,0.432c0.156,0.128,0.374,0.192,0.654,0.192
				S323.621,81.532,323.785,81.4z M329.599,82.786h-1.488v-2.532h-0.696v2.532h-1.464v-6.84h1.464v3.024h0.696v-3.216h1.488V82.786z
				"/>
			<path d="M339.355,76.282c0.048,1.712-0.072,3.264-0.36,4.656h1.523v1.248h-4.079v4.26h-1.572v-4.26h-4.008v-1.248h6.659
				c0.232-0.984,0.328-2.112,0.288-3.384h-5.808v-1.272H339.355z"/>
		</g>
		<g>
			<path d="M281.883,199.984h0.24c1.176,0,2.08-0.072,2.712-0.216l0.156,1.2c-0.888,0.192-2.068,0.288-3.54,0.288h-1.152v-7.02
				h4.057v1.236h-2.473V199.984z M289.144,203.68h-1.513v-5.28h-0.792v4.788h-1.487v-10.02h1.487v3.96h0.792v-4.14h1.513V203.68z"/>
			<path d="M296.979,197.536l-0.852,1.26c-0.44-0.152-0.893-0.426-1.356-0.822s-0.792-0.81-0.983-1.242
				c-0.145,0.48-0.473,0.946-0.984,1.398c-0.512,0.452-1.032,0.766-1.56,0.942l-0.816-1.248c0.8-0.271,1.422-0.702,1.866-1.29
				c0.444-0.588,0.666-1.273,0.666-2.058V193.6h1.62v0.792c0,0.816,0.218,1.482,0.654,1.998
				C295.669,196.906,296.251,197.288,296.979,197.536z M291.963,199.696h7.344v3.996h-1.596v-2.748h-5.748V199.696z
				 M299.295,199.276h-1.62v-6.288h1.62V199.276z"/>
			<path d="M306.231,199.888l-0.947,1.236c-0.353-0.224-0.719-0.574-1.099-1.05c-0.38-0.476-0.63-0.938-0.75-1.386
				c-0.136,0.504-0.399,1.014-0.792,1.53c-0.392,0.516-0.82,0.906-1.284,1.17l-0.899-1.188c0.728-0.439,1.273-1.042,1.638-1.806
				s0.546-1.738,0.546-2.922v-1.452h1.584v1.428c0,1.176,0.168,2.106,0.504,2.79S305.567,199.472,306.231,199.888z M307.744,203.2
				h-1.44v-5.268h-1.271V196.6h1.271v-3.42h1.44V203.2z M309.904,203.68h-1.488v-10.692h1.488V203.68z"/>
			<path d="M320.823,202.348h-9.659v-1.236h4.044v-1.92h-3.181v-1.248h1.513l-0.336-2.304l1.571-0.156l0.217,2.46h2.016l0.24-2.448
				l1.571,0.168l-0.407,2.28h1.487v1.248h-3.12v1.92h4.044V202.348z M319.923,195.076h-7.908v-1.26h7.908V195.076z"/>
		</g>
	</g>
	<g>
		<path d="M174.985,213.598h-9.66v-1.248h3.612v-1.56h1.584v1.56h4.464V213.598z M174.121,218.83h-7.74v-2.868h5.772v-0.564h-5.772
			v-1.26h7.356v2.904h-5.76v0.504h6.144V218.83z M173.749,208.486c0,1.648-0.076,2.78-0.228,3.396l-1.512-0.156
			c0.136-0.76,0.2-1.416,0.192-1.968h-5.784v-1.272H173.749z"/>
		<path d="M181.309,209.194v7.008h-5.124v-7.008H181.309z M179.701,214.93v-4.488h-1.932v4.488H179.701z M184.597,218.962H183
			V208.27h1.596V218.962z"/>
		<path d="M192.252,214.39c-0.36,0.096-0.95,0.178-1.77,0.246c-0.82,0.068-1.574,0.102-2.262,0.102
			c-0.392,0-0.988-0.008-1.788-0.024v-3.576h3.168v-0.972h-3.156v-1.248h4.776v3.384h-3.192v1.176
			c0.304,0.016,0.548,0.024,0.732,0.024c1.352,0,2.472-0.1,3.36-0.3C192.185,213.73,192.229,214.126,192.252,214.39z
			 M194.665,218.698h-7.236v-3.06h1.608v1.8h5.628V218.698z M194.473,208.27v3.024h1.5v1.296h-1.5v3.528H192.9v-7.848H194.473z"/>
	</g>
	<g>
		<g>
			<path fill="none" stroke="#141313" stroke-width="0.5" stroke-miterlimit="10" d="M161.791,210.567
				c0,0,3.365-24.819-9.526-23.862"/>
			<g>
				<path fill="#141313" d="M149.304,187.305c1.3-0.776,2.869-1.981,3.77-3.116l-0.413,2.495l1.278,2.181
					C152.692,188.127,150.796,187.564,149.304,187.305z"/>
			</g>
		</g>
	</g>
	<circle fill="none" stroke="#FFFFFF" stroke-width="0.4359" stroke-miterlimit="10" cx="158.774" cy="155.649" r="23.543"/>
	
		<line fill="none" stroke="#000000" stroke-width="0.4359" stroke-miterlimit="10" x1="155.314" y1="131.588" x2="270.017" y2="65.243"/>
	<path fill="none" stroke="#000000" stroke-width="0.4359" stroke-miterlimit="10" d="M152.587,178.367
		c45.653,10.237,91.306,20.474,136.958,30.712"/>
</g>
<g>
	<path d="M0.768,28.673v-1.296h5.64v1.296H4.44c0.072,0.704,0.324,1.286,0.756,1.746c0.432,0.46,0.984,0.798,1.656,1.014
		l-0.864,1.248c-0.44-0.136-0.894-0.402-1.362-0.798c-0.468-0.396-0.798-0.81-0.99-1.242C3.5,31.105,3.174,31.57,2.658,32.034
		c-0.516,0.464-1.042,0.78-1.578,0.948l-0.804-1.26c0.752-0.256,1.342-0.642,1.77-1.158s0.67-1.146,0.726-1.89H0.768z M9.3,35.189
		c0,0.648-0.336,1.158-1.008,1.53c-0.672,0.372-1.596,0.558-2.772,0.558c-1.168,0-2.088-0.186-2.76-0.558
		c-0.672-0.372-1.008-0.882-1.008-1.53c0-0.656,0.334-1.174,1.002-1.554s1.59-0.57,2.766-0.57s2.1,0.19,2.772,0.57
		S9.3,34.534,9.3,35.189z M5.52,34.326c-0.68,0-1.21,0.076-1.59,0.228c-0.38,0.152-0.57,0.364-0.57,0.636
		c0,0.256,0.192,0.46,0.576,0.612c0.384,0.152,0.912,0.228,1.584,0.228c0.688,0,1.222-0.074,1.602-0.222
		c0.38-0.148,0.57-0.354,0.57-0.618c0-0.272-0.19-0.484-0.57-0.636C6.742,34.402,6.208,34.326,5.52,34.326z M6.168,30.461v-1.284
		h1.464v-2.484H9.24v6.408H7.632v-2.64H6.168z"/>
	<path d="M17.04,31.337l-0.864,1.236c-0.432-0.136-0.88-0.4-1.344-0.792c-0.464-0.392-0.788-0.804-0.972-1.236
		c-0.152,0.488-0.482,0.958-0.99,1.41c-0.508,0.452-1.03,0.766-1.566,0.942L10.5,31.649c0.8-0.272,1.422-0.704,1.866-1.296
		c0.444-0.592,0.666-1.28,0.666-2.064v-0.96h1.62v0.888C14.652,29.746,15.448,30.786,17.04,31.337z M19.248,35.189
		c0,0.664-0.338,1.188-1.014,1.572c-0.676,0.384-1.602,0.576-2.778,0.576c-1.168,0-2.088-0.192-2.76-0.576
		c-0.672-0.384-1.008-0.908-1.008-1.572c0-0.672,0.334-1.204,1.002-1.596c0.668-0.392,1.59-0.588,2.766-0.588
		c1.176,0,2.102,0.196,2.778,0.588C18.91,33.985,19.248,34.518,19.248,35.189z M15.456,34.277c-0.672,0-1.2,0.083-1.584,0.246
		c-0.384,0.164-0.576,0.386-0.576,0.666c0,0.28,0.192,0.5,0.576,0.66c0.384,0.16,0.912,0.24,1.584,0.24
		c0.696,0,1.232-0.08,1.608-0.24s0.564-0.38,0.564-0.66c0-0.28-0.19-0.502-0.57-0.666C16.678,34.36,16.144,34.277,15.456,34.277z
		 M20.628,30.558H19.14v2.388h-1.584v-6.252h1.584v2.568h1.488V30.558z"/>
	<path d="M27.696,32.97c-1.04,0.128-2.16,0.224-3.36,0.288c-1.184,0.056-2.296,0.084-3.336,0.084l-0.144-1.272
		c0.92,0,1.6-0.004,2.04-0.012v-2.1h1.5v2.064c1.392-0.04,2.464-0.116,3.216-0.228L27.696,32.97z M27.096,27.425
		c0,1.736-0.092,2.996-0.276,3.78l-1.512-0.156c0.136-0.528,0.204-1.32,0.204-2.376h-3.984v-1.248H27.096z M29.88,37.085h-7.332
		V33.93h1.584v1.92h5.748V37.085z M31.008,31.109h-1.332v3.492h-1.572v-7.908h1.572v3.084h1.332V31.109z"/>
	<path d="M31.812,28.337v-1.284h5.628v1.284h-1.908c0.096,0.672,0.358,1.238,0.786,1.698c0.428,0.46,0.958,0.794,1.59,1.002
		l-0.84,1.248c-0.44-0.144-0.898-0.42-1.374-0.828c-0.476-0.408-0.806-0.828-0.99-1.26c-0.136,0.456-0.462,0.912-0.978,1.368
		s-1.042,0.772-1.578,0.948l-0.792-1.26c0.728-0.248,1.306-0.62,1.734-1.116c0.428-0.496,0.682-1.096,0.762-1.8H31.812z
		 M40.68,37.35h-7.536v-2.916h5.652V33.93h-5.664v-1.236h7.26v2.88H34.74v0.504h5.94V37.35z M40.392,32.213h-1.62v-2.052h-1.44
		v-1.296h1.44v-2.172h1.62V32.213z"/>
</g>
<g>
	<path d="M141.669,37.397h-1.608v-3.348h-2.148v-1.248h9.66v1.248h-2.208v3.348h-1.584v-3.348h-2.112V37.397z M146.589,31.998h-7.44
		v-3.084h5.616v-0.708h-5.616V26.97h7.188v3.096h-5.616v0.744h5.868V31.998z"/>
	<path d="M153.729,27.678v6.996h-5.172v-6.996H153.729z M152.121,33.366v-4.368h-1.98v4.368H152.121z M156.693,26.693v4.032h1.416
		v1.296h-1.416v5.364h-1.584V26.693H156.693z"/>
	<path d="M165.357,34.578c-1.208,0.232-2.764,0.348-4.668,0.348c-0.16,0-0.396-0.001-0.708-0.006
		c-0.312-0.004-0.548-0.006-0.708-0.006v-7.32h5.052v1.236h-3.48v1.68h3.396v1.272h-3.396v1.848c0.112,0.008,0.3,0.012,0.564,0.012
		c1.512,0,2.776-0.096,3.792-0.288L165.357,34.578z M167.433,37.386h-1.608V26.693h1.608V37.386z"/>
	<path d="M178.713,36.018h-9.66v-1.26h9.66V36.018z M178.449,31.565l-0.708,1.284c-0.76-0.152-1.526-0.486-2.298-1.002
		c-0.772-0.516-1.298-1.134-1.578-1.854c-0.272,0.72-0.786,1.336-1.542,1.848c-0.756,0.512-1.522,0.848-2.298,1.008
		c-0.04-0.08-0.148-0.272-0.324-0.576c-0.176-0.304-0.308-0.54-0.396-0.708c0.952-0.12,1.81-0.502,2.574-1.146
		c0.764-0.644,1.146-1.426,1.146-2.346v-0.636h1.704v0.636c0,0.92,0.378,1.7,1.134,2.34S177.481,31.438,178.449,31.565z"/>
	<path d="M189.165,32.97c-1.04,0.128-2.16,0.224-3.36,0.288c-1.184,0.056-2.296,0.084-3.336,0.084l-0.144-1.272
		c0.92,0,1.6-0.004,2.04-0.012v-2.1h1.5v2.064c1.392-0.04,2.464-0.116,3.216-0.228L189.165,32.97z M188.564,27.425
		c0,1.736-0.092,2.996-0.276,3.78l-1.512-0.156c0.136-0.528,0.204-1.32,0.204-2.376h-3.984v-1.248H188.564z M191.349,37.085h-7.332
		V33.93h1.584v1.92h5.748V37.085z M192.477,31.109h-1.332v3.492h-1.572v-7.908h1.572v3.084h1.332V31.109z"/>
	<path d="M193.28,28.337v-1.284h5.628v1.284H197c0.096,0.672,0.358,1.238,0.786,1.698c0.428,0.46,0.958,0.794,1.59,1.002
		l-0.84,1.248c-0.44-0.144-0.898-0.42-1.374-0.828c-0.476-0.408-0.806-0.828-0.99-1.26c-0.136,0.456-0.462,0.912-0.978,1.368
		s-1.042,0.772-1.578,0.948l-0.792-1.26c0.728-0.248,1.306-0.62,1.734-1.116c0.428-0.496,0.682-1.096,0.762-1.8H193.28z
		 M202.148,37.35h-7.536v-2.916h5.652V33.93h-5.664v-1.236h7.26v2.88h-5.652v0.504h5.94V37.35z M201.86,32.213h-1.62v-2.052h-1.44
		v-1.296h1.44v-2.172h1.62V32.213z"/>
</g>
<g>
</g>
<g>
</g>
<g>
</g>
<g>
</g>
<g>
</g>
<g>
</g>
<g>
</g>
</svg>
