<?xml version="1.0" encoding="utf-8"?>
<!-- Generator: Adobe Illustrator 28.0.0, SVG Export Plug-In . SVG Version: 6.00 Build 0)  -->
<svg version="1.1" id="레이어_1" xmlns="http://www.w3.org/2000/svg" xmlns:xlink="http://www.w3.org/1999/xlink" x="0px"
	 y="0px" viewBox="0 0 444.939 271.407" enable-background="new 0 0 444.939 271.407" xml:space="preserve">
<g>
	<polyline fill="none" stroke="#E60013" stroke-width="2" stroke-miterlimit="10" points="25.068,156.812 34.874,134.102 
		48.293,98.489 60.68,73.973 78.229,31.651 86.745,63.651 94.745,121.715 102.745,156.812 111.519,182.876 	"/>
	<path d="M76.051,226.07H36.858c-1.309,0-2.371-1.062-2.371-2.371l0,0c0-1.309,1.062-2.371,2.371-2.371h39.194
		c1.309,0,2.371,1.062,2.371,2.371l0,0C78.422,225.008,77.361,226.07,76.051,226.07z"/>
	<g>
		<g>
			
				<line fill="none" stroke="#000000" stroke-width="0.9785" stroke-miterlimit="10" x1="78.422" y1="228.683" x2="78.422" y2="227.246"/>
			
				<line fill="none" stroke="#000000" stroke-width="0.9785" stroke-miterlimit="10" stroke-dasharray="2.8644,2.8644" x1="78.422" y1="224.382" x2="78.422" y2="31.036"/>
			
				<line fill="none" stroke="#000000" stroke-width="0.9785" stroke-miterlimit="10" x1="78.422" y1="29.604" x2="78.422" y2="28.167"/>
		</g>
	</g>
	<g>
		<path d="M55.077,1.134c-0.084,2.082-1.269,3.48-3.555,4.194l-0.558-0.846c0.744-0.168,1.386-0.465,1.926-0.891
			c0.54-0.426,0.879-0.954,1.017-1.584h-2.556V1.134H55.077z M57.66,7.002c0,0.498-0.243,0.894-0.729,1.188
			s-1.161,0.441-2.025,0.441c-0.858,0-1.527-0.147-2.007-0.441s-0.72-0.69-0.72-1.188c0-0.504,0.24-0.901,0.72-1.192
			s1.149-0.437,2.007-0.437c0.864,0,1.539,0.146,2.025,0.437S57.66,6.498,57.66,7.002z M56.139,7.578
			c0.288-0.138,0.432-0.33,0.432-0.576s-0.146-0.439-0.437-0.581S55.434,6.21,54.906,6.21c-0.51,0-0.909,0.07-1.197,0.211
			s-0.432,0.334-0.432,0.581s0.142,0.438,0.427,0.576c0.285,0.138,0.686,0.207,1.202,0.207C55.44,7.785,55.851,7.716,56.139,7.578z
			 M57.606,5.265h-1.053V4.392h-1.467V3.591h1.467V2.799h-1.359V1.971h1.359V0.612h1.053V5.265z"/>
		<path d="M59.118,2.016V1.179h4.23v0.837h-1.539c0.036,0.546,0.224,1.011,0.562,1.395c0.339,0.384,0.751,0.654,1.238,0.81
			l-0.585,0.828c-0.33-0.126-0.662-0.336-0.995-0.63s-0.583-0.615-0.751-0.963c-0.108,0.378-0.344,0.738-0.707,1.08
			c-0.363,0.342-0.749,0.582-1.157,0.72l-0.621-0.819c0.582-0.21,1.044-0.523,1.386-0.94c0.342-0.417,0.525-0.911,0.549-1.48H59.118
			z M59.964,5.679H65.4V8.64h-1.062V6.507h-4.374V5.679z M65.391,5.283h-1.053V0.621h1.053V5.283z"/>
		<path d="M72.906,4.941h-2.232v1.854h3.114v0.828h-7.245V6.795h3.078V4.941h-2.142V1.197h5.382v0.837h-4.329v2.07h4.374V4.941z"/>
		<path d="M31.822,19.287c-0.486-0.456-0.885-1.002-1.197-1.638c-0.312-0.636-0.468-1.338-0.468-2.106v-0.162
			c0-0.768,0.156-1.469,0.468-2.102s0.711-1.178,1.197-1.634h0.891c-0.444,0.492-0.804,1.053-1.08,1.683
			c-0.276,0.63-0.414,1.287-0.414,1.971v0.252c0,0.678,0.141,1.349,0.423,2.011c0.282,0.663,0.639,1.238,1.071,1.724H31.822z"/>
		<path d="M33.261,18.351v-0.648l1.179-1.242c0.522-0.552,0.909-1.01,1.161-1.373c0.252-0.363,0.378-0.719,0.378-1.067
			c0-0.366-0.098-0.63-0.292-0.792c-0.195-0.162-0.494-0.243-0.896-0.243c-0.396,0-0.822,0.138-1.278,0.414l-0.18-0.819
			c0.534-0.312,1.119-0.468,1.755-0.468c0.666,0,1.173,0.153,1.521,0.459s0.522,0.741,0.522,1.305c0,0.258-0.046,0.517-0.139,0.778
			c-0.093,0.261-0.239,0.525-0.437,0.792c-0.198,0.267-0.371,0.483-0.518,0.648c-0.147,0.165-0.347,0.379-0.599,0.644l-0.729,0.747
			h2.475v0.864H33.261z"/>
		<path d="M40.659,18.45v-1.26h-2.835v-0.648l3.123-4.365h0.756v4.194h0.909v0.819h-0.909v1.26H40.659z M39.03,16.371h1.638v-2.322
			L39.03,16.371z"/>
		<path d="M48.138,16.821l-0.612,0.792c-0.342-0.21-0.688-0.531-1.039-0.963c-0.351-0.432-0.593-0.849-0.725-1.251
			c-0.132,0.456-0.381,0.91-0.747,1.363c-0.366,0.453-0.756,0.793-1.17,1.021l-0.639-0.774c1.326-0.858,1.989-2.091,1.989-3.699
			v-1.224h1.089v1.17C46.284,14.835,46.902,16.023,48.138,16.821z M49.794,19.431h-1.053v-8.019h1.053V19.431z"/>
		<path d="M54.978,12.024c-0.006,1.104-0.349,2.029-1.03,2.776s-1.543,1.252-2.587,1.517l-0.522-0.837
			c0.72-0.126,1.369-0.421,1.948-0.886s0.932-1.031,1.058-1.697h-2.601v-0.873H54.978z M57.417,19.197h-5.355v-2.583h1.062v1.746
			h4.293V19.197z M58.362,14.562h-1.143v2.655h-1.062v-5.805h1.062v2.286h1.143V14.562z"/>
		<path d="M65.598,15.003l0.09,0.81c-1.134,0.192-2.646,0.288-4.536,0.288l-0.144-0.873c0.414,0,0.735-0.003,0.963-0.009l-0.18-1.98
			l1.035-0.117l0.09,2.079l0.801-0.027l0.099-2.043l1.008,0.099l-0.189,1.89C65.019,15.09,65.34,15.051,65.598,15.003z
			 M65.373,12.798h-4.131v-0.837h4.131V12.798z M67.749,17.856c0,0.474-0.25,0.846-0.751,1.116s-1.202,0.405-2.102,0.405
			c-0.894,0-1.591-0.135-2.092-0.405s-0.751-0.642-0.751-1.116c0-0.48,0.25-0.855,0.751-1.125c0.501-0.27,1.198-0.405,2.092-0.405
			c0.9,0,1.601,0.135,2.102,0.405C67.499,17,67.749,17.376,67.749,17.856z M66.642,17.856c0-0.216-0.154-0.386-0.463-0.509
			s-0.737-0.185-1.283-0.185c-0.54,0-0.966,0.062-1.278,0.185s-0.468,0.292-0.468,0.509c0,0.21,0.156,0.376,0.468,0.5
			s0.738,0.184,1.278,0.184c0.546,0,0.974-0.061,1.283-0.184S66.642,18.066,66.642,17.856z M67.731,16.308h-1.053v-1.413h-0.999
			v-0.792h0.999v-0.756h-0.999v-0.792h0.999v-1.143h1.053V16.308z"/>
		<path d="M75.201,11.771c0,1.332-0.084,2.331-0.252,2.997h1.179v0.837h-1.8v1.899h-1.044v-1.899H72.24v1.899h-1.044v-1.899h-2.313
			v-0.837h5.049c0.156-0.612,0.228-1.335,0.216-2.169h-4.329v-0.828H75.201z M75.309,19.215h-5.508v-2.502h1.044v1.674h4.464V19.215
			z"/>
		<path d="M83.202,12.249c-0.066,2.556-1.26,4.467-3.582,5.733l-0.648-0.792c0.864-0.396,1.578-0.971,2.142-1.724
			s0.882-1.535,0.954-2.345h-2.61v-0.873H83.202z M85.667,19.431h-1.053v-8.019h1.053V19.431z"/>
		<path d="M91.041,17.667h-1.044v-1.44H86.82v-0.846h7.245v0.846h-3.024V17.667z M93.705,14.094l-0.45,0.828
			c-0.57-0.06-1.124-0.232-1.661-0.518s-0.919-0.617-1.147-0.995c-0.198,0.402-0.555,0.741-1.071,1.017
			c-0.516,0.276-1.095,0.441-1.737,0.495l-0.441-0.81c0.678-0.036,1.266-0.193,1.764-0.473c0.498-0.279,0.798-0.634,0.9-1.066
			h-2.295v-0.846h5.778v0.846H91.05c0.078,0.282,0.261,0.54,0.549,0.774c0.288,0.234,0.618,0.413,0.99,0.536
			S93.333,14.076,93.705,14.094z M93.237,19.215h-5.544v-2.34h1.044v1.512h4.5V19.215z"/>
		<path d="M94.416,19.287c0.444-0.486,0.804-1.045,1.08-1.678c0.276-0.633,0.414-1.292,0.414-1.976v-0.261
			c0-0.672-0.14-1.341-0.418-2.007c-0.279-0.666-0.638-1.239-1.076-1.719h0.891c0.48,0.456,0.876,1.002,1.188,1.638
			c0.312,0.636,0.468,1.335,0.468,2.097v0.162c0,0.768-0.156,1.47-0.468,2.106c-0.312,0.636-0.708,1.182-1.188,1.638H94.416z"/>
	</g>
	<g>
		<line fill="none" stroke="#000000" stroke-miterlimit="10" x1="117.978" y1="242.715" x2="117.978" y2="246.489"/>
		<line fill="none" stroke="#000000" stroke-miterlimit="10" x1="113.905" y1="242.715" x2="113.905" y2="246.489"/>
		<line fill="none" stroke="#000000" stroke-miterlimit="10" x1="109.833" y1="242.715" x2="109.833" y2="246.489"/>
		<line fill="none" stroke="#000000" stroke-miterlimit="10" x1="105.76" y1="242.715" x2="105.76" y2="246.489"/>
		<line fill="none" stroke="#000000" stroke-miterlimit="10" x1="101.687" y1="242.715" x2="101.687" y2="246.489"/>
		<line fill="none" stroke="#000000" stroke-miterlimit="10" x1="97.615" y1="242.715" x2="97.615" y2="246.489"/>
		<line fill="none" stroke="#000000" stroke-miterlimit="10" x1="93.542" y1="242.715" x2="93.542" y2="246.489"/>
		<line fill="none" stroke="#000000" stroke-miterlimit="10" x1="89.47" y1="242.715" x2="89.47" y2="246.489"/>
		<line fill="none" stroke="#000000" stroke-miterlimit="10" x1="85.397" y1="242.715" x2="85.397" y2="246.489"/>
		<line fill="none" stroke="#000000" stroke-miterlimit="10" x1="81.324" y1="242.715" x2="81.324" y2="246.489"/>
		<line fill="none" stroke="#000000" stroke-miterlimit="10" x1="77.252" y1="242.715" x2="77.252" y2="246.489"/>
		<line fill="none" stroke="#000000" stroke-miterlimit="10" x1="73.179" y1="242.715" x2="73.179" y2="246.489"/>
		<line fill="none" stroke="#000000" stroke-miterlimit="10" x1="69.107" y1="242.715" x2="69.107" y2="246.489"/>
		<line fill="none" stroke="#000000" stroke-miterlimit="10" x1="65.034" y1="242.715" x2="65.034" y2="246.489"/>
		<line fill="none" stroke="#000000" stroke-miterlimit="10" x1="60.962" y1="242.715" x2="60.962" y2="246.489"/>
		<line fill="none" stroke="#000000" stroke-miterlimit="10" x1="56.889" y1="242.715" x2="56.889" y2="246.489"/>
		<line fill="none" stroke="#000000" stroke-miterlimit="10" x1="52.816" y1="242.715" x2="52.816" y2="246.489"/>
		<line fill="none" stroke="#000000" stroke-miterlimit="10" x1="48.744" y1="242.715" x2="48.744" y2="246.489"/>
		<line fill="none" stroke="#000000" stroke-miterlimit="10" x1="44.671" y1="242.715" x2="44.671" y2="246.489"/>
		<line fill="none" stroke="#000000" stroke-miterlimit="10" x1="40.599" y1="242.715" x2="40.599" y2="246.489"/>
		<line fill="none" stroke="#000000" stroke-miterlimit="10" x1="36.526" y1="242.715" x2="36.526" y2="246.489"/>
		<line fill="none" stroke="#000000" stroke-miterlimit="10" x1="32.453" y1="242.715" x2="32.453" y2="246.489"/>
		<line fill="none" stroke="#000000" stroke-miterlimit="10" x1="28.381" y1="242.715" x2="28.381" y2="246.489"/>
		<g>
			<path d="M36.342,254.83v-0.647l1.179-1.242c0.522-0.552,0.909-1.01,1.161-1.373c0.252-0.362,0.378-0.718,0.378-1.066
				c0-0.365-0.098-0.63-0.292-0.792c-0.195-0.162-0.494-0.243-0.896-0.243c-0.396,0-0.822,0.139-1.278,0.414l-0.18-0.818
				c0.534-0.312,1.119-0.469,1.755-0.469c0.666,0,1.173,0.153,1.521,0.459c0.348,0.307,0.522,0.741,0.522,1.306
				c0,0.258-0.046,0.518-0.139,0.778c-0.093,0.261-0.239,0.525-0.437,0.792c-0.198,0.267-0.371,0.483-0.518,0.648
				c-0.147,0.165-0.347,0.379-0.599,0.643l-0.729,0.747h2.475v0.864H36.342z"/>
			<path d="M42.066,254.866v-5.076l-1.035,0.207v-0.647l1.566-0.702h0.585v6.219H42.066z"/>
		</g>
		<g>
			<path d="M56.129,254.866v-5.076l-1.035,0.207v-0.647l1.566-0.702h0.585v6.219H56.129z"/>
		</g>
		<g>
			<path d="M73.528,254.919c-0.708,0-1.293-0.141-1.755-0.423l0.198-0.846c0.414,0.246,0.84,0.369,1.278,0.369
				c0.432,0,0.77-0.101,1.013-0.302s0.364-0.487,0.364-0.859c0-0.738-0.444-1.107-1.332-1.107c-0.39,0-0.807,0.111-1.251,0.333
				l0.225-3.393h3.222v0.864h-2.376l-0.117,1.503c0.276-0.072,0.534-0.108,0.774-0.108c0.63,0,1.121,0.162,1.472,0.486
				c0.351,0.323,0.526,0.807,0.526,1.448c0,0.589-0.203,1.074-0.607,1.458C74.756,254.728,74.211,254.919,73.528,254.919z"/>
		</g>
		<g>
			<path d="M89.398,248.602c0.738,0,1.307,0.233,1.706,0.702c0.399,0.468,0.599,1.137,0.599,2.007v0.414
				c0,2.142-0.864,3.213-2.592,3.213c-0.57,0-1.071-0.129-1.503-0.388l0.189-0.81c0.138,0.078,0.33,0.148,0.576,0.212
				c0.246,0.062,0.471,0.094,0.675,0.094c0.492,0,0.87-0.139,1.134-0.418c0.264-0.279,0.408-0.784,0.432-1.517
				c-0.402,0.366-0.885,0.549-1.449,0.549c-0.534,0-0.974-0.174-1.318-0.521c-0.345-0.349-0.518-0.813-0.518-1.396
				c0-0.63,0.18-1.145,0.54-1.543C88.229,248.801,88.738,248.602,89.398,248.602z M89.426,249.42c-0.33,0-0.585,0.111-0.765,0.333
				c-0.18,0.223-0.27,0.525-0.27,0.909c0,0.396,0.1,0.694,0.301,0.896s0.467,0.302,0.797,0.302c0.216,0,0.427-0.06,0.634-0.18
				s0.368-0.262,0.481-0.424v-0.152C90.604,249.982,90.211,249.42,89.426,249.42z"/>
		</g>
		<g>
			<path d="M103.064,254.866v-5.076l-1.035,0.207v-0.647l1.566-0.702h0.585v6.219H103.064z"/>
			<path d="M107.186,254.919c-0.354,0-0.698-0.042-1.031-0.126c-0.333-0.084-0.592-0.186-0.778-0.306l0.18-0.801
				c0.156,0.096,0.376,0.179,0.662,0.247c0.285,0.069,0.544,0.104,0.778,0.104c0.42,0,0.744-0.087,0.972-0.261
				c0.228-0.174,0.342-0.432,0.342-0.774c0-0.611-0.426-0.924-1.278-0.936l-0.639-0.019v-0.801l0.567-0.009
				c0.36-0.012,0.648-0.098,0.864-0.257c0.216-0.158,0.324-0.379,0.324-0.661c0-0.564-0.366-0.846-1.098-0.846
				c-0.408,0-0.846,0.107-1.314,0.323l-0.126-0.818c0.192-0.108,0.453-0.199,0.783-0.274s0.645-0.113,0.945-0.113
				c0.582,0,1.047,0.134,1.395,0.401c0.348,0.267,0.522,0.644,0.522,1.129c0,0.702-0.369,1.183-1.107,1.44
				c0.876,0.174,1.314,0.678,1.314,1.512c0,0.57-0.204,1.021-0.612,1.35C108.443,254.754,107.888,254.919,107.186,254.919z"/>
		</g>
		<g>
			<line fill="none" stroke="#000000" stroke-miterlimit="10" x1="17.681" y1="242.231" x2="118.52" y2="242.231"/>
			<line fill="none" stroke="#000000" stroke-miterlimit="10" x1="24.308" y1="242.715" x2="24.308" y2="246.489"/>
			<line fill="none" stroke="#000000" stroke-miterlimit="10" x1="20.236" y1="242.715" x2="20.236" y2="246.489"/>
			<g>
				<path d="M20.896,254.866v-5.076l-1.035,0.207v-0.647l1.566-0.702h0.585v6.219H20.896z"/>
				<path d="M23.786,254.83l2.25-5.256h-2.799v-0.873h3.996v0.657l-2.223,5.472H23.786z"/>
			</g>
			<g>
				<path d="M6.696,235.728c-0.738,0-1.301-0.242-1.688-0.725c-0.387-0.483-0.581-1.153-0.581-2.012v-0.441
					c0-1.085,0.243-1.884,0.729-2.394c0.486-0.51,1.125-0.765,1.917-0.765c0.57,0,1.05,0.113,1.44,0.342l-0.216,0.81
					c-0.126-0.065-0.303-0.127-0.531-0.185c-0.228-0.057-0.438-0.085-0.63-0.085c-0.492,0-0.873,0.151-1.143,0.454
					c-0.27,0.304-0.426,0.83-0.468,1.58c0.42-0.36,0.9-0.54,1.44-0.54c0.546,0,0.988,0.163,1.327,0.49s0.509,0.778,0.509,1.354
					c0,0.612-0.186,1.117-0.558,1.517S7.355,235.728,6.696,235.728z M6.668,234.909c0.33,0,0.59-0.106,0.779-0.319
					s0.283-0.512,0.283-0.896c0-0.756-0.363-1.134-1.089-1.134c-0.21,0-0.417,0.06-0.621,0.18S5.655,233,5.535,233.163v0.054
					C5.535,234.345,5.913,234.909,6.668,234.909z"/>
				<path d="M12.068,235.728c-0.72,0-1.299-0.245-1.737-0.733c-0.438-0.489-0.657-1.231-0.657-2.228v-0.388
					c0-0.533,0.064-0.999,0.194-1.395c0.129-0.396,0.307-0.708,0.535-0.937c0.228-0.228,0.481-0.396,0.761-0.504
					c0.279-0.107,0.583-0.162,0.914-0.162c0.702,0,1.273,0.24,1.714,0.721c0.441,0.479,0.662,1.229,0.662,2.25v0.387
					c0,1.021-0.222,1.773-0.666,2.259C13.343,235.485,12.771,235.728,12.068,235.728z M12.068,234.881
					c0.42,0,0.732-0.163,0.936-0.49s0.306-0.854,0.306-1.579v-0.459c0-1.41-0.411-2.115-1.233-2.115
					c-0.426,0-0.741,0.163-0.945,0.49s-0.306,0.848-0.306,1.562v0.478C10.827,234.177,11.24,234.881,12.068,234.881z"/>
			</g>
			<g>
				<path d="M8.203,177.342c-0.417,0.33-0.985,0.495-1.706,0.495c-0.72,0-1.282-0.15-1.688-0.45c-0.405-0.3-0.607-0.705-0.607-1.215
					c0-0.366,0.12-0.688,0.36-0.963c0.24-0.276,0.543-0.486,0.909-0.63c-0.726-0.33-1.089-0.822-1.089-1.477
					c0-0.479,0.192-0.868,0.576-1.165c0.384-0.297,0.896-0.446,1.539-0.446c0.648,0,1.158,0.136,1.53,0.405
					c0.372,0.271,0.558,0.646,0.558,1.125c0,0.618-0.375,1.107-1.125,1.467c0.912,0.307,1.368,0.825,1.368,1.558
					C8.828,176.581,8.62,177.012,8.203,177.342z M5.575,176.775c0.219,0.168,0.518,0.252,0.896,0.252s0.68-0.082,0.905-0.247
					c0.225-0.165,0.337-0.383,0.337-0.652c0-0.307-0.113-0.551-0.337-0.733c-0.225-0.184-0.578-0.338-1.058-0.464
					c-0.3,0.103-0.554,0.255-0.761,0.459s-0.311,0.436-0.311,0.693C5.246,176.376,5.355,176.607,5.575,176.775z M6.65,174.121
					c0.594-0.246,0.891-0.586,0.891-1.018c0-0.24-0.087-0.435-0.261-0.585c-0.174-0.149-0.429-0.225-0.765-0.225
					c-0.318,0-0.568,0.07-0.751,0.211c-0.183,0.142-0.274,0.332-0.274,0.571C5.489,173.581,5.876,173.928,6.65,174.121z"/>
				<path d="M12.068,177.837c-0.72,0-1.299-0.245-1.737-0.733c-0.438-0.489-0.657-1.231-0.657-2.228v-0.388
					c0-0.533,0.064-0.999,0.194-1.395c0.129-0.396,0.307-0.708,0.535-0.937c0.228-0.228,0.481-0.396,0.761-0.504
					c0.279-0.107,0.583-0.162,0.914-0.162c0.702,0,1.273,0.24,1.714,0.721c0.441,0.479,0.662,1.229,0.662,2.25v0.387
					c0,1.021-0.222,1.773-0.666,2.259C13.343,177.594,12.77,177.837,12.068,177.837z M12.068,176.991c0.42,0,0.732-0.163,0.936-0.49
					s0.306-0.854,0.306-1.579v-0.459c0-1.41-0.411-2.115-1.233-2.115c-0.426,0-0.741,0.163-0.945,0.49s-0.306,0.848-0.306,1.562
					v0.478C10.826,176.287,11.24,176.991,12.068,176.991z"/>
			</g>
			<g>
				<path d="M1.377,120.893v-5.076l-1.035,0.207v-0.647l1.566-0.702h0.585v6.219H1.377z"/>
				<path d="M6.255,120.965c-0.72,0-1.299-0.245-1.737-0.733c-0.438-0.489-0.657-1.231-0.657-2.228v-0.388
					c0-0.533,0.064-0.999,0.194-1.395c0.129-0.396,0.307-0.708,0.535-0.937c0.228-0.228,0.481-0.396,0.761-0.504
					c0.279-0.107,0.583-0.162,0.914-0.162c0.702,0,1.273,0.24,1.714,0.721c0.441,0.479,0.662,1.229,0.662,2.25v0.387
					c0,1.021-0.222,1.773-0.666,2.259C7.53,120.722,6.957,120.965,6.255,120.965z M6.255,120.119c0.42,0,0.732-0.163,0.936-0.49
					s0.306-0.854,0.306-1.579v-0.459c0-1.41-0.411-2.115-1.233-2.115c-0.426,0-0.741,0.163-0.945,0.49s-0.306,0.848-0.306,1.562
					v0.478C5.013,119.415,5.427,120.119,6.255,120.119z"/>
				<path d="M12.069,120.965c-0.72,0-1.299-0.245-1.737-0.733c-0.438-0.489-0.657-1.231-0.657-2.228v-0.388
					c0-0.533,0.064-0.999,0.194-1.395c0.129-0.396,0.307-0.708,0.535-0.937c0.228-0.228,0.481-0.396,0.761-0.504
					c0.279-0.107,0.583-0.162,0.914-0.162c0.702,0,1.273,0.24,1.714,0.721c0.441,0.479,0.662,1.229,0.662,2.25v0.387
					c0,1.021-0.222,1.773-0.666,2.259C13.344,120.722,12.771,120.965,12.069,120.965z M12.069,120.119
					c0.42,0,0.732-0.163,0.936-0.49s0.306-0.854,0.306-1.579v-0.459c0-1.41-0.411-2.115-1.233-2.115
					c-0.426,0-0.741,0.163-0.945,0.49s-0.306,0.848-0.306,1.562v0.478C10.827,119.415,11.241,120.119,12.069,120.119z"/>
			</g>
			<g>
				<path d="M1.377,63.018v-5.076l-1.035,0.207v-0.647l1.566-0.702h0.585v6.219H1.377z"/>
				<path d="M3.843,62.981v-0.647l1.179-1.242c0.522-0.552,0.909-1.01,1.161-1.373c0.252-0.362,0.378-0.718,0.378-1.066
					c0-0.365-0.098-0.63-0.292-0.792c-0.195-0.162-0.494-0.243-0.896-0.243c-0.396,0-0.822,0.139-1.278,0.414l-0.18-0.818
					c0.534-0.312,1.119-0.469,1.755-0.469c0.666,0,1.173,0.153,1.521,0.459c0.348,0.307,0.522,0.741,0.522,1.306
					c0,0.258-0.046,0.518-0.139,0.778c-0.093,0.261-0.239,0.525-0.437,0.792c-0.198,0.267-0.371,0.483-0.518,0.648
					c-0.147,0.165-0.347,0.379-0.599,0.643l-0.729,0.747h2.475v0.864H3.843z"/>
				<path d="M11.07,63.09c-0.72,0-1.299-0.245-1.737-0.733c-0.438-0.489-0.657-1.231-0.657-2.228v-0.388
					c0-0.533,0.064-0.999,0.194-1.395c0.129-0.396,0.307-0.708,0.535-0.937c0.228-0.228,0.481-0.396,0.761-0.504
					c0.279-0.107,0.583-0.162,0.914-0.162c0.702,0,1.273,0.24,1.714,0.721c0.441,0.479,0.662,1.229,0.662,2.25v0.387
					c0,1.021-0.222,1.773-0.666,2.259C12.345,62.847,11.772,63.09,11.07,63.09z M11.07,62.243c0.42,0,0.732-0.163,0.936-0.49
					s0.306-0.854,0.306-1.579v-0.459c0-1.41-0.411-2.115-1.233-2.115c-0.426,0-0.741,0.163-0.945,0.49s-0.306,0.848-0.306,1.562
					v0.478C9.828,61.539,10.242,62.243,11.07,62.243z"/>
			</g>
			<line fill="none" stroke="#000000" stroke-miterlimit="10" x1="20.236" y1="30.683" x2="20.236" y2="232.167"/>
			<line fill="none" stroke="#000000" stroke-miterlimit="10" x1="24.308" y1="228.683" x2="15.649" y2="237.102"/>
			<polyline fill="none" stroke="#000000" stroke-miterlimit="10" points="24.308,232.893 19.964,236.8 15.649,240.683 			"/>
			<path fill="none" stroke="#000000" stroke-miterlimit="10" d="M20.236,241.457"/>
			<line fill="none" stroke="#000000" stroke-miterlimit="10" x1="17.681" y1="175.393" x2="20.236" y2="175.393"/>
			<line fill="none" stroke="#000000" stroke-miterlimit="10" x1="17.681" y1="117.328" x2="19.978" y2="117.328"/>
			<line fill="none" stroke="#000000" stroke-miterlimit="10" x1="17.681" y1="60.005" x2="19.978" y2="60.005"/>
			<g>
				<path d="M60.341,267.402l-0.612,0.792c-0.342-0.21-0.688-0.53-1.039-0.963c-0.351-0.432-0.593-0.849-0.725-1.251
					c-0.132,0.456-0.381,0.911-0.747,1.364c-0.366,0.452-0.756,0.793-1.17,1.021l-0.639-0.774c1.326-0.858,1.989-2.091,1.989-3.699
					v-1.224h1.089v1.17C58.487,265.417,59.104,266.604,60.341,267.402z M61.997,270.012h-1.053v-8.019h1.053V270.012z"/>
				<path d="M67.181,262.605c-0.006,1.104-0.349,2.03-1.03,2.776c-0.681,0.747-1.543,1.253-2.587,1.517l-0.522-0.837
					c0.72-0.126,1.369-0.421,1.948-0.887c0.579-0.465,0.932-1.03,1.058-1.696h-2.601v-0.873H67.181z M69.62,269.778h-5.355v-2.583
					h1.062v1.746h4.293V269.778z M70.565,265.143h-1.143v2.655H68.36v-5.805h1.062v2.285h1.143V265.143z"/>
			</g>
			<g>
				<path d="M12.451,44.812c-0.279,0.309-0.649,0.464-1.111,0.464s-0.831-0.147-1.107-0.441c-0.276-0.293-0.414-0.696-0.414-1.206
					v-0.117c0-0.522,0.138-0.936,0.414-1.242c0.276-0.306,0.645-0.459,1.107-0.459s0.833,0.144,1.111,0.432
					c0.279,0.288,0.419,0.687,0.419,1.197v0.135C12.87,44.091,12.73,44.503,12.451,44.812z M11.34,44.637
					c0.216,0,0.375-0.078,0.477-0.234c0.102-0.156,0.153-0.411,0.153-0.765V43.44c0-0.666-0.21-0.999-0.63-0.999
					c-0.414,0-0.621,0.33-0.621,0.99v0.198c0,0.354,0.051,0.61,0.153,0.77C10.974,44.557,11.13,44.637,11.34,44.637z M10.89,48.426
					l4.212-6.687h0.819l-4.212,6.687H10.89z M15.57,48.156c-0.468,0-0.841-0.146-1.121-0.437c-0.279-0.291-0.418-0.694-0.418-1.21
					v-0.126c0-0.51,0.141-0.918,0.423-1.224c0.282-0.306,0.654-0.459,1.116-0.459s0.834,0.146,1.116,0.437
					c0.282,0.291,0.423,0.688,0.423,1.192v0.135c0,0.51-0.141,0.919-0.423,1.229C16.404,48.001,16.032,48.156,15.57,48.156z
					 M15.097,47.274c0.099,0.156,0.257,0.234,0.473,0.234c0.216,0,0.375-0.077,0.477-0.229c0.102-0.153,0.153-0.403,0.153-0.751
					v-0.198c0-0.66-0.21-0.99-0.63-0.99c-0.414,0-0.621,0.327-0.621,0.981v0.198C14.949,46.866,14.999,47.118,15.097,47.274z"/>
			</g>
		</g>
	</g>
</g>
<g>
	<polyline fill="none" stroke="#E60013" stroke-width="2" stroke-miterlimit="10" points="191.584,124.812 204.229,124.812 
		216.358,103.393 224.875,99.78 241.133,73.715 249.391,39.393 257.133,113.457 265.133,131.264 273.649,128.941 281.907,129.973 	
		"/>
	<path d="M246.084,226.07h-39.194c-1.309,0-2.371-1.062-2.371-2.371l0,0c0-1.309,1.062-2.371,2.371-2.371h39.194
		c1.309,0,2.371,1.062,2.371,2.371l0,0C248.455,225.008,247.394,226.07,246.084,226.07z"/>
	<line fill="none" stroke="#000000" stroke-miterlimit="10" x1="180.713" y1="242.231" x2="281.552" y2="242.231"/>
	<line fill="none" stroke="#000000" stroke-miterlimit="10" x1="281.01" y1="242.715" x2="281.01" y2="246.489"/>
	<line fill="none" stroke="#000000" stroke-miterlimit="10" x1="276.938" y1="242.715" x2="276.938" y2="246.489"/>
	<line fill="none" stroke="#000000" stroke-miterlimit="10" x1="272.865" y1="242.715" x2="272.865" y2="246.489"/>
	<line fill="none" stroke="#000000" stroke-miterlimit="10" x1="268.792" y1="242.715" x2="268.792" y2="246.489"/>
	<line fill="none" stroke="#000000" stroke-miterlimit="10" x1="264.72" y1="242.715" x2="264.72" y2="246.489"/>
	<line fill="none" stroke="#000000" stroke-miterlimit="10" x1="260.647" y1="242.715" x2="260.647" y2="246.489"/>
	<line fill="none" stroke="#000000" stroke-miterlimit="10" x1="256.575" y1="242.715" x2="256.575" y2="246.489"/>
	<line fill="none" stroke="#000000" stroke-miterlimit="10" x1="252.502" y1="242.715" x2="252.502" y2="246.489"/>
	<line fill="none" stroke="#000000" stroke-miterlimit="10" x1="248.429" y1="242.715" x2="248.429" y2="246.489"/>
	<line fill="none" stroke="#000000" stroke-miterlimit="10" x1="244.357" y1="242.715" x2="244.357" y2="246.489"/>
	<line fill="none" stroke="#000000" stroke-miterlimit="10" x1="240.284" y1="242.715" x2="240.284" y2="246.489"/>
	<line fill="none" stroke="#000000" stroke-miterlimit="10" x1="236.212" y1="242.715" x2="236.212" y2="246.489"/>
	<line fill="none" stroke="#000000" stroke-miterlimit="10" x1="232.139" y1="242.715" x2="232.139" y2="246.489"/>
	<line fill="none" stroke="#000000" stroke-miterlimit="10" x1="228.067" y1="242.715" x2="228.067" y2="246.489"/>
	<line fill="none" stroke="#000000" stroke-miterlimit="10" x1="223.994" y1="242.715" x2="223.994" y2="246.489"/>
	<line fill="none" stroke="#000000" stroke-miterlimit="10" x1="219.921" y1="242.715" x2="219.921" y2="246.489"/>
	<line fill="none" stroke="#000000" stroke-miterlimit="10" x1="215.849" y1="242.715" x2="215.849" y2="246.489"/>
	<line fill="none" stroke="#000000" stroke-miterlimit="10" x1="211.776" y1="242.715" x2="211.776" y2="246.489"/>
	<line fill="none" stroke="#000000" stroke-miterlimit="10" x1="207.704" y1="242.715" x2="207.704" y2="246.489"/>
	<line fill="none" stroke="#000000" stroke-miterlimit="10" x1="203.631" y1="242.715" x2="203.631" y2="246.489"/>
	<line fill="none" stroke="#000000" stroke-miterlimit="10" x1="199.558" y1="242.715" x2="199.558" y2="246.489"/>
	<line fill="none" stroke="#000000" stroke-miterlimit="10" x1="195.486" y1="242.715" x2="195.486" y2="246.489"/>
	<line fill="none" stroke="#000000" stroke-miterlimit="10" x1="191.413" y1="242.715" x2="191.413" y2="246.489"/>
	<line fill="none" stroke="#000000" stroke-miterlimit="10" x1="187.341" y1="242.715" x2="187.341" y2="246.489"/>
	<line fill="none" stroke="#000000" stroke-miterlimit="10" x1="183.268" y1="242.715" x2="183.268" y2="246.489"/>
	<g>
		<path d="M183.929,254.866v-5.076l-1.035,0.207v-0.647l1.566-0.702h0.585v6.219H183.929z"/>
		<path d="M186.818,254.83l2.25-5.256h-2.799v-0.873h3.996v0.657l-2.223,5.472H186.818z"/>
	</g>
	<g>
		<path d="M169.728,235.728c-0.738,0-1.301-0.242-1.688-0.725c-0.387-0.483-0.581-1.153-0.581-2.012v-0.441
			c0-1.085,0.243-1.884,0.729-2.394c0.486-0.51,1.125-0.765,1.917-0.765c0.57,0,1.05,0.113,1.44,0.342l-0.216,0.81
			c-0.126-0.065-0.303-0.127-0.531-0.185c-0.228-0.057-0.438-0.085-0.63-0.085c-0.492,0-0.873,0.151-1.143,0.454
			c-0.27,0.304-0.426,0.83-0.468,1.58c0.42-0.36,0.9-0.54,1.44-0.54c0.546,0,0.988,0.163,1.327,0.49s0.509,0.778,0.509,1.354
			c0,0.612-0.186,1.117-0.558,1.517S170.388,235.728,169.728,235.728z M169.701,234.909c0.33,0,0.59-0.106,0.779-0.319
			s0.283-0.512,0.283-0.896c0-0.756-0.363-1.134-1.089-1.134c-0.21,0-0.417,0.06-0.621,0.18s-0.366,0.261-0.486,0.423v0.054
			C168.567,234.345,168.945,234.909,169.701,234.909z"/>
		<path d="M175.101,235.728c-0.72,0-1.299-0.245-1.737-0.733c-0.438-0.489-0.657-1.231-0.657-2.228v-0.388
			c0-0.533,0.064-0.999,0.194-1.395c0.129-0.396,0.307-0.708,0.535-0.937c0.228-0.228,0.481-0.396,0.761-0.504
			c0.279-0.107,0.583-0.162,0.914-0.162c0.702,0,1.273,0.24,1.714,0.721c0.441,0.479,0.662,1.229,0.662,2.25v0.387
			c0,1.021-0.222,1.773-0.666,2.259C176.375,235.485,175.803,235.728,175.101,235.728z M175.101,234.881
			c0.42,0,0.732-0.163,0.936-0.49s0.306-0.854,0.306-1.579v-0.459c0-1.41-0.411-2.115-1.233-2.115c-0.426,0-0.741,0.163-0.945,0.49
			s-0.306,0.848-0.306,1.562v0.478C173.859,234.177,174.272,234.881,175.101,234.881z"/>
	</g>
	<g>
		<path d="M171.235,177.342c-0.417,0.33-0.985,0.495-1.706,0.495c-0.72,0-1.282-0.15-1.688-0.45c-0.405-0.3-0.607-0.705-0.607-1.215
			c0-0.366,0.12-0.688,0.36-0.963c0.24-0.276,0.543-0.486,0.909-0.63c-0.726-0.33-1.089-0.822-1.089-1.477
			c0-0.479,0.192-0.868,0.576-1.165c0.384-0.297,0.896-0.446,1.539-0.446c0.648,0,1.158,0.136,1.53,0.405
			c0.372,0.271,0.558,0.646,0.558,1.125c0,0.618-0.375,1.107-1.125,1.467c0.912,0.307,1.368,0.825,1.368,1.558
			C171.86,176.581,171.652,177.012,171.235,177.342z M168.607,176.775c0.219,0.168,0.518,0.252,0.896,0.252s0.68-0.082,0.905-0.247
			c0.225-0.165,0.337-0.383,0.337-0.652c0-0.307-0.113-0.551-0.337-0.733c-0.225-0.184-0.578-0.338-1.058-0.464
			c-0.3,0.103-0.554,0.255-0.761,0.459s-0.311,0.436-0.311,0.693C168.278,176.376,168.388,176.607,168.607,176.775z
			 M169.683,174.121c0.594-0.246,0.891-0.586,0.891-1.018c0-0.24-0.087-0.435-0.261-0.585c-0.174-0.149-0.429-0.225-0.765-0.225
			c-0.318,0-0.568,0.07-0.751,0.211c-0.183,0.142-0.274,0.332-0.274,0.571C168.521,173.581,168.909,173.928,169.683,174.121z"/>
		<path d="M175.1,177.837c-0.72,0-1.299-0.245-1.737-0.733c-0.438-0.489-0.657-1.231-0.657-2.228v-0.388
			c0-0.533,0.064-0.999,0.194-1.395c0.129-0.396,0.307-0.708,0.535-0.937c0.228-0.228,0.481-0.396,0.761-0.504
			c0.279-0.107,0.583-0.162,0.914-0.162c0.702,0,1.273,0.24,1.714,0.721c0.441,0.479,0.662,1.229,0.662,2.25v0.387
			c0,1.021-0.222,1.773-0.666,2.259C176.375,177.594,175.802,177.837,175.1,177.837z M175.1,176.991c0.42,0,0.732-0.163,0.936-0.49
			s0.306-0.854,0.306-1.579v-0.459c0-1.41-0.411-2.115-1.233-2.115c-0.426,0-0.741,0.163-0.945,0.49s-0.306,0.848-0.306,1.562v0.478
			C173.858,176.287,174.272,176.991,175.1,176.991z"/>
	</g>
	<g>
		<path d="M164.409,120.893v-5.076l-1.035,0.207v-0.647l1.566-0.702h0.585v6.219H164.409z"/>
		<path d="M169.287,120.965c-0.72,0-1.299-0.245-1.737-0.733c-0.438-0.489-0.657-1.231-0.657-2.228v-0.388
			c0-0.533,0.064-0.999,0.194-1.395c0.129-0.396,0.307-0.708,0.535-0.937c0.228-0.228,0.481-0.396,0.761-0.504
			c0.279-0.107,0.583-0.162,0.914-0.162c0.702,0,1.273,0.24,1.714,0.721c0.441,0.479,0.662,1.229,0.662,2.25v0.387
			c0,1.021-0.222,1.773-0.666,2.259C170.562,120.722,169.989,120.965,169.287,120.965z M169.287,120.119
			c0.42,0,0.732-0.163,0.936-0.49s0.306-0.854,0.306-1.579v-0.459c0-1.41-0.411-2.115-1.233-2.115c-0.426,0-0.741,0.163-0.945,0.49
			s-0.306,0.848-0.306,1.562v0.478C168.045,119.415,168.458,120.119,169.287,120.119z"/>
		<path d="M175.101,120.965c-0.72,0-1.299-0.245-1.737-0.733c-0.438-0.489-0.657-1.231-0.657-2.228v-0.388
			c0-0.533,0.064-0.999,0.194-1.395c0.129-0.396,0.307-0.708,0.535-0.937c0.228-0.228,0.481-0.396,0.761-0.504
			c0.279-0.107,0.583-0.162,0.914-0.162c0.702,0,1.273,0.24,1.714,0.721c0.441,0.479,0.662,1.229,0.662,2.25v0.387
			c0,1.021-0.222,1.773-0.666,2.259C176.375,120.722,175.803,120.965,175.101,120.965z M175.101,120.119
			c0.42,0,0.732-0.163,0.936-0.49s0.306-0.854,0.306-1.579v-0.459c0-1.41-0.411-2.115-1.233-2.115c-0.426,0-0.741,0.163-0.945,0.49
			s-0.306,0.848-0.306,1.562v0.478C173.859,119.415,174.272,120.119,175.101,120.119z"/>
	</g>
	<g>
		<path d="M164.409,63.018v-5.076l-1.035,0.207v-0.647l1.566-0.702h0.585v6.219H164.409z"/>
		<path d="M166.875,62.981v-0.647l1.179-1.242c0.522-0.552,0.909-1.01,1.161-1.373c0.252-0.362,0.378-0.718,0.378-1.066
			c0-0.365-0.098-0.63-0.292-0.792c-0.195-0.162-0.494-0.243-0.896-0.243c-0.396,0-0.822,0.139-1.278,0.414l-0.18-0.818
			c0.534-0.312,1.119-0.469,1.755-0.469c0.666,0,1.173,0.153,1.521,0.459c0.348,0.307,0.522,0.741,0.522,1.306
			c0,0.258-0.046,0.518-0.139,0.778c-0.093,0.261-0.239,0.525-0.437,0.792c-0.198,0.267-0.371,0.483-0.518,0.648
			c-0.147,0.165-0.347,0.379-0.599,0.643l-0.729,0.747h2.475v0.864H166.875z"/>
		<path d="M174.102,63.09c-0.72,0-1.299-0.245-1.737-0.733c-0.438-0.489-0.657-1.231-0.657-2.228v-0.388
			c0-0.533,0.064-0.999,0.194-1.395c0.129-0.396,0.307-0.708,0.535-0.937c0.228-0.228,0.481-0.396,0.761-0.504
			c0.279-0.107,0.583-0.162,0.914-0.162c0.702,0,1.273,0.24,1.714,0.721c0.441,0.479,0.662,1.229,0.662,2.25v0.387
			c0,1.021-0.222,1.773-0.666,2.259C175.376,62.847,174.804,63.09,174.102,63.09z M174.102,62.243c0.42,0,0.732-0.163,0.936-0.49
			s0.306-0.854,0.306-1.579v-0.459c0-1.41-0.411-2.115-1.233-2.115c-0.426,0-0.741,0.163-0.945,0.49s-0.306,0.848-0.306,1.562v0.478
			C172.86,61.539,173.273,62.243,174.102,62.243z"/>
	</g>
	<g>
		<path d="M199.375,254.83v-0.647l1.179-1.242c0.522-0.552,0.909-1.01,1.161-1.373c0.252-0.362,0.378-0.718,0.378-1.066
			c0-0.365-0.098-0.63-0.292-0.792c-0.195-0.162-0.494-0.243-0.896-0.243c-0.396,0-0.822,0.139-1.278,0.414l-0.18-0.818
			c0.534-0.312,1.119-0.469,1.755-0.469c0.666,0,1.173,0.153,1.521,0.459c0.348,0.307,0.522,0.741,0.522,1.306
			c0,0.258-0.046,0.518-0.139,0.778c-0.093,0.261-0.239,0.525-0.437,0.792c-0.198,0.267-0.371,0.483-0.518,0.648
			c-0.147,0.165-0.347,0.379-0.599,0.643l-0.729,0.747h2.475v0.864H199.375z"/>
		<path d="M205.099,254.866v-5.076l-1.035,0.207v-0.647l1.566-0.702h0.585v6.219H205.099z"/>
	</g>
	<g>
		<path d="M219.161,254.866v-5.076l-1.035,0.207v-0.647l1.566-0.702h0.585v6.219H219.161z"/>
	</g>
	<g>
		<path d="M236.561,254.919c-0.708,0-1.294-0.141-1.756-0.423l0.198-0.846c0.414,0.246,0.84,0.369,1.278,0.369
			c0.432,0,0.77-0.101,1.013-0.302s0.364-0.487,0.364-0.859c0-0.738-0.444-1.107-1.332-1.107c-0.391,0-0.807,0.111-1.251,0.333
			l0.225-3.393h3.223v0.864h-2.376l-0.117,1.503c0.275-0.072,0.534-0.108,0.773-0.108c0.631,0,1.121,0.162,1.472,0.486
			c0.352,0.323,0.526,0.807,0.526,1.448c0,0.589-0.202,1.074-0.607,1.458C237.789,254.728,237.244,254.919,236.561,254.919z"/>
	</g>
	<g>
		<path d="M252.431,248.602c0.738,0,1.307,0.233,1.706,0.702c0.398,0.468,0.599,1.137,0.599,2.007v0.414
			c0,2.142-0.864,3.213-2.593,3.213c-0.569,0-1.07-0.129-1.503-0.388l0.189-0.81c0.138,0.078,0.33,0.148,0.576,0.212
			c0.246,0.062,0.471,0.094,0.675,0.094c0.492,0,0.87-0.139,1.134-0.418s0.408-0.784,0.433-1.517
			c-0.402,0.366-0.886,0.549-1.449,0.549c-0.534,0-0.974-0.174-1.318-0.521c-0.346-0.349-0.518-0.813-0.518-1.396
			c0-0.63,0.18-1.145,0.54-1.543C251.261,248.801,251.771,248.602,252.431,248.602z M252.458,249.42
			c-0.33,0-0.585,0.111-0.765,0.333c-0.181,0.223-0.271,0.525-0.271,0.909c0,0.396,0.101,0.694,0.302,0.896s0.467,0.302,0.797,0.302
			c0.216,0,0.427-0.06,0.634-0.18s0.368-0.262,0.481-0.424v-0.152C253.637,249.982,253.244,249.42,252.458,249.42z"/>
	</g>
	<g>
		<path d="M266.097,254.866v-5.076l-1.035,0.207v-0.647l1.566-0.702h0.585v6.219H266.097z"/>
		<path d="M270.219,254.919c-0.354,0-0.698-0.042-1.031-0.126c-0.332-0.084-0.592-0.186-0.778-0.306l0.181-0.801
			c0.155,0.096,0.376,0.179,0.661,0.247c0.285,0.069,0.545,0.104,0.778,0.104c0.42,0,0.744-0.087,0.973-0.261
			c0.228-0.174,0.342-0.432,0.342-0.774c0-0.611-0.427-0.924-1.278-0.936l-0.639-0.019v-0.801l0.566-0.009
			c0.36-0.012,0.648-0.098,0.864-0.257c0.216-0.158,0.324-0.379,0.324-0.661c0-0.564-0.366-0.846-1.099-0.846
			c-0.407,0-0.846,0.107-1.313,0.323l-0.126-0.818c0.191-0.108,0.453-0.199,0.783-0.274s0.645-0.113,0.944-0.113
			c0.582,0,1.047,0.134,1.396,0.401c0.348,0.267,0.521,0.644,0.521,1.129c0,0.702-0.368,1.183-1.106,1.44
			c0.876,0.174,1.313,0.678,1.313,1.512c0,0.57-0.204,1.021-0.611,1.35C271.476,254.754,270.921,254.919,270.219,254.919z"/>
	</g>
	<line fill="none" stroke="#000000" stroke-miterlimit="10" x1="183.268" y1="30.683" x2="183.268" y2="232.167"/>
	<line fill="none" stroke="#000000" stroke-miterlimit="10" x1="187.341" y1="228.683" x2="178.681" y2="237.102"/>
	<polyline fill="none" stroke="#000000" stroke-miterlimit="10" points="187.341,232.893 182.997,236.8 178.681,240.683 	"/>
	<path fill="none" stroke="#000000" stroke-miterlimit="10" d="M183.268,241.457"/>
	<line fill="none" stroke="#000000" stroke-miterlimit="10" x1="180.713" y1="175.393" x2="183.268" y2="175.393"/>
	<line fill="none" stroke="#000000" stroke-miterlimit="10" x1="180.713" y1="117.328" x2="183.011" y2="117.328"/>
	<line fill="none" stroke="#000000" stroke-miterlimit="10" x1="180.713" y1="60.005" x2="183.011" y2="60.005"/>
	<g>
		<g>
			
				<line fill="none" stroke="#000000" stroke-width="0.9785" stroke-miterlimit="10" x1="248.455" y1="228.683" x2="248.455" y2="227.246"/>
			
				<line fill="none" stroke="#000000" stroke-width="0.9785" stroke-miterlimit="10" stroke-dasharray="2.8644,2.8644" x1="248.455" y1="224.382" x2="248.455" y2="31.036"/>
			
				<line fill="none" stroke="#000000" stroke-width="0.9785" stroke-miterlimit="10" x1="248.455" y1="29.604" x2="248.455" y2="28.167"/>
		</g>
	</g>
	<g>
		<path d="M225.524,267.402l-0.612,0.792c-0.342-0.21-0.688-0.53-1.039-0.963c-0.351-0.432-0.593-0.849-0.725-1.251
			c-0.132,0.456-0.381,0.911-0.747,1.364c-0.366,0.452-0.756,0.793-1.17,1.021l-0.639-0.774c1.326-0.858,1.989-2.091,1.989-3.699
			v-1.224h1.089v1.17C223.67,265.417,224.288,266.604,225.524,267.402z M227.181,270.012h-1.053v-8.019h1.053V270.012z"/>
		<path d="M232.364,262.605c-0.006,1.104-0.349,2.03-1.03,2.776c-0.681,0.747-1.543,1.253-2.587,1.517l-0.522-0.837
			c0.72-0.126,1.369-0.421,1.948-0.887c0.579-0.465,0.932-1.03,1.058-1.696h-2.601v-0.873H232.364z M234.804,269.778h-5.354v-2.583
			h1.062v1.746h4.293V269.778z M235.749,265.143h-1.144v2.655h-1.062v-5.805h1.062v2.285h1.144V265.143z"/>
	</g>
	<g>
		<path d="M233.459,4.23h-2.277v0.513h3.114v0.846h-7.245V4.743h3.078V4.23h-2.124V0.909h5.382v0.819h-4.329v0.45h4.059V2.97h-4.059
			v0.441h4.401V4.23z M232.779,6.269c0.465,0.255,0.697,0.598,0.697,1.03s-0.232,0.775-0.697,1.031
			c-0.465,0.255-1.166,0.382-2.102,0.382c-0.937,0-1.637-0.127-2.102-0.382c-0.465-0.255-0.697-0.599-0.697-1.031
			s0.232-0.775,0.697-1.03s1.162-0.383,2.093-0.383C231.61,5.886,232.314,6.014,232.779,6.269z M232.388,7.299
			c0-0.186-0.153-0.332-0.459-0.437c-0.307-0.105-0.727-0.157-1.26-0.157c-0.522,0-0.937,0.052-1.242,0.157
			c-0.307,0.105-0.459,0.25-0.459,0.437c0,0.18,0.152,0.321,0.459,0.423c0.306,0.103,0.72,0.153,1.242,0.153
			c0.533,0,0.953-0.051,1.26-0.153C232.234,7.62,232.388,7.479,232.388,7.299z"/>
		<path d="M242.081,4.446v0.828h-7.245V4.446H242.081z M241.712,3.168l-0.45,0.828c-0.588-0.048-1.145-0.213-1.67-0.495
			c-0.524-0.282-0.901-0.615-1.129-0.999c-0.198,0.396-0.556,0.73-1.071,1.003s-1.095,0.437-1.737,0.491l-0.432-0.81
			c0.642-0.03,1.204-0.169,1.688-0.418s0.793-0.572,0.932-0.968h-2.259V0.963h5.777V1.8h-2.25c0.15,0.39,0.479,0.708,0.985,0.954
			C240.604,3,241.142,3.138,241.712,3.168z M241.262,7.137c0,0.468-0.246,0.834-0.738,1.098s-1.179,0.396-2.061,0.396
			c-0.889,0-1.578-0.132-2.07-0.396s-0.738-0.63-0.738-1.098c0-0.456,0.246-0.816,0.738-1.08c0.492-0.264,1.179-0.396,2.062-0.396
			c0.882,0,1.57,0.132,2.065,0.396C241.015,6.321,241.262,6.681,241.262,7.137z M239.714,7.627c0.312-0.117,0.468-0.277,0.468-0.481
			s-0.156-0.365-0.468-0.481c-0.312-0.117-0.732-0.176-1.26-0.176c-0.522,0-0.938,0.059-1.247,0.176
			c-0.309,0.117-0.463,0.277-0.463,0.481s0.154,0.364,0.463,0.481c0.31,0.117,0.725,0.175,1.247,0.175
			C238.981,7.803,239.401,7.745,239.714,7.627z"/>
		<path d="M204.006,19.287c-0.486-0.456-0.885-1.002-1.197-1.638c-0.312-0.636-0.468-1.338-0.468-2.106v-0.162
			c0-0.768,0.156-1.469,0.468-2.102s0.711-1.178,1.197-1.634h0.891c-0.444,0.492-0.804,1.053-1.08,1.683
			c-0.276,0.63-0.414,1.287-0.414,1.971v0.252c0,0.678,0.141,1.349,0.423,2.011c0.282,0.663,0.639,1.238,1.071,1.724H204.006z"/>
		<path d="M205.446,18.351v-0.648l1.179-1.242c0.522-0.552,0.909-1.01,1.161-1.373c0.252-0.363,0.378-0.719,0.378-1.067
			c0-0.366-0.098-0.63-0.292-0.792c-0.195-0.162-0.494-0.243-0.896-0.243c-0.396,0-0.822,0.138-1.278,0.414l-0.18-0.819
			c0.534-0.312,1.119-0.468,1.755-0.468c0.666,0,1.173,0.153,1.521,0.459s0.522,0.741,0.522,1.305c0,0.258-0.046,0.517-0.139,0.778
			c-0.093,0.261-0.239,0.525-0.437,0.792c-0.198,0.267-0.371,0.483-0.518,0.648c-0.147,0.165-0.347,0.379-0.599,0.644l-0.729,0.747
			h2.475v0.864H205.446z"/>
		<path d="M212.844,18.45v-1.26h-2.835v-0.648l3.123-4.365h0.756v4.194h0.909v0.819h-0.909v1.26H212.844z M211.215,16.371h1.638
			v-2.322L211.215,16.371z"/>
		<path d="M220.323,16.821l-0.612,0.792c-0.342-0.21-0.688-0.531-1.039-0.963c-0.351-0.432-0.593-0.849-0.725-1.251
			c-0.132,0.456-0.381,0.91-0.747,1.363c-0.366,0.453-0.756,0.793-1.17,1.021l-0.639-0.774c1.326-0.858,1.989-2.091,1.989-3.699
			v-1.224h1.089v1.17C218.469,14.835,219.086,16.023,220.323,16.821z M221.979,19.431h-1.053v-8.019h1.053V19.431z"/>
		<path d="M227.163,12.024c-0.006,1.104-0.35,2.029-1.03,2.776c-0.682,0.747-1.544,1.252-2.588,1.517l-0.522-0.837
			c0.72-0.126,1.37-0.421,1.949-0.886s0.932-1.031,1.058-1.697h-2.602v-0.873H227.163z M229.603,19.197h-5.355v-2.583h1.062v1.746
			h4.293V19.197z M230.547,14.562h-1.143v2.655h-1.062v-5.805h1.062v2.286h1.143V14.562z"/>
		<path d="M237.783,15.003l0.09,0.81c-1.134,0.192-2.646,0.288-4.536,0.288l-0.144-0.873c0.414,0,0.734-0.003,0.963-0.009
			l-0.181-1.98l1.035-0.117l0.09,2.079l0.802-0.027l0.099-2.043l1.008,0.099l-0.188,1.89
			C237.204,15.09,237.524,15.051,237.783,15.003z M237.558,12.798h-4.131v-0.837h4.131V12.798z M239.934,17.856
			c0,0.474-0.25,0.846-0.751,1.116s-1.202,0.405-2.102,0.405c-0.895,0-1.592-0.135-2.093-0.405s-0.751-0.642-0.751-1.116
			c0-0.48,0.25-0.855,0.751-1.125c0.501-0.27,1.198-0.405,2.093-0.405c0.899,0,1.601,0.135,2.102,0.405
			C239.684,17,239.934,17.376,239.934,17.856z M238.827,17.856c0-0.216-0.154-0.386-0.464-0.509
			c-0.309-0.123-0.736-0.185-1.282-0.185c-0.54,0-0.966,0.062-1.278,0.185c-0.312,0.123-0.468,0.292-0.468,0.509
			c0,0.21,0.156,0.376,0.468,0.5c0.312,0.123,0.738,0.184,1.278,0.184c0.546,0,0.974-0.061,1.282-0.184
			C238.673,18.232,238.827,18.066,238.827,17.856z M239.916,16.308h-1.053v-1.413h-0.999v-0.792h0.999v-0.756h-0.999v-0.792h0.999
			v-1.143h1.053V16.308z"/>
		<path d="M247.386,11.771c0,1.332-0.084,2.331-0.252,2.997h1.179v0.837h-1.8v1.899h-1.044v-1.899h-1.044v1.899h-1.044v-1.899
			h-2.313v-0.837h5.049c0.156-0.612,0.229-1.335,0.217-2.169h-4.329v-0.828H247.386z M247.493,19.215h-5.508v-2.502h1.044v1.674
			h4.464V19.215z"/>
		<path d="M255.387,12.249c-0.066,2.556-1.261,4.467-3.582,5.733l-0.648-0.792c0.864-0.396,1.578-0.971,2.143-1.724
			c0.563-0.753,0.882-1.535,0.954-2.345h-2.61v-0.873H255.387z M257.853,19.431H256.8v-8.019h1.053V19.431z"/>
		<path d="M263.226,17.667h-1.044v-1.44h-3.177v-0.846h7.245v0.846h-3.024V17.667z M265.89,14.094l-0.45,0.828
			c-0.57-0.06-1.123-0.232-1.66-0.518s-0.92-0.617-1.147-0.995c-0.198,0.402-0.556,0.741-1.071,1.017s-1.095,0.441-1.737,0.495
			l-0.44-0.81c0.678-0.036,1.266-0.193,1.764-0.473c0.498-0.279,0.798-0.634,0.9-1.066h-2.295v-0.846h5.777v0.846h-2.295
			c0.078,0.282,0.262,0.54,0.549,0.774c0.288,0.234,0.618,0.413,0.99,0.536S265.518,14.076,265.89,14.094z M265.422,19.215h-5.544
			v-2.34h1.044v1.512h4.5V19.215z"/>
		<path d="M266.601,19.287c0.443-0.486,0.804-1.045,1.08-1.678c0.275-0.633,0.414-1.292,0.414-1.976v-0.261
			c0-0.672-0.14-1.341-0.419-2.007s-0.638-1.239-1.075-1.719h0.891c0.48,0.456,0.876,1.002,1.188,1.638
			c0.312,0.636,0.468,1.335,0.468,2.097v0.162c0,0.768-0.156,1.47-0.468,2.106c-0.312,0.636-0.708,1.182-1.188,1.638H266.601z"/>
	</g>
	<g>
		<path d="M172.342,44.812c-0.279,0.309-0.649,0.464-1.111,0.464s-0.831-0.147-1.107-0.441c-0.276-0.293-0.414-0.696-0.414-1.206
			v-0.117c0-0.522,0.138-0.936,0.414-1.242c0.276-0.306,0.645-0.459,1.107-0.459s0.833,0.144,1.111,0.432
			c0.279,0.288,0.419,0.687,0.419,1.197v0.135C172.761,44.091,172.622,44.503,172.342,44.812z M171.231,44.637
			c0.216,0,0.375-0.078,0.477-0.234c0.102-0.156,0.153-0.411,0.153-0.765V43.44c0-0.666-0.21-0.999-0.63-0.999
			c-0.414,0-0.621,0.33-0.621,0.99v0.198c0,0.354,0.051,0.61,0.153,0.77C170.865,44.557,171.021,44.637,171.231,44.637z
			 M170.781,48.426l4.212-6.687h0.819l-4.212,6.687H170.781z M175.461,48.156c-0.468,0-0.841-0.146-1.121-0.437
			c-0.279-0.291-0.418-0.694-0.418-1.21v-0.126c0-0.51,0.141-0.918,0.423-1.224c0.282-0.306,0.654-0.459,1.116-0.459
			s0.834,0.146,1.116,0.437c0.282,0.291,0.423,0.688,0.423,1.192v0.135c0,0.51-0.141,0.919-0.423,1.229
			C176.295,48.001,175.923,48.156,175.461,48.156z M174.988,47.274c0.099,0.156,0.257,0.234,0.473,0.234
			c0.216,0,0.375-0.077,0.477-0.229c0.102-0.153,0.153-0.403,0.153-0.751v-0.198c0-0.66-0.21-0.99-0.63-0.99
			c-0.414,0-0.621,0.327-0.621,0.981v0.198C174.84,46.866,174.89,47.118,174.988,47.274z"/>
	</g>
</g>
<g>
	<polyline fill="none" stroke="#E60013" stroke-width="2" stroke-miterlimit="10" points="349.971,126.876 359.519,118.36 
		368.293,104.941 385.842,95.393 402.874,73.973 411.132,98.231 420.164,133.328 428.422,131.264 436.939,133.328 	"/>
	<g>
		<path d="M333.115,235.728c-0.738,0-1.301-0.242-1.688-0.725c-0.388-0.483-0.581-1.153-0.581-2.012v-0.441
			c0-1.085,0.243-1.884,0.729-2.394c0.485-0.51,1.125-0.765,1.917-0.765c0.569,0,1.05,0.113,1.439,0.342l-0.216,0.81
			c-0.126-0.065-0.303-0.127-0.531-0.185c-0.228-0.057-0.438-0.085-0.63-0.085c-0.492,0-0.873,0.151-1.143,0.454
			c-0.271,0.304-0.427,0.83-0.469,1.58c0.42-0.36,0.9-0.54,1.44-0.54c0.546,0,0.988,0.163,1.327,0.49s0.509,0.778,0.509,1.354
			c0,0.612-0.186,1.117-0.558,1.517S333.774,235.728,333.115,235.728z M333.088,234.909c0.33,0,0.59-0.106,0.778-0.319
			c0.189-0.213,0.283-0.512,0.283-0.896c0-0.756-0.362-1.134-1.089-1.134c-0.21,0-0.417,0.06-0.621,0.18s-0.365,0.261-0.485,0.423
			v0.054C331.954,234.345,332.332,234.909,333.088,234.909z"/>
		<path d="M338.487,235.728c-0.72,0-1.299-0.245-1.736-0.733c-0.438-0.489-0.657-1.231-0.657-2.228v-0.388
			c0-0.533,0.064-0.999,0.193-1.395c0.129-0.396,0.308-0.708,0.535-0.937c0.229-0.228,0.481-0.396,0.761-0.504
			c0.279-0.107,0.584-0.162,0.914-0.162c0.701,0,1.273,0.24,1.714,0.721c0.441,0.479,0.662,1.229,0.662,2.25v0.387
			c0,1.021-0.223,1.773-0.666,2.259C339.763,235.485,339.189,235.728,338.487,235.728z M338.487,234.881
			c0.42,0,0.732-0.163,0.937-0.49s0.306-0.854,0.306-1.579v-0.459c0-1.41-0.411-2.115-1.232-2.115c-0.427,0-0.741,0.163-0.945,0.49
			s-0.306,0.848-0.306,1.562v0.478C337.246,234.177,337.659,234.881,338.487,234.881z"/>
	</g>
	<line fill="none" stroke="#000000" stroke-miterlimit="10" x1="350.728" y1="228.683" x2="342.068" y2="237.102"/>
	<polyline fill="none" stroke="#000000" stroke-miterlimit="10" points="350.728,232.893 346.384,236.8 342.068,240.683 	"/>
	<g>
		<g>
			
				<line fill="none" stroke="#000000" stroke-width="0.9785" stroke-miterlimit="10" x1="403.842" y1="228.683" x2="403.842" y2="227.246"/>
			
				<line fill="none" stroke="#000000" stroke-width="0.9785" stroke-miterlimit="10" stroke-dasharray="2.8644,2.8644" x1="403.842" y1="224.382" x2="403.842" y2="31.036"/>
			
				<line fill="none" stroke="#000000" stroke-width="0.9785" stroke-miterlimit="10" x1="403.842" y1="29.604" x2="403.842" y2="28.167"/>
		</g>
	</g>
	<g>
		<path d="M377.875,1.449c-0.066,2.556-1.261,4.467-3.582,5.733l-0.648-0.792c0.864-0.396,1.578-0.971,2.143-1.724
			c0.563-0.753,0.882-1.535,0.954-2.345h-2.61V1.449H377.875z M380.341,8.631h-1.053V0.612h1.053V8.631z"/>
		<path d="M388.738,5.031h-7.245V4.194h7.245V5.031z M387.91,7.092c0,0.462-0.246,0.828-0.738,1.098s-1.176,0.405-2.052,0.405
			s-1.561-0.135-2.052-0.405c-0.492-0.27-0.738-0.636-0.738-1.098c0-0.468,0.244-0.838,0.733-1.111s1.171-0.41,2.048-0.41
			c0.882,0,1.568,0.137,2.061,0.41S387.91,6.624,387.91,7.092z M387.847,3.501h-5.382V0.792h1.053v1.881h4.329V3.501z M386.83,7.101
			c0-0.21-0.156-0.376-0.468-0.5c-0.312-0.123-0.729-0.185-1.251-0.185c-0.522,0-0.937,0.062-1.242,0.185
			c-0.307,0.123-0.459,0.29-0.459,0.5c0,0.204,0.152,0.364,0.459,0.481c0.306,0.117,0.72,0.175,1.242,0.175
			c0.521,0,0.938-0.059,1.251-0.175C386.674,7.465,386.83,7.305,386.83,7.101z"/>
		<path d="M390.056,6.102c-0.368-0.522-0.553-1.212-0.553-2.07c0-0.858,0.185-1.551,0.553-2.079
			c0.369-0.528,0.875-0.792,1.517-0.792c0.648,0,1.157,0.264,1.525,0.792c0.369,0.528,0.554,1.221,0.554,2.079
			c0,0.852-0.185,1.541-0.554,2.066c-0.368,0.525-0.877,0.787-1.525,0.787C390.931,6.885,390.425,6.624,390.056,6.102z
			 M392.644,4.032c0-0.624-0.099-1.117-0.297-1.48c-0.198-0.363-0.456-0.544-0.774-0.544c-0.306,0-0.557,0.182-0.751,0.544
			c-0.195,0.363-0.293,0.857-0.293,1.48c0,0.618,0.098,1.107,0.293,1.467c0.194,0.36,0.445,0.54,0.751,0.54
			c0.318,0,0.576-0.18,0.774-0.54S392.644,4.65,392.644,4.032z M395.901,8.631h-1.044V0.612h1.044V8.631z"/>
		<path d="M401.778,4.113l-0.604,0.819c-0.336-0.126-0.678-0.341-1.025-0.644c-0.349-0.303-0.606-0.628-0.774-0.977
			c-0.114,0.39-0.353,0.757-0.715,1.103c-0.363,0.345-0.743,0.586-1.139,0.725l-0.64-0.837c0.595-0.21,1.067-0.543,1.418-0.999
			c0.351-0.456,0.526-0.981,0.526-1.575V0.972h1.08v0.693c0,0.588,0.185,1.101,0.554,1.539S401.269,3.945,401.778,4.113z
			 M403.425,7.011c0,0.498-0.242,0.893-0.729,1.184s-1.161,0.437-2.025,0.437c-0.857,0-1.528-0.146-2.011-0.437
			c-0.483-0.291-0.725-0.686-0.725-1.184c0-0.504,0.241-0.901,0.725-1.192c0.482-0.291,1.153-0.437,2.011-0.437
			c0.87,0,1.547,0.144,2.03,0.432C403.184,6.102,403.425,6.501,403.425,7.011z M400.671,6.219c-0.516,0-0.921,0.071-1.215,0.212
			c-0.294,0.141-0.44,0.334-0.44,0.58c0,0.24,0.145,0.429,0.437,0.567c0.291,0.138,0.697,0.207,1.219,0.207
			c0.528,0,0.94-0.069,1.238-0.207c0.297-0.138,0.445-0.327,0.445-0.567c0-0.246-0.148-0.439-0.445-0.58
			C401.611,6.29,401.199,6.219,400.671,6.219z M404.479,3.384h-1.144v1.917h-1.062V0.612h1.062V2.52h1.144V3.384z"/>
		<path d="M358.449,19.287c-0.486-0.456-0.886-1.002-1.197-1.638c-0.312-0.636-0.468-1.338-0.468-2.106v-0.162
			c0-0.768,0.155-1.469,0.468-2.102c0.312-0.633,0.711-1.178,1.197-1.634h0.891c-0.444,0.492-0.804,1.053-1.08,1.683
			s-0.414,1.287-0.414,1.971v0.252c0,0.678,0.141,1.349,0.423,2.011c0.282,0.663,0.64,1.238,1.071,1.724H358.449z"/>
		<path d="M359.889,18.351v-0.648l1.179-1.242c0.522-0.552,0.909-1.01,1.161-1.373c0.252-0.363,0.378-0.719,0.378-1.067
			c0-0.366-0.098-0.63-0.292-0.792c-0.195-0.162-0.494-0.243-0.896-0.243c-0.396,0-0.822,0.138-1.278,0.414l-0.18-0.819
			c0.533-0.312,1.119-0.468,1.755-0.468c0.666,0,1.173,0.153,1.521,0.459c0.349,0.306,0.522,0.741,0.522,1.305
			c0,0.258-0.047,0.517-0.14,0.778c-0.093,0.261-0.238,0.525-0.437,0.792s-0.37,0.483-0.518,0.648s-0.347,0.379-0.599,0.644
			l-0.729,0.747h2.475v0.864H359.889z"/>
		<path d="M367.286,18.45v-1.26h-2.835v-0.648l3.123-4.365h0.757v4.194h0.908v0.819h-0.908v1.26H367.286z M365.657,16.371h1.639
			v-2.322L365.657,16.371z"/>
		<path d="M374.766,16.821l-0.612,0.792c-0.342-0.21-0.688-0.531-1.039-0.963c-0.352-0.432-0.593-0.849-0.725-1.251
			c-0.133,0.456-0.382,0.91-0.747,1.363c-0.366,0.453-0.756,0.793-1.17,1.021l-0.64-0.774c1.326-0.858,1.989-2.091,1.989-3.699
			v-1.224h1.089v1.17C372.911,14.835,373.529,16.023,374.766,16.821z M376.421,19.431h-1.053v-8.019h1.053V19.431z"/>
		<path d="M381.605,12.024c-0.006,1.104-0.35,2.029-1.03,2.776c-0.682,0.747-1.544,1.252-2.588,1.517l-0.521-0.837
			c0.72-0.126,1.369-0.421,1.948-0.886s0.932-1.031,1.058-1.697h-2.602v-0.873H381.605z M384.045,19.197h-5.355v-2.583h1.062v1.746
			h4.293V19.197z M384.989,14.562h-1.143v2.655h-1.062v-5.805h1.062v2.286h1.143V14.562z"/>
		<path d="M392.226,15.003l0.09,0.81c-1.134,0.192-2.646,0.288-4.536,0.288l-0.144-0.873c0.414,0,0.734-0.003,0.963-0.009
			l-0.181-1.98l1.035-0.117l0.09,2.079l0.802-0.027l0.099-2.043l1.008,0.099l-0.188,1.89
			C391.646,15.09,391.967,15.051,392.226,15.003z M392,12.798h-4.131v-0.837H392V12.798z M394.376,17.856
			c0,0.474-0.25,0.846-0.751,1.116s-1.202,0.405-2.102,0.405c-0.895,0-1.592-0.135-2.093-0.405s-0.751-0.642-0.751-1.116
			c0-0.48,0.25-0.855,0.751-1.125c0.501-0.27,1.198-0.405,2.093-0.405c0.899,0,1.601,0.135,2.102,0.405
			C394.126,17,394.376,17.376,394.376,17.856z M393.27,17.856c0-0.216-0.154-0.386-0.464-0.509
			c-0.309-0.123-0.736-0.185-1.282-0.185c-0.54,0-0.966,0.062-1.278,0.185c-0.312,0.123-0.468,0.292-0.468,0.509
			c0,0.21,0.156,0.376,0.468,0.5c0.312,0.123,0.738,0.184,1.278,0.184c0.546,0,0.974-0.061,1.282-0.184
			C393.115,18.232,393.27,18.066,393.27,17.856z M394.358,16.308h-1.053v-1.413h-0.999v-0.792h0.999v-0.756h-0.999v-0.792h0.999
			v-1.143h1.053V16.308z"/>
		<path d="M401.828,11.771c0,1.332-0.084,2.331-0.252,2.997h1.179v0.837h-1.8v1.899h-1.044v-1.899h-1.044v1.899h-1.044v-1.899
			h-2.313v-0.837h5.049c0.156-0.612,0.229-1.335,0.217-2.169h-4.329v-0.828H401.828z M401.936,19.215h-5.508v-2.502h1.044v1.674
			h4.464V19.215z"/>
		<path d="M409.829,12.249c-0.066,2.556-1.261,4.467-3.582,5.733l-0.648-0.792c0.864-0.396,1.578-0.971,2.143-1.724
			c0.563-0.753,0.882-1.535,0.954-2.345h-2.61v-0.873H409.829z M412.295,19.431h-1.053v-8.019h1.053V19.431z"/>
		<path d="M417.668,17.667h-1.044v-1.44h-3.177v-0.846h7.245v0.846h-3.024V17.667z M420.332,14.094l-0.45,0.828
			c-0.57-0.06-1.123-0.232-1.66-0.518s-0.92-0.617-1.147-0.995c-0.198,0.402-0.556,0.741-1.071,1.017s-1.095,0.441-1.737,0.495
			l-0.44-0.81c0.678-0.036,1.266-0.193,1.764-0.473c0.498-0.279,0.798-0.634,0.9-1.066h-2.295v-0.846h5.777v0.846h-2.295
			c0.078,0.282,0.262,0.54,0.549,0.774c0.288,0.234,0.618,0.413,0.99,0.536S419.96,14.076,420.332,14.094z M419.864,19.215h-5.544
			v-2.34h1.044v1.512h4.5V19.215z"/>
		<path d="M421.043,19.287c0.443-0.486,0.804-1.045,1.08-1.678c0.275-0.633,0.414-1.292,0.414-1.976v-0.261
			c0-0.672-0.14-1.341-0.419-2.007s-0.638-1.239-1.075-1.719h0.891c0.48,0.456,0.876,1.002,1.188,1.638
			c0.312,0.636,0.468,1.335,0.468,2.097v0.162c0,0.768-0.156,1.47-0.468,2.106c-0.312,0.636-0.708,1.182-1.188,1.638H421.043z"/>
	</g>
	<g>
		<path d="M409.471,226.07h-39.194c-1.309,0-2.371-1.062-2.371-2.371l0,0c0-1.309,1.062-2.371,2.371-2.371h39.194
			c1.309,0,2.371,1.062,2.371,2.371l0,0C411.842,225.008,410.781,226.07,409.471,226.07z"/>
		<line fill="none" stroke="#000000" stroke-miterlimit="10" x1="344.1" y1="242.231" x2="444.939" y2="242.231"/>
		<line fill="none" stroke="#000000" stroke-miterlimit="10" x1="444.397" y1="242.715" x2="444.397" y2="246.489"/>
		<line fill="none" stroke="#000000" stroke-miterlimit="10" x1="440.325" y1="242.715" x2="440.325" y2="246.489"/>
		<line fill="none" stroke="#000000" stroke-miterlimit="10" x1="436.252" y1="242.715" x2="436.252" y2="246.489"/>
		<line fill="none" stroke="#000000" stroke-miterlimit="10" x1="432.179" y1="242.715" x2="432.179" y2="246.489"/>
		<line fill="none" stroke="#000000" stroke-miterlimit="10" x1="428.107" y1="242.715" x2="428.107" y2="246.489"/>
		<line fill="none" stroke="#000000" stroke-miterlimit="10" x1="424.034" y1="242.715" x2="424.034" y2="246.489"/>
		<line fill="none" stroke="#000000" stroke-miterlimit="10" x1="419.962" y1="242.715" x2="419.962" y2="246.489"/>
		<line fill="none" stroke="#000000" stroke-miterlimit="10" x1="415.889" y1="242.715" x2="415.889" y2="246.489"/>
		<line fill="none" stroke="#000000" stroke-miterlimit="10" x1="411.816" y1="242.715" x2="411.816" y2="246.489"/>
		<line fill="none" stroke="#000000" stroke-miterlimit="10" x1="407.744" y1="242.715" x2="407.744" y2="246.489"/>
		<line fill="none" stroke="#000000" stroke-miterlimit="10" x1="403.671" y1="242.715" x2="403.671" y2="246.489"/>
		<line fill="none" stroke="#000000" stroke-miterlimit="10" x1="399.599" y1="242.715" x2="399.599" y2="246.489"/>
		<line fill="none" stroke="#000000" stroke-miterlimit="10" x1="395.526" y1="242.715" x2="395.526" y2="246.489"/>
		<line fill="none" stroke="#000000" stroke-miterlimit="10" x1="391.454" y1="242.715" x2="391.454" y2="246.489"/>
		<line fill="none" stroke="#000000" stroke-miterlimit="10" x1="387.381" y1="242.715" x2="387.381" y2="246.489"/>
		<line fill="none" stroke="#000000" stroke-miterlimit="10" x1="383.308" y1="242.715" x2="383.308" y2="246.489"/>
		<line fill="none" stroke="#000000" stroke-miterlimit="10" x1="379.236" y1="242.715" x2="379.236" y2="246.489"/>
		<line fill="none" stroke="#000000" stroke-miterlimit="10" x1="375.163" y1="242.715" x2="375.163" y2="246.489"/>
		<line fill="none" stroke="#000000" stroke-miterlimit="10" x1="371.091" y1="242.715" x2="371.091" y2="246.489"/>
		<line fill="none" stroke="#000000" stroke-miterlimit="10" x1="367.018" y1="242.715" x2="367.018" y2="246.489"/>
		<line fill="none" stroke="#000000" stroke-miterlimit="10" x1="362.945" y1="242.715" x2="362.945" y2="246.489"/>
		<line fill="none" stroke="#000000" stroke-miterlimit="10" x1="358.873" y1="242.715" x2="358.873" y2="246.489"/>
		<line fill="none" stroke="#000000" stroke-miterlimit="10" x1="354.8" y1="242.715" x2="354.8" y2="246.489"/>
		<line fill="none" stroke="#000000" stroke-miterlimit="10" x1="350.728" y1="242.715" x2="350.728" y2="246.489"/>
		<line fill="none" stroke="#000000" stroke-miterlimit="10" x1="346.655" y1="242.715" x2="346.655" y2="246.489"/>
		<g>
			<path d="M347.316,254.866v-5.076l-1.035,0.207v-0.647l1.566-0.702h0.585v6.219H347.316z"/>
			<path d="M350.205,254.83l2.25-5.256h-2.799v-0.873h3.996v0.657l-2.223,5.472H350.205z"/>
		</g>
		<g>
			<path d="M334.622,177.342c-0.417,0.33-0.985,0.495-1.706,0.495c-0.72,0-1.282-0.15-1.688-0.45
				c-0.404-0.3-0.607-0.705-0.607-1.215c0-0.366,0.12-0.688,0.36-0.963c0.24-0.276,0.543-0.486,0.909-0.63
				c-0.727-0.33-1.089-0.822-1.089-1.477c0-0.479,0.191-0.868,0.576-1.165c0.384-0.297,0.896-0.446,1.538-0.446
				c0.648,0,1.158,0.136,1.53,0.405c0.372,0.271,0.559,0.646,0.559,1.125c0,0.618-0.375,1.107-1.125,1.467
				c0.911,0.307,1.367,0.825,1.367,1.558C335.247,176.581,335.039,177.012,334.622,177.342z M331.994,176.775
				c0.219,0.168,0.518,0.252,0.896,0.252s0.68-0.082,0.904-0.247s0.338-0.383,0.338-0.652c0-0.307-0.113-0.551-0.338-0.733
				c-0.225-0.184-0.577-0.338-1.058-0.464c-0.3,0.103-0.554,0.255-0.761,0.459s-0.311,0.436-0.311,0.693
				C331.665,176.376,331.774,176.607,331.994,176.775z M333.069,174.121c0.594-0.246,0.892-0.586,0.892-1.018
				c0-0.24-0.088-0.435-0.262-0.585c-0.174-0.149-0.429-0.225-0.765-0.225c-0.318,0-0.568,0.07-0.752,0.211
				c-0.183,0.142-0.274,0.332-0.274,0.571C331.908,173.581,332.296,173.928,333.069,174.121z"/>
			<path d="M338.487,177.837c-0.72,0-1.299-0.245-1.737-0.733c-0.438-0.489-0.657-1.231-0.657-2.228v-0.388
				c0-0.533,0.064-0.999,0.194-1.395c0.129-0.396,0.307-0.708,0.535-0.937c0.228-0.228,0.481-0.396,0.761-0.504
				c0.278-0.107,0.583-0.162,0.913-0.162c0.702,0,1.273,0.24,1.715,0.721c0.44,0.479,0.661,1.229,0.661,2.25v0.387
				c0,1.021-0.222,1.773-0.666,2.259C339.762,177.594,339.189,177.837,338.487,177.837z M338.487,176.991
				c0.42,0,0.731-0.163,0.936-0.49s0.307-0.854,0.307-1.579v-0.459c0-1.41-0.411-2.115-1.233-2.115c-0.426,0-0.741,0.163-0.945,0.49
				s-0.306,0.848-0.306,1.562v0.478C337.245,176.287,337.659,176.991,338.487,176.991z"/>
		</g>
		<g>
			<path d="M327.796,120.893v-5.076l-1.035,0.207v-0.647l1.566-0.702h0.585v6.219H327.796z"/>
			<path d="M332.674,120.965c-0.72,0-1.299-0.245-1.737-0.733c-0.438-0.489-0.657-1.231-0.657-2.228v-0.388
				c0-0.533,0.064-0.999,0.194-1.395c0.129-0.396,0.307-0.708,0.535-0.937c0.228-0.228,0.481-0.396,0.761-0.504
				c0.278-0.107,0.583-0.162,0.913-0.162c0.702,0,1.273,0.24,1.715,0.721c0.44,0.479,0.661,1.229,0.661,2.25v0.387
				c0,1.021-0.222,1.773-0.666,2.259C333.948,120.722,333.376,120.965,332.674,120.965z M332.674,120.119
				c0.42,0,0.731-0.163,0.936-0.49s0.307-0.854,0.307-1.579v-0.459c0-1.41-0.411-2.115-1.233-2.115c-0.426,0-0.741,0.163-0.945,0.49
				s-0.306,0.848-0.306,1.562v0.478C331.432,119.415,331.846,120.119,332.674,120.119z"/>
			<path d="M338.487,120.965c-0.72,0-1.299-0.245-1.736-0.733c-0.438-0.489-0.657-1.231-0.657-2.228v-0.388
				c0-0.533,0.064-0.999,0.193-1.395c0.129-0.396,0.308-0.708,0.535-0.937c0.229-0.228,0.481-0.396,0.761-0.504
				c0.279-0.107,0.584-0.162,0.914-0.162c0.701,0,1.273,0.24,1.714,0.721c0.441,0.479,0.662,1.229,0.662,2.25v0.387
				c0,1.021-0.223,1.773-0.666,2.259C339.763,120.722,339.189,120.965,338.487,120.965z M338.487,120.119
				c0.42,0,0.732-0.163,0.937-0.49s0.306-0.854,0.306-1.579v-0.459c0-1.41-0.411-2.115-1.232-2.115c-0.427,0-0.741,0.163-0.945,0.49
				s-0.306,0.848-0.306,1.562v0.478C337.246,119.415,337.659,120.119,338.487,120.119z"/>
		</g>
		<g>
			<path d="M327.796,63.018v-5.076l-1.035,0.207v-0.647l1.566-0.702h0.585v6.219H327.796z"/>
			<path d="M330.262,62.981v-0.647l1.179-1.242c0.522-0.552,0.909-1.01,1.161-1.373c0.252-0.362,0.378-0.718,0.378-1.066
				c0-0.365-0.098-0.63-0.292-0.792c-0.195-0.162-0.494-0.243-0.896-0.243c-0.396,0-0.822,0.139-1.278,0.414l-0.18-0.818
				c0.533-0.312,1.119-0.469,1.755-0.469c0.666,0,1.173,0.153,1.521,0.459c0.349,0.307,0.522,0.741,0.522,1.306
				c0,0.258-0.047,0.518-0.14,0.778s-0.238,0.525-0.437,0.792s-0.37,0.483-0.518,0.648s-0.347,0.379-0.599,0.643l-0.729,0.747h2.475
				v0.864H330.262z"/>
			<path d="M337.488,63.09c-0.72,0-1.299-0.245-1.736-0.733c-0.438-0.489-0.657-1.231-0.657-2.228v-0.388
				c0-0.533,0.064-0.999,0.193-1.395c0.129-0.396,0.308-0.708,0.535-0.937c0.229-0.228,0.481-0.396,0.761-0.504
				c0.279-0.107,0.584-0.162,0.914-0.162c0.701,0,1.273,0.24,1.714,0.721c0.441,0.479,0.662,1.229,0.662,2.25v0.387
				c0,1.021-0.223,1.773-0.666,2.259C338.764,62.847,338.19,63.09,337.488,63.09z M337.488,62.243c0.42,0,0.732-0.163,0.937-0.49
				s0.306-0.854,0.306-1.579v-0.459c0-1.41-0.411-2.115-1.232-2.115c-0.427,0-0.741,0.163-0.945,0.49s-0.306,0.848-0.306,1.562
				v0.478C336.247,61.539,336.66,62.243,337.488,62.243z"/>
		</g>
		<g>
			<path d="M362.762,254.83v-0.647l1.179-1.242c0.522-0.552,0.909-1.01,1.161-1.373c0.252-0.362,0.378-0.718,0.378-1.066
				c0-0.365-0.098-0.63-0.292-0.792c-0.195-0.162-0.494-0.243-0.896-0.243c-0.396,0-0.822,0.139-1.278,0.414l-0.18-0.818
				c0.533-0.312,1.119-0.469,1.755-0.469c0.666,0,1.173,0.153,1.521,0.459c0.349,0.307,0.522,0.741,0.522,1.306
				c0,0.258-0.047,0.518-0.14,0.778s-0.238,0.525-0.437,0.792s-0.37,0.483-0.518,0.648s-0.347,0.379-0.599,0.643l-0.729,0.747h2.475
				v0.864H362.762z"/>
			<path d="M368.485,254.866v-5.076l-1.035,0.207v-0.647l1.566-0.702h0.585v6.219H368.485z"/>
		</g>
		<g>
			<path d="M382.548,254.866v-5.076l-1.035,0.207v-0.647l1.566-0.702h0.585v6.219H382.548z"/>
		</g>
		<g>
			<path d="M399.947,254.919c-0.708,0-1.293-0.141-1.755-0.423l0.198-0.846c0.414,0.246,0.84,0.369,1.277,0.369
				c0.433,0,0.77-0.101,1.013-0.302s0.364-0.487,0.364-0.859c0-0.738-0.443-1.107-1.332-1.107c-0.39,0-0.807,0.111-1.251,0.333
				l0.226-3.393h3.222v0.864h-2.376l-0.117,1.503c0.276-0.072,0.534-0.108,0.774-0.108c0.63,0,1.12,0.162,1.472,0.486
				c0.351,0.323,0.526,0.807,0.526,1.448c0,0.589-0.203,1.074-0.607,1.458C401.176,254.728,400.631,254.919,399.947,254.919z"/>
		</g>
		<g>
			<path d="M415.818,248.602c0.738,0,1.307,0.233,1.705,0.702c0.399,0.468,0.599,1.137,0.599,2.007v0.414
				c0,2.142-0.864,3.213-2.592,3.213c-0.57,0-1.071-0.129-1.503-0.388l0.188-0.81c0.139,0.078,0.33,0.148,0.576,0.212
				c0.246,0.062,0.471,0.094,0.675,0.094c0.492,0,0.87-0.139,1.135-0.418c0.264-0.279,0.407-0.784,0.432-1.517
				c-0.402,0.366-0.885,0.549-1.449,0.549c-0.534,0-0.974-0.174-1.318-0.521c-0.345-0.349-0.518-0.813-0.518-1.396
				c0-0.63,0.18-1.145,0.54-1.543C414.648,248.801,415.158,248.602,415.818,248.602z M415.846,249.42
				c-0.33,0-0.586,0.111-0.766,0.333c-0.18,0.223-0.27,0.525-0.27,0.909c0,0.396,0.1,0.694,0.301,0.896s0.467,0.302,0.797,0.302
				c0.216,0,0.428-0.06,0.635-0.18s0.367-0.262,0.481-0.424v-0.152C417.024,249.982,416.631,249.42,415.846,249.42z"/>
		</g>
		<g>
			<path d="M429.483,254.866v-5.076l-1.035,0.207v-0.647l1.566-0.702h0.585v6.219H429.483z"/>
			<path d="M433.605,254.919c-0.354,0-0.697-0.042-1.031-0.126c-0.332-0.084-0.592-0.186-0.777-0.306l0.18-0.801
				c0.156,0.096,0.377,0.179,0.662,0.247c0.284,0.069,0.544,0.104,0.777,0.104c0.42,0,0.744-0.087,0.973-0.261
				c0.228-0.174,0.342-0.432,0.342-0.774c0-0.611-0.426-0.924-1.277-0.936l-0.64-0.019v-0.801l0.567-0.009
				c0.359-0.012,0.647-0.098,0.863-0.257c0.217-0.158,0.324-0.379,0.324-0.661c0-0.564-0.365-0.846-1.098-0.846
				c-0.408,0-0.846,0.107-1.314,0.323l-0.126-0.818c0.192-0.108,0.453-0.199,0.783-0.274s0.646-0.113,0.944-0.113
				c0.582,0,1.047,0.134,1.396,0.401c0.349,0.267,0.522,0.644,0.522,1.129c0,0.702-0.369,1.183-1.107,1.44
				c0.876,0.174,1.314,0.678,1.314,1.512c0,0.57-0.205,1.021-0.612,1.35C434.862,254.754,434.308,254.919,433.605,254.919z"/>
		</g>
		<line fill="none" stroke="#000000" stroke-miterlimit="10" x1="346.655" y1="30.683" x2="346.655" y2="232.167"/>
		<path fill="none" stroke="#000000" stroke-miterlimit="10" d="M346.655,241.457"/>
		<line fill="none" stroke="#000000" stroke-miterlimit="10" x1="344.1" y1="175.393" x2="346.655" y2="175.393"/>
		<line fill="none" stroke="#000000" stroke-miterlimit="10" x1="344.1" y1="117.328" x2="346.398" y2="117.328"/>
		<line fill="none" stroke="#000000" stroke-miterlimit="10" x1="344.1" y1="60.005" x2="346.398" y2="60.005"/>
		<g>
			<path d="M386.76,267.402l-0.612,0.792c-0.342-0.21-0.688-0.53-1.039-0.963c-0.351-0.432-0.593-0.849-0.725-1.251
				c-0.132,0.456-0.381,0.911-0.747,1.364c-0.366,0.452-0.756,0.793-1.17,1.021l-0.639-0.774c1.326-0.858,1.989-2.091,1.989-3.699
				v-1.224h1.089v1.17C384.906,265.417,385.523,266.604,386.76,267.402z M388.416,270.012h-1.053v-8.019h1.053V270.012z"/>
			<path d="M393.6,262.605c-0.006,1.104-0.349,2.03-1.03,2.776c-0.681,0.747-1.543,1.253-2.587,1.517l-0.522-0.837
				c0.72-0.126,1.369-0.421,1.948-0.887c0.579-0.465,0.932-1.03,1.058-1.696h-2.601v-0.873H393.6z M396.039,269.778h-5.354v-2.583
				h1.062v1.746h4.293V269.778z M396.984,265.143h-1.144v2.655h-1.062v-5.805h1.062v2.285h1.144V265.143z"/>
		</g>
		<g>
			<path d="M336.247,44.812c-0.279,0.309-0.649,0.464-1.111,0.464s-0.831-0.147-1.107-0.441c-0.275-0.293-0.414-0.696-0.414-1.206
				v-0.117c0-0.522,0.139-0.936,0.414-1.242c0.276-0.306,0.646-0.459,1.107-0.459s0.832,0.144,1.111,0.432s0.419,0.687,0.419,1.197
				v0.135C336.666,44.091,336.526,44.503,336.247,44.812z M335.136,44.637c0.216,0,0.375-0.078,0.477-0.234
				c0.103-0.156,0.153-0.411,0.153-0.765V43.44c0-0.666-0.21-0.999-0.63-0.999c-0.414,0-0.621,0.33-0.621,0.99v0.198
				c0,0.354,0.051,0.61,0.153,0.77C334.77,44.557,334.926,44.637,335.136,44.637z M334.686,48.426l4.212-6.687h0.819l-4.212,6.687
				H334.686z M339.365,48.156c-0.468,0-0.841-0.146-1.12-0.437s-0.419-0.694-0.419-1.21v-0.126c0-0.51,0.142-0.918,0.424-1.224
				c0.281-0.306,0.653-0.459,1.115-0.459s0.834,0.146,1.116,0.437s0.423,0.688,0.423,1.192v0.135c0,0.51-0.141,0.919-0.423,1.229
				S339.827,48.156,339.365,48.156z M338.893,47.274c0.1,0.156,0.257,0.234,0.473,0.234c0.217,0,0.375-0.077,0.478-0.229
				c0.102-0.153,0.152-0.403,0.152-0.751v-0.198c0-0.66-0.21-0.99-0.63-0.99c-0.414,0-0.621,0.327-0.621,0.981v0.198
				C338.744,46.866,338.794,47.118,338.893,47.274z"/>
		</g>
	</g>
</g>
<g>
</g>
<g>
</g>
<g>
</g>
<g>
</g>
<g>
</g>
<g>
</g>
</svg>
