<?xml version="1.0" encoding="utf-8"?>
<!-- Generator: Adobe Illustrator 28.0.0, SVG Export Plug-In . SVG Version: 6.00 Build 0)  -->
<svg version="1.1" id="레이어_1" xmlns="http://www.w3.org/2000/svg" xmlns:xlink="http://www.w3.org/1999/xlink" x="0px"
	 y="0px" viewBox="0 0 465.721 427.305" enable-background="new 0 0 465.721 427.305" xml:space="preserve">
<path fill="none" stroke="#000000" stroke-miterlimit="10" d="M248.153,427.305"/>
<g>
	<line fill="none" stroke="#000000" stroke-miterlimit="10" x1="7.534" y1="1.527" x2="7.534" y2="362.486"/>
	<line fill="none" stroke="#000000" stroke-miterlimit="10" x1="0" y1="192.623" x2="436.986" y2="192.623"/>
	<path fill="none" stroke="#000000" stroke-miterlimit="10" d="M7.534,193.582c0,0,27.066-141.91,80.826-85.224
		c53.76,56.686,91.207,166.93,158.315,166.93s112.341-85.615,189.459-80.924"/>
	<g>
		<path d="M34.836,0.691v7.814h-1.98v-1.41h-3.09c-0.66,0.645-1.59,1.02-2.67,1.02c-2.04,0-3.629-1.395-3.629-3.36
			c0-1.95,1.59-3.36,3.629-3.36c1.095,0,2.025,0.39,2.7,1.05h3.06v-1.77L34.836,0.691z M28.866,4.755c0-1.05-0.75-1.68-1.77-1.68
			c-1.02,0-1.755,0.63-1.755,1.68c0,1.08,0.735,1.71,1.755,1.71C28.116,6.465,28.866,5.835,28.866,4.755z M25.642,9.12h9.194v5.205
			h-9.194V9.12z M27.591,12.78h5.31v-2.115h-5.31V12.78z M32.856,5.505V4.021h-2.205c0.06,0.225,0.09,0.48,0.09,0.735
			c0,0.255-0.03,0.51-0.09,0.75H32.856z"/>
		<path d="M49.566,7.05v1.56H37.086V7.05H49.566z M37.626,4.98c2.61-0.225,3.96-1.14,4.275-2.085h-3.675V1.321h10.214v1.575h-3.69
			c0.315,0.945,1.665,1.86,4.29,2.085l-0.69,1.545c-2.595-0.24-4.305-1.2-5.025-2.52c-0.735,1.32-2.43,2.28-5.04,2.52L37.626,4.98z
			 M48.096,11.925c0,1.635-1.814,2.58-4.8,2.58c-2.985,0-4.785-0.945-4.785-2.58c0-1.62,1.8-2.565,4.785-2.565
			C46.281,9.36,48.096,10.305,48.096,11.925z M46.086,11.925c0-0.72-0.945-1.035-2.79-1.035c-1.845,0-2.79,0.315-2.79,1.035
			c0,0.72,0.945,1.05,2.79,1.05C45.141,12.975,46.086,12.645,46.086,11.925z"/>
		<path d="M57.906,8.686h-6.615v-7.02h1.95V3.63h2.715V1.666h1.95V8.686z M54.831,12.675h7.425v1.575h-9.405V9.84h1.98V12.675z
			 M55.956,5.161h-2.715v1.965h2.715V5.161z M63.591,4.576v1.62h-1.83v4.65h-1.98V0.676h1.98v3.9H63.591z"/>
		<path d="M77.166,7.125v1.56H64.686v-1.56H77.166z M75.936,3.676c0,1.695-1.965,2.715-5.01,2.715c-3.03,0-4.995-1.02-4.995-2.715
			c0-1.665,1.965-2.7,4.995-2.7C73.971,0.976,75.936,2.011,75.936,3.676z M75.695,11.97c0,1.62-1.814,2.535-4.8,2.535
			c-2.985,0-4.785-0.915-4.785-2.535s1.8-2.535,4.785-2.535C73.881,9.436,75.695,10.35,75.695,11.97z M67.971,3.676
			c0,0.81,1.08,1.2,2.955,1.2c1.89,0,2.97-0.39,2.97-1.2c0-0.78-1.08-1.185-2.97-1.185C69.051,2.491,67.971,2.896,67.971,3.676z
			 M68.106,11.97c0,0.72,0.945,1.035,2.79,1.035c1.845,0,2.79-0.315,2.79-1.035c0-0.705-0.945-1.035-2.79-1.035
			C69.051,10.935,68.106,11.265,68.106,11.97z"/>
	</g>
	<g>
		<path d="M27.083,287.207h-8.129v-1.545h3.06v-1.409h1.995v1.409h3.075V287.207z M23.018,292.592c-1.995,0-3.39-0.989-3.39-2.46
			c0-1.47,1.395-2.475,3.39-2.475c1.995,0,3.39,1.005,3.39,2.475C26.408,291.603,25.013,292.592,23.018,292.592z M29.962,295.712
			c0,1.529-1.785,2.445-4.635,2.445c-2.85,0-4.635-0.916-4.635-2.445c0-1.545,1.785-2.46,4.635-2.46
			C28.178,293.252,29.962,294.167,29.962,295.712z M23.018,291.167c0.885,0,1.5-0.359,1.5-1.035c0-0.675-0.615-1.035-1.5-1.035
			c-0.885,0-1.5,0.36-1.5,1.035C21.518,290.808,22.133,291.167,23.018,291.167z M27.998,295.712c0-0.676-0.93-0.975-2.67-0.975
			c-1.74,0-2.67,0.299-2.67,0.975c0,0.66,0.93,0.975,2.67,0.975C27.068,296.687,27.998,296.372,27.998,295.712z M31.658,287.867
			v1.62h-1.83v3.615h-1.98v-8.745h1.98v3.51H31.658z"/>
		<path d="M44.302,284.357v7.814h-1.98v-1.41h-3.09c-0.66,0.646-1.59,1.021-2.67,1.021c-2.04,0-3.629-1.395-3.629-3.36
			c0-1.95,1.59-3.36,3.629-3.36c1.095,0,2.025,0.391,2.7,1.051h3.06v-1.77L44.302,284.357z M38.333,288.422
			c0-1.05-0.75-1.68-1.77-1.68c-1.02,0-1.755,0.63-1.755,1.68c0,1.08,0.735,1.71,1.755,1.71
			C37.583,290.132,38.333,289.502,38.333,288.422z M35.108,292.786h9.194v5.205h-9.194V292.786z M37.058,296.446h5.31v-2.114h-5.31
			V296.446z M42.322,289.172v-1.485h-2.205c0.06,0.226,0.09,0.48,0.09,0.735s-0.03,0.511-0.09,0.75H42.322z"/>
		<path d="M59.032,290.717v1.56H46.553v-1.56H59.032z M47.093,288.647c2.61-0.226,3.96-1.141,4.275-2.086h-3.675v-1.574h10.214
			v1.574h-3.69c0.315,0.945,1.665,1.86,4.29,2.086l-0.69,1.545c-2.595-0.24-4.305-1.2-5.025-2.521c-0.735,1.32-2.43,2.28-5.04,2.521
			L47.093,288.647z M57.562,295.592c0,1.635-1.814,2.58-4.8,2.58c-2.985,0-4.785-0.945-4.785-2.58c0-1.62,1.8-2.565,4.785-2.565
			C55.748,293.026,57.562,293.972,57.562,295.592z M55.552,295.592c0-0.72-0.945-1.035-2.79-1.035c-1.845,0-2.79,0.315-2.79,1.035
			s0.945,1.05,2.79,1.05C54.607,296.642,55.552,296.312,55.552,295.592z"/>
		<path d="M71.572,292.353h-6.615v-7.021h1.95v1.965h2.715v-1.965h1.95V292.353z M68.498,296.342h7.425v1.575h-9.405v-4.41h1.98
			V296.342z M69.623,288.827h-2.715v1.965h2.715V288.827z M77.257,288.242v1.62h-1.83v4.649h-1.98v-10.169h1.98v3.899H77.257z"/>
		<path d="M90.832,290.792v1.561H78.353v-1.561H90.832z M89.602,287.343c0,1.694-1.965,2.715-5.01,2.715
			c-3.03,0-4.995-1.021-4.995-2.715c0-1.666,1.965-2.701,4.995-2.701C87.637,284.642,89.602,285.677,89.602,287.343z
			 M89.362,295.637c0,1.62-1.814,2.535-4.8,2.535c-2.985,0-4.785-0.915-4.785-2.535s1.8-2.534,4.785-2.534
			C87.547,293.103,89.362,294.017,89.362,295.637z M81.637,287.343c0,0.809,1.08,1.199,2.955,1.199c1.89,0,2.97-0.391,2.97-1.199
			c0-0.781-1.08-1.186-2.97-1.186C82.717,286.157,81.637,286.562,81.637,287.343z M81.772,295.637c0,0.72,0.945,1.035,2.79,1.035
			c1.845,0,2.79-0.315,2.79-1.035c0-0.705-0.945-1.035-2.79-1.035C82.717,294.602,81.772,294.932,81.772,295.637z"/>
	</g>
	<path fill="#2EA7E0" stroke="#000000" stroke-miterlimit="10" d="M149.371,194.1c28.299,42.939,57.506,81.069,96.972,81.069
		c63.102,0,107.622-77.227,176.825-82.546C381.857,192.981,253.476,194.024,149.371,194.1z"/>
	<g>
		<path fill="#EA5515" stroke="#000000" stroke-miterlimit="10" d="M149.703,194.218c-19.822-30.076-39.198-62.51-61.343-85.86
			c-51.207-53.992-78.194,72.188-80.643,84.299C23.791,193.902,81.54,194.268,149.703,194.218L149.703,194.218z"/>
		<path fill="#EA5515" stroke="#000000" stroke-miterlimit="10" d="M7.717,192.658c-0.122,0.604-0.183,0.925-0.183,0.925
			L7.717,192.658z"/>
	</g>
	<path fill="#1D1D1C" d="M108.114,55.289c-5.754-1.29-11.061-3.427-16.594-5.349c-1.44-0.501-2.073,1.491-0.977,2.244
		c1.854,1.273,3.862,2.35,5.952,3.279c-5.905,0.634-11.978,2.418-17.181,4.357c-6.981,2.603-13.627,6.336-19.38,10.97
		c-9.544,7.691-19.152,21.521-17.31,34.183c0.105,0.723,1.21,0.606,1.394,0c1.868-6.138,3.105-11.909,6.618-17.471
		c3.442-5.447,8.082-10.406,13.361-14.243c5.577-4.057,11.924-6.782,18.579-8.719c5.572-1.621,11.208-2.194,16.843-3.099
		c-2.718,2.949-4.916,6.373-5.916,9.902c-0.589,2.073,2.394,3.253,3.545,1.447c1.752-2.747,3.069-5.594,5.215-8.117
		c1.989-2.34,4.303-4.254,6.73-6.151C110.168,57.607,109.484,55.596,108.114,55.289z"/>
	<g>
		<path d="M122.986,52.755c-1.211-0.36-2.051-1.091-2.531-2.003c-0.492,1.091-1.367,1.967-2.663,2.387l-0.792-1.235
			c1.787-0.6,2.579-2.003,2.603-3.382h-2.195V47.25h5.973v1.271h-2.159c0.024,1.259,0.779,2.495,2.519,3.01L122.986,52.755z
			 M125.973,55.43c0,1.343-1.439,2.135-3.73,2.135c-2.303,0-3.742-0.792-3.742-2.135c0-1.355,1.439-2.159,3.742-2.159
			C124.533,53.271,125.973,54.075,125.973,55.43z M124.401,55.43c0-0.636-0.756-0.936-2.159-0.936c-1.416,0-2.171,0.3-2.171,0.936
			c0,0.624,0.755,0.924,2.171,0.924C123.646,56.354,124.401,56.054,124.401,55.43z M127.316,49.062v1.295h-1.463v2.723h-1.583
			v-6.561h1.583v2.543H127.316z"/>
		<path d="M134.11,47.658c0,3.382-1.14,6.141-5.062,8.036l-0.828-1.248c2.819-1.355,4.042-3.082,4.27-5.529h-3.682v-1.259H134.11z
			 M137.396,46.507v11.046h-1.595V46.507H137.396z"/>
		<path d="M152.588,52.251v1.259h-9.991v-1.259h4.186v-1.547h1.583v1.547H152.588z M151.424,51.376
			c-1.847-0.3-3.178-1.104-3.862-2.23c-0.684,1.127-2.003,1.943-3.85,2.23l-0.6-1.247c2.459-0.336,3.646-1.667,3.646-2.962v-0.324
			h1.619v0.324c0,1.355,1.164,2.638,3.658,2.962L151.424,51.376z M145.392,56.113h6.069v1.259h-7.652v-3.19h1.583V56.113z"/>
		<path d="M159.322,52.635c-1.164-0.384-1.967-1.127-2.435-2.063c-0.48,1.092-1.332,1.943-2.591,2.375l-0.828-1.248
			c1.847-0.611,2.591-2.087,2.591-3.586v-0.996h1.607v1.127c0,1.332,0.744,2.626,2.483,3.167L159.322,52.635z M162.453,55.43
			c0,1.343-1.439,2.135-3.73,2.135c-2.303,0-3.742-0.792-3.742-2.135c0-1.331,1.439-2.123,3.742-2.123
			C161.013,53.307,162.453,54.099,162.453,55.43z M160.881,55.43c0-0.611-0.755-0.899-2.159-0.899c-1.416,0-2.171,0.288-2.171,0.899
			c0,0.624,0.755,0.912,2.171,0.912C160.126,56.341,160.881,56.054,160.881,55.43z M163.796,49.085v1.307h-1.463v2.663h-1.583
			v-6.524h1.583v2.555H163.796z"/>
		<path d="M170.41,46.699h1.475v10.374h-1.475v-5.205h-0.863c-0.144,2.159-1.043,3.454-2.387,3.454
			c-1.463,0-2.387-1.511-2.387-4.018c0-2.495,0.923-4.006,2.387-4.006c1.307,0,2.195,1.223,2.375,3.286h0.875V46.699z
			 M168.12,51.304c0-1.691-0.348-2.519-0.959-2.519c-0.6,0-0.959,0.827-0.959,2.519c0,1.703,0.36,2.53,0.959,2.53
			C167.771,53.834,168.12,53.007,168.12,51.304z M174.152,46.507v11.046h-1.5V46.507H174.152z"/>
		<path d="M117.205,68.462c1.943,0,4.654-0.012,6.98-0.36l0.096,1.14c-2.375,0.479-4.965,0.503-6.872,0.503L117.205,68.462z
			 M123.754,64.373c0,1.595-1.319,2.723-3.046,2.723s-3.035-1.127-3.035-2.723c0-1.583,1.308-2.722,3.035-2.722
			S123.754,62.79,123.754,64.373z M119.208,64.373c0,0.864,0.648,1.367,1.5,1.367s1.499-0.503,1.499-1.367
			c0-0.863-0.647-1.367-1.499-1.367S119.208,63.509,119.208,64.373z M126.368,60.907v11.082h-1.583V60.907H126.368z"/>
		<path d="M134.698,63.317h-6.5v-1.235h2.447v-1.175h1.595v1.175h2.471L134.698,63.317z M131.448,67.971
			c-1.583,0-2.71-0.863-2.71-2.135c0-1.248,1.127-2.123,2.71-2.123c1.583,0,2.71,0.875,2.71,2.123
			C134.158,67.107,133.031,67.971,131.448,67.971z M131.352,70.513h5.937v1.259h-7.52V68.57h1.583V70.513z M131.448,66.771
			c0.695,0,1.199-0.324,1.199-0.936c0-0.6-0.504-0.923-1.199-0.923c-0.708,0-1.2,0.324-1.2,0.923
			C130.248,66.448,130.74,66.771,131.448,66.771z M138.356,64.289v1.308h-1.463v3.586h-1.583v-8.264h1.583v3.37H138.356z"/>
		<path d="M146.663,63.377c0,1.991,0.779,3.994,2.555,4.869l-0.959,1.248c-1.151-0.588-1.931-1.655-2.387-2.975
			c-0.48,1.403-1.308,2.566-2.555,3.178l-0.948-1.283c1.859-0.875,2.699-2.986,2.699-5.037V61.77h1.595V63.377z M152.852,66.483
			h-1.607v5.481h-1.583V60.918h1.583v4.246h1.607V66.483z"/>
		<path d="M159.226,66.664h-5.265V61.71h5.265V66.664z M162.453,69.794c0,1.379-1.451,2.194-3.73,2.194
			c-2.291,0-3.742-0.815-3.742-2.194c0-1.368,1.451-2.183,3.742-2.183C161.001,67.611,162.453,68.426,162.453,69.794z
			 M157.667,62.958h-2.159v2.458h2.159V62.958z M160.881,69.794c0-0.636-0.755-0.948-2.159-0.948s-2.171,0.312-2.171,0.948
			c0,0.647,0.768,0.947,2.171,0.947S160.881,70.441,160.881,69.794z M163.796,63.389v1.307h-1.463v2.627h-1.583v-6.405h1.583v2.471
			H163.796z"/>
	</g>
	<path fill="#1D1D1C" d="M305.948,312.191c-5.463,2.221-10.345,5.203-15.486,8.01c-1.337,0.73-2.289-1.129-1.333-2.052
		c1.619-1.562,3.422-2.954,5.33-4.215c-5.928,0.347-12.212-0.413-17.662-1.469c-7.315-1.416-14.486-4.004-20.924-7.628
		c-10.679-6.015-22.434-18.073-22.701-30.865c-0.017-0.731,1.092-0.798,1.374-0.23c2.854,5.747,5.024,11.235,9.404,16.143
		c4.292,4.807,9.686,8.934,15.525,11.849c6.168,3.084,12.879,4.726,19.762,5.54c5.763,0.682,11.416,0.318,17.123,0.282
		c-3.165-2.461-5.898-5.477-7.467-8.793c-0.921-1.947,1.826-3.602,3.26-2.011c2.181,2.421,3.948,5.013,6.482,7.147
		c2.346,1.982,4.945,3.488,7.651,4.959C307.593,309.566,307.248,311.664,305.948,312.191z"/>
	<g>
		<path d="M323.151,303.47h-5.205v-5.396h5.205v0.852h1.991v-1.739h1.582v8.048h-1.582v-2.675h-1.991V303.47z M326.965,306.78v1.26
			h-7.531v-3.562h1.583v2.303H326.965z M321.604,299.309h-2.098v2.915h2.098V299.309z M323.151,300.185v1.115h1.991v-1.115H323.151z
			"/>
		<path d="M337.766,297.186v6.536h-1.584v-1.391h-2.398c-0.527,0.563-1.318,0.911-2.207,0.911c-1.631,0-2.902-1.151-2.902-2.746
			c0-1.583,1.271-2.735,2.902-2.735c0.9,0,1.691,0.349,2.219,0.912h2.387v-1.487H337.766z M332.992,300.496
			c0-0.864-0.6-1.38-1.416-1.38c-0.803,0-1.402,0.516-1.402,1.38c0,0.876,0.6,1.392,1.402,1.392
			C332.393,301.888,332.992,301.372,332.992,300.496z M330.246,304.226h7.52v4.018h-1.584v-2.77h-5.936V304.226z M336.182,301.071
			v-1.139h-1.75c0.035,0.18,0.06,0.359,0.06,0.563c0,0.192-0.024,0.384-0.06,0.575H336.182z"/>
		<path d="M343.266,298.229h5.277v7.315h-5.277V298.229z M344.825,304.298h2.159v-4.821h-2.159V304.298z M353.185,302.655h-1.606
			v5.576h-1.584v-11.033h1.584v4.149h1.606V302.655z"/>
		<path d="M356.081,298.062v2.674h2.303v-2.674h1.571v7.615h-5.445v-7.615H356.081z M356.081,304.418h2.303v-2.446h-2.303V304.418z
			 M363.121,297.174v11.082h-1.583v-11.082H363.121z"/>
		<path d="M370.743,297.366h1.476v10.373h-1.476v-5.205h-0.863c-0.144,2.159-1.044,3.455-2.387,3.455
			c-1.464,0-2.387-1.512-2.387-4.018c0-2.495,0.923-4.006,2.387-4.006c1.308,0,2.194,1.223,2.374,3.285h0.876V297.366z
			 M368.453,301.972c0-1.691-0.349-2.52-0.96-2.52c-0.6,0-0.96,0.828-0.96,2.52c0,1.703,0.36,2.529,0.96,2.529
			C368.104,304.501,368.453,303.675,368.453,301.972z M374.485,297.174v11.046h-1.499v-11.046H374.485z"/>
		<path d="M317.538,319.13c1.943,0,4.653-0.012,6.98-0.36l0.096,1.14c-2.374,0.479-4.966,0.504-6.872,0.504L317.538,319.13z
			 M324.087,315.04c0,1.595-1.319,2.723-3.046,2.723c-1.728,0-3.035-1.128-3.035-2.723c0-1.584,1.308-2.723,3.035-2.723
			C322.768,312.317,324.087,313.456,324.087,315.04z M319.541,315.04c0,0.863,0.648,1.367,1.5,1.367s1.498-0.504,1.498-1.367
			s-0.646-1.367-1.498-1.367S319.541,314.177,319.541,315.04z M326.701,311.573v11.082h-1.583v-11.082H326.701z"/>
		<path d="M335.031,313.984h-6.501v-1.235h2.446v-1.176h1.596v1.176h2.471L335.031,313.984z M331.781,318.638
			c-1.584,0-2.711-0.863-2.711-2.135c0-1.248,1.127-2.123,2.711-2.123c1.582,0,2.71,0.875,2.71,2.123
			C334.491,317.774,333.363,318.638,331.781,318.638z M331.685,321.181h5.937v1.259h-7.52v-3.202h1.583V321.181z M331.781,317.438
			c0.695,0,1.199-0.324,1.199-0.936c0-0.6-0.504-0.924-1.199-0.924c-0.709,0-1.2,0.324-1.2,0.924
			C330.581,317.114,331.072,317.438,331.781,317.438z M338.689,314.956v1.307h-1.464v3.586h-1.583v-8.264h1.583v3.371H338.689z"/>
		<path d="M346.996,314.044c0,1.991,0.779,3.994,2.555,4.869l-0.959,1.248c-1.152-0.588-1.932-1.655-2.387-2.975
			c-0.48,1.403-1.309,2.566-2.555,3.178l-0.948-1.283c1.859-0.875,2.698-2.986,2.698-5.037v-1.607h1.596V314.044z M353.185,317.15
			h-1.606v5.481h-1.584v-11.047h1.584v4.246h1.606V317.15z"/>
		<path d="M359.559,317.331h-5.265v-4.954h5.265V317.331z M362.785,320.461c0,1.379-1.451,2.194-3.729,2.194
			c-2.291,0-3.742-0.815-3.742-2.194c0-1.368,1.451-2.183,3.742-2.183C361.334,318.278,362.785,319.093,362.785,320.461z
			 M358,313.624h-2.158v2.459H358V313.624z M361.215,320.461c0-0.636-0.756-0.948-2.159-0.948s-2.171,0.312-2.171,0.948
			c0,0.647,0.768,0.947,2.171,0.947S361.215,321.108,361.215,320.461z M364.129,314.056v1.308h-1.463v2.627h-1.584v-6.405h1.584
			v2.471H364.129z"/>
	</g>
	<g>
		<path d="M448.547,195.119c0.898-0.048,1.799-0.108,2.662-0.228l0.12,1.139c-2.411,0.444-4.966,0.456-6.921,0.456l-0.191-1.283
			c0.828,0,1.764,0,2.746-0.024v-0.936c-1.188-0.228-1.955-0.971-1.955-1.991c0-1.248,1.128-2.087,2.747-2.087
			c1.606,0,2.734,0.839,2.734,2.087c0,1.02-0.768,1.763-1.942,1.991V195.119z M451.064,189.734h-6.632v-1.235h2.53v-1.188h1.584
			v1.188h2.518V189.734z M447.755,193.128c0.743,0,1.235-0.312,1.235-0.875c0-0.576-0.492-0.888-1.235-0.888
			c-0.731,0-1.235,0.312-1.235,0.888C446.52,192.816,447.023,193.128,447.755,193.128z M453.367,187.275v11.046h-1.582v-11.046
			H453.367z"/>
		<path d="M465.188,192.732v1.259h-9.99v-1.259h4.186v-0.911h-2.914v-4.258h1.57v0.971h4.306v-0.971h1.571v4.258h-2.95v0.911
			H465.188z M456.301,194.748h7.676v3.586h-1.584v-2.327h-6.092V194.748z M458.039,190.586h4.306v-0.864h-4.306V190.586z"/>
	</g>
</g>
<g>
</g>
<g>
</g>
<g>
</g>
<g>
</g>
<g>
</g>
<g>
</g>
</svg>
