<?xml version="1.0" encoding="utf-8"?>
<!-- Generator: Adobe Illustrator 28.0.0, SVG Export Plug-In . SVG Version: 6.00 Build 0)  -->
<svg version="1.1" id="레이어_1" xmlns="http://www.w3.org/2000/svg" xmlns:xlink="http://www.w3.org/1999/xlink" x="0px"
	 y="0px" viewBox="0 0 246.135 297.396" enable-background="new 0 0 246.135 297.396" xml:space="preserve">
<g>
	<g>
		<polygon fill="#FFFFFF" stroke="#000000" stroke-miterlimit="10" points="183.787,2.107 122.075,254.69 245.498,254.69 		"/>
		<polygon fill="#EA5515" points="183.787,3.746 129.407,226.32 238.166,226.32 		"/>
		<polygon fill="#F39800" points="183.787,3.746 137.293,194.041 230.28,194.041 		"/>
		<polygon fill="#FFF100" points="183.787,3.746 150.362,140.551 217.211,140.551 		"/>
		<g>
			<path d="M177.691,107.774h-3.084v2.172h3.973v0.923h-9.061v-0.923h3.939v-2.172h-3.096v-0.935h1.554l-0.259-2.386l1.147-0.112
				l0.203,2.499h2.082l0.372-2.476l1.137,0.169l-0.417,2.307h1.509V107.774z M177.702,103.846h-7.35v-0.923h7.35V103.846z"/>
			<path d="M187.202,107.493h-2.858v2.454h3.973v0.923h-9.061v-0.923h3.939v-2.454h-2.758v-4.615h6.709v0.934h-5.55v2.747h5.605
				V107.493z"/>
			<path d="M194.732,107.009c-0.998,0.21-2.446,0.323-4.345,0.338l-1.047-0.011v-4.48h4.435v0.923h-3.286v2.634
				c1.726,0,3.084-0.105,4.074-0.315L194.732,107.009z M196.905,110.149c0,0.601-0.299,1.079-0.896,1.435
				c-0.596,0.356-1.431,0.535-2.504,0.535c-1.065,0-1.896-0.178-2.487-0.535c-0.594-0.356-0.89-0.834-0.89-1.435
				c0-0.615,0.296-1.103,0.89-1.463c0.592-0.36,1.422-0.54,2.487-0.54c1.073,0,1.908,0.18,2.504,0.54
				C196.606,109.046,196.905,109.534,196.905,110.149z M193.506,109.08c-0.69,0-1.229,0.096-1.615,0.287
				c-0.387,0.191-0.58,0.452-0.58,0.782c0,0.323,0.193,0.578,0.58,0.765c0.386,0.188,0.925,0.282,1.615,0.282
				s1.232-0.094,1.626-0.282c0.395-0.188,0.591-0.442,0.591-0.765c0-0.33-0.194-0.591-0.585-0.782S194.203,109.08,193.506,109.08z
				 M198.244,105.568h-1.463v2.454h-1.159v-5.91h1.159v2.499h1.463V105.568z"/>
			<path d="M165.734,122.134l2.401-5.562h-3.039v-0.779h4.108v0.591l-2.383,5.75H165.734z"/>
			<path d="M171.588,122.228c-0.719,0-1.322-0.153-1.811-0.46l0.179-0.76c0.443,0.275,0.909,0.413,1.397,0.413
				c0.469,0,0.836-0.116,1.102-0.347c0.267-0.231,0.399-0.554,0.399-0.966c0-0.819-0.488-1.229-1.464-1.229
				c-0.412,0-0.848,0.106-1.304,0.319l0.234-3.433h3.273v0.778h-2.522l-0.113,1.726c0.282-0.081,0.56-0.122,0.835-0.122
				c0.663,0,1.173,0.164,1.529,0.493c0.356,0.328,0.534,0.821,0.534,1.477c0,0.601-0.204,1.103-0.614,1.506
				C172.834,122.026,172.282,122.228,171.588,122.228z"/>
			<path d="M177.233,122.228c-0.719,0-1.301-0.25-1.744-0.75c-0.444-0.5-0.666-1.267-0.666-2.298v-0.45
				c0-1.063,0.227-1.84,0.68-2.331c0.453-0.491,1.037-0.736,1.75-0.736c0.7,0,1.27,0.244,1.707,0.732s0.656,1.254,0.656,2.298v0.479
				c0,1.044-0.219,1.815-0.656,2.312C178.522,121.979,177.946,122.228,177.233,122.228z M177.233,121.458
				c0.463,0,0.809-0.173,1.037-0.521s0.342-0.905,0.342-1.674v-0.582c0-1.501-0.456-2.251-1.369-2.251
				c-0.926,0-1.389,0.731-1.389,2.195v0.582C175.854,120.708,176.314,121.458,177.233,121.458z"/>
			<path d="M183.331,122.115v-6.847h0.919v6.847H183.331z M186.173,122.115l-1.838-2.476l1.763-2.308h0.985l-1.754,2.251
				l1.886,2.533H186.173z"/>
			<path d="M188.912,122.171c-0.507,0-0.923-0.081-1.248-0.244v-0.76c0.4,0.138,0.767,0.207,1.098,0.207
				c0.65,0,0.976-0.338,0.976-1.013v-4.671h0.985v4.728c0,0.525-0.15,0.949-0.45,1.271
				C189.972,122.01,189.519,122.171,188.912,122.171z"/>
			<path d="M191.454,123.09l2.232-7.954h0.825l-2.232,7.954H191.454z"/>
			<path d="M199.474,117.106c0,0.544-0.2,0.986-0.601,1.327s-0.909,0.511-1.528,0.511c-0.607,0-1.113-0.167-1.52-0.502
				c-0.407-0.334-0.61-0.78-0.61-1.336s0.202-1.015,0.605-1.375c0.403-0.359,0.911-0.539,1.524-0.539
				c0.612,0,1.12,0.178,1.524,0.535C199.272,116.084,199.474,116.543,199.474,117.106z M198.526,117.097
				c0-0.319-0.108-0.583-0.323-0.793c-0.216-0.209-0.502-0.314-0.858-0.314c-0.325,0-0.604,0.108-0.835,0.324
				c-0.231,0.215-0.348,0.477-0.348,0.783c0,0.306,0.113,0.558,0.338,0.755c0.226,0.197,0.507,0.295,0.845,0.295
				c0.35,0,0.635-0.102,0.854-0.305S198.526,117.391,198.526,117.097z M202.138,123.184h-5.713v-2.186h4.484v-0.685h-4.521v-0.779
				h5.478v2.176h-4.474v0.713h4.746V123.184z M201.856,119.104h-0.957v-4.212h0.957V119.104z"/>
		</g>
		<g>
			<path d="M172.52,163.61c0.007,1.178-0.098,2.244-0.315,3.197h1.508v0.934h-9.061v-0.934h6.449
				c0.181-0.645,0.271-1.403,0.271-2.274h-5.561v-0.923H172.52z M172.936,173.11h-7.17v-2.634h5.65v-0.855h-5.707v-0.9h6.855v2.566
				h-5.65v0.9h6.021V173.11z"/>
			<path d="M179.476,173.223h-1.148v-3.253h-3.939v-0.923h9.061v0.923h-3.973V173.223z M182.525,168.079h-6.934v-2.747h5.504v-0.945
				h-5.515v-0.889h6.663v2.701h-5.493v1.002h5.774V168.079z"/>
			<path d="M188.907,166.964v0.9h-3.241v2.139c1.764,0,3.141-0.105,4.131-0.315l0.157,0.9c-1.005,0.218-2.461,0.334-4.367,0.349
				l-1.058,0.011v-6.832h4.592v0.912h-3.455v1.936H188.907z M193.41,168.011h-1.509v5.234h-1.147v-10.029h1.147v3.827h1.509V168.011
				z"/>
			<path d="M199.026,168.698h-4.66v-4.683h4.66V168.698z M202.325,172.953h-6.821v-3.174h1.147v2.251h5.674V172.953z
				 M197.867,167.786v-2.859h-2.341v2.859H197.867z M202.111,170.487h-1.148v-7.271h1.148V170.487z"/>
			<path d="M166.836,183.312c-0.75,0-1.344-0.15-1.782-0.45l0.179-0.722c0.169,0.106,0.393,0.197,0.671,0.272
				s0.536,0.113,0.773,0.113c0.476,0,0.838-0.099,1.088-0.296c0.25-0.197,0.376-0.479,0.376-0.849c0-0.707-0.473-1.066-1.417-1.079
				l-0.619-0.009v-0.741l0.554-0.009c0.394-0.006,0.705-0.099,0.934-0.277c0.228-0.178,0.342-0.427,0.342-0.746
				c0-0.638-0.394-0.957-1.182-0.957c-0.375,0-0.825,0.128-1.351,0.385l-0.122-0.741c0.2-0.125,0.463-0.229,0.788-0.314
				s0.635-0.127,0.929-0.127c0.588,0,1.057,0.14,1.407,0.417c0.35,0.278,0.524,0.667,0.524,1.168c0,0.726-0.391,1.223-1.172,1.491
				c0.932,0.182,1.397,0.707,1.397,1.576c0,0.575-0.21,1.035-0.629,1.379S167.543,183.312,166.836,183.312z"/>
			<path d="M171.732,183.331c-0.719,0-1.322-0.153-1.811-0.46l0.179-0.76c0.443,0.275,0.909,0.413,1.397,0.413
				c0.469,0,0.836-0.116,1.102-0.347c0.267-0.231,0.399-0.554,0.399-0.966c0-0.819-0.488-1.229-1.464-1.229
				c-0.412,0-0.848,0.106-1.304,0.319l0.234-3.433h3.273v0.778h-2.522l-0.113,1.726c0.282-0.081,0.56-0.122,0.835-0.122
				c0.663,0,1.173,0.164,1.529,0.493c0.356,0.328,0.534,0.821,0.534,1.477c0,0.601-0.204,1.103-0.614,1.506
				C172.979,183.129,172.427,183.331,171.732,183.331z"/>
			<path d="M177.379,183.331c-0.719,0-1.301-0.25-1.744-0.75c-0.444-0.5-0.666-1.267-0.666-2.298v-0.45
				c0-1.063,0.227-1.84,0.68-2.331c0.453-0.491,1.037-0.736,1.75-0.736c0.7,0,1.27,0.244,1.707,0.732s0.656,1.254,0.656,2.298v0.479
				c0,1.044-0.219,1.815-0.656,2.312C178.668,183.083,178.092,183.331,177.379,183.331z M177.379,182.562
				c0.463,0,0.809-0.173,1.037-0.521s0.342-0.905,0.342-1.674v-0.582c0-1.501-0.456-2.251-1.369-2.251
				c-0.926,0-1.389,0.731-1.389,2.195v0.582C176,181.812,176.46,182.562,177.379,182.562z"/>
			<path d="M183.477,183.218v-6.847h0.919v6.847H183.477z M186.318,183.218l-1.838-2.476l1.763-2.308h0.985l-1.754,2.251
				l1.886,2.533H186.318z"/>
			<path d="M189.058,183.274c-0.507,0-0.923-0.081-1.248-0.244v-0.76c0.4,0.138,0.767,0.207,1.098,0.207
				c0.65,0,0.976-0.338,0.976-1.013v-4.671h0.985v4.728c0,0.525-0.15,0.949-0.45,1.271
				C190.117,183.114,189.664,183.274,189.058,183.274z"/>
			<path d="M191.6,184.194l2.232-7.954h0.825l-2.232,7.954H191.6z"/>
			<path d="M199.619,178.21c0,0.544-0.2,0.986-0.601,1.327s-0.909,0.511-1.528,0.511c-0.607,0-1.113-0.167-1.52-0.502
				c-0.407-0.334-0.61-0.78-0.61-1.336s0.202-1.015,0.605-1.375c0.403-0.359,0.911-0.539,1.524-0.539
				c0.612,0,1.12,0.178,1.524,0.535C199.418,177.187,199.619,177.647,199.619,178.21z M198.672,178.2
				c0-0.319-0.108-0.583-0.323-0.793c-0.216-0.209-0.502-0.314-0.858-0.314c-0.325,0-0.604,0.108-0.835,0.324
				c-0.231,0.215-0.348,0.477-0.348,0.783c0,0.306,0.113,0.558,0.338,0.755c0.226,0.197,0.507,0.295,0.845,0.295
				c0.35,0,0.635-0.102,0.854-0.305S198.672,178.494,198.672,178.2z M202.283,184.288h-5.713v-2.186h4.484v-0.685h-4.521v-0.779
				h5.478v2.176h-4.474v0.713h4.746V184.288z M202.002,180.208h-0.957v-4.212h0.957V180.208z"/>
		</g>
		<g>
			<path d="M168.895,200.22c0,1.434-0.304,2.741-0.911,3.923c-0.608,1.182-1.513,2.189-2.713,3.022l-0.743-0.799
				c1.208-0.766,2.094-1.741,2.656-2.927l-2.341,0.315l-0.191-0.979l2.87-0.27c0.112-0.405,0.188-0.852,0.226-1.34h-2.668v-0.945
				H168.895z M171.101,208.583h-1.08v-4.581h-1.317v-0.946h1.317v-3.827h1.08V208.583z M173.104,209.056h-1.104v-10.029h1.104
				V209.056z"/>
			<path d="M181.94,201.92h-5.189v0.788h5.605v0.9h-2.881v0.957h3.973v0.935h-9.061v-0.935h3.939v-0.957h-2.735v-4.199h6.697v0.9
				h-5.538v0.732h5.189V201.92z M182.391,208.774h-6.844v-2.69h1.159v1.768h5.685V208.774z"/>
			<path d="M189.189,206.58h-4.694v-6.731h1.148v2.465h2.397v-2.477h1.148V206.58z M188.041,205.645v-2.431h-2.397v2.431H188.041z
				 M191.901,199.026v3.85h1.554v0.957h-1.554v5.223h-1.147v-10.029H191.901z"/>
			<path d="M199.871,205.296l0.157,0.957c-0.968,0.21-2.442,0.323-4.424,0.338h-1.125v-6.63h4.547v0.934h-3.41v4.705
				C197.56,205.6,198.978,205.499,199.871,205.296z M202.055,209.056h-1.159v-10.029h1.159V209.056z"/>
			<path d="M165.148,219.029v-0.572l1.351-1.407c0.538-0.569,0.932-1.037,1.182-1.402s0.376-0.74,0.376-1.121
				c0-0.4-0.105-0.692-0.314-0.877c-0.21-0.185-0.527-0.277-0.952-0.277c-0.432,0-0.885,0.157-1.36,0.469l-0.197-0.741
				c0.569-0.35,1.163-0.525,1.782-0.525c0.669,0,1.181,0.161,1.534,0.483c0.353,0.322,0.529,0.774,0.529,1.355
				c0,0.269-0.043,0.528-0.131,0.778s-0.229,0.513-0.427,0.788c-0.197,0.275-0.372,0.499-0.525,0.67
				c-0.153,0.172-0.377,0.415-0.671,0.727l-0.862,0.863h2.701v0.788H165.148z"/>
			<path d="M171.724,219.142c-0.719,0-1.322-0.153-1.811-0.46l0.179-0.76c0.443,0.275,0.909,0.413,1.397,0.413
				c0.469,0,0.836-0.116,1.102-0.347c0.267-0.231,0.399-0.554,0.399-0.966c0-0.819-0.488-1.229-1.464-1.229
				c-0.412,0-0.848,0.106-1.304,0.319l0.234-3.433h3.273v0.778h-2.522l-0.113,1.726c0.282-0.081,0.56-0.122,0.835-0.122
				c0.663,0,1.173,0.164,1.529,0.493c0.356,0.328,0.534,0.821,0.534,1.477c0,0.601-0.204,1.103-0.614,1.506
				C172.97,218.94,172.418,219.142,171.724,219.142z"/>
			<path d="M177.37,219.142c-0.719,0-1.301-0.25-1.744-0.75c-0.444-0.5-0.666-1.267-0.666-2.298v-0.45
				c0-1.063,0.227-1.84,0.68-2.331c0.453-0.491,1.037-0.736,1.75-0.736c0.7,0,1.27,0.244,1.707,0.732s0.656,1.254,0.656,2.298v0.479
				c0,1.044-0.219,1.815-0.656,2.312C178.659,218.893,178.083,219.142,177.37,219.142z M177.37,218.372
				c0.463,0,0.809-0.173,1.037-0.521s0.342-0.905,0.342-1.674v-0.582c0-1.501-0.456-2.251-1.369-2.251
				c-0.926,0-1.389,0.731-1.389,2.195v0.582C175.991,217.622,176.451,218.372,177.37,218.372z"/>
			<path d="M183.468,219.029v-6.847h0.919v6.847H183.468z M186.31,219.029l-1.838-2.476l1.763-2.308h0.985l-1.754,2.251l1.886,2.533
				H186.31z"/>
			<path d="M189.049,219.085c-0.507,0-0.923-0.081-1.248-0.244v-0.76c0.4,0.138,0.767,0.207,1.098,0.207
				c0.65,0,0.976-0.338,0.976-1.013v-4.671h0.985v4.728c0,0.525-0.15,0.949-0.45,1.271
				C190.108,218.924,189.655,219.085,189.049,219.085z"/>
			<path d="M191.591,220.004l2.232-7.954h0.825l-2.232,7.954H191.591z"/>
			<path d="M199.61,214.02c0,0.544-0.2,0.986-0.601,1.327s-0.909,0.511-1.528,0.511c-0.607,0-1.113-0.167-1.52-0.502
				c-0.407-0.334-0.61-0.78-0.61-1.336s0.202-1.015,0.605-1.375c0.403-0.359,0.911-0.539,1.524-0.539
				c0.612,0,1.12,0.178,1.524,0.535C199.409,212.998,199.61,213.457,199.61,214.02z M198.663,214.011
				c0-0.319-0.108-0.583-0.323-0.793c-0.216-0.209-0.502-0.314-0.858-0.314c-0.325,0-0.604,0.108-0.835,0.324
				c-0.231,0.215-0.348,0.477-0.348,0.783c0,0.306,0.113,0.558,0.338,0.755c0.226,0.197,0.507,0.295,0.845,0.295
				c0.35,0,0.635-0.102,0.854-0.305S198.663,214.305,198.663,214.011z M202.274,220.098h-5.713v-2.186h4.484v-0.685h-4.521v-0.779
				h5.478v2.176h-4.474v0.713h4.746V220.098z M201.993,216.018h-0.957v-4.212h0.957V216.018z"/>
		</g>
		<g>
			<path d="M175.789,236.155l-0.676,0.844c-0.487-0.27-0.982-0.687-1.485-1.249s-0.833-1.092-0.99-1.587
				c-0.136,0.556-0.434,1.124-0.896,1.705c-0.461,0.582-0.984,1.026-1.57,1.334l-0.731-0.845c0.818-0.457,1.456-1.074,1.914-1.852
				c0.457-0.776,0.687-1.664,0.687-2.662v-0.495h-2.094v-0.911h5.324v0.911h-2.038v0.484c0,0.976,0.233,1.835,0.698,2.577
				C174.396,235.153,175.016,235.735,175.789,236.155z M177.781,239.42h-1.148v-10.03h1.148V239.42z"/>
			<path d="M184.208,234.534h-4.671v-4.626h1.159v1.452h2.364v-1.475h1.147V234.534z M187.169,237.426
				c0,0.608-0.299,1.091-0.896,1.447c-0.596,0.355-1.428,0.534-2.493,0.534c-1.058,0-1.884-0.179-2.476-0.534
				c-0.594-0.356-0.89-0.839-0.89-1.447c0-0.607,0.296-1.093,0.89-1.457c0.592-0.364,1.418-0.546,2.476-0.546
				c1.073,0,1.906,0.18,2.499,0.54S187.169,236.811,187.169,237.426z M183.061,233.611v-1.351h-2.364v1.351H183.061z
				 M185.401,238.204c0.391-0.188,0.585-0.446,0.585-0.777c0-0.33-0.192-0.591-0.579-0.782s-0.929-0.287-1.627-0.287
				c-0.683,0-1.215,0.096-1.598,0.287s-0.574,0.452-0.574,0.782c0,0.331,0.191,0.59,0.574,0.777s0.915,0.281,1.598,0.281
				C184.471,238.485,185.011,238.391,185.401,238.204z M188.508,232.8h-1.463v2.477h-1.159v-5.888h1.159v2.454h1.463V232.8z"/>
			<path d="M194.8,234.196l-0.664,0.9c-0.442-0.187-0.886-0.489-1.328-0.905c-0.442-0.417-0.77-0.857-0.979-1.323
				c-0.149,0.511-0.455,1.006-0.917,1.486s-0.947,0.825-1.458,1.035l-0.697-0.923c0.72-0.285,1.312-0.739,1.772-1.362
				c0.462-0.622,0.692-1.316,0.692-2.082v-1.069h1.193v1.024c0,0.75,0.24,1.422,0.72,2.015
				C193.614,233.585,194.17,233.986,194.8,234.196z M197.074,239.115h-6.709v-3.186h1.159v2.252h5.55V239.115z M196.781,229.389
				v2.928h1.485v0.968h-1.485v3.377h-1.159v-7.272H196.781z"/>
			<path d="M165.148,249.392v-0.572l1.351-1.407c0.538-0.569,0.932-1.036,1.182-1.402s0.376-0.739,0.376-1.121
				c0-0.4-0.105-0.692-0.314-0.877c-0.21-0.185-0.527-0.276-0.952-0.276c-0.432,0-0.885,0.156-1.36,0.469l-0.197-0.741
				c0.569-0.35,1.163-0.525,1.782-0.525c0.669,0,1.181,0.161,1.534,0.483c0.353,0.322,0.529,0.773,0.529,1.355
				c0,0.269-0.043,0.528-0.131,0.778s-0.229,0.513-0.427,0.788s-0.372,0.499-0.525,0.671s-0.377,0.414-0.671,0.727l-0.862,0.863
				h2.701v0.788H165.148z"/>
			<path d="M171.724,249.504c-0.719,0-1.322-0.153-1.811-0.46l0.179-0.76c0.443,0.275,0.909,0.413,1.397,0.413
				c0.469,0,0.836-0.116,1.102-0.348c0.267-0.23,0.399-0.553,0.399-0.966c0-0.819-0.488-1.229-1.464-1.229
				c-0.412,0-0.848,0.106-1.304,0.318l0.234-3.433h3.273v0.778h-2.522l-0.113,1.726c0.282-0.081,0.56-0.121,0.835-0.121
				c0.663,0,1.173,0.164,1.529,0.492s0.534,0.82,0.534,1.478c0,0.6-0.204,1.102-0.614,1.505
				C172.97,249.302,172.418,249.504,171.724,249.504z"/>
			<path d="M177.37,249.504c-0.719,0-1.301-0.25-1.744-0.751c-0.444-0.5-0.666-1.266-0.666-2.298v-0.45
				c0-1.062,0.227-1.84,0.68-2.331c0.453-0.49,1.037-0.736,1.75-0.736c0.7,0,1.27,0.244,1.707,0.731
				c0.438,0.488,0.656,1.254,0.656,2.299v0.479c0,1.044-0.219,1.814-0.656,2.312S178.083,249.504,177.37,249.504z M177.37,248.735
				c0.463,0,0.809-0.173,1.037-0.521c0.229-0.347,0.342-0.905,0.342-1.674v-0.582c0-1.501-0.456-2.251-1.369-2.251
				c-0.926,0-1.389,0.731-1.389,2.194v0.582C175.991,247.985,176.451,248.735,177.37,248.735z"/>
			<path d="M183.468,249.392v-6.848h0.919v6.848H183.468z M186.31,249.392l-1.838-2.477l1.763-2.308h0.985l-1.754,2.251l1.886,2.533
				H186.31z"/>
			<path d="M189.049,249.448c-0.507,0-0.923-0.081-1.248-0.244v-0.76c0.4,0.138,0.767,0.207,1.098,0.207
				c0.65,0,0.976-0.338,0.976-1.014v-4.671h0.985v4.728c0,0.525-0.15,0.949-0.45,1.271
				C190.108,249.287,189.655,249.448,189.049,249.448z"/>
			<path d="M191.591,250.368l2.232-7.955h0.825l-2.232,7.955H191.591z"/>
			<path d="M199.61,244.382c0,0.544-0.2,0.987-0.601,1.328s-0.909,0.511-1.528,0.511c-0.607,0-1.113-0.167-1.52-0.502
				c-0.407-0.334-0.61-0.78-0.61-1.337c0-0.556,0.202-1.014,0.605-1.374c0.403-0.359,0.911-0.539,1.524-0.539
				c0.612,0,1.12,0.178,1.524,0.534C199.409,243.36,199.61,243.82,199.61,244.382z M198.663,244.374
				c0-0.319-0.108-0.583-0.323-0.793c-0.216-0.209-0.502-0.314-0.858-0.314c-0.325,0-0.604,0.108-0.835,0.324
				s-0.348,0.477-0.348,0.783s0.113,0.558,0.338,0.755c0.226,0.197,0.507,0.296,0.845,0.296c0.35,0,0.635-0.102,0.854-0.306
				C198.554,244.916,198.663,244.668,198.663,244.374z M202.274,250.462h-5.713v-2.186h4.484v-0.686h-4.521v-0.778h5.478v2.177
				h-4.474v0.713h4.746V250.462z M201.993,246.38h-0.957v-4.211h0.957V246.38z"/>
		</g>
	</g>
	<g>
		<path d="M28.71,230.889l0.084,0.694c-1.351,0.182-3.105,0.285-5.262,0.31l-0.141-0.77c0.969,0,1.704-0.003,2.205-0.009v-0.395
			c-0.457-0.05-0.816-0.164-1.079-0.342c-0.263-0.179-0.394-0.408-0.394-0.689c0-0.325,0.175-0.585,0.525-0.779
			c0.35-0.194,0.819-0.291,1.407-0.291s1.06,0.097,1.417,0.291s0.535,0.454,0.535,0.779c0,0.275-0.13,0.502-0.389,0.68
			c-0.26,0.179-0.615,0.293-1.065,0.343v0.365C27.591,231.014,28.31,230.952,28.71,230.889z M28.419,228.432h-4.708v-0.703h4.708
			V228.432z M30.464,235.045h-5.712v-1.754h4.456v-0.459h-4.484v-0.666h5.44v1.744h-4.446v0.469h4.746V235.045z M24.912,227.4
			v-0.685h2.335v0.685H24.912z M27.069,229.689c0-0.132-0.092-0.234-0.277-0.31s-0.43-0.113-0.736-0.113
			c-0.3,0-0.542,0.038-0.727,0.113c-0.184,0.075-0.276,0.178-0.276,0.31c0,0.125,0.092,0.225,0.276,0.3
			c0.185,0.075,0.427,0.112,0.727,0.112c0.307,0,0.552-0.037,0.736-0.112S27.069,229.814,27.069,229.689z M31.365,229.801h-1.201
			v1.914h-0.957v-5.038h0.957v2.326h1.201V229.801z"/>
		<path d="M36.655,230.467l-0.553,0.75c-0.369-0.155-0.735-0.396-1.098-0.722s-0.632-0.679-0.807-1.061
			c-0.125,0.42-0.375,0.813-0.75,1.183s-0.782,0.638-1.219,0.807l-0.582-0.741c0.619-0.244,1.116-0.609,1.491-1.098
			c0.375-0.488,0.563-1.047,0.563-1.679v-0.835h0.985v0.797c0,0.613,0.197,1.154,0.591,1.623S36.13,230.286,36.655,230.467z
			 M38.681,233.384c0,0.501-0.251,0.9-0.755,1.201c-0.503,0.3-1.202,0.45-2.097,0.45c-0.888,0-1.582-0.15-2.082-0.45
			c-0.5-0.301-0.75-0.7-0.75-1.201c0-0.506,0.25-0.911,0.75-1.215c0.5-0.303,1.194-0.454,2.082-0.454
			c0.895,0,1.593,0.151,2.097,0.454C38.43,232.473,38.681,232.878,38.681,233.384z M37.687,233.384c0-0.281-0.163-0.5-0.488-0.656
			s-0.782-0.234-1.37-0.234c-0.575,0-1.025,0.079-1.351,0.239c-0.325,0.159-0.488,0.377-0.488,0.651
			c0,0.275,0.163,0.491,0.488,0.647s0.775,0.234,1.351,0.234c0.588,0,1.044-0.078,1.37-0.234S37.687,233.66,37.687,233.384z
			 M38.606,231.593h-0.957v-2.364h-1.529v-0.788h1.529v-1.764h0.957V231.593z"/>
		<path d="M44.947,232.7l0.075,0.741c-1.426,0.188-3.177,0.288-5.253,0.3l-0.131-0.797c0.981,0,1.732-0.01,2.251-0.028v-0.75
			c-0.488-0.062-0.88-0.221-1.177-0.474c-0.297-0.254-0.445-0.562-0.445-0.925c0-0.412,0.189-0.75,0.567-1.013
			s0.865-0.394,1.458-0.394c0.594,0,1.081,0.131,1.459,0.394c0.378,0.263,0.567,0.601,0.567,1.013c0,0.338-0.133,0.632-0.399,0.882
			c-0.266,0.251-0.621,0.416-1.064,0.497v0.732C43.769,232.816,44.466,232.756,44.947,232.7z M44.685,229.061h-4.831v-0.75h4.831
			V229.061z M41.064,227.841v-0.75h2.439v0.75H41.064z M43.034,231.242c0.194-0.122,0.291-0.28,0.291-0.475
			c0-0.193-0.097-0.353-0.291-0.478s-0.441-0.188-0.741-0.188c-0.294,0-0.539,0.063-0.736,0.188
			c-0.197,0.125-0.295,0.284-0.295,0.478c0,0.194,0.097,0.353,0.291,0.475c0.194,0.121,0.441,0.183,0.741,0.183
			C42.593,231.424,42.84,231.363,43.034,231.242z M46.392,226.678v3.555h1.191v0.797h-1.191v4.006h-0.957v-8.358H46.392z"/>
		<path d="M53.482,232.362l0.075,0.741c-1.419,0.182-3.242,0.278-5.469,0.291l-0.15-0.798c0.988,0,1.738-0.006,2.251-0.019v-1.613
			h-1.567v-3.518h4.165v0.779H49.59v1.96h3.236v0.778h-1.679v1.576C52.135,232.509,52.914,232.45,53.482,232.362z M54.937,226.678
			v8.358H53.97v-8.358H54.937z"/>
		<path d="M61.287,232.315l-0.563,0.704c-0.407-0.226-0.819-0.572-1.238-1.041c-0.419-0.47-0.694-0.91-0.825-1.323
			c-0.113,0.463-0.361,0.937-0.746,1.421c-0.384,0.485-0.821,0.855-1.308,1.112l-0.61-0.704c0.682-0.381,1.213-0.896,1.595-1.543
			c0.381-0.647,0.572-1.387,0.572-2.218v-0.413h-1.745v-0.76h4.437v0.76h-1.698v0.403c0,0.812,0.194,1.529,0.582,2.147
			C60.127,231.48,60.643,231.965,61.287,232.315z M62.947,235.036H61.99v-8.358h0.957V235.036z"/>
		<path d="M71.004,229.042c0,0.557-0.203,1.015-0.61,1.374c-0.406,0.36-0.916,0.54-1.529,0.54c-0.619,0-1.13-0.177-1.534-0.53
			s-0.605-0.814-0.605-1.384c0-0.562,0.205-1.035,0.614-1.417c0.41-0.381,0.918-0.572,1.524-0.572c0.613,0,1.123,0.188,1.529,0.562
			C70.801,227.991,71.004,228.466,71.004,229.042z M70.01,234.604c-0.763,0.193-1.613,0.287-2.551,0.281v-3.143h0.919v2.374
			c0.444-0.007,0.944-0.088,1.501-0.244L70.01,234.604z M70.048,229.042c0-0.332-0.108-0.61-0.324-0.835s-0.502-0.337-0.858-0.337
			c-0.35,0-0.633,0.111-0.849,0.333c-0.216,0.222-0.324,0.499-0.324,0.83c0,0.319,0.108,0.583,0.324,0.792
			c0.215,0.21,0.499,0.314,0.849,0.314c0.356,0,0.643-0.104,0.858-0.31S70.048,229.361,70.048,229.042z M73.884,232.756h-4.165
			v-0.694h4.165V232.756z M73.312,234.05c0,0.332-0.148,0.593-0.446,0.783c-0.297,0.191-0.664,0.286-1.102,0.286
			c-0.438,0-0.804-0.095-1.097-0.286c-0.294-0.19-0.441-0.451-0.441-0.783c0-0.338,0.146-0.604,0.441-0.797
			c0.293-0.194,0.66-0.291,1.097-0.291c0.444,0,0.813,0.097,1.107,0.291C73.165,233.447,73.312,233.712,73.312,234.05z
			 M72.749,231.781h-1.914v-0.713h1.914V231.781z M72.439,234.05c0-0.138-0.062-0.24-0.188-0.31
			c-0.125-0.068-0.288-0.103-0.488-0.103c-0.181,0-0.336,0.036-0.464,0.107c-0.128,0.072-0.192,0.174-0.192,0.305
			c0,0.132,0.062,0.231,0.188,0.301c0.125,0.068,0.281,0.103,0.469,0.103C72.214,234.454,72.439,234.32,72.439,234.05z
			 M74.353,229.249h-1.219v1.51h-0.966v-4.081h0.966v1.782h1.219V229.249z"/>
		<path d="M82.308,231.706h-7.551v-0.77h7.551V231.706z M80.647,227.33c0.519,0.304,0.779,0.702,0.779,1.196
			c0,0.494-0.258,0.895-0.774,1.2c-0.516,0.307-1.221,0.46-2.115,0.46s-1.599-0.153-2.115-0.46c-0.516-0.306-0.774-0.707-0.774-1.2
			c0-0.494,0.258-0.893,0.774-1.196c0.516-0.303,1.218-0.455,2.106-0.455C79.421,226.875,80.128,227.026,80.647,227.33z
			 M81.426,234.801h-5.703v-2.42h0.966v1.65h4.737V234.801z M80.432,228.535c0-0.282-0.17-0.502-0.511-0.662
			c-0.341-0.159-0.805-0.239-1.393-0.239c-0.582,0-1.043,0.08-1.384,0.239c-0.341,0.16-0.511,0.38-0.511,0.662
			c0,0.275,0.17,0.492,0.511,0.652c0.341,0.159,0.802,0.239,1.384,0.239c0.588,0,1.052-0.08,1.393-0.239
			C80.261,229.027,80.432,228.81,80.432,228.535z"/>
		<path d="M43.503,242.267h-3.339v-3.799h0.957v1.163h1.426v-1.182h0.957V242.267z M42.546,241.499v-1.107H41.12v1.107H42.546z
			 M41.186,243.261h5.684v3.039h-0.947v-2.27h-4.737V243.261z M46.87,242.821h-0.919v-2.073H45.21v1.979H44.3v-4.644h0.91v1.857
			h0.741v-2.007h0.919V242.821z"/>
		<path d="M52.47,239.837h-4.512v-0.74h4.512V239.837z M52.273,241.385c0,0.395-0.185,0.707-0.553,0.938
			c-0.369,0.231-0.841,0.347-1.417,0.347c-0.562,0-1.029-0.117-1.397-0.352c-0.369-0.234-0.554-0.546-0.554-0.934
			c0-0.381,0.183-0.686,0.549-0.914s0.833-0.343,1.402-0.343c0.575,0,1.047,0.114,1.417,0.343
			C52.088,240.7,52.273,241.004,52.273,241.385z M49.103,238.666v-0.741h2.448v0.741H49.103z M51.344,241.385
			c0-0.169-0.102-0.305-0.305-0.408c-0.203-0.103-0.449-0.154-0.736-0.154s-0.532,0.052-0.731,0.154c-0.2,0.104-0.3,0.239-0.3,0.408
			c0,0.188,0.1,0.332,0.3,0.432c0.2,0.101,0.444,0.15,0.731,0.15c0.294,0,0.541-0.05,0.741-0.15
			C51.244,241.717,51.344,241.573,51.344,241.385z M55.097,246.263h-5.703v-1.933h4.483v-0.506h-4.521v-0.741h5.478v1.941h-4.475
			v0.507h4.737V246.263z M54.825,242.633h-0.957v-0.647h-1.201v-0.788h1.201v-0.731h-1.201v-0.77h1.201v-1.763h0.957V242.633z"/>
		<path d="M62.61,238.412c0,1.47-0.094,2.658-0.281,3.564h1.285v0.779h-3.312v3.536h-0.957v-3.536h-3.283v-0.779h5.347
			c0.144-0.675,0.222-1.601,0.235-2.776H57.02v-0.788H62.61z"/>
		<path d="M23.43,256.451v-5.412l-1.125,0.244v-0.572l1.585-0.713h0.516v6.453H23.43z"/>
		<path d="M28.195,256.526c-0.738,0-1.301-0.247-1.688-0.741c-0.388-0.494-0.582-1.191-0.582-2.092v-0.469
			c0-1.113,0.238-1.936,0.713-2.467c0.475-0.532,1.113-0.798,1.914-0.798c0.575,0,1.069,0.125,1.482,0.375l-0.225,0.713
			c-0.125-0.068-0.305-0.133-0.54-0.192c-0.234-0.059-0.455-0.089-0.661-0.089c-0.532,0-0.939,0.169-1.224,0.507
			s-0.445,0.929-0.483,1.772c0.432-0.406,0.941-0.609,1.529-0.609c0.557,0,1.013,0.172,1.37,0.516s0.535,0.813,0.535,1.407
			c0,0.632-0.191,1.15-0.572,1.558C29.38,256.323,28.857,256.526,28.195,256.526z M28.176,255.775c0.369,0,0.66-0.117,0.873-0.352
			c0.212-0.234,0.319-0.561,0.319-0.98c0-0.844-0.4-1.266-1.201-1.266c-0.244,0-0.481,0.07-0.713,0.211s-0.416,0.305-0.553,0.492
			v0.057C26.9,255.163,27.326,255.775,28.176,255.775z"/>
		<path d="M33.738,256.526c-0.719,0-1.301-0.25-1.745-0.751c-0.444-0.5-0.666-1.266-0.666-2.298v-0.45
			c0-1.062,0.227-1.84,0.68-2.331c0.453-0.49,1.036-0.736,1.749-0.736c0.701,0,1.27,0.244,1.708,0.731
			c0.438,0.488,0.656,1.254,0.656,2.299v0.479c0,1.044-0.219,1.814-0.656,2.312C35.026,256.277,34.451,256.526,33.738,256.526z
			 M33.738,255.756c0.463,0,0.808-0.173,1.037-0.521c0.228-0.347,0.342-0.905,0.342-1.674v-0.582c0-1.501-0.457-2.251-1.37-2.251
			c-0.925,0-1.388,0.731-1.388,2.194v0.582C32.359,255.006,32.819,255.756,33.738,255.756z"/>
		<path d="M39.732,256.526c-0.719,0-1.301-0.25-1.745-0.751c-0.444-0.5-0.666-1.266-0.666-2.298v-0.45
			c0-1.062,0.227-1.84,0.68-2.331c0.453-0.49,1.036-0.736,1.749-0.736c0.701,0,1.27,0.244,1.708,0.731
			c0.438,0.488,0.656,1.254,0.656,2.299v0.479c0,1.044-0.219,1.814-0.656,2.312C41.02,256.277,40.445,256.526,39.732,256.526z
			 M39.732,255.756c0.463,0,0.808-0.173,1.037-0.521c0.228-0.347,0.342-0.905,0.342-1.674v-0.582c0-1.501-0.457-2.251-1.37-2.251
			c-0.925,0-1.388,0.731-1.388,2.194v0.582C38.353,255.006,38.812,255.756,39.732,255.756z"/>
		<path d="M45.829,256.414v-6.848h0.919v6.848H45.829z M48.671,256.414l-1.839-2.477l1.764-2.308h0.985l-1.754,2.251l1.885,2.533
			H48.671z"/>
		<path d="M51.41,256.469c-0.507,0-0.923-0.081-1.248-0.244v-0.76c0.4,0.138,0.766,0.207,1.097,0.207
			c0.65,0,0.976-0.338,0.976-1.014v-4.671h0.985v4.728c0,0.525-0.15,0.949-0.45,1.271C52.47,256.308,52.017,256.469,51.41,256.469z"
			/>
		<path d="M53.952,257.389l2.232-7.955h0.825l-2.232,7.955H53.952z"/>
		<path d="M61.972,251.404c0,0.544-0.2,0.987-0.6,1.328c-0.4,0.341-0.91,0.511-1.529,0.511c-0.606,0-1.113-0.167-1.52-0.502
			c-0.406-0.334-0.609-0.78-0.609-1.337c0-0.556,0.202-1.014,0.605-1.374c0.403-0.359,0.911-0.539,1.524-0.539
			s1.121,0.178,1.524,0.534S61.972,250.841,61.972,251.404z M61.024,251.395c0-0.319-0.108-0.583-0.324-0.793
			c-0.216-0.209-0.502-0.314-0.858-0.314c-0.325,0-0.604,0.108-0.834,0.324c-0.231,0.216-0.347,0.477-0.347,0.783
			s0.112,0.558,0.337,0.755s0.507,0.296,0.844,0.296c0.35,0,0.635-0.102,0.854-0.306C60.915,251.937,61.024,251.689,61.024,251.395z
			 M64.636,257.483h-5.712v-2.186h4.483v-0.686h-4.521v-0.778h5.478v2.177h-4.475v0.713h4.747V257.483z M64.354,253.402h-0.957
			v-4.211h0.957V253.402z"/>
		<path d="M69.982,250.823l0.122,1.791c0.719-0.019,1.082-0.027,1.088-0.027l0.103-1.773l0.929,0.094l-0.178,1.623
			c0.269-0.019,0.672-0.057,1.21-0.112l0.075,0.731c-0.601,0.1-1.479,0.178-2.636,0.234c-0.869,0.05-1.691,0.075-2.467,0.075
			l-0.131-0.807c0.225,0,0.606-0.006,1.145-0.019l-0.197-1.727L69.982,250.823z M72.984,250.438h-4.615v-0.77h4.615V250.438z
			 M75.216,257.483h-5.712v-2.13h4.474v-0.647h-4.512v-0.769h5.469v2.129H70.47v0.657h4.747V257.483z M74.935,253.505h-0.957v-4.314
			h0.957V253.505z"/>
		<path d="M83.724,256.488h-7.551v-0.769h1.745v-1.454l0.976-0.01v1.464h2.083v-1.464l0.966,0.01v1.454h1.782V256.488z
			 M82.983,251.901c0,0.639-0.278,1.156-0.835,1.553c-0.557,0.397-1.291,0.596-2.204,0.596c-0.9,0-1.629-0.198-2.186-0.596
			c-0.557-0.396-0.835-0.914-0.835-1.553c0-0.631,0.278-1.147,0.835-1.547c0.557-0.4,1.285-0.601,2.186-0.601
			c0.913,0,1.647,0.2,2.204,0.601C82.705,250.753,82.983,251.27,82.983,251.901z M81.435,252.881
			c0.375-0.247,0.563-0.573,0.563-0.98c0-0.406-0.188-0.732-0.563-0.979c-0.375-0.247-0.872-0.371-1.491-0.371
			c-0.613,0-1.107,0.124-1.482,0.371c-0.375,0.247-0.563,0.573-0.563,0.979c0,0.407,0.188,0.733,0.563,0.98
			c0.375,0.247,0.869,0.371,1.482,0.371C80.563,253.253,81.06,253.128,81.435,252.881z"/>
	</g>
	<g>
		<path d="M25.659,183.847l0.084,0.694c-1.351,0.182-3.105,0.285-5.262,0.31l-0.141-0.769c0.969,0,1.704-0.003,2.205-0.009v-0.394
			c-0.457-0.05-0.816-0.164-1.079-0.342s-0.394-0.408-0.394-0.689c0-0.325,0.175-0.585,0.525-0.779
			c0.35-0.194,0.819-0.291,1.407-0.291s1.06,0.097,1.417,0.291s0.535,0.454,0.535,0.779c0,0.275-0.13,0.501-0.389,0.68
			c-0.26,0.178-0.615,0.292-1.065,0.343v0.366C24.54,183.972,25.259,183.909,25.659,183.847z M25.368,181.389H20.66v-0.703h4.708
			V181.389z M27.413,188.002h-5.712v-1.754h4.456v-0.459h-4.484v-0.666h5.44v1.745h-4.446v0.469h4.746V188.002z M21.86,180.357
			v-0.685h2.335v0.685H21.86z M24.018,182.646c0-0.131-0.092-0.235-0.277-0.31c-0.185-0.075-0.43-0.113-0.736-0.113
			c-0.3,0-0.542,0.038-0.727,0.113c-0.184,0.075-0.276,0.178-0.276,0.31c0,0.125,0.092,0.225,0.276,0.3
			c0.185,0.075,0.427,0.113,0.727,0.113c0.307,0,0.552-0.038,0.736-0.113C23.925,182.871,24.018,182.771,24.018,182.646z
			 M28.313,182.758h-1.201v1.914h-0.957v-5.037h0.957v2.326h1.201V182.758z"/>
		<path d="M33.604,183.424l-0.553,0.75c-0.369-0.156-0.735-0.397-1.098-0.722s-0.632-0.679-0.807-1.06
			c-0.125,0.419-0.375,0.813-0.75,1.182c-0.375,0.369-0.782,0.638-1.219,0.807l-0.582-0.741c0.619-0.244,1.116-0.61,1.491-1.098
			c0.375-0.488,0.563-1.047,0.563-1.679v-0.835h0.985v0.797c0,0.613,0.197,1.154,0.591,1.623
			C32.619,182.918,33.079,183.243,33.604,183.424z M35.63,186.342c0,0.5-0.251,0.9-0.755,1.201c-0.503,0.3-1.202,0.45-2.097,0.45
			c-0.888,0-1.582-0.15-2.082-0.45c-0.5-0.3-0.75-0.701-0.75-1.201c0-0.507,0.25-0.912,0.75-1.215
			c0.5-0.303,1.194-0.455,2.082-0.455c0.895,0,1.593,0.152,2.097,0.455S35.63,185.835,35.63,186.342z M34.636,186.342
			c0-0.282-0.163-0.5-0.488-0.657s-0.782-0.234-1.37-0.234c-0.575,0-1.025,0.08-1.351,0.239c-0.325,0.16-0.488,0.377-0.488,0.652
			c0,0.275,0.163,0.491,0.488,0.647s0.775,0.234,1.351,0.234c0.588,0,1.044-0.078,1.37-0.234S34.636,186.617,34.636,186.342z
			 M35.555,184.55h-0.957v-2.364h-1.529v-0.788h1.529v-1.764h0.957V184.55z"/>
		<path d="M41.896,185.657l0.075,0.741c-1.426,0.188-3.177,0.288-5.253,0.3l-0.131-0.797c0.981,0,1.732-0.01,2.251-0.028v-0.75
			c-0.488-0.062-0.88-0.22-1.177-0.474c-0.297-0.253-0.445-0.561-0.445-0.924c0-0.413,0.189-0.75,0.567-1.013
			s0.865-0.394,1.458-0.394c0.594,0,1.081,0.131,1.459,0.394c0.378,0.263,0.567,0.601,0.567,1.013c0,0.337-0.133,0.632-0.399,0.882
			c-0.266,0.25-0.621,0.416-1.064,0.497v0.731C40.717,185.773,41.415,185.713,41.896,185.657z M41.633,182.018h-4.831v-0.75h4.831
			V182.018z M38.013,180.798v-0.75h2.439v0.75H38.013z M39.982,184.198c0.194-0.122,0.291-0.28,0.291-0.474
			s-0.097-0.354-0.291-0.479s-0.441-0.188-0.741-0.188c-0.294,0-0.539,0.062-0.736,0.188c-0.197,0.125-0.295,0.285-0.295,0.479
			s0.097,0.352,0.291,0.474s0.441,0.183,0.741,0.183C39.542,184.381,39.789,184.32,39.982,184.198z M43.34,179.635v3.555h1.191
			v0.797H43.34v4.005h-0.957v-8.358H43.34z"/>
		<path d="M50.403,183.856l0.047,0.741c-1.407,0.175-3.23,0.275-5.469,0.3L44.85,184.1c0.488,0,1.263-0.006,2.326-0.019v-1.032
			h-1.52v-2.814h3.912v0.769h-2.955v1.275h3.039v0.77h-1.52v0.994C49.083,184,49.84,183.937,50.403,183.856z M51.914,187.749h-5.609
			v-2.345h0.976v1.585h4.634V187.749z M51.82,179.635v6.163h-0.966v-6.163H51.82z"/>
		<path d="M59.146,183.968h-3.339v-3.799h0.957v1.163h1.426v-1.182h0.957V183.968z M58.188,183.199v-1.107h-1.426v1.107H58.188z
			 M56.829,184.963h5.684v3.039h-0.947v-2.27h-4.737V184.963z M62.513,184.522h-0.919v-2.073h-0.741v1.979h-0.91v-4.644h0.91v1.857
			h0.741v-2.007h0.919V184.522z"/>
		<path d="M68.113,181.539h-4.512v-0.741h4.512V181.539z M67.916,183.087c0,0.394-0.185,0.707-0.553,0.938
			c-0.369,0.231-0.841,0.347-1.417,0.347c-0.562,0-1.029-0.117-1.397-0.352c-0.369-0.234-0.554-0.545-0.554-0.933
			c0-0.381,0.183-0.687,0.549-0.915c0.366-0.229,0.833-0.343,1.402-0.343c0.575,0,1.047,0.114,1.417,0.343
			C67.731,182.4,67.916,182.706,67.916,183.087z M64.745,180.367v-0.741h2.448v0.741H64.745z M66.987,183.087
			c0-0.169-0.102-0.305-0.305-0.408s-0.449-0.155-0.736-0.155s-0.532,0.052-0.731,0.155c-0.2,0.103-0.3,0.239-0.3,0.408
			c0,0.188,0.1,0.332,0.3,0.431c0.2,0.1,0.444,0.15,0.731,0.15c0.294,0,0.541-0.05,0.741-0.15
			C66.887,183.419,66.987,183.274,66.987,183.087z M70.739,187.964h-5.703v-1.932h4.483v-0.507h-4.521v-0.741h5.478v1.941h-4.475
			v0.507h4.737V187.964z M70.467,184.335H69.51v-0.647H68.31v-0.788h1.201v-0.731H68.31v-0.769h1.201v-1.764h0.957V184.335z"/>
		<path d="M78.252,180.113c0,1.47-0.094,2.658-0.281,3.564h1.285v0.778h-3.312v3.537h-0.957v-3.537h-3.283v-0.778h5.347
			c0.144-0.675,0.222-1.601,0.235-2.776h-4.625v-0.788H78.252z"/>
		<path d="M87.37,184.578h-7.551V183.8h7.551V184.578z M86.498,187.768h-5.703v-2.458h0.966v1.688h4.737V187.768z M86.441,182.777
			h-5.6v-2.871h0.966v2.101h4.634V182.777z"/>
		<path d="M28.243,198.151v-5.412l-1.125,0.244v-0.572l1.585-0.713h0.516v6.454H28.243z"/>
		<path d="M30.907,198.217v-1.013h1.032v1.013H30.907z"/>
		<path d="M33.121,198.114v-0.572l1.351-1.407c0.538-0.569,0.932-1.037,1.182-1.402c0.25-0.366,0.375-0.74,0.375-1.121
			c0-0.4-0.105-0.692-0.314-0.877s-0.527-0.277-0.952-0.277c-0.432,0-0.885,0.157-1.36,0.469l-0.197-0.741
			c0.569-0.35,1.163-0.525,1.782-0.525c0.669,0,1.18,0.161,1.534,0.483c0.353,0.322,0.53,0.774,0.53,1.355
			c0,0.269-0.044,0.528-0.131,0.778s-0.23,0.513-0.427,0.788c-0.197,0.275-0.372,0.499-0.525,0.67
			c-0.153,0.172-0.377,0.415-0.67,0.727l-0.863,0.863h2.702v0.788H33.121z"/>
		<path d="M40.747,194.456c0.169,0.125,0.288,0.213,0.356,0.263c0.069,0.05,0.175,0.108,0.319,0.173
			c0.144,0.066,0.272,0.099,0.384,0.099c0.169,0,0.322-0.084,0.46-0.253c0.137-0.168,0.219-0.381,0.244-0.638
			c0.094,0.031,0.219,0.067,0.375,0.108s0.282,0.077,0.375,0.108c-0.056,0.513-0.222,0.896-0.497,1.149
			c-0.275,0.253-0.601,0.377-0.976,0.371c-0.4-0.019-0.763-0.144-1.088-0.375c-0.487-0.381-0.838-0.582-1.05-0.601h0.009
			c-0.182-0.025-0.349,0.036-0.502,0.183s-0.255,0.349-0.305,0.605c-0.082-0.038-0.197-0.086-0.347-0.146
			c-0.15-0.06-0.269-0.111-0.356-0.155c0.119-0.513,0.33-0.877,0.633-1.093s0.633-0.295,0.99-0.239
			C40.09,194.059,40.416,194.206,40.747,194.456z"/>
		<path d="M45.287,198.151v-5.412l-1.125,0.244v-0.572l1.585-0.713h0.516v6.454H45.287z"/>
		<path d="M47.951,198.217v-1.013h1.032v1.013H47.951z"/>
		<path d="M51.731,198.227c-0.719,0-1.323-0.153-1.811-0.46l0.178-0.76c0.444,0.275,0.91,0.413,1.398,0.413
			c0.469,0,0.836-0.116,1.102-0.347c0.266-0.231,0.398-0.554,0.398-0.966c0-0.819-0.488-1.229-1.463-1.229
			c-0.413,0-0.848,0.106-1.304,0.319l0.235-3.433h3.273v0.778h-2.523l-0.112,1.726c0.281-0.081,0.56-0.122,0.835-0.122
			c0.663,0,1.172,0.164,1.529,0.493c0.356,0.328,0.535,0.821,0.535,1.477c0,0.601-0.205,1.103-0.614,1.506
			C52.977,198.025,52.425,198.227,51.731,198.227z"/>
		<path d="M58.203,197.082h-3.292v-5.309h0.966v1.951h1.37v-1.97h0.957V197.082z M57.246,196.313v-1.829h-1.37v1.829H57.246z
			 M61.72,199.249h-0.919v-4.23h-0.807v3.836h-0.91v-7.795h0.91v3.152h0.807v-3.321h0.919V199.249z"/>
		<path d="M67.179,192.524l0.122,1.792c0.719-0.019,1.082-0.028,1.088-0.028l0.103-1.772l0.929,0.094l-0.178,1.623
			c0.269-0.019,0.672-0.056,1.21-0.112l0.075,0.731c-0.601,0.1-1.479,0.178-2.636,0.234c-0.869,0.05-1.691,0.075-2.467,0.075
			l-0.131-0.807c0.225,0,0.606-0.006,1.145-0.019l-0.197-1.726L67.179,192.524z M70.181,192.139h-4.615v-0.769h4.615V192.139z
			 M72.414,199.183h-5.712v-2.129h4.474v-0.647h-4.512v-0.769h5.469v2.129h-4.465v0.657h4.747V199.183z M72.132,195.206h-0.957
			v-4.315h0.957V195.206z"/>
		<path d="M80.921,198.189H73.37v-0.769h1.745v-1.454l0.976-0.009v1.463h2.083v-1.463l0.966,0.009v1.454h1.782V198.189z
			 M80.18,193.602c0,0.638-0.278,1.155-0.835,1.552c-0.557,0.397-1.291,0.596-2.204,0.596c-0.9,0-1.629-0.198-2.186-0.596
			c-0.557-0.397-0.835-0.915-0.835-1.552c0-0.631,0.278-1.147,0.835-1.548c0.557-0.4,1.285-0.6,2.186-0.6
			c0.913,0,1.647,0.2,2.204,0.6C79.902,192.455,80.18,192.971,80.18,193.602z M78.632,194.582c0.375-0.247,0.563-0.573,0.563-0.98
			c0-0.406-0.188-0.733-0.563-0.98c-0.375-0.247-0.872-0.37-1.491-0.37c-0.613,0-1.107,0.124-1.482,0.37
			c-0.375,0.248-0.563,0.574-0.563,0.98c0,0.407,0.188,0.733,0.563,0.98c0.375,0.248,0.869,0.371,1.482,0.371
			C77.76,194.953,78.257,194.83,78.632,194.582z"/>
	</g>
	<g>
		<path d="M163.605,272.341v-5.412l-1.126,0.244v-0.572l1.586-0.713h0.516v6.453H163.605z"/>
		<path d="M168.37,272.417c-0.738,0-1.301-0.247-1.688-0.741s-0.582-1.191-0.582-2.092v-0.469c0-1.113,0.238-1.936,0.713-2.467
			c0.476-0.532,1.113-0.798,1.914-0.798c0.575,0,1.069,0.125,1.482,0.375l-0.226,0.713c-0.125-0.068-0.305-0.133-0.539-0.192
			c-0.234-0.059-0.455-0.089-0.661-0.089c-0.532,0-0.94,0.169-1.225,0.507s-0.445,0.929-0.483,1.772
			c0.432-0.406,0.941-0.609,1.529-0.609c0.557,0,1.013,0.172,1.369,0.516s0.535,0.813,0.535,1.407c0,0.632-0.19,1.15-0.572,1.558
			C169.555,272.213,169.033,272.417,168.37,272.417z M168.352,271.666c0.368,0,0.659-0.117,0.872-0.352s0.319-0.561,0.319-0.98
			c0-0.844-0.4-1.266-1.201-1.266c-0.244,0-0.481,0.07-0.713,0.211s-0.416,0.305-0.554,0.492v0.057
			C167.075,271.053,167.501,271.666,168.352,271.666z"/>
		<path d="M173.913,272.417c-0.719,0-1.301-0.25-1.744-0.751c-0.444-0.5-0.666-1.266-0.666-2.298v-0.45
			c0-1.062,0.227-1.84,0.68-2.331c0.453-0.49,1.037-0.736,1.75-0.736c0.7,0,1.27,0.244,1.707,0.731
			c0.438,0.488,0.656,1.254,0.656,2.299v0.479c0,1.044-0.219,1.814-0.656,2.312S174.626,272.417,173.913,272.417z M173.913,271.647
			c0.463,0,0.809-0.173,1.037-0.521c0.229-0.347,0.342-0.905,0.342-1.674v-0.582c0-1.501-0.456-2.251-1.369-2.251
			c-0.926,0-1.389,0.731-1.389,2.194v0.582C172.534,270.897,172.994,271.647,173.913,271.647z"/>
		<path d="M179.907,272.417c-0.719,0-1.301-0.25-1.744-0.751c-0.444-0.5-0.666-1.266-0.666-2.298v-0.45
			c0-1.062,0.227-1.84,0.68-2.331c0.453-0.49,1.037-0.736,1.75-0.736c0.7,0,1.27,0.244,1.707,0.731
			c0.438,0.488,0.656,1.254,0.656,2.299v0.479c0,1.044-0.219,1.814-0.656,2.312S180.62,272.417,179.907,272.417z M179.907,271.647
			c0.463,0,0.809-0.173,1.037-0.521c0.229-0.347,0.342-0.905,0.342-1.674v-0.582c0-1.501-0.456-2.251-1.369-2.251
			c-0.926,0-1.389,0.731-1.389,2.194v0.582C178.528,270.897,178.988,271.647,179.907,271.647z"/>
		<path d="M186.005,272.304v-6.848h0.919v6.848H186.005z M188.847,272.304l-1.838-2.477l1.763-2.308h0.985l-1.754,2.251l1.886,2.533
			H188.847z"/>
		<path d="M191.586,272.36c-0.507,0-0.923-0.081-1.248-0.244v-0.76c0.4,0.138,0.767,0.207,1.098,0.207
			c0.65,0,0.976-0.338,0.976-1.014v-4.671h0.985v4.728c0,0.525-0.15,0.949-0.45,1.271
			C192.646,272.199,192.192,272.36,191.586,272.36z"/>
		<path d="M194.128,273.28l2.232-7.955h0.825l-2.232,7.955H194.128z"/>
		<path d="M202.147,267.294c0,0.544-0.2,0.987-0.601,1.328s-0.909,0.511-1.528,0.511c-0.607,0-1.113-0.167-1.52-0.502
			c-0.407-0.334-0.61-0.78-0.61-1.337c0-0.556,0.202-1.014,0.605-1.374c0.403-0.359,0.911-0.539,1.524-0.539
			c0.612,0,1.12,0.178,1.524,0.534C201.946,266.272,202.147,266.732,202.147,267.294z M201.2,267.286
			c0-0.319-0.108-0.583-0.323-0.793c-0.216-0.209-0.502-0.314-0.858-0.314c-0.325,0-0.604,0.108-0.835,0.324
			s-0.348,0.477-0.348,0.783s0.113,0.558,0.338,0.755c0.226,0.197,0.507,0.296,0.845,0.296c0.35,0,0.635-0.102,0.854-0.306
			C201.091,267.828,201.2,267.58,201.2,267.286z M204.812,273.374h-5.713v-2.186h4.484v-0.686h-4.521v-0.778h5.478v2.177h-4.474
			v0.713h4.746V273.374z M204.53,269.293h-0.957v-4.211h0.957V269.293z"/>
		<path d="M143.509,283.672c-0.738,0-1.301-0.247-1.688-0.741s-0.582-1.191-0.582-2.092v-0.469c0-1.113,0.238-1.936,0.713-2.467
			c0.476-0.532,1.113-0.798,1.914-0.798c0.575,0,1.069,0.125,1.482,0.375l-0.226,0.713c-0.125-0.068-0.305-0.133-0.539-0.192
			c-0.234-0.059-0.455-0.089-0.661-0.089c-0.532,0-0.94,0.169-1.225,0.507s-0.445,0.929-0.483,1.772
			c0.432-0.406,0.941-0.609,1.529-0.609c0.557,0,1.013,0.172,1.369,0.516s0.535,0.813,0.535,1.407c0,0.632-0.19,1.15-0.572,1.558
			C144.693,283.469,144.172,283.672,143.509,283.672z M143.49,282.921c0.368,0,0.659-0.117,0.872-0.352s0.319-0.561,0.319-0.98
			c0-0.844-0.4-1.266-1.201-1.266c-0.244,0-0.481,0.07-0.713,0.211s-0.416,0.305-0.554,0.492v0.057
			C142.214,282.309,142.64,282.921,143.49,282.921z"/>
		<path d="M148.574,277.106c0.744,0,1.315,0.242,1.716,0.728c0.4,0.484,0.601,1.174,0.601,2.068v0.431
			c0,1.132-0.229,1.972-0.685,2.519c-0.457,0.548-1.088,0.821-1.895,0.821c-0.301,0-0.593-0.039-0.877-0.117
			c-0.285-0.078-0.509-0.171-0.671-0.277l0.196-0.722c0.363,0.213,0.798,0.318,1.305,0.318c0.519,0,0.916-0.164,1.19-0.492
			c0.275-0.328,0.429-0.893,0.46-1.693c-0.412,0.413-0.922,0.619-1.529,0.619c-0.55,0-1.007-0.18-1.369-0.539
			s-0.544-0.84-0.544-1.439c0-0.639,0.185-1.168,0.554-1.59C147.395,277.317,147.911,277.106,148.574,277.106z M148.593,277.866
			c-0.363,0-0.649,0.127-0.858,0.38c-0.21,0.254-0.314,0.587-0.314,0.999c0,0.438,0.111,0.768,0.333,0.99
			c0.222,0.222,0.518,0.333,0.887,0.333c0.244,0,0.482-0.071,0.718-0.212c0.234-0.141,0.42-0.301,0.558-0.482v-0.169
			C149.915,278.479,149.475,277.866,148.593,277.866z"/>
		<path d="M154.398,280.122c-0.281,0.316-0.656,0.474-1.125,0.474c-0.47,0-0.842-0.149-1.116-0.45
			c-0.275-0.3-0.413-0.709-0.413-1.229v-0.159c0-0.52,0.139-0.938,0.417-1.257c0.278-0.319,0.649-0.479,1.112-0.479
			c0.469,0,0.844,0.151,1.125,0.455c0.281,0.303,0.423,0.711,0.423,1.224v0.159C154.821,279.385,154.68,279.806,154.398,280.122z
			 M153.273,280.014c0.475,0,0.713-0.362,0.713-1.088v-0.226c0-0.719-0.238-1.079-0.713-1.079c-0.47,0-0.704,0.356-0.704,1.069
			v0.226C152.569,279.648,152.804,280.014,153.273,280.014z M152.776,283.925l4.427-6.969h0.77l-4.428,6.969H152.776z
			 M157.569,283.634c-0.476,0-0.853-0.148-1.131-0.445s-0.417-0.708-0.417-1.233v-0.15c0-0.513,0.143-0.932,0.427-1.257
			s0.658-0.487,1.121-0.487c0.469,0,0.841,0.151,1.116,0.455c0.275,0.303,0.412,0.714,0.412,1.233v0.141
			c0,0.531-0.137,0.955-0.412,1.271C158.41,283.477,158.038,283.634,157.569,283.634z M157.569,283.044
			c0.244,0,0.422-0.086,0.534-0.258c0.113-0.172,0.169-0.448,0.169-0.83v-0.206c0-0.726-0.234-1.088-0.703-1.088
			c-0.476,0-0.713,0.359-0.713,1.078v0.216C156.856,282.681,157.094,283.044,157.569,283.044z"/>
		<path d="M167.277,281.281h-7.551v-0.779h7.551V281.281z M166.405,284.469h-5.703v-2.457h0.966v1.688h4.737V284.469z
			 M166.349,279.479h-5.6v-2.87h0.966v2.102h4.634V279.479z"/>
		<path d="M174.181,278.711v0.769h-2.626v1.014c1.507,0,2.629-0.078,3.367-0.234l0.141,0.74c-0.77,0.176-1.982,0.27-3.64,0.282
			h-0.825v-4.297h3.733v0.779h-2.776v0.947H174.181z M177.042,284.432h-5.534v-2.552h0.956v1.773h4.578V284.432z M178.018,279.461
			h-1.22v2.917h-0.966v-6.04h0.966v2.326h1.22V279.461z"/>
		<path d="M182.661,284.704h-0.957v-3.039h-3.283v-0.76h7.551v0.76h-3.311V284.704z M185.653,279.301l-0.441,0.778
			c-0.632-0.106-1.239-0.344-1.824-0.713s-0.98-0.781-1.187-1.238c-0.175,0.45-0.554,0.86-1.135,1.229
			c-0.582,0.369-1.201,0.613-1.857,0.732l-0.422-0.788c0.769-0.088,1.447-0.356,2.035-0.807s0.882-0.967,0.882-1.548v-0.422h1.013
			v0.422c0,0.382,0.152,0.749,0.455,1.103c0.304,0.353,0.679,0.639,1.126,0.857C184.745,279.127,185.196,279.257,185.653,279.301z"
			/>
		<path d="M191.646,282.359l0.075,0.741c-1.426,0.188-3.177,0.288-5.253,0.3l-0.132-0.797c0.982,0,1.732-0.01,2.252-0.028v-0.75
			c-0.488-0.062-0.881-0.221-1.178-0.474c-0.297-0.254-0.445-0.562-0.445-0.925c0-0.412,0.189-0.75,0.567-1.013
			s0.864-0.394,1.459-0.394c0.594,0,1.08,0.131,1.458,0.394c0.379,0.263,0.567,0.601,0.567,1.013c0,0.338-0.133,0.632-0.398,0.882
			c-0.266,0.251-0.62,0.416-1.064,0.497v0.732C190.468,282.475,191.165,282.416,191.646,282.359z M191.384,278.719h-4.831v-0.75
			h4.831V278.719z M187.763,277.501v-0.751h2.439v0.751H187.763z M189.733,280.901c0.193-0.122,0.29-0.28,0.29-0.475
			c0-0.193-0.097-0.353-0.29-0.478c-0.194-0.125-0.441-0.188-0.741-0.188c-0.294,0-0.54,0.063-0.736,0.188
			c-0.197,0.125-0.296,0.284-0.296,0.478c0,0.194,0.097,0.353,0.291,0.475c0.193,0.121,0.44,0.183,0.741,0.183
			C189.292,281.084,189.539,281.022,189.733,280.901z M193.091,276.337v3.555h1.191v0.797h-1.191v4.006h-0.957v-8.357H193.091z"/>
		<path d="M201.514,284.638h-5.9v-2.092h4.625v-0.544h-4.662v-0.778h2.354v-0.694h-3.283v-0.778h7.551v0.778h-3.311v0.694h2.308
			v2.045h-4.615v0.601h4.934V284.638z M201.195,279.161h-5.544v-2.599h5.544V279.161z M200.229,278.391v-1.051h-3.611v1.051H200.229
			z"/>
		<path d="M209.581,281.468h-2.579v1.397h3.311v0.769h-7.551v-0.769h3.283v-1.397h-2.317v-2.702h4.653v-1.078H203.7v-0.77h5.637
			v2.627h-4.643v1.144h4.887V281.468z"/>
		<path d="M215.115,284.704h-0.957v-2.813h-3.283v-0.778h7.551v0.778h-3.311V284.704z M217.488,280.117h-5.675v-3.461h0.947v1.004
			h3.771v-1.022h0.957V280.117z M216.531,279.338v-0.919h-3.771v0.919H216.531z"/>
		<path d="M222.751,279.377v0.778h-2.467v1.839c1.426,0,2.561-0.085,3.404-0.254l0.141,0.76c-0.825,0.176-2.032,0.27-3.62,0.281
			h-0.872v-5.693h3.826v0.76h-2.879v1.529H222.751z M225.865,284.695h-0.957v-4.503h-1.51v-0.797h1.51v-3.058h0.957V284.695z"/>
		<path d="M133.435,294.911c-0.75,0-1.344-0.15-1.782-0.45l0.179-0.723c0.169,0.106,0.393,0.197,0.671,0.272
			c0.278,0.074,0.536,0.112,0.773,0.112c0.476,0,0.838-0.099,1.088-0.296c0.25-0.196,0.376-0.479,0.376-0.849
			c0-0.707-0.473-1.066-1.417-1.079l-0.619-0.009v-0.741l0.554-0.01c0.394-0.006,0.705-0.099,0.934-0.276
			c0.228-0.179,0.342-0.427,0.342-0.746c0-0.638-0.394-0.956-1.182-0.956c-0.375,0-0.825,0.128-1.351,0.384l-0.122-0.74
			c0.2-0.125,0.463-0.23,0.788-0.314c0.325-0.085,0.635-0.127,0.929-0.127c0.588,0,1.057,0.14,1.407,0.418
			c0.35,0.278,0.524,0.667,0.524,1.167c0,0.726-0.391,1.223-1.172,1.492c0.932,0.182,1.397,0.706,1.397,1.575
			c0,0.576-0.21,1.035-0.629,1.379C134.704,294.739,134.142,294.911,133.435,294.911z"/>
		<path d="M137.759,294.854v-5.412l-1.126,0.244v-0.572l1.586-0.713h0.516v6.453H137.759z"/>
		<path d="M142.777,291.378c-0.281,0.316-0.656,0.474-1.125,0.474c-0.47,0-0.842-0.149-1.116-0.45
			c-0.275-0.3-0.413-0.709-0.413-1.229v-0.159c0-0.52,0.139-0.938,0.417-1.257c0.278-0.319,0.649-0.479,1.112-0.479
			c0.469,0,0.844,0.151,1.125,0.455c0.281,0.303,0.423,0.711,0.423,1.224v0.159C143.2,290.642,143.059,291.063,142.777,291.378z
			 M141.652,291.271c0.475,0,0.713-0.362,0.713-1.088v-0.226c0-0.719-0.238-1.079-0.713-1.079c-0.47,0-0.704,0.356-0.704,1.069
			v0.226C140.948,290.905,141.183,291.271,141.652,291.271z M141.155,295.182l4.427-6.969h0.77l-4.428,6.969H141.155z
			 M145.948,294.891c-0.476,0-0.853-0.148-1.131-0.445s-0.417-0.708-0.417-1.233v-0.15c0-0.513,0.143-0.932,0.427-1.257
			s0.658-0.487,1.121-0.487c0.469,0,0.841,0.151,1.116,0.455c0.275,0.303,0.412,0.714,0.412,1.233v0.141
			c0,0.531-0.137,0.955-0.412,1.271C146.789,294.734,146.417,294.891,145.948,294.891z M145.948,294.3
			c0.244,0,0.422-0.086,0.534-0.258c0.113-0.172,0.169-0.448,0.169-0.83v-0.206c0-0.726-0.234-1.088-0.703-1.088
			c-0.476,0-0.713,0.359-0.713,1.078v0.216C145.235,293.938,145.473,294.3,145.948,294.3z"/>
		<path d="M155.656,292.538h-7.551v-0.779h7.551V292.538z M154.784,295.726h-5.703v-2.457h0.966v1.688h4.737V295.726z
			 M154.728,290.736h-5.6v-2.87h0.966v2.102h4.634V290.736z"/>
		<path d="M163.91,293.231l-0.562,0.704c-0.406-0.226-0.819-0.572-1.238-1.041c-0.419-0.47-0.694-0.91-0.825-1.323
			c-0.112,0.463-0.361,0.937-0.746,1.421c-0.385,0.485-0.82,0.855-1.309,1.112l-0.609-0.704c0.682-0.381,1.213-0.896,1.595-1.543
			c0.381-0.647,0.572-1.387,0.572-2.219v-0.412h-1.745v-0.76h4.437v0.76h-1.697v0.403c0,0.812,0.193,1.529,0.581,2.147
			C162.75,292.396,163.267,292.881,163.91,293.231z M165.57,295.952h-0.956v-8.357h0.956V295.952z"/>
		<path d="M170.926,291.88h-3.893v-3.855H168v1.21h1.97v-1.229h0.956V291.88z M173.394,294.292c0,0.506-0.249,0.908-0.746,1.205
			s-1.189,0.445-2.078,0.445c-0.881,0-1.569-0.148-2.063-0.445s-0.741-0.699-0.741-1.205c0-0.507,0.247-0.912,0.741-1.215
			c0.494-0.304,1.183-0.455,2.063-0.455c0.895,0,1.589,0.15,2.083,0.45S173.394,293.779,173.394,294.292z M169.97,291.112v-1.126
			H168v1.126H169.97z M171.921,294.938c0.324-0.156,0.487-0.371,0.487-0.646s-0.161-0.493-0.483-0.652
			c-0.321-0.159-0.773-0.239-1.355-0.239c-0.568,0-1.013,0.08-1.331,0.239c-0.319,0.159-0.479,0.377-0.479,0.652
			s0.159,0.49,0.479,0.646c0.318,0.157,0.763,0.235,1.331,0.235C171.146,295.173,171.596,295.095,171.921,294.938z M174.51,290.436
			h-1.22v2.063h-0.966v-4.905h0.966v2.044h1.22V290.436z"/>
		<path d="M182.464,294.836h-7.551v-0.76h7.551V294.836z M180.884,288.841c0.56,0.394,0.84,0.9,0.84,1.52s-0.278,1.126-0.835,1.52
			c-0.557,0.395-1.292,0.591-2.205,0.591c-0.9,0-1.629-0.196-2.186-0.591c-0.557-0.394-0.834-0.9-0.834-1.52
			c0-0.612,0.277-1.117,0.834-1.515s1.285-0.596,2.186-0.596C179.591,288.251,180.324,288.448,180.884,288.841z M180.738,290.371
			c0-0.4-0.188-0.723-0.562-0.967c-0.376-0.243-0.873-0.365-1.492-0.365c-0.612,0-1.106,0.122-1.481,0.365
			c-0.375,0.244-0.562,0.566-0.562,0.967c0,0.394,0.188,0.711,0.562,0.952c0.375,0.24,0.869,0.36,1.481,0.36
			c0.619,0,1.116-0.12,1.492-0.36C180.551,291.082,180.738,290.764,180.738,290.371z"/>
		<path d="M189.846,292.725h-2.579v1.397h3.311v0.769h-7.551v-0.769h3.283v-1.397h-2.317v-2.702h4.653v-1.078h-4.681v-0.77h5.637
			v2.627h-4.643v1.144h4.887V292.725z"/>
		<path d="M197.848,295.961h-0.957v-2.813h-3.283v-0.778h7.551v0.778h-3.311V295.961z M200.221,291.374h-5.675v-3.461h0.947v1.004
			h3.771v-1.022h0.957V291.374z M199.264,290.595v-0.919h-3.771v0.919H199.264z"/>
		<path d="M205.482,290.633v0.778h-2.467v1.839c1.426,0,2.561-0.085,3.404-0.254l0.141,0.76c-0.825,0.176-2.032,0.27-3.62,0.281
			h-0.872v-5.693h3.826v0.76h-2.879v1.529H205.482z M208.597,295.952h-0.957v-4.503h-1.51v-0.797h1.51v-3.058h0.957V295.952z"/>
		<path d="M219.853,292.059h-7.551v-0.76h2.937v-1.492h0.966v1.492h3.648V292.059z M218.155,293.208
			c0.506,0.285,0.76,0.671,0.76,1.159c0,0.487-0.254,0.872-0.76,1.153c-0.507,0.281-1.22,0.422-2.139,0.422
			s-1.636-0.143-2.148-0.427s-0.769-0.667-0.769-1.148c0-0.488,0.256-0.874,0.769-1.159c0.513-0.284,1.229-0.427,2.148-0.427
			S217.648,292.923,218.155,293.208z M218.877,287.922c0.031,1.094-0.053,2.072-0.253,2.936l-0.929-0.131
			c0.163-0.65,0.234-1.329,0.216-2.036h-4.718v-0.769H218.877z M216.017,293.559c-0.601,0-1.071,0.071-1.412,0.212
			s-0.511,0.339-0.511,0.596c0,0.262,0.17,0.462,0.511,0.6s0.812,0.207,1.412,0.207s1.069-0.069,1.407-0.207
			c0.337-0.138,0.506-0.338,0.506-0.6c0-0.257-0.17-0.455-0.511-0.596S216.61,293.559,216.017,293.559z"/>
		<path d="M226.963,287.922c0,1.145-0.085,2.132-0.254,2.964h1.238v0.778h-7.551v-0.778h5.384c0.145-0.65,0.216-1.382,0.216-2.195
			h-4.615v-0.769H226.963z M226.981,295.839h-5.619v-3.452h0.957v0.976h3.705v-0.994h0.957V295.839z M226.024,295.07v-0.957h-3.705
			v0.957H226.024z"/>
		<path d="M234.044,291.42l0.037,0.741c-1.476,0.182-3.295,0.281-5.459,0.301l-0.141-0.798c0.757,0,1.532-0.009,2.326-0.028v-0.854
			h-1.51v-2.748h3.902v0.77h-2.945v1.2h3.029v0.778h-1.51v0.816C232.668,291.568,233.425,291.508,234.044,291.42z M235.451,295.848
			h-5.572v-2.833h5.572V295.848z M234.494,295.08v-1.305h-3.658v1.305H234.494z M235.451,287.594v5.018h-0.957v-5.018H235.451z"/>
	</g>
	<g>
		<path d="M31.201,136.22c-0.75,0-1.345-0.15-1.782-0.45l0.178-0.722c0.169,0.106,0.392,0.197,0.67,0.272s0.536,0.113,0.774,0.113
			c0.475,0,0.838-0.099,1.088-0.296c0.25-0.197,0.375-0.479,0.375-0.849c0-0.707-0.472-1.066-1.417-1.079l-0.619-0.009v-0.741
			l0.554-0.009c0.394-0.006,0.705-0.099,0.933-0.277c0.229-0.178,0.342-0.427,0.342-0.746c0-0.638-0.394-0.957-1.182-0.957
			c-0.375,0-0.826,0.128-1.351,0.385l-0.122-0.741c0.2-0.125,0.463-0.229,0.788-0.314c0.325-0.084,0.634-0.127,0.928-0.127
			c0.588,0,1.057,0.14,1.407,0.417c0.35,0.278,0.525,0.667,0.525,1.168c0,0.726-0.391,1.223-1.173,1.491
			c0.932,0.182,1.398,0.707,1.398,1.576c0,0.575-0.209,1.035-0.628,1.379S31.907,136.22,31.201,136.22z"/>
		<path d="M36.988,136.239c-0.719,0-1.301-0.25-1.745-0.75c-0.444-0.5-0.666-1.267-0.666-2.298v-0.45c0-1.063,0.227-1.84,0.68-2.331
			c0.453-0.491,1.036-0.736,1.749-0.736c0.701,0,1.27,0.244,1.708,0.732c0.438,0.488,0.656,1.254,0.656,2.298v0.479
			c0,1.044-0.219,1.815-0.656,2.312C38.276,135.991,37.701,136.239,36.988,136.239z M36.988,135.47c0.463,0,0.808-0.173,1.037-0.521
			c0.228-0.347,0.342-0.905,0.342-1.674v-0.582c0-1.501-0.457-2.251-1.37-2.251c-0.925,0-1.388,0.731-1.388,2.195v0.582
			C35.609,134.72,36.069,135.47,36.988,135.47z"/>
		<path d="M43.141,132.468c0.169,0.125,0.288,0.213,0.356,0.263c0.069,0.05,0.175,0.108,0.319,0.173
			c0.144,0.066,0.272,0.099,0.384,0.099c0.169,0,0.322-0.084,0.46-0.253c0.137-0.168,0.219-0.381,0.244-0.638
			c0.094,0.031,0.219,0.067,0.375,0.108s0.282,0.077,0.375,0.108c-0.056,0.513-0.222,0.896-0.497,1.149
			c-0.275,0.253-0.601,0.377-0.976,0.371c-0.4-0.019-0.763-0.144-1.088-0.375c-0.487-0.381-0.838-0.582-1.05-0.601h0.009
			c-0.182-0.025-0.349,0.036-0.502,0.183s-0.255,0.349-0.305,0.605c-0.082-0.038-0.197-0.086-0.347-0.146
			c-0.15-0.06-0.269-0.111-0.356-0.155c0.119-0.513,0.33-0.877,0.633-1.093s0.633-0.295,0.99-0.239
			C42.485,132.071,42.81,132.218,43.141,132.468z"/>
		<path d="M48.919,136.239c-0.738,0-1.301-0.247-1.688-0.741c-0.388-0.494-0.582-1.191-0.582-2.092v-0.469
			c0-1.113,0.238-1.936,0.713-2.467c0.475-0.531,1.113-0.797,1.914-0.797c0.575,0,1.069,0.125,1.482,0.375l-0.225,0.713
			c-0.125-0.069-0.305-0.133-0.54-0.192c-0.234-0.06-0.455-0.089-0.661-0.089c-0.532,0-0.939,0.169-1.224,0.507
			c-0.285,0.337-0.445,0.929-0.483,1.773c0.432-0.407,0.941-0.61,1.529-0.61c0.557,0,1.013,0.172,1.37,0.516
			c0.356,0.344,0.535,0.813,0.535,1.407c0,0.632-0.191,1.151-0.572,1.557C50.104,136.036,49.582,136.239,48.919,136.239z
			 M48.9,135.489c0.369,0,0.66-0.117,0.873-0.352c0.212-0.234,0.319-0.561,0.319-0.98c0-0.844-0.4-1.266-1.201-1.266
			c-0.244,0-0.481,0.07-0.713,0.211s-0.416,0.305-0.553,0.492v0.057C47.625,134.876,48.05,135.489,48.9,135.489z"/>
		<path d="M54.463,136.239c-0.719,0-1.301-0.25-1.745-0.75c-0.444-0.5-0.666-1.267-0.666-2.298v-0.45c0-1.063,0.227-1.84,0.68-2.331
			c0.453-0.491,1.036-0.736,1.749-0.736c0.701,0,1.27,0.244,1.708,0.732c0.438,0.488,0.656,1.254,0.656,2.298v0.479
			c0,1.044-0.219,1.815-0.656,2.312C55.751,135.991,55.176,136.239,54.463,136.239z M54.463,135.47c0.463,0,0.808-0.173,1.037-0.521
			c0.228-0.347,0.342-0.905,0.342-1.674v-0.582c0-1.501-0.457-2.251-1.37-2.251c-0.925,0-1.388,0.731-1.388,2.195v0.582
			C53.084,134.72,53.543,135.47,54.463,135.47z"/>
		<path d="M60.485,132.689c-0.282,0.315-0.657,0.474-1.126,0.474c-0.469,0-0.841-0.15-1.116-0.45c-0.275-0.3-0.413-0.71-0.413-1.229
			v-0.16c0-0.519,0.139-0.938,0.417-1.257s0.648-0.479,1.111-0.479c0.469,0,0.844,0.152,1.126,0.455
			c0.281,0.304,0.422,0.711,0.422,1.224v0.16C60.907,131.953,60.767,132.373,60.485,132.689z M59.359,132.581
			c0.475,0,0.713-0.363,0.713-1.088v-0.225c0-0.719-0.238-1.079-0.713-1.079c-0.469,0-0.703,0.356-0.703,1.069v0.225
			C58.656,132.215,58.891,132.581,59.359,132.581z M58.862,136.492l4.427-6.969h0.77l-4.428,6.969H58.862z M63.656,136.202
			c-0.476,0-0.852-0.148-1.13-0.446c-0.278-0.297-0.417-0.708-0.417-1.233v-0.15c0-0.513,0.142-0.932,0.427-1.257
			s0.658-0.488,1.121-0.488c0.469,0,0.841,0.151,1.116,0.455c0.275,0.304,0.413,0.715,0.413,1.234v0.141
			c0,0.531-0.138,0.955-0.413,1.271C64.497,136.044,64.125,136.202,63.656,136.202z M63.656,135.611
			c0.244,0,0.422-0.086,0.535-0.258c0.112-0.172,0.168-0.448,0.168-0.83v-0.206c0-0.726-0.234-1.088-0.703-1.088
			c-0.476,0-0.713,0.36-0.713,1.079v0.216C62.943,135.248,63.18,135.611,63.656,135.611z"/>
		<path d="M73.842,134.354l0.075,0.77c-1.676,0.181-3.527,0.278-5.553,0.291l-0.15-0.825c1.107,0.012,2.032-0.003,2.776-0.047
			C72.116,134.498,73.066,134.435,73.842,134.354z M73.101,131.559c0,0.569-0.208,1.029-0.624,1.379s-0.937,0.525-1.562,0.525
			c-0.619,0-1.13-0.176-1.533-0.53c-0.404-0.353-0.605-0.812-0.605-1.374c0-0.575,0.205-1.052,0.615-1.431
			c0.409-0.378,0.917-0.567,1.524-0.567c0.625,0,1.146,0.188,1.562,0.562C72.893,130.499,73.101,130.977,73.101,131.559z
			 M72.135,131.549c0-0.35-0.116-0.631-0.347-0.844c-0.231-0.213-0.522-0.319-0.873-0.319c-0.332,0-0.614,0.11-0.849,0.329
			s-0.352,0.497-0.352,0.834c0,0.326,0.117,0.59,0.352,0.793s0.517,0.305,0.849,0.305c0.338,0,0.625-0.102,0.863-0.305
			C72.016,132.139,72.135,131.875,72.135,131.549z M75.268,128.904v8.358h-0.957v-8.358H75.268z"/>
		<path d="M24.04,144.493H20.7v-3.799h0.957v1.163h1.426v-1.182h0.957V144.493z M23.083,143.724v-1.107h-1.426v1.107H23.083z
			 M21.723,145.488h5.684v3.039h-0.947v-2.27h-4.737V145.488z M27.407,145.047h-0.919v-2.073h-0.741v1.979h-0.91v-4.644h0.91v1.857
			h0.741v-2.007h0.919V145.047z"/>
		<path d="M33.007,142.064h-4.512v-0.741h4.512V142.064z M32.81,143.612c0,0.394-0.185,0.707-0.553,0.938
			c-0.369,0.231-0.841,0.347-1.417,0.347c-0.562,0-1.029-0.117-1.397-0.352c-0.369-0.234-0.554-0.545-0.554-0.933
			c0-0.381,0.183-0.687,0.549-0.915c0.366-0.229,0.833-0.343,1.402-0.343c0.575,0,1.047,0.114,1.417,0.343
			C32.625,142.925,32.81,143.231,32.81,143.612z M29.639,140.892v-0.741h2.448v0.741H29.639z M31.881,143.612
			c0-0.169-0.102-0.305-0.305-0.408s-0.449-0.155-0.736-0.155s-0.532,0.052-0.731,0.155c-0.2,0.103-0.3,0.239-0.3,0.408
			c0,0.188,0.1,0.332,0.3,0.431c0.2,0.1,0.444,0.15,0.731,0.15c0.294,0,0.541-0.05,0.741-0.15
			C31.781,143.943,31.881,143.799,31.881,143.612z M35.633,148.489H29.93v-1.932h4.483v-0.507h-4.521v-0.741h5.478v1.941h-4.475
			v0.507h4.737V148.489z M35.361,144.859h-0.957v-0.647h-1.201v-0.788h1.201v-0.731h-1.201v-0.769h1.201v-1.764h0.957V144.859z"/>
		<path d="M43.146,140.638c0,1.47-0.094,2.658-0.281,3.564h1.285v0.778h-3.312v3.537h-0.957v-3.537h-3.283v-0.778h5.347
			c0.144-0.675,0.222-1.601,0.235-2.776h-4.625v-0.788H43.146z"/>
		<path d="M49.009,141.042c-0.069,2.607-1.316,4.578-3.743,5.909l-0.601-0.731c0.944-0.432,1.712-1.047,2.303-1.848
			c0.591-0.801,0.927-1.648,1.009-2.542h-2.824v-0.788H49.009z M52.442,144.221h-1.238v4.296h-0.966v-8.358h0.966v3.264h1.238
			V144.221z"/>
		<path d="M60.396,144.372l0.084,0.694c-1.351,0.182-3.105,0.285-5.262,0.31l-0.141-0.769c0.969,0,1.704-0.003,2.205-0.009v-0.394
			c-0.457-0.05-0.816-0.164-1.079-0.342s-0.394-0.408-0.394-0.689c0-0.325,0.175-0.585,0.525-0.779
			c0.35-0.194,0.819-0.291,1.407-0.291s1.06,0.097,1.417,0.291s0.535,0.454,0.535,0.779c0,0.275-0.13,0.501-0.389,0.68
			c-0.26,0.178-0.615,0.292-1.065,0.343v0.366C59.276,144.497,59.996,144.434,60.396,144.372z M60.105,141.914h-4.708v-0.703h4.708
			V141.914z M62.15,148.527h-5.712v-1.754h4.456v-0.459h-4.484v-0.666h5.44v1.745h-4.446v0.469h4.746V148.527z M56.597,140.882
			v-0.685h2.335v0.685H56.597z M58.754,143.171c0-0.131-0.092-0.235-0.277-0.31c-0.185-0.075-0.43-0.113-0.736-0.113
			c-0.3,0-0.542,0.038-0.727,0.113c-0.184,0.075-0.276,0.178-0.276,0.31c0,0.125,0.092,0.225,0.276,0.3
			c0.185,0.075,0.427,0.113,0.727,0.113c0.307,0,0.552-0.038,0.736-0.113C58.662,143.396,58.754,143.296,58.754,143.171z
			 M63.05,143.283H61.85v1.914h-0.957v-5.037h0.957v2.326h1.201V143.283z"/>
		<path d="M68.341,143.949l-0.553,0.75c-0.369-0.156-0.735-0.397-1.098-0.722s-0.632-0.679-0.807-1.06
			c-0.125,0.419-0.375,0.813-0.75,1.182c-0.375,0.369-0.782,0.638-1.219,0.807l-0.582-0.741c0.619-0.244,1.116-0.61,1.491-1.098
			c0.375-0.488,0.563-1.047,0.563-1.679v-0.835h0.985v0.797c0,0.613,0.197,1.154,0.591,1.623
			C67.356,143.443,67.815,143.768,68.341,143.949z M70.367,146.867c0,0.5-0.251,0.9-0.755,1.201c-0.503,0.3-1.202,0.45-2.097,0.45
			c-0.888,0-1.582-0.15-2.082-0.45c-0.5-0.3-0.75-0.701-0.75-1.201c0-0.507,0.25-0.912,0.75-1.215
			c0.5-0.303,1.194-0.455,2.082-0.455c0.895,0,1.593,0.152,2.097,0.455S70.367,146.36,70.367,146.867z M69.373,146.867
			c0-0.282-0.163-0.5-0.488-0.657s-0.782-0.234-1.37-0.234c-0.575,0-1.025,0.08-1.351,0.239c-0.325,0.16-0.488,0.377-0.488,0.652
			c0,0.275,0.163,0.491,0.488,0.647s0.775,0.234,1.351,0.234c0.588,0,1.044-0.078,1.37-0.234S69.373,147.142,69.373,146.867z
			 M70.292,145.075h-0.957v-2.364h-1.529v-0.788h1.529v-1.764h0.957V145.075z"/>
		<path d="M76.633,146.182l0.075,0.741c-1.426,0.188-3.177,0.288-5.253,0.3l-0.131-0.797c0.981,0,1.732-0.01,2.251-0.028v-0.75
			c-0.488-0.062-0.88-0.22-1.177-0.474c-0.297-0.253-0.445-0.561-0.445-0.924c0-0.413,0.189-0.75,0.567-1.013
			s0.865-0.394,1.458-0.394c0.594,0,1.081,0.131,1.459,0.394c0.378,0.263,0.567,0.601,0.567,1.013c0,0.337-0.133,0.632-0.399,0.882
			c-0.266,0.25-0.621,0.416-1.064,0.497v0.731C75.454,146.297,76.151,146.238,76.633,146.182z M76.37,142.543H71.54v-0.75h4.831
			V142.543z M72.75,141.323v-0.75h2.439v0.75H72.75z M74.719,144.723c0.194-0.122,0.291-0.28,0.291-0.474s-0.097-0.354-0.291-0.479
			s-0.441-0.188-0.741-0.188c-0.294,0-0.539,0.062-0.736,0.188c-0.197,0.125-0.295,0.285-0.295,0.479s0.097,0.352,0.291,0.474
			s0.441,0.183,0.741,0.183C74.278,144.906,74.525,144.845,74.719,144.723z M78.077,140.16v3.555h1.191v0.797h-1.191v4.005h-0.957
			v-8.358H78.077z"/>
		<path d="M85.15,143.987l0.038,0.741c-1.476,0.181-3.296,0.281-5.459,0.3l-0.141-0.797c0.757,0,1.532-0.009,2.326-0.028v-0.854
			h-1.51v-2.749h3.902v0.769H81.36v1.201h3.03v0.779h-1.51v0.816C83.774,144.134,84.531,144.074,85.15,143.987z M86.557,148.414
			h-5.572v-2.833h5.572V148.414z M85.6,147.645v-1.304h-3.658v1.304H85.6z M86.557,140.16v5.019H85.6v-5.019H86.557z"/>
	</g>
	<g>
		<path d="M28.696,80l0.084,0.694c-1.351,0.182-3.105,0.285-5.262,0.31l-0.141-0.769c0.969,0,1.704-0.003,2.205-0.009v-0.394
			c-0.457-0.05-0.816-0.164-1.079-0.342s-0.394-0.408-0.394-0.689c0-0.325,0.175-0.585,0.525-0.779
			c0.35-0.194,0.819-0.291,1.407-0.291s1.06,0.097,1.417,0.291s0.535,0.454,0.535,0.779c0,0.275-0.13,0.501-0.389,0.68
			c-0.26,0.178-0.615,0.292-1.065,0.343v0.366C27.577,80.125,28.296,80.062,28.696,80z M28.405,77.542h-4.708v-0.703h4.708V77.542z
			 M30.45,84.155h-5.712V82.4h4.456v-0.459h-4.484v-0.666h5.44v1.745h-4.446v0.469h4.746V84.155z M24.897,76.51v-0.685h2.335v0.685
			H24.897z M27.055,78.799c0-0.131-0.092-0.235-0.277-0.31c-0.185-0.075-0.43-0.113-0.736-0.113c-0.3,0-0.542,0.038-0.727,0.113
			c-0.184,0.075-0.276,0.178-0.276,0.31c0,0.125,0.092,0.225,0.276,0.3c0.185,0.075,0.427,0.113,0.727,0.113
			c0.307,0,0.552-0.038,0.736-0.113C26.962,79.024,27.055,78.924,27.055,78.799z M31.351,78.911H30.15v1.914h-0.957v-5.037h0.957
			v2.326h1.201V78.911z"/>
		<path d="M36.641,79.577l-0.553,0.75c-0.369-0.156-0.735-0.397-1.098-0.722s-0.632-0.679-0.807-1.06
			c-0.125,0.419-0.375,0.813-0.75,1.182c-0.375,0.369-0.782,0.638-1.219,0.807l-0.582-0.741c0.619-0.244,1.116-0.61,1.491-1.098
			c0.375-0.488,0.563-1.047,0.563-1.679v-0.835h0.985v0.797c0,0.613,0.197,1.154,0.591,1.623
			C35.656,79.071,36.116,79.396,36.641,79.577z M38.667,82.495c0,0.5-0.251,0.9-0.755,1.201c-0.503,0.3-1.202,0.45-2.097,0.45
			c-0.888,0-1.582-0.15-2.082-0.45c-0.5-0.3-0.75-0.701-0.75-1.201c0-0.507,0.25-0.912,0.75-1.215
			c0.5-0.303,1.194-0.455,2.082-0.455c0.895,0,1.593,0.152,2.097,0.455S38.667,81.988,38.667,82.495z M37.673,82.495
			c0-0.282-0.163-0.5-0.488-0.657s-0.782-0.234-1.37-0.234c-0.575,0-1.025,0.08-1.351,0.239c-0.325,0.16-0.488,0.377-0.488,0.652
			c0,0.275,0.163,0.491,0.488,0.647s0.775,0.234,1.351,0.234c0.588,0,1.044-0.078,1.37-0.234S37.673,82.77,37.673,82.495z
			 M38.592,80.703h-0.957v-2.364h-1.529v-0.788h1.529v-1.764h0.957V80.703z"/>
		<path d="M44.933,81.81l0.075,0.741c-1.426,0.188-3.177,0.288-5.253,0.3l-0.131-0.797c0.981,0,1.732-0.01,2.251-0.028v-0.75
			c-0.488-0.062-0.88-0.22-1.177-0.474c-0.297-0.253-0.445-0.561-0.445-0.924c0-0.413,0.189-0.75,0.567-1.013
			s0.865-0.394,1.458-0.394c0.594,0,1.081,0.131,1.459,0.394c0.378,0.263,0.567,0.601,0.567,1.013c0,0.337-0.133,0.632-0.399,0.882
			c-0.266,0.25-0.621,0.416-1.064,0.497v0.731C43.754,81.925,44.452,81.866,44.933,81.81z M44.67,78.17H39.84v-0.75h4.831V78.17z
			 M41.05,76.951V76.2h2.439v0.75H41.05z M43.02,80.351c0.194-0.122,0.291-0.28,0.291-0.474s-0.097-0.354-0.291-0.479
			s-0.441-0.188-0.741-0.188c-0.294,0-0.539,0.062-0.736,0.188c-0.197,0.125-0.295,0.285-0.295,0.479s0.097,0.352,0.291,0.474
			s0.441,0.183,0.741,0.183C42.579,80.534,42.826,80.473,43.02,80.351z M46.377,75.788v3.555h1.191v0.797h-1.191v4.005h-0.957
			v-8.358H46.377z"/>
		<path d="M53.44,80.009l0.047,0.741c-1.407,0.175-3.23,0.275-5.469,0.3l-0.131-0.797c0.488,0,1.263-0.006,2.326-0.019v-1.032h-1.52
			v-2.814h3.912v0.769h-2.955v1.275h3.039v0.77h-1.52v0.994C52.121,80.153,52.877,80.09,53.44,80.009z M54.951,83.901h-5.609v-2.345
			h0.976v1.585h4.634V83.901z M54.857,75.788v6.163h-0.966v-6.163H54.857z"/>
		<path d="M62.183,80.121h-3.339v-3.799H59.8v1.163h1.426v-1.182h0.957V80.121z M61.226,79.352v-1.107H59.8v1.107H61.226z
			 M59.866,81.116h5.684v3.039h-0.947v-2.27h-4.737V81.116z M65.55,80.675h-0.919v-2.073H63.89v1.979h-0.91v-4.644h0.91v1.857h0.741
			v-2.007h0.919V80.675z"/>
		<path d="M71.15,77.692h-4.512v-0.741h4.512V77.692z M70.953,79.24c0,0.394-0.185,0.707-0.553,0.938
			c-0.369,0.231-0.841,0.347-1.417,0.347c-0.562,0-1.029-0.117-1.397-0.352c-0.369-0.234-0.554-0.545-0.554-0.933
			c0-0.381,0.183-0.687,0.549-0.915c0.366-0.229,0.833-0.343,1.402-0.343c0.575,0,1.047,0.114,1.417,0.343
			C70.768,78.553,70.953,78.858,70.953,79.24z M67.782,76.52v-0.741h2.448v0.741H67.782z M70.024,79.24
			c0-0.169-0.102-0.305-0.305-0.408s-0.449-0.155-0.736-0.155s-0.532,0.052-0.731,0.155c-0.2,0.103-0.3,0.239-0.3,0.408
			c0,0.188,0.1,0.332,0.3,0.431c0.2,0.1,0.444,0.15,0.731,0.15c0.294,0,0.541-0.05,0.741-0.15
			C69.924,79.571,70.024,79.427,70.024,79.24z M73.776,84.117h-5.703v-1.932h4.483v-0.507h-4.521v-0.741h5.478v1.941h-4.475v0.507
			h4.737V84.117z M73.504,80.487h-0.957V79.84h-1.201v-0.788h1.201V78.32h-1.201v-0.769h1.201v-1.764h0.957V80.487z"/>
		<path d="M81.29,76.266c0,1.47-0.094,2.658-0.281,3.564h1.285v0.778h-3.312v3.537h-0.957v-3.537h-3.283v-0.778h5.347
			c0.144-0.675,0.222-1.601,0.235-2.776h-4.625v-0.788H81.29z"/>
		<path d="M14.542,93.253h-3.939v-5.525h0.966v2.036h1.998v-2.045h0.976V93.253z M13.566,92.475v-1.951h-1.998v1.951H13.566z
			 M17.065,95.401h-0.957v-8.358h0.957V95.401z"/>
		<path d="M23.406,91.255l0.084,0.694c-1.351,0.182-3.105,0.285-5.262,0.31l-0.141-0.769c0.969,0,1.704-0.003,2.205-0.009v-0.394
			c-0.457-0.05-0.816-0.164-1.079-0.342s-0.394-0.408-0.394-0.689c0-0.325,0.175-0.585,0.525-0.779
			c0.35-0.194,0.819-0.291,1.407-0.291s1.06,0.097,1.417,0.291s0.535,0.454,0.535,0.779c0,0.275-0.13,0.501-0.389,0.68
			c-0.26,0.178-0.615,0.292-1.065,0.343v0.366C22.287,91.38,23.006,91.318,23.406,91.255z M23.115,88.797h-4.708v-0.703h4.708
			V88.797z M25.16,95.411h-5.712v-1.754h4.456v-0.459h-4.484v-0.666h5.44v1.745h-4.446v0.469h4.746V95.411z M19.607,87.766v-0.685
			h2.335v0.685H19.607z M21.765,90.055c0-0.131-0.092-0.235-0.277-0.31c-0.185-0.075-0.43-0.113-0.736-0.113
			c-0.3,0-0.542,0.038-0.727,0.113c-0.184,0.075-0.276,0.178-0.276,0.31c0,0.125,0.092,0.225,0.276,0.3
			c0.185,0.075,0.427,0.113,0.727,0.113c0.307,0,0.552-0.038,0.736-0.113C21.672,90.28,21.765,90.18,21.765,90.055z M26.061,90.167
			H24.86v1.914h-0.957v-5.037h0.957v2.326h1.201V90.167z"/>
		<path d="M31.351,90.833l-0.553,0.75c-0.369-0.156-0.735-0.397-1.098-0.722s-0.632-0.679-0.807-1.06
			c-0.125,0.419-0.375,0.813-0.75,1.182c-0.375,0.369-0.782,0.638-1.219,0.807l-0.582-0.741c0.619-0.244,1.116-0.61,1.491-1.098
			c0.375-0.488,0.563-1.047,0.563-1.679v-0.835h0.985v0.797c0,0.613,0.197,1.154,0.591,1.623
			C30.366,90.327,30.826,90.652,31.351,90.833z M33.377,93.751c0,0.5-0.251,0.9-0.755,1.201c-0.503,0.3-1.202,0.45-2.097,0.45
			c-0.888,0-1.582-0.15-2.082-0.45c-0.5-0.3-0.75-0.701-0.75-1.201c0-0.507,0.25-0.912,0.75-1.215
			c0.5-0.303,1.194-0.455,2.082-0.455c0.895,0,1.593,0.152,2.097,0.455S33.377,93.244,33.377,93.751z M32.383,93.751
			c0-0.282-0.163-0.5-0.488-0.657s-0.782-0.234-1.37-0.234c-0.575,0-1.025,0.08-1.351,0.239c-0.325,0.16-0.488,0.377-0.488,0.652
			c0,0.275,0.163,0.491,0.488,0.647s0.775,0.234,1.351,0.234c0.588,0,1.044-0.078,1.37-0.234S32.383,94.025,32.383,93.751z
			 M33.302,91.959h-0.957v-2.364h-1.529v-0.788h1.529v-1.764h0.957V91.959z"/>
		<path d="M39.643,93.065l0.075,0.741c-1.426,0.188-3.177,0.288-5.253,0.3l-0.131-0.797c0.981,0,1.732-0.01,2.251-0.028v-0.75
			c-0.488-0.062-0.88-0.22-1.177-0.474c-0.297-0.253-0.445-0.561-0.445-0.924c0-0.413,0.189-0.75,0.567-1.013
			s0.865-0.394,1.458-0.394c0.594,0,1.081,0.131,1.459,0.394c0.378,0.263,0.567,0.601,0.567,1.013c0,0.337-0.133,0.632-0.399,0.882
			c-0.266,0.25-0.621,0.416-1.064,0.497v0.731C38.464,93.181,39.161,93.122,39.643,93.065z M39.38,89.426h-4.831v-0.75h4.831V89.426
			z M35.759,88.207v-0.75h2.439v0.75H35.759z M37.729,91.607c0.194-0.122,0.291-0.28,0.291-0.474s-0.097-0.354-0.291-0.479
			s-0.441-0.188-0.741-0.188c-0.294,0-0.539,0.062-0.736,0.188c-0.197,0.125-0.295,0.285-0.295,0.479s0.097,0.352,0.291,0.474
			s0.441,0.183,0.741,0.183C37.288,91.79,37.535,91.729,37.729,91.607z M41.087,87.044v3.555h1.191v0.797h-1.191v4.005H40.13v-8.358
			H41.087z"/>
		<path d="M48.15,91.265l0.047,0.741c-1.407,0.175-3.23,0.275-5.469,0.3l-0.131-0.797c0.488,0,1.263-0.006,2.326-0.019v-1.032h-1.52
			v-2.814h3.912v0.769h-2.955v1.275H47.4v0.77h-1.52v0.994C46.831,91.409,47.587,91.346,48.15,91.265z M49.661,95.157h-5.609v-2.345
			h0.976v1.585h4.634V95.157z M49.567,87.044v6.163h-0.966v-6.163H49.567z"/>
		<path d="M56.893,91.377h-3.339v-3.799h0.957v1.163h1.426V87.56h0.957V91.377z M55.936,90.608v-1.107H54.51v1.107H55.936z
			 M54.576,92.372h5.684v3.039h-0.947v-2.27h-4.737V92.372z M60.26,91.931h-0.919v-2.073H58.6v1.979h-0.91v-4.644h0.91v1.857h0.741
			v-2.007h0.919V91.931z"/>
		<path d="M65.86,88.948h-4.512v-0.741h4.512V88.948z M65.663,90.496c0,0.394-0.185,0.707-0.553,0.938
			c-0.369,0.231-0.841,0.347-1.417,0.347c-0.562,0-1.029-0.117-1.397-0.352c-0.369-0.234-0.554-0.545-0.554-0.933
			c0-0.381,0.183-0.687,0.549-0.915c0.366-0.229,0.833-0.343,1.402-0.343c0.575,0,1.047,0.114,1.417,0.343
			C65.478,89.809,65.663,90.114,65.663,90.496z M62.492,87.775v-0.741h2.448v0.741H62.492z M64.734,90.496
			c0-0.169-0.102-0.305-0.305-0.408s-0.449-0.155-0.736-0.155s-0.532,0.052-0.731,0.155c-0.2,0.103-0.3,0.239-0.3,0.408
			c0,0.188,0.1,0.332,0.3,0.431c0.2,0.1,0.444,0.15,0.731,0.15c0.294,0,0.541-0.05,0.741-0.15
			C64.634,90.827,64.734,90.683,64.734,90.496z M68.486,95.373h-5.703v-1.932h4.483v-0.507h-4.521v-0.741h5.478v1.941h-4.475v0.507
			h4.737V95.373z M68.214,91.743h-0.957v-0.647h-1.201v-0.788h1.201v-0.731h-1.201v-0.769h1.201v-1.764h0.957V91.743z"/>
		<path d="M76,87.522c0,1.47-0.094,2.658-0.281,3.564h1.285v0.778h-3.312v3.537h-0.957v-3.537h-3.283v-0.778h5.347
			c0.144-0.675,0.222-1.601,0.235-2.776h-4.625v-0.788H76z"/>
		<path d="M84.807,89.032h-4.84V88.3h4.84V89.032z M84.338,90.664c0,0.388-0.177,0.707-0.53,0.957
			c-0.354,0.25-0.824,0.375-1.412,0.375c-0.594,0-1.069-0.125-1.426-0.375s-0.535-0.569-0.535-0.957
			c0-0.394,0.178-0.716,0.535-0.966s0.832-0.375,1.426-0.375c0.588,0,1.059,0.125,1.412,0.375
			C84.162,89.948,84.338,90.271,84.338,90.664z M86.524,95.326h-5.356v-3.039h0.966v0.769h3.424v-0.788h0.966V95.326z
			 M81.177,87.822v-0.741h2.448v0.741H81.177z M83.128,91.119c0.206-0.116,0.31-0.267,0.31-0.455c0-0.188-0.104-0.342-0.31-0.464
			c-0.207-0.122-0.45-0.183-0.732-0.183c-0.281,0-0.528,0.061-0.741,0.183c-0.213,0.122-0.319,0.277-0.319,0.464
			c0,0.188,0.106,0.339,0.319,0.455c0.212,0.116,0.459,0.173,0.741,0.173C82.678,91.293,82.922,91.235,83.128,91.119z
			 M85.558,94.566v-0.741h-3.424v0.741H85.558z M87.753,89.951h-1.229v1.895h-0.966v-4.803h0.966v2.101h1.229V89.951z"/>
		<path d="M93.165,93.178l-0.516,0.713c-0.425-0.2-0.844-0.518-1.257-0.952s-0.685-0.855-0.816-1.262
			c-0.106,0.432-0.356,0.875-0.75,1.332s-0.832,0.807-1.313,1.051l-0.601-0.694c1.432-0.775,2.148-1.942,2.148-3.499v-0.141h-1.735
			v-0.769h4.437v0.769h-1.707v0.141c0,0.794,0.193,1.468,0.582,2.021C92.023,92.442,92.533,92.872,93.165,93.178z M89.281,88.273
			v-0.76h2.514v0.76H89.281z M95.031,95.401h-0.957v-2.88h-1.36v-0.778h1.36v-0.901h-1.36v-0.788h1.36v-3.011h0.957V95.401z"/>
		<path d="M9.997,105.56v-5.412l-1.125,0.244v-0.572l1.585-0.713h0.516v6.454H9.997z"/>
		<path d="M12.98,105.542l2.401-5.562h-3.039V99.2h4.108v0.591l-2.383,5.75H12.98z"/>
		<path d="M18.833,105.635c-0.719,0-1.323-0.153-1.811-0.46l0.178-0.76c0.444,0.275,0.91,0.413,1.398,0.413
			c0.469,0,0.836-0.116,1.102-0.347c0.266-0.231,0.398-0.554,0.398-0.966c0-0.819-0.488-1.229-1.463-1.229
			c-0.413,0-0.848,0.106-1.304,0.319l0.235-3.433h3.273v0.778h-2.523l-0.112,1.726c0.281-0.081,0.56-0.122,0.835-0.122
			c0.663,0,1.172,0.164,1.529,0.493c0.356,0.328,0.535,0.821,0.535,1.477c0,0.601-0.205,1.103-0.614,1.506
			C20.079,105.434,19.527,105.635,18.833,105.635z"/>
		<path d="M24.479,105.635c-0.719,0-1.301-0.25-1.745-0.75c-0.444-0.5-0.666-1.267-0.666-2.298v-0.45c0-1.063,0.227-1.84,0.68-2.331
			c0.453-0.491,1.036-0.736,1.749-0.736c0.701,0,1.27,0.244,1.708,0.732c0.438,0.488,0.656,1.254,0.656,2.298v0.479
			c0,1.044-0.219,1.815-0.656,2.312C25.768,105.387,25.192,105.635,24.479,105.635z M24.479,104.866
			c0.463,0,0.808-0.173,1.037-0.521c0.228-0.347,0.342-0.905,0.342-1.674v-0.582c0-1.501-0.457-2.251-1.37-2.251
			c-0.925,0-1.388,0.731-1.388,2.195v0.582C23.101,104.116,23.56,104.866,24.479,104.866z"/>
		<path d="M30.633,101.864c0.169,0.125,0.288,0.213,0.356,0.263c0.069,0.05,0.175,0.108,0.319,0.173
			c0.144,0.066,0.272,0.099,0.384,0.099c0.169,0,0.322-0.084,0.46-0.253c0.137-0.168,0.219-0.381,0.244-0.638
			c0.094,0.031,0.219,0.067,0.375,0.108s0.282,0.077,0.375,0.108c-0.056,0.513-0.222,0.896-0.497,1.149
			c-0.275,0.253-0.601,0.377-0.976,0.371c-0.4-0.019-0.763-0.144-1.088-0.375c-0.487-0.381-0.838-0.582-1.05-0.601h0.009
			c-0.182-0.025-0.349,0.036-0.502,0.183s-0.255,0.349-0.305,0.605c-0.082-0.038-0.197-0.086-0.347-0.146
			c-0.15-0.06-0.269-0.111-0.356-0.155c0.119-0.513,0.33-0.877,0.633-1.093s0.633-0.295,0.99-0.239
			C29.977,101.467,30.302,101.614,30.633,101.864z"/>
		<path d="M34.179,105.523v-0.572l1.351-1.407c0.538-0.569,0.932-1.037,1.182-1.402c0.25-0.366,0.375-0.74,0.375-1.121
			c0-0.4-0.105-0.692-0.314-0.877s-0.527-0.277-0.952-0.277c-0.432,0-0.885,0.157-1.36,0.469l-0.197-0.741
			c0.569-0.35,1.163-0.525,1.782-0.525c0.669,0,1.18,0.161,1.534,0.483c0.353,0.322,0.53,0.774,0.53,1.355
			c0,0.269-0.044,0.528-0.131,0.778s-0.23,0.513-0.427,0.788c-0.197,0.275-0.372,0.499-0.525,0.67
			c-0.153,0.172-0.377,0.415-0.67,0.727l-0.863,0.863h2.702v0.788H34.179z"/>
		<path d="M41.645,105.635c-0.719,0-1.301-0.25-1.745-0.75c-0.444-0.5-0.666-1.267-0.666-2.298v-0.45c0-1.063,0.227-1.84,0.68-2.331
			c0.453-0.491,1.036-0.736,1.749-0.736c0.701,0,1.27,0.244,1.708,0.732c0.438,0.488,0.656,1.254,0.656,2.298v0.479
			c0,1.044-0.219,1.815-0.656,2.312C42.933,105.387,42.358,105.635,41.645,105.635z M41.645,104.866
			c0.463,0,0.808-0.173,1.037-0.521c0.228-0.347,0.342-0.905,0.342-1.674v-0.582c0-1.501-0.457-2.251-1.37-2.251
			c-0.925,0-1.388,0.731-1.388,2.195v0.582C40.266,104.116,40.726,104.866,41.645,104.866z"/>
		<path d="M47.386,105.645c-0.713,0-1.274-0.156-1.684-0.469c-0.41-0.312-0.614-0.731-0.614-1.257c0-0.381,0.129-0.717,0.389-1.008
			c0.259-0.291,0.583-0.511,0.971-0.661c-0.788-0.332-1.182-0.844-1.182-1.539c0-0.488,0.192-0.883,0.577-1.187
			s0.896-0.455,1.534-0.455c0.644,0,1.154,0.141,1.529,0.422c0.375,0.281,0.563,0.666,0.563,1.154c0,0.625-0.403,1.132-1.21,1.52
			c0.976,0.356,1.463,0.907,1.463,1.651c0,0.532-0.21,0.969-0.628,1.313C48.674,105.473,48.105,105.645,47.386,105.645z
			 M47.376,104.903c0.394,0,0.714-0.094,0.961-0.281s0.371-0.432,0.371-0.731c0-0.338-0.117-0.602-0.352-0.793
			c-0.235-0.19-0.618-0.361-1.149-0.511c-0.332,0.106-0.609,0.271-0.834,0.493c-0.226,0.222-0.338,0.477-0.338,0.764
			c0,0.326,0.122,0.583,0.366,0.774C46.645,104.808,46.97,104.903,47.376,104.903z M47.526,101.846
			c0.663-0.288,0.995-0.669,0.995-1.145c0-0.263-0.099-0.477-0.295-0.643c-0.197-0.166-0.477-0.249-0.84-0.249
			c-0.344,0-0.616,0.077-0.816,0.23s-0.3,0.367-0.3,0.643C46.27,101.245,46.688,101.633,47.526,101.846z"/>
		<path d="M53.136,105.635c-0.719,0-1.301-0.25-1.745-0.75c-0.444-0.5-0.666-1.267-0.666-2.298v-0.45c0-1.063,0.227-1.84,0.68-2.331
			c0.453-0.491,1.036-0.736,1.749-0.736c0.701,0,1.27,0.244,1.708,0.732c0.438,0.488,0.656,1.254,0.656,2.298v0.479
			c0,1.044-0.219,1.815-0.656,2.312C54.424,105.387,53.849,105.635,53.136,105.635z M53.136,104.866
			c0.463,0,0.808-0.173,1.037-0.521c0.228-0.347,0.342-0.905,0.342-1.674v-0.582c0-1.501-0.457-2.251-1.37-2.251
			c-0.925,0-1.388,0.731-1.388,2.195v0.582C51.757,104.116,52.216,104.866,53.136,104.866z"/>
		<path d="M59.232,105.523v-6.847h0.919v6.847H59.232z M62.075,105.523l-1.839-2.476L62,100.739h0.985l-1.754,2.251l1.885,2.533
			H62.075z"/>
		<path d="M64.813,105.579c-0.507,0-0.923-0.081-1.248-0.244v-0.76c0.4,0.138,0.766,0.207,1.097,0.207
			c0.65,0,0.976-0.338,0.976-1.013v-4.671h0.985v4.728c0,0.525-0.15,0.949-0.45,1.271C65.874,105.418,65.42,105.579,64.813,105.579z
			"/>
		<path d="M67.355,106.498l2.232-7.954h0.825l-2.232,7.954H67.355z"/>
		<path d="M75.375,100.514c0,0.544-0.2,0.986-0.6,1.327c-0.4,0.341-0.91,0.511-1.529,0.511c-0.606,0-1.113-0.167-1.52-0.502
			c-0.406-0.334-0.609-0.78-0.609-1.336s0.202-1.015,0.605-1.375c0.403-0.359,0.911-0.539,1.524-0.539s1.121,0.178,1.524,0.535
			S75.375,99.951,75.375,100.514z M74.428,100.504c0-0.319-0.108-0.583-0.324-0.793c-0.216-0.209-0.502-0.314-0.858-0.314
			c-0.325,0-0.604,0.108-0.834,0.324c-0.231,0.215-0.347,0.477-0.347,0.783c0,0.306,0.112,0.558,0.337,0.755
			s0.507,0.295,0.844,0.295c0.35,0,0.635-0.102,0.854-0.305C74.319,101.047,74.428,100.798,74.428,100.504z M78.04,106.592h-5.712
			v-2.186h4.483v-0.685H72.29v-0.779h5.478v2.176h-4.475v0.713h4.747V106.592z M77.758,102.512h-0.957V98.3h0.957V102.512z"/>
		<path d="M83.386,99.932l0.122,1.792c0.719-0.019,1.082-0.028,1.088-0.028l0.103-1.772l0.929,0.094l-0.178,1.623
			c0.269-0.019,0.672-0.056,1.21-0.112l0.075,0.731c-0.601,0.1-1.479,0.178-2.636,0.234c-0.869,0.05-1.691,0.075-2.467,0.075
			l-0.131-0.807c0.225,0,0.606-0.006,1.145-0.019l-0.197-1.726L83.386,99.932z M86.388,99.547h-4.615v-0.769h4.615V99.547z
			 M88.62,106.592h-5.712v-2.129h4.474v-0.647H82.87v-0.769h5.469v2.129h-4.465v0.657h4.747V106.592z M88.339,102.615h-0.957V98.3
			h0.957V102.615z"/>
		<path d="M97.127,105.598h-7.551v-0.769h1.745v-1.454l0.976-0.009v1.463h2.083v-1.463l0.966,0.009v1.454h1.782V105.598z
			 M96.386,101.011c0,0.638-0.278,1.155-0.835,1.552c-0.557,0.397-1.291,0.596-2.204,0.596c-0.9,0-1.629-0.198-2.186-0.596
			c-0.557-0.397-0.835-0.915-0.835-1.552c0-0.631,0.278-1.147,0.835-1.548c0.557-0.4,1.285-0.6,2.186-0.6
			c0.913,0,1.647,0.2,2.204,0.6C96.108,99.863,96.386,100.379,96.386,101.011z M94.838,101.991c0.375-0.247,0.563-0.573,0.563-0.98
			c0-0.406-0.188-0.733-0.563-0.98c-0.375-0.247-0.872-0.37-1.491-0.37c-0.613,0-1.107,0.124-1.482,0.37
			c-0.375,0.248-0.563,0.574-0.563,0.98c0,0.407,0.188,0.733,0.563,0.98c0.375,0.248,0.869,0.371,1.482,0.371
			C93.966,102.361,94.463,102.238,94.838,101.991z"/>
	</g>
	<g>
		<path d="M29.608,17.983c-0.382-0.531-0.572-1.241-0.572-2.129c0-0.888,0.19-1.598,0.572-2.129
			c0.381-0.532,0.903-0.797,1.566-0.797c0.663,0,1.182,0.266,1.557,0.797c0.375,0.531,0.562,1.244,0.562,2.139
			c0,0.888-0.188,1.596-0.562,2.125c-0.375,0.528-0.895,0.792-1.557,0.792C30.511,18.781,29.989,18.515,29.608,17.983z
			 M32.051,17.425c0.222-0.385,0.333-0.908,0.333-1.571c0-0.663-0.111-1.185-0.333-1.566c-0.222-0.381-0.515-0.572-0.877-0.572
			c-0.356,0-0.644,0.191-0.863,0.572c-0.219,0.381-0.328,0.904-0.328,1.566c0,0.663,0.109,1.187,0.328,1.571
			c0.219,0.385,0.507,0.577,0.863,0.577C31.537,18.002,31.829,17.81,32.051,17.425z M35.667,20.638H34.71V12.28h0.957V20.638z"/>
		<path d="M44.794,20.244h-0.91v-3.93h-0.835c-0.044,0.744-0.216,1.349-0.516,1.815s-0.722,0.699-1.266,0.699
			c-0.4,0-0.74-0.138-1.018-0.413c-0.278-0.275-0.478-0.627-0.6-1.055c-0.122-0.429-0.183-0.918-0.183-1.468
			c0-0.844,0.152-1.542,0.455-2.092s0.752-0.825,1.346-0.825c0.544,0,0.968,0.236,1.271,0.708s0.474,1.083,0.511,1.834h0.835V12.44
			h0.91V20.244z M41.933,17.416c0.15-0.378,0.225-0.883,0.225-1.515c0-0.631-0.075-1.14-0.225-1.524
			c-0.15-0.385-0.369-0.577-0.657-0.577s-0.506,0.192-0.657,0.577c-0.15,0.384-0.225,0.893-0.225,1.524
			c0,0.625,0.075,1.129,0.225,1.51c0.15,0.382,0.369,0.572,0.657,0.572S41.783,17.795,41.933,17.416z M46.417,20.638h-0.919V12.28
			h0.919V20.638z"/>
		<path d="M52.139,17.533l0.15,0.778c-0.857,0.219-2.042,0.335-3.555,0.347h-0.863v-5.516h0.966v4.7
			C50.206,17.843,51.307,17.74,52.139,17.533z M51.041,15.742v-0.788h2.354V12.28h0.957v8.358h-0.957v-4.896H51.041z"/>
		<path d="M60.824,17.918l-0.563,0.703c-0.407-0.225-0.819-0.572-1.238-1.041s-0.694-0.91-0.825-1.323
			c-0.113,0.463-0.361,0.937-0.746,1.421c-0.384,0.484-0.821,0.855-1.308,1.111l-0.61-0.704c0.682-0.381,1.213-0.896,1.595-1.543
			c0.381-0.647,0.572-1.387,0.572-2.218v-0.413h-1.745v-0.76h4.437v0.76h-1.698v0.403c0,0.813,0.194,1.529,0.582,2.148
			S60.18,17.568,60.824,17.918z M62.484,20.638h-0.957V12.28h0.957V20.638z"/>
		<path d="M71.264,17.224h-7.551v-0.778h7.551V17.224z M70.392,20.413h-5.703v-2.458h0.966v1.688h4.737V20.413z M70.335,15.423h-5.6
			v-2.871h0.966v2.101h4.634V15.423z"/>
		<path d="M4.605,24.418c-0.056,2.595-1.31,4.565-3.761,5.909l-0.601-0.731c0.944-0.432,1.715-1.047,2.312-1.848
			c0.597-0.801,0.937-1.648,1.018-2.542H0.731v-0.788H4.605z M7.167,31.894H6.209v-8.358h0.957V31.894z"/>
		<path d="M15.946,30.843H8.395v-0.778h3.283v-1.726h0.957v1.726h3.312V30.843z M15.655,27.973l-0.394,0.797
			c-0.644-0.106-1.268-0.341-1.871-0.704s-1.012-0.757-1.224-1.182c-0.213,0.432-0.613,0.822-1.201,1.173
			c-0.588,0.35-1.219,0.582-1.895,0.694l-0.403-0.76c0.682-0.062,1.324-0.28,1.928-0.652s0.961-0.802,1.074-1.29h-2.57v-0.779h6.144
			v0.779h-2.551c0.112,0.481,0.475,0.911,1.088,1.29S15.018,27.929,15.655,27.973z M10.787,24.606v-0.769h2.758v0.769H10.787z"/>
		<path d="M20.289,28.845l0.122,0.769c-0.682,0.157-1.61,0.235-2.786,0.235h-0.844v-5.3h3.152v0.778
			c-0.244,0-0.608-0.001-1.093-0.004c-0.485-0.003-0.846-0.005-1.083-0.005v3.733C18.832,29.052,19.676,28.983,20.289,28.845z
			 M23.553,31.894h-0.928v-4.23h-0.844v3.827h-0.91v-7.786h0.91v3.152h0.844v-3.321h0.928V31.894z"/>
		<path d="M29.622,29.127l-0.572,0.722c-0.382-0.25-0.772-0.611-1.173-1.083c-0.4-0.472-0.672-0.927-0.816-1.365
			c-0.144,0.494-0.405,0.982-0.783,1.463s-0.799,0.86-1.262,1.135l-0.591-0.704c0.663-0.431,1.183-0.979,1.562-1.641
			c0.378-0.663,0.568-1.389,0.568-2.176v-1.22h0.985v1.163c0,0.782,0.189,1.495,0.567,2.139
			C28.485,28.205,28.99,28.727,29.622,29.127z M31.113,23.536V26.8h1.257v0.807h-1.257v4.287h-0.966v-8.358H31.113z"/>
		<path d="M37.436,27.176l0.122,0.741c-0.744,0.182-1.895,0.278-3.452,0.291h-1.06v-2.514h2.72v-0.919h-2.758v-0.76h3.724v2.411
			h-2.729v1.003C35.584,27.429,36.729,27.345,37.436,27.176z M38.575,29.15c0.497,0.291,0.746,0.677,0.746,1.158
			s-0.247,0.864-0.741,1.149c-0.494,0.285-1.188,0.427-2.082,0.427c-0.895,0-1.588-0.142-2.083-0.427s-0.741-0.667-0.741-1.149
			s0.247-0.868,0.741-1.158c0.494-0.291,1.188-0.437,2.083-0.437C37.385,28.714,38.078,28.859,38.575,29.15z M37.848,29.709
			c-0.325-0.15-0.775-0.225-1.351-0.225c-0.576,0-1.026,0.075-1.351,0.225c-0.325,0.15-0.488,0.35-0.488,0.6
			c0,0.244,0.163,0.439,0.488,0.586s0.775,0.22,1.351,0.22c0.575,0,1.025-0.073,1.351-0.22s0.488-0.342,0.488-0.586
			C38.336,30.059,38.173,29.858,37.848,29.709z M40.446,26.528v0.788h-1.219v1.266h-0.966v-5.046h0.966v1.201h1.219v0.779h-1.219
			v1.013H40.446z"/>
		<path d="M42.763,31.734c-0.5-0.475-0.908-1.046-1.224-1.712s-0.474-1.396-0.474-2.19v-0.16c0-0.794,0.158-1.52,0.474-2.176
			s0.724-1.229,1.224-1.716h0.816c-0.463,0.513-0.84,1.097-1.13,1.754c-0.291,0.657-0.437,1.341-0.437,2.054v0.253
			c0,0.7,0.147,1.397,0.441,2.092c0.294,0.694,0.669,1.294,1.126,1.801H42.763z"/>
		<path d="M44.649,30.778l2.401-5.562h-3.039v-0.779h4.108v0.591l-2.383,5.75H44.649z"/>
		<path d="M48.973,31.96l0.141-2.092h1.05l-0.413,2.092H48.973z"/>
		<path d="M53.738,30.872c-0.719,0-1.301-0.25-1.745-0.75c-0.444-0.5-0.666-1.267-0.666-2.298v-0.45c0-1.063,0.227-1.84,0.68-2.331
			c0.453-0.491,1.036-0.736,1.749-0.736c0.701,0,1.27,0.244,1.708,0.732c0.438,0.488,0.656,1.254,0.656,2.298v0.479
			c0,1.044-0.219,1.815-0.656,2.312C55.026,30.623,54.451,30.872,53.738,30.872z M53.738,30.102c0.463,0,0.808-0.173,1.037-0.521
			c0.228-0.347,0.342-0.905,0.342-1.674v-0.582c0-1.501-0.457-2.251-1.37-2.251c-0.925,0-1.388,0.731-1.388,2.195v0.582
			C52.359,29.352,52.818,30.102,53.738,30.102z"/>
		<path d="M59.732,30.872c-0.719,0-1.301-0.25-1.745-0.75c-0.444-0.5-0.666-1.267-0.666-2.298v-0.45c0-1.063,0.227-1.84,0.68-2.331
			c0.453-0.491,1.036-0.736,1.749-0.736c0.701,0,1.27,0.244,1.708,0.732c0.438,0.488,0.656,1.254,0.656,2.298v0.479
			c0,1.044-0.219,1.815-0.656,2.312C61.02,30.623,60.445,30.872,59.732,30.872z M59.732,30.102c0.463,0,0.808-0.173,1.037-0.521
			c0.228-0.347,0.342-0.905,0.342-1.674v-0.582c0-1.501-0.457-2.251-1.37-2.251c-0.925,0-1.388,0.731-1.388,2.195v0.582
			C58.353,29.352,58.812,30.102,59.732,30.102z"/>
		<path d="M65.726,30.872c-0.719,0-1.301-0.25-1.745-0.75c-0.444-0.5-0.666-1.267-0.666-2.298v-0.45c0-1.063,0.227-1.84,0.68-2.331
			c0.453-0.491,1.036-0.736,1.749-0.736c0.701,0,1.27,0.244,1.708,0.732c0.438,0.488,0.656,1.254,0.656,2.298v0.479
			c0,1.044-0.219,1.815-0.656,2.312C67.014,30.623,66.438,30.872,65.726,30.872z M65.726,30.102c0.463,0,0.808-0.173,1.037-0.521
			c0.228-0.347,0.342-0.905,0.342-1.674v-0.582c0-1.501-0.457-2.251-1.37-2.251c-0.925,0-1.388,0.731-1.388,2.195v0.582
			C64.347,29.352,64.806,30.102,65.726,30.102z"/>
		<path d="M69.355,30.759v-6.847h0.919v6.847H69.355z M72.198,30.759l-1.839-2.476l1.764-2.308h0.985l-1.754,2.251l1.885,2.533
			H72.198z"/>
		<path d="M74.937,30.815c-0.507,0-0.923-0.081-1.248-0.244v-0.76c0.4,0.138,0.766,0.207,1.097,0.207
			c0.65,0,0.976-0.338,0.976-1.013v-4.671h0.985v4.728c0,0.525-0.15,0.949-0.45,1.271C75.997,30.654,75.543,30.815,74.937,30.815z"
			/>
		<path d="M77.479,31.734l2.232-7.954h0.825l-2.232,7.954H77.479z"/>
		<path d="M85.499,25.75c0,0.544-0.2,0.986-0.6,1.327c-0.4,0.341-0.91,0.511-1.529,0.511c-0.606,0-1.113-0.167-1.52-0.502
			c-0.406-0.334-0.609-0.78-0.609-1.336s0.202-1.015,0.605-1.375c0.403-0.359,0.911-0.539,1.524-0.539s1.121,0.178,1.524,0.535
			S85.499,25.187,85.499,25.75z M84.551,25.741c0-0.319-0.108-0.583-0.324-0.793c-0.216-0.209-0.502-0.314-0.858-0.314
			c-0.325,0-0.604,0.108-0.834,0.324c-0.231,0.215-0.347,0.477-0.347,0.783c0,0.306,0.112,0.558,0.337,0.755
			s0.507,0.295,0.844,0.295c0.35,0,0.635-0.102,0.854-0.305C84.442,26.283,84.551,26.035,84.551,25.741z M88.163,31.828H82.45
			v-2.186h4.483v-0.685h-4.521v-0.779h5.478v2.176h-4.475v0.713h4.747V31.828z M87.881,27.748h-0.957v-4.212h0.957V27.748z"/>
		<path d="M88.932,31.734c0.463-0.513,0.839-1.099,1.13-1.759c0.291-0.66,0.436-1.346,0.436-2.059v-0.253
			c0-0.694-0.147-1.388-0.441-2.083s-0.669-1.294-1.125-1.801h0.816c0.5,0.481,0.909,1.054,1.224,1.716
			c0.316,0.663,0.474,1.388,0.474,2.176v0.16c0,0.8-0.158,1.532-0.474,2.195c-0.315,0.663-0.724,1.232-1.224,1.707H88.932z"/>
		<path d="M97.786,28.986l0.075,0.77c-1.676,0.181-3.527,0.278-5.553,0.291l-0.15-0.825c1.107,0.012,2.032-0.003,2.776-0.047
			C96.06,29.13,97.011,29.067,97.786,28.986z M97.045,26.191c0,0.569-0.208,1.029-0.624,1.379s-0.937,0.525-1.562,0.525
			c-0.619,0-1.13-0.176-1.533-0.53c-0.404-0.353-0.605-0.812-0.605-1.374c0-0.575,0.205-1.052,0.615-1.431
			c0.409-0.378,0.917-0.567,1.524-0.567c0.625,0,1.146,0.188,1.562,0.562C96.837,25.131,97.045,25.609,97.045,26.191z
			 M96.079,26.181c0-0.35-0.116-0.631-0.347-0.844c-0.231-0.213-0.522-0.319-0.873-0.319c-0.332,0-0.614,0.11-0.849,0.329
			s-0.352,0.497-0.352,0.834c0,0.326,0.117,0.59,0.352,0.793s0.517,0.305,0.849,0.305c0.338,0,0.625-0.102,0.863-0.305
			C95.96,26.771,96.079,26.507,96.079,26.181z M99.212,23.536v8.358h-0.957v-8.358H99.212z"/>
		<path d="M16.823,42.015v-0.572l1.351-1.407c0.538-0.569,0.932-1.037,1.182-1.402c0.25-0.366,0.375-0.74,0.375-1.121
			c0-0.4-0.105-0.692-0.314-0.877s-0.527-0.277-0.952-0.277c-0.432,0-0.885,0.157-1.36,0.469l-0.197-0.741
			c0.569-0.35,1.163-0.525,1.782-0.525c0.669,0,1.18,0.161,1.534,0.483c0.353,0.322,0.53,0.774,0.53,1.355
			c0,0.269-0.044,0.528-0.131,0.778s-0.23,0.513-0.427,0.788c-0.197,0.275-0.372,0.499-0.525,0.67
			c-0.153,0.172-0.377,0.415-0.67,0.727l-0.863,0.863h2.702v0.788H16.823z"/>
		<path d="M23.398,42.128c-0.719,0-1.323-0.153-1.811-0.46l0.178-0.76c0.444,0.275,0.91,0.413,1.398,0.413
			c0.469,0,0.836-0.116,1.102-0.347c0.266-0.231,0.398-0.554,0.398-0.966c0-0.819-0.488-1.229-1.463-1.229
			c-0.413,0-0.848,0.106-1.304,0.319l0.235-3.433h3.273v0.778h-2.523L22.77,38.17c0.281-0.081,0.56-0.122,0.835-0.122
			c0.663,0,1.172,0.164,1.529,0.493c0.356,0.328,0.535,0.821,0.535,1.477c0,0.601-0.205,1.103-0.614,1.506
			C24.644,41.926,24.092,42.128,23.398,42.128z"/>
		<path d="M29.204,38.357c0.169,0.125,0.288,0.213,0.356,0.263c0.069,0.05,0.175,0.108,0.319,0.173
			c0.144,0.066,0.272,0.099,0.384,0.099c0.169,0,0.322-0.084,0.46-0.253c0.137-0.168,0.219-0.381,0.244-0.638
			c0.094,0.031,0.219,0.067,0.375,0.108s0.282,0.077,0.375,0.108c-0.056,0.513-0.222,0.896-0.497,1.149
			c-0.275,0.253-0.601,0.377-0.976,0.371c-0.4-0.019-0.763-0.144-1.088-0.375c-0.487-0.381-0.838-0.582-1.05-0.601h0.009
			c-0.182-0.025-0.349,0.036-0.502,0.183s-0.255,0.349-0.305,0.605c-0.082-0.038-0.197-0.086-0.347-0.146
			c-0.15-0.06-0.269-0.111-0.356-0.155c0.119-0.513,0.33-0.877,0.633-1.093s0.633-0.295,0.99-0.239
			C28.548,37.96,28.873,38.107,29.204,38.357z"/>
		<path d="M34.448,42.109c-0.75,0-1.345-0.15-1.782-0.45l0.178-0.722c0.169,0.106,0.392,0.197,0.67,0.272s0.536,0.113,0.774,0.113
			c0.475,0,0.838-0.099,1.088-0.296c0.25-0.197,0.375-0.479,0.375-0.849c0-0.707-0.472-1.066-1.417-1.079l-0.619-0.009v-0.741
			l0.554-0.009c0.394-0.006,0.705-0.099,0.933-0.277c0.229-0.178,0.342-0.427,0.342-0.746c0-0.638-0.394-0.957-1.182-0.957
			c-0.375,0-0.826,0.128-1.351,0.385l-0.122-0.741c0.2-0.125,0.463-0.229,0.788-0.314c0.325-0.084,0.634-0.127,0.928-0.127
			c0.588,0,1.057,0.14,1.407,0.417c0.35,0.278,0.525,0.667,0.525,1.168c0,0.726-0.391,1.223-1.173,1.491
			c0.932,0.182,1.398,0.707,1.398,1.576c0,0.575-0.209,1.035-0.628,1.379S35.154,42.109,34.448,42.109z"/>
		<path d="M40.235,42.128c-0.719,0-1.301-0.25-1.745-0.75c-0.444-0.5-0.666-1.267-0.666-2.298v-0.45c0-1.063,0.227-1.84,0.68-2.331
			c0.453-0.491,1.036-0.736,1.749-0.736c0.701,0,1.27,0.244,1.708,0.732c0.438,0.488,0.656,1.254,0.656,2.298v0.479
			c0,1.044-0.219,1.815-0.656,2.312C41.523,41.879,40.948,42.128,40.235,42.128z M40.235,41.358c0.463,0,0.808-0.173,1.037-0.521
			c0.228-0.347,0.342-0.905,0.342-1.674v-0.582c0-1.501-0.457-2.251-1.37-2.251c-0.925,0-1.388,0.731-1.388,2.195v0.582
			C38.856,40.608,39.316,41.358,40.235,41.358z"/>
		<path d="M46.257,38.578c-0.282,0.315-0.657,0.474-1.126,0.474c-0.469,0-0.841-0.15-1.116-0.45c-0.275-0.3-0.413-0.71-0.413-1.229
			v-0.16c0-0.519,0.139-0.938,0.417-1.257s0.648-0.479,1.111-0.479c0.469,0,0.844,0.152,1.126,0.455
			c0.281,0.304,0.422,0.711,0.422,1.224v0.16C46.679,37.841,46.539,38.262,46.257,38.578z M45.131,38.47
			c0.475,0,0.713-0.363,0.713-1.088v-0.225c0-0.719-0.238-1.079-0.713-1.079c-0.469,0-0.703,0.356-0.703,1.069v0.225
			C44.428,38.104,44.663,38.47,45.131,38.47z M44.634,42.381l4.427-6.969h0.77l-4.428,6.969H44.634z M49.428,42.09
			c-0.476,0-0.852-0.148-1.13-0.446c-0.278-0.297-0.417-0.708-0.417-1.233v-0.15c0-0.513,0.142-0.932,0.427-1.257
			s0.658-0.488,1.121-0.488c0.469,0,0.841,0.151,1.116,0.455c0.275,0.304,0.413,0.715,0.413,1.234v0.141
			c0,0.531-0.138,0.955-0.413,1.271C50.269,41.933,49.896,42.09,49.428,42.09z M49.428,41.5c0.244,0,0.422-0.086,0.535-0.258
			c0.112-0.172,0.168-0.448,0.168-0.83v-0.206c0-0.726-0.234-1.088-0.703-1.088c-0.476,0-0.713,0.36-0.713,1.079v0.216
			C48.715,41.137,48.952,41.5,49.428,41.5z"/>
		<path d="M57.007,42.756h-0.91v-3.93h-0.835c-0.044,0.744-0.216,1.349-0.516,1.815s-0.722,0.699-1.266,0.699
			c-0.4,0-0.74-0.138-1.018-0.413c-0.278-0.275-0.478-0.627-0.6-1.055c-0.122-0.429-0.183-0.918-0.183-1.468
			c0-0.844,0.152-1.542,0.455-2.092s0.752-0.825,1.346-0.825c0.544,0,0.968,0.236,1.271,0.708s0.474,1.083,0.511,1.834h0.835v-3.077
			h0.91V42.756z M54.146,39.928c0.15-0.378,0.225-0.883,0.225-1.515c0-0.631-0.075-1.14-0.225-1.524
			c-0.15-0.385-0.369-0.577-0.657-0.577s-0.506,0.192-0.657,0.577c-0.15,0.384-0.225,0.893-0.225,1.524
			c0,0.625,0.075,1.129,0.225,1.51c0.15,0.382,0.369,0.572,0.657,0.572S53.996,40.307,54.146,39.928z M58.629,43.15H57.71v-8.358
			h0.919V43.15z"/>
		<path d="M62.09,37.579v-0.797h4.155v0.797H62.09z M66.011,39.633c0,0.488-0.166,0.88-0.498,1.177
			c-0.332,0.297-0.766,0.445-1.304,0.445c-0.532,0-0.964-0.155-1.299-0.464c-0.335-0.31-0.502-0.695-0.502-1.158
			c0-0.5,0.166-0.899,0.497-1.196c0.332-0.297,0.766-0.445,1.304-0.445s0.972,0.15,1.304,0.45S66.011,39.139,66.011,39.633z
			 M63.075,36.218v-0.807h2.26v0.807H63.075z M65.129,39.633c0-0.263-0.086-0.474-0.258-0.633c-0.172-0.16-0.393-0.239-0.662-0.239
			S63.721,38.84,63.549,39c-0.172,0.16-0.258,0.371-0.258,0.633c0,0.25,0.085,0.455,0.258,0.614c0.172,0.16,0.392,0.239,0.661,0.239
			s0.489-0.081,0.662-0.244C65.043,40.08,65.129,39.877,65.129,39.633z M69.209,43.15h-0.919v-4.156h-0.826v3.762h-0.91v-7.795h0.91
			v3.236h0.826v-3.405h0.919V43.15z"/>
		<path d="M75.063,38.873c-0.832,0.175-2.039,0.269-3.621,0.281l-0.872-0.009v-3.733h3.696v0.769h-2.739v2.195
			c1.438,0,2.57-0.088,3.396-0.263L75.063,38.873z M76.873,41.49c0,0.5-0.249,0.899-0.746,1.196s-1.193,0.445-2.087,0.445
			c-0.888,0-1.579-0.148-2.073-0.445s-0.741-0.696-0.741-1.196c0-0.513,0.247-0.919,0.741-1.219s1.185-0.45,2.073-0.45
			c0.894,0,1.59,0.15,2.087,0.45S76.873,40.977,76.873,41.49z M74.041,40.599c-0.576,0-1.024,0.08-1.346,0.239
			c-0.322,0.16-0.483,0.377-0.483,0.652c0,0.269,0.161,0.482,0.483,0.638c0.322,0.156,0.771,0.234,1.346,0.234
			c0.575,0,1.027-0.078,1.355-0.234c0.328-0.156,0.492-0.369,0.492-0.638c0-0.275-0.163-0.492-0.488-0.652
			C75.075,40.679,74.622,40.599,74.041,40.599z M77.989,37.672H76.77v2.045h-0.966v-4.925h0.966v2.083h1.219V37.672z"/>
		<path d="M83.167,36.866h-4.84v-0.75h4.84V36.866z M82.698,38.564c0,0.394-0.185,0.721-0.554,0.98
			c-0.369,0.26-0.832,0.389-1.388,0.389c-0.562,0-1.03-0.129-1.402-0.389c-0.372-0.259-0.558-0.586-0.558-0.98
			c0-0.4,0.186-0.732,0.558-0.995c0.372-0.262,0.84-0.394,1.402-0.394c0.557,0,1.02,0.131,1.388,0.394
			C82.514,37.832,82.698,38.163,82.698,38.564z M84.884,43.047h-5.365v-2.72h5.365V43.047z M79.537,35.628v-0.76h2.448v0.76H79.537z
			 M81.76,38.564c0-0.207-0.097-0.369-0.291-0.488s-0.431-0.178-0.713-0.178c-0.288,0-0.53,0.06-0.727,0.178
			c-0.197,0.119-0.296,0.281-0.296,0.488c0,0.194,0.1,0.352,0.3,0.474s0.441,0.183,0.722,0.183c0.275,0,0.511-0.061,0.708-0.183
			C81.662,38.915,81.76,38.757,81.76,38.564z M83.917,42.287v-1.201h-3.433v1.201H83.917z M86.113,37.878h-1.229v2.026h-0.966
			v-5.112h0.966v2.279h1.229V37.878z"/>
	</g>
	<g>
		<line x1="54.098" y1="220.098" x2="54.098" y2="203.155"/>
		<g>
			<line fill="none" stroke="#000000" stroke-miterlimit="10" x1="54.098" y1="220.098" x2="54.098" y2="206.14"/>
			<g>
				<polygon points="55.95,207.544 54.098,206.758 52.247,207.544 54.098,203.155 				"/>
			</g>
		</g>
	</g>
	<g>
		<line x1="54.098" y1="171.688" x2="54.098" y2="154.745"/>
		<g>
			<line fill="none" stroke="#000000" stroke-miterlimit="10" x1="54.098" y1="171.688" x2="54.098" y2="157.729"/>
			<g>
				<polygon points="55.95,159.134 54.098,158.347 52.247,159.134 54.098,154.745 				"/>
			</g>
		</g>
	</g>
	<g>
		<line x1="54.098" y1="126.795" x2="54.098" y2="107.734"/>
		<g>
			<line fill="none" stroke="#000000" stroke-miterlimit="10" x1="54.098" y1="126.795" x2="54.098" y2="110.719"/>
			<g>
				<polygon points="55.95,112.124 54.098,111.337 52.247,112.124 54.098,107.734 				"/>
			</g>
		</g>
	</g>
	<g>
		<line x1="54.098" y1="67.932" x2="54.098" y2="48.871"/>
		<g>
			<line fill="none" stroke="#000000" stroke-miterlimit="10" x1="54.098" y1="67.932" x2="54.098" y2="51.856"/>
			<g>
				<polygon points="55.95,53.261 54.098,52.474 52.247,53.261 54.098,48.871 				"/>
			</g>
		</g>
	</g>
</g>
<g>
</g>
<g>
</g>
<g>
</g>
<g>
</g>
<g>
</g>
<g>
</g>
<g>
</g>
</svg>
