<?xml version="1.0" encoding="utf-8"?>
<!-- Generator: Adobe Illustrator 28.0.0, SVG Export Plug-In . SVG Version: 6.00 Build 0)  -->
<svg version="1.1" id="레이어_1" xmlns="http://www.w3.org/2000/svg" xmlns:xlink="http://www.w3.org/1999/xlink" x="0px"
	 y="0px" viewBox="0 0 432.008 236.572" enable-background="new 0 0 432.008 236.572" xml:space="preserve">
<g>
	<rect x="268.813" y="7.405" fill="#F4436C" width="163.194" height="200.694"/>
	<rect x="133.136" y="21.642" fill="#F89ABA" width="163.194" height="200.694"/>
	<rect y="35.878" fill="#F6DADF" width="163.194" height="200.694"/>
	<g>
		<path d="M52.96,80.39v-8.231h2.364l1.872,5.855h0.036l1.848-5.855h2.328v8.231h-1.68v-6.156h-0.036l-1.956,6.156h-1.332
			l-1.932-6.168h-0.036v6.168H52.96z"/>
		<path d="M63.88,80.438v-6.611l-1.344,0.252v-0.996l2.184-0.96h0.876v8.315H63.88z"/>
		<path d="M71.944,78.134h0.24c1.176,0,2.08-0.072,2.712-0.216l0.156,1.2c-0.888,0.191-2.068,0.288-3.54,0.288H70.36v-7.021h4.056
			v1.236h-2.472V78.134z M79.204,81.83h-1.512v-5.28h-0.792v4.788h-1.488V71.317h1.488v3.961h0.792v-4.141h1.512V81.83z"/>
		<path d="M86.98,75.686l-0.852,1.261c-0.44-0.152-0.892-0.427-1.356-0.822c-0.464-0.396-0.792-0.811-0.984-1.242
			c-0.144,0.48-0.472,0.946-0.984,1.398c-0.512,0.451-1.032,0.766-1.56,0.941l-0.816-1.248c0.8-0.271,1.422-0.702,1.866-1.29
			s0.666-1.273,0.666-2.058V71.75h1.62v0.792c0,0.815,0.218,1.481,0.654,1.998C85.67,75.056,86.252,75.438,86.98,75.686z
			 M81.964,77.846h7.344v3.996h-1.596v-2.748h-5.748V77.846z M89.296,77.426h-1.62v-6.288h1.62V77.426z"/>
		<path d="M96.172,78.038l-0.948,1.235c-0.352-0.224-0.718-0.573-1.098-1.05c-0.38-0.476-0.63-0.938-0.75-1.386
			c-0.136,0.504-0.4,1.014-0.792,1.53c-0.392,0.516-0.82,0.905-1.284,1.17l-0.9-1.188c0.728-0.439,1.274-1.042,1.638-1.806
			c0.364-0.764,0.546-1.738,0.546-2.922V72.17h1.584v1.428c0,1.176,0.168,2.106,0.504,2.79
			C95.008,77.072,95.508,77.622,96.172,78.038z M97.684,81.35h-1.44v-5.268h-1.272V74.75h1.272v-3.42h1.44V81.35z M99.844,81.83
			h-1.488V71.138h1.488V81.83z"/>
		<path d="M110.704,80.498h-9.66v-1.236h4.044v-1.92h-3.18v-1.248h1.512l-0.336-2.304l1.572-0.156l0.216,2.46h2.016l0.24-2.448
			l1.572,0.168l-0.408,2.28h1.488v1.248h-3.12v1.92h4.044V80.498z M109.804,73.226h-7.908v-1.26h7.908V73.226z"/>
	</g>
	<g>
		<path d="M61.718,2.194v8.835h-6.46V2.194H61.718z M59.69,9.426V3.768h-2.436v5.658H59.69z M65.863,14.509h-2.012V1.029h2.012
			V14.509z"/>
		<path d="M74.532,9.728l-1.195,1.559c-0.444-0.282-0.905-0.724-1.384-1.323c-0.479-0.601-0.794-1.183-0.945-1.748
			c-0.172,0.636-0.504,1.278-0.999,1.929c-0.494,0.651-1.034,1.143-1.619,1.476l-1.135-1.498c0.917-0.555,1.606-1.313,2.065-2.276
			s0.688-2.191,0.688-3.685V2.33h1.997v1.8c0,1.483,0.212,2.655,0.635,3.518C73.064,8.51,73.694,9.204,74.532,9.728z M76.438,13.903
			h-1.815V7.262h-1.604V5.583h1.604V1.271h1.815V13.903z M79.161,14.509h-1.876V1.029h1.876V14.509z"/>
		<path d="M87.466,8.639h-6.324V2.073h6.324V8.639z M92.081,14.176h-9.35v-4.19h2.042v2.632h7.307V14.176z M85.484,7.05V3.661H83.14
			V7.05H85.484z M89.827,6.233h-1.665V4.63h1.665V1.029h2.042v9.772h-2.042V6.233z"/>
		<path d="M102.065,9.788l-1.119,1.574c-0.585-0.343-1.195-0.865-1.831-1.566c-0.636-0.701-1.054-1.364-1.256-1.989
			c-0.192,0.716-0.603,1.458-1.233,2.224c-0.63,0.767-1.263,1.321-1.899,1.664l-1.18-1.543c1.119-0.655,1.938-1.487,2.458-2.496
			s0.784-2.249,0.794-3.722h-2.587V2.27h7.247v1.664h-2.587C98.904,6.707,99.968,8.659,102.065,9.788z M104.895,14.509h-2.042V1.029
			h2.042V14.509z"/>
	</g>
	<g>
		<path d="M195.82,71.497v-6.948h-2.292v-1.283h6.3v1.283h-2.316v6.948H195.82z"/>
		<path d="M200.716,71.497v-8.771h1.572v3.071h0.072c0.544-0.424,1.196-0.636,1.956-0.636c0.608,0,1.062,0.137,1.362,0.408
			c0.3,0.272,0.45,0.712,0.45,1.32v4.607h-1.584v-4.235c0-0.305-0.07-0.519-0.21-0.643s-0.398-0.186-0.774-0.186
			c-0.344,0-0.768,0.104-1.272,0.312v4.752H200.716z"/>
		<path d="M208.408,71.545v-6.611l-1.344,0.252v-0.996l2.184-0.96h0.876v8.315H208.408z"/>
		<path d="M220,68.293h-5.004v-5.063H220V68.293z M223.636,72.673h-7.368v-3.348h1.62v2.112h5.748V72.673z M218.439,67.033v-2.544
			h-1.872v2.544H218.439z M221.884,65.233h-1.236v-1.236h1.236v-1.752h1.596v7.752h-1.596v-2.424h-1.236v-1.236h1.236V65.233z"/>
		<path d="M225.027,65.521c0-0.769,0.26-1.395,0.78-1.878c0.52-0.484,1.172-0.727,1.956-0.727c0.792,0,1.447,0.242,1.968,0.727
			c0.521,0.483,0.78,1.109,0.78,1.878c0,0.775-0.263,1.41-0.786,1.901c-0.524,0.492-1.178,0.738-1.962,0.738
			c-0.792,0-1.446-0.246-1.962-0.738C225.285,66.932,225.027,66.297,225.027,65.521z M226.252,68.917h7.571v4.032h-1.62v-2.784
			h-5.951V68.917z M226.863,64.579c-0.231,0.229-0.348,0.542-0.348,0.942c0,0.399,0.116,0.714,0.348,0.941
			c0.232,0.229,0.532,0.343,0.9,0.343s0.67-0.114,0.906-0.343c0.235-0.228,0.354-0.542,0.354-0.941c0-0.393-0.12-0.704-0.36-0.937
			c-0.239-0.231-0.54-0.348-0.899-0.348C227.396,64.237,227.096,64.352,226.863,64.579z M230.848,67.273l0.036-1.356h1.319v-1.02
			h-1.319l-0.036-1.344h1.355v-1.309h1.62v6.252h-1.62v-1.224H230.848z"/>
		<path d="M240.64,68.485h-5.172v-5.472h1.56v1.644h2.028v-1.644h1.584V68.485z M243.855,72.638h-7.26v-3.385h1.584v2.137h5.676
			V72.638z M239.056,67.273v-1.428h-2.028v1.428H239.056z M243.651,62.245v2.94h1.488v1.296h-1.488v3.468h-1.572v-7.704H243.651z"/>
		<path d="M255.231,67.117v1.236h-9.66v-1.236H255.231z M253.191,69.367c0.68,0.364,1.02,0.851,1.02,1.458
			c0,0.608-0.34,1.094-1.02,1.458c-0.681,0.364-1.608,0.546-2.784,0.546c-1.192,0-2.128-0.18-2.808-0.54
			c-0.681-0.359-1.021-0.848-1.021-1.464c0-0.607,0.338-1.094,1.014-1.458c0.677-0.364,1.606-0.546,2.79-0.546
			C251.575,68.821,252.511,69.003,253.191,69.367z M246.688,64.669c0-0.592,0.334-1.073,1.002-1.445s1.569-0.559,2.706-0.559
			c1.144,0,2.052,0.187,2.724,0.559s1.008,0.854,1.008,1.445c0,0.601-0.336,1.084-1.008,1.452s-1.58,0.552-2.724,0.552
			c-1.137,0-2.038-0.184-2.706-0.552S246.688,65.27,246.688,64.669z M252.579,70.85c0-0.24-0.202-0.433-0.605-0.576
			c-0.404-0.145-0.935-0.216-1.591-0.216c-0.647,0-1.17,0.071-1.565,0.216c-0.396,0.144-0.594,0.336-0.594,0.576
			c0,0.224,0.197,0.406,0.594,0.546c0.396,0.14,0.918,0.21,1.565,0.21c0.648,0,1.177-0.07,1.584-0.21
			C252.375,71.256,252.579,71.073,252.579,70.85z M248.308,64.682c0,0.256,0.188,0.458,0.563,0.605
			c0.376,0.148,0.884,0.222,1.524,0.222c0.647,0,1.159-0.073,1.536-0.222c0.375-0.147,0.563-0.35,0.563-0.605
			c0-0.24-0.19-0.437-0.57-0.589c-0.38-0.151-0.89-0.228-1.529-0.228c-0.633,0-1.139,0.076-1.519,0.228
			C248.497,64.245,248.308,64.441,248.308,64.682z"/>
	</g>
	<g>
		<path fill="#FFFFFF" d="M345.37,89.377c-1.192,0-2.12-0.344-2.784-1.031c-0.664-0.688-0.996-1.712-0.996-3.072v-0.3
			c0-0.721,0.1-1.351,0.3-1.891s0.482-0.966,0.846-1.277c0.364-0.312,0.776-0.544,1.236-0.696s0.97-0.229,1.53-0.229
			c0.896,0,1.596,0.137,2.1,0.408v1.284c-0.736-0.24-1.364-0.36-1.884-0.36c-0.729,0-1.294,0.213-1.698,0.637
			s-0.605,1.08-0.605,1.968v0.408c0,0.92,0.184,1.616,0.552,2.088s0.956,0.708,1.764,0.708c0.664,0,1.309-0.14,1.933-0.42v1.284
			C347.069,89.214,346.306,89.377,345.37,89.377z"/>
		<path fill="#FFFFFF" d="M354.981,88.304c-0.704,0.716-1.628,1.073-2.771,1.073c-1.145,0-2.059-0.35-2.742-1.05
			s-1.026-1.718-1.026-3.054v-0.276c0-1.319,0.353-2.336,1.057-3.048s1.628-1.068,2.771-1.068c1.145,0,2.059,0.349,2.742,1.045
			c0.685,0.695,1.026,1.716,1.026,3.06v0.264C356.038,86.569,355.686,87.588,354.981,88.304z M352.246,88.081
			c0.655,0,1.153-0.237,1.494-0.714c0.34-0.476,0.51-1.13,0.51-1.962v-0.408c0-0.936-0.162-1.64-0.486-2.111
			c-0.324-0.473-0.842-0.712-1.554-0.721c-0.641,0-1.128,0.238-1.464,0.714c-0.336,0.477-0.504,1.131-0.504,1.962v0.421
			C350.242,87.142,350.91,88.081,352.246,88.081z"/>
		<path fill="#FFFFFF" d="M357.249,89.245v-8.231h3.049c1.991,0,2.987,0.836,2.987,2.508c0,0.872-0.258,1.546-0.773,2.021
			c-0.517,0.477-1.23,0.714-2.143,0.714h-1.416v2.988H357.249z M358.953,85.01h1.116c0.512,0,0.88-0.114,1.104-0.343
			c0.224-0.228,0.336-0.586,0.336-1.073c0-0.505-0.106-0.847-0.318-1.026s-0.578-0.271-1.098-0.271h-1.141V85.01z"/>
		<path fill="#FFFFFF" d="M364.365,89.245v-8.231h2.82c2.664,0,3.996,1.304,3.996,3.912v0.239c0,1.336-0.336,2.351-1.008,3.042
			c-0.672,0.692-1.664,1.038-2.977,1.038H364.365z M366.069,87.938h1.128c0.761,0,1.314-0.202,1.662-0.606
			c0.349-0.403,0.522-1.078,0.522-2.021v-0.408c0-0.96-0.188-1.634-0.564-2.022c-0.376-0.388-0.947-0.582-1.716-0.582h-1.032V87.938
			z"/>
	</g>
	<g>
		<path fill="#FFFFFF" d="M340.714,174.695v-1.212h5.652v1.212h-1.98v0.036c0,0.544,0.236,1.038,0.708,1.482
			c0.472,0.443,0.992,0.729,1.561,0.857l-0.732,1.212c-0.448-0.096-0.904-0.332-1.368-0.708s-0.792-0.764-0.983-1.164
			c-0.16,0.408-0.48,0.807-0.96,1.194c-0.48,0.388-0.98,0.654-1.5,0.798l-0.732-1.2c0.672-0.184,1.229-0.502,1.674-0.954
			c0.444-0.451,0.666-0.958,0.666-1.518v-0.036H340.714z M341.962,172.848v-1.141h3.18v1.141H341.962z M349.45,181.583h-7.44v-3.168
			h1.62v1.933h5.82V181.583z M349.234,171.155v7.848h-1.608v-2.688h-1.452v-1.272h1.452v-3.888H349.234z"/>
		<path fill="#FFFFFF" d="M357.25,175.703l-0.853,1.261c-0.439-0.152-0.892-0.427-1.355-0.822c-0.464-0.396-0.792-0.811-0.984-1.242
			c-0.144,0.48-0.472,0.946-0.984,1.398c-0.512,0.451-1.031,0.766-1.56,0.941l-0.816-1.248c0.801-0.271,1.423-0.702,1.866-1.29
			c0.444-0.588,0.666-1.273,0.666-2.058v-0.876h1.62v0.792c0,0.815,0.218,1.481,0.654,1.998
			C355.939,175.073,356.521,175.455,357.25,175.703z M352.233,177.863h7.345v3.996h-1.597v-2.748h-5.748V177.863z M359.565,177.443
			h-1.62v-6.288h1.62V177.443z"/>
	</g>
	<g>
		<path d="M195.82,111.379v-6.948h-2.292v-1.283h6.3v1.283h-2.316v6.948H195.82z"/>
		<path d="M200.716,111.379v-8.771h1.572v3.071h0.072c0.544-0.424,1.196-0.636,1.956-0.636c0.608,0,1.062,0.137,1.362,0.408
			c0.3,0.272,0.45,0.712,0.45,1.32v4.607h-1.584v-4.235c0-0.305-0.07-0.519-0.21-0.643s-0.398-0.186-0.774-0.186
			c-0.344,0-0.768,0.104-1.272,0.312v4.752H200.716z"/>
		<path d="M208.408,111.427v-6.611l-1.344,0.252v-0.996l2.184-0.96h0.876v8.315H208.408z"/>
		<path d="M212.284,111.379l2.916-6.924h-3.576v-1.308h5.424v0.983l-2.892,7.248H212.284z"/>
		<path d="M226.252,108.175h-5.004v-5.063h5.004V108.175z M229.888,112.555h-7.368v-3.348h1.62v2.112h5.748V112.555z
			 M224.691,106.915v-2.544h-1.872v2.544H224.691z M228.136,105.115h-1.236v-1.236h1.236v-1.752h1.596v7.752h-1.596v-2.424h-1.236
			v-1.236h1.236V105.115z"/>
		<path d="M231.279,105.403c0-0.769,0.26-1.395,0.78-1.878c0.52-0.484,1.172-0.727,1.956-0.727c0.792,0,1.447,0.242,1.968,0.727
			c0.521,0.483,0.78,1.109,0.78,1.878c0,0.775-0.263,1.41-0.786,1.901c-0.524,0.492-1.178,0.738-1.962,0.738
			c-0.792,0-1.446-0.246-1.962-0.738C231.537,106.813,231.279,106.179,231.279,105.403z M232.504,108.799h7.571v4.032h-1.62v-2.784
			h-5.951V108.799z M233.115,104.461c-0.231,0.229-0.348,0.542-0.348,0.942c0,0.399,0.116,0.714,0.348,0.941
			c0.232,0.229,0.532,0.343,0.9,0.343s0.67-0.114,0.906-0.343c0.235-0.228,0.354-0.542,0.354-0.941c0-0.393-0.12-0.704-0.36-0.937
			c-0.239-0.231-0.54-0.348-0.899-0.348C233.647,104.119,233.348,104.233,233.115,104.461z M237.1,107.155l0.036-1.356h1.319v-1.02
			h-1.319l-0.036-1.344h1.355v-1.309h1.62v6.252h-1.62v-1.224H237.1z"/>
		<path d="M246.892,108.367h-5.172v-5.472h1.56v1.644h2.028v-1.644h1.584V108.367z M250.107,112.52h-7.26v-3.385h1.584v2.137h5.676
			V112.52z M245.308,107.155v-1.428h-2.028v1.428H245.308z M249.903,102.127v2.94h1.488v1.296h-1.488v3.468h-1.572v-7.704H249.903z"
			/>
		<path d="M261.483,106.999v1.236h-9.66v-1.236H261.483z M259.443,109.249c0.68,0.364,1.02,0.851,1.02,1.458
			c0,0.608-0.34,1.094-1.02,1.458c-0.681,0.364-1.608,0.546-2.784,0.546c-1.192,0-2.128-0.18-2.808-0.54
			c-0.681-0.359-1.021-0.848-1.021-1.464c0-0.607,0.338-1.094,1.014-1.458c0.677-0.364,1.606-0.546,2.79-0.546
			C257.827,108.703,258.763,108.885,259.443,109.249z M252.939,104.551c0-0.592,0.334-1.073,1.002-1.445s1.569-0.559,2.706-0.559
			c1.144,0,2.052,0.187,2.724,0.559s1.008,0.854,1.008,1.445c0,0.601-0.336,1.084-1.008,1.452s-1.58,0.552-2.724,0.552
			c-1.137,0-2.038-0.184-2.706-0.552S252.939,105.151,252.939,104.551z M258.831,110.731c0-0.24-0.202-0.433-0.605-0.576
			c-0.404-0.145-0.935-0.216-1.591-0.216c-0.647,0-1.17,0.071-1.565,0.216c-0.396,0.144-0.594,0.336-0.594,0.576
			c0,0.224,0.197,0.406,0.594,0.546c0.396,0.14,0.918,0.21,1.565,0.21c0.648,0,1.177-0.07,1.584-0.21
			C258.627,111.138,258.831,110.955,258.831,110.731z M254.56,104.563c0,0.256,0.188,0.458,0.563,0.605
			c0.376,0.148,0.884,0.222,1.524,0.222c0.647,0,1.159-0.073,1.536-0.222c0.375-0.147,0.563-0.35,0.563-0.605
			c0-0.24-0.19-0.437-0.57-0.589c-0.38-0.151-0.89-0.228-1.529-0.228c-0.633,0-1.139,0.076-1.519,0.228
			C254.749,104.127,254.56,104.323,254.56,104.563z"/>
	</g>
	<g>
		<path d="M195.82,190.511v-6.948h-2.292v-1.283h6.3v1.283h-2.316v6.948H195.82z"/>
		<path d="M200.716,190.511v-8.771h1.572v3.071h0.072c0.544-0.424,1.196-0.636,1.956-0.636c0.608,0,1.062,0.137,1.362,0.408
			c0.3,0.272,0.45,0.712,0.45,1.32v4.607h-1.584v-4.235c0-0.305-0.07-0.519-0.21-0.643s-0.398-0.186-0.774-0.186
			c-0.344,0-0.768,0.104-1.272,0.312v4.752H200.716z"/>
		<path d="M207.292,190.511v-0.983l1.428-1.524c0.472-0.504,0.832-0.902,1.08-1.194s0.482-0.632,0.702-1.02
			c0.22-0.388,0.33-0.734,0.33-1.038c0-0.472-0.13-0.806-0.39-1.002c-0.26-0.196-0.654-0.294-1.182-0.294
			c-0.48,0-1.032,0.164-1.656,0.492l-0.216-1.212c0.696-0.393,1.488-0.589,2.376-0.589c0.936,0,1.642,0.202,2.118,0.606
			s0.714,0.99,0.714,1.758c0,0.353-0.07,0.71-0.21,1.074s-0.352,0.732-0.636,1.104c-0.284,0.372-0.512,0.658-0.684,0.858
			c-0.172,0.2-0.418,0.464-0.738,0.792l-0.852,0.864h3.144v1.308H207.292z"/>
		<path d="M221.932,187.307h-5.004v-5.063h5.004V187.307z M225.567,191.687h-7.368v-3.348h1.62v2.112h5.748V191.687z
			 M220.371,186.047v-2.544h-1.872v2.544H220.371z M223.815,184.247h-1.236v-1.236h1.236v-1.752h1.596v7.752h-1.596v-2.424h-1.236
			v-1.236h1.236V184.247z"/>
		<path d="M226.96,184.535c0-0.769,0.26-1.395,0.779-1.878c0.521-0.484,1.172-0.727,1.956-0.727c0.792,0,1.448,0.242,1.969,0.727
			c0.52,0.483,0.779,1.109,0.779,1.878c0,0.775-0.262,1.41-0.786,1.901c-0.523,0.492-1.178,0.738-1.962,0.738
			c-0.792,0-1.445-0.246-1.962-0.738C227.218,185.945,226.96,185.311,226.96,184.535z M228.184,187.931h7.572v4.032h-1.62v-2.784
			h-5.952V187.931z M228.796,183.593c-0.232,0.229-0.349,0.542-0.349,0.942c0,0.399,0.116,0.714,0.349,0.941
			c0.231,0.229,0.531,0.343,0.899,0.343s0.67-0.114,0.906-0.343c0.236-0.228,0.354-0.542,0.354-0.941c0-0.393-0.12-0.704-0.36-0.937
			c-0.24-0.231-0.54-0.348-0.9-0.348C229.327,183.251,229.027,183.365,228.796,183.593z M232.779,186.287l0.036-1.356h1.32v-1.02
			h-1.32l-0.036-1.344h1.356v-1.309h1.62v6.252h-1.62v-1.224H232.779z"/>
		<path d="M242.571,187.499h-5.172v-5.472h1.561v1.644h2.027v-1.644h1.584V187.499z M245.787,191.651h-7.26v-3.385h1.584v2.137
			h5.676V191.651z M240.987,186.287v-1.428h-2.027v1.428H240.987z M245.583,181.259v2.94h1.488v1.296h-1.488v3.468h-1.571v-7.704
			H245.583z"/>
		<path d="M257.163,186.131v1.236h-9.66v-1.236H257.163z M255.123,188.381c0.68,0.364,1.021,0.851,1.021,1.458
			c0,0.608-0.341,1.094-1.021,1.458s-1.607,0.546-2.784,0.546c-1.191,0-2.128-0.18-2.808-0.54c-0.68-0.359-1.02-0.848-1.02-1.464
			c0-0.607,0.338-1.094,1.014-1.458s1.605-0.546,2.79-0.546C253.507,187.835,254.443,188.017,255.123,188.381z M248.619,183.683
			c0-0.592,0.334-1.073,1.002-1.445s1.57-0.559,2.706-0.559c1.145,0,2.052,0.187,2.725,0.559c0.672,0.372,1.008,0.854,1.008,1.445
			c0,0.601-0.336,1.084-1.008,1.452c-0.673,0.368-1.58,0.552-2.725,0.552c-1.136,0-2.038-0.184-2.706-0.552
			S248.619,184.283,248.619,183.683z M254.512,189.863c0-0.24-0.202-0.433-0.606-0.576c-0.404-0.145-0.935-0.216-1.59-0.216
			c-0.648,0-1.17,0.071-1.566,0.216c-0.396,0.144-0.594,0.336-0.594,0.576c0,0.224,0.198,0.406,0.594,0.546
			c0.396,0.14,0.918,0.21,1.566,0.21c0.647,0,1.176-0.07,1.584-0.21S254.512,190.087,254.512,189.863z M250.239,183.695
			c0,0.256,0.188,0.458,0.564,0.605c0.376,0.148,0.884,0.222,1.523,0.222c0.648,0,1.16-0.073,1.536-0.222
			c0.376-0.147,0.564-0.35,0.564-0.605c0-0.24-0.19-0.437-0.57-0.589c-0.38-0.151-0.891-0.228-1.53-0.228
			c-0.632,0-1.138,0.076-1.518,0.228C250.43,183.259,250.239,183.455,250.239,183.695z"/>
	</g>
	<g>
		<path d="M23.435,120.345v-8.231h2.364l1.872,5.855h0.036l1.848-5.855h2.328v8.231h-1.68v-6.156h-0.036l-1.956,6.156h-1.332
			l-1.932-6.168h-0.036v6.168H23.435z"/>
		<path d="M34.354,120.393v-6.611l-1.344,0.252v-0.996l2.184-0.96h0.876v8.315H34.354z"/>
		<path d="M42.418,118.089h0.24c1.176,0,2.08-0.072,2.712-0.216l0.156,1.2c-0.888,0.191-2.068,0.288-3.54,0.288h-1.152v-7.021h4.056
			v1.236h-2.472V118.089z M49.678,121.785h-1.512v-5.28h-0.792v4.788h-1.488v-10.021h1.488v3.961h0.792v-4.141h1.512V121.785z"/>
		<path d="M57.455,115.641l-0.852,1.261c-0.44-0.152-0.892-0.427-1.356-0.822c-0.464-0.396-0.792-0.811-0.984-1.242
			c-0.144,0.48-0.472,0.946-0.984,1.398c-0.512,0.451-1.032,0.766-1.56,0.941l-0.816-1.248c0.8-0.271,1.422-0.702,1.866-1.29
			s0.666-1.273,0.666-2.058v-0.876h1.62v0.792c0,0.815,0.218,1.481,0.654,1.998C56.145,115.011,56.727,115.393,57.455,115.641z
			 M52.438,117.801h7.344v3.996h-1.596v-2.748h-5.748V117.801z M59.771,117.381h-1.62v-6.288h1.62V117.381z"/>
		<path d="M66.646,117.993l-0.948,1.235c-0.352-0.224-0.718-0.573-1.098-1.05c-0.38-0.476-0.63-0.938-0.75-1.386
			c-0.136,0.504-0.4,1.014-0.792,1.53c-0.392,0.516-0.82,0.905-1.284,1.17l-0.9-1.188c0.728-0.439,1.274-1.042,1.638-1.806
			c0.364-0.764,0.546-1.738,0.546-2.922v-1.452h1.584v1.428c0,1.176,0.168,2.106,0.504,2.79
			C65.482,117.027,65.982,117.577,66.646,117.993z M68.158,121.305h-1.44v-5.268h-1.272v-1.332h1.272v-3.42h1.44V121.305z
			 M70.318,121.785h-1.488v-10.692h1.488V121.785z"/>
		<path d="M81.178,120.453h-9.66v-1.236h4.044v-1.92h-3.18v-1.248h1.512l-0.336-2.304l1.572-0.156l0.216,2.46h2.016l0.24-2.448
			l1.572,0.168l-0.408,2.28h1.488v1.248h-3.12v1.92h4.044V120.453z M80.278,113.181H72.37v-1.26h7.908V113.181z"/>
		<path d="M81.442,121.593l2.892-10.188h1.38l-2.892,10.188H81.442z"/>
		<path d="M95.854,120.597h-9.66v-1.235h4.044v-0.925c-0.856-0.088-1.532-0.312-2.028-0.672c-0.496-0.359-0.744-0.804-0.744-1.332
			c0-0.607,0.328-1.102,0.984-1.481c0.656-0.38,1.516-0.57,2.58-0.57c1.072,0,1.93,0.19,2.574,0.57s0.966,0.874,0.966,1.481
			c0,0.536-0.246,0.984-0.738,1.345c-0.492,0.359-1.166,0.584-2.022,0.672v0.912h4.044V120.597z M95.326,114.188h-8.604v-1.235
			h8.604V114.188z M89.134,112.461v-1.212h3.756v1.212H89.134z M92.386,117.057c0.352-0.151,0.528-0.359,0.528-0.624
			c0-0.264-0.174-0.468-0.522-0.611c-0.348-0.145-0.802-0.217-1.362-0.217s-1.016,0.072-1.368,0.217
			c-0.352,0.144-0.528,0.348-0.528,0.611c0,0.265,0.178,0.473,0.534,0.624c0.356,0.152,0.81,0.229,1.362,0.229
			C91.582,117.285,92.034,117.209,92.386,117.057z"/>
		<path d="M106.174,117.309h-4.032v0.601c0.96,0.08,1.706,0.292,2.238,0.636c0.532,0.344,0.798,0.78,0.798,1.308
			c0,0.593-0.344,1.064-1.032,1.416c-0.688,0.353-1.628,0.528-2.82,0.528c-1.2,0-2.138-0.176-2.814-0.528
			c-0.676-0.352-1.014-0.823-1.014-1.416c0-0.535,0.268-0.976,0.804-1.319s1.284-0.553,2.244-0.624v-0.601h-4.032v-1.248h9.66
			V117.309z M105.718,114.465c-0.064,0.136-0.166,0.34-0.306,0.612c-0.14,0.271-0.246,0.479-0.318,0.624
			c-0.728-0.04-1.458-0.238-2.19-0.595c-0.732-0.355-1.258-0.802-1.578-1.338c-0.264,0.553-0.756,1.002-1.476,1.351
			c-0.72,0.348-1.484,0.542-2.292,0.582l-0.624-1.212c0.816-0.032,1.534-0.208,2.154-0.528c0.62-0.32,1.026-0.708,1.218-1.164H97.45
			v-1.248h7.848v1.248h-2.94c0.232,0.448,0.682,0.836,1.35,1.164C104.375,114.289,105.046,114.457,105.718,114.465z
			 M103.546,119.865c0-0.232-0.202-0.414-0.606-0.546c-0.404-0.133-0.942-0.198-1.614-0.198c-0.664,0-1.196,0.065-1.596,0.198
			c-0.4,0.132-0.6,0.313-0.6,0.546c0,0.216,0.2,0.386,0.6,0.51c0.4,0.124,0.932,0.186,1.596,0.186c0.672,0,1.21-0.062,1.614-0.186
			C103.344,120.251,103.546,120.081,103.546,119.865z"/>
		<path d="M115.33,111.621c0.048,1.712-0.072,3.264-0.36,4.656h1.524v1.248h-4.08v4.26h-1.572v-4.26h-4.008v-1.248h6.66
			c0.232-0.984,0.328-2.112,0.288-3.385h-5.808v-1.271H115.33z"/>
		<path d="M120.706,114.309v-1.271h5.652v1.271h-1.968c0.064,0.488,0.32,0.916,0.768,1.284c0.448,0.368,0.944,0.612,1.488,0.732
			c-0.32,0.544-0.56,0.943-0.72,1.2c-0.448-0.089-0.906-0.312-1.374-0.673c-0.468-0.359-0.798-0.735-0.99-1.128
			c-0.16,0.4-0.474,0.786-0.942,1.158c-0.468,0.372-0.97,0.638-1.506,0.798c-0.128-0.208-0.38-0.611-0.756-1.212
			c0.64-0.176,1.178-0.454,1.614-0.834s0.682-0.822,0.738-1.326H120.706z M121.93,112.604v-1.26h3.192v1.26H121.93z M129.13,121.665
			h-7.116v-3.744h7.116V121.665z M127.521,120.44v-1.319h-3.912v1.319H127.521z M129.13,117.477h-1.608v-6.384h1.608V117.477z"/>
		<path d="M135.189,119.337h-1.596v-1.872h-3.024v-1.248h9.66v1.248h-2.316v1.872h-1.596v-1.872h-1.128V119.337z M139.173,113.625
			c0,0.624-0.338,1.146-1.014,1.565c-0.676,0.421-1.586,0.631-2.73,0.631c-1.16,0-2.076-0.208-2.748-0.624
			c-0.672-0.416-1.008-0.94-1.008-1.572c0-0.616,0.336-1.132,1.008-1.548c0.672-0.416,1.58-0.624,2.724-0.624
			c1.16,0,2.078,0.208,2.754,0.624C138.835,112.493,139.173,113.009,139.173,113.625z M139.125,121.461h-7.452v-3.012h1.596v1.764
			h5.856V121.461z M137.529,113.648c0-0.295-0.19-0.537-0.57-0.726c-0.38-0.188-0.898-0.282-1.554-0.282
			c-0.632,0-1.142,0.095-1.53,0.282c-0.388,0.188-0.582,0.431-0.582,0.726c0,0.272,0.194,0.501,0.582,0.685
			c0.388,0.184,0.898,0.276,1.53,0.276c0.648,0,1.164-0.091,1.548-0.271C137.337,114.159,137.529,113.929,137.529,113.648z"/>
	</g>
	<g>
		<path d="M70.942,160.408h-9.66v-1.236h4.008v-2.304h1.572v2.304h4.08V160.408z M70.643,155.932c-0.152,0.28-0.388,0.7-0.708,1.261
			c-0.488-0.097-0.97-0.242-1.446-0.438s-0.948-0.479-1.416-0.852c-0.468-0.372-0.794-0.786-0.978-1.242
			c-0.184,0.448-0.5,0.862-0.948,1.242c-0.448,0.38-0.914,0.674-1.398,0.882c-0.484,0.208-0.966,0.359-1.446,0.456l-0.72-1.26
			c0.88-0.104,1.674-0.41,2.382-0.919c0.708-0.508,1.122-1.149,1.242-1.926h-3.18v-1.248h8.172v1.248h-3.216
			c0.08,0.528,0.314,0.998,0.702,1.41c0.388,0.412,0.835,0.73,1.344,0.954C69.536,155.724,70.074,155.868,70.643,155.932z"/>
		<path d="M72.046,152.968v-1.296h5.748v1.296h-1.992c0.064,0.712,0.32,1.312,0.768,1.8c0.448,0.488,1.012,0.849,1.692,1.08
			l-0.864,1.248c-0.432-0.136-0.894-0.412-1.386-0.828c-0.492-0.415-0.834-0.836-1.026-1.26c-0.128,0.456-0.46,0.91-0.996,1.362
			c-0.536,0.452-1.072,0.762-1.608,0.93l-0.804-1.235c0.768-0.265,1.378-0.66,1.83-1.188c0.452-0.528,0.702-1.164,0.75-1.908H72.046
			z M73.21,157.78h7.296v3.972H78.91v-2.736h-5.7V157.78z M80.494,157.312h-1.62v-6.264h1.62V157.312z"/>
		<path d="M91.582,157.768h-9.66v-1.248h4.032v-1.428h1.572v1.428h4.056V157.768z M86.746,153.448
			c-0.28,0.584-0.786,1.09-1.518,1.518c-0.732,0.429-1.482,0.698-2.25,0.811l-0.612-1.236c1.008-0.128,1.855-0.444,2.544-0.948
			c0.688-0.504,1.032-1.132,1.032-1.884v-0.348h1.608v0.348c0,0.76,0.336,1.38,1.008,1.86c0.672,0.479,1.528,0.788,2.568,0.924
			l-0.6,1.235c-0.792-0.111-1.548-0.373-2.268-0.785C87.538,154.53,87.034,154.032,86.746,153.448z M90.49,161.5h-7.344v-3.156
			h1.584v1.908h5.76V161.5z"/>
		<path d="M98.542,155.692l-0.864,1.235c-0.432-0.136-0.88-0.399-1.344-0.792c-0.464-0.392-0.788-0.804-0.972-1.235
			c-0.152,0.487-0.482,0.958-0.99,1.409c-0.508,0.452-1.03,0.767-1.566,0.942l-0.804-1.248c0.8-0.271,1.422-0.704,1.866-1.296
			c0.444-0.592,0.666-1.28,0.666-2.064v-0.96h1.62v0.889C96.154,154.101,96.95,155.14,98.542,155.692z M100.75,159.544
			c0,0.664-0.338,1.188-1.014,1.572c-0.676,0.384-1.602,0.576-2.778,0.576c-1.168,0-2.088-0.192-2.76-0.576
			s-1.008-0.908-1.008-1.572c0-0.672,0.334-1.204,1.002-1.596c0.668-0.393,1.59-0.588,2.766-0.588c1.176,0,2.102,0.195,2.778,0.588
			C100.412,158.34,100.75,158.872,100.75,159.544z M96.958,158.632c-0.672,0-1.2,0.082-1.584,0.246
			c-0.384,0.164-0.576,0.386-0.576,0.666s0.192,0.5,0.576,0.66c0.384,0.16,0.912,0.24,1.584,0.24c0.696,0,1.232-0.08,1.608-0.24
			s0.564-0.38,0.564-0.66s-0.19-0.502-0.57-0.666C98.18,158.714,97.646,158.632,96.958,158.632z M102.13,154.912h-1.488v2.388
			h-1.584v-6.252h1.584v2.568h1.488V154.912z"/>
	</g>
	<g>
		<path d="M51.994,200.255v-8.231h2.364l1.872,5.855h0.036l1.848-5.855h2.328v8.231h-1.68v-6.156h-0.036l-1.956,6.156h-1.332
			l-1.932-6.168H53.47v6.168H51.994z"/>
		<path d="M61.798,200.255v-0.983l1.428-1.524c0.472-0.504,0.832-0.902,1.08-1.194s0.482-0.632,0.702-1.02
			c0.22-0.388,0.33-0.734,0.33-1.038c0-0.472-0.13-0.806-0.39-1.002c-0.26-0.196-0.654-0.294-1.182-0.294
			c-0.48,0-1.032,0.164-1.656,0.492l-0.216-1.212c0.696-0.393,1.488-0.589,2.376-0.589c0.936,0,1.642,0.202,2.118,0.606
			s0.714,0.99,0.714,1.758c0,0.353-0.07,0.71-0.21,1.074s-0.352,0.732-0.636,1.104c-0.284,0.372-0.512,0.658-0.684,0.858
			c-0.172,0.2-0.418,0.464-0.738,0.792l-0.852,0.864h3.144v1.308H61.798z"/>
		<path d="M72.91,197.999h0.24c1.176,0,2.08-0.072,2.712-0.216l0.156,1.2c-0.888,0.191-2.068,0.288-3.54,0.288h-1.152v-7.021h4.056
			v1.236H72.91V197.999z M80.17,201.695h-1.512v-5.28h-0.792v4.788h-1.488v-10.021h1.488v3.961h0.792v-4.141h1.512V201.695z"/>
		<path d="M87.946,195.551l-0.852,1.261c-0.44-0.152-0.892-0.427-1.356-0.822c-0.464-0.396-0.792-0.811-0.984-1.242
			c-0.144,0.48-0.472,0.946-0.984,1.398c-0.512,0.451-1.032,0.766-1.56,0.941l-0.816-1.248c0.8-0.271,1.422-0.702,1.866-1.29
			s0.666-1.273,0.666-2.058v-0.876h1.62v0.792c0,0.815,0.218,1.481,0.654,1.998C86.636,194.921,87.218,195.303,87.946,195.551z
			 M82.93,197.711h7.344v3.996h-1.596v-2.748H82.93V197.711z M90.262,197.291h-1.62v-6.288h1.62V197.291z"/>
		<path d="M97.138,197.903l-0.948,1.235c-0.352-0.224-0.718-0.573-1.098-1.05c-0.38-0.476-0.63-0.938-0.75-1.386
			c-0.136,0.504-0.4,1.014-0.792,1.53c-0.392,0.516-0.82,0.905-1.284,1.17l-0.9-1.188c0.728-0.439,1.274-1.042,1.638-1.806
			c0.364-0.764,0.546-1.738,0.546-2.922v-1.452h1.584v1.428c0,1.176,0.168,2.106,0.504,2.79
			C95.974,196.938,96.474,197.487,97.138,197.903z M98.649,201.215h-1.44v-5.268h-1.272v-1.332h1.272v-3.42h1.44V201.215z
			 M100.81,201.695h-1.488v-10.692h1.488V201.695z"/>
		<path d="M111.669,200.363h-9.66v-1.236h4.044v-1.92h-3.18v-1.248h1.512l-0.336-2.304l1.572-0.156l0.216,2.46h2.016l0.24-2.448
			l1.572,0.168l-0.408,2.28h1.488v1.248h-3.12v1.92h4.044V200.363z M110.77,193.091h-7.908v-1.26h7.908V193.091z"/>
	</g>
	<g>
		<path d="M121.565,47.845l-0.84,1.284c-0.424-0.136-0.868-0.401-1.332-0.798c-0.464-0.396-0.784-0.806-0.96-1.229
			c-0.152,0.464-0.482,0.932-0.99,1.403c-0.508,0.473-1.022,0.796-1.542,0.973c-0.104-0.168-0.26-0.418-0.468-0.75
			s-0.324-0.515-0.348-0.547c0.792-0.304,1.41-0.751,1.854-1.344c0.444-0.592,0.666-1.26,0.666-2.004v-1.404h1.644v1.332
			c0,0.744,0.212,1.385,0.636,1.92C120.309,47.217,120.869,47.605,121.565,47.845z M124.277,53.125h-7.428v-3.288h1.584v2.052h5.844
			V53.125z M124.073,50.461h-1.608v-4.008h-1.692v-1.26h1.692v-2.484h1.608V50.461z"/>
		<path d="M125.873,46.249v-1.212h5.652v1.212h-1.98v0.036c0,0.544,0.236,1.038,0.708,1.482c0.472,0.443,0.992,0.729,1.56,0.857
			l-0.732,1.212c-0.448-0.096-0.904-0.332-1.368-0.708c-0.464-0.376-0.792-0.764-0.984-1.164c-0.16,0.408-0.48,0.807-0.96,1.194
			c-0.48,0.388-0.98,0.654-1.5,0.798l-0.732-1.2c0.672-0.184,1.23-0.502,1.674-0.954c0.444-0.451,0.666-0.958,0.666-1.518v-0.036
			H125.873z M127.121,44.401v-1.141h3.18v1.141H127.121z M134.609,53.137h-7.44v-3.168h1.62v1.933h5.82V53.137z M134.393,42.709
			v7.848h-1.608v-2.688h-1.452v-1.272h1.452v-3.888H134.393z"/>
		<path d="M141.221,48.757h-5.004v-5.063h5.004V48.757z M144.856,53.137h-7.368v-3.348h1.62v2.112h5.748V53.137z M139.661,47.497
			v-2.544h-1.872v2.544H139.661z M143.104,45.697h-1.236v-1.236h1.236v-1.752h1.596v7.752h-1.596v-2.424h-1.236v-1.236h1.236V45.697
			z"/>
		<path d="M146.249,45.985c0-0.769,0.26-1.395,0.78-1.878c0.52-0.484,1.172-0.727,1.956-0.727c0.792,0,1.448,0.242,1.968,0.727
			c0.52,0.483,0.78,1.109,0.78,1.878c0,0.775-0.262,1.41-0.786,1.901c-0.524,0.492-1.178,0.738-1.962,0.738
			c-0.792,0-1.446-0.246-1.962-0.738C146.506,47.396,146.249,46.761,146.249,45.985z M147.473,49.381h7.572v4.032h-1.62v-2.784
			h-5.952V49.381z M148.084,45.043c-0.232,0.229-0.348,0.542-0.348,0.942c0,0.399,0.116,0.714,0.348,0.941
			c0.232,0.229,0.532,0.343,0.9,0.343s0.67-0.114,0.906-0.343c0.236-0.228,0.354-0.542,0.354-0.941c0-0.393-0.12-0.704-0.36-0.937
			c-0.24-0.231-0.54-0.348-0.9-0.348C148.616,44.701,148.316,44.815,148.084,45.043z M152.068,47.737l0.036-1.356h1.32v-1.02h-1.32
			l-0.036-1.344h1.356v-1.309h1.62v6.252h-1.62v-1.224H152.068z"/>
	</g>
	<g>
		<path d="M251.217,31.27l-0.84,1.284c-0.424-0.136-0.868-0.401-1.332-0.798c-0.464-0.396-0.784-0.806-0.96-1.229
			c-0.152,0.464-0.481,0.932-0.99,1.403c-0.508,0.473-1.021,0.796-1.542,0.973c-0.104-0.168-0.26-0.418-0.468-0.75
			s-0.324-0.515-0.348-0.547c0.792-0.304,1.41-0.751,1.854-1.344c0.444-0.592,0.666-1.26,0.666-2.004v-1.404h1.645v1.332
			c0,0.744,0.212,1.385,0.636,1.92C249.961,30.642,250.521,31.03,251.217,31.27z M253.929,36.55h-7.428v-3.288h1.584v2.052h5.844
			V36.55z M253.726,33.886h-1.608v-4.008h-1.692v-1.26h1.692v-2.484h1.608V33.886z"/>
		<path d="M255.525,29.674v-1.212h5.651v1.212h-1.979v0.036c0,0.544,0.235,1.038,0.708,1.482c0.472,0.443,0.991,0.729,1.56,0.857
			l-0.731,1.212c-0.448-0.096-0.904-0.332-1.368-0.708c-0.465-0.376-0.792-0.764-0.984-1.164c-0.16,0.408-0.479,0.807-0.96,1.194
			c-0.479,0.388-0.98,0.654-1.5,0.798l-0.732-1.2c0.673-0.184,1.23-0.502,1.675-0.954c0.443-0.451,0.666-0.958,0.666-1.518v-0.036
			H255.525z M256.772,27.826v-1.141h3.181v1.141H256.772z M264.261,36.562h-7.439v-3.168h1.62v1.933h5.819V36.562z M264.045,26.134
			v7.848h-1.608v-2.688h-1.451v-1.272h1.451v-3.888H264.045z"/>
		<path d="M270.873,32.182h-5.004v-5.063h5.004V32.182z M274.509,36.562h-7.368v-3.348h1.62v2.112h5.748V36.562z M269.312,30.922
			v-2.544h-1.872v2.544H269.312z M272.757,29.122h-1.236v-1.236h1.236v-1.752h1.596v7.752h-1.596v-2.424h-1.236v-1.236h1.236V29.122
			z"/>
		<path d="M275.9,29.41c0-0.769,0.26-1.395,0.78-1.878c0.52-0.484,1.172-0.727,1.956-0.727c0.792,0,1.447,0.242,1.968,0.727
			c0.521,0.483,0.78,1.109,0.78,1.878c0,0.775-0.263,1.41-0.786,1.901c-0.524,0.492-1.178,0.738-1.962,0.738
			c-0.792,0-1.446-0.246-1.962-0.738C276.158,30.82,275.9,30.186,275.9,29.41z M277.125,32.806h7.571v4.032h-1.62v-2.784h-5.951
			V32.806z M277.736,28.468c-0.231,0.229-0.348,0.542-0.348,0.942c0,0.399,0.116,0.714,0.348,0.941
			c0.232,0.229,0.532,0.343,0.9,0.343s0.67-0.114,0.906-0.343c0.235-0.228,0.354-0.542,0.354-0.941c0-0.393-0.12-0.704-0.36-0.937
			c-0.239-0.231-0.54-0.348-0.899-0.348C278.269,28.126,277.969,28.24,277.736,28.468z M281.721,31.162l0.036-1.356h1.319v-1.02
			h-1.319l-0.036-1.344h1.355v-1.309h1.62v6.252h-1.62v-1.224H281.721z"/>
	</g>
	<g>
		<path fill="#FFFFFF" d="M375.938,18.178v-1.26h5.629v1.26h-1.872c0.184,1.192,0.92,1.992,2.208,2.4l-0.876,1.212
			c-0.376-0.12-0.776-0.366-1.2-0.738s-0.756-0.778-0.996-1.218c-0.152,0.527-0.452,0.996-0.9,1.403
			c-0.447,0.408-0.936,0.696-1.463,0.864l-0.973-1.212c0.744-0.264,1.32-0.613,1.729-1.05c0.408-0.436,0.647-0.99,0.72-1.662
			H375.938z M384.64,26.998h-7.429v-2.893h5.521v-0.527h-5.58V22.33h7.188v2.916h-5.531v0.504h5.832V26.998z M384.339,21.886h-1.607
			V16.39h1.607V21.886z"/>
		<path fill="#FFFFFF" d="M391.167,22.258h-4.98v-5.148h1.584v1.465h1.812v-1.465h1.584V22.258z M394.731,24.886
			c0,0.648-0.336,1.16-1.008,1.536c-0.673,0.376-1.597,0.563-2.772,0.563c-1.177,0-2.099-0.188-2.767-0.563
			s-1.002-0.888-1.002-1.536c0-0.656,0.334-1.174,1.002-1.554s1.59-0.57,2.767-0.57c1.176,0,2.1,0.19,2.772,0.57
			C394.396,23.712,394.731,24.229,394.731,24.886z M389.583,21.021V19.81h-1.812v1.212H389.583z M392.553,24.256
			c-0.38-0.148-0.914-0.222-1.602-0.222c-0.688,0-1.22,0.073-1.597,0.222c-0.375,0.148-0.563,0.358-0.563,0.63
			c0,0.256,0.19,0.46,0.569,0.612c0.381,0.151,0.91,0.228,1.591,0.228c0.688,0,1.222-0.073,1.602-0.222s0.57-0.354,0.57-0.618
			C393.123,24.614,392.933,24.404,392.553,24.256z M394.659,16.39v6.348h-1.608v-1.5h-1.319v-1.224h1.319v-0.972h-1.319v-1.225
			h1.319V16.39H394.659z"/>
		<path fill="#FFFFFF" d="M398.522,26.89c-0.656-0.6-1.195-1.321-1.619-2.166c-0.425-0.844-0.637-1.786-0.637-2.826V21.67
			c0-1.032,0.212-1.968,0.637-2.809c0.424-0.84,0.963-1.56,1.619-2.159h1.32c-0.576,0.647-1.044,1.392-1.404,2.231
			c-0.359,0.84-0.539,1.721-0.539,2.641v0.348c0,0.92,0.18,1.816,0.539,2.688c0.36,0.872,0.828,1.633,1.404,2.28H398.522z"/>
		<path fill="#FFFFFF" d="M409.923,25.75h-9.66v-1.236h4.008V22.21h1.572v2.304h4.08V25.75z M409.623,21.273
			c-0.152,0.28-0.388,0.7-0.708,1.261c-0.488-0.097-0.971-0.242-1.446-0.438s-0.948-0.479-1.416-0.852s-0.794-0.786-0.978-1.242
			c-0.185,0.448-0.5,0.862-0.948,1.242s-0.914,0.674-1.397,0.882c-0.484,0.208-0.967,0.359-1.447,0.456l-0.719-1.26
			c0.879-0.104,1.674-0.41,2.381-0.919c0.709-0.508,1.123-1.149,1.242-1.926h-3.18v-1.248h8.172v1.248h-3.216
			c0.079,0.528,0.313,0.998,0.702,1.41c0.388,0.412,0.836,0.73,1.344,0.954S409.055,21.21,409.623,21.273z"/>
		<path fill="#FFFFFF" d="M411.026,18.31v-1.296h5.748v1.296h-1.992c0.064,0.712,0.32,1.312,0.769,1.8
			c0.448,0.488,1.012,0.849,1.692,1.08l-0.865,1.248c-0.432-0.136-0.893-0.412-1.385-0.828c-0.492-0.415-0.834-0.836-1.026-1.26
			c-0.128,0.456-0.46,0.91-0.996,1.362s-1.072,0.762-1.608,0.93l-0.804-1.235c0.769-0.265,1.378-0.66,1.83-1.188
			s0.702-1.164,0.75-1.908H411.026z M412.19,23.122h7.297v3.972h-1.597v-2.736h-5.7V23.122z M419.475,22.653h-1.62V16.39h1.62
			V22.653z"/>
		<path fill="#FFFFFF" d="M420.639,26.89c0.583-0.647,1.06-1.394,1.428-2.238c0.368-0.844,0.552-1.722,0.552-2.634v-0.359
			c0-0.912-0.186-1.805-0.558-2.677c-0.372-0.871-0.847-1.632-1.422-2.279h1.332c0.647,0.6,1.182,1.321,1.602,2.166
			c0.421,0.844,0.63,1.781,0.63,2.813v0.229c0,1.031-0.209,1.97-0.63,2.813c-0.42,0.845-0.954,1.566-1.602,2.166H420.639z"/>
	</g>
	<g>
		<g>
			<line fill="none" stroke="#000000" stroke-miterlimit="10" x1="81.597" y1="23.193" x2="81.597" y2="60.021"/>
			<g>
				<polygon points="78.107,59 81.597,65.044 85.087,59 				"/>
			</g>
		</g>
	</g>
	<g>
		<g>
			<line fill="none" stroke="#000000" stroke-miterlimit="10" x1="81.597" y1="86.827" x2="81.597" y2="102.73"/>
			<g>
				<polygon points="78.107,101.708 81.597,107.753 85.087,101.708 				"/>
			</g>
		</g>
	</g>
	<g>
		<g>
			
				<line fill="none" stroke="#000000" stroke-width="0.7642" stroke-miterlimit="10" x1="225.694" y1="79.274" x2="225.694" y2="96.361"/>
			<g>
				<polygon points="223.027,95.581 225.694,100.2 228.362,95.581 				"/>
			</g>
		</g>
	</g>
	<g>
		<g>
			<line fill="none" stroke="#000000" stroke-miterlimit="10" x1="81.597" y1="125.762" x2="81.597" y2="141.665"/>
			<g>
				<polygon points="78.107,140.643 81.597,146.688 85.087,140.643 				"/>
			</g>
		</g>
	</g>
	<g>
		<g>
			<line fill="none" stroke="#000000" stroke-miterlimit="10" x1="81.597" y1="164.697" x2="81.597" y2="180.6"/>
			<g>
				<polygon points="78.107,179.578 81.597,185.623 85.087,179.578 				"/>
			</g>
		</g>
	</g>
	<g>
		<g>
			<line fill="none" stroke="#000000" stroke-miterlimit="10" x1="119.664" y1="75.461" x2="181.099" y2="71.464"/>
			<g>
				<polygon points="180.306,75.013 186.111,71.138 179.853,68.048 				"/>
			</g>
		</g>
	</g>
	<g>
		<g>
			<line fill="none" stroke="#000000" stroke-miterlimit="10" x1="119.664" y1="194.125" x2="181.099" y2="190.128"/>
			<g>
				<polygon points="180.306,193.677 186.111,189.802 179.853,186.711 				"/>
			</g>
		</g>
	</g>
	<g>
		<g>
			<line fill="none" stroke="#000000" stroke-miterlimit="10" x1="144.064" y1="114.315" x2="181.005" y2="109.75"/>
			<g>
				<polygon points="180.419,113.34 185.99,109.134 179.563,106.412 				"/>
			</g>
		</g>
	</g>
	<g>
		<g>
			<line fill="none" stroke="#FFFFFF" stroke-miterlimit="10" x1="261.483" y1="67.822" x2="327.083" y2="80.863"/>
			<g>
				<polygon fill="#FFFFFF" points="325.401,84.087 332.009,81.842 326.762,77.24 				"/>
			</g>
		</g>
	</g>
	<g>
		<g>
			<line fill="none" stroke="#FFFFFF" stroke-miterlimit="10" x1="266.031" y1="107.305" x2="327.162" y2="90.694"/>
			<g>
				<polygon fill="#FFFFFF" points="327.092,94.33 332.009,89.377 325.261,87.594 				"/>
			</g>
		</g>
	</g>
	<g>
		<g>
			<line fill="none" stroke="#FFFFFF" stroke-miterlimit="10" x1="263.342" y1="184.124" x2="326.992" y2="181.135"/>
			<g>
				<polygon fill="#FFFFFF" points="326.135,184.669 332.009,180.899 325.808,177.697 				"/>
			</g>
		</g>
	</g>
</g>
<g>
</g>
<g>
</g>
<g>
</g>
<g>
</g>
<g>
</g>
<g>
</g>
<g>
</g>
</svg>
