<?xml version="1.0" encoding="utf-8"?>
<!-- Generator: Adobe Illustrator 28.0.0, SVG Export Plug-In . SVG Version: 6.00 Build 0)  -->
<svg version="1.1" id="레이어_1" xmlns="http://www.w3.org/2000/svg" xmlns:xlink="http://www.w3.org/1999/xlink" x="0px"
	 y="0px" viewBox="0 0 291.403 126.991" enable-background="new 0 0 291.403 126.991" xml:space="preserve">
<g>
	<path fill="#232021" d="M45.218,120.159c0.336-0.317,0.754-0.477,1.255-0.477c0.501,0,0.92,0.159,1.256,0.477
		c0.335,0.318,0.503,0.725,0.503,1.221c0,0.496-0.167,0.9-0.5,1.213c-0.333,0.313-0.75,0.469-1.252,0.469
		c-0.506,0-0.927-0.155-1.263-0.465s-0.504-0.715-0.504-1.217C44.714,120.884,44.882,120.477,45.218,120.159z M46.473,120.202
		c-0.341,0-0.623,0.111-0.845,0.333s-0.333,0.504-0.333,0.845c0,0.341,0.112,0.62,0.337,0.837c0.225,0.217,0.508,0.325,0.849,0.325
		c0.346,0,0.629-0.108,0.849-0.325c0.22-0.217,0.33-0.496,0.33-0.837c0-0.346-0.11-0.629-0.33-0.849
		C47.11,120.312,46.825,120.202,46.473,120.202z M50.356,125.774H45.83v-2.062h0.589v1.573h3.937V125.774z M49.62,120.674h-1.232
		v-0.488h1.232v-0.961h0.589v4.921H49.62v-1.736h-1.232v-0.488h1.232V120.674z"/>
	<path fill="#232021" d="M56.308,119.729c0,1.229-0.083,2.229-0.248,2.999h1.046v0.496h-2.767v2.774H53.75v-2.774h-2.759v-0.496
		h4.479c0.15-0.589,0.225-1.426,0.225-2.511h-3.983v-0.488H56.308z"/>
	<path fill="#232021" d="M63.081,123.921l-0.372,0.45c-0.341-0.232-0.674-0.541-1-0.926c-0.326-0.385-0.55-0.766-0.674-1.143
		c-0.119,0.408-0.334,0.81-0.647,1.205c-0.313,0.396-0.673,0.738-1.082,1.027l-0.387-0.441c0.511-0.32,0.94-0.764,1.287-1.33
		c0.346-0.565,0.519-1.14,0.519-1.724v-1.225h0.597v1.201c0,0.594,0.169,1.154,0.508,1.678S62.585,123.627,63.081,123.921z
		 M64.538,125.999h-0.597v-6.773h0.597V125.999z"/>
	<path fill="#232021" d="M65.313,120.209v-0.496h3.697v0.496h-1.542c0,0.201,0.002,0.325,0.008,0.372
		c0.026,0.413,0.201,0.794,0.527,1.143c0.326,0.349,0.695,0.59,1.108,0.725l-0.326,0.473c-0.331-0.134-0.648-0.341-0.953-0.62
		c-0.305-0.279-0.527-0.568-0.667-0.868c-0.093,0.31-0.308,0.627-0.643,0.95c-0.336,0.323-0.69,0.564-1.062,0.725l-0.341-0.458
		c0.455-0.17,0.855-0.452,1.201-0.845c0.346-0.393,0.527-0.803,0.542-1.232c0-0.01,0.001-0.057,0.004-0.14
		c0.002-0.083,0.004-0.158,0.004-0.225H65.313z M66.111,123.604h4.371v2.402h-0.589v-1.914h-3.782V123.604z M71.505,121.55h-1.031
		v1.697h-0.589v-4.022h0.589v1.829h1.031V121.55z"/>
	<path fill="#232021" d="M76.589,126.006H76v-1.938h-2.759v-0.496h6.115v0.496h-2.767V126.006z M79.031,120.837H73.59v-0.496h5.441
		V120.837z M78.387,122.17c0,0.336-0.191,0.592-0.573,0.768c-0.383,0.175-0.887,0.263-1.512,0.263s-1.129-0.088-1.511-0.263
		c-0.383-0.176-0.573-0.432-0.573-0.768c0-0.341,0.19-0.599,0.573-0.775c0.382-0.176,0.886-0.264,1.511-0.264
		c0.631,0,1.136,0.088,1.516,0.264S78.387,121.829,78.387,122.17z M77.775,122.17c0-0.191-0.146-0.331-0.438-0.418
		s-0.637-0.132-1.035-0.132c-0.393,0-0.736,0.044-1.03,0.132c-0.295,0.088-0.442,0.228-0.442,0.418c0,0.181,0.148,0.317,0.446,0.407
		c0.297,0.09,0.639,0.135,1.026,0.135c0.393,0,0.736-0.045,1.031-0.135C77.627,122.487,77.775,122.351,77.775,122.17z
		 M77.434,119.83h-2.263v-0.504h2.263V119.83z"/>
	<path fill="#232021" d="M87.998,119.752c-0.052,0.837-0.356,1.577-0.915,2.221c-0.558,0.643-1.291,1.125-2.201,1.445l-0.294-0.504
		c0.697-0.191,1.303-0.539,1.817-1.042c0.514-0.503,0.822-1.042,0.926-1.616h-2.449v-0.504H87.998z M90.097,124.681
		c0,0.398-0.201,0.712-0.604,0.941c-0.402,0.23-0.969,0.345-1.697,0.345c-0.733,0-1.302-0.115-1.704-0.345
		c-0.403-0.229-0.604-0.543-0.604-0.941s0.201-0.71,0.604-0.938c0.402-0.227,0.971-0.341,1.704-0.341
		c0.724,0,1.288,0.115,1.693,0.345C89.895,123.977,90.097,124.289,90.097,124.681z M89.047,124.104
		c-0.297-0.137-0.714-0.205-1.252-0.205c-0.537,0-0.954,0.068-1.251,0.205c-0.298,0.137-0.446,0.33-0.446,0.578
		c0,0.253,0.148,0.449,0.446,0.589c0.297,0.14,0.714,0.209,1.251,0.209c0.538,0,0.955-0.07,1.252-0.209s0.445-0.336,0.445-0.589
		C89.493,124.433,89.344,124.241,89.047,124.104z M87.958,122.356v-0.488h1.496v-0.93h-1.388v-0.488h1.388v-1.225h0.589v4.278
		h-0.589v-1.147H87.958z"/>
	<path fill="#232021" d="M95.096,124.286c-0.537,0.073-1.307,0.137-2.31,0.194c-0.795,0.036-1.462,0.054-1.999,0.054l-0.085-0.519
		c0.815,0,1.31-0.002,1.479-0.008v-2.139h0.597v2.124c0.977-0.046,1.733-0.111,2.271-0.194L95.096,124.286z M94.585,119.938
		c0.01,0.522-0.01,1.088-0.059,1.697c-0.049,0.61-0.109,1.08-0.182,1.411l-0.566-0.078c0.072-0.331,0.129-0.741,0.171-1.232
		c0.041-0.491,0.054-0.925,0.038-1.302h-2.944v-0.496H94.585z M97.173,122.558h-1.101v3.441h-0.589v-6.773h0.589v2.829h1.101
		V122.558z"/>
	<path fill="#232021" d="M103.986,119.946c-0.016,1.059-0.311,2.001-0.887,2.825c-0.576,0.824-1.324,1.453-2.244,1.887l-0.341-0.465
		c0.837-0.367,1.505-0.887,2.003-1.562c0.499-0.674,0.779-1.404,0.842-2.189h-2.597v-0.496H103.986z M105.978,125.999h-0.589v-6.773
		h0.589V125.999z"/>
	<path fill="#232021" d="M106.994,119.822h3.084c-0.036,0.894-0.332,1.661-0.887,2.302c-0.556,0.641-1.28,1.103-2.175,1.387
		l-0.302-0.496c0.729-0.186,1.343-0.525,1.845-1.019c0.501-0.493,0.793-1.053,0.875-1.678h-2.44V119.822z M112.178,125.828h-4.472
		v-2.093h0.589v1.604h3.883V125.828z M113,121.845h-1.03v2.449h-0.59v-5.068h0.59v2.124H113V121.845z"/>
</g>
<g>
	<path fill="#232021" d="M207.935,120.159c0.336-0.317,0.754-0.477,1.255-0.477c0.502,0,0.92,0.159,1.256,0.477
		c0.336,0.318,0.504,0.725,0.504,1.221c0,0.496-0.167,0.9-0.5,1.213c-0.333,0.313-0.75,0.469-1.252,0.469
		c-0.506,0-0.927-0.155-1.263-0.465s-0.504-0.715-0.504-1.217C207.431,120.884,207.599,120.477,207.935,120.159z M209.19,120.202
		c-0.341,0-0.622,0.111-0.845,0.333c-0.222,0.222-0.333,0.504-0.333,0.845c0,0.341,0.112,0.62,0.337,0.837
		c0.226,0.217,0.508,0.325,0.849,0.325c0.347,0,0.629-0.108,0.849-0.325c0.22-0.217,0.33-0.496,0.33-0.837
		c0-0.346-0.11-0.629-0.33-0.849C209.827,120.312,209.542,120.202,209.19,120.202z M213.073,125.774h-4.525v-2.062h0.589v1.573
		h3.937V125.774z M212.336,120.674h-1.231v-0.488h1.231v-0.961h0.59v4.921h-0.59v-1.736h-1.231v-0.488h1.231V120.674z"/>
	<path fill="#232021" d="M219.025,119.729c0,1.229-0.083,2.229-0.248,2.999h1.046v0.496h-2.767v2.774h-0.589v-2.774h-2.759v-0.496
		h4.479c0.149-0.589,0.225-1.426,0.225-2.511h-3.983v-0.488H219.025z"/>
	<path fill="#232021" d="M225.798,123.921l-0.372,0.45c-0.341-0.232-0.675-0.541-1-0.926c-0.325-0.385-0.55-0.766-0.674-1.143
		c-0.119,0.408-0.335,0.81-0.647,1.205c-0.312,0.396-0.673,0.738-1.081,1.027l-0.388-0.441c0.512-0.32,0.94-0.764,1.287-1.33
		c0.346-0.565,0.519-1.14,0.519-1.724v-1.225h0.597v1.201c0,0.594,0.17,1.154,0.508,1.678
		C224.885,123.218,225.302,123.627,225.798,123.921z M227.255,125.999h-0.597v-6.773h0.597V125.999z"/>
	<path fill="#232021" d="M228.03,120.209v-0.496h3.697v0.496h-1.542c0,0.201,0.002,0.325,0.008,0.372
		c0.025,0.413,0.201,0.794,0.526,1.143c0.326,0.349,0.695,0.59,1.108,0.725l-0.325,0.473c-0.331-0.134-0.648-0.341-0.953-0.62
		c-0.306-0.279-0.527-0.568-0.667-0.868c-0.093,0.31-0.308,0.627-0.643,0.95c-0.336,0.323-0.69,0.564-1.062,0.725l-0.341-0.458
		c0.455-0.17,0.855-0.452,1.201-0.845c0.347-0.393,0.527-0.803,0.543-1.232c0-0.01,0.001-0.057,0.004-0.14
		c0.002-0.083,0.004-0.158,0.004-0.225H228.03z M228.829,123.604h4.371v2.402h-0.589v-1.914h-3.782V123.604z M234.222,121.55h-1.03
		v1.697h-0.589v-4.022h0.589v1.829h1.03V121.55z"/>
	<path fill="#232021" d="M240.957,126.006h-0.589v-1.938h-2.759v-0.496h6.114v0.496h-2.767V126.006z M243.398,120.837h-5.44v-0.496
		h5.44V120.837z M242.754,122.17c0,0.336-0.191,0.592-0.573,0.768c-0.383,0.175-0.887,0.263-1.512,0.263s-1.129-0.088-1.511-0.263
		c-0.383-0.176-0.573-0.432-0.573-0.768c0-0.341,0.19-0.599,0.573-0.775c0.382-0.176,0.886-0.264,1.511-0.264
		c0.631,0,1.136,0.088,1.516,0.264S242.754,121.829,242.754,122.17z M242.142,122.17c0-0.191-0.146-0.331-0.438-0.418
		s-0.637-0.132-1.035-0.132c-0.393,0-0.736,0.044-1.03,0.132c-0.295,0.088-0.442,0.228-0.442,0.418c0,0.181,0.148,0.317,0.446,0.407
		c0.297,0.09,0.639,0.135,1.026,0.135c0.393,0,0.736-0.045,1.031-0.135C241.995,122.487,242.142,122.351,242.142,122.17z
		 M241.801,119.83h-2.263v-0.504h2.263V119.83z"/>
	<path fill="#232021" d="M250.714,119.752c-0.052,0.837-0.356,1.577-0.915,2.221c-0.558,0.643-1.291,1.125-2.201,1.445l-0.294-0.504
		c0.697-0.191,1.303-0.539,1.817-1.042c0.514-0.503,0.822-1.042,0.926-1.616h-2.449v-0.504H250.714z M252.814,124.681
		c0,0.398-0.201,0.712-0.604,0.941c-0.402,0.23-0.969,0.345-1.697,0.345c-0.733,0-1.302-0.115-1.704-0.345
		c-0.403-0.229-0.604-0.543-0.604-0.941s0.201-0.71,0.604-0.938c0.402-0.227,0.971-0.341,1.704-0.341
		c0.724,0,1.288,0.115,1.693,0.345C252.612,123.977,252.814,124.289,252.814,124.681z M251.764,124.104
		c-0.297-0.137-0.714-0.205-1.252-0.205c-0.537,0-0.954,0.068-1.251,0.205c-0.298,0.137-0.446,0.33-0.446,0.578
		c0,0.253,0.148,0.449,0.446,0.589c0.297,0.14,0.714,0.209,1.251,0.209c0.538,0,0.955-0.07,1.252-0.209s0.445-0.336,0.445-0.589
		C252.209,124.433,252.061,124.241,251.764,124.104z M250.675,122.356v-0.488h1.496v-0.93h-1.388v-0.488h1.388v-1.225h0.589v4.278
		h-0.589v-1.147H250.675z"/>
	<path fill="#232021" d="M257.813,124.286c-0.537,0.073-1.307,0.137-2.31,0.194c-0.795,0.036-1.462,0.054-1.999,0.054l-0.085-0.519
		c0.815,0,1.31-0.002,1.479-0.008v-2.139h0.597v2.124c0.977-0.046,1.733-0.111,2.271-0.194L257.813,124.286z M257.302,119.938
		c0.01,0.522-0.01,1.088-0.059,1.697c-0.049,0.61-0.109,1.08-0.182,1.411l-0.566-0.078c0.072-0.331,0.129-0.741,0.171-1.232
		c0.041-0.491,0.054-0.925,0.038-1.302h-2.944v-0.496H257.302z M259.89,122.558h-1.101v3.441h-0.589v-6.773h0.589v2.829h1.101
		V122.558z"/>
	<path fill="#232021" d="M265.052,119.946c-0.016,1.059-0.311,2.001-0.887,2.825c-0.576,0.824-1.324,1.453-2.244,1.887l-0.341-0.465
		c0.837-0.367,1.505-0.887,2.003-1.562c0.499-0.674,0.779-1.404,0.842-2.189h-2.597v-0.496H265.052z M267.044,125.999h-0.589v-6.773
		h0.589V125.999z"/>
	<path fill="#232021" d="M268.06,119.822h3.084c-0.036,0.894-0.332,1.661-0.887,2.302c-0.556,0.641-1.28,1.103-2.175,1.387
		l-0.302-0.496c0.729-0.186,1.343-0.525,1.845-1.019c0.501-0.493,0.793-1.053,0.875-1.678h-2.44V119.822z M273.245,125.828h-4.472
		v-2.093h0.589v1.604h3.883V125.828z M274.066,121.845h-1.03v2.449h-0.59v-5.068h0.59v2.124h1.03V121.845z"/>
</g>
<g>
	<path fill="#232021" d="M6.773,70.884v0.574H0v-0.574H6.773z M6.425,72.125v0.581H3.867v0.907H3.379v-0.907H2.348v0.907H1.852
		v-0.907H0.194v-0.581H6.425z M1.333,73.403v3.177H0.845v-3.177H1.333z M1.736,73.961l2.767,0.255
		c-0.026-0.382-0.057-0.689-0.093-0.922l0.48-0.055c0.052,0.357,0.101,0.876,0.147,1.558c0.036,0.733,0.054,1.341,0.054,1.821
		L4.58,76.712V75.93l-2.829,0.209L1.674,75.55l2.891-0.17c0-0.052-0.001-0.107-0.004-0.167c-0.003-0.06-0.007-0.126-0.012-0.202
		c-0.005-0.075-0.008-0.133-0.008-0.174v-0.085L1.674,74.55L1.736,73.961z"/>
	<path fill="#232021" d="M2.193,63.553v1.031h1.658v0.589H0v-0.589h1.697v-1.031H2.193z M0.372,67.963
		c0-0.491,0.151-0.905,0.453-1.244S1.519,66.211,2,66.211c0.486,0,0.875,0.168,1.17,0.504c0.294,0.336,0.441,0.751,0.441,1.248
		c0,0.501-0.146,0.92-0.438,1.255c-0.292,0.336-0.681,0.504-1.166,0.504c-0.48,0-0.873-0.169-1.178-0.508
		C0.524,68.876,0.372,68.459,0.372,67.963z M0.853,67.963c0,0.341,0.108,0.624,0.325,0.849C1.395,69.036,1.669,69.148,2,69.148
		c0.336,0,0.608-0.111,0.817-0.333c0.209-0.222,0.314-0.506,0.314-0.853c0-0.351-0.103-0.637-0.31-0.856
		c-0.207-0.219-0.478-0.329-0.813-0.329c-0.341,0-0.619,0.108-0.833,0.325C0.96,67.32,0.853,67.606,0.853,67.963z M6.681,64.584
		v4.255H4.216v-4.255H6.681z M6.192,65.173H4.704v3.077h1.488V65.173z"/>
	<path fill="#232021" d="M2.015,56.741v1.031h1.488v0.589H0v-0.589h1.519v-1.031H2.015z M3.271,59.578v3.162H0.264v-0.589h0.992
		v-1.977H0.264v-0.597H3.271z M2.782,60.174H1.744v1.977h1.039V60.174z M6.727,57.524v4.572H5.038v-3.735H4.371v3.743h-0.48v-4.332
		h1.604v3.735h0.744v-3.983H6.727z"/>
	<path fill="#232021" d="M0,50.634h4.224v0.589H3.046v1.224H2.558v-1.224H1.62v1.224H1.131v-1.224H0V50.634z M3.728,52.858v3.03
		H0.418v-0.589h1.225v-1.852H0.418v-0.589H3.728z M3.247,53.447H2.131v1.852h1.116V53.447z M4.565,51.211
		c0.222-0.411,0.529-0.616,0.922-0.616c0.393,0,0.7,0.206,0.922,0.616s0.333,0.988,0.333,1.732c0,0.749-0.111,1.328-0.333,1.736
		c-0.222,0.408-0.529,0.612-0.922,0.612c-0.393,0-0.7-0.204-0.922-0.612c-0.222-0.408-0.333-0.987-0.333-1.736
		C4.231,52.199,4.343,51.622,4.565,51.211z M5.487,51.2c-0.232,0-0.418,0.155-0.558,0.465c-0.14,0.31-0.209,0.736-0.209,1.279
		c0,0.538,0.07,0.962,0.209,1.275c0.139,0.312,0.325,0.469,0.558,0.469c0.238,0,0.426-0.155,0.566-0.465s0.209-0.736,0.209-1.279
		s-0.069-0.969-0.209-1.279S5.725,51.2,5.487,51.2z"/>
	<path fill="#232021" d="M2.62,43.868v4.712H1.217v-3.991H0.69v3.999H0.225V44h1.418v3.991h0.535v-4.123H2.62z M6.649,43.752v4.898
		H5.185v-4.1H4.65v4.092H4.216v-0.899H3.526v1.612H3.053v-6.115h0.473v1.627h0.689v-0.907h1.395v4.1h0.574v-4.309H6.649z
		 M3.526,47.154h0.689v-1.689H3.526V47.154z"/>
	<path fill="#232021" d="M6.696,38.909c-0.915,0.894-1.968,1.341-3.162,1.341H3.41c-1.194,0-2.248-0.447-3.162-1.341v-0.535
		c0.413,0.372,0.889,0.673,1.426,0.903c0.538,0.23,1.098,0.345,1.682,0.345h0.186c0.569,0,1.134-0.116,1.697-0.349
		c0.563-0.232,1.049-0.532,1.457-0.899V38.909z"/>
	<path fill="#232021" d="M6.2,37.01l-5.642-3.596v-0.52L6.2,36.491V37.01z M3.081,35.72c0.256,0.214,0.384,0.505,0.384,0.872
		c0,0.367-0.119,0.658-0.356,0.872c-0.238,0.214-0.566,0.322-0.984,0.322H2c-0.414,0-0.747-0.107-1-0.322
		C0.747,37.25,0.62,36.959,0.62,36.592c0-0.367,0.119-0.657,0.356-0.872s0.563-0.322,0.977-0.322h0.124
		C2.49,35.398,2.825,35.506,3.081,35.72z M3.077,36.592c0-0.444-0.315-0.667-0.945-0.667H1.953c-0.625,0-0.938,0.222-0.938,0.667
		c0,0.439,0.31,0.659,0.93,0.659h0.178C2.759,37.25,3.077,37.031,3.077,36.592z M5.967,33.244c0,0.372-0.12,0.667-0.36,0.883
		s-0.567,0.326-0.98,0.326H4.51c-0.413,0-0.748-0.11-1.003-0.33s-0.384-0.513-0.384-0.879c0-0.367,0.119-0.656,0.356-0.868
		c0.238-0.212,0.563-0.318,0.977-0.318H4.58c0.414,0,0.748,0.107,1.004,0.322C5.839,32.594,5.967,32.882,5.967,33.244z
		 M5.572,33.244c0-0.429-0.312-0.644-0.938-0.644H4.456c-0.625,0-0.938,0.214-0.938,0.644c0,0.449,0.31,0.674,0.93,0.674h0.178
		C5.257,33.918,5.572,33.693,5.572,33.244z"/>
	<path fill="#232021" d="M6.696,31.469c-0.413-0.372-0.889-0.673-1.426-0.903c-0.538-0.229-1.095-0.345-1.674-0.345H3.402
		c-0.568,0-1.133,0.118-1.693,0.353c-0.561,0.235-1.048,0.534-1.461,0.895v-0.527c0.899-0.889,1.953-1.333,3.162-1.333h0.124
		c1.209,0,2.263,0.444,3.162,1.333V31.469z"/>
</g>
<g>
	<path fill="#232021" d="M163.638,73.157v0.574h-6.773v-0.574H163.638z M163.29,74.397v0.581h-2.558v0.907h-0.488v-0.907h-1.03
		v0.907h-0.496v-0.907h-1.658v-0.581H163.29z M158.198,75.676v3.177h-0.488v-3.177H158.198z M158.601,76.234l2.767,0.255
		c-0.025-0.382-0.057-0.689-0.093-0.922l0.48-0.055c0.052,0.357,0.101,0.876,0.147,1.558c0.036,0.733,0.054,1.341,0.054,1.821
		l-0.512,0.093v-0.783l-2.828,0.209l-0.078-0.589l2.892-0.17c0-0.052-0.002-0.107-0.004-0.167c-0.003-0.06-0.007-0.126-0.012-0.202
		c-0.006-0.075-0.008-0.133-0.008-0.174v-0.085l-2.868-0.201L158.601,76.234z"/>
	<path fill="#232021" d="M159.058,65.826v1.031h1.658v0.589h-3.852v-0.589h1.697v-1.031H159.058z M157.237,70.235
		c0-0.491,0.151-0.905,0.453-1.244c0.303-0.338,0.694-0.508,1.175-0.508c0.485,0,0.875,0.168,1.17,0.504s0.441,0.751,0.441,1.248
		c0,0.501-0.146,0.92-0.438,1.255c-0.292,0.336-0.681,0.504-1.166,0.504c-0.48,0-0.873-0.169-1.179-0.508
		C157.389,71.148,157.237,70.731,157.237,70.235z M157.717,70.235c0,0.341,0.108,0.624,0.325,0.849
		c0.218,0.225,0.491,0.337,0.822,0.337c0.336,0,0.608-0.111,0.817-0.333s0.313-0.506,0.313-0.853c0-0.351-0.103-0.637-0.31-0.856
		c-0.207-0.219-0.478-0.329-0.813-0.329c-0.342,0-0.619,0.108-0.833,0.325C157.825,69.592,157.717,69.879,157.717,70.235z
		 M163.545,66.856v4.255h-2.465v-4.255H163.545z M163.057,67.445h-1.488v3.077h1.488V67.445z"/>
	<path fill="#232021" d="M158.88,59.014v1.031h1.487v0.589h-3.503v-0.589h1.52v-1.031H158.88z M160.135,61.85v3.162h-3.007v-0.589
		h0.992v-1.977h-0.992V61.85H160.135z M159.647,62.447h-1.038v1.977h1.038V62.447z M163.592,59.796v4.572h-1.689v-3.735h-0.667
		v3.743h-0.48v-4.332h1.604v3.735h0.744v-3.983H163.592z"/>
	<path fill="#232021" d="M156.865,52.906h4.224v0.589h-1.178v1.224h-0.488v-1.224h-0.938v1.224h-0.488v-1.224h-1.132V52.906z
		 M160.592,55.131v3.03h-3.309v-0.589h1.225V55.72h-1.225v-0.589H160.592z M160.112,55.72h-1.115v1.852h1.115V55.72z M161.43,53.484
		c0.222-0.411,0.529-0.616,0.922-0.616s0.7,0.206,0.922,0.616c0.223,0.411,0.334,0.988,0.334,1.732c0,0.749-0.111,1.328-0.334,1.736
		c-0.222,0.408-0.529,0.612-0.922,0.612s-0.7-0.204-0.922-0.612c-0.223-0.408-0.334-0.987-0.334-1.736
		C161.096,54.472,161.208,53.895,161.43,53.484z M162.352,53.472c-0.232,0-0.419,0.155-0.558,0.465
		c-0.14,0.31-0.21,0.736-0.21,1.279c0,0.538,0.07,0.962,0.21,1.275c0.139,0.312,0.325,0.469,0.558,0.469
		c0.237,0,0.426-0.155,0.565-0.465s0.209-0.736,0.209-1.279s-0.069-0.969-0.209-1.279S162.589,53.472,162.352,53.472z"/>
	<path fill="#232021" d="M159.485,46.141v4.712h-1.403v-3.991h-0.526v3.999h-0.466v-4.588h1.419v3.991h0.534v-4.123H159.485z
		 M163.514,46.024v4.898h-1.465v-4.1h-0.534v4.092h-0.435v-0.899h-0.689v1.612h-0.473v-6.115h0.473v1.627h0.689v-0.907h1.396v4.1
		h0.573v-4.309H163.514z M160.391,49.427h0.689v-1.689h-0.689V49.427z"/>
	<path fill="#232021" d="M163.561,41.181c-0.915,0.894-1.969,1.341-3.162,1.341h-0.124c-1.193,0-2.247-0.447-3.162-1.341v-0.535
		c0.413,0.372,0.889,0.673,1.426,0.903c0.538,0.23,1.099,0.345,1.682,0.345h0.187c0.568,0,1.134-0.116,1.697-0.349
		c0.563-0.232,1.049-0.532,1.457-0.899V41.181z"/>
	<path fill="#232021" d="M163.065,39.283l-5.642-3.596v-0.52l5.642,3.596V39.283z M159.946,37.993
		c0.256,0.214,0.384,0.505,0.384,0.872c0,0.367-0.119,0.658-0.356,0.872c-0.238,0.214-0.566,0.322-0.984,0.322h-0.124
		c-0.414,0-0.747-0.107-1-0.322s-0.38-0.505-0.38-0.872c0-0.367,0.119-0.657,0.356-0.872c0.238-0.214,0.563-0.322,0.977-0.322h0.124
		C159.355,37.671,159.69,37.778,159.946,37.993z M159.942,38.864c0-0.444-0.315-0.667-0.945-0.667h-0.179
		c-0.625,0-0.938,0.222-0.938,0.667c0,0.439,0.31,0.659,0.93,0.659h0.179C159.624,39.523,159.942,39.304,159.942,38.864z
		 M162.833,35.517c0,0.372-0.12,0.667-0.36,0.883s-0.567,0.326-0.98,0.326h-0.116c-0.413,0-0.748-0.11-1.004-0.33
		s-0.384-0.513-0.384-0.879c0-0.367,0.119-0.656,0.356-0.868c0.238-0.212,0.563-0.318,0.977-0.318h0.124
		c0.414,0,0.748,0.107,1.004,0.322S162.833,35.155,162.833,35.517z M162.437,35.517c0-0.429-0.312-0.644-0.938-0.644h-0.179
		c-0.625,0-0.938,0.214-0.938,0.644c0,0.449,0.311,0.674,0.93,0.674h0.179C162.123,36.191,162.437,35.966,162.437,35.517z"/>
	<path fill="#232021" d="M163.561,33.741c-0.413-0.372-0.889-0.673-1.426-0.903c-0.538-0.229-1.096-0.345-1.674-0.345h-0.194
		c-0.568,0-1.133,0.118-1.693,0.353c-0.561,0.235-1.048,0.534-1.461,0.895v-0.527c0.899-0.889,1.953-1.333,3.162-1.333h0.124
		c1.209,0,2.263,0.444,3.162,1.333V33.741z"/>
</g>
<g>
	<path fill="#232021" d="M25.422,111.57c-0.569,0-1.028-0.206-1.38-0.616c-0.351-0.411-0.527-1.035-0.527-1.872v-0.434
		c0-0.857,0.177-1.481,0.531-1.872s0.815-0.585,1.383-0.585c0.558,0,1.006,0.192,1.345,0.577c0.338,0.385,0.508,1.001,0.508,1.849
		v0.473c0,0.837-0.169,1.459-0.508,1.868S25.985,111.57,25.422,111.57z M25.422,111.059c0.408,0,0.715-0.149,0.922-0.449
		s0.31-0.775,0.31-1.426v-0.573c0-1.271-0.408-1.907-1.225-1.907c-0.837,0-1.255,0.623-1.255,1.868v0.574
		C24.174,110.421,24.59,111.059,25.422,111.059z"/>
</g>
<path fill="none" stroke="#232021" stroke-width="0.3" d="M24.687,73.599l-4.248,0.024 M24.687,50.078l-4.248,0.025"/>
<line fill="none" stroke="#232021" stroke-width="0.75" x1="135.978" y1="98.601" x2="21.001" y2="98.624"/>
<g>
	<path fill="#232021" d="M16.564,101.104c-0.569,0-1.028-0.206-1.38-0.616c-0.351-0.411-0.527-1.035-0.527-1.872v-0.434
		c0-0.857,0.177-1.481,0.531-1.872s0.815-0.585,1.383-0.585c0.558,0,1.006,0.192,1.345,0.577c0.338,0.385,0.508,1.001,0.508,1.849
		v0.473c0,0.837-0.169,1.459-0.508,1.868S17.127,101.104,16.564,101.104z M16.564,100.593c0.408,0,0.715-0.149,0.922-0.449
		s0.31-0.775,0.31-1.426v-0.573c0-1.271-0.408-1.907-1.225-1.907c-0.837,0-1.255,0.623-1.255,1.868v0.574
		C15.316,99.955,15.732,100.593,16.564,100.593z"/>
</g>
<g>
	<path fill="#232021" d="M16.982,76.374v-4.611l-0.961,0.225v-0.356l1.225-0.573h0.325v5.316H16.982z"/>
</g>
<g>
	<path fill="#232021" d="M15.316,52.535V52.17l1.24-1.286c0.434-0.455,0.748-0.83,0.941-1.124s0.291-0.612,0.291-0.953
		c0-0.687-0.356-1.031-1.069-1.031c-0.367,0-0.754,0.142-1.163,0.426l-0.178-0.488c0.491-0.315,0.971-0.473,1.441-0.473
		c0.517,0,0.915,0.134,1.194,0.403c0.279,0.269,0.418,0.638,0.418,1.108c0,0.414-0.111,0.791-0.333,1.131
		c-0.222,0.341-0.592,0.775-1.108,1.302l-0.813,0.821h2.372v0.527H15.316z"/>
</g>
<line fill="none" stroke="#232021" stroke-width="0.285" x1="24.773" y1="15.647" x2="24.773" y2="98.588"/>
<line fill="none" stroke="#232021" stroke-width="0.3" x1="24.773" y1="103.166" x2="24.773" y2="98.666"/>
<line fill="none" stroke="#232021" stroke-width="0.3" x1="24.687" y1="27.326" x2="20.439" y2="27.351"/>
<g>
	<path fill="#232021" d="M16.646,29.86c-0.589,0-1.059-0.124-1.411-0.372L15.367,29c0.145,0.098,0.332,0.18,0.562,0.244
		c0.23,0.065,0.443,0.097,0.639,0.097c0.429,0,0.76-0.089,0.992-0.268s0.349-0.43,0.349-0.755c0-0.326-0.115-0.571-0.345-0.736
		c-0.23-0.166-0.549-0.248-0.957-0.248h-0.504v-0.527h0.465c0.341,0,0.615-0.082,0.822-0.244c0.207-0.163,0.31-0.389,0.31-0.678
		c0-0.574-0.349-0.86-1.046-0.86c-0.336,0-0.721,0.124-1.155,0.372L15.406,24.9c0.16-0.108,0.375-0.203,0.643-0.283
		s0.512-0.12,0.729-0.12c0.47,0,0.849,0.114,1.135,0.341c0.287,0.228,0.43,0.542,0.43,0.945c0,0.594-0.331,1-0.992,1.217
		c0.79,0.155,1.186,0.594,1.186,1.318c0,0.459-0.172,0.832-0.516,1.116C17.678,29.718,17.219,29.86,16.646,29.86z"/>
</g>
<g>
	<path fill="#232021" d="M48.211,111.506v-4.611l-0.961,0.225v-0.356l1.225-0.573H48.8v5.316H48.211z"/>
</g>
<line fill="none" stroke="#232021" stroke-width="0.3" x1="47.899" y1="103.166" x2="47.899" y2="98.666"/>
<g>
	<path fill="#232021" d="M69.367,111.399v-0.364l1.24-1.286c0.434-0.455,0.748-0.83,0.941-1.124s0.291-0.612,0.291-0.953
		c0-0.687-0.356-1.031-1.069-1.031c-0.367,0-0.754,0.142-1.163,0.426l-0.178-0.488c0.491-0.315,0.971-0.473,1.441-0.473
		c0.517,0,0.915,0.134,1.194,0.403c0.279,0.269,0.418,0.638,0.418,1.108c0,0.414-0.111,0.791-0.333,1.131
		c-0.222,0.341-0.592,0.775-1.108,1.302l-0.813,0.821h2.372v0.527H69.367z"/>
</g>
<line fill="none" stroke="#232021" stroke-width="0.3" x1="70.212" y1="103.088" x2="70.212" y2="98.588"/>
<g>
	<path fill="#232021" d="M92.939,111.477c-0.589,0-1.06-0.124-1.41-0.372l0.132-0.488c0.145,0.098,0.332,0.18,0.562,0.244
		c0.229,0.065,0.443,0.097,0.64,0.097c0.429,0,0.759-0.089,0.992-0.268c0.232-0.178,0.349-0.43,0.349-0.755
		c0-0.326-0.115-0.571-0.345-0.736c-0.23-0.166-0.55-0.248-0.958-0.248h-0.503v-0.527h0.465c0.341,0,0.614-0.082,0.821-0.244
		c0.206-0.163,0.31-0.389,0.31-0.678c0-0.574-0.349-0.86-1.046-0.86c-0.336,0-0.721,0.124-1.154,0.372l-0.094-0.496
		c0.16-0.108,0.375-0.203,0.644-0.283s0.512-0.12,0.729-0.12c0.47,0,0.849,0.114,1.136,0.341c0.286,0.228,0.43,0.542,0.43,0.945
		c0,0.594-0.331,1-0.992,1.217c0.791,0.155,1.186,0.594,1.186,1.318c0,0.459-0.171,0.832-0.515,1.116S93.512,111.477,92.939,111.477
		z"/>
</g>
<line fill="none" stroke="#232021" stroke-width="0.3" x1="92.275" y1="103.088" x2="92.275" y2="98.588"/>
<g>
	<path fill="#232021" d="M113.766,111.523v-1.217h-2.457v-0.465l2.542-3.712h0.48v3.674h0.868v0.503h-0.868v1.217H113.766z
		 M111.968,109.803h1.798v-2.697L111.968,109.803z"/>
</g>
<line fill="none" stroke="#232021" stroke-width="0.3" x1="113.214" y1="103.088" x2="113.214" y2="98.588"/>
<g>
	<path fill="#232021" d="M135.81,111.492c-0.609,0-1.096-0.132-1.457-0.396l0.116-0.496c0.15,0.103,0.34,0.191,0.569,0.263
		c0.23,0.073,0.448,0.108,0.655,0.108c0.408,0,0.728-0.107,0.957-0.321s0.345-0.508,0.345-0.88c0-0.739-0.426-1.108-1.278-1.108
		c-0.347,0-0.708,0.085-1.085,0.255l0.186-2.728h2.635v0.527h-2.139l-0.108,1.581c0.279-0.072,0.527-0.109,0.744-0.109
		c0.537,0,0.953,0.132,1.248,0.396c0.294,0.263,0.441,0.661,0.441,1.193c0,0.48-0.165,0.886-0.496,1.217
		S136.368,111.492,135.81,111.492z"/>
</g>
<line fill="none" stroke="#232021" stroke-width="0.3" x1="135.978" y1="103.088" x2="135.978" y2="98.588"/>
<g>
	<path fill="#DE2926" d="M55.979,42.666h-3.883v-0.488h3.883V42.666z M55.567,44.076c0,0.331-0.145,0.598-0.434,0.802
		c-0.289,0.204-0.659,0.306-1.108,0.306c-0.45,0-0.819-0.102-1.108-0.306s-0.434-0.471-0.434-0.802c0-0.341,0.144-0.612,0.43-0.813
		c0.287-0.202,0.658-0.302,1.112-0.302c0.449,0,0.819,0.101,1.108,0.302C55.423,43.463,55.567,43.735,55.567,44.076z M57.412,46.672
		c0,0.367-0.194,0.654-0.582,0.86c-0.387,0.207-0.943,0.31-1.666,0.31c-0.724,0-1.277-0.104-1.663-0.31
		c-0.385-0.207-0.577-0.493-0.577-0.86c0-0.372,0.192-0.663,0.577-0.872c0.385-0.209,0.939-0.314,1.663-0.314
		c0.723,0,1.279,0.104,1.666,0.314C57.218,46.009,57.412,46.3,57.412,46.672z M55.017,41.72h-1.953v-0.496h1.953V41.72z
		 M54.979,44.076c0-0.201-0.092-0.36-0.275-0.477c-0.184-0.116-0.41-0.174-0.678-0.174c-0.269,0-0.496,0.06-0.682,0.178
		c-0.186,0.119-0.279,0.276-0.279,0.473c0,0.186,0.095,0.34,0.287,0.461c0.191,0.122,0.416,0.182,0.674,0.182
		c0.269,0,0.495-0.06,0.678-0.178C54.887,44.422,54.979,44.267,54.979,44.076z M55.165,45.99c-0.506,0-0.904,0.061-1.193,0.182
		c-0.29,0.121-0.434,0.288-0.434,0.5c0,0.217,0.143,0.385,0.43,0.504c0.287,0.119,0.686,0.178,1.197,0.178
		c0.517,0,0.918-0.059,1.205-0.178c0.287-0.119,0.43-0.287,0.43-0.504c0-0.217-0.145-0.385-0.434-0.503S55.676,45.99,55.165,45.99z
		 M58.381,43.642h-1.046v1.79h-0.589v-4.355h0.589v2.069h1.046V43.642z"/>
	<path fill="#DE2926" d="M62.806,44.432l-0.341,0.473c-0.362-0.166-0.69-0.394-0.984-0.686s-0.511-0.608-0.651-0.949
		c-0.098,0.356-0.306,0.71-0.624,1.062c-0.318,0.352-0.663,0.623-1.035,0.814l-0.364-0.473c0.476-0.212,0.88-0.545,1.213-1
		c0.333-0.455,0.5-0.943,0.5-1.465v-0.767h0.597v0.744c0,0.527,0.169,0.992,0.508,1.395C61.962,43.983,62.356,44.267,62.806,44.432z
		 M64.387,47.633h-4.479v-2.108h0.589v1.62h3.891V47.633z M65.177,43.642h-1.031v2.356h-0.589v-4.921h0.589v2.069h1.031V43.642z"/>
	<path fill="#DE2926" d="M69.974,46.021l0.039,0.48c-0.682,0.083-1.429,0.15-2.24,0.202c-0.501,0.031-1.178,0.046-2.031,0.046
		l-0.108-0.511c0.563,0.021,1.17,0.018,1.821-0.008v-0.674c-0.393-0.042-0.707-0.162-0.941-0.36
		c-0.235-0.199-0.353-0.451-0.353-0.756c0-0.351,0.147-0.63,0.442-0.837c0.294-0.207,0.682-0.31,1.163-0.31
		c0.485,0,0.875,0.104,1.167,0.31c0.292,0.207,0.438,0.486,0.438,0.837c0,0.31-0.119,0.563-0.356,0.76s-0.558,0.315-0.961,0.356
		v0.643C68.91,46.148,69.551,46.088,69.974,46.021z M69.804,42.944h-4.03v-0.488h4.03V42.944z M68.796,44.44
		c0-0.196-0.094-0.355-0.283-0.477c-0.189-0.121-0.438-0.182-0.748-0.182c-0.305,0-0.554,0.061-0.748,0.182
		c-0.194,0.122-0.291,0.28-0.291,0.477c0,0.191,0.097,0.348,0.291,0.469c0.194,0.121,0.443,0.182,0.748,0.182
		c0.31,0,0.559-0.061,0.748-0.182C68.702,44.788,68.796,44.631,68.796,44.44z M68.727,41.906h-1.945V41.41h1.945V41.906z
		 M72.059,44.587h-1.085v3.263h-0.597v-6.773h0.597v3.007h1.085V44.587z"/>
	<path fill="#DE2926" d="M76.019,45.82l-0.371,0.434c-0.273-0.191-0.553-0.463-0.834-0.817s-0.467-0.696-0.554-1.027
		c-0.067,0.367-0.233,0.735-0.5,1.104c-0.266,0.369-0.569,0.675-0.911,0.918l-0.395-0.411c0.429-0.273,0.788-0.669,1.077-1.186
		c0.29-0.517,0.435-1.087,0.435-1.713v-0.759h-1.349v-0.488h3.232v0.488h-1.303v0.744C74.546,44.28,75.039,45.184,76.019,45.82z
		 M76.933,47.509h-0.58v-3.457h-1.086v-0.488h1.086v-2.325h0.58V47.509z M78.275,47.85h-0.582v-6.773h0.582V47.85z"/>
</g>
<g>
	<path fill="#21A5CF" d="M89.38,83.206h-6.114v-0.496h6.114V83.206z M88.776,80.384h-4.937v-0.488h4.937V80.384z M88.776,82.206
		h-4.929v-0.488h1.077l-0.171-0.992l0.612-0.078l0.116,1.069h1.651l0.139-1.085l0.612,0.078l-0.186,1.007h1.077V82.206z
		 M88.884,86.344h-4.875v-1.573h4.03v-0.566h-4.053v-0.48h4.642v1.488h-4.022v0.643h4.278V86.344z"/>
	<path fill="#21A5CF" d="M94.108,84.066l0.078,0.473c-0.837,0.17-1.93,0.256-3.278,0.256h-0.573v-2.62h2.526v-1.426h-2.542v-0.488
		h3.131v2.402h-2.526v1.635C92.173,84.309,93.235,84.231,94.108,84.066z M95.287,79.633v2.728h1.093v0.496h-1.093v3.549h-0.582
		v-6.773H95.287z"/>
	<path fill="#21A5CF" d="M101.03,84.329l-0.372,0.45c-0.342-0.232-0.675-0.541-1-0.926c-0.325-0.385-0.551-0.766-0.675-1.143
		c-0.118,0.408-0.334,0.81-0.646,1.205c-0.312,0.396-0.673,0.738-1.081,1.027L96.868,84.5c0.512-0.32,0.94-0.764,1.286-1.33
		c0.347-0.565,0.52-1.14,0.52-1.724v-1.225h0.597v1.201c0,0.594,0.169,1.154,0.508,1.678
		C100.116,83.625,100.534,84.035,101.03,84.329z M102.486,86.406h-0.597v-6.773h0.597V86.406z"/>
	<path fill="#21A5CF" d="M109.097,83.686h-2.03v1.379h2.774v0.496h-6.114v-0.496h2.751v-1.379h-2.016v-3.588h0.598v1.248h3.448
		v-1.248h0.589V83.686z M108.508,83.198v-1.364h-3.448v1.364H108.508z"/>
</g>
<polyline fill="none" stroke="#21A5CF" stroke-linecap="round" stroke-linejoin="round" stroke-miterlimit="10" points="
	26.883,97.855 33.613,96.337 37.26,94.252 40.064,94.252 43.15,92.736 45.953,91.788 48.057,91.788 51.563,87.806 53.946,86.29 
	55.77,84.394 57.453,82.498 59.695,80.791 61.379,80.791 65.304,79.654 69.371,78.136 71.895,76.81 75.54,74.724 77.644,73.018 
	81.43,71.312 85.356,68.847 87.32,66.572 88.161,64.865 91.527,64.865 93.911,62.401 95.453,61.074 96.716,59.936 102.323,59.936 
	104.286,56.712 105.969,55.765 109.194,55.765 110.737,53.3 112.42,51.025 113.963,48.371 116.926,47.664 121.955,47.664 
	124.2,46.665 126.441,46.665 128.125,45.148 131.491,45.148 132.331,42.304 133.874,41.356 134.858,38.133 135.978,37.185 "/>
<polyline fill="none" stroke="#DE2926" stroke-linecap="round" stroke-linejoin="round" stroke-miterlimit="10" points="
	26.883,97.855 30.809,96.148 33.473,95.011 35.297,94.062 38.382,91.029 41.607,91.029 42.447,89.323 44.692,89.323 46.093,87.238 
	47.496,85.341 50.44,83.445 52.124,81.74 53.665,80.222 55.488,79.085 57.453,78.136 59.976,78.136 61.518,76.431 63.622,75.292 
	65.025,73.777 66.566,73.777 67.688,71.691 68.81,71.691 69.511,69.794 70.633,68.658 71.895,67.709 73.718,67.709 75.401,66.193 
	77.504,66.193 79.186,65.055 82.131,65.055 85.636,65.055 86.759,63.539 87.881,62.021 89.423,60.505 91.807,60.505 91.807,58.041 
	93.35,56.144 95.172,54.627 97.137,54.627 99.378,53.49 100.5,52.542 105.691,52.542 106.531,51.214 110.175,51.214 111.159,49.888 
	112.56,49.888 113.963,48.371 116.347,48.371 117.748,46.665 118.731,44.769 119.713,43.82 121.395,42.873 123.077,40.408 
	126.583,40.408 128.405,37.185 131.631,37.185 132.612,35.289 135.978,35.289 "/>
<g>
	<path fill="#232021" d="M54.429,6.048c-0.752,0.102-1.622,0.179-2.608,0.232c-0.827,0.026-1.421,0.04-1.784,0.04l-0.112-0.864
		h1.392V3.528h1.008v1.888c0.917-0.059,1.592-0.115,2.024-0.168L54.429,6.048z M54.173,1.24c0,1.392-0.083,2.458-0.248,3.2
		l-0.984-0.104c0.112-0.672,0.168-1.416,0.168-2.232h-2.752V1.24H54.173z M56.661,4.248h-0.928v3.424h-1.048V0.544h1.048v2.84h0.928
		V4.248z"/>
	<path fill="#232021" d="M58.445,5.184h0.184c1.008,0,1.867-0.072,2.576-0.216c0.042,0.384,0.077,0.672,0.104,0.864
		c-0.821,0.16-1.917,0.24-3.288,0.24h-0.624V1.184h3.28V2.04h-2.232V5.184z M62.717,0.544v2.664h0.992v0.864h-0.992v3.6h-1.048
		V0.544H62.717z"/>
	<path fill="#232021" d="M72.837,5.216h-6.44V4.464h6.44V5.216z M72.437,2.264h-5.64V1.536h5.64V2.264z M72.029,7.552h-4.824V5.44
		h1.056v0.368h2.712V5.44h1.056V7.552z M71.893,3.36c0,0.283-0.192,0.514-0.576,0.692c-0.384,0.179-0.95,0.268-1.696,0.268
		s-1.312-0.089-1.696-0.268c-0.384-0.179-0.576-0.41-0.576-0.692c0-0.288,0.192-0.524,0.576-0.708
		c0.384-0.184,0.949-0.276,1.696-0.276s1.312,0.092,1.696,0.276C71.701,2.836,71.893,3.072,71.893,3.36z M70.973,6.824V6.528h-2.712
		v0.296H70.973z M70.805,3.36c0-0.176-0.395-0.264-1.184-0.264c-0.794,0-1.192,0.088-1.192,0.264c0,0.182,0.397,0.272,1.192,0.272
		C70.41,3.632,70.805,3.542,70.805,3.36z M68.437,1.344v-0.72h2.432v0.72H68.437z"/>
	<path fill="#232021" d="M73.477,2.88c0-0.522,0.176-0.949,0.528-1.28s0.789-0.496,1.312-0.496c0.528,0,0.969,0.166,1.324,0.496
		c0.355,0.331,0.532,0.757,0.532,1.28c0,0.518-0.177,0.941-0.532,1.272c-0.354,0.331-0.796,0.496-1.324,0.496
		c-0.523,0-0.96-0.165-1.312-0.496C73.653,3.821,73.477,3.397,73.477,2.88z M79.453,7.496h-4.984V5.232h1.064v1.44h3.92V7.496z
		 M74.729,2.224c-0.158,0.166-0.236,0.384-0.236,0.656s0.079,0.487,0.236,0.644c0.157,0.158,0.353,0.236,0.588,0.236
		c0.24,0,0.44-0.079,0.6-0.236c0.16-0.157,0.24-0.372,0.24-0.644s-0.082-0.49-0.244-0.656s-0.361-0.248-0.596-0.248
		C75.082,1.976,74.886,2.059,74.729,2.224z M77.365,4.136l0.04-0.888h0.88V2.4h-0.848l-0.032-0.896h0.88v-0.96h1.08v5.168h-1.08
		V4.136H77.365z"/>
	<path fill="#232021" d="M84.797,5.216l-0.592,0.848c-0.309-0.187-0.632-0.464-0.968-0.832c-0.336-0.368-0.558-0.714-0.664-1.04
		c-0.101,0.374-0.319,0.763-0.652,1.168c-0.333,0.406-0.668,0.699-1.004,0.88l-0.624-0.808c0.603-0.357,1.04-0.804,1.312-1.34
		c0.272-0.536,0.408-1.196,0.408-1.98V2.08h-1.368V1.2h3.832v0.88h-1.376C83.101,3.563,83.666,4.608,84.797,5.216z M86.077,0.544
		v2.688h0.96v0.864h-0.96v3.576h-1.04V0.544H86.077z"/>
</g>
<line fill="none" stroke="#232021" stroke-width="0.3" x1="89.408" y1="48.497" x2="94.174" y2="53.952"/>
<line fill="none" stroke="#232021" stroke-width="0.3" x1="77.048" y1="74.171" x2="81.814" y2="79.626"/>
<g>
	<path fill="#232021" d="M178.837,111.31c-0.568,0-1.028-0.206-1.38-0.616s-0.526-1.035-0.526-1.872v-0.434
		c0-0.857,0.177-1.481,0.53-1.872s0.815-0.585,1.384-0.585c0.558,0,1.006,0.192,1.345,0.577c0.338,0.385,0.507,1.001,0.507,1.849
		v0.473c0,0.837-0.169,1.459-0.507,1.868C179.851,111.105,179.4,111.31,178.837,111.31z M178.837,110.798
		c0.408,0,0.715-0.149,0.922-0.449s0.311-0.775,0.311-1.426v-0.573c0-1.271-0.408-1.907-1.225-1.907
		c-0.837,0-1.256,0.623-1.256,1.868v0.574C177.589,110.16,178.005,110.798,178.837,110.798z"/>
</g>
<path fill="none" stroke="#232021" stroke-width="0.3" d="M178.102,73.339l-4.248,0.024 M178.102,49.818l-4.248,0.025"/>
<line fill="none" stroke="#232021" stroke-width="0.75" x1="289.393" y1="98.342" x2="174.416" y2="98.365"/>
<g>
	<path fill="#232021" d="M169.979,100.844c-0.568,0-1.028-0.206-1.38-0.616s-0.526-1.035-0.526-1.872v-0.434
		c0-0.857,0.177-1.481,0.53-1.872s0.815-0.585,1.384-0.585c0.558,0,1.006,0.192,1.345,0.577c0.338,0.385,0.507,1.001,0.507,1.849
		v0.473c0,0.837-0.169,1.459-0.507,1.868C170.993,100.64,170.542,100.844,169.979,100.844z M169.979,100.332
		c0.408,0,0.715-0.149,0.922-0.449s0.311-0.775,0.311-1.426v-0.573c0-1.271-0.408-1.907-1.225-1.907
		c-0.837,0-1.256,0.623-1.256,1.868v0.574C168.731,99.694,169.147,100.332,169.979,100.332z"/>
</g>
<g>
	<path fill="#232021" d="M170.398,76.113v-4.611l-0.962,0.225V71.37l1.225-0.573h0.326v5.316H170.398z"/>
</g>
<g>
	<path fill="#232021" d="M168.731,52.274V51.91l1.24-1.286c0.434-0.455,0.748-0.83,0.941-1.124s0.291-0.612,0.291-0.953
		c0-0.687-0.356-1.031-1.07-1.031c-0.366,0-0.754,0.142-1.162,0.426l-0.178-0.488c0.49-0.315,0.971-0.473,1.441-0.473
		c0.517,0,0.914,0.134,1.193,0.403c0.278,0.269,0.418,0.638,0.418,1.108c0,0.414-0.111,0.791-0.333,1.131
		c-0.222,0.341-0.592,0.775-1.108,1.302l-0.813,0.821h2.371v0.527H168.731z"/>
</g>
<line fill="none" stroke="#232021" stroke-width="0.285" x1="178.188" y1="15.386" x2="178.188" y2="98.328"/>
<line fill="none" stroke="#232021" stroke-width="0.3" x1="178.188" y1="102.906" x2="178.188" y2="98.406"/>
<line fill="none" stroke="#232021" stroke-width="0.3" x1="178.102" y1="27.066" x2="173.854" y2="27.091"/>
<g>
	<path fill="#232021" d="M170.06,29.6c-0.589,0-1.06-0.124-1.41-0.372l0.132-0.488c0.145,0.098,0.332,0.18,0.562,0.244
		c0.229,0.065,0.443,0.097,0.64,0.097c0.429,0,0.759-0.089,0.992-0.268c0.232-0.178,0.349-0.43,0.349-0.755
		c0-0.326-0.115-0.571-0.345-0.736c-0.23-0.166-0.55-0.248-0.958-0.248h-0.503v-0.527h0.465c0.341,0,0.614-0.082,0.821-0.244
		c0.206-0.163,0.31-0.389,0.31-0.678c0-0.574-0.349-0.86-1.046-0.86c-0.336,0-0.721,0.124-1.154,0.372l-0.094-0.496
		c0.16-0.108,0.375-0.203,0.644-0.283s0.512-0.12,0.729-0.12c0.47,0,0.849,0.114,1.136,0.341c0.286,0.228,0.43,0.542,0.43,0.945
		c0,0.594-0.331,1-0.992,1.217c0.791,0.155,1.186,0.594,1.186,1.318c0,0.459-0.171,0.832-0.515,1.116S170.633,29.6,170.06,29.6z"/>
</g>
<g>
	<path fill="#232021" d="M201.626,111.246v-4.611l-0.962,0.225v-0.356l1.225-0.573h0.326v5.316H201.626z"/>
</g>
<line fill="none" stroke="#232021" stroke-width="0.3" x1="201.314" y1="102.906" x2="201.314" y2="98.406"/>
<g>
	<path fill="#232021" d="M222.782,111.138v-0.364l1.24-1.286c0.434-0.455,0.748-0.83,0.941-1.124s0.291-0.612,0.291-0.953
		c0-0.687-0.356-1.031-1.07-1.031c-0.366,0-0.754,0.142-1.162,0.426l-0.178-0.488c0.49-0.315,0.971-0.473,1.441-0.473
		c0.517,0,0.914,0.134,1.193,0.403c0.278,0.269,0.418,0.638,0.418,1.108c0,0.414-0.111,0.791-0.333,1.131
		c-0.222,0.341-0.592,0.775-1.108,1.302l-0.813,0.821h2.371v0.527H222.782z"/>
</g>
<line fill="none" stroke="#232021" stroke-width="0.3" x1="223.627" y1="102.828" x2="223.627" y2="98.328"/>
<g>
	<path fill="#232021" d="M246.354,111.216c-0.589,0-1.06-0.124-1.41-0.372l0.132-0.488c0.145,0.098,0.332,0.18,0.562,0.244
		c0.229,0.065,0.443,0.097,0.64,0.097c0.429,0,0.759-0.089,0.992-0.268c0.232-0.178,0.349-0.43,0.349-0.755
		c0-0.326-0.115-0.571-0.345-0.736c-0.23-0.166-0.55-0.248-0.958-0.248h-0.503v-0.527h0.465c0.341,0,0.614-0.082,0.821-0.244
		c0.206-0.163,0.31-0.389,0.31-0.678c0-0.574-0.349-0.86-1.046-0.86c-0.336,0-0.721,0.124-1.154,0.372l-0.094-0.496
		c0.16-0.108,0.375-0.203,0.644-0.283s0.512-0.12,0.729-0.12c0.47,0,0.849,0.114,1.136,0.341c0.286,0.228,0.43,0.542,0.43,0.945
		c0,0.594-0.331,1-0.992,1.217c0.791,0.155,1.186,0.594,1.186,1.318c0,0.459-0.171,0.832-0.515,1.116
		S246.927,111.216,246.354,111.216z"/>
</g>
<line fill="none" stroke="#232021" stroke-width="0.3" x1="245.69" y1="102.828" x2="245.69" y2="98.328"/>
<g>
	<path fill="#232021" d="M267.181,111.262v-1.217h-2.457v-0.465l2.542-3.712h0.48v3.674h0.868v0.503h-0.868v1.217H267.181z
		 M265.383,109.542h1.798v-2.697L265.383,109.542z"/>
</g>
<line fill="none" stroke="#232021" stroke-width="0.3" x1="266.629" y1="102.828" x2="266.629" y2="98.328"/>
<g>
	<path fill="#232021" d="M289.225,111.231c-0.609,0-1.096-0.132-1.457-0.396l0.116-0.496c0.15,0.103,0.34,0.191,0.569,0.263
		c0.23,0.073,0.448,0.108,0.655,0.108c0.408,0,0.728-0.107,0.957-0.321s0.345-0.508,0.345-0.88c0-0.739-0.426-1.108-1.278-1.108
		c-0.347,0-0.708,0.085-1.085,0.255l0.186-2.728h2.635v0.527h-2.139l-0.108,1.581c0.279-0.072,0.527-0.109,0.744-0.109
		c0.537,0,0.953,0.132,1.248,0.396c0.294,0.263,0.441,0.661,0.441,1.193c0,0.48-0.165,0.886-0.496,1.217
		S289.783,111.231,289.225,111.231z"/>
</g>
<line fill="none" stroke="#232021" stroke-width="0.3" x1="289.393" y1="102.828" x2="289.393" y2="98.328"/>
<g>
	<path fill="#DE2926" d="M224.893,39.677h-3.883v-0.488h3.883V39.677z M224.482,41.087c0,0.331-0.145,0.598-0.434,0.802
		c-0.29,0.204-0.659,0.306-1.108,0.306s-0.819-0.102-1.108-0.306s-0.434-0.471-0.434-0.802c0-0.341,0.143-0.612,0.43-0.813
		c0.287-0.202,0.657-0.302,1.112-0.302c0.449,0,0.818,0.101,1.108,0.302C224.337,40.475,224.482,40.747,224.482,41.087z
		 M226.327,43.684c0,0.367-0.193,0.654-0.581,0.86s-0.943,0.31-1.667,0.31c-0.723,0-1.277-0.104-1.662-0.31s-0.577-0.493-0.577-0.86
		c0-0.372,0.192-0.663,0.577-0.872c0.385-0.209,0.939-0.314,1.662-0.314c0.724,0,1.279,0.104,1.667,0.314
		C226.133,43.021,226.327,43.312,226.327,43.684z M223.932,38.731h-1.953v-0.496h1.953V38.731z M223.893,41.087
		c0-0.201-0.092-0.36-0.275-0.477s-0.409-0.174-0.678-0.174s-0.496,0.06-0.682,0.178c-0.187,0.119-0.279,0.276-0.279,0.473
		c0,0.186,0.096,0.34,0.286,0.461c0.191,0.122,0.416,0.182,0.675,0.182c0.269,0,0.494-0.06,0.678-0.178
		C223.801,41.434,223.893,41.279,223.893,41.087z M224.079,43.002c-0.506,0-0.903,0.061-1.193,0.182
		c-0.289,0.121-0.434,0.288-0.434,0.5c0,0.217,0.144,0.385,0.43,0.504c0.287,0.119,0.687,0.178,1.197,0.178
		c0.517,0,0.919-0.059,1.206-0.178c0.286-0.119,0.43-0.287,0.43-0.504c0-0.217-0.145-0.385-0.434-0.503
		C224.991,43.062,224.59,43.002,224.079,43.002z M227.295,40.654h-1.046v1.79h-0.59v-4.355h0.59v2.069h1.046V40.654z"/>
	<path fill="#DE2926" d="M231.721,41.444l-0.342,0.473c-0.361-0.166-0.689-0.394-0.983-0.686c-0.295-0.292-0.512-0.608-0.651-0.949
		c-0.099,0.356-0.307,0.71-0.624,1.062c-0.317,0.352-0.662,0.623-1.034,0.814l-0.364-0.473c0.475-0.212,0.879-0.545,1.213-1
		c0.333-0.455,0.5-0.943,0.5-1.465v-0.767h0.597v0.744c0,0.527,0.169,0.992,0.507,1.395
		C230.877,40.995,231.271,41.279,231.721,41.444z M233.302,44.645h-4.479v-2.108h0.589v1.62h3.891V44.645z M234.092,40.654h-1.03
		v2.356h-0.59v-4.921h0.59v2.069h1.03V40.654z"/>
	<path fill="#DE2926" d="M238.89,43.033l0.038,0.48c-0.682,0.083-1.429,0.15-2.239,0.202c-0.501,0.031-1.178,0.046-2.03,0.046
		l-0.108-0.511c0.562,0.021,1.17,0.018,1.82-0.008v-0.674c-0.393-0.042-0.706-0.162-0.941-0.36s-0.353-0.451-0.353-0.756
		c0-0.351,0.147-0.63,0.442-0.837c0.294-0.207,0.682-0.31,1.162-0.31c0.485,0,0.874,0.104,1.166,0.31
		c0.292,0.207,0.438,0.486,0.438,0.837c0,0.31-0.119,0.563-0.356,0.76c-0.238,0.196-0.559,0.315-0.961,0.356v0.643
		C237.826,43.16,238.466,43.1,238.89,43.033z M238.719,39.956h-4.03v-0.488h4.03V39.956z M237.711,41.452
		c0-0.196-0.094-0.355-0.282-0.477c-0.188-0.121-0.438-0.182-0.748-0.182c-0.305,0-0.554,0.061-0.748,0.182
		c-0.193,0.122-0.29,0.28-0.29,0.477c0,0.191,0.097,0.348,0.29,0.469c0.194,0.121,0.443,0.182,0.748,0.182
		c0.31,0,0.56-0.061,0.748-0.182C237.618,41.799,237.711,41.643,237.711,41.452z M237.642,38.917h-1.945v-0.496h1.945V38.917z
		 M240.974,41.599h-1.085v3.263h-0.597v-6.773h0.597v3.007h1.085V41.599z"/>
	<path fill="#DE2926" d="M244.935,42.832l-0.372,0.434c-0.273-0.191-0.552-0.463-0.833-0.817s-0.467-0.696-0.554-1.027
		c-0.067,0.367-0.234,0.735-0.5,1.104c-0.267,0.369-0.57,0.675-0.911,0.918l-0.396-0.411c0.43-0.273,0.788-0.669,1.078-1.186
		c0.289-0.517,0.434-1.087,0.434-1.713v-0.759h-1.349v-0.488h3.231v0.488h-1.302v0.744
		C243.462,41.292,243.954,42.196,244.935,42.832z M245.849,44.521h-0.581v-3.457h-1.085v-0.488h1.085v-2.325h0.581V44.521z
		 M247.19,44.862h-0.581v-6.773h0.581V44.862z"/>
</g>
<g>
	<path fill="#21A5CF" d="M267.293,75.97h-6.114v-0.496h6.114V75.97z M266.689,73.149h-4.937v-0.488h4.937V73.149z M266.689,74.97
		h-4.929v-0.488h1.077l-0.171-0.992l0.612-0.078l0.116,1.069h1.651l0.139-1.085l0.612,0.078l-0.186,1.007h1.077V74.97z
		 M266.797,79.109h-4.875v-1.573h4.03V76.97H261.9v-0.48h4.642v1.488h-4.022v0.643h4.278V79.109z"/>
	<path fill="#21A5CF" d="M272.021,76.831l0.078,0.473c-0.837,0.17-1.93,0.256-3.278,0.256h-0.573v-2.62h2.526v-1.426h-2.542v-0.488
		h3.131v2.402h-2.526v1.635C270.086,77.073,271.148,76.996,272.021,76.831z M273.2,72.397v2.728h1.093v0.496H273.2v3.549h-0.582
		v-6.773H273.2z"/>
	<path fill="#21A5CF" d="M278.943,77.094l-0.372,0.45c-0.342-0.232-0.675-0.541-1-0.926c-0.325-0.385-0.551-0.766-0.675-1.143
		c-0.118,0.408-0.334,0.81-0.646,1.205c-0.312,0.396-0.673,0.738-1.081,1.027l-0.388-0.441c0.512-0.32,0.94-0.764,1.286-1.33
		c0.347-0.565,0.52-1.14,0.52-1.724v-1.225h0.597v1.201c0,0.594,0.169,1.154,0.508,1.678
		C278.029,76.39,278.447,76.799,278.943,77.094z M280.399,79.171h-0.597v-6.773h0.597V79.171z"/>
	<path fill="#21A5CF" d="M287.01,76.451h-2.03v1.379h2.774v0.496h-6.114V77.83h2.751v-1.379h-2.016v-3.588h0.598v1.248h3.448v-1.248
		h0.589V76.451z M286.421,75.962v-1.364h-3.448v1.364H286.421z"/>
</g>
<g>
	<path fill="#232021" d="M201.208,5.216h-6.439V4.464h6.439V5.216z M200.808,2.264h-5.641V1.536h5.641V2.264z M200.4,7.552h-4.824
		V5.44h1.056v0.368h2.713V5.44h1.056V7.552z M200.264,3.36c0,0.283-0.192,0.514-0.576,0.692s-0.949,0.268-1.696,0.268
		s-1.312-0.089-1.696-0.268c-0.384-0.179-0.575-0.41-0.575-0.692c0-0.288,0.191-0.524,0.575-0.708
		c0.385-0.184,0.949-0.276,1.696-0.276s1.312,0.092,1.696,0.276C200.072,2.836,200.264,3.072,200.264,3.36z M199.344,6.824V6.528
		h-2.713v0.296H199.344z M199.176,3.36c0-0.176-0.396-0.264-1.185-0.264c-0.795,0-1.191,0.088-1.191,0.264
		c0,0.182,0.396,0.272,1.191,0.272C198.781,3.632,199.176,3.542,199.176,3.36z M196.808,1.344v-0.72h2.432v0.72H196.808z"/>
	<path fill="#232021" d="M201.848,2.88c0-0.522,0.176-0.949,0.527-1.28c0.353-0.331,0.79-0.496,1.312-0.496
		c0.528,0,0.969,0.166,1.324,0.496c0.354,0.331,0.531,0.757,0.531,1.28c0,0.518-0.177,0.941-0.531,1.272
		c-0.355,0.331-0.796,0.496-1.324,0.496c-0.522,0-0.96-0.165-1.312-0.496C202.024,3.821,201.848,3.397,201.848,2.88z M207.824,7.496
		h-4.983V5.232h1.063v1.44h3.92V7.496z M203.1,2.224c-0.157,0.166-0.236,0.384-0.236,0.656s0.079,0.487,0.236,0.644
		c0.157,0.158,0.353,0.236,0.588,0.236c0.24,0,0.439-0.079,0.6-0.236c0.16-0.157,0.24-0.372,0.24-0.644s-0.081-0.49-0.244-0.656
		c-0.162-0.166-0.361-0.248-0.596-0.248C203.453,1.976,203.257,2.059,203.1,2.224z M205.736,4.136l0.04-0.888h0.88V2.4h-0.848
		l-0.032-0.896h0.88v-0.96h1.08v5.168h-1.08V4.136H205.736z"/>
	<path fill="#232021" d="M213.167,5.216l-0.592,0.848c-0.31-0.187-0.632-0.464-0.968-0.832c-0.336-0.368-0.558-0.714-0.664-1.04
		c-0.102,0.374-0.318,0.763-0.652,1.168c-0.333,0.406-0.668,0.699-1.004,0.88l-0.624-0.808c0.603-0.357,1.04-0.804,1.312-1.34
		c0.271-0.536,0.408-1.196,0.408-1.98V2.08h-1.368V1.2h3.832v0.88h-1.376C211.472,3.563,212.038,4.608,213.167,5.216z
		 M214.448,0.544v2.688h0.96v0.864h-0.96v3.576h-1.04V0.544H214.448z"/>
	<path fill="#232021" d="M220.648,5.904c-0.73,0.096-1.499,0.163-2.304,0.2c-0.971,0.048-1.736,0.069-2.296,0.064l-0.12-0.928
		c1.04,0,1.797-0.008,2.271-0.024c0.693-0.016,1.485-0.064,2.376-0.144L220.648,5.904z M216.86,3.928
		c-0.365-0.315-0.548-0.726-0.548-1.232c0-0.506,0.183-0.917,0.548-1.232c0.365-0.314,0.825-0.472,1.38-0.472
		c0.561,0,1.026,0.157,1.4,0.472c0.373,0.315,0.56,0.726,0.56,1.232c0,0.507-0.187,0.917-0.56,1.232
		c-0.374,0.314-0.84,0.472-1.4,0.472C217.685,4.4,217.225,4.243,216.86,3.928z M217.336,2.696c0,0.251,0.088,0.458,0.264,0.62
		c0.176,0.163,0.389,0.244,0.64,0.244c0.256,0,0.474-0.081,0.652-0.244c0.179-0.163,0.268-0.369,0.268-0.62
		c0-0.256-0.089-0.464-0.268-0.624c-0.179-0.16-0.396-0.24-0.652-0.24s-0.471,0.08-0.644,0.24
		C217.422,2.232,217.336,2.44,217.336,2.696z M221.959,0.544v7.128h-1.056V0.544H221.959z"/>
	<path fill="#232021" d="M229.391,3.696l-0.561,0.856c-0.277-0.091-0.565-0.271-0.864-0.54c-0.299-0.27-0.512-0.551-0.64-0.844
		c-0.106,0.32-0.336,0.64-0.688,0.96c-0.352,0.32-0.698,0.536-1.039,0.648l-0.513-0.848c0.528-0.182,0.94-0.474,1.236-0.876
		c0.296-0.403,0.444-0.865,0.444-1.388V0.968h1.088v0.64C227.855,2.643,228.367,3.339,229.391,3.696z M226.143,5.064h4.928V7.68
		h-1.064V5.904h-3.863V5.064z M231.079,4.728h-1.08V2.912h-1.112V2.056h1.112V0.544h1.08V4.728z"/>
	<path fill="#232021" d="M235.783,4.576h-3.336V1.2h3.336V4.576z M238.207,7.496h-4.912V5.264h1.08v1.408h3.832V7.496z
		 M234.743,3.736V2.04h-1.248v1.696H234.743z M237.039,2.536h-0.824V1.712h0.824V0.544h1.064v5.168h-1.064V4.096h-0.824V3.272h0.824
		V2.536z"/>
	<path fill="#232021" d="M247.142,4.28h-1.968v1.688h2.72v0.848h-6.439V5.968h2.672V4.28h-1.896V1.032h1.057v2.424h3.855V4.28z"/>
	<path fill="#232021" d="M254.327,7.656h-5.088V5.928h3.855V5.664h-3.855v-0.76h1.928v-0.32h-2.672V3.808h6.439v0.776h-2.72v0.32
		h1.937v1.728h-3.841V6.88h4.017V7.656z M254.535,2.872l-0.368,0.776c-0.528-0.005-1.019-0.089-1.472-0.252
		c-0.454-0.163-0.782-0.383-0.984-0.66c-0.187,0.277-0.504,0.496-0.952,0.656s-0.949,0.245-1.504,0.256l-0.36-0.792
		c0.939-0.021,1.584-0.181,1.937-0.48h-1.624V1.584h5.008v0.792h-1.616C252.966,2.691,253.612,2.856,254.535,2.872z M250.51,1.36
		V0.608h2.4V1.36H250.51z"/>
</g>
<polyline fill="none" stroke="#21A5CF" stroke-linecap="round" stroke-linejoin="round" stroke-miterlimit="10" points="
	182.232,96.456 184.398,91.79 187.565,91.79 188.565,89.29 191.565,89.29 193.398,87.456 195.232,87.456 197.232,84.607 
	205.232,84.607 205.232,80.456 221.232,79.626 223.628,78.456 226.232,76.898 228.898,75.623 231.065,74.171 233.315,73.957 
	236.898,73.363 239.565,68.457 246.398,68.457 247.788,67.52 254.898,66.572 257.232,63.956 263.232,62.623 265.232,59.623 
	272.065,59.623 272.607,56.857 279.898,56.123 280.732,53.952 284.732,53.952 285.565,49.818 289.393,49.818 "/>
<polyline fill="none" stroke="#DE2926" stroke-linecap="round" stroke-linejoin="round" stroke-miterlimit="10" points="
	178.898,97.855 181.754,97.855 189.885,97.855 192.472,95.106 202.72,94.956 204.398,92.888 210.398,92.888 212.232,89.29 
	214.898,88.623 217.232,86.79 218.898,84.607 220.398,82.79 222.898,79.626 223.816,79.626 225.541,78.457 230.065,76.408 
	231.232,75.457 232.565,74.17 235.398,73.363 237.398,70.79 239.565,68.457 241.065,66.572 243.732,63.123 245.69,61.59 
	247.788,59.123 251.065,56.857 254.732,56.857 255.898,55.457 257.732,55.457 259.065,53.952 261.232,52.598 264.732,51.224 
	266.629,49.123 268.209,47.307 270.398,46.046 272.607,39.123 274.065,35.289 274.065,31.789 277.398,31.789 278.732,28.456 
	281.565,28.456 282.565,24.789 284.232,24.789 285.065,20.956 286.898,19.956 287.732,11.623 "/>
<line fill="none" stroke="#232021" stroke-width="0.3" x1="259.271" y1="44.319" x2="264.037" y2="49.774"/>
<line fill="none" stroke="#232021" stroke-width="0.3" x1="254.88" y1="67.898" x2="259.646" y2="73.353"/>
<g>
</g>
<g>
</g>
<g>
</g>
<g>
</g>
<g>
</g>
<g>
</g>
</svg>
