<?xml version="1.0" encoding="utf-8"?>
<!-- Generator: Adobe Illustrator 28.0.0, SVG Export Plug-In . SVG Version: 6.00 Build 0)  -->
<svg version="1.1" xmlns="http://www.w3.org/2000/svg" xmlns:xlink="http://www.w3.org/1999/xlink" x="0px" y="0px"
	 viewBox="0 0 586.772 368.259" enable-background="new 0 0 586.772 368.259" xml:space="preserve">
<g id="레이어_1">
	<g>
		<defs>
			<path id="SVGID_4_" d="M248.728,19.55c-3.512,1.043,1.1,2.555-0.84,4.784c-1.283-0.22-2.116-1.76-3.209-1.904
				c-1.793-0.238-1.532,1.342-2.469,2.323c-0.557,0.57-10.065,5.121-5.893,7.135c0.519,0.252,1.183,0.055,1.8-0.143
				c0.968-0.309,1.826-0.619,1.824,0.807c-0.003,1.84-3.287,1.696-3.436,3.22c-0.109,1.151,1.807,1.703,2.312,2.42
				c1.233,1.755,0.837,0.763-0.664,1.848c-1.921,1.395-3.033,2.946-1.217,5.438c2.616,3.603,5.187,2.071,8.594,3.509
				c1.923,0.813,3.109,2.95,5.061,3.943c1.553,0.789,3.671,1.007,5.163-0.175c1.063-0.845,1.712-2.139,2.962-2.679
				c1.036-0.448,1.999-0.212,2.972,0.025c0.662,0.161,1.33,0.322,2.025,0.265c1.191-0.095,5.467-1.496,5.529-3.023
				c0.073-1.696-3.652-1.816-2.818-4.125l0.393-0.253c2.111-1.375,3.363-3.139,3.856-6.123c0.508-3.092-2.132-3.331-3.609-5.613
				c-1.409-2.168-0.584-3.642,0.194-5.683c0.517-1.359,1.413-3.801-0.652-4.061c-1.148-0.145-2.267,0.924-3.363,1.993
				c-1.662,1.62-3.27,3.239-4.843,0.633c-0.998-1.651-0.33-2.835-2.244-3.904c-1.189-0.669-3.024-0.993-4.719-0.993
				C250.43,19.213,249.475,19.328,248.728,19.55"/>
		</defs>
		<clipPath id="SVGID_00000018922444130463224230000004067510893276213680_">
			<use xlink:href="#SVGID_4_"  overflow="visible"/>
		</clipPath>
		
			<radialGradient id="SVGID_1_" cx="-24.539" cy="607.3721" r="1.77" gradientTransform="matrix(-9.9824 1.2574 1.3585 10.7865 -816.8437 -6481.1548)" gradientUnits="userSpaceOnUse">
			<stop  offset="0" style="stop-color:#FFFFFF"/>
			<stop  offset="1" style="stop-color:#EEA389"/>
		</radialGradient>
		<polygon clip-path="url(#SVGID_00000018922444130463224230000004067510893276213680_)" fill="url(#SVGID_1_)" points="
			275.485,53.395 232.755,58.778 227.839,19.755 270.571,14.373 		"/>
	</g>
	<path fill="none" stroke="#221E1F" stroke-width="0.4426" d="M266.423,43.219c-0.833,2.308,2.891,2.429,2.818,4.126
		c-0.062,1.526-4.338,2.927-5.529,3.023c-1.717,0.137-3.254-1.047-4.999-0.292c-1.247,0.541-1.897,1.836-2.96,2.68
		c-1.492,1.183-3.61,0.965-5.163,0.175c-1.952-0.993-3.14-3.131-5.061-3.943c-3.405-1.438-5.977,0.094-8.594-3.509
		c-1.815-2.491-0.705-4.042,1.217-5.437c1.501-1.086,1.897-0.094,0.664-1.848c-0.505-0.718-2.421-1.27-2.312-2.421
		c0.149-1.523,3.432-1.38,3.436-3.219c0.004-2.338-2.291-0.02-3.624-0.664c-4.172-2.015,5.336-6.565,5.893-7.136
		c0.937-0.98,0.676-2.563,2.469-2.323c1.093,0.144,1.926,1.684,3.209,1.904c1.94-2.229-2.67-3.742,0.84-4.784
		c2.004-0.597,5.531-0.407,7.426,0.657c1.914,1.069,1.247,2.254,2.244,3.904c2.613,4.327,5.319-2.994,8.206-2.626
		c2.064,0.26,1.169,2.702,0.652,4.062c-0.778,2.041-1.601,3.514-0.194,5.683c1.477,2.282,4.117,2.521,3.61,5.613
		c-0.495,2.983-1.746,4.749-3.858,6.123L266.423,43.219z"/>
	<g>
		<defs>
			<path id="SVGID_3_" d="M253.884,29.381c-0.7,0.427-1.2,1.459-1.857,1.797c-0.747,0.383-1.594,0.111-2.402,0.385
				c-1.814,0.607-2.95,2.114-3.446,4.069c-2.161,8.502,13.106,10.372,14.291,1.101c0.14-1.101,0.109-2.309-0.109-3.467
				c-0.486-2.632-2.156-4.561-4.266-4.561C255.397,28.705,254.652,28.916,253.884,29.381"/>
		</defs>
		<clipPath id="SVGID_00000011712754934618055070000002287937565632411816_">
			<use xlink:href="#SVGID_3_"  overflow="visible"/>
		</clipPath>
		
			<radialGradient id="SVGID_00000020397861895070729800000016302653665232486281_" cx="-65.6187" cy="620.3219" r="1.7704" gradientTransform="matrix(3.8889 0.039 -0.039 -4.1918 532.6584 2638.5945)" gradientUnits="userSpaceOnUse">
			<stop  offset="0" style="stop-color:#F8D8CA"/>
			<stop  offset="1" style="stop-color:#E26044"/>
		</radialGradient>
		
			<polygon clip-path="url(#SVGID_00000011712754934618055070000002287937565632411816_)" fill="url(#SVGID_00000020397861895070729800000016302653665232486281_)" points="
			243.856,28.537 260.61,28.705 260.773,46.172 244.018,46.004 		"/>
	</g>
	<path fill="none" stroke="#221E1F" stroke-width="0.4426" d="M260.361,33.265c0.218,1.159,0.249,2.367,0.107,3.469
		c-1.183,9.27-16.45,7.399-14.287-1.101c0.495-1.955,1.631-3.462,3.444-4.069c0.808-0.273,1.655-0.003,2.402-0.385
		c0.657-0.338,1.158-1.372,1.857-1.797C256.976,27.505,259.715,29.768,260.361,33.265z"/>
	<g>
		<defs>
			<path id="SVGID_00000173855091278767476160000012201107193101242018_" d="M376.817,43.801c-0.833,2.308,2.891,2.429,2.818,4.126
				c-0.06,1.526-4.336,2.926-5.529,3.021c-1.717,0.138-3.254-1.046-4.996-0.29c-1.248,0.539-1.898,1.834-2.96,2.678
				c-1.495,1.183-3.61,0.965-5.163,0.176c-1.955-0.993-3.141-3.131-5.062-3.943c-3.405-1.438-5.978,0.094-8.594-3.509
				c-1.816-2.492-0.705-4.043,1.218-5.437c1.499-1.086,1.898-0.094,0.664-1.849c-0.507-0.717-2.422-1.269-2.311-2.42
				c0.149-1.523,3.43-1.38,3.433-3.219c0.003-2.337-2.291-0.019-3.624-0.664c-4.17-2.014,5.336-6.565,5.894-7.135
				c0.938-0.981,0.676-2.562,2.467-2.323c1.093,0.143,1.929,1.684,3.21,1.904c1.939-2.23-2.67-3.742,0.839-4.784
				c2.005-0.597,5.531-0.407,7.428,0.657c1.913,1.069,1.246,2.254,2.243,3.904c2.614,4.327,5.319-2.995,8.209-2.626
				c2.064,0.263,1.169,2.703,0.65,4.062c-0.778,2.041-1.601,3.514-0.194,5.683c1.477,2.282,4.119,2.521,3.61,5.613
				c-0.495,2.984-1.747,4.751-3.856,6.123L376.817,43.801z"/>
		</defs>
		<clipPath id="SVGID_00000172430009962693389900000011889135662368011405_">
			<use xlink:href="#SVGID_00000173855091278767476160000012201107193101242018_"  overflow="visible"/>
		</clipPath>
		
			<radialGradient id="SVGID_00000072268045798098167650000002364054370105561275_" cx="-51.4452" cy="607.0012" r="1.7704" gradientTransform="matrix(-9.9829 1.2574 1.3586 10.787 -974.6214 -6443.0605)" gradientUnits="userSpaceOnUse">
			<stop  offset="0" style="stop-color:#FFFFFF"/>
			<stop  offset="1" style="stop-color:#8FC3A1"/>
		</radialGradient>
		
			<polyline clip-path="url(#SVGID_00000172430009962693389900000011889135662368011405_)" fill="url(#SVGID_00000072268045798098167650000002364054370105561275_)" stroke="#231815" stroke-width="0.4426" points="
			380.966,14.957 385.881,53.977 343.149,59.36 338.235,20.339 380.966,14.957 		"/>
		
			<path clip-path="url(#SVGID_00000172430009962693389900000011889135662368011405_)" fill="none" stroke="#231815" stroke-width="0.4426" d="
			M359.122,20.132c-3.509,1.043,1.1,2.555-0.839,4.784c-1.282-0.217-2.117-1.759-3.21-1.903c-1.792-0.24-1.529,1.342-2.47,2.323
			c-0.556,0.57-10.062,5.121-5.891,7.135c0.517,0.252,1.181,0.054,1.799-0.144c0.97-0.309,1.826-0.619,1.826,0.808
			c-0.004,1.84-3.286,1.698-3.435,3.219c-0.11,1.151,1.805,1.703,2.31,2.42c1.235,1.755,0.838,0.763-0.664,1.848
			c-1.924,1.395-3.033,2.946-1.218,5.438c2.617,3.602,5.19,2.071,8.594,3.509c1.921,0.813,3.107,2.95,5.062,3.943
			c1.553,0.789,3.669,1.007,5.163-0.176c1.064-0.845,1.713-2.139,2.961-2.679c1.034-0.45,1.999-0.21,2.97,0.025
			c0.662,0.161,1.33,0.324,2.026,0.265c1.193-0.095,5.469-1.496,5.529-3.022c0.073-1.696-3.651-1.816-2.818-4.126l0.394-0.251
			c2.11-1.375,3.36-3.142,3.857-6.124c0.508-3.092-2.134-3.331-3.609-5.613c-1.409-2.168-0.586-3.64,0.191-5.683
			c0.519-1.36,1.417-3.799-0.649-4.06c-1.15-0.147-2.268,0.922-3.366,1.992c-1.661,1.62-3.268,3.239-4.842,0.632
			c-0.997-1.649-0.329-2.835-2.243-3.903c-1.191-0.668-3.027-0.992-4.724-0.992C360.821,19.797,359.867,19.91,359.122,20.132"/>
		
			<use xlink:href="#SVGID_00000173855091278767476160000012201107193101242018_"  overflow="visible" fill="none" stroke="#231815" stroke-width="0.4426"/>
	</g>
	<g>
		<defs>
			<path id="SVGID_6_" d="M364.278,29.963c-0.698,0.425-1.199,1.459-1.856,1.797c-0.747,0.38-1.595,0.112-2.401,0.384
				c-1.815,0.608-2.952,2.115-3.445,4.069c-2.164,8.5,13.105,10.372,14.286,1.101c0.144-1.101,0.112-2.309-0.106-3.469
				c-0.487-2.63-2.156-4.56-4.267-4.56C365.792,29.287,365.045,29.496,364.278,29.963"/>
		</defs>
		<clipPath id="SVGID_00000124120039604625778460000009055427707635395493_">
			<use xlink:href="#SVGID_6_"  overflow="visible"/>
		</clipPath>
		
			<radialGradient id="SVGID_00000085239256082106006240000011329537744637290926_" cx="3.4064" cy="630.1506" r="1.7707" gradientTransform="matrix(3.8895 0.039 -0.039 -4.1924 374.9989 2678.0547)" gradientUnits="userSpaceOnUse">
			<stop  offset="0" style="stop-color:#CFE3D5"/>
			<stop  offset="1" style="stop-color:#239E65"/>
		</radialGradient>
		
			<polygon clip-path="url(#SVGID_00000124120039604625778460000009055427707635395493_)" fill="url(#SVGID_00000085239256082106006240000011329537744637290926_)" points="
			354.249,29.118 371.005,29.287 371.168,46.754 354.412,46.585 		"/>
	</g>
	<path fill="none" stroke="#221E1F" stroke-width="0.4426" d="M370.757,33.846c0.217,1.159,0.247,2.367,0.106,3.469
		c-1.183,9.27-16.45,7.399-14.287-1.101c0.495-1.955,1.63-3.461,3.446-4.068c0.805-0.273,1.653-0.004,2.401-0.385
		c0.656-0.338,1.158-1.372,1.855-1.797C367.369,28.087,370.108,30.349,370.757,33.846z"/>
	<g>
		
			<radialGradient id="SVGID_00000165935957107843912680000011951026711139793572_" cx="306.2222" cy="36.1394" r="19.4287" gradientTransform="matrix(1 0 0 0.5814 0 15.127)" gradientUnits="userSpaceOnUse">
			<stop  offset="0" style="stop-color:#FFFFFF"/>
			<stop  offset="1" style="stop-color:#8FC3A1"/>
		</radialGradient>
		
			<line fill="url(#SVGID_00000165935957107843912680000011951026711139793572_)" x1="279.418" y1="36.139" x2="336.192" y2="36.139"/>
		<g>
			<line fill="none" stroke="#231815" stroke-width="0.75" x1="279.418" y1="36.139" x2="331.665" y2="36.139"/>
			<g>
				<path fill="#231815" d="M336.192,36.139c-2.13,0.79-4.772,2.139-6.411,3.567l1.29-3.567l-1.29-3.566
					C331.419,34.001,334.062,35.35,336.192,36.139z"/>
			</g>
		</g>
	</g>
	<g>
		<g>
			<path fill="none" stroke="#231815" stroke-width="0.75" d="M260.321,57.301c0,0,0.266,0.464,0.691,1.327"/>
			<path fill="none" stroke="#231815" stroke-width="0.75" stroke-dasharray="3.0145,2.0097" d="M261.856,60.448
				c4.705,10.712,16.078,46.428-27.772,70.563"/>
			<path fill="none" stroke="#231815" stroke-width="0.75" d="M233.191,131.496c-0.437,0.235-0.879,0.468-1.326,0.701"/>
			<g>
				<path fill="#231815" d="M227.805,134.204c1.548-1.663,3.303-4.055,4.125-6.066l0.45,3.766l2.755,2.607
					C233.029,133.97,230.062,133.953,227.805,134.204z"/>
			</g>
		</g>
	</g>
	<g>
		<g>
			<path fill="none" stroke="#231815" stroke-width="0.75" stroke-dasharray="3,2" d="M269.095,54.72
				c0,0,38.88,37.384-12.681,104.315"/>
			<g>
				<path fill="#231815" d="M253.611,162.591c0.679-2.168,1.23-5.083,1.103-7.253l2.031,3.203l3.61,1.162
					C258.223,160.125,255.539,161.39,253.611,162.591z"/>
			</g>
		</g>
	</g>
	<g>
		<g>
			<path fill="none" stroke="#231815" stroke-width="0.75" stroke-dasharray="3,2" d="M384.708,45.946
				c0,0,90.595,69.959,89.878,188.506"/>
			<g>
				<path fill="#231815" d="M474.514,238.978c-0.787-2.131-2.132-4.775-3.558-6.415l3.565,1.295l3.568-1.285
					C476.659,234.208,475.307,236.849,474.514,238.978z"/>
			</g>
		</g>
	</g>
	<g>
		<g>
			<path fill="none" stroke="#231815" stroke-width="0.75" stroke-dasharray="3,2" d="M390.385,38.72
				c0,0,168.803,84.907,144.324,224.714"/>
			<g>
				<path fill="#231815" d="M533.869,267.881c-0.396-2.237-1.249-5.078-2.36-6.946l3.278,1.908l3.74-0.63
					C536.828,263.569,535.028,265.927,533.869,267.881z"/>
			</g>
		</g>
	</g>
	<g>
		<path d="M221.669,98.256l0.084,1.212c-2.023,0.2-4.159,0.3-6.407,0.3l-0.217-1.308c0.849,0.024,1.616,0.032,2.305,0.024v-0.312
			c-0.521-0.08-0.927-0.226-1.218-0.438c-0.293-0.212-0.438-0.462-0.438-0.75c0-0.4,0.238-0.718,0.714-0.954s1.126-0.354,1.95-0.354
			c0.8,0,1.444,0.122,1.932,0.366c0.488,0.244,0.732,0.57,0.732,0.978c0,0.28-0.158,0.524-0.474,0.732
			c-0.316,0.208-0.742,0.352-1.278,0.432v0.252C220.089,98.404,220.861,98.344,221.669,98.256z M221.394,95.532h-6.036v-1.2h6.036
			V95.532z M224.189,103.788h-7.752v-2.34h5.664v-0.312h-5.664v-1.14h7.536v2.412h-5.652v0.3h5.868V103.788z M220.001,94.092h-3.035
			v-1.14h3.035V94.092z M219.222,97.008c0-0.208-0.261-0.312-0.78-0.312c-0.544,0-0.816,0.104-0.816,0.312
			c0,0.168,0.272,0.252,0.816,0.252C218.961,97.26,219.222,97.176,219.222,97.008z M225.09,97.272h-1.116v2.388h-1.86v-6.744h1.86
			v2.82h1.116V97.272z"/>
		<path d="M232.146,97.404l-0.984,1.524c-0.424-0.144-0.86-0.4-1.308-0.768c-0.448-0.368-0.765-0.76-0.948-1.176
			c-0.144,0.488-0.456,0.968-0.936,1.44c-0.48,0.472-0.992,0.8-1.536,0.984l-0.996-1.5c0.792-0.24,1.41-0.688,1.854-1.344
			c0.444-0.656,0.666-1.38,0.666-2.172v-1.044h1.933v0.9C229.89,95.848,230.642,96.9,232.146,97.404z M234.81,101.472
			c0,0.664-0.354,1.186-1.062,1.566s-1.67,0.57-2.886,0.57c-1.208,0-2.168-0.192-2.88-0.576s-1.068-0.904-1.068-1.56
			c0-0.68,0.354-1.214,1.062-1.602c0.708-0.388,1.67-0.582,2.886-0.582s2.178,0.192,2.886,0.576
			C234.455,100.248,234.81,100.784,234.81,101.472z M232.313,100.92c-0.345-0.136-0.828-0.204-1.452-0.204s-1.108,0.066-1.452,0.198
			c-0.344,0.132-0.516,0.318-0.516,0.558c0,0.216,0.174,0.39,0.521,0.522c0.349,0.132,0.83,0.198,1.446,0.198
			c0.624,0,1.107-0.066,1.452-0.198c0.344-0.132,0.516-0.306,0.516-0.522C232.829,101.24,232.657,101.056,232.313,100.92z
			 M234.726,99.324h-1.885v-2.94h-1.571v-1.488h1.571v-1.98h1.885V99.324z"/>
		<path d="M242.513,97.752l-0.995,1.512c-0.408-0.128-0.845-0.39-1.309-0.786s-0.796-0.81-0.996-1.242
			c-0.168,0.464-0.496,0.914-0.983,1.35c-0.488,0.436-0.973,0.734-1.452,0.894l-1.032-1.5c0.792-0.264,1.41-0.694,1.854-1.29
			c0.443-0.596,0.665-1.282,0.665-2.058v-1.188h1.896v1.092c0,0.824,0.212,1.508,0.636,2.052S241.793,97.521,242.513,97.752z
			 M244.673,103.536h-7.416V99.9h1.885v2.184h5.531V103.536z M245.885,97.44h-1.344v3.324h-1.86v-7.848h1.86v2.976h1.344V97.44z"/>
		<path d="M256.109,102.516h-9.769v-1.44h3.9v-2.328h1.872v2.328h3.996V102.516z M255.965,97.656l-0.828,1.524
			c-0.976-0.16-1.823-0.484-2.544-0.972c-0.72-0.488-1.18-1.032-1.38-1.632c-0.191,0.6-0.656,1.148-1.392,1.644
			c-0.736,0.496-1.576,0.82-2.521,0.972l-0.84-1.512c0.968-0.096,1.83-0.454,2.586-1.074c0.756-0.62,1.134-1.41,1.134-2.37v-0.78
			h2.076v0.78c0,0.648,0.187,1.23,0.559,1.746c0.372,0.516,0.834,0.91,1.386,1.182C254.753,97.436,255.341,97.6,255.965,97.656z"/>
	</g>
	<g>
		<path d="M404.532,154.573v-6.444h-2.124v-1.62h6.504v1.62H406.8v6.444H404.532z"/>
		<path d="M413.784,154.693c-1.345,0-2.368-0.314-3.072-0.942c-0.704-0.628-1.056-1.654-1.056-3.078v-0.264
			c0-0.736,0.111-1.374,0.336-1.914c0.224-0.54,0.534-0.96,0.93-1.26c0.396-0.3,0.836-0.518,1.32-0.654
			c0.483-0.136,1.018-0.204,1.602-0.204c1.04,0,1.849,0.148,2.424,0.444v1.656c-0.704-0.248-1.408-0.372-2.111-0.372
			c-0.809,0-1.372,0.19-1.692,0.57s-0.479,0.938-0.479,1.674v0.36c0,0.808,0.121,1.406,0.365,1.794
			c0.244,0.388,0.698,0.582,1.362,0.582c0.344,0,0.632-0.043,0.864-0.132v-1.26h-1.152v-1.476h3.252v3.96
			C415.86,154.521,414.895,154.693,413.784,154.693z"/>
		<path d="M418.007,154.573v-8.064h5.544v1.62h-3.287v1.824h2.567v1.584h-2.567v3.036H418.007z"/>
		<path d="M424.44,151.921v-1.608h3.54v1.608H424.44z"/>
		<path d="M430.98,154.261h-0.024v0.396c0,0.76,0.04,1.332,0.12,1.716h-1.776c-0.128-0.272-0.191-0.832-0.191-1.68v-5.232
			c0-1.456,0.328-2.496,0.983-3.12c0.601-0.496,1.28-0.744,2.04-0.744c0.784,0,1.4,0.218,1.849,0.654
			c0.447,0.437,0.672,0.99,0.672,1.662c0,0.376-0.09,0.744-0.271,1.104c-0.18,0.36-0.426,0.624-0.737,0.792v0.06
			c0.456,0.112,0.85,0.376,1.182,0.792s0.498,0.916,0.498,1.5c0,0.792-0.252,1.436-0.756,1.932s-1.132,0.744-1.884,0.744
			S431.364,154.645,430.98,154.261z M430.932,149.137v3.636c0.352,0.44,0.764,0.66,1.235,0.66c0.4,0,0.71-0.132,0.931-0.396
			c0.22-0.264,0.33-0.576,0.33-0.936c0-0.416-0.135-0.75-0.402-1.002c-0.269-0.252-0.606-0.39-1.014-0.414h-0.252v-1.164
			c0.111,0,0.18-0.008,0.203-0.024c0.312-0.056,0.557-0.2,0.732-0.432c0.176-0.232,0.264-0.512,0.264-0.84
			c0-0.352-0.082-0.632-0.246-0.84s-0.386-0.312-0.666-0.312C431.304,147.073,430.932,147.761,430.932,149.137z"/>
	</g>
	<g>
		<path d="M523.559,142.185l-2.748-8.064h2.304l1.704,5.448h0.06l1.692-5.448h2.063l-2.748,8.064H523.559z"/>
		<path d="M529.594,142.185v-8.064h5.568v1.62h-3.336v1.536h2.604v1.584h-2.604v1.704h3.444v1.62H529.594z"/>
		<path d="M540.371,142.305c-1.345,0-2.368-0.314-3.072-0.942c-0.704-0.628-1.056-1.654-1.056-3.078v-0.264
			c0-0.736,0.111-1.374,0.336-1.914c0.224-0.54,0.534-0.96,0.93-1.26c0.396-0.3,0.836-0.518,1.32-0.654
			c0.483-0.136,1.018-0.204,1.602-0.204c1.04,0,1.849,0.148,2.424,0.444v1.656c-0.704-0.248-1.408-0.372-2.111-0.372
			c-0.809,0-1.372,0.19-1.692,0.57s-0.479,0.938-0.479,1.674v0.36c0,0.808,0.121,1.406,0.365,1.794
			c0.244,0.388,0.698,0.582,1.362,0.582c0.344,0,0.632-0.043,0.864-0.132v-1.26h-1.152v-1.476h3.252v3.96
			C542.447,142.133,541.482,142.305,540.371,142.305z"/>
		<path d="M544.594,142.185v-8.064h5.544v1.62h-3.287v1.824h2.567v1.584h-2.567v3.036H544.594z"/>
	</g>
	<g>
		<path d="M246.488,10.056V1.992h3.024l1.464,4.86h0.048l1.464-4.86h2.988v8.064h-2.22V4.62h-0.048l-1.62,5.436h-1.572l-1.607-5.448
			h-0.061v5.448H246.488z"/>
		<path d="M257.637,10.128v-6.24l-1.248,0.168V2.76l2.376-1.008h1.128v8.376H257.637z"/>
	</g>
	<g>
		<path d="M356.265,10.056V1.992h3.024l1.464,4.86h0.048l1.464-4.86h2.988v8.064h-2.22V4.62h-0.048l-1.62,5.436h-1.572l-1.607-5.448
			h-0.061v5.448H356.265z"/>
		<path d="M366.465,10.068V8.796l1.092-1.188c0.496-0.528,0.872-0.942,1.128-1.242c0.256-0.3,0.508-0.65,0.756-1.05
			c0.248-0.4,0.372-0.732,0.372-0.996c0-0.416-0.126-0.7-0.378-0.852s-0.63-0.228-1.134-0.228c-0.448,0-0.968,0.128-1.56,0.384
			l-0.181-1.548c0.632-0.32,1.46-0.48,2.484-0.48c2.04,0,3.06,0.796,3.06,2.388c0,0.168-0.02,0.342-0.06,0.522
			c-0.04,0.18-0.101,0.36-0.18,0.54c-0.08,0.18-0.162,0.352-0.246,0.516s-0.192,0.336-0.324,0.516s-0.242,0.332-0.33,0.456
			s-0.206,0.27-0.354,0.438c-0.147,0.168-0.254,0.288-0.317,0.36c-0.064,0.072-0.158,0.174-0.282,0.306
			c-0.124,0.132-0.19,0.202-0.198,0.21l-0.552,0.588h2.748v1.632H366.465z"/>
	</g>
</g>
<g id="레이어_2">
</g>
<g id="레이어_3">
	<g>
		
			<linearGradient id="SVGID_00000105421222720315456890000008660565795821037735_" gradientUnits="userSpaceOnUse" x1="1.8039" y1="85.4887" x2="131.5117" y2="85.4887">
			<stop  offset="0" style="stop-color:#FFFFFF"/>
			<stop  offset="1" style="stop-color:#B2AFC2"/>
		</linearGradient>
		
			<polygon fill="url(#SVGID_00000105421222720315456890000008660565795821037735_)" stroke="#231815" stroke-width="0.1194" stroke-miterlimit="10" points="
			131.512,85.489 114.761,73.802 114.761,77.474 1.804,77.474 1.804,93.503 114.761,93.503 114.761,97.175 		"/>
		<g>
			<path d="M10.558,83.952H6.202v-0.638h4.356V83.952z M10.312,85.41c0,0.383-0.173,0.684-0.52,0.902
				C9.446,86.53,8.997,86.64,8.444,86.64c-0.535,0-0.977-0.109-1.326-0.328c-0.35-0.219-0.524-0.52-0.524-0.902
				c0-0.371,0.173-0.665,0.519-0.884c0.347-0.219,0.79-0.328,1.331-0.328s0.987,0.109,1.339,0.328
				C10.136,84.745,10.312,85.039,10.312,85.41z M9.61,82.849H7.296v-0.638H9.61V82.849z M9.205,85.87
				c0.204-0.112,0.306-0.266,0.306-0.46s-0.102-0.345-0.306-0.451c-0.204-0.106-0.457-0.159-0.761-0.159
				c-0.298,0-0.548,0.053-0.752,0.159c-0.204,0.106-0.305,0.257-0.305,0.451s0.102,0.348,0.305,0.46
				c0.204,0.113,0.454,0.169,0.752,0.169C8.748,86.039,9.001,85.982,9.205,85.87z M12.991,90.093H7.596v-1.84h4.329v-0.547H7.551
				v-0.62h5.185v1.75H8.398v0.62h4.593V90.093z M10.704,84.644v-0.628h1.221v-1.859h0.811v4.483h-0.811v-0.656h-1.221v-0.611h1.221
				v-0.729H10.704z"/>
			<path d="M21.274,89.109h-7.19v-0.656h3.171v-1.978h0.811v1.978h3.208V89.109z M21.019,86.029l-0.438,0.638
				c-0.625-0.176-1.219-0.483-1.781-0.92c-0.562-0.437-0.937-0.88-1.125-1.33c-0.158,0.456-0.52,0.9-1.084,1.335
				c-0.565,0.434-1.172,0.737-1.822,0.907l-0.41-0.656c0.705-0.122,1.365-0.445,1.982-0.971c0.617-0.525,0.925-1.104,0.925-1.736
				v-0.546h0.83v0.546c0,0.419,0.161,0.831,0.483,1.235c0.322,0.404,0.705,0.733,1.148,0.989
				C20.168,85.774,20.6,85.944,21.019,86.029z"/>
			<path d="M25.758,83.97l-0.219,2.278c0.541-0.03,0.941-0.07,1.203-0.119l0.073,0.629c-0.565,0.085-1.346,0.152-2.342,0.201
				c-1.105,0.048-1.926,0.073-2.46,0.073l-0.109-0.692c0.479,0,0.838-0.003,1.075-0.009l-0.228-2.351l0.793-0.1l0.155,2.433
				l0.856-0.027c0.115,0,0.204-0.003,0.264-0.009l0.155-2.406L25.758,83.97z M26.423,83.505h-4.292v-0.656h4.292V83.505z
				 M28.391,89.856h-5.312v-2.314h0.802v1.667h4.511V89.856z M28.118,82.157v2.351h1.194v0.674h-1.194v2.761h-0.802v-5.786H28.118z"
				/>
			<path d="M36.52,84.972c0,0.28-0.127,0.503-0.383,0.67s-0.599,0.272-1.03,0.314v0.355c0.954-0.055,1.631-0.116,2.032-0.183
				l0.082,0.602c-0.748,0.097-1.595,0.173-2.542,0.228c-1.203,0.048-2.029,0.073-2.479,0.073l-0.119-0.638
				c0.632,0,1.373-0.015,2.224-0.045v-0.383c-0.443-0.042-0.794-0.147-1.053-0.314c-0.258-0.167-0.387-0.394-0.387-0.679
				c0-0.322,0.167-0.569,0.501-0.743c0.334-0.173,0.771-0.26,1.312-0.26c0.559,0,1.005,0.087,1.339,0.26
				C36.352,84.403,36.52,84.65,36.52,84.972z M37.03,83.76h-4.666v-0.61h4.666V83.76z M38.734,90.112h-5.513v-1.677h4.411v-0.474
				h-4.447v-0.592h5.249v1.613h-4.411v0.546h4.711V90.112z M35.763,82.804H33.54v-0.602h2.224V82.804z M35.444,85.291
				c0.194-0.073,0.292-0.179,0.292-0.319c0-0.14-0.097-0.246-0.292-0.319c-0.195-0.073-0.45-0.109-0.766-0.109
				c-0.31,0-0.559,0.037-0.747,0.109c-0.188,0.073-0.283,0.179-0.283,0.319c0,0.14,0.094,0.246,0.283,0.319
				c0.188,0.073,0.437,0.109,0.747,0.109C34.995,85.4,35.25,85.364,35.444,85.291z M39.618,85.136h-1.185v1.804H37.64v-4.784h0.793
				v2.305h1.185V85.136z"/>
			<path d="M44.693,85.865l-0.474,0.629c-0.383-0.17-0.742-0.412-1.076-0.725s-0.577-0.657-0.729-1.034
				c-0.122,0.401-0.36,0.784-0.715,1.148c-0.355,0.365-0.755,0.647-1.198,0.848L40,86.102c0.602-0.255,1.084-0.618,1.449-1.089
				c0.365-0.471,0.547-1.007,0.547-1.608v-0.802h0.82v0.766c0,0.589,0.187,1.108,0.56,1.558S44.189,85.689,44.693,85.865z
				 M46.019,87.446c0.471,0.276,0.707,0.655,0.707,1.134c0,0.48-0.236,0.857-0.707,1.13c-0.471,0.273-1.131,0.41-1.982,0.41
				c-0.844,0-1.502-0.137-1.973-0.41c-0.471-0.273-0.706-0.65-0.706-1.13c0-0.479,0.235-0.858,0.706-1.134s1.128-0.415,1.973-0.415
				C44.888,87.032,45.548,87.17,46.019,87.446z M44.037,87.679c-0.583,0-1.039,0.081-1.367,0.241
				c-0.328,0.161-0.492,0.381-0.492,0.661c0,0.28,0.164,0.499,0.492,0.656c0.328,0.158,0.784,0.237,1.367,0.237
				c0.589,0,1.048-0.079,1.376-0.237c0.328-0.158,0.492-0.376,0.492-0.656c0-0.279-0.164-0.5-0.492-0.661
				C45.085,87.759,44.626,87.679,44.037,87.679z M45.851,84.599H44.32v-0.656h1.531v-1.786h0.811v4.866h-0.811V84.599z"/>
			<path d="M52.977,88.553c-0.583,0.079-1.498,0.155-2.743,0.228c-0.802,0.042-1.555,0.064-2.26,0.064l-0.119-0.674
				c0.899,0,1.604-0.012,2.114-0.037v-0.72c-0.45-0.061-0.813-0.211-1.089-0.451c-0.276-0.24-0.415-0.533-0.415-0.879
				c0-0.407,0.178-0.736,0.533-0.989c0.355-0.252,0.812-0.378,1.372-0.378c0.571,0,1.031,0.125,1.38,0.374
				c0.349,0.249,0.524,0.58,0.524,0.993c0,0.353-0.137,0.648-0.41,0.889c-0.273,0.24-0.638,0.387-1.093,0.442v0.674
				c0.832-0.042,1.54-0.101,2.123-0.173L52.977,88.553z M52.776,84.389h-4.729v-0.666h4.729V84.389z M51.491,83.205h-2.269v-0.656
				h2.269V83.205z M51.446,86.084c0-0.207-0.1-0.376-0.301-0.51s-0.459-0.201-0.774-0.201c-0.31,0-0.565,0.068-0.766,0.205
				s-0.301,0.305-0.301,0.506c0,0.194,0.1,0.361,0.301,0.501c0.201,0.14,0.456,0.21,0.766,0.21c0.315,0,0.574-0.07,0.774-0.21
				C51.346,86.445,51.446,86.278,51.446,86.084z M55.428,86.375h-1.23v3.745h-0.793v-7.964h0.793v3.544h1.23V86.375z"/>
		</g>
	</g>
	<g>
		
			<linearGradient id="SVGID_00000099636826632585519990000005123310519790929592_" gradientUnits="userSpaceOnUse" x1="44.7767" y1="114.2086" x2="152.5069" y2="114.2086">
			<stop  offset="0" style="stop-color:#FFFFFF"/>
			<stop  offset="1" style="stop-color:#B7B4D1"/>
		</linearGradient>
		
			<polygon fill="url(#SVGID_00000099636826632585519990000005123310519790929592_)" stroke="#231815" stroke-width="0.1194" stroke-miterlimit="10" points="
			152.507,114.209 135.756,102.522 135.756,106.194 44.777,106.194 44.777,122.223 135.756,122.223 135.756,125.895 		"/>
		<g>
			<path d="M58.058,113.505c0,0.395-0.196,0.714-0.588,0.957c-0.392,0.243-0.925,0.383-1.599,0.419v0.984h3.199v0.647h-7.19v-0.647
				h3.18v-0.993c-0.668-0.042-1.195-0.184-1.581-0.424c-0.386-0.24-0.579-0.554-0.579-0.943c0-0.438,0.234-0.781,0.702-1.03
				s1.097-0.374,1.886-0.374c0.784,0,1.408,0.125,1.873,0.374C57.826,112.725,58.058,113.068,58.058,113.505z M58.714,111.747
				h-6.488V111.1h6.488V111.747z M57.202,113.505c0-0.249-0.166-0.44-0.497-0.574s-0.737-0.201-1.217-0.201
				c-0.486,0-0.896,0.067-1.23,0.201s-0.501,0.325-0.501,0.574c0,0.243,0.167,0.43,0.501,0.56c0.334,0.131,0.744,0.196,1.23,0.196
				c0.486,0,0.893-0.065,1.221-0.196C57.038,113.935,57.202,113.748,57.202,113.505z M56.892,110.507H54.04v-0.656h2.852V110.507z"
				/>
			<path d="M66.114,115.993c0,0.456-0.245,0.81-0.734,1.062c-0.489,0.252-1.165,0.378-2.027,0.378s-1.535-0.126-2.019-0.378
				c-0.483-0.252-0.724-0.606-0.724-1.062c0-0.419,0.203-0.75,0.61-0.993c0.407-0.243,0.978-0.383,1.713-0.419v-0.711h-3.171v-0.665
				h7.19v0.665h-3.208v0.702c0.747,0.037,1.329,0.178,1.745,0.424S66.114,115.574,66.114,115.993z M66.615,112.12l-0.364,0.638
				c-0.626-0.085-1.212-0.279-1.759-0.583s-0.927-0.641-1.139-1.012c-0.17,0.377-0.524,0.715-1.062,1.016s-1.144,0.494-1.818,0.579
				l-0.355-0.628c0.656-0.055,1.253-0.227,1.791-0.515s0.867-0.651,0.989-1.089h-2.442v-0.656h5.804v0.656h-2.424
				c0.127,0.432,0.471,0.793,1.03,1.084S66.007,112.071,66.615,112.12z M64.765,115.419c-0.346-0.134-0.817-0.201-1.413-0.201
				s-1.063,0.067-1.403,0.201c-0.34,0.133-0.51,0.328-0.51,0.583c0,0.255,0.17,0.448,0.51,0.579c0.34,0.131,0.808,0.196,1.403,0.196
				c0.602,0,1.074-0.065,1.417-0.196c0.343-0.13,0.515-0.323,0.515-0.579C65.285,115.747,65.111,115.552,64.765,115.419z"/>
			<path d="M73.923,110.07c0,1.373-0.097,2.536-0.292,3.49h1.203v0.647h-3.199v3.244h-0.811v-3.244h-3.18v-0.647h5.194
				c0.176-0.711,0.264-1.652,0.264-2.825h-4.629v-0.665H73.923z"/>
			<path d="M82.762,113.423l-0.419,0.628c-0.364-0.109-0.741-0.307-1.13-0.592c-0.389-0.285-0.671-0.595-0.847-0.929
				c-0.134,0.358-0.383,0.703-0.748,1.034c-0.364,0.331-0.765,0.573-1.203,0.725l-0.447-0.638c0.529-0.164,0.978-0.433,1.349-0.806
				c0.371-0.374,0.58-0.797,0.629-1.271h-1.704v-0.665h4.356v0.665h-1.813c0.067,0.45,0.292,0.838,0.674,1.167
				S82.276,113.295,82.762,113.423z M84.457,117.341h-5.212v-2.706h5.212V117.341z M81.477,110.325h-2.16v-0.656h2.16V110.325z
				 M83.646,116.704v-1.421h-3.59v1.421H83.646z M84.457,114.198h-0.811v-4.711h0.811V114.198z"/>
			<path d="M88.95,115.729h-0.811v-1.64h-2.333v-0.656h7.19v0.656h-1.978v1.64h-0.802v-1.64H88.95V115.729z M92.185,111.309
				c0,0.492-0.248,0.876-0.743,1.153s-1.177,0.415-2.046,0.415s-1.548-0.138-2.037-0.415c-0.489-0.276-0.733-0.661-0.733-1.153
				c0-0.486,0.244-0.866,0.733-1.139c0.489-0.273,1.168-0.41,2.037-0.41s1.551,0.137,2.046,0.41S92.185,110.823,92.185,111.309z
				 M92.185,117.214h-5.513v-2.314h0.802v1.658h4.711V117.214z M89.396,110.416c-0.589,0-1.06,0.079-1.413,0.237
				c-0.352,0.158-0.528,0.38-0.528,0.666c0,0.279,0.175,0.5,0.524,0.661c0.349,0.161,0.819,0.241,1.408,0.241
				c0.596,0,1.072-0.081,1.431-0.241c0.358-0.161,0.538-0.381,0.538-0.661c0-0.286-0.176-0.507-0.529-0.666
				C90.474,110.495,89.998,110.416,89.396,110.416z"/>
		</g>
	</g>
	<g>
		
			<linearGradient id="SVGID_00000151522965469187787520000017028041049645830569_" gradientUnits="userSpaceOnUse" x1="79.6278" y1="142.9284" x2="227.491" y2="142.9284">
			<stop  offset="0" style="stop-color:#FFFFFF"/>
			<stop  offset="1" style="stop-color:#ABBCDA"/>
		</linearGradient>
		
			<polygon fill="url(#SVGID_00000151522965469187787520000017028041049645830569_)" stroke="#231815" stroke-width="0.1194" stroke-miterlimit="10" points="
			227.491,142.928 210.741,131.242 210.741,134.914 79.628,134.914 79.628,150.943 210.741,150.943 210.741,154.615 		"/>
		<g>
			<path d="M91.654,142.907h-3.746v-3.754h0.802v1.267h2.132v-1.276h0.811V142.907z M93.795,146.625h-0.811v-2.16h-4.355V143.8
				h5.167V146.625z M90.843,142.26v-1.203H88.71v1.203H90.843z M94.979,141.358h-1.185v2.06h-0.811v-4.766h0.811v2.041h1.185
				V141.358z"/>
			<path d="M98.433,142.351h-1.84V144c1.075,0.019,1.929-0.048,2.561-0.2l0.091,0.647c-0.741,0.158-1.892,0.234-3.454,0.228v-5.066
				h3.025v0.656h-2.223v1.449h1.84V142.351z M99.937,142.36h-1.002v-0.656h1.002v-2.879h0.765v7.399h-0.765V142.36z
				 M102.251,146.616h-0.774v-7.964h0.774V146.616z"/>
			<path d="M108.475,143.809l0.082,0.666c-0.966,0.158-2.214,0.246-3.745,0.264h-0.993v-3.135h2.98v-1.576h-3.017v-0.656h3.818
				v2.879h-2.98v1.804h0.237C106.401,144.055,107.606,143.973,108.475,143.809z M109.168,138.652h0.811v7.964h-0.811V138.652z"/>
			<path d="M111.92,144.069c-0.34-0.52-0.51-1.198-0.51-2.037s0.17-1.517,0.51-2.037c0.34-0.52,0.844-0.779,1.513-0.779
				c0.668,0,1.171,0.259,1.508,0.779c0.337,0.52,0.506,1.202,0.506,2.046c0,0.833-0.168,1.508-0.506,2.027
				c-0.337,0.52-0.84,0.779-1.508,0.779C112.764,144.848,112.26,144.588,111.92,144.069z M114.654,142.042
				c0-0.638-0.106-1.153-0.319-1.544c-0.212-0.392-0.513-0.588-0.902-0.588c-0.389,0-0.688,0.194-0.897,0.583
				c-0.21,0.389-0.314,0.905-0.314,1.549c0,0.632,0.104,1.142,0.314,1.531c0.209,0.389,0.508,0.583,0.897,0.583
				c0.389,0,0.689-0.194,0.902-0.583C114.547,143.184,114.654,142.673,114.654,142.042z M118.718,142.479h-1.276v4.137h-0.811
				v-7.964h0.811v3.162h1.276V142.479z"/>
			<path d="M125.634,144.21l-0.483,0.574c-0.31-0.2-0.63-0.502-0.961-0.907c-0.332-0.404-0.548-0.791-0.652-1.162
				c-0.085,0.407-0.279,0.817-0.583,1.23c-0.304,0.414-0.644,0.748-1.021,1.002l-0.51-0.556c0.516-0.334,0.932-0.796,1.248-1.385
				s0.474-1.26,0.474-2.014v-0.748h-1.549v-0.647h3.809v0.647h-1.467v0.72c0,0.759,0.161,1.416,0.483,1.968
				C124.744,143.487,125.148,143.913,125.634,144.21z M126.718,146.224h-0.765v-4.046h-1.185v-0.666h1.185v-2.679h0.765V146.224z
				 M128.295,146.616h-0.774v-7.964h0.774V146.616z"/>
			<path d="M133.443,139.499c-0.024,1.239-0.345,2.33-0.961,3.271c-0.617,0.942-1.48,1.716-2.592,2.324l-0.501-0.62
				c0.929-0.438,1.676-1.043,2.241-1.818c0.565-0.775,0.884-1.6,0.957-2.474h-2.797v-0.684H133.443z M135.175,142.515h-1.713v-0.674
				h1.713v-3.189h0.802v7.964h-0.802V142.515z"/>
		</g>
	</g>
	<g>
		
			<linearGradient id="SVGID_00000147204424604996578850000003772960125406393274_" gradientUnits="userSpaceOnUse" x1="97.6291" y1="171.6483" x2="245.4923" y2="171.6483">
			<stop  offset="0" style="stop-color:#FFFFFF"/>
			<stop  offset="1" style="stop-color:#ABCFDF"/>
		</linearGradient>
		
			<polygon fill="url(#SVGID_00000147204424604996578850000003772960125406393274_)" stroke="#231815" stroke-width="0.1194" stroke-miterlimit="10" points="
			245.492,171.648 228.742,159.962 228.742,163.634 97.629,163.634 97.629,179.663 228.742,179.663 228.742,183.335 		"/>
		<g>
			<path d="M110.42,172.934l-0.492,0.565c-0.31-0.212-0.614-0.522-0.912-0.93c-0.297-0.407-0.504-0.817-0.62-1.23
				c-0.097,0.438-0.296,0.875-0.597,1.312c-0.301,0.438-0.648,0.79-1.043,1.057l-0.501-0.565c0.498-0.322,0.914-0.796,1.248-1.421
				s0.501-1.321,0.501-2.087v-1.358h0.774v1.349c0,0.735,0.153,1.396,0.46,1.982C109.547,172.194,109.94,172.636,110.42,172.934z
				 M111.605,175.094h-0.765v-4.083h-1.258v-0.665h1.258v-2.643h0.765V175.094z M113.182,175.485h-0.774v-7.964h0.774V175.485z"/>
			<path d="M120.891,172.223h-2.569v1.595h3.208v0.656h-7.19v-0.656h3.171v-1.595h-2.579v-0.656h1.331l-0.209-2.078l0.82-0.119
				l0.155,2.196h1.804l0.31-2.178l0.784,0.137l-0.337,2.042h1.303V172.223z M120.9,168.979h-5.978v-0.647h5.978V168.979z"/>
			<path d="M128.536,170.546h-2.324v0.912h3.199v0.656h-7.19v-0.656h3.18v-0.912h-2.232v-2.697h5.312v0.656h-4.511v1.394h4.565
				V170.546z M123.05,172.852h5.422v2.67h-0.811v-2.023h-4.611V172.852z"/>
			<path d="M134.669,171.23l-0.474,0.629c-0.383-0.17-0.742-0.412-1.076-0.725s-0.577-0.657-0.729-1.034
				c-0.122,0.401-0.36,0.784-0.715,1.148c-0.355,0.365-0.755,0.647-1.198,0.848l-0.501-0.629c0.602-0.255,1.084-0.618,1.449-1.089
				c0.365-0.471,0.547-1.007,0.547-1.608v-0.802h0.82v0.766c0,0.589,0.187,1.108,0.56,1.558S134.165,171.054,134.669,171.23z
				 M135.995,172.811c0.471,0.276,0.707,0.655,0.707,1.134c0,0.48-0.236,0.857-0.707,1.13c-0.471,0.273-1.131,0.41-1.982,0.41
				c-0.844,0-1.502-0.137-1.973-0.41c-0.471-0.273-0.706-0.65-0.706-1.13c0-0.479,0.235-0.858,0.706-1.134s1.128-0.415,1.973-0.415
				C134.863,172.396,135.524,172.535,135.995,172.811z M134.013,173.043c-0.583,0-1.039,0.081-1.367,0.241
				c-0.328,0.161-0.492,0.381-0.492,0.661c0,0.28,0.164,0.499,0.492,0.656c0.328,0.158,0.784,0.237,1.367,0.237
				c0.589,0,1.048-0.079,1.376-0.237c0.328-0.158,0.492-0.376,0.492-0.656c0-0.279-0.164-0.5-0.492-0.661
				C135.061,173.124,134.602,173.043,134.013,173.043z M135.826,169.963h-1.531v-0.656h1.531v-1.786h0.811v4.866h-0.811V169.963z"/>
		</g>
	</g>
	<g>
		
			<linearGradient id="SVGID_00000088840416719490041700000017001971336760712114_" gradientUnits="userSpaceOnUse" x1="127.0507" y1="200.3682" x2="305.9692" y2="200.3682">
			<stop  offset="0" style="stop-color:#FFFFFF"/>
			<stop  offset="1" style="stop-color:#98D1B0"/>
		</linearGradient>
		
			<polygon fill="url(#SVGID_00000088840416719490041700000017001971336760712114_)" stroke="#231815" stroke-width="0.1194" stroke-miterlimit="10" points="
			305.969,200.368 289.219,188.682 289.219,192.354 127.051,192.354 127.051,208.382 289.219,208.382 289.219,212.055 		"/>
		<g>
			<path d="M137.233,201.927c-0.34-0.52-0.51-1.198-0.51-2.037s0.17-1.517,0.51-2.037c0.34-0.52,0.844-0.779,1.513-0.779
				c0.668,0,1.171,0.259,1.508,0.779c0.337,0.52,0.506,1.202,0.506,2.046c0,0.833-0.168,1.508-0.506,2.027
				c-0.337,0.52-0.84,0.779-1.508,0.779C138.077,202.706,137.573,202.446,137.233,201.927z M139.967,199.899
				c0-0.638-0.106-1.153-0.319-1.544c-0.212-0.392-0.513-0.588-0.902-0.588c-0.389,0-0.688,0.194-0.897,0.583
				c-0.21,0.389-0.314,0.905-0.314,1.549c0,0.632,0.104,1.142,0.314,1.531c0.209,0.389,0.508,0.583,0.897,0.583
				c0.389,0,0.689-0.194,0.902-0.583C139.86,201.042,139.967,200.531,139.967,199.899z M144.031,200.337h-1.276v4.137h-0.811v-7.964
				h0.811v3.162h1.276V200.337z"/>
			<path d="M151.676,201.029h-7.19v-0.665h3.171v-0.684h-2.46v-0.647h1.203l-0.209-1.148l0.802-0.128l0.173,1.276h1.795l0.191-1.276
				l0.811,0.109l-0.255,1.167h1.221v0.647h-2.46v0.684h3.208V201.029z M150.938,197.466h-5.75v-0.647h5.75V197.466z
				 M150.747,204.374h-5.322v-2.934h0.802v0.829h3.708v-0.838h0.811V204.374z M149.936,203.727v-0.82h-3.708v0.82H149.936z"/>
			<path d="M158.438,199.535h-4.419v1.158h4.766v0.647h-2.433v1.467h3.208v0.656h-7.19v-0.656h3.171v-1.467h-2.324v-4.146h5.485
				v0.666h-4.684v1.039h4.419V199.535z"/>
			<path d="M165.09,201.959l-0.483,0.601c-0.401-0.279-0.789-0.636-1.162-1.071c-0.374-0.434-0.627-0.867-0.761-1.298
				c-0.14,0.486-0.389,0.963-0.747,1.431c-0.359,0.468-0.766,0.851-1.221,1.148l-0.501-0.593c0.607-0.389,1.099-0.906,1.476-1.553
				c0.376-0.647,0.565-1.332,0.565-2.055v-1.357h0.838v1.321c0,0.717,0.188,1.383,0.565,2
				C164.036,201.149,164.513,201.625,165.09,201.959z M166.839,204.474h-0.802v-7.964h0.802V204.474z"/>
			<path d="M175.323,203.398h-7.19v-0.656h7.19V203.398z M175.104,200.546l-0.438,0.638c-0.626-0.176-1.226-0.486-1.8-0.929
				c-0.574-0.443-0.955-0.887-1.144-1.331c-0.158,0.45-0.525,0.895-1.103,1.335s-1.191,0.746-1.841,0.916l-0.41-0.656
				c0.45-0.079,0.896-0.246,1.34-0.501c0.443-0.255,0.821-0.583,1.134-0.984s0.469-0.814,0.469-1.239v-0.62h0.83v0.62
				c0,0.419,0.164,0.833,0.492,1.239c0.328,0.407,0.715,0.74,1.162,0.998C174.243,200.29,174.679,200.461,175.104,200.546z"/>
			<path d="M175.715,204.383l2.114-7.582h0.702l-2.114,7.582H175.715z"/>
			<path d="M180.135,200.218h0.328c1.416,0,2.473-0.073,3.171-0.219l0.073,0.629c-0.802,0.17-2.011,0.255-3.626,0.255h-0.738v-3.909
				h3.69v0.656h-2.897v0.911h2.761v0.638h-2.761V200.218z M185.219,204.364h-5.048v-2.788h5.048V204.364z M184.417,203.717v-1.503
				h-3.444v1.503H184.417z M186.404,199.116h-1.185v2.032h-0.811v-4.638h0.811v1.941h1.185V199.116z"/>
			<path d="M191.771,200.173l-0.474,0.62c-0.376-0.17-0.75-0.428-1.121-0.775c-0.371-0.346-0.635-0.708-0.793-1.084
				c-0.115,0.401-0.36,0.794-0.733,1.18c-0.374,0.386-0.794,0.694-1.262,0.925l-0.492-0.62c0.595-0.255,1.089-0.632,1.481-1.13
				c0.392-0.498,0.588-1.057,0.588-1.677v-0.775h0.829v0.738c0,0.614,0.2,1.154,0.602,1.622
				C190.796,199.666,191.255,199.991,191.771,200.173z M193.484,204.483h-0.811v-2.16h-4.529v-0.656h5.34V204.483z M193.484,201.239
				h-0.811v-4.72h0.811V201.239z"/>
			<path d="M194.897,197.722v-0.666h4.347v0.666h-1.741v0.218c0,0.535,0.187,1.013,0.561,1.436s0.807,0.706,1.298,0.852
				l-0.446,0.647c-0.365-0.146-0.719-0.375-1.062-0.688c-0.343-0.313-0.594-0.648-0.752-1.007c-0.127,0.376-0.378,0.747-0.752,1.111
				c-0.374,0.365-0.77,0.632-1.189,0.802l-0.474-0.629c0.541-0.194,1.008-0.527,1.403-0.998c0.395-0.471,0.592-0.973,0.592-1.508
				v-0.237H194.897z M195.826,201.622h5.158v2.861h-0.802v-2.196h-4.356V201.622z M202.168,199.289h-1.185v1.914h-0.811v-4.693
				h0.811v2.105h1.185V199.289z"/>
			<path d="M209.048,198.205c0,0.546-0.319,0.951-0.957,1.212v1.084h1.813v0.656h-7.19v-0.656h1.777v-1.103
				c-0.62-0.261-0.929-0.659-0.929-1.193c0-0.462,0.241-0.825,0.724-1.089c0.483-0.265,1.156-0.396,2.019-0.396
				s1.536,0.132,2.019,0.396C208.807,197.38,209.048,197.743,209.048,198.205z M208.388,201.968c0.501,0.25,0.752,0.602,0.752,1.057
				s-0.25,0.81-0.752,1.062c-0.501,0.252-1.195,0.378-2.082,0.378c-0.881,0-1.57-0.126-2.068-0.378
				c-0.499-0.252-0.748-0.606-0.748-1.062s0.249-0.808,0.748-1.057c0.498-0.249,1.188-0.374,2.068-0.374
				C207.192,201.594,207.887,201.719,208.388,201.968z M206.306,202.241c-0.602,0-1.078,0.068-1.431,0.205s-0.528,0.333-0.528,0.588
				c0,0.249,0.176,0.44,0.528,0.574c0.353,0.134,0.829,0.201,1.431,0.201c0.614,0,1.098-0.067,1.454-0.201
				c0.355-0.133,0.533-0.325,0.533-0.574c0-0.255-0.179-0.451-0.538-0.588S206.913,202.241,206.306,202.241z M208.229,198.205
				c0-0.273-0.17-0.483-0.51-0.629c-0.34-0.146-0.811-0.219-1.413-0.219c-0.595,0-1.063,0.075-1.403,0.223
				c-0.34,0.149-0.51,0.357-0.51,0.625c0,0.267,0.17,0.475,0.51,0.624s0.808,0.223,1.403,0.223s1.064-0.074,1.408-0.223
				S208.229,198.472,208.229,198.205z M206.306,199.699c-0.376,0-0.714-0.027-1.011-0.082v0.884h1.996v-0.875
				C206.98,199.675,206.652,199.699,206.306,199.699z"/>
		</g>
	</g>
	<g>
		
			<linearGradient id="SVGID_00000002386897147919357200000004771573223027505798_" gradientUnits="userSpaceOnUse" x1="199.2176" y1="229.0881" x2="445.5022" y2="229.0881">
			<stop  offset="0" style="stop-color:#FFFFFF"/>
			<stop  offset="1" style="stop-color:#97C678"/>
		</linearGradient>
		
			<polygon fill="url(#SVGID_00000002386897147919357200000004771573223027505798_)" stroke="#231815" stroke-width="0.1194" stroke-miterlimit="10" points="
			445.502,229.088 428.752,217.402 428.752,221.074 199.218,221.074 199.218,237.102 428.752,237.102 428.752,240.775 		"/>
		<g>
			<path d="M212.616,230.526l-0.492,0.564c-0.31-0.212-0.614-0.522-0.912-0.93c-0.297-0.406-0.504-0.816-0.62-1.229
				c-0.097,0.438-0.296,0.875-0.597,1.312c-0.301,0.438-0.648,0.79-1.043,1.058l-0.501-0.565c0.498-0.321,0.914-0.796,1.248-1.421
				c0.334-0.626,0.501-1.321,0.501-2.087v-1.358h0.774v1.35c0,0.734,0.153,1.396,0.46,1.981
				C211.743,229.786,212.136,230.228,212.616,230.526z M213.8,232.685h-0.765v-4.082h-1.258v-0.665h1.258v-2.643h0.765V232.685z
				 M215.377,233.077h-0.774v-7.964h0.774V233.077z"/>
			<path d="M223.086,229.815h-2.569v1.595h3.208v0.656h-7.19v-0.656h3.171v-1.595h-2.579v-0.656h1.331l-0.209-2.077l0.82-0.119
				l0.155,2.196h1.804l0.31-2.178l0.784,0.137l-0.337,2.041h1.303V229.815z M223.095,226.571h-5.978v-0.647h5.978V226.571z"/>
			<path d="M224.435,226.498v-0.656h4.347v0.656h-1.74v0.328c0,0.535,0.196,1.027,0.588,1.477c0.392,0.449,0.831,0.747,1.316,0.893
				l-0.446,0.647c-0.358-0.146-0.717-0.386-1.075-0.72c-0.359-0.334-0.62-0.681-0.784-1.039c-0.128,0.383-0.378,0.763-0.752,1.139
				c-0.374,0.377-0.767,0.65-1.18,0.82l-0.483-0.638c0.541-0.194,1.008-0.534,1.403-1.021s0.592-0.999,0.592-1.54v-0.347H224.435z
				 M230.841,232.813h-5.349v-2.479h0.802v1.831h4.547V232.813z M230.567,225.113v2.369h1.194v0.665h-1.194v2.752h-0.802v-5.786
				H230.567z"/>
			<path d="M236.263,227.737h-3.946v-0.665h3.946V227.737z M236.099,229.66c0,0.48-0.161,0.861-0.483,1.144
				c-0.322,0.283-0.744,0.424-1.267,0.424c-0.516,0-0.938-0.147-1.267-0.441c-0.328-0.295-0.492-0.67-0.492-1.126
				c0-0.474,0.163-0.852,0.488-1.134c0.325-0.283,0.749-0.424,1.271-0.424s0.945,0.141,1.267,0.424
				C235.938,228.808,236.099,229.186,236.099,229.66z M235.342,226.371h-2.141v-0.656h2.141V226.371z M235.046,230.316
				c0.185-0.176,0.278-0.395,0.278-0.656c0-0.261-0.093-0.477-0.278-0.646c-0.186-0.17-0.418-0.256-0.697-0.256
				c-0.286,0-0.521,0.087-0.706,0.26c-0.186,0.174-0.278,0.388-0.278,0.643c0,0.268,0.091,0.487,0.273,0.661
				c0.182,0.173,0.419,0.26,0.71,0.26C234.628,230.581,234.861,230.493,235.046,230.316z M239.024,233.077h-0.774v-4.009h-0.82
				v3.617h-0.774v-7.399h0.774v3.117h0.82v-3.29h0.774V233.077z"/>
			<path d="M246.642,230.671l-0.483,0.574c-0.31-0.2-0.63-0.503-0.961-0.907c-0.332-0.403-0.548-0.791-0.652-1.161
				c-0.085,0.407-0.279,0.816-0.583,1.229c-0.304,0.414-0.644,0.748-1.021,1.003l-0.51-0.556c0.516-0.334,0.932-0.796,1.248-1.386
				c0.316-0.589,0.474-1.26,0.474-2.014v-0.747h-1.549v-0.647h3.809v0.647h-1.467v0.72c0,0.76,0.161,1.416,0.483,1.969
				C245.752,229.949,246.156,230.374,246.642,230.671z M247.726,232.685h-0.765v-4.046h-1.185v-0.665h1.185v-2.679h0.765V232.685z
				 M249.303,233.077h-0.774v-7.964h0.774V233.077z"/>
			<path d="M254.451,225.96c-0.024,1.239-0.345,2.33-0.961,3.271s-1.48,1.716-2.592,2.323l-0.501-0.619
				c0.929-0.438,1.676-1.044,2.241-1.818c0.565-0.774,0.884-1.6,0.957-2.474h-2.797v-0.684H254.451z M256.183,228.976h-1.713v-0.674
				h1.713v-3.189h0.802v7.964h-0.802V228.976z"/>
		</g>
	</g>
	<g>
		
			<linearGradient id="SVGID_00000173878715688558288430000002584293032876083611_" gradientUnits="userSpaceOnUse" x1="327.2686" y1="257.808" x2="515.7426" y2="257.808">
			<stop  offset="0" style="stop-color:#FFFFFF"/>
			<stop  offset="1" style="stop-color:#FFF741"/>
		</linearGradient>
		
			<polygon fill="url(#SVGID_00000173878715688558288430000002584293032876083611_)" stroke="#231815" stroke-width="0.1194" stroke-miterlimit="10" points="
			515.743,257.808 498.992,246.121 498.992,249.794 327.269,249.794 327.269,265.822 498.992,265.822 498.992,269.494 		"/>
		<g>
			<path d="M340.634,258.003l-0.465,0.629c-0.383-0.176-0.741-0.419-1.075-0.729c-0.335-0.311-0.581-0.653-0.738-1.03
				c-0.115,0.401-0.35,0.781-0.702,1.14s-0.753,0.644-1.202,0.856l-0.502-0.629c0.602-0.255,1.083-0.618,1.444-1.089
				s0.543-1.007,0.543-1.608v-0.711h0.819v0.675c0,0.589,0.188,1.109,0.565,1.562C339.699,257.522,340.135,257.833,340.634,258.003z
				 M342.566,262.323h-5.14v-2.879h5.14V262.323z M341.754,261.685v-1.595h-3.526v1.595H341.754z M341.754,256.856h-1.54V256.2h1.54
				v-1.731h0.812v4.556h-0.812V256.856z"/>
			<path d="M346.521,262.432h-0.803v-2.77h-1.804v-0.666h7.189v0.666h-1.831v2.77h-0.803v-2.77h-1.949V262.432z M350.33,256.573
				c0,0.522-0.255,0.945-0.766,1.267c-0.51,0.322-1.196,0.483-2.06,0.483c-0.862,0-1.548-0.161-2.055-0.483
				c-0.507-0.321-0.761-0.744-0.761-1.267c0-0.516,0.254-0.934,0.761-1.253c0.507-0.318,1.192-0.479,2.055-0.479
				c0.863,0,1.55,0.16,2.06,0.479C350.075,255.639,350.33,256.057,350.33,256.573z M348.949,255.817
				c-0.361-0.194-0.843-0.292-1.444-0.292s-1.083,0.098-1.444,0.292s-0.542,0.446-0.542,0.756c0,0.316,0.18,0.571,0.538,0.766
				s0.841,0.292,1.448,0.292s1.091-0.098,1.449-0.292s0.537-0.449,0.537-0.766C349.491,256.263,349.31,256.011,348.949,255.817z"/>
			<path d="M352.425,259.885c-0.34-0.52-0.51-1.198-0.51-2.036c0-0.839,0.17-1.518,0.51-2.037s0.845-0.779,1.513-0.779
				s1.171,0.26,1.508,0.779c0.338,0.52,0.506,1.201,0.506,2.046c0,0.832-0.168,1.508-0.506,2.027
				c-0.337,0.52-0.84,0.779-1.508,0.779S352.765,260.405,352.425,259.885z M355.16,257.858c0-0.638-0.106-1.152-0.319-1.545
				c-0.213-0.392-0.514-0.588-0.902-0.588s-0.688,0.195-0.897,0.584s-0.314,0.905-0.314,1.549c0,0.632,0.104,1.143,0.314,1.531
				s0.509,0.583,0.897,0.583s0.689-0.194,0.902-0.583S355.16,258.49,355.16,257.858z M359.223,258.295h-1.275v4.137h-0.812v-7.964
				h0.812v3.162h1.275V258.295z"/>
			<path d="M363.643,259.88l-0.492,0.565c-0.31-0.213-0.613-0.522-0.911-0.93c-0.298-0.406-0.505-0.816-0.62-1.229
				c-0.097,0.437-0.296,0.874-0.597,1.312s-0.648,0.79-1.043,1.058l-0.501-0.565c0.498-0.322,0.914-0.796,1.248-1.422
				c0.334-0.625,0.501-1.321,0.501-2.086v-1.358h0.774v1.349c0,0.735,0.153,1.396,0.46,1.982
				C362.77,259.141,363.163,259.583,363.643,259.88z M364.828,262.041h-0.766v-4.082h-1.258v-0.666h1.258v-2.643h0.766V262.041z
				 M366.404,262.432h-0.774v-7.964h0.774V262.432z"/>
			<path d="M374.113,259.17h-2.569v1.595h3.208v0.655h-7.19v-0.655h3.172v-1.595h-2.579v-0.656h1.33l-0.209-2.078l0.819-0.118
				l0.155,2.196h1.805l0.31-2.178l0.783,0.137l-0.337,2.041h1.303V259.17z M374.123,255.926h-5.978v-0.647h5.978V255.926z"/>
			<path d="M382.679,258.405l-0.42,0.629c-0.364-0.109-0.741-0.307-1.13-0.593c-0.389-0.285-0.671-0.595-0.847-0.93
				c-0.134,0.358-0.383,0.703-0.748,1.034c-0.364,0.332-0.765,0.573-1.202,0.725l-0.447-0.638c0.529-0.164,0.979-0.433,1.349-0.807
				c0.371-0.373,0.58-0.797,0.629-1.271h-1.704v-0.666h4.356v0.666h-1.813c0.066,0.449,0.291,0.838,0.674,1.166
				S382.193,258.277,382.679,258.405z M384.374,262.323h-5.212v-2.706h5.212V262.323z M381.394,255.306h-2.16v-0.656h2.16V255.306z
				 M383.563,261.685v-1.422h-3.591v1.422H383.563z M384.374,259.179h-0.811v-4.711h0.811V259.179z"/>
			<path d="M388.867,260.71h-0.812v-1.641h-2.333v-0.656h7.19v0.656h-1.978v1.641h-0.802v-1.641h-1.267V260.71z M392.101,256.291
				c0,0.492-0.247,0.876-0.742,1.152c-0.495,0.277-1.177,0.415-2.046,0.415s-1.548-0.138-2.037-0.415
				c-0.489-0.276-0.733-0.66-0.733-1.152c0-0.486,0.244-0.865,0.733-1.139s1.168-0.41,2.037-0.41s1.551,0.137,2.046,0.41
				S392.101,255.804,392.101,256.291z M392.101,262.196h-5.513v-2.315h0.802v1.659h4.711V262.196z M389.313,255.398
				c-0.589,0-1.061,0.078-1.413,0.236c-0.352,0.158-0.528,0.38-0.528,0.665c0,0.28,0.175,0.5,0.524,0.661
				c0.349,0.161,0.818,0.241,1.408,0.241c0.595,0,1.072-0.08,1.431-0.241s0.537-0.381,0.537-0.661c0-0.285-0.176-0.507-0.528-0.665
				S389.915,255.398,389.313,255.398z"/>
		</g>
	</g>
	<g>
		
			<linearGradient id="SVGID_00000043437025166719222230000008709007075609262976_" gradientUnits="userSpaceOnUse" x1="329.5881" y1="286.5278" x2="547.6841" y2="286.5278">
			<stop  offset="0" style="stop-color:#FFFFFF"/>
			<stop  offset="1" style="stop-color:#F6BB75"/>
		</linearGradient>
		
			<polygon fill="url(#SVGID_00000043437025166719222230000008709007075609262976_)" stroke="#231815" stroke-width="0.1194" stroke-miterlimit="10" points="
			546.02,286.528 529.269,274.841 529.269,278.514 327.924,278.514 327.924,294.542 529.269,294.542 529.269,298.214 		"/>
		<g>
			<path d="M340.758,283.628h-4.356v-0.638h4.356V283.628z M340.512,285.086c0,0.383-0.174,0.684-0.52,0.902
				c-0.347,0.219-0.796,0.328-1.349,0.328c-0.535,0-0.977-0.109-1.326-0.328s-0.523-0.52-0.523-0.902
				c0-0.37,0.173-0.665,0.519-0.884c0.347-0.219,0.79-0.328,1.331-0.328c0.54,0,0.987,0.109,1.339,0.328
				C340.335,284.421,340.512,284.716,340.512,285.086z M339.81,282.526h-2.314v-0.638h2.314V282.526z M339.405,285.546
				c0.203-0.112,0.306-0.266,0.306-0.46s-0.103-0.345-0.306-0.451c-0.204-0.106-0.457-0.159-0.761-0.159
				c-0.298,0-0.549,0.053-0.752,0.159c-0.204,0.106-0.306,0.257-0.306,0.451s0.102,0.348,0.306,0.46
				c0.203,0.112,0.454,0.169,0.752,0.169C338.948,285.715,339.201,285.659,339.405,285.546z M343.191,289.77h-5.395v-1.841h4.328
				v-0.547h-4.374v-0.619h5.186v1.749h-4.338v0.62h4.593V289.77z M340.904,284.321v-0.629h1.221v-1.858h0.812v4.483h-0.812v-0.656
				h-1.221v-0.61h1.221v-0.729H340.904z"/>
			<path d="M349.233,286.362c-0.796,0.122-1.644,0.198-2.543,0.229c-0.802,0.042-1.619,0.063-2.451,0.063l-0.118-0.675
				c0.734,0,1.294-0.006,1.677-0.018v-1.704h0.802v1.686c1.008-0.03,1.855-0.097,2.542-0.2L349.233,286.362z M348.585,282.435
				c0,1.294-0.076,2.223-0.228,2.788l-0.784-0.128c0.134-0.449,0.201-1.117,0.201-2.005h-3.107v-0.655H348.585z M350.754,289.597
				h-5.358v-2.324h0.802v1.668h4.557V289.597z M351.657,285.013h-1.185v2.779h-0.793v-5.959h0.793v2.506h1.185V285.013z"/>
			<path d="M356.504,283.747h-4.328V283.1h4.328V283.747z M356.258,285.396c0,0.389-0.173,0.705-0.52,0.948
				c-0.346,0.243-0.787,0.364-1.321,0.364s-0.975-0.12-1.321-0.36c-0.346-0.239-0.52-0.557-0.52-0.952
				c0-0.4,0.172-0.721,0.515-0.961c0.344-0.24,0.785-0.36,1.326-0.36c0.534,0,0.976,0.12,1.321,0.36
				C356.085,284.675,356.258,284.996,356.258,285.396z M355.602,282.599h-2.314v-0.656h2.314V282.599z M355.151,285.897
				c0.204-0.127,0.306-0.294,0.306-0.501c0-0.206-0.102-0.375-0.306-0.506c-0.203-0.13-0.448-0.195-0.733-0.195
				s-0.531,0.065-0.738,0.195c-0.206,0.131-0.31,0.3-0.31,0.506c0,0.207,0.104,0.374,0.31,0.501
				c0.207,0.128,0.453,0.191,0.738,0.191S354.948,286.025,355.151,285.897z M358.049,287.387c0.464,0.246,0.696,0.588,0.696,1.025
				s-0.232,0.777-0.696,1.021c-0.465,0.243-1.126,0.364-1.982,0.364s-1.513-0.12-1.968-0.359c-0.456-0.24-0.684-0.582-0.684-1.025
				s0.228-0.787,0.684-1.03c0.455-0.242,1.111-0.364,1.968-0.364S357.584,287.141,358.049,287.387z M356.067,287.647
				c-0.571,0-1.018,0.068-1.34,0.205c-0.321,0.137-0.482,0.323-0.482,0.561c0,0.236,0.159,0.424,0.479,0.561
				c0.318,0.137,0.767,0.205,1.344,0.205c0.583,0,1.036-0.067,1.357-0.201c0.322-0.133,0.483-0.321,0.483-0.564
				c0-0.237-0.163-0.424-0.487-0.561C357.095,287.715,356.644,287.647,356.067,287.647z M356.65,284.594v-0.646h1.239v-2.114h0.812
				v5.112h-0.812v-0.875h-1.239v-0.638h1.239v-0.839H356.65z"/>
			<path d="M364.615,285.542l-0.474,0.628c-0.383-0.17-0.742-0.411-1.076-0.724c-0.334-0.313-0.577-0.658-0.729-1.035
				c-0.122,0.401-0.36,0.784-0.716,1.148c-0.354,0.364-0.755,0.647-1.198,0.848l-0.501-0.629c0.602-0.255,1.085-0.618,1.449-1.089
				s0.547-1.007,0.547-1.608v-0.802h0.82v0.766c0,0.589,0.187,1.108,0.56,1.558C363.671,285.053,364.11,285.366,364.615,285.542z
				 M365.94,287.123c0.471,0.277,0.707,0.655,0.707,1.135c0,0.48-0.236,0.856-0.707,1.13s-1.131,0.41-1.981,0.41
				c-0.845,0-1.502-0.137-1.973-0.41s-0.706-0.649-0.706-1.13c0-0.479,0.235-0.857,0.706-1.135c0.471-0.276,1.128-0.414,1.973-0.414
				C364.809,286.708,365.469,286.846,365.94,287.123z M363.958,287.355c-0.583,0-1.039,0.081-1.367,0.242s-0.492,0.381-0.492,0.66
				s0.164,0.498,0.492,0.656s0.784,0.237,1.367,0.237c0.589,0,1.048-0.079,1.376-0.237s0.492-0.377,0.492-0.656
				s-0.164-0.499-0.492-0.66S364.547,287.355,363.958,287.355z M365.772,284.276h-1.531v-0.656h1.531v-1.786h0.811v4.866h-0.811
				V284.276z"/>
		</g>
	</g>
	<g>
		
			<linearGradient id="SVGID_00000140734065729693211110000015043947200248813218_" gradientUnits="userSpaceOnUse" x1="394.9506" y1="315.2477" x2="585.8135" y2="315.2477">
			<stop  offset="0" style="stop-color:#FFFFFF"/>
			<stop  offset="1" style="stop-color:#D45952"/>
		</linearGradient>
		
			<polygon fill="url(#SVGID_00000140734065729693211110000015043947200248813218_)" stroke="#231815" stroke-width="0.1194" stroke-miterlimit="10" points="
			585.813,315.248 569.063,303.561 569.063,307.233 394.951,307.233 394.951,323.262 569.063,323.262 569.063,326.934 		"/>
		<g>
			<path d="M408.259,316.016l-0.492,0.565c-0.311-0.213-0.614-0.522-0.911-0.93c-0.298-0.406-0.505-0.816-0.62-1.229
				c-0.097,0.437-0.296,0.874-0.597,1.312s-0.648,0.79-1.043,1.058l-0.502-0.565c0.498-0.322,0.914-0.796,1.249-1.422
				c0.334-0.625,0.501-1.321,0.501-2.086v-1.358h0.774v1.349c0,0.735,0.153,1.396,0.46,1.982S407.779,315.719,408.259,316.016z
				 M409.444,318.176h-0.766v-4.082h-1.258v-0.666h1.258v-2.643h0.766V318.176z M411.02,318.568h-0.774v-7.964h0.774V318.568z"/>
			<path d="M418.729,315.306h-2.57v1.595h3.208v0.655h-7.189v-0.655h3.171v-1.595h-2.579v-0.656h1.33l-0.209-2.078l0.82-0.118
				l0.154,2.196h1.805l0.31-2.178l0.784,0.137l-0.338,2.041h1.304V315.306z M418.738,312.062h-5.978v-0.647h5.978V312.062z"/>
			<path d="M425.426,316.682c-0.766,0.091-1.646,0.161-2.643,0.209c-0.936,0.049-1.802,0.073-2.598,0.073l-0.118-0.692
				c0.936,0,1.661-0.006,2.178-0.019v-1.275c-0.522-0.067-0.949-0.271-1.28-0.61c-0.331-0.341-0.497-0.757-0.497-1.249
				c0-0.564,0.207-1.032,0.62-1.403c0.413-0.37,0.93-0.556,1.549-0.556c0.626,0,1.146,0.181,1.563,0.542
				c0.416,0.361,0.624,0.834,0.624,1.417c0,0.492-0.164,0.905-0.492,1.239s-0.754,0.541-1.275,0.62v1.239
				c1.062-0.043,1.828-0.101,2.296-0.174L425.426,316.682z M423.986,313.11c0-0.377-0.129-0.678-0.387-0.902
				c-0.259-0.225-0.579-0.337-0.962-0.337c-0.376,0-0.695,0.117-0.956,0.351c-0.262,0.234-0.393,0.53-0.393,0.889
				c0,0.353,0.129,0.64,0.388,0.861c0.258,0.222,0.578,0.332,0.961,0.332c0.371,0,0.688-0.11,0.952-0.332
				C423.854,313.75,423.986,313.462,423.986,313.11z M426.647,318.568h-0.802v-7.964h0.802V318.568z"/>
			<path d="M432.141,311.452c-0.024,1.221-0.363,2.301-1.016,3.239c-0.653,0.938-1.548,1.718-2.684,2.337l-0.492-0.61
				c0.941-0.449,1.712-1.062,2.31-1.836c0.599-0.774,0.935-1.59,1.007-2.447h-2.961v-0.683H432.141z M434.474,318.568h-0.811v-7.964
				h0.811V318.568z"/>
			<path d="M436.114,311.707v-0.647h4.374v0.647h-1.786v0.009c0,0.528,0.199,1,0.597,1.412c0.398,0.414,0.85,0.699,1.354,0.857
				l-0.446,0.638c-0.377-0.152-0.747-0.385-1.112-0.697c-0.364-0.312-0.628-0.643-0.792-0.988c-0.122,0.37-0.383,0.741-0.784,1.111
				c-0.4,0.37-0.814,0.641-1.239,0.811l-0.474-0.619c0.553-0.207,1.037-0.544,1.453-1.012s0.624-0.966,0.624-1.494v-0.027H436.114z
				 M442.629,318.513h-5.495v-2.032h4.411v-0.71h-4.429v-0.647h5.239v1.969h-4.41v0.756h4.684V318.513z M442.356,314.695h-0.811
				v-4.091h0.811V314.695z"/>
			<path d="M446.92,316.062h2.352v-0.729h-3.171v-0.656h7.189v0.656h-3.208v0.729h2.287v2.543h-0.811v-1.887h-4.639V316.062z
				 M452.935,313.62l-0.337,0.666c-0.607-0.067-1.191-0.226-1.75-0.475s-0.944-0.54-1.157-0.874
				c-0.206,0.352-0.578,0.648-1.116,0.888c-0.538,0.24-1.129,0.391-1.772,0.451l-0.355-0.656c0.668-0.03,1.274-0.16,1.818-0.392
				c0.543-0.23,0.873-0.52,0.988-0.865h-2.415v-0.647h5.705v0.647h-2.396c0.121,0.34,0.461,0.627,1.021,0.86
				C451.726,313.458,452.315,313.589,452.935,313.62z M450.976,311.26h-2.579v-0.656h2.579V311.26z"/>
			<path d="M454.165,311.852v-0.656h4.355v0.656h-1.74v0.319c0,0.528,0.194,1.007,0.583,1.435c0.389,0.429,0.83,0.719,1.321,0.87
				l-0.446,0.647c-0.364-0.146-0.726-0.378-1.084-0.697c-0.358-0.318-0.617-0.654-0.774-1.007c-0.122,0.371-0.38,0.741-0.774,1.111
				c-0.396,0.371-0.806,0.645-1.23,0.82l-0.456-0.638c0.547-0.194,1.023-0.53,1.431-1.007s0.61-0.982,0.61-1.518v-0.337H454.165z
				 M455.185,315.744h5.34v2.824h-0.819v-2.169h-4.521V315.744z M460.516,315.324h-0.811v-2.014h-1.477v-0.656h1.477v-2.05h0.811
				V315.324z"/>
		</g>
	</g>
	<g>
		<g>
			
				<line fill="none" stroke="#231815" stroke-width="0.75" stroke-miterlimit="10" x1="1.804" y1="337.139" x2="582.246" y2="337.139"/>
			<g>
				<path fill="#231815" d="M586.772,337.139c-2.13,0.79-4.772,2.139-6.411,3.567l1.29-3.567l-1.29-3.566
					C582,335.001,584.643,336.35,586.772,337.139z"/>
			</g>
		</g>
	</g>
	<g>
		<g>
			<line fill="none" stroke="#231815" stroke-width="0.75" stroke-miterlimit="10" x1="1.804" y1="22.72" x2="1.804" y2="25.72"/>
			
				<line fill="none" stroke="#231815" stroke-width="0.75" stroke-miterlimit="10" stroke-dasharray="6.0721,2.024" x1="1.804" y1="27.744" x2="1.804" y2="334.385"/>
			
				<line fill="none" stroke="#231815" stroke-width="0.75" stroke-miterlimit="10" x1="1.804" y1="335.397" x2="1.804" y2="338.397"/>
		</g>
	</g>
	<g>
		<path d="M8.415,357.49l-1.275,1.875c-0.52-0.17-1.053-0.478-1.598-0.923s-0.938-0.928-1.177-1.447
			c-0.2,0.59-0.598,1.152-1.193,1.688c-0.595,0.535-1.192,0.902-1.792,1.103l-1.29-1.905c0.99-0.3,1.75-0.82,2.28-1.56
			c0.53-0.74,0.795-1.601,0.795-2.58v-1.38H5.55v1.244C5.55,355.565,6.505,356.86,8.415,357.49z M11.31,362.455
			c0,0.82-0.435,1.465-1.305,1.935s-2.05,0.705-3.54,0.705s-2.67-0.235-3.54-0.705c-0.87-0.47-1.305-1.114-1.305-1.935
			c0-0.84,0.435-1.5,1.305-1.98c0.87-0.479,2.05-0.72,3.54-0.72s2.67,0.237,3.54,0.713C10.875,360.942,11.31,361.605,11.31,362.455z
			 M6.465,361.479c-0.75,0-1.333,0.088-1.748,0.263s-0.622,0.413-0.622,0.713c0,0.28,0.207,0.5,0.622,0.66s0.998,0.239,1.748,0.239
			c0.76,0,1.345-0.082,1.755-0.247c0.41-0.165,0.615-0.383,0.615-0.652c0-0.29-0.205-0.525-0.615-0.705
			C7.81,361.57,7.225,361.479,6.465,361.479z M12.765,356.905h-1.65v2.774H8.76v-7.92h2.355v3.255h1.65V356.905z"/>
		<path d="M21.135,356.74h-2.43c0.05,1.1,0.3,2.018,0.75,2.752c0.45,0.735,1.145,1.308,2.085,1.718l-1.26,1.86
			c-0.61-0.32-1.183-0.772-1.718-1.358c-0.535-0.585-0.902-1.187-1.103-1.807c-0.18,0.649-0.54,1.274-1.08,1.875
			c-0.54,0.6-1.155,1.069-1.845,1.409L13.2,361.45c1.02-0.54,1.76-1.173,2.22-1.897c0.46-0.726,0.715-1.663,0.765-2.812h-2.49v-1.83
			h7.44V356.74z M19.439,354.115h-4.11v-1.83h4.11V354.115z M22.425,359.32H20.49v-1.921h1.935v-5.64h2.355v13.5h-2.355V359.32z"/>
	</g>
	<g>
		<path d="M96.502,355.344h-7.155v-1.605h7.155V355.344z M96.277,357.624c0,0.62-0.3,1.125-0.9,1.516
			c-0.6,0.39-1.38,0.584-2.34,0.584c-0.95,0-1.728-0.197-2.333-0.592c-0.605-0.395-0.908-0.897-0.908-1.508
			c0-0.59,0.302-1.085,0.908-1.484c0.605-0.4,1.382-0.601,2.333-0.601c0.95,0,1.727,0.2,2.333,0.601
			C95.974,356.539,96.277,357.034,96.277,357.624z M100.732,365.258h-9.645v-3.33h7.125v-0.375h-7.125v-1.545h9.48v3.301h-7.11v0.39
			h7.275V365.258z M95.062,353.364h-3.765v-1.561h3.765V353.364z M91.957,357.624c0,0.17,0.105,0.305,0.315,0.405
			s0.47,0.149,0.78,0.149c0.32,0,0.585-0.049,0.795-0.149c0.21-0.101,0.315-0.235,0.315-0.405c0-0.18-0.105-0.322-0.315-0.428
			c-0.21-0.104-0.475-0.157-0.795-0.157c-0.31,0-0.57,0.053-0.78,0.157C92.062,357.301,91.957,357.444,91.957,357.624z
			 M96.907,356.049v-1.815h1.305v-2.476h2.355v7.756h-2.355v-0.945h-1.305v-1.83h1.305v-0.689H96.907z"/>
		<path d="M105.187,352.539c0.92,0,1.682,0.31,2.288,0.931c0.605,0.619,0.907,1.42,0.907,2.399s-0.302,1.78-0.907,2.399
			c-0.605,0.621-1.368,0.931-2.288,0.931c-0.93,0-1.693-0.312-2.288-0.938s-0.893-1.433-0.893-2.423c0-0.97,0.298-1.762,0.893-2.377
			S104.256,352.539,105.187,352.539z M113.646,365.274h-2.325v-3.256h-7.455v-1.814h9.78V365.274z M105.216,354.549
			c-0.29,0-0.532,0.122-0.727,0.367c-0.195,0.244-0.292,0.562-0.292,0.952s0.097,0.702,0.292,0.938
			c0.195,0.235,0.437,0.353,0.727,0.353c0.28,0,0.518-0.123,0.713-0.367c0.195-0.245,0.292-0.562,0.292-0.953
			c0-0.369-0.098-0.678-0.292-0.922C105.734,354.671,105.497,354.549,105.216,354.549z M113.662,359.754h-2.19v-3.016h-0.645v2.955
			h-2.145v-7.68h2.145v2.85h0.645v-3.105h2.19V359.754z"/>
		<path d="M127.266,359.543h-12.21v-1.785h12.21V359.543z M126.126,362.574c0,0.771-0.45,1.393-1.35,1.868
			c-0.9,0.475-2.105,0.712-3.615,0.712c-1.5,0-2.695-0.237-3.585-0.712c-0.89-0.476-1.335-1.098-1.335-1.868
			c0-0.78,0.442-1.402,1.328-1.868c0.885-0.465,2.082-0.697,3.592-0.697c1.52,0,2.728,0.232,3.623,0.697
			C125.679,361.171,126.126,361.793,126.126,362.574z M126.021,354.789c0,0.729-0.442,1.341-1.327,1.83
			c-0.885,0.49-2.062,0.735-3.533,0.735c-1.48,0-2.66-0.245-3.54-0.735c-0.88-0.489-1.32-1.101-1.32-1.83
			c0-0.739,0.44-1.357,1.32-1.853c0.88-0.494,2.06-0.742,3.54-0.742c1.47,0,2.647,0.248,3.533,0.742
			C125.579,353.431,126.021,354.049,126.021,354.789z M121.161,361.824c-0.71,0-1.283,0.069-1.717,0.21
			c-0.435,0.141-0.653,0.33-0.653,0.57c0,0.22,0.223,0.404,0.667,0.555s1.013,0.225,1.703,0.225c0.71,0,1.292-0.074,1.748-0.225
			s0.683-0.335,0.683-0.555c0-0.24-0.223-0.43-0.667-0.57C122.479,361.893,121.891,361.824,121.161,361.824z M123.516,354.803
			c0-0.25-0.215-0.465-0.645-0.645c-0.43-0.18-1-0.27-1.71-0.27c-0.72,0-1.292,0.09-1.717,0.27c-0.425,0.18-0.638,0.395-0.638,0.645
			c0,0.24,0.212,0.448,0.638,0.623c0.425,0.175,0.997,0.262,1.717,0.262c0.71,0,1.28-0.087,1.71-0.262
			C123.301,355.251,123.516,355.043,123.516,354.803z"/>
		<path d="M140.241,363.744h-12.21v-1.83h4.095v-4.545h2.355v4.545h5.76V363.744z M129.291,352.793h9.9c0.02,0.67,0.02,1.25,0,1.74
			c-0.01,1.03-0.083,2.145-0.218,3.346c-0.135,1.199-0.288,2.119-0.458,2.76l-2.16-0.226c0.15-0.59,0.277-1.354,0.382-2.295
			s0.158-1.67,0.158-2.19v-1.274h-7.605V352.793z"/>
	</g>
	<g>
		<path d="M272.514,352.509c0.96,0,1.779,0.29,2.46,0.87h2.79v-1.62h2.369v7.604h-2.369v-1.035h-2.671
			c-0.689,0.63-1.55,0.945-2.579,0.945c-1.041,0-1.9-0.317-2.58-0.952c-0.681-0.636-1.021-1.448-1.021-2.438
			c0-0.99,0.338-1.801,1.013-2.431S271.463,352.509,272.514,352.509z M280.119,365.139h-9.27v-5.221h9.27V365.139z M272.514,354.489
			c-0.391,0-0.711,0.133-0.96,0.397c-0.251,0.266-0.375,0.603-0.375,1.013c0,0.4,0.124,0.728,0.375,0.982
			c0.249,0.255,0.569,0.383,0.96,0.383c0.369,0,0.685-0.13,0.944-0.391c0.26-0.26,0.391-0.59,0.391-0.989
			c0-0.4-0.131-0.732-0.391-0.998C273.199,354.622,272.883,354.489,272.514,354.489z M277.749,363.339v-1.681h-4.515v1.681H277.749z
			 M276.114,355.899c0,0.11-0.01,0.255-0.03,0.435h1.681v-0.96h-1.695C276.099,355.534,276.114,355.709,276.114,355.899z"/>
		<path d="M293.874,359.739h-12.21v-1.814h12.21V359.739z M292.779,354.144h-3.315c0.29,0.46,0.8,0.825,1.53,1.095
			c0.729,0.271,1.56,0.42,2.489,0.45l-0.915,1.8c-1.02-0.05-1.972-0.252-2.857-0.607c-0.885-0.354-1.532-0.862-1.942-1.522
			c-0.38,0.65-1.024,1.16-1.935,1.53s-1.87,0.585-2.88,0.645l-0.886-1.755c0.99-0.03,1.838-0.189,2.543-0.479
			s1.197-0.676,1.478-1.155h-3.3v-1.785h9.99V354.144z M292.824,362.589c0,0.739-0.455,1.345-1.365,1.814s-2.125,0.705-3.646,0.705
			c-1.55,0-2.782-0.232-3.697-0.697s-1.372-1.072-1.372-1.822c0-0.771,0.452-1.383,1.357-1.838c0.904-0.455,2.127-0.683,3.667-0.683
			c1.55,0,2.78,0.228,3.69,0.683S292.824,361.819,292.824,362.589z M287.768,361.884c-0.74,0-1.33,0.062-1.77,0.188
			c-0.44,0.125-0.66,0.308-0.66,0.547c0,0.21,0.225,0.383,0.675,0.518s1.035,0.203,1.755,0.203c0.74,0,1.338-0.068,1.793-0.203
			s0.683-0.308,0.683-0.518c0-0.239-0.223-0.422-0.668-0.547S288.528,361.884,287.768,361.884z"/>
	</g>
	<g>
		<path d="M405.317,360.339l-1.26,1.859c-0.39-0.21-0.805-0.572-1.245-1.087c-0.439-0.516-0.729-1.013-0.87-1.493
			c-0.149,0.561-0.435,1.113-0.854,1.658s-0.91,0.992-1.47,1.342l-1.351-1.739c1.73-1.061,2.595-3.016,2.595-5.865v-2.115h2.266
			v1.98c0,1.46,0.175,2.622,0.524,3.487C404.002,359.232,404.557,359.889,405.317,360.339z M407.448,364.719h-2.115v-6.585h-1.41
			v-1.98h1.41v-4.17h2.115V364.719z M410.267,365.259h-2.205v-13.5h2.205V365.259z"/>
		<path d="M422.762,359.949h-3.931v1.95h4.936v1.905h-12.21v-1.905h4.935v-1.95h-4.02v-1.83h1.814l-0.375-2.835l2.37-0.165l0.21,3
			h2.37l0.255-3l2.355,0.226l-0.465,2.774h1.755V359.949z M422.836,354.624h-10.409v-1.875h10.409V354.624z"/>
		<path d="M436.742,359.739h-12.21v-1.814h12.21V359.739z M435.647,354.144h-3.315c0.29,0.46,0.8,0.825,1.53,1.095
			c0.729,0.271,1.56,0.42,2.489,0.45l-0.915,1.8c-1.02-0.05-1.972-0.252-2.857-0.607c-0.885-0.354-1.532-0.862-1.942-1.522
			c-0.38,0.65-1.024,1.16-1.935,1.53s-1.87,0.585-2.88,0.645l-0.886-1.755c0.99-0.03,1.838-0.189,2.543-0.479
			s1.197-0.676,1.478-1.155h-3.3v-1.785h9.99V354.144z M435.692,362.589c0,0.739-0.455,1.345-1.365,1.814s-2.125,0.705-3.646,0.705
			c-1.55,0-2.782-0.232-3.697-0.697s-1.372-1.072-1.372-1.822c0-0.771,0.452-1.383,1.357-1.838c0.904-0.455,2.127-0.683,3.667-0.683
			c1.55,0,2.78,0.228,3.69,0.683S435.692,361.819,435.692,362.589z M430.636,361.884c-0.74,0-1.33,0.062-1.77,0.188
			c-0.44,0.125-0.66,0.308-0.66,0.547c0,0.21,0.225,0.383,0.675,0.518s1.035,0.203,1.755,0.203c0.74,0,1.338-0.068,1.793-0.203
			s0.683-0.308,0.683-0.518c0-0.239-0.223-0.422-0.668-0.547S431.396,361.884,430.636,361.884z"/>
		<path d="M445.801,357.458l-1.275,1.875c-0.52-0.159-1.062-0.467-1.627-0.922c-0.565-0.455-0.968-0.942-1.208-1.463
			c-0.18,0.57-0.58,1.115-1.2,1.635c-0.62,0.521-1.244,0.881-1.875,1.08l-1.26-1.904c1-0.301,1.772-0.811,2.317-1.53
			s0.817-1.565,0.817-2.535v-1.365h2.37v1.23C442.861,355.529,443.841,356.829,445.801,357.458z M448.861,365.274h-2.354v-3.15
			h-7.141v-1.83h9.495V365.274z M448.846,359.814h-2.37v-8.055h2.37V359.814z"/>
	</g>
	<g>
		<path d="M510.046,360.024l0.195,1.875c-1.561,0.28-3.48,0.431-5.76,0.45c-1.121,0-1.801-0.005-2.041-0.015v-5.805h4.035v-1.71
			h-4.035v-1.905h6.405v5.475h-4.034v2.01C506.71,360.459,508.457,360.334,510.046,360.024z M513.107,365.259h-2.371v-13.5h2.371
			V365.259z"/>
		<path d="M525.707,359.455h-3.736v2.46h4.951v1.845H514.71v-1.845h4.92v-2.46h-3.719v-6.75h9.795V359.455z M523.335,357.639v-3.104
			h-5.069v3.104H523.335z"/>
		<path d="M533.715,356.74l0.136,1.71c-1.101,0.18-2.421,0.27-3.961,0.27h-1.695v-6.39h5.341v1.814h-3v2.761
			c0.319,0.029,0.812,0.029,1.478,0C532.677,356.875,533.246,356.82,533.715,356.74z M539.611,365.229h-9.586v-3.72h6.961v-0.495
			h-6.975v-1.74h9.359v3.75h-6.99v0.421h7.23V365.229z M534.451,356.259h-1.68v-1.68h1.68v-2.565h2.16v6.735h-2.16V356.259z
			 M539.371,358.78h-2.205v-7.021h2.205V358.78z"/>
		<path d="M548.791,357.49l0.209,1.725c-0.47,0.12-1.289,0.218-2.459,0.293c-1.17,0.074-2.215,0.117-3.135,0.127
			c-0.65,0-1.346-0.01-2.086-0.03v-4.395h3.885v-0.825h-3.869v-1.814h6.24v4.319h-3.886v0.9c0.771,0.03,1.665,0.015,2.685-0.045
			C547.395,357.684,548.201,357.599,548.791,357.49z M550.725,360.767c0.87,0.445,1.306,1.058,1.306,1.837
			c0,0.78-0.436,1.398-1.306,1.853c-0.87,0.455-2.05,0.683-3.54,0.683c-1.5,0-2.689-0.225-3.57-0.675
			c-0.88-0.45-1.32-1.07-1.32-1.86c0-0.77,0.44-1.38,1.32-1.83c0.881-0.449,2.07-0.675,3.57-0.675
			C548.675,360.099,549.855,360.322,550.725,360.767z M547.185,361.854c-0.75,0-1.348,0.073-1.793,0.218
			c-0.444,0.146-0.667,0.322-0.667,0.532s0.223,0.388,0.667,0.533c0.445,0.145,1.043,0.217,1.793,0.217s1.338-0.072,1.763-0.217
			c0.425-0.146,0.638-0.323,0.638-0.533s-0.215-0.387-0.646-0.532C548.51,361.927,547.925,361.854,547.185,361.854z
			 M551.955,359.919h-2.369v-8.16h2.369V359.919z"/>
	</g>
	<g>
		<path d="M191.975,37.232l0.132,1.5c-0.792,0.2-2.004,0.292-3.636,0.276l-0.876-0.012v-7.32h4.128v1.488h-2.256v4.296
			C190.458,37.46,191.295,37.384,191.975,37.232z M196.679,41.264h-1.776v-5.28h-0.66v4.824h-1.74V30.62h1.74v3.804h0.66v-3.96
			h1.776V41.264z"/>
		<path d="M204.347,35.024l-1.02,1.5c-0.416-0.128-0.85-0.374-1.302-0.738c-0.452-0.364-0.774-0.754-0.966-1.17
			c-0.144,0.456-0.464,0.892-0.96,1.308c-0.496,0.417-0.996,0.704-1.5,0.864l-1.008-1.524c0.8-0.24,1.417-0.648,1.854-1.224
			c0.436-0.576,0.654-1.252,0.654-2.028V30.92h1.896v0.984C201.995,33.48,202.779,34.52,204.347,35.024z M206.794,41.276h-1.884
			v-2.52h-5.712v-1.464h7.596V41.276z M206.783,36.908h-1.896v-6.444h1.896V36.908z"/>
		<path d="M213.479,37.328l-1.008,1.488c-0.312-0.168-0.644-0.458-0.996-0.87s-0.584-0.81-0.696-1.194
			c-0.12,0.448-0.348,0.89-0.684,1.326c-0.336,0.436-0.728,0.794-1.176,1.074l-1.08-1.392c1.384-0.848,2.076-2.412,2.076-4.692
			v-1.692h1.812v1.584c0,1.168,0.14,2.098,0.42,2.79C212.426,36.442,212.871,36.968,213.479,37.328z M215.183,40.832h-1.692v-5.268
			h-1.128V33.98h1.128v-3.336h1.692V40.832z M217.438,41.264h-1.764v-10.8h1.764V41.264z"/>
		<path d="M227.435,37.016h-3.144v1.56h3.948V40.1h-9.768v-1.524h3.948v-1.56h-3.216v-1.464h1.452l-0.3-2.268l1.896-0.132l0.168,2.4
			h1.896l0.204-2.4l1.884,0.18l-0.372,2.22h1.404V37.016z M227.495,32.756h-8.328v-1.5h8.328V32.756z"/>
	</g>
	<g>
	</g>
	<g>
	</g>
	<g>
	</g>
	<g>
	</g>
	<g>
	</g>
	<g>
	</g>
	<g>
	</g>
</g>
</svg>
