<?xml version="1.0" encoding="utf-8"?>
<!-- Generator: Adobe Illustrator 28.0.0, SVG Export Plug-In . SVG Version: 6.00 Build 0)  -->
<svg version="1.1" id="레이어_1" xmlns="http://www.w3.org/2000/svg" xmlns:xlink="http://www.w3.org/1999/xlink" x="0px"
	 y="0px" viewBox="0 0 366.787 275.128" enable-background="new 0 0 366.787 275.128" xml:space="preserve">
<path fill="#FCF2E5" d="M360.038,216.193c-5.502-6-27.507-44.11-34.509-63.415c-7.001-19.204-14.304-47.811-24.206-65.016
	c-10.002-17.104-24.306-30.708-55.312-30.708c-31.209,0-38.812,13.903-47.014,28.607c-8.201,14.504-19.803,34.608-33.207,53.113
	c-13.303,18.304-33.107,42.31-48.612,55.412c-15.503,13.006-31.007,17.205-53.012,22.307L360.038,216.193"/>
<path fill="#F4F4F4" d="M231.407,218.194c-0.947,0.051-1.988-0.032-1.988-0.032c-2.976-0.236-5.09-1.294-5.615-1.468
	c-5.402-1.799-36.908-9.803-54.413-16.605c-17.604-7-25.006-18.803-30.107-27.805c-3.4-6.201-8.502-18.805-16.404-33.508
	c-4.101-7.602-9.602-15.805-14.604-23.507C93.772,92.464,87.071,85.163,87.071,85.163c-1.701-0.801-6.702-1.001-9.802-0.101
	c-3,0.601-11.202,11.904-22.405,40.21c-17.713,44.754-14.155,51.316-19.805,61.115c-6.742,11.695-16.51,22.56-30.199,32.008
	C120.905,218.203,234.137,218.048,231.407,218.194z"/>
<path fill="#FCEFDF" d="M223.004,216.193c-6.802-2.201-36.708-9.703-53.713-16.305c-17.605-7-25.006-18.703-30.107-27.805
	c-7.502,8.503-15.204,16.304-22.006,22.104c-13.503,11.305-27.006,16.006-45.011,20.307l83.32,1.9L223.004,216.193"/>
<rect x="0.25" y="220.896" fill="#F4F4F4" width="184.545" height="23.605"/>
<polyline fill="none" stroke="#626262" stroke-width="0.499" stroke-miterlimit="10" points="0.25,244.502 184.795,244.502 
	184.795,220.896 0.25,220.896 0.25,244.502 "/>
<polyline fill="none" stroke="#D01226" stroke-width="0.499" stroke-miterlimit="10" points="0.25,218.395 366.538,218.395 
	366.538,48.554 0.25,48.554 0.25,218.395 "/>
<rect x="155.988" y="246.701" fill="#F9E7CC" width="210.55" height="23.605"/>
<polyline fill="none" stroke="#EACA20" stroke-width="0.499" stroke-miterlimit="10" points="155.988,270.307 366.538,270.307 
	366.538,246.701 155.988,246.701 155.988,270.307 "/>
<polyline fill="#D01226" points="93.272,86.862 93.272,78.361 90.271,78.361 90.271,77.36 97.773,77.36 97.773,78.361 
	94.673,78.361 94.673,86.862 93.272,86.862 "/>
<polyline fill="#D01226" points="99.174,86.862 99.174,77.36 100.474,77.36 105.275,84.861 105.275,77.36 106.676,77.36 
	106.676,86.862 105.275,86.862 100.274,79.36 100.274,86.862 99.174,86.862 "/>
<polyline fill="#D01226" points="108.776,86.862 108.776,77.36 115.277,77.36 115.277,78.361 110.177,78.361 110.177,81.361 
	114.678,81.361 114.678,82.462 110.177,82.462 110.177,86.862 108.776,86.862 "/>
<rect x="116.278" y="82.862" fill="#D01226" width="3.701" height="1.099"/>
<path fill="#D01226" d="M123.779,86.963c0,0,0,0-0.1,0c-1,0-1.7-0.301-2-1.001c-0.501-0.499-0.9-1.101-0.9-2.1
	c0-0.9,0.399-1.7,0.9-2.201c0.5-0.7,1.1-0.999,1.801-0.999c0.199,0,0.299,0,0.299,0v0.5c0,0,0,0-0.1,0c-0.5,0-0.9,0.2-1.2,0.7
	c-0.2,0.5-0.3,1.101-0.3,2.301c0,0.7,0,1.001,0.1,1.301c0.2,0.4,0.2,0.499,0.7,0.9c0.2,0.1,0.301,0.1,0.7,0.1c0.1,0,0.1,0,0.1,0
	V86.963 M126.28,80.861h1.201l-0.801,3.001c0,0.1-0.2,0.5-0.4,0.999c0.2,0.501,0.4,1.001,0.501,1.101c0,0.2,0.399,0.4,0.499,0.4
	c0.201,0,0.401-0.2,0.5-0.4c0.2,0,0.4-0.299,0.4-0.599h0.301c-0.2,0.599-0.301,1.099-0.501,1.299s-0.299,0.301-0.7,0.301
	c-0.3,0-0.499-0.101-0.6-0.301c-0.4-0.2-0.4-0.7-0.7-1.299c0,0.3-0.3,0.599-0.5,0.799c-0.2,0.3-0.5,0.5-0.801,0.7
	c-0.2,0-0.399,0.101-0.9,0.101v-0.501c0.401,0,0.501-0.1,0.9-0.3c0.301-0.5,0.601-1.301,1.001-2.701c-0.2-0.799-0.5-1.5-1.001-1.601
	c-0.2-0.5-0.499-0.5-0.9-0.7v-0.5c0.501,0.2,0.9,0.2,1.001,0.5c0.4,0.299,0.7,0.801,1.2,1.701L126.28,80.861z"/>
<rect x="72.668" y="92.964" fill="#D01226" width="1.1" height="9.503"/>
<polyline fill="#D01226" points="76.168,102.467 76.168,92.964 77.269,92.964 77.269,101.465 81.969,101.465 81.969,102.467 
	76.168,102.467 "/>
<rect x="82.97" y="98.465" fill="#D01226" width="3.501" height="1.202"/>
<path fill="#D01226" d="M91.972,102.467h-1.2v-7.502c-0.3,0.299-0.8,0.5-1.101,0.799c-0.499,0.4-1,0.502-1.4,0.7v-1.2
	c0.9-0.299,1.4-0.599,1.9-1.1c0.5-0.399,0.8-0.9,1-1.4h0.8V102.467"/>
<path fill="#D01226" d="M101.174,101.465v1.002h-6.501c0-0.2,0.1-0.7,0.3-0.801c0.2-0.399,0.299-0.9,0.7-1.2
	c0.301-0.499,0.8-0.999,1.601-1.501c0.9-0.799,1.7-1.499,2.001-1.999c0.399-0.501,0.499-1.001,0.499-1.501
	c0-0.5-0.1-0.799-0.499-1.2c-0.301-0.101-0.8-0.5-1.101-0.5c-0.7,0-1.201,0.399-1.4,0.7c-0.501,0.201-0.601,0.7-0.601,1.299
	l-1.2-0.099c0.2-0.9,0.499-1.501,1-2.001c0.5-0.5,1.3-0.9,2.2-0.9c0.8,0,1.6,0.401,2.1,1.001c0.501,0.399,0.9,1,0.9,1.7
	c0,0.299-0.199,0.801-0.399,1.301c-0.1,0.4-0.501,0.7-0.8,0.999c-0.3,0.5-1.001,1.001-1.8,1.701c-0.5,0.7-1.001,1.2-1.4,1.2
	c-0.1,0.3-0.3,0.5-0.501,0.799H101.174"/>
<rect x="51.763" y="111.769" fill="#D01226" width="1.4" height="9.503"/>
<polyline fill="#D01226" points="55.263,121.272 55.263,111.769 56.463,111.769 56.463,120.271 61.265,120.271 61.265,121.272 
	55.263,121.272 "/>
<rect x="62.164" y="117.27" fill="#D01226" width="3.602" height="1.2"/>
<path fill="#D01226" d="M71.167,121.272h-1.2v-7.502c-0.2,0.299-0.7,0.499-1,0.799c-0.5,0.4-1,0.5-1.3,0.5v-1
	c0.6-0.299,1.3-0.601,1.601-1.101c0.5-0.299,1-0.799,1-1.2h0.9V121.272"/>
<path fill="#D01226" d="M77.469,115.769v0.7c0,0,0,0-0.2,0c-0.1,0-0.3,0-0.5-0.199c-0.1,0-0.1-0.2-0.1-0.301c0,0,0,0,0.1-0.2
	c0,0,0.2,0,0.4,0C77.168,115.769,77.269,115.769,77.469,115.769 M75.769,120.77v1.202c0,0.599-0.101,1.299-0.301,2.1h-1
	c0-0.499,0-0.801,0-0.999c0.2-0.601,0.2-1.101,0.2-1.301v-6.703c0-0.799,0.1-1.299,0.3-1.6c0-0.5,0.299-0.799,0.8-1
	c0.399-0.3,0.9-0.3,1.4-0.3c0.1,0,0.1,0,0.3,0v0.3c-0.2,0-0.2,0-0.3,0c-0.5,0-0.9,0.2-1.2,0.7c-0.2,0.3-0.2,0.601-0.2,1.301v5.801
	c0.399,0.301,0.9,0.5,1,0.7c0.4,0,0.4,0.1,0.7,0.1v0.5c-0.3-0.101-0.5-0.101-0.7-0.299C76.468,121.272,76.168,121.071,75.769,120.77
	z M77.469,112.169c0.7,0,1.2,0.1,1.5,0.5c0.5,0.299,0.7,0.999,0.7,1.4c0,0.4,0,0.7-0.2,1c-0.199,0.502-0.5,0.7-0.8,0.9
	c1.001,0.601,1.601,1.501,1.601,2.602c0,0.5-0.1,1-0.3,1.5c-0.3,0.501-0.7,0.9-1.001,1.001c-0.499,0.399-0.8,0.5-1.3,0.5
	c-0.2,0-0.2,0-0.2,0v-0.5c0.5,0,0.8-0.301,1.2-0.6c0.3-0.4,0.501-0.9,0.501-1.7c0-0.501-0.201-1.001-0.401-1.301
	c0-0.4-0.299-0.7-0.6-1.2c-0.2,0.199-0.5,0.199-0.7,0.199v-0.7c0.2,0,0.5,0,0.7,0.2c0.1-0.7,0.499-1.2,0.499-1.7
	c0-0.601-0.199-1.001-0.499-1.301c-0.2-0.299-0.5-0.299-0.7-0.5V112.169z"/>
<path fill="#D01226" d="M26.757,145.877h-1.101v-6.802h1.101V145.877z M26.757,137.775h-1.101v-1.301h1.101V137.775z"/>
<polyline fill="#D01226" points="28.656,145.877 28.656,136.474 29.957,136.474 34.958,143.876 34.958,136.474 36.258,136.474 
	36.258,145.877 34.958,145.877 29.957,138.475 29.957,145.877 28.656,145.877 "/>
<path fill="#D01226" d="M37.959,141.277c0-1.501,0.5-2.701,1.301-3.702c0.9-0.8,1.9-1.299,3.201-1.299v1.2
	c-0.8,0-1.701,0.3-2.201,0.799c-0.6,0.7-0.999,1.702-0.999,3.002c0,1.299,0.199,2.1,0.999,2.8c0.501,0.7,1.201,0.999,2.201,0.999
	v1.002c-0.8,0-1.701-0.2-2.3-0.5c-0.9-0.502-1.201-1.201-1.701-1.8C38.159,142.877,37.959,142.076,37.959,141.277 M42.46,136.275
	c0.8,0,1.7,0.299,2.5,0.7c0.7,0.5,1.2,1,1.5,1.8c0.5,0.7,0.7,1.499,0.7,2.501c0,0.799-0.4,1.6-0.7,2.501c-0.3,0.799-1,1.299-1.7,1.8
	c-0.6,0.3-1.5,0.5-2.3,0.5v-1.002c1,0,1.7-0.299,2.5-0.999c0.5-0.7,0.8-1.701,0.8-2.8c0-0.801-0.1-1.501-0.501-2.201
	c-0.099-0.5-0.5-0.801-1.1-1.301c-0.5-0.3-1-0.3-1.7-0.3V136.275z"/>
<path fill="#D01226" d="M48.262,142.877l1.2-0.101c0,0.5,0.2,1.001,0.3,1.101c0.4,0.4,0.7,0.7,1,0.9c0.5,0.099,1,0.299,1.5,0.299
	c0.4,0,0.9-0.2,1.2-0.299c0.5,0,0.7-0.4,0.8-0.5c0.2-0.4,0.4-0.499,0.4-0.9c0-0.299,0-0.499-0.4-0.801c0-0.2-0.3-0.5-0.8-0.5
	c-0.2-0.2-0.8-0.299-1.7-0.5c-0.8-0.299-1.501-0.299-1.801-0.7c-0.3-0.101-0.7-0.4-1-0.801c-0.201-0.3-0.301-0.599-0.301-1.101
	c0-0.5,0.1-0.999,0.501-1.4c0.1-0.5,0.499-0.8,1-1c0.6-0.101,1.1-0.299,1.8-0.299c0.701,0,1.301,0.199,2.001,0.299
	c0.3,0.401,0.8,0.5,1.201,1c0.099,0.501,0.5,1.001,0.5,1.501h-1.4c0-0.5-0.1-0.801-0.601-1.301c-0.4-0.3-0.9-0.3-1.5-0.3
	c-0.9,0-1.4,0-1.7,0.3c-0.3,0.301-0.7,0.7-0.7,1.001c0,0.3,0.2,0.7,0.4,0.799c0.3,0.401,1,0.5,2,0.9c1,0.101,1.801,0.299,2.101,0.4
	c0.5,0.401,0.999,0.7,1.2,0.999c0.201,0.401,0.301,0.9,0.301,1.4c0,0.501-0.1,1.001-0.301,1.501c-0.299,0.299-0.7,0.801-1.3,1
	c-0.5,0.101-1,0.301-1.9,0.301c-0.8,0-1.5-0.2-2.1-0.301c-0.501-0.199-1-0.7-1.401-1C48.462,144.077,48.262,143.577,48.262,142.877"
	/>
<rect x="222.203" y="73.659" fill="#31AA38" width="1.302" height="9.502"/>
<polyline fill="#31AA38" points="225.705,83.162 225.705,73.659 227.006,73.659 227.006,82.162 231.707,82.162 231.707,83.162 
	225.705,83.162 "/>
<rect x="232.507" y="79.16" fill="#31AA38" width="3.7" height="1.202"/>
<path fill="#31AA38" d="M241.508,83.162h-1.2V75.86c-0.299,0.099-0.601,0.299-1.099,0.799c-0.501,0.2-0.901,0.301-1.201,0.502
	v-1.202c0.7-0.099,1.201-0.599,1.699-1.101c0.502-0.398,0.801-0.9,1.101-1.2h0.7V83.162"/>
<path fill="#31AA38" d="M244.51,78.46c0-1,0.198-2.001,0.3-2.6c0.4-0.7,0.7-1.4,1.201-1.701c0.3-0.3,0.8-0.5,1.699-0.5v0.801
	c-0.501,0-0.999,0.398-1.399,0.9c-0.3,0.5-0.601,1.601-0.601,3.1c0,1.501,0.301,2.701,0.601,3.2c0.4,0.502,0.898,0.801,1.399,0.801
	v1c-0.999,0-1.699-0.5-2.2-1.101C244.809,81.661,244.51,80.362,244.51,78.46 M247.71,73.659c0.5,0,0.802,0,1.3,0.299
	c0.301,0.201,0.7,0.502,0.801,0.9c0.4,0.501,0.5,1.001,0.7,1.301c0.2,0.7,0.2,1.301,0.2,2.301c0,1.201,0,2-0.4,2.901
	c-0.1,0.5-0.5,1.101-1,1.501c-0.301,0.299-1.001,0.599-1.601,0.599v-1c0.5,0,0.802-0.3,1.3-0.801c0.301-0.499,0.501-1.699,0.501-3.2
	c0-1.5-0.2-2.6-0.501-3.1c-0.498-0.501-0.8-0.9-1.3-0.9V73.659z"/>
<path fill="#31AA38" d="M197.298,110.968l3.702-9.503h0.799v1.301c-0.099-0.099-0.099-0.099-0.099-0.299
	c-0.202,0.7-0.4,1.2-0.502,1.8l-0.999,2.901h1.6v0.999h-2.102l-0.999,2.8H197.298 M201.799,101.465h0.5l4.002,9.503H204.8
	l-1.101-2.8h-1.9v-0.999h1.5l-1-2.701c-0.3-0.7-0.5-1.301-0.5-1.701V101.465z"/>
<path fill="#31AA38" d="M207.199,110.968v-6.802h1.001v1.001c0.302-0.5,0.5-0.7,0.8-1.001c0.202-0.2,0.501-0.2,0.7-0.2
	c0.301,0,0.601,0,1.101,0.301l-0.3,1.2c-0.3-0.2-0.5-0.3-1-0.3c-0.2,0-0.299,0.1-0.501,0.1c-0.3,0.4-0.3,0.5-0.498,0.9
	c-0.202,0.3-0.202,0.801-0.202,1.301v3.5H207.199"/>
<path fill="#31AA38" d="M214.302,110.968c-0.099,0-0.099,0-0.099,0c-1.001,0-1.701-0.3-2.401-1c-0.5-0.7-0.601-1.501-0.601-2.5
	c0-0.5,0.101-1.2,0.299-1.701c0.202-0.599,0.7-1,1.002-1.299c0.499-0.301,1.001-0.501,1.701-0.501h0.099v0.801
	c-0.601,0-1.001,0.4-1.301,0.9c-0.499,0.299-0.699,0.999-0.699,1.8c0,0.799,0.2,1.7,0.699,2.001c0.3,0.299,0.7,0.499,1.301,0.499
	V110.968 M211.302,111.668l1.2,0.101c0,0.4,0.2,0.7,0.499,0.9c0.201,0.099,0.502,0.299,1.202,0.299c0,0,0,0,0.099,0v0.801
	c-0.099,0-0.099,0-0.099,0c-0.902,0-1.701-0.101-2.003-0.502C211.702,112.969,211.302,112.269,211.302,111.668z M214.302,112.969
	c0.399-0.2,0.9-0.299,1-0.299c0.4-0.4,0.5-0.5,0.702-1.002c0-0.399,0-0.9,0-1.499c-0.502,0.5-1.002,0.799-1.702,0.799v-1
	c0.399,0,0.9-0.2,1.2-0.499c0.502-0.301,0.7-1.202,0.7-2.001c0-0.801-0.198-1.501-0.7-1.8c-0.3-0.5-0.801-0.9-1.2-0.9v-0.801
	c0.7,0,1.4,0.301,1.9,1.001v-0.801h1.101v5.802c0,1.2-0.101,2.001-0.5,2.501c-0.1,0.299-0.5,0.7-1.001,1c-0.3,0.2-1,0.301-1.5,0.301
	V112.969z"/>
<path fill="#31AA38" d="M223.204,110.968h-1.2v-7.302c-0.501,0.101-0.801,0.5-1.201,0.801c-0.5,0.2-0.999,0.3-1.299,0.5v-1.2
	c0.799-0.101,1.299-0.601,1.801-1.001c0.499-0.499,0.899-0.999,0.999-1.301h0.9V110.968"/>
<path fill="#31AA38" d="M246.311,100.167l1.399,0.499c-0.4,0.799-0.899,1.601-1.399,2.1c-0.801,0.7-1.603,0.9-2.501,0.9
	c-1.101,0-2.001,0-2.5-0.5c-0.802-0.4-1.301-1.2-1.502-1.9c-0.299-0.801-0.599-1.6-0.599-2.501c0-1.101,0.3-2,0.599-2.602
	c0.401-0.7,1-1.4,1.7-1.7c0.7-0.301,1.501-0.7,2.302-0.7c0.898,0,1.7,0.399,2.399,0.9c0.602,0.299,1.101,1.099,1.301,1.999
	l-1.199,0.301c-0.3-0.7-0.601-1.202-1.001-1.501c-0.5-0.5-1-0.5-1.5-0.5c-0.801,0-1.501,0-2.001,0.5
	c-0.499,0.299-0.799,0.801-1.001,1.301c-0.1,0.7-0.3,1.2-0.3,1.9c0,0.801,0.2,1.501,0.3,2.1c0.4,0.7,0.7,1.001,1.201,1.501
	c0.5,0.2,1,0.4,1.7,0.4c0.601,0,1.301-0.2,1.801-0.7C246.011,101.666,246.311,100.966,246.311,100.167"/>
<path fill="#31AA38" d="M249.311,103.667v-9.703h3.201c0.299,0,0.499,0,0.7,0v1.202c-0.201,0-0.401,0-0.7,0h-2.001v7.302h2.001
	c0.299,0,0.499-0.2,0.7-0.2v1.4c-0.201,0-0.401,0-0.5,0H249.311 M253.212,93.963c0.499,0.201,0.799,0.201,1.001,0.201
	c0.599,0.101,1.099,0.301,1.499,0.601c0.5,0.499,0.8,0.999,1.001,1.7c0.3,0.702,0.499,1.501,0.499,2.302c0,0.7,0,1.4-0.399,1.9
	c-0.1,0.5-0.301,1-0.5,1.301c-0.299,0.3-0.601,0.799-1.001,0.999c-0.3,0.2-0.601,0.3-1.099,0.5c-0.4,0-0.502,0.2-1.001,0.2v-1.4
	c0.301,0,0.601,0,0.799,0c0.301-0.1,0.7-0.3,1.001-0.5c0.2-0.301,0.3-0.801,0.5-1.101c0.3-0.499,0.3-1.2,0.3-1.9
	c0-1.101-0.1-1.8-0.5-2.5c-0.3-0.502-0.799-0.801-1.099-1.002c-0.202,0-0.502-0.099-1.001-0.099V93.963z"/>
<path fill="#31AA38" d="M264.515,102.467v1.2h-6.203c0-0.4,0-0.7,0-0.9c0.202-0.499,0.502-0.999,0.902-1.301
	c0.3-0.5,0.8-0.799,1.499-1.499c1.101-0.801,1.801-1.502,2.101-2.001c0.4-0.3,0.5-0.799,0.5-1.301c0-0.5-0.1-0.9-0.5-1.2
	c-0.3-0.5-0.601-0.5-1.301-0.5c-0.498,0-1,0.2-1.299,0.5c-0.4,0.299-0.502,0.801-0.502,1.301h-1.198c0-1.002,0.3-1.601,0.8-2.1
	c0.7-0.502,1.399-0.702,2.199-0.702c1.001,0,1.701,0.201,2.201,0.702c0.601,0.599,0.801,1.099,0.801,1.999
	c0,0.301-0.2,0.601-0.2,1.101c-0.1,0.4-0.301,0.7-0.8,1.001c-0.301,0.5-0.801,1-1.701,1.9c-0.799,0.5-1.301,0.799-1.501,1.101
	c-0.099,0.2-0.299,0.5-0.499,0.7H264.515"/>
<path fill="#31AA38" d="M265.813,98.766c0-1.101,0.202-2,0.4-2.602c0.3-0.7,0.502-1.2,1-1.499c0.502-0.502,1.101-0.702,1.801-0.702
	v1.001c-0.7,0-1.2,0.2-1.299,0.7c-0.502,0.601-0.7,1.6-0.7,3.101c0,1.7,0.198,2.699,0.499,3.201c0.3,0.5,0.8,0.799,1.5,0.799v0.9
	c-1,0-1.7-0.2-2.199-0.9C266.214,101.767,265.813,100.666,265.813,98.766 M269.015,93.963c0.501,0,1.001,0.201,1.301,0.301
	c0.4,0.2,0.701,0.5,1.001,0.9c0.198,0.3,0.4,0.799,0.5,1.499c0.2,0.502,0.398,1.301,0.398,2.102c0,1.2-0.198,2.2-0.498,2.699
	c-0.202,0.801-0.501,1.301-1.001,1.701c-0.5,0.5-1.2,0.5-1.701,0.5v-0.9c0.501,0,1.001-0.299,1.301-0.799
	c0.4-0.502,0.5-1.501,0.5-3.201c0-1.501-0.1-2.5-0.5-3.002c-0.3-0.599-0.8-0.799-1.301-0.799V93.963z"/>
<path fill="#31AA38" d="M276.317,94.965c-0.299,0-0.501,0-0.801,0.299c-0.3,0.201-0.7,0.5-0.801,1.002
	c-0.199,0.7-0.399,1.4-0.399,2.4c0.399-0.5,0.7-0.7,1-1c0.4,0,0.702-0.2,1.001-0.4v1.2c-0.299,0-0.801,0.201-1.101,0.5
	c-0.501,0.301-0.7,0.801-0.7,1.501c0,0.3,0.199,0.801,0.199,1.2c0.301,0.301,0.501,0.601,0.801,0.801
	c0.3,0.2,0.502,0.299,0.801,0.299v0.9c-0.801,0-1.602-0.4-2.1-1c-0.7-0.9-1.002-2.001-1.002-3.502c0-1.999,0.302-3.401,1.101-4.2
	c0.399-0.7,1.2-1.001,2.001-1.001V94.965 M276.317,97.265c0.199,0,0.199,0,0.4,0c0.8,0,1.5,0.4,2,0.9
	c0.501,0.601,0.801,1.301,0.801,2.3c0,0.5-0.2,1.2-0.502,1.701c-0.198,0.5-0.498,1-0.999,1.099c-0.3,0.4-1,0.4-1.501,0.4
	c-0.199,0-0.199,0-0.199,0v-0.9c0,0,0,0,0.199,0c0.501,0,0.801-0.099,1.201-0.599c0.5-0.4,0.599-1.001,0.599-1.501
	c0-0.9-0.099-1.4-0.599-1.701c-0.4-0.299-0.7-0.5-1.4-0.5V97.265z M279.318,96.266l-1.101,0.199c0-0.5-0.4-0.799-0.5-1
	c-0.4-0.5-0.7-0.5-1.201-0.5h-0.199v-1.001c0.199,0,0.199,0,0.4,0c0.6,0,1.3,0.201,1.801,0.702
	C279.017,94.965,279.219,95.665,279.318,96.266z"/>
<path fill="none" stroke="#EACA20" stroke-width="0.499" stroke-miterlimit="10" d="M64.165,216.494
	c22.005-5.102,37.509-9.301,53.012-22.307c15.505-13.102,35.31-37.108,48.612-55.412c13.404-18.505,25.006-38.609,33.207-53.113
	c8.202-14.704,15.805-28.607,47.014-28.607c31.007,0,45.311,13.604,55.312,30.708c9.902,17.205,17.205,45.812,24.206,65.016
	c7.002,19.305,29.007,57.415,34.509,63.415"/>
<path fill="none" stroke="#626262" stroke-width="0.499" stroke-miterlimit="10" d="M4.859,218.395
	c13.868-9.702,23.508-20.705,30.099-32.208c5.584-9.744,2.062-16.287,19.805-61.115c11.203-28.306,19.405-39.609,22.405-40.21
	c3.101-0.9,8.102-0.7,9.802,0.101c0,0,6.702,7.302,21.205,30.106c5.002,7.702,10.503,15.904,14.604,23.507
	c7.902,14.703,13.004,27.307,16.404,33.508c5.102,9.003,12.503,20.805,30.107,27.805c17.505,6.803,49.011,14.807,54.413,16.605
	c5.101,1.9,6.101,1.4,7.602,1.5"/>
<g>
	<defs>
		<path id="SVGID_1_" d="M79.014,147.977c-3.252,0.963,1.018,2.365-0.778,4.429c-1.189-0.201-1.961-1.63-2.973-1.761
			c-1.661-0.222-1.419,1.242-2.287,2.151c-0.516,0.526-9.322,4.741-5.458,6.609c0.48,0.232,1.095,0.051,1.668-0.135
			c0.897-0.286,1.691-0.574,1.689,0.749c-0.003,1.705-3.045,1.57-3.183,2.982c-0.101,1.065,1.674,1.576,2.142,2.241
			c1.142,1.625,0.775,0.706-0.615,1.712c-1.779,1.292-2.809,2.729-1.127,5.036c2.424,3.336,4.805,1.918,7.96,3.25
			c1.781,0.753,2.879,2.732,4.687,3.652c1.438,0.732,3.401,0.935,4.782-0.161c0.986-0.783,1.585-1.982,2.743-2.482
			c0.96-0.414,1.853-0.195,2.754,0.022c0.612,0.149,1.233,0.3,1.876,0.247c1.103-0.089,5.064-1.387,5.121-2.8
			c0.066-1.571-3.383-1.683-2.61-3.821l0.363-0.234c1.956-1.272,3.114-2.908,3.572-5.671c0.471-2.863-1.977-3.086-3.344-5.2
			c-1.304-2.009-0.541-3.372,0.181-5.263c0.479-1.258,1.308-3.521-0.604-3.764c-1.063-0.135-2.099,0.857-3.115,1.849
			c-1.539,1.499-3.027,2.997-4.485,0.587c-0.924-1.53-0.307-2.628-2.079-3.617c-1.101-0.622-2.801-0.921-4.371-0.921
			C80.59,147.664,79.706,147.771,79.014,147.977"/>
	</defs>
	<clipPath id="SVGID_00000079463022151281337120000000446647945735103363_">
		<use xlink:href="#SVGID_1_"  overflow="visible"/>
	</clipPath>
	
		<radialGradient id="SVGID_00000008115567134453154600000002778873278641551799_" cx="-86.4724" cy="581.4901" r="1.6394" gradientTransform="matrix(-9.9824 1.2574 1.3585 10.7865 -1569.973 -5997.1431)" gradientUnits="userSpaceOnUse">
		<stop  offset="0" style="stop-color:#FFFFFF"/>
		<stop  offset="1" style="stop-color:#F1AD8E"/>
	</radialGradient>
	
		<polygon clip-path="url(#SVGID_00000079463022151281337120000000446647945735103363_)" fill="url(#SVGID_00000008115567134453154600000002778873278641551799_)" points="
		103.798,179.325 64.219,184.311 59.666,148.166 99.247,143.182 	"/>
</g>
<path fill="none" stroke="#000000" stroke-width="0.318" d="M95.404,169.898c-0.772,2.139,2.677,2.251,2.61,3.821
	c-0.057,1.413-4.018,2.711-5.121,2.8c-1.591,0.128-3.016-0.97-4.631-0.27c-1.154,0.5-1.756,1.7-2.742,2.482
	c-1.381,1.096-3.344,0.893-4.782,0.161c-1.808-0.92-2.908-2.899-4.687-3.652c-3.154-1.332-5.536,0.088-7.96-3.25
	c-1.681-2.308-0.653-3.743,1.127-5.036c1.391-1.006,1.757-0.087,0.615-1.711c-0.468-0.666-2.242-1.177-2.142-2.242
	c0.138-1.411,3.18-1.277,3.183-2.982c0.003-2.165-2.122-0.019-3.357-0.614c-3.864-1.868,4.942-6.082,5.458-6.609
	c0.868-0.909,0.627-2.376,2.287-2.151c1.012,0.131,1.784,1.56,2.973,1.761c1.796-2.063-2.473-3.466,0.778-4.429
	c1.856-0.555,5.123-0.379,6.878,0.608c1.773,0.989,1.155,2.087,2.079,3.617c2.42,4.007,4.925-2.775,7.601-2.434
	c1.912,0.241,1.083,2.504,0.604,3.762c-0.722,1.891-1.483,3.254-0.181,5.265c1.367,2.113,3.815,2.335,3.344,5.198
	c-0.458,2.763-1.616,4.399-3.572,5.671L95.404,169.898z"/>
<g>
	<defs>
		<path id="SVGID_00000168838219048441866010000013856489629817283753_" d="M83.79,157.083c-0.648,0.393-1.112,1.351-1.72,1.664
			c-0.692,0.354-1.477,0.105-2.225,0.357c-1.68,0.561-2.733,1.956-3.192,3.767c-2.002,7.876,12.14,9.607,13.237,1.021
			c0.128-1.021,0.101-2.14-0.101-3.213c-0.451-2.438-1.998-4.225-3.952-4.225C85.191,156.454,84.501,156.65,83.79,157.083"/>
	</defs>
	<clipPath id="SVGID_00000121268717002716949650000014334870266823989675_">
		<use xlink:href="#SVGID_00000168838219048441866010000013856489629817283753_"  overflow="visible"/>
	</clipPath>
	
		<radialGradient id="SVGID_00000055671044721034721480000005293028826316849559_" cx="-164.3676" cy="540.1804" r="1.6399" gradientTransform="matrix(3.8889 0.039 -0.039 -4.1918 743.5071 2433.7368)" gradientUnits="userSpaceOnUse">
		<stop  offset="0" style="stop-color:#FBE3D5"/>
		<stop  offset="1" style="stop-color:#E35E39"/>
	</radialGradient>
	
		<polygon clip-path="url(#SVGID_00000121268717002716949650000014334870266823989675_)" fill="url(#SVGID_00000055671044721034721480000005293028826316849559_)" points="
		74.501,156.301 90.019,156.454 90.17,172.634 74.651,172.479 	"/>
</g>
<path fill="none" stroke="#000000" stroke-width="0.318" d="M89.79,160.68c0.201,1.073,0.229,2.191,0.098,3.213
	c-1.095,8.586-15.236,6.851-13.233-1.021c0.458-1.811,1.511-3.206,3.191-3.767c0.748-0.253,1.532-0.004,2.225-0.357
	c0.607-0.312,1.072-1.27,1.72-1.664C86.652,155.344,89.19,157.44,89.79,160.68z"/>
<g>
	<defs>
		<path id="SVGID_00000003795286522480515740000013951232904709481644_" d="M248.392,145.225c-3.218,0.954,1.009,2.345-0.768,4.389
			c-1.176-0.202-1.943-1.612-2.943-1.746c-1.647-0.221-1.406,1.23-2.267,2.131c-0.508,0.524-9.231,4.699-5.407,6.545
			c0.475,0.231,1.084,0.051,1.652-0.133c0.889-0.282,1.674-0.567,1.673,0.742c-0.003,1.689-3.012,1.559-3.148,2.955
			c-0.105,1.055,1.653,1.561,2.117,2.218c1.133,1.611,0.768,0.703-0.608,1.697c-1.765,1.278-2.782,2.701-1.115,4.989
			c2.399,3.306,4.759,1.9,7.883,3.216c1.762,0.746,2.849,2.71,4.644,3.62c1.424,0.724,3.364,0.923,4.736-0.162
			c0.974-0.774,1.57-1.961,2.716-2.458c0.952-0.413,1.835-0.195,2.727,0.021c0.606,0.149,1.217,0.299,1.857,0.247
			c1.094-0.087,5.018-1.376,5.07-2.775c0.067-1.556-3.348-1.665-2.585-3.782l0.363-0.234c1.934-1.26,3.081-2.878,3.536-5.618
			c0.467-2.834-1.956-3.052-3.311-5.145c-1.292-1.992-0.535-3.341,0.177-5.216c0.477-1.246,1.299-3.487-0.596-3.727
			c-1.055-0.133-2.082,0.849-3.089,1.831c-1.525,1.484-3,2.971-4.44,0.579c-0.915-1.516-0.303-2.601-2.059-3.583
			c-1.093-0.611-2.778-0.908-4.334-0.908C249.952,144.917,249.075,145.021,248.392,145.225"/>
	</defs>
	<clipPath id="SVGID_00000021108264240556156900000007393975752734325431_">
		<use xlink:href="#SVGID_00000003795286522480515740000013951232904709481644_"  overflow="visible"/>
	</clipPath>
	
		<radialGradient id="SVGID_00000009554554914713124840000001282643540280444568_" cx="-105.4239" cy="577.1794" r="1.6247" gradientTransform="matrix(-9.9826 1.2574 1.3585 10.7866 -1583.9645 -5929.8188)" gradientUnits="userSpaceOnUse">
		<stop  offset="0" style="stop-color:#FFFFFF"/>
		<stop  offset="1" style="stop-color:#9FC0E3"/>
	</radialGradient>
	
		<polygon clip-path="url(#SVGID_00000021108264240556156900000007393975752734325431_)" fill="url(#SVGID_00000009554554914713124840000001282643540280444568_)" points="
		272.942,176.274 233.74,181.213 229.231,145.415 268.433,140.476 	"/>
</g>
<g>
	<path fill="none" stroke="#000000" stroke-width="0.3318" d="M264.626,166.939c-0.763,2.116,2.654,2.226,2.586,3.781
		c-0.054,1.401-3.978,2.688-5.071,2.775c-1.577,0.124-2.987-0.963-4.584-0.268c-1.145,0.497-1.742,1.684-2.716,2.458
		c-1.372,1.085-3.312,0.886-4.736,0.162c-1.795-0.91-2.882-2.874-4.644-3.62c-3.124-1.315-5.483,0.09-7.886-3.216
		c-1.664-2.288-0.646-3.711,1.118-4.989c1.376-0.994,1.741-0.087,0.608-1.697c-0.464-0.657-2.222-1.163-2.119-2.218
		c0.138-1.396,3.147-1.267,3.149-2.955c0.003-2.145-2.103-0.02-3.325-0.609c-3.824-1.846,4.896-6.021,5.407-6.545
		c0.86-0.9,0.619-2.35,2.267-2.131c1,0.134,1.768,1.545,2.943,1.746c1.777-2.044-2.449-3.435,0.768-4.389
		c1.841-0.547,5.075-0.373,6.816,0.602c1.756,0.982,1.144,2.068,2.059,3.582c2.396,3.971,4.878-2.746,7.529-2.41
		c1.895,0.24,1.072,2.481,0.596,3.727c-0.713,1.875-1.469,3.224-0.177,5.216c1.355,2.093,3.777,2.311,3.311,5.146
		c-0.455,2.739-1.603,4.357-3.536,5.616L264.626,166.939z"/>
</g>
<g>
	<defs>
		<path id="SVGID_00000085941307475636913090000008211908895588457146_" d="M253.123,154.243c-0.64,0.39-1.1,1.339-1.702,1.648
			c-0.685,0.352-1.463,0.104-2.203,0.356c-1.664,0.556-2.707,1.936-3.16,3.73c-1.984,7.796,12.022,9.514,13.107,1.008
			c0.129-1.008,0.101-2.117-0.098-3.179c-0.446-2.412-1.978-4.183-3.916-4.183C254.514,153.625,253.829,153.819,253.123,154.243"/>
	</defs>
	<clipPath id="SVGID_00000116201765436388755400000004301600985016079770_">
		<use xlink:href="#SVGID_00000085941307475636913090000008211908895588457146_"  overflow="visible"/>
	</clipPath>
	
		<radialGradient id="SVGID_00000080894465966663133150000017728505726002448771_" cx="-117.1809" cy="557.4637" r="1.6245" gradientTransform="matrix(3.8892 0.039 -0.039 -4.1921 730.0548 2501.6111)" gradientUnits="userSpaceOnUse">
		<stop  offset="0" style="stop-color:#9FC0E3"/>
		<stop  offset="1" style="stop-color:#258DCA"/>
	</radialGradient>
	
		<polygon clip-path="url(#SVGID_00000116201765436388755400000004301600985016079770_)" fill="url(#SVGID_00000080894465966663133150000017728505726002448771_)" points="
		243.923,153.469 259.294,153.625 259.444,169.646 244.073,169.492 	"/>
</g>
<g>
	<path fill="none" stroke="#000000" stroke-width="0.3318" d="M259.067,157.808c0.198,1.061,0.228,2.171,0.098,3.181
		c-1.085,8.504-15.092,6.786-13.107-1.01c0.453-1.795,1.496-3.178,3.16-3.733c0.74-0.25,1.519-0.002,2.203-0.354
		c0.602-0.31,1.062-1.259,1.702-1.648C255.958,152.524,258.472,154.6,259.067,157.808z"/>
</g>
<g>
	<path d="M72.198,183.344h2.315l1.415,3.85c0.18,0.516,0.324,1.079,0.492,1.631h0.06c0.18-0.552,0.324-1.115,0.492-1.631l1.367-3.85
		h2.327v8.923h-1.955v-3.059c0-0.888,0.168-2.219,0.276-3.094h-0.048l-0.743,2.135l-1.2,3.262H75.82l-1.211-3.262l-0.719-2.135
		h-0.048c0.108,0.875,0.276,2.206,0.276,3.094v3.059h-1.919V183.344z"/>
	<path d="M82.626,190.54h1.895v-5.073h-1.643v-1.319c0.959-0.181,1.583-0.42,2.207-0.804h1.571v7.196h1.607v1.727h-5.637V190.54z"/>
	<path d="M72.662,201.131c1.08-0.009,1.845-0.054,2.728-0.243l0.063,0.612c-0.963,0.207-1.782,0.243-2.989,0.243h-0.531v-5.104
		h3.007v0.603h-2.277V201.131z M78.504,195.657v8.075h-0.711v-4.231h-1.144v3.826h-0.693v-7.49h0.693v3.062h1.144v-3.241H78.504z"/>
	<path d="M84.425,200.042c-0.927-0.334-1.657-1.026-2.017-1.918c-0.351,0.954-1.089,1.701-2.035,2.062l-0.378-0.585
		c1.215-0.441,2.035-1.566,2.035-2.773v-0.792h0.738v0.792c0,1.162,0.829,2.215,2.026,2.629L84.425,200.042z M81.148,200.933h5.401
		v2.809h-0.738v-2.214h-4.663V200.933z M86.55,195.666v4.853h-0.738v-4.853H86.55z"/>
	<path d="M90.599,197.935c0,1.297,0.603,2.665,1.665,3.313l-0.423,0.576c-0.765-0.469-1.306-1.323-1.594-2.305
		c-0.288,1.071-0.873,1.989-1.674,2.484l-0.459-0.558c1.107-0.648,1.773-2.098,1.773-3.484v-1.539h0.711V197.935z M92.723,195.837
		h0.693v7.5h-0.693v-4.169h-1.333v-0.612h1.333V195.837z M95.064,195.657v8.075h-0.703v-8.075H95.064z"/>
	<path d="M103.803,202.121v0.604h-7.319v-0.604h3.268v-1.854H97.15v-0.594h1.233v-2.647h-1.251v-0.594h5.987v0.594h-1.251v2.647
		h1.233v0.594h-2.602v1.854H103.803z M99.121,199.673h2.008v-2.647h-2.008V199.673z"/>
</g>
<g>
	<path d="M239.891,183.344h2.315l1.414,3.85c0.181,0.516,0.324,1.079,0.492,1.631h0.061c0.18-0.552,0.323-1.115,0.491-1.631
		l1.367-3.85h2.327v8.923h-1.955v-3.059c0-0.888,0.168-2.219,0.275-3.094h-0.048l-0.743,2.135l-1.199,3.262h-1.176l-1.211-3.262
		l-0.72-2.135h-0.048c0.107,0.875,0.275,2.206,0.275,3.094v3.059h-1.919V183.344z"/>
	<path d="M249.888,191.043c2.23-2.026,3.729-3.646,3.729-4.941c0-0.815-0.456-1.259-1.163-1.259c-0.612,0-1.092,0.407-1.512,0.863
		l-1.163-1.151c0.876-0.923,1.69-1.379,2.962-1.379c1.728,0,2.927,1.104,2.927,2.807c0,1.535-1.319,3.226-2.687,4.605
		c0.443-0.061,1.055-0.12,1.451-0.12h1.643v1.799h-6.188V191.043z"/>
	<path d="M240.354,201.131c1.08-0.009,1.845-0.054,2.727-0.243l0.063,0.612c-0.964,0.207-1.782,0.243-2.989,0.243h-0.531v-5.104
		h3.008v0.603h-2.277V201.131z M246.196,195.657v8.075h-0.711v-4.231h-1.144v3.826h-0.692v-7.49h0.692v3.062h1.144v-3.241H246.196z"
		/>
	<path d="M252.118,200.042c-0.928-0.334-1.657-1.026-2.018-1.918c-0.351,0.954-1.089,1.701-2.034,2.062l-0.378-0.585
		c1.215-0.441,2.035-1.566,2.035-2.773v-0.792h0.737v0.792c0,1.162,0.829,2.215,2.026,2.629L252.118,200.042z M248.841,200.933
		h5.401v2.809h-0.738v-2.214h-4.663V200.933z M254.242,195.666v4.853h-0.738v-4.853H254.242z"/>
	<path d="M258.291,197.935c0,1.297,0.603,2.665,1.665,3.313l-0.423,0.576c-0.765-0.469-1.306-1.323-1.594-2.305
		c-0.288,1.071-0.873,1.989-1.675,2.484l-0.459-0.558c1.107-0.648,1.773-2.098,1.773-3.484v-1.539h0.712V197.935z M260.415,195.837
		h0.693v7.5h-0.693v-4.169h-1.332v-0.612h1.332V195.837z M262.757,195.657v8.075h-0.703v-8.075H262.757z"/>
	<path d="M271.495,202.121v0.604h-7.319v-0.604h3.269v-1.854h-2.602v-0.594h1.232v-2.647h-1.251v-0.594h5.987v0.594h-1.252v2.647
		h1.233v0.594h-2.603v1.854H271.495z M266.813,199.673h2.008v-2.647h-2.008V199.673z"/>
</g>
<g>
	<path d="M68.477,228.545v5.677h-0.913v-1.319h-2.508c-0.462,0.539-1.177,0.869-2.014,0.869c-1.463,0-2.541-0.969-2.541-2.344
		c0-1.354,1.078-2.311,2.541-2.311c0.825,0,1.551,0.319,2.002,0.836h2.52v-1.396L68.477,228.545z M64.715,231.428
		c0-0.902-0.704-1.551-1.672-1.551c-0.968,0-1.683,0.648-1.683,1.551c0,0.924,0.715,1.584,1.683,1.584
		C64.011,233.012,64.715,232.352,64.715,231.428z M62.063,234.729h6.414v3.553h-6.414V234.729z M62.944,237.556h4.653v-2.112h-4.653
		V237.556z M67.564,232.176v-1.485h-2.112c0.077,0.231,0.121,0.474,0.121,0.737c0,0.275-0.044,0.517-0.121,0.748H67.564z"/>
	<path d="M79.39,233.243v0.726h-8.922v-0.726H79.39z M70.974,231.923c1.749-0.188,3.333-1.045,3.377-2.146h-3.059v-0.726h7.294
		v0.726h-3.069c0.044,1.101,1.628,1.958,3.377,2.146l-0.319,0.715c-1.617-0.198-3.103-0.913-3.642-1.991
		c-0.55,1.078-2.024,1.793-3.642,1.991L70.974,231.923z M78.3,236.609c0,1.155-1.276,1.793-3.377,1.793
		c-2.112,0-3.377-0.638-3.377-1.793c0-1.145,1.265-1.782,3.377-1.782C77.024,234.827,78.3,235.465,78.3,236.609z M77.387,236.609
		c0-0.682-0.924-1.078-2.464-1.078c-1.551,0-2.464,0.396-2.464,1.078c0,0.693,0.913,1.078,2.464,1.078
		C76.463,237.688,77.387,237.303,77.387,236.609z"/>
	<path d="M86.396,233.595c-1.354,0.275-2.52,0.342-4.588,0.342h-0.77v-4.533h4.368v0.727h-3.465v3.069
		c1.947,0,3.069-0.077,4.356-0.33L86.396,233.595z M83.008,237.457h5.677v0.736h-6.579v-3.223h0.902V237.457z M89.708,231.472v0.748
		h-1.463v3.466h-0.902v-7.141h0.902v2.927H89.708z"/>
	<path d="M96.252,228.81h0.858v9.098h-0.858v-3.41H94.47v-0.737h1.782v-1.738h-1.628c-0.462,1.661-1.529,3.146-3.399,4.258
		l-0.528-0.638c2.123-1.266,3.179-3.037,3.333-5.105h-2.894V229.8h3.785c0,0.506-0.044,1.001-0.132,1.496h1.463V228.81z
		 M99.091,228.545v9.857h-0.858v-9.857H99.091z"/>
</g>
<g>
	<path d="M252.274,259.628v0.727h-3.949v2.002h-0.902v-2.002h-4.104v-0.727H252.274z M243.88,258.187
		c1.75-0.23,3.346-1.21,3.346-2.409v-0.011h-3.07v-0.727h7.305v0.727h-3.068v0.011c0,1.199,1.595,2.179,3.333,2.409l-0.33,0.727
		c-1.606-0.242-3.059-1.034-3.587-2.179c-0.539,1.145-1.99,1.937-3.586,2.179L243.88,258.187z M245.366,263.457h5.918v0.736h-6.82
		v-2.794h0.902V263.457z"/>
	<path d="M254.913,255.382v2.607h2.861v-2.607h0.891v6.655h-4.643v-6.655H254.913z M254.913,261.3h2.861v-2.596h-2.861V261.3z
		 M261.536,254.545v9.88h-0.901v-9.88H261.536z"/>
	<path d="M269.391,259.595c-1.354,0.275-2.52,0.342-4.588,0.342h-0.771v-4.533h4.368v0.727h-3.466v3.069
		c1.947,0,3.07-0.077,4.357-0.33L269.391,259.595z M266.002,263.457h5.677v0.736H265.1v-3.223h0.902V263.457z M272.702,257.472
		v0.748h-1.463v3.466h-0.902v-7.141h0.902v2.927H272.702z"/>
	<path d="M279.247,254.81h0.857v9.098h-0.857v-3.41h-1.783v-0.737h1.783v-1.738h-1.629c-0.462,1.661-1.529,3.146-3.399,4.258
		l-0.528-0.638c2.123-1.266,3.18-3.037,3.334-5.105h-2.894V255.8h3.784c0,0.506-0.043,1.001-0.132,1.496h1.464V254.81z
		 M282.085,254.545v9.857h-0.857v-9.857H282.085z"/>
</g>
<g>
	<path d="M238.244,21.067v0.748h-8.956v-0.748h4.027V18.68h0.902v2.388H238.244z M229.718,18.295
		c1.705-0.286,3.576-1.661,3.576-3.234v-0.209h-3.268v-0.737h7.469v0.737h-3.267v0.209c0,1.573,1.882,2.927,3.597,3.201
		l-0.362,0.727c-1.507-0.297-3.069-1.266-3.696-2.618c-0.627,1.364-2.179,2.343-3.664,2.662L229.718,18.295z"/>
	<path d="M244.997,18.746c-1.133-0.396-2.035-1.21-2.486-2.244c-0.418,1.122-1.33,2.002-2.497,2.432l-0.473-0.704
		c1.496-0.528,2.497-1.815,2.497-3.202v-0.396h-2.256v-0.727h5.414v0.727h-2.234v0.396c0,1.32,1.023,2.52,2.476,3.004
		L244.997,18.746z M240.905,19.703h6.601v3.378h-0.901V20.43h-5.699V19.703z M247.506,13.212v5.975h-0.901v-5.975H247.506z"/>
	<path d="M255.524,15.886c0,1.804,0.715,3.399,2.112,4.126l-0.528,0.692c-0.968-0.539-1.65-1.496-2.002-2.662
		c-0.33,1.342-1.023,2.409-2.047,3.004l-0.55-0.683c1.408-0.792,2.146-2.476,2.146-4.478v-0.771h-1.914v-0.736h4.576v0.736h-1.793
		V15.886z M261.025,13.201v9.88h-0.869v-5.138h-1.298v4.653h-0.848v-9.164h0.848v3.763h1.298v-3.994H261.025z"/>
	<path d="M267.185,18.537c-0.924-0.374-1.596-1.078-1.947-1.914c-0.352,0.924-1.057,1.76-2.014,2.189l-0.483-0.704
		c1.287-0.572,2.058-1.849,2.058-2.949v-1.331h0.869v1.331c0,1.09,0.736,2.201,2.002,2.685L267.185,18.537z M271.101,21.299
		c0,1.122-1.265,1.771-3.3,1.771c-2.024,0-3.29-0.648-3.29-1.771s1.266-1.771,3.29-1.771
		C269.836,19.527,271.101,20.177,271.101,21.299z M270.21,21.299c0-0.683-0.913-1.067-2.409-1.067c-1.474,0-2.398,0.385-2.398,1.067
		c0,0.682,0.925,1.078,2.398,1.078C269.297,22.377,270.21,21.98,270.21,21.299z M268.935,18.988h-0.859V13.41h0.859v2.453h1.254
		v-2.64h0.869v6.084h-0.869v-2.707h-1.254V18.988z"/>
</g>
<g>
	<path d="M175.346,37.344c-1.067-0.396-1.914-1.21-2.354-2.222c-0.407,1.155-1.287,2.058-2.442,2.497l-0.473-0.715
		c1.496-0.539,2.453-1.882,2.453-3.389v-1.012h0.902v1.089c0,1.331,0.968,2.563,2.387,3.047L175.346,37.344z M177.888,40.062
		c0,1.145-1.243,1.793-3.246,1.793c-2.013,0-3.256-0.648-3.256-1.793c0-1.155,1.243-1.804,3.256-1.804
		C176.644,38.258,177.888,38.907,177.888,40.062z M176.986,40.062c0-0.693-0.891-1.1-2.344-1.1c-1.463,0-2.354,0.406-2.354,1.1
		c0,0.683,0.891,1.089,2.354,1.089C176.095,41.151,176.986,40.745,176.986,40.062z M179.241,34.55v0.748h-1.463v2.685h-0.902v-5.974
		h0.902v2.541H179.241z"/>
	<path d="M183.651,35.188c0,1.64,1.078,3.246,2.53,3.895l-0.495,0.693c-1.122-0.517-2.035-1.584-2.475-2.882
		c-0.418,1.375-1.332,2.519-2.454,3.069l-0.506-0.693c1.452-0.693,2.508-2.376,2.508-4.082v-0.759h-2.233v-0.726h2.222v-1.529h0.902
		v1.529h2.189v0.726h-2.189V35.188z M188.371,31.987v9.901h-0.902v-5.192h-2.134v-0.737h2.134v-3.972H188.371z"/>
	<path d="M193.991,35.188c0,1.65,1.123,3.257,2.597,3.895l-0.507,0.704c-1.133-0.517-2.067-1.584-2.519-2.882
		c-0.44,1.375-1.376,2.497-2.509,3.047l-0.506-0.682c1.463-0.693,2.553-2.354,2.553-4.082v-0.759h-2.289v-0.726h2.277v-1.529h0.914
		v1.529h2.244v0.726h-2.256V35.188z M198.447,31.987v9.868h-0.913v-9.868H198.447z"/>
	<path d="M209.436,39.908v0.737h-8.967v-0.737h2.509v-1.87h-1.386v-3.047h5.852v-1.529h-5.874v-0.737h6.755v2.992h-5.842V37.3h6.072
		v0.737h-1.539v1.87H209.436z M203.87,39.908h2.255v-1.87h-2.255V39.908z"/>
	<path d="M211.03,37.63c0-2.156,0.605-3.938,1.617-5.577l0.627,0.286c-0.957,1.573-1.408,3.421-1.408,5.291
		c0,1.871,0.451,3.729,1.408,5.292l-0.627,0.297C211.636,41.569,211.03,39.798,211.03,37.63z"/>
	<path d="M214.032,35.079h1.023l0.892,3.454c0.121,0.572,0.241,1.111,0.353,1.673h0.055c0.132-0.562,0.253-1.111,0.406-1.673
		l0.925-3.454h0.979l0.935,3.454c0.144,0.572,0.274,1.111,0.418,1.673h0.044c0.133-0.562,0.242-1.101,0.375-1.673l0.879-3.454h0.947
		l-1.607,5.974h-1.209l-0.869-3.224c-0.154-0.561-0.265-1.111-0.408-1.716h-0.055c-0.132,0.604-0.253,1.166-0.406,1.738
		l-0.837,3.201h-1.177L214.032,35.079z"/>
	<path d="M223.075,38.071c0-1.991,1.309-3.146,2.771-3.146c1.464,0,2.773,1.155,2.773,3.146c0,1.98-1.31,3.124-2.773,3.124
		C224.384,41.195,223.075,40.051,223.075,38.071z M227.585,38.071c0-1.375-0.703-2.311-1.738-2.311
		c-1.033,0-1.727,0.936-1.727,2.311s0.693,2.288,1.727,2.288C226.882,40.359,227.585,39.446,227.585,38.071z"/>
	<path d="M230.114,38.863v-3.784h1.002v3.663c0,1.111,0.33,1.584,1.122,1.584c0.616,0,1.045-0.297,1.617-1.012v-4.235h1.001v5.974
		h-0.836l-0.077-0.936h-0.033c-0.562,0.649-1.155,1.078-1.979,1.078C230.676,41.195,230.114,40.381,230.114,38.863z"/>
	<path d="M236.868,35.079h0.826l0.088,0.857h0.033c0.571-0.561,1.188-1.012,2.002-1.012c1.254,0,1.826,0.814,1.826,2.344v3.784
		h-1.002V37.4c0-1.122-0.34-1.596-1.133-1.596c-0.615,0-1.034,0.309-1.639,0.913v4.335h-1.002V35.079z"/>
	<path d="M243.16,38.071c0-1.937,1.222-3.146,2.585-3.146c0.705,0,1.156,0.264,1.684,0.704l-0.055-1.034v-2.299h1.001v8.757h-0.813
		l-0.1-0.704h-0.021c-0.474,0.462-1.101,0.847-1.816,0.847C244.128,41.195,243.16,40.062,243.16,38.071z M247.374,39.534v-3.135
		c-0.506-0.451-0.957-0.627-1.453-0.627c-0.967,0-1.727,0.924-1.727,2.288c0,1.441,0.594,2.299,1.65,2.299
		C246.394,40.359,246.879,40.084,247.374,39.534z"/>
	<path d="M252.873,32.295h1.001v2.397l-0.033,1.232c0.551-0.55,1.166-1.001,1.98-1.001c1.254,0,1.826,0.814,1.826,2.344v3.784
		h-1.001V37.4c0-1.122-0.341-1.596-1.134-1.596c-0.615,0-1.033,0.309-1.639,0.913v4.335h-1.001V32.295z"/>
	<path d="M259.099,38.071c0-1.937,1.309-3.146,2.695-3.146c1.519,0,2.377,1.101,2.377,2.806c0,0.22-0.022,0.429-0.045,0.572H260.1
		c0.066,1.275,0.847,2.09,1.98,2.09c0.583,0,1.056-0.176,1.496-0.473l0.363,0.66c-0.528,0.341-1.166,0.615-1.98,0.615
		C260.375,41.195,259.099,40.041,259.099,38.071z M263.29,37.586c0-1.21-0.55-1.859-1.484-1.859c-0.848,0-1.596,0.683-1.717,1.859
		H263.29z"/>
	<path d="M265.094,39.501c0-1.299,1.134-1.947,3.675-2.233c0-0.771-0.254-1.508-1.232-1.508c-0.693,0-1.32,0.319-1.793,0.639
		l-0.396-0.693c0.551-0.353,1.396-0.781,2.354-0.781c1.452,0,2.068,0.979,2.068,2.453v3.675h-0.825l-0.088-0.715h-0.033
		c-0.572,0.473-1.243,0.857-1.98,0.857C265.842,41.195,265.094,40.58,265.094,39.501z M268.769,39.6v-1.672
		c-2.014,0.241-2.695,0.736-2.695,1.507c0,0.682,0.461,0.957,1.056,0.957C267.712,40.392,268.185,40.117,268.769,39.6z"/>
	<path d="M271.672,39.864v-7.568h1.001v7.635c0,0.308,0.133,0.429,0.286,0.429c0.056,0,0.099,0,0.209-0.021l0.144,0.77
		c-0.144,0.056-0.319,0.088-0.584,0.088C271.979,41.195,271.672,40.711,271.672,39.864z"/>
	<path d="M274.62,33.197c0-0.406,0.297-0.648,0.692-0.648s0.693,0.242,0.693,0.648c0,0.374-0.298,0.649-0.693,0.649
		S274.62,33.571,274.62,33.197z M274.807,35.079h1.001v5.974h-1.001V35.079z"/>
	<path d="M277.831,35.079h0.826l0.088,0.857h0.033c0.571-0.561,1.188-1.012,2.002-1.012c1.254,0,1.826,0.814,1.826,2.344v3.784
		h-1.002V37.4c0-1.122-0.34-1.596-1.133-1.596c-0.615,0-1.034,0.309-1.639,0.913v4.335h-1.002V35.079z"/>
	<path d="M284.091,42.197c0-0.507,0.33-0.99,0.891-1.354v-0.044c-0.319-0.188-0.551-0.506-0.551-0.979
		c0-0.495,0.363-0.891,0.672-1.111v-0.044c-0.396-0.318-0.781-0.891-0.781-1.605c0-1.31,1.034-2.135,2.244-2.135
		c0.33,0,0.627,0.077,0.836,0.154h2.08v0.77h-1.222c0.286,0.275,0.483,0.716,0.483,1.232c0,1.276-0.967,2.079-2.178,2.079
		c-0.297,0-0.627-0.077-0.891-0.209c-0.221,0.188-0.386,0.386-0.386,0.716c0,0.385,0.242,0.648,1.046,0.648h1.166
		c1.386,0,2.079,0.44,2.079,1.419c0,1.111-1.167,2.068-3.015,2.068C285.103,43.802,284.091,43.231,284.091,42.197z M288.612,41.888
		c0-0.55-0.43-0.737-1.222-0.737h-1.034c-0.221,0-0.506-0.032-0.77-0.099c-0.43,0.308-0.617,0.66-0.617,1.012
		c0,0.639,0.649,1.057,1.738,1.057C287.853,43.121,288.612,42.515,288.612,41.888z M287.831,37.059c0-0.869-0.562-1.397-1.266-1.397
		s-1.276,0.517-1.276,1.397c0,0.869,0.583,1.419,1.276,1.419C287.247,38.478,287.831,37.928,287.831,37.059z"/>
	<path d="M290.382,42.922c0.946-1.562,1.408-3.421,1.408-5.292c0-1.87-0.462-3.718-1.408-5.291l0.616-0.286
		c1.022,1.639,1.628,3.421,1.628,5.577c0,2.168-0.605,3.938-1.628,5.589L290.382,42.922z"/>
</g>
<g>
	<path d="M10.38,34.782c0,1.584,0.737,3.256,2.036,4.048l-0.517,0.704c-0.935-0.571-1.595-1.617-1.947-2.816
		c-0.352,1.31-1.067,2.432-2.046,3.037l-0.561-0.683c1.353-0.792,2.167-2.563,2.167-4.258v-1.881h0.869V34.782z M12.977,32.218
		h0.847v9.164h-0.847v-5.094h-1.628v-0.748h1.628V32.218z M15.837,31.998v9.869h-0.858v-9.869H15.837z"/>
	<path d="M26.518,39.897v0.737h-8.944v-0.737h3.994V37.63h-3.18v-0.726h1.507V33.67h-1.529v-0.727h7.316v0.727h-1.529v3.234h1.507
		v0.726h-3.18v2.267H26.518z M20.797,36.905h2.453V33.67h-2.453V36.905z"/>
	<path d="M39.718,38.577H35.67v3.301h-0.902v-3.301h-4.004v-0.726h8.955V38.577z M38.585,36.663h-6.689v-4.269h0.891v1.354h4.896
		v-1.354h0.902V36.663z M37.683,34.473h-4.896v1.452h4.896V34.473z"/>
	<path d="M49.838,39.798v0.748h-8.944v-0.748H49.838z M48.991,37.708c-1.496-0.341-3.036-1.396-3.664-2.85
		c-0.627,1.441-2.167,2.498-3.652,2.85l-0.407-0.748c1.728-0.341,3.586-1.826,3.586-3.51v-0.759h0.946v0.759
		c0,1.684,1.87,3.18,3.598,3.51L48.991,37.708z"/>
	<path d="M52.269,38.752c1.683,0,2.882-0.065,4.301-0.318l0.088,0.748c-1.485,0.264-2.74,0.319-4.522,0.319h-0.759v-3.862h3.509
		v-1.991h-3.531v-0.737h4.412v3.455h-3.499V38.752z M59.133,31.987v9.891h-0.902v-5.347H56.35v-0.737h1.881v-3.807H59.133z"/>
	<path d="M66.338,33.065c0,2.85-1.309,5.358-4.587,6.964l-0.484-0.737c2.651-1.265,3.971-3.157,4.158-5.5h-3.708v-0.727H66.338z
		 M69.231,31.998v9.869H68.33v-9.869H69.231z"/>
	<path d="M77.228,34.782c0,1.716,0.737,3.432,2.101,4.202l-0.55,0.66c-0.957-0.572-1.639-1.628-1.98-2.883
		c-0.341,1.354-1.056,2.509-2.035,3.125l-0.55-0.671c1.375-0.825,2.146-2.619,2.146-4.434V33.89h-1.87v-0.737h4.5v0.737h-1.76
		V34.782z M79.868,32.218h0.858v9.131h-0.858v-5.071H78.24v-0.737h1.628V32.218z M82.718,31.987v9.868h-0.869v-9.868H82.718z"/>
	<path d="M89.383,33.065c0,2.806-1.166,5.303-4.444,6.92l-0.495-0.704c2.651-1.298,3.873-3.18,4.038-5.489h-3.598v-0.727H89.383z
		 M92.574,32.009v9.857h-0.902v-5.171h-2.311v-0.737h2.311v-3.949H92.574z"/>
</g>
<g>
	<path d="M135.736,3.397c0,1.606,0.759,3.278,2.068,4.005l-0.539,0.715c-0.935-0.55-1.617-1.562-1.969-2.739
		c-0.352,1.287-1.078,2.398-2.046,2.992l-0.572-0.682c1.364-0.792,2.189-2.553,2.189-4.258V1.55h0.869V3.397z M141.17,0.625v9.869
		h-0.858v-5.16h-1.31v4.665h-0.858V0.846h0.858v3.751h1.31V0.625H141.17z"/>
	<path d="M151.863,8.535v0.737h-8.966V8.535h4.016V6.676h-2.894V3.629h5.853v-1.54h-5.875V1.352h6.755v3.003h-5.842V5.95h6.073
		v0.726h-3.157v1.859H151.863z"/>
	<path d="M161.961,5.631v0.737h-3.939v1.991h-0.913V6.368h-4.092V5.631H161.961z M154.028,2.858c0-1.221,1.364-1.98,3.455-1.98
		s3.455,0.76,3.455,1.98c0,1.222-1.364,1.98-3.455,1.98S154.028,4.08,154.028,2.858z M155.062,9.525h5.919v0.748h-6.821V7.392h0.902
		V9.525z M154.975,2.858c0,0.771,1.001,1.243,2.508,1.243c1.519,0,2.508-0.473,2.508-1.243c0-0.781-0.99-1.254-2.508-1.254
		C155.976,1.604,154.975,2.077,154.975,2.858z"/>
	<path d="M171.772,2.198h-5.523V1.506h2.354v-0.99h0.902v0.99h2.267V2.198z M169.044,6.017c-1.32,0-2.233-0.66-2.233-1.673
		c0-1.034,0.913-1.683,2.233-1.683s2.233,0.648,2.233,1.683C171.277,5.356,170.364,6.017,169.044,6.017z M169.044,5.356
		c0.814,0,1.375-0.407,1.375-1.013c0-0.616-0.562-1.012-1.375-1.012c-0.825,0-1.375,0.396-1.375,1.012
		C167.669,4.949,168.219,5.356,169.044,5.356z M174.633,9.702v0.682h-6.623V8.106h5.446V7.281h-5.468V6.61h6.359v2.146h-5.446v0.946
		H174.633z M173.445,3.519h-1.662V2.804h1.662V0.637h0.902v5.489h-0.902V5.268h-1.672V4.553h1.672V3.519z"/>
	<path d="M182.531,6.093c-2.046,0.342-4.412,0.396-6.161,0.396l-0.088-0.737c0.627,0,1.342-0.011,2.09-0.021V3.596h0.891v2.102
		c1.078-0.044,2.2-0.121,3.202-0.265L182.531,6.093z M180.638,4.74c0.231-1.134,0.264-1.98,0.264-2.607h-4.026V1.396h4.907v0.517
		c0,0.649,0,1.629-0.253,2.927L180.638,4.74z M178.691,9.537h5.655v0.736h-6.557V7.38h0.902V9.537z M185.446,3.838v0.748h-1.419
		v3.477h-0.902V0.625h0.902v3.213H185.446z"/>
	<path d="M195.093,2.44h-5.523V1.715h2.355V0.537h0.901v1.178h2.267V2.44z M192.364,6.61c-1.32,0-2.233-0.727-2.233-1.837
		c0-1.101,0.913-1.827,2.233-1.827c1.309,0,2.233,0.727,2.233,1.827C194.598,5.884,193.673,6.61,192.364,6.61z M192.364,5.917
		c0.825,0,1.387-0.451,1.387-1.144c0-0.683-0.562-1.134-1.387-1.134s-1.387,0.451-1.387,1.134
		C190.977,5.466,191.539,5.917,192.364,5.917z M197.722,8.8c0,1.067-1.242,1.683-3.277,1.683c-2.047,0-3.29-0.615-3.29-1.683
		c0-1.078,1.243-1.684,3.29-1.684C196.479,7.116,197.722,7.722,197.722,8.8z M196.787,8.8c0-0.639-0.892-0.99-2.343-0.99
		c-1.453,0-2.355,0.352-2.355,0.99c0,0.627,0.902,0.99,2.355,0.99C195.895,9.79,196.787,9.427,196.787,8.8z M196.765,3.728h-1.661
		V3.002h1.661V0.625h0.914v6.37h-0.914V5.653h-1.672V4.916h1.672V3.728z"/>
	<path d="M204.971,6.005c-1.078-0.407-1.914-1.188-2.343-2.211c-0.418,1.166-1.31,2.058-2.498,2.508l-0.473-0.736
		c1.518-0.539,2.497-1.859,2.497-3.367V1.187h0.902v0.979c0,1.408,0.957,2.629,2.398,3.135L204.971,6.005z M207.82,8.624
		c0,1.177-1.255,1.858-3.278,1.858c-2.024,0-3.289-0.682-3.289-1.858c0-1.188,1.265-1.859,3.289-1.859
		C206.565,6.765,207.82,7.436,207.82,8.624z M206.929,8.624c0-0.727-0.902-1.155-2.387-1.155c-1.485,0-2.388,0.429-2.388,1.155
		c0,0.715,0.902,1.144,2.388,1.144C206.026,9.768,206.929,9.339,206.929,8.624z M206.886,3.464h-2.146V2.727h2.146v-2.09h0.912v5.83
		h-0.912V3.464z"/>
</g>
<g>
</g>
<g>
</g>
<g>
</g>
<g>
</g>
<g>
</g>
<g>
</g>
</svg>
