<?xml version="1.0" encoding="utf-8"?>
<!-- Generator: Adobe Illustrator 28.0.0, SVG Export Plug-In . SVG Version: 6.00 Build 0)  -->
<svg version="1.1" id="레이어_1" xmlns="http://www.w3.org/2000/svg" xmlns:xlink="http://www.w3.org/1999/xlink" x="0px"
	 y="0px" viewBox="0 0 284.53 112.497" enable-background="new 0 0 284.53 112.497" xml:space="preserve">
<g>
	<g>
		<g>
			<defs>
				<polygon id="SVGID_1_" points="8.876,104.096 125.585,104.096 125.585,2.195 8.876,2.195 8.876,104.096 				"/>
			</defs>
			<clipPath id="SVGID_00000117650626371280458040000004837277535822565810_">
				<use xlink:href="#SVGID_1_"  overflow="visible"/>
			</clipPath>
			<path clip-path="url(#SVGID_00000117650626371280458040000004837277535822565810_)" fill="#4855A3" d="M12.064,72.968h6.628
				v30.876h-6.628V72.968L12.064,72.968z M24.985,67.472h6.67v36.372h-6.67V67.472L24.985,67.472z M37.948,58.327h6.628v45.518
				h-6.628V58.327L37.948,58.327z M50.869,31.687h6.628v72.157h-6.628V31.687L50.869,31.687z M63.832,14.235h6.628v89.609h-6.628
				V14.235L63.832,14.235z M76.753,8.949h6.628v94.895h-6.628V8.949L76.753,8.949z M89.716,8.32h6.628v95.524h-6.628V8.32
				L89.716,8.32z M102.638,8.11h6.628v95.734h-6.628V8.11L102.638,8.11z M115.559,36.596h6.67v67.249h-6.67V36.596L115.559,36.596z"
				/>
		</g>
		<g>
			
				<line fill="none" stroke="#000000" stroke-width="0.4274" stroke-linejoin="round" stroke-miterlimit="10" x1="8.918" y1="103.844" x2="8.918" y2="2.237"/>
		</g>
		<g>
			<path fill="none" stroke="#000000" stroke-width="0.4274" stroke-linejoin="round" stroke-miterlimit="10" d="M7.407,103.844
				h1.51 M7.407,83.54h1.51 M7.407,63.193h1.51 M7.407,42.888h1.51 M7.407,22.542h1.51 M7.407,2.237h1.51"/>
		</g>
		<g>
			
				<line fill="none" stroke="#000000" stroke-width="0.4274" stroke-linejoin="round" stroke-miterlimit="10" x1="8.918" y1="103.844" x2="125.375" y2="103.844"/>
		</g>
		<g>
			<path fill="none" stroke="#000000" stroke-width="0.4274" stroke-linejoin="round" stroke-miterlimit="10" d="M8.918,103.844
				v1.51 M21.839,103.844v1.51 M34.802,103.844v1.51 M47.723,103.844v1.51 M60.686,103.844v1.51 M73.607,103.844v1.51
				 M86.528,103.844v1.51 M99.491,103.844v1.51 M112.412,103.844v1.51 M125.375,103.844v1.51"/>
		</g>
		<g>
			<g>
				<g>
					<path fill="#404040" d="M12.928,69.559h-0.326v-2.604c-0.062,0.063-0.165,0.131-0.307,0.204
						c-0.142,0.073-0.272,0.124-0.389,0.153v-0.348c0.15-0.042,0.312-0.111,0.483-0.207s0.308-0.188,0.408-0.279h0.131V69.559z"/>
					<path fill="#404040" d="M15.79,68.639c0,0.298-0.095,0.534-0.286,0.709c-0.191,0.175-0.446,0.262-0.765,0.262
						c-0.28,0-0.488-0.042-0.625-0.125v-0.353c0.209,0.134,0.418,0.201,0.629,0.201c0.216,0,0.39-0.062,0.521-0.188
						s0.198-0.287,0.198-0.487c0-0.203-0.067-0.361-0.201-0.472c-0.134-0.111-0.327-0.167-0.58-0.167
						c-0.169,0-0.339,0.01-0.51,0.031l0.102-1.507h1.383v0.297h-1.09l-0.065,0.907c0.105-0.009,0.202-0.014,0.289-0.014
						c0.312,0,0.557,0.081,0.734,0.243C15.702,68.139,15.79,68.359,15.79,68.639z"/>
					<path fill="#404040" d="M16.32,69.379c0-0.064,0.022-0.119,0.068-0.163c0.045-0.044,0.098-0.066,0.158-0.066
						s0.112,0.022,0.158,0.066c0.045,0.044,0.067,0.099,0.067,0.163c0,0.06-0.022,0.113-0.066,0.159s-0.097,0.068-0.159,0.068
						s-0.115-0.022-0.159-0.066C16.343,69.495,16.32,69.441,16.32,69.379z"/>
					<path fill="#404040" d="M18.656,67.349c0-0.18-0.053-0.321-0.16-0.424s-0.248-0.154-0.424-0.154
						c-0.126,0-0.251,0.033-0.377,0.098c-0.126,0.065-0.239,0.154-0.34,0.267v-0.352c0.195-0.193,0.448-0.289,0.758-0.289
						c0.258,0,0.466,0.074,0.624,0.223s0.237,0.35,0.237,0.603c0,0.217-0.051,0.407-0.152,0.57s-0.273,0.332-0.516,0.505
						c-0.229,0.161-0.389,0.284-0.479,0.367c-0.089,0.083-0.152,0.162-0.188,0.237c-0.036,0.074-0.054,0.163-0.054,0.265h1.463
						v0.295h-1.809v-0.147c0-0.165,0.023-0.306,0.069-0.423c0.045-0.117,0.122-0.231,0.229-0.342
						c0.107-0.111,0.279-0.249,0.515-0.413c0.216-0.149,0.37-0.291,0.464-0.425C18.609,67.674,18.656,67.521,18.656,67.349z"/>
				</g>
			</g>
		</g>
		<g>
			<g>
				<g>
					<path fill="#404040" d="M25.863,64.076h-0.326v-2.604c-0.062,0.063-0.165,0.131-0.307,0.204
						c-0.142,0.073-0.272,0.124-0.389,0.153V61.48c0.15-0.042,0.312-0.111,0.483-0.207s0.308-0.188,0.408-0.279h0.131V64.076z"/>
					<path fill="#404040" d="M28.817,61.259c-0.321,0.564-0.572,1.083-0.753,1.559c-0.181,0.475-0.293,0.895-0.337,1.258h-0.354
						c0.033-0.232,0.094-0.489,0.185-0.771c0.09-0.282,0.205-0.58,0.344-0.892c0.14-0.313,0.318-0.665,0.535-1.055h-1.534v-0.297
						h1.916V61.259z"/>
					<path fill="#404040" d="M29.255,63.896c0-0.064,0.022-0.119,0.068-0.163c0.045-0.044,0.098-0.066,0.158-0.066
						s0.112,0.022,0.158,0.066c0.045,0.044,0.067,0.099,0.067,0.163c0,0.06-0.022,0.113-0.066,0.159s-0.097,0.068-0.159,0.068
						s-0.115-0.022-0.159-0.066C29.277,64.012,29.255,63.958,29.255,63.896z"/>
					<path fill="#404040" d="M30.304,63.707c0.168,0.096,0.345,0.144,0.53,0.144c0.274,0,0.489-0.112,0.644-0.335
						c0.154-0.224,0.231-0.542,0.231-0.956c-0.003,0.002-0.006,0.002-0.008,0c-0.131,0.262-0.357,0.393-0.678,0.393
						c-0.259,0-0.471-0.089-0.636-0.267s-0.247-0.402-0.247-0.671c0-0.29,0.088-0.529,0.265-0.719
						c0.177-0.19,0.409-0.285,0.696-0.285c0.303,0,0.535,0.119,0.695,0.356s0.241,0.577,0.241,1.018c0,0.55-0.105,0.978-0.316,1.283
						s-0.511,0.458-0.9,0.458c-0.202,0-0.374-0.034-0.516-0.103V63.707z M30.472,61.966c0,0.209,0.055,0.377,0.164,0.504
						c0.109,0.127,0.262,0.19,0.457,0.19c0.169,0,0.311-0.056,0.424-0.169s0.17-0.25,0.17-0.413c0-0.223-0.056-0.41-0.167-0.562
						c-0.111-0.151-0.261-0.227-0.45-0.227c-0.176,0-0.32,0.066-0.431,0.197C30.528,61.619,30.472,61.779,30.472,61.966z"/>
				</g>
			</g>
		</g>
		<g>
			<g>
				<g>
					<path fill="#404040" d="M38.992,52.719c0-0.18-0.053-0.321-0.16-0.424s-0.248-0.154-0.424-0.154
						c-0.126,0-0.251,0.033-0.377,0.098c-0.126,0.065-0.239,0.154-0.34,0.267v-0.352c0.195-0.193,0.448-0.289,0.758-0.289
						c0.258,0,0.466,0.074,0.624,0.223s0.237,0.35,0.237,0.603c0,0.217-0.051,0.407-0.152,0.57s-0.273,0.332-0.516,0.505
						c-0.229,0.161-0.389,0.284-0.479,0.367c-0.089,0.083-0.152,0.162-0.188,0.237c-0.036,0.074-0.054,0.163-0.054,0.265h1.463
						v0.295h-1.809v-0.147c0-0.165,0.023-0.306,0.069-0.423c0.045-0.117,0.122-0.231,0.229-0.342
						c0.107-0.111,0.279-0.249,0.515-0.413c0.216-0.149,0.37-0.291,0.464-0.425C38.945,53.044,38.992,52.891,38.992,52.719z"/>
					<path fill="#404040" d="M41.302,52.719c0-0.18-0.053-0.321-0.16-0.424s-0.248-0.154-0.424-0.154
						c-0.126,0-0.251,0.033-0.377,0.098c-0.126,0.065-0.239,0.154-0.34,0.267v-0.352c0.195-0.193,0.448-0.289,0.758-0.289
						c0.258,0,0.466,0.074,0.624,0.223s0.237,0.35,0.237,0.603c0,0.217-0.051,0.407-0.152,0.57s-0.273,0.332-0.516,0.505
						c-0.229,0.161-0.389,0.284-0.479,0.367c-0.089,0.083-0.152,0.162-0.188,0.237c-0.036,0.074-0.054,0.163-0.054,0.265h1.463
						v0.295h-1.809v-0.147c0-0.165,0.023-0.306,0.069-0.423c0.045-0.117,0.122-0.231,0.229-0.342
						c0.107-0.111,0.279-0.249,0.515-0.413c0.216-0.149,0.37-0.291,0.464-0.425C41.255,53.044,41.302,52.891,41.302,52.719z"/>
					<path fill="#404040" d="M42.195,54.749c0-0.064,0.022-0.119,0.068-0.163c0.045-0.044,0.098-0.066,0.158-0.066
						s0.112,0.022,0.158,0.066c0.045,0.044,0.067,0.099,0.067,0.163c0,0.06-0.022,0.113-0.066,0.159s-0.097,0.068-0.159,0.068
						s-0.115-0.022-0.159-0.066C42.218,54.865,42.195,54.812,42.195,54.749z"/>
					<path fill="#404040" d="M44.652,51.914v1.991h0.397V54.2h-0.397v0.729H44.33V54.2h-1.417v-0.277
						c0.296-0.333,0.568-0.677,0.816-1.032s0.439-0.681,0.575-0.977H44.652z M43.29,53.905h1.041v-1.487
						c-0.262,0.456-0.536,0.86-0.821,1.212L43.29,53.905z"/>
				</g>
			</g>
		</g>
		<g>
			<g>
				<g>
					<path fill="#404040" d="M50.554,27.833c0.208,0.164,0.439,0.246,0.696,0.246c0.21,0,0.38-0.054,0.509-0.16
						s0.193-0.25,0.193-0.432c0-0.403-0.283-0.604-0.85-0.604h-0.25v-0.277h0.238c0.504,0,0.756-0.188,0.756-0.565
						c0-0.348-0.192-0.522-0.576-0.522c-0.213,0-0.413,0.073-0.6,0.219v-0.326c0.191-0.115,0.418-0.172,0.682-0.172
						c0.24,0,0.438,0.066,0.593,0.199c0.155,0.132,0.232,0.305,0.232,0.518c0,0.395-0.202,0.651-0.604,0.769v0.006
						c0.217,0.019,0.39,0.095,0.52,0.228c0.129,0.132,0.193,0.297,0.193,0.494c0,0.274-0.099,0.494-0.298,0.657
						c-0.199,0.164-0.451,0.246-0.757,0.246c-0.282,0-0.507-0.054-0.678-0.162V27.833z"/>
					<path fill="#404040" d="M54.605,27.384c0,0.298-0.095,0.534-0.286,0.709c-0.191,0.175-0.446,0.262-0.765,0.262
						c-0.28,0-0.488-0.042-0.625-0.125v-0.353c0.209,0.134,0.418,0.201,0.629,0.201c0.216,0,0.39-0.062,0.521-0.188
						s0.198-0.287,0.198-0.487c0-0.203-0.067-0.361-0.201-0.472c-0.134-0.111-0.327-0.167-0.58-0.167
						c-0.169,0-0.339,0.01-0.51,0.031l0.102-1.507h1.383v0.297h-1.09l-0.065,0.907c0.105-0.009,0.202-0.014,0.289-0.014
						c0.312,0,0.557,0.081,0.734,0.243C54.517,26.884,54.605,27.104,54.605,27.384z"/>
					<path fill="#404040" d="M55.136,28.124c0-0.064,0.022-0.119,0.068-0.163c0.045-0.044,0.098-0.066,0.158-0.066
						s0.112,0.022,0.158,0.066c0.045,0.044,0.067,0.099,0.067,0.163c0,0.06-0.022,0.113-0.066,0.159s-0.097,0.068-0.159,0.068
						s-0.115-0.022-0.159-0.066C55.158,28.24,55.136,28.187,55.136,28.124z"/>
					<path fill="#404040" d="M57.834,27.384c0,0.298-0.095,0.534-0.286,0.709c-0.191,0.175-0.446,0.262-0.765,0.262
						c-0.28,0-0.488-0.042-0.625-0.125v-0.353c0.209,0.134,0.418,0.201,0.629,0.201c0.216,0,0.39-0.062,0.521-0.188
						s0.198-0.287,0.198-0.487c0-0.203-0.067-0.361-0.201-0.472c-0.134-0.111-0.327-0.167-0.58-0.167
						c-0.169,0-0.339,0.01-0.51,0.031l0.102-1.507h1.383v0.297h-1.09l-0.065,0.907c0.105-0.009,0.202-0.014,0.289-0.014
						c0.312,0,0.557,0.081,0.734,0.243C57.746,26.884,57.834,27.104,57.834,27.384z"/>
				</g>
			</g>
		</g>
		<g>
			<g>
				<g>
					<path fill="#404040" d="M64.992,7.812v1.991h0.397v0.295h-0.397v0.729H64.67v-0.729h-1.417V9.821
						c0.296-0.333,0.568-0.677,0.816-1.032s0.439-0.681,0.575-0.977H64.992z M63.629,9.802h1.041V8.315
						c-0.262,0.456-0.536,0.86-0.821,1.212L63.629,9.802z"/>
					<path fill="#404040" d="M67.302,7.812v1.991H67.7v0.295h-0.397v0.729H66.98v-0.729h-1.417V9.821
						c0.296-0.333,0.568-0.677,0.816-1.032s0.439-0.681,0.575-0.977H67.302z M65.94,9.802h1.041V8.315
						c-0.262,0.456-0.536,0.86-0.821,1.212L65.94,9.802z"/>
					<path fill="#404040" d="M68.074,10.646c0-0.064,0.022-0.119,0.068-0.163c0.045-0.044,0.098-0.066,0.158-0.066
						s0.112,0.022,0.158,0.066c0.045,0.044,0.067,0.099,0.067,0.163c0,0.06-0.022,0.113-0.066,0.159s-0.097,0.068-0.159,0.068
						s-0.115-0.022-0.159-0.066C68.097,10.763,68.074,10.709,68.074,10.646z"/>
					<path fill="#404040" d="M70.221,10.827h-0.326V8.223c-0.062,0.063-0.165,0.131-0.307,0.204
						C69.446,8.5,69.316,8.551,69.199,8.58V8.231c0.15-0.042,0.312-0.111,0.483-0.207s0.308-0.188,0.408-0.279h0.131V10.827z"/>
				</g>
			</g>
		</g>
		<g>
			<g>
				<g>
					<path fill="#404040" d="M77.929,2.529V4.52h0.397v0.295h-0.397v0.729h-0.322V4.815H76.19V4.539
						c0.296-0.333,0.568-0.677,0.816-1.032s0.439-0.681,0.575-0.977H77.929z M76.567,4.52h1.041V3.033
						c-0.262,0.456-0.536,0.86-0.821,1.212L76.567,4.52z"/>
					<path fill="#404040" d="M80.422,2.877c-0.158-0.079-0.323-0.119-0.494-0.119c-0.278,0-0.497,0.123-0.655,0.368
						c-0.159,0.245-0.237,0.567-0.236,0.968h0.01c0.14-0.288,0.37-0.432,0.69-0.432c0.266,0,0.477,0.086,0.633,0.258
						c0.156,0.172,0.234,0.397,0.234,0.674c0,0.286-0.088,0.524-0.264,0.715C80.166,5.5,79.94,5.596,79.664,5.596
						c-0.31,0-0.548-0.122-0.714-0.365s-0.249-0.58-0.249-1.01c0-0.508,0.107-0.925,0.322-1.251c0.214-0.327,0.515-0.49,0.901-0.49
						c0.209,0,0.375,0.029,0.498,0.086V2.877z M79.062,4.557c0,0.211,0.057,0.392,0.17,0.54c0.113,0.148,0.261,0.223,0.444,0.223
						c0.176,0,0.319-0.066,0.429-0.198s0.165-0.294,0.165-0.487c0-0.218-0.053-0.389-0.158-0.511
						c-0.105-0.123-0.252-0.184-0.44-0.184C79.5,3.94,79.355,4,79.238,4.12C79.121,4.239,79.062,4.385,79.062,4.557z"/>
					<path fill="#404040" d="M81.012,5.364c0-0.064,0.022-0.119,0.068-0.163c0.045-0.044,0.098-0.066,0.158-0.066
						s0.112,0.022,0.158,0.066c0.045,0.044,0.067,0.099,0.067,0.163c0,0.06-0.022,0.113-0.066,0.159s-0.097,0.068-0.159,0.068
						s-0.115-0.022-0.159-0.066C81.034,5.48,81.012,5.427,81.012,5.364z"/>
					<path fill="#404040" d="M83.802,2.728c-0.321,0.564-0.572,1.083-0.753,1.559c-0.181,0.475-0.293,0.895-0.337,1.258h-0.354
						c0.033-0.232,0.094-0.489,0.185-0.771c0.09-0.282,0.205-0.58,0.344-0.892c0.14-0.313,0.318-0.665,0.535-1.055h-1.534V2.529
						h1.916V2.728z"/>
				</g>
			</g>
		</g>
		<g>
			<g>
				<g>
					<path fill="#404040" d="M90.867,1.921v1.991h0.397v0.295h-0.397v0.729h-0.322V4.207h-1.417V3.93
						c0.296-0.333,0.568-0.677,0.816-1.032s0.439-0.681,0.575-0.977H90.867z M89.504,3.912h1.041V2.425
						c-0.262,0.456-0.536,0.86-0.821,1.212L89.504,3.912z"/>
					<path fill="#404040" d="M93.511,2.12c-0.321,0.564-0.572,1.083-0.753,1.559c-0.181,0.475-0.293,0.895-0.337,1.258h-0.354
						c0.033-0.232,0.094-0.489,0.185-0.771c0.09-0.282,0.205-0.58,0.344-0.892c0.14-0.313,0.318-0.665,0.535-1.055h-1.534V1.921
						h1.916V2.12z"/>
					<path fill="#404040" d="M93.949,4.756c0-0.064,0.022-0.119,0.068-0.163c0.045-0.044,0.098-0.066,0.158-0.066
						s0.112,0.022,0.158,0.066C94.377,4.637,94.4,4.691,94.4,4.756c0,0.06-0.022,0.113-0.066,0.159s-0.097,0.068-0.159,0.068
						s-0.115-0.022-0.159-0.066C93.972,4.872,93.949,4.818,93.949,4.756z"/>
					<path fill="#404040" d="M94.816,3.49c0-0.533,0.087-0.936,0.26-1.208s0.423-0.41,0.75-0.41c0.626,0,0.94,0.515,0.94,1.544
						c0,0.508-0.087,0.897-0.261,1.167c-0.174,0.27-0.423,0.405-0.747,0.405c-0.306,0-0.54-0.131-0.701-0.392
						C94.896,4.333,94.816,3.965,94.816,3.49z M95.148,3.474c0,0.825,0.215,1.237,0.645,1.237c0.428,0,0.642-0.419,0.642-1.256
						c0-0.87-0.208-1.305-0.625-1.305C95.369,2.15,95.148,2.591,95.148,3.474z"/>
				</g>
			</g>
		</g>
		<g>
			<g>
				<g>
					<path fill="#404040" d="M103.805,1.716v1.991h0.397v0.295h-0.397v0.729h-0.322V4.002h-1.417V3.725
						c0.296-0.333,0.568-0.677,0.816-1.032s0.439-0.681,0.575-0.977H103.805z M102.443,3.707h1.041V2.22
						c-0.262,0.456-0.536,0.86-0.821,1.212L102.443,3.707z"/>
					<path fill="#404040" d="M106.45,1.915c-0.321,0.564-0.572,1.083-0.753,1.559c-0.181,0.475-0.293,0.895-0.337,1.258h-0.354
						c0.033-0.232,0.094-0.489,0.185-0.771c0.09-0.282,0.205-0.58,0.344-0.892c0.14-0.313,0.318-0.665,0.535-1.055h-1.534V1.716
						h1.916V1.915z"/>
					<path fill="#404040" d="M106.888,4.551c0-0.064,0.022-0.119,0.068-0.163c0.045-0.044,0.098-0.066,0.158-0.066
						s0.112,0.022,0.158,0.066c0.045,0.044,0.067,0.099,0.067,0.163c0,0.06-0.022,0.113-0.066,0.159s-0.097,0.068-0.159,0.068
						s-0.115-0.022-0.159-0.066C106.91,4.667,106.888,4.613,106.888,4.551z"/>
					<path fill="#404040" d="M109.035,4.731h-0.326V2.127c-0.062,0.063-0.165,0.131-0.307,0.204
						c-0.142,0.073-0.272,0.124-0.389,0.153V2.136c0.15-0.042,0.312-0.111,0.483-0.207s0.308-0.188,0.408-0.279h0.131V4.731z"/>
				</g>
			</g>
		</g>
		<g>
			<g>
				<g>
					<path fill="#404040" d="M115.246,32.714c0.208,0.164,0.439,0.246,0.696,0.246c0.21,0,0.38-0.054,0.509-0.16
						s0.193-0.25,0.193-0.432c0-0.403-0.283-0.604-0.85-0.604h-0.25v-0.277h0.238c0.504,0,0.756-0.188,0.756-0.565
						c0-0.348-0.192-0.522-0.576-0.522c-0.213,0-0.413,0.073-0.6,0.219v-0.326c0.191-0.115,0.418-0.172,0.682-0.172
						c0.24,0,0.438,0.066,0.593,0.199c0.155,0.132,0.232,0.305,0.232,0.518c0,0.395-0.202,0.651-0.604,0.769v0.006
						c0.217,0.019,0.39,0.095,0.52,0.228c0.129,0.132,0.193,0.297,0.193,0.494c0,0.274-0.099,0.494-0.298,0.657
						c-0.199,0.164-0.451,0.246-0.757,0.246c-0.282,0-0.507-0.054-0.678-0.162V32.714z"/>
					<path fill="#404040" d="M117.557,32.714c0.208,0.164,0.439,0.246,0.696,0.246c0.21,0,0.38-0.054,0.509-0.16
						s0.193-0.25,0.193-0.432c0-0.403-0.283-0.604-0.85-0.604h-0.25v-0.277h0.238c0.504,0,0.756-0.188,0.756-0.565
						c0-0.348-0.192-0.522-0.576-0.522c-0.213,0-0.413,0.073-0.6,0.219v-0.326c0.191-0.115,0.418-0.172,0.682-0.172
						c0.24,0,0.438,0.066,0.593,0.199c0.155,0.132,0.232,0.305,0.232,0.518c0,0.395-0.202,0.651-0.604,0.769v0.006
						c0.217,0.019,0.39,0.095,0.52,0.228c0.129,0.132,0.193,0.297,0.193,0.494c0,0.274-0.099,0.494-0.298,0.657
						c-0.199,0.164-0.451,0.246-0.757,0.246c-0.282,0-0.507-0.054-0.678-0.162V32.714z"/>
					<path fill="#404040" d="M119.828,33.005c0-0.064,0.022-0.119,0.068-0.163c0.045-0.044,0.098-0.066,0.158-0.066
						s0.112,0.022,0.158,0.066c0.045,0.044,0.067,0.099,0.067,0.163c0,0.06-0.022,0.113-0.066,0.159s-0.097,0.068-0.159,0.068
						s-0.115-0.022-0.159-0.066C119.851,33.121,119.828,33.067,119.828,33.005z"/>
					<path fill="#404040" d="M121.975,33.185h-0.326v-2.604c-0.062,0.063-0.165,0.131-0.307,0.204
						c-0.142,0.073-0.272,0.124-0.389,0.153V30.59c0.15-0.042,0.312-0.111,0.483-0.207s0.308-0.188,0.408-0.279h0.131V33.185z"/>
				</g>
			</g>
		</g>
		<g>
			<g>
				<g>
					<path fill="#595959" d="M2.487,103.846c0-0.533,0.087-0.936,0.26-1.208s0.423-0.41,0.75-0.41c0.626,0,0.94,0.515,0.94,1.544
						c0,0.508-0.087,0.897-0.261,1.167c-0.174,0.27-0.423,0.405-0.747,0.405c-0.306,0-0.54-0.131-0.701-0.392
						C2.567,104.69,2.487,104.321,2.487,103.846z M2.819,103.83c0,0.825,0.215,1.237,0.645,1.237c0.428,0,0.642-0.419,0.642-1.256
						c0-0.87-0.208-1.305-0.625-1.305C3.04,102.507,2.819,102.948,2.819,103.83z"/>
				</g>
			</g>
		</g>
		<g>
			<g>
				<g>
					<path fill="#595959" d="M1.462,84.971H1.137v-2.604c-0.062,0.063-0.165,0.131-0.307,0.204
						c-0.142,0.073-0.272,0.124-0.389,0.153v-0.348c0.15-0.042,0.312-0.111,0.483-0.207s0.308-0.188,0.408-0.279h0.131V84.971z"/>
					<path fill="#595959" d="M2.493,83.525c0-0.533,0.087-0.936,0.26-1.208s0.423-0.41,0.75-0.41c0.626,0,0.94,0.515,0.94,1.544
						c0,0.508-0.087,0.897-0.261,1.167c-0.174,0.27-0.423,0.405-0.747,0.405c-0.306,0-0.54-0.131-0.701-0.392
						C2.573,84.369,2.493,84,2.493,83.525z M2.825,83.509c0,0.825,0.215,1.237,0.645,1.237c0.428,0,0.642-0.419,0.642-1.256
						c0-0.87-0.208-1.305-0.625-1.305C3.045,82.186,2.825,82.626,2.825,83.509z"/>
				</g>
			</g>
		</g>
		<g>
			<g>
				<g>
					<path fill="#595959" d="M1.651,62.438c0-0.18-0.053-0.321-0.16-0.424s-0.248-0.154-0.424-0.154
						c-0.126,0-0.251,0.033-0.377,0.098c-0.126,0.065-0.239,0.154-0.34,0.267v-0.352c0.195-0.193,0.448-0.289,0.758-0.289
						c0.258,0,0.466,0.074,0.624,0.223s0.237,0.35,0.237,0.603c0,0.217-0.051,0.407-0.152,0.57s-0.273,0.332-0.516,0.505
						c-0.229,0.161-0.389,0.284-0.479,0.367c-0.089,0.083-0.152,0.162-0.188,0.237c-0.036,0.074-0.054,0.163-0.054,0.265h1.463
						v0.295H0.233v-0.147c0-0.165,0.023-0.306,0.069-0.423c0.045-0.117,0.122-0.231,0.229-0.342
						c0.107-0.111,0.279-0.249,0.515-0.413c0.216-0.149,0.37-0.291,0.464-0.425C1.604,62.764,1.651,62.611,1.651,62.438z"/>
					<path fill="#595959" d="M2.493,63.203c0-0.533,0.087-0.936,0.26-1.208s0.423-0.41,0.75-0.41c0.626,0,0.94,0.515,0.94,1.544
						c0,0.508-0.087,0.897-0.261,1.167C4.008,64.565,3.759,64.7,3.435,64.7c-0.306,0-0.54-0.131-0.701-0.392
						C2.573,64.046,2.493,63.678,2.493,63.203z M2.825,63.187c0,0.825,0.215,1.237,0.645,1.237c0.428,0,0.642-0.419,0.642-1.256
						c0-0.87-0.208-1.305-0.625-1.305C3.045,61.863,2.825,62.304,2.825,63.187z"/>
				</g>
			</g>
		</g>
		<g>
			<g>
				<g>
					<path fill="#595959" d="M0.272,43.857c0.208,0.164,0.439,0.246,0.696,0.246c0.21,0,0.38-0.054,0.509-0.16
						s0.193-0.25,0.193-0.432c0-0.403-0.283-0.604-0.85-0.604h-0.25V42.63h0.238c0.504,0,0.756-0.188,0.756-0.565
						c0-0.348-0.192-0.522-0.576-0.522c-0.213,0-0.413,0.073-0.6,0.219v-0.326c0.191-0.115,0.418-0.172,0.682-0.172
						c0.24,0,0.438,0.066,0.593,0.199c0.155,0.132,0.232,0.305,0.232,0.518c0,0.395-0.202,0.651-0.604,0.769v0.006
						c0.217,0.019,0.39,0.095,0.52,0.228c0.129,0.132,0.193,0.297,0.193,0.494c0,0.274-0.099,0.494-0.298,0.657
						c-0.199,0.164-0.451,0.246-0.757,0.246c-0.282,0-0.507-0.054-0.678-0.162V43.857z"/>
					<path fill="#595959" d="M2.493,42.882c0-0.533,0.087-0.936,0.26-1.208s0.423-0.41,0.75-0.41c0.626,0,0.94,0.515,0.94,1.544
						c0,0.508-0.087,0.897-0.261,1.167c-0.174,0.27-0.423,0.405-0.747,0.405c-0.306,0-0.54-0.131-0.701-0.392
						C2.573,43.726,2.493,43.357,2.493,42.882z M2.825,42.866c0,0.825,0.215,1.237,0.645,1.237c0.428,0,0.642-0.419,0.642-1.256
						c0-0.87-0.208-1.305-0.625-1.305C3.045,41.543,2.825,41.984,2.825,42.866z"/>
				</g>
			</g>
		</g>
		<g>
			<g>
				<g>
					<path fill="#595959" d="M1.772,20.987v1.991h0.397v0.295H1.772v0.729H1.45v-0.729H0.033v-0.277
						c0.296-0.333,0.568-0.677,0.816-1.032s0.439-0.681,0.575-0.977H1.772z M0.41,22.978H1.45v-1.487
						c-0.262,0.456-0.536,0.86-0.821,1.212L0.41,22.978z"/>
					<path fill="#595959" d="M2.493,22.556c0-0.533,0.087-0.936,0.26-1.208s0.423-0.41,0.75-0.41c0.626,0,0.94,0.515,0.94,1.544
						c0,0.508-0.087,0.897-0.261,1.167c-0.174,0.27-0.423,0.405-0.747,0.405c-0.306,0-0.54-0.131-0.701-0.392
						C2.573,23.4,2.493,23.031,2.493,22.556z M2.825,22.54c0,0.825,0.215,1.237,0.645,1.237c0.428,0,0.642-0.419,0.642-1.256
						c0-0.87-0.208-1.305-0.625-1.305C3.045,21.217,2.825,21.658,2.825,22.54z"/>
				</g>
			</g>
		</g>
		<g>
			<g>
				<g>
					<path fill="#595959" d="M2.014,2.763c0,0.298-0.095,0.534-0.286,0.709C1.537,3.647,1.282,3.734,0.963,3.734
						c-0.28,0-0.488-0.042-0.625-0.125V3.257c0.209,0.134,0.418,0.201,0.629,0.201c0.216,0,0.39-0.062,0.521-0.188
						s0.198-0.287,0.198-0.487c0-0.203-0.067-0.361-0.201-0.472C1.351,2.2,1.158,2.145,0.905,2.145c-0.169,0-0.339,0.01-0.51,0.031
						l0.102-1.507H1.88v0.297h-1.09L0.725,1.872C0.83,1.863,0.927,1.858,1.014,1.858c0.312,0,0.557,0.081,0.734,0.243
						C1.925,2.263,2.014,2.483,2.014,2.763z"/>
					<path fill="#595959" d="M2.493,2.237c0-0.533,0.087-0.936,0.26-1.208s0.423-0.41,0.75-0.41c0.626,0,0.94,0.515,0.94,1.544
						c0,0.508-0.087,0.897-0.261,1.167C4.008,3.6,3.759,3.734,3.435,3.734c-0.306,0-0.54-0.131-0.701-0.392
						C2.573,3.081,2.493,2.712,2.493,2.237z M2.825,2.221c0,0.825,0.215,1.237,0.645,1.237c0.428,0,0.642-0.419,0.642-1.256
						c0-0.87-0.208-1.305-0.625-1.305C3.045,0.897,2.825,1.338,2.825,2.221z"/>
				</g>
			</g>
		</g>
		<g>
			<g>
				<g>
					<path fill="#595959" d="M13.019,108.79c-0.158-0.079-0.323-0.119-0.494-0.119c-0.278,0-0.497,0.123-0.655,0.368
						c-0.159,0.245-0.237,0.567-0.236,0.968h0.01c0.14-0.288,0.37-0.432,0.69-0.432c0.266,0,0.477,0.086,0.633,0.258
						c0.156,0.172,0.234,0.397,0.234,0.674c0,0.286-0.088,0.524-0.264,0.715c-0.175,0.191-0.401,0.287-0.677,0.287
						c-0.31,0-0.548-0.122-0.714-0.365s-0.249-0.58-0.249-1.01c0-0.508,0.107-0.925,0.322-1.251c0.214-0.327,0.515-0.49,0.901-0.49
						c0.209,0,0.375,0.029,0.498,0.086V108.79z M11.659,110.469c0,0.211,0.057,0.392,0.17,0.54c0.113,0.148,0.261,0.223,0.444,0.223
						c0.176,0,0.319-0.066,0.429-0.198s0.165-0.294,0.165-0.487c0-0.218-0.053-0.389-0.158-0.511
						c-0.105-0.123-0.252-0.184-0.44-0.184c-0.172,0-0.317,0.06-0.435,0.179C11.717,110.151,11.659,110.297,11.659,110.469z"/>
					<path fill="#595959" d="M14.825,110.385h-1.147v-0.26h1.147V110.385z"/>
					<path fill="#595959" d="M16.558,111.457h-0.326v-2.604c-0.062,0.063-0.165,0.131-0.307,0.204
						c-0.142,0.073-0.272,0.124-0.389,0.153v-0.348c0.15-0.042,0.312-0.111,0.483-0.207s0.308-0.188,0.408-0.279h0.131V111.457z"/>
					<path fill="#595959" d="M18.869,111.457h-0.326v-2.604c-0.062,0.063-0.165,0.131-0.307,0.204
						c-0.142,0.073-0.272,0.124-0.389,0.153v-0.348c0.15-0.042,0.312-0.111,0.483-0.207s0.308-0.188,0.408-0.279h0.131V111.457z"/>
				</g>
			</g>
		</g>
		<g>
			<g>
				<g>
					<path fill="#595959" d="M24.314,111.457h-0.326v-2.604c-0.062,0.063-0.165,0.131-0.307,0.204
						c-0.142,0.073-0.272,0.124-0.389,0.153v-0.348c0.15-0.042,0.312-0.111,0.483-0.207s0.308-0.188,0.408-0.279h0.131V111.457z"/>
					<path fill="#595959" d="M26.813,109.246c0-0.18-0.053-0.321-0.16-0.424s-0.248-0.154-0.424-0.154
						c-0.126,0-0.251,0.033-0.377,0.098c-0.126,0.065-0.239,0.154-0.34,0.267v-0.352c0.195-0.193,0.448-0.289,0.758-0.289
						c0.258,0,0.466,0.074,0.624,0.223s0.237,0.35,0.237,0.603c0,0.217-0.051,0.407-0.152,0.57s-0.273,0.332-0.516,0.505
						c-0.229,0.161-0.389,0.284-0.479,0.367c-0.089,0.083-0.152,0.162-0.188,0.237c-0.036,0.074-0.054,0.163-0.054,0.265h1.463
						v0.295h-1.809v-0.147c0-0.165,0.023-0.306,0.069-0.423c0.045-0.117,0.122-0.231,0.229-0.342
						c0.107-0.111,0.279-0.249,0.515-0.413c0.216-0.149,0.37-0.291,0.464-0.425C26.766,109.572,26.813,109.418,26.813,109.246z"/>
					<path fill="#595959" d="M28.923,110.385h-1.147v-0.26h1.147V110.385z"/>
					<path fill="#595959" d="M30.656,111.457H30.33v-2.604c-0.062,0.063-0.165,0.131-0.307,0.204
						c-0.142,0.073-0.272,0.124-0.389,0.153v-0.348c0.15-0.042,0.312-0.111,0.483-0.207s0.308-0.188,0.408-0.279h0.131V111.457z"/>
					<path fill="#595959" d="M33.61,108.64c-0.321,0.564-0.572,1.083-0.753,1.559c-0.181,0.475-0.293,0.895-0.337,1.258h-0.354
						c0.033-0.232,0.094-0.489,0.185-0.771c0.09-0.282,0.205-0.58,0.344-0.892c0.14-0.313,0.318-0.665,0.535-1.055h-1.534v-0.297
						h1.916V108.64z"/>
				</g>
			</g>
		</g>
		<g>
			<g>
				<g>
					<path fill="#595959" d="M37.252,111.457h-0.326v-2.604c-0.062,0.063-0.165,0.131-0.307,0.204
						c-0.142,0.073-0.272,0.124-0.389,0.153v-0.348c0.15-0.042,0.312-0.111,0.483-0.207s0.308-0.188,0.408-0.279h0.131V111.457z"/>
					<path fill="#595959" d="M38.299,110.617c0-0.169,0.051-0.329,0.155-0.479c0.103-0.149,0.237-0.255,0.402-0.316
						c-0.13-0.067-0.234-0.159-0.313-0.276c-0.079-0.118-0.119-0.245-0.119-0.383c0-0.143,0.036-0.274,0.108-0.392
						s0.173-0.21,0.303-0.277s0.273-0.101,0.43-0.101c0.243,0,0.444,0.073,0.604,0.218c0.16,0.146,0.239,0.33,0.239,0.552
						c0,0.14-0.04,0.268-0.121,0.384s-0.183,0.208-0.307,0.275c0.164,0.063,0.297,0.169,0.399,0.318
						c0.102,0.148,0.153,0.308,0.153,0.477c0,0.266-0.09,0.481-0.27,0.645c-0.181,0.164-0.413,0.246-0.699,0.246
						c-0.283,0-0.515-0.083-0.695-0.249C38.39,111.093,38.299,110.879,38.299,110.617z M38.631,110.586
						c0,0.197,0.059,0.354,0.178,0.47c0.119,0.117,0.271,0.175,0.458,0.175c0.186,0,0.339-0.061,0.46-0.181
						c0.121-0.12,0.181-0.275,0.181-0.465c0-0.176-0.06-0.325-0.181-0.448c-0.121-0.122-0.274-0.183-0.46-0.183
						c-0.179,0-0.33,0.059-0.453,0.177S38.631,110.401,38.631,110.586z M38.758,109.189c0,0.146,0.05,0.269,0.151,0.367
						s0.221,0.147,0.358,0.147c0.138,0,0.258-0.049,0.359-0.147c0.102-0.098,0.153-0.221,0.153-0.367
						c0-0.15-0.048-0.274-0.146-0.372c-0.097-0.098-0.219-0.146-0.367-0.146c-0.145,0-0.266,0.048-0.363,0.144
						C38.807,108.912,38.758,109.036,38.758,109.189z"/>
					<path fill="#595959" d="M41.861,110.385h-1.147v-0.26h1.147V110.385z"/>
					<path fill="#595959" d="M43.783,109.246c0-0.18-0.053-0.321-0.16-0.424s-0.248-0.154-0.424-0.154
						c-0.126,0-0.251,0.033-0.377,0.098c-0.126,0.065-0.239,0.154-0.34,0.267v-0.352c0.195-0.193,0.448-0.289,0.758-0.289
						c0.258,0,0.466,0.074,0.624,0.223s0.237,0.35,0.237,0.603c0,0.217-0.051,0.407-0.152,0.57s-0.273,0.332-0.516,0.505
						c-0.229,0.161-0.389,0.284-0.479,0.367c-0.089,0.083-0.152,0.162-0.188,0.237c-0.036,0.074-0.054,0.163-0.054,0.265h1.463
						v0.295h-1.809v-0.147c0-0.165,0.023-0.306,0.069-0.423c0.045-0.117,0.122-0.231,0.229-0.342
						c0.107-0.111,0.279-0.249,0.515-0.413c0.216-0.149,0.37-0.291,0.464-0.425C43.736,109.572,43.783,109.418,43.783,109.246z"/>
					<path fill="#595959" d="M46.214,108.441v1.991h0.397v0.295h-0.397v0.729h-0.322v-0.729h-1.417v-0.277
						c0.296-0.333,0.568-0.677,0.816-1.032s0.439-0.681,0.575-0.977H46.214z M44.852,110.432h1.041v-1.487
						c-0.262,0.456-0.536,0.86-0.821,1.212L44.852,110.432z"/>
				</g>
			</g>
		</g>
		<g>
			<g>
				<g>
					<path fill="#595959" d="M50.378,109.246c0-0.18-0.053-0.321-0.16-0.424s-0.248-0.154-0.424-0.154
						c-0.126,0-0.251,0.033-0.377,0.098c-0.126,0.065-0.239,0.154-0.34,0.267v-0.352c0.195-0.193,0.448-0.289,0.758-0.289
						c0.258,0,0.466,0.074,0.624,0.223s0.237,0.35,0.237,0.603c0,0.217-0.051,0.407-0.152,0.57s-0.273,0.332-0.516,0.505
						c-0.229,0.161-0.389,0.284-0.479,0.367c-0.089,0.083-0.152,0.162-0.188,0.237c-0.036,0.074-0.054,0.163-0.054,0.265h1.463
						v0.295h-1.809v-0.147c0-0.165,0.023-0.306,0.069-0.423c0.045-0.117,0.122-0.231,0.229-0.342
						c0.107-0.111,0.279-0.249,0.515-0.413c0.216-0.149,0.37-0.291,0.464-0.425C50.332,109.572,50.378,109.418,50.378,109.246z"/>
					<path fill="#595959" d="M53.052,110.537c0,0.298-0.095,0.534-0.286,0.709c-0.191,0.175-0.446,0.262-0.765,0.262
						c-0.28,0-0.488-0.042-0.625-0.125v-0.353c0.209,0.134,0.418,0.201,0.629,0.201c0.216,0,0.39-0.062,0.521-0.188
						s0.198-0.287,0.198-0.487c0-0.203-0.067-0.361-0.201-0.472c-0.134-0.111-0.327-0.167-0.58-0.167
						c-0.169,0-0.339,0.01-0.51,0.031l0.102-1.507h1.383v0.297h-1.09l-0.065,0.907c0.105-0.009,0.202-0.014,0.289-0.014
						c0.312,0,0.557,0.081,0.734,0.243C52.963,110.036,53.052,110.257,53.052,110.537z"/>
					<path fill="#595959" d="M54.799,110.385h-1.147v-0.26h1.147V110.385z"/>
					<path fill="#595959" d="M55.342,110.985c0.208,0.164,0.439,0.246,0.696,0.246c0.21,0,0.38-0.054,0.509-0.16
						s0.193-0.25,0.193-0.432c0-0.403-0.283-0.604-0.85-0.604h-0.25v-0.277h0.238c0.504,0,0.756-0.188,0.756-0.565
						c0-0.348-0.192-0.522-0.576-0.522c-0.213,0-0.413,0.073-0.6,0.219v-0.326c0.191-0.115,0.418-0.172,0.682-0.172
						c0.24,0,0.438,0.066,0.593,0.199c0.155,0.132,0.232,0.305,0.232,0.518c0,0.395-0.202,0.651-0.604,0.769v0.006
						c0.217,0.019,0.39,0.095,0.52,0.228c0.129,0.132,0.193,0.297,0.193,0.494c0,0.274-0.099,0.494-0.298,0.657
						c-0.199,0.164-0.451,0.246-0.757,0.246c-0.282,0-0.507-0.054-0.678-0.162V110.985z"/>
					<path fill="#595959" d="M59.152,108.441v1.991h0.397v0.295h-0.397v0.729H58.83v-0.729h-1.417v-0.277
						c0.296-0.333,0.568-0.677,0.816-1.032s0.439-0.681,0.575-0.977H59.152z M57.79,110.432h1.041v-1.487
						c-0.262,0.456-0.536,0.86-0.821,1.212L57.79,110.432z"/>
				</g>
			</g>
		</g>
		<g>
			<g>
				<g>
					<path fill="#595959" d="M61.938,110.985c0.208,0.164,0.439,0.246,0.696,0.246c0.21,0,0.38-0.054,0.509-0.16
						s0.193-0.25,0.193-0.432c0-0.403-0.283-0.604-0.85-0.604h-0.25v-0.277h0.238c0.504,0,0.756-0.188,0.756-0.565
						c0-0.348-0.192-0.522-0.576-0.522c-0.213,0-0.413,0.073-0.6,0.219v-0.326c0.191-0.115,0.418-0.172,0.682-0.172
						c0.24,0,0.438,0.066,0.593,0.199c0.155,0.132,0.232,0.305,0.232,0.518c0,0.395-0.202,0.651-0.604,0.769v0.006
						c0.217,0.019,0.39,0.095,0.52,0.228c0.129,0.132,0.193,0.297,0.193,0.494c0,0.274-0.099,0.494-0.298,0.657
						c-0.199,0.164-0.451,0.246-0.757,0.246c-0.282,0-0.507-0.054-0.678-0.162V110.985z"/>
					<path fill="#595959" d="M65.989,110.537c0,0.298-0.095,0.534-0.286,0.709c-0.191,0.175-0.446,0.262-0.765,0.262
						c-0.28,0-0.488-0.042-0.625-0.125v-0.353c0.209,0.134,0.418,0.201,0.629,0.201c0.216,0,0.39-0.062,0.521-0.188
						s0.198-0.287,0.198-0.487c0-0.203-0.067-0.361-0.201-0.472c-0.134-0.111-0.327-0.167-0.58-0.167
						c-0.169,0-0.339,0.01-0.51,0.031l0.102-1.507h1.383v0.297h-1.09l-0.065,0.907c0.105-0.009,0.202-0.014,0.289-0.014
						c0.312,0,0.557,0.081,0.734,0.243C65.901,110.036,65.989,110.257,65.989,110.537z"/>
					<path fill="#595959" d="M67.736,110.385h-1.147v-0.26h1.147V110.385z"/>
					<path fill="#595959" d="M69.779,108.441v1.991h0.397v0.295h-0.397v0.729h-0.322v-0.729H68.04v-0.277
						c0.296-0.333,0.568-0.677,0.816-1.032s0.439-0.681,0.575-0.977H69.779z M68.417,110.432h1.041v-1.487
						c-0.262,0.456-0.536,0.86-0.821,1.212L68.417,110.432z"/>
					<path fill="#595959" d="M72.089,108.441v1.991h0.397v0.295h-0.397v0.729h-0.322v-0.729H70.35v-0.277
						c0.296-0.333,0.568-0.677,0.816-1.032s0.439-0.681,0.575-0.977H72.089z M70.727,110.432h1.041v-1.487
						c-0.262,0.456-0.536,0.86-0.821,1.212L70.727,110.432z"/>
				</g>
			</g>
		</g>
		<g>
			<g>
				<g>
					<path fill="#595959" d="M76.377,108.441v1.991h0.397v0.295h-0.397v0.729h-0.322v-0.729h-1.417v-0.277
						c0.296-0.333,0.568-0.677,0.816-1.032s0.439-0.681,0.575-0.977H76.377z M75.015,110.432h1.041v-1.487
						c-0.262,0.456-0.536,0.86-0.821,1.212L75.015,110.432z"/>
					<path fill="#595959" d="M78.93,110.537c0,0.298-0.095,0.534-0.286,0.709c-0.191,0.175-0.446,0.262-0.765,0.262
						c-0.28,0-0.488-0.042-0.625-0.125v-0.353c0.209,0.134,0.418,0.201,0.629,0.201c0.216,0,0.39-0.062,0.521-0.188
						s0.198-0.287,0.198-0.487c0-0.203-0.067-0.361-0.201-0.472c-0.134-0.111-0.327-0.167-0.58-0.167
						c-0.169,0-0.339,0.01-0.51,0.031l0.102-1.507h1.383v0.297h-1.09l-0.065,0.907c0.105-0.009,0.202-0.014,0.289-0.014
						c0.312,0,0.557,0.081,0.734,0.243C78.841,110.036,78.93,110.257,78.93,110.537z"/>
					<path fill="#595959" d="M80.677,110.385H79.53v-0.26h1.147V110.385z"/>
					<path fill="#595959" d="M82.961,110.537c0,0.298-0.095,0.534-0.286,0.709c-0.191,0.175-0.446,0.262-0.765,0.262
						c-0.28,0-0.488-0.042-0.625-0.125v-0.353c0.209,0.134,0.418,0.201,0.629,0.201c0.216,0,0.39-0.062,0.521-0.188
						s0.198-0.287,0.198-0.487c0-0.203-0.067-0.361-0.201-0.472c-0.134-0.111-0.327-0.167-0.58-0.167
						c-0.169,0-0.339,0.01-0.51,0.031l0.102-1.507h1.383v0.297h-1.09l-0.065,0.907c0.105-0.009,0.202-0.014,0.289-0.014
						c0.312,0,0.557,0.081,0.734,0.243C82.873,110.036,82.961,110.257,82.961,110.537z"/>
					<path fill="#595959" d="M85.03,108.441v1.991h0.397v0.295H85.03v0.729h-0.322v-0.729h-1.417v-0.277
						c0.296-0.333,0.568-0.677,0.816-1.032s0.439-0.681,0.575-0.977H85.03z M83.667,110.432h1.041v-1.487
						c-0.262,0.456-0.536,0.86-0.821,1.212L83.667,110.432z"/>
				</g>
			</g>
		</g>
		<g>
			<g>
				<g>
					<path fill="#595959" d="M89.558,110.537c0,0.298-0.095,0.534-0.286,0.709c-0.191,0.175-0.446,0.262-0.765,0.262
						c-0.28,0-0.488-0.042-0.625-0.125v-0.353c0.209,0.134,0.418,0.201,0.629,0.201c0.216,0,0.39-0.062,0.521-0.188
						s0.198-0.287,0.198-0.487c0-0.203-0.067-0.361-0.201-0.472c-0.134-0.111-0.327-0.167-0.58-0.167
						c-0.169,0-0.339,0.01-0.51,0.031l0.102-1.507h1.383v0.297h-1.09l-0.065,0.907c0.105-0.009,0.202-0.014,0.289-0.014
						c0.312,0,0.557,0.081,0.734,0.243C89.469,110.036,89.558,110.257,89.558,110.537z"/>
					<path fill="#595959" d="M91.868,110.537c0,0.298-0.095,0.534-0.286,0.709c-0.191,0.175-0.446,0.262-0.765,0.262
						c-0.28,0-0.488-0.042-0.625-0.125v-0.353c0.209,0.134,0.418,0.201,0.629,0.201c0.216,0,0.39-0.062,0.521-0.188
						s0.198-0.287,0.198-0.487c0-0.203-0.067-0.361-0.201-0.472c-0.134-0.111-0.327-0.167-0.58-0.167
						c-0.169,0-0.339,0.01-0.51,0.031l0.102-1.507h1.383v0.297h-1.09l-0.065,0.907c0.105-0.009,0.202-0.014,0.289-0.014
						c0.312,0,0.557,0.081,0.734,0.243C91.78,110.036,91.868,110.257,91.868,110.537z"/>
					<path fill="#595959" d="M93.615,110.385h-1.147v-0.26h1.147V110.385z"/>
					<path fill="#595959" d="M95.84,108.79c-0.158-0.079-0.323-0.119-0.494-0.119c-0.278,0-0.497,0.123-0.655,0.368
						c-0.159,0.245-0.237,0.567-0.236,0.968h0.01c0.14-0.288,0.37-0.432,0.69-0.432c0.266,0,0.477,0.086,0.633,0.258
						c0.156,0.172,0.234,0.397,0.234,0.674c0,0.286-0.088,0.524-0.264,0.715c-0.175,0.191-0.401,0.287-0.677,0.287
						c-0.31,0-0.548-0.122-0.714-0.365s-0.249-0.58-0.249-1.01c0-0.508,0.107-0.925,0.322-1.251c0.214-0.327,0.515-0.49,0.901-0.49
						c0.209,0,0.375,0.029,0.498,0.086V108.79z M94.48,110.469c0,0.211,0.057,0.392,0.17,0.54c0.113,0.148,0.261,0.223,0.444,0.223
						c0.176,0,0.319-0.066,0.429-0.198s0.165-0.294,0.165-0.487c0-0.218-0.053-0.389-0.158-0.511
						c-0.105-0.123-0.252-0.184-0.44-0.184c-0.172,0-0.317,0.06-0.435,0.179C94.539,110.151,94.48,110.297,94.48,110.469z"/>
					<path fill="#595959" d="M97.968,108.441v1.991h0.397v0.295h-0.397v0.729h-0.322v-0.729h-1.417v-0.277
						c0.296-0.333,0.568-0.677,0.816-1.032s0.439-0.681,0.575-0.977H97.968z M96.606,110.432h1.041v-1.487
						c-0.262,0.456-0.536,0.86-0.821,1.212L96.606,110.432z"/>
				</g>
			</g>
		</g>
		<g>
			<g>
				<g>
					<path fill="#595959" d="M102.438,108.79c-0.158-0.079-0.323-0.119-0.494-0.119c-0.278,0-0.497,0.123-0.655,0.368
						c-0.159,0.245-0.237,0.567-0.236,0.968h0.01c0.14-0.288,0.37-0.432,0.69-0.432c0.266,0,0.477,0.086,0.633,0.258
						c0.156,0.172,0.234,0.397,0.234,0.674c0,0.286-0.088,0.524-0.264,0.715c-0.175,0.191-0.401,0.287-0.677,0.287
						c-0.31,0-0.548-0.122-0.714-0.365s-0.249-0.58-0.249-1.01c0-0.508,0.107-0.925,0.322-1.251c0.214-0.327,0.515-0.49,0.901-0.49
						c0.209,0,0.375,0.029,0.498,0.086V108.79z M101.079,110.469c0,0.211,0.057,0.392,0.17,0.54
						c0.113,0.148,0.261,0.223,0.444,0.223c0.176,0,0.319-0.066,0.429-0.198s0.165-0.294,0.165-0.487
						c0-0.218-0.053-0.389-0.158-0.511c-0.105-0.123-0.252-0.184-0.44-0.184c-0.172,0-0.317,0.06-0.435,0.179
						C101.137,110.151,101.079,110.297,101.079,110.469z"/>
					<path fill="#595959" d="M104.809,110.537c0,0.298-0.095,0.534-0.286,0.709c-0.191,0.175-0.446,0.262-0.765,0.262
						c-0.28,0-0.488-0.042-0.625-0.125v-0.353c0.209,0.134,0.418,0.201,0.629,0.201c0.216,0,0.39-0.062,0.521-0.188
						s0.198-0.287,0.198-0.487c0-0.203-0.067-0.361-0.201-0.472c-0.134-0.111-0.327-0.167-0.58-0.167
						c-0.169,0-0.339,0.01-0.51,0.031l0.102-1.507h1.383v0.297h-1.09l-0.065,0.907c0.105-0.009,0.202-0.014,0.289-0.014
						c0.312,0,0.557,0.081,0.734,0.243C104.72,110.036,104.809,110.257,104.809,110.537z"/>
					<path fill="#595959" d="M106.556,110.385h-1.147v-0.26h1.147V110.385z"/>
					<path fill="#595959" d="M108.932,108.64c-0.321,0.564-0.572,1.083-0.753,1.559c-0.181,0.475-0.293,0.895-0.337,1.258h-0.354
						c0.033-0.232,0.094-0.489,0.185-0.771c0.09-0.282,0.205-0.58,0.344-0.892c0.14-0.313,0.318-0.665,0.535-1.055h-1.534v-0.297
						h1.916V108.64z"/>
					<path fill="#595959" d="M110.909,108.441v1.991h0.397v0.295h-0.397v0.729h-0.322v-0.729h-1.417v-0.277
						c0.296-0.333,0.568-0.677,0.816-1.032s0.439-0.681,0.575-0.977H110.909z M109.546,110.432h1.041v-1.487
						c-0.262,0.456-0.536,0.86-0.821,1.212L109.546,110.432z"/>
				</g>
			</g>
		</g>
		<g>
			<g>
				<g>
					<path fill="#595959" d="M117.227,108.64c-0.321,0.564-0.572,1.083-0.753,1.559c-0.181,0.475-0.293,0.895-0.337,1.258h-0.354
						c0.033-0.232,0.094-0.489,0.185-0.771c0.09-0.282,0.205-0.58,0.344-0.892c0.14-0.313,0.318-0.665,0.535-1.055h-1.534v-0.297
						h1.916V108.64z"/>
					<path fill="#595959" d="M119.445,110.537c0,0.298-0.095,0.534-0.286,0.709c-0.191,0.175-0.446,0.262-0.765,0.262
						c-0.28,0-0.488-0.042-0.625-0.125v-0.353c0.209,0.134,0.418,0.201,0.629,0.201c0.216,0,0.39-0.062,0.521-0.188
						s0.198-0.287,0.198-0.487c0-0.203-0.067-0.361-0.201-0.472c-0.134-0.111-0.327-0.167-0.58-0.167
						c-0.169,0-0.339,0.01-0.51,0.031l0.102-1.507h1.383v0.297h-1.09l-0.065,0.907c0.105-0.009,0.202-0.014,0.289-0.014
						c0.312,0,0.557,0.081,0.734,0.243C119.357,110.036,119.445,110.257,119.445,110.537z"/>
					<path fill="#595959" d="M122.2,110.338h-0.852v0.848h-0.269v-0.848h-0.85v-0.272h0.85v-0.848h0.269v0.848h0.852V110.338z"/>
				</g>
			</g>
		</g>
	</g>
	<g>
		<g>
			<path fill="none" stroke="#D9D9D9" stroke-width="0.2602" stroke-linejoin="round" stroke-miterlimit="10" d="M268.243,86.729
				 M151.789,85.652 M268.243,70.333 M151.789,69.257 M268.243,53.937 M151.789,52.861 M268.243,37.501 M151.789,36.425
				 M268.243,21.106 M151.789,20.029 M268.243,4.71"/>
		</g>
		<g>
			<path fill="none" stroke="#D9D9D9" stroke-width="0.2602" stroke-linejoin="round" stroke-miterlimit="10" d="M152.148,102.05
				 M173.674,102.05 M195.201,102.05 M216.727,102.05 M238.206,102.05 M259.733,102.05 M268.243,4.71v98.415"/>
		</g>
		<g>
			
				<line fill="none" stroke="#C0BFBF" stroke-width="0.2602" stroke-linejoin="round" stroke-miterlimit="10" x1="268.243" y1="103.125" x2="268.243" y2="4.71"/>
		</g>
		<g>
			<g>
				<g>
					<path fill="#E60013" d="M272.001,102.956c0-0.452,0.074-0.794,0.222-1.026c0.146-0.232,0.359-0.348,0.636-0.348
						c0.532,0,0.799,0.437,0.799,1.311c0,0.432-0.074,0.762-0.222,0.991c-0.148,0.229-0.359,0.343-0.634,0.343
						c-0.26,0-0.458-0.111-0.595-0.333S272.001,103.36,272.001,102.956z M272.283,102.942c0,0.7,0.183,1.05,0.548,1.05
						c0.363,0,0.544-0.355,0.544-1.066c0-0.739-0.177-1.108-0.53-1.108C272.471,101.819,272.283,102.193,272.283,102.942z"/>
				</g>
			</g>
		</g>
		<g>
			<g>
				<g>
					<path fill="#E60013" d="M273.557,92.465c0,0.252-0.081,0.453-0.243,0.602c-0.161,0.148-0.378,0.223-0.649,0.223
						c-0.237,0-0.414-0.035-0.53-0.106v-0.299c0.177,0.114,0.355,0.17,0.534,0.17c0.183,0,0.33-0.053,0.442-0.159
						c0.111-0.106,0.168-0.244,0.168-0.413c0-0.172-0.058-0.306-0.171-0.401c-0.113-0.094-0.277-0.142-0.492-0.142
						c-0.144,0-0.288,0.009-0.433,0.026l0.087-1.28h1.174v0.252h-0.926l-0.056,0.77c0.09-0.008,0.172-0.012,0.246-0.012
						c0.265,0,0.473,0.069,0.623,0.207C273.481,92.04,273.557,92.227,273.557,92.465z"/>
				</g>
			</g>
		</g>
		<g>
			<g>
				<g>
					<path fill="#E60013" d="M273.089,82.309h-0.277v-2.21c-0.053,0.053-0.14,0.111-0.261,0.173c-0.12,0.062-0.23,0.105-0.33,0.13
						v-0.296c0.127-0.036,0.265-0.094,0.41-0.175c0.146-0.082,0.262-0.16,0.347-0.237h0.111V82.309z"/>
					<path fill="#E60013" d="M273.948,81.081c0-0.452,0.074-0.794,0.222-1.026c0.146-0.232,0.359-0.348,0.636-0.348
						c0.532,0,0.799,0.437,0.799,1.311c0,0.432-0.074,0.762-0.222,0.991c-0.148,0.229-0.359,0.343-0.634,0.343
						c-0.26,0-0.458-0.111-0.595-0.333S273.948,81.485,273.948,81.081z M274.23,81.067c0,0.7,0.183,1.05,0.548,1.05
						c0.363,0,0.544-0.355,0.544-1.066c0-0.739-0.177-1.108-0.53-1.108C274.418,79.944,274.23,80.318,274.23,81.067z"/>
				</g>
			</g>
		</g>
		<g>
			<g>
				<g>
					<path fill="#E60013" d="M273.089,71.373h-0.277v-2.21c-0.053,0.053-0.14,0.111-0.261,0.173c-0.12,0.062-0.23,0.105-0.33,0.13
						v-0.296c0.127-0.036,0.265-0.094,0.41-0.175c0.146-0.082,0.262-0.16,0.347-0.237h0.111V71.373z"/>
					<path fill="#E60013" d="M275.504,70.592c0,0.252-0.081,0.453-0.243,0.602c-0.161,0.148-0.378,0.223-0.649,0.223
						c-0.237,0-0.414-0.035-0.53-0.106v-0.299c0.177,0.114,0.355,0.17,0.534,0.17c0.183,0,0.33-0.053,0.442-0.159
						c0.111-0.106,0.168-0.244,0.168-0.413c0-0.172-0.058-0.306-0.171-0.401c-0.113-0.094-0.277-0.142-0.492-0.142
						c-0.144,0-0.288,0.009-0.433,0.026l0.087-1.28h1.174v0.252h-0.926l-0.056,0.77c0.09-0.008,0.172-0.012,0.246-0.012
						c0.265,0,0.473,0.069,0.623,0.207C275.429,70.167,275.504,70.354,275.504,70.592z"/>
				</g>
			</g>
		</g>
		<g>
			<g>
				<g>
					<path fill="#E60013" d="M273.248,58.556c0-0.153-0.045-0.273-0.136-0.36c-0.09-0.087-0.21-0.131-0.359-0.131
						c-0.106,0-0.214,0.028-0.32,0.083c-0.106,0.055-0.203,0.13-0.288,0.227v-0.299c0.165-0.164,0.38-0.245,0.643-0.245
						c0.22,0,0.396,0.063,0.53,0.189s0.2,0.297,0.2,0.511c0,0.185-0.043,0.346-0.128,0.484c-0.086,0.139-0.232,0.281-0.438,0.429
						c-0.195,0.137-0.33,0.241-0.406,0.311c-0.076,0.071-0.129,0.138-0.16,0.201c-0.03,0.063-0.046,0.138-0.046,0.225h1.242v0.25
						h-1.536v-0.125c0-0.141,0.02-0.26,0.059-0.359c0.038-0.099,0.104-0.196,0.194-0.291c0.091-0.094,0.237-0.211,0.438-0.35
						c0.184-0.126,0.314-0.247,0.394-0.361C273.209,58.832,273.248,58.702,273.248,58.556z"/>
					<path fill="#E60013" d="M273.948,59.204c0-0.452,0.074-0.794,0.222-1.026c0.146-0.232,0.359-0.348,0.636-0.348
						c0.532,0,0.799,0.437,0.799,1.311c0,0.432-0.074,0.762-0.222,0.991c-0.148,0.229-0.359,0.343-0.634,0.343
						c-0.26,0-0.458-0.111-0.595-0.333S273.948,59.608,273.948,59.204z M274.23,59.19c0,0.7,0.183,1.05,0.548,1.05
						c0.363,0,0.544-0.355,0.544-1.066c0-0.739-0.177-1.108-0.53-1.108C274.418,58.067,274.23,58.441,274.23,59.19z"/>
				</g>
			</g>
		</g>
		<g>
			<g>
				<g>
					<path fill="#E60013" d="M273.248,47.619c0-0.153-0.045-0.273-0.136-0.36c-0.09-0.087-0.21-0.131-0.359-0.131
						c-0.106,0-0.214,0.028-0.32,0.083c-0.106,0.055-0.203,0.13-0.288,0.227v-0.299c0.165-0.164,0.38-0.245,0.643-0.245
						c0.22,0,0.396,0.063,0.53,0.189s0.2,0.297,0.2,0.511c0,0.185-0.043,0.346-0.128,0.484c-0.086,0.139-0.232,0.281-0.438,0.429
						c-0.195,0.137-0.33,0.241-0.406,0.311c-0.076,0.071-0.129,0.138-0.16,0.201c-0.03,0.063-0.046,0.138-0.046,0.225h1.242v0.25
						h-1.536v-0.125c0-0.141,0.02-0.26,0.059-0.359c0.038-0.099,0.104-0.196,0.194-0.291c0.091-0.094,0.237-0.211,0.438-0.35
						c0.184-0.126,0.314-0.247,0.394-0.361C273.209,47.896,273.248,47.765,273.248,47.619z"/>
					<path fill="#E60013" d="M275.504,48.715c0,0.252-0.081,0.453-0.243,0.602c-0.161,0.148-0.378,0.223-0.649,0.223
						c-0.237,0-0.414-0.035-0.53-0.106v-0.299c0.177,0.114,0.355,0.17,0.534,0.17c0.183,0,0.33-0.053,0.442-0.159
						c0.111-0.106,0.168-0.244,0.168-0.413c0-0.172-0.058-0.306-0.171-0.401c-0.113-0.094-0.277-0.142-0.492-0.142
						c-0.144,0-0.288,0.009-0.433,0.026l0.087-1.28h1.174v0.252h-0.926l-0.056,0.77c0.09-0.008,0.172-0.012,0.246-0.012
						c0.265,0,0.473,0.069,0.623,0.207C275.429,48.29,275.504,48.477,275.504,48.715z"/>
				</g>
			</g>
		</g>
		<g>
			<g>
				<g>
					<path fill="#E60013" d="M272.078,38.16c0.176,0.139,0.373,0.208,0.591,0.208c0.179,0,0.323-0.045,0.433-0.136
						c0.109-0.09,0.164-0.212,0.164-0.367c0-0.342-0.24-0.513-0.722-0.513h-0.212v-0.235h0.201c0.429,0,0.643-0.16,0.643-0.48
						c0-0.295-0.163-0.443-0.489-0.443c-0.181,0-0.351,0.062-0.51,0.186v-0.276c0.163-0.098,0.355-0.146,0.579-0.146
						c0.204,0,0.372,0.056,0.504,0.168s0.197,0.259,0.197,0.44c0,0.335-0.171,0.553-0.513,0.652v0.005
						c0.184,0.016,0.331,0.081,0.44,0.193s0.164,0.252,0.164,0.419c0,0.233-0.084,0.419-0.253,0.559
						c-0.168,0.139-0.383,0.208-0.643,0.208c-0.238,0-0.431-0.046-0.575-0.137V38.16z"/>
					<path fill="#E60013" d="M273.948,37.332c0-0.452,0.074-0.794,0.222-1.026c0.146-0.232,0.359-0.348,0.636-0.348
						c0.532,0,0.799,0.437,0.799,1.311c0,0.432-0.074,0.762-0.222,0.991c-0.148,0.229-0.359,0.343-0.634,0.343
						c-0.26,0-0.458-0.111-0.595-0.333S273.948,37.736,273.948,37.332z M274.23,37.318c0,0.7,0.183,1.05,0.548,1.05
						c0.363,0,0.544-0.355,0.544-1.066c0-0.739-0.177-1.108-0.53-1.108C274.418,36.195,274.23,36.569,274.23,37.318z"/>
				</g>
			</g>
		</g>
		<g>
			<g>
				<g>
					<path fill="#E60013" d="M272.078,27.223c0.176,0.139,0.373,0.208,0.591,0.208c0.179,0,0.323-0.045,0.433-0.136
						c0.109-0.09,0.164-0.212,0.164-0.367c0-0.342-0.24-0.513-0.722-0.513h-0.212v-0.235h0.201c0.429,0,0.643-0.16,0.643-0.48
						c0-0.295-0.163-0.443-0.489-0.443c-0.181,0-0.351,0.062-0.51,0.186v-0.276c0.163-0.098,0.355-0.146,0.579-0.146
						c0.204,0,0.372,0.056,0.504,0.168s0.197,0.259,0.197,0.44c0,0.335-0.171,0.553-0.513,0.652v0.005
						c0.184,0.016,0.331,0.081,0.44,0.193s0.164,0.252,0.164,0.419c0,0.233-0.084,0.419-0.253,0.559
						c-0.168,0.139-0.383,0.208-0.643,0.208c-0.238,0-0.431-0.046-0.575-0.137V27.223z"/>
					<path fill="#E60013" d="M275.504,26.842c0,0.252-0.081,0.453-0.243,0.602c-0.161,0.148-0.378,0.223-0.649,0.223
						c-0.237,0-0.414-0.035-0.53-0.106v-0.299c0.177,0.114,0.355,0.17,0.534,0.17c0.183,0,0.33-0.053,0.442-0.159
						c0.111-0.106,0.168-0.244,0.168-0.413c0-0.172-0.058-0.306-0.171-0.401c-0.113-0.094-0.277-0.142-0.492-0.142
						c-0.144,0-0.288,0.009-0.433,0.026l0.087-1.28h1.174v0.252h-0.926l-0.056,0.77c0.09-0.008,0.172-0.012,0.246-0.012
						c0.265,0,0.473,0.069,0.623,0.207C275.429,26.417,275.504,26.604,275.504,26.842z"/>
				</g>
			</g>
		</g>
		<g>
			<g>
				<g>
					<path fill="#E60013" d="M273.351,14.126v1.69h0.338v0.25h-0.338v0.619h-0.272v-0.619h-1.204v-0.235
						c0.252-0.283,0.483-0.575,0.693-0.876c0.211-0.301,0.373-0.578,0.488-0.83H273.351z M272.194,15.816h0.884v-1.263
						c-0.223,0.387-0.455,0.73-0.697,1.03L272.194,15.816z"/>
					<path fill="#E60013" d="M273.948,15.458c0-0.452,0.074-0.794,0.222-1.026c0.146-0.232,0.359-0.348,0.636-0.348
						c0.532,0,0.799,0.437,0.799,1.311c0,0.432-0.074,0.762-0.222,0.991c-0.148,0.229-0.359,0.343-0.634,0.343
						c-0.26,0-0.458-0.111-0.595-0.333S273.948,15.862,273.948,15.458z M274.23,15.444c0,0.7,0.183,1.05,0.548,1.05
						c0.363,0,0.544-0.355,0.544-1.066c0-0.739-0.177-1.108-0.53-1.108C274.418,14.321,274.23,14.695,274.23,15.444z"/>
				</g>
			</g>
		</g>
		<g>
			<g>
				<g>
					<path fill="#E60013" d="M273.351,3.188v1.69h0.338v0.25h-0.338v0.619h-0.272V5.128h-1.204V4.894
						c0.252-0.283,0.483-0.575,0.693-0.876c0.211-0.301,0.373-0.578,0.488-0.83H273.351z M272.194,4.878h0.884V3.615
						c-0.223,0.387-0.455,0.73-0.697,1.03L272.194,4.878z"/>
					<path fill="#E60013" d="M275.504,4.967c0,0.252-0.081,0.453-0.243,0.602c-0.161,0.148-0.378,0.223-0.649,0.223
						c-0.237,0-0.414-0.035-0.53-0.106V5.386c0.177,0.114,0.355,0.17,0.534,0.17c0.183,0,0.33-0.053,0.442-0.159
						c0.111-0.106,0.168-0.244,0.168-0.413c0-0.172-0.058-0.306-0.171-0.401c-0.113-0.094-0.277-0.142-0.492-0.142
						c-0.144,0-0.288,0.009-0.433,0.026l0.087-1.28h1.174V3.44h-0.926l-0.056,0.77c0.09-0.008,0.172-0.012,0.246-0.012
						c0.265,0,0.473,0.069,0.623,0.207C275.429,4.542,275.504,4.729,275.504,4.967z"/>
				</g>
			</g>
		</g>
		<g>
			<g>
				<g>
					<path fill="#595959" d="M146.422,101.88c0-0.452,0.074-0.794,0.222-1.026c0.146-0.232,0.359-0.348,0.636-0.348
						c0.532,0,0.799,0.437,0.799,1.311c0,0.432-0.074,0.762-0.222,0.991c-0.148,0.229-0.359,0.343-0.634,0.343
						c-0.26,0-0.458-0.111-0.595-0.333S146.422,102.284,146.422,101.88z M146.704,101.866c0,0.7,0.183,1.05,0.548,1.05
						c0.363,0,0.544-0.355,0.544-1.066c0-0.739-0.177-1.108-0.53-1.108C146.892,100.743,146.704,101.117,146.704,101.866z"/>
				</g>
			</g>
		</g>
		<g>
			<g>
				<g>
					<path fill="#595959" d="M145.737,84.824c0-0.153-0.045-0.273-0.136-0.36c-0.09-0.087-0.21-0.131-0.359-0.131
						c-0.106,0-0.214,0.028-0.32,0.083c-0.106,0.055-0.203,0.13-0.288,0.227v-0.299c0.165-0.164,0.38-0.245,0.643-0.245
						c0.22,0,0.396,0.063,0.53,0.189s0.2,0.297,0.2,0.511c0,0.185-0.043,0.346-0.128,0.484c-0.086,0.139-0.232,0.281-0.438,0.429
						c-0.195,0.137-0.33,0.241-0.406,0.311c-0.076,0.071-0.129,0.138-0.16,0.201c-0.03,0.063-0.046,0.138-0.046,0.225h1.242v0.25
						h-1.536v-0.125c0-0.141,0.02-0.26,0.059-0.359c0.038-0.099,0.104-0.196,0.194-0.291c0.091-0.094,0.237-0.211,0.438-0.35
						c0.184-0.126,0.314-0.247,0.394-0.361C145.698,85.101,145.737,84.97,145.737,84.824z"/>
					<path fill="#595959" d="M146.438,85.473c0-0.452,0.074-0.794,0.222-1.026c0.146-0.232,0.359-0.348,0.636-0.348
						c0.532,0,0.799,0.437,0.799,1.311c0,0.432-0.074,0.762-0.222,0.991c-0.148,0.229-0.359,0.343-0.634,0.343
						c-0.26,0-0.458-0.111-0.595-0.333S146.438,85.876,146.438,85.473z M146.72,85.459c0,0.7,0.183,1.05,0.548,1.05
						c0.363,0,0.544-0.355,0.544-1.066c0-0.739-0.177-1.108-0.53-1.108C146.907,84.335,146.72,84.71,146.72,85.459z"/>
				</g>
			</g>
		</g>
		<g>
			<g>
				<g>
					<path fill="#595959" d="M145.84,67.737v1.69h0.338v0.25h-0.338v0.619h-0.272v-0.619h-1.204v-0.235
						c0.252-0.283,0.483-0.575,0.693-0.876c0.211-0.301,0.373-0.578,0.488-0.83H145.84z M144.684,69.428h0.884v-1.263
						c-0.223,0.387-0.455,0.73-0.697,1.03L144.684,69.428z"/>
					<path fill="#595959" d="M146.438,69.069c0-0.452,0.074-0.794,0.222-1.026c0.146-0.232,0.359-0.348,0.636-0.348
						c0.532,0,0.799,0.437,0.799,1.311c0,0.432-0.074,0.762-0.222,0.991c-0.148,0.229-0.359,0.343-0.634,0.343
						c-0.26,0-0.458-0.111-0.595-0.333S146.438,69.473,146.438,69.069z M146.72,69.056c0,0.7,0.183,1.05,0.548,1.05
						c0.363,0,0.544-0.355,0.544-1.066c0-0.739-0.177-1.108-0.53-1.108C146.907,67.932,146.72,68.307,146.72,69.056z"/>
				</g>
			</g>
		</g>
		<g>
			<g>
				<g>
					<path fill="#595959" d="M145.995,51.624c-0.135-0.067-0.274-0.101-0.419-0.101c-0.236,0-0.422,0.104-0.557,0.312
						c-0.135,0.208-0.201,0.482-0.2,0.822h0.009c0.118-0.245,0.313-0.367,0.586-0.367c0.227,0,0.405,0.073,0.537,0.219
						c0.133,0.146,0.198,0.336,0.198,0.572c0,0.243-0.074,0.445-0.223,0.607c-0.149,0.163-0.341,0.244-0.575,0.244
						c-0.263,0-0.465-0.103-0.606-0.31c-0.141-0.207-0.211-0.492-0.211-0.857c0-0.431,0.091-0.786,0.273-1.062
						c0.182-0.277,0.437-0.416,0.765-0.416c0.178,0,0.318,0.024,0.423,0.073V51.624z M144.84,53.05c0,0.18,0.049,0.333,0.145,0.458
						c0.097,0.125,0.223,0.188,0.378,0.188c0.149,0,0.271-0.056,0.364-0.167c0.093-0.112,0.14-0.25,0.14-0.413
						c0-0.186-0.045-0.331-0.134-0.434c-0.089-0.104-0.214-0.156-0.374-0.156c-0.146,0-0.269,0.051-0.368,0.152
						C144.89,52.78,144.84,52.904,144.84,53.05z"/>
					<path fill="#595959" d="M146.438,52.66c0-0.452,0.074-0.794,0.222-1.026c0.146-0.232,0.359-0.348,0.636-0.348
						c0.532,0,0.799,0.437,0.799,1.311c0,0.432-0.074,0.762-0.222,0.991c-0.148,0.229-0.359,0.343-0.634,0.343
						c-0.26,0-0.458-0.111-0.595-0.333S146.438,53.064,146.438,52.66z M146.72,52.646c0,0.7,0.183,1.05,0.548,1.05
						c0.363,0,0.544-0.355,0.544-1.066c0-0.739-0.177-1.108-0.53-1.108C146.907,51.523,146.72,51.897,146.72,52.646z"/>
				</g>
			</g>
		</g>
		<g>
			<g>
				<g>
					<path fill="#595959" d="M144.505,36.771c0-0.144,0.044-0.279,0.131-0.406c0.088-0.127,0.201-0.216,0.342-0.269
						c-0.11-0.057-0.198-0.135-0.266-0.235s-0.102-0.208-0.102-0.325c0-0.122,0.031-0.233,0.093-0.333
						c0.062-0.101,0.147-0.179,0.257-0.236c0.11-0.057,0.232-0.085,0.365-0.085c0.207,0,0.378,0.062,0.514,0.185
						s0.203,0.28,0.203,0.469c0,0.118-0.034,0.227-0.103,0.326s-0.155,0.177-0.261,0.234c0.139,0.053,0.252,0.143,0.339,0.27
						s0.131,0.261,0.131,0.405c0,0.226-0.077,0.409-0.229,0.548c-0.153,0.139-0.352,0.208-0.594,0.208
						c-0.239,0-0.437-0.07-0.59-0.211C144.581,37.175,144.505,36.994,144.505,36.771z M144.786,36.745
						c0,0.167,0.051,0.3,0.151,0.399s0.23,0.148,0.39,0.148c0.158,0,0.288-0.051,0.391-0.153s0.154-0.234,0.154-0.395
						c0-0.149-0.052-0.276-0.154-0.38c-0.103-0.104-0.232-0.156-0.391-0.156c-0.151,0-0.28,0.05-0.384,0.15
						C144.839,36.46,144.786,36.588,144.786,36.745z M144.895,35.559c0,0.124,0.043,0.228,0.128,0.312
						c0.086,0.083,0.188,0.125,0.305,0.125s0.219-0.042,0.306-0.125c0.086-0.083,0.129-0.188,0.129-0.312
						c0-0.127-0.041-0.232-0.123-0.315s-0.187-0.125-0.312-0.125c-0.123,0-0.226,0.041-0.309,0.123
						C144.936,35.323,144.895,35.429,144.895,35.559z"/>
					<path fill="#595959" d="M146.438,36.256c0-0.452,0.074-0.794,0.222-1.026c0.146-0.232,0.359-0.348,0.636-0.348
						c0.532,0,0.799,0.437,0.799,1.311c0,0.432-0.074,0.762-0.222,0.991c-0.148,0.229-0.359,0.343-0.634,0.343
						c-0.26,0-0.458-0.111-0.595-0.333S146.438,36.66,146.438,36.256z M146.72,36.242c0,0.7,0.183,1.05,0.548,1.05
						c0.363,0,0.544-0.355,0.544-1.066c0-0.739-0.177-1.108-0.53-1.108C146.907,35.119,146.72,35.493,146.72,36.242z"/>
				</g>
			</g>
		</g>
		<g>
			<g>
				<g>
					<path fill="#595959" d="M143.644,21.078h-0.277v-2.21c-0.053,0.053-0.14,0.111-0.261,0.173c-0.12,0.062-0.23,0.105-0.33,0.13
						v-0.296c0.127-0.036,0.265-0.094,0.41-0.175c0.146-0.082,0.262-0.16,0.347-0.237h0.111V21.078z"/>
					<path fill="#595959" d="M144.503,19.85c0-0.452,0.074-0.794,0.222-1.026c0.146-0.232,0.359-0.348,0.636-0.348
						c0.532,0,0.799,0.437,0.799,1.311c0,0.432-0.074,0.762-0.222,0.991c-0.148,0.229-0.359,0.343-0.634,0.343
						c-0.26,0-0.458-0.111-0.595-0.333S144.503,20.253,144.503,19.85z M144.785,19.836c0,0.7,0.183,1.05,0.548,1.05
						c0.363,0,0.544-0.355,0.544-1.066c0-0.739-0.177-1.108-0.53-1.108C144.973,18.712,144.785,19.087,144.785,19.836z"/>
					<path fill="#595959" d="M146.497,19.85c0-0.452,0.074-0.794,0.222-1.026c0.146-0.232,0.359-0.348,0.636-0.348
						c0.532,0,0.799,0.437,0.799,1.311c0,0.432-0.074,0.762-0.222,0.991c-0.148,0.229-0.359,0.343-0.634,0.343
						c-0.26,0-0.458-0.111-0.595-0.333S146.497,20.253,146.497,19.85z M146.779,19.836c0,0.7,0.183,1.05,0.548,1.05
						c0.363,0,0.544-0.355,0.544-1.066c0-0.739-0.177-1.108-0.53-1.108C146.967,18.712,146.779,19.087,146.779,19.836z"/>
				</g>
			</g>
		</g>
		<g>
			<g>
				<g>
					<path fill="#595959" d="M143.644,4.671h-0.277v-2.21c-0.053,0.053-0.14,0.111-0.261,0.173c-0.12,0.062-0.23,0.105-0.33,0.13
						V2.468c0.127-0.036,0.265-0.094,0.41-0.175c0.146-0.082,0.262-0.16,0.347-0.237h0.111V4.671z"/>
					<path fill="#595959" d="M145.75,2.795c0-0.153-0.045-0.273-0.136-0.36c-0.09-0.087-0.21-0.131-0.359-0.131
						c-0.106,0-0.214,0.028-0.32,0.083c-0.106,0.055-0.203,0.13-0.288,0.227V2.315c0.165-0.164,0.38-0.245,0.643-0.245
						c0.22,0,0.396,0.063,0.53,0.189s0.2,0.297,0.2,0.511c0,0.185-0.043,0.346-0.128,0.484c-0.086,0.139-0.232,0.281-0.438,0.429
						c-0.195,0.137-0.33,0.241-0.406,0.311c-0.076,0.071-0.129,0.138-0.16,0.201c-0.03,0.063-0.046,0.138-0.046,0.225h1.242v0.25
						h-1.536V4.546c0-0.141,0.02-0.26,0.059-0.359c0.038-0.099,0.104-0.196,0.194-0.291c0.091-0.094,0.237-0.211,0.438-0.35
						c0.184-0.126,0.314-0.247,0.394-0.361C145.711,3.071,145.75,2.941,145.75,2.795z"/>
					<path fill="#595959" d="M146.497,3.443c0-0.452,0.074-0.794,0.222-1.026c0.146-0.232,0.359-0.348,0.636-0.348
						c0.532,0,0.799,0.437,0.799,1.311c0,0.432-0.074,0.762-0.222,0.991c-0.148,0.229-0.359,0.343-0.634,0.343
						c-0.26,0-0.458-0.111-0.595-0.333S146.497,3.847,146.497,3.443z M146.779,3.43c0,0.7,0.183,1.05,0.548,1.05
						c0.363,0,0.544-0.355,0.544-1.066c0-0.739-0.177-1.108-0.53-1.108C146.967,2.306,146.779,2.681,146.779,3.43z"/>
				</g>
			</g>
		</g>
		<g>
			<g>
				<g>
					<path fill="#595959" d="M149.533,107.546h-0.277v-2.21c-0.053,0.053-0.14,0.111-0.261,0.173c-0.12,0.062-0.23,0.105-0.33,0.13
						v-0.296c0.127-0.036,0.265-0.094,0.41-0.175c0.146-0.082,0.262-0.16,0.347-0.237h0.111V107.546z"/>
					<path fill="#595959" d="M150.548,107.233c0.143,0.081,0.293,0.122,0.45,0.122c0.233,0,0.415-0.095,0.546-0.284
						c0.132-0.189,0.197-0.46,0.197-0.812c-0.003,0.002-0.005,0.002-0.007,0c-0.111,0.223-0.304,0.334-0.576,0.334
						c-0.221,0-0.4-0.076-0.54-0.227s-0.209-0.341-0.209-0.569c0-0.246,0.074-0.449,0.225-0.61s0.347-0.242,0.591-0.242
						c0.257,0,0.454,0.101,0.59,0.302c0.137,0.202,0.205,0.49,0.205,0.865c0,0.467-0.09,0.83-0.27,1.089
						c-0.179,0.259-0.434,0.389-0.764,0.389c-0.172,0-0.318-0.029-0.438-0.087V107.233z M150.69,105.755
						c0,0.178,0.046,0.32,0.139,0.428c0.093,0.107,0.223,0.162,0.389,0.162c0.144,0,0.264-0.048,0.359-0.144
						c0.097-0.096,0.145-0.212,0.145-0.351c0-0.189-0.047-0.348-0.142-0.477c-0.095-0.128-0.222-0.193-0.382-0.193
						c-0.149,0-0.271,0.056-0.366,0.168S150.69,105.596,150.69,105.755z"/>
					<path fill="#595959" d="M154.021,105.155c-0.272,0.479-0.485,0.92-0.64,1.323c-0.153,0.403-0.249,0.759-0.286,1.068h-0.301
						c0.028-0.197,0.08-0.416,0.156-0.655c0.077-0.239,0.175-0.492,0.293-0.757s0.27-0.564,0.453-0.896h-1.302v-0.252h1.626V105.155
						z"/>
					<path fill="#595959" d="M154.334,106.318c0-0.452,0.074-0.794,0.222-1.026c0.146-0.232,0.359-0.348,0.636-0.348
						c0.532,0,0.799,0.437,0.799,1.311c0,0.432-0.074,0.762-0.222,0.991c-0.148,0.229-0.359,0.343-0.634,0.343
						c-0.26,0-0.458-0.111-0.595-0.333S154.334,106.722,154.334,106.318z M154.616,106.305c0,0.7,0.183,1.05,0.548,1.05
						c0.363,0,0.544-0.355,0.544-1.066c0-0.739-0.177-1.108-0.53-1.108C154.804,105.181,154.616,105.556,154.616,106.305z"/>
				</g>
			</g>
		</g>
		<g>
			<g>
				<g>
					<path fill="#595959" d="M171.049,107.546h-0.277v-2.21c-0.053,0.053-0.14,0.111-0.261,0.173c-0.12,0.062-0.23,0.105-0.33,0.13
						v-0.296c0.127-0.036,0.265-0.094,0.41-0.175c0.146-0.082,0.262-0.16,0.347-0.237h0.111V107.546z"/>
					<path fill="#595959" d="M172.063,107.233c0.143,0.081,0.293,0.122,0.45,0.122c0.233,0,0.415-0.095,0.546-0.284
						c0.132-0.189,0.197-0.46,0.197-0.812c-0.003,0.002-0.005,0.002-0.007,0c-0.111,0.223-0.304,0.334-0.576,0.334
						c-0.221,0-0.4-0.076-0.54-0.227s-0.209-0.341-0.209-0.569c0-0.246,0.074-0.449,0.225-0.61s0.347-0.242,0.591-0.242
						c0.257,0,0.454,0.101,0.59,0.302c0.137,0.202,0.205,0.49,0.205,0.865c0,0.467-0.09,0.83-0.27,1.089
						c-0.179,0.259-0.434,0.389-0.764,0.389c-0.172,0-0.318-0.029-0.438-0.087V107.233z M172.206,105.755
						c0,0.178,0.046,0.32,0.139,0.428c0.093,0.107,0.223,0.162,0.389,0.162c0.144,0,0.264-0.048,0.359-0.144
						c0.097-0.096,0.145-0.212,0.145-0.351c0-0.189-0.047-0.348-0.142-0.477c-0.095-0.128-0.222-0.193-0.382-0.193
						c-0.149,0-0.271,0.056-0.366,0.168S172.206,105.596,172.206,105.755z"/>
					<path fill="#595959" d="M173.917,106.833c0-0.144,0.044-0.279,0.131-0.406c0.088-0.127,0.201-0.216,0.342-0.269
						c-0.11-0.057-0.198-0.135-0.266-0.235s-0.102-0.208-0.102-0.325c0-0.122,0.031-0.233,0.093-0.333
						c0.062-0.101,0.147-0.179,0.257-0.236c0.11-0.057,0.232-0.085,0.365-0.085c0.207,0,0.378,0.062,0.514,0.185
						s0.203,0.28,0.203,0.469c0,0.118-0.034,0.227-0.103,0.326s-0.155,0.177-0.261,0.234c0.139,0.053,0.252,0.143,0.339,0.27
						s0.131,0.261,0.131,0.405c0,0.226-0.077,0.409-0.229,0.548c-0.153,0.139-0.352,0.208-0.594,0.208
						c-0.239,0-0.437-0.07-0.59-0.211C173.993,107.238,173.917,107.056,173.917,106.833z M174.198,106.807
						c0,0.167,0.051,0.3,0.151,0.399s0.23,0.148,0.39,0.148c0.158,0,0.288-0.051,0.391-0.153s0.154-0.234,0.154-0.395
						c0-0.149-0.052-0.276-0.154-0.38c-0.103-0.104-0.232-0.156-0.391-0.156c-0.151,0-0.28,0.05-0.384,0.15
						C174.251,106.522,174.198,106.651,174.198,106.807z M174.307,105.621c0,0.124,0.043,0.228,0.128,0.312
						c0.086,0.083,0.188,0.125,0.305,0.125s0.219-0.042,0.306-0.125c0.086-0.083,0.129-0.188,0.129-0.312
						c0-0.127-0.041-0.232-0.123-0.315s-0.187-0.125-0.312-0.125c-0.123,0-0.226,0.041-0.309,0.123
						C174.348,105.386,174.307,105.491,174.307,105.621z"/>
					<path fill="#595959" d="M175.85,106.318c0-0.452,0.074-0.794,0.222-1.026c0.146-0.232,0.359-0.348,0.636-0.348
						c0.532,0,0.799,0.437,0.799,1.311c0,0.432-0.074,0.762-0.222,0.991c-0.148,0.229-0.359,0.343-0.634,0.343
						c-0.26,0-0.458-0.111-0.595-0.333S175.85,106.722,175.85,106.318z M176.132,106.305c0,0.7,0.183,1.05,0.548,1.05
						c0.363,0,0.544-0.355,0.544-1.066c0-0.739-0.177-1.108-0.53-1.108C176.319,105.181,176.132,105.556,176.132,106.305z"/>
				</g>
			</g>
		</g>
		<g>
			<g>
				<g>
					<path fill="#595959" d="M192.566,107.546h-0.277v-2.21c-0.053,0.053-0.14,0.111-0.261,0.173c-0.12,0.062-0.23,0.105-0.33,0.13
						v-0.296c0.127-0.036,0.265-0.094,0.41-0.175c0.146-0.082,0.262-0.16,0.347-0.237h0.111V107.546z"/>
					<path fill="#595959" d="M193.581,107.233c0.143,0.081,0.293,0.122,0.45,0.122c0.233,0,0.415-0.095,0.546-0.284
						c0.132-0.189,0.197-0.46,0.197-0.812c-0.003,0.002-0.005,0.002-0.007,0c-0.111,0.223-0.304,0.334-0.576,0.334
						c-0.221,0-0.4-0.076-0.54-0.227s-0.209-0.341-0.209-0.569c0-0.246,0.074-0.449,0.225-0.61s0.347-0.242,0.591-0.242
						c0.257,0,0.454,0.101,0.59,0.302c0.137,0.202,0.205,0.49,0.205,0.865c0,0.467-0.09,0.83-0.27,1.089
						c-0.179,0.259-0.434,0.389-0.764,0.389c-0.172,0-0.318-0.029-0.438-0.087V107.233z M193.724,105.755
						c0,0.178,0.046,0.32,0.139,0.428c0.093,0.107,0.223,0.162,0.389,0.162c0.144,0,0.264-0.048,0.359-0.144
						c0.097-0.096,0.145-0.212,0.145-0.351c0-0.189-0.047-0.348-0.142-0.477c-0.095-0.128-0.222-0.193-0.382-0.193
						c-0.149,0-0.271,0.056-0.366,0.168S193.724,105.596,193.724,105.755z"/>
					<path fill="#595959" d="M195.575,107.233c0.143,0.081,0.293,0.122,0.45,0.122c0.233,0,0.415-0.095,0.546-0.284
						c0.132-0.189,0.197-0.46,0.197-0.812c-0.003,0.002-0.005,0.002-0.007,0c-0.111,0.223-0.304,0.334-0.576,0.334
						c-0.221,0-0.4-0.076-0.54-0.227s-0.209-0.341-0.209-0.569c0-0.246,0.074-0.449,0.225-0.61s0.347-0.242,0.591-0.242
						c0.257,0,0.454,0.101,0.59,0.302c0.137,0.202,0.205,0.49,0.205,0.865c0,0.467-0.09,0.83-0.27,1.089
						c-0.179,0.259-0.434,0.389-0.764,0.389c-0.172,0-0.318-0.029-0.438-0.087V107.233z M195.718,105.755
						c0,0.178,0.046,0.32,0.139,0.428c0.093,0.107,0.223,0.162,0.389,0.162c0.144,0,0.264-0.048,0.359-0.144
						c0.097-0.096,0.145-0.212,0.145-0.351c0-0.189-0.047-0.348-0.142-0.477c-0.095-0.128-0.222-0.193-0.382-0.193
						c-0.149,0-0.271,0.056-0.366,0.168S195.718,105.596,195.718,105.755z"/>
					<path fill="#595959" d="M197.367,106.318c0-0.452,0.074-0.794,0.222-1.026c0.146-0.232,0.359-0.348,0.636-0.348
						c0.532,0,0.799,0.437,0.799,1.311c0,0.432-0.074,0.762-0.222,0.991c-0.148,0.229-0.359,0.343-0.634,0.343
						c-0.26,0-0.458-0.111-0.595-0.333S197.367,106.722,197.367,106.318z M197.649,106.305c0,0.7,0.183,1.05,0.548,1.05
						c0.363,0,0.544-0.355,0.544-1.066c0-0.739-0.177-1.108-0.53-1.108C197.837,105.181,197.649,105.556,197.649,106.305z"/>
				</g>
			</g>
		</g>
		<g>
			<g>
				<g>
					<path fill="#595959" d="M214.241,105.67c0-0.153-0.045-0.273-0.136-0.36c-0.09-0.087-0.21-0.131-0.359-0.131
						c-0.106,0-0.214,0.028-0.32,0.083c-0.106,0.055-0.203,0.13-0.288,0.227v-0.299c0.165-0.164,0.38-0.245,0.643-0.245
						c0.22,0,0.396,0.063,0.53,0.189s0.2,0.297,0.2,0.511c0,0.185-0.043,0.346-0.128,0.484c-0.086,0.139-0.232,0.281-0.438,0.429
						c-0.195,0.137-0.33,0.241-0.406,0.311c-0.076,0.071-0.129,0.138-0.16,0.201c-0.03,0.063-0.046,0.138-0.046,0.225h1.242v0.25
						h-1.536v-0.125c0-0.141,0.02-0.26,0.059-0.359c0.038-0.099,0.104-0.196,0.194-0.291c0.091-0.094,0.237-0.211,0.438-0.35
						c0.184-0.126,0.314-0.247,0.394-0.361C214.202,105.946,214.241,105.816,214.241,105.67z"/>
					<path fill="#595959" d="M214.941,106.318c0-0.452,0.074-0.794,0.222-1.026c0.146-0.232,0.359-0.348,0.636-0.348
						c0.532,0,0.799,0.437,0.799,1.311c0,0.432-0.074,0.762-0.222,0.991c-0.148,0.229-0.359,0.343-0.634,0.343
						c-0.26,0-0.458-0.111-0.595-0.333S214.941,106.722,214.941,106.318z M215.224,106.305c0,0.7,0.183,1.05,0.548,1.05
						c0.363,0,0.544-0.355,0.544-1.066c0-0.739-0.177-1.108-0.53-1.108C215.411,105.181,215.224,105.556,215.224,106.305z"/>
					<path fill="#595959" d="M216.936,106.318c0-0.452,0.074-0.794,0.222-1.026c0.146-0.232,0.359-0.348,0.636-0.348
						c0.532,0,0.799,0.437,0.799,1.311c0,0.432-0.074,0.762-0.222,0.991c-0.148,0.229-0.359,0.343-0.634,0.343
						c-0.26,0-0.458-0.111-0.595-0.333S216.936,106.722,216.936,106.318z M217.218,106.305c0,0.7,0.183,1.05,0.548,1.05
						c0.363,0,0.544-0.355,0.544-1.066c0-0.739-0.177-1.108-0.53-1.108C217.405,105.181,217.218,105.556,217.218,106.305z"/>
					<path fill="#595959" d="M218.883,106.318c0-0.452,0.074-0.794,0.222-1.026c0.146-0.232,0.359-0.348,0.636-0.348
						c0.532,0,0.799,0.437,0.799,1.311c0,0.432-0.074,0.762-0.222,0.991c-0.148,0.229-0.359,0.343-0.634,0.343
						c-0.26,0-0.458-0.111-0.595-0.333S218.883,106.722,218.883,106.318z M219.165,106.305c0,0.7,0.183,1.05,0.548,1.05
						c0.363,0,0.544-0.355,0.544-1.066c0-0.739-0.177-1.108-0.53-1.108C219.353,105.181,219.165,105.556,219.165,106.305z"/>
				</g>
			</g>
		</g>
		<g>
			<g>
				<g>
					<path fill="#595959" d="M235.76,105.67c0-0.153-0.045-0.273-0.136-0.36c-0.09-0.087-0.21-0.131-0.359-0.131
						c-0.106,0-0.214,0.028-0.32,0.083c-0.106,0.055-0.203,0.13-0.288,0.227v-0.299c0.165-0.164,0.38-0.245,0.643-0.245
						c0.22,0,0.396,0.063,0.53,0.189s0.2,0.297,0.2,0.511c0,0.185-0.043,0.346-0.128,0.484c-0.086,0.139-0.232,0.281-0.438,0.429
						c-0.195,0.137-0.33,0.241-0.406,0.311c-0.076,0.071-0.129,0.138-0.16,0.201c-0.03,0.063-0.046,0.138-0.046,0.225h1.242v0.25
						h-1.536v-0.125c0-0.141,0.02-0.26,0.059-0.359c0.038-0.099,0.104-0.196,0.194-0.291c0.091-0.094,0.237-0.211,0.438-0.35
						c0.184-0.126,0.314-0.247,0.394-0.361C235.721,105.946,235.76,105.816,235.76,105.67z"/>
					<path fill="#595959" d="M236.46,106.318c0-0.452,0.074-0.794,0.222-1.026c0.146-0.232,0.359-0.348,0.636-0.348
						c0.532,0,0.799,0.437,0.799,1.311c0,0.432-0.074,0.762-0.222,0.991c-0.148,0.229-0.359,0.343-0.634,0.343
						c-0.26,0-0.458-0.111-0.595-0.333S236.46,106.722,236.46,106.318z M236.742,106.305c0,0.7,0.183,1.05,0.548,1.05
						c0.363,0,0.544-0.355,0.544-1.066c0-0.739-0.177-1.108-0.53-1.108C236.93,105.181,236.742,105.556,236.742,106.305z"/>
					<path fill="#595959" d="M239.542,107.546h-0.277v-2.21c-0.053,0.053-0.14,0.111-0.261,0.173c-0.12,0.062-0.23,0.105-0.33,0.13
						v-0.296c0.127-0.036,0.265-0.094,0.41-0.175c0.146-0.082,0.262-0.16,0.347-0.237h0.111V107.546z"/>
					<path fill="#595959" d="M240.401,106.318c0-0.452,0.074-0.794,0.222-1.026c0.146-0.232,0.359-0.348,0.636-0.348
						c0.532,0,0.799,0.437,0.799,1.311c0,0.432-0.074,0.762-0.222,0.991c-0.148,0.229-0.359,0.343-0.634,0.343
						c-0.26,0-0.458-0.111-0.595-0.333S240.401,106.722,240.401,106.318z M240.684,106.305c0,0.7,0.183,1.05,0.548,1.05
						c0.363,0,0.544-0.355,0.544-1.066c0-0.739-0.177-1.108-0.53-1.108C240.871,105.181,240.684,105.556,240.684,106.305z"/>
				</g>
			</g>
		</g>
		<g>
			<g>
				<g>
					<path fill="#595959" d="M257.275,105.67c0-0.153-0.045-0.273-0.136-0.36c-0.09-0.087-0.21-0.131-0.359-0.131
						c-0.106,0-0.214,0.028-0.32,0.083c-0.106,0.055-0.203,0.13-0.288,0.227v-0.299c0.165-0.164,0.38-0.245,0.643-0.245
						c0.22,0,0.396,0.063,0.53,0.189s0.2,0.297,0.2,0.511c0,0.185-0.043,0.346-0.128,0.484c-0.086,0.139-0.232,0.281-0.438,0.429
						c-0.195,0.137-0.33,0.241-0.406,0.311c-0.076,0.071-0.129,0.138-0.16,0.201c-0.03,0.063-0.046,0.138-0.046,0.225h1.242v0.25
						h-1.536v-0.125c0-0.141,0.02-0.26,0.059-0.359c0.038-0.099,0.104-0.196,0.194-0.291c0.091-0.094,0.237-0.211,0.438-0.35
						c0.184-0.126,0.314-0.247,0.394-0.361C257.236,105.946,257.275,105.816,257.275,105.67z"/>
					<path fill="#595959" d="M257.976,106.318c0-0.452,0.074-0.794,0.222-1.026c0.146-0.232,0.359-0.348,0.636-0.348
						c0.532,0,0.799,0.437,0.799,1.311c0,0.432-0.074,0.762-0.222,0.991c-0.148,0.229-0.359,0.343-0.634,0.343
						c-0.26,0-0.458-0.111-0.595-0.333S257.976,106.722,257.976,106.318z M258.258,106.305c0,0.7,0.183,1.05,0.548,1.05
						c0.363,0,0.544-0.355,0.544-1.066c0-0.739-0.177-1.108-0.53-1.108C258.445,105.181,258.258,105.556,258.258,106.305z"/>
					<path fill="#595959" d="M261.217,105.67c0-0.153-0.045-0.273-0.136-0.36c-0.09-0.087-0.21-0.131-0.359-0.131
						c-0.106,0-0.214,0.028-0.32,0.083c-0.106,0.055-0.203,0.13-0.288,0.227v-0.299c0.165-0.164,0.38-0.245,0.643-0.245
						c0.22,0,0.396,0.063,0.53,0.189s0.2,0.297,0.2,0.511c0,0.185-0.043,0.346-0.128,0.484c-0.086,0.139-0.232,0.281-0.438,0.429
						c-0.195,0.137-0.33,0.241-0.406,0.311c-0.076,0.071-0.129,0.138-0.16,0.201c-0.03,0.063-0.046,0.138-0.046,0.225h1.242v0.25
						h-1.536v-0.125c0-0.141,0.02-0.26,0.059-0.359c0.038-0.099,0.104-0.196,0.194-0.291c0.091-0.094,0.237-0.211,0.438-0.35
						c0.184-0.126,0.314-0.247,0.394-0.361C261.178,105.946,261.217,105.816,261.217,105.67z"/>
					<path fill="#595959" d="M261.917,106.318c0-0.452,0.074-0.794,0.222-1.026c0.146-0.232,0.359-0.348,0.636-0.348
						c0.532,0,0.799,0.437,0.799,1.311c0,0.432-0.074,0.762-0.222,0.991c-0.148,0.229-0.359,0.343-0.634,0.343
						c-0.26,0-0.458-0.111-0.595-0.333S261.917,106.722,261.917,106.318z M262.199,106.305c0,0.7,0.183,1.05,0.548,1.05
						c0.363,0,0.544-0.355,0.544-1.066c0-0.739-0.177-1.108-0.53-1.108C262.387,105.181,262.199,105.556,262.199,106.305z"/>
				</g>
			</g>
		</g>
		<g>
			
				<polyline fill="none" stroke="#1D2088" stroke-width="0.7372" stroke-linecap="round" stroke-linejoin="round" stroke-miterlimit="10" points="
				152.171,41.149 154.324,40.908 156.477,40.827 158.629,41.711 160.782,44.765 162.935,48.663 165.087,46.132 167.24,45.649 
				169.392,47.297 171.498,48.583 173.651,51.999 175.803,54.53 177.956,57.946 180.109,59.956 182.261,62.166 184.414,64.497 
				186.567,66.104 188.719,64.697 190.872,64.898 193.025,64.497 195.177,63.532 197.33,64.014 199.482,63.612 201.635,63.854 
				203.788,63.532 205.94,63.211 208.093,63.13 210.246,63.211 212.398,63.17 214.551,62.367 216.703,62.849 218.856,63.452 
				221.009,64.215 223.161,65.622 225.314,65.22 227.467,64.376 229.619,64.858 231.772,65.461 233.924,63.13 236.077,64.135 
				238.23,62.608 240.382,62.608 242.535,62.166 244.688,61.362 246.84,61.081 248.993,60.599 251.146,60.277 253.298,60.599 
				255.451,60.96 257.603,61.081 259.756,60.88 261.909,60.317 			"/>
			
				<polyline fill="none" stroke="#601986" stroke-width="0.7372" stroke-linecap="round" stroke-linejoin="round" stroke-miterlimit="10" points="
				152.171,101.749 154.324,101.588 156.477,101.387 158.629,100.824 160.782,100.422 162.935,99.136 165.087,97.77 167.24,96.324 
				169.392,95.6 171.498,93.229 173.651,90.698 175.803,88.407 177.956,86.116 180.109,83.384 182.261,79.767 184.414,75.025 
				186.567,74.704 188.719,73.498 190.872,72.735 193.025,73.217 195.177,72.373 197.33,71.931 199.482,71.408 201.635,69.922 
				203.788,68.234 205.94,67.109 208.093,66.305 210.246,64.537 212.398,63.532 214.551,62.648 216.703,63.532 218.856,63.894 
				221.009,63.653 223.161,64.697 225.314,65.26 227.467,65.662 229.619,66.064 231.772,67.51 233.924,69.439 236.077,71.087 
				238.23,71.81 240.382,72.976 242.535,73.498 244.688,74.623 246.84,74.503 248.993,75.266 251.146,75.99 253.298,76.713 
				255.451,77.517 257.603,78.079 259.756,77.999 261.909,78.401 			"/>
			
				<polyline fill="none" stroke="#000000" stroke-width="0.7372" stroke-linecap="round" stroke-linejoin="round" stroke-miterlimit="10" points="
				152.171,30.459 154.324,29.857 156.477,29.013 158.629,28.812 160.782,31.263 162.935,33.674 165.087,30.057 167.24,28.33 
				169.392,29.173 171.498,28.45 173.651,29.857 175.803,30.138 177.956,31.343 180.109,30.379 182.261,28.932 184.414,26.28 
				186.567,27.405 188.719,24.673 190.872,23.869 193.025,24.914 195.177,22.543 197.33,22.261 199.482,20.855 201.635,19.127 
				203.788,17.037 205.94,15.189 208.093,13.863 210.246,11.853 212.398,11.09 214.551,9.804 216.703,11.492 218.856,12.577 
				221.009,13.019 223.161,15.952 225.314,15.912 227.467,15.55 229.619,17.439 231.772,19.69 233.924,19.649 236.077,22.583 
				238.23,21.659 240.382,23.146 242.535,23.146 244.688,23.708 246.84,22.824 248.993,23.025 251.146,23.668 253.298,24.03 
				255.451,25.195 257.603,25.959 259.756,25.838 261.909,25.436 			"/>
			<polyline fill="none" stroke="#E60013" stroke-width="0.5501" stroke-miterlimit="10" points="158.554,70.336 169.43,69.121 
				197.388,51.23 214.699,34.26 218.835,33.734 223.201,29.919 227.414,25.183 231.78,27.222 236.069,23.012 240.358,24.788 
				244.878,18.408 249.244,14.396 253.456,8.147 			"/>
		</g>
		
			<rect x="151.814" y="2.312" fill="none" stroke="#000000" stroke-width="0.5501" stroke-miterlimit="10" width="116.429" height="100.612"/>
	</g>
	<g>
		<path d="M189.192,41.79h-2.255V38.68h0.471v1.165h1.313v-1.17h0.471V41.79z M188.722,41.41v-1.181h-1.313v1.181H188.722z
			 M190.565,42.949h-0.476v-4.669h0.476V42.949z"/>
		<path d="M193.701,40.854h-2.207V38.68h2.207V40.854z M193.23,40.48v-1.421h-1.271v1.421H193.23z M195.096,42.799h-3.115V41.34
			h0.471v1.074h2.645V42.799z M195.635,40.069h-0.699v1.603h-0.476v-3.393h0.476v1.4h0.699V40.069z"/>
		<path d="M199.802,42.917h-3.339v-1.09h2.688v-0.331h-2.692v-0.385h0.614v-0.465h-1.122v-0.374h4.215v0.374h-1.143v0.465h0.604
			v1.068h-2.688v0.348h2.863V42.917z M199.252,38.594c0.285,0.143,0.428,0.346,0.428,0.609s-0.143,0.467-0.428,0.609
			c-0.285,0.143-0.683,0.214-1.191,0.214c-0.506,0-0.9-0.071-1.184-0.214c-0.283-0.142-0.425-0.345-0.425-0.609
			s0.142-0.467,0.425-0.609c0.283-0.142,0.678-0.213,1.184-0.213C198.569,38.381,198.967,38.452,199.252,38.594z M198.061,38.755
			c-0.346,0-0.62,0.041-0.823,0.123c-0.203,0.082-0.304,0.191-0.304,0.326c0,0.139,0.101,0.25,0.304,0.331
			c0.203,0.082,0.478,0.123,0.823,0.123c0.349,0,0.627-0.041,0.833-0.123c0.207-0.082,0.311-0.192,0.311-0.331
			c0-0.135-0.104-0.244-0.311-0.326C198.688,38.796,198.409,38.755,198.061,38.755z M197.548,40.646v0.465h1.004v-0.465H197.548z"/>
	</g>
	<g>
		<path fill="#E60013" d="M283.996,58.587v0.476h-4.67v-0.476H283.996z M282.837,59.96v2.255h-3.109v-0.47h1.164V60.43h-1.17v-0.47
			H282.837z M282.457,60.43h-1.181v1.314h1.181V60.43z"/>
		<path fill="#E60013" d="M281.116,53.517v0.7h1.603v0.475h-3.393v-0.475h1.4v-0.7H281.116z M281.901,55.451v2.207h-2.174v-2.207
			H281.901z M281.527,55.921h-1.421v1.271h1.421V55.921z M283.847,54.057v3.115h-1.459v-0.47h1.074v-2.645H283.847z"/>
		<path fill="#E60013" d="M279.642,49.9c0.143-0.285,0.346-0.427,0.609-0.427s0.467,0.143,0.609,0.427
			c0.143,0.285,0.213,0.682,0.213,1.191c0,0.506-0.07,0.9-0.213,1.184s-0.346,0.425-0.609,0.425s-0.467-0.142-0.609-0.425
			s-0.214-0.678-0.214-1.184C279.428,50.582,279.499,50.185,279.642,49.9z M279.802,51.091c0,0.346,0.041,0.62,0.123,0.823
			c0.082,0.203,0.19,0.305,0.326,0.305c0.139,0,0.249-0.102,0.331-0.305c0.082-0.203,0.123-0.477,0.123-0.823
			c0-0.349-0.041-0.626-0.123-0.833c-0.082-0.207-0.192-0.31-0.331-0.31c-0.136,0-0.244,0.103-0.326,0.31
			C279.843,50.465,279.802,50.742,279.802,51.091z M283.964,49.35v3.339h-1.09v-2.688h-0.331v2.693h-0.385V52.08h-0.465v1.122
			h-0.374v-4.215h0.374v1.144h0.465v-0.604h1.068v2.688h0.348V49.35H283.964z M281.693,51.604h0.465V50.6h-0.465V51.604z"/>
		<path fill="#E60013" d="M283.942,47.555c-0.274,0.278-0.597,0.504-0.967,0.679s-0.774,0.262-1.213,0.262h-0.091
			c-0.837,0-1.562-0.313-2.174-0.94v-0.4c0.284,0.256,0.612,0.466,0.982,0.627c0.371,0.162,0.754,0.243,1.148,0.243h0.14
			c0.385,0,0.772-0.082,1.164-0.246c0.393-0.164,0.729-0.372,1.01-0.625V47.555z"/>
		<path fill="#E60013" d="M283.601,46.332l-3.89-2.484v-0.395l3.89,2.484V46.332z M281.73,46.038c0,0.26-0.083,0.465-0.251,0.615
			c-0.167,0.149-0.394,0.224-0.679,0.224h-0.091c-0.284,0-0.516-0.076-0.694-0.227c-0.178-0.151-0.267-0.355-0.267-0.612
			c0-0.256,0.083-0.459,0.251-0.609c0.167-0.149,0.392-0.224,0.673-0.224h0.091c0.285,0,0.518,0.076,0.697,0.227
			S281.73,45.785,281.73,46.038z M281.432,46.038c0-0.281-0.208-0.422-0.625-0.422h-0.134c-0.413,0-0.62,0.141-0.62,0.422
			c0,0.285,0.205,0.428,0.615,0.428h0.133C281.222,46.465,281.432,46.323,281.432,46.038z M283.173,43.083
			c0.179,0.149,0.268,0.353,0.268,0.609s-0.084,0.46-0.251,0.612c-0.168,0.151-0.394,0.227-0.679,0.227h-0.091
			c-0.281,0-0.511-0.077-0.689-0.23c-0.178-0.153-0.267-0.356-0.267-0.609c0-0.256,0.083-0.459,0.248-0.609
			c0.166-0.15,0.391-0.225,0.676-0.225h0.091C282.764,42.859,282.995,42.934,283.173,43.083z M283.146,43.692
			c0-0.281-0.21-0.422-0.63-0.422h-0.129c-0.416,0-0.625,0.141-0.625,0.422c0,0.285,0.207,0.427,0.62,0.427h0.128
			C282.935,44.12,283.146,43.978,283.146,43.692z"/>
		<path fill="#E60013" d="M283.942,42.592c-0.285-0.26-0.612-0.471-0.982-0.633c-0.371-0.162-0.754-0.243-1.149-0.243h-0.144
			c-0.385,0-0.772,0.082-1.162,0.246c-0.391,0.164-0.726,0.374-1.007,0.63v-0.406c0.273-0.281,0.596-0.509,0.964-0.684
			c0.369-0.175,0.772-0.262,1.21-0.262h0.091c0.438,0,0.843,0.087,1.213,0.262c0.37,0.174,0.692,0.402,0.967,0.684V42.592z"/>
	</g>
	<g>
		<path d="M178.44,17.802h0.208c0.784,0,1.392-0.048,1.822-0.144l0.064,0.379c-0.517,0.107-1.213,0.16-2.09,0.16h-0.47v-2.1h2.115
			v0.379h-1.65V17.802z M181.48,19.485c0,0.274-0.138,0.494-0.411,0.66c-0.274,0.166-0.659,0.249-1.154,0.249
			s-0.879-0.082-1.151-0.246c-0.272-0.164-0.409-0.385-0.409-0.663c0-0.281,0.137-0.504,0.409-0.668
			c0.272-0.164,0.656-0.246,1.151-0.246s0.88,0.083,1.154,0.249C181.343,18.985,181.48,19.207,181.48,19.485z M180.706,19.864
			c0.192-0.093,0.288-0.219,0.288-0.379s-0.096-0.288-0.288-0.382c-0.192-0.095-0.456-0.142-0.791-0.142s-0.598,0.047-0.788,0.142
			c-0.19,0.094-0.286,0.222-0.286,0.382s0.096,0.287,0.286,0.379s0.453,0.139,0.788,0.139S180.514,19.957,180.706,19.864z
			 M182.116,17.321h-0.694v1.186h-0.476v-2.773h0.476v1.197h0.694V17.321z"/>
		<path d="M188.057,19.811h-4.215v-0.384h1.859v-1.16h0.476v1.16h1.88V19.811z M187.907,18.005l-0.256,0.374
			c-0.367-0.103-0.716-0.283-1.045-0.54s-0.55-0.517-0.66-0.78c-0.092,0.268-0.304,0.528-0.636,0.783
			c-0.331,0.255-0.688,0.432-1.068,0.532l-0.24-0.385c0.413-0.071,0.801-0.261,1.162-0.569s0.542-0.647,0.542-1.018v-0.321h0.486
			v0.321c0,0.246,0.095,0.487,0.283,0.724s0.413,0.43,0.673,0.58C187.409,17.855,187.662,17.955,187.907,18.005z"/>
		<path d="M190.947,19.245h-2.255v-3.109h0.471V17.3h1.313v-1.17h0.471V19.245z M190.477,18.865v-1.181h-1.313v1.181H190.477z
			 M192.32,20.404h-0.476v-4.669h0.476V20.404z"/>
		<path d="M195.83,18.192c-0.221,0.043-0.529,0.079-0.925,0.109c-0.395,0.03-0.758,0.045-1.09,0.045h-0.556v-1.383h1.608v-0.556
			h-1.619v-0.379h2.095v1.309h-1.608v0.625h0.091c0.834,0,1.48-0.05,1.939-0.15L195.83,18.192z M196.338,18.889
			c0.271,0.155,0.405,0.368,0.405,0.638c0,0.271-0.135,0.483-0.405,0.636c-0.271,0.153-0.655,0.229-1.154,0.229
			c-0.502,0-0.888-0.077-1.157-0.229c-0.269-0.153-0.403-0.365-0.403-0.636c0-0.274,0.135-0.488,0.403-0.641
			c0.27-0.153,0.655-0.229,1.157-0.229C195.683,18.657,196.066,18.734,196.338,18.889z M195.977,19.169
			c-0.19-0.085-0.455-0.128-0.793-0.128c-0.339,0-0.603,0.043-0.793,0.131c-0.191,0.087-0.286,0.206-0.286,0.355
			c0,0.15,0.095,0.268,0.286,0.353c0.19,0.085,0.454,0.128,0.793,0.128c0.335,0,0.599-0.042,0.791-0.128s0.288-0.203,0.288-0.353
			C196.263,19.375,196.167,19.255,195.977,19.169z M197.385,17.438v0.39h-0.694v0.737h-0.476v-2.832h0.476v0.7h0.694v0.385h-0.694
			v0.62H197.385z"/>
		<path d="M203.325,18.598h-4.215v-0.385h1.859V17.62h0.476v0.593h1.88V18.598z M203.117,17.535l-0.197,0.39
			c-0.36-0.039-0.703-0.131-1.029-0.275c-0.325-0.145-0.551-0.316-0.676-0.516c-0.121,0.203-0.34,0.376-0.657,0.521
			c-0.316,0.145-0.662,0.234-1.036,0.27l-0.208-0.39c0.388-0.018,0.74-0.094,1.058-0.229s0.513-0.303,0.588-0.502h-1.416v-0.374
			h3.345v0.374h-1.405c0.075,0.196,0.275,0.362,0.601,0.497C202.409,17.435,202.754,17.513,203.117,17.535z M202.42,19.025
			c0.272,0.143,0.409,0.342,0.409,0.598c0,0.257-0.138,0.456-0.412,0.599s-0.675,0.214-1.202,0.214
			c-0.523,0-0.922-0.072-1.196-0.217c-0.274-0.144-0.411-0.343-0.411-0.596c0-0.252,0.137-0.451,0.411-0.596
			c0.274-0.144,0.673-0.216,1.196-0.216C201.746,18.812,202.147,18.883,202.42,19.025z M201.215,19.202
			c-0.345,0-0.618,0.038-0.819,0.112s-0.302,0.178-0.302,0.31c0,0.136,0.1,0.24,0.299,0.313c0.199,0.073,0.474,0.109,0.822,0.109
			c0.353,0,0.63-0.037,0.831-0.109c0.201-0.073,0.302-0.177,0.302-0.313c0-0.131-0.101-0.235-0.302-0.31
			S201.567,19.202,201.215,19.202z M201.969,16.162h-1.512v-0.379h1.512V16.162z"/>
		<path d="M206.478,18.192c-0.221,0.043-0.529,0.079-0.925,0.109c-0.395,0.03-0.758,0.045-1.09,0.045h-0.556v-1.383h1.608v-0.556
			h-1.619v-0.379h2.095v1.309h-1.608v0.625h0.091c0.834,0,1.48-0.05,1.939-0.15L206.478,18.192z M206.985,18.889
			c0.271,0.155,0.405,0.368,0.405,0.638c0,0.271-0.135,0.483-0.405,0.636c-0.271,0.153-0.655,0.229-1.154,0.229
			c-0.502,0-0.888-0.077-1.157-0.229c-0.269-0.153-0.403-0.365-0.403-0.636c0-0.274,0.135-0.488,0.403-0.641
			c0.27-0.153,0.655-0.229,1.157-0.229C206.33,18.657,206.714,18.734,206.985,18.889z M206.624,19.169
			c-0.19-0.085-0.455-0.128-0.793-0.128c-0.339,0-0.603,0.043-0.793,0.131c-0.191,0.087-0.286,0.206-0.286,0.355
			c0,0.15,0.095,0.268,0.286,0.353c0.19,0.085,0.454,0.128,0.793,0.128c0.335,0,0.599-0.042,0.791-0.128s0.288-0.203,0.288-0.353
			C206.91,19.375,206.814,19.255,206.624,19.169z M208.032,17.438v0.39h-0.694v0.737h-0.476v-2.832h0.476v0.7h0.694v0.385h-0.694
			v0.62H208.032z"/>
	</g>
	<g>
		<path d="M230.851,55.854l-0.268,0.363c-0.225-0.089-0.434-0.22-0.628-0.393s-0.343-0.372-0.446-0.596
			c-0.071,0.231-0.208,0.448-0.411,0.649s-0.439,0.361-0.71,0.478l-0.283-0.353c0.338-0.135,0.615-0.334,0.83-0.596
			c0.216-0.262,0.323-0.567,0.323-0.916v-0.385h0.481v0.363c0,0.346,0.111,0.639,0.334,0.879
			C230.295,55.589,230.555,55.757,230.851,55.854z M232.138,58.573h-3.194v-1.181h2.554v-0.427h-2.586v-0.379h3.061v1.159h-2.559
			v0.438h2.725V58.573z M231.497,55.229h-0.908v-0.39h0.908v-0.903h0.475v2.399h-0.475V55.229z"/>
		<path d="M233.403,56.131c0.855,0,1.507-0.044,1.956-0.134l0.042,0.369c-0.441,0.093-1.118,0.143-2.029,0.15h-0.438v-2.308h2.143
			v0.385h-1.673v0.561h1.619v0.374h-1.619V56.131z M236.014,57.047c0.279,0.162,0.419,0.382,0.419,0.66s-0.14,0.496-0.419,0.654
			c-0.279,0.159-0.665,0.238-1.157,0.238c-0.491,0-0.877-0.079-1.156-0.238c-0.279-0.158-0.419-0.376-0.419-0.654
			s0.14-0.498,0.419-0.66c0.279-0.162,0.665-0.243,1.156-0.243C235.349,56.805,235.734,56.886,236.014,57.047z M235.946,57.708
			c0-0.161-0.097-0.286-0.291-0.377c-0.193-0.091-0.46-0.136-0.799-0.136c-0.338,0-0.604,0.045-0.796,0.136
			s-0.288,0.216-0.288,0.377c0,0.157,0.096,0.279,0.288,0.369c0.192,0.089,0.458,0.133,0.796,0.133c0.339,0,0.605-0.044,0.799-0.133
			C235.85,57.987,235.946,57.864,235.946,57.708z M237.063,55.528h-0.694v1.239h-0.476v-2.832h0.476v1.202h0.694V55.528z"/>
	</g>
	<g>
		<path d="M194.078,79.281c0,0.32-0.099,0.586-0.294,0.796c-0.196,0.21-0.46,0.315-0.791,0.315c-0.327,0-0.591-0.106-0.791-0.318
			c-0.199-0.212-0.299-0.477-0.299-0.793c0-0.321,0.099-0.585,0.297-0.793c0.197-0.208,0.462-0.312,0.793-0.312
			s0.595,0.104,0.791,0.31C193.979,78.692,194.078,78.957,194.078,79.281z M193.613,79.281c0-0.207-0.057-0.376-0.169-0.508
			c-0.111-0.131-0.263-0.197-0.451-0.197s-0.339,0.066-0.451,0.197c-0.112,0.132-0.168,0.301-0.168,0.508
			c0,0.203,0.056,0.37,0.168,0.5s0.263,0.195,0.451,0.195s0.34-0.065,0.451-0.195C193.557,79.651,193.613,79.484,193.613,79.281z
			 M195.787,82.578h-0.47v-1.309h-2.709v-0.379h3.179V82.578z M195.787,80.649h-0.454v-1.186h-0.496v1.143h-0.454v-2.618h0.454
			v1.084h0.496v-1.17h0.454V80.649z"/>
		<path d="M199.115,80.008l-0.277,0.374c-0.221-0.1-0.429-0.242-0.622-0.427c-0.194-0.186-0.34-0.387-0.436-0.604
			c-0.068,0.235-0.205,0.458-0.412,0.668c-0.206,0.21-0.443,0.377-0.71,0.502l-0.289-0.374c0.35-0.146,0.63-0.357,0.842-0.633
			s0.318-0.592,0.318-0.948v-0.443h0.48v0.427c0,0.345,0.11,0.65,0.331,0.914S198.82,79.908,199.115,80.008z M200.136,81.659
			c0,0.285-0.14,0.508-0.419,0.67s-0.665,0.243-1.157,0.243c-0.491,0-0.877-0.081-1.156-0.243s-0.419-0.385-0.419-0.67
			c0-0.281,0.14-0.504,0.419-0.668c0.279-0.164,0.665-0.246,1.156-0.246c0.492,0,0.878,0.082,1.157,0.246
			C199.996,81.155,200.136,81.377,200.136,81.659z M199.358,81.274c-0.193-0.092-0.46-0.139-0.799-0.139
			c-0.338,0-0.604,0.046-0.796,0.139c-0.192,0.093-0.288,0.221-0.288,0.385c0,0.164,0.096,0.293,0.288,0.387
			c0.192,0.095,0.458,0.142,0.796,0.142c0.339,0,0.605-0.047,0.799-0.142c0.194-0.094,0.291-0.224,0.291-0.387
			C199.649,81.495,199.553,81.367,199.358,81.274z M200.767,79.516h-0.694v1.234h-0.476v-2.848h0.476v1.224h0.694V79.516z"/>
		<path d="M203.998,81.429c-0.37,0.054-0.906,0.1-1.607,0.139c-0.471,0.021-0.917,0.032-1.341,0.032l-0.07-0.396
			c0.442,0,0.777-0.003,1.005-0.011v-1.48h0.459v1.464c0.674-0.032,1.172-0.071,1.496-0.118L203.998,81.429z M203.694,78.373
			c0,0.983-0.052,1.697-0.155,2.142l-0.454-0.059c0.089-0.392,0.134-0.958,0.134-1.699h-1.961v-0.385H203.694z M205.436,80.248
			h-0.716v2.324h-0.47v-4.669h0.47v1.956h0.716V80.248z"/>
		<path d="M206.334,79.97h0.208c0.784,0,1.392-0.048,1.822-0.144l0.064,0.379c-0.517,0.107-1.213,0.16-2.09,0.16h-0.47v-2.1h2.115
			v0.379h-1.65V79.97z M209.374,81.653c0,0.274-0.138,0.494-0.411,0.66c-0.274,0.166-0.659,0.249-1.154,0.249
			s-0.879-0.082-1.151-0.246c-0.272-0.164-0.409-0.385-0.409-0.663c0-0.281,0.137-0.504,0.409-0.668
			c0.272-0.164,0.656-0.246,1.151-0.246s0.88,0.083,1.154,0.249C209.236,81.154,209.374,81.375,209.374,81.653z M208.6,82.033
			c0.192-0.093,0.288-0.219,0.288-0.379s-0.096-0.288-0.288-0.382c-0.192-0.095-0.456-0.142-0.791-0.142s-0.598,0.047-0.788,0.142
			c-0.19,0.094-0.286,0.222-0.286,0.382s0.096,0.287,0.286,0.379s0.453,0.139,0.788,0.139S208.407,82.125,208.6,82.033z
			 M210.01,79.49h-0.694v1.186h-0.476v-2.773h0.476V79.1h0.694V79.49z"/>
	</g>
	<g>
		<path d="M141.34,73.756v0.454h-2.484v0.55h2.255v0.443h-4.333V74.76h1.693v-0.55h-1.801v-0.454H141.34z M137.242,75.728
			c0.688,0.007,1.287,0.152,1.801,0.436c0.513,0.283,0.961,0.711,1.346,1.285l-0.347,0.326c-0.274-0.474-0.623-0.844-1.045-1.111
			c-0.422-0.268-0.877-0.422-1.365-0.465v1.368h-0.39V75.728z"/>
		<path d="M140.062,69.247v0.476h-3.393v-0.476H140.062z M137.319,72.618c-0.223-0.235-0.334-0.532-0.334-0.892
			s0.11-0.658,0.331-0.895c0.222-0.237,0.499-0.355,0.834-0.355s0.608,0.117,0.82,0.353c0.212,0.235,0.317,0.534,0.317,0.897
			c0,0.36-0.105,0.657-0.317,0.892c-0.212,0.235-0.483,0.353-0.815,0.353C137.821,72.971,137.542,72.854,137.319,72.618z
			 M137.392,71.726c0,0.217,0.071,0.396,0.214,0.537s0.322,0.211,0.539,0.211c0.214,0,0.393-0.07,0.534-0.211
			c0.143-0.141,0.214-0.32,0.214-0.537c0-0.228-0.069-0.41-0.208-0.545s-0.317-0.203-0.534-0.203c-0.225,0-0.407,0.068-0.548,0.203
			S137.392,71.498,137.392,71.726z M141.195,69.14v3.179h-1.453v-0.476h1.074V69.14H141.195z"/>
		<path d="M138.257,64.155v0.695h1.187v0.475h-2.773V64.85h1.197v-0.695H138.257z M138.738,67.831v-0.208
			c0-0.783-0.049-1.391-0.145-1.822l0.379-0.064c0.107,0.517,0.161,1.213,0.161,2.089v0.47h-2.101V66.18h0.38v1.651H138.738z
			 M140.421,64.791c0.274,0,0.494,0.137,0.66,0.412c0.165,0.274,0.248,0.659,0.248,1.154s-0.082,0.879-0.246,1.151
			c-0.163,0.272-0.385,0.409-0.662,0.409c-0.281,0-0.504-0.136-0.668-0.409s-0.246-0.656-0.246-1.151s0.083-0.879,0.249-1.154
			C139.921,64.928,140.143,64.791,140.421,64.791z M140.8,65.566c-0.092-0.192-0.219-0.289-0.379-0.289s-0.288,0.096-0.382,0.289
			c-0.095,0.192-0.142,0.456-0.142,0.791c0,0.335,0.047,0.598,0.142,0.788c0.094,0.19,0.222,0.286,0.382,0.286
			s0.287-0.095,0.379-0.286c0.093-0.19,0.14-0.453,0.14-0.788C140.939,66.022,140.893,65.758,140.8,65.566z"/>
		<path d="M137.098,59.571v1.512h-0.379v-1.512H137.098z M138.471,58.423l0.391,0.198c-0.04,0.36-0.132,0.703-0.275,1.028
			c-0.145,0.326-0.316,0.551-0.516,0.676c0.203,0.121,0.377,0.34,0.521,0.657c0.145,0.317,0.234,0.663,0.271,1.037l-0.391,0.208
			c-0.018-0.388-0.094-0.741-0.229-1.058s-0.303-0.513-0.502-0.588v1.416h-0.374v-3.345h0.374v1.405
			c0.195-0.075,0.361-0.275,0.496-0.601C138.371,59.131,138.449,58.786,138.471,58.423z M139.534,58.214v4.215h-0.385v-1.859h-0.593
			v-0.476h0.593v-1.881H139.534z M139.961,59.12c0.143-0.272,0.343-0.409,0.599-0.409c0.257,0,0.456,0.137,0.599,0.411
			c0.143,0.274,0.214,0.675,0.214,1.202c0,0.523-0.072,0.923-0.217,1.197c-0.144,0.274-0.343,0.412-0.596,0.412
			s-0.451-0.137-0.596-0.412c-0.144-0.274-0.216-0.673-0.216-1.197C139.748,59.794,139.819,59.393,139.961,59.12z M140.138,60.325
			c0,0.346,0.037,0.619,0.112,0.82s0.178,0.302,0.31,0.302c0.136,0,0.24-0.1,0.312-0.299c0.073-0.199,0.109-0.474,0.109-0.823
			c0-0.353-0.036-0.629-0.109-0.831c-0.072-0.201-0.177-0.302-0.312-0.302c-0.132,0-0.234,0.101-0.31,0.302
			S140.138,59.972,140.138,60.325z"/>
		<path d="M138.257,52.103v0.695h1.187v0.475h-2.773v-0.475h1.197v-0.695H138.257z M138.738,55.779V55.57
			c0-0.783-0.049-1.391-0.145-1.822l0.379-0.064c0.107,0.517,0.161,1.213,0.161,2.089v0.47h-2.101v-2.116h0.38v1.651H138.738z
			 M140.421,52.739c0.274,0,0.494,0.137,0.66,0.412c0.165,0.274,0.248,0.659,0.248,1.154s-0.082,0.879-0.246,1.151
			c-0.163,0.272-0.385,0.409-0.662,0.409c-0.281,0-0.504-0.136-0.668-0.409s-0.246-0.656-0.246-1.151s0.083-0.879,0.249-1.154
			C139.921,52.876,140.143,52.739,140.421,52.739z M140.8,53.514c-0.092-0.192-0.219-0.289-0.379-0.289s-0.288,0.096-0.382,0.289
			c-0.095,0.192-0.142,0.456-0.142,0.791c0,0.335,0.047,0.598,0.142,0.788c0.094,0.19,0.222,0.286,0.382,0.286
			s0.287-0.095,0.379-0.286c0.093-0.19,0.14-0.453,0.14-0.788C140.939,53.97,140.893,53.706,140.8,53.514z"/>
		<path d="M138.92,46.045v0.727h2.42v0.47h-4.67v-0.47h1.859v-0.727H138.92z M139.85,47.626l0.353,0.283
			c-0.15,0.228-0.356,0.454-0.62,0.679c-0.264,0.224-0.521,0.377-0.774,0.459c0.281,0.078,0.559,0.224,0.833,0.435
			c0.274,0.212,0.501,0.452,0.679,0.719l-0.353,0.294c-0.225-0.36-0.527-0.65-0.908-0.871c-0.381-0.221-0.783-0.331-1.207-0.331
			h-0.78v-0.486h0.759c0.42,0,0.809-0.11,1.164-0.331C139.351,48.255,139.636,47.972,139.85,47.626z"/>
		<path d="M137.664,42.043c0.32,0,0.558,0.187,0.711,0.561h0.636v-1.063h0.385v4.215h-0.385v-1.042h-0.646
			c-0.153,0.363-0.387,0.545-0.7,0.545c-0.271,0-0.483-0.142-0.639-0.425c-0.154-0.283-0.232-0.678-0.232-1.184
			c0-0.505,0.078-0.9,0.232-1.183C137.181,42.185,137.394,42.043,137.664,42.043z M137.664,42.524c-0.16,0-0.283,0.1-0.368,0.299
			c-0.086,0.2-0.129,0.476-0.129,0.828c0,0.349,0.044,0.624,0.131,0.823c0.088,0.2,0.21,0.299,0.366,0.299
			c0.157,0,0.278-0.1,0.366-0.299c0.087-0.199,0.131-0.474,0.131-0.823s-0.044-0.624-0.131-0.825
			C137.942,42.625,137.821,42.524,137.664,42.524z M138.54,43.651c0,0.221-0.016,0.418-0.048,0.593h0.519v-1.17h-0.514
			C138.526,43.256,138.54,43.448,138.54,43.651z M139.87,42.43c0.146-0.294,0.354-0.441,0.62-0.441c0.268,0,0.475,0.147,0.622,0.441
			c0.148,0.294,0.222,0.701,0.222,1.221c0,0.517-0.073,0.921-0.222,1.213c-0.147,0.292-0.354,0.438-0.622,0.438
			c-0.267,0-0.474-0.146-0.62-0.438c-0.146-0.292-0.219-0.696-0.219-1.213C139.651,43.131,139.725,42.724,139.87,42.43z
			 M140.031,43.651c0,0.353,0.04,0.632,0.12,0.839s0.194,0.31,0.345,0.31c0.146,0,0.258-0.104,0.336-0.31s0.118-0.486,0.118-0.839
			c0-0.359-0.04-0.644-0.118-0.852s-0.19-0.312-0.336-0.312c-0.15,0-0.265,0.105-0.345,0.315
			C140.071,43.012,140.031,43.295,140.031,43.651z"/>
		<path d="M138.375,36.834h0.39v0.695h0.737v0.475h-2.832v-0.475h0.7v-0.695h0.385v0.695h0.62V36.834z M139.128,38.389
			c0.043,0.221,0.079,0.529,0.109,0.924s0.046,0.759,0.046,1.09v0.556h-1.384v-1.608h-0.556v1.619h-0.38v-2.094h1.31v1.608h0.625
			v-0.091c0-0.833-0.05-1.479-0.149-1.939L139.128,38.389z M139.825,37.881c0.155-0.271,0.368-0.406,0.639-0.406
			s0.482,0.136,0.636,0.406s0.229,0.655,0.229,1.154c0,0.502-0.076,0.888-0.229,1.157s-0.365,0.403-0.636,0.403
			c-0.274,0-0.488-0.134-0.642-0.403s-0.229-0.654-0.229-1.157C139.593,38.537,139.67,38.152,139.825,37.881z M140.105,38.242
			c-0.085,0.191-0.128,0.455-0.128,0.793s0.044,0.603,0.131,0.793s0.206,0.286,0.355,0.286s0.267-0.095,0.353-0.286
			c0.085-0.19,0.128-0.455,0.128-0.793c0-0.334-0.043-0.598-0.128-0.791c-0.086-0.192-0.203-0.289-0.353-0.289
			C140.311,37.956,140.191,38.051,140.105,38.242z"/>
		<path d="M141.286,35.488c-0.274,0.278-0.597,0.504-0.967,0.679s-0.774,0.262-1.213,0.262h-0.091c-0.837,0-1.562-0.313-2.174-0.94
			v-0.4c0.284,0.256,0.612,0.466,0.982,0.627c0.371,0.162,0.754,0.243,1.148,0.243h0.14c0.385,0,0.772-0.082,1.164-0.246
			c0.393-0.164,0.729-0.372,1.01-0.625V35.488z"/>
		<path d="M141.526,33.719c0,0.801-0.192,1.202-0.576,1.202c-0.132,0-0.243-0.045-0.334-0.136s-0.158-0.211-0.2-0.361h-0.027
			c-0.067,0.178-0.175,0.268-0.32,0.268c-0.175,0-0.335-0.102-0.48-0.305c-0.14,0.221-0.354,0.331-0.642,0.331h-0.054
			c-0.267,0-0.477-0.093-0.63-0.28s-0.229-0.43-0.229-0.729c0-0.139,0.016-0.269,0.048-0.39v-0.903h0.342v0.454
			c0.114-0.11,0.264-0.166,0.448-0.166h0.054c0.271,0,0.478,0.094,0.62,0.281s0.214,0.43,0.214,0.729
			c0,0.157-0.021,0.303-0.064,0.438c0.057,0.075,0.125,0.112,0.203,0.112c0.063,0,0.108-0.02,0.134-0.059
			c0.024-0.039,0.037-0.104,0.037-0.192v-0.727c0-0.563,0.225-0.844,0.673-0.844C141.265,32.442,141.526,32.868,141.526,33.719z
			 M139.416,33.714c0-0.374-0.156-0.561-0.47-0.561h-0.08c-0.164,0-0.287,0.05-0.369,0.15c-0.081,0.1-0.122,0.237-0.122,0.411
			c0,0.175,0.042,0.31,0.128,0.406c0.085,0.096,0.203,0.144,0.353,0.144h0.08C139.256,34.264,139.416,34.081,139.416,33.714z
			 M141.169,33.73c0-0.299-0.026-0.509-0.08-0.63s-0.146-0.182-0.278-0.182c-0.11,0-0.19,0.034-0.24,0.102
			c-0.05,0.067-0.074,0.185-0.074,0.353v0.748c0.074,0.213,0.204,0.32,0.39,0.32c0.114,0,0.189-0.052,0.227-0.157
			C141.15,34.178,141.169,33.994,141.169,33.73z"/>
		<path d="M141.286,32.319l-4.444-1.239v-0.412l4.444,1.24V32.319z"/>
		<path d="M139.048,26.523v0.476h-2.378v-0.476H139.048z M137.127,29.881c-0.201-0.23-0.302-0.514-0.302-0.852s0.1-0.622,0.299-0.85
			c0.2-0.228,0.455-0.342,0.765-0.342c0.307,0,0.556,0.114,0.748,0.342s0.288,0.511,0.288,0.85s-0.094,0.622-0.283,0.852
			c-0.188,0.229-0.438,0.345-0.748,0.345C137.584,30.226,137.328,30.11,137.127,29.881z M137.231,29.029
			c0,0.207,0.062,0.38,0.187,0.521c0.125,0.141,0.282,0.211,0.471,0.211s0.343-0.07,0.462-0.208
			c0.119-0.139,0.179-0.313,0.179-0.523c0-0.217-0.061-0.393-0.182-0.526c-0.121-0.134-0.274-0.2-0.459-0.2
			c-0.196,0-0.354,0.066-0.476,0.197C137.292,28.631,137.231,28.808,137.231,29.029z M141.308,26.357v3.2h-1.202v-2.559h-0.433
			v2.575h-0.385v-3.051h1.17v2.564h0.46v-2.73H141.308z"/>
		<path d="M141.286,25.877c-0.285-0.26-0.612-0.471-0.982-0.633C139.933,25.082,139.55,25,139.154,25h-0.144
			c-0.385,0-0.772,0.082-1.162,0.246c-0.391,0.164-0.726,0.374-1.007,0.63v-0.406c0.273-0.281,0.596-0.509,0.964-0.684
			c0.369-0.175,0.772-0.262,1.21-0.262h0.091c0.438,0,0.843,0.087,1.213,0.262c0.37,0.174,0.692,0.402,0.967,0.684V25.877z"/>
	</g>
</g>
<g>
</g>
<g>
</g>
<g>
</g>
<g>
</g>
<g>
</g>
<g>
</g>
</svg>
