<?xml version="1.0" encoding="utf-8"?>
<!-- Generator: Adobe Illustrator 28.0.0, SVG Export Plug-In . SVG Version: 6.00 Build 0)  -->
<svg version="1.1" id="레이어_1" xmlns="http://www.w3.org/2000/svg" xmlns:xlink="http://www.w3.org/1999/xlink" x="0px"
	 y="0px" viewBox="0 0 473.501 253.488" enable-background="new 0 0 473.501 253.488" xml:space="preserve">
<g>
	<path d="M89.146,187.188c0-0.953,0.207-1.724,0.62-2.31c0.413-0.587,0.977-0.88,1.69-0.88c0.72,0,1.285,0.293,1.695,0.88
		c0.41,0.586,0.615,1.356,0.615,2.31c0,0.947-0.205,1.712-0.615,2.295c-0.41,0.584-0.975,0.875-1.695,0.875
		c-0.713,0-1.277-0.291-1.69-0.875C89.353,188.9,89.146,188.136,89.146,187.188z M92.646,187.188c0-0.693-0.11-1.241-0.33-1.645
		c-0.22-0.403-0.507-0.605-0.86-0.605c-0.34,0-0.62,0.202-0.84,0.605c-0.22,0.403-0.33,0.951-0.33,1.645
		c0,0.687,0.11,1.23,0.33,1.63c0.22,0.4,0.5,0.601,0.84,0.601c0.353,0,0.64-0.2,0.86-0.601
		C92.536,188.419,92.646,187.875,92.646,187.188z M96.046,183.389v3.42h1.32v0.97h-1.32v4.521h-1.19v-8.91H96.046z"/>
	<path d="M98.411,187.858c-0.43-0.413-0.645-0.946-0.645-1.6s0.215-1.187,0.645-1.601c0.43-0.413,0.999-0.62,1.705-0.62
		c0.7,0,1.265,0.207,1.695,0.62c0.43,0.414,0.645,0.947,0.645,1.601s-0.215,1.187-0.645,1.6c-0.43,0.414-0.995,0.62-1.695,0.62
		C99.409,188.479,98.841,188.272,98.411,187.858z M98.956,186.249c0,0.366,0.105,0.666,0.315,0.899
		c0.21,0.233,0.491,0.351,0.845,0.351c0.347,0,0.625-0.117,0.835-0.351s0.315-0.533,0.315-0.899c0-0.347-0.105-0.637-0.315-0.87
		s-0.488-0.351-0.835-0.351c-0.354,0-0.635,0.117-0.845,0.351C99.061,185.612,98.956,185.902,98.956,186.249z M105.286,192.059
		h-6.16v-2.81h1.19v1.89h4.97V192.059z M102.646,187.719l0.03-0.99h1.25v-1.22h-1.25l-0.02-0.99h1.27v-1.13h1.17v6.46h-1.17v-2.13
		H102.646z"/>
	<path d="M109.465,187.009v-1.181h1.22v1.181H109.465z M109.465,190.629v-1.181h1.22v1.181H109.465z"/>
	<path d="M89.586,203.099v-6.86h2.25c2.187,0,3.28,1.084,3.28,3.25v0.2c0,1.113-0.273,1.96-0.82,2.54
		c-0.547,0.58-1.363,0.87-2.45,0.87H89.586z M90.816,202.129h1.04c0.68,0,1.176-0.182,1.49-0.545s0.47-0.955,0.47-1.775v-0.33
		c0-0.826-0.17-1.411-0.51-1.755c-0.34-0.344-0.853-0.515-1.54-0.515h-0.95V202.129z"/>
	<path d="M96.386,203.099v-6.86h1.38l2.85,4.84h0.03v-4.84h1.09v6.86h-1.22l-3.01-5.17h-0.03v5.17H96.386z"/>
	<path d="M102.666,203.099l2.5-6.86h1.26l2.44,6.86h-1.27l-0.62-1.74h-2.55l-0.62,1.74H102.666z M105.676,197.698l-0.96,2.74h1.95
		l-0.96-2.74H105.676z"/>
	<path d="M117.116,197.759h-5.22v-0.88h5.22V197.759z M116.666,199.389c0,0.434-0.198,0.783-0.595,1.05
		c-0.396,0.267-0.901,0.4-1.515,0.4c-0.62,0-1.134-0.134-1.54-0.4c-0.407-0.267-0.61-0.616-0.61-1.05c0-0.42,0.203-0.765,0.61-1.035
		c0.406-0.27,0.92-0.405,1.54-0.405c0.606,0,1.11,0.136,1.51,0.405C116.465,198.624,116.666,198.969,116.666,199.389z
		 M118.936,204.229h-5.78v-3.15h1.16v0.69h3.45v-0.7h1.17V204.229z M113.235,196.459v-0.891h2.64v0.891H113.235z M113.576,199.389
		c0,0.18,0.095,0.323,0.285,0.43s0.422,0.16,0.695,0.16c0.267,0,0.493-0.054,0.68-0.16s0.28-0.25,0.28-0.43
		c0-0.174-0.094-0.313-0.28-0.42s-0.413-0.16-0.68-0.16c-0.28,0-0.514,0.054-0.7,0.16S113.576,199.215,113.576,199.389z
		 M117.766,203.309v-0.63h-3.45v0.63H117.766z M120.186,198.778h-1.25v1.87h-1.17v-5.26h1.17v2.43h1.25V198.778z"/>
	<path d="M125.945,199.339l-0.67,0.91c-0.367-0.147-0.743-0.389-1.13-0.726s-0.67-0.698-0.85-1.085
		c-0.126,0.44-0.395,0.852-0.805,1.235c-0.41,0.383-0.832,0.648-1.265,0.795l-0.7-0.931c0.66-0.239,1.183-0.611,1.57-1.114
		c0.387-0.504,0.58-1.085,0.58-1.745v-0.88h1.21v0.819c0,0.654,0.202,1.224,0.605,1.71
		C124.894,198.815,125.379,199.152,125.945,199.339z M128.045,202.499c0,0.546-0.27,0.981-0.81,1.305s-1.293,0.484-2.26,0.484
		c-0.947,0-1.688-0.161-2.225-0.484s-0.805-0.759-0.805-1.305c0-0.561,0.267-1.002,0.8-1.325c0.533-0.323,1.276-0.485,2.23-0.485
		c0.966,0,1.72,0.162,2.26,0.485S128.045,201.938,128.045,202.499z M124.976,201.629c-0.574,0-1.022,0.076-1.345,0.229
		s-0.485,0.367-0.485,0.641c0,0.267,0.162,0.475,0.485,0.625c0.323,0.149,0.771,0.225,1.345,0.225c0.593,0,1.051-0.075,1.375-0.225
		c0.323-0.15,0.485-0.358,0.485-0.625c0-0.273-0.162-0.487-0.485-0.641C126.027,201.705,125.569,201.629,124.976,201.629z
		 M127.985,200.589h-1.17v-2.42h-1.52v-0.931h1.52v-1.85h1.17V200.589z"/>
	<path d="M89.636,215.089v-6.71h1.99c1.033,0,1.82,0.265,2.36,0.795c0.54,0.529,0.81,1.325,0.81,2.385v0.19
		c0,1.079-0.26,1.906-0.78,2.479c-0.52,0.573-1.313,0.86-2.38,0.86H89.636z M90.426,214.408h1.23c0.793,0,1.372-0.201,1.735-0.604
		c0.363-0.403,0.545-1.052,0.545-1.945v-0.3c0-0.9-0.199-1.542-0.595-1.925c-0.396-0.384-0.995-0.575-1.795-0.575h-1.12V214.408z"/>
	<path d="M96.136,215.089v-6.71h0.94l3.23,5.37h0.03v-5.37h0.72v6.71h-0.82l-3.33-5.63h-0.03v5.63H96.136z"/>
	<path d="M102.125,215.089l2.46-6.71h0.77l2.45,6.71h-0.83l-0.71-1.96h-2.69l-0.69,1.96H102.125z M104.906,209.438l-1.1,3.021h2.21
		l-1.09-3.021H104.906z"/>
	<path d="M118.886,212.229h-7.89v-0.63h3.55v-0.811h-2.77v-0.619h1.35l-0.22-1.301l0.79-0.1l0.15,1.4h2.14l0.18-1.42l0.79,0.1
		l-0.24,1.32h1.35v0.619h-2.76v0.811h3.58V212.229z M118.066,208.438h-6.3v-0.63h6.3V208.438z M118.186,216.089h-6.17v-1.96h5.08
		v-0.681h-5.12v-0.62h5.88v1.87h-5.08v0.75h5.41V216.089z"/>
	<path d="M125.265,213.198l0.07,0.63c-1.26,0.194-2.703,0.29-4.33,0.29h-0.89v-3.369h3.31v-1.841h-3.35v-0.63h4.12v3.101h-3.32v2.09
		h0.21C122.865,213.469,124.258,213.379,125.265,213.198z M126.065,207.469h0.76v8.74h-0.76V207.469z"/>
	<path d="M132.656,213.948h-4.04v-5.58h4.04V213.948z M131.896,213.318v-4.319h-2.51v4.319H131.896z M134.675,211.368h-1.62v-0.64
		h1.62v-3.26h0.76v8.74h-0.76V211.368z"/>
	<path d="M142.135,213.188l0.1,0.61c-1.08,0.22-2.49,0.33-4.23,0.33h-0.74v-3.38h3.26v-1.841h-3.28v-0.63h4.04v3.101h-3.26v2.109
		C139.638,213.502,141.008,213.402,142.135,213.188z M143.655,207.469v3.52h1.41v0.641h-1.41v4.58h-0.75v-8.74H143.655z"/>
	<path d="M150.055,213.589l-0.48,0.56c-0.354-0.246-0.711-0.599-1.075-1.055c-0.364-0.457-0.602-0.898-0.715-1.325
		c-0.086,0.474-0.302,0.948-0.645,1.425s-0.735,0.872-1.175,1.186l-0.51-0.53c0.553-0.354,1.016-0.863,1.39-1.53
		c0.374-0.666,0.56-1.403,0.56-2.21v-0.979h-1.74v-0.63h4.17v0.63h-1.68v0.96C148.155,211.602,148.789,212.769,150.055,213.589z
		 M151.235,215.769h-0.75v-4.46h-1.399v-0.63h1.399v-3h0.75V215.769z M152.965,216.209h-0.75v-8.74h0.75V216.209z"/>
</g>
<g>
	<path d="M411.342,99.709c0-0.954,0.207-1.724,0.62-2.31c0.413-0.587,0.977-0.88,1.69-0.88c0.72,0,1.284,0.293,1.694,0.88
		c0.41,0.586,0.615,1.356,0.615,2.31c0,0.947-0.205,1.711-0.615,2.295s-0.975,0.875-1.694,0.875c-0.714,0-1.277-0.292-1.69-0.875
		S411.342,100.656,411.342,99.709z M414.842,99.709c0-0.693-0.11-1.242-0.33-1.645s-0.507-0.605-0.859-0.605
		c-0.341,0-0.62,0.202-0.841,0.605c-0.22,0.403-0.33,0.952-0.33,1.645c0,0.687,0.11,1.23,0.33,1.63c0.221,0.4,0.5,0.6,0.841,0.6
		c0.353,0,0.64-0.2,0.859-0.6S414.842,100.396,414.842,99.709z M418.242,95.909v3.42h1.319v0.97h-1.319v4.52h-1.19v-8.91H418.242z"
		/>
	<path d="M420.606,100.379c-0.43-0.414-0.645-0.947-0.645-1.6s0.215-1.187,0.645-1.6c0.431-0.413,0.999-0.62,1.705-0.62
		c0.7,0,1.266,0.207,1.695,0.62c0.43,0.414,0.645,0.947,0.645,1.6s-0.215,1.187-0.645,1.6s-0.995,0.62-1.695,0.62
		C421.605,101,421.037,100.793,420.606,100.379z M421.151,98.77c0,0.367,0.105,0.667,0.315,0.9s0.491,0.35,0.845,0.35
		c0.347,0,0.625-0.117,0.835-0.35s0.315-0.533,0.315-0.9c0-0.347-0.105-0.637-0.315-0.87s-0.488-0.35-0.835-0.35
		c-0.354,0-0.635,0.117-0.845,0.35S421.151,98.423,421.151,98.77z M427.481,104.579h-6.159v-2.81h1.189v1.89h4.97V104.579z
		 M424.842,100.239l0.03-0.99h1.25v-1.22h-1.25l-0.021-0.99h1.271v-1.13h1.17v6.46h-1.17v-2.13H424.842z"/>
	<path d="M431.661,99.529v-1.18h1.221v1.18H431.661z M431.661,103.149v-1.18h1.221v1.18H431.661z"/>
	<path d="M444.621,103.77h-8.05v-0.93h1.97v-0.98h1.13v0.98h1.841v-0.98h1.13v0.98h1.979V103.77z M444.131,98.379h-7.069v-0.92
		h7.069V98.379z M442.682,99.099c0.526,0.287,0.79,0.664,0.79,1.13c0,0.466-0.264,0.84-0.79,1.12c-0.527,0.28-1.221,0.42-2.08,0.42
		c-0.86,0-1.552-0.14-2.075-0.42c-0.523-0.28-0.785-0.653-0.785-1.12c0-0.467,0.262-0.843,0.785-1.13
		c0.523-0.287,1.215-0.43,2.075-0.43C441.461,98.669,442.154,98.812,442.682,99.099z M441.796,100.734
		c0.323-0.124,0.485-0.292,0.485-0.505s-0.162-0.382-0.485-0.505c-0.323-0.123-0.722-0.185-1.194-0.185
		c-0.474,0-0.872,0.062-1.195,0.185c-0.323,0.124-0.485,0.292-0.485,0.505s0.162,0.381,0.485,0.505s0.722,0.185,1.195,0.185
		C441.074,100.919,441.473,100.858,441.796,100.734z M439.012,97v-0.92h3.149V97H439.012z"/>
	<path d="M453.271,103.709h-8.051v-0.92h3.41v-2.12h1.181v2.12h3.46V103.709z M453.041,99.859l-0.55,0.92
		c-0.653-0.153-1.299-0.45-1.936-0.89s-1.074-0.937-1.314-1.49c-0.146,0.38-0.403,0.74-0.771,1.08
		c-0.366,0.34-0.765,0.618-1.194,0.835c-0.431,0.217-0.855,0.372-1.275,0.465l-0.53-0.95c0.5-0.073,0.987-0.235,1.46-0.485
		c0.474-0.25,0.877-0.593,1.211-1.03c0.333-0.437,0.5-0.905,0.5-1.405v-0.54h1.22v0.54c0,0.374,0.102,0.735,0.305,1.085
		c0.203,0.35,0.464,0.65,0.78,0.9s0.658,0.46,1.024,0.63C452.338,99.694,452.694,99.806,453.041,99.859z"/>
	<path d="M461.98,101.229c-0.713,0.093-1.621,0.168-2.725,0.225c-1.104,0.057-2.021,0.085-2.755,0.085l-0.15-0.89
		c1.014,0,1.777-0.003,2.29-0.01v-0.3c-0.479-0.053-0.856-0.173-1.13-0.36s-0.41-0.423-0.41-0.71c0-0.354,0.188-0.635,0.565-0.845
		s0.892-0.315,1.545-0.315s1.168,0.105,1.545,0.315s0.565,0.492,0.565,0.845c0,0.287-0.134,0.523-0.4,0.71s-0.637,0.307-1.11,0.36
		v0.26c0.827-0.046,1.527-0.11,2.101-0.19L461.98,101.229z M461.721,97.919h-5.02v-0.82h5.02V97.919z M463.861,104.849h-6.271v-1.88
		h4.8v-0.39h-4.819v-0.78h5.989v1.88h-4.79v0.4h5.091V104.849z M458.001,96.789v-0.8h2.49v0.8H458.001z M460.191,99.27
		c0-0.26-0.327-0.39-0.98-0.39c-0.646,0-0.97,0.13-0.97,0.39c0,0.106,0.086,0.196,0.26,0.27c0.173,0.074,0.41,0.11,0.71,0.11
		c0.307,0,0.547-0.037,0.72-0.11C460.104,99.466,460.191,99.376,460.191,99.27z M464.671,99.419h-1.11v1.97h-1.17v-5.48h1.17v2.54
		h1.11V99.419z"/>
	<path d="M470.48,99.859l-0.67,0.91c-0.366-0.147-0.743-0.389-1.13-0.725c-0.387-0.337-0.67-0.698-0.85-1.085
		c-0.127,0.44-0.396,0.852-0.806,1.235c-0.409,0.383-0.831,0.648-1.265,0.795l-0.7-0.93c0.66-0.24,1.184-0.611,1.57-1.115
		s0.58-1.085,0.58-1.745v-0.88h1.21v0.82c0,0.654,0.201,1.224,0.604,1.71C469.429,99.336,469.914,99.673,470.48,99.859z
		 M472.58,103.02c0,0.546-0.27,0.981-0.81,1.305s-1.293,0.485-2.26,0.485c-0.946,0-1.688-0.162-2.225-0.485
		c-0.537-0.323-0.806-0.758-0.806-1.305c0-0.56,0.267-1.002,0.801-1.325c0.533-0.323,1.276-0.485,2.229-0.485
		c0.967,0,1.72,0.162,2.26,0.485S472.58,102.459,472.58,103.02z M469.511,102.149c-0.573,0-1.021,0.077-1.345,0.23
		s-0.485,0.367-0.485,0.64c0,0.267,0.162,0.475,0.485,0.625c0.323,0.15,0.771,0.225,1.345,0.225c0.594,0,1.052-0.075,1.375-0.225
		c0.323-0.15,0.485-0.358,0.485-0.625c0-0.273-0.162-0.487-0.485-0.64S470.104,102.149,469.511,102.149z M472.521,101.109h-1.17
		v-2.42h-1.52v-0.93h1.52v-1.85h1.17V101.109z"/>
	<path d="M413.682,115.699c-0.72,0-1.281-0.211-1.685-0.635s-0.605-1.035-0.605-1.835v-0.15c0-0.84,0.215-1.47,0.646-1.89
		c0.43-0.42,0.988-0.63,1.675-0.63c0.566,0,1.023,0.11,1.37,0.33v0.64c-0.467-0.213-0.937-0.32-1.41-0.32
		c-0.46,0-0.823,0.151-1.09,0.455c-0.267,0.304-0.4,0.735-0.4,1.295v0.24c0,0.627,0.132,1.09,0.396,1.39
		c0.263,0.3,0.661,0.45,1.194,0.45c0.494,0,0.947-0.116,1.36-0.35v0.62C414.692,115.569,414.208,115.699,413.682,115.699z"/>
	<path d="M417.412,115.699c-0.467,0-0.842-0.118-1.125-0.355c-0.283-0.236-0.425-0.582-0.425-1.035c0-0.846,0.503-1.326,1.51-1.44
		l1.34-0.16v-0.52c0-0.374-0.09-0.628-0.27-0.765c-0.181-0.137-0.5-0.205-0.961-0.205c-0.42,0-0.812,0.054-1.18,0.16v-0.55
		c0.434-0.18,0.927-0.27,1.48-0.27c1.133,0,1.699,0.487,1.699,1.46v3.59h-0.619l-0.08-0.43h-0.051
		C418.445,115.526,418.005,115.699,417.412,115.699z M417.602,115.099c0.5,0,0.87-0.12,1.11-0.36v-1.46l-1.14,0.13
		c-0.313,0.034-0.544,0.119-0.69,0.255c-0.146,0.137-0.22,0.345-0.22,0.625c0,0.267,0.083,0.469,0.25,0.605
		C417.078,115.031,417.309,115.099,417.602,115.099z"/>
	<path d="M422.182,115.689c-0.653,0-1.187-0.117-1.6-0.35v-0.61c0.206,0.08,0.353,0.133,0.439,0.16
		c0.087,0.027,0.229,0.059,0.425,0.095c0.197,0.037,0.405,0.055,0.625,0.055c0.74,0,1.11-0.243,1.11-0.73
		c0-0.227-0.063-0.4-0.19-0.52c-0.126-0.12-0.35-0.227-0.67-0.32l-0.489-0.13c-0.4-0.113-0.702-0.271-0.905-0.475
		c-0.203-0.203-0.305-0.501-0.305-0.895c0-0.433,0.143-0.776,0.43-1.03c0.286-0.253,0.706-0.38,1.26-0.38
		c0.54,0,0.99,0.097,1.351,0.29v0.62c-0.348-0.173-0.784-0.26-1.311-0.26c-0.667,0-1,0.23-1,0.69c0,0.213,0.055,0.374,0.165,0.48
		s0.302,0.2,0.575,0.28l0.5,0.14c0.493,0.126,0.84,0.292,1.04,0.495c0.2,0.203,0.3,0.515,0.3,0.935c0,0.466-0.155,0.827-0.465,1.08
		C423.156,115.562,422.729,115.689,422.182,115.689z"/>
	<path d="M425.071,117.089v-6.43h0.74v0.4h0.04c0.366-0.333,0.856-0.5,1.47-0.5c0.606,0,1.097,0.192,1.471,0.575
		c0.373,0.383,0.56,1.005,0.56,1.865v0.13c0,0.874-0.195,1.52-0.585,1.94s-0.941,0.63-1.655,0.63c-0.46,0-0.883-0.11-1.27-0.33v1.72
		H425.071z M427.042,115.069c1.006,0,1.51-0.61,1.51-1.83v-0.2c0-0.673-0.118-1.146-0.355-1.42c-0.236-0.273-0.595-0.41-1.075-0.41
		c-0.506,0-0.933,0.12-1.279,0.36v3.15C426.121,114.953,426.521,115.069,427.042,115.069z"/>
	<path d="M431.731,115.699c-0.467,0-0.842-0.118-1.125-0.355c-0.283-0.236-0.425-0.582-0.425-1.035c0-0.846,0.503-1.326,1.51-1.44
		l1.341-0.16v-0.52c0-0.374-0.091-0.628-0.271-0.765s-0.5-0.205-0.96-0.205c-0.42,0-0.813,0.054-1.18,0.16v-0.55
		c0.433-0.18,0.926-0.27,1.479-0.27c1.134,0,1.7,0.487,1.7,1.46v3.59h-0.62l-0.08-0.43h-0.05
		C432.765,115.526,432.325,115.699,431.731,115.699z M431.922,115.099c0.5,0,0.87-0.12,1.11-0.36v-1.46l-1.141,0.13
		c-0.313,0.034-0.543,0.119-0.689,0.255c-0.147,0.137-0.221,0.345-0.221,0.625c0,0.267,0.084,0.469,0.25,0.605
		C431.398,115.031,431.628,115.099,431.922,115.099z"/>
	<path d="M436.502,115.689c-0.654,0-1.188-0.117-1.601-0.35v-0.61c0.207,0.08,0.354,0.133,0.44,0.16
		c0.086,0.027,0.228,0.059,0.425,0.095c0.196,0.037,0.405,0.055,0.625,0.055c0.74,0,1.11-0.243,1.11-0.73
		c0-0.227-0.063-0.4-0.19-0.52c-0.127-0.12-0.35-0.227-0.67-0.32l-0.49-0.13c-0.399-0.113-0.701-0.271-0.905-0.475
		c-0.203-0.203-0.305-0.501-0.305-0.895c0-0.433,0.144-0.776,0.43-1.03c0.287-0.253,0.707-0.38,1.261-0.38
		c0.54,0,0.989,0.097,1.35,0.29v0.62c-0.347-0.173-0.783-0.26-1.31-0.26c-0.667,0-1,0.23-1,0.69c0,0.213,0.055,0.374,0.165,0.48
		c0.109,0.106,0.301,0.2,0.574,0.28l0.5,0.14c0.493,0.126,0.841,0.292,1.04,0.495c0.2,0.203,0.301,0.515,0.301,0.935
		c0,0.466-0.155,0.827-0.466,1.08C437.477,115.562,437.048,115.689,436.502,115.689z"/>
	<path d="M441.432,115.699c-0.767,0-1.351-0.22-1.75-0.66c-0.4-0.44-0.601-1.053-0.601-1.84v-0.14c0-0.82,0.207-1.441,0.62-1.865
		s0.927-0.635,1.54-0.635c1.333,0,2,0.777,2,2.33v0.43h-3.38c0.021,0.606,0.17,1.045,0.45,1.315s0.693,0.405,1.24,0.405
		c0.506,0,1.022-0.123,1.55-0.37v0.57C442.661,115.546,442.104,115.699,441.432,115.699z M441.222,111.179
		c-0.354,0-0.659,0.12-0.915,0.36c-0.257,0.24-0.405,0.63-0.445,1.17h2.58c0-0.534-0.1-0.922-0.3-1.165
		C441.941,111.301,441.635,111.179,441.222,111.179z"/>
	<path d="M444.182,112.689v-0.66h3.3v0.66H444.182z"/>
	<path d="M450.312,115.709c-0.761,0-1.367-0.16-1.82-0.48l0.17-0.63c0.187,0.127,0.429,0.232,0.725,0.315
		c0.297,0.083,0.572,0.125,0.825,0.125c0.554,0,0.98-0.115,1.28-0.345s0.45-0.555,0.45-0.975s-0.148-0.736-0.445-0.95
		s-0.708-0.32-1.235-0.32h-0.649v-0.68h0.6c0.44,0,0.794-0.105,1.061-0.315s0.399-0.501,0.399-0.875c0-0.74-0.449-1.11-1.35-1.11
		c-0.434,0-0.93,0.16-1.49,0.48l-0.12-0.64c0.207-0.14,0.483-0.261,0.83-0.365s0.66-0.155,0.94-0.155
		c0.606,0,1.095,0.147,1.465,0.44s0.555,0.7,0.555,1.22c0,0.767-0.427,1.29-1.279,1.57c1.02,0.2,1.529,0.767,1.529,1.7
		c0,0.593-0.222,1.074-0.665,1.44C451.643,115.526,451.051,115.709,450.312,115.709z"/>
	<path d="M413.742,127.699c-0.767,0-1.351-0.22-1.75-0.66c-0.4-0.44-0.601-1.053-0.601-1.84v-0.14c0-0.82,0.207-1.441,0.62-1.865
		s0.927-0.635,1.54-0.635c1.333,0,2,0.777,2,2.33v0.43h-3.38c0.021,0.606,0.17,1.045,0.45,1.315s0.693,0.405,1.24,0.405
		c0.506,0,1.022-0.123,1.55-0.37v0.57C414.972,127.546,414.415,127.699,413.742,127.699z M413.532,123.179
		c-0.354,0-0.659,0.12-0.915,0.36c-0.257,0.24-0.405,0.63-0.445,1.17h2.58c0-0.534-0.1-0.922-0.3-1.165
		C414.252,123.301,413.945,123.179,413.532,123.179z"/>
	<path d="M416.702,127.609v-4.96h0.729v0.43h0.04c0.533-0.346,1.104-0.52,1.71-0.52c0.493,0,0.856,0.107,1.09,0.32
		s0.351,0.557,0.351,1.03v3.7h-0.76v-3.54c0-0.307-0.07-0.525-0.21-0.655c-0.141-0.13-0.404-0.195-0.79-0.195
		c-0.414,0-0.881,0.12-1.4,0.36v4.03H416.702z"/>
	<path d="M423.832,127.699c-0.573,0-1.061-0.195-1.46-0.585c-0.4-0.39-0.601-1.005-0.601-1.845v-0.13c0-0.866,0.2-1.513,0.601-1.94
		c0.399-0.426,0.937-0.64,1.609-0.64c0.493,0,0.927,0.11,1.301,0.33v-2.44h0.77v7.16h-0.64l-0.09-0.41h-0.04
		C424.936,127.533,424.452,127.699,423.832,127.699z M424.062,127.069c0.46,0,0.867-0.14,1.221-0.42v-3.12
		c-0.273-0.213-0.674-0.32-1.2-0.32c-0.494,0-0.869,0.143-1.125,0.43c-0.257,0.287-0.385,0.753-0.385,1.4v0.2
		c0,0.66,0.128,1.13,0.385,1.41C423.213,126.929,423.582,127.069,424.062,127.069z"/>
	<path d="M429.442,127.699c-0.7,0-1.249-0.216-1.646-0.65c-0.396-0.433-0.595-1.043-0.595-1.83v-0.15
		c0-0.773,0.205-1.385,0.615-1.835c0.409-0.45,0.955-0.675,1.635-0.675c0.7,0,1.25,0.219,1.649,0.655
		c0.4,0.437,0.601,1.045,0.601,1.825v0.14c0,0.78-0.207,1.395-0.62,1.845C430.669,127.474,430.122,127.699,429.442,127.699z
		 M429.462,127.069c0.453,0,0.811-0.155,1.07-0.465c0.26-0.31,0.39-0.755,0.39-1.335v-0.25c0-0.647-0.135-1.113-0.405-1.4
		c-0.27-0.287-0.628-0.43-1.074-0.43c-0.454,0-0.811,0.157-1.07,0.47c-0.26,0.313-0.39,0.757-0.39,1.33v0.25
		C427.982,126.459,428.476,127.069,429.462,127.069z"/>
	<path d="M432.852,127.609v-4.96h0.73v0.43h0.04c0.533-0.346,1.104-0.52,1.71-0.52c0.493,0,0.856,0.107,1.09,0.32
		s0.35,0.557,0.35,1.03v3.7h-0.76v-3.54c0-0.307-0.07-0.525-0.21-0.655c-0.14-0.13-0.403-0.195-0.79-0.195
		c-0.413,0-0.88,0.12-1.399,0.36v4.03H432.852z"/>
	<path d="M439.702,127.699c-0.487,0-0.862-0.123-1.125-0.37c-0.264-0.247-0.396-0.606-0.396-1.08v-3.6h0.771v3.49
		c0,0.327,0.069,0.559,0.21,0.695c0.14,0.137,0.39,0.205,0.75,0.205c0.386,0,0.846-0.13,1.38-0.39v-4h0.76v4.96h-0.66l-0.07-0.45
		h-0.04C440.762,127.52,440.235,127.699,439.702,127.699z"/>
	<path d="M445.492,127.699c-0.72,0-1.282-0.211-1.686-0.635s-0.604-1.035-0.604-1.835v-0.15c0-0.84,0.215-1.47,0.645-1.89
		c0.431-0.42,0.988-0.63,1.676-0.63c0.566,0,1.022,0.11,1.369,0.33v0.64c-0.467-0.213-0.937-0.32-1.409-0.32
		c-0.46,0-0.824,0.151-1.091,0.455c-0.267,0.304-0.399,0.735-0.399,1.295v0.24c0,0.627,0.132,1.09,0.395,1.39
		c0.264,0.3,0.662,0.45,1.195,0.45c0.493,0,0.946-0.116,1.36-0.35v0.62C446.502,127.569,446.019,127.699,445.492,127.699z"/>
	<path d="M448.031,127.609v-7.16h0.771v7.16H448.031z"/>
	<path d="M452.321,127.699c-0.767,0-1.35-0.22-1.75-0.66c-0.399-0.44-0.6-1.053-0.6-1.84v-0.14c0-0.82,0.206-1.441,0.62-1.865
		c0.413-0.423,0.927-0.635,1.54-0.635c1.333,0,2,0.777,2,2.33v0.43h-3.38c0.02,0.606,0.17,1.045,0.449,1.315
		c0.28,0.27,0.693,0.405,1.24,0.405c0.507,0,1.023-0.123,1.55-0.37v0.57C453.552,127.546,452.995,127.699,452.321,127.699z
		 M452.111,123.179c-0.354,0-0.658,0.12-0.915,0.36c-0.257,0.24-0.404,0.63-0.444,1.17h2.579c0-0.534-0.1-0.922-0.3-1.165
		C452.831,123.301,452.524,123.179,452.111,123.179z"/>
	<path d="M456.491,127.699c-0.467,0-0.842-0.118-1.125-0.355c-0.283-0.236-0.425-0.582-0.425-1.035c0-0.846,0.503-1.326,1.51-1.44
		l1.341-0.16v-0.52c0-0.374-0.091-0.628-0.271-0.765s-0.5-0.205-0.96-0.205c-0.42,0-0.813,0.054-1.18,0.16v-0.55
		c0.433-0.18,0.926-0.27,1.479-0.27c1.134,0,1.7,0.487,1.7,1.46v3.59h-0.62l-0.08-0.43h-0.05
		C457.524,127.526,457.085,127.699,456.491,127.699z M456.682,127.099c0.5,0,0.87-0.12,1.11-0.36v-1.46l-1.141,0.13
		c-0.313,0.034-0.543,0.119-0.689,0.255c-0.147,0.137-0.221,0.345-0.221,0.625c0,0.267,0.084,0.469,0.25,0.605
		C456.158,127.031,456.388,127.099,456.682,127.099z"/>
	<path d="M461.262,127.689c-0.653,0-1.187-0.117-1.6-0.35v-0.61c0.206,0.08,0.353,0.133,0.439,0.16
		c0.087,0.027,0.229,0.059,0.425,0.095c0.197,0.037,0.405,0.055,0.625,0.055c0.74,0,1.11-0.243,1.11-0.73
		c0-0.227-0.063-0.4-0.19-0.52c-0.126-0.12-0.35-0.227-0.67-0.32l-0.489-0.13c-0.4-0.113-0.702-0.271-0.905-0.475
		c-0.203-0.203-0.305-0.501-0.305-0.895c0-0.433,0.143-0.776,0.43-1.03c0.286-0.253,0.706-0.38,1.26-0.38
		c0.54,0,0.99,0.097,1.351,0.29v0.62c-0.348-0.173-0.784-0.26-1.311-0.26c-0.667,0-1,0.23-1,0.69c0,0.213,0.055,0.374,0.165,0.48
		s0.302,0.2,0.575,0.28l0.5,0.14c0.493,0.126,0.84,0.292,1.04,0.495c0.2,0.203,0.3,0.515,0.3,0.935c0,0.466-0.155,0.827-0.465,1.08
		C462.236,127.562,461.809,127.689,461.262,127.689z"/>
	<path d="M466.191,127.699c-0.767,0-1.35-0.22-1.75-0.66c-0.399-0.44-0.6-1.053-0.6-1.84v-0.14c0-0.82,0.206-1.441,0.62-1.865
		c0.413-0.423,0.927-0.635,1.54-0.635c1.333,0,2,0.777,2,2.33v0.43h-3.38c0.02,0.606,0.17,1.045,0.449,1.315
		c0.28,0.27,0.693,0.405,1.24,0.405c0.507,0,1.023-0.123,1.55-0.37v0.57C467.422,127.546,466.865,127.699,466.191,127.699z
		 M465.981,123.179c-0.354,0-0.658,0.12-0.915,0.36c-0.257,0.24-0.404,0.63-0.444,1.17h2.579c0-0.534-0.1-0.922-0.3-1.165
		C466.701,123.301,466.395,123.179,465.981,123.179z"/>
	<path d="M470.412,127.689c-0.654,0-1.188-0.117-1.601-0.35v-0.61c0.207,0.08,0.354,0.133,0.44,0.16
		c0.086,0.027,0.228,0.059,0.425,0.095c0.196,0.037,0.405,0.055,0.625,0.055c0.74,0,1.11-0.243,1.11-0.73
		c0-0.227-0.063-0.4-0.19-0.52c-0.127-0.12-0.35-0.227-0.67-0.32l-0.49-0.13c-0.399-0.113-0.701-0.271-0.905-0.475
		c-0.203-0.203-0.305-0.501-0.305-0.895c0-0.433,0.144-0.776,0.43-1.03c0.287-0.253,0.707-0.38,1.261-0.38
		c0.54,0,0.989,0.097,1.35,0.29v0.62c-0.347-0.173-0.783-0.26-1.31-0.26c-0.667,0-1,0.23-1,0.69c0,0.213,0.055,0.374,0.165,0.48
		c0.109,0.106,0.301,0.2,0.574,0.28l0.5,0.14c0.493,0.126,0.841,0.292,1.04,0.495c0.2,0.203,0.301,0.515,0.301,0.935
		c0,0.466-0.156,0.827-0.466,1.08C471.387,127.562,470.958,127.689,470.412,127.689z"/>
</g>
<g>
	<path d="M45.719,58.117c0-0.954,0.207-1.724,0.62-2.31c0.413-0.587,0.977-0.88,1.69-0.88c0.72,0,1.285,0.293,1.695,0.88
		c0.41,0.586,0.615,1.356,0.615,2.31c0,0.947-0.205,1.711-0.615,2.295s-0.975,0.875-1.695,0.875c-0.713,0-1.277-0.292-1.69-0.875
		C45.926,59.828,45.719,59.063,45.719,58.117z M49.219,58.117c0-0.693-0.11-1.242-0.33-1.645c-0.22-0.403-0.507-0.605-0.86-0.605
		c-0.34,0-0.62,0.202-0.84,0.605c-0.22,0.403-0.33,0.952-0.33,1.645c0,0.687,0.11,1.23,0.33,1.63c0.22,0.4,0.5,0.6,0.84,0.6
		c0.353,0,0.64-0.2,0.86-0.6C49.109,59.347,49.219,58.803,49.219,58.117z M52.619,54.316v3.42h1.32v0.97h-1.32v4.52h-1.19v-8.91
		H52.619z"/>
	<path d="M54.984,58.787c-0.43-0.414-0.645-0.947-0.645-1.6s0.215-1.187,0.645-1.6c0.43-0.413,0.999-0.62,1.705-0.62
		c0.7,0,1.265,0.207,1.695,0.62c0.43,0.414,0.645,0.947,0.645,1.6s-0.215,1.187-0.645,1.6c-0.43,0.414-0.995,0.62-1.695,0.62
		C55.982,59.407,55.414,59.2,54.984,58.787z M55.529,57.177c0,0.367,0.105,0.667,0.315,0.9c0.21,0.233,0.491,0.35,0.845,0.35
		c0.347,0,0.625-0.117,0.835-0.35s0.315-0.533,0.315-0.9c0-0.347-0.105-0.637-0.315-0.87s-0.488-0.35-0.835-0.35
		c-0.354,0-0.635,0.117-0.845,0.35C55.634,56.54,55.529,56.83,55.529,57.177z M61.859,62.986h-6.16v-2.81h1.19v1.89h4.97V62.986z
		 M59.219,58.646l0.03-0.99h1.25v-1.22h-1.25l-0.02-0.99h1.27v-1.13h1.17v6.46h-1.17v-2.13H59.219z"/>
	<path d="M66.039,57.937v-1.18h1.22v1.18H66.039z M66.039,61.557v-1.18h1.22v1.18H66.039z"/>
	<path d="M72.398,58.316c1.486,0,2.65-0.086,3.49-0.26c0.026,0.22,0.08,0.517,0.16,0.89c-0.867,0.207-2.18,0.31-3.94,0.31h-0.87
		v-4.21h3.97v0.92h-2.81V58.316z M78.119,62.966h-5.92v-2.84h1.17v1.9h4.75V62.966z M79.178,57.707h-1.27v3.04h-1.18v-6.43h1.18
		v2.43h1.27V57.707z"/>
	<path d="M83.528,58.966h-3.61v-4.09h1.18v1.2h1.25v-1.21h1.18V58.966z M80.999,59.957h6.18v3.28h-1.17v-2.35h-5.01V59.957z
		 M82.348,58.037v-1.05h-1.25v1.05H82.348z M87.178,59.506h-1.12v-2.15h-0.67v2.05h-1.09v-4.93h1.09v1.94h0.67v-2.1h1.12V59.506z"/>
	<path d="M88.648,55.727v-0.93h4.7v0.93h-1.68c0.073,0.533,0.288,0.975,0.645,1.325c0.356,0.35,0.788,0.605,1.295,0.765l-0.64,0.91
		c-0.347-0.126-0.705-0.35-1.075-0.67c-0.37-0.32-0.651-0.667-0.845-1.04c-0.133,0.427-0.397,0.82-0.79,1.18
		c-0.394,0.36-0.813,0.62-1.26,0.78l-0.7-0.89c1.28-0.473,1.986-1.26,2.12-2.36H88.648z M95.888,63.157h-6.13v-2.38h4.69v-0.57
		h-4.75v-0.93h5.91v2.36h-4.67v0.58h4.95V63.157z M95.608,58.827h-1.16v-4.51h1.16V58.827z"/>
	<path d="M104.678,56.687h-5.22v-0.88h5.22V56.687z M104.228,58.316c0,0.434-0.198,0.784-0.595,1.05
		c-0.396,0.267-0.901,0.4-1.515,0.4c-0.62,0-1.134-0.133-1.54-0.4c-0.407-0.267-0.61-0.617-0.61-1.05c0-0.42,0.203-0.765,0.61-1.035
		c0.406-0.27,0.92-0.405,1.54-0.405c0.606,0,1.11,0.135,1.51,0.405S104.228,57.896,104.228,58.316z M106.498,63.157h-5.78v-3.15
		h1.16v0.69h3.45v-0.7h1.17V63.157z M100.798,55.387v-0.89h2.64v0.89H100.798z M101.138,58.316c0,0.18,0.095,0.324,0.285,0.43
		s0.422,0.16,0.695,0.16c0.267,0,0.493-0.054,0.68-0.16s0.28-0.25,0.28-0.43c0-0.173-0.094-0.313-0.28-0.42
		c-0.187-0.106-0.413-0.16-0.68-0.16c-0.28,0-0.514,0.054-0.7,0.16C101.231,58.003,101.138,58.143,101.138,58.316z M105.328,62.236
		v-0.63h-3.45v0.63H105.328z M107.748,57.707h-1.25v1.87h-1.17v-5.26h1.17v2.43h1.25V57.707z"/>
	<path d="M113.508,58.267l-0.67,0.91c-0.367-0.147-0.743-0.389-1.13-0.725c-0.387-0.337-0.67-0.698-0.85-1.085
		c-0.126,0.44-0.395,0.852-0.805,1.235c-0.41,0.383-0.832,0.648-1.265,0.795l-0.7-0.93c0.66-0.24,1.183-0.611,1.57-1.115
		s0.58-1.085,0.58-1.745v-0.88h1.21v0.82c0,0.654,0.202,1.224,0.605,1.71C112.456,57.743,112.941,58.08,113.508,58.267z
		 M115.608,61.427c0,0.546-0.27,0.981-0.81,1.305s-1.293,0.485-2.26,0.485c-0.947,0-1.688-0.162-2.225-0.485
		s-0.805-0.758-0.805-1.305c0-0.56,0.267-1.002,0.8-1.325c0.533-0.323,1.276-0.485,2.23-0.485c0.966,0,1.72,0.162,2.26,0.485
		S115.608,60.867,115.608,61.427z M112.538,60.557c-0.574,0-1.022,0.077-1.345,0.23s-0.485,0.367-0.485,0.64
		c0,0.267,0.162,0.475,0.485,0.625c0.323,0.15,0.771,0.225,1.345,0.225c0.593,0,1.051-0.075,1.375-0.225
		c0.323-0.15,0.485-0.358,0.485-0.625c0-0.273-0.162-0.487-0.485-0.64C113.589,60.633,113.131,60.557,112.538,60.557z
		 M115.548,59.517h-1.17v-2.42h-1.52v-0.93h1.52v-1.85h1.17V59.517z"/>
	<path d="M53.019,74.017v-6.71h1.95c0.733,0,1.287,0.16,1.66,0.48c0.373,0.32,0.56,0.787,0.56,1.4c0,0.9-0.437,1.487-1.31,1.76v0.05
		l1.78,3.02h-0.9l-1.67-2.88h-1.28v2.88H53.019z M53.809,70.517h1.11c0.514,0,0.88-0.108,1.1-0.325
		c0.22-0.216,0.33-0.548,0.33-0.995c0-0.42-0.113-0.728-0.34-0.925c-0.227-0.196-0.594-0.295-1.1-0.295h-1.1V70.517z"/>
	<path d="M58.798,74.017v-6.71h0.94l3.23,5.37h0.03v-5.37h0.72v6.71h-0.82l-3.33-5.63h-0.03v5.63H58.798z"/>
	<path d="M64.789,74.017l2.46-6.71h0.77l2.45,6.71h-0.83l-0.71-1.96h-2.69l-0.69,1.96H64.789z M67.569,68.367l-1.1,3.02h2.21
		l-1.09-3.02H67.569z"/>
	<path d="M81.548,71.157h-7.89v-0.63h3.55v-0.81h-2.77v-0.62h1.35l-0.22-1.3l0.79-0.1l0.15,1.4h2.14l0.18-1.42l0.79,0.1l-0.24,1.32
		h1.35v0.62h-2.76v0.81h3.58V71.157z M80.729,67.367h-6.3v-0.63h6.3V67.367z M80.848,75.017h-6.17v-1.96h5.08v-0.68h-5.12v-0.62
		h5.88v1.87h-5.08v0.75h5.41V75.017z"/>
	<path d="M87.928,72.126l0.07,0.63c-1.26,0.194-2.703,0.29-4.33,0.29h-0.89v-3.37h3.31v-1.84h-3.35v-0.63h4.12v3.1h-3.32v2.09h0.21
		C85.528,72.396,86.921,72.307,87.928,72.126z M88.728,66.396h0.76v8.74h-0.76V66.396z"/>
	<path d="M95.318,72.876h-4.04v-5.58h4.04V72.876z M94.558,72.247v-4.32h-2.51v4.32H94.558z M97.338,70.296h-1.62v-0.64h1.62v-3.26
		h0.76v8.74h-0.76V70.296z"/>
	<path d="M104.798,72.117l0.1,0.61c-1.08,0.22-2.49,0.33-4.23,0.33h-0.74v-3.38h3.26v-1.84h-3.28v-0.63h4.04v3.1h-3.26v2.11
		C102.301,72.43,103.671,72.33,104.798,72.117z M106.318,66.396v3.52h1.41v0.64h-1.41v4.58h-0.75v-8.74H106.318z"/>
	<path d="M112.718,72.517l-0.48,0.56c-0.354-0.247-0.711-0.599-1.075-1.055c-0.364-0.457-0.602-0.898-0.715-1.325
		c-0.086,0.474-0.302,0.949-0.645,1.425s-0.735,0.872-1.175,1.185l-0.51-0.53c0.553-0.353,1.016-0.863,1.39-1.53
		s0.56-1.403,0.56-2.21v-0.98h-1.74v-0.63h4.17v0.63h-1.68v0.96C110.818,70.53,111.451,71.696,112.718,72.517z M113.898,74.696
		h-0.75v-4.46h-1.4v-0.63h1.4v-3h0.75V74.696z M115.628,75.137h-0.75v-8.74h0.75V75.137z"/>
	<path d="M1.94,86.106c-0.467,0-0.842-0.118-1.125-0.355C0.532,85.515,0.39,85.17,0.39,84.716c0-0.846,0.503-1.326,1.51-1.44
		l1.34-0.16v-0.52c0-0.374-0.09-0.628-0.27-0.765c-0.18-0.137-0.5-0.205-0.96-0.205c-0.42,0-0.813,0.054-1.18,0.16v-0.55
		c0.433-0.18,0.926-0.27,1.48-0.27c1.133,0,1.7,0.487,1.7,1.46v3.59H3.39l-0.08-0.43H3.26C2.973,85.933,2.533,86.106,1.94,86.106z
		 M2.13,85.506c0.5,0,0.87-0.12,1.11-0.36v-1.46l-1.14,0.13c-0.313,0.034-0.543,0.119-0.69,0.255
		c-0.147,0.137-0.22,0.345-0.22,0.625c0,0.267,0.083,0.469,0.25,0.605S1.836,85.506,2.13,85.506z"/>
	<path d="M5.45,86.017v-4.96h0.73v0.43h0.04c0.533-0.346,1.104-0.52,1.71-0.52c0.493,0,0.856,0.107,1.09,0.32s0.35,0.557,0.35,1.03
		v3.7H8.61v-3.54c0-0.307-0.07-0.525-0.21-0.655c-0.14-0.13-0.404-0.195-0.79-0.195c-0.414,0-0.88,0.12-1.4,0.36v4.03H5.45z"/>
	<path d="M10.83,80.066v-0.8h0.78v0.8H10.83z M10.839,86.017v-4.95h0.76v4.95H10.839z"/>
	<path d="M13.08,86.017v-4.96h0.73v0.43h0.04c0.546-0.346,1.063-0.52,1.55-0.52c0.567,0,0.963,0.184,1.19,0.55h0.04
		c0.567-0.367,1.127-0.55,1.68-0.55c0.907,0,1.36,0.45,1.36,1.35v3.7h-0.75v-3.54c0-0.307-0.068-0.525-0.205-0.655
		c-0.137-0.13-0.372-0.195-0.705-0.195c-0.313,0-0.74,0.12-1.28,0.36c0.02,0.12,0.03,0.23,0.03,0.33v3.7H16v-3.54
		c0-0.3-0.068-0.517-0.205-0.65s-0.368-0.2-0.695-0.2c-0.333,0-0.753,0.12-1.26,0.36v4.03H13.08z"/>
	<path d="M23.04,86.106c-0.7,0-1.249-0.216-1.645-0.65c-0.397-0.433-0.595-1.043-0.595-1.83v-0.15c0-0.773,0.205-1.385,0.615-1.835
		c0.41-0.45,0.955-0.675,1.635-0.675c0.7,0,1.25,0.219,1.65,0.655c0.4,0.437,0.6,1.045,0.6,1.825v0.14
		c0,0.78-0.207,1.395-0.62,1.845C24.266,85.881,23.719,86.106,23.04,86.106z M23.06,85.477c0.453,0,0.81-0.155,1.07-0.465
		c0.26-0.31,0.39-0.755,0.39-1.335v-0.25c0-0.647-0.135-1.113-0.405-1.4c-0.27-0.287-0.628-0.43-1.075-0.43
		c-0.454,0-0.81,0.157-1.07,0.47c-0.26,0.313-0.39,0.757-0.39,1.33v0.25C21.58,84.867,22.073,85.477,23.06,85.477z"/>
	<path d="M27.66,86.106c-0.467,0-0.842-0.118-1.125-0.355c-0.283-0.236-0.425-0.582-0.425-1.035c0-0.846,0.503-1.326,1.51-1.44
		l1.34-0.16v-0.52c0-0.374-0.09-0.628-0.27-0.765c-0.18-0.137-0.5-0.205-0.96-0.205c-0.42,0-0.813,0.054-1.18,0.16v-0.55
		c0.433-0.18,0.926-0.27,1.48-0.27c1.133,0,1.7,0.487,1.7,1.46v3.59h-0.62l-0.08-0.43h-0.05
		C28.693,85.933,28.253,86.106,27.66,86.106z M27.85,85.506c0.5,0,0.87-0.12,1.11-0.36v-1.46l-1.14,0.13
		c-0.313,0.034-0.543,0.119-0.69,0.255c-0.147,0.137-0.22,0.345-0.22,0.625c0,0.267,0.083,0.469,0.25,0.605
		S27.556,85.506,27.85,85.506z"/>
	<path d="M33.149,86.106c-0.72,0-1.282-0.211-1.685-0.635s-0.605-1.035-0.605-1.835v-0.15c0-0.84,0.215-1.47,0.645-1.89
		s0.988-0.63,1.675-0.63c0.566,0,1.023,0.11,1.37,0.33v0.64c-0.467-0.213-0.937-0.32-1.41-0.32c-0.46,0-0.824,0.151-1.09,0.455
		c-0.267,0.304-0.4,0.735-0.4,1.295v0.24c0,0.627,0.132,1.09,0.395,1.39c0.263,0.3,0.662,0.45,1.195,0.45
		c0.494,0,0.947-0.116,1.36-0.35v0.62C34.16,85.977,33.676,86.106,33.149,86.106z"/>
	<path d="M36.049,87.506c-0.227,0-0.433-0.046-0.62-0.14v-0.57c0.28,0.047,0.44,0.07,0.48,0.07c0.266,0,0.473-0.04,0.62-0.12
		s0.27-0.247,0.37-0.5l0.15-0.41l-1.9-4.78h0.82l1.46,3.77h0.02l1.34-3.77h0.77l-1.95,5.27c-0.167,0.44-0.365,0.747-0.595,0.92
		S36.463,87.506,36.049,87.506z"/>
	<path d="M40.509,86.017v-7.16h0.77v7.16H40.509z"/>
	<path d="M42.549,83.097v-0.66h3.3v0.66H42.549z"/>
	<path d="M48.649,86.077c-0.86,0-1.29-0.394-1.29-1.18v-3.2h-0.71v-0.63h0.71v-1.18h0.76v1.18h1.27v0.63h-1.27v3.08
		c0,0.247,0.052,0.42,0.155,0.52c0.104,0.1,0.295,0.15,0.575,0.15c0.227,0,0.44-0.03,0.64-0.09v0.52
		C49.196,86.01,48.916,86.077,48.649,86.077z"/>
	<path d="M50.709,86.017v-6.71h1.95c0.733,0,1.287,0.16,1.66,0.48c0.373,0.32,0.56,0.787,0.56,1.4c0,0.9-0.437,1.487-1.31,1.76v0.05
		l1.78,3.02h-0.9l-1.67-2.88h-1.28v2.88H50.709z M51.499,82.517h1.11c0.514,0,0.88-0.108,1.1-0.325
		c0.22-0.216,0.33-0.548,0.33-0.995c0-0.42-0.113-0.728-0.34-0.925c-0.227-0.196-0.594-0.295-1.1-0.295h-1.1V82.517z"/>
	<path d="M56.489,86.017v-6.71h0.94l3.23,5.37h0.03v-5.37h0.72v6.71h-0.82l-3.33-5.63h-0.03v5.63H56.489z"/>
	<path d="M62.479,86.017l2.46-6.71h0.77l2.45,6.71h-0.83l-0.71-1.96h-2.69l-0.69,1.96H62.479z M65.259,80.367l-1.1,3.02h2.21
		l-1.09-3.02H65.259z"/>
	<path d="M72.959,86.097c-0.654,0-1.187-0.117-1.6-0.35v-0.61c0.207,0.08,0.353,0.133,0.44,0.16
		c0.086,0.027,0.228,0.059,0.425,0.095s0.405,0.055,0.625,0.055c0.74,0,1.11-0.243,1.11-0.73c0-0.227-0.063-0.4-0.19-0.52
		c-0.126-0.12-0.35-0.227-0.67-0.32l-0.49-0.13c-0.4-0.113-0.702-0.271-0.905-0.475c-0.203-0.203-0.305-0.501-0.305-0.895
		c0-0.433,0.143-0.776,0.43-1.03s0.707-0.38,1.26-0.38c0.54,0,0.99,0.097,1.35,0.29v0.62c-0.347-0.173-0.784-0.26-1.31-0.26
		c-0.667,0-1,0.23-1,0.69c0,0.213,0.055,0.374,0.165,0.48c0.11,0.106,0.301,0.2,0.575,0.28l0.5,0.14
		c0.493,0.126,0.84,0.292,1.04,0.495c0.2,0.203,0.3,0.515,0.3,0.935c0,0.466-0.155,0.827-0.465,1.08
		C73.934,85.97,73.505,86.097,72.959,86.097z"/>
	<path d="M76.229,87.506c-0.227,0-0.433-0.046-0.62-0.14v-0.57c0.28,0.047,0.44,0.07,0.48,0.07c0.266,0,0.473-0.04,0.62-0.12
		s0.27-0.247,0.37-0.5l0.15-0.41l-1.9-4.78h0.82l1.46,3.77h0.02l1.34-3.77h0.77l-1.95,5.27c-0.167,0.44-0.365,0.747-0.595,0.92
		S76.642,87.506,76.229,87.506z"/>
	<path d="M80.668,86.017v-4.96h0.73v0.43h0.04c0.533-0.346,1.104-0.52,1.71-0.52c0.493,0,0.856,0.107,1.09,0.32
		s0.35,0.557,0.35,1.03v3.7h-0.76v-3.54c0-0.307-0.07-0.525-0.21-0.655c-0.14-0.13-0.404-0.195-0.79-0.195
		c-0.414,0-0.88,0.12-1.4,0.36v4.03H80.668z"/>
	<path d="M87.598,86.077c-0.86,0-1.29-0.394-1.29-1.18v-3.2h-0.71v-0.63h0.71v-1.18h0.76v1.18h1.27v0.63h-1.27v3.08
		c0,0.247,0.052,0.42,0.155,0.52c0.104,0.1,0.295,0.15,0.575,0.15c0.227,0,0.44-0.03,0.64-0.09v0.52
		C88.145,86.01,87.865,86.077,87.598,86.077z"/>
	<path d="M89.528,86.017v-7.16h0.76v2.63h0.05c0.48-0.346,1.037-0.52,1.67-0.52c0.493,0,0.856,0.109,1.09,0.325
		c0.233,0.217,0.35,0.562,0.35,1.035v3.69h-0.76v-3.54c0-0.307-0.07-0.525-0.21-0.655c-0.14-0.13-0.404-0.195-0.79-0.195
		c-0.427,0-0.894,0.124-1.4,0.37v4.02H89.528z"/>
	<path d="M96.928,86.106c-0.767,0-1.35-0.22-1.75-0.66c-0.4-0.44-0.6-1.053-0.6-1.84v-0.14c0-0.82,0.207-1.441,0.62-1.865
		c0.413-0.423,0.927-0.635,1.54-0.635c1.333,0,2,0.777,2,2.33v0.43h-3.38c0.02,0.606,0.17,1.045,0.45,1.315
		c0.28,0.27,0.693,0.405,1.24,0.405c0.506,0,1.023-0.123,1.55-0.37v0.57C98.158,85.953,97.602,86.106,96.928,86.106z M96.718,81.586
		c-0.354,0-0.659,0.12-0.915,0.36c-0.257,0.24-0.405,0.63-0.445,1.17h2.58c0-0.534-0.1-0.922-0.3-1.165
		C97.438,81.708,97.131,81.586,96.718,81.586z"/>
	<path d="M101.458,86.077c-0.86,0-1.29-0.394-1.29-1.18v-3.2h-0.71v-0.63h0.71v-1.18h0.76v1.18h1.27v0.63h-1.27v3.08
		c0,0.247,0.052,0.42,0.155,0.52c0.104,0.1,0.295,0.15,0.575,0.15c0.227,0,0.44-0.03,0.64-0.09v0.52
		C102.005,86.01,101.725,86.077,101.458,86.077z"/>
	<path d="M104.598,86.106c-0.467,0-0.842-0.118-1.125-0.355c-0.283-0.236-0.425-0.582-0.425-1.035c0-0.846,0.503-1.326,1.51-1.44
		l1.34-0.16v-0.52c0-0.374-0.09-0.628-0.27-0.765c-0.18-0.137-0.5-0.205-0.96-0.205c-0.42,0-0.813,0.054-1.18,0.16v-0.55
		c0.433-0.18,0.926-0.27,1.48-0.27c1.133,0,1.7,0.487,1.7,1.46v3.59h-0.62l-0.08-0.43h-0.05
		C105.631,85.933,105.191,86.106,104.598,86.106z M104.788,85.506c0.5,0,0.87-0.12,1.11-0.36v-1.46l-1.14,0.13
		c-0.313,0.034-0.543,0.119-0.69,0.255c-0.147,0.137-0.22,0.345-0.22,0.625c0,0.267,0.083,0.469,0.25,0.605
		S104.495,85.506,104.788,85.506z"/>
	<path d="M109.368,86.097c-0.654,0-1.187-0.117-1.6-0.35v-0.61c0.207,0.08,0.353,0.133,0.44,0.16
		c0.086,0.027,0.228,0.059,0.425,0.095s0.405,0.055,0.625,0.055c0.74,0,1.11-0.243,1.11-0.73c0-0.227-0.063-0.4-0.19-0.52
		c-0.126-0.12-0.35-0.227-0.67-0.32l-0.49-0.13c-0.4-0.113-0.702-0.271-0.905-0.475c-0.203-0.203-0.305-0.501-0.305-0.895
		c0-0.433,0.143-0.776,0.43-1.03s0.707-0.38,1.26-0.38c0.54,0,0.99,0.097,1.35,0.29v0.62c-0.347-0.173-0.784-0.26-1.31-0.26
		c-0.667,0-1,0.23-1,0.69c0,0.213,0.055,0.374,0.165,0.48c0.11,0.106,0.301,0.2,0.575,0.28l0.5,0.14
		c0.493,0.126,0.84,0.292,1.04,0.495c0.2,0.203,0.3,0.515,0.3,0.935c0,0.466-0.155,0.827-0.465,1.08
		C110.343,85.97,109.915,86.097,109.368,86.097z"/>
	<path d="M114.298,86.106c-0.767,0-1.35-0.22-1.75-0.66c-0.4-0.44-0.6-1.053-0.6-1.84v-0.14c0-0.82,0.207-1.441,0.62-1.865
		c0.413-0.423,0.927-0.635,1.54-0.635c1.333,0,2,0.777,2,2.33v0.43h-3.38c0.02,0.606,0.17,1.045,0.45,1.315
		c0.28,0.27,0.693,0.405,1.24,0.405c0.506,0,1.023-0.123,1.55-0.37v0.57C115.528,85.953,114.971,86.106,114.298,86.106z
		 M114.088,81.586c-0.354,0-0.659,0.12-0.915,0.36c-0.257,0.24-0.405,0.63-0.445,1.17h2.58c0-0.534-0.1-0.922-0.3-1.165
		C114.808,81.708,114.501,81.586,114.088,81.586z"/>
</g>
<g>
	<path d="M172.226,191.098l-2.42-6.859h1.29l1.8,5.3h0.03l1.79-5.3h1.15l-2.42,6.859H172.226z"/>
	<path d="M176.746,185.098v-1.05h1.17v1.05H176.746z M176.746,191.098v-5.149h1.16v5.149H176.746z"/>
	<path d="M181.055,191.158c-0.973,0-1.46-0.443-1.46-1.33v-2.98h-0.72v-0.899h0.72v-1.21h1.13v1.21h1.23v0.899h-1.23v2.82
		c0,0.22,0.05,0.373,0.15,0.46c0.1,0.087,0.284,0.13,0.55,0.13c0.2,0,0.396-0.026,0.59-0.08v0.771
		C181.735,191.088,181.415,191.158,181.055,191.158z"/>
	<path d="M184.355,191.188c-0.48,0-0.864-0.124-1.15-0.37c-0.287-0.247-0.43-0.61-0.43-1.09c0-0.867,0.55-1.381,1.65-1.54
		l1.21-0.141v-0.39c0-0.34-0.085-0.568-0.255-0.686c-0.17-0.116-0.479-0.175-0.925-0.175c-0.42,0-0.836,0.047-1.25,0.141v-0.79
		c0.474-0.187,1.04-0.28,1.7-0.28c1.253,0,1.88,0.51,1.88,1.53v3.699h-0.95l-0.09-0.42h-0.06
		C185.392,191.018,184.949,191.188,184.355,191.188z M184.705,190.378c0.4,0,0.71-0.104,0.93-0.31v-1.271l-0.95,0.101
		c-0.26,0.02-0.455,0.09-0.585,0.21c-0.13,0.12-0.195,0.307-0.195,0.56c0,0.233,0.072,0.41,0.215,0.53
		C184.264,190.318,184.458,190.378,184.705,190.378z"/>
	<path d="M188.125,191.098v-5.149h1.11v0.46h0.04c0.52-0.367,1.043-0.55,1.57-0.55c0.593,0,1,0.193,1.22,0.58h0.06
		c0.566-0.387,1.13-0.58,1.69-0.58c0.473,0,0.828,0.111,1.065,0.335c0.236,0.223,0.355,0.581,0.355,1.074v3.83h-1.14v-3.56
		c0-0.26-0.058-0.445-0.175-0.555c-0.117-0.11-0.322-0.165-0.615-0.165c-0.313,0-0.67,0.097-1.07,0.29
		c0.013,0.106,0.02,0.183,0.02,0.229v3.76h-1.13v-3.56c0-0.26-0.06-0.445-0.18-0.555c-0.12-0.11-0.323-0.165-0.61-0.165
		c-0.347,0-0.7,0.093-1.06,0.279v4H188.125z"/>
	<path d="M196.585,185.098v-1.05h1.17v1.05H196.585z M196.585,191.098v-5.149h1.16v5.149H196.585z"/>
	<path d="M199.135,191.098v-5.149h1.11v0.46h0.04c0.506-0.367,1.07-0.55,1.69-0.55c0.506,0,0.883,0.111,1.13,0.335
		c0.247,0.223,0.37,0.585,0.37,1.085v3.819h-1.16v-3.55c0-0.267-0.06-0.455-0.18-0.564c-0.12-0.11-0.35-0.165-0.69-0.165
		c-0.387,0-0.773,0.093-1.16,0.279v4H199.135z"/>
	<path d="M207.565,191.098v-6.859h2.4c1.507,0,2.26,0.576,2.26,1.729c0,0.761-0.374,1.261-1.12,1.5v0.03
		c0.946,0.174,1.42,0.72,1.42,1.64c0,0.594-0.204,1.068-0.61,1.426c-0.407,0.356-1,0.534-1.78,0.534H207.565z M208.785,187.158h0.96
		c0.84,0,1.26-0.34,1.26-1.021c0-0.359-0.099-0.614-0.295-0.765c-0.197-0.15-0.502-0.225-0.915-0.225h-1.01V187.158z
		 M208.785,190.178h1.18c0.847,0,1.27-0.37,1.27-1.109c0-0.387-0.112-0.665-0.335-0.835c-0.224-0.17-0.559-0.255-1.005-0.255h-1.11
		V190.178z"/>
	<path d="M222.915,183.788c0,1.479-0.093,2.59-0.28,3.33h1.31v0.93h-3.45v2.19h-1.17v-2.19h-3.43v-0.93h5.61
		c0.173-0.68,0.253-1.477,0.24-2.39h-4.81v-0.94H222.915z M223.025,192.058h-6.1v-2.829h1.16v1.909h4.94V192.058z"/>
	<path d="M227.634,187.008v-1.18h1.22v1.18H227.634z M227.634,190.628v-1.18h1.22v1.18H227.634z"/>
	<path d="M173.016,204.308h-1.16v-3.109h-1.93v-0.94h8.05v0.94h-1.96v3.109h-1.16v-3.109h-1.84V204.308z M176.985,199.088h-6.03
		v-3.33h1.17v2.4h4.86V199.088z"/>
	<path d="M185.595,195.708c0,1.26-0.103,2.34-0.31,3.24h1.34v0.92h-8.05v-0.92h5.6c0.06-0.2,0.113-0.49,0.16-0.87l-4.92,0.21
		l-0.14-0.86l5.14-0.22c0.013-0.293,0.02-0.486,0.02-0.58h-4.86v-0.92H185.595z M185.956,204.178h-6.48v-2.31h4.99v-0.57h-4.99
		v-0.92h6.15v2.3h-4.97v0.561h5.3V204.178z"/>
	<path d="M191.155,201.058l0.12,0.9c-0.693,0.174-1.707,0.26-3.04,0.26h-0.72v-3.56h1.99v-1.4h-1.99v-0.939h3.15v3.27h-1.97v1.67
		C189.662,201.258,190.482,201.191,191.155,201.058z M193.085,203.888h-1.09v-4.31h-0.97v-0.94h0.97v-3.08h1.09V203.888z
		 M194.805,204.298h-1.12v-8.91h1.12V204.298z"/>
	<path d="M203.925,203.188h-8.05v-0.931h3.43v-1.42c-0.813-0.093-1.462-0.361-1.945-0.805c-0.483-0.443-0.725-0.988-0.725-1.635
		c0-0.727,0.3-1.317,0.9-1.771s1.39-0.68,2.37-0.68s1.77,0.227,2.37,0.68c0.6,0.453,0.9,1.044,0.9,1.771
		c0,0.653-0.244,1.201-0.73,1.645c-0.487,0.443-1.144,0.709-1.97,0.795v1.42h3.45V203.188z M201.995,198.408
		c0-0.446-0.19-0.809-0.57-1.085s-0.887-0.415-1.52-0.415c-0.627,0-1.13,0.139-1.51,0.415c-0.38,0.276-0.57,0.639-0.57,1.085
		c0,0.453,0.19,0.816,0.57,1.09c0.38,0.273,0.883,0.41,1.51,0.41c0.626,0,1.131-0.137,1.515-0.41
		C201.804,199.225,201.995,198.861,201.995,198.408z"/>
	<path d="M206.025,201.358c1.527,0,2.7-0.091,3.52-0.271c0.014,0.106,0.035,0.26,0.065,0.46c0.03,0.2,0.052,0.354,0.065,0.46
		c-0.84,0.193-2.16,0.29-3.96,0.29h-0.85v-6.13h4.09v0.92h-2.93v1.62h2.77v0.93h-2.77V201.358z M211.485,195.388v3.36h1.24v0.96
		h-1.24v4.59h-1.17v-8.91H211.485z"/>
	<path d="M214.04,201.488c-0.41-0.58-0.615-1.347-0.615-2.3c0-0.954,0.205-1.724,0.615-2.311s0.972-0.88,1.685-0.88
		c0.72,0,1.285,0.293,1.695,0.88s0.615,1.356,0.615,2.311c0,0.946-0.205,1.711-0.615,2.295c-0.41,0.583-0.975,0.875-1.695,0.875
		C215.012,202.358,214.45,202.068,214.04,201.488z M216.915,199.188c0-0.693-0.11-1.242-0.33-1.646
		c-0.22-0.403-0.507-0.604-0.86-0.604c-0.34,0-0.619,0.201-0.835,0.604c-0.217,0.403-0.325,0.952-0.325,1.646
		c0,0.687,0.108,1.229,0.325,1.63c0.216,0.399,0.495,0.6,0.835,0.6c0.353,0,0.64-0.2,0.86-0.6
		C216.805,200.418,216.915,199.875,216.915,199.188z M220.535,204.298h-1.16v-8.91h1.16V204.298z"/>
	<path d="M229.875,202.198v0.93h-8.05v-0.93H229.875z M228.945,200.318h-6.09v-4.181h6.01v0.94h-4.85v2.31h4.93V200.318z"/>
	<path d="M238.254,197.758h-5.22v-0.88h5.22V197.758z M237.804,199.388c0,0.434-0.198,0.784-0.595,1.051
		c-0.397,0.267-0.902,0.399-1.516,0.399c-0.62,0-1.133-0.133-1.54-0.399c-0.406-0.267-0.609-0.617-0.609-1.051
		c0-0.42,0.203-0.765,0.609-1.034c0.407-0.271,0.92-0.405,1.54-0.405c0.606,0,1.11,0.135,1.511,0.405
		C237.604,198.623,237.804,198.968,237.804,199.388z M240.074,204.229h-5.779v-3.15h1.16v0.689h3.449v-0.699h1.17V204.229z
		 M234.375,196.458v-0.89h2.64v0.89H234.375z M234.714,199.388c0,0.181,0.095,0.324,0.285,0.431c0.189,0.106,0.421,0.16,0.694,0.16
		c0.267,0,0.493-0.054,0.681-0.16c0.187-0.106,0.279-0.25,0.279-0.431c0-0.173-0.093-0.312-0.279-0.42
		c-0.188-0.106-0.414-0.16-0.681-0.16c-0.279,0-0.513,0.054-0.699,0.16C234.807,199.075,234.714,199.215,234.714,199.388z
		 M238.904,203.308v-0.63h-3.449v0.63H238.904z M241.324,198.778h-1.25v1.87h-1.17v-5.261h1.17v2.431h1.25V198.778z"/>
	<path d="M247.085,199.338l-0.67,0.91c-0.366-0.146-0.743-0.389-1.13-0.725c-0.387-0.337-0.67-0.698-0.85-1.085
		c-0.127,0.439-0.396,0.852-0.806,1.234c-0.41,0.384-0.831,0.648-1.265,0.795l-0.7-0.93c0.66-0.24,1.184-0.611,1.57-1.115
		c0.387-0.503,0.58-1.085,0.58-1.745v-0.88h1.21v0.82c0,0.653,0.201,1.224,0.604,1.71S246.519,199.151,247.085,199.338z
		 M249.186,202.498c0,0.547-0.271,0.981-0.811,1.305s-1.293,0.485-2.26,0.485c-0.947,0-1.688-0.162-2.226-0.485
		c-0.536-0.323-0.805-0.758-0.805-1.305c0-0.56,0.267-1.002,0.8-1.325s1.277-0.484,2.23-0.484c0.967,0,1.72,0.161,2.26,0.484
		S249.186,201.938,249.186,202.498z M246.115,201.628c-0.573,0-1.021,0.077-1.345,0.23c-0.324,0.153-0.485,0.366-0.485,0.64
		c0,0.267,0.161,0.475,0.485,0.625c0.323,0.15,0.771,0.225,1.345,0.225c0.593,0,1.052-0.074,1.375-0.225s0.484-0.358,0.484-0.625
		c0-0.273-0.161-0.486-0.484-0.64S246.708,201.628,246.115,201.628z M249.125,200.588h-1.17v-2.42h-1.52v-0.93h1.52v-1.851h1.17
		V200.588z"/>
	<path d="M170.485,215.088v-6.71h1.99c1.033,0,1.82,0.265,2.36,0.795s0.81,1.325,0.81,2.385v0.19c0,1.08-0.26,1.906-0.78,2.48
		c-0.52,0.573-1.313,0.859-2.38,0.859H170.485z M171.275,214.408h1.23c0.793,0,1.372-0.202,1.735-0.605
		c0.363-0.403,0.545-1.051,0.545-1.944v-0.301c0-0.899-0.199-1.541-0.595-1.925c-0.396-0.383-0.995-0.575-1.795-0.575h-1.12V214.408
		z"/>
	<path d="M176.985,215.088v-6.71h0.94l3.23,5.37h0.03v-5.37h0.72v6.71h-0.82l-3.33-5.63h-0.03v5.63H176.985z"/>
	<path d="M182.975,215.088l2.46-6.71h0.77l2.45,6.71h-0.83l-0.71-1.96h-2.69l-0.69,1.96H182.975z M185.755,209.438l-1.1,3.02h2.21
		l-1.09-3.02H185.755z"/>
	<path d="M195.575,213.908h-3.47v-5.48h3.47v2.301h1.23v-3.051h0.74v8.09h-0.74v-4.399h-1.23V213.908z M194.835,213.278v-4.221
		h-1.99v4.221H194.835z M199.215,216.208h-0.75v-8.74h0.75V216.208z"/>
	<path d="M205.835,210.898l0.08,0.6c-0.946,0.18-2.32,0.27-4.12,0.27h-0.82v-3.84h4.05v0.63h-3.28v0.91h3.15v0.62h-3.15v1.05h0.28
		C203.725,211.138,204.995,211.058,205.835,210.898z M207.955,216.148h-5.96v-2.141h4.88v-0.81h-4.93v-0.641h5.69v2.04h-4.88v0.91
		h5.2V216.148z M207.635,212.108h-0.76v-4.641h0.76V212.108z"/>
	<path d="M214.595,213.848l0.05,0.62c-0.88,0.107-1.843,0.193-2.89,0.261c-0.647,0.039-1.52,0.06-2.62,0.06l-0.14-0.66
		c0.727,0.026,1.51,0.023,2.35-0.01v-0.87c-0.507-0.054-0.912-0.208-1.215-0.465c-0.304-0.257-0.455-0.582-0.455-0.976
		c0-0.453,0.19-0.812,0.57-1.079s0.88-0.4,1.5-0.4c0.626,0,1.128,0.134,1.505,0.4s0.565,0.626,0.565,1.079
		c0,0.4-0.153,0.728-0.46,0.98s-0.72,0.406-1.24,0.46v0.83C213.222,214.012,214.048,213.935,214.595,213.848z M214.375,209.878h-5.2
		v-0.63h5.2V209.878z M213.075,211.808c0-0.253-0.122-0.458-0.365-0.614c-0.243-0.157-0.565-0.235-0.965-0.235
		c-0.394,0-0.715,0.078-0.965,0.235c-0.25,0.156-0.375,0.361-0.375,0.614c0,0.247,0.125,0.449,0.375,0.605s0.571,0.235,0.965,0.235
		c0.4,0,0.722-0.079,0.965-0.235C212.954,212.257,213.075,212.055,213.075,211.808z M212.985,208.538h-2.51v-0.64h2.51V208.538z
		 M217.285,211.998h-1.4v4.21h-0.77v-8.74h0.77v3.88h1.4V211.998z"/>
	<path d="M225.935,213.998c-0.693,0.094-1.687,0.177-2.98,0.25c-1.027,0.047-1.887,0.07-2.58,0.07l-0.11-0.67
		c1.053,0,1.69-0.004,1.91-0.011v-2.76h0.77v2.74c1.26-0.061,2.237-0.144,2.93-0.25L225.935,213.998z M225.274,208.388
		c0.013,0.674-0.012,1.403-0.075,2.19c-0.063,0.787-0.142,1.394-0.235,1.82l-0.73-0.101c0.093-0.427,0.167-0.956,0.22-1.59
		c0.053-0.633,0.07-1.193,0.05-1.68h-3.8v-0.641H225.274z M228.614,211.768h-1.42v4.44h-0.76v-8.74h0.76v3.65h1.42V211.768z"/>
	<path d="M229.304,208.838v-0.64h4.73v0.64h-1.971c0,0.247,0.004,0.403,0.01,0.47c0.033,0.561,0.273,1.067,0.721,1.521
		s0.959,0.767,1.539,0.939l-0.449,0.61c-0.459-0.18-0.898-0.455-1.314-0.825c-0.418-0.37-0.715-0.751-0.895-1.145
		c-0.121,0.406-0.404,0.837-0.852,1.29c-0.446,0.453-0.906,0.783-1.379,0.99l-0.41-0.61c0.587-0.227,1.104-0.597,1.55-1.11
		c0.446-0.513,0.681-1.066,0.7-1.66c0.006-0.066,0.01-0.223,0.01-0.47H229.304z M236.285,214.548c0,0.514-0.258,0.919-0.77,1.215
		c-0.514,0.297-1.238,0.445-2.17,0.445c-0.928,0-1.646-0.148-2.156-0.445c-0.51-0.296-0.765-0.701-0.765-1.215
		c0-0.52,0.255-0.928,0.765-1.225s1.229-0.445,2.156-0.445c0.932,0,1.656,0.148,2.17,0.445
		C236.027,213.62,236.285,214.028,236.285,214.548z M233.345,213.518c-0.674,0-1.201,0.091-1.58,0.271
		c-0.381,0.18-0.57,0.434-0.57,0.76c0,0.32,0.189,0.57,0.57,0.75c0.379,0.181,0.906,0.271,1.58,0.271
		c0.686,0,1.217-0.089,1.594-0.266c0.377-0.176,0.564-0.428,0.564-0.755c0-0.326-0.188-0.58-0.564-0.76
		S234.031,213.518,233.345,213.518z M235.455,210.378h-1.76v-0.64h1.76v-2.271h0.76v5.431h-0.76V210.378z"/>
	<path d="M171.806,227.208c-0.787,0-1.414-0.17-1.88-0.51l0.15-0.641c0.193,0.134,0.438,0.247,0.735,0.341
		c0.296,0.093,0.578,0.14,0.845,0.14c0.527,0,0.938-0.139,1.235-0.415c0.296-0.276,0.445-0.655,0.445-1.135
		c0-0.953-0.55-1.431-1.65-1.431c-0.447,0-0.914,0.11-1.4,0.33l0.24-3.52h3.4v0.68h-2.76l-0.14,2.04c0.36-0.093,0.68-0.14,0.96-0.14
		c0.693,0,1.23,0.17,1.61,0.51c0.38,0.34,0.57,0.854,0.57,1.54c0,0.62-0.213,1.144-0.64,1.57S172.525,227.208,171.806,227.208z"/>
	<path d="M176.055,224.088c1.727,0,3.02-0.083,3.88-0.25l0.08,0.61c-0.874,0.167-2.18,0.257-3.92,0.27h-0.8v-4.51h4.02v0.63h-3.26
		v1.25h3.19v0.63h-3.19V224.088z M182.045,227.908h-5.74v-2.53h0.76v1.9h4.98V227.908z M183.035,222.668h-1.33v3.14h-0.76v-6.34
		h0.76v2.561h1.33V222.668z"/>
	<path d="M184.695,223.468h0.43c1.333,0,2.513-0.097,3.54-0.29l0.08,0.62c-1.14,0.2-2.507,0.3-4.1,0.3h-0.71v-3.93h3.94v0.64h-3.18
		V223.468z M190.465,226.508c0,0.5-0.252,0.902-0.755,1.205c-0.503,0.304-1.218,0.455-2.145,0.455s-1.64-0.15-2.14-0.45
		s-0.75-0.703-0.75-1.21c0-0.513,0.25-0.92,0.75-1.22s1.213-0.45,2.14-0.45c0.92,0,1.633,0.152,2.14,0.455
		C190.212,225.597,190.465,226.002,190.465,226.508z M189.11,227.263c0.376-0.183,0.565-0.435,0.565-0.755
		c0-0.319-0.188-0.571-0.565-0.755c-0.377-0.184-0.892-0.274-1.545-0.274s-1.167,0.093-1.54,0.279
		c-0.373,0.187-0.56,0.437-0.56,0.75s0.187,0.563,0.56,0.75c0.374,0.187,0.887,0.28,1.54,0.28S188.733,227.446,189.11,227.263z
		 M191.685,222.398h-1.33v2.3h-0.76v-5.23h0.76v2.3h1.33V222.398z"/>
	<path d="M199.425,220.148c-0.066,1.08-0.46,2.034-1.18,2.864c-0.72,0.83-1.667,1.452-2.84,1.865l-0.38-0.649
		c0.9-0.247,1.682-0.695,2.345-1.346c0.663-0.649,1.062-1.345,1.195-2.085h-3.16v-0.649H199.425z M202.135,226.508
		c0,0.514-0.26,0.919-0.78,1.215c-0.52,0.297-1.25,0.445-2.19,0.445c-0.947,0-1.68-0.148-2.2-0.445
		c-0.52-0.296-0.78-0.701-0.78-1.215c0-0.513,0.26-0.916,0.78-1.21c0.52-0.293,1.253-0.439,2.2-0.439
		c0.933,0,1.662,0.148,2.185,0.444C201.873,225.6,202.135,226.002,202.135,226.508z M200.78,225.763
		c-0.383-0.176-0.921-0.265-1.615-0.265s-1.232,0.089-1.615,0.265c-0.383,0.177-0.575,0.426-0.575,0.745
		c0,0.327,0.191,0.58,0.575,0.76c0.383,0.181,0.922,0.271,1.615,0.271s1.231-0.09,1.615-0.271c0.383-0.18,0.575-0.433,0.575-0.76
		C201.355,226.188,201.163,225.939,200.78,225.763z M199.375,223.508v-0.63h1.93v-1.2h-1.79v-0.63h1.79v-1.58h0.76v5.521h-0.76
		v-1.48H199.375z"/>
	<path d="M211.465,227.098h-7.89v-0.64h3.55v-1.49h-2.58v-2.729h5.18v-1.4h-5.19v-0.64h5.95v2.67h-5.18v1.46h5.43v0.64h-2.85v1.49
		h3.58V227.098z"/>
</g>
<g>
	<path d="M251.729,8.39l-2.42-6.86h1.29l1.8,5.3h0.029l1.79-5.3h1.15l-2.42,6.86H251.729z"/>
	<path d="M256.249,2.39V1.34h1.17v1.05H256.249z M256.249,8.39V3.24h1.16v5.15H256.249z"/>
	<path d="M260.559,8.45c-0.973,0-1.46-0.443-1.46-1.33V4.14h-0.72v-0.9h0.72V2.03h1.13v1.21h1.23v0.9h-1.23v2.82
		c0,0.22,0.051,0.373,0.15,0.46c0.1,0.086,0.283,0.13,0.55,0.13c0.2,0,0.396-0.026,0.59-0.08v0.77
		C261.239,8.38,260.919,8.45,260.559,8.45z"/>
	<path d="M263.859,8.48c-0.48,0-0.864-0.124-1.15-0.37c-0.287-0.247-0.43-0.61-0.43-1.09c0-0.867,0.55-1.38,1.649-1.54l1.21-0.14
		V4.95c0-0.34-0.085-0.568-0.255-0.685c-0.17-0.116-0.479-0.175-0.925-0.175c-0.42,0-0.837,0.047-1.25,0.14V3.44
		c0.474-0.187,1.04-0.28,1.7-0.28c1.253,0,1.88,0.51,1.88,1.53v3.7h-0.95l-0.09-0.42h-0.061C264.896,8.31,264.452,8.48,263.859,8.48
		z M264.209,7.67c0.4,0,0.71-0.104,0.93-0.31V6.09l-0.95,0.1c-0.26,0.02-0.454,0.09-0.585,0.21c-0.13,0.12-0.194,0.307-0.194,0.56
		c0,0.233,0.071,0.41,0.215,0.53S263.962,7.67,264.209,7.67z"/>
	<path d="M267.629,8.39V3.24h1.11V3.7h0.04c0.52-0.367,1.043-0.55,1.569-0.55c0.594,0,1,0.193,1.221,0.58h0.06
		c0.566-0.387,1.13-0.58,1.69-0.58c0.473,0,0.828,0.112,1.064,0.335s0.355,0.582,0.355,1.075v3.83h-1.141V4.83
		c0-0.26-0.058-0.445-0.175-0.555c-0.116-0.11-0.321-0.165-0.615-0.165c-0.313,0-0.67,0.097-1.069,0.29
		c0.013,0.106,0.02,0.183,0.02,0.23v3.76h-1.13V4.83c0-0.26-0.06-0.445-0.18-0.555s-0.323-0.165-0.61-0.165
		c-0.347,0-0.7,0.093-1.06,0.28v4H267.629z"/>
	<path d="M276.089,2.39V1.34h1.17v1.05H276.089z M276.089,8.39V3.24h1.16v5.15H276.089z"/>
	<path d="M278.639,8.39V3.24h1.11V3.7h0.04c0.506-0.367,1.069-0.55,1.689-0.55c0.507,0,0.884,0.112,1.13,0.335
		c0.247,0.223,0.37,0.585,0.37,1.085v3.82h-1.16V4.84c0-0.267-0.06-0.455-0.18-0.565s-0.35-0.165-0.689-0.165
		c-0.387,0-0.773,0.093-1.16,0.28v4H278.639z"/>
	<path d="M287.068,8.39V1.53h2.4c1.507,0,2.26,0.577,2.26,1.73c0,0.76-0.373,1.26-1.12,1.5v0.03c0.946,0.173,1.42,0.72,1.42,1.64
		c0,0.594-0.203,1.068-0.609,1.425c-0.407,0.356-1,0.535-1.78,0.535H287.068z M288.288,4.45h0.961c0.84,0,1.26-0.34,1.26-1.02
		c0-0.36-0.099-0.615-0.295-0.765c-0.197-0.15-0.502-0.225-0.915-0.225h-1.011V4.45z M288.288,7.47h1.181
		c0.847,0,1.27-0.37,1.27-1.11c0-0.387-0.111-0.665-0.335-0.835s-0.559-0.255-1.005-0.255h-1.11V7.47z"/>
	<path d="M302.418,1.08c0,1.48-0.093,2.59-0.279,3.33h1.31v0.93h-3.45v2.19h-1.17V5.34h-3.43V4.41h5.61
		c0.173-0.68,0.253-1.477,0.239-2.39h-4.81V1.08H302.418z M302.528,9.35h-6.1v-2.83h1.16v1.91h4.939V9.35z"/>
	<path d="M307.138,4.3V3.12h1.221V4.3H307.138z M307.138,7.92V6.74h1.221v1.18H307.138z"/>
	<path d="M312.912,6.78c-0.41-0.58-0.615-1.347-0.615-2.3c0-0.954,0.205-1.724,0.615-2.31c0.41-0.587,0.972-0.88,1.685-0.88
		c0.721,0,1.285,0.293,1.695,0.88c0.41,0.586,0.615,1.356,0.615,2.31c0,0.947-0.205,1.711-0.615,2.295s-0.975,0.875-1.695,0.875
		C313.884,7.65,313.322,7.36,312.912,6.78z M315.787,4.48c0-0.693-0.11-1.242-0.33-1.645s-0.507-0.605-0.86-0.605
		c-0.34,0-0.618,0.202-0.835,0.605s-0.324,0.952-0.324,1.645c0,0.687,0.107,1.23,0.324,1.63s0.495,0.6,0.835,0.6
		c0.354,0,0.641-0.2,0.86-0.6S315.787,5.167,315.787,4.48z M319.407,9.59h-1.16V0.68h1.16V9.59z"/>
	<path d="M325.537,5.17c0,0.367-0.135,0.678-0.404,0.935c-0.271,0.256-0.632,0.432-1.085,0.525v0.58
		c0.953-0.06,1.63-0.117,2.029-0.17c0,0.026,0.012,0.153,0.035,0.38s0.042,0.396,0.055,0.51c-0.866,0.127-1.869,0.22-3.01,0.28
		c-0.946,0.04-1.736,0.06-2.37,0.06l-0.159-0.97c1,0,1.746-0.01,2.239-0.03V6.64c-0.474-0.073-0.854-0.243-1.14-0.51
		c-0.287-0.267-0.43-0.586-0.43-0.96c0-0.44,0.199-0.8,0.6-1.08c0.4-0.28,0.906-0.42,1.52-0.42c0.62,0,1.129,0.14,1.525,0.42
		C325.339,4.37,325.537,4.73,325.537,5.17z M325.957,3.39h-5.079V2.5h5.079V3.39z M322.188,2.12v-0.9h2.52v0.9H322.188z
		 M324.378,5.17c0-0.173-0.091-0.318-0.271-0.435s-0.41-0.175-0.69-0.175c-0.273,0-0.498,0.059-0.675,0.175
		s-0.265,0.262-0.265,0.435c0,0.167,0.09,0.312,0.27,0.435c0.181,0.123,0.403,0.185,0.67,0.185c0.273,0,0.502-0.062,0.686-0.185
		C324.286,5.482,324.378,5.337,324.378,5.17z M327.737,0.68v3.64h1.15v0.96h-1.15v4.31h-1.16V0.68H327.737z"/>
	<path d="M329.457,2.2V1.25h4.689V2.2h-1.699c0.046,0.6,0.256,1.114,0.63,1.54c0.373,0.427,0.826,0.727,1.359,0.9l-0.64,0.93
		c-0.373-0.146-0.743-0.38-1.11-0.7c-0.366-0.32-0.644-0.673-0.83-1.06c-0.126,0.42-0.392,0.822-0.795,1.205
		c-0.403,0.384-0.824,0.648-1.265,0.795l-0.69-0.91c0.634-0.233,1.142-0.583,1.525-1.05c0.384-0.466,0.588-1.017,0.615-1.65H329.457
		z M330.467,6.32h5.86V9.6h-1.181V7.25h-4.68V6.32z M337.587,3.75h-1.271v2.12h-1.18V0.68h1.18v2.11h1.271V3.75z"/>
	<path d="M338.907,2.6c0-0.506,0.275-0.92,0.825-1.24s1.312-0.48,2.285-0.48c0.979,0,1.745,0.16,2.295,0.48s0.825,0.733,0.825,1.24
		c0,0.574-0.337,1.017-1.011,1.33v1.05h1.92v0.93h-8.05V4.98h1.88V3.9C339.23,3.58,338.907,3.147,338.907,2.6z M345.127,7.93
		c0,0.52-0.271,0.928-0.814,1.225c-0.544,0.296-1.306,0.445-2.285,0.445c-0.98,0-1.742-0.148-2.285-0.445
		c-0.543-0.297-0.814-0.705-0.814-1.225c0-0.506,0.271-0.908,0.814-1.205c0.543-0.296,1.302-0.445,2.275-0.445
		c0.979,0,1.743,0.148,2.29,0.445C344.854,7.022,345.127,7.424,345.127,7.93z M340.117,2.6c0,0.24,0.17,0.435,0.51,0.585
		c0.34,0.15,0.804,0.225,1.391,0.225c0.58,0,1.045-0.075,1.395-0.225c0.351-0.15,0.525-0.345,0.525-0.585
		c0-0.247-0.17-0.446-0.51-0.6c-0.341-0.153-0.811-0.23-1.41-0.23c-0.594,0-1.059,0.077-1.396,0.23S340.117,2.354,340.117,2.6z
		 M343.412,8.475c0.344-0.13,0.516-0.308,0.516-0.535s-0.172-0.405-0.516-0.535s-0.809-0.195-1.395-0.195
		c-0.58,0-1.04,0.065-1.38,0.195c-0.341,0.13-0.511,0.309-0.511,0.535s0.17,0.405,0.511,0.535c0.34,0.13,0.8,0.195,1.38,0.195
		C342.604,8.67,343.068,8.605,343.412,8.475z M342.027,4.31c-0.3,0-0.627-0.023-0.98-0.07v0.74h1.91V4.25
		C342.664,4.291,342.354,4.31,342.027,4.31z"/>
	<path d="M250.569,17.38c1.727,0,3.02-0.083,3.88-0.25l0.08,0.61c-0.874,0.167-2.18,0.257-3.92,0.27h-0.8V13.5h4.02v0.63h-3.26v1.25
		h3.189v0.63h-3.189V17.38z M256.56,21.2h-5.74v-2.53h0.76v1.9h4.98V21.2z M257.549,15.96h-1.33v3.14h-0.76v-6.34h0.76v2.56h1.33
		V15.96z"/>
	<path d="M262.469,21.51h-0.76v-3.17h-3.55V17.7h7.89v0.64h-3.58V21.51z M265.729,16.12l-0.36,0.65
		c-0.687-0.14-1.34-0.403-1.96-0.79s-1.057-0.827-1.311-1.32c-0.133,0.327-0.375,0.64-0.725,0.94c-0.35,0.3-0.743,0.552-1.18,0.755
		c-0.437,0.203-0.882,0.348-1.335,0.435l-0.37-0.65c0.859-0.113,1.611-0.415,2.255-0.905c0.644-0.49,0.965-1.028,0.965-1.615v-0.56
		h0.8v0.56c0,0.574,0.337,1.108,1.011,1.605C264.192,15.722,264.929,16.021,265.729,16.12z"/>
	<path d="M272.259,19.14l0.05,0.62c-0.88,0.107-1.843,0.193-2.89,0.26c-0.646,0.04-1.52,0.06-2.62,0.06l-0.14-0.66
		c0.727,0.026,1.51,0.023,2.35-0.01v-0.87c-0.507-0.054-0.911-0.208-1.215-0.465c-0.304-0.256-0.455-0.582-0.455-0.975
		c0-0.453,0.19-0.813,0.57-1.08s0.88-0.4,1.5-0.4c0.626,0,1.128,0.134,1.505,0.4c0.376,0.267,0.564,0.626,0.564,1.08
		c0,0.4-0.153,0.727-0.46,0.98c-0.307,0.253-0.72,0.407-1.239,0.46v0.83C270.886,19.304,271.712,19.227,272.259,19.14z
		 M272.039,15.17h-5.2v-0.63h5.2V15.17z M270.739,17.1c0-0.253-0.122-0.458-0.365-0.615s-0.565-0.235-0.965-0.235
		c-0.394,0-0.715,0.078-0.965,0.235s-0.375,0.362-0.375,0.615c0,0.247,0.125,0.449,0.375,0.605c0.25,0.157,0.571,0.235,0.965,0.235
		c0.399,0,0.722-0.079,0.965-0.235C270.617,17.549,270.739,17.347,270.739,17.1z M270.649,13.83h-2.511v-0.64h2.511V13.83z
		 M274.949,17.291h-1.4v4.21h-0.77v-8.74h0.77v3.88h1.4V17.291z"/>
	<path d="M282.719,21.37h-6.33v-2.01h5.24v-0.72h-5.271v-0.61h2.65v-0.85h-3.55v-0.61h7.89v0.61h-3.58v0.85h2.62v1.9h-5.24v0.8h5.57
		V21.37z M282.349,15.78h-5.88V13.1h5.88V15.78z M281.579,15.15v-1.43h-4.351v1.43H281.579z"/>
	<path d="M291.339,16.97h-4.2v-3.58h4.2V16.97z M294.448,21.05l-0.369,0.6c-0.634-0.074-1.219-0.247-1.756-0.52
		c-0.536-0.273-0.925-0.604-1.165-0.99c-0.22,0.387-0.614,0.72-1.185,1c-0.57,0.28-1.168,0.447-1.795,0.5l-0.311-0.6
		c0.653-0.054,1.267-0.225,1.841-0.515c0.573-0.29,0.913-0.625,1.02-1.005h-2.53v-0.63h5.96v0.63h-2.56
		c0.113,0.373,0.465,0.707,1.055,1C293.243,20.813,293.842,20.99,294.448,21.05z M290.589,16.34v-2.33h-2.7v2.33H290.589z
		 M292.549,18.17h-2.771v-0.65h2.771V18.17z M293.898,17.521h-0.76v-4.76h0.76V17.521z"/>
	<path d="M303.418,18.85l-0.47,0.57c-0.46-0.3-0.911-0.698-1.354-1.195c-0.443-0.497-0.735-0.985-0.875-1.465
		c-0.141,0.527-0.42,1.05-0.84,1.57c-0.421,0.52-0.894,0.95-1.421,1.29l-0.47-0.56c0.674-0.393,1.23-0.941,1.67-1.645
		c0.44-0.704,0.66-1.452,0.66-2.245v-0.9h-2.04v-0.63h4.87v0.63h-2.04v0.89c0,0.773,0.225,1.495,0.675,2.165
		S302.778,18.504,303.418,18.85z M304.429,12.76h0.76v8.74h-0.76V12.76z"/>
	<path d="M306.998,13.93v-0.64h4.84v0.64h-2.05l0.01,0.27c0.007,0.527,0.227,1.014,0.66,1.46c0.434,0.447,0.924,0.76,1.47,0.94
		l-0.42,0.59c-0.434-0.173-0.852-0.44-1.255-0.8c-0.403-0.36-0.691-0.733-0.864-1.12c-0.114,0.407-0.392,0.823-0.835,1.25
		c-0.443,0.426-0.919,0.74-1.426,0.94l-0.43-0.58c0.634-0.22,1.175-0.583,1.625-1.09c0.45-0.507,0.679-1.04,0.686-1.6v-0.26H306.998
		z M314.128,21.44h-6.029v-2.16h4.949v-0.91h-4.949v-0.62h5.709v2.1h-4.939v0.96h5.26V21.44z M313.808,17.271h-0.76v-4.51h0.76
		V17.271z"/>
	<path d="M322.938,17.09l-0.44,0.61c-0.467-0.213-0.89-0.508-1.27-0.885s-0.66-0.785-0.84-1.225c-0.127,0.46-0.396,0.917-0.806,1.37
		c-0.409,0.453-0.854,0.803-1.335,1.05l-0.47-0.61c0.613-0.273,1.135-0.704,1.565-1.29c0.43-0.586,0.645-1.217,0.645-1.89v-0.99
		h0.771v0.96c0,0.68,0.218,1.28,0.654,1.8S322.357,16.877,322.938,17.09z M324.978,21.22h-5.78V18.5h0.76v2.09h5.021V21.22z
		 M325.997,16.07h-1.33v3.04h-0.76v-6.35h0.76v2.67h1.33V16.07z"/>
	<path d="M332.048,19.14l0.05,0.62c-0.88,0.107-1.844,0.193-2.89,0.26c-0.646,0.04-1.521,0.06-2.62,0.06l-0.14-0.66
		c0.727,0.026,1.51,0.023,2.35-0.01v-0.87c-0.507-0.054-0.912-0.208-1.215-0.465c-0.304-0.256-0.455-0.582-0.455-0.975
		c0-0.453,0.189-0.813,0.57-1.08c0.38-0.267,0.88-0.4,1.5-0.4c0.626,0,1.128,0.134,1.505,0.4c0.376,0.267,0.564,0.626,0.564,1.08
		c0,0.4-0.153,0.727-0.46,0.98c-0.307,0.253-0.72,0.407-1.24,0.46v0.83C330.675,19.304,331.501,19.227,332.048,19.14z
		 M331.828,15.17h-5.2v-0.63h5.2V15.17z M330.527,17.1c0-0.253-0.121-0.458-0.364-0.615c-0.244-0.157-0.565-0.235-0.965-0.235
		c-0.394,0-0.716,0.078-0.966,0.235s-0.375,0.362-0.375,0.615c0,0.247,0.125,0.449,0.375,0.605c0.25,0.157,0.572,0.235,0.966,0.235
		c0.399,0,0.721-0.079,0.965-0.235C330.406,17.549,330.527,17.347,330.527,17.1z M330.438,13.83h-2.51v-0.64h2.51V13.83z
		 M334.737,17.291h-1.399v4.21h-0.771v-8.74h0.771v3.88h1.399V17.291z"/>
</g>
<g>
	<path d="M260.771,191.098l-2.42-6.859h1.29l1.8,5.3h0.03l1.79-5.3h1.15l-2.421,6.859H260.771z"/>
	<path d="M265.291,185.098v-1.05h1.17v1.05H265.291z M265.291,191.098v-5.149h1.159v5.149H265.291z"/>
	<path d="M269.601,191.158c-0.974,0-1.46-0.443-1.46-1.33v-2.98h-0.721v-0.899h0.721v-1.21h1.13v1.21h1.229v0.899h-1.229v2.82
		c0,0.22,0.05,0.373,0.149,0.46c0.101,0.087,0.284,0.13,0.551,0.13c0.199,0,0.396-0.026,0.59-0.08v0.771
		C270.28,191.088,269.96,191.158,269.601,191.158z"/>
	<path d="M272.9,191.188c-0.479,0-0.863-0.124-1.15-0.37c-0.286-0.247-0.43-0.61-0.43-1.09c0-0.867,0.55-1.381,1.65-1.54l1.21-0.141
		v-0.39c0-0.34-0.085-0.568-0.255-0.686c-0.17-0.116-0.479-0.175-0.926-0.175c-0.42,0-0.836,0.047-1.25,0.141v-0.79
		c0.474-0.187,1.04-0.28,1.7-0.28c1.254,0,1.88,0.51,1.88,1.53v3.699h-0.949l-0.091-0.42h-0.06
		C273.937,191.018,273.494,191.188,272.9,191.188z M273.25,190.378c0.4,0,0.71-0.104,0.931-0.31v-1.271l-0.95,0.101
		c-0.26,0.02-0.455,0.09-0.585,0.21s-0.195,0.307-0.195,0.56c0,0.233,0.072,0.41,0.215,0.53
		C272.809,190.318,273.004,190.378,273.25,190.378z"/>
	<path d="M276.671,191.098v-5.149h1.109v0.46h0.04c0.521-0.367,1.043-0.55,1.57-0.55c0.593,0,1,0.193,1.22,0.58h0.061
		c0.566-0.387,1.13-0.58,1.689-0.58c0.474,0,0.828,0.111,1.065,0.335c0.236,0.223,0.354,0.581,0.354,1.074v3.83h-1.14v-3.56
		c0-0.26-0.059-0.445-0.175-0.555c-0.117-0.11-0.322-0.165-0.615-0.165c-0.313,0-0.67,0.097-1.07,0.29
		c0.014,0.106,0.021,0.183,0.021,0.229v3.76h-1.13v-3.56c0-0.26-0.061-0.445-0.181-0.555c-0.12-0.11-0.323-0.165-0.609-0.165
		c-0.347,0-0.7,0.093-1.061,0.279v4H276.671z"/>
	<path d="M285.131,185.098v-1.05h1.17v1.05H285.131z M285.131,191.098v-5.149h1.159v5.149H285.131z"/>
	<path d="M287.681,191.098v-5.149h1.109v0.46h0.04c0.507-0.367,1.07-0.55,1.69-0.55c0.506,0,0.883,0.111,1.13,0.335
		c0.246,0.223,0.37,0.585,0.37,1.085v3.819h-1.16v-3.55c0-0.267-0.061-0.455-0.18-0.564c-0.12-0.11-0.351-0.165-0.69-0.165
		c-0.387,0-0.773,0.093-1.16,0.279v4H287.681z"/>
	<path d="M296.11,191.098v-6.859h2.399c1.507,0,2.261,0.576,2.261,1.729c0,0.761-0.374,1.261-1.12,1.5v0.03
		c0.946,0.174,1.42,0.72,1.42,1.64c0,0.594-0.204,1.068-0.61,1.426c-0.406,0.356-1,0.534-1.78,0.534H296.11z M297.33,187.158h0.96
		c0.84,0,1.26-0.34,1.26-1.021c0-0.359-0.099-0.614-0.295-0.765s-0.502-0.225-0.915-0.225h-1.01V187.158z M297.33,190.178h1.18
		c0.847,0,1.271-0.37,1.271-1.109c0-0.387-0.112-0.665-0.335-0.835c-0.224-0.17-0.559-0.255-1.005-0.255h-1.11V190.178z"/>
	<path d="M311.46,183.788c0,1.479-0.094,2.59-0.28,3.33h1.311v0.93h-3.45v2.19h-1.17v-2.19h-3.431v-0.93h5.61
		c0.174-0.68,0.253-1.477,0.24-2.39h-4.811v-0.94H311.46z M311.57,192.058h-6.101v-2.829h1.16v1.909h4.94V192.058z"/>
	<path d="M316.18,187.008v-1.18h1.22v1.18H316.18z M316.18,190.628v-1.18h1.22v1.18H316.18z"/>
	<path d="M265.581,198.698h-2.511v0.859h3.45v0.931h-8.05v-0.931h3.42v-0.859h-2.35v-3.11h5.97v0.94h-4.8v1.239h4.87V198.698z
		 M265.601,202.638c0,0.521-0.271,0.929-0.814,1.226c-0.544,0.296-1.306,0.444-2.285,0.444c-0.98,0-1.742-0.148-2.285-0.444
		c-0.544-0.297-0.815-0.705-0.815-1.226c0-0.513,0.271-0.918,0.815-1.215c0.543-0.296,1.302-0.444,2.274-0.444
		c0.98,0,1.744,0.148,2.29,0.444C265.327,201.72,265.601,202.125,265.601,202.638z M263.886,203.183
		c0.343-0.13,0.515-0.308,0.515-0.534s-0.173-0.407-0.52-0.54c-0.347-0.134-0.811-0.2-1.391-0.2c-0.579,0-1.04,0.066-1.38,0.2
		c-0.34,0.133-0.51,0.313-0.51,0.54s0.17,0.404,0.51,0.534c0.34,0.131,0.801,0.195,1.38,0.195
		C263.077,203.378,263.542,203.313,263.886,203.183z"/>
	<path d="M271.961,199.878c0,0.367-0.136,0.679-0.405,0.936c-0.271,0.256-0.632,0.432-1.085,0.524v0.58
		c0.953-0.06,1.63-0.116,2.03-0.17c0,0.026,0.011,0.153,0.034,0.38s0.042,0.396,0.056,0.51c-0.867,0.127-1.87,0.221-3.011,0.28
		c-0.946,0.04-1.736,0.061-2.369,0.061l-0.16-0.971c1,0,1.746-0.01,2.24-0.029v-0.631c-0.474-0.073-0.854-0.243-1.141-0.51
		c-0.286-0.267-0.43-0.586-0.43-0.96c0-0.439,0.2-0.8,0.6-1.08c0.4-0.28,0.907-0.42,1.521-0.42c0.62,0,1.128,0.14,1.524,0.42
		S271.961,199.438,271.961,199.878z M272.381,198.098h-5.08v-0.89h5.08V198.098z M268.61,196.828v-0.9h2.521v0.9H268.61z
		 M270.801,199.878c0-0.173-0.09-0.318-0.271-0.435c-0.18-0.117-0.41-0.176-0.689-0.176c-0.273,0-0.499,0.059-0.675,0.176
		c-0.177,0.116-0.266,0.262-0.266,0.435c0,0.167,0.09,0.312,0.271,0.436c0.18,0.123,0.403,0.185,0.67,0.185
		c0.273,0,0.501-0.062,0.685-0.185C270.709,200.189,270.801,200.045,270.801,199.878z M274.16,195.388v3.641h1.15v0.96h-1.15v4.31
		h-1.159v-8.91H274.16z"/>
	<path d="M275.881,196.908v-0.95h4.689v0.95h-1.7c0.047,0.6,0.257,1.113,0.63,1.54c0.374,0.427,0.827,0.727,1.36,0.899l-0.64,0.931
		c-0.374-0.146-0.744-0.38-1.11-0.7s-0.644-0.674-0.83-1.061c-0.127,0.421-0.392,0.822-0.795,1.205
		c-0.403,0.384-0.825,0.648-1.265,0.795l-0.69-0.909c0.634-0.233,1.142-0.584,1.525-1.051c0.383-0.466,0.588-1.017,0.615-1.649
		H275.881z M276.891,201.028h5.859v3.279h-1.18v-2.35h-4.68V201.028z M284.011,198.458h-1.271v2.12h-1.18v-5.19h1.18v2.11h1.271
		V198.458z"/>
	<path d="M285.33,197.308c0-0.506,0.275-0.92,0.825-1.239c0.55-0.32,1.312-0.48,2.285-0.48c0.979,0,1.745,0.16,2.295,0.48
		c0.55,0.319,0.825,0.733,0.825,1.239c0,0.574-0.337,1.018-1.01,1.33v1.051h1.92v0.93h-8.051v-0.93h1.881v-1.08
		C285.653,198.288,285.33,197.854,285.33,197.308z M291.551,202.638c0,0.521-0.272,0.929-0.815,1.226
		c-0.543,0.296-1.305,0.444-2.285,0.444c-0.979,0-1.741-0.148-2.285-0.444c-0.543-0.297-0.814-0.705-0.814-1.226
		c0-0.506,0.271-0.908,0.814-1.205c0.544-0.296,1.302-0.444,2.275-0.444c0.979,0,1.743,0.148,2.29,0.444
		C291.277,201.729,291.551,202.132,291.551,202.638z M286.54,197.308c0,0.24,0.17,0.436,0.511,0.585
		c0.34,0.15,0.803,0.226,1.39,0.226c0.58,0,1.045-0.075,1.395-0.226c0.351-0.149,0.525-0.345,0.525-0.585
		c0-0.246-0.17-0.446-0.51-0.6s-0.811-0.229-1.41-0.229c-0.594,0-1.059,0.076-1.396,0.229
		C286.709,196.861,286.54,197.062,286.54,197.308z M289.835,203.183c0.344-0.13,0.516-0.308,0.516-0.534s-0.172-0.405-0.516-0.535
		c-0.343-0.13-0.808-0.195-1.395-0.195c-0.58,0-1.04,0.065-1.38,0.195s-0.51,0.309-0.51,0.535s0.17,0.404,0.51,0.534
		c0.34,0.131,0.8,0.195,1.38,0.195C289.027,203.378,289.492,203.313,289.835,203.183z M288.45,199.018
		c-0.3,0-0.627-0.022-0.979-0.069v0.74h1.909v-0.73C289.087,198.998,288.777,199.018,288.45,199.018z"/>
	<path d="M259.61,212.088c1.727,0,3.021-0.083,3.88-0.25l0.08,0.61c-0.873,0.167-2.18,0.257-3.92,0.27h-0.8v-4.51h4.021v0.63h-3.261
		v1.25h3.19v0.63h-3.19V212.088z M265.601,215.908h-5.74v-2.53h0.761v1.9h4.979V215.908z M266.591,210.668h-1.33v3.14h-0.76v-6.34
		h0.76v2.561h1.33V210.668z"/>
	<path d="M271.511,216.218h-0.76v-3.17H267.2v-0.64h7.891v0.64h-3.58V216.218z M274.771,210.828l-0.36,0.65
		c-0.687-0.141-1.34-0.403-1.96-0.79s-1.057-0.827-1.31-1.32c-0.134,0.326-0.375,0.64-0.725,0.939
		c-0.351,0.301-0.744,0.552-1.181,0.756c-0.437,0.203-0.882,0.348-1.335,0.435l-0.37-0.65c0.86-0.113,1.612-0.415,2.255-0.904
		c0.644-0.49,0.966-1.028,0.966-1.615v-0.561h0.8v0.561c0,0.573,0.336,1.108,1.01,1.604
		C273.233,210.43,273.971,210.729,274.771,210.828z"/>
	<path d="M281.301,213.848l0.05,0.62c-0.88,0.107-1.844,0.193-2.89,0.261c-0.647,0.039-1.521,0.06-2.62,0.06l-0.141-0.66
		c0.727,0.026,1.511,0.023,2.351-0.01v-0.87c-0.507-0.054-0.912-0.208-1.215-0.465c-0.304-0.257-0.455-0.582-0.455-0.976
		c0-0.453,0.189-0.812,0.569-1.079s0.88-0.4,1.5-0.4c0.627,0,1.129,0.134,1.505,0.4c0.377,0.267,0.565,0.626,0.565,1.079
		c0,0.4-0.153,0.728-0.46,0.98s-0.72,0.406-1.24,0.46v0.83C279.927,214.012,280.754,213.935,281.301,213.848z M281.08,209.878
		h-5.199v-0.63h5.199V209.878z M279.78,211.808c0-0.253-0.121-0.458-0.365-0.614c-0.243-0.157-0.564-0.235-0.965-0.235
		c-0.394,0-0.715,0.078-0.965,0.235c-0.25,0.156-0.375,0.361-0.375,0.614c0,0.247,0.125,0.449,0.375,0.605s0.571,0.235,0.965,0.235
		c0.4,0,0.722-0.079,0.965-0.235C279.659,212.257,279.78,212.055,279.78,211.808z M279.69,208.538h-2.51v-0.64h2.51V208.538z
		 M283.99,211.998h-1.399v4.21h-0.771v-8.74h0.771v3.88h1.399V211.998z"/>
	<path d="M291.761,216.078h-6.33v-2.01h5.239v-0.721h-5.27v-0.609h2.65v-0.851H284.5v-0.609h7.891v0.609h-3.58v0.851h2.62v1.899
		h-5.24v0.801h5.57V216.078z M291.391,210.488h-5.88v-2.681h5.88V210.488z M290.62,209.858v-1.431h-4.35v1.431H290.62z"/>
	<path d="M300.83,209.458h-5.09v-0.62h5.09V209.458z M300.32,211.229c0,0.426-0.188,0.768-0.565,1.024
		c-0.376,0.257-0.864,0.385-1.465,0.385c-0.6,0-1.088-0.128-1.465-0.385s-0.565-0.599-0.565-1.024c0-0.434,0.186-0.778,0.556-1.035
		s0.861-0.386,1.475-0.386c0.601,0,1.089,0.129,1.465,0.386C300.132,210.45,300.32,210.795,300.32,211.229z M302.5,216.148H297
		v-3.181h0.76v0.931h3.98v-0.94h0.76V216.148z M299.55,211.229c0-0.247-0.121-0.443-0.364-0.591c-0.244-0.146-0.542-0.22-0.896-0.22
		s-0.655,0.073-0.905,0.22c-0.25,0.147-0.375,0.344-0.375,0.591c0,0.239,0.127,0.435,0.381,0.585
		c0.253,0.149,0.553,0.225,0.899,0.225c0.354,0,0.651-0.075,0.896-0.225C299.429,211.663,299.55,211.468,299.55,211.229z
		 M299.55,208.229h-2.52v-0.641h2.52V208.229z M301.74,215.508v-0.979h-3.98v0.979H301.74z M303.83,210.578h-1.33v1.96h-0.76v-5.07
		h0.76v2.471h1.33V210.578z"/>
	<path d="M309.4,211.628l-0.45,0.59c-0.447-0.213-0.86-0.501-1.24-0.864s-0.65-0.752-0.81-1.165
		c-0.134,0.453-0.392,0.892-0.775,1.314c-0.384,0.424-0.828,0.762-1.335,1.015l-0.47-0.59c0.653-0.3,1.178-0.722,1.575-1.265
		c0.396-0.543,0.595-1.151,0.595-1.825v-0.87h0.77v0.851c0,0.653,0.219,1.234,0.655,1.745
		C308.352,211.073,308.847,211.428,309.4,211.628z M310.896,213.338c0.51,0.294,0.765,0.697,0.765,1.21
		c0,0.514-0.255,0.917-0.765,1.21c-0.511,0.294-1.232,0.44-2.165,0.44c-0.927,0-1.646-0.146-2.155-0.44
		c-0.51-0.293-0.766-0.696-0.766-1.21c0-0.513,0.256-0.916,0.766-1.21c0.51-0.293,1.229-0.439,2.155-0.439
		C309.663,212.898,310.385,213.045,310.896,213.338z M308.73,213.518c-0.674,0-1.2,0.091-1.58,0.271s-0.57,0.434-0.57,0.76
		c0,0.327,0.19,0.58,0.57,0.76c0.38,0.181,0.906,0.271,1.58,0.271c0.68,0,1.21-0.09,1.59-0.271c0.38-0.18,0.569-0.433,0.569-0.76
		c0-0.326-0.189-0.58-0.569-0.76S309.41,213.518,308.73,213.518z M310.81,210.108h-1.88v-0.63h1.88v-2.011h0.761v5.431h-0.761
		V210.108z"/>
	<path d="M263.95,225.558l-0.47,0.57c-0.46-0.3-0.911-0.698-1.354-1.195c-0.443-0.496-0.735-0.984-0.875-1.465
		c-0.141,0.527-0.42,1.05-0.84,1.57c-0.421,0.52-0.894,0.95-1.421,1.29l-0.47-0.561c0.674-0.393,1.23-0.941,1.67-1.645
		c0.44-0.703,0.66-1.451,0.66-2.245v-0.899h-2.04v-0.631h4.87v0.631h-2.04v0.89c0,0.773,0.225,1.495,0.675,2.165
		S263.311,225.212,263.95,225.558z M264.961,219.468h0.76v8.74h-0.76V219.468z"/>
	<path d="M267.53,220.638v-0.64h4.84v0.64h-2.05l0.01,0.271c0.007,0.526,0.227,1.014,0.66,1.46s0.924,0.76,1.471,0.939l-0.42,0.591
		c-0.434-0.174-0.853-0.44-1.256-0.801c-0.403-0.359-0.691-0.732-0.864-1.119c-0.114,0.406-0.392,0.823-0.835,1.25
		c-0.443,0.426-0.919,0.739-1.426,0.939l-0.43-0.58c0.634-0.22,1.175-0.583,1.625-1.09s0.679-1.04,0.686-1.6v-0.261H267.53z
		 M274.66,228.148h-6.029v-2.16h4.949v-0.91h-4.949v-0.62h5.71v2.1h-4.94v0.96h5.26V228.148z M274.341,223.979h-0.761v-4.511h0.761
		V223.979z"/>
	<path d="M283.53,221.458h-5.09v-0.62h5.09V221.458z M283.021,223.229c0,0.426-0.188,0.768-0.565,1.024
		c-0.376,0.257-0.864,0.385-1.465,0.385c-0.6,0-1.088-0.128-1.465-0.385s-0.565-0.599-0.565-1.024c0-0.434,0.186-0.778,0.556-1.035
		s0.861-0.386,1.475-0.386c0.601,0,1.089,0.129,1.465,0.386C282.832,222.45,283.021,222.795,283.021,223.229z M285.2,228.148h-5.5
		v-3.181h0.76v0.931h3.98v-0.94h0.76V228.148z M282.25,223.229c0-0.247-0.121-0.443-0.364-0.591c-0.244-0.146-0.542-0.22-0.896-0.22
		s-0.655,0.073-0.905,0.22c-0.25,0.147-0.375,0.344-0.375,0.591c0,0.239,0.127,0.435,0.381,0.585
		c0.253,0.149,0.553,0.225,0.899,0.225c0.354,0,0.651-0.075,0.896-0.225C282.129,223.663,282.25,223.468,282.25,223.229z
		 M282.25,220.229h-2.52v-0.641h2.52V220.229z M284.44,227.508v-0.979h-3.98v0.979H284.44z M286.53,222.578h-1.33v1.96h-0.76v-5.07
		h0.76v2.471h1.33V222.578z"/>
	<path d="M292.101,223.628l-0.45,0.59c-0.447-0.213-0.86-0.501-1.24-0.864s-0.65-0.752-0.81-1.165
		c-0.134,0.453-0.392,0.892-0.775,1.314c-0.384,0.424-0.828,0.762-1.335,1.015l-0.47-0.59c0.653-0.3,1.178-0.722,1.575-1.265
		c0.396-0.543,0.595-1.151,0.595-1.825v-0.87h0.77v0.851c0,0.653,0.219,1.234,0.655,1.745
		C291.052,223.073,291.547,223.428,292.101,223.628z M293.596,225.338c0.51,0.294,0.765,0.697,0.765,1.21
		c0,0.514-0.255,0.917-0.765,1.21c-0.511,0.294-1.232,0.44-2.165,0.44c-0.927,0-1.646-0.146-2.155-0.44
		c-0.51-0.293-0.766-0.696-0.766-1.21c0-0.513,0.256-0.916,0.766-1.21c0.51-0.293,1.229-0.439,2.155-0.439
		C292.363,224.898,293.085,225.045,293.596,225.338z M291.431,225.518c-0.674,0-1.2,0.091-1.58,0.271s-0.57,0.434-0.57,0.76
		c0,0.327,0.19,0.58,0.57,0.76c0.38,0.181,0.906,0.271,1.58,0.271c0.68,0,1.21-0.09,1.59-0.271c0.38-0.18,0.569-0.433,0.569-0.76
		c0-0.326-0.189-0.58-0.569-0.76S292.11,225.518,291.431,225.518z M293.51,222.108h-1.88v-0.63h1.88v-2.011h0.761v5.431h-0.761
		V222.108z"/>
	<path d="M261.371,240.218h-0.771v-3.229h-2.05v-0.641h7.89v0.641h-2.08v3.229h-0.77v-3.229h-2.22V240.218z M265.45,235.008h-5.85
		v-3.09h0.76v2.45h5.09V235.008z"/>
	<path d="M274.03,231.878c0,1.273-0.093,2.34-0.279,3.2h1.34v0.62H267.2v-0.62h5.79c0.101-0.427,0.164-0.833,0.19-1.22l-5.15,0.239
		l-0.12-0.64l5.32-0.2c0.014-0.347,0.021-0.597,0.021-0.75h-5.091v-0.63H274.03z M274.44,240.048h-6.34v-2.09h5.24v-0.83h-5.271
		v-0.62h6.03v2.01h-5.24v0.91h5.58V240.048z"/>
	<path d="M279.83,237.188l0.101,0.64c-0.8,0.16-1.83,0.24-3.09,0.24h-0.75v-3.271h2.439v-1.729h-2.46v-0.63h3.23v2.989h-2.45v1.99
		C278.057,237.418,279.051,237.342,279.83,237.188z M281.57,239.758h-0.74v-4.26h-1.13v-0.63h1.13v-3.19h0.74V239.758z
		 M283.25,240.208h-0.739v-8.74h0.739V240.208z"/>
	<path d="M291.591,234.398c0,0.666-0.252,1.213-0.756,1.64c-0.503,0.427-1.178,0.667-2.024,0.72v1.66h3.58v0.64H284.5v-0.64h3.551
		v-1.66c-0.841-0.06-1.511-0.302-2.011-0.725c-0.5-0.424-0.75-0.969-0.75-1.635c0-0.721,0.289-1.297,0.865-1.73
		s1.335-0.65,2.275-0.65c0.953,0,1.718,0.217,2.295,0.65C291.302,233.102,291.591,233.678,291.591,234.398z M290.195,235.673
		c0.443-0.316,0.665-0.738,0.665-1.265s-0.22-0.95-0.66-1.271c-0.439-0.319-1.03-0.479-1.77-0.479c-0.727,0-1.309,0.16-1.745,0.479
		c-0.437,0.32-0.655,0.744-0.655,1.271s0.219,0.948,0.655,1.265c0.437,0.317,1.019,0.476,1.745,0.476
		C289.164,236.148,289.752,235.99,290.195,235.673z"/>
	<path d="M294.24,237.498c1.887,0,3.26-0.1,4.12-0.3l0.09,0.64c-1.16,0.214-2.58,0.32-4.26,0.32h-0.72v-5.88h4.189v0.63h-3.42v1.85
		h3.23v0.62h-3.23V237.498z M299.86,231.468v3.471h1.41v0.64h-1.41v4.63h-0.75v-8.74H299.86z"/>
	<path d="M302.09,235.208c0-0.934,0.198-1.68,0.596-2.24c0.396-0.56,0.948-0.84,1.654-0.84c0.714,0,1.269,0.28,1.665,0.84
		c0.396,0.561,0.596,1.311,0.596,2.25c0,0.94-0.199,1.69-0.596,2.25c-0.396,0.561-0.951,0.84-1.665,0.84
		c-0.706,0-1.258-0.279-1.654-0.84C302.288,236.908,302.09,236.154,302.09,235.208z M305.455,236.973
		c0.283-0.449,0.425-1.034,0.425-1.755c0-0.72-0.142-1.305-0.425-1.755s-0.655-0.675-1.115-0.675s-0.83,0.225-1.109,0.675
		c-0.28,0.45-0.42,1.035-0.42,1.755c0,0.721,0.14,1.306,0.42,1.755c0.279,0.45,0.649,0.676,1.109,0.676
		S305.172,237.423,305.455,236.973z M308.99,240.208h-0.76v-8.74h0.76V240.208z"/>
	<path d="M318.34,239.008h-7.89v-0.64h7.89V239.008z M317.39,236.448h-5.949v-4.11h5.87v0.63h-5.11v2.851h5.189V236.448z"/>
	<path d="M326.779,233.458h-5.09v-0.62h5.09V233.458z M326.27,235.229c0,0.426-0.188,0.768-0.564,1.024
		c-0.377,0.257-0.865,0.385-1.466,0.385c-0.6,0-1.088-0.128-1.465-0.385s-0.564-0.599-0.564-1.024c0-0.434,0.185-0.778,0.555-1.035
		s0.861-0.386,1.475-0.386c0.601,0,1.089,0.129,1.466,0.386C326.081,234.45,326.27,234.795,326.27,235.229z M328.449,240.148h-5.5
		v-3.181h0.761v0.931h3.979v-0.94h0.76V240.148z M325.5,235.229c0-0.247-0.122-0.443-0.365-0.591
		c-0.243-0.146-0.542-0.22-0.896-0.22s-0.654,0.073-0.904,0.22c-0.25,0.147-0.375,0.344-0.375,0.591c0,0.239,0.126,0.435,0.38,0.585
		c0.253,0.149,0.553,0.225,0.899,0.225c0.354,0,0.652-0.075,0.896-0.225C325.378,235.663,325.5,235.468,325.5,235.229z
		 M325.5,232.229h-2.521v-0.641h2.521V232.229z M327.689,239.508v-0.979h-3.979v0.979H327.689z M329.779,234.578h-1.33v1.96h-0.76
		v-5.07h0.76v2.471h1.33V234.578z"/>
	<path d="M335.35,235.628l-0.449,0.59c-0.447-0.213-0.86-0.501-1.24-0.864s-0.65-0.752-0.811-1.165
		c-0.133,0.453-0.392,0.892-0.774,1.314c-0.384,0.424-0.829,0.762-1.335,1.015l-0.471-0.59c0.653-0.3,1.179-0.722,1.575-1.265
		s0.596-1.151,0.596-1.825v-0.87h0.77v0.851c0,0.653,0.219,1.234,0.655,1.745C334.302,235.073,334.797,235.428,335.35,235.628z
		 M336.845,237.338c0.511,0.294,0.766,0.697,0.766,1.21c0,0.514-0.255,0.917-0.766,1.21c-0.51,0.294-1.231,0.44-2.165,0.44
		c-0.927,0-1.645-0.146-2.154-0.44c-0.511-0.293-0.766-0.696-0.766-1.21c0-0.513,0.255-0.916,0.766-1.21
		c0.51-0.293,1.228-0.439,2.154-0.439C335.613,236.898,336.335,237.045,336.845,237.338z M334.68,237.518
		c-0.673,0-1.199,0.091-1.58,0.271c-0.38,0.18-0.569,0.434-0.569,0.76c0,0.327,0.189,0.58,0.569,0.76
		c0.381,0.181,0.907,0.271,1.58,0.271c0.681,0,1.21-0.09,1.59-0.271c0.381-0.18,0.57-0.433,0.57-0.76c0-0.326-0.189-0.58-0.57-0.76
		C335.89,237.608,335.36,237.518,334.68,237.518z M336.76,234.108h-1.88v-0.63h1.88v-2.011h0.76v5.431h-0.76V234.108z"/>
	<path d="M259.61,247.758h0.431c1.439,0,2.636-0.097,3.59-0.29l0.069,0.62c-1.14,0.2-2.52,0.3-4.14,0.3h-0.71v-4.14h4.01v0.64h-3.25
		V247.758z M265.601,251.908h-5.77v-2.67h0.77v2.04h5V251.908z M266.591,246.638h-1.33v3.17h-0.76v-6.34h0.76v2.53h1.33V246.638z"/>
	<path d="M271.03,248.138h-3.51v-4.09h0.74v1.351h2.03v-1.351h0.739V248.138z M270.291,247.508v-1.479h-2.03v1.479H270.291z
		 M274.57,252.208h-0.779v-2.45h-5.131v-0.63h5.91V252.208z M274.57,248.658h-0.76v-2.33h-1.08v2.27h-0.729v-4.97h0.729v2.07h1.08
		v-2.23h0.76V248.658z"/>
	<path d="M276.181,244.638v-0.64h4.84v0.64h-2.05l0.01,0.271c0.007,0.526,0.227,1.014,0.66,1.46s0.923,0.76,1.47,0.939l-0.42,0.591
		c-0.434-0.174-0.852-0.44-1.255-0.801c-0.403-0.359-0.691-0.732-0.865-1.119c-0.113,0.406-0.392,0.823-0.835,1.25
		c-0.443,0.426-0.918,0.739-1.425,0.939l-0.43-0.58c0.633-0.22,1.175-0.583,1.625-1.09c0.449-0.507,0.678-1.04,0.685-1.6v-0.261
		H276.181z M283.311,252.148h-6.03v-2.16h4.95v-0.91h-4.95v-0.62h5.71v2.1h-4.939v0.96h5.26V252.148z M282.99,247.979h-0.76v-4.511
		h0.76V247.979z"/>
	<path d="M292.181,245.458h-5.091v-0.62h5.091V245.458z M291.67,247.229c0,0.426-0.188,0.768-0.564,1.024
		c-0.377,0.257-0.865,0.385-1.465,0.385c-0.601,0-1.089-0.128-1.466-0.385c-0.376-0.257-0.564-0.599-0.564-1.024
		c0-0.434,0.185-0.778,0.555-1.035s0.861-0.386,1.476-0.386c0.6,0,1.088,0.129,1.465,0.386
		C291.481,246.45,291.67,246.795,291.67,247.229z M293.851,252.148h-5.5v-3.181h0.76v0.931h3.979v-0.94h0.761V252.148z
		 M290.9,247.229c0-0.247-0.122-0.443-0.365-0.591c-0.243-0.146-0.542-0.22-0.895-0.22c-0.354,0-0.655,0.073-0.905,0.22
		c-0.25,0.147-0.375,0.344-0.375,0.591c0,0.239,0.126,0.435,0.38,0.585c0.253,0.149,0.554,0.225,0.9,0.225
		c0.353,0,0.651-0.075,0.895-0.225C290.778,247.663,290.9,247.468,290.9,247.229z M290.9,244.229h-2.521v-0.641h2.521V244.229z
		 M293.09,251.508v-0.979h-3.979v0.979H293.09z M295.181,246.578h-1.33v1.96h-0.761v-5.07h0.761v2.471h1.33V246.578z"/>
	<path d="M300.75,247.628l-0.45,0.59c-0.446-0.213-0.859-0.501-1.239-0.864c-0.381-0.363-0.65-0.752-0.811-1.165
		c-0.133,0.453-0.392,0.892-0.774,1.314c-0.384,0.424-0.829,0.762-1.335,1.015l-0.471-0.59c0.653-0.3,1.179-0.722,1.575-1.265
		s0.595-1.151,0.595-1.825v-0.87h0.771v0.851c0,0.653,0.218,1.234,0.655,1.745C299.702,247.073,300.196,247.428,300.75,247.628z
		 M302.245,249.338c0.51,0.294,0.765,0.697,0.765,1.21c0,0.514-0.255,0.917-0.765,1.21c-0.51,0.294-1.231,0.44-2.165,0.44
		c-0.927,0-1.645-0.146-2.155-0.44c-0.51-0.293-0.765-0.696-0.765-1.21c0-0.513,0.255-0.916,0.765-1.21
		c0.511-0.293,1.229-0.439,2.155-0.439C301.014,248.898,301.735,249.045,302.245,249.338z M300.08,249.518
		c-0.674,0-1.2,0.091-1.58,0.271s-0.57,0.434-0.57,0.76c0,0.327,0.19,0.58,0.57,0.76c0.38,0.181,0.906,0.271,1.58,0.271
		c0.68,0,1.21-0.09,1.59-0.271c0.38-0.18,0.57-0.433,0.57-0.76c0-0.326-0.19-0.58-0.57-0.76S300.76,249.518,300.08,249.518z
		 M302.16,246.108h-1.88v-0.63h1.88v-2.011h0.76v5.431h-0.76V246.108z"/>
</g>
<g>
	<polyline fill="none" stroke="#000000" stroke-width="0.9798" stroke-miterlimit="10" points="350.62,94.789 374.815,95.13 
		374.682,104.604 404.724,79.293 375.408,53.144 375.274,62.617 351.079,62.276 	"/>
</g>
<g>
	<g>
		<path d="M410.972,84.245l2.498-7.143h2.137l2.477,7.143h-2.041l-0.479-1.414h-2.338l-0.446,1.414H410.972z M414.363,79.175
			l-0.755,2.371h1.552l-0.755-2.371H414.363z"/>
		<path d="M418.784,85.839v-7.068h1.743v0.457h0.053c0.383-0.368,0.911-0.553,1.584-0.553c0.603,0,1.097,0.206,1.482,0.617
			c0.387,0.411,0.58,1.081,0.58,2.009v0.127c0,1.942-0.844,2.913-2.53,2.913c-0.433,0-0.801-0.064-1.105-0.191v1.69H418.784z
			 M421.346,83.108c0.347,0,0.605-0.104,0.775-0.314c0.171-0.209,0.256-0.593,0.256-1.153v-0.17c0-0.538-0.078-0.909-0.234-1.111
			c-0.155-0.202-0.4-0.303-0.733-0.303s-0.605,0.071-0.818,0.212v2.636C420.789,83.041,421.041,83.108,421.346,83.108z"/>
		<path d="M427.724,84.341c-0.907,0-1.6-0.237-2.078-0.712c-0.479-0.475-0.718-1.155-0.718-2.041V81.46
			c0-0.899,0.259-1.59,0.776-2.072c0.517-0.482,1.19-0.723,2.02-0.723c0.907,0,1.6,0.234,2.078,0.702
			c0.478,0.468,0.717,1.148,0.717,2.041v0.127c0,0.907-0.259,1.602-0.775,2.083C429.226,84.1,428.553,84.341,427.724,84.341z
			 M427.734,83.097c0.305,0,0.534-0.112,0.69-0.335s0.234-0.604,0.234-1.143v-0.191c0-0.602-0.08-1.008-0.239-1.217
			c-0.16-0.209-0.396-0.313-0.707-0.313s-0.546,0.111-0.701,0.334c-0.156,0.223-0.234,0.604-0.234,1.143v0.202
			c0,0.588,0.081,0.988,0.244,1.201C427.185,82.991,427.422,83.097,427.734,83.097z"/>
		<path d="M431.412,85.839v-7.068h1.743v0.457h0.053c0.383-0.368,0.911-0.553,1.584-0.553c0.603,0,1.097,0.206,1.482,0.617
			c0.387,0.411,0.58,1.081,0.58,2.009v0.127c0,1.942-0.844,2.913-2.53,2.913c-0.433,0-0.801-0.064-1.105-0.191v1.69H431.412z
			 M433.974,83.108c0.347,0,0.605-0.104,0.775-0.314c0.171-0.209,0.256-0.593,0.256-1.153v-0.17c0-0.538-0.078-0.909-0.234-1.111
			c-0.155-0.202-0.4-0.303-0.733-0.303s-0.605,0.071-0.818,0.212v2.636C433.417,83.041,433.669,83.108,433.974,83.108z"/>
		<path d="M439.883,84.319c-0.581,0-1.017-0.117-1.308-0.351c-0.29-0.234-0.436-0.638-0.436-1.212v-2.731h-0.681v-1.254h0.681
			v-1.297h1.817v1.297h1.105v1.254h-1.105v2.466c0,0.191,0.044,0.323,0.133,0.393c0.089,0.071,0.243,0.106,0.463,0.106
			c0.198,0,0.379-0.018,0.542-0.053v1.169C440.797,84.249,440.393,84.319,439.883,84.319z"/>
		<path d="M444.592,84.341c-0.907,0-1.6-0.237-2.078-0.712c-0.479-0.475-0.718-1.155-0.718-2.041V81.46
			c0-0.899,0.259-1.59,0.776-2.072c0.517-0.482,1.19-0.723,2.02-0.723c0.907,0,1.6,0.234,2.078,0.702
			c0.478,0.468,0.717,1.148,0.717,2.041v0.127c0,0.907-0.259,1.602-0.775,2.083C446.094,84.1,445.421,84.341,444.592,84.341z
			 M444.603,83.097c0.305,0,0.534-0.112,0.69-0.335s0.234-0.604,0.234-1.143v-0.191c0-0.602-0.08-1.008-0.239-1.217
			c-0.16-0.209-0.396-0.313-0.707-0.313s-0.546,0.111-0.701,0.334c-0.156,0.223-0.234,0.604-0.234,1.143v0.202
			c0,0.588,0.081,0.988,0.244,1.201C444.053,82.991,444.29,83.097,444.603,83.097z"/>
		<path d="M449.979,84.341c-0.793,0-1.424-0.121-1.892-0.361v-1.212c0.566,0.212,1.108,0.319,1.626,0.319
			c0.616,0,0.925-0.152,0.925-0.457c0-0.135-0.046-0.23-0.138-0.287c-0.093-0.057-0.256-0.099-0.489-0.127l-0.5-0.074
			c-0.971-0.142-1.456-0.712-1.456-1.711c0-0.56,0.188-0.994,0.563-1.302c0.376-0.308,0.936-0.462,1.68-0.462
			c0.716,0,1.293,0.096,1.732,0.287v1.201c-0.539-0.163-1.038-0.245-1.499-0.245c-0.531,0-0.797,0.142-0.797,0.425
			c0,0.127,0.048,0.222,0.144,0.282s0.257,0.108,0.483,0.144l0.511,0.063c0.531,0.071,0.914,0.247,1.147,0.526
			c0.234,0.28,0.351,0.668,0.351,1.164C452.371,83.731,451.574,84.341,449.979,84.341z"/>
		<path d="M453.297,78.144v-1.382h1.839v1.382H453.297z M453.308,84.245V78.76h1.817v5.485H453.308z"/>
		<path d="M457.983,84.341c-0.793,0-1.424-0.121-1.892-0.361v-1.212c0.566,0.212,1.108,0.319,1.626,0.319
			c0.616,0,0.925-0.152,0.925-0.457c0-0.135-0.046-0.23-0.138-0.287c-0.093-0.057-0.256-0.099-0.489-0.127l-0.5-0.074
			c-0.971-0.142-1.456-0.712-1.456-1.711c0-0.56,0.188-0.994,0.563-1.302c0.376-0.308,0.936-0.462,1.68-0.462
			c0.716,0,1.293,0.096,1.732,0.287v1.201c-0.539-0.163-1.038-0.245-1.499-0.245c-0.531,0-0.797,0.142-0.797,0.425
			c0,0.127,0.048,0.222,0.144,0.282s0.257,0.108,0.483,0.144l0.511,0.063c0.531,0.071,0.914,0.247,1.147,0.526
			c0.234,0.28,0.351,0.668,0.351,1.164C460.375,83.731,459.578,84.341,457.983,84.341z"/>
	</g>
</g>
<path fill="#F8B62D" d="M325.87,108.737l-9.969-4.918l0.177,2.709c-19.029-1.325-24.078-18.529-24.29-19.283l-5.373,1.483
	c0.065,0.239,1.655,5.901,6.295,11.601c4.159,5.109,11.613,11.197,23.735,11.803l0.182,2.781L325.87,108.737z"/>
<path fill="#F8B62D" d="M357.198,75.221l-6.526,8.998l2.701,0.281c-4.511,18.534-22.32,20.613-23.099,20.695l0.557,5.546
	c0.246-0.024,6.095-0.638,12.495-4.251c5.737-3.239,12.993-9.561,15.632-21.408l2.772,0.289L357.198,75.221z"/>
<path fill="#F8B62D" d="M323.52,44.669l9.073,6.422l0.25-2.704c18.585,4.297,20.869,22.08,20.96,22.859l5.54-0.62
	c-0.027-0.246-0.708-6.088-4.395-12.446c-3.305-5.699-9.71-12.881-21.587-15.384l0.257-2.775L323.52,44.669z"/>
<path fill="#F8B62D" d="M290.549,70.213l8.316-7.376l-2.576-0.858c8.408-17.122,26.245-15.305,27.024-15.216l0.655-5.536
	c-0.246-0.03-6.089-0.694-13.119,1.451c-6.301,1.924-14.751,6.529-19.888,17.526l-2.644-0.881L290.549,70.213z"/>
<g>
	<line fill="#F8B62D" x1="208.825" y1="47.888" x2="208.825" y2="8.8"/>
	<path fill="#F8B62D" d="M249.049,110.034l37.252,12.238c3.675-9.389,5.694-19.609,5.694-30.3c0-45.934-37.237-83.171-83.171-83.171
		v39.087c24.347,0,44.083,19.737,44.083,44.083C252.909,98.408,251.529,104.521,249.049,110.034z"/>
</g>
<path fill="#1D2088" d="M286.416,122.507l-37.252-12.238c-6.899,15.339-22.314,26.021-40.224,26.021
	c-21.307,0-39.084-15.117-43.19-35.211l-39.044,3.637c6.034,39.998,40.553,70.661,82.234,70.661
	C244.182,175.377,274.302,153.456,286.416,122.507z"/>
<path fill="#F39800" d="M208.825,8.8c-21.468,0-41.034,8.135-55.789,21.488l25.149,29.992c7.932-7.671,18.734-12.393,30.64-12.393
	V8.8z"/>
<path fill="#00A1E9" d="M152.965,29.837c-16.816,15.219-27.381,37.216-27.381,61.682c0,4.252,0.321,8.429,0.936,12.51l39.044-3.637
	c-0.586-2.866-0.893-5.833-0.893-8.873c0-12.44,5.155-23.675,13.443-31.691L152.965,29.837z"/>
<g>
</g>
<g>
	<path d="M243.322,40.767c-1.19,0-2.098-0.278-2.721-0.835c-0.624-0.556-0.935-1.465-0.935-2.726v-0.234
		c0-0.651,0.099-1.217,0.297-1.695c0.199-0.479,0.474-0.851,0.824-1.116c0.351-0.266,0.74-0.458,1.169-0.579
		c0.429-0.12,0.902-0.181,1.419-0.181c0.921,0,1.637,0.131,2.147,0.394v1.467c-0.624-0.22-1.247-0.33-1.871-0.33
		c-0.716,0-1.215,0.169-1.498,0.505c-0.284,0.337-0.426,0.831-0.426,1.483v0.318c0,0.716,0.108,1.245,0.324,1.589
		s0.618,0.516,1.207,0.516c0.304,0,0.56-0.039,0.765-0.116V38.11h-1.021v-1.308h2.881v3.508
		C245.161,40.615,244.307,40.767,243.322,40.767z"/>
	<path d="M247.626,40.724v-5.527l-1.105,0.149v-1.148l2.105-0.893h0.999v7.419H247.626z"/>
</g>
<g>
	<path d="M316.337,81.616c-1.19,0-2.098-0.278-2.721-0.835c-0.624-0.556-0.936-1.465-0.936-2.726v-0.234
		c0-0.651,0.099-1.217,0.297-1.695c0.199-0.479,0.474-0.851,0.824-1.116s0.74-0.458,1.169-0.579c0.429-0.12,0.902-0.181,1.419-0.181
		c0.921,0,1.637,0.131,2.147,0.394v1.467c-0.624-0.22-1.247-0.33-1.871-0.33c-0.716,0-1.215,0.169-1.498,0.505
		c-0.284,0.337-0.426,0.831-0.426,1.483v0.318c0,0.716,0.108,1.245,0.324,1.589s0.618,0.516,1.207,0.516
		c0.304,0,0.56-0.039,0.765-0.116v-1.116h-1.021v-1.308h2.881v3.508C318.176,81.463,317.321,81.616,316.337,81.616z"/>
	<path d="M322.862,81.658c-0.928,0-1.681-0.298-2.259-0.893c-0.577-0.596-0.866-1.506-0.866-2.731v-0.234
		c0-0.658,0.087-1.238,0.261-1.737c0.174-0.5,0.413-0.895,0.718-1.186c0.305-0.29,0.641-0.507,1.01-0.648
		c0.368-0.142,0.765-0.212,1.19-0.212c0.906,0,1.659,0.31,2.259,0.93c0.599,0.62,0.897,1.557,0.897,2.812v0.191
		c0,0.666-0.089,1.247-0.266,1.743s-0.418,0.882-0.723,1.158s-0.643,0.48-1.015,0.611S323.295,81.658,322.862,81.658z
		 M322.884,80.234c0.404,0,0.696-0.174,0.877-0.521c0.181-0.347,0.271-0.917,0.271-1.711v-0.233c0-1.552-0.379-2.328-1.137-2.328
		c-0.39,0-0.672,0.178-0.845,0.531c-0.174,0.354-0.261,0.929-0.261,1.722v0.224c0,0.801,0.085,1.387,0.255,1.759
		S322.494,80.234,322.884,80.234z"/>
</g>
<g>
	<path fill="#FFFFFF" d="M200.318,153.619c-1.041,0-1.824-0.142-2.349-0.426v-1.456c0.737,0.27,1.441,0.404,2.115,0.404
		c0.736,0,1.105-0.224,1.105-0.67c0-0.205-0.059-0.353-0.176-0.441c-0.116-0.088-0.349-0.168-0.696-0.239l-0.531-0.105
		c-0.616-0.113-1.075-0.333-1.376-0.659c-0.302-0.326-0.452-0.844-0.452-1.552c0-0.694,0.222-1.24,0.664-1.637
		c0.443-0.397,1.104-0.596,1.982-0.596c0.886,0,1.591,0.124,2.115,0.372v1.435c-0.666-0.227-1.308-0.34-1.924-0.34
		c-0.652,0-0.978,0.206-0.978,0.616c0,0.185,0.06,0.323,0.181,0.415c0.12,0.092,0.34,0.17,0.659,0.233l0.531,0.096
		c0.673,0.128,1.167,0.353,1.482,0.675c0.315,0.323,0.473,0.828,0.473,1.515c0,0.766-0.24,1.351-0.723,1.754
		C201.941,153.417,201.24,153.619,200.318,153.619z"/>
</g>
<g>
	<path d="M148.572,70.906c-1.19,0-2.098-0.278-2.721-0.835c-0.624-0.556-0.936-1.465-0.936-2.726v-0.234
		c0-0.651,0.099-1.217,0.298-1.695c0.198-0.479,0.473-0.851,0.824-1.116s0.74-0.458,1.169-0.579c0.429-0.12,0.902-0.181,1.419-0.181
		c0.921,0,1.637,0.131,2.147,0.394V65.4c-0.624-0.22-1.248-0.33-1.871-0.33c-0.715,0-1.215,0.169-1.499,0.505
		c-0.283,0.337-0.425,0.831-0.425,1.483v0.318c0,0.716,0.108,1.245,0.324,1.589c0.216,0.344,0.618,0.516,1.207,0.516
		c0.305,0,0.56-0.039,0.765-0.116v-1.116h-1.02v-1.308h2.88v3.508C150.411,70.754,149.557,70.906,148.572,70.906z"/>
	<path d="M152.037,70.811v-1.127l0.967-1.052c0.439-0.468,0.772-0.835,0.999-1.101c0.227-0.266,0.45-0.575,0.67-0.93
		c0.219-0.354,0.33-0.648,0.33-0.883c0-0.368-0.112-0.62-0.335-0.755c-0.223-0.134-0.558-0.201-1.004-0.201
		c-0.397,0-0.857,0.113-1.382,0.34l-0.16-1.371c0.56-0.283,1.293-0.425,2.2-0.425c1.807,0,2.71,0.705,2.71,2.115
		c0,0.148-0.018,0.303-0.053,0.462c-0.035,0.159-0.088,0.318-0.159,0.479c-0.071,0.159-0.144,0.312-0.218,0.457
		c-0.075,0.146-0.17,0.298-0.287,0.457c-0.117,0.159-0.214,0.294-0.292,0.403c-0.078,0.11-0.183,0.239-0.313,0.389
		c-0.131,0.148-0.225,0.255-0.282,0.318s-0.14,0.154-0.25,0.271c-0.11,0.116-0.168,0.179-0.175,0.186l-0.489,0.521h2.434v1.445
		H152.037z"/>
</g>
<g>
	<path d="M181.611,34.094v-7.143h2.679l1.296,4.305h0.043l1.296-4.305h2.647v7.143h-1.967v-4.815h-0.042l-1.436,4.815h-1.392
		l-1.424-4.826h-0.053v4.826H181.611z"/>
</g>
<g>
	<g>
		<g>
			<path fill="none" stroke="#000000" stroke-miterlimit="10" d="M242.98,106.983c-5.515,13.438-18.729,22.902-34.155,22.902
				c-20.381,0-36.903-16.522-36.903-36.903c0-20.381,16.522-36.903,36.903-36.903s36.903,16.522,36.903,36.903"/>
			<g>
				<polygon points="240.742,91.522 245.729,100.157 250.714,91.522 				"/>
			</g>
		</g>
	</g>
</g>
<g>
	<path d="M194.538,93.305l-0.893,1.318c-0.276-0.148-0.571-0.405-0.882-0.771c-0.312-0.365-0.518-0.718-0.617-1.058
		c-0.106,0.396-0.308,0.788-0.606,1.175c-0.297,0.386-0.645,0.703-1.042,0.951l-0.957-1.233c1.226-0.751,1.839-2.136,1.839-4.155
		v-1.499h1.605v1.403c0,1.034,0.124,1.858,0.372,2.471C193.606,92.521,193.999,92.986,194.538,93.305z M196.047,96.409h-1.499
		v-4.667h-0.999V90.34h0.999v-2.955h1.499V96.409z M198.045,96.791h-1.562v-9.565h1.562V96.791z"/>
	<path d="M206.899,93.028h-2.785v1.382h3.497v1.351h-8.652V94.41h3.497v-1.382h-2.849v-1.296h1.286l-0.266-2.01l1.679-0.116
		l0.149,2.126h1.679l0.181-2.126l1.669,0.159l-0.33,1.967h1.244V93.028z M206.952,89.256h-7.376v-1.329h7.376V89.256z"/>
	<path d="M213.276,96.802h-1.658V93.73h-3.465v-1.318h8.652v1.318h-3.529V96.802z M216.04,88.937h-2.572
		c0.113,0.496,0.443,0.9,0.989,1.212c0.545,0.312,1.211,0.503,1.998,0.574l-0.648,1.265c-0.624-0.043-1.263-0.216-1.918-0.521
		c-0.655-0.304-1.125-0.701-1.408-1.19c-0.276,0.496-0.739,0.896-1.387,1.201s-1.306,0.482-1.972,0.532l-0.606-1.266
		c0.808-0.07,1.478-0.264,2.009-0.579c0.531-0.315,0.85-0.725,0.957-1.228h-2.572V87.65h7.132V88.937z"/>
	<path d="M222.598,88.192c0.007,1.658-0.371,3.093-1.132,4.305s-1.844,2.13-3.247,2.753l-0.903-1.286
		c1.006-0.446,1.814-1.054,2.423-1.822c0.609-0.77,0.96-1.628,1.052-2.578h-2.923v-1.371H222.598z M225.404,96.791h-1.668v-9.565
		h1.668V96.791z"/>
</g>
<g>
</g>
<g>
</g>
<g>
</g>
<g>
</g>
<g>
</g>
<g>
</g>
<g>
</g>
</svg>
