<?xml version="1.0" encoding="utf-8"?>
<!-- Generator: Adobe Illustrator 28.0.0, SVG Export Plug-In . SVG Version: 6.00 Build 0)  -->
<svg version="1.1" id="레이어_1" xmlns="http://www.w3.org/2000/svg" xmlns:xlink="http://www.w3.org/1999/xlink" x="0px"
	 y="0px" viewBox="0 0 656.84 230.676" enable-background="new 0 0 656.84 230.676" xml:space="preserve">
<path fill="#91CCE3" stroke="#231815" stroke-miterlimit="10" d="M253.48,41.463v155.761c0,0,48.233,8.088,85.677-36.535
	C339.157,160.689,249.87,127.836,253.48,41.463z"/>
<path fill="#91CCE3" stroke="#231815" stroke-width="0.981" stroke-miterlimit="10" d="M517.768,43.268v150.073
	c4.508,1.613,28.216,9.584,53.467-2.642c20.551-9.95,29.558-27.195,32.104-32.56C603.339,158.14,514.163,126.487,517.768,43.268z"/>
<path fill="none" stroke="#231815" stroke-width="5" stroke-miterlimit="10" d="M77.115,161.1c0,0,78.968-126.968,176-119.226
	c0,0-7.226,83.613,85.677,119.226c0,0,68.645-123.003,176.516-119.566c0.697,12.63,3.929,39.722,22.146,67.278
	c22.752,34.416,54.637,48.013,66.112,52.288"/>
<g>
	<g>
		<path fill="none" stroke="#231815" stroke-width="5" stroke-miterlimit="10" d="M77.115,164.196c0,0,1.472-1.682,4.173-4.308"/>
		<path fill="none" stroke="#231815" stroke-width="5" stroke-miterlimit="10" stroke-dasharray="12.0286,3.0071" d="
			M83.466,157.822c18.338-16.98,73.187-57.803,122.165,6.374c59.871,78.452,132.645,0,132.645,0s68.129-80,144.516,0
			c62.807,65.778,103.981,23.155,116.635,5.921"/>
		<path fill="none" stroke="#231815" stroke-width="5" stroke-miterlimit="10" d="M600.313,168.889
			c2.153-3.044,3.253-5.036,3.253-5.036"/>
	</g>
</g>
<g>
	<g>
		<line fill="none" stroke="#231815" stroke-miterlimit="10" x1="77.115" y1="203.663" x2="650.693" y2="203.663"/>
		<g>
			<path fill="#231815" d="M656.728,203.663c-2.84,1.054-6.363,2.852-8.547,4.756l1.72-4.756l-1.72-4.755
				C650.365,200.813,653.888,202.611,656.728,203.663z"/>
		</g>
	</g>
</g>
<g>
	<g>
		<line fill="none" stroke="#231815" stroke-miterlimit="10" x1="253.373" y1="5.859" x2="253.373" y2="10.359"/>
		
			<line fill="none" stroke="#231815" stroke-miterlimit="10" stroke-dasharray="9.1357,4.0603" x1="253.373" y1="14.419" x2="253.373" y2="197.133"/>
		<line fill="none" stroke="#231815" stroke-miterlimit="10" x1="253.373" y1="199.163" x2="253.373" y2="203.663"/>
	</g>
</g>
<g>
	<g>
		<line fill="none" stroke="#231815" stroke-miterlimit="10" x1="340.341" y1="5.859" x2="340.341" y2="10.359"/>
		
			<line fill="none" stroke="#231815" stroke-miterlimit="10" stroke-dasharray="9.1357,4.0603" x1="340.341" y1="14.419" x2="340.341" y2="197.133"/>
		<line fill="none" stroke="#231815" stroke-miterlimit="10" x1="340.341" y1="199.163" x2="340.341" y2="203.663"/>
	</g>
</g>
<g>
	<g>
		<line fill="none" stroke="#231815" stroke-miterlimit="10" x1="516.599" y1="5.859" x2="516.599" y2="10.359"/>
		
			<line fill="none" stroke="#231815" stroke-miterlimit="10" stroke-dasharray="9.1357,4.0603" x1="516.599" y1="14.419" x2="516.599" y2="197.133"/>
		<line fill="none" stroke="#231815" stroke-miterlimit="10" x1="516.599" y1="199.163" x2="516.599" y2="203.663"/>
	</g>
</g>
<g>
	<g>
		<line fill="none" stroke="#231815" stroke-miterlimit="10" x1="603.567" y1="5.859" x2="603.567" y2="10.359"/>
		
			<line fill="none" stroke="#231815" stroke-miterlimit="10" stroke-dasharray="9.1357,4.0603" x1="603.567" y1="14.419" x2="603.567" y2="197.133"/>
		<line fill="none" stroke="#231815" stroke-miterlimit="10" x1="603.567" y1="199.163" x2="603.567" y2="203.663"/>
	</g>
</g>
<g>
	<path d="M76.019,226.551l3.75-8.76h-4.665v-1.455h6.66v1.095l-3.705,9.12H76.019z"/>
	<path d="M91.004,224.001l-1.02,1.32c-0.57-0.351-1.147-0.886-1.732-1.605s-0.988-1.415-1.208-2.085
		c-0.22,0.76-0.635,1.518-1.245,2.272c-0.61,0.755-1.26,1.323-1.95,1.703l-1.065-1.29c2.21-1.431,3.315-3.485,3.315-6.165v-2.04
		h1.815v1.949C87.914,220.691,88.944,222.671,91.004,224.001z M93.764,228.351h-1.755v-13.364h1.755V228.351z"/>
	<path d="M98.729,228.111c-0.81-0.761-1.475-1.67-1.995-2.73c-0.52-1.06-0.78-2.229-0.78-3.51v-0.271c0-1.279,0.26-2.447,0.78-3.502
		s1.185-1.963,1.995-2.723h1.485c-0.74,0.82-1.34,1.755-1.8,2.805c-0.46,1.051-0.69,2.146-0.69,3.285v0.42
		c0,1.131,0.234,2.248,0.705,3.353c0.47,1.105,1.065,2.062,1.785,2.873H98.729z"/>
	<path d="M112.874,226.686h-12.075v-1.395h5.145v-2.13c-1.22-0.14-2.193-0.542-2.917-1.208c-0.726-0.664-1.088-1.482-1.088-2.452
		c0-1.09,0.45-1.975,1.35-2.655c0.9-0.68,2.085-1.02,3.555-1.02c1.47,0,2.655,0.34,3.555,1.02c0.9,0.681,1.35,1.565,1.35,2.655
		c0,0.98-0.365,1.803-1.095,2.468c-0.73,0.665-1.715,1.062-2.955,1.192v2.13h5.175V226.686z M109.979,219.516
		c0-0.67-0.285-1.212-0.855-1.627c-0.57-0.415-1.33-0.623-2.28-0.623c-0.94,0-1.695,0.208-2.265,0.623s-0.855,0.957-0.855,1.627
		c0,0.681,0.285,1.226,0.855,1.636s1.325,0.614,2.265,0.614c0.94,0,1.697-0.204,2.272-0.614
		C109.691,220.741,109.979,220.196,109.979,219.516z"/>
	<path d="M114.239,217.491v-1.44h7.05v1.44h-2.565c0.01,0.97,0.302,1.817,0.877,2.542c0.575,0.726,1.272,1.218,2.093,1.478
		l-0.96,1.38c-0.53-0.199-1.078-0.555-1.643-1.064s-0.982-1.06-1.252-1.65c-0.2,0.641-0.603,1.258-1.208,1.853
		c-0.605,0.596-1.238,1.008-1.897,1.237l-1.035-1.38c0.98-0.359,1.763-0.925,2.348-1.694c0.585-0.771,0.877-1.655,0.877-2.655
		v-0.045H114.239z M125.114,227.991h-9.225v-4.215h1.77v2.835h7.455V227.991z M124.829,224.676h-1.755v-4.725h-2.01v-1.41h2.01
		v-3.555h1.755V224.676z"/>
	<path d="M126.434,228.111c0.74-0.811,1.34-1.742,1.8-2.798c0.46-1.055,0.69-2.152,0.69-3.292v-0.436
		c0-1.12-0.232-2.235-0.697-3.345c-0.465-1.11-1.063-2.065-1.793-2.865h1.485c0.8,0.76,1.46,1.67,1.98,2.73
		c0.52,1.06,0.78,2.225,0.78,3.494v0.271c0,1.28-0.26,2.45-0.78,3.51c-0.52,1.061-1.18,1.97-1.98,2.73H126.434z"/>
</g>
<g>
	<path d="M250.017,226.611v-8.46l-1.725,0.345v-1.08l2.61-1.17h0.975v10.365H250.017z"/>
	<path d="M255.642,226.611v-8.46l-1.725,0.345v-1.08l2.61-1.17h0.975v10.365H255.642z"/>
	<path d="M267.717,224.001l-1.02,1.32c-0.57-0.351-1.147-0.886-1.732-1.605s-0.988-1.415-1.208-2.085
		c-0.22,0.76-0.635,1.518-1.245,2.272c-0.61,0.755-1.26,1.323-1.95,1.703l-1.065-1.29c2.21-1.431,3.315-3.485,3.315-6.165v-2.04
		h1.815v1.949C264.627,220.691,265.657,222.671,267.717,224.001z M270.477,228.351h-1.755v-13.364h1.755V228.351z"/>
	<path d="M275.442,228.111c-0.81-0.761-1.475-1.67-1.995-2.73c-0.52-1.06-0.78-2.229-0.78-3.51v-0.271
		c0-1.279,0.26-2.447,0.78-3.502s1.185-1.963,1.995-2.723h1.485c-0.74,0.82-1.34,1.755-1.8,2.805c-0.46,1.051-0.69,2.146-0.69,3.285
		v0.42c0,1.131,0.234,2.248,0.705,3.353c0.47,1.105,1.065,2.062,1.785,2.873H275.442z"/>
	<path d="M289.586,226.686h-12.075v-1.395h5.145v-2.13c-1.22-0.14-2.193-0.542-2.917-1.208c-0.726-0.664-1.088-1.482-1.088-2.452
		c0-1.09,0.45-1.975,1.35-2.655c0.9-0.68,2.085-1.02,3.555-1.02c1.47,0,2.655,0.34,3.555,1.02c0.9,0.681,1.35,1.565,1.35,2.655
		c0,0.98-0.365,1.803-1.095,2.468c-0.73,0.665-1.715,1.062-2.955,1.192v2.13h5.175V226.686z M286.691,219.516
		c0-0.67-0.285-1.212-0.855-1.627c-0.57-0.415-1.33-0.623-2.28-0.623c-0.94,0-1.695,0.208-2.265,0.623s-0.855,0.957-0.855,1.627
		c0,0.681,0.285,1.226,0.855,1.636s1.325,0.614,2.265,0.614c0.94,0,1.697-0.204,2.272-0.614
		C286.404,220.741,286.691,220.196,286.691,219.516z"/>
	<path d="M297.371,228.336h-1.755v-3.15h-5.129v-1.395h12.075v1.395h-5.19V228.336z M301.887,218.541h-10.695v-1.38h10.695V218.541z
		 M300.852,221.151c0,0.659-0.383,1.177-1.147,1.552c-0.766,0.375-1.817,0.562-3.158,0.562c-1.339,0-2.39-0.188-3.149-0.562
		s-1.14-0.893-1.14-1.552c0-0.67,0.38-1.195,1.14-1.575s1.81-0.57,3.149-0.57c1.351,0,2.405,0.19,3.165,0.57
		C300.472,219.956,300.852,220.481,300.852,221.151z M299.052,221.151c0-0.25-0.238-0.45-0.713-0.601
		c-0.475-0.149-1.072-0.225-1.793-0.225c-0.72,0-1.312,0.072-1.777,0.218c-0.465,0.145-0.697,0.347-0.697,0.607
		c0,0.239,0.232,0.433,0.697,0.577c0.465,0.146,1.057,0.218,1.777,0.218c0.721,0,1.318-0.072,1.793-0.218
		C298.813,221.584,299.052,221.391,299.052,221.151z M294.146,216.531v-1.365h4.77v1.365H294.146z"/>
	<path d="M303.146,228.111c0.74-0.811,1.341-1.742,1.801-2.798c0.46-1.055,0.689-2.152,0.689-3.292v-0.436
		c0-1.12-0.232-2.235-0.697-3.345c-0.465-1.11-1.062-2.065-1.793-2.865h1.485c0.8,0.76,1.46,1.67,1.98,2.73
		c0.52,1.06,0.779,2.225,0.779,3.494v0.271c0,1.28-0.26,2.45-0.779,3.51c-0.521,1.061-1.181,1.97-1.98,2.73H303.146z"/>
</g>
<g>
	<path d="M341.825,226.551l3.75-8.76h-4.665v-1.455h6.66v1.095l-3.705,9.12H341.825z"/>
	<path d="M356.811,224.001l-1.02,1.32c-0.57-0.351-1.147-0.886-1.732-1.605s-0.988-1.415-1.208-2.085
		c-0.22,0.76-0.635,1.518-1.245,2.272s-1.26,1.323-1.95,1.703l-1.064-1.29c2.21-1.431,3.314-3.485,3.314-6.165v-2.04h1.815v1.949
		C353.721,220.691,354.751,222.671,356.811,224.001z M359.57,228.351h-1.755v-13.364h1.755V228.351z"/>
	<path d="M364.536,228.111c-0.811-0.761-1.476-1.67-1.995-2.73c-0.521-1.06-0.78-2.229-0.78-3.51v-0.271
		c0-1.279,0.26-2.447,0.78-3.502c0.52-1.055,1.185-1.963,1.995-2.723h1.484c-0.74,0.82-1.34,1.755-1.8,2.805
		c-0.46,1.051-0.689,2.146-0.689,3.285v0.42c0,1.131,0.234,2.248,0.704,3.353c0.471,1.105,1.065,2.062,1.785,2.873H364.536z"/>
	<path d="M378.681,226.686h-12.075v-1.395h5.146v-2.13c-1.221-0.14-2.193-0.542-2.918-1.208c-0.726-0.664-1.088-1.482-1.088-2.452
		c0-1.09,0.45-1.975,1.351-2.655c0.899-0.68,2.085-1.02,3.555-1.02s2.655,0.34,3.555,1.02c0.9,0.681,1.351,1.565,1.351,2.655
		c0,0.98-0.365,1.803-1.095,2.468c-0.73,0.665-1.716,1.062-2.955,1.192v2.13h5.175V226.686z M375.785,219.516
		c0-0.67-0.284-1.212-0.854-1.627s-1.33-0.623-2.28-0.623c-0.94,0-1.695,0.208-2.265,0.623c-0.57,0.415-0.855,0.957-0.855,1.627
		c0,0.681,0.285,1.226,0.855,1.636c0.569,0.41,1.324,0.614,2.265,0.614s1.697-0.204,2.272-0.614S375.785,220.196,375.785,219.516z"
		/>
	<path d="M380.046,217.491v-1.44h7.05v1.44h-2.565c0.01,0.97,0.303,1.817,0.878,2.542c0.575,0.726,1.272,1.218,2.093,1.478
		l-0.96,1.38c-0.53-0.199-1.078-0.555-1.643-1.064c-0.565-0.51-0.982-1.06-1.253-1.65c-0.2,0.641-0.603,1.258-1.207,1.853
		c-0.605,0.596-1.238,1.008-1.897,1.237l-1.035-1.38c0.979-0.359,1.763-0.925,2.348-1.694c0.585-0.771,0.877-1.655,0.877-2.655
		v-0.045H380.046z M390.921,227.991h-9.226v-4.215h1.771v2.835h7.455V227.991z M390.636,224.676h-1.755v-4.725h-2.01v-1.41h2.01
		v-3.555h1.755V224.676z"/>
	<path d="M392.24,228.111c0.74-0.811,1.34-1.742,1.8-2.798c0.46-1.055,0.69-2.152,0.69-3.292v-0.436c0-1.12-0.232-2.235-0.697-3.345
		c-0.466-1.11-1.063-2.065-1.793-2.865h1.485c0.8,0.76,1.46,1.67,1.979,2.73c0.52,1.06,0.78,2.225,0.78,3.494v0.271
		c0,1.28-0.261,2.45-0.78,3.51c-0.52,1.061-1.18,1.97-1.979,2.73H392.24z"/>
</g>
<g>
	<path d="M601.445,226.551l3.75-8.76h-4.665v-1.455h6.66v1.095l-3.705,9.12H601.445z"/>
	<path d="M616.431,224.001l-1.021,1.32c-0.57-0.351-1.147-0.886-1.732-1.605s-0.987-1.415-1.207-2.085
		c-0.221,0.76-0.636,1.518-1.245,2.272c-0.61,0.755-1.261,1.323-1.95,1.703l-1.065-1.29c2.21-1.431,3.315-3.485,3.315-6.165v-2.04
		h1.814v1.949C613.34,220.691,614.37,222.671,616.431,224.001z M619.19,228.351h-1.755v-13.364h1.755V228.351z"/>
	<path d="M624.155,228.111c-0.81-0.761-1.475-1.67-1.995-2.73c-0.52-1.06-0.779-2.229-0.779-3.51v-0.271
		c0-1.279,0.26-2.447,0.779-3.502c0.521-1.055,1.186-1.963,1.995-2.723h1.485c-0.74,0.82-1.341,1.755-1.8,2.805
		c-0.461,1.051-0.69,2.146-0.69,3.285v0.42c0,1.131,0.234,2.248,0.705,3.353c0.47,1.105,1.064,2.062,1.785,2.873H624.155z"/>
	<path d="M638.3,226.686h-12.074v-1.395h5.145v-2.13c-1.22-0.14-2.192-0.542-2.917-1.208c-0.726-0.664-1.088-1.482-1.088-2.452
		c0-1.09,0.45-1.975,1.35-2.655c0.9-0.68,2.085-1.02,3.556-1.02c1.47,0,2.654,0.34,3.555,1.02c0.9,0.681,1.35,1.565,1.35,2.655
		c0,0.98-0.365,1.803-1.095,2.468c-0.73,0.665-1.715,1.062-2.955,1.192v2.13h5.175V226.686z M635.405,219.516
		c0-0.67-0.285-1.212-0.855-1.627c-0.569-0.415-1.33-0.623-2.279-0.623c-0.94,0-1.695,0.208-2.266,0.623
		c-0.569,0.415-0.854,0.957-0.854,1.627c0,0.681,0.285,1.226,0.854,1.636c0.57,0.41,1.325,0.614,2.266,0.614
		c0.939,0,1.697-0.204,2.272-0.614C635.117,220.741,635.405,220.196,635.405,219.516z"/>
	<path d="M639.665,217.491v-1.44h7.05v1.44h-2.564c0.01,0.97,0.302,1.817,0.877,2.542c0.575,0.726,1.272,1.218,2.093,1.478
		l-0.96,1.38c-0.53-0.199-1.077-0.555-1.643-1.064c-0.564-0.51-0.982-1.06-1.252-1.65c-0.2,0.641-0.603,1.258-1.208,1.853
		c-0.605,0.596-1.237,1.008-1.897,1.237l-1.035-1.38c0.98-0.359,1.763-0.925,2.348-1.694c0.585-0.771,0.878-1.655,0.878-2.655
		v-0.045H639.665z M650.54,227.991h-9.225v-4.215h1.77v2.835h7.455V227.991z M650.255,224.676H648.5v-4.725h-2.01v-1.41h2.01v-3.555
		h1.755V224.676z"/>
	<path d="M651.859,228.111c0.74-0.811,1.341-1.742,1.801-2.798c0.46-1.055,0.689-2.152,0.689-3.292v-0.436
		c0-1.12-0.232-2.235-0.697-3.345c-0.465-1.11-1.062-2.065-1.793-2.865h1.485c0.8,0.76,1.46,1.67,1.98,2.73
		c0.52,1.06,0.779,2.225,0.779,3.494v0.271c0,1.28-0.26,2.45-0.779,3.51c-0.521,1.061-1.181,1.97-1.98,2.73H651.859z"/>
</g>
<g>
	<path d="M515.823,226.611v-8.46l-1.725,0.345v-1.08l2.61-1.17h0.975v10.365H515.823z"/>
	<path d="M521.448,226.611v-8.46l-1.725,0.345v-1.08l2.61-1.17h0.975v10.365H521.448z"/>
	<path d="M533.523,224.001l-1.02,1.32c-0.57-0.351-1.147-0.886-1.732-1.605s-0.988-1.415-1.208-2.085
		c-0.22,0.76-0.635,1.518-1.245,2.272s-1.26,1.323-1.95,1.703l-1.064-1.29c2.21-1.431,3.314-3.485,3.314-6.165v-2.04h1.815v1.949
		C530.434,220.691,531.464,222.671,533.523,224.001z M536.283,228.351h-1.755v-13.364h1.755V228.351z"/>
	<path d="M541.248,228.111c-0.81-0.761-1.475-1.67-1.995-2.73c-0.52-1.06-0.779-2.229-0.779-3.51v-0.271
		c0-1.279,0.26-2.447,0.779-3.502c0.521-1.055,1.186-1.963,1.995-2.723h1.485c-0.74,0.82-1.341,1.755-1.8,2.805
		c-0.461,1.051-0.69,2.146-0.69,3.285v0.42c0,1.131,0.234,2.248,0.705,3.353c0.47,1.105,1.064,2.062,1.785,2.873H541.248z"/>
	<path d="M555.393,226.686h-12.074v-1.395h5.145v-2.13c-1.22-0.14-2.192-0.542-2.917-1.208c-0.726-0.664-1.088-1.482-1.088-2.452
		c0-1.09,0.45-1.975,1.35-2.655c0.9-0.68,2.085-1.02,3.556-1.02c1.47,0,2.654,0.34,3.555,1.02c0.9,0.681,1.35,1.565,1.35,2.655
		c0,0.98-0.365,1.803-1.095,2.468c-0.73,0.665-1.715,1.062-2.955,1.192v2.13h5.175V226.686z M552.498,219.516
		c0-0.67-0.285-1.212-0.855-1.627c-0.569-0.415-1.33-0.623-2.279-0.623c-0.94,0-1.695,0.208-2.266,0.623
		c-0.569,0.415-0.854,0.957-0.854,1.627c0,0.681,0.285,1.226,0.854,1.636c0.57,0.41,1.325,0.614,2.266,0.614
		c0.939,0,1.697-0.204,2.272-0.614C552.21,220.741,552.498,220.196,552.498,219.516z"/>
	<path d="M563.178,228.336h-1.755v-3.15h-5.13v-1.395h12.075v1.395h-5.19V228.336z M567.693,218.541h-10.695v-1.38h10.695V218.541z
		 M566.658,221.151c0,0.659-0.383,1.177-1.147,1.552c-0.766,0.375-1.817,0.562-3.158,0.562c-1.34,0-2.39-0.188-3.149-0.562
		s-1.14-0.893-1.14-1.552c0-0.67,0.38-1.195,1.14-1.575s1.81-0.57,3.149-0.57c1.351,0,2.405,0.19,3.165,0.57
		C566.278,219.956,566.658,220.481,566.658,221.151z M564.858,221.151c0-0.25-0.238-0.45-0.713-0.601
		c-0.475-0.149-1.072-0.225-1.793-0.225c-0.72,0-1.312,0.072-1.777,0.218c-0.465,0.145-0.697,0.347-0.697,0.607
		c0,0.239,0.232,0.433,0.697,0.577c0.465,0.146,1.058,0.218,1.777,0.218c0.721,0,1.318-0.072,1.793-0.218
		C564.62,221.584,564.858,221.391,564.858,221.151z M559.953,216.531v-1.365h4.77v1.365H559.953z"/>
	<path d="M568.952,228.111c0.74-0.811,1.341-1.742,1.801-2.798c0.46-1.055,0.689-2.152,0.689-3.292v-0.436
		c0-1.12-0.232-2.235-0.697-3.345c-0.465-1.11-1.062-2.065-1.793-2.865h1.485c0.8,0.76,1.46,1.67,1.98,2.73
		c0.52,1.06,0.779,2.225,0.779,3.494v0.271c0,1.28-0.26,2.45-0.779,3.51c-0.521,1.061-1.181,1.97-1.98,2.73H568.952z"/>
</g>
<g>
	<path d="M288.373,14.4h-1.77V9.645h-5.115v-1.38h12.075v1.38h-5.19V14.4z M293.068,5.73l-0.765,1.425
		c-1.01-0.15-1.978-0.515-2.903-1.095c-0.925-0.58-1.547-1.23-1.867-1.95c-0.29,0.72-0.893,1.367-1.808,1.942
		S283.833,7,282.793,7.17l-0.75-1.44c1.22-0.129,2.285-0.545,3.195-1.245c0.91-0.7,1.365-1.53,1.365-2.49v-0.69h1.86v0.69
		c0,0.64,0.238,1.24,0.713,1.8c0.475,0.56,1.06,1.005,1.755,1.335C291.625,5.46,292.338,5.66,293.068,5.73z"/>
	<path d="M301.183,8.4h-6.194V2.145h6.194V8.4z M305.772,14.025h-9.06v-4.14h1.74v2.745h7.319V14.025z M299.443,7.035v-3.54h-2.716
		v3.54H299.443z M303.763,4.5h-1.86V3.12h1.86v-2.1h1.74v9.69h-1.74V7.44h-1.86V6.06h1.86V4.5z"/>
</g>
<g>
	<path d="M555.47,14.4h-1.77V9.645h-5.115v-1.38h12.075v1.38h-5.19V14.4z M560.165,5.73L559.4,7.155
		c-1.011-0.15-1.979-0.515-2.903-1.095c-0.925-0.58-1.547-1.23-1.867-1.95c-0.29,0.72-0.893,1.367-1.808,1.942S550.93,7,549.89,7.17
		l-0.75-1.44c1.221-0.129,2.285-0.545,3.195-1.245c0.91-0.7,1.365-1.53,1.365-2.49v-0.69h1.859v0.69c0,0.64,0.238,1.24,0.713,1.8
		s1.06,1.005,1.755,1.335C558.723,5.46,559.435,5.66,560.165,5.73z"/>
	<path d="M568.28,8.4h-6.195V2.145h6.195V8.4z M572.87,14.025h-9.06v-4.14h1.739v2.745h7.32V14.025z M566.54,7.035v-3.54h-2.715
		v3.54H566.54z M570.86,4.5H569V3.12h1.86v-2.1h1.74v9.69h-1.74V7.44H569V6.06h1.86V4.5z"/>
</g>
<g>
	<path d="M91.598,65.048h-1.77v-4.755h-5.115v-1.38h12.075v1.38h-5.19V65.048z M96.292,56.378l-0.765,1.425
		c-1.01-0.15-1.978-0.515-2.903-1.095c-0.925-0.58-1.547-1.23-1.867-1.95c-0.29,0.72-0.893,1.367-1.808,1.942
		s-1.893,0.948-2.933,1.118l-0.75-1.44c1.22-0.129,2.285-0.545,3.195-1.245c0.91-0.7,1.365-1.53,1.365-2.49v-0.69h1.86v0.69
		c0,0.64,0.238,1.24,0.713,1.8c0.475,0.56,1.06,1.005,1.755,1.335C94.85,56.108,95.562,56.308,96.292,56.378z"/>
	<path d="M104.407,59.048h-6.195v-6.255h6.195V59.048z M108.997,64.673h-9.06v-4.14h1.74v2.745h7.32V64.673z M102.667,57.683v-3.54
		h-2.715v3.54H102.667z M106.987,55.148h-1.86v-1.38h1.86v-2.1h1.74v9.69h-1.74v-3.27h-1.86v-1.38h1.86V55.148z"/>
	<path d="M112.027,54.428c0-0.76,0.413-1.377,1.238-1.853c0.825-0.475,1.967-0.712,3.427-0.712c1.47,0,2.618,0.237,3.442,0.712
		c0.825,0.475,1.238,1.093,1.238,1.853c0,0.87-0.505,1.54-1.515,2.01v1.755h2.88v1.41h-12.075v-1.41h2.82v-1.77
		C112.512,55.943,112.027,55.278,112.027,54.428z M112.087,60.608h9.09v4.44h-1.74v-3.045h-7.35V60.608z M114.6,53.536
		c-0.505,0.225-0.758,0.522-0.758,0.893s0.252,0.67,0.758,0.9c0.505,0.23,1.202,0.345,2.092,0.345c0.88,0,1.58-0.115,2.1-0.345
		c0.52-0.23,0.78-0.53,0.78-0.9s-0.255-0.667-0.765-0.893c-0.51-0.225-1.215-0.337-2.115-0.337
		C115.802,53.198,115.104,53.311,114.6,53.536z M116.707,57.023c-0.45,0-0.94-0.035-1.47-0.105v1.275h2.865v-1.26
		C117.662,56.993,117.197,57.023,116.707,57.023z"/>
	<path d="M134.167,52.388c0,2.32-0.145,4.22-0.435,5.7h1.98v1.395h-5.19v5.55h-1.755v-5.55h-5.13v-1.395h8.43
		c0.24-1.16,0.36-2.59,0.36-4.29h-7.305v-1.41H134.167z"/>
	<path d="M87.758,82.793c-0.81-0.76-1.475-1.67-1.995-2.73c-0.52-1.06-0.78-2.229-0.78-3.51v-0.27c0-1.28,0.26-2.447,0.78-3.502
		s1.185-1.962,1.995-2.723h1.485c-0.74,0.82-1.34,1.755-1.8,2.805c-0.46,1.05-0.69,2.145-0.69,3.285v0.42
		c0,1.13,0.234,2.248,0.705,3.352c0.47,1.105,1.065,2.062,1.785,2.873H87.758z"/>
	<path d="M89.933,75.368c0-1.43,0.31-2.585,0.93-3.465s1.465-1.32,2.535-1.32c1.08,0,1.927,0.44,2.542,1.32s0.922,2.035,0.922,3.465
		c0,1.42-0.307,2.567-0.922,3.442c-0.615,0.875-1.462,1.312-2.542,1.312c-1.07,0-1.915-0.437-2.535-1.312
		C90.242,77.936,89.933,76.788,89.933,75.368z M95.183,75.368c0-1.04-0.165-1.862-0.495-2.467s-0.76-0.908-1.29-0.908
		c-0.51,0-0.93,0.303-1.26,0.908c-0.33,0.605-0.495,1.427-0.495,2.467c0,1.03,0.165,1.845,0.495,2.445c0.33,0.6,0.75,0.9,1.26,0.9
		c0.53,0,0.96-0.3,1.29-0.9C95.018,77.213,95.183,76.398,95.183,75.368z M100.282,69.668v5.13h1.98v1.455h-1.98v6.78h-1.785V69.668
		H100.282z"/>
	<path d="M104.948,78.503c1.61,0,2.86-0.105,3.75-0.315l0.21,1.35c-0.91,0.23-2.39,0.345-4.44,0.345h-1.275v-8.625h5.055v1.38h-3.3
		V78.503z M109.808,75.938h-2.295v-1.395h2.295v-4.635h1.635v12.51h-1.635V75.938z M114.172,83.033h-1.68V69.668h1.68V83.033z"/>
	<path d="M126.427,76.643h-3.765v3.345h5.19v1.38h-12.075v-1.38h5.13v-3.345h-3.645v-5.985h1.74v4.605h7.425V76.643z"/>
	<path d="M136.882,75.983l-0.99,1.395c-0.53-0.2-1.092-0.577-1.688-1.132c-0.595-0.555-1.033-1.132-1.312-1.732
		c-0.2,0.66-0.605,1.3-1.215,1.92s-1.235,1.04-1.875,1.26l-1.065-1.395c0.98-0.35,1.762-0.93,2.348-1.74
		c0.585-0.81,0.877-1.715,0.877-2.715v-1.41h1.83v1.32c0,0.98,0.307,1.863,0.922,2.648
		C135.329,75.186,136.052,75.713,136.882,75.983z M140.092,82.673h-9.285v-4.185h1.77v2.805h7.515V82.673z M139.807,79.358h-1.755
		v-9.69h1.755V79.358z"/>
	<path d="M141.411,82.793c0.74-0.811,1.34-1.742,1.8-2.797c0.46-1.055,0.69-2.152,0.69-3.292v-0.435c0-1.12-0.232-2.235-0.697-3.345
		c-0.465-1.11-1.063-2.065-1.793-2.865h1.485c0.8,0.76,1.46,1.67,1.98,2.73c0.52,1.06,0.78,2.225,0.78,3.495v0.27
		c0,1.28-0.26,2.45-0.78,3.51c-0.52,1.06-1.18,1.97-1.98,2.73H141.411z"/>
</g>
<g>
	<path d="M30.6,165.519c-0.11,4.261-2.1,7.445-5.97,9.556l-1.08-1.32c1.44-0.66,2.63-1.617,3.57-2.872s1.47-2.558,1.59-3.908h-4.35
		v-1.455H30.6z M34.709,177.489h-1.755v-13.365h1.755V177.489z"/>
	<path d="M44.489,169.959l-1.005,1.365c-0.561-0.21-1.13-0.567-1.71-1.073c-0.58-0.504-1.01-1.047-1.29-1.627
		c-0.19,0.65-0.588,1.263-1.193,1.838c-0.605,0.574-1.237,0.978-1.897,1.207l-1.065-1.395c0.99-0.351,1.778-0.905,2.363-1.665
		c0.585-0.761,0.877-1.636,0.877-2.625v-1.261h1.8v1.155c0,0.98,0.308,1.835,0.922,2.565
		C42.907,169.174,43.639,169.679,44.489,169.959z M47.234,174.789c0,0.83-0.405,1.487-1.215,1.973
		c-0.81,0.484-1.935,0.728-3.375,0.728c-1.43,0-2.547-0.243-3.353-0.728c-0.805-0.485-1.208-1.143-1.208-1.973
		c0-0.84,0.403-1.503,1.208-1.987c0.805-0.485,1.922-0.728,3.353-0.728c1.45,0,2.578,0.239,3.383,0.72
		C46.832,173.274,47.234,173.939,47.234,174.789z M42.644,173.469c-0.86,0-1.535,0.118-2.025,0.353
		c-0.49,0.235-0.735,0.558-0.735,0.968c0,0.4,0.242,0.715,0.728,0.945c0.485,0.229,1.163,0.345,2.032,0.345
		c0.88,0,1.568-0.115,2.062-0.345c0.495-0.23,0.743-0.545,0.743-0.945c0-0.41-0.248-0.732-0.743-0.968
		C44.212,173.587,43.524,173.469,42.644,173.469z M48.989,168.744h-1.905v3.194h-1.77v-7.814h1.77v3.18h1.905V168.744z"/>
	<path d="M50.969,166.884c0-0.76,0.413-1.377,1.238-1.853c0.825-0.475,1.967-0.712,3.427-0.712c1.47,0,2.618,0.237,3.442,0.712
		c0.825,0.476,1.238,1.093,1.238,1.853c0,0.87-0.505,1.54-1.515,2.01v1.756h2.88v1.409H49.604v-1.409h2.82v-1.771
		C51.454,168.399,50.969,167.734,50.969,166.884z M51.029,173.063h9.09v4.44h-1.74v-3.045h-7.35V173.063z M53.542,165.991
		c-0.505,0.226-0.758,0.522-0.758,0.893s0.252,0.67,0.758,0.9c0.505,0.229,1.202,0.345,2.092,0.345c0.88,0,1.58-0.115,2.1-0.345
		c0.52-0.23,0.78-0.53,0.78-0.9s-0.255-0.667-0.765-0.893c-0.51-0.225-1.215-0.337-2.115-0.337
		C54.744,165.654,54.046,165.767,53.542,165.991z M55.649,169.479c-0.45,0-0.94-0.034-1.47-0.104v1.275h2.865v-1.261
		C56.604,169.449,56.139,169.479,55.649,169.479z"/>
	<path d="M73.108,164.844c0,2.32-0.145,4.221-0.435,5.7h1.98v1.395h-5.19v5.551h-1.755v-5.551h-5.13v-1.395h8.43
		c0.24-1.16,0.36-2.59,0.36-4.29h-7.305v-1.41H73.108z"/>
	<path d="M3.495,195.249c-0.81-0.76-1.475-1.67-1.995-2.73c-0.52-1.06-0.78-2.229-0.78-3.51v-0.27c0-1.28,0.26-2.447,0.78-3.503
		c0.52-1.055,1.185-1.962,1.995-2.723H4.98c-0.74,0.82-1.34,1.755-1.8,2.806c-0.46,1.05-0.69,2.145-0.69,3.284v0.421
		c0,1.13,0.234,2.247,0.705,3.352c0.47,1.105,1.065,2.062,1.785,2.873H3.495z"/>
	<path d="M5.955,185.679c0-0.89,0.335-1.63,1.005-2.22c0.669-0.59,1.52-0.885,2.55-0.885c1.02,0,1.862,0.29,2.527,0.87
		s0.998,1.325,0.998,2.234c0,0.891-0.33,1.61-0.99,2.16c-0.66,0.55-1.505,0.825-2.535,0.825c-1.01,0-1.855-0.272-2.535-0.817
		S5.955,186.579,5.955,185.679z M8.235,184.501c-0.36,0.325-0.54,0.713-0.54,1.163s0.172,0.82,0.518,1.11
		c0.345,0.29,0.777,0.435,1.297,0.435c0.53,0,0.96-0.15,1.29-0.45s0.495-0.665,0.495-1.095c0-0.47-0.16-0.862-0.48-1.178
		c-0.32-0.314-0.755-0.473-1.305-0.473C9.02,184.014,8.595,184.177,8.235,184.501z M17.025,195.384H7.83v-3.585h7.035v-0.93h-7.11
		v-1.38h8.85v3.569h-7.02v0.915h7.44V195.384z M16.605,188.813h-1.74v-6.689h1.74V188.813z"/>
	<path d="M25.424,195.474h-1.77v-4.649H18.54v-1.396h12.075v1.396h-5.19V195.474z M19.844,188.454l-0.765-1.365
		c1.06-0.109,2.045-0.447,2.955-1.013c0.91-0.564,1.435-1.228,1.575-1.987h-3.99v-1.395h9.9v1.395h-3.99
		c0.1,0.51,0.39,0.982,0.87,1.418c0.48,0.435,1.042,0.779,1.688,1.034c0.645,0.256,1.307,0.418,1.987,0.488
		c-0.09,0.18-0.223,0.43-0.397,0.75c-0.175,0.319-0.288,0.524-0.337,0.614c-0.89-0.1-1.817-0.417-2.783-0.952
		c-0.965-0.535-1.627-1.112-1.987-1.732c-0.34,0.66-0.975,1.253-1.905,1.777C21.734,188.012,20.794,188.334,19.844,188.454z"/>
	<path d="M38.459,183.519c-0.11,4.261-2.1,7.445-5.97,9.556l-1.08-1.32c1.44-0.66,2.63-1.617,3.57-2.872s1.47-2.558,1.59-3.908
		h-4.35v-1.455H38.459z M42.569,195.489h-1.755v-13.365h1.755V195.489z"/>
	<path d="M52.619,190.599l0.195,1.396c-1.43,0.29-3.485,0.435-6.165,0.435h-1.41v-5.55h4.335v-2.22h-4.395v-1.396h6.165v5.011
		h-4.365v2.715C49.329,190.989,51.208,190.859,52.619,190.599z M53.789,182.124h1.74v13.365h-1.74V182.124z"/>
	<path d="M69.538,189.624H57.463v-1.41h12.075V189.624z M67.993,195.324h-9v-4.605h9V195.324z M68.128,187.119h-9.06v-4.665h8.955
		v1.41h-7.2v1.845h7.305V187.119z M66.253,193.959v-1.905h-5.505v1.905H66.253z"/>
	<path d="M70.123,195.249c0.74-0.811,1.34-1.742,1.8-2.798c0.46-1.055,0.69-2.152,0.69-3.292v-0.436
		c0-1.119-0.232-2.234-0.697-3.345c-0.465-1.11-1.063-2.064-1.793-2.865h1.485c0.8,0.761,1.46,1.671,1.98,2.73
		c0.52,1.06,0.78,2.225,0.78,3.495v0.27c0,1.28-0.26,2.45-0.78,3.51c-0.52,1.061-1.18,1.971-1.98,2.73H70.123z"/>
</g>
<g>
	<g>
		<path fill="none" stroke="#231815" stroke-miterlimit="10" d="M90.792,177.504c0,0,27.648,3.326,26.777-28.963"/>
		<g>
			<path fill="#231815" d="M117.115,142.519c1.25,2.759,3.291,6.148,5.343,8.193l-4.865-1.383l-4.623,2.049
				C114.717,149.066,116.264,145.426,117.115,142.519z"/>
		</g>
	</g>
</g>
<g>
	<g>
		<path fill="none" stroke="#231815" stroke-miterlimit="10" d="M145.657,51.668c0,0,23.001-23.797,31.517-5.742"/>
		<g>
			<path fill="#231815" d="M179.05,51.668c-1.916-2.346-4.757-5.098-7.266-6.549l5.057,0.089l3.943-3.166
				C179.689,44.725,179.128,48.64,179.05,51.668z"/>
		</g>
	</g>
</g>
<g>
</g>
</svg>
