<?xml version="1.0" encoding="utf-8"?>
<!-- Generator: Adobe Illustrator 28.0.0, SVG Export Plug-In . SVG Version: 6.00 Build 0)  -->
<svg version="1.1" id="레이어_1" xmlns="http://www.w3.org/2000/svg" xmlns:xlink="http://www.w3.org/1999/xlink" x="0px"
	 y="0px" viewBox="0 0 283.355 379.444" enable-background="new 0 0 283.355 379.444" xml:space="preserve">
<rect x="51.871" y="0.5" fill="#C9CACA" stroke="#FFFFFF" stroke-miterlimit="10" width="83.862" height="348.951"/>
<polyline fill="none" stroke="#EA5515" stroke-width="2" stroke-miterlimit="10" points="21.29,93.781 51.484,121.265 
	66.968,130.168 84,121.265 98.323,109.652 114.581,76.749 128.903,46.942 143.613,10.942 175.742,57.007 204.387,72.878 
	237.29,75.587 268.258,98.039 "/>
<polyline fill="none" stroke="#00A1E9" stroke-width="2" stroke-miterlimit="10" points="21.29,161.523 52.258,193.652 
	67.355,209.523 82.839,213.007 97.548,219.2 113.032,228.491 128.903,212.62 144.774,146.039 174.581,194.039 205.161,178.411 
	236.903,178.411 268.258,158.426 "/>
<polyline fill="none" stroke="#009944" stroke-width="2" stroke-miterlimit="10" points="21.29,274.942 51.871,312.491 
	66.581,327.587 80.516,321.781 97.548,319.071 113.806,309.394 127.742,316.749 144.774,273.394 174.581,232.749 206.323,266.039 
	236.129,269.136 268.258,270.684 "/>
<line fill="none" stroke="#000000" stroke-width="2" stroke-miterlimit="10" x1="0" y1="351.587" x2="283.355" y2="351.587"/>
<line fill="none" stroke="#000000" stroke-width="2" stroke-miterlimit="10" x1="21.29" y1="353.523" x2="21.29" y2="357.394"/>
<line fill="none" stroke="#000000" stroke-width="2" stroke-miterlimit="10" x1="36.581" y1="353.523" x2="36.581" y2="357.394"/>
<line fill="none" stroke="#000000" stroke-width="2" stroke-miterlimit="10" x1="51.871" y1="353.523" x2="51.871" y2="357.394"/>
<line fill="none" stroke="#000000" stroke-width="2" stroke-miterlimit="10" x1="67.161" y1="353.523" x2="67.161" y2="357.394"/>
<line fill="none" stroke="#000000" stroke-width="2" stroke-miterlimit="10" x1="82.452" y1="353.523" x2="82.452" y2="357.394"/>
<line fill="none" stroke="#000000" stroke-width="2" stroke-miterlimit="10" x1="97.742" y1="353.523" x2="97.742" y2="357.394"/>
<line fill="none" stroke="#000000" stroke-width="2" stroke-miterlimit="10" x1="113.032" y1="353.523" x2="113.032" y2="357.394"/>
<line fill="none" stroke="#000000" stroke-width="2" stroke-miterlimit="10" x1="128.323" y1="353.523" x2="128.323" y2="357.394"/>
<line fill="none" stroke="#000000" stroke-width="2" stroke-miterlimit="10" x1="143.613" y1="353.523" x2="143.613" y2="357.394"/>
<line fill="none" stroke="#000000" stroke-width="2" stroke-miterlimit="10" x1="158.903" y1="353.523" x2="158.903" y2="357.394"/>
<line fill="none" stroke="#000000" stroke-width="2" stroke-miterlimit="10" x1="174.194" y1="353.523" x2="174.194" y2="357.394"/>
<line fill="none" stroke="#000000" stroke-width="2" stroke-miterlimit="10" x1="189.484" y1="353.523" x2="189.484" y2="357.394"/>
<line fill="none" stroke="#000000" stroke-width="2" stroke-miterlimit="10" x1="204.774" y1="353.523" x2="204.774" y2="357.394"/>
<line fill="none" stroke="#000000" stroke-width="2" stroke-miterlimit="10" x1="220.065" y1="353.523" x2="220.065" y2="357.394"/>
<line fill="none" stroke="#000000" stroke-width="2" stroke-miterlimit="10" x1="235.355" y1="353.523" x2="235.355" y2="357.394"/>
<line fill="none" stroke="#000000" stroke-width="2" stroke-miterlimit="10" x1="250.645" y1="353.523" x2="250.645" y2="357.394"/>
<line fill="none" stroke="#000000" stroke-width="2" stroke-miterlimit="10" x1="265.935" y1="353.523" x2="265.935" y2="357.394"/>
<line fill="none" stroke="#000000" stroke-width="2" stroke-miterlimit="10" x1="281.226" y1="353.523" x2="281.226" y2="357.394"/>
<g>
	<path d="M11.838,375.229v-1.104l2.008-2.115c0.889-0.94,1.548-1.72,1.978-2.338c0.429-0.618,0.644-1.224,0.644-1.816
		c0-0.624-0.166-1.073-0.498-1.35c-0.333-0.275-0.841-0.414-1.525-0.414c-0.675,0-1.4,0.235-2.177,0.706l-0.307-1.396
		c0.909-0.531,1.906-0.797,2.989-0.797c1.134,0,1.998,0.261,2.591,0.781c0.593,0.521,0.889,1.263,0.889,2.223
		c0,0.44-0.08,0.882-0.238,1.326c-0.159,0.445-0.406,0.895-0.744,1.35c-0.337,0.455-0.631,0.822-0.881,1.104s-0.59,0.646-1.02,1.096
		l-1.242,1.272h4.216v1.472H11.838z"/>
	<path d="M24.148,375.413c-1.227,0-2.213-0.417-2.959-1.25c-0.746-0.832-1.119-2.098-1.119-3.794v-0.659
		c0-0.909,0.11-1.701,0.33-2.376s0.524-1.206,0.912-1.595c0.389-0.388,0.82-0.674,1.295-0.858c0.476-0.184,0.994-0.275,1.556-0.275
		c1.196,0,2.169,0.408,2.92,1.227c0.751,0.817,1.127,2.095,1.127,3.832v0.659c0,1.737-0.378,3.021-1.135,3.848
		C26.319,374.999,25.344,375.413,24.148,375.413z M24.148,373.972c0.715,0,1.247-0.278,1.594-0.835
		c0.347-0.558,0.521-1.454,0.521-2.69v-0.782c0-2.401-0.7-3.603-2.1-3.603c-0.726,0-1.262,0.278-1.609,0.836
		c-0.348,0.557-0.521,1.443-0.521,2.659v0.812C22.032,372.771,22.737,373.972,24.148,373.972z"/>
</g>
<g>
	<path d="M44.459,375.229v-1.104l2.008-2.115c0.889-0.94,1.548-1.72,1.978-2.338c0.429-0.618,0.644-1.224,0.644-1.816
		c0-0.624-0.166-1.073-0.498-1.35c-0.333-0.275-0.841-0.414-1.525-0.414c-0.675,0-1.4,0.235-2.177,0.706l-0.307-1.396
		c0.909-0.531,1.906-0.797,2.989-0.797c1.134,0,1.998,0.261,2.591,0.781c0.593,0.521,0.889,1.263,0.889,2.223
		c0,0.44-0.08,0.882-0.238,1.326c-0.159,0.445-0.406,0.895-0.744,1.35c-0.337,0.455-0.631,0.822-0.881,1.104s-0.59,0.646-1.02,1.096
		l-1.242,1.272h4.216v1.472H44.459z"/>
	<path d="M55.481,375.382c-0.603,0-1.188-0.071-1.755-0.214c-0.567-0.144-1.01-0.317-1.326-0.521l0.307-1.364
		c0.266,0.163,0.641,0.304,1.126,0.421c0.485,0.118,0.928,0.177,1.326,0.177c0.715,0,1.267-0.148,1.656-0.444
		c0.388-0.297,0.583-0.736,0.583-1.318c0-1.043-0.726-1.574-2.177-1.595l-1.088-0.03v-1.364l0.966-0.016
		c0.613-0.021,1.104-0.166,1.472-0.437c0.368-0.271,0.552-0.646,0.552-1.127c0-0.961-0.624-1.441-1.871-1.441
		c-0.695,0-1.441,0.184-2.238,0.552l-0.215-1.395c0.327-0.185,0.771-0.34,1.334-0.468c0.562-0.128,1.098-0.191,1.609-0.191
		c0.991,0,1.783,0.228,2.376,0.682c0.592,0.455,0.889,1.097,0.889,1.924c0,1.196-0.628,2.014-1.885,2.453
		c1.492,0.297,2.238,1.155,2.238,2.575c0,0.972-0.348,1.738-1.042,2.3C57.622,375.102,56.677,375.382,55.481,375.382z"/>
</g>
<g>
	<path d="M80.381,375.229v-1.104l2.008-2.115c0.889-0.94,1.548-1.72,1.978-2.338c0.429-0.618,0.644-1.224,0.644-1.816
		c0-0.624-0.166-1.073-0.498-1.35c-0.333-0.275-0.841-0.414-1.525-0.414c-0.675,0-1.4,0.235-2.177,0.706l-0.307-1.396
		c0.909-0.531,1.906-0.797,2.989-0.797c1.134,0,1.998,0.261,2.591,0.781c0.593,0.521,0.889,1.263,0.889,2.223
		c0,0.44-0.08,0.882-0.238,1.326c-0.159,0.445-0.406,0.895-0.744,1.35c-0.337,0.455-0.631,0.822-0.881,1.104s-0.59,0.646-1.02,1.096
		l-1.242,1.272h4.216v1.472H80.381z"/>
</g>
<g>
	<path d="M112.564,375.382c-1.206,0-2.202-0.239-2.989-0.72l0.337-1.441c0.705,0.419,1.431,0.629,2.177,0.629
		c0.736,0,1.311-0.172,1.725-0.514c0.414-0.343,0.621-0.83,0.621-1.464c0-1.258-0.756-1.886-2.269-1.886
		c-0.665,0-1.375,0.188-2.131,0.567l0.383-5.78h5.488v1.472h-4.047l-0.199,2.561c0.47-0.123,0.91-0.184,1.318-0.184
		c1.073,0,1.909,0.275,2.506,0.827c0.598,0.552,0.897,1.375,0.897,2.469c0,1.001-0.345,1.829-1.035,2.483
		S113.73,375.382,112.564,375.382z"/>
</g>
<g>
	<path d="M146.488,374.569c-0.711,0.562-1.679,0.844-2.905,0.844c-1.226,0-2.184-0.256-2.874-0.767s-1.035-1.201-1.035-2.069
		c0-0.624,0.204-1.171,0.613-1.641c0.409-0.47,0.925-0.828,1.548-1.073c-1.237-0.562-1.855-1.4-1.855-2.514
		c0-0.818,0.327-1.479,0.981-1.985c0.654-0.506,1.528-0.759,2.621-0.759c1.104,0,1.973,0.229,2.606,0.689s0.95,1.099,0.95,1.916
		c0,1.053-0.639,1.886-1.916,2.499c1.553,0.521,2.33,1.405,2.33,2.652C147.553,373.271,147.198,374.008,146.488,374.569z
		 M142.012,373.604c0.373,0.287,0.881,0.43,1.525,0.43s1.157-0.141,1.541-0.422c0.383-0.28,0.574-0.651,0.574-1.111
		c0-0.521-0.191-0.938-0.574-1.249c-0.384-0.312-0.984-0.575-1.802-0.79c-0.511,0.174-0.942,0.435-1.295,0.782
		s-0.529,0.741-0.529,1.181C141.452,372.925,141.638,373.318,142.012,373.604z M143.843,369.082
		c1.012-0.419,1.518-0.997,1.518-1.732c0-0.409-0.148-0.741-0.444-0.997c-0.297-0.255-0.73-0.383-1.303-0.383
		c-0.542,0-0.969,0.12-1.28,0.36c-0.312,0.24-0.468,0.564-0.468,0.974C141.866,368.162,142.525,368.755,143.843,369.082z"/>
</g>
<g>
	<path d="M170.792,375.29v-8.646l-1.764,0.353v-1.104l2.668-1.195h0.996v10.593H170.792z"/>
	<path d="M176.54,375.29v-8.646l-1.763,0.353v-1.104l2.667-1.195h0.997v10.593H176.54z"/>
</g>
<g>
	<path d="M199.747,375.29v-8.646l-1.764,0.353v-1.104l2.668-1.195h0.996v10.593H199.747z"/>
	<path d="M208.346,375.397v-2.146h-4.829v-1.104l5.319-7.435h1.288v7.144h1.548v1.395h-1.548v2.146H208.346z M205.572,371.856h2.79
		v-3.955L205.572,371.856z"/>
</g>
<g>
	<path d="M230.878,375.29v-8.646l-1.764,0.353v-1.104l2.668-1.195h0.996v10.593H230.878z"/>
	<path d="M235.798,375.229l3.833-8.952h-4.768v-1.487h6.807v1.119l-3.787,9.32H235.798z"/>
</g>
<g>
	<path d="M257.68,375.229v-1.104l2.008-2.115c0.889-0.94,1.549-1.72,1.979-2.338c0.429-0.618,0.643-1.224,0.643-1.816
		c0-0.624-0.166-1.073-0.498-1.35c-0.332-0.275-0.84-0.414-1.525-0.414c-0.674,0-1.4,0.235-2.176,0.706l-0.307-1.396
		c0.908-0.531,1.905-0.797,2.988-0.797c1.135,0,1.998,0.261,2.592,0.781c0.592,0.521,0.889,1.263,0.889,2.223
		c0,0.44-0.08,0.882-0.238,1.326c-0.158,0.445-0.406,0.895-0.743,1.35s-0.631,0.822-0.882,1.104c-0.25,0.281-0.59,0.646-1.02,1.096
		l-1.241,1.272h4.216v1.472H257.68z"/>
	<path d="M269.99,375.413c-1.227,0-2.213-0.417-2.959-1.25c-0.746-0.832-1.119-2.098-1.119-3.794v-0.659
		c0-0.909,0.11-1.701,0.329-2.376c0.221-0.675,0.524-1.206,0.912-1.595c0.389-0.388,0.82-0.674,1.296-0.858
		c0.476-0.184,0.994-0.275,1.556-0.275c1.196,0,2.17,0.408,2.921,1.227c0.751,0.817,1.127,2.095,1.127,3.832v0.659
		c0,1.737-0.378,3.021-1.135,3.848C272.161,374.999,271.186,375.413,269.99,375.413z M269.99,373.972
		c0.716,0,1.247-0.278,1.595-0.835c0.347-0.558,0.521-1.454,0.521-2.69v-0.782c0-2.401-0.7-3.603-2.101-3.603
		c-0.725,0-1.262,0.278-1.609,0.836c-0.348,0.557-0.521,1.443-0.521,2.659v0.812C267.874,372.771,268.579,373.972,269.99,373.972z"
		/>
</g>
<g>
	<path d="M200.933,43.565h-9.66v-1.104h3.468v-2.46h1.404v2.46h4.788V43.565z M199.853,35.309c0,2.641-0.168,4.645-0.504,6.013
		c-0.296-0.04-0.748-0.084-1.356-0.133c0.136-0.56,0.252-1.312,0.349-2.256c-1.305,0.064-3.356,0.168-6.156,0.312l-0.168-1.116
		l6.384-0.288c0.032-0.655,0.048-1.132,0.048-1.428h-6.048v-1.104H199.853z"/>
	<path d="M211.313,43.578h-9.66v-1.104h9.66V43.578z M210.401,40.889h-7.512v-3.54h5.808v-1.224h-5.868v-1.116h7.26v3.468h-5.808
		v1.284h6.12V40.889z"/>
	<path d="M218.344,41.034l0.156,1.104c-1.271,0.232-2.888,0.349-4.848,0.349h-1.021v-7.345h5.053v1.116h-3.66v1.944h3.479v1.116
		h-3.479v2.04C215.777,41.358,217.216,41.25,218.344,41.034z M220.792,44.91h-1.416V34.217h1.416V44.91z"/>
	<path d="M232.073,39.942h-9.66v-1.129h4.104V37.65h1.404v1.163h4.152V39.942z M227.249,36.078c-0.272,0.568-0.772,1.056-1.5,1.464
		c-0.729,0.408-1.5,0.668-2.316,0.78l-0.575-1.068c0.968-0.096,1.821-0.388,2.562-0.876s1.11-1.096,1.11-1.824v-0.216h1.452v0.216
		c0,0.488,0.203,0.94,0.611,1.356s0.889,0.737,1.44,0.966c0.552,0.228,1.096,0.358,1.632,0.39l-0.6,1.08
		c-0.769-0.12-1.53-0.39-2.286-0.81S227.512,36.629,227.249,36.078z M231.184,44.862h-7.535v-2.677h5.735v-0.552h-5.808v-1.116
		h7.212v2.652h-5.748v0.552h6.144V44.862z"/>
</g>
<g>
	<path d="M193.042,155.619h-1.319v-4.98h-0.912c-0.064,0.944-0.29,1.723-0.678,2.334c-0.389,0.612-0.935,0.918-1.639,0.918
		c-0.52,0-0.96-0.188-1.319-0.563c-0.36-0.376-0.614-0.844-0.763-1.404c-0.147-0.56-0.222-1.188-0.222-1.884
		c0-0.688,0.074-1.308,0.222-1.86c0.148-0.552,0.402-1.016,0.763-1.392c0.359-0.376,0.8-0.564,1.319-0.564
		c0.712,0,1.261,0.307,1.645,0.918c0.384,0.612,0.607,1.395,0.672,2.347h0.912v-3.864h1.319V155.619z M189.275,151.922
		c0.168-0.479,0.252-1.104,0.252-1.872c0-0.768-0.084-1.394-0.252-1.878c-0.168-0.483-0.424-0.726-0.768-0.726
		c-0.328,0-0.576,0.242-0.744,0.726c-0.168,0.484-0.252,1.11-0.252,1.878c0,0.761,0.084,1.383,0.252,1.866
		c0.168,0.484,0.416,0.727,0.744,0.727C188.851,152.643,189.107,152.403,189.275,151.922z M195.179,156.111h-1.32v-10.692h1.32
		V156.111z"/>
	<path d="M203.147,153.218c-0.641,0.112-1.604,0.206-2.893,0.282s-2.523,0.114-3.708,0.114c-0.063-0.344-0.128-0.732-0.191-1.164
		h1.452l-0.336-4.152c0.168-0.016,0.628-0.071,1.38-0.168l0.228,4.284c0.056,0,0.456-0.012,1.2-0.036
		c0.016-0.319,0.042-0.768,0.078-1.344s0.067-1.102,0.096-1.578c0.028-0.476,0.054-0.926,0.078-1.35l1.344,0.155
		c-0.08,0.896-0.208,2.24-0.384,4.032c0.72-0.056,1.236-0.115,1.548-0.18L203.147,153.218z M202.679,147.447h-5.965v-1.104h5.965
		V147.447z M205.307,156.111h-1.404v-10.692h1.404V156.111z"/>
	<path d="M211.667,152.067l0.168,1.115c-0.271,0.089-0.771,0.167-1.5,0.234c-0.728,0.068-1.416,0.103-2.063,0.103h-0.96v-7.164h1.38
		v6C210.018,152.355,211.01,152.258,211.667,152.067z M212.411,149.907h-2.112v-1.128h2.112v-3.168h1.32v10.008h-1.32V149.907z
		 M215.926,156.111h-1.332v-10.692h1.332V156.111z"/>
	<path d="M226.882,154.707h-9.66v-1.116h9.66V154.707z M225.97,147.351h-7.884v-1.116h7.884V147.351z M225.947,151.707h-7.836
		v-1.116h1.571l-0.3-2.472l1.404-0.168l0.216,2.64h2.136l0.385-2.616l1.355,0.217l-0.444,2.399h1.513V151.707z"/>
	<path d="M233.878,150.483l0.132,1.067c-0.432,0.112-1.086,0.202-1.962,0.271c-0.876,0.067-1.698,0.102-2.466,0.102
		c-0.168,0-0.41-0.002-0.727-0.006c-0.315-0.004-0.554-0.006-0.714-0.006v-3.48h3.408v-1.151h-3.432v-1.116h4.848v3.324h-3.42v1.319
		C231.659,150.806,233.102,150.699,233.878,150.483z M236.71,155.882h-7.404v-3.204h1.416v2.088h5.988V155.882z M236.434,153.17
		h-1.403v-7.752h1.403V153.17z"/>
</g>
<g>
	<path d="M197.698,236.815h-3.012v2.676h4.151v1.104h-9.66v-1.104h4.104v-2.676h-2.916v-4.788h1.392v3.685h5.94V236.815z"/>
	<path d="M209.217,240.596h-9.66v-1.104h9.66V240.596z M208.305,237.907h-7.512v-3.54h5.808v-1.224h-5.867v-1.116h7.26v3.468h-5.809
		v1.284h6.12V237.907z"/>
	<path d="M216.897,241.436h-1.319v-4.98h-0.912c-0.064,0.944-0.29,1.723-0.678,2.334c-0.389,0.612-0.935,0.918-1.639,0.918
		c-0.52,0-0.96-0.188-1.319-0.563c-0.36-0.376-0.614-0.844-0.763-1.404c-0.147-0.56-0.222-1.188-0.222-1.884
		c0-0.688,0.074-1.308,0.222-1.86c0.148-0.552,0.402-1.016,0.763-1.392c0.359-0.376,0.8-0.564,1.319-0.564
		c0.712,0,1.261,0.307,1.645,0.918c0.384,0.612,0.607,1.395,0.672,2.347h0.912v-3.864h1.319V241.436z M213.129,237.739
		c0.168-0.479,0.252-1.104,0.252-1.872c0-0.768-0.084-1.394-0.252-1.878c-0.168-0.483-0.424-0.726-0.768-0.726
		c-0.328,0-0.576,0.242-0.744,0.726c-0.168,0.484-0.252,1.11-0.252,1.878c0,0.761,0.084,1.383,0.252,1.866
		c0.168,0.484,0.416,0.727,0.744,0.727C212.706,238.46,212.961,238.22,213.129,237.739z M219.034,241.928h-1.32v-10.692h1.32
		V241.928z"/>
	<path d="M227.001,239.035c-0.641,0.112-1.604,0.206-2.893,0.282s-2.523,0.114-3.708,0.114c-0.063-0.344-0.128-0.732-0.191-1.164
		h1.452l-0.336-4.152c0.168-0.016,0.628-0.071,1.38-0.168l0.228,4.284c0.056,0,0.456-0.012,1.2-0.036
		c0.016-0.319,0.042-0.768,0.078-1.344s0.067-1.102,0.096-1.578c0.028-0.476,0.054-0.926,0.078-1.35l1.344,0.155
		c-0.08,0.896-0.208,2.24-0.384,4.032c0.72-0.056,1.236-0.115,1.548-0.18L227.001,239.035z M226.534,233.264h-5.965v-1.104h5.965
		V233.264z M229.162,241.928h-1.404v-10.692h1.404V241.928z"/>
	<path d="M235.521,237.884l0.168,1.115c-0.271,0.089-0.771,0.167-1.5,0.234c-0.728,0.068-1.416,0.103-2.063,0.103h-0.96v-7.164h1.38
		v6C233.873,238.172,234.865,238.075,235.521,237.884z M236.265,235.724h-2.112v-1.128h2.112v-3.168h1.32v10.008h-1.32V235.724z
		 M239.781,241.928h-1.332v-10.692h1.332V241.928z"/>
	<path d="M250.737,240.523h-9.66v-1.116h9.66V240.523z M249.825,233.168h-7.884v-1.116h7.884V233.168z M249.801,237.523h-7.836
		v-1.116h1.571l-0.3-2.472l1.404-0.168l0.216,2.64h2.136l0.385-2.616l1.355,0.217l-0.444,2.399h1.513V237.523z"/>
	<path d="M257.733,236.3l0.132,1.067c-0.432,0.112-1.086,0.202-1.962,0.271c-0.876,0.067-1.698,0.102-2.466,0.102
		c-0.168,0-0.41-0.002-0.727-0.006c-0.315-0.004-0.554-0.006-0.714-0.006v-3.48h3.408v-1.151h-3.432v-1.116h4.848v3.324h-3.42v1.319
		C255.513,236.623,256.957,236.516,257.733,236.3z M260.565,241.699h-7.404v-3.204h1.416v2.088h5.988V241.699z M260.289,238.987
		h-1.403v-7.752h1.403V238.987z"/>
</g>
<g>
</g>
<g>
</g>
<g>
</g>
<g>
</g>
<g>
</g>
<g>
</g>
</svg>
