<?xml version="1.0" encoding="utf-8"?>
<!-- Generator: Adobe Illustrator 28.0.0, SVG Export Plug-In . SVG Version: 6.00 Build 0)  -->
<svg version="1.1" id="레이어_1" xmlns="http://www.w3.org/2000/svg" xmlns:xlink="http://www.w3.org/1999/xlink" x="0px"
	 y="0px" viewBox="0 0 256.994 129.372" enable-background="new 0 0 256.994 129.372" xml:space="preserve">
<rect x="68.128" y="33" fill="#F39800" width="7" height="16"/>
<rect x="104.128" y="33" fill="#F39800" width="10" height="16"/>
<rect x="139.128" y="33" fill="#F39800" width="12" height="16"/>
<rect x="172.128" y="33" fill="#F39800" width="18" height="16"/>
<rect x="210.128" y="33" fill="#F39800" width="42" height="16"/>
<polyline fill="none" stroke="#000000" stroke-width="0.75" stroke-miterlimit="10" points="29.128,14 34.128,14 34.128,49 
	39.128,49 39.128,66.129 44.128,66.129 44.128,86 46.128,86 46.128,99 59.87,99 59.87,85 64.128,85 64.128,66.129 68.128,66.129 
	68.128,32.839 75.128,32.839 75.128,66 79.128,66 79.128,85.742 82.128,85.742 82.128,99 85.419,99 85.419,85.742 88.128,85.742 
	88.128,67 91.128,67 91.128,85.742 97.128,85.742 97.128,99 98.838,99 98.838,66 104.128,66 104.128,32.839 114.128,32.839 
	114.128,66.129 120.128,66.129 120.128,86 130.766,86 130.766,66.129 139.128,66.129 139.128,32.839 151.128,32.839 151.128,66.129 
	165.128,66.129 165.128,83.032 169.128,83.032 169.128,66.129 172.128,66.129 172.128,32.839 190.128,32.839 190.128,66 210.128,66 
	210.128,33.161 252.128,33.161 "/>
<g>
	<polyline fill="none" stroke="#000000" stroke-width="0.75" stroke-miterlimit="10" points="29.128,0.065 29.128,118.387 
		251.096,118.387 	"/>
	<line fill="none" stroke="#000000" stroke-miterlimit="10" x1="58.628" y1="118.5" x2="58.628" y2="121"/>
	<line fill="none" stroke="#000000" stroke-miterlimit="10" x1="83.771" y1="118.5" x2="83.771" y2="121"/>
	<line fill="none" stroke="#000000" stroke-miterlimit="10" x1="234.628" y1="118.5" x2="234.628" y2="121"/>
	<line fill="none" stroke="#000000" stroke-miterlimit="10" x1="184.343" y1="118.5" x2="184.343" y2="121"/>
	<line fill="none" stroke="#000000" stroke-miterlimit="10" x1="209.486" y1="118.5" x2="209.486" y2="121"/>
	<line fill="none" stroke="#000000" stroke-miterlimit="10" x1="159.2" y1="118.5" x2="159.2" y2="121"/>
	<line fill="none" stroke="#000000" stroke-miterlimit="10" x1="108.914" y1="118.5" x2="108.914" y2="121"/>
	<line fill="none" stroke="#000000" stroke-miterlimit="10" x1="134.057" y1="118.5" x2="134.057" y2="121"/>
</g>
<g>
	<path d="M18.348,12.581c-0.012,0.72-0.232,1.317-0.66,1.791c-0.428,0.474-1.01,0.797-1.746,0.969L15.6,14.795
		c0.304-0.056,0.592-0.153,0.864-0.291s0.513-0.325,0.723-0.561c0.21-0.236,0.339-0.498,0.387-0.786h-1.716v-0.576H18.348z
		 M19.848,17.609H19.14v-1.41h-2.82v-0.558h3.528V17.609z M20.604,14.099h-0.762v1.296h-0.708v-3.138h0.708v1.266h0.762V14.099z"/>
	<path d="M24.047,14.627l-0.402,0.546c-0.22-0.088-0.446-0.233-0.678-0.435c-0.232-0.202-0.402-0.419-0.51-0.651
		c-0.076,0.264-0.237,0.511-0.483,0.741c-0.246,0.23-0.499,0.389-0.759,0.477l-0.42-0.558c0.396-0.144,0.71-0.367,0.942-0.669
		c0.232-0.302,0.348-0.651,0.348-1.047v-0.528h0.726v0.492c0,0.392,0.121,0.734,0.363,1.026S23.708,14.515,24.047,14.627z
		 M25.308,16.523c0,0.328-0.162,0.589-0.486,0.783c-0.324,0.194-0.776,0.291-1.356,0.291c-0.568,0-1.013-0.097-1.335-0.291
		c-0.322-0.194-0.483-0.455-0.483-0.783c0-0.336,0.16-0.601,0.48-0.795c0.32-0.194,0.766-0.291,1.338-0.291
		c0.58,0,1.032,0.097,1.356,0.291C25.146,15.922,25.308,16.187,25.308,16.523z M23.465,16.001c-0.344,0-0.613,0.046-0.807,0.138
		c-0.194,0.092-0.291,0.22-0.291,0.384c0,0.16,0.097,0.285,0.291,0.375c0.194,0.09,0.463,0.135,0.807,0.135
		c0.356,0,0.631-0.045,0.825-0.135c0.194-0.09,0.291-0.215,0.291-0.375c0-0.164-0.097-0.292-0.291-0.384
		C24.096,16.047,23.821,16.001,23.465,16.001z M25.271,15.377h-0.702v-1.452h-0.912v-0.558h0.912v-1.11h0.702V15.377z"/>
</g>
<g>
	<path d="M13.032,32.307c-0.44,0.104-1.096,0.156-1.968,0.156h-0.366v-1.644h1.272v-0.486h-1.296v-0.558h1.998v1.584h-1.278v0.552
		c0.68,0,1.2-0.046,1.56-0.138C12.985,32.013,13.012,32.191,13.032,32.307z M15.018,34.737h-3.618v-1.872h3.618V34.737z
		 M14.304,34.185v-0.78h-2.196v0.78H14.304z M13.35,31.347h-0.492v-0.564h0.492v-1.23h0.654v3.036H13.35V31.347z M15.018,32.625
		h-0.672v-3.168h0.672V32.625z"/>
	<path d="M18.414,34.809h-0.708v-1.902H15.66v-0.552h4.83v0.552h-2.076V34.809z M20.292,31.341l-0.306,0.57
		c-0.404-0.06-0.791-0.206-1.161-0.438c-0.37-0.232-0.619-0.492-0.747-0.78c-0.116,0.288-0.357,0.547-0.723,0.777
		s-0.757,0.379-1.173,0.447l-0.3-0.576c0.488-0.052,0.914-0.218,1.278-0.498c0.364-0.28,0.546-0.612,0.546-0.996v-0.276h0.744v0.276
		c0,0.256,0.095,0.496,0.285,0.72c0.19,0.224,0.424,0.402,0.702,0.534C19.714,31.233,20,31.313,20.292,31.341z"/>
	<path d="M23.538,32.409H21.06v-2.502h2.478V32.409z M25.374,34.659H21.75v-1.656h0.696v1.098h2.928V34.659z M22.841,31.863v-1.416
		h-1.086v1.416H22.841z M24.569,30.849h-0.744v-0.552h0.744v-0.84h0.696v3.876h-0.696v-1.308h-0.744v-0.552h0.744V30.849z"/>
</g>
<g>
	<path d="M2.189,51.307v-3.384L1.5,48.061v-0.432l1.044-0.468h0.39v4.146H2.189z"/>
	<path d="M4.571,49.057c0.892,0,1.59-0.052,2.094-0.156c0.016,0.132,0.048,0.31,0.096,0.534c-0.521,0.125-1.308,0.186-2.364,0.186
		H3.875v-2.526h2.382v0.552H4.571V49.057z M8.003,51.847H4.452v-1.704h0.702v1.14h2.85V51.847z M8.64,48.691H7.877v1.824H7.169
		v-3.858h0.708v1.458H8.64V48.691z"/>
	<path d="M11.117,47.287c0.008,1.608-0.626,2.832-1.902,3.672l-0.456-0.486c0.508-0.308,0.904-0.687,1.188-1.137
		c0.284-0.45,0.448-0.945,0.492-1.485H9.095v-0.564H11.117z M12.372,51.757h-0.654v-1.8H11.04v-0.57h0.678v-0.756h-0.546v-0.57
		h0.546v-1.302h0.654V51.757z M13.439,52.003h-0.666v-5.346h0.666V52.003z"/>
	<path d="M18.414,52.009h-0.708v-1.902H15.66v-0.552h4.83v0.552h-2.076V52.009z M20.292,48.541l-0.306,0.57
		c-0.404-0.06-0.791-0.206-1.161-0.438c-0.37-0.232-0.619-0.492-0.747-0.78c-0.116,0.288-0.357,0.547-0.723,0.777
		s-0.757,0.379-1.173,0.447l-0.3-0.576c0.488-0.052,0.914-0.218,1.278-0.498c0.364-0.28,0.546-0.612,0.546-0.996v-0.276h0.744v0.276
		c0,0.256,0.095,0.496,0.285,0.72c0.19,0.224,0.424,0.402,0.702,0.534C19.714,48.433,20,48.513,20.292,48.541z"/>
	<path d="M23.538,49.609H21.06v-2.502h2.478V49.609z M25.374,51.859H21.75v-1.656h0.696v1.098h2.928V51.859z M22.841,49.063v-1.416
		h-1.086v1.416H22.841z M24.569,48.049h-0.744v-0.552h0.744v-0.84h0.696v3.876h-0.696v-1.308h-0.744v-0.552h0.744V48.049z"/>
</g>
<g>
	<path d="M0.624,68.482v-0.432l0.786-0.828c0.348-0.368,0.606-0.673,0.774-0.915s0.252-0.479,0.252-0.711
		c0-0.244-0.065-0.42-0.195-0.528c-0.13-0.107-0.329-0.161-0.597-0.161c-0.264,0-0.548,0.092-0.852,0.275l-0.12-0.546
		c0.356-0.208,0.746-0.312,1.17-0.312c0.444,0,0.782,0.102,1.014,0.306s0.348,0.494,0.348,0.87c0,0.172-0.031,0.345-0.093,0.519
		s-0.159,0.351-0.291,0.528c-0.132,0.178-0.247,0.322-0.345,0.432c-0.098,0.11-0.231,0.253-0.399,0.43l-0.486,0.498h1.65v0.575
		H0.624z"/>
	<path d="M4.571,66.257c0.892,0,1.59-0.052,2.094-0.156c0.016,0.132,0.048,0.311,0.096,0.534c-0.521,0.124-1.308,0.186-2.364,0.186
		H3.875v-2.525h2.382v0.552H4.571V66.257z M8.003,69.047H4.452v-1.704h0.702v1.14h2.85V69.047z M8.64,65.891H7.877v1.824H7.169
		v-3.858h0.708v1.458H8.64V65.891z"/>
	<path d="M11.117,64.486c0.008,1.608-0.626,2.832-1.902,3.673l-0.456-0.486c0.508-0.308,0.904-0.688,1.188-1.137
		c0.284-0.45,0.448-0.945,0.492-1.485H9.095v-0.564H11.117z M12.372,68.957h-0.654v-1.8H11.04v-0.57h0.678v-0.756h-0.546v-0.57
		h0.546v-1.302h0.654V68.957z M13.439,69.203h-0.666v-5.347h0.666V69.203z"/>
	<path d="M18.414,69.209h-0.708v-1.902H15.66v-0.552h4.83v0.552h-2.076V69.209z M20.292,65.741l-0.306,0.569
		c-0.404-0.06-0.791-0.206-1.161-0.438c-0.37-0.232-0.619-0.492-0.747-0.78c-0.116,0.288-0.357,0.547-0.723,0.777
		c-0.366,0.229-0.757,0.379-1.173,0.446l-0.3-0.575c0.488-0.053,0.914-0.219,1.278-0.498c0.364-0.28,0.546-0.612,0.546-0.996v-0.276
		h0.744v0.276c0,0.256,0.095,0.496,0.285,0.72s0.424,0.402,0.702,0.534C19.714,65.633,20,65.713,20.292,65.741z"/>
	<path d="M23.538,66.809H21.06v-2.502h2.478V66.809z M25.374,69.059H21.75v-1.656h0.696v1.099h2.928V69.059z M22.841,66.263v-1.416
		h-1.086v1.416H22.841z M24.569,65.249h-0.744v-0.553h0.744v-0.84h0.696v3.876h-0.696v-1.308h-0.744v-0.552h0.744V65.249z"/>
</g>
<g>
	<path d="M1.722,85.743c-0.236,0-0.465-0.028-0.687-0.084c-0.222-0.057-0.395-0.124-0.519-0.204l0.12-0.534
		c0.104,0.064,0.251,0.119,0.441,0.165s0.363,0.069,0.519,0.069c0.28,0,0.496-0.059,0.648-0.175
		c0.152-0.115,0.228-0.287,0.228-0.516c0-0.408-0.284-0.616-0.852-0.624l-0.426-0.012v-0.534l0.378-0.006
		c0.24-0.008,0.432-0.065,0.576-0.171c0.144-0.106,0.216-0.253,0.216-0.441c0-0.376-0.244-0.563-0.732-0.563
		c-0.272,0-0.564,0.071-0.876,0.216l-0.084-0.546C0.8,81.711,0.974,81.65,1.194,81.6c0.22-0.05,0.43-0.074,0.63-0.074
		c0.388,0,0.698,0.089,0.93,0.267c0.232,0.178,0.348,0.429,0.348,0.753c0,0.468-0.246,0.788-0.738,0.96
		c0.584,0.116,0.876,0.452,0.876,1.008c0,0.38-0.136,0.681-0.408,0.9S2.189,85.743,1.722,85.743z"/>
	<path d="M4.571,83.457c0.892,0,1.59-0.052,2.094-0.156c0.016,0.132,0.048,0.311,0.096,0.534c-0.521,0.124-1.308,0.186-2.364,0.186
		H3.875v-2.525h2.382v0.552H4.571V83.457z M8.003,86.247H4.452v-1.704h0.702v1.14h2.85V86.247z M8.64,83.091H7.877v1.824H7.169
		v-3.858h0.708v1.458H8.64V83.091z"/>
	<path d="M11.117,81.687c0.008,1.608-0.626,2.832-1.902,3.673l-0.456-0.486c0.508-0.308,0.904-0.688,1.188-1.137
		c0.284-0.45,0.448-0.945,0.492-1.485H9.095v-0.564H11.117z M12.372,86.157h-0.654v-1.8H11.04v-0.57h0.678v-0.756h-0.546v-0.57
		h0.546v-1.302h0.654V86.157z M13.439,86.403h-0.666v-5.347h0.666V86.403z"/>
	<path d="M18.414,86.409h-0.708v-1.902H15.66v-0.552h4.83v0.552h-2.076V86.409z M20.292,82.941l-0.306,0.569
		c-0.404-0.06-0.791-0.206-1.161-0.438c-0.37-0.232-0.619-0.492-0.747-0.78c-0.116,0.288-0.357,0.547-0.723,0.777
		c-0.366,0.229-0.757,0.379-1.173,0.446l-0.3-0.575c0.488-0.053,0.914-0.219,1.278-0.498c0.364-0.28,0.546-0.612,0.546-0.996v-0.276
		h0.744v0.276c0,0.256,0.095,0.496,0.285,0.72s0.424,0.402,0.702,0.534C19.714,82.833,20,82.913,20.292,82.941z"/>
	<path d="M23.538,84.009H21.06v-2.502h2.478V84.009z M25.374,86.259H21.75v-1.656h0.696v1.099h2.928V86.259z M22.841,83.463v-1.416
		h-1.086v1.416H22.841z M24.569,82.449h-0.744v-0.553h0.744v-0.84h0.696v3.876h-0.696v-1.308h-0.744v-0.552h0.744V82.449z"/>
</g>
<g>
	<path d="M2.034,102.949v-0.84h-1.89v-0.433l2.082-2.909H2.73v2.795h0.606v0.547H2.73v0.84H2.034z M0.948,101.562H2.04v-1.547
		L0.948,101.562z"/>
	<path d="M4.572,100.656c0.892,0,1.59-0.051,2.094-0.155c0.016,0.132,0.048,0.31,0.096,0.534c-0.521,0.124-1.308,0.186-2.364,0.186
		H3.876v-2.525h2.382v0.552H4.572V100.656z M8.004,103.447H4.452v-1.705h0.702v1.141h2.85V103.447z M8.64,100.291H7.878v1.824H7.17
		v-3.858h0.708v1.458H8.64V100.291z"/>
	<path d="M11.118,98.887c0.008,1.608-0.626,2.832-1.902,3.672l-0.456-0.486c0.508-0.307,0.904-0.687,1.188-1.137
		c0.284-0.449,0.448-0.945,0.492-1.484H9.096v-0.564H11.118z M12.372,103.357h-0.654v-1.801H11.04v-0.57h0.678v-0.756h-0.546v-0.569
		h0.546v-1.302h0.654V103.357z M13.44,103.604h-0.666v-5.347h0.666V103.604z"/>
	<path d="M18.414,103.609h-0.708v-1.902H15.66v-0.553h4.83v0.553h-2.076V103.609z M20.292,100.141l-0.306,0.57
		c-0.404-0.061-0.791-0.206-1.161-0.438c-0.37-0.232-0.619-0.492-0.747-0.781c-0.116,0.289-0.357,0.548-0.723,0.777
		c-0.366,0.23-0.757,0.379-1.173,0.447l-0.3-0.576c0.488-0.052,0.914-0.218,1.278-0.498c0.364-0.279,0.546-0.611,0.546-0.996v-0.275
		h0.744v0.275c0,0.256,0.095,0.496,0.285,0.721c0.19,0.224,0.424,0.402,0.702,0.533C19.715,100.033,20,100.113,20.292,100.141z"/>
	<path d="M23.538,101.209H21.06v-2.502h2.478V101.209z M25.374,103.459H21.75v-1.656h0.696v1.098h2.928V103.459z M22.842,100.663
		v-1.416h-1.086v1.416H22.842z M24.57,99.648h-0.744v-0.552h0.744v-0.84h0.696v3.876H24.57v-1.309h-0.744v-0.551h0.744V99.648z"/>
</g>
<g>
	<g>
		<line fill="none" stroke="#595857" stroke-width="0.75" stroke-miterlimit="10" x1="71.628" y1="0" x2="71.628" y2="1.5"/>
		
			<line fill="none" stroke="#595857" stroke-width="0.75" stroke-miterlimit="10" stroke-dasharray="2.9487,0.9829" x1="71.628" y1="2.483" x2="71.628" y2="116.009"/>
		<line fill="none" stroke="#595857" stroke-width="0.75" stroke-miterlimit="10" x1="71.628" y1="116.5" x2="71.628" y2="118"/>
	</g>
</g>
<g>
	<g>
		<line fill="none" stroke="#595857" stroke-width="0.75" stroke-miterlimit="10" x1="110.628" y1="0" x2="110.628" y2="1.5"/>
		
			<line fill="none" stroke="#595857" stroke-width="0.75" stroke-miterlimit="10" stroke-dasharray="2.9487,0.9829" x1="110.628" y1="2.483" x2="110.628" y2="116.009"/>
		<line fill="none" stroke="#595857" stroke-width="0.75" stroke-miterlimit="10" x1="110.628" y1="116.5" x2="110.628" y2="118"/>
	</g>
</g>
<g>
	<g>
		<line fill="none" stroke="#595857" stroke-width="0.75" stroke-miterlimit="10" x1="148.628" y1="0" x2="148.628" y2="1.5"/>
		
			<line fill="none" stroke="#595857" stroke-width="0.75" stroke-miterlimit="10" stroke-dasharray="2.9487,0.9829" x1="148.628" y1="2.483" x2="148.628" y2="116.009"/>
		<line fill="none" stroke="#595857" stroke-width="0.75" stroke-miterlimit="10" x1="148.628" y1="116.5" x2="148.628" y2="118"/>
	</g>
</g>
<g>
	<g>
		<line fill="none" stroke="#595857" stroke-width="0.75" stroke-miterlimit="10" x1="185.628" y1="0" x2="185.628" y2="1.5"/>
		
			<line fill="none" stroke="#595857" stroke-width="0.75" stroke-miterlimit="10" stroke-dasharray="2.9487,0.9829" x1="185.628" y1="2.483" x2="185.628" y2="116.009"/>
		<line fill="none" stroke="#595857" stroke-width="0.75" stroke-miterlimit="10" x1="185.628" y1="116.5" x2="185.628" y2="118"/>
	</g>
</g>
<g>
	<g>
		<line fill="none" stroke="#595857" stroke-width="0.75" stroke-miterlimit="10" x1="223.628" y1="0" x2="223.628" y2="1.5"/>
		
			<line fill="none" stroke="#595857" stroke-width="0.75" stroke-miterlimit="10" stroke-dasharray="2.9487,0.9829" x1="223.628" y1="2.483" x2="223.628" y2="116.009"/>
		<line fill="none" stroke="#595857" stroke-width="0.75" stroke-miterlimit="10" x1="223.628" y1="116.5" x2="223.628" y2="118"/>
	</g>
</g>
<g>
	<path d="M27.828,127.722v-0.432l0.786-0.828c0.348-0.368,0.606-0.673,0.774-0.915s0.252-0.479,0.252-0.711
		c0-0.244-0.065-0.42-0.195-0.528c-0.13-0.107-0.329-0.162-0.597-0.162c-0.264,0-0.548,0.093-0.852,0.276l-0.12-0.546
		c0.356-0.208,0.746-0.312,1.17-0.312c0.444,0,0.782,0.103,1.014,0.307s0.348,0.494,0.348,0.87c0,0.172-0.031,0.345-0.093,0.519
		s-0.159,0.35-0.291,0.528c-0.132,0.178-0.247,0.321-0.345,0.432c-0.098,0.11-0.231,0.253-0.399,0.429l-0.486,0.498h1.65v0.576
		H27.828z"/>
	<path d="M32.142,127.782c-0.236,0-0.465-0.028-0.687-0.084c-0.222-0.057-0.395-0.124-0.519-0.204l0.12-0.534
		c0.104,0.063,0.251,0.119,0.441,0.165s0.363,0.068,0.519,0.068c0.28,0,0.496-0.058,0.648-0.174s0.228-0.288,0.228-0.516
		c0-0.408-0.284-0.616-0.852-0.624l-0.426-0.012v-0.534l0.378-0.006c0.24-0.009,0.432-0.065,0.576-0.171
		c0.144-0.106,0.216-0.253,0.216-0.441c0-0.376-0.244-0.564-0.732-0.564c-0.272,0-0.564,0.072-0.876,0.217l-0.084-0.547
		c0.128-0.071,0.302-0.133,0.522-0.183c0.22-0.05,0.43-0.075,0.63-0.075c0.388,0,0.698,0.09,0.93,0.268
		c0.232,0.178,0.348,0.429,0.348,0.753c0,0.468-0.246,0.788-0.738,0.96c0.584,0.116,0.876,0.452,0.876,1.008
		c0,0.38-0.136,0.68-0.408,0.9C32.979,127.672,32.609,127.782,32.142,127.782z"/>
	<path d="M37.439,126.702l-0.408,0.527c-0.228-0.14-0.459-0.354-0.693-0.642s-0.395-0.566-0.483-0.834
		c-0.088,0.304-0.254,0.606-0.498,0.909c-0.244,0.302-0.504,0.528-0.78,0.681l-0.426-0.516c0.884-0.572,1.326-1.395,1.326-2.467
		v-0.815h0.726v0.78C36.204,125.378,36.615,126.17,37.439,126.702z M38.543,128.441h-0.702v-5.346h0.702V128.441z"/>
</g>
<g>
	<path d="M56.708,126.689l-0.39,0.511c-0.252-0.124-0.51-0.334-0.774-0.631c-0.264-0.296-0.434-0.569-0.51-0.821
		c-0.068,0.284-0.225,0.579-0.471,0.885c-0.246,0.306-0.521,0.533-0.825,0.681l-0.432-0.521c0.904-0.496,1.356-1.307,1.356-2.431
		v-0.144h-1.08v-0.576h2.85v0.576h-1.044v0.138C55.388,125.428,55.828,126.206,56.708,126.689z M57.662,123.096v2.058h0.762v0.582
		h-0.762v2.706H56.96v-5.346H57.662z"/>
	<path d="M58.856,124.05v-0.576h2.814v0.576h-1.014c0.024,0.352,0.147,0.653,0.369,0.903c0.222,0.25,0.491,0.427,0.807,0.53
		c-0.048,0.072-0.117,0.174-0.207,0.304c-0.09,0.13-0.147,0.213-0.171,0.249c-0.22-0.084-0.441-0.223-0.663-0.414
		c-0.222-0.192-0.387-0.402-0.495-0.63c-0.08,0.252-0.241,0.491-0.483,0.72c-0.242,0.228-0.495,0.388-0.759,0.479
		c-0.028-0.035-0.091-0.118-0.189-0.249c-0.098-0.13-0.175-0.229-0.231-0.297c0.38-0.136,0.684-0.342,0.912-0.618
		c0.228-0.275,0.352-0.602,0.372-0.978H58.856z M63.128,127.374c0,0.328-0.165,0.586-0.495,0.773
		c-0.33,0.188-0.789,0.282-1.377,0.282s-1.047-0.094-1.377-0.282c-0.33-0.188-0.495-0.445-0.495-0.773
		c0-0.336,0.165-0.6,0.495-0.789c0.33-0.19,0.789-0.285,1.377-0.285s1.047,0.095,1.377,0.285
		C62.963,126.774,63.128,127.038,63.128,127.374z M61.256,126.864c-0.364,0-0.647,0.045-0.849,0.135s-0.303,0.215-0.303,0.375
		c0,0.155,0.101,0.277,0.303,0.366c0.202,0.088,0.485,0.132,0.849,0.132c0.368,0,0.653-0.044,0.855-0.132
		c0.202-0.089,0.303-0.211,0.303-0.366c0-0.164-0.101-0.29-0.303-0.378C61.909,126.908,61.624,126.864,61.256,126.864z
		 M61.586,124.938v-0.563h0.804v-1.278h0.702v3.18H62.39v-1.338H61.586z"/>
</g>
<g>
	<path d="M80.854,127.746v-3.385l-0.69,0.139v-0.433l1.044-0.468h0.39v4.146H80.854z"/>
	<path d="M85.685,126.702l-0.408,0.527c-0.228-0.14-0.459-0.354-0.693-0.642s-0.395-0.566-0.483-0.834
		c-0.088,0.304-0.254,0.606-0.498,0.909c-0.244,0.302-0.504,0.528-0.78,0.681l-0.426-0.516c0.884-0.572,1.326-1.395,1.326-2.467
		v-0.815h0.726v0.78C84.449,125.378,84.86,126.17,85.685,126.702z M86.789,128.441h-0.702v-5.346h0.702V128.441z"/>
</g>
<g>
	<path d="M104.935,127.722v-0.432l0.786-0.828c0.348-0.368,0.606-0.673,0.774-0.915s0.252-0.479,0.252-0.711
		c0-0.244-0.065-0.42-0.195-0.528c-0.13-0.107-0.329-0.162-0.597-0.162c-0.264,0-0.548,0.093-0.852,0.276l-0.12-0.546
		c0.356-0.208,0.746-0.312,1.17-0.312c0.444,0,0.782,0.103,1.014,0.307s0.348,0.494,0.348,0.87c0,0.172-0.031,0.345-0.093,0.519
		s-0.159,0.35-0.291,0.528c-0.132,0.178-0.247,0.321-0.345,0.432c-0.098,0.11-0.231,0.253-0.399,0.429l-0.486,0.498h1.65v0.576
		H104.935z"/>
	<path d="M111.331,126.702l-0.408,0.527c-0.228-0.14-0.459-0.354-0.693-0.642s-0.395-0.566-0.483-0.834
		c-0.088,0.304-0.254,0.606-0.498,0.909c-0.244,0.302-0.504,0.528-0.78,0.681l-0.426-0.516c0.884-0.572,1.326-1.395,1.326-2.467
		v-0.815h0.726v0.78C110.095,125.378,110.507,126.17,111.331,126.702z M112.435,128.441h-0.702v-5.346h0.702V128.441z"/>
</g>
<g>
	<path d="M131.203,127.782c-0.236,0-0.465-0.028-0.687-0.084c-0.222-0.057-0.395-0.124-0.519-0.204l0.12-0.534
		c0.104,0.063,0.251,0.119,0.441,0.165s0.363,0.068,0.519,0.068c0.28,0,0.496-0.058,0.648-0.174s0.228-0.288,0.228-0.516
		c0-0.408-0.284-0.616-0.852-0.624l-0.426-0.012v-0.534l0.378-0.006c0.24-0.009,0.432-0.065,0.576-0.171
		c0.144-0.106,0.216-0.253,0.216-0.441c0-0.376-0.244-0.564-0.732-0.564c-0.272,0-0.564,0.072-0.876,0.217l-0.084-0.547
		c0.128-0.071,0.302-0.133,0.522-0.183c0.22-0.05,0.43-0.075,0.63-0.075c0.388,0,0.698,0.09,0.93,0.268
		c0.231,0.178,0.348,0.429,0.348,0.753c0,0.468-0.246,0.788-0.738,0.96c0.583,0.116,0.875,0.452,0.875,1.008
		c0,0.38-0.136,0.68-0.408,0.9C132.041,127.672,131.67,127.782,131.203,127.782z"/>
	<path d="M136.5,126.702l-0.408,0.527c-0.229-0.14-0.459-0.354-0.693-0.642c-0.233-0.288-0.395-0.566-0.482-0.834
		c-0.088,0.304-0.254,0.606-0.498,0.909c-0.244,0.302-0.504,0.528-0.78,0.681l-0.426-0.516c0.884-0.572,1.326-1.395,1.326-2.467
		v-0.815h0.726v0.78C135.264,125.378,135.676,126.17,136.5,126.702z M137.604,128.441h-0.702v-5.346h0.702V128.441z"/>
</g>
<g>
	<path d="M156.834,127.788v-0.84h-1.891v-0.433l2.082-2.91h0.504v2.796h0.606v0.547h-0.606v0.84H156.834z M155.749,126.401h1.092
		v-1.548L155.749,126.401z"/>
	<path d="M161.82,126.702l-0.408,0.527c-0.228-0.14-0.459-0.354-0.692-0.642c-0.234-0.288-0.396-0.566-0.483-0.834
		c-0.088,0.304-0.254,0.606-0.498,0.909c-0.244,0.302-0.504,0.528-0.779,0.681l-0.427-0.516c0.884-0.572,1.326-1.395,1.326-2.467
		v-0.815h0.727v0.78C160.584,125.378,160.996,126.17,161.82,126.702z M162.924,128.441h-0.702v-5.346h0.702V128.441z"/>
</g>
<g>
	<path d="M181.544,127.782c-0.472,0-0.861-0.095-1.17-0.282l0.132-0.564c0.276,0.164,0.561,0.246,0.853,0.246
		c0.288,0,0.513-0.066,0.675-0.201c0.162-0.134,0.243-0.324,0.243-0.572c0-0.492-0.296-0.738-0.888-0.738
		c-0.261,0-0.538,0.074-0.834,0.222l0.149-2.262h2.148v0.576h-1.584l-0.078,1.002c0.184-0.048,0.355-0.072,0.516-0.072
		c0.42,0,0.747,0.108,0.981,0.324c0.233,0.216,0.351,0.538,0.351,0.966c0,0.392-0.135,0.716-0.405,0.972
		C182.364,127.653,182,127.782,181.544,127.782z"/>
	<path d="M186.765,126.702l-0.408,0.527c-0.229-0.14-0.459-0.354-0.693-0.642c-0.233-0.288-0.395-0.566-0.482-0.834
		c-0.088,0.304-0.254,0.606-0.498,0.909c-0.244,0.302-0.504,0.528-0.78,0.681l-0.426-0.516c0.884-0.572,1.326-1.395,1.326-2.467
		v-0.815h0.726v0.78C185.529,125.378,185.941,126.17,186.765,126.702z M187.869,128.441h-0.702v-5.346h0.702V128.441z"/>
</g>
<g>
	<path d="M206.963,127.794c-0.492,0-0.867-0.161-1.125-0.483c-0.258-0.321-0.387-0.769-0.387-1.341v-0.294
		c0-0.724,0.162-1.256,0.485-1.596c0.324-0.34,0.75-0.511,1.278-0.511c0.38,0,0.7,0.076,0.96,0.229l-0.144,0.54
		c-0.084-0.044-0.202-0.085-0.354-0.123s-0.292-0.057-0.42-0.057c-0.328,0-0.582,0.101-0.762,0.303
		c-0.181,0.202-0.284,0.553-0.312,1.053c0.28-0.24,0.601-0.36,0.96-0.36c0.364,0,0.659,0.109,0.886,0.327
		c0.226,0.219,0.339,0.52,0.339,0.903c0,0.408-0.124,0.745-0.372,1.011C207.748,127.661,207.403,127.794,206.963,127.794z
		 M206.946,127.248c0.22,0,0.393-0.071,0.519-0.213c0.126-0.143,0.189-0.342,0.189-0.598c0-0.504-0.242-0.756-0.727-0.756
		c-0.14,0-0.278,0.04-0.414,0.12s-0.244,0.174-0.324,0.282v0.036C206.189,126.872,206.441,127.248,206.946,127.248z"/>
	<path d="M212.124,126.702l-0.408,0.527c-0.229-0.14-0.459-0.354-0.693-0.642c-0.233-0.288-0.395-0.566-0.482-0.834
		c-0.088,0.304-0.254,0.606-0.498,0.909c-0.244,0.302-0.504,0.528-0.78,0.681l-0.426-0.516c0.884-0.572,1.326-1.395,1.326-2.467
		v-0.815h0.726v0.78C210.887,125.378,211.299,126.17,212.124,126.702z M213.227,128.441h-0.702v-5.346h0.702V128.441z"/>
</g>
<g>
	<path d="M231.11,127.722l1.5-3.504h-1.866v-0.582h2.664v0.438l-1.482,3.647H231.11z"/>
	<path d="M237.103,126.702l-0.408,0.527c-0.228-0.14-0.459-0.354-0.692-0.642s-0.396-0.566-0.483-0.834
		c-0.088,0.304-0.254,0.606-0.498,0.909c-0.244,0.302-0.504,0.528-0.779,0.681l-0.426-0.516c0.883-0.572,1.326-1.395,1.326-2.467
		v-0.815h0.726v0.78C235.868,125.378,236.279,126.17,237.103,126.702z M238.208,128.441h-0.702v-5.346h0.702V128.441z"/>
</g>
<rect x="231.128" y="5" fill="#F39800" width="7" height="7"/>
<g>
	<path d="M244.166,9.174c-0.44,0.104-1.096,0.156-1.968,0.156h-0.366V7.687h1.272V7.2h-1.297V6.642h1.998v1.584h-1.277v0.552
		c0.68,0,1.2-0.046,1.56-0.138C244.12,8.88,244.146,9.058,244.166,9.174z M246.152,11.604h-3.618V9.732h3.618V11.604z
		 M245.438,11.052v-0.78h-2.196v0.78H245.438z M244.484,8.214h-0.492V7.65h0.492V6.42h0.653v3.036h-0.653V8.214z M246.152,9.492
		h-0.672V6.324h0.672V9.492z"/>
	<path d="M249.547,11.676h-0.708V9.774h-2.046V9.222h4.83v0.552h-2.076V11.676z M251.425,8.208l-0.306,0.57
		c-0.404-0.06-0.791-0.206-1.161-0.438s-0.619-0.492-0.747-0.78c-0.116,0.288-0.356,0.547-0.723,0.777s-0.757,0.379-1.173,0.447
		l-0.301-0.576c0.488-0.052,0.914-0.218,1.278-0.498c0.364-0.28,0.546-0.612,0.546-0.996V6.438h0.744v0.276
		c0,0.256,0.095,0.496,0.285,0.72c0.189,0.224,0.424,0.402,0.702,0.534C250.848,8.1,251.133,8.18,251.425,8.208z"/>
	<path d="M254.671,9.276h-2.478V6.774h2.478V9.276z M256.507,11.526h-3.624V9.87h0.696v1.098h2.928V11.526z M253.975,8.73V7.314
		h-1.086V8.73H253.975z M255.704,7.716h-0.744V7.164h0.744v-0.84h0.696V10.2h-0.696V8.892h-0.744V8.34h0.744V7.716z"/>
</g>
<g>
</g>
<g>
</g>
<g>
</g>
<g>
</g>
<g>
</g>
<g>
</g>
</svg>
