<?xml version="1.0" encoding="utf-8"?>
<!-- Generator: Adobe Illustrator 28.0.0, SVG Export Plug-In . SVG Version: 6.00 Build 0)  -->
<svg version="1.1" id="레이어_1" xmlns="http://www.w3.org/2000/svg" xmlns:xlink="http://www.w3.org/1999/xlink" x="0px"
	 y="0px" viewBox="0 0 797.614 454.869" enable-background="new 0 0 797.614 454.869" xml:space="preserve">
<path fill="#8FC5DB" stroke="#241916" stroke-miterlimit="10" d="M253.479,265.656v155.761c0,0,48.233,8.088,85.677-36.535
	C339.157,384.882,249.87,352.03,253.479,265.656z"/>
<path fill="#8FC5DB" stroke="#241916" stroke-width="0.981" stroke-miterlimit="10" d="M517.768,267.461v150.073
	c4.508,1.613,28.216,9.584,53.467-2.642c20.551-9.95,29.558-27.195,32.104-32.56C603.339,382.333,514.163,350.681,517.768,267.461z"
	/>
<path fill="none" stroke="#241916" stroke-width="5" stroke-miterlimit="10" d="M77.115,385.293c0,0,78.968-126.968,176-119.226
	c0,0-7.226,83.613,85.677,119.226c0,0,68.645-123.003,176.516-119.566c0.697,12.63,3.929,39.722,22.146,67.278
	c22.752,34.416,54.637,48.013,66.112,52.288"/>
<g>
	<g>
		<path fill="none" stroke="#241916" stroke-width="5" stroke-miterlimit="10" d="M77.115,388.39c0,0,1.472-1.682,4.173-4.307"/>
		<path fill="none" stroke="#241916" stroke-width="5" stroke-miterlimit="10" stroke-dasharray="12.0286,3.0071" d="
			M83.466,382.016c18.338-16.98,73.187-57.803,122.165,6.374c59.871,78.452,132.645,0,132.645,0s68.129-80,144.516,0
			c62.807,65.778,103.981,23.155,116.635,5.921"/>
		<path fill="none" stroke="#241916" stroke-width="5" stroke-miterlimit="10" d="M600.313,393.082
			c2.153-3.044,3.253-5.036,3.253-5.036"/>
	</g>
</g>
<g>
	<g>
		<line fill="none" stroke="#241916" stroke-miterlimit="10" x1="77.115" y1="427.857" x2="650.692" y2="427.857"/>
		<g>
			<path fill="#241916" d="M656.728,427.857c-2.84,1.054-6.363,2.852-8.547,4.756l1.72-4.756l-1.72-4.755
				C650.364,425.006,653.888,426.804,656.728,427.857z"/>
		</g>
	</g>
</g>
<g>
	<g>
		<line fill="none" stroke="#241916" stroke-miterlimit="10" x1="253.373" y1="230.053" x2="253.373" y2="234.553"/>
		
			<line fill="none" stroke="#241916" stroke-miterlimit="10" stroke-dasharray="9.1357,4.0603" x1="253.373" y1="238.613" x2="253.373" y2="421.327"/>
		<line fill="none" stroke="#241916" stroke-miterlimit="10" x1="253.373" y1="423.357" x2="253.373" y2="427.857"/>
	</g>
</g>
<g>
	<g>
		<line fill="none" stroke="#241916" stroke-miterlimit="10" x1="340.34" y1="230.053" x2="340.34" y2="234.553"/>
		
			<line fill="none" stroke="#241916" stroke-miterlimit="10" stroke-dasharray="9.1357,4.0603" x1="340.34" y1="238.613" x2="340.34" y2="421.327"/>
		<line fill="none" stroke="#241916" stroke-miterlimit="10" x1="340.34" y1="423.357" x2="340.34" y2="427.857"/>
	</g>
</g>
<g>
	<g>
		<line fill="none" stroke="#241916" stroke-miterlimit="10" x1="516.599" y1="230.053" x2="516.599" y2="234.553"/>
		
			<line fill="none" stroke="#241916" stroke-miterlimit="10" stroke-dasharray="9.1357,4.0603" x1="516.599" y1="238.613" x2="516.599" y2="421.327"/>
		<line fill="none" stroke="#241916" stroke-miterlimit="10" x1="516.599" y1="423.357" x2="516.599" y2="427.857"/>
	</g>
</g>
<g>
	<g>
		<line fill="none" stroke="#241916" stroke-miterlimit="10" x1="603.566" y1="230.053" x2="603.566" y2="234.553"/>
		
			<line fill="none" stroke="#241916" stroke-miterlimit="10" stroke-dasharray="9.1357,4.0603" x1="603.566" y1="238.613" x2="603.566" y2="421.327"/>
		<line fill="none" stroke="#241916" stroke-miterlimit="10" x1="603.566" y1="423.357" x2="603.566" y2="427.857"/>
	</g>
</g>
<g>
	<path fill="#010100" d="M76.019,450.744l3.75-8.76h-4.665v-1.455h6.66v1.095l-3.705,9.12H76.019z"/>
	<path fill="#010100" d="M91.004,448.194l-1.02,1.32c-0.57-0.351-1.147-0.886-1.732-1.605s-0.988-1.415-1.208-2.085
		c-0.22,0.76-0.635,1.518-1.245,2.272c-0.61,0.755-1.26,1.323-1.95,1.703l-1.065-1.29c2.21-1.431,3.315-3.485,3.315-6.165v-2.04
		h1.815v1.949C87.914,444.885,88.944,446.864,91.004,448.194z M93.764,452.544h-1.755V439.18h1.755V452.544z"/>
	<path fill="#010100" d="M98.729,452.305c-0.81-0.761-1.475-1.67-1.995-2.73c-0.52-1.06-0.78-2.229-0.78-3.51v-0.271
		c0-1.279,0.26-2.447,0.78-3.502s1.185-1.963,1.995-2.723h1.485c-0.74,0.82-1.34,1.755-1.8,2.805c-0.46,1.051-0.69,2.146-0.69,3.285
		v0.42c0,1.131,0.234,2.248,0.705,3.353c0.47,1.105,1.065,2.062,1.785,2.873H98.729z"/>
	<path fill="#010100" d="M112.874,450.879h-12.075v-1.395h5.145v-2.13c-1.22-0.14-2.193-0.542-2.917-1.208
		c-0.726-0.664-1.088-1.482-1.088-2.452c0-1.09,0.45-1.975,1.35-2.655c0.9-0.68,2.085-1.02,3.555-1.02c1.47,0,2.655,0.34,3.555,1.02
		c0.9,0.681,1.35,1.565,1.35,2.655c0,0.98-0.365,1.803-1.095,2.468c-0.73,0.665-1.715,1.062-2.955,1.192v2.13h5.175V450.879z
		 M109.979,443.709c0-0.67-0.285-1.212-0.855-1.627c-0.57-0.415-1.33-0.623-2.28-0.623c-0.94,0-1.695,0.208-2.265,0.623
		s-0.855,0.957-0.855,1.627c0,0.681,0.285,1.226,0.855,1.636s1.325,0.614,2.265,0.614c0.94,0,1.697-0.204,2.272-0.614
		C109.691,444.935,109.979,444.39,109.979,443.709z"/>
	<path fill="#010100" d="M114.239,441.685v-1.44h7.05v1.44h-2.565c0.01,0.97,0.302,1.817,0.877,2.542
		c0.575,0.726,1.272,1.218,2.093,1.478l-0.96,1.38c-0.53-0.199-1.078-0.555-1.643-1.064s-0.982-1.06-1.252-1.65
		c-0.2,0.641-0.603,1.258-1.208,1.853c-0.605,0.596-1.238,1.008-1.897,1.237l-1.035-1.38c0.98-0.359,1.763-0.925,2.348-1.694
		c0.585-0.771,0.877-1.655,0.877-2.655v-0.045H114.239z M125.114,452.185h-9.225v-4.215h1.77v2.835h7.455V452.185z M124.829,448.869
		h-1.755v-4.725h-2.01v-1.41h2.01v-3.555h1.755V448.869z"/>
	<path fill="#010100" d="M126.433,452.305c0.74-0.811,1.34-1.742,1.8-2.798c0.46-1.055,0.69-2.152,0.69-3.292v-0.436
		c0-1.12-0.232-2.235-0.697-3.345c-0.465-1.11-1.063-2.065-1.793-2.865h1.485c0.8,0.76,1.46,1.67,1.98,2.73
		c0.52,1.06,0.78,2.225,0.78,3.494v0.271c0,1.28-0.26,2.45-0.78,3.51c-0.52,1.061-1.18,1.97-1.98,2.73H126.433z"/>
</g>
<g>
	<path fill="#010100" d="M250.017,450.805v-8.46l-1.725,0.345v-1.08l2.61-1.17h0.975v10.365H250.017z"/>
	<path fill="#010100" d="M255.642,450.805v-8.46l-1.725,0.345v-1.08l2.61-1.17h0.975v10.365H255.642z"/>
	<path fill="#010100" d="M267.717,448.194l-1.02,1.32c-0.57-0.351-1.147-0.886-1.732-1.605s-0.988-1.415-1.208-2.085
		c-0.22,0.76-0.635,1.518-1.245,2.272c-0.61,0.755-1.26,1.323-1.95,1.703l-1.065-1.29c2.21-1.431,3.315-3.485,3.315-6.165v-2.04
		h1.815v1.949C264.626,444.885,265.657,446.864,267.717,448.194z M270.477,452.544h-1.755V439.18h1.755V452.544z"/>
	<path fill="#010100" d="M275.441,452.305c-0.81-0.761-1.475-1.67-1.995-2.73c-0.52-1.06-0.78-2.229-0.78-3.51v-0.271
		c0-1.279,0.26-2.447,0.78-3.502s1.185-1.963,1.995-2.723h1.485c-0.74,0.82-1.34,1.755-1.8,2.805c-0.46,1.051-0.69,2.146-0.69,3.285
		v0.42c0,1.131,0.234,2.248,0.705,3.353c0.47,1.105,1.065,2.062,1.785,2.873H275.441z"/>
	<path fill="#010100" d="M289.586,450.879h-12.075v-1.395h5.145v-2.13c-1.22-0.14-2.193-0.542-2.917-1.208
		c-0.726-0.664-1.088-1.482-1.088-2.452c0-1.09,0.45-1.975,1.35-2.655c0.9-0.68,2.085-1.02,3.555-1.02c1.47,0,2.655,0.34,3.555,1.02
		c0.9,0.681,1.35,1.565,1.35,2.655c0,0.98-0.365,1.803-1.095,2.468c-0.73,0.665-1.715,1.062-2.955,1.192v2.13h5.175V450.879z
		 M286.691,443.709c0-0.67-0.285-1.212-0.855-1.627c-0.57-0.415-1.33-0.623-2.28-0.623c-0.94,0-1.695,0.208-2.265,0.623
		s-0.855,0.957-0.855,1.627c0,0.681,0.285,1.226,0.855,1.636s1.325,0.614,2.265,0.614c0.94,0,1.697-0.204,2.272-0.614
		C286.403,444.935,286.691,444.39,286.691,443.709z"/>
	<path fill="#010100" d="M297.371,452.529h-1.755v-3.15h-5.13v-1.395h12.075v1.395h-5.19V452.529z M301.886,442.734h-10.695v-1.38
		h10.695V442.734z M300.851,445.345c0,0.659-0.382,1.177-1.147,1.552s-1.817,0.562-3.158,0.562c-1.34,0-2.39-0.188-3.15-0.562
		s-1.14-0.893-1.14-1.552c0-0.67,0.38-1.195,1.14-1.575s1.81-0.57,3.15-0.57c1.35,0,2.405,0.19,3.165,0.57
		C300.471,444.149,300.851,444.675,300.851,445.345z M299.051,445.345c0-0.25-0.238-0.45-0.712-0.601
		c-0.475-0.149-1.073-0.225-1.793-0.225c-0.72,0-1.312,0.072-1.777,0.218c-0.465,0.145-0.697,0.347-0.697,0.607
		c0,0.239,0.232,0.433,0.697,0.577c0.465,0.146,1.058,0.218,1.777,0.218c0.72,0,1.318-0.072,1.793-0.218
		C298.813,445.777,299.051,445.584,299.051,445.345z M294.146,440.725v-1.365h4.77v1.365H294.146z"/>
	<path fill="#010100" d="M303.146,452.305c0.74-0.811,1.34-1.742,1.8-2.798c0.46-1.055,0.69-2.152,0.69-3.292v-0.436
		c0-1.12-0.232-2.235-0.697-3.345c-0.465-1.11-1.063-2.065-1.793-2.865h1.485c0.8,0.76,1.46,1.67,1.98,2.73
		c0.52,1.06,0.78,2.225,0.78,3.494v0.271c0,1.28-0.26,2.45-0.78,3.51c-0.52,1.061-1.18,1.97-1.98,2.73H303.146z"/>
</g>
<g>
	<path fill="#010100" d="M341.826,450.744l3.75-8.76h-4.665v-1.455h6.66v1.095l-3.705,9.12H341.826z"/>
	<path fill="#010100" d="M356.811,448.194l-1.021,1.32c-0.57-0.351-1.147-0.886-1.732-1.605s-0.987-1.415-1.207-2.085
		c-0.221,0.76-0.636,1.518-1.245,2.272c-0.61,0.755-1.261,1.323-1.95,1.703l-1.065-1.29c2.21-1.431,3.315-3.485,3.315-6.165v-2.04
		h1.814v1.949C353.72,444.885,354.75,446.864,356.811,448.194z M359.571,452.544h-1.755V439.18h1.755V452.544z"/>
	<path fill="#010100" d="M364.536,452.305c-0.81-0.761-1.475-1.67-1.995-2.73c-0.52-1.06-0.779-2.229-0.779-3.51v-0.271
		c0-1.279,0.26-2.447,0.779-3.502c0.521-1.055,1.186-1.963,1.995-2.723h1.485c-0.74,0.82-1.341,1.755-1.8,2.805
		c-0.461,1.051-0.69,2.146-0.69,3.285v0.42c0,1.131,0.234,2.248,0.705,3.353c0.47,1.105,1.064,2.062,1.785,2.873H364.536z"/>
	<path fill="#010100" d="M378.68,450.879h-12.074v-1.395h5.145v-2.13c-1.22-0.14-2.192-0.542-2.917-1.208
		c-0.726-0.664-1.088-1.482-1.088-2.452c0-1.09,0.45-1.975,1.35-2.655c0.9-0.68,2.085-1.02,3.556-1.02c1.47,0,2.654,0.34,3.555,1.02
		c0.9,0.681,1.35,1.565,1.35,2.655c0,0.98-0.365,1.803-1.095,2.468c-0.73,0.665-1.715,1.062-2.955,1.192v2.13h5.175V450.879z
		 M375.786,443.709c0-0.67-0.285-1.212-0.855-1.627c-0.569-0.415-1.33-0.623-2.279-0.623c-0.94,0-1.695,0.208-2.266,0.623
		c-0.569,0.415-0.854,0.957-0.854,1.627c0,0.681,0.285,1.226,0.854,1.636c0.57,0.41,1.325,0.614,2.266,0.614
		c0.939,0,1.697-0.204,2.272-0.614C375.498,444.935,375.786,444.39,375.786,443.709z"/>
	<path fill="#010100" d="M380.045,441.685v-1.44h7.05v1.44h-2.564c0.01,0.97,0.302,1.817,0.877,2.542
		c0.575,0.726,1.272,1.218,2.093,1.478l-0.96,1.38c-0.53-0.199-1.077-0.555-1.643-1.064c-0.564-0.51-0.982-1.06-1.252-1.65
		c-0.2,0.641-0.603,1.258-1.208,1.853c-0.605,0.596-1.237,1.008-1.897,1.237l-1.035-1.38c0.98-0.359,1.763-0.925,2.348-1.694
		c0.585-0.771,0.878-1.655,0.878-2.655v-0.045H380.045z M390.92,452.185h-9.225v-4.215h1.77v2.835h7.455V452.185z M390.635,448.869
		h-1.755v-4.725h-2.01v-1.41h2.01v-3.555h1.755V448.869z"/>
	<path fill="#010100" d="M392.24,452.305c0.74-0.811,1.341-1.742,1.801-2.798c0.46-1.055,0.689-2.152,0.689-3.292v-0.436
		c0-1.12-0.232-2.235-0.697-3.345c-0.465-1.11-1.062-2.065-1.793-2.865h1.485c0.8,0.76,1.46,1.67,1.98,2.73
		c0.52,1.06,0.779,2.225,0.779,3.494v0.271c0,1.28-0.26,2.45-0.779,3.51c-0.521,1.061-1.181,1.97-1.98,2.73H392.24z"/>
</g>
<g>
	<path fill="#010100" d="M601.445,450.744l3.75-8.76h-4.665v-1.455h6.66v1.095l-3.705,9.12H601.445z"/>
	<path fill="#010100" d="M616.43,448.194l-1.02,1.32c-0.57-0.351-1.147-0.886-1.732-1.605s-0.988-1.415-1.208-2.085
		c-0.22,0.76-0.635,1.518-1.245,2.272s-1.26,1.323-1.95,1.703l-1.064-1.29c2.21-1.431,3.314-3.485,3.314-6.165v-2.04h1.815v1.949
		C613.34,444.885,614.371,446.864,616.43,448.194z M619.19,452.544h-1.755V439.18h1.755V452.544z"/>
	<path fill="#010100" d="M624.156,452.305c-0.811-0.761-1.476-1.67-1.995-2.73c-0.521-1.06-0.78-2.229-0.78-3.51v-0.271
		c0-1.279,0.26-2.447,0.78-3.502c0.52-1.055,1.185-1.963,1.995-2.723h1.484c-0.74,0.82-1.34,1.755-1.8,2.805
		c-0.46,1.051-0.689,2.146-0.689,3.285v0.42c0,1.131,0.234,2.248,0.704,3.353c0.471,1.105,1.065,2.062,1.785,2.873H624.156z"/>
	<path fill="#010100" d="M638.3,450.879h-12.075v-1.395h5.146v-2.13c-1.221-0.14-2.193-0.542-2.918-1.208
		c-0.726-0.664-1.088-1.482-1.088-2.452c0-1.09,0.45-1.975,1.351-2.655c0.899-0.68,2.085-1.02,3.555-1.02s2.655,0.34,3.555,1.02
		c0.9,0.681,1.351,1.565,1.351,2.655c0,0.98-0.365,1.803-1.095,2.468c-0.73,0.665-1.716,1.062-2.955,1.192v2.13h5.175V450.879z
		 M635.405,443.709c0-0.67-0.284-1.212-0.854-1.627s-1.33-0.623-2.28-0.623c-0.94,0-1.695,0.208-2.265,0.623
		c-0.57,0.415-0.855,0.957-0.855,1.627c0,0.681,0.285,1.226,0.855,1.636c0.569,0.41,1.324,0.614,2.265,0.614
		s1.697-0.204,2.272-0.614S635.405,444.39,635.405,443.709z"/>
	<path fill="#010100" d="M639.666,441.685v-1.44h7.05v1.44h-2.565c0.01,0.97,0.303,1.817,0.878,2.542
		c0.575,0.726,1.272,1.218,2.093,1.478l-0.96,1.38c-0.53-0.199-1.078-0.555-1.643-1.064c-0.565-0.51-0.982-1.06-1.253-1.65
		c-0.2,0.641-0.603,1.258-1.207,1.853c-0.605,0.596-1.238,1.008-1.897,1.237l-1.035-1.38c0.979-0.359,1.763-0.925,2.348-1.694
		c0.585-0.771,0.877-1.655,0.877-2.655v-0.045H639.666z M650.541,452.185h-9.226v-4.215h1.771v2.835h7.455V452.185z
		 M650.255,448.869H648.5v-4.725h-2.01v-1.41h2.01v-3.555h1.755V448.869z"/>
	<path fill="#010100" d="M651.86,452.305c0.74-0.811,1.34-1.742,1.8-2.798c0.46-1.055,0.69-2.152,0.69-3.292v-0.436
		c0-1.12-0.232-2.235-0.697-3.345c-0.466-1.11-1.063-2.065-1.793-2.865h1.485c0.8,0.76,1.46,1.67,1.979,2.73
		c0.52,1.06,0.78,2.225,0.78,3.494v0.271c0,1.28-0.261,2.45-0.78,3.51c-0.52,1.061-1.18,1.97-1.979,2.73H651.86z"/>
</g>
<g>
	<path fill="#010100" d="M515.824,450.805v-8.46l-1.726,0.345v-1.08l2.61-1.17h0.975v10.365H515.824z"/>
	<path fill="#010100" d="M521.449,450.805v-8.46l-1.726,0.345v-1.08l2.61-1.17h0.975v10.365H521.449z"/>
	<path fill="#010100" d="M533.524,448.194l-1.021,1.32c-0.57-0.351-1.147-0.886-1.732-1.605s-0.987-1.415-1.207-2.085
		c-0.221,0.76-0.636,1.518-1.245,2.272c-0.61,0.755-1.261,1.323-1.95,1.703l-1.065-1.29c2.21-1.431,3.315-3.485,3.315-6.165v-2.04
		h1.814v1.949C530.433,444.885,531.463,446.864,533.524,448.194z M536.284,452.544h-1.755V439.18h1.755V452.544z"/>
	<path fill="#010100" d="M541.249,452.305c-0.811-0.761-1.476-1.67-1.995-2.73c-0.521-1.06-0.78-2.229-0.78-3.51v-0.271
		c0-1.279,0.26-2.447,0.78-3.502c0.52-1.055,1.185-1.963,1.995-2.723h1.484c-0.74,0.82-1.34,1.755-1.8,2.805
		c-0.46,1.051-0.689,2.146-0.689,3.285v0.42c0,1.131,0.234,2.248,0.704,3.353c0.471,1.105,1.065,2.062,1.785,2.873H541.249z"/>
	<path fill="#010100" d="M555.393,450.879h-12.075v-1.395h5.146v-2.13c-1.221-0.14-2.193-0.542-2.918-1.208
		c-0.726-0.664-1.088-1.482-1.088-2.452c0-1.09,0.45-1.975,1.351-2.655c0.899-0.68,2.085-1.02,3.555-1.02s2.655,0.34,3.555,1.02
		c0.9,0.681,1.351,1.565,1.351,2.655c0,0.98-0.365,1.803-1.095,2.468c-0.73,0.665-1.716,1.062-2.955,1.192v2.13h5.175V450.879z
		 M552.498,443.709c0-0.67-0.284-1.212-0.854-1.627s-1.33-0.623-2.28-0.623c-0.94,0-1.695,0.208-2.265,0.623
		c-0.57,0.415-0.855,0.957-0.855,1.627c0,0.681,0.285,1.226,0.855,1.636c0.569,0.41,1.324,0.614,2.265,0.614
		s1.697-0.204,2.272-0.614S552.498,444.39,552.498,443.709z"/>
	<path fill="#010100" d="M563.178,452.529h-1.755v-3.15h-5.13v-1.395h12.074v1.395h-5.189V452.529z M567.693,442.734h-10.695v-1.38
		h10.695V442.734z M566.658,445.345c0,0.659-0.382,1.177-1.147,1.552c-0.765,0.375-1.817,0.562-3.157,0.562s-2.391-0.188-3.15-0.562
		s-1.14-0.893-1.14-1.552c0-0.67,0.38-1.195,1.14-1.575s1.811-0.57,3.15-0.57c1.35,0,2.405,0.19,3.165,0.57
		S566.658,444.675,566.658,445.345z M564.858,445.345c0-0.25-0.237-0.45-0.712-0.601c-0.476-0.149-1.073-0.225-1.793-0.225
		s-1.312,0.072-1.777,0.218c-0.465,0.145-0.697,0.347-0.697,0.607c0,0.239,0.232,0.433,0.697,0.577
		c0.465,0.146,1.058,0.218,1.777,0.218s1.317-0.072,1.793-0.218C564.621,445.777,564.858,445.584,564.858,445.345z M559.953,440.725
		v-1.365h4.771v1.365H559.953z"/>
	<path fill="#010100" d="M568.953,452.305c0.74-0.811,1.34-1.742,1.8-2.798c0.46-1.055,0.69-2.152,0.69-3.292v-0.436
		c0-1.12-0.232-2.235-0.697-3.345c-0.466-1.11-1.063-2.065-1.793-2.865h1.485c0.8,0.76,1.46,1.67,1.979,2.73
		c0.52,1.06,0.78,2.225,0.78,3.494v0.271c0,1.28-0.261,2.45-0.78,3.51c-0.52,1.061-1.18,1.97-1.979,2.73H568.953z"/>
</g>
<g>
	<path fill="#010100" d="M288.373,238.594h-1.77v-4.755h-5.115v-1.38h12.075v1.38h-5.19V238.594z M293.067,229.923l-0.765,1.425
		c-1.01-0.15-1.978-0.515-2.903-1.095c-0.925-0.58-1.547-1.23-1.867-1.95c-0.29,0.72-0.893,1.367-1.808,1.942
		s-1.893,0.948-2.933,1.118l-0.75-1.44c1.22-0.129,2.285-0.545,3.195-1.245c0.91-0.7,1.365-1.53,1.365-2.49v-0.69h1.86v0.69
		c0,0.64,0.238,1.24,0.713,1.8c0.475,0.56,1.06,1.005,1.755,1.335C291.625,229.653,292.337,229.854,293.067,229.923z"/>
	<path fill="#010100" d="M301.183,232.594h-6.195v-6.255h6.195V232.594z M305.772,238.219h-9.06v-4.14h1.74v2.745h7.32V238.219z
		 M299.443,231.229v-3.54h-2.715v3.54H299.443z M303.763,228.693h-1.86v-1.38h1.86v-2.1h1.74v9.69h-1.74v-3.27h-1.86v-1.38h1.86
		V228.693z"/>
</g>
<g>
	<path fill="#010100" d="M555.469,238.594h-1.77v-4.755h-5.115v-1.38h12.075v1.38h-5.19V238.594z M560.165,229.923l-0.765,1.425
		c-1.011-0.15-1.979-0.515-2.903-1.095c-0.925-0.58-1.547-1.23-1.867-1.95c-0.29,0.72-0.893,1.367-1.808,1.942
		s-1.893,0.948-2.933,1.118l-0.75-1.44c1.221-0.129,2.285-0.545,3.195-1.245c0.91-0.7,1.365-1.53,1.365-2.49v-0.69h1.859v0.69
		c0,0.64,0.238,1.24,0.713,1.8s1.06,1.005,1.755,1.335C558.722,229.653,559.434,229.854,560.165,229.923z"/>
	<path fill="#010100" d="M568.28,232.594h-6.195v-6.255h6.195V232.594z M572.87,238.219h-9.06v-4.14h1.739v2.745h7.32V238.219z
		 M566.54,231.229v-3.54h-2.715v3.54H566.54z M570.86,228.693H569v-1.38h1.86v-2.1h1.74v9.69h-1.74v-3.27H569v-1.38h1.86V228.693z"
		/>
</g>
<g>
	<path fill="#010100" d="M91.597,289.242h-1.77v-4.755h-5.115v-1.38h12.075v1.38h-5.19V289.242z M96.292,280.571l-0.765,1.425
		c-1.01-0.15-1.978-0.515-2.903-1.095c-0.925-0.58-1.547-1.23-1.867-1.95c-0.29,0.72-0.893,1.367-1.808,1.942
		s-1.893,0.948-2.933,1.118l-0.75-1.44c1.22-0.129,2.285-0.545,3.195-1.245c0.91-0.7,1.365-1.53,1.365-2.49v-0.69h1.86v0.69
		c0,0.64,0.238,1.24,0.713,1.8c0.475,0.56,1.06,1.005,1.755,1.335C94.85,280.301,95.562,280.501,96.292,280.571z"/>
	<path fill="#010100" d="M104.407,283.242h-6.195v-6.255h6.195V283.242z M108.997,288.867h-9.06v-4.14h1.74v2.745h7.32V288.867z
		 M102.667,281.876v-3.54h-2.715v3.54H102.667z M106.987,279.341h-1.86v-1.38h1.86v-2.1h1.74v9.69h-1.74v-3.27h-1.86v-1.38h1.86
		V279.341z"/>
	<path fill="#010100" d="M112.026,278.622c0-0.76,0.413-1.377,1.238-1.853c0.825-0.475,1.967-0.712,3.427-0.712
		c1.47,0,2.618,0.237,3.442,0.712c0.825,0.475,1.238,1.093,1.238,1.853c0,0.87-0.505,1.54-1.515,2.01v1.755h2.88v1.41h-12.075v-1.41
		h2.82v-1.77C112.511,280.137,112.026,279.472,112.026,278.622z M112.086,284.801h9.09v4.44h-1.74v-3.045h-7.35V284.801z
		 M114.599,277.729c-0.505,0.225-0.758,0.522-0.758,0.893s0.252,0.67,0.758,0.9c0.505,0.23,1.202,0.345,2.092,0.345
		c0.88,0,1.58-0.115,2.1-0.345c0.52-0.23,0.78-0.53,0.78-0.9s-0.255-0.667-0.765-0.893c-0.51-0.225-1.215-0.337-2.115-0.337
		C115.801,277.392,115.104,277.504,114.599,277.729z M116.707,281.216c-0.45,0-0.94-0.035-1.47-0.105v1.275h2.865v-1.26
		C117.661,281.187,117.196,281.216,116.707,281.216z"/>
	<path fill="#010100" d="M134.166,276.582c0,2.32-0.145,4.22-0.435,5.7h1.98v1.395h-5.19v5.55h-1.755v-5.55h-5.13v-1.395h8.43
		c0.24-1.16,0.36-2.59,0.36-4.29h-7.305v-1.41H134.166z"/>
	<path fill="#010100" d="M87.757,306.986c-0.81-0.76-1.475-1.67-1.995-2.73c-0.52-1.06-0.78-2.229-0.78-3.51v-0.27
		c0-1.28,0.26-2.447,0.78-3.502s1.185-1.962,1.995-2.723h1.485c-0.74,0.82-1.34,1.755-1.8,2.805c-0.46,1.05-0.69,2.145-0.69,3.285
		v0.42c0,1.13,0.234,2.248,0.705,3.352c0.47,1.105,1.065,2.062,1.785,2.873H87.757z"/>
	<path fill="#010100" d="M89.932,299.562c0-1.43,0.31-2.585,0.93-3.465s1.465-1.32,2.535-1.32c1.08,0,1.927,0.44,2.542,1.32
		s0.922,2.035,0.922,3.465c0,1.42-0.307,2.567-0.922,3.442c-0.615,0.875-1.462,1.312-2.542,1.312c-1.07,0-1.915-0.437-2.535-1.312
		C90.242,302.129,89.932,300.981,89.932,299.562z M95.182,299.562c0-1.04-0.165-1.862-0.495-2.467s-0.76-0.908-1.29-0.908
		c-0.51,0-0.93,0.303-1.26,0.908c-0.33,0.605-0.495,1.427-0.495,2.467c0,1.03,0.165,1.845,0.495,2.445c0.33,0.6,0.75,0.9,1.26,0.9
		c0.53,0,0.96-0.3,1.29-0.9C95.017,301.407,95.182,300.592,95.182,299.562z M100.282,293.861v5.13h1.98v1.455h-1.98v6.78h-1.785
		v-13.365H100.282z"/>
	<path fill="#010100" d="M104.947,302.696c1.61,0,2.86-0.105,3.75-0.315l0.21,1.35c-0.91,0.23-2.39,0.345-4.44,0.345h-1.275v-8.625
		h5.055v1.38h-3.3V302.696z M109.807,300.131h-2.295v-1.395h2.295v-4.635h1.635v12.51h-1.635V300.131z M114.172,307.227h-1.68
		v-13.365h1.68V307.227z"/>
	<path fill="#010100" d="M126.427,300.836h-3.765v3.345h5.19v1.38h-12.075v-1.38h5.13v-3.345h-3.645v-5.985h1.74v4.605h7.425
		V300.836z"/>
	<path fill="#010100" d="M136.881,300.176l-0.99,1.395c-0.53-0.2-1.092-0.577-1.688-1.132c-0.595-0.555-1.033-1.132-1.312-1.732
		c-0.2,0.66-0.605,1.3-1.215,1.92s-1.235,1.04-1.875,1.26l-1.065-1.395c0.98-0.35,1.762-0.93,2.348-1.74
		c0.585-0.81,0.877-1.715,0.877-2.715v-1.41h1.83v1.32c0,0.98,0.307,1.863,0.922,2.648
		C135.329,299.379,136.051,299.907,136.881,300.176z M140.091,306.867h-9.285v-4.185h1.77v2.805h7.515V306.867z M139.806,303.551
		h-1.755v-9.69h1.755V303.551z"/>
	<path fill="#010100" d="M141.411,306.986c0.74-0.81,1.34-1.742,1.8-2.797c0.46-1.055,0.69-2.152,0.69-3.292v-0.435
		c0-1.12-0.232-2.235-0.697-3.345c-0.465-1.11-1.063-2.065-1.793-2.865h1.485c0.8,0.76,1.46,1.67,1.98,2.73
		c0.52,1.06,0.78,2.225,0.78,3.495v0.27c0,1.28-0.26,2.45-0.78,3.51c-0.52,1.06-1.18,1.97-1.98,2.73H141.411z"/>
</g>
<g>
	<path fill="#010100" d="M30.6,389.712c-0.11,4.261-2.1,7.445-5.97,9.556l-1.08-1.32c1.44-0.66,2.63-1.617,3.57-2.872
		s1.47-2.558,1.59-3.908h-4.35v-1.455H30.6z M34.709,401.683h-1.755v-13.365h1.755V401.683z"/>
	<path fill="#010100" d="M44.489,394.152l-1.005,1.365c-0.561-0.21-1.13-0.567-1.71-1.073c-0.58-0.504-1.01-1.047-1.29-1.627
		c-0.19,0.65-0.588,1.263-1.193,1.838c-0.605,0.574-1.237,0.978-1.897,1.207l-1.065-1.395c0.99-0.351,1.778-0.905,2.363-1.665
		c0.585-0.761,0.877-1.636,0.877-2.625v-1.261h1.8v1.155c0,0.98,0.308,1.835,0.922,2.565
		C42.907,393.367,43.639,393.872,44.489,394.152z M47.234,398.982c0,0.83-0.405,1.487-1.215,1.973
		c-0.81,0.484-1.935,0.728-3.375,0.728c-1.43,0-2.547-0.243-3.353-0.728c-0.805-0.485-1.208-1.143-1.208-1.973
		c0-0.84,0.403-1.503,1.208-1.987c0.805-0.485,1.922-0.728,3.353-0.728c1.45,0,2.578,0.239,3.383,0.72
		C46.832,397.468,47.234,398.133,47.234,398.982z M42.644,397.662c-0.86,0-1.535,0.118-2.025,0.353
		c-0.49,0.235-0.735,0.558-0.735,0.968c0,0.4,0.242,0.715,0.728,0.945c0.485,0.229,1.163,0.345,2.032,0.345
		c0.88,0,1.568-0.115,2.062-0.345c0.495-0.23,0.743-0.545,0.743-0.945c0-0.41-0.248-0.732-0.743-0.968
		C44.212,397.78,43.524,397.662,42.644,397.662z M48.989,392.938h-1.905v3.194h-1.77v-7.814h1.77v3.18h1.905V392.938z"/>
	<path fill="#010100" d="M50.969,391.077c0-0.76,0.413-1.377,1.238-1.853c0.825-0.475,1.967-0.712,3.427-0.712
		c1.47,0,2.618,0.237,3.442,0.712c0.825,0.476,1.238,1.093,1.238,1.853c0,0.87-0.505,1.54-1.515,2.01v1.756h2.88v1.409H49.604
		v-1.409h2.82v-1.771C51.454,392.593,50.969,391.928,50.969,391.077z M51.029,397.257h9.09v4.44h-1.74v-3.045h-7.35V397.257z
		 M53.542,390.185c-0.505,0.226-0.758,0.522-0.758,0.893s0.252,0.67,0.758,0.9c0.505,0.229,1.202,0.345,2.092,0.345
		c0.88,0,1.58-0.115,2.1-0.345c0.52-0.23,0.78-0.53,0.78-0.9s-0.255-0.667-0.765-0.893c-0.51-0.225-1.215-0.337-2.115-0.337
		C54.744,389.848,54.046,389.96,53.542,390.185z M55.649,393.672c-0.45,0-0.94-0.034-1.47-0.104v1.275h2.865v-1.261
		C56.604,393.643,56.139,393.672,55.649,393.672z"/>
	<path fill="#010100" d="M73.108,389.037c0,2.32-0.145,4.221-0.435,5.7h1.98v1.395h-5.19v5.551h-1.755v-5.551h-5.13v-1.395h8.43
		c0.24-1.16,0.36-2.59,0.36-4.29h-7.305v-1.41H73.108z"/>
	<path fill="#010100" d="M3.495,419.442c-0.81-0.76-1.475-1.67-1.995-2.73c-0.52-1.06-0.78-2.229-0.78-3.51v-0.27
		c0-1.28,0.26-2.447,0.78-3.503c0.52-1.055,1.185-1.962,1.995-2.723H4.98c-0.74,0.82-1.34,1.755-1.8,2.806
		c-0.46,1.05-0.69,2.145-0.69,3.284v0.421c0,1.13,0.234,2.247,0.705,3.352c0.47,1.105,1.065,2.062,1.785,2.873H3.495z"/>
	<path fill="#010100" d="M5.955,409.872c0-0.89,0.335-1.63,1.005-2.22c0.669-0.59,1.52-0.885,2.55-0.885
		c1.02,0,1.862,0.29,2.527,0.87s0.998,1.325,0.998,2.234c0,0.891-0.33,1.61-0.99,2.16c-0.66,0.55-1.505,0.825-2.535,0.825
		c-1.01,0-1.855-0.272-2.535-0.817S5.955,410.772,5.955,409.872z M8.235,408.694c-0.36,0.325-0.54,0.713-0.54,1.163
		s0.172,0.82,0.518,1.11c0.345,0.29,0.777,0.435,1.297,0.435c0.53,0,0.96-0.15,1.29-0.45s0.495-0.665,0.495-1.095
		c0-0.47-0.16-0.862-0.48-1.178c-0.32-0.314-0.755-0.473-1.305-0.473C9.02,408.207,8.595,408.37,8.235,408.694z M17.025,419.577
		H7.83v-3.585h7.035v-0.93h-7.11v-1.38h8.85v3.569h-7.02v0.915h7.44V419.577z M16.605,413.007h-1.74v-6.689h1.74V413.007z"/>
	<path fill="#010100" d="M25.424,419.667h-1.77v-4.649H18.54v-1.396h12.075v1.396h-5.19V419.667z M19.844,412.647l-0.765-1.365
		c1.06-0.109,2.045-0.447,2.955-1.013c0.91-0.564,1.435-1.228,1.575-1.987h-3.99v-1.395h9.9v1.395h-3.99
		c0.1,0.51,0.39,0.982,0.87,1.418c0.48,0.435,1.042,0.779,1.688,1.034c0.645,0.256,1.307,0.418,1.987,0.488
		c-0.09,0.18-0.223,0.43-0.397,0.75c-0.175,0.319-0.288,0.524-0.337,0.614c-0.89-0.1-1.817-0.417-2.783-0.952
		c-0.965-0.535-1.627-1.112-1.987-1.732c-0.34,0.66-0.975,1.253-1.905,1.777C21.734,412.205,20.794,412.527,19.844,412.647z"/>
	<path fill="#010100" d="M38.459,407.712c-0.11,4.261-2.1,7.445-5.97,9.556l-1.08-1.32c1.44-0.66,2.63-1.617,3.57-2.872
		s1.47-2.558,1.59-3.908h-4.35v-1.455H38.459z M42.569,419.683h-1.755v-13.365h1.755V419.683z"/>
	<path fill="#010100" d="M52.619,414.792l0.195,1.396c-1.43,0.29-3.485,0.435-6.165,0.435h-1.41v-5.55h4.335v-2.22h-4.395v-1.396
		h6.165v5.011h-4.365v2.715C49.329,415.183,51.208,415.053,52.619,414.792z M53.789,406.317h1.74v13.365h-1.74V406.317z"/>
	<path fill="#010100" d="M69.538,413.817H57.463v-1.41h12.075V413.817z M67.993,419.518h-9v-4.605h9V419.518z M68.128,411.312h-9.06
		v-4.665h8.955v1.41h-7.2v1.845h7.305V411.312z M66.253,418.152v-1.905h-5.505v1.905H66.253z"/>
	<path fill="#010100" d="M70.123,419.442c0.74-0.811,1.34-1.742,1.8-2.798c0.46-1.055,0.69-2.152,0.69-3.292v-0.436
		c0-1.119-0.232-2.234-0.697-3.345c-0.465-1.11-1.063-2.064-1.793-2.865h1.485c0.8,0.761,1.46,1.671,1.98,2.73
		c0.52,1.06,0.78,2.225,0.78,3.495v0.27c0,1.28-0.26,2.45-0.78,3.51c-0.52,1.061-1.18,1.971-1.98,2.73H70.123z"/>
</g>
<g>
	<g>
		<path fill="none" stroke="#241916" stroke-miterlimit="10" d="M90.792,401.697c0,0,27.648,3.326,26.777-28.963"/>
		<g>
			<path fill="#241916" d="M117.115,366.712c1.25,2.759,3.291,6.148,5.343,8.193l-4.865-1.383l-4.623,2.049
				C114.717,373.26,116.264,369.619,117.115,366.712z"/>
		</g>
	</g>
</g>
<g>
	<g>
		<path fill="none" stroke="#241916" stroke-miterlimit="10" d="M145.656,275.861c0,0,23.001-23.797,31.517-5.742"/>
		<g>
			<path fill="#241916" d="M179.05,275.861c-1.916-2.346-4.757-5.098-7.266-6.549l5.057,0.089l3.943-3.166
				C179.689,268.918,179.127,272.834,179.05,275.861z"/>
		</g>
	</g>
</g>
<g>
	<defs>
		<rect id="SVGID_1_" x="84.766" width="527" height="176"/>
	</defs>
	<clipPath id="SVGID_00000170257857551272832680000001186928516825804442_">
		<use xlink:href="#SVGID_1_"  overflow="visible"/>
	</clipPath>
	<g clip-path="url(#SVGID_00000170257857551272832680000001186928516825804442_)">
		<path fill="none" stroke="#000000" stroke-miterlimit="10" d="M87.835,176.381c0,0,35.824-28,53.412-32s60.366-63,60.366-63
			s47.222-71,60.222-63c0,0,10,79,34,90s53.891,68,53.891,68"/>
		<path fill="none" stroke="#000000" stroke-miterlimit="10" d="M350.212,176.475c0,0,35.824-28,53.412-32s60.366-63,60.366-63
			s47.222-71,60.222-63c0,0,10,79,34,90s53.891,68,53.891,68"/>
	</g>
	<g clip-path="url(#SVGID_00000170257857551272832680000001186928516825804442_)">
		<path fill="none" stroke="#C9501B" stroke-width="5" stroke-miterlimit="10" d="M273.903,86.598c0,0,44.632-69.26,122.695,2.935
			s90.746,68.78,138.063,0"/>
		<path fill="none" stroke="#C9501B" stroke-width="5" stroke-miterlimit="10" d="M13.866,81.738c0,0,44.632-69.26,122.695,2.935
			s90.746,68.78,138.063,0"/>
		<path fill="none" stroke="#C9501B" stroke-width="5" stroke-miterlimit="10" d="M534.797,89.69c0,0,44.632-69.26,122.695,2.935
			s90.746,68.78,138.063,0"/>
	</g>
</g>
<g>
</g>
<g>
</g>
<g>
</g>
<g>
</g>
<g>
</g>
<g>
</g>
<g>
</g>
</svg>
