<?xml version="1.0" encoding="utf-8"?>
<!-- Generator: Adobe Illustrator 28.0.0, SVG Export Plug-In . SVG Version: 6.00 Build 0)  -->
<svg version="1.1" id="레이어_1" xmlns="http://www.w3.org/2000/svg" xmlns:xlink="http://www.w3.org/1999/xlink" x="0px"
	 y="0px" viewBox="0 0 457.606 215.028" enable-background="new 0 0 457.606 215.028" xml:space="preserve">
<g>
	<g>
		<path d="M47.14,3.576h-5.652V2.52h5.652V3.576z M46.936,5.448c0,0.488-0.24,0.884-0.72,1.188c-0.48,0.304-1.08,0.456-1.8,0.456
			c-0.72,0-1.32-0.152-1.8-0.456c-0.48-0.304-0.72-0.7-0.72-1.188c0-0.48,0.24-0.874,0.72-1.182s1.08-0.462,1.8-0.462
			c0.72,0,1.32,0.154,1.8,0.462S46.936,4.968,46.936,5.448z M42.904,2.028V0.972h2.94v1.056H42.904z M50.572,11.484h-7.548V8.94
			h5.832V8.436h-5.832V7.392h7.224V9.9h-5.796v0.528h6.12V11.484z M43.264,5.448c0,0.192,0.112,0.348,0.336,0.468
			s0.496,0.18,0.816,0.18s0.592-0.06,0.816-0.18c0.224-0.12,0.336-0.276,0.336-0.468c0-0.184-0.112-0.336-0.336-0.456
			c-0.224-0.12-0.496-0.18-0.816-0.18s-0.592,0.06-0.816,0.18C43.376,5.112,43.264,5.264,43.264,5.448z M50.248,6.912h-1.392V5.988
			h-1.428V4.932h1.428V4.116H47.44V3.072h1.416V0.816h1.392V6.912z"/>
		<path d="M61.456,6.876h-4.152V7.56c0.992,0.064,1.762,0.266,2.31,0.606c0.548,0.34,0.822,0.778,0.822,1.314
			c0,0.6-0.334,1.07-1.002,1.41s-1.606,0.51-2.814,0.51c-1.2,0-2.134-0.17-2.802-0.51s-1.002-0.81-1.002-1.41
			c0-0.536,0.27-0.974,0.81-1.314c0.54-0.34,1.298-0.542,2.274-0.606V6.876h-4.104V5.748h9.66V6.876z M60.964,4.248l-0.6,1.116
			C59.58,5.3,58.838,5.08,58.138,4.704c-0.7-0.376-1.206-0.82-1.518-1.332C56.348,3.9,55.87,4.346,55.186,4.71
			c-0.684,0.364-1.45,0.582-2.298,0.654c-0.072-0.144-0.178-0.344-0.318-0.6c-0.14-0.256-0.23-0.42-0.27-0.492
			c0.856-0.04,1.606-0.224,2.25-0.552s1.058-0.756,1.242-1.284h-3V1.32h7.704v1.116h-3.012c0.208,0.512,0.65,0.934,1.326,1.266
			C59.486,4.034,60.204,4.216,60.964,4.248z M59.008,9.492c0-0.264-0.216-0.47-0.648-0.618c-0.432-0.148-1.016-0.222-1.752-0.222
			c-0.728,0-1.304,0.074-1.728,0.222c-0.424,0.148-0.636,0.354-0.636,0.618c0,0.256,0.212,0.456,0.636,0.6
			c0.424,0.144,1,0.216,1.728,0.216c0.736,0,1.32-0.072,1.752-0.216C58.792,9.948,59.008,9.748,59.008,9.492z"/>
		<path d="M65.391,3.672c0-0.72,0.262-1.314,0.786-1.782c0.524-0.468,1.186-0.702,1.986-0.702s1.46,0.232,1.98,0.696
			s0.78,1.06,0.78,1.788c0,0.704-0.26,1.276-0.78,1.716s-1.18,0.66-1.98,0.66c-0.784,0-1.442-0.218-1.974-0.654
			C65.658,4.958,65.391,4.384,65.391,3.672z M73.995,11.388h-7.272V8.58h5.544V7.92h-5.616V6.804h7.044V9.6h-5.58v0.66h5.88V11.388z
			 M66.771,3.66c0,0.352,0.13,0.646,0.39,0.882c0.26,0.236,0.594,0.354,1.002,0.354c0.408,0,0.744-0.122,1.008-0.366
			c0.264-0.244,0.396-0.534,0.396-0.87c0-0.376-0.13-0.69-0.39-0.942c-0.26-0.252-0.598-0.378-1.014-0.378
			c-0.376,0-0.702,0.128-0.978,0.384C66.91,2.98,66.771,3.292,66.771,3.66z M75.22,4.164h-1.524v2.004h-1.428V0.816h1.428v2.196
			h1.524V4.164z"/>
		<path d="M85.371,6.324h-9.66V5.208h3.612V4.08h1.404v1.128h4.644V6.324z M84.207,0.984c0,1.864-0.088,3.152-0.264,3.864
			l-1.368-0.156c0.072-0.296,0.128-0.656,0.168-1.08L76.72,3.888l-0.168-1.032l6.24-0.24V2.064h-5.868v-1.08H84.207z M84.567,11.388
			h-7.752v-2.7h5.964V8.04h-5.988V6.924h7.38V9.66H78.22v0.612h6.348V11.388z"/>
		<path d="M97.719,4.644h-2.964v1.152h4.152v1.128h-9.66V5.796h4.104V4.644h-2.808V1.056h1.416v2.472h5.76V4.644z M97.803,9.504
			c0,0.616-0.328,1.106-0.984,1.47c-0.656,0.364-1.568,0.546-2.736,0.546s-2.08-0.182-2.736-0.546
			c-0.656-0.364-0.984-0.854-0.984-1.47c0-0.624,0.326-1.118,0.978-1.482c0.652-0.364,1.562-0.546,2.73-0.546
			c1.176,0,2.092,0.182,2.748,0.546C97.475,8.386,97.803,8.88,97.803,9.504z M95.745,10.164c0.412-0.16,0.618-0.38,0.618-0.66
			c0-0.28-0.208-0.502-0.624-0.666c-0.416-0.164-0.972-0.246-1.668-0.246c-0.696,0-1.248,0.082-1.656,0.246
			c-0.408,0.164-0.612,0.386-0.612,0.666c0,0.28,0.204,0.5,0.612,0.66c0.408,0.16,0.96,0.24,1.656,0.24
			C94.775,10.404,95.333,10.324,95.745,10.164z"/>
		<path d="M108.111,6.588h-2.976V9.06h4.152v1.104h-9.66V9.06h4.104V6.588h-2.856V1.596h7.176v1.116h-5.772v2.76h5.832V6.588z"/>
	</g>
	<path fill="#FFFFFF" d="M21.325,178.888"/>
	<path fill="none" stroke="#DD421F" stroke-width="0.971" stroke-miterlimit="10" d="M21.325,181.167
		c0,0,19.853-137.431,36.202-149.26c0,0,3.503-6.237,16.641,0c9.392,13.207,19.751,26.704,31.178,40.311
		c39.634,47.193,81.449,82.988,119.226,109.935"/>
	<path fill="none" stroke="#DD421F" stroke-width="0.7715" stroke-miterlimit="10" d="M21.325,181.167
		c0,0,12.532-137.431,22.853-149.26c0,0,2.212-6.237,10.505,0c6.236,6.889,15.592,17.297,26.841,30.094
		c21.877,24.887,21.73,25.614,33.799,39.16c43.319,48.618,65.915,62.485,74.357,67.364c8.308,4.801,15.396,8.113,19.813,10.061"/>
	<path fill="none" stroke="#00A1E9" stroke-width="0.842" stroke-miterlimit="10" d="M43.428,185.186
		c23.178,1.609,56.008-0.207,87.511-19.513c43.2-26.475,44.198-61.506,89.373-85.242c41.057-21.572,82.357-12.51,93.097-10.27
		c29.912,6.237,50.902,20.554,80.994,41.08c22.4,15.279,39.622,30.229,51.203,41.08"/>
	
		<line fill="none" stroke="#3F3B3A" stroke-width="0.9206" stroke-miterlimit="10" x1="1.266" y1="195.264" x2="457.606" y2="195.264"/>
	<line fill="none" stroke="#3F3B3A" stroke-width="0.9206" stroke-miterlimit="10" x1="0.46" y1="22.232" x2="0.46" y2="195.264"/>
	<g>
		<path d="M97.981,44.882h-5.652v-1.056h5.652V44.882z M97.777,46.754c0,0.488-0.24,0.884-0.72,1.188
			c-0.48,0.304-1.08,0.456-1.8,0.456c-0.72,0-1.32-0.152-1.8-0.456c-0.48-0.304-0.72-0.7-0.72-1.188c0-0.48,0.24-0.874,0.72-1.182
			s1.08-0.462,1.8-0.462c0.72,0,1.32,0.154,1.8,0.462S97.777,46.274,97.777,46.754z M93.745,43.334v-1.056h2.94v1.056H93.745z
			 M101.413,52.79h-7.548v-2.544h5.832v-0.504h-5.832v-1.044h7.224v2.508h-5.796v0.528h6.12V52.79z M94.105,46.754
			c0,0.192,0.112,0.348,0.336,0.468s0.496,0.18,0.816,0.18s0.592-0.06,0.816-0.18c0.224-0.12,0.336-0.276,0.336-0.468
			c0-0.184-0.112-0.336-0.336-0.456c-0.224-0.12-0.496-0.18-0.816-0.18s-0.592,0.06-0.816,0.18
			C94.217,46.418,94.105,46.57,94.105,46.754z M101.089,48.218h-1.392v-0.924h-1.428v-1.056h1.428v-0.816h-1.416v-1.044h1.416
			v-2.256h1.392V48.218z"/>
		<path d="M112.297,48.182h-4.152v0.684c0.992,0.064,1.762,0.266,2.31,0.606c0.548,0.34,0.822,0.778,0.822,1.314
			c0,0.6-0.334,1.07-1.002,1.41s-1.606,0.51-2.814,0.51c-1.2,0-2.134-0.17-2.802-0.51s-1.002-0.81-1.002-1.41
			c0-0.536,0.27-0.974,0.81-1.314c0.54-0.34,1.298-0.542,2.274-0.606v-0.684h-4.104v-1.128h9.66V48.182z M111.805,45.554l-0.6,1.116
			c-0.784-0.064-1.526-0.284-2.226-0.66c-0.7-0.376-1.206-0.82-1.518-1.332c-0.272,0.528-0.75,0.974-1.434,1.338
			c-0.684,0.364-1.45,0.582-2.298,0.654c-0.072-0.144-0.178-0.344-0.318-0.6c-0.14-0.256-0.23-0.42-0.27-0.492
			c0.856-0.04,1.606-0.224,2.25-0.552s1.058-0.756,1.242-1.284h-3v-1.116h7.704v1.116h-3.012c0.208,0.512,0.65,0.934,1.326,1.266
			C110.327,45.34,111.045,45.522,111.805,45.554z M109.849,50.798c0-0.264-0.216-0.47-0.648-0.618
			c-0.432-0.148-1.016-0.222-1.752-0.222c-0.728,0-1.304,0.074-1.728,0.222c-0.424,0.148-0.636,0.354-0.636,0.618
			c0,0.256,0.212,0.456,0.636,0.6c0.424,0.144,1,0.216,1.728,0.216c0.736,0,1.32-0.072,1.752-0.216
			C109.633,51.254,109.849,51.054,109.849,50.798z"/>
		<path d="M116.257,46.682c0-1.144,0.248-2.068,0.744-2.772c0.496-0.704,1.172-1.056,2.028-1.056c0.864,0,1.542,0.353,2.034,1.056
			c0.492,0.704,0.738,1.628,0.738,2.772c0,1.136-0.246,2.054-0.738,2.754c-0.492,0.7-1.17,1.05-2.034,1.05
			c-0.856,0-1.532-0.35-2.028-1.05C116.505,48.736,116.257,47.818,116.257,46.682z M120.457,46.682c0-0.832-0.132-1.49-0.396-1.974
			c-0.264-0.484-0.608-0.726-1.032-0.726c-0.408,0-0.744,0.242-1.008,0.726c-0.264,0.484-0.396,1.142-0.396,1.974
			c0,0.824,0.132,1.476,0.396,1.956s0.6,0.72,1.008,0.72c0.424,0,0.768-0.24,1.032-0.72S120.457,47.506,120.457,46.682z
			 M124.537,42.122v4.104h1.584v1.164h-1.584v5.424h-1.428V42.122H124.537z"/>
		<path d="M131.952,49.214l-0.792,0.996c-0.384-0.24-0.772-0.602-1.164-1.086c-0.392-0.484-0.652-0.974-0.78-1.47
			c-0.152,0.56-0.416,1.096-0.792,1.608c-0.376,0.512-0.812,0.916-1.308,1.212l-0.828-0.96c0.704-0.456,1.254-1.088,1.65-1.896
			s0.594-1.764,0.594-2.868v-1.596h1.344v1.584c0,1.032,0.182,1.938,0.546,2.718C130.786,48.236,131.297,48.822,131.952,49.214z
			 M133.513,52.322h-1.308v-5.376h-1.44v-1.14h1.44v-3.48h1.308V52.322z M135.649,52.814h-1.332V42.122h1.332V52.814z"/>
		<path d="M146.593,50.366v1.104h-9.66v-1.104H146.593z M145.129,46.37h-5.568v1.164h5.928v1.104h-7.32v-5.676h7.212v1.104h-5.82
			v1.2h5.568V46.37z"/>
		<path d="M147.372,44.978c0-0.72,0.262-1.314,0.786-1.782c0.524-0.468,1.186-0.702,1.986-0.702s1.46,0.232,1.98,0.696
			s0.78,1.06,0.78,1.788c0,0.704-0.26,1.276-0.78,1.716s-1.18,0.66-1.98,0.66c-0.784,0-1.442-0.218-1.974-0.654
			C147.639,46.264,147.372,45.69,147.372,44.978z M155.976,52.694h-7.272v-2.808h5.544v-0.66h-5.616V48.11h7.044v2.796h-5.58v0.66
			h5.88V52.694z M148.752,44.966c0,0.352,0.13,0.646,0.39,0.882c0.26,0.236,0.594,0.354,1.002,0.354
			c0.408,0,0.744-0.122,1.008-0.366c0.264-0.244,0.396-0.534,0.396-0.87c0-0.376-0.13-0.69-0.39-0.942
			c-0.26-0.252-0.598-0.378-1.014-0.378c-0.376,0-0.702,0.128-0.978,0.384C148.89,44.286,148.752,44.598,148.752,44.966z
			 M157.201,45.47h-1.524v2.004h-1.428v-5.352h1.428v2.196h1.524V45.47z"/>
		<path d="M159.409,49.19c1.288,0,2.288-0.084,3-0.252l0.168,1.08c-0.728,0.184-1.912,0.276-3.552,0.276h-1.02v-6.9h4.044v1.104
			h-2.64V49.19z M163.296,47.138h-1.836v-1.116h1.836v-3.708h1.308v10.008h-1.308V47.138z M166.788,52.814h-1.344V42.122h1.344
			V52.814z"/>
		<path d="M174.432,45.734h-6.228v-1.116h6.228V45.734z M168.78,48.446c0-0.656,0.244-1.204,0.732-1.644
			c0.488-0.44,1.112-0.66,1.872-0.66c0.776,0,1.406,0.216,1.89,0.648c0.484,0.432,0.726,0.984,0.726,1.656
			c0,0.664-0.242,1.214-0.726,1.65c-0.484,0.436-1.114,0.654-1.89,0.654c-0.768,0-1.394-0.214-1.878-0.642
			C169.022,49.68,168.78,49.126,168.78,48.446z M169.704,43.922v-1.116h3.3v1.116H169.704z M170.508,47.594
			c-0.224,0.216-0.336,0.5-0.336,0.852s0.112,0.636,0.336,0.852c0.224,0.216,0.516,0.324,0.876,0.324
			c0.392,0,0.698-0.106,0.918-0.318c0.22-0.212,0.33-0.498,0.33-0.858c0-0.352-0.116-0.636-0.348-0.852s-0.532-0.324-0.9-0.324
			C171.024,47.27,170.732,47.378,170.508,47.594z M176.916,52.814h-1.404V42.122h1.404V52.814z"/>
		<path d="M188.112,50.294v1.116h-9.66v-1.116H188.112z M186.996,48.038h-7.308v-5.016h7.212v1.128h-5.82v2.772h5.916V48.038z"/>
		<path d="M200.46,45.95h-2.964v1.152h4.152v1.128h-9.66v-1.128h4.104V45.95h-2.808v-3.588h1.416v2.472h5.76V45.95z M200.544,50.81
			c0,0.616-0.328,1.106-0.984,1.47c-0.656,0.364-1.568,0.546-2.736,0.546s-2.08-0.182-2.736-0.546
			c-0.656-0.364-0.984-0.854-0.984-1.47c0-0.624,0.326-1.118,0.978-1.482c0.652-0.364,1.562-0.546,2.73-0.546
			c1.176,0,2.092,0.182,2.748,0.546C200.216,49.692,200.544,50.186,200.544,50.81z M198.486,51.47c0.412-0.16,0.618-0.38,0.618-0.66
			c0-0.28-0.208-0.502-0.624-0.666c-0.416-0.164-0.972-0.246-1.668-0.246c-0.696,0-1.248,0.082-1.656,0.246
			c-0.408,0.164-0.612,0.386-0.612,0.666c0,0.28,0.204,0.5,0.612,0.66c0.408,0.16,0.96,0.24,1.656,0.24
			C197.515,51.71,198.074,51.63,198.486,51.47z"/>
		<path d="M210.852,47.894h-2.976v2.472h4.152v1.104h-9.66v-1.104h4.104v-2.472h-2.856v-4.992h7.176v1.116h-5.772v2.76h5.832V47.894
			z"/>
	</g>
	<g>
		<path d="M275.461,50.788h3.458V49.5h-4.788v-1.302h11.271V49.5h-4.845v1.288h3.389v4.144h-1.624v-2.855h-6.86V50.788z
			 M279.772,44.936c-0.298,0.691-0.877,1.274-1.735,1.75c-0.859,0.477-1.769,0.779-2.73,0.91l-0.686-1.26
			c1.147-0.121,2.153-0.472,3.017-1.05c0.863-0.579,1.295-1.307,1.295-2.185v-0.363h1.694v0.363c0,0.588,0.24,1.132,0.721,1.631
			c0.48,0.5,1.046,0.883,1.694,1.148s1.285,0.418,1.911,0.455l-0.7,1.288c-0.915-0.131-1.815-0.443-2.702-0.938
			C280.664,46.191,280.071,45.607,279.772,44.936z"/>
		<path d="M291.127,54.54h-1.651v-3.725c-1.055,0.038-2.086,0.057-3.095,0.057l-0.237-1.33c1.223,0,2.604-0.023,4.144-0.07
			c1.596-0.065,2.973-0.163,4.13-0.294l0.126,1.246c-0.812,0.121-1.95,0.224-3.416,0.308V54.54z M287.096,45.901v-1.287h6.537v1.287
			h-2.407c0.121,0.468,0.45,0.846,0.986,1.135c0.537,0.289,1.127,0.452,1.771,0.489l-0.645,1.232
			c-0.588-0.074-1.164-0.261-1.729-0.56s-0.969-0.649-1.211-1.051c-0.233,0.467-0.645,0.873-1.232,1.219
			c-0.588,0.345-1.199,0.56-1.834,0.644l-0.686-1.218c1.708-0.289,2.66-0.919,2.855-1.891H287.096z M288.565,43.956v-1.288h3.626
			v1.288H288.565z M296.643,42.43v12.475h-1.639V42.43H296.643z"/>
	</g>
	<g>
		<path d="M435.57,187.92l-0.816,1.057c-0.456-0.28-0.918-0.708-1.386-1.284s-0.79-1.132-0.966-1.668
			c-0.176,0.607-0.508,1.214-0.996,1.817c-0.488,0.604-1.008,1.059-1.56,1.362l-0.853-1.032c1.768-1.144,2.652-2.788,2.652-4.932
			v-1.632h1.452v1.56C433.098,185.273,433.922,186.857,435.57,187.92z M437.778,191.401h-1.404v-10.692h1.404V191.401z"/>
		<path d="M444.69,181.525c-0.009,1.472-0.467,2.706-1.374,3.702c-0.908,0.995-2.059,1.67-3.45,2.021l-0.696-1.116
			c0.96-0.168,1.826-0.562,2.599-1.182c0.771-0.62,1.241-1.374,1.409-2.262h-3.468v-1.164H444.69z M447.942,191.088h-7.141v-3.443
			h1.416v2.327h5.725V191.088z M449.202,184.909h-1.524v3.54h-1.416v-7.74h1.416v3.048h1.524V184.909z"/>
	</g>
	<g>
		<path d="M12.738,210.78l-0.624,0.792c-0.536-0.312-1.064-0.764-1.584-1.356c-0.52-0.592-0.864-1.167-1.032-1.728
			c-0.16,0.592-0.486,1.192-0.978,1.8c-0.492,0.608-1.05,1.108-1.674,1.5l-0.684-0.78c0.824-0.472,1.494-1.128,2.01-1.968
			c0.516-0.84,0.774-1.744,0.774-2.712v-1.02h-2.4v-0.876h5.808v0.876h-2.316v1.008c0,0.976,0.252,1.854,0.756,2.634
			C11.298,209.73,11.946,210.34,12.738,210.78z M13.89,207.972h-2.112v-0.9h2.112v-3.732h1.068v10.488H13.89V207.972z"/>
		<path d="M22.71,208.74c-1.008,0.24-2.368,0.384-4.08,0.432c-0.304,0.009-0.752,0.013-1.344,0.013v-5.232h1.044v4.332
			c1.76-0.016,3.164-0.147,4.212-0.396L22.71,208.74z M18.27,210.156h7.068v3.672h-1.08v-2.82H18.27V210.156z M25.326,209.58h-1.068
			v-2.412H21.09v-0.84h3.168v-0.936H21.09v-0.84h3.168v-1.213h1.068V209.58z"/>
	</g>
	<g>
		<path d="M136.553,208.896h-5.016v-4.992h1.056v1.656h2.904v-1.656h1.056V208.896z M135.496,208.032v-1.62h-2.904v1.62H135.496z
			 M139.301,213.684h-6.696v-3.756h6.696V213.684z M138.244,212.844v-2.064h-4.584v2.064H138.244z M140.861,206.844h-1.56v2.567
			h-1.068v-6.072h1.068v2.616h1.56V206.844z"/>
	</g>
	<g>
		<path d="M246.509,210.474c-0.448-0.685-0.673-1.578-0.673-2.683c0-1.104,0.225-1.998,0.673-2.682
			c0.447-0.684,1.111-1.026,1.991-1.026s1.542,0.343,1.986,1.026s0.666,1.582,0.666,2.694c0,1.096-0.222,1.985-0.666,2.67
			c-0.444,0.684-1.106,1.025-1.986,1.025S246.956,211.158,246.509,210.474z M250.108,207.804c0-0.841-0.14-1.519-0.42-2.034
			c-0.28-0.517-0.676-0.774-1.188-0.774c-0.512,0-0.905,0.256-1.182,0.769c-0.276,0.512-0.414,1.191-0.414,2.04
			c0,0.832,0.138,1.504,0.414,2.016s0.67,0.768,1.182,0.768c0.513,0,0.908-0.256,1.188-0.768S250.108,208.636,250.108,207.804z
			 M255.46,208.379h-1.68v5.448h-1.068v-10.488h1.068v4.164h1.68V208.379z"/>
		<path d="M262.432,208.524l-0.553,0.828c-0.479-0.145-0.976-0.404-1.487-0.78c-0.513-0.376-0.885-0.784-1.116-1.224
			c-0.176,0.472-0.504,0.926-0.984,1.361c-0.479,0.437-1.008,0.755-1.584,0.954l-0.588-0.84c0.696-0.216,1.288-0.57,1.776-1.062
			c0.487-0.492,0.764-1.051,0.828-1.675h-2.244v-0.876h5.735v0.876h-2.388c0.088,0.593,0.384,1.104,0.888,1.536
			C261.221,208.056,261.792,208.356,262.432,208.524z M264.664,213.684H257.8v-3.564h6.864V213.684z M260.74,204.444h-2.844v-0.864
			h2.844V204.444z M263.597,212.844v-1.872h-4.729v1.872H263.597z M264.664,209.543h-1.067v-6.204h1.067V209.543z"/>
	</g>
	<g>
		<path d="M365.589,204.972v-0.876h5.736v0.876h-2.292v0.407c0,0.696,0.256,1.326,0.768,1.891c0.512,0.563,1.092,0.946,1.74,1.146
			l-0.588,0.853c-0.488-0.192-0.966-0.498-1.435-0.918c-0.468-0.42-0.806-0.862-1.014-1.326c-0.16,0.488-0.5,0.976-1.021,1.464
			c-0.52,0.488-1.06,0.848-1.619,1.08l-0.601-0.828c0.72-0.264,1.348-0.71,1.884-1.338s0.805-1.294,0.805-1.998v-0.432H365.589z
			 M373.953,213.684h-6.756v-3.672h6.756V213.684z M372.885,212.832v-1.979h-4.632v1.979H372.885z M373.953,209.484h-1.068v-2.616
			h-1.956v-0.864h1.956v-2.664h1.068V209.484z"/>
		<path d="M382.077,208.164l-0.624,0.816c-0.496-0.224-0.988-0.564-1.477-1.021s-0.836-0.932-1.044-1.428
			c-0.152,0.528-0.474,1.046-0.966,1.554c-0.492,0.509-1.046,0.914-1.662,1.219l-0.648-0.816c0.784-0.336,1.435-0.832,1.95-1.488
			c0.517-0.655,0.774-1.392,0.774-2.208v-1.02h1.092v0.972c0,0.809,0.264,1.521,0.792,2.136
			C380.793,207.496,381.396,207.923,382.077,208.164z M384.333,213.684h-6.9v-3.721h6.9V213.684z M383.264,212.844v-2.04h-4.776
			v2.04H383.264z M384.333,209.339h-1.068v-6h1.068V209.339z"/>
	</g>
</g>
<g>
</g>
<g>
</g>
<g>
</g>
<g>
</g>
<g>
</g>
<g>
</g>
</svg>
