<?xml version="1.0" encoding="utf-8"?>
<!-- Generator: Adobe Illustrator 28.0.0, SVG Export Plug-In . SVG Version: 6.00 Build 0)  -->
<svg version="1.1" id="레이어_1" xmlns="http://www.w3.org/2000/svg" xmlns:xlink="http://www.w3.org/1999/xlink" x="0px"
	 y="0px" viewBox="0 0 510.815 193.854" enable-background="new 0 0 510.815 193.854" xml:space="preserve">
<g>
	<path fill="#ED7A7D" d="M192.05,137.79c0.336,0.555,0.728,1.09,1.179,1.604c6.633,7.546,17.782,7.142,26.952,7.26
		c13.185,0.17,26.391,0.021,39.545-0.95c10.134-0.748,21.922-1.283,29.476-9.047c6.913-7.111-1.527-22.3-5.218-29.073
		c-11.32-20.766-30.936-45.804-56.324-28.896c-10.666,7.104-19.06,17.077-26.305,27.526
		C195.461,114.714,185.589,127.118,192.05,137.79z"/>
	<path fill="#E25C71" d="M281.701,127.371l10.136,2.012c0.006-1.152-0.115-2.351-0.332-3.572l-10.91-2.173
		C281.094,124.843,281.558,126.155,281.701,127.371z M278.949,119.889h10.91c-0.43-1.164-0.9-2.322-1.393-3.44h-11.231
		C277.837,117.584,278.416,118.725,278.949,119.889z M277.992,132.611c2.958,1.989,5.934,4.019,8.927,6.089
		c0.797-0.619,1.559-1.296,2.282-2.041c0.109-0.115,0.218-0.229,0.315-0.344c-2.849-1.978-5.693-3.916-8.514-5.825
		C280.308,131.441,279.213,132.112,277.992,132.611z M275.068,112.447c0,0,0.161,0.287,0.161,0.292
		c0.006,0.006,0.006,0.017,0.011,0.023l10.412-2.081c-0.608-1.152-1.181-2.202-1.668-3.096c-0.012-0.023-0.023-0.046-0.04-0.069
		l-10.463,2.093C274.007,110.532,274.54,111.478,275.068,112.447z M272.419,107.798c3.136-1.324,6.284-2.649,9.448-3.967
		c-0.579-0.992-1.175-1.989-1.789-2.981c-3.176,1.324-6.341,2.66-9.488,3.985C271.198,105.791,271.806,106.777,272.419,107.798z
		 M272.82,133.993c-1.003,0.224-2.018,0.424-3.039,0.596c2.781,2.832,5.584,5.676,8.399,8.485c1.21-0.373,2.397-0.803,3.543-1.319
		c-2.649-2.637-5.292-5.309-7.918-7.981C273.463,133.855,273.13,133.924,272.82,133.993z M268.813,102.133
		c2.838-1.903,5.641-3.778,8.434-5.659c-0.642-0.946-1.301-1.886-1.978-2.815c-2.792,1.881-5.601,3.761-8.445,5.664
		C267.489,100.224,268.148,101.164,268.813,102.133z M265.453,97.518c2.385-2.419,4.787-4.845,7.207-7.27
		c-0.728-0.9-1.468-1.789-2.224-2.649c-2.402,2.414-4.799,4.833-7.172,7.241C263.991,95.689,264.725,96.578,265.453,97.518z
		 M260.018,135.655c2.041,3.211,4.071,6.381,6.123,9.546c1.273-0.115,2.551-0.252,3.824-0.424c-2.035-3.13-4.048-6.261-6.066-9.425
		C262.61,135.478,261.314,135.575,260.018,135.655z M267.018,83.993c-0.837-0.82-1.691-1.605-2.563-2.351l-5.693,8.537
		c0.826,0.757,1.663,1.577,2.5,2.454L267.018,83.993z M260.855,78.839c-0.963-0.676-1.944-1.301-2.941-1.869
		c-1.336,3.171-2.672,6.335-3.996,9.466c0.946,0.602,1.903,1.284,2.861,2.053C258.132,85.295,259.496,82.078,260.855,78.839z
		 M255.575,135.885c-1.204,0.052-2.402,0.092-3.595,0.143c1.17,3.297,2.368,6.622,3.612,9.953h0.006
		c1.193-0.069,2.391-0.149,3.583-0.235c-1.238-3.297-2.437-6.587-3.601-9.861H255.575z M249.377,73.65
		c-0.642,3.348-1.279,6.679-1.909,9.982c1.084,0.252,2.184,0.619,3.291,1.106c0.642-3.36,1.29-6.754,1.944-10.165
		C251.613,74.195,250.507,73.885,249.377,73.65z M244.607,136.315c0.545,3.56,1.066,6.983,1.542,10.119
		c1.152-0.04,2.305-0.086,3.457-0.138c-0.47-3.125-0.998-6.547-1.542-10.114C246.912,136.235,245.76,136.28,244.607,136.315z
		 M240.732,83.706c1.164-0.287,2.305-0.424,3.44-0.43c0.006-3.388,0.011-6.777,0.017-10.159c-1.129,0.006-2.276,0.086-3.44,0.258
		C240.737,76.815,240.732,80.261,240.732,83.706z M236.265,146.669c1.158-0.011,2.311-0.034,3.469-0.057
		c0.355-3.188,0.728-6.616,1.095-10.188c-1.152,0.029-2.311,0.052-3.463,0.063C236.999,140.059,236.626,143.493,236.265,146.669z
		 M236.105,74.482c-1.066,0.35-2.144,0.774-3.239,1.279c0.803,3.4,1.554,6.8,2.23,10.262c1.089-0.625,2.15-1.141,3.199-1.548
		C237.624,81.104,236.885,77.796,236.105,74.482z M228.451,136.556c-1.324,3.6-2.574,7.023-3.71,10.142
		c1.221,0.011,2.437,0.017,3.658,0.011c1.141-3.148,2.396-6.576,3.715-10.165c-0.992,0.011-1.989,0.011-2.981,0.011H228.451z
		 M231.983,88.035c-1.25-3.205-2.523-6.438-3.813-9.678c-0.172,0.109-0.338,0.218-0.51,0.332c-0.814,0.539-1.611,1.101-2.396,1.674
		c1.307,3.285,2.591,6.565,3.864,9.815C230.073,89.428,231.025,88.712,231.983,88.035z M221.582,83.231
		c-0.889,0.734-1.766,1.496-2.62,2.27c1.892,2.809,3.795,5.653,5.716,8.548c0.86-0.814,1.72-1.588,2.58-2.328
		C225.355,88.844,223.457,86.017,221.582,83.231z M220.275,98.538c0.791-0.866,1.583-1.697,2.374-2.5
		c-2.351-2.402-4.718-4.827-7.109-7.264c-0.803,0.82-1.6,1.645-2.379,2.488c2.391,2.437,4.764,4.862,7.109,7.27L220.275,98.538z
		 M218.917,136.487l-6.668,10.01c1.365,0.069,2.718,0.097,4.053,0.115l6.725-10.085c-1.364-0.017-2.735-0.029-4.105-0.04H218.917z
		 M219.192,99.742c-2.803-1.858-5.642-3.755-8.508-5.693c-0.757,0.871-1.496,1.76-2.224,2.655c2.861,1.926,5.682,3.818,8.479,5.676
		C217.695,101.468,218.446,100.591,219.192,99.742z M215.001,104.793c-3.233-1.319-6.484-2.649-9.741-3.99
		c-0.711,0.94-1.41,1.898-2.098,2.855c3.233,1.336,6.461,2.66,9.672,3.967C213.562,106.651,214.278,105.705,215.001,104.793z
		 M209.697,112c0.51-0.734,1.021-1.456,1.525-2.167l-10.887-2.161c-0.694,0.986-1.422,2.012-2.156,3.079l10.876,2.167L209.697,112z
		 M199.733,144.049c1.175,0.51,2.396,0.917,3.652,1.238c2.941-2.878,5.882-5.779,8.812-8.692c-1.537-0.006-3.09-0.08-4.564-0.327
		C205.002,138.883,202.365,141.475,199.733,144.049z M206.51,116.449h-12.006c-0.659,1.124-1.279,2.276-1.835,3.44h11.415
		C204.904,118.645,205.747,117.481,206.51,116.449z M201.642,133.523c-0.567-0.573-0.957-1.21-1.198-1.898
		c-2.838,1.984-5.67,3.967-8.514,5.957l0.12,0.206c0.338,0.556,0.728,1.089,1.181,1.605c0.275,0.31,0.556,0.608,0.843,0.889
		c2.838-1.995,5.67-3.973,8.502-5.951C202.244,134.085,201.935,133.815,201.642,133.523z M201.705,123.977l-11.317,2.264
		c-0.269,1.198-0.424,2.402-0.447,3.595l10.389-2.081C200.587,126.528,201.08,125.25,201.705,123.977z"/>
	<path fill="#F9CBA6" d="M229.133,136.558c-3.541,0.001-7.081-0.044-10.622-0.078c-5.137-0.046-12.859,1.094-16.869-2.96
		c-5.027-5.082,3.707-15.332,6.629-19.48l1.428-2.039c8.044-11.6,15.539-19.5,23.59-24.861c3.909-2.604,7.509-3.869,11.004-3.869
		c9.59,0,20.519,10.361,30.773,29.174c0,0,0.16,0.292,0.16,0.292c1.523,2.792,3.078,5.578,4.325,8.508
		c0.919,2.161,2.794,5.776,2.009,8.154c-1.063,3.218-5.89,3.95-8.74,4.593c-7.819,1.764-16.175,1.812-24.152,2.166
		C242.158,136.448,235.647,136.557,229.133,136.558z"/>
	<circle fill="#C93466" cx="233.616" cy="108.765" r="3.099"/>
	<circle fill="#726AAE" cx="221.873" cy="119.203" r="3.099"/>
	<circle fill="#726AAE" cx="255.657" cy="125.241" r="3.099"/>
	<circle fill="#C93466" cx="259.211" cy="107.521" r="3.099"/>
	<path fill="#C93466" d="M229.02,147.439c-2.846,0-5.789-0.02-8.848-0.059c-0.581-0.008-1.169-0.013-1.763-0.018
		c-9.046-0.083-19.298-0.177-25.724-7.488c-0.471-0.537-0.894-1.111-1.255-1.708h0c-6.221-10.275,1.966-21.9,7.944-30.388
		c0.479-0.68,0.943-1.34,1.386-1.978c8.849-12.763,17.269-21.57,26.499-27.716c7.751-5.162,15.554-6.822,23.192-4.937
		c11.953,2.952,23.45,14.421,34.171,34.089l0.16,0.292c3.937,7.219,12.13,22.24,4.942,29.634
		c-7.428,7.634-18.704,8.451-28.653,9.171l-1.29,0.094C250.538,147.11,240.603,147.439,229.02,147.439z M192.671,137.414
		c0.317,0.524,0.688,1.029,1.104,1.502c5.998,6.824,15.906,6.915,24.648,6.995c0.596,0.006,1.186,0.011,1.768,0.018
		c15.467,0.2,28.013-0.102,39.482-0.948l1.292-0.094c9.691-0.702,20.675-1.497,27.717-8.735c6.442-6.627-1.405-21.014-5.176-27.928
		l-0.16-0.293c-10.518-19.296-21.703-30.525-33.245-33.375c-7.228-1.785-14.642-0.191-22.041,4.736
		c-9.072,6.042-17.369,14.728-26.111,27.335c-0.444,0.641-0.911,1.304-1.392,1.987C194.812,116.774,186.941,127.95,192.671,137.414
		L192.671,137.414z"/>
</g>
<g>
	<g>
		<path fill="#010100" d="M240.714,56.165h-1.037v-3.049h-3.557v-0.844h8.182v0.844h-3.588V56.165z M243.286,51.194h-6.15v-3.751
			h1.027v1.088h4.086v-1.108h1.037V51.194z M242.249,50.351v-0.996h-4.086v0.996H242.249z"/>
		<path fill="#010100" d="M250.39,51.438l-0.61,0.833c-0.393-0.163-0.792-0.437-1.194-0.823c-0.403-0.386-0.7-0.789-0.89-1.209
			c-0.142,0.461-0.422,0.908-0.838,1.342c-0.417,0.434-0.855,0.746-1.316,0.935l-0.63-0.833c0.657-0.257,1.194-0.667,1.611-1.23
			c0.417-0.562,0.625-1.186,0.625-1.87v-0.976h1.067v0.936c0,0.677,0.219,1.282,0.656,1.814
			C249.308,50.888,249.814,51.249,250.39,51.438z M252.566,55.9h-6.16v-2.866h1.037v2.033h5.123V55.9z M252.363,53.664h-1.037
			v-6.566h1.037V53.664z"/>
	</g>
</g>
<g>
	<g>
		<path fill="#010100" d="M222.619,65.595l0.071,0.813c-0.698,0.116-1.664,0.204-2.897,0.265c-0.861,0.047-1.772,0.071-2.734,0.071
			l-0.163-0.874c0.596,0,1.037-0.003,1.321-0.01l-0.295-3.608l1.006-0.122l0.213,3.71c0.434-0.014,0.752-0.027,0.956-0.041h0.132
			l0.224-3.679l1.026,0.102l-0.305,3.527C221.785,65.693,222.266,65.642,222.619,65.595z M222.263,61.509h-5.072v-0.833h5.072
			V61.509z M224.418,68.898h-1.037v-9.057h1.037V68.898z"/>
		<path fill="#010100" d="M226.166,61.112v-0.833h4.777v0.833h-1.819c0.034,0.589,0.249,1.094,0.646,1.514
			c0.396,0.42,0.873,0.715,1.428,0.885l-0.569,0.813c-0.386-0.149-0.774-0.393-1.164-0.732s-0.679-0.701-0.869-1.087
			c-0.128,0.427-0.403,0.833-0.823,1.22c-0.42,0.386-0.864,0.667-1.332,0.843l-0.62-0.792c0.644-0.237,1.171-0.584,1.581-1.042
			c0.41-0.458,0.629-0.998,0.656-1.621H226.166z M233.515,68.827h-6.2v-2.389h4.858v-0.681h-4.889v-0.833h5.926v2.297h-4.848v0.783
			h5.153V68.827z M233.21,64.446h-1.037v-4.604h1.037V64.446z"/>
	</g>
</g>
<g>
	<g>
		<path fill="#010100" d="M262.73,65.066h-8.183v-0.833h3.568v-1.301h1.036v1.301h3.578V65.066z M262.384,62.586l-0.457,0.823
			c-0.685-0.115-1.349-0.361-1.992-0.737c-0.645-0.376-1.074-0.801-1.291-1.275c-0.21,0.481-0.627,0.906-1.25,1.275
			c-0.624,0.37-1.298,0.612-2.023,0.727l-0.447-0.813c0.82-0.088,1.558-0.352,2.211-0.793c0.654-0.44,0.981-0.972,0.981-1.596
			v-0.285h1.077v0.285c0,0.42,0.18,0.815,0.539,1.184c0.358,0.37,0.778,0.656,1.26,0.859
			C261.473,62.444,261.937,62.559,262.384,62.586z M255.503,65.89h6.17v3.039h-1.037v-2.206h-5.133V65.89z"/>
		<path fill="#010100" d="M263.746,61.112v-0.833h4.777v0.833h-1.82c0.034,0.589,0.249,1.094,0.646,1.514
			c0.396,0.42,0.873,0.715,1.429,0.885l-0.569,0.813c-0.387-0.149-0.774-0.393-1.164-0.732s-0.68-0.701-0.869-1.087
			c-0.129,0.427-0.403,0.833-0.823,1.22s-0.864,0.667-1.331,0.843l-0.62-0.792c0.644-0.237,1.17-0.584,1.58-1.042
			s0.629-0.998,0.656-1.621H263.746z M271.095,68.827h-6.2v-2.389h4.858v-0.681h-4.889v-0.833h5.926v2.297h-4.849v0.783h5.153
			V68.827z M270.79,64.446h-1.037v-4.604h1.037V64.446z"/>
	</g>
</g>
<g>
	<g>
		<path fill="#010100" d="M103.419,154.342h-1.9v1.809c1.131-0.054,1.928-0.115,2.389-0.183l0.112,0.915
			c-0.671,0.088-1.674,0.163-3.009,0.224c-1.159,0.061-2.125,0.091-2.897,0.091l-0.163-0.965c0.813,0,1.606-0.01,2.378-0.031v-1.86
			h-1.565v-3.659h1.189v2.714h3.466V154.342z M105.604,149.85v9.057h-1.189v-9.057H105.604z"/>
		<path fill="#010100" d="M111.978,152.95h-5.255v-0.945h5.255V152.95z M107.17,155.216c0-0.562,0.204-1.028,0.61-1.397
			c0.407-0.37,0.932-0.554,1.576-0.554c0.65,0,1.177,0.183,1.581,0.549c0.403,0.366,0.605,0.833,0.605,1.403
			c0,0.562-0.204,1.028-0.61,1.397c-0.406,0.37-0.932,0.554-1.575,0.554c-0.65,0-1.178-0.181-1.581-0.544
			C107.371,156.262,107.17,155.792,107.17,155.216z M107.993,151.374v-0.935h2.795v0.935H107.993z M108.328,155.216
			c0,0.292,0.097,0.528,0.29,0.711c0.193,0.183,0.438,0.274,0.737,0.274c0.325,0,0.578-0.09,0.757-0.269
			c0.179-0.18,0.269-0.418,0.269-0.717s-0.096-0.539-0.29-0.722c-0.193-0.183-0.439-0.274-0.737-0.274
			c-0.298,0-0.544,0.091-0.737,0.274C108.425,154.678,108.328,154.918,108.328,155.216z M113.848,149.85v3.669h1.26v0.986h-1.26
			v4.401h-1.199v-9.057H113.848z"/>
		<path fill="#010100" d="M120.221,158.916h-1.2v-3.222h-3.466v-0.935h8.182v0.935h-3.517V158.916z M123.402,153.041l-0.518,0.966
			c-0.685-0.102-1.34-0.349-1.967-0.742c-0.627-0.393-1.049-0.833-1.266-1.321c-0.197,0.488-0.605,0.927-1.225,1.316
			s-1.282,0.642-1.987,0.757l-0.508-0.976c0.827-0.088,1.548-0.369,2.165-0.844c0.616-0.474,0.925-1.037,0.925-1.687v-0.468h1.26
			v0.468c0,0.434,0.161,0.84,0.483,1.22s0.718,0.681,1.189,0.904C122.425,152.858,122.908,152.994,123.402,153.041z"/>
		<path fill="#010100" d="M128.799,156.172l-0.671,0.844c-0.312-0.183-0.625-0.466-0.94-0.849c-0.315-0.383-0.527-0.767-0.635-1.153
			c-0.108,0.413-0.325,0.83-0.65,1.25c-0.326,0.42-0.678,0.739-1.057,0.956l-0.722-0.803c0.603-0.386,1.053-0.842,1.352-1.367
			c0.298-0.525,0.464-1.188,0.498-1.987h-1.484v-0.945h4.076v0.945h-1.423C127.21,154.532,127.762,155.569,128.799,156.172z
			 M127.752,151.517h-2.368v-0.936h2.368V151.517z M130.303,158.489h-1.118v-3.903h-1.118v-0.955h1.118v-3.609h1.118V158.489z
			 M132.052,158.906h-1.128v-9.057h1.128V158.906z"/>
	</g>
</g>
<g>
	<g>
		<path fill="#ED9282" d="M122.546,105.602c-0.057,0.046-0.132,0.052-0.206,0.052c-0.717-0.011-1.33-0.459-1.972-0.774
			c-0.831-0.407-2.374-0.493-2.253,0.831c0.097,1.066,1.095,2.402,1.496,3.406c0.413,1.032,0.912,2.047,1.279,3.096
			c-0.149-0.115-0.304-0.229-0.47-0.35c-2.425-1.795-6.146-4.317-10.349-6.341c-1.336-0.642-2.741-1.273-4.174-1.846
			c2.362-0.464,8.795-5.802,9.781-7.723c0.378,0.711,1.072,1.301,1.668,1.766c0.246,0.195,0.413,0.453,0.533,0.745
			c0.195,0.464,0.275,1.009,0.436,1.456c0.304,0.883,0.711,1.588,1.256,2.351c0.74,1.026,1.806,2.052,2.798,2.826
			C122.529,105.223,122.701,105.47,122.546,105.602z"/>
		<path fill="#F9CBA6" d="M170.121,71.231l-0.195-0.201v-0.35c-4.151-11.524-8.692-17.412-13.49-17.486l-2.488-0.04
			c0,0,0.894-2.133,0.017-4.673c-1.032-3.01-7.39-7.115-18.346-12.957c-0.808-0.43-1.663-0.912-2.568-1.428
			c-3.962-2.242-8.881-5.028-13.118-5.028c-1.278,0-2.402,0.247-3.434,0.757l-0.694,0.344h-0.178c-0.35,0-0.413-0.075-0.986-0.74
			c-0.281-0.321-0.797-0.917-0.894-1.015c-0.338-0.298-0.774-0.591-1.324-0.883c-2.047-1.101-4.323-1.364-6.731-1.645
			c-0.436-0.052-0.871-0.103-1.301-0.155c-3.159-0.407-6.375-0.688-9.552-0.831c-1.737-0.08-3.497-0.126-5.212-0.126
			c-1.531,0-3.079,0.034-4.592,0.097c-0.671,0.029-1.439,0.034-2.253,0.04c-4.18,0.04-10.463,0.092-12.241,3.102l-0.808,1.376
			l-0.665-0.447c-0.631-0.424-1.158-0.78-1.789-1.009c-0.699-0.252-1.491-0.378-2.351-0.378c-1.789,0-3.698,0.545-5.326,1.072
			c-2.116,0.682-4.093,1.537-6.456,2.586c-0.803,0.35-1.56,0.688-2.225,0.957c-6.633,2.729-12.911,6.209-18.656,10.349
			c-0.424,0.31-0.883,0.619-1.29,0.894c-2.356,1.6-4.581,3.113-4.724,5.607l-0.109,1.972l-1.875-0.631
			c-0.143-0.052-0.281-0.075-0.43-0.075c-1.548,0-3.48,2.351-5.171,4.552c-0.356,0.47-0.694,0.912-0.998,1.273
			c-0.361,0.43-0.785,0.912-1.244,1.439c-1.691,1.938-3.377,3.899-4.816,6.037c-1.032,1.536-2.007,3.205-2.454,5.017
			c-0.304,1.221-0.138,2.293,0.252,3.365c0.149,0.407,0.327,0.808,0.527,1.216c-0.826,0.246-1.645,0.539-2.454,0.826
			c-1.382,0.487-2.104,1.319-2.763,2.586L4.545,76.93c-0.814,1.548-1.502,3.314-2.041,5.246c-1.29,4.598-1.777,9.529-2.242,14.299
			l-0.023,0.247c-0.505,5.114-0.212,9.804,0.894,14.322c0.189,0.768,0.407,1.531,0.654,2.259c0.78,2.322,1.663,4.948,3.331,6.805
			c2.534,2.821,6.553,4.248,11.954,4.248c3.05,0,6.095-0.499,9.036-0.986c0.894-0.143,1.823-0.298,2.741-0.436
			c1.582-0.39,3.251-0.585,4.862-0.774c0.786-0.092,1.594-0.184,2.362-0.298c0.504-0.074,1.009-0.143,1.514-0.206
			c1.754-0.218,3.56-0.447,5.131-1.158c1.055-0.482,1.708-1.049,1.938-1.697l0.613-1.726l1.577,0.94
			c0.293,0.178,0.579,0.333,0.86,0.47c0.321,0.149,0.625,0.281,0.929,0.39c1.37,0.499,2.838,0.722,4.764,0.722
			c0.883,0,1.76-0.04,2.695-0.092l0.676-0.029c1.324-0.063,2.66-0.097,3.979-0.097c3.681,0,7.413,0.252,11.088,0.74
			c0.063,0.006,0.12,0.017,0.184,0.023c3.692,0.499,7.602,1.204,11.61,2.104c2.018,0.453,4.053,1.009,6.026,1.548
			c2.677,0.734,6.008,1.645,9.242,2.173c1.359,0.218,2.729,0.373,4.099,0.459c0.625,0.04,1.256,0.069,1.881,0.08
			c1.284,0.029,2.798,0.029,3.876-0.78c0.459-0.344,0.774-0.831,0.935-1.382c2.379,2.219,6.914,3.818,9.941,3.818
			c2.282,0,4.587-0.424,6.49-1.187c3.251-1.307,5.739-3.033,7.402-5.126c3.669-4.621,4.621-11.644,2.483-18.335
			c0,0-0.694-2.144-0.98-3.067c3.205,1.347,7.608,2.322,10.945,2.322c7.533,0,16.007-1.187,19.086-5.659
			c1.095-1.588,2.15-3.899,1.473-6.387l-0.608-1.588l1.651-0.407c1.433-0.355,2.511-1.192,3.211-2.5
			C172.678,82.697,171.818,76.15,170.121,71.231z M115.678,95.953c0.378,0.711,1.072,1.301,1.668,1.766
			c0.246,0.195,0.413,0.453,0.533,0.745c0.195,0.464,0.275,1.009,0.436,1.456c0.304,0.883,0.711,1.588,1.256,2.351
			c0.74,1.026,1.806,2.052,2.798,2.826c0.161,0.126,0.333,0.373,0.178,0.505c-0.057,0.046-0.132,0.052-0.206,0.052
			c-0.717-0.011-1.33-0.459-1.972-0.774c-0.831-0.407-2.374-0.493-2.253,0.831c0.097,1.066,1.095,2.402,1.496,3.406
			c0.413,1.032,0.912,2.047,1.279,3.096c-0.149-0.115-0.304-0.229-0.47-0.35c-2.425-1.795-6.146-4.317-10.349-6.341
			c-1.336-0.642-2.741-1.273-4.174-1.846C108.259,103.211,114.692,97.873,115.678,95.953z"/>
	</g>
	<path fill="#ED9282" d="M63.72,99.454c-1.369-3.347-1.943-6.941-1.36-10.574c0.199-1.25,0.499-2.442,0.883-3.581l-0.009-0.004
		c-0.048,0.155-0.106,0.305-0.168,0.455c-0.229,0.556-0.543,1.077-0.967,1.545c-0.132,0.146-0.274,0.283-0.42,0.411
		c-3.51,3.144-10.517,1.673-11.86-3.095c-2.644-9.387,13.692-17.935,20.196-21.025c11.321-5.369,24.54-7.502,37.115-5.691
		c10.398,1.492,24.324,6.177,26.553,18.08c0.455,2.433,0.049,5.051-1.325,7.131c-1.665,2.517-3.952,3.175-6.738,3.718
		c-1.722,0.335-3.559,1.033-4.769,2.358c-0.662,0.724-1.161,1.581-1.519,2.495c-0.737,1.885-0.879,4.018-0.459,5.992
		c0.057,0.265,0.128,0.53,0.212,0.786c13.06,0.203,25.869-9.784,22.893-25.834c-2.998-16.195-26.893-26.933-51.296-25.189
		c-25.194,1.797-47.16,15.215-48.876,29.966C39.666,95.824,54.125,105.534,63.72,99.454z"/>
	<g>
		<path fill="#ED9282" d="M45.699,150.316c4.234,0,8.182-1.86,11.416-5.379c5.197-5.656,8.074-14.998,7.328-23.799
			c-0.572-6.794-3.255-12.355-7.556-15.659c-2.075-1.594-4.333-2.368-6.903-2.368c-3.9,0-8.449,1.822-13.904,5.57l-0.387,0.268
			c-2.603,1.815-5.396,2.903-8.097,3.956c-1.141,0.445-2.32,0.904-3.486,1.418c-4.129,1.819-8.078,3.657-10.998,6.136
			c-1.464,1.244-2.54,2.794-3.029,4.366l-0.059,0.194l-0.073,0.276L9.94,125.34c-0.014,0.052-0.025,0.104-0.034,0.154
			c-0.063,0.306-0.103,0.58-0.123,0.849c-0.171,2.129,1.161,4.244,4.192,6.659c1.651,1.315,3.575,2.526,5.272,3.593
			c1.339,0.842,2.599,1.635,3.577,2.382l0.375,0.286c1.572,1.201,3.191,2.438,4.806,3.591c3.471,2.482,6.243,4.126,8.988,5.331
			c1.761,0.774,3.438,1.336,5.129,1.717C43.332,150.177,44.536,150.316,45.699,150.316z"/>
	</g>
	<path fill="#CD4C5C" d="M125.166,107.356c-0.522,0.636-2.276,0.401-2.941,0.143c-0.287-0.109-1.995-0.676-2.081-0.894
		c0.074,0.195,0.155,0.39,0.235,0.579c0.877,2.167,1.783,4.409,2.419,6.685c0.011,0.04,0.017,0.075,0.023,0.115
		c0.029,0.241-0.08,0.487-0.292,0.625c-0.098,0.057-0.195,0.092-0.304,0.103c-0.172,0.017-0.344-0.034-0.482-0.143
		c-0.052-0.046-0.103-0.086-0.155-0.126c-0.642-0.516-1.296-1.021-1.955-1.514c-1.984-1.479-4.053-2.838-6.198-4.065
		c-2.758-1.577-5.831-3.446-9.07-3.709c-2.081-0.172-5.825-0.654-7.459,1.078c-1.267,1.336-2.052,2.97-3.062,4.518
		c-0.527,0.826-1.124,1.622-1.892,2.345c-0.957,1.152-0.011,2.666,1.359,3.073c1.743,0.218,3.463,0.161,4.959,0.843
		c0.579,0.264,1.129,0.642,1.634,1.193c2.265,2.356,3.062,5.28,3.09,8.221c0.006,0.356,0,0.711-0.017,1.066l-0.017,0.264
		c0,0.029,0,0.052-0.006,0.08c-0.069,0.911-0.556,2.517-0.722,3.044c-0.441,1.445-0.849,2.356-1.279,3.32
		c-0.229,0.505-0.464,1.026-0.711,1.64c-0.161,0.401-0.298,0.728-0.43,1.032l-0.017,0.04c-0.086,0.195-0.166,0.378-0.246,0.55
		c-0.103,0.218-0.206,0.43-0.304,0.636c-0.075,0.155-0.149,0.31-0.229,0.459c-0.08,0.161-0.16,0.309-0.246,0.464l-0.011,0.023
		l-0.006,0.017c-0.006,0.017-0.023,0.029-0.023,0.046l-0.029,0.052l-0.052,0.086c-0.052,0.086-0.097,0.183-0.149,0.269l-0.029,0.046
		c-0.017,0.04-0.04,0.074-0.063,0.109c0,0-0.006,0.011-0.011,0.023c-0.063,0.109-0.126,0.218-0.195,0.327
		c-0.074,0.132-0.143,0.246-0.218,0.361c-0.103,0.166-0.212,0.327-0.315,0.487c-0.178,0.264-0.344,0.504-0.516,0.734
		c-0.086,0.12-0.172,0.235-0.264,0.35c-0.092,0.126-0.195,0.241-0.292,0.367c-0.052,0.063-0.109,0.132-0.161,0.201
		c-0.063,0.074-0.126,0.143-0.195,0.224c-0.057,0.063-0.109,0.126-0.166,0.189l-0.011,0.011c-0.097,0.109-0.189,0.212-0.287,0.31
		c-0.092,0.097-0.184,0.195-0.275,0.287c-0.023,0.017-0.046,0.04-0.069,0.063c-0.097,0.097-0.201,0.195-0.298,0.287l-0.092,0.092
		c-0.097,0.086-0.189,0.172-0.287,0.246c-0.275,0.247-0.562,0.476-0.866,0.699c-0.115,0.086-0.229,0.166-0.35,0.246l-0.017,0.017
		c-0.011,0.006-0.023,0.011-0.034,0.017l-0.057,0.04c-0.115,0.075-0.229,0.155-0.384,0.246c0,0-0.063,0.04-0.063,0.046l-0.052,0.029
		c-0.063,0.04-0.132,0.08-0.201,0.12c-0.321,0.189-0.631,0.355-0.969,0.516c-0.103,0.046-0.212,0.098-0.321,0.149
		c-0.82,0.281-1.72,0.436-2.603,0.436c-0.957,0-1.869-0.178-2.643-0.527c-0.115-0.052-0.659-0.355-0.797-0.441l-2.379-1.468
		l1.462,2.379c1.118,1.817,2.242,4.294,2.591,6.37c0.441,2.626-0.436,5.326-2.746,8.491c-6.444,7.47-13.255,23.294-14.964,32.261
		H57.531c0.568-4.879,2.396-16.781,3.193-20.256c0.739-3.245,1.428-6.501,2.052-9.764c0.184-0.705,0.367-1.41,0.556-2.121
		c0.436-1.657,0.866-3.325,1.29-4.994c0.699-2.735,1.313-5.452,1.869-8.17c1.628-7.895,2.821-15.789,4.438-23.873
		c0.218-1.032,0.453-2.058,0.705-3.067c0.12-0.493,0.252-0.98,0.384-1.468c0.705-2.58,1.565-5.103,2.729-7.585
		c0.436-0.929,0.912-1.852,1.433-2.769c0.757-1.284,1.72-2.351,2.798-3.279c1.536-1.336,3.32-2.379,5.108-3.331
		c3.91-1.663,8.227-2.351,12.458-1.961c3.125,0.287,6.318,1.25,9.351,2.46c1.433,0.573,2.838,1.204,4.174,1.846
		c4.203,2.024,7.923,4.546,10.349,6.341c0.166,0.12,0.321,0.235,0.47,0.35c-0.367-1.049-0.866-2.064-1.279-3.096
		c-0.401-1.003-1.399-2.339-1.496-3.406c-0.12-1.324,1.422-1.238,2.253-0.831c0.642,0.315,1.256,0.762,1.972,0.774
		c0.074,0,0.149-0.006,0.206-0.052c0.155-0.132-0.017-0.378-0.178-0.505c-0.992-0.774-2.058-1.8-2.798-2.826
		c-0.545-0.763-0.952-1.468-1.256-2.351c-0.161-0.447-0.241-0.992-0.436-1.456c-0.12-0.292-0.287-0.55-0.533-0.745
		c-0.596-0.464-1.29-1.055-1.668-1.766c-0.172-0.333-0.275-0.694-0.269-1.078c0.034-1.25,1.261-2.311,2.253-2.884
		c0.894-0.51,0.923-1.955,1.41-2.769c0.694-1.152,1.886-2.064,3.113-2.591l-1.33,2.551c-0.665,0.722-1.164,1.577-1.519,2.494
		c-0.74,1.886-0.877,4.019-0.459,5.991c0.057,0.264,0.126,0.527,0.212,0.785c0.35,1.101,0.911,2.138,1.577,3.073
		c0.659,0.912,1.536,1.548,2.374,2.276C123.699,104.381,126.015,106.33,125.166,107.356z"/>
	<path fill="#CD4C5C" d="M100.905,108.046c1.614,0.073,2.978,1.451,3.071,3.101c0.069,1.222-0.735,2.442-1.96,2.708
		c-1.424,0.31-2.748-0.86-3.435-1.991c-0.439-0.723-0.663-1.697-0.221-2.467c0.394-0.685,1.112-1.172,1.888-1.309
		C100.47,108.05,100.69,108.036,100.905,108.046z"/>
	<g>
		
			<ellipse transform="matrix(0.9956 -0.094 0.094 0.9956 -7.6715 8.8367)" fill="#CD4C5C" cx="89.932" cy="85.821" rx="14.728" ry="9.618"/>
	</g>
	<g>
		<g>
			<path fill="#EF9A84" d="M163.918,81.483c-7.766-4.515-3.143-13.175-9.022-17.063c3.504,1.044,4.391,5.323,4.828,8.444
				C160.134,76.173,161.487,79.155,163.918,81.483L163.918,81.483z"/>
		</g>
		<g>
			<path fill="#EF9A84" d="M144.046,87.034c7.96-25.891-8.378-23.093-6.614-33.616c0.901-2.91,4.056-4.14,6.661-4.971
				c-2.428,1.116-5.282,2.395-6.032,5.146c-0.896,4.993,4.354,7.371,6.704,11.439C148.775,71.868,146.94,80.199,144.046,87.034
				L144.046,87.034z"/>
		</g>
		<g>
			<path fill="#EF9A84" d="M137.403,55.617c-3.694-3.728-10.54-3.961-12.779-9.325c-1.266-3.129,0.203-6.467-0.488-9.634
				c0.867,2.008,0.595,4.288,0.675,6.344c-0.073,7.496,9.083,7.591,13.161,12.085C137.972,55.087,137.403,55.617,137.403,55.617
				L137.403,55.617z"/>
		</g>
		<g>
			<path fill="#EF9A84" d="M115.302,30.208c-0.791,3.518-1.013,6.731-0.732,10.326C112.846,37.375,113.155,33.093,115.302,30.208
				L115.302,30.208z"/>
		</g>
		<g>
			<path fill="#EF9A84" d="M154.469,53.125c-2.026,2.038-4.433,3.487-7.189,4.306C149.303,55.389,151.716,53.95,154.469,53.125
				L154.469,53.125z"/>
		</g>
		<g>
			<path fill="#EF9A84" d="M125.126,45.076c-1.59,4.447-7.539,2.004-10.7,1.06c-3.518-1.075-7.169-1.736-10.836-2.261
				c-1.837-0.254-3.682-0.464-5.532-0.656c-3.689-0.296-7.858-0.733-10.641-3.456c-1.392-1.31-2.391-3.094-2.522-4.973
				c2.209,8.265,12.161,6.979,18.838,7.993c3.718,0.45,7.425,1.13,11.04,2.233c2.566,0.752,5.211,1.944,7.822,1.321
				c0.774-0.221,1.314-0.77,1.537-1.548L125.126,45.076L125.126,45.076z"/>
		</g>
		<g>
			<path fill="#EF9A84" d="M69.741,29.298c-0.704,3.776,4.825,6.078,3.313,9.916C73.028,35.628,67.479,33.056,69.741,29.298
				L69.741,29.298z"/>
		</g>
		<g>
			<path fill="#EF9A84" d="M31.229,91.245c5.326,3.122,6.322,12.827,0,15.385C36.253,102.925,35.147,95.365,31.229,91.245
				L31.229,91.245z"/>
		</g>
		<g>
			<path fill="#EF9A84" d="M75.209,45.019c-2.294-0.13-4.126,1.266-5.982,2.424c-1.85,1.242-4.143,2.163-6.521,2.032
				c-3.733-0.112-6.76-3.291-6.298-7.064c0.079-1.127,0.223-2.216,0.254-3.333c0.203,1.102,0.159,2.236,0.252,3.329
				c-0.114,3.309,2.605,5.957,5.85,6.036c2.103,0.132,4.151-0.626,6.067-1.685C70.74,45.753,72.961,44.427,75.209,45.019
				L75.209,45.019z"/>
		</g>
		<g>
			<path fill="#EF9A84" d="M60.044,48.524c-6.401,2.47-12.775-1.258-19.073-2.093c6.173,0.449,12.612,3.808,18.667,1.142
				C59.638,47.574,60.044,48.524,60.044,48.524L60.044,48.524z"/>
		</g>
		<g>
			<path fill="#EF9A84" d="M26.115,50.777c0.687,1.972,2.032,3.407,3.94,4.194c0.907,0.436,1.927,0.808,2.811,1.512
				c0.859,0.661,1.609,1.708,1.527,2.807c-0.819-2.073-2.905-2.528-4.772-3.382C27.628,55.108,25.936,52.996,26.115,50.777
				L26.115,50.777z"/>
		</g>
		<g>
			<path fill="#EF9A84" d="M9.852,73.235c5.995-0.599,9.591,6.104,8.48,11.386c-0.212,2.451-2.241,5.043-0.724,7.281
				c1.573,2.147,4.623,1.981,7.05,1.779c-3.053,0.981-8.016,0.721-8.513-3.321c-0.165-2.067,0.966-3.96,1.167-5.897
				C18.322,79.468,15.431,73.502,9.852,73.235L9.852,73.235z"/>
		</g>
		<g>
			<path fill="#EF9A84" d="M17.109,90.395c0.07,4.922-7.47,4.206-7.465,8.892c-0.575-4.447,6.644-4.615,6.434-8.832
				C16.078,90.455,17.109,90.395,17.109,90.395L17.109,90.395z"/>
		</g>
		<g>
			<path fill="#EF9A84" d="M3.582,117.801c2.408,3.039,7.25,2.604,8.726-1.087c0.772-1.607,1.025-3.597,2.182-5.294
				c1.13-1.701,3.115-2.407,4.969-2.918c-1.674,0.876-3.428,1.79-4.289,3.352c-1.303,2.32-1.31,5.934-3.816,7.696
				C8.922,121.55,4.87,120.516,3.582,117.801L3.582,117.801z"/>
		</g>
		<g>
			<path fill="#EF9A84" d="M48.423,62.709c-2.734,1.032-6.257,0.279-7.94-2.279c-1.869-2.397-1.331-5.517-2.708-8.065
				c1.035,1.012,1.476,2.493,1.873,3.813C40.698,60.573,43.868,63.039,48.423,62.709L48.423,62.709z"/>
		</g>
		<g>
			<path fill="#EF9A84" d="M41.758,61.775c-2.126-1.553-5.493-0.086-7.723,0.913c-5.892,2.901-9.262,6.933-6.23,13.551
				c1.146,2.54,3.325,5.182,2.505,8.138c0.385-1.429-0.033-2.911-0.655-4.197c-2.112-3.74-4.735-8.068-2.609-12.419
				c2.391-3.78,6.553-6.202,10.796-7.368c1.529-0.325,3.274-0.483,4.61,0.617c0.218,0.185,0.244,0.511,0.06,0.728
				C42.319,61.964,41.972,61.981,41.758,61.775L41.758,61.775z"/>
		</g>
		<g>
			<path fill="#EF9A84" d="M109.651,124.556c-2.025-2.513-1.656-6.591,0.456-8.939C109.363,118.695,109.042,121.426,109.651,124.556
				L109.651,124.556z"/>
		</g>
	</g>
	<path fill="#CD4C5C" d="M31.864,125.64c3.109-0.058,6.218-0.052,9.327-0.022c-0.784-0.385-1.518-0.861-2.193-1.401
		c-1.634-1.315-2.96-2.952-4.057-4.711c-0.047-0.076-0.025-0.177,0.05-0.226c0.077-0.05,0.179-0.029,0.231,0.05
		c1.118,1.703,2.463,3.279,4.072,4.509c0.804,0.612,1.676,1.132,2.604,1.501c0.29,0.116,0.586,0.21,0.885,0.293
		c0.978,0.012,1.955,0.025,2.933,0.039l6.919,0.142c0.744,0.014,1.488,0.025,2.231,0.043c-0.282-0.243-0.555-0.492-0.812-0.75
		c-1.396-1.419-2.495-2.998-3.546-4.579c-0.288-0.445-0.57-0.891-0.851-1.338c-0.336-0.265-0.703-0.502-1.087-0.712
		c-0.706-0.386-1.469-0.684-2.25-0.926c-0.782-0.241-1.585-0.424-2.397-0.545c-0.812-0.118-1.638-0.182-2.454-0.121
		c-0.087,0.006-0.165-0.056-0.176-0.144c-0.012-0.091,0.052-0.174,0.143-0.185c0.849-0.109,1.7-0.086,2.542-0.009
		c0.843,0.081,1.679,0.225,2.503,0.432c0.781,0.199,1.554,0.453,2.297,0.798c-1.414-2.284-2.81-4.554-4.451-6.669
		c-0.051-0.065-0.046-0.161,0.014-0.22c0.065-0.064,0.17-0.064,0.235,0.001c1.334,1.347,2.525,2.83,3.677,4.328
		c0.125,0.166,0.247,0.333,0.372,0.5c-0.04-0.273-0.071-0.547-0.086-0.821c-0.11-1.784,0.167-3.55,0.699-5.218
		c0.025-0.079,0.107-0.129,0.19-0.112c0.09,0.018,0.148,0.105,0.13,0.198c-0.165,0.843-0.303,1.689-0.356,2.54
		c-0.068,0.848-0.07,1.7,0.023,2.536c0.098,0.834,0.264,1.657,0.567,2.425c0.006,0.015,0.012,0.029,0.017,0.044
		c0.604,0.816,1.207,1.63,1.821,2.427c1.126,1.48,2.29,2.934,3.617,4.118c0.662,0.588,1.367,1.1,2.106,1.464
		c1.093,0.539,2.346,0.493,3.54,0.432c1.225-0.062,2.459-0.213,3.627-0.605c0.519-0.175,1.023-0.398,1.494-0.678
		c1.679-0.999,2.423-2.755,2.472-4.658c0.101-3.784-2.685-5.276-2.689-9.179c-0.005-2.578,0.636-4.04,1.272-5.307
		c1.033,1.386,2.19,2.693,3.43,3.894c0.238,0.23,0.481,0.455,0.724,0.676c0.048,0.044,0.093,0.084,0.141,0.128
		c0.018,2.208-0.031,4.596-0.269,6.773c-0.398,3.634-1.201,7.166-4.787,8.941c-0.397,0.194-0.812,0.358-1.236,0.486
		c-0.512,0.159-1.038,0.27-1.567,0.355c-0.379,0.061-0.956,0.155-1.076,0.504c-0.07,0.204-0.021,0.439,0.103,0.616
		c0.157,0.225,0.36,0.342,0.568,0.511c0.255,0.207,0.496,0.431,0.722,0.67c0.442,0.469,0.822,0.993,1.145,1.55
		c1.311,2.261,1.726,4.919,1.854,7.493c0.141,2.936,0.022,5.886-0.181,8.822c-0.04,0.605-0.088,1.21-0.145,1.806
		c-0.557,2.72-1.17,5.44-1.868,8.173c-0.428,1.669-0.857,3.338-1.294,4.994c0.362-2.588,0.737-5.175,1.046-7.771
		c0.64-5.378,1.059-10.795,0.861-16.213c-0.093-2.565-0.349-5.594-2.172-7.585c-0.752-0.821-1.739-1.677-2.828-1.979
		c-1.006-0.28-2.019-0.251-2.982,0.153c-0.764,0.322-1.502,0.794-2.2,1.345c-1.4,1.109-2.65,2.495-3.861,3.911
		c-0.63,0.74-1.249,1.495-1.87,2.253c-0.024,0.052-0.051,0.101-0.074,0.153c-0.337,0.759-0.553,1.576-0.674,2.41
		c-0.119,0.834-0.172,1.685-0.141,2.537c0.027,0.852,0.112,1.705,0.244,2.554c0.013,0.083-0.039,0.167-0.122,0.188
		c-0.089,0.023-0.179-0.031-0.202-0.119c-0.217-0.848-0.368-1.716-0.438-2.594c-0.064-0.877-0.072-1.767,0.046-2.649
		c0.047-0.356,0.115-0.711,0.197-1.063c-1.388,1.681-2.813,3.342-4.397,4.854c-0.063,0.059-0.162,0.061-0.226,0.003
		c-0.067-0.062-0.072-0.166-0.01-0.234c1.838-2.042,3.401-4.292,4.981-6.554c-0.028,0.012-0.056,0.027-0.085,0.039
		c-0.793,0.336-1.617,0.565-2.448,0.736c-0.831,0.168-1.672,0.274-2.517,0.315c-0.844,0.038-1.694,0.022-2.537-0.127
		c-0.087-0.016-0.147-0.097-0.135-0.185c0.012-0.091,0.095-0.154,0.191-0.141c0.806,0.108,1.634,0.091,2.452,0.02
		c0.819-0.074,1.632-0.21,2.428-0.406c0.795-0.197,1.576-0.451,2.306-0.797c0.439-0.208,0.859-0.453,1.244-0.734
		c0.282-0.399,0.566-0.797,0.855-1.194c1.121-1.529,2.287-3.054,3.742-4.403c0.32-0.294,0.659-0.575,1.014-0.843
		c-0.819-0.045-1.637-0.103-2.455-0.157l-6.905-0.468l-2.429-0.175c-0.413,0.085-0.824,0.196-1.228,0.334
		c-0.912,0.312-1.789,0.746-2.631,1.237c-0.842,0.494-1.648,1.054-2.408,1.671c-0.756,0.619-1.476,1.293-2.078,2.06
		c-0.055,0.069-0.155,0.084-0.227,0.031c-0.074-0.054-0.091-0.157-0.037-0.231c0.595-0.82,1.306-1.535,2.057-2.198
		c0.754-0.661,1.557-1.264,2.405-1.806c0.735-0.467,1.505-0.887,2.316-1.231l-9.543-0.688c-0.085-0.006-0.153-0.076-0.154-0.162
		C31.699,125.718,31.772,125.642,31.864,125.64z"/>
	<circle fill="#9D2D45" cx="123.255" cy="115.407" r="2.413"/>
	<g>
		<path fill="#E77071" d="M56.434,93.026c0.363,7.772,5.26,14.621,11.413,19.056c5.753,4.147,19.695,8.004,28.654,5.654
			c0.681-0.179,1.267-0.477,1.766-0.808c2.274-1.515,2.517-4.142-1.025-5.449c-3.977-1.468-11.316-0.206-18.306-2.533
			c-3.92-1.305-7.774-3.115-10.742-6.054c-5.047-4.997-7.006-12.985-3.497-19.409c6.77-12.392,31.214-15.219,40.468-3.787
			c0.35,0.433,0.679,0.885,0.984,1.351c0.367,0.561,0.959,2.375,1.691,2.534c1.448,0.313,0.199-2.941,0.04-3.382
			c-2.287-6.256-11.517-10.009-18.18-10.914c-8.32-1.13-17.401,0.501-24.259,5.527C59.519,79.155,56.104,85.97,56.434,93.026z"/>
	</g>
	<path fill="#CD4C5C" d="M70.016,63.584c11.32-5.369,24.54-7.502,37.115-5.691c10.397,1.492,24.324,6.177,26.553,18.08
		c0.455,2.433,0.049,5.051-1.325,7.131c-1.664,2.517-3.951,3.175-6.738,3.718c-1.722,0.335-3.559,1.033-4.769,2.358l1.33-2.548
		c1.611-0.693,3.439-0.905,4.671-2.278c3.43-3.828,0.794-8.972-2.389-12.063c-1.859-1.806-4.08-3.201-6.429-4.27
		c-13.979-6.367-29.761-3.158-42.244,4.185c-2.501,1.471-5.875,3.525-7.931,6.315c-2.981,4.046-4.321,11.123-11.124,10.965
		c-2.979-0.069-6.068-1.859-6.917-4.878C47.176,75.223,63.512,66.675,70.016,63.584z"/>
	<path fill="#F9CBA6" d="M115.678,95.953c-0.986,1.921-7.419,7.258-9.781,7.723L115.678,95.953z"/>
</g>
<g>
	<g>
		<path fill="none" stroke="#010100" stroke-width="0.5733" stroke-linecap="round" stroke-miterlimit="10" d="M125.142,118.301
			c23.071,26.641,66.279,41.726,106.329,26.177"/>
		<g>
			<polygon fill="#010100" points="231.165,145.887 234.856,143.087 230.259,143.666 			"/>
		</g>
	</g>
</g>
<g>
	<path fill="none" d="M126.626,113.578c21.459,29.201,65.084,48.316,107.352,33.863"/>
	<path fill="#010100" d="M168.473,156.05l-7.596-3.042l0.313-0.783l3.303,1.323l0.377-0.944c-0.638-0.321-1.094-0.688-1.37-1.102
		c-0.276-0.413-0.332-0.824-0.168-1.233c0.183-0.459,0.57-0.73,1.157-0.812s1.282,0.037,2.08,0.357
		c0.8,0.319,1.384,0.712,1.751,1.178c0.369,0.465,0.46,0.927,0.277,1.386c-0.167,0.415-0.497,0.675-0.991,0.78
		c-0.494,0.104-1.086,0.049-1.772-0.168l-0.377,0.943l3.331,1.334L168.473,156.05z M170.031,150.794l-6.652-2.664l0.313-0.783
		l6.653,2.664L170.031,150.794z M166.91,152.364c0.371-0.008,0.606-0.135,0.705-0.38c0.099-0.245,0.017-0.497-0.246-0.755
		c-0.261-0.258-0.627-0.481-1.099-0.67c-0.471-0.189-0.892-0.28-1.259-0.274c-0.367,0.006-0.601,0.132-0.699,0.377
		c-0.097,0.246-0.016,0.5,0.248,0.761c0.264,0.263,0.628,0.488,1.095,0.674C166.12,152.283,166.539,152.372,166.91,152.364z
		 M165.735,147.551l0.31-0.774l2.981,1.194l-0.311,0.774L165.735,147.551z"/>
	<path fill="#010100" d="M178.108,158.913l-7.843-2.334l0.239-0.799l7.843,2.335L178.108,158.913z M177.992,156.524l-6.08-1.809
		l0.831-2.787l4.831,1.439l0.343-1.15l-4.832-1.438l0.237-0.799l5.827,1.734l-0.815,2.738l-4.823-1.436l-0.356,1.198l5.076,1.511
		L177.992,156.524z"/>
	<path fill="#010100" d="M187.747,156.605l-2.453-0.485l-0.2,1.017l3.519,0.697l-0.164,0.828l-8.026-1.59l0.164-0.828l3.49,0.691
		l0.202-1.018l-2.423-0.48l0.646-3.26l5.892,1.167L187.747,156.605z M186.878,161.676l-6.062-1.201l0.502-2.532l1.027,0.203
		l-0.34,1.715l5.035,0.998L186.878,161.676z M186.884,155.574l0.321-1.615l-3.84-0.76l-0.319,1.615L186.884,155.574z"/>
</g>
<g>
	<g>
		<path fill="none" stroke="#010100" stroke-width="0.5733" stroke-linecap="round" stroke-miterlimit="10" d="M256.118,99.789
			c19.619,2.591,41.644-8.639,64.295-24.024"/>
		<g>
			<polygon fill="#010100" points="320.384,77.185 323.431,73.694 319.047,75.194 			"/>
		</g>
	</g>
</g>
<g>
	<g>
		<path fill="#010100" d="M341.175,106.691c-0.413-0.576-0.62-1.345-0.62-2.307s0.207-1.731,0.62-2.308
			c0.413-0.576,0.979-0.864,1.697-0.864c0.719,0,1.281,0.288,1.688,0.864c0.407,0.576,0.61,1.349,0.61,2.318
			c0,0.962-0.203,1.729-0.61,2.302c-0.406,0.573-0.969,0.859-1.688,0.859C342.155,107.555,341.588,107.267,341.175,106.691z
			 M343.824,106.086c0.24-0.417,0.36-0.984,0.36-1.703s-0.12-1.284-0.36-1.698c-0.241-0.413-0.558-0.62-0.951-0.62
			c-0.386,0-0.697,0.207-0.935,0.62c-0.237,0.414-0.355,0.979-0.355,1.698s0.118,1.286,0.355,1.703
			c0.237,0.417,0.549,0.625,0.935,0.625C343.266,106.711,343.582,106.503,343.824,106.086z M347.488,100.511v3.537h1.402v0.864
			h-1.402v4.656h-1.047v-9.057H347.488z"/>
		<path fill="#010100" d="M357.428,107.535v0.823h-8.183v-0.823H357.428z M356.473,105.481h-6.181v-4.157h6.089v0.823h-5.042v2.5
			h5.134V105.481z"/>
		<path fill="#010100" d="M362.134,106.315l0.132,0.823c-0.678,0.163-1.721,0.251-3.131,0.265h-0.762v-3.507h2.145v-1.565h-2.175
			v-0.823h3.222v3.212h-2.155v1.83C360.44,106.549,361.348,106.471,362.134,106.315z M363.882,109.13h-0.976v-4.421h-0.986v-0.854
			h0.986v-3.151h0.976V109.13z M365.671,109.568h-1.006v-9.057h1.006V109.568z"/>
		<path fill="#010100" d="M371.903,103.438l0.163,0.874c-0.929,0.224-2.236,0.349-3.924,0.376h-0.966v-3.71h1.026v2.826
			C369.606,103.804,370.839,103.682,371.903,103.438z M374.159,109.497h-6.119v-2.419h4.777v-0.762h-4.839v-0.833h5.876v2.389
			h-4.777v0.803h5.082V109.497z M375.186,103.154h-1.331v1.85h-1.037v-4.493h1.037v1.779h1.331V103.154z"/>
		<path fill="#010100" d="M380.939,104.831l0.132,0.813c-0.84,0.19-2.124,0.292-3.853,0.305h-1.138v-2.877h3.009v-1.098h-3.06
			v-0.844h4.106v2.745h-3.009v1.23c0.63,0,1.326-0.025,2.089-0.076C379.978,104.979,380.552,104.912,380.939,104.831z
			 M383.318,109.364h-6.241v-2.673h1.036v1.83h5.205V109.364z M383.074,107.077h-1.037v-6.566h1.037V107.077z"/>
	</g>
</g>
<g>
	<circle fill="#F8D47C" cx="361.664" cy="65.692" r="33.272"/>
	<g>
		
			<line fill="none" stroke="#010100" stroke-width="0.638" stroke-linecap="round" stroke-linejoin="round" stroke-miterlimit="10" x1="350.306" y1="48.264" x2="350.306" y2="56.981"/>
		<circle fill="#010100" cx="350.306" cy="48.264" r="2.179"/>
		
			<line fill="none" stroke="#010100" stroke-width="0.638" stroke-linecap="round" stroke-linejoin="round" stroke-miterlimit="10" x1="365.452" y1="83.121" x2="365.452" y2="74.404"/>
		<circle fill="#010100" cx="365.452" cy="83.121" r="2.179"/>
		
			<polygon fill="none" stroke="#010100" stroke-width="0.638" stroke-linecap="round" stroke-linejoin="round" stroke-miterlimit="10" points="
			357.892,61.327 350.342,56.968 342.793,61.327 342.793,70.044 350.342,74.403 357.892,70.044 		"/>
		
			<polyline fill="none" stroke="#010100" stroke-width="0.638" stroke-linecap="round" stroke-linejoin="round" stroke-miterlimit="10" points="
			373.001,70.045 365.452,74.404 357.903,70.045 		"/>
		
			<polyline fill="none" stroke="#010100" stroke-width="0.638" stroke-linecap="round" stroke-linejoin="round" stroke-miterlimit="10" points="
			388.085,70.045 380.536,74.404 372.986,70.045 		"/>
		
			<line fill="none" stroke="#010100" stroke-width="0.638" stroke-linecap="round" stroke-linejoin="round" stroke-miterlimit="10" x1="342.793" y1="61.327" x2="335.244" y2="56.968"/>
		<circle fill="#010100" cx="335.244" cy="56.968" r="2.179"/>
		<circle fill="#010100" cx="380.536" cy="74.404" r="2.179"/>
		<circle fill="#010100" cx="388.085" cy="70.045" r="2.179"/>
		
			<line fill="none" stroke="#010100" stroke-width="0.638" stroke-linecap="round" stroke-linejoin="round" stroke-miterlimit="10" x1="355.822" y1="69.386" x2="350.853" y2="72.255"/>
		
			<line fill="none" stroke="#010100" stroke-width="0.638" stroke-linecap="round" stroke-linejoin="round" stroke-miterlimit="10" x1="355.825" y1="61.852" x2="350.858" y2="58.98"/>
		
			<line fill="none" stroke="#010100" stroke-width="0.638" stroke-linecap="round" stroke-linejoin="round" stroke-miterlimit="10" x1="344.252" y1="68.44" x2="344.317" y2="62.703"/>
	</g>
</g>
<g>
	<g>
		<g>
			<path fill="#010100" d="M352.568,189.576h-8.183v-0.833h3.029v-2.094h1.047v2.094h4.106V189.576z M351.592,182.695
				c0,2.101-0.136,3.781-0.406,5.042l-1.007-0.102c0.136-0.596,0.23-1.267,0.285-2.013l-5.266,0.285l-0.132-0.823l5.448-0.264
				l0.02-1.301h-5.184v-0.823H351.592z"/>
			<path fill="#010100" d="M361.36,189.607h-8.183v-0.833h8.183V189.607z M360.567,187.35h-6.343v-2.907h5.042v-1.2h-5.042v-0.833
				h6.079v2.856h-5.032v1.25h5.296V187.35z"/>
			<path fill="#010100" d="M367.357,187.543l0.142,0.823c-0.928,0.19-2.276,0.292-4.045,0.305l-0.956,0.01v-6.149h4.147v0.823h-3.12
				v1.758h2.927v0.824h-2.927v1.88C365.212,187.818,366.489,187.726,367.357,187.543z M369.379,181.719v9.057h-1.047v-9.057H369.379
				z"/>
			<path fill="#010100" d="M378.945,186.405h-8.183v-0.823h3.558v-1.078h1.037v1.078h3.588V186.405z M378.578,184.26l-0.457,0.813
				c-0.678-0.115-1.335-0.359-1.972-0.732c-0.638-0.373-1.067-0.786-1.291-1.24c-0.21,0.467-0.624,0.881-1.24,1.24
				c-0.616,0.359-1.287,0.597-2.013,0.712l-0.447-0.803c0.827-0.082,1.562-0.335,2.206-0.762c0.644-0.427,0.966-0.945,0.966-1.555
				v-0.204h1.077v0.204c0,0.406,0.178,0.79,0.533,1.148c0.356,0.359,0.772,0.637,1.251,0.833
				C377.669,184.111,378.131,184.227,378.578,184.26z M378.202,190.715h-6.394v-2.206h5.012v-0.62h-5.042v-0.824h6.078v2.186h-5.001
				v0.64h5.347V190.715z"/>
		</g>
	</g>
	<g>
		<circle fill="#9AABD7" cx="361.664" cy="149.792" r="33.272"/>
		<g>
			
				<line fill="none" stroke="#010100" stroke-width="0.5853" stroke-linecap="round" stroke-linejoin="round" stroke-miterlimit="10" x1="340.353" y1="159.75" x2="334.921" y2="162.887"/>
			
				<line fill="none" stroke="#010100" stroke-width="0.5853" stroke-linecap="round" stroke-linejoin="round" stroke-miterlimit="10" x1="340.934" y1="160.746" x2="335.502" y2="163.882"/>
			
				<line fill="none" stroke="#010100" stroke-width="0.5853" stroke-linecap="round" stroke-linejoin="round" stroke-miterlimit="10" x1="349.739" y1="160.055" x2="346.164" y2="162.119"/>
			<circle fill="#010100" cx="334.921" cy="163.541" r="1.568"/>
			
				<line fill="none" stroke="#010100" stroke-width="0.5853" stroke-linecap="round" stroke-linejoin="round" stroke-miterlimit="10" x1="367.59" y1="144.723" x2="367.59" y2="139.071"/>
			
				<line fill="none" stroke="#010100" stroke-width="0.5853" stroke-linecap="round" stroke-linejoin="round" stroke-miterlimit="10" x1="351.265" y1="154.129" x2="351.265" y2="148.477"/>
			<circle fill="#010100" cx="385.4" cy="131.796" r="1.568"/>
			
				<polygon fill="none" stroke="#010100" stroke-width="0.5853" stroke-linecap="round" stroke-linejoin="round" stroke-miterlimit="10" points="
				351.265,160.401 345.833,163.538 340.4,160.401 340.4,154.129 345.833,150.992 351.265,154.129 			"/>
			
				<polygon fill="none" stroke="#010100" stroke-width="0.5853" stroke-linecap="round" stroke-linejoin="round" stroke-miterlimit="10" points="
				362.129,160.401 356.697,163.538 351.265,160.401 351.265,154.129 356.697,150.992 362.129,154.129 			"/>
			
				<polyline fill="none" stroke="#010100" stroke-width="0.5853" stroke-linecap="round" stroke-linejoin="round" stroke-miterlimit="10" points="
				385.4,131.796 382.264,137.228 375.991,137.228 			"/>
			
				<polygon fill="none" stroke="#010100" stroke-width="0.5853" stroke-linecap="round" stroke-linejoin="round" stroke-miterlimit="10" points="
				367.561,150.992 362.129,154.129 356.697,150.992 356.697,144.72 362.129,141.584 367.561,144.72 			"/>
			
				<line fill="none" stroke="#010100" stroke-width="0.5853" stroke-linecap="round" stroke-linejoin="round" stroke-miterlimit="10" x1="356.697" y1="144.723" x2="351.265" y2="141.587"/>
			<circle fill="#010100" cx="351.265" cy="141.587" r="1.568"/>
			
				<line fill="none" stroke="#010100" stroke-width="0.5853" stroke-linecap="round" stroke-linejoin="round" stroke-miterlimit="10" x1="375.744" y1="137.753" x2="371.028" y2="133.618"/>
			
				<line fill="none" stroke="#010100" stroke-width="0.5853" stroke-linecap="round" stroke-linejoin="round" stroke-miterlimit="10" x1="376.756" y1="137.191" x2="372.04" y2="133.055"/>
			<circle fill="#010100" cx="371.271" cy="133.093" r="1.568"/>
			
				<polygon fill="none" stroke="#010100" stroke-width="0.5954" stroke-linecap="round" stroke-linejoin="round" stroke-miterlimit="10" points="
				373.471,152.885 367.559,150.985 367.559,144.748 373.471,142.827 377.124,147.856 			"/>
			
				<line fill="none" stroke="#010100" stroke-width="0.5954" stroke-linecap="round" stroke-linejoin="round" stroke-miterlimit="10" x1="375.988" y1="137.228" x2="373.493" y2="142.831"/>
		</g>
	</g>
</g>
<g>
	<g>
		<path fill="none" stroke="#010100" stroke-width="0.5733" stroke-linecap="round" stroke-miterlimit="10" d="M113.71,104.504
			c1.19,1.701,3.792,4.234,6.478,7.295"/>
		<g>
			<polygon fill="#010100" points="118.736,111.949 122.529,114.609 120.575,110.408 			"/>
		</g>
	</g>
</g>
<g>
	<g>
		<path fill="none" stroke="#010100" stroke-width="0.5733" stroke-linecap="round" stroke-miterlimit="10" d="M115.942,101.919
			c28.971-7.943,73.414-17.451,122.744-4.524"/>
		<g>
			<polygon fill="#010100" points="237.585,98.413 242.218,98.357 238.179,96.089 			"/>
		</g>
	</g>
</g>
<g>
	<path fill="none" d="M115.942,101.919c29.661-8.132,75.539-17.905,126.276-3.561"/>
	<path fill="#010100" d="M163.704,89.566l-8.12,1.013l-0.104-0.837l1.896-0.236l-0.35-2.804l1.039-0.129l0.35,2.804l1.12-0.139
		l-0.35-2.804l1.039-0.129l0.35,2.804l3.026-0.377L163.704,89.566z M161.9,82.979c0.256,2.058,0.326,3.685,0.209,4.881l-1.007-0.028
		c0.119-0.854,0.07-2.149-0.146-3.884l-5.164,0.644l-0.104-0.837L161.9,82.979z"/>
	<path fill="#010100" d="M168.21,81.951c0.077,1.184-0.213,2.191-0.871,3.021c-0.658,0.83-1.587,1.455-2.789,1.874l-0.599-0.773
		c0.836-0.237,1.563-0.636,2.18-1.198c0.617-0.561,0.954-1.215,1.01-1.961l-2.997,0.265l-0.076-0.861L168.21,81.951z
		 M171.457,90.062l-5.771,0.51l-0.3-3.402l5.771-0.509L171.457,90.062z M170.342,89.334l-0.155-1.762l-3.686,0.325l0.156,1.762
		L170.342,89.334z M172.262,84.042l-1.326,0.117l0.182,2.055l-1.043,0.092l-0.447-5.062l1.043-0.092l0.189,2.137l1.326-0.117
		L172.262,84.042z"/>
	<path fill="#010100" d="M178.469,85.044l-0.567,0.863c-0.401-0.143-0.812-0.397-1.234-0.763c-0.422-0.365-0.739-0.753-0.949-1.164
		c-0.119,0.468-0.376,0.928-0.771,1.382s-0.817,0.787-1.268,1l-0.671-0.801c0.644-0.29,1.159-0.726,1.547-1.309
		c0.388-0.583,0.565-1.215,0.531-1.899l-0.049-0.975l1.066-0.054l0.047,0.934c0.034,0.677,0.282,1.27,0.746,1.779
		C177.36,84.548,177.884,84.883,178.469,85.044z M180.865,89.392l-6.152,0.308l-0.143-2.863l1.035-0.052l0.102,2.03l5.116-0.256
		L180.865,89.392z M180.55,87.168l-1.036,0.052l-0.329-6.558l1.036-0.052L180.55,87.168z"/>
	<path fill="#010100" d="M186.539,81.136c-0.049,1.18-0.418,2.165-1.108,2.955c-0.689,0.79-1.646,1.395-2.868,1.814l-0.578-0.838
		c0.878-0.219,1.63-0.595,2.255-1.126c0.625-0.532,1.008-1.174,1.149-1.928l-2.999,0.032l-0.009-0.864L186.539,81.136z
		 M189.515,87.732c0.006,0.549-0.264,0.987-0.81,1.314c-0.545,0.328-1.306,0.497-2.282,0.507c-0.962,0.01-1.716-0.143-2.262-0.459
		c-0.545-0.316-0.821-0.749-0.827-1.298c-0.006-0.562,0.259-1.007,0.794-1.334c0.536-0.328,1.288-0.497,2.257-0.507
		c0.976-0.01,1.74,0.145,2.292,0.464C189.23,86.739,189.509,87.177,189.515,87.732z M187.911,88.445
		c0.354-0.169,0.529-0.403,0.526-0.702c-0.003-0.298-0.183-0.53-0.541-0.696c-0.358-0.166-0.858-0.245-1.502-0.238
		c-0.624,0.006-1.112,0.096-1.466,0.27c-0.354,0.173-0.529,0.409-0.526,0.707c0.003,0.298,0.183,0.529,0.541,0.691
		s0.848,0.24,1.472,0.233C187.058,88.704,187.557,88.615,187.911,88.445z M189.424,85.853l-1.047,0.011l-0.012-1.159l-1.779,0.019
		l-0.009-0.844l1.779-0.019l-0.01-0.956l-1.657,0.018l-0.009-0.844l1.657-0.017l-0.017-1.586l1.047-0.011L189.424,85.853z"/>
</g>
<g>
	<g>
		<path fill="none" stroke="#010100" stroke-width="0.5733" stroke-linecap="round" stroke-miterlimit="10" d="M251.031,141.234
			c28.046,2.91,44.515,5.483,68.857,11.979"/>
		<g>
			<polygon fill="#010100" points="318.786,154.231 323.419,154.168 319.375,151.906 			"/>
		</g>
	</g>
</g>
<g>
	<g>
		<path fill="#010100" d="M74.269,88.661l-0.691,0.895c-0.386-0.237-0.778-0.6-1.174-1.088c-0.396-0.488-0.669-0.959-0.818-1.413
			c-0.149,0.515-0.431,1.028-0.844,1.54c-0.414,0.512-0.854,0.896-1.321,1.154l-0.722-0.874c1.498-0.969,2.246-2.362,2.246-4.178
			v-1.382h1.23v1.321C72.176,86.418,72.873,87.76,74.269,88.661z M76.14,91.609H74.95v-9.057h1.189V91.609z"/>
		<path fill="#010100" d="M82.767,86.506l-0.681,0.925c-0.379-0.143-0.766-0.385-1.159-0.727c-0.393-0.342-0.685-0.709-0.875-1.103
			c-0.128,0.44-0.398,0.855-0.808,1.245c-0.41,0.39-0.839,0.662-1.286,0.818l-0.722-0.945c0.671-0.237,1.205-0.613,1.601-1.128
			s0.595-1.108,0.595-1.779v-0.854h1.22v0.783c0,0.664,0.208,1.244,0.625,1.738C81.695,85.974,82.191,86.316,82.767,86.506z
			 M84.627,89.779c0,0.563-0.274,1.008-0.823,1.337s-1.311,0.493-2.287,0.493c-0.969,0-1.727-0.165-2.271-0.493
			c-0.546-0.329-0.818-0.774-0.818-1.337c0-0.569,0.272-1.018,0.818-1.347c0.545-0.329,1.302-0.493,2.271-0.493
			c0.982,0,1.747,0.163,2.292,0.488S84.627,89.203,84.627,89.779z M81.517,88.885c-0.583,0-1.04,0.08-1.372,0.239
			s-0.498,0.378-0.498,0.655c0,0.271,0.164,0.485,0.493,0.641s0.788,0.234,1.377,0.234c0.596,0,1.062-0.078,1.397-0.234
			c0.335-0.156,0.503-0.369,0.503-0.641c0-0.277-0.168-0.496-0.503-0.655C82.579,88.964,82.113,88.885,81.517,88.885z
			 M85.817,85.683h-1.291v2.165h-1.199v-5.295h1.199v2.155h1.291V85.683z"/>
		<path fill="#010100" d="M91.448,85.652h-5.255v-0.945h5.255V85.652z M86.639,87.919c0-0.562,0.204-1.028,0.61-1.397
			c0.407-0.37,0.932-0.554,1.576-0.554c0.65,0,1.177,0.183,1.581,0.549c0.403,0.366,0.605,0.833,0.605,1.403
			c0,0.562-0.204,1.028-0.61,1.397c-0.406,0.37-0.932,0.554-1.575,0.554c-0.65,0-1.178-0.181-1.581-0.544
			C86.841,88.964,86.639,88.495,86.639,87.919z M87.463,84.077v-0.935h2.795v0.935H87.463z M87.798,87.919
			c0,0.292,0.097,0.528,0.29,0.711c0.193,0.183,0.438,0.274,0.737,0.274c0.325,0,0.578-0.09,0.757-0.269
			c0.179-0.18,0.269-0.418,0.269-0.717s-0.096-0.539-0.29-0.722c-0.193-0.183-0.439-0.274-0.737-0.274
			c-0.298,0-0.544,0.091-0.737,0.274C87.895,87.38,87.798,87.621,87.798,87.919z M93.318,82.552v3.669h1.26v0.986h-1.26v4.401
			h-1.199v-9.057H93.318z"/>
		<path fill="#010100" d="M99.691,91.619h-1.189v-2.978h-3.476v-0.945h8.182v0.945h-3.517V91.619z M102.221,86.78h-6.21v-3.801
			h1.179v1.026h3.832v-1.037h1.199V86.78z M101.022,85.835v-0.904H97.19v0.904H101.022z"/>
	</g>
</g>
<line fill="none" stroke="#AC4D57" stroke-width="0.9241" stroke-miterlimit="10" x1="225.472" y1="69.164" x2="231.604" y2="81.428"/>
<line fill="none" stroke="#AC4D57" stroke-width="0.9241" stroke-miterlimit="10" x1="264.186" y1="69.164" x2="253.125" y2="90.806"/>
<line fill="none" stroke="#AC4D57" stroke-width="0.9241" stroke-miterlimit="10" x1="98.117" y1="89.167" x2="112.199" y2="101.371"/>
<line fill="none" stroke="#AC4D57" stroke-width="0.9241" stroke-miterlimit="10" x1="115.25" y1="143.382" x2="121.694" y2="118.853"/>
<g>
	<g>
		<path fill="#010100" d="M209.559,10.089h-9.611V8.836h9.611V10.089z M209.297,5.66l-0.704,1.278
			c-0.756-0.151-1.519-0.484-2.287-0.997c-0.769-0.514-1.292-1.128-1.57-1.845c-0.271,0.716-0.782,1.329-1.534,1.839
			c-0.752,0.509-1.515,0.844-2.287,1.003c-0.04-0.08-0.147-0.271-0.322-0.573c-0.175-0.303-0.307-0.538-0.394-0.705
			c0.947-0.119,1.801-0.5,2.561-1.14s1.141-1.419,1.141-2.334V1.552h1.695v0.633c0,0.916,0.376,1.692,1.128,2.329
			C207.476,5.15,208.334,5.533,209.297,5.66z"/>
		<path fill="#010100" d="M219.887,8.896v1.23h-9.611v-1.23H219.887z M218.431,5.17h-5.349v1.086h5.755v1.242h-7.331V1.684h7.2
			v1.242h-5.624V3.94h5.349V5.17z"/>
		<path fill="#010100" d="M225.32,8.729c-0.82,0.199-1.899,0.298-3.236,0.298c-0.136,0-0.333-0.002-0.591-0.006
			s-0.452-0.006-0.579-0.006v-4.43h2.209V3.128h-2.161V1.827h3.726v4.083h-2.209v1.814h0.25c1.035,0,1.858-0.075,2.472-0.227
			C225.248,8.024,225.288,8.434,225.32,8.729z M227.576,10.961h-1.469V5.898h-1.003v-1.29h1.003V1.003h1.469V10.961z
			 M229.678,11.451h-1.504V0.812h1.504V11.451z"/>
		<path fill="#010100" d="M240.543,10.089h-9.611V8.836h9.611V10.089z M240.281,5.66l-0.704,1.278
			c-0.756-0.151-1.519-0.484-2.287-0.997c-0.769-0.514-1.292-1.128-1.57-1.845c-0.271,0.716-0.782,1.329-1.534,1.839
			c-0.752,0.509-1.515,0.844-2.287,1.003c-0.04-0.08-0.147-0.271-0.322-0.573c-0.175-0.303-0.307-0.538-0.394-0.705
			c0.947-0.119,1.801-0.5,2.561-1.14s1.141-1.419,1.141-2.334V1.552h1.695v0.633c0,0.916,0.376,1.692,1.128,2.329
			C238.46,5.15,239.318,5.533,240.281,5.66z"/>
		<path fill="#010100" d="M249.761,7.021h-5.146V1.576h1.552v1.636h2.018V1.576h1.576V7.021z M252.96,11.152h-7.224V7.785h1.576
			V9.91h5.647V11.152z M248.184,5.815V4.394h-2.018v1.421H248.184z M252.757,0.812v2.925h1.48v1.29h-1.48v3.451h-1.563V0.812
			H252.757z"/>
		<path fill="#010100" d="M264.339,5.66v1.23h-9.611V5.66H264.339z M262.31,7.898c0.676,0.362,1.015,0.846,1.015,1.451
			s-0.339,1.088-1.015,1.451c-0.677,0.362-1.601,0.543-2.771,0.543c-1.187,0-2.117-0.179-2.794-0.538
			c-0.677-0.358-1.015-0.843-1.015-1.457c0-0.605,0.336-1.088,1.009-1.451s1.598-0.543,2.776-0.543
			C260.701,7.355,261.633,7.536,262.31,7.898z M255.838,3.224c0-0.589,0.332-1.069,0.997-1.439c0.664-0.37,1.562-0.555,2.692-0.555
			c1.138,0,2.042,0.185,2.71,0.555c0.669,0.37,1.003,0.85,1.003,1.439c0,0.597-0.334,1.079-1.003,1.444
			c-0.668,0.367-1.572,0.549-2.71,0.549c-1.131,0-2.028-0.183-2.692-0.549C256.17,4.303,255.838,3.821,255.838,3.224z M261.7,9.373
			c0-0.239-0.201-0.43-0.603-0.573c-0.402-0.143-0.93-0.215-1.582-0.215c-0.646,0-1.164,0.072-1.559,0.215
			c-0.394,0.144-0.591,0.334-0.591,0.573c0,0.223,0.197,0.404,0.591,0.543c0.395,0.139,0.913,0.209,1.559,0.209
			c0.645,0,1.17-0.07,1.576-0.209C261.497,9.777,261.7,9.596,261.7,9.373z M257.449,3.236c0,0.255,0.188,0.456,0.562,0.603
			c0.374,0.147,0.88,0.221,1.517,0.221c0.645,0,1.154-0.073,1.528-0.221c0.374-0.147,0.561-0.348,0.561-0.603
			c0-0.239-0.188-0.434-0.566-0.585c-0.379-0.151-0.886-0.227-1.522-0.227c-0.629,0-1.133,0.076-1.511,0.227
			S257.449,2.997,257.449,3.236z"/>
	</g>
</g>
<g>
	<rect x="406.154" y="42.701" fill="none" width="98.458" height="50.078"/>
	<path d="M410.838,46.023c0.191,0.188,0.287,0.414,0.287,0.679c0,0.265-0.095,0.491-0.282,0.679s-0.417,0.282-0.688,0.282
		c-0.265,0-0.491-0.094-0.679-0.282c-0.188-0.188-0.282-0.415-0.282-0.679c0-0.265,0.094-0.491,0.282-0.679
		c0.188-0.188,0.414-0.282,0.679-0.282S410.648,45.835,410.838,46.023z"/>
	<path d="M425.208,47.312h-7.438v-0.767h7.438V47.312z M424.829,45.215l-0.416,0.739c-0.628-0.074-1.218-0.26-1.77-0.559
		c-0.551-0.299-0.935-0.642-1.15-1.03c-0.19,0.4-0.556,0.749-1.095,1.044c-0.539,0.296-1.147,0.48-1.825,0.555l-0.406-0.739
		c0.684-0.049,1.29-0.213,1.82-0.49c0.529-0.277,0.853-0.638,0.97-1.081h-2.439v-0.739h5.951v0.739h-2.421
		c0.129,0.438,0.47,0.796,1.021,1.076C423.62,45.01,424.207,45.172,424.829,45.215z M418.638,48.033h5.609v2.818h-0.942V48.8h-4.667
		V48.033z"/>
	<path d="M429.866,43.117c-0.024,1.084-0.368,1.98-1.03,2.689s-1.554,1.198-2.675,1.469l-0.48-0.739
		c0.776-0.148,1.466-0.456,2.069-0.924s0.961-1.038,1.072-1.709h-2.744v-0.786H429.866z M432.166,50.852h-0.951v-2.255h-4.473
		v-0.749h5.424V50.852z M433.367,45.372h-1.21v2.079h-0.952V42.59h0.952v1.987h1.21V45.372z"/>
	<path d="M434.042,43.903v-0.786h4.325v0.786h-1.636v0.102c0,0.585,0.182,1.093,0.545,1.524c0.363,0.432,0.804,0.73,1.321,0.896
		l-0.526,0.749c-0.357-0.142-0.71-0.367-1.059-0.675c-0.348-0.308-0.604-0.644-0.771-1.007c-0.117,0.388-0.365,0.765-0.743,1.132
		c-0.379,0.367-0.781,0.63-1.206,0.79l-0.573-0.739c0.598-0.222,1.086-0.57,1.465-1.044c0.379-0.474,0.568-1.004,0.568-1.589v-0.138
		H434.042z M434.994,47.867h5.554v2.966h-0.943v-2.208h-4.61V47.867z M440.538,47.442h-0.942v-2.015h-1.34v-0.785h1.34V42.59h0.942
		V47.442z"/>
	<path d="M451.617,49.733h-7.438v-0.758h7.438V49.733z M451.423,46.425l-0.499,0.739c-0.634-0.167-1.247-0.463-1.839-0.892
		c-0.591-0.428-0.988-0.883-1.191-1.363c-0.186,0.493-0.575,0.952-1.169,1.377c-0.595,0.425-1.219,0.718-1.871,0.878l-0.462-0.776
		c0.462-0.074,0.92-0.234,1.376-0.48c0.456-0.246,0.845-0.574,1.165-0.984s0.48-0.839,0.48-1.289v-0.545h0.988v0.545
		c0,0.443,0.168,0.873,0.504,1.289c0.336,0.416,0.731,0.75,1.188,1.002C450.548,46.179,450.992,46.345,451.423,46.425z"/>
	<path d="M459.611,49.022v0.758h-7.438v-0.758H459.611z M458.372,45.723h-4.297v1.053h4.657v0.749h-5.609v-4.306h5.526v0.758h-4.574
		v0.998h4.297V45.723z"/>
	<path d="M463.889,47.867l0.12,0.749c-0.616,0.148-1.564,0.228-2.846,0.24h-0.693v-3.188h1.95v-1.423h-1.978v-0.749h2.929v2.92
		h-1.959v1.663C462.349,48.079,463.174,48.009,463.889,47.867z M465.479,50.426h-0.888v-4.02h-0.896V45.63h0.896v-2.864h0.888
		V50.426z M467.105,50.824h-0.915V42.59h0.915V50.824z"/>
	<path d="M475.597,49.733h-7.438v-0.758h7.438V49.733z M475.403,46.425l-0.499,0.739c-0.634-0.167-1.247-0.463-1.839-0.892
		c-0.591-0.428-0.988-0.883-1.191-1.363c-0.186,0.493-0.575,0.952-1.169,1.377c-0.595,0.425-1.219,0.718-1.871,0.878l-0.462-0.776
		c0.462-0.074,0.92-0.234,1.376-0.48c0.456-0.246,0.845-0.574,1.165-0.984s0.48-0.839,0.48-1.289v-0.545h0.988v0.545
		c0,0.443,0.168,0.873,0.504,1.289c0.336,0.416,0.731,0.75,1.188,1.002C474.528,46.179,474.972,46.345,475.403,46.425z"/>
	<path d="M482.638,47.257h-3.826v-4.121h0.952v1.349h1.932v-1.368h0.942V47.257z M485.216,50.574h-5.526v-2.587h0.952v1.82h4.574
		V50.574z M481.696,46.508v-1.293h-1.932v1.293H481.696z M484.976,42.59v2.347h1.21v0.795h-1.21v2.809h-0.952V42.59H484.976z"/>
	<path d="M494.013,46.388v0.767h-7.438v-0.767H494.013z M493.162,49.308c0,0.475-0.252,0.846-0.757,1.114
		c-0.506,0.268-1.208,0.402-2.107,0.402s-1.6-0.134-2.103-0.402c-0.502-0.268-0.753-0.639-0.753-1.114
		c0-0.462,0.251-0.828,0.753-1.1c0.503-0.271,1.2-0.406,2.094-0.406c0.905,0,1.61,0.134,2.116,0.402
		C492.91,48.472,493.162,48.84,493.162,49.308z M492.391,43.126c0.502,0.283,0.754,0.659,0.754,1.127s-0.252,0.845-0.754,1.132
		s-1.199,0.43-2.093,0.43s-1.591-0.143-2.093-0.43s-0.753-0.664-0.753-1.132s0.249-0.844,0.748-1.127s1.195-0.425,2.089-0.425
		C491.189,42.701,491.889,42.843,492.391,43.126z M491.666,44.854c0.338-0.148,0.508-0.348,0.508-0.601s-0.166-0.453-0.499-0.601
		c-0.333-0.148-0.795-0.222-1.386-0.222c-0.586,0-1.045,0.074-1.377,0.222c-0.333,0.147-0.499,0.348-0.499,0.601
		s0.166,0.453,0.499,0.601c0.332,0.148,0.791,0.222,1.377,0.222C490.868,45.076,491.327,45.002,491.666,44.854z M491.68,49.867
		c0.336-0.126,0.503-0.31,0.503-0.55s-0.169-0.426-0.508-0.559c-0.339-0.132-0.801-0.198-1.386-0.198
		c-0.573,0-1.029,0.066-1.368,0.198c-0.339,0.133-0.508,0.319-0.508,0.559s0.168,0.424,0.504,0.55
		c0.335,0.126,0.793,0.189,1.372,0.189C490.88,50.057,491.344,49.994,491.68,49.867z"/>
	<path d="M410.838,57.112c0.191,0.188,0.287,0.414,0.287,0.679c0,0.265-0.095,0.491-0.282,0.679s-0.417,0.282-0.688,0.282
		c-0.265,0-0.491-0.094-0.679-0.282c-0.188-0.188-0.282-0.415-0.282-0.679c0-0.265,0.094-0.491,0.282-0.679
		c0.188-0.188,0.414-0.282,0.679-0.282S410.648,56.924,410.838,57.112z"/>
	<path d="M422.75,57.283l-0.555,0.739c-0.363-0.154-0.727-0.393-1.09-0.716c-0.364-0.323-0.629-0.67-0.795-1.04
		c-0.123,0.413-0.365,0.798-0.726,1.155s-0.766,0.628-1.215,0.813l-0.582-0.749c0.609-0.24,1.1-0.599,1.469-1.077
		c0.37-0.477,0.555-1.027,0.555-1.649v-0.73h0.971v0.693c0,0.604,0.196,1.138,0.591,1.603
		C421.768,56.792,422.227,57.11,422.75,57.283z M424.562,61.811h-5.396v-3.059h5.396V61.811z M423.61,61.053v-1.562h-3.483v1.562
		H423.61z M423.601,53.679h0.951v4.611h-0.951V53.679z"/>
	<path d="M429.828,58.003h-3.825v-3.816h0.952v1.22h1.931v-1.238h0.942V58.003z M426.78,58.937h5.387v2.985h-0.961v-2.227h-4.426
		V58.937z M428.886,57.246v-1.1h-1.931v1.1H428.886z M433.359,56.516h-1.201v1.996h-0.952v-4.833h0.952v2.052h1.201V56.516z"/>
	<path d="M437.933,61.921h-0.942v-2.994h-3.234v-0.748h7.438v0.748h-3.262V61.921z M440.88,56.599l-0.434,0.767
		c-0.623-0.104-1.222-0.339-1.798-0.702s-0.966-0.77-1.169-1.22c-0.173,0.443-0.545,0.847-1.118,1.21
		c-0.572,0.364-1.183,0.604-1.829,0.721l-0.416-0.776c0.758-0.086,1.426-0.351,2.005-0.794s0.869-0.952,0.869-1.525v-0.416h0.998
		v0.416c0,0.376,0.148,0.738,0.448,1.086c0.298,0.348,0.668,0.63,1.108,0.846C439.986,56.426,440.431,56.556,440.88,56.599z"/>
	<path d="M444.282,60.508h-0.527v-4.907l-1.118,0.665l-0.147-0.129l1.524-1.848l1.534,1.848l-0.148,0.129l-1.117-0.665V60.508z"/>
	<path d="M447.118,61.977l0.139-2.061h1.034l-0.406,2.061H447.118z"/>
	<path d="M456.035,55.555h-4.445v-0.73h4.445V55.555z M455.841,57.079c0,0.388-0.182,0.696-0.545,0.924
		c-0.364,0.228-0.829,0.342-1.396,0.342c-0.555,0-1.014-0.115-1.377-0.347c-0.363-0.231-0.545-0.537-0.545-0.919
		c0-0.375,0.18-0.676,0.54-0.901c0.36-0.225,0.821-0.337,1.382-0.337c0.566,0,1.031,0.112,1.396,0.337
		C455.659,56.403,455.841,56.704,455.841,57.079z M452.718,54.399v-0.73h2.411v0.73H452.718z M454.926,57.079
		c0-0.166-0.1-0.3-0.3-0.402s-0.442-0.152-0.726-0.152s-0.523,0.051-0.721,0.152s-0.296,0.236-0.296,0.402
		c0,0.185,0.099,0.327,0.296,0.425s0.438,0.148,0.721,0.148c0.289,0,0.532-0.049,0.729-0.148S454.926,57.264,454.926,57.079z
		 M458.622,61.884h-5.618v-1.903h4.417v-0.499h-4.454v-0.73h5.396v1.913h-4.407v0.499h4.666V61.884z M458.355,58.308h-0.942v-0.637
		h-1.184v-0.776h1.184v-0.721h-1.184v-0.758h1.184v-1.737h0.942V58.308z"/>
	<path d="M463.853,55.998c0,0.567-0.202,1.02-0.605,1.358c-0.403,0.339-0.907,0.508-1.511,0.508c-0.598,0-1.098-0.169-1.502-0.508
		c-0.403-0.338-0.604-0.789-0.604-1.349s0.203-1.024,0.609-1.391c0.406-0.366,0.905-0.55,1.497-0.55s1.092,0.182,1.502,0.545
		C463.648,54.976,463.853,55.438,463.853,55.998z M462.591,56.825c0.219-0.212,0.328-0.485,0.328-0.818
		c0-0.333-0.106-0.605-0.318-0.818c-0.213-0.212-0.501-0.318-0.864-0.318c-0.345,0-0.628,0.107-0.85,0.323
		c-0.223,0.216-0.333,0.483-0.333,0.804c0,0.339,0.109,0.615,0.328,0.827s0.503,0.319,0.854,0.319S462.372,57.038,462.591,56.825z
		 M465.978,61.811h-5.285v-3.244h0.951v0.869h3.383v-0.887h0.951V61.811z M465.027,61.043v-0.859h-3.383v0.859H465.027z
		 M467.179,56.331h-1.21v1.792h-0.952v-4.445h0.952v1.867h1.21V56.331z"/>
	<path d="M470.1,60.508h-0.527v-4.907l-1.118,0.665l-0.147-0.129l1.524-1.848l1.534,1.848l-0.148,0.129l-1.117-0.665V60.508z"/>
	<path d="M410.838,68.201c0.191,0.188,0.287,0.414,0.287,0.679c0,0.265-0.095,0.491-0.282,0.679s-0.417,0.282-0.688,0.282
		c-0.265,0-0.491-0.094-0.679-0.282c-0.188-0.188-0.282-0.415-0.282-0.679c0-0.265,0.094-0.491,0.282-0.679
		c0.188-0.188,0.414-0.282,0.679-0.282S410.648,68.013,410.838,68.201z"/>
	<path d="M420.163,71.023h-2.311v-5.489h0.841v2.023h0.619v-2.033h0.851V71.023z M419.313,70.256v-1.94h-0.619v1.94H419.313z
		 M422.898,71.023h-2.291v-5.489h0.822v2.023h0.628v-2.033h0.841V71.023z M422.057,70.266v-1.95h-0.628v1.95H422.057z
		 M425.449,68.667h-1.062v4.334h-0.896v-8.233h0.896v3.105h1.062V68.667z"/>
	<path d="M433.201,71.938h-7.438v-0.758h7.438V71.938z M432.481,69.887h-5.767v-2.643h4.584v-1.09h-4.584v-0.758h5.526v2.597h-4.574
		v1.137h4.814V69.887z"/>
	<path d="M437.231,65.756c-0.007,1.245-0.258,2.321-0.753,3.229c-0.496,0.909-1.243,1.693-2.241,2.352l-0.629-0.647
		c0.813-0.487,1.453-1.089,1.918-1.807c0.465-0.717,0.722-1.501,0.771-2.352h-2.218v-0.776H437.231z M439.07,72.613h-0.888v-3.761
		h-1.1v-0.776h1.1v-3.142h0.888V72.613z M440.696,73.001h-0.905v-8.233h0.905V73.001z"/>
	<path d="M444.281,66.08v-0.786h4.334v0.786h-1.646v0.018c0,0.573,0.184,1.077,0.55,1.511c0.367,0.434,0.806,0.738,1.317,0.91
		l-0.518,0.757c-0.363-0.147-0.718-0.375-1.062-0.684c-0.346-0.308-0.604-0.647-0.776-1.017c-0.117,0.395-0.363,0.773-0.739,1.137
		c-0.376,0.364-0.779,0.625-1.211,0.786l-0.554-0.73c0.597-0.228,1.084-0.576,1.46-1.044c0.375-0.468,0.563-1.001,0.563-1.599V66.08
		H444.281z M445.204,70.025h5.378v2.985h-0.951v-2.236h-4.427V70.025z M451.783,67.549h-1.21v2.042h-0.952v-4.824h0.952v1.996h1.21
		V67.549z"/>
	<path d="M458.751,66.431c0,0.548-0.323,0.964-0.971,1.247v1.063h1.83v0.758h-7.438v-0.758h1.802V67.66
		c-0.622-0.284-0.934-0.693-0.934-1.229c0-0.468,0.253-0.844,0.758-1.127s1.201-0.425,2.089-0.425c0.899,0,1.602,0.142,2.106,0.425
		S458.751,65.963,458.751,66.431z M458.751,71.485c0,0.475-0.251,0.844-0.753,1.109c-0.502,0.265-1.203,0.397-2.103,0.397
		s-1.6-0.132-2.103-0.397c-0.502-0.265-0.753-0.634-0.753-1.109c0-0.468,0.251-0.834,0.753-1.1c0.503-0.265,1.2-0.397,2.094-0.397
		c0.905,0,1.609,0.132,2.111,0.397C458.5,70.651,458.751,71.018,458.751,71.485z M457.264,67.041
		c0.338-0.148,0.508-0.351,0.508-0.61s-0.168-0.462-0.504-0.61c-0.336-0.148-0.796-0.222-1.381-0.222
		c-0.586,0-1.045,0.076-1.377,0.227c-0.333,0.151-0.499,0.353-0.499,0.605c0,0.259,0.166,0.462,0.499,0.61
		c0.332,0.147,0.791,0.222,1.377,0.222C456.466,67.263,456.925,67.188,457.264,67.041z M457.273,72.044
		c0.333-0.126,0.499-0.31,0.499-0.55s-0.17-0.426-0.508-0.559c-0.339-0.132-0.798-0.198-1.377-0.198s-1.037,0.066-1.372,0.198
		c-0.336,0.133-0.504,0.319-0.504,0.559s0.166,0.424,0.499,0.55c0.332,0.126,0.791,0.189,1.377,0.189
		C456.478,72.234,456.94,72.171,457.273,72.044z M455.896,67.993c-0.425,0-0.752-0.021-0.979-0.065v0.813h1.922v-0.804
		C456.611,67.974,456.296,67.993,455.896,67.993z"/>
	<path d="M410.838,79.289c0.191,0.188,0.287,0.414,0.287,0.679c0,0.265-0.095,0.491-0.282,0.679s-0.417,0.282-0.688,0.282
		c-0.265,0-0.491-0.094-0.679-0.282c-0.188-0.188-0.282-0.415-0.282-0.679c0-0.265,0.094-0.491,0.282-0.679
		c0.188-0.188,0.414-0.282,0.679-0.282S410.648,79.101,410.838,79.289z"/>
	<path d="M418.841,79.34c0.45,0,0.896-0.056,1.341-0.167l0.11,0.702c-0.659,0.142-1.447,0.213-2.365,0.213V76.42h2.106v0.767h-1.192
		V79.34z M424.33,83.988h-5.405v-3.096h5.405V83.988z M423.378,83.23v-1.589h-3.502v1.589H423.378z M421.438,79.34
		c0.518,0,1.011-0.052,1.479-0.157l0.102,0.711c-0.628,0.129-1.46,0.194-2.494,0.194V76.42h2.171v0.767h-1.257V79.34z
		 M425.393,78.638h-1.062v1.839h-0.924v-4.621h0.924v1.996h1.062V78.638z"/>
	<path d="M426.567,81.474c-0.376-0.523-0.563-1.223-0.563-2.097c0-0.875,0.188-1.574,0.563-2.098
		c0.376-0.524,0.891-0.786,1.543-0.786c0.653,0,1.165,0.262,1.534,0.786c0.37,0.523,0.555,1.226,0.555,2.106
		c0,0.875-0.185,1.573-0.555,2.093c-0.369,0.521-0.881,0.781-1.534,0.781C427.457,82.26,426.943,81.998,426.567,81.474z
		 M428.974,80.924c0.219-0.379,0.328-0.895,0.328-1.547c0-0.653-0.109-1.167-0.328-1.543c-0.219-0.375-0.507-0.563-0.864-0.563
		c-0.351,0-0.635,0.188-0.85,0.563c-0.216,0.376-0.323,0.89-0.323,1.543c0,0.653,0.107,1.168,0.323,1.547
		c0.215,0.379,0.499,0.568,0.85,0.568C428.467,81.493,428.755,81.303,428.974,80.924z M432.536,84.089h-0.942v-8.233h0.942V84.089z"
		/>
	<path d="M443.624,79.783v0.758h-7.438v-0.758H443.624z M443.255,78.508l-0.416,0.748c-0.616-0.074-1.203-0.265-1.761-0.573
		s-0.947-0.659-1.169-1.053c-0.19,0.406-0.556,0.762-1.095,1.067c-0.539,0.305-1.147,0.494-1.825,0.568l-0.416-0.748
		c0.672-0.037,1.273-0.197,1.807-0.481c0.533-0.283,0.864-0.646,0.993-1.09h-2.439V76.18h5.96v0.767h-2.421
		c0.142,0.432,0.49,0.79,1.045,1.077C442.072,78.31,442.651,78.471,443.255,78.508z M442.007,81.46
		c0.505,0.274,0.758,0.639,0.758,1.095c0,0.456-0.253,0.821-0.758,1.095s-1.204,0.411-2.098,0.411c-0.899,0-1.6-0.135-2.103-0.406
		c-0.502-0.271-0.753-0.638-0.753-1.1c0-0.456,0.251-0.821,0.753-1.095c0.503-0.274,1.2-0.411,2.094-0.411
		C440.8,81.049,441.502,81.187,442.007,81.46z M441.785,82.556c0-0.228-0.168-0.408-0.504-0.541
		c-0.336-0.132-0.796-0.198-1.381-0.198c-0.579,0-1.037,0.066-1.372,0.198c-0.336,0.133-0.504,0.313-0.504,0.541
		c0,0.24,0.166,0.423,0.499,0.55c0.332,0.126,0.791,0.189,1.377,0.189c0.591,0,1.053-0.063,1.386-0.189
		C441.619,82.979,441.785,82.796,441.785,82.556z"/>
	<path d="M448.411,76.725c-0.068,2.569-1.297,4.509-3.688,5.822l-0.591-0.721c0.93-0.425,1.686-1.032,2.269-1.821
		c0.582-0.788,0.913-1.623,0.993-2.504h-2.781v-0.776H448.411z M451.793,79.857h-1.22v4.232h-0.952v-8.233h0.952v3.216h1.22V79.857z
		"/>
</g>
<g>
	<rect x="406.154" y="131.366" fill="none" width="104.661" height="57.379"/>
	<path d="M410.838,134.688c0.191,0.188,0.287,0.414,0.287,0.679c0,0.265-0.095,0.491-0.282,0.679s-0.417,0.282-0.688,0.282
		c-0.265,0-0.491-0.094-0.679-0.282c-0.188-0.188-0.282-0.415-0.282-0.679c0-0.265,0.094-0.491,0.282-0.679
		c0.188-0.188,0.414-0.282,0.679-0.282S410.648,134.5,410.838,134.688z"/>
	<path d="M417.871,132.567v-0.786h4.334v0.786h-1.646v0.027c0,0.573,0.184,1.08,0.55,1.52c0.367,0.441,0.806,0.744,1.317,0.91
		l-0.518,0.749c-0.363-0.147-0.718-0.374-1.062-0.679c-0.346-0.305-0.604-0.642-0.776-1.012c-0.117,0.395-0.365,0.773-0.744,1.137
		s-0.78,0.625-1.206,0.785l-0.554-0.739c0.597-0.222,1.084-0.568,1.46-1.04c0.375-0.472,0.563-1.003,0.563-1.594v-0.064H417.871z
		 M424.275,137.862c0,0.493-0.248,0.887-0.743,1.183c-0.496,0.295-1.182,0.443-2.057,0.443c-0.868,0-1.549-0.148-2.042-0.443
		c-0.493-0.296-0.739-0.69-0.739-1.183c0-0.505,0.246-0.904,0.739-1.196s1.174-0.439,2.042-0.439c0.875,0,1.561,0.146,2.057,0.439
		C424.027,136.958,424.275,137.357,424.275,137.862z M423.305,137.862c0-0.277-0.16-0.491-0.48-0.642s-0.771-0.227-1.35-0.227
		c-0.572,0-1.018,0.076-1.335,0.227s-0.476,0.365-0.476,0.642c0,0.271,0.158,0.482,0.476,0.633s0.763,0.226,1.335,0.226
		c0.573,0,1.021-0.075,1.345-0.226S423.305,138.133,423.305,137.862z M425.384,134.073h-1.22v2.051h-0.952v-4.87h0.952v2.033h1.22
		V134.073z"/>
	<path d="M430.023,132.124c-0.056,2.557-1.291,4.497-3.705,5.822l-0.592-0.721c0.93-0.425,1.689-1.032,2.277-1.821
		c0.589-0.788,0.923-1.623,1.003-2.504h-2.8v-0.776H430.023z M432.545,139.488h-0.942v-8.233h0.942V139.488z"/>
	<path d="M434.042,132.567v-0.786h4.325v0.786h-1.636v0.102c0,0.585,0.182,1.093,0.545,1.524c0.363,0.432,0.804,0.73,1.321,0.896
		l-0.526,0.749c-0.357-0.142-0.71-0.367-1.059-0.675c-0.348-0.308-0.604-0.644-0.771-1.007c-0.117,0.388-0.365,0.765-0.743,1.132
		c-0.379,0.367-0.781,0.63-1.206,0.79l-0.573-0.739c0.598-0.222,1.086-0.57,1.465-1.044c0.379-0.474,0.568-1.004,0.568-1.589v-0.138
		H434.042z M434.994,136.531h5.554v2.966h-0.943v-2.208h-4.61V136.531z M440.538,136.106h-0.942v-2.015h-1.34v-0.785h1.34v-2.052
		h0.942V136.106z"/>
	<path d="M451.617,138.398h-7.438v-0.758h7.438V138.398z M451.423,135.09l-0.499,0.739c-0.634-0.167-1.247-0.463-1.839-0.892
		c-0.591-0.428-0.988-0.883-1.191-1.363c-0.186,0.493-0.575,0.952-1.169,1.377c-0.595,0.425-1.219,0.718-1.871,0.878l-0.462-0.776
		c0.462-0.074,0.92-0.234,1.376-0.48c0.456-0.246,0.845-0.574,1.165-0.984s0.48-0.839,0.48-1.289v-0.545h0.988v0.545
		c0,0.443,0.168,0.873,0.504,1.289c0.336,0.416,0.731,0.75,1.188,1.002C450.548,134.843,450.992,135.01,451.423,135.09z"/>
	<path d="M459.611,137.687v0.758h-7.438v-0.758H459.611z M458.372,134.388h-4.297v1.053h4.657v0.749h-5.609v-4.306h5.526v0.758
		h-4.574v0.998h4.297V134.388z"/>
	<path d="M463.889,136.531l0.12,0.749c-0.616,0.148-1.564,0.228-2.846,0.24h-0.693v-3.188h1.95v-1.423h-1.978v-0.749h2.929v2.92
		h-1.959v1.663C462.349,136.744,463.174,136.673,463.889,136.531z M465.479,139.091h-0.888v-4.02h-0.896v-0.776h0.896v-2.864h0.888
		V139.091z M467.105,139.488h-0.915v-8.233h0.915V139.488z"/>
	<path d="M475.597,138.398h-7.438v-0.758h7.438V138.398z M475.403,135.09l-0.499,0.739c-0.634-0.167-1.247-0.463-1.839-0.892
		c-0.591-0.428-0.988-0.883-1.191-1.363c-0.186,0.493-0.575,0.952-1.169,1.377c-0.595,0.425-1.219,0.718-1.871,0.878l-0.462-0.776
		c0.462-0.074,0.92-0.234,1.376-0.48c0.456-0.246,0.845-0.574,1.165-0.984s0.48-0.839,0.48-1.289v-0.545h0.988v0.545
		c0,0.443,0.168,0.873,0.504,1.289c0.336,0.416,0.731,0.75,1.188,1.002C474.528,134.843,474.972,135.01,475.403,135.09z"/>
	<path d="M482.305,136.485l0.12,0.757c-0.671,0.154-1.586,0.231-2.744,0.231h-0.832v-5.221h3.105v0.767
		c-0.24,0-0.6-0.001-1.077-0.005c-0.478-0.003-0.833-0.004-1.067-0.004v3.678C480.869,136.688,481.701,136.621,482.305,136.485z
		 M485.521,139.488h-0.915v-4.167h-0.831v3.77h-0.896v-7.669h0.896v3.105h0.831v-3.271h0.915V139.488z"/>
	<path d="M494.013,135.053v0.767h-7.438v-0.767H494.013z M493.162,137.973c0,0.475-0.252,0.846-0.757,1.114
		c-0.506,0.268-1.208,0.402-2.107,0.402s-1.6-0.134-2.103-0.402c-0.502-0.268-0.753-0.639-0.753-1.114
		c0-0.462,0.251-0.828,0.753-1.1c0.503-0.271,1.2-0.406,2.094-0.406c0.905,0,1.61,0.134,2.116,0.402
		C492.91,137.137,493.162,137.505,493.162,137.973z M492.391,131.791c0.502,0.283,0.754,0.659,0.754,1.127s-0.252,0.845-0.754,1.132
		s-1.199,0.43-2.093,0.43s-1.591-0.143-2.093-0.43s-0.753-0.664-0.753-1.132s0.249-0.844,0.748-1.127s1.195-0.425,2.089-0.425
		C491.189,131.366,491.889,131.508,492.391,131.791z M491.666,133.519c0.338-0.148,0.508-0.348,0.508-0.601
		s-0.166-0.453-0.499-0.601c-0.333-0.148-0.795-0.222-1.386-0.222c-0.586,0-1.045,0.074-1.377,0.222
		c-0.333,0.147-0.499,0.348-0.499,0.601s0.166,0.453,0.499,0.601c0.332,0.148,0.791,0.222,1.377,0.222
		C490.868,133.741,491.327,133.667,491.666,133.519z M491.68,138.532c0.336-0.126,0.503-0.31,0.503-0.55s-0.169-0.426-0.508-0.559
		c-0.339-0.132-0.801-0.198-1.386-0.198c-0.573,0-1.029,0.066-1.368,0.198c-0.339,0.133-0.508,0.319-0.508,0.559
		s0.168,0.424,0.504,0.55c0.335,0.126,0.793,0.189,1.372,0.189C490.88,138.721,491.344,138.658,491.68,138.532z"/>
	<path d="M410.838,145.776c0.191,0.188,0.287,0.414,0.287,0.679c0,0.265-0.095,0.491-0.282,0.679s-0.417,0.282-0.688,0.282
		c-0.265,0-0.491-0.094-0.679-0.282c-0.188-0.188-0.282-0.415-0.282-0.679c0-0.265,0.094-0.491,0.282-0.679
		c0.188-0.188,0.414-0.282,0.679-0.282S410.648,145.588,410.838,145.776z"/>
	<path d="M425.208,149.468h-7.438v-0.758h7.438V149.468z M424.322,146.603h-5.618v-3.548h0.942v2.8h4.676V146.603z"/>
	<path d="M430.836,147.62l0.102,0.776c-0.888,0.16-2.116,0.247-3.688,0.259l-1.017,0.009v-3.327h2.791v-1.516h-2.827v-0.758h3.77
		v3.031h-2.79v1.783C428.717,147.878,429.937,147.792,430.836,147.62z M432.536,150.577h-0.942v-8.233h0.942V150.577z"/>
	<path d="M437.231,143.332c-0.007,1.245-0.258,2.321-0.753,3.229c-0.496,0.909-1.243,1.693-2.241,2.352l-0.629-0.647
		c0.813-0.487,1.453-1.089,1.918-1.807c0.465-0.717,0.722-1.501,0.771-2.352h-2.218v-0.776H437.231z M439.07,150.188h-0.888v-3.761
		h-1.1v-0.776h1.1v-3.142h0.888V150.188z M440.696,150.577h-0.905v-8.233h0.905V150.577z"/>
	<path d="M444.281,143.656v-0.786h4.334v0.786h-1.646v0.018c0,0.573,0.184,1.077,0.55,1.511c0.367,0.434,0.806,0.738,1.317,0.91
		l-0.518,0.757c-0.363-0.147-0.718-0.375-1.062-0.684c-0.346-0.308-0.604-0.647-0.776-1.017c-0.117,0.395-0.363,0.773-0.739,1.137
		c-0.376,0.364-0.779,0.625-1.211,0.786l-0.554-0.73c0.597-0.228,1.084-0.576,1.46-1.044c0.375-0.468,0.563-1.001,0.563-1.599
		v-0.046H444.281z M445.204,147.601h5.378v2.985h-0.951v-2.236h-4.427V147.601z M451.783,145.125h-1.21v2.042h-0.952v-4.824h0.952
		v1.996h1.21V145.125z"/>
	<path d="M458.751,144.007c0,0.548-0.323,0.964-0.971,1.247v1.063h1.83v0.758h-7.438v-0.758h1.802v-1.081
		c-0.622-0.284-0.934-0.693-0.934-1.229c0-0.468,0.253-0.844,0.758-1.127s1.201-0.425,2.089-0.425c0.899,0,1.602,0.142,2.106,0.425
		S458.751,143.539,458.751,144.007z M458.751,149.061c0,0.475-0.251,0.844-0.753,1.109c-0.502,0.265-1.203,0.397-2.103,0.397
		s-1.6-0.132-2.103-0.397c-0.502-0.265-0.753-0.634-0.753-1.109c0-0.468,0.251-0.834,0.753-1.1c0.503-0.265,1.2-0.397,2.094-0.397
		c0.905,0,1.609,0.132,2.111,0.397C458.5,148.227,458.751,148.593,458.751,149.061z M457.264,144.617
		c0.338-0.148,0.508-0.351,0.508-0.61s-0.168-0.462-0.504-0.61c-0.336-0.148-0.796-0.222-1.381-0.222
		c-0.586,0-1.045,0.076-1.377,0.227c-0.333,0.151-0.499,0.353-0.499,0.605c0,0.259,0.166,0.462,0.499,0.61
		c0.332,0.147,0.791,0.222,1.377,0.222C456.466,144.838,456.925,144.764,457.264,144.617z M457.273,149.62
		c0.333-0.126,0.499-0.31,0.499-0.55s-0.17-0.426-0.508-0.559c-0.339-0.132-0.798-0.198-1.377-0.198s-1.037,0.066-1.372,0.198
		c-0.336,0.133-0.504,0.319-0.504,0.559s0.166,0.424,0.499,0.55c0.332,0.126,0.791,0.189,1.377,0.189
		C456.478,149.81,456.94,149.747,457.273,149.62z M455.896,145.568c-0.425,0-0.752-0.021-0.979-0.065v0.813h1.922v-0.804
		C456.611,145.55,456.296,145.568,455.896,145.568z"/>
	<path d="M410.838,156.865c0.191,0.188,0.287,0.414,0.287,0.679c0,0.265-0.095,0.491-0.282,0.679s-0.417,0.282-0.688,0.282
		c-0.265,0-0.491-0.094-0.679-0.282c-0.188-0.188-0.282-0.415-0.282-0.679c0-0.265,0.094-0.491,0.282-0.679
		c0.188-0.188,0.414-0.282,0.679-0.282S410.648,156.677,410.838,156.865z"/>
	<path d="M421.864,154.07c-0.019,1.103-0.373,2.036-1.063,2.8c-0.689,0.764-1.573,1.294-2.651,1.589l-0.472-0.758
		c0.782-0.166,1.474-0.505,2.075-1.016c0.601-0.511,0.959-1.118,1.076-1.82h-2.744v-0.795H421.864z M424.386,161.425h-5.461v-2.606
		h0.951v1.848h4.51V161.425z M425.384,156.62h-1.22v2.828h-0.952v-6.016h0.952v2.394h1.22V156.62z"/>
	<path d="M431.104,161.277h-0.896v-3.872h-0.822c-0.043,0.733-0.213,1.329-0.508,1.788c-0.296,0.459-0.712,0.688-1.248,0.688
		c-0.395,0-0.729-0.136-1.002-0.407c-0.274-0.271-0.472-0.618-0.592-1.04s-0.181-0.904-0.181-1.446c0-0.832,0.149-1.519,0.448-2.061
		s0.741-0.813,1.326-0.813c0.536,0,0.953,0.232,1.252,0.697c0.299,0.465,0.467,1.067,0.504,1.807h0.822v-3.031h0.896V161.277z
		 M428.285,158.491c0.147-0.373,0.222-0.87,0.222-1.492c0-0.622-0.074-1.123-0.222-1.501s-0.363-0.568-0.646-0.568
		c-0.284,0-0.499,0.189-0.647,0.568c-0.147,0.379-0.222,0.879-0.222,1.501c0,0.616,0.074,1.112,0.222,1.488
		c0.148,0.376,0.363,0.563,0.647,0.563C427.922,159.05,428.138,158.864,428.285,158.491z M432.702,161.666h-0.905v-8.233h0.905
		V161.666z"/>
	<path d="M438.764,159.087l-0.572,0.702c-0.37-0.234-0.747-0.585-1.132-1.053c-0.386-0.468-0.648-0.918-0.79-1.349
		c-0.143,0.487-0.399,0.966-0.771,1.437c-0.373,0.471-0.781,0.842-1.225,1.113l-0.592-0.684c0.647-0.425,1.155-0.964,1.524-1.617
		c0.37-0.653,0.555-1.368,0.555-2.144v-1.358h0.971v1.303c0,0.77,0.183,1.474,0.55,2.111
		C437.648,158.187,438.142,158.699,438.764,159.087z M440.538,161.666h-0.942v-4.602h-1.607v-0.795h1.607v-2.837h0.942V161.666z"/>
	<path d="M450.887,158.08h-2.531v1.784h3.262v0.758h-7.438v-0.758h3.234v-1.784h-2.541v-0.767h1.274l-0.212-1.959l0.942-0.093
		l0.166,2.052h1.71l0.305-2.033l0.934,0.139l-0.342,1.895h1.237V158.08z M450.897,154.855h-6.034v-0.758h6.034V154.855z"/>
	<path d="M458.696,157.849h-2.347v2.015h3.262v0.758h-7.438v-0.758h3.234v-2.015h-2.265v-3.789h5.508v0.767h-4.556v2.254h4.602
		V157.849z"/>
	<path d="M464.878,157.452c-0.819,0.173-2.009,0.265-3.567,0.277l-0.859-0.009v-3.678h3.641v0.758h-2.698v2.162
		c1.417,0,2.532-0.086,3.346-0.258L464.878,157.452z M466.661,160.03c0,0.493-0.245,0.886-0.734,1.178
		c-0.49,0.292-1.176,0.439-2.057,0.439c-0.875,0-1.556-0.146-2.042-0.439s-0.729-0.685-0.729-1.178c0-0.505,0.243-0.905,0.729-1.201
		c0.486-0.295,1.167-0.443,2.042-0.443c0.881,0,1.566,0.148,2.057,0.443C466.416,159.125,466.661,159.525,466.661,160.03z
		 M463.87,159.152c-0.566,0-1.009,0.078-1.326,0.235s-0.476,0.371-0.476,0.642c0,0.265,0.158,0.475,0.476,0.628
		c0.317,0.154,0.76,0.231,1.326,0.231c0.567,0,1.012-0.077,1.336-0.231c0.323-0.154,0.484-0.363,0.484-0.628
		c0-0.271-0.16-0.485-0.48-0.642S464.444,159.152,463.87,159.152z M467.761,156.269h-1.201v2.015h-0.952v-4.852h0.952v2.052h1.201
		V156.269z"/>
	<path d="M474.839,159.892h-0.952v-1.451h-3.299v-0.767h7.438v0.767h-3.188V159.892z M477.066,156.925h-5.526v-3.234h0.952v0.915
		h3.632v-0.924h0.942V156.925z M477.167,161.425h-5.618v-2.282h0.952v1.534h4.666V161.425z M476.123,156.158v-0.813h-3.632v0.813
		H476.123z"/>
	<path d="M482.868,159.549h-3.881v-5.442h0.952v2.005h1.968v-2.014h0.961V159.549z M481.908,158.783v-1.922h-1.968v1.922H481.908z
		 M485.355,161.666h-0.942v-8.233h0.942V161.666z"/>
	<path d="M496.443,157.359v0.758h-7.438v-0.758H496.443z M496.074,156.084l-0.416,0.748c-0.616-0.074-1.203-0.265-1.761-0.573
		s-0.947-0.659-1.169-1.053c-0.19,0.406-0.556,0.762-1.095,1.067c-0.539,0.305-1.147,0.494-1.825,0.568l-0.416-0.748
		c0.672-0.037,1.273-0.197,1.807-0.481c0.533-0.283,0.864-0.646,0.993-1.09h-2.439v-0.767h5.96v0.767h-2.421
		c0.142,0.432,0.49,0.79,1.045,1.077C494.89,155.886,495.469,156.047,496.074,156.084z M494.825,159.037
		c0.505,0.274,0.758,0.639,0.758,1.095c0,0.456-0.253,0.821-0.758,1.095s-1.204,0.411-2.098,0.411c-0.899,0-1.6-0.135-2.103-0.406
		c-0.502-0.271-0.753-0.638-0.753-1.1c0-0.456,0.251-0.821,0.753-1.095c0.503-0.274,1.2-0.411,2.094-0.411
		C493.618,158.625,494.321,158.763,494.825,159.037z M494.604,160.132c0-0.228-0.168-0.408-0.504-0.541
		c-0.336-0.132-0.796-0.198-1.381-0.198c-0.579,0-1.037,0.066-1.372,0.198c-0.336,0.133-0.504,0.313-0.504,0.541
		c0,0.24,0.166,0.423,0.499,0.55c0.332,0.126,0.791,0.189,1.377,0.189c0.591,0,1.053-0.063,1.386-0.189
		C494.438,160.555,494.604,160.372,494.604,160.132z"/>
	<path d="M501.23,154.301c-0.068,2.569-1.297,4.509-3.688,5.822l-0.591-0.721c0.93-0.425,1.686-1.032,2.269-1.821
		c0.582-0.788,0.913-1.623,0.993-2.504h-2.781v-0.776H501.23z M504.612,157.434h-1.22v4.232h-0.952v-8.233h0.952v3.216h1.22V157.434
		z"/>
	<path d="M410.838,167.954c0.191,0.188,0.287,0.414,0.287,0.679c0,0.265-0.095,0.491-0.282,0.679s-0.417,0.282-0.688,0.282
		c-0.265,0-0.491-0.094-0.679-0.282c-0.188-0.188-0.282-0.415-0.282-0.679c0-0.265,0.094-0.491,0.282-0.679
		c0.188-0.188,0.414-0.282,0.679-0.282S410.648,167.766,410.838,167.954z"/>
	<path d="M421.891,169.039h-3.761v-3.807h3.761V169.039z M420.939,168.309v-2.338h-1.866v2.338H420.939z M424.719,172.514h-5.545
		v-2.541h0.952v1.783h4.593V172.514z M422.316,166.6v-0.767h1.285v-1.312h0.942v5.97h-0.942v-2.07h-1.285v-0.776h1.285V166.6
		H422.316z"/>
	<path d="M429.441,165.509c0.406,0.376,0.609,0.85,0.609,1.423c0,0.573-0.2,1.04-0.601,1.4s-0.902,0.541-1.506,0.541
		c-0.585,0-1.081-0.18-1.487-0.541c-0.407-0.36-0.61-0.827-0.61-1.4c0-0.567,0.203-1.04,0.61-1.418
		c0.406-0.379,0.902-0.568,1.487-0.568C428.535,164.946,429.034,165.134,429.441,165.509z M429.126,166.923
		c0-0.339-0.106-0.624-0.318-0.855c-0.213-0.231-0.501-0.347-0.864-0.347c-0.339,0-0.618,0.119-0.836,0.356
		c-0.219,0.237-0.328,0.519-0.328,0.846c0,0.351,0.109,0.641,0.328,0.869c0.218,0.228,0.497,0.342,0.836,0.342
		c0.352,0,0.636-0.116,0.854-0.347S429.126,167.268,429.126,166.923z M426.881,169.695h5.664v3.068h-0.951v-2.301h-4.713V169.695z
		 M430.29,168.272l0.037-0.776h1.267v-1.146h-1.267l-0.037-0.776h1.304v-1.054h0.951v4.741h-0.951v-0.989H430.29z"/>
	<path d="M437.439,165.509c0.409,0.376,0.614,0.85,0.614,1.423c0,0.573-0.202,1.04-0.605,1.4s-0.907,0.541-1.511,0.541
		c-0.585,0-1.083-0.182-1.492-0.545c-0.41-0.363-0.614-0.829-0.614-1.395c0-0.567,0.204-1.04,0.614-1.418
		c0.409-0.379,0.907-0.568,1.492-0.568C436.529,164.946,437.029,165.134,437.439,165.509z M437.129,166.923
		c0-0.339-0.108-0.624-0.324-0.855c-0.215-0.231-0.505-0.347-0.868-0.347c-0.339,0-0.619,0.119-0.841,0.356
		c-0.222,0.237-0.333,0.519-0.333,0.846c0,0.345,0.111,0.633,0.333,0.864s0.502,0.347,0.841,0.347c0.352,0,0.638-0.116,0.859-0.347
		S437.129,167.268,437.129,166.923z M434.994,169.76h5.554v3.003h-0.952v-2.264h-4.602V169.76z M440.538,169.326h-0.951v-2.042
		h-1.211v-0.795h1.211v-1.968h0.951V169.326z"/>
	<path d="M445.824,170.157l-0.555,0.684c-0.296-0.185-0.593-0.473-0.892-0.864c-0.299-0.391-0.501-0.774-0.605-1.15
		c-0.093,0.4-0.293,0.812-0.601,1.234s-0.644,0.744-1.007,0.965l-0.592-0.638c1.164-0.77,1.746-1.953,1.746-3.548v-0.61h-1.45
		v-0.767h3.724v0.767h-1.349v0.583c0,0.794,0.143,1.481,0.43,2.061C444.96,169.452,445.344,169.88,445.824,170.157z
		 M447.053,172.366h-0.887v-4.13h-1.128v-0.786h1.128v-2.763h0.887V172.366z M448.689,172.754h-0.905v-8.233h0.905V172.754z"/>
</g>
<g>
</g>
<g>
</g>
<g>
</g>
<g>
</g>
<g>
</g>
<g>
</g>
<g>
</g>
</svg>
