<?xml version="1.0" encoding="utf-8"?>
<!-- Generator: Adobe Illustrator 28.0.0, SVG Export Plug-In . SVG Version: 6.00 Build 0)  -->
<svg version="1.1" id="레이어_1" xmlns="http://www.w3.org/2000/svg" xmlns:xlink="http://www.w3.org/1999/xlink" x="0px"
	 y="0px" viewBox="0 0 221.697 493.532" enable-background="new 0 0 221.697 493.532" xml:space="preserve">
<rect x="0.25" y="447.347" fill="#F9D2D3" stroke="#000000" stroke-width="0.5" stroke-miterlimit="10" width="221.197" height="45.935"/>
<polygon fill="#F8CDCD" stroke="#000000" stroke-width="0.5" stroke-miterlimit="10" points="221.447,29.669 221.447,0.25 
	0.25,0.25 0.25,29.669 105.687,29.669 105.687,35.282 100.998,35.282 110.848,44.96 120.698,35.282 116.009,35.282 116.009,29.669 
	"/>
<g>
	<path d="M92.221,3.814h1.463c0,0.682-0.077,1.342-0.231,1.98c0.627,0.968,1.673,1.893,2.685,2.465l-0.869,1.078
		c-0.825-0.473-1.694-1.254-2.354-2.046c-0.429,0.913-1.056,1.694-1.837,2.255L89.988,8.61C91.428,7.577,92.221,5.937,92.221,3.814z
		 M98.734,9.942v3.477h-1.452v-2.167h-6.558V9.942H98.734z M97.282,9.469V3.814h1.452v5.655H97.282z"/>
	<path d="M106.159,7.951v1.232h-5.743V3.968h5.171v1.254h-3.707v2.729H106.159z M108.635,11.933v1.331h-8.01V10.14h1.452v1.793
		H108.635z M109.669,6.421v1.386h-1.232v3.047h-1.463V3.814h1.463v2.607H109.669z"/>
	<path d="M117.708,3.968v5.435H112.9V3.968h1.397v1.529h2.014V3.968H117.708z M121.328,11.933v1.331h-8.119v-3.025h1.463v1.694
		H121.328z M114.298,8.182h2.014V6.707h-2.014V8.182z M121.119,3.814v7.041h-1.452V8.5h-1.541V7.202h1.541V6.234h-1.541V4.925h1.541
		V3.814H121.119z"/>
	<path d="M128.785,11.625v1.331h-6.348v-1.331h2.387v-1.243h1.464v1.243H128.785z M128.444,4.364v1.199h-5.854V4.364h2.179V3.451
		h1.496v0.913H128.444z M128.125,7.995c0,1.243-1.013,2.123-2.53,2.123h-0.11c-1.529,0-2.53-0.88-2.53-2.123
		c0-1.232,1.001-2.112,2.53-2.112h0.11C127.112,5.882,128.125,6.762,128.125,7.995z M126.694,7.995c0-0.539-0.429-0.979-1.1-0.979
		h-0.11c-0.671,0-1.111,0.44-1.111,0.979c0,0.561,0.44,0.979,1.111,0.979h0.11C126.265,8.974,126.694,8.556,126.694,7.995z
		 M130.82,8.787v4.533h-1.463V3.814h1.463V7.39h1.232v1.397H130.82z"/>
	<path d="M53.05,18.972v5.589c0,0.715,0.253,0.924,1.034,0.924v1.342c-1.793,0-2.486-0.539-2.486-2.167v-5.787
		c0-1.628,0.693-2.179,2.486-2.179v1.354C53.302,18.048,53.05,18.246,53.05,18.972z"/>
	<path d="M63.885,24.814v1.342h-9.098v-1.342h2.948v-3.983h1.463v3.983H63.885z M63.424,23.835h-1.463V18.51H55.25v-1.342h8.174
		V23.835z"/>
	<path d="M65.05,17.168h5.281v1.332h-2.079c-0.022,0.825-0.077,1.617-0.198,2.376c0.572,1.628,1.562,3.224,2.827,4.357l-1.122,0.924
		c-0.88-0.858-1.64-1.969-2.211-3.102c-0.374,1.155-0.913,2.222-1.617,3.179l-1.299-0.704c1.508-2.057,2.123-4.203,2.168-7.03h-1.75
		V17.168z M73.268,17.014v9.505h-1.452v-9.505H73.268z"/>
	<path d="M80.033,17.168v5.028H74.95v-5.028h1.397v1.332h2.3v-1.332H80.033z M80.76,26.619h-3.312c-1.519,0-2.398-0.682-2.398-1.871
		c0-1.111,0.88-1.892,2.398-1.892h3.312c1.528,0,2.409,0.781,2.409,1.892C83.169,25.936,82.288,26.619,80.76,26.619z M76.347,20.986
		h2.3v-1.288h-2.3V20.986z M77.448,25.386h3.312c0.594,0,0.913-0.253,0.913-0.638c0-0.407-0.319-0.66-0.913-0.66h-3.312
		c-0.572,0-0.892,0.253-0.892,0.66C76.556,25.133,76.876,25.386,77.448,25.386z M84.203,19.093v1.386H82.97v2.223h-1.463v-5.688
		h1.463v2.079H84.203z"/>
	<path d="M84.454,27.037l-0.363-0.726c0.55-0.242,0.671-0.594,0.671-1.408v-0.55h1.606v0.66
		C86.368,26.233,85.752,26.904,84.454,27.037z"/>
	<path d="M99.03,24.814v1.342h-9.098v-1.342h2.948v-3.983h1.463v3.983H99.03z M98.568,23.835h-1.463V18.51h-6.711v-1.342h8.174
		V23.835z"/>
	<path d="M104.804,20.942v1.342h-4.853v-1.342H104.804z"/>
	<path d="M111.669,21.657v1.221h-5.589v-5.71h5.083v1.221h-3.675v1.012h3.576V20.6h-3.576v1.056H111.669z M114.299,25.133v1.331
		h-8.01v-2.938h1.452v1.606H114.299z M115.333,19.621v1.386H114.1v3.103h-1.463v-7.096h1.463v2.607H115.333z"/>
	<path d="M116.276,21.404l-0.715-1.188c1.959-0.352,3.531-1.606,4.071-3.256l1.507,0.308c-0.088,0.275-0.198,0.55-0.33,0.814
		c0.99,0.913,2.486,1.573,3.961,1.837c-0.231,0.396-0.451,0.814-0.672,1.221c-1.396-0.253-2.992-1.023-4.048-1.936
		C119.082,20.336,117.696,21.14,116.276,21.404z M124.715,22.438v1.342h-3.773v2.838h-1.551V23.78h-3.773v-1.342H124.715z"/>
	<path d="M131.865,24.825v1.331h-6.348v-1.331h2.387v-1.243h1.464v1.243H131.865z M131.524,17.564v1.199h-5.854v-1.199h2.179v-0.913
		h1.496v0.913H131.524z M131.205,21.195c0,1.243-1.013,2.123-2.53,2.123h-0.11c-1.529,0-2.53-0.88-2.53-2.123
		c0-1.232,1.001-2.112,2.53-2.112h0.11C130.192,19.082,131.205,19.962,131.205,21.195z M129.774,21.195
		c0-0.539-0.429-0.979-1.1-0.979h-0.11c-0.671,0-1.111,0.44-1.111,0.979c0,0.561,0.44,0.979,1.111,0.979h0.11
		C129.345,22.174,129.774,21.756,129.774,21.195z M133.9,21.987v4.533h-1.463v-9.505h1.463v3.576h1.232v1.397H133.9z"/>
	<path d="M144.151,25.375v1.089h-8.272v-2.651h6.711V23.34h-6.711v-1.089h3.312v-0.55h-3.773v-1.1h9.098v1.1h-3.861v0.55h3.399
		v2.651h-6.711v0.473H144.151z M144.052,17.168v2.959h-8.174v-2.959H144.052z M137.342,19.049h5.248v-0.803h-5.248V19.049z"/>
	<path d="M149.969,17.014h1.463c0,0.682-0.077,1.342-0.231,1.98c0.627,0.968,1.673,1.893,2.685,2.465l-0.869,1.078
		c-0.825-0.473-1.694-1.254-2.354-2.046c-0.429,0.913-1.056,1.694-1.837,2.255l-1.089-0.936
		C149.177,20.777,149.969,19.137,149.969,17.014z M156.482,23.142v3.477h-1.452v-2.167h-6.558v-1.309H156.482z M155.03,22.669
		v-5.655h1.452v5.655H155.03z"/>
	<path d="M163.907,21.151v1.232h-5.743v-5.215h5.171v1.254h-3.707v2.729H163.907z M166.383,25.133v1.331h-8.01V23.34h1.452v1.793
		H166.383z M167.417,19.621v1.386h-1.232v3.047h-1.463v-7.041h1.463v2.607H167.417z"/>
	<path d="M168.636,24.561v-5.589c0-0.726-0.253-0.924-1.023-0.924v-1.354c1.771,0,2.476,0.55,2.476,2.179v5.787
		c0,1.628-0.704,2.167-2.476,2.167v-1.342C168.384,25.485,168.636,25.276,168.636,24.561z"/>
</g>
<polygon fill="#FBDBC1" stroke="#000000" stroke-width="0.5" stroke-miterlimit="10" points="221.447,74.379 221.447,44.96 
	0.25,44.96 0.25,74.379 105.687,74.379 105.687,79.992 100.998,79.992 110.848,89.669 120.698,79.992 116.009,79.992 
	116.009,74.379 "/>
<g>
	<path d="M59.469,54.994v8.934h-4.896v-8.934H59.469z M55.981,62.607h2.08v-6.282h-2.08V62.607z M62.594,59.812v4.533h-1.463V54.84
		h1.463v3.576h1.232v1.397H62.594z"/>
	<path d="M64.375,61.143v-3.355c0-1.881,1.034-2.904,2.597-2.904c1.584,0,2.618,1.023,2.618,2.904v3.355
		c0,1.871-1.034,2.882-2.618,2.882C65.409,64.026,64.375,63.014,64.375,61.143z M65.772,57.788v3.355
		c0,1.067,0.429,1.562,1.199,1.562c0.78,0,1.21-0.495,1.21-1.562v-3.355c0-1.056-0.43-1.562-1.21-1.562
		C66.201,56.226,65.772,56.732,65.772,57.788z M72.692,54.84v9.505H71.24V54.84H72.692z"/>
	<path d="M83.108,62.64v1.342H74.01V62.64H83.108z M82.646,61.87h-1.463v-1.925h-6.711v-1.331h6.711v-2.277h-6.711v-1.342h8.174
		V61.87z"/>
	<path d="M93.009,62.651v1.331h-9.098v-1.331h3.762V61.32h1.541v1.331H93.009z M92.645,59.681v1.265h-8.272v-3.631h6.711v-1.056
		h-6.711v-1.265h8.174v3.564h-6.711v1.123H92.645z"/>
	<path d="M99.069,54.994v8.934h-4.896v-8.934h1.408v2.838h2.08v-2.838H99.069z M95.581,62.607h2.08v-3.433h-2.08V62.607z
		 M102.193,59.812v4.533h-1.463V54.84h1.463v3.576h1.232v1.397H102.193z"/>
	<path d="M103.974,61.143v-3.355c0-1.881,1.034-2.904,2.597-2.904c1.584,0,2.618,1.023,2.618,2.904v3.355
		c0,1.871-1.034,2.882-2.618,2.882C105.009,64.026,103.974,63.014,103.974,61.143z M105.372,57.788v3.355
		c0,1.067,0.429,1.562,1.199,1.562c0.78,0,1.21-0.495,1.21-1.562v-3.355c0-1.056-0.43-1.562-1.21-1.562
		C105.801,56.226,105.372,56.732,105.372,57.788z M112.292,54.84v9.505h-1.452V54.84H112.292z"/>
	<path d="M113.61,60.34v-1.177h3.784V58.47h-0.99c-1.606,0-2.432-0.627-2.432-1.815c0-1.089,0.825-1.815,2.432-1.815h3.521
		c1.596,0,2.42,0.726,2.42,1.815c0,1.188-0.824,1.815-2.42,1.815h-1.067v0.693h3.851v1.177H113.61z M114.072,64.29v-3.3h8.174v3.3
		H114.072z M119.914,56.028h-3.499c-0.627,0-0.957,0.242-0.957,0.627c0,0.374,0.286,0.627,0.957,0.627h3.499
		c0.671,0,0.935-0.253,0.935-0.627C120.848,56.27,120.585,56.028,119.914,56.028z M120.783,63.135v-0.99h-5.248v0.99H120.783z"/>
	<path d="M135.193,62.64v1.342h-9.098V62.64h3.762v-2.42h1.541v2.42H135.193z M126.887,60.715l-0.737-1.167
		c1.76-0.528,3.201-1.617,3.796-3.212h-3.389v-1.342h8.174v1.342h-3.212c-0.077,0.297-0.188,0.572-0.309,0.847
		c0.957,1.023,2.376,1.738,3.938,2.09l-0.648,1.21c-1.519-0.363-2.981-1.122-4.027-2.112
		C129.56,59.494,128.262,60.308,126.887,60.715z"/>
	<path d="M138.008,54.84h1.464c0,0.605-0.066,1.21-0.21,1.793c0.639,0.891,1.684,1.706,2.718,2.223l-0.814,1.111
		c-0.857-0.429-1.771-1.133-2.431-1.87c-0.418,0.836-1.001,1.562-1.771,2.112l-1.133-0.891
		C137.303,58.294,138.008,56.721,138.008,54.84z M138.998,60.528h3.257c1.518,0,2.475,0.803,2.475,1.958
		c0,1.265-0.957,1.958-2.475,1.958h-3.257c-1.529,0-2.486-0.693-2.486-1.958C136.511,61.33,137.469,60.528,138.998,60.528z
		 M142.255,61.76h-3.257c-0.605,0-0.99,0.297-0.99,0.726c0,0.44,0.385,0.726,0.99,0.726h3.257c0.583,0,0.979-0.286,0.979-0.726
		C143.233,62.057,142.838,61.76,142.255,61.76z M143.124,56.259V54.84h1.452v5.38h-1.452v-2.663h-2.179v-1.298H143.124z"/>
	<path d="M153.65,54.994v5.435h-4.808v-5.435h1.397v1.529h2.014v-1.529H153.65z M157.27,62.959v1.331h-8.119v-3.025h1.463v1.694
		H157.27z M150.24,59.207h2.014v-1.474h-2.014V59.207z M157.061,54.84v7.041h-1.452v-2.354h-1.54v-1.298h1.54V57.26h-1.54v-1.309
		h1.54V54.84H157.061z"/>
	<path d="M164.727,62.651v1.331h-6.348v-1.331h2.387v-1.243h1.464v1.243H164.727z M164.386,55.39v1.199h-5.854V55.39h2.179v-0.913
		h1.496v0.913H164.386z M164.067,59.02c0,1.243-1.013,2.123-2.53,2.123h-0.11c-1.529,0-2.53-0.88-2.53-2.123
		c0-1.232,1.001-2.112,2.53-2.112h0.11C163.054,56.908,164.067,57.788,164.067,59.02z M162.636,59.02c0-0.539-0.429-0.979-1.1-0.979
		h-0.11c-0.671,0-1.111,0.44-1.111,0.979c0,0.561,0.44,0.979,1.111,0.979h0.11C162.208,59.999,162.636,59.581,162.636,59.02z
		 M166.762,59.812v4.533H165.3V54.84h1.463v3.576h1.232v1.397H166.762z"/>
</g>
<g>
	<polygon fill="#CBE9F5" stroke="#000000" stroke-width="0.5" stroke-miterlimit="10" points="221.447,119.089 221.447,89.669 
		0.25,89.669 0.25,119.089 105.687,119.089 105.687,124.702 100.998,124.702 110.848,134.379 120.698,124.702 116.009,124.702 
		116.009,119.089 	"/>
	<g>
		<path d="M72.916,100.946c-0.032,0.275-0.076,0.55-0.143,0.814c0.605,0.858,1.485,1.628,2.486,2.145l-0.869,1.056
			c-0.814-0.462-1.584-1.1-2.179-1.804c-0.473,0.836-1.144,1.518-1.947,2.024c-0.352-0.308-0.704-0.605-1.045-0.924
			c1.266-0.759,2.047-1.837,2.256-3.312h-1.838v-1.243h5.16v1.243H72.916z M75.447,109.154h-3.312c-1.519,0-2.398-0.682-2.398-1.871
			c0-1.111,0.88-1.892,2.398-1.892h3.312c1.528,0,2.409,0.781,2.409,1.892C77.856,108.472,76.975,109.154,75.447,109.154z
			 M72.135,107.921h3.08c0.715,0,1.145-0.176,1.145-0.638c0-0.484-0.43-0.66-1.145-0.66h-2.827c-0.737,0-1.145,0.165-1.145,0.66
			C71.244,107.668,71.563,107.921,72.135,107.921z M78.89,101.628v1.386h-1.232v2.167h-1.463v-5.633h1.463v2.079H78.89z"/>
		<path d="M79.538,108.637v-8.934h1.464v7.602h2.244v1.332H79.538z M87.757,99.549v9.505h-1.452v-4.533H85.27v4.423h-1.441v-9.352
			h1.441v3.598h1.034v-3.642H87.757z"/>
		<path d="M96.324,108.273H91.78v-8.361h1.453v7.03h3.091V108.273z"/>
		<path d="M102.011,102.63c0,1.727-0.925,2.706-2.685,2.706h-0.924v2.938H96.95v-8.361h2.377
			C101.087,99.912,102.011,100.892,102.011,102.63z M100.559,102.63c0-1.012-0.495-1.375-1.343-1.375h-0.813v2.74h0.813
			C100.064,103.994,100.559,103.631,100.559,102.63z"/>
		<path d="M107.566,102.024h-1.452c-0.022-0.55-0.309-0.88-0.979-0.88c-0.704,0-1.067,0.319-1.067,0.935
			c0,0.682,0.353,0.99,1.023,1.166l0.517,0.132c1.431,0.374,2.168,1.177,2.168,2.53c0,1.595-0.979,2.464-2.574,2.464h-0.198
			c-1.573,0-2.465-0.737-2.498-2.244h1.453c0.032,0.616,0.385,0.913,1.045,0.913h0.198c0.736,0,1.122-0.363,1.122-1.067
			c0-0.726-0.298-1.133-1.023-1.309l-0.518-0.121c-1.353-0.319-2.178-0.968-2.178-2.464c0-1.419,0.88-2.277,2.53-2.277
			C106.741,99.802,107.522,100.605,107.566,102.024z"/>
		<path d="M111.492,102.828v-3.234h1.463v2.057h6.788v1.177h-3.466v0.847h3.851v1.21h-9.098v-1.21h3.784v-0.847H111.492z
			 M117.344,109.154h-3.521c-1.551,0-2.432-0.649-2.432-1.815c0-1.144,0.881-1.848,2.432-1.848h3.521c1.551,0,2.42,0.704,2.42,1.848
			C119.764,108.504,118.895,109.154,117.344,109.154z M113.835,107.987h3.224c0.792,0,1.21-0.176,1.21-0.649
			c0-0.506-0.418-0.682-1.21-0.682h-2.959c-0.748,0-1.211,0.176-1.211,0.682C112.888,107.702,113.164,107.987,113.835,107.987z"/>
		<path d="M130.028,107.35v1.342h-9.098v-1.342h3.762v-2.002h1.541v2.002H130.028z M129.665,103.532v1.342h-8.272v-5.171h8.174
			v1.342h-6.711v2.486H129.665z"/>
		<path d="M133.415,103.906h9.098v1.188h-9.098V103.906z M142.051,99.703v1.188h-3.092c-0.099,0.154-0.209,0.297-0.33,0.44
			c1.034,0.605,2.41,0.968,3.785,1.067l-0.562,1.089c-1.408-0.132-3.003-0.605-4.114-1.32c-1.023,0.792-2.344,1.31-3.587,1.452
			l-0.627-1.067c1.464-0.165,2.806-0.748,3.741-1.661h-3.389v-1.188H142.051z M142.149,107.415c0,1.122-0.901,1.738-2.42,1.738
			h-3.521c-1.529,0-2.432-0.616-2.432-1.738c0-1.089,0.902-1.75,2.432-1.75h3.521C141.248,105.666,142.149,106.326,142.149,107.415z
			 M140.653,107.415c0-0.363-0.297-0.594-1.001-0.594h-3.377c-0.649,0-1.002,0.231-1.002,0.594c0,0.352,0.309,0.583,1.002,0.583
			h3.377C140.356,107.998,140.653,107.767,140.653,107.415z"/>
		<path d="M143.733,99.703h4.599v2.299c0,2.838-1.464,5.27-4.071,6.645l-1.001-1.056c2.321-1.133,3.608-3.125,3.608-5.391v-1.166
			h-3.135V99.703z M151.698,104.522v4.533h-1.463v-9.505h1.463v3.576h1.232v1.397H151.698z"/>
	</g>
</g>
<g>
	<polygon fill="#E3DAEC" stroke="#000000" stroke-width="0.5" stroke-miterlimit="10" points="221.447,163.798 221.447,134.379 
		0.25,134.379 0.25,163.798 105.687,163.798 105.687,169.411 100.998,169.411 110.848,179.089 120.698,169.411 116.009,169.411 
		116.009,163.798 	"/>
	<g>
		<path d="M41.71,145.656c-0.033,0.275-0.077,0.55-0.144,0.814c0.605,0.858,1.485,1.628,2.486,2.145l-0.869,1.056
			c-0.813-0.462-1.584-1.1-2.178-1.804c-0.474,0.836-1.145,1.518-1.947,2.024c-0.353-0.308-0.704-0.605-1.046-0.924
			c1.266-0.759,2.047-1.837,2.256-3.312h-1.837v-1.243h5.159v1.243H41.71z M44.24,153.864h-3.312c-1.519,0-2.398-0.682-2.398-1.871
			c0-1.111,0.88-1.892,2.398-1.892h3.312c1.528,0,2.409,0.781,2.409,1.892C46.649,153.182,45.768,153.864,44.24,153.864z
			 M40.928,152.631h3.08c0.715,0,1.145-0.176,1.145-0.638c0-0.484-0.43-0.66-1.145-0.66h-2.827c-0.737,0-1.145,0.165-1.145,0.66
			C40.037,152.378,40.356,152.631,40.928,152.631z M47.683,146.338v1.386h-1.232v2.167h-1.463v-5.633h1.463v2.079H47.683z"/>
		<path d="M48.331,153.347v-8.934h1.464v7.602h2.244v1.332H48.331z M56.55,144.259v9.505h-1.452v-4.533h-1.034v4.423h-1.441v-9.352
			h1.441v3.598h1.034v-3.642H56.55z"/>
		<path d="M60.562,146.614c0-1.375,1.101-2.354,2.597-2.354c1.507,0,2.618,0.979,2.618,2.354c0,1.364-1.111,2.343-2.618,2.343
			C61.663,148.957,60.562,147.977,60.562,146.614z M69.034,152.664v1.1h-8.01v-2.761h6.349v-0.572h-6.349v-1.111h7.812v2.762h-6.359
			v0.583H69.034z M62.004,146.614c0,0.671,0.484,1.122,1.155,1.122s1.177-0.451,1.177-1.122c0-0.671-0.506-1.123-1.177-1.123
			S62.004,145.942,62.004,146.614z M70.068,145.986v1.375h-1.232v1.584h-1.463v-4.687h1.463v1.727H70.068z"/>
		<path d="M70.715,144.413h4.753v0.693c0,2.2-1.87,3.785-4.653,4.004l-0.507-1.012c1.134-0.099,2.091-0.385,2.762-0.88h-2.354
			v-1.045h3.202c0.076-0.198,0.132-0.418,0.165-0.649h-3.367V144.413z M78.933,152.664v1.1h-8.01v-2.761h6.349v-0.572h-6.349v-1.111
			h7.812v2.762h-6.359v0.583H78.933z M79.968,145.986v1.375h-1.232v1.584h-1.463v-4.687h1.463v1.727H79.968z"/>
		<path d="M86.051,152.026v1.32h-5.436v-5.27h3.378v-2.332h-3.378v-1.332h4.841v4.995h-3.377v2.618H86.051z M88.635,149.232v4.533
			h-1.463v-9.505h1.463v3.576h1.232v1.397H88.635z"/>
		<path d="M90.262,147.229v-0.407c0-1.485,1.122-2.563,2.685-2.563s2.685,1.078,2.685,2.563v0.407c0,1.475-1.122,2.563-2.685,2.563
			S90.262,148.704,90.262,147.229z M98.887,152.378v1.331h-8.063v-3.125h1.463v1.793H98.887z M91.704,146.823v0.407
			c0,0.748,0.484,1.332,1.243,1.332c0.748,0,1.243-0.583,1.243-1.332v-0.407c0-0.759-0.495-1.332-1.243-1.332
			C92.188,145.491,91.704,146.063,91.704,146.823z M98.734,144.259v7.041h-1.452v-7.041H98.734z"/>
		<path d="M111.735,152.059v1.342h-9.098v-1.342h3.762v-1.738h1.541v1.738H111.735z M111.372,148.516v1.32H103v-1.32h1.496v-2.244
			h1.508v2.244h2.079c0.176-0.748,0.374-1.485,0.562-2.244h1.529l-0.572,2.244H111.372z M111.273,144.413v1.342h-8.174v-1.342
			H111.273z"/>
		<path d="M113.373,149.925l-0.892-1.133c2.168-0.77,3.652-2.464,4.026-4.588l1.519,0.253c-0.077,0.506-0.23,1.001-0.44,1.475
			c1.013,1.177,2.476,2.068,4.104,2.486l-0.793,1.177c-1.562-0.418-2.981-1.298-4.026-2.398
			C115.991,148.44,114.725,149.43,113.373,149.925z M121.635,152.059v1.342h-9.098v-1.342H121.635z"/>
		<path d="M128.641,152.037v1.31h-5.94v-1.31h0.792v-5.457h1.397v5.457h0.77l0.66-5.457h1.397l-0.66,5.457H128.641z
			 M128.334,144.413v1.332H122.8v-1.332H128.334z M130.82,149.232v4.533h-1.463v-9.505h1.463v3.576h1.232v1.397H130.82z"/>
		<path d="M138.135,153.347H132.7v-8.934h4.896v1.332h-3.433v2.277h3.433v1.331h-3.433v2.673h3.972V153.347z M140.72,149.232v4.533
			h-1.463v-9.505h1.463v3.576h1.232v1.397H140.72z"/>
		<path d="M142.501,150.563v-3.355c0-1.881,1.034-2.904,2.597-2.904c1.584,0,2.618,1.023,2.618,2.904v3.355
			c0,1.871-1.034,2.882-2.618,2.882C143.535,153.445,142.501,152.433,142.501,150.563z M143.898,147.207v3.355
			c0,1.067,0.429,1.562,1.199,1.562c0.78,0,1.21-0.495,1.21-1.562v-3.355c0-1.056-0.43-1.562-1.21-1.562
			C144.327,145.645,143.898,146.151,143.898,147.207z M150.62,149.232v4.533h-1.463v-9.505h1.463v3.576h1.232v1.397H150.62z"/>
		<path d="M152.5,144.413h4.082v1.332h-1.397c-0.011,0.748-0.044,1.463-0.121,2.145c0.418,1.628,1.122,3.301,2.102,4.665
			c-0.396,0.231-0.781,0.484-1.177,0.704c-0.539-0.814-1.013-1.793-1.387-2.783c-0.275,1.056-0.682,2.046-1.21,3.003l-1.31-0.495
			c1.232-2.222,1.684-4.356,1.717-7.239H152.5V144.413z M158.594,144.303v9.352h-1.375v-4.643h-1.309v-1.331h1.309v-3.377H158.594z
			 M160.719,153.765h-1.397v-9.505h1.397V153.765z"/>
		<path d="M164.984,144.413h4.753v0.792c0,2.376-2.046,4.015-4.653,4.279l-0.562-1.188c1.947-0.22,3.477-1.078,3.74-2.607h-3.278
			V144.413z M173.005,149.925v3.785h-7.812v-3.785H173.005z M166.645,152.488h4.896v-1.342h-4.896V152.488z M174.237,146.129v1.386
			h-1.232v1.98h-1.463v-5.237h1.463v1.87H174.237z"/>
		<path d="M175.358,149.925l-0.892-1.133c2.168-0.77,3.652-2.464,4.026-4.588l1.519,0.253c-0.077,0.506-0.23,1.001-0.44,1.475
			c1.013,1.177,2.476,2.068,4.104,2.486l-0.793,1.177c-1.562-0.418-2.981-1.298-4.026-2.398
			C177.976,148.44,176.711,149.43,175.358,149.925z M183.62,152.059v1.342h-9.098v-1.342h3.762v-2.619h1.541v2.619H183.62z"/>
	</g>
</g>
<g>
	<polygon fill="#E7F1D0" stroke="#000000" stroke-width="0.5" stroke-miterlimit="10" points="221.447,208.508 221.447,179.089 
		0.25,179.089 0.25,208.508 105.687,208.508 105.687,214.121 100.998,214.121 110.848,223.798 120.698,214.121 116.009,214.121 
		116.009,208.508 	"/>
	<g>
		<path d="M82.601,190.366c-0.032,0.275-0.076,0.55-0.143,0.814c0.605,0.858,1.485,1.628,2.486,2.145l-0.869,1.056
			c-0.814-0.462-1.584-1.1-2.179-1.804c-0.473,0.836-1.144,1.518-1.947,2.024c-0.352-0.308-0.704-0.605-1.045-0.924
			c1.266-0.759,2.047-1.837,2.256-3.312h-1.838v-1.243h5.16v1.243H82.601z M85.133,198.573h-3.312c-1.519,0-2.398-0.682-2.398-1.871
			c0-1.111,0.88-1.892,2.398-1.892h3.312c1.528,0,2.409,0.781,2.409,1.892C87.542,197.891,86.661,198.573,85.133,198.573z
			 M81.821,197.341h3.08c0.715,0,1.145-0.176,1.145-0.638c0-0.484-0.43-0.66-1.145-0.66h-2.827c-0.737,0-1.145,0.165-1.145,0.66
			C80.929,197.088,81.249,197.341,81.821,197.341z M88.576,191.048v1.386h-1.232v2.167h-1.463v-5.633h1.463v2.079H88.576z"/>
		<path d="M89.223,198.056v-8.934h1.464v7.602h2.244v1.332H89.223z M97.442,188.969v9.505H95.99v-4.533h-1.034v4.423h-1.441v-9.352
			h1.441v3.598h1.034v-3.642H97.442z"/>
		<path d="M101.455,191.532c0-1.485,1.078-2.563,2.63-2.563c1.551,0,2.64,1.078,2.64,2.563c0,1.463-1.089,2.552-2.64,2.552
			C102.533,194.084,101.455,192.995,101.455,191.532z M109.927,194.634v3.785h-7.91v-3.785H109.927z M102.896,191.532
			c0,0.737,0.451,1.32,1.188,1.32c0.736,0,1.188-0.583,1.188-1.32c0-0.759-0.451-1.332-1.188-1.332
			C103.347,190.201,102.896,190.773,102.896,191.532z M103.479,197.187h4.995v-1.32h-4.995V197.187z M109.927,188.969v5.281h-1.452
			v-0.968H107v-1.298h1.475v-0.902H107v-1.287h1.475v-0.825H109.927z"/>
		<path d="M111.245,193.325h9.098v1.188h-9.098V193.325z M119.881,189.122v1.188h-3.092c-0.099,0.154-0.209,0.297-0.33,0.44
			c1.034,0.605,2.41,0.968,3.785,1.067l-0.562,1.089c-1.408-0.132-3.003-0.605-4.114-1.32c-1.023,0.792-2.344,1.31-3.587,1.452
			l-0.627-1.067c1.464-0.165,2.806-0.748,3.741-1.661h-3.389v-1.188H119.881z M119.979,196.835c0,1.122-0.901,1.738-2.42,1.738
			h-3.521c-1.529,0-2.432-0.616-2.432-1.738c0-1.089,0.902-1.75,2.432-1.75h3.521C119.078,195.085,119.979,195.745,119.979,196.835z
			 M118.483,196.835c0-0.363-0.297-0.594-1.001-0.594h-3.377c-0.649,0-1.002,0.231-1.002,0.594c0,0.352,0.309,0.583,1.002,0.583
			h3.377C118.186,197.418,118.483,197.187,118.483,196.835z"/>
		<path d="M123.73,193.325h9.098v1.188h-9.098V193.325z M132.366,189.122v1.188h-3.092c-0.099,0.154-0.209,0.297-0.33,0.44
			c1.034,0.605,2.41,0.968,3.785,1.067l-0.562,1.089c-1.408-0.132-3.003-0.605-4.114-1.32c-1.023,0.792-2.344,1.31-3.587,1.452
			l-0.627-1.067c1.464-0.165,2.806-0.748,3.741-1.661h-3.389v-1.188H132.366z M132.465,196.835c0,1.122-0.901,1.738-2.42,1.738
			h-3.521c-1.529,0-2.432-0.616-2.432-1.738c0-1.089,0.902-1.75,2.432-1.75h3.521C131.563,195.085,132.465,195.745,132.465,196.835z
			 M130.969,196.835c0-0.363-0.297-0.594-1.001-0.594h-3.377c-0.649,0-1.002,0.231-1.002,0.594c0,0.352,0.309,0.583,1.002,0.583
			h3.377C130.672,197.418,130.969,197.187,130.969,196.835z"/>
		<path d="M134.048,189.122h4.599v2.299c0,2.838-1.464,5.27-4.071,6.645l-1.001-1.056c2.321-1.133,3.608-3.125,3.608-5.391v-1.166
			h-3.135V189.122z M142.012,193.941v4.533h-1.463v-9.505h1.463v3.576h1.232v1.397H142.012z"/>
	</g>
</g>
<g>
	<polygon fill="#F7C6C5" stroke="#000000" stroke-width="0.5" stroke-miterlimit="10" points="221.447,253.218 221.447,223.798 
		0.25,223.798 0.25,253.218 105.687,253.218 105.687,258.831 100.998,258.831 110.848,268.508 120.698,258.831 116.009,258.831 
		116.009,253.218 	"/>
	<g>
		<path d="M65.173,234.041v1.111h-5.743v-1.111h2.09v-0.726h1.464v0.726H65.173z M62.697,238.64h-0.858
			c-1.21,0-2.046-0.605-2.046-1.606s0.836-1.606,2.046-1.606h0.858c1.221,0,2.057,0.605,2.057,1.606S63.918,238.64,62.697,238.64z
			 M68.165,242.117v1.067h-8.119v-2.619h6.458v-0.495h-6.458v-1.067h7.91v2.618h-6.447v0.495H68.165z M61.839,237.584h0.748
			c0.495,0,0.771-0.187,0.771-0.55c0-0.308-0.231-0.561-0.66-0.561h-0.76c-0.495,0-0.748,0.198-0.748,0.561
			C61.189,237.353,61.41,237.584,61.839,237.584z M67.956,233.679v4.939h-1.452v-0.429h-1.387v-1.177h1.387v-0.605h-1.387v-1.167
			h1.387v-1.562H67.956z"/>
		<path d="M69.385,236.935v-1.144c0-1.254,0.869-2.112,2.168-2.112c1.287,0,2.167,0.858,2.167,2.112v1.144
			c0,1.265-0.88,2.112-2.167,2.112C70.254,239.047,69.385,238.2,69.385,236.935z M77.856,239.807v3.477h-1.452v-2.167h-6.558v-1.309
			H77.856z M70.749,235.791v1.144c0,0.517,0.309,0.891,0.804,0.891s0.792-0.374,0.792-0.891v-1.144c0-0.517-0.297-0.88-0.792-0.88
			S70.749,235.274,70.749,235.791z M77.856,233.679v5.666h-1.397v-2.288h-0.803v2.288h-1.364v-5.622h1.364v2.057h0.803v-2.101
			H77.856z"/>
		<path d="M79.537,242.766v-8.934h1.464v7.602h2.244v1.332H79.537z M87.756,233.679v9.505h-1.452v-4.533h-1.034v4.423h-1.441v-9.352
			h1.441v3.598h1.034v-3.642H87.756z"/>
		<path d="M96.323,242.403h-4.544v-8.361h1.453v7.03h3.091V242.403z"/>
		<path d="M102.01,236.759c0,1.727-0.925,2.706-2.685,2.706h-0.924v2.938h-1.453v-8.361h2.377
			C101.086,234.041,102.01,235.021,102.01,236.759z M100.558,236.759c0-1.012-0.495-1.375-1.343-1.375h-0.813v2.74h0.813
			C100.063,238.123,100.558,237.76,100.558,236.759z"/>
		<path d="M107.566,236.154h-1.452c-0.022-0.55-0.309-0.88-0.979-0.88c-0.704,0-1.067,0.319-1.067,0.935
			c0,0.682,0.353,0.99,1.023,1.166l0.517,0.132c1.431,0.374,2.168,1.177,2.168,2.53c0,1.595-0.979,2.464-2.574,2.464h-0.198
			c-1.573,0-2.465-0.737-2.498-2.244h1.453c0.032,0.616,0.385,0.913,1.045,0.913h0.198c0.736,0,1.122-0.363,1.122-1.067
			c0-0.726-0.298-1.133-1.023-1.309l-0.518-0.121c-1.353-0.319-2.178-0.968-2.178-2.464c0-1.419,0.88-2.277,2.53-2.277
			C106.741,233.932,107.522,234.735,107.566,236.154z"/>
		<path d="M108.445,242.821v-1.331h6.502v1.331H108.445z M114.396,236.418c0,1.584-1.122,2.739-2.85,2.739
			c-1.737,0-2.838-1.155-2.838-2.739c0-1.573,1.101-2.739,2.838-2.739C113.274,233.679,114.396,234.845,114.396,236.418z
			 M112.977,236.418c0-0.858-0.55-1.507-1.431-1.507c-0.88,0-1.43,0.649-1.43,1.507c0,0.858,0.55,1.507,1.43,1.507
			C112.427,237.925,112.977,237.276,112.977,236.418z M115.574,243.184v-9.505h1.452v9.505H115.574z"/>
		<path d="M121.391,236.957v-3.234h1.463v2.057h6.788v1.177h-3.466v0.847h3.851v1.21h-9.098v-1.21h3.784v-0.847H121.391z
			 M127.244,243.283h-3.521c-1.551,0-2.432-0.649-2.432-1.815c0-1.144,0.881-1.848,2.432-1.848h3.521c1.551,0,2.42,0.704,2.42,1.848
			C129.664,242.634,128.795,243.283,127.244,243.283z M123.734,242.117h3.224c0.792,0,1.21-0.176,1.21-0.649
			c0-0.506-0.418-0.682-1.21-0.682h-2.959c-0.748,0-1.211,0.176-1.211,0.682C122.788,241.831,123.063,242.117,123.734,242.117z"/>
		<path d="M139.927,241.479v1.342h-9.098v-1.342h3.762v-2.002h1.541v2.002H139.927z M139.564,237.661v1.342h-8.272v-5.171h8.174
			v1.342h-6.711v2.486H139.564z"/>
		<path d="M143.314,238.035h9.098v1.188h-9.098V238.035z M151.95,233.832v1.188h-3.092c-0.099,0.154-0.209,0.297-0.33,0.44
			c1.034,0.605,2.41,0.968,3.785,1.067l-0.562,1.089c-1.408-0.132-3.003-0.605-4.114-1.32c-1.023,0.792-2.344,1.31-3.587,1.452
			l-0.627-1.067c1.464-0.165,2.806-0.748,3.741-1.661h-3.389v-1.188H151.95z M152.049,241.545c0,1.122-0.901,1.738-2.42,1.738
			h-3.521c-1.529,0-2.432-0.616-2.432-1.738c0-1.089,0.902-1.75,2.432-1.75h3.521C151.147,239.795,152.049,240.455,152.049,241.545z
			 M150.552,241.545c0-0.363-0.297-0.594-1.001-0.594h-3.377c-0.649,0-1.002,0.231-1.002,0.594c0,0.352,0.309,0.583,1.002,0.583
			h3.377C150.256,242.128,150.552,241.897,150.552,241.545z"/>
		<path d="M153.633,233.832h4.599v2.299c0,2.838-1.464,5.27-4.071,6.645l-1.001-1.056c2.321-1.133,3.608-3.125,3.608-5.391v-1.166
			h-3.135V233.832z M161.597,238.651v4.533h-1.463v-9.505h1.463v3.576h1.232v1.397H161.597z"/>
	</g>
</g>
<g>
	<polygon fill="#FBDBC1" stroke="#000000" stroke-width="0.5" stroke-miterlimit="10" points="221.447,297.927 221.447,268.508 
		0.25,268.508 0.25,297.927 105.687,297.927 105.687,303.54 100.998,303.54 110.848,313.218 120.698,303.54 116.009,303.54 
		116.009,297.927 	"/>
	<g>
		<path d="M72.421,278.388h1.463c0,0.715-0.077,1.408-0.242,2.068c0.638,0.99,1.672,1.947,2.695,2.52l-0.869,1.089
			c-0.836-0.483-1.705-1.265-2.354-2.068c-0.439,0.925-1.067,1.717-1.837,2.277l-1.089-0.935
			C71.606,282.293,72.421,280.566,72.421,278.388z M71.023,287.838v-3.124h1.463v1.793h6.656v1.331H71.023z M77.481,280.214v-1.826
			h1.452v7.041h-1.452v-3.905h-2.179v-1.31H77.481z"/>
		<path d="M81.198,284.428l-1.001-0.979c1.387-0.648,2.288-1.881,2.476-3.201h-2.058v-1.243h2.014v-0.979h1.475v0.979h1.991v1.243
			h-1.97c-0.033,0.286-0.099,0.562-0.176,0.848c0.616,0.813,1.639,1.584,2.618,1.979l-0.814,1.09
			c-0.813-0.386-1.716-1.067-2.376-1.771C82.838,283.283,82.067,284.02,81.198,284.428z M89.043,287.838h-8.119v-3.025h1.463v1.694
			h6.656V287.838z M87.382,278.388h1.452v7.097h-1.452v-3.455h-1.694v-1.254h1.694V278.388z"/>
		<path d="M95.322,278.542v5.215h-4.808v-5.215H95.322z M98.886,286.507v1.331h-8.063v-3.124h1.463v1.793H98.886z M91.912,282.547
			h2.014v-2.772h-2.014V282.547z M98.733,278.388v7.041h-1.452v-2.432h-1.54v-1.309h1.54v-0.99h-1.54V279.4h1.54v-1.013H98.733z"/>
		<path d="M100.162,281.204v-0.253c0-1.485,1.078-2.563,2.63-2.563c1.54,0,2.64,1.078,2.64,2.563v0.253
			c0,1.475-1.1,2.553-2.64,2.553C101.24,283.757,100.162,282.679,100.162,281.204z M108.634,284.516v3.477h-1.452v-2.167h-6.558
			v-1.31H108.634z M101.603,280.951v0.253c0,0.748,0.451,1.331,1.188,1.331c0.736,0,1.188-0.583,1.188-1.331v-0.253
			c0-0.759-0.451-1.331-1.188-1.331C102.054,279.62,101.603,280.192,101.603,280.951z M107.181,279.312v-0.925h1.452v5.688h-1.452
			v-1.167h-1.475v-1.287h1.475v-1.012h-1.475v-1.298H107.181z"/>
		<path d="M109.952,287.53v-1.331h6.502v1.331H109.952z M115.903,281.127c0,1.585-1.122,2.739-2.85,2.739
			c-1.738,0-2.838-1.154-2.838-2.739c0-1.573,1.1-2.739,2.838-2.739C114.781,278.388,115.903,279.554,115.903,281.127z
			 M114.484,281.127c0-0.857-0.55-1.507-1.431-1.507c-0.88,0-1.43,0.649-1.43,1.507c0,0.858,0.55,1.508,1.43,1.508
			C113.934,282.635,114.484,281.985,114.484,281.127z M117.081,287.893v-9.506h1.452v9.506H117.081z"/>
		<path d="M124.759,282.349c-1.078-0.033-1.805-0.44-1.805-1.232c0-0.825,0.792-1.232,1.947-1.232h1.254
			c1.155,0,1.937,0.407,1.937,1.232c0,0.814-0.759,1.222-1.893,1.232v0.33h2.563v1.045h-6.325v-1.045h2.321V282.349z
			 M128.466,278.619v1.034h-5.853v-1.034h2.134v-0.595h1.496v0.595H128.466z M131.018,286.859v1.034h-8.01v-2.409h6.359v-0.363
			h-6.359v-1.034h7.812v2.398h-6.37v0.374H131.018z M124.901,281.392h1.145c0.385,0,0.638-0.056,0.638-0.275
			s-0.253-0.286-0.638-0.286H125c-0.385,0-0.627,0.066-0.627,0.286C124.373,281.304,124.56,281.392,124.901,281.392z
			 M132.052,280.522v1.375h-1.232v1.903h-1.463v-5.413h1.463v2.135H132.052z"/>
		<path d="M134.349,278.388h1.464c0,0.605-0.066,1.21-0.21,1.793c0.639,0.892,1.684,1.706,2.718,2.223l-0.814,1.111
			c-0.857-0.429-1.771-1.133-2.431-1.87c-0.418,0.836-1.001,1.562-1.771,2.112l-1.133-0.892
			C133.645,281.843,134.349,280.269,134.349,278.388z M135.34,284.076h3.257c1.518,0,2.475,0.803,2.475,1.958
			c0,1.265-0.957,1.958-2.475,1.958h-3.257c-1.529,0-2.486-0.693-2.486-1.958C132.853,284.879,133.81,284.076,135.34,284.076z
			 M138.596,285.308h-3.257c-0.605,0-0.99,0.297-0.99,0.727c0,0.439,0.385,0.726,0.99,0.726h3.257c0.583,0,0.979-0.286,0.979-0.726
			C139.575,285.604,139.179,285.308,138.596,285.308z M139.466,279.807v-1.419h1.452v5.38h-1.452v-2.662h-2.179v-1.299H139.466z"/>
		<path d="M148.585,286.199v1.331h-6.348v-1.331h2.387v-1.243h1.464v1.243H148.585z M148.244,278.937v1.199h-5.854v-1.199h2.179
			v-0.913h1.496v0.913H148.244z M147.925,282.568c0,1.243-1.013,2.123-2.53,2.123h-0.11c-1.529,0-2.53-0.88-2.53-2.123
			c0-1.232,1.001-2.112,2.53-2.112h0.11C146.912,280.456,147.925,281.336,147.925,282.568z M146.494,282.568
			c0-0.539-0.429-0.979-1.1-0.979h-0.11c-0.671,0-1.111,0.44-1.111,0.979c0,0.562,0.44,0.979,1.111,0.979h0.11
			C146.065,283.548,146.494,283.13,146.494,282.568z M150.62,283.36v4.533h-1.463v-9.506h1.463v3.576h1.232v1.396H150.62z"/>
	</g>
</g>
<g>
	<polygon fill="#CCE9F5" stroke="#000000" stroke-width="0.5" stroke-miterlimit="10" points="221.447,342.637 221.447,313.218 
		0.25,313.218 0.25,342.637 105.687,342.637 105.687,348.25 100.998,348.25 110.848,357.927 120.698,348.25 116.009,348.25 
		116.009,342.637 	"/>
	<g>
		<path d="M54.32,325.661c0-1.485,1.078-2.563,2.63-2.563c1.551,0,2.64,1.078,2.64,2.563c0,1.463-1.089,2.553-2.64,2.553
			C55.398,328.214,54.32,327.124,54.32,325.661z M62.792,328.764v3.784h-7.91v-3.784H62.792z M55.761,325.661
			c0,0.737,0.451,1.32,1.188,1.32c0.736,0,1.188-0.583,1.188-1.32c0-0.759-0.451-1.331-1.188-1.331
			C56.213,324.33,55.761,324.902,55.761,325.661z M56.344,331.316h4.995v-1.32h-4.995V331.316z M62.792,323.098v5.281H61.34v-0.969
			h-1.475v-1.298h1.475v-0.902h-1.475v-1.287h1.475v-0.825H62.792z"/>
		<path d="M64.111,327.454h9.098v1.188h-9.098V327.454z M72.747,323.252v1.188h-3.092c-0.099,0.153-0.209,0.297-0.33,0.439
			c1.034,0.605,2.41,0.969,3.785,1.067l-0.562,1.089c-1.408-0.132-3.003-0.604-4.114-1.32c-1.023,0.793-2.344,1.31-3.587,1.452
			l-0.627-1.066c1.464-0.165,2.806-0.748,3.741-1.661h-3.389v-1.188H72.747z M72.845,330.964c0,1.122-0.901,1.738-2.42,1.738h-3.521
			c-1.529,0-2.432-0.616-2.432-1.738c0-1.089,0.902-1.749,2.432-1.749h3.521C71.944,329.215,72.845,329.875,72.845,330.964z
			 M71.349,330.964c0-0.363-0.297-0.594-1.001-0.594h-3.377c-0.649,0-1.002,0.23-1.002,0.594c0,0.353,0.309,0.583,1.002,0.583h3.377
			C71.052,331.547,71.349,331.316,71.349,330.964z"/>
		<path d="M79.335,330.722h-1.452v-1.231H74.01v-1.266h9.098v1.266h-3.773V330.722z M82.646,323.252v4.269h-8.174v-4.269h1.463
			v1.056h5.248v-1.056H82.646z M82.745,331.261v1.287h-8.272v-2.508h1.463v1.221H82.745z M75.935,326.376h5.248v-0.924h-5.248
			V326.376z"/>
		<path d="M84.273,323.252h5.281v1.331h-2.079c-0.022,0.825-0.077,1.617-0.198,2.376c0.572,1.629,1.562,3.224,2.827,4.357
			l-1.122,0.924c-0.88-0.858-1.64-1.97-2.211-3.103c-0.374,1.155-0.913,2.223-1.617,3.18l-1.299-0.704
			c1.508-2.058,2.124-4.203,2.168-7.03h-1.75V323.252z M92.294,328.07v4.533h-1.463v-9.506h1.463v3.576h1.232v1.396H92.294z"/>
		<path d="M93.81,332.24v-1.331h6.502v1.331H93.81z M99.761,325.837c0,1.585-1.122,2.739-2.85,2.739
			c-1.737,0-2.838-1.154-2.838-2.739c0-1.573,1.101-2.739,2.838-2.739C98.639,323.098,99.761,324.264,99.761,325.837z
			 M98.343,325.837c0-0.857-0.55-1.507-1.431-1.507c-0.88,0-1.43,0.649-1.43,1.507c0,0.858,0.55,1.508,1.43,1.508
			C97.793,327.345,98.343,326.695,98.343,325.837z M100.939,332.603v-9.506h1.452v9.506H100.939z"/>
		<path d="M106.658,324.495v-1.243h5.105v1.243h-1.915c-0.021,0.363-0.076,0.726-0.165,1.067c0.616,0.913,1.629,1.771,2.63,2.343
			c-0.309,0.342-0.594,0.693-0.913,1.034c-0.792-0.483-1.617-1.177-2.244-1.925c-0.44,0.88-1.067,1.617-1.794,2.146l-1.122-0.892
			c1.243-0.814,2.024-2.112,2.179-3.773H106.658z M106.967,332.548v-3.025h1.463v1.694h6.656v1.331H106.967z M113.425,325.287
			v-2.189h1.452v7.097h-1.452v-3.631h-1.849v-1.276H113.425z"/>
		<path d="M118.262,323.098h1.464c0,0.715-0.077,1.408-0.242,2.068c0.638,0.99,1.672,1.947,2.695,2.52l-0.869,1.089
			c-0.836-0.483-1.705-1.265-2.354-2.068c-0.439,0.925-1.067,1.717-1.837,2.277l-1.089-0.935
			C117.449,327.003,118.262,325.276,118.262,323.098z M124.985,331.217v1.331h-8.119v-3.124h1.463v1.793H124.985z M124.776,323.098
			v7.041h-1.452v-7.041H124.776z"/>
		<path d="M126.557,326.376v-3.234h1.463v2.058h6.788v1.177h-3.466v0.848h3.851v1.21h-9.098v-1.21h3.784v-0.848H126.557z
			 M132.41,332.702h-3.521c-1.551,0-2.432-0.649-2.432-1.815c0-1.144,0.881-1.848,2.432-1.848h3.521c1.551,0,2.42,0.704,2.42,1.848
			C134.83,332.053,133.961,332.702,132.41,332.702z M128.9,331.536h3.224c0.792,0,1.21-0.176,1.21-0.649
			c0-0.506-0.418-0.682-1.21-0.682h-2.959c-0.748,0-1.211,0.176-1.211,0.682C127.954,331.25,128.229,331.536,128.9,331.536z"/>
		<path d="M145.093,330.898v1.342h-9.098v-1.342h3.762v-2.003h1.541v2.003H145.093z M144.729,327.08v1.343h-8.272v-5.171h8.174
			v1.342h-6.711v2.486H144.729z"/>
		<path d="M148.48,327.454h9.098v1.188h-9.098V327.454z M157.116,323.252v1.188h-3.092c-0.099,0.153-0.209,0.297-0.33,0.439
			c1.034,0.605,2.41,0.969,3.785,1.067l-0.562,1.089c-1.408-0.132-3.003-0.604-4.114-1.32c-1.023,0.793-2.344,1.31-3.587,1.452
			l-0.627-1.066c1.464-0.165,2.806-0.748,3.741-1.661h-3.389v-1.188H157.116z M157.215,330.964c0,1.122-0.901,1.738-2.42,1.738
			h-3.521c-1.529,0-2.432-0.616-2.432-1.738c0-1.089,0.902-1.749,2.432-1.749h3.521
			C156.313,329.215,157.215,329.875,157.215,330.964z M155.719,330.964c0-0.363-0.297-0.594-1.001-0.594h-3.377
			c-0.649,0-1.002,0.23-1.002,0.594c0,0.353,0.309,0.583,1.002,0.583h3.377C155.422,331.547,155.719,331.316,155.719,330.964z"/>
		<path d="M158.798,323.252h4.599v2.299c0,2.839-1.464,5.271-4.071,6.646l-1.001-1.057c2.321-1.133,3.608-3.124,3.608-5.391v-1.166
			h-3.135V323.252z M166.762,328.07v4.533H165.3v-9.506h1.463v3.576h1.232v1.396H166.762z"/>
	</g>
</g>
<g>
	<polygon fill="#E2D9EB" stroke="#000000" stroke-width="0.5" stroke-miterlimit="10" points="221.447,387.347 221.447,357.927 
		0.25,357.927 0.25,387.347 105.687,387.347 105.687,392.96 100.998,392.96 110.848,402.637 120.698,392.96 116.009,392.96 
		116.009,387.347 	"/>
	<g>
		<path d="M47.051,367.961v5.215h-4.962v-5.215H47.051z M50.306,375.927v1.331h-8.009v-3.125h1.452v1.794H50.306z M43.486,371.966
			h2.167v-2.772h-2.167V371.966z M51.341,370.415v1.386h-1.232v3.048h-1.463v-7.041h1.463v2.607H51.341z"/>
		<path d="M53.638,367.808h1.464c0,0.604-0.066,1.21-0.21,1.793c0.639,0.891,1.684,1.705,2.718,2.223l-0.814,1.11
			c-0.857-0.429-1.771-1.133-2.431-1.87c-0.418,0.836-1.001,1.562-1.771,2.112l-1.133-0.891
			C52.934,371.262,53.638,369.688,53.638,367.808z M54.629,373.495h3.257c1.518,0,2.475,0.803,2.475,1.958
			c0,1.266-0.957,1.959-2.475,1.959h-3.257c-1.529,0-2.486-0.693-2.486-1.959C52.142,374.298,53.099,373.495,54.629,373.495z
			 M57.885,374.727h-3.257c-0.605,0-0.99,0.297-0.99,0.726c0,0.44,0.385,0.727,0.99,0.727h3.257c0.583,0,0.979-0.286,0.979-0.727
			C58.864,375.024,58.469,374.727,57.885,374.727z M58.755,369.226v-1.419h1.452v5.38h-1.452v-2.663h-2.179v-1.298H58.755z"/>
		<path d="M61.888,369.204v-1.243h5.105v1.243h-1.882c-0.033,0.33-0.088,0.649-0.176,0.958c0.583,0.891,1.584,1.76,2.574,2.31
			l-0.902,1.013c-0.813-0.474-1.617-1.155-2.222-1.893c-0.451,0.869-1.078,1.596-1.805,2.112l-1.111-0.869
			c1.21-0.792,2.014-2.058,2.212-3.631H61.888z M62.097,375.354v-1.31h8.01v3.367h-1.452v-2.058H62.097z M68.655,369.931v-2.123
			h1.452v5.765h-1.452v-2.388h-1.849v-1.254H68.655z"/>
		<path d="M71.535,370.777v-0.406c0-1.485,1.122-2.563,2.685-2.563s2.685,1.078,2.685,2.563v0.406c0,1.475-1.122,2.563-2.685,2.563
			S71.535,372.252,71.535,370.777z M80.16,375.927v1.331h-8.063v-3.125h1.463v1.794H80.16z M72.976,370.371v0.406
			c0,0.748,0.484,1.332,1.243,1.332c0.748,0,1.243-0.584,1.243-1.332v-0.406c0-0.76-0.495-1.332-1.243-1.332
			C73.461,369.039,72.976,369.611,72.976,370.371z M80.007,367.808v7.041h-1.452v-7.041H80.007z"/>
		<path d="M84.02,370.624v-0.253c0-1.485,1.122-2.563,2.685-2.563s2.685,1.078,2.685,2.563v0.253c0,1.474-1.122,2.552-2.685,2.552
			S84.02,372.098,84.02,370.624z M92.294,373.935v3.477h-1.463v-2.168h-6.458v-1.309H92.294z M85.462,370.371v0.253
			c0,0.748,0.484,1.331,1.243,1.331c0.748,0,1.243-0.583,1.243-1.331v-0.253c0-0.76-0.495-1.332-1.243-1.332
			C85.946,369.039,85.462,369.611,85.462,370.371z M92.294,372.505v0.957h-1.463v-5.654h1.463v1.166h1.232v1.243h-1.232v1.056h1.232
			v1.232H92.294z"/>
		<path d="M99.608,368.303v1.188h-5.743v-1.188h2.09v-0.858h1.464v0.858H99.608z M99.189,371.955c0,1.232-1.034,2.112-2.486,2.112
			c-1.44,0-2.475-0.88-2.475-2.112c0-1.243,1.034-2.123,2.475-2.123C98.155,369.832,99.189,370.712,99.189,371.955z
			 M102.391,375.927v1.331h-8.01v-2.839h1.452v1.508H102.391z M97.793,371.955c0-0.55-0.407-1.001-1.09-1.001
			c-0.692,0-1.078,0.451-1.078,1.001c0,0.539,0.386,0.968,1.078,0.968C97.385,372.923,97.793,372.494,97.793,371.955z
			 M103.426,370.514v1.386h-1.232v3.048h-1.463v-7.14h1.463v2.706H103.426z"/>
		<path d="M106.954,372.197l-0.715-1.188c1.959-0.353,3.531-1.606,4.071-3.257l1.507,0.309c-0.088,0.274-0.198,0.55-0.33,0.813
			c0.99,0.913,2.486,1.573,3.961,1.838c-0.231,0.396-0.451,0.813-0.672,1.221c-1.396-0.253-2.992-1.022-4.048-1.936
			C109.76,371.13,108.374,371.933,106.954,372.197z M115.392,373.231v1.342h-3.773v2.839h-1.551v-2.839h-3.773v-1.342H115.392z"/>
		<path d="M121.519,375.31h-1.452v-1.441h-3.872v-1.254h9.098v1.254h-3.773V375.31z M124.831,367.961v1.211h-3.059
			c-0.109,0.187-0.242,0.374-0.374,0.55c1.023,0.671,2.388,1.133,3.796,1.243l-0.583,1.111c-1.408-0.132-2.992-0.683-4.06-1.475
			c-1.013,0.858-2.321,1.452-3.598,1.606l-0.649-1.089c1.562-0.209,2.904-0.913,3.807-1.947h-3.454v-1.211H124.831z
			 M124.929,375.971v1.287h-8.272v-2.685h1.463v1.397H124.929z"/>
		<path d="M126.094,376.949v-1.331h6.502v1.331H126.094z M132.046,370.547c0,1.584-1.122,2.739-2.85,2.739
			c-1.738,0-2.838-1.155-2.838-2.739c0-1.573,1.1-2.739,2.838-2.739C130.924,367.808,132.046,368.974,132.046,370.547z
			 M130.627,370.547c0-0.858-0.55-1.508-1.431-1.508c-0.88,0-1.43,0.649-1.43,1.508s0.55,1.507,1.43,1.507
			C130.077,372.054,130.627,371.405,130.627,370.547z M133.223,377.312v-9.505h1.452v9.505H133.223z"/>
		<path d="M138.689,370.371c0-1.485,1.078-2.563,2.63-2.563c1.551,0,2.64,1.078,2.64,2.563c0,1.463-1.089,2.552-2.64,2.552
			C139.767,372.923,138.689,371.834,138.689,370.371z M147.161,373.473v3.785h-7.91v-3.785H147.161z M140.131,370.371
			c0,0.736,0.451,1.319,1.188,1.319c0.736,0,1.188-0.583,1.188-1.319c0-0.76-0.451-1.332-1.188-1.332
			C140.582,369.039,140.131,369.611,140.131,370.371z M140.714,376.025h4.995v-1.32h-4.995V376.025z M147.161,367.808v5.28h-1.452
			v-0.968h-1.475v-1.299h1.475v-0.901h-1.475v-1.287h1.475v-0.825H147.161z"/>
		<path d="M148.479,372.164h9.098v1.188h-9.098V372.164z M157.115,367.961v1.188h-3.092c-0.099,0.154-0.209,0.297-0.33,0.44
			c1.034,0.604,2.41,0.968,3.785,1.066l-0.562,1.09c-1.408-0.132-3.003-0.605-4.114-1.32c-1.023,0.792-2.344,1.31-3.587,1.452
			l-0.627-1.067c1.464-0.165,2.806-0.748,3.741-1.661h-3.389v-1.188H157.115z M157.214,375.674c0,1.122-0.901,1.738-2.42,1.738
			h-3.521c-1.529,0-2.432-0.616-2.432-1.738c0-1.09,0.902-1.75,2.432-1.75h3.521C156.312,373.924,157.214,374.584,157.214,375.674z
			 M155.718,375.674c0-0.363-0.297-0.595-1.001-0.595h-3.377c-0.649,0-1.002,0.231-1.002,0.595c0,0.352,0.309,0.583,1.002,0.583
			h3.377C155.421,376.257,155.718,376.025,155.718,375.674z"/>
		<path d="M160.965,372.164h9.098v1.188h-9.098V372.164z M169.6,367.961v1.188h-3.092c-0.099,0.154-0.209,0.297-0.33,0.44
			c1.034,0.604,2.41,0.968,3.785,1.066l-0.562,1.09c-1.408-0.132-3.003-0.605-4.114-1.32c-1.023,0.792-2.344,1.31-3.587,1.452
			l-0.627-1.067c1.464-0.165,2.806-0.748,3.741-1.661h-3.389v-1.188H169.6z M169.699,375.674c0,1.122-0.901,1.738-2.42,1.738h-3.521
			c-1.529,0-2.432-0.616-2.432-1.738c0-1.09,0.902-1.75,2.432-1.75h3.521C168.798,373.924,169.699,374.584,169.699,375.674z
			 M168.203,375.674c0-0.363-0.297-0.595-1.001-0.595h-3.377c-0.649,0-1.002,0.231-1.002,0.595c0,0.352,0.309,0.583,1.002,0.583
			h3.377C167.906,376.257,168.203,376.025,168.203,375.674z"/>
		<path d="M171.282,367.961h4.599v2.3c0,2.838-1.464,5.27-4.071,6.645l-1.001-1.056c2.321-1.134,3.608-3.125,3.608-5.391v-1.166
			h-3.135V367.961z M179.247,372.78v4.532h-1.463v-9.505h1.463v3.575h1.232v1.397H179.247z"/>
	</g>
</g>
<g>
	<polygon fill="#E7F1D0" stroke="#000000" stroke-width="0.5" stroke-miterlimit="10" points="221.447,432.057 221.447,402.637 
		0.25,402.637 0.25,432.057 105.687,432.057 105.687,437.669 100.998,437.669 110.848,447.347 120.698,437.669 116.009,437.669 
		116.009,432.057 	"/>
	<g>
		<path d="M9.348,413.914c-0.033,0.275-0.077,0.551-0.143,0.814c0.604,0.858,1.485,1.628,2.486,2.146l-0.869,1.056
			c-0.814-0.462-1.584-1.1-2.179-1.804c-0.473,0.836-1.144,1.518-1.947,2.024c-0.352-0.309-0.704-0.605-1.045-0.925
			c1.266-0.759,2.046-1.837,2.255-3.312H6.07v-1.243h5.16v1.243H9.348z M11.879,422.122H8.567c-1.518,0-2.398-0.683-2.398-1.871
			c0-1.11,0.881-1.892,2.398-1.892h3.312c1.529,0,2.409,0.781,2.409,1.892C14.288,421.439,13.408,422.122,11.879,422.122z
			 M8.567,420.89h3.081c0.715,0,1.144-0.176,1.144-0.639c0-0.483-0.429-0.66-1.144-0.66H8.82c-0.736,0-1.144,0.165-1.144,0.66
			C7.677,420.637,7.996,420.89,8.567,420.89z M15.322,414.597v1.386h-1.231v2.168h-1.464v-5.633h1.464v2.079H15.322z"/>
		<path d="M15.607,421.659v-1.331h6.502v1.331H15.607z M21.559,415.257c0,1.584-1.123,2.739-2.85,2.739
			c-1.738,0-2.839-1.155-2.839-2.739c0-1.573,1.101-2.739,2.839-2.739C20.436,412.517,21.559,413.684,21.559,415.257z
			 M20.139,415.257c0-0.858-0.55-1.508-1.43-1.508c-0.881,0-1.431,0.649-1.431,1.508s0.55,1.507,1.431,1.507
			C19.59,416.764,20.139,416.115,20.139,415.257z M22.736,422.022v-9.505h1.452v9.505H22.736z"/>
		<path d="M28.4,419.91v-3.575h-0.605v-1.343H28.4v-1.408l1.463-0.297v1.705h0.924v1.343h-0.924v3.059
			c0,0.495,0.188,0.561,0.825,0.517v1.331C29.137,421.483,28.4,421.186,28.4,419.91z"/>
		<path d="M33.163,414.233h-1.551v-1.408h1.551V414.233z M33.119,421.241h-1.463v-6.249h1.463V421.241z"/>
		<path d="M37.332,415.52l0.154-0.528h1.254v5.941c0,1.298-0.88,2.167-2.321,2.167c-1.188,0-2.2-0.616-2.332-1.937h1.463
			c0.044,0.396,0.353,0.595,0.869,0.595c0.528,0,0.869-0.353,0.869-0.936v-0.616c-0.23,0.353-0.748,0.572-1.287,0.572
			c-1.188,0-1.914-0.77-1.914-1.903v-2.068c0-1.155,0.727-1.914,1.914-1.914C36.584,414.893,37.112,415.169,37.332,415.52z
			 M37.288,418.436v-1.199c0-0.639-0.385-1.023-0.924-1.023c-0.517,0-0.814,0.286-0.814,0.803v1.65c0,0.518,0.298,0.792,0.814,0.792
			C36.903,419.459,37.288,419.085,37.288,418.436z"/>
		<path d="M44.427,416.808v4.434h-1.463v-4.202c0-0.528-0.286-0.825-0.813-0.825c-0.551,0-0.925,0.418-0.925,1.023v4.004h-1.452
			v-8.57h1.452v2.806c0.253-0.341,0.781-0.583,1.331-0.583C43.745,414.893,44.427,415.664,44.427,416.808z"/>
		<path d="M45.593,419.91v-3.575h-0.605v-1.343h0.605v-1.408l1.463-0.297v1.705h0.925v1.343h-0.925v3.059
			c0,0.495,0.188,0.561,0.825,0.517v1.331C46.33,421.483,45.593,421.186,45.593,419.91z"/>
		<path d="M52.94,414.992v6.349c0,1.298-0.704,1.76-2.068,1.605v-1.342c0.429,0.033,0.605-0.121,0.605-0.572v-6.04H52.94z
			 M52.995,414.233h-1.562v-1.408h1.562V414.233z"/>
		<path d="M53.919,419.492v-4.5h1.452v4.247c0,0.517,0.309,0.792,0.825,0.792c0.528,0,0.913-0.385,0.913-1.078v-3.961h1.464v6.249
			h-1.288l-0.065-0.506c-0.286,0.385-0.814,0.605-1.441,0.605C54.59,421.341,53.919,420.625,53.919,419.492z"/>
		<path d="M64.26,416.753v4.488h-1.452v-4.181c0-0.517-0.275-0.847-0.825-0.847c-0.572,0-0.924,0.44-0.924,1.078v3.949h-1.453
			v-6.249h1.299l0.099,0.528c0.275-0.385,0.825-0.627,1.387-0.627C63.577,414.893,64.26,415.652,64.26,416.753z"/>
		<path d="M68.373,419.195h1.464c-0.022,1.364-0.892,2.146-2.344,2.146c-1.431,0-2.365-0.771-2.365-2.058v-2.321
			c0-1.298,0.924-2.068,2.288-2.068c1.375,0,2.3,0.759,2.344,2.035h-1.431c-0.055-0.483-0.341-0.693-0.913-0.693
			c-0.517,0-0.825,0.286-0.825,0.881v2.013c0,0.605,0.341,0.881,0.902,0.881C68.087,420.01,68.34,419.712,68.373,419.195z"/>
		<path d="M70.76,419.91v-3.575h-0.605v-1.343h0.605v-1.408l1.463-0.297v1.705h0.925v1.343h-0.925v3.059
			c0,0.495,0.188,0.561,0.825,0.517v1.331C71.497,421.483,70.76,421.186,70.76,419.91z"/>
		<path d="M75.522,414.233H73.97v-1.408h1.552V414.233z M75.478,421.241h-1.463v-6.249h1.463V421.241z"/>
		<path d="M76.446,419.283v-2.321c0-1.31,0.935-2.068,2.376-2.068c1.452,0,2.388,0.759,2.388,2.068v2.321
			c0,1.32-0.936,2.058-2.388,2.058C77.381,421.341,76.446,420.603,76.446,419.283z M77.909,417.171v1.914
			c0,0.616,0.297,0.925,0.913,0.925c0.627,0,0.925-0.309,0.925-0.925v-1.914c0-0.627-0.298-0.936-0.925-0.936
			C78.206,416.235,77.909,416.544,77.909,417.171z"/>
		<path d="M86.787,416.753v4.488h-1.452v-4.181c0-0.517-0.275-0.847-0.825-0.847c-0.572,0-0.924,0.44-0.924,1.078v3.949h-1.453
			v-6.249h1.299l0.099,0.528c0.275-0.385,0.825-0.627,1.387-0.627C86.104,414.893,86.787,415.652,86.787,416.753z"/>
		<path d="M87.644,421.659v-1.331h6.502v1.331H87.644z M93.595,415.257c0,1.584-1.122,2.739-2.85,2.739
			c-1.737,0-2.838-1.155-2.838-2.739c0-1.573,1.101-2.739,2.838-2.739C92.473,412.517,93.595,413.684,93.595,415.257z
			 M92.177,415.257c0-0.858-0.55-1.508-1.431-1.508c-0.88,0-1.43,0.649-1.43,1.508s0.55,1.507,1.43,1.507
			C91.627,416.764,92.177,416.115,92.177,415.257z M94.773,422.022v-9.505h1.452v9.505H94.773z"/>
		<path d="M100.238,415.334v-0.253c0-1.485,1.122-2.563,2.685-2.563s2.685,1.078,2.685,2.563v0.253c0,1.474-1.122,2.552-2.685,2.552
			S100.238,416.808,100.238,415.334z M108.511,418.645v3.477h-1.463v-2.168h-6.458v-1.309H108.511z M101.679,415.081v0.253
			c0,0.748,0.484,1.331,1.243,1.331c0.748,0,1.243-0.583,1.243-1.331v-0.253c0-0.76-0.495-1.332-1.243-1.332
			C102.164,413.749,101.679,414.321,101.679,415.081z M108.511,417.215v0.957h-1.463v-5.654h1.463v1.166h1.232v1.243h-1.232v1.056
			h1.232v1.232H108.511z"/>
		<path d="M116.377,420.328v1.331h-6.348v-1.331h2.387v-1.243h1.464v1.243H116.377z M116.036,413.067v1.199h-5.854v-1.199h2.179
			v-0.913h1.496v0.913H116.036z M115.717,416.698c0,1.243-1.013,2.123-2.53,2.123h-0.11c-1.529,0-2.53-0.88-2.53-2.123
			c0-1.232,1.001-2.112,2.53-2.112h0.11C114.704,414.586,115.717,415.466,115.717,416.698z M114.286,416.698
			c0-0.539-0.429-0.979-1.1-0.979h-0.11c-0.671,0-1.111,0.44-1.111,0.979c0,0.561,0.44,0.979,1.111,0.979h0.11
			C113.857,417.677,114.286,417.259,114.286,416.698z M118.412,417.49v4.532h-1.463v-9.505h1.463v3.575h1.232v1.397H118.412z"/>
		<path d="M126.43,420.328v1.331h-6.502v-1.331h2.354v-1.947h1.464v1.947H126.43z M125.792,416.533v1.309h-5.501v-5.171h5.38v1.299
			h-3.916v2.563H125.792z M128.51,412.517v9.505h-1.452v-9.505H128.51z"/>
		<path d="M130.093,418.821v-3.355c0-1.87,1.001-2.904,2.553-2.904c1.551,0,2.562,1.034,2.562,2.904v3.355
			c0,1.849-1.012,2.882-2.562,2.882C131.094,421.703,130.093,420.67,130.093,418.821z M131.49,415.466v3.355
			c0,1.067,0.429,1.562,1.155,1.562c0.726,0,1.154-0.495,1.154-1.562v-3.355c0-1.057-0.429-1.562-1.154-1.562
			C131.919,413.903,131.49,414.409,131.49,415.466z M136.958,417.478h-1.42v-1.396h1.42v-3.564h1.452v9.505h-1.452V417.478z"/>
		<path d="M145.954,413.914c-0.032,0.275-0.076,0.551-0.143,0.814c0.605,0.858,1.485,1.628,2.486,2.146l-0.869,1.056
			c-0.814-0.462-1.584-1.1-2.179-1.804c-0.473,0.836-1.144,1.518-1.947,2.024c-0.352-0.309-0.704-0.605-1.045-0.925
			c1.266-0.759,2.047-1.837,2.256-3.312h-1.838v-1.243h5.16v1.243H145.954z M148.485,422.122h-3.312
			c-1.519,0-2.398-0.683-2.398-1.871c0-1.11,0.88-1.892,2.398-1.892h3.312c1.529,0,2.409,0.781,2.409,1.892
			C150.894,421.439,150.014,422.122,148.485,422.122z M145.174,420.89h3.08c0.715,0,1.145-0.176,1.145-0.639
			c0-0.483-0.43-0.66-1.145-0.66h-2.827c-0.737,0-1.145,0.165-1.145,0.66C144.282,420.637,144.601,420.89,145.174,420.89z
			 M151.928,414.597v1.386h-1.232v2.168h-1.463v-5.633h1.463v2.079H151.928z"/>
		<path d="M152.214,421.659v-1.331h6.502v1.331H152.214z M158.165,415.257c0,1.584-1.122,2.739-2.85,2.739
			c-1.738,0-2.838-1.155-2.838-2.739c0-1.573,1.1-2.739,2.838-2.739C157.043,412.517,158.165,413.684,158.165,415.257z
			 M156.746,415.257c0-0.858-0.55-1.508-1.431-1.508c-0.88,0-1.43,0.649-1.43,1.508s0.55,1.507,1.43,1.507
			C156.196,416.764,156.746,416.115,156.746,415.257z M159.343,422.022v-9.505h1.452v9.505H159.343z"/>
		<path d="M173.796,418.711v1.331h-3.773v2.08h-1.551v-2.08h-3.773v-1.331H173.796z M173.432,416.742v1.221h-8.272v-5.292h8.174
			v1.222h-6.711v0.803h6.711v1.199h-6.711v0.848H173.432z"/>
		<path d="M180.902,420.317v1.342h-6.304v-1.342h1.484v-4.082h1.464v4.082H180.902z M180.142,418.92h-1.463v-4.906h-3.719v-1.343
			h5.182V418.92z M182.981,417.49v4.532h-1.463v-9.505h1.463v3.575h1.232v1.397H182.981z"/>
		<path d="M186.51,412.517h1.463c0,0.604-0.065,1.21-0.209,1.793c0.639,0.891,1.684,1.705,2.718,2.223l-0.814,1.11
			c-0.857-0.429-1.771-1.133-2.431-1.87c-0.418,0.836-1.001,1.562-1.771,2.112l-1.133-0.891
			C185.806,415.972,186.51,414.398,186.51,412.517z M187.501,418.205h3.257c1.518,0,2.475,0.803,2.475,1.958
			c0,1.266-0.957,1.959-2.475,1.959h-3.257c-1.529,0-2.486-0.693-2.486-1.959C185.014,419.008,185.971,418.205,187.501,418.205z
			 M190.758,419.437h-3.257c-0.605,0-0.99,0.297-0.99,0.726c0,0.44,0.385,0.727,0.99,0.727h3.257c0.583,0,0.979-0.286,0.979-0.727
			C191.736,419.734,191.341,419.437,190.758,419.437z M191.627,413.936v-1.419h1.452v5.38h-1.452v-2.663h-2.179v-1.298H191.627z"/>
		<path d="M196.983,416.874h9.098v1.188h-9.098V416.874z M205.619,412.671v1.188h-3.092c-0.099,0.154-0.209,0.297-0.33,0.44
			c1.034,0.604,2.41,0.968,3.785,1.066l-0.562,1.09c-1.408-0.132-3.003-0.605-4.114-1.32c-1.023,0.792-2.344,1.31-3.587,1.452
			l-0.627-1.067c1.464-0.165,2.806-0.748,3.741-1.661h-3.389v-1.188H205.619z M205.718,420.384c0,1.122-0.901,1.738-2.42,1.738
			h-3.521c-1.529,0-2.432-0.616-2.432-1.738c0-1.09,0.902-1.75,2.432-1.75h3.521C204.816,418.634,205.718,419.294,205.718,420.384z
			 M204.221,420.384c0-0.363-0.297-0.595-1.001-0.595h-3.377c-0.649,0-1.002,0.231-1.002,0.595c0,0.352,0.309,0.583,1.002,0.583
			h3.377C203.925,420.967,204.221,420.735,204.221,420.384z"/>
		<path d="M207.301,412.671h4.599v2.3c0,2.838-1.464,5.27-4.071,6.645l-1.001-1.056c2.321-1.134,3.608-3.125,3.608-5.391v-1.166
			h-3.135V412.671z M215.265,417.49v4.532h-1.463v-9.505h1.463v3.575h1.232v1.397H215.265z"/>
	</g>
	<g>
		<path d="M89.213,462.328v8.934h-4.94v-8.934h1.408v2.838h2.124v-2.838H89.213z M85.68,469.941h2.124v-3.433H85.68V469.941z
			 M92.491,462.174v9.506h-1.452v-9.506H92.491z"/>
		<path d="M99.135,462.328v5.215h-4.962v-5.215H99.135z M102.391,470.293v1.331h-8.01V468.5h1.452v1.793H102.391z M95.57,466.333
			h2.167v-2.772H95.57V466.333z M103.426,464.781v1.387h-1.232v3.047h-1.463v-7.041h1.463v2.607H103.426z"/>
		<path d="M111.52,469.49c1.001,0.594,2.431,0.891,3.729,1.001l-0.418,1.133c-1.387-0.099-3.004-0.561-4.137-1.275
			c-1.013,0.803-2.354,1.221-3.608,1.298l-0.528-1.133c1.43-0.077,2.75-0.495,3.608-1.364h-3.201v-1.188h3.18v-0.836h1.484v0.836
			h3.202v1.188h-3.092C111.674,469.27,111.597,469.38,111.52,469.49z M111.619,462.328v4.39h-4.962v-4.39H111.619z M108.054,465.508
			h2.167v-1.97h-2.167V465.508z M114.876,462.174v5.094h-1.452v-5.094H114.876z"/>
		<path d="M123.971,466.156v0.748h3.905v1.211h-9.098v-1.211h3.729v-0.748h-3.367v-1.155h1.485v-1.154h1.464v1.154h2.255
			l0.275-1.154h1.507c-0.099,0.385-0.176,0.77-0.286,1.154h1.672v1.155H123.971z M127.415,462.328v1.199h-8.174v-1.199H127.415z
			 M127.415,471.778h-1.463v-1.793h-6.711v-1.199h8.174V471.778z"/>
		<path d="M130.747,462.174h1.464c0,0.683-0.077,1.343-0.231,1.98c0.627,0.968,1.673,1.893,2.685,2.465l-0.869,1.078
			c-0.825-0.474-1.694-1.255-2.354-2.047c-0.429,0.913-1.056,1.694-1.837,2.256l-1.089-0.936
			C129.955,465.936,130.747,464.297,130.747,462.174z M137.26,468.302v3.477h-1.452v-2.167h-6.558v-1.31H137.26z M135.808,467.829
			v-5.655h1.452v5.655H135.808z"/>
	</g>
</g>
<g>
</g>
<g>
</g>
<g>
</g>
<g>
</g>
<g>
</g>
<g>
</g>
</svg>
