<?xml version="1.0" encoding="utf-8"?>
<!-- Generator: Adobe Illustrator 28.0.0, SVG Export Plug-In . SVG Version: 6.00 Build 0)  -->
<svg version="1.1" id="레이어_1" xmlns="http://www.w3.org/2000/svg" xmlns:xlink="http://www.w3.org/1999/xlink" x="0px"
	 y="0px" viewBox="0 0 497.039 229.132" enable-background="new 0 0 497.039 229.132" xml:space="preserve">
<g>
	<polygon fill="none" stroke="#010101" stroke-miterlimit="10" points="165.154,1.137 121.12,91.114 209.188,91.114 	"/>
	<polygon fill="none" stroke="#010101" stroke-miterlimit="10" points="209.188,91.114 121.12,91.114 98.686,136.953 
		231.622,136.953 	"/>
	<polygon fill="none" stroke="#010101" stroke-miterlimit="10" points="231.622,136.953 98.686,136.953 76.253,182.793 
		254.055,182.793 	"/>
	<polygon fill="none" stroke="#010101" stroke-miterlimit="10" points="76.253,182.793 53.819,228.632 276.489,228.632 
		254.055,182.793 	"/>
</g>
<g>
	<path d="M137.885,201.037v7.008h-5.124v-7.008H137.885z M136.277,206.773v-4.488h-1.932v4.488H136.277z M141.173,210.805h-1.596
		v-10.692h1.596V210.805z"/>
	<path d="M147.569,207.9c-0.304,0.088-0.83,0.166-1.578,0.234c-0.748,0.068-1.438,0.102-2.07,0.102h-0.852v-7.14h1.584v5.82h0.192
		c0.912,0,1.768-0.092,2.568-0.276c0.016,0.144,0.04,0.356,0.072,0.636C147.517,207.557,147.545,207.765,147.569,207.9z
		 M148.133,204.672h-2.004V203.4h2.004v-3.108h1.476v10.02h-1.476V204.672z M151.781,210.805h-1.512v-10.692h1.512V210.805z"/>
	<path d="M159.208,205.045c-0.36,0.096-0.944,0.182-1.752,0.258c-0.808,0.076-1.54,0.114-2.196,0.114l-1.872-0.036v-3.06h3.168
		v-0.624h-3.156v-1.236h4.776v3.024h-3.192v0.66c0.304,0.016,0.548,0.024,0.732,0.024c1.392,0,2.512-0.108,3.36-0.324
		C159.141,204.413,159.185,204.813,159.208,205.045z M161.609,210.769h-7.368v-2.892h5.592v-0.504h-5.556v-1.236h7.152v2.856h-5.592
		v0.516h5.772V210.769z M162.917,203.568h-1.488v2.124h-1.572v-5.58h1.572v2.172h1.488V203.568z"/>
	<path d="M163.024,210.612l2.892-10.188h1.38l-2.892,10.188H163.024z"/>
	<path d="M173.489,208.176h-5.124v-7.212h1.572v2.52h1.956v-2.52h1.596V208.176z M171.893,206.928v-2.232h-1.956v2.232H171.893z
		 M176.717,210.805h-1.584v-10.692h1.584V210.805z"/>
	<path d="M180.172,206.964c0.104,0.008,0.284,0.012,0.54,0.012c1.456,0,2.672-0.092,3.648-0.276c0.016,0.136,0.04,0.338,0.072,0.606
		c0.032,0.268,0.056,0.47,0.072,0.606c-1.296,0.24-2.756,0.36-4.38,0.36c-0.168,0-0.422-0.004-0.762-0.012
		c-0.34-0.008-0.594-0.012-0.762-0.012v-7.188h4.92v1.236h-3.348v1.596h3.192v1.272h-3.192V206.964z M186.604,200.112v3.96h1.416
		v1.308h-1.416v5.424h-1.572v-10.692H186.604z"/>
	<path d="M194.344,206.005h-5.208v-5.088h5.208V206.005z M197.704,210.541h-7.512v-3.468h1.572v2.232h5.94V210.541z M192.76,204.756
		v-2.592h-2.052v2.592H192.76z M197.477,207.864h-1.62v-7.752h1.62V207.864z"/>
</g>
<g>
	<path d="M138.299,159.73h-5.004v-5.064h5.004V159.73z M141.935,164.11h-7.368v-3.348h1.62v2.112h5.748V164.11z M136.739,158.47
		v-2.544h-1.872v2.544H136.739z M140.183,156.67h-1.236v-1.236h1.236v-1.752h1.596v7.752h-1.596v-2.424h-1.236v-1.236h1.236V156.67z
		"/>
	<path d="M143.387,156.958c0-0.768,0.26-1.394,0.78-1.878c0.52-0.484,1.172-0.726,1.956-0.726c0.792,0,1.448,0.242,1.968,0.726
		c0.52,0.484,0.78,1.11,0.78,1.878c0,0.776-0.262,1.41-0.786,1.902c-0.524,0.492-1.178,0.738-1.962,0.738
		c-0.792,0-1.446-0.246-1.962-0.738C143.645,158.368,143.387,157.734,143.387,156.958z M144.611,160.354h7.572v4.032h-1.62v-2.784
		h-5.952V160.354z M145.223,156.016c-0.232,0.228-0.348,0.542-0.348,0.942c0,0.4,0.116,0.714,0.348,0.942s0.532,0.342,0.9,0.342
		s0.67-0.114,0.906-0.342c0.236-0.228,0.354-0.542,0.354-0.942c0-0.392-0.12-0.704-0.36-0.936c-0.24-0.232-0.54-0.348-0.9-0.348
		C145.754,155.674,145.455,155.788,145.223,156.016z M149.207,158.71l0.036-1.356h1.32v-1.02h-1.32l-0.036-1.344h1.356v-1.308h1.62
		v6.252h-1.62v-1.224H149.207z"/>
	<path d="M162.202,159.43h-5.16v-5.112h1.572v1.44h1.992v-1.464h1.596V159.43z M165.334,162.178c0,0.664-0.338,1.188-1.014,1.572
		c-0.676,0.384-1.602,0.576-2.778,0.576c-1.168,0-2.086-0.192-2.754-0.576c-0.668-0.384-1.002-0.908-1.002-1.572
		c0-0.672,0.334-1.204,1.002-1.596c0.668-0.392,1.586-0.588,2.754-0.588c1.176,0,2.102,0.196,2.778,0.588
		C164.996,160.974,165.334,161.506,165.334,162.178z M160.606,158.17v-1.188h-1.992v1.188H160.606z M161.542,161.266
		c-0.672,0-1.2,0.083-1.584,0.246c-0.384,0.164-0.576,0.386-0.576,0.666c0,0.28,0.192,0.5,0.576,0.66
		c0.384,0.16,0.912,0.24,1.584,0.24c0.696,0,1.234-0.08,1.614-0.24s0.57-0.38,0.57-0.66c0-0.28-0.19-0.502-0.57-0.666
		C162.776,161.348,162.238,161.266,161.542,161.266z M166.714,157.546h-1.488v2.388h-1.584v-6.252h1.584v2.568h1.488V157.546z"/>
	<path d="M167.338,158.23c0-1.136,0.252-2.064,0.756-2.784s1.176-1.08,2.016-1.08c0.752,0,1.366,0.284,1.842,0.852
		c0.476,0.568,0.766,1.324,0.87,2.268h1.656v-3.804h1.62v10.692h-1.62v-5.544h-1.644c-0.088,0.96-0.374,1.738-0.858,2.334
		c-0.484,0.596-1.106,0.894-1.866,0.894c-0.84,0-1.512-0.358-2.016-1.074S167.338,159.35,167.338,158.23z M171.382,158.23
		c0-0.784-0.12-1.39-0.36-1.818c-0.24-0.428-0.544-0.642-0.912-0.642c-0.368,0-0.668,0.214-0.9,0.642
		c-0.232,0.428-0.348,1.034-0.348,1.818c0,0.776,0.118,1.378,0.354,1.806c0.236,0.428,0.534,0.642,0.894,0.642
		c0.368,0,0.672-0.214,0.912-0.642C171.262,159.608,171.382,159.006,171.382,158.23z"/>
	<path d="M187.318,158.23l-0.852,1.26c-0.44-0.152-0.892-0.426-1.356-0.822s-0.792-0.81-0.984-1.242
		c-0.144,0.48-0.472,0.946-0.984,1.398c-0.512,0.452-1.032,0.766-1.56,0.942l-0.816-1.248c0.8-0.271,1.422-0.702,1.866-1.29
		c0.444-0.588,0.666-1.273,0.666-2.058v-0.876h1.62v0.792c0,0.816,0.218,1.482,0.654,1.998
		C186.008,157.6,186.59,157.982,187.318,158.23z M182.302,160.39h7.344v3.996h-1.596v-2.748h-5.748V160.39z M189.634,159.97h-1.62
		v-6.288h1.62V159.97z"/>
	<path d="M199.582,164.206h-7.284v-3.42h2.832v-0.852h-4.008v-1.248h9.66v1.248h-4.08v0.852h2.88V164.206z M199.846,155.254h-7.8
		v-1.236h7.8V155.254z M199.75,158.17h-7.632v-1.236h1.368c-0.096-0.512-0.164-0.9-0.204-1.164c0.656-0.08,1.156-0.136,1.5-0.168
		c0.072,0.568,0.136,1.012,0.192,1.332h1.908c0.112-0.576,0.192-1.016,0.24-1.32l1.524,0.168l-0.288,1.152h1.392V158.17z
		 M197.998,162.982v-0.996h-4.116v0.996H197.998z"/>
</g>
<g>
	<path d="M147.449,114.11h-6.228v-1.212h6.228V114.11z M146.945,116.09c0,0.52-0.244,0.958-0.732,1.314s-1.104,0.534-1.848,0.534
		c-0.752,0-1.372-0.178-1.86-0.534s-0.732-0.794-0.732-1.314c0-0.512,0.242-0.942,0.726-1.29c0.484-0.348,1.106-0.522,1.866-0.522
		c0.744,0,1.36,0.176,1.848,0.528S146.945,115.587,146.945,116.09z M149.693,119.966c0,0.56-0.326,0.992-0.978,1.296
		c-0.652,0.304-1.554,0.456-2.706,0.456c-1.152,0-2.056-0.152-2.712-0.456c-0.656-0.304-0.984-0.736-0.984-1.296
		c0-0.552,0.33-0.98,0.99-1.284c0.66-0.304,1.562-0.456,2.706-0.456s2.044,0.152,2.7,0.456
		C149.365,118.986,149.693,119.415,149.693,119.966z M142.769,112.466v-1.2h3.204v1.2H142.769z M143.369,116.09
		c0,0.2,0.094,0.37,0.282,0.51s0.426,0.21,0.714,0.21c0.288,0,0.528-0.07,0.72-0.21s0.288-0.31,0.288-0.51
		c0-0.192-0.098-0.358-0.294-0.498c-0.196-0.14-0.434-0.21-0.714-0.21c-0.288,0-0.526,0.07-0.714,0.21
		C143.463,115.733,143.369,115.899,143.369,116.09z M146.009,119.402c-0.648,0-1.154,0.054-1.518,0.162
		c-0.364,0.108-0.546,0.246-0.546,0.414c0,0.176,0.182,0.316,0.546,0.42c0.364,0.104,0.87,0.156,1.518,0.156
		c0.656,0,1.168-0.052,1.536-0.156s0.552-0.244,0.552-0.42c0-0.168-0.184-0.306-0.552-0.414S146.665,119.402,146.009,119.402z
		 M151.001,115.479h-1.344v2.736h-1.572v-7.164h1.572v3.132h1.344V115.479z"/>
	<path d="M151.745,114.243c0-0.752,0.266-1.368,0.798-1.848c0.532-0.48,1.202-0.72,2.01-0.72s1.48,0.24,2.016,0.72
		c0.536,0.48,0.804,1.096,0.804,1.848s-0.269,1.37-0.804,1.854c-0.536,0.484-1.208,0.726-2.016,0.726s-1.478-0.24-2.01-0.72
		C152.011,115.623,151.745,115.003,151.745,114.243z M153.629,113.337c-0.24,0.228-0.36,0.534-0.36,0.918
		c0,0.384,0.12,0.686,0.36,0.906c0.24,0.22,0.548,0.33,0.924,0.33s0.684-0.11,0.924-0.33c0.24-0.22,0.36-0.522,0.36-0.906
		c0-0.384-0.122-0.69-0.366-0.918s-0.55-0.342-0.918-0.342C154.177,112.995,153.869,113.109,153.629,113.337z M160.529,121.623
		h-7.224v-3.972h7.224V121.623z M158.909,120.399v-1.56h-3.996v1.56H158.909z M160.529,117.194h-1.62v-1.188h-1.212l0.048-1.344
		h1.164v-1.008h-1.164l-0.048-1.356h1.212v-1.248h1.62V117.194z"/>
	<path d="M171.677,116.054v1.248h-9.66v-1.248H171.677z M171.233,114.435l-0.636,1.236c-0.728-0.04-1.456-0.238-2.184-0.594
		s-1.252-0.802-1.572-1.338c-0.264,0.552-0.758,1.002-1.482,1.35c-0.724,0.348-1.49,0.542-2.298,0.582l-0.624-1.212
		c0.808-0.032,1.522-0.208,2.142-0.528c0.62-0.32,1.03-0.708,1.23-1.164h-2.856v-1.248h7.86v1.248h-2.952
		c0.232,0.448,0.682,0.834,1.35,1.158C169.878,114.249,170.553,114.419,171.233,114.435z M170.693,119.703
		c0,0.592-0.342,1.066-1.026,1.422c-0.684,0.356-1.622,0.534-2.814,0.534c-1.2,0-2.142-0.178-2.826-0.534s-1.026-0.83-1.026-1.422
		c0-0.608,0.337-1.088,1.014-1.44c0.676-0.352,1.614-0.528,2.814-0.528c1.208,0,2.154,0.176,2.838,0.528
		C170.351,118.615,170.693,119.095,170.693,119.703z M169.049,119.727c0-0.224-0.204-0.408-0.612-0.552
		c-0.408-0.144-0.944-0.216-1.608-0.216c-0.648,0-1.176,0.072-1.584,0.216c-0.408,0.144-0.612,0.328-0.612,0.552
		c0,0.2,0.206,0.372,0.618,0.516c0.412,0.144,0.938,0.216,1.578,0.216c0.648,0,1.18-0.072,1.596-0.216
		C168.841,120.099,169.049,119.926,169.049,119.727z"/>
	<path d="M182.057,120.422h-9.66v-1.248h4.008v-2.424h1.572v2.424h4.08V120.422z M181.805,115.694l-0.708,1.332
		c-0.752-0.144-1.518-0.476-2.298-0.996c-0.78-0.52-1.31-1.14-1.59-1.86c-0.264,0.72-0.78,1.338-1.548,1.854s-1.54,0.85-2.316,1.002
		l-0.708-1.32c0.952-0.112,1.812-0.492,2.58-1.14s1.152-1.432,1.152-2.352v-0.564h1.704v0.564c0,0.624,0.19,1.196,0.57,1.716
		s0.848,0.926,1.404,1.218C180.603,115.441,181.188,115.623,181.805,115.694z"/>
	<path d="M188.141,118.059l-0.828,1.188c-0.368-0.24-0.748-0.606-1.14-1.098s-0.652-0.962-0.78-1.41
		c-0.104,0.448-0.372,0.958-0.804,1.53c-0.432,0.572-0.856,0.978-1.272,1.218l-0.84-1.104c0.8-0.488,1.362-1.11,1.686-1.866
		c0.324-0.756,0.486-1.662,0.486-2.718v-0.456h-1.704v-1.248h4.788v1.248h-1.548v0.444c0,1.072,0.136,1.934,0.408,2.586
		S187.38,117.587,188.141,118.059z M191.896,121.743h-1.488v-5.304h-0.72v4.824h-1.476v-10.044h1.476v3.972h0.72v-4.14h1.488
		V121.743z"/>
</g>
<g>
	<path d="M146.645,66.413h-5.004v-5.064h5.004V66.413z M150.281,70.793h-7.368v-3.348h1.62v2.112h5.748V70.793z M145.085,65.152
		v-2.544h-1.872v2.544H145.085z M148.529,63.353h-1.236v-1.236h1.236v-1.752h1.596v7.752h-1.596v-2.424h-1.236v-1.236h1.236V63.353z
		"/>
	<path d="M151.733,63.641c0-0.768,0.26-1.394,0.78-1.878c0.52-0.484,1.172-0.726,1.956-0.726c0.792,0,1.448,0.242,1.968,0.726
		c0.52,0.484,0.78,1.11,0.78,1.878c0,0.776-0.262,1.41-0.786,1.902c-0.524,0.492-1.178,0.738-1.962,0.738
		c-0.792,0-1.446-0.246-1.962-0.738C151.991,65.05,151.733,64.417,151.733,63.641z M152.957,67.037h7.572v4.032h-1.62v-2.784h-5.952
		V67.037z M153.569,62.698c-0.232,0.228-0.348,0.542-0.348,0.942c0,0.4,0.116,0.714,0.348,0.942s0.532,0.342,0.9,0.342
		s0.67-0.114,0.906-0.342c0.236-0.228,0.354-0.542,0.354-0.942c0-0.392-0.12-0.704-0.36-0.936c-0.24-0.232-0.54-0.348-0.9-0.348
		C154.101,62.357,153.801,62.47,153.569,62.698z M157.553,65.393l0.036-1.356h1.32v-1.02h-1.32l-0.036-1.344h1.356v-1.308h1.62
		v6.252h-1.62v-1.224H157.553z"/>
	<path d="M171.677,65.368v1.248h-9.66v-1.248H171.677z M171.233,63.749l-0.636,1.236c-0.728-0.04-1.456-0.238-2.184-0.594
		s-1.252-0.802-1.572-1.338c-0.264,0.552-0.758,1.002-1.482,1.35c-0.724,0.348-1.49,0.542-2.298,0.582l-0.624-1.212
		c0.808-0.032,1.522-0.208,2.142-0.528c0.62-0.32,1.03-0.708,1.23-1.164h-2.856v-1.248h7.86v1.248h-2.952
		c0.232,0.448,0.682,0.834,1.35,1.158C169.878,63.563,170.553,63.733,171.233,63.749z M170.693,69.017
		c0,0.592-0.342,1.066-1.026,1.422c-0.684,0.356-1.622,0.534-2.814,0.534c-1.2,0-2.142-0.178-2.826-0.534s-1.026-0.83-1.026-1.422
		c0-0.608,0.337-1.088,1.014-1.44c0.676-0.352,1.614-0.528,2.814-0.528c1.208,0,2.154,0.176,2.838,0.528
		C170.351,67.929,170.693,68.409,170.693,69.017z M169.049,69.041c0-0.224-0.204-0.408-0.612-0.552
		c-0.408-0.144-0.944-0.216-1.608-0.216c-0.648,0-1.176,0.072-1.584,0.216c-0.408,0.144-0.612,0.328-0.612,0.552
		c0,0.2,0.206,0.372,0.618,0.516c0.412,0.144,0.938,0.216,1.578,0.216c0.648,0,1.18-0.072,1.596-0.216
		C168.841,69.413,169.049,69.24,169.049,69.041z"/>
	<path d="M177.869,61.096c-0.056,1.44-0.516,2.628-1.38,3.564c-0.864,0.936-2.072,1.616-3.624,2.04l-0.612-1.26
		c0.984-0.2,1.844-0.59,2.58-1.17c0.736-0.58,1.152-1.206,1.248-1.878h-3.3v-1.296H177.869z M179.969,67.229
		c0.648,0.4,0.972,0.94,0.972,1.62c0,0.68-0.324,1.22-0.972,1.62s-1.556,0.6-2.724,0.6c-1.152,0-2.048-0.2-2.688-0.6
		s-0.96-0.94-0.96-1.62c0-0.68,0.322-1.22,0.966-1.62s1.538-0.6,2.682-0.6C178.413,66.629,179.321,66.829,179.969,67.229z
		 M179.309,68.849c0-0.288-0.18-0.518-0.54-0.69c-0.36-0.172-0.868-0.258-1.524-0.258c-0.64,0-1.138,0.086-1.494,0.258
		c-0.356,0.172-0.534,0.402-0.534,0.69c0,0.296,0.178,0.53,0.534,0.702c0.356,0.172,0.854,0.258,1.494,0.258
		c0.656,0,1.164-0.086,1.524-0.258C179.128,69.379,179.309,69.145,179.309,68.849z M182.285,64.037h-1.488v2.448h-1.584v-6.12h1.584
		v2.388h1.488V64.037z"/>
	<path d="M188.165,67.384l-0.852,1.152c-0.368-0.224-0.74-0.58-1.116-1.068c-0.376-0.488-0.628-0.96-0.756-1.416
		c-0.104,0.456-0.368,0.964-0.792,1.524c-0.424,0.56-0.844,0.96-1.26,1.2l-0.864-1.092c0.808-0.552,1.366-1.188,1.674-1.908
		c0.308-0.72,0.462-1.604,0.462-2.652v-0.456h-1.692v-1.236h4.776v1.236h-1.548v0.456c0,1.048,0.14,1.902,0.42,2.562
		C186.896,66.346,187.413,66.913,188.165,67.384z M189.749,70.565h-1.452v-5.256h-1.212v-1.38h1.212v-3.36h1.452V70.565z
		 M191.944,71.057h-1.464V60.364h1.464V71.057z"/>
</g>
<g>
	<path d="M289.922,201.672c-0.088,2.816-1.76,4.684-5.016,5.604l-0.624-1.272c0.983-0.2,1.846-0.59,2.586-1.17
		c0.739-0.58,1.161-1.198,1.266-1.854h-3.3v-1.308H289.922z M292.875,211.812h-1.596v-2.772h-5.652v-1.26h7.248V211.812z
		 M294.338,204.828h-1.488v2.436h-1.584v-6.204h1.584v2.484h1.488V204.828z"/>
	<path d="M304.49,207.36h-9.659v-1.236h4.031v-1.188h1.584v1.188h4.044V207.36z M304.106,204.337l-0.624,1.248
		c-0.744-0.048-1.487-0.248-2.231-0.6s-1.276-0.792-1.597-1.32c-0.271,0.544-0.773,0.988-1.506,1.332
		c-0.731,0.344-1.506,0.54-2.321,0.588l-0.624-1.224c0.815-0.032,1.542-0.208,2.178-0.528c0.636-0.32,1.054-0.708,1.254-1.164
		h-2.844v-1.248h7.8v1.248h-2.916c0.231,0.448,0.689,0.836,1.374,1.164C302.732,204.16,303.418,204.328,304.106,204.337z
		 M303.422,209.713c0,0.592-0.336,1.066-1.008,1.422s-1.589,0.534-2.748,0.534c-1.177,0-2.101-0.178-2.772-0.534
		s-1.008-0.83-1.008-1.422c0-0.608,0.334-1.088,1.002-1.44c0.668-0.352,1.586-0.528,2.754-0.528c1.184,0,2.11,0.176,2.778,0.528
		C303.088,208.625,303.422,209.105,303.422,209.713z M301.778,209.736c0-0.224-0.195-0.408-0.588-0.552
		c-0.392-0.144-0.908-0.216-1.548-0.216c-0.624,0-1.13,0.072-1.518,0.216c-0.389,0.144-0.582,0.328-0.582,0.552
		c0,0.2,0.195,0.372,0.588,0.516c0.392,0.144,0.896,0.216,1.512,0.216c0.632,0,1.146-0.072,1.542-0.216
		C301.581,210.109,301.778,209.936,301.778,209.736z"/>
	<path d="M313.97,201.984v7.008h-5.124v-7.008H313.97z M312.363,207.72v-4.488h-1.933v4.488H312.363z M317.258,211.753h-1.596
		V201.06h1.596V211.753z"/>
	<path d="M323.654,208.848c-0.304,0.088-0.83,0.166-1.577,0.234c-0.749,0.068-1.438,0.102-2.07,0.102h-0.853v-7.14h1.584v5.82h0.192
		c0.912,0,1.768-0.092,2.568-0.276c0.016,0.144,0.04,0.356,0.071,0.636C323.602,208.505,323.63,208.713,323.654,208.848z
		 M324.218,205.62h-2.004v-1.272h2.004v-3.108h1.476v10.02h-1.476V205.62z M327.867,211.753h-1.513V201.06h1.513V211.753z"/>
	<path d="M335.294,205.992c-0.36,0.096-0.944,0.182-1.752,0.258c-0.809,0.076-1.54,0.114-2.196,0.114l-1.872-0.036v-3.06h3.168
		v-0.624h-3.156v-1.236h4.776v3.024h-3.192v0.66c0.305,0.016,0.548,0.024,0.732,0.024c1.392,0,2.512-0.108,3.36-0.324
		C335.226,205.36,335.27,205.76,335.294,205.992z M337.694,211.716h-7.368v-2.892h5.593v-0.504h-5.557v-1.236h7.152v2.856h-5.592
		v0.516h5.771V211.716z M339.002,204.516h-1.488v2.124h-1.572v-5.58h1.572v2.172h1.488V204.516z"/>
	<path d="M339.11,211.56l2.893-10.188h1.38l-2.893,10.188H339.11z"/>
	<path d="M349.574,209.124h-5.124v-7.212h1.572v2.52h1.956v-2.52h1.596V209.124z M347.978,207.876v-2.232h-1.956v2.232H347.978z
		 M352.802,211.753h-1.584V201.06h1.584V211.753z"/>
	<path d="M356.257,207.912c0.104,0.008,0.283,0.012,0.54,0.012c1.455,0,2.672-0.092,3.647-0.276c0.016,0.136,0.04,0.338,0.072,0.606
		c0.031,0.268,0.056,0.47,0.072,0.606c-1.297,0.24-2.757,0.36-4.381,0.36c-0.168,0-0.422-0.004-0.762-0.012
		c-0.34-0.008-0.594-0.012-0.762-0.012v-7.188h4.92v1.236h-3.348v1.596h3.191v1.272h-3.191V207.912z M362.689,201.06v3.96h1.416
		v1.308h-1.416v5.424h-1.572V201.06H362.689z"/>
	<path d="M370.43,206.952h-5.208v-5.088h5.208V206.952z M373.79,211.488h-7.512v-3.468h1.572v2.232h5.939V211.488z M368.846,205.704
		v-2.592h-2.053v2.592H368.846z M373.562,208.812h-1.62v-7.752h1.62V208.812z"/>
</g>
<g>
	<path d="M262.346,155.602v-1.296h5.64v1.296h-1.979c0.056,0.736,0.302,1.346,0.737,1.83c0.437,0.484,0.998,0.842,1.687,1.074
		l-0.876,1.236c-0.425-0.128-0.874-0.398-1.351-0.81c-0.476-0.412-0.81-0.83-1.002-1.254c-0.128,0.456-0.452,0.91-0.972,1.362
		c-0.521,0.452-1.048,0.762-1.584,0.93l-0.804-1.236c0.775-0.272,1.38-0.672,1.812-1.2c0.432-0.528,0.664-1.172,0.696-1.932H262.346
		z M270.818,164.255h-7.284v-3.948h7.284V164.255z M269.198,163.03v-1.524h-4.056v1.524H269.198z M270.818,159.875h-1.62v-2.424
		h-1.404v-1.26h1.404v-2.508h1.62V159.875z"/>
	<path d="M277.646,159.094h-5.064v-4.728h5.064V159.094z M273.625,160.439h7.08v3.948h-1.584v-2.7h-5.496V160.439z M276.074,157.846
		v-2.244h-1.932v2.244H276.074z M282.194,157.402h-1.488v2.436h-1.584v-6.156h1.584v2.424h1.488V157.402z"/>
	<path d="M292.345,163.054h-9.659v-1.26h4.044v-1.896h-2.929v-5.532h1.584v1.596h4.236v-1.596h1.596v5.532h-2.916v1.896h4.044
		V163.054z M289.622,158.65v-1.476h-4.236v1.476H289.622z"/>
	<path d="M302.725,163.186h-9.659v-1.236h4.044v-0.924c-0.856-0.088-1.532-0.312-2.028-0.672c-0.496-0.36-0.744-0.804-0.744-1.332
		c0-0.608,0.328-1.102,0.984-1.482c0.655-0.38,1.516-0.57,2.58-0.57c1.071,0,1.93,0.19,2.573,0.57
		c0.645,0.38,0.967,0.875,0.967,1.482c0,0.536-0.246,0.984-0.738,1.344s-1.166,0.584-2.022,0.672v0.912h4.044V163.186z
		 M302.198,156.778h-8.604v-1.236h8.604V156.778z M296.005,155.05v-1.212h3.756v1.212H296.005z M299.257,159.647
		c0.353-0.152,0.528-0.36,0.528-0.624c0-0.264-0.174-0.468-0.522-0.612c-0.348-0.144-0.802-0.216-1.361-0.216
		c-0.561,0-1.017,0.072-1.368,0.216c-0.353,0.144-0.528,0.348-0.528,0.612c0,0.264,0.178,0.472,0.534,0.624
		c0.355,0.152,0.81,0.228,1.362,0.228C298.454,159.875,298.906,159.798,299.257,159.647z"/>
	<path d="M303.362,164.627l0.491-2.496h1.645l-0.888,2.496H303.362z"/>
	<path d="M315.817,156.742h-6.228v-1.212h6.228V156.742z M315.313,158.722c0,0.52-0.244,0.958-0.731,1.314
		c-0.488,0.356-1.104,0.534-1.849,0.534c-0.752,0-1.372-0.178-1.859-0.534c-0.488-0.356-0.732-0.794-0.732-1.314
		c0-0.512,0.242-0.942,0.726-1.29c0.484-0.348,1.106-0.522,1.866-0.522c0.744,0,1.36,0.176,1.849,0.528
		C315.069,157.791,315.313,158.218,315.313,158.722z M318.061,162.598c0,0.56-0.326,0.992-0.978,1.296
		c-0.652,0.304-1.555,0.456-2.706,0.456c-1.152,0-2.057-0.152-2.712-0.456c-0.656-0.304-0.984-0.736-0.984-1.296
		c0-0.552,0.33-0.98,0.99-1.284c0.66-0.304,1.562-0.456,2.706-0.456c1.144,0,2.044,0.152,2.699,0.456
		C317.733,161.618,318.061,162.046,318.061,162.598z M311.137,155.098v-1.2h3.204v1.2H311.137z M311.737,158.722
		c0,0.2,0.095,0.37,0.282,0.51s0.426,0.21,0.714,0.21s0.528-0.07,0.721-0.21c0.191-0.14,0.287-0.31,0.287-0.51
		c0-0.192-0.098-0.358-0.294-0.498c-0.195-0.14-0.434-0.21-0.714-0.21c-0.288,0-0.526,0.07-0.714,0.21
		C311.832,158.364,311.737,158.53,311.737,158.722z M314.377,162.034c-0.648,0-1.154,0.054-1.519,0.162s-0.546,0.246-0.546,0.414
		c0,0.176,0.182,0.316,0.546,0.42s0.87,0.156,1.519,0.156c0.655,0,1.168-0.052,1.536-0.156c0.367-0.104,0.552-0.244,0.552-0.42
		c0-0.168-0.185-0.306-0.552-0.414C315.545,162.088,315.033,162.034,314.377,162.034z M319.369,158.11h-1.344v2.736h-1.571v-7.164
		h1.571v3.132h1.344V158.11z"/>
	<path d="M325.609,154.607v7.008h-5.124v-7.008H325.609z M324.001,160.342v-4.488h-1.933v4.488H324.001z M328.897,164.375h-1.596
		v-10.692h1.596V164.375z"/>
	<path d="M335.761,158.302l-0.84,1.224c-0.353-0.152-0.715-0.408-1.087-0.768c-0.371-0.36-0.622-0.716-0.75-1.068
		c-0.168,0.464-0.438,0.908-0.81,1.332c-0.372,0.424-0.778,0.728-1.218,0.912l-0.876-1.236c0.68-0.296,1.197-0.75,1.554-1.362
		c0.355-0.612,0.534-1.302,0.534-2.07v-0.852h1.548v0.816c0,0.72,0.168,1.346,0.504,1.878S335.137,158.038,335.761,158.302z
		 M339.493,162.238c0,0.648-0.344,1.162-1.032,1.542c-0.688,0.38-1.624,0.57-2.808,0.57c-1.168,0-2.09-0.19-2.766-0.57
		c-0.677-0.38-1.015-0.894-1.015-1.542c0-0.64,0.338-1.148,1.015-1.524c0.676-0.376,1.598-0.564,2.766-0.564
		c1.184,0,2.12,0.188,2.808,0.564C339.149,161.09,339.493,161.598,339.493,162.238z M337.849,162.238
		c0-0.256-0.198-0.458-0.594-0.606c-0.396-0.148-0.931-0.222-1.603-0.222c-0.647,0-1.168,0.076-1.56,0.228
		c-0.393,0.152-0.588,0.352-0.588,0.6c0,0.272,0.195,0.486,0.588,0.642c0.392,0.156,0.912,0.234,1.56,0.234
		c0.68,0,1.216-0.078,1.608-0.234C337.653,162.724,337.849,162.51,337.849,162.238z M339.505,160.198h-1.488v-2.7h-0.72v2.244
		h-1.429v-5.868h1.429v2.376h0.72v-2.568h1.488V160.198z"/>
	<path d="M349.489,164.35h-7.572v-2.88h5.712v-0.48h-5.699v-1.248h2.88v-0.66h-4.044v-1.188h9.659v1.188h-4.044v0.66h2.845v2.832
		H343.5v0.492h5.988V164.35z M349.141,157.402h-7.093v-3.384h7.093V157.402z M347.521,156.191v-0.948h-3.876v0.948H347.521z"/>
	<path d="M360.876,158.231l-0.852,1.26c-0.44-0.152-0.893-0.426-1.356-0.822s-0.792-0.81-0.983-1.242
		c-0.145,0.48-0.473,0.946-0.984,1.398c-0.512,0.452-1.032,0.766-1.56,0.942l-0.816-1.248c0.8-0.271,1.422-0.702,1.866-1.29
		c0.444-0.588,0.666-1.273,0.666-2.058v-0.876h1.62v0.792c0,0.816,0.218,1.482,0.654,1.998
		C359.567,157.6,360.149,157.983,360.876,158.231z M355.861,160.39h7.344v3.996h-1.596v-2.748h-5.748V160.39z M363.193,159.97h-1.62
		v-6.288h1.62V159.97z"/>
	<path d="M373.141,164.206h-7.284v-3.42h2.832v-0.852h-4.008v-1.248h9.659v1.248h-4.079v0.852h2.88V164.206z M373.405,155.255h-7.8
		v-1.236h7.8V155.255z M373.309,158.171h-7.632v-1.236h1.367c-0.096-0.512-0.164-0.9-0.204-1.164c0.656-0.08,1.156-0.136,1.5-0.168
		c0.072,0.568,0.137,1.012,0.192,1.332h1.908c0.112-0.576,0.191-1.016,0.24-1.32l1.523,0.168l-0.288,1.152h1.393V158.171z
		 M371.557,162.983v-0.996h-4.116v0.996H371.557z"/>
	<path d="M374.977,164.627l0.491-2.496h1.645l-0.888,2.496H374.977z"/>
	<path d="M381.661,155.602v-1.296h5.64v1.296h-1.979c0.056,0.736,0.302,1.346,0.737,1.83c0.437,0.484,0.998,0.842,1.687,1.074
		l-0.876,1.236c-0.425-0.128-0.874-0.398-1.351-0.81c-0.476-0.412-0.81-0.83-1.002-1.254c-0.128,0.456-0.452,0.91-0.972,1.362
		c-0.521,0.452-1.048,0.762-1.584,0.93l-0.804-1.236c0.775-0.272,1.38-0.672,1.812-1.2c0.432-0.528,0.664-1.172,0.696-1.932H381.661
		z M390.132,164.255h-7.284v-3.948h7.284V164.255z M388.512,163.03v-1.524h-4.056v1.524H388.512z M390.132,159.875h-1.62v-2.424
		h-1.404v-1.26h1.404v-2.508h1.62V159.875z"/>
	<path d="M396.96,159.094h-5.064v-4.728h5.064V159.094z M392.94,160.439h7.08v3.948h-1.584v-2.7h-5.496V160.439z M395.388,157.846
		v-2.244h-1.932v2.244H395.388z M401.508,157.402h-1.488v2.436h-1.584v-6.156h1.584v2.424h1.488V157.402z"/>
	<path d="M411.66,163.054H402v-1.26h4.044v-1.896h-2.929v-5.532h1.584v1.596h4.236v-1.596h1.596v5.532h-2.916v1.896h4.044V163.054z
		 M408.936,158.65v-1.476H404.7v1.476H408.936z"/>
	<path d="M422.04,163.186h-9.659v-1.236h4.044v-0.924c-0.856-0.088-1.532-0.312-2.028-0.672c-0.496-0.36-0.744-0.804-0.744-1.332
		c0-0.608,0.328-1.102,0.984-1.482c0.655-0.38,1.516-0.57,2.58-0.57c1.071,0,1.93,0.19,2.573,0.57
		c0.645,0.38,0.967,0.875,0.967,1.482c0,0.536-0.246,0.984-0.738,1.344s-1.166,0.584-2.022,0.672v0.912h4.044V163.186z
		 M421.512,156.778h-8.604v-1.236h8.604V156.778z M415.32,155.05v-1.212h3.756v1.212H415.32z M418.572,159.647
		c0.353-0.152,0.528-0.36,0.528-0.624c0-0.264-0.174-0.468-0.522-0.612c-0.348-0.144-0.802-0.216-1.361-0.216
		c-0.561,0-1.017,0.072-1.368,0.216c-0.353,0.144-0.528,0.348-0.528,0.612c0,0.264,0.178,0.472,0.534,0.624
		c0.355,0.152,0.81,0.228,1.362,0.228C417.768,159.875,418.22,159.798,418.572,159.647z"/>
	<path d="M422.676,164.627l0.491-2.496h1.645l-0.888,2.496H422.676z"/>
	<path d="M433.931,159.706c-0.88,0.185-2.092,0.276-3.636,0.276c-0.12,0-0.286-0.002-0.498-0.006
		c-0.212-0.004-0.362-0.006-0.45-0.006v-3.492h2.376v-0.852h-2.388v-1.236h3.984v3.312h-2.376v1.032
		c0.08,0.008,0.208,0.012,0.384,0.012c0.792,0,1.604-0.076,2.436-0.228L433.931,159.706z M430.463,160.678h7.597v3.708h-1.584
		v-2.472h-6.013V160.678z M434.543,157.678h-0.864v-1.284h0.864v-2.496h1.464v6.228h-1.464V157.678z M438.06,160.174h-1.513v-6.492
		h1.513V160.174z"/>
	<path d="M445.847,159.875c-0.728,0.2-2.176,0.3-4.344,0.3c-0.208,0-0.484-0.004-0.828-0.012c-0.344-0.008-0.596-0.012-0.756-0.012
		v-5.628h5.052v1.248h-3.527v0.912h3.372v1.224h-3.372v0.996c0.144,0.008,0.392,0.012,0.743,0.012c1.553,0,2.744-0.08,3.576-0.24
		C445.788,158.979,445.815,159.379,445.847,159.875z M448.475,164.11h-7.632v-3.3h1.597v2.064h6.035V164.11z M448.187,153.682v7.752
		h-1.607v-7.752H448.187z"/>
	<path d="M449.616,164.627l0.491-2.496h1.645l-0.888,2.496H449.616z"/>
	<path d="M462.071,156.742h-6.228v-1.212h6.228V156.742z M461.567,158.722c0,0.52-0.244,0.958-0.731,1.314
		c-0.488,0.356-1.104,0.534-1.849,0.534c-0.752,0-1.372-0.178-1.859-0.534c-0.488-0.356-0.732-0.794-0.732-1.314
		c0-0.512,0.242-0.942,0.726-1.29c0.484-0.348,1.106-0.522,1.866-0.522c0.744,0,1.36,0.176,1.849,0.528
		C461.323,157.791,461.567,158.218,461.567,158.722z M464.315,162.598c0,0.56-0.326,0.992-0.978,1.296
		c-0.652,0.304-1.555,0.456-2.706,0.456c-1.152,0-2.057-0.152-2.712-0.456c-0.656-0.304-0.984-0.736-0.984-1.296
		c0-0.552,0.33-0.98,0.99-1.284c0.66-0.304,1.562-0.456,2.706-0.456c1.144,0,2.044,0.152,2.699,0.456
		C463.987,161.618,464.315,162.046,464.315,162.598z M457.391,155.098v-1.2h3.204v1.2H457.391z M457.991,158.722
		c0,0.2,0.095,0.37,0.282,0.51s0.426,0.21,0.714,0.21s0.528-0.07,0.721-0.21c0.191-0.14,0.287-0.31,0.287-0.51
		c0-0.192-0.098-0.358-0.294-0.498c-0.195-0.14-0.434-0.21-0.714-0.21c-0.288,0-0.526,0.07-0.714,0.21
		C458.085,158.364,457.991,158.53,457.991,158.722z M460.631,162.034c-0.648,0-1.154,0.054-1.519,0.162s-0.546,0.246-0.546,0.414
		c0,0.176,0.182,0.316,0.546,0.42s0.87,0.156,1.519,0.156c0.655,0,1.168-0.052,1.536-0.156c0.367-0.104,0.552-0.244,0.552-0.42
		c0-0.168-0.185-0.306-0.552-0.414C461.799,162.088,461.287,162.034,460.631,162.034z M465.623,158.11h-1.344v2.736h-1.571v-7.164
		h1.571v3.132h1.344V158.11z"/>
	<path d="M472.571,158.554l-0.864,1.26c-0.432-0.144-0.88-0.424-1.344-0.84c-0.464-0.416-0.792-0.844-0.983-1.284
		c-0.152,0.488-0.486,0.97-1.003,1.446c-0.516,0.476-1.033,0.794-1.554,0.954l-0.804-1.248c0.8-0.272,1.424-0.708,1.872-1.308
		c0.447-0.6,0.672-1.296,0.672-2.088v-1.212h1.62v1.128c0,0.816,0.216,1.492,0.647,2.028
		C471.263,157.926,471.843,158.315,472.571,158.554z M474.875,164.122h-7.128v-3.516h1.597v2.28h5.531V164.122z M474.659,153.682
		v2.976h1.477v1.32h-1.477v3.492h-1.56v-7.788H474.659z"/>
	<path d="M482.59,159.118c0,0.432-0.17,0.812-0.51,1.14s-0.794,0.548-1.361,0.66v0.528c0.88-0.032,1.672-0.096,2.376-0.192
		l0.084,1.224c-2.168,0.272-4.32,0.408-6.456,0.408c-0.072-0.44-0.141-0.892-0.204-1.356c0.976,0.016,1.852,0.008,2.628-0.024
		v-0.588c-0.568-0.112-1.021-0.332-1.356-0.66s-0.504-0.708-0.504-1.14c0-0.536,0.246-0.982,0.738-1.338s1.13-0.534,1.914-0.534
		c0.775,0,1.412,0.178,1.908,0.534C482.342,158.136,482.59,158.583,482.59,159.118z M483.023,157.006h-6.168v-1.188h6.168V157.006z
		 M478.462,155.41v-1.188h3.049v1.188H478.462z M480.971,159.118c0-0.208-0.101-0.384-0.301-0.528
		c-0.199-0.144-0.443-0.216-0.731-0.216c-0.296,0-0.542,0.072-0.738,0.216s-0.294,0.32-0.294,0.528s0.098,0.378,0.294,0.51
		c0.196,0.132,0.442,0.198,0.738,0.198s0.542-0.068,0.738-0.204C480.873,159.486,480.971,159.318,480.971,159.118z M485.195,153.682
		v4.272h1.284v1.296h-1.284v5.124h-1.572v-10.692H485.195z"/>
	<path d="M492.407,160.702l-0.852,1.152c-0.368-0.224-0.74-0.58-1.116-1.068c-0.376-0.488-0.628-0.96-0.756-1.416
		c-0.104,0.456-0.368,0.964-0.792,1.524c-0.425,0.56-0.845,0.96-1.261,1.2l-0.863-1.092c0.808-0.552,1.365-1.188,1.674-1.908
		c0.308-0.72,0.462-1.604,0.462-2.652v-0.456h-1.692v-1.236h4.776v1.236h-1.548v0.456c0,1.048,0.14,1.902,0.42,2.562
		C491.138,159.664,491.655,160.231,492.407,160.702z M493.991,163.882h-1.452v-5.256h-1.212v-1.38h1.212v-3.36h1.452V163.882z
		 M496.187,164.375h-1.464v-10.692h1.464V164.375z"/>
</g>
<g>
	<path d="M242.773,120.302v-8.232h1.908l3.18,5.472h0.036v-5.472h1.5v8.232h-1.68l-3.408-5.904h-0.036v5.904H242.773z"/>
	<path d="M251.077,120.302v-8.232h5.232v1.284h-3.528v2.292h2.748v1.296h-2.748v3.36H251.077z"/>
	<path d="M257.292,117.603v-1.272h3.42v1.272H257.292z"/>
	<path d="M261.936,120.302v-8.772h1.584v8.772H261.936z M265.68,120.302c-0.992-1.464-1.704-2.536-2.136-3.216
		c0.328-0.488,1.024-1.484,2.088-2.988h1.608l-2.064,2.88c0.392,0.592,1.128,1.7,2.208,3.324H265.68z"/>
	<path d="M268.392,120.302v-8.232h3.084c1.832,0,2.748,0.692,2.748,2.076c0,0.912-0.456,1.516-1.368,1.812v0.036
		c1.136,0.192,1.704,0.844,1.704,1.956c0,0.704-0.244,1.272-0.731,1.704c-0.488,0.432-1.212,0.648-2.173,0.648H268.392z
		 M270.084,115.55h1.056c0.928,0,1.393-0.384,1.393-1.152c0-0.408-0.11-0.698-0.33-0.87c-0.221-0.172-0.559-0.258-1.015-0.258
		h-1.104V115.55z M270.084,119.09h1.271c0.968,0,1.452-0.424,1.452-1.272c0-0.808-0.504-1.212-1.512-1.212h-1.212V119.09z"/>
	<path d="M279.409,116.103c-0.521-0.48-0.78-1.1-0.78-1.86c0-0.76,0.26-1.376,0.78-1.848c0.52-0.472,1.176-0.708,1.968-0.708
		c0.784,0,1.436,0.236,1.956,0.708c0.52,0.472,0.779,1.088,0.779,1.848c0,0.752-0.26,1.37-0.779,1.854
		c-0.521,0.484-1.172,0.726-1.956,0.726C280.584,116.822,279.928,116.583,279.409,116.103z M280.033,117.758h7.367v3.996h-1.596
		v-2.736h-5.771V117.758z M280.117,114.243c0,0.384,0.117,0.686,0.354,0.906c0.236,0.22,0.538,0.33,0.906,0.33
		c0.359,0,0.657-0.108,0.894-0.324c0.236-0.216,0.354-0.52,0.354-0.912c0-0.384-0.12-0.692-0.36-0.924
		c-0.24-0.232-0.536-0.348-0.888-0.348c-0.368,0-0.67,0.114-0.906,0.342S280.117,113.851,280.117,114.243z M287.388,117.327h-1.62
		v-2.532h-1.248v-1.308h1.248v-2.436h1.62V117.327z"/>
	<path d="M294.264,118.07l-0.852,1.152c-0.368-0.224-0.74-0.58-1.116-1.068c-0.376-0.488-0.628-0.96-0.756-1.416
		c-0.104,0.456-0.368,0.964-0.792,1.524c-0.425,0.56-0.845,0.96-1.261,1.2l-0.863-1.092c0.808-0.552,1.365-1.188,1.674-1.908
		c0.308-0.72,0.462-1.604,0.462-2.652v-0.456h-1.692v-1.236h4.776v1.236h-1.548v0.456c0,1.048,0.14,1.902,0.42,2.562
		C292.996,117.032,293.512,117.599,294.264,118.07z M295.848,121.251h-1.452v-5.256h-1.212v-1.38h1.212v-3.36h1.452V121.251z
		 M298.044,121.743h-1.464V111.05h1.464V121.743z"/>
	<path d="M308.988,115.599l-0.852,1.26c-0.44-0.152-0.893-0.426-1.356-0.822s-0.792-0.81-0.983-1.242
		c-0.145,0.48-0.473,0.946-0.984,1.398c-0.512,0.452-1.032,0.766-1.56,0.942l-0.816-1.248c0.8-0.271,1.422-0.702,1.866-1.29
		c0.444-0.588,0.666-1.273,0.666-2.058v-0.876h1.62v0.792c0,0.816,0.218,1.482,0.654,1.998
		C307.678,114.968,308.26,115.351,308.988,115.599z M303.972,117.758h7.344v3.996h-1.596v-2.748h-5.748V117.758z M311.304,117.338
		h-1.62v-6.288h1.62V117.338z"/>
	<path d="M321.252,121.574h-7.284v-3.42h2.832v-0.852h-4.008v-1.248h9.659v1.248h-4.079v0.852h2.88V121.574z M321.516,112.623h-7.8
		v-1.236h7.8V112.623z M321.42,115.539h-7.632v-1.236h1.367c-0.096-0.512-0.164-0.9-0.204-1.164c0.656-0.08,1.156-0.136,1.5-0.168
		c0.072,0.568,0.137,1.012,0.192,1.332h1.908c0.112-0.576,0.191-1.016,0.24-1.32l1.523,0.168l-0.288,1.152h1.393V115.539z
		 M319.668,120.351v-0.996h-4.116v0.996H319.668z"/>
	<path d="M323.088,121.995l0.491-2.496h1.645l-0.888,2.496H323.088z"/>
	<path d="M339.011,120.435h-9.659v-1.26h4.02v-1.644c-0.968-0.12-1.738-0.446-2.31-0.978c-0.572-0.532-0.858-1.186-0.858-1.962
		c0-0.88,0.364-1.596,1.092-2.148c0.729-0.552,1.688-0.828,2.88-0.828c1.2,0,2.164,0.276,2.893,0.828
		c0.728,0.552,1.092,1.268,1.092,2.148c0,0.784-0.288,1.442-0.864,1.974c-0.576,0.532-1.352,0.854-2.328,0.966v1.644h4.044V120.435z
		 M335.885,115.862c0.437-0.32,0.654-0.74,0.654-1.26s-0.214-0.936-0.642-1.248c-0.429-0.312-1.002-0.468-1.723-0.468
		c-0.72,0-1.294,0.156-1.722,0.468s-0.642,0.728-0.642,1.248s0.216,0.94,0.647,1.26c0.433,0.32,1.004,0.48,1.716,0.48
		C334.879,116.342,335.45,116.183,335.885,115.862z"/>
	<path d="M344.375,112.275v2.58h0.828v-3.612h1.476v10.02h-1.476v-5.16h-0.828v2.856h-4.344v-6.684H344.375z M342.875,117.758
		v-4.284h-1.368v4.284H342.875z M348.852,121.743h-1.5V111.05h1.5V121.743z"/>
	<path d="M355.692,112.154c-0.049,1.656-0.45,3.132-1.206,4.428c-0.757,1.296-1.967,2.4-3.631,3.312l-0.888-1.248
		c1.145-0.536,2.076-1.274,2.796-2.214c0.721-0.94,1.136-1.93,1.248-2.97h-3.396v-1.308H355.692z M360,116.391h-1.536v5.352h-1.584
		V111.05h1.584v4.032H360V116.391z"/>
	<path d="M360.719,117.603v-1.272h3.42v1.272H360.719z"/>
	<path d="M367.511,120.422c-0.488,0-0.97-0.056-1.446-0.168c-0.476-0.112-0.838-0.248-1.086-0.408l0.265-1.2
		c0.199,0.128,0.497,0.236,0.894,0.324c0.396,0.088,0.754,0.132,1.074,0.132c1.032,0,1.548-0.428,1.548-1.284
		c0-0.4-0.128-0.688-0.384-0.864c-0.257-0.176-0.637-0.272-1.141-0.288l-0.899-0.024v-1.188l0.804-0.024
		c0.456-0.016,0.812-0.12,1.068-0.312c0.256-0.192,0.384-0.468,0.384-0.828c0-0.368-0.112-0.632-0.336-0.792
		c-0.225-0.16-0.561-0.24-1.008-0.24c-0.568,0-1.152,0.128-1.752,0.384l-0.181-1.236c0.265-0.136,0.622-0.248,1.074-0.336
		c0.452-0.088,0.894-0.132,1.326-0.132c0.792,0,1.416,0.176,1.872,0.528s0.684,0.86,0.684,1.524c0,0.944-0.484,1.592-1.452,1.944
		c1.152,0.216,1.729,0.884,1.729,2.004c0,0.776-0.269,1.384-0.804,1.824C369.208,120.203,368.463,120.422,367.511,120.422z"/>
	<path d="M384.287,115.862v1.248h-9.659v-1.248H384.287z M383.183,119.63c0,0.624-0.334,1.124-1.002,1.5s-1.574,0.564-2.718,0.564
		c-1.16,0-2.072-0.188-2.736-0.564s-0.996-0.876-0.996-1.5c0-0.632,0.328-1.134,0.984-1.506c0.655-0.372,1.563-0.558,2.724-0.558
		s2.074,0.186,2.742,0.558S383.183,118.999,383.183,119.63z M383.111,115.227h-7.212v-3.828h7.152v1.272h-5.557v1.296h5.616V115.227
		z M381.551,119.654c0-0.248-0.192-0.448-0.576-0.6c-0.384-0.152-0.896-0.228-1.536-0.228c-0.624,0-1.126,0.076-1.506,0.228
		c-0.38,0.152-0.57,0.353-0.57,0.6c0,0.224,0.192,0.412,0.576,0.564c0.384,0.152,0.884,0.228,1.5,0.228
		c0.632,0,1.142-0.076,1.53-0.228C381.357,120.067,381.551,119.879,381.551,119.654z"/>
</g>
<g>
	<path d="M213.607,65.152v-1.236h4.884v1.236H213.607z M217.783,66.125c0.432,0.416,0.648,0.94,0.648,1.572
		c0,0.632-0.216,1.156-0.648,1.572c-0.432,0.416-0.988,0.624-1.668,0.624c-0.68,0-1.234-0.21-1.662-0.63
		c-0.428-0.42-0.642-0.942-0.642-1.566c0-0.632,0.218-1.156,0.654-1.572s0.986-0.624,1.65-0.624
		C216.795,65.501,217.351,65.709,217.783,66.125z M214.819,63.34v-1.236h2.7v1.236H214.819z M216.793,68.422
		c0.18-0.196,0.27-0.438,0.27-0.726s-0.09-0.532-0.27-0.732c-0.18-0.2-0.406-0.3-0.678-0.3c-0.264,0-0.484,0.098-0.66,0.294
		c-0.176,0.196-0.264,0.442-0.264,0.738s0.088,0.54,0.264,0.732c0.176,0.192,0.396,0.288,0.66,0.288
		C216.387,68.716,216.613,68.619,216.793,68.422z M220.699,71.536h-1.476v-4.692h-0.792v-1.344h0.792v-3.984h1.476V71.536z
		 M222.775,72.017h-1.512V61.324h1.512V72.017z"/>
	<path d="M229.638,62.249v7.008h-5.124v-7.008H229.638z M228.031,67.984v-4.488h-1.933v4.488H228.031z M232.926,72.017h-1.596
		V61.324h1.596V72.017z"/>
	<path d="M239.731,65.585l-0.84,1.2c-0.353-0.136-0.71-0.37-1.074-0.702s-0.614-0.666-0.75-1.002
		c-0.168,0.432-0.439,0.848-0.815,1.248c-0.376,0.4-0.784,0.692-1.225,0.876l-0.863-1.2c1.384-0.664,2.075-1.776,2.075-3.336v-0.768
		h1.549v0.732C237.788,64.048,238.435,65.032,239.731,65.585z M243.835,71.932h-7.704v-2.892h5.796v-0.468h-5.82v-1.236h7.44v2.844
		h-5.832v0.504h6.12V71.932z M241.447,66.809h-1.476V64.66h-1.14v-1.248h1.14v-1.896h1.476V66.809z M243.536,66.893h-1.488v-5.568
		h1.488V66.893z"/>
	<path d="M250.962,67.444c-0.36,0.096-0.95,0.178-1.771,0.246s-1.574,0.102-2.262,0.102c-0.393,0-0.988-0.008-1.788-0.024v-3.576
		h3.168V63.22h-3.156v-1.248h4.776v3.384h-3.192v1.176c0.305,0.016,0.548,0.024,0.732,0.024c1.352,0,2.472-0.1,3.36-0.3
		C250.894,66.784,250.938,67.18,250.962,67.444z M253.375,71.753h-7.236v-3.06h1.607v1.8h5.629V71.753z M253.182,61.324v3.024h1.5
		v1.296h-1.5v3.528h-1.572v-7.848H253.182z"/>
	<path d="M255.091,72.269l0.491-2.496h1.645l-0.888,2.496H255.091z"/>
	<path d="M266.01,69.353h-4.355v-6.936h1.56v2.364h1.236v-2.364h1.56v2.676h0.864v-3.576h1.464v10.02h-1.464v-5.112h-0.864V69.353z
		 M264.451,68.092v-2.088h-1.236v2.088H264.451z M270.475,72.017h-1.5V61.324h1.5V72.017z"/>
	<path d="M273.691,68.176c0.104,0.008,0.283,0.012,0.54,0.012c1.455,0,2.672-0.092,3.647-0.276c0.016,0.136,0.04,0.338,0.072,0.606
		c0.031,0.268,0.056,0.47,0.072,0.606c-1.297,0.24-2.757,0.36-4.381,0.36c-0.168,0-0.422-0.004-0.762-0.012
		c-0.34-0.008-0.594-0.012-0.762-0.012v-7.188h4.92v1.236h-3.348v1.596h3.191v1.272h-3.191V68.176z M280.123,61.324v3.96h1.416
		v1.308h-1.416v5.424h-1.572V61.324H280.123z"/>
	<path d="M290.598,61.672c0.024,1.192-0.092,2.304-0.348,3.336h1.523v1.248h-9.659v-1.248h6.672
		c0.168-0.632,0.244-1.328,0.228-2.088h-5.604v-1.248H290.598z M290.911,71.873h-7.632v-2.952h5.712v-0.636h-5.725v-1.26h7.309
		v2.976h-5.725v0.6h6.061V71.873z"/>
	<path d="M298.075,72.028h-1.572v-3.3h-4.008v-1.236h9.659v1.236h-4.079V72.028z M301.243,66.736h-7.524v-3.072h5.628v-0.708h-5.628
		v-1.224h7.2v3.084h-5.628v0.732h5.952V66.736z"/>
	<path d="M308.31,62.129c-0.096,3.24-1.696,5.284-4.8,6.132l-0.612-1.284c1.344-0.312,2.344-0.872,3-1.68l-2.735,0.216l-0.252-1.26
		l3.575-0.072c0.057-0.2,0.101-0.448,0.132-0.744h-3.107v-1.308H308.31z M311.478,71.789h-7.26v-3.312h1.584v2.064h5.676V71.789z
		 M311.274,61.324v3.144h1.452v1.32h-1.452v3.276h-1.571v-7.74H311.274z"/>
	<path d="M313.17,72.269l0.491-2.496h1.645l-0.888,2.496H313.17z"/>
	<path d="M325.049,72.028h-1.571V68.62h-4.044v-1.26h9.659v1.26h-4.044V72.028z M328.098,62.968h-7.717v-1.236h7.717V62.968z
		 M328.038,66.568h-7.607V65.32h1.428l-0.265-1.692l1.561-0.144l0.144,1.836h1.92l0.192-1.824l1.572,0.168l-0.336,1.656h1.392
		V66.568z"/>
	<path d="M339.473,70.709h-9.659v-1.248h3.443v-2.508h1.584v2.508h4.632V70.709z M338.417,62.32c0.016,0.464,0.024,0.82,0.024,1.068
		c0,0.768-0.053,1.64-0.156,2.616c-0.104,0.976-0.229,1.76-0.372,2.352c-0.712-0.088-1.208-0.156-1.488-0.204
		c0.145-0.64,0.252-1.32,0.324-2.04c-1.168,0.072-3.148,0.184-5.939,0.336c-0.112-0.776-0.173-1.22-0.181-1.332l6.229-0.18
		c0.016-0.224,0.023-0.54,0.023-0.948v-0.384h-5.832V62.32H338.417z"/>
	<path d="M340.482,65.873c0-1.144,0.249-2.074,0.75-2.79c0.499-0.716,1.182-1.074,2.046-1.074c0.871,0,1.56,0.358,2.063,1.074
		s0.756,1.646,0.756,2.79c0,1.128-0.252,2.048-0.756,2.76c-0.504,0.712-1.192,1.068-2.063,1.068c-0.856,0-1.536-0.355-2.04-1.068
		C340.734,67.921,340.482,67.001,340.482,65.873z M344.61,65.873c0-0.792-0.122-1.4-0.366-1.824
		c-0.244-0.424-0.566-0.636-0.966-0.636c-0.376,0-0.685,0.214-0.925,0.642c-0.239,0.428-0.359,1.034-0.359,1.818
		c0,0.776,0.12,1.378,0.359,1.806c0.24,0.428,0.549,0.642,0.925,0.642c0.399,0,0.722-0.212,0.966-0.636
		C344.488,67.26,344.61,66.656,344.61,65.873z M349.074,72.017h-1.584V61.324h1.584V72.017z"/>
	<path d="M352.469,66.112c1.784,0,3.152-0.1,4.104-0.3l0.132,1.212c-1.248,0.24-2.88,0.36-4.896,0.36
		c-0.096,0-0.244-0.002-0.443-0.006c-0.2-0.004-0.356-0.006-0.469-0.006v-5.196h4.788v1.26h-3.216V66.112z M359.166,71.705h-7.141
		V68.26h1.597v2.208h5.544V71.705z M360.45,65.477h-1.488v3.552h-1.596v-7.704h1.596v2.856h1.488V65.477z"/>
	<path d="M360.87,72.269l0.491-2.496h1.645l-0.888,2.496H360.87z"/>
	<path d="M372.605,61.937c-0.048,1.44-0.506,2.628-1.374,3.564s-2.082,1.628-3.642,2.076l-0.624-1.284
		c0.983-0.2,1.846-0.592,2.586-1.176c0.739-0.583,1.161-1.208,1.266-1.872h-3.3v-1.308H372.605z M375.533,71.897h-6.972v-4.152
		h6.972V71.897z M373.961,70.672v-1.74h-3.816v1.74H373.961z M377.021,64.997h-1.488v2.232h-1.584v-5.904h1.584V63.7h1.488V64.997z"
		/>
	<path d="M382.949,62.309v6.996h-5.172v-6.996H382.949z M381.341,67.997v-4.368h-1.98v4.368H381.341z M385.913,61.324v4.032h1.416
		v1.296h-1.416v5.364h-1.584V61.324H385.913z"/>
	<path d="M388.121,67.877v-1.272h3.42v1.272H388.121z"/>
	<path d="M392.92,70.576v-8.232h3.048c1.992,0,2.988,0.836,2.988,2.508c0,0.872-0.258,1.546-0.774,2.022
		c-0.516,0.476-1.229,0.714-2.142,0.714h-1.416v2.988H392.92z M394.625,66.34h1.116c0.512,0,0.88-0.114,1.104-0.342
		c0.225-0.228,0.336-0.586,0.336-1.074c0-0.504-0.105-0.846-0.317-1.026c-0.212-0.18-0.578-0.27-1.099-0.27h-1.14V66.34z"/>
	<path d="M403.732,70.709c-2.688,0-4.031-1.36-4.031-4.08v-0.264c0-0.752,0.109-1.406,0.33-1.962
		c0.22-0.556,0.523-0.988,0.911-1.296c0.389-0.308,0.818-0.534,1.29-0.678c0.473-0.144,0.992-0.216,1.561-0.216
		c0.928,0,1.704,0.156,2.328,0.468v1.32c-0.784-0.288-1.513-0.432-2.185-0.432c-1.632,0-2.447,0.896-2.447,2.688v0.372
		c0,0.92,0.157,1.616,0.474,2.088c0.315,0.472,0.894,0.708,1.734,0.708c0.392,0,0.775-0.06,1.151-0.18v-1.728h-1.428v-1.2h3.072
		v3.888C405.621,70.541,404.701,70.709,403.732,70.709z"/>
	<path d="M407.212,70.576l2.928-8.232h1.776l2.892,8.232h-1.752l-0.684-1.968h-2.929l-0.672,1.968H407.212z M410.86,64.276
		l-1.031,3.12h2.147l-1.067-3.12H410.86z"/>
	<path d="M415.205,72.269l0.491-2.496h1.645l-0.888,2.496H415.205z"/>
	<path d="M426.916,69.388h-5.111v-7.212h1.571v2.52h1.944v-2.52h1.596V69.388z M425.32,68.14v-2.232h-1.944v2.232H425.32z
		 M430.348,72.017h-1.584v-5.688h-1.429v-1.332h1.429v-3.672h1.584V72.017z"/>
	<path d="M438.22,66.196l-0.841,1.248c-0.424-0.128-0.861-0.386-1.313-0.774s-0.771-0.798-0.954-1.23
		c-0.16,0.48-0.496,0.944-1.008,1.392c-0.513,0.448-1.032,0.756-1.561,0.924l-0.792-1.248c0.792-0.272,1.408-0.698,1.849-1.278
		c0.439-0.58,0.66-1.262,0.66-2.046v-1.104h1.644v1.02C435.904,64.629,436.675,65.661,438.22,66.196z M441.124,70.769l-0.72,1.32
		c-0.72-0.08-1.412-0.326-2.076-0.738c-0.664-0.412-1.116-0.85-1.355-1.314c-0.225,0.464-0.681,0.902-1.368,1.314
		c-0.688,0.412-1.408,0.658-2.16,0.738l-0.66-1.272c0.92-0.136,1.72-0.454,2.4-0.954c0.68-0.5,1.02-1.094,1.02-1.782v-0.204h1.608
		v0.204c0,0.688,0.325,1.272,0.978,1.752S440.219,70.625,441.124,70.769z M440.728,68.428h-1.608v-3.492h-1.668v-1.26h1.668v-2.352
		h1.608V68.428z"/>
	<path d="M447.352,68.284h0.275c1.513,0,2.801-0.108,3.864-0.324c0.064,0.576,0.116,1.008,0.156,1.296
		c-1.232,0.24-2.876,0.36-4.932,0.36h-0.937v-7.332h4.92v1.284h-3.348V68.284z M453.76,61.324v3.996h1.487v1.296h-1.487v5.4h-1.572
		V61.324H453.76z"/>
	<path d="M457.66,65.813c1.744,0,3.112-0.104,4.104-0.312c0.063,0.544,0.107,0.948,0.132,1.212c-1.248,0.256-2.88,0.384-4.896,0.384
		c-0.096,0-0.244-0.004-0.443-0.012c-0.2-0.008-0.356-0.012-0.469-0.012v-4.968h4.788v1.236h-3.216V65.813z M464.26,69.833
		c0,0.64-0.332,1.144-0.996,1.512c-0.664,0.368-1.576,0.552-2.736,0.552c-1.168,0-2.084-0.184-2.748-0.552
		c-0.664-0.368-0.996-0.872-0.996-1.512c0-0.656,0.332-1.17,0.996-1.542s1.58-0.558,2.748-0.558s2.082,0.186,2.742,0.558
		S464.26,69.176,464.26,69.833z M462.604,69.833c0-0.272-0.181-0.482-0.54-0.63c-0.36-0.148-0.872-0.222-1.536-0.222
		s-1.178,0.074-1.542,0.222c-0.364,0.148-0.546,0.358-0.546,0.63c0,0.256,0.182,0.456,0.546,0.6
		c0.364,0.144,0.878,0.216,1.542,0.216s1.176-0.072,1.536-0.216C462.423,70.289,462.604,70.088,462.604,69.833z M465.568,65.14
		h-1.416v2.52h-1.596v-6.336h1.596v2.52h1.416V65.14z"/>
	<path d="M471.448,68.692l-0.84,1.2c-0.36-0.2-0.729-0.522-1.104-0.966s-0.632-0.874-0.768-1.29c-0.12,0.448-0.364,0.898-0.732,1.35
		c-0.368,0.452-0.784,0.818-1.248,1.098l-0.863-1.128c0.68-0.384,1.182-0.86,1.506-1.428c0.324-0.568,0.506-1.336,0.546-2.304h-1.68
		v-1.236h4.812v1.236h-1.596c0.048,0.936,0.231,1.662,0.552,2.178S470.824,68.349,471.448,68.692z M470.14,63.317h-2.82v-1.224h2.82
		V63.317z M473.211,71.536h-1.476v-4.488h-1.212v-1.272h1.212v-4.26h1.476V71.536z M475.264,72.017h-1.488V61.324h1.488V72.017z"/>
</g>
<g>
	<path d="M5.748,125.006H0.744v-5.064h5.004V125.006z M9.384,129.386H2.016v-3.348h1.62v2.112h5.748V129.386z M4.188,123.746v-2.544
		H2.316v2.544H4.188z M7.632,121.946H6.396v-1.236h1.236v-1.752h1.596v7.752H7.632v-2.424H6.396v-1.236h1.236V121.946z"/>
	<path d="M10.836,122.234c0-0.768,0.26-1.394,0.78-1.878c0.52-0.484,1.172-0.726,1.956-0.726c0.792,0,1.448,0.242,1.968,0.726
		c0.52,0.484,0.78,1.11,0.78,1.878c0,0.776-0.262,1.41-0.786,1.902c-0.524,0.492-1.178,0.738-1.962,0.738
		c-0.792,0-1.446-0.246-1.962-0.738C11.094,123.644,10.836,123.01,10.836,122.234z M12.06,125.63h7.572v4.032h-1.62v-2.784H12.06
		V125.63z M12.672,121.292c-0.232,0.228-0.348,0.542-0.348,0.942c0,0.4,0.116,0.714,0.348,0.942s0.532,0.342,0.9,0.342
		s0.67-0.114,0.906-0.342c0.236-0.228,0.354-0.542,0.354-0.942c0-0.392-0.12-0.704-0.36-0.936c-0.24-0.232-0.54-0.348-0.9-0.348
		C13.204,120.95,12.904,121.064,12.672,121.292z M16.656,123.986l0.036-1.356h1.32v-1.02h-1.32l-0.036-1.344h1.356v-1.308h1.62
		v6.252h-1.62v-1.224H16.656z"/>
	<path d="M26.879,128.342c-1.032,0-1.872-0.168-2.52-0.504v-1.308c0.784,0.336,1.572,0.504,2.364,0.504c1,0,1.5-0.36,1.5-1.08
		c0-0.32-0.082-0.558-0.246-0.714c-0.164-0.156-0.466-0.29-0.906-0.402l-0.744-0.192c-0.648-0.168-1.134-0.432-1.458-0.792
		c-0.324-0.36-0.486-0.9-0.486-1.62c0-0.728,0.24-1.308,0.72-1.74s1.18-0.648,2.1-0.648c0.912,0,1.664,0.148,2.256,0.444v1.284
		c-0.808-0.28-1.524-0.42-2.148-0.42c-0.864,0-1.296,0.32-1.296,0.96c0,0.288,0.076,0.506,0.228,0.654
		c0.152,0.148,0.424,0.274,0.816,0.378l0.72,0.192c0.728,0.192,1.264,0.466,1.608,0.822c0.344,0.356,0.516,0.894,0.516,1.614
		c0,0.816-0.254,1.448-0.762,1.896C28.633,128.118,27.879,128.342,26.879,128.342z"/>
	<path d="M32.819,128.318c-1.256,0-1.884-0.6-1.884-1.8v-4.524h1.572v4.2c0,0.32,0.07,0.548,0.21,0.684
		c0.14,0.136,0.386,0.204,0.738,0.204c0.368,0,0.784-0.12,1.248-0.36v-4.728h1.572v6.216h-1.356l-0.144-0.552h-0.06
		C34.139,128.098,33.507,128.318,32.819,128.318z"/>
	<path d="M37.679,129.974v-7.98h1.512v0.54h0.06c0.424-0.44,1.02-0.66,1.788-0.66c0.712,0,1.294,0.24,1.746,0.72
		c0.452,0.48,0.678,1.252,0.678,2.316v0.132c0,2.184-0.94,3.276-2.82,3.276c-0.56,0-1.024-0.108-1.392-0.324v1.98H37.679z
		 M40.403,127.166c0.48,0,0.84-0.144,1.08-0.432c0.24-0.288,0.36-0.784,0.36-1.488v-0.228c0-0.704-0.112-1.192-0.336-1.464
		s-0.572-0.408-1.044-0.408c-0.496,0-0.9,0.108-1.212,0.324v3.384C39.54,127.063,39.923,127.166,40.403,127.166z"/>
	<path d="M44.555,129.974v-7.98h1.512v0.54h0.06c0.424-0.44,1.02-0.66,1.788-0.66c0.712,0,1.294,0.24,1.746,0.72
		c0.452,0.48,0.678,1.252,0.678,2.316v0.132c0,2.184-0.94,3.276-2.82,3.276c-0.56,0-1.024-0.108-1.392-0.324v1.98H44.555z
		 M47.279,127.166c0.48,0,0.84-0.144,1.08-0.432c0.24-0.288,0.36-0.784,0.36-1.488v-0.228c0-0.704-0.112-1.192-0.336-1.464
		s-0.572-0.408-1.044-0.408c-0.496,0-0.9,0.108-1.212,0.324v3.384C46.416,127.063,46.799,127.166,47.279,127.166z"/>
	<path d="M54.107,128.318c-0.968,0-1.71-0.27-2.226-0.81c-0.516-0.54-0.774-1.306-0.774-2.298v-0.168
		c0-0.992,0.276-1.768,0.828-2.328c0.552-0.56,1.28-0.84,2.184-0.84c0.96,0,1.7,0.27,2.22,0.81s0.78,1.31,0.78,2.31v0.168
		c0,1-0.276,1.776-0.828,2.328C55.739,128.042,55.011,128.318,54.107,128.318z M54.131,127.166c0.912,0,1.368-0.628,1.368-1.884
		v-0.288c0-0.728-0.125-1.236-0.372-1.524c-0.248-0.288-0.592-0.432-1.032-0.432c-0.912,0-1.368,0.636-1.368,1.908v0.264
		c0,0.72,0.124,1.226,0.372,1.518C53.347,127.021,53.691,127.166,54.131,127.166z"/>
	<path d="M58.199,128.21v-6.216h1.512v0.732h0.06c0.168-0.24,0.396-0.432,0.684-0.576c0.288-0.144,0.596-0.216,0.924-0.216
		c0.2,0,0.32,0.016,0.36,0.048v1.392c-0.176-0.032-0.34-0.048-0.492-0.048c-0.552,0-1.044,0.128-1.476,0.384v4.5H58.199z"/>
	<path d="M64.871,128.282c-0.592,0-1.044-0.128-1.356-0.384c-0.312-0.256-0.468-0.68-0.468-1.272v-3.468h-0.828v-1.164h0.828v-1.464
		h1.548v1.464h1.428v1.164h-1.428v3.216c0,0.264,0.062,0.448,0.186,0.552s0.334,0.156,0.63,0.156c0.256,0,0.48-0.032,0.672-0.096
		v1.044C65.763,128.198,65.359,128.282,64.871,128.282z"/>
</g>
<g>
	<path d="M39.384,67.373H34.38v-5.064h5.004V67.373z M43.02,71.753h-7.368v-3.348h1.62v2.112h5.748V71.753z M37.824,66.112v-2.544
		h-1.872v2.544H37.824z M41.268,64.313h-1.236v-1.236h1.236v-1.752h1.596v7.752h-1.596v-2.424h-1.236v-1.236h1.236V64.313z"/>
	<path d="M44.472,64.601c0-0.768,0.26-1.394,0.78-1.878c0.52-0.484,1.172-0.726,1.956-0.726c0.792,0,1.448,0.242,1.968,0.726
		c0.52,0.484,0.78,1.11,0.78,1.878c0,0.776-0.262,1.41-0.786,1.902c-0.524,0.492-1.178,0.738-1.962,0.738
		c-0.792,0-1.446-0.246-1.962-0.738C44.729,66.01,44.472,65.377,44.472,64.601z M45.696,67.997h7.572v4.032h-1.62v-2.784h-5.952
		V67.997z M46.308,63.658c-0.232,0.228-0.348,0.542-0.348,0.942c0,0.4,0.116,0.714,0.348,0.942s0.532,0.342,0.9,0.342
		s0.67-0.114,0.906-0.342c0.236-0.228,0.354-0.542,0.354-0.942c0-0.392-0.12-0.704-0.36-0.936c-0.24-0.232-0.54-0.348-0.9-0.348
		C46.839,63.317,46.54,63.43,46.308,63.658z M50.292,66.353l0.036-1.356h1.32v-1.02h-1.32l-0.036-1.344h1.356v-1.308h1.62v6.252
		h-1.62v-1.224H50.292z"/>
	<path d="M60.755,70.709c-0.984,0-1.82-0.128-2.508-0.384v-8.52h1.572v2.964h0.072c0.504-0.352,1.104-0.528,1.8-0.528
		c0.664,0,1.22,0.236,1.668,0.708c0.448,0.472,0.672,1.232,0.672,2.28v0.156C64.031,69.601,62.939,70.709,60.755,70.709z
		 M60.839,69.532c1.048,0,1.572-0.644,1.572-1.932v-0.216c0-0.712-0.112-1.204-0.336-1.476c-0.224-0.271-0.596-0.408-1.116-0.408
		c-0.304,0-0.684,0.092-1.14,0.276v3.588C60.107,69.477,60.447,69.532,60.839,69.532z"/>
	<path d="M67.799,70.685c-0.968,0-1.71-0.27-2.226-0.81s-0.774-1.306-0.774-2.298v-0.168c0-0.992,0.276-1.768,0.828-2.328
		c0.552-0.56,1.28-0.84,2.184-0.84c0.96,0,1.7,0.27,2.22,0.81s0.78,1.31,0.78,2.31v0.168c0,1-0.276,1.776-0.828,2.328
		C69.431,70.408,68.703,70.685,67.799,70.685z M67.823,69.532c0.912,0,1.368-0.628,1.368-1.884V67.36
		c0-0.728-0.125-1.236-0.372-1.524c-0.248-0.288-0.592-0.432-1.032-0.432c-0.912,0-1.368,0.636-1.368,1.908v0.264
		c0,0.72,0.124,1.226,0.372,1.518C67.039,69.387,67.383,69.532,67.823,69.532z"/>
	<path d="M74.567,70.685c-0.968,0-1.71-0.27-2.226-0.81s-0.774-1.306-0.774-2.298v-0.168c0-0.992,0.276-1.768,0.828-2.328
		c0.552-0.56,1.28-0.84,2.184-0.84c0.96,0,1.7,0.27,2.22,0.81s0.78,1.31,0.78,2.31v0.168c0,1-0.276,1.776-0.828,2.328
		C76.199,70.408,75.471,70.685,74.567,70.685z M74.591,69.532c0.912,0,1.368-0.628,1.368-1.884V67.36
		c0-0.728-0.125-1.236-0.372-1.524c-0.248-0.288-0.592-0.432-1.032-0.432c-0.912,0-1.368,0.636-1.368,1.908v0.264
		c0,0.72,0.124,1.226,0.372,1.518C73.807,69.387,74.151,69.532,74.591,69.532z"/>
	<path d="M80.423,70.685c-0.856,0-1.544-0.144-2.064-0.432v-1.128c0.6,0.256,1.212,0.384,1.836,0.384
		c0.784,0,1.176-0.224,1.176-0.672c0-0.2-0.064-0.352-0.192-0.456s-0.352-0.188-0.672-0.252l-0.576-0.132
		c-0.52-0.104-0.916-0.296-1.188-0.576c-0.272-0.28-0.408-0.696-0.408-1.248c0-0.6,0.2-1.07,0.6-1.41
		c0.4-0.34,0.992-0.51,1.776-0.51c0.72,0,1.332,0.112,1.836,0.336v1.128c-0.584-0.2-1.144-0.3-1.68-0.3
		c-0.704,0-1.056,0.216-1.056,0.648c0,0.2,0.06,0.346,0.18,0.438c0.12,0.092,0.328,0.166,0.624,0.222l0.588,0.12
		c0.607,0.128,1.042,0.334,1.302,0.618c0.26,0.284,0.39,0.698,0.39,1.242c0,0.648-0.21,1.14-0.63,1.476
		C81.845,70.517,81.231,70.685,80.423,70.685z"/>
	<path d="M86.147,70.649c-0.592,0-1.044-0.128-1.356-0.384c-0.312-0.256-0.468-0.68-0.468-1.272v-3.468h-0.828V64.36h0.828v-1.464
		h1.548v1.464h1.428v1.164h-1.428v3.216c0,0.264,0.062,0.448,0.186,0.552s0.334,0.156,0.63,0.156c0.256,0,0.48-0.032,0.672-0.096
		v1.044C87.04,70.565,86.635,70.649,86.147,70.649z"/>
	<path d="M91.211,70.685c-1.032,0-1.812-0.272-2.34-0.816c-0.528-0.544-0.792-1.32-0.792-2.328v-0.156c0-1,0.268-1.772,0.804-2.316
		c0.536-0.544,1.24-0.816,2.112-0.816c0.928,0,1.606,0.256,2.034,0.768c0.428,0.512,0.642,1.276,0.642,2.292v0.576h-3.984
		c0.056,0.576,0.236,0.986,0.54,1.23c0.304,0.244,0.752,0.366,1.344,0.366c0.624,0,1.252-0.136,1.884-0.408v1.032
		C92.879,70.492,92.131,70.685,91.211,70.685z M90.959,65.368c-0.328,0-0.612,0.116-0.852,0.348c-0.24,0.232-0.38,0.616-0.42,1.152
		h2.436c0-0.536-0.096-0.92-0.288-1.152S91.351,65.368,90.959,65.368z"/>
	<path d="M94.75,70.576V64.36h1.512v0.732h0.06c0.168-0.24,0.396-0.432,0.684-0.576c0.288-0.144,0.596-0.216,0.924-0.216
		c0.2,0,0.32,0.016,0.36,0.048v1.392c-0.176-0.032-0.34-0.048-0.492-0.048c-0.552,0-1.044,0.128-1.476,0.384v4.5H94.75z"/>
</g>
<polyline fill="none" stroke="#000000" stroke-width="0.9849" stroke-miterlimit="10" points="104.573,104.29 86.362,104.29 
	29.284,211.812 48.811,211.812 "/>
<line fill="none" stroke="#000000" stroke-width="1.3752" stroke-miterlimit="10" x1="104.573" y1="70.109" x2="123.736" y2="70.109"/>
<g>
</g>
<g>
</g>
<g>
</g>
<g>
</g>
<g>
</g>
<g>
</g>
</svg>
