<?xml version="1.0" encoding="utf-8"?>
<!-- Generator: Adobe Illustrator 28.0.0, SVG Export Plug-In . SVG Version: 6.00 Build 0)  -->
<svg version="1.1" id="레이어_1" xmlns="http://www.w3.org/2000/svg" xmlns:xlink="http://www.w3.org/1999/xlink" x="0px"
	 y="0px" viewBox="0 0 288.023 337.346" enable-background="new 0 0 288.023 337.346" xml:space="preserve">
<rect x="47.312" y="280.548" fill="#FCEBBE" width="239.487" height="56.798"/>
<rect x="47.312" y="72.807" fill="#E1EBF8" width="239.487" height="205.806"/>
<rect x="48.055" y="3.5" fill="#ECE8F4" width="238.001" height="68.049"/>
<ellipse fill="#FFFAEA" stroke="#6D6E71" stroke-width="1.3909" stroke-miterlimit="10" cx="179.078" cy="19.524" rx="11.576" ry="9.512"/>
<ellipse fill="#89DC65" stroke="#6D6E71" stroke-width="1.3909" stroke-miterlimit="10" cx="134.979" cy="126.255" rx="12.503" ry="9.677"/>
<path fill="#89DC65" stroke="#6D6E71" stroke-width="1.3909" stroke-miterlimit="10" d="M130.263,178.671l-6.316-6.316
	c-2.594-2.594-2.594-6.838,0-9.432l6.316-6.316c2.594-2.594,6.838-2.594,9.432,0l6.316,6.316c2.594,2.594,2.594,6.838,0,9.432
	l-6.316,6.316C137.101,181.265,132.856,181.265,130.263,178.671z"/>
<ellipse fill="#89DC65" stroke="#6D6E71" stroke-width="1.3909" stroke-miterlimit="10" cx="134.979" cy="205.429" rx="12.774" ry="8.903"/>
<ellipse transform="matrix(0.9987 -0.0514 0.0514 0.9987 -13.2375 7.2777)" fill="#C7A0CE" stroke="#6D6E71" stroke-width="0.7077" stroke-miterlimit="10" cx="134.979" cy="261.193" rx="11.576" ry="14.71"/>
<rect x="64.281" y="306.871" fill="#A87BC9" width="168" height="6.581"/>
<g>
	<path d="M200.333,10.284c0.345,0.524,0.862,0.9,1.551,1.127l-0.649,1.034c-0.484-0.169-0.9-0.413-1.249-0.731
		c-0.349-0.319-0.625-0.699-0.831-1.139c-0.206,0.477-0.488,0.891-0.847,1.243s-0.792,0.616-1.298,0.792l-0.66-1.045
		c0.711-0.242,1.247-0.64,1.606-1.193s0.539-1.161,0.539-1.82V7.661h1.32v0.891C199.817,9.183,199.989,9.76,200.333,10.284z
		 M204.085,16.164h-6.215v-2.959h1.287v1.914h4.928V16.164z M203.854,13.843h-1.298V7.155h1.298V13.843z"/>
	<path d="M213.005,15.394h-8.151v-1.056h3.41v-1.056c-0.755-0.066-1.346-0.251-1.771-0.556c-0.426-0.304-0.638-0.706-0.638-1.205
		c0-0.557,0.273-0.995,0.819-1.314c0.546-0.319,1.292-0.479,2.239-0.479c0.931,0,1.672,0.162,2.222,0.484
		c0.55,0.323,0.825,0.759,0.825,1.309c0,0.492-0.213,0.891-0.638,1.199s-1.016,0.495-1.771,0.561v1.056h3.454V15.394z
		 M212.621,9.344h-7.414V8.299h3.058V7.243h1.287v1.056h3.069V9.344z M207.615,10.944c-0.286,0.121-0.429,0.313-0.429,0.577
		c0,0.506,0.576,0.759,1.727,0.759c1.144,0,1.716-0.253,1.716-0.759c0-0.506-0.572-0.759-1.716-0.759
		C208.334,10.763,207.901,10.823,207.615,10.944z"/>
	<path d="M221.476,12.874h-3.333v1.463h-1.276v-1.463h-3.553v-1.023h8.162V12.874z M220.562,16.164h-6.303v-2.53h1.287v1.485h5.016
		V16.164z M215.646,8.387h3.498V7.44h1.276v3.773h-6.061V7.44h1.287V8.387z M219.144,10.19V9.366h-3.498v0.825H219.144z"/>
	<path d="M225.358,11.076c0.161,0.48,0.403,0.92,0.726,1.32c0.323,0.4,0.722,0.713,1.199,0.94l-0.704,1.045
		c-0.484-0.235-0.904-0.568-1.26-1.001s-0.636-0.932-0.841-1.496c-0.198,0.616-0.48,1.162-0.847,1.639
		c-0.367,0.477-0.799,0.836-1.298,1.078l-0.726-1.045c0.477-0.227,0.88-0.552,1.21-0.974c0.33-0.421,0.578-0.891,0.743-1.408
		s0.248-1.032,0.248-1.545V9.102h-1.859V8.035h4.939v1.067h-1.771V9.63C225.116,10.114,225.197,10.596,225.358,11.076z
		 M228.845,10.642h1.287v1.089h-1.287v4.598h-1.298V7.144h1.298V10.642z"/>
	<path d="M230.946,14.453c0.146-0.143,0.341-0.214,0.583-0.214c0.249,0,0.447,0.073,0.594,0.22c0.146,0.147,0.22,0.33,0.22,0.55
		c0.015,0.103,0.022,0.183,0.022,0.242c0,0.286-0.081,0.572-0.242,0.858c-0.132,0.227-0.292,0.427-0.479,0.599
		s-0.369,0.303-0.544,0.391l-0.319-0.396c0.322-0.25,0.531-0.554,0.627-0.913l0.011-0.044c-0.205-0.022-0.372-0.101-0.5-0.236
		s-0.192-0.303-0.192-0.5C230.726,14.781,230.799,14.596,230.946,14.453z"/>
	<path fill="#BE1E2D" d="M196.902,20.993h1.452v6.743h3.553v1.166h-5.005V20.993z"/>
	<path fill="#BE1E2D" d="M204.194,28.902h-1.452v-7.909h3.047c0.601,0,1.122,0.108,1.562,0.325s0.775,0.517,1.006,0.902
		c0.231,0.385,0.347,0.827,0.347,1.326c0,0.763-0.257,1.364-0.77,1.804c-0.513,0.44-1.229,0.66-2.145,0.66h-1.595V28.902z
		 M204.194,24.843h1.595c0.491,0,0.854-0.115,1.089-0.346c0.235-0.231,0.352-0.545,0.352-0.941c0-0.403-0.119-0.737-0.357-1.001
		c-0.238-0.264-0.6-0.396-1.083-0.396h-1.595V24.843z"/>
	<path fill="#BE1E2D" d="M213.709,26.311c-0.088-0.143-0.251-0.277-0.489-0.402c-0.238-0.125-0.585-0.256-1.04-0.396
		c-0.821-0.249-1.463-0.564-1.925-0.946c-0.462-0.381-0.693-0.876-0.693-1.485c0-0.433,0.121-0.816,0.363-1.149
		c0.242-0.334,0.578-0.592,1.006-0.776c0.429-0.183,0.922-0.275,1.479-0.275c0.579,0,1.085,0.106,1.518,0.319
		c0.433,0.213,0.766,0.502,1.001,0.869s0.352,0.777,0.352,1.232h-1.452c0-0.389-0.121-0.696-0.363-0.924
		c-0.242-0.227-0.602-0.341-1.078-0.341c-0.447,0-0.789,0.095-1.023,0.286c-0.235,0.191-0.352,0.44-0.352,0.748
		c0,0.271,0.134,0.504,0.401,0.699s0.688,0.376,1.26,0.544c0.902,0.264,1.563,0.594,1.985,0.99s0.632,0.906,0.632,1.529
		c0,0.675-0.256,1.206-0.77,1.595c-0.514,0.389-1.203,0.583-2.068,0.583c-0.535,0-1.042-0.095-1.518-0.286
		c-0.477-0.191-0.865-0.477-1.166-0.858c-0.301-0.381-0.451-0.847-0.451-1.397h1.452c0,0.477,0.152,0.829,0.457,1.056
		c0.304,0.228,0.713,0.341,1.227,0.341c0.447,0,0.79-0.093,1.029-0.28c0.238-0.187,0.357-0.435,0.357-0.743
		C213.842,26.632,213.798,26.455,213.709,26.311z"/>
</g>
<g>
	<path d="M168.187,58.994h-3.443v3.135h-1.287v-3.135h-3.399v-1.067h8.129V58.994z M165.173,54.742
		c0.235,0.355,0.585,0.665,1.051,0.929c0.465,0.264,1.024,0.437,1.677,0.517l-0.495,1.067c-0.763-0.11-1.423-0.337-1.98-0.682
		c-0.558-0.344-0.987-0.77-1.287-1.276c-0.301,0.499-0.731,0.922-1.292,1.271c-0.561,0.349-1.219,0.578-1.975,0.688l-0.495-1.067
		c0.653-0.081,1.21-0.253,1.672-0.517c0.462-0.264,0.811-0.576,1.045-0.935c0.234-0.359,0.352-0.722,0.352-1.089v-0.44h1.375v0.44
		C164.821,54.021,164.938,54.386,165.173,54.742z"/>
	<path d="M176.657,58.333h-8.129v-1.034h1.826v-1.1c-0.323-0.154-0.572-0.345-0.748-0.572c-0.176-0.227-0.264-0.488-0.264-0.781
		c0-0.55,0.293-0.981,0.88-1.292c0.587-0.312,1.379-0.468,2.376-0.468c0.998,0,1.786,0.156,2.365,0.468
		c0.579,0.312,0.869,0.742,0.869,1.292c0,0.301-0.09,0.566-0.27,0.797c-0.18,0.231-0.438,0.423-0.776,0.578v1.078h1.87V58.333z
		 M174.864,59.241c0.55,0.29,0.825,0.695,0.825,1.216c0,0.535-0.273,0.944-0.82,1.227s-1.307,0.423-2.282,0.423
		c-0.99,0-1.76-0.141-2.31-0.423c-0.55-0.282-0.825-0.691-0.825-1.227c0-0.528,0.277-0.935,0.831-1.221
		c0.554-0.286,1.322-0.429,2.305-0.429C173.555,58.807,174.314,58.951,174.864,59.241z M171.168,54.291
		c-0.33,0.128-0.495,0.313-0.495,0.556c0,0.249,0.165,0.436,0.495,0.561c0.33,0.125,0.807,0.187,1.43,0.187
		c0.624,0,1.098-0.062,1.425-0.187c0.326-0.125,0.489-0.312,0.489-0.561c0-0.242-0.165-0.427-0.495-0.556
		c-0.33-0.128-0.803-0.192-1.419-0.192C171.975,54.099,171.498,54.163,171.168,54.291z M170.772,60.456
		c0,0.228,0.148,0.396,0.445,0.506s0.753,0.165,1.37,0.165c1.203,0,1.804-0.224,1.804-0.671c0-0.44-0.601-0.66-1.804-0.66
		C171.377,59.796,170.772,60.017,170.772,60.456z M173.511,57.299V56.54c-0.308,0.037-0.612,0.055-0.913,0.055
		c-0.315,0-0.631-0.019-0.946-0.055v0.759H173.511z"/>
	<path d="M180.21,57.789c0.271,0.612,0.708,1.087,1.309,1.424l-0.693,0.979c-0.748-0.396-1.291-1.07-1.628-2.024
		c-0.162,0.499-0.38,0.939-0.655,1.32c-0.275,0.381-0.603,0.686-0.984,0.913l-0.737-0.99c0.609-0.367,1.052-0.876,1.331-1.529
		c0.279-0.652,0.418-1.368,0.418-2.145v-0.198h-1.408v-1.045h1.408v-1.232h1.21v1.232h1.386v1.045h-1.364v0.198
		C179.803,56.493,179.938,57.177,180.21,57.789z M182.883,61.7h-1.21v-4.213h-1.012v-1.067h1.012v-3.333h1.21V61.7z M184.709,62.128
		h-1.221v-9.185h1.221V62.128z"/>
	<path d="M186.479,55.27c0.22-0.7,0.499-1.304,0.836-1.81c0.337-0.506,0.686-0.906,1.045-1.199l0.704,0.649
		c-0.279,0.257-0.552,0.614-0.82,1.072c-0.268,0.458-0.489,0.994-0.666,1.606c-0.176,0.612-0.264,1.26-0.264,1.941
		c0,0.719,0.088,1.392,0.264,2.019c0.176,0.627,0.396,1.17,0.66,1.628c0.264,0.458,0.539,0.827,0.825,1.105l-0.704,0.649
		c-0.367-0.293-0.717-0.693-1.051-1.199c-0.333-0.506-0.61-1.118-0.831-1.837c-0.22-0.719-0.33-1.503-0.33-2.354
		C186.15,56.727,186.26,55.97,186.479,55.27z"/>
	<path d="M192.904,56.304c0.249,0.473,0.642,0.838,1.177,1.094l-0.704,1.012c-0.667-0.323-1.155-0.851-1.463-1.584
		c-0.345,0.851-0.884,1.452-1.617,1.804l-0.715-0.99c0.579-0.293,1.008-0.702,1.287-1.227c0.278-0.524,0.418-1.087,0.418-1.688
		V53.56h1.243v1.166C192.53,55.305,192.654,55.831,192.904,56.304z M197.589,61.963h-6.281v-2.948h1.287v1.903h4.994V61.963z
		 M195.555,59.543h-1.21v-3.432h-1.056v-1.078h1.056v-1.936h1.21V59.543z M197.358,59.818h-1.221v-6.875h1.221V59.818z"/>
	<path d="M202.094,57.481c0.355,0.737,0.889,1.267,1.601,1.589l-0.77,1.056c-0.946-0.469-1.613-1.309-2.002-2.519
		c-0.198,0.616-0.471,1.153-0.819,1.611c-0.349,0.458-0.769,0.812-1.26,1.062l-0.792-1.067c0.726-0.345,1.274-0.902,1.645-1.672
		c0.37-0.77,0.556-1.621,0.556-2.552v-1.342h1.309v1.342C201.561,55.914,201.738,56.744,202.094,57.481z M205.708,62.14h-1.287
		v-5.258h-1.716v-1.067h1.716v-2.871h1.287V62.14z"/>
	<path d="M209.514,59.895c-0.22,0.719-0.497,1.331-0.831,1.837c-0.334,0.506-0.684,0.906-1.051,1.199l-0.704-0.649
		c0.286-0.278,0.561-0.647,0.825-1.105c0.264-0.458,0.484-1.001,0.66-1.628c0.176-0.627,0.264-1.3,0.264-2.019
		c0-0.682-0.088-1.329-0.264-1.941c-0.176-0.612-0.398-1.147-0.666-1.606c-0.268-0.458-0.541-0.815-0.819-1.072l0.704-0.649
		c0.359,0.293,0.708,0.693,1.045,1.199c0.337,0.506,0.616,1.109,0.836,1.81c0.22,0.7,0.33,1.458,0.33,2.271
		C209.844,58.392,209.733,59.177,209.514,59.895z"/>
</g>
<g>
	<path d="M21.053,21.292c0.345,0.524,0.862,0.9,1.551,1.127l-0.649,1.034c-0.484-0.169-0.9-0.413-1.249-0.731
		c-0.349-0.319-0.625-0.699-0.831-1.139c-0.206,0.477-0.488,0.891-0.847,1.243s-0.792,0.616-1.298,0.792l-0.66-1.045
		c0.711-0.242,1.247-0.64,1.606-1.193s0.539-1.161,0.539-1.82v-0.891h1.32v0.891C20.537,20.191,20.708,20.768,21.053,21.292z
		 M24.805,27.172h-6.215v-2.959h1.287v1.914h4.928V27.172z M24.573,24.851h-1.298v-6.688h1.298V24.851z"/>
	<path d="M33.725,26.402h-8.151v-1.056h3.41V24.29c-0.755-0.066-1.346-0.251-1.771-0.556c-0.426-0.304-0.638-0.706-0.638-1.205
		c0-0.557,0.273-0.995,0.819-1.314c0.546-0.319,1.292-0.479,2.239-0.479c0.931,0,1.672,0.162,2.222,0.484
		c0.55,0.323,0.825,0.759,0.825,1.309c0,0.492-0.213,0.891-0.638,1.199s-1.016,0.495-1.771,0.561v1.056h3.454V26.402z M33.34,20.352
		h-7.414v-1.045h3.058v-1.056h1.287v1.056h3.069V20.352z M28.335,21.953c-0.286,0.121-0.429,0.313-0.429,0.577
		c0,0.506,0.576,0.759,1.727,0.759c1.144,0,1.716-0.253,1.716-0.759c0-0.506-0.572-0.759-1.716-0.759
		C29.054,21.771,28.621,21.831,28.335,21.953z"/>
</g>
<g>
	<path d="M16.764,72.823h-3.443v3.135h-1.287v-3.135H8.635v-1.067h8.129V72.823z M13.75,68.572c0.235,0.355,0.585,0.665,1.051,0.929
		c0.465,0.264,1.024,0.437,1.677,0.517l-0.495,1.067c-0.763-0.11-1.423-0.337-1.98-0.682c-0.558-0.344-0.987-0.77-1.287-1.276
		c-0.301,0.499-0.731,0.922-1.292,1.271c-0.561,0.349-1.219,0.578-1.975,0.688l-0.495-1.067c0.653-0.081,1.21-0.253,1.672-0.517
		c0.462-0.264,0.811-0.576,1.045-0.935c0.234-0.359,0.352-0.722,0.352-1.089v-0.44h1.375v0.44
		C13.398,67.851,13.515,68.216,13.75,68.572z"/>
	<path d="M25.233,72.163h-8.129v-1.034h1.826v-1.1c-0.323-0.154-0.572-0.345-0.748-0.572c-0.176-0.227-0.264-0.488-0.264-0.781
		c0-0.55,0.293-0.981,0.88-1.292c0.587-0.312,1.379-0.468,2.376-0.468c0.998,0,1.786,0.156,2.365,0.468
		c0.579,0.312,0.869,0.742,0.869,1.292c0,0.301-0.09,0.566-0.27,0.797c-0.18,0.231-0.438,0.423-0.776,0.578v1.078h1.87V72.163z
		 M23.44,73.07c0.55,0.29,0.825,0.695,0.825,1.216c0,0.535-0.273,0.944-0.82,1.227s-1.307,0.423-2.282,0.423
		c-0.99,0-1.76-0.141-2.31-0.423c-0.55-0.282-0.825-0.691-0.825-1.227c0-0.528,0.277-0.935,0.831-1.221
		c0.554-0.286,1.322-0.429,2.305-0.429C22.131,72.636,22.891,72.781,23.44,73.07z M19.745,68.121
		c-0.33,0.128-0.495,0.313-0.495,0.556c0,0.249,0.165,0.436,0.495,0.561c0.33,0.125,0.807,0.187,1.43,0.187
		c0.624,0,1.098-0.062,1.425-0.187c0.326-0.125,0.489-0.312,0.489-0.561c0-0.242-0.165-0.427-0.495-0.556
		c-0.33-0.128-0.803-0.192-1.419-0.192C20.551,67.928,20.074,67.992,19.745,68.121z M19.349,74.286c0,0.228,0.148,0.396,0.445,0.506
		s0.753,0.165,1.37,0.165c1.203,0,1.804-0.224,1.804-0.671c0-0.44-0.601-0.66-1.804-0.66C19.954,73.626,19.349,73.846,19.349,74.286
		z M22.087,71.129V70.37c-0.308,0.037-0.612,0.055-0.913,0.055c-0.315,0-0.631-0.019-0.946-0.055v0.759H22.087z"/>
	<path d="M28.787,71.619c0.271,0.612,0.708,1.087,1.309,1.424l-0.693,0.979c-0.748-0.396-1.291-1.07-1.628-2.024
		c-0.162,0.499-0.38,0.939-0.655,1.32c-0.275,0.381-0.603,0.686-0.984,0.913l-0.737-0.99c0.609-0.367,1.052-0.876,1.331-1.529
		c0.279-0.652,0.418-1.368,0.418-2.145v-0.198H25.74v-1.045h1.408v-1.232h1.21v1.232h1.386v1.045H28.38v0.198
		C28.38,70.322,28.515,71.006,28.787,71.619z M31.459,75.529h-1.21v-4.213h-1.012v-1.067h1.012v-3.333h1.21V75.529z M33.286,75.958
		h-1.221v-9.185h1.221V75.958z"/>
</g>
<g>
	<path d="M4.114,186.817c0.345,0.524,0.862,0.9,1.551,1.127l-0.649,1.034c-0.484-0.169-0.9-0.413-1.249-0.731
		c-0.349-0.319-0.625-0.699-0.831-1.139c-0.206,0.477-0.488,0.891-0.847,1.243s-0.792,0.616-1.298,0.792l-0.66-1.045
		c0.711-0.242,1.247-0.64,1.606-1.193s0.539-1.161,0.539-1.82v-0.891h1.32v0.891C3.597,185.715,3.769,186.292,4.114,186.817z
		 M7.865,192.696H1.65v-2.959h1.287v1.914h4.928V192.696z M7.634,190.375H6.336v-6.688h1.298V190.375z"/>
	<path d="M16.786,191.926H8.635v-1.056h3.41v-1.056c-0.755-0.066-1.346-0.251-1.771-0.556c-0.426-0.304-0.638-0.706-0.638-1.205
		c0-0.557,0.273-0.995,0.819-1.314c0.546-0.319,1.292-0.479,2.239-0.479c0.931,0,1.672,0.162,2.222,0.484
		c0.55,0.323,0.825,0.759,0.825,1.309c0,0.492-0.213,0.891-0.638,1.199s-1.016,0.495-1.771,0.561v1.056h3.454V191.926z
		 M16.401,185.876H8.987v-1.045h3.058v-1.056h1.287v1.056h3.069V185.876z M11.396,187.477c-0.286,0.121-0.429,0.313-0.429,0.577
		c0,0.506,0.576,0.759,1.727,0.759c1.144,0,1.716-0.253,1.716-0.759c0-0.506-0.572-0.759-1.716-0.759
		C12.114,187.295,11.682,187.356,11.396,187.477z"/>
	<path d="M21.004,187.07c0.341,0.495,0.849,0.856,1.523,1.083l-0.638,1.045c-0.939-0.322-1.617-0.931-2.035-1.826
		c-0.198,0.469-0.477,0.876-0.836,1.221c-0.359,0.345-0.796,0.605-1.309,0.781l-0.649-1.056c0.696-0.234,1.223-0.614,1.579-1.139
		c0.355-0.524,0.533-1.098,0.533-1.721v-0.11h-1.76v-1.045h4.829v1.045h-1.749v0.121C20.493,186.041,20.664,186.575,21.004,187.07z
		 M24.838,192.696H18.7v-2.882h1.276v1.837h4.862V192.696z M24.629,190.375h-1.298v-3.256h-1.419v-1.067h1.419v-2.365h1.298V190.375
		z"/>
	<path d="M29.897,185.184h-2.717v1.837c0.763-0.007,1.406-0.033,1.931-0.077c0.524-0.044,1.04-0.117,1.545-0.22l0.143,1.001
		c-0.55,0.132-1.117,0.216-1.7,0.253s-1.402,0.055-2.458,0.055h-0.748v-3.883h4.004V185.184z M32.659,191.156h-4.653v0.55h4.906
		v1.056h-6.171v-2.585h4.642v-0.528h-4.653v-1.045h5.929V191.156z M32.659,185.393h1.188v1.078h-1.188v1.76h-1.287v-4.554h1.287
		V185.393z"/>
</g>
<g>
	<path d="M18.655,304.127h1.749v-1.31h1.287v4.632h-4.323v-4.632h1.287V304.127z M24.497,311.167h-6.094v-2.938h1.265v1.893h4.829
		V311.167z M20.404,306.426v-1.298h-1.749v1.298H20.404z M24.188,304.732h1.188v1.078h-1.188v3.103h-1.287v-6.754h1.287V304.732z"/>
	<path d="M33.703,307.471h-8.129v-1.034h8.129V307.471z M31.354,302.565c0.488,0.147,0.864,0.354,1.128,0.622
		c0.264,0.268,0.396,0.585,0.396,0.951c0,0.564-0.292,1.007-0.875,1.325c-0.583,0.319-1.37,0.479-2.36,0.479
		c-0.997,0-1.789-0.159-2.376-0.479c-0.586-0.318-0.88-0.761-0.88-1.325c0-0.366,0.134-0.684,0.401-0.951s0.647-0.475,1.139-0.622
		c0.491-0.146,1.063-0.22,1.716-0.22S30.867,302.418,31.354,302.565z M31.916,308.412c0.546,0.29,0.82,0.706,0.82,1.249
		c0,0.527-0.275,0.938-0.825,1.231s-1.309,0.44-2.277,0.44c-0.983,0-1.751-0.147-2.305-0.44s-0.831-0.704-0.831-1.231
		c0-0.543,0.275-0.959,0.825-1.249c0.55-0.289,1.32-0.435,2.31-0.435C30.608,307.977,31.369,308.122,31.916,308.412z
		 M27.719,304.138c0,0.257,0.165,0.451,0.495,0.583c0.33,0.132,0.807,0.198,1.43,0.198c0.616,0,1.089-0.066,1.419-0.198
		c0.33-0.132,0.495-0.326,0.495-0.583s-0.165-0.449-0.495-0.577c-0.33-0.129-0.803-0.192-1.419-0.192
		C28.361,303.369,27.719,303.625,27.719,304.138z M28.264,309.126c-0.297,0.114-0.445,0.292-0.445,0.534
		c0,0.228,0.15,0.397,0.451,0.511c0.301,0.114,0.755,0.171,1.364,0.171c1.203,0,1.804-0.228,1.804-0.682
		c0-0.47-0.601-0.704-1.804-0.704C29.017,308.956,28.561,309.013,28.264,309.126z"/>
</g>
<g>
	<path d="M248.674,61.658c0.246,0.675,0.651,1.203,1.215,1.584l-0.693,1.023c-0.704-0.44-1.21-1.162-1.518-2.167
		c-0.161,0.521-0.379,0.985-0.654,1.392c-0.275,0.407-0.604,0.731-0.985,0.974l-0.781-0.979c0.623-0.396,1.076-0.952,1.358-1.667
		s0.424-1.501,0.424-2.359v-1.551h1.265v1.496C248.306,60.232,248.429,60.984,248.674,61.658z M251.297,65.872h-1.221v-4.598h-1.111
		v-1.067h1.111v-2.948h1.221V65.872z M253.157,66.3h-1.243v-9.185h1.243V66.3z"/>
	<path d="M262.044,65.289h-8.151v-1.111h3.41V62.56h-2.728v-1.034h1.166V58.93h-1.21v-1.056h6.842v1.056h-1.222v2.596h1.188v1.034
		h-2.75v1.617h3.454V65.289z M258.854,61.526V58.93h-1.814v2.596H258.854z"/>
	<path d="M266.907,62.054h-4.279v-4.268h4.279V62.054z M269.448,66.311h-1.287v-2.299h-4.708v-1.045h5.995V66.311z M263.904,61.02
		h1.749V58.81h-1.749V61.02z M269.448,59.304h1.188v1.078h-1.188v2.167h-1.287v-5.434h1.287V59.304z"/>
</g>
<g>
	<path d="M165.874,159.218c0.345,0.524,0.862,0.9,1.551,1.127l-0.649,1.034c-0.484-0.169-0.9-0.413-1.249-0.731
		c-0.349-0.319-0.625-0.699-0.831-1.139c-0.206,0.477-0.488,0.891-0.847,1.243s-0.792,0.616-1.298,0.792l-0.66-1.045
		c0.711-0.242,1.247-0.64,1.606-1.193s0.539-1.161,0.539-1.82v-0.891h1.32v0.891C165.357,158.117,165.529,158.694,165.874,159.218z
		 M169.625,165.098h-6.215v-2.959h1.287v1.914h4.928V165.098z M169.394,162.777h-1.298v-6.688h1.298V162.777z"/>
	<path d="M178.546,164.328h-8.151v-1.056h3.41v-1.056c-0.755-0.066-1.346-0.251-1.771-0.556c-0.426-0.304-0.638-0.706-0.638-1.205
		c0-0.557,0.273-0.995,0.819-1.314c0.546-0.319,1.292-0.479,2.239-0.479c0.931,0,1.672,0.162,2.222,0.484
		c0.55,0.323,0.825,0.759,0.825,1.309c0,0.492-0.213,0.891-0.638,1.199s-1.016,0.495-1.771,0.561v1.056h3.454V164.328z
		 M178.161,158.278h-7.414v-1.045h3.058v-1.056h1.287v1.056h3.069V158.278z M173.156,159.878c-0.286,0.121-0.429,0.313-0.429,0.577
		c0,0.506,0.576,0.759,1.727,0.759c1.144,0,1.716-0.253,1.716-0.759c0-0.506-0.572-0.759-1.716-0.759
		C173.875,159.697,173.442,159.757,173.156,159.878z"/>
	<path d="M182.765,159.471c0.341,0.495,0.849,0.856,1.523,1.083l-0.638,1.045c-0.939-0.322-1.617-0.931-2.035-1.826
		c-0.198,0.469-0.477,0.876-0.836,1.221c-0.359,0.345-0.796,0.605-1.309,0.781l-0.649-1.056c0.696-0.234,1.223-0.614,1.579-1.139
		c0.355-0.524,0.533-1.098,0.533-1.721v-0.11h-1.76v-1.045h4.829v1.045h-1.749v0.121
		C182.253,158.443,182.424,158.976,182.765,159.471z M186.598,165.098h-6.138v-2.882h1.276v1.837h4.862V165.098z M186.389,162.777
		h-1.298v-3.256h-1.419v-1.067h1.419v-2.365h1.298V162.777z"/>
	<path d="M191.658,157.585h-2.717v1.837c0.763-0.007,1.406-0.033,1.931-0.077c0.524-0.044,1.04-0.117,1.545-0.22l0.143,1.001
		c-0.55,0.132-1.117,0.216-1.7,0.253s-1.402,0.055-2.458,0.055h-0.748v-3.883h4.004V157.585z M194.419,163.558h-4.653v0.55h4.906
		v1.056h-6.171v-2.585h4.642v-0.528h-4.653v-1.045h5.929V163.558z M194.419,157.794h1.188v1.078h-1.188v1.76h-1.287v-4.554h1.287
		V157.794z"/>
	<path d="M170.054,173.942h-3.421v0.572h2.442v2.376h-4.928v0.517h5.148v0.99h-6.424v-2.431h4.928v-0.462h-4.939v-0.99h2.464v-0.572
		h-3.399v-1.023h8.129V173.942z M169.031,172.435h-6.105v-2.882h6.105V172.435z M164.202,171.423h3.542v-0.858h-3.542V171.423z"/>
	<path d="M175.653,170.752h-1.749c0.051,0.477,0.253,0.906,0.605,1.287s0.851,0.66,1.496,0.836l-0.594,1.034
		c-0.499-0.14-0.93-0.352-1.292-0.638c-0.363-0.286-0.647-0.627-0.853-1.023c-0.213,0.44-0.506,0.819-0.88,1.138
		c-0.374,0.319-0.829,0.556-1.364,0.709l-0.594-1.045c0.66-0.19,1.169-0.495,1.529-0.913c0.359-0.418,0.561-0.88,0.605-1.386h-1.804
		v-1.056h4.895V170.752z M177.864,176.824h-4.719v0.561h4.939v1.012h-6.193v-2.508h4.686v-0.55h-4.708v-0.99h5.995V176.824z
		 M177.853,173.986h-1.287v-4.708h1.287V173.986z"/>
</g>
<g>
	<path d="M157.614,255.074c0.341,0.495,0.849,0.856,1.523,1.084l-0.638,1.045c-0.939-0.322-1.617-0.932-2.035-1.826
		c-0.198,0.47-0.477,0.876-0.836,1.221c-0.359,0.345-0.796,0.605-1.309,0.781l-0.649-1.056c0.696-0.234,1.223-0.614,1.579-1.139
		c0.355-0.524,0.533-1.099,0.533-1.722v-0.11h-1.76v-1.045h4.829v1.045h-1.749v0.121
		C157.103,254.045,157.273,254.579,157.614,255.074z M161.448,260.701h-6.138v-2.882h1.276v1.837h4.862V260.701z M161.239,258.379
		h-1.298v-3.256h-1.419v-1.067h1.419v-2.364h1.298V258.379z"/>
	<path d="M166.018,256.141c0.355,0.737,0.875,1.274,1.557,1.611l-0.77,1.056c-0.895-0.454-1.544-1.279-1.947-2.475
		c-0.418,1.283-1.115,2.167-2.09,2.651l-0.77-1.078c0.733-0.345,1.283-0.898,1.65-1.661s0.55-1.603,0.55-2.52v-1.342h1.287v1.342
		C165.484,254.599,165.662,255.404,166.018,256.141z M169.235,255.211h1.287v1.111h-1.287v4.543h-1.298v-9.186h1.298V255.211z"/>
	<path d="M176.572,252.572c0.374,0.197,0.669,0.475,0.886,0.83c0.216,0.355,0.324,0.754,0.324,1.193
		c0,0.447-0.108,0.848-0.324,1.199c-0.217,0.353-0.512,0.627-0.886,0.825s-0.788,0.297-1.243,0.297
		c-0.455,0-0.867-0.099-1.237-0.297s-0.664-0.473-0.88-0.825c-0.216-0.352-0.325-0.752-0.325-1.199c0-0.439,0.108-0.838,0.325-1.193
		s0.511-0.633,0.885-0.83c0.374-0.198,0.785-0.297,1.232-0.297C175.784,252.275,176.198,252.373,176.572,252.572z M174.488,253.738
		c-0.224,0.213-0.335,0.498-0.335,0.857c0,0.367,0.112,0.655,0.335,0.864s0.504,0.313,0.841,0.313s0.616-0.104,0.836-0.313
		c0.22-0.209,0.33-0.497,0.33-0.864c0-0.359-0.11-0.645-0.33-0.857c-0.22-0.213-0.499-0.319-0.836-0.319
		S174.711,253.525,174.488,253.738z M180.456,260.701h-6.215v-3.08h1.298v2.035h4.917V260.701z M180.224,258.281h-1.298v-6.589
		h1.298V258.281z"/>
	<path d="M184.79,255.613c0.161,0.48,0.403,0.921,0.726,1.32s0.722,0.713,1.199,0.94l-0.704,1.045
		c-0.484-0.234-0.904-0.568-1.26-1.001s-0.636-0.932-0.841-1.496c-0.198,0.616-0.48,1.162-0.847,1.639
		c-0.367,0.478-0.799,0.837-1.298,1.078l-0.726-1.045c0.477-0.227,0.88-0.552,1.21-0.974c0.33-0.421,0.578-0.891,0.743-1.407
		c0.165-0.518,0.248-1.032,0.248-1.546v-0.528h-1.859v-1.066h4.939v1.066h-1.771v0.528
		C184.547,254.651,184.628,255.132,184.79,255.613z M188.276,255.178h1.287v1.089h-1.287v4.599h-1.298v-9.186h1.298V255.178z"/>
</g>
<g>
	<path d="M147.628,301.022h-1.456v2.307h-0.994v-2.307h-1.372v2.307h-1.002v-2.307h-1.423v-0.809h6.247V301.022z M145.78,296.732
		c0.379,0.132,0.673,0.317,0.884,0.556c0.211,0.239,0.315,0.516,0.315,0.829c0,0.314-0.104,0.589-0.315,0.821
		c-0.211,0.233-0.504,0.414-0.88,0.543c-0.376,0.13-0.809,0.194-1.297,0.194c-0.482,0-0.912-0.064-1.288-0.194
		c-0.376-0.129-0.669-0.31-0.88-0.543c-0.21-0.232-0.315-0.507-0.315-0.821c0-0.313,0.105-0.59,0.315-0.829
		c0.211-0.238,0.504-0.424,0.88-0.556s0.806-0.197,1.288-0.197S145.401,296.6,145.78,296.732z M143.41,297.537
		c-0.259,0.135-0.388,0.328-0.388,0.58c0,0.247,0.129,0.436,0.388,0.564c0.258,0.129,0.617,0.193,1.077,0.193
		s0.822-0.064,1.086-0.193c0.265-0.129,0.396-0.317,0.396-0.564c0-0.246-0.132-0.438-0.396-0.576
		c-0.264-0.138-0.626-0.206-1.086-0.206S143.668,297.402,143.41,297.537z"/>
	<path d="M150.857,298.896c0.261,0.379,0.649,0.655,1.166,0.829l-0.488,0.8c-0.719-0.247-1.238-0.713-1.558-1.397
		c-0.151,0.359-0.365,0.671-0.64,0.935c-0.275,0.264-0.609,0.463-1.002,0.598l-0.497-0.808c0.533-0.18,0.936-0.471,1.208-0.872
		s0.408-0.84,0.408-1.317v-0.084h-1.347v-0.8h3.696v0.8h-1.339v0.093C150.466,298.109,150.597,298.517,150.857,298.896z
		 M153.792,303.203h-4.698v-2.206h0.977v1.406h3.722V303.203z M153.632,301.426h-0.994v-2.492h-1.086v-0.817h1.086v-1.81h0.994
		V301.426z"/>
	<path d="M157.084,299.308c0.123,0.368,0.309,0.705,0.556,1.011s0.553,0.546,0.918,0.72l-0.539,0.8
		c-0.37-0.18-0.692-0.435-0.964-0.766c-0.272-0.331-0.487-0.713-0.645-1.146c-0.151,0.472-0.367,0.89-0.648,1.255
		c-0.28,0.365-0.611,0.64-0.993,0.825l-0.556-0.8c0.364-0.174,0.674-0.423,0.926-0.745c0.253-0.323,0.442-0.683,0.568-1.078
		s0.189-0.79,0.189-1.183v-0.404h-1.423v-0.816h3.78v0.816h-1.355v0.404C156.898,298.572,156.96,298.941,157.084,299.308z
		 M159.753,298.976h0.985v0.833h-0.985v3.52h-0.993v-7.03h0.993V298.976z"/>
	<path d="M165.432,298.896c0.261,0.379,0.649,0.655,1.166,0.829l-0.488,0.8c-0.719-0.247-1.238-0.713-1.558-1.397
		c-0.151,0.359-0.365,0.671-0.64,0.935c-0.275,0.264-0.609,0.463-1.002,0.598l-0.497-0.808c0.533-0.18,0.936-0.471,1.208-0.872
		s0.408-0.84,0.408-1.317v-0.084h-1.347v-0.8h3.696v0.8h-1.339v0.093C165.04,298.109,165.171,298.517,165.432,298.896z
		 M168.366,303.203h-4.698v-2.206h0.977v1.406h3.722V303.203z M168.206,301.426h-0.994v-2.492h-1.086v-0.817h1.086v-1.81h0.994
		V301.426z"/>
	<path d="M171.864,299.712c0.272,0.564,0.67,0.976,1.191,1.233l-0.589,0.809c-0.686-0.348-1.182-0.979-1.491-1.895
		c-0.319,0.982-0.853,1.659-1.6,2.029l-0.589-0.825c0.561-0.264,0.982-0.688,1.263-1.271s0.421-1.227,0.421-1.928v-1.027h0.985
		v1.027C171.456,298.533,171.592,299.149,171.864,299.712z M174.327,299.001h0.985v0.851h-0.985v3.477h-0.993v-7.03h0.993V299.001z"
		/>
</g>
<g>
	<path d="M182.846,321.747c0.413,0.239,0.734,0.576,0.965,1.011c0.229,0.435,0.345,0.936,0.345,1.503v0.303
		c0,0.573-0.115,1.077-0.345,1.512c-0.23,0.435-0.555,0.771-0.973,1.011c-0.419,0.238-0.902,0.357-1.453,0.357h-1.784v-6.054h1.818
		C181.958,321.39,182.434,321.509,182.846,321.747z M180.712,326.551h0.673c0.539,0,0.949-0.173,1.229-0.518
		c0.281-0.346,0.421-0.835,0.421-1.47v-0.312c0-0.634-0.138-1.121-0.412-1.461c-0.275-0.339-0.677-0.509-1.204-0.509h-0.707V326.551
		z"/>
	<path d="M186.134,323.234v4.21h-1.111v-6.054h1.111l2.635,4.21v-4.21h1.104v6.054h-1.111L186.134,323.234z"/>
	<path d="M192.667,321.39h1.011l2.281,6.054h-1.161l-0.472-1.355h-2.299l-0.463,1.355h-1.171L192.667,321.39z M193.181,322.746
		l-0.842,2.441h1.676L193.181,322.746z"/>
	<path d="M198.461,322.674c0.168-0.536,0.381-0.998,0.64-1.386c0.258-0.387,0.524-0.692,0.8-0.917l0.539,0.496
		c-0.214,0.197-0.423,0.471-0.628,0.821s-0.374,0.761-0.509,1.229s-0.202,0.964-0.202,1.485c0,0.551,0.067,1.065,0.202,1.546
		c0.135,0.479,0.303,0.895,0.505,1.246c0.202,0.351,0.413,0.633,0.632,0.846l-0.539,0.497c-0.281-0.225-0.549-0.53-0.804-0.918
		c-0.256-0.388-0.468-0.855-0.636-1.406c-0.169-0.55-0.253-1.15-0.253-1.802C198.208,323.789,198.292,323.21,198.461,322.674z"/>
	<path d="M207.166,325.617h-1.456v2.307h-0.994v-2.307h-1.372v2.307h-1.002v-2.307h-1.423v-0.809h6.247V325.617z M205.318,321.327
		c0.379,0.132,0.673,0.317,0.884,0.556c0.211,0.239,0.315,0.516,0.315,0.829c0,0.314-0.104,0.589-0.315,0.821
		c-0.211,0.233-0.504,0.414-0.88,0.543c-0.376,0.13-0.809,0.194-1.297,0.194c-0.482,0-0.912-0.064-1.288-0.194
		c-0.376-0.129-0.669-0.31-0.88-0.543c-0.21-0.232-0.315-0.507-0.315-0.821c0-0.313,0.105-0.59,0.315-0.829
		c0.211-0.238,0.504-0.424,0.88-0.556s0.806-0.197,1.288-0.197S204.939,321.195,205.318,321.327z M202.948,322.131
		c-0.259,0.135-0.388,0.328-0.388,0.58c0,0.247,0.129,0.436,0.388,0.564c0.258,0.129,0.617,0.193,1.077,0.193
		s0.822-0.064,1.086-0.193c0.265-0.129,0.396-0.317,0.396-0.564c0-0.246-0.132-0.438-0.396-0.576
		c-0.264-0.138-0.626-0.206-1.086-0.206S203.206,321.997,202.948,322.131z"/>
	<path d="M210.396,323.491c0.261,0.379,0.649,0.655,1.166,0.829l-0.488,0.8c-0.719-0.247-1.238-0.713-1.558-1.397
		c-0.151,0.359-0.365,0.671-0.64,0.935c-0.275,0.264-0.609,0.463-1.002,0.598l-0.497-0.808c0.533-0.18,0.936-0.471,1.208-0.872
		s0.408-0.84,0.408-1.317v-0.084h-1.347v-0.8h3.696v0.8h-1.339v0.093C210.004,322.704,210.135,323.112,210.396,323.491z
		 M213.33,327.797h-4.698v-2.206h0.977v1.406h3.722V327.797z M213.17,326.021h-0.994v-2.492h-1.086v-0.817h1.086v-1.81h0.994
		V326.021z"/>
	<path d="M216.622,323.903c0.123,0.368,0.309,0.705,0.556,1.011s0.553,0.546,0.918,0.72l-0.539,0.8
		c-0.37-0.18-0.692-0.435-0.964-0.766c-0.272-0.331-0.487-0.713-0.645-1.146c-0.151,0.472-0.367,0.89-0.648,1.255
		c-0.28,0.365-0.611,0.64-0.993,0.825l-0.556-0.8c0.364-0.174,0.674-0.423,0.926-0.745c0.253-0.323,0.442-0.683,0.568-1.078
		s0.189-0.79,0.189-1.183v-0.404h-1.423v-0.816h3.78v0.816h-1.355v0.404C216.437,323.166,216.498,323.536,216.622,323.903z
		 M219.291,323.571h0.985v0.833h-0.985v3.52h-0.993v-7.03h0.993V323.571z"/>
	<path d="M222.575,326.214c-0.169,0.551-0.381,1.019-0.636,1.406c-0.256,0.388-0.523,0.693-0.805,0.918l-0.539-0.497
		c0.22-0.213,0.43-0.495,0.632-0.846c0.202-0.352,0.371-0.767,0.505-1.246c0.135-0.48,0.202-0.995,0.202-1.546
		c0-0.521-0.067-1.017-0.202-1.485c-0.134-0.469-0.304-0.879-0.509-1.229s-0.414-0.624-0.628-0.821l0.539-0.496
		c0.275,0.225,0.542,0.53,0.8,0.917c0.259,0.388,0.472,0.85,0.641,1.386c0.168,0.536,0.252,1.115,0.252,1.738
		C222.827,325.064,222.743,325.664,222.575,326.214z"/>
</g>
<rect x="47.312" y="68.549" fill="#5294CF" width="240.711" height="8.516"/>
<polyline fill="none" stroke="#939598" stroke-miterlimit="10" points="44.539,0.5 37.958,0.5 37.958,46.012 44.539,46.012 "/>
<polyline fill="none" stroke="#939598" stroke-width="0.9716" stroke-miterlimit="10" points="44.539,48.677 37.958,48.677 
	37.958,97.305 44.539,97.305 "/>
<polyline fill="none" stroke="#939598" stroke-width="1.0276" stroke-miterlimit="10" points="44.539,280.548 37.958,280.548 
	37.958,334.939 44.539,334.939 "/>
<polyline fill="none" stroke="#939598" stroke-miterlimit="10" points="44.539,99.221 37.958,99.221 37.958,278.613 44.539,278.613 
	"/>
<g>
	<path fill="#ECE8F4" d="M159.893,23.256c0,0-24.281,1.808-24.281,16.131"/>
	<g>
		<path fill="none" stroke="#FBB040" stroke-width="4" stroke-miterlimit="10" d="M159.893,23.256c0,0-17.633,1.313-22.846,10.566"
			/>
		<g>
			<polygon fill="#FBB040" points="133.799,31.619 135.613,39.387 141.434,33.933 			"/>
		</g>
	</g>
</g>
<g>
	<path fill="#ECE8F4" d="M120.564,265.064c0,0-31.403,2.64-31.403,23.549"/>
	<g>
		<path fill="none" stroke="#FBB040" stroke-width="4" stroke-miterlimit="10" d="M120.564,265.064c0,0-25.505,2.144-30.544,17.872"
			/>
		<g>
			<polygon fill="#FBB040" points="86.454,281.11 89.161,288.614 94.306,282.518 			"/>
		</g>
	</g>
</g>
<g>
	<line fill="#ECE8F4" x1="134.979" y1="91.645" x2="134.979" y2="110.226"/>
	<g>
		
			<line fill="none" stroke="#FBB040" stroke-width="4" stroke-miterlimit="10" x1="134.979" y1="91.645" x2="134.979" y2="104.485"/>
		<g>
			<polygon fill="#FBB040" points="130.99,103.318 134.979,110.226 138.967,103.318 			"/>
		</g>
	</g>
</g>
<g>
	<line fill="#ECE8F4" x1="134.979" y1="221.121" x2="134.979" y2="239.702"/>
	<g>
		
			<line fill="none" stroke="#FBB040" stroke-width="4" stroke-miterlimit="10" x1="134.979" y1="221.121" x2="134.979" y2="233.961"/>
		<g>
			<polygon fill="#FBB040" points="130.99,232.794 134.979,239.702 138.967,232.794 			"/>
		</g>
	</g>
</g>
<path fill="#F7941D" stroke="#6D6E71" stroke-width="1.2394" stroke-miterlimit="10" d="M122.499,58.344
	c-7.944,0.113-9.503,0.563-11.053,1.439c-3.436,1.942-7.005,6.079-6.827,11.034c0.179,4.961,4.022,8.193,5.689,9.595
	c3.947,3.319,8.97,4.124,18.855,5.597c1.99,0.297,9.155,1.322,18.692,1.279c7.802-0.035,10.362-0.753,12.516-1.759
	c1.71-0.799,6.155-2.875,8.452-7.836c0.327-0.706,3.253-7.269,0-12.154c-2.372-3.561-6.74-4.297-14.466-5.597
	c-1.771-0.298-3.346-0.491-11.053-0.959C135.084,58.485,129.351,58.247,122.499,58.344z"/>
<g>
	<path stroke="#6D6E71" stroke-width="0.75" stroke-miterlimit="10" d="M146.957,138.742c-1.426-0.244-2.756-0.582-3.97-0.995"/>
	<path stroke="#6D6E71" stroke-width="0.75" stroke-miterlimit="10" d="M144.403,139.946c-1.147-0.468-2.201-0.988-3.154-1.551"/>
	<path stroke="#6D6E71" stroke-width="0.75" stroke-miterlimit="10" d="M141.571,140.807c-0.801-0.628-1.531-1.278-2.187-1.948"/>
	<path stroke="#6D6E71" stroke-width="0.75" stroke-miterlimit="10" d="M138.554,141.323c-0.412-0.723-0.785-1.452-1.119-2.186"/>
	<path stroke="#6D6E71" stroke-width="0.75" stroke-miterlimit="10" d="M135.445,141.495c0-0.755,0-1.511,0-2.266"/>
	<path stroke="#6D6E71" stroke-width="0.75" stroke-miterlimit="10" d="M132.335,141.323c0.412-0.723,0.785-1.452,1.119-2.186"/>
	<path stroke="#6D6E71" stroke-width="0.75" stroke-miterlimit="10" d="M129.318,140.807c0.801-0.628,1.531-1.278,2.187-1.948"/>
	<path stroke="#6D6E71" stroke-width="0.75" stroke-miterlimit="10" d="M126.486,139.946c1.147-0.468,2.201-0.988,3.154-1.551"/>
	<path stroke="#6D6E71" stroke-width="0.75" stroke-miterlimit="10" d="M123.932,138.742c1.426-0.244,2.756-0.582,3.97-0.995"/>
</g>
<g>
	<path stroke="#6D6E71" stroke-width="0.75" stroke-miterlimit="10" d="M146.957,183.04c-1.426-0.244-2.756-0.581-3.97-0.995"/>
	<path stroke="#6D6E71" stroke-width="0.75" stroke-miterlimit="10" d="M144.403,184.245c-1.147-0.468-2.201-0.988-3.154-1.551"/>
	<path stroke="#6D6E71" stroke-width="0.75" stroke-miterlimit="10" d="M141.571,185.105c-0.801-0.628-1.531-1.278-2.187-1.948"/>
	<path stroke="#6D6E71" stroke-width="0.75" stroke-miterlimit="10" d="M138.554,185.621c-0.412-0.723-0.785-1.452-1.119-2.186"/>
	<path stroke="#6D6E71" stroke-width="0.75" stroke-miterlimit="10" d="M135.445,185.794c0-0.755,0-1.511,0-2.266"/>
	<path stroke="#6D6E71" stroke-width="0.75" stroke-miterlimit="10" d="M132.335,185.621c0.412-0.723,0.785-1.452,1.119-2.186"/>
	<path stroke="#6D6E71" stroke-width="0.75" stroke-miterlimit="10" d="M129.318,185.105c0.801-0.628,1.531-1.278,2.187-1.948"/>
	<path stroke="#6D6E71" stroke-width="0.75" stroke-miterlimit="10" d="M126.486,184.245c1.147-0.468,2.201-0.988,3.154-1.551"/>
	<path stroke="#6D6E71" stroke-width="0.75" stroke-miterlimit="10" d="M123.932,183.04c1.426-0.244,2.756-0.581,3.97-0.995"/>
</g>
<g>
	<path stroke="#6D6E71" stroke-width="0.75" stroke-miterlimit="10" d="M146.957,216.847c-1.426-0.244-2.756-0.582-3.97-0.995"/>
	<path stroke="#6D6E71" stroke-width="0.75" stroke-miterlimit="10" d="M144.403,218.052c-1.147-0.468-2.201-0.988-3.154-1.551"/>
	<path stroke="#6D6E71" stroke-width="0.75" stroke-miterlimit="10" d="M141.571,218.912c-0.801-0.628-1.531-1.278-2.187-1.948"/>
	<path stroke="#6D6E71" stroke-width="0.75" stroke-miterlimit="10" d="M138.554,219.428c-0.412-0.723-0.785-1.452-1.119-2.186"/>
	<path stroke="#6D6E71" stroke-width="0.75" stroke-miterlimit="10" d="M135.445,219.601c0-0.755,0-1.511,0-2.266"/>
	<path stroke="#6D6E71" stroke-width="0.75" stroke-miterlimit="10" d="M132.335,219.428c0.412-0.723,0.785-1.452,1.119-2.186"/>
	<path stroke="#6D6E71" stroke-width="0.75" stroke-miterlimit="10" d="M129.318,218.912c0.801-0.628,1.531-1.278,2.187-1.948"/>
	<path stroke="#6D6E71" stroke-width="0.75" stroke-miterlimit="10" d="M126.486,218.052c1.147-0.468,2.201-0.988,3.154-1.551"/>
	<path stroke="#6D6E71" stroke-width="0.75" stroke-miterlimit="10" d="M123.932,216.847c1.426-0.244,2.756-0.582,3.97-0.995"/>
</g>
<g>
	<g>
		
			<line fill="none" stroke="#000000" stroke-width="0.75" stroke-miterlimit="10" x1="134.979" y1="140.807" x2="134.979" y2="148.46"/>
		<g>
			<polygon points="134.979,153.756 131.93,146.294 134.979,148.064 138.027,146.294 			"/>
		</g>
	</g>
</g>
<g>
	<g>
		
			<line fill="none" stroke="#000000" stroke-width="0.75" stroke-miterlimit="10" x1="134.979" y1="184.737" x2="134.979" y2="192.391"/>
		<g>
			<polygon points="134.979,197.686 131.93,190.224 134.979,191.995 138.027,190.224 			"/>
		</g>
	</g>
</g>
<ellipse fill="#FFFAEA" stroke="#6D6E71" stroke-width="1.3909" stroke-miterlimit="10" cx="132.14" cy="55.524" rx="11.576" ry="9.512"/>
<ellipse transform="matrix(0.9987 -0.0514 0.0514 0.9987 -15.7668 4.8358)" fill="#C7A0CE" stroke="#6D6E71" stroke-width="0.7077" stroke-miterlimit="10" cx="86.204" cy="309.183" rx="11.576" ry="14.71"/>
<g>
	<g>
		<polyline fill="none" stroke="#000000" stroke-width="0.75" stroke-miterlimit="10" points="100.281,303.328 100.281,292.548 
			122.768,292.548 		"/>
		<g>
			<polygon points="128.064,292.548 120.602,295.597 122.372,292.548 120.602,289.5 			"/>
		</g>
	</g>
</g>
<g>
</g>
<g>
</g>
<g>
</g>
<g>
</g>
<g>
</g>
<g>
</g>
<g>
</g>
<g>
</g>
</svg>
