<?xml version="1.0" encoding="utf-8"?>
<!-- Generator: Adobe Illustrator 28.0.0, SVG Export Plug-In . SVG Version: 6.00 Build 0)  -->
<svg version="1.1" id="레이어_1" xmlns="http://www.w3.org/2000/svg" xmlns:xlink="http://www.w3.org/1999/xlink" x="0px"
	 y="0px" viewBox="0 0 616.583 356.976" enable-background="new 0 0 616.583 356.976" xml:space="preserve">
<g>
	<rect x="344.305" y="0.057" fill="#CBDFB8" width="255.612" height="322.91"/>
	<rect x="93.557" y="0.057" fill="#CECCC9" width="99.479" height="322.91"/>
	<rect x="193.332" fill="#F2B09D" width="152.656" height="322.91"/>
	<g>
		<polygon fill="#010100" points="347.621,339.635 347.621,331.371 348.509,331.371 348.509,339.635 		"/>
	</g>
	<g>
		<g>
			<path fill="#E7E8E9" d="M93.829,326.03V205.701v-0.447H600.36V326.03L93.829,326.03L93.829,326.03z M94.717,325.138h504.747
				V206.146H94.717V325.138L94.717,325.138z"/>
		</g>
		<g>
			<polygon fill="#E7E8E9" points="94.274,306.068 94.274,305.18 599.917,305.18 599.917,306.068 			"/>
		</g>
		<g>
			<polygon fill="#E7E8E9" points="94.274,286.047 94.274,285.159 599.917,285.159 599.917,286.047 			"/>
		</g>
		<g>
			<polygon fill="#E7E8E9" points="94.274,266.087 94.274,265.198 599.917,265.198 599.917,266.087 			"/>
		</g>
		<g>
			<polygon fill="#E7E8E9" points="94.274,246.126 94.274,245.236 599.917,245.236 599.917,246.126 			"/>
		</g>
		<g>
			<polygon fill="#E7E8E9" points="94.274,226.105 94.274,225.217 599.917,225.217 599.917,226.105 			"/>
		</g>
		<g>
			<polygon fill="#E7E8E9" points="548.854,325.583 548.854,205.701 549.748,205.701 549.748,325.583 			"/>
		</g>
		<g>
			<polygon fill="#E7E8E9" points="498.365,325.583 498.365,205.701 499.257,205.701 499.257,325.583 			"/>
		</g>
		<g>
			<polygon fill="#E7E8E9" points="447.754,325.583 447.754,205.698 448.644,205.698 448.644,325.583 			"/>
		</g>
		<g>
			<polygon fill="#E7E8E9" points="397.265,325.585 397.265,205.7 398.155,205.7 398.155,325.585 			"/>
		</g>
		<g>
			<polygon fill="#E7E8E9" points="346.649,325.585 346.649,205.7 347.541,205.7 347.541,325.585 			"/>
		</g>
		<g>
			<polygon fill="#E7E8E9" points="296.033,325.585 296.033,205.701 296.923,205.701 296.923,325.585 			"/>
		</g>
		<g>
			<polygon fill="#E7E8E9" points="245.547,325.583 245.547,205.7 246.437,205.7 246.437,325.583 			"/>
		</g>
		<g>
			<polygon fill="#E7E8E9" points="194.933,325.583 194.933,205.7 195.821,205.7 195.821,325.583 			"/>
		</g>
		<g>
			<polygon fill="#E7E8E9" points="144.441,325.583 144.441,205.7 145.333,205.7 145.333,325.583 			"/>
		</g>
	</g>
	<g>
		<path fill="#572D89" d="M94.06,324.99v0.004V324.99L94.06,324.99z M302.521,324.99c-12.021,0-199.177,0-208.458,0l0,0v-1.779
			c9.283,0,196.441,0,208.458,0l0,0c11.87-0.018,35.55-2.881,58.071-29.507l0,0c11.34-13.412,29.001-35.717,46.35-54.684l0,0
			c17.436-18.946,34.193-34.653,44.988-34.799l0,0c10.152-0.027,15.114,2.719,18.8,5.915l0,0c3.703,3.199,6.103,6.561,11.74,8.368
			l0,0c11.892,3.81,35.194,13.412,54.022,40.998l0,0c18.638,27.447,41.172,62.787,63.811,62.595l0,0v1.78
			c-24.424-0.19-46.523-36.066-65.276-63.371l0,0c-18.559-27.166-41.4-36.55-53.098-40.309l0,0
			c-6.159-1.973-8.877-5.735-12.353-8.713l0,0c-3.491-2.977-7.763-5.464-17.639-5.487l0,0c-9.239-0.15-26.459,15.303-43.669,34.225
			l0,0c-17.293,18.903-34.941,41.183-46.307,54.629l0,0c-22.811,27.011-47.123,30.137-59.322,30.137l0,0
			C302.594,324.99,302.556,324.99,302.521,324.99L302.521,324.99z"/>
	</g>
	<g>
		<path fill="#8F9194" d="M495.309,282.383c-30.814-23.181-35.895-29.737-40.523-30.096l0,0c-0.212-0.027-0.426-0.034-0.646-0.034
			l0,0c-4.44-0.085-9.515,5.24-13.501,8.728l0,0c-4.318,3.623-29.55,23.208-41.505,23.954l0,0c-0.087,0.004-0.182,0.004-0.281,0.007
			l0,0c-6.572-0.21-14.24-10.195-22.234-21.33l0,0c-7.884-11.158-15.711-23.651-20.872-28.791l0,0
			c-10.595-10.633-20.041-16.396-26.669-16.357l0,0c-6.557-0.075-29.201,9.924-51.565,34.726l0,0
			c-22.725,25.117-44.931,29.933-69.729,41.162l0,0c-12.07,5.457-20.747,7.359-27.561,7.359l0,0
			c-7.348,0.004-12.47-2.234-17.099-4.396l0,0c-2.108-0.993-5.915-1.887-9.979-1.88l0,0c-4.789-0.004-9.912,1.22-13.348,4.67l0,0
			c-3.853,3.755-13.115,5.585-22.601,6.748l0,0c-9.467,1.116-19.052,1.376-23.133,1.376l0,0v-1.78c4.013,0,13.569-0.26,22.923-1.366
			l0,0c9.338-1.065,18.584-3.166,21.55-6.237l0,0c3.938-3.924,9.541-5.186,14.608-5.192l0,0c4.328,0.004,8.288,0.912,10.734,2.048
			l0,0c4.61,2.149,9.362,4.223,16.344,4.227l0,0c6.474,0,14.904-1.809,26.828-7.197l0,0c25.052-11.327,46.761-16.003,69.141-40.738
			l0,0c22.738-25.052,45.2-35.237,52.886-35.311l0,0c7.613,0.044,17.163,6.148,27.931,16.88l0,0
			c5.446,5.461,13.188,17.897,21.062,29.018l0,0c7.757,11.142,16.027,20.785,20.785,20.578l0,0c0.062,0,0.139-0.004,0.205-0.004l0,0
			c10.613-0.443,36.429-20.028,40.418-23.527l0,0c3.922-3.301,8.927-9.073,14.66-9.159l0,0c0.278,0,0.566,0.011,0.853,0.048l0,0
			c6.064,0.824,10.481,7.328,41.386,30.438l0,0c29.192,21.91,69.515,33.226,98.716,33.214l0,0c1.448,0,2.875-0.03,4.278-0.082l0,0
			l0.06,1.779c-1.421,0.055-2.866,0.082-4.341,0.085l0,0C565.46,315.942,524.913,304.567,495.309,282.383L495.309,282.383z"/>
	</g>
	<g>
		<path fill="#DA388A" d="M490.355,311.639c-9.833-0.004-63.118,0.007-70-0.896l0,0c-6.604-0.885-44.899-3.552-60.152-6.687l0,0
			c-8.297-1.83-12.748-12.516-15.538-23.525l0,0c-2.749-11.058-3.643-22.663-3.867-26.707l0,0
			c-0.312-5.694-0.19-25.168-1.624-36.301l0,0c-0.443-3.675-1.2-6.511-1.839-7.205l0,0c-0.16-0.187-0.185-0.169-0.219-0.173l0,0
			h-0.037c-0.376-0.082-1.268,0.63-2.096,2.647l0,0c-0.831,1.958-1.622,4.914-2.386,8.605l0,0
			c-1.524,7.385-2.959,17.733-4.716,29.395l0,0c-3.664,23.833-15.981,45.219-24.484,50.052l0,0
			c-3.023,1.617-11.436,2.487-22.268,3.135l0,0c-10.784,0.616-23.776,0.867-35.276,0.871l0,0
			c-12.605-0.004-23.366-0.303-27.559-0.783l0,0c-4.49-0.52-12.584-0.773-21.46-0.773l0,0c-13.622,0-29.178,0.593-36.624,1.658l0,0
			c-12.588,1.793-57.129,2.243-65.869,3.563l0,0l-0.265-1.763c9.066-1.351,53.543-1.793,65.883-3.561l0,0
			c7.649-1.091,23.183-1.677,36.875-1.681l0,0c8.92,0.004,17.017,0.247,21.663,0.783l0,0c3.999,0.465,14.804,0.773,27.358,0.773l0,0
			c11.47,0,24.444-0.256,35.176-0.867l0,0c10.683-0.582,19.346-1.654,21.504-2.915l0,0c7.519-4.07,20.128-25.416,23.584-48.761l0,0
			c2.653-17.498,4.513-31.984,7.23-38.427l0,0c0.917-2.104,1.934-3.653,3.734-3.737l0,0c0.071,0,0.169,0.004,0.249,0.016l0,0
			c1.211,0.19,1.725,1.166,2.188,2.268l0,0c0.454,1.148,0.805,2.667,1.111,4.487l0,0c0.6,3.63,0.976,8.452,1.227,13.503l0,0
			c0.499,10.093,0.502,21.143,0.721,25.09l0,0c0.221,3.969,1.109,15.509,3.814,26.372l0,0c2.667,10.914,7.337,20.925,14.174,22.213
			l0,0c15.014,3.094,53.285,5.769,60.027,6.666l0,0c6.475,0.874,60.013,0.885,69.766,0.881l0,0c9.036,0.004,74.28,4.122,89.99,4.122
			l0,0c1.447,0,2.487-0.041,2.907-0.105l0,0c8.785-1.291,14.519-4.449,16.01-7.937l0,0l1.624,0.721
			c-2.071,4.521-8.348,7.595-17.375,8.979l0,0c-0.637,0.085-1.675,0.119-3.166,0.119l0,0
			C564.51,315.759,499.228,311.635,490.355,311.639L490.355,311.639z"/>
	</g>
	<g>
		<path fill="#25B5E3" d="M546.748,321.494c-4.764,0-9.31-0.379-13.69-0.511l0,0c-14.658-0.443-79.226-1.335-91.215-1.335l0,0
			c-12.103,0-60.154-3.559-77.894-3.559l0,0c-18.39,0.037-23.21-14.039-24.474-23.915l0,0c-0.837-6.256-3.021-8.669-4.528-8.541l0,0
			c-0.872-0.011-2.04,0.645-3.217,2.265l0,0c-1.572,2.085-3.23,9.087-5.386,15.561l0,0c-2.24,6.463-4.868,12.791-9.892,13.727l0,0
			c-0.392,0.061-0.83,0.085-1.319,0.085l0,0c-11.77-0.037-61.571-15.319-67.603-17.024l0,0c-3.976-1.145-13.683-2.149-23.033-2.142
			l0,0c-4.684,0-9.297,0.247-13.086,0.833l0,0c-2.626,0.399-6.392,0.552-10.757,0.552l0,0c-15.584-0.004-38.603-1.973-41.137-2.332
			l0,0c-2.562-0.379-11.762-3.073-18.356-3.064l0,0c-1.935-0.004-3.613,0.244-4.738,0.769l0,0c-1.211,0.541-2.868,0.687-4.827,0.698
			l0,0c-3.312-0.004-7.435-0.511-10.829-1.075l0,0c-0.255-0.044-0.552-0.068-0.881-0.064l0,0c-5.423-0.055-18.089,6.271-25.61,9.645
			l0,0l-0.719-1.624c7.554-3.331,19.946-9.744,26.331-9.801l0,0c0.408,0,0.803,0.027,1.179,0.091l0,0
			c3.328,0.555,7.396,1.05,10.533,1.05l0,0c1.837,0.011,3.376-0.196,4.084-0.536l0,0c1.515-0.694,3.406-0.928,5.48-0.929l0,0
			c6.958,0.004,16.357,2.772,18.607,3.082l0,0c2.332,0.336,25.471,2.318,40.886,2.318l0,0c4.318,0,8.042-0.16,10.487-0.536l0,0
			c3.924-0.604,8.607-0.851,13.355-0.851l0,0c9.504,0.007,19.181,0.979,23.52,2.213l0,0c5.943,1.713,56.116,16.994,67.113,16.957
			l0,0c0.424,0,0.78-0.027,1.05-0.068l0,0c3.44-0.397,6.372-6.087,8.475-12.534l0,0c2.185-6.433,3.641-13.229,5.633-16.042l0,0
			c1.346-1.846,2.918-2.982,4.656-2.996l0,0c3.253,0.126,5.389,3.678,6.29,10.077l0,0c1.407,9.71,5.491,22.339,22.711,22.376l0,0
			c17.865,0,65.956,3.559,77.894,3.559l0,0c12.043,0,76.557,0.89,91.276,1.335l0,0c4.44,0.135,8.968,0.507,13.633,0.507l0,0
			c10.87-0.014,22.494-1.962,36.091-13.676l0,0c10.624-8.172,16.182-8.646,17.324-8.646l0,0c0.123,0,0.201,0.007,0.235,0.011l0,0
			l-0.196,1.766h-0.037c-0.636,0-5.818,0.262-16.2,8.247l0,0c-13.8,11.934-26.046,14.076-37.099,14.076l0,0
			C546.826,321.494,546.785,321.494,546.748,321.494L546.748,321.494z"/>
	</g>
	<path fill="#FFFFFF" d="M74.875,191.193"/>
	<polygon fill="#595857" points="220.153,71.217 213.925,87.784 226.381,87.784 	"/>
	<g>
		<path d="M234.302,87.424c-1.168,0-2.078-0.346-2.73-1.038c-0.652-0.691-0.978-1.718-0.978-3.077v-0.301
			c0-1.399,0.356-2.43,1.068-3.09c0.712-0.66,1.644-0.99,2.796-0.99c0.848,0,1.536,0.145,2.064,0.433v1.151
			c-0.648-0.256-1.3-0.384-1.956-0.384c-1.584,0-2.376,0.908-2.376,2.725v0.42c0,0.976,0.188,1.712,0.564,2.208
			s0.984,0.744,1.824,0.744c0.64,0,1.316-0.148,2.028-0.444v1.14C235.974,87.256,235.206,87.424,234.302,87.424z"/>
		<path d="M239.762,87.292v-7.067h-2.364V79.06h6.18v1.164h-2.34v7.067H239.762z"/>
		<path d="M244.898,87.292V79.06h1.476v7.067h3.48v1.164H244.898z"/>
		<path d="M255.769,87.4c-0.576,0-1.036-0.148-1.38-0.444s-0.516-0.731-0.516-1.308c0-1.04,0.66-1.656,1.98-1.849l1.452-0.168
			v-0.468c0-0.408-0.102-0.682-0.306-0.822c-0.204-0.14-0.574-0.21-1.11-0.21c-0.504,0-1.004,0.057-1.5,0.168v-0.947
			c0.568-0.225,1.248-0.336,2.04-0.336c1.504,0,2.256,0.611,2.256,1.836v4.439h-1.14l-0.108-0.504h-0.072
			C257.014,87.196,256.482,87.4,255.769,87.4z M256.19,86.428c0.48,0,0.852-0.123,1.116-0.371v-1.524l-1.14,0.12
			c-0.312,0.023-0.546,0.107-0.702,0.252c-0.156,0.144-0.234,0.368-0.234,0.672c0,0.28,0.085,0.492,0.258,0.636
			C255.66,86.356,255.893,86.428,256.19,86.428z"/>
		<path d="M262.897,87.4c-0.928,0-1.652-0.26-2.172-0.78c-0.52-0.52-0.78-1.28-0.78-2.28v-0.191c0-1.024,0.278-1.804,0.834-2.34
			c0.556-0.536,1.282-0.805,2.178-0.805c0.68,0,1.248,0.124,1.704,0.372v1.08c-0.568-0.224-1.108-0.336-1.62-0.336
			c-0.52,0-0.928,0.162-1.224,0.486s-0.444,0.79-0.444,1.397v0.276c0,0.696,0.144,1.206,0.432,1.53
			c0.288,0.323,0.732,0.485,1.332,0.485c0.504,0,1.032-0.128,1.584-0.384v1.008C264.218,87.24,263.609,87.4,262.897,87.4z"/>
		<path d="M268.034,87.364c-1.168,0-1.752-0.532-1.752-1.596v-3.576h-0.864v-1.08h0.864V79.66h1.356v1.452h1.476v1.08h-1.476v3.384
			c0,0.264,0.06,0.448,0.18,0.552c0.12,0.104,0.34,0.156,0.66,0.156c0.24,0,0.476-0.032,0.708-0.096v0.924
			C268.849,87.28,268.465,87.364,268.034,87.364z"/>
		<path d="M270.469,80.092v-1.26h1.404v1.26H270.469z M270.469,87.292v-6.18h1.392v6.18H270.469z"/>
		<path d="M275.209,87.292l-2.244-6.18h1.476l1.5,4.512h0.06l1.512-4.512h1.332l-2.232,6.18H275.209z"/>
		<path d="M279.937,80.092v-1.26h1.404v1.26H279.937z M279.937,87.292v-6.18h1.392v6.18H279.937z"/>
		<path d="M285.109,87.364c-1.168,0-1.752-0.532-1.752-1.596v-3.576h-0.864v-1.08h0.864V79.66h1.356v1.452h1.476v1.08h-1.476v3.384
			c0,0.264,0.06,0.448,0.18,0.552c0.12,0.104,0.34,0.156,0.66,0.156c0.24,0,0.476-0.032,0.708-0.096v0.924
			C285.925,87.28,285.541,87.364,285.109,87.364z"/>
		<path d="M288.229,89.068c-0.392,0-0.692-0.068-0.9-0.204V87.94c0.176,0.04,0.376,0.06,0.6,0.06c0.304,0,0.546-0.052,0.726-0.156
			c0.18-0.104,0.322-0.296,0.426-0.575l0.168-0.433l-2.328-5.724h1.464l1.56,4.008h0.048l1.44-4.008h1.332l-2.388,6.348
			c-0.2,0.584-0.464,0.998-0.792,1.242S288.805,89.068,288.229,89.068z"/>
	</g>
	<polygon fill="#595857" points="402.886,92.157 409.114,75.59 396.658,75.59 	"/>
	<polygon fill="#595857" points="500.951,72.501 494.722,89.068 507.179,89.068 	"/>
	<polygon fill="#595857" points="402.886,124.662 409.114,108.095 396.658,108.095 	"/>
	<polygon fill="#595857" points="402.053,182.752 408.282,166.185 395.825,166.185 	"/>
	<polygon fill="#595857" points="404.598,61.977 410.826,45.41 398.37,45.41 	"/>
	<polygon fill="#595857" points="266.66,31.083 274.575,10.029 258.745,10.029 	"/>
	<polygon fill="#595857" points="474.3,9.027 466.385,30.081 482.214,30.081 	"/>
	<g>
		<path d="M420.531,119.468c-1.168,0-2.078-0.346-2.73-1.038c-0.651-0.691-0.978-1.718-0.978-3.077v-0.301
			c0-1.399,0.355-2.43,1.068-3.09c0.712-0.66,1.644-0.99,2.796-0.99c0.848,0,1.536,0.145,2.063,0.433v1.151
			c-0.647-0.256-1.3-0.384-1.956-0.384c-1.584,0-2.376,0.908-2.376,2.725v0.42c0,0.976,0.188,1.712,0.564,2.208
			s0.983,0.744,1.824,0.744c0.64,0,1.315-0.148,2.027-0.444v1.14C422.203,119.3,421.435,119.468,420.531,119.468z"/>
		<path d="M424.275,119.336v-8.231h2.7c2.624,0,3.936,1.3,3.936,3.899v0.24c0,1.336-0.328,2.352-0.983,3.048
			c-0.656,0.696-1.637,1.044-2.94,1.044H424.275z M425.752,118.172h1.247c0.816,0,1.412-0.218,1.788-0.653
			c0.376-0.437,0.564-1.146,0.564-2.131v-0.396c0-0.992-0.204-1.694-0.612-2.106c-0.408-0.411-1.023-0.617-1.848-0.617h-1.14
			V118.172z"/>
		<path d="M435.531,119.468v-1.68h-3.779v-0.864l4.164-5.819h1.008v5.592h1.212v1.092h-1.212v1.68H435.531z M433.359,116.697h2.185
			v-3.096L433.359,116.697z"/>
		<path d="M444.351,119.336v-7.067h-2.364v-1.164h6.18v1.164h-2.34v7.067H444.351z"/>
		<path d="M457.431,117.176l-0.792,0.996c-0.384-0.24-0.771-0.602-1.163-1.086c-0.393-0.483-0.652-0.974-0.78-1.47
			c-0.152,0.56-0.416,1.096-0.792,1.608c-0.376,0.512-0.812,0.916-1.309,1.212l-0.827-0.96c0.703-0.456,1.254-1.088,1.649-1.896
			c0.396-0.808,0.594-1.764,0.594-2.868v-1.596h1.345v1.584c0,1.032,0.182,1.938,0.546,2.718
			C456.265,116.199,456.775,116.784,457.431,117.176z M458.991,120.284h-1.308v-5.376h-1.44v-1.14h1.44v-3.48h1.308V120.284z
			 M461.127,120.777h-1.332v-10.692h1.332V120.777z"/>
		<path d="M472.071,119.432h-9.66v-1.104h4.104v-2.064h-3.216v-1.115h1.572l-0.3-2.46l1.403-0.181l0.217,2.641h2.136l0.384-2.616
			l1.356,0.228l-0.444,2.389h1.512v1.115h-3.216v2.064h4.152V119.432z M471.159,112.004h-7.884v-1.116h7.884V112.004z"/>
	</g>
	<g>
		<path d="M417.795,178.196v-8.231h1.655l3.42,5.808h0.036v-5.808h1.309v8.231h-1.464l-3.612-6.204h-0.036v6.204H417.795z"/>
		<path d="M426.146,178.196v-8.231h1.477v8.231H426.146z M430.803,178.196l-3.036-4.176c0.96-1.296,1.976-2.647,3.048-4.056h1.524
			l-2.952,3.899c1.392,1.92,2.432,3.364,3.12,4.332H430.803z"/>
		<path d="M441.674,176.036l-0.792,0.996c-0.384-0.24-0.771-0.602-1.163-1.086c-0.393-0.483-0.652-0.974-0.78-1.47
			c-0.152,0.56-0.416,1.096-0.792,1.608c-0.376,0.512-0.812,0.916-1.309,1.212l-0.827-0.96c0.703-0.456,1.254-1.088,1.649-1.896
			c0.396-0.808,0.594-1.764,0.594-2.868v-1.596h1.345v1.584c0,1.032,0.182,1.938,0.546,2.718
			C440.508,175.058,441.018,175.644,441.674,176.036z M443.234,179.144h-1.308v-5.376h-1.44v-1.14h1.44v-3.48h1.308V179.144z
			 M445.37,179.637h-1.332v-10.692h1.332V179.637z"/>
		<path d="M456.314,178.292h-9.66v-1.104h4.104v-2.064h-3.216v-1.115h1.572l-0.3-2.46l1.403-0.181l0.217,2.641h2.136l0.384-2.616
			l1.356,0.228l-0.444,2.389h1.512v1.115h-3.216v2.064h4.152V178.292z M455.402,170.864h-7.884v-1.116h7.884V170.864z"/>
		<path d="M468.733,173h-3.035v1.057h4.151v1.128h-9.66v-1.128h4.104V173h-2.82v-3.804h7.164v1.116h-5.76v1.572h5.855V173z
			 M461.317,176.013h7.284v3.636h-1.392v-2.52h-5.893V176.013z"/>
		<path d="M476.966,173.684l-0.804,1.092c-0.44-0.176-0.893-0.466-1.356-0.87c-0.464-0.403-0.804-0.838-1.02-1.302
			c-0.152,0.528-0.475,1.022-0.967,1.482c-0.491,0.46-0.998,0.777-1.518,0.953l-0.84-1.115c0.792-0.288,1.42-0.734,1.884-1.338
			c0.464-0.604,0.696-1.303,0.696-2.095v-1.056h1.452v0.984c0,0.784,0.241,1.468,0.726,2.052S476.286,173.461,476.966,173.684z
			 M479.485,177.476c0,0.656-0.323,1.178-0.972,1.565c-0.648,0.389-1.552,0.582-2.712,0.582c-1.136,0-2.026-0.193-2.67-0.582
			c-0.645-0.388-0.966-0.909-0.966-1.565c0-0.672,0.319-1.202,0.96-1.59c0.64-0.388,1.531-0.582,2.676-0.582
			c1.16,0,2.063,0.194,2.712,0.582S479.485,176.805,479.485,177.476z M475.802,176.432c-0.688,0-1.227,0.092-1.614,0.275
			c-0.388,0.185-0.582,0.44-0.582,0.769c0,0.32,0.194,0.57,0.582,0.75s0.926,0.27,1.614,0.27c0.712,0,1.262-0.09,1.65-0.27
			c0.388-0.18,0.582-0.43,0.582-0.75c0-0.328-0.194-0.584-0.582-0.769C477.063,176.524,476.514,176.432,475.802,176.432z
			 M479.414,175.184h-1.404v-2.904h-1.824v-1.116h1.824v-2.22h1.404V175.184z"/>
	</g>
	<polygon fill="#8FC5EB" points="72.564,191.193 114.628,175.475 166.757,178.83 348.047,166.185 398.37,189.41 	"/>
	<polygon fill="#8FC5EB" points="327.341,132.425 255.434,132.425 241.983,143.694 255.434,154.963 327.341,154.963 
		340.792,143.694 	"/>
	<polygon fill="#8FC5EB" points="557.813,132.425 396.901,132.425 383.449,143.694 396.901,154.963 557.813,154.963 
		571.264,143.694 	"/>
	<polygon fill="#8FC5EB" points="367.572,132.425 356.67,132.425 343.218,143.694 356.67,154.963 367.572,154.963 381.023,143.694 	
		"/>
	<polygon fill="#8FC5EB" points="226.094,132.425 83.184,132.425 69.732,143.694 83.184,154.963 226.094,154.963 239.546,143.694 	
		"/>
	<polygon fill="#8FC5EB" points="601.527,132.425 587.624,132.425 574.173,143.694 587.624,154.963 601.527,154.963 	"/>
	<polygon fill="#8FC5EB" points="184.305,127.475 348.435,105.797 395.825,127.475 	"/>
	<polygon fill="#8FC5EB" points="184.305,66.572 395.825,66.572 346.101,45.41 	"/>
	<path fill="#8FC5EB" d="M577.08,188.378h24.103c-0.01-2.808-0.021-5.617-0.031-8.425
		C593.127,182.761,585.103,185.57,577.08,188.378z"/>
	<g>
		<path d="M30.161,170.303c-0.08,0.111-0.21,0.29-0.39,0.533c-0.18,0.244-0.314,0.431-0.402,0.559
			c-0.424-0.16-0.874-0.456-1.35-0.889c-0.477-0.432-0.826-0.888-1.05-1.367c-0.16,0.536-0.486,1.052-0.979,1.548
			s-0.994,0.828-1.506,0.996l-0.828-1.116c0.784-0.288,1.408-0.754,1.872-1.398c0.464-0.644,0.696-1.365,0.696-2.166v-1.26h1.464
			v1.188c0,0.775,0.246,1.478,0.738,2.105C28.918,169.664,29.496,170.086,30.161,170.303z M32.872,175.534h-7.271v-3.36h1.392v2.244
			h5.88V175.534z M32.645,172.882h-1.404v-4.163h-1.836v-1.129h1.836v-2.46h1.404V172.882z"/>
		<path d="M34.54,168.394v-1.104h5.628v1.104h-2.1c0.048,0.68,0.292,1.233,0.732,1.662c0.439,0.428,0.983,0.733,1.632,0.918
			c-0.225,0.328-0.456,0.691-0.696,1.092c-0.448-0.145-0.904-0.404-1.368-0.78s-0.8-0.78-1.008-1.212
			c-0.185,0.48-0.516,0.938-0.996,1.374c-0.479,0.437-0.984,0.734-1.512,0.894l-0.769-1.079c0.752-0.248,1.353-0.616,1.801-1.104
			c0.447-0.488,0.688-1.076,0.72-1.764H34.54z M35.788,166.69v-1.104h3.108v1.104H35.788z M43.252,175.534h-7.38v-3.216h1.416v2.1
			h5.964V175.534z M43.025,165.13v7.765H41.62v-2.964h-1.607v-1.128h1.607v-3.673H43.025z"/>
		<path d="M50.956,169.87l-0.804,1.092c-0.44-0.176-0.893-0.466-1.356-0.87c-0.464-0.403-0.804-0.838-1.02-1.302
			c-0.152,0.528-0.475,1.022-0.966,1.482c-0.492,0.46-0.998,0.778-1.519,0.954l-0.84-1.116c0.792-0.288,1.42-0.734,1.884-1.338
			c0.464-0.604,0.696-1.302,0.696-2.094v-1.057h1.452v0.984c0,0.784,0.241,1.468,0.726,2.052S50.277,169.646,50.956,169.87z
			 M53.477,173.662c0,0.656-0.324,1.178-0.973,1.566c-0.647,0.388-1.552,0.582-2.712,0.582c-1.136,0-2.026-0.194-2.67-0.582
			c-0.644-0.389-0.966-0.91-0.966-1.566c0-0.672,0.319-1.202,0.96-1.59c0.64-0.388,1.532-0.582,2.676-0.582
			c1.16,0,2.064,0.194,2.712,0.582C53.153,172.46,53.477,172.99,53.477,173.662z M49.792,172.618c-0.688,0-1.226,0.092-1.614,0.276
			c-0.388,0.184-0.581,0.439-0.581,0.768c0,0.32,0.193,0.57,0.581,0.75c0.389,0.18,0.927,0.271,1.614,0.271
			c0.712,0,1.262-0.091,1.65-0.271c0.388-0.18,0.582-0.43,0.582-0.75c0-0.328-0.194-0.584-0.582-0.768
			C51.054,172.71,50.504,172.618,49.792,172.618z M53.405,171.37H52v-2.904h-1.824v-1.115H52v-2.221h1.404V171.37z"/>
		<path d="M60.317,171.034h-4.956v-5.004h4.956V171.034z M63.989,175.534h-7.248v-3.312h1.392v2.195h5.856V175.534z M58.924,169.942
			v-2.832h-2.172v2.832H58.924z M62.38,167.914h-1.488v-1.104h1.488v-1.681h1.393v7.752H62.38v-2.615h-1.488v-1.104h1.488V167.914z"
			/>
		<path d="M66.203,170.116c-0.524-0.468-0.786-1.074-0.786-1.818c0-0.743,0.262-1.365,0.786-1.865c0.523-0.5,1.174-0.75,1.95-0.75
			c0.775,0,1.428,0.25,1.956,0.75c0.527,0.5,0.792,1.122,0.792,1.865c0,0.744-0.261,1.351-0.78,1.818
			c-0.521,0.468-1.176,0.702-1.968,0.702C67.376,170.818,66.726,170.584,66.203,170.116z M66.712,171.803h7.452v4.031H72.76v-2.916
			h-6.048V171.803z M66.772,168.286c0,0.424,0.127,0.771,0.379,1.038c0.252,0.269,0.586,0.402,1.002,0.402
			c0.415,0,0.754-0.137,1.014-0.408s0.39-0.616,0.39-1.032c0-0.408-0.126-0.75-0.378-1.025c-0.252-0.276-0.594-0.414-1.025-0.414
			c-0.408,0-0.74,0.14-0.996,0.42C66.9,167.547,66.772,167.887,66.772,168.286z M71.224,170.098l0.036-1.177h1.5v-1.308h-1.5
			l-0.036-1.176h1.536v-1.309h1.404v6.12H72.76v-1.151H71.224z"/>
		<path d="M29.177,185.434h-4.956v-5.005h4.956V185.434z M32.849,189.934h-7.248v-3.312h1.392v2.196h5.856V189.934z M27.785,184.342
			v-2.832h-2.172v2.832H27.785z M31.241,182.314h-1.488v-1.104h1.488v-1.68h1.393v7.752h-1.393v-2.616h-1.488v-1.104h1.488V182.314z
			"/>
		<path d="M35.063,184.516c-0.524-0.469-0.786-1.074-0.786-1.818s0.262-1.366,0.786-1.866c0.523-0.5,1.174-0.75,1.95-0.75
			c0.775,0,1.428,0.25,1.956,0.75c0.527,0.5,0.792,1.122,0.792,1.866s-0.261,1.35-0.78,1.818c-0.521,0.468-1.176,0.701-1.968,0.701
			C36.237,185.218,35.586,184.984,35.063,184.516z M35.573,186.202h7.452v4.032H41.62v-2.916h-6.048V186.202z M35.632,182.686
			c0,0.424,0.127,0.77,0.379,1.038c0.252,0.268,0.586,0.401,1.002,0.401c0.415,0,0.754-0.136,1.014-0.408
			c0.26-0.271,0.39-0.615,0.39-1.031c0-0.408-0.126-0.75-0.378-1.026s-0.594-0.414-1.025-0.414c-0.408,0-0.74,0.141-0.996,0.42
			C35.76,181.946,35.632,182.286,35.632,182.686z M40.084,184.498l0.036-1.176h1.5v-1.308h-1.5l-0.036-1.177h1.536v-1.308h1.404
			v6.12H41.62v-1.152H40.084z"/>
		<path d="M49.901,185.626h-5.064v-5.34h1.38v1.68h2.28v-1.704h1.404V185.626z M53.176,189.91h-7.188v-3.372h1.392v2.256h5.796
			V189.91z M48.496,184.558v-1.524h-2.28v1.524H48.496z M52.924,179.53v3h1.524v1.164h-1.524v3.552h-1.416v-7.716H52.924z"/>
		<path d="M64.6,184.402v1.116h-9.659v-1.116H64.6z M63.508,188.182c0,0.607-0.328,1.09-0.983,1.445
			c-0.656,0.356-1.572,0.534-2.748,0.534c-1.177,0-2.093-0.178-2.748-0.534c-0.656-0.355-0.984-0.838-0.984-1.445
			c0-0.616,0.328-1.104,0.984-1.465c0.655-0.359,1.567-0.54,2.735-0.54c1.177,0,2.095,0.181,2.755,0.54
			C63.178,187.078,63.508,187.566,63.508,188.182z M57.04,183.328c-0.656-0.38-0.984-0.874-0.984-1.482
			c0-0.607,0.328-1.1,0.984-1.476s1.564-0.563,2.724-0.563c1.168,0,2.082,0.188,2.742,0.563s0.99,0.868,0.99,1.476
			c0,0.608-0.328,1.103-0.984,1.482c-0.655,0.38-1.567,0.57-2.735,0.57S57.697,183.708,57.04,183.328z M62.056,188.194
			c0-0.272-0.206-0.49-0.617-0.654c-0.412-0.164-0.971-0.246-1.675-0.246c-0.695,0-1.25,0.082-1.661,0.246
			c-0.412,0.164-0.618,0.382-0.618,0.654c0,0.264,0.206,0.472,0.618,0.624c0.411,0.152,0.966,0.228,1.661,0.228
			c0.704,0,1.263-0.075,1.675-0.228C61.85,188.666,62.056,188.458,62.056,188.194z M58.096,181.144
			c-0.399,0.172-0.6,0.406-0.6,0.701c0,0.297,0.202,0.534,0.606,0.715c0.403,0.18,0.957,0.27,1.661,0.27
			c0.696,0,1.252-0.092,1.668-0.276c0.416-0.184,0.624-0.42,0.624-0.708c0-0.295-0.202-0.529-0.605-0.701
			c-0.404-0.172-0.966-0.259-1.687-0.259C59.052,180.886,58.496,180.972,58.096,181.144z"/>
	</g>
	<g>
		<path d="M24.389,45.23v-1.152h5.64v1.152h-2.052c0.031,0.752,0.273,1.392,0.726,1.92s1.002,0.9,1.65,1.116l-0.769,1.092
			c-0.432-0.152-0.872-0.424-1.319-0.816c-0.448-0.392-0.78-0.82-0.996-1.284c-0.16,0.504-0.48,0.984-0.96,1.44
			c-0.48,0.456-0.988,0.776-1.524,0.96l-0.828-1.104c0.784-0.28,1.406-0.708,1.866-1.284c0.46-0.576,0.698-1.256,0.714-2.04H24.389z
			 M25.624,50.222h7.248v3.888h-1.416v-2.784h-5.832V50.222z M32.861,49.67h-1.404v-2.532h-1.584V46.01h1.584v-2.604h1.404V49.67z"
			/>
		<path d="M44.056,48.278v1.116h-9.659v-1.116H44.056z M42.964,52.058c0,0.608-0.328,1.09-0.983,1.446
			c-0.656,0.356-1.572,0.534-2.748,0.534c-1.177,0-2.093-0.178-2.748-0.534c-0.656-0.356-0.984-0.838-0.984-1.446
			c0-0.616,0.328-1.104,0.984-1.464c0.655-0.36,1.567-0.54,2.735-0.54c1.177,0,2.095,0.18,2.755,0.54
			C42.634,50.954,42.964,51.442,42.964,52.058z M36.496,47.204c-0.656-0.38-0.984-0.874-0.984-1.482c0-0.607,0.328-1.1,0.984-1.476
			s1.564-0.564,2.724-0.564c1.168,0,2.082,0.188,2.742,0.564s0.99,0.868,0.99,1.476c0,0.608-0.328,1.103-0.984,1.482
			c-0.655,0.38-1.567,0.57-2.735,0.57S37.153,47.584,36.496,47.204z M41.512,52.07c0-0.272-0.206-0.49-0.617-0.654
			c-0.412-0.164-0.971-0.246-1.675-0.246c-0.695,0-1.25,0.082-1.661,0.246c-0.412,0.164-0.618,0.382-0.618,0.654
			c0,0.264,0.206,0.472,0.618,0.624c0.411,0.152,0.966,0.228,1.661,0.228c0.704,0,1.263-0.076,1.675-0.228
			C41.306,52.542,41.512,52.334,41.512,52.07z M37.552,45.02c-0.399,0.172-0.6,0.406-0.6,0.702c0,0.296,0.202,0.534,0.606,0.714
			c0.403,0.18,0.957,0.27,1.661,0.27c0.696,0,1.252-0.092,1.668-0.276c0.416-0.184,0.624-0.42,0.624-0.708
			c0-0.295-0.202-0.53-0.605-0.702c-0.404-0.172-0.966-0.258-1.687-0.258C38.508,44.762,37.953,44.848,37.552,45.02z"/>
		<path d="M50.153,49.31h-4.956v-5.004h4.956V49.31z M53.825,53.81h-7.248v-3.312h1.392v2.196h5.856V53.81z M48.76,48.218v-2.832
			h-2.172v2.832H48.76z M52.216,46.19h-1.488v-1.104h1.488v-1.68h1.393v7.752h-1.393v-2.616h-1.488v-1.104h1.488V46.19z"/>
		<path d="M56.038,48.392c-0.524-0.468-0.786-1.074-0.786-1.818c0-0.744,0.262-1.366,0.786-1.866c0.523-0.5,1.174-0.75,1.95-0.75
			c0.775,0,1.428,0.25,1.956,0.75c0.527,0.5,0.792,1.122,0.792,1.866c0,0.744-0.261,1.35-0.78,1.818
			c-0.521,0.468-1.176,0.702-1.968,0.702C57.212,49.094,56.562,48.86,56.038,48.392z M56.548,50.078H64v4.032h-1.404v-2.916h-6.048
			V50.078z M56.608,46.562c0,0.424,0.127,0.77,0.379,1.038s0.586,0.402,1.002,0.402c0.415,0,0.754-0.136,1.014-0.408
			c0.26-0.271,0.39-0.616,0.39-1.032c0-0.408-0.126-0.75-0.378-1.026c-0.252-0.276-0.594-0.414-1.025-0.414
			c-0.408,0-0.74,0.14-0.996,0.42C56.736,45.823,56.608,46.162,56.608,46.562z M61.06,48.374l0.036-1.176h1.5V45.89h-1.5
			l-0.036-1.176h1.536v-1.308H64v6.12h-1.404v-1.152H61.06z"/>
		<path d="M29.393,63.71h-4.956v-5.004h4.956V63.71z M33.065,68.21h-7.248v-3.312h1.392v2.196h5.856V68.21z M28,62.618v-2.832
			h-2.172v2.832H28z M31.456,60.59h-1.488v-1.104h1.488v-1.68h1.393v7.752h-1.393v-2.616h-1.488v-1.104h1.488V60.59z"/>
		<path d="M35.279,62.792c-0.524-0.468-0.786-1.074-0.786-1.818c0-0.744,0.262-1.366,0.786-1.866c0.523-0.5,1.174-0.75,1.95-0.75
			c0.775,0,1.428,0.25,1.956,0.75c0.527,0.5,0.792,1.122,0.792,1.866c0,0.744-0.261,1.35-0.78,1.818
			c-0.521,0.468-1.176,0.702-1.968,0.702C36.453,63.494,35.802,63.26,35.279,62.792z M35.788,64.478h7.452v4.032h-1.404v-2.916
			h-6.048V64.478z M35.848,60.962c0,0.424,0.127,0.77,0.379,1.038s0.586,0.402,1.002,0.402c0.415,0,0.754-0.136,1.014-0.408
			c0.26-0.271,0.39-0.616,0.39-1.032c0-0.408-0.126-0.75-0.378-1.026c-0.252-0.276-0.594-0.414-1.025-0.414
			c-0.408,0-0.74,0.14-0.996,0.42C35.976,60.222,35.848,60.562,35.848,60.962z M40.3,62.774l0.036-1.176h1.5V60.29h-1.5L40.3,59.114
			h1.536v-1.308h1.404v6.12h-1.404v-1.152H40.3z"/>
		<path d="M50.117,63.902h-5.064v-5.34h1.38v1.68h2.28v-1.704h1.404V63.902z M53.392,68.186h-7.188v-3.372h1.392v2.256h5.796V68.186
			z M48.712,62.834V61.31h-2.28v1.524H48.712z M53.14,57.806v3h1.524v1.164H53.14v3.552h-1.416v-7.716H53.14z"/>
		<path d="M64.816,62.678v1.116h-9.659v-1.116H64.816z M63.724,66.458c0,0.608-0.328,1.09-0.983,1.446
			c-0.656,0.356-1.572,0.534-2.748,0.534c-1.177,0-2.093-0.178-2.748-0.534c-0.656-0.356-0.984-0.838-0.984-1.446
			c0-0.616,0.328-1.104,0.984-1.464c0.655-0.36,1.567-0.54,2.735-0.54c1.177,0,2.095,0.18,2.755,0.54
			C63.394,65.354,63.724,65.842,63.724,66.458z M57.256,61.604c-0.656-0.38-0.984-0.874-0.984-1.482c0-0.607,0.328-1.1,0.984-1.476
			s1.564-0.564,2.724-0.564c1.168,0,2.082,0.188,2.742,0.564s0.99,0.868,0.99,1.476c0,0.608-0.328,1.103-0.984,1.482
			c-0.655,0.38-1.567,0.57-2.735,0.57S57.912,61.984,57.256,61.604z M62.272,66.47c0-0.272-0.206-0.49-0.617-0.654
			c-0.412-0.164-0.971-0.246-1.675-0.246c-0.695,0-1.25,0.082-1.661,0.246c-0.412,0.164-0.618,0.382-0.618,0.654
			c0,0.264,0.206,0.472,0.618,0.624c0.411,0.152,0.966,0.228,1.661,0.228c0.704,0,1.263-0.076,1.675-0.228
			C62.066,66.942,62.272,66.734,62.272,66.47z M58.312,59.42c-0.399,0.172-0.6,0.406-0.6,0.702c0,0.296,0.202,0.534,0.606,0.714
			c0.403,0.18,0.957,0.27,1.661,0.27c0.696,0,1.252-0.092,1.668-0.276c0.416-0.184,0.624-0.42,0.624-0.708
			c0-0.295-0.202-0.53-0.605-0.702c-0.404-0.172-0.966-0.258-1.687-0.258C59.268,59.162,58.712,59.248,58.312,59.42z"/>
	</g>
	<g>
		<path d="M29.957,7.95c-0.024,1.432-0.462,2.604-1.314,3.516c-0.852,0.912-2.018,1.544-3.498,1.896l-0.684-1.116
			c0.615-0.104,1.193-0.284,1.733-0.54s1.021-0.612,1.44-1.068c0.42-0.456,0.678-0.968,0.774-1.536h-3.433V7.95H29.957z
			 M32.945,17.863h-6.924v-4.092h6.924V17.863z M31.541,16.771v-1.908h-4.116v1.908H31.541z M34.469,10.927h-1.524v2.328h-1.416
			V7.303h1.416v2.484h1.524V10.927z"/>
		<path d="M35.045,10.447c0-0.728,0.262-1.338,0.786-1.83c0.523-0.492,1.178-0.738,1.962-0.738c0.783,0,1.439,0.244,1.968,0.732
			c0.528,0.488,0.792,1.1,0.792,1.836c0,0.752-0.263,1.356-0.786,1.812c-0.524,0.456-1.182,0.684-1.974,0.684
			c-0.784,0-1.438-0.23-1.962-0.69C35.307,11.793,35.045,11.191,35.045,10.447z M36.401,10.447c0,0.416,0.128,0.756,0.384,1.02
			s0.593,0.396,1.009,0.396c0.424,0,0.766-0.134,1.025-0.402s0.391-0.606,0.391-1.014c0-0.408-0.129-0.744-0.385-1.008
			c-0.256-0.264-0.6-0.396-1.031-0.396c-0.408,0-0.742,0.136-1.002,0.408C36.531,9.723,36.401,10.055,36.401,10.447z M43.805,17.863
			h-7.044v-4.068h7.044V17.863z M42.401,16.771v-1.896h-4.224v1.896H42.401z M43.805,13.279h-1.404v-1.068h-1.5l0.036-1.188h1.464
			V9.787h-1.464l-0.036-1.188h1.5V7.303h1.404V13.279z"/>
		<path d="M52.685,17.683h-1.416v-3.192c-0.904,0.032-1.788,0.048-2.651,0.048l-0.204-1.14c1.048,0,2.231-0.02,3.552-0.06
			c1.368-0.056,2.548-0.14,3.54-0.252l0.107,1.068c-0.695,0.104-1.672,0.192-2.928,0.264V17.683z M49.229,10.279V9.175h5.604v1.104
			h-2.064c0.104,0.4,0.386,0.724,0.846,0.972s0.967,0.388,1.519,0.42l-0.552,1.056c-0.504-0.064-0.998-0.224-1.482-0.48
			c-0.484-0.256-0.83-0.556-1.038-0.9c-0.2,0.4-0.552,0.749-1.056,1.044s-1.028,0.48-1.572,0.552l-0.588-1.044
			c1.464-0.248,2.28-0.788,2.448-1.62H49.229z M50.489,8.611V7.507h3.108v1.104H50.489z M57.413,7.303v10.692h-1.404V7.303H57.413z"
			/>
		<path d="M59.711,12.247c-0.532-0.456-0.798-1.052-0.798-1.788s0.266-1.346,0.798-1.83c0.531-0.484,1.189-0.726,1.974-0.726
			s1.44,0.24,1.968,0.72c0.528,0.48,0.792,1.092,0.792,1.836c0,0.744-0.262,1.342-0.786,1.794c-0.523,0.452-1.182,0.678-1.974,0.678
			C60.901,12.93,60.243,12.702,59.711,12.247z M60.221,14.083h7.032v3.924h-1.416v-2.808h-5.616V14.083z M60.293,10.447
			c0,0.424,0.128,0.766,0.384,1.026c0.256,0.26,0.592,0.39,1.008,0.39s0.756-0.134,1.021-0.402c0.264-0.268,0.396-0.606,0.396-1.014
			c0-0.4-0.128-0.732-0.384-0.996c-0.256-0.264-0.601-0.396-1.032-0.396c-0.408,0-0.742,0.134-1.002,0.402
			S60.293,10.055,60.293,10.447z M68.645,11.011v1.164h-1.404v1.38h-1.428V7.303h1.428v1.308h1.404v1.152h-1.404v1.248H68.645z"/>
		<path d="M75.653,12.043l-0.804,1.092c-0.44-0.176-0.893-0.466-1.356-0.87c-0.464-0.404-0.804-0.838-1.02-1.302
			c-0.152,0.528-0.475,1.022-0.966,1.482c-0.492,0.46-0.998,0.778-1.519,0.954l-0.84-1.116c0.792-0.288,1.42-0.734,1.884-1.338
			s0.696-1.302,0.696-2.094V7.795h1.452v0.984c0,0.784,0.241,1.468,0.726,2.052S74.973,11.819,75.653,12.043z M78.173,15.835
			c0,0.656-0.324,1.178-0.973,1.566c-0.647,0.388-1.552,0.582-2.712,0.582c-1.136,0-2.026-0.194-2.67-0.582
			c-0.644-0.388-0.966-0.91-0.966-1.566c0-0.672,0.319-1.202,0.96-1.59c0.64-0.388,1.532-0.582,2.676-0.582
			c1.16,0,2.064,0.194,2.712,0.582C77.849,14.633,78.173,15.163,78.173,15.835z M74.489,14.791c-0.688,0-1.226,0.092-1.614,0.276
			c-0.388,0.184-0.581,0.44-0.581,0.768c0,0.32,0.193,0.57,0.581,0.75c0.389,0.18,0.927,0.27,1.614,0.27
			c0.712,0,1.262-0.09,1.65-0.27c0.388-0.18,0.582-0.43,0.582-0.75c0-0.328-0.194-0.584-0.582-0.768
			C75.75,14.883,75.201,14.791,74.489,14.791z M78.101,13.543h-1.404v-2.904h-1.824V9.523h1.824v-2.22h1.404V13.543z"/>
		<path d="M29.957,27.607h-4.956v-5.004h4.956V27.607z M33.629,32.107h-7.248v-3.312h1.392v2.196h5.856V32.107z M28.565,26.514
			v-2.832h-2.172v2.832H28.565z M32.021,24.487h-1.488v-1.104h1.488v-1.68h1.393v7.752h-1.393v-2.616h-1.488v-1.104h1.488V24.487z"
			/>
		<path d="M35.843,26.689c-0.524-0.468-0.786-1.074-0.786-1.818c0-0.744,0.262-1.366,0.786-1.866c0.523-0.5,1.174-0.75,1.95-0.75
			c0.775,0,1.428,0.25,1.956,0.75c0.527,0.5,0.792,1.122,0.792,1.866c0,0.744-0.261,1.35-0.78,1.818
			c-0.521,0.468-1.176,0.702-1.968,0.702C37.017,27.39,36.367,27.157,35.843,26.689z M36.353,28.375h7.452v4.032h-1.404v-2.916
			h-6.048V28.375z M36.412,24.859c0,0.424,0.127,0.77,0.379,1.038s0.586,0.402,1.002,0.402c0.415,0,0.754-0.136,1.014-0.408
			c0.26-0.271,0.39-0.616,0.39-1.032c0-0.408-0.126-0.75-0.378-1.026c-0.252-0.276-0.594-0.414-1.025-0.414
			c-0.408,0-0.74,0.14-0.996,0.42C36.54,24.119,36.412,24.459,36.412,24.859z M40.865,26.671l0.036-1.176h1.5v-1.308h-1.5
			l-0.036-1.176h1.536v-1.308h1.404v6.12h-1.404v-1.152H40.865z"/>
		<path d="M50.681,27.799h-5.064v-5.34h1.38v1.68h2.28v-1.704h1.404V27.799z M53.956,32.083h-7.188v-3.372h1.392v2.256h5.796V32.083
			z M49.277,26.731v-1.524h-2.28v1.524H49.277z M53.704,21.702v3h1.524v1.164h-1.524v3.552h-1.416v-7.716H53.704z"/>
		<path d="M65.38,26.575v1.116h-9.659v-1.116H65.38z M64.288,30.355c0,0.608-0.328,1.09-0.983,1.446
			c-0.656,0.356-1.572,0.534-2.748,0.534c-1.177,0-2.093-0.178-2.748-0.534c-0.656-0.356-0.984-0.838-0.984-1.446
			c0-0.616,0.328-1.104,0.984-1.464c0.655-0.36,1.567-0.54,2.735-0.54c1.177,0,2.095,0.18,2.755,0.54
			C63.958,29.251,64.288,29.739,64.288,30.355z M57.821,25.501c-0.656-0.38-0.984-0.874-0.984-1.482c0-0.607,0.328-1.1,0.984-1.476
			s1.564-0.564,2.724-0.564c1.168,0,2.082,0.188,2.742,0.564s0.99,0.868,0.99,1.476c0,0.608-0.328,1.103-0.984,1.482
			c-0.655,0.38-1.567,0.57-2.735,0.57S58.477,25.881,57.821,25.501z M62.836,30.367c0-0.272-0.206-0.49-0.617-0.654
			c-0.412-0.164-0.971-0.246-1.675-0.246c-0.695,0-1.25,0.082-1.661,0.246c-0.412,0.164-0.618,0.382-0.618,0.654
			c0,0.264,0.206,0.472,0.618,0.624c0.411,0.152,0.966,0.228,1.661,0.228c0.704,0,1.263-0.076,1.675-0.228
			C62.63,30.839,62.836,30.631,62.836,30.367z M58.876,23.317c-0.399,0.172-0.6,0.406-0.6,0.702c0,0.296,0.202,0.534,0.606,0.714
			c0.403,0.18,0.957,0.27,1.661,0.27c0.696,0,1.252-0.092,1.668-0.276c0.416-0.184,0.624-0.42,0.624-0.708
			c0-0.295-0.202-0.53-0.605-0.702c-0.404-0.172-0.966-0.258-1.687-0.258C59.832,23.058,59.277,23.145,58.876,23.317z"/>
	</g>
	<g>
		<path d="M414.813,56.759v-8.231h1.488v8.231H414.813z"/>
		<path d="M420.393,58.511c-0.943,0-1.655-0.126-2.136-0.378s-0.72-0.602-0.72-1.05c0-0.584,0.384-0.988,1.151-1.212v-0.048
			c-0.191-0.064-0.348-0.178-0.468-0.342s-0.18-0.351-0.18-0.559c0-0.2,0.058-0.37,0.174-0.51s0.298-0.29,0.546-0.45
			c-0.521-0.336-0.78-0.82-0.78-1.452v-0.107c0-0.624,0.225-1.101,0.673-1.429c0.447-0.327,1.048-0.491,1.8-0.491
			c0.319,0,0.64,0.031,0.96,0.096h2.088v0.912h-0.948c0.208,0.231,0.312,0.523,0.312,0.876v0.084c0,0.632-0.221,1.105-0.66,1.422
			c-0.44,0.316-1.028,0.474-1.765,0.474c-0.407,0-0.731-0.04-0.972-0.12c-0.016,0.017-0.038,0.034-0.065,0.055
			c-0.028,0.02-0.049,0.036-0.061,0.048s-0.026,0.026-0.042,0.042s-0.028,0.032-0.036,0.048c-0.008,0.017-0.014,0.034-0.018,0.054
			c-0.004,0.021-0.006,0.042-0.006,0.066c0,0.272,0.184,0.408,0.552,0.408h1.704c1.336,0,2.004,0.52,2.004,1.56
			c0,0.608-0.258,1.094-0.774,1.458C422.212,58.329,421.433,58.511,420.393,58.511z M420.37,57.575c1.144,0,1.716-0.28,1.716-0.84
			c0-0.24-0.068-0.404-0.204-0.492s-0.388-0.132-0.756-0.132h-1.584c-0.424,0.136-0.636,0.392-0.636,0.768
			C418.906,57.343,419.393,57.575,420.37,57.575z M420.441,53.459c0.729,0,1.093-0.316,1.093-0.948v-0.156
			c0-0.663-0.364-0.995-1.093-0.995c-0.735,0-1.104,0.323-1.104,0.972v0.144C419.338,53.131,419.706,53.459,420.441,53.459z"/>
		<path d="M428.254,56.89c-1.256,0-2.229-0.33-2.916-0.989c-0.688-0.66-1.032-1.69-1.032-3.091v-0.252
			c0-0.752,0.108-1.405,0.324-1.962c0.216-0.556,0.516-0.989,0.899-1.302c0.385-0.312,0.809-0.54,1.272-0.684
			c0.464-0.145,0.976-0.217,1.536-0.217c0.896,0,1.647,0.16,2.256,0.48v1.176c-0.696-0.304-1.437-0.456-2.22-0.456
			c-1.673,0-2.509,0.948-2.509,2.845v0.371c0,0.944,0.17,1.667,0.511,2.166c0.34,0.5,0.962,0.75,1.865,0.75
			c0.464,0,0.885-0.06,1.261-0.18v-1.872h-1.524v-1.104h2.964v3.815C430.109,56.722,429.214,56.89,428.254,56.89z"/>
		<path d="M432.01,58.379l0.479-2.424h1.512l-0.863,2.424H432.01z"/>
		<path d="M438.837,56.759v-8.231h1.488v8.231H438.837z"/>
		<path d="M444.417,58.511c-0.944,0-1.656-0.126-2.136-0.378c-0.48-0.252-0.721-0.602-0.721-1.05c0-0.584,0.384-0.988,1.152-1.212
			v-0.048c-0.192-0.064-0.348-0.178-0.468-0.342s-0.181-0.351-0.181-0.559c0-0.2,0.059-0.37,0.174-0.51
			c0.116-0.14,0.299-0.29,0.547-0.45c-0.521-0.336-0.78-0.82-0.78-1.452v-0.107c0-0.624,0.224-1.101,0.672-1.429
			c0.448-0.327,1.048-0.491,1.8-0.491c0.32,0,0.641,0.031,0.96,0.096h2.088v0.912h-0.947c0.208,0.231,0.312,0.523,0.312,0.876v0.084
			c0,0.632-0.22,1.105-0.66,1.422c-0.439,0.316-1.027,0.474-1.764,0.474c-0.408,0-0.732-0.04-0.972-0.12
			c-0.017,0.017-0.038,0.034-0.066,0.055c-0.028,0.02-0.048,0.036-0.06,0.048c-0.013,0.012-0.026,0.026-0.042,0.042
			c-0.017,0.016-0.028,0.032-0.036,0.048c-0.009,0.017-0.015,0.034-0.019,0.054c-0.004,0.021-0.006,0.042-0.006,0.066
			c0,0.272,0.184,0.408,0.552,0.408h1.704c1.336,0,2.004,0.52,2.004,1.56c0,0.608-0.258,1.094-0.773,1.458
			C446.234,58.329,445.457,58.511,444.417,58.511z M444.392,57.575c1.145,0,1.716-0.28,1.716-0.84c0-0.24-0.067-0.404-0.204-0.492
			c-0.136-0.088-0.388-0.132-0.756-0.132h-1.584c-0.424,0.136-0.636,0.392-0.636,0.768
			C442.929,57.343,443.417,57.575,444.392,57.575z M444.465,53.459c0.728,0,1.092-0.316,1.092-0.948v-0.156
			c0-0.663-0.364-0.995-1.092-0.995c-0.736,0-1.104,0.323-1.104,0.972v0.144C443.36,53.131,443.728,53.459,444.465,53.459z"/>
		<path d="M447.932,56.759l3-8.231h1.512l2.929,8.231h-1.524l-0.744-2.088h-3.06l-0.744,2.088H447.932z M451.545,50.279
			l-1.152,3.288h2.34l-1.151-3.288H451.545z"/>
		<path d="M464.492,54.598l-0.792,0.996c-0.384-0.24-0.772-0.602-1.164-1.086c-0.392-0.483-0.652-0.974-0.78-1.47
			c-0.151,0.56-0.416,1.096-0.792,1.608c-0.376,0.512-0.812,0.916-1.308,1.212l-0.828-0.96c0.704-0.456,1.254-1.088,1.65-1.896
			c0.396-0.808,0.594-1.764,0.594-2.868v-1.596h1.344v1.584c0,1.032,0.182,1.938,0.546,2.718S463.836,54.207,464.492,54.598z
			 M466.052,57.707h-1.308v-5.376h-1.44v-1.14h1.44v-3.48h1.308V57.707z M468.188,58.199h-1.332V47.507h1.332V58.199z"/>
		<path d="M479.132,56.854h-9.66v-1.104h4.104v-2.064h-3.216v-1.115h1.571l-0.3-2.46l1.404-0.181l0.216,2.641h2.136l0.385-2.616
			l1.355,0.228l-0.444,2.389h1.513v1.115h-3.216v2.064h4.151V56.854z M478.22,49.427h-7.884V48.31h7.884V49.427z"/>
	</g>
	<g>
		<path d="M413.897,80.62v-8.231h5.136v1.164h-3.66v2.256h2.844v1.151h-2.844v2.496h3.732v1.164H413.897z"/>
		<path d="M420.629,80.62v-6.18h1.332v0.552h0.048c0.607-0.439,1.284-0.66,2.028-0.66c0.607,0,1.06,0.135,1.355,0.402
			s0.444,0.702,0.444,1.302v4.584h-1.393v-4.26c0-0.32-0.071-0.546-0.216-0.678c-0.144-0.132-0.42-0.198-0.828-0.198
			c-0.464,0-0.928,0.112-1.392,0.336v4.8H420.629z"/>
		<path d="M429.629,80.728c-0.696,0-1.289-0.244-1.776-0.732c-0.488-0.487-0.732-1.248-0.732-2.28V77.56
			c0-1.088,0.248-1.898,0.744-2.431c0.496-0.531,1.168-0.798,2.017-0.798c0.552,0,1.044,0.116,1.476,0.349v-2.832h1.368v8.771
			h-1.176l-0.12-0.492h-0.048C430.956,80.528,430.372,80.728,429.629,80.728z M430.108,79.66c0.456,0,0.872-0.14,1.248-0.42v-3.516
			c-0.272-0.216-0.692-0.324-1.26-0.324c-0.513,0-0.9,0.156-1.164,0.468c-0.265,0.312-0.396,0.832-0.396,1.561v0.228
			c0,0.729,0.137,1.244,0.408,1.548C429.217,79.509,429.604,79.66,430.108,79.66z"/>
		<path d="M436.936,80.728c-0.937,0-1.658-0.271-2.166-0.811c-0.509-0.54-0.763-1.294-0.763-2.262v-0.192
			c0-0.976,0.269-1.741,0.805-2.298c0.536-0.556,1.248-0.834,2.136-0.834c0.928,0,1.646,0.271,2.154,0.811
			c0.508,0.54,0.762,1.302,0.762,2.286v0.168c0,0.976-0.269,1.741-0.804,2.298C438.524,80.45,437.816,80.728,436.936,80.728z
			 M436.96,79.684c0.977,0,1.464-0.656,1.464-1.969v-0.3c0-0.752-0.134-1.279-0.401-1.584c-0.269-0.304-0.635-0.456-1.099-0.456
			c-0.479,0-0.85,0.168-1.109,0.504s-0.391,0.833-0.391,1.488v0.288c0,0.744,0.137,1.269,0.408,1.572
			C436.104,79.532,436.48,79.684,436.96,79.684z"/>
		<path d="M441.136,80.62v-6.18h1.332v0.552h0.048c0.624-0.439,1.252-0.66,1.885-0.66c0.712,0,1.199,0.232,1.464,0.696h0.072
			c0.68-0.464,1.355-0.696,2.027-0.696c0.568,0,0.994,0.135,1.278,0.402s0.426,0.698,0.426,1.29v4.596H448.3v-4.271
			c0-0.312-0.07-0.534-0.21-0.666s-0.386-0.198-0.737-0.198c-0.377,0-0.805,0.116-1.284,0.348c0.016,0.128,0.023,0.221,0.023,0.276
			v4.512h-1.355v-4.271c0-0.312-0.072-0.534-0.216-0.666c-0.145-0.132-0.389-0.198-0.732-0.198c-0.416,0-0.84,0.112-1.272,0.336v4.8
			H441.136z"/>
		<path d="M453.975,80.728c-1.008,0-1.77-0.272-2.285-0.816c-0.517-0.544-0.774-1.312-0.774-2.304V77.44
			c0-1,0.266-1.766,0.798-2.298s1.21-0.798,2.034-0.798c0.896,0,1.556,0.248,1.979,0.743c0.425,0.496,0.637,1.244,0.637,2.244v0.576
			h-4.032c0.04,0.624,0.218,1.07,0.534,1.338c0.315,0.269,0.777,0.402,1.386,0.402c0.68,0,1.316-0.152,1.908-0.456v0.96
			C455.576,80.536,454.848,80.728,453.975,80.728z M453.724,75.364c-0.848,0-1.312,0.532-1.392,1.596h2.628
			c0-0.567-0.102-0.976-0.306-1.224S454.14,75.364,453.724,75.364z"/>
		<path d="M459.748,80.692c-1.168,0-1.752-0.532-1.752-1.596V75.52h-0.864v-1.08h0.864v-1.452h1.356v1.452h1.476v1.08h-1.476v3.384
			c0,0.264,0.06,0.448,0.18,0.552c0.12,0.104,0.34,0.156,0.66,0.156c0.239,0,0.476-0.032,0.708-0.096v0.924
			C460.564,80.608,460.18,80.692,459.748,80.692z"/>
		<path d="M462.16,80.62v-6.18h1.332v0.72h0.048c0.168-0.224,0.399-0.408,0.696-0.552c0.296-0.145,0.604-0.216,0.924-0.216
			c0.191,0,0.319,0.012,0.384,0.036v1.224c-0.152-0.024-0.32-0.036-0.504-0.036c-0.576,0-1.076,0.136-1.5,0.408v4.596H462.16z"/>
		<path d="M466.708,73.42v-1.26h1.404v1.26H466.708z M466.708,80.62v-6.18h1.392v6.18H466.708z"/>
		<path d="M471.315,80.728c-0.575,0-1.036-0.148-1.38-0.444s-0.516-0.731-0.516-1.308c0-1.04,0.66-1.656,1.98-1.849l1.451-0.168
			v-0.468c0-0.408-0.102-0.682-0.306-0.822c-0.204-0.14-0.574-0.21-1.11-0.21c-0.504,0-1.004,0.057-1.5,0.168V74.68
			c0.568-0.225,1.248-0.336,2.04-0.336c1.504,0,2.256,0.611,2.256,1.836v4.439h-1.14l-0.107-0.504h-0.072
			C472.559,80.524,472.028,80.728,471.315,80.728z M471.736,79.756c0.479,0,0.852-0.123,1.115-0.371V77.86l-1.14,0.12
			c-0.312,0.023-0.546,0.107-0.702,0.252c-0.156,0.144-0.233,0.368-0.233,0.672c0,0.28,0.085,0.492,0.258,0.636
			C471.206,79.684,471.439,79.756,471.736,79.756z"/>
		<path d="M475.863,80.62v-8.771h1.393v8.771H475.863z"/>
		<path d="M417.184,95.152c-1.168,0-2.077-0.346-2.729-1.038c-0.652-0.691-0.979-1.718-0.979-3.077v-0.301
			c0-1.399,0.356-2.43,1.068-3.09s1.645-0.99,2.796-0.99c0.848,0,1.536,0.145,2.064,0.433v1.151
			c-0.648-0.256-1.301-0.384-1.956-0.384c-1.584,0-2.376,0.908-2.376,2.725v0.42c0,0.976,0.188,1.712,0.563,2.208
			s0.984,0.744,1.824,0.744c0.64,0,1.316-0.148,2.028-0.444v1.14C418.857,94.984,418.089,95.152,417.184,95.152z"/>
		<path d="M422.645,95.02v-7.067h-2.364v-1.164h6.18v1.164h-2.34v7.067H422.645z"/>
		<path d="M427.781,95.02v-8.231h1.477v7.067h3.479v1.164H427.781z"/>
		<path d="M443.224,92.152c-0.855,0.112-1.946,0.202-3.27,0.271c-1.324,0.068-2.427,0.102-3.307,0.102l-0.18-1.067
			c1.216,0,2.132-0.004,2.748-0.013v-0.359c-0.576-0.064-1.028-0.208-1.356-0.433c-0.328-0.224-0.491-0.508-0.491-0.852
			c0-0.424,0.226-0.762,0.678-1.014s1.069-0.378,1.854-0.378s1.402,0.126,1.854,0.378s0.678,0.59,0.678,1.014
			c0,0.344-0.16,0.628-0.479,0.852c-0.32,0.225-0.765,0.368-1.332,0.433v0.312c0.991-0.056,1.832-0.132,2.52-0.228L443.224,92.152z
			 M442.913,88.18h-6.024v-0.984h6.024V88.18z M445.48,96.497h-7.523V94.24h5.76v-0.468h-5.784v-0.936h7.188v2.256h-5.748v0.479
			h6.107V96.497z M438.449,86.824v-0.96h2.987v0.96H438.449z M441.077,89.801c0-0.312-0.393-0.468-1.177-0.468
			c-0.775,0-1.163,0.155-1.163,0.468c0,0.128,0.104,0.236,0.312,0.324s0.492,0.132,0.852,0.132c0.368,0,0.656-0.044,0.864-0.132
			S441.077,89.929,441.077,89.801z M446.453,89.98h-1.332v2.364h-1.404v-6.576h1.404v3.048h1.332V89.98z"/>
		<path d="M453.425,90.509l-0.804,1.092c-0.44-0.176-0.893-0.466-1.356-0.87c-0.464-0.403-0.804-0.838-1.02-1.302
			c-0.152,0.528-0.475,1.022-0.967,1.482c-0.491,0.46-0.998,0.777-1.518,0.953l-0.84-1.115c0.792-0.288,1.42-0.734,1.884-1.338
			c0.464-0.604,0.696-1.303,0.696-2.095v-1.056h1.452v0.984c0,0.784,0.241,1.468,0.726,2.052S452.745,90.285,453.425,90.509z
			 M455.944,94.301c0,0.656-0.323,1.178-0.972,1.565c-0.648,0.389-1.552,0.582-2.712,0.582c-1.136,0-2.026-0.193-2.67-0.582
			c-0.645-0.388-0.966-0.909-0.966-1.565c0-0.672,0.319-1.202,0.96-1.59c0.64-0.388,1.531-0.582,2.676-0.582
			c1.16,0,2.063,0.194,2.712,0.582S455.944,93.629,455.944,94.301z M452.261,93.257c-0.688,0-1.227,0.092-1.614,0.275
			c-0.388,0.185-0.582,0.44-0.582,0.769c0,0.32,0.194,0.57,0.582,0.75s0.926,0.27,1.614,0.27c0.712,0,1.262-0.09,1.65-0.27
			c0.388-0.18,0.582-0.43,0.582-0.75c0-0.328-0.194-0.584-0.582-0.769C453.522,93.348,452.973,93.257,452.261,93.257z
			 M455.873,92.009h-1.404v-2.904h-1.824v-1.116h1.824v-2.22h1.404V92.009z"/>
	</g>
	<g>
		<path d="M510.814,80.62v-8.231h1.477v7.067h3.479v1.164H510.814z"/>
		<path d="M518.854,80.62v-7.067h-2.364v-1.164h6.18v1.164h-2.34v7.067H518.854z"/>
		<path d="M523.99,80.62v-8.231h2.76c1.912,0,2.868,0.804,2.868,2.412c0,1.031-0.496,1.739-1.488,2.123v0.061l2.04,3.636h-1.607
			l-1.836-3.324h-1.26v3.324H523.99z M525.467,76.276h1.128c0.527,0,0.909-0.116,1.146-0.348c0.236-0.232,0.354-0.593,0.354-1.08
			c0-0.464-0.12-0.8-0.36-1.009c-0.24-0.207-0.624-0.312-1.152-0.312h-1.115V76.276z"/>
		<path d="M514.102,95.152c-1.168,0-2.078-0.346-2.73-1.038c-0.651-0.691-0.978-1.718-0.978-3.077v-0.301
			c0-1.399,0.355-2.43,1.068-3.09c0.712-0.66,1.644-0.99,2.796-0.99c0.848,0,1.536,0.145,2.063,0.433v1.151
			c-0.647-0.256-1.3-0.384-1.956-0.384c-1.584,0-2.376,0.908-2.376,2.725v0.42c0,0.976,0.188,1.712,0.564,2.208
			s0.983,0.744,1.824,0.744c0.64,0,1.315-0.148,2.027-0.444v1.14C515.774,94.984,515.007,95.152,514.102,95.152z"/>
		<path d="M519.562,95.02v-7.067h-2.363v-1.164h6.18v1.164h-2.34v7.067H519.562z"/>
		<path d="M524.699,95.02v-8.231h1.476v7.067h3.48v1.164H524.699z"/>
		<path d="M540.142,92.152c-0.856,0.112-1.946,0.202-3.271,0.271s-2.426,0.102-3.306,0.102l-0.18-1.067
			c1.216,0,2.132-0.004,2.748-0.013v-0.359c-0.576-0.064-1.028-0.208-1.356-0.433c-0.328-0.224-0.492-0.508-0.492-0.852
			c0-0.424,0.227-0.762,0.678-1.014c0.452-0.252,1.07-0.378,1.854-0.378s1.402,0.126,1.854,0.378
			c0.452,0.252,0.679,0.59,0.679,1.014c0,0.344-0.16,0.628-0.48,0.852c-0.32,0.225-0.764,0.368-1.332,0.433v0.312
			c0.992-0.056,1.832-0.132,2.521-0.228L540.142,92.152z M539.83,88.18h-6.023v-0.984h6.023V88.18z M542.398,96.497h-7.524V94.24
			h5.761v-0.468h-5.784v-0.936h7.188v2.256h-5.748v0.479h6.108V96.497z M535.366,86.824v-0.96h2.988v0.96H535.366z M537.994,89.801
			c0-0.312-0.392-0.468-1.176-0.468c-0.776,0-1.164,0.155-1.164,0.468c0,0.128,0.104,0.236,0.312,0.324s0.492,0.132,0.853,0.132
			c0.368,0,0.656-0.044,0.864-0.132S537.994,89.929,537.994,89.801z M543.37,89.98h-1.332v2.364h-1.403v-6.576h1.403v3.048h1.332
			V89.98z"/>
		<path d="M550.342,90.509l-0.804,1.092c-0.44-0.176-0.892-0.466-1.355-0.87c-0.465-0.403-0.805-0.838-1.021-1.302
			c-0.152,0.528-0.474,1.022-0.966,1.482s-0.998,0.777-1.519,0.953l-0.84-1.115c0.792-0.288,1.42-0.734,1.885-1.338
			c0.464-0.604,0.695-1.303,0.695-2.095v-1.056h1.452v0.984c0,0.784,0.242,1.468,0.726,2.052
			C549.08,89.881,549.662,90.285,550.342,90.509z M552.862,94.301c0,0.656-0.324,1.178-0.972,1.565
			c-0.648,0.389-1.553,0.582-2.713,0.582c-1.136,0-2.025-0.193-2.67-0.582c-0.644-0.388-0.966-0.909-0.966-1.565
			c0-0.672,0.32-1.202,0.96-1.59c0.641-0.388,1.532-0.582,2.676-0.582c1.16,0,2.064,0.194,2.713,0.582
			C552.538,93.098,552.862,93.629,552.862,94.301z M549.178,93.257c-0.688,0-1.226,0.092-1.613,0.275
			c-0.389,0.185-0.582,0.44-0.582,0.769c0,0.32,0.193,0.57,0.582,0.75c0.388,0.18,0.926,0.27,1.613,0.27
			c0.712,0,1.263-0.09,1.65-0.27s0.582-0.43,0.582-0.75c0-0.328-0.194-0.584-0.582-0.769
			C550.44,93.348,549.89,93.257,549.178,93.257z M552.79,92.009h-1.404v-2.904h-1.823v-1.116h1.823v-2.22h1.404V92.009z"/>
	</g>
	<line fill="none" stroke="#FFFFFF" stroke-miterlimit="10" x1="0" y1="35.613" x2="596.744" y2="35.613"/>
	<line fill="none" stroke="#FFFFFF" stroke-miterlimit="10" x1="93.557" y1="66.572" x2="599.917" y2="66.572"/>
	<line fill="none" stroke="#FFFFFF" stroke-miterlimit="10" x1="93.557" y1="97.53" x2="599.917" y2="97.53"/>
	<line fill="none" stroke="#FFFFFF" stroke-miterlimit="10" x1="93.557" y1="127.475" x2="599.917" y2="127.475"/>
	<line fill="none" stroke="#FFFFFF" stroke-miterlimit="10" x1="93.557" y1="161.806" x2="599.917" y2="161.806"/>
	<line fill="none" stroke="#FFFFFF" stroke-miterlimit="10" x1="93.557" y1="192.742" x2="599.917" y2="192.742"/>
	<g>
		<path fill="#FFFFFF" d="M319.328,61.434v-8.231h1.488v8.231H319.328z"/>
		<path fill="#FFFFFF" d="M324.908,63.186c-0.944,0-1.656-0.126-2.136-0.378c-0.48-0.252-0.721-0.602-0.721-1.05
			c0-0.584,0.385-0.988,1.152-1.212v-0.048c-0.191-0.064-0.348-0.178-0.468-0.342s-0.18-0.351-0.18-0.559
			c0-0.2,0.058-0.37,0.174-0.51c0.115-0.14,0.298-0.29,0.546-0.45c-0.521-0.336-0.78-0.82-0.78-1.452v-0.107
			c0-0.624,0.224-1.101,0.672-1.429c0.448-0.327,1.048-0.491,1.8-0.491c0.32,0,0.641,0.031,0.96,0.096h2.089v0.912h-0.948
			c0.208,0.231,0.312,0.523,0.312,0.876v0.084c0,0.632-0.22,1.105-0.659,1.422c-0.44,0.316-1.028,0.474-1.765,0.474
			c-0.408,0-0.731-0.04-0.972-0.12c-0.017,0.017-0.038,0.034-0.066,0.055c-0.028,0.02-0.048,0.036-0.06,0.048
			s-0.026,0.026-0.042,0.042c-0.017,0.016-0.028,0.032-0.036,0.048c-0.008,0.017-0.014,0.034-0.018,0.054
			c-0.005,0.021-0.007,0.042-0.007,0.066c0,0.272,0.185,0.408,0.553,0.408h1.704c1.336,0,2.004,0.52,2.004,1.56
			c0,0.608-0.259,1.094-0.774,1.458S325.948,63.186,324.908,63.186z M324.883,62.251c1.145,0,1.717-0.28,1.717-0.84
			c0-0.24-0.068-0.404-0.204-0.492c-0.137-0.088-0.389-0.132-0.756-0.132h-1.584c-0.425,0.136-0.637,0.392-0.637,0.768
			C323.419,62.018,323.908,62.251,324.883,62.251z M324.955,58.135c0.729,0,1.092-0.316,1.092-0.948V57.03
			c0-0.663-0.363-0.995-1.092-0.995c-0.736,0-1.104,0.323-1.104,0.972v0.144C323.852,57.806,324.219,58.135,324.955,58.135z"/>
		<path fill="#FFFFFF" d="M332.768,61.566c-1.256,0-2.229-0.33-2.916-0.989c-0.688-0.66-1.032-1.69-1.032-3.091v-0.252
			c0-0.752,0.108-1.405,0.324-1.962c0.216-0.556,0.516-0.989,0.9-1.302c0.384-0.312,0.808-0.54,1.271-0.684
			c0.464-0.145,0.977-0.217,1.536-0.217c0.896,0,1.648,0.16,2.256,0.48v1.176c-0.696-0.304-1.436-0.456-2.22-0.456
			c-1.672,0-2.508,0.948-2.508,2.845v0.371c0,0.944,0.17,1.667,0.51,2.166c0.34,0.5,0.962,0.75,1.866,0.75
			c0.464,0,0.884-0.06,1.26-0.18V58.35h-1.524v-1.104h2.965v3.815C334.623,61.398,333.728,61.566,332.768,61.566z"/>
		<path fill="#FFFFFF" d="M336.524,63.054l0.48-2.424h1.512l-0.864,2.424H336.524z"/>
		<path fill="#FFFFFF" d="M343.352,61.434v-8.231h1.488v8.231H343.352z"/>
		<path fill="#FFFFFF" d="M348.932,63.186c-0.944,0-1.656-0.126-2.136-0.378c-0.48-0.252-0.721-0.602-0.721-1.05
			c0-0.584,0.385-0.988,1.152-1.212v-0.048c-0.191-0.064-0.348-0.178-0.468-0.342s-0.18-0.351-0.18-0.559
			c0-0.2,0.058-0.37,0.174-0.51c0.115-0.14,0.298-0.29,0.546-0.45c-0.521-0.336-0.78-0.82-0.78-1.452v-0.107
			c0-0.624,0.224-1.101,0.672-1.429c0.448-0.327,1.048-0.491,1.8-0.491c0.32,0,0.641,0.031,0.96,0.096h2.089v0.912h-0.948
			c0.208,0.231,0.312,0.523,0.312,0.876v0.084c0,0.632-0.22,1.105-0.659,1.422c-0.44,0.316-1.028,0.474-1.765,0.474
			c-0.408,0-0.731-0.04-0.972-0.12c-0.017,0.017-0.038,0.034-0.066,0.055c-0.028,0.02-0.048,0.036-0.06,0.048
			s-0.026,0.026-0.042,0.042c-0.017,0.016-0.028,0.032-0.036,0.048c-0.008,0.017-0.014,0.034-0.018,0.054
			c-0.005,0.021-0.007,0.042-0.007,0.066c0,0.272,0.185,0.408,0.553,0.408h1.704c1.336,0,2.004,0.52,2.004,1.56
			c0,0.608-0.259,1.094-0.774,1.458S349.972,63.186,348.932,63.186z M348.908,62.251c1.145,0,1.717-0.28,1.717-0.84
			c0-0.24-0.068-0.404-0.204-0.492c-0.137-0.088-0.389-0.132-0.756-0.132h-1.584c-0.425,0.136-0.637,0.392-0.637,0.768
			C347.444,62.018,347.932,62.251,348.908,62.251z M348.98,58.135c0.729,0,1.092-0.316,1.092-0.948V57.03
			c0-0.663-0.363-0.995-1.092-0.995c-0.736,0-1.104,0.323-1.104,0.972v0.144C347.876,57.806,348.244,58.135,348.98,58.135z"/>
		<path fill="#FFFFFF" d="M352.448,61.434l3-8.231h1.512l2.928,8.231h-1.523l-0.744-2.088h-3.061l-0.743,2.088H352.448z
			 M356.059,54.955l-1.151,3.288h2.34l-1.152-3.288H356.059z"/>
	</g>
	<g>
		<path fill="#FFFFFF" d="M320.684,120.126v-7.067h-2.364v-1.164h6.18v1.164h-2.34v7.067H320.684z"/>
		<path fill="#FFFFFF" d="M325.663,120.126v-6.18h1.332v0.72h0.048c0.168-0.224,0.399-0.408,0.695-0.552
			c0.296-0.145,0.604-0.216,0.925-0.216c0.191,0,0.319,0.012,0.384,0.036v1.224c-0.152-0.024-0.32-0.036-0.504-0.036
			c-0.576,0-1.076,0.136-1.5,0.408v4.596H325.663z"/>
		<path fill="#FFFFFF" d="M332.9,120.235c-1.009,0-1.771-0.272-2.286-0.816c-0.517-0.544-0.774-1.312-0.774-2.304v-0.168
			c0-1,0.266-1.766,0.798-2.298s1.21-0.798,2.034-0.798c0.896,0,1.556,0.248,1.98,0.743c0.424,0.496,0.636,1.244,0.636,2.244v0.576
			h-4.032c0.04,0.624,0.218,1.07,0.534,1.338c0.316,0.269,0.778,0.402,1.386,0.402c0.68,0,1.316-0.152,1.908-0.456v0.96
			C334.499,120.042,333.771,120.235,332.9,120.235z M332.648,114.87c-0.849,0-1.312,0.532-1.393,1.596h2.628
			c0-0.567-0.102-0.976-0.306-1.224S333.063,114.87,332.648,114.87z"/>
		<path fill="#FFFFFF" d="M338.828,121.878c-0.944,0-1.656-0.126-2.136-0.378c-0.48-0.252-0.721-0.602-0.721-1.05
			c0-0.584,0.385-0.988,1.152-1.212v-0.048c-0.191-0.064-0.348-0.178-0.468-0.342s-0.18-0.351-0.18-0.559
			c0-0.2,0.058-0.37,0.174-0.51c0.115-0.14,0.298-0.29,0.546-0.45c-0.521-0.336-0.78-0.82-0.78-1.452v-0.107
			c0-0.624,0.224-1.101,0.672-1.429c0.448-0.327,1.048-0.491,1.8-0.491c0.32,0,0.641,0.031,0.96,0.096h2.089v0.912h-0.948
			c0.208,0.231,0.312,0.523,0.312,0.876v0.084c0,0.632-0.22,1.105-0.659,1.422c-0.44,0.316-1.028,0.474-1.765,0.474
			c-0.408,0-0.731-0.04-0.972-0.12c-0.017,0.017-0.038,0.034-0.066,0.055c-0.028,0.02-0.048,0.036-0.06,0.048
			s-0.026,0.026-0.042,0.042c-0.017,0.016-0.028,0.032-0.036,0.048c-0.008,0.017-0.014,0.034-0.018,0.054
			c-0.005,0.021-0.007,0.042-0.007,0.066c0,0.272,0.185,0.408,0.553,0.408h1.704c1.336,0,2.004,0.52,2.004,1.56
			c0,0.608-0.259,1.094-0.774,1.458S339.868,121.878,338.828,121.878z M338.803,120.943c1.145,0,1.717-0.28,1.717-0.84
			c0-0.24-0.068-0.404-0.204-0.492c-0.137-0.088-0.389-0.132-0.756-0.132h-1.584c-0.425,0.136-0.637,0.392-0.637,0.768
			C337.339,120.71,337.828,120.943,338.803,120.943z M338.875,116.826c0.729,0,1.092-0.316,1.092-0.948v-0.156
			c0-0.663-0.363-0.995-1.092-0.995c-0.736,0-1.104,0.323-1.104,0.972v0.144C337.772,116.498,338.139,116.826,338.875,116.826z"/>
	</g>
	<g>
		<path fill="#FFFFFF" d="M134.304,147.318v-7.067h-2.364v-1.164h6.18v1.164h-2.34v7.067H134.304z"/>
		<path fill="#FFFFFF" d="M139.283,147.318v-8.771h1.38v3.12h0.06c0.576-0.425,1.232-0.637,1.968-0.637
			c0.608,0,1.061,0.135,1.356,0.402s0.444,0.702,0.444,1.302v4.583h-1.393v-4.259c0-0.32-0.072-0.546-0.216-0.678
			s-0.42-0.198-0.828-0.198c-0.464,0-0.928,0.112-1.392,0.336v4.799H139.283z"/>
		<path fill="#FFFFFF" d="M147.106,147.366v-6.767l-1.38,0.276v-0.864l2.088-0.937h0.78v8.292H147.106z"/>
	</g>
	<g>
		<path fill="#FFFFFF" d="M288.506,147.318v-7.067h-2.364v-1.164h6.18v1.164h-2.34v7.067H288.506z"/>
		<path fill="#FFFFFF" d="M293.486,147.318v-8.771h1.38v3.12h0.06c0.576-0.425,1.232-0.637,1.968-0.637
			c0.608,0,1.061,0.135,1.356,0.402s0.444,0.702,0.444,1.302v4.584h-1.393v-4.26c0-0.32-0.072-0.546-0.216-0.678
			s-0.42-0.198-0.828-0.198c-0.464,0-0.928,0.112-1.392,0.336v4.8H293.486z"/>
		<path fill="#FFFFFF" d="M300.097,147.318v-0.864l1.572-1.655c0.695-0.736,1.212-1.346,1.548-1.83s0.504-0.958,0.504-1.422
			c0-0.488-0.13-0.84-0.39-1.057c-0.261-0.216-0.658-0.323-1.194-0.323c-0.528,0-1.096,0.184-1.704,0.552l-0.24-1.092
			c0.712-0.416,1.492-0.624,2.34-0.624c0.889,0,1.564,0.204,2.028,0.611c0.464,0.408,0.696,0.988,0.696,1.74
			c0,0.344-0.062,0.69-0.187,1.038s-0.317,0.7-0.582,1.056c-0.264,0.356-0.494,0.645-0.689,0.864
			c-0.196,0.22-0.462,0.506-0.798,0.858l-0.973,0.996h3.301v1.151H300.097z"/>
	</g>
	<g>
		<path fill="#FFFFFF" d="M357.344,147.318v-7.067h-2.364v-1.164h6.18v1.164h-2.34v7.067H357.344z"/>
		<path fill="#FFFFFF" d="M362.324,147.318v-8.771h1.38v3.12h0.06c0.576-0.425,1.232-0.637,1.968-0.637
			c0.608,0,1.061,0.135,1.356,0.402s0.444,0.702,0.444,1.302v4.584h-1.393v-4.26c0-0.32-0.072-0.546-0.216-0.678
			s-0.42-0.198-0.828-0.198c-0.464,0-0.928,0.112-1.392,0.336v4.8H362.324z"/>
		<path fill="#FFFFFF" d="M370.147,147.366v-6.768l-1.38,0.276v-0.864l2.088-0.937h0.78v8.292H370.147z"/>
	</g>
	<g>
		<path fill="#FFFFFF" d="M469.997,146.908v-7.067h-2.364v-1.164h6.18v1.164h-2.34v7.067H469.997z"/>
		<path fill="#FFFFFF" d="M474.976,146.908v-8.771h1.38v3.12h0.06c0.576-0.425,1.232-0.637,1.968-0.637
			c0.608,0,1.061,0.135,1.356,0.402s0.444,0.702,0.444,1.302v4.584h-1.393v-4.26c0-0.32-0.072-0.546-0.216-0.678
			s-0.42-0.198-0.828-0.198c-0.464,0-0.928,0.112-1.392,0.336v4.8H474.976z"/>
		<path fill="#FFFFFF" d="M481.588,146.908v-0.864l1.572-1.655c0.695-0.736,1.212-1.346,1.548-1.83s0.504-0.958,0.504-1.422
			c0-0.488-0.13-0.84-0.39-1.057c-0.261-0.216-0.658-0.323-1.194-0.323c-0.528,0-1.096,0.184-1.704,0.552l-0.24-1.092
			c0.712-0.416,1.492-0.624,2.34-0.624c0.889,0,1.564,0.204,2.028,0.611c0.464,0.408,0.696,0.988,0.696,1.74
			c0,0.344-0.062,0.69-0.187,1.038s-0.317,0.7-0.582,1.056c-0.264,0.356-0.494,0.645-0.689,0.864
			c-0.196,0.22-0.462,0.506-0.798,0.858l-0.973,0.996h3.301v1.151H481.588z"/>
	</g>
	<g>
		<path d="M95.107,353.764v-6.061l-1.232,0.23v-0.913l2.002-0.88h0.803v7.623H95.107z"/>
	</g>
	<g>
		<path d="M214.959,353.721l2.673-6.347h-3.278v-1.199h4.972v0.902l-2.651,6.644H214.959z"/>
	</g>
	<g>
		<path d="M345.855,353.764v-6.061l-1.232,0.23v-0.913l2.002-0.88h0.803v7.623H345.855z"/>
		<path d="M352.037,353.875v-1.496h-3.399v-0.836l3.85-5.401h1.023v5.115h1.144v1.122h-1.144v1.496H352.037z M350.234,351.257h1.815
			v-2.541L350.234,351.257z"/>
	</g>
	<g>
		<path d="M469.569,353.721v-0.901l1.31-1.397c0.433-0.462,0.763-0.827,0.99-1.095c0.227-0.268,0.441-0.579,0.644-0.935
			c0.201-0.355,0.302-0.673,0.302-0.952c0-0.433-0.119-0.738-0.357-0.918s-0.6-0.27-1.083-0.27c-0.44,0-0.946,0.15-1.519,0.451
			l-0.197-1.111c0.638-0.359,1.363-0.539,2.178-0.539c0.857,0,1.505,0.186,1.941,0.556s0.654,0.907,0.654,1.611
			c0,0.323-0.064,0.651-0.192,0.984c-0.128,0.334-0.323,0.671-0.583,1.013c-0.261,0.341-0.47,0.603-0.627,0.786
			c-0.158,0.184-0.384,0.426-0.677,0.726l-0.781,0.792h2.883v1.199H469.569z"/>
		<path d="M476.488,353.764v-6.061l-1.231,0.23v-0.913l2.002-0.88h0.803v7.623H476.488z"/>
	</g>
	<g>
		<path d="M590.077,353.721v-0.901l1.309-1.397c0.433-0.462,0.763-0.827,0.99-1.095s0.441-0.579,0.644-0.935
			c0.201-0.355,0.303-0.673,0.303-0.952c0-0.433-0.119-0.738-0.357-0.918s-0.6-0.27-1.084-0.27c-0.439,0-0.945,0.15-1.518,0.451
			l-0.198-1.111c0.638-0.359,1.364-0.539,2.178-0.539c0.858,0,1.506,0.186,1.941,0.556c0.437,0.37,0.655,0.907,0.655,1.611
			c0,0.323-0.064,0.651-0.193,0.984c-0.128,0.334-0.322,0.671-0.583,1.013c-0.26,0.341-0.469,0.603-0.627,0.786
			c-0.157,0.184-0.383,0.426-0.676,0.726l-0.781,0.792h2.882v1.199H590.077z"/>
		<path d="M598.734,353.852c-0.924,0-1.638-0.183-2.14-0.55c-0.503-0.366-0.754-0.861-0.754-1.484c0-0.447,0.14-0.84,0.418-1.178
			c0.279-0.337,0.639-0.594,1.078-0.77c-0.857-0.403-1.287-1.001-1.287-1.793c0-0.616,0.242-1.107,0.727-1.475
			c0.483-0.366,1.14-0.55,1.969-0.55c0.828,0,1.476,0.167,1.941,0.501c0.466,0.333,0.698,0.801,0.698,1.402
			c0,0.389-0.117,0.735-0.352,1.039c-0.235,0.305-0.558,0.549-0.968,0.731c1.078,0.382,1.616,1.02,1.616,1.914
			c0,0.66-0.262,1.193-0.786,1.601S599.65,353.852,598.734,353.852z M597.64,352.472c0.253,0.194,0.604,0.291,1.051,0.291
			s0.799-0.095,1.056-0.286c0.257-0.19,0.385-0.443,0.385-0.759c0-0.667-0.539-1.125-1.617-1.375
			c-0.352,0.117-0.648,0.295-0.891,0.533c-0.242,0.239-0.363,0.501-0.363,0.787C597.26,352.009,597.387,352.278,597.64,352.472z
			 M598.932,349.232c0.301-0.117,0.549-0.272,0.743-0.467s0.291-0.424,0.291-0.688c0-0.279-0.101-0.503-0.303-0.671
			c-0.201-0.169-0.5-0.253-0.896-0.253c-0.366,0-0.654,0.078-0.863,0.236c-0.209,0.157-0.313,0.372-0.313,0.644
			C597.59,348.628,598.037,349.027,598.932,349.232z"/>
	</g>
	<path fill="#8FC5EB" d="M616.583,175.548"/>
</g>
<g>
</g>
<g>
</g>
<g>
</g>
<g>
</g>
<g>
</g>
<g>
</g>
</svg>
