<?xml version="1.0" encoding="utf-8"?>
<!-- Generator: Adobe Illustrator 28.0.0, SVG Export Plug-In . SVG Version: 6.00 Build 0)  -->
<svg version="1.1" id="레이어_1" xmlns="http://www.w3.org/2000/svg" xmlns:xlink="http://www.w3.org/1999/xlink" x="0px"
	 y="0px" viewBox="0 0 288.766 152.22" enable-background="new 0 0 288.766 152.22" xml:space="preserve">
<linearGradient id="SVGID_1_" gradientUnits="userSpaceOnUse" x1="0.125" y1="18.2737" x2="288.6411" y2="18.2737">
	<stop  offset="8.754241e-07" style="stop-color:#E969A3"/>
	<stop  offset="1" style="stop-color:#FAFAFA"/>
</linearGradient>
<polygon fill="url(#SVGID_1_)" stroke="#000000" stroke-width="0.25" stroke-miterlimit="10" points="0.125,1.842 0.125,34.706 
	288.641,34.706 "/>
<linearGradient id="SVGID_00000033336883648504496730000014855475536735311246_" gradientUnits="userSpaceOnUse" x1="0.125" y1="16.5569" x2="288.6411" y2="16.5569">
	<stop  offset="7.531582e-07" style="stop-color:#EEF7F5"/>
	<stop  offset="1" style="stop-color:#B4DFE6"/>
</linearGradient>
<polygon fill="url(#SVGID_00000033336883648504496730000014855475536735311246_)" stroke="#000000" stroke-width="0.25" stroke-miterlimit="10" points="
	288.641,32.989 288.641,0.125 0.125,0.125 "/>
<g>
	
		<rect x="0.125" y="38.543" fill="none" stroke="#000000" stroke-width="0.25" stroke-miterlimit="10" width="70.283" height="20.645"/>
	
		<rect x="76.137" y="38.543" fill="none" stroke="#000000" stroke-width="0.25" stroke-miterlimit="10" width="136.491" height="20.645"/>
	
		<rect x="218.358" y="38.543" fill="none" stroke="#000000" stroke-width="0.25" stroke-miterlimit="10" width="70.283" height="20.645"/>
</g>
<linearGradient id="SVGID_00000095327678592171656560000017541966871408124326_" gradientUnits="userSpaceOnUse" x1="-4.7559" y1="67.2945" x2="75.2887" y2="147.3392">
	<stop  offset="9.976901e-07" style="stop-color:#F8D1E2"/>
	<stop  offset="1" style="stop-color:#FAFAFA"/>
</linearGradient>
<rect x="0.125" y="62.414" fill="url(#SVGID_00000095327678592171656560000017541966871408124326_)" width="70.283" height="89.806"/>
<linearGradient id="SVGID_00000039836741195743190900000006604745186133184658_" gradientUnits="userSpaceOnUse" x1="70.2589" y1="68.5648" x2="147.763" y2="146.0689">
	<stop  offset="9.976901e-07" style="stop-color:#F8D1E2"/>
	<stop  offset="1" style="stop-color:#FAFAFA"/>
</linearGradient>
<rect x="76.41" y="62.414" fill="url(#SVGID_00000039836741195743190900000006604745186133184658_)" width="65.202" height="89.806"/>
<linearGradient id="SVGID_00000007395781098721993630000013041723123954790787_" gradientUnits="userSpaceOnUse" x1="179.7552" y1="152.2201" x2="179.7552" y2="62.4136">
	<stop  offset="7.531582e-07" style="stop-color:#EEF7F5"/>
	<stop  offset="1" style="stop-color:#B4DFE6"/>
</linearGradient>
<rect x="147.154" y="62.414" fill="url(#SVGID_00000007395781098721993630000013041723123954790787_)" width="65.202" height="89.806"/>
<linearGradient id="SVGID_00000175305418205540312520000010205241415443767203_" gradientUnits="userSpaceOnUse" x1="253.4997" y1="152.2201" x2="253.4997" y2="62.4136">
	<stop  offset="7.531582e-07" style="stop-color:#EEF7F5"/>
	<stop  offset="1" style="stop-color:#B4DFE6"/>
</linearGradient>
<rect x="218.358" y="62.414" fill="url(#SVGID_00000175305418205540312520000010205241415443767203_)" width="70.283" height="89.806"/>
<g>
	<path d="M246.612,11.745c-1.24,0.304-2.796,0.456-4.668,0.456h-1.068V7.365h1.404v3.648c1.552,0,2.928-0.132,4.128-0.396
		c0.016,0.12,0.048,0.304,0.096,0.552C246.551,11.417,246.587,11.609,246.612,11.745z M248.831,17.373h-6.924v-4.08h6.924V17.373z
		 M247.415,16.269v-1.896h-4.104v1.896H247.415z M250.356,10.245h-1.524v2.472h-1.416V6.813h1.416v2.28h1.524V10.245z"/>
	<path d="M257.255,11.553l-0.804,1.092c-0.44-0.176-0.893-0.466-1.356-0.87c-0.464-0.404-0.804-0.838-1.02-1.302
		c-0.152,0.528-0.475,1.022-0.966,1.482c-0.492,0.46-0.998,0.778-1.519,0.954l-0.84-1.116c0.792-0.288,1.42-0.734,1.884-1.338
		s0.696-1.302,0.696-2.094V7.305h1.452v0.984c0,0.784,0.241,1.468,0.726,2.052S256.576,11.329,257.255,11.553z M259.776,15.345
		c0,0.656-0.324,1.178-0.973,1.566c-0.647,0.388-1.552,0.582-2.712,0.582c-1.136,0-2.026-0.194-2.67-0.582
		c-0.644-0.388-0.966-0.91-0.966-1.566c0-0.672,0.319-1.202,0.96-1.59c0.64-0.388,1.532-0.582,2.676-0.582
		c1.16,0,2.064,0.194,2.712,0.582C259.451,14.143,259.776,14.673,259.776,15.345z M256.091,14.301c-0.687,0-1.226,0.092-1.614,0.276
		c-0.388,0.184-0.581,0.44-0.581,0.768c0,0.32,0.193,0.57,0.581,0.75c0.389,0.18,0.927,0.27,1.614,0.27
		c0.712,0,1.262-0.09,1.65-0.27c0.388-0.18,0.582-0.43,0.582-0.75c0-0.328-0.194-0.584-0.582-0.768
		C257.353,14.393,256.803,14.301,256.091,14.301z M259.703,13.053h-1.404v-2.904h-1.824V9.033h1.824v-2.22h1.404V13.053z"/>
	<path d="M267.24,12.021l0.12,1.068c-1.433,0.256-3.448,0.384-6.049,0.384l-0.191-1.164h1.296l-0.252-2.94
		c0.151-0.024,0.382-0.052,0.689-0.084c0.309-0.032,0.538-0.056,0.69-0.072c0.024,0.624,0.067,1.648,0.132,3.072l1.044-0.036
		c0.032-1.008,0.08-2.016,0.145-3.024l1.344,0.132l-0.276,2.82C266.595,12.113,267.032,12.061,267.24,12.021z M266.939,8.781h-5.508
		V7.665h5.508V8.781z M270.311,17.217h-7.38v-3.132h1.416v2.016h5.964V17.217z M267.347,9.717V8.661h1.332V6.813h1.404v7.752h-1.404
		v-2.676h-1.332v-1.08h1.332V9.717H267.347z"/>
	<path d="M277.811,9.753h-6.204V8.661h6.204V9.753z M277.271,11.781c0,0.528-0.238,0.956-0.714,1.284
		c-0.476,0.328-1.082,0.492-1.817,0.492c-0.744,0-1.36-0.164-1.849-0.492c-0.488-0.328-0.731-0.756-0.731-1.284
		c0-0.52,0.241-0.944,0.726-1.272s1.102-0.492,1.854-0.492c0.735,0,1.342,0.164,1.817,0.492S277.271,11.261,277.271,11.781z
		 M279.125,14.283c0.644,0.324,0.966,0.786,0.966,1.386c0,0.6-0.322,1.064-0.966,1.392c-0.645,0.328-1.542,0.492-2.694,0.492
		s-2.048-0.164-2.688-0.492c-0.641-0.328-0.96-0.792-0.96-1.392c0-0.6,0.321-1.062,0.966-1.386c0.644-0.324,1.538-0.486,2.682-0.486
		C277.583,13.797,278.481,13.959,279.125,14.283z M273.156,8.193V7.101h3.168v1.092H273.156z M273.911,11.247
		c-0.225,0.14-0.336,0.318-0.336,0.534c0,0.216,0.111,0.394,0.336,0.534c0.224,0.14,0.5,0.21,0.828,0.21
		c0.312,0,0.579-0.07,0.804-0.21c0.224-0.14,0.336-0.318,0.336-0.534c0-0.216-0.112-0.394-0.336-0.534
		c-0.225-0.14-0.492-0.21-0.804-0.21C274.411,11.037,274.135,11.107,273.911,11.247z M276.431,14.865
		c-0.688,0-1.228,0.074-1.62,0.222c-0.392,0.148-0.588,0.346-0.588,0.594c0,0.24,0.196,0.434,0.588,0.582
		c0.393,0.148,0.932,0.222,1.62,0.222c0.696,0,1.24-0.074,1.632-0.222c0.393-0.148,0.588-0.342,0.588-0.582
		c0-0.248-0.195-0.446-0.588-0.594C277.671,14.939,277.127,14.865,276.431,14.865z M281.399,11.025v1.128h-1.416v1.548h-1.416V6.813
		h1.416v2.028h1.416v1.128h-1.416v1.056H281.399z"/>
</g>
<g>
	<path d="M7.766,23.063c0-1.152,0.244-2.078,0.732-2.778c0.487-0.7,1.159-1.05,2.016-1.05c0.864,0,1.54,0.35,2.028,1.05
		c0.487,0.7,0.731,1.626,0.731,2.778c0,1.136-0.244,2.054-0.731,2.754c-0.488,0.7-1.164,1.05-2.028,1.05
		c-0.856,0-1.528-0.348-2.016-1.044C8.01,25.127,7.766,24.207,7.766,23.063z M11.93,23.063c0-0.832-0.13-1.49-0.39-1.974
		c-0.261-0.484-0.603-0.726-1.026-0.726c-0.408,0-0.74,0.242-0.996,0.726c-0.256,0.484-0.384,1.142-0.384,1.974
		c0,0.824,0.128,1.476,0.384,1.956s0.588,0.72,0.996,0.72c0.424,0,0.766-0.24,1.026-0.72C11.8,24.539,11.93,23.887,11.93,23.063z
		 M13.562,25.247l0.048-1.2h1.536v-2.244H13.61l-0.048-1.188h1.584v-2.112h1.404v10.692h-1.404v-3.948H13.562z"/>
	<path d="M24.482,23.243l-0.804,1.092c-0.44-0.176-0.893-0.466-1.356-0.87c-0.464-0.404-0.804-0.838-1.02-1.302
		c-0.152,0.528-0.475,1.022-0.966,1.482c-0.492,0.46-0.998,0.778-1.519,0.954l-0.84-1.116c0.792-0.288,1.42-0.734,1.884-1.338
		s0.696-1.302,0.696-2.094v-1.056h1.452v0.984c0,0.784,0.241,1.468,0.726,2.052S23.802,23.019,24.482,23.243z M27.002,27.035
		c0,0.656-0.324,1.178-0.973,1.566c-0.647,0.388-1.552,0.582-2.712,0.582c-1.136,0-2.026-0.194-2.67-0.582
		c-0.644-0.388-0.966-0.91-0.966-1.566c0-0.672,0.319-1.202,0.96-1.59c0.64-0.388,1.532-0.582,2.676-0.582
		c1.16,0,2.064,0.194,2.712,0.582C26.678,25.833,27.002,26.363,27.002,27.035z M23.318,25.991c-0.688,0-1.226,0.092-1.614,0.276
		c-0.388,0.184-0.581,0.44-0.581,0.768c0,0.32,0.193,0.57,0.581,0.75c0.389,0.18,0.927,0.27,1.614,0.27
		c0.712,0,1.262-0.09,1.65-0.27c0.388-0.18,0.582-0.43,0.582-0.75c0-0.328-0.194-0.584-0.582-0.768
		C24.579,26.083,24.03,25.991,23.318,25.991z M26.93,24.743h-1.404v-2.904h-1.824v-1.116h1.824v-2.22h1.404V24.743z"/>
	<path d="M34.466,23.711l0.12,1.068c-1.433,0.256-3.448,0.384-6.049,0.384l-0.191-1.164h1.296l-0.252-2.94
		c0.151-0.024,0.382-0.052,0.689-0.084c0.309-0.032,0.538-0.056,0.69-0.072c0.024,0.624,0.067,1.648,0.132,3.072l1.044-0.036
		c0.032-1.008,0.08-2.016,0.145-3.024l1.344,0.132l-0.276,2.82C33.822,23.803,34.258,23.751,34.466,23.711z M34.165,20.471h-5.508
		v-1.116h5.508V20.471z M37.537,28.907h-7.38v-3.132h1.416v2.016h5.964V28.907z M34.574,21.407v-1.056h1.332v-1.848h1.404v7.752
		h-1.404v-2.676h-1.332v-1.08h1.332v-1.092H34.574z"/>
	<path d="M45.037,21.443h-6.204v-1.092h6.204V21.443z M44.497,23.471c0,0.528-0.238,0.956-0.714,1.284
		c-0.476,0.328-1.082,0.492-1.817,0.492c-0.744,0-1.36-0.164-1.849-0.492c-0.488-0.328-0.731-0.756-0.731-1.284
		c0-0.52,0.241-0.944,0.726-1.272s1.102-0.492,1.854-0.492c0.735,0,1.342,0.164,1.817,0.492S44.497,22.951,44.497,23.471z
		 M46.352,25.973c0.644,0.324,0.966,0.786,0.966,1.386c0,0.6-0.322,1.064-0.966,1.392c-0.645,0.328-1.542,0.492-2.694,0.492
		s-2.048-0.164-2.688-0.492c-0.641-0.328-0.96-0.792-0.96-1.392c0-0.6,0.321-1.062,0.966-1.386c0.644-0.324,1.538-0.486,2.682-0.486
		C44.81,25.487,45.707,25.649,46.352,25.973z M40.382,19.883v-1.092h3.168v1.092H40.382z M41.138,22.937
		c-0.225,0.14-0.336,0.318-0.336,0.534c0,0.216,0.111,0.394,0.336,0.534c0.224,0.14,0.5,0.21,0.828,0.21
		c0.312,0,0.579-0.07,0.804-0.21c0.224-0.14,0.336-0.318,0.336-0.534c0-0.216-0.112-0.394-0.336-0.534
		c-0.225-0.14-0.492-0.21-0.804-0.21C41.638,22.727,41.362,22.797,41.138,22.937z M43.658,26.555c-0.688,0-1.228,0.074-1.62,0.222
		c-0.392,0.148-0.588,0.346-0.588,0.594c0,0.24,0.196,0.434,0.588,0.582c0.393,0.148,0.932,0.222,1.62,0.222
		c0.696,0,1.24-0.074,1.632-0.222c0.393-0.148,0.588-0.342,0.588-0.582c0-0.248-0.195-0.446-0.588-0.594
		C44.898,26.629,44.354,26.555,43.658,26.555z M48.625,22.715v1.128h-1.416v1.548h-1.416v-6.888h1.416v2.028h1.416v1.128h-1.416
		v1.056H48.625z"/>
</g>
<g>
	<path d="M13.446,51.627l-0.649,0.85c-0.42-0.207-0.851-0.557-1.29-1.05c-0.44-0.493-0.724-0.95-0.851-1.37
		c-0.113,0.474-0.375,0.965-0.784,1.475c-0.41,0.51-0.869,0.889-1.375,1.135l-0.721-0.87c1.507-0.827,2.26-2.177,2.26-4.05v-0.24
		h-1.8v-0.96h4.75v0.96h-1.739v0.23C11.247,49.524,11.979,50.821,13.446,51.627z M15.036,45.637v3.43h1.271v0.97h-1.271v4.51h-1.17
		v-8.91H15.036z"/>
	<path d="M21.337,46.547c-0.087,2.867-1.417,4.997-3.99,6.39l-0.71-0.88c0.953-0.44,1.743-1.08,2.37-1.92
		c0.627-0.84,0.98-1.713,1.061-2.62h-2.891v-0.97H21.337z M24.967,50.027h-1.29v4.52h-1.16v-8.91h1.16v3.42h1.29V50.027z"/>
	<path d="M29.847,50.557h-4.13v-4.17h4.13V50.557z M32.907,54.307h-6.04v-2.76h1.16v1.83h4.88V54.307z M28.687,49.647v-2.36h-1.811
		v2.36H28.687z M31.567,47.957h-1.24v-0.92h1.24v-1.4h1.16v6.46h-1.16v-2.18h-1.24v-0.92h1.24V47.957z"/>
	<path d="M34.753,49.792c-0.437-0.39-0.655-0.895-0.655-1.515s0.219-1.138,0.655-1.555c0.437-0.417,0.979-0.625,1.625-0.625
		s1.189,0.208,1.63,0.625c0.44,0.417,0.66,0.935,0.66,1.555s-0.217,1.125-0.65,1.515c-0.434,0.39-0.979,0.585-1.64,0.585
		C35.731,50.377,35.189,50.182,34.753,49.792z M35.178,51.197h6.21v3.36h-1.17v-2.43h-5.04V51.197z M35.227,48.267
		c0,0.354,0.105,0.642,0.315,0.865c0.21,0.224,0.488,0.335,0.835,0.335s0.628-0.113,0.845-0.34s0.325-0.513,0.325-0.86
		c0-0.34-0.105-0.625-0.315-0.855s-0.495-0.345-0.854-0.345c-0.34,0-0.617,0.117-0.83,0.35
		C35.334,47.651,35.227,47.934,35.227,48.267z M38.937,49.777l0.03-0.98h1.25v-1.09h-1.25l-0.03-0.98h1.28v-1.09h1.17v5.1h-1.17
		v-0.96H38.937z"/>
	<path d="M43.068,47.047v-0.93h4.7v0.93h-1.681c0.073,0.533,0.288,0.975,0.646,1.325c0.356,0.35,0.788,0.605,1.295,0.765
		l-0.641,0.91c-0.347-0.126-0.704-0.35-1.074-0.67c-0.37-0.32-0.652-0.667-0.846-1.04c-0.133,0.427-0.396,0.82-0.79,1.18
		c-0.393,0.36-0.813,0.62-1.26,0.78l-0.7-0.89c1.28-0.473,1.987-1.26,2.12-2.36H43.068z M50.308,54.477h-6.131v-2.38h4.69v-0.57
		h-4.75v-0.93h5.91v2.36h-4.67v0.58h4.95V54.477z M50.028,50.147h-1.16v-4.51h1.16V50.147z"/>
	<path d="M56.709,50.847l0.069,0.86c-0.713,0.1-1.616,0.178-2.71,0.235c-1.093,0.057-2.01,0.085-2.75,0.085
		c-0.054-0.347-0.106-0.66-0.16-0.94c1,0,1.75-0.007,2.25-0.02v-0.47c-0.453-0.073-0.818-0.216-1.095-0.43s-0.415-0.467-0.415-0.76
		c0-0.386,0.196-0.7,0.59-0.94c0.394-0.24,0.9-0.36,1.521-0.36s1.126,0.12,1.52,0.36c0.394,0.24,0.59,0.554,0.59,0.94
		c0,0.3-0.14,0.557-0.42,0.77c-0.279,0.213-0.653,0.354-1.12,0.42v0.43C55.358,50.994,56.068,50.934,56.709,50.847z M56.518,47.947
		h-5.01v-0.86h5.01V47.947z M58.568,54.417h-6.149v-2.05h1.17v1.14h4.979V54.417z M52.778,46.757v-0.87h2.521v0.87H52.778z
		 M54.969,49.407c0-0.14-0.084-0.255-0.25-0.345c-0.167-0.09-0.403-0.135-0.71-0.135c-0.3,0-0.535,0.045-0.705,0.135
		c-0.17,0.09-0.255,0.205-0.255,0.345c0,0.12,0.086,0.227,0.26,0.32c0.173,0.093,0.406,0.14,0.7,0.14c0.3,0,0.535-0.045,0.705-0.135
		C54.884,49.642,54.969,49.534,54.969,49.407z M58.379,45.637v3.01h1.1v0.97h-1.1v2.94h-1.17v-6.92H58.379z"/>
</g>
<g>
	<path d="M126.05,46.177c-0.021,1.193-0.386,2.17-1.096,2.93c-0.71,0.76-1.682,1.287-2.915,1.58l-0.569-0.93
		c0.513-0.086,0.995-0.236,1.444-0.45c0.45-0.213,0.851-0.51,1.2-0.89c0.351-0.38,0.565-0.807,0.646-1.28h-2.86v-0.96H126.05z
		 M128.539,54.437h-5.77v-3.41h5.77V54.437z M127.369,53.527v-1.59h-3.43v1.59H127.369z M129.81,48.657h-1.271v1.94h-1.18v-4.96
		h1.18v2.07h1.271V48.657z"/>
	<path d="M130.29,48.257c0-0.606,0.218-1.115,0.655-1.525c0.437-0.41,0.981-0.615,1.635-0.615s1.2,0.204,1.64,0.61
		c0.44,0.407,0.66,0.917,0.66,1.53c0,0.627-0.219,1.13-0.655,1.51c-0.437,0.38-0.984,0.57-1.645,0.57
		c-0.653,0-1.198-0.191-1.635-0.575C130.508,49.379,130.29,48.877,130.29,48.257z M131.42,48.257c0,0.347,0.106,0.63,0.32,0.85
		c0.213,0.22,0.493,0.33,0.84,0.33c0.354,0,0.638-0.112,0.854-0.335c0.217-0.224,0.325-0.505,0.325-0.845s-0.106-0.62-0.32-0.84
		c-0.213-0.22-0.5-0.33-0.859-0.33c-0.34,0-0.618,0.113-0.835,0.34S131.42,47.931,131.42,48.257z M137.59,54.437h-5.87v-3.39h5.87
		V54.437z M136.42,53.527v-1.58h-3.52v1.58H136.42z M137.59,50.617h-1.17v-0.89h-1.25l0.03-0.99h1.22v-1.03h-1.22l-0.03-0.99h1.25
		v-1.08h1.17V50.617z"/>
	<path d="M144.201,49.587l-0.67,0.91c-0.366-0.147-0.743-0.389-1.13-0.725c-0.387-0.337-0.67-0.698-0.85-1.085
		c-0.127,0.44-0.396,0.852-0.806,1.235s-0.831,0.648-1.265,0.795l-0.7-0.93c0.66-0.24,1.184-0.611,1.57-1.115s0.58-1.085,0.58-1.745
		v-0.88h1.21v0.82c0,0.654,0.201,1.224,0.604,1.71C143.149,49.064,143.634,49.401,144.201,49.587z M146.301,52.747
		c0,0.546-0.271,0.981-0.811,1.305s-1.293,0.485-2.26,0.485c-0.947,0-1.688-0.162-2.226-0.485c-0.536-0.323-0.805-0.758-0.805-1.305
		c0-0.56,0.267-1.002,0.8-1.325s1.277-0.485,2.23-0.485c0.967,0,1.72,0.162,2.26,0.485S146.301,52.187,146.301,52.747z
		 M143.231,51.877c-0.573,0-1.021,0.077-1.345,0.23c-0.324,0.153-0.485,0.367-0.485,0.64c0,0.267,0.161,0.475,0.485,0.625
		c0.323,0.15,0.771,0.225,1.345,0.225c0.593,0,1.052-0.075,1.375-0.225c0.323-0.15,0.484-0.358,0.484-0.625
		c0-0.273-0.161-0.487-0.484-0.64S143.824,51.877,143.231,51.877z M146.241,50.837h-1.17v-2.42h-1.52v-0.93h1.52v-1.85h1.17V50.837z
		"/>
	<path d="M150.551,47.047v-0.93h4.7v0.93h-1.681c0.073,0.533,0.288,0.975,0.646,1.325c0.356,0.35,0.788,0.605,1.295,0.765
		l-0.641,0.91c-0.347-0.126-0.704-0.35-1.074-0.67c-0.37-0.32-0.652-0.667-0.846-1.04c-0.133,0.427-0.396,0.82-0.79,1.18
		c-0.393,0.36-0.813,0.62-1.26,0.78l-0.7-0.89c1.28-0.473,1.987-1.26,2.12-2.36H150.551z M157.791,54.477h-6.131v-2.38h4.69v-0.57
		h-4.75v-0.93h5.91v2.36h-4.67v0.58h4.95V54.477z M157.511,50.147h-1.16v-4.51h1.16V50.147z"/>
	<path d="M164.191,50.847l0.069,0.86c-0.713,0.1-1.616,0.178-2.71,0.235c-1.093,0.057-2.01,0.085-2.75,0.085
		c-0.054-0.347-0.106-0.66-0.16-0.94c1,0,1.75-0.007,2.25-0.02v-0.47c-0.453-0.073-0.818-0.216-1.095-0.43s-0.415-0.467-0.415-0.76
		c0-0.386,0.196-0.7,0.59-0.94c0.394-0.24,0.9-0.36,1.521-0.36s1.126,0.12,1.52,0.36c0.394,0.24,0.59,0.554,0.59,0.94
		c0,0.3-0.14,0.557-0.42,0.77c-0.279,0.213-0.653,0.354-1.12,0.42v0.43C162.84,50.994,163.55,50.934,164.191,50.847z M164,47.947
		h-5.01v-0.86H164V47.947z M166.05,54.417h-6.149v-2.05h1.17v1.14h4.979V54.417z M160.26,46.757v-0.87h2.521v0.87H160.26z
		 M162.451,49.407c0-0.14-0.084-0.255-0.25-0.345c-0.167-0.09-0.403-0.135-0.71-0.135c-0.3,0-0.535,0.045-0.705,0.135
		c-0.17,0.09-0.255,0.205-0.255,0.345c0,0.12,0.086,0.227,0.26,0.32c0.173,0.093,0.406,0.14,0.7,0.14c0.3,0,0.535-0.045,0.705-0.135
		C162.366,49.642,162.451,49.534,162.451,49.407z M165.861,45.637v3.01h1.1v0.97h-1.1v2.94h-1.17v-6.92H165.861z"/>
</g>
<g>
	<path d="M231.483,52.347h-4.21v-5.99h1.16v2.14h1.869v-2.16h1.181V52.347z M230.302,51.427v-2.01h-1.869v2.01H230.302z
		 M234.193,54.547h-1.16v-8.91h1.16V54.547z"/>
	<path d="M239.963,49.587l-0.59,0.88c-0.308-0.133-0.624-0.355-0.95-0.665c-0.327-0.31-0.547-0.605-0.66-0.885
		c-0.127,0.354-0.352,0.703-0.675,1.05s-0.672,0.607-1.045,0.78l-0.641-0.83c0.554-0.307,0.985-0.704,1.295-1.19
		c0.311-0.487,0.466-1.037,0.466-1.65v-0.88h1.13v0.85c0,0.587,0.154,1.099,0.465,1.535
		C239.068,49.019,239.469,49.354,239.963,49.587z M243.133,52.747c0,0.546-0.278,0.983-0.835,1.31
		c-0.557,0.327-1.315,0.49-2.275,0.49s-1.717-0.164-2.27-0.49c-0.554-0.326-0.83-0.763-0.83-1.31c0-0.554,0.276-0.992,0.83-1.315
		c0.553-0.323,1.31-0.485,2.27-0.485c0.967,0,1.727,0.162,2.28,0.485C242.856,51.756,243.133,52.194,243.133,52.747z
		 M241.428,53.377c0.343-0.153,0.515-0.363,0.515-0.63s-0.172-0.477-0.515-0.63c-0.344-0.153-0.812-0.23-1.405-0.23
		c-0.58,0-1.04,0.077-1.38,0.23c-0.34,0.154-0.51,0.364-0.51,0.63s0.17,0.477,0.51,0.63s0.8,0.23,1.38,0.23
		C240.617,53.607,241.084,53.531,241.428,53.377z M243.063,50.987h-1.11v-2.21h-0.729v1.86h-1.08v-4.84h1.08v2.04h0.729v-2.2h1.11
		V50.987z"/>
	<path d="M249.574,49.497l-0.67,0.9c-0.367-0.133-0.745-0.369-1.136-0.705c-0.39-0.336-0.678-0.698-0.864-1.085
		c-0.127,0.433-0.392,0.842-0.795,1.225c-0.404,0.383-0.825,0.651-1.266,0.805l-0.71-0.93c0.66-0.24,1.186-0.612,1.575-1.115
		s0.585-1.088,0.585-1.755v-0.77h1.21v0.71c0,0.653,0.203,1.224,0.61,1.71C248.52,48.974,249.006,49.31,249.574,49.497z
		 M245.473,51.317h6.04v3.24h-1.18v-2.31h-4.86V51.317z M251.503,50.887h-1.17v-5.24h1.17V50.887z"/>
	<path d="M257.413,46.567c-0.073,2.84-1.399,4.963-3.979,6.37l-0.72-0.88c0.96-0.44,1.753-1.078,2.38-1.915
		c0.626-0.836,0.979-1.705,1.06-2.605h-2.9v-0.97H257.413z M260.154,54.547h-1.17v-8.91h1.17V54.547z"/>
	<path d="M266.924,50.807c-1.134,0.127-2.057,0.2-2.771,0.22c-1.546,0.06-2.47,0.09-2.77,0.09l-0.15-0.95
		c0.367,0,0.937-0.007,1.71-0.02v-1.79h1.16v1.76c1.134-0.026,2.044-0.093,2.73-0.2L266.924,50.807z M266.334,46.267
		c0,1.5-0.084,2.557-0.25,3.17l-1.11-0.16c0.12-0.453,0.18-1.146,0.18-2.08h-3.369v-0.93H266.334z M268.724,54.307h-6.09v-2.62h1.18
		v1.69h4.91V54.307z M269.624,49.277h-1.13v2.98h-1.16v-6.62h1.16v2.67h1.13V49.277z"/>
	<path d="M272.754,48.257c0-0.606,0.222-1.113,0.665-1.52s0.988-0.61,1.635-0.61c0.653,0,1.202,0.202,1.646,0.605
		s0.665,0.912,0.665,1.525c0,0.62-0.219,1.119-0.655,1.495s-0.988,0.565-1.655,0.565c-0.653,0-1.199-0.19-1.64-0.57
		C272.974,49.367,272.754,48.87,272.754,48.257z M273.895,48.247c0,0.347,0.106,0.628,0.319,0.845
		c0.214,0.217,0.493,0.325,0.84,0.325s0.632-0.11,0.855-0.33c0.224-0.22,0.335-0.5,0.335-0.84c0-0.333-0.108-0.61-0.325-0.83
		c-0.217-0.22-0.505-0.33-0.865-0.33c-0.34,0-0.618,0.112-0.835,0.335C274.002,47.646,273.895,47.921,273.895,48.247z
		 M279.684,54.437h-5.779v-3.39h5.779V54.437z M278.514,53.527v-1.59h-3.439v1.59H278.514z M280.945,48.657h-1.261v1.93h-1.189
		v-4.95h1.189v2.07h1.261V48.657z"/>
</g>
<g>
	<path d="M6.711,68.931c0.165,0.163,0.248,0.359,0.248,0.589c0,0.229-0.082,0.425-0.244,0.588c-0.163,0.162-0.361,0.244-0.596,0.244
		c-0.229,0-0.425-0.082-0.588-0.244c-0.163-0.163-0.244-0.359-0.244-0.588c0-0.229,0.082-0.426,0.244-0.589
		c0.163-0.162,0.359-0.243,0.588-0.243C6.348,68.687,6.545,68.768,6.711,68.931z"/>
	<path d="M16.191,71.983H9.879v-0.513h6.312V71.983z M15.286,66.806c0,1.724-0.104,3.102-0.312,4.137l-0.608-0.08
		c0.197-0.912,0.296-2.097,0.296-3.552h-4.128v-0.505H15.286z"/>
	<path d="M19.982,70.598l0.08,0.513c-0.64,0.128-1.464,0.191-2.472,0.191h-0.6v-2.615h1.952v-1.385h-1.968v-0.504h2.584v2.393h-1.96
		v1.592C18.564,70.783,19.358,70.722,19.982,70.598z M21.374,72.655h-0.592v-3.408h-0.904v-0.504h0.904v-2.552h0.592V72.655z
		 M22.719,73.015h-0.592v-6.991h0.592V73.015z"/>
	<path d="M23.951,69.015c0-0.746,0.159-1.344,0.476-1.792c0.317-0.447,0.758-0.672,1.324-0.672c0.571,0,1.015,0.225,1.332,0.672
		c0.317,0.448,0.476,1.049,0.476,1.801s-0.159,1.352-0.476,1.8s-0.761,0.672-1.332,0.672c-0.565,0-1.007-0.224-1.324-0.672
		C24.109,70.375,23.951,69.772,23.951,69.015z M26.642,70.427c0.227-0.359,0.34-0.828,0.34-1.403c0-0.576-0.113-1.044-0.34-1.404
		s-0.524-0.54-0.892-0.54s-0.664,0.18-0.888,0.54c-0.224,0.36-0.336,0.828-0.336,1.404c0,0.575,0.112,1.044,0.336,1.403
		c0.224,0.36,0.52,0.54,0.888,0.54S26.416,70.787,26.642,70.427z M29.471,73.015h-0.608v-6.991h0.608V73.015z"/>
	<path d="M36.951,72.063h-6.312v-0.513h6.312V72.063z M36.166,70.159h-4.752v-3.512h0.608v1.264h3.536v-1.272h0.608V70.159z
		 M35.558,69.655v-1.248h-3.536v1.248H35.558z"/>
	<path d="M43.87,72.055h-6.312v-0.512h6.312V72.055z M43.638,69.623l-0.336,0.512c-0.565-0.17-1.103-0.462-1.612-0.876
		c-0.509-0.413-0.839-0.807-0.988-1.18c-0.128,0.373-0.443,0.767-0.944,1.18c-0.501,0.414-1.045,0.703-1.632,0.868l-0.32-0.52
		c0.613-0.123,1.199-0.427,1.756-0.912c0.557-0.485,0.836-0.997,0.836-1.536v-0.552h0.632v0.552c0,0.271,0.085,0.548,0.256,0.828
		c0.17,0.279,0.386,0.527,0.648,0.744c0.261,0.216,0.542,0.403,0.844,0.563S43.366,69.564,43.638,69.623z"/>
	<path d="M49.998,69.871H46.87v-3.416h0.608v1.264h1.912v-1.264h0.608V69.871z M49.39,69.375v-1.152h-1.912v1.152H49.39z
		 M51.698,70.735c0.424,0.229,0.636,0.547,0.636,0.952s-0.212,0.723-0.636,0.951c-0.424,0.229-1.02,0.345-1.788,0.345
		c-0.773,0-1.371-0.115-1.792-0.345c-0.421-0.229-0.632-0.546-0.632-0.951s0.21-0.723,0.632-0.952s1.019-0.345,1.792-0.345
		C50.678,70.39,51.274,70.506,51.698,70.735z M51.71,71.687c0-0.24-0.16-0.433-0.48-0.576c-0.32-0.145-0.76-0.216-1.32-0.216
		c-0.555,0-0.993,0.071-1.316,0.216c-0.323,0.144-0.484,0.336-0.484,0.576c0,0.245,0.16,0.439,0.48,0.584
		c0.32,0.144,0.76,0.216,1.32,0.216s1-0.072,1.32-0.216C51.55,72.127,51.71,71.932,51.71,71.687z M52.294,66.023v4.359h-0.608
		v-1.216h-1.264v-0.504h1.264v-0.968h-1.264v-0.504h1.264v-1.168H52.294z"/>
	<path d="M6.711,78.53c0.165,0.163,0.248,0.359,0.248,0.589c0,0.229-0.082,0.425-0.244,0.588c-0.163,0.162-0.361,0.244-0.596,0.244
		c-0.229,0-0.425-0.082-0.588-0.244c-0.163-0.163-0.244-0.359-0.244-0.588c0-0.229,0.082-0.426,0.244-0.589
		c0.163-0.162,0.359-0.243,0.588-0.243C6.348,78.287,6.545,78.368,6.711,78.53z"/>
	<path d="M13.974,77.806H9.847v-0.504h4.128V77.806z M13.558,79.703c0,0.41-0.152,0.753-0.456,1.027
		c-0.304,0.275-0.696,0.412-1.176,0.412s-0.872-0.136-1.176-0.408c-0.304-0.271-0.456-0.615-0.456-1.031s0.152-0.762,0.456-1.036
		c0.304-0.275,0.696-0.412,1.176-0.412s0.872,0.137,1.176,0.412C13.407,78.941,13.558,79.287,13.558,79.703z M12.943,76.623h-2.056
		v-0.521h2.056V76.623z M12.951,79.703c0-0.277-0.096-0.503-0.288-0.677c-0.192-0.173-0.438-0.26-0.736-0.26
		c-0.293,0-0.538,0.088-0.732,0.264c-0.195,0.177-0.292,0.4-0.292,0.673c0,0.271,0.097,0.495,0.292,0.672
		c0.194,0.176,0.438,0.264,0.732,0.264c0.298,0,0.544-0.088,0.736-0.264C12.854,80.198,12.951,79.974,12.951,79.703z M16.39,79.087
		h-1.136v3.527h-0.608v-6.991h0.608v2.951h1.136V79.087z"/>
	<path d="M21.055,80.471l-0.384,0.464c-0.352-0.24-0.696-0.559-1.032-0.956s-0.568-0.79-0.696-1.18
		c-0.123,0.421-0.346,0.836-0.668,1.244s-0.694,0.761-1.116,1.06l-0.4-0.456c0.528-0.33,0.971-0.788,1.328-1.372
		c0.357-0.584,0.536-1.177,0.536-1.779V76.23h0.616v1.24c0,0.613,0.174,1.19,0.524,1.732C20.112,79.744,20.542,80.167,21.055,80.471
		z M22.558,82.614h-0.616v-6.991h0.616V82.614z"/>
	<path d="M30.031,81.726h-6.312v-0.512h2.84v-1.672h-2.08v-3.296h4.776v3.296h-2.088v1.672h2.864V81.726z M28.646,79.039v-2.288
		h-3.56v2.288H28.646z"/>
	<path d="M35.966,78.27H31.99v1.072h4.264v0.504h-2.168v1.368h2.864v0.512h-6.312v-0.512h2.84v-1.368h-2.096v-3.632h4.792v0.512
		H31.99v1.032h3.976V78.27z"/>
	<path d="M39.934,76.07h3.208c-0.048,0.881-0.364,1.609-0.948,2.188s-1.337,0.999-2.26,1.26l-0.312-0.512
		c0.714-0.145,1.344-0.442,1.888-0.896c0.544-0.453,0.861-0.962,0.952-1.527h-2.528V76.07z M45.038,82.518h-4.4v-2.775h0.608v0.871
		h3.184v-0.888h0.608V82.518z M44.43,82.022V81.11h-3.184v0.912H44.43z M46.094,77.822h-1.056v1.528H44.43v-3.728h0.608v1.688h1.056
		V77.822z"/>
	<path d="M50.534,78.847l-0.36,0.488c-0.357-0.177-0.687-0.408-0.988-0.696c-0.302-0.288-0.519-0.6-0.652-0.936
		c-0.106,0.362-0.319,0.709-0.636,1.04c-0.317,0.33-0.687,0.604-1.108,0.823l-0.336-0.472c0.523-0.245,0.945-0.584,1.268-1.016
		c0.323-0.433,0.484-0.915,0.484-1.448v-0.672h0.616v0.647c0,0.518,0.175,0.983,0.524,1.396
		C49.696,78.416,50.092,78.697,50.534,78.847z M51.43,80.287c0.416,0.239,0.624,0.567,0.624,0.983s-0.208,0.743-0.624,0.98
		s-0.992,0.355-1.728,0.355c-0.73,0-1.303-0.118-1.716-0.355c-0.414-0.237-0.62-0.564-0.62-0.98s0.207-0.744,0.62-0.983
		c0.413-0.24,0.985-0.36,1.716-0.36C50.438,79.927,51.014,80.047,51.43,80.287z M49.702,80.431c-0.533,0-0.952,0.073-1.256,0.22
		c-0.304,0.147-0.456,0.354-0.456,0.62s0.152,0.473,0.456,0.616s0.723,0.216,1.256,0.216c0.539,0,0.961-0.072,1.268-0.216
		s0.46-0.35,0.46-0.616s-0.153-0.473-0.46-0.62C50.663,80.504,50.241,80.431,49.702,80.431z M53.022,78.03h-1.064v1.904H51.35
		v-4.312h0.608v1.896h1.064V78.03z"/>
	<path d="M57.59,79.182l-0.344,0.48c-0.363-0.16-0.703-0.396-1.02-0.704c-0.317-0.31-0.548-0.643-0.692-1
		c-0.101,0.362-0.314,0.72-0.64,1.071c-0.325,0.353-0.685,0.627-1.08,0.824l-0.376-0.472c0.496-0.219,0.916-0.554,1.26-1.004
		c0.344-0.451,0.516-0.945,0.516-1.484v-0.872h0.616v0.849c0,0.544,0.177,1.022,0.532,1.436
		C56.717,78.72,57.126,79.012,57.59,79.182z M59.366,82.398h-4.648v-2.136h0.608v1.632h4.04V82.398z M59.214,80.703h-0.608v-2.801
		h-1.488V77.39h1.488v-1.768h0.608V80.703z"/>
	<path d="M62.27,76.03c0.507,0,0.934,0.155,1.28,0.465c0.347,0.309,0.52,0.714,0.52,1.216c0,0.496-0.173,0.896-0.52,1.2
		c-0.347,0.304-0.773,0.455-1.28,0.455c-0.501,0-0.927-0.151-1.276-0.455c-0.349-0.305-0.524-0.702-0.524-1.192
		c0-0.496,0.175-0.901,0.524-1.216S61.768,76.03,62.27,76.03z M62.27,76.551c-0.347,0-0.632,0.106-0.856,0.32
		c-0.224,0.213-0.336,0.493-0.336,0.84s0.112,0.627,0.336,0.84s0.509,0.32,0.856,0.32c0.357,0,0.644-0.105,0.86-0.316
		c0.216-0.211,0.324-0.489,0.324-0.836c0-0.353-0.108-0.635-0.324-0.848C62.914,76.657,62.627,76.551,62.27,76.551z M66.134,82.518
		H61.63V80.03h4.504V82.518z M65.526,82.015v-1.479h-3.288v1.479H65.526z M64.246,77.07v-0.504h1.28v-0.943h0.608v4.023h-0.608
		v-0.943h-1.28v-0.505h1.28V77.07H64.246z"/>
	<path d="M6.711,88.131c0.165,0.163,0.248,0.359,0.248,0.589c0,0.229-0.082,0.425-0.244,0.588c-0.163,0.162-0.361,0.244-0.596,0.244
		c-0.229,0-0.425-0.082-0.588-0.244c-0.163-0.163-0.244-0.359-0.244-0.588c0-0.229,0.082-0.426,0.244-0.589
		c0.163-0.162,0.359-0.243,0.588-0.243C6.348,87.888,6.545,87.969,6.711,88.131z"/>
	<path d="M10.766,89.983h0.4c1.275,0,2.261-0.075,2.96-0.225l0.064,0.505c-0.837,0.159-1.955,0.239-3.352,0.239h-0.688v-4.552h3.32
		v0.512h-2.704V89.983z M15.27,85.223v2.775h1.136v0.513H15.27v3.703h-0.608v-6.991H15.27z"/>
	<path d="M20.31,88.599h-3.264v-3.104h0.608v1.024h2.04v-1.024h0.616V88.599z M19.695,88.096v-1.072h-2.04v1.072H19.695z
		 M22.43,92.167h-4.72v-1.744h3.856v-0.688h-3.864v-0.496h4.472v1.656h-3.856v0.768h4.112V92.167z M23.239,87.304h-1.064v1.535
		h-0.608v-3.615h0.608v1.567h1.064V87.304z"/>
	<path d="M27.694,88.552l-0.36,0.472c-0.357-0.171-0.688-0.401-0.992-0.692c-0.304-0.29-0.52-0.601-0.648-0.932
		c-0.106,0.362-0.313,0.713-0.62,1.052c-0.307,0.339-0.663,0.609-1.068,0.812l-0.376-0.473c0.523-0.239,0.943-0.577,1.26-1.012
		s0.476-0.921,0.476-1.46v-0.696h0.616v0.681c0,0.522,0.175,0.987,0.524,1.396C26.856,88.107,27.252,88.391,27.694,88.552z
		 M28.89,89.919c0.408,0.235,0.612,0.558,0.612,0.969c0,0.41-0.204,0.733-0.612,0.968c-0.408,0.234-0.985,0.352-1.732,0.352
		c-0.742,0-1.316-0.117-1.724-0.352s-0.612-0.558-0.612-0.968c0-0.411,0.204-0.733,0.612-0.969c0.408-0.234,0.982-0.352,1.724-0.352
		C27.905,89.567,28.482,89.684,28.89,89.919z M27.159,90.063c-0.539,0-0.96,0.072-1.264,0.216s-0.456,0.347-0.456,0.608
		c0,0.261,0.152,0.464,0.456,0.607c0.304,0.145,0.725,0.216,1.264,0.216c0.544,0,0.968-0.071,1.272-0.216
		c0.304-0.144,0.456-0.347,0.456-0.607c0-0.262-0.152-0.465-0.456-0.608C28.126,90.136,27.702,90.063,27.159,90.063z M28.823,87.335
		h-1.504v-0.504h1.504v-1.607h0.608v4.344h-0.608V87.335z"/>
	<path d="M36.342,85.767c-0.053,0.863-0.368,1.628-0.944,2.292s-1.333,1.161-2.272,1.492l-0.304-0.521
		c0.72-0.197,1.346-0.556,1.876-1.076c0.531-0.52,0.85-1.076,0.956-1.668h-2.528v-0.52H36.342z M38.51,90.855
		c0,0.41-0.208,0.734-0.624,0.972c-0.416,0.237-1,0.356-1.752,0.356c-0.757,0-1.344-0.119-1.76-0.356s-0.624-0.562-0.624-0.972
		c0-0.411,0.208-0.733,0.624-0.968c0.416-0.235,1.002-0.353,1.76-0.353c0.747,0,1.33,0.119,1.748,0.356
		C38.301,90.129,38.51,90.45,38.51,90.855z M37.426,90.259c-0.307-0.141-0.737-0.212-1.292-0.212s-0.985,0.071-1.292,0.212
		c-0.307,0.142-0.46,0.341-0.46,0.597c0,0.261,0.153,0.464,0.46,0.607c0.307,0.145,0.737,0.217,1.292,0.217s0.985-0.072,1.292-0.217
		c0.307-0.144,0.46-0.347,0.46-0.607C37.887,90.599,37.733,90.4,37.426,90.259z M36.302,88.455v-0.504h1.544v-0.96h-1.432v-0.504
		h1.432v-1.264h0.608v4.416h-0.608v-1.185H36.302z"/>
	<path d="M44.022,90.327l0.04,0.496c-0.704,0.085-1.475,0.154-2.312,0.208c-0.518,0.032-1.216,0.048-2.096,0.048l-0.112-0.527
		c0.581,0.021,1.208,0.019,1.88-0.009v-0.695c-0.405-0.043-0.729-0.167-0.972-0.372s-0.364-0.466-0.364-0.78
		c0-0.362,0.152-0.65,0.456-0.864c0.304-0.213,0.704-0.319,1.2-0.319c0.501,0,0.903,0.106,1.204,0.319
		c0.301,0.214,0.452,0.502,0.452,0.864c0,0.32-0.123,0.581-0.368,0.784c-0.245,0.202-0.576,0.325-0.992,0.368v0.664
		C42.924,90.458,43.585,90.396,44.022,90.327z M43.846,87.151h-4.16v-0.504h4.16V87.151z M42.806,88.695
		c0-0.203-0.098-0.366-0.292-0.492c-0.194-0.125-0.452-0.188-0.772-0.188c-0.314,0-0.572,0.062-0.772,0.188
		c-0.2,0.126-0.3,0.289-0.3,0.492c0,0.197,0.1,0.358,0.3,0.484c0.2,0.125,0.458,0.188,0.772,0.188c0.32,0,0.578-0.062,0.772-0.188
		C42.709,89.054,42.806,88.892,42.806,88.695z M42.734,86.079h-2.008v-0.512h2.008V86.079z M46.174,88.848h-1.12v3.367h-0.616
		v-6.991h0.616v3.104h1.12V88.848z"/>
	<path d="M52.894,89.127h-6.312v-0.512h6.312V89.127z M52.582,87.615l-0.28,0.512c-0.576-0.09-1.103-0.272-1.58-0.548
		c-0.477-0.274-0.807-0.572-0.988-0.892c-0.139,0.325-0.445,0.625-0.92,0.899c-0.475,0.275-1.016,0.458-1.624,0.549l-0.28-0.513
		c0.374-0.037,0.736-0.12,1.088-0.248c0.352-0.128,0.66-0.304,0.924-0.527c0.264-0.225,0.425-0.47,0.484-0.736h-2.248v-0.504h5.16
		v0.504h-2.232c0.09,0.395,0.393,0.732,0.908,1.012C51.509,87.403,52.038,87.567,52.582,87.615z M52.19,90.919
		c0,0.39-0.213,0.691-0.64,0.904s-1.032,0.32-1.816,0.32c-0.779,0-1.38-0.107-1.804-0.32c-0.424-0.213-0.636-0.515-0.636-0.904
		c0-0.384,0.213-0.683,0.64-0.896c0.427-0.214,1.027-0.32,1.8-0.32c0.789,0,1.396,0.104,1.82,0.312
		C51.978,90.223,52.19,90.524,52.19,90.919z M49.734,90.199c-0.571,0-1.018,0.062-1.34,0.188c-0.323,0.125-0.484,0.303-0.484,0.531
		c0,0.235,0.162,0.415,0.484,0.54c0.322,0.126,0.769,0.188,1.34,0.188c0.576,0,1.026-0.062,1.352-0.188
		c0.325-0.125,0.488-0.305,0.488-0.54c0-0.229-0.163-0.406-0.488-0.531C50.761,90.262,50.31,90.199,49.734,90.199z"/>
	<path d="M6.711,97.73c0.165,0.163,0.248,0.359,0.248,0.589c0,0.229-0.082,0.425-0.244,0.588c-0.163,0.162-0.361,0.244-0.596,0.244
		c-0.229,0-0.425-0.082-0.588-0.244c-0.163-0.163-0.244-0.359-0.244-0.588c0-0.229,0.082-0.426,0.244-0.589
		c0.163-0.162,0.359-0.243,0.588-0.243C6.348,97.487,6.545,97.568,6.711,97.73z"/>
	<path d="M12.142,101.824h-0.608v-2.257H9.879v-0.512h6.312v0.512h-1.672v2.257h-0.616v-2.257h-1.76V101.824z M15.622,98.279h-5.008
		v-1.872h4.208v-0.792h-4.192v-0.513h4.8v1.809h-4.208v0.855h4.4V98.279z"/>
	<path d="M20.286,100.055h-3.272v-4.512h3.272V100.055z M19.679,99.551v-3.504h-2.056v3.504H19.679z M23.319,98.151h-1.144v3.664
		h-0.608v-6.992h0.608v2.815h1.144V98.151z"/>
	<path d="M28.062,99.375l0.064,0.504c-0.373,0.069-0.892,0.128-1.556,0.176c-0.664,0.048-1.281,0.072-1.852,0.072H24.11v-4.64h3.256
		v0.504h-2.64v1.464h2.512v0.496h-2.512v1.647c0.539,0.017,1.14,0.002,1.804-0.044C27.194,99.51,27.705,99.449,28.062,99.375z
		 M29.454,101.815h-0.608v-6.992h0.608V101.815z"/>
	<path d="M36.951,100.855h-6.312v-0.512h6.312V100.855z M36.718,98.423l-0.336,0.512c-0.565-0.17-1.103-0.462-1.612-0.876
		c-0.509-0.413-0.839-0.807-0.988-1.18c-0.128,0.373-0.443,0.767-0.944,1.18c-0.501,0.414-1.045,0.703-1.632,0.868l-0.32-0.52
		c0.613-0.123,1.199-0.427,1.756-0.912c0.557-0.485,0.836-0.997,0.836-1.536v-0.552h0.632v0.552c0,0.271,0.085,0.548,0.256,0.828
		c0.17,0.279,0.386,0.527,0.648,0.744c0.261,0.216,0.542,0.403,0.844,0.563S36.446,98.364,36.718,98.423z"/>
	<path d="M44.03,98.814c-0.635,0.097-1.392,0.166-2.272,0.208c-1.28,0.043-1.992,0.064-2.136,0.064l-0.08-0.544
		c0.693,0,1.213-0.005,1.56-0.016v-1.656h0.6v1.64c1.013-0.037,1.768-0.099,2.264-0.184L44.03,98.814z M43.494,95.327
		c0.026,0.954-0.045,1.775-0.216,2.464l-0.592-0.096c0.064-0.229,0.113-0.527,0.148-0.893s0.046-0.687,0.036-0.964h-2.904v-0.512
		H43.494z M45.342,101.647H40.59v-2.041h0.608v1.529h4.144V101.647z M46.11,97.583h-1.048v2.489h-0.608v-5.249h0.608v2.248h1.048
		V97.583z"/>
	<path d="M46.718,95.743V95.23h3.856v0.513h-1.6l0.008,0.239c0.005,0.422,0.181,0.809,0.528,1.16
		c0.347,0.353,0.741,0.601,1.184,0.744l-0.336,0.472c-0.347-0.144-0.682-0.354-1.004-0.632c-0.323-0.277-0.554-0.567-0.692-0.872
		c-0.09,0.315-0.313,0.634-0.668,0.956c-0.354,0.323-0.729,0.569-1.124,0.74l-0.328-0.464c0.475-0.182,0.893-0.47,1.256-0.864
		s0.546-0.811,0.552-1.248v-0.231H46.718z M52.558,101.767h-4.76v-1.76h3.896v-0.705h-3.92v-0.512h4.528v1.688h-3.896v0.776h4.152
		V101.767z M52.294,98.423h-0.608v-1.479h-1.36v-0.505h1.36v-1.615h0.608V98.423z"/>
	<path d="M55.35,95.23c0.507,0,0.934,0.155,1.28,0.465c0.347,0.309,0.52,0.714,0.52,1.216c0,0.496-0.173,0.896-0.52,1.2
		c-0.347,0.304-0.773,0.455-1.28,0.455c-0.501,0-0.927-0.151-1.276-0.455c-0.349-0.305-0.524-0.702-0.524-1.192
		c0-0.496,0.175-0.901,0.524-1.216S54.848,95.23,55.35,95.23z M55.35,95.751c-0.347,0-0.632,0.106-0.856,0.32
		c-0.224,0.213-0.336,0.493-0.336,0.84s0.112,0.627,0.336,0.84s0.509,0.32,0.856,0.32c0.357,0,0.644-0.105,0.86-0.316
		c0.216-0.211,0.324-0.489,0.324-0.836c0-0.353-0.108-0.635-0.324-0.848C55.994,95.857,55.707,95.751,55.35,95.751z M59.214,101.719
		H54.71V99.23h4.504V101.719z M58.606,101.215v-1.48h-3.288v1.48H58.606z M57.326,96.27v-0.504h1.28v-0.943h0.608v4.023h-0.608
		v-0.943h-1.28v-0.505h1.28V96.27H57.326z"/>
	<path d="M6.711,107.331c0.165,0.163,0.248,0.359,0.248,0.589c0,0.229-0.082,0.425-0.244,0.588
		c-0.163,0.162-0.361,0.244-0.596,0.244c-0.229,0-0.425-0.082-0.588-0.244c-0.163-0.163-0.244-0.359-0.244-0.588
		c0-0.229,0.082-0.426,0.244-0.589c0.163-0.162,0.359-0.243,0.588-0.243C6.348,107.088,6.545,107.169,6.711,107.331z"/>
	<path d="M13.326,111.36h-0.608v-2.224h-2.84v-0.513h6.312v0.513h-2.864V111.36z M15.598,107.888h-4.944v-1.88h4.144v-0.784h-4.16
		v-0.512h4.768v1.8h-4.144v0.863h4.336V107.888z"/>
	<path d="M20.246,111.424h-0.608v-2.353h-2.84v-0.512h6.312v0.512h-2.864V111.424z M22.502,107.776h-5.12v-0.512h1.12l-0.2-1.584
		l0.632-0.08l0.144,1.664h1.704l0.216-1.672l0.624,0.08l-0.264,1.592h1.144V107.776z M22.487,105.296h-5.088v-0.513h5.088V105.296z"
		/>
	<path d="M30.031,110.455h-6.312v-0.512h6.312V110.455z M29.798,108.024l-0.336,0.512c-0.565-0.17-1.103-0.462-1.612-0.876
		c-0.509-0.413-0.839-0.807-0.988-1.18c-0.128,0.373-0.443,0.767-0.944,1.18c-0.501,0.414-1.045,0.703-1.632,0.868l-0.32-0.52
		c0.613-0.123,1.199-0.427,1.756-0.912c0.557-0.485,0.836-0.997,0.836-1.536v-0.552h0.632v0.552c0,0.271,0.085,0.548,0.256,0.828
		c0.17,0.279,0.386,0.527,0.648,0.744c0.261,0.216,0.542,0.403,0.844,0.563S29.526,107.965,29.798,108.024z"/>
	<path d="M6.711,116.931c0.165,0.163,0.248,0.359,0.248,0.589c0,0.229-0.082,0.425-0.244,0.588
		c-0.163,0.162-0.361,0.244-0.596,0.244c-0.229,0-0.425-0.082-0.588-0.244c-0.163-0.163-0.244-0.359-0.244-0.588
		c0-0.229,0.082-0.426,0.244-0.589c0.163-0.162,0.359-0.243,0.588-0.243C6.348,116.688,6.545,116.769,6.711,116.931z"/>
	<path d="M13.447,118.919l-0.384,0.448c-0.283-0.197-0.569-0.479-0.86-0.844s-0.481-0.719-0.572-1.061
		c-0.069,0.379-0.242,0.759-0.516,1.141c-0.275,0.381-0.588,0.697-0.94,0.947l-0.408-0.424c0.443-0.282,0.813-0.69,1.112-1.224
		c0.298-0.533,0.448-1.123,0.448-1.769v-0.783H9.934v-0.505h3.336v0.505h-1.344v0.768C11.927,117.33,12.433,118.263,13.447,118.919z
		 M14.39,120.663h-0.6v-3.568h-1.12v-0.504h1.12v-2.399h0.6V120.663z M15.775,121.015h-0.6v-6.991h0.6V121.015z"/>
	<path d="M17.927,120.152v-4.761l-0.992,0.232v-0.368l1.264-0.592h0.336v5.488H17.927z"/>
	<path d="M23.582,115.671h-3.904v-0.488h3.904V115.671z M23.294,117.192c0,0.347-0.152,0.626-0.456,0.84
		c-0.304,0.213-0.69,0.32-1.16,0.32c-0.464,0-0.847-0.105-1.148-0.316c-0.302-0.211-0.452-0.492-0.452-0.844
		c0-0.353,0.15-0.634,0.452-0.845c0.301-0.21,0.684-0.315,1.148-0.315c0.475,0,0.862,0.105,1.164,0.315
		C23.144,116.558,23.294,116.839,23.294,117.192z M22.655,114.679h-2v-0.52h2V114.679z M22.398,117.683
		c0.192-0.119,0.288-0.283,0.288-0.491s-0.096-0.372-0.288-0.492c-0.192-0.12-0.432-0.18-0.72-0.18c-0.283,0-0.52,0.06-0.712,0.18
		c-0.192,0.12-0.288,0.284-0.288,0.492s0.097,0.372,0.292,0.491c0.194,0.12,0.431,0.181,0.708,0.181
		C21.967,117.864,22.206,117.803,22.398,117.683z M24.799,118.911c0.4,0.213,0.6,0.51,0.6,0.888c0,0.379-0.2,0.674-0.6,0.884
		c-0.4,0.211-0.976,0.316-1.728,0.316c-0.747,0-1.317-0.105-1.712-0.316c-0.395-0.21-0.592-0.505-0.592-0.884
		c0-0.384,0.196-0.681,0.588-0.892s0.964-0.316,1.716-0.316C23.823,118.591,24.398,118.699,24.799,118.911z M23.071,119.087
		c-0.523,0-0.932,0.064-1.228,0.192c-0.296,0.128-0.444,0.301-0.444,0.52c0,0.225,0.147,0.397,0.44,0.521
		c0.293,0.122,0.704,0.184,1.232,0.184c0.539,0,0.956-0.062,1.252-0.184c0.296-0.123,0.444-0.296,0.444-0.521
		c0-0.224-0.149-0.398-0.448-0.523C24.02,119.15,23.604,119.087,23.071,119.087z M25.367,118.591h-0.608v-0.943h-1.232v-0.504h1.232
		v-0.801h-1.232v-0.496h1.232v-1.823h0.608V118.591z"/>
	<path d="M29.518,117.223h0.344c1.067,0,2.011-0.077,2.832-0.231l0.064,0.496c-0.912,0.16-2.005,0.24-3.28,0.24H28.91v-3.145h3.152
		v0.512h-2.544V117.223z M34.134,119.656c0,0.399-0.201,0.721-0.604,0.964c-0.402,0.242-0.975,0.364-1.716,0.364
		c-0.741,0-1.312-0.12-1.712-0.36s-0.6-0.562-0.6-0.968c0-0.411,0.2-0.736,0.6-0.977c0.4-0.239,0.971-0.359,1.712-0.359
		c0.736,0,1.307,0.121,1.712,0.363C33.931,118.926,34.134,119.25,34.134,119.656z M33.05,120.259
		c0.301-0.146,0.452-0.348,0.452-0.604s-0.151-0.457-0.452-0.604c-0.301-0.146-0.713-0.22-1.236-0.22
		c-0.522,0-0.933,0.075-1.232,0.224c-0.299,0.149-0.448,0.35-0.448,0.601s0.149,0.45,0.448,0.6s0.709,0.225,1.232,0.225
		C32.337,120.48,32.749,120.407,33.05,120.259z M35.11,116.368h-1.064v1.84h-0.608v-4.184h0.608v1.84h1.064V116.368z"/>
	<path d="M41.91,120.087h-6.312v-0.512h1.72v-1.624h0.608v1.624h1.632v-1.624h0.608v1.624h1.744V120.087z M41.15,117.503h-4.752
		v-2.88h0.608v2.376h4.144V117.503z"/>
</g>
<g>
	<path d="M80.466,69.49c0.165,0.163,0.248,0.359,0.248,0.589c0,0.229-0.082,0.425-0.244,0.588c-0.163,0.162-0.361,0.244-0.596,0.244
		c-0.229,0-0.425-0.082-0.588-0.244c-0.163-0.163-0.244-0.359-0.244-0.588c0-0.229,0.082-0.426,0.244-0.589
		c0.163-0.162,0.359-0.243,0.588-0.243C80.103,69.247,80.301,69.328,80.466,69.49z"/>
	<path d="M84.018,72.679V67.31h0.64v2.328h2.688V67.31h0.632v5.368h-0.632v-2.504h-2.688v2.504H84.018z"/>
	<path d="M89.394,72.679V67.31h0.632v5.368H89.394z"/>
	<path d="M92.85,72.679l-1.944-5.368h0.656l1.608,4.512h0.016l1.6-4.512h0.6l-1.944,5.368H92.85z"/>
	<path d="M80.466,79.09c0.165,0.163,0.248,0.359,0.248,0.589c0,0.229-0.082,0.425-0.244,0.588c-0.163,0.162-0.361,0.244-0.596,0.244
		c-0.229,0-0.425-0.082-0.588-0.244c-0.163-0.163-0.244-0.359-0.244-0.588c0-0.229,0.082-0.426,0.244-0.589
		c0.163-0.162,0.359-0.243,0.588-0.243C80.103,78.847,80.301,78.928,80.466,79.09z"/>
	<path d="M85.666,76.646c0.539,0,0.988,0.162,1.348,0.487c0.36,0.326,0.54,0.744,0.54,1.257c0,0.512-0.179,0.929-0.536,1.252
		c-0.357,0.322-0.805,0.483-1.344,0.483c-0.539,0-0.988-0.16-1.348-0.479c-0.36-0.32-0.54-0.736-0.54-1.248s0.18-0.933,0.54-1.26
		C84.686,76.81,85.133,76.646,85.666,76.646z M85.666,77.174c-0.374,0-0.683,0.115-0.928,0.345c-0.246,0.229-0.368,0.52-0.368,0.872
		c0,0.347,0.124,0.633,0.372,0.859s0.559,0.34,0.932,0.34c0.384,0,0.697-0.111,0.94-0.336c0.243-0.224,0.364-0.509,0.364-0.855
		c0-0.363-0.121-0.657-0.364-0.884C86.371,77.288,86.055,77.174,85.666,77.174z M89.522,82.942h-4.736v-2.16h0.608v1.656h4.128
		V82.942z M89.346,81.286h-0.608v-5.104h0.608V81.286z"/>
	<path d="M96.866,79.87h-6.312v-0.512h6.312V79.87z M96.242,76.958h-5.096v-0.504h5.096V76.958z M96.242,78.838h-5.088v-0.504h1.112
		L92.09,77.31l0.632-0.08l0.12,1.104h1.704l0.144-1.12l0.632,0.08l-0.192,1.04h1.112V78.838z M96.354,83.11h-5.032v-1.624h4.16
		v-0.584h-4.184v-0.496h4.792v1.536h-4.152v0.664h4.416V83.11z"/>
	<path d="M100.922,83.118h-0.608v-2.224h-2.84v-0.513h6.312v0.513h-2.864V83.118z M103.194,79.646H98.25v-1.88h4.144v-0.784h-4.16
		v-0.512h4.768v1.8h-4.144v0.863h4.336V79.646z"/>
	<path d="M108.962,81.174h-0.592v-2.527h-0.704c-0.048,0.448-0.218,0.811-0.508,1.088s-0.657,0.416-1.1,0.416
		c-0.485,0-0.878-0.165-1.18-0.496s-0.452-0.747-0.452-1.248s0.151-0.915,0.452-1.24s0.694-0.487,1.18-0.487
		c0.438,0,0.801,0.135,1.092,0.403c0.291,0.27,0.462,0.623,0.516,1.061h0.704v-1.816h0.592V81.174z M107.074,78.406
		c0-0.352-0.089-0.644-0.268-0.876s-0.428-0.348-0.748-0.348c-0.314,0-0.562,0.115-0.744,0.348
		c-0.182,0.232-0.272,0.524-0.272,0.876c0,0.357,0.09,0.652,0.272,0.884c0.181,0.232,0.429,0.349,0.744,0.349
		c0.32,0,0.569-0.115,0.748-0.345C106.984,79.065,107.074,78.768,107.074,78.406z M110.473,82.95h-4.776v-2.264h0.608v1.752h4.168
		V82.95z M110.29,81.366h-0.608v-5.184h0.608V81.366z"/>
	<path d="M115.458,81.078l-0.368,0.456c-0.363-0.229-0.717-0.544-1.064-0.944c-0.347-0.399-0.579-0.794-0.696-1.184
		c-0.117,0.421-0.333,0.836-0.648,1.244c-0.314,0.408-0.685,0.759-1.112,1.052l-0.4-0.456c0.528-0.314,0.966-0.756,1.316-1.324
		c0.349-0.567,0.524-1.158,0.524-1.771v-0.72h-1.616v-0.513h3.864v0.513h-1.616v0.703c0,0.619,0.173,1.191,0.52,1.717
		S114.94,80.785,115.458,81.078z M117.826,79.534h-1.136v3.64h-0.608v-6.991h0.608v2.84h1.136V79.534z"/>
	<path d="M80.466,88.69c0.165,0.163,0.248,0.359,0.248,0.589c0,0.229-0.082,0.425-0.244,0.588c-0.163,0.162-0.361,0.244-0.596,0.244
		c-0.229,0-0.425-0.082-0.588-0.244c-0.163-0.163-0.244-0.359-0.244-0.588c0-0.229,0.082-0.426,0.244-0.589
		c0.163-0.162,0.359-0.243,0.588-0.243C80.103,88.447,80.301,88.528,80.466,88.69z"/>
	<path d="M89.178,88.839H87.09v0.656h2.856v0.512h-6.312v-0.512h2.848v-0.656h-2.048v-2.744h4.704v0.488h-4.096v0.64h3.976v0.464
		h-3.976v0.672h4.136V88.839z M84.354,90.615h4.768v2.208h-0.608v-1.704h-4.16V90.615z"/>
	<path d="M96.866,91.887h-6.312v-0.512h2.84v-1.792h0.608v1.792h2.864V91.887z M96.618,89.239l-0.336,0.487
		c-0.598-0.17-1.139-0.446-1.624-0.828c-0.485-0.381-0.806-0.771-0.96-1.172c-0.134,0.405-0.443,0.799-0.928,1.181
		c-0.485,0.381-1.032,0.654-1.64,0.819l-0.32-0.487c0.416-0.08,0.818-0.233,1.208-0.46c0.389-0.228,0.716-0.517,0.98-0.868
		c0.264-0.353,0.396-0.721,0.396-1.104v-0.504h0.632v0.504c0,0.288,0.08,0.572,0.24,0.853c0.16,0.279,0.368,0.523,0.624,0.731
		c0.256,0.208,0.535,0.387,0.836,0.536S96.325,89.181,96.618,89.239z"/>
	<path d="M103.786,89.471h-6.312v-0.512h6.312V89.471z M103.162,86.558h-5.096v-0.504h5.096V86.558z M103.162,88.438h-5.088v-0.504
		h1.112l-0.176-1.023l0.632-0.08l0.12,1.104h1.704l0.144-1.12l0.632,0.08l-0.192,1.04h1.112V88.438z M103.274,92.711h-5.032v-1.624
		h4.16v-0.584h-4.184v-0.496h4.792v1.536h-4.152v0.664h4.416V92.711z"/>
	<path d="M108.546,90.358l0.08,0.488c-0.864,0.176-1.992,0.265-3.384,0.265h-0.592v-2.704h2.608v-1.473h-2.624v-0.504h3.232v2.48
		h-2.608v1.688C106.548,90.609,107.644,90.529,108.546,90.358z M109.762,85.783v2.815h1.128v0.513h-1.128v3.663h-0.6v-6.991H109.762
		z"/>
	<path d="M117.634,91.814h-6.32v-0.512h6.32V91.814z M117.386,89.623l-0.328,0.512c-0.555-0.154-1.083-0.423-1.584-0.804
		c-0.501-0.382-0.837-0.767-1.008-1.156c-0.133,0.395-0.454,0.78-0.96,1.156c-0.507,0.376-1.054,0.642-1.64,0.796l-0.296-0.528
		c0.586-0.096,1.164-0.377,1.732-0.844s0.852-0.961,0.852-1.484v-0.168h-2.304v-0.512h5.232v0.512h-2.288v0.168
		c0,0.347,0.145,0.695,0.436,1.044c0.291,0.35,0.632,0.637,1.024,0.86S117.023,89.548,117.386,89.623z"/>
	<path d="M121.722,91.015h-3.272v-4.512h3.272V91.015z M121.114,90.511v-3.504h-2.056v3.504H121.114z M124.754,89.111h-1.144v3.663
		h-0.608v-6.991h0.608v2.815h1.144V89.111z"/>
	<path d="M128.57,89.631h-3.128v-3.416h0.608v1.264h1.912v-1.264h0.608V89.631z M127.961,89.135v-1.152h-1.912v1.152H127.961z
		 M130.269,90.495c0.424,0.229,0.636,0.547,0.636,0.952s-0.212,0.723-0.636,0.951c-0.424,0.229-1.02,0.345-1.788,0.345
		c-0.773,0-1.371-0.115-1.792-0.345c-0.421-0.229-0.632-0.546-0.632-0.951s0.21-0.723,0.632-0.952s1.019-0.345,1.792-0.345
		C129.249,90.15,129.846,90.265,130.269,90.495z M130.282,91.447c0-0.24-0.16-0.433-0.48-0.576c-0.32-0.145-0.76-0.216-1.32-0.216
		c-0.555,0-0.993,0.071-1.316,0.216c-0.323,0.144-0.484,0.336-0.484,0.576c0,0.245,0.16,0.439,0.48,0.584
		c0.32,0.144,0.76,0.216,1.32,0.216c0.56,0,1-0.072,1.32-0.216C130.121,91.887,130.282,91.692,130.282,91.447z M130.866,85.783
		v4.359h-0.608v-1.216h-1.264v-0.504h1.264v-0.968h-1.264v-0.504h1.264v-1.168H130.866z"/>
	<path d="M80.466,98.29c0.165,0.163,0.248,0.359,0.248,0.589c0,0.229-0.082,0.425-0.244,0.588c-0.163,0.162-0.361,0.244-0.596,0.244
		c-0.229,0-0.425-0.082-0.588-0.244c-0.163-0.163-0.244-0.359-0.244-0.588c0-0.229,0.082-0.426,0.244-0.589
		c0.163-0.162,0.359-0.243,0.588-0.243C80.103,98.047,80.301,98.128,80.466,98.29z"/>
	<path d="M87.786,99.958l0.08,0.489c-0.864,0.176-1.992,0.265-3.384,0.265H83.89v-2.705h2.608v-1.473h-2.624V96.03h3.232v2.48
		h-2.608v1.688C85.788,100.209,86.885,100.129,87.786,99.958z M89.002,95.383v2.815h1.128v0.513h-1.128v3.664h-0.6v-6.992H89.002z"
		/>
	<path d="M94.874,100.255l-0.376,0.456c-0.368-0.24-0.729-0.56-1.084-0.957c-0.355-0.397-0.588-0.788-0.7-1.173
		c-0.112,0.422-0.336,0.841-0.672,1.257c-0.336,0.417-0.715,0.76-1.136,1.032l-0.376-0.447c0.539-0.315,0.984-0.754,1.336-1.317
		c0.352-0.562,0.528-1.161,0.528-1.796v-0.72h-1.632v-0.504h3.896v0.504h-1.632v0.712c0,0.618,0.18,1.195,0.54,1.731
		S94.362,99.978,94.874,100.255z M95.682,95.383h0.608v6.992h-0.608V95.383z"/>
	<path d="M103.146,97.726c0,0.533-0.202,0.971-0.604,1.312c-0.403,0.342-0.943,0.534-1.62,0.576v1.329h2.864v0.512h-6.312v-0.512
		h2.84v-1.329c-0.672-0.048-1.208-0.241-1.608-0.58c-0.4-0.338-0.6-0.774-0.6-1.308c0-0.576,0.23-1.037,0.692-1.384
		s1.068-0.521,1.82-0.521c0.762,0,1.375,0.174,1.836,0.521C102.915,96.689,103.146,97.15,103.146,97.726z M102.03,98.746
		c0.355-0.253,0.532-0.59,0.532-1.012c0-0.421-0.176-0.76-0.528-1.016c-0.352-0.256-0.824-0.385-1.416-0.385
		c-0.582,0-1.047,0.129-1.396,0.385c-0.349,0.256-0.524,0.595-0.524,1.016c0,0.422,0.175,0.759,0.524,1.012
		c0.35,0.254,0.815,0.38,1.396,0.38C101.204,99.126,101.675,99,102.03,98.746z"/>
	<path d="M107.634,97.918l0.072,0.513c-0.688,0.16-1.52,0.24-2.496,0.24h-0.44v-2.904h0.608v2.376
		c0.347,0.005,0.747-0.015,1.2-0.061C107.031,98.037,107.383,97.982,107.634,97.918z M110.546,102.327h-4.84v-1.72h3.96v-0.745
		h-4.008V99.35h4.624v1.72h-3.968v0.744h4.232V102.327z M108.369,97.118h-1.528v-0.504h1.528v-1.104h0.584v3.407h-0.584V97.118z
		 M110.29,98.982h-0.608v-3.6h0.608V98.982z"/>
	<path d="M115.466,99.958l0.08,0.489c-0.864,0.176-1.992,0.265-3.384,0.265h-0.592v-2.705h2.608v-1.473h-2.624V96.03h3.232v2.48
		h-2.608v1.688C113.468,100.209,114.564,100.129,115.466,99.958z M116.681,95.383v2.815h1.128v0.513h-1.128v3.664h-0.6v-6.992
		H116.681z"/>
	<path d="M80.466,107.891c0.165,0.163,0.248,0.359,0.248,0.589c0,0.229-0.082,0.425-0.244,0.588
		c-0.163,0.162-0.361,0.244-0.596,0.244c-0.229,0-0.425-0.082-0.588-0.244c-0.163-0.163-0.244-0.359-0.244-0.588
		c0-0.229,0.082-0.426,0.244-0.589c0.163-0.162,0.359-0.243,0.588-0.243C80.103,107.648,80.301,107.729,80.466,107.891z"/>
	<path d="M87.202,108.28h-3.32v-2.856h3.32V108.28z M86.594,107.776v-1.849H84.49v1.849H86.594z M89.266,111.927h-4.712v-1.775
		h3.848v-0.704h-3.848v-0.504h4.456v1.68h-3.848v0.8h4.104V111.927z M90.074,107.047H89.01v1.512h-0.608v-3.575h0.608v1.552h1.064
		V107.047z"/>
	<path d="M94.706,109.559l0.08,0.488c-0.864,0.176-1.992,0.265-3.384,0.265H90.81v-2.704h2.608v-1.473h-2.624v-0.504h3.232v2.48
		h-2.608v1.688C92.708,109.81,93.805,109.73,94.706,109.559z M95.922,104.984v2.815h1.128v0.513h-1.128v3.663h-0.6v-6.991H95.922z"
		/>
	<path d="M101.97,109.568l0.056,0.504c-1.008,0.154-2.163,0.231-3.464,0.231H97.85v-2.695h2.648v-1.473h-2.68v-0.504h3.296v2.48
		h-2.656v1.672h0.168C100.05,109.784,101.164,109.711,101.97,109.568z M102.61,104.984h0.608v6.991h-0.608V104.984z"/>
	<path d="M104.49,107.975c0-0.746,0.159-1.344,0.476-1.792c0.317-0.447,0.756-0.672,1.316-0.672s0.998,0.225,1.312,0.672
		c0.315,0.448,0.472,1.049,0.472,1.801s-0.157,1.352-0.472,1.8c-0.314,0.448-0.752,0.672-1.312,0.672s-0.999-0.226-1.316-0.676
		C104.648,109.328,104.49,108.727,104.49,107.975z M107.473,107.984c0-0.582-0.108-1.051-0.324-1.408s-0.505-0.536-0.868-0.536
		s-0.653,0.179-0.872,0.536s-0.328,0.826-0.328,1.408c0,0.575,0.109,1.044,0.328,1.403c0.219,0.36,0.509,0.54,0.872,0.54
		s0.652-0.18,0.868-0.54C107.366,109.028,107.473,108.559,107.473,107.984z M110.914,108.312h-1.144v3.663h-0.608v-6.991h0.608
		v2.815h1.144V108.312z"/>
	<path d="M80.466,117.491c0.165,0.163,0.248,0.359,0.248,0.589c0,0.229-0.082,0.425-0.244,0.588
		c-0.163,0.162-0.361,0.244-0.596,0.244c-0.229,0-0.425-0.082-0.588-0.244c-0.163-0.163-0.244-0.359-0.244-0.588
		c0-0.229,0.082-0.426,0.244-0.589c0.163-0.162,0.359-0.243,0.588-0.243C80.103,117.247,80.301,117.328,80.466,117.491z"/>
	<path d="M87.954,119.455l-0.376,0.456c-0.368-0.24-0.729-0.56-1.084-0.956c-0.355-0.397-0.588-0.788-0.7-1.173
		c-0.112,0.422-0.336,0.841-0.672,1.257s-0.715,0.76-1.136,1.031l-0.376-0.447c0.539-0.315,0.984-0.754,1.336-1.316
		c0.352-0.562,0.528-1.161,0.528-1.796v-0.72h-1.632v-0.504h3.896v0.504h-1.632v0.712c0,0.618,0.18,1.195,0.54,1.731
		S87.442,119.178,87.954,119.455z M88.762,114.583h0.608v6.991h-0.608V114.583z"/>
	<path d="M94.194,115.303c-0.021,1.216-0.307,2.226-0.856,3.028s-1.328,1.446-2.336,1.932l-0.376-0.456
		c1.2-0.518,2.042-1.291,2.528-2.32l-2.36,0.208l-0.128-0.552l2.68-0.16c0.117-0.378,0.187-0.771,0.208-1.176h-2.592v-0.504H94.194z
		 M95.93,114.583v2.863h1.144v0.521H95.93v3.607h-0.608v-6.991H95.93z"/>
</g>
<g>
	<path d="M154.957,69.49c0.165,0.163,0.248,0.359,0.248,0.589c0,0.229-0.081,0.425-0.244,0.588
		c-0.162,0.162-0.361,0.244-0.596,0.244c-0.229,0-0.426-0.082-0.588-0.244c-0.163-0.163-0.244-0.359-0.244-0.588
		c0-0.229,0.081-0.426,0.244-0.589c0.162-0.162,0.358-0.243,0.588-0.243S154.792,69.328,154.957,69.49z"/>
	<path d="M159.774,67.19c0.469,0,0.836,0.196,1.1,0.588c0.264,0.393,0.409,0.916,0.436,1.572h0.753v-2.632h0.592v6.52h-0.592v-3.384
		h-0.753c-0.031,0.651-0.179,1.167-0.439,1.548c-0.262,0.382-0.627,0.572-1.096,0.572c-0.496,0-0.876-0.217-1.141-0.652
		c-0.264-0.435-0.396-1.015-0.396-1.739c0-0.726,0.132-1.306,0.396-1.74C158.898,67.408,159.278,67.19,159.774,67.19z
		 M160.453,70.934c0.171-0.336,0.256-0.786,0.256-1.352s-0.085-1.017-0.256-1.353s-0.397-0.504-0.68-0.504
		c-0.277,0-0.5,0.168-0.668,0.504s-0.252,0.787-0.252,1.353s0.082,1.016,0.247,1.352c0.166,0.336,0.39,0.504,0.673,0.504
		C160.056,71.438,160.283,71.27,160.453,70.934z M164.022,73.574h-0.601v-6.991h0.601V73.574z"/>
	<path d="M170.526,69.182h-2.032v0.576h2.864v0.496h-6.312v-0.496h2.84v-0.576h-2.008v-2.408h0.608v0.712h3.432v-0.712h0.608V69.182
		z M170.805,73.471h-4.943v-1.576h4.071V71.31h-4.111v-0.496h4.72v1.528h-4.072v0.624h4.336V73.471z M169.917,68.686v-0.704h-3.432
		v0.704H169.917z"/>
	<path d="M176.118,71.158l0.08,0.488c-0.864,0.176-1.992,0.265-3.385,0.265h-0.592v-2.704h2.608v-1.473h-2.624V67.23h3.231v2.48
		h-2.607v1.688C174.119,71.409,175.216,71.329,176.118,71.158z M177.333,66.583v2.815h1.128v0.513h-1.128v3.663h-0.601v-6.991
		H177.333z"/>
	<path d="M154.957,79.09c0.165,0.163,0.248,0.359,0.248,0.589c0,0.229-0.081,0.425-0.244,0.588
		c-0.162,0.162-0.361,0.244-0.596,0.244c-0.229,0-0.426-0.082-0.588-0.244c-0.163-0.163-0.244-0.359-0.244-0.588
		c0-0.229,0.081-0.426,0.244-0.589c0.162-0.162,0.358-0.243,0.588-0.243S154.792,78.928,154.957,79.09z"/>
	<path d="M161.11,81.334h-2.776V76.95h2.776v1.84h0.983V76.35h0.592v6.472h-0.592v-3.52h-0.983V81.334z M160.517,80.83v-3.376
		h-1.592v3.376H160.517z M164.022,83.174h-0.601v-6.991h0.601V83.174z"/>
	<path d="M171.358,82.223h-6.312V81.71h6.312V82.223z M170.749,80.534h-4.912v-2.192h4.12v-1.096h-4.145v-0.512h4.753v2.112h-4.12
		v1.176h4.304V80.534z"/>
	<path d="M178.278,82.214h-6.312v-0.512h6.312V82.214z M178.045,79.782l-0.336,0.512c-0.565-0.17-1.103-0.462-1.612-0.876
		c-0.509-0.413-0.839-0.807-0.987-1.18c-0.129,0.373-0.443,0.767-0.944,1.18c-0.502,0.414-1.046,0.703-1.632,0.868l-0.32-0.52
		c0.613-0.123,1.198-0.427,1.756-0.912s0.836-0.997,0.836-1.536v-0.552h0.632v0.552c0,0.271,0.086,0.548,0.257,0.828
		c0.17,0.279,0.386,0.527,0.647,0.744c0.262,0.216,0.543,0.403,0.844,0.563C177.487,79.614,177.773,79.723,178.045,79.782z"/>
	<path d="M154.957,88.69c0.165,0.163,0.248,0.359,0.248,0.589c0,0.229-0.081,0.425-0.244,0.588
		c-0.162,0.162-0.361,0.244-0.596,0.244c-0.229,0-0.426-0.082-0.588-0.244c-0.163-0.163-0.244-0.359-0.244-0.588
		c0-0.229,0.081-0.426,0.244-0.589c0.162-0.162,0.358-0.243,0.588-0.243S154.792,88.528,154.957,88.69z"/>
	<path d="M158.509,91.879v-5.368h1.641c1.157,0,1.735,0.451,1.735,1.353c0,0.603-0.299,0.991-0.896,1.168v0.04
		c0.757,0.122,1.136,0.555,1.136,1.296c0,0.458-0.156,0.825-0.468,1.1c-0.312,0.274-0.762,0.412-1.349,0.412H158.509z
		 M159.141,88.854h0.921c0.783,0,1.176-0.307,1.176-0.92c0-0.325-0.092-0.555-0.276-0.688c-0.184-0.134-0.471-0.2-0.86-0.2h-0.96
		V88.854z M159.141,91.35h1.129c0.789,0,1.184-0.341,1.184-1.023c0-0.646-0.416-0.969-1.248-0.969h-1.064V91.35z"/>
	<path d="M166.742,87.431h-3.904v-0.488h3.904V87.431z M166.453,88.951c0,0.347-0.152,0.626-0.456,0.84
		c-0.304,0.213-0.69,0.32-1.16,0.32c-0.464,0-0.847-0.105-1.147-0.316c-0.302-0.211-0.452-0.492-0.452-0.844
		c0-0.353,0.15-0.634,0.452-0.845c0.301-0.21,0.684-0.315,1.147-0.315c0.475,0,0.862,0.105,1.164,0.315
		C166.303,88.317,166.453,88.598,166.453,88.951z M165.814,86.438h-2v-0.52h2V86.438z M165.557,89.442
		c0.192-0.119,0.288-0.283,0.288-0.491s-0.096-0.372-0.288-0.492c-0.191-0.12-0.432-0.18-0.72-0.18c-0.282,0-0.52,0.06-0.712,0.18
		s-0.288,0.284-0.288,0.492s0.098,0.372,0.292,0.491c0.194,0.12,0.431,0.181,0.708,0.181
		C165.125,89.623,165.366,89.562,165.557,89.442z M167.957,90.671c0.4,0.213,0.6,0.51,0.6,0.888c0,0.379-0.199,0.674-0.6,0.884
		c-0.4,0.211-0.976,0.316-1.728,0.316c-0.747,0-1.317-0.105-1.713-0.316c-0.395-0.21-0.592-0.505-0.592-0.884
		c0-0.384,0.196-0.681,0.588-0.892c0.393-0.211,0.964-0.316,1.717-0.316C166.982,90.35,167.557,90.458,167.957,90.671z
		 M166.23,90.847c-0.523,0-0.933,0.064-1.229,0.192s-0.444,0.301-0.444,0.52c0,0.225,0.147,0.397,0.44,0.521
		c0.293,0.122,0.704,0.184,1.232,0.184c0.538,0,0.955-0.062,1.252-0.184c0.296-0.123,0.443-0.296,0.443-0.521
		c0-0.224-0.149-0.398-0.448-0.523C167.179,90.909,166.763,90.847,166.23,90.847z M168.526,90.35h-0.608v-0.943h-1.232v-0.504h1.232
		v-0.801h-1.232v-0.496h1.232v-1.823h0.608V90.35z"/>
	<path d="M169.973,86.398h3.185c-0.038,0.923-0.343,1.715-0.916,2.376c-0.573,0.662-1.321,1.14-2.244,1.433l-0.312-0.512
		c0.752-0.192,1.387-0.543,1.904-1.053c0.518-0.509,0.818-1.086,0.904-1.731h-2.521V86.398z M175.326,92.598h-4.616v-2.16h0.608
		v1.656h4.008V92.598z M176.173,88.487h-1.063v2.527h-0.608v-5.231h0.608v2.191h1.063V88.487z"/>
	<path d="M178.501,86.19c0.507,0,0.934,0.155,1.28,0.465c0.347,0.309,0.52,0.714,0.52,1.216c0,0.496-0.173,0.896-0.52,1.2
		c-0.347,0.304-0.773,0.455-1.28,0.455c-0.502,0-0.927-0.151-1.276-0.455c-0.349-0.305-0.523-0.702-0.523-1.192
		c0-0.496,0.175-0.901,0.523-1.216C177.575,86.348,177.999,86.19,178.501,86.19z M178.501,86.711c-0.347,0-0.632,0.106-0.856,0.32
		c-0.224,0.213-0.336,0.493-0.336,0.84s0.112,0.627,0.336,0.84c0.225,0.213,0.51,0.32,0.856,0.32c0.357,0,0.644-0.105,0.86-0.316
		c0.216-0.211,0.323-0.489,0.323-0.836c0-0.353-0.107-0.635-0.323-0.848C179.145,86.817,178.859,86.711,178.501,86.711z
		 M182.366,92.679h-4.504V90.19h4.504V92.679z M181.757,92.175v-1.479h-3.288v1.479H181.757z M180.477,87.23v-0.504h1.28v-0.943
		h0.608v4.023h-0.608v-0.943h-1.28v-0.505h1.28V87.23H180.477z"/>
	<path d="M154.957,98.29c0.165,0.163,0.248,0.359,0.248,0.589c0,0.229-0.081,0.425-0.244,0.588
		c-0.162,0.162-0.361,0.244-0.596,0.244c-0.229,0-0.426-0.082-0.588-0.244c-0.163-0.163-0.244-0.359-0.244-0.588
		c0-0.229,0.081-0.426,0.244-0.589c0.162-0.162,0.358-0.243,0.588-0.243S154.792,98.128,154.957,98.29z"/>
	<path d="M161.701,95.766c-0.069,0.88-0.388,1.61-0.956,2.191c-0.568,0.582-1.311,1.006-2.229,1.272l-0.304-0.496
		c0.763-0.192,1.39-0.505,1.88-0.939c0.491-0.436,0.795-0.94,0.912-1.517h-2.496v-0.512H161.701z M164.101,102.334h-4.783v-1.76
		h3.912v-0.768h-3.937v-0.48h4.544v1.689h-3.912v0.84h4.176V102.334z M161.774,96.894v-0.48h1.456v-1.031h0.607v3.56h-0.607V98.19
		h-1.545v-0.488h1.545v-0.808H161.774z"/>
	<path d="M168.566,97.11h-3.553v-0.496h3.553V97.11z M167.845,97.694c0.272,0.192,0.408,0.453,0.408,0.784s-0.136,0.594-0.408,0.788
		c-0.271,0.194-0.618,0.292-1.04,0.292c-0.427,0-0.775-0.098-1.048-0.292c-0.271-0.194-0.408-0.457-0.408-0.788
		s0.137-0.592,0.408-0.784c0.272-0.191,0.621-0.288,1.048-0.288C167.227,97.406,167.574,97.503,167.845,97.694z M167.694,96.118
		h-1.792v-0.512h1.792V96.118z M167.677,98.478c0-0.176-0.083-0.317-0.248-0.424s-0.373-0.16-0.624-0.16
		c-0.256,0-0.465,0.052-0.628,0.156c-0.162,0.104-0.244,0.246-0.244,0.428s0.082,0.325,0.244,0.432
		c0.163,0.107,0.372,0.16,0.628,0.16c0.251,0,0.459-0.053,0.624-0.16C167.594,98.804,167.677,98.66,167.677,98.478z
		 M170.942,102.374h-0.616v-1.823h-4.08v-0.496h4.696V102.374z M170.942,99.702h-0.608v-1.808h-0.848v1.736h-0.593v-4.12h0.593v1.88
		h0.848v-2.008h0.608V99.702z"/>
	<path d="M154.957,107.891c0.165,0.163,0.248,0.359,0.248,0.589c0,0.229-0.081,0.425-0.244,0.588
		c-0.162,0.162-0.361,0.244-0.596,0.244c-0.229,0-0.426-0.082-0.588-0.244c-0.163-0.163-0.244-0.359-0.244-0.588
		c0-0.229,0.081-0.426,0.244-0.589c0.162-0.162,0.358-0.243,0.588-0.243S154.792,107.729,154.957,107.891z"/>
	<path d="M162.293,109.375l0.088,0.512c-0.405,0.097-0.964,0.174-1.676,0.232s-1.354,0.088-1.924,0.088h-0.424v-4.528h0.607v3.992
		C160.41,109.66,161.52,109.562,162.293,109.375z M163.493,104.984v2.775h1.144v0.521h-1.144v3.695h-0.608v-6.991H163.493z"/>
	<path d="M168.461,108.831h-3.128v-3.416h0.608v1.264h1.911v-1.264h0.608V108.831z M167.853,108.335v-1.152h-1.911v1.152H167.853z
		 M170.161,109.696c0.424,0.229,0.636,0.547,0.636,0.952s-0.212,0.723-0.636,0.951c-0.424,0.229-1.021,0.345-1.788,0.345
		c-0.773,0-1.371-0.115-1.792-0.345c-0.422-0.229-0.632-0.546-0.632-0.951s0.21-0.723,0.632-0.952
		c0.421-0.229,1.019-0.345,1.792-0.345C169.141,109.351,169.738,109.466,170.161,109.696z M170.173,110.648
		c0-0.24-0.16-0.433-0.479-0.576c-0.32-0.145-0.761-0.216-1.32-0.216c-0.555,0-0.993,0.071-1.316,0.216
		c-0.322,0.144-0.483,0.336-0.483,0.576c0,0.245,0.16,0.439,0.479,0.584c0.32,0.144,0.76,0.216,1.32,0.216
		c0.56,0,1-0.072,1.32-0.216C170.013,111.087,170.173,110.893,170.173,110.648z M170.757,104.984v4.359h-0.607v-1.216h-1.265v-0.504
		h1.265v-0.968h-1.265v-0.504h1.265v-1.168H170.757z"/>
	<path d="M154.957,117.491c0.165,0.163,0.248,0.359,0.248,0.589c0,0.229-0.081,0.425-0.244,0.588
		c-0.162,0.162-0.361,0.244-0.596,0.244c-0.229,0-0.426-0.082-0.588-0.244c-0.163-0.163-0.244-0.359-0.244-0.588
		c0-0.229,0.081-0.426,0.244-0.589c0.162-0.162,0.358-0.243,0.588-0.243S154.792,117.328,154.957,117.491z"/>
	<path d="M161.173,115.079c-0.016,1.786-0.869,3.045-2.56,3.775l-0.4-0.464c0.907-0.32,1.558-0.843,1.952-1.568l-1.848,0.208
		l-0.128-0.535l2.199-0.169c0.075-0.25,0.12-0.495,0.137-0.735h-1.992v-0.512H161.173z M164.022,121.479h-4.584v-2.472h4.584
		V121.479z M163.413,120.975v-1.464h-3.376v1.464H163.413z M164.022,118.623h-0.608v-1.696h-0.888v1.6h-0.584v-3.784h0.584v1.681
		h0.888v-1.84h0.608V118.623z"/>
	<path d="M169.469,117.335l0.057,0.472c-0.374,0.059-1.075,0.12-2.104,0.184c-0.821,0.043-1.549,0.064-2.184,0.064l-0.088-0.521
		c0.432,0,0.754-0.002,0.968-0.008l-0.176-1.584l0.615-0.071l0.112,1.647c0.213-0.005,0.509-0.019,0.888-0.04
		c0.08,0,0.142-0.003,0.185-0.008l0.12-1.616l0.6,0.072l-0.176,1.52C168.792,117.42,169.187,117.383,169.469,117.335z
		 M169.141,115.535h-3.8v-0.495h3.8V115.535z M171.021,121.527h-4.735v-1.735h3.872v-0.688h-3.896v-0.496h4.504v1.648h-3.872v0.768
		h4.128V121.527z M170.757,118.263h-0.607v-3.68h0.607V118.263z"/>
	<path d="M178.278,120.687h-6.312v-0.512h2.84v-1.192h-2.063v-2.184h4.144v-1.12h-4.152v-0.512h4.761v2.136h-4.145v1.168h4.345
		v0.512h-2.28v1.192h2.864V120.687z"/>
	<path d="M182.397,118.319h-3.279v-3.304h0.607v1.136h2.057v-1.136h0.615V118.319z M181.782,117.815v-1.16h-2.057v1.16H181.782z
		 M184.261,121.575h-0.616v-1.928h-3.896v-0.504h4.512V121.575z M185.326,116.943h-1.064v1.832h-0.608v-4.191h0.608v1.848h1.064
		V116.943z"/>
	<path d="M186.653,119.431h0.152c1.312,0,2.333-0.08,3.064-0.24l0.071,0.513c-0.88,0.165-1.938,0.247-3.176,0.247h-0.72v-4.735
		h3.312v0.504h-2.704v1.448h2.425v0.496h-2.425V119.431z M191.525,121.575h-0.607v-3.792h-1.384v-0.52h1.384v-2.68h0.607V121.575z"
		/>
	<path d="M154.957,127.09c0.165,0.163,0.248,0.359,0.248,0.589c0,0.229-0.081,0.425-0.244,0.588
		c-0.162,0.162-0.361,0.244-0.596,0.244c-0.229,0-0.426-0.082-0.588-0.244c-0.163-0.163-0.244-0.359-0.244-0.588
		c0-0.229,0.081-0.426,0.244-0.589c0.162-0.162,0.358-0.243,0.588-0.243S154.792,126.928,154.957,127.09z"/>
	<path d="M161.574,131.174h-0.608v-2.504h-2.84v-0.512h6.312v0.512h-2.864V131.174z M164.141,126.998l-0.287,0.513
		c-0.565-0.097-1.097-0.298-1.593-0.604s-0.823-0.625-0.983-0.956c-0.145,0.336-0.462,0.659-0.952,0.968
		c-0.491,0.31-1.027,0.513-1.608,0.608l-0.279-0.512c0.618-0.064,1.19-0.271,1.716-0.62c0.525-0.35,0.796-0.754,0.812-1.212h-2.264
		v-0.504h5.152v0.504h-2.248c0.01,0.309,0.154,0.6,0.432,0.872c0.277,0.271,0.604,0.486,0.979,0.644
		S163.768,126.956,164.141,126.998z"/>
	<path d="M168.933,125.71h-3.88v-0.496h3.88V125.71z M168.645,127.038c0,0.336-0.147,0.598-0.443,0.784
		c-0.296,0.187-0.687,0.28-1.172,0.28c-0.47,0-0.856-0.094-1.16-0.28c-0.304-0.187-0.456-0.448-0.456-0.784
		c0-0.325,0.15-0.581,0.452-0.768c0.301-0.187,0.689-0.28,1.164-0.28c0.469,0,0.855,0.094,1.16,0.28
		C168.493,126.457,168.645,126.713,168.645,127.038z M167.749,127.466c0.197-0.104,0.296-0.246,0.296-0.428
		c0-0.181-0.099-0.321-0.296-0.42s-0.438-0.147-0.72-0.147c-0.288,0-0.528,0.049-0.721,0.147c-0.191,0.099-0.288,0.239-0.288,0.42
		c0,0.182,0.098,0.324,0.292,0.428c0.195,0.104,0.434,0.156,0.717,0.156C167.312,127.622,167.552,127.571,167.749,127.466z
		 M166.053,124.775v-0.504h2.008v0.504H166.053z M170.997,131.134h-4.712v-1.584h3.872v-0.552h-3.896v-0.479h4.504v1.504h-3.872
		v0.632h4.104V131.134z M169.005,126.271v-0.488h1.145v-1.6h0.607v3.936h-0.607v-0.647h-1.145v-0.48h1.145v-0.72H169.005z"/>
	<path d="M178.278,128.462h-6.312v-0.496h6.312V128.462z M177.95,125.527h-5.641v-0.488h5.641V125.527z M177.437,131.103h-4.64
		v-2.296h0.608v0.632h3.424v-0.632h0.607V131.103z M177.278,126.67c0,0.305-0.186,0.534-0.557,0.688
		c-0.37,0.154-0.902,0.231-1.596,0.231c-1.435,0-2.152-0.307-2.152-0.92c0-0.298,0.186-0.525,0.557-0.68
		c0.37-0.154,0.902-0.232,1.596-0.232s1.226,0.078,1.596,0.232C177.092,126.145,177.278,126.372,177.278,126.67z M176.829,130.615
		v-0.688h-3.424v0.688H176.829z M176.629,126.67c0-0.298-0.501-0.447-1.504-0.447c-1.008,0-1.512,0.149-1.512,0.447
		c0,0.305,0.504,0.456,1.512,0.456C176.128,127.126,176.629,126.975,176.629,126.67z M176.349,124.679h-2.408v-0.496h2.408V124.679z
		"/>
	<path d="M184.493,130.006c0,0.385-0.211,0.681-0.633,0.889c-0.421,0.208-1.029,0.312-1.823,0.312c-0.784,0-1.387-0.105-1.809-0.315
		c-0.421-0.211-0.632-0.506-0.632-0.885c0-0.352,0.183-0.632,0.548-0.84s0.895-0.328,1.588-0.359v-0.624h-2.848v-0.504h6.312v0.504
		h-2.856v0.624c0.698,0.026,1.232,0.143,1.6,0.348C184.309,129.36,184.493,129.644,184.493,130.006z M184.861,126.767l-0.271,0.512
		c-0.581-0.08-1.106-0.218-1.576-0.412s-0.795-0.452-0.976-0.771c-0.166,0.33-0.48,0.595-0.944,0.792s-0.995,0.327-1.592,0.392
		l-0.265-0.496c0.561-0.032,1.075-0.138,1.545-0.316c0.469-0.178,0.768-0.422,0.896-0.731h-2.128v-0.504h4.976v0.504h-2.119
		c0.138,0.304,0.446,0.543,0.924,0.716C183.806,126.624,184.317,126.73,184.861,126.767z M182.037,129.311
		c-0.565,0-1.011,0.062-1.336,0.184c-0.326,0.123-0.488,0.294-0.488,0.512c0,0.219,0.161,0.387,0.484,0.505
		c0.322,0.117,0.769,0.176,1.34,0.176c0.576,0,1.026-0.059,1.352-0.176c0.325-0.118,0.488-0.286,0.488-0.505
		c0-0.218-0.164-0.389-0.492-0.512C183.057,129.372,182.608,129.311,182.037,129.311z M183.149,124.695h-2.208v-0.504h2.208V124.695
		z"/>
	<path d="M192.118,128.086h-6.312v-0.512h6.312V128.086z M191.805,126.575l-0.28,0.512c-0.575-0.09-1.103-0.272-1.58-0.548
		c-0.477-0.274-0.807-0.572-0.987-0.892c-0.139,0.325-0.445,0.625-0.92,0.899c-0.476,0.275-1.017,0.458-1.624,0.549l-0.28-0.513
		c0.373-0.037,0.736-0.12,1.088-0.248s0.66-0.304,0.924-0.527c0.265-0.225,0.426-0.47,0.484-0.736h-2.248v-0.504h5.16v0.504h-2.232
		c0.091,0.395,0.394,0.732,0.908,1.012C190.732,126.363,191.261,126.527,191.805,126.575z M191.413,129.878
		c0,0.39-0.214,0.691-0.641,0.904s-1.031,0.32-1.815,0.32c-0.779,0-1.38-0.107-1.805-0.32c-0.424-0.213-0.636-0.515-0.636-0.904
		c0-0.384,0.214-0.683,0.64-0.896c0.427-0.214,1.027-0.32,1.801-0.32c0.789,0,1.396,0.104,1.819,0.312
		C191.201,129.183,191.413,129.484,191.413,129.878z M188.957,129.159c-0.571,0-1.018,0.062-1.34,0.188
		c-0.323,0.125-0.484,0.303-0.484,0.531c0,0.235,0.161,0.415,0.484,0.54c0.322,0.126,0.769,0.188,1.34,0.188
		c0.576,0,1.026-0.062,1.352-0.188c0.325-0.125,0.488-0.305,0.488-0.54c0-0.229-0.163-0.406-0.488-0.531
		C189.984,129.221,189.534,129.159,188.957,129.159z"/>
	<path d="M154.957,136.691c0.165,0.163,0.248,0.359,0.248,0.589c0,0.229-0.081,0.425-0.244,0.588
		c-0.162,0.162-0.361,0.244-0.596,0.244c-0.229,0-0.426-0.082-0.588-0.244c-0.163-0.163-0.244-0.359-0.244-0.588
		c0-0.229,0.081-0.426,0.244-0.589c0.162-0.162,0.358-0.243,0.588-0.243S154.792,136.529,154.957,136.691z"/>
	<path d="M158.221,136.775c0-0.746,0.159-1.344,0.477-1.792c0.317-0.447,0.756-0.672,1.315-0.672c0.561,0,0.998,0.225,1.312,0.672
		c0.314,0.448,0.472,1.049,0.472,1.801s-0.157,1.352-0.472,1.8s-0.752,0.672-1.312,0.672c-0.56,0-0.998-0.226-1.315-0.676
		C158.38,138.128,158.221,137.527,158.221,136.775z M161.205,136.784c0-0.582-0.108-1.051-0.324-1.408s-0.505-0.536-0.868-0.536
		c-0.362,0-0.653,0.179-0.872,0.536s-0.327,0.826-0.327,1.408c0,0.575,0.108,1.044,0.327,1.403c0.219,0.36,0.51,0.54,0.872,0.54
		c0.363,0,0.652-0.18,0.868-0.54C161.097,137.827,161.205,137.359,161.205,136.784z M164.646,137.112h-1.145v3.663h-0.608v-6.991
		h0.608v2.815h1.145V137.112z"/>
	<path d="M168.03,138.935h-2.776v-4.384h2.776v1.84h0.983v-2.439h0.592v6.472h-0.592v-3.52h-0.983V138.935z M167.437,138.431v-3.376
		h-1.592v3.376H167.437z M170.942,140.775h-0.601v-6.991h0.601V140.775z"/>
	<path d="M175.486,139.039h-3.288v-4.664h0.607v1.775h2.064v-1.775h0.616V139.039z M174.869,138.527v-1.871h-2.064v1.871H174.869z
		 M178.477,137.079h-1.136v3.695h-0.608v-6.991h0.608v2.775h1.136V137.079z"/>
	<path d="M182.301,137.631h-3.128v-3.416h0.608v1.264h1.911v-1.264h0.608V137.631z M181.693,137.135v-1.152h-1.911v1.152H181.693z
		 M184.001,138.495c0.424,0.229,0.636,0.547,0.636,0.952s-0.212,0.723-0.636,0.951c-0.424,0.229-1.021,0.345-1.788,0.345
		c-0.773,0-1.371-0.115-1.792-0.345c-0.422-0.229-0.632-0.546-0.632-0.951s0.21-0.723,0.632-0.952
		c0.421-0.229,1.019-0.345,1.792-0.345C182.981,138.151,183.577,138.266,184.001,138.495z M184.013,139.448
		c0-0.24-0.16-0.433-0.479-0.576c-0.32-0.145-0.761-0.216-1.32-0.216c-0.555,0-0.993,0.071-1.316,0.216
		c-0.322,0.144-0.483,0.336-0.483,0.576c0,0.245,0.16,0.439,0.479,0.584c0.32,0.144,0.76,0.216,1.32,0.216
		c0.56,0,1-0.072,1.32-0.216C183.853,139.887,184.013,139.693,184.013,139.448z M184.597,133.784v4.359h-0.607v-1.216h-1.265v-0.504
		h1.265v-0.968h-1.265v-0.504h1.265v-1.168H184.597z"/>
	<path d="M154.957,146.29c0.165,0.163,0.248,0.359,0.248,0.589c0,0.229-0.081,0.425-0.244,0.588
		c-0.162,0.162-0.361,0.244-0.596,0.244c-0.229,0-0.426-0.082-0.588-0.244c-0.163-0.163-0.244-0.359-0.244-0.588
		c0-0.229,0.081-0.426,0.244-0.589c0.162-0.162,0.358-0.243,0.588-0.243S154.792,146.128,154.957,146.29z"/>
	<path d="M158.221,146.374c0-0.746,0.159-1.344,0.477-1.792c0.317-0.447,0.756-0.672,1.315-0.672c0.561,0,0.998,0.225,1.312,0.672
		c0.314,0.448,0.472,1.049,0.472,1.801s-0.157,1.352-0.472,1.8s-0.752,0.672-1.312,0.672c-0.56,0-0.998-0.226-1.315-0.676
		C158.38,147.728,158.221,147.126,158.221,146.374z M161.205,146.383c0-0.582-0.108-1.051-0.324-1.408s-0.505-0.536-0.868-0.536
		c-0.362,0-0.653,0.179-0.872,0.536s-0.327,0.826-0.327,1.408c0,0.575,0.108,1.044,0.327,1.403c0.219,0.36,0.51,0.54,0.872,0.54
		c0.363,0,0.652-0.18,0.868-0.54C161.097,147.427,161.205,146.958,161.205,146.383z M164.646,146.711h-1.145v3.663h-0.608v-6.991
		h0.608v2.815h1.145V146.711z"/>
	<path d="M171.358,149.414h-6.312v-0.512h6.312V149.414z M171.125,146.983l-0.336,0.512c-0.565-0.17-1.103-0.462-1.612-0.876
		c-0.509-0.413-0.839-0.807-0.987-1.18c-0.129,0.373-0.443,0.767-0.944,1.18c-0.502,0.414-1.046,0.703-1.632,0.868l-0.32-0.52
		c0.613-0.123,1.198-0.427,1.756-0.912s0.836-0.997,0.836-1.536v-0.552h0.632v0.552c0,0.271,0.086,0.548,0.257,0.828
		c0.17,0.279,0.386,0.527,0.647,0.744c0.262,0.216,0.543,0.403,0.844,0.563C170.567,146.815,170.853,146.924,171.125,146.983z"/>
	<path d="M175.437,148.431c-0.416,0.063-0.951,0.111-1.607,0.144c-0.693,0.043-1.312,0.064-1.856,0.064l-0.096-0.528h0.776
		l-0.208-2.888l0.607-0.08c0.017,0.373,0.047,0.904,0.092,1.592c0.046,0.688,0.073,1.142,0.084,1.36l0.561-0.024
		c0.063,0,0.114-0.003,0.151-0.008c0.043-0.73,0.104-1.704,0.185-2.92l0.607,0.063c-0.111,1.28-0.197,2.222-0.256,2.824
		c0.485-0.042,0.787-0.074,0.904-0.096C175.403,148.143,175.421,148.308,175.437,148.431z M175.213,144.759h-3.16v-0.504h3.16
		V144.759z M176.557,150.015h-0.592v-3.44h-0.96v-0.504h0.96v-2.52h0.592V150.015z M177.862,150.374h-0.601v-6.991h0.601V150.374z"
		/>
	<path d="M185.198,149.423h-6.312v-0.513h6.312V149.423z M184.589,147.735h-4.912v-2.192h4.12v-1.096h-4.145v-0.512h4.753v2.112
		h-4.12v1.176h4.304V147.735z"/>
	<path d="M186.253,143.767h3.168c-0.086,0.875-0.415,1.592-0.988,2.151c-0.573,0.561-1.315,0.979-2.228,1.257l-0.312-0.504
		c0.763-0.197,1.394-0.507,1.893-0.929c0.498-0.421,0.809-0.909,0.932-1.464h-2.464V143.767z M191.765,150.327h-4.776v-1.735h3.912
		v-0.729h-3.936v-0.504h4.544v1.696h-3.912v0.768h4.168V150.327z M191.517,146.927h-0.607v-3.544h0.607V146.927z"/>
	<path d="M196.173,150.319h-0.608v-2.224h-2.84v-0.513h6.312v0.513h-2.864V150.319z M198.445,146.847h-4.943v-1.88h4.144v-0.784
		h-4.16v-0.512h4.769v1.8h-4.145v0.863h4.336V146.847z"/>
	<path d="M205.957,149.414h-6.312v-0.512h6.312V149.414z M205.725,146.983l-0.336,0.512c-0.565-0.17-1.103-0.462-1.612-0.876
		c-0.509-0.413-0.839-0.807-0.987-1.18c-0.129,0.373-0.443,0.767-0.944,1.18c-0.502,0.414-1.046,0.703-1.632,0.868l-0.32-0.52
		c0.613-0.123,1.198-0.427,1.756-0.912s0.836-0.997,0.836-1.536v-0.552h0.632v0.552c0,0.271,0.086,0.548,0.257,0.828
		c0.17,0.279,0.386,0.527,0.647,0.744c0.262,0.216,0.543,0.403,0.844,0.563C205.166,146.815,205.452,146.924,205.725,146.983z"/>
	<path d="M212.877,147.286h-6.312v-0.512h6.312V147.286z M212.565,145.775l-0.28,0.512c-0.575-0.09-1.103-0.272-1.58-0.548
		c-0.477-0.274-0.807-0.572-0.987-0.892c-0.139,0.325-0.445,0.625-0.92,0.899c-0.476,0.275-1.017,0.458-1.624,0.549l-0.28-0.513
		c0.373-0.037,0.736-0.12,1.088-0.248s0.66-0.304,0.924-0.527c0.265-0.225,0.426-0.47,0.484-0.736h-2.248v-0.504h5.16v0.504h-2.232
		c0.091,0.395,0.394,0.732,0.908,1.012C211.492,145.563,212.021,145.727,212.565,145.775z M212.173,149.078
		c0,0.39-0.214,0.691-0.641,0.904s-1.031,0.32-1.815,0.32c-0.779,0-1.38-0.107-1.805-0.32c-0.424-0.213-0.636-0.515-0.636-0.904
		c0-0.384,0.214-0.683,0.64-0.896c0.427-0.214,1.027-0.32,1.801-0.32c0.789,0,1.396,0.104,1.819,0.312
		C211.961,148.383,212.173,148.684,212.173,149.078z M209.717,148.359c-0.571,0-1.018,0.062-1.34,0.188
		c-0.323,0.125-0.484,0.303-0.484,0.531c0,0.235,0.161,0.415,0.484,0.54c0.322,0.126,0.769,0.188,1.34,0.188
		c0.576,0,1.026-0.062,1.352-0.188c0.325-0.125,0.488-0.305,0.488-0.54c0-0.229-0.163-0.406-0.488-0.531
		C210.743,148.421,210.293,148.359,209.717,148.359z"/>
</g>
<g>
	<path d="M222.414,69.49c0.165,0.163,0.248,0.359,0.248,0.589c0,0.229-0.082,0.425-0.244,0.588
		c-0.163,0.162-0.361,0.244-0.597,0.244c-0.229,0-0.425-0.082-0.588-0.244c-0.162-0.163-0.244-0.359-0.244-0.588
		c0-0.229,0.082-0.426,0.244-0.589c0.163-0.162,0.359-0.243,0.588-0.243C222.051,69.247,222.248,69.328,222.414,69.49z"/>
	<path d="M229.094,70.287h-3.28v-3.328h0.608v1.151h2.056v-1.151h0.616V70.287z M228.478,69.782v-1.168h-2.056v1.168H228.478z
		 M230.434,71.259c0.397,0.237,0.596,0.562,0.596,0.972c0,0.411-0.201,0.735-0.604,0.973c-0.403,0.236-0.967,0.355-1.692,0.355
		s-1.285-0.119-1.68-0.355c-0.395-0.237-0.592-0.562-0.592-0.973c0-0.405,0.197-0.728,0.592-0.968s0.954-0.36,1.68-0.36
		C229.47,70.902,230.036,71.021,230.434,71.259z M228.734,71.398c-0.512,0-0.913,0.075-1.204,0.225
		c-0.29,0.149-0.436,0.352-0.436,0.607s0.146,0.459,0.436,0.608c0.291,0.149,0.692,0.224,1.204,0.224
		c0.533,0,0.945-0.074,1.236-0.224c0.29-0.149,0.436-0.353,0.436-0.608s-0.146-0.458-0.436-0.607
		C229.679,71.473,229.267,71.398,228.734,71.398z M232.022,68.927h-1.063v1.832h-0.608v-4.176h0.608v1.84h1.063V68.927z"/>
	<path d="M236.846,70.223c-0.661,0.096-1.411,0.165-2.248,0.208c-0.843,0.037-1.547,0.056-2.112,0.056l-0.088-0.544
		c0.661,0,1.163-0.002,1.504-0.008v-1.416h0.608v1.408c0.858-0.032,1.616-0.099,2.271-0.2L236.846,70.223z M236.23,67.007
		c0,0.971-0.066,1.735-0.2,2.296l-0.6-0.08c0.117-0.49,0.176-1.062,0.176-1.712h-2.76v-0.504H236.23z M237.326,71.326
		c0.422,0.219,0.632,0.525,0.632,0.921c0,0.395-0.208,0.699-0.623,0.916c-0.416,0.216-0.979,0.323-1.688,0.323
		c-0.715,0-1.278-0.106-1.692-0.319c-0.413-0.214-0.619-0.521-0.619-0.92c0-0.4,0.206-0.708,0.619-0.925
		c0.414-0.216,0.973-0.323,1.677-0.323C236.339,70.999,236.905,71.108,237.326,71.326z M235.646,71.495
		c-0.512,0-0.92,0.067-1.224,0.203c-0.305,0.137-0.456,0.319-0.456,0.549c0,0.234,0.151,0.417,0.456,0.548
		c0.304,0.131,0.712,0.195,1.224,0.195c0.522,0,0.934-0.063,1.232-0.191c0.298-0.128,0.447-0.312,0.447-0.552
		c0-0.235-0.15-0.419-0.452-0.553C236.573,71.561,236.163,71.495,235.646,71.495z M238.95,69.062h-1.056v1.944h-0.616v-4.424h0.616
		v1.968h1.056V69.062z"/>
	<path d="M222.414,79.09c0.165,0.163,0.248,0.359,0.248,0.589c0,0.229-0.082,0.425-0.244,0.588
		c-0.163,0.162-0.361,0.244-0.597,0.244c-0.229,0-0.425-0.082-0.588-0.244c-0.162-0.163-0.244-0.359-0.244-0.588
		c0-0.229,0.082-0.426,0.244-0.589c0.163-0.162,0.359-0.243,0.588-0.243C222.051,78.847,222.248,78.928,222.414,79.09z"/>
	<path d="M225.622,77.198v-0.512h3.815v0.512h-1.592c0,0.208,0.003,0.336,0.008,0.384c0.026,0.427,0.208,0.82,0.544,1.181
		c0.336,0.359,0.718,0.609,1.145,0.748l-0.336,0.487c-0.342-0.139-0.67-0.352-0.984-0.64s-0.544-0.587-0.688-0.896
		c-0.096,0.32-0.317,0.647-0.664,0.98s-0.712,0.583-1.096,0.748l-0.352-0.473c0.469-0.176,0.883-0.466,1.239-0.871
		c0.357-0.405,0.545-0.83,0.561-1.272c0-0.011,0.001-0.059,0.004-0.144c0.003-0.086,0.004-0.163,0.004-0.232H225.622z
		 M231.054,81.838c0,0.411-0.21,0.735-0.628,0.973c-0.419,0.237-0.993,0.355-1.725,0.355c-0.73,0-1.304-0.118-1.72-0.355
		s-0.624-0.562-0.624-0.973c0-0.421,0.208-0.75,0.624-0.987s0.989-0.356,1.72-0.356c0.731,0,1.306,0.119,1.725,0.356
		C230.844,81.088,231.054,81.417,231.054,81.838z M230.43,81.838c0-0.267-0.153-0.472-0.46-0.615
		c-0.307-0.145-0.729-0.217-1.269-0.217c-0.533,0-0.951,0.072-1.256,0.217c-0.304,0.144-0.456,0.349-0.456,0.615
		c0,0.257,0.152,0.458,0.456,0.604c0.305,0.146,0.723,0.22,1.256,0.22s0.955-0.073,1.265-0.22
		C230.275,82.296,230.43,82.095,230.43,81.838z M232.037,78.63h-1.079v1.849h-0.608v-4.296h0.608v1.936h1.079V78.63z"/>
	<path d="M222.414,88.69c0.165,0.163,0.248,0.359,0.248,0.589c0,0.229-0.082,0.425-0.244,0.588
		c-0.163,0.162-0.361,0.244-0.597,0.244c-0.229,0-0.425-0.082-0.588-0.244c-0.162-0.163-0.244-0.359-0.244-0.588
		c0-0.229,0.082-0.426,0.244-0.589c0.163-0.162,0.359-0.243,0.588-0.243C222.051,88.447,222.248,88.528,222.414,88.69z"/>
	<path d="M229.806,89.27l-0.344,0.488c-0.374-0.16-0.721-0.396-1.04-0.708c-0.32-0.312-0.55-0.646-0.688-1.004
		c-0.102,0.362-0.324,0.728-0.668,1.096s-0.713,0.651-1.107,0.849l-0.368-0.48c0.49-0.219,0.917-0.565,1.279-1.04
		c0.363-0.475,0.545-0.979,0.545-1.512v-0.776h0.615v0.76c0,0.545,0.181,1.027,0.54,1.448
		C228.93,88.812,229.342,89.105,229.806,89.27z M231.446,92.558h-4.664v-2.151h0.608v1.647h4.056V92.558z M231.294,90.863h-0.608
		v-5.08h0.608V90.863z"/>
	<path d="M232.542,86.799v-0.512h3.815v0.512h-1.592c0,0.208,0.003,0.336,0.008,0.384c0.026,0.427,0.208,0.82,0.544,1.181
		c0.336,0.359,0.718,0.609,1.145,0.748l-0.336,0.487c-0.342-0.139-0.67-0.352-0.984-0.64s-0.544-0.587-0.688-0.896
		c-0.096,0.32-0.317,0.647-0.664,0.98s-0.712,0.583-1.096,0.748l-0.352-0.473c0.469-0.176,0.883-0.466,1.239-0.871
		c0.357-0.405,0.545-0.83,0.561-1.272c0-0.011,0.001-0.059,0.004-0.144c0.003-0.086,0.004-0.163,0.004-0.232H232.542z
		 M237.974,91.438c0,0.411-0.21,0.735-0.628,0.973c-0.419,0.237-0.993,0.355-1.725,0.355c-0.73,0-1.304-0.118-1.72-0.355
		s-0.624-0.562-0.624-0.973c0-0.421,0.208-0.75,0.624-0.987s0.989-0.356,1.72-0.356c0.731,0,1.306,0.119,1.725,0.356
		C237.764,90.688,237.974,91.017,237.974,91.438z M237.35,91.438c0-0.267-0.153-0.472-0.46-0.615
		c-0.307-0.145-0.729-0.217-1.269-0.217c-0.533,0-0.951,0.072-1.256,0.217c-0.304,0.144-0.456,0.349-0.456,0.615
		c0,0.257,0.152,0.458,0.456,0.604c0.305,0.146,0.723,0.22,1.256,0.22s0.955-0.073,1.265-0.22
		C237.195,91.896,237.35,91.695,237.35,91.438z M238.957,88.23h-1.079v1.849h-0.608v-4.296h0.608v1.936h1.079V88.23z"/>
	<path d="M222.414,98.29c0.165,0.163,0.248,0.359,0.248,0.589c0,0.229-0.082,0.425-0.244,0.588
		c-0.163,0.162-0.361,0.244-0.597,0.244c-0.229,0-0.425-0.082-0.588-0.244c-0.162-0.163-0.244-0.359-0.244-0.588
		c0-0.229,0.082-0.426,0.244-0.589c0.163-0.162,0.359-0.243,0.588-0.243C222.051,98.047,222.248,98.128,222.414,98.29z"/>
	<path d="M228.646,99.118h-2.808v-3.271h0.592v1.08h1.624v-1.08h0.592V99.118z M228.054,98.614v-1.184h-1.624v1.184H228.054z
		 M231.478,102.374h-0.624v-1.96h-4.104V99.91h4.728V102.374z M231.478,99.534h-0.608v-1.863h-0.863v1.815h-0.584v-3.976h0.584
		v1.655h0.863v-1.783h0.608V99.534z"/>
	<path d="M236.39,96.91h-3.88v-0.496h3.88V96.91z M236.102,98.238c0,0.336-0.148,0.598-0.444,0.784s-0.687,0.28-1.172,0.28
		c-0.469,0-0.855-0.094-1.16-0.28c-0.304-0.187-0.456-0.448-0.456-0.784c0-0.325,0.151-0.581,0.452-0.768
		c0.302-0.187,0.689-0.28,1.164-0.28c0.47,0,0.856,0.094,1.16,0.28S236.102,97.913,236.102,98.238z M235.205,98.666
		c0.197-0.104,0.297-0.246,0.297-0.428c0-0.181-0.1-0.321-0.297-0.42s-0.437-0.147-0.72-0.147c-0.288,0-0.528,0.049-0.72,0.147
		c-0.192,0.099-0.288,0.239-0.288,0.42c0,0.182,0.098,0.324,0.292,0.428c0.194,0.104,0.434,0.156,0.716,0.156
		C234.769,98.822,235.008,98.77,235.205,98.666z M233.51,95.974v-0.504h2.008v0.504H233.51z M238.453,102.334h-4.712v-1.584h3.872
		v-0.552h-3.896v-0.48h4.504v1.504h-3.872v0.632h4.104V102.334z M236.462,97.471v-0.488h1.144v-1.6h0.608v3.936h-0.608v-0.647
		h-1.144v-0.48h1.144v-0.72H236.462z"/>
	<path d="M242.838,99.23h-3.129v-3.416h0.608v1.264h1.912v-1.264h0.608V99.23z M242.23,98.734v-1.152h-1.912v1.152H242.23z
		 M244.537,100.095c0.425,0.229,0.637,0.547,0.637,0.952s-0.212,0.723-0.637,0.951c-0.424,0.229-1.02,0.345-1.788,0.345
		c-0.773,0-1.37-0.115-1.792-0.345c-0.421-0.229-0.632-0.546-0.632-0.951s0.211-0.723,0.632-0.952
		c0.422-0.23,1.019-0.345,1.792-0.345C243.518,99.75,244.114,99.865,244.537,100.095z M244.55,101.047c0-0.24-0.16-0.433-0.48-0.576
		c-0.32-0.145-0.76-0.216-1.32-0.216c-0.555,0-0.993,0.071-1.315,0.216c-0.323,0.144-0.484,0.336-0.484,0.576
		c0,0.245,0.16,0.439,0.48,0.584c0.319,0.144,0.76,0.216,1.319,0.216c0.561,0,1-0.072,1.32-0.216
		C244.39,101.487,244.55,101.292,244.55,101.047z M245.134,95.383v4.359h-0.608v-1.216h-1.264v-0.504h1.264v-0.968h-1.264v-0.504
		h1.264v-1.168H245.134z"/>
	<path d="M222.414,107.891c0.165,0.163,0.248,0.359,0.248,0.589c0,0.229-0.082,0.425-0.244,0.588
		c-0.163,0.162-0.361,0.244-0.597,0.244c-0.229,0-0.425-0.082-0.588-0.244c-0.162-0.163-0.244-0.359-0.244-0.588
		c0-0.229,0.082-0.426,0.244-0.589c0.163-0.162,0.359-0.243,0.588-0.243C222.051,107.648,222.248,107.729,222.414,107.891z"/>
	<path d="M225.822,105.599h3.185c-0.038,0.923-0.343,1.715-0.916,2.376c-0.573,0.662-1.321,1.14-2.244,1.433l-0.312-0.512
		c0.752-0.192,1.387-0.543,1.904-1.053c0.518-0.509,0.818-1.086,0.904-1.731h-2.521V105.599z M231.174,111.799h-4.616v-2.16h0.608
		v1.656h4.008V111.799z M232.022,107.688h-1.063v2.527h-0.608v-5.231h0.608v2.191h1.063V107.688z"/>
	<path d="M222.414,117.491c0.165,0.163,0.248,0.359,0.248,0.589c0,0.229-0.082,0.425-0.244,0.588
		c-0.163,0.162-0.361,0.244-0.597,0.244c-0.229,0-0.425-0.082-0.588-0.244c-0.162-0.163-0.244-0.359-0.244-0.588
		c0-0.229,0.082-0.426,0.244-0.589c0.163-0.162,0.359-0.243,0.588-0.243C222.051,117.247,222.248,117.328,222.414,117.491z"/>
	<path d="M228.31,116.375l-0.264,2.855c0.395-0.026,0.712-0.059,0.952-0.096l0.056,0.496c-0.368,0.053-0.904,0.104-1.608,0.151
		c-0.757,0.038-1.384,0.057-1.88,0.057l-0.096-0.528h0.808l-0.216-2.92l0.608-0.08l0.176,2.984c0.053,0,0.11-0.002,0.172-0.004
		c0.062-0.003,0.131-0.007,0.208-0.013c0.077-0.005,0.138-0.008,0.18-0.008h0.088l0.208-2.96L228.31,116.375z M228.886,115.959
		h-3.28v-0.504h3.28V115.959z M230.206,121.215h-0.601v-2.641h-0.936v-0.504h0.936v-1.063h-0.936v-0.512h0.936v-1.713h0.601V121.215
		z M231.486,121.575h-0.592v-6.991h0.592V121.575z"/>
	<path d="M222.414,127.09c0.165,0.163,0.248,0.359,0.248,0.589c0,0.229-0.082,0.425-0.244,0.588
		c-0.163,0.162-0.361,0.244-0.597,0.244c-0.229,0-0.425-0.082-0.588-0.244c-0.162-0.163-0.244-0.359-0.244-0.588
		c0-0.229,0.082-0.426,0.244-0.589c0.163-0.162,0.359-0.243,0.588-0.243C222.051,126.847,222.248,126.928,222.414,127.09z"/>
	<path d="M227.47,124.567c0.507,0,0.935,0.156,1.284,0.468c0.349,0.312,0.523,0.716,0.523,1.212c0,0.502-0.173,0.904-0.52,1.208
		s-0.776,0.456-1.288,0.456c-0.518,0-0.949-0.15-1.296-0.452c-0.347-0.301-0.521-0.702-0.521-1.204c0-0.496,0.175-0.901,0.524-1.216
		C226.527,124.724,226.958,124.567,227.47,124.567z M227.47,125.063c-0.353,0-0.645,0.111-0.876,0.336
		c-0.232,0.224-0.349,0.507-0.349,0.848c0,0.347,0.115,0.628,0.345,0.844c0.229,0.217,0.522,0.324,0.88,0.324
		c0.362,0,0.657-0.106,0.884-0.319c0.227-0.214,0.34-0.494,0.34-0.841c0-0.352-0.111-0.639-0.336-0.859
		C228.134,125.173,227.838,125.063,227.47,125.063z M230.966,131.174h-0.616v-2.008h-3.896v-0.504h4.513V131.174z M232.022,126.542
		h-1.063v1.752h-0.608v-4.111h0.608v1.848h1.063V126.542z"/>
	<path d="M236.478,127.511l-0.36,0.472c-0.357-0.171-0.688-0.401-0.991-0.692c-0.305-0.29-0.521-0.601-0.648-0.932
		c-0.106,0.362-0.313,0.713-0.62,1.052s-0.663,0.609-1.068,0.813l-0.376-0.473c0.523-0.239,0.943-0.577,1.261-1.012
		s0.476-0.921,0.476-1.46v-0.696h0.616v0.681c0,0.522,0.175,0.987,0.523,1.396C235.639,127.067,236.035,127.351,236.478,127.511z
		 M237.674,128.878c0.407,0.235,0.611,0.558,0.611,0.969c0,0.41-0.204,0.733-0.611,0.968c-0.408,0.234-0.985,0.352-1.732,0.352
		c-0.741,0-1.315-0.117-1.724-0.352s-0.612-0.558-0.612-0.968c0-0.411,0.204-0.733,0.612-0.969c0.408-0.234,0.982-0.352,1.724-0.352
		C236.689,128.527,237.266,128.644,237.674,128.878z M235.942,129.023c-0.539,0-0.96,0.072-1.264,0.216
		c-0.305,0.144-0.456,0.347-0.456,0.608c0,0.261,0.151,0.464,0.456,0.607c0.304,0.145,0.725,0.216,1.264,0.216
		c0.544,0,0.968-0.071,1.272-0.216c0.304-0.144,0.456-0.347,0.456-0.607c0-0.262-0.152-0.465-0.456-0.608
		C236.91,129.095,236.486,129.023,235.942,129.023z M237.606,126.294h-1.504v-0.504h1.504v-1.607h0.608v4.344h-0.608V126.294z"/>
	<path d="M247.838,128.647h-6.312v-0.504h6.312V128.647z M247.446,125.615h-5.528v-0.496h5.528V125.615z M242.245,129.143h4.784
		v2.04h-0.607v-1.544h-4.177V129.143z M246.838,126.79c0,0.315-0.186,0.555-0.557,0.721c-0.37,0.165-0.902,0.247-1.596,0.247
		c-0.699,0-1.232-0.081-1.601-0.243c-0.367-0.163-0.552-0.404-0.552-0.725c0-0.624,0.718-0.936,2.152-0.936
		S246.838,126.166,246.838,126.79z M246.222,126.79c0-0.319-0.513-0.479-1.536-0.479c-1.019,0-1.528,0.16-1.528,0.479
		c0,0.331,0.51,0.496,1.528,0.496C245.709,127.286,246.222,127.121,246.222,126.79z M245.91,124.75h-2.408v-0.496h2.408V124.75z"/>
	<path d="M251.942,127.535l-0.336,0.464c-0.299-0.144-0.577-0.354-0.836-0.632s-0.452-0.558-0.58-0.84
		c-0.091,0.288-0.272,0.596-0.544,0.924c-0.272,0.328-0.568,0.585-0.888,0.772l-0.376-0.465c0.41-0.218,0.762-0.533,1.056-0.943
		c0.293-0.411,0.439-0.861,0.439-1.353v-0.872h0.593v0.856c0,0.49,0.147,0.92,0.443,1.288S251.552,127.369,251.942,127.535z
		 M254.342,131.174h-0.616v-1.911h-4.08v-0.513h4.696V131.174z M254.342,128.374h-0.608v-1.88h-0.888v1.824h-0.593v-4.008h0.593
		v1.672h0.888v-1.8h0.608V128.374z"/>
	<path d="M261.678,128.191h-6.312v-0.512h2.848v-1.057h0.608v1.057h2.856V128.191z M261.366,126.519l-0.28,0.512
		c-0.575-0.096-1.104-0.28-1.584-0.552c-0.479-0.272-0.808-0.571-0.983-0.896c-0.139,0.331-0.445,0.634-0.92,0.908
		c-0.476,0.274-1.017,0.455-1.624,0.54l-0.28-0.504c0.581-0.054,1.114-0.216,1.6-0.488c0.485-0.271,0.779-0.603,0.88-0.992h-2.231
		v-0.504h5.16v0.504h-2.225c0.107,0.39,0.412,0.719,0.916,0.988S260.822,126.465,261.366,126.519z M260.337,129.067
		c0.425,0.205,0.637,0.5,0.637,0.884s-0.214,0.682-0.641,0.892c-0.427,0.211-1.031,0.316-1.815,0.316
		c-0.779,0-1.38-0.105-1.805-0.316c-0.424-0.21-0.636-0.508-0.636-0.892c0-0.373,0.214-0.665,0.64-0.876
		c0.427-0.211,1.027-0.316,1.801-0.316C259.307,128.758,259.913,128.862,260.337,129.067z M258.518,129.246
		c-0.565,0-1.011,0.062-1.336,0.185c-0.326,0.122-0.488,0.296-0.488,0.52c0,0.229,0.161,0.405,0.484,0.528
		c0.322,0.122,0.769,0.184,1.34,0.184c0.576,0,1.026-0.062,1.352-0.184c0.325-0.123,0.488-0.299,0.488-0.528
		c0-0.224-0.164-0.397-0.492-0.52C259.537,129.308,259.088,129.246,258.518,129.246z"/>
	<path d="M222.414,136.691c0.165,0.163,0.248,0.359,0.248,0.589c0,0.229-0.082,0.425-0.244,0.588
		c-0.163,0.162-0.361,0.244-0.597,0.244c-0.229,0-0.425-0.082-0.588-0.244c-0.162-0.163-0.244-0.359-0.244-0.588
		c0-0.229,0.082-0.426,0.244-0.589c0.163-0.162,0.359-0.243,0.588-0.243C222.051,136.448,222.248,136.529,222.414,136.691z"/>
	<path d="M229.806,137.055l-0.36,0.48c-0.373-0.166-0.726-0.397-1.056-0.696c-0.331-0.299-0.562-0.618-0.696-0.96
		c-0.106,0.362-0.321,0.713-0.644,1.052c-0.323,0.339-0.706,0.62-1.148,0.844l-0.376-0.487c0.522-0.214,0.96-0.546,1.312-0.996
		c0.352-0.451,0.527-0.942,0.527-1.477v-0.743h0.616v0.72c0,0.522,0.187,0.99,0.561,1.404
		C228.915,136.609,229.336,136.895,229.806,137.055z M231.294,140.775h-0.608v-1.936h-4.056v-0.504h4.664V140.775z M231.294,137.952
		h-0.608v-4.168h0.608V137.952z"/>
	<path d="M238.814,139.887h-6.312v-0.512h2.84v-1.712h-2.08v-3.288h4.8v0.504h-4.184v2.28h4.224v0.504h-2.152v1.712h2.864V139.887z"
		/>
	<path d="M222.414,146.29c0.165,0.163,0.248,0.359,0.248,0.589c0,0.229-0.082,0.425-0.244,0.588
		c-0.163,0.162-0.361,0.244-0.597,0.244c-0.229,0-0.425-0.082-0.588-0.244c-0.162-0.163-0.244-0.359-0.244-0.588
		c0-0.229,0.082-0.426,0.244-0.589c0.163-0.162,0.359-0.243,0.588-0.243C222.051,146.047,222.248,146.128,222.414,146.29z"/>
	<path d="M228.118,150.166h-0.607v-2.399c-0.438,0.021-1.069,0.037-1.896,0.048l-0.096-0.544c1.189,0,1.979-0.008,2.368-0.024
		c0.906-0.026,1.72-0.077,2.439-0.151l0.024,0.472c-0.438,0.059-1.182,0.115-2.232,0.168V150.166z M229.678,145.231
		c0,0.438-0.171,0.795-0.512,1.072c-0.342,0.277-0.782,0.416-1.32,0.416c-0.544,0-0.987-0.139-1.328-0.416
		c-0.342-0.277-0.512-0.635-0.512-1.072c0-0.442,0.17-0.804,0.512-1.084c0.341-0.28,0.784-0.42,1.328-0.42
		c0.538,0,0.979,0.14,1.32,0.42C229.507,144.427,229.678,144.788,229.678,145.231z M229.086,145.231c0-0.31-0.118-0.552-0.353-0.728
		c-0.234-0.177-0.53-0.265-0.888-0.265c-0.363,0-0.663,0.088-0.9,0.265c-0.237,0.176-0.355,0.418-0.355,0.728
		c0,0.304,0.118,0.543,0.355,0.716c0.237,0.174,0.537,0.26,0.9,0.26c0.357,0,0.653-0.086,0.888-0.26
		C228.968,145.774,229.086,145.535,229.086,145.231z M231.358,150.374h-0.616v-6.991h0.616V150.374z"/>
</g>
<g>
</g>
<g>
</g>
<g>
</g>
<g>
</g>
<g>
</g>
<g>
</g>
</svg>
