<?xml version="1.0" encoding="utf-8"?>
<!-- Generator: Adobe Illustrator 28.0.0, SVG Export Plug-In . SVG Version: 6.00 Build 0)  -->
<svg version="1.1" id="레이어_1" xmlns="http://www.w3.org/2000/svg" xmlns:xlink="http://www.w3.org/1999/xlink" x="0px"
	 y="0px" viewBox="0 0 502.638 116.97" enable-background="new 0 0 502.638 116.97" xml:space="preserve">
<g>
	<path d="M0.444,59.094c0-0.728,0.262-1.338,0.786-1.83c0.524-0.492,1.178-0.738,1.962-0.738s1.44,0.244,1.968,0.732
		c0.528,0.488,0.792,1.1,0.792,1.836c0,0.752-0.262,1.356-0.786,1.812S3.984,61.59,3.192,61.59c-0.784,0-1.438-0.23-1.962-0.69
		S0.444,59.838,0.444,59.094z M1.8,59.094c0,0.416,0.128,0.756,0.384,1.02c0.256,0.264,0.592,0.396,1.008,0.396
		c0.424,0,0.766-0.134,1.026-0.402c0.26-0.268,0.39-0.606,0.39-1.014c0-0.408-0.128-0.744-0.384-1.008
		c-0.256-0.264-0.6-0.396-1.032-0.396c-0.408,0-0.742,0.136-1.002,0.408C1.93,58.37,1.8,58.702,1.8,59.094z M9.204,66.51H2.16
		v-4.068h7.044V66.51z M7.8,65.418v-1.896H3.576v1.896H7.8z M9.204,61.926H7.8v-1.068H6.3l0.036-1.188H7.8v-1.236H6.336L6.3,57.246
		h1.5V55.95h1.404V61.926z"/>
	<path d="M20.4,61.062v1.104h-9.66v-1.104H20.4z M19.908,59.358l-0.6,1.104c-0.784-0.064-1.526-0.284-2.226-0.66
		c-0.7-0.376-1.202-0.82-1.506-1.332c-0.264,0.528-0.74,0.974-1.428,1.338c-0.688,0.364-1.46,0.582-2.316,0.654l-0.576-1.08
		c0.856-0.04,1.606-0.226,2.25-0.558c0.644-0.332,1.058-0.762,1.242-1.29h-3.012v-1.116h7.704v1.116h-3
		c0.2,0.521,0.638,0.944,1.314,1.272C18.43,59.134,19.148,59.318,19.908,59.358z M19.308,64.65c0,0.624-0.328,1.112-0.984,1.464
		c-0.656,0.352-1.572,0.528-2.748,0.528c-1.184,0-2.104-0.176-2.76-0.528c-0.656-0.352-0.984-0.84-0.984-1.464
		c0-0.608,0.328-1.088,0.984-1.44c0.656-0.352,1.572-0.528,2.748-0.528c1.176,0,2.094,0.176,2.754,0.528S19.308,64.042,19.308,64.65
		z M17.244,65.304c0.416-0.156,0.624-0.37,0.624-0.642c0-0.271-0.208-0.486-0.624-0.642c-0.416-0.156-0.976-0.234-1.68-0.234
		c-0.696,0-1.25,0.078-1.662,0.234c-0.412,0.156-0.618,0.37-0.618,0.642c0,0.272,0.206,0.486,0.618,0.642
		c0.412,0.156,0.966,0.234,1.662,0.234C16.268,65.538,16.828,65.46,17.244,65.304z"/>
	<path d="M24.792,66.63h-1.404v-3.564H21.12V61.95h9.66v1.116h-2.316v3.564H27.06v-3.564h-2.268V66.63z M29.736,58.806
		c0,0.712-0.346,1.286-1.038,1.722s-1.614,0.654-2.766,0.654c-1.144,0-2.062-0.218-2.754-0.654s-1.038-1.01-1.038-1.722
		c0-0.704,0.346-1.274,1.038-1.71s1.61-0.654,2.754-0.654c1.152,0,2.074,0.218,2.766,0.654S29.736,58.102,29.736,58.806z
		 M27.63,59.7c0.428-0.236,0.642-0.534,0.642-0.894c0-0.36-0.212-0.656-0.636-0.888c-0.424-0.232-0.992-0.348-1.704-0.348
		s-1.28,0.116-1.704,0.348c-0.424,0.232-0.636,0.528-0.636,0.888c0,0.36,0.212,0.658,0.636,0.894
		c0.424,0.236,0.992,0.354,1.704,0.354C26.636,60.054,27.202,59.936,27.63,59.7z"/>
	<path d="M36.828,60.99h-5.052v-4.632h1.38v1.344h2.268v-1.368h1.404V60.99z M40.164,66.558H32.88v-2.832h5.556v-0.684h-5.64v-1.116
		h7.068v2.832h-5.592v0.672h5.892V66.558z M35.424,59.898v-1.092h-2.268v1.092H35.424z M41.364,59.298h-1.5v2.076h-1.428V55.95
		h1.428v2.196h1.5V59.298z"/>
	<path d="M50.64,66.594h-7.524v-2.736h5.748v-0.624h-5.82V62.13h2.94v-0.804h-4.104V60.27h9.66v1.056h-4.152v0.804h2.88v2.712h-5.76
		v0.612h6.132V66.594z M50.255,59.562h-7.092v-3.408h7.092V59.562z M48.828,58.458v-1.224h-4.26v1.224H48.828z"/>
	<path d="M52.739,57.642v-1.116h5.64v1.116h-2.016c0.088,0.64,0.346,1.17,0.774,1.59c0.428,0.42,0.946,0.726,1.554,0.918
		l-0.768,1.092c-0.416-0.152-0.846-0.42-1.29-0.804c-0.444-0.384-0.782-0.8-1.014-1.248c-0.16,0.512-0.476,0.984-0.948,1.416
		s-0.976,0.744-1.512,0.936l-0.84-1.068c1.536-0.568,2.384-1.512,2.544-2.832H52.739z M61.427,66.558h-7.356v-2.856h5.628v-0.684H54
		v-1.116h7.092v2.832h-5.604v0.696h5.94V66.558z M61.091,61.362h-1.392V55.95h1.392V61.362z"/>
	<path d="M2.796,80.85c-0.648-0.608-1.18-1.336-1.596-2.184c-0.416-0.848-0.624-1.784-0.624-2.808v-0.216
		c0-1.024,0.208-1.958,0.624-2.802c0.416-0.844,0.948-1.57,1.596-2.178h1.188c-0.592,0.656-1.072,1.404-1.44,2.244
		s-0.552,1.716-0.552,2.628v0.336c0,0.904,0.188,1.798,0.564,2.682c0.376,0.884,0.852,1.65,1.428,2.298H2.796z"/>
	<path d="M5.064,79.602V71.37h2.88c0.96,0,1.684,0.216,2.172,0.648c0.488,0.432,0.732,1.06,0.732,1.884
		c0,0.84-0.25,1.486-0.75,1.938s-1.186,0.678-2.058,0.678h-1.5v3.084H5.064z M6.54,75.414h1.224c0.544,0,0.936-0.116,1.176-0.348
		c0.24-0.232,0.36-0.592,0.36-1.08c0-0.536-0.116-0.916-0.348-1.14c-0.232-0.224-0.62-0.336-1.164-0.336H6.54V75.414z"/>
	<path d="M11.399,79.602l3-8.232h1.512l2.928,8.232h-1.524l-0.744-2.088h-3.06l-0.744,2.088H11.399z M15.012,73.122L13.86,76.41
		h2.34l-1.152-3.288H15.012z"/>
	<path d="M20.016,79.602V71.37h2.076l2.004,6.204h0.036l2.004-6.204H28.2v8.232h-1.476v-6.396h-0.048l-2.064,6.396H23.4
		l-2.052-6.396h-0.036v6.396H20.016z"/>
	<path d="M30.132,79.602V71.37h2.88c0.96,0,1.684,0.216,2.172,0.648c0.488,0.432,0.732,1.06,0.732,1.884
		c0,0.84-0.25,1.486-0.75,1.938s-1.186,0.678-2.058,0.678h-1.5v3.084H30.132z M31.608,75.414h1.224c0.544,0,0.936-0.116,1.176-0.348
		c0.24-0.232,0.36-0.592,0.36-1.08c0-0.536-0.116-0.916-0.348-1.14c-0.232-0.224-0.62-0.336-1.164-0.336h-1.248V75.414z"/>
	<path d="M36.66,81.222l0.48-2.424h1.512l-0.864,2.424H36.66z"/>
	<path d="M0.972,94.002V85.77h2.7c2.624,0,3.936,1.3,3.936,3.9v0.24c0,1.336-0.328,2.352-0.984,3.048
		c-0.656,0.696-1.636,1.044-2.94,1.044H0.972z M2.448,92.838h1.248c0.816,0,1.412-0.218,1.788-0.654s0.564-1.146,0.564-2.13v-0.396
		c0-0.992-0.204-1.694-0.612-2.106s-1.024-0.618-1.848-0.618h-1.14V92.838z"/>
	<path d="M8.316,94.002l3-8.232h1.512l2.928,8.232h-1.524l-0.744-2.088h-3.06l-0.744,2.088H8.316z M11.928,87.522l-1.152,3.288h2.34
		l-1.152-3.288H11.928z"/>
	<path d="M16.932,94.002V85.77h2.076l2.004,6.204h0.036l2.004-6.204h2.064v8.232H23.64v-6.396h-0.048l-2.064,6.396h-1.212
		l-2.052-6.396h-0.036v6.396H16.932z"/>
	<path d="M27.048,94.002V85.77h2.88c0.96,0,1.684,0.216,2.172,0.648c0.488,0.432,0.732,1.06,0.732,1.884
		c0,0.84-0.25,1.486-0.75,1.938s-1.186,0.678-2.058,0.678h-1.5v3.084H27.048z M28.524,89.814h1.224c0.544,0,0.936-0.116,1.176-0.348
		c0.24-0.232,0.36-0.592,0.36-1.08c0-0.536-0.116-0.916-0.348-1.14c-0.232-0.224-0.62-0.336-1.164-0.336h-1.248V89.814z"/>
	<path d="M33.335,95.25c0.592-0.648,1.072-1.394,1.44-2.238c0.368-0.844,0.552-1.722,0.552-2.634V90.03
		c0-0.896-0.186-1.788-0.558-2.676c-0.372-0.888-0.85-1.652-1.434-2.292h1.188c0.64,0.608,1.168,1.336,1.584,2.184
		c0.416,0.848,0.624,1.78,0.624,2.796v0.216c0,1.024-0.208,1.96-0.624,2.808c-0.416,0.848-0.944,1.576-1.584,2.184H33.335z"/>
</g>
<g>
	<rect x="112.966" y="52.753" fill="none" width="102.006" height="13.889"/>
	<path d="M118.703,59.473h-4.956v-5.004h4.956V59.473z M122.375,63.973h-7.248v-3.312h1.392v2.196h5.856V63.973z M117.311,58.381
		v-2.832h-2.172v2.832H117.311z M120.767,56.353h-1.488v-1.104h1.488v-1.68h1.392v7.752h-1.392v-2.616h-1.488v-1.104h1.488V56.353z"
		/>
	<path d="M124.589,58.555c-0.524-0.468-0.786-1.074-0.786-1.818c0-0.744,0.262-1.366,0.786-1.866c0.524-0.5,1.174-0.75,1.95-0.75
		s1.428,0.25,1.956,0.75s0.792,1.122,0.792,1.866c0,0.744-0.26,1.35-0.78,1.818c-0.521,0.468-1.176,0.702-1.968,0.702
		C125.763,59.257,125.113,59.023,124.589,58.555z M125.099,60.241h7.452v4.032h-1.404v-2.916h-6.048V60.241z M125.159,56.725
		c0,0.424,0.126,0.77,0.378,1.038s0.586,0.402,1.002,0.402s0.754-0.136,1.014-0.408c0.26-0.271,0.39-0.616,0.39-1.032
		c0-0.408-0.126-0.75-0.378-1.026c-0.252-0.276-0.594-0.414-1.026-0.414c-0.408,0-0.74,0.14-0.996,0.42
		C125.287,55.985,125.159,56.325,125.159,56.725z M129.611,58.537l0.036-1.176h1.5v-1.308h-1.5l-0.036-1.176h1.536v-1.308h1.404
		v6.12h-1.404v-1.152H129.611z"/>
	<path d="M139.486,60.661l-0.792,0.996c-0.384-0.24-0.772-0.602-1.164-1.086c-0.392-0.484-0.652-0.974-0.78-1.47
		c-0.152,0.56-0.416,1.096-0.792,1.608c-0.376,0.512-0.812,0.916-1.308,1.212l-0.828-0.96c0.704-0.456,1.254-1.088,1.65-1.896
		s0.594-1.764,0.594-2.868v-1.596h1.344v1.584c0,1.032,0.182,1.938,0.546,2.718C138.32,59.683,138.831,60.269,139.486,60.661z
		 M141.046,63.769h-1.308v-5.376h-1.44v-1.14h1.44v-3.48h1.308V63.769z M143.183,64.261h-1.332V53.569h1.332V64.261z"/>
	<path d="M154.126,62.917h-9.66v-1.104h4.104v-2.064h-3.216v-1.116h1.572l-0.3-2.46l1.404-0.18l0.216,2.64h2.136l0.384-2.616
		l1.356,0.228l-0.444,2.388h1.512v1.116h-3.216v2.064h4.152V62.917z M153.214,55.489h-7.884v-1.116h7.884V55.489z"/>
	<path d="M155.182,57.001c0-0.768,0.266-1.4,0.798-1.896c0.532-0.496,1.23-0.744,2.094-0.744c0.872,0,1.572,0.248,2.1,0.744
		s0.792,1.128,0.792,1.896c0,0.776-0.264,1.408-0.792,1.896c-0.528,0.488-1.228,0.732-2.1,0.732s-1.572-0.244-2.1-0.732
		C155.446,58.409,155.182,57.777,155.182,57.001z M163.918,63.973h-7.416v-3.42h1.416v2.316h6V63.973z M156.623,57.001
		c0,0.432,0.132,0.786,0.396,1.062c0.264,0.276,0.616,0.414,1.056,0.414c0.456,0,0.814-0.138,1.074-0.414
		c0.26-0.276,0.39-0.63,0.39-1.062c0-0.416-0.132-0.76-0.396-1.032c-0.264-0.271-0.62-0.408-1.068-0.408
		c-0.44,0-0.792,0.136-1.056,0.408C156.754,56.241,156.623,56.585,156.623,57.001z M163.678,61.321h-1.392v-7.752h1.392V61.321z"/>
	<path d="M171.754,58.201l-0.804,1.08c-0.44-0.16-0.894-0.442-1.362-0.846c-0.468-0.404-0.814-0.838-1.038-1.302
		c-0.152,0.521-0.47,1.01-0.954,1.47s-0.99,0.782-1.518,0.966l-0.852-1.116c0.792-0.288,1.422-0.734,1.89-1.338
		c0.468-0.604,0.702-1.306,0.702-2.106v-0.924h1.452v0.852c0,0.784,0.244,1.468,0.732,2.052
		C170.49,57.573,171.074,57.977,171.754,58.201z M166.834,60.385h7.248v3.888h-1.416v-2.772h-5.832V60.385z M174.07,59.869h-1.404
		v-6.288h1.404V59.869z"/>
</g>
<g>
	<rect x="216.714" fill="none" width="102.006" height="13.889"/>
	<path d="M218.814,5.568c1.616,0.032,3.008-0.064,4.176-0.288l0.12,1.08c-1.032,0.224-2.584,0.336-4.656,0.336h-1.032v-5.22h4.824
		v1.116h-3.432v0.9h3.216V4.62h-3.216V5.568z M225.426,11.364h-7.032V7.488h7.032V11.364z M224.022,10.26V8.568h-4.224v1.692
		H224.022z M226.902,4.464h-1.476V6.96h-1.416V0.816h1.416v2.496h1.476V4.464z"/>
	<path d="M233.982,5.448l-0.804,1.08c-0.44-0.16-0.894-0.442-1.362-0.846c-0.468-0.404-0.814-0.838-1.038-1.302
		c-0.152,0.521-0.47,1.01-0.954,1.47s-0.99,0.782-1.518,0.966L227.454,5.7c0.792-0.288,1.422-0.734,1.89-1.338
		c0.468-0.604,0.702-1.306,0.702-2.106V1.332h1.452v0.852c0,0.784,0.244,1.468,0.732,2.052
		C232.718,4.82,233.302,5.224,233.982,5.448z M229.062,7.632h7.248v3.888h-1.416V8.748h-5.832V7.632z M236.298,7.116h-1.404V0.828
		h1.404V7.116z"/>
	<path d="M237.966,2.64V1.5h5.628v1.14h-2.04c0.056,0.72,0.308,1.336,0.756,1.848c0.448,0.512,0.991,0.872,1.632,1.08l-0.768,1.116
		c-0.448-0.176-0.893-0.456-1.332-0.84c-0.44-0.384-0.772-0.808-0.996-1.272c-0.152,0.504-0.471,0.986-0.954,1.446
		c-0.484,0.46-0.99,0.778-1.519,0.954l-0.828-1.092c0.76-0.28,1.37-0.7,1.83-1.26s0.706-1.22,0.738-1.98H237.966z M239.178,7.584
		h7.031v3.936h-1.416V8.7h-5.615V7.584z M247.722,4.5h-1.524v2.544h-1.416V0.816h1.416v2.532h1.524V4.5z"/>
	<path d="M249.306,3.12c0-0.608,0.33-1.104,0.989-1.488c0.66-0.384,1.574-0.576,2.742-0.576c1.176,0,2.094,0.192,2.754,0.576
		c0.66,0.384,0.99,0.88,0.99,1.488c0,0.688-0.404,1.22-1.212,1.596v1.26h2.304v1.116h-9.66V5.976h2.257V4.68
		C249.694,4.296,249.306,3.776,249.306,3.12z M256.77,9.516c0,0.624-0.326,1.114-0.979,1.47s-1.565,0.534-2.742,0.534
		c-1.176,0-2.09-0.178-2.741-0.534c-0.652-0.356-0.979-0.846-0.979-1.47c0-0.608,0.326-1.09,0.979-1.446
		c0.651-0.355,1.562-0.534,2.729-0.534c1.176,0,2.092,0.178,2.748,0.534C256.442,8.426,256.77,8.908,256.77,9.516z M250.757,3.12
		c0,0.288,0.204,0.522,0.612,0.702c0.408,0.18,0.964,0.27,1.668,0.27c0.696,0,1.254-0.09,1.674-0.27
		c0.42-0.18,0.63-0.414,0.63-0.702c0-0.296-0.203-0.536-0.611-0.72c-0.408-0.184-0.973-0.276-1.692-0.276
		c-0.712,0-1.27,0.092-1.674,0.276C250.959,2.584,250.757,2.824,250.757,3.12z M254.711,10.17c0.412-0.156,0.618-0.37,0.618-0.642
		c0-0.271-0.206-0.486-0.618-0.642c-0.412-0.156-0.97-0.234-1.674-0.234c-0.696,0-1.248,0.078-1.656,0.234
		c-0.407,0.156-0.611,0.37-0.611,0.642c0,0.272,0.204,0.486,0.611,0.642c0.408,0.156,0.96,0.234,1.656,0.234
		C253.742,10.404,254.299,10.326,254.711,10.17z M253.049,5.172c-0.359,0-0.752-0.028-1.176-0.084v0.888h2.292V5.1
		C253.814,5.148,253.442,5.172,253.049,5.172z"/>
</g>
<g>
	<rect x="219.909" y="52.753" fill="none" width="102.006" height="13.889"/>
	<path d="M220.353,56.713c0-0.728,0.262-1.338,0.786-1.83c0.524-0.492,1.178-0.738,1.962-0.738s1.44,0.244,1.968,0.732
		c0.528,0.488,0.792,1.1,0.792,1.836c0,0.752-0.262,1.356-0.786,1.812s-1.182,0.684-1.974,0.684c-0.784,0-1.438-0.23-1.962-0.69
		S220.353,57.457,220.353,56.713z M221.709,56.713c0,0.416,0.128,0.756,0.384,1.02c0.256,0.264,0.592,0.396,1.008,0.396
		c0.424,0,0.766-0.134,1.026-0.402c0.26-0.268,0.39-0.606,0.39-1.014c0-0.408-0.128-0.744-0.384-1.008
		c-0.256-0.264-0.6-0.396-1.032-0.396c-0.408,0-0.742,0.136-1.002,0.408C221.839,55.989,221.709,56.321,221.709,56.713z
		 M229.113,64.129h-7.044v-4.068h7.044V64.129z M227.709,63.037v-1.896h-4.224v1.896H227.709z M229.113,59.545h-1.404v-1.068h-1.5
		l0.036-1.188h1.464v-1.236h-1.464l-0.036-1.188h1.5v-1.296h1.404V59.545z"/>
	<path d="M240.309,58.681v1.104h-9.66v-1.104H240.309z M239.817,56.977l-0.6,1.104c-0.784-0.064-1.526-0.284-2.226-0.66
		c-0.7-0.376-1.202-0.82-1.506-1.332c-0.264,0.528-0.74,0.974-1.428,1.338c-0.688,0.364-1.46,0.582-2.316,0.654l-0.576-1.08
		c0.856-0.04,1.606-0.226,2.25-0.558c0.644-0.332,1.058-0.762,1.242-1.29h-3.012v-1.116h7.704v1.116h-3
		c0.2,0.521,0.638,0.944,1.314,1.272C238.339,56.753,239.057,56.937,239.817,56.977z M239.217,62.269
		c0,0.624-0.328,1.112-0.984,1.464c-0.656,0.352-1.572,0.528-2.748,0.528c-1.184,0-2.104-0.176-2.76-0.528
		c-0.656-0.352-0.984-0.84-0.984-1.464c0-0.608,0.328-1.088,0.984-1.44c0.656-0.352,1.572-0.528,2.748-0.528
		c1.176,0,2.094,0.176,2.754,0.528S239.217,61.661,239.217,62.269z M237.153,62.923c0.416-0.156,0.624-0.37,0.624-0.642
		c0-0.271-0.208-0.486-0.624-0.642c-0.416-0.156-0.976-0.234-1.68-0.234c-0.696,0-1.25,0.078-1.662,0.234
		c-0.412,0.156-0.618,0.37-0.618,0.642c0,0.272,0.206,0.486,0.618,0.642c0.412,0.156,0.966,0.234,1.662,0.234
		C236.177,63.157,236.737,63.079,237.153,62.923z"/>
	<path d="M246.369,59.665h-5.063v-5.34h1.38v1.68h2.279v-1.704h1.404V59.665z M249.645,63.949h-7.188v-3.372h1.393v2.256h5.796
		V63.949z M244.964,58.597v-1.524h-2.279v1.524H244.964z M249.393,53.569v3h1.523v1.164h-1.523v3.552h-1.416v-7.716H249.393z"/>
	<path d="M261.069,58.441v1.116h-9.66v-1.116H261.069z M259.977,62.221c0,0.608-0.328,1.09-0.984,1.446s-1.572,0.534-2.748,0.534
		s-2.092-0.178-2.748-0.534s-0.984-0.838-0.984-1.446c0-0.616,0.328-1.104,0.984-1.464c0.656-0.36,1.568-0.54,2.736-0.54
		c1.176,0,2.094,0.18,2.754,0.54C259.647,61.117,259.977,61.605,259.977,62.221z M253.508,57.367
		c-0.656-0.38-0.983-0.874-0.983-1.482c0-0.607,0.327-1.1,0.983-1.476s1.564-0.564,2.725-0.564c1.168,0,2.082,0.188,2.741,0.564
		c0.66,0.376,0.99,0.868,0.99,1.476c0,0.608-0.328,1.103-0.983,1.482c-0.656,0.38-1.568,0.57-2.736,0.57
		S254.165,57.747,253.508,57.367z M258.525,62.233c0-0.272-0.206-0.49-0.618-0.654s-0.971-0.246-1.674-0.246
		c-0.696,0-1.25,0.082-1.662,0.246s-0.618,0.382-0.618,0.654c0,0.264,0.206,0.472,0.618,0.624c0.412,0.152,0.966,0.228,1.662,0.228
		c0.703,0,1.262-0.076,1.674-0.228C258.319,62.705,258.525,62.497,258.525,62.233z M254.565,55.183
		c-0.4,0.172-0.601,0.406-0.601,0.702c0,0.296,0.202,0.534,0.606,0.714c0.403,0.18,0.958,0.27,1.662,0.27
		c0.695,0,1.252-0.092,1.668-0.276c0.416-0.184,0.624-0.42,0.624-0.708c0-0.295-0.202-0.53-0.606-0.702s-0.966-0.258-1.686-0.258
		C255.52,54.925,254.964,55.011,254.565,55.183z"/>
</g>
<g>
	<rect x="216.714" y="103.081" fill="none" width="102.006" height="13.889"/>
	<path d="M217.158,107.041c0-0.728,0.262-1.338,0.786-1.83c0.524-0.492,1.178-0.738,1.962-0.738s1.44,0.244,1.968,0.732
		c0.528,0.488,0.792,1.1,0.792,1.836c0,0.752-0.262,1.356-0.786,1.812s-1.182,0.684-1.974,0.684c-0.784,0-1.438-0.23-1.962-0.69
		S217.158,107.785,217.158,107.041z M218.514,107.041c0,0.416,0.128,0.756,0.384,1.02c0.256,0.264,0.592,0.396,1.008,0.396
		c0.424,0,0.766-0.134,1.026-0.402c0.26-0.268,0.39-0.606,0.39-1.014c0-0.408-0.128-0.744-0.384-1.008
		c-0.256-0.264-0.6-0.396-1.032-0.396c-0.408,0-0.742,0.136-1.002,0.408C218.644,106.318,218.514,106.65,218.514,107.041z
		 M225.918,114.458h-7.044v-4.068h7.044V114.458z M224.514,113.366v-1.896h-4.224v1.896H224.514z M225.918,109.873h-1.404v-1.068
		h-1.5l0.036-1.188h1.464v-1.236h-1.464l-0.036-1.188h1.5v-1.296h1.404V109.873z"/>
	<path d="M237.114,109.009v1.104h-9.66v-1.104H237.114z M236.622,107.305l-0.6,1.104c-0.784-0.064-1.526-0.284-2.226-0.66
		c-0.7-0.376-1.202-0.82-1.506-1.332c-0.264,0.528-0.74,0.974-1.428,1.338c-0.688,0.364-1.46,0.582-2.316,0.654l-0.576-1.08
		c0.856-0.04,1.606-0.226,2.25-0.558c0.644-0.332,1.058-0.762,1.242-1.29h-3.012v-1.116h7.704v1.116h-3
		c0.2,0.521,0.638,0.944,1.314,1.272C235.144,107.081,235.862,107.265,236.622,107.305z M236.022,112.597
		c0,0.624-0.328,1.112-0.984,1.464c-0.656,0.353-1.572,0.528-2.748,0.528c-1.184,0-2.104-0.176-2.76-0.528
		c-0.656-0.352-0.984-0.84-0.984-1.464c0-0.607,0.328-1.088,0.984-1.439c0.656-0.353,1.572-0.529,2.748-0.529
		c1.176,0,2.094,0.176,2.754,0.529C235.692,111.509,236.022,111.99,236.022,112.597z M233.958,113.252
		c0.416-0.156,0.624-0.37,0.624-0.643c0-0.271-0.208-0.485-0.624-0.642s-0.976-0.234-1.68-0.234c-0.696,0-1.25,0.078-1.662,0.234
		s-0.618,0.37-0.618,0.642c0,0.272,0.206,0.486,0.618,0.643s0.966,0.234,1.662,0.234
		C232.981,113.486,233.542,113.408,233.958,113.252z"/>
	<path d="M247.494,110.149h-9.66v-1.128h4.104v-1.344h1.404v1.344h4.151V110.149z M247.038,107.233l-0.6,1.104
		c-0.769-0.064-1.515-0.288-2.238-0.672c-0.724-0.384-1.234-0.836-1.53-1.356c-0.264,0.544-0.746,1.004-1.445,1.38
		c-0.7,0.376-1.479,0.596-2.334,0.66l-0.576-1.092c0.825-0.04,1.562-0.23,2.214-0.57c0.652-0.34,1.082-0.766,1.29-1.278h-3.012
		v-1.104h7.74v1.104h-3c0.225,0.504,0.681,0.928,1.368,1.272C245.602,107.026,246.31,107.209,247.038,107.233z M246.39,112.597
		c0,0.624-0.326,1.112-0.979,1.464c-0.652,0.353-1.565,0.528-2.742,0.528c-1.176,0-2.092-0.176-2.747-0.528
		c-0.656-0.352-0.985-0.84-0.985-1.464c0-0.607,0.329-1.088,0.985-1.439c0.655-0.353,1.567-0.529,2.735-0.529
		c1.176,0,2.092,0.176,2.748,0.529C246.062,111.509,246.39,111.99,246.39,112.597z M244.326,113.252
		c0.416-0.156,0.624-0.37,0.624-0.643c0-0.271-0.208-0.485-0.624-0.642s-0.972-0.234-1.668-0.234s-1.248,0.078-1.656,0.234
		c-0.407,0.156-0.611,0.37-0.611,0.642c0,0.272,0.204,0.486,0.611,0.643c0.408,0.156,0.96,0.234,1.656,0.234
		S243.91,113.408,244.326,113.252z"/>
	<path d="M253.709,104.353c0,0.728-0.138,1.396-0.414,2.004c-0.275,0.608-0.646,1.118-1.109,1.53s-0.973,0.754-1.524,1.026
		s-1.14,0.472-1.764,0.6l-0.685-1.14c0.984-0.136,1.84-0.46,2.568-0.972c0.728-0.512,1.184-1.14,1.368-1.884h-3.42v-1.164H253.709z
		 M257.381,114.517h-7.355v-2.88h5.628v-0.744h-5.688v-1.116h7.08v2.88h-5.604v0.731h5.939V114.517z M257.045,109.249h-1.392v-0.912
		h-2.004v-1.056h2.004v-0.9h-1.812v-1.056h1.812v-1.428h1.392V109.249z"/>
</g>
<g>
	<rect x="314.027" y="52.753" fill="none" width="102.006" height="13.889"/>
	<path d="M319.704,59.425H314.7v-5.04h5.004V59.425z M323.003,63.949h-7.188v-3.42h1.403v2.304h5.784V63.949z M318.312,58.321
		v-2.844h-2.221v2.844H318.312z M322.751,53.569v3.048h1.524v1.164h-1.524v3.54h-1.428v-7.752H322.751z"/>
	<path d="M331.164,58.309l-0.804,1.092c-0.44-0.176-0.893-0.466-1.356-0.87c-0.464-0.404-0.804-0.838-1.02-1.302
		c-0.152,0.528-0.475,1.022-0.967,1.482c-0.491,0.46-0.998,0.778-1.518,0.954l-0.84-1.116c0.792-0.288,1.42-0.734,1.884-1.338
		s0.696-1.302,0.696-2.094v-1.056h1.452v0.984c0,0.784,0.241,1.468,0.726,2.052S330.484,58.085,331.164,58.309z M333.683,62.101
		c0,0.656-0.323,1.178-0.972,1.566c-0.648,0.388-1.552,0.582-2.712,0.582c-1.136,0-2.026-0.194-2.67-0.582
		c-0.645-0.388-0.966-0.91-0.966-1.566c0-0.672,0.319-1.202,0.96-1.59c0.64-0.388,1.531-0.582,2.676-0.582
		c1.16,0,2.063,0.194,2.712,0.582C333.36,60.899,333.683,61.429,333.683,62.101z M330,61.057c-0.688,0-1.227,0.092-1.614,0.276
		s-0.582,0.44-0.582,0.768c0,0.32,0.194,0.57,0.582,0.75c0.388,0.18,0.926,0.27,1.614,0.27c0.712,0,1.262-0.09,1.65-0.27
		c0.388-0.18,0.582-0.43,0.582-0.75c0-0.328-0.194-0.584-0.582-0.768C331.261,61.149,330.711,61.057,330,61.057z M333.612,59.809
		h-1.404v-2.904h-1.824v-1.116h1.824v-2.22h1.404V59.809z"/>
	<path d="M335.231,56.713c0-0.728,0.263-1.338,0.786-1.83c0.524-0.492,1.178-0.738,1.962-0.738s1.44,0.244,1.969,0.732
		c0.527,0.488,0.792,1.1,0.792,1.836c0,0.752-0.263,1.356-0.786,1.812c-0.524,0.456-1.183,0.684-1.975,0.684
		c-0.784,0-1.438-0.23-1.962-0.69C335.494,58.059,335.231,57.457,335.231,56.713z M336.587,56.713c0,0.416,0.128,0.756,0.384,1.02
		s0.592,0.396,1.008,0.396c0.424,0,0.767-0.134,1.026-0.402s0.39-0.606,0.39-1.014c0-0.408-0.128-0.744-0.384-1.008
		c-0.256-0.264-0.6-0.396-1.032-0.396c-0.407,0-0.742,0.136-1.002,0.408C336.717,55.989,336.587,56.321,336.587,56.713z
		 M343.992,64.129h-7.044v-4.068h7.044V64.129z M342.587,63.037v-1.896h-4.224v1.896H342.587z M343.992,59.545h-1.404v-1.068h-1.5
		l0.036-1.188h1.464v-1.236h-1.464l-0.036-1.188h1.5v-1.296h1.404V59.545z"/>
	<path d="M355.187,58.681v1.104h-9.66v-1.104H355.187z M354.695,56.977l-0.6,1.104c-0.784-0.064-1.526-0.284-2.226-0.66
		c-0.7-0.376-1.202-0.82-1.507-1.332c-0.264,0.528-0.739,0.974-1.428,1.338c-0.688,0.364-1.46,0.582-2.315,0.654l-0.576-1.08
		c0.855-0.04,1.605-0.226,2.25-0.558c0.644-0.332,1.058-0.762,1.242-1.29h-3.013v-1.116h7.704v1.116h-3
		c0.2,0.521,0.638,0.944,1.314,1.272C353.217,56.753,353.935,56.937,354.695,56.977z M354.095,62.269
		c0,0.624-0.328,1.112-0.984,1.464c-0.655,0.352-1.571,0.528-2.748,0.528c-1.184,0-2.104-0.176-2.76-0.528s-0.983-0.84-0.983-1.464
		c0-0.608,0.327-1.088,0.983-1.44s1.572-0.528,2.748-0.528s2.094,0.176,2.754,0.528S354.095,61.661,354.095,62.269z M352.031,62.923
		c0.416-0.156,0.624-0.37,0.624-0.642c0-0.271-0.208-0.486-0.624-0.642c-0.416-0.156-0.976-0.234-1.68-0.234
		c-0.696,0-1.25,0.078-1.662,0.234c-0.412,0.156-0.618,0.37-0.618,0.642c0,0.272,0.206,0.486,0.618,0.642
		c0.412,0.156,0.966,0.234,1.662,0.234C351.055,63.157,351.615,63.079,352.031,62.923z"/>
</g>
<g>
	<rect x="400.633" y="52.753" fill="none" width="102.006" height="13.889"/>
	<path d="M406.573,61.621h-5.052v-7.188h1.392v2.568h2.244v-2.592h1.416V61.621z M405.157,60.517v-2.412h-2.244v2.412H405.157z
		 M409.825,64.261h-1.392V53.569h1.392V64.261z"/>
	<path d="M416.689,59.425h-5.004v-5.04h5.004V59.425z M419.989,63.949h-7.188v-3.42h1.403v2.304h5.784V63.949z M415.297,58.321
		v-2.844h-2.221v2.844H415.297z M419.737,53.569v3.048h1.524v1.164h-1.524v3.54h-1.428v-7.752H419.737z"/>
	<path d="M421.405,64.069l2.868-10.188h1.2l-2.856,10.188H421.405z"/>
	<path d="M427.789,58.129c1.832,0,3.24-0.108,4.225-0.324l0.155,1.08c-1.096,0.248-2.672,0.372-4.728,0.372h-1.044v-4.884h4.764
		v1.116h-3.372V58.129z M434.533,62.101c0,0.656-0.324,1.176-0.972,1.56c-0.648,0.384-1.548,0.576-2.7,0.576
		c-1.145,0-2.038-0.192-2.682-0.576c-0.645-0.384-0.967-0.904-0.967-1.56c0-0.672,0.322-1.2,0.967-1.584
		c0.644-0.384,1.537-0.576,2.682-0.576c1.16,0,2.062,0.192,2.706,0.576C434.21,60.901,434.533,61.429,434.533,62.101z
		 M432.499,62.851c0.388-0.18,0.582-0.43,0.582-0.75s-0.194-0.572-0.582-0.756s-0.934-0.276-1.638-0.276
		c-0.696,0-1.238,0.092-1.626,0.276c-0.389,0.184-0.582,0.436-0.582,0.756s0.193,0.57,0.582,0.75c0.388,0.18,0.93,0.27,1.626,0.27
		C431.565,63.121,432.111,63.031,432.499,62.851z M435.913,57.313h-1.512v2.508h-1.416v-6.252h1.416v2.604h1.512V57.313z"/>
	<path d="M446.088,62.917h-9.66v-1.092h2.425v-2.232h1.403v2.232h1.968v-2.232h1.404v2.232h2.46V62.917z M444.949,58.897h-7.332
		v-4.536h1.392v3.432h5.94V58.897z"/>
	<path d="M452.184,59.209h-5.027v-5.028h1.403v1.5h2.232v-1.524h1.392V59.209z M455.724,62.101c0,0.656-0.323,1.178-0.972,1.566
		c-0.648,0.388-1.552,0.582-2.712,0.582c-1.136,0-2.026-0.194-2.67-0.582c-0.645-0.388-0.966-0.91-0.966-1.566
		c0-0.672,0.319-1.202,0.96-1.59c0.64-0.388,1.531-0.582,2.676-0.582c1.16,0,2.063,0.194,2.712,0.582
		C455.401,60.899,455.724,61.429,455.724,62.101z M450.792,58.105v-1.332h-2.232v1.332H450.792z M452.041,61.057
		c-0.688,0-1.229,0.092-1.62,0.276s-0.588,0.44-0.588,0.768c0,0.32,0.196,0.57,0.588,0.75c0.392,0.18,0.932,0.27,1.62,0.27
		c0.712,0,1.262-0.09,1.65-0.27c0.388-0.18,0.582-0.43,0.582-0.75c0-0.328-0.194-0.584-0.582-0.768
		C453.302,61.149,452.752,61.057,452.041,61.057z M455.64,53.569v6.24h-1.392v-1.452h-1.524v-1.092h1.524v-1.152h-1.524v-1.092
		h1.524v-1.452H455.64z"/>
</g>
<g>
	<g>
		<line fill="none" stroke="#C30F23" stroke-miterlimit="10" x1="237.604" y1="20.04" x2="237.604" y2="39.332"/>
		<g>
			<rect x="234.354" y="38.832" fill="#C30F23" width="6.5" height="1"/>
		</g>
	</g>
</g>
<g>
	<g>
		
			<line fill="none" stroke="#000000" stroke-width="0.75" stroke-miterlimit="10" x1="75.417" y1="59.697" x2="97.155" y2="59.697"/>
		<g>
			<polygon points="102.45,59.697 94.988,62.747 96.759,59.697 94.988,56.649 			"/>
		</g>
	</g>
</g>
<g>
	<g>
		
			<line fill="none" stroke="#000000" stroke-width="0.75" stroke-miterlimit="10" x1="267.717" y1="59.697" x2="302.005" y2="59.697"/>
		<g>
			<polygon points="307.3,59.697 299.838,62.747 301.609,59.697 299.838,56.649 			"/>
		</g>
	</g>
</g>
<g>
	<g>
		
			<line fill="none" stroke="#000000" stroke-width="0.75" stroke-miterlimit="10" x1="180.473" y1="59.697" x2="214.761" y2="59.697"/>
		<g>
			<polygon points="220.056,59.697 212.594,62.747 214.365,59.697 212.594,56.649 			"/>
		</g>
	</g>
</g>
<g>
	<g>
		
			<line fill="none" stroke="#000000" stroke-width="0.75" stroke-miterlimit="10" x1="357.994" y1="59.697" x2="392.282" y2="59.697"/>
		<g>
			<polygon points="397.578,59.697 390.116,62.747 391.886,59.697 390.116,56.649 			"/>
		</g>
	</g>
</g>
<g>
	<g>
		
			<line fill="none" stroke="#000000" stroke-width="0.75" stroke-miterlimit="10" x1="180.473" y1="40.067" x2="209.928" y2="22.515"/>
		<g>
			<polygon points="214.476,19.804 209.627,26.243 209.587,22.718 206.506,21.005 			"/>
		</g>
	</g>
</g>
<g>
	<g>
		<line fill="none" stroke="#C30F23" stroke-miterlimit="10" x1="237.604" y1="71.545" x2="237.604" y2="93.283"/>
		<g>
			<polygon fill="#C30F23" points="237.604,98.579 234.555,91.117 237.604,92.887 240.652,91.117 			"/>
		</g>
	</g>
</g>
<g>
</g>
<g>
</g>
<g>
</g>
<g>
</g>
<g>
</g>
<g>
</g>
<g>
</g>
<g>
</g>
</svg>
