<?xml version="1.0" encoding="utf-8"?>
<!-- Generator: Adobe Illustrator 28.0.0, SVG Export Plug-In . SVG Version: 6.00 Build 0)  -->
<svg version="1.1" id="레이어_1" xmlns="http://www.w3.org/2000/svg" xmlns:xlink="http://www.w3.org/1999/xlink" x="0px"
	 y="0px" viewBox="0 0 231.686 153.959" enable-background="new 0 0 231.686 153.959" xml:space="preserve">
<polyline fill="none" stroke="#8E8CA4" stroke-miterlimit="10" points="24.346,37.866 31.024,40.576 36.733,43.189 42.733,44.35 
	48.249,48.124 54.637,47.737 66.443,50.447 78.056,47.543 89.959,49.576 102.056,48.318 114.153,45.802 125.475,42.318 
	136.411,35.737 143.959,29.931 178.798,22.866 202.314,23.447 "/>
<polyline fill="none" stroke="#676981" stroke-miterlimit="10" points="24.637,39.007 31.024,45.007 36.733,50.523 42.249,54.877 
	54.346,62.91 65.959,66.49 78.056,68.329 90.056,69.974 102.153,70.361 114.153,68.523 125.282,66.974 136.12,55.458 
	143.379,50.039 179.185,42.587 202.024,40.942 "/>
<polyline fill="none" stroke="#42476E" stroke-miterlimit="10" points="24.491,38.227 30.975,44.614 36.782,50.13 43.072,56.659 
	55.072,67.549 66.588,73.549 78.491,76.646 90.491,79.259 102.104,81.581 114.201,82.065 126.008,82.065 136.556,70.839 
	143.62,64.549 179.233,46.259 202.169,44.227 "/>
<polyline fill="none" stroke="#1B2C59" stroke-miterlimit="10" points="24.637,38.732 30.927,46.958 33.826,50.736 37.314,55.281 
	43.411,62.442 49.314,69.649 55.411,76.281 66.927,84.119 78.637,90.7 90.733,94.958 102.249,98.248 114.056,99.99 126.153,99.99 
	136.508,88.281 143.766,80.926 179.766,63.023 203.766,57.99 "/>
<polyline fill="none" stroke="#000000" stroke-miterlimit="10" points="24.491,38.227 30.879,49.786 43.266,68.754 49.362,77.851 
	55.072,86.993 67.266,100.593 78.879,111.625 90.782,121.303 102.588,128.657 114.056,133.593 126.685,136.883 136.556,124.593 
	144.008,114.915 179.911,90.335 203.62,81.915 "/>
<polyline fill="none" stroke="#000000" stroke-width="0.5" stroke-miterlimit="10" points="211.678,2.426 211.678,147.974 
	20.066,147.974 20.066,2.426 "/>
<line fill="none" stroke="#000000" stroke-width="0.5" stroke-miterlimit="10" x1="17.614" y1="2.426" x2="20.066" y2="2.426"/>
<line fill="none" stroke="#000000" stroke-width="0.5" stroke-miterlimit="10" x1="17.614" y1="20.261" x2="20.066" y2="20.261"/>
<line fill="none" stroke="#000000" stroke-width="0.5" stroke-miterlimit="10" x1="17.614" y1="38.095" x2="20.066" y2="38.095"/>
<line fill="none" stroke="#000000" stroke-width="0.5" stroke-miterlimit="10" x1="17.614" y1="55.93" x2="20.066" y2="55.93"/>
<line fill="none" stroke="#000000" stroke-width="0.5" stroke-miterlimit="10" x1="17.614" y1="73.765" x2="20.066" y2="73.765"/>
<line fill="none" stroke="#000000" stroke-width="0.5" stroke-miterlimit="10" x1="17.614" y1="91.599" x2="20.066" y2="91.599"/>
<line fill="none" stroke="#000000" stroke-width="0.5" stroke-miterlimit="10" x1="17.614" y1="109.434" x2="20.066" y2="109.434"/>
<line fill="none" stroke="#000000" stroke-width="0.5" stroke-miterlimit="10" x1="17.614" y1="127.269" x2="20.066" y2="127.269"/>
<line fill="none" stroke="#000000" stroke-width="0.5" stroke-miterlimit="10" x1="17.614" y1="145.103" x2="20.066" y2="145.103"/>
<g>
	<path d="M11.863,3.372V1.168l-0.448,0.084V0.92l0.728-0.32h0.292v2.772H11.863z"/>
	<path d="M14.083,3.404c-0.331,0-0.597-0.109-0.798-0.328c-0.201-0.219-0.302-0.553-0.302-1.004V1.928c0-0.24,0.03-0.45,0.09-0.63
		c0.06-0.18,0.143-0.322,0.248-0.426s0.223-0.181,0.352-0.23s0.269-0.074,0.418-0.074c0.32,0,0.583,0.11,0.788,0.33
		c0.205,0.22,0.308,0.56,0.308,1.018v0.14c0,0.464-0.104,0.805-0.31,1.022C14.67,3.295,14.405,3.404,14.083,3.404z M14.083,2.98
		c0.176,0,0.306-0.07,0.39-0.21s0.126-0.367,0.126-0.682V1.916c0-0.616-0.17-0.924-0.512-0.924c-0.173,0-0.301,0.072-0.384,0.216
		c-0.083,0.144-0.124,0.371-0.124,0.68V2.06c0,0.312,0.041,0.543,0.122,0.694C13.782,2.905,13.91,2.98,14.083,2.98z"/>
</g>
<g>
	<path d="M216.543,6.061V3.856l-0.448,0.084V3.608l0.729-0.32h0.292v2.772H216.543z"/>
	<path d="M218.763,6.092c-0.331,0-0.597-0.109-0.798-0.328s-0.302-0.553-0.302-1.004V4.617c0-0.24,0.029-0.45,0.09-0.63
		c0.06-0.18,0.143-0.322,0.248-0.426s0.223-0.181,0.352-0.23c0.13-0.049,0.269-0.074,0.418-0.074c0.32,0,0.583,0.11,0.788,0.33
		c0.205,0.22,0.309,0.56,0.309,1.018v0.14c0,0.464-0.104,0.805-0.311,1.022S219.085,6.092,218.763,6.092z M218.763,5.668
		c0.176,0,0.306-0.07,0.39-0.21s0.126-0.367,0.126-0.682V4.604c0-0.616-0.17-0.924-0.512-0.924c-0.173,0-0.301,0.072-0.384,0.216
		s-0.124,0.371-0.124,0.68v0.172c0,0.312,0.041,0.543,0.122,0.694C218.462,5.593,218.59,5.668,218.763,5.668z"/>
</g>
<g>
	<path d="M217.263,39.218c-0.331,0-0.597-0.109-0.798-0.328s-0.302-0.553-0.302-1.004v-0.144c0-0.24,0.029-0.45,0.09-0.63
		c0.06-0.18,0.143-0.322,0.248-0.426s0.223-0.181,0.352-0.23c0.13-0.049,0.269-0.074,0.418-0.074c0.32,0,0.583,0.11,0.788,0.33
		c0.205,0.22,0.309,0.56,0.309,1.018v0.14c0,0.464-0.104,0.805-0.311,1.022S217.585,39.218,217.263,39.218z M217.263,38.794
		c0.176,0,0.306-0.07,0.39-0.21s0.126-0.367,0.126-0.682V37.73c0-0.616-0.17-0.924-0.512-0.924c-0.173,0-0.301,0.072-0.384,0.216
		s-0.124,0.371-0.124,0.68v0.172c0,0.312,0.041,0.543,0.122,0.694C216.962,38.719,217.09,38.794,217.263,38.794z"/>
</g>
<g>
	<path d="M216.175,72.938v-0.424h1.14v0.424H216.175z"/>
	<path d="M218.059,73.854v-2.204l-0.447,0.084v-0.332l0.728-0.32h0.292v2.772H218.059z"/>
	<path d="M220.28,73.885c-0.331,0-0.597-0.109-0.799-0.328c-0.201-0.219-0.302-0.553-0.302-1.004V72.41c0-0.24,0.03-0.45,0.09-0.63
		c0.061-0.18,0.143-0.322,0.248-0.426s0.223-0.181,0.353-0.23c0.129-0.049,0.269-0.074,0.418-0.074c0.319,0,0.582,0.11,0.788,0.33
		c0.205,0.22,0.308,0.56,0.308,1.018v0.14c0,0.464-0.104,0.805-0.31,1.022C220.867,73.777,220.602,73.885,220.28,73.885z
		 M220.28,73.461c0.176,0,0.306-0.07,0.39-0.21s0.126-0.367,0.126-0.682v-0.172c0-0.616-0.171-0.924-0.512-0.924
		c-0.174,0-0.302,0.072-0.385,0.216c-0.082,0.144-0.124,0.371-0.124,0.68v0.172c0,0.312,0.041,0.543,0.122,0.694
		C219.979,73.386,220.106,73.461,220.28,73.461z"/>
</g>
<g>
	<path d="M216.175,106.948v-0.424h1.14v0.424H216.175z"/>
	<path d="M217.687,107.848v-0.328l0.477-0.508c0.157-0.168,0.277-0.301,0.359-0.397c0.083-0.098,0.161-0.211,0.234-0.34
		c0.073-0.13,0.11-0.245,0.11-0.347c0-0.157-0.044-0.269-0.13-0.334c-0.087-0.065-0.219-0.098-0.395-0.098
		c-0.16,0-0.344,0.055-0.552,0.164l-0.072-0.404c0.232-0.131,0.496-0.196,0.792-0.196c0.312,0,0.548,0.067,0.706,0.202
		c0.159,0.135,0.238,0.33,0.238,0.586c0,0.118-0.023,0.237-0.07,0.358s-0.117,0.244-0.212,0.368s-0.171,0.219-0.228,0.286
		c-0.058,0.066-0.14,0.154-0.246,0.264l-0.284,0.288h1.048v0.436H217.687z"/>
	<path d="M220.923,107.896c-0.331,0-0.597-0.108-0.798-0.327s-0.302-0.554-0.302-1.005v-0.144c0-0.24,0.029-0.45,0.09-0.63
		c0.06-0.18,0.143-0.322,0.248-0.426c0.105-0.104,0.223-0.181,0.352-0.23c0.13-0.049,0.269-0.074,0.418-0.074
		c0.32,0,0.583,0.11,0.788,0.33c0.205,0.221,0.309,0.56,0.309,1.019v0.14c0,0.464-0.104,0.805-0.311,1.022
		C221.51,107.787,221.246,107.896,220.923,107.896z M220.923,107.472c0.176,0,0.306-0.069,0.39-0.21
		c0.084-0.14,0.126-0.367,0.126-0.682v-0.172c0-0.616-0.17-0.924-0.512-0.924c-0.173,0-0.301,0.071-0.384,0.216
		c-0.083,0.144-0.124,0.37-0.124,0.68v0.172c0,0.312,0.041,0.544,0.122,0.694S220.75,107.472,220.923,107.472z"/>
</g>
<g>
	<path d="M216.175,138.874v-0.424h1.14v0.424H216.175z"/>
	<path d="M218.439,139.814c-0.162,0-0.323-0.019-0.481-0.057c-0.159-0.037-0.279-0.082-0.362-0.136l0.088-0.399
		c0.066,0.042,0.166,0.078,0.298,0.107c0.133,0.029,0.252,0.044,0.358,0.044c0.344,0,0.516-0.143,0.516-0.428
		c0-0.134-0.042-0.229-0.128-0.288c-0.085-0.059-0.212-0.091-0.38-0.096l-0.3-0.008v-0.396l0.268-0.008
		c0.152-0.006,0.271-0.04,0.356-0.104c0.085-0.063,0.128-0.155,0.128-0.275c0-0.123-0.037-0.211-0.112-0.265
		c-0.074-0.053-0.187-0.08-0.336-0.08c-0.189,0-0.384,0.043-0.584,0.129l-0.06-0.412c0.088-0.046,0.207-0.083,0.357-0.112
		c0.151-0.029,0.299-0.044,0.442-0.044c0.264,0,0.472,0.059,0.624,0.176s0.228,0.287,0.228,0.508c0,0.315-0.161,0.531-0.483,0.648
		c0.384,0.072,0.576,0.295,0.576,0.668c0,0.259-0.09,0.461-0.269,0.607C219.004,139.741,218.756,139.814,218.439,139.814z"/>
	<path d="M220.923,139.822c-0.331,0-0.597-0.109-0.798-0.328s-0.302-0.553-0.302-1.004v-0.144c0-0.24,0.029-0.45,0.09-0.631
		c0.06-0.18,0.143-0.321,0.248-0.426c0.105-0.104,0.223-0.181,0.352-0.229c0.13-0.05,0.269-0.074,0.418-0.074
		c0.32,0,0.583,0.11,0.788,0.33s0.309,0.56,0.309,1.018v0.141c0,0.464-0.104,0.805-0.311,1.021
		C221.51,139.714,221.246,139.822,220.923,139.822z M220.923,139.398c0.176,0,0.306-0.07,0.39-0.21
		c0.084-0.141,0.126-0.367,0.126-0.683v-0.172c0-0.616-0.17-0.924-0.512-0.924c-0.173,0-0.301,0.072-0.384,0.216
		c-0.083,0.145-0.124,0.371-0.124,0.681v0.172c0,0.312,0.041,0.543,0.122,0.693C220.623,139.323,220.75,139.398,220.923,139.398z"/>
</g>
<g>
	<path d="M14.989,21.045c-0.183,0.172-0.43,0.258-0.742,0.258s-0.576-0.062-0.792-0.184l0.096-0.424
		c0.197,0.101,0.378,0.152,0.544,0.152c0.184,0,0.327-0.04,0.43-0.12c0.103-0.08,0.154-0.196,0.154-0.348
		c0-0.307-0.187-0.46-0.56-0.46c-0.075,0-0.167,0.016-0.278,0.048c-0.11,0.032-0.202,0.066-0.274,0.104l0.104-1.552h1.456v0.428
		H14.09l-0.04,0.612c0.088-0.032,0.194-0.048,0.32-0.048c0.283,0,0.502,0.074,0.658,0.222c0.156,0.148,0.234,0.366,0.234,0.654
		C15.263,20.654,15.171,20.873,14.989,21.045z"/>
</g>
<g>
	<path d="M14.083,39.218c-0.331,0-0.597-0.109-0.798-0.328c-0.201-0.219-0.302-0.553-0.302-1.004v-0.144c0-0.24,0.03-0.45,0.09-0.63
		c0.06-0.18,0.143-0.322,0.248-0.426s0.223-0.181,0.352-0.23s0.269-0.074,0.418-0.074c0.32,0,0.583,0.11,0.788,0.33
		c0.205,0.22,0.308,0.56,0.308,1.018v0.14c0,0.464-0.104,0.805-0.31,1.022C14.67,39.11,14.405,39.218,14.083,39.218z M14.083,38.794
		c0.176,0,0.306-0.07,0.39-0.21s0.126-0.367,0.126-0.682V37.73c0-0.616-0.17-0.924-0.512-0.924c-0.173,0-0.301,0.072-0.384,0.216
		c-0.083,0.144-0.124,0.371-0.124,0.68v0.172c0,0.312,0.041,0.543,0.122,0.694C13.782,38.719,13.91,38.794,14.083,38.794z"/>
</g>
<g>
	<path d="M12.011,56.178v-0.424h1.14v0.424H12.011z"/>
	<path d="M14.989,56.86c-0.183,0.172-0.43,0.258-0.742,0.258s-0.576-0.062-0.792-0.184l0.096-0.424
		c0.197,0.101,0.378,0.152,0.544,0.152c0.184,0,0.327-0.04,0.43-0.12c0.103-0.08,0.154-0.196,0.154-0.348
		c0-0.307-0.187-0.46-0.56-0.46c-0.075,0-0.167,0.016-0.278,0.048c-0.11,0.032-0.202,0.066-0.274,0.104l0.104-1.552h1.456v0.428
		h-1.036l-0.04,0.612c0.088-0.032,0.194-0.048,0.32-0.048c0.283,0,0.502,0.074,0.658,0.222c0.156,0.148,0.234,0.366,0.234,0.654
		C15.263,56.469,15.172,56.688,14.989,56.86z"/>
</g>
<g>
	<path d="M9.978,74.085v-0.424h1.14v0.424H9.978z"/>
	<path d="M11.862,75.001v-2.204l-0.448,0.084v-0.332l0.728-0.32h0.292v2.772H11.862z"/>
	<path d="M14.083,75.033c-0.331,0-0.597-0.109-0.798-0.328c-0.201-0.219-0.302-0.553-0.302-1.004v-0.144c0-0.24,0.03-0.45,0.09-0.63
		c0.06-0.18,0.143-0.322,0.248-0.426s0.223-0.181,0.352-0.23s0.269-0.074,0.418-0.074c0.32,0,0.583,0.11,0.788,0.33
		c0.205,0.22,0.308,0.56,0.308,1.018v0.14c0,0.464-0.104,0.805-0.31,1.022C14.669,74.924,14.405,75.033,14.083,75.033z
		 M14.083,74.609c0.176,0,0.306-0.07,0.39-0.21s0.126-0.367,0.126-0.682v-0.172c0-0.616-0.17-0.924-0.512-0.924
		c-0.173,0-0.301,0.072-0.384,0.216c-0.083,0.144-0.124,0.371-0.124,0.68v0.172c0,0.312,0.041,0.543,0.122,0.694
		C13.782,74.534,13.909,74.609,14.083,74.609z"/>
</g>
<g>
	<path d="M10.51,91.992v-0.424h1.14v0.424H10.51z"/>
	<path d="M12.395,92.908v-2.204l-0.448,0.084v-0.332l0.728-0.319h0.292v2.771H12.395z"/>
	<path d="M14.989,92.675c-0.183,0.172-0.43,0.258-0.742,0.258s-0.576-0.062-0.792-0.185l0.096-0.424
		c0.197,0.102,0.378,0.152,0.544,0.152c0.184,0,0.327-0.04,0.43-0.12s0.154-0.196,0.154-0.348c0-0.307-0.187-0.46-0.56-0.46
		c-0.075,0-0.167,0.016-0.278,0.048c-0.11,0.031-0.202,0.066-0.274,0.104l0.104-1.552h1.456v0.428H14.09l-0.04,0.612
		c0.088-0.032,0.194-0.048,0.32-0.048c0.283,0,0.502,0.074,0.658,0.222c0.156,0.148,0.234,0.366,0.234,0.654
		C15.263,92.283,15.171,92.502,14.989,92.675z"/>
</g>
<g>
	<path d="M9.334,109.899v-0.424h1.14v0.424H9.334z"/>
	<path d="M10.846,110.8v-0.328l0.476-0.508c0.157-0.168,0.277-0.301,0.36-0.398c0.083-0.097,0.161-0.21,0.234-0.34
		c0.073-0.129,0.11-0.244,0.11-0.346c0-0.157-0.043-0.269-0.13-0.334c-0.087-0.065-0.218-0.099-0.394-0.099
		c-0.16,0-0.344,0.055-0.552,0.164l-0.072-0.403c0.232-0.131,0.496-0.196,0.792-0.196c0.312,0,0.547,0.067,0.706,0.202
		s0.238,0.33,0.238,0.586c0,0.117-0.023,0.236-0.07,0.357c-0.047,0.122-0.118,0.244-0.212,0.368
		c-0.095,0.124-0.171,0.22-0.228,0.286c-0.058,0.066-0.14,0.155-0.246,0.264l-0.284,0.288h1.048v0.437H10.846z"/>
	<path d="M14.083,110.848c-0.331,0-0.597-0.109-0.798-0.328c-0.201-0.219-0.302-0.553-0.302-1.004v-0.144
		c0-0.24,0.03-0.45,0.09-0.631c0.06-0.18,0.143-0.321,0.248-0.426c0.105-0.104,0.223-0.181,0.352-0.229
		c0.129-0.05,0.269-0.074,0.418-0.074c0.32,0,0.583,0.11,0.788,0.33c0.205,0.22,0.308,0.56,0.308,1.018v0.141
		c0,0.464-0.104,0.805-0.31,1.021C14.669,110.739,14.405,110.848,14.083,110.848z M14.083,110.424c0.176,0,0.306-0.07,0.39-0.21
		c0.084-0.141,0.126-0.367,0.126-0.683v-0.172c0-0.616-0.17-0.924-0.512-0.924c-0.173,0-0.301,0.072-0.384,0.216
		c-0.083,0.145-0.124,0.371-0.124,0.681v0.172c0,0.312,0.041,0.543,0.122,0.693C13.782,110.349,13.909,110.424,14.083,110.424z"/>
</g>
<g>
	<path d="M9.866,127.808v-0.424h1.14v0.424H9.866z"/>
	<path d="M11.378,128.707v-0.328l0.476-0.508c0.157-0.168,0.277-0.301,0.36-0.397c0.083-0.098,0.161-0.211,0.234-0.34
		c0.073-0.13,0.11-0.245,0.11-0.347c0-0.157-0.043-0.269-0.13-0.334c-0.087-0.065-0.218-0.098-0.394-0.098
		c-0.16,0-0.344,0.055-0.552,0.164l-0.072-0.404c0.232-0.131,0.496-0.196,0.792-0.196c0.312,0,0.547,0.067,0.706,0.202
		s0.238,0.33,0.238,0.586c0,0.118-0.023,0.237-0.07,0.358c-0.047,0.121-0.118,0.244-0.212,0.368
		c-0.095,0.124-0.171,0.219-0.228,0.286c-0.058,0.066-0.14,0.154-0.246,0.264l-0.284,0.288h1.048v0.436H11.378z"/>
	<path d="M14.989,128.489c-0.183,0.172-0.43,0.258-0.742,0.258s-0.576-0.062-0.792-0.184l0.096-0.424
		c0.197,0.101,0.378,0.151,0.544,0.151c0.184,0,0.327-0.04,0.43-0.12c0.103-0.079,0.154-0.195,0.154-0.348
		c0-0.307-0.187-0.46-0.56-0.46c-0.075,0-0.167,0.016-0.278,0.048c-0.11,0.032-0.202,0.066-0.274,0.104l0.104-1.553h1.456v0.429
		H14.09l-0.04,0.611c0.088-0.031,0.194-0.048,0.32-0.048c0.283,0,0.502,0.074,0.658,0.223c0.156,0.147,0.234,0.365,0.234,0.653
		C15.263,128.098,15.171,128.317,14.989,128.489z"/>
</g>
<g>
	<path d="M10.232,145.714v-0.424h1.14v0.424H10.232z"/>
	<path d="M12.496,146.654c-0.163,0-0.323-0.019-0.482-0.057c-0.159-0.037-0.279-0.082-0.362-0.136l0.088-0.399
		c0.066,0.042,0.166,0.078,0.298,0.107c0.132,0.029,0.251,0.044,0.358,0.044c0.344,0,0.516-0.143,0.516-0.428
		c0-0.134-0.042-0.229-0.128-0.288s-0.212-0.091-0.38-0.096l-0.3-0.008v-0.396l0.268-0.008c0.152-0.006,0.271-0.04,0.356-0.104
		c0.085-0.063,0.128-0.155,0.128-0.275c0-0.123-0.038-0.211-0.112-0.265c-0.075-0.053-0.187-0.08-0.336-0.08
		c-0.189,0-0.384,0.043-0.584,0.129l-0.06-0.412c0.088-0.046,0.208-0.083,0.358-0.112c0.151-0.029,0.298-0.044,0.442-0.044
		c0.264,0,0.472,0.059,0.624,0.176c0.152,0.117,0.228,0.287,0.228,0.508c0,0.315-0.161,0.531-0.484,0.648
		c0.384,0.072,0.576,0.295,0.576,0.668c0,0.259-0.089,0.461-0.268,0.607C13.062,146.581,12.813,146.654,12.496,146.654z"/>
	<path d="M14.98,146.662c-0.331,0-0.597-0.109-0.798-0.328c-0.201-0.219-0.302-0.553-0.302-1.004v-0.144
		c0-0.24,0.03-0.45,0.09-0.631c0.06-0.18,0.143-0.321,0.248-0.426c0.105-0.104,0.223-0.181,0.352-0.229
		c0.129-0.05,0.269-0.074,0.418-0.074c0.32,0,0.583,0.11,0.788,0.33c0.205,0.22,0.308,0.56,0.308,1.018v0.141
		c0,0.464-0.104,0.805-0.31,1.021C15.567,146.554,15.303,146.662,14.98,146.662z M14.98,146.238c0.176,0,0.306-0.07,0.39-0.21
		c0.084-0.141,0.126-0.367,0.126-0.683v-0.172c0-0.616-0.17-0.924-0.512-0.924c-0.173,0-0.301,0.072-0.384,0.216
		c-0.083,0.145-0.124,0.371-0.124,0.681v0.172c0,0.312,0.041,0.543,0.122,0.693C14.68,146.163,14.807,146.238,14.98,146.238z"/>
</g>
<line fill="none" stroke="#000000" stroke-miterlimit="10" x1="211.678" y1="139.09" x2="213.808" y2="139.09"/>
<line fill="none" stroke="#000000" stroke-miterlimit="10" x1="211.678" y1="106.297" x2="213.808" y2="106.297"/>
<line fill="none" stroke="#000000" stroke-miterlimit="10" x1="211.678" y1="72.877" x2="213.808" y2="72.877"/>
<line fill="none" stroke="#000000" stroke-miterlimit="10" x1="211.678" y1="38.168" x2="213.808" y2="38.168"/>
<line fill="none" stroke="#000000" stroke-miterlimit="10" x1="211.678" y1="5.208" x2="213.808" y2="5.208"/>
<g>
	<g>
		
			<line fill="none" stroke="#42476E" stroke-width="0.25" stroke-miterlimit="10" x1="126.324" y1="145.103" x2="126.324" y2="143.603"/>
		
			<line fill="none" stroke="#42476E" stroke-width="0.25" stroke-miterlimit="10" stroke-dasharray="2.9917,2.9917" x1="126.324" y1="140.612" x2="126.324" y2="16.454"/>
		
			<line fill="none" stroke="#42476E" stroke-width="0.25" stroke-miterlimit="10" x1="126.324" y1="14.958" x2="126.324" y2="13.458"/>
	</g>
</g>
<g>
	<path d="M124.428,152.823c-0.339,0-0.597-0.107-0.775-0.324c-0.179-0.216-0.269-0.515-0.269-0.896v-0.188
		c0-0.256,0.033-0.479,0.099-0.668c0.064-0.188,0.155-0.337,0.271-0.443s0.246-0.186,0.39-0.236
		c0.145-0.051,0.303-0.076,0.477-0.076c0.251,0,0.465,0.051,0.644,0.152l-0.096,0.416c-0.16-0.08-0.336-0.12-0.528-0.12
		c-0.205,0-0.367,0.062-0.487,0.188c-0.12,0.125-0.189,0.34-0.208,0.644c0.181-0.149,0.392-0.224,0.632-0.224
		c0.245,0,0.442,0.072,0.592,0.218s0.224,0.346,0.224,0.602c0,0.277-0.084,0.506-0.252,0.687
		C124.972,152.733,124.735,152.823,124.428,152.823z M124.417,152.415c0.136,0,0.243-0.044,0.322-0.132
		c0.078-0.088,0.118-0.212,0.118-0.372c0-0.162-0.042-0.281-0.124-0.357c-0.083-0.076-0.193-0.114-0.332-0.114
		c-0.083,0-0.167,0.024-0.252,0.072c-0.086,0.048-0.152,0.103-0.2,0.164v0.023C123.949,152.177,124.105,152.415,124.417,152.415z"/>
	<path d="M126.752,152.823c-0.336,0-0.596-0.066-0.778-0.2c-0.183-0.133-0.274-0.312-0.274-0.54c0-0.162,0.051-0.305,0.152-0.428
		c0.102-0.122,0.232-0.216,0.393-0.28c-0.312-0.146-0.469-0.363-0.469-0.651c0-0.225,0.088-0.402,0.265-0.536
		c0.176-0.134,0.414-0.2,0.716-0.2c0.301,0,0.536,0.061,0.706,0.183c0.169,0.121,0.254,0.291,0.254,0.51
		c0,0.142-0.043,0.268-0.128,0.378c-0.086,0.11-0.203,0.199-0.353,0.266c0.393,0.139,0.588,0.371,0.588,0.696
		c0,0.24-0.095,0.434-0.285,0.582C127.347,152.749,127.085,152.823,126.752,152.823z M126.354,152.321
		c0.092,0.071,0.22,0.106,0.382,0.106c0.163,0,0.291-0.035,0.385-0.104c0.093-0.069,0.14-0.161,0.14-0.275
		c0-0.243-0.196-0.41-0.588-0.5c-0.128,0.042-0.236,0.107-0.324,0.193c-0.088,0.087-0.132,0.183-0.132,0.286
		C126.216,152.152,126.262,152.251,126.354,152.321z M126.824,151.144c0.109-0.043,0.2-0.1,0.271-0.17
		c0.07-0.071,0.105-0.154,0.105-0.25c0-0.102-0.036-0.183-0.109-0.244s-0.183-0.092-0.326-0.092c-0.134,0-0.238,0.028-0.314,0.086
		c-0.075,0.058-0.113,0.135-0.113,0.233C126.336,150.924,126.499,151.068,126.824,151.144z"/>
	<path d="M129.945,153.26h-0.524v-1.2h-1.336v-0.424h3.22v0.424h-1.359V153.26z M128.424,151.411
		c-0.021-0.048-0.056-0.116-0.102-0.206c-0.047-0.089-0.082-0.156-0.106-0.201c0.302-0.027,0.563-0.108,0.786-0.244
		c0.223-0.137,0.348-0.306,0.374-0.509h-1.021v-0.415h2.673v0.415H130c0.029,0.2,0.157,0.368,0.384,0.503
		c0.227,0.134,0.49,0.215,0.792,0.241c-0.026,0.054-0.063,0.128-0.112,0.225c-0.048,0.096-0.08,0.158-0.096,0.188
		c-0.262-0.029-0.516-0.104-0.762-0.222c-0.247-0.119-0.42-0.269-0.519-0.45c-0.099,0.179-0.271,0.329-0.516,0.452
		S128.677,151.385,128.424,151.411z"/>
</g>
<g>
	<path d="M88.892,44.728h0.12c0.588,0,1.04-0.036,1.356-0.108l0.078,0.6c-0.444,0.096-1.034,0.144-1.77,0.144H88.1v-3.51h2.028
		v0.618h-1.236V44.728z M92.522,46.576h-0.756v-2.64H91.37v2.394h-0.744v-5.01h0.744v1.98h0.396v-2.07h0.756V46.576z"/>
	<path d="M97.981,45.91h-4.83v-0.618h2.004V44.14h0.786v1.152h2.04V45.91z M97.832,43.672c-0.076,0.14-0.194,0.35-0.354,0.63
		c-0.244-0.048-0.485-0.121-0.723-0.219c-0.238-0.098-0.474-0.24-0.708-0.426c-0.234-0.186-0.397-0.393-0.489-0.621
		c-0.092,0.224-0.25,0.431-0.474,0.621s-0.457,0.337-0.699,0.441c-0.242,0.104-0.483,0.18-0.723,0.228l-0.36-0.63
		c0.44-0.052,0.837-0.205,1.191-0.459c0.354-0.254,0.561-0.575,0.621-0.963h-1.59V41.65h4.086v0.624h-1.608
		c0.04,0.264,0.157,0.499,0.351,0.705c0.194,0.206,0.418,0.365,0.672,0.477C97.279,43.568,97.548,43.64,97.832,43.672z"/>
	<path d="M102.583,41.446c0.012,0.684-0.048,1.346-0.18,1.986h0.768v0.624h-2.034v1.29h-0.786v-1.29h-2.01v-0.624h3.312
		c0.104-0.424,0.15-0.876,0.138-1.356H98.99v-0.63H102.583z M102.62,46.444h-3.672v-1.71h0.792v1.092h2.88V46.444z"/>
</g>
<g>
	<path d="M59.732,18.876c-0.592,0-1.045-0.189-1.358-0.567s-0.469-0.9-0.469-1.568v-0.329c0-0.448,0.057-0.837,0.171-1.169
		s0.273-0.59,0.476-0.777c0.203-0.187,0.431-0.325,0.683-0.413c0.252-0.089,0.529-0.133,0.833-0.133
		c0.438,0,0.814,0.089,1.127,0.266l-0.168,0.728c-0.28-0.14-0.588-0.21-0.924-0.21c-0.359,0-0.644,0.11-0.854,0.329
		s-0.331,0.595-0.364,1.127c0.317-0.261,0.686-0.392,1.106-0.392c0.429,0,0.774,0.127,1.036,0.381
		c0.261,0.254,0.392,0.605,0.392,1.054c0,0.485-0.147,0.885-0.441,1.201C60.685,18.719,60.269,18.876,59.732,18.876z M59.711,18.162
		c0.238,0,0.426-0.077,0.564-0.231c0.137-0.154,0.206-0.371,0.206-0.651c0-0.285-0.072-0.494-0.217-0.626
		c-0.145-0.133-0.338-0.2-0.581-0.2c-0.145,0-0.292,0.042-0.441,0.126s-0.266,0.18-0.35,0.287v0.042
		C58.893,17.745,59.166,18.162,59.711,18.162z"/>
	<path d="M63.799,18.876c-0.588,0-1.042-0.117-1.361-0.35c-0.32-0.233-0.479-0.548-0.479-0.945c0-0.285,0.089-0.534,0.266-0.749
		c0.177-0.214,0.406-0.378,0.686-0.49c-0.546-0.257-0.819-0.637-0.819-1.141c0-0.392,0.154-0.705,0.462-0.938
		c0.308-0.233,0.726-0.35,1.253-0.35s0.939,0.106,1.235,0.318c0.296,0.212,0.444,0.51,0.444,0.893c0,0.248-0.075,0.468-0.224,0.662
		c-0.149,0.194-0.355,0.349-0.616,0.465c0.686,0.243,1.029,0.649,1.029,1.218c0,0.42-0.167,0.759-0.501,1.019
		C64.841,18.747,64.383,18.876,63.799,18.876z M63.103,17.998c0.161,0.124,0.384,0.186,0.668,0.186s0.509-0.061,0.672-0.182
		c0.164-0.121,0.245-0.282,0.245-0.483c0-0.424-0.343-0.716-1.029-0.875c-0.224,0.075-0.413,0.188-0.567,0.339
		c-0.154,0.152-0.231,0.319-0.231,0.5C62.861,17.703,62.942,17.874,63.103,17.998z M63.926,15.936
		c0.191-0.075,0.349-0.174,0.472-0.297s0.186-0.27,0.186-0.438c0-0.177-0.064-0.32-0.192-0.427
		c-0.128-0.107-0.318-0.161-0.571-0.161c-0.233,0-0.417,0.05-0.549,0.15c-0.133,0.1-0.199,0.237-0.199,0.41
		C63.072,15.551,63.356,15.806,63.926,15.936z"/>
	<path d="M69.385,19.639h-0.917v-2.1H66.13v-0.742h5.635v0.742h-2.38V19.639z M66.726,16.405c-0.038-0.084-0.097-0.204-0.179-0.361
		c-0.082-0.156-0.144-0.274-0.186-0.354c0.527-0.046,0.986-0.189,1.375-0.427c0.39-0.238,0.608-0.534,0.655-0.889h-1.785v-0.728
		h4.676v0.728h-1.799c0.051,0.35,0.275,0.643,0.672,0.878c0.397,0.236,0.859,0.377,1.386,0.424
		c-0.047,0.093-0.112,0.224-0.196,0.392c-0.084,0.168-0.14,0.277-0.168,0.329c-0.457-0.051-0.902-0.181-1.333-0.388
		s-0.734-0.47-0.906-0.788c-0.173,0.312-0.474,0.576-0.903,0.791C67.605,16.228,67.169,16.358,66.726,16.405z"/>
	<path d="M77.87,17.805l-0.518,0.742c-0.29-0.158-0.563-0.376-0.823-0.654c-0.259-0.277-0.44-0.566-0.542-0.864
		c-0.089,0.322-0.264,0.626-0.525,0.913c-0.261,0.287-0.548,0.508-0.861,0.662l-0.539-0.686c0.476-0.266,0.826-0.574,1.05-0.924
		s0.353-0.803,0.385-1.358h-1.218v-0.721h3.381v0.721h-1.218c0.037,0.551,0.169,0.99,0.396,1.319
		C77.063,17.284,77.407,17.567,77.87,17.805z M75.027,14.473v-0.728h1.876v0.728H75.027z M79.213,19.632h-0.945v-6.237h0.945V19.632
		z"/>
	<path d="M85.177,17.224h-0.854v0.91h1.393v0.728h-5.635v-0.728h1.393v-0.91h-0.686v-2.128h3.304v-0.602h-3.311v-0.742h4.235v2.086
		h-3.304v0.651h3.465V17.224z M82.37,17.224v0.91h1.071v-0.91H82.37z"/>
	<path d="M89.44,14.039c-0.061,2.011-1.001,3.517-2.821,4.515l-0.525-0.728c0.672-0.312,1.218-0.743,1.638-1.292
		s0.663-1.128,0.728-1.74h-1.981v-0.756H89.44z M91.323,19.632h-0.931v-6.237h0.931V19.632z"/>
	<path d="M95.404,13.864c-0.019,0.382-0.087,0.741-0.207,1.074c-0.119,0.334-0.271,0.625-0.455,0.875
		c-0.185,0.25-0.4,0.474-0.648,0.672c-0.247,0.198-0.504,0.359-0.77,0.483c-0.266,0.124-0.542,0.22-0.826,0.291l-0.378-0.742
		c0.569-0.121,1.064-0.358,1.484-0.71s0.677-0.746,0.77-1.18h-1.967v-0.763H95.404z M97.238,19.485h-4.186v-2.086h0.938v1.33h3.248
		V19.485z M97.966,15.873h-0.875v1.995h-0.924v-4.473h0.924v1.708h0.875V15.873z"/>
</g>
<g>
	<path d="M141.859,18.411c-0.319,0.301-0.752,0.452-1.298,0.452s-1.008-0.107-1.387-0.322l0.168-0.742
		c0.346,0.177,0.663,0.266,0.952,0.266c0.322,0,0.573-0.07,0.753-0.21s0.27-0.343,0.27-0.609c0-0.537-0.327-0.805-0.98-0.805
		c-0.13,0-0.293,0.028-0.486,0.084c-0.193,0.056-0.354,0.117-0.479,0.182l0.183-2.716h2.548v0.749h-1.813l-0.07,1.071
		c0.154-0.056,0.341-0.084,0.561-0.084c0.494,0,0.879,0.129,1.151,0.389c0.273,0.259,0.409,0.64,0.409,1.145
		C142.338,17.726,142.179,18.109,141.859,18.411z"/>
	<path d="M142.926,18.792v-0.574l0.833-0.889c0.275-0.294,0.485-0.526,0.63-0.696s0.281-0.369,0.41-0.595
		c0.128-0.226,0.192-0.428,0.192-0.605c0-0.275-0.076-0.47-0.228-0.584s-0.382-0.171-0.689-0.171c-0.28,0-0.603,0.096-0.966,0.287
		l-0.126-0.707c0.405-0.229,0.867-0.343,1.386-0.343c0.546,0,0.958,0.118,1.235,0.354c0.277,0.236,0.417,0.578,0.417,1.025
		c0,0.206-0.041,0.415-0.123,0.626c-0.082,0.212-0.205,0.427-0.371,0.644c-0.165,0.217-0.299,0.384-0.398,0.5
		c-0.101,0.117-0.244,0.271-0.431,0.462l-0.497,0.504h1.834v0.763H142.926z"/>
	<path d="M149.807,19.639h-0.917v-2.1h-2.338v-0.742h5.636v0.742h-2.381V19.639z M147.148,16.405
		c-0.038-0.084-0.098-0.204-0.179-0.361c-0.082-0.156-0.144-0.274-0.186-0.354c0.527-0.046,0.985-0.189,1.375-0.427
		c0.39-0.238,0.608-0.534,0.655-0.889h-1.785v-0.728h4.676v0.728h-1.799c0.051,0.35,0.275,0.643,0.672,0.878
		c0.396,0.236,0.858,0.377,1.386,0.424c-0.047,0.093-0.112,0.224-0.196,0.392c-0.084,0.168-0.14,0.277-0.168,0.329
		c-0.457-0.051-0.901-0.181-1.333-0.388s-0.734-0.47-0.906-0.788c-0.173,0.312-0.474,0.576-0.903,0.791
		S147.591,16.358,147.148,16.405z"/>
	<path d="M158.292,17.805l-0.518,0.742c-0.29-0.158-0.563-0.376-0.823-0.654c-0.259-0.277-0.439-0.566-0.542-0.864
		c-0.089,0.322-0.264,0.626-0.525,0.913c-0.261,0.287-0.548,0.508-0.86,0.662l-0.539-0.686c0.476-0.266,0.825-0.574,1.05-0.924
		c0.224-0.35,0.353-0.803,0.385-1.358h-1.218v-0.721h3.381v0.721h-1.218c0.037,0.551,0.169,0.99,0.396,1.319
		C157.485,17.284,157.83,17.567,158.292,17.805z M155.45,14.473v-0.728h1.876v0.728H155.45z M159.635,19.632h-0.944v-6.237h0.944
		V19.632z"/>
	<path d="M165.6,17.224h-0.854v0.91h1.394v0.728h-5.636v-0.728h1.394v-0.91h-0.687v-2.128h3.305v-0.602h-3.312v-0.742h4.235v2.086
		h-3.305v0.651h3.466V17.224z M162.792,17.224v0.91h1.071v-0.91H162.792z"/>
	<path d="M169.828,19.618h-0.917v-1.372h-2.353v-0.728h5.636v0.728h-2.366V19.618z M171.885,15.152h-5.012v-0.728h5.012V15.152z
		 M170.916,15.572c0.366,0.187,0.55,0.434,0.55,0.742s-0.184,0.553-0.55,0.735c-0.366,0.182-0.876,0.273-1.529,0.273
		s-1.162-0.091-1.525-0.273c-0.364-0.182-0.547-0.427-0.547-0.735s0.183-0.555,0.547-0.742c0.363-0.187,0.872-0.28,1.525-0.28
		S170.549,15.386,170.916,15.572z M168.239,14.186v-0.714h2.281v0.714H168.239z M170.478,16.321c0-0.089-0.102-0.166-0.304-0.231
		c-0.203-0.065-0.466-0.098-0.788-0.098s-0.583,0.033-0.784,0.098c-0.2,0.065-0.301,0.142-0.301,0.231
		c0,0.093,0.101,0.172,0.301,0.238c0.201,0.065,0.462,0.098,0.784,0.098s0.585-0.033,0.788-0.098
		C170.376,16.494,170.478,16.415,170.478,16.321z"/>
	<path d="M178.291,17.056c-0.606,0.075-1.26,0.131-1.96,0.168c-0.69,0.033-1.34,0.049-1.946,0.049l-0.084-0.742
		c0.537,0,0.934-0.002,1.19-0.007v-1.225h0.875v1.204c0.812-0.023,1.437-0.067,1.876-0.133L178.291,17.056z M177.94,13.822
		c0,1.013-0.054,1.748-0.16,2.205l-0.883-0.091c0.08-0.308,0.119-0.77,0.119-1.386h-2.323v-0.728H177.94z M179.564,19.457h-4.276
		v-1.841h0.924v1.12h3.353V19.457z M180.222,15.971h-0.776v2.037h-0.917v-4.613h0.917v1.799h0.776V15.971z"/>
	<path d="M180.649,15.152v-0.707h3.29v0.707h-1.105c0.061,0.256,0.208,0.468,0.444,0.633c0.235,0.166,0.505,0.288,0.809,0.368
		l-0.428,0.7c-0.271-0.07-0.53-0.195-0.78-0.375s-0.433-0.384-0.55-0.612c-0.103,0.233-0.29,0.451-0.563,0.654
		c-0.272,0.203-0.563,0.339-0.871,0.41l-0.441-0.714c0.784-0.215,1.234-0.569,1.352-1.064H180.649z M185.563,19.583h-4.354v-1.61
		h3.275v-0.217h-3.283v-0.735h4.207v1.617h-3.275v0.21h3.43V19.583z M181.398,14.165V13.5h1.82v0.665H181.398z M186.256,15.614
		h-0.848v1.162h-0.917v-3.381h0.917v1.463h0.848V15.614z"/>
	<path d="M189.869,14.039c-0.062,2.011-1.001,3.517-2.821,4.515l-0.525-0.728c0.672-0.312,1.219-0.743,1.639-1.292
		s0.662-1.128,0.728-1.74h-1.98v-0.756H189.869z M191.751,19.632h-0.932v-6.237h0.932V19.632z"/>
	<path d="M195.832,13.864c-0.019,0.382-0.087,0.741-0.206,1.074c-0.119,0.334-0.271,0.625-0.455,0.875
		c-0.185,0.25-0.4,0.474-0.647,0.672c-0.248,0.198-0.504,0.359-0.771,0.483c-0.266,0.124-0.541,0.22-0.826,0.291l-0.378-0.742
		c0.569-0.121,1.064-0.358,1.484-0.71s0.677-0.746,0.77-1.18h-1.967v-0.763H195.832z M197.666,19.485h-4.186v-2.086h0.938v1.33
		h3.248V19.485z M198.394,15.873h-0.875v1.995h-0.925v-4.473h0.925v1.708h0.875V15.873z"/>
</g>
<g>
	<path d="M90.269,64.884c-0.274,0.258-0.645,0.387-1.113,0.387c-0.468,0-0.864-0.092-1.188-0.276l0.144-0.636
		c0.296,0.152,0.568,0.228,0.816,0.228c0.276,0,0.491-0.06,0.645-0.18c0.154-0.12,0.231-0.294,0.231-0.522
		c0-0.46-0.28-0.69-0.84-0.69c-0.112,0-0.251,0.024-0.417,0.072s-0.303,0.1-0.411,0.156l0.156-2.328h2.184v0.642h-1.554l-0.06,0.918
		c0.132-0.048,0.292-0.072,0.48-0.072c0.424,0,0.753,0.111,0.987,0.333s0.351,0.549,0.351,0.981
		C90.68,64.297,90.542,64.626,90.269,64.884z"/>
	<path d="M92.881,62.769c0.104,0.076,0.176,0.128,0.216,0.156c0.04,0.028,0.102,0.061,0.186,0.099s0.16,0.057,0.228,0.057
		c0.104,0,0.197-0.053,0.279-0.159s0.127-0.239,0.135-0.399l0.588,0.216c-0.032,0.336-0.142,0.592-0.33,0.768
		c-0.188,0.176-0.402,0.262-0.642,0.258c-0.26-0.012-0.494-0.094-0.702-0.246c-0.304-0.228-0.51-0.348-0.618-0.36
		c-0.108-0.012-0.209,0.029-0.303,0.123c-0.094,0.094-0.153,0.219-0.177,0.375l-0.552-0.276c0.072-0.336,0.21-0.579,0.414-0.729
		c0.204-0.15,0.422-0.207,0.654-0.171c0.032,0.004,0.062,0.009,0.09,0.015c0.028,0.006,0.056,0.014,0.084,0.024
		c0.028,0.01,0.052,0.018,0.072,0.024s0.044,0.017,0.072,0.033c0.028,0.016,0.05,0.027,0.066,0.033
		c0.016,0.006,0.038,0.019,0.066,0.039s0.047,0.033,0.057,0.039c0.01,0.006,0.03,0.02,0.06,0.042
		C92.854,62.752,92.874,62.765,92.881,62.769z"/>
	<path d="M95.588,65.235v-3.306l-0.672,0.126v-0.498l1.092-0.48h0.438v4.158H95.588z"/>
	<path d="M98.917,65.283c-0.496,0-0.895-0.164-1.197-0.492c-0.302-0.328-0.453-0.83-0.453-1.506v-0.216
		c0-0.36,0.045-0.675,0.135-0.945c0.09-0.27,0.214-0.483,0.372-0.639c0.158-0.156,0.333-0.271,0.528-0.345
		c0.194-0.074,0.403-0.111,0.627-0.111c0.48,0,0.874,0.165,1.182,0.495c0.308,0.33,0.462,0.839,0.462,1.527v0.21
		c0,0.696-0.155,1.207-0.465,1.533C99.799,65.12,99.402,65.283,98.917,65.283z M98.917,64.647c0.264,0,0.459-0.105,0.585-0.315
		c0.126-0.21,0.189-0.551,0.189-1.023v-0.258c0-0.924-0.256-1.386-0.768-1.386c-0.26,0-0.452,0.108-0.576,0.324
		c-0.124,0.216-0.186,0.556-0.186,1.02v0.258c0,0.468,0.061,0.815,0.183,1.041S98.658,64.647,98.917,64.647z"/>
	<path d="M102.905,63.039c-0.198,0.204-0.455,0.306-0.771,0.306s-0.569-0.097-0.759-0.291c-0.19-0.194-0.285-0.465-0.285-0.813
		v-0.078c0-0.356,0.095-0.635,0.285-0.837c0.19-0.202,0.443-0.303,0.759-0.303c0.312,0,0.568,0.098,0.768,0.294
		c0.2,0.196,0.3,0.464,0.3,0.804v0.084C103.202,62.557,103.103,62.835,102.905,63.039z M102.134,62.877
		c0.14,0,0.241-0.047,0.303-0.141c0.062-0.094,0.093-0.257,0.093-0.489v-0.126c0-0.428-0.132-0.642-0.396-0.642
		c-0.256,0-0.384,0.212-0.384,0.636v0.126c0,0.228,0.031,0.391,0.093,0.489S102.002,62.877,102.134,62.877z M101.852,65.433
		l2.79-4.452h0.606l-2.79,4.452H101.852z M105.014,65.253c-0.316,0-0.569-0.097-0.759-0.291c-0.19-0.194-0.285-0.463-0.285-0.807
		v-0.084c0-0.352,0.097-0.629,0.291-0.831c0.194-0.202,0.449-0.303,0.765-0.303c0.312,0,0.564,0.096,0.756,0.288
		s0.288,0.46,0.288,0.804v0.09c0,0.352-0.096,0.629-0.288,0.831C105.59,65.152,105.334,65.253,105.014,65.253z M105.026,64.797
		c0.136,0,0.235-0.049,0.297-0.147c0.062-0.098,0.093-0.259,0.093-0.483v-0.138c0-0.428-0.13-0.642-0.39-0.642
		c-0.136,0-0.236,0.05-0.3,0.15s-0.096,0.262-0.096,0.486v0.138c0,0.224,0.031,0.386,0.093,0.486S104.886,64.797,105.026,64.797z"/>
	<path d="M110.755,60.891c-0.024,0.72-0.253,1.314-0.687,1.782c-0.434,0.468-1.041,0.814-1.821,1.038l-0.312-0.642
		c0.492-0.1,0.923-0.296,1.293-0.588c0.37-0.292,0.581-0.604,0.633-0.936h-1.65v-0.654H110.755z M112.219,65.871h-3.486v-2.076
		h3.486V65.871z M111.434,65.259v-0.87h-1.908v0.87H111.434z M112.963,62.421h-0.744v1.116h-0.792v-2.952h0.792v1.188h0.744V62.421z
		"/>
	<path d="M118.04,65.271h-4.83v-0.624h2.004v-1.212H116v1.212h2.04V65.271z M117.913,62.907l-0.354,0.666
		c-0.375-0.072-0.758-0.238-1.148-0.498c-0.391-0.26-0.655-0.57-0.795-0.93c-0.132,0.36-0.39,0.669-0.774,0.927
		c-0.384,0.258-0.77,0.425-1.158,0.501l-0.354-0.66c0.476-0.056,0.906-0.246,1.29-0.57c0.384-0.324,0.576-0.716,0.576-1.176v-0.282
		h0.852v0.282c0,0.312,0.096,0.598,0.285,0.858c0.189,0.26,0.424,0.463,0.701,0.609C117.313,62.78,117.606,62.871,117.913,62.907z"
		/>
	<path d="M122.641,60.801c0.012,0.684-0.048,1.346-0.18,1.986h0.768v0.624h-2.034v1.29h-0.785v-1.29h-2.011v-0.624h3.312
		c0.104-0.424,0.149-0.876,0.138-1.356h-2.802v-0.63H122.641z M122.677,65.799h-3.672v-1.71h0.792v1.092h2.88V65.799z"/>
</g>
<g>
	<path d="M88.628,77.027v-3.306l-0.672,0.126V73.35l1.092-0.48h0.438v4.158H88.628z"/>
	<path d="M91.958,77.076c-0.496,0-0.895-0.164-1.197-0.492c-0.302-0.328-0.453-0.83-0.453-1.506v-0.216
		c0-0.36,0.045-0.675,0.135-0.945c0.09-0.27,0.214-0.483,0.372-0.639c0.158-0.156,0.333-0.271,0.528-0.345
		c0.194-0.074,0.403-0.111,0.627-0.111c0.48,0,0.874,0.165,1.182,0.495c0.308,0.33,0.462,0.839,0.462,1.527v0.21
		c0,0.696-0.155,1.207-0.465,1.533C92.839,76.913,92.442,77.076,91.958,77.076z M91.958,76.439c0.264,0,0.459-0.105,0.585-0.315
		c0.126-0.21,0.189-0.551,0.189-1.023v-0.258c0-0.924-0.256-1.386-0.768-1.386c-0.26,0-0.452,0.108-0.576,0.324
		c-0.124,0.216-0.186,0.556-0.186,1.02v0.258c0,0.468,0.061,0.815,0.183,1.041S91.698,76.439,91.958,76.439z"/>
	<path d="M95.93,74.562c0.104,0.076,0.176,0.128,0.216,0.156c0.04,0.028,0.102,0.061,0.186,0.099s0.16,0.057,0.228,0.057
		c0.104,0,0.197-0.053,0.279-0.159s0.127-0.239,0.135-0.399l0.588,0.216c-0.032,0.336-0.142,0.592-0.33,0.768
		c-0.188,0.176-0.402,0.262-0.642,0.258c-0.26-0.012-0.494-0.094-0.702-0.246c-0.304-0.228-0.51-0.348-0.618-0.36
		c-0.108-0.012-0.209,0.029-0.303,0.123c-0.094,0.094-0.153,0.219-0.177,0.375l-0.552-0.276c0.072-0.336,0.21-0.579,0.414-0.729
		c0.204-0.15,0.422-0.207,0.654-0.171c0.032,0.004,0.062,0.009,0.09,0.015c0.028,0.006,0.056,0.014,0.084,0.024
		c0.028,0.01,0.052,0.018,0.072,0.024s0.044,0.017,0.072,0.033c0.028,0.016,0.05,0.027,0.066,0.033
		c0.016,0.006,0.038,0.019,0.066,0.039s0.047,0.033,0.057,0.039c0.01,0.006,0.03,0.02,0.06,0.042
		C95.903,74.544,95.922,74.558,95.93,74.562z"/>
	<path d="M98.636,77.027v-3.306l-0.672,0.126V73.35l1.092-0.48h0.438v4.158H98.636z"/>
	<path d="M102.526,76.676c-0.274,0.258-0.645,0.387-1.113,0.387c-0.468,0-0.864-0.092-1.188-0.276l0.144-0.636
		c0.296,0.152,0.568,0.228,0.816,0.228c0.276,0,0.491-0.06,0.645-0.18c0.154-0.12,0.231-0.294,0.231-0.522
		c0-0.46-0.28-0.69-0.84-0.69c-0.112,0-0.251,0.024-0.417,0.072s-0.303,0.1-0.411,0.156l0.156-2.328h2.184v0.642h-1.554l-0.06,0.918
		c0.132-0.048,0.292-0.072,0.48-0.072c0.424,0,0.753,0.111,0.987,0.333s0.351,0.549,0.351,0.981
		C102.938,76.089,102.8,76.418,102.526,76.676z"/>
	<path d="M105.155,74.832c-0.198,0.204-0.455,0.306-0.771,0.306s-0.569-0.097-0.759-0.291c-0.19-0.194-0.285-0.465-0.285-0.813
		v-0.078c0-0.356,0.095-0.635,0.285-0.837c0.19-0.202,0.443-0.303,0.759-0.303c0.312,0,0.568,0.098,0.768,0.294
		c0.2,0.196,0.3,0.464,0.3,0.804v0.084C105.452,74.35,105.353,74.627,105.155,74.832z M104.384,74.669
		c0.14,0,0.241-0.047,0.303-0.141c0.062-0.094,0.093-0.257,0.093-0.489v-0.126c0-0.428-0.132-0.642-0.396-0.642
		c-0.256,0-0.384,0.212-0.384,0.636v0.126c0,0.228,0.031,0.391,0.093,0.489S104.252,74.669,104.384,74.669z M104.102,77.226
		l2.79-4.452h0.606l-2.79,4.452H104.102z M107.264,77.045c-0.316,0-0.569-0.097-0.759-0.291c-0.19-0.194-0.285-0.463-0.285-0.807
		v-0.084c0-0.352,0.097-0.629,0.291-0.831c0.194-0.202,0.449-0.303,0.765-0.303c0.312,0,0.564,0.096,0.756,0.288
		s0.288,0.46,0.288,0.804v0.09c0,0.352-0.096,0.629-0.288,0.831C107.84,76.944,107.584,77.045,107.264,77.045z M107.276,76.589
		c0.136,0,0.235-0.049,0.297-0.147c0.062-0.098,0.093-0.259,0.093-0.483v-0.138c0-0.428-0.13-0.642-0.39-0.642
		c-0.136,0-0.236,0.05-0.3,0.15s-0.096,0.262-0.096,0.486v0.138c0,0.224,0.031,0.386,0.093,0.486S107.136,76.589,107.276,76.589z"/>
	<path d="M113.005,72.684c-0.024,0.72-0.253,1.314-0.687,1.782c-0.434,0.468-1.041,0.814-1.821,1.038l-0.312-0.642
		c0.492-0.1,0.923-0.296,1.293-0.588c0.37-0.292,0.581-0.604,0.633-0.936h-1.65v-0.654H113.005z M114.469,77.664h-3.486v-2.076
		h3.486V77.664z M113.684,77.051v-0.87h-1.908v0.87H113.684z M115.213,74.213h-0.744v1.116h-0.792v-2.952h0.792v1.188h0.744V74.213z
		"/>
	<path d="M120.29,77.063h-4.83v-0.624h2.004v-1.212h0.785v1.212h2.041V77.063z M120.163,74.7l-0.354,0.666
		c-0.375-0.072-0.758-0.238-1.148-0.498c-0.391-0.26-0.656-0.57-0.795-0.93c-0.133,0.36-0.391,0.669-0.775,0.927
		c-0.383,0.258-0.77,0.425-1.157,0.501l-0.354-0.66c0.476-0.056,0.906-0.246,1.291-0.57c0.383-0.324,0.576-0.716,0.576-1.176v-0.282
		h0.852v0.282c0,0.312,0.096,0.598,0.285,0.858c0.189,0.26,0.424,0.463,0.701,0.609C119.563,74.573,119.856,74.664,120.163,74.7z"/>
	<path d="M124.891,72.594c0.012,0.684-0.048,1.346-0.18,1.986h0.768v0.624h-2.034v1.29h-0.785v-1.29h-2.011V74.58h3.312
		c0.104-0.424,0.149-0.876,0.138-1.356h-2.802v-0.63H124.891z M124.927,77.591h-3.672v-1.71h0.792v1.092h2.88V77.591z"/>
</g>
<g>
	<path d="M88.628,92.71v-3.306l-0.672,0.126v-0.498l1.092-0.48h0.438v4.158H88.628z"/>
	<path d="M92.519,92.358c-0.274,0.259-0.645,0.388-1.113,0.388c-0.468,0-0.864-0.092-1.188-0.276l0.144-0.636
		c0.296,0.152,0.568,0.228,0.816,0.228c0.276,0,0.491-0.06,0.645-0.18s0.231-0.294,0.231-0.521c0-0.46-0.28-0.69-0.84-0.69
		c-0.112,0-0.251,0.024-0.417,0.072s-0.303,0.1-0.411,0.155l0.156-2.327h2.184v0.642h-1.554l-0.06,0.918
		c0.132-0.048,0.292-0.072,0.48-0.072c0.424,0,0.753,0.111,0.987,0.333c0.234,0.223,0.351,0.549,0.351,0.981
		C92.93,91.771,92.792,92.101,92.519,92.358z"/>
	<path d="M95.131,90.244c0.104,0.076,0.176,0.128,0.216,0.155c0.04,0.028,0.102,0.062,0.186,0.1s0.16,0.057,0.228,0.057
		c0.104,0,0.197-0.053,0.279-0.159c0.082-0.105,0.127-0.238,0.135-0.398l0.588,0.216c-0.032,0.336-0.142,0.592-0.33,0.768
		c-0.188,0.177-0.402,0.263-0.642,0.259c-0.26-0.013-0.494-0.095-0.702-0.246c-0.304-0.229-0.51-0.349-0.618-0.36
		c-0.108-0.012-0.209,0.029-0.303,0.123s-0.153,0.219-0.177,0.375l-0.552-0.276c0.072-0.336,0.21-0.578,0.414-0.729
		s0.422-0.207,0.654-0.171c0.032,0.004,0.062,0.009,0.09,0.015c0.028,0.006,0.056,0.015,0.084,0.024
		c0.028,0.01,0.052,0.018,0.072,0.023s0.044,0.018,0.072,0.033c0.028,0.017,0.05,0.027,0.066,0.033
		c0.016,0.006,0.038,0.019,0.066,0.039c0.028,0.02,0.047,0.033,0.057,0.039c0.01,0.006,0.03,0.02,0.06,0.042
		C95.104,90.227,95.124,90.24,95.131,90.244z"/>
	<path d="M97.28,92.686v-0.491l0.714-0.763c0.236-0.252,0.416-0.451,0.54-0.597c0.124-0.146,0.241-0.316,0.351-0.51
		c0.11-0.194,0.165-0.367,0.165-0.52c0-0.235-0.065-0.402-0.195-0.501c-0.13-0.098-0.327-0.146-0.591-0.146
		c-0.24,0-0.516,0.082-0.828,0.246l-0.108-0.606c0.348-0.196,0.744-0.294,1.188-0.294c0.468,0,0.821,0.101,1.059,0.303
		c0.238,0.202,0.357,0.495,0.357,0.879c0,0.177-0.035,0.355-0.105,0.537c-0.07,0.183-0.176,0.366-0.318,0.552
		c-0.142,0.187-0.256,0.329-0.342,0.43c-0.086,0.1-0.209,0.231-0.369,0.396l-0.426,0.433h1.572v0.653H97.28z"/>
	<path d="M102.133,92.758c-0.496,0-0.895-0.164-1.197-0.492c-0.302-0.328-0.453-0.83-0.453-1.506v-0.216
		c0-0.36,0.045-0.675,0.135-0.945c0.09-0.27,0.214-0.482,0.372-0.639c0.158-0.156,0.333-0.271,0.528-0.345
		c0.194-0.074,0.403-0.111,0.627-0.111c0.48,0,0.874,0.165,1.182,0.495c0.308,0.33,0.462,0.839,0.462,1.527v0.21
		c0,0.695-0.155,1.207-0.465,1.532C103.015,92.595,102.618,92.758,102.133,92.758z M102.133,92.122c0.264,0,0.459-0.105,0.585-0.315
		c0.126-0.21,0.189-0.551,0.189-1.022v-0.258c0-0.925-0.256-1.387-0.768-1.387c-0.26,0-0.452,0.108-0.576,0.324
		s-0.186,0.556-0.186,1.02v0.259c0,0.468,0.061,0.814,0.183,1.041C101.683,92.009,101.874,92.122,102.133,92.122z"/>
	<path d="M106.121,90.514c-0.198,0.204-0.455,0.307-0.771,0.307s-0.569-0.098-0.759-0.291c-0.19-0.194-0.285-0.466-0.285-0.813
		v-0.078c0-0.355,0.095-0.635,0.285-0.837c0.19-0.202,0.443-0.303,0.759-0.303c0.312,0,0.568,0.098,0.768,0.294
		c0.2,0.196,0.3,0.464,0.3,0.804v0.084C106.417,90.032,106.319,90.31,106.121,90.514z M105.35,90.352
		c0.14,0,0.241-0.047,0.303-0.141c0.062-0.094,0.093-0.257,0.093-0.489v-0.126c0-0.428-0.132-0.642-0.396-0.642
		c-0.256,0-0.384,0.212-0.384,0.636v0.126c0,0.229,0.031,0.391,0.093,0.489C105.121,90.303,105.218,90.352,105.35,90.352z
		 M105.068,92.908l2.79-4.452h0.606l-2.79,4.452H105.068z M108.229,92.728c-0.316,0-0.569-0.097-0.759-0.291
		c-0.19-0.193-0.285-0.463-0.285-0.807v-0.084c0-0.352,0.097-0.629,0.291-0.831s0.449-0.303,0.765-0.303
		c0.312,0,0.564,0.096,0.756,0.288c0.192,0.191,0.288,0.46,0.288,0.804v0.09c0,0.353-0.096,0.629-0.288,0.831
		S108.55,92.728,108.229,92.728z M108.242,92.271c0.136,0,0.235-0.049,0.297-0.146s0.093-0.259,0.093-0.483v-0.138
		c0-0.428-0.13-0.642-0.39-0.642c-0.136,0-0.236,0.05-0.3,0.149c-0.064,0.101-0.096,0.262-0.096,0.486v0.138
		c0,0.225,0.031,0.386,0.093,0.486C108,92.222,108.102,92.271,108.242,92.271z"/>
	<path d="M113.972,88.366c-0.024,0.72-0.253,1.313-0.687,1.781c-0.434,0.469-1.041,0.814-1.821,1.038l-0.312-0.642
		c0.492-0.1,0.923-0.296,1.293-0.588c0.37-0.292,0.581-0.604,0.633-0.937h-1.65v-0.653H113.972z M115.436,93.346h-3.486V91.27h3.486
		V93.346z M114.65,92.733v-0.869h-1.908v0.869H114.65z M116.18,89.896h-0.745v1.116h-0.792V88.06h0.792v1.188h0.745V89.896z"/>
	<path d="M121.255,92.746h-4.83v-0.624h2.004V90.91h0.786v1.212h2.04V92.746z M121.129,90.382l-0.354,0.666
		c-0.376-0.072-0.759-0.238-1.149-0.498c-0.39-0.26-0.655-0.57-0.795-0.93c-0.132,0.359-0.39,0.669-0.774,0.927
		c-0.384,0.258-0.77,0.425-1.157,0.501l-0.354-0.66c0.477-0.056,0.906-0.246,1.29-0.569c0.384-0.324,0.576-0.717,0.576-1.177V88.36
		h0.852v0.281c0,0.312,0.096,0.599,0.285,0.858c0.19,0.26,0.424,0.463,0.702,0.608C120.529,90.255,120.822,90.346,121.129,90.382z"
		/>
	<path d="M125.857,88.276c0.012,0.684-0.048,1.346-0.18,1.985h0.768v0.624h-2.034v1.29h-0.785v-1.29h-2.011v-0.624h3.312
		c0.104-0.424,0.149-0.876,0.138-1.355h-2.802v-0.63H125.857z M125.893,93.273h-3.672v-1.71h0.792v1.093h2.88V93.273z"/>
</g>
<g>
	<path d="M88.07,118.158v-0.491l0.714-0.763c0.236-0.252,0.416-0.451,0.54-0.597c0.124-0.146,0.241-0.316,0.351-0.51
		c0.11-0.194,0.165-0.367,0.165-0.52c0-0.235-0.065-0.402-0.195-0.501c-0.13-0.098-0.327-0.146-0.591-0.146
		c-0.24,0-0.516,0.082-0.828,0.246l-0.108-0.606c0.348-0.196,0.744-0.294,1.188-0.294c0.468,0,0.821,0.101,1.059,0.303
		c0.238,0.202,0.357,0.495,0.357,0.879c0,0.177-0.035,0.355-0.105,0.537c-0.07,0.183-0.176,0.366-0.318,0.552
		c-0.142,0.187-0.256,0.329-0.342,0.43c-0.086,0.1-0.209,0.231-0.369,0.396l-0.426,0.433h1.572v0.653H88.07z"/>
	<path d="M92.923,118.23c-0.496,0-0.895-0.164-1.197-0.492c-0.302-0.328-0.453-0.83-0.453-1.506v-0.216
		c0-0.36,0.045-0.675,0.135-0.945c0.09-0.27,0.214-0.482,0.372-0.639c0.158-0.156,0.333-0.271,0.528-0.345
		c0.194-0.074,0.403-0.111,0.627-0.111c0.48,0,0.874,0.165,1.182,0.495c0.308,0.33,0.462,0.839,0.462,1.527v0.21
		c0,0.695-0.155,1.207-0.465,1.532C93.805,118.067,93.408,118.23,92.923,118.23z M92.923,117.595c0.264,0,0.459-0.105,0.585-0.315
		c0.126-0.21,0.189-0.551,0.189-1.022v-0.258c0-0.925-0.256-1.387-0.768-1.387c-0.26,0-0.452,0.108-0.576,0.324
		s-0.186,0.556-0.186,1.02v0.259c0,0.468,0.061,0.814,0.183,1.041C92.473,117.481,92.664,117.595,92.923,117.595z"/>
	<path d="M96.911,115.986c-0.198,0.204-0.455,0.307-0.771,0.307s-0.569-0.098-0.759-0.291c-0.19-0.194-0.285-0.466-0.285-0.813
		v-0.078c0-0.355,0.095-0.635,0.285-0.837c0.19-0.202,0.443-0.303,0.759-0.303c0.312,0,0.568,0.098,0.768,0.294
		c0.2,0.196,0.3,0.464,0.3,0.804v0.084C97.208,115.505,97.109,115.782,96.911,115.986z M96.14,115.824
		c0.14,0,0.241-0.047,0.303-0.141c0.062-0.094,0.093-0.257,0.093-0.489v-0.126c0-0.428-0.132-0.642-0.396-0.642
		c-0.256,0-0.384,0.212-0.384,0.636v0.126c0,0.229,0.031,0.391,0.093,0.489C95.911,115.775,96.008,115.824,96.14,115.824z
		 M95.858,118.381l2.79-4.452h0.606l-2.79,4.452H95.858z M99.02,118.2c-0.316,0-0.569-0.097-0.759-0.291
		c-0.19-0.193-0.285-0.463-0.285-0.807v-0.084c0-0.352,0.097-0.629,0.291-0.831s0.449-0.303,0.765-0.303
		c0.312,0,0.564,0.096,0.756,0.288c0.192,0.191,0.288,0.46,0.288,0.804v0.09c0,0.353-0.096,0.629-0.288,0.831
		S99.34,118.2,99.02,118.2z M99.032,117.744c0.136,0,0.235-0.049,0.297-0.146s0.093-0.259,0.093-0.483v-0.138
		c0-0.428-0.13-0.642-0.39-0.642c-0.136,0-0.236,0.05-0.3,0.149c-0.064,0.101-0.096,0.262-0.096,0.486v0.138
		c0,0.225,0.031,0.386,0.093,0.486C98.791,117.694,98.892,117.744,99.032,117.744z"/>
	<path d="M102.17,115.807c0-0.572,0.125-1.037,0.375-1.396c0.25-0.357,0.591-0.536,1.023-0.536c0.436,0,0.78,0.179,1.032,0.536
		c0.252,0.358,0.378,0.823,0.378,1.396c0,0.563-0.126,1.024-0.378,1.38c-0.252,0.356-0.596,0.534-1.032,0.534
		c-0.428,0-0.768-0.178-1.02-0.534C102.296,116.831,102.17,116.37,102.17,115.807z M104.234,115.807c0-0.396-0.061-0.7-0.183-0.912
		s-0.283-0.318-0.483-0.318c-0.188,0-0.342,0.107-0.462,0.321c-0.12,0.214-0.18,0.518-0.18,0.909c0,0.388,0.06,0.688,0.18,0.903
		c0.12,0.214,0.274,0.32,0.462,0.32c0.2,0,0.361-0.105,0.483-0.317S104.234,116.198,104.234,115.807z M106.466,118.879h-0.792
		v-5.347h0.792V118.879z"/>
	<path d="M110.366,115.854l-0.432,0.618c-0.216-0.068-0.44-0.2-0.672-0.396c-0.232-0.195-0.394-0.401-0.486-0.617
		c-0.076,0.243-0.241,0.479-0.495,0.704c-0.254,0.227-0.515,0.384-0.783,0.472l-0.402-0.624c0.4-0.136,0.711-0.353,0.933-0.648
		c0.222-0.296,0.333-0.64,0.333-1.032v-0.479h0.81v0.444C109.172,115.059,109.57,115.578,110.366,115.854z M111.47,117.78
		c0,0.332-0.169,0.595-0.507,0.786c-0.338,0.192-0.801,0.288-1.389,0.288c-0.584,0-1.044-0.096-1.38-0.288
		c-0.336-0.191-0.504-0.454-0.504-0.786c0-0.336,0.167-0.602,0.501-0.798s0.795-0.294,1.383-0.294s1.051,0.098,1.389,0.294
		C111.301,117.179,111.47,117.444,111.47,117.78z M109.574,117.324c-0.336,0-0.6,0.041-0.792,0.123s-0.288,0.193-0.288,0.333
		c0,0.141,0.096,0.25,0.288,0.33s0.456,0.12,0.792,0.12c0.348,0,0.616-0.04,0.804-0.12s0.282-0.189,0.282-0.33
		c0-0.14-0.095-0.251-0.285-0.333S109.917,117.324,109.574,117.324z M112.16,115.465h-0.744v1.193h-0.792v-3.126h0.792v1.284h0.744
		V115.465z"/>
	<path d="M118.297,113.839c-0.024,0.72-0.253,1.313-0.688,1.781c-0.434,0.469-1.04,0.814-1.82,1.038l-0.312-0.642
		c0.492-0.1,0.922-0.296,1.292-0.588s0.581-0.604,0.634-0.937h-1.65v-0.653H118.297z M119.761,118.818h-3.485v-2.076h3.485V118.818z
		 M118.975,118.206v-0.869h-1.908v0.869H118.975z M120.505,115.368h-0.744v1.116h-0.792v-2.952h0.792v1.188h0.744V115.368z"/>
	<path d="M125.581,118.219h-4.83v-0.624h2.004v-1.212h0.786v1.212h2.04V118.219z M125.455,115.854l-0.354,0.666
		c-0.376-0.072-0.759-0.238-1.149-0.498c-0.39-0.26-0.655-0.57-0.795-0.93c-0.132,0.359-0.39,0.669-0.774,0.927
		c-0.384,0.258-0.77,0.425-1.157,0.501l-0.354-0.66c0.477-0.056,0.906-0.246,1.29-0.569c0.384-0.324,0.576-0.717,0.576-1.177v-0.281
		h0.852v0.281c0,0.312,0.096,0.599,0.285,0.858c0.19,0.26,0.424,0.463,0.702,0.608C124.854,115.728,125.147,115.818,125.455,115.854
		z"/>
	<path d="M130.183,113.749c0.012,0.684-0.048,1.346-0.18,1.985h0.768v0.624h-2.034v1.29h-0.785v-1.29h-2.011v-0.624h3.312
		c0.104-0.424,0.149-0.876,0.138-1.355h-2.802v-0.63H130.183z M130.219,118.746h-3.672v-1.71h0.792v1.093h2.88V118.746z"/>
</g>
<g>
	<path d="M230.454,79.876v0.868h-6.236v-0.868H230.454z M230.174,81.073v0.861h-2.618v0.707h-0.742v-0.707h-2.485v-0.861H230.174z
		 M225.378,82.865v1.645h-0.714v-1.645H225.378z M228.515,82.103l0.7,0.489c-0.117,0.211-0.305,0.425-0.563,0.645
		c-0.26,0.22-0.511,0.368-0.753,0.448c0.262,0.069,0.523,0.212,0.787,0.427s0.478,0.457,0.641,0.728l-0.658,0.504
		c-0.224-0.396-0.501-0.689-0.833-0.878c-0.331-0.189-0.779-0.295-1.344-0.318v0.979h-0.721v-2.807h0.721v0.931
		c0.546-0.027,0.97-0.135,1.271-0.321C228.063,82.741,228.314,82.466,228.515,82.103z"/>
	<path d="M226.184,73.772c0.079,0.037,0.198,0.097,0.356,0.179c0.159,0.082,0.28,0.144,0.364,0.186
		c-0.023,0.425-0.139,0.851-0.347,1.277c-0.207,0.427-0.468,0.734-0.78,0.921c0.322,0.153,0.585,0.44,0.787,0.86
		c0.203,0.42,0.316,0.866,0.34,1.337l-0.707,0.364c-0.019-0.476-0.121-0.895-0.308-1.257c-0.187-0.361-0.413-0.598-0.68-0.71v1.666
		h-0.728v-4.578h0.728v1.715c0.262-0.135,0.488-0.397,0.68-0.787S226.179,74.165,226.184,73.772z M227.843,73.507v2.352h0.35
		c0.047-0.56,0.171-0.995,0.371-1.306c0.2-0.31,0.455-0.465,0.763-0.465c0.346,0,0.621,0.2,0.826,0.602s0.308,0.95,0.308,1.646
		c0,0.699-0.103,1.247-0.308,1.641c-0.205,0.395-0.48,0.592-0.826,0.592c-0.312,0-0.569-0.156-0.77-0.469
		c-0.201-0.312-0.322-0.749-0.364-1.309h-0.35v2.352h-0.729v-5.635H227.843z M229.333,75.04c-0.135,0-0.241,0.117-0.318,0.353
		c-0.077,0.236-0.115,0.55-0.115,0.942c0,0.387,0.038,0.697,0.115,0.931s0.184,0.35,0.318,0.35c0.126,0,0.226-0.116,0.298-0.35
		s0.108-0.544,0.108-0.931c0-0.393-0.036-0.706-0.108-0.942C229.559,75.157,229.459,75.04,229.333,75.04z"/>
	<path d="M226.359,67.319v0.867h1.302v0.925h-3.443v-0.925h1.386v-0.867H226.359z M224.574,69.895
		c0.84,0.028,1.533,0.296,2.079,0.802c0.546,0.507,0.95,1.215,1.211,2.125l-0.749,0.363c-0.116-0.573-0.345-1.076-0.686-1.508
		s-0.705-0.678-1.093-0.739v1.926h-0.763V69.895z M230.384,68.187v4.067h-2.423v-4.067H230.384z M229.669,69.104h-1.015v2.227h1.015
		V69.104z"/>
	<path d="M226.926,61.543l0.776,0.413c-0.084,0.438-0.277,0.886-0.581,1.341c-0.303,0.455-0.665,0.764-1.085,0.928
		c0.42,0.153,0.78,0.455,1.082,0.902c0.301,0.448,0.496,0.898,0.584,1.352l-0.77,0.413c-0.065-0.556-0.287-1.058-0.665-1.506
		c-0.378-0.447-0.836-0.672-1.372-0.672h-0.329V63.72h0.329c0.364,0,0.697-0.11,1.001-0.332s0.54-0.494,0.71-0.819
		C226.778,62.244,226.884,61.902,226.926,61.543z M229.684,61.396v5.635h-0.729v-2.338h-1.414v-0.917h1.414v-2.38H229.684z"/>
	<path d="M226.387,55.3h0.749v0.784h0.889v0.931h-3.808v-0.931h0.818V55.3h0.749v0.784h0.603V55.3z M226.918,57.455l0.7-0.076
		c0.057,0.205,0.104,0.54,0.144,1.004c0.04,0.465,0.06,0.893,0.06,1.285c0,0.111-0.001,0.229-0.003,0.35
		c-0.003,0.121-0.006,0.257-0.011,0.406s-0.007,0.266-0.007,0.35h-1.968v-1.848h-0.531v1.841h-0.729V57.98h1.933v1.862h0.58
		c0.005-0.089,0.008-0.233,0.008-0.435C227.094,58.625,227.036,57.974,226.918,57.455z M228.368,56.566
		c0.215-0.392,0.507-0.588,0.875-0.588c0.369,0,0.66,0.196,0.875,0.588c0.215,0.393,0.322,0.929,0.322,1.61
		c0,0.686-0.107,1.225-0.322,1.617c-0.215,0.392-0.506,0.588-0.875,0.588c-0.368,0-0.66-0.196-0.875-0.588
		c-0.215-0.393-0.322-0.932-0.322-1.617C228.045,57.495,228.153,56.959,228.368,56.566z M228.889,57.273
		c-0.096,0.22-0.144,0.521-0.144,0.903s0.047,0.685,0.141,0.906c0.093,0.222,0.212,0.332,0.356,0.332s0.262-0.11,0.351-0.332
		c0.088-0.222,0.133-0.523,0.133-0.906s-0.046-0.684-0.137-0.903c-0.091-0.219-0.206-0.329-0.347-0.329
		C229.103,56.944,228.985,57.055,228.889,57.273z"/>
	<path d="M230.342,51.667c-0.351,0.383-0.771,0.697-1.264,0.945c-0.492,0.247-1.042,0.371-1.648,0.371h-0.133
		c-0.603,0-1.148-0.124-1.639-0.371c-0.49-0.248-0.91-0.562-1.26-0.945v-0.77c0.378,0.336,0.812,0.608,1.302,0.818
		s1.004,0.315,1.54,0.315h0.203c0.537,0,1.06-0.105,1.568-0.315s0.952-0.482,1.33-0.818V51.667z"/>
	<path d="M229.614,50.428h-5.117v-0.924h5.117V50.428z M229.614,48.244c-0.854,0.579-1.479,0.994-1.876,1.246
		c-0.284-0.191-0.865-0.598-1.743-1.218v-0.938l1.681,1.204c0.345-0.229,0.991-0.658,1.938-1.288V48.244z"/>
	<path d="M230.65,45.38c0,1.14-0.277,1.708-0.833,1.708c-0.331,0-0.569-0.226-0.714-0.679h-0.035
		c-0.103,0.252-0.269,0.378-0.497,0.378c-0.126,0-0.227-0.03-0.301-0.091c-0.075-0.061-0.175-0.173-0.301-0.336
		c-0.183,0.308-0.47,0.462-0.861,0.462h-0.049c-0.373,0-0.656-0.132-0.848-0.396c-0.19-0.264-0.286-0.624-0.286-1.081
		c0-0.215,0.021-0.413,0.062-0.596v-1.238h0.567v0.546c0.135-0.117,0.294-0.175,0.476-0.175h0.056c0.374,0,0.651,0.132,0.833,0.396
		c0.183,0.264,0.273,0.619,0.273,1.067c0,0.229-0.021,0.415-0.063,0.56c0.062,0.07,0.117,0.105,0.169,0.105
		c0.084,0,0.135-0.021,0.153-0.06c0.019-0.04,0.028-0.12,0.028-0.242v-1.008c0-0.798,0.317-1.197,0.952-1.197
		c0.378,0,0.675,0.157,0.893,0.47C230.542,44.286,230.65,44.755,230.65,45.38z M227.633,45.346c0-0.388-0.178-0.581-0.532-0.581
		h-0.077c-0.196,0-0.333,0.049-0.409,0.146c-0.077,0.099-0.116,0.243-0.116,0.435c0,0.396,0.171,0.595,0.512,0.595h0.084
		C227.454,45.94,227.633,45.742,227.633,45.346z M230.034,45.395c0-0.346-0.036-0.591-0.108-0.735s-0.186-0.217-0.34-0.217
		c-0.13,0-0.216,0.036-0.255,0.108c-0.04,0.072-0.06,0.214-0.06,0.424v0.889c0.074,0.22,0.21,0.329,0.406,0.329
		c0.13,0,0.223-0.06,0.276-0.179S230.034,45.688,230.034,45.395z"/>
	<path d="M230.342,43.365c-0.378-0.341-0.813-0.618-1.306-0.833s-1.005-0.322-1.537-0.322h-0.21c-0.531,0-1.052,0.108-1.561,0.325
		s-0.952,0.494-1.33,0.83v-0.777c0.35-0.378,0.771-0.689,1.264-0.935s1.039-0.367,1.642-0.367h0.133
		c0.602,0,1.149,0.122,1.642,0.367s0.913,0.557,1.264,0.935V43.365z"/>
</g>
<g>
	<path d="M6.713,79.876v0.868H0.477v-0.868H6.713z M6.434,81.073v0.861H3.815v0.707H3.073v-0.707H0.588v-0.861H6.434z M1.638,82.865
		v1.645H0.924v-1.645H1.638z M4.774,82.103l0.7,0.489c-0.117,0.211-0.305,0.425-0.563,0.645c-0.26,0.22-0.511,0.368-0.753,0.448
		c0.262,0.069,0.523,0.212,0.787,0.427s0.478,0.457,0.641,0.728l-0.658,0.504c-0.224-0.396-0.501-0.689-0.833-0.878
		c-0.331-0.189-0.779-0.295-1.344-0.318v0.979H2.03v-2.807h0.721v0.931c0.546-0.027,0.97-0.135,1.271-0.321
		C4.322,82.741,4.573,82.466,4.774,82.103z"/>
	<path d="M2.443,73.772c0.079,0.037,0.198,0.097,0.356,0.179c0.159,0.082,0.28,0.144,0.364,0.186
		c-0.023,0.425-0.139,0.851-0.347,1.277c-0.207,0.427-0.468,0.734-0.78,0.921c0.322,0.153,0.585,0.44,0.787,0.86
		c0.203,0.42,0.316,0.866,0.34,1.337l-0.707,0.364c-0.019-0.476-0.121-0.895-0.308-1.257c-0.187-0.361-0.413-0.598-0.68-0.71v1.666
		H0.742v-4.578H1.47v1.715c0.262-0.135,0.488-0.397,0.68-0.787S2.438,74.165,2.443,73.772z M4.103,73.507v2.352h0.35
		c0.047-0.56,0.171-0.995,0.371-1.306c0.2-0.31,0.455-0.465,0.763-0.465c0.346,0,0.621,0.2,0.826,0.602s0.308,0.95,0.308,1.646
		c0,0.699-0.103,1.247-0.308,1.641c-0.205,0.395-0.48,0.592-0.826,0.592c-0.312,0-0.569-0.156-0.77-0.469
		c-0.201-0.312-0.322-0.749-0.364-1.309h-0.35v2.352H3.374v-5.635H4.103z M5.593,75.04c-0.135,0-0.241,0.117-0.318,0.353
		c-0.077,0.236-0.115,0.55-0.115,0.942c0,0.387,0.038,0.697,0.115,0.931s0.184,0.35,0.318,0.35c0.126,0,0.226-0.116,0.298-0.35
		s0.108-0.544,0.108-0.931c0-0.393-0.036-0.706-0.108-0.942C5.818,75.157,5.719,75.04,5.593,75.04z"/>
	<path d="M2.618,67.319v0.867H3.92v0.925H0.477v-0.925h1.386v-0.867H2.618z M0.833,69.895c0.84,0.028,1.533,0.296,2.079,0.802
		c0.546,0.507,0.95,1.215,1.211,2.125l-0.749,0.363c-0.116-0.573-0.345-1.076-0.686-1.508s-0.705-0.678-1.093-0.739v1.926H0.833
		V69.895z M6.644,68.187v4.067H4.221v-4.067H6.644z M5.929,69.104H4.914v2.227h1.015V69.104z"/>
	<path d="M3.186,61.543l0.776,0.413c-0.084,0.438-0.277,0.886-0.581,1.341c-0.303,0.455-0.665,0.764-1.085,0.928
		c0.42,0.153,0.78,0.455,1.082,0.902c0.301,0.448,0.496,0.898,0.584,1.352l-0.77,0.413c-0.065-0.556-0.287-1.058-0.665-1.506
		c-0.378-0.447-0.836-0.672-1.372-0.672H0.826V63.72h0.329c0.364,0,0.697-0.11,1.001-0.332s0.54-0.494,0.71-0.819
		C3.037,62.244,3.144,61.902,3.186,61.543z M5.943,61.396v5.635H5.215v-2.338H3.801v-0.917h1.414v-2.38H5.943z"/>
	<path d="M2.646,55.3h0.749v0.784h0.889v0.931H0.477v-0.931h0.818V55.3h0.749v0.784h0.603V55.3z M3.178,57.455l0.7-0.076
		c0.057,0.205,0.104,0.54,0.144,1.004c0.04,0.465,0.06,0.893,0.06,1.285c0,0.111-0.001,0.229-0.003,0.35
		c-0.003,0.121-0.006,0.257-0.011,0.406s-0.007,0.266-0.007,0.35H2.093v-1.848H1.562v1.841H0.833V57.98h1.933v1.862h0.58
		c0.005-0.089,0.008-0.233,0.008-0.435C3.354,58.625,3.295,57.974,3.178,57.455z M4.627,56.566c0.215-0.392,0.507-0.588,0.875-0.588
		c0.369,0,0.66,0.196,0.875,0.588c0.215,0.393,0.322,0.929,0.322,1.61c0,0.686-0.107,1.225-0.322,1.617
		c-0.215,0.392-0.506,0.588-0.875,0.588c-0.368,0-0.66-0.196-0.875-0.588c-0.215-0.393-0.322-0.932-0.322-1.617
		C4.305,57.495,4.412,56.959,4.627,56.566z M5.148,57.273c-0.096,0.22-0.144,0.521-0.144,0.903s0.047,0.685,0.141,0.906
		c0.093,0.222,0.212,0.332,0.356,0.332s0.262-0.11,0.351-0.332c0.088-0.222,0.133-0.523,0.133-0.906s-0.046-0.684-0.137-0.903
		c-0.091-0.219-0.206-0.329-0.347-0.329C5.362,56.944,5.244,57.055,5.148,57.273z"/>
	<path d="M6.602,51.667c-0.351,0.383-0.771,0.697-1.264,0.945c-0.492,0.247-1.042,0.371-1.648,0.371H3.557
		c-0.603,0-1.148-0.124-1.639-0.371c-0.49-0.248-0.91-0.562-1.26-0.945v-0.77c0.378,0.336,0.812,0.608,1.302,0.818
		s1.004,0.315,1.54,0.315h0.203c0.537,0,1.06-0.105,1.568-0.315s0.952-0.482,1.33-0.818V51.667z"/>
	<path d="M6.132,49.721l-5.193-3.255v-0.707l5.193,3.255V49.721z M3.339,48.492c0.238,0.231,0.357,0.531,0.357,0.9
		c0,0.368-0.113,0.663-0.34,0.885S2.814,50.61,2.408,50.61H2.317c-0.415,0-0.741-0.111-0.977-0.333s-0.354-0.517-0.354-0.885
		c0-0.364,0.114-0.663,0.343-0.896s0.541-0.35,0.938-0.35h0.098C2.777,48.146,3.102,48.262,3.339,48.492z M3.15,49.393
		c0-0.164-0.055-0.281-0.165-0.354c-0.109-0.072-0.3-0.109-0.57-0.109H2.269c-0.5,0-0.749,0.154-0.749,0.463
		c0,0.298,0.247,0.447,0.741,0.447h0.147c0.266,0,0.456-0.036,0.57-0.108S3.15,49.546,3.15,49.393z M5.922,46.032
		c0,0.368-0.113,0.664-0.339,0.886c-0.227,0.222-0.54,0.332-0.941,0.332H4.543c-0.41,0-0.733-0.113-0.97-0.339
		c-0.235-0.227-0.354-0.524-0.354-0.893c0-0.364,0.112-0.658,0.337-0.883C3.78,44.912,4.093,44.8,4.494,44.8H4.6
		c0.41,0,0.733,0.112,0.969,0.336C5.805,45.36,5.922,45.659,5.922,46.032z M5.391,46.019c0-0.159-0.058-0.274-0.172-0.347
		s-0.302-0.108-0.563-0.108H4.494c-0.499,0-0.749,0.151-0.749,0.455c0,0.158,0.059,0.275,0.175,0.35
		c0.117,0.074,0.306,0.112,0.567,0.112h0.161c0.261,0,0.45-0.036,0.566-0.108C5.332,46.3,5.391,46.182,5.391,46.019z"/>
	<path d="M6.602,44.521c-0.378-0.341-0.813-0.618-1.306-0.833s-1.005-0.322-1.537-0.322h-0.21c-0.531,0-1.052,0.108-1.561,0.325
		s-0.952,0.494-1.33,0.83v-0.777c0.35-0.378,0.771-0.689,1.264-0.935s1.039-0.367,1.642-0.367h0.133
		c0.602,0,1.149,0.122,1.642,0.367s0.913,0.557,1.264,0.935V44.521z"/>
</g>
<g>
</g>
<g>
</g>
<g>
</g>
<g>
</g>
<g>
</g>
<g>
</g>
</svg>
