<?xml version="1.0" encoding="utf-8"?>
<!-- Generator: Adobe Illustrator 28.0.0, SVG Export Plug-In . SVG Version: 6.00 Build 0)  -->
<svg version="1.1" id="레이어_1" xmlns="http://www.w3.org/2000/svg" xmlns:xlink="http://www.w3.org/1999/xlink" x="0px"
	 y="0px" viewBox="0 0 759.995 333.279" enable-background="new 0 0 759.995 333.279" xml:space="preserve">
<path fill="none" stroke="#000000" stroke-miterlimit="10" d="M0,89.691"/>
<g>
	<g>
		<g>
			<polyline fill="none" stroke="#000000" stroke-miterlimit="10" points="339.608,44.212 339.608,308.635 732.031,308.635 			"/>
			<g>
				<polygon points="339.608,37.151 335.542,47.1 339.608,44.739 343.672,47.1 				"/>
			</g>
			<g>
				<polygon points="739.092,308.635 729.142,312.7 731.503,308.635 729.142,304.57 				"/>
			</g>
		</g>
	</g>
	<path fill="none" stroke="#000000" stroke-width="3" stroke-miterlimit="10" d="M339.608,71.215
		c39.096-0.305,108.904,1.56,171.355,18.581c15.285,4.166,29.688,9.12,45.419,18.065c34.812,19.794,54.16,46.642,63.484,59.871
		c15.104,21.43,22.17,39.333,32.516,65.548c11.882,30.105,18.934,56.308,23.226,75.355"/>
	<path fill="none" stroke="#E83929" stroke-width="3" stroke-miterlimit="10" d="M339.608,71.894
		c62.435-2.71,112.812,2.833,148.129,8.774c41.452,6.973,61.682,15.473,73.039,21.688c0.934,0.511,3.711,2.087,6.961,4.118
		c37.29,23.312,59.282,59.706,68.645,77.419c12.712,24.049,27.568,52.154,35.261,78.061c0.948,3.193,7.05,24.078,18.605,25.927
		c2.511,0.402,4.359-0.242,9.102,0.785c4.171,0.904,11.199,2.426,14.452,8.258c0.709,1.271,2.045,4.195,1.548,8.774"/>
	<path fill="none" stroke="#00A1E9" stroke-width="3" stroke-miterlimit="10" d="M339.608,71.287
		c10.374-0.04,79.488-0.304,130.581-0.516c24.775-0.103,49.548,0.645,74.323,0.516c46.737-0.243,60.183-1.393,82.581,4.129
		c16.56,4.083,37.775,9.563,58.323,26.839c26.087,21.933,35.29,49.587,39.226,61.935c4.746,14.891,5.246,24.662,7.226,74.839
		c0.512,12.977,1.429,36.41,2.581,67.097"/>
	<g>
		<path d="M533.073,139.615l-0.916,1.365c-0.66-0.32-1.315-0.815-1.965-1.485s-1.075-1.314-1.275-1.935
			c-0.17,0.68-0.562,1.372-1.177,2.077c-0.615,0.705-1.308,1.247-2.078,1.628l-1.05-1.29c2.14-1.021,3.26-2.79,3.36-5.311h-2.67
			v-1.38h7.125v1.38h-2.625c0.06,1.23,0.385,2.26,0.975,3.09C531.367,138.584,532.131,139.204,533.073,139.615z M526.847,132.31
			v-1.396h4.02v1.396H526.847z M535.712,143.469h-1.754v-13.364h1.754V143.469z"/>
		<path d="M548.567,138.324h-1.935v2.085h3.075v1.395h-12.075v-1.395h3.045v-2.085h-1.5V133.9h7.26v-1.545h-7.335v-1.396h9.075
			v4.335h-7.26v1.62h7.649V138.324z M542.387,138.324v2.085h2.55v-2.085H542.387z"/>
		<path d="M555.624,135.985c-0.665-0.57-0.997-1.306-0.997-2.205c0-0.9,0.33-1.655,0.989-2.265c0.66-0.61,1.48-0.915,2.46-0.915
			c0.99,0,1.812,0.302,2.468,0.907s0.982,1.362,0.982,2.272c0,0.89-0.325,1.622-0.975,2.197c-0.65,0.575-1.476,0.862-2.476,0.862
			C557.106,136.839,556.289,136.554,555.624,135.985z M560.701,143.289h-4.784v-5.205h1.649v1.41h1.5v-1.44h1.635V143.289z
			 M556.854,132.572c-0.346,0.346-0.518,0.743-0.518,1.193c0,0.449,0.165,0.832,0.495,1.147c0.329,0.314,0.744,0.472,1.244,0.472
			c0.511,0,0.931-0.159,1.261-0.479s0.495-0.7,0.495-1.14c0-0.471-0.163-0.873-0.488-1.208s-0.747-0.503-1.268-0.503
			C557.606,132.054,557.199,132.227,556.854,132.572z M559.066,141.985v-1.245h-1.5v1.245H559.066z M566.716,142.074l-0.931,1.32
			c-0.37-0.141-0.757-0.391-1.162-0.75c-0.405-0.36-0.678-0.745-0.817-1.155c-0.11,0.35-0.375,0.715-0.795,1.095
			s-0.846,0.65-1.275,0.811l-0.96-1.38c1.44-0.561,2.16-1.591,2.16-3.091v-1.005h1.725v1.005c0,0.771,0.175,1.433,0.525,1.988
			C565.536,141.467,566.047,141.855,566.716,142.074z M565.591,137.289h-1.755v-2.835h-1.785v-1.41h1.785v-2.939h1.755V137.289z"/>
		<path d="M579.602,137.695h-12.075v-1.41h12.075V137.695z M568.907,132.969c0-0.76,0.41-1.38,1.229-1.859
			c0.82-0.48,1.96-0.72,3.421-0.72c1.47,0,2.617,0.239,3.442,0.72c0.824,0.479,1.237,1.1,1.237,1.859
			c0,0.771-0.413,1.396-1.237,1.875c-0.825,0.48-1.968,0.721-3.428,0.721s-2.603-0.24-3.428-0.721
			C569.319,134.365,568.907,133.74,568.907,132.969z M578.057,143.304h-8.985v-4.545h8.985V143.304z M571.471,132.084
			c-0.5,0.221-0.75,0.516-0.75,0.885c0,0.37,0.25,0.668,0.75,0.893c0.5,0.226,1.195,0.338,2.086,0.338
			c0.879,0,1.577-0.112,2.092-0.338c0.516-0.225,0.772-0.522,0.772-0.893c0-0.369-0.252-0.664-0.757-0.885
			c-0.506-0.22-1.208-0.33-2.107-0.33C572.667,131.754,571.971,131.865,571.471,132.084z M576.317,141.94v-1.846h-5.505v1.846
			H576.317z"/>
	</g>
	<g>
		<path fill="#E83929" d="M685.042,257.727c-1.319,0.171-2.824,0.301-4.515,0.391c-2,0.08-3.399,0.115-4.199,0.104l-0.256-1.5
			c1.641,0,3.091-0.024,4.351-0.075c1.74-0.06,3.229-0.17,4.471-0.329L685.042,257.727z M676.583,251.847
			c0-0.949,0.34-1.723,1.02-2.317s1.58-0.893,2.7-0.893s2.018,0.298,2.692,0.893s1.013,1.368,1.013,2.317
			c0,0.94-0.338,1.71-1.013,2.311c-0.675,0.6-1.572,0.899-2.692,0.899c-1.11,0-2.008-0.3-2.692-0.899
			C676.924,253.557,676.583,252.787,676.583,251.847z M678.382,251.832c0,0.51,0.172,0.93,0.518,1.26
			c0.345,0.33,0.812,0.495,1.402,0.495s1.06-0.165,1.41-0.495c0.35-0.33,0.524-0.75,0.524-1.26c0-0.49-0.175-0.897-0.524-1.223
			c-0.351-0.325-0.82-0.487-1.41-0.487c-0.58,0-1.045,0.162-1.396,0.487C678.557,250.935,678.382,251.342,678.382,251.832z
			 M687.339,247.782v13.364h-1.74v-13.364H687.339z"/>
		<path fill="#E83929" d="M699.967,256.002h-1.935v2.085h3.075v1.395h-12.075v-1.395h3.045v-2.085h-1.5v-4.425h7.26v-1.545h-7.335
			v-1.396h9.075v4.335h-7.26v1.62h7.649V256.002z M693.788,256.002v2.085h2.55v-2.085H693.788z"/>
		<path fill="#E83929" d="M706.282,259.347v-1.08l1.965-2.069c0.87-0.92,1.515-1.683,1.935-2.288c0.42-0.604,0.63-1.197,0.63-1.777
			c0-0.609-0.162-1.05-0.487-1.32c-0.325-0.27-0.822-0.404-1.492-0.404c-0.66,0-1.37,0.229-2.13,0.689l-0.3-1.365
			c0.89-0.52,1.864-0.779,2.925-0.779c1.109,0,1.955,0.255,2.535,0.765c0.579,0.51,0.87,1.235,0.87,2.175
			c0,0.431-0.078,0.863-0.233,1.298c-0.154,0.435-0.397,0.875-0.728,1.32c-0.329,0.444-0.617,0.805-0.862,1.08
			c-0.245,0.274-0.577,0.632-0.997,1.072l-1.215,1.245h4.125v1.439H706.282z"/>
		<path fill="#E83929" d="M714.502,259.587v-1.755h1.83v1.755H714.502z"/>
		<path fill="#E83929" d="M722.091,259.528c-1.2,0-2.165-0.408-2.895-1.223c-0.73-0.815-1.096-2.053-1.096-3.713v-0.645
			c0-0.891,0.107-1.665,0.323-2.325c0.215-0.66,0.512-1.18,0.893-1.561c0.38-0.38,0.802-0.659,1.268-0.84
			c0.465-0.18,0.972-0.27,1.522-0.27c1.17,0,2.122,0.399,2.857,1.2c0.734,0.8,1.103,2.05,1.103,3.75v0.645
			c0,1.7-0.37,2.955-1.11,3.765C724.216,259.122,723.261,259.528,722.091,259.528z M722.091,258.117c0.7,0,1.22-0.272,1.561-0.817
			c0.34-0.545,0.51-1.423,0.51-2.633v-0.765c0-2.351-0.686-3.525-2.055-3.525c-0.711,0-1.235,0.272-1.575,0.817
			s-0.51,1.413-0.51,2.603v0.795C720.022,256.943,720.712,258.117,722.091,258.117z"/>
	</g>
	<g>
		<path fill="#00A1E9" d="M658.913,121.503c-1.319,0.171-2.824,0.301-4.515,0.391c-2,0.08-3.399,0.115-4.199,0.104l-0.256-1.5
			c1.641,0,3.091-0.024,4.351-0.075c1.74-0.06,3.229-0.17,4.471-0.329L658.913,121.503z M650.454,115.623
			c0-0.949,0.34-1.723,1.02-2.317s1.58-0.893,2.7-0.893s2.018,0.298,2.692,0.893s1.013,1.368,1.013,2.317
			c0,0.94-0.338,1.71-1.013,2.311c-0.675,0.6-1.572,0.899-2.692,0.899c-1.11,0-2.008-0.3-2.692-0.899
			C650.796,117.333,650.454,116.564,650.454,115.623z M652.254,115.609c0,0.51,0.172,0.93,0.518,1.26
			c0.345,0.33,0.812,0.495,1.402,0.495s1.06-0.165,1.41-0.495c0.35-0.33,0.524-0.75,0.524-1.26c0-0.49-0.175-0.897-0.524-1.223
			c-0.351-0.325-0.82-0.487-1.41-0.487c-0.58,0-1.045,0.162-1.396,0.487C652.428,114.711,652.254,115.118,652.254,115.609z
			 M661.21,111.559v13.364h-1.74v-13.364H661.21z"/>
		<path fill="#00A1E9" d="M673.839,119.779h-1.935v2.085h3.075v1.395h-12.075v-1.395h3.045v-2.085h-1.5v-4.425h7.26v-1.545h-7.335
			v-1.396h9.075v4.335h-7.26v1.62h7.649V119.779z M667.659,119.779v2.085h2.55v-2.085H667.659z"/>
		<path fill="#00A1E9" d="M682.913,123.274c-0.59,0-1.162-0.07-1.718-0.21c-0.555-0.14-0.987-0.31-1.297-0.51l0.3-1.335
			c0.26,0.159,0.627,0.297,1.103,0.412c0.475,0.115,0.907,0.173,1.297,0.173c0.7,0,1.24-0.146,1.62-0.436s0.57-0.72,0.57-1.29
			c0-1.02-0.71-1.54-2.13-1.56l-1.065-0.03v-1.335l0.945-0.015c0.6-0.021,1.08-0.163,1.44-0.428
			c0.359-0.265,0.539-0.633,0.539-1.103c0-0.94-0.609-1.41-1.829-1.41c-0.681,0-1.41,0.18-2.19,0.54l-0.21-1.365
			c0.32-0.18,0.755-0.332,1.305-0.457s1.075-0.188,1.575-0.188c0.97,0,1.745,0.223,2.325,0.667c0.58,0.445,0.87,1.073,0.87,1.883
			c0,1.17-0.615,1.97-1.846,2.4c1.46,0.29,2.19,1.13,2.19,2.52c0,0.95-0.34,1.7-1.02,2.25
			C685.007,122.998,684.083,123.274,682.913,123.274z"/>
		<path fill="#00A1E9" d="M688.387,123.364v-1.755h1.83v1.755H688.387z"/>
		<path fill="#00A1E9" d="M695.978,123.304c-1.2,0-2.165-0.408-2.895-1.223c-0.73-0.815-1.096-2.053-1.096-3.713v-0.645
			c0-0.891,0.107-1.665,0.323-2.325c0.215-0.66,0.512-1.18,0.893-1.561c0.38-0.38,0.802-0.659,1.268-0.84
			c0.465-0.18,0.972-0.27,1.522-0.27c1.17,0,2.122,0.399,2.857,1.2c0.734,0.8,1.103,2.05,1.103,3.75v0.645
			c0,1.7-0.37,2.955-1.11,3.765C698.103,122.899,697.148,123.304,695.978,123.304z M695.978,121.894c0.7,0,1.22-0.272,1.561-0.817
			c0.34-0.545,0.51-1.423,0.51-2.633v-0.765c0-2.351-0.686-3.525-2.055-3.525c-0.711,0-1.235,0.272-1.575,0.817
			s-0.51,1.413-0.51,2.603v0.795C693.909,120.719,694.598,121.894,695.978,121.894z"/>
	</g>
	<g>
		<path d="M532.036,330.654h-1.965v-4.65h-5.01v-1.575h12.075v1.575h-5.1V330.654z M536.611,321.819l-0.765,1.62
			c-1.04-0.15-2.006-0.498-2.896-1.043c-0.889-0.545-1.504-1.178-1.844-1.897c-0.36,0.73-0.982,1.37-1.867,1.92
			c-0.886,0.55-1.838,0.896-2.858,1.035l-0.779-1.59c1.21-0.13,2.257-0.53,3.143-1.2c0.885-0.67,1.327-1.5,1.327-2.49v-0.614h2.07
			v0.614c0,0.98,0.438,1.798,1.312,2.453C534.329,321.281,535.38,321.678,536.611,321.819z"/>
		<path d="M544.77,324.428h-6.255v-6.104h6.255V324.428z M549.241,327.894c0,0.83-0.42,1.484-1.261,1.965
			c-0.84,0.479-1.994,0.72-3.465,0.72c-1.47,0-2.622-0.24-3.457-0.72c-0.835-0.48-1.253-1.135-1.253-1.965
			c0-0.841,0.418-1.505,1.253-1.995s1.987-0.735,3.457-0.735c1.471,0,2.625,0.245,3.465,0.735
			C548.821,326.389,549.241,327.053,549.241,327.894z M542.821,322.869v-3h-2.341v3H542.821z M544.515,326.754
			c-0.85,0-1.513,0.103-1.987,0.308s-0.712,0.482-0.712,0.833c0,0.35,0.237,0.625,0.712,0.824c0.475,0.2,1.138,0.301,1.987,0.301
			c0.86,0,1.527-0.101,2.003-0.301c0.475-0.199,0.712-0.475,0.712-0.824c0-0.351-0.237-0.628-0.712-0.833
			C546.043,326.856,545.376,326.754,544.515,326.754z M547.126,320.799h-1.56v-1.529h1.56v-1.995h2.01v7.8h-2.01v-1.59h-1.575v-1.53
			h1.575V320.799z"/>
	</g>
	<g>
		<path d="M312.613,201.192c-0.944,0-1.724-0.188-2.34-0.563l0.264-1.129c0.553,0.328,1.12,0.492,1.704,0.492
			c0.576,0,1.026-0.134,1.351-0.401c0.323-0.269,0.485-0.65,0.485-1.146c0-0.983-0.592-1.476-1.775-1.476
			c-0.521,0-1.076,0.147-1.668,0.443l0.3-4.523h4.296v1.151h-3.168l-0.156,2.005c0.368-0.097,0.712-0.145,1.032-0.145
			c0.84,0,1.494,0.216,1.962,0.648c0.468,0.432,0.702,1.076,0.702,1.932c0,0.784-0.271,1.432-0.811,1.944
			C314.251,200.936,313.525,201.192,312.613,201.192z"/>
		<path d="M319.897,201.216c-0.96,0-1.732-0.326-2.315-0.979c-0.585-0.651-0.876-1.642-0.876-2.97v-0.516
			c0-0.713,0.085-1.332,0.258-1.86c0.172-0.528,0.409-0.944,0.714-1.248c0.304-0.304,0.642-0.528,1.014-0.672
			c0.372-0.145,0.778-0.216,1.218-0.216c0.937,0,1.698,0.319,2.286,0.96c0.588,0.64,0.882,1.64,0.882,3v0.516
			c0,1.36-0.296,2.364-0.888,3.012C321.597,200.892,320.834,201.216,319.897,201.216z M319.897,200.088
			c0.56,0,0.977-0.219,1.248-0.654c0.272-0.437,0.408-1.138,0.408-2.106v-0.611c0-1.88-0.548-2.82-1.645-2.82
			c-0.567,0-0.987,0.218-1.26,0.654c-0.271,0.436-0.408,1.13-0.408,2.082v0.636C318.241,199.148,318.794,200.088,319.897,200.088z"
			/>
		<path d="M327.739,196.77c-0.372,0.412-0.866,0.618-1.481,0.618c-0.616,0-1.108-0.196-1.477-0.588
			c-0.368-0.393-0.552-0.929-0.552-1.608v-0.156c0-0.695,0.184-1.248,0.552-1.655c0.368-0.408,0.86-0.612,1.477-0.612
			c0.615,0,1.109,0.192,1.481,0.576s0.559,0.916,0.559,1.596v0.18C328.297,195.808,328.111,196.358,327.739,196.77z
			 M326.257,196.535c0.288,0,0.5-0.104,0.636-0.312s0.204-0.548,0.204-1.021v-0.264c0-0.888-0.28-1.332-0.84-1.332
			c-0.552,0-0.828,0.44-0.828,1.32v0.264c0,0.473,0.067,0.814,0.204,1.026C325.769,196.43,325.977,196.535,326.257,196.535z
			 M325.657,201.588l5.616-8.916h1.092l-5.615,8.916H325.657z M331.897,201.228c-0.624,0-1.122-0.194-1.494-0.582
			s-0.558-0.926-0.558-1.614v-0.168c0-0.68,0.188-1.224,0.563-1.632s0.872-0.612,1.488-0.612s1.112,0.194,1.488,0.582
			c0.376,0.389,0.563,0.918,0.563,1.59v0.181c0,0.68-0.188,1.226-0.563,1.638S332.513,201.228,331.897,201.228z M331.267,200.052
			c0.132,0.208,0.342,0.312,0.63,0.312s0.5-0.102,0.636-0.306c0.137-0.204,0.204-0.538,0.204-1.002v-0.265
			c0-0.88-0.28-1.319-0.84-1.319c-0.552,0-0.828,0.436-0.828,1.308v0.265C331.069,199.508,331.135,199.844,331.267,200.052z"/>
	</g>
	<g>
		<path d="M305.797,77.699v-6.768l-1.38,0.276v-0.864l2.088-0.937h0.78v8.292H305.797z"/>
		<path d="M312.301,77.796c-0.96,0-1.732-0.326-2.315-0.979c-0.585-0.651-0.876-1.642-0.876-2.97v-0.516
			c0-0.713,0.085-1.332,0.258-1.86c0.172-0.528,0.409-0.944,0.714-1.248c0.304-0.304,0.642-0.528,1.014-0.672
			c0.372-0.145,0.778-0.216,1.218-0.216c0.937,0,1.698,0.319,2.286,0.96c0.588,0.64,0.882,1.64,0.882,3v0.516
			c0,1.36-0.296,2.364-0.888,3.012C314.002,77.472,313.238,77.796,312.301,77.796z M312.301,76.668c0.56,0,0.977-0.219,1.248-0.654
			c0.272-0.437,0.408-1.138,0.408-2.106v-0.611c0-1.88-0.548-2.82-1.645-2.82c-0.567,0-0.987,0.218-1.26,0.654
			c-0.271,0.436-0.408,1.13-0.408,2.082v0.636C310.645,75.728,311.198,76.668,312.301,76.668z"/>
		<path d="M320.053,77.796c-0.96,0-1.732-0.326-2.315-0.979c-0.585-0.651-0.876-1.642-0.876-2.97v-0.516
			c0-0.713,0.085-1.332,0.258-1.86c0.172-0.528,0.409-0.944,0.714-1.248c0.304-0.304,0.642-0.528,1.014-0.672
			c0.372-0.145,0.778-0.216,1.218-0.216c0.937,0,1.698,0.319,2.286,0.96c0.588,0.64,0.882,1.64,0.882,3v0.516
			c0,1.36-0.296,2.364-0.888,3.012C321.754,77.472,320.99,77.796,320.053,77.796z M320.053,76.668c0.56,0,0.977-0.219,1.248-0.654
			c0.272-0.437,0.408-1.138,0.408-2.106v-0.611c0-1.88-0.548-2.82-1.645-2.82c-0.567,0-0.987,0.218-1.26,0.654
			c-0.271,0.436-0.408,1.13-0.408,2.082v0.636C318.397,75.728,318.95,76.668,320.053,76.668z"/>
		<path d="M327.895,73.35c-0.372,0.412-0.866,0.618-1.481,0.618c-0.616,0-1.108-0.196-1.477-0.588
			c-0.368-0.393-0.552-0.929-0.552-1.608v-0.156c0-0.695,0.184-1.248,0.552-1.655c0.368-0.408,0.86-0.612,1.477-0.612
			c0.615,0,1.109,0.192,1.481,0.576s0.559,0.916,0.559,1.596v0.18C328.454,72.388,328.267,72.938,327.895,73.35z M326.414,73.115
			c0.288,0,0.5-0.104,0.636-0.312s0.204-0.548,0.204-1.021V71.52c0-0.888-0.28-1.332-0.84-1.332c-0.552,0-0.828,0.44-0.828,1.32
			v0.264c0,0.473,0.067,0.814,0.204,1.026C325.925,73.01,326.133,73.115,326.414,73.115z M325.813,78.168l5.616-8.916h1.092
			l-5.615,8.916H325.813z M332.053,77.808c-0.624,0-1.122-0.194-1.494-0.582s-0.558-0.926-0.558-1.614v-0.168
			c0-0.68,0.188-1.224,0.563-1.632s0.872-0.612,1.488-0.612s1.112,0.194,1.488,0.582c0.376,0.389,0.563,0.918,0.563,1.59v0.181
			c0,0.68-0.188,1.226-0.563,1.638S332.67,77.808,332.053,77.808z M331.423,76.632c0.132,0.208,0.342,0.312,0.63,0.312
			s0.5-0.102,0.636-0.306c0.137-0.204,0.204-0.538,0.204-1.002v-0.265c0-0.88-0.28-1.319-0.84-1.319
			c-0.552,0-0.828,0.436-0.828,1.308v0.265C331.225,76.088,331.292,76.424,331.423,76.632z"/>
	</g>
	<g>
		<path d="M293.214,212.276v1.404h-3.443v1.968h-1.152v-1.968h-3.156v-1.404H293.214z M286.278,215.636
			c1.479,0.032,2.7,0.474,3.66,1.326s1.651,2.01,2.075,3.474l-1.115,0.696c-0.185-0.984-0.58-1.852-1.188-2.604
			c-0.607-0.752-1.364-1.212-2.268-1.38v3.468h-1.164V215.636z M295.866,212.048v7.272h-3.372v-1.416h2.256v-5.856H295.866z"/>
		<path d="M289.134,200.852v1.524h2.568v1.416h-6.24v-1.416h2.521v-1.524H289.134z M286.194,205.364
			c1.416,0.008,2.59,0.436,3.521,1.284c0.933,0.848,1.61,2.021,2.034,3.516l-1.116,0.696c-0.208-0.976-0.596-1.84-1.164-2.592
			c-0.567-0.752-1.271-1.2-2.111-1.344v3.42h-1.164V205.364z M293.983,202.244c0.664,0,1.191,0.322,1.584,0.966
			c0.392,0.644,0.588,1.546,0.588,2.706c0,1.136-0.196,2.024-0.588,2.664c-0.393,0.64-0.92,0.96-1.584,0.96
			c-0.673,0-1.202-0.32-1.591-0.96c-0.388-0.64-0.582-1.528-0.582-2.664c0-1.16,0.194-2.062,0.582-2.706
			C292.78,202.566,293.31,202.244,293.983,202.244z M294.756,204.272c-0.188-0.392-0.445-0.588-0.773-0.588
			s-0.584,0.196-0.769,0.588c-0.184,0.392-0.275,0.94-0.275,1.644c0,0.696,0.092,1.236,0.275,1.62
			c0.185,0.384,0.44,0.576,0.769,0.576s0.586-0.192,0.773-0.576c0.188-0.384,0.282-0.924,0.282-1.62
			C295.038,205.212,294.944,204.664,294.756,204.272z"/>
		<path d="M289.231,191.096l1.14,0.612c-0.12,0.808-0.412,1.583-0.876,2.322c-0.464,0.74-0.984,1.238-1.561,1.494
			c0.576,0.232,1.095,0.714,1.555,1.446s0.758,1.514,0.894,2.346l-1.151,0.6c-0.104-0.976-0.437-1.828-0.996-2.556
			c-0.561-0.728-1.225-1.092-1.992-1.092h-0.552v-1.488h0.552c0.512,0,0.992-0.19,1.439-0.57c0.448-0.38,0.805-0.848,1.068-1.404
			C289.014,192.25,289.174,191.68,289.231,191.096z M296.166,194.852v1.416h-3.804v4.092h-1.104v-9.66h1.104v4.152H296.166z"/>
		<path d="M288.126,182.54v1.464h-1.104v-1.464h-1.561v-1.392h6.229v1.392h-1.356v1.476h-1.104v-1.476H288.126z M291.054,184.604
			v4.944h-4.823v-4.944H291.054z M289.974,185.984h-2.664v2.184h2.664V185.984z M293.994,181.064c0.664,0,1.19,0.324,1.578,0.972
			c0.388,0.648,0.582,1.552,0.582,2.712c0,1.136-0.194,2.026-0.582,2.67s-0.914,0.966-1.578,0.966c-0.672,0-1.202-0.32-1.59-0.96
			s-0.582-1.532-0.582-2.676c0-1.16,0.191-2.064,0.576-2.712C292.782,181.388,293.315,181.064,293.994,181.064z M292.939,184.748
			c0,0.68,0.094,1.218,0.281,1.614c0.188,0.396,0.446,0.594,0.774,0.594c0.32,0,0.572-0.198,0.756-0.594
			c0.185-0.396,0.276-0.934,0.276-1.614c0-0.704-0.092-1.252-0.276-1.644c-0.184-0.392-0.436-0.588-0.756-0.588
			c-0.328,0-0.586,0.196-0.774,0.588C293.032,183.496,292.939,184.044,292.939,184.748z"/>
	</g>
	<g>
		<rect x="392.2" fill="none" width="279.226" height="41.29"/>
		<path d="M474.339,8.772c-1.056,0.136-2.26,0.24-3.612,0.312c-1.6,0.064-2.72,0.092-3.359,0.084l-0.204-1.2
			c1.312,0,2.472-0.02,3.479-0.06c1.393-0.048,2.584-0.136,3.576-0.264L474.339,8.772z M467.572,4.068
			c0-0.76,0.271-1.378,0.815-1.854c0.544-0.476,1.265-0.714,2.16-0.714c0.896,0,1.614,0.238,2.154,0.714
			c0.54,0.476,0.81,1.094,0.81,1.854c0,0.752-0.27,1.368-0.81,1.848s-1.258,0.72-2.154,0.72c-0.888,0-1.606-0.24-2.154-0.72
			S467.572,4.821,467.572,4.068z M469.011,4.056c0,0.408,0.139,0.744,0.414,1.008c0.276,0.264,0.65,0.396,1.122,0.396
			s0.848-0.132,1.128-0.396c0.28-0.264,0.42-0.6,0.42-1.008c0-0.392-0.14-0.718-0.42-0.978s-0.656-0.39-1.128-0.39
			c-0.464,0-0.836,0.13-1.116,0.39C469.152,3.338,469.011,3.664,469.011,4.056z M476.175,0.816v10.692h-1.392V0.816H476.175z"/>
		<path d="M486.28,7.392h-1.549V9.06h2.46v1.116h-9.659V9.06h2.436V7.392h-1.2v-3.54h5.809V2.616h-5.868V1.5h7.26v3.468h-5.808
			v1.296h6.12V7.392z M481.336,7.392V9.06h2.04V7.392H481.336z"/>
		<path d="M491.332,10.068V9.204l1.572-1.656c0.695-0.736,1.212-1.346,1.548-1.83c0.336-0.484,0.504-0.958,0.504-1.422
			c0-0.488-0.13-0.84-0.39-1.056c-0.261-0.216-0.658-0.324-1.194-0.324c-0.528,0-1.096,0.184-1.704,0.552l-0.24-1.092
			c0.712-0.416,1.492-0.624,2.34-0.624c0.889,0,1.564,0.204,2.028,0.612c0.464,0.408,0.696,0.988,0.696,1.74
			c0,0.344-0.062,0.69-0.187,1.038s-0.317,0.7-0.582,1.056c-0.264,0.356-0.494,0.644-0.689,0.864
			c-0.196,0.22-0.462,0.506-0.798,0.858l-0.973,0.996h3.301v1.152H491.332z"/>
		<path d="M497.908,10.261V8.856h1.464v1.404H497.908z"/>
		<path d="M503.979,10.212c-0.96,0-1.732-0.326-2.315-0.978c-0.585-0.652-0.876-1.642-0.876-2.97V5.748
			c0-0.712,0.085-1.332,0.258-1.86c0.172-0.528,0.409-0.944,0.714-1.248c0.304-0.304,0.642-0.528,1.014-0.672
			c0.372-0.144,0.778-0.216,1.218-0.216c0.937,0,1.698,0.32,2.286,0.96c0.588,0.64,0.882,1.64,0.882,3v0.516
			c0,1.36-0.296,2.364-0.888,3.012S504.916,10.212,503.979,10.212z M503.979,9.084c0.56,0,0.977-0.218,1.248-0.654
			c0.272-0.436,0.408-1.138,0.408-2.106V5.712c0-1.88-0.548-2.82-1.645-2.82c-0.567,0-0.987,0.218-1.26,0.654
			c-0.271,0.437-0.408,1.13-0.408,2.082v0.636C502.323,8.144,502.876,9.084,503.979,9.084z"/>
		<path d="M517.072,5.928h-5.137V1.68h5.137V5.928z M520.755,10.524l-0.636,1.092c-0.752-0.08-1.475-0.296-2.166-0.648
			c-0.692-0.353-1.139-0.72-1.338-1.104c-0.2,0.392-0.654,0.764-1.362,1.116s-1.434,0.556-2.178,0.612l-0.637-1.068
			c0.712-0.04,1.385-0.198,2.017-0.474c0.632-0.276,1.06-0.626,1.284-1.05h-2.904V7.932h7.512V9h-2.844
			c0.224,0.424,0.646,0.778,1.266,1.062C519.389,10.346,520.051,10.5,520.755,10.524z M515.691,4.824V2.748h-2.363v2.076H515.691z
			 M518.2,7.512h-3.288v-1.08h3.288V7.512z M520.24,6.708h-1.404V0.816h1.404V6.708z"/>
		<path d="M532.131,8.772c-1.056,0.136-2.26,0.24-3.612,0.312c-1.6,0.064-2.72,0.092-3.359,0.084l-0.204-1.2
			c1.312,0,2.472-0.02,3.479-0.06c1.393-0.048,2.584-0.136,3.576-0.264L532.131,8.772z M525.364,4.068
			c0-0.76,0.271-1.378,0.815-1.854c0.544-0.476,1.265-0.714,2.16-0.714c0.896,0,1.614,0.238,2.154,0.714
			c0.54,0.476,0.81,1.094,0.81,1.854c0,0.752-0.27,1.368-0.81,1.848s-1.258,0.72-2.154,0.72c-0.888,0-1.606-0.24-2.154-0.72
			S525.364,4.821,525.364,4.068z M526.803,4.056c0,0.408,0.139,0.744,0.414,1.008c0.276,0.264,0.65,0.396,1.122,0.396
			s0.848-0.132,1.128-0.396c0.28-0.264,0.42-0.6,0.42-1.008c0-0.392-0.14-0.718-0.42-0.978s-0.656-0.39-1.128-0.39
			c-0.464,0-0.836,0.13-1.116,0.39C526.944,3.338,526.803,3.664,526.803,4.056z M533.967,0.816v10.692h-1.392V0.816H533.967z"/>
		<path d="M544.072,7.392h-1.549V9.06h2.46v1.116h-9.659V9.06h2.436V7.392h-1.2v-3.54h5.809V2.616H536.5V1.5h7.26v3.468h-5.808
			v1.296h6.12V7.392z M539.128,7.392V9.06h2.04V7.392H539.128z"/>
		<path d="M551.332,10.188c-0.472,0-0.93-0.056-1.374-0.168c-0.444-0.112-0.79-0.248-1.038-0.408l0.24-1.068
			c0.208,0.128,0.502,0.238,0.882,0.33c0.38,0.092,0.726,0.138,1.038,0.138c0.56,0,0.992-0.116,1.296-0.348s0.456-0.576,0.456-1.032
			c0-0.816-0.568-1.231-1.704-1.248l-0.852-0.024V5.292l0.756-0.012c0.479-0.016,0.864-0.13,1.151-0.342
			c0.288-0.212,0.433-0.506,0.433-0.882c0-0.752-0.488-1.128-1.464-1.128c-0.545,0-1.128,0.144-1.752,0.432l-0.168-1.092
			c0.256-0.144,0.604-0.266,1.044-0.366c0.439-0.1,0.859-0.15,1.26-0.15c0.775,0,1.396,0.178,1.86,0.534
			c0.464,0.356,0.695,0.858,0.695,1.506c0,0.936-0.492,1.576-1.476,1.92c1.168,0.232,1.752,0.904,1.752,2.016
			c0,0.76-0.272,1.36-0.816,1.8C553.007,9.969,552.267,10.188,551.332,10.188z"/>
		<path d="M555.712,10.261V8.856h1.464v1.404H555.712z"/>
		<path d="M561.783,10.212c-0.96,0-1.732-0.326-2.315-0.978c-0.585-0.652-0.876-1.642-0.876-2.97V5.748
			c0-0.712,0.085-1.332,0.258-1.86c0.172-0.528,0.409-0.944,0.714-1.248c0.304-0.304,0.642-0.528,1.014-0.672
			c0.372-0.144,0.778-0.216,1.218-0.216c0.937,0,1.698,0.32,2.286,0.96c0.588,0.64,0.882,1.64,0.882,3v0.516
			c0,1.36-0.296,2.364-0.888,3.012S562.719,10.212,561.783,10.212z M561.783,9.084c0.56,0,0.977-0.218,1.248-0.654
			c0.272-0.436,0.408-1.138,0.408-2.106V5.712c0-1.88-0.548-2.82-1.645-2.82c-0.567,0-0.987,0.218-1.26,0.654
			c-0.271,0.437-0.408,1.13-0.408,2.082v0.636C560.127,8.144,560.679,9.084,561.783,9.084z"/>
		<path d="M573.015,11.016h-1.32v-4.98h-0.912c-0.064,0.944-0.29,1.722-0.678,2.334c-0.389,0.612-0.935,0.918-1.638,0.918
			c-0.521,0-0.961-0.188-1.32-0.564c-0.36-0.376-0.614-0.844-0.762-1.404c-0.148-0.56-0.223-1.188-0.223-1.884
			c0-0.688,0.074-1.308,0.223-1.86c0.147-0.552,0.401-1.016,0.762-1.392c0.359-0.376,0.8-0.564,1.32-0.564
			c0.712,0,1.26,0.306,1.644,0.918s0.607,1.394,0.672,2.346h0.912V1.02h1.32V11.016z M569.247,7.32
			c0.168-0.48,0.252-1.104,0.252-1.872c0-0.768-0.084-1.394-0.252-1.878c-0.168-0.484-0.424-0.726-0.768-0.726
			c-0.328,0-0.576,0.242-0.744,0.726c-0.168,0.484-0.252,1.11-0.252,1.878c0,0.76,0.084,1.382,0.252,1.866
			c0.168,0.484,0.416,0.726,0.744,0.726C568.823,8.04,569.079,7.801,569.247,7.32z M575.151,11.509h-1.32V0.816h1.32V11.509z"/>
		<path d="M582.939,8.076l-0.805,1.056c-0.472-0.288-0.956-0.726-1.451-1.314c-0.496-0.588-0.833-1.15-1.009-1.686
			c-0.176,0.608-0.506,1.214-0.989,1.818c-0.484,0.604-1.007,1.058-1.566,1.362l-0.84-1.032c1.768-1.152,2.652-2.796,2.652-4.932
			V1.716h1.439v1.56c0,1.04,0.224,1.968,0.672,2.784S582.123,7.548,582.939,8.076z M585.291,11.509h-1.416V5.616h-1.932V4.428h1.932
			V0.816h1.416V11.509z"/>
		<path d="M594.003,8.772c-1.056,0.136-2.26,0.24-3.612,0.312c-1.6,0.064-2.72,0.092-3.359,0.084l-0.204-1.2
			c1.312,0,2.472-0.02,3.479-0.06c1.393-0.048,2.584-0.136,3.576-0.264L594.003,8.772z M587.235,4.068
			c0-0.76,0.271-1.378,0.815-1.854c0.544-0.476,1.265-0.714,2.16-0.714c0.896,0,1.614,0.238,2.154,0.714
			c0.54,0.476,0.81,1.094,0.81,1.854c0,0.752-0.27,1.368-0.81,1.848s-1.258,0.72-2.154,0.72c-0.888,0-1.606-0.24-2.154-0.72
			S587.235,4.821,587.235,4.068z M588.674,4.056c0,0.408,0.139,0.744,0.414,1.008c0.276,0.264,0.65,0.396,1.122,0.396
			s0.848-0.132,1.128-0.396c0.28-0.264,0.42-0.6,0.42-1.008c0-0.392-0.14-0.718-0.42-0.978s-0.656-0.39-1.128-0.39
			c-0.464,0-0.836,0.13-1.116,0.39C588.815,3.338,588.674,3.664,588.674,4.056z M595.839,0.816v10.692h-1.392V0.816H595.839z"/>
		<path d="M483.754,33.6h-2.124v-5.706h-6.138v-1.656h14.49v1.656h-6.229V33.6z M489.387,23.197l-0.918,1.71
			c-1.212-0.18-2.373-0.618-3.482-1.314c-1.11-0.696-1.857-1.476-2.241-2.34c-0.348,0.864-1.071,1.641-2.169,2.331
			c-1.098,0.69-2.271,1.137-3.519,1.341l-0.9-1.728c1.464-0.156,2.742-0.654,3.834-1.494c1.092-0.84,1.638-1.836,1.638-2.988v-0.828
			h2.232v0.828c0,0.768,0.285,1.488,0.854,2.16c0.57,0.672,1.272,1.206,2.106,1.602S488.511,23.113,489.387,23.197z"/>
		<path d="M499.126,25.932h-7.415v-7.236h7.415V25.932z M504.436,30.343c0,0.996-0.486,1.785-1.458,2.367
			c-0.972,0.582-2.328,0.873-4.068,0.873c-1.704,0-3.039-0.291-4.005-0.873c-0.966-0.582-1.449-1.371-1.449-2.367
			c0-1.008,0.48-1.803,1.44-2.385c0.96-0.582,2.298-0.873,4.014-0.873c1.74,0,3.097,0.288,4.068,0.864
			C503.95,28.524,504.436,29.323,504.436,30.343z M497.056,24.312v-3.996h-3.276v3.996H497.056z M498.91,28.759
			c-1.02,0-1.827,0.141-2.421,0.423c-0.594,0.282-0.891,0.669-0.891,1.161c0,0.48,0.297,0.858,0.891,1.134
			c0.594,0.276,1.401,0.414,2.421,0.414c1.056,0,1.878-0.138,2.466-0.414c0.588-0.276,0.883-0.654,0.883-1.134
			c0-0.492-0.295-0.879-0.883-1.161C500.788,28.9,499.965,28.759,498.91,28.759z M502.222,21.54h-2.196v-1.656h2.196v-2.34h2.088
			v9.342h-2.088v-2.034h-2.214v-1.656h2.214V21.54z"/>
		<path d="M516.461,29.821c-1.393,0.18-3.301,0.342-5.725,0.486c-1.655,0.072-3.06,0.108-4.212,0.108l-0.27-1.71
			c1.476,0,2.574-0.006,3.294-0.018v-4.518h2.016v4.428c2.064-0.108,3.643-0.234,4.734-0.378L516.461,29.821z M515.722,19.29
			c0,3.06-0.18,5.394-0.54,7.002l-2.016-0.216c0.275-1.284,0.414-2.982,0.414-5.094h-6.318V19.29H515.722z M521.446,25.843h-2.123
			v7.74h-2.089V17.544h2.089v6.57h2.123V25.843z"/>
		<path d="M535.162,18.768c-0.048,2.22-0.711,4.05-1.988,5.49c-1.278,1.44-3.016,2.478-5.211,3.114l-1.044-1.674
			c1.476-0.276,2.777-0.87,3.905-1.782c1.128-0.912,1.818-2.046,2.07-3.402h-5.202v-1.746H535.162z M540.545,33.151h-10.908v-5.058
			h2.124v3.384h8.784V33.151z M540.202,29.173h-2.105v-5.166h-2.952v-1.728h2.952v-4.734h2.105V29.173z"/>
		<path d="M550.569,18.642c-0.012,2.124-0.653,3.885-1.926,5.283c-1.271,1.398-3.03,2.415-5.273,3.051l-1.044-1.674
			c1.464-0.312,2.76-0.894,3.888-1.746s1.8-1.908,2.016-3.168h-5.13v-1.746H550.569z M555.25,30.324
			c0,0.996-0.483,1.788-1.449,2.376s-2.319,0.882-4.059,0.882c-1.704,0-3.036-0.294-3.996-0.882c-0.961-0.588-1.44-1.38-1.44-2.376
			c0-1.008,0.479-1.803,1.44-2.385c0.96-0.582,2.292-0.873,3.996-0.873c1.739,0,3.093,0.292,4.059,0.873
			C554.766,28.522,555.25,29.316,555.25,30.324z M552.208,31.486c0.588-0.282,0.882-0.669,0.882-1.161s-0.294-0.876-0.882-1.152
			s-1.41-0.414-2.466-0.414c-1.044,0-1.854,0.138-2.431,0.414s-0.863,0.66-0.863,1.152s0.287,0.879,0.863,1.161
			c0.576,0.282,1.387,0.423,2.431,0.423C550.797,31.908,551.62,31.767,552.208,31.486z M557.338,23.053h-2.286v3.852h-2.124v-9.36
			h2.124v3.78h2.286V23.053z"/>
		<path d="M566.338,33.6h-2.124v-5.706h-6.138v-1.656h14.49v1.656h-6.229V33.6z M571.971,23.197l-0.918,1.71
			c-1.212-0.18-2.373-0.618-3.482-1.314c-1.11-0.696-1.857-1.476-2.241-2.34c-0.348,0.864-1.071,1.641-2.169,2.331
			c-1.098,0.69-2.271,1.137-3.519,1.341l-0.9-1.728c1.464-0.156,2.742-0.654,3.834-1.494c1.092-0.84,1.638-1.836,1.638-2.988v-0.828
			h2.232v0.828c0,0.768,0.285,1.488,0.854,2.16c0.57,0.672,1.272,1.206,2.106,1.602S571.095,23.113,571.971,23.197z"/>
		<path d="M581.71,25.932h-7.415v-7.236h7.415V25.932z M587.02,30.343c0,0.996-0.486,1.785-1.458,2.367
			c-0.972,0.582-2.328,0.873-4.068,0.873c-1.704,0-3.039-0.291-4.005-0.873c-0.966-0.582-1.449-1.371-1.449-2.367
			c0-1.008,0.48-1.803,1.44-2.385c0.96-0.582,2.298-0.873,4.014-0.873c1.74,0,3.097,0.288,4.068,0.864
			C586.534,28.524,587.02,29.323,587.02,30.343z M579.64,24.312v-3.996h-3.276v3.996H579.64z M581.494,28.759
			c-1.02,0-1.827,0.141-2.421,0.423c-0.594,0.282-0.891,0.669-0.891,1.161c0,0.48,0.297,0.858,0.891,1.134
			c0.594,0.276,1.401,0.414,2.421,0.414c1.056,0,1.878-0.138,2.466-0.414c0.588-0.276,0.883-0.654,0.883-1.134
			c0-0.492-0.295-0.879-0.883-1.161C583.372,28.9,582.549,28.759,581.494,28.759z M584.806,21.54h-2.196v-1.656h2.196v-2.34h2.088
			v9.342h-2.088v-2.034h-2.214v-1.656h2.214V21.54z"/>
	</g>
</g>
<g>
	<g>
		<line fill="none" stroke="#000000" stroke-miterlimit="10" x1="339.608" y1="196.057" x2="340.608" y2="196.057"/>
		
			<line fill="none" stroke="#000000" stroke-miterlimit="10" stroke-dasharray="2.0019,2.0019" x1="342.61" y1="196.057" x2="757.994" y2="196.057"/>
		<line fill="none" stroke="#000000" stroke-miterlimit="10" x1="758.995" y1="196.057" x2="759.995" y2="196.057"/>
	</g>
</g>
<g>
</g>
<g>
</g>
<g>
</g>
<g>
</g>
<g>
</g>
<g>
</g>
<g>
</g>
</svg>
