<?xml version="1.0" encoding="utf-8"?>
<!-- Generator: Adobe Illustrator 28.0.0, SVG Export Plug-In . SVG Version: 6.00 Build 0)  -->
<svg version="1.1" id="레이어_1" xmlns="http://www.w3.org/2000/svg" xmlns:xlink="http://www.w3.org/1999/xlink" x="0px"
	 y="0px" viewBox="0 0 436.158 485.552" enable-background="new 0 0 436.158 485.552" xml:space="preserve">
<g>
	<linearGradient id="SVGID_1_" gradientUnits="userSpaceOnUse" x1="42.2153" y1="1.7455" x2="42.2153" y2="84.1417">
		<stop  offset="0" style="stop-color:#FFFFFF"/>
		<stop  offset="0.4385" style="stop-color:#FFFFFF"/>
		<stop  offset="0.4492" style="stop-color:#FFF4EF"/>
		<stop  offset="0.5132" style="stop-color:#FBC6B3"/>
		<stop  offset="0.5793" style="stop-color:#F79F84"/>
		<stop  offset="0.6459" style="stop-color:#F38064"/>
		<stop  offset="0.7132" style="stop-color:#F1654B"/>
		<stop  offset="0.7814" style="stop-color:#EF4D39"/>
		<stop  offset="0.851" style="stop-color:#ED382E"/>
		<stop  offset="0.9228" style="stop-color:#ED2829"/>
		<stop  offset="1" style="stop-color:#EC2227"/>
	</linearGradient>
	<circle fill="url(#SVGID_1_)" stroke="#010101" stroke-width="0.8851" stroke-miterlimit="10" cx="42.215" cy="38.943" r="38.5"/>
	
		<linearGradient id="SVGID_00000109738942613037487270000010828504444065521597_" gradientUnits="userSpaceOnUse" x1="160.5486" y1="1.7455" x2="160.5486" y2="84.1417">
		<stop  offset="0" style="stop-color:#FFFFFF"/>
		<stop  offset="0.4385" style="stop-color:#FFFFFF"/>
		<stop  offset="0.4492" style="stop-color:#FFF4EF"/>
		<stop  offset="0.5132" style="stop-color:#FBC6B3"/>
		<stop  offset="0.5793" style="stop-color:#F79F84"/>
		<stop  offset="0.6459" style="stop-color:#F38064"/>
		<stop  offset="0.7132" style="stop-color:#F1654B"/>
		<stop  offset="0.7814" style="stop-color:#EF4D39"/>
		<stop  offset="0.851" style="stop-color:#ED382E"/>
		<stop  offset="0.9228" style="stop-color:#ED2829"/>
		<stop  offset="1" style="stop-color:#EC2227"/>
	</linearGradient>
	
		<circle fill="url(#SVGID_00000109738942613037487270000010828504444065521597_)" stroke="#010101" stroke-width="0.8851" stroke-miterlimit="10" cx="160.549" cy="38.943" r="38.5"/>
	
		<linearGradient id="SVGID_00000168108640284933160900000010425811735796205461_" gradientUnits="userSpaceOnUse" x1="278.882" y1="1.7455" x2="278.882" y2="84.1417">
		<stop  offset="0" style="stop-color:#FFFFFF"/>
		<stop  offset="0.4385" style="stop-color:#FFFFFF"/>
		<stop  offset="0.4492" style="stop-color:#FFF4EF"/>
		<stop  offset="0.5132" style="stop-color:#FBC6B3"/>
		<stop  offset="0.5793" style="stop-color:#F79F84"/>
		<stop  offset="0.6459" style="stop-color:#F38064"/>
		<stop  offset="0.7132" style="stop-color:#F1654B"/>
		<stop  offset="0.7814" style="stop-color:#EF4D39"/>
		<stop  offset="0.851" style="stop-color:#ED382E"/>
		<stop  offset="0.9228" style="stop-color:#ED2829"/>
		<stop  offset="1" style="stop-color:#EC2227"/>
	</linearGradient>
	
		<circle fill="url(#SVGID_00000168108640284933160900000010425811735796205461_)" stroke="#010101" stroke-width="0.8851" stroke-miterlimit="10" cx="278.882" cy="38.943" r="38.5"/>
	
		<linearGradient id="SVGID_00000111151374689365743720000014413628923610956457_" gradientUnits="userSpaceOnUse" x1="279.2153" y1="117.7455" x2="279.2153" y2="200.1417">
		<stop  offset="0" style="stop-color:#FFFFFF"/>
		<stop  offset="0.4385" style="stop-color:#FFFFFF"/>
		<stop  offset="0.4492" style="stop-color:#FFF4EF"/>
		<stop  offset="0.5132" style="stop-color:#FBC6B3"/>
		<stop  offset="0.5793" style="stop-color:#F79F84"/>
		<stop  offset="0.6459" style="stop-color:#F38064"/>
		<stop  offset="0.7132" style="stop-color:#F1654B"/>
		<stop  offset="0.7814" style="stop-color:#EF4D39"/>
		<stop  offset="0.851" style="stop-color:#ED382E"/>
		<stop  offset="0.9228" style="stop-color:#ED2829"/>
		<stop  offset="1" style="stop-color:#EC2227"/>
	</linearGradient>
	
		<circle fill="url(#SVGID_00000111151374689365743720000014413628923610956457_)" stroke="#010101" stroke-width="0.8851" stroke-miterlimit="10" cx="279.215" cy="154.943" r="38.5"/>
	
		<linearGradient id="SVGID_00000069369808695086175050000011981865644634457785_" gradientUnits="userSpaceOnUse" x1="397.2153" y1="1.7455" x2="397.2153" y2="84.1417">
		<stop  offset="0" style="stop-color:#FFFFFF"/>
		<stop  offset="0.4385" style="stop-color:#FFFFFF"/>
		<stop  offset="0.4492" style="stop-color:#FFF4EF"/>
		<stop  offset="0.5132" style="stop-color:#FBC6B3"/>
		<stop  offset="0.5793" style="stop-color:#F79F84"/>
		<stop  offset="0.6459" style="stop-color:#F38064"/>
		<stop  offset="0.7132" style="stop-color:#F1654B"/>
		<stop  offset="0.7814" style="stop-color:#EF4D39"/>
		<stop  offset="0.851" style="stop-color:#ED382E"/>
		<stop  offset="0.9228" style="stop-color:#ED2829"/>
		<stop  offset="1" style="stop-color:#EC2227"/>
	</linearGradient>
	
		<circle fill="url(#SVGID_00000069369808695086175050000011981865644634457785_)" stroke="#010101" stroke-width="0.8851" stroke-miterlimit="10" cx="397.215" cy="38.943" r="38.5"/>
	
		<linearGradient id="SVGID_00000002349983544144133850000014942199483282108334_" gradientUnits="userSpaceOnUse" x1="100.9653" y1="27.263" x2="100.9653" y2="53.1277">
		<stop  offset="0" style="stop-color:#FFFFFF"/>
		<stop  offset="0.4385" style="stop-color:#FFFFFF"/>
		<stop  offset="0.4492" style="stop-color:#FFF4EF"/>
		<stop  offset="0.5132" style="stop-color:#FBC6B3"/>
		<stop  offset="0.5793" style="stop-color:#F79F84"/>
		<stop  offset="0.6459" style="stop-color:#F38064"/>
		<stop  offset="0.7132" style="stop-color:#F1654B"/>
		<stop  offset="0.7814" style="stop-color:#EF4D39"/>
		<stop  offset="0.851" style="stop-color:#ED382E"/>
		<stop  offset="0.9228" style="stop-color:#ED2829"/>
		<stop  offset="1" style="stop-color:#EC2227"/>
	</linearGradient>
	
		<polygon fill="url(#SVGID_00000002349983544144133850000014942199483282108334_)" stroke="#010101" stroke-width="0.4255" stroke-miterlimit="10" points="
		118.215,38.939 110.165,26.854 110.165,31.962 83.715,31.962 83.715,45.917 110.165,45.917 110.165,51.025 	"/>
	
		<linearGradient id="SVGID_00000149384337382529577130000009357797757876116878_" gradientUnits="userSpaceOnUse" x1="219.9653" y1="27.263" x2="219.9653" y2="53.1277">
		<stop  offset="0" style="stop-color:#FFFFFF"/>
		<stop  offset="0.4385" style="stop-color:#FFFFFF"/>
		<stop  offset="0.4492" style="stop-color:#FFF4EF"/>
		<stop  offset="0.5132" style="stop-color:#FBC6B3"/>
		<stop  offset="0.5793" style="stop-color:#F79F84"/>
		<stop  offset="0.6459" style="stop-color:#F38064"/>
		<stop  offset="0.7132" style="stop-color:#F1654B"/>
		<stop  offset="0.7814" style="stop-color:#EF4D39"/>
		<stop  offset="0.851" style="stop-color:#ED382E"/>
		<stop  offset="0.9228" style="stop-color:#ED2829"/>
		<stop  offset="1" style="stop-color:#EC2227"/>
	</linearGradient>
	
		<polygon fill="url(#SVGID_00000149384337382529577130000009357797757876116878_)" stroke="#010101" stroke-width="0.4255" stroke-miterlimit="10" points="
		237.215,38.939 229.165,26.854 229.165,31.962 202.715,31.962 202.715,45.917 229.165,45.917 229.165,51.025 	"/>
	
		<linearGradient id="SVGID_00000115475907605712496920000006721781763983658125_" gradientUnits="userSpaceOnUse" x1="337.9653" y1="27.263" x2="337.9653" y2="53.1277">
		<stop  offset="0" style="stop-color:#FFFFFF"/>
		<stop  offset="0.4385" style="stop-color:#FFFFFF"/>
		<stop  offset="0.4492" style="stop-color:#FFF4EF"/>
		<stop  offset="0.5132" style="stop-color:#FBC6B3"/>
		<stop  offset="0.5793" style="stop-color:#F79F84"/>
		<stop  offset="0.6459" style="stop-color:#F38064"/>
		<stop  offset="0.7132" style="stop-color:#F1654B"/>
		<stop  offset="0.7814" style="stop-color:#EF4D39"/>
		<stop  offset="0.851" style="stop-color:#ED382E"/>
		<stop  offset="0.9228" style="stop-color:#ED2829"/>
		<stop  offset="1" style="stop-color:#EC2227"/>
	</linearGradient>
	
		<polygon fill="url(#SVGID_00000115475907605712496920000006721781763983658125_)" stroke="#010101" stroke-width="0.4255" stroke-miterlimit="10" points="
		355.215,38.939 347.165,26.854 347.165,31.962 320.715,31.962 320.715,45.917 347.165,45.917 347.165,51.025 	"/>
	
		<linearGradient id="SVGID_00000170260186760364497700000005443366634527472256_" gradientUnits="userSpaceOnUse" x1="278.9653" y1="83.9748" x2="278.9653" y2="120.2629">
		<stop  offset="0" style="stop-color:#FFFFFF"/>
		<stop  offset="0.4385" style="stop-color:#FFFFFF"/>
		<stop  offset="0.4492" style="stop-color:#FFF4EF"/>
		<stop  offset="0.5132" style="stop-color:#FBC6B3"/>
		<stop  offset="0.5793" style="stop-color:#F79F84"/>
		<stop  offset="0.6459" style="stop-color:#F38064"/>
		<stop  offset="0.7132" style="stop-color:#F1654B"/>
		<stop  offset="0.7814" style="stop-color:#EF4D39"/>
		<stop  offset="0.851" style="stop-color:#ED382E"/>
		<stop  offset="0.9228" style="stop-color:#ED2829"/>
		<stop  offset="1" style="stop-color:#EC2227"/>
	</linearGradient>
	
		<polygon fill="url(#SVGID_00000170260186760364497700000005443366634527472256_)" stroke="#010101" stroke-width="0.4255" stroke-miterlimit="10" points="
		278.965,114.189 291.051,106.139 285.943,106.139 285.943,79.689 271.988,79.689 271.988,106.139 266.88,106.139 	"/>
	<g>
		<rect x="380.538" y="24.717" fill="none" width="33.768" height="21.226"/>
		<path fill="#010101" d="M392.742,35.097h-1.068v-3.516h-4.176v-0.852h9.468v0.852h-4.224V35.097z M395.898,29.468h-7.26v-4.152
			h7.151v0.864h-6.084v2.412h6.192V29.468z"/>
		<path fill="#010101" d="M404.13,29.804h-2.304v2.281c1.304-0.072,2.292-0.152,2.964-0.241l0.084,0.852
			c-0.68,0.08-1.848,0.176-3.504,0.288c-1.384,0.072-2.484,0.108-3.3,0.108l-0.181-0.9c1.072,0,2.028-0.02,2.868-0.061v-2.328h-2.04
			v-4.236h1.057v3.372h4.355V29.804z M406.554,35.156h-1.056V24.669h1.056V35.156z"/>
	</g>
	<g>
		<rect x="262.538" y="24.717" fill="none" width="33.768" height="21.226"/>
		<path fill="#010101" d="M275.847,29.829l-0.612,0.828c-0.512-0.216-1.01-0.554-1.494-1.014s-0.834-0.946-1.05-1.458
			c-0.16,0.552-0.486,1.098-0.979,1.638c-0.491,0.54-1.014,0.934-1.565,1.182l-0.648-0.828c0.744-0.312,1.37-0.814,1.878-1.506
			s0.763-1.438,0.763-2.238v-1.176h1.079v1.128c0,0.792,0.267,1.504,0.799,2.136C274.548,29.153,275.158,29.589,275.847,29.829z
			 M278.33,34.857h-7.067v-3.276h1.067v2.412h6V34.857z M278.103,32.288h-1.068v-7.62h1.068V32.288z"/>
		<path fill="#010101" d="M285.098,32.169l-0.624,0.768c-0.416-0.256-0.821-0.62-1.218-1.092c-0.396-0.472-0.662-0.948-0.798-1.428
			c-0.128,0.512-0.39,1.03-0.786,1.553c-0.396,0.524-0.83,0.931-1.302,1.219l-0.672-0.708c1.488-0.928,2.231-2.308,2.231-4.14v-0.18
			h-1.979v-0.864h4.944v0.864h-1.921v0.144c0,0.944,0.198,1.738,0.595,2.382C283.964,31.331,284.474,31.825,285.098,32.169z
			 M281.078,26.373v-0.876h2.76v0.876H281.078z M285.687,30.081h-1.5v-0.864h1.5v-4.308h0.995v9.732h-0.995V30.081z M288.734,35.156
			h-1.021V24.669h1.021V35.156z"/>
	</g>
	<g>
		<rect x="249.629" y="138.717" fill="none" width="59.587" height="21.226"/>
		<path fill="#010101" d="M268.586,144.344h-9.468v-0.852h6.84c0.191-0.792,0.288-1.868,0.288-3.228h-5.929v-0.864h6.996
			c0,1.632-0.1,2.996-0.3,4.092h1.572V144.344z M267.602,148.784h-7.224v-3.324h1.056v2.459h6.168V148.784z"/>
		<path fill="#010101" d="M270.494,145.821h1.512v-1.428h-2.508v-0.876h9.468v0.876h-2.556v1.428h1.344v3.384h-1.068v-2.508h-6.191
			V145.821z M277.838,140.937c0,0.608-0.318,1.088-0.954,1.44s-1.522,0.528-2.658,0.528s-2.02-0.176-2.651-0.528
			c-0.633-0.352-0.948-0.832-0.948-1.44c0-0.6,0.317-1.076,0.954-1.428c0.636-0.352,1.518-0.528,2.646-0.528
			c1.136,0,2.022,0.176,2.658,0.528S277.838,140.337,277.838,140.937z M276.074,141.765c0.455-0.2,0.684-0.476,0.684-0.828
			s-0.227-0.626-0.678-0.822c-0.452-0.196-1.07-0.294-1.854-0.294c-0.776,0-1.388,0.098-1.836,0.294
			c-0.448,0.196-0.672,0.47-0.672,0.822s0.224,0.628,0.672,0.828c0.448,0.2,1.06,0.3,1.836,0.3S275.618,141.965,276.074,141.765z
			 M273.074,144.393v1.428h2.268v-1.428H273.074z"/>
		<path fill="#010101" d="M286.334,145.868l-0.624,0.792c-0.536-0.312-1.061-0.762-1.572-1.35c-0.512-0.588-0.848-1.162-1.008-1.722
			c-0.152,0.616-0.473,1.23-0.96,1.842c-0.488,0.612-1.044,1.102-1.668,1.47l-0.672-0.769c0.823-0.487,1.487-1.146,1.991-1.974
			c0.504-0.828,0.756-1.738,0.756-2.73v-0.84h-2.376v-0.864h5.82v0.864h-2.352v0.84c0,0.976,0.248,1.854,0.744,2.634
			C284.909,144.842,285.55,145.445,286.334,145.868z M287.462,138.669h1.067v10.488h-1.067V138.669z"/>
		<path fill="#010101" d="M295.537,144.26h-4.943v-5.052h1.056v1.692h2.82v-1.704h1.067V144.26z M297.565,145.616
			c0.608,0.368,0.912,0.864,0.912,1.488s-0.306,1.12-0.918,1.488c-0.612,0.367-1.47,0.552-2.574,0.552
			c-1.096,0-1.946-0.185-2.55-0.552c-0.604-0.368-0.906-0.864-0.906-1.488s0.302-1.12,0.906-1.488
			c0.604-0.368,1.454-0.552,2.55-0.552C296.098,145.065,296.957,145.249,297.565,145.616z M294.47,143.397v-1.632h-2.82v1.632
			H294.47z M294.985,145.928c-0.744,0-1.326,0.106-1.746,0.319c-0.42,0.211-0.63,0.497-0.63,0.857s0.212,0.646,0.636,0.858
			c0.425,0.212,1.004,0.317,1.74,0.317c0.76,0,1.352-0.104,1.776-0.312c0.424-0.208,0.636-0.496,0.636-0.864
			c0-0.36-0.212-0.646-0.636-0.857C296.337,146.034,295.745,145.928,294.985,145.928z M299.918,142.209h-1.561v2.784h-1.068v-6.324
			h1.068v2.664h1.561V142.209z"/>
	</g>
	<g>
		<rect x="126.538" y="24.717" fill="none" width="72.677" height="39.226"/>
		<path fill="#010101" d="M146.239,35.156h-1.068v-3.672h-4.176v-0.864h9.468v0.864h-4.224V35.156z M150.042,28.784l-0.48,0.852
			c-0.792-0.128-1.566-0.408-2.322-0.84c-0.756-0.432-1.262-0.888-1.518-1.368c-0.232,0.496-0.714,0.962-1.446,1.398
			c-0.732,0.437-1.514,0.718-2.346,0.846l-0.504-0.84c0.888-0.096,1.716-0.386,2.484-0.87s1.188-1.042,1.26-1.674h-3.3v-0.876h7.74
			v0.876h-3.312c0.08,0.624,0.51,1.174,1.29,1.65C148.369,28.415,149.187,28.696,150.042,28.784z"/>
		<path fill="#010101" d="M156.522,30.705h-4.728v-5.34h1.068v1.8h2.604v-1.812h1.056V30.705z M155.466,29.853v-1.848h-2.604v1.848
			H155.466z M160.218,34.832h-7.044v-3.204h1.056v2.34h5.988V34.832z M159.979,24.669v7.644h-1.068v-2.736h-1.812V28.7h1.812v-1.428
			h-1.812v-0.876h1.812v-1.728H159.979z"/>
		<path fill="#010101" d="M171.45,31.605c-0.888,0.128-2,0.224-3.336,0.288c-1.424,0.071-2.516,0.108-3.276,0.108l-0.156-0.876
			c1.048,0,2.02-0.016,2.916-0.048v-0.672c-0.576-0.064-1.038-0.222-1.386-0.474c-0.348-0.252-0.522-0.578-0.522-0.978
			c0-0.464,0.228-0.832,0.684-1.104s1.036-0.408,1.74-0.408c0.704,0,1.286,0.134,1.746,0.402c0.46,0.268,0.69,0.638,0.69,1.11
			c0,0.4-0.172,0.724-0.516,0.972c-0.344,0.248-0.8,0.408-1.368,0.48v0.624c1.088-0.056,1.98-0.132,2.676-0.228L171.45,31.605z
			 M171.126,27.081h-6.06v-0.828h6.06V27.081z M173.334,34.952h-7.032v-2.556h1.068v1.704h5.964V34.952z M169.626,25.737h-2.928
			v-0.84h2.928V25.737z M169.518,28.953c0-0.216-0.13-0.388-0.39-0.516c-0.26-0.128-0.598-0.192-1.014-0.192
			c-0.416,0-0.752,0.064-1.008,0.192s-0.384,0.3-0.384,0.516c0,0.208,0.13,0.376,0.39,0.504c0.26,0.128,0.594,0.192,1.002,0.192
			c0.408,0,0.744-0.064,1.008-0.192S169.518,29.161,169.518,28.953z M174.618,29.277h-1.56v3.444h-1.044v-8.052h1.044v3.708h1.56
			V29.277z"/>
		<path fill="#010101" d="M180.629,25.472c-0.071,1.336-0.518,2.478-1.337,3.426c-0.82,0.948-1.934,1.666-3.342,2.154l-0.612-0.864
			c1.04-0.272,1.944-0.758,2.712-1.458c0.768-0.7,1.236-1.494,1.404-2.382h-3.6v-0.876H180.629z M183.018,31.634
			c0.623,0.365,0.936,0.862,0.936,1.494c0,0.633-0.312,1.129-0.936,1.488c-0.625,0.36-1.504,0.54-2.641,0.54
			c-1.12,0-1.994-0.18-2.622-0.54c-0.628-0.359-0.942-0.855-0.942-1.488c0-0.632,0.314-1.129,0.942-1.494
			c0.628-0.364,1.502-0.546,2.622-0.546C181.514,31.089,182.393,31.271,183.018,31.634z M180.377,31.952
			c-0.768,0-1.37,0.104-1.806,0.312s-0.654,0.496-0.654,0.863c0,0.368,0.218,0.654,0.654,0.858s1.038,0.306,1.806,0.306
			c0.793,0,1.406-0.102,1.842-0.306c0.438-0.204,0.654-0.49,0.654-0.858c0-0.367-0.217-0.655-0.654-0.863
			C181.784,32.057,181.17,31.952,180.377,31.952z M180.642,29.601v-0.852h2.185v-1.272h-2.064v-0.852h2.064v-1.956h1.066v6.492
			h-1.066v-1.56H180.642z"/>
	</g>
	<g>
		<rect x="10.215" y="24.717" fill="none" width="53" height="23.226"/>
		<path fill="#010101" d="M25.315,30.549h-4.812v-4.944h4.812V30.549z M24.271,29.696v-3.24h-2.724v3.24H24.271z M28.855,34.832
			h-7.032v-3.251h1.056v2.4h5.976V34.832z M27.56,28.448h-1.704v-0.864h1.704v-2.916h1.068v7.644H27.56V28.448z"/>
		<path fill="#010101" d="M40.099,31.605c-0.888,0.128-2,0.224-3.336,0.288c-1.424,0.071-2.516,0.108-3.276,0.108l-0.156-0.876
			c1.048,0,2.02-0.016,2.916-0.048v-0.672c-0.576-0.064-1.038-0.222-1.386-0.474c-0.348-0.252-0.522-0.578-0.522-0.978
			c0-0.464,0.228-0.832,0.684-1.104s1.036-0.408,1.74-0.408c0.704,0,1.286,0.134,1.746,0.402c0.46,0.268,0.69,0.638,0.69,1.11
			c0,0.4-0.172,0.724-0.516,0.972c-0.344,0.248-0.8,0.408-1.368,0.48v0.624c1.088-0.056,1.98-0.132,2.676-0.228L40.099,31.605z
			 M39.775,27.081h-6.06v-0.828h6.06V27.081z M41.983,34.952h-7.032v-2.556h1.068v1.704h5.964V34.952z M38.275,25.737h-2.928v-0.84
			h2.928V25.737z M38.167,28.953c0-0.216-0.13-0.388-0.39-0.516c-0.26-0.128-0.598-0.192-1.014-0.192
			c-0.416,0-0.752,0.064-1.008,0.192s-0.384,0.3-0.384,0.516c0,0.208,0.13,0.376,0.39,0.504c0.26,0.128,0.594,0.192,1.002,0.192
			c0.408,0,0.744-0.064,1.008-0.192S38.167,29.161,38.167,28.953z M43.267,29.277h-1.56v3.444h-1.044v-8.052h1.044v3.708h1.56
			V29.277z"/>
		<path fill="#010101" d="M49.279,25.472c-0.072,1.336-0.518,2.478-1.338,3.426c-0.82,0.948-1.934,1.666-3.342,2.154l-0.612-0.864
			c1.04-0.272,1.944-0.758,2.712-1.458c0.769-0.7,1.236-1.494,1.404-2.382h-3.601v-0.876H49.279z M51.667,31.634
			c0.624,0.365,0.937,0.862,0.937,1.494c0,0.633-0.312,1.129-0.937,1.488c-0.624,0.36-1.504,0.54-2.64,0.54
			c-1.12,0-1.994-0.18-2.622-0.54c-0.628-0.359-0.941-0.855-0.941-1.488c0-0.632,0.313-1.129,0.941-1.494
			c0.628-0.364,1.502-0.546,2.622-0.546C50.163,31.089,51.042,31.271,51.667,31.634z M49.027,31.952
			c-0.768,0-1.37,0.104-1.806,0.312c-0.437,0.208-0.654,0.496-0.654,0.863c0,0.368,0.218,0.654,0.654,0.858
			c0.436,0.204,1.038,0.306,1.806,0.306c0.792,0,1.406-0.102,1.842-0.306c0.437-0.204,0.654-0.49,0.654-0.858
			c0-0.367-0.218-0.655-0.654-0.863C50.433,32.057,49.819,31.952,49.027,31.952z M49.291,29.601v-0.852h2.185v-1.272h-2.064v-0.852
			h2.064v-1.956h1.067v6.492h-1.067v-1.56H49.291z"/>
	</g>
</g>
<g>
	
		<linearGradient id="SVGID_00000152226936316713821640000006142422951003651005_" gradientUnits="userSpaceOnUse" x1="42.2153" y1="293.4122" x2="42.2153" y2="375.8084">
		<stop  offset="0" style="stop-color:#FFFFFF"/>
		<stop  offset="0.4385" style="stop-color:#FFFFFF"/>
		<stop  offset="0.4492" style="stop-color:#FFF4EF"/>
		<stop  offset="0.5132" style="stop-color:#FBC6B3"/>
		<stop  offset="0.5793" style="stop-color:#F79F84"/>
		<stop  offset="0.6459" style="stop-color:#F38064"/>
		<stop  offset="0.7132" style="stop-color:#F1654B"/>
		<stop  offset="0.7814" style="stop-color:#EF4D39"/>
		<stop  offset="0.851" style="stop-color:#ED382E"/>
		<stop  offset="0.9228" style="stop-color:#ED2829"/>
		<stop  offset="1" style="stop-color:#EC2227"/>
	</linearGradient>
	
		<circle fill="url(#SVGID_00000152226936316713821640000006142422951003651005_)" stroke="#010101" stroke-width="0.8851" stroke-miterlimit="10" cx="42.215" cy="330.609" r="38.5"/>
	
		<linearGradient id="SVGID_00000017475735162385721370000015200157032197915321_" gradientUnits="userSpaceOnUse" x1="160.5486" y1="293.4122" x2="160.5486" y2="375.8084">
		<stop  offset="0" style="stop-color:#FFFFFF"/>
		<stop  offset="0.4385" style="stop-color:#FFFFFF"/>
		<stop  offset="0.4492" style="stop-color:#FFF4EF"/>
		<stop  offset="0.5132" style="stop-color:#FBC6B3"/>
		<stop  offset="0.5793" style="stop-color:#F79F84"/>
		<stop  offset="0.6459" style="stop-color:#F38064"/>
		<stop  offset="0.7132" style="stop-color:#F1654B"/>
		<stop  offset="0.7814" style="stop-color:#EF4D39"/>
		<stop  offset="0.851" style="stop-color:#ED382E"/>
		<stop  offset="0.9228" style="stop-color:#ED2829"/>
		<stop  offset="1" style="stop-color:#EC2227"/>
	</linearGradient>
	
		<circle fill="url(#SVGID_00000017475735162385721370000015200157032197915321_)" stroke="#010101" stroke-width="0.8851" stroke-miterlimit="10" cx="160.549" cy="330.609" r="38.5"/>
	
		<linearGradient id="SVGID_00000180335022556287499310000003165206229856598969_" gradientUnits="userSpaceOnUse" x1="278.882" y1="293.4122" x2="278.882" y2="375.8084">
		<stop  offset="0" style="stop-color:#FFFFFF"/>
		<stop  offset="0.1819" style="stop-color:#FFFFFF"/>
		<stop  offset="0.1974" style="stop-color:#FFF4EF"/>
		<stop  offset="0.2907" style="stop-color:#FBC6B3"/>
		<stop  offset="0.3869" style="stop-color:#F79F84"/>
		<stop  offset="0.484" style="stop-color:#F38064"/>
		<stop  offset="0.5821" style="stop-color:#F1654B"/>
		<stop  offset="0.6815" style="stop-color:#EF4D39"/>
		<stop  offset="0.783" style="stop-color:#ED382E"/>
		<stop  offset="0.8875" style="stop-color:#ED2829"/>
		<stop  offset="1" style="stop-color:#EC2227"/>
	</linearGradient>
	
		<circle fill="url(#SVGID_00000180335022556287499310000003165206229856598969_)" stroke="#010101" stroke-width="0.8851" stroke-miterlimit="10" cx="278.882" cy="330.609" r="38.5"/>
	
		<linearGradient id="SVGID_00000112599081546041103710000017550756471867019418_" gradientUnits="userSpaceOnUse" x1="279.2153" y1="409.4122" x2="279.2153" y2="491.8084">
		<stop  offset="0" style="stop-color:#FFFFFF"/>
		<stop  offset="0.4385" style="stop-color:#FFFFFF"/>
		<stop  offset="0.4492" style="stop-color:#FFF4EF"/>
		<stop  offset="0.5132" style="stop-color:#FBC6B3"/>
		<stop  offset="0.5793" style="stop-color:#F79F84"/>
		<stop  offset="0.6459" style="stop-color:#F38064"/>
		<stop  offset="0.7132" style="stop-color:#F1654B"/>
		<stop  offset="0.7814" style="stop-color:#EF4D39"/>
		<stop  offset="0.851" style="stop-color:#ED382E"/>
		<stop  offset="0.9228" style="stop-color:#ED2829"/>
		<stop  offset="1" style="stop-color:#EC2227"/>
	</linearGradient>
	
		<circle fill="url(#SVGID_00000112599081546041103710000017550756471867019418_)" stroke="#010101" stroke-width="0.8851" stroke-miterlimit="10" cx="279.215" cy="446.609" r="38.5"/>
	
		<linearGradient id="SVGID_00000050658275354785088830000004803731064716716965_" gradientUnits="userSpaceOnUse" x1="397.2153" y1="293.4122" x2="397.2153" y2="375.8084">
		<stop  offset="0" style="stop-color:#FFFFFF"/>
		<stop  offset="0.4385" style="stop-color:#FFFFFF"/>
		<stop  offset="0.4492" style="stop-color:#FFF4EF"/>
		<stop  offset="0.5132" style="stop-color:#FBC6B3"/>
		<stop  offset="0.5793" style="stop-color:#F79F84"/>
		<stop  offset="0.6459" style="stop-color:#F38064"/>
		<stop  offset="0.7132" style="stop-color:#F1654B"/>
		<stop  offset="0.7814" style="stop-color:#EF4D39"/>
		<stop  offset="0.851" style="stop-color:#ED382E"/>
		<stop  offset="0.9228" style="stop-color:#ED2829"/>
		<stop  offset="1" style="stop-color:#EC2227"/>
	</linearGradient>
	
		<circle fill="url(#SVGID_00000050658275354785088830000004803731064716716965_)" stroke="#010101" stroke-width="0.8851" stroke-miterlimit="10" cx="397.215" cy="330.609" r="38.5"/>
	
		<linearGradient id="SVGID_00000019636310179789687290000005070732317752498064_" gradientUnits="userSpaceOnUse" x1="100.9653" y1="318.9297" x2="100.9653" y2="344.7944">
		<stop  offset="0" style="stop-color:#FFFFFF"/>
		<stop  offset="0.4385" style="stop-color:#FFFFFF"/>
		<stop  offset="0.4492" style="stop-color:#FFF4EF"/>
		<stop  offset="0.5132" style="stop-color:#FBC6B3"/>
		<stop  offset="0.5793" style="stop-color:#F79F84"/>
		<stop  offset="0.6459" style="stop-color:#F38064"/>
		<stop  offset="0.7132" style="stop-color:#F1654B"/>
		<stop  offset="0.7814" style="stop-color:#EF4D39"/>
		<stop  offset="0.851" style="stop-color:#ED382E"/>
		<stop  offset="0.9228" style="stop-color:#ED2829"/>
		<stop  offset="1" style="stop-color:#EC2227"/>
	</linearGradient>
	
		<polygon fill="url(#SVGID_00000019636310179789687290000005070732317752498064_)" stroke="#010101" stroke-width="0.4255" stroke-miterlimit="10" points="
		118.215,330.606 110.165,318.521 110.165,323.629 83.715,323.629 83.715,337.584 110.165,337.584 110.165,342.691 	"/>
	
		<linearGradient id="SVGID_00000176762287397046503880000007045830100176746125_" gradientUnits="userSpaceOnUse" x1="219.9653" y1="318.9297" x2="219.9653" y2="344.7944">
		<stop  offset="0" style="stop-color:#FFFFFF"/>
		<stop  offset="0.4385" style="stop-color:#FFFFFF"/>
		<stop  offset="0.4492" style="stop-color:#FFF4EF"/>
		<stop  offset="0.5132" style="stop-color:#FBC6B3"/>
		<stop  offset="0.5793" style="stop-color:#F79F84"/>
		<stop  offset="0.6459" style="stop-color:#F38064"/>
		<stop  offset="0.7132" style="stop-color:#F1654B"/>
		<stop  offset="0.7814" style="stop-color:#EF4D39"/>
		<stop  offset="0.851" style="stop-color:#ED382E"/>
		<stop  offset="0.9228" style="stop-color:#ED2829"/>
		<stop  offset="1" style="stop-color:#EC2227"/>
	</linearGradient>
	
		<polygon fill="url(#SVGID_00000176762287397046503880000007045830100176746125_)" stroke="#010101" stroke-width="0.4255" stroke-miterlimit="10" points="
		237.215,330.606 229.165,318.521 229.165,323.629 202.715,323.629 202.715,337.584 229.165,337.584 229.165,342.691 	"/>
	
		<linearGradient id="SVGID_00000176030365400400888140000002762414406044238722_" gradientUnits="userSpaceOnUse" x1="337.9653" y1="318.9297" x2="337.9653" y2="344.7944">
		<stop  offset="0" style="stop-color:#FFFFFF"/>
		<stop  offset="0.4385" style="stop-color:#FFFFFF"/>
		<stop  offset="0.4492" style="stop-color:#FFF4EF"/>
		<stop  offset="0.5132" style="stop-color:#FBC6B3"/>
		<stop  offset="0.5793" style="stop-color:#F79F84"/>
		<stop  offset="0.6459" style="stop-color:#F38064"/>
		<stop  offset="0.7132" style="stop-color:#F1654B"/>
		<stop  offset="0.7814" style="stop-color:#EF4D39"/>
		<stop  offset="0.851" style="stop-color:#ED382E"/>
		<stop  offset="0.9228" style="stop-color:#ED2829"/>
		<stop  offset="1" style="stop-color:#EC2227"/>
	</linearGradient>
	
		<polygon fill="url(#SVGID_00000176030365400400888140000002762414406044238722_)" stroke="#010101" stroke-width="0.4255" stroke-miterlimit="10" points="
		355.215,330.606 347.165,318.521 347.165,323.629 320.715,323.629 320.715,337.584 347.165,337.584 347.165,342.691 	"/>
	
		<linearGradient id="SVGID_00000062871108500903265840000002448327493753131431_" gradientUnits="userSpaceOnUse" x1="278.9653" y1="375.6414" x2="278.9653" y2="411.9296">
		<stop  offset="0" style="stop-color:#FFFFFF"/>
		<stop  offset="0.4385" style="stop-color:#FFFFFF"/>
		<stop  offset="0.4492" style="stop-color:#FFF4EF"/>
		<stop  offset="0.5132" style="stop-color:#FBC6B3"/>
		<stop  offset="0.5793" style="stop-color:#F79F84"/>
		<stop  offset="0.6459" style="stop-color:#F38064"/>
		<stop  offset="0.7132" style="stop-color:#F1654B"/>
		<stop  offset="0.7814" style="stop-color:#EF4D39"/>
		<stop  offset="0.851" style="stop-color:#ED382E"/>
		<stop  offset="0.9228" style="stop-color:#ED2829"/>
		<stop  offset="1" style="stop-color:#EC2227"/>
	</linearGradient>
	
		<polygon fill="url(#SVGID_00000062871108500903265840000002448327493753131431_)" stroke="#010101" stroke-width="0.4255" stroke-miterlimit="10" points="
		278.965,405.856 291.051,397.806 285.943,397.806 285.943,371.356 271.988,371.356 271.988,397.806 266.88,397.806 	"/>
	<g>
		<rect x="380.538" y="316.383" fill="none" width="33.768" height="21.226"/>
		<path fill="#010101" d="M392.742,326.763h-1.068v-3.516h-4.176v-0.852h9.468v0.852h-4.224V326.763z M395.898,321.135h-7.26v-4.152
			h7.151v0.864h-6.084v2.412h6.192V321.135z"/>
		<path fill="#010101" d="M404.13,321.471h-2.304v2.281c1.304-0.072,2.292-0.152,2.964-0.241l0.084,0.852
			c-0.68,0.08-1.848,0.176-3.504,0.288c-1.384,0.072-2.484,0.108-3.3,0.108l-0.181-0.9c1.072,0,2.028-0.02,2.868-0.061v-2.328h-2.04
			v-4.236h1.057v3.372h4.355V321.471z M406.554,326.823h-1.056v-10.488h1.056V326.823z"/>
	</g>
	<g>
		<rect x="262.538" y="316.383" fill="none" width="33.768" height="21.226"/>
		<path fill="#010101" d="M275.847,321.495l-0.612,0.828c-0.512-0.216-1.01-0.554-1.494-1.014s-0.834-0.946-1.05-1.458
			c-0.16,0.552-0.486,1.098-0.979,1.638c-0.491,0.54-1.014,0.934-1.565,1.182l-0.648-0.828c0.744-0.312,1.37-0.814,1.878-1.506
			s0.763-1.438,0.763-2.238v-1.176h1.079v1.128c0,0.792,0.267,1.504,0.799,2.136C274.548,320.819,275.158,321.255,275.847,321.495z
			 M278.33,326.523h-7.067v-3.276h1.067v2.412h6V326.523z M278.103,323.955h-1.068v-7.62h1.068V323.955z"/>
		<path fill="#010101" d="M285.098,323.836l-0.624,0.768c-0.416-0.256-0.821-0.62-1.218-1.092c-0.396-0.472-0.662-0.948-0.798-1.428
			c-0.128,0.512-0.39,1.03-0.786,1.553c-0.396,0.524-0.83,0.931-1.302,1.219l-0.672-0.708c1.488-0.928,2.231-2.308,2.231-4.14v-0.18
			h-1.979v-0.864h4.944v0.864h-1.921v0.144c0,0.944,0.198,1.738,0.595,2.382C283.964,322.997,284.474,323.491,285.098,323.836z
			 M281.078,318.039v-0.876h2.76v0.876H281.078z M285.687,321.747h-1.5v-0.864h1.5v-4.308h0.995v9.732h-0.995V321.747z
			 M288.734,326.823h-1.021v-10.488h1.021V326.823z"/>
	</g>
	<g>
		<rect x="249.629" y="430.383" fill="none" width="59.587" height="21.226"/>
		<path fill="#010101" d="M268.586,436.011h-9.468v-0.853h6.84c0.191-0.792,0.288-1.867,0.288-3.228h-5.929v-0.864h6.996
			c0,1.632-0.1,2.996-0.3,4.092h1.572V436.011z M267.602,440.451h-7.224v-3.323h1.056v2.459h6.168V440.451z"/>
		<path fill="#010101" d="M270.494,437.487h1.512v-1.428h-2.508v-0.876h9.468v0.876h-2.556v1.428h1.344v3.384h-1.068v-2.508h-6.191
			V437.487z M277.838,432.603c0,0.608-0.318,1.088-0.954,1.44c-0.636,0.352-1.522,0.527-2.658,0.527s-2.02-0.176-2.651-0.527
			c-0.633-0.353-0.948-0.832-0.948-1.44c0-0.6,0.317-1.076,0.954-1.428c0.636-0.353,1.518-0.528,2.646-0.528
			c1.136,0,2.022,0.176,2.658,0.528C277.52,431.527,277.838,432.004,277.838,432.603z M276.074,433.431
			c0.455-0.2,0.684-0.476,0.684-0.828c0-0.352-0.227-0.626-0.678-0.822c-0.452-0.195-1.07-0.294-1.854-0.294
			c-0.776,0-1.388,0.099-1.836,0.294c-0.448,0.196-0.672,0.471-0.672,0.822c0,0.353,0.224,0.628,0.672,0.828s1.06,0.3,1.836,0.3
			S275.618,433.632,276.074,433.431z M273.074,436.059v1.428h2.268v-1.428H273.074z"/>
		<path fill="#010101" d="M286.334,437.535l-0.624,0.792c-0.536-0.312-1.061-0.762-1.572-1.35s-0.848-1.162-1.008-1.722
			c-0.152,0.616-0.473,1.229-0.96,1.842c-0.488,0.611-1.044,1.102-1.668,1.47l-0.672-0.769c0.823-0.487,1.487-1.146,1.991-1.974
			c0.504-0.827,0.756-1.737,0.756-2.729v-0.84h-2.376v-0.864h5.82v0.864h-2.352v0.84c0,0.976,0.248,1.854,0.744,2.634
			C284.909,436.509,285.55,437.111,286.334,437.535z M287.462,430.336h1.067v10.487h-1.067V430.336z"/>
		<path fill="#010101" d="M295.537,435.927h-4.943v-5.052h1.056v1.691h2.82v-1.704h1.067V435.927z M297.565,437.283
			c0.608,0.368,0.912,0.864,0.912,1.488s-0.306,1.12-0.918,1.488c-0.612,0.367-1.47,0.552-2.574,0.552
			c-1.096,0-1.946-0.185-2.55-0.552c-0.604-0.368-0.906-0.864-0.906-1.488s0.302-1.12,0.906-1.488
			c0.604-0.367,1.454-0.552,2.55-0.552C296.098,436.731,296.957,436.916,297.565,437.283z M294.47,435.063v-1.632h-2.82v1.632
			H294.47z M294.985,437.595c-0.744,0-1.326,0.105-1.746,0.318c-0.42,0.211-0.63,0.497-0.63,0.857s0.212,0.646,0.636,0.858
			c0.425,0.212,1.004,0.317,1.74,0.317c0.76,0,1.352-0.104,1.776-0.312c0.424-0.208,0.636-0.496,0.636-0.864
			c0-0.36-0.212-0.646-0.636-0.857C296.337,437.701,295.745,437.595,294.985,437.595z M299.918,433.876h-1.561v2.783h-1.068v-6.323
			h1.068V433h1.561V433.876z"/>
	</g>
	<g>
		<rect x="126.538" y="316.383" fill="none" width="72.677" height="39.226"/>
		<path fill="#010101" d="M146.239,326.823h-1.068v-3.672h-4.176v-0.864h9.468v0.864h-4.224V326.823z M150.042,320.451l-0.48,0.852
			c-0.792-0.128-1.566-0.408-2.322-0.84c-0.756-0.432-1.262-0.888-1.518-1.368c-0.232,0.496-0.714,0.962-1.446,1.398
			c-0.732,0.437-1.514,0.718-2.346,0.846l-0.504-0.84c0.888-0.096,1.716-0.386,2.484-0.87s1.188-1.042,1.26-1.674h-3.3v-0.876h7.74
			v0.876h-3.312c0.08,0.624,0.51,1.174,1.29,1.65C148.369,320.081,149.187,320.363,150.042,320.451z"/>
		<path fill="#010101" d="M156.522,322.371h-4.728v-5.34h1.068v1.8h2.604v-1.812h1.056V322.371z M155.466,321.519v-1.848h-2.604
			v1.848H155.466z M160.218,326.499h-7.044v-3.204h1.056v2.34h5.988V326.499z M159.979,316.335v7.644h-1.068v-2.736h-1.812v-0.876
			h1.812v-1.428h-1.812v-0.876h1.812v-1.728H159.979z"/>
		<path fill="#010101" d="M171.45,323.271c-0.888,0.128-2,0.224-3.336,0.288c-1.424,0.071-2.516,0.108-3.276,0.108l-0.156-0.876
			c1.048,0,2.02-0.016,2.916-0.048v-0.672c-0.576-0.064-1.038-0.222-1.386-0.474c-0.348-0.252-0.522-0.578-0.522-0.978
			c0-0.464,0.228-0.832,0.684-1.104s1.036-0.408,1.74-0.408c0.704,0,1.286,0.134,1.746,0.402c0.46,0.268,0.69,0.638,0.69,1.11
			c0,0.4-0.172,0.724-0.516,0.972c-0.344,0.248-0.8,0.408-1.368,0.48v0.624c1.088-0.056,1.98-0.132,2.676-0.228L171.45,323.271z
			 M171.126,318.747h-6.06v-0.828h6.06V318.747z M173.334,326.619h-7.032v-2.556h1.068v1.704h5.964V326.619z M169.626,317.403
			h-2.928v-0.84h2.928V317.403z M169.518,320.619c0-0.216-0.13-0.388-0.39-0.516c-0.26-0.128-0.598-0.192-1.014-0.192
			c-0.416,0-0.752,0.064-1.008,0.192s-0.384,0.3-0.384,0.516c0,0.208,0.13,0.376,0.39,0.504c0.26,0.128,0.594,0.192,1.002,0.192
			c0.408,0,0.744-0.064,1.008-0.192S169.518,320.827,169.518,320.619z M174.618,320.943h-1.56v3.444h-1.044v-8.052h1.044v3.708h1.56
			V320.943z"/>
		<path fill="#010101" d="M180.629,317.139c-0.071,1.336-0.518,2.478-1.337,3.426c-0.82,0.948-1.934,1.666-3.342,2.154l-0.612-0.864
			c1.04-0.272,1.944-0.758,2.712-1.458c0.768-0.7,1.236-1.494,1.404-2.382h-3.6v-0.876H180.629z M183.018,323.301
			c0.623,0.365,0.936,0.862,0.936,1.494c0,0.633-0.312,1.129-0.936,1.488c-0.625,0.36-1.504,0.54-2.641,0.54
			c-1.12,0-1.994-0.18-2.622-0.54c-0.628-0.359-0.942-0.855-0.942-1.488c0-0.632,0.314-1.129,0.942-1.494
			c0.628-0.364,1.502-0.546,2.622-0.546C181.514,322.755,182.393,322.937,183.018,323.301z M180.377,323.619
			c-0.768,0-1.37,0.104-1.806,0.312s-0.654,0.496-0.654,0.863c0,0.368,0.218,0.654,0.654,0.858s1.038,0.306,1.806,0.306
			c0.793,0,1.406-0.102,1.842-0.306c0.438-0.204,0.654-0.49,0.654-0.858c0-0.367-0.217-0.655-0.654-0.863
			C181.784,323.723,181.17,323.619,180.377,323.619z M180.642,321.267v-0.852h2.185v-1.272h-2.064v-0.852h2.064v-1.956h1.066v6.492
			h-1.066v-1.56H180.642z"/>
	</g>
	<g>
		<rect x="10.215" y="316.383" fill="none" width="53" height="23.226"/>
		<path fill="#010101" d="M25.315,322.215h-4.812v-4.944h4.812V322.215z M24.271,321.363v-3.24h-2.724v3.24H24.271z M28.855,326.499
			h-7.032v-3.251h1.056v2.4h5.976V326.499z M27.56,320.115h-1.704v-0.864h1.704v-2.916h1.068v7.644H27.56V320.115z"/>
		<path fill="#010101" d="M40.099,323.271c-0.888,0.128-2,0.224-3.336,0.288c-1.424,0.071-2.516,0.108-3.276,0.108l-0.156-0.876
			c1.048,0,2.02-0.016,2.916-0.048v-0.672c-0.576-0.064-1.038-0.222-1.386-0.474c-0.348-0.252-0.522-0.578-0.522-0.978
			c0-0.464,0.228-0.832,0.684-1.104s1.036-0.408,1.74-0.408c0.704,0,1.286,0.134,1.746,0.402c0.46,0.268,0.69,0.638,0.69,1.11
			c0,0.4-0.172,0.724-0.516,0.972c-0.344,0.248-0.8,0.408-1.368,0.48v0.624c1.088-0.056,1.98-0.132,2.676-0.228L40.099,323.271z
			 M39.775,318.747h-6.06v-0.828h6.06V318.747z M41.983,326.619h-7.032v-2.556h1.068v1.704h5.964V326.619z M38.275,317.403h-2.928
			v-0.84h2.928V317.403z M38.167,320.619c0-0.216-0.13-0.388-0.39-0.516c-0.26-0.128-0.598-0.192-1.014-0.192
			c-0.416,0-0.752,0.064-1.008,0.192s-0.384,0.3-0.384,0.516c0,0.208,0.13,0.376,0.39,0.504c0.26,0.128,0.594,0.192,1.002,0.192
			c0.408,0,0.744-0.064,1.008-0.192S38.167,320.827,38.167,320.619z M43.267,320.943h-1.56v3.444h-1.044v-8.052h1.044v3.708h1.56
			V320.943z"/>
		<path fill="#010101" d="M49.279,317.139c-0.072,1.336-0.518,2.478-1.338,3.426c-0.82,0.948-1.934,1.666-3.342,2.154l-0.612-0.864
			c1.04-0.272,1.944-0.758,2.712-1.458c0.769-0.7,1.236-1.494,1.404-2.382h-3.601v-0.876H49.279z M51.667,323.301
			c0.624,0.365,0.937,0.862,0.937,1.494c0,0.633-0.312,1.129-0.937,1.488c-0.624,0.36-1.504,0.54-2.64,0.54
			c-1.12,0-1.994-0.18-2.622-0.54c-0.628-0.359-0.941-0.855-0.941-1.488c0-0.632,0.313-1.129,0.941-1.494
			c0.628-0.364,1.502-0.546,2.622-0.546C50.163,322.755,51.042,322.937,51.667,323.301z M49.027,323.619
			c-0.768,0-1.37,0.104-1.806,0.312c-0.437,0.208-0.654,0.496-0.654,0.863c0,0.368,0.218,0.654,0.654,0.858
			c0.436,0.204,1.038,0.306,1.806,0.306c0.792,0,1.406-0.102,1.842-0.306c0.437-0.204,0.654-0.49,0.654-0.858
			c0-0.367-0.218-0.655-0.654-0.863C50.433,323.723,49.819,323.619,49.027,323.619z M49.291,321.267v-0.852h2.185v-1.272h-2.064
			v-0.852h2.064v-1.956h1.067v6.492h-1.067v-1.56H49.291z"/>
	</g>
</g>
<polygon fill="#2E3192" stroke="#010101" stroke-width="0.4206" stroke-miterlimit="10" points="335.982,332.433 344.546,307.305 
	327.418,307.305 "/>
<g>
	<path d="M325.627,270.237h-2.244v2.136c1.336-0.064,2.276-0.136,2.82-0.216l0.132,1.08c-0.792,0.104-1.976,0.192-3.552,0.264
		c-1.368,0.072-2.508,0.108-3.42,0.108l-0.192-1.14c0.96,0,1.896-0.012,2.808-0.036v-2.196h-1.848v-4.32h1.404v3.204h4.092V270.237z
		 M328.207,264.933v10.692h-1.404v-10.692H328.207z"/>
	<path d="M338.323,271.509h-3.24v1.668h4.151v1.116h-9.659v-1.116h4.104v-1.668h-2.868v-3.54h5.809v-1.236h-5.868v-1.116h7.26v3.468
		h-5.808v1.296h6.12V271.509z"/>
	<path d="M347.143,272.889c-1.056,0.136-2.26,0.24-3.612,0.312c-1.6,0.064-2.72,0.092-3.359,0.084l-0.204-1.2
		c1.312,0,2.472-0.02,3.479-0.06c1.393-0.048,2.584-0.136,3.576-0.264L347.143,272.889z M340.375,268.185
		c0-0.76,0.271-1.378,0.815-1.854c0.544-0.476,1.265-0.714,2.16-0.714c0.896,0,1.614,0.238,2.154,0.714
		c0.54,0.476,0.81,1.094,0.81,1.854c0,0.752-0.27,1.368-0.81,1.848s-1.258,0.72-2.154,0.72c-0.888,0-1.606-0.24-2.154-0.72
		S340.375,268.937,340.375,268.185z M341.814,268.173c0,0.408,0.139,0.744,0.414,1.008c0.276,0.264,0.65,0.396,1.122,0.396
		s0.848-0.132,1.128-0.396c0.28-0.264,0.42-0.6,0.42-1.008c0-0.392-0.14-0.718-0.42-0.978s-0.656-0.39-1.128-0.39
		c-0.464,0-0.836,0.13-1.116,0.39C341.955,267.455,341.814,267.781,341.814,268.173z M348.979,264.933v10.692h-1.392v-10.692
		H348.979z"/>
	<path d="M306.517,288.681h-9.659v-1.104h4.104v-2.064h-3.216v-1.116h1.572l-0.301-2.46l1.404-0.18l0.216,2.64h2.137l0.384-2.616
		l1.355,0.228l-0.443,2.388h1.512v1.116h-3.216v2.064h4.151V288.681z M305.605,281.253h-7.885v-1.116h7.885V281.253z"/>
	<path d="M315.721,285.105h-2.976v2.472h4.151v1.104h-9.659v-1.104h4.104v-2.472h-2.855v-4.992h7.176v1.116h-5.772v2.76h5.832
		V285.105z"/>
	<path d="M319.356,283.893c1.832,0,3.24-0.108,4.225-0.324l0.156,1.08c-1.097,0.248-2.673,0.372-4.729,0.372h-1.044v-4.884h4.764
		v1.116h-3.372V283.893z M326.101,287.865c0,0.656-0.324,1.176-0.972,1.56c-0.648,0.384-1.548,0.576-2.7,0.576
		c-1.144,0-2.038-0.192-2.682-0.576c-0.645-0.384-0.966-0.904-0.966-1.56c0-0.672,0.321-1.2,0.966-1.584
		c0.644-0.384,1.538-0.576,2.682-0.576c1.16,0,2.062,0.192,2.706,0.576C325.778,286.665,326.101,287.193,326.101,287.865z
		 M324.066,288.615c0.389-0.18,0.582-0.43,0.582-0.75s-0.193-0.572-0.582-0.756c-0.388-0.184-0.934-0.276-1.638-0.276
		c-0.696,0-1.238,0.092-1.626,0.276s-0.582,0.436-0.582,0.756s0.194,0.57,0.582,0.75c0.388,0.18,0.93,0.27,1.626,0.27
		C323.133,288.885,323.679,288.795,324.066,288.615z M327.48,283.077h-1.512v2.508h-1.416v-6.252h1.416v2.604h1.512V283.077z"/>
	<path d="M340.812,285.129h-9.659v-1.116h3.659v-1.86h1.404v1.86h4.596V285.129z M338.604,286.497
		c0.656,0.368,0.984,0.864,0.984,1.488s-0.328,1.12-0.984,1.488c-0.655,0.368-1.563,0.552-2.724,0.552
		c-1.168,0-2.082-0.185-2.742-0.552c-0.66-0.368-0.989-0.864-0.989-1.488s0.329-1.12,0.989-1.488
		c0.66-0.368,1.574-0.552,2.742-0.552C337.041,285.945,337.949,286.129,338.604,286.497z M339.565,279.717
		c0,1.488-0.112,2.744-0.337,3.768c-0.832-0.112-1.283-0.172-1.355-0.18c0.192-0.768,0.288-1.596,0.288-2.484h-5.904v-1.104H339.565
		z M338.161,287.997c0-0.304-0.202-0.534-0.606-0.69c-0.403-0.156-0.962-0.234-1.674-0.234c-1.52,0-2.28,0.308-2.28,0.924
		c0,0.296,0.202,0.522,0.606,0.678c0.404,0.156,0.962,0.234,1.674,0.234s1.271-0.078,1.674-0.234
		C337.959,288.519,338.161,288.293,338.161,287.997z"/>
	<path d="M349.957,279.729c0,1.368-0.112,2.62-0.336,3.756h1.548v1.128h-9.66v-1.128h6.78c0.191-0.888,0.279-1.772,0.264-2.652
		h-5.784v-1.104H349.957z M349.933,289.893h-7.188v-4.44h1.392v1.2h4.404v-1.224h1.392V289.893z M348.541,288.789v-1.08h-4.404v1.08
		H348.541z"/>
	<path d="M360.336,286.545l-0.792,1.008c-0.368-0.232-0.738-0.59-1.11-1.074c-0.372-0.484-0.622-0.954-0.75-1.41
		c-0.128,0.496-0.39,1.012-0.785,1.548c-0.396,0.536-0.811,0.928-1.242,1.176l-0.853-0.948c1.473-0.976,2.208-2.524,2.208-4.644
		v-0.516h-1.8v-1.116h4.824v1.116h-1.668v0.492c0,1.04,0.168,1.934,0.504,2.682S359.696,286.169,360.336,286.545z M362.028,289.533
		h-1.309v-5.364h-1.392v-1.152h1.392v-3.48h1.309V289.533z M364.176,290.025h-1.332v-10.692h1.332V290.025z"/>
	<path d="M371.568,282.345h-6.204v-1.092h6.204V282.345z M371.052,284.613c0,0.568-0.238,1.034-0.714,1.398
		s-1.078,0.546-1.806,0.546c-0.736,0-1.345-0.182-1.824-0.546c-0.48-0.364-0.72-0.83-0.72-1.398s0.239-1.038,0.72-1.41
		c0.479-0.372,1.088-0.558,1.824-0.558c0.72,0,1.319,0.188,1.8,0.564C370.812,283.585,371.052,284.053,371.052,284.613z
		 M374.063,289.773h-7.308v-2.82h1.416v1.704h5.892V289.773z M366.948,280.749v-1.068h3.18v1.068H366.948z M367.38,284.613
		c0,0.232,0.112,0.426,0.336,0.582c0.224,0.156,0.496,0.234,0.816,0.234c0.312,0,0.582-0.078,0.81-0.234
		c0.229-0.156,0.342-0.35,0.342-0.582c0-0.248-0.113-0.452-0.342-0.612c-0.228-0.16-0.498-0.24-0.81-0.24
		c-0.32,0-0.593,0.08-0.816,0.24C367.492,284.161,367.38,284.365,367.38,284.613z M373.812,279.333v3.456h1.488v1.164h-1.488v3.324
		h-1.403v-7.944H373.812z"/>
</g>
<g>
	<path d="M8.306,167.354v-1.894h9.25v1.894h-3.333c0.079,1.157,0.483,2.146,1.213,2.968c0.729,0.822,1.614,1.404,2.653,1.746
		c-0.158,0.237-0.385,0.569-0.681,0.996s-0.483,0.7-0.562,0.818c-0.724-0.276-1.45-0.73-2.18-1.361
		c-0.729-0.631-1.272-1.322-1.627-2.071c-0.263,0.829-0.792,1.618-1.588,2.367c-0.796,0.75-1.627,1.275-2.495,1.578
		c-0.092-0.118-0.299-0.391-0.621-0.818c-0.323-0.427-0.576-0.752-0.76-0.977c1.25-0.447,2.249-1.124,2.998-2.031
		s1.157-1.979,1.223-3.215H8.306z M22.35,178.28c0,1.078-0.542,1.926-1.627,2.544c-1.084,0.618-2.594,0.927-4.526,0.927
		c-1.933,0-3.442-0.309-4.527-0.927c-1.084-0.618-1.627-1.466-1.627-2.544c0-1.104,0.542-1.969,1.627-2.594
		c1.085-0.625,2.594-0.937,4.527-0.937c1.933,0,3.442,0.312,4.526,0.937C21.807,176.311,22.35,177.176,22.35,178.28z
		 M16.196,176.604c-1.197,0-2.127,0.148-2.791,0.444c-0.664,0.296-0.996,0.707-0.996,1.233c0,0.513,0.332,0.914,0.996,1.203
		c0.664,0.29,1.594,0.434,2.791,0.434c1.209,0,2.146-0.145,2.811-0.434c0.664-0.289,0.996-0.69,0.996-1.203
		c0-0.539-0.333-0.953-0.996-1.243C18.342,176.749,17.405,176.604,16.196,176.604z M17.28,170.273v-1.854h2.643v-4.201h2.308v10.454
		h-2.308v-4.398H17.28z"/>
	<path d="M35.091,171.89l-1.321,1.795c-0.736-0.276-1.486-0.746-2.249-1.41s-1.328-1.377-1.696-2.14
		c-0.25,0.855-0.772,1.66-1.568,2.416c-0.796,0.756-1.627,1.286-2.495,1.588l-1.4-1.834c1.302-0.46,2.337-1.19,3.106-2.189
		c0.769-0.999,1.154-2.15,1.154-3.452v-1.657h2.367v1.519c0,1.289,0.404,2.413,1.213,3.373
		C33.01,170.858,33.973,171.522,35.091,171.89z M38.701,178.241c0,1.092-0.533,1.956-1.598,2.594
		c-1.065,0.638-2.544,0.957-4.438,0.957c-1.88,0-3.35-0.319-4.408-0.957c-1.059-0.638-1.588-1.502-1.588-2.594
		c0-1.104,0.529-1.976,1.588-2.613c1.058-0.638,2.528-0.957,4.408-0.957c1.906,0,3.389,0.315,4.448,0.947
		C38.171,176.249,38.701,177.124,38.701,178.241z M32.665,176.505c-1.131,0-2.019,0.155-2.663,0.464
		c-0.645,0.309-0.967,0.733-0.967,1.272c0,0.526,0.319,0.94,0.957,1.243c0.637,0.303,1.528,0.454,2.672,0.454
		c1.157,0,2.061-0.151,2.712-0.454c0.651-0.302,0.977-0.716,0.977-1.243c0-0.539-0.326-0.963-0.977-1.272
		S33.822,176.505,32.665,176.505z M41.008,170.292h-2.505v4.201h-2.328v-10.276h2.328v4.181h2.505V170.292z"/>
	<path d="M42.369,169.859c0-1.263,0.437-2.301,1.312-3.117c0.875-0.815,2.021-1.223,3.442-1.223c1.433,0,2.584,0.408,3.452,1.223
		c0.868,0.815,1.302,1.854,1.302,3.117c0,1.275-0.434,2.314-1.302,3.116c-0.868,0.802-2.019,1.203-3.452,1.203
		c-1.434,0-2.584-0.401-3.452-1.203C42.803,172.173,42.369,171.134,42.369,169.859z M56.728,181.318H44.538v-5.622h2.328v3.807
		h9.862V181.318z M44.735,169.859c0,0.71,0.217,1.292,0.651,1.746c0.434,0.454,1.013,0.68,1.736,0.68c0.75,0,1.338-0.227,1.765-0.68
		c0.427-0.454,0.641-1.036,0.641-1.746c0-0.684-0.217-1.249-0.651-1.696c-0.434-0.447-1.019-0.671-1.755-0.671
		c-0.723,0-1.302,0.224-1.736,0.671C44.953,168.61,44.735,169.175,44.735,169.859z M56.333,176.959h-2.288v-12.742h2.288V176.959z"
		/>
</g>
<g>
	<path d="M3.452,469.83c3.011,0,5.325-0.178,6.943-0.532l0.256,1.775c-1.802,0.407-4.392,0.611-7.771,0.611H1.164v-8.028h7.831
		v1.835H3.452V469.83z M14.537,476.358c0,1.079-0.533,1.934-1.598,2.564c-1.065,0.631-2.544,0.946-4.438,0.946
		c-1.88,0-3.35-0.315-4.408-0.946c-1.059-0.631-1.588-1.485-1.588-2.564c0-1.104,0.529-1.972,1.588-2.604
		c1.058-0.631,2.528-0.946,4.408-0.946c1.906,0,3.389,0.315,4.448,0.946C14.007,474.386,14.537,475.254,14.537,476.358z
		 M11.193,477.592c0.638-0.296,0.957-0.707,0.957-1.233c0-0.525-0.319-0.939-0.957-1.242c-0.638-0.303-1.536-0.454-2.692-0.454
		c-1.144,0-2.035,0.151-2.672,0.454c-0.638,0.303-0.957,0.717-0.957,1.242c0,0.526,0.319,0.938,0.957,1.233
		c0.637,0.296,1.528,0.443,2.672,0.443C9.658,478.035,10.555,477.887,11.193,477.592z M16.805,468.489h-2.485v4.122h-2.327v-10.276
		h2.327v4.28h2.485V468.489z"/>
	<path d="M33.53,477.7H17.653v-1.795h3.984v-3.669h2.308v3.669h3.234v-3.669h2.308v3.669h4.043V477.7z M31.657,471.092H19.605
		v-7.456h2.288v5.642h9.763V471.092z"/>
	<path d="M45.344,472.611l0.138,1.696c-1.407,0.197-3.189,0.352-5.345,0.463c-2.157,0.112-3.964,0.168-5.424,0.168
		c-0.105-0.684-0.21-1.302-0.315-1.854c1.972,0,3.452-0.014,4.438-0.04v-0.927c-0.894-0.145-1.614-0.427-2.16-0.849
		c-0.546-0.42-0.818-0.92-0.818-1.499c0-0.762,0.388-1.38,1.164-1.854s1.775-0.71,2.998-0.71c1.223,0,2.222,0.236,2.998,0.71
		c0.775,0.474,1.164,1.092,1.164,1.854c0,0.592-0.276,1.099-0.828,1.52c-0.553,0.421-1.289,0.697-2.209,0.828v0.848
		C42.682,472.9,44.082,472.782,45.344,472.611z M44.97,466.891h-9.882v-1.696h9.882V466.891z M49.013,479.652h-12.13v-4.043h2.308
		v2.248h9.823V479.652z M37.593,464.544v-1.716h4.971v1.716H37.593z M41.913,469.77c0-0.275-0.165-0.503-0.493-0.68
		c-0.329-0.178-0.796-0.267-1.4-0.267c-0.592,0-1.055,0.089-1.391,0.267c-0.335,0.177-0.503,0.404-0.503,0.68
		c0,0.237,0.171,0.447,0.513,0.632s0.802,0.276,1.381,0.276c0.592,0,1.055-0.089,1.391-0.267
		C41.745,470.234,41.913,470.02,41.913,469.77z M48.638,462.335v5.938h2.17v1.913h-2.17v5.799h-2.308v-13.649H48.638z"/>
	<path d="M62.386,474.149l-1.282,1.677c-0.828-0.407-1.676-1.098-2.544-2.071c-0.868-0.973-1.427-1.873-1.676-2.702
		c-0.224,0.935-0.74,1.903-1.548,2.909s-1.713,1.753-2.712,2.239l-1.42-1.716c2.972-1.631,4.458-4.293,4.458-7.988v-0.474h-3.55
		v-1.894h9.369v1.894h-3.432v0.454C58.046,470.001,59.493,472.558,62.386,474.149z M65.522,462.335v6.766h2.505v1.913h-2.505v8.896
		h-2.308v-17.574H65.522z"/>
</g>
<g>
</g>
<g>
</g>
<g>
</g>
<g>
</g>
<g>
</g>
<g>
</g>
</svg>
