<?xml version="1.0" encoding="utf-8"?>
<!-- Generator: Adobe Illustrator 28.0.0, SVG Export Plug-In . SVG Version: 6.00 Build 0)  -->
<svg version="1.1" id="레이어_1" xmlns="http://www.w3.org/2000/svg" xmlns:xlink="http://www.w3.org/1999/xlink" x="0px"
	 y="0px" viewBox="0 0 314.552 257.949" enable-background="new 0 0 314.552 257.949" xml:space="preserve">
<g>
	<linearGradient id="SVGID_1_" gradientUnits="userSpaceOnUse" x1="38.9425" y1="65.8091" x2="38.9425" y2="148.2053">
		<stop  offset="0" style="stop-color:#FFFFFF"/>
		<stop  offset="0.4385" style="stop-color:#FFFFFF"/>
		<stop  offset="0.4492" style="stop-color:#FFF4EF"/>
		<stop  offset="0.5132" style="stop-color:#FBC6B3"/>
		<stop  offset="0.5793" style="stop-color:#F79F84"/>
		<stop  offset="0.6459" style="stop-color:#F38064"/>
		<stop  offset="0.7132" style="stop-color:#F1654B"/>
		<stop  offset="0.7814" style="stop-color:#EF4D39"/>
		<stop  offset="0.851" style="stop-color:#ED382E"/>
		<stop  offset="0.9228" style="stop-color:#ED2829"/>
		<stop  offset="1" style="stop-color:#EC2227"/>
	</linearGradient>
	<circle fill="url(#SVGID_1_)" stroke="#010101" stroke-width="0.8851" stroke-miterlimit="10" cx="38.943" cy="103.006" r="38.5"/>
	
		<linearGradient id="SVGID_00000165222754858301208520000008225213039533296044_" gradientUnits="userSpaceOnUse" x1="157.2759" y1="65.8091" x2="157.2759" y2="148.2053">
		<stop  offset="0" style="stop-color:#FFFFFF"/>
		<stop  offset="0.1482" style="stop-color:#FFFFFF"/>
		<stop  offset="0.1643" style="stop-color:#FFF4EF"/>
		<stop  offset="0.2614" style="stop-color:#FBC6B3"/>
		<stop  offset="0.3617" style="stop-color:#F79F84"/>
		<stop  offset="0.4627" style="stop-color:#F38064"/>
		<stop  offset="0.5648" style="stop-color:#F1654B"/>
		<stop  offset="0.6684" style="stop-color:#EF4D39"/>
		<stop  offset="0.774" style="stop-color:#ED382E"/>
		<stop  offset="0.8828" style="stop-color:#ED2829"/>
		<stop  offset="1" style="stop-color:#EC2227"/>
	</linearGradient>
	
		<circle fill="url(#SVGID_00000165222754858301208520000008225213039533296044_)" stroke="#010101" stroke-width="0.8851" stroke-miterlimit="10" cx="157.276" cy="103.006" r="38.5"/>
	
		<linearGradient id="SVGID_00000127749822559115266390000012663349722067417494_" gradientUnits="userSpaceOnUse" x1="157.6092" y1="181.8091" x2="157.6092" y2="264.2053">
		<stop  offset="0" style="stop-color:#FFFFFF"/>
		<stop  offset="0.4385" style="stop-color:#FFFFFF"/>
		<stop  offset="0.4492" style="stop-color:#FFF4EF"/>
		<stop  offset="0.5132" style="stop-color:#FBC6B3"/>
		<stop  offset="0.5793" style="stop-color:#F79F84"/>
		<stop  offset="0.6459" style="stop-color:#F38064"/>
		<stop  offset="0.7132" style="stop-color:#F1654B"/>
		<stop  offset="0.7814" style="stop-color:#EF4D39"/>
		<stop  offset="0.851" style="stop-color:#ED382E"/>
		<stop  offset="0.9228" style="stop-color:#ED2829"/>
		<stop  offset="1" style="stop-color:#EC2227"/>
	</linearGradient>
	
		<circle fill="url(#SVGID_00000127749822559115266390000012663349722067417494_)" stroke="#010101" stroke-width="0.8851" stroke-miterlimit="10" cx="157.609" cy="219.006" r="38.5"/>
	
		<linearGradient id="SVGID_00000010990734110866440470000010229163196208847777_" gradientUnits="userSpaceOnUse" x1="275.6092" y1="65.8091" x2="275.6092" y2="148.2053">
		<stop  offset="0" style="stop-color:#FFFFFF"/>
		<stop  offset="0.4385" style="stop-color:#FFFFFF"/>
		<stop  offset="0.4492" style="stop-color:#FFF4EF"/>
		<stop  offset="0.5132" style="stop-color:#FBC6B3"/>
		<stop  offset="0.5793" style="stop-color:#F79F84"/>
		<stop  offset="0.6459" style="stop-color:#F38064"/>
		<stop  offset="0.7132" style="stop-color:#F1654B"/>
		<stop  offset="0.7814" style="stop-color:#EF4D39"/>
		<stop  offset="0.851" style="stop-color:#ED382E"/>
		<stop  offset="0.9228" style="stop-color:#ED2829"/>
		<stop  offset="1" style="stop-color:#EC2227"/>
	</linearGradient>
	
		<circle fill="url(#SVGID_00000010990734110866440470000010229163196208847777_)" stroke="#010101" stroke-width="0.8851" stroke-miterlimit="10" cx="275.609" cy="103.006" r="38.5"/>
	
		<linearGradient id="SVGID_00000024719261680400865820000008008308236797972626_" gradientUnits="userSpaceOnUse" x1="194.7928" y1="91.3265" x2="194.7928" y2="117.1913" gradientTransform="matrix(-1 0 0 1 293.152 0)">
		<stop  offset="0" style="stop-color:#FFFFFF"/>
		<stop  offset="0.4385" style="stop-color:#FFFFFF"/>
		<stop  offset="0.4492" style="stop-color:#FFF4EF"/>
		<stop  offset="0.5132" style="stop-color:#FBC6B3"/>
		<stop  offset="0.5793" style="stop-color:#F79F84"/>
		<stop  offset="0.6459" style="stop-color:#F38064"/>
		<stop  offset="0.7132" style="stop-color:#F1654B"/>
		<stop  offset="0.7814" style="stop-color:#EF4D39"/>
		<stop  offset="0.851" style="stop-color:#ED382E"/>
		<stop  offset="0.9228" style="stop-color:#ED2829"/>
		<stop  offset="1" style="stop-color:#EC2227"/>
	</linearGradient>
	
		<polygon fill="url(#SVGID_00000024719261680400865820000008008308236797972626_)" stroke="#010101" stroke-width="0.4255" stroke-miterlimit="10" points="
		81.109,103.003 89.159,90.918 89.159,96.025 115.609,96.025 115.609,109.981 89.159,109.981 89.159,115.088 	"/>
	
		<linearGradient id="SVGID_00000169543650225828432740000004127536594857819066_" gradientUnits="userSpaceOnUse" x1="216.3592" y1="91.3265" x2="216.3592" y2="117.1913">
		<stop  offset="0" style="stop-color:#FFFFFF"/>
		<stop  offset="0.4385" style="stop-color:#FFFFFF"/>
		<stop  offset="0.4492" style="stop-color:#FFF4EF"/>
		<stop  offset="0.5132" style="stop-color:#FBC6B3"/>
		<stop  offset="0.5793" style="stop-color:#F79F84"/>
		<stop  offset="0.6459" style="stop-color:#F38064"/>
		<stop  offset="0.7132" style="stop-color:#F1654B"/>
		<stop  offset="0.7814" style="stop-color:#EF4D39"/>
		<stop  offset="0.851" style="stop-color:#ED382E"/>
		<stop  offset="0.9228" style="stop-color:#ED2829"/>
		<stop  offset="1" style="stop-color:#EC2227"/>
	</linearGradient>
	
		<polygon fill="url(#SVGID_00000169543650225828432740000004127536594857819066_)" stroke="#010101" stroke-width="0.4255" stroke-miterlimit="10" points="
		233.609,103.003 225.559,90.918 225.559,96.025 199.109,96.025 199.109,109.981 225.559,109.981 225.559,115.088 	"/>
	
		<linearGradient id="SVGID_00000001623650145334408630000016571402245125548728_" gradientUnits="userSpaceOnUse" x1="157.3592" y1="148.0383" x2="157.3592" y2="184.3265">
		<stop  offset="0" style="stop-color:#FFFFFF"/>
		<stop  offset="0.4385" style="stop-color:#FFFFFF"/>
		<stop  offset="0.4492" style="stop-color:#FFF4EF"/>
		<stop  offset="0.5132" style="stop-color:#FBC6B3"/>
		<stop  offset="0.5793" style="stop-color:#F79F84"/>
		<stop  offset="0.6459" style="stop-color:#F38064"/>
		<stop  offset="0.7132" style="stop-color:#F1654B"/>
		<stop  offset="0.7814" style="stop-color:#EF4D39"/>
		<stop  offset="0.851" style="stop-color:#ED382E"/>
		<stop  offset="0.9228" style="stop-color:#ED2829"/>
		<stop  offset="1" style="stop-color:#EC2227"/>
	</linearGradient>
	
		<polygon fill="url(#SVGID_00000001623650145334408630000016571402245125548728_)" stroke="#010101" stroke-width="0.4255" stroke-miterlimit="10" points="
		157.359,178.253 169.445,170.203 164.337,170.203 164.337,143.753 150.382,143.753 150.382,170.203 145.274,170.203 	"/>
	<g>
		<rect x="258.932" y="88.78" fill="none" width="33.768" height="21.226"/>
		<path fill="#010101" d="M271.136,99.16h-1.068v-3.516h-4.176v-0.852h9.468v0.852h-4.224V99.16z M274.292,93.532h-7.26V89.38h7.151
			v0.864H268.1v2.412h6.192V93.532z"/>
		<path fill="#010101" d="M282.524,93.868h-2.304v2.281c1.304-0.072,2.292-0.152,2.964-0.241l0.084,0.852
			c-0.68,0.08-1.848,0.176-3.504,0.288c-1.384,0.072-2.484,0.108-3.3,0.108l-0.181-0.9c1.072,0,2.028-0.02,2.868-0.061v-2.328h-2.04
			v-4.236h1.057v3.372h4.355V93.868z M284.948,99.22h-1.056V88.732h1.056V99.22z"/>
	</g>
	<g>
		<rect x="140.932" y="88.78" fill="none" width="33.768" height="21.226"/>
		<path fill="#010101" d="M154.241,93.892l-0.612,0.828c-0.512-0.216-1.01-0.554-1.494-1.014s-0.834-0.946-1.05-1.458
			c-0.16,0.552-0.486,1.098-0.979,1.638c-0.491,0.54-1.014,0.934-1.565,1.182l-0.648-0.828c0.744-0.312,1.37-0.814,1.877-1.506
			s0.763-1.438,0.763-2.238V89.32h1.079v1.128c0,0.792,0.267,1.504,0.799,2.136C152.942,93.216,153.552,93.652,154.241,93.892z
			 M156.724,98.92h-7.067v-3.276h1.067v2.412h6V98.92z M156.496,96.352h-1.068v-7.62h1.068V96.352z"/>
		<path fill="#010101" d="M163.492,96.232L162.868,97c-0.416-0.256-0.821-0.62-1.218-1.092c-0.396-0.472-0.662-0.948-0.798-1.428
			c-0.128,0.512-0.39,1.03-0.786,1.553c-0.396,0.524-0.83,0.931-1.302,1.219l-0.672-0.708c1.488-0.928,2.231-2.308,2.231-4.14v-0.18
			h-1.979V91.36h4.944v0.864h-1.921v0.144c0,0.944,0.198,1.738,0.595,2.382C162.358,95.394,162.868,95.888,163.492,96.232z
			 M159.472,90.436V89.56h2.76v0.876H159.472z M164.08,94.144h-1.5V93.28h1.5v-4.308h0.995v9.732h-0.995V94.144z M167.128,99.22
			h-1.021V88.732h1.021V99.22z"/>
	</g>
	<g>
		<rect x="128.023" y="202.78" fill="none" width="59.587" height="21.226"/>
		<path fill="#010101" d="M146.98,208.408h-9.468v-0.852h6.84c0.192-0.792,0.288-1.868,0.288-3.228h-5.928v-0.864h6.996
			c0,1.632-0.1,2.996-0.3,4.092h1.572V208.408z M145.996,212.848h-7.224v-3.324h1.056v2.459h6.168V212.848z"/>
		<path fill="#010101" d="M148.888,209.884h1.512v-1.428h-2.508v-0.876h9.468v0.876h-2.556v1.428h1.344v3.384h-1.068v-2.508h-6.191
			V209.884z M156.232,205c0,0.608-0.318,1.088-0.954,1.44s-1.522,0.528-2.658,0.528s-2.02-0.176-2.651-0.528
			c-0.633-0.352-0.948-0.832-0.948-1.44c0-0.6,0.317-1.076,0.954-1.428c0.636-0.352,1.518-0.528,2.646-0.528
			c1.136,0,2.022,0.176,2.658,0.528S156.232,204.4,156.232,205z M154.468,205.828c0.455-0.2,0.684-0.476,0.684-0.828
			s-0.227-0.626-0.678-0.822c-0.452-0.196-1.07-0.294-1.854-0.294c-0.776,0-1.388,0.098-1.836,0.294
			c-0.448,0.196-0.672,0.47-0.672,0.822s0.224,0.628,0.672,0.828c0.448,0.2,1.06,0.3,1.836,0.3S154.012,206.028,154.468,205.828z
			 M151.468,208.456v1.428h2.268v-1.428H151.468z"/>
		<path fill="#010101" d="M164.728,209.932l-0.624,0.792c-0.536-0.312-1.061-0.762-1.572-1.35c-0.512-0.588-0.848-1.162-1.008-1.722
			c-0.152,0.616-0.473,1.23-0.96,1.842c-0.488,0.612-1.044,1.102-1.668,1.47l-0.672-0.769c0.823-0.487,1.487-1.146,1.991-1.974
			c0.504-0.828,0.756-1.738,0.756-2.73v-0.84h-2.376v-0.864h5.82v0.864h-2.352v0.84c0,0.976,0.248,1.854,0.744,2.634
			C163.303,208.906,163.944,209.508,164.728,209.932z M165.856,202.732h1.067v10.488h-1.067V202.732z"/>
		<path fill="#010101" d="M173.931,208.324h-4.943v-5.052h1.056v1.692h2.82v-1.704h1.067V208.324z M175.959,209.68
			c0.608,0.368,0.912,0.864,0.912,1.488s-0.306,1.12-0.918,1.488c-0.612,0.367-1.47,0.552-2.574,0.552
			c-1.096,0-1.946-0.185-2.55-0.552c-0.604-0.368-0.906-0.864-0.906-1.488s0.302-1.12,0.906-1.488
			c0.604-0.368,1.454-0.552,2.55-0.552C174.492,209.128,175.351,209.312,175.959,209.68z M172.864,207.46v-1.632h-2.82v1.632
			H172.864z M173.379,209.992c-0.744,0-1.326,0.106-1.746,0.319c-0.42,0.211-0.63,0.497-0.63,0.857s0.212,0.646,0.636,0.858
			c0.425,0.212,1.004,0.317,1.74,0.317c0.76,0,1.352-0.104,1.776-0.312c0.424-0.208,0.636-0.496,0.636-0.864
			c0-0.36-0.212-0.646-0.636-0.857C174.731,210.098,174.139,209.992,173.379,209.992z M178.312,206.272h-1.561v2.784h-1.068v-6.324
			h1.068v2.664h1.561V206.272z"/>
	</g>
	<g>
		<rect x="4.932" y="88.78" fill="none" width="72.677" height="39.226"/>
		<path fill="#010101" d="M36.675,94.6h-4.848v-4.944h4.848V94.6z M35.631,93.76v-3.252h-2.76v3.252H35.631z M40.179,98.896h-7.032
			v-3.228h1.056v2.364h5.976V98.896z M38.883,91.336H37.19v-0.852h1.692v-1.752h1.068v7.62h-1.068v-2.7H37.19V92.8h1.692V91.336z"/>
		<path fill="#010101" d="M42.615,90.01c0.512-0.476,1.14-0.714,1.884-0.714s1.374,0.236,1.89,0.708
			c0.516,0.472,0.774,1.072,0.774,1.8c0,0.728-0.256,1.318-0.768,1.77c-0.512,0.452-1.144,0.678-1.896,0.678
			c-0.744,0-1.372-0.226-1.884-0.678c-0.512-0.452-0.768-1.042-0.768-1.77C41.847,91.084,42.102,90.486,42.615,90.01z
			 M44.498,90.184c-0.472,0-0.858,0.154-1.158,0.462c-0.3,0.308-0.45,0.69-0.45,1.146c0,0.472,0.15,0.858,0.45,1.158
			c0.3,0.3,0.686,0.45,1.158,0.45c0.48,0,0.868-0.15,1.164-0.45c0.296-0.3,0.444-0.682,0.444-1.146c0-0.464-0.146-0.85-0.438-1.158
			S44.986,90.184,44.498,90.184z M43.203,95.392h7.128v3.839h-1.068v-2.987h-6.06V95.392z M47.486,90.988l-0.012-0.876h1.788v-1.38
			h1.068v6.108h-1.068v-1.392h-1.788l0.012-0.888h1.776v-1.572H47.486z"/>
	</g>
	<g>
		<g>
			<polyline fill="none" stroke="#010101" stroke-width="0.885" stroke-miterlimit="10" points="38.943,43.512 38.943,24.548 
				275.816,24.548 275.816,42.605 			"/>
			<g>
				<path fill="#010101" d="M38.943,48.853c0.933-2.513,2.524-5.632,4.209-7.564l-4.209,1.522l-4.208-1.522
					C36.42,43.222,38.011,46.34,38.943,48.853z"/>
			</g>
			<g>
				<polygon fill="#010101" points="275.816,48.853 272.218,40.048 275.816,42.138 279.413,40.048 				"/>
			</g>
		</g>
	</g>
	<g>
		<path d="M152.906,1.693c0,0.969-0.182,1.857-0.543,2.666c-0.362,0.809-0.852,1.488-1.469,2.036s-1.293,1.003-2.028,1.365
			c-0.734,0.362-1.516,0.628-2.346,0.798l-0.926-1.517c1.32-0.181,2.464-0.612,3.433-1.293c0.969-0.681,1.57-1.517,1.804-2.507
			h-4.55V1.693H152.906z M157.296,15.185h-9.708v-3.8h7.409v-0.99h-7.504V8.91h9.388v3.816h-7.425v0.958h7.84V15.185z M158.91,5.524
			h-2.028v2.714h-1.884V1.086h1.884v2.906h2.028V5.524z"/>
		<path d="M172.416,7.584v1.485h-12.854V7.584H172.416z M170.948,12.614c0,0.82-0.434,1.463-1.302,1.932
			c-0.867,0.468-2.083,0.702-3.648,0.702c-1.564,0-2.78-0.234-3.647-0.702c-0.868-0.469-1.302-1.112-1.302-1.932
			c0-0.83,0.434-1.482,1.302-1.956c0.867-0.473,2.078-0.71,3.632-0.71c1.564,0,2.783,0.237,3.656,0.71
			C170.511,11.132,170.948,11.784,170.948,12.614z M170.915,6.451h-9.644v-4.95h9.532v1.501h-7.664v1.964h7.775V6.451z
			 M169.032,12.63c0-0.373-0.274-0.665-0.822-0.878c-0.549-0.213-1.291-0.319-2.228-0.319c-0.926,0-1.66,0.106-2.203,0.319
			c-0.543,0.213-0.814,0.506-0.814,0.878c0,0.362,0.271,0.644,0.814,0.846s1.277,0.303,2.203,0.303c0.937,0,1.679-0.101,2.228-0.303
			C168.757,13.274,169.032,12.992,169.032,12.63z"/>
	</g>
</g>
<g>
</g>
<g>
</g>
<g>
</g>
<g>
</g>
<g>
</g>
<g>
</g>
<g>
</g>
<g>
</g>
</svg>
