<?xml version="1.0" encoding="utf-8"?>
<!-- Generator: Adobe Illustrator 28.0.0, SVG Export Plug-In . SVG Version: 6.00 Build 0)  -->
<svg version="1.1" id="레이어_1" xmlns="http://www.w3.org/2000/svg" xmlns:xlink="http://www.w3.org/1999/xlink" x="0px"
	 y="0px" viewBox="0 0 284.042 225.193" enable-background="new 0 0 284.042 225.193" xml:space="preserve">
<g>
	<path fill="#E2F3F4" stroke="#A1C4CD" stroke-width="2.2892" stroke-miterlimit="10" d="M111.573,224.009
		c-0.017-0.468-0.321-11.54,7.604-18.648c5.445-4.883,13.319-6.614,23.399-5.148l0.077,0.013c1.321,0.246,2.949,0.228,3.52-0.019
		c-0.051-0.239-0.247-0.804-0.99-1.815c-1.74-2.448-7.132-11.053-4.144-19.96c1.771-5.282,6.105-9.56,12.203-12.048
		c7.179-2.928,15.572-2.736,21.904,0.501c7.394,3.781,14.291,12.683,12.507,21.733c-0.912,4.628-3.9,8.826-8.415,11.823
		c-5.573,3.7-12.796,5.01-19.854,3.613c-0.999,0.081-2.118,0.362-2.582,0.637c0.101,0.177,0.318,0.483,0.777,0.925
		c0.76,0.731,1.532,1.449,2.279,2.144c2.269,2.109,4.614,4.29,7.032,7.2c0.152,0.183,0.316,0.376,0.488,0.58
		c1.206,1.424,2.856,3.374,4.333,6.202l-3.246,1.695c-1.288-2.468-2.727-4.167-3.882-5.532c-0.18-0.213-0.351-0.414-0.51-0.606
		c-2.266-2.729-4.424-4.735-6.708-6.858c-0.758-0.705-1.542-1.434-2.324-2.185c-1.749-1.682-2.349-3.304-1.78-4.82
		c0.974-2.6,4.959-2.993,6.157-3.052l0.232-0.011l0.228,0.047c6.187,1.282,12.505,0.177,17.335-3.029
		c3.641-2.417,6.137-5.873,6.848-9.481c1.436-7.29-4.38-14.594-10.582-17.766c-5.41-2.766-12.635-2.908-18.855-0.371
		c-5.095,2.079-8.688,5.566-10.115,9.822c-2.438,7.268,2.171,14.583,3.641,16.652c0.642,0.873,2.645,3.601,1.193,5.905
		c-1.585,2.517-5.96,1.931-7.331,1.677c-8.924-1.293-15.775,0.132-20.367,4.235c-6.651,5.942-6.416,15.717-6.413,15.815
		L111.573,224.009z"/>
</g>
<g>
	<g>
		<g>
			<path fill="#6F78B9" d="M147.288,184.641l-3.365,1.4c-0.372-0.893-1.407-1.32-2.3-0.948s-1.32,1.407-0.948,2.3l-3.55,1.477
				l3.83-0.483c0.121,0.96,1.005,1.646,1.965,1.525c0.96-0.121,1.646-1.005,1.525-1.965l3.616-0.456
				C145.517,186.653,147.288,184.641,147.288,184.641z"/>
		</g>
	</g>
	<g>
		<path fill="#A2A3D1" stroke="#2F5CAA" stroke-width="0.3886" stroke-miterlimit="10" d="M143.946,186.075
			c-0.372-0.893-1.407-1.32-2.3-0.948s-1.32,1.407-0.948,2.3l-3.564,1.484l-0.194-0.466c-0.524-1.26,0.077-2.719,1.337-3.243
			l5.596-2.329c1.26-0.524,2.719,0.077,3.243,1.337l0.194,0.466L143.946,186.075z"/>
	</g>
	<g>
		<path fill="#A2A3D1" stroke="#2F5CAA" stroke-width="0.3886" stroke-miterlimit="10" d="M144.47,187.981
			c0.121,0.96-0.565,1.844-1.525,1.965c-0.96,0.121-1.844-0.565-1.965-1.525l-3.83,0.483l0.063,0.501
			c0.171,1.354,1.418,2.322,2.771,2.151l6.014-0.758c1.354-0.171,2.322-1.418,2.151-2.771l-0.063-0.501L144.47,187.981z"/>
	</g>
</g>
<g>
	<g>
		<g>
			<path fill="#6F78B9" d="M169.24,196.93l1.946,3.081c-0.818,0.517-1.065,1.608-0.548,2.426c0.517,0.818,1.608,1.065,2.426,0.548
				l2.053,3.251l-1.12-3.695c0.926-0.281,1.454-1.268,1.173-2.194c-0.281-0.926-1.268-1.454-2.194-1.173l-1.057-3.488
				C171.521,198.338,169.24,196.93,169.24,196.93z"/>
		</g>
	</g>
	<g>
		<path fill="#A2A3D1" stroke="#2F5CAA" stroke-width="0.3886" stroke-miterlimit="10" d="M171.214,199.984
			c-0.818,0.517-1.065,1.608-0.548,2.426c0.517,0.818,1.608,1.065,2.426,0.548l2.061,3.264l-0.427,0.27
			c-1.154,0.728-2.693,0.381-3.422-0.773l-3.236-5.126c-0.728-1.154-0.381-2.693,0.773-3.422l0.427-0.27L171.214,199.984z"/>
	</g>
	<g>
		<path fill="#A2A3D1" stroke="#2F5CAA" stroke-width="0.3886" stroke-miterlimit="10" d="M173.006,199.147
			c0.926-0.281,1.913,0.247,2.194,1.173c0.281,0.926-0.247,1.913-1.173,2.194l1.12,3.695l0.483-0.146
			c1.306-0.396,2.05-1.788,1.655-3.093l-1.758-5.801c-0.396-1.306-1.788-2.05-3.093-1.655l-0.483,0.146L173.006,199.147z"/>
	</g>
</g>
<g>
	<g>
		<g>
			<path fill="#6F78B9" d="M171.499,174.004l1.177-3.449c0.916,0.312,1.92-0.181,2.233-1.097c0.312-0.916-0.181-1.92-1.097-2.233
				l1.241-3.639l-2.173,3.191c-0.8-0.544-1.899-0.336-2.444,0.464c-0.544,0.8-0.336,1.899,0.464,2.444l-2.051,3.012
				C171.162,171.344,171.499,174.004,171.499,174.004z"/>
		</g>
	</g>
	<g>
		<path fill="#A2A3D1" stroke="#2F5CAA" stroke-width="0.3886" stroke-miterlimit="10" d="M172.636,170.55
			c0.916,0.312,1.92-0.181,2.233-1.097c0.312-0.916-0.181-1.92-1.097-2.233l1.246-3.654l0.478,0.163
			c1.291,0.44,1.987,1.857,1.547,3.149l-1.957,5.737c-0.44,1.291-1.857,1.987-3.149,1.547l-0.478-0.163L172.636,170.55z"/>
	</g>
	<g>
		<path fill="#A2A3D1" stroke="#2F5CAA" stroke-width="0.3886" stroke-miterlimit="10" d="M170.86,169.68
			c-0.8-0.544-1.009-1.644-0.464-2.444c0.544-0.8,1.644-1.009,2.444-0.464l2.173-3.191l-0.418-0.284
			c-1.128-0.768-2.679-0.473-3.447,0.655l-3.411,5.011c-0.768,1.128-0.473,2.679,0.655,3.447l0.418,0.284L170.86,169.68z"/>
	</g>
</g>
<path fill="#E2F3F4" stroke="#A1C4CD" stroke-width="2.2892" stroke-miterlimit="10" d="M204.132,81.623
	c-3.484,0-6.902-0.667-9.846-1.87c-1.504-0.615-5.026-2.055-7.758-5.558l-0.045-0.058c-3.27-4.174-4.702-8.969-4.034-13.502
	c0.197-1.334,0.606-4.111,2.579-6.702c1.735-2.278,2.846-2.81,2.846-2.81c0.94-0.604,1.834-0.933,2.274-1.941
	c0.112-0.256,0.385-0.909,0.112-1.63c-0.292-0.775-1.01-1.089-1.162-1.152c0,0,0,0,0,0c-0.006,0-1.873-1.597-13.193-1.002
	l-0.087,0.004c-2.907,0.151-5.83,0.101-8.658,0.052c-1.385-0.024-2.818-0.049-4.217-0.049H1.5v-4.356h161.444
	c1.437,0,2.889,0.025,4.293,0.05c2.752,0.048,5.598,0.097,8.355-0.047l0.085-0.004c12.197-0.64,15.332,1.102,16.436,2.191
	c0.216,0.214,0.404,0.463,0.404,0.463c0.667,0.801,1.258,1.716,1.509,2.276c0.673,1.502,0.135,3.228-0.073,3.894
	c-0.564,1.809-1.54,3.153-3.306,4.61c-0.778,0.642-1.513,1.248-2.153,2.089c-1.293,1.698-1.57,3.576-1.735,4.698
	c-0.493,3.34,0.627,6.955,3.154,10.181l0.051,0.066c2.019,2.589,4.688,3.68,5.971,4.205c6.062,2.478,17.091,2.565,22.624-5.002
	c2.082-2.848,3.297-6.545,3.421-10.41c0.127-3.995-0.87-6.576-2.963-7.673l-0.303-0.157c-0.958-0.494-2.15-1.11-3.047-2.212
	c-1.713-2.104-1.573-5.269,0.311-7.057c1.839-1.745,4.506-1.632,6.453-1.55c0.435,0.019,0.843,0.036,1.184,0.03l8.382-0.138
	c1.015-0.017,2.156-0.005,3.478,0.01c3.156,0.034,41.889,0.08,47.382-0.28l-0.151,4.346c-5.658,0.371-44.052,0.324-47.277,0.289
	c-1.29-0.014-2.404-0.026-3.359-0.01l-8.383,0.138c-0.465,0.007-0.96-0.013-1.439-0.034c-1.105-0.047-2.771-0.117-3.271,0.358
	c-0.204,0.194-0.208,0.808,0.068,1.147c0.324,0.398,0.977,0.735,1.667,1.091l0.327,0.169c2.543,1.332,5.526,4.438,5.296,11.67
	c-0.151,4.733-1.663,9.294-4.258,12.842C217.787,79.154,210.836,81.623,204.132,81.623z"/>
<g>
	<g>
		<g>
			<path fill="#6F78B9" d="M192.808,67.403l-2.827,3.288c-0.873-0.75-2.201-0.65-2.951,0.223c-0.75,0.873-0.65,2.201,0.223,2.951
				l-2.982,3.469l3.813-2.562c0.642,0.955,1.949,1.212,2.904,0.57c0.955-0.642,1.212-1.949,0.57-2.904l3.599-2.418
				C192.002,70.489,192.808,67.403,192.808,67.403z"/>
		</g>
	</g>
	<g>
		<path fill="#A2A3D1" stroke="#2F5CAA" stroke-width="0.3886" stroke-miterlimit="10" d="M190.023,70.714
			c-0.873-0.75-2.201-0.65-2.951,0.223c-0.75,0.873-0.65,2.201,0.223,2.951l-2.995,3.483l-0.456-0.392
			c-1.231-1.058-1.372-2.931-0.314-4.162l4.702-5.469c1.058-1.231,2.931-1.372,4.162-0.314l0.456,0.392L190.023,70.714z"/>
	</g>
	<g>
		<path fill="#A2A3D1" stroke="#2F5CAA" stroke-width="0.3886" stroke-miterlimit="10" d="M191.599,72.46
			c0.642,0.955,0.386,2.262-0.57,2.904c-0.955,0.642-2.262,0.386-2.904-0.57l-3.813,2.562l0.335,0.499
			c0.905,1.347,2.748,1.709,4.096,0.804l5.986-4.022c1.347-0.905,1.709-2.748,0.804-4.096l-0.335-0.499L191.599,72.46z"/>
	</g>
</g>
<g>
	<g>
		<g>
			<path fill="#6F78B9" d="M210.488,70.463l2.895,3.228c-0.857,0.768-0.929,2.098-0.161,2.955c0.768,0.857,2.098,0.929,2.955,0.161
				l3.054,3.406l-2.047-4.112c1.03-0.513,1.454-1.776,0.941-2.806c-0.513-1.03-1.776-1.454-2.806-0.941l-1.933-3.881
				C213.444,71.661,210.488,70.463,210.488,70.463z"/>
		</g>
	</g>
	<g>
		<path fill="#A2A3D1" stroke="#2F5CAA" stroke-width="0.3886" stroke-miterlimit="10" d="M213.411,73.652
			c-0.857,0.768-0.929,2.098-0.161,2.955c0.768,0.857,2.098,0.929,2.955,0.161l3.066,3.42l-0.447,0.401
			c-1.209,1.084-3.084,0.981-4.168-0.227l-4.815-5.369c-1.084-1.209-0.981-3.084,0.227-4.168l0.447-0.401L213.411,73.652z"/>
	</g>
	<g>
		<path fill="#A2A3D1" stroke="#2F5CAA" stroke-width="0.3886" stroke-miterlimit="10" d="M215.346,72.316
			c1.03-0.513,2.293-0.09,2.806,0.941c0.513,1.03,0.09,2.293-0.941,2.806l2.047,4.112l0.538-0.268
			c1.453-0.723,2.05-2.504,1.327-3.957l-3.214-6.456c-0.723-1.453-2.504-2.05-3.957-1.326l-0.538,0.268L215.346,72.316z"/>
	</g>
</g>
<g>
	<g>
		<g>
			<path fill="#6F78B9" d="M234.959,37.477l0.754,4.27c-1.133,0.2-1.897,1.291-1.697,2.425c0.2,1.133,1.291,1.897,2.425,1.697
				l0.795,4.505l0.432-4.573c1.146,0.108,2.172-0.741,2.28-1.886c0.108-1.146-0.741-2.172-1.886-2.28l0.408-4.317
				C236.837,40.055,234.959,37.477,234.959,37.477z"/>
		</g>
	</g>
	<g>
		<path fill="#A2A3D1" stroke="#2F5CAA" stroke-width="0.3886" stroke-miterlimit="10" d="M235.757,41.729
			c-1.133,0.2-1.897,1.291-1.697,2.425c0.2,1.133,1.291,1.897,2.425,1.697l0.798,4.523l-0.592,0.104
			c-1.599,0.282-3.137-0.795-3.419-2.393l-1.254-7.102c-0.282-1.599,0.795-3.137,2.393-3.419l0.592-0.104L235.757,41.729z"/>
	</g>
	<g>
		<path fill="#A2A3D1" stroke="#2F5CAA" stroke-width="0.3886" stroke-miterlimit="10" d="M238.107,41.616
			c1.146,0.108,1.995,1.135,1.886,2.28c-0.108,1.146-1.135,1.995-2.28,1.886l-0.432,4.573l0.598,0.057
			c1.616,0.153,3.063-1.044,3.216-2.66l0.679-7.18c0.153-1.616-1.044-3.063-2.66-3.216l-0.598-0.057L238.107,41.616z"/>
	</g>
</g>
<g>
	<g>
		<g>
			<path fill="#6F78B9" d="M261.656,50.279l-0.754-4.27c1.133-0.2,1.897-1.291,1.697-2.425s-1.291-1.897-2.425-1.697l-0.795-4.505
				l-0.432,4.573c-1.146-0.108-2.172,0.741-2.28,1.886c-0.108,1.146,0.741,2.172,1.886,2.28l-0.408,4.317
				C259.779,47.701,261.656,50.279,261.656,50.279z"/>
		</g>
	</g>
	<g>
		<path fill="#A2A3D1" stroke="#2F5CAA" stroke-width="0.3886" stroke-miterlimit="10" d="M260.858,46.027
			c1.133-0.2,1.897-1.291,1.697-2.425s-1.291-1.897-2.425-1.697l-0.798-4.523l0.592-0.104c1.599-0.282,3.137,0.795,3.419,2.393
			l1.254,7.102c0.282,1.599-0.795,3.137-2.393,3.419l-0.592,0.104L260.858,46.027z"/>
	</g>
	<g>
		<path fill="#A2A3D1" stroke="#2F5CAA" stroke-width="0.3886" stroke-miterlimit="10" d="M258.509,46.14
			c-1.146-0.108-1.995-1.135-1.886-2.28c0.108-1.146,1.135-1.995,2.28-1.886l0.432-4.573l-0.598-0.057
			c-1.616-0.153-3.063,1.044-3.216,2.66l-0.679,7.18c-0.153,1.616,1.044,3.063,2.66,3.216l0.598,0.057L258.509,46.14z"/>
	</g>
</g>
<circle fill="#DA1C5C" cx="229.183" cy="29.4" r="1.966"/>
<circle fill="#DA1C5C" cx="234.628" cy="15.69" r="1.966"/>
<circle fill="#DA1C5C" cx="241.787" cy="15.295" r="1.966"/>
<circle fill="#DA1C5C" cx="225.25" cy="17.261" r="1.966"/>
<circle fill="#DA1C5C" cx="252.863" cy="25.129" r="1.966"/>
<circle fill="#DA1C5C" cx="245.719" cy="31.366" r="1.966"/>
<circle fill="#DA1C5C" cx="237.28" cy="43.765" r="1.966"/>
<circle fill="#DA1C5C" cx="259.645" cy="43.991" r="1.966"/>
<circle fill="#DA1C5C" cx="254.692" cy="63.234" r="1.966"/>
<circle fill="#DA1C5C" cx="266.608" cy="64.358" r="1.966"/>
<circle fill="#DA1C5C" cx="261.611" cy="72.368" r="1.966"/>
<g>
	<g>
		<path fill="#E2F3F4" stroke="#A1C4CD" stroke-width="2.2892" stroke-miterlimit="10" d="M227.288,164.932
			c-12.357,0-22.41-9.576-22.41-21.346c0-11.77,10.053-21.346,22.41-21.346c12.357,0,22.41,9.576,22.41,21.346
			C249.698,155.357,239.645,164.932,227.288,164.932z M227.288,126.596c-9.955,0-18.054,7.622-18.054,16.99
			s8.099,16.99,18.054,16.99c9.955,0,18.054-7.622,18.054-16.99S237.243,126.596,227.288,126.596z"/>
	</g>
	<g>
		<g>
			<g>
				<path fill="#6F78B9" d="M231.846,155.568l2.315,3.666c-0.973,0.615-1.267,1.914-0.652,2.887s1.914,1.267,2.887,0.652
					l2.442,3.868l-1.332-4.396c1.102-0.334,1.73-1.508,1.396-2.61c-0.334-1.102-1.508-1.73-2.61-1.396l-1.257-4.149
					C234.56,157.243,231.846,155.568,231.846,155.568z"/>
			</g>
		</g>
		<g>
			<path fill="#A2A3D1" stroke="#2F5CAA" stroke-width="0.3886" stroke-miterlimit="10" d="M234.195,159.201
				c-0.973,0.615-1.267,1.914-0.652,2.887c0.615,0.973,1.914,1.267,2.887,0.652l2.452,3.884l-0.508,0.321
				c-1.372,0.867-3.205,0.453-4.071-0.92l-3.85-6.098c-0.867-1.373-0.453-3.205,0.92-4.071l0.508-0.321L234.195,159.201z"/>
		</g>
		<g>
			<path fill="#A2A3D1" stroke="#2F5CAA" stroke-width="0.3886" stroke-miterlimit="10" d="M236.326,158.206
				c1.102-0.334,2.276,0.294,2.61,1.396c0.334,1.102-0.294,2.276-1.396,2.61l1.332,4.396l0.575-0.174
				c1.553-0.471,2.439-2.127,1.969-3.68l-2.091-6.902c-0.471-1.553-2.127-2.439-3.68-1.969l-0.575,0.174L236.326,158.206z"/>
		</g>
	</g>
	<g>
		<g>
			<g>
				<path fill="#6F78B9" d="M239.035,136.847l3.197-2.929c0.778,0.849,2.108,0.907,2.957,0.129c0.849-0.778,0.907-2.108,0.129-2.957
					l3.373-3.09l-4.089,2.092c-0.524-1.025-1.791-1.434-2.816-0.91c-1.025,0.524-1.434,1.791-0.91,2.816l-3.86,1.974
					C240.202,133.878,239.035,136.847,239.035,136.847z"/>
			</g>
		</g>
		<g>
			<path fill="#A2A3D1" stroke="#2F5CAA" stroke-width="0.3886" stroke-miterlimit="10" d="M242.193,133.889
				c0.778,0.849,2.108,0.907,2.957,0.129c0.849-0.778,0.907-2.108,0.129-2.957l3.387-3.103l0.406,0.443
				c1.097,1.197,1.015,3.073-0.182,4.17l-5.317,4.872c-1.197,1.097-3.073,1.015-4.17-0.182l-0.406-0.443L242.193,133.889z"/>
		</g>
		<g>
			<path fill="#A2A3D1" stroke="#2F5CAA" stroke-width="0.3886" stroke-miterlimit="10" d="M240.836,131.969
				c-0.524-1.025-0.114-2.292,0.91-2.816s2.292-0.114,2.816,0.91l4.09-2.092l-0.274-0.535c-0.739-1.445-2.526-2.023-3.971-1.284
				l-6.421,3.284c-1.445,0.739-2.023,2.526-1.284,3.971l0.274,0.535L240.836,131.969z"/>
		</g>
	</g>
	<g>
		<g>
			<g>
				<path fill="#6F78B9" d="M214.009,140.916h-4.336c0-1.151-0.942-2.093-2.093-2.093c-1.151,0-2.093,0.942-2.093,2.093h-4.574
					l4.428,1.221c-0.306,1.11,0.352,2.268,1.461,2.574c1.11,0.306,2.268-0.352,2.574-1.461l4.18,1.152
					C211.143,142.317,214.009,140.916,214.009,140.916z"/>
			</g>
		</g>
		<g>
			<path fill="#A2A3D1" stroke="#2F5CAA" stroke-width="0.3886" stroke-miterlimit="10" d="M209.683,140.963
				c0-1.151-0.942-2.093-2.093-2.093c-1.151,0-2.093,0.942-2.093,2.093h-4.593v-0.601c0-1.623,1.328-2.951,2.951-2.951h7.212
				c1.623,0,2.951,1.328,2.951,2.951v0.601H209.683z"/>
		</g>
		<g>
			<path fill="#A2A3D1" stroke="#2F5CAA" stroke-width="0.3886" stroke-miterlimit="10" d="M209.386,143.296
				c-0.306,1.11-1.464,1.767-2.574,1.461c-1.11-0.306-1.767-1.464-1.461-2.574l-4.428-1.221l-0.16,0.579
				c-0.431,1.565,0.496,3.198,2.061,3.63l6.953,1.917c1.565,0.431,3.198-0.496,3.63-2.061l0.16-0.579L209.386,143.296z"/>
		</g>
	</g>
	<g>
		<g>
			<path d="M246.346,164.777c-0.538,0-0.954-0.141-1.248-0.424c-0.295-0.282-0.442-0.724-0.442-1.322v-0.108
				c0-0.321,0.047-0.602,0.139-0.84c0.093-0.238,0.221-0.424,0.386-0.558c0.164-0.134,0.346-0.23,0.544-0.293
				c0.199-0.062,0.418-0.092,0.658-0.092c0.384,0,0.705,0.068,0.966,0.205v0.504c-0.298-0.131-0.615-0.195-0.95-0.195
				c-0.716,0-1.074,0.405-1.074,1.218v0.159c0,0.403,0.073,0.713,0.219,0.927s0.411,0.321,0.799,0.321
				c0.198,0,0.378-0.025,0.539-0.077V163.4h-0.652v-0.473h1.269v1.634C247.141,164.706,246.757,164.777,246.346,164.777z"/>
			<path d="M248.221,164.721v-3.523h0.631v3.025h1.49v0.498H248.221z"/>
			<path d="M253.289,164.462c-0.217,0.214-0.552,0.32-1.004,0.32s-0.797-0.107-1.032-0.323c-0.236-0.216-0.354-0.539-0.354-0.971
				v-2.291h0.642v2.25c0,0.312,0.062,0.532,0.188,0.662c0.125,0.131,0.319,0.195,0.583,0.195c0.257,0,0.444-0.064,0.562-0.192
				c0.118-0.129,0.178-0.351,0.178-0.665v-2.25h0.564v2.271C253.615,163.916,253.506,164.248,253.289,164.462z"/>
			<path d="M255.161,164.721v-3.025h-1.012v-0.498h2.646v0.498h-1.002v3.025H255.161z"/>
			<path d="M257.226,163.545v-0.493h1.413v0.493H257.226z"/>
			<path d="M260.617,164.777v-0.719h-1.618v-0.37l1.783-2.491h0.432v2.394h0.519v0.468h-0.519v0.719H260.617z M259.687,163.591
				h0.936v-1.325L259.687,163.591z"/>
		</g>
	</g>
</g>
<g>
	<g>
		<path d="M182.368,212.481v-3.523h2.199v0.498H183v0.966h1.218v0.493H183v1.068h1.598v0.498H182.368z"/>
		<path d="M185.003,212.481l0.863-1.355l-0.817-1.29h0.684l0.56,0.915l0.509-0.915h0.611l-0.78,1.284l0.853,1.361h-0.693
			l-0.581-0.96l-0.591,0.96H185.003z"/>
		<path d="M189.041,212.527c-0.4,0-0.709-0.116-0.927-0.347c-0.218-0.231-0.326-0.555-0.326-0.969v-0.082
			c0-0.418,0.114-0.746,0.344-0.984c0.229-0.237,0.534-0.356,0.915-0.356c0.397,0,0.704,0.115,0.922,0.347s0.326,0.558,0.326,0.979
			v0.072c0,0.418-0.114,0.745-0.344,0.983S189.418,212.527,189.041,212.527z M189.051,212.08c0.418,0,0.627-0.281,0.627-0.843
			v-0.128c0-0.322-0.058-0.548-0.172-0.679c-0.115-0.13-0.271-0.195-0.471-0.195c-0.205,0-0.363,0.072-0.475,0.216
			c-0.111,0.145-0.167,0.356-0.167,0.638v0.123c0,0.318,0.058,0.543,0.175,0.673C188.685,212.015,188.846,212.08,189.051,212.08z"/>
		<path d="M191.954,212.527c-0.396,0-0.707-0.111-0.93-0.334s-0.334-0.548-0.334-0.977v-0.082c0-0.438,0.119-0.772,0.357-1.002
			s0.549-0.344,0.933-0.344c0.291,0,0.534,0.053,0.729,0.159v0.462c-0.243-0.096-0.475-0.144-0.693-0.144
			c-0.223,0-0.397,0.069-0.524,0.208s-0.19,0.338-0.19,0.599v0.118c0,0.298,0.062,0.517,0.186,0.655s0.313,0.208,0.57,0.208
			c0.216,0,0.441-0.055,0.678-0.165v0.432C192.519,212.459,192.259,212.527,191.954,212.527z"/>
		<path d="M193.551,213.241c-0.168,0-0.296-0.029-0.385-0.088v-0.396c0.075,0.018,0.161,0.026,0.257,0.026
			c0.13,0,0.233-0.022,0.311-0.067c0.077-0.044,0.138-0.126,0.183-0.246l0.071-0.186l-0.996-2.45h0.627l0.668,1.716h0.021
			l0.616-1.716h0.57l-1.022,2.718c-0.086,0.25-0.198,0.427-0.339,0.531S193.798,213.241,193.551,213.241z"/>
		<path d="M196.844,212.512c-0.5,0-0.75-0.228-0.75-0.684v-1.53h-0.369v-0.463h0.369v-0.621h0.581v0.621h0.632v0.463h-0.632v1.448
			c0,0.113,0.025,0.192,0.077,0.236c0.051,0.045,0.146,0.066,0.282,0.066c0.103,0,0.204-0.014,0.303-0.041v0.396
			C197.194,212.476,197.03,212.512,196.844,212.512z"/>
		<path d="M198.981,212.527c-0.4,0-0.709-0.116-0.927-0.347c-0.218-0.231-0.326-0.555-0.326-0.969v-0.082
			c0-0.418,0.114-0.746,0.344-0.984c0.229-0.237,0.534-0.356,0.915-0.356c0.397,0,0.704,0.115,0.922,0.347s0.326,0.558,0.326,0.979
			v0.072c0,0.418-0.114,0.745-0.344,0.983S199.358,212.527,198.981,212.527z M198.992,212.08c0.418,0,0.627-0.281,0.627-0.843
			v-0.128c0-0.322-0.058-0.548-0.172-0.679c-0.115-0.13-0.271-0.195-0.471-0.195c-0.205,0-0.363,0.072-0.475,0.216
			c-0.111,0.145-0.167,0.356-0.167,0.638v0.123c0,0.318,0.058,0.543,0.175,0.673C198.626,212.015,198.787,212.08,198.992,212.08z"/>
		<path d="M201.504,212.522c-0.36,0-0.651-0.06-0.874-0.18v-0.432c0.277,0.11,0.54,0.165,0.786,0.165
			c0.35,0,0.524-0.106,0.524-0.318c0-0.097-0.029-0.17-0.088-0.222c-0.058-0.051-0.159-0.092-0.303-0.123l-0.246-0.057
			c-0.216-0.044-0.383-0.126-0.499-0.244s-0.175-0.29-0.175-0.516c0-0.25,0.083-0.446,0.247-0.589
			c0.164-0.142,0.409-0.213,0.734-0.213c0.291,0,0.545,0.048,0.761,0.144v0.447c-0.223-0.096-0.459-0.144-0.709-0.144
			c-0.315,0-0.473,0.103-0.473,0.308c0,0.09,0.026,0.156,0.079,0.201c0.054,0.044,0.145,0.082,0.275,0.112l0.252,0.057
			c0.26,0.059,0.444,0.146,0.555,0.265c0.109,0.118,0.164,0.29,0.164,0.517c0,0.271-0.087,0.475-0.26,0.613
			S201.833,212.522,201.504,212.522z"/>
		<path d="M203.076,209.399v-0.539h0.601v0.539H203.076z M203.076,212.481v-2.646h0.596v2.646H203.076z"/>
		<path d="M205.11,212.522c-0.359,0-0.65-0.06-0.873-0.18v-0.432c0.277,0.11,0.539,0.165,0.786,0.165
			c0.349,0,0.523-0.106,0.523-0.318c0-0.097-0.028-0.17-0.087-0.222c-0.059-0.051-0.159-0.092-0.303-0.123l-0.247-0.057
			c-0.216-0.044-0.382-0.126-0.498-0.244s-0.175-0.29-0.175-0.516c0-0.25,0.082-0.446,0.246-0.589
			c0.165-0.142,0.409-0.213,0.735-0.213c0.291,0,0.544,0.048,0.76,0.144v0.447c-0.223-0.096-0.459-0.144-0.709-0.144
			c-0.314,0-0.473,0.103-0.473,0.308c0,0.09,0.026,0.156,0.08,0.201c0.053,0.044,0.145,0.082,0.274,0.112l0.252,0.057
			c0.261,0.059,0.445,0.146,0.555,0.265s0.165,0.29,0.165,0.517c0,0.271-0.087,0.475-0.26,0.613S205.439,212.522,205.11,212.522z"/>
	</g>
</g>
<g>
	<g>
		<path fill="#2E3192" d="M100.858,41.074c0.708,0.073,0.928-0.194,0.97-0.251c0.179-0.238,0.028-0.684-0.277-1.561
			c-0.253-0.73-0.38-1.095-0.598-1.369c-0.394-0.495-0.681-0.48-0.848-0.925c-0.138-0.369-0.073-0.732-0.019-1.041
			c0.078-0.444,0.184-0.458,0.328-0.983c0.123-0.449,0.242-0.887,0.096-1.369c-0.032-0.106-0.22-0.726-0.617-0.81
			c-0.614-0.129-1.305,1.121-1.388,1.272c-0.905,1.639-0.398,3.379-0.347,3.547c0.129,0.421,0.465,1.516,1.523,2.197
			c0.405,0.261,0.794,0.382,1.06,0.443"/>
		<path fill="#FFF200" d="M99.389,40.38c-0.433,0.294-0.466,1.06-0.034,4.607c0.2,1.646,0.329,2.48-0.193,2.969
			c-0.347,0.325-0.609,0.149-1.253,0.443c-0.795,0.363-1.82,1.283-1.908,2.602c-0.101,1.504,1.086,2.466,1.137,2.506
			c0.772,0.604,1.908,0.864,2.853,0.443c0.583-0.259,1.299-0.868,1.195-1.369c-0.137-0.664-1.631-0.715-1.638-1.234
			c-0.003-0.189,0.223-0.357,0.675-0.694c0.641-0.478,1.02-0.539,1.06-0.829c0.027-0.192-0.128-0.24-0.289-0.578
			c-0.229-0.481-0.113-0.797-0.167-1.482c-0.046-0.591-0.177-0.925-0.257-1.255c-0.527-2.178,0.88-5.412-0.154-6.13
			C100.121,40.176,99.66,40.196,99.389,40.38z"/>
	</g>
	<g>
		<path fill="#2E3192" d="M102.952,40.919c-0.708,0.073-0.928-0.194-0.97-0.251c-0.179-0.238-0.028-0.684,0.277-1.561
			c0.253-0.73,0.38-1.095,0.598-1.369c0.394-0.495,0.681-0.48,0.848-0.925c0.138-0.369,0.073-0.732,0.019-1.041
			c-0.078-0.444-0.184-0.458-0.328-0.983c-0.123-0.449-0.242-0.887-0.096-1.369c0.032-0.106,0.22-0.727,0.617-0.81
			c0.614-0.129,1.305,1.121,1.388,1.272c0.905,1.639,0.398,3.379,0.347,3.547c-0.129,0.421-0.465,1.516-1.523,2.197
			c-0.405,0.261-0.794,0.382-1.06,0.443"/>
		<path fill="#FFF200" d="M104.421,40.225c0.433,0.294,0.466,1.06,0.034,4.607c-0.2,1.646-0.329,2.48,0.193,2.969
			c0.347,0.325,0.609,0.149,1.253,0.443c0.795,0.363,1.82,1.283,1.908,2.602c0.101,1.504-1.086,2.466-1.137,2.506
			c-0.772,0.604-1.908,0.864-2.853,0.443c-0.583-0.259-1.299-0.868-1.195-1.369c0.137-0.664,1.631-0.715,1.638-1.234
			c0.003-0.189-0.223-0.357-0.675-0.694c-0.641-0.478-1.02-0.539-1.06-0.829c-0.027-0.192,0.128-0.24,0.289-0.578
			c0.229-0.481,0.113-0.797,0.167-1.482c0.046-0.591,0.177-0.925,0.257-1.255c0.527-2.178-0.88-5.412,0.154-6.13
			C103.689,40.021,104.15,40.041,104.421,40.225z"/>
	</g>
</g>
<circle fill="#00A651" cx="86.887" cy="35.253" r="2.651"/>
<circle fill="#00A651" cx="95.994" cy="26.364" r="2.651"/>
<circle fill="#00A651" cx="107.816" cy="26.364" r="2.651"/>
<circle fill="#00A651" cx="113.119" cy="16.53" r="2.651"/>
<circle fill="#00A651" cx="101.905" cy="34.568" r="2.651"/>
<g>
	<path d="M118.623,15.794c0-0.329,0.114-0.599,0.342-0.812c0.228-0.212,0.526-0.319,0.896-0.319c0.373,0,0.673,0.106,0.899,0.319
		s0.339,0.483,0.339,0.812c0,0.332-0.113,0.603-0.339,0.812c-0.226,0.209-0.526,0.313-0.899,0.313c-0.374,0-0.673-0.104-0.899-0.313
		C118.736,16.397,118.623,16.126,118.623,15.794z M122.363,18.779h-3.175v-1.464h0.606v0.992h2.569V18.779z M119.239,15.794
		c0,0.185,0.056,0.336,0.169,0.455c0.113,0.118,0.264,0.177,0.452,0.177c0.195,0,0.348-0.059,0.459-0.177s0.167-0.27,0.167-0.455
		c0-0.178-0.056-0.325-0.169-0.442c-0.113-0.116-0.265-0.175-0.457-0.175c-0.188,0-0.339,0.059-0.452,0.175
		C119.295,15.469,119.239,15.616,119.239,15.794z M122.26,17.644h-0.596v-3.319h0.596V17.644z"/>
	<path d="M126.673,18.881h-3.221v-1.141h2.461V17.51h-2.492v-0.478h0.544v-0.35h-1.042v-0.457h4.135v0.457h-1.053v0.35h0.509v1.13
		h-2.466v0.231h2.625V18.881z M124.993,15.095c-0.117,0.243-0.33,0.451-0.64,0.624c-0.31,0.173-0.642,0.285-0.994,0.337
		l-0.247-0.458c0.264-0.027,0.512-0.089,0.745-0.185c0.233-0.096,0.429-0.229,0.588-0.4s0.239-0.361,0.239-0.57v-0.062h0.622v0.062
		c0,0.209,0.087,0.402,0.262,0.581s0.38,0.315,0.616,0.411c0.236,0.096,0.469,0.151,0.699,0.165l-0.257,0.462
		c-0.325-0.048-0.65-0.163-0.976-0.344C125.325,15.535,125.106,15.328,124.993,15.095z M124.566,16.683v0.35h0.833v-0.35H124.566z"
		/>
	<path d="M130.053,16.493l0.057,0.457c-0.185,0.048-0.465,0.086-0.84,0.116s-0.727,0.043-1.056,0.043c-0.072,0-0.176,0-0.311-0.002
		c-0.135-0.001-0.237-0.002-0.306-0.002v-1.49h1.459v-0.493h-1.469v-0.478h2.076v1.423h-1.464v0.565
		C129.103,16.631,129.721,16.585,130.053,16.493z M131.265,18.804h-3.169v-1.372h0.606v0.894h2.563V18.804z M131.147,17.644h-0.601
		v-3.319h0.601V17.644z"/>
</g>
<g>
	<path d="M8.011,27.823H6.234v0.293c0.424,0.027,0.754,0.114,0.989,0.259s0.352,0.333,0.352,0.562c0,0.257-0.143,0.458-0.429,0.604
		c-0.286,0.146-0.688,0.218-1.205,0.218c-0.514,0-0.914-0.073-1.2-0.218c-0.286-0.146-0.429-0.347-0.429-0.604
		c0-0.229,0.116-0.417,0.347-0.562c0.231-0.146,0.556-0.232,0.974-0.259v-0.293H3.876V27.34h4.135V27.823z M7.801,26.698
		l-0.257,0.478c-0.336-0.027-0.653-0.122-0.953-0.282c-0.3-0.161-0.516-0.351-0.65-0.57c-0.116,0.226-0.321,0.417-0.614,0.573
		s-0.621,0.249-0.984,0.28c-0.031-0.062-0.076-0.147-0.136-0.257c-0.06-0.109-0.098-0.18-0.115-0.21
		c0.366-0.017,0.688-0.096,0.963-0.236c0.276-0.141,0.453-0.324,0.532-0.55H4.302v-0.478H7.6v0.478H6.311
		c0.089,0.219,0.278,0.4,0.567,0.542S7.475,26.684,7.801,26.698z M6.963,28.943c0-0.113-0.093-0.201-0.277-0.265
		c-0.185-0.063-0.435-0.095-0.75-0.095c-0.312,0-0.559,0.032-0.74,0.095c-0.182,0.063-0.272,0.151-0.272,0.265
		c0,0.109,0.091,0.195,0.272,0.257c0.181,0.062,0.428,0.092,0.74,0.092c0.315,0,0.565-0.031,0.75-0.092
		C6.871,29.138,6.963,29.052,6.963,28.943z"/>
	<path d="M11.058,27.258l-0.344,0.467c-0.188-0.075-0.382-0.199-0.58-0.373c-0.199-0.173-0.344-0.358-0.437-0.557
		c-0.065,0.226-0.203,0.438-0.414,0.634c-0.21,0.197-0.427,0.333-0.65,0.409L8.273,27.36c0.339-0.123,0.608-0.314,0.807-0.573
		c0.198-0.258,0.298-0.557,0.298-0.896v-0.452H10v0.421c0,0.335,0.104,0.628,0.311,0.878C10.518,26.989,10.767,27.162,11.058,27.258
		z M12.137,28.881c0,0.281-0.139,0.504-0.416,0.67c-0.278,0.166-0.665,0.25-1.161,0.25c-0.486,0-0.868-0.083-1.143-0.25
		c-0.276-0.166-0.414-0.389-0.414-0.67c0-0.288,0.137-0.514,0.411-0.681c0.274-0.166,0.656-0.249,1.146-0.249
		c0.497,0,0.883,0.083,1.161,0.249C11.998,28.367,12.137,28.593,12.137,28.881z M10.56,28.434c-0.295,0-0.525,0.04-0.691,0.118
		c-0.167,0.079-0.25,0.188-0.25,0.329c0,0.137,0.083,0.244,0.25,0.321c0.166,0.077,0.396,0.116,0.691,0.116
		c0.305,0,0.54-0.039,0.706-0.116c0.167-0.077,0.25-0.184,0.25-0.321c0-0.14-0.083-0.25-0.25-0.329
		C11.1,28.474,10.864,28.434,10.56,28.434z M12.106,27.9h-0.601v-1.243h-0.781v-0.478h0.781v-0.95h0.601V27.9z"/>
	<path d="M15.625,28.249l-0.334,0.468c-0.212-0.106-0.433-0.284-0.66-0.534c-0.228-0.25-0.376-0.481-0.444-0.694
		c-0.055,0.24-0.188,0.491-0.398,0.753c-0.211,0.262-0.446,0.456-0.707,0.583l-0.36-0.447c0.764-0.407,1.146-1.101,1.146-2.081
		v-0.123h-0.915v-0.478h2.43v0.478H14.5v0.118C14.5,27.21,14.875,27.862,15.625,28.249z M16.549,29.806h-0.601v-4.577h0.601V29.806z
		"/>
	<path d="M19.488,27.592H17.32v-2.106h0.596v0.622h0.965v-0.632h0.606V27.592z M20.839,28.881c0,0.285-0.139,0.51-0.416,0.676
		s-0.663,0.249-1.156,0.249c-0.49,0-0.874-0.083-1.151-0.249S17.7,29.166,17.7,28.881c0-0.288,0.139-0.514,0.416-0.681
		c0.277-0.166,0.661-0.249,1.151-0.249c0.496,0,0.882,0.082,1.158,0.247S20.839,28.59,20.839,28.881z M18.881,27.114v-0.54h-0.965
		v0.54H18.881z M19.267,28.429c-0.298,0-0.53,0.04-0.696,0.121s-0.249,0.191-0.249,0.331c0,0.137,0.083,0.245,0.249,0.324
		c0.166,0.079,0.398,0.118,0.696,0.118c0.301,0,0.536-0.039,0.704-0.118c0.168-0.079,0.251-0.187,0.251-0.324
		c0-0.14-0.083-0.25-0.251-0.331S19.568,28.429,19.267,28.429z M21.435,26.811h-0.647v1.094h-0.611v-2.676h0.611v1.089h0.647V26.811
		z"/>
</g>
<g>
	<path d="M34.776,30.207h-0.601v-1.526h-0.971v-0.478h4.135v0.478h-0.991v1.526h-0.601v-1.526h-0.971V30.207z M36.893,26.857
		c0,0.305-0.148,0.55-0.444,0.737c-0.296,0.187-0.691,0.28-1.184,0.28c-0.49,0-0.883-0.093-1.179-0.28
		c-0.296-0.187-0.444-0.433-0.444-0.737c0-0.301,0.148-0.545,0.444-0.732c0.296-0.187,0.689-0.28,1.179-0.28
		c0.493,0,0.888,0.093,1.184,0.28C36.744,26.312,36.893,26.556,36.893,26.857z M35.991,27.24c0.183-0.101,0.275-0.229,0.275-0.383
		s-0.091-0.281-0.272-0.38c-0.182-0.099-0.425-0.149-0.729-0.149c-0.305,0-0.548,0.05-0.729,0.149
		c-0.182,0.1-0.272,0.226-0.272,0.38s0.091,0.282,0.272,0.383c0.181,0.101,0.424,0.151,0.729,0.151
		C35.565,27.391,35.808,27.341,35.991,27.24z"/>
	<path d="M40.432,28.537l0.067,0.478c-0.49,0.099-1.194,0.149-2.111,0.149h-0.483v-1.901h1.484v-0.76h-1.505v-0.478h2.111v1.716
		h-1.495v0.93C39.305,28.67,39.949,28.626,40.432,28.537z M40.833,25.634h0.596v4.577h-0.596V25.634z"/>
	<path d="M44.953,28.655l-0.334,0.468c-0.212-0.106-0.433-0.284-0.66-0.534c-0.228-0.25-0.376-0.481-0.444-0.694
		c-0.055,0.24-0.188,0.491-0.398,0.753c-0.211,0.262-0.446,0.456-0.707,0.583l-0.36-0.447c0.764-0.407,1.146-1.101,1.146-2.081
		V26.58h-0.915v-0.478h2.43v0.478h-0.883v0.118C43.828,27.616,44.203,28.268,44.953,28.655z M45.877,30.212h-0.601v-4.577h0.601
		V30.212z"/>
	<path d="M48.816,27.998h-2.168v-2.106h0.596v0.622h0.965v-0.632h0.606V27.998z M50.167,29.287c0,0.285-0.139,0.51-0.416,0.676
		s-0.663,0.249-1.156,0.249c-0.49,0-0.874-0.083-1.151-0.249s-0.416-0.391-0.416-0.676c0-0.288,0.139-0.514,0.416-0.681
		c0.277-0.166,0.661-0.249,1.151-0.249c0.496,0,0.882,0.082,1.158,0.247S50.167,28.996,50.167,29.287z M48.21,27.52v-0.54h-0.965
		v0.54H48.21z M48.595,28.835c-0.298,0-0.53,0.04-0.696,0.121s-0.249,0.191-0.249,0.331c0,0.137,0.083,0.245,0.249,0.324
		c0.166,0.079,0.398,0.118,0.696,0.118c0.301,0,0.536-0.039,0.704-0.118c0.168-0.079,0.251-0.187,0.251-0.324
		c0-0.14-0.083-0.25-0.251-0.331S48.897,28.835,48.595,28.835z M50.763,27.216h-0.647v1.094h-0.611v-2.676h0.611v1.089h0.647V27.216
		z"/>
	<path d="M53.645,27.797L53.3,28.265c-0.182-0.072-0.374-0.201-0.578-0.388c-0.204-0.187-0.352-0.381-0.445-0.583
		c-0.068,0.226-0.205,0.444-0.411,0.655c-0.206,0.21-0.418,0.358-0.637,0.444l-0.359-0.473c0.332-0.12,0.598-0.321,0.796-0.604
		c0.199-0.283,0.298-0.597,0.298-0.943v-0.483h0.616v0.452c0,0.339,0.106,0.643,0.319,0.912
		C53.112,27.524,53.36,27.705,53.645,27.797z M54.672,30.093h-3.026v-1.484h0.601v1.012h2.425V30.093z M54.559,25.634v1.31h0.652
		v0.498h-0.652v1.511h-0.601v-3.319H54.559z"/>
</g>
<g>
	<path d="M21.851,56.406v-3.524h2.163v0.499h-1.531v1.053h1.192v0.488h-1.192v1.485H21.851z"/>
	<path d="M25.236,56.452c-0.247,0-0.444-0.063-0.591-0.19c-0.147-0.126-0.221-0.313-0.221-0.56c0-0.445,0.283-0.709,0.848-0.791
		l0.622-0.072v-0.201c0-0.174-0.043-0.292-0.131-0.352s-0.246-0.09-0.475-0.09c-0.216,0-0.43,0.024-0.642,0.072v-0.406
		c0.243-0.096,0.534-0.144,0.873-0.144c0.644,0,0.966,0.262,0.966,0.786v1.901h-0.488L25.95,56.19h-0.031
		C25.769,56.364,25.541,56.452,25.236,56.452z M25.416,56.036c0.206,0,0.365-0.053,0.478-0.159v-0.652l-0.488,0.051
		c-0.134,0.01-0.234,0.046-0.301,0.108c-0.066,0.062-0.1,0.158-0.1,0.288c0,0.12,0.037,0.21,0.11,0.272
		C25.189,56.005,25.289,56.036,25.416,56.036z"/>
	<path d="M28.077,56.437c-0.5,0-0.75-0.228-0.75-0.684v-1.531h-0.37V53.76h0.37v-0.622h0.581v0.622h0.632v0.462h-0.632v1.449
		c0,0.113,0.026,0.192,0.077,0.236s0.146,0.067,0.282,0.067c0.103,0,0.204-0.014,0.303-0.041v0.396
		C28.426,56.4,28.262,56.437,28.077,56.437z"/>
	<path d="M30.014,56.437c-0.5,0-0.75-0.228-0.75-0.684v-1.531h-0.37V53.76h0.37v-0.622h0.581v0.622h0.632v0.462h-0.632v1.449
		c0,0.113,0.026,0.192,0.077,0.236s0.146,0.067,0.282,0.067c0.103,0,0.204-0.014,0.303-0.041v0.396
		C30.363,56.4,30.199,56.437,30.014,56.437z"/>
	<path d="M31.349,57.166c-0.168,0-0.296-0.029-0.385-0.087v-0.396c0.075,0.017,0.161,0.025,0.257,0.025
		c0.13,0,0.234-0.022,0.311-0.066c0.077-0.044,0.138-0.127,0.182-0.247l0.072-0.185l-0.997-2.451h0.627l0.668,1.716h0.021
		l0.616-1.716h0.57l-1.022,2.718c-0.085,0.25-0.198,0.427-0.339,0.532S31.596,57.166,31.349,57.166z"/>
	<path d="M35.752,56.452c-0.247,0-0.444-0.063-0.591-0.19c-0.147-0.126-0.221-0.313-0.221-0.56c0-0.445,0.283-0.709,0.848-0.791
		l0.622-0.072v-0.201c0-0.174-0.043-0.292-0.131-0.352s-0.246-0.09-0.475-0.09c-0.216,0-0.43,0.024-0.642,0.072v-0.406
		c0.243-0.096,0.534-0.144,0.873-0.144c0.644,0,0.966,0.262,0.966,0.786v1.901h-0.488l-0.046-0.216h-0.031
		C36.284,56.364,36.057,56.452,35.752,56.452z M35.932,56.036c0.206,0,0.365-0.053,0.478-0.159v-0.652l-0.488,0.051
		c-0.134,0.01-0.234,0.046-0.301,0.108c-0.066,0.062-0.1,0.158-0.1,0.288c0,0.12,0.037,0.21,0.11,0.272
		C35.705,56.005,35.805,56.036,35.932,56.036z"/>
	<path d="M38.803,56.452c-0.397,0-0.707-0.111-0.93-0.334c-0.223-0.222-0.334-0.548-0.334-0.976V55.06
		c0-0.438,0.119-0.772,0.357-1.001c0.238-0.229,0.548-0.344,0.932-0.344c0.291,0,0.534,0.053,0.729,0.159v0.462
		c-0.243-0.096-0.474-0.144-0.693-0.144c-0.223,0-0.397,0.069-0.524,0.208c-0.127,0.139-0.19,0.338-0.19,0.599v0.118
		c0,0.298,0.062,0.516,0.185,0.655c0.124,0.139,0.313,0.208,0.57,0.208c0.216,0,0.442-0.055,0.678-0.164v0.431
		C39.369,56.383,39.108,56.452,38.803,56.452z"/>
	<path d="M40.401,57.166c-0.168,0-0.296-0.029-0.385-0.087v-0.396c0.075,0.017,0.161,0.025,0.257,0.025
		c0.13,0,0.234-0.022,0.311-0.066c0.077-0.044,0.138-0.127,0.182-0.247l0.072-0.185l-0.997-2.451h0.627l0.668,1.716h0.021
		l0.616-1.716h0.57l-1.022,2.718c-0.085,0.25-0.198,0.427-0.339,0.532S40.647,57.166,40.401,57.166z"/>
	<path d="M42.8,56.406V52.65h0.596v3.755H42.8z"/>
	<path d="M46.935,56.462c-0.5,0-0.89-0.148-1.169-0.444c-0.279-0.296-0.418-0.735-0.418-1.317v-0.128c0-0.6,0.152-1.041,0.457-1.323
		c0.305-0.282,0.704-0.424,1.197-0.424c0.363,0,0.657,0.062,0.883,0.185v0.493c-0.277-0.109-0.557-0.164-0.837-0.164
		c-0.678,0-1.017,0.389-1.017,1.166v0.18c0,0.418,0.081,0.733,0.242,0.945c0.161,0.212,0.421,0.318,0.781,0.318
		c0.274,0,0.563-0.063,0.868-0.19v0.488C47.651,56.39,47.322,56.462,46.935,56.462z"/>
	<path d="M49.576,56.452c-0.4,0-0.709-0.115-0.927-0.347c-0.217-0.231-0.326-0.554-0.326-0.968v-0.082
		c0-0.418,0.115-0.746,0.344-0.984c0.229-0.238,0.534-0.357,0.915-0.357c0.397,0,0.705,0.115,0.922,0.347
		c0.217,0.231,0.326,0.557,0.326,0.979v0.072c0,0.418-0.115,0.746-0.344,0.984C50.256,56.333,49.953,56.452,49.576,56.452z
		 M49.586,56.005c0.418,0,0.627-0.281,0.627-0.842v-0.128c0-0.322-0.057-0.548-0.172-0.678c-0.115-0.13-0.271-0.195-0.47-0.195
		c-0.206,0-0.364,0.072-0.475,0.216c-0.111,0.144-0.167,0.356-0.167,0.637v0.124c0,0.318,0.058,0.543,0.175,0.673
		C49.22,55.94,49.381,56.005,49.586,56.005z"/>
	<path d="M51.307,55.229v-0.493h1.413v0.493H51.307z"/>
	<path d="M53.023,56.406l1.284-3.524h0.647l1.253,3.524h-0.652l-0.319-0.894h-1.31l-0.318,0.894H53.023z M54.569,53.631
		l-0.493,1.408h1.001l-0.493-1.408H54.569z"/>
	<path d="M61.936,54.633v0.473H57.8v-0.473H61.936z M61.725,53.904l-0.257,0.473c-0.336-0.027-0.653-0.122-0.953-0.283
		c-0.3-0.161-0.515-0.351-0.645-0.57c-0.113,0.226-0.317,0.417-0.611,0.573c-0.295,0.156-0.625,0.25-0.992,0.28l-0.247-0.462
		c0.366-0.017,0.688-0.097,0.963-0.239c0.275-0.142,0.453-0.326,0.532-0.552h-1.29v-0.478h3.298v0.478H60.24
		c0.085,0.223,0.273,0.404,0.562,0.544S61.399,53.887,61.725,53.904z M61.468,56.17c0,0.267-0.141,0.476-0.421,0.626
		c-0.281,0.151-0.673,0.226-1.176,0.226c-0.507,0-0.901-0.075-1.182-0.226c-0.281-0.15-0.421-0.359-0.421-0.626
		c0-0.26,0.141-0.466,0.421-0.617c0.281-0.15,0.673-0.226,1.176-0.226s0.896,0.076,1.179,0.226
		C61.327,55.704,61.468,55.909,61.468,56.17z M60.585,56.449c0.178-0.067,0.267-0.158,0.267-0.275c0-0.116-0.089-0.208-0.267-0.275
		c-0.178-0.066-0.418-0.1-0.719-0.1c-0.298,0-0.535,0.034-0.711,0.1c-0.176,0.067-0.265,0.159-0.265,0.275
		c0,0.117,0.088,0.208,0.265,0.275s0.414,0.1,0.711,0.1C60.167,56.549,60.406,56.516,60.585,56.449z"/>
	<path d="M64.617,52.912c-0.044,1.473-0.728,2.567-2.05,3.283l-0.365-0.452c0.49-0.226,0.896-0.555,1.218-0.986
		c0.322-0.431,0.503-0.88,0.544-1.346h-1.484v-0.499H64.617z M66.482,54.7h-0.663v2.322h-0.596v-4.577h0.596v1.757h0.663V54.7z"/>
</g>
<g>
	<path d="M257.153,15.125h-4.136v-0.473h1.757v-0.884h-1.377v-0.478h0.673l-0.128-1.053l0.601-0.077l0.093,1.13h0.914l0.165-1.12
		l0.58,0.098l-0.19,1.022h0.647v0.478h-1.377v0.884h1.778V15.125z M256.762,11.945h-3.375v-0.478h3.375V11.945z"/>
	<path d="M261.092,13.594h-1.274v1.058h1.778v0.473h-4.136v-0.473h1.757v-1.058h-1.223v-2.137h3.072v0.478h-2.472v1.182h2.497
		V13.594z"/>
	<path d="M262.65,13.075c0.784,0,1.387-0.046,1.808-0.139l0.067,0.462c-0.47,0.106-1.145,0.159-2.024,0.159h-0.447v-2.091h2.04
		v0.478h-1.443V13.075z M265.537,14.775c0,0.281-0.139,0.503-0.416,0.668s-0.663,0.247-1.156,0.247
		c-0.489,0-0.872-0.082-1.147-0.247c-0.276-0.165-0.414-0.387-0.414-0.668c0-0.288,0.138-0.514,0.414-0.678
		c0.275-0.165,0.658-0.247,1.147-0.247c0.497,0,0.883,0.082,1.159,0.247C265.399,14.262,265.537,14.488,265.537,14.775z
		 M264.666,15.097c0.166-0.077,0.249-0.184,0.249-0.321c0-0.137-0.083-0.245-0.249-0.323c-0.166-0.079-0.399-0.118-0.701-0.118
		c-0.298,0-0.529,0.039-0.696,0.118c-0.166,0.079-0.249,0.187-0.249,0.323c0,0.137,0.083,0.244,0.249,0.321
		c0.167,0.077,0.398,0.116,0.696,0.116C264.266,15.212,264.5,15.174,264.666,15.097z M266.127,12.726h-0.647v1.074h-0.606v-2.676
		h0.606v1.115h0.647V12.726z"/>
</g>
<g>
	<path fill="#E2F3F4" d="M191.795,186.302c0,0,23.274,1.94,32.996-11.993"/>
	<g>
		<path fill="none" stroke="#000000" stroke-width="3" stroke-miterlimit="10" d="M191.795,186.302c0,0,16.983,1.415,27.994-6.856"
			/>
		<g>
			<polygon points="220.329,184.835 218.588,180.332 214.138,178.459 224.791,174.309 			"/>
		</g>
	</g>
</g>
<g>
	<path fill="#E2F3F4" d="M228.996,114.844c0,0,3.782-15.08-8.065-25.746"/>
	<g>
		<path fill="none" stroke="#000000" stroke-width="3" stroke-miterlimit="10" d="M228.996,114.844c0,0,2.651-10.571-3.439-20.271"
			/>
		<g>
			<polygon points="231.006,94.503 226.362,95.826 224.091,100.086 220.931,89.099 			"/>
		</g>
	</g>
</g>
<g>
	<g>
		<path fill="none" stroke="#000000" stroke-width="3" stroke-miterlimit="10" d="M210.488,64.358c0,0-8.378-23.1,7.6-26.59"/>
		<g>
			<polygon points="215.067,42.657 216.627,38.088 214.421,33.793 225.25,37.459 			"/>
		</g>
	</g>
</g>
<g>
	<g>
		<line fill="none" stroke="#000000" stroke-width="3" stroke-miterlimit="10" x1="236.971" y1="19.227" x2="236.971" y2="30.135"/>
		<g>
			<polygon points="232.527,26.765 236.971,28.653 241.415,26.765 236.971,37.299 			"/>
		</g>
	</g>
</g>
<g>
	<g>
		<line fill="none" stroke="#000000" stroke-width="3" stroke-miterlimit="10" x1="259.645" y1="52.766" x2="259.645" y2="60.695"/>
		<g>
			<polygon points="255.201,57.325 259.645,59.213 264.088,57.325 259.645,67.859 			"/>
		</g>
	</g>
</g>
<circle fill="#E1EFF5" stroke="#8FA0BD" stroke-miterlimit="10" cx="112.374" cy="50.457" r="4.558"/>
<path fill="#D2E9D0" stroke="#006838" stroke-miterlimit="10" d="M129.983,54.292h-9.055c-2.197,0-3.995-1.798-3.995-3.995v0
	c0-2.197,1.798-3.995,3.995-3.995h9.055c2.197,0,3.995,1.798,3.995,3.995v0C133.977,52.494,132.18,54.292,129.983,54.292z"/>
<path fill="#F3D7D4" stroke="#813A43" stroke-miterlimit="10" d="M166.41,115.02h-13.24c-3.212,0-5.841-2.628-5.841-5.841v0
	c0-3.212,2.628-5.841,5.841-5.841h13.24c3.212,0,5.841,2.628,5.841,5.841v0C172.251,112.392,169.622,115.02,166.41,115.02z"/>
<ellipse fill="#FAE8D7" stroke="#F7941D" stroke-miterlimit="10" cx="139.639" cy="42.025" rx="7.071" ry="5.068"/>
<ellipse fill="#EACDE2" stroke="#662D91" stroke-miterlimit="10" cx="159.204" cy="42.025" rx="7.071" ry="5.068"/>
<ellipse fill="#D1E4F3" stroke="#2B3990" stroke-miterlimit="10" cx="159.204" cy="54.002" rx="11.6" ry="5.745"/>
<ellipse fill="#CFD0E9" stroke="#4A4863" stroke-miterlimit="10" cx="159.79" cy="85.635" rx="13.08" ry="6.478"/>
<circle fill="#C5E6E2" stroke="#4E7872" stroke-miterlimit="10" cx="176.583" cy="101.007" r="6.576"/>
<circle fill="#DDDDDF" stroke="#58595B" stroke-miterlimit="10" cx="176.583" cy="116.481" r="6.576"/>
<g>
	<g>
		<path fill="none" stroke="#414042" stroke-miterlimit="10" d="M141.922,35.368c0-3.813,3.506-6.903,7.83-6.903
			c1.916,0,3.671,0.606,5.031,1.613"/>
		<g>
			<polygon fill="#414042" points="149.773,29.91 153.745,29.27 156.041,25.966 157.583,35.368 			"/>
		</g>
	</g>
</g>
<g>
	<g>
		<line fill="none" stroke="#414042" stroke-miterlimit="10" x1="159.79" y1="62.392" x2="159.79" y2="69.912"/>
		<g>
			<polygon fill="#414042" points="156.087,67.104 159.79,68.677 163.493,67.104 159.79,75.882 			"/>
		</g>
	</g>
</g>
<g>
	<g>
		<line fill="none" stroke="#414042" stroke-miterlimit="10" x1="159.79" y1="93.387" x2="159.79" y2="100.507"/>
		<g>
			<rect x="156.54" y="100.007" fill="#414042" width="6.5" height="1"/>
		</g>
	</g>
</g>
<g>
	<path fill="#E2F3F4" d="M158.371,124.701c0,0-4.747,22.867,7.904,34.207"/>
	<g>
		<path fill="none" stroke="#000000" stroke-width="3" stroke-miterlimit="10" d="M158.371,124.701c0,0-3.464,16.686,3.412,28.619"
			/>
		<g>
			<polygon points="156.367,153.202 161.048,152.02 163.447,147.83 166.275,158.908 			"/>
		</g>
	</g>
</g>
<g>
	<path d="M109.361,52.555v-3.523h0.637v3.523H109.361z"/>
	<path d="M110.845,52.555v-3.523h1.182c0.818,0,1.228,0.344,1.228,1.032c0,0.441-0.212,0.745-0.637,0.909v0.025l0.874,1.557h-0.688
		l-0.786-1.423h-0.54v1.423H110.845z M111.477,50.695h0.483c0.226,0,0.39-0.05,0.491-0.149c0.101-0.099,0.151-0.253,0.151-0.462
		c0-0.198-0.051-0.343-0.154-0.432c-0.103-0.089-0.267-0.134-0.493-0.134h-0.478V50.695z"/>
	<path d="M115.805,52.331c-0.211,0.19-0.525,0.285-0.943,0.285s-0.769-0.075-1.053-0.226v-0.498
		c0.329,0.144,0.663,0.216,1.002,0.216c0.449,0,0.673-0.172,0.673-0.514c0-0.145-0.037-0.252-0.11-0.324
		c-0.074-0.071-0.208-0.139-0.403-0.2l-0.334-0.093c-0.264-0.075-0.463-0.189-0.598-0.344c-0.136-0.154-0.203-0.373-0.203-0.657
		c0-0.309,0.1-0.553,0.3-0.732c0.201-0.18,0.494-0.27,0.881-0.27c0.366,0,0.669,0.063,0.909,0.189v0.493
		c-0.277-0.116-0.577-0.174-0.899-0.174c-0.185,0-0.327,0.037-0.426,0.112c-0.1,0.075-0.149,0.184-0.149,0.324
		s0.032,0.245,0.095,0.315s0.183,0.13,0.357,0.178l0.329,0.103c0.301,0.086,0.524,0.203,0.67,0.352
		c0.146,0.149,0.218,0.371,0.218,0.665C116.121,51.875,116.016,52.142,115.805,52.331z"/>
</g>
<g>
	<path d="M120.638,52.406v-3.523h1.233c0.411,0,0.721,0.092,0.93,0.277c0.208,0.185,0.313,0.453,0.313,0.807
		c0,0.359-0.107,0.636-0.321,0.829c-0.214,0.193-0.508,0.29-0.881,0.29h-0.642v1.32H120.638z M121.27,50.613h0.524
		c0.233,0,0.401-0.049,0.504-0.148c0.103-0.1,0.154-0.254,0.154-0.463c0-0.229-0.05-0.392-0.149-0.487s-0.266-0.145-0.499-0.145
		h-0.534V50.613z"/>
	<path d="M123.715,52.406v-3.523h0.637v3.523H123.715z"/>
	<path d="M125.997,52.458c-0.202,0-0.398-0.024-0.588-0.072c-0.19-0.048-0.338-0.105-0.444-0.175l0.103-0.457
		c0.089,0.055,0.215,0.103,0.377,0.142s0.311,0.059,0.444,0.059c0.24,0,0.425-0.049,0.555-0.148c0.13-0.1,0.195-0.247,0.195-0.442
		c0-0.349-0.243-0.527-0.729-0.534l-0.365-0.01v-0.457l0.324-0.006c0.206-0.007,0.37-0.056,0.493-0.146
		c0.123-0.09,0.185-0.216,0.185-0.377c0-0.322-0.209-0.483-0.627-0.483c-0.233,0-0.483,0.062-0.75,0.186l-0.072-0.468
		c0.109-0.062,0.258-0.114,0.447-0.156c0.188-0.043,0.368-0.064,0.54-0.064c0.332,0,0.598,0.076,0.796,0.229
		c0.198,0.152,0.298,0.367,0.298,0.645c0,0.4-0.211,0.675-0.632,0.822c0.5,0.1,0.75,0.387,0.75,0.863
		c0,0.325-0.117,0.582-0.35,0.771S126.397,52.458,125.997,52.458z"/>
	<path d="M127.954,52.406v-3.523h0.632v3.523H127.954z M129.947,52.406l-1.299-1.787c0.411-0.555,0.846-1.134,1.305-1.736h0.652
		l-1.264,1.669c0.596,0.822,1.041,1.44,1.335,1.854H129.947z"/>
</g>
<g>
	<path d="M154.128,55.856l1.284-3.523h0.647l1.254,3.523h-0.652l-0.319-0.894h-1.31l-0.318,0.894H154.128z M155.675,53.082
		l-0.493,1.407h1.001l-0.493-1.407H155.675z"/>
	<path d="M157.817,55.856v-3.523h0.632v3.523H157.817z M159.81,55.856l-1.299-1.787c0.41-0.555,0.846-1.134,1.305-1.736h0.652
		l-1.264,1.669c0.596,0.822,1.041,1.44,1.335,1.854H159.81z"/>
	<path d="M161.798,55.856V52.83h-1.012v-0.498h2.646v0.498h-1.002v3.025H161.798z"/>
</g>
<g>
	<path d="M152.383,87.038l1.284-3.523h0.647l1.253,3.523h-0.652l-0.318-0.894h-1.311l-0.318,0.894H152.383z M153.929,84.265
		l-0.493,1.407h1.002l-0.493-1.407H153.929z"/>
	<path d="M157.852,86.815c-0.211,0.19-0.525,0.285-0.943,0.285s-0.769-0.075-1.053-0.226v-0.498
		c0.329,0.144,0.663,0.216,1.002,0.216c0.448,0,0.673-0.172,0.673-0.514c0-0.145-0.037-0.252-0.11-0.324
		c-0.074-0.071-0.208-0.139-0.403-0.2l-0.334-0.093c-0.264-0.075-0.463-0.189-0.599-0.344s-0.203-0.373-0.203-0.657
		c0-0.309,0.101-0.553,0.301-0.732s0.494-0.27,0.881-0.27c0.366,0,0.67,0.063,0.909,0.189v0.493
		c-0.277-0.116-0.577-0.174-0.898-0.174c-0.186,0-0.327,0.037-0.427,0.112s-0.149,0.184-0.149,0.324s0.032,0.245,0.096,0.315
		s0.183,0.13,0.356,0.178l0.329,0.103c0.302,0.086,0.524,0.203,0.671,0.352c0.146,0.149,0.218,0.371,0.218,0.665
		C158.168,86.358,158.062,86.625,157.852,86.815z"/>
	<path d="M159.174,87.059v-2.897l-0.591,0.118V83.91l0.894-0.401h0.334v3.55H159.174z"/>
	<path d="M161.856,87.1c-0.421,0-0.742-0.138-0.963-0.413c-0.222-0.275-0.332-0.658-0.332-1.148v-0.252
		c0-0.619,0.139-1.075,0.416-1.366s0.643-0.437,1.095-0.437c0.325,0,0.6,0.065,0.822,0.195l-0.124,0.462
		c-0.071-0.037-0.173-0.072-0.303-0.104c-0.13-0.033-0.25-0.049-0.359-0.049c-0.281,0-0.499,0.086-0.652,0.259
		c-0.154,0.173-0.243,0.474-0.268,0.901c0.239-0.205,0.514-0.308,0.822-0.308c0.312,0,0.563,0.093,0.758,0.28
		c0.193,0.187,0.29,0.444,0.29,0.772c0,0.35-0.106,0.638-0.318,0.866C162.527,86.986,162.233,87.1,161.856,87.1z M161.84,86.633
		c0.188,0,0.337-0.061,0.444-0.183c0.108-0.121,0.162-0.292,0.162-0.511c0-0.432-0.207-0.647-0.622-0.647
		c-0.119,0-0.237,0.034-0.354,0.103c-0.116,0.068-0.209,0.149-0.277,0.241v0.031C161.193,86.311,161.409,86.633,161.84,86.633z"/>
	<path d="M164.923,87.1c-0.411,0-0.742-0.139-0.992-0.418s-0.375-0.703-0.375-1.271V85.19c0-0.306,0.037-0.57,0.11-0.797
		c0.074-0.226,0.176-0.404,0.306-0.534c0.131-0.13,0.275-0.226,0.435-0.288c0.159-0.062,0.333-0.092,0.521-0.092
		c0.4,0,0.727,0.137,0.979,0.411c0.252,0.273,0.378,0.702,0.378,1.284v0.221c0,0.582-0.127,1.012-0.381,1.289
		C165.651,86.961,165.324,87.1,164.923,87.1z M164.923,86.617c0.239,0,0.417-0.094,0.534-0.28c0.116-0.187,0.175-0.487,0.175-0.901
		v-0.262c0-0.805-0.235-1.207-0.704-1.207c-0.243,0-0.423,0.093-0.539,0.279c-0.117,0.187-0.175,0.484-0.175,0.892v0.272
		C164.214,86.215,164.451,86.617,164.923,86.617z"/>
</g>
<g>
	<path d="M155.594,110.853v-3.523h1.182c0.818,0,1.229,0.344,1.229,1.032c0,0.441-0.213,0.745-0.638,0.909v0.025l0.874,1.557h-0.688
		l-0.786-1.423h-0.54v1.423H155.594z M156.226,108.993h0.483c0.226,0,0.39-0.05,0.49-0.149c0.102-0.099,0.151-0.253,0.151-0.462
		c0-0.198-0.051-0.343-0.153-0.432c-0.104-0.089-0.268-0.134-0.493-0.134h-0.479V108.993z"/>
	<path d="M159.371,110.899c-0.247,0-0.444-0.063-0.591-0.19c-0.147-0.127-0.222-0.313-0.222-0.56c0-0.445,0.283-0.709,0.848-0.791
		l0.622-0.072v-0.2c0-0.175-0.044-0.292-0.131-0.353c-0.088-0.06-0.246-0.09-0.476-0.09c-0.216,0-0.43,0.024-0.642,0.072v-0.406
		c0.243-0.096,0.534-0.144,0.873-0.144c0.644,0,0.966,0.262,0.966,0.786v1.9h-0.488l-0.046-0.216h-0.031
		C159.903,110.812,159.675,110.899,159.371,110.899z M159.55,110.483c0.205,0,0.364-0.054,0.478-0.16v-0.652l-0.488,0.052
		c-0.134,0.011-0.233,0.046-0.301,0.107c-0.066,0.062-0.1,0.158-0.1,0.288c0,0.12,0.036,0.211,0.11,0.272
		C159.323,110.452,159.423,110.483,159.55,110.483z"/>
	<path d="M162.339,110.909c-0.428,0-0.772-0.051-1.032-0.154v-3.657h0.591v1.289h0.025c0.229-0.15,0.49-0.226,0.781-0.226
		c0.284,0,0.522,0.101,0.717,0.303c0.193,0.202,0.29,0.527,0.29,0.977v0.062c0,0.466-0.116,0.816-0.35,1.053
		C163.129,110.791,162.789,110.909,162.339,110.909z M162.376,110.457c0.479,0,0.72-0.289,0.72-0.868v-0.103
		c0-0.312-0.053-0.53-0.157-0.655s-0.274-0.188-0.511-0.188c-0.172,0-0.348,0.043-0.529,0.129v1.607
		C162.045,110.432,162.205,110.457,162.376,110.457z"/>
</g>
<g>
	<path d="M174.107,103.185c-0.538,0-0.954-0.141-1.248-0.424c-0.295-0.282-0.442-0.724-0.442-1.322v-0.108
		c0-0.321,0.047-0.602,0.139-0.84c0.093-0.238,0.221-0.424,0.386-0.558c0.164-0.134,0.346-0.23,0.544-0.293
		c0.199-0.062,0.418-0.092,0.658-0.092c0.384,0,0.705,0.068,0.966,0.205v0.504c-0.298-0.131-0.615-0.195-0.95-0.195
		c-0.716,0-1.074,0.405-1.074,1.218v0.159c0,0.403,0.073,0.713,0.219,0.927s0.411,0.321,0.799,0.321
		c0.198,0,0.378-0.025,0.539-0.077v-0.802h-0.652v-0.473h1.269v1.634C174.902,103.113,174.518,103.185,174.107,103.185z"/>
	<path d="M176.716,103.128v-3.025h-1.012v-0.498h2.646v0.498h-1.002v3.025H176.716z"/>
	<path d="M178.916,103.128v-3.523h1.232c0.411,0,0.722,0.092,0.931,0.277c0.208,0.185,0.312,0.453,0.312,0.807
		c0,0.359-0.106,0.636-0.32,0.829c-0.215,0.193-0.508,0.29-0.882,0.29h-0.642v1.32H178.916z M179.547,101.335h0.523
		c0.233,0,0.401-0.049,0.504-0.148s0.154-0.254,0.154-0.463c0-0.229-0.05-0.392-0.149-0.487c-0.099-0.096-0.266-0.145-0.498-0.145
		h-0.534V101.335z"/>
</g>
<g>
	<path d="M174.107,118.186c-0.537,0-0.953-0.141-1.248-0.424c-0.295-0.282-0.441-0.724-0.441-1.322v-0.108
		c0-0.321,0.046-0.602,0.139-0.84c0.092-0.238,0.221-0.424,0.385-0.558c0.165-0.134,0.346-0.23,0.545-0.293
		c0.198-0.062,0.418-0.092,0.657-0.092c0.384,0,0.706,0.068,0.966,0.205v0.504c-0.298-0.131-0.614-0.195-0.95-0.195
		c-0.716,0-1.073,0.405-1.073,1.218v0.159c0,0.403,0.072,0.713,0.218,0.927s0.412,0.321,0.799,0.321c0.199,0,0.379-0.025,0.54-0.077
		v-0.802h-0.653v-0.473h1.27v1.634C174.902,118.114,174.518,118.186,174.107,118.186z"/>
	<path d="M175.982,118.129v-3.523h1.156c1.123,0,1.685,0.557,1.685,1.669v0.103c0,0.572-0.14,1.008-0.421,1.306
		s-0.7,0.446-1.259,0.446H175.982z M176.614,117.631h0.534c0.35,0,0.604-0.093,0.766-0.28c0.161-0.187,0.242-0.49,0.242-0.911v-0.17
		c0-0.425-0.088-0.726-0.263-0.901c-0.175-0.177-0.438-0.265-0.791-0.265h-0.488V117.631z"/>
	<path d="M179.476,118.129v-3.523h1.232c0.411,0,0.722,0.092,0.931,0.277c0.208,0.185,0.312,0.453,0.312,0.807
		c0,0.359-0.106,0.636-0.32,0.829c-0.215,0.193-0.508,0.29-0.882,0.29h-0.642v1.32H179.476z M180.108,116.336h0.523
		c0.233,0,0.401-0.049,0.504-0.148s0.154-0.254,0.154-0.463c0-0.229-0.05-0.392-0.149-0.487c-0.099-0.096-0.266-0.145-0.498-0.145
		h-0.534V116.336z"/>
</g>
<g>
	<path d="M135.698,43.817v-2.9h1.015c0.338,0,0.593,0.076,0.766,0.229c0.172,0.152,0.258,0.373,0.258,0.664
		c0,0.296-0.088,0.523-0.264,0.683c-0.176,0.159-0.418,0.239-0.726,0.239h-0.528v1.086H135.698z M136.218,42.342h0.431
		c0.192,0,0.33-0.041,0.415-0.122c0.084-0.082,0.127-0.209,0.127-0.381c0-0.188-0.041-0.323-0.123-0.401
		c-0.082-0.079-0.219-0.119-0.411-0.119h-0.439V42.342z"/>
	<path d="M138.231,43.817v-2.9h0.524v2.9H138.231z"/>
	<path d="M139.454,43.817v-2.9h1.015c0.338,0,0.593,0.076,0.766,0.229c0.172,0.152,0.258,0.373,0.258,0.664
		c0,0.296-0.089,0.523-0.265,0.683s-0.418,0.239-0.726,0.239h-0.528v1.086H139.454z M139.973,42.342h0.432
		c0.191,0,0.33-0.041,0.414-0.122c0.085-0.082,0.127-0.209,0.127-0.381c0-0.188-0.041-0.323-0.122-0.401
		c-0.082-0.079-0.219-0.119-0.411-0.119h-0.439V42.342z"/>
	<path d="M141.851,43.817v-0.304l0.554-0.584c0.245-0.259,0.428-0.475,0.546-0.645c0.118-0.171,0.178-0.338,0.178-0.501
		c0-0.172-0.046-0.297-0.138-0.372c-0.092-0.076-0.232-0.114-0.421-0.114c-0.186,0-0.386,0.064-0.601,0.194l-0.084-0.385
		c0.25-0.146,0.525-0.22,0.824-0.22c0.312,0,0.551,0.071,0.715,0.215c0.163,0.145,0.245,0.349,0.245,0.613
		c0,0.121-0.021,0.243-0.065,0.366c-0.044,0.122-0.112,0.247-0.205,0.372s-0.174,0.227-0.243,0.305
		c-0.069,0.077-0.163,0.178-0.281,0.302l-0.343,0.352h1.163v0.405H141.851z"/>
</g>
<g>
	<path d="M155.179,43.817v-2.9h1.015c0.338,0,0.593,0.076,0.766,0.229c0.172,0.152,0.258,0.373,0.258,0.664
		c0,0.296-0.089,0.523-0.265,0.683s-0.418,0.239-0.726,0.239h-0.528v1.086H155.179z M155.699,42.342h0.432
		c0.191,0,0.33-0.041,0.414-0.122c0.085-0.082,0.127-0.209,0.127-0.381c0-0.188-0.041-0.323-0.122-0.401
		c-0.082-0.079-0.219-0.119-0.411-0.119h-0.439V42.342z"/>
	<path d="M157.711,43.817v-2.9h0.524v2.9H157.711z"/>
	<path d="M158.934,43.817v-2.9h1.015c0.338,0,0.593,0.076,0.766,0.229c0.172,0.152,0.258,0.373,0.258,0.664
		c0,0.296-0.089,0.523-0.265,0.683s-0.418,0.239-0.726,0.239h-0.528v1.086H158.934z M159.454,42.342h0.432
		c0.191,0,0.33-0.041,0.414-0.122c0.085-0.082,0.127-0.209,0.127-0.381c0-0.188-0.041-0.323-0.122-0.401
		c-0.082-0.079-0.219-0.119-0.411-0.119h-0.439V42.342z"/>
	<path d="M162.11,43.86c-0.167,0-0.328-0.02-0.484-0.06c-0.156-0.039-0.278-0.087-0.366-0.144l0.085-0.376
		c0.073,0.045,0.177,0.083,0.311,0.116c0.134,0.032,0.256,0.048,0.366,0.048c0.197,0,0.35-0.04,0.456-0.122
		c0.107-0.082,0.161-0.203,0.161-0.364c0-0.287-0.2-0.434-0.601-0.439l-0.3-0.009v-0.376l0.266-0.004
		c0.17-0.006,0.305-0.046,0.406-0.121c0.102-0.074,0.152-0.178,0.152-0.311c0-0.265-0.172-0.397-0.516-0.397
		c-0.192,0-0.397,0.051-0.617,0.152l-0.06-0.385c0.09-0.051,0.213-0.094,0.368-0.129c0.154-0.035,0.303-0.053,0.443-0.053
		c0.273,0,0.492,0.062,0.655,0.188c0.164,0.126,0.246,0.303,0.246,0.531c0,0.329-0.174,0.555-0.521,0.677
		c0.411,0.081,0.617,0.318,0.617,0.71c0,0.268-0.096,0.479-0.287,0.635C162.7,43.782,162.439,43.86,162.11,43.86z"/>
</g>
<g>
	<line x1="64" y1="87.1" x2="107.816" y2="56.617"/>
	<g>
		<line fill="none" stroke="#ED1C24" stroke-miterlimit="10" x1="64" y1="87.1" x2="107.405" y2="56.902"/>
		<g>
			
				<rect x="106.905" y="53.652" transform="matrix(0.8209 -0.5711 0.5711 0.8209 -13.2581 71.5334)" fill="#ED1C24" width="1" height="6.5"/>
		</g>
	</g>
</g>
<g>
	
		<line fill="none" stroke="#FBB040" stroke-width="3" stroke-linecap="round" stroke-miterlimit="10" x1="1.5" y1="1.5" x2="14.403" y2="1.5"/>
	
		<line fill="none" stroke="#FBB040" stroke-width="2" stroke-linecap="round" stroke-miterlimit="10" x1="7.952" y1="3.714" x2="7.952" y2="20.746"/>
	
		<line fill="none" stroke="#FBB040" stroke-width="2" stroke-linecap="round" stroke-miterlimit="10" x1="3.565" y1="3.714" x2="3.565" y2="20.746"/>
	<polyline fill="none" stroke="#FBB040" stroke-width="2" stroke-linecap="round" stroke-miterlimit="10" points="11.702,1.5 
		11.702,15.166 14.524,20.746 	"/>
</g>
<path fill="none" stroke="#000000" stroke-miterlimit="10" d="M57.844,71.847h-21.58c-2.369,0-4.307-1.938-4.307-4.307v0
	c0-2.369,1.938-4.307,4.307-4.307h21.58c2.369,0,4.307,1.938,4.307,4.307v0C62.151,69.909,60.213,71.847,57.844,71.847z"/>
<g>
	<g>
		<path d="M38.699,68.927v-3.524h1.156c1.124,0,1.685,0.557,1.685,1.67v0.103c0,0.572-0.14,1.007-0.421,1.305
			c-0.281,0.298-0.701,0.447-1.259,0.447H38.699z M39.331,68.428h0.534c0.35,0,0.604-0.093,0.766-0.28
			c0.161-0.187,0.242-0.491,0.242-0.912v-0.169c0-0.425-0.087-0.725-0.262-0.901c-0.175-0.177-0.438-0.265-0.791-0.265h-0.488
			V68.428z"/>
		<path d="M41.843,68.927l1.284-3.524h0.647l1.253,3.524h-0.652l-0.319-0.894h-1.31l-0.318,0.894H41.843z M43.39,66.152
			l-0.493,1.408h1.001l-0.493-1.408H43.39z"/>
		<path d="M47.042,68.983c-0.538,0-0.954-0.141-1.248-0.424c-0.295-0.282-0.442-0.723-0.442-1.323v-0.108
			c0-0.322,0.046-0.602,0.139-0.84c0.092-0.238,0.221-0.424,0.385-0.557c0.165-0.134,0.346-0.231,0.544-0.293
			s0.418-0.093,0.658-0.093c0.384,0,0.706,0.069,0.966,0.206v0.503c-0.298-0.13-0.615-0.195-0.95-0.195
			c-0.716,0-1.074,0.406-1.074,1.217v0.159c0,0.404,0.073,0.713,0.218,0.927c0.146,0.214,0.412,0.321,0.799,0.321
			c0.199,0,0.378-0.026,0.54-0.077v-0.801h-0.653v-0.473h1.269v1.633C47.837,68.911,47.453,68.983,47.042,68.983z"/>
		<path d="M54.142,67.154v0.473h-4.135v-0.473H54.142z M53.931,66.425l-0.257,0.473c-0.336-0.027-0.653-0.122-0.953-0.283
			c-0.3-0.161-0.515-0.351-0.645-0.57c-0.113,0.226-0.317,0.417-0.611,0.573c-0.295,0.156-0.625,0.25-0.992,0.28l-0.247-0.462
			c0.366-0.017,0.688-0.097,0.963-0.239c0.275-0.142,0.453-0.326,0.532-0.552h-1.29v-0.478h3.298v0.478h-1.284
			c0.085,0.223,0.273,0.404,0.562,0.544S53.606,66.408,53.931,66.425z M53.674,68.691c0,0.267-0.141,0.476-0.421,0.626
			c-0.281,0.151-0.673,0.226-1.176,0.226c-0.507,0-0.901-0.075-1.182-0.226c-0.281-0.15-0.421-0.359-0.421-0.626
			c0-0.26,0.141-0.466,0.421-0.617c0.281-0.15,0.673-0.226,1.176-0.226s0.896,0.076,1.179,0.226
			C53.533,68.225,53.674,68.43,53.674,68.691z M52.791,68.97c0.178-0.067,0.267-0.158,0.267-0.275c0-0.116-0.089-0.208-0.267-0.275
			c-0.178-0.066-0.418-0.1-0.719-0.1c-0.298,0-0.535,0.034-0.711,0.1c-0.176,0.067-0.265,0.159-0.265,0.275
			c0,0.117,0.088,0.208,0.265,0.275s0.414,0.1,0.711,0.1C52.373,69.07,52.612,69.037,52.791,68.97z"/>
		<path d="M56.823,65.433c-0.044,1.473-0.728,2.567-2.05,3.283l-0.365-0.452c0.49-0.226,0.896-0.555,1.218-0.986
			c0.322-0.431,0.503-0.88,0.544-1.346h-1.484v-0.499H56.823z M58.688,67.221h-0.663v2.322H57.43v-4.577h0.596v1.757h0.663V67.221z"
			/>
	</g>
</g>
<g>
	<g>
		<path d="M39.115,95.444V91.92h1.233c0.411,0,0.721,0.093,0.93,0.277c0.208,0.185,0.313,0.454,0.313,0.807
			c0,0.36-0.107,0.636-0.321,0.83c-0.214,0.194-0.508,0.291-0.881,0.291h-0.642v1.32H39.115z M39.747,93.651h0.524
			c0.233,0,0.401-0.05,0.504-0.149c0.103-0.1,0.154-0.253,0.154-0.462c0-0.229-0.05-0.392-0.149-0.488
			c-0.099-0.096-0.266-0.144-0.499-0.144h-0.534V93.651z"/>
		<path d="M42.177,95.444V91.92h0.632v3.524H42.177z M44.17,95.444l-1.299-1.788c0.411-0.555,0.846-1.133,1.305-1.736h0.652
			l-1.264,1.67c0.596,0.822,1.041,1.44,1.335,1.854H44.17z"/>
		<path d="M46.832,95.5c-0.5,0-0.89-0.148-1.169-0.444c-0.279-0.296-0.418-0.735-0.418-1.317V93.61c0-0.6,0.152-1.041,0.457-1.323
			c0.305-0.282,0.704-0.424,1.197-0.424c0.363,0,0.657,0.062,0.883,0.185v0.493c-0.277-0.109-0.557-0.164-0.837-0.164
			c-0.678,0-1.017,0.389-1.017,1.166v0.18c0,0.418,0.081,0.733,0.242,0.945c0.161,0.212,0.421,0.318,0.781,0.318
			c0.274,0,0.563-0.063,0.868-0.19v0.488C47.547,95.428,47.219,95.5,46.832,95.5z"/>
		<path d="M53.659,93.671v0.473h-4.135v-0.473H53.659z M53.448,92.942l-0.257,0.473c-0.336-0.027-0.653-0.122-0.953-0.283
			c-0.3-0.161-0.515-0.351-0.645-0.57c-0.113,0.226-0.317,0.417-0.611,0.573c-0.295,0.156-0.625,0.25-0.992,0.28l-0.247-0.462
			c0.366-0.017,0.688-0.097,0.963-0.239c0.275-0.142,0.453-0.326,0.532-0.552h-1.29v-0.478h3.298v0.478h-1.284
			c0.085,0.223,0.273,0.404,0.562,0.544S53.123,92.925,53.448,92.942z M53.191,95.208c0,0.267-0.141,0.476-0.421,0.626
			c-0.281,0.151-0.673,0.226-1.176,0.226c-0.507,0-0.901-0.075-1.182-0.226c-0.281-0.15-0.421-0.359-0.421-0.626
			c0-0.26,0.141-0.466,0.421-0.617c0.281-0.15,0.673-0.226,1.176-0.226s0.896,0.076,1.179,0.226
			C53.05,94.742,53.191,94.947,53.191,95.208z M52.308,95.487c0.178-0.067,0.267-0.158,0.267-0.275c0-0.116-0.089-0.208-0.267-0.275
			c-0.178-0.066-0.418-0.1-0.719-0.1c-0.298,0-0.535,0.034-0.711,0.1c-0.176,0.067-0.265,0.159-0.265,0.275
			c0,0.117,0.088,0.208,0.265,0.275s0.414,0.1,0.711,0.1C51.89,95.587,52.129,95.554,52.308,95.487z"/>
		<path d="M56.34,91.95c-0.044,1.473-0.728,2.567-2.05,3.283l-0.365-0.452c0.49-0.226,0.896-0.555,1.218-0.986
			c0.322-0.431,0.503-0.88,0.544-1.346h-1.484V91.95H56.34z M58.205,93.738h-0.663v2.322h-0.596v-4.577h0.596v1.757h0.663V93.738z"
			/>
	</g>
</g>
<g>
	<g>
		<path d="M74.291,85.425V81.9h0.637v3.524H74.291z"/>
		<path d="M75.775,85.425V81.9h1.182c0.818,0,1.228,0.344,1.228,1.033c0,0.442-0.212,0.745-0.637,0.909v0.026l0.874,1.557h-0.688
			l-0.786-1.423h-0.54v1.423H75.775z M76.407,83.565h0.483c0.226,0,0.39-0.05,0.491-0.149s0.151-0.253,0.151-0.462
			c0-0.199-0.051-0.342-0.154-0.432c-0.103-0.089-0.267-0.133-0.493-0.133h-0.478V83.565z"/>
		<path d="M80.735,85.201c-0.211,0.19-0.525,0.285-0.943,0.285s-0.769-0.075-1.053-0.226v-0.499
			c0.329,0.144,0.663,0.216,1.002,0.216c0.449,0,0.673-0.171,0.673-0.514c0-0.144-0.037-0.251-0.11-0.324
			c-0.074-0.072-0.208-0.139-0.403-0.2l-0.334-0.092c-0.264-0.076-0.463-0.19-0.598-0.344c-0.136-0.154-0.203-0.374-0.203-0.658
			c0-0.308,0.1-0.552,0.3-0.732c0.201-0.18,0.494-0.27,0.881-0.27c0.366,0,0.669,0.063,0.909,0.19v0.493
			c-0.277-0.117-0.577-0.175-0.899-0.175c-0.185,0-0.327,0.038-0.426,0.113c-0.1,0.075-0.149,0.183-0.149,0.323
			c0,0.141,0.032,0.246,0.095,0.316c0.063,0.07,0.183,0.129,0.357,0.177l0.329,0.103c0.301,0.085,0.524,0.203,0.67,0.352
			c0.146,0.149,0.218,0.371,0.218,0.666C81.051,84.745,80.945,85.011,80.735,85.201z"/>
		<path d="M81.555,84.248v-0.493h1.413v0.493H81.555z"/>
		<path d="M83.989,85.445v-2.897l-0.591,0.118v-0.37l0.894-0.4h0.334v3.55H83.989z"/>
		<path d="M88.947,84.5l-0.339,0.426c-0.165-0.103-0.331-0.258-0.499-0.465s-0.279-0.417-0.334-0.629
			c-0.065,0.24-0.178,0.469-0.339,0.688s-0.348,0.392-0.56,0.519l-0.354-0.411c0.301-0.195,0.537-0.466,0.707-0.812
			c0.169-0.346,0.254-0.755,0.254-1.228v-0.683h0.575v0.678c0,0.442,0.078,0.83,0.234,1.164
			C88.448,84.081,88.666,84.332,88.947,84.5z M89.615,85.831h-0.56v-2.302h-0.616v-0.488h0.616v-1.49h0.56V85.831z M90.529,86.041
			h-0.57v-4.577h0.57V86.041z"/>
		<path d="M93.765,83.632l0.057,0.457c-0.185,0.048-0.465,0.086-0.84,0.116s-0.727,0.043-1.056,0.043c-0.072,0-0.176,0-0.311-0.002
			c-0.135-0.001-0.237-0.002-0.306-0.002v-1.49h1.459V82.26h-1.469v-0.478h2.076v1.423h-1.464v0.565
			C92.815,83.771,93.433,83.724,93.765,83.632z M94.978,85.943h-3.169v-1.372h0.606v0.894h2.563V85.943z M94.859,84.783h-0.601
			v-3.319h0.601V84.783z"/>
		<path d="M97.017,82.933c0-0.329,0.114-0.599,0.342-0.812c0.228-0.212,0.526-0.319,0.896-0.319c0.373,0,0.673,0.106,0.899,0.319
			s0.339,0.483,0.339,0.812c0,0.332-0.113,0.603-0.339,0.812c-0.226,0.209-0.526,0.313-0.899,0.313
			c-0.374,0-0.673-0.104-0.899-0.313C97.13,83.536,97.017,83.265,97.017,82.933z M100.757,85.918h-3.175v-1.464h0.606v0.992h2.569
			V85.918z M97.634,82.933c0,0.185,0.056,0.336,0.169,0.455c0.113,0.118,0.264,0.177,0.452,0.177c0.195,0,0.348-0.059,0.459-0.177
			s0.167-0.27,0.167-0.455c0-0.178-0.056-0.325-0.169-0.442c-0.113-0.116-0.265-0.175-0.457-0.175c-0.188,0-0.339,0.059-0.452,0.175
			C97.69,82.608,97.634,82.755,97.634,82.933z M100.654,84.783h-0.596v-3.319h0.596V84.783z"/>
		<path d="M103.983,83.627l-0.344,0.468c-0.182-0.072-0.374-0.201-0.578-0.388c-0.204-0.187-0.352-0.381-0.445-0.583
			c-0.068,0.226-0.205,0.444-0.411,0.655c-0.206,0.21-0.418,0.358-0.637,0.444l-0.359-0.473c0.332-0.12,0.598-0.321,0.796-0.604
			c0.199-0.283,0.298-0.597,0.298-0.943v-0.483h0.616v0.452c0,0.339,0.106,0.643,0.319,0.912
			C103.45,83.354,103.699,83.534,103.983,83.627z M105.01,85.923h-3.026v-1.484h0.601v1.012h2.425V85.923z M104.897,81.464v1.31
			h0.652v0.498h-0.652v1.511h-0.601v-3.319H104.897z"/>
		<path d="M108.247,83.771c0,0.188-0.069,0.349-0.208,0.48s-0.325,0.222-0.558,0.27v0.298c0.49-0.031,0.837-0.06,1.043-0.087
			c0,0.014,0.006,0.079,0.018,0.195c0.012,0.117,0.021,0.204,0.028,0.262c-0.445,0.065-0.961,0.113-1.546,0.144
			c-0.486,0.021-0.892,0.031-1.218,0.031l-0.082-0.498c0.514,0,0.897-0.005,1.151-0.016v-0.324
			c-0.243-0.038-0.438-0.125-0.586-0.262c-0.147-0.137-0.221-0.301-0.221-0.493c0-0.226,0.103-0.411,0.308-0.555
			c0.206-0.144,0.466-0.216,0.781-0.216c0.319,0,0.58,0.072,0.784,0.216C108.145,83.359,108.247,83.545,108.247,83.771z
			 M108.463,82.856h-2.61v-0.457h2.61V82.856z M106.526,82.204v-0.462h1.295v0.462H106.526z M107.651,83.771
			c0-0.089-0.046-0.164-0.139-0.224c-0.092-0.06-0.21-0.09-0.354-0.09c-0.14,0-0.256,0.03-0.347,0.09
			c-0.091,0.06-0.136,0.135-0.136,0.224c0,0.085,0.046,0.16,0.139,0.224c0.093,0.063,0.208,0.095,0.344,0.095
			c0.141,0,0.258-0.032,0.352-0.095C107.604,83.931,107.651,83.856,107.651,83.771z M109.377,81.464v1.87h0.591v0.493h-0.591v2.214
			h-0.596v-4.577H109.377z"/>
		<path d="M115.69,83.652v0.473h-4.135v-0.473H115.69z M115.48,82.923l-0.257,0.473c-0.336-0.027-0.653-0.122-0.953-0.283
			c-0.3-0.161-0.515-0.351-0.645-0.57c-0.113,0.226-0.317,0.417-0.611,0.573c-0.295,0.156-0.625,0.25-0.992,0.28l-0.247-0.462
			c0.366-0.017,0.688-0.097,0.963-0.239c0.275-0.142,0.453-0.326,0.532-0.552h-1.29v-0.478h3.298v0.478h-1.284
			c0.085,0.223,0.273,0.404,0.562,0.544S115.154,82.906,115.48,82.923z M115.223,85.189c0,0.267-0.141,0.476-0.421,0.626
			c-0.281,0.151-0.673,0.226-1.176,0.226c-0.507,0-0.901-0.075-1.182-0.226c-0.281-0.15-0.421-0.359-0.421-0.626
			c0-0.26,0.141-0.466,0.421-0.617c0.281-0.15,0.673-0.226,1.176-0.226s0.896,0.076,1.179,0.226
			C115.082,84.723,115.223,84.928,115.223,85.189z M114.339,85.468c0.178-0.067,0.267-0.158,0.267-0.275
			c0-0.116-0.089-0.208-0.267-0.275c-0.178-0.066-0.418-0.1-0.719-0.1c-0.298,0-0.535,0.034-0.711,0.1
			c-0.176,0.067-0.265,0.159-0.265,0.275c0,0.117,0.088,0.208,0.265,0.275s0.414,0.1,0.711,0.1
			C113.921,85.568,114.161,85.535,114.339,85.468z"/>
		<path d="M118.372,81.931c-0.044,1.473-0.728,2.567-2.05,3.283l-0.365-0.452c0.49-0.226,0.896-0.555,1.218-0.986
			c0.322-0.431,0.503-0.88,0.544-1.346h-1.484v-0.499H118.372z M120.237,83.719h-0.663v2.322h-0.596v-4.577h0.596v1.757h0.663
			V83.719z"/>
		<path d="M74.291,91.589v-3.524h0.637v3.524H74.291z"/>
		<path d="M75.775,91.589v-3.524h1.182c0.818,0,1.228,0.344,1.228,1.033c0,0.442-0.212,0.745-0.637,0.909v0.026l0.874,1.557h-0.688
			l-0.786-1.423h-0.54v1.423H75.775z M76.407,89.73h0.483c0.226,0,0.39-0.05,0.491-0.149s0.151-0.253,0.151-0.462
			c0-0.199-0.051-0.342-0.154-0.432c-0.103-0.089-0.267-0.133-0.493-0.133h-0.478V89.73z"/>
		<path d="M80.735,91.366c-0.211,0.19-0.525,0.285-0.943,0.285s-0.769-0.075-1.053-0.226v-0.499
			c0.329,0.144,0.663,0.216,1.002,0.216c0.449,0,0.673-0.171,0.673-0.514c0-0.144-0.037-0.251-0.11-0.324
			c-0.074-0.072-0.208-0.139-0.403-0.2l-0.334-0.092c-0.264-0.076-0.463-0.19-0.598-0.344c-0.136-0.154-0.203-0.374-0.203-0.658
			c0-0.308,0.1-0.552,0.3-0.732c0.201-0.18,0.494-0.27,0.881-0.27c0.366,0,0.669,0.063,0.909,0.19v0.493
			c-0.277-0.117-0.577-0.175-0.899-0.175c-0.185,0-0.327,0.038-0.426,0.113c-0.1,0.075-0.149,0.183-0.149,0.323
			c0,0.141,0.032,0.246,0.095,0.316c0.063,0.07,0.183,0.129,0.357,0.177l0.329,0.103c0.301,0.085,0.524,0.203,0.67,0.352
			c0.146,0.149,0.218,0.371,0.218,0.666C81.051,90.909,80.945,91.176,80.735,91.366z"/>
		<path d="M81.555,90.413V89.92h1.413v0.493H81.555z"/>
		<path d="M83.989,91.61v-2.897l-0.591,0.118v-0.37l0.894-0.4h0.334v3.55H83.989z"/>
		<path d="M87.406,90.695c0.784,0,1.387-0.046,1.808-0.139c0.007,0.055,0.018,0.133,0.034,0.236
			c0.015,0.103,0.026,0.182,0.033,0.236c-0.432,0.099-1.11,0.149-2.034,0.149H86.81v-3.149h2.101v0.472h-1.505v0.833h1.423v0.478
			h-1.423V90.695z M90.21,87.629v1.726h0.637v0.493H90.21v2.358h-0.601v-4.577H90.21z"/>
		<path d="M91.523,90.762c-0.211-0.298-0.316-0.692-0.316-1.182s0.105-0.885,0.316-1.187c0.21-0.302,0.499-0.452,0.865-0.452
			c0.37,0,0.66,0.15,0.871,0.452c0.21,0.301,0.316,0.697,0.316,1.187c0,0.486-0.105,0.879-0.316,1.179
			c-0.211,0.3-0.501,0.45-0.871,0.45C92.022,91.209,91.733,91.06,91.523,90.762z M93,89.581c0-0.356-0.057-0.638-0.17-0.845
			c-0.113-0.207-0.26-0.311-0.442-0.311c-0.174,0-0.317,0.104-0.429,0.311c-0.111,0.208-0.167,0.489-0.167,0.845
			c0,0.353,0.056,0.632,0.167,0.837s0.254,0.308,0.429,0.308c0.182,0,0.329-0.103,0.442-0.308C92.943,90.212,93,89.933,93,89.581z
			 M94.859,92.206h-0.596v-4.577h0.596V92.206z"/>
		<path d="M99.267,90.443H97.88v0.714h1.777v0.478h-4.135v-0.478h1.757v-0.714h-1.228v-1.515h2.486v-0.529h-2.512v-0.478h3.108
			v1.484h-2.486v0.555h2.62V90.443z"/>
		<path d="M102.75,89.791l-0.339,0.478c-0.182-0.068-0.375-0.198-0.578-0.388c-0.204-0.19-0.354-0.388-0.45-0.593
			c-0.068,0.226-0.207,0.445-0.416,0.658s-0.423,0.356-0.642,0.432l-0.365-0.478c0.335-0.12,0.604-0.318,0.804-0.596
			c0.2-0.277,0.3-0.587,0.3-0.93V87.89h0.627v0.452c0,0.336,0.105,0.638,0.316,0.907C102.218,89.518,102.466,89.699,102.75,89.791z
			 M103.85,92.083h-3.18v-1.434h0.606v0.961h2.574V92.083z M103.752,90.947h-0.601v-3.319h0.601V90.947z"/>
		<path d="M105.904,89.098c0-0.329,0.114-0.599,0.342-0.812c0.228-0.212,0.526-0.319,0.896-0.319c0.373,0,0.673,0.106,0.899,0.319
			s0.339,0.483,0.339,0.812c0,0.332-0.113,0.603-0.339,0.812c-0.226,0.209-0.526,0.313-0.899,0.313
			c-0.374,0-0.673-0.104-0.899-0.313C106.018,89.701,105.904,89.43,105.904,89.098z M109.645,92.083h-3.175v-1.464h0.606v0.992
			h2.569V92.083z M106.521,89.098c0,0.185,0.056,0.336,0.169,0.455c0.113,0.118,0.264,0.177,0.452,0.177
			c0.195,0,0.348-0.059,0.459-0.177s0.167-0.27,0.167-0.455c0-0.178-0.056-0.325-0.169-0.442c-0.113-0.116-0.265-0.175-0.457-0.175
			c-0.188,0-0.339,0.059-0.452,0.175C106.577,88.773,106.521,88.92,106.521,89.098z M109.542,90.947h-0.596v-3.319h0.596V90.947z"/>
		<path d="M112.871,89.791l-0.344,0.468c-0.182-0.072-0.374-0.201-0.578-0.388c-0.204-0.187-0.352-0.381-0.445-0.583
			c-0.068,0.226-0.205,0.444-0.411,0.655c-0.206,0.21-0.418,0.358-0.637,0.444l-0.359-0.473c0.332-0.12,0.598-0.321,0.796-0.604
			c0.199-0.283,0.298-0.597,0.298-0.943v-0.483h0.616v0.452c0,0.339,0.106,0.643,0.319,0.912
			C112.338,89.518,112.586,89.699,112.871,89.791z M113.898,92.087h-3.026v-1.484h0.601v1.012h2.425V92.087z M113.785,87.629v1.31
			h0.652v0.498h-0.652v1.511h-0.601v-3.319H113.785z"/>
		<path d="M117.134,89.935c0,0.188-0.069,0.349-0.208,0.48s-0.325,0.222-0.558,0.27v0.298c0.49-0.031,0.837-0.06,1.043-0.087
			c0,0.014,0.006,0.079,0.018,0.195c0.012,0.117,0.021,0.204,0.028,0.262c-0.445,0.065-0.961,0.113-1.546,0.144
			c-0.486,0.021-0.892,0.031-1.218,0.031l-0.082-0.498c0.514,0,0.897-0.005,1.151-0.016V90.69c-0.243-0.038-0.438-0.125-0.586-0.262
			c-0.147-0.137-0.221-0.301-0.221-0.493c0-0.226,0.103-0.411,0.308-0.555c0.206-0.144,0.466-0.216,0.781-0.216
			c0.319,0,0.58,0.072,0.784,0.216C117.032,89.524,117.134,89.709,117.134,89.935z M117.35,89.021h-2.61v-0.457h2.61V89.021z
			 M115.413,88.368v-0.462h1.295v0.462H115.413z M116.538,89.935c0-0.089-0.046-0.164-0.139-0.224c-0.092-0.06-0.21-0.09-0.354-0.09
			c-0.14,0-0.256,0.03-0.347,0.09c-0.091,0.06-0.136,0.135-0.136,0.224c0,0.085,0.046,0.16,0.139,0.224
			c0.093,0.063,0.208,0.095,0.344,0.095c0.141,0,0.258-0.032,0.352-0.095C116.491,90.095,116.538,90.021,116.538,89.935z
			 M118.264,87.629v1.87h0.591v0.493h-0.591v2.214h-0.596v-4.577H118.264z"/>
		<path d="M122.744,87.906c-0.01,0.613-0.198,1.115-0.562,1.505c-0.365,0.39-0.864,0.661-1.498,0.812l-0.293-0.478
			c0.264-0.044,0.511-0.122,0.743-0.231c0.231-0.109,0.437-0.262,0.616-0.457s0.291-0.415,0.332-0.658h-1.469v-0.493H122.744z
			 M124.023,92.149h-2.964v-1.751h2.964V92.149z M123.422,91.682v-0.817h-1.762v0.817H123.422z M124.676,89.18h-0.652v0.997h-0.606
			v-2.548h0.606v1.063h0.652V89.18z"/>
		<path d="M129.022,91.635h-4.135v-0.473h1.751v-1.089h0.606v1.089h1.777V91.635z M128.903,89.658l-0.283,0.473
			c-0.335-0.079-0.667-0.231-0.994-0.458c-0.327-0.226-0.552-0.481-0.676-0.765c-0.075,0.195-0.207,0.38-0.396,0.555
			s-0.393,0.318-0.614,0.429c-0.221,0.111-0.439,0.191-0.655,0.239l-0.272-0.488c0.257-0.038,0.507-0.121,0.75-0.249
			s0.45-0.305,0.622-0.529c0.171-0.224,0.257-0.465,0.257-0.722v-0.277h0.626v0.277c0,0.192,0.052,0.377,0.157,0.558
			c0.104,0.18,0.238,0.333,0.401,0.462s0.338,0.236,0.526,0.324C128.542,89.573,128.725,89.63,128.903,89.658z"/>
	</g>
</g>
<g>
	<g>
		<path fill="none" stroke="#000000" stroke-miterlimit="10" d="M21.936,6.622c0,0,13.098-0.776,15.146,11.891"/>
		<g>
			<polygon points="37.35,22.037 34.845,17.282 36.982,18.26 38.89,16.888 			"/>
		</g>
	</g>
</g>
<g>
	<g>
		<line fill="none" stroke="#000000" stroke-miterlimit="10" x1="45.118" y1="34.568" x2="45.118" y2="45.444"/>
		<g>
			<polygon points="45.118,48.975 43.086,44 45.118,45.18 47.151,44 			"/>
		</g>
	</g>
</g>
<g>
	<g>
		<line fill="none" stroke="#000000" stroke-miterlimit="10" x1="47.054" y1="74.137" x2="47.054" y2="85.013"/>
		<g>
			<polygon points="47.054,88.544 45.021,83.569 47.054,84.749 49.086,83.569 			"/>
		</g>
	</g>
</g>
<g>
</g>
<g>
</g>
<g>
</g>
<g>
</g>
<g>
</g>
<g>
</g>
<g>
</g>
<g>
</g>
<g>
</g>
</svg>
