<?xml version="1.0" encoding="utf-8"?>
<!-- Generator: Adobe Illustrator 28.0.0, SVG Export Plug-In . SVG Version: 6.00 Build 0)  -->
<svg version="1.1" id="레이어_1" xmlns="http://www.w3.org/2000/svg" xmlns:xlink="http://www.w3.org/1999/xlink" x="0px"
	 y="0px" viewBox="0 0 293.758 214.419" enable-background="new 0 0 293.758 214.419" xml:space="preserve">
<g>
	<path fill="#EAF6F8" stroke="#ACCBD2" stroke-width="2.2892" stroke-miterlimit="10" d="M121.29,213.235
		c-0.017-0.468-0.321-11.54,7.604-18.648c5.445-4.883,13.319-6.614,23.399-5.148l0.077,0.013c1.321,0.246,2.949,0.228,3.52-0.019
		c-0.051-0.239-0.247-0.804-0.99-1.815c-1.74-2.448-7.132-11.053-4.144-19.96c1.771-5.282,6.105-9.56,12.203-12.048
		c7.179-2.928,15.572-2.736,21.904,0.501c7.394,3.781,14.291,12.683,12.507,21.733c-0.912,4.628-3.9,8.826-8.415,11.823
		c-5.573,3.7-12.796,5.01-19.854,3.613c-0.999,0.081-2.118,0.362-2.582,0.637c0.101,0.177,0.318,0.483,0.777,0.925
		c0.76,0.731,1.532,1.449,2.279,2.144c2.269,2.109,4.614,4.29,7.032,7.2c0.152,0.183,0.316,0.376,0.488,0.58
		c1.206,1.424,2.856,3.374,4.333,6.202l-3.246,1.695c-1.288-2.468-2.727-4.167-3.882-5.532c-0.18-0.213-0.351-0.414-0.51-0.606
		c-2.266-2.729-4.424-4.735-6.708-6.858c-0.758-0.705-1.542-1.434-2.324-2.185c-1.749-1.682-2.349-3.304-1.78-4.82
		c0.974-2.6,4.959-2.993,6.157-3.052l0.232-0.011l0.228,0.047c6.188,1.282,12.505,0.177,17.335-3.028
		c3.641-2.417,6.137-5.873,6.848-9.481c1.436-7.29-4.38-14.594-10.582-17.766c-5.41-2.766-12.635-2.908-18.855-0.371
		c-5.095,2.079-8.688,5.566-10.115,9.822c-2.438,7.268,2.171,14.583,3.641,16.652c0.642,0.873,2.645,3.601,1.193,5.905
		c-1.585,2.517-5.96,1.931-7.331,1.677c-8.924-1.293-15.775,0.132-20.367,4.235c-6.651,5.942-6.416,15.717-6.413,15.815
		L121.29,213.235z"/>
</g>
<g>
	<g>
		<g>
			<path fill="#7275B6" d="M157.005,173.867l-3.365,1.4c-0.372-0.893-1.407-1.32-2.3-0.948s-1.32,1.407-0.948,2.3l-3.55,1.477
				l3.83-0.483c0.121,0.96,1.005,1.646,1.965,1.525c0.96-0.121,1.646-1.005,1.525-1.965l3.616-0.456
				C155.233,175.88,157.005,173.867,157.005,173.867z"/>
		</g>
	</g>
	<g>
		<path fill="#AEAAD4" stroke="#2551A2" stroke-width="0.3886" stroke-miterlimit="10" d="M153.663,175.301
			c-0.372-0.893-1.407-1.32-2.3-0.948c-0.893,0.372-1.32,1.407-0.948,2.3l-3.564,1.484l-0.194-0.466
			c-0.524-1.26,0.077-2.719,1.337-3.243l5.596-2.329c1.26-0.524,2.719,0.077,3.243,1.337l0.194,0.466L153.663,175.301z"/>
	</g>
	<g>
		<path fill="#AEAAD4" stroke="#2551A2" stroke-width="0.3886" stroke-miterlimit="10" d="M154.186,177.207
			c0.121,0.96-0.565,1.844-1.525,1.965c-0.96,0.121-1.844-0.565-1.965-1.525l-3.83,0.483l0.063,0.501
			c0.171,1.354,1.418,2.322,2.771,2.151l6.014-0.758c1.354-0.171,2.322-1.418,2.151-2.771l-0.063-0.501L154.186,177.207z"/>
	</g>
</g>
<g>
	<g>
		<g>
			<path fill="#7275B6" d="M178.956,186.156l1.946,3.081c-0.818,0.517-1.065,1.608-0.548,2.426c0.517,0.818,1.608,1.065,2.426,0.548
				l2.053,3.251l-1.12-3.695c0.926-0.281,1.454-1.268,1.173-2.194c-0.281-0.926-1.268-1.454-2.194-1.173l-1.057-3.488
				C181.238,187.564,178.956,186.156,178.956,186.156z"/>
		</g>
	</g>
	<g>
		<path fill="#AEAAD4" stroke="#2551A2" stroke-width="0.3886" stroke-miterlimit="10" d="M180.931,189.21
			c-0.818,0.517-1.065,1.608-0.548,2.426s1.608,1.065,2.426,0.548l2.061,3.264l-0.427,0.27c-1.154,0.728-2.693,0.381-3.422-0.773
			l-3.236-5.126c-0.728-1.154-0.381-2.693,0.773-3.422l0.427-0.27L180.931,189.21z"/>
	</g>
	<g>
		<path fill="#AEAAD4" stroke="#2551A2" stroke-width="0.3886" stroke-miterlimit="10" d="M182.722,188.374
			c0.926-0.281,1.913,0.247,2.194,1.173s-0.247,1.913-1.173,2.194l1.12,3.695l0.483-0.146c1.306-0.396,2.05-1.788,1.655-3.093
			l-1.758-5.801c-0.396-1.306-1.788-2.05-3.093-1.655l-0.483,0.146L182.722,188.374z"/>
	</g>
</g>
<g>
	<g>
		<g>
			<path fill="#7275B6" d="M181.215,163.23l1.177-3.449c0.916,0.312,1.92-0.181,2.233-1.097c0.312-0.916-0.181-1.92-1.097-2.233
				l1.241-3.639l-2.173,3.191c-0.8-0.544-1.899-0.336-2.444,0.464c-0.544,0.8-0.336,1.899,0.464,2.444l-2.051,3.012
				C180.879,160.57,181.215,163.23,181.215,163.23z"/>
		</g>
	</g>
	<g>
		<path fill="#AEAAD4" stroke="#2551A2" stroke-width="0.3886" stroke-miterlimit="10" d="M182.352,159.776
			c0.916,0.312,1.92-0.181,2.233-1.097s-0.181-1.92-1.097-2.233l1.246-3.654l0.478,0.163c1.291,0.44,1.987,1.857,1.547,3.149
			l-1.957,5.737c-0.44,1.291-1.857,1.987-3.149,1.547l-0.478-0.163L182.352,159.776z"/>
	</g>
	<g>
		<path fill="#AEAAD4" stroke="#2551A2" stroke-width="0.3886" stroke-miterlimit="10" d="M180.577,158.907
			c-0.8-0.544-1.009-1.644-0.464-2.444c0.544-0.8,1.644-1.009,2.444-0.464l2.173-3.191l-0.418-0.284
			c-1.128-0.768-2.679-0.473-3.447,0.655l-3.411,5.011c-0.768,1.128-0.473,2.679,0.655,3.447l0.418,0.284L180.577,158.907z"/>
	</g>
</g>
<path fill="#EAF6F8" stroke="#ACCBD2" stroke-width="2.2892" stroke-miterlimit="10" d="M213.848,70.849
	c-3.484,0-6.902-0.667-9.846-1.87c-1.504-0.615-5.026-2.055-7.758-5.558l-0.045-0.058c-3.27-4.174-4.702-8.969-4.034-13.502
	c0.197-1.334,0.606-4.111,2.579-6.702c1.735-2.278,2.846-2.81,2.846-2.81c0.94-0.604,1.834-0.933,2.274-1.941
	c0.112-0.256,0.385-0.909,0.112-1.63c-0.292-0.775-1.01-1.089-1.162-1.152c0,0,0,0,0,0c-0.006,0-1.873-1.597-13.193-1.002
	l-0.087,0.004c-2.907,0.151-5.83,0.101-8.658,0.052c-1.385-0.024-2.818-0.049-4.217-0.049H11.216v-4.356H172.66
	c1.437,0,2.889,0.025,4.293,0.05c2.752,0.048,5.598,0.097,8.356-0.047l0.085-0.004c12.197-0.64,15.332,1.102,16.436,2.191
	c0.216,0.214,0.404,0.463,0.404,0.463c0.667,0.801,1.258,1.716,1.509,2.276c0.673,1.502,0.135,3.228-0.073,3.894
	c-0.564,1.809-1.54,3.153-3.306,4.61c-0.778,0.642-1.513,1.248-2.153,2.089c-1.293,1.698-1.57,3.576-1.735,4.698
	c-0.493,3.34,0.627,6.955,3.154,10.181l0.051,0.066c2.019,2.589,4.688,3.68,5.971,4.205c6.062,2.478,17.091,2.565,22.624-5.002
	c2.082-2.848,3.297-6.545,3.421-10.41c0.127-3.995-0.87-6.576-2.963-7.673l-0.303-0.157c-0.958-0.494-2.15-1.11-3.047-2.212
	c-1.713-2.104-1.573-5.269,0.311-7.057c1.839-1.745,4.506-1.632,6.452-1.55c0.435,0.019,0.843,0.036,1.184,0.03l8.382-0.138
	c1.015-0.017,2.156-0.005,3.478,0.01c3.156,0.034,41.889,0.08,47.382-0.28l-0.151,4.346c-5.658,0.371-44.052,0.324-47.277,0.289
	c-1.29-0.014-2.404-0.026-3.359-0.01l-8.383,0.138c-0.465,0.007-0.96-0.013-1.439-0.034c-1.105-0.047-2.771-0.117-3.271,0.358
	c-0.204,0.194-0.208,0.808,0.068,1.147c0.324,0.398,0.977,0.735,1.667,1.091l0.327,0.17c2.543,1.332,5.526,4.438,5.296,11.67
	c-0.151,4.733-1.663,9.294-4.258,12.842C227.503,68.38,220.553,70.849,213.848,70.849z"/>
<g>
	<g>
		<g>
			<path fill="#7275B6" d="M202.525,56.629l-2.827,3.288c-0.873-0.75-2.201-0.65-2.951,0.223c-0.75,0.873-0.65,2.201,0.223,2.951
				l-2.982,3.469l3.813-2.562c0.642,0.955,1.949,1.212,2.904,0.57c0.955-0.642,1.212-1.949,0.57-2.904l3.599-2.418
				C201.719,59.715,202.525,56.629,202.525,56.629z"/>
		</g>
	</g>
	<g>
		<path fill="#AEAAD4" stroke="#2551A2" stroke-width="0.3886" stroke-miterlimit="10" d="M199.74,59.94
			c-0.873-0.75-2.201-0.65-2.951,0.223c-0.75,0.873-0.65,2.201,0.223,2.951l-2.995,3.483l-0.456-0.392
			c-1.231-1.058-1.372-2.931-0.314-4.162l4.702-5.469c1.058-1.231,2.931-1.372,4.162-0.314l0.456,0.392L199.74,59.94z"/>
	</g>
	<g>
		<path fill="#AEAAD4" stroke="#2551A2" stroke-width="0.3886" stroke-miterlimit="10" d="M201.315,61.686
			c0.642,0.955,0.386,2.262-0.57,2.904c-0.955,0.642-2.262,0.386-2.904-0.57l-3.813,2.562l0.335,0.499
			c0.905,1.347,2.748,1.709,4.096,0.804l5.986-4.022c1.347-0.905,1.709-2.748,0.804-4.096l-0.335-0.499L201.315,61.686z"/>
	</g>
</g>
<g>
	<g>
		<g>
			<path fill="#7275B6" d="M220.204,59.689l2.895,3.228c-0.857,0.768-0.929,2.098-0.161,2.955c0.768,0.857,2.098,0.929,2.955,0.161
				l3.054,3.406l-2.047-4.112c1.03-0.513,1.454-1.776,0.941-2.806c-0.513-1.03-1.776-1.454-2.806-0.941l-1.933-3.881
				C223.161,60.887,220.204,59.689,220.204,59.689z"/>
		</g>
	</g>
	<g>
		<path fill="#AEAAD4" stroke="#2551A2" stroke-width="0.3886" stroke-miterlimit="10" d="M223.128,62.879
			c-0.857,0.768-0.929,2.098-0.161,2.955c0.768,0.857,2.098,0.929,2.955,0.161l3.066,3.42l-0.447,0.401
			c-1.209,1.084-3.084,0.981-4.168-0.227l-4.815-5.369c-1.084-1.209-0.981-3.084,0.227-4.168l0.447-0.401L223.128,62.879z"/>
	</g>
	<g>
		<path fill="#AEAAD4" stroke="#2551A2" stroke-width="0.3886" stroke-miterlimit="10" d="M225.063,61.542
			c1.03-0.513,2.293-0.09,2.806,0.941c0.513,1.03,0.09,2.293-0.941,2.806l2.047,4.112l0.538-0.268
			c1.453-0.723,2.05-2.504,1.327-3.957l-3.214-6.456c-0.723-1.453-2.504-2.05-3.957-1.327l-0.538,0.268L225.063,61.542z"/>
	</g>
</g>
<g>
	<g>
		<g>
			<path fill="#7275B6" d="M244.676,26.703l0.754,4.27c-1.133,0.2-1.897,1.291-1.697,2.425c0.2,1.133,1.291,1.897,2.425,1.697
				l0.795,4.505l0.432-4.573c1.146,0.108,2.172-0.741,2.28-1.886c0.108-1.146-0.741-2.172-1.886-2.28l0.408-4.317
				C246.553,29.282,244.676,26.703,244.676,26.703z"/>
		</g>
	</g>
	<g>
		<path fill="#AEAAD4" stroke="#2551A2" stroke-width="0.3886" stroke-miterlimit="10" d="M245.474,30.955
			c-1.133,0.2-1.897,1.291-1.697,2.425c0.2,1.133,1.291,1.897,2.425,1.697L247,39.6l-0.592,0.104
			c-1.599,0.282-3.137-0.795-3.419-2.393l-1.254-7.102c-0.282-1.599,0.795-3.137,2.393-3.419l0.592-0.104L245.474,30.955z"/>
	</g>
	<g>
		<path fill="#AEAAD4" stroke="#2551A2" stroke-width="0.3886" stroke-miterlimit="10" d="M247.823,30.842
			c1.146,0.108,1.995,1.135,1.886,2.28c-0.108,1.146-1.135,1.995-2.28,1.886l-0.432,4.573l0.598,0.057
			c1.616,0.153,3.063-1.044,3.216-2.66l0.679-7.18c0.153-1.616-1.044-3.063-2.66-3.216l-0.598-0.057L247.823,30.842z"/>
	</g>
</g>
<g>
	<g>
		<g>
			<path fill="#7275B6" d="M271.373,39.506l-0.754-4.27c1.133-0.2,1.897-1.291,1.697-2.425s-1.291-1.897-2.425-1.697l-0.795-4.505
				l-0.432,4.573c-1.146-0.108-2.172,0.741-2.28,1.886c-0.108,1.146,0.741,2.172,1.886,2.28l-0.408,4.317
				C269.495,36.927,271.373,39.506,271.373,39.506z"/>
		</g>
	</g>
	<g>
		<path fill="#AEAAD4" stroke="#2551A2" stroke-width="0.3886" stroke-miterlimit="10" d="M270.575,35.253
			c1.133-0.2,1.897-1.291,1.697-2.425s-1.291-1.897-2.425-1.697l-0.798-4.523l0.592-0.104c1.599-0.282,3.137,0.795,3.419,2.393
			l1.254,7.102c0.282,1.599-0.795,3.137-2.393,3.419l-0.592,0.104L270.575,35.253z"/>
	</g>
	<g>
		<path fill="#AEAAD4" stroke="#2551A2" stroke-width="0.3886" stroke-miterlimit="10" d="M268.225,35.367
			c-1.146-0.108-1.995-1.135-1.886-2.28c0.108-1.146,1.135-1.995,2.28-1.886l0.432-4.573l-0.598-0.057
			c-1.616-0.153-3.063,1.044-3.216,2.66l-0.679,7.18c-0.153,1.616,1.044,3.063,2.66,3.216l0.598,0.057L268.225,35.367z"/>
	</g>
</g>
<circle fill="#D70051" cx="238.899" cy="18.626" r="1.966"/>
<circle fill="#D70051" cx="244.345" cy="4.916" r="1.966"/>
<circle fill="#D70051" cx="251.503" cy="4.521" r="1.966"/>
<circle fill="#D70051" cx="234.967" cy="6.487" r="1.966"/>
<circle fill="#D70051" cx="262.579" cy="14.355" r="1.966"/>
<circle fill="#D70051" cx="255.435" cy="20.592" r="1.966"/>
<circle fill="#D70051" cx="246.996" cy="32.991" r="1.966"/>
<circle fill="#D70051" cx="269.361" cy="33.218" r="1.966"/>
<circle fill="#D70051" cx="264.408" cy="52.46" r="1.966"/>
<circle fill="#D70051" cx="276.324" cy="53.585" r="1.966"/>
<circle fill="#D70051" cx="271.327" cy="61.594" r="1.966"/>
<g>
	<g>
		<path fill="#EAF6F8" stroke="#ACCBD2" stroke-width="2.2892" stroke-miterlimit="10" d="M237.004,154.159
			c-12.357,0-22.41-9.576-22.41-21.346s10.053-21.346,22.41-21.346c12.357,0,22.41,9.576,22.41,21.346
			S249.361,154.159,237.004,154.159z M237.004,115.823c-9.955,0-18.054,7.622-18.054,16.99s8.099,16.99,18.054,16.99
			c9.955,0,18.054-7.622,18.054-16.99S246.959,115.823,237.004,115.823z"/>
	</g>
	<g>
		<g>
			<g>
				<path fill="#7275B6" d="M241.562,144.794l2.315,3.666c-0.973,0.615-1.267,1.914-0.652,2.887s1.914,1.267,2.887,0.652
					l2.442,3.868l-1.332-4.396c1.102-0.334,1.73-1.508,1.396-2.61c-0.334-1.102-1.508-1.73-2.61-1.396l-1.257-4.149
					C244.276,146.469,241.562,144.794,241.562,144.794z"/>
			</g>
		</g>
		<g>
			<path fill="#AEAAD4" stroke="#2551A2" stroke-width="0.3886" stroke-miterlimit="10" d="M243.911,148.427
				c-0.973,0.615-1.267,1.914-0.652,2.887c0.615,0.973,1.914,1.267,2.887,0.652l2.452,3.884l-0.508,0.321
				c-1.373,0.867-3.205,0.453-4.071-0.92l-3.85-6.098c-0.867-1.373-0.453-3.205,0.92-4.071l0.508-0.321L243.911,148.427z"/>
		</g>
		<g>
			<path fill="#AEAAD4" stroke="#2551A2" stroke-width="0.3886" stroke-miterlimit="10" d="M246.042,147.432
				c1.102-0.334,2.276,0.294,2.61,1.396c0.334,1.102-0.294,2.276-1.396,2.61l1.332,4.396l0.575-0.174
				c1.553-0.471,2.439-2.127,1.969-3.68l-2.091-6.902c-0.471-1.553-2.127-2.439-3.68-1.969l-0.575,0.174L246.042,147.432z"/>
		</g>
	</g>
	<g>
		<g>
			<g>
				<path fill="#7275B6" d="M248.752,126.073l3.197-2.929c0.778,0.849,2.108,0.907,2.957,0.129c0.849-0.778,0.907-2.108,0.129-2.957
					l3.373-3.09l-4.089,2.092c-0.524-1.025-1.791-1.434-2.816-0.91c-1.025,0.524-1.434,1.791-0.91,2.816l-3.86,1.974
					C249.918,123.104,248.752,126.073,248.752,126.073z"/>
			</g>
		</g>
		<g>
			<path fill="#AEAAD4" stroke="#2551A2" stroke-width="0.3886" stroke-miterlimit="10" d="M251.91,123.116
				c0.778,0.849,2.108,0.907,2.957,0.129c0.849-0.778,0.907-2.108,0.129-2.957l3.387-3.103l0.406,0.443
				c1.097,1.197,1.015,3.073-0.182,4.17l-5.317,4.872c-1.197,1.097-3.073,1.015-4.17-0.182l-0.406-0.443L251.91,123.116z"/>
		</g>
		<g>
			<path fill="#AEAAD4" stroke="#2551A2" stroke-width="0.3886" stroke-miterlimit="10" d="M250.552,121.195
				c-0.524-1.025-0.114-2.292,0.91-2.816s2.292-0.114,2.816,0.91l4.09-2.092l-0.274-0.535c-0.739-1.445-2.526-2.023-3.971-1.284
				l-6.421,3.284c-1.445,0.739-2.023,2.526-1.284,3.971l0.274,0.535L250.552,121.195z"/>
		</g>
	</g>
	<g>
		<g>
			<g>
				<path fill="#7275B6" d="M223.725,130.142h-4.336c0-1.151-0.942-2.093-2.093-2.093s-2.093,0.942-2.093,2.093h-4.574l4.428,1.221
					c-0.306,1.11,0.352,2.268,1.461,2.574c1.11,0.306,2.268-0.352,2.574-1.461l4.18,1.152
					C220.86,131.543,223.725,130.142,223.725,130.142z"/>
			</g>
		</g>
		<g>
			<path fill="#AEAAD4" stroke="#2551A2" stroke-width="0.3886" stroke-miterlimit="10" d="M219.399,130.189
				c0-1.151-0.942-2.093-2.093-2.093s-2.093,0.942-2.093,2.093h-4.593v-0.601c0-1.623,1.328-2.951,2.951-2.951h7.212
				c1.623,0,2.951,1.328,2.951,2.951v0.601H219.399z"/>
		</g>
		<g>
			<path fill="#AEAAD4" stroke="#2551A2" stroke-width="0.3886" stroke-miterlimit="10" d="M219.102,132.522
				c-0.306,1.11-1.464,1.767-2.574,1.461s-1.767-1.464-1.461-2.574l-4.428-1.221l-0.16,0.579c-0.431,1.565,0.496,3.198,2.061,3.63
				l6.953,1.917c1.565,0.431,3.198-0.496,3.63-2.061l0.16-0.579L219.102,132.522z"/>
		</g>
	</g>
	<g>
		<g>
			<path d="M256.062,154.003c-0.537,0-0.953-0.141-1.248-0.424c-0.295-0.282-0.441-0.724-0.441-1.322v-0.108
				c0-0.321,0.046-0.602,0.139-0.84c0.092-0.238,0.221-0.424,0.385-0.558c0.165-0.134,0.346-0.23,0.545-0.293
				c0.198-0.062,0.418-0.092,0.657-0.092c0.384,0,0.706,0.068,0.966,0.205v0.504c-0.298-0.131-0.614-0.195-0.95-0.195
				c-0.716,0-1.073,0.405-1.073,1.218v0.159c0,0.403,0.072,0.713,0.218,0.927s0.412,0.321,0.799,0.321
				c0.199,0,0.379-0.025,0.54-0.077v-0.802h-0.653v-0.473h1.27v1.634C256.857,153.932,256.473,154.003,256.062,154.003z"/>
			<path d="M257.937,153.947v-3.523h0.632v3.025h1.49v0.498H257.937z"/>
			<path d="M263.005,153.688c-0.217,0.214-0.552,0.32-1.004,0.32s-0.797-0.107-1.032-0.323c-0.236-0.216-0.354-0.539-0.354-0.971
				v-2.291h0.642v2.25c0,0.312,0.062,0.532,0.188,0.662c0.125,0.131,0.319,0.195,0.583,0.195c0.257,0,0.444-0.064,0.562-0.192
				c0.118-0.129,0.178-0.351,0.178-0.665v-2.25h0.564v2.271C263.332,153.142,263.223,153.474,263.005,153.688z"/>
			<path d="M264.878,153.947v-3.025h-1.012v-0.498h2.646v0.498h-1.002v3.025H264.878z"/>
			<path d="M266.943,152.771v-0.493h1.413v0.493H266.943z"/>
			<path d="M270.334,154.003v-0.719h-1.618v-0.37l1.783-2.491h0.432v2.394h0.519v0.468h-0.519v0.719H270.334z M269.404,152.817
				h0.936v-1.325L269.404,152.817z"/>
		</g>
	</g>
</g>
<g>
	<g>
		<path d="M192.085,201.707v-3.523h2.198v0.498h-1.566v0.966h1.218v0.493h-1.218v1.068h1.598v0.498H192.085z"/>
		<path d="M194.719,201.707l0.863-1.355l-0.816-1.29h0.683l0.561,0.915l0.509-0.915h0.611l-0.781,1.284l0.853,1.361h-0.693
			l-0.58-0.96l-0.591,0.96H194.719z"/>
		<path d="M198.757,201.753c-0.4,0-0.71-0.116-0.928-0.347c-0.217-0.231-0.326-0.555-0.326-0.969v-0.082
			c0-0.418,0.115-0.746,0.345-0.984c0.229-0.237,0.534-0.356,0.914-0.356c0.397,0,0.705,0.115,0.923,0.347
			c0.217,0.231,0.326,0.558,0.326,0.979v0.072c0,0.418-0.115,0.745-0.345,0.983S199.134,201.753,198.757,201.753z M198.767,201.306
			c0.418,0,0.627-0.281,0.627-0.843v-0.128c0-0.322-0.057-0.548-0.172-0.679c-0.114-0.13-0.271-0.195-0.47-0.195
			c-0.206,0-0.364,0.072-0.476,0.216c-0.111,0.145-0.167,0.356-0.167,0.638v0.123c0,0.318,0.059,0.543,0.175,0.673
			S198.562,201.306,198.767,201.306z"/>
		<path d="M201.671,201.753c-0.397,0-0.707-0.111-0.93-0.334s-0.334-0.548-0.334-0.977v-0.082c0-0.438,0.119-0.772,0.357-1.002
			c0.237-0.229,0.548-0.344,0.932-0.344c0.291,0,0.534,0.053,0.729,0.159v0.462c-0.243-0.096-0.474-0.144-0.693-0.144
			c-0.223,0-0.397,0.069-0.523,0.208c-0.127,0.139-0.19,0.338-0.19,0.599v0.118c0,0.298,0.062,0.517,0.185,0.655
			c0.124,0.139,0.313,0.208,0.57,0.208c0.216,0,0.442-0.055,0.679-0.165v0.432C202.236,201.685,201.975,201.753,201.671,201.753z"/>
		<path d="M203.268,202.467c-0.168,0-0.297-0.029-0.386-0.088v-0.396c0.075,0.018,0.161,0.026,0.257,0.026
			c0.131,0,0.234-0.022,0.312-0.067c0.076-0.044,0.138-0.126,0.182-0.246l0.072-0.186l-0.997-2.45h0.627l0.668,1.716h0.021
			l0.616-1.716h0.57l-1.022,2.718c-0.085,0.25-0.198,0.427-0.339,0.531S203.514,202.467,203.268,202.467z"/>
		<path d="M206.561,201.738c-0.5,0-0.75-0.228-0.75-0.684v-1.53h-0.37v-0.463h0.37v-0.621h0.58v0.621h0.632v0.463h-0.632v1.448
			c0,0.113,0.026,0.192,0.077,0.236c0.052,0.045,0.146,0.066,0.282,0.066c0.104,0,0.204-0.014,0.304-0.041v0.396
			C206.911,201.702,206.746,201.738,206.561,201.738z"/>
		<path d="M208.698,201.753c-0.4,0-0.71-0.116-0.928-0.347c-0.217-0.231-0.326-0.555-0.326-0.969v-0.082
			c0-0.418,0.115-0.746,0.345-0.984c0.229-0.237,0.534-0.356,0.914-0.356c0.397,0,0.705,0.115,0.923,0.347
			c0.217,0.231,0.326,0.558,0.326,0.979v0.072c0,0.418-0.115,0.745-0.345,0.983S209.075,201.753,208.698,201.753z M208.708,201.306
			c0.418,0,0.627-0.281,0.627-0.843v-0.128c0-0.322-0.057-0.548-0.172-0.679c-0.114-0.13-0.271-0.195-0.47-0.195
			c-0.206,0-0.364,0.072-0.476,0.216c-0.111,0.145-0.167,0.356-0.167,0.638v0.123c0,0.318,0.059,0.543,0.175,0.673
			S208.503,201.306,208.708,201.306z"/>
		<path d="M211.22,201.748c-0.36,0-0.651-0.06-0.874-0.18v-0.432c0.277,0.11,0.54,0.165,0.786,0.165c0.35,0,0.524-0.106,0.524-0.318
			c0-0.097-0.029-0.17-0.088-0.222c-0.058-0.051-0.159-0.092-0.303-0.123l-0.246-0.057c-0.216-0.044-0.383-0.126-0.499-0.244
			s-0.175-0.29-0.175-0.516c0-0.25,0.083-0.446,0.247-0.589c0.164-0.142,0.409-0.213,0.734-0.213c0.291,0,0.545,0.048,0.761,0.144
			v0.447c-0.223-0.096-0.459-0.144-0.709-0.144c-0.315,0-0.473,0.103-0.473,0.308c0,0.09,0.026,0.156,0.079,0.201
			c0.054,0.044,0.145,0.082,0.275,0.112l0.252,0.057c0.26,0.059,0.444,0.146,0.555,0.265c0.109,0.118,0.164,0.29,0.164,0.517
			c0,0.271-0.087,0.475-0.26,0.613S211.548,201.748,211.22,201.748z"/>
		<path d="M212.792,198.625v-0.539h0.602v0.539H212.792z M212.792,201.707v-2.646h0.597v2.646H212.792z"/>
		<path d="M214.827,201.748c-0.36,0-0.651-0.06-0.874-0.18v-0.432c0.277,0.11,0.54,0.165,0.786,0.165
			c0.35,0,0.524-0.106,0.524-0.318c0-0.097-0.029-0.17-0.088-0.222c-0.058-0.051-0.159-0.092-0.303-0.123l-0.246-0.057
			c-0.216-0.044-0.383-0.126-0.499-0.244s-0.175-0.29-0.175-0.516c0-0.25,0.083-0.446,0.247-0.589
			c0.164-0.142,0.409-0.213,0.734-0.213c0.291,0,0.545,0.048,0.761,0.144v0.447c-0.223-0.096-0.459-0.144-0.709-0.144
			c-0.315,0-0.473,0.103-0.473,0.308c0,0.09,0.026,0.156,0.079,0.201c0.054,0.044,0.145,0.082,0.275,0.112l0.252,0.057
			c0.26,0.059,0.444,0.146,0.555,0.265c0.109,0.118,0.164,0.29,0.164,0.517c0,0.271-0.087,0.475-0.26,0.613
			S215.155,201.748,214.827,201.748z"/>
	</g>
</g>
<g>
	<g>
		<path fill="#1D2088" d="M110.574,30.3c0.708,0.073,0.928-0.194,0.97-0.251c0.179-0.238,0.028-0.684-0.277-1.561
			c-0.253-0.73-0.38-1.095-0.598-1.369c-0.394-0.495-0.681-0.48-0.848-0.925c-0.138-0.369-0.074-0.732-0.019-1.041
			c0.078-0.444,0.184-0.458,0.328-0.983c0.123-0.449,0.242-0.887,0.096-1.369c-0.032-0.106-0.22-0.726-0.617-0.81
			c-0.614-0.129-1.305,1.121-1.388,1.272c-0.905,1.639-0.398,3.379-0.347,3.547c0.129,0.421,0.465,1.516,1.523,2.197
			c0.405,0.261,0.794,0.382,1.06,0.443"/>
		<path fill="#FFF100" d="M109.105,29.606c-0.433,0.294-0.466,1.06-0.034,4.607c0.2,1.646,0.329,2.48-0.193,2.969
			c-0.347,0.325-0.609,0.149-1.253,0.443c-0.795,0.363-1.82,1.283-1.908,2.602c-0.101,1.504,1.086,2.466,1.137,2.506
			c0.772,0.604,1.908,0.864,2.853,0.443c0.583-0.259,1.299-0.868,1.195-1.369c-0.137-0.664-1.631-0.715-1.638-1.234
			c-0.003-0.189,0.223-0.357,0.675-0.694c0.641-0.478,1.02-0.539,1.06-0.829c0.027-0.192-0.128-0.24-0.289-0.578
			c-0.229-0.481-0.113-0.797-0.167-1.482c-0.046-0.591-0.177-0.925-0.257-1.255c-0.527-2.178,0.88-5.412-0.154-6.13
			C109.837,29.402,109.377,29.422,109.105,29.606z"/>
	</g>
	<g>
		<path fill="#1D2088" d="M112.669,30.145c-0.708,0.073-0.928-0.194-0.97-0.251c-0.179-0.238-0.028-0.684,0.277-1.561
			c0.253-0.73,0.38-1.095,0.598-1.369c0.394-0.495,0.681-0.48,0.848-0.925c0.138-0.369,0.074-0.732,0.019-1.041
			c-0.078-0.444-0.184-0.458-0.328-0.983c-0.123-0.449-0.242-0.887-0.096-1.369c0.032-0.106,0.22-0.726,0.617-0.81
			c0.614-0.129,1.305,1.121,1.388,1.272c0.905,1.639,0.398,3.379,0.347,3.547c-0.129,0.421-0.465,1.516-1.523,2.197
			c-0.405,0.261-0.794,0.382-1.06,0.443"/>
		<path fill="#FFF100" d="M114.138,29.451c0.433,0.294,0.466,1.06,0.034,4.607c-0.2,1.646-0.329,2.48,0.193,2.969
			c0.347,0.325,0.609,0.149,1.253,0.443c0.795,0.363,1.82,1.283,1.908,2.602c0.101,1.504-1.086,2.466-1.137,2.506
			c-0.772,0.604-1.908,0.864-2.853,0.443c-0.583-0.259-1.299-0.868-1.195-1.369c0.137-0.664,1.631-0.715,1.638-1.234
			c0.003-0.189-0.223-0.357-0.675-0.694c-0.641-0.478-1.02-0.539-1.06-0.829c-0.027-0.192,0.128-0.24,0.289-0.578
			c0.229-0.481,0.113-0.797,0.167-1.482c0.046-0.591,0.177-0.925,0.257-1.255c0.527-2.178-0.88-5.412,0.154-6.13
			C113.405,29.248,113.866,29.267,114.138,29.451z"/>
	</g>
</g>
<circle fill="#009944" cx="96.604" cy="24.479" r="2.651"/>
<circle fill="#009944" cx="105.71" cy="15.591" r="2.651"/>
<circle fill="#009944" cx="117.532" cy="15.591" r="2.651"/>
<circle fill="#009944" cx="122.835" cy="5.756" r="2.651"/>
<circle fill="#009944" cx="111.621" cy="23.794" r="2.651"/>
<g>
	<path d="M128.339,5.021c0-0.329,0.114-0.599,0.342-0.812c0.228-0.212,0.526-0.319,0.896-0.319c0.373,0,0.673,0.106,0.899,0.319
		s0.339,0.483,0.339,0.812c0,0.332-0.113,0.603-0.339,0.812c-0.226,0.209-0.526,0.313-0.899,0.313c-0.374,0-0.673-0.104-0.899-0.313
		C128.452,5.624,128.339,5.353,128.339,5.021z M132.079,8.005h-3.175V6.541h0.606v0.992h2.569V8.005z M128.956,5.021
		c0,0.185,0.056,0.336,0.169,0.455c0.113,0.118,0.264,0.177,0.452,0.177c0.195,0,0.348-0.059,0.459-0.177s0.167-0.27,0.167-0.455
		c0-0.178-0.056-0.325-0.169-0.442c-0.113-0.116-0.265-0.175-0.457-0.175c-0.188,0-0.339,0.059-0.452,0.175
		C129.012,4.695,128.956,4.842,128.956,5.021z M131.976,6.87h-0.596V3.551h0.596V6.87z"/>
	<path d="M136.389,8.108h-3.221V6.967h2.461V6.736h-2.492V6.259h0.544v-0.35h-1.042V5.452h4.135v0.457h-1.053v0.35h0.509v1.13
		h-2.466V7.62h2.625V8.108z M134.71,4.322c-0.117,0.243-0.33,0.451-0.64,0.624c-0.31,0.173-0.642,0.285-0.994,0.337l-0.247-0.458
		c0.264-0.027,0.512-0.089,0.745-0.185c0.233-0.096,0.429-0.229,0.588-0.4s0.239-0.361,0.239-0.57V3.608h0.622v0.062
		c0,0.209,0.087,0.402,0.262,0.581s0.38,0.315,0.616,0.411c0.236,0.096,0.469,0.151,0.699,0.165l-0.257,0.462
		c-0.325-0.048-0.65-0.163-0.976-0.344C135.042,4.762,134.822,4.555,134.71,4.322z M134.283,5.909v0.35h0.833v-0.35H134.283z"/>
	<path d="M139.769,5.719l0.057,0.457c-0.185,0.048-0.465,0.086-0.84,0.116s-0.727,0.043-1.056,0.043c-0.072,0-0.176,0-0.311-0.002
		c-0.135-0.001-0.237-0.002-0.306-0.002v-1.49h1.459V4.348h-1.469V3.87h2.076v1.423h-1.464v0.565
		C138.819,5.858,139.437,5.812,139.769,5.719z M140.982,8.031h-3.169V6.659h0.606v0.894h2.563V8.031z M140.863,6.87h-0.601V3.551
		h0.601V6.87z"/>
</g>
<g>
	<path d="M32.025,10.568c-0.041,0.051-0.1,0.126-0.177,0.226c-0.077,0.099-0.136,0.173-0.177,0.221
		c-0.209-0.133-0.419-0.322-0.632-0.565s-0.354-0.481-0.426-0.714c-0.076,0.257-0.216,0.515-0.421,0.773s-0.426,0.458-0.663,0.599
		c-0.168-0.206-0.292-0.351-0.37-0.437c0.757-0.486,1.135-1.195,1.135-2.126V7.917h0.622v0.596c0,0.445,0.097,0.843,0.291,1.192
		C31.399,10.055,31.671,10.342,32.025,10.568z M32.846,7.532v1.762h0.658v0.493h-0.658v2.322h-0.596V7.532H32.846z"/>
	<path d="M34.159,10.666c-0.211-0.298-0.316-0.692-0.316-1.182s0.105-0.885,0.316-1.187c0.21-0.302,0.499-0.452,0.865-0.452
		c0.37,0,0.66,0.15,0.871,0.452c0.21,0.301,0.316,0.697,0.316,1.187c0,0.486-0.105,0.879-0.316,1.179
		c-0.211,0.3-0.501,0.45-0.871,0.45C34.658,11.113,34.37,10.964,34.159,10.666z M35.636,9.484c0-0.356-0.057-0.638-0.17-0.845
		c-0.113-0.207-0.26-0.311-0.442-0.311c-0.174,0-0.317,0.104-0.429,0.311c-0.111,0.208-0.167,0.489-0.167,0.845
		c0,0.353,0.056,0.632,0.167,0.837s0.254,0.308,0.429,0.308c0.182,0,0.329-0.103,0.442-0.308
		C35.58,10.116,35.636,9.837,35.636,9.484z M37.496,12.109H36.9V7.532h0.596V12.109z"/>
	<path d="M41.821,10.281h-1.305v0.781h1.777v0.473h-4.135v-0.473h1.757v-0.781h-1.233v-2.43h3.098v0.478h-2.497v0.508h2.342V9.31
		h-2.342v0.493h2.538V10.281z"/>
	<path d="M44.944,7.995c0,1.531-0.678,2.647-2.034,3.35l-0.37-0.427c0.668-0.308,1.16-0.764,1.475-1.366L42.746,9.69
		c-0.031-0.212-0.058-0.385-0.082-0.519l1.551-0.113c0.051-0.199,0.084-0.387,0.098-0.565H42.89V7.995H44.944z M46.177,7.532v1.757
		h0.642v0.499h-0.642v2.322h-0.596V7.532H46.177z"/>
	<path d="M47.189,9.001c0-0.329,0.114-0.599,0.342-0.812c0.228-0.212,0.526-0.319,0.896-0.319c0.373,0,0.673,0.106,0.899,0.319
		s0.339,0.483,0.339,0.812c0,0.332-0.113,0.603-0.339,0.812c-0.226,0.209-0.526,0.313-0.899,0.313c-0.374,0-0.673-0.104-0.899-0.313
		C47.302,9.604,47.189,9.333,47.189,9.001z M50.929,11.986h-3.175v-1.464h0.606v0.992h2.569V11.986z M47.806,9.001
		c0,0.185,0.056,0.336,0.169,0.455c0.113,0.118,0.264,0.177,0.452,0.177c0.195,0,0.348-0.059,0.459-0.177s0.167-0.27,0.167-0.455
		c0-0.178-0.056-0.325-0.169-0.442c-0.113-0.116-0.265-0.175-0.457-0.175c-0.188,0-0.339,0.059-0.452,0.175
		C47.862,8.676,47.806,8.823,47.806,9.001z M50.826,10.851h-0.596V7.532h0.596V10.851z"/>
	<path d="M51.34,12.027l1.228-4.362h0.514l-1.223,4.362H51.34z"/>
	<path d="M54.325,11.493V8.467h-1.012V7.969h2.646v0.499h-1.001v3.026H54.325z"/>
	<path d="M56.524,11.493V7.969h0.632v3.026h1.49v0.499H56.524z"/>
	<path d="M59.231,11.493V7.969h1.182c0.818,0,1.228,0.344,1.228,1.033c0,0.442-0.212,0.745-0.637,0.909v0.026l0.874,1.557h-0.688
		l-0.786-1.423h-0.54v1.423H59.231z M59.862,9.633h0.483c0.226,0,0.39-0.05,0.491-0.149s0.151-0.253,0.151-0.462
		c0-0.199-0.051-0.342-0.154-0.432c-0.103-0.089-0.267-0.133-0.493-0.133h-0.478V9.633z"/>
	<path d="M63.736,11.549V10.83h-1.618v-0.37L63.9,7.969h0.432v2.394h0.519v0.467h-0.519v0.719H63.736z M62.806,10.363h0.935V9.038
		L62.806,10.363z"/>
	<path d="M42.91,18.279h-0.606v-1.628h-1.751v-0.473h4.135v0.473H42.91V18.279z M44.518,15.31l-0.262,0.488
		c-0.346-0.051-0.677-0.176-0.994-0.375c-0.316-0.199-0.53-0.421-0.639-0.668c-0.1,0.247-0.306,0.468-0.619,0.666
		c-0.313,0.197-0.648,0.324-1.004,0.383l-0.257-0.493c0.418-0.045,0.783-0.187,1.094-0.427s0.467-0.524,0.467-0.853v-0.236h0.637
		v0.236c0,0.219,0.081,0.425,0.244,0.616c0.163,0.192,0.363,0.344,0.601,0.458C44.024,15.217,44.268,15.286,44.518,15.31z"/>
	<path d="M45.463,14.683c0-0.26,0.141-0.473,0.424-0.637c0.283-0.164,0.674-0.247,1.174-0.247c0.503,0,0.896,0.083,1.179,0.247
		c0.282,0.165,0.424,0.377,0.424,0.637c0,0.294-0.173,0.522-0.519,0.683v0.54h0.986v0.478h-4.135v-0.478h0.966v-0.555
		C45.629,15.187,45.463,14.964,45.463,14.683z M48.659,17.421c0,0.267-0.14,0.477-0.418,0.629c-0.279,0.153-0.67,0.229-1.174,0.229
		s-0.895-0.076-1.174-0.229c-0.279-0.152-0.419-0.362-0.419-0.629c0-0.26,0.14-0.467,0.419-0.619
		c0.279-0.152,0.668-0.229,1.168-0.229c0.503,0,0.896,0.076,1.176,0.229S48.659,17.161,48.659,17.421z M46.085,14.683
		c0,0.123,0.087,0.224,0.262,0.3c0.174,0.077,0.413,0.116,0.714,0.116c0.298,0,0.537-0.039,0.717-0.116
		c0.18-0.077,0.27-0.177,0.27-0.3c0-0.126-0.087-0.229-0.262-0.308c-0.175-0.079-0.417-0.118-0.725-0.118
		c-0.305,0-0.543,0.039-0.717,0.118C46.171,14.454,46.085,14.557,46.085,14.683z M47.778,17.701
		c0.176-0.067,0.265-0.158,0.265-0.275c0-0.116-0.088-0.208-0.265-0.275c-0.177-0.066-0.416-0.1-0.717-0.1
		c-0.298,0-0.534,0.034-0.709,0.1c-0.175,0.067-0.262,0.159-0.262,0.275c0,0.117,0.087,0.208,0.262,0.275s0.411,0.1,0.709,0.1
		C47.362,17.801,47.601,17.768,47.778,17.701z M47.066,15.562c-0.154,0-0.322-0.012-0.503-0.036v0.38h0.981v-0.375
		C47.393,15.551,47.234,15.562,47.066,15.562z"/>
	<path d="M51.69,16.892l-0.339,0.426c-0.157-0.092-0.316-0.235-0.475-0.429s-0.266-0.388-0.321-0.583
		c-0.055,0.209-0.165,0.419-0.329,0.632c-0.164,0.212-0.342,0.373-0.534,0.483l-0.365-0.406c0.305-0.195,0.533-0.426,0.683-0.691
		c0.151-0.265,0.235-0.6,0.252-1.004h-0.75v-0.478h2.06v0.478h-0.719C50.886,16.063,51.166,16.587,51.69,16.892z M51.16,14.539
		h-1.197v-0.473h1.197V14.539z M52.45,18.063h-0.565v-1.973h-0.565v-0.483h0.565v-1.824h0.565V18.063z M53.334,18.274h-0.57v-4.577
		h0.57V18.274z"/>
</g>
<g>
	<path d="M266.87,4.352h-4.136V3.879h1.757V2.995h-1.377V2.518h0.673l-0.128-1.053l0.601-0.077l0.093,1.13h0.914l0.165-1.12
		l0.58,0.098l-0.19,1.022h0.647v0.478h-1.377v0.884h1.778V4.352z M266.479,1.171h-3.375V0.694h3.375V1.171z"/>
	<path d="M270.809,2.821h-1.274v1.058h1.778v0.473h-4.136V3.879h1.757V2.821h-1.223V0.684h3.072v0.478h-2.472v1.182h2.497V2.821z"/>
	<path d="M272.367,2.302c0.784,0,1.387-0.046,1.808-0.139l0.067,0.462c-0.47,0.106-1.145,0.159-2.024,0.159h-0.447V0.694h2.04v0.478
		h-1.443V2.302z M275.254,4.002c0,0.281-0.139,0.503-0.416,0.668s-0.663,0.247-1.156,0.247c-0.489,0-0.872-0.082-1.147-0.247
		c-0.276-0.165-0.414-0.387-0.414-0.668c0-0.288,0.138-0.514,0.414-0.678c0.275-0.165,0.658-0.247,1.147-0.247
		c0.497,0,0.883,0.082,1.159,0.247C275.116,3.488,275.254,3.714,275.254,4.002z M274.382,4.323c0.166-0.077,0.249-0.184,0.249-0.321
		c0-0.137-0.083-0.245-0.249-0.323c-0.166-0.079-0.399-0.118-0.701-0.118c-0.298,0-0.529,0.039-0.696,0.118
		c-0.166,0.079-0.249,0.187-0.249,0.323c0,0.137,0.083,0.244,0.249,0.321c0.167,0.077,0.398,0.116,0.696,0.116
		C273.983,4.439,274.216,4.4,274.382,4.323z M275.844,1.952h-0.647v1.074h-0.606V0.35h0.606v1.115h0.647V1.952z"/>
</g>
<g>
	<path fill="#EAF6F8" d="M201.511,175.528c0,0,23.274,1.94,32.996-11.993"/>
	<g>
		<path fill="none" stroke="#000000" stroke-width="3" stroke-miterlimit="10" d="M201.511,175.528c0,0,16.983,1.415,27.994-6.856"
			/>
		<g>
			<polygon points="230.045,174.062 228.304,169.559 223.854,167.686 234.507,163.536 			"/>
		</g>
	</g>
</g>
<g>
	<path fill="#EAF6F8" d="M238.712,104.071c0,0,3.782-15.08-8.065-25.746"/>
	<g>
		<path fill="none" stroke="#000000" stroke-width="3" stroke-miterlimit="10" d="M238.712,104.071c0,0,2.651-10.571-3.439-20.271"
			/>
		<g>
			<polygon points="240.722,83.729 236.079,85.052 233.807,89.312 230.647,78.325 			"/>
		</g>
	</g>
</g>
<g>
	<g>
		<path fill="none" stroke="#000000" stroke-width="3" stroke-miterlimit="10" d="M220.204,53.585c0,0-8.378-23.1,7.6-26.59"/>
		<g>
			<polygon points="224.784,31.883 226.344,27.314 224.138,23.019 234.967,26.686 			"/>
		</g>
	</g>
</g>
<g>
	<g>
		<line fill="none" stroke="#000000" stroke-width="3" stroke-miterlimit="10" x1="246.687" y1="8.453" x2="246.687" y2="19.362"/>
		<g>
			<polygon points="242.243,15.991 246.687,17.879 251.131,15.991 246.687,26.525 			"/>
		</g>
	</g>
</g>
<g>
	<g>
		<line fill="none" stroke="#000000" stroke-width="3" stroke-miterlimit="10" x1="269.361" y1="41.992" x2="269.361" y2="49.922"/>
		<g>
			<polygon points="264.917,46.551 269.361,48.439 273.805,46.551 269.361,57.085 			"/>
		</g>
	</g>
</g>
<circle fill="#EAF5FA" stroke="#97A5C2" stroke-miterlimit="10" cx="122.091" cy="39.683" r="4.558"/>
<path fill="#DBECD4" stroke="#006935" stroke-miterlimit="10" d="M139.699,43.518h-9.055c-2.197,0-3.995-1.798-3.995-3.995v0
	c0-2.197,1.798-3.995,3.995-3.995h9.055c2.197,0,3.995,1.798,3.995,3.995v0C143.694,41.72,141.896,43.518,139.699,43.518z"/>
<path fill="#F7DFDC" stroke="#87353C" stroke-miterlimit="10" d="M176.126,104.247h-13.24c-3.212,0-5.841-2.628-5.841-5.841v0
	c0-3.212,2.628-5.841,5.841-5.841h13.24c3.212,0,5.841,2.628,5.841,5.841v0C181.967,101.618,179.339,104.247,176.126,104.247z"/>
<ellipse fill="#FCEFDF" stroke="#F39800" stroke-miterlimit="10" cx="149.356" cy="31.252" rx="7.071" ry="5.068"/>
<ellipse fill="#F0D5E7" stroke="#601986" stroke-miterlimit="10" cx="168.921" cy="31.252" rx="7.071" ry="5.068"/>
<ellipse fill="#DBEBF8" stroke="#182A88" stroke-miterlimit="10" cx="168.921" cy="43.228" rx="11.6" ry="5.745"/>
<ellipse fill="#D9D9ED" stroke="#43425F" stroke-miterlimit="10" cx="169.507" cy="74.862" rx="13.08" ry="6.478"/>
<circle fill="#D0EAE6" stroke="#44776D" stroke-miterlimit="10" cx="186.299" cy="90.234" r="6.576"/>
<circle fill="#E5E5E7" stroke="#595857" stroke-miterlimit="10" cx="186.299" cy="105.708" r="6.576"/>
<g>
	<g>
		<path fill="none" stroke="#3F3B3A" stroke-miterlimit="10" d="M151.638,24.594c0-3.813,3.506-6.903,7.83-6.903
			c1.916,0,3.671,0.606,5.031,1.613"/>
		<g>
			<polygon fill="#3F3B3A" points="159.489,19.137 163.461,18.496 165.758,15.192 167.299,24.594 			"/>
		</g>
	</g>
</g>
<g>
	<g>
		<line fill="none" stroke="#3F3B3A" stroke-miterlimit="10" x1="169.507" y1="51.619" x2="169.507" y2="59.139"/>
		<g>
			<polygon fill="#3F3B3A" points="165.803,56.33 169.507,57.903 173.21,56.33 169.507,65.109 			"/>
		</g>
	</g>
</g>
<g>
	<g>
		<line fill="none" stroke="#3F3B3A" stroke-miterlimit="10" x1="169.507" y1="82.614" x2="169.507" y2="89.734"/>
		<g>
			<rect x="166.257" y="89.234" fill="#3F3B3A" width="6.5" height="1"/>
		</g>
	</g>
</g>
<g>
	<path fill="#EAF6F8" d="M168.087,113.927c0,0-4.747,22.867,7.904,34.207"/>
	<g>
		<path fill="none" stroke="#000000" stroke-width="3" stroke-miterlimit="10" d="M168.087,113.927c0,0-3.464,16.686,3.412,28.619"
			/>
		<g>
			<polygon points="166.083,142.429 170.765,141.246 173.163,137.056 175.991,148.134 			"/>
		</g>
	</g>
</g>
<g>
	<path d="M119.077,41.781v-3.523h0.637v3.523H119.077z"/>
	<path d="M120.562,41.781v-3.523h1.182c0.818,0,1.228,0.344,1.228,1.032c0,0.441-0.212,0.745-0.637,0.909v0.025l0.874,1.557h-0.688
		l-0.786-1.423h-0.54v1.423H120.562z M121.193,39.922h0.483c0.226,0,0.39-0.05,0.491-0.149c0.101-0.099,0.151-0.253,0.151-0.462
		c0-0.198-0.051-0.343-0.154-0.432c-0.103-0.089-0.267-0.134-0.493-0.134h-0.478V39.922z"/>
	<path d="M125.522,41.558c-0.211,0.19-0.525,0.285-0.943,0.285s-0.769-0.075-1.053-0.226v-0.498
		c0.329,0.144,0.663,0.216,1.002,0.216c0.449,0,0.673-0.172,0.673-0.514c0-0.145-0.037-0.252-0.11-0.324
		c-0.074-0.071-0.208-0.139-0.403-0.2l-0.334-0.093c-0.264-0.075-0.463-0.189-0.598-0.344c-0.136-0.154-0.203-0.373-0.203-0.657
		c0-0.309,0.1-0.553,0.3-0.732c0.201-0.18,0.494-0.27,0.881-0.27c0.366,0,0.669,0.063,0.909,0.189v0.493
		c-0.277-0.116-0.577-0.174-0.899-0.174c-0.185,0-0.327,0.037-0.426,0.112c-0.1,0.075-0.149,0.184-0.149,0.324
		s0.032,0.245,0.095,0.315s0.183,0.13,0.357,0.178l0.329,0.103c0.301,0.086,0.524,0.203,0.67,0.352
		c0.146,0.149,0.218,0.371,0.218,0.665C125.837,41.102,125.732,41.368,125.522,41.558z"/>
</g>
<g>
	<path d="M130.355,41.633v-3.523h1.233c0.411,0,0.721,0.092,0.93,0.277c0.208,0.185,0.313,0.453,0.313,0.807
		c0,0.359-0.107,0.636-0.321,0.829c-0.214,0.193-0.508,0.29-0.881,0.29h-0.642v1.32H130.355z M130.986,39.84h0.524
		c0.233,0,0.401-0.049,0.504-0.148c0.103-0.1,0.154-0.254,0.154-0.463c0-0.229-0.05-0.392-0.149-0.487s-0.266-0.145-0.499-0.145
		h-0.534V39.84z"/>
	<path d="M133.432,41.633v-3.523h0.637v3.523H133.432z"/>
	<path d="M135.712,41.685c-0.202,0-0.398-0.024-0.588-0.072c-0.19-0.048-0.338-0.105-0.444-0.175l0.103-0.457
		c0.089,0.055,0.215,0.103,0.377,0.142s0.311,0.059,0.444,0.059c0.24,0,0.425-0.049,0.555-0.148c0.13-0.1,0.195-0.247,0.195-0.442
		c0-0.349-0.243-0.527-0.729-0.534l-0.365-0.01v-0.457l0.324-0.006c0.206-0.007,0.37-0.056,0.493-0.146
		c0.123-0.09,0.185-0.216,0.185-0.377c0-0.322-0.209-0.483-0.627-0.483c-0.233,0-0.483,0.062-0.75,0.186l-0.072-0.468
		c0.109-0.062,0.258-0.114,0.447-0.156c0.188-0.043,0.368-0.064,0.54-0.064c0.332,0,0.598,0.076,0.796,0.229
		c0.198,0.152,0.298,0.367,0.298,0.645c0,0.4-0.211,0.675-0.632,0.822c0.5,0.1,0.75,0.387,0.75,0.863
		c0,0.325-0.117,0.582-0.35,0.771S136.113,41.685,135.712,41.685z"/>
	<path d="M137.67,41.633v-3.523h0.632v3.523H137.67z M139.663,41.633l-1.299-1.787c0.411-0.555,0.846-1.134,1.305-1.736h0.652
		l-1.264,1.669c0.596,0.822,1.041,1.44,1.335,1.854H139.663z"/>
</g>
<g>
	<path d="M163.845,45.082l1.284-3.523h0.647l1.253,3.523h-0.652l-0.318-0.894h-1.311l-0.318,0.894H163.845z M165.391,42.309
		l-0.493,1.407h1.002l-0.493-1.407H165.391z"/>
	<path d="M167.534,45.082v-3.523h0.632v3.523H167.534z M169.527,45.082l-1.3-1.787c0.411-0.555,0.846-1.134,1.305-1.736h0.652
		l-1.264,1.669c0.596,0.822,1.041,1.44,1.336,1.854H169.527z"/>
	<path d="M171.515,45.082v-3.025h-1.013v-0.498h2.646v0.498h-1.001v3.025H171.515z"/>
</g>
<g>
	<path d="M162.099,76.265l1.284-3.523h0.647l1.254,3.523h-0.652l-0.319-0.894h-1.31l-0.318,0.894H162.099z M163.646,73.491
		l-0.493,1.407h1.001l-0.493-1.407H163.646z"/>
	<path d="M167.568,76.041c-0.211,0.19-0.524,0.285-0.942,0.285s-0.77-0.075-1.054-0.226v-0.498c0.329,0.144,0.663,0.216,1.002,0.216
		c0.449,0,0.673-0.172,0.673-0.514c0-0.145-0.036-0.252-0.11-0.324c-0.073-0.071-0.208-0.139-0.403-0.2l-0.334-0.093
		c-0.264-0.075-0.463-0.189-0.598-0.344c-0.136-0.154-0.203-0.373-0.203-0.657c0-0.309,0.1-0.553,0.3-0.732
		c0.201-0.18,0.494-0.27,0.882-0.27c0.366,0,0.669,0.063,0.909,0.189v0.493c-0.277-0.116-0.577-0.174-0.899-0.174
		c-0.185,0-0.327,0.037-0.426,0.112c-0.1,0.075-0.149,0.184-0.149,0.324s0.031,0.245,0.095,0.315s0.183,0.13,0.357,0.178
		l0.329,0.103c0.301,0.086,0.524,0.203,0.67,0.352c0.146,0.149,0.219,0.371,0.219,0.665
		C167.884,75.585,167.779,75.852,167.568,76.041z"/>
	<path d="M168.891,76.285v-2.897l-0.591,0.118v-0.369l0.894-0.401h0.334v3.55H168.891z"/>
	<path d="M171.572,76.326c-0.421,0-0.742-0.138-0.963-0.413s-0.331-0.658-0.331-1.148v-0.252c0-0.619,0.139-1.075,0.416-1.366
		s0.642-0.437,1.094-0.437c0.325,0,0.6,0.065,0.822,0.195l-0.123,0.462c-0.072-0.037-0.173-0.072-0.304-0.104
		c-0.13-0.033-0.25-0.049-0.359-0.049c-0.28,0-0.498,0.086-0.652,0.259s-0.243,0.474-0.267,0.901
		c0.239-0.205,0.514-0.308,0.821-0.308c0.312,0,0.564,0.093,0.758,0.28c0.193,0.187,0.29,0.444,0.29,0.772
		c0,0.35-0.105,0.638-0.318,0.866C172.244,76.213,171.949,76.326,171.572,76.326z M171.557,75.859c0.188,0,0.336-0.061,0.444-0.183
		c0.107-0.121,0.161-0.292,0.161-0.511c0-0.432-0.207-0.647-0.621-0.647c-0.12,0-0.238,0.034-0.354,0.103s-0.209,0.149-0.277,0.241
		v0.031C170.91,75.537,171.126,75.859,171.557,75.859z"/>
	<path d="M174.639,76.326c-0.411,0-0.741-0.139-0.991-0.418s-0.375-0.703-0.375-1.271v-0.221c0-0.306,0.036-0.57,0.11-0.797
		c0.073-0.226,0.176-0.404,0.306-0.534s0.274-0.226,0.434-0.288c0.16-0.062,0.333-0.092,0.521-0.092
		c0.401,0,0.728,0.137,0.979,0.411c0.251,0.273,0.377,0.702,0.377,1.284v0.221c0,0.582-0.127,1.012-0.38,1.289
		C175.367,76.188,175.04,76.326,174.639,76.326z M174.639,75.844c0.24,0,0.418-0.094,0.534-0.28s0.175-0.487,0.175-0.901V74.4
		c0-0.805-0.234-1.207-0.704-1.207c-0.243,0-0.423,0.093-0.539,0.279s-0.175,0.484-0.175,0.892v0.272
		C173.93,75.441,174.167,75.844,174.639,75.844z"/>
</g>
<g>
	<path d="M165.311,100.079v-3.523h1.182c0.818,0,1.228,0.344,1.228,1.032c0,0.441-0.212,0.745-0.637,0.909v0.025l0.873,1.557h-0.688
		l-0.786-1.423h-0.539v1.423H165.311z M165.943,98.22h0.482c0.227,0,0.39-0.05,0.491-0.149c0.101-0.099,0.151-0.253,0.151-0.462
		c0-0.198-0.052-0.343-0.154-0.432s-0.267-0.134-0.493-0.134h-0.478V98.22z"/>
	<path d="M169.087,100.126c-0.246,0-0.443-0.063-0.591-0.19s-0.221-0.313-0.221-0.56c0-0.445,0.282-0.709,0.848-0.791l0.621-0.072
		v-0.2c0-0.175-0.043-0.292-0.131-0.353c-0.087-0.06-0.245-0.09-0.475-0.09c-0.216,0-0.43,0.024-0.643,0.072v-0.406
		c0.243-0.096,0.534-0.144,0.873-0.144c0.645,0,0.966,0.262,0.966,0.786v1.9h-0.487l-0.047-0.216h-0.03
		C169.619,100.038,169.391,100.126,169.087,100.126z M169.266,99.71c0.206,0,0.365-0.054,0.478-0.16v-0.652l-0.487,0.052
		c-0.134,0.011-0.234,0.046-0.301,0.107c-0.066,0.062-0.101,0.158-0.101,0.288c0,0.12,0.037,0.211,0.11,0.272
		C169.04,99.679,169.139,99.71,169.266,99.71z"/>
	<path d="M172.056,100.136c-0.429,0-0.772-0.051-1.033-0.154v-3.657h0.591v1.289h0.026c0.229-0.15,0.489-0.226,0.78-0.226
		c0.284,0,0.523,0.101,0.717,0.303s0.29,0.527,0.29,0.977v0.062c0,0.466-0.116,0.816-0.349,1.053
		C172.845,100.018,172.504,100.136,172.056,100.136z M172.092,99.684c0.479,0,0.719-0.289,0.719-0.868v-0.103
		c0-0.312-0.052-0.53-0.156-0.655s-0.275-0.188-0.512-0.188c-0.171,0-0.348,0.043-0.529,0.129v1.607
		C171.761,99.658,171.921,99.684,172.092,99.684z"/>
</g>
<g>
	<path d="M183.823,92.411c-0.537,0-0.953-0.141-1.248-0.424c-0.295-0.282-0.441-0.724-0.441-1.322v-0.108
		c0-0.321,0.046-0.602,0.139-0.84c0.092-0.238,0.221-0.424,0.385-0.558c0.165-0.134,0.346-0.23,0.545-0.293
		c0.198-0.062,0.418-0.092,0.657-0.092c0.384,0,0.706,0.068,0.966,0.205v0.504c-0.298-0.131-0.614-0.195-0.95-0.195
		c-0.716,0-1.073,0.405-1.073,1.218v0.159c0,0.403,0.072,0.713,0.218,0.927s0.412,0.321,0.799,0.321c0.199,0,0.379-0.025,0.54-0.077
		v-0.802h-0.653v-0.473h1.27v1.634C184.618,92.34,184.234,92.411,183.823,92.411z"/>
	<path d="M186.433,92.354v-3.025h-1.013v-0.498h2.646v0.498h-1.001v3.025H186.433z"/>
	<path d="M188.631,92.354v-3.523h1.233c0.411,0,0.721,0.092,0.93,0.277c0.209,0.185,0.313,0.453,0.313,0.807
		c0,0.359-0.107,0.636-0.321,0.829s-0.508,0.29-0.881,0.29h-0.643v1.32H188.631z M189.263,90.562h0.524
		c0.232,0,0.4-0.049,0.504-0.148c0.103-0.1,0.153-0.254,0.153-0.463c0-0.229-0.05-0.392-0.148-0.487
		c-0.1-0.096-0.266-0.145-0.499-0.145h-0.534V90.562z"/>
</g>
<g>
	<path d="M183.824,107.412c-0.538,0-0.954-0.141-1.248-0.424c-0.295-0.282-0.442-0.724-0.442-1.322v-0.108
		c0-0.321,0.047-0.602,0.139-0.84c0.093-0.238,0.221-0.424,0.386-0.558c0.164-0.134,0.346-0.23,0.544-0.293
		c0.199-0.062,0.418-0.092,0.658-0.092c0.384,0,0.705,0.068,0.966,0.205v0.504c-0.298-0.131-0.615-0.195-0.95-0.195
		c-0.716,0-1.074,0.405-1.074,1.218v0.159c0,0.403,0.073,0.713,0.219,0.927s0.411,0.321,0.799,0.321
		c0.198,0,0.378-0.025,0.539-0.077v-0.802h-0.652v-0.473h1.269v1.634C184.619,107.341,184.235,107.412,183.824,107.412z"/>
	<path d="M185.699,107.355v-3.523h1.155c1.124,0,1.686,0.557,1.686,1.669v0.103c0,0.572-0.141,1.008-0.421,1.306
		c-0.281,0.298-0.701,0.446-1.259,0.446H185.699z M186.331,106.857h0.534c0.35,0,0.604-0.093,0.766-0.28
		c0.161-0.187,0.241-0.49,0.241-0.911v-0.17c0-0.425-0.087-0.726-0.262-0.901c-0.175-0.177-0.438-0.265-0.791-0.265h-0.488V106.857z
		"/>
	<path d="M189.192,107.355v-3.523h1.233c0.411,0,0.721,0.092,0.93,0.277c0.209,0.185,0.313,0.453,0.313,0.807
		c0,0.359-0.107,0.636-0.321,0.829s-0.508,0.29-0.881,0.29h-0.643v1.32H189.192z M189.824,105.562h0.524
		c0.232,0,0.4-0.049,0.504-0.148c0.103-0.1,0.153-0.254,0.153-0.463c0-0.229-0.05-0.392-0.148-0.487
		c-0.1-0.096-0.266-0.145-0.499-0.145h-0.534V105.562z"/>
</g>
<g>
	<path d="M145.415,33.044v-2.9h1.015c0.338,0,0.593,0.076,0.766,0.229c0.172,0.152,0.258,0.373,0.258,0.664
		c0,0.296-0.088,0.523-0.264,0.683s-0.418,0.239-0.726,0.239h-0.528v1.086H145.415z M145.935,31.568h0.431
		c0.192,0,0.33-0.041,0.415-0.122c0.084-0.082,0.127-0.209,0.127-0.381c0-0.188-0.041-0.323-0.123-0.401
		c-0.082-0.079-0.219-0.119-0.411-0.119h-0.439V31.568z"/>
	<path d="M147.948,33.044v-2.9h0.524v2.9H147.948z"/>
	<path d="M149.17,33.044v-2.9h1.015c0.339,0,0.594,0.076,0.766,0.229s0.258,0.373,0.258,0.664c0,0.296-0.088,0.523-0.264,0.683
		c-0.177,0.159-0.418,0.239-0.726,0.239h-0.528v1.086H149.17z M149.69,31.568h0.431c0.192,0,0.33-0.041,0.415-0.122
		c0.084-0.082,0.127-0.209,0.127-0.381c0-0.188-0.041-0.323-0.123-0.401c-0.082-0.079-0.219-0.119-0.41-0.119h-0.439V31.568z"/>
	<path d="M151.567,33.044V32.74l0.555-0.584c0.245-0.259,0.427-0.475,0.545-0.645c0.119-0.171,0.178-0.338,0.178-0.501
		c0-0.172-0.046-0.297-0.138-0.372c-0.091-0.076-0.231-0.114-0.42-0.114c-0.187,0-0.387,0.064-0.601,0.194l-0.085-0.385
		c0.251-0.146,0.525-0.22,0.824-0.22c0.313,0,0.552,0.071,0.715,0.215c0.164,0.145,0.245,0.349,0.245,0.613
		c0,0.121-0.021,0.243-0.065,0.366c-0.043,0.122-0.111,0.247-0.205,0.372c-0.093,0.125-0.174,0.227-0.243,0.305
		c-0.068,0.077-0.162,0.178-0.281,0.302l-0.342,0.352h1.162v0.405H151.567z"/>
</g>
<g>
	<path d="M164.895,33.044v-2.9h1.015c0.339,0,0.594,0.076,0.766,0.229s0.258,0.373,0.258,0.664c0,0.296-0.088,0.523-0.264,0.683
		c-0.177,0.159-0.418,0.239-0.726,0.239h-0.528v1.086H164.895z M165.416,31.568h0.431c0.192,0,0.33-0.041,0.415-0.122
		c0.084-0.082,0.127-0.209,0.127-0.381c0-0.188-0.041-0.323-0.123-0.401c-0.082-0.079-0.219-0.119-0.41-0.119h-0.439V31.568z"/>
	<path d="M167.428,33.044v-2.9h0.524v2.9H167.428z"/>
	<path d="M168.65,33.044v-2.9h1.015c0.339,0,0.594,0.076,0.766,0.229s0.258,0.373,0.258,0.664c0,0.296-0.088,0.523-0.264,0.683
		c-0.177,0.159-0.418,0.239-0.726,0.239h-0.528v1.086H168.65z M169.171,31.568h0.431c0.192,0,0.33-0.041,0.415-0.122
		c0.084-0.082,0.127-0.209,0.127-0.381c0-0.188-0.041-0.323-0.123-0.401c-0.082-0.079-0.219-0.119-0.41-0.119h-0.439V31.568z"/>
	<path d="M171.826,33.087c-0.166,0-0.327-0.02-0.484-0.06c-0.156-0.039-0.278-0.087-0.365-0.144l0.084-0.376
		c0.073,0.045,0.178,0.083,0.312,0.116c0.134,0.032,0.256,0.048,0.365,0.048c0.197,0,0.35-0.04,0.457-0.122s0.16-0.203,0.16-0.364
		c0-0.287-0.2-0.434-0.6-0.439l-0.301-0.009v-0.376l0.267-0.004c0.169-0.006,0.305-0.046,0.406-0.121
		c0.102-0.074,0.152-0.178,0.152-0.311c0-0.265-0.173-0.397-0.517-0.397c-0.191,0-0.397,0.051-0.617,0.152l-0.06-0.385
		c0.091-0.051,0.213-0.094,0.368-0.129s0.303-0.053,0.444-0.053c0.273,0,0.492,0.062,0.655,0.188
		c0.163,0.126,0.245,0.303,0.245,0.531c0,0.329-0.173,0.555-0.52,0.677c0.411,0.081,0.617,0.318,0.617,0.71
		c0,0.268-0.096,0.479-0.288,0.635C172.417,33.009,172.156,33.087,171.826,33.087z"/>
</g>
<polyline fill="none" stroke="#E71E31" stroke-width="2.2892" stroke-linecap="round" stroke-linejoin="bevel" stroke-miterlimit="10" points="
	40.84,22.53 46.593,28.283 52.699,22.177 "/>
<line fill="none" stroke="#E71E31" stroke-width="2.2892" stroke-linecap="round" stroke-linejoin="bevel" stroke-miterlimit="10" x1="46.593" y1="28.283" x2="46.593" y2="36.745"/>
<path fill="#CAD4E6" stroke="#595857" stroke-linecap="round" stroke-linejoin="bevel" stroke-miterlimit="10" d="M54.835,50.347
	h-16.13c-3.524,0-6.408-2.883-6.408-6.408v0c0-3.524,2.883-6.408,6.408-6.408h16.13c3.524,0,6.408,2.883,6.408,6.408v0
	C61.242,47.464,58.359,50.347,54.835,50.347z"/>
<ellipse fill="#F5FAF4" stroke="#006935" stroke-linecap="round" stroke-linejoin="bevel" stroke-miterlimit="10" cx="46.77" cy="72.684" rx="12.926" ry="4.933"/>
<ellipse fill="#E4E5E7" stroke="#464546" stroke-miterlimit="10" cx="46.77" cy="103.775" rx="10.716" ry="6.85"/>
<path fill="#DBEBF8" stroke="#244C6E" stroke-miterlimit="10" d="M54.445,125.957H39.42c-4.071,0-7.402-3.331-7.402-7.402v0
	c0-4.071,3.331-7.402,7.402-7.402h15.025c4.071,0,7.402,3.331,7.402,7.402v0C61.847,122.626,58.516,125.957,54.445,125.957z"/>
<path fill="#DBEBF8" stroke="#244C6E" stroke-miterlimit="10" d="M54.282,171.237H39.257c-4.071,0-7.402-3.331-7.402-7.402v0
	c0-4.071,3.331-7.402,7.402-7.402h15.025c4.071,0,7.402,3.331,7.402,7.402v0C61.684,167.906,58.353,171.237,54.282,171.237z"/>
<path fill="#F1F6FB" stroke="#8693AE" stroke-miterlimit="10" d="M128.795,171.237H97.463c-3.718,0-6.761-3.042-6.761-6.761v-4.16
	c0-3.718,3.042-6.761,6.761-6.761h31.333c3.718,0,6.761,3.042,6.761,6.761v4.16C135.556,168.195,132.514,171.237,128.795,171.237z"
	/>
<g>
	<path d="M39.207,45.082v-3.523h0.889l0.858,2.655h0.016l0.858-2.655h0.884v3.523h-0.632v-2.738h-0.021l-0.883,2.738h-0.519
		l-0.878-2.738h-0.016v2.738H39.207z"/>
	<path d="M43.774,45.843c-0.168,0-0.296-0.029-0.385-0.088v-0.396c0.075,0.018,0.161,0.026,0.257,0.026
		c0.13,0,0.234-0.022,0.311-0.067c0.077-0.044,0.138-0.126,0.182-0.246l0.072-0.186l-0.997-2.45h0.627l0.668,1.716h0.021
		l0.616-1.716h0.57l-1.022,2.718c-0.085,0.25-0.198,0.427-0.339,0.531S44.021,45.843,43.774,45.843z"/>
	<path d="M46.23,45.082v-3.523h1.156c1.124,0,1.685,0.557,1.685,1.669v0.103c0,0.572-0.14,1.008-0.421,1.306
		c-0.281,0.298-0.701,0.446-1.259,0.446H46.23z M46.861,44.584h0.534c0.35,0,0.604-0.093,0.766-0.28
		c0.161-0.187,0.242-0.49,0.242-0.911v-0.17c0-0.425-0.087-0.726-0.262-0.901c-0.175-0.177-0.438-0.265-0.791-0.265h-0.488V44.584z"
		/>
	<path d="M51.795,44.861c-0.238,0.188-0.562,0.282-0.973,0.282c-0.411,0-0.732-0.085-0.963-0.257
		c-0.231-0.171-0.347-0.402-0.347-0.693c0-0.209,0.068-0.392,0.206-0.55c0.137-0.157,0.31-0.277,0.519-0.359
		c-0.414-0.188-0.622-0.469-0.622-0.843c0-0.273,0.11-0.495,0.329-0.665c0.219-0.169,0.512-0.254,0.878-0.254
		c0.37,0,0.661,0.077,0.873,0.23c0.212,0.154,0.319,0.369,0.319,0.643c0,0.353-0.214,0.632-0.643,0.838
		c0.521,0.174,0.781,0.471,0.781,0.889C52.153,44.427,52.034,44.673,51.795,44.861z M50.295,44.538
		c0.125,0.096,0.295,0.144,0.511,0.144s0.388-0.047,0.517-0.142c0.128-0.094,0.192-0.218,0.192-0.372
		c0-0.175-0.064-0.314-0.192-0.419c-0.129-0.104-0.33-0.192-0.604-0.265c-0.171,0.059-0.316,0.146-0.434,0.263
		c-0.118,0.116-0.177,0.248-0.177,0.396C50.108,44.311,50.17,44.442,50.295,44.538z M50.91,43.022
		c0.339-0.141,0.508-0.334,0.508-0.581c0-0.137-0.05-0.248-0.149-0.334c-0.099-0.085-0.245-0.128-0.437-0.128
		c-0.182,0-0.325,0.04-0.429,0.121c-0.104,0.08-0.157,0.188-0.157,0.326C50.247,42.714,50.468,42.913,50.91,43.022z"/>
	<path d="M54.847,44.861c-0.238,0.188-0.562,0.282-0.973,0.282c-0.411,0-0.732-0.085-0.963-0.257
		c-0.231-0.171-0.347-0.402-0.347-0.693c0-0.209,0.068-0.392,0.206-0.55c0.137-0.157,0.31-0.277,0.519-0.359
		c-0.414-0.188-0.622-0.469-0.622-0.843c0-0.273,0.11-0.495,0.329-0.665c0.219-0.169,0.512-0.254,0.878-0.254
		c0.37,0,0.661,0.077,0.873,0.23c0.212,0.154,0.319,0.369,0.319,0.643c0,0.353-0.214,0.632-0.643,0.838
		c0.521,0.174,0.781,0.471,0.781,0.889C55.205,44.427,55.086,44.673,54.847,44.861z M53.347,44.538
		c0.125,0.096,0.295,0.144,0.511,0.144s0.388-0.047,0.517-0.142c0.128-0.094,0.192-0.218,0.192-0.372
		c0-0.175-0.064-0.314-0.192-0.419c-0.129-0.104-0.33-0.192-0.604-0.265c-0.171,0.059-0.316,0.146-0.434,0.263
		c-0.118,0.116-0.177,0.248-0.177,0.396C53.16,44.311,53.222,44.442,53.347,44.538z M53.962,43.022
		c0.339-0.141,0.508-0.334,0.508-0.581c0-0.137-0.05-0.248-0.149-0.334c-0.099-0.085-0.245-0.128-0.437-0.128
		c-0.182,0-0.325,0.04-0.429,0.121c-0.104,0.08-0.157,0.188-0.157,0.326C53.298,42.714,53.52,42.913,53.962,43.022z"/>
</g>
<g>
	<path d="M40.262,120.004v-3.523h0.709l1.464,2.486h0.015v-2.486h0.56v3.523h-0.627l-1.546-2.655h-0.016v2.655H40.262z"/>
	<path d="M43.837,120.004v-3.523h2.163v0.498h-1.531v1.053h1.192v0.488h-1.192v1.484H43.837z"/>
	<path d="M46.494,118.828v-0.493h1.413v0.493H46.494z"/>
	<path d="M48.491,120.004v-3.755h0.591v3.755H48.491z M50.068,120.004c-0.014-0.021-0.169-0.247-0.467-0.681
		c-0.298-0.433-0.454-0.661-0.467-0.686c0.014-0.027,0.165-0.241,0.455-0.643c0.289-0.4,0.439-0.611,0.449-0.632h0.617
		c-0.024,0.028-0.175,0.232-0.452,0.614s-0.428,0.59-0.452,0.624c0.003,0.004,0.058,0.082,0.165,0.234
		c0.106,0.152,0.214,0.308,0.324,0.467c0.109,0.159,0.215,0.312,0.316,0.457c0.101,0.146,0.157,0.228,0.167,0.244H50.068z"/>
	<path d="M51.245,120.004v-3.523h1.233c0.774,0,1.161,0.296,1.161,0.889c0,0.39-0.192,0.646-0.575,0.771v0.016
		c0.486,0.089,0.729,0.369,0.729,0.842c0,0.305-0.104,0.549-0.313,0.732s-0.514,0.274-0.915,0.274H51.245z M51.872,117.98h0.493
		c0.432,0,0.647-0.175,0.647-0.524c0-0.185-0.05-0.315-0.151-0.393s-0.258-0.116-0.47-0.116h-0.519V117.98z M51.872,119.531h0.606
		c0.435,0,0.652-0.189,0.652-0.57c0-0.198-0.057-0.341-0.172-0.429c-0.115-0.087-0.287-0.131-0.516-0.131h-0.57V119.531z"/>
</g>
<g>
	<path d="M40.262,165.509v-3.523h0.709l1.464,2.486h0.015v-2.486h0.56v3.523h-0.627l-1.546-2.655h-0.016v2.655H40.262z"/>
	<path d="M43.837,165.509v-3.523h2.163v0.498h-1.531v1.053h1.192v0.488h-1.192v1.484H43.837z"/>
	<path d="M46.494,164.333v-0.493h1.413v0.493H46.494z"/>
	<path d="M48.491,165.509v-3.755h0.591v3.755H48.491z M50.068,165.509c-0.014-0.021-0.169-0.247-0.467-0.681
		c-0.298-0.433-0.454-0.661-0.467-0.686c0.014-0.027,0.165-0.241,0.455-0.643c0.289-0.4,0.439-0.611,0.449-0.632h0.617
		c-0.024,0.028-0.175,0.232-0.452,0.614s-0.428,0.59-0.452,0.624c0.003,0.004,0.058,0.082,0.165,0.234
		c0.106,0.152,0.214,0.308,0.324,0.467c0.109,0.159,0.215,0.312,0.316,0.457c0.101,0.146,0.157,0.228,0.167,0.244H50.068z"/>
	<path d="M51.245,165.509v-3.523h1.233c0.774,0,1.161,0.296,1.161,0.889c0,0.39-0.192,0.646-0.575,0.771v0.016
		c0.486,0.089,0.729,0.369,0.729,0.842c0,0.305-0.104,0.549-0.313,0.732s-0.514,0.274-0.915,0.274H51.245z M51.872,163.486h0.493
		c0.432,0,0.647-0.175,0.647-0.524c0-0.185-0.05-0.315-0.151-0.393s-0.258-0.116-0.47-0.116h-0.519V163.486z M51.872,165.037h0.606
		c0.435,0,0.652-0.189,0.652-0.57c0-0.198-0.057-0.341-0.172-0.429c-0.115-0.087-0.287-0.131-0.516-0.131h-0.57V165.037z"/>
</g>
<g>
	<path d="M96.794,161.01c0-0.312,0.112-0.573,0.336-0.784c0.225-0.21,0.504-0.315,0.84-0.315c0.335,0,0.616,0.104,0.842,0.313
		s0.339,0.471,0.339,0.786c0,0.321-0.112,0.58-0.336,0.775c-0.224,0.195-0.506,0.293-0.845,0.293c-0.336,0-0.616-0.099-0.84-0.296
		C96.906,161.586,96.794,161.329,96.794,161.01z M97.374,161.01c0,0.178,0.055,0.323,0.165,0.437
		c0.109,0.113,0.253,0.169,0.432,0.169c0.181,0,0.328-0.057,0.439-0.172c0.111-0.114,0.167-0.259,0.167-0.434
		s-0.055-0.318-0.165-0.432c-0.109-0.113-0.257-0.17-0.441-0.17c-0.175,0-0.318,0.059-0.429,0.175S97.374,160.842,97.374,161.01z
		 M100.544,164.185h-3.016v-1.742h3.016V164.185z M99.943,163.717v-0.812h-1.809v0.812H99.943z M100.544,162.222h-0.601v-0.457
		h-0.642l0.015-0.509h0.627v-0.529h-0.627l-0.015-0.508h0.642v-0.556h0.601V162.222z"/>
	<path d="M105.337,161.852v0.473h-4.135v-0.473H105.337z M105.127,161.123l-0.257,0.473c-0.336-0.027-0.653-0.121-0.953-0.282
		s-0.515-0.351-0.645-0.57c-0.113,0.227-0.317,0.417-0.611,0.573c-0.295,0.155-0.625,0.249-0.992,0.279l-0.247-0.462
		c0.366-0.018,0.688-0.097,0.963-0.239c0.275-0.142,0.453-0.326,0.532-0.552h-1.29v-0.478h3.298v0.478h-1.284
		c0.085,0.223,0.273,0.404,0.562,0.544C104.494,161.027,104.801,161.106,105.127,161.123z M104.87,163.388
		c0,0.268-0.141,0.477-0.421,0.627s-0.673,0.227-1.176,0.227c-0.507,0-0.901-0.076-1.182-0.227s-0.421-0.359-0.421-0.627
		c0-0.26,0.141-0.466,0.421-0.616s0.673-0.226,1.176-0.226s0.896,0.075,1.179,0.226C104.728,162.922,104.87,163.128,104.87,163.388z
		 M103.986,163.668c0.178-0.066,0.267-0.158,0.267-0.274c0-0.117-0.089-0.208-0.267-0.275c-0.178-0.066-0.418-0.1-0.719-0.1
		c-0.298,0-0.535,0.033-0.711,0.1c-0.176,0.067-0.265,0.158-0.265,0.275c0,0.116,0.088,0.208,0.265,0.274s0.414,0.101,0.711,0.101
		C103.568,163.769,103.808,163.735,103.986,163.668z"/>
	<path d="M108.383,161.693l-0.344,0.468c-0.188-0.075-0.382-0.199-0.58-0.372c-0.199-0.173-0.344-0.359-0.437-0.558
		c-0.065,0.226-0.203,0.438-0.414,0.635c-0.21,0.196-0.427,0.333-0.65,0.408l-0.359-0.478c0.339-0.124,0.608-0.314,0.807-0.573
		c0.198-0.259,0.298-0.558,0.298-0.896v-0.452h0.622v0.421c0,0.336,0.104,0.629,0.311,0.879
		C107.843,161.424,108.092,161.597,108.383,161.693z M109.462,163.317c0,0.28-0.139,0.504-0.416,0.67
		c-0.278,0.166-0.665,0.249-1.161,0.249c-0.486,0-0.868-0.083-1.143-0.249c-0.276-0.166-0.414-0.39-0.414-0.67
		c0-0.288,0.137-0.515,0.411-0.681c0.274-0.166,0.656-0.249,1.146-0.249c0.497,0,0.883,0.083,1.161,0.249
		C109.323,162.802,109.462,163.029,109.462,163.317z M107.885,162.87c-0.295,0-0.525,0.039-0.691,0.118
		c-0.167,0.079-0.25,0.188-0.25,0.329c0,0.137,0.083,0.244,0.25,0.32c0.166,0.077,0.396,0.116,0.691,0.116
		c0.305,0,0.54-0.039,0.706-0.116c0.167-0.076,0.25-0.184,0.25-0.32c0-0.141-0.083-0.25-0.25-0.329
		C108.425,162.909,108.19,162.87,107.885,162.87z M109.431,162.335h-0.601v-1.243h-0.781v-0.478h0.781v-0.951h0.601V162.335z"/>
	<path d="M114.193,162.7c-0.041,0.052-0.1,0.127-0.177,0.227s-0.136,0.173-0.177,0.221c-0.209-0.134-0.419-0.322-0.632-0.565
		s-0.354-0.48-0.426-0.714c-0.076,0.257-0.216,0.515-0.421,0.773s-0.426,0.458-0.663,0.599c-0.168-0.206-0.292-0.352-0.37-0.437
		c0.757-0.486,1.135-1.195,1.135-2.127v-0.627h0.622v0.596c0,0.445,0.097,0.843,0.291,1.192
		C113.567,162.186,113.84,162.474,114.193,162.7z M115.015,159.664v1.763h0.658v0.493h-0.658v2.322h-0.596v-4.578H115.015z"/>
	<path d="M116.328,162.797c-0.211-0.298-0.316-0.691-0.316-1.182c0-0.489,0.105-0.885,0.316-1.187
		c0.21-0.301,0.499-0.452,0.865-0.452c0.37,0,0.66,0.151,0.871,0.452c0.21,0.302,0.316,0.697,0.316,1.187
		c0,0.486-0.105,0.88-0.316,1.18c-0.211,0.3-0.501,0.449-0.871,0.449C116.827,163.245,116.538,163.095,116.328,162.797z
		 M117.805,161.616c0-0.355-0.057-0.638-0.17-0.845c-0.113-0.207-0.26-0.311-0.442-0.311c-0.174,0-0.317,0.104-0.429,0.311
		s-0.167,0.489-0.167,0.845c0,0.354,0.056,0.632,0.167,0.838c0.111,0.205,0.254,0.309,0.429,0.309c0.182,0,0.329-0.104,0.442-0.309
		C117.748,162.248,117.805,161.969,117.805,161.616z M119.664,164.242h-0.596v-4.578h0.596V164.242z"/>
	<path d="M123.99,162.413h-1.305v0.78h1.777v0.473h-4.135v-0.473h1.757v-0.78h-1.233v-2.43h3.098v0.478h-2.497v0.509h2.342v0.473
		h-2.342v0.493h2.538V162.413z"/>
	<path d="M127.113,160.126c0,1.531-0.678,2.647-2.034,3.35l-0.37-0.427c0.668-0.308,1.16-0.764,1.475-1.366l-1.269,0.139
		c-0.031-0.213-0.058-0.386-0.082-0.519l1.551-0.113c0.051-0.199,0.084-0.387,0.098-0.565h-1.423v-0.498H127.113z M128.346,159.664
		v1.758h0.642v0.498h-0.642v2.322h-0.596v-4.578H128.346z"/>
	<path d="M129.358,161.133c0-0.329,0.114-0.6,0.342-0.812c0.228-0.213,0.526-0.318,0.896-0.318c0.373,0,0.673,0.105,0.899,0.318
		c0.226,0.212,0.339,0.482,0.339,0.812c0,0.332-0.113,0.603-0.339,0.812s-0.526,0.313-0.899,0.313c-0.374,0-0.673-0.104-0.899-0.313
		S129.358,161.465,129.358,161.133z M133.098,164.118h-3.175v-1.464h0.606v0.991h2.569V164.118z M129.975,161.133
		c0,0.185,0.056,0.337,0.169,0.455c0.113,0.118,0.264,0.177,0.452,0.177c0.195,0,0.348-0.059,0.459-0.177s0.167-0.271,0.167-0.455
		c0-0.178-0.056-0.325-0.169-0.441c-0.113-0.117-0.265-0.175-0.457-0.175c-0.188,0-0.339,0.058-0.452,0.175
		C130.031,160.808,129.975,160.956,129.975,161.133z M132.995,162.983H132.4v-3.319h0.596V162.983z"/>
</g>
<g>
	<path d="M43.737,74.651v-3.523h0.637v3.523H43.737z"/>
	<path d="M45.222,74.651v-3.523h0.632v3.523H45.222z M47.215,74.651l-1.299-1.787c0.411-0.555,0.846-1.134,1.305-1.736h0.652
		l-1.264,1.669c0.596,0.822,1.041,1.44,1.335,1.854H47.215z"/>
	<path d="M48.468,74.651v-3.523H49.1v3.523H48.468z M50.462,74.651l-1.299-1.787c0.411-0.555,0.846-1.134,1.305-1.736h0.652
		l-1.264,1.669c0.596,0.822,1.041,1.44,1.335,1.854H50.462z"/>
</g>
<g>
	<path d="M42.817,105.749v-3.523h0.637v3.523H42.817z"/>
	<path d="M44.235,105.749v-3.755h0.591v3.755H44.235z M45.812,105.749c-0.014-0.021-0.169-0.247-0.467-0.681
		c-0.298-0.433-0.454-0.661-0.467-0.686c0.014-0.027,0.165-0.241,0.455-0.643c0.289-0.4,0.439-0.611,0.449-0.632h0.617
		c-0.024,0.028-0.175,0.232-0.452,0.614s-0.428,0.59-0.452,0.624c0.003,0.004,0.058,0.082,0.165,0.234
		c0.106,0.152,0.214,0.308,0.324,0.467c0.109,0.159,0.215,0.312,0.316,0.457c0.101,0.146,0.157,0.228,0.167,0.244H45.812z"/>
	<path d="M46.988,105.749v-3.523h1.233c0.774,0,1.161,0.296,1.161,0.889c0,0.39-0.192,0.646-0.575,0.771v0.016
		c0.486,0.089,0.729,0.369,0.729,0.842c0,0.305-0.104,0.549-0.313,0.732s-0.514,0.274-0.915,0.274H46.988z M47.615,103.726h0.493
		c0.432,0,0.647-0.175,0.647-0.524c0-0.185-0.05-0.315-0.151-0.393s-0.258-0.116-0.47-0.116h-0.519V103.726z M47.615,105.276h0.606
		c0.435,0,0.652-0.189,0.652-0.57c0-0.198-0.057-0.341-0.172-0.429c-0.115-0.087-0.287-0.131-0.516-0.131h-0.57V105.276z"/>
	<path d="M51.895,103.16h0.519c-0.048,0.511-0.072,1.095-0.072,1.752c0,0.264,0.08,0.396,0.241,0.396l-0.041,0.432
		c-0.055,0.023-0.125,0.036-0.21,0.036c-0.274,0-0.438-0.172-0.493-0.514h-0.016c-0.085,0.16-0.202,0.286-0.349,0.377
		c-0.147,0.091-0.313,0.137-0.499,0.137c-0.308,0-0.561-0.119-0.758-0.357s-0.295-0.551-0.295-0.938
		c0-0.404,0.115-0.734,0.344-0.991s0.5-0.386,0.812-0.386c0.356,0,0.604,0.149,0.745,0.447h0.021
		C51.85,103.428,51.867,103.297,51.895,103.16z M50.544,104.465c0,0.229,0.055,0.422,0.165,0.578
		c0.109,0.156,0.253,0.233,0.432,0.233c0.137,0,0.261-0.056,0.372-0.167s0.183-0.243,0.213-0.397
		c0.014-0.086,0.021-0.187,0.021-0.304c0-0.116-0.003-0.2-0.01-0.251c-0.031-0.165-0.098-0.303-0.2-0.414
		c-0.103-0.111-0.225-0.167-0.365-0.167c-0.185,0-0.336,0.085-0.452,0.255C50.602,104,50.544,104.212,50.544,104.465z"/>
</g>
<ellipse fill="#E4E5E7" stroke="#464546" stroke-miterlimit="10" cx="11.216" cy="103.775" rx="10.716" ry="6.85"/>
<g>
	<path d="M7.264,105.749v-3.523H7.9v3.523H7.264z"/>
	<path d="M8.681,105.749v-3.755h0.591v3.755H8.681z M10.258,105.749c-0.014-0.021-0.169-0.247-0.467-0.681
		c-0.298-0.433-0.454-0.661-0.467-0.686c0.014-0.027,0.165-0.241,0.455-0.643c0.289-0.4,0.439-0.611,0.449-0.632h0.617
		c-0.024,0.028-0.175,0.232-0.452,0.614s-0.428,0.59-0.452,0.624c0.003,0.004,0.058,0.082,0.165,0.234
		c0.106,0.152,0.214,0.308,0.324,0.467c0.109,0.159,0.215,0.312,0.316,0.457c0.101,0.146,0.157,0.228,0.167,0.244H10.258z"/>
	<path d="M11.435,105.749v-3.523h1.233c0.774,0,1.161,0.296,1.161,0.889c0,0.39-0.192,0.646-0.575,0.771v0.016
		c0.486,0.089,0.729,0.369,0.729,0.842c0,0.305-0.104,0.549-0.313,0.732s-0.514,0.274-0.915,0.274H11.435z M12.062,103.726h0.493
		c0.432,0,0.647-0.175,0.647-0.524c0-0.185-0.05-0.315-0.151-0.393s-0.258-0.116-0.47-0.116h-0.519V103.726z M12.062,105.276h0.606
		c0.435,0,0.652-0.189,0.652-0.57c0-0.198-0.057-0.341-0.172-0.429c-0.115-0.087-0.287-0.131-0.516-0.131h-0.57V105.276z"/>
	<path d="M16.341,103.16h0.519c-0.048,0.511-0.072,1.095-0.072,1.752c0,0.264,0.08,0.396,0.241,0.396l-0.041,0.432
		c-0.055,0.023-0.125,0.036-0.21,0.036c-0.274,0-0.438-0.172-0.493-0.514h-0.016c-0.085,0.16-0.202,0.286-0.349,0.377
		c-0.147,0.091-0.313,0.137-0.499,0.137c-0.308,0-0.561-0.119-0.758-0.357s-0.295-0.551-0.295-0.938
		c0-0.404,0.115-0.734,0.344-0.991s0.5-0.386,0.812-0.386c0.356,0,0.604,0.149,0.745,0.447h0.021
		C16.296,103.428,16.314,103.297,16.341,103.16z M14.99,104.465c0,0.229,0.055,0.422,0.165,0.578
		c0.109,0.156,0.253,0.233,0.432,0.233c0.137,0,0.261-0.056,0.372-0.167s0.183-0.243,0.213-0.397
		c0.014-0.086,0.021-0.187,0.021-0.304c0-0.116-0.003-0.2-0.01-0.251c-0.031-0.165-0.098-0.303-0.2-0.414
		c-0.103-0.111-0.225-0.167-0.365-0.167c-0.185,0-0.336,0.085-0.452,0.255C15.048,104,14.99,104.212,14.99,104.465z"/>
</g>
<path fill="#FAFCF4" stroke="#C0C99B" stroke-miterlimit="10" d="M97.183,74.862H81.57c-2.026,0-3.683-1.657-3.683-3.683v-3.669
	c0-2.026,1.657-3.683,3.683-3.683h15.613c2.026,0,3.683,1.657,3.683,3.683v3.669C100.866,73.204,99.209,74.862,97.183,74.862z"/>
<g>
	<path d="M86.072,71.751c-0.284,0-0.519-0.048-0.704-0.144V71.14c0.195,0.065,0.385,0.098,0.57,0.098
		c0.349,0,0.524-0.177,0.524-0.529v-2.512h0.642v2.563c0,0.298-0.086,0.537-0.259,0.719C86.672,71.66,86.415,71.751,86.072,71.751z"
		/>
	<path d="M87.906,71.72v-3.523h0.709l1.464,2.486h0.015v-2.486h0.56v3.523h-0.627l-1.546-2.655h-0.016v2.655H87.906z"/>
	<path d="M91.482,71.72v-3.523h0.632v3.523H91.482z M93.475,71.72l-1.299-1.787c0.411-0.555,0.846-1.134,1.305-1.736h0.652
		l-1.264,1.669c0.596,0.822,1.041,1.44,1.335,1.854H93.475z"/>
</g>
<g>
	<line x1="46.593" y1="52.46" x2="46.593" y2="65.109"/>
	<g>
		
			<line fill="none" stroke="#000000" stroke-miterlimit="10" stroke-dasharray="2,1" x1="46.593" y1="52.46" x2="46.593" y2="62.124"/>
		<g>
			<polygon points="44.742,60.719 46.593,61.506 48.445,60.719 46.593,65.109 			"/>
		</g>
	</g>
</g>
<g>
	<line x1="59.696" y1="51.236" x2="74.896" y2="67.335"/>
	<g>
		
			<line fill="none" stroke="#000000" stroke-miterlimit="10" stroke-dasharray="2,1" x1="59.696" y1="51.236" x2="72.846" y2="65.164"/>
		<g>
			<polygon points="70.536,65.414 72.422,64.715 73.229,62.872 74.896,67.335 			"/>
		</g>
	</g>
</g>
<g>
	<line x1="46.593" y1="80.404" x2="46.593" y2="94.766"/>
	<g>
		<line fill="none" stroke="#000000" stroke-miterlimit="10" x1="46.593" y1="80.404" x2="46.593" y2="91.782"/>
		<g>
			<polygon points="44.742,90.377 46.593,91.164 48.445,90.377 46.593,94.766 			"/>
		</g>
	</g>
</g>
<g>
	<line x1="46.593" y1="128.413" x2="46.593" y2="153.001"/>
	<g>
		<line fill="none" stroke="#000000" stroke-miterlimit="10" x1="46.593" y1="128.413" x2="46.593" y2="150.016"/>
		<g>
			<polygon points="44.742,148.612 46.593,149.398 48.445,148.612 46.593,153.001 			"/>
		</g>
	</g>
</g>
<g>
	<line x1="65.513" y1="163.536" x2="87.609" y2="163.536"/>
	<g>
		<line fill="none" stroke="#000000" stroke-miterlimit="10" x1="65.513" y1="163.536" x2="84.624" y2="163.536"/>
		<g>
			<polygon points="83.22,165.387 84.006,163.536 83.22,161.684 87.609,163.536 			"/>
		</g>
	</g>
</g>
<g>
	<line x1="103.297" y1="68.384" x2="117.532" y2="45.843"/>
	<g>
		<line fill="none" stroke="#E60013" stroke-miterlimit="10" x1="103.297" y1="68.384" x2="117.265" y2="46.266"/>
		<g>
			
				<rect x="116.765" y="43.016" transform="matrix(0.534 -0.8455 0.8455 0.534 15.5312 120.7091)" fill="#E60013" width="1" height="6.5"/>
		</g>
	</g>
</g>
<g>
	<g>
		<path fill="none" stroke="#E60013" stroke-miterlimit="10" d="M59.696,76.805c0,0,42.159,44.243,61.371-28.395"/>
		<g>
			
				<rect x="120.557" y="45.155" transform="matrix(0.274 -0.9617 0.9617 0.274 41.3351 151.5657)" fill="#E60013" width="1" height="6.5"/>
		</g>
	</g>
</g>
<g>
	<g>
		<line fill="none" stroke="#E60013" stroke-miterlimit="10" x1="111.621" y1="149.803" x2="125.769" y2="48.419"/>
		<g>
			
				<rect x="125.269" y="45.169" transform="matrix(0.1382 -0.9904 0.9904 0.1382 60.4317 166.2886)" fill="#E60013" width="1" height="6.5"/>
		</g>
	</g>
</g>
<g>
	<line x1="33.916" y1="103.103" x2="24.636" y2="103.103"/>
	<g>
		<line fill="none" stroke="#000000" stroke-miterlimit="10" x1="33.916" y1="103.103" x2="27.621" y2="103.103"/>
		<g>
			<polygon points="29.025,101.252 28.239,103.103 29.025,104.955 24.636,103.103 			"/>
		</g>
	</g>
</g>
<polygon fill="#00A1E9" points="46.593,26.028 51.23,21.142 41.957,21.142 "/>
<g>
</g>
<g>
</g>
<g>
</g>
<g>
</g>
<g>
</g>
<g>
</g>
<g>
</g>
<g>
</g>
</svg>
