<?xml version="1.0" encoding="utf-8"?>
<!-- Generator: Adobe Illustrator 28.0.0, SVG Export Plug-In . SVG Version: 6.00 Build 0)  -->
<svg version="1.1" id="레이어_1" xmlns="http://www.w3.org/2000/svg" xmlns:xlink="http://www.w3.org/1999/xlink" x="0px"
	 y="0px" viewBox="0 0 416.934 262.45" enable-background="new 0 0 416.934 262.45" xml:space="preserve">
<g>
	<polyline fill="none" stroke="#00A1E9" stroke-miterlimit="10" points="32.564,137.98 39.532,126.367 46.242,132.173 
		53.21,132.173 59.403,125.335 66.887,125.335 75.145,113.464 81.08,111.141 89.08,116.302 95.274,109.593 101.984,105.98 
		109.468,110.625 116.177,116.818 123.145,155.528 130.371,152.431 136.822,155.528 143.79,151.399 151.016,162.754 
		157.984,161.722 164.951,150.109 172.177,153.98 178.887,146.496 186.371,146.496 	"/>
	<polyline fill="none" stroke="#E83929" stroke-miterlimit="10" points="39.532,149.851 66.887,149.851 94.758,123.27 
		123.661,56.431 151.016,162.754 179.403,156.56 	"/>
	<polyline fill="none" stroke="#00A1E9" stroke-miterlimit="10" points="258.887,144.892 265.855,149.077 272.822,143.399 
		279.79,134.367 287.016,149.077 294.5,127.657 301.468,137.206 307.919,124.302 314.629,122.238 321.597,102.883 328.822,96.689 
		336.048,102.109 342.242,92.818 349.726,91.528 356.693,118.883 364.435,128.431 370.887,169.206 378.371,164.302 385.597,162.754 
		392.306,157.593 398.5,160.173 406.242,162.754 413.468,142.109 	"/>
	<polyline fill="none" stroke="#E83929" stroke-miterlimit="10" points="258.887,166.883 265.597,140.302 272.822,160.948 
		280.048,144.892 286.242,178.754 293.984,164.302 300.951,160.948 307.403,157.077 314.629,122.238 322.629,119.657 
		328.564,105.98 336.177,95.657 343.274,114.496 349.726,107.786 356.951,24.173 363.661,89.98 370.887,102.883 378.113,113.464 
		384.822,114.496 391.79,150.109 399.016,155.012 405.726,165.851 412.693,169.206 	"/>
	<g>
		<g>
			<line fill="none" stroke="#000000" stroke-miterlimit="10" x1="247.274" y1="229.528" x2="413.468" y2="229.528"/>
			<line fill="none" stroke="#000000" stroke-miterlimit="10" x1="251.145" y1="21.464" x2="251.145" y2="229.528"/>
			<line fill="none" stroke="#000000" stroke-miterlimit="10" x1="252.5" y1="229.528" x2="252.5" y2="233.786"/>
			<line fill="none" stroke="#000000" stroke-miterlimit="10" x1="259.465" y1="229.528" x2="259.465" y2="233.786"/>
			<line fill="none" stroke="#000000" stroke-miterlimit="10" x1="266.43" y1="229.528" x2="266.43" y2="233.786"/>
			<line fill="none" stroke="#000000" stroke-miterlimit="10" x1="273.395" y1="229.528" x2="273.395" y2="233.786"/>
			<line fill="none" stroke="#000000" stroke-miterlimit="10" x1="280.36" y1="229.528" x2="280.36" y2="233.786"/>
			<line fill="none" stroke="#000000" stroke-miterlimit="10" x1="287.325" y1="229.528" x2="287.325" y2="233.786"/>
			<line fill="none" stroke="#000000" stroke-miterlimit="10" x1="294.289" y1="229.528" x2="294.289" y2="233.786"/>
			<line fill="none" stroke="#000000" stroke-miterlimit="10" x1="301.254" y1="229.528" x2="301.254" y2="233.786"/>
			<line fill="none" stroke="#000000" stroke-miterlimit="10" x1="308.219" y1="229.528" x2="308.219" y2="233.786"/>
			<line fill="none" stroke="#000000" stroke-miterlimit="10" x1="315.184" y1="229.528" x2="315.184" y2="233.786"/>
			<line fill="none" stroke="#000000" stroke-miterlimit="10" x1="322.149" y1="229.528" x2="322.149" y2="233.786"/>
			<line fill="none" stroke="#000000" stroke-miterlimit="10" x1="329.114" y1="229.528" x2="329.114" y2="233.786"/>
			<line fill="none" stroke="#000000" stroke-miterlimit="10" x1="336.079" y1="229.528" x2="336.079" y2="233.786"/>
			<line fill="none" stroke="#000000" stroke-miterlimit="10" x1="343.044" y1="229.528" x2="343.044" y2="233.786"/>
			<line fill="none" stroke="#000000" stroke-miterlimit="10" x1="350.009" y1="229.528" x2="350.009" y2="233.786"/>
			<line fill="none" stroke="#000000" stroke-miterlimit="10" x1="356.974" y1="229.528" x2="356.974" y2="233.786"/>
			<line fill="none" stroke="#000000" stroke-miterlimit="10" x1="363.939" y1="229.528" x2="363.939" y2="233.786"/>
			<line fill="none" stroke="#000000" stroke-miterlimit="10" x1="370.904" y1="229.528" x2="370.904" y2="233.786"/>
			<line fill="none" stroke="#000000" stroke-miterlimit="10" x1="377.869" y1="229.528" x2="377.869" y2="233.786"/>
			<line fill="none" stroke="#000000" stroke-miterlimit="10" x1="384.834" y1="229.528" x2="384.834" y2="233.786"/>
			<line fill="none" stroke="#000000" stroke-miterlimit="10" x1="391.799" y1="229.528" x2="391.799" y2="233.786"/>
			<line fill="none" stroke="#000000" stroke-miterlimit="10" x1="398.764" y1="229.528" x2="398.764" y2="233.786"/>
			<line fill="none" stroke="#000000" stroke-miterlimit="10" x1="405.728" y1="229.528" x2="405.728" y2="233.786"/>
			<line fill="none" stroke="#000000" stroke-miterlimit="10" x1="412.693" y1="229.528" x2="412.693" y2="233.786"/>
			<g>
				<path d="M256.096,242.55v-5.076l-1.035,0.207v-0.647l1.566-0.702h0.585v6.219H256.096z"/>
				<path d="M258.985,242.514l2.25-5.256h-2.799v-0.873h3.996v0.657l-2.223,5.472H258.985z"/>
			</g>
			<g>
				<path d="M269.752,242.55v-5.076l-1.035,0.207v-0.647l1.566-0.702h0.585v6.219H269.752z"/>
				<path d="M274.171,236.287c0.738,0,1.307,0.233,1.706,0.702c0.398,0.468,0.598,1.137,0.598,2.007v0.414
					c0,2.142-0.863,3.213-2.592,3.213c-0.57,0-1.071-0.129-1.503-0.388l0.189-0.81c0.138,0.078,0.329,0.148,0.575,0.212
					c0.246,0.062,0.472,0.094,0.676,0.094c0.491,0,0.869-0.139,1.134-0.418c0.264-0.279,0.408-0.784,0.432-1.517
					c-0.401,0.366-0.885,0.549-1.449,0.549c-0.533,0-0.973-0.174-1.318-0.521c-0.345-0.349-0.518-0.813-0.518-1.396
					c0-0.63,0.181-1.145,0.54-1.543C273.001,236.486,273.511,236.287,274.171,236.287z M274.199,237.105
					c-0.33,0-0.585,0.111-0.766,0.333c-0.18,0.223-0.27,0.525-0.27,0.909c0,0.396,0.101,0.694,0.302,0.896
					c0.2,0.201,0.466,0.302,0.796,0.302c0.216,0,0.428-0.06,0.635-0.18s0.367-0.262,0.481-0.424v-0.152
					C275.377,237.667,274.985,237.105,274.199,237.105z"/>
			</g>
			<g>
				<path d="M282.968,242.514v-0.647l1.18-1.242c0.521-0.552,0.908-1.01,1.16-1.373c0.252-0.362,0.378-0.718,0.378-1.066
					c0-0.365-0.097-0.63-0.292-0.792s-0.493-0.243-0.896-0.243c-0.396,0-0.822,0.139-1.278,0.414l-0.18-0.818
					c0.534-0.312,1.119-0.469,1.755-0.469c0.666,0,1.173,0.153,1.521,0.459c0.348,0.307,0.521,0.741,0.521,1.306
					c0,0.258-0.047,0.518-0.14,0.778s-0.238,0.525-0.437,0.792c-0.197,0.267-0.37,0.483-0.518,0.648
					c-0.146,0.165-0.346,0.379-0.598,0.643l-0.729,0.747h2.475v0.864H282.968z"/>
				<path d="M288.692,242.55v-5.076l-1.035,0.207v-0.647l1.566-0.702h0.585v6.219H288.692z"/>
			</g>
			<g>
				<path d="M296.179,242.514v-0.647l1.18-1.242c0.521-0.552,0.908-1.01,1.16-1.373c0.252-0.362,0.378-0.718,0.378-1.066
					c0-0.365-0.097-0.63-0.292-0.792s-0.493-0.243-0.896-0.243c-0.396,0-0.822,0.139-1.278,0.414l-0.18-0.818
					c0.534-0.312,1.119-0.469,1.755-0.469c0.666,0,1.173,0.153,1.521,0.459c0.348,0.307,0.521,0.741,0.521,1.306
					c0,0.258-0.047,0.518-0.14,0.778s-0.238,0.525-0.437,0.792c-0.197,0.267-0.37,0.483-0.518,0.648
					c-0.146,0.165-0.346,0.379-0.598,0.643l-0.729,0.747h2.475v0.864H296.179z"/>
				<path d="M302.65,242.604c-0.354,0-0.697-0.042-1.03-0.126s-0.593-0.186-0.778-0.306l0.18-0.801
					c0.156,0.096,0.376,0.179,0.661,0.247c0.285,0.069,0.545,0.104,0.778,0.104c0.42,0,0.744-0.087,0.973-0.261
					c0.228-0.174,0.342-0.432,0.342-0.774c0-0.611-0.426-0.924-1.278-0.936l-0.639-0.019v-0.801l0.567-0.009
					c0.359-0.012,0.647-0.098,0.863-0.257c0.216-0.158,0.324-0.379,0.324-0.661c0-0.564-0.366-0.846-1.098-0.846
					c-0.408,0-0.847,0.107-1.314,0.323l-0.126-0.818c0.192-0.108,0.453-0.199,0.783-0.274s0.645-0.113,0.945-0.113
					c0.582,0,1.047,0.134,1.395,0.401c0.348,0.267,0.522,0.644,0.522,1.129c0,0.702-0.369,1.183-1.107,1.44
					c0.876,0.174,1.314,0.678,1.314,1.512c0,0.57-0.204,1.021-0.612,1.35C303.907,242.439,303.352,242.604,302.65,242.604z"/>
			</g>
			<g>
				<path d="M314.155,242.55v-5.076l-1.035,0.207v-0.647l1.566-0.702h0.585v6.219H314.155z"/>
			</g>
			<g>
				<path d="M328.114,242.604c-0.354,0-0.697-0.042-1.03-0.126s-0.593-0.186-0.778-0.306l0.18-0.801
					c0.156,0.096,0.376,0.179,0.661,0.247c0.285,0.069,0.545,0.104,0.778,0.104c0.42,0,0.744-0.087,0.973-0.261
					c0.228-0.174,0.342-0.432,0.342-0.774c0-0.611-0.426-0.924-1.278-0.936l-0.639-0.019v-0.801l0.567-0.009
					c0.359-0.012,0.647-0.098,0.863-0.257c0.216-0.158,0.324-0.379,0.324-0.661c0-0.564-0.366-0.846-1.098-0.846
					c-0.408,0-0.847,0.107-1.314,0.323l-0.126-0.818c0.192-0.108,0.453-0.199,0.783-0.274s0.645-0.113,0.945-0.113
					c0.582,0,1.047,0.134,1.395,0.401c0.348,0.267,0.522,0.644,0.522,1.129c0,0.702-0.369,1.183-1.107,1.44
					c0.876,0.174,1.314,0.678,1.314,1.512c0,0.57-0.204,1.021-0.612,1.35C329.371,242.439,328.816,242.604,328.114,242.604z"/>
			</g>
			<g>
				<path d="M342.062,242.604c-0.708,0-1.293-0.141-1.755-0.423l0.197-0.846c0.414,0.246,0.841,0.369,1.278,0.369
					c0.432,0,0.77-0.101,1.013-0.302s0.364-0.487,0.364-0.859c0-0.738-0.444-1.107-1.332-1.107c-0.39,0-0.807,0.111-1.251,0.333
					l0.226-3.393h3.222v0.864h-2.376l-0.117,1.503c0.276-0.072,0.534-0.108,0.774-0.108c0.63,0,1.12,0.162,1.471,0.486
					c0.352,0.323,0.527,0.807,0.527,1.448c0,0.589-0.203,1.074-0.607,1.458C343.291,242.413,342.746,242.604,342.062,242.604z"/>
			</g>
			<g>
				<path d="M354.845,242.514l2.25-5.256h-2.799v-0.873h3.996v0.657l-2.223,5.472H354.845z"/>
			</g>
			<g>
				<path d="M370.033,236.287c0.738,0,1.307,0.233,1.706,0.702c0.398,0.468,0.598,1.137,0.598,2.007v0.414
					c0,2.142-0.863,3.213-2.592,3.213c-0.57,0-1.071-0.129-1.503-0.388l0.189-0.81c0.138,0.078,0.329,0.148,0.575,0.212
					c0.246,0.062,0.472,0.094,0.676,0.094c0.491,0,0.869-0.139,1.134-0.418c0.264-0.279,0.408-0.784,0.432-1.517
					c-0.401,0.366-0.885,0.549-1.449,0.549c-0.533,0-0.973-0.174-1.318-0.521c-0.345-0.349-0.518-0.813-0.518-1.396
					c0-0.63,0.181-1.145,0.54-1.543C368.863,236.486,369.373,236.287,370.033,236.287z M370.06,237.105
					c-0.33,0-0.585,0.111-0.766,0.333c-0.18,0.223-0.27,0.525-0.27,0.909c0,0.396,0.101,0.694,0.302,0.896
					c0.2,0.201,0.466,0.302,0.796,0.302c0.216,0,0.428-0.06,0.635-0.18s0.367-0.262,0.481-0.424v-0.152
					C371.239,237.667,370.846,237.105,370.06,237.105z"/>
			</g>
			<g>
				<path d="M382.145,242.55v-5.076l-1.035,0.207v-0.647l1.566-0.702h0.585v6.219H382.145z"/>
				<path d="M385.52,242.55v-5.076l-1.035,0.207v-0.647l1.566-0.702h0.585v6.219H385.52z"/>
			</g>
			<g>
				<path d="M395.356,242.55v-5.076l-1.035,0.207v-0.647l1.566-0.702h0.585v6.219H395.356z"/>
				<path d="M399.478,242.604c-0.354,0-0.697-0.042-1.03-0.126s-0.593-0.186-0.778-0.306l0.18-0.801
					c0.156,0.096,0.376,0.179,0.661,0.247c0.285,0.069,0.545,0.104,0.778,0.104c0.42,0,0.744-0.087,0.973-0.261
					c0.228-0.174,0.342-0.432,0.342-0.774c0-0.611-0.426-0.924-1.278-0.936l-0.639-0.019v-0.801l0.567-0.009
					c0.359-0.012,0.647-0.098,0.863-0.257c0.216-0.158,0.324-0.379,0.324-0.661c0-0.564-0.366-0.846-1.098-0.846
					c-0.408,0-0.847,0.107-1.314,0.323l-0.126-0.818c0.192-0.108,0.453-0.199,0.783-0.274s0.645-0.113,0.945-0.113
					c0.582,0,1.047,0.134,1.395,0.401c0.348,0.267,0.522,0.644,0.522,1.129c0,0.702-0.369,1.183-1.107,1.44
					c0.876,0.174,1.314,0.678,1.314,1.512c0,0.57-0.204,1.021-0.612,1.35C400.735,242.439,400.18,242.604,399.478,242.604z"/>
			</g>
			<g>
				<path d="M409.395,242.55v-5.076l-1.035,0.207v-0.647l1.566-0.702h0.585v6.219H409.395z"/>
				<path d="M413.427,242.604c-0.708,0-1.293-0.141-1.755-0.423l0.197-0.846c0.414,0.246,0.841,0.369,1.278,0.369
					c0.432,0,0.77-0.101,1.013-0.302s0.364-0.487,0.364-0.859c0-0.738-0.444-1.107-1.332-1.107c-0.39,0-0.807,0.111-1.251,0.333
					l0.226-3.393h3.222v0.864h-2.376l-0.117,1.503c0.276-0.072,0.534-0.108,0.774-0.108c0.63,0,1.12,0.162,1.471,0.486
					c0.352,0.323,0.527,0.807,0.527,1.448c0,0.589-0.203,1.074-0.607,1.458C414.656,242.413,414.111,242.604,413.427,242.604z"/>
			</g>
		</g>
		<g>
			<path d="M235.142,184.867c-0.708,0-1.293-0.141-1.755-0.423l0.197-0.846c0.414,0.246,0.841,0.369,1.278,0.369
				c0.432,0,0.77-0.101,1.013-0.302s0.364-0.487,0.364-0.859c0-0.738-0.444-1.107-1.332-1.107c-0.39,0-0.807,0.111-1.251,0.333
				l0.226-3.393h3.222v0.864h-2.376l-0.117,1.503c0.276-0.072,0.534-0.108,0.774-0.108c0.63,0,1.12,0.162,1.471,0.486
				c0.352,0.323,0.527,0.807,0.527,1.448c0,0.589-0.203,1.074-0.607,1.458C236.371,184.675,235.826,184.867,235.142,184.867z"/>
			<path d="M240.605,184.885c-0.72,0-1.299-0.245-1.737-0.733c-0.438-0.489-0.656-1.231-0.656-2.228v-0.388
				c0-0.533,0.064-0.999,0.193-1.395c0.129-0.396,0.308-0.708,0.535-0.937c0.229-0.228,0.481-0.396,0.761-0.504
				c0.279-0.107,0.583-0.162,0.913-0.162c0.702,0,1.273,0.24,1.715,0.721c0.441,0.479,0.661,1.229,0.661,2.25v0.387
				c0,1.021-0.222,1.773-0.666,2.259C241.88,184.642,241.307,184.885,240.605,184.885z M240.605,184.039
				c0.42,0,0.732-0.163,0.937-0.49c0.203-0.327,0.306-0.854,0.306-1.579v-0.459c0-1.41-0.411-2.115-1.233-2.115
				c-0.426,0-0.741,0.163-0.944,0.49c-0.204,0.327-0.307,0.848-0.307,1.562v0.478C239.363,183.334,239.777,184.039,240.605,184.039z
				"/>
		</g>
		<g>
			<path d="M229.913,136.602v-5.076l-1.035,0.207v-0.647l1.566-0.702h0.585v6.218H229.913z"/>
			<path d="M234.791,136.674c-0.72,0-1.299-0.245-1.737-0.733c-0.438-0.489-0.656-1.231-0.656-2.228v-0.388
				c0-0.533,0.064-0.999,0.193-1.394c0.129-0.396,0.308-0.708,0.535-0.937c0.229-0.228,0.481-0.396,0.761-0.504
				c0.279-0.107,0.583-0.162,0.913-0.162c0.702,0,1.273,0.24,1.715,0.721c0.441,0.479,0.661,1.229,0.661,2.25v0.387
				c0,1.021-0.222,1.773-0.666,2.259C236.066,136.431,235.493,136.674,234.791,136.674z M234.791,135.828
				c0.42,0,0.732-0.163,0.937-0.49c0.203-0.327,0.306-0.854,0.306-1.579v-0.459c0-1.41-0.411-2.115-1.233-2.115
				c-0.426,0-0.741,0.163-0.944,0.49c-0.204,0.327-0.307,0.847-0.307,1.561v0.478C233.548,135.124,233.962,135.828,234.791,135.828z
				"/>
			<path d="M240.605,136.674c-0.72,0-1.299-0.245-1.737-0.733c-0.438-0.489-0.656-1.231-0.656-2.228v-0.388
				c0-0.533,0.064-0.999,0.193-1.394c0.129-0.396,0.308-0.708,0.535-0.937c0.229-0.228,0.481-0.396,0.761-0.504
				c0.279-0.107,0.583-0.162,0.913-0.162c0.702,0,1.273,0.24,1.715,0.721c0.441,0.479,0.661,1.229,0.661,2.25v0.387
				c0,1.021-0.222,1.773-0.666,2.259C241.88,136.431,241.307,136.674,240.605,136.674z M240.605,135.828
				c0.42,0,0.732-0.163,0.937-0.49c0.203-0.327,0.306-0.854,0.306-1.579v-0.459c0-1.41-0.411-2.115-1.233-2.115
				c-0.426,0-0.741,0.163-0.944,0.49c-0.204,0.327-0.307,0.847-0.307,1.561v0.478C239.363,135.124,239.777,135.828,240.605,135.828z
				"/>
		</g>
		<g>
			<path d="M231.11,88.406V83.33l-1.035,0.207v-0.647l1.566-0.702h0.585v6.219H231.11z"/>
			<path d="M235.142,88.459c-0.708,0-1.293-0.141-1.755-0.423l0.197-0.846c0.414,0.246,0.841,0.369,1.278,0.369
				c0.432,0,0.77-0.101,1.013-0.302s0.364-0.487,0.364-0.859c0-0.738-0.444-1.107-1.332-1.107c-0.39,0-0.807,0.111-1.251,0.333
				l0.226-3.393h3.222v0.864h-2.376l-0.117,1.503c0.276-0.072,0.534-0.108,0.774-0.108c0.63,0,1.12,0.162,1.471,0.486
				c0.352,0.323,0.527,0.807,0.527,1.448c0,0.589-0.203,1.074-0.607,1.458C236.371,88.268,235.826,88.459,235.142,88.459z"/>
			<path d="M240.605,88.478c-0.72,0-1.299-0.245-1.737-0.733c-0.438-0.489-0.656-1.231-0.656-2.228v-0.388
				c0-0.533,0.064-0.999,0.193-1.395c0.129-0.396,0.308-0.708,0.535-0.937c0.229-0.228,0.481-0.396,0.761-0.504
				c0.279-0.107,0.583-0.162,0.913-0.162c0.702,0,1.273,0.24,1.715,0.721c0.441,0.479,0.661,1.229,0.661,2.25v0.387
				c0,1.021-0.222,1.773-0.666,2.259C241.88,88.235,241.307,88.478,240.605,88.478z M240.605,87.631c0.42,0,0.732-0.163,0.937-0.49
				c0.203-0.327,0.306-0.854,0.306-1.579v-0.459c0-1.41-0.411-2.115-1.233-2.115c-0.426,0-0.741,0.163-0.944,0.49
				c-0.204,0.327-0.307,0.848-0.307,1.562v0.478C239.363,86.927,239.777,87.631,240.605,87.631z"/>
		</g>
		<g>
			<path d="M227.564,38.992v-0.647l1.18-1.242c0.521-0.552,0.908-1.01,1.16-1.373c0.252-0.362,0.378-0.718,0.378-1.066
				c0-0.365-0.097-0.63-0.292-0.792s-0.493-0.243-0.896-0.243c-0.396,0-0.822,0.139-1.278,0.414l-0.18-0.818
				c0.534-0.312,1.119-0.469,1.755-0.469c0.666,0,1.173,0.153,1.521,0.459c0.348,0.307,0.521,0.741,0.521,1.306
				c0,0.258-0.047,0.518-0.14,0.778s-0.238,0.525-0.437,0.792c-0.197,0.267-0.37,0.483-0.518,0.648
				c-0.146,0.165-0.346,0.379-0.598,0.643l-0.729,0.747h2.475v0.864H227.564z"/>
			<path d="M234.791,39.101c-0.72,0-1.299-0.245-1.737-0.733c-0.438-0.489-0.656-1.231-0.656-2.228v-0.388
				c0-0.533,0.064-0.999,0.193-1.395c0.129-0.396,0.308-0.708,0.535-0.937c0.229-0.228,0.481-0.396,0.761-0.504
				c0.279-0.107,0.583-0.162,0.913-0.162c0.702,0,1.273,0.24,1.715,0.721c0.441,0.479,0.661,1.229,0.661,2.25v0.387
				c0,1.021-0.222,1.773-0.666,2.259C236.066,38.857,235.493,39.101,234.791,39.101z M234.791,38.254c0.42,0,0.732-0.163,0.937-0.49
				c0.203-0.327,0.306-0.854,0.306-1.579v-0.459c0-1.41-0.411-2.115-1.233-2.115c-0.426,0-0.741,0.163-0.944,0.49
				c-0.204,0.327-0.307,0.848-0.307,1.562v0.478C233.548,37.55,233.962,38.254,234.791,38.254z"/>
			<path d="M240.605,39.101c-0.72,0-1.299-0.245-1.737-0.733c-0.438-0.489-0.656-1.231-0.656-2.228v-0.388
				c0-0.533,0.064-0.999,0.193-1.395c0.129-0.396,0.308-0.708,0.535-0.937c0.229-0.228,0.481-0.396,0.761-0.504
				c0.279-0.107,0.583-0.162,0.913-0.162c0.702,0,1.273,0.24,1.715,0.721c0.441,0.479,0.661,1.229,0.661,2.25v0.387
				c0,1.021-0.222,1.773-0.666,2.259C241.88,38.857,241.307,39.101,240.605,39.101z M240.605,38.254c0.42,0,0.732-0.163,0.937-0.49
				c0.203-0.327,0.306-0.854,0.306-1.579v-0.459c0-1.41-0.411-2.115-1.233-2.115c-0.426,0-0.741,0.163-0.944,0.49
				c-0.204,0.327-0.307,0.848-0.307,1.562v0.478C239.363,37.55,239.777,38.254,240.605,38.254z"/>
		</g>
		<line fill="none" stroke="#000000" stroke-miterlimit="10" x1="247.274" y1="36.302" x2="251.145" y2="36.302"/>
		<line fill="none" stroke="#000000" stroke-miterlimit="10" x1="247.274" y1="84.948" x2="251.145" y2="84.948"/>
		<line fill="none" stroke="#000000" stroke-miterlimit="10" x1="247.274" y1="132.948" x2="251.145" y2="132.948"/>
		<line fill="none" stroke="#000000" stroke-miterlimit="10" x1="247.274" y1="181.593" x2="251.145" y2="181.593"/>
	</g>
	<g>
		<g>
			<line fill="none" stroke="#000000" stroke-miterlimit="10" x1="20.177" y1="229.528" x2="186.371" y2="229.528"/>
			<line fill="none" stroke="#000000" stroke-miterlimit="10" x1="24.048" y1="21.464" x2="24.048" y2="229.528"/>
			<line fill="none" stroke="#000000" stroke-miterlimit="10" x1="25.403" y1="229.528" x2="25.403" y2="233.786"/>
			<line fill="none" stroke="#000000" stroke-miterlimit="10" x1="32.368" y1="229.528" x2="32.368" y2="233.786"/>
			<line fill="none" stroke="#000000" stroke-miterlimit="10" x1="39.333" y1="229.528" x2="39.333" y2="233.786"/>
			<line fill="none" stroke="#000000" stroke-miterlimit="10" x1="46.298" y1="229.528" x2="46.298" y2="233.786"/>
			<line fill="none" stroke="#000000" stroke-miterlimit="10" x1="53.263" y1="229.528" x2="53.263" y2="233.786"/>
			<line fill="none" stroke="#000000" stroke-miterlimit="10" x1="60.228" y1="229.528" x2="60.228" y2="233.786"/>
			<line fill="none" stroke="#000000" stroke-miterlimit="10" x1="67.193" y1="229.528" x2="67.193" y2="233.786"/>
			<line fill="none" stroke="#000000" stroke-miterlimit="10" x1="74.158" y1="229.528" x2="74.158" y2="233.786"/>
			<line fill="none" stroke="#000000" stroke-miterlimit="10" x1="81.123" y1="229.528" x2="81.123" y2="233.786"/>
			<line fill="none" stroke="#000000" stroke-miterlimit="10" x1="88.087" y1="229.528" x2="88.087" y2="233.786"/>
			<line fill="none" stroke="#000000" stroke-miterlimit="10" x1="95.052" y1="229.528" x2="95.052" y2="233.786"/>
			<line fill="none" stroke="#000000" stroke-miterlimit="10" x1="102.017" y1="229.528" x2="102.017" y2="233.786"/>
			<line fill="none" stroke="#000000" stroke-miterlimit="10" x1="108.982" y1="229.528" x2="108.982" y2="233.786"/>
			<line fill="none" stroke="#000000" stroke-miterlimit="10" x1="115.947" y1="229.528" x2="115.947" y2="233.786"/>
			<line fill="none" stroke="#000000" stroke-miterlimit="10" x1="122.912" y1="229.528" x2="122.912" y2="233.786"/>
			<line fill="none" stroke="#000000" stroke-miterlimit="10" x1="129.877" y1="229.528" x2="129.877" y2="233.786"/>
			<line fill="none" stroke="#000000" stroke-miterlimit="10" x1="136.842" y1="229.528" x2="136.842" y2="233.786"/>
			<line fill="none" stroke="#000000" stroke-miterlimit="10" x1="143.807" y1="229.528" x2="143.807" y2="233.786"/>
			<line fill="none" stroke="#000000" stroke-miterlimit="10" x1="150.772" y1="229.528" x2="150.772" y2="233.786"/>
			<line fill="none" stroke="#000000" stroke-miterlimit="10" x1="157.737" y1="229.528" x2="157.737" y2="233.786"/>
			<line fill="none" stroke="#000000" stroke-miterlimit="10" x1="164.702" y1="229.528" x2="164.702" y2="233.786"/>
			<line fill="none" stroke="#000000" stroke-miterlimit="10" x1="171.667" y1="229.528" x2="171.667" y2="233.786"/>
			<line fill="none" stroke="#000000" stroke-miterlimit="10" x1="178.632" y1="229.528" x2="178.632" y2="233.786"/>
			<line fill="none" stroke="#000000" stroke-miterlimit="10" x1="185.597" y1="229.528" x2="185.597" y2="233.786"/>
			<g>
				<path d="M29,242.55v-5.076l-1.035,0.207v-0.647l1.566-0.702h0.585v6.219H29z"/>
				<path d="M31.888,242.514l2.25-5.256h-2.799v-0.873h3.996v0.657l-2.223,5.472H31.888z"/>
			</g>
			<g>
				<path d="M42.656,242.55v-5.076l-1.035,0.207v-0.647l1.566-0.702h0.585v6.219H42.656z"/>
				<path d="M47.075,236.287c0.738,0,1.307,0.233,1.706,0.702c0.398,0.468,0.598,1.137,0.598,2.007v0.414
					c0,2.142-0.863,3.213-2.592,3.213c-0.57,0-1.071-0.129-1.503-0.388l0.189-0.81c0.138,0.078,0.329,0.148,0.575,0.212
					c0.246,0.062,0.472,0.094,0.676,0.094c0.491,0,0.869-0.139,1.134-0.418c0.264-0.279,0.408-0.784,0.432-1.517
					c-0.401,0.366-0.885,0.549-1.449,0.549c-0.533,0-0.973-0.174-1.318-0.521c-0.345-0.349-0.518-0.813-0.518-1.396
					c0-0.63,0.181-1.145,0.54-1.543C45.905,236.486,46.415,236.287,47.075,236.287z M47.102,237.105
					c-0.33,0-0.585,0.111-0.766,0.333c-0.18,0.223-0.27,0.525-0.27,0.909c0,0.396,0.101,0.694,0.302,0.896
					c0.2,0.201,0.466,0.302,0.796,0.302c0.216,0,0.428-0.06,0.635-0.18s0.367-0.262,0.481-0.424v-0.152
					C48.281,237.667,47.888,237.105,47.102,237.105z"/>
			</g>
			<g>
				<path d="M55.871,242.514v-0.647l1.18-1.242c0.521-0.552,0.908-1.01,1.16-1.373c0.252-0.362,0.378-0.718,0.378-1.066
					c0-0.365-0.097-0.63-0.292-0.792s-0.493-0.243-0.896-0.243c-0.396,0-0.822,0.139-1.278,0.414l-0.18-0.818
					c0.534-0.312,1.119-0.469,1.755-0.469c0.666,0,1.173,0.153,1.521,0.459c0.348,0.307,0.521,0.741,0.521,1.306
					c0,0.258-0.047,0.518-0.14,0.778s-0.238,0.525-0.437,0.792c-0.197,0.267-0.37,0.483-0.518,0.648
					c-0.146,0.165-0.346,0.379-0.598,0.643l-0.729,0.747h2.475v0.864H55.871z"/>
				<path d="M61.595,242.55v-5.076l-1.035,0.207v-0.647l1.566-0.702h0.585v6.219H61.595z"/>
			</g>
			<g>
				<path d="M69.083,242.514v-0.647l1.18-1.242c0.521-0.552,0.908-1.01,1.16-1.373c0.252-0.362,0.378-0.718,0.378-1.066
					c0-0.365-0.097-0.63-0.292-0.792s-0.493-0.243-0.896-0.243c-0.396,0-0.822,0.139-1.278,0.414l-0.18-0.818
					c0.534-0.312,1.119-0.469,1.755-0.469c0.666,0,1.173,0.153,1.521,0.459c0.348,0.307,0.521,0.741,0.521,1.306
					c0,0.258-0.047,0.518-0.14,0.778s-0.238,0.525-0.437,0.792c-0.197,0.267-0.37,0.483-0.518,0.648
					c-0.146,0.165-0.346,0.379-0.598,0.643l-0.729,0.747h2.475v0.864H69.083z"/>
				<path d="M75.553,242.604c-0.354,0-0.697-0.042-1.03-0.126s-0.593-0.186-0.778-0.306l0.18-0.801
					c0.156,0.096,0.376,0.179,0.661,0.247c0.285,0.069,0.545,0.104,0.778,0.104c0.42,0,0.744-0.087,0.973-0.261
					c0.228-0.174,0.342-0.432,0.342-0.774c0-0.611-0.426-0.924-1.278-0.936l-0.639-0.019v-0.801l0.567-0.009
					c0.359-0.012,0.647-0.098,0.863-0.257c0.216-0.158,0.324-0.379,0.324-0.661c0-0.564-0.366-0.846-1.098-0.846
					c-0.408,0-0.847,0.107-1.314,0.323l-0.126-0.818c0.192-0.108,0.453-0.199,0.783-0.274s0.645-0.113,0.945-0.113
					c0.582,0,1.047,0.134,1.395,0.401c0.348,0.267,0.522,0.644,0.522,1.129c0,0.702-0.369,1.183-1.107,1.44
					c0.876,0.174,1.314,0.678,1.314,1.512c0,0.57-0.204,1.021-0.612,1.35C76.81,242.439,76.255,242.604,75.553,242.604z"/>
			</g>
			<g>
				<path d="M87.059,242.55v-5.076l-1.035,0.207v-0.647l1.566-0.702h0.585v6.219H87.059z"/>
			</g>
			<g>
				<path d="M101.017,242.604c-0.354,0-0.697-0.042-1.03-0.126s-0.593-0.186-0.778-0.306l0.18-0.801
					c0.156,0.096,0.376,0.179,0.661,0.247c0.285,0.069,0.545,0.104,0.778,0.104c0.42,0,0.744-0.087,0.973-0.261
					c0.228-0.174,0.342-0.432,0.342-0.774c0-0.611-0.426-0.924-1.278-0.936l-0.639-0.019v-0.801l0.567-0.009
					c0.359-0.012,0.647-0.098,0.863-0.257c0.216-0.158,0.324-0.379,0.324-0.661c0-0.564-0.366-0.846-1.098-0.846
					c-0.408,0-0.847,0.107-1.314,0.323l-0.126-0.818c0.192-0.108,0.453-0.199,0.783-0.274s0.645-0.113,0.945-0.113
					c0.582,0,1.047,0.134,1.395,0.401c0.348,0.267,0.522,0.644,0.522,1.129c0,0.702-0.369,1.183-1.107,1.44
					c0.876,0.174,1.314,0.678,1.314,1.512c0,0.57-0.204,1.021-0.612,1.35C102.273,242.439,101.719,242.604,101.017,242.604z"/>
			</g>
			<g>
				<path d="M114.966,242.604c-0.708,0-1.293-0.141-1.755-0.423l0.197-0.846c0.414,0.246,0.841,0.369,1.278,0.369
					c0.432,0,0.77-0.101,1.013-0.302s0.364-0.487,0.364-0.859c0-0.738-0.444-1.107-1.332-1.107c-0.39,0-0.807,0.111-1.251,0.333
					l0.226-3.393h3.222v0.864h-2.376l-0.117,1.503c0.276-0.072,0.534-0.108,0.774-0.108c0.63,0,1.12,0.162,1.471,0.486
					c0.352,0.323,0.527,0.807,0.527,1.448c0,0.589-0.203,1.074-0.607,1.458C116.194,242.413,115.649,242.604,114.966,242.604z"/>
			</g>
			<g>
				<path d="M127.749,242.514l2.25-5.256H127.2v-0.873h3.996v0.657l-2.223,5.472H127.749z"/>
			</g>
			<g>
				<path d="M142.936,236.287c0.738,0,1.307,0.233,1.706,0.702c0.398,0.468,0.598,1.137,0.598,2.007v0.414
					c0,2.142-0.863,3.213-2.592,3.213c-0.57,0-1.071-0.129-1.503-0.388l0.189-0.81c0.138,0.078,0.329,0.148,0.575,0.212
					c0.246,0.062,0.472,0.094,0.676,0.094c0.491,0,0.869-0.139,1.134-0.418c0.264-0.279,0.408-0.784,0.432-1.517
					c-0.401,0.366-0.885,0.549-1.449,0.549c-0.533,0-0.973-0.174-1.318-0.521c-0.345-0.349-0.518-0.813-0.518-1.396
					c0-0.63,0.181-1.145,0.54-1.543C141.766,236.486,142.275,236.287,142.936,236.287z M142.963,237.105
					c-0.33,0-0.585,0.111-0.766,0.333c-0.18,0.223-0.27,0.525-0.27,0.909c0,0.396,0.101,0.694,0.302,0.896
					c0.2,0.201,0.466,0.302,0.796,0.302c0.216,0,0.428-0.06,0.635-0.18s0.367-0.262,0.481-0.424v-0.152
					C144.142,237.667,143.749,237.105,142.963,237.105z"/>
			</g>
			<g>
				<path d="M155.048,242.55v-5.076l-1.035,0.207v-0.647l1.566-0.702h0.585v6.219H155.048z"/>
				<path d="M158.423,242.55v-5.076l-1.035,0.207v-0.647l1.566-0.702h0.585v6.219H158.423z"/>
			</g>
			<g>
				<path d="M168.259,242.55v-5.076l-1.035,0.207v-0.647l1.566-0.702h0.585v6.219H168.259z"/>
				<path d="M172.381,242.604c-0.354,0-0.697-0.042-1.03-0.126s-0.593-0.186-0.778-0.306l0.18-0.801
					c0.156,0.096,0.376,0.179,0.661,0.247c0.285,0.069,0.545,0.104,0.778,0.104c0.42,0,0.744-0.087,0.973-0.261
					c0.228-0.174,0.342-0.432,0.342-0.774c0-0.611-0.426-0.924-1.278-0.936l-0.639-0.019v-0.801l0.567-0.009
					c0.359-0.012,0.647-0.098,0.863-0.257c0.216-0.158,0.324-0.379,0.324-0.661c0-0.564-0.366-0.846-1.098-0.846
					c-0.408,0-0.847,0.107-1.314,0.323l-0.126-0.818c0.192-0.108,0.453-0.199,0.783-0.274s0.645-0.113,0.945-0.113
					c0.582,0,1.047,0.134,1.395,0.401c0.348,0.267,0.522,0.644,0.522,1.129c0,0.702-0.369,1.183-1.107,1.44
					c0.876,0.174,1.314,0.678,1.314,1.512c0,0.57-0.204,1.021-0.612,1.35C173.638,242.439,173.083,242.604,172.381,242.604z"/>
			</g>
			<g>
				<path d="M182.299,242.55v-5.076l-1.035,0.207v-0.647l1.566-0.702h0.585v6.219H182.299z"/>
				<path d="M186.331,242.604c-0.708,0-1.293-0.141-1.755-0.423l0.197-0.846c0.414,0.246,0.841,0.369,1.278,0.369
					c0.432,0,0.77-0.101,1.013-0.302s0.364-0.487,0.364-0.859c0-0.738-0.444-1.107-1.332-1.107c-0.39,0-0.807,0.111-1.251,0.333
					l0.226-3.393h3.222v0.864h-2.376l-0.117,1.503c0.276-0.072,0.534-0.108,0.774-0.108c0.63,0,1.12,0.162,1.471,0.486
					c0.352,0.323,0.527,0.807,0.527,1.448c0,0.589-0.203,1.074-0.607,1.458C187.56,242.413,187.015,242.604,186.331,242.604z"/>
			</g>
		</g>
		<g>
			<path d="M8.045,184.867c-0.708,0-1.293-0.141-1.755-0.423l0.197-0.846c0.414,0.246,0.841,0.369,1.278,0.369
				c0.432,0,0.77-0.101,1.013-0.302s0.364-0.487,0.364-0.859c0-0.738-0.444-1.107-1.332-1.107c-0.39,0-0.807,0.111-1.251,0.333
				l0.226-3.393h3.222v0.864H7.631l-0.117,1.503c0.276-0.072,0.534-0.108,0.774-0.108c0.63,0,1.12,0.162,1.471,0.486
				c0.352,0.323,0.527,0.807,0.527,1.448c0,0.589-0.203,1.074-0.607,1.458C9.274,184.675,8.729,184.867,8.045,184.867z"/>
			<path d="M13.508,184.885c-0.72,0-1.299-0.245-1.737-0.733c-0.438-0.489-0.656-1.231-0.656-2.228v-0.388
				c0-0.533,0.064-0.999,0.193-1.395c0.129-0.396,0.308-0.708,0.535-0.937c0.229-0.228,0.481-0.396,0.761-0.504
				c0.279-0.107,0.583-0.162,0.913-0.162c0.702,0,1.273,0.24,1.715,0.721c0.441,0.479,0.661,1.229,0.661,2.25v0.387
				c0,1.021-0.222,1.773-0.666,2.259C14.784,184.642,14.21,184.885,13.508,184.885z M13.508,184.039c0.42,0,0.732-0.163,0.937-0.49
				c0.203-0.327,0.306-0.854,0.306-1.579v-0.459c0-1.41-0.411-2.115-1.233-2.115c-0.426,0-0.741,0.163-0.944,0.49
				c-0.204,0.327-0.307,0.848-0.307,1.562v0.478C12.266,183.334,12.68,184.039,13.508,184.039z"/>
		</g>
		<g>
			<path d="M2.816,136.602v-5.076l-1.035,0.207v-0.647l1.566-0.702h0.585v6.218H2.816z"/>
			<path d="M7.694,136.674c-0.72,0-1.299-0.245-1.737-0.733c-0.438-0.489-0.656-1.231-0.656-2.228v-0.388
				c0-0.533,0.064-0.999,0.193-1.394c0.129-0.396,0.308-0.708,0.535-0.937c0.229-0.228,0.481-0.396,0.761-0.504
				c0.279-0.107,0.583-0.162,0.913-0.162c0.702,0,1.273,0.24,1.715,0.721c0.441,0.479,0.661,1.229,0.661,2.25v0.387
				c0,1.021-0.222,1.773-0.666,2.259C8.97,136.431,8.396,136.674,7.694,136.674z M7.694,135.828c0.42,0,0.732-0.163,0.937-0.49
				c0.203-0.327,0.306-0.854,0.306-1.579v-0.459c0-1.41-0.411-2.115-1.233-2.115c-0.426,0-0.741,0.163-0.944,0.49
				c-0.204,0.327-0.307,0.847-0.307,1.561v0.478C6.452,135.124,6.866,135.828,7.694,135.828z"/>
			<path d="M13.509,136.674c-0.72,0-1.299-0.245-1.737-0.733c-0.438-0.489-0.656-1.231-0.656-2.228v-0.388
				c0-0.533,0.064-0.999,0.193-1.394c0.129-0.396,0.308-0.708,0.535-0.937c0.229-0.228,0.481-0.396,0.761-0.504
				c0.279-0.107,0.583-0.162,0.913-0.162c0.702,0,1.273,0.24,1.715,0.721c0.441,0.479,0.661,1.229,0.661,2.25v0.387
				c0,1.021-0.222,1.773-0.666,2.259C14.784,136.431,14.211,136.674,13.509,136.674z M13.509,135.828c0.42,0,0.732-0.163,0.937-0.49
				c0.203-0.327,0.306-0.854,0.306-1.579v-0.459c0-1.41-0.411-2.115-1.233-2.115c-0.426,0-0.741,0.163-0.944,0.49
				c-0.204,0.327-0.307,0.847-0.307,1.561v0.478C12.267,135.124,12.681,135.828,13.509,135.828z"/>
		</g>
		<g>
			<path d="M4.014,88.406V83.33l-1.035,0.207v-0.647l1.566-0.702H5.13v6.219H4.014z"/>
			<path d="M8.046,88.459c-0.708,0-1.293-0.141-1.755-0.423l0.197-0.846c0.414,0.246,0.841,0.369,1.278,0.369
				c0.432,0,0.77-0.101,1.013-0.302s0.364-0.487,0.364-0.859c0-0.738-0.444-1.107-1.332-1.107c-0.39,0-0.807,0.111-1.251,0.333
				l0.226-3.393h3.222v0.864H7.632l-0.117,1.503c0.276-0.072,0.534-0.108,0.774-0.108c0.63,0,1.12,0.162,1.471,0.486
				c0.352,0.323,0.527,0.807,0.527,1.448c0,0.589-0.203,1.074-0.607,1.458C9.274,88.268,8.729,88.459,8.046,88.459z"/>
			<path d="M13.509,88.478c-0.72,0-1.299-0.245-1.737-0.733c-0.438-0.489-0.656-1.231-0.656-2.228v-0.388
				c0-0.533,0.064-0.999,0.193-1.395c0.129-0.396,0.308-0.708,0.535-0.937c0.229-0.228,0.481-0.396,0.761-0.504
				c0.279-0.107,0.583-0.162,0.913-0.162c0.702,0,1.273,0.24,1.715,0.721c0.441,0.479,0.661,1.229,0.661,2.25v0.387
				c0,1.021-0.222,1.773-0.666,2.259C14.784,88.235,14.211,88.478,13.509,88.478z M13.509,87.631c0.42,0,0.732-0.163,0.937-0.49
				c0.203-0.327,0.306-0.854,0.306-1.579v-0.459c0-1.41-0.411-2.115-1.233-2.115c-0.426,0-0.741,0.163-0.944,0.49
				c-0.204,0.327-0.307,0.848-0.307,1.562v0.478C12.267,86.927,12.681,87.631,13.509,87.631z"/>
		</g>
		<g>
			<path d="M0.468,38.992v-0.647l1.18-1.242c0.521-0.552,0.908-1.01,1.16-1.373c0.252-0.362,0.378-0.718,0.378-1.066
				c0-0.365-0.097-0.63-0.292-0.792S2.4,33.628,1.998,33.628c-0.396,0-0.822,0.139-1.278,0.414l-0.18-0.818
				c0.534-0.312,1.119-0.469,1.755-0.469c0.666,0,1.173,0.153,1.521,0.459c0.348,0.307,0.521,0.741,0.521,1.306
				c0,0.258-0.047,0.518-0.14,0.778S3.96,35.823,3.762,36.09c-0.197,0.267-0.37,0.483-0.518,0.648
				c-0.146,0.165-0.346,0.379-0.598,0.643l-0.729,0.747h2.475v0.864H0.468z"/>
			<path d="M7.694,39.101c-0.72,0-1.299-0.245-1.737-0.733c-0.438-0.489-0.656-1.231-0.656-2.228v-0.388
				c0-0.533,0.064-0.999,0.193-1.395c0.129-0.396,0.308-0.708,0.535-0.937c0.229-0.228,0.481-0.396,0.761-0.504
				c0.279-0.107,0.583-0.162,0.913-0.162c0.702,0,1.273,0.24,1.715,0.721c0.441,0.479,0.661,1.229,0.661,2.25v0.387
				c0,1.021-0.222,1.773-0.666,2.259C8.97,38.857,8.396,39.101,7.694,39.101z M7.694,38.254c0.42,0,0.732-0.163,0.937-0.49
				c0.203-0.327,0.306-0.854,0.306-1.579v-0.459c0-1.41-0.411-2.115-1.233-2.115c-0.426,0-0.741,0.163-0.944,0.49
				c-0.204,0.327-0.307,0.848-0.307,1.562v0.478C6.452,37.55,6.866,38.254,7.694,38.254z"/>
			<path d="M13.509,39.101c-0.72,0-1.299-0.245-1.737-0.733c-0.438-0.489-0.656-1.231-0.656-2.228v-0.388
				c0-0.533,0.064-0.999,0.193-1.395c0.129-0.396,0.308-0.708,0.535-0.937c0.229-0.228,0.481-0.396,0.761-0.504
				c0.279-0.107,0.583-0.162,0.913-0.162c0.702,0,1.273,0.24,1.715,0.721c0.441,0.479,0.661,1.229,0.661,2.25v0.387
				c0,1.021-0.222,1.773-0.666,2.259C14.784,38.857,14.211,39.101,13.509,39.101z M13.509,38.254c0.42,0,0.732-0.163,0.937-0.49
				c0.203-0.327,0.306-0.854,0.306-1.579v-0.459c0-1.41-0.411-2.115-1.233-2.115c-0.426,0-0.741,0.163-0.944,0.49
				c-0.204,0.327-0.307,0.848-0.307,1.562v0.478C12.267,37.55,12.681,38.254,13.509,38.254z"/>
		</g>
		<line fill="none" stroke="#000000" stroke-miterlimit="10" x1="20.177" y1="36.302" x2="24.048" y2="36.302"/>
		<line fill="none" stroke="#000000" stroke-miterlimit="10" x1="20.177" y1="84.948" x2="24.048" y2="84.948"/>
		<line fill="none" stroke="#000000" stroke-miterlimit="10" x1="20.177" y1="132.948" x2="24.048" y2="132.948"/>
		<line fill="none" stroke="#000000" stroke-miterlimit="10" x1="20.177" y1="181.593" x2="24.048" y2="181.593"/>
	</g>
	<g>
		<path d="M97.431,258.445l-0.612,0.792c-0.342-0.21-0.688-0.53-1.039-0.963c-0.351-0.432-0.593-0.849-0.725-1.251
			c-0.132,0.456-0.381,0.911-0.747,1.364c-0.366,0.452-0.756,0.793-1.17,1.021l-0.639-0.774c1.326-0.858,1.989-2.091,1.989-3.699
			v-1.224h1.089v1.17C95.577,256.459,96.195,257.647,97.431,258.445z M99.087,261.055h-1.053v-8.019h1.053V261.055z"/>
		<path d="M104.271,253.648c-0.006,1.104-0.349,2.03-1.03,2.776c-0.681,0.747-1.543,1.253-2.587,1.517l-0.522-0.837
			c0.72-0.126,1.369-0.421,1.948-0.887c0.579-0.465,0.932-1.03,1.058-1.696h-2.601v-0.873H104.271z M106.71,260.821h-5.355v-2.583
			h1.062v1.746h4.293V260.821z M107.655,256.186h-1.143v2.655h-1.062v-5.805h1.062v2.285h1.143V256.186z"/>
	</g>
	<g>
		<path d="M325.851,258.445l-0.612,0.792c-0.342-0.21-0.688-0.53-1.039-0.963c-0.351-0.432-0.593-0.849-0.725-1.251
			c-0.132,0.456-0.381,0.911-0.747,1.364c-0.366,0.452-0.756,0.793-1.17,1.021l-0.639-0.774c1.326-0.858,1.989-2.091,1.989-3.699
			v-1.224h1.089v1.17C323.998,256.459,324.615,257.647,325.851,258.445z M327.507,261.055h-1.053v-8.019h1.053V261.055z"/>
		<path d="M332.691,253.648c-0.006,1.104-0.349,2.03-1.03,2.776c-0.681,0.747-1.543,1.253-2.587,1.517l-0.522-0.837
			c0.72-0.126,1.369-0.421,1.948-0.887c0.579-0.465,0.932-1.03,1.058-1.696h-2.601v-0.873H332.691z M335.13,260.821h-5.354v-2.583
			h1.062v1.746h4.293V260.821z M336.076,256.186h-1.144v2.655h-1.062v-5.805h1.062v2.285h1.144V256.186z"/>
	</g>
	<g>
		<path d="M100.366,8.39V2.5h-1.97V1.53h5.15V2.5h-1.95v5.89H100.366z"/>
		<path d="M104.646,8.39V1.53h1.38l2.85,4.84h0.03V1.53h1.09v6.86h-1.22l-3.01-5.17h-0.03v5.17H104.646z"/>
		<path d="M111.605,8.39V1.53h4.21V2.5h-2.98v2.05h2.32V5.5h-2.32v2.89H111.605z"/>
		<path d="M116.775,6.1V5.14h2.75V6.1H116.775z"/>
		<path d="M124.135,3.35h1.01c-0.094,0.994-0.14,2.13-0.14,3.41c0,0.514,0.157,0.77,0.47,0.77l-0.08,0.84
			c-0.107,0.047-0.244,0.07-0.41,0.07c-0.533,0-0.854-0.333-0.96-1h-0.03c-0.167,0.313-0.393,0.558-0.68,0.735
			s-0.61,0.265-0.97,0.265c-0.6,0-1.092-0.232-1.475-0.695c-0.383-0.463-0.575-1.071-0.575-1.825c0-0.787,0.223-1.43,0.67-1.93
			s0.973-0.75,1.58-0.75c0.693,0,1.176,0.29,1.45,0.87h0.04C124.049,3.87,124.082,3.617,124.135,3.35z M121.505,5.89
			c0,0.447,0.106,0.822,0.32,1.125c0.213,0.304,0.494,0.455,0.84,0.455c0.267,0,0.508-0.108,0.725-0.325
			c0.217-0.217,0.355-0.475,0.415-0.775c0.027-0.167,0.04-0.363,0.04-0.59s-0.006-0.39-0.02-0.49c-0.06-0.32-0.19-0.588-0.39-0.805
			c-0.2-0.217-0.437-0.325-0.71-0.325c-0.36,0-0.654,0.165-0.88,0.495S121.505,5.397,121.505,5.89z"/>
		<path d="M81.468,20.167c-0.486-0.456-0.885-1.002-1.197-1.638c-0.312-0.636-0.468-1.338-0.468-2.106v-0.162
			c0-0.768,0.156-1.469,0.468-2.102s0.711-1.178,1.197-1.634h0.891c-0.444,0.492-0.804,1.053-1.08,1.683
			c-0.276,0.63-0.414,1.287-0.414,1.971v0.252c0,0.678,0.141,1.349,0.423,2.011c0.282,0.663,0.639,1.238,1.071,1.724H81.468z"/>
		<path d="M82.908,19.231v-0.648l1.179-1.242c0.522-0.552,0.909-1.01,1.161-1.373c0.252-0.363,0.378-0.719,0.378-1.067
			c0-0.366-0.098-0.63-0.292-0.792c-0.195-0.162-0.494-0.243-0.896-0.243c-0.396,0-0.822,0.138-1.278,0.414l-0.18-0.819
			c0.534-0.312,1.119-0.468,1.755-0.468c0.666,0,1.173,0.153,1.521,0.459s0.522,0.741,0.522,1.305c0,0.258-0.046,0.517-0.139,0.778
			c-0.093,0.261-0.239,0.525-0.437,0.792c-0.198,0.267-0.371,0.483-0.518,0.648c-0.147,0.165-0.347,0.379-0.599,0.644l-0.729,0.747
			h2.475v0.864H82.908z"/>
		<path d="M90.306,19.33v-1.26h-2.835v-0.648l3.123-4.365h0.756v4.194h0.909v0.819H91.35v1.26H90.306z M88.677,17.251h1.638v-2.322
			L88.677,17.251z"/>
		<path d="M97.785,17.701l-0.612,0.792c-0.342-0.21-0.688-0.531-1.039-0.963c-0.351-0.432-0.593-0.849-0.725-1.251
			c-0.132,0.456-0.381,0.91-0.747,1.363c-0.366,0.453-0.756,0.793-1.17,1.021l-0.639-0.774c1.326-0.858,1.989-2.091,1.989-3.699
			v-1.224h1.089v1.17C95.931,15.715,96.548,16.903,97.785,17.701z M99.44,20.311h-1.053v-8.019h1.053V20.311z"/>
		<path d="M104.625,12.904c-0.006,1.104-0.349,2.029-1.03,2.776s-1.543,1.252-2.587,1.517l-0.522-0.837
			c0.72-0.126,1.369-0.421,1.948-0.886s0.932-1.031,1.058-1.697h-2.601v-0.873H104.625z M107.064,20.077h-5.355v-2.583h1.062v1.746
			h4.293V20.077z M108.009,15.442h-1.143v2.655h-1.062v-5.805h1.062v2.286h1.143V15.442z"/>
		<path d="M115.245,15.883l0.09,0.81c-1.134,0.192-2.646,0.288-4.536,0.288l-0.144-0.873c0.414,0,0.735-0.003,0.963-0.009
			l-0.18-1.98l1.035-0.117l0.09,2.079l0.801-0.027l0.099-2.043l1.008,0.099L114.282,16C114.666,15.97,114.986,15.931,115.245,15.883
			z M115.02,13.678h-4.131v-0.837h4.131V13.678z M117.396,18.736c0,0.474-0.25,0.846-0.751,1.116s-1.202,0.405-2.102,0.405
			c-0.894,0-1.591-0.135-2.092-0.405s-0.751-0.642-0.751-1.116c0-0.48,0.25-0.855,0.751-1.125c0.501-0.27,1.198-0.405,2.092-0.405
			c0.9,0,1.601,0.135,2.102,0.405C117.145,17.881,117.396,18.256,117.396,18.736z M116.289,18.736c0-0.216-0.154-0.386-0.463-0.509
			s-0.737-0.185-1.283-0.185c-0.54,0-0.966,0.062-1.278,0.185s-0.468,0.292-0.468,0.509c0,0.21,0.156,0.376,0.468,0.5
			s0.738,0.184,1.278,0.184c0.546,0,0.974-0.061,1.283-0.184S116.289,18.946,116.289,18.736z M117.377,17.188h-1.053v-1.413h-0.999
			v-0.792h0.999v-0.756h-0.999v-0.792h0.999v-1.143h1.053V17.188z"/>
		<path d="M124.847,12.652c0,1.332-0.084,2.331-0.252,2.997h1.179v0.837h-1.8v1.899h-1.044v-1.899h-1.044v1.899h-1.044v-1.899
			h-2.313v-0.837h5.049c0.156-0.612,0.228-1.335,0.216-2.169h-4.329v-0.828H124.847z M124.955,20.095h-5.508v-2.502h1.044v1.674
			h4.464V20.095z"/>
		<path d="M132.848,13.129c-0.066,2.556-1.26,4.467-3.582,5.733l-0.648-0.792c0.864-0.396,1.578-0.971,2.142-1.724
			s0.882-1.535,0.954-2.345h-2.61v-0.873H132.848z M135.314,20.311h-1.053v-8.019h1.053V20.311z"/>
		<path d="M140.688,18.547h-1.044v-1.44h-3.177v-0.846h7.245v0.846h-3.024V18.547z M143.351,14.974l-0.45,0.828
			c-0.57-0.06-1.124-0.232-1.661-0.518s-0.919-0.617-1.147-0.995c-0.198,0.402-0.555,0.741-1.071,1.017
			c-0.516,0.276-1.095,0.441-1.737,0.495l-0.441-0.81c0.678-0.036,1.266-0.193,1.764-0.473c0.498-0.279,0.798-0.634,0.9-1.066
			h-2.295v-0.846h5.778v0.846h-2.295c0.078,0.282,0.261,0.54,0.549,0.774c0.288,0.234,0.618,0.413,0.99,0.536
			S142.979,14.956,143.351,14.974z M142.883,20.095h-5.544v-2.34h1.044v1.512h4.5V20.095z"/>
		<path d="M144.062,20.167c0.444-0.486,0.804-1.045,1.08-1.678c0.276-0.633,0.414-1.292,0.414-1.976v-0.261
			c0-0.672-0.14-1.341-0.418-2.007c-0.279-0.666-0.638-1.239-1.076-1.719h0.891c0.48,0.456,0.876,1.002,1.188,1.638
			c0.312,0.636,0.468,1.335,0.468,2.097v0.162c0,0.768-0.156,1.47-0.468,2.106c-0.312,0.636-0.708,1.182-1.188,1.638H144.062z"/>
	</g>
	<g>
		<path d="M319.803,8.39V1.53h1.24v6.86H319.803z"/>
		<path d="M322.694,8.39V1.53h1.229v5.89h2.9v0.97H322.694z"/>
		<path d="M327.704,6.1V5.14h2.75V6.1H327.704z"/>
		<path d="M333.914,8.51c-0.82,0-1.445-0.268-1.875-0.805c-0.431-0.536-0.646-1.281-0.646-2.235V4.98
			c0-1.207,0.271-2.093,0.811-2.66c0.54-0.566,1.25-0.85,2.13-0.85c0.633,0,1.166,0.127,1.6,0.38l-0.24,0.9
			c-0.14-0.073-0.336-0.142-0.59-0.205c-0.253-0.063-0.486-0.095-0.699-0.095c-0.547,0-0.971,0.168-1.271,0.505
			c-0.3,0.337-0.474,0.922-0.52,1.755c0.466-0.4,1-0.6,1.6-0.6c0.606,0,1.099,0.182,1.475,0.545
			c0.377,0.363,0.565,0.865,0.565,1.505c0,0.68-0.207,1.242-0.62,1.685S334.647,8.51,333.914,8.51z M333.883,7.6
			c0.366,0,0.655-0.118,0.865-0.355c0.21-0.236,0.314-0.568,0.314-0.995c0-0.84-0.403-1.26-1.21-1.26
			c-0.233,0-0.463,0.067-0.689,0.2s-0.407,0.29-0.54,0.47v0.06C332.624,6.974,333.043,7.6,333.883,7.6z"/>
		<path d="M297.265,20.167c-0.486-0.456-0.886-1.002-1.197-1.638c-0.312-0.636-0.468-1.338-0.468-2.106v-0.162
			c0-0.768,0.155-1.469,0.468-2.102c0.312-0.633,0.711-1.178,1.197-1.634h0.891c-0.444,0.492-0.804,1.053-1.08,1.683
			s-0.414,1.287-0.414,1.971v0.252c0,0.678,0.141,1.349,0.423,2.011c0.282,0.663,0.64,1.238,1.071,1.724H297.265z"/>
		<path d="M298.705,19.231v-0.648l1.179-1.242c0.522-0.552,0.909-1.01,1.161-1.373c0.252-0.363,0.378-0.719,0.378-1.067
			c0-0.366-0.098-0.63-0.292-0.792c-0.195-0.162-0.494-0.243-0.896-0.243c-0.396,0-0.822,0.138-1.278,0.414l-0.18-0.819
			c0.533-0.312,1.119-0.468,1.755-0.468c0.666,0,1.173,0.153,1.521,0.459c0.349,0.306,0.522,0.741,0.522,1.305
			c0,0.258-0.047,0.517-0.14,0.778c-0.093,0.261-0.238,0.525-0.437,0.792s-0.37,0.483-0.518,0.648s-0.347,0.379-0.599,0.644
			l-0.729,0.747h2.475v0.864H298.705z"/>
		<path d="M306.102,19.33v-1.26h-2.835v-0.648l3.123-4.365h0.757v4.194h0.908v0.819h-0.908v1.26H306.102z M304.473,17.251h1.639
			v-2.322L304.473,17.251z"/>
		<path d="M313.582,17.701l-0.612,0.792c-0.342-0.21-0.688-0.531-1.039-0.963c-0.352-0.432-0.593-0.849-0.725-1.251
			c-0.133,0.456-0.382,0.91-0.747,1.363c-0.366,0.453-0.756,0.793-1.17,1.021l-0.64-0.774c1.326-0.858,1.989-2.091,1.989-3.699
			v-1.224h1.089v1.17C311.727,15.715,312.345,16.903,313.582,17.701z M315.237,20.311h-1.053v-8.019h1.053V20.311z"/>
		<path d="M320.421,12.904c-0.006,1.104-0.35,2.029-1.03,2.776c-0.682,0.747-1.544,1.252-2.588,1.517l-0.521-0.837
			c0.72-0.126,1.369-0.421,1.948-0.886s0.932-1.031,1.058-1.697h-2.602v-0.873H320.421z M322.861,20.077h-5.355v-2.583h1.062v1.746
			h4.293V20.077z M323.805,15.442h-1.143v2.655H321.6v-5.805h1.062v2.286h1.143V15.442z"/>
		<path d="M331.042,15.883l0.09,0.81c-1.134,0.192-2.646,0.288-4.536,0.288l-0.144-0.873c0.414,0,0.734-0.003,0.963-0.009
			l-0.181-1.98l1.035-0.117l0.09,2.079l0.802-0.027l0.099-2.043l1.008,0.099L330.079,16
			C330.462,15.97,330.783,15.931,331.042,15.883z M330.816,13.678h-4.131v-0.837h4.131V13.678z M333.192,18.736
			c0,0.474-0.25,0.846-0.751,1.116s-1.202,0.405-2.102,0.405c-0.895,0-1.592-0.135-2.093-0.405s-0.751-0.642-0.751-1.116
			c0-0.48,0.25-0.855,0.751-1.125c0.501-0.27,1.198-0.405,2.093-0.405c0.899,0,1.601,0.135,2.102,0.405
			C332.942,17.881,333.192,18.256,333.192,18.736z M332.085,18.736c0-0.216-0.154-0.386-0.464-0.509
			c-0.309-0.123-0.736-0.185-1.282-0.185c-0.54,0-0.966,0.062-1.278,0.185c-0.312,0.123-0.468,0.292-0.468,0.509
			c0,0.21,0.156,0.376,0.468,0.5c0.312,0.123,0.738,0.184,1.278,0.184c0.546,0,0.974-0.061,1.282-0.184
			C331.931,19.113,332.085,18.946,332.085,18.736z M333.174,17.188h-1.053v-1.413h-0.999v-0.792h0.999v-0.756h-0.999v-0.792h0.999
			v-1.143h1.053V17.188z"/>
		<path d="M340.644,12.652c0,1.332-0.084,2.331-0.252,2.997h1.179v0.837h-1.8v1.899h-1.044v-1.899h-1.044v1.899h-1.044v-1.899
			h-2.313v-0.837h5.049c0.156-0.612,0.229-1.335,0.217-2.169h-4.329v-0.828H340.644z M340.751,20.095h-5.508v-2.502h1.044v1.674
			h4.464V20.095z"/>
		<path d="M348.645,13.129c-0.066,2.556-1.261,4.467-3.582,5.733l-0.648-0.792c0.864-0.396,1.578-0.971,2.143-1.724
			c0.563-0.753,0.882-1.535,0.954-2.345h-2.61v-0.873H348.645z M351.111,20.311h-1.053v-8.019h1.053V20.311z"/>
		<path d="M356.484,18.547h-1.044v-1.44h-3.177v-0.846h7.245v0.846h-3.024V18.547z M359.148,14.974l-0.45,0.828
			c-0.57-0.06-1.123-0.232-1.66-0.518s-0.92-0.617-1.147-0.995c-0.198,0.402-0.556,0.741-1.071,1.017s-1.095,0.441-1.737,0.495
			l-0.44-0.81c0.678-0.036,1.266-0.193,1.764-0.473c0.498-0.279,0.798-0.634,0.9-1.066h-2.295v-0.846h5.777v0.846h-2.295
			c0.078,0.282,0.262,0.54,0.549,0.774c0.288,0.234,0.618,0.413,0.99,0.536S358.776,14.956,359.148,14.974z M358.68,20.095h-5.544
			v-2.34h1.044v1.512h4.5V20.095z"/>
		<path d="M359.859,20.167c0.443-0.486,0.804-1.045,1.08-1.678c0.275-0.633,0.414-1.292,0.414-1.976v-0.261
			c0-0.672-0.14-1.341-0.419-2.007s-0.638-1.239-1.075-1.719h0.891c0.48,0.456,0.876,1.002,1.188,1.638
			c0.312,0.636,0.468,1.335,0.468,2.097v0.162c0,0.768-0.156,1.47-0.468,2.106c-0.312,0.636-0.708,1.182-1.188,1.638H359.859z"/>
	</g>
	<g>
		<path d="M13.801,20.578c-0.279,0.309-0.649,0.464-1.111,0.464s-0.831-0.147-1.107-0.441c-0.276-0.293-0.414-0.696-0.414-1.206
			v-0.117c0-0.522,0.138-0.936,0.414-1.242c0.276-0.306,0.645-0.459,1.107-0.459s0.833,0.144,1.111,0.432
			c0.279,0.288,0.419,0.687,0.419,1.197v0.135C14.22,19.856,14.081,20.269,13.801,20.578z M12.69,20.402
			c0.216,0,0.375-0.078,0.477-0.234c0.102-0.156,0.153-0.411,0.153-0.765v-0.198c0-0.666-0.21-0.999-0.63-0.999
			c-0.414,0-0.621,0.33-0.621,0.99v0.198c0,0.354,0.051,0.61,0.153,0.77C12.324,20.323,12.48,20.402,12.69,20.402z M12.24,24.191
			l4.212-6.687h0.819l-4.212,6.687H12.24z M16.92,23.921c-0.468,0-0.841-0.146-1.121-0.437c-0.279-0.291-0.418-0.694-0.418-1.21
			v-0.126c0-0.51,0.141-0.918,0.423-1.224c0.282-0.306,0.654-0.459,1.116-0.459s0.834,0.146,1.116,0.437
			c0.282,0.291,0.423,0.688,0.423,1.192v0.135c0,0.51-0.141,0.919-0.423,1.229C17.754,23.767,17.382,23.921,16.92,23.921z
			 M16.447,23.04c0.099,0.156,0.257,0.234,0.473,0.234c0.216,0,0.375-0.077,0.477-0.229c0.102-0.153,0.153-0.403,0.153-0.751v-0.198
			c0-0.66-0.21-0.99-0.63-0.99c-0.414,0-0.621,0.327-0.621,0.981v0.198C16.299,22.631,16.349,22.883,16.447,23.04z"/>
	</g>
	<g>
		<path d="M242.349,20.578c-0.278,0.309-0.649,0.464-1.111,0.464s-0.831-0.147-1.106-0.441c-0.276-0.293-0.414-0.696-0.414-1.206
			v-0.117c0-0.522,0.138-0.936,0.414-1.242c0.275-0.306,0.645-0.459,1.106-0.459s0.833,0.144,1.111,0.432
			c0.279,0.288,0.419,0.687,0.419,1.197v0.135C242.768,19.856,242.628,20.269,242.349,20.578z M241.238,20.402
			c0.216,0,0.375-0.078,0.478-0.234c0.102-0.156,0.152-0.411,0.152-0.765v-0.198c0-0.666-0.21-0.999-0.63-0.999
			c-0.414,0-0.621,0.33-0.621,0.99v0.198c0,0.354,0.052,0.61,0.153,0.77C240.872,20.323,241.028,20.402,241.238,20.402z
			 M240.789,24.191L245,17.504h0.818l-4.212,6.687H240.789z M245.468,23.921c-0.468,0-0.842-0.146-1.121-0.437
			c-0.278-0.291-0.418-0.694-0.418-1.21v-0.126c0-0.51,0.141-0.918,0.423-1.224s0.654-0.459,1.116-0.459s0.834,0.146,1.116,0.437
			c0.281,0.291,0.423,0.688,0.423,1.192v0.135c0,0.51-0.142,0.919-0.423,1.229C246.302,23.767,245.93,23.921,245.468,23.921z
			 M244.996,23.04c0.099,0.156,0.257,0.234,0.473,0.234s0.375-0.077,0.477-0.229c0.103-0.153,0.153-0.403,0.153-0.751v-0.198
			c0-0.66-0.21-0.99-0.63-0.99c-0.414,0-0.621,0.327-0.621,0.981v0.198C244.847,22.631,244.897,22.883,244.996,23.04z"/>
	</g>
</g>
<path d="M124.458,220.433H79.577c-2.993,0-5.419-2.426-5.419-5.419v0c0-2.993,2.426-5.419,5.419-5.419h44.881
	c2.993,0,5.419,2.426,5.419,5.419v0C129.877,218.007,127.451,220.433,124.458,220.433z"/>
<path d="M351.555,220.433h-44.881c-2.993,0-5.419-2.426-5.419-5.419v0c0-2.993,2.426-5.419,5.419-5.419h44.881
	c2.993,0,5.419,2.426,5.419,5.419v0C356.974,218.007,354.548,220.433,351.555,220.433z"/>
<g>
	<path fill="#E60013" d="M134.586,85.748h-1.17v-2.899h-1.92v-0.931h8.05v0.931h-1.95v2.899h-1.17v-2.899h-1.84V85.748z
		 M138.766,81.208h-6.24v-2.46h4.83v-0.72h-4.84v-0.88h6v2.46h-4.83v0.71h5.08V81.208z"/>
	<path fill="#E60013" d="M144.596,77.648v5.79h-4.23v-5.79H144.596z M143.426,82.507v-3.92h-1.9v3.92H143.426z M147.116,76.828v3.42
		h1.21v0.97h-1.21v4.521h-1.19v-8.91H147.116z"/>
	<path fill="#E60013" d="M154.056,82.507l0.13,0.921c-1.06,0.193-2.407,0.289-4.04,0.289h-0.85v-6.119h4.21v0.93h-3.05v1.62h2.9
		v0.93h-2.9v1.7C151.916,82.778,153.116,82.688,154.056,82.507z M156.096,85.738h-1.18v-8.91h1.18V85.738z"/>
	<path fill="#E60013" d="M165.496,84.578h-8.05v-0.93h8.05V84.578z M165.326,80.928l-0.59,0.909c-0.66-0.153-1.31-0.449-1.95-0.89
		c-0.64-0.44-1.08-0.937-1.32-1.49c-0.22,0.567-0.655,1.075-1.305,1.525s-1.309,0.748-1.975,0.895l-0.55-0.949
		c0.506-0.074,1.001-0.24,1.485-0.5c0.483-0.261,0.895-0.612,1.235-1.056s0.51-0.915,0.51-1.415v-0.59h1.22v0.59
		c0,0.3,0.068,0.596,0.205,0.885c0.137,0.29,0.318,0.549,0.545,0.775s0.481,0.432,0.765,0.615c0.283,0.184,0.571,0.333,0.865,0.45
		C164.759,80.799,165.046,80.881,165.326,80.928z"/>
	<path fill="#E60013" d="M174.116,82.038l0.07,0.86c-0.713,0.1-1.617,0.179-2.71,0.234c-1.093,0.058-2.01,0.085-2.75,0.085
		c-0.053-0.346-0.106-0.659-0.16-0.939c1,0,1.75-0.007,2.25-0.021v-0.47c-0.454-0.073-0.818-0.217-1.095-0.43
		c-0.277-0.214-0.415-0.467-0.415-0.76c0-0.387,0.197-0.7,0.59-0.94c0.393-0.24,0.9-0.36,1.52-0.36c0.62,0,1.126,0.12,1.52,0.36
		c0.394,0.24,0.59,0.554,0.59,0.94c0,0.3-0.14,0.557-0.42,0.77c-0.28,0.214-0.654,0.354-1.12,0.42v0.43
		C172.766,82.184,173.476,82.125,174.116,82.038z M173.926,79.138h-5.01v-0.86h5.01V79.138z M175.976,85.608h-6.15v-2.05h1.17v1.14
		h4.98V85.608z M170.186,77.948v-0.87h2.52v0.87H170.186z M172.376,80.598c0-0.141-0.083-0.256-0.25-0.346
		c-0.167-0.09-0.404-0.135-0.71-0.135c-0.3,0-0.535,0.045-0.705,0.135s-0.255,0.205-0.255,0.346c0,0.119,0.087,0.227,0.26,0.319
		c0.173,0.094,0.407,0.141,0.7,0.141c0.3,0,0.535-0.045,0.705-0.136C172.291,80.833,172.376,80.724,172.376,80.598z M175.786,76.828
		v3.01h1.1v0.971h-1.1v2.939h-1.17v-6.92H175.786z"/>
	<path fill="#E60013" d="M182.756,82.818l-0.65,0.85c-0.42-0.206-0.85-0.557-1.29-1.05c-0.44-0.493-0.724-0.95-0.85-1.37
		c-0.114,0.474-0.375,0.965-0.785,1.476c-0.41,0.51-0.869,0.888-1.375,1.135l-0.72-0.87c1.507-0.826,2.26-2.177,2.26-4.05v-0.24
		h-1.8v-0.96h4.75v0.96h-1.74v0.23C180.556,80.714,181.289,82.011,182.756,82.818z M184.346,76.828v3.43h1.27v0.971h-1.27v4.51
		h-1.17v-8.91H184.346z"/>
</g>
<g>
	<path fill="#E60013" d="M365.795,57.231h-1.17v-2.899h-1.921v-0.931h8.051v0.931h-1.95v2.899h-1.17v-2.899h-1.84V57.231z
		 M369.975,52.691h-6.24v-2.46h4.83v-0.72h-4.84v-0.88h6v2.46h-4.83v0.71h5.08V52.691z"/>
	<path fill="#E60013" d="M375.805,49.131v5.79h-4.23v-5.79H375.805z M374.635,53.991v-3.92h-1.9v3.92H374.635z M378.325,48.311v3.42
		h1.21v0.97h-1.21v4.521h-1.189v-8.91H378.325z"/>
	<path fill="#E60013" d="M385.265,53.991l0.13,0.921c-1.061,0.193-2.407,0.289-4.04,0.289h-0.851v-6.119h4.21v0.93h-3.05v1.62h2.9
		v0.93h-2.9v1.7C383.125,54.261,384.325,54.171,385.265,53.991z M387.305,57.221h-1.181v-8.91h1.181V57.221z"/>
	<path fill="#E60013" d="M396.705,56.061h-8.05v-0.93h8.05V56.061z M396.535,52.412l-0.59,0.909c-0.66-0.153-1.311-0.449-1.95-0.89
		s-1.08-0.937-1.32-1.49c-0.22,0.567-0.654,1.075-1.305,1.525c-0.649,0.45-1.309,0.748-1.975,0.895l-0.55-0.949
		c0.506-0.074,1.001-0.24,1.484-0.5c0.483-0.261,0.896-0.612,1.235-1.056s0.51-0.915,0.51-1.415v-0.59h1.22v0.59
		c0,0.3,0.068,0.596,0.205,0.885c0.137,0.29,0.318,0.549,0.545,0.775s0.481,0.432,0.766,0.615c0.283,0.184,0.571,0.333,0.864,0.45
		C395.968,52.283,396.254,52.365,396.535,52.412z"/>
	<path fill="#E60013" d="M405.325,53.521l0.069,0.86c-0.713,0.1-1.616,0.179-2.71,0.234c-1.093,0.058-2.01,0.085-2.75,0.085
		c-0.053-0.346-0.106-0.659-0.159-0.939c1,0,1.75-0.007,2.25-0.021v-0.47c-0.454-0.073-0.818-0.217-1.096-0.43
		c-0.276-0.214-0.415-0.467-0.415-0.76c0-0.387,0.197-0.7,0.591-0.94c0.393-0.24,0.899-0.36,1.52-0.36s1.127,0.12,1.52,0.36
		c0.394,0.24,0.591,0.554,0.591,0.94c0,0.3-0.141,0.557-0.42,0.77c-0.28,0.214-0.654,0.354-1.12,0.42v0.43
		C403.974,53.667,404.684,53.608,405.325,53.521z M405.134,50.622h-5.01v-0.86h5.01V50.622z M407.184,57.091h-6.149v-2.05h1.17v1.14
		h4.979V57.091z M401.394,49.431v-0.87h2.521v0.87H401.394z M403.584,52.082c0-0.141-0.083-0.256-0.25-0.346
		s-0.403-0.135-0.71-0.135c-0.3,0-0.535,0.045-0.705,0.135s-0.255,0.205-0.255,0.346c0,0.119,0.087,0.227,0.26,0.319
		c0.174,0.094,0.407,0.141,0.7,0.141c0.3,0,0.535-0.045,0.705-0.136C403.5,52.316,403.584,52.208,403.584,52.082z M406.995,48.311
		v3.01h1.1v0.971h-1.1v2.939h-1.17v-6.92H406.995z"/>
	<path fill="#E60013" d="M413.964,54.301l-0.65,0.85c-0.42-0.206-0.85-0.557-1.289-1.05c-0.44-0.493-0.724-0.95-0.851-1.37
		c-0.113,0.474-0.375,0.965-0.785,1.476c-0.41,0.51-0.868,0.888-1.375,1.135l-0.72-0.87c1.507-0.826,2.26-2.177,2.26-4.05v-0.24
		h-1.8v-0.96h4.75v0.96h-1.74v0.23C411.764,52.198,412.498,53.495,413.964,54.301z M415.554,48.311v3.43h1.271v0.971h-1.271v4.51
		h-1.17v-8.91H415.554z"/>
</g>
<g>
	<path fill="#00A1E9" d="M42.23,109.174v-0.96h4.69v0.96h-1.69c0.04,0.587,0.245,1.089,0.615,1.505
		c0.37,0.417,0.818,0.712,1.345,0.886c-0.08,0.12-0.195,0.288-0.345,0.505s-0.245,0.354-0.285,0.415
		c-0.367-0.141-0.735-0.37-1.105-0.69s-0.645-0.67-0.825-1.05c-0.133,0.42-0.401,0.82-0.805,1.2s-0.825,0.646-1.265,0.8
		c-0.047-0.06-0.152-0.198-0.315-0.415c-0.164-0.217-0.292-0.382-0.385-0.495c0.633-0.227,1.14-0.57,1.52-1.03
		c0.38-0.46,0.587-1.003,0.62-1.63H42.23z M49.35,114.714c0,0.547-0.275,0.977-0.825,1.29c-0.55,0.313-1.315,0.47-2.295,0.47
		s-1.745-0.156-2.295-0.47c-0.55-0.313-0.825-0.743-0.825-1.29c0-0.56,0.275-0.998,0.825-1.314c0.55-0.316,1.315-0.476,2.295-0.476
		s1.745,0.159,2.295,0.476C49.075,113.716,49.35,114.155,49.35,114.714z M46.23,113.865c-0.606,0-1.078,0.075-1.415,0.225
		c-0.336,0.15-0.505,0.358-0.505,0.625c0,0.26,0.168,0.464,0.505,0.61c0.337,0.146,0.809,0.22,1.415,0.22
		c0.613,0,1.088-0.073,1.425-0.22c0.336-0.146,0.505-0.351,0.505-0.61c0-0.273-0.168-0.483-0.505-0.63
		C47.318,113.938,46.843,113.865,46.23,113.865z M46.78,110.655v-0.94h1.34v-2.13h1.17v5.3h-1.17v-2.229H46.78z"/>
	<path fill="#00A1E9" d="M55.81,111.474l-0.67,0.91c-0.374-0.14-0.753-0.378-1.14-0.715c-0.387-0.336-0.673-0.698-0.86-1.085
		c-0.127,0.434-0.392,0.842-0.795,1.226c-0.404,0.383-0.825,0.651-1.265,0.805l-0.71-0.93c0.66-0.233,1.185-0.604,1.575-1.11
		c0.39-0.507,0.585-1.09,0.585-1.75v-0.84h1.2v0.77c0,0.653,0.205,1.224,0.615,1.71C54.755,110.952,55.243,111.288,55.81,111.474z
		 M57.64,114.695c0,0.553-0.27,0.991-0.81,1.314s-1.29,0.485-2.25,0.485c-0.954,0-1.699-0.162-2.235-0.485
		c-0.537-0.323-0.805-0.762-0.805-1.314c0-0.561,0.268-1.002,0.805-1.325c0.536-0.323,1.281-0.485,2.235-0.485
		c0.966,0,1.718,0.16,2.255,0.48S57.64,114.128,57.64,114.695z M54.58,113.815c-0.574,0-1.023,0.078-1.35,0.234
		c-0.327,0.157-0.49,0.372-0.49,0.646c0,0.267,0.161,0.477,0.485,0.63c0.323,0.153,0.775,0.229,1.355,0.229
		c0.586,0,1.045-0.076,1.375-0.229s0.495-0.363,0.495-0.63c0-0.273-0.165-0.488-0.495-0.646
		C55.625,113.893,55.167,113.815,54.58,113.815z M58.81,110.665h-1.27v2.13h-1.18v-5.21h1.18v2.12h1.27V110.665z"/>
	<path fill="#00A1E9" d="M59.5,110.445c0-0.641,0.222-1.167,0.665-1.58s1.025-0.62,1.745-0.62c0.727,0,1.31,0.207,1.75,0.62
		c0.44,0.413,0.66,0.939,0.66,1.58c0,0.646-0.22,1.173-0.66,1.58c-0.44,0.406-1.023,0.609-1.75,0.609
		c-0.727,0-1.31-0.203-1.75-0.609C59.72,111.618,59.5,111.091,59.5,110.445z M66.78,116.254H60.6v-2.85h1.18v1.93h5V116.254z
		 M60.7,110.445c0,0.359,0.11,0.654,0.33,0.885c0.22,0.23,0.513,0.345,0.88,0.345c0.38,0,0.678-0.114,0.895-0.345
		c0.217-0.23,0.325-0.525,0.325-0.885c0-0.347-0.11-0.634-0.33-0.86c-0.22-0.227-0.517-0.34-0.89-0.34
		c-0.367,0-0.66,0.113-0.88,0.34C60.81,109.811,60.7,110.098,60.7,110.445z M66.58,114.044h-1.16v-6.46h1.16V114.044z"/>
</g>
<g>
	<path fill="#00A1E9" d="M340.917,149.396v-0.96h4.689v0.96h-1.689c0.04,0.587,0.245,1.089,0.615,1.505
		c0.37,0.417,0.818,0.712,1.345,0.886c-0.08,0.12-0.195,0.288-0.345,0.505c-0.15,0.217-0.245,0.354-0.285,0.415
		c-0.367-0.141-0.735-0.37-1.105-0.69s-0.645-0.67-0.825-1.05c-0.133,0.42-0.401,0.82-0.805,1.2s-0.825,0.646-1.265,0.8
		c-0.047-0.06-0.152-0.198-0.315-0.415s-0.291-0.382-0.385-0.495c0.633-0.227,1.14-0.57,1.52-1.03c0.381-0.46,0.587-1.003,0.62-1.63
		H340.917z M348.038,154.936c0,0.547-0.275,0.977-0.825,1.29s-1.315,0.47-2.295,0.47c-0.98,0-1.745-0.156-2.295-0.47
		s-0.825-0.743-0.825-1.29c0-0.56,0.275-0.998,0.825-1.314s1.314-0.476,2.295-0.476c0.979,0,1.745,0.159,2.295,0.476
		S348.038,154.376,348.038,154.936z M344.917,154.086c-0.606,0-1.078,0.075-1.415,0.225c-0.337,0.15-0.505,0.358-0.505,0.625
		c0,0.26,0.168,0.464,0.505,0.61s0.809,0.22,1.415,0.22c0.613,0,1.088-0.073,1.425-0.22s0.505-0.351,0.505-0.61
		c0-0.273-0.168-0.483-0.505-0.63S345.531,154.086,344.917,154.086z M345.467,150.876v-0.94h1.34v-2.13h1.17v5.3h-1.17v-2.229
		H345.467z"/>
	<path fill="#00A1E9" d="M354.498,151.696l-0.67,0.91c-0.374-0.14-0.754-0.378-1.141-0.715c-0.387-0.336-0.673-0.698-0.859-1.085
		c-0.127,0.434-0.392,0.842-0.795,1.226c-0.404,0.383-0.825,0.651-1.266,0.805l-0.71-0.93c0.66-0.233,1.186-0.604,1.575-1.11
		s0.585-1.09,0.585-1.75v-0.84h1.2v0.77c0,0.653,0.205,1.224,0.615,1.71C353.442,151.173,353.93,151.509,354.498,151.696z
		 M356.328,154.917c0,0.553-0.271,0.991-0.811,1.314s-1.29,0.485-2.25,0.485c-0.953,0-1.698-0.162-2.234-0.485
		c-0.537-0.323-0.806-0.762-0.806-1.314c0-0.561,0.269-1.002,0.806-1.325c0.536-0.323,1.281-0.485,2.234-0.485
		c0.967,0,1.719,0.16,2.255,0.48C356.059,153.907,356.328,154.35,356.328,154.917z M353.267,154.037
		c-0.573,0-1.023,0.078-1.35,0.234c-0.327,0.157-0.49,0.372-0.49,0.646c0,0.267,0.161,0.477,0.485,0.63
		c0.323,0.153,0.774,0.229,1.354,0.229c0.587,0,1.045-0.076,1.375-0.229s0.495-0.363,0.495-0.63c0-0.273-0.165-0.488-0.495-0.646
		C354.312,154.115,353.854,154.037,353.267,154.037z M357.498,150.886h-1.271v2.13h-1.18v-5.21h1.18v2.12h1.271V150.886z"/>
	<path fill="#00A1E9" d="M358.187,150.667c0-0.641,0.222-1.167,0.665-1.58s1.025-0.62,1.745-0.62c0.727,0,1.31,0.207,1.75,0.62
		s0.66,0.939,0.66,1.58c0,0.646-0.22,1.173-0.66,1.58c-0.44,0.406-1.023,0.609-1.75,0.609s-1.31-0.203-1.75-0.609
		C358.407,151.839,358.187,151.313,358.187,150.667z M365.467,156.476h-6.18v-2.85h1.18v1.93h5V156.476z M359.387,150.667
		c0,0.359,0.11,0.654,0.33,0.885s0.513,0.345,0.88,0.345c0.38,0,0.679-0.114,0.895-0.345c0.217-0.23,0.325-0.525,0.325-0.885
		c0-0.347-0.109-0.634-0.33-0.86c-0.22-0.227-0.517-0.34-0.89-0.34c-0.367,0-0.66,0.113-0.88,0.34S359.387,150.32,359.387,150.667z
		 M365.267,154.266h-1.16v-6.46h1.16V154.266z"/>
</g>
<g>
</g>
<g>
</g>
<g>
</g>
<g>
</g>
<g>
</g>
<g>
</g>
</svg>
