<?xml version="1.0" encoding="utf-8"?>
<!-- Generator: Adobe Illustrator 28.0.0, SVG Export Plug-In . SVG Version: 6.00 Build 0)  -->
<svg version="1.1" id="레이어_1" xmlns="http://www.w3.org/2000/svg" xmlns:xlink="http://www.w3.org/1999/xlink" x="0px"
	 y="0px" viewBox="0 0 240.09 186.496" enable-background="new 0 0 240.09 186.496" xml:space="preserve">
<rect x="3.323" y="0.25" fill="#D8EAEF" stroke="#257387" stroke-width="0.5" stroke-miterlimit="10" width="74.839" height="13.419"/>
<rect x="78.161" y="0.25" fill="#90BFCE" stroke="#257387" stroke-width="0.5" stroke-miterlimit="10" width="80.258" height="13.419"/>
<rect x="158.419" y="0.25" fill="#388CA3" stroke="#257387" stroke-width="0.5" stroke-miterlimit="10" width="74.839" height="13.419"/>
<g>
	<path fill="none" stroke="#000000" stroke-width="0.75" stroke-miterlimit="10" d="M3.323,106.444V22.056V106.444z"/>
	<line fill="none" stroke="#000000" stroke-width="0.75" stroke-miterlimit="10" x1="1" y1="103.734" x2="234.032" y2="103.734"/>
	<path fill="none" stroke="#8A342F" stroke-miterlimit="10" d="M23.619,103.876c0.877-0.81,2.194-2.14,3.484-4
		c3.098-4.466,3.877-8.857,4.171-10.444c2.222-11.981,3.939-10.249,7.571-29.943c1.846-10.01,2.375-15.727,5.779-23.773
		c1.295-3.059,3.418-7.431,8.027-10.034c1.042-0.588,3.795-2.097,7.484-1.935c5.405,0.236,8.959,3.889,10.323,5.29
		c1.035,1.064,2.366,2.675,5.935,11.355c2.004,4.874,2.603,6.843,4.903,12.903c2.873,7.57,4.335,11.392,5.548,13.161
		c0.901,1.313,3.803,5.256,13.419,10.065c4.086,2.043,9.628,4.365,29.806,8.774c10.125,2.213,15.187,3.319,20.645,4
		c12.187,1.521,21.378,1.094,26.452,0.903c11.613-0.437,28.656-0.654,53.032,0.258"/>
	<path fill="none" stroke="#257387" stroke-miterlimit="10" d="M12.226,100.637c1.158-1.222,3.02-2.848,5.677-3.871
		c2.347-0.904,4.236-0.922,6.71-1.032c3.665-0.163,7.303-0.747,10.968-0.903c0,0,2.661-0.113,21.29-1.806
		c15.36-1.396,31.766-6.477,47.097-11.226c17.439-5.402,26.865-8.321,39.613-14.452c10.6-5.098,21.35-11.383,34.323-18.968
		c8.025-4.692,16.405-8.749,24.516-13.29c5.611-3.142,11.659-6.601,20.387-7.742c4.338-0.567,7.992-0.385,10.452-0.129"/>
	<path fill="none" stroke="#849A54" stroke-miterlimit="10" d="M6.935,99.163c0.237-0.488,0.664-1.179,1.419-1.677
		c1.427-0.942,3.147-0.62,3.742-0.516c4.116,0.716,8.361,0.214,12.516,0.645c4.046,0.42,6.87,0.318,12.129,0.129
		c6.664-0.24,9.902-1.041,14.968-1.677c13.15-1.652,14.618,0.819,24.903-0.387c9.548-1.119,16.4-4.201,22.839-7.097
		c6.809-3.063,7.778-4.416,24.774-14.323c10.113-5.895,8.583-4.724,14.71-8.387c10.462-6.256,18.663-11.907,29.806-19.613
		c10.469-7.24,11.432-8.192,16.129-10.839c8.187-4.612,14.945-7.172,19.226-8.774c6.855-2.565,11.635-4.318,18.452-5.161
		c4.38-0.542,8.084-0.52,10.71-0.387"/>
	<line fill="none" stroke="#000000" stroke-miterlimit="10" x1="14.806" y1="103.734" x2="14.806" y2="106.444"/>
	<line fill="none" stroke="#000000" stroke-miterlimit="10" x1="26.379" y1="103.734" x2="26.379" y2="106.444"/>
	<line fill="none" stroke="#000000" stroke-miterlimit="10" x1="49.523" y1="103.734" x2="49.523" y2="106.444"/>
	<line fill="none" stroke="#000000" stroke-miterlimit="10" x1="37.951" y1="103.734" x2="37.951" y2="106.444"/>
	<line fill="none" stroke="#000000" stroke-miterlimit="10" x1="61.095" y1="103.734" x2="61.095" y2="106.444"/>
	<line fill="none" stroke="#000000" stroke-miterlimit="10" x1="72.667" y1="106.444" x2="72.667" y2="103.734"/>
	<line fill="none" stroke="#000000" stroke-miterlimit="10" x1="84.239" y1="106.444" x2="84.239" y2="103.734"/>
	<line fill="none" stroke="#000000" stroke-miterlimit="10" x1="95.811" y1="106.444" x2="95.811" y2="103.734"/>
	<line fill="none" stroke="#000000" stroke-miterlimit="10" x1="107.384" y1="106.444" x2="107.384" y2="103.734"/>
	<line fill="none" stroke="#000000" stroke-miterlimit="10" x1="118.956" y1="106.444" x2="118.956" y2="103.734"/>
	<line fill="none" stroke="#000000" stroke-miterlimit="10" x1="130.528" y1="106.444" x2="130.528" y2="103.734"/>
	<line fill="none" stroke="#000000" stroke-miterlimit="10" x1="142.1" y1="106.444" x2="142.1" y2="103.734"/>
	<line fill="none" stroke="#000000" stroke-miterlimit="10" x1="153.672" y1="106.444" x2="153.672" y2="103.734"/>
	<line fill="none" stroke="#000000" stroke-miterlimit="10" x1="165.244" y1="106.444" x2="165.244" y2="103.734"/>
	<line fill="none" stroke="#000000" stroke-miterlimit="10" x1="176.817" y1="106.444" x2="176.817" y2="103.734"/>
	<line fill="none" stroke="#000000" stroke-miterlimit="10" x1="188.389" y1="106.444" x2="188.389" y2="103.734"/>
	<line fill="none" stroke="#000000" stroke-miterlimit="10" x1="199.961" y1="106.444" x2="199.961" y2="103.734"/>
	<line fill="none" stroke="#000000" stroke-miterlimit="10" x1="211.533" y1="106.444" x2="211.533" y2="103.734"/>
	<line fill="none" stroke="#000000" stroke-miterlimit="10" x1="223.105" y1="106.444" x2="223.105" y2="103.734"/>
	<line fill="none" stroke="#000000" stroke-miterlimit="10" x1="234.677" y1="106.444" x2="234.677" y2="103.734"/>
	<line fill="none" stroke="#000000" stroke-miterlimit="10" x1="3.71" y1="103.734" x2="1" y2="103.734"/>
	<line fill="none" stroke="#000000" stroke-miterlimit="10" x1="3.71" y1="83.699" x2="1" y2="83.699"/>
	<line fill="none" stroke="#000000" stroke-miterlimit="10" x1="3.71" y1="63.663" x2="1" y2="63.663"/>
	<line fill="none" stroke="#000000" stroke-miterlimit="10" x1="3.71" y1="43.628" x2="1" y2="43.628"/>
	<line fill="none" stroke="#000000" stroke-miterlimit="10" x1="3.71" y1="23.593" x2="1" y2="23.593"/>
</g>
<g>
	<path fill="#804F22" d="M196.45,83.321v-6.444h0.766v2.34h0.045c0.438-0.306,0.927-0.459,1.467-0.459
		c0.444,0,0.771,0.099,0.981,0.297c0.21,0.198,0.314,0.51,0.314,0.936v3.33h-0.756v-3.168c0-0.264-0.06-0.452-0.18-0.562
		s-0.352-0.167-0.693-0.167c-0.366,0-0.759,0.099-1.179,0.297v3.6H196.45z"/>
	<path fill="#804F22" d="M203.642,83.42c-0.828,0-1.476-0.257-1.944-0.77c-0.468-0.513-0.701-1.271-0.701-2.272v-0.207
		c0-0.528,0.071-0.989,0.216-1.382c0.144-0.393,0.345-0.705,0.603-0.936c0.258-0.23,0.551-0.402,0.878-0.513
		s0.688-0.167,1.084-0.167c0.595,0,1.089,0.111,1.485,0.333v0.657c-0.558-0.21-1.074-0.315-1.548-0.315
		c-0.57,0-1.023,0.179-1.359,0.536s-0.504,0.911-0.504,1.661v0.324c0,1.584,0.636,2.376,1.908,2.376
		c0.498,0,1.022-0.129,1.575-0.387v0.675C204.884,83.291,204.319,83.42,203.642,83.42z"/>
	<path fill="#804F22" d="M208.844,83.42c-0.882,0-1.57-0.246-2.065-0.738c-0.495-0.492-0.742-1.242-0.742-2.25v-0.18
		c0-0.552,0.077-1.034,0.233-1.445c0.156-0.411,0.372-0.732,0.648-0.963c0.275-0.231,0.579-0.4,0.909-0.508
		c0.329-0.108,0.692-0.162,1.089-0.162c0.605,0,1.134,0.123,1.584,0.369v0.675c-0.559-0.246-1.107-0.369-1.647-0.369
		c-0.684,0-1.182,0.216-1.494,0.648c-0.312,0.432-0.468,0.978-0.468,1.638v0.279c0,0.75,0.145,1.328,0.432,1.732
		c0.288,0.405,0.805,0.608,1.549,0.608c0.407,0,0.768-0.057,1.079-0.171v-1.566h-1.269V80.36h2.052v2.709
		C210.164,83.303,209.533,83.42,208.844,83.42z"/>
</g>
<g>
	<path fill="#257387" d="M200.823,52.637h-7.102v-0.657h7.102V52.637z M200.157,47.229h-5.814v-0.639h5.814V47.229z M200.148,50.478
		h-5.796v-0.639h1.241l-0.216-2.115l0.811-0.117l0.162,2.232h1.817l0.271-2.214l0.782,0.135l-0.323,2.079h1.251V50.478z"/>
	<path fill="#257387" d="M208.607,52.655h-7.101v-0.648h3.132v-1.242h-2.277v-2.529h4.572v-1.152h-4.59v-0.648h5.382v2.448h-4.572
		v1.233h4.788v0.648h-2.502v1.242h3.168V52.655z"/>
	<path fill="#257387" d="M212.595,46.733c-0.012,1.164-0.255,2.177-0.729,3.038c-0.475,0.861-1.197,1.615-2.169,2.263l-0.54-0.585
		c0.792-0.462,1.413-1.048,1.862-1.759c0.45-0.711,0.711-1.478,0.783-2.299h-2.304v-0.657H212.595z M214.377,53.268h-0.756v-3.645
		h-1.152v-0.648h1.152v-3.006h0.756V53.268z M215.934,53.654h-0.765v-7.866h0.765V53.654z"/>
	<path fill="#257387" d="M224.178,52.592h-7.101v-0.648h7.101V52.592z M223.962,49.775l-0.432,0.63
		c-0.618-0.174-1.211-0.48-1.777-0.918c-0.567-0.438-0.944-0.876-1.13-1.314c-0.156,0.444-0.519,0.884-1.089,1.318
		c-0.57,0.436-1.176,0.737-1.818,0.905l-0.404-0.648c0.443-0.078,0.885-0.243,1.322-0.495c0.438-0.252,0.812-0.576,1.121-0.972
		c0.309-0.396,0.463-0.804,0.463-1.224v-0.612h0.819v0.612c0,0.414,0.162,0.822,0.486,1.224c0.323,0.402,0.706,0.73,1.147,0.986
		C223.111,49.522,223.542,49.691,223.962,49.775z"/>
	<path fill="#257387" d="M227.733,49.442h-1.818v1.629c1.062,0.018,1.905-0.048,2.529-0.198l0.09,0.639
		c-0.732,0.156-1.869,0.231-3.411,0.225v-5.004h2.988v0.648h-2.196v1.431h1.818V49.442z M229.219,49.451h-0.99v-0.648h0.99V45.96
		h0.756v7.308h-0.756V49.451z M231.504,53.654h-0.765v-7.866h0.765V53.654z"/>
	<path fill="#257387" d="M239.011,49.451h-2.431v0.837h3.168v0.657h-7.101v-0.657h3.132v-0.837h-2.241v-1.98h4.5v-0.747h-4.518
		v-0.621h5.319v1.962h-4.5v0.774h4.671V49.451z M238.902,53.42h-5.337v-2.034h0.792v1.395h4.545V53.42z"/>
</g>
<g>
	<path fill="#849A54" d="M135.594,28.215c0.528,0,0.94,0.224,1.238,0.671c0.297,0.447,0.46,1.04,0.49,1.777h0.765v-2.916h0.756
		v7.344h-0.756v-3.771h-0.765c-0.036,0.726-0.201,1.309-0.495,1.75c-0.294,0.441-0.705,0.661-1.233,0.661
		c-0.563,0-0.993-0.255-1.287-0.765c-0.294-0.51-0.44-1.179-0.44-2.007c0-0.822,0.146-1.485,0.44-1.989
		S135.03,28.215,135.594,28.215z M136.305,32.486c0.162-0.375,0.243-0.88,0.243-1.516c0-0.636-0.081-1.142-0.243-1.517
		c-0.161-0.375-0.398-0.562-0.711-0.562c-0.3,0-0.532,0.189-0.697,0.567s-0.247,0.882-0.247,1.512c0,0.636,0.081,1.142,0.243,1.516
		c0.161,0.375,0.396,0.562,0.701,0.562C135.906,33.048,136.144,32.861,136.305,32.486z M140.364,35.461h-0.756v-7.866h0.756V35.461z
		"/>
	<path fill="#849A54" d="M148.607,34.399h-7.101v-0.648h7.101V34.399z M148.392,31.582l-0.432,0.63
		c-0.618-0.174-1.211-0.48-1.777-0.918c-0.567-0.438-0.944-0.876-1.13-1.314c-0.156,0.444-0.519,0.884-1.089,1.318
		c-0.57,0.436-1.176,0.737-1.818,0.905l-0.404-0.648c0.443-0.078,0.885-0.243,1.322-0.495c0.438-0.252,0.812-0.576,1.121-0.972
		c0.309-0.396,0.463-0.804,0.463-1.224v-0.612h0.819v0.612c0,0.414,0.162,0.822,0.486,1.224c0.323,0.402,0.706,0.73,1.147,0.986
		C147.541,31.328,147.972,31.498,148.392,31.582z"/>
	<path fill="#849A54" d="M156.393,34.461h-7.101v-0.648h7.101V34.461z M155.286,30.672h-4.348v1.116h4.6v0.657h-5.392v-4.104h5.319
		v0.648h-4.527v1.053h4.348V30.672z"/>
	<path fill="#849A54" d="M164.178,34.461h-7.101v-0.648h3.132v-1.242h-2.277v-2.529h4.572v-1.152h-4.59v-0.648h5.382v2.448h-4.572
		v1.233h4.788v0.648h-2.502v1.242h3.168V34.461z"/>
	<path fill="#849A54" d="M168.237,28.342c-0.036,1.854-0.993,3.222-2.871,4.104l-0.495-0.612c0.696-0.258,1.275-0.645,1.737-1.161
		c0.462-0.516,0.726-1.077,0.792-1.683h-2.16v-0.648H168.237z M171.711,35.227h-5.408v-2.502h0.801v1.863h4.607V35.227z
		 M169.272,30.672h-1.134v-0.648h1.134v-2.286h0.756v5.463h-0.756V30.672z M171.504,33.427h-0.765v-5.832h0.765V33.427z"/>
</g>
<g>
	<path d="M26.229,4.036c0.576,0,1.065,0.179,1.467,0.536c0.402,0.357,0.603,0.812,0.603,1.363c0,0.552-0.198,0.999-0.594,1.341
		c-0.396,0.342-0.888,0.513-1.476,0.513c-0.582,0-1.072-0.171-1.471-0.513c-0.399-0.342-0.599-0.789-0.599-1.341
		c0-0.552,0.199-1.006,0.599-1.363C25.156,4.214,25.646,4.036,26.229,4.036z M26.229,4.72c-0.372,0-0.676,0.114-0.914,0.342
		c-0.237,0.228-0.355,0.516-0.355,0.864c0,0.354,0.119,0.643,0.355,0.868c0.237,0.225,0.542,0.337,0.914,0.337
		s0.675-0.111,0.909-0.333c0.234-0.222,0.351-0.51,0.351-0.864s-0.116-0.645-0.347-0.873S26.606,4.72,26.229,4.72z M30.414,11.353
		h-5.112V8.554h5.112V11.353z M29.613,10.723v-1.53h-3.519v1.53H29.613z M30.414,8.167h-0.801V3.595h0.801V8.167z"/>
	<path d="M36.507,7.464l-0.459,0.621c-0.384-0.162-0.758-0.416-1.121-0.76c-0.363-0.345-0.625-0.709-0.788-1.094
		c-0.12,0.414-0.364,0.824-0.733,1.229c-0.369,0.405-0.76,0.701-1.174,0.887l-0.486-0.621c0.558-0.234,1.028-0.61,1.409-1.129
		s0.571-1.079,0.571-1.679V4.036h0.81v0.846c0,0.594,0.2,1.128,0.599,1.602C35.533,6.958,35.991,7.285,36.507,7.464z M38.37,11.235
		h-5.301V8.779h0.801v1.809h4.5V11.235z M38.199,9.31h-0.801V3.595h0.801V9.31z"/>
	<path d="M46.632,10.461h-7.101V9.814h3.132v-1.71h0.801v1.71h3.168V10.461z M46.326,7.941l-0.333,0.666
		c-0.63-0.114-1.224-0.343-1.782-0.688c-0.558-0.345-0.936-0.718-1.134-1.121c-0.18,0.42-0.545,0.798-1.094,1.134
		c-0.549,0.336-1.153,0.558-1.813,0.666l-0.351-0.648c0.66-0.072,1.279-0.292,1.858-0.662s0.908-0.791,0.986-1.265h-2.448V5.386
		h5.724v0.639H43.5c0.084,0.468,0.423,0.891,1.017,1.269C45.111,7.671,45.714,7.888,46.326,7.941z M44.373,4.566h-2.592V3.919h2.592
		V4.566z"/>
	<path d="M51.465,4.432c-0.024,1.206-0.359,2.272-1.004,3.199c-0.645,0.927-1.528,1.697-2.65,2.309l-0.486-0.603
		c0.93-0.444,1.69-1.048,2.281-1.813c0.591-0.765,0.923-1.57,0.995-2.417h-2.925V4.432H51.465z M53.769,11.461h-0.801V3.595h0.801
		V11.461z"/>
</g>
<g>
	<path d="M106.474,4.036c0.576,0,1.065,0.179,1.467,0.536c0.402,0.357,0.603,0.812,0.603,1.363c0,0.552-0.198,0.999-0.594,1.341
		c-0.396,0.342-0.888,0.513-1.476,0.513c-0.582,0-1.072-0.171-1.471-0.513c-0.399-0.342-0.599-0.789-0.599-1.341
		c0-0.552,0.199-1.006,0.599-1.363C105.402,4.214,105.892,4.036,106.474,4.036z M106.474,4.72c-0.372,0-0.676,0.114-0.914,0.342
		c-0.237,0.228-0.355,0.516-0.355,0.864c0,0.354,0.119,0.643,0.355,0.868c0.237,0.225,0.542,0.337,0.914,0.337
		s0.675-0.111,0.909-0.333c0.234-0.222,0.351-0.51,0.351-0.864s-0.116-0.645-0.347-0.873S106.852,4.72,106.474,4.72z
		 M110.659,11.353h-5.112V8.554h5.112V11.353z M109.858,10.723v-1.53h-3.519v1.53H109.858z M110.659,8.167h-0.801V3.595h0.801V8.167
		z"/>
	<path d="M116.752,7.464l-0.459,0.621c-0.384-0.162-0.758-0.416-1.121-0.76c-0.363-0.345-0.625-0.709-0.788-1.094
		c-0.12,0.414-0.364,0.824-0.733,1.229c-0.369,0.405-0.76,0.701-1.174,0.887l-0.486-0.621c0.558-0.234,1.028-0.61,1.409-1.129
		s0.571-1.079,0.571-1.679V4.036h0.81v0.846c0,0.594,0.2,1.128,0.599,1.602C115.779,6.958,116.236,7.285,116.752,7.464z
		 M118.615,11.235h-5.301V8.779h0.801v1.809h4.5V11.235z M118.444,9.31h-0.801V3.595h0.801V9.31z"/>
	<path d="M126.05,10.021c0,0.45-0.241,0.8-0.725,1.048c-0.483,0.249-1.151,0.374-2.002,0.374c-0.852,0-1.517-0.125-1.994-0.374
		c-0.477-0.249-0.715-0.598-0.715-1.048c0-0.414,0.201-0.741,0.603-0.981c0.402-0.24,0.966-0.378,1.692-0.414V7.923h-3.132V7.267
		h7.102v0.657h-3.168v0.693c0.739,0.036,1.313,0.175,1.724,0.418C125.844,9.278,126.05,9.607,126.05,10.021z M126.545,6.196
		l-0.36,0.63c-0.618-0.084-1.196-0.276-1.736-0.576c-0.541-0.3-0.916-0.633-1.125-0.999c-0.168,0.372-0.518,0.707-1.049,1.003
		c-0.531,0.297-1.129,0.488-1.795,0.572l-0.351-0.621c0.648-0.054,1.238-0.224,1.769-0.508c0.531-0.285,0.856-0.644,0.977-1.076
		h-2.412V3.973h5.733v0.648H123.8c0.126,0.426,0.465,0.783,1.017,1.071C125.369,5.98,125.944,6.148,126.545,6.196z M124.718,9.454
		c-0.342-0.132-0.807-0.198-1.395-0.198c-0.588,0-1.05,0.066-1.386,0.198s-0.504,0.324-0.504,0.576c0,0.252,0.168,0.442,0.504,0.571
		s0.798,0.193,1.386,0.193c0.594,0,1.06-0.064,1.4-0.193c0.339-0.129,0.508-0.319,0.508-0.571
		C125.23,9.777,125.06,9.586,124.718,9.454z"/>
	<path d="M131.711,4.432c-0.024,1.206-0.358,2.272-1.004,3.199c-0.645,0.927-1.528,1.697-2.65,2.309l-0.485-0.603
		c0.93-0.444,1.69-1.048,2.281-1.813c0.591-0.765,0.923-1.57,0.994-2.417h-2.925V4.432H131.711z M134.015,11.461h-0.801V3.595h0.801
		V11.461z"/>
</g>
<g>
	<path d="M185.317,4.036c0.576,0,1.064,0.179,1.467,0.536s0.604,0.812,0.604,1.363c0,0.552-0.198,0.999-0.595,1.341
		c-0.396,0.342-0.888,0.513-1.476,0.513c-0.582,0-1.072-0.171-1.472-0.513c-0.399-0.342-0.599-0.789-0.599-1.341
		c0-0.552,0.199-1.006,0.599-1.363S184.735,4.036,185.317,4.036z M185.317,4.72c-0.372,0-0.677,0.114-0.914,0.342
		c-0.236,0.228-0.355,0.516-0.355,0.864c0,0.354,0.119,0.643,0.355,0.868c0.237,0.225,0.542,0.337,0.914,0.337
		s0.675-0.111,0.909-0.333c0.233-0.222,0.351-0.51,0.351-0.864s-0.115-0.645-0.347-0.873C186,4.834,185.695,4.72,185.317,4.72z
		 M189.502,11.353h-5.111V8.554h5.111V11.353z M188.701,10.723v-1.53h-3.519v1.53H188.701z M189.502,8.167h-0.801V3.595h0.801V8.167
		z"/>
	<path d="M195.596,7.464l-0.459,0.621c-0.385-0.162-0.758-0.416-1.121-0.76c-0.362-0.345-0.625-0.709-0.787-1.094
		c-0.12,0.414-0.364,0.824-0.733,1.229c-0.369,0.405-0.761,0.701-1.175,0.887l-0.486-0.621c0.559-0.234,1.028-0.61,1.409-1.129
		s0.571-1.079,0.571-1.679V4.036h0.81v0.846c0,0.594,0.2,1.128,0.599,1.602C194.622,6.958,195.079,7.285,195.596,7.464z
		 M197.458,11.235h-5.301V8.779h0.801v1.809h4.5V11.235z M197.287,9.31h-0.801V3.595h0.801V9.31z"/>
	<path d="M202.562,11.461h-0.801V9.318h-3.142V8.67h7.102v0.648h-3.159V11.461z M205.307,5.476h-6.255V4.828h6.255V5.476z
		 M203.938,6.128c0.438,0.213,0.657,0.518,0.657,0.914s-0.219,0.699-0.657,0.909c-0.438,0.21-1.026,0.315-1.764,0.315
		c-0.738,0-1.325-0.105-1.76-0.315c-0.435-0.21-0.652-0.513-0.652-0.909s0.219-0.7,0.657-0.914c0.438-0.213,1.022-0.319,1.755-0.319
		C202.912,5.809,203.501,5.915,203.938,6.128z M203.776,7.042c0-0.198-0.157-0.347-0.473-0.445
		c-0.314-0.099-0.691-0.148-1.129-0.148c-0.433,0-0.806,0.049-1.121,0.148c-0.314,0.099-0.472,0.248-0.472,0.445
		c0,0.192,0.158,0.339,0.477,0.441s0.689,0.153,1.116,0.153c0.432,0,0.807-0.051,1.125-0.153
		C203.617,7.38,203.776,7.234,203.776,7.042z M203.524,4.369h-2.7V3.711h2.7V4.369z"/>
	<path d="M210.554,4.432c-0.024,1.206-0.358,2.272-1.004,3.199c-0.645,0.927-1.528,1.697-2.65,2.309l-0.485-0.603
		c0.93-0.444,1.69-1.048,2.281-1.813c0.591-0.765,0.923-1.57,0.994-2.417h-2.925V4.432H210.554z M212.857,11.461h-0.801V3.595h0.801
		V11.461z"/>
</g>
<g>
	<path d="M2.536,114.214c-0.603,0-1.087-0.212-1.452-0.636s-0.548-1.073-0.548-1.948v-0.424c0-0.891,0.187-1.54,0.56-1.948
		c0.373-0.408,0.856-0.612,1.448-0.612c0.582,0,1.052,0.202,1.412,0.604s0.54,1.044,0.54,1.924v0.464c0,0.875-0.18,1.522-0.54,1.944
		C3.596,114.003,3.123,114.214,2.536,114.214z M2.536,113.638c0.411,0,0.718-0.151,0.924-0.456c0.205-0.304,0.308-0.789,0.308-1.456
		v-0.552c0-1.301-0.408-1.952-1.224-1.952c-0.837,0-1.256,0.632-1.256,1.896v0.567C1.288,112.988,1.704,113.638,2.536,113.638z"/>
</g>
<g>
	<path d="M49.017,113.983c-0.587,0-1.052-0.135-1.396-0.404c-0.344-0.27-0.516-0.625-0.516-1.068c0-0.325,0.115-0.611,0.344-0.859
		c0.229-0.248,0.509-0.437,0.84-0.564c-0.683-0.277-1.024-0.717-1.024-1.32c0-0.399,0.157-0.728,0.472-0.983
		c0.314-0.256,0.733-0.384,1.256-0.384c0.522,0,0.941,0.117,1.256,0.352s0.472,0.561,0.472,0.977c0,0.512-0.357,0.949-1.072,1.312
		c0.854,0.283,1.28,0.749,1.28,1.4c0,0.447-0.173,0.817-0.52,1.107C50.062,113.837,49.598,113.983,49.017,113.983z M49.001,113.415
		c0.347,0,0.631-0.085,0.852-0.256s0.332-0.387,0.332-0.648c0-0.304-0.102-0.537-0.304-0.699c-0.203-0.163-0.546-0.319-1.032-0.469
		c-0.293,0.102-0.54,0.248-0.74,0.44c-0.2,0.191-0.3,0.421-0.3,0.688c0,0.288,0.109,0.518,0.328,0.688
		C48.355,113.33,48.644,113.415,49.001,113.415z M49.129,110.783c0.582-0.251,0.872-0.592,0.872-1.024
		c0-0.234-0.086-0.425-0.26-0.571c-0.173-0.147-0.417-0.221-0.732-0.221c-0.31,0-0.554,0.069-0.732,0.208s-0.268,0.331-0.268,0.576
		C48.009,110.253,48.382,110.596,49.129,110.783z"/>
</g>
<g>
	<path d="M93.161,113.67v-4.703l-0.976,0.216v-0.408l1.296-0.6h0.384v5.495H93.161z"/>
	<path d="M97.065,113.735c-0.608,0-1.073-0.209-1.396-0.628s-0.484-1.012-0.484-1.78v-0.416c0-0.928,0.191-1.617,0.572-2.067
		c0.381-0.451,0.9-0.677,1.556-0.677c0.251,0,0.492,0.034,0.724,0.101s0.412,0.14,0.54,0.22l-0.176,0.521
		c-0.106-0.064-0.261-0.122-0.464-0.173c-0.203-0.05-0.387-0.075-0.552-0.075c-0.475,0-0.833,0.15-1.076,0.451
		c-0.243,0.302-0.38,0.839-0.412,1.612c0.374-0.373,0.811-0.56,1.312-0.56c0.469,0,0.856,0.149,1.16,0.447
		c0.304,0.299,0.456,0.696,0.456,1.192c0,0.533-0.157,0.972-0.472,1.316C98.039,113.563,97.609,113.735,97.065,113.735z
		 M97.049,113.167c0.336,0,0.6-0.104,0.792-0.315c0.192-0.211,0.288-0.503,0.288-0.876c0-0.758-0.357-1.137-1.072-1.137
		c-0.229,0-0.449,0.065-0.66,0.196c-0.21,0.131-0.377,0.281-0.5,0.452v0.056C95.897,112.626,96.281,113.167,97.049,113.167z"/>
</g>
<g>
	<path d="M138.103,113.399v-0.416l1.231-1.28c0.448-0.469,0.775-0.859,0.98-1.172c0.205-0.312,0.308-0.639,0.308-0.979
		c0-0.353-0.088-0.612-0.264-0.78s-0.451-0.252-0.824-0.252c-0.368,0-0.766,0.142-1.191,0.424l-0.169-0.544
		c0.48-0.319,0.979-0.479,1.496-0.479c0.544,0,0.963,0.139,1.257,0.416c0.293,0.277,0.439,0.658,0.439,1.144
		c0,0.432-0.118,0.828-0.355,1.188c-0.238,0.359-0.618,0.804-1.141,1.332l-0.8,0.808h2.4v0.592H138.103z"/>
	<path d="M144.646,113.519v-1.16h-2.575v-0.487l2.704-3.937h0.535v3.864h0.896v0.56h-0.896v1.16H144.646z M142.806,111.799h1.849
		v-2.688L142.806,111.799z"/>
</g>
<g>
	<path d="M186.083,113.24c-0.613,0-1.107-0.128-1.48-0.385l0.145-0.544c0.148,0.102,0.342,0.186,0.58,0.252
		c0.236,0.067,0.457,0.101,0.659,0.101c0.427,0,0.757-0.091,0.988-0.272c0.232-0.181,0.348-0.437,0.348-0.768
		c0-0.325-0.114-0.569-0.344-0.732c-0.229-0.162-0.547-0.244-0.952-0.244h-0.52v-0.584h0.472c0.347-0.005,0.624-0.089,0.832-0.252
		c0.208-0.162,0.312-0.385,0.312-0.668c0-0.576-0.353-0.863-1.057-0.863c-0.347,0-0.738,0.122-1.176,0.367l-0.104-0.56
		c0.17-0.106,0.393-0.2,0.668-0.28c0.274-0.08,0.529-0.12,0.764-0.12c0.496,0,0.892,0.119,1.188,0.356
		c0.297,0.237,0.444,0.566,0.444,0.988c0,0.607-0.339,1.026-1.016,1.256c0.805,0.149,1.208,0.6,1.208,1.352
		c0,0.48-0.178,0.867-0.532,1.16S186.68,113.24,186.083,113.24z"/>
	<path d="M188.979,113.16v-0.416l1.232-1.28c0.448-0.47,0.774-0.86,0.979-1.172c0.206-0.312,0.309-0.639,0.309-0.98
		c0-0.352-0.088-0.611-0.265-0.779c-0.176-0.168-0.45-0.252-0.823-0.252c-0.368,0-0.766,0.141-1.192,0.424l-0.168-0.544
		c0.48-0.32,0.979-0.48,1.496-0.48c0.544,0,0.963,0.139,1.256,0.416s0.44,0.659,0.44,1.145c0,0.432-0.119,0.827-0.356,1.188
		s-0.617,0.804-1.14,1.332l-0.8,0.808h2.399v0.593H188.979z"/>
</g>
<g>
	<path d="M232.959,113.28v-1.16h-2.575v-0.488l2.704-3.936h0.535v3.863h0.896v0.561h-0.896v1.16H232.959z M231.119,111.559h1.849
		v-2.688L231.119,111.559z"/>
	<path d="M237.224,113.255c-0.604,0-1.087-0.212-1.452-0.636s-0.548-1.073-0.548-1.948v-0.424c0-0.891,0.187-1.54,0.56-1.948
		s0.856-0.612,1.448-0.612c0.581,0,1.052,0.202,1.412,0.604c0.359,0.402,0.54,1.044,0.54,1.924v0.464
		c0,0.875-0.181,1.522-0.54,1.944C238.283,113.045,237.81,113.255,237.224,113.255z M237.224,112.679
		c0.41,0,0.718-0.151,0.924-0.456c0.205-0.304,0.308-0.789,0.308-1.456v-0.552c0-1.301-0.408-1.952-1.224-1.952
		c-0.838,0-1.256,0.632-1.256,1.896v0.567C235.976,112.029,236.392,112.679,237.224,112.679z"/>
</g>
<rect x="2.742" y="126.185" fill="#90BFCE" stroke="#000000" stroke-width="0.5" stroke-miterlimit="10" width="229.548" height="25.935"/>
<path fill="#CD8F8E" stroke="#000000" stroke-width="0.5" stroke-miterlimit="10" d="M3.258,152.121h228.516
	c0,0-23.742-18.452-106.71-19.355S18.355,143.734,3.258,152.121z"/>
<g>
	<path d="M15.371,137.128v-4.768h-1.592v-0.608h3.88v0.608h-1.592v4.768H15.371z"/>
	<path d="M18.395,137.128v-5.729h0.68v2.08h0.04c0.389-0.271,0.824-0.407,1.304-0.407c0.395,0,0.686,0.088,0.872,0.264
		s0.28,0.453,0.28,0.832v2.96h-0.672v-2.816c0-0.234-0.053-0.401-0.16-0.5c-0.107-0.099-0.312-0.147-0.616-0.147
		c-0.325,0-0.675,0.088-1.048,0.264v3.2H18.395z"/>
	<path d="M23.443,137.16v-4.704l-0.976,0.216v-0.408l1.296-0.6h0.384v5.496H23.443z"/>
</g>
<g>
	<path d="M213.009,136.824v-4.768h-1.592v-0.608h3.88v0.608h-1.592v4.768H213.009z"/>
	<path d="M216.033,136.824v-5.729h0.68v2.08h0.04c0.39-0.271,0.824-0.407,1.304-0.407c0.395,0,0.686,0.088,0.872,0.264
		s0.28,0.453,0.28,0.832v2.96h-0.672v-2.816c0-0.234-0.054-0.401-0.16-0.5s-0.312-0.147-0.616-0.147
		c-0.325,0-0.675,0.088-1.048,0.264v3.2H216.033z"/>
	<path d="M221.081,136.856v-4.704l-0.976,0.216v-0.408l1.296-0.6h0.384v5.496H221.081z"/>
</g>
<g>
	<path d="M114.336,145.276v-4.768h-1.592V139.9h3.88v0.608h-1.592v4.768H114.336z"/>
	<path d="M117.36,145.276v-5.729h0.68v2.08h0.04c0.389-0.271,0.824-0.407,1.304-0.407c0.395,0,0.686,0.088,0.872,0.264
		s0.28,0.453,0.28,0.832v2.96h-0.672v-2.816c0-0.234-0.053-0.401-0.16-0.5c-0.107-0.099-0.312-0.147-0.616-0.147
		c-0.325,0-0.675,0.088-1.048,0.264v3.2H117.36z"/>
	<path d="M121.536,145.276v-0.416l1.232-1.28c0.448-0.469,0.775-0.859,0.98-1.172c0.206-0.312,0.308-0.639,0.308-0.979
		c0-0.353-0.088-0.612-0.264-0.78c-0.176-0.168-0.451-0.252-0.824-0.252c-0.368,0-0.766,0.142-1.192,0.424l-0.168-0.544
		c0.48-0.32,0.979-0.48,1.496-0.48c0.544,0,0.963,0.139,1.256,0.416c0.293,0.277,0.44,0.659,0.44,1.145
		c0,0.432-0.119,0.828-0.356,1.188c-0.238,0.36-0.618,0.805-1.14,1.332l-0.8,0.809h2.4v0.592H121.536z"/>
</g>
<path fill="#BACC97" stroke="#000000" stroke-width="0.5" stroke-miterlimit="10" d="M231.75,186.246H2.742v-30.028
	c76.336,5.29,152.672,10.581,229.008,15.871C231.75,176.808,231.75,181.527,231.75,186.246z"/>
<g>
	<path d="M93.115,174.929v-0.584h3.816v0.584h-1.528v0.192c0,0.469,0.164,0.889,0.492,1.26s0.708,0.62,1.14,0.748l-0.392,0.568
		c-0.32-0.128-0.629-0.33-0.928-0.604s-0.52-0.569-0.664-0.884c-0.112,0.331-0.331,0.656-0.656,0.976
		c-0.326,0.32-0.672,0.555-1.04,0.704l-0.424-0.552c0.48-0.171,0.892-0.463,1.236-0.876c0.344-0.413,0.516-0.854,0.516-1.324v-0.208
		H93.115z M98.595,179.498c0,0.421-0.209,0.752-0.628,0.992c-0.418,0.239-0.996,0.359-1.732,0.359s-1.313-0.12-1.732-0.359
		c-0.419-0.24-0.628-0.571-0.628-0.992c0-0.427,0.209-0.762,0.628-1.004c0.418-0.243,0.996-0.364,1.732-0.364
		s1.313,0.121,1.732,0.364C98.386,178.736,98.595,179.071,98.595,179.498z M97.867,179.498c0-0.251-0.145-0.444-0.436-0.58
		c-0.291-0.136-0.689-0.204-1.196-0.204s-0.904,0.068-1.192,0.204s-0.432,0.329-0.432,0.58c0,0.245,0.144,0.436,0.432,0.572
		c0.288,0.136,0.685,0.203,1.192,0.203s0.905-0.067,1.196-0.203C97.722,179.933,97.867,179.743,97.867,179.498z M99.555,176.297
		h-1.056v1.872h-0.704v-4.304h0.704v1.84h1.056V176.297z"/>
	<path d="M103.331,178.761c-0.544,0.128-1.333,0.203-2.368,0.225h-0.672v-4.345h0.712v3.744c0.992,0,1.733-0.069,2.224-0.208
		C103.248,178.284,103.283,178.479,103.331,178.761z M105.923,180.857h-0.68v-3.68h-0.856v3.336h-0.672v-6.496h0.672v2.576h0.856
		v-2.728h0.68V180.857z"/>
	<path d="M112.419,174.25c0,1.088-0.069,1.944-0.208,2.567h1.04v0.576h-1.688v1.784h-0.712v-1.784h-1.216v1.744h-0.704v-1.744
		h-1.992v-0.576h4.568c0.139-0.603,0.203-1.267,0.192-1.991h-3.936v-0.576H112.419z M112.515,180.641h-4.752v-2.111h0.704v1.544
		h4.048V180.641z"/>
	<path d="M120.171,178.154h-6.312v-0.576h2.784v-0.889h0.712v0.889h2.816V178.154z M119.859,176.561l-0.296,0.584
		c-0.539-0.059-1.052-0.195-1.54-0.412c-0.488-0.216-0.825-0.473-1.012-0.771c-0.182,0.304-0.509,0.563-0.984,0.78
		c-0.475,0.216-0.992,0.351-1.552,0.403l-0.312-0.584c0.582-0.026,1.109-0.141,1.584-0.344c0.475-0.202,0.768-0.453,0.88-0.752
		h-2.12v-0.56h5.008v0.56h-2.104c0.112,0.293,0.412,0.541,0.9,0.744C118.799,176.413,119.314,176.53,119.859,176.561z
		 M118.814,178.794c0.408,0.213,0.612,0.512,0.612,0.896c0,0.385-0.206,0.683-0.616,0.896c-0.411,0.213-1.011,0.32-1.8,0.32
		c-0.784,0-1.381-0.108-1.792-0.324s-0.616-0.514-0.616-0.893c0-0.378,0.206-0.676,0.616-0.892s1.008-0.324,1.792-0.324
		C117.805,178.473,118.407,178.581,118.814,178.794z M117.011,179.057c-0.518,0-0.927,0.057-1.228,0.168
		c-0.301,0.112-0.452,0.267-0.452,0.464c0,0.203,0.149,0.359,0.448,0.469c0.298,0.109,0.709,0.164,1.232,0.164
		c0.528,0,0.942-0.055,1.244-0.164c0.301-0.109,0.452-0.266,0.452-0.469c0-0.197-0.15-0.352-0.452-0.464
		C117.953,179.114,117.539,179.057,117.011,179.057z M118.139,174.505h-2.264v-0.568h2.264V174.505z"/>
	<path d="M123.883,178.561h0.288c1.248,0,2.218-0.074,2.912-0.224l0.08,0.576c-0.726,0.149-1.792,0.229-3.2,0.24h-0.784v-4.553
		h3.304v0.584h-2.6V178.561z M128.282,173.866v2.728h1.088v0.592h-1.088v3.672h-0.704v-6.991H128.282z"/>
	<path d="M131.69,174.257c0.512,0,0.945,0.157,1.3,0.472c0.354,0.315,0.532,0.715,0.532,1.2c0,0.491-0.176,0.887-0.528,1.188
		c-0.352,0.301-0.786,0.452-1.304,0.452c-0.512,0-0.944-0.151-1.296-0.452c-0.353-0.302-0.528-0.695-0.528-1.181
		s0.178-0.887,0.532-1.204C130.753,174.417,131.184,174.257,131.69,174.257z M131.69,174.857c-0.32,0-0.587,0.102-0.8,0.305
		c-0.214,0.202-0.32,0.456-0.32,0.76c0,0.32,0.105,0.579,0.316,0.776c0.21,0.197,0.479,0.296,0.804,0.296
		c0.33,0,0.599-0.099,0.804-0.296s0.309-0.454,0.309-0.769s-0.102-0.572-0.305-0.771
		C132.296,174.958,132.026,174.857,131.69,174.857z M134.674,178.486c0.411,0.247,0.616,0.579,0.616,0.995s-0.205,0.747-0.616,0.992
		c-0.41,0.245-0.986,0.368-1.728,0.368s-1.316-0.123-1.724-0.368c-0.408-0.245-0.612-0.576-0.612-0.992c0-0.421,0.204-0.754,0.612-1
		c0.407-0.245,0.982-0.367,1.724-0.367S134.264,178.238,134.674,178.486z M134.13,178.906c-0.287-0.139-0.683-0.208-1.184-0.208
		s-0.895,0.07-1.18,0.212c-0.286,0.141-0.429,0.332-0.429,0.571c0,0.246,0.143,0.438,0.429,0.576
		c0.285,0.139,0.679,0.208,1.18,0.208s0.896-0.069,1.184-0.208c0.288-0.139,0.433-0.33,0.433-0.576
		C134.562,179.236,134.418,179.044,134.13,178.906z M136.242,176.425v0.584h-1.04v1.032h-0.712v-4.176h0.712v1.016h1.04v0.584h-1.04
		v0.96H136.242z"/>
	<path d="M140.73,177.122l-0.416,0.552c-0.336-0.149-0.651-0.361-0.944-0.636s-0.507-0.577-0.64-0.908
		c-0.107,0.352-0.316,0.688-0.628,1.008c-0.312,0.32-0.663,0.568-1.053,0.744l-0.439-0.552c0.528-0.225,0.952-0.543,1.271-0.956
		c0.32-0.413,0.48-0.884,0.48-1.412v-0.704h0.72v0.672c0,0.518,0.164,0.974,0.492,1.368S140.287,176.966,140.73,177.122z
		 M141.895,178.509c0.413,0.243,0.62,0.575,0.62,0.996s-0.207,0.752-0.62,0.992c-0.414,0.24-0.994,0.359-1.74,0.359
		c-0.741,0-1.318-0.119-1.732-0.359c-0.413-0.24-0.62-0.571-0.62-0.992s0.207-0.753,0.62-0.996c0.414-0.242,0.991-0.364,1.732-0.364
		C140.9,178.145,141.48,178.267,141.895,178.509z M140.154,178.713c-0.512,0-0.912,0.07-1.2,0.212s-0.432,0.335-0.432,0.58
		s0.144,0.438,0.432,0.576s0.688,0.208,1.2,0.208c0.518,0,0.92-0.069,1.208-0.208s0.432-0.331,0.432-0.576s-0.144-0.438-0.432-0.58
		S140.672,178.713,140.154,178.713z M141.746,176.009h-1.344v-0.576h1.344v-1.567h0.712v4.271h-0.712V176.009z"/>
</g>
<g>
	<path d="M108.388,122.135l-0.371,0.462c-0.308-0.214-0.605-0.488-0.892-0.822c-0.287-0.333-0.482-0.666-0.585-0.997
		c-0.107,0.373-0.298,0.739-0.574,1.099s-0.588,0.653-0.938,0.882l-0.385-0.455c0.467-0.298,0.845-0.696,1.134-1.193
		c0.289-0.497,0.434-1.022,0.434-1.578v-1.043h0.644v1.015c0,0.551,0.145,1.063,0.434,1.537
		C107.578,121.514,107.944,121.879,108.388,122.135z M109.732,124.068h-0.616v-6.118h0.616V124.068z"/>
	<path d="M110.964,118.447h2.772c-0.023,0.816-0.286,1.518-0.788,2.104c-0.501,0.586-1.163,0.997-1.984,1.235l-0.315-0.504
		c0.635-0.154,1.174-0.445,1.617-0.875s0.707-0.912,0.791-1.449h-2.093V118.447z M115.633,123.907h-4.046v-1.918h0.616v1.414h3.43
		V123.907z M116.368,120.33h-0.917v2.128h-0.623v-4.508h0.623v1.862h0.917V120.33z"/>
	<path d="M118.125,123.998c-0.364-0.359-0.66-0.781-0.889-1.267c-0.229-0.485-0.343-1.016-0.343-1.589v-0.119
		c0-1.097,0.411-2.047,1.232-2.85h0.525c-0.336,0.374-0.61,0.803-0.822,1.288s-0.318,0.987-0.318,1.505v0.183
		c0,0.504,0.107,1.013,0.322,1.525c0.215,0.514,0.488,0.955,0.819,1.323H118.125z"/>
	<path d="M122.066,124.068h-0.623v-2.143h-2.436v-0.504h5.522v0.504h-2.463V124.068z M124.284,120.351l-0.279,0.496
		c-0.462-0.074-0.914-0.237-1.354-0.489c-0.441-0.252-0.736-0.519-0.886-0.798c-0.135,0.289-0.417,0.561-0.843,0.815
		c-0.427,0.254-0.883,0.419-1.369,0.493l-0.294-0.49c0.518-0.056,1.001-0.225,1.449-0.507c0.448-0.283,0.693-0.608,0.735-0.977
		h-1.925v-0.512h4.515v0.512h-1.932c0.047,0.363,0.298,0.685,0.752,0.962C123.308,120.135,123.785,120.299,124.284,120.351z"/>
	<path d="M124.873,123.998c0.34-0.373,0.617-0.803,0.829-1.288s0.318-0.987,0.318-1.505v-0.188c0-0.505-0.107-1.012-0.322-1.523
		c-0.214-0.511-0.489-0.95-0.825-1.319h0.531c0.369,0.359,0.668,0.781,0.896,1.264c0.229,0.483,0.343,1.012,0.343,1.586v0.119
		c0,0.573-0.114,1.104-0.343,1.589s-0.527,0.907-0.896,1.267H124.873z"/>
</g>
<g>
</g>
<g>
</g>
<g>
</g>
<g>
</g>
<g>
</g>
<g>
</g>
</svg>
