<?xml version="1.0" encoding="utf-8"?>
<!-- Generator: Adobe Illustrator 28.0.0, SVG Export Plug-In . SVG Version: 6.00 Build 0)  -->
<svg version="1.1" id="레이어_1" xmlns="http://www.w3.org/2000/svg" xmlns:xlink="http://www.w3.org/1999/xlink" x="0px"
	 y="0px" viewBox="0 0 369.65 269.58" enable-background="new 0 0 369.65 269.58" xml:space="preserve">
<line fill="none" stroke="#000000" stroke-miterlimit="10" x1="11.164" y1="187.739" x2="369.554" y2="117.269"/>
<polygon fill="#727171" stroke="#000000" stroke-miterlimit="10" points="190.359,152.504 139.672,240.296 241.046,240.296 "/>
<g>
	<defs>
		<path id="SVGID_7_" d="M0.125,115.483c0,9.248,7.495,16.744,16.744,16.744c9.248,0,16.744-7.496,16.744-16.744
			c0-9.247-7.496-16.744-16.744-16.744C7.62,98.739,0.125,106.236,0.125,115.483"/>
	</defs>
	<clipPath id="SVGID_00000078021204151514677720000013562872244838101929_">
		<use xlink:href="#SVGID_7_"  overflow="visible"/>
	</clipPath>
	
		<radialGradient id="SVGID_00000099631367135079321430000006496850458573227704_" cx="-15.5486" cy="-282.1508" r="1" gradientTransform="matrix(19.0084 0 0 -19.0084 316.2867 -5252.2603)" gradientUnits="userSpaceOnUse">
		<stop  offset="0" style="stop-color:#FFFFFF"/>
		<stop  offset="0.347" style="stop-color:#FCE7E2"/>
		<stop  offset="0.7739" style="stop-color:#F7CAC2"/>
		<stop  offset="1" style="stop-color:#F5BEB6"/>
	</radialGradient>
	
		<rect x="0.125" y="98.739" clip-path="url(#SVGID_00000078021204151514677720000013562872244838101929_)" fill="url(#SVGID_00000099631367135079321430000006496850458573227704_)" width="33.488" height="33.488"/>
</g>
<ellipse transform="matrix(1 -0.0079 0.0079 1 -0.9087 0.1364)" fill="none" stroke="#000000" stroke-width="0.25" stroke-miterlimit="10" cx="16.869" cy="115.483" rx="16.744" ry="16.743"/>
<g>
	<defs>
		<path id="SVGID_10_" d="M6.833,115.858c0,6.355,5.153,11.508,11.509,11.508c6.356,0,11.51-5.153,11.51-11.508
			c0-6.359-5.154-11.511-11.51-11.511C11.986,104.347,6.833,109.499,6.833,115.858"/>
	</defs>
	<clipPath id="SVGID_00000011728898879805699860000017225920530853700251_">
		<use xlink:href="#SVGID_10_"  overflow="visible"/>
	</clipPath>
	
		<radialGradient id="SVGID_00000038401055859085860330000016303101011598413476_" cx="-13.5895" cy="-178.5434" r="1" gradientTransform="matrix(20.7482 0 0 20.7482 301.8607 3814.1694)" gradientUnits="userSpaceOnUse">
		<stop  offset="0" style="stop-color:#F5BEB6"/>
		<stop  offset="0.3948" style="stop-color:#F0A8A0"/>
		<stop  offset="1" style="stop-color:#EB8A83"/>
	</radialGradient>
	
		<rect x="6.833" y="104.347" clip-path="url(#SVGID_00000011728898879805699860000017225920530853700251_)" fill="url(#SVGID_00000038401055859085860330000016303101011598413476_)" width="23.019" height="23.019"/>
</g>
<g>
	<defs>
		<path id="SVGID_2_" d="M0.125,115.483c0,9.248,7.495,16.744,16.744,16.744c9.248,0,16.744-7.496,16.744-16.744
			c0-9.247-7.496-16.744-16.744-16.744C7.62,98.739,0.125,106.236,0.125,115.483"/>
	</defs>
	<clipPath id="SVGID_00000091710593961198493920000013001612198632333980_">
		<use xlink:href="#SVGID_2_"  overflow="visible"/>
	</clipPath>
	
		<radialGradient id="SVGID_00000109713365502588374560000008544769761458257314_" cx="-15.5486" cy="-282.1508" r="1" gradientTransform="matrix(19.0084 0 0 -19.0084 316.2867 -5252.2603)" gradientUnits="userSpaceOnUse">
		<stop  offset="0" style="stop-color:#FFFFFF"/>
		<stop  offset="0.347" style="stop-color:#FCE7E2"/>
		<stop  offset="0.7739" style="stop-color:#F7CAC2"/>
		<stop  offset="1" style="stop-color:#F5BEB6"/>
	</radialGradient>
	
		<rect x="0.125" y="98.739" clip-path="url(#SVGID_00000091710593961198493920000013001612198632333980_)" fill="url(#SVGID_00000109713365502588374560000008544769761458257314_)" width="33.488" height="33.488"/>
</g>
<ellipse transform="matrix(1 -0.0079 0.0079 1 -0.9087 0.1364)" fill="none" stroke="#000000" stroke-width="0.25" stroke-miterlimit="10" cx="16.869" cy="115.483" rx="16.744" ry="16.743"/>
<g>
	<defs>
		<path id="SVGID_1_" d="M6.833,115.858c0,6.355,5.153,11.508,11.509,11.508c6.356,0,11.51-5.153,11.51-11.508
			c0-6.359-5.154-11.511-11.51-11.511C11.986,104.347,6.833,109.499,6.833,115.858"/>
	</defs>
	<clipPath id="SVGID_00000041276074726225891260000011693210719734321594_">
		<use xlink:href="#SVGID_1_"  overflow="visible"/>
	</clipPath>
	
		<radialGradient id="SVGID_00000067956374836357730720000002933549751153146513_" cx="-13.5895" cy="-178.5434" r="1" gradientTransform="matrix(20.7482 0 0 20.7482 301.8607 3814.1694)" gradientUnits="userSpaceOnUse">
		<stop  offset="0" style="stop-color:#F5BEB6"/>
		<stop  offset="0.3948" style="stop-color:#F0A8A0"/>
		<stop  offset="1" style="stop-color:#EB8A83"/>
	</radialGradient>
	
		<rect x="6.833" y="104.347" clip-path="url(#SVGID_00000041276074726225891260000011693210719734321594_)" fill="url(#SVGID_00000067956374836357730720000002933549751153146513_)" width="23.019" height="23.019"/>
</g>
<g>
	<defs>
		<path id="SVGID_4_" d="M27.526,142.884c0,9.248,7.495,16.744,16.744,16.744c9.248,0,16.744-7.496,16.744-16.744
			c0-9.247-7.496-16.744-16.744-16.744C35.021,126.139,27.526,133.637,27.526,142.884"/>
	</defs>
	<clipPath id="SVGID_00000021825819554654659280000009590902999713857467_">
		<use xlink:href="#SVGID_4_"  overflow="visible"/>
	</clipPath>
	
		<radialGradient id="SVGID_00000043459465722693404130000008083706435750907279_" cx="-14.1071" cy="-283.5923" r="1" gradientTransform="matrix(19.0084 0 0 -19.0084 316.2867 -5252.2603)" gradientUnits="userSpaceOnUse">
		<stop  offset="0" style="stop-color:#FFFFFF"/>
		<stop  offset="0.347" style="stop-color:#FCE7E2"/>
		<stop  offset="0.7739" style="stop-color:#F7CAC2"/>
		<stop  offset="1" style="stop-color:#F5BEB6"/>
	</radialGradient>
	
		<rect x="27.526" y="126.14" clip-path="url(#SVGID_00000021825819554654659280000009590902999713857467_)" fill="url(#SVGID_00000043459465722693404130000008083706435750907279_)" width="33.488" height="33.488"/>
</g>
<ellipse transform="matrix(1 -0.0079 0.0079 1 -1.1236 0.353)" fill="none" stroke="#000000" stroke-width="0.25" stroke-miterlimit="10" cx="44.27" cy="142.884" rx="16.744" ry="16.743"/>
<g>
	<defs>
		<path id="SVGID_3_" d="M34.234,143.259c0,6.355,5.153,11.508,11.509,11.508c6.356,0,11.51-5.153,11.51-11.508
			c0-6.359-5.154-11.511-11.51-11.511C39.387,131.748,34.234,136.9,34.234,143.259"/>
	</defs>
	<clipPath id="SVGID_00000031191475112047290190000017515189856423557041_">
		<use xlink:href="#SVGID_3_"  overflow="visible"/>
	</clipPath>
	
		<radialGradient id="SVGID_00000069391376096013773760000008072654793061441200_" cx="-12.2688" cy="-177.2227" r="1" gradientTransform="matrix(20.7482 0 0 20.7482 301.8607 3814.1694)" gradientUnits="userSpaceOnUse">
		<stop  offset="0" style="stop-color:#F5BEB6"/>
		<stop  offset="0.3948" style="stop-color:#F0A8A0"/>
		<stop  offset="1" style="stop-color:#EB8A83"/>
	</radialGradient>
	
		<rect x="34.234" y="131.748" clip-path="url(#SVGID_00000031191475112047290190000017515189856423557041_)" fill="url(#SVGID_00000069391376096013773760000008072654793061441200_)" width="23.019" height="23.019"/>
</g>
<g>
	<defs>
		<path id="SVGID_6_" d="M27.526,104.347c0,9.248,7.495,16.744,16.744,16.744c9.248,0,16.744-7.496,16.744-16.744
			c0-9.247-7.496-16.744-16.744-16.744C35.021,87.603,27.526,95.1,27.526,104.347"/>
	</defs>
	<clipPath id="SVGID_00000168817389539357769930000000654393408737943440_">
		<use xlink:href="#SVGID_6_"  overflow="visible"/>
	</clipPath>
	
		<radialGradient id="SVGID_00000138535809673879067930000005381793372286698368_" cx="-14.1071" cy="-281.5649" r="1" gradientTransform="matrix(19.0084 0 0 -19.0084 316.2867 -5252.2603)" gradientUnits="userSpaceOnUse">
		<stop  offset="0" style="stop-color:#FFFFFF"/>
		<stop  offset="0.347" style="stop-color:#FCE7E2"/>
		<stop  offset="0.7739" style="stop-color:#F7CAC2"/>
		<stop  offset="1" style="stop-color:#F5BEB6"/>
	</radialGradient>
	
		<rect x="27.526" y="87.603" clip-path="url(#SVGID_00000168817389539357769930000000654393408737943440_)" fill="url(#SVGID_00000138535809673879067930000005381793372286698368_)" width="33.488" height="33.488"/>
</g>
<ellipse transform="matrix(1 -0.0079 0.0079 1 -0.8202 0.3518)" fill="none" stroke="#000000" stroke-width="0.25" stroke-miterlimit="10" cx="44.27" cy="104.347" rx="16.744" ry="16.743"/>
<g>
	<defs>
		<path id="SVGID_5_" d="M34.234,104.722c0,6.355,5.153,11.508,11.509,11.508c6.356,0,11.51-5.153,11.51-11.508
			c0-6.359-5.154-11.511-11.51-11.511C39.387,93.211,34.234,98.363,34.234,104.722"/>
	</defs>
	<clipPath id="SVGID_00000041263811530885683610000003033311220904931500_">
		<use xlink:href="#SVGID_5_"  overflow="visible"/>
	</clipPath>
	
		<radialGradient id="SVGID_00000018209165391249590520000017377374799710044300_" cx="-12.2688" cy="-179.0801" r="1" gradientTransform="matrix(20.7482 0 0 20.7482 301.8607 3814.1694)" gradientUnits="userSpaceOnUse">
		<stop  offset="0" style="stop-color:#F5BEB6"/>
		<stop  offset="0.3948" style="stop-color:#F0A8A0"/>
		<stop  offset="1" style="stop-color:#EB8A83"/>
	</radialGradient>
	
		<rect x="34.234" y="93.211" clip-path="url(#SVGID_00000041263811530885683610000003033311220904931500_)" fill="url(#SVGID_00000018209165391249590520000017377374799710044300_)" width="23.019" height="23.019"/>
</g>
<g>
	<defs>
		<path id="SVGID_9_" d="M41.392,118.213c0,9.248,7.495,16.744,16.744,16.744c9.248,0,16.744-7.496,16.744-16.744
			c0-9.247-7.496-16.744-16.744-16.744C48.887,101.469,41.392,108.966,41.392,118.213"/>
	</defs>
	<clipPath id="SVGID_00000034802954386739232930000013288236892225005491_">
		<use xlink:href="#SVGID_9_"  overflow="visible"/>
	</clipPath>
	
		<radialGradient id="SVGID_00000031169184822326783520000009895302157871963015_" cx="-13.3776" cy="-282.2945" r="1" gradientTransform="matrix(19.0084 0 0 -19.0084 316.2867 -5252.2603)" gradientUnits="userSpaceOnUse">
		<stop  offset="0" style="stop-color:#FFFFFF"/>
		<stop  offset="0.347" style="stop-color:#FCE7E2"/>
		<stop  offset="0.7739" style="stop-color:#F7CAC2"/>
		<stop  offset="1" style="stop-color:#F5BEB6"/>
	</radialGradient>
	
		<rect x="41.392" y="101.47" clip-path="url(#SVGID_00000034802954386739232930000013288236892225005491_)" fill="url(#SVGID_00000031169184822326783520000009895302157871963015_)" width="33.488" height="33.488"/>
</g>
<ellipse transform="matrix(1 -0.0079 0.0079 1 -0.929 0.4614)" fill="none" stroke="#000000" stroke-width="0.25" stroke-miterlimit="10" cx="58.136" cy="118.214" rx="16.744" ry="16.743"/>
<g>
	<defs>
		<path id="SVGID_8_" d="M48.1,118.588c0,6.355,5.153,11.508,11.509,11.508c6.356,0,11.51-5.153,11.51-11.508
			c0-6.359-5.154-11.511-11.51-11.511C53.253,107.077,48.1,112.229,48.1,118.588"/>
	</defs>
	<clipPath id="SVGID_00000123402670897119594530000014455654733292650121_">
		<use xlink:href="#SVGID_8_"  overflow="visible"/>
	</clipPath>
	
		<radialGradient id="SVGID_00000139257343182032085620000010785429415338678455_" cx="-11.6005" cy="-178.4117" r="1" gradientTransform="matrix(20.7482 0 0 20.7482 301.8607 3814.1694)" gradientUnits="userSpaceOnUse">
		<stop  offset="0" style="stop-color:#F5BEB6"/>
		<stop  offset="0.3948" style="stop-color:#F0A8A0"/>
		<stop  offset="1" style="stop-color:#EB8A83"/>
	</radialGradient>
	
		<rect x="48.1" y="107.077" clip-path="url(#SVGID_00000123402670897119594530000014455654733292650121_)" fill="url(#SVGID_00000139257343182032085620000010785429415338678455_)" width="23.019" height="23.019"/>
</g>
<g>
	<defs>
		<path id="SVGID_12_" d="M5.836,153.77c0,9.248,7.495,16.744,16.744,16.744c9.248,0,16.744-7.496,16.744-16.744
			c0-9.247-7.496-16.744-16.744-16.744C13.331,137.026,5.836,144.523,5.836,153.77"/>
	</defs>
	<clipPath id="SVGID_00000159456628690126727940000006318610218456252324_">
		<use xlink:href="#SVGID_12_"  overflow="visible"/>
	</clipPath>
	
		<radialGradient id="SVGID_00000145053394440564230260000018054024528510316722_" cx="-15.2481" cy="-284.165" r="1" gradientTransform="matrix(19.0084 0 0 -19.0084 316.2867 -5252.2603)" gradientUnits="userSpaceOnUse">
		<stop  offset="0" style="stop-color:#FFFFFF"/>
		<stop  offset="0.347" style="stop-color:#FCE7E2"/>
		<stop  offset="0.7739" style="stop-color:#F7CAC2"/>
		<stop  offset="1" style="stop-color:#F5BEB6"/>
	</radialGradient>
	
		<rect x="5.836" y="137.026" clip-path="url(#SVGID_00000159456628690126727940000006318610218456252324_)" fill="url(#SVGID_00000145053394440564230260000018054024528510316722_)" width="33.488" height="33.488"/>
</g>
<ellipse transform="matrix(1 -0.0079 0.0079 1 -1.21 0.1826)" fill="none" stroke="#000000" stroke-width="0.25" stroke-miterlimit="10" cx="22.58" cy="153.77" rx="16.744" ry="16.743"/>
<g>
	<defs>
		<path id="SVGID_11_" d="M12.544,154.145c0,6.355,5.153,11.508,11.509,11.508c6.356,0,11.51-5.153,11.51-11.508
			c0-6.359-5.154-11.511-11.51-11.511C17.697,142.634,12.544,147.786,12.544,154.145"/>
	</defs>
	<clipPath id="SVGID_00000153671594149831464930000010220562637473945223_">
		<use xlink:href="#SVGID_11_"  overflow="visible"/>
	</clipPath>
	
		<radialGradient id="SVGID_00000115487357680069811290000010080874775761425312_" cx="-13.3142" cy="-176.698" r="1" gradientTransform="matrix(20.7482 0 0 20.7482 301.8607 3814.1694)" gradientUnits="userSpaceOnUse">
		<stop  offset="0" style="stop-color:#F5BEB6"/>
		<stop  offset="0.3948" style="stop-color:#F0A8A0"/>
		<stop  offset="1" style="stop-color:#EB8A83"/>
	</radialGradient>
	
		<rect x="12.544" y="142.634" clip-path="url(#SVGID_00000153671594149831464930000010220562637473945223_)" fill="url(#SVGID_00000115487357680069811290000010080874775761425312_)" width="23.019" height="23.019"/>
</g>
<g>
	<defs>
		<path id="SVGID_14_" d="M48.1,153.77c0,9.248,7.495,16.744,16.744,16.744c9.248,0,16.744-7.496,16.744-16.744
			c0-9.247-7.496-16.744-16.744-16.744C55.595,137.026,48.1,144.523,48.1,153.77"/>
	</defs>
	<clipPath id="SVGID_00000091706567243061082560000011914494316640941747_">
		<use xlink:href="#SVGID_14_"  overflow="visible"/>
	</clipPath>
	
		<radialGradient id="SVGID_00000014602922693660112350000008697046720682164636_" cx="-13.0247" cy="-284.165" r="1" gradientTransform="matrix(19.0084 0 0 -19.0084 316.2867 -5252.2603)" gradientUnits="userSpaceOnUse">
		<stop  offset="0" style="stop-color:#FFFFFF"/>
		<stop  offset="0.347" style="stop-color:#FCE7E2"/>
		<stop  offset="0.7739" style="stop-color:#F7CAC2"/>
		<stop  offset="1" style="stop-color:#F5BEB6"/>
	</radialGradient>
	
		<rect x="48.1" y="137.026" clip-path="url(#SVGID_00000091706567243061082560000011914494316640941747_)" fill="url(#SVGID_00000014602922693660112350000008697046720682164636_)" width="33.488" height="33.488"/>
</g>
<ellipse transform="matrix(1 -0.0079 0.0079 1 -1.2087 0.5153)" fill="none" stroke="#000000" stroke-width="0.25" stroke-miterlimit="10" cx="64.844" cy="153.77" rx="16.744" ry="16.743"/>
<g>
	<defs>
		<path id="SVGID_13_" d="M54.808,154.145c0,6.355,5.153,11.508,11.509,11.508c6.356,0,11.51-5.153,11.51-11.508
			c0-6.359-5.154-11.511-11.51-11.511C59.961,142.634,54.808,147.786,54.808,154.145"/>
	</defs>
	<clipPath id="SVGID_00000079472031677129372050000006426874937048481175_">
		<use xlink:href="#SVGID_13_"  overflow="visible"/>
	</clipPath>
	
		<radialGradient id="SVGID_00000097485418195074995320000011295040479844441022_" cx="-11.2772" cy="-176.698" r="1" gradientTransform="matrix(20.7482 0 0 20.7482 301.8607 3814.1694)" gradientUnits="userSpaceOnUse">
		<stop  offset="0" style="stop-color:#F5BEB6"/>
		<stop  offset="0.3948" style="stop-color:#F0A8A0"/>
		<stop  offset="1" style="stop-color:#EB8A83"/>
	</radialGradient>
	
		<rect x="54.808" y="142.634" clip-path="url(#SVGID_00000079472031677129372050000006426874937048481175_)" fill="url(#SVGID_00000097485418195074995320000011295040479844441022_)" width="23.019" height="23.019"/>
</g>
<g>
	<g>
		<defs>
			<path id="SVGID_16_" d="M301.699,67.282c0,9.248,7.496,16.744,16.744,16.744c9.248,0,16.744-7.496,16.744-16.744
				c0-9.247-7.496-16.744-16.744-16.744C309.195,50.538,301.699,58.035,301.699,67.282"/>
		</defs>
		<clipPath id="SVGID_00000153675543453393419030000009868408202137803706_">
			<use xlink:href="#SVGID_16_"  overflow="visible"/>
		</clipPath>
		
			<radialGradient id="SVGID_00000172413905618135063040000008898851350766866593_" cx="3.9611" cy="-279.6151" r="1" gradientTransform="matrix(19.0084 0 0 -19.0084 247.0127 -5252.2603)" gradientUnits="userSpaceOnUse">
			<stop  offset="0" style="stop-color:#FFFFFF"/>
			<stop  offset="0.3113" style="stop-color:#D2D5E5"/>
			<stop  offset="0.6222" style="stop-color:#A9B1CD"/>
			<stop  offset="0.8614" style="stop-color:#8F9CBF"/>
			<stop  offset="1" style="stop-color:#8594BA"/>
		</radialGradient>
		
			<rect x="301.699" y="50.538" clip-path="url(#SVGID_00000153675543453393419030000009868408202137803706_)" fill="url(#SVGID_00000172413905618135063040000008898851350766866593_)" width="33.488" height="33.488"/>
	</g>
	
		<ellipse transform="matrix(1 -0.0079 0.0079 1 -0.5199 2.5093)" fill="none" stroke="#000000" stroke-width="0.25" stroke-miterlimit="10" cx="318.443" cy="67.282" rx="16.744" ry="16.743"/>
	<g>
		<defs>
			<path id="SVGID_15_" d="M308.407,67.657c0,6.355,5.153,11.508,11.509,11.508c6.357,0,11.51-5.153,11.51-11.508
				c0-6.359-5.153-11.511-11.51-11.511C313.56,56.146,308.407,61.298,308.407,67.657"/>
		</defs>
		<clipPath id="SVGID_00000139293112766208694240000005946868425272618417_">
			<use xlink:href="#SVGID_15_"  overflow="visible"/>
		</clipPath>
		
			<radialGradient id="SVGID_00000018934617586448590110000004272523594464080549_" cx="4.2843" cy="-180.8665" r="1" gradientTransform="matrix(20.7482 0 0 20.7482 232.5867 3814.1694)" gradientUnits="userSpaceOnUse">
			<stop  offset="0" style="stop-color:#8594BA"/>
			<stop  offset="0.5308" style="stop-color:#5E73A3"/>
			<stop  offset="1" style="stop-color:#3C5D92"/>
		</radialGradient>
		
			<rect x="308.407" y="56.146" clip-path="url(#SVGID_00000139293112766208694240000005946868425272618417_)" fill="url(#SVGID_00000018934617586448590110000004272523594464080549_)" width="23.019" height="23.019"/>
	</g>
</g>
<g>
	<g>
		<defs>
			<path id="SVGID_20_" d="M281.722,94.34c6.539,6.539,17.14,6.539,23.68,0c6.539-6.539,6.539-17.14,0-23.68
				c-6.539-6.539-17.14-6.539-23.68,0C275.183,77.2,275.183,87.802,281.722,94.34"/>
		</defs>
		<clipPath id="SVGID_00000078002527286990101520000009485819143993478039_">
			<use xlink:href="#SVGID_20_"  overflow="visible"/>
		</clipPath>
		
			<radialGradient id="SVGID_00000009586371934629453710000002747625069770246286_" cx="2.6521" cy="-280.4156" r="1" gradientTransform="matrix(13.441 -13.441 -13.441 -13.441 -3511.5989 -3656.8298)" gradientUnits="userSpaceOnUse">
			<stop  offset="0" style="stop-color:#FFFFFF"/>
			<stop  offset="0.3113" style="stop-color:#D2D5E5"/>
			<stop  offset="0.6222" style="stop-color:#A9B1CD"/>
			<stop  offset="0.8614" style="stop-color:#8F9CBF"/>
			<stop  offset="1" style="stop-color:#8594BA"/>
		</radialGradient>
		
			<polygon clip-path="url(#SVGID_00000078002527286990101520000009485819143993478039_)" fill="url(#SVGID_00000009586371934629453710000002747625069770246286_)" points="
			269.882,82.501 293.562,58.821 317.241,82.501 293.562,106.18 		"/>
	</g>
	
		<ellipse transform="matrix(0.7015 -0.7127 0.7127 0.7015 28.8288 233.8325)" fill="none" stroke="#000000" stroke-width="0.25" stroke-miterlimit="10" cx="293.562" cy="82.501" rx="16.744" ry="16.743"/>
	<g>
		<defs>
			<path id="SVGID_19_" d="M286.73,89.862c4.494,4.494,11.781,4.494,16.275-0.001c4.495-4.495,4.495-11.783,0.001-16.276
				c-4.496-4.496-11.783-4.496-16.278-0.001C282.235,78.079,282.234,85.366,286.73,89.862"/>
		</defs>
		<clipPath id="SVGID_00000180342723381943157340000009470480719159613867_">
			<use xlink:href="#SVGID_19_"  overflow="visible"/>
		</clipPath>
		
			<radialGradient id="SVGID_00000175300671252460008320000010126102270621732486_" cx="3.0851" cy="-180.133" r="1" gradientTransform="matrix(14.6712 -14.6712 14.6712 14.6712 2889.1343 2764.3049)" gradientUnits="userSpaceOnUse">
			<stop  offset="0" style="stop-color:#8594BA"/>
			<stop  offset="0.5308" style="stop-color:#5E73A3"/>
			<stop  offset="1" style="stop-color:#3C5D92"/>
		</radialGradient>
		
			<polygon clip-path="url(#SVGID_00000180342723381943157340000009470480719159613867_)" fill="url(#SVGID_00000175300671252460008320000010126102270621732486_)" points="
			294.868,98 311.145,81.723 294.868,65.446 278.591,81.723 		"/>
	</g>
</g>
<g>
	<g>
		<defs>
			<path id="SVGID_24_" d="M327.859,67.282c0,9.248,7.496,16.744,16.744,16.744c9.248,0,16.744-7.496,16.744-16.744
				c0-9.247-7.496-16.744-16.744-16.744C335.355,50.538,327.859,58.035,327.859,67.282"/>
		</defs>
		<clipPath id="SVGID_00000036973954857563140120000000552849895561668253_">
			<use xlink:href="#SVGID_24_"  overflow="visible"/>
		</clipPath>
		
			<radialGradient id="SVGID_00000055705991552696128000000017948514220293996967_" cx="5.3373" cy="-279.6151" r="1" gradientTransform="matrix(19.0084 0 0 -19.0084 247.0127 -5252.2603)" gradientUnits="userSpaceOnUse">
			<stop  offset="0" style="stop-color:#FFFFFF"/>
			<stop  offset="0.3113" style="stop-color:#D2D5E5"/>
			<stop  offset="0.6222" style="stop-color:#A9B1CD"/>
			<stop  offset="0.8614" style="stop-color:#8F9CBF"/>
			<stop  offset="1" style="stop-color:#8594BA"/>
		</radialGradient>
		
			<rect x="327.859" y="50.538" clip-path="url(#SVGID_00000036973954857563140120000000552849895561668253_)" fill="url(#SVGID_00000055705991552696128000000017948514220293996967_)" width="33.488" height="33.488"/>
	</g>
	
		<ellipse transform="matrix(1 -0.0079 0.0079 1 -0.5191 2.7153)" fill="none" stroke="#000000" stroke-width="0.25" stroke-miterlimit="10" cx="344.603" cy="67.282" rx="16.744" ry="16.743"/>
	<g>
		<defs>
			<path id="SVGID_23_" d="M334.567,67.657c0,6.355,5.153,11.508,11.509,11.508c6.357,0,11.51-5.153,11.51-11.508
				c0-6.359-5.153-11.511-11.51-11.511C339.72,56.146,334.567,61.298,334.567,67.657"/>
		</defs>
		<clipPath id="SVGID_00000112619554146930740060000002808520729463797175_">
			<use xlink:href="#SVGID_23_"  overflow="visible"/>
		</clipPath>
		
			<radialGradient id="SVGID_00000063630599967722117550000008439688331587409835_" cx="5.5451" cy="-180.8665" r="1" gradientTransform="matrix(20.7482 0 0 20.7482 232.5867 3814.1694)" gradientUnits="userSpaceOnUse">
			<stop  offset="0" style="stop-color:#8594BA"/>
			<stop  offset="0.5308" style="stop-color:#5E73A3"/>
			<stop  offset="1" style="stop-color:#3C5D92"/>
		</radialGradient>
		
			<rect x="334.567" y="56.146" clip-path="url(#SVGID_00000112619554146930740060000002808520729463797175_)" fill="url(#SVGID_00000063630599967722117550000008439688331587409835_)" width="23.019" height="23.019"/>
	</g>
</g>
<g>
	<g>
		<defs>
			<path id="SVGID_22_" d="M301.504,93.637c0,9.248,7.496,16.744,16.744,16.744c9.248,0,16.744-7.496,16.744-16.744
				c0-9.247-7.496-16.744-16.744-16.744C309,76.893,301.504,84.39,301.504,93.637"/>
		</defs>
		<clipPath id="SVGID_00000146496070595984839140000002098969164905754756_">
			<use xlink:href="#SVGID_22_"  overflow="visible"/>
		</clipPath>
		
			<radialGradient id="SVGID_00000093889427843796019330000008417735724222832256_" cx="3.9509" cy="-281.0015" r="1" gradientTransform="matrix(19.0084 0 0 -19.0084 247.0127 -5252.2603)" gradientUnits="userSpaceOnUse">
			<stop  offset="0" style="stop-color:#FFFFFF"/>
			<stop  offset="0.3113" style="stop-color:#D2D5E5"/>
			<stop  offset="0.6222" style="stop-color:#A9B1CD"/>
			<stop  offset="0.8614" style="stop-color:#8F9CBF"/>
			<stop  offset="1" style="stop-color:#8594BA"/>
		</radialGradient>
		
			<rect x="301.504" y="76.893" clip-path="url(#SVGID_00000146496070595984839140000002098969164905754756_)" fill="url(#SVGID_00000093889427843796019330000008417735724222832256_)" width="33.488" height="33.488"/>
	</g>
	
		<ellipse transform="matrix(1 -0.0079 0.0079 1 -0.7274 2.5086)" fill="none" stroke="#000000" stroke-width="0.25" stroke-miterlimit="10" cx="318.248" cy="93.637" rx="16.744" ry="16.743"/>
	<g>
		<defs>
			<path id="SVGID_21_" d="M308.212,94.012c0,6.355,5.153,11.508,11.509,11.508c6.357,0,11.51-5.153,11.51-11.508
				c0-6.359-5.153-11.511-11.51-11.511C313.365,82.501,308.212,87.653,308.212,94.012"/>
		</defs>
		<clipPath id="SVGID_00000103243220365021129730000001885428727295148187_">
			<use xlink:href="#SVGID_21_"  overflow="visible"/>
		</clipPath>
		
			<radialGradient id="SVGID_00000119117079122015623830000007318365455597178754_" cx="4.2749" cy="-179.5963" r="1" gradientTransform="matrix(20.7482 0 0 20.7482 232.5867 3814.1694)" gradientUnits="userSpaceOnUse">
			<stop  offset="0" style="stop-color:#8594BA"/>
			<stop  offset="0.5308" style="stop-color:#5E73A3"/>
			<stop  offset="1" style="stop-color:#3C5D92"/>
		</radialGradient>
		
			<rect x="308.212" y="82.501" clip-path="url(#SVGID_00000103243220365021129730000001885428727295148187_)" fill="url(#SVGID_00000119117079122015623830000007318365455597178754_)" width="23.019" height="23.019"/>
	</g>
</g>
<g>
	<g>
		<defs>
			<path id="SVGID_26_" d="M317.823,41.195c0,9.248,7.496,16.744,16.744,16.744c9.248,0,16.744-7.496,16.744-16.744
				c0-9.247-7.496-16.744-16.744-16.744C325.319,24.451,317.823,31.948,317.823,41.195"/>
		</defs>
		<clipPath id="SVGID_00000011727195402341869250000000187630107290357159_">
			<use xlink:href="#SVGID_26_"  overflow="visible"/>
		</clipPath>
		
			<radialGradient id="SVGID_00000097462892645848360950000016797799941507033757_" cx="4.8093" cy="-278.2426" r="1" gradientTransform="matrix(19.0084 0 0 -19.0084 247.0127 -5252.2603)" gradientUnits="userSpaceOnUse">
			<stop  offset="0" style="stop-color:#FFFFFF"/>
			<stop  offset="0.3113" style="stop-color:#D2D5E5"/>
			<stop  offset="0.6222" style="stop-color:#A9B1CD"/>
			<stop  offset="0.8614" style="stop-color:#8F9CBF"/>
			<stop  offset="1" style="stop-color:#8594BA"/>
		</radialGradient>
		
			<rect x="317.823" y="24.451" clip-path="url(#SVGID_00000011727195402341869250000000187630107290357159_)" fill="url(#SVGID_00000097462892645848360950000016797799941507033757_)" width="33.488" height="33.488"/>
	</g>
	
		<ellipse transform="matrix(1 -0.0079 0.0079 1 -0.314 2.6355)" fill="none" stroke="#000000" stroke-width="0.25" stroke-miterlimit="10" cx="334.567" cy="41.195" rx="16.744" ry="16.743"/>
	<g>
		<defs>
			<path id="SVGID_25_" d="M324.531,41.57c0,6.355,5.153,11.508,11.509,11.508c6.357,0,11.51-5.153,11.51-11.508
				c0-6.359-5.153-11.511-11.51-11.511C329.684,30.059,324.531,35.211,324.531,41.57"/>
		</defs>
		<clipPath id="SVGID_00000175312097445674563170000015460146340096615309_">
			<use xlink:href="#SVGID_25_"  overflow="visible"/>
		</clipPath>
		
			<radialGradient id="SVGID_00000031929446850392634540000003081029268376168117_" cx="5.0614" cy="-182.1238" r="1" gradientTransform="matrix(20.7482 0 0 20.7482 232.5867 3814.1694)" gradientUnits="userSpaceOnUse">
			<stop  offset="0" style="stop-color:#8594BA"/>
			<stop  offset="0.5308" style="stop-color:#5E73A3"/>
			<stop  offset="1" style="stop-color:#3C5D92"/>
		</radialGradient>
		
			<rect x="324.531" y="30.059" clip-path="url(#SVGID_00000175312097445674563170000015460146340096615309_)" fill="url(#SVGID_00000031929446850392634540000003081029268376168117_)" width="23.019" height="23.019"/>
	</g>
</g>
<g>
	<g>
		<defs>
			<path id="SVGID_18_" d="M331.426,87.604c0,9.248,7.496,16.744,16.744,16.744c9.248,0,16.744-7.496,16.744-16.744
				c0-9.247-7.496-16.744-16.744-16.744C338.922,70.86,331.426,78.357,331.426,87.604"/>
		</defs>
		<clipPath id="SVGID_00000002380312298731292990000016160007216083163295_">
			<use xlink:href="#SVGID_18_"  overflow="visible"/>
		</clipPath>
		
			<radialGradient id="SVGID_00000134226492039461731050000004269708123694905494_" cx="5.525" cy="-280.6841" r="1" gradientTransform="matrix(19.0084 0 0 -19.0084 247.0127 -5252.2603)" gradientUnits="userSpaceOnUse">
			<stop  offset="0" style="stop-color:#FFFFFF"/>
			<stop  offset="0.3113" style="stop-color:#D2D5E5"/>
			<stop  offset="0.6222" style="stop-color:#A9B1CD"/>
			<stop  offset="0.8614" style="stop-color:#8F9CBF"/>
			<stop  offset="1" style="stop-color:#8594BA"/>
		</radialGradient>
		
			<rect x="331.426" y="70.86" clip-path="url(#SVGID_00000002380312298731292990000016160007216083163295_)" fill="url(#SVGID_00000134226492039461731050000004269708123694905494_)" width="33.488" height="33.488"/>
	</g>
	
		<ellipse transform="matrix(1 -0.0079 0.0079 1 -0.679 2.744)" fill="none" stroke="#000000" stroke-width="0.25" stroke-miterlimit="10" cx="348.17" cy="87.604" rx="16.744" ry="16.743"/>
	<g>
		<defs>
			<path id="SVGID_17_" d="M338.134,87.979c0,6.355,5.153,11.508,11.509,11.508c6.357,0,11.51-5.153,11.51-11.508
				c0-6.359-5.153-11.511-11.51-11.511C343.287,76.468,338.134,81.62,338.134,87.979"/>
		</defs>
		<clipPath id="SVGID_00000115515244894939060520000017132024000061450389_">
			<use xlink:href="#SVGID_17_"  overflow="visible"/>
		</clipPath>
		
			<radialGradient id="SVGID_00000090258608994062378380000003670583212174140095_" cx="5.717" cy="-179.887" r="1" gradientTransform="matrix(20.7482 0 0 20.7482 232.5867 3814.1694)" gradientUnits="userSpaceOnUse">
			<stop  offset="0" style="stop-color:#8594BA"/>
			<stop  offset="0.5308" style="stop-color:#5E73A3"/>
			<stop  offset="1" style="stop-color:#3C5D92"/>
		</radialGradient>
		
			<rect x="338.134" y="76.468" clip-path="url(#SVGID_00000115515244894939060520000017132024000061450389_)" fill="url(#SVGID_00000090258608994062378380000003670583212174140095_)" width="23.019" height="23.019"/>
	</g>
</g>
<g>
	<path d="M12.65,60.442H0.575v-1.545h2.94v-1.785c-1-0.45-1.5-1.075-1.5-1.875c0-0.73,0.42-1.32,1.26-1.77
		c0.84-0.45,1.955-0.675,3.345-0.675c1.39,0,2.502,0.225,3.337,0.675c0.835,0.45,1.252,1.04,1.252,1.77
		c0,0.81-0.505,1.435-1.515,1.875v1.785h2.955V60.442z M11.99,52.402H1.235v-1.545H11.99V52.402z M9.065,55.237
		c0-0.3-0.232-0.54-0.697-0.72c-0.465-0.18-1.048-0.27-1.748-0.27c-0.71,0-1.295,0.09-1.755,0.27c-0.46,0.18-0.69,0.42-0.69,0.72
		c0,0.29,0.233,0.527,0.698,0.712s1.047,0.277,1.748,0.277c0.7,0,1.282-0.092,1.748-0.277C8.832,55.765,9.065,55.527,9.065,55.237z
		 M4.25,50.257v-1.53h4.695v1.53H4.25z M6.62,57.667c-0.47,0-0.87-0.02-1.2-0.06v1.29h2.355v-1.29
		C7.455,57.647,7.07,57.667,6.62,57.667z"/>
	<path d="M21.68,58.882c-1.41,0.19-3.04,0.335-4.89,0.435c-1.55,0.05-2.665,0.075-3.345,0.075l-0.21-1.62h2.61v-3.615h1.89v3.54
		c1.72-0.11,2.985-0.215,3.795-0.315L21.68,58.882z M21.2,49.867c0,2.61-0.155,4.61-0.465,6l-1.845-0.195
		c0.21-1.26,0.315-2.655,0.315-4.185h-5.16v-1.62H21.2z M25.865,55.507h-1.74v6.42H22.16V48.562h1.965v5.325h1.74V55.507z"/>
	<path d="M33.199,60.127v-8.685h-2.865v-1.605h7.875v1.605h-2.895v8.685H33.199z"/>
	<path d="M45.784,57.187l-1.185,1.545c-0.44-0.28-0.898-0.718-1.373-1.312c-0.475-0.595-0.788-1.172-0.938-1.733
		c-0.17,0.63-0.5,1.268-0.99,1.913s-1.025,1.133-1.605,1.462l-1.125-1.485c0.91-0.55,1.592-1.302,2.047-2.257
		s0.683-2.172,0.683-3.653v-1.815h1.98v1.785c0,1.47,0.21,2.632,0.63,3.487C44.329,55.979,44.953,56.667,45.784,57.187z
		 M47.674,61.327h-1.8v-6.585h-1.59v-1.665h1.59v-4.275h1.8V61.327z M50.374,61.927h-1.86V48.562h1.86V61.927z"/>
	<path d="M64.024,60.262H51.949v-1.545h5.055v-2.4h-3.975v-1.56h1.89l-0.42-2.88l1.965-0.195l0.27,3.075h2.52l0.3-3.06l1.965,0.21
		l-0.51,2.85h1.86v1.56h-3.9v2.4h5.055V60.262z M62.899,51.172h-9.885v-1.575h9.885V51.172z"/>
</g>
<g>
	<path d="M304.684,12.585V3.9h-2.865V2.295h7.875V3.9h-2.895v8.685H304.684z"/>
	<path d="M310.88,12.585v-7.77h1.89V5.73h0.075c0.21-0.3,0.495-0.54,0.854-0.72c0.36-0.18,0.745-0.27,1.155-0.27
		c0.25,0,0.399,0.02,0.45,0.06v1.74c-0.221-0.04-0.426-0.06-0.615-0.06c-0.689,0-1.305,0.16-1.845,0.48v5.625H310.88z"/>
	<path d="M319.984,12.72c-1.29,0-2.265-0.34-2.925-1.02c-0.66-0.68-0.99-1.65-0.99-2.91V8.595c0-1.25,0.335-2.215,1.005-2.895
		c0.67-0.68,1.55-1.02,2.64-1.02c1.16,0,2.008,0.32,2.543,0.96c0.535,0.64,0.803,1.595,0.803,2.865v0.72h-4.98
		c0.07,0.72,0.295,1.233,0.675,1.538c0.38,0.305,0.94,0.458,1.681,0.458c0.779,0,1.564-0.17,2.354-0.51V12
		C322.069,12.48,321.134,12.72,319.984,12.72z M319.669,6.075c-0.41,0-0.765,0.145-1.064,0.435s-0.476,0.77-0.525,1.44h3.045
		c0-0.67-0.12-1.15-0.359-1.44C320.524,6.22,320.159,6.075,319.669,6.075z"/>
	<path d="M327.334,14.805c-2.439,0-3.66-0.595-3.66-1.785c0-0.71,0.485-1.22,1.455-1.53v-0.075c-0.54-0.22-0.81-0.575-0.81-1.065
		c0-0.27,0.064-0.485,0.195-0.645c0.13-0.16,0.369-0.375,0.72-0.645c-0.66-0.39-0.99-1.005-0.99-1.845V7.11
		c0-0.8,0.282-1.405,0.848-1.815c0.564-0.41,1.337-0.615,2.317-0.615c0.46,0,0.885,0.045,1.275,0.135h2.654V6.03h-1.17
		c0.25,0.29,0.375,0.63,0.375,1.02v0.12c0,0.8-0.282,1.395-0.847,1.785c-0.565,0.39-1.328,0.585-2.288,0.585
		c-0.49,0-0.89-0.045-1.2-0.135c-0.149,0.13-0.225,0.25-0.225,0.36c0,0.18,0.042,0.29,0.127,0.33s0.258,0.06,0.518,0.06h2.16
		c1.71,0,2.565,0.68,2.565,2.04c0,0.81-0.335,1.447-1.005,1.913C329.68,14.573,328.674,14.805,327.334,14.805z M327.305,13.485
		c0.739,0,1.265-0.078,1.574-0.232c0.311-0.155,0.466-0.398,0.466-0.728c0-0.28-0.078-0.462-0.233-0.548
		c-0.154-0.084-0.457-0.127-0.907-0.127h-1.905c-0.47,0.16-0.704,0.45-0.704,0.87c0,0.28,0.127,0.478,0.382,0.592
		C326.231,13.428,326.674,13.485,327.305,13.485z M327.409,8.34c0.83,0,1.245-0.38,1.245-1.14V7.035c0-0.42-0.105-0.712-0.315-0.877
		s-0.52-0.248-0.93-0.248c-0.85,0-1.274,0.365-1.274,1.095v0.18C326.135,7.956,326.559,8.34,327.409,8.34z"/>
	<path d="M342.738,9.645l-1.185,1.545c-0.44-0.28-0.897-0.718-1.372-1.312c-0.476-0.595-0.788-1.172-0.938-1.733
		c-0.171,0.63-0.501,1.268-0.99,1.913c-0.49,0.645-1.025,1.133-1.605,1.462l-1.125-1.485c0.91-0.55,1.593-1.302,2.048-2.257
		s0.683-2.172,0.683-3.653V2.31h1.979v1.785c0,1.47,0.21,2.632,0.63,3.487C341.284,8.438,341.908,9.125,342.738,9.645z
		 M344.629,13.785h-1.8V7.2h-1.591V5.535h1.591V1.26h1.8V13.785z M347.329,14.385h-1.86V1.02h1.86V14.385z"/>
	<path d="M360.978,12.72h-12.074v-1.545h5.055v-2.4h-3.976v-1.56h1.891l-0.42-2.88l1.965-0.195l0.27,3.075h2.521l0.3-3.06
		l1.965,0.21l-0.51,2.85h1.86v1.56h-3.9v2.4h5.055V12.72z M359.853,3.63h-9.885V2.055h9.885V3.63z"/>
</g>
<g>
	<path d="M9.125,262.335l-1.11,1.59c-0.58-0.35-1.185-0.87-1.815-1.56c-0.63-0.69-1.045-1.34-1.245-1.95
		c-0.19,0.7-0.598,1.43-1.222,2.189c-0.625,0.761-1.253,1.311-1.883,1.65l-1.17-1.515c1.13-0.67,1.95-1.508,2.46-2.513
		c0.51-1.005,0.765-2.242,0.765-3.713v-0.06H1.34v-1.65h7.185v1.65h-2.58C5.945,259.235,7.005,261.195,9.125,262.335z
		 M11.525,253.575v5.04h1.8v1.62h-1.8v6.704h-1.95v-13.364H11.525z"/>
	<path d="M20.974,254.955c-0.06,2.069-0.562,3.915-1.507,5.535s-2.458,3-4.538,4.14l-1.11-1.56c1.43-0.67,2.595-1.593,3.495-2.768
		s1.42-2.413,1.56-3.713H14.63v-1.635H20.974z M26.36,260.25h-1.92v6.689h-1.98v-13.364h1.98v5.04h1.92V260.25z"/>
	<path d="M33.709,261.135h-6.255v-6.33h6.255V261.135z M38.254,266.61h-9.21v-4.186h2.025v2.64h7.185V266.61z M31.759,259.56v-3.18
		h-2.34v3.18H31.759z M36.064,257.31h-1.545v-1.545h1.545v-2.189h1.995v9.689h-1.995v-3.029h-1.545v-1.546h1.545V257.31z"/>
	<path d="M40.069,257.67c0-0.96,0.325-1.742,0.975-2.348c0.65-0.604,1.465-0.907,2.445-0.907c0.99,0,1.81,0.303,2.46,0.907
		c0.65,0.605,0.975,1.388,0.975,2.348c0,0.97-0.328,1.763-0.982,2.378c-0.655,0.614-1.473,0.922-2.452,0.922
		c-0.99,0-1.808-0.308-2.453-0.922C40.391,259.433,40.069,258.64,40.069,257.67z M41.599,261.915h9.465v5.04h-2.025v-3.48h-7.44
		V261.915z M42.364,256.492c-0.291,0.285-0.435,0.678-0.435,1.178s0.145,0.893,0.435,1.178c0.29,0.285,0.665,0.427,1.125,0.427
		c0.459,0,0.837-0.142,1.132-0.427s0.442-0.678,0.442-1.178c0-0.49-0.15-0.88-0.45-1.17c-0.3-0.29-0.675-0.436-1.125-0.436
		C43.029,256.064,42.654,256.207,42.364,256.492z M47.344,259.86l0.045-1.695h1.65v-1.275h-1.65l-0.045-1.68h1.695v-1.635h2.025
		v7.814h-2.025v-1.529H47.344z"/>
	<path d="M53.523,255.81v-1.574h7.035v1.574h-2.34c0.23,1.49,1.15,2.49,2.76,3l-1.095,1.516c-0.47-0.15-0.97-0.458-1.5-0.923
		c-0.53-0.465-0.945-0.973-1.245-1.522c-0.19,0.66-0.565,1.245-1.125,1.755s-1.17,0.87-1.83,1.08l-1.215-1.515
		c0.93-0.33,1.65-0.768,2.16-1.312c0.51-0.545,0.81-1.238,0.9-2.078H53.523z M64.398,266.835h-9.285v-3.615h6.9v-0.66h-6.975V261
		h8.985v3.645h-6.915v0.63h7.29V266.835z M64.023,260.445h-2.01v-6.87h2.01V260.445z"/>
	<path d="M74.028,262.86c-2.57,0.31-5.24,0.465-8.01,0.465c-0.12-0.7-0.205-1.226-0.255-1.575c1.04,0,2.07-0.015,3.09-0.045v-0.525
		c-0.67-0.109-1.197-0.322-1.583-0.638c-0.385-0.314-0.577-0.688-0.577-1.117c0-0.57,0.297-1.035,0.893-1.395
		c0.595-0.36,1.372-0.54,2.333-0.54c0.96,0,1.74,0.18,2.34,0.54c0.6,0.359,0.9,0.83,0.9,1.409c0,0.44-0.208,0.818-0.623,1.133
		c-0.415,0.315-0.973,0.527-1.672,0.638v0.405c1.11-0.08,2.13-0.175,3.06-0.285C73.953,261.67,73.988,262.18,74.028,262.86z
		 M73.698,257.28h-7.575v-1.455h7.575V257.28z M76.668,266.82h-9.315v-3.091h1.98v1.545h7.335V266.82z M68.148,255.39v-1.395h3.705
		v1.395H68.148z M71.193,259.439c0-0.409-0.425-0.614-1.275-0.614c-0.86,0-1.29,0.205-1.29,0.614c0,0.16,0.11,0.296,0.33,0.405
		c0.22,0.11,0.54,0.165,0.96,0.165c0.42,0,0.737-0.055,0.952-0.165C71.085,259.735,71.193,259.6,71.193,259.439z M76.593,253.575
		v4.545h1.53v1.62h-1.53v4.335h-1.965v-10.5H76.593z"/>
</g>
<g>
	<path d="M180.617,254.58c-0.04,1.01-0.25,1.945-0.63,2.805c-0.38,0.86-0.873,1.583-1.478,2.168
		c-0.605,0.585-1.255,1.069-1.95,1.455c-0.695,0.385-1.417,0.667-2.167,0.847l-0.81-1.59c1.2-0.26,2.255-0.77,3.165-1.529
		c0.91-0.761,1.47-1.601,1.68-2.521h-4.23v-1.635H180.617z M184.981,266.564h-9.18v-4.215h1.98v2.67h7.2V266.564z M184.726,263.265
		h-2.025v-4.319h-2.25v-1.62h2.25v-3.75h2.025V263.265z"/>
	<path d="M193.426,254.49c-0.07,1.8-0.645,3.284-1.725,4.455c-1.08,1.17-2.59,2.02-4.53,2.55l-0.765-1.575
		c1.23-0.25,2.305-0.737,3.225-1.463c0.92-0.725,1.44-1.507,1.56-2.347h-4.125v-1.62H193.426z M196.051,262.155
		c0.81,0.5,1.215,1.175,1.215,2.024c0,0.851-0.405,1.525-1.215,2.025s-1.945,0.75-3.405,0.75c-1.44,0-2.56-0.25-3.36-0.75
		c-0.8-0.5-1.2-1.175-1.2-2.025c0-0.85,0.402-1.524,1.208-2.024c0.805-0.5,1.922-0.75,3.352-0.75
		C194.106,261.405,195.241,261.655,196.051,262.155z M195.226,264.18c0-0.359-0.225-0.647-0.675-0.862s-1.085-0.322-1.905-0.322
		c-0.8,0-1.422,0.107-1.867,0.322c-0.445,0.215-0.667,0.503-0.667,0.862c0,0.37,0.222,0.663,0.667,0.878
		c0.445,0.215,1.067,0.322,1.867,0.322c0.82,0,1.455-0.107,1.905-0.322S195.226,264.55,195.226,264.18z M198.946,258.165h-1.86v3.06
		h-1.98v-7.649h1.98v2.984h1.86V258.165z"/>
</g>
<g>
	<path d="M302.075,257.505c0-0.92,0.333-1.673,0.998-2.258s1.498-0.877,2.498-0.877c1.01,0,1.85,0.292,2.52,0.877
		s1.005,1.338,1.005,2.258c0,0.93-0.335,1.692-1.005,2.287c-0.67,0.596-1.51,0.893-2.52,0.893c-1.01,0-1.845-0.297-2.505-0.893
		C302.405,259.197,302.075,258.435,302.075,257.505z M312.455,266.79h-8.835v-5.04h8.835V266.79z M304.43,256.402
		c-0.3,0.285-0.45,0.657-0.45,1.117s0.15,0.828,0.45,1.103c0.3,0.275,0.68,0.413,1.14,0.413c0.48,0,0.87-0.136,1.17-0.405
		c0.3-0.27,0.45-0.64,0.45-1.11c0-0.46-0.155-0.832-0.464-1.117c-0.31-0.285-0.695-0.428-1.155-0.428S304.73,256.117,304.43,256.402
		z M310.489,265.26v-2.01h-4.875v2.01H310.489z M314.239,258.255h-1.784v2.94h-1.98v-7.62h1.98v3.06h1.784V258.255z"/>
	<path d="M325.624,260.22h-6.42v-5.984h1.95v1.664h2.49v-1.649h1.979V260.22z M329.599,266.835h-9.135v-3.585h6.931v-0.705h-6.915
		v-1.56h8.895v3.689h-6.885v0.585h7.109V266.835z M323.644,258.645v-1.229h-2.49v1.229H323.644z M331.144,257.85h-1.771v2.596
		h-1.979v-6.87h1.979v2.64h1.771V257.85z"/>
	<path d="M338.569,259.35l-1.05,1.53c-0.44-0.189-0.893-0.51-1.357-0.96c-0.466-0.45-0.778-0.895-0.938-1.335
		c-0.21,0.58-0.548,1.135-1.013,1.665s-0.973,0.91-1.522,1.14l-1.096-1.545c0.851-0.37,1.498-0.938,1.943-1.702
		c0.444-0.766,0.667-1.628,0.667-2.588v-1.064h1.936v1.02c0,0.9,0.21,1.683,0.63,2.348S337.789,259.02,338.569,259.35z
		 M343.234,264.27c0,0.811-0.431,1.453-1.29,1.928c-0.86,0.475-2.03,0.713-3.51,0.713c-1.461,0-2.613-0.238-3.458-0.713
		s-1.268-1.117-1.268-1.928c0-0.8,0.423-1.435,1.268-1.904c0.845-0.471,1.997-0.705,3.458-0.705c1.479,0,2.649,0.234,3.51,0.705
		C342.804,262.835,343.234,263.47,343.234,264.27z M341.179,264.27c0-0.319-0.247-0.572-0.742-0.757
		c-0.495-0.186-1.162-0.277-2.002-0.277c-0.811,0-1.461,0.095-1.95,0.284c-0.49,0.19-0.735,0.44-0.735,0.75
		c0,0.341,0.245,0.607,0.735,0.803c0.489,0.195,1.14,0.293,1.95,0.293c0.85,0,1.52-0.098,2.01-0.293
		C340.933,264.877,341.179,264.61,341.179,264.27z M343.249,261.72h-1.859v-3.375h-0.9v2.805h-1.785v-7.335h1.785v2.971h0.9v-3.21
		h1.859V261.72z"/>
</g>
<g>
</g>
<g>
</g>
<g>
</g>
<g>
</g>
<g>
</g>
<g>
</g>
</svg>
