<?xml version="1.0" encoding="utf-8"?>
<!-- Generator: Adobe Illustrator 28.0.0, SVG Export Plug-In . SVG Version: 6.00 Build 0)  -->
<svg version="1.1" id="레이어_1" xmlns="http://www.w3.org/2000/svg" xmlns:xlink="http://www.w3.org/1999/xlink" x="0px"
	 y="0px" viewBox="0 0 212.329 137.417" enable-background="new 0 0 212.329 137.417" xml:space="preserve">
<g>
	<g>
		<path fill="#943838" d="M21.486,89.407c1.112-3.158,0.675-6.326-1.216-8.071c-0.427-0.394-1.151-0.922-2.291-1.225
			c0.926-0.689,1.988-1.679,2.867-3.07c3.004-4.755,1.344-10.19,1.003-11.236c1.204,0.063,3.001-0.021,4.934-0.833
			c4.984-2.094,6.581-7.222,6.83-8.069c0,0,1.534,1.667,4.073,1.742c-0.442,1.546-1.288,3.076-2.612,4.493
			c-2.936,3.143-6.708,6.44-8.252,10.775c-1.446,4.057-0.63,8.707-0.465,12.74c0.09,2.187-0.399,4.102-1.285,5.69
			C24.74,91.364,23.706,90.351,21.486,89.407z"/>
	</g>
	<g>
		<path fill="#6693CD" d="M53.298,83.311l-20.991-7.479c-0.674-0.24-1.382-0.374-2.097-0.396l-10.551-0.329l0.11-3.521l9.129,0.285
			c-1.648-3.939-3.41-8.683-3.501-8.929l3.303-1.225c0.02,0.054,1.508,4.061,3.007,7.726c0.742,1.814,2.219,3.226,4.064,3.884
			l18.711,6.667L53.298,83.311z"/>
	</g>
	<g>
		<g>
			<path fill="#F05555" d="M51.778,87.578l-18.859-6.72c-1.991-0.709-4.167-0.697-6.128,0.033l-6.079,2.266l1.321,3.304l6.079-2.266
				c1.16-0.432,2.447-0.439,3.624-0.02l18.859,6.72L51.778,87.578z"/>
		</g>
	</g>
	<g>
		<path fill="#B85252" d="M21.441,45.87c1.988-0.416,3.956-0.536,5.829-0.373c7.477,0.652,12.167,7.026,10.417,13.146
			c-2.539-0.075-4.073-1.742-4.073-1.742c-0.249,0.846-1.846,5.974-6.83,8.069c-1.934,0.813-3.731,0.897-4.934,0.833
			c0.341,1.046,2.002,6.482-1.003,11.236c-0.879,1.391-1.941,2.381-2.867,3.07c1.14,0.304,1.864,0.831,2.291,1.225
			c1.891,1.746,2.328,4.913,1.216,8.071c2.22,0.944,3.253,1.957,3.587,2.934c-2.962,5.31-10.426,6.934-16.081,2.551
			c-4.361-3.38-7.364-8.075-8.494-13.725c1.222-0.055,2.172-0.234,2.816-0.385C13.951,78.28,22.347,64.267,21.441,45.87z"/>
	</g>
	<g>
		<path fill="#D85D5D" d="M2.113,64.583c4.02-11.282,11.813-17.14,19.327-18.713c0.906,18.397-7.49,32.409-18.127,34.912
			c-0.644,0.151-1.594,0.33-2.816,0.385C-0.48,76.277-0.056,70.672,2.113,64.583z"/>
	</g>
	<g>
		<g>
			<g>
				<path fill="#F38299" d="M9.522,58.677c-0.697,1.359-1.09,2.554-1.314,3.353L9.522,58.677z"/>
			</g>
			<g>
				<path fill="#F38299" d="M7.365,61.793l1.687,0.472c0.308-1.099,0.728-2.172,1.25-3.189l-1.559-0.8
					C8.168,59.398,7.704,60.581,7.365,61.793z"/>
			</g>
		</g>
		<g>
			<g>
				<path fill="#F38299" d="M18.595,50.394c-1.442,0.583-3.75,1.734-5.939,3.948c-0.573,0.58-1.077,1.171-1.52,1.758L18.595,50.394z
					"/>
			</g>
			<g>
				<path fill="#F38299" d="M10.437,55.573l1.398,1.055c0.443-0.586,0.929-1.149,1.444-1.67c1.606-1.625,3.505-2.887,5.644-3.752
					l-0.656-1.624c-2.362,0.955-4.46,2.349-6.234,4.144C11.463,54.303,10.926,54.925,10.437,55.573z"/>
			</g>
		</g>
	</g>
</g>
<g>
	<g>
		<path fill="#FCCCB1" d="M165.257,82.933c0,0,11.517-8.611,15.378,3.131c3.861,11.742,22.761-14.315,22.761-14.315l0.447-19.736
			l-24.827,1.163l-7.381-2.004l-7.045-2.125l-5.256,5.447l0.895,16.472L165.257,82.933z"/>
	</g>
	<g>
		<g>
			<g>
				<path fill="#F9B693" d="M193.419,70.439c-0.214,0-0.428-0.078-0.595-0.234c-0.338-0.313-1.094-0.866-2.366-1.055
					c-1.804-0.27-3.403,0.357-4.008,0.638l-0.739-1.589c0.748-0.348,2.73-1.119,5.004-0.783c0.45,0.067,0.855,0.168,1.218,0.29
					c-0.01-0.442,0.047-0.93,0.213-1.453c0.46-1.457,1.541-2.475,2.144-2.951l1.086,1.375c-0.446,0.352-1.24,1.093-1.56,2.104
					c-0.343,1.088,0.054,1.897,0.322,2.282c0.255,0.367,0.193,0.868-0.145,1.161C193.829,70.368,193.624,70.439,193.419,70.439z"/>
			</g>
		</g>
		<g>
			<g>
				<path fill="#F9B693" d="M171.697,71.101c-1.049,0-2.292-0.231-3.783-0.867l0.688-1.612c3.196,1.364,4.825,0.503,6.135-0.188
					l0.213-0.112c1.055-0.55,1.65-1.249,2.339-2.059c0.781-0.918,1.666-1.957,3.314-2.793c2.581-1.31,5.053-1.394,6.631-1.247
					c0.319-0.873,0.879-1.923,1.865-2.874c1.314-1.268,2.762-1.763,3.747-1.955l0.335,1.72c-0.616,0.12-1.806,0.474-2.865,1.496
					c-0.991,0.957-1.425,2.045-1.614,2.79c-0.112,0.44-0.539,0.725-0.988,0.649c-1.243-0.198-3.717-0.335-6.319,0.984
					c-1.334,0.677-2.033,1.498-2.773,2.367c-0.74,0.87-1.506,1.769-2.864,2.477l-0.204,0.107
					C174.641,70.465,173.436,71.101,171.697,71.101z"/>
			</g>
		</g>
		<g>
			<g>
				<path fill="#F9B693" d="M173.599,76.873c-0.263,0-0.529-0.009-0.795-0.029l0.127-1.748c1.341,0.099,2.624-0.097,3.824-0.575
					c2.969-1.184,4.381-3.745,4.851-4.791l1.599,0.717c-0.557,1.241-2.237,4.28-5.8,5.701
					C176.196,76.631,174.919,76.873,173.599,76.873z"/>
			</g>
		</g>
		<g>
			<g>
				<path fill="#F9B693" d="M170.218,64.638c-1.955,0-3.465-0.743-4.116-1.127l0.891-1.508c0.649,0.384,2.393,1.225,4.547,0.734
					c1.695-0.386,2.788-1.41,3.288-1.986l1.323,1.149c-0.641,0.737-2.041,2.049-4.223,2.545
					C171.331,64.582,170.758,64.638,170.218,64.638z"/>
			</g>
		</g>
		<g>
			<g>
				<path fill="#F9B693" d="M177.594,82.647c-0.446-0.543-1.218-1.271-2.364-1.659c-2.177-0.737-4.11,0.281-4.65,0.611l-1.085-1.777
					c0.736-0.448,3.371-1.832,6.403-0.806c1.611,0.546,2.687,1.557,3.305,2.309L177.594,82.647z"/>
			</g>
		</g>
	</g>
	<g>
		<path fill="#F38299" d="M211.123,46.055c-0.991-1.35-2.846-1.821-4.512-1.043c-0.256-0.336-1.547-1.96-3.633-2.087
			c-1.993-0.121-3.925,1.173-4.946,3.305c-0.149-0.142-1.614-1.487-3.555-0.957c-2.096,0.573-2.814,2.806-2.86,2.957
			c-0.504-0.451-3.219-2.792-7.033-2.261c-3.222,0.448-5.186,2.661-5.719,3.304c-0.746-0.688-2.39-2.008-4.792-2.435
			c-1.642-0.292-3.012-0.055-3.864,0.174c-0.861-2.874-3.145-4.82-5.642-4.87c-2.975-0.06-4.771,2.601-4.946,2.87
			c-0.326-0.108-2.731-0.86-4.328,0.609c-1.81,1.664-2.083,5.719,0.309,8.957c-0.39,0.41-1.331,1.516-1.546,3.218
			c-0.272,2.156,0.73,4.391,2.55,5.739c-0.241,0.297-1.237,1.59-1.237,3.565c0.001,2.209,1.249,3.591,1.468,3.826
			c-0.32,0.452-1.244,1.875-1.236,3.913c0.01,3.027,2.063,4.828,2.319,5.044c-0.579,4.374,1.473,7.601,3.478,7.827
			c1.767,0.199,3.273-1.959,3.478-2.261c3.324,0.364,4.973,0.103,5.476-2.767c0.308-1.76-2.051-3.87-2.152-3.929
			c0.447-0.549,0.662-1.079,0.773-1.478c0.509-1.837-0.314-4.056-2.009-5.739c0.894-1.027,1.196-2.52,0.773-3.826
			c-0.561-1.73-2.099-2.219-2.241-2.261c0.363-0.96,1.042-3.137,0.619-5.827c-0.194-1.229-0.565-2.225-0.911-2.957
			c0.424-0.06,0.869-0.19,1.323-0.429c0.66-0.347,1.154-0.823,1.528-1.325c0.563,0.638,1.396,1.349,2.543,1.754
			c1.714,0.606,3.167,0.189,3.71,0c0.077,0.144,1.212,2.187,3.401,2.261c1.991,0.067,3.19-1.553,3.323-1.739
			c0.345,0.366,1.52,1.521,3.323,1.652c2.485,0.181,4.108-1.732,4.328-2c0.712,0.47,1.816,1.058,3.246,1.304
			c2.679,0.462,5.269-0.804,6.112-1.28c0,0-0.006-0.009-0.009-0.014c0.899,1.118,2.43,1.595,3.944,1.12
			c-0.787,0.377-1.327,0.862-1.701,1.305c-1.887,2.236-1.952,6.259-0.386,10.261c-0.587,0.145-1.622,0.505-2.55,1.478
			c-2.023,2.119-1.742,5.255-1.7,5.652c-0.301-0.168-2.068-1.116-4.096-0.261c-1.621,0.683-2.409,2.095-2.628,2.522
			c-1.347-1.845-3.495-2.662-5.487-2.087c-2.7,0.779-3.641,3.688-3.71,3.913c-0.675,0.461-1.975,1.508-2.705,3.391
			c-1.049,2.708-0.486,6.027,1.391,8.609c-0.137,0.167-1.543,1.945-1.082,4.348c0.341,1.775,1.569,3.2,3.169,3.685
			c-0.108,0.611-0.195,1.299-0.232,2.055c-0.08,1.62,0.093,3.015,0.309,4.087l3.112-0.012c-0.678-2.12,0.052-3.4,0.551-4.38
			c0.233-0.458,0.571-0.842,0.974-1.113c4.895-3.3,2.783-10.757,2.783-10.757c1.092-0.485,1.624-1.437,1.778-1.739
			c0.318,0.255,1.937,1.495,4.019,1.044c1.942-0.42,3.529-2.147,4.096-4.435c2.522,0.629,5.038-0.286,6.415-2.348
			c1.126-1.686,1.116-3.578,1.082-4.261c0.452-0.162,1.751-0.702,2.55-2.174c0.96-1.769,0.808-4.166-0.386-6.087
			c0.294-0.134,1.668-0.8,2.319-2.522c0.88-2.33-0.373-4.459-0.464-4.609c0.541-0.757,1.35-2.107,1.729-4
			c0.701-3.494-0.562-6.323-0.956-7.131C212.11,50.766,212.39,47.782,211.123,46.055z"/>
	</g>
	<g>
		<path fill="#F6A2B8" d="M211.476,45.796c-1.073-1.463-2.98-1.978-4.732-1.316c-0.61-0.713-1.883-1.88-3.739-1.993
			c-1.996-0.122-3.965,1.068-5.114,3.068c-0.654-0.461-1.954-1.135-3.53-0.706c-1.668,0.456-2.546,1.851-2.926,2.659
			c-1.151-0.892-3.669-2.427-6.911-1.974c-2.782,0.387-4.682,1.994-5.7,3.117c-1.034-0.876-2.607-1.877-4.674-2.245
			c-1.213-0.216-2.439-0.188-3.651,0.083c-0.997-2.828-3.334-4.733-5.924-4.786c-0.036,0-0.071-0.001-0.106-0.001
			c-2.676,0-4.446,2.024-5.026,2.8c-0.865-0.228-2.956-0.577-4.448,0.794c-1.9,1.747-2.297,5.825,0.046,9.249
			c-0.53,0.627-1.234,1.713-1.421,3.194c-0.272,2.154,0.656,4.414,2.381,5.874c-0.447,0.656-1.071,1.863-1.07,3.486
			c0.001,1.898,0.864,3.245,1.357,3.859c-0.491,0.775-1.132,2.124-1.125,3.882c0.01,2.803,1.655,4.616,2.294,5.215
			c-0.286,2.542,0.278,4.988,1.524,6.583c0.685,0.876,1.526,1.411,2.367,1.506c1.735,0.195,3.162-1.452,3.736-2.234
			c2.882,0.298,5.114,0.182,5.698-3.154c0.278-1.592-1.252-3.352-1.994-4.064c0.274-0.404,0.477-0.841,0.605-1.302
			c0.517-1.865-0.191-4.09-1.852-5.886c0.794-1.116,1.036-2.617,0.61-3.932c-0.458-1.414-1.503-2.092-2.103-2.376
			c0.46-1.362,0.859-3.344,0.497-5.644c-0.155-0.984-0.443-1.934-0.845-2.837c0.198-0.071,0.398-0.154,0.6-0.26
			c0.614-0.323,1.098-0.744,1.479-1.197c0.485,0.651,1.224,1.308,2.67,1.818c1.497,0.529,2.839,0.339,3.659,0.108
			c0.443,0.67,1.619,2.112,3.583,2.178c0.046,0.002,0.091,0.003,0.136,0.003c1.599,0,2.706-0.947,3.238-1.533
			c0.663,0.598,1.767,1.334,3.256,1.442c2.197,0.163,3.798-1.199,4.439-1.868c0.974,0.589,2.012,0.981,3.092,1.168
			c2.563,0.443,5-0.511,6.136-1.124c0.633,0.623,1.46,1.013,2.353,1.112c-0.142,0.135-0.276,0.278-0.403,0.428
			c-1.891,2.239-2.12,6.138-0.628,10.257c-0.869,0.295-1.654,0.795-2.291,1.463c-1.636,1.714-1.865,4.028-1.857,5.257
			c-0.849-0.32-2.256-0.615-3.793,0.033c-1.245,0.525-2.045,1.436-2.517,2.158c-1.461-1.629-3.576-2.309-5.55-1.74
			c-2.649,0.765-3.714,3.352-3.959,4.058c-0.9,0.64-2.062,1.75-2.743,3.509c-1.062,2.741-0.577,6.069,1.26,8.762
			c-0.443,0.648-1.379,2.321-0.972,4.437c0.347,1.809,1.521,3.268,3.106,3.894c-0.089,0.577-0.148,1.161-0.177,1.741
			c-0.069,1.4,0.038,2.812,0.317,4.196l0.859-0.174c-0.265-1.313-0.366-2.651-0.301-3.979c0.033-0.667,0.108-1.34,0.225-1.999
			c0.039-0.219-0.092-0.432-0.304-0.496c-1.456-0.441-2.554-1.724-2.865-3.348c-0.42-2.186,0.845-3.81,0.991-3.988
			c0.126-0.154,0.132-0.374,0.015-0.535c-1.815-2.498-2.327-5.637-1.337-8.193c0.632-1.631,1.732-2.634,2.544-3.188
			c0.082-0.056,0.142-0.139,0.172-0.234c0.036-0.118,0.912-2.898,3.413-3.62c1.811-0.522,3.777,0.233,5.012,1.924
			c0.089,0.122,0.234,0.19,0.388,0.178c0.151-0.012,0.286-0.101,0.355-0.237c0.319-0.622,1.057-1.749,2.409-2.318
			c1.736-0.732,3.28-0.002,3.712,0.24c0.142,0.08,0.318,0.073,0.455-0.017c0.136-0.09,0.211-0.249,0.194-0.411
			c-0.057-0.549-0.25-3.386,1.582-5.304c0.803-0.841,1.715-1.202,2.339-1.356c0.122-0.03,0.226-0.112,0.284-0.224
			c0.058-0.112,0.065-0.243,0.019-0.361c-1.534-3.922-1.412-7.776,0.313-9.819c0.421-0.498,0.944-0.9,1.555-1.193
			c0.207-0.099,0.303-0.342,0.219-0.556c-0.085-0.214-0.32-0.326-0.539-0.257c-1.474,0.462-3.013-0.098-3.74-1.365
			c-0.632-1.102-0.448-2.336-0.339-2.816l-0.855-0.193c-0.131,0.58-0.352,2.076,0.434,3.445c0.027,0.047,0.059,0.088,0.088,0.133
			c-1.234,0.637-3.313,1.322-5.43,0.956c-1.08-0.186-2.116-0.603-3.079-1.238c-0.187-0.124-0.438-0.086-0.58,0.087
			c-0.276,0.336-1.753,2-3.958,1.841c-1.501-0.109-2.547-0.997-3.037-1.516c-0.09-0.095-0.214-0.139-0.349-0.137
			c-0.13,0.009-0.251,0.076-0.327,0.183c-0.115,0.163-1.161,1.558-2.849,1.558c-0.034,0-0.068-0.001-0.103-0.002
			c-1.957-0.066-2.986-1.95-3.029-2.03c-0.101-0.19-0.326-0.279-0.53-0.207c-0.645,0.224-1.945,0.521-3.42,0.001
			c-1.426-0.504-2.053-1.186-2.425-1.754c0.654-1.106,0.818-2.188,0.842-2.375l-0.869-0.11c-0.013,0.105-0.349,2.59-2.397,3.667
			c-2.06,1.082-3.942-0.257-4.021-0.314l-0.515,0.708c0.069,0.05,1.264,0.901,2.864,0.901c0.198,0,0.404-0.019,0.613-0.048
			c0.406,0.876,0.695,1.801,0.846,2.761c0.371,2.351-0.119,4.345-0.595,5.603c-0.043,0.114-0.037,0.24,0.017,0.349
			c0.054,0.109,0.151,0.19,0.268,0.225c0.148,0.044,1.463,0.474,1.95,1.976c0.375,1.158,0.106,2.494-0.687,3.404
			c-0.152,0.174-0.142,0.435,0.021,0.598c1.604,1.593,2.349,3.679,1.896,5.312c-0.131,0.474-0.363,0.918-0.69,1.318
			c-0.081,0.099-0.131,0.218-0.108,0.344c0.023,0.126,0.083,0.225,0.194,0.29c0.284,0.219,2.218,2.102,1.974,3.497
			c-0.431,2.46-1.682,2.769-4.996,2.407c-0.159-0.015-0.319,0.055-0.41,0.189c-0.156,0.23-1.581,2.235-3.066,2.072
			c-0.606-0.068-1.236-0.485-1.775-1.175c-1.142-1.461-1.635-3.764-1.318-6.16c0.02-0.148-0.037-0.295-0.151-0.391
			c-0.36-0.305-2.154-1.964-2.164-4.711c-0.006-1.755,0.722-3.046,1.156-3.659c0.12-0.169,0.104-0.4-0.037-0.552
			c-0.317-0.34-1.35-1.597-1.351-3.528c-0.001-1.705,0.796-2.868,1.138-3.289c0.076-0.093,0.11-0.212,0.095-0.331
			c-0.015-0.118-0.078-0.226-0.174-0.297c-1.694-1.255-2.627-3.348-2.377-5.333c0.186-1.474,0.975-2.494,1.429-2.97
			c0.147-0.154,0.161-0.391,0.035-0.562c-2.258-3.056-2.005-6.867-0.365-8.375c1.371-1.261,3.484-0.651,3.895-0.515
			c0.189,0.062,0.395-0.01,0.504-0.176c0.181-0.276,1.822-2.672,4.482-2.672c0.03,0,0.059,0,0.089,0.001
			c2.327,0.047,4.429,1.878,5.231,4.558c0.068,0.227,0.306,0.359,0.533,0.297c1.219-0.327,2.455-0.382,3.675-0.166
			c2.098,0.373,3.644,1.471,4.571,2.326c0.089,0.082,0.205,0.119,0.326,0.115c0.12-0.008,0.231-0.065,0.308-0.158
			c0.674-0.813,2.553-2.748,5.443-3.15c3.441-0.476,5.982,1.527,6.681,2.153c0.112,0.1,0.266,0.137,0.411,0.096
			c0.144-0.04,0.258-0.152,0.301-0.295c0.027-0.087,0.669-2.145,2.556-2.661c1.697-0.465,2.995,0.715,3.138,0.851
			c0.102,0.097,0.246,0.139,0.381,0.113c0.138-0.025,0.255-0.115,0.316-0.242c0.941-1.966,2.708-3.164,4.525-3.056
			c1.801,0.11,2.99,1.494,3.311,1.915c0.124,0.164,0.347,0.218,0.533,0.131c1.452-0.676,3.085-0.305,3.973,0.906
			c1.074,1.464,0.975,4.187-0.885,5.754c-0.154,0.129-0.199,0.346-0.111,0.527c0.607,1.246,1.534,3.792,0.921,6.853
			c-0.28,1.396-0.837,2.685-1.656,3.832c-0.102,0.143-0.109,0.333-0.018,0.482c0.051,0.084,1.241,2.073,0.428,4.226
			c-0.547,1.447-1.644,2.075-2.09,2.278c-0.115,0.052-0.202,0.151-0.238,0.272c-0.036,0.121-0.019,0.251,0.047,0.358
			c1.116,1.794,1.262,4.011,0.374,5.647c-0.67,1.235-1.737,1.765-2.313,1.971c-0.182,0.065-0.299,0.241-0.29,0.434
			c0.043,0.864-0.031,2.532-1.009,3.996c-1.268,1.9-3.604,2.752-5.944,2.166c-0.112-0.027-0.232-0.01-0.332,0.05
			c-0.1,0.06-0.171,0.157-0.199,0.27c-0.525,2.117-2.002,3.731-3.764,4.112c-1.793,0.387-3.249-0.635-3.653-0.958
			c-0.104-0.082-0.238-0.112-0.366-0.086c-0.129,0.028-0.238,0.112-0.298,0.229c-0.208,0.408-0.689,1.149-1.565,1.538
			c-1.112,0.494-2.124,0.065-2.408-0.077l-0.394,0.782c0.241,0.122,0.888,0.402,1.714,0.402c0.297,0,0.618-0.041,0.95-0.133
			c0.344,1.621,1.188,7.19-2.713,9.821c-0.465,0.314-0.852,0.756-1.119,1.278c-0.484,0.948-1.185,2.886-0.444,5.203l0.834-0.267
			c-0.613-1.917-0.126-3.526,0.39-4.538c0.199-0.39,0.485-0.718,0.828-0.949c4.542-3.062,3.413-9.33,3.048-10.889
			c0.662-0.377,1.114-0.899,1.401-1.332c0.793,0.527,2.231,1.212,3.979,0.834c1.967-0.426,3.625-2.111,4.314-4.348
			c2.564,0.479,5.067-0.522,6.468-2.62c1.006-1.507,1.176-3.182,1.165-4.21c0.722-0.311,1.785-0.963,2.489-2.26
			c0.968-1.784,0.894-4.141-0.165-6.121c0.643-0.382,1.596-1.151,2.122-2.542c0.799-2.115,0.001-4.04-0.358-4.738
			c0.805-1.19,1.358-2.514,1.644-3.94c0.618-3.084-0.206-5.68-0.852-7.11C212.502,50.763,212.881,47.711,211.476,45.796z"/>
	</g>
</g>
<g>
	<g>
		<path fill="none" stroke="#000000" stroke-width="1.2309" stroke-miterlimit="10" d="M66.855,54.006
			c3.485-13.43,15.688-23.347,30.209-23.347c12.966,0,24.084,7.907,28.797,19.162"/>
		<g>
			<polygon points="122.621,50.003 127.273,54.006 128.414,47.976 			"/>
		</g>
	</g>
</g>
<g>
	<g>
		<path fill="none" stroke="#000000" stroke-width="1.2309" stroke-miterlimit="10" d="M127.273,82.614
			c-3.486,13.43-15.688,23.347-30.209,23.347c-12.966,0-24.084-7.907-28.797-19.162"/>
		<g>
			<polygon points="71.506,86.617 66.855,82.614 65.713,88.644 			"/>
		</g>
	</g>
</g>
<g>
	<path d="M72.104,64.152v-0.791h5.169v0.791h-2.07v0.261c0,0.636,0.222,1.204,0.667,1.706c0.444,0.503,0.959,0.84,1.544,1.014
		l-0.531,0.77c-0.434-0.174-0.853-0.446-1.257-0.818c-0.404-0.372-0.704-0.771-0.899-1.197c-0.151,0.447-0.448,0.889-0.888,1.321
		c-0.441,0.434-0.911,0.752-1.409,0.954l-0.575-0.748c0.65-0.23,1.208-0.626,1.674-1.187c0.466-0.56,0.699-1.157,0.699-1.793v-0.282
		H72.104z M79.527,70.339c0,0.571-0.284,1.019-0.851,1.344c-0.567,0.325-1.349,0.488-2.346,0.488s-1.779-0.163-2.346-0.488
		c-0.567-0.325-0.851-0.772-0.851-1.344c0-0.577,0.284-1.031,0.851-1.359c0.567-0.329,1.349-0.493,2.346-0.493
		s1.779,0.164,2.346,0.493C79.243,69.308,79.527,69.762,79.527,70.339z M78.54,70.339c0-0.339-0.197-0.602-0.59-0.785
		c-0.394-0.185-0.934-0.276-1.62-0.276c-0.687,0-1.225,0.092-1.615,0.276c-0.39,0.184-0.585,0.446-0.585,0.785
		c0,0.333,0.195,0.591,0.585,0.775c0.39,0.184,0.928,0.276,1.615,0.276c0.686,0,1.226-0.093,1.62-0.276
		C78.344,70.93,78.54,70.672,78.54,70.339z M80.827,66.005h-1.43v2.535h-0.954v-5.83h0.954v2.493h1.43V66.005z"/>
	<path d="M84.468,67.847v-0.791h3.565v0.791H84.468z"/>
	<path d="M97.634,67.371l-0.553,0.748c-0.463-0.195-0.912-0.501-1.35-0.916c-0.437-0.415-0.753-0.854-0.948-1.316
		c-0.145,0.498-0.438,0.991-0.883,1.479c-0.444,0.488-0.916,0.844-1.414,1.067l-0.585-0.747c0.672-0.282,1.236-0.735,1.695-1.36
		s0.688-1.299,0.688-2.021v-1.062h0.976v1.019c0,0.716,0.239,1.358,0.721,1.929C96.461,66.76,97.012,67.154,97.634,67.371z
		 M99.877,71.911h-6.383v-2.958h0.964v2.178h5.419V71.911z M99.671,69.592h-0.965V62.71h0.965V69.592z"/>
	<path d="M101.296,64.152v-0.791h5.169v0.791h-2.07v0.261c0,0.636,0.223,1.204,0.667,1.706c0.444,0.503,0.959,0.84,1.544,1.014
		l-0.531,0.77c-0.433-0.174-0.853-0.446-1.257-0.818s-0.704-0.771-0.899-1.197c-0.151,0.447-0.448,0.889-0.889,1.321
		c-0.44,0.434-0.91,0.752-1.408,0.954l-0.574-0.748c0.649-0.23,1.208-0.626,1.674-1.187c0.466-0.56,0.699-1.157,0.699-1.793v-0.282
		H101.296z M108.719,70.339c0,0.571-0.283,1.019-0.851,1.344s-1.35,0.488-2.346,0.488c-0.997,0-1.779-0.163-2.347-0.488
		s-0.851-0.772-0.851-1.344c0-0.577,0.283-1.031,0.851-1.359c0.567-0.329,1.35-0.493,2.347-0.493c0.996,0,1.778,0.164,2.346,0.493
		C108.436,69.308,108.719,69.762,108.719,70.339z M107.733,70.339c0-0.339-0.196-0.602-0.591-0.785
		c-0.394-0.185-0.934-0.276-1.619-0.276c-0.687,0-1.225,0.092-1.615,0.276c-0.39,0.184-0.585,0.446-0.585,0.785
		c0,0.333,0.195,0.591,0.585,0.775c0.391,0.184,0.929,0.276,1.615,0.276c0.686,0,1.226-0.093,1.619-0.276
		C107.536,70.93,107.733,70.672,107.733,70.339z M110.02,66.005h-1.431v2.535h-0.954v-5.83h0.954v2.493h1.431V66.005z"/>
	<path d="M114.473,69.202h2.796v-0.867h-3.771v-0.779h8.55v0.779h-3.814v0.867h2.72v3.023h-0.965v-2.243h-5.516V69.202z
		 M121.625,66.297l-0.401,0.791c-0.722-0.079-1.416-0.267-2.08-0.563c-0.665-0.296-1.123-0.643-1.376-1.04
		c-0.246,0.419-0.688,0.771-1.328,1.057c-0.639,0.285-1.342,0.464-2.107,0.536l-0.423-0.78c0.795-0.036,1.516-0.191,2.162-0.466
		s1.038-0.617,1.176-1.029h-2.872v-0.77h6.784v0.77h-2.85c0.144,0.404,0.549,0.746,1.213,1.024
		C120.188,66.105,120.889,66.261,121.625,66.297z M119.295,63.491h-3.066v-0.78h3.066V63.491z"/>
</g>
<g>
	<path d="M85.855,122.127h-8.55v-0.78h2.048v-1.68l0.964-0.032v1.712h2.503v-1.712l0.954,0.032v1.68h2.081V122.127z M84.137,115.166
		c0.646,0.451,0.97,1.045,0.97,1.782c0,0.736-0.323,1.329-0.97,1.777s-1.501,0.672-2.563,0.672c-1.055,0-1.905-0.224-2.552-0.672
		s-0.97-1.041-0.97-1.777c0-0.737,0.323-1.331,0.97-1.782c0.646-0.452,1.497-0.678,2.552-0.678
		C82.636,114.488,83.49,114.713,84.137,115.166z M84.121,116.948c0-0.499-0.233-0.901-0.699-1.208
		c-0.466-0.308-1.082-0.461-1.848-0.461s-1.38,0.153-1.842,0.461c-0.462,0.307-0.694,0.709-0.694,1.208
		c0,0.491,0.233,0.891,0.699,1.197c0.466,0.308,1.078,0.461,1.836,0.461c0.766,0,1.382-0.153,1.848-0.461
		C83.888,117.838,84.121,117.439,84.121,116.948z"/>
	<path d="M94.189,117.457h-2.764v1.084h3.803v0.78h-8.55v-0.78h3.782v-1.084h-2.655v-3.207h6.317v0.78h-5.363v1.658h5.43V117.457z
		 M87.664,120.199h6.448v3.175h-0.965v-2.405h-5.483V120.199z"/>
	<path d="M106.411,117.457h-2.764v1.084h3.804v0.78h-8.55v-0.78h3.781v-1.084h-2.654v-3.207h6.317v0.78h-5.364v1.658h5.43V117.457z
		 M99.887,120.199h6.448v3.175h-0.965v-2.405h-5.483V120.199z"/>
	<path d="M116.824,122.127h-8.55v-0.78h3.771v-2.352h0.965v2.352h3.814V122.127z M116.521,118.464L116,119.223
		c-0.744-0.209-1.45-0.574-2.118-1.095c-0.668-0.52-1.114-1.047-1.338-1.582c-0.188,0.542-0.618,1.071-1.29,1.588
		s-1.395,0.876-2.167,1.078l-0.487-0.78c0.838-0.145,1.623-0.529,2.356-1.154c0.733-0.624,1.1-1.312,1.1-2.064v-0.649h0.986v0.649
		c0,0.499,0.191,0.988,0.574,1.469s0.838,0.872,1.365,1.176S116.023,118.364,116.521,118.464z"/>
	<path d="M89.615,135.121v-7.282h0.953v6.47h3.208v0.812H89.615z"/>
	<path d="M94.979,135.121v-7.282h2.319c0.802,0,1.406,0.188,1.814,0.563c0.408,0.376,0.612,0.91,0.612,1.604
		c0,0.716-0.213,1.269-0.639,1.658c-0.427,0.391-0.99,0.585-1.691,0.585h-1.463v2.872H94.979z M95.932,131.458h1.258
		c0.534,0,0.921-0.111,1.159-0.336c0.238-0.224,0.357-0.57,0.357-1.04c0-0.513-0.113-0.878-0.341-1.095s-0.612-0.325-1.154-0.325
		h-1.279V131.458z"/>
	<path d="M104.352,134.682c-0.404,0.379-1.019,0.568-1.842,0.568s-1.521-0.159-2.092-0.477v-0.812
		c0.614,0.317,1.293,0.477,2.037,0.477c1.02,0,1.528-0.419,1.528-1.257c0-0.333-0.083-0.589-0.249-0.77s-0.466-0.347-0.899-0.499
		l-0.759-0.249c-0.521-0.173-0.912-0.413-1.176-0.721c-0.264-0.307-0.396-0.728-0.396-1.263c0-0.592,0.198-1.067,0.596-1.425
		s0.969-0.536,1.713-0.536c0.664,0,1.257,0.134,1.776,0.401v0.802c-0.577-0.261-1.181-0.391-1.81-0.391
		c-0.419,0-0.742,0.093-0.97,0.276c-0.228,0.185-0.341,0.446-0.341,0.786c0,0.332,0.07,0.585,0.211,0.758
		c0.141,0.174,0.402,0.325,0.786,0.456l0.747,0.249c0.585,0.188,1.022,0.434,1.312,0.736c0.289,0.304,0.434,0.741,0.434,1.312
		C104.959,133.777,104.757,134.302,104.352,134.682z"/>
</g>
<g>
	<path d="M85.855,8.225h-8.55v-0.78h2.048v-1.68l0.964-0.032v1.712h2.503V5.733l0.954,0.032v1.68h2.081V8.225z M84.137,1.263
		c0.646,0.452,0.97,1.046,0.97,1.783s-0.323,1.329-0.97,1.777c-0.646,0.448-1.501,0.672-2.563,0.672
		c-1.055,0-1.905-0.224-2.552-0.672c-0.646-0.448-0.97-1.04-0.97-1.777s0.323-1.331,0.97-1.783c0.646-0.451,1.497-0.677,2.552-0.677
		C82.636,0.585,83.49,0.812,84.137,1.263z M84.121,3.045c0-0.499-0.233-0.901-0.699-1.208c-0.466-0.307-1.082-0.46-1.848-0.46
		s-1.38,0.154-1.842,0.46c-0.462,0.307-0.694,0.71-0.694,1.208c0,0.491,0.233,0.89,0.699,1.197c0.466,0.307,1.078,0.46,1.836,0.46
		c0.766,0,1.382-0.153,1.848-0.46C83.888,3.936,84.121,3.537,84.121,3.045z"/>
	<path d="M94.189,3.555h-2.764v1.083h3.803v0.78h-8.55v-0.78h3.782V3.555h-2.655V0.347h6.317v0.78h-5.363v1.658h5.43V3.555z
		 M87.664,6.296h6.448v3.175h-0.965V7.065h-5.483V6.296z"/>
	<path d="M106.411,3.555h-2.764v1.083h3.804v0.78h-8.55v-0.78h3.781V3.555h-2.654V0.347h6.317v0.78h-5.364v1.658h5.43V3.555z
		 M99.887,6.296h6.448v3.175h-0.965V7.065h-5.483V6.296z"/>
	<path d="M116.824,8.225h-8.55v-0.78h3.771V5.093h0.965v2.352h3.814V8.225z M116.521,4.562L116,5.321
		c-0.744-0.209-1.45-0.574-2.118-1.094s-1.114-1.047-1.338-1.582c-0.188,0.542-0.618,1.071-1.29,1.587s-1.395,0.876-2.167,1.078
		L108.6,4.53c0.838-0.145,1.623-0.529,2.356-1.154s1.1-1.313,1.1-2.064v-0.65h0.986v0.65c0,0.499,0.191,0.988,0.574,1.468
		s0.838,0.873,1.365,1.176S116.023,4.461,116.521,4.562z"/>
	<path d="M92.752,18.412h-4.27v-4.822h0.965v1.625h2.352v-1.636h0.953V18.412z M91.799,17.642v-1.669h-2.352v1.669H91.799z
		 M96.09,22.139h-6.361v-2.893h0.954v2.113h5.407V22.139z M95.873,12.961v6.903h-0.965v-2.471h-1.636v-0.791h1.636v-1.29h-1.636
		v-0.791h1.636v-1.561H95.873z"/>
	<path d="M102.516,20.081h-4.573v-6.307h0.953v2.362h2.666v-2.373h0.954V20.081z M101.562,19.311v-2.395h-2.666v2.395H101.562z
		 M105.3,22.432h-0.964v-9.471h0.964V22.432z"/>
</g>
<g>
</g>
<g>
</g>
<g>
</g>
<g>
</g>
<g>
</g>
<g>
</g>
<g>
</g>
</svg>
