<?xml version="1.0" encoding="utf-8"?>
<!-- Generator: Adobe Illustrator 28.0.0, SVG Export Plug-In . SVG Version: 6.00 Build 0)  -->
<svg version="1.1" xmlns="http://www.w3.org/2000/svg" xmlns:xlink="http://www.w3.org/1999/xlink" x="0px" y="0px"
	 viewBox="0 0 476.518 337.71" enable-background="new 0 0 476.518 337.71" xml:space="preserve">
<g id="레이어_1">
	<path fill="none" stroke="#000000" stroke-miterlimit="10" d="M31.382,337.71"/>
</g>
<g id="격리_모드">
	<g>
		<g>
			<rect x="368.226" y="147.014" fill="#1D2088" width="20.129" height="11.248"/>
			
				<ellipse fill="none" stroke="#000000" stroke-width="0.7206" stroke-miterlimit="10" cx="378.291" cy="174.618" rx="9.484" ry="4.728"/>
			<ellipse fill="#E83929" cx="378.291" cy="129.06" rx="5.806" ry="11.086"/>
			<g>
				<path d="M398.727,132.654c-0.954,0-1.781-0.195-2.483-0.585v-0.871c0.745,0.381,1.561,0.571,2.444,0.571
					c0.649,0,1.133-0.138,1.449-0.416c0.316-0.276,0.475-0.662,0.475-1.156c0-0.434-0.11-0.765-0.331-0.995
					c-0.222-0.229-0.604-0.431-1.151-0.604l-0.845-0.299c-0.642-0.217-1.12-0.505-1.437-0.864s-0.475-0.855-0.475-1.488
					c0-0.702,0.232-1.264,0.695-1.684c0.464-0.421,1.138-0.631,2.021-0.631c0.755,0,1.461,0.16,2.119,0.481v0.871
					c-0.693-0.321-1.412-0.481-2.157-0.481c-0.529,0-0.938,0.121-1.229,0.364c-0.291,0.242-0.436,0.571-0.436,0.987
					s0.093,0.733,0.279,0.949c0.187,0.217,0.526,0.412,1.021,0.585l0.857,0.273c0.72,0.242,1.25,0.542,1.593,0.896
					c0.343,0.355,0.514,0.876,0.514,1.561c0,0.788-0.24,1.408-0.722,1.858C400.45,132.428,399.714,132.654,398.727,132.654z"/>
				<path d="M406.956,132.64c-1.274,0-2.267-0.357-2.977-1.072c-0.711-0.715-1.066-1.801-1.066-3.257v-0.233
					c0-0.789,0.11-1.478,0.331-2.067c0.222-0.589,0.527-1.053,0.917-1.391s0.823-0.587,1.3-0.748c0.477-0.16,1.001-0.24,1.573-0.24
					c0.841,0,1.599,0.169,2.274,0.507v0.897c-0.763-0.355-1.547-0.533-2.353-0.533c-1.014,0-1.757,0.318-2.229,0.955
					c-0.473,0.638-0.709,1.463-0.709,2.477v0.352c0,1.109,0.22,1.967,0.657,2.574c0.438,0.606,1.206,0.909,2.308,0.909
					c0.632,0,1.178-0.086,1.638-0.26v-2.379h-1.872v-0.858h2.886v3.888C408.758,132.48,407.866,132.64,406.956,132.64z"/>
				<path d="M411.635,132.498v-8.723h1.04v7.852h3.938v0.871H411.635z"/>
				<path d="M420.111,132.498v-7.853h-2.665v-0.87h6.344v0.87h-2.665v7.853H420.111z"/>
				<path d="M426.481,132.549v-7.734l-1.612,0.377v-0.599l2.054-0.962h0.547v8.918H426.481z"/>
			</g>
			<g>
				<path d="M400.404,154.627c-1.274,0-2.267-0.357-2.977-1.072c-0.711-0.715-1.066-1.801-1.066-3.257v-0.233
					c0-0.789,0.11-1.478,0.331-2.067c0.222-0.589,0.527-1.053,0.917-1.391s0.823-0.587,1.3-0.748c0.477-0.16,1.001-0.24,1.573-0.24
					c0.841,0,1.599,0.169,2.274,0.507v0.897c-0.763-0.355-1.547-0.533-2.353-0.533c-1.014,0-1.757,0.318-2.229,0.955
					c-0.473,0.638-0.709,1.463-0.709,2.477v0.352c0,1.109,0.22,1.967,0.657,2.574c0.438,0.606,1.206,0.909,2.308,0.909
					c0.632,0,1.178-0.086,1.638-0.26v-2.379h-1.872v-0.858h2.886v3.888C402.207,154.467,401.314,154.627,400.404,154.627z"/>
				<path d="M405.084,154.484v-8.723h1.04v7.852h3.938v0.871H405.084z"/>
				<path d="M414.82,154.641c-1.049,0-1.849-0.265-2.398-0.793c-0.551-0.529-0.825-1.326-0.825-2.393v-5.707h1.04v5.655
					c0,0.893,0.182,1.519,0.546,1.879c0.363,0.359,0.923,0.539,1.677,0.539s1.3-0.178,1.638-0.533s0.507-0.988,0.507-1.897v-5.643
					h0.962v5.694c0,1.101-0.26,1.909-0.779,2.425C416.666,154.383,415.878,154.641,414.82,154.641z"/>
				<path d="M422.048,154.484v-7.853h-2.665v-0.87h6.344v0.87h-2.665v7.853H422.048z"/>
				<path d="M426.897,154.484v-0.611l2.08-2.158c0.729-0.762,1.255-1.391,1.58-1.885c0.324-0.494,0.487-1.026,0.487-1.599
					c0-1.152-0.598-1.729-1.794-1.729c-0.615,0-1.266,0.239-1.95,0.715l-0.299-0.818c0.823-0.528,1.629-0.793,2.418-0.793
					c0.866,0,1.534,0.226,2.002,0.676c0.468,0.451,0.702,1.07,0.702,1.859c0,0.693-0.187,1.325-0.56,1.897
					c-0.372,0.572-0.992,1.3-1.858,2.185l-1.365,1.378h3.978v0.884H426.897z"/>
			</g>
			<g>
				<path d="M396.854,178.637v-8.723h1.222l4.199,6.98h0.039v-6.98h0.936v8.723h-1.065l-4.329-7.319h-0.039v7.319H396.854z"/>
				<path d="M406.917,178.754c-0.607,0-1.095-0.154-1.463-0.462s-0.553-0.756-0.553-1.346c0-1.101,0.654-1.725,1.963-1.872
					l1.742-0.208v-0.676c0-0.485-0.117-0.816-0.351-0.994c-0.234-0.178-0.65-0.267-1.248-0.267c-0.546,0-1.058,0.069-1.534,0.208
					v-0.715c0.563-0.234,1.204-0.352,1.924-0.352c1.474,0,2.21,0.633,2.21,1.898v4.667h-0.806l-0.104-0.56h-0.064
					C408.259,178.528,407.687,178.754,406.917,178.754z M407.163,177.974c0.65,0,1.132-0.156,1.443-0.468v-1.898l-1.481,0.169
					c-0.408,0.044-0.707,0.154-0.897,0.332s-0.286,0.448-0.286,0.812c0,0.347,0.108,0.608,0.325,0.786
					S406.782,177.974,407.163,177.974z"/>
				<path d="M412.379,173.808v-1.471h-1.44v-0.508h1.44v-1.485h0.538v1.485h1.409v0.508h-1.409v1.471H412.379z"/>
				<path d="M414.761,179.963l3.055-10.816h0.897l-3.056,10.816H414.761z"/>
				<path d="M420.169,178.637v-8.723h1.027v8.723H420.169z M425.07,178.637l-3.692-4.446l3.641-4.276h1.104l-3.536,4.173l3.692,4.55
					H425.07z"/>
				<path d="M428.48,173.808v-1.471h-1.44v-0.508h1.44v-1.485h0.538v1.485h1.409v0.508h-1.409v1.471H428.48z"/>
				<path d="M431.422,174.841v-0.858h4.29v0.858H431.422z"/>
				<path d="M436.609,178.637l3.198-8.723h1.001l3.185,8.723h-1.079l-0.923-2.548h-3.497l-0.896,2.548H436.609z M440.223,171.292
					l-1.431,3.926h2.873l-1.417-3.926H440.223z"/>
				<path d="M447.256,178.637v-7.853h-2.665v-0.87h6.344v0.87h-2.665v7.853H447.256z"/>
				<path d="M452.418,178.637v-8.723h2.69c0.971,0,1.699,0.221,2.185,0.662c0.485,0.442,0.728,1.079,0.728,1.911
					c0,0.841-0.251,1.493-0.754,1.957s-1.179,0.695-2.027,0.695h-1.781v3.497H452.418z M453.458,174.281h1.573
					c0.667,0,1.147-0.138,1.442-0.416c0.295-0.277,0.442-0.715,0.442-1.312c0-0.624-0.144-1.074-0.43-1.353
					c-0.285-0.276-0.779-0.416-1.481-0.416h-1.547V174.281z"/>
				<path d="M461.01,178.754c-0.607,0-1.095-0.154-1.463-0.462s-0.553-0.756-0.553-1.346c0-1.101,0.654-1.725,1.963-1.872
					l1.742-0.208v-0.676c0-0.485-0.117-0.816-0.351-0.994c-0.234-0.178-0.65-0.267-1.248-0.267c-0.546,0-1.058,0.069-1.534,0.208
					v-0.715c0.563-0.234,1.204-0.352,1.924-0.352c1.474,0,2.21,0.633,2.21,1.898v4.667h-0.806l-0.104-0.56h-0.064
					C462.353,178.528,461.781,178.754,461.01,178.754z M461.256,177.974c0.65,0,1.132-0.156,1.443-0.468v-1.898l-1.481,0.169
					c-0.408,0.044-0.707,0.154-0.897,0.332s-0.286,0.448-0.286,0.812c0,0.347,0.108,0.608,0.325,0.786
					S460.876,177.974,461.256,177.974z"/>
				<path d="M467.211,178.74c-0.85,0-1.543-0.151-2.08-0.455v-0.793c0.269,0.104,0.459,0.174,0.572,0.208
					c0.112,0.035,0.297,0.076,0.553,0.124c0.255,0.048,0.526,0.071,0.812,0.071c0.962,0,1.442-0.316,1.442-0.949
					c0-0.294-0.082-0.52-0.247-0.676c-0.164-0.156-0.455-0.294-0.871-0.416l-0.637-0.169c-0.52-0.147-0.912-0.353-1.177-0.617
					c-0.264-0.265-0.396-0.652-0.396-1.164c0-0.562,0.187-1.009,0.56-1.339c0.372-0.329,0.918-0.494,1.638-0.494
					c0.702,0,1.287,0.126,1.755,0.377v0.807c-0.45-0.226-1.019-0.338-1.703-0.338c-0.866,0-1.3,0.299-1.3,0.896
					c0,0.277,0.071,0.485,0.215,0.624c0.143,0.139,0.392,0.26,0.747,0.364l0.65,0.182c0.642,0.165,1.092,0.38,1.352,0.644
					c0.261,0.265,0.391,0.67,0.391,1.216c0,0.606-0.202,1.074-0.604,1.404C468.478,178.576,467.922,178.74,467.211,178.74z"/>
				<path d="M473.619,178.754c-0.996,0-1.755-0.286-2.274-0.858c-0.521-0.572-0.78-1.369-0.78-2.392v-0.183
					c0-1.065,0.269-1.874,0.806-2.424c0.538-0.551,1.205-0.826,2.002-0.826c1.733,0,2.601,1.01,2.601,3.029v0.559h-4.395
					c0.026,0.789,0.222,1.359,0.585,1.71c0.364,0.351,0.901,0.526,1.612,0.526c0.659,0,1.33-0.16,2.016-0.48v0.74
					C475.218,178.555,474.495,178.754,473.619,178.754z M473.346,172.878c-0.46,0-0.856,0.155-1.189,0.468
					c-0.334,0.312-0.526,0.819-0.579,1.521h3.354c0-0.692-0.13-1.197-0.39-1.514C474.282,173.036,473.883,172.878,473.346,172.878z"
					/>
			</g>
			<g>
				<path d="M400.861,206.102v-7.853h-2.665v-0.87h6.344v0.87h-2.665v7.853H400.861z"/>
				<path d="M405.879,198.366v-1.04h1.015v1.04H405.879z M405.892,206.102v-6.436h0.987v6.436H405.892z"/>
				<path d="M411.053,208.013c-0.962,0-1.684-0.133-2.165-0.396c-0.48-0.265-0.722-0.635-0.722-1.111
					c0-0.607,0.408-1.045,1.223-1.313v-0.065c-0.434-0.121-0.65-0.39-0.65-0.806c0-0.355,0.243-0.71,0.729-1.065
					c-0.538-0.355-0.807-0.893-0.807-1.612v-0.026c0-0.658,0.224-1.17,0.67-1.534c0.446-0.363,1.033-0.546,1.762-0.546
					c0.303,0,0.606,0.035,0.91,0.104h2.184v0.767h-1.157c0.312,0.295,0.468,0.689,0.468,1.184v0.013
					c0,0.667-0.225,1.179-0.676,1.534c-0.45,0.355-1.031,0.533-1.742,0.533c-0.39,0-0.758-0.061-1.104-0.183
					c-0.199,0.183-0.299,0.355-0.299,0.521c0,0.32,0.212,0.48,0.637,0.48h1.781c1.36,0,2.041,0.516,2.041,1.547
					c0,0.59-0.254,1.066-0.761,1.431C412.867,207.83,412.093,208.013,411.053,208.013z M411.027,207.232
					c1.378,0,2.067-0.355,2.067-1.066c0-0.294-0.087-0.5-0.261-0.617c-0.173-0.117-0.472-0.176-0.896-0.176h-1.859
					c-0.58,0.2-0.871,0.533-0.871,1.001C409.207,206.946,409.814,207.232,411.027,207.232z M411.079,202.891
					c0.945,0,1.417-0.416,1.417-1.248v-0.065c0-0.857-0.472-1.287-1.417-1.287c-0.441,0-0.791,0.113-1.046,0.339
					c-0.256,0.225-0.384,0.537-0.384,0.936v0.065c0,0.416,0.128,0.729,0.384,0.942C410.288,202.784,410.637,202.891,411.079,202.891
					z"/>
				<path d="M415.382,206.102v-9.308h0.987v3.419h0.065c0.624-0.451,1.348-0.677,2.171-0.677c0.642,0,1.113,0.142,1.417,0.423
					s0.455,0.73,0.455,1.346v4.797h-0.988v-4.603c0-0.398-0.091-0.682-0.272-0.851c-0.183-0.17-0.524-0.254-1.027-0.254
					c-0.555,0-1.161,0.16-1.82,0.48v5.227H415.382z"/>
				<path d="M424.391,206.18c-1.118,0-1.677-0.512-1.677-1.534v-4.16h-0.924v-0.819h0.924v-1.533h0.987v1.533h1.651v0.819h-1.651
					v4.004c0,0.321,0.067,0.546,0.202,0.676c0.134,0.131,0.383,0.195,0.747,0.195c0.295,0,0.572-0.039,0.832-0.117v0.677
					C425.101,206.093,424.738,206.18,424.391,206.18z"/>
				<path d="M431.437,206.192c-0.599,0-1.136-0.108-1.612-0.325v-0.818c0.555,0.173,1.062,0.26,1.521,0.26
					c0.928,0,1.392-0.481,1.392-1.443v-6.486h1.053v6.5c0,0.693-0.195,1.252-0.585,1.677S432.225,206.192,431.437,206.192z"/>
				<path d="M437.742,206.219c-0.633,0-1.12-0.16-1.462-0.481c-0.343-0.32-0.514-0.788-0.514-1.404v-4.68h1.001v4.537
					c0,0.425,0.091,0.726,0.272,0.903c0.183,0.178,0.508,0.267,0.976,0.267c0.502,0,1.101-0.169,1.794-0.507v-5.2h0.988v6.448
					h-0.858l-0.091-0.585h-0.052C439.12,205.984,438.435,206.219,437.742,206.219z"/>
				<path d="M442.695,206.102v-6.448h0.949v0.56h0.052c0.693-0.451,1.434-0.677,2.223-0.677c0.642,0,1.113,0.139,1.417,0.416
					s0.455,0.724,0.455,1.339v4.811h-0.988v-4.603c0-0.398-0.091-0.682-0.272-0.851c-0.183-0.17-0.524-0.254-1.027-0.254
					c-0.537,0-1.144,0.156-1.82,0.468v5.239H442.695z"/>
				<path d="M452.237,206.219c-0.937,0-1.667-0.275-2.191-0.826c-0.524-0.55-0.786-1.345-0.786-2.385v-0.195
					c0-1.092,0.279-1.911,0.839-2.457c0.559-0.546,1.284-0.819,2.177-0.819c0.737,0,1.331,0.144,1.781,0.43v0.832
					c-0.606-0.277-1.218-0.416-1.833-0.416c-0.598,0-1.07,0.197-1.417,0.591c-0.347,0.395-0.52,0.956-0.52,1.684v0.312
					c0,0.814,0.171,1.417,0.514,1.807c0.342,0.39,0.859,0.585,1.553,0.585c0.642,0,1.23-0.151,1.769-0.455v0.807
					C453.549,206.05,452.922,206.219,452.237,206.219z"/>
				<path d="M457.553,206.18c-1.118,0-1.677-0.512-1.677-1.534v-4.16h-0.924v-0.819h0.924v-1.533h0.987v1.533h1.651v0.819h-1.651
					v4.004c0,0.321,0.067,0.546,0.202,0.676c0.134,0.131,0.383,0.195,0.747,0.195c0.295,0,0.572-0.039,0.832-0.117v0.677
					C458.263,206.093,457.9,206.18,457.553,206.18z"/>
				<path d="M460.088,198.366v-1.04h1.015v1.04H460.088z M460.101,206.102v-6.436h0.987v6.436H460.101z"/>
				<path d="M465.522,206.219c-0.91,0-1.623-0.282-2.139-0.846c-0.516-0.562-0.773-1.355-0.773-2.379V202.8
					c0-1.006,0.267-1.801,0.8-2.386s1.241-0.878,2.125-0.878c0.91,0,1.625,0.284,2.146,0.852c0.52,0.568,0.78,1.358,0.78,2.373
					v0.182c0,1.014-0.27,1.813-0.807,2.398S466.406,206.219,465.522,206.219z M465.548,205.399c0.589,0,1.053-0.201,1.391-0.604
					s0.507-0.981,0.507-1.735v-0.325c0-0.841-0.176-1.447-0.526-1.82c-0.351-0.372-0.817-0.559-1.397-0.559
					c-0.59,0-1.053,0.204-1.391,0.611c-0.339,0.407-0.508,0.983-0.508,1.729v0.325C463.624,204.606,464.265,205.399,465.548,205.399
					z"/>
				<path d="M469.956,206.102v-6.448h0.949v0.56h0.052c0.693-0.451,1.434-0.677,2.223-0.677c0.642,0,1.113,0.139,1.417,0.416
					s0.455,0.724,0.455,1.339v4.811h-0.988v-4.603c0-0.398-0.091-0.682-0.272-0.851c-0.183-0.17-0.524-0.254-1.027-0.254
					c-0.537,0-1.144,0.156-1.82,0.468v5.239H469.956z"/>
			</g>
		</g>
		<path fill="none" stroke="#00A1E9" stroke-miterlimit="10" d="M358.614,275.322"/>
		<g>
			<path fill="none" stroke="#00A1E9" stroke-miterlimit="10" d="M170.555,123.766c0.879,16.334,1.428,20.583,1.935,23.807
				c2.616,16.637,6.171,17.486,9.871,33.29c5.319,22.716,4.31,48.015,4.258,49.161c-0.079,1.758-0.525,11.009,2.323,22.258
				c2.079,8.211,4.362,11.363,6,13.161c4.338,4.764,9.936,6.395,15.29,7.548c11.304,2.434,20.804,2.58,36.774,2.129
				c21.956-0.619,10.763-1.085,36.774-2.323c7.895-0.376,14.51-0.599,22.065-4.452c2.958-1.509,8.959-4.668,12.387-11.226
				c2.79-5.338,2.6-10.485,2.516-12.968c-1.105-32.886,2.642-14.136-0.387-53.806c-1.756-22.996-2.599-23.851-1.355-29.807
				c2.386-11.427,6.761-14.365,8.323-28.258c0.732-6.518-0.179-6.326,0.774-19.161c0.323-4.351,0.843-9.954,0.774-17.806
				c-0.02-2.277-0.102-6.162-1.161-11.032c-0.898-4.127-2.118-9.733-4.645-10.064c-2.386-0.313-4.79,4.23-5.419,5.419
				c-1.544,2.918-2.207,5.865-2.516,13.742c-0.367,9.351,1.155,12.653-1.355,17.419c-0.606,1.151-2.091,3.969-4.258,4.064
				c-2.891,0.127-5.166-4.67-5.613-5.613c-2.634-5.554-0.591-8.641-1.742-19.935c-0.49-4.811-1.05-7.581-3.29-9.677
				c-1.39-1.301-4.098-2.972-6.194-2.129c-3.436,1.382-3.468,8.69-3.484,13.161c-0.034,9.68,2.684,12.232,0.968,19.161
				c-0.68,2.745-1.734,6.748-5.226,8.323c-2.434,1.098-6.437,1.242-8.709-1.548c-1.947-2.39-1.661-8.068-1.611-10.935
				c0.078-4.462,0.85-8.884,1.763-13.241c0.533-2.543,1.117-5.103,1.097-7.701s-0.705-5.286-2.428-7.23s-4.619-2.962-7.037-2.01
				c-3.019,1.189-4.278,4.785-4.606,8.013c-1,9.837,3.247,19.733,1.744,29.505c-0.215,1.399-0.566,2.822-1.401,3.965
				c-0.835,1.143-2.248,1.955-3.646,1.728c-2.131-0.345-3.207-2.715-3.834-4.781c-0.882-2.908-1.604-5.882-1.817-8.912
				c-0.375-5.322,0.826-10.673,0.337-15.986c-0.233-2.527-0.935-5.171-2.797-6.895s-5.144-2.076-6.829-0.178
				c-1.277,1.438-1.27,3.571-1.193,5.493c0.314,7.804,0.628,15.607,0.943,23.411c0.094,2.339,0.157,4.818-0.997,6.856
				c-1.153,2.037-4,3.301-5.918,1.959c-1.283-0.898-1.716-2.581-1.935-4.131c-0.771-5.452-0.06-10.988,0.124-16.491
				c0.184-5.503-0.23-11.258-2.989-16.022c-0.714-1.233-1.87-2.516-3.282-2.326c-0.684,0.092-1.272,0.525-1.775,0.997
				c-2.959,2.775-3.898,7.137-3.724,11.191s1.294,8.004,1.786,12.031s0.279,8.366-1.95,11.756c-0.261,0.397-0.557,0.787-0.96,1.04
				c-1.104,0.695-2.591,0.133-3.579-0.719c-3.439-2.967-3.245-8.258-2.766-12.775c0.555-5.229,1.11-10.459,1.665-15.688
				c0.141-1.328,0.253-2.781-0.493-3.889c-0.717-1.065-2.054-1.525-3.324-1.711c-1.555-0.228-3.35-0.057-4.363,1.145
				c-0.53,0.629-0.764,1.451-0.938,2.255c-1.888,8.722,1.754,18.06-0.752,26.625c-0.43,1.47-1.185,3.036-2.624,3.56
				c-1.162,0.422-2.49,0.027-3.495-0.692c-2.415-1.728-3.205-4.97-3.263-7.938c-0.079-4.1,0.892-8.151,1.045-12.249
				c0.152-4.098-0.688-8.541-3.686-11.338c-0.412-0.385-0.883-0.743-1.436-0.85c-1.506-0.291-2.658,1.301-3.254,2.714
				c-2.398,5.692-2.702,11.964-2.458,18.059c0.131,3.257,2.046,11.756-1.627,13.818c-1.717,0.964-4.312,0.035-5.834-1.246
				c-2.082-1.753-2.471-4.429-2.656-6.378c-1.074-11.277,3.007-15.467,0.774-22.645c-1.21-3.892-4.15-8.255-6.581-7.935
				c-2.237,0.294-4.062,4.553-4.452,10.452C169.43,98.822,169.827,110.244,170.555,123.766z"/>
			<rect x="183.259" y="215.238" fill="#1D2088" width="20.129" height="11.248"/>
			<ellipse fill="none" stroke="#000000" stroke-miterlimit="10" cx="201.386" cy="250.077" rx="13.161" ry="6.561"/>
			<ellipse fill="#E83929" cx="269.742" cy="90.028" rx="6.869" ry="13.116"/>
			<g>
				<path d="M210.936,177.785h-3.396v2.269h4.296v0.768h-9.468v-0.768h4.26v-2.269h-3.42v-0.768h1.716l-0.288-2.808l0.937-0.133
					l0.216,2.94h2.58l0.372-2.928l0.899,0.155l-0.42,2.772h1.717V177.785z M210.948,173.514h-7.752v-0.769h7.752V173.514z"/>
				<path d="M222.215,180.821h-9.468v-0.768h4.26v-2.568h-3.12v-4.932h7.2v0.756h-6.276v3.42h6.337v0.756h-3.229v2.568h4.296
					V180.821z"/>
				<path d="M224.387,176.466h0.517c1.6,0,3.016-0.116,4.248-0.349l0.096,0.744c-1.368,0.24-3.008,0.36-4.92,0.36h-0.853v-4.716
					h4.729v0.768h-3.816V176.466z M231.311,180.113c0,0.601-0.302,1.082-0.905,1.446c-0.604,0.364-1.463,0.546-2.574,0.546
					c-1.112,0-1.968-0.18-2.568-0.54c-0.6-0.36-0.899-0.844-0.899-1.452c0-0.616,0.3-1.104,0.899-1.464
					c0.601-0.36,1.456-0.54,2.568-0.54c1.104,0,1.96,0.183,2.567,0.546C231.007,179.02,231.311,179.506,231.311,180.113z
					 M229.685,181.02c0.452-0.22,0.679-0.522,0.679-0.906s-0.227-0.686-0.679-0.906c-0.452-0.22-1.069-0.329-1.854-0.329
					s-1.4,0.111-1.849,0.336c-0.447,0.224-0.672,0.523-0.672,0.899s0.225,0.677,0.672,0.9c0.448,0.224,1.064,0.336,1.849,0.336
					S229.233,181.239,229.685,181.02z M232.775,175.182h-1.596v2.76h-0.912v-6.276h0.912v2.761h1.596V175.182z"/>
			</g>
			<g>
				<path d="M269.292,36.73h-3.396v2.269h4.296v0.768h-9.468v-0.768h4.26V36.73h-3.42v-0.768h1.716l-0.288-2.808l0.937-0.133
					l0.216,2.94h2.58l0.372-2.928l0.899,0.155l-0.42,2.772h1.717V36.73z M269.303,32.458h-7.752V31.69h7.752V32.458z"/>
				<path d="M280.571,39.766h-9.468v-0.768h4.26V36.43h-3.12v-4.932h7.2v0.756h-6.276v3.42h6.337v0.756h-3.229v2.568h4.296V39.766z"
					/>
				<path d="M282.743,35.411h0.517c1.6,0,3.016-0.116,4.248-0.349l0.096,0.744c-1.368,0.24-3.008,0.36-4.92,0.36h-0.853v-4.716
					h4.729v0.768h-3.816V35.411z M289.667,39.058c0,0.601-0.302,1.082-0.905,1.446c-0.604,0.364-1.463,0.546-2.574,0.546
					c-1.112,0-1.968-0.18-2.568-0.54c-0.6-0.36-0.899-0.844-0.899-1.452c0-0.616,0.3-1.104,0.899-1.464
					c0.601-0.36,1.456-0.54,2.568-0.54c1.104,0,1.96,0.183,2.567,0.546C289.363,37.964,289.667,38.451,289.667,39.058z
					 M288.041,39.964c0.452-0.22,0.679-0.522,0.679-0.906s-0.227-0.686-0.679-0.906c-0.452-0.22-1.069-0.329-1.854-0.329
					s-1.4,0.111-1.849,0.336c-0.447,0.224-0.672,0.523-0.672,0.899s0.225,0.677,0.672,0.9c0.448,0.224,1.064,0.336,1.849,0.336
					S287.589,40.184,288.041,39.964z M291.13,34.126h-1.596v2.76h-0.912V30.61h0.912v2.761h1.596V34.126z"/>
			</g>
			<g>
				<path d="M220.644,214.735v-8.052h1.128l3.876,6.443h0.036v-6.443h0.863v8.052h-0.983l-3.996-6.756h-0.036v6.756H220.644z"/>
				<path d="M229.932,214.843c-0.561,0-1.01-0.142-1.351-0.426c-0.34-0.283-0.51-0.697-0.51-1.242c0-1.016,0.604-1.592,1.812-1.728
					l1.607-0.192v-0.624c0-0.447-0.107-0.754-0.323-0.918c-0.217-0.163-0.601-0.246-1.152-0.246c-0.504,0-0.977,0.064-1.416,0.192
					v-0.66c0.52-0.216,1.111-0.324,1.776-0.324c1.359,0,2.039,0.585,2.039,1.753v4.308h-0.743l-0.097-0.516h-0.06
					C231.172,214.636,230.644,214.843,229.932,214.843z M230.159,214.123c0.601,0,1.044-0.144,1.332-0.432v-1.752l-1.368,0.156
					c-0.376,0.04-0.651,0.142-0.827,0.306c-0.177,0.164-0.265,0.414-0.265,0.75c0,0.32,0.101,0.562,0.3,0.726
					C229.531,214.041,229.808,214.123,230.159,214.123z"/>
				<path d="M234.974,210.277v-1.356h-1.329v-0.469h1.329v-1.372h0.497v1.372h1.301v0.469h-1.301v1.356H234.974z"/>
			</g>
			<g>
				<path d="M173.496,264.481v-8.051h0.948v8.051H173.496z M178.02,264.481l-3.408-4.104l3.359-3.947h1.021l-3.264,3.852
					l3.407,4.199H178.02z"/>
				<path d="M181.167,260.024v-1.357h-1.329v-0.469h1.329v-1.371h0.497v1.371h1.301v0.469h-1.301v1.357H181.167z"/>
			</g>
			<g>
				<path d="M254.708,64.154v-8.052h1.128l3.876,6.443h0.036v-6.443h0.863v8.052h-0.983l-3.996-6.756h-0.036v6.756H254.708z"/>
				<path d="M263.996,64.262c-0.561,0-1.01-0.142-1.351-0.426c-0.34-0.283-0.51-0.697-0.51-1.242c0-1.016,0.604-1.592,1.812-1.728
					l1.607-0.192V60.05c0-0.447-0.107-0.754-0.323-0.918c-0.217-0.163-0.601-0.246-1.152-0.246c-0.504,0-0.977,0.064-1.416,0.192
					v-0.66c0.52-0.216,1.111-0.324,1.776-0.324c1.359,0,2.039,0.585,2.039,1.753v4.308h-0.743l-0.097-0.516h-0.06
					C265.236,64.055,264.708,64.262,263.996,64.262z M264.223,63.542c0.601,0,1.044-0.144,1.332-0.432v-1.752l-1.368,0.156
					c-0.376,0.04-0.651,0.142-0.827,0.306c-0.177,0.164-0.265,0.414-0.265,0.75c0,0.32,0.101,0.562,0.3,0.726
					C263.595,63.46,263.872,63.542,264.223,63.542z"/>
				<path d="M269.038,59.696V58.34h-1.329v-0.469h1.329v-1.372h0.497v1.372h1.301v0.469h-1.301v1.356H269.038z"/>
			</g>
			<g>
				<g>
					<path fill="none" stroke="#000000" stroke-miterlimit="10" d="M213.903,183.96c0,0-11.468,25.724-34.957,31.692"/>
					<g>
						<polygon points="180.446,212.37 170.161,216.863 181.314,218.116 						"/>
					</g>
				</g>
			</g>
			<g>
				<g>
					<path fill="none" stroke="#000000" stroke-miterlimit="10" d="M222.774,216.863c0,0-10.286,26.036-38.765,30.072"/>
					<g>
						<polygon points="185.783,243.819 175.162,247.444 186.173,249.616 						"/>
					</g>
				</g>
			</g>
			<g>
				<g>
					<path fill="none" stroke="#000000" stroke-miterlimit="10" d="M187.224,259.018c0,0,24.719,6.589,44.968-20.657"/>
					<g>
						<polygon points="233.451,241.583 237.065,230.958 228.622,238.352 						"/>
					</g>
				</g>
			</g>
			<g>
				<line x1="279.646" y1="49.002" x2="279.646" y2="133.791"/>
				<g>
					
						<line fill="none" stroke="#000000" stroke-width="4" stroke-miterlimit="10" x1="279.646" y1="49.002" x2="279.646" y2="122.097"/>
					<g>
						<polygon points="275.811,119.481 279.646,133.791 283.481,119.481 						"/>
					</g>
				</g>
			</g>
			<g>
				<line x1="261.839" y1="66.179" x2="261.839" y2="150.967"/>
				<g>
					
						<line fill="none" stroke="#000000" stroke-width="4" stroke-miterlimit="10" x1="261.839" y1="66.179" x2="261.839" y2="139.273"/>
					<g>
						<polygon points="258.004,136.658 261.839,150.967 265.674,136.658 						"/>
					</g>
				</g>
			</g>
		</g>
		<path fill="none" stroke="#00A1E9" stroke-miterlimit="10" d="M180.241,275.322"/>
		<g>
			<g>
				<path d="M105.881,179.683h-3.396v2.269h4.296v0.768h-9.468v-0.768h4.26v-2.269h-3.42v-0.768h1.716l-0.288-2.808l0.937-0.133
					l0.216,2.94h2.58l0.372-2.928l0.899,0.155l-0.42,2.772h1.717V179.683z M105.893,175.411h-7.752v-0.769h7.752V175.411z"/>
				<path d="M117.161,182.719h-9.468v-0.768h4.26v-2.568h-3.12v-4.932h7.2v0.756h-6.276v3.42h6.337v0.756h-3.229v2.568h4.296
					V182.719z"/>
				<path d="M119.333,178.363h0.517c1.6,0,3.016-0.116,4.248-0.349l0.096,0.744c-1.368,0.24-3.008,0.36-4.92,0.36h-0.853v-4.716
					h4.729v0.768h-3.816V178.363z M126.256,182.011c0,0.601-0.302,1.082-0.905,1.446c-0.604,0.364-1.463,0.546-2.574,0.546
					c-1.112,0-1.968-0.18-2.568-0.54c-0.6-0.36-0.899-0.844-0.899-1.452c0-0.616,0.3-1.104,0.899-1.464
					c0.601-0.36,1.456-0.54,2.568-0.54c1.104,0,1.96,0.183,2.567,0.546C125.953,180.917,126.256,181.403,126.256,182.011z
					 M124.63,182.917c0.452-0.22,0.679-0.522,0.679-0.906s-0.227-0.686-0.679-0.906c-0.452-0.22-1.069-0.329-1.854-0.329
					s-1.4,0.111-1.849,0.336c-0.447,0.224-0.672,0.523-0.672,0.899s0.225,0.677,0.672,0.9c0.448,0.224,1.064,0.336,1.849,0.336
					S124.178,183.137,124.63,182.917z M127.72,177.079h-1.596v2.76h-0.912v-6.276h0.912v2.761h1.596V177.079z"/>
			</g>
			<g>
				<path d="M54.22,39.418h-3.396v2.269h4.296v0.768h-9.468v-0.768h4.26v-2.269h-3.42v-0.768h1.716l-0.288-2.808l0.937-0.133
					l0.216,2.94h2.58l0.372-2.928l0.899,0.155l-0.42,2.772h1.717V39.418z M54.232,35.147H46.48v-0.769h7.752V35.147z"/>
				<path d="M65.5,42.455h-9.468v-0.768h4.26v-2.568h-3.12v-4.932h7.2v0.756h-6.276v3.42h6.337v0.756h-3.229v2.568H65.5V42.455z"/>
				<path d="M67.672,38.099h0.517c1.6,0,3.016-0.116,4.248-0.349l0.096,0.744c-1.368,0.24-3.008,0.36-4.92,0.36h-0.853v-4.716h4.729
					v0.768h-3.816V38.099z M74.595,41.747c0,0.601-0.302,1.082-0.905,1.446c-0.604,0.364-1.463,0.546-2.574,0.546
					c-1.112,0-1.968-0.18-2.568-0.54c-0.6-0.36-0.899-0.844-0.899-1.452c0-0.616,0.3-1.104,0.899-1.464
					c0.601-0.36,1.456-0.54,2.568-0.54c1.104,0,1.96,0.183,2.567,0.546C74.292,40.653,74.595,41.139,74.595,41.747z M72.969,42.653
					c0.452-0.22,0.679-0.522,0.679-0.906s-0.227-0.686-0.679-0.906c-0.452-0.22-1.069-0.329-1.854-0.329s-1.4,0.111-1.849,0.336
					c-0.447,0.224-0.672,0.523-0.672,0.899s0.225,0.677,0.672,0.9c0.448,0.224,1.064,0.336,1.849,0.336S72.517,42.873,72.969,42.653
					z M76.059,36.815h-1.596v2.76h-0.912v-6.276h0.912v2.761h1.596V36.815z"/>
			</g>
			<g>
				<path d="M90.187,218.711v-8.052h1.128l3.876,6.443h0.036v-6.443h0.863v8.052h-0.983l-3.996-6.756h-0.036v6.756H90.187z"/>
				<path d="M99.475,218.818c-0.561,0-1.01-0.142-1.351-0.426c-0.34-0.283-0.51-0.697-0.51-1.242c0-1.016,0.604-1.592,1.812-1.728
					l1.607-0.192v-0.624c0-0.447-0.107-0.754-0.323-0.918c-0.217-0.163-0.601-0.246-1.152-0.246c-0.504,0-0.977,0.064-1.416,0.192
					v-0.66c0.52-0.216,1.111-0.324,1.776-0.324c1.359,0,2.039,0.585,2.039,1.753v4.308h-0.743l-0.097-0.516h-0.06
					C100.715,218.611,100.187,218.818,99.475,218.818z M99.702,218.099c0.601,0,1.044-0.144,1.332-0.432v-1.752l-1.368,0.156
					c-0.376,0.04-0.651,0.142-0.827,0.306c-0.177,0.164-0.265,0.414-0.265,0.75c0,0.32,0.101,0.562,0.3,0.726
					C99.074,218.017,99.351,218.099,99.702,218.099z"/>
				<path d="M104.517,214.253v-1.356h-1.329v-0.469h1.329v-1.372h0.497v1.372h1.301v0.469h-1.301v1.356H104.517z"/>
			</g>
			<g>
				<path d="M146.961,266.379v-8.052h0.948v8.052H146.961z M151.485,266.379l-3.408-4.104l3.359-3.947h1.021l-3.264,3.852l3.407,4.2
					H151.485z"/>
				<path d="M154.632,261.921v-1.356h-1.329v-0.469h1.329v-1.372h0.497v1.372h1.301v0.469h-1.301v1.356H154.632z"/>
			</g>
			<g>
				<path d="M76.336,68.526v-8.052h1.128l3.876,6.443h0.036v-6.443h0.863v8.052h-0.983l-3.996-6.756h-0.036v6.756H76.336z"/>
				<path d="M85.624,68.634c-0.561,0-1.01-0.142-1.351-0.426c-0.34-0.283-0.51-0.697-0.51-1.242c0-1.016,0.604-1.592,1.812-1.728
					l1.607-0.192v-0.624c0-0.447-0.107-0.754-0.323-0.918c-0.217-0.163-0.601-0.246-1.152-0.246c-0.504,0-0.977,0.064-1.416,0.192
					v-0.66c0.52-0.216,1.111-0.324,1.776-0.324c1.359,0,2.039,0.585,2.039,1.753v4.308h-0.743l-0.097-0.516h-0.06
					C86.864,68.427,86.336,68.634,85.624,68.634z M85.851,67.914c0.601,0,1.044-0.144,1.332-0.432V65.73l-1.368,0.156
					c-0.376,0.04-0.651,0.142-0.827,0.306c-0.177,0.164-0.265,0.414-0.265,0.75c0,0.32,0.101,0.562,0.3,0.726
					C85.223,67.832,85.5,67.914,85.851,67.914z"/>
				<path d="M90.666,64.068v-1.356h-1.329v-0.469h1.329v-1.372h0.497v1.372h1.301v0.469h-1.301v1.356H90.666z"/>
			</g>
			<g>
				<path fill="none" stroke="#00A1E9" stroke-miterlimit="10" d="M158.829,123.766c-0.879,16.334-1.428,20.583-1.935,23.807
					c-2.616,16.637-6.171,17.486-9.871,33.29c-5.319,22.716-4.31,48.015-4.258,49.161c0.079,1.758,0.525,11.009-2.323,22.258
					c-2.079,8.211-4.362,11.363-6,13.161c-4.338,4.764-9.936,6.395-15.29,7.548c-11.304,2.434-20.804,2.58-36.774,2.129
					c-21.956-0.619-10.763-1.085-36.774-2.323c-7.895-0.376-14.51-0.599-22.065-4.452c-2.958-1.509-8.959-4.668-12.387-11.226
					c-2.79-5.338-2.6-10.485-2.516-12.968c1.105-32.886-2.642-14.136,0.387-53.806c1.756-22.996,2.599-23.851,1.355-29.807
					c-2.386-11.427-6.761-14.365-8.323-28.258c-0.732-6.518,0.179-6.326-0.774-19.161c-0.323-4.351-0.843-9.954-0.774-17.806
					c0.02-2.277,0.102-6.162,1.161-11.032c0.898-4.127,2.118-9.733,4.645-10.064c2.386-0.313,4.79,4.23,5.419,5.419
					c1.544,2.918,2.207,5.865,2.516,13.742c0.367,9.351-1.155,12.653,1.355,17.419c0.606,1.151,2.091,3.969,4.258,4.064
					c2.891,0.127,5.166-4.67,5.613-5.613c2.634-5.554,0.591-8.641,1.742-19.935c0.49-4.811,1.05-7.581,3.29-9.677
					c1.39-1.301,4.098-2.972,6.194-2.129c3.436,1.382,3.468,8.69,3.484,13.161c0.034,9.68-2.684,12.232-0.968,19.161
					c0.68,2.745,1.734,6.748,5.226,8.323c2.434,1.098,6.437,1.242,8.709-1.548c1.947-2.39,1.661-8.068,1.611-10.935
					c-0.078-4.462-0.85-8.884-1.763-13.241c-0.533-2.543-1.117-5.103-1.097-7.701c0.02-2.598,0.705-5.286,2.428-7.23
					c1.723-1.945,4.619-2.962,7.037-2.01c3.019,1.189,4.278,4.785,4.606,8.013c1,9.837-3.247,19.733-1.744,29.505
					c0.215,1.399,0.566,2.822,1.401,3.965c0.835,1.143,2.248,1.955,3.646,1.728c2.131-0.345,3.207-2.715,3.834-4.781
					c0.882-2.908,1.604-5.882,1.817-8.912c0.375-5.322-0.826-10.673-0.337-15.986c0.233-2.527,0.935-5.171,2.797-6.895
					s5.144-2.076,6.829-0.178c1.277,1.438,1.27,3.571,1.193,5.493c-0.314,7.804-0.628,15.607-0.943,23.411
					c-0.094,2.339-0.157,4.818,0.997,6.856c1.153,2.037,4,3.301,5.918,1.959c1.283-0.898,1.716-2.581,1.935-4.131
					c0.771-5.452,0.06-10.988-0.124-16.491c-0.184-5.503,0.23-11.258,2.989-16.022c0.714-1.233,1.87-2.516,3.282-2.326
					c0.684,0.092,1.272,0.525,1.775,0.997c2.959,2.775,3.898,7.137,3.724,11.191s-1.294,8.004-1.786,12.031
					s-0.279,8.366,1.95,11.756c0.261,0.397,0.557,0.787,0.96,1.04c1.104,0.695,2.591,0.133,3.579-0.719
					c3.439-2.967,3.245-8.258,2.766-12.775c-0.555-5.229-1.11-10.459-1.665-15.688c-0.141-1.328-0.253-2.781,0.493-3.889
					c0.717-1.065,2.054-1.525,3.324-1.711c1.555-0.228,3.35-0.057,4.363,1.145c0.53,0.629,0.764,1.451,0.938,2.255
					c1.888,8.722-1.754,18.06,0.752,26.625c0.43,1.47,1.185,3.036,2.624,3.56c1.162,0.422,2.49,0.027,3.495-0.692
					c2.415-1.728,3.205-4.97,3.263-7.938c0.079-4.1-0.892-8.151-1.045-12.249c-0.152-4.098,0.688-8.541,3.686-11.338
					c0.412-0.385,0.883-0.743,1.436-0.85c1.506-0.291,2.658,1.301,3.254,2.714c2.398,5.692,2.702,11.964,2.458,18.059
					c-0.131,3.257-2.046,11.756,1.627,13.818c1.717,0.964,4.312,0.035,5.834-1.246c2.082-1.753,2.471-4.429,2.656-6.378
					c1.074-11.277-3.007-15.467-0.774-22.645c1.21-3.892,4.15-8.255,6.581-7.935c2.237,0.294,4.062,4.553,4.452,10.452
					C159.953,98.822,159.556,110.244,158.829,123.766z"/>
				
					<rect x="125.996" y="215.238" transform="matrix(-1 -4.518353e-11 4.518353e-11 -1 272.1205 441.7252)" fill="#1D2088" width="20.129" height="11.248"/>
				<ellipse fill="none" stroke="#000000" stroke-miterlimit="10" cx="127.998" cy="250.077" rx="13.161" ry="6.561"/>
				<ellipse fill="#E83929" cx="59.641" cy="90.028" rx="6.869" ry="13.116"/>
				<g>
					<g>
						<path fill="none" stroke="#000000" stroke-miterlimit="10" d="M115.48,183.96c0,0,11.467,25.724,34.957,31.692"/>
						<g>
							<polygon points="148.069,218.116 159.222,216.863 148.937,212.37 							"/>
						</g>
					</g>
				</g>
				<g>
					<g>
						<path fill="none" stroke="#000000" stroke-miterlimit="10" d="M106.609,216.863c0,0,10.286,26.036,38.765,30.072"/>
						<g>
							<polygon points="143.211,249.616 154.222,247.444 143.6,243.819 							"/>
						</g>
					</g>
				</g>
				<g>
					<g>
						<path fill="none" stroke="#000000" stroke-miterlimit="10" d="M142.159,259.018c0,0-24.719,6.589-44.968-20.657"/>
						<g>
							<polygon points="100.762,238.352 92.318,230.958 95.933,241.583 							"/>
						</g>
					</g>
				</g>
				<g>
					<line x1="49.738" y1="49.002" x2="49.738" y2="133.791"/>
					<g>
						
							<line fill="none" stroke="#000000" stroke-width="4" stroke-miterlimit="10" x1="49.738" y1="49.002" x2="49.738" y2="122.097"/>
						<g>
							<polygon points="45.903,119.481 49.738,133.791 53.573,119.481 							"/>
						</g>
					</g>
				</g>
				<g>
					<line x1="67.544" y1="66.179" x2="67.544" y2="150.967"/>
					<g>
						
							<line fill="none" stroke="#000000" stroke-width="4" stroke-miterlimit="10" x1="67.544" y1="66.179" x2="67.544" y2="139.273"/>
						<g>
							<polygon points="63.709,136.658 67.544,150.968 71.379,136.658 							"/>
						</g>
					</g>
				</g>
			</g>
		</g>
		<g>
			<path fill="#F39800" stroke="#000000" stroke-width="0.3825" stroke-miterlimit="10" d="M164.422,148.615
				c0,0-0.975-0.725-4.845-0.775c-4.092,0-8.184,0-8.184,0v-22.993c0,0,4.092,0,8.184,0s6.138-0.641,6.138-0.641
				c-4.619,5.18-5.58,11.88-4.011,18.176C163.053,146.083,164.422,148.615,164.422,148.615z"/>
			<path fill="#F39800" stroke="#000000" stroke-width="0.3825" stroke-miterlimit="10" d="M166.212,148.429
				c0,0,0.975-0.725,4.845-0.775c4.092,0,8.184,0,8.184,0v-22.993c0,0-4.092,0-8.184,0s-6.138-0.641-6.138-0.641
				c4.619,5.18,5.58,11.88,4.011,18.176C167.582,145.897,166.212,148.429,166.212,148.429z"/>
		</g>
		<g>
			<path fill="#F39800" stroke="#000000" stroke-width="0.3825" stroke-miterlimit="10" d="M376.704,215.22
				c0,0-0.975-0.725-4.845-0.775c-4.092,0-8.184,0-8.184,0v-22.993c0,0,4.092,0,8.184,0s6.138-0.641,6.138-0.641
				c-4.619,5.18-5.58,11.88-4.011,18.176C375.335,212.687,376.704,215.22,376.704,215.22z"/>
			<path fill="#F39800" stroke="#000000" stroke-width="0.3825" stroke-miterlimit="10" d="M378.495,215.034
				c0,0,0.975-0.725,4.845-0.775c4.092,0,8.184,0,8.184,0v-22.993c0,0-4.092,0-8.184,0s-6.138-0.641-6.138-0.641
				c4.619,5.18,5.58,11.88,4.011,18.176C379.864,212.501,378.495,215.034,378.495,215.034z"/>
		</g>
		<g>
			<g>
				<line fill="none" stroke="#000000" stroke-miterlimit="10" x1="136.06" y1="17.74" x2="137.426" y2="20.412"/>
				
					<line fill="none" stroke="#000000" stroke-miterlimit="10" stroke-dasharray="6.3789,4.2526" x1="139.361" y1="24.198" x2="162.586" y2="69.638"/>
				<polyline fill="none" stroke="#000000" stroke-miterlimit="10" points="163.554,71.531 164.919,74.203 166.267,71.522 				"/>
				
					<line fill="none" stroke="#000000" stroke-miterlimit="10" stroke-dasharray="6.356,4.2373" x1="168.172" y1="67.737" x2="191.023" y2="22.313"/>
				<line fill="none" stroke="#000000" stroke-miterlimit="10" x1="191.975" y1="20.42" x2="193.323" y2="17.74"/>
			</g>
		</g>
		<g>
			<g>
				
					<line fill="none" stroke="#000000" stroke-width="0.9109" stroke-miterlimit="10" x1="164.692" y1="40.258" x2="164.692" y2="175.933"/>
				<g>
					<polygon points="162.045,174.128 164.692,184.003 167.338,174.128 					"/>
				</g>
			</g>
		</g>
		<g>
			<path d="M156.24,32.796v-8.052h0.96v3.491h4.032v-3.491h0.947v8.052h-0.947V29.04H157.2v3.756H156.24z"/>
			<path d="M163.658,37.002v-0.329l1.119-1.161c0.393-0.41,0.676-0.748,0.851-1.015c0.175-0.266,0.262-0.553,0.262-0.86
				c0-0.62-0.321-0.931-0.965-0.931c-0.331,0-0.682,0.129-1.05,0.385l-0.161-0.44c0.443-0.284,0.877-0.427,1.302-0.427
				c0.466,0,0.825,0.121,1.077,0.364c0.252,0.242,0.378,0.576,0.378,1c0,0.373-0.101,0.714-0.301,1.021s-0.534,0.699-1,1.176
				l-0.735,0.741h2.142v0.476H163.658z"/>
			<path d="M173.643,31.848c-0.629,0.72-1.494,1.08-2.599,1.08c-1.104,0-1.966-0.352-2.586-1.056s-0.93-1.708-0.93-3.013v-0.191
				c0-1.264,0.313-2.256,0.941-2.977c0.628-0.72,1.498-1.08,2.61-1.08c1.096,0,1.954,0.353,2.574,1.057s0.93,1.708,0.93,3.012v0.192
				C174.585,30.136,174.271,31.128,173.643,31.848z M171.069,32.147c0.808,0,1.426-0.283,1.854-0.852s0.643-1.316,0.643-2.244V28.68
				c0-2.184-0.845-3.28-2.532-3.288c-0.8,0-1.414,0.282-1.842,0.847c-0.429,0.563-0.643,1.313-0.643,2.25v0.371
				c0,1.024,0.204,1.828,0.612,2.412S170.205,32.147,171.069,32.147z"/>
		</g>
		<g>
			<path d="M126.934,7.487l-0.563,0.72c-0.544-0.352-1.08-0.831-1.608-1.439c-0.527-0.608-0.888-1.204-1.08-1.788
				c-0.168,0.616-0.496,1.229-0.983,1.842c-0.488,0.612-1.057,1.143-1.704,1.59l-0.612-0.684c0.809-0.472,1.48-1.132,2.017-1.98
				c0.535-0.848,0.804-1.731,0.804-2.651V1.871h-2.46V1.104h5.82v0.768h-2.412v1.2c0,0.929,0.27,1.79,0.81,2.586
				S126.158,7.063,126.934,7.487z M128.194,4.56h-2.196v-0.78h2.196v-3.78h0.912v10.488h-0.912V4.56z"/>
			<path d="M136.09,8.291h-0.912V6.275h-4.26V5.52h9.468v0.756h-4.296V8.291z M139.186,4.344h-7.08V0.336h0.912v1.296h5.244V0.336
				h0.924V4.344z M139.33,10.151h-7.212V7.308h0.912v2.088h6.3V10.151z M138.262,3.575V2.388h-5.244v1.188H138.262z"/>
			<path d="M147.514,7.344l-0.552,0.684c-0.544-0.344-1.076-0.815-1.596-1.416c-0.521-0.6-0.868-1.191-1.044-1.775
				c-0.177,0.632-0.501,1.254-0.973,1.865c-0.472,0.612-1.028,1.139-1.668,1.578l-0.6-0.684c0.792-0.473,1.449-1.134,1.974-1.986
				c0.524-0.852,0.786-1.738,0.786-2.658v-1.08h-2.424V1.104h5.796v0.768h-2.424v1.057c0,0.928,0.26,1.786,0.779,2.573
				C146.09,6.289,146.737,6.903,147.514,7.344z M151.066,5.027h-1.704v5.46h-0.911V-0.001h0.911V4.26h1.704V5.027z"/>
			<path d="M151.449,10.703l0.444-2.34h1.092l-0.888,2.34H151.449z"/>
			<path d="M162.718,10.499h-0.912V6.695h-4.26V5.928h9.468v0.768h-4.296V10.499z M166.63,4.031l-0.432,0.78
				c-0.824-0.168-1.608-0.484-2.353-0.948s-1.268-0.991-1.572-1.584c-0.16,0.393-0.449,0.769-0.869,1.128
				c-0.421,0.36-0.893,0.662-1.416,0.906c-0.524,0.244-1.059,0.418-1.603,0.522l-0.444-0.78c1.032-0.136,1.935-0.498,2.706-1.086
				c0.772-0.588,1.158-1.234,1.158-1.938V0.359h0.96v0.672c0,0.688,0.404,1.33,1.212,1.926C164.786,3.554,165.67,3.911,166.63,4.031
				z"/>
			<path d="M176.326,2.207c0,0.721-0.461,1.257-1.381,1.608v1.488h2.448V6.06h-9.468V5.304h2.412v-1.5
				c-0.888-0.344-1.332-0.876-1.332-1.597c0-0.607,0.324-1.09,0.972-1.445c0.648-0.356,1.54-0.534,2.676-0.534
				c1.145,0,2.042,0.178,2.694,0.534C176,1.117,176.326,1.6,176.326,2.207z M175.408,7.205c0.659,0.324,0.989,0.782,0.989,1.374
				c0,0.593-0.328,1.049-0.983,1.368c-0.656,0.32-1.568,0.48-2.736,0.48s-2.078-0.16-2.73-0.48
				c-0.651-0.319-0.978-0.775-0.978-1.368c0-0.592,0.326-1.05,0.978-1.374c0.652-0.323,1.559-0.485,2.719-0.485
				C173.834,6.72,174.748,6.882,175.408,7.205z M172.666,7.512c-0.856,0-1.534,0.092-2.034,0.275c-0.5,0.185-0.75,0.448-0.75,0.792
				c0,0.336,0.252,0.597,0.756,0.78c0.504,0.185,1.18,0.276,2.028,0.276c0.863,0,1.548-0.092,2.052-0.276
				c0.504-0.184,0.756-0.444,0.756-0.78c0-0.344-0.252-0.607-0.756-0.792C174.214,7.604,173.529,7.512,172.666,7.512z
				 M175.438,2.207c0-0.384-0.252-0.688-0.756-0.911c-0.504-0.225-1.18-0.337-2.028-0.337c-0.848,0-1.52,0.112-2.016,0.337
				c-0.496,0.224-0.744,0.527-0.744,0.911c0,0.377,0.25,0.675,0.75,0.895s1.17,0.33,2.01,0.33c0.849,0,1.524-0.11,2.028-0.33
				S175.438,2.584,175.438,2.207z M172.653,4.163c-0.512,0-0.979-0.035-1.403-0.107v1.248h2.784V4.067
				C173.586,4.132,173.126,4.163,172.653,4.163z"/>
			<path d="M184.27,4.991l-0.54,0.708c-0.536-0.256-1.032-0.602-1.488-1.038c-0.456-0.436-0.779-0.901-0.972-1.397
				c-0.16,0.544-0.47,1.07-0.93,1.578s-0.994,0.914-1.603,1.218l-0.563-0.708c0.784-0.36,1.414-0.866,1.89-1.519
				c0.476-0.651,0.714-1.382,0.714-2.189V0.6h0.924v1.02c0,0.784,0.263,1.482,0.786,2.095C183.012,4.325,183.606,4.751,184.27,4.991
				z M186.064,7.044c0.612,0.352,0.918,0.836,0.918,1.451c0,0.616-0.306,1.101-0.918,1.452c-0.612,0.353-1.478,0.528-2.598,0.528
				c-1.112,0-1.975-0.176-2.586-0.528c-0.612-0.352-0.918-0.836-0.918-1.452c0-0.615,0.306-1.1,0.918-1.451
				c0.611-0.353,1.474-0.528,2.586-0.528C184.586,6.516,185.451,6.691,186.064,7.044z M183.466,7.26
				c-0.809,0-1.44,0.107-1.896,0.323c-0.456,0.217-0.684,0.521-0.684,0.912c0,0.393,0.228,0.696,0.684,0.912
				s1.088,0.324,1.896,0.324c0.815,0,1.452-0.108,1.908-0.324s0.684-0.52,0.684-0.912c0-0.392-0.228-0.695-0.684-0.912
				C184.918,7.367,184.281,7.26,183.466,7.26z M185.962,3.167h-2.256V2.411h2.256v-2.412h0.912v6.517h-0.912V3.167z"/>
			<path d="M200.554,10.331h-7.596V7.92h6.288V7.056h-6.324V6.323h3.18v-1.02h-4.26V4.571h9.468v0.732h-4.296v1.02h3.145v2.28
				h-6.288v0.96h6.684V10.331z M200.109,3.623h-7.056V0.407h7.056V3.623z M199.186,2.867V1.151h-5.22v1.716H199.186z"/>
			<path d="M202.617,1.403V0.636h5.809v0.768h-2.46l0.012,0.324c0.008,0.632,0.271,1.216,0.792,1.752s1.108,0.912,1.764,1.128
				l-0.504,0.708c-0.52-0.208-1.021-0.528-1.506-0.96s-0.83-0.88-1.038-1.344c-0.136,0.488-0.47,0.988-1.002,1.5
				s-1.102,0.888-1.71,1.128l-0.516-0.696c0.76-0.264,1.41-0.7,1.95-1.308c0.54-0.608,0.813-1.248,0.821-1.92V1.403H202.617z
				 M211.174,10.415h-7.236V7.823h5.94V6.731h-5.94V5.987h6.853v2.521h-5.929v1.151h6.312V10.415z M210.79,5.411h-0.912v-5.412
				h0.912V5.411z"/>
		</g>
		
			<rect x="66.271" y="267.184" transform="matrix(-1 -4.563517e-11 4.563517e-11 -1 152.6707 545.6155)" fill="#1D2088" width="20.129" height="11.248"/>
		<g>
			<path d="M51.718,257.357h-3.396v2.269h4.296v0.768H43.15v-0.768h4.26v-2.269h-3.42v-0.768h1.716l-0.288-2.808l0.937-0.133
				l0.216,2.94h2.58l0.372-2.928l0.899,0.155l-0.42,2.772h1.717V257.357z M51.73,253.086h-7.752v-0.769h7.752V253.086z"/>
			<path d="M62.997,260.394h-9.468v-0.768h4.26v-2.568h-3.12v-4.932h7.2v0.756h-6.276v3.42h6.337v0.756h-3.229v2.568h4.296V260.394z
				"/>
			<path d="M65.169,256.038h0.517c1.6,0,3.016-0.116,4.248-0.349l0.096,0.744c-1.368,0.24-3.008,0.36-4.92,0.36h-0.853v-4.716h4.729
				v0.768h-3.816V256.038z M72.093,259.686c0,0.601-0.302,1.082-0.905,1.446c-0.604,0.364-1.463,0.546-2.574,0.546
				c-1.112,0-1.968-0.18-2.568-0.54c-0.6-0.36-0.899-0.844-0.899-1.452c0-0.616,0.3-1.104,0.899-1.464
				c0.601-0.36,1.456-0.54,2.568-0.54c1.104,0,1.96,0.183,2.567,0.546C71.789,258.592,72.093,259.078,72.093,259.686z
				 M70.467,260.592c0.452-0.22,0.679-0.522,0.679-0.906s-0.227-0.686-0.679-0.906c-0.452-0.22-1.069-0.329-1.854-0.329
				s-1.4,0.111-1.849,0.336c-0.447,0.224-0.672,0.523-0.672,0.899s0.225,0.677,0.672,0.9c0.448,0.224,1.064,0.336,1.849,0.336
				S70.015,260.812,70.467,260.592z M73.557,254.754h-1.596v2.76h-0.912v-6.276h0.912v2.761h1.596V254.754z"/>
		</g>
		<g>
			<line x1="76.059" y1="249.608" x2="76.059" y2="293.483"/>
			<g>
				
					<line fill="none" stroke="#000000" stroke-width="3" stroke-miterlimit="10" x1="76.059" y1="249.608" x2="76.059" y2="285.51"/>
				<g>
					<polygon points="73.444,283.726 76.059,293.483 78.674,283.726 					"/>
				</g>
			</g>
		</g>
	</g>
	<g>
	</g>
	<g>
	</g>
	<g>
	</g>
	<g>
	</g>
	<g>
	</g>
	<g>
	</g>
	<g>
	</g>
</g>
</svg>
