<?xml version="1.0" encoding="utf-8"?>
<!-- Generator: Adobe Illustrator 28.0.0, SVG Export Plug-In . SVG Version: 6.00 Build 0)  -->
<svg version="1.1" id="레이어_1" xmlns="http://www.w3.org/2000/svg" xmlns:xlink="http://www.w3.org/1999/xlink" x="0px"
	 y="0px" viewBox="0 0 295.786 132.184" enable-background="new 0 0 295.786 132.184" xml:space="preserve">
<polyline fill="#E3E5E7" points="263.451,115.628 263.451,13.628 109.785,115.628 263.451,115.628 "/>
<g>
	<path fill="#231F20" d="M55.189,126.763H50.06v-0.455h5.128V126.763z M54.87,124.384h-4.498v-0.442h4.498V124.384z M54.519,128.888
		h-3.796v-1.865h0.572v0.481h2.646v-0.487h0.579V128.888z M53.925,124.764c0.292,0.128,0.438,0.311,0.438,0.549
		s-0.146,0.422-0.438,0.552c-0.292,0.13-0.725,0.195-1.297,0.195c-0.572,0-1.005-0.065-1.3-0.195
		c-0.295-0.13-0.442-0.314-0.442-0.552s0.147-0.421,0.442-0.549c0.294-0.128,0.728-0.192,1.3-0.192
		C53.2,124.572,53.632,124.636,53.925,124.764z M53.941,128.44v-0.5h-2.646v0.5H53.941z M53.466,125.554
		c0.208-0.056,0.312-0.136,0.312-0.24s-0.104-0.184-0.312-0.241c-0.208-0.056-0.487-0.084-0.838-0.084
		c-0.355,0-0.636,0.028-0.842,0.084c-0.206,0.057-0.309,0.137-0.309,0.241s0.103,0.184,0.309,0.24
		c0.206,0.057,0.486,0.084,0.842,0.084C52.979,125.638,53.258,125.61,53.466,125.554z M53.622,123.689h-1.976v-0.436h1.976V123.689z
		"/>
	<path fill="#231F20" d="M56.265,123.926c0.28-0.253,0.625-0.38,1.037-0.38c0.412,0,0.756,0.125,1.033,0.374
		c0.277,0.25,0.416,0.573,0.416,0.972c0,0.398-0.138,0.719-0.413,0.962c-0.275,0.243-0.621,0.364-1.037,0.364
		s-0.763-0.121-1.04-0.364c-0.277-0.243-0.416-0.561-0.416-0.956S55.985,124.179,56.265,123.926z M57.302,124.046
		c-0.251,0-0.461,0.077-0.627,0.231c-0.167,0.154-0.25,0.356-0.25,0.607c0,0.251,0.083,0.453,0.25,0.604
		c0.167,0.152,0.376,0.228,0.627,0.228c0.255,0,0.464-0.075,0.627-0.224s0.244-0.35,0.244-0.601c0-0.256-0.081-0.46-0.244-0.614
		S57.557,124.046,57.302,124.046z M60.35,128.888h-3.692v-2.255h0.572v0.669h2.542v-0.676h0.579V128.888z M59.771,128.427v-0.669
		H57.23v0.669H59.771z M60.344,126.321h-0.579v-3.042h0.579V126.321z"/>
	<path fill="#231F20" d="M64.399,124.644h-3.087v-0.461h3.087V124.644z M64.224,125.82c0,0.277-0.124,0.503-0.371,0.676
		s-0.561,0.26-0.942,0.26s-0.695-0.085-0.942-0.257c-0.247-0.171-0.371-0.397-0.371-0.679c0-0.286,0.123-0.515,0.367-0.686
		c0.245-0.171,0.56-0.257,0.946-0.257c0.381,0,0.695,0.085,0.942,0.257C64.1,125.306,64.224,125.534,64.224,125.82z M63.756,123.825
		h-1.651v-0.468h1.651V123.825z M63.434,126.178c0.145-0.091,0.217-0.21,0.217-0.357c0-0.147-0.072-0.268-0.217-0.361
		c-0.146-0.093-0.32-0.14-0.523-0.14s-0.379,0.047-0.526,0.14c-0.147,0.093-0.221,0.214-0.221,0.361
		c0,0.147,0.074,0.267,0.221,0.357c0.147,0.091,0.323,0.137,0.526,0.137S63.289,126.269,63.434,126.178z M65.501,127.241
		c0.332,0.175,0.497,0.419,0.497,0.731s-0.166,0.555-0.497,0.728s-0.803,0.26-1.414,0.26c-0.611,0-1.079-0.086-1.404-0.257
		c-0.325-0.171-0.487-0.415-0.487-0.731c0-0.316,0.162-0.561,0.487-0.734s0.793-0.26,1.404-0.26
		C64.699,126.978,65.17,127.065,65.501,127.241z M64.087,127.426c-0.407,0-0.726,0.049-0.955,0.146
		c-0.23,0.097-0.345,0.23-0.345,0.399c0,0.169,0.114,0.302,0.341,0.4s0.547,0.146,0.958,0.146c0.416,0,0.739-0.048,0.969-0.143
		c0.229-0.095,0.344-0.23,0.344-0.403c0-0.169-0.116-0.302-0.348-0.399C64.821,127.475,64.499,127.426,64.087,127.426z
		 M64.503,125.249v-0.461h0.884v-1.508h0.579v3.646h-0.579v-0.624h-0.884v-0.455h0.884v-0.598H64.503z"/>
	<path fill="#231F20" d="M69.398,125.795h0.254c0.953,0,1.692-0.059,2.216-0.176l0.078,0.462c-0.628,0.13-1.476,0.195-2.542,0.195
		h-0.572v-2.555h2.574v0.462h-2.009V125.795z M73.097,127.842c0,0.334-0.167,0.602-0.5,0.803c-0.334,0.202-0.802,0.302-1.404,0.302
		c-0.602,0-1.069-0.1-1.4-0.299s-0.498-0.468-0.498-0.806c0-0.342,0.166-0.613,0.498-0.812s0.798-0.299,1.4-0.299
		c0.603,0,1.07,0.101,1.404,0.302C72.93,127.234,73.097,127.504,73.097,127.842z M72.154,128.303
		c0.234-0.112,0.351-0.266,0.351-0.461c0-0.195-0.117-0.35-0.351-0.465c-0.234-0.115-0.555-0.172-0.962-0.172
		c-0.407,0-0.727,0.057-0.958,0.172c-0.232,0.115-0.348,0.27-0.348,0.465c0,0.195,0.116,0.349,0.348,0.461
		c0.232,0.113,0.551,0.169,0.958,0.169C71.599,128.472,71.92,128.416,72.154,128.303z M73.87,125.21h-0.845v1.443h-0.578v-3.374
		h0.578v1.456h0.845V125.21z"/>
	<path fill="#231F20" d="M74.468,124.066v-0.461h3.12v0.461h-1.274v0.006c0,0.377,0.142,0.713,0.426,1.008
		c0.284,0.294,0.605,0.498,0.965,0.611l-0.318,0.455c-0.269-0.108-0.533-0.274-0.793-0.498c-0.26-0.223-0.449-0.458-0.565-0.705
		c-0.087,0.264-0.273,0.529-0.559,0.793c-0.286,0.265-0.581,0.458-0.884,0.579l-0.338-0.442c0.395-0.147,0.74-0.388,1.037-0.722
		c0.297-0.333,0.445-0.689,0.445-1.066v-0.02H74.468z M79.116,128.921h-3.919v-1.45h3.146v-0.507h-3.159v-0.461h3.738v1.404h-3.146
		v0.54h3.341V128.921z M78.921,126.197h-0.579v-2.918h0.579V126.197z"/>
	<path fill="#231F20" d="M85.011,128.173h-5.128v-0.461h1.95v-1.45h0.579v1.45h2.6V128.173z M84.393,123.858v0.741
		c-0.009,0.971-0.086,1.784-0.234,2.438l-0.552-0.065c0.091-0.424,0.151-0.847,0.182-1.267l-3.367,0.175l-0.084-0.475l3.478-0.149
		c0.004-0.086,0.006-0.221,0.006-0.403v-0.533h-3.334v-0.461H84.393z"/>
	<path fill="#231F20" d="M90.634,128.213h-5.128v-0.475h5.128V128.213z M90.146,126.841h-4.004v-1.827h3.283v-0.806h-3.283v-0.461
		h3.854v1.742h-3.276v0.884h3.426V126.841z"/>
	<path fill="#231F20" d="M94.612,126.951l0.084,0.468c-0.589,0.117-1.491,0.182-2.704,0.195c-0.125,0.004-0.318,0.007-0.578,0.007
		v-3.816h2.678v0.462h-2.106v1.144h1.996v0.468h-1.996v1.254C93.216,127.133,94.092,127.073,94.612,126.951z M95.808,128.96h-0.578
		v-5.681h0.578V128.96z"/>
	<path fill="#231F20" d="M101.879,128.173H96.75v-0.461h1.95v-1.45h0.579v1.45h2.6V128.173z M101.261,123.858v0.741
		c-0.009,0.971-0.086,1.784-0.234,2.438l-0.552-0.065c0.091-0.424,0.151-0.847,0.182-1.267l-3.367,0.175l-0.084-0.475l3.478-0.149
		c0.004-0.086,0.006-0.221,0.006-0.403v-0.533h-3.334v-0.461H101.261z"/>
	<path fill="#231F20" d="M102.575,125.71c0-0.594,0.123-1.076,0.37-1.446s0.611-0.556,1.092-0.556s0.844,0.185,1.088,0.556
		c0.245,0.371,0.368,0.854,0.368,1.453s-0.123,1.083-0.368,1.453c-0.245,0.371-0.607,0.556-1.088,0.556s-0.845-0.187-1.092-0.559
		S102.575,126.308,102.575,125.71z M104.693,126.812c0.152-0.275,0.228-0.64,0.228-1.095s-0.076-0.821-0.228-1.099
		c-0.152-0.277-0.371-0.416-0.656-0.416c-0.282,0-0.499,0.139-0.65,0.416c-0.152,0.277-0.228,0.644-0.228,1.099
		s0.076,0.82,0.228,1.095c0.151,0.275,0.368,0.413,0.65,0.413C104.323,127.225,104.541,127.087,104.693,126.812z M107.059,128.96
		h-0.579v-5.681h0.579V128.96z"/>
	<path fill="#231F20" d="M113.124,128.193h-5.128v-0.468h5.128V128.193z M112.513,126.529h-3.854v-2.691h3.802v0.468h-3.23v1.762
		h3.283V126.529z"/>
	<path fill="#231F20" d="M118.168,128.927h-0.579v-1.742h-2.262v-0.475h5.128v0.475h-2.288V128.927z M119.741,125.073h-3.23v0.618
		h3.347v0.461h-3.919v-2.548h3.88v0.468h-3.308v0.54h3.23V125.073z"/>
	<path fill="#231F20" d="M121.347,127.14c-0.238-0.373-0.357-0.855-0.357-1.449s0.119-1.077,0.357-1.45
		c0.238-0.373,0.591-0.559,1.06-0.559c0.468,0,0.82,0.187,1.056,0.559c0.236,0.373,0.354,0.858,0.354,1.456
		c0,0.594-0.117,1.076-0.354,1.446s-0.588,0.556-1.056,0.556C121.938,127.699,121.585,127.513,121.347,127.14z M123.264,125.697
		c0-0.455-0.075-0.822-0.224-1.102c-0.15-0.28-0.361-0.419-0.634-0.419s-0.482,0.139-0.627,0.416s-0.218,0.646-0.218,1.105
		c0,0.451,0.073,0.815,0.218,1.092s0.354,0.416,0.627,0.416s0.484-0.139,0.634-0.416
		C123.189,126.512,123.264,126.148,123.264,125.697z M125.032,124.969h-1.04l-0.006-0.487h1.046v-1.203h0.572v5.681h-0.572v-2.119
		h-1.046l0.006-0.481h1.04V124.969z"/>
	<path fill="#231F20" d="M129.913,126.269c-0.269,0.052-0.644,0.096-1.125,0.133c-0.48,0.037-0.923,0.055-1.325,0.055h-0.677v-1.684
		h1.957v-0.676h-1.97v-0.461h2.548v1.593h-1.956v0.76h0.11c1.014,0,1.801-0.061,2.359-0.182L129.913,126.269z M130.531,127.117
		c0.329,0.188,0.494,0.447,0.494,0.777c0,0.329-0.165,0.587-0.494,0.773c-0.329,0.186-0.797,0.279-1.404,0.279
		c-0.61,0-1.08-0.093-1.407-0.279c-0.327-0.187-0.49-0.444-0.49-0.773c0-0.334,0.163-0.594,0.49-0.78
		c0.327-0.186,0.797-0.279,1.407-0.279C129.734,126.835,130.202,126.929,130.531,127.117z M130.092,127.459
		c-0.232-0.104-0.554-0.156-0.966-0.156c-0.411,0-0.733,0.053-0.965,0.159c-0.231,0.106-0.348,0.25-0.348,0.433
		c0,0.182,0.116,0.325,0.348,0.429c0.231,0.104,0.554,0.156,0.965,0.156c0.408,0,0.729-0.052,0.963-0.156
		c0.233-0.104,0.351-0.247,0.351-0.429C130.44,127.708,130.324,127.563,130.092,127.459z M131.805,125.353v0.474h-0.846v0.897
		h-0.578v-3.445h0.578v0.852h0.846v0.468h-0.846v0.754H131.805z"/>
</g>
<g>
	<path fill="#231F20" d="M235.369,118.488c-0.039,0.724-0.28,1.342-0.725,1.856c-0.444,0.513-1.048,0.902-1.811,1.167l-0.331-0.468
		c0.563-0.147,1.053-0.411,1.469-0.79c0.416-0.379,0.67-0.809,0.761-1.29h-1.95v-0.475H235.369z M236.662,121.826
		c0.338,0.197,0.507,0.467,0.507,0.809s-0.169,0.611-0.507,0.806c-0.338,0.195-0.815,0.292-1.431,0.292
		c-0.606,0-1.08-0.098-1.42-0.292c-0.34-0.195-0.511-0.464-0.511-0.806s0.171-0.612,0.511-0.809s0.813-0.296,1.42-0.296
		C235.847,121.53,236.325,121.629,236.662,121.826z M235.232,121.999c-0.416,0-0.742,0.056-0.978,0.169
		c-0.236,0.113-0.354,0.269-0.354,0.468s0.118,0.354,0.354,0.465c0.235,0.11,0.562,0.166,0.978,0.166
		c0.43,0,0.762-0.055,0.998-0.166s0.354-0.266,0.354-0.465s-0.118-0.355-0.354-0.468S235.662,121.999,235.232,121.999z
		 M235.375,120.724v-0.461h1.183v-0.689h-1.118v-0.461h1.118v-1.06h0.579v3.517h-0.579v-0.845H235.375z"/>
	<path fill="#231F20" d="M242.578,118.469c0,0.979-0.069,1.809-0.208,2.49h0.857v0.461h-2.281v2.314h-0.578v-2.314h-2.269v-0.461
		h3.705c0.125-0.507,0.188-1.179,0.188-2.015h-3.303v-0.475H242.578z"/>
	<path fill="#231F20" d="M233.237,128.368h0.254c0.953,0,1.691-0.059,2.216-0.176l0.078,0.462c-0.628,0.13-1.476,0.195-2.541,0.195
		h-0.572v-2.555h2.574v0.462h-2.009V128.368z M236.935,130.416c0,0.334-0.167,0.602-0.5,0.803c-0.334,0.202-0.802,0.302-1.404,0.302
		s-1.069-0.1-1.4-0.299c-0.332-0.199-0.498-0.468-0.498-0.806c0-0.342,0.166-0.613,0.498-0.812c0.331-0.199,0.798-0.299,1.4-0.299
		s1.07,0.101,1.404,0.302C236.768,129.808,236.935,130.078,236.935,130.416z M235.993,130.877c0.234-0.112,0.351-0.266,0.351-0.461
		c0-0.195-0.116-0.35-0.351-0.465c-0.234-0.115-0.555-0.172-0.962-0.172s-0.727,0.057-0.959,0.172
		c-0.231,0.115-0.348,0.27-0.348,0.465c0,0.195,0.116,0.349,0.348,0.461c0.232,0.113,0.552,0.169,0.959,0.169
		S235.758,130.99,235.993,130.877z M237.708,127.783h-0.845v1.443h-0.578v-3.374h0.578v1.456h0.845V127.783z"/>
	<path fill="#231F20" d="M238.307,126.639v-0.461h3.12v0.461h-1.274v0.006c0,0.377,0.142,0.713,0.426,1.008
		c0.284,0.294,0.605,0.498,0.965,0.611l-0.318,0.455c-0.269-0.108-0.533-0.274-0.793-0.498c-0.26-0.223-0.448-0.458-0.565-0.705
		c-0.087,0.264-0.272,0.529-0.559,0.793c-0.286,0.265-0.581,0.458-0.885,0.579l-0.338-0.442c0.395-0.147,0.74-0.388,1.037-0.722
		s0.445-0.689,0.445-1.066v-0.02H238.307z M242.954,131.495h-3.92v-1.45h3.146v-0.507h-3.159v-0.461h3.737v1.404h-3.146v0.54h3.341
		V131.495z M242.759,128.771h-0.578v-2.918h0.578V128.771z"/>
	<path fill="#231F20" d="M248.85,130.747h-5.129v-0.461h1.95v-1.45h0.578v1.45h2.601V130.747z M248.232,126.431v0.741
		c-0.009,0.971-0.086,1.784-0.233,2.438l-0.553-0.065c0.091-0.424,0.151-0.847,0.182-1.267l-3.366,0.175l-0.085-0.475l3.478-0.149
		c0.004-0.086,0.007-0.221,0.007-0.403v-0.533h-3.335v-0.461H248.232z"/>
	<path fill="#231F20" d="M254.472,130.786h-5.128v-0.475h5.128V130.786z M253.985,129.415h-4.004v-1.827h3.282v-0.806h-3.282v-0.461
		h3.854v1.742h-3.276v0.884h3.426V129.415z"/>
	<path fill="#231F20" d="M258.451,129.525l0.084,0.468c-0.589,0.117-1.49,0.182-2.704,0.195c-0.125,0.004-0.318,0.007-0.578,0.007
		v-3.816h2.678v0.462h-2.105v1.144h1.995v0.468h-1.995v1.254C257.055,129.707,257.93,129.647,258.451,129.525z M259.646,131.534
		h-0.578v-5.681h0.578V131.534z"/>
	<path fill="#231F20" d="M265.717,130.747h-5.128v-0.461h1.949v-1.45h0.579v1.45h2.6V130.747z M265.1,126.431v0.741
		c-0.009,0.971-0.087,1.784-0.234,2.438l-0.552-0.065c0.091-0.424,0.151-0.847,0.182-1.267l-3.367,0.175l-0.084-0.475l3.478-0.149
		c0.004-0.086,0.006-0.221,0.006-0.403v-0.533h-3.334v-0.461H265.1z"/>
	<path fill="#231F20" d="M266.413,128.284c0-0.594,0.123-1.076,0.37-1.446s0.611-0.556,1.092-0.556c0.481,0,0.844,0.185,1.089,0.556
		s0.367,0.854,0.367,1.453s-0.122,1.083-0.367,1.453c-0.245,0.371-0.607,0.556-1.089,0.556c-0.48,0-0.845-0.187-1.092-0.559
		S266.413,128.882,266.413,128.284z M268.532,129.385c0.152-0.275,0.228-0.64,0.228-1.095s-0.075-0.821-0.228-1.099
		c-0.151-0.277-0.37-0.416-0.656-0.416c-0.281,0-0.498,0.139-0.649,0.416c-0.152,0.277-0.228,0.644-0.228,1.099
		s0.075,0.82,0.228,1.095c0.151,0.275,0.368,0.413,0.649,0.413C268.161,129.798,268.38,129.661,268.532,129.385z M270.898,131.534
		h-0.578v-5.681h0.578V131.534z"/>
	<path fill="#231F20" d="M276.962,130.767h-5.128v-0.468h5.128V130.767z M276.352,129.103h-3.854v-2.691h3.802v0.468h-3.23v1.762
		h3.283V129.103z"/>
	<path fill="#231F20" d="M282.006,131.501h-0.579v-1.742h-2.262v-0.475h5.129v0.475h-2.288V131.501z M283.578,127.647h-3.23v0.618
		h3.348v0.461h-3.919v-2.548h3.88v0.468h-3.309v0.54h3.23V127.647z"/>
	<path fill="#231F20" d="M285.184,129.713c-0.238-0.373-0.357-0.855-0.357-1.449s0.119-1.077,0.357-1.45
		c0.238-0.373,0.592-0.559,1.06-0.559s0.82,0.187,1.056,0.559c0.236,0.373,0.354,0.858,0.354,1.456c0,0.594-0.118,1.076-0.354,1.446
		c-0.235,0.371-0.588,0.556-1.056,0.556S285.422,130.087,285.184,129.713z M287.101,128.271c0-0.455-0.074-0.822-0.224-1.102
		c-0.149-0.28-0.361-0.419-0.634-0.419c-0.273,0-0.482,0.139-0.627,0.416c-0.146,0.277-0.218,0.646-0.218,1.105
		c0,0.451,0.072,0.815,0.218,1.092c0.145,0.277,0.354,0.416,0.627,0.416c0.272,0,0.484-0.139,0.634-0.416
		S287.101,128.721,287.101,128.271z M288.87,127.543h-1.04l-0.007-0.487h1.047v-1.203h0.572v5.681h-0.572v-2.119h-1.047l0.007-0.481
		h1.04V127.543z"/>
	<path fill="#231F20" d="M293.75,128.843c-0.269,0.052-0.644,0.096-1.124,0.133c-0.481,0.037-0.924,0.055-1.326,0.055h-0.676v-1.684
		h1.956v-0.676h-1.97v-0.461h2.548v1.593h-1.956v0.76h0.11c1.014,0,1.801-0.061,2.359-0.182L293.75,128.843z M294.368,129.691
		c0.33,0.188,0.494,0.447,0.494,0.777c0,0.329-0.164,0.587-0.494,0.773c-0.329,0.186-0.797,0.279-1.403,0.279
		c-0.611,0-1.08-0.093-1.407-0.279c-0.327-0.187-0.491-0.444-0.491-0.773c0-0.334,0.164-0.594,0.491-0.78
		c0.327-0.186,0.796-0.279,1.407-0.279C293.571,129.408,294.038,129.503,294.368,129.691z M293.929,130.032
		c-0.231-0.104-0.554-0.156-0.965-0.156c-0.412,0-0.733,0.053-0.966,0.159c-0.231,0.106-0.348,0.25-0.348,0.433
		c0,0.182,0.116,0.325,0.348,0.429c0.232,0.104,0.554,0.156,0.966,0.156c0.407,0,0.728-0.052,0.962-0.156
		c0.233-0.104,0.351-0.247,0.351-0.429C294.277,130.281,294.161,130.136,293.929,130.032z M295.642,127.926v0.474h-0.845v0.897
		h-0.579v-3.445h0.579v0.852h0.845v0.468h-0.845v0.754H295.642z"/>
</g>
<g>
	<path fill="#231F20" d="M215.634,79.904V79.43h3.062v0.474h-1.222v0.267c0,0.381,0.135,0.731,0.403,1.05s0.576,0.53,0.923,0.634
		l-0.318,0.461c-0.256-0.104-0.506-0.272-0.751-0.504c-0.245-0.231-0.426-0.475-0.543-0.731c-0.091,0.273-0.27,0.544-0.536,0.812
		s-0.549,0.464-0.849,0.585l-0.338-0.455c0.382-0.139,0.714-0.383,0.998-0.734s0.426-0.719,0.426-1.105v-0.28H215.634z
		 M220.262,84.448h-3.86v-1.761h0.572v1.293h3.288V84.448z M220.139,83.089h-0.578v-2.132h-1.093v-0.468h1.093v-1.547h0.578V83.089z
		"/>
	<path fill="#231F20" d="M224.539,81.737l-0.331,0.449c-0.277-0.117-0.548-0.3-0.81-0.549s-0.452-0.512-0.568-0.79
		c-0.087,0.299-0.264,0.595-0.53,0.887s-0.549,0.506-0.848,0.64l-0.352-0.449c0.403-0.169,0.742-0.441,1.018-0.815
		c0.275-0.375,0.412-0.779,0.412-1.212v-0.637h0.586v0.611c0,0.429,0.144,0.814,0.432,1.157S224.167,81.608,224.539,81.737z
		 M225.885,84.461h-3.828v-1.774h0.578v1.307h3.25V84.461z M225.762,83.07h-0.579v-4.127h0.579V83.07z"/>
	<path fill="#231F20" d="M226.854,79.833v-0.468h3.106v0.468h-1.241v0.228c0,0.377,0.139,0.718,0.416,1.023
		c0.277,0.306,0.592,0.513,0.942,0.621l-0.318,0.461c-0.26-0.104-0.518-0.27-0.773-0.497c-0.256-0.228-0.439-0.467-0.553-0.718
		c-0.087,0.264-0.271,0.528-0.553,0.793c-0.281,0.264-0.574,0.459-0.877,0.585l-0.325-0.455c0.39-0.139,0.73-0.378,1.021-0.718
		s0.436-0.701,0.436-1.083v-0.24H226.854z M227.581,82.609h3.81v2.015h-0.585v-1.547h-3.225V82.609z M231.384,82.31h-0.578v-1.437
		h-1.054v-0.468h1.054v-1.462h0.578V82.31z"/>
	<path fill="#231F20" d="M218.319,92.43h-0.578v-1.846h-2.262v-0.475h5.128v0.475h-2.288V92.43z M219.977,89.466h-3.881v-2.509
		h0.578v0.806h2.73v-0.806h0.572V89.466z M219.405,89.005v-0.773h-2.73v0.773H219.405z"/>
	<path fill="#231F20" d="M221.147,87.607v-0.475h3.101v0.475h-1.242v0.156c0,0.381,0.134,0.723,0.4,1.024s0.575,0.503,0.926,0.607
		l-0.318,0.462c-0.26-0.104-0.513-0.268-0.757-0.491c-0.245-0.223-0.424-0.463-0.536-0.718c-0.092,0.269-0.271,0.533-0.537,0.793
		c-0.266,0.26-0.549,0.451-0.848,0.572l-0.338-0.448c0.386-0.139,0.719-0.376,1.001-0.712c0.281-0.336,0.422-0.694,0.422-1.076
		v-0.169H221.147z M221.81,90.389h3.679v2.041h-0.572v-1.566h-3.106V90.389z M226.333,88.725h-0.845v1.365h-0.578v-3.348h0.578
		v1.501h0.845V88.725z"/>
	<path fill="#231F20" d="M231.242,87.951c0,0.39-0.228,0.678-0.683,0.865v0.773h1.293v0.468h-5.128v-0.468h1.268v-0.787
		c-0.442-0.186-0.663-0.47-0.663-0.852c0-0.329,0.172-0.588,0.517-0.777s0.824-0.283,1.439-0.283s1.096,0.094,1.439,0.283
		C231.069,87.363,231.242,87.622,231.242,87.951z M230.77,90.636c0.357,0.178,0.536,0.429,0.536,0.754
		c0,0.325-0.179,0.578-0.536,0.757s-0.853,0.27-1.485,0.27c-0.628,0-1.12-0.09-1.476-0.27s-0.533-0.432-0.533-0.757
		c0-0.325,0.178-0.576,0.533-0.754s0.848-0.267,1.476-0.267C229.917,90.369,230.412,90.458,230.77,90.636z M229.285,90.831
		c-0.429,0-0.77,0.049-1.021,0.146s-0.377,0.237-0.377,0.419c0,0.178,0.126,0.314,0.377,0.409c0.251,0.096,0.592,0.143,1.021,0.143
		c0.438,0,0.783-0.047,1.037-0.143c0.253-0.095,0.38-0.231,0.38-0.409c0-0.182-0.128-0.322-0.384-0.419
		C230.063,90.88,229.718,90.831,229.285,90.831z M230.657,87.951c0-0.195-0.122-0.344-0.364-0.448
		c-0.243-0.104-0.579-0.156-1.008-0.156c-0.425,0-0.758,0.053-1.001,0.159c-0.242,0.106-0.364,0.255-0.364,0.445
		c0,0.191,0.122,0.339,0.364,0.445c0.243,0.106,0.576,0.159,1.001,0.159s0.76-0.053,1.004-0.159
		C230.534,88.291,230.657,88.142,230.657,87.951z M229.285,89.017c-0.269,0-0.509-0.02-0.722-0.058v0.63h1.424v-0.624
		C229.766,89,229.532,89.017,229.285,89.017z"/>
</g>
<polyline fill="none" stroke="#231F20" stroke-width="0.5" points="24.451,12.961 24.451,115.461 267.451,115.461 "/>
<polyline fill="#231F20" points="266.722,117.962 271.039,115.469 266.722,112.976 266.722,117.962 "/>
<polyline fill="#231F20" points="26.952,13.69 24.459,9.372 21.966,13.69 26.952,13.69 "/>
<polyline fill="none" stroke="#231F20" stroke-width="0.5" points="215.368,120.461 215.368,126.211 230.785,126.211 "/>
<polyline fill="#231F20" points="217.869,121.191 215.376,116.873 212.883,121.191 217.869,121.191 "/>
<path fill="none" stroke="#9AD4E4" stroke-width="0.5" d="M28.784,115.178c0,0,14.645-0.883,21.333-3.833
	C61.45,106.344,68.45,96.011,77.45,71.678c6.636-17.941,8.667-30.667,23.335-42c16.684-12.892,50.666-12.667,50.666-12.667"/>
<path fill="none" stroke="#009FC2" stroke-width="0.5" d="M58.117,115.178c0,0,14.645-0.883,21.334-3.833
	c11.333-5.001,18.333-15.334,27.333-39.667c6.635-17.941,8.667-30.667,23.333-42c16.684-12.892,50.667-12.667,50.667-12.667"/>
<path fill="none" stroke="#00569F" stroke-width="0.5" d="M75.117,115.178c0,0,14.645-0.883,21.334-3.833
	c11.333-5.001,16.237-7.578,26.666-31.334c6-13.667,7.853-21.473,23.333-31.667c13.667-9,112-8.666,112-8.666"/>
<path fill="none" stroke="#EB3326" stroke-width="0.5" d="M91.785,115.178c0,0,18.2-0.866,25-3.55
	c12.666-5,20.814-8.682,42.666-22.667c27.039-17.305,37-23,52.334-27c19.895-5.19,45.333-5.333,45.333-5.333"/>
<path fill="none" stroke="#850C70" stroke-width="0.5" d="M105.118,115.628c0,0,42.032-3.302,49.333-3.667
	c13.334-0.666,25.729-2.125,51.667-2.666c32-0.667,55-0.109,55-0.109"/>
<g>
	<path fill="#231F20" d="M44.885,12.713c-0.039,0.724-0.281,1.342-0.725,1.856c-0.444,0.513-1.047,0.902-1.81,1.167l-0.332-0.468
		c0.563-0.147,1.053-0.411,1.469-0.79c0.416-0.379,0.669-0.809,0.76-1.29h-1.95v-0.475H44.885z M46.178,16.05
		c0.338,0.197,0.507,0.467,0.507,0.809s-0.169,0.611-0.507,0.806c-0.338,0.195-0.815,0.292-1.43,0.292
		c-0.606,0-1.08-0.098-1.42-0.292c-0.34-0.195-0.51-0.464-0.51-0.806s0.17-0.612,0.51-0.809c0.34-0.197,0.814-0.296,1.42-0.296
		C45.363,15.754,45.84,15.853,46.178,16.05z M44.748,16.223c-0.416,0-0.742,0.056-0.978,0.169c-0.236,0.113-0.354,0.269-0.354,0.468
		s0.118,0.354,0.354,0.465c0.236,0.11,0.562,0.166,0.978,0.166c0.429,0,0.762-0.055,0.998-0.166c0.236-0.11,0.354-0.266,0.354-0.465
		s-0.118-0.355-0.354-0.468C45.51,16.279,45.177,16.223,44.748,16.223z M44.891,14.948v-0.461h1.183v-0.689h-1.118v-0.461h1.118
		v-1.06h0.579v3.517h-0.579v-0.845H44.891z"/>
	<path fill="#231F20" d="M52.743,15.533h-5.128v-0.461h5.128V15.533z M52.509,14.234l-0.253,0.461
		c-0.447-0.065-0.867-0.206-1.261-0.422s-0.667-0.457-0.819-0.722c-0.122,0.269-0.374,0.512-0.757,0.728
		c-0.383,0.217-0.816,0.355-1.297,0.416l-0.253-0.455c0.481-0.039,0.917-0.167,1.31-0.383s0.621-0.487,0.686-0.812h-1.768v-0.468
		h4.167v0.468H50.5c0.078,0.321,0.322,0.591,0.731,0.812S52.067,14.203,52.509,14.234z M52.139,16.931
		c0,0.32-0.171,0.571-0.514,0.75s-0.825,0.27-1.449,0.27c-0.62,0-1.101-0.09-1.443-0.27c-0.343-0.18-0.514-0.43-0.514-0.75
		c0-0.316,0.171-0.564,0.514-0.745c0.342-0.18,0.823-0.27,1.443-0.27c0.624,0,1.107,0.088,1.449,0.263S52.139,16.606,52.139,16.931z
		 M50.176,16.379c-0.42,0-0.753,0.049-0.998,0.146c-0.245,0.097-0.367,0.233-0.367,0.406c0,0.178,0.122,0.314,0.364,0.409
		c0.243,0.096,0.576,0.143,1.001,0.143c0.429,0,0.766-0.047,1.011-0.143c0.245-0.095,0.367-0.231,0.367-0.409
		c0-0.173-0.124-0.309-0.371-0.406C50.936,16.427,50.6,16.379,50.176,16.379z"/>
</g>
<line fill="none" stroke="#9AD4E4" stroke-width="0.5" x1="39.712" y1="16.294" x2="28.564" y2="16.294"/>
<g>
	<path fill="#231F20" d="M46.522,24.801c0,0.325-0.174,0.578-0.523,0.757c-0.349,0.18-0.831,0.27-1.446,0.27s-1.095-0.09-1.44-0.27
		c-0.344-0.18-0.517-0.432-0.517-0.757c0-0.299,0.145-0.535,0.436-0.708c0.29-0.173,0.698-0.273,1.222-0.299v-0.507h-2.262v-0.475
		h5.128v0.475h-2.288v0.5c0.533,0.026,0.948,0.127,1.245,0.302C46.374,24.265,46.522,24.502,46.522,24.801z M46.88,22.038
		l-0.26,0.455c-0.446-0.061-0.864-0.199-1.254-0.416c-0.39-0.216-0.661-0.457-0.812-0.721c-0.122,0.269-0.374,0.51-0.757,0.725
		s-0.816,0.352-1.297,0.413l-0.253-0.448c0.468-0.039,0.894-0.162,1.277-0.367c0.383-0.206,0.619-0.465,0.705-0.777h-1.742v-0.468
		h4.14v0.468h-1.729c0.091,0.308,0.336,0.565,0.735,0.773C46.031,21.882,46.447,22.004,46.88,22.038z M45.56,24.391
		c-0.247-0.095-0.583-0.143-1.007-0.143c-0.425,0-0.758,0.048-1.001,0.143c-0.243,0.096-0.364,0.234-0.364,0.416
		s0.122,0.32,0.364,0.413c0.243,0.093,0.576,0.14,1.001,0.14c0.429,0,0.766-0.047,1.011-0.14c0.245-0.093,0.367-0.231,0.367-0.413
		S45.808,24.487,45.56,24.391z"/>
	<path fill="#231F20" d="M52.743,23.345h-5.128v-0.468h5.128V23.345z M52.139,24.814c0,0.32-0.171,0.571-0.514,0.75
		s-0.825,0.27-1.449,0.27c-0.62,0-1.101-0.09-1.443-0.27c-0.343-0.18-0.514-0.43-0.514-0.75c0-0.316,0.172-0.566,0.517-0.748
		c0.345-0.182,0.825-0.273,1.44-0.273c0.624,0,1.107,0.089,1.449,0.266C51.967,24.237,52.139,24.489,52.139,24.814z M52.119,22.311
		h-3.887V20.4h3.848v0.468h-3.276v0.975h3.315V22.311z M50.176,24.261c-0.42,0-0.753,0.049-0.998,0.146
		c-0.245,0.097-0.367,0.233-0.367,0.406c0,0.178,0.122,0.314,0.364,0.409c0.243,0.096,0.576,0.143,1.001,0.143
		c0.429,0,0.766-0.047,1.011-0.143c0.245-0.095,0.367-0.231,0.367-0.409c0-0.173-0.124-0.309-0.371-0.406
		C50.936,24.31,50.6,24.261,50.176,24.261z"/>
	<path fill="#231F20" d="M58.366,25.119h-5.128v-0.468h2.262v-1.333h-1.651v-2.698h3.913v0.468H54.42v1.761h3.374v0.468h-1.716
		v1.333h2.288V25.119z"/>
</g>
<line fill="none" stroke="#009FC2" stroke-width="0.5" x1="39.712" y1="23.894" x2="28.564" y2="23.894"/>
<g>
	<path fill="#231F20" d="M46.522,32.406c0,0.325-0.174,0.578-0.523,0.757c-0.349,0.18-0.831,0.27-1.446,0.27s-1.095-0.09-1.44-0.27
		c-0.344-0.18-0.517-0.432-0.517-0.757c0-0.299,0.145-0.535,0.436-0.708c0.29-0.173,0.698-0.273,1.222-0.299v-0.507h-2.262v-0.475
		h5.128v0.475h-2.288v0.5c0.533,0.026,0.948,0.127,1.245,0.302C46.374,31.87,46.522,32.108,46.522,32.406z M46.88,29.644
		l-0.26,0.455c-0.446-0.061-0.864-0.199-1.254-0.416c-0.39-0.216-0.661-0.457-0.812-0.721c-0.122,0.269-0.374,0.51-0.757,0.725
		s-0.816,0.352-1.297,0.413l-0.253-0.448c0.468-0.039,0.894-0.162,1.277-0.367c0.383-0.206,0.619-0.465,0.705-0.777h-1.742v-0.468
		h4.14v0.468h-1.729c0.091,0.308,0.336,0.565,0.735,0.773C46.031,29.488,46.447,29.609,46.88,29.644z M45.56,31.997
		c-0.247-0.095-0.583-0.143-1.007-0.143c-0.425,0-0.758,0.048-1.001,0.143c-0.243,0.096-0.364,0.234-0.364,0.416
		s0.122,0.32,0.364,0.413c0.243,0.093,0.576,0.14,1.001,0.14c0.429,0,0.766-0.047,1.011-0.14c0.245-0.093,0.367-0.231,0.367-0.413
		S45.808,32.092,45.56,31.997z"/>
	<path fill="#231F20" d="M52.743,31.022h-5.128V30.56h5.128V31.022z M52.509,29.722l-0.253,0.461
		c-0.447-0.065-0.867-0.206-1.261-0.422s-0.667-0.457-0.819-0.722c-0.122,0.269-0.374,0.512-0.757,0.728
		c-0.383,0.217-0.816,0.355-1.297,0.416l-0.253-0.455c0.481-0.039,0.917-0.167,1.31-0.383s0.621-0.487,0.686-0.812h-1.768v-0.468
		h4.167v0.468H50.5c0.078,0.321,0.322,0.591,0.731,0.812S52.067,29.692,52.509,29.722z M52.139,32.42c0,0.32-0.171,0.571-0.514,0.75
		s-0.825,0.27-1.449,0.27c-0.62,0-1.101-0.09-1.443-0.27c-0.343-0.18-0.514-0.43-0.514-0.75c0-0.316,0.171-0.564,0.514-0.745
		c0.342-0.18,0.823-0.27,1.443-0.27c0.624,0,1.107,0.088,1.449,0.263S52.139,32.094,52.139,32.42z M50.176,31.867
		c-0.42,0-0.753,0.049-0.998,0.146c-0.245,0.097-0.367,0.233-0.367,0.406c0,0.178,0.122,0.314,0.364,0.409
		c0.243,0.096,0.576,0.143,1.001,0.143c0.429,0,0.766-0.047,1.011-0.143c0.245-0.095,0.367-0.231,0.367-0.409
		c0-0.173-0.124-0.309-0.371-0.406C50.936,31.916,50.6,31.867,50.176,31.867z"/>
</g>
<line fill="none" stroke="#00569F" stroke-width="0.5" x1="39.712" y1="31.494" x2="28.564" y2="31.494"/>
<g>
	<path fill="#231F20" d="M42.752,37.894h0.254c0.953,0,1.692-0.059,2.216-0.176l0.078,0.462c-0.628,0.13-1.476,0.195-2.542,0.195
		h-0.572V35.82h2.574v0.462h-2.009V37.894z M46.451,39.942c0,0.334-0.167,0.602-0.5,0.803c-0.334,0.202-0.802,0.302-1.404,0.302
		c-0.602,0-1.069-0.1-1.4-0.299s-0.498-0.468-0.498-0.806c0-0.342,0.166-0.613,0.498-0.812s0.798-0.299,1.4-0.299
		c0.603,0,1.07,0.101,1.404,0.302C46.284,39.334,46.451,39.604,46.451,39.942z M45.509,40.403c0.234-0.112,0.351-0.266,0.351-0.461
		c0-0.195-0.117-0.35-0.351-0.465c-0.234-0.115-0.555-0.172-0.962-0.172c-0.407,0-0.727,0.057-0.958,0.172
		c-0.232,0.115-0.348,0.27-0.348,0.465c0,0.195,0.116,0.349,0.348,0.461c0.232,0.113,0.551,0.169,0.958,0.169
		C44.954,40.572,45.274,40.516,45.509,40.403z M47.224,37.309h-0.845v1.443h-0.578v-3.374h0.578v1.456h0.845V37.309z"/>
	<path fill="#231F20" d="M47.823,36.165v-0.461h3.12v0.461h-1.274v0.006c0,0.377,0.142,0.713,0.426,1.008
		c0.284,0.294,0.605,0.498,0.965,0.611l-0.318,0.455c-0.269-0.108-0.533-0.274-0.793-0.498c-0.26-0.223-0.449-0.458-0.565-0.705
		c-0.087,0.264-0.273,0.529-0.559,0.793c-0.286,0.265-0.581,0.458-0.884,0.579l-0.338-0.442c0.395-0.147,0.74-0.388,1.037-0.722
		c0.297-0.333,0.445-0.689,0.445-1.066v-0.02H47.823z M52.47,41.021h-3.919v-1.45h3.146v-0.507h-3.159v-0.461h3.738v1.404h-3.146
		v0.54h3.341V41.021z M52.275,38.297h-0.579v-2.918h0.579V38.297z"/>
	<path fill="#231F20" d="M58.366,40.273h-5.128v-0.461h1.95v-1.45h0.579v1.45h2.6V40.273z M57.748,35.957v0.741
		c-0.009,0.971-0.086,1.784-0.234,2.438l-0.552-0.065c0.091-0.424,0.151-0.847,0.182-1.267l-3.367,0.175l-0.084-0.475l3.478-0.149
		c0.004-0.086,0.006-0.221,0.006-0.403v-0.533h-3.334v-0.461H57.748z"/>
	<path fill="#231F20" d="M63.988,40.312H58.86v-0.475h5.128V40.312z M63.501,38.941h-4.004v-1.827h3.283v-0.806h-3.283v-0.461h3.854
		v1.742h-3.276v0.884h3.426V38.941z"/>
	<path fill="#231F20" d="M67.966,39.051l0.084,0.468c-0.589,0.117-1.491,0.182-2.704,0.195c-0.125,0.004-0.318,0.007-0.578,0.007
		v-3.816h2.678v0.462H65.34v1.144h1.996v0.468H65.34v1.254C66.571,39.233,67.446,39.172,67.966,39.051z M69.162,41.06h-0.578v-5.681
		h0.578V41.06z"/>
	<path fill="#231F20" d="M75.233,40.273h-5.128v-0.461h1.95v-1.45h0.579v1.45h2.6V40.273z M74.616,35.957v0.741
		c-0.009,0.971-0.086,1.784-0.234,2.438l-0.552-0.065c0.091-0.424,0.151-0.847,0.182-1.267l-3.367,0.175l-0.084-0.475l3.478-0.149
		c0.004-0.086,0.006-0.221,0.006-0.403v-0.533h-3.334v-0.461H74.616z"/>
	<path fill="#231F20" d="M75.929,37.81c0-0.594,0.123-1.076,0.37-1.446s0.611-0.556,1.092-0.556s0.844,0.185,1.088,0.556
		c0.245,0.371,0.368,0.854,0.368,1.453s-0.123,1.083-0.368,1.453c-0.245,0.371-0.607,0.556-1.088,0.556s-0.845-0.187-1.092-0.559
		S75.929,38.408,75.929,37.81z M78.048,38.911c0.152-0.275,0.228-0.64,0.228-1.095s-0.076-0.821-0.228-1.099
		c-0.152-0.277-0.371-0.416-0.656-0.416c-0.282,0-0.499,0.139-0.65,0.416c-0.152,0.277-0.228,0.644-0.228,1.099
		s0.076,0.82,0.228,1.095c0.151,0.275,0.368,0.413,0.65,0.413C77.677,39.324,77.896,39.187,78.048,38.911z M80.414,41.06h-0.579
		v-5.681h0.579V41.06z"/>
	<path fill="#231F20" d="M86.478,40.293H81.35v-0.468h5.128V40.293z M85.868,38.629h-3.854v-2.691h3.802v0.468h-3.23v1.762h3.283
		V38.629z"/>
	<path fill="#231F20" d="M45.821,47.423c-0.408,0.052-1.101,0.104-2.08,0.156c-0.511,0.026-1.077,0.043-1.697,0.052l-0.091-0.494
		c0.715,0,1.341-0.013,1.878-0.039c0.819-0.035,1.462-0.078,1.931-0.13L45.821,47.423z M45.307,44.972
		c0,0.386-0.143,0.698-0.429,0.936c-0.286,0.238-0.639,0.357-1.059,0.357c-0.425,0-0.778-0.12-1.06-0.36
		c-0.282-0.241-0.423-0.552-0.423-0.933c0-0.39,0.142-0.71,0.426-0.962s0.636-0.377,1.057-0.377c0.429,0,0.784,0.124,1.066,0.371
		C45.166,44.251,45.307,44.574,45.307,44.972z M44.742,44.966c0-0.256-0.088-0.461-0.263-0.618c-0.176-0.156-0.396-0.234-0.66-0.234
		c-0.251,0-0.466,0.081-0.644,0.244c-0.178,0.163-0.267,0.365-0.267,0.608c0,0.238,0.088,0.435,0.263,0.588s0.391,0.23,0.647,0.23
		c0.255,0,0.473-0.076,0.653-0.228C44.652,45.406,44.742,45.209,44.742,44.966z M46.126,43.178h0.565v5.681h-0.565V43.178z"/>
	<path fill="#231F20" d="M52.743,46.682h-5.128v-0.474h2.262v-0.871h0.579v0.871h2.288V46.682z M52.509,45.213l-0.253,0.461
		c-0.447-0.065-0.867-0.208-1.261-0.429c-0.395-0.221-0.667-0.463-0.819-0.728c-0.122,0.273-0.374,0.519-0.757,0.738
		c-0.383,0.219-0.816,0.361-1.297,0.426l-0.253-0.461c0.498-0.039,0.947-0.175,1.346-0.41c0.398-0.234,0.62-0.522,0.663-0.864
		h-1.781v-0.468h4.153v0.468h-1.761c0.047,0.338,0.282,0.626,0.702,0.864C51.61,45.048,52.05,45.183,52.509,45.213z M52.197,48.691
		h-3.965v-1.612h0.579v1.151h3.387V48.691z"/>
	<path fill="#231F20" d="M56.494,45.824l-0.338,0.449c-0.273-0.122-0.529-0.293-0.767-0.517c-0.238-0.223-0.412-0.469-0.52-0.738
		c-0.086,0.286-0.257,0.559-0.51,0.819c-0.253,0.26-0.539,0.461-0.854,0.604l-0.358-0.449c0.429-0.182,0.774-0.441,1.034-0.777
		c0.26-0.335,0.39-0.718,0.39-1.147v-0.572h0.585v0.546c0,0.42,0.133,0.791,0.4,1.111C55.821,45.475,56.134,45.698,56.494,45.824z
		 M57.439,46.952c0.336,0.197,0.504,0.467,0.504,0.809s-0.168,0.611-0.504,0.806c-0.336,0.195-0.807,0.292-1.414,0.292
		c-0.603,0-1.072-0.098-1.407-0.292c-0.336-0.195-0.504-0.464-0.504-0.806s0.168-0.612,0.504-0.809
		c0.335-0.197,0.805-0.296,1.407-0.296C56.632,46.656,57.103,46.754,57.439,46.952z M56.026,47.117
		c-0.416,0-0.741,0.058-0.975,0.172S54.7,47.562,54.7,47.761s0.117,0.355,0.351,0.468c0.234,0.112,0.559,0.169,0.975,0.169
		c0.42,0,0.748-0.057,0.981-0.169c0.234-0.113,0.351-0.269,0.351-0.468s-0.117-0.356-0.351-0.471S56.446,47.117,56.026,47.117z
		 M57.319,44.921h-1.092v-0.468h1.092v-1.274h0.579v3.471h-0.579V44.921z"/>
</g>
<line fill="none" stroke="#EB3326" stroke-width="0.5" x1="39.712" y1="39.094" x2="28.564" y2="39.094"/>
<g>
	<path fill="#231F20" d="M42.752,53.103h0.254c0.953,0,1.692-0.059,2.216-0.176l0.078,0.462c-0.628,0.13-1.476,0.195-2.542,0.195
		h-0.572v-2.555h2.574v0.462h-2.009V53.103z M46.451,55.15c0,0.334-0.167,0.602-0.5,0.803c-0.334,0.202-0.802,0.302-1.404,0.302
		c-0.602,0-1.069-0.1-1.4-0.299s-0.498-0.468-0.498-0.806c0-0.342,0.166-0.613,0.498-0.812s0.798-0.299,1.4-0.299
		c0.603,0,1.07,0.101,1.404,0.302C46.284,54.543,46.451,54.813,46.451,55.15z M45.509,55.612c0.234-0.112,0.351-0.266,0.351-0.461
		c0-0.195-0.117-0.35-0.351-0.465c-0.234-0.115-0.555-0.172-0.962-0.172c-0.407,0-0.727,0.057-0.958,0.172
		c-0.232,0.115-0.348,0.27-0.348,0.465c0,0.195,0.116,0.349,0.348,0.461c0.232,0.113,0.551,0.169,0.958,0.169
		C44.954,55.781,45.274,55.725,45.509,55.612z M47.224,52.518h-0.845v1.443h-0.578v-3.374h0.578v1.456h0.845V52.518z"/>
	<path fill="#231F20" d="M47.823,51.374v-0.461h3.12v0.461h-1.274v0.006c0,0.377,0.142,0.713,0.426,1.008
		c0.284,0.294,0.605,0.498,0.965,0.611l-0.318,0.455c-0.269-0.108-0.533-0.274-0.793-0.498c-0.26-0.223-0.449-0.458-0.565-0.705
		c-0.087,0.264-0.273,0.529-0.559,0.793c-0.286,0.265-0.581,0.458-0.884,0.579l-0.338-0.442c0.395-0.147,0.74-0.388,1.037-0.722
		c0.297-0.333,0.445-0.689,0.445-1.066v-0.02H47.823z M52.47,56.23h-3.919v-1.45h3.146v-0.507h-3.159v-0.461h3.738v1.404h-3.146
		v0.54h3.341V56.23z M52.275,53.506h-0.579v-2.918h0.579V53.506z"/>
	<path fill="#231F20" d="M58.366,55.482h-5.128v-0.461h1.95v-1.45h0.579v1.45h2.6V55.482z M57.748,51.166v0.741
		c-0.009,0.971-0.086,1.784-0.234,2.438l-0.552-0.065c0.091-0.424,0.151-0.847,0.182-1.267l-3.367,0.175l-0.084-0.475l3.478-0.149
		c0.004-0.086,0.006-0.221,0.006-0.403v-0.533h-3.334v-0.461H57.748z"/>
	<path fill="#231F20" d="M63.988,55.521H58.86v-0.475h5.128V55.521z M63.501,54.15h-4.004v-1.827h3.283v-0.806h-3.283v-0.461h3.854
		v1.742h-3.276v0.884h3.426V54.15z"/>
	<path fill="#231F20" d="M67.966,54.26l0.084,0.468c-0.589,0.117-1.491,0.182-2.704,0.195c-0.125,0.004-0.318,0.007-0.578,0.007
		v-3.816h2.678v0.462H65.34v1.144h1.996v0.468H65.34v1.254C66.571,54.442,67.446,54.381,67.966,54.26z M69.162,56.269h-0.578v-5.681
		h0.578V56.269z"/>
	<path fill="#231F20" d="M75.233,55.482h-5.128v-0.461h1.95v-1.45h0.579v1.45h2.6V55.482z M74.616,51.166v0.741
		c-0.009,0.971-0.086,1.784-0.234,2.438l-0.552-0.065c0.091-0.424,0.151-0.847,0.182-1.267l-3.367,0.175l-0.084-0.475l3.478-0.149
		c0.004-0.086,0.006-0.221,0.006-0.403v-0.533h-3.334v-0.461H74.616z"/>
	<path fill="#231F20" d="M75.929,53.019c0-0.594,0.123-1.076,0.37-1.446s0.611-0.556,1.092-0.556s0.844,0.185,1.088,0.556
		c0.245,0.371,0.368,0.854,0.368,1.453s-0.123,1.083-0.368,1.453c-0.245,0.371-0.607,0.556-1.088,0.556s-0.845-0.187-1.092-0.559
		S75.929,53.617,75.929,53.019z M78.048,54.12c0.152-0.275,0.228-0.64,0.228-1.095s-0.076-0.821-0.228-1.099
		c-0.152-0.277-0.371-0.416-0.656-0.416c-0.282,0-0.499,0.139-0.65,0.416c-0.152,0.277-0.228,0.644-0.228,1.099
		s0.076,0.82,0.228,1.095c0.151,0.275,0.368,0.413,0.65,0.413C77.677,54.533,77.896,54.396,78.048,54.12z M80.414,56.269h-0.579
		v-5.681h0.579V56.269z"/>
	<path fill="#231F20" d="M86.478,55.502H81.35v-0.468h5.128V55.502z M85.868,53.838h-3.854v-2.691h3.802v0.468h-3.23v1.762h3.283
		V53.838z"/>
	<path fill="#231F20" d="M45.456,62.418l-0.338,0.429c-0.291-0.169-0.576-0.414-0.858-0.734s-0.468-0.633-0.559-0.936
		c-0.087,0.321-0.263,0.646-0.53,0.975c-0.267,0.329-0.569,0.6-0.907,0.812l-0.371-0.422c0.446-0.256,0.81-0.611,1.089-1.066
		c0.279-0.455,0.419-0.944,0.419-1.469v-0.553h-1.3v-0.474h3.146v0.474h-1.254V60c0,0.528,0.137,1.004,0.41,1.427
		C44.677,61.849,45.028,62.179,45.456,62.418z M46.08,60.897h-1.144v-0.488h1.144v-2.021h0.579v5.681H46.08V60.897z"/>
	<path fill="#231F20" d="M50.851,59.759h-3.27v-0.461h3.27V59.759z M50.156,60.236c0.247,0.171,0.371,0.398,0.371,0.68
		s-0.124,0.508-0.371,0.679c-0.247,0.171-0.562,0.256-0.942,0.256c-0.381,0-0.696-0.085-0.943-0.256
		c-0.247-0.171-0.37-0.397-0.37-0.679c0-0.286,0.122-0.514,0.367-0.683c0.245-0.169,0.56-0.253,0.946-0.253
		C49.595,59.98,49.909,60.066,50.156,60.236z M52.067,63.08c0,0.312-0.165,0.556-0.494,0.731c-0.33,0.175-0.797,0.263-1.404,0.263
		c-0.611,0-1.08-0.086-1.407-0.26s-0.491-0.418-0.491-0.735c0-0.316,0.164-0.562,0.491-0.737c0.327-0.176,0.796-0.264,1.407-0.264
		c0.607,0,1.075,0.088,1.404,0.264C51.902,62.518,52.067,62.764,52.067,63.08z M50.046,58.946h-1.651v-0.475h1.651V58.946z
		 M49.737,61.276c0.145-0.093,0.218-0.213,0.218-0.36c0-0.147-0.073-0.268-0.218-0.361s-0.319-0.14-0.523-0.14
		c-0.208,0-0.385,0.047-0.53,0.14c-0.146,0.093-0.218,0.213-0.218,0.361c0,0.147,0.074,0.268,0.221,0.36
		c0.147,0.093,0.323,0.14,0.527,0.14C49.417,61.417,49.592,61.37,49.737,61.276z M51.131,62.681
		c-0.234-0.098-0.555-0.146-0.962-0.146c-0.407,0-0.728,0.049-0.962,0.146c-0.234,0.097-0.351,0.23-0.351,0.399
		c0,0.165,0.116,0.296,0.348,0.394c0.231,0.097,0.553,0.146,0.965,0.146s0.733-0.047,0.965-0.143
		c0.232-0.095,0.348-0.227,0.348-0.396C51.482,62.911,51.365,62.778,51.131,62.681z M52.86,60.578h-0.858v1.489H51.43v-3.679h0.572
		v1.709h0.858V60.578z"/>
	<path fill="#231F20" d="M56.494,61.033l-0.338,0.449c-0.273-0.122-0.529-0.293-0.767-0.517c-0.238-0.223-0.412-0.469-0.52-0.738
		c-0.086,0.286-0.257,0.559-0.51,0.819c-0.253,0.26-0.539,0.461-0.854,0.604l-0.358-0.449c0.429-0.182,0.774-0.441,1.034-0.777
		c0.26-0.335,0.39-0.718,0.39-1.147v-0.572h0.585v0.546c0,0.42,0.133,0.791,0.4,1.111C55.821,60.684,56.134,60.907,56.494,61.033z
		 M57.439,62.161c0.336,0.197,0.504,0.467,0.504,0.809s-0.168,0.611-0.504,0.806c-0.336,0.195-0.807,0.292-1.414,0.292
		c-0.603,0-1.072-0.098-1.407-0.292c-0.336-0.195-0.504-0.464-0.504-0.806s0.168-0.612,0.504-0.809
		c0.335-0.197,0.805-0.296,1.407-0.296C56.632,61.865,57.103,61.963,57.439,62.161z M56.026,62.326
		c-0.416,0-0.741,0.058-0.975,0.172S54.7,62.771,54.7,62.97s0.117,0.355,0.351,0.468c0.234,0.112,0.559,0.169,0.975,0.169
		c0.42,0,0.748-0.057,0.981-0.169c0.234-0.113,0.351-0.269,0.351-0.468s-0.117-0.356-0.351-0.471S56.446,62.326,56.026,62.326z
		 M57.319,60.129h-1.092v-0.468h1.092v-1.274h0.579v3.471h-0.579V60.129z"/>
</g>
<line fill="none" stroke="#850C70" stroke-width="0.5" x1="39.712" y1="54.294" x2="28.564" y2="54.294"/>
<path fill="none" stroke="#00703C" stroke-width="0.25" d="M0,0"/>
<g>
	<path d="M14.231,58.118v2.432h-0.576v-2.432H14.231z M15.319,56.567v5.535h-0.568v-5.535H15.319z M15.867,57.734
		c0.211-0.395,0.503-0.593,0.876-0.593c0.374,0,0.666,0.198,0.876,0.593c0.211,0.395,0.316,0.925,0.316,1.592
		c0,0.661-0.105,1.189-0.316,1.584c-0.21,0.395-0.502,0.592-0.876,0.592c-0.373,0-0.665-0.196-0.876-0.588
		c-0.21-0.392-0.316-0.921-0.316-1.588S15.657,58.129,15.867,57.734z M17.227,58.282c-0.109-0.285-0.271-0.428-0.484-0.428
		s-0.376,0.143-0.488,0.428c-0.112,0.285-0.168,0.633-0.168,1.044c0,0.41,0.056,0.759,0.168,1.044
		c0.112,0.285,0.274,0.428,0.488,0.428s0.375-0.143,0.484-0.428c0.109-0.285,0.164-0.634,0.164-1.044
		C17.391,58.915,17.336,58.567,17.227,58.282z M19.495,56.174v6.312h-0.568v-1.601h-0.848v-0.688h0.848v-1.72h-0.848V57.79h0.848
		v-1.616H19.495z"/>
	<path d="M16.863,49.054v1.072h3.48v0.704h-6.992v-0.704h2.928v-1.072H16.863z M14.055,51.662c1.472,0,2.542,0.077,3.208,0.232
		l-0.088,0.68c-0.587-0.134-1.435-0.2-2.544-0.2v2.937h-0.576V51.662z M18.631,51.206c0.08,0.555,0.149,1.357,0.208,2.408
		c0.032,0.704,0.048,1.373,0.048,2.008l-0.592,0.104c0-0.662-0.005-1.163-0.016-1.505h-2.216v-0.688h2.192
		c-0.048-1.008-0.107-1.755-0.176-2.24L18.631,51.206z"/>
</g>
<g>
</g>
<g>
</g>
<g>
</g>
<g>
</g>
<g>
</g>
<g>
</g>
</svg>
