<?xml version="1.0" encoding="UTF-8"?>
<svg id="_레이어_1" data-name="레이어 1" xmlns="http://www.w3.org/2000/svg" xmlns:xlink="http://www.w3.org/1999/xlink" viewBox="0 0 409.548 258.581">
  <defs>
    <style>
      .cls-1, .cls-2, .cls-3, .cls-4, .cls-5, .cls-6, .cls-7, .cls-8, .cls-9, .cls-10, .cls-11, .cls-12, .cls-13 {
        fill: none;
      }

      .cls-1, .cls-4, .cls-10, .cls-11, .cls-12, .cls-13 {
        stroke-miterlimit: 10;
      }

      .cls-1, .cls-7, .cls-12 {
        stroke: #231f20;
      }

      .cls-14 {
        fill: #ffeca9;
      }

      .cls-14, .cls-15, .cls-16, .cls-17, .cls-8, .cls-18, .cls-19, .cls-20, .cls-21 {
        stroke-width: 0px;
      }

      .cls-22, .cls-23 {
        letter-spacing: -.015em;
      }

      .cls-15 {
        fill: #e7e8e9;
      }

      .cls-2 {
        stroke: #58595b;
        stroke-width: 4px;
      }

      .cls-2, .cls-3, .cls-5, .cls-7, .cls-9 {
        stroke-miterlimit: 8;
      }

      .cls-24 {
        letter-spacing: -.007em;
      }

      .cls-24, .cls-25, .cls-26, .cls-27, .cls-28, .cls-19, .cls-23, .cls-29, .cls-30, .cls-31, .cls-32 {
        fill: #231f20;
      }

      .cls-24, .cls-25, .cls-26, .cls-33, .cls-28, .cls-23, .cls-34, .cls-35, .cls-29, .cls-36, .cls-30, .cls-32 {
        font-family: AppleSDGothicNeoM00, AppleSDGothicNeoM00;
        font-size: 7.5px;
      }

      .cls-3 {
        stroke: #025e7f;
      }

      .cls-16, .cls-36 {
        fill: #c42126;
      }

      .cls-25 {
        letter-spacing: -.071em;
      }

      .cls-4 {
        stroke-dasharray: 0 0 2.957 2.957;
      }

      .cls-4, .cls-12, .cls-13 {
        stroke-width: .5px;
      }

      .cls-4, .cls-13 {
        stroke: #6d6e71;
      }

      .cls-26 {
        letter-spacing: -.016em;
      }

      .cls-17 {
        fill: #58595b;
      }

      .cls-37 {
        clip-path: url(#clippath-2);
      }

      .cls-5 {
        stroke: #c42126;
      }

      .cls-6 {
        stroke-linejoin: round;
      }

      .cls-6, .cls-10 {
        stroke: #c95d19;
        stroke-width: 1.5px;
      }

      .cls-38 {
        letter-spacing: -.006em;
      }

      .cls-18 {
        fill: #c95d19;
      }

      .cls-39 {
        clip-path: url(#clippath-1);
      }

      .cls-9 {
        stroke-width: 3px;
      }

      .cls-9, .cls-11 {
        stroke: #fff;
      }

      .cls-27 {
        font-family: AppleSDGothicNeoEB00, AppleSDGothicNeoEB00;
        font-size: 12px;
      }

      .cls-33, .cls-21 {
        fill: #025e7f;
      }

      .cls-28 {
        letter-spacing: -.022em;
      }

      .cls-20 {
        fill: #f1f2f2;
      }

      .cls-40 {
        clip-path: url(#clippath);
      }

      .cls-41 {
        letter-spacing: -.056em;
      }

      .cls-34, .cls-35 {
        fill: #fff;
      }

      .cls-35 {
        letter-spacing: -.027em;
      }

      .cls-11 {
        stroke-linecap: round;
        stroke-width: .75px;
      }

      .cls-29 {
        letter-spacing: -.063em;
      }

      .cls-30 {
        letter-spacing: -.05em;
      }

      .cls-31 {
        font-family: AppleSDGothicNeoH00, AppleSDGothicNeoH00;
        font-size: 13px;
        letter-spacing: -.025em;
      }
    </style>
    <clipPath id="clippath">
      <rect class="cls-8" x="13.83" y="144.787" width="47.617" height="15.361"/>
    </clipPath>
    <clipPath id="clippath-1">
      <rect class="cls-8" x="13.83" y="144.787" width="47.617" height="15.361"/>
    </clipPath>
    <clipPath id="clippath-2">
      <rect class="cls-8" x="183.989" y="114.789" width="47.616" height="15.362"/>
    </clipPath>
  </defs>
  <rect class="cls-20" width="409.548" height="258.581"/>
  <line class="cls-5" x1="39.277" y1="114.39" x2="39.286" y2="80.562"/>
  <rect class="cls-16" x="36.037" y="80.062" width="6.5" height="1"/>
  <line class="cls-7" x1="20.682" y1="144.619" x2="20.691" y2="85.379"/>
  <polygon class="cls-19" points="22.433 86.567 20.691 80.062 18.947 86.567 22.433 86.567"/>
  <path class="cls-3" d="m46.511,116.773v-23.665c0-3.3,2.7-6,6-6h28.11"/>
  <polygon class="cls-21" points="79.432 88.851 85.937 87.108 79.432 85.365 79.432 88.851"/>
  <path class="cls-14" d="m119.152,200.128c-.159-.749-.225-1.532-.054-2.278.143-.626.449-1.208.834-1.723,1.718-2.294,5.053-3.113,7.735-2.103,2.681,1.012,4.6,3.657,4.989,6.496.404,2.943-1.043,6.248-4.097,7.122-1.217.347-2.395-.142-3.475-.682-1.341-.67-2.601-1.432-3.635-2.532-1.126-1.199-1.953-2.687-2.297-4.3"/>
  <path class="cls-10" d="m119.152,200.128c-.159-.749-.225-1.532-.054-2.278.143-.626.449-1.208.834-1.723,1.718-2.294,5.053-3.113,7.735-2.103,2.681,1.012,4.6,3.657,4.989,6.496.404,2.943-1.043,6.248-4.097,7.122-1.217.347-2.395-.142-3.475-.682-1.341-.67-2.601-1.432-3.635-2.532-1.126-1.199-1.953-2.687-2.297-4.3Z"/>
  <path class="cls-14" d="m133.796,196.502c-.775-1.062-1.773-2.31-1.295-3.534.502-1.289,2.217-1.477,3.6-1.455,1.794.028,3.779.134,5.053,1.397.554.549.91,1.27,1.145,2.013.565,1.788.403,3.904-.828,5.318-1.001,1.15-2.639,1.498-4.09,1.183-1.157-.252-1.611-1.156-2.052-2.166-.425-.971-.907-1.897-1.533-2.756"/>
  <path class="cls-10" d="m133.796,196.502c-.775-1.062-1.773-2.31-1.295-3.534.502-1.289,2.217-1.477,3.6-1.455,1.794.028,3.779.134,5.053,1.397.554.549.91,1.27,1.145,2.013.565,1.788.403,3.904-.828,5.318-1.001,1.15-2.639,1.498-4.09,1.183-1.157-.252-1.611-1.156-2.052-2.166-.425-.971-.907-1.897-1.533-2.756Z"/>
  <path class="cls-14" d="m140.872,203.357c1.254-.063,2.64-.086,3.604.719,1.016.847,1.201,2.437.631,3.632-.57,1.194-1.756,2.007-3.017,2.405-2.461.776-5.084.018-6.657-2.041-1.064-1.393-1.523-3.49.501-4.228,1.515-.552,3.349-.407,4.938-.487"/>
  <path class="cls-10" d="m140.872,203.357c1.254-.063,2.64-.086,3.604.719,1.016.847,1.201,2.437.631,3.632-.57,1.194-1.756,2.007-3.017,2.405-2.461.776-5.084.018-6.657-2.041-1.064-1.393-1.523-3.49.501-4.228,1.515-.552,3.349-.407,4.938-.487Z"/>
  <path class="cls-18" d="m124.956,204.103c.069.05.137.103.201.158,1.055.918,1.47,2.606,2.803,3.028-.316-.101-.826.041-1.161.035-.318-.005-.655-.106-.964-.182-.346-.084-.685-.196-1.015-.331-.679-.276-1.316-.65-1.904-1.088-.423-.315-.867-.622-1.203-1.034-.135-.167-.194-.367-.316-.533-.145-.196-.416-.383-.61-.529.852.642,1.696-.103,2.6-.06.559.026,1.113.21,1.569.536"/>
  <path class="cls-18" d="m133.146,194.962c-.418-.455-.75-.991-.972-1.568.549.733,1.389,1.154,2.18,1.571.398.21.797.422,1.167.68.421.296,1.002.758,1.215,1.221.133.289.159.615.168.933.014.535-.022.94-.166,1.429-.075.254-.025.475.074.718.228.561.673,1.037,1.23,1.277-.079-.034-.332.045-.428.049-.16.005-.32,0-.479-.02-.213-.025-.475-.052-.631-.219-.113-.121-.15-.308-.224-.454-.138-.272-.299-.537-.448-.805-.228-.409-.459-.815-.695-1.219-.467-.802-.95-1.594-1.449-2.376-.158-.248-.355-.461-.479-.728-.058-.122-.1-.215-.184-.326-.239-.314-.476-.62-.675-.964.205.355.849.671,1.198.861.352.191.703.413,1.061.591.08.04.163.076.247.109.515.2,1.078.292,1.489.632"/>
  <path class="cls-18" d="m142.403,205.852c.458-.04.883-.244,1.322-.381.439-.136.942-.197,1.34.033-.028-.015-.066-.357-.082-.407-.043-.135-.102-.265-.172-.388-.147-.254-.346-.477-.573-.664-.472-.389-1.064-.636-1.666-.735-.406-.067-.823-.071-1.233-.052-.251.012-.502.003-.751.028-.202.018-.393.11-.587.12-.245.012-.465-.048-.716.008-.141.032-.511.29-.616.275.55.077,1.077.308,1.511.654.205.163.303.309.416.534.32.637,1.111,1.035,1.807.975"/>
  <g class="cls-40">
    <path class="cls-18" d="m64.136,157.334c-1.623-.232-3.144-1.11-4.774-1.333-2.299.628-6.211.735-8.593.653-4.113-.141-8.119,1.177-12.183,1.822-5.404.856-11.713-.448-16.969-1.964-2.561.394-5.24.751-8.17,1.276l-.019-9.623c3.986-.774,7.996-1.551,12.056-1.628,2.575-.049,5.147.185,7.712.418,3.484.317,8.468.772,11.953,1.089l1.191.511c5.575-.484,11.408-2.045,17.328-1.592"/>
  </g>
  <g class="cls-39">
    <path class="cls-11" d="m13.447,157.702c4.979-.894,9.217-1.391,13.418-2.193,12.269-2.346,24.907-.581,37.271,1.188"/>
    <path class="cls-11" d="m12.937,154.297c2.042-.128,3.636-.327,5.068-.65,3.255-.735,6.583-1.198,9.764-2.204,2.273-.721,5.975-.976,8.721-.634,8.521,1.062,19.09,1.011,27.637,1.828"/>
    <path class="cls-11" d="m36.491,150.809c9.319-2.318,18.518-4.147,27.177-3.484"/>
    <path class="cls-11" d="m46,148.017c-3.484-.317-9.32-.685-12.804-1.002-2.565-.233-5.136-.467-7.712-.418-4.06.077-8.069.855-12.056,1.628"/>
    <path class="cls-11" d="m13.113,151.477c4.774-.896,9.652-.238,14.504-.018"/>
  </g>
  <path class="cls-14" d="m37.319,156.637c0,.459-1.029.83-2.298.83s-2.298-.371-2.298-.83,1.029-.829,2.298-.829,2.298.371,2.298.829"/>
  <path class="cls-14" d="m28.213,148.895c0,.459-1.029.83-2.298.83s-2.298-.371-2.298-.83,1.029-.829,2.298-.829,2.298.371,2.298.829"/>
  <path class="cls-14" d="m57.319,149.659c0,.458-1.029.83-2.298.83s-2.298-.372-2.298-.83,1.029-.83,2.298-.83,2.298.372,2.298.83"/>
  <path class="cls-14" d="m34.349,152.181c.079.451-.872.993-2.122,1.21-1.251.217-2.328.026-2.406-.425-.078-.451.872-.993,2.122-1.21,1.251-.217,2.328-.027,2.406.425"/>
  <path class="cls-14" d="m125.024,205.714c.165-.287-.136-.77-.673-1.078-.536-.309-1.105-.327-1.269-.04-.165.286.136.768.672,1.077.537.309,1.105.327,1.27.041"/>
  <path class="cls-14" d="m143.588,204.587c.053-.326-.399-.672-1.01-.771-.612-.099-1.15.085-1.202.412-.054.326.399.671,1.01.77.611.099,1.149-.085,1.202-.411"/>
  <path class="cls-14" d="m135.609,198.415c.3-.14.331-.708.069-1.27-.261-.56-.716-.902-1.016-.762-.299.139-.33.708-.069,1.268.262.562.717.904,1.016.764"/>
  <path class="cls-14" d="m293.49,200.128c-.16-.749-.226-1.532-.055-2.278.143-.626.45-1.208.835-1.723,1.717-2.294,5.052-3.113,7.734-2.103,2.681,1.012,4.6,3.657,4.99,6.496.404,2.943-1.043,6.248-4.098,7.122-1.217.347-2.395-.142-3.474-.682-1.341-.67-2.602-1.432-3.636-2.532-1.125-1.199-1.952-2.687-2.296-4.3"/>
  <path class="cls-10" d="m293.49,200.128c-.16-.749-.226-1.532-.055-2.278.143-.626.45-1.208.835-1.723,1.717-2.294,5.052-3.113,7.734-2.103,2.681,1.012,4.6,3.657,4.99,6.496.404,2.943-1.043,6.248-4.098,7.122-1.217.347-2.395-.142-3.474-.682-1.341-.67-2.602-1.432-3.636-2.532-1.125-1.199-1.952-2.687-2.296-4.3Z"/>
  <path class="cls-14" d="m308.134,196.502c-.775-1.062-1.773-2.31-1.296-3.534.502-1.289,2.218-1.477,3.601-1.455,1.794.028,3.78.134,5.052,1.397.554.549.911,1.27,1.146,2.013.564,1.788.403,3.904-.828,5.318-1.001,1.15-2.639,1.498-4.09,1.183-1.157-.252-1.611-1.156-2.053-2.166-.425-.971-.905-1.897-1.532-2.756"/>
  <path class="cls-10" d="m308.134,196.502c-.775-1.062-1.773-2.31-1.296-3.534.502-1.289,2.218-1.477,3.601-1.455,1.794.028,3.78.134,5.052,1.397.554.549.911,1.27,1.146,2.013.564,1.788.403,3.904-.828,5.318-1.001,1.15-2.639,1.498-4.09,1.183-1.157-.252-1.611-1.156-2.053-2.166-.425-.971-.905-1.897-1.532-2.756Z"/>
  <path class="cls-14" d="m315.21,203.357c1.254-.063,2.64-.086,3.604.719,1.016.847,1.201,2.437.63,3.632-.57,1.194-1.755,2.007-3.016,2.405-2.461.776-5.084.018-6.657-2.041-1.064-1.393-1.523-3.49.501-4.228,1.514-.552,3.349-.407,4.938-.487"/>
  <path class="cls-10" d="m315.21,203.357c1.254-.063,2.64-.086,3.604.719,1.016.847,1.201,2.437.63,3.632-.57,1.194-1.755,2.007-3.016,2.405-2.461.776-5.084.018-6.657-2.041-1.064-1.393-1.523-3.49.501-4.228,1.514-.552,3.349-.407,4.938-.487Z"/>
  <path class="cls-18" d="m299.294,204.103c.069.05.137.103.201.158,1.055.918,1.47,2.606,2.803,3.028-.316-.101-.826.041-1.161.035-.319-.005-.655-.106-.964-.182-.346-.084-.686-.196-1.015-.331-.679-.276-1.316-.65-1.904-1.088-.423-.315-.867-.622-1.203-1.034-.136-.167-.194-.367-.317-.533-.144-.196-.415-.383-.609-.529.852.642,1.696-.103,2.601-.06.558.026,1.112.21,1.568.536"/>
  <path class="cls-18" d="m307.483,194.962c-.418-.455-.75-.991-.972-1.568.549.733,1.388,1.154,2.18,1.571.397.21.797.422,1.166.68.422.296,1.003.758,1.216,1.221.133.289.159.615.168.933.013.535-.023.94-.166,1.429-.075.254-.025.475.074.718.228.561.673,1.037,1.23,1.277-.08-.034-.333.045-.428.049-.159.005-.321,0-.479-.02-.213-.025-.475-.052-.631-.219-.114-.121-.151-.308-.224-.454-.138-.272-.299-.537-.447-.805-.229-.409-.46-.815-.696-1.219-.468-.802-.951-1.594-1.449-2.376-.158-.248-.355-.461-.48-.728-.056-.122-.099-.215-.183-.326-.239-.314-.477-.62-.675-.964.205.355.85.671,1.198.861.352.191.703.413,1.061.591.08.04.163.076.247.109.515.2,1.078.292,1.489.632"/>
  <path class="cls-18" d="m316.74,205.852c.458-.04.883-.244,1.322-.381.44-.136.942-.197,1.34.033-.028-.015-.066-.357-.082-.407-.043-.135-.101-.265-.172-.388-.146-.254-.346-.477-.572-.664-.473-.389-1.065-.636-1.666-.735-.407-.067-.823-.071-1.234-.052-.25.012-.501.003-.751.028-.202.018-.392.11-.586.12-.245.012-.466-.048-.716.008-.142.032-.512.29-.617.275.55.077,1.077.308,1.511.654.205.163.303.309.416.534.321.637,1.112,1.035,1.807.975"/>
  <path class="cls-14" d="m299.361,205.714c.165-.287-.136-.77-.672-1.078-.537-.309-1.105-.327-1.27-.04-.165.286.136.768.672,1.077.537.309,1.106.327,1.27.041"/>
  <path class="cls-14" d="m317.926,204.587c.053-.326-.399-.672-1.011-.771-.61-.099-1.149.085-1.202.412-.053.326.4.671,1.011.77.611.099,1.149-.085,1.202-.411"/>
  <path class="cls-14" d="m309.946,198.415c.3-.14.33-.708.069-1.27-.261-.56-.716-.902-1.016-.762-.299.139-.33.708-.069,1.268.261.562.716.904,1.016.764"/>
  <path class="cls-14" d="m315.744,199.238c.054-.326-.399-.671-1.01-.771-.611-.098-1.149.085-1.202.413-.053.326.4.67,1.01.769.611.1,1.149-.085,1.202-.411"/>
  <g class="cls-37">
    <path class="cls-18" d="m234.295,127.338c-1.622-.232-3.144-1.11-4.774-1.333-2.299.627-6.211.735-8.593.653-4.113-.141-8.118,1.177-12.183,1.822-5.403.857-11.713-.447-16.969-1.964-2.561.394-5.24.75-8.17,1.276l-.018-9.623c3.985-.774,7.996-1.551,12.056-1.628,2.575-.049,5.146.184,7.711.418,3.484.316,8.778.875,12.262,1.192l1.192.17c5.574-.483,11.098-1.808,17.018-1.354"/>
    <path class="cls-11" d="m183.605,127.705c4.979-.894,9.217-1.39,13.419-2.193,12.268-2.346,24.906-.581,37.27,1.188"/>
    <path class="cls-11" d="m183.096,124.3c2.042-.128,3.636-.327,5.067-.65,3.255-.735,6.584-1.197,9.766-2.204,2.273-.721,5.975-.976,8.721-.634,8.52,1.062,19.09,1.011,27.637,1.828"/>
    <path class="cls-11" d="m206.649,120.812c9.319-2.319,18.518-4.147,27.178-3.484"/>
    <path class="cls-11" d="m216.159,118.02c-3.484-.317-9.32-.684-12.805-1.001-2.564-.233-5.135-.467-7.711-.418-4.059.077-8.07.854-12.055,1.627"/>
    <path class="cls-11" d="m183.271,121.48c4.774-.896,9.651-.238,14.504-.018"/>
  </g>
  <path class="cls-14" d="m207.478,126.641c0,.458-1.029.83-2.298.83s-2.298-.372-2.298-.83,1.029-.83,2.298-.83,2.298.372,2.298.83"/>
  <path class="cls-14" d="m198.372,118.898c0,.458-1.029.83-2.298.83s-2.298-.372-2.298-.83,1.029-.83,2.298-.83,2.298.372,2.298.83"/>
  <path class="cls-14" d="m227.478,119.662c0,.458-1.029.83-2.298.83s-2.298-.372-2.298-.83,1.029-.83,2.298-.83,2.298.372,2.298.83"/>
  <path class="cls-14" d="m204.508,122.184c.079.452-.871.994-2.122,1.21-1.25.217-2.327.027-2.405-.424-.079-.452.871-.994,2.122-1.211,1.25-.217,2.327-.027,2.405.425"/>
  <rect class="cls-15" x="235.702" y="144.475" width="54.443" height="22.322" rx="6" ry="6"/>
  <rect class="cls-15" x="25.095" y="114.688" width="37.444" height="30.322" rx="6" ry="6"/>
  <line class="cls-1" x1="295.681" y1="124.427" x2="241.124" y2="124.427"/>
  <polygon class="cls-19" points="242.313 122.684 235.808 124.427 242.313 126.17 242.313 122.684"/>
  <line class="cls-9" x1="251.532" y1="104.73" x2="251.532" y2="142.107"/>
  <line class="cls-3" x1="251.532" y1="104.73" x2="251.532" y2="136.792"/>
  <polygon class="cls-21" points="249.789 135.603 251.532 142.107 253.275 135.603 249.789 135.603"/>
  <rect class="cls-17" x="230.341" y="82.539" width="42.188" height="22.322" rx="6" ry="6"/>
  <rect class="cls-17" x="76.042" y="122.688" width="51.04" height="22.322" rx="6" ry="6"/>
  <line class="cls-7" x1="110.426" y1="153.134" x2="69.89" y2="153.134"/>
  <polygon class="cls-19" points="71.079 151.391 64.575 153.134 71.079 154.877 71.079 151.391"/>
  <line class="cls-3" x1="290.511" y1="158.938" x2="299.833" y2="158.938"/>
  <polygon class="cls-21" points="298.644 160.681 305.149 158.938 298.644 157.195 298.644 160.681"/>
  <line class="cls-3" x1="261.362" y1="141.619" x2="261.362" y2="131.807"/>
  <polygon class="cls-21" points="263.105 132.996 261.362 126.492 259.619 132.996 263.105 132.996"/>
  <path class="cls-9" d="m289.489,199.704h-20.872c-2.75,0-5-2.25-5-5v-25.739"/>
  <path class="cls-3" d="m289.489,199.704h-20.872c-2.75,0-5-2.25-5-5v-20.424"/>
  <polygon class="cls-21" points="265.36 175.469 263.617 168.964 261.874 175.469 265.36 175.469"/>
  <rect class="cls-12" x="87.632" y="67.598" width="73.34" height="41.489" rx="6" ry="6"/>
  <rect class="cls-12" x="278.26" y="60.597" width="73.34" height="41.489" rx="6" ry="6"/>
  <text class="cls-31" transform="translate(116.979 27.513)"><tspan x="0" y="0">체중조절에 관한 2가지 모델 </tspan></text>
  <text class="cls-25" transform="translate(119.192 103.836)"><tspan x="0" y="0">지방</tspan></text>
  <text class="cls-30" transform="translate(96.58 103.836) scale(.77 1)"><tspan x="0" y="0">탄수화물</tspan></text>
  <text class="cls-32" transform="translate(121.525 156.688)"><tspan x="0" y="0">순환 연료</tspan></text>
  <text class="cls-23" transform="translate(152.147 200.668)"><tspan x="0" y="0">지방</tspan><tspan x="0" y="9">조직</tspan></text>
  <text class="cls-23" transform="translate(330.651 200.668)"><tspan x="0" y="0">지방</tspan><tspan x="0" y="9">조직</tspan></text>
  <text class="cls-32" transform="translate(12.505 167.023)"><tspan x="0" y="0">비지방조직</tspan></text>
  <text class="cls-24" transform="translate(12.815 76.233)"><tspan x="0" y="0">에너지 소비</tspan></text>
  <text class="cls-24" transform="translate(196.074 69.096)"><tspan x="0" y="0">에너지 소비</tspan></text>
  <text class="cls-26" transform="translate(134.995 103.836)"><tspan x="0" y="0">단백질</tspan></text>
  <text class="cls-25" transform="translate(307.533 98.836)"><tspan x="0" y="0">지방</tspan></text>
  <text class="cls-30" transform="translate(284.921 98.836) scale(.77 1)"><tspan x="0" y="0">탄수화물</tspan></text>
  <text class="cls-26" transform="translate(323.336 98.836)"><tspan x="0" y="0">단백질</tspan></text>
  <text class="cls-24" transform="translate(117.392 77.721)"><tspan x="0" y="0">에너지 섭취</tspan></text>
  <text class="cls-35" transform="translate(93.687 131.556)"><tspan x="0" y="0">식후</tspan><tspan x="-3.143" y="9">인슐린</tspan></text>
  <text class="cls-33" transform="translate(209.155 165.463)"><tspan x="0" y="0">인슐린</tspan><tspan x="0" y="9">저항성</tspan></text>
  <text class="cls-33" transform="translate(266.201 181.849)"><tspan x="0" y="0">인슐린</tspan><tspan x="0" y="9">저항성</tspan></text>
  <text class="cls-32" transform="translate(247.913 152.998)"><tspan x="0" y="0">인슐린과 </tspan><tspan x="-3.244" y="9">다른 호르몬</tspan></text>
  <text class="cls-32" transform="translate(28.989 123.336) rotate(.61)"><tspan x="0" y="0">세포내</tspan><tspan x="0" y="9">에너지부족</tspan><tspan x="0" y="18">신호</tspan></text>
  <text class="cls-33" transform="translate(84.164 170.468)"><tspan class="cls-41"><tspan x="0" y="0">연료</tspan></tspan><tspan x="0" y="9">지방조직으로</tspan><tspan x="0" y="18">일부 분배</tspan></text>
  <text class="cls-32" transform="translate(182.939 187.148)"><tspan x="0" y="0">다른</tspan><tspan x="0" y="9">인자들</tspan></text>
  <text class="cls-32" transform="translate(151.326 172.217)"><tspan x="0" y="0">다른</tspan><tspan x="0" y="9">인자들</tspan></text>
  <text class="cls-29" transform="translate(97.401 59.431)"><tspan x="0" y="0">음식 환경</tspan></text>
  <text class="cls-29" transform="translate(300.134 45.126)"><tspan x="0" y="0">음식 환경</tspan></text>
  <line class="cls-9" x1="101.816" y1="62.214" x2="101.816" y2="81.295"/>
  <line class="cls-3" x1="101.816" y1="62.214" x2="101.816" y2="75.979"/>
  <polygon class="cls-21" points="100.073 74.79 101.816 81.295 103.559 74.79 100.073 74.79"/>
  <line class="cls-7" x1="135.007" y1="110.214" x2="135.007" y2="143.946"/>
  <polygon class="cls-19" points="133.264 142.758 135.007 149.262 136.75 142.758 133.264 142.758"/>
  <line class="cls-7" x1="135.007" y1="159.475" x2="135.007" y2="183.601"/>
  <polygon class="cls-19" points="133.264 182.413 135.007 188.917 136.75 182.413 133.264 182.413"/>
  <text class="cls-36" transform="translate(347.824 142.108)"><tspan x="0" y="0">지방량 </tspan><tspan x="0" y="9">임계치를 </tspan><tspan x="0" y="18">초과했을 때 </tspan><tspan x="0" y="27">작동하는 </tspan><tspan x="0" y="36">음성 피드백 신호</tspan></text>
  <line class="cls-2" x1="116.979" y1="151.257" x2="116.979" y2="154.4"/>
  <polygon class="cls-17" points="120.623 153.912 113.334 153.912 116.978 157.556 120.623 153.912"/>
  <path class="cls-14" d="m153.839,84.563c-1.662-2.292-5.726-1.52-7.562.864-1.095,1.42-1.625,2.686-1.948,3.746-.173.293-.802,1.137-2.989,2.722-.568.412-1.332.686-1.88.847-.341-.221-.794-.228-1.142.024-.454.329-.555.962-.226,1.415.101.14.293.16.366.45.073.29.225,1.328.447,1.634.328.453.961.554,1.414.226.238-.173.372-.431.404-.702.115-.239,1.042-1.502,2.079-2.253,2.021-1.466,3.029-1.96,3.484-2.132,1.198.073,2.918.033,4.523-.565,2.82-1.05,4.631-4.067,3.03-6.276"/>
  <path class="cls-10" d="m153.839,84.563c-1.662-2.292-5.726-1.52-7.562.864-1.095,1.42-1.625,2.686-1.948,3.746-.173.293-.802,1.137-2.989,2.722-.568.412-1.332.686-1.88.847-.341-.221-.794-.228-1.142.024-.454.329-.555.962-.226,1.415.101.14.293.16.366.45.073.29.225,1.328.447,1.634.328.453.961.554,1.414.226.238-.173.372-.431.404-.702.115-.239,1.042-1.502,2.079-2.253,2.021-1.466,3.029-1.96,3.484-2.132,1.198.073,2.918.033,4.523-.565,2.82-1.05,4.631-4.067,3.03-6.276Z"/>
  <path class="cls-14" d="m104.756,95.385h-4.636c-1.667,0-3.031-.102-3.031-1.769l.606-5.516s-.598-.664-.606-1.742c-.009-1.209,1.865-1.761,3.031-2.044,1.167-.283,3.272-.254,4.636,0,1.363.254,3.064,1.104,3.031,2.312-.021.764-.606,1.474-.606,1.474l.606,5.516c0,1.667-1.364,1.769-3.031,1.769"/>
  <path class="cls-10" d="m104.756,95.385h-4.636c-1.667,0-3.031-.102-3.031-1.769l.606-5.516s-.598-.664-.606-1.742c-.009-1.209,1.865-1.761,3.031-2.044,1.167-.283,3.272-.254,4.636,0,1.363.254,3.064,1.104,3.031,2.312-.021.764-.606,1.474-.606,1.474l.606,5.516c0,1.667-1.364,1.769-3.031,1.769Z"/>
  <path class="cls-14" d="m127.681,91.789c0,2.914-1.601,4.276-3.575,4.276s-3.574-1.362-3.574-4.276,3.574-8.319,3.574-8.319c0,0,3.575,5.405,3.575,8.319"/>
  <path class="cls-6" d="m127.681,91.789c0,2.914-1.601,4.276-3.575,4.276s-3.574-1.362-3.574-4.276,3.574-8.319,3.574-8.319c0,0,3.575,5.405,3.575,8.319Z"/>
  <path class="cls-6" d="m342.529,76.563c-1.662-2.292-5.727-1.52-7.562.864-1.095,1.42-1.626,2.686-1.948,3.746-.173.293-.802,1.137-2.989,2.722-.568.412-1.332.686-1.881.847-.341-.221-.793-.228-1.142.024-.453.329-.554.962-.226,1.415.102.14.294.16.367.45s.225,1.328.446,1.634c.329.453.961.554,1.414.226.239-.173.373-.431.405-.702.115-.239,1.042-1.502,2.079-2.253,2.021-1.466,3.029-1.96,3.483-2.132,1.199.073,2.919.033,4.524-.565,2.819-1.05,4.631-4.067,3.03-6.276"/>
  <path class="cls-14" d="m293.445,87.385h-4.636c-1.667,0-3.031-.102-3.031-1.769l.606-5.516s-.597-.664-.606-1.742c-.009-1.209,1.865-1.761,3.031-2.044,1.166-.283,3.273-.254,4.636,0s3.064,1.104,3.031,2.312c-.02.764-.606,1.474-.606,1.474l.606,5.516c0,1.667-1.364,1.769-3.031,1.769"/>
  <path class="cls-10" d="m293.445,87.385h-4.636c-1.667,0-3.031-.102-3.031-1.769l.606-5.516s-.597-.664-.606-1.742c-.009-1.209,1.865-1.761,3.031-2.044,1.166-.283,3.273-.254,4.636,0s3.064,1.104,3.031,2.312c-.02.764-.606,1.474-.606,1.474l.606,5.516c0,1.667-1.364,1.769-3.031,1.769Z"/>
  <path class="cls-14" d="m316.371,83.789c0,2.914-1.601,4.276-3.575,4.276s-3.574-1.362-3.574-4.276,3.574-8.319,3.574-8.319c0,0,3.575,5.405,3.575,8.319"/>
  <path class="cls-6" d="m316.371,83.789c0,2.914-1.601,4.276-3.575,4.276s-3.574-1.362-3.574-4.276,3.574-8.319,3.574-8.319c0,0,3.575,5.405,3.575,8.319Z"/>
  <line class="cls-9" x1="150.234" y1="169.384" x2="138.702" y2="169.384"/>
  <line class="cls-3" x1="150.234" y1="169.384" x2="144.018" y2="169.384"/>
  <polygon class="cls-21" points="145.206 167.641 138.702 169.384 145.206 171.127 145.206 167.641"/>
  <line class="cls-2" x1="113.49" y1="77.73" x2="113.49" y2="74.736"/>
  <polygon class="cls-17" points="109.845 75.225 117.134 75.225 113.49 71.581 109.845 75.225"/>
  <line class="cls-2" x1="92.404" y1="103.454" x2="92.404" y2="100.46"/>
  <polygon class="cls-17" points="88.76 100.949 96.049 100.949 92.405 97.305 88.76 100.949"/>
  <line class="cls-2" x1="7.847" y1="70.329" x2="7.815" y2="73.322"/>
  <polygon class="cls-17" points="11.464 72.872 4.175 72.795 7.78 76.477 11.464 72.872"/>
  <line class="cls-2" x1="147.681" y1="200.922" x2="147.681" y2="197.928"/>
  <polygon class="cls-17" points="144.037 198.416 151.326 198.416 147.682 194.772 144.037 198.416"/>
  <line class="cls-2" x1="322.319" y1="200.922" x2="322.319" y2="197.928"/>
  <polygon class="cls-17" points="318.675 198.416 325.964 198.416 322.32 194.772 318.675 198.416"/>
  <text class="cls-32" transform="translate(301.519 119.008)"><tspan x="0" y="0">순환</tspan><tspan x="0" y="9">연료</tspan></text>
  <text class="cls-32" transform="translate(191.824 139.063)"><tspan x="0" y="0">비지방 조직</tspan></text>
  <text class="cls-34" transform="translate(240.529 91.596)"><tspan class="cls-38"><tspan x="0" y="0">에너지</tspan></tspan><tspan class="cls-22"><tspan x="0" y="9">불균형</tspan></tspan></text>
  <line class="cls-1" x1="209.478" y1="113.895" x2="209.487" y2="77.378"/>
  <polygon class="cls-19" points="211.229 78.567 209.488 72.062 207.743 78.567 211.229 78.567"/>
  <text class="cls-24" transform="translate(295.81 70.087)"><tspan x="0" y="0">에너지 섭취</tspan></text>
  <line class="cls-7" x1="309.166" y1="101.666" x2="309.166" y2="106.643"/>
  <polygon class="cls-19" points="307.423 105.455 309.166 111.959 310.909 105.455 307.423 105.455"/>
  <line class="cls-7" x1="309.166" y1="129.852" x2="309.166" y2="182.605"/>
  <polygon class="cls-19" points="307.423 181.417 309.166 187.922 310.909 181.417 307.423 181.417"/>
  <g>
    <line class="cls-2" x1="192.43" y1="65.452" x2="192.43" y2="68.595"/>
    <polygon class="cls-17" points="188.785 65.941 196.074 65.941 192.43 62.297 188.785 65.941"/>
  </g>
  <line class="cls-2" x1="187.362" y1="139.007" x2="187.362" y2="135.864"/>
  <polygon class="cls-17" points="183.718 136.353 191.007 136.353 187.363 132.709 183.718 136.353"/>
  <line class="cls-2" x1="291.532" y1="70.092" x2="291.532" y2="67.098"/>
  <polygon class="cls-17" points="287.888 67.587 295.177 67.587 291.533 63.943 287.888 67.587"/>
  <line class="cls-2" x1="296.489" y1="119.454" x2="296.489" y2="116.46"/>
  <polygon class="cls-17" points="292.845 116.949 300.134 116.949 296.49 113.305 292.845 116.949"/>
  <path class="cls-5" d="m230.256,66.363h12.17c3.3,0,6,2.7,6,6v8.011"/>
  <rect class="cls-16" x="245.176" y="79.874" width="6.5" height="1"/>
  <path class="cls-3" d="m278.234,66.363h-17.745c-3.3,0-6,2.7-6,6v3.195"/>
  <polygon class="cls-21" points="252.746 74.37 254.489 80.874 256.232 74.37 252.746 74.37"/>
  <line class="cls-9" x1="101.816" y1="106.449" x2="101.816" y2="122.045"/>
  <line class="cls-3" x1="101.816" y1="106.449" x2="101.816" y2="116.729"/>
  <polygon class="cls-21" points="100.073 115.539 101.816 122.044 103.559 115.539 100.073 115.539"/>
  <line class="cls-9" x1="311.315" y1="49.057" x2="311.315" y2="59.185"/>
  <line class="cls-3" x1="311.315" y1="49.057" x2="311.315" y2="53.869"/>
  <polygon class="cls-21" points="309.572 52.68 311.315 59.184 313.058 52.68 309.572 52.68"/>
  <path class="cls-5" d="m344.574,104.06v74.606c0,3.3-1.584,7.686-3.521,9.746-1.937,2.059-3.521,3.744-3.521,3.744"/>
  <rect class="cls-16" x="341.324" y="103.56" width="6.5" height="1"/>
  <path class="cls-9" d="m206.865,192.301h30.305c2.75,0,6.313-1.827,7.919-4.06l14.102-19.617"/>
  <path class="cls-3" d="m206.865,192.301h30.305c2.75,0,6.313-1.827,7.919-4.06l11-15.301"/>
  <polygon class="cls-21" points="256.81 174.923 259.191 168.624 253.979 172.888 256.81 174.923"/>
  <path class="cls-9" d="m268.149,142.108l12.088-20.571c1.672-2.846,3.039-7.873,3.039-11.174v-6.803"/>
  <path class="cls-5" d="m268.149,142.108l12.088-20.571c1.672-2.846,3.039-7.873,3.039-11.174v-6.303"/>
  <rect class="cls-16" x="280.026" y="103.56" width="6.5" height="1"/>
  <polyline class="cls-9" points="274.276 142.108 289.404 116.363 289.404 103.56"/>
  <polyline class="cls-3" points="274.276 142.108 289.404 116.363 289.404 108.876"/>
  <polygon class="cls-21" points="291.147 110.065 289.404 103.56 287.661 110.065 291.147 110.065"/>
  <path class="cls-9" d="m100.979,145.177v19.463c0,2.75,2.25,5,5,5h24.319"/>
  <path class="cls-3" d="m100.979,145.177v19.463c0,2.75,2.25,5,5,5h19.003"/>
  <polygon class="cls-21" points="123.793 171.383 130.297 169.64 123.793 167.897 123.793 171.383"/>
  <text class="cls-32" transform="translate(20.743 185.891)"><tspan x="0" y="0">물질이동</tspan></text>
  <text class="cls-32" transform="translate(20.743 195.889)"><tspan x="0" y="0">자극</tspan></text>
  <text class="cls-28" transform="translate(20.743 205.886)"><tspan x="0" y="0">억제</tspan></text>
  <polygon class="cls-19" points="12.815 184.955 19.319 183.212 12.815 181.469 12.815 184.955"/>
  <polygon class="cls-21" points="12.815 194.488 19.319 192.745 12.815 191.002 12.815 194.488"/>
  <rect class="cls-16" x="18.319" y="200.048" width="1" height="6.5"/>
  <path class="cls-3" d="m210.191,149.986s1.067,1.369,2.373,3.043c1.305,1.673,4.622,3.042,7.372,3.042h7.727"/>
  <polygon class="cls-21" points="226.475 157.814 232.979 156.071 226.475 154.328 226.475 157.814"/>
  <path class="cls-3" d="m304.128,129.922v16.383c0,2.75-2.25,5-5,5h-2.621"/>
  <polygon class="cls-21" points="297.696 149.562 291.191 151.305 297.696 153.048 297.696 149.562"/>
  <g>
    <line class="cls-13" x1="178.415" y1="53.81" x2="178.415" y2="55.31"/>
    <line class="cls-4" x1="178.415" y1="58.267" x2="178.415" y2="222.388"/>
    <line class="cls-13" x1="178.415" y1="223.867" x2="178.415" y2="225.367"/>
  </g>
  <text class="cls-27" transform="translate(33.433 244.626)"><tspan x="0" y="0">탄수화물 인슐린 모델</tspan></text>
  <text class="cls-27" transform="translate(231.605 244.626)"><tspan x="0" y="0">에너지 균형 모델</tspan></text>
</svg>