<?xml version="1.0" encoding="UTF-8"?>
<svg id="_레이어_1" data-name="레이어 1" xmlns="http://www.w3.org/2000/svg" xmlns:xlink="http://www.w3.org/1999/xlink" viewBox="0 0 457.178 205.607">
  <defs>
    <style>
      .cls-1 {
        letter-spacing: -.022em;
      }

      .cls-2, .cls-3, .cls-4, .cls-5 {
        font-family: Calibri, Calibri;
      }

      .cls-2, .cls-6 {
        font-size: 6.428px;
      }

      .cls-7 {
        font-size: 9px;
      }

      .cls-7, .cls-8 {
        font-family: AppleSDGothicNeoH00, AppleSDGothicNeoH00;
      }

      .cls-9 {
        fill: #b65457;
      }

      .cls-9, .cls-10, .cls-11, .cls-12, .cls-13, .cls-14, .cls-15, .cls-16, .cls-17 {
        stroke-width: 0px;
      }

      .cls-18 {
        clip-path: url(#clippath-20);
      }

      .cls-19 {
        clip-path: url(#clippath-11);
      }

      .cls-20 {
        letter-spacing: 0em;
      }

      .cls-21 {
        clip-path: url(#clippath-16);
      }

      .cls-22 {
        letter-spacing: .654em;
      }

      .cls-23 {
        letter-spacing: .945em;
      }

      .cls-24 {
        letter-spacing: -.007em;
      }

      .cls-10 {
        fill: #934241;
      }

      .cls-11 {
        fill: #b44f52;
      }

      .cls-25 {
        letter-spacing: .638em;
      }

      .cls-26 {
        letter-spacing: -.025em;
      }

      .cls-27 {
        letter-spacing: 1.719em;
      }

      .cls-28 {
        stroke: #5168a9;
      }

      .cls-28, .cls-29, .cls-30, .cls-14, .cls-31, .cls-32, .cls-33 {
        fill: none;
      }

      .cls-28, .cls-29, .cls-30, .cls-31, .cls-32, .cls-33 {
        stroke-linejoin: round;
      }

      .cls-28, .cls-29, .cls-31, .cls-32 {
        stroke-width: .33px;
      }

      .cls-34 {
        letter-spacing: .004em;
      }

      .cls-35 {
        letter-spacing: -.006em;
      }

      .cls-36 {
        letter-spacing: 0em;
      }

      .cls-29 {
        stroke: #868686;
      }

      .cls-37 {
        letter-spacing: .946em;
      }

      .cls-38 {
        letter-spacing: 0em;
      }

      .cls-39 {
        letter-spacing: -.003em;
      }

      .cls-40 {
        letter-spacing: -.011em;
      }

      .cls-12 {
        fill: #507eb1;
      }

      .cls-41 {
        letter-spacing: -.003em;
      }

      .cls-42 {
        letter-spacing: -.006em;
      }

      .cls-43 {
        clip-path: url(#clippath-2);
      }

      .cls-44 {
        letter-spacing: 0em;
      }

      .cls-45 {
        clip-path: url(#clippath-13);
      }

      .cls-46 {
        letter-spacing: .001em;
      }

      .cls-47 {
        letter-spacing: -.011em;
      }

      .cls-48 {
        letter-spacing: -.011em;
      }

      .cls-49 {
        clip-path: url(#clippath-15);
      }

      .cls-50 {
        letter-spacing: -.011em;
      }

      .cls-51 {
        clip-path: url(#clippath-6);
      }

      .cls-52 {
        letter-spacing: 1.719em;
      }

      .cls-3 {
        font-size: 9.903px;
      }

      .cls-30 {
        stroke: #546aac;
      }

      .cls-30, .cls-33 {
        stroke-linecap: round;
        stroke-width: .99px;
      }

      .cls-53 {
        letter-spacing: -.019em;
      }

      .cls-54 {
        letter-spacing: -.002em;
      }

      .cls-55 {
        clip-path: url(#clippath-7);
      }

      .cls-56 {
        clip-path: url(#clippath-1);
      }

      .cls-57 {
        letter-spacing: -.002em;
      }

      .cls-58 {
        letter-spacing: 0em;
      }

      .cls-59 {
        clip-path: url(#clippath-4);
      }

      .cls-60 {
        letter-spacing: .945em;
      }

      .cls-61 {
        letter-spacing: -.012em;
      }

      .cls-62 {
        letter-spacing: .638em;
      }

      .cls-63 {
        letter-spacing: -.004em;
      }

      .cls-64 {
        letter-spacing: -.033em;
      }

      .cls-65 {
        letter-spacing: -.003em;
      }

      .cls-66 {
        letter-spacing: -.015em;
      }

      .cls-31 {
        stroke: #000;
      }

      .cls-67 {
        letter-spacing: -.007em;
      }

      .cls-68 {
        clip-path: url(#clippath-12);
      }

      .cls-15 {
        fill: #fff;
      }

      .cls-69 {
        letter-spacing: .961em;
      }

      .cls-70 {
        letter-spacing: -.012em;
      }

      .cls-71 {
        letter-spacing: -.001em;
      }

      .cls-72 {
        letter-spacing: -.001em;
      }

      .cls-6, .cls-73 {
        font-family: Calibri-Bold, Calibri;
        font-weight: 700;
      }

      .cls-74 {
        letter-spacing: .791em;
      }

      .cls-75 {
        letter-spacing: -.015em;
      }

      .cls-76 {
        letter-spacing: .945em;
      }

      .cls-77 {
        letter-spacing: -.025em;
      }

      .cls-78 {
        letter-spacing: -.011em;
      }

      .cls-8 {
        fill: #231f20;
        font-size: 5.592px;
      }

      .cls-79 {
        letter-spacing: -.015em;
      }

      .cls-80 {
        letter-spacing: -.023em;
      }

      .cls-81 {
        letter-spacing: -.028em;
      }

      .cls-82 {
        letter-spacing: -.002em;
      }

      .cls-83 {
        letter-spacing: -.011em;
      }

      .cls-84 {
        clip-path: url(#clippath-9);
      }

      .cls-85 {
        letter-spacing: -.019em;
      }

      .cls-86 {
        clip-path: url(#clippath);
      }

      .cls-87, .cls-4 {
        letter-spacing: 0em;
      }

      .cls-32 {
        stroke: #913d3c;
      }

      .cls-88 {
        letter-spacing: 0em;
      }

      .cls-89 {
        letter-spacing: -.015em;
      }

      .cls-90 {
        letter-spacing: -.003em;
      }

      .cls-91 {
        letter-spacing: .932em;
      }

      .cls-92 {
        letter-spacing: .777em;
      }

      .cls-93 {
        clip-path: url(#clippath-19);
      }

      .cls-4, .cls-5, .cls-73 {
        font-size: 6.428px;
      }

      .cls-94 {
        clip-path: url(#clippath-3);
      }

      .cls-95 {
        letter-spacing: .807em;
      }

      .cls-96 {
        clip-path: url(#clippath-8);
      }

      .cls-16 {
        fill: #4c7cb0;
      }

      .cls-97 {
        letter-spacing: .946em;
      }

      .cls-98 {
        letter-spacing: .625em;
      }

      .cls-99 {
        letter-spacing: 0em;
      }

      .cls-100 {
        letter-spacing: 0em;
      }

      .cls-33 {
        stroke: #934241;
      }

      .cls-101 {
        clip-path: url(#clippath-18);
      }

      .cls-102 {
        clip-path: url(#clippath-14);
      }

      .cls-103 {
        clip-path: url(#clippath-17);
      }

      .cls-104 {
        letter-spacing: .002em;
      }

      .cls-105 {
        clip-path: url(#clippath-5);
      }

      .cls-106 {
        letter-spacing: 0em;
      }

      .cls-17 {
        fill: #546aac;
      }

      .cls-107 {
        letter-spacing: 0em;
      }

      .cls-108 {
        letter-spacing: -.003em;
      }

      .cls-109 {
        clip-path: url(#clippath-10);
      }

      .cls-110 {
        letter-spacing: -.002em;
      }

      .cls-111 {
        letter-spacing: 0em;
      }

      .cls-112 {
        letter-spacing: 0em;
      }

      .cls-113 {
        letter-spacing: 1.676em;
      }

      .cls-114 {
        letter-spacing: .654em;
      }

      .cls-115 {
        letter-spacing: .003em;
      }

      .cls-116 {
        letter-spacing: -.011em;
      }

      .cls-117 {
        letter-spacing: -.019em;
      }

      .cls-118 {
        letter-spacing: -.006em;
      }

      .cls-119 {
        letter-spacing: 0em;
      }
    </style>
    <clipPath id="clippath">
      <rect class="cls-14" x="305.849" y="118.034" width="86.359" height="65.869"/>
    </clipPath>
    <clipPath id="clippath-1">
      <rect class="cls-14" x="305.849" y="118.034" width="86.359" height="66.254"/>
    </clipPath>
    <clipPath id="clippath-2">
      <rect class="cls-14" x="168.357" y="118.089" width="86.358" height="65.87"/>
    </clipPath>
    <clipPath id="clippath-3">
      <rect class="cls-14" x="168.357" y="118.089" width="86.358" height="66.201"/>
    </clipPath>
    <clipPath id="clippath-4">
      <rect class="cls-14" x="31.961" y="118.034" width="84.706" height="65.869"/>
    </clipPath>
    <clipPath id="clippath-5">
      <rect class="cls-14" x="31.961" y="118.034" width="84.706" height="65.869"/>
    </clipPath>
    <clipPath id="clippath-6">
      <rect class="cls-14" x="31.961" y="118.034" width="84.706" height="65.869"/>
    </clipPath>
    <clipPath id="clippath-7">
      <rect class="cls-14" x="31.961" y="118.034" width="84.706" height="66.254"/>
    </clipPath>
    <clipPath id="clippath-8">
      <rect class="cls-14" x="310.749" y="9.355" width="83.715" height="65.869"/>
    </clipPath>
    <clipPath id="clippath-9">
      <rect class="cls-14" x="310.749" y="9.355" width="83.715" height="65.869"/>
    </clipPath>
    <clipPath id="clippath-10">
      <rect class="cls-14" x="310.749" y="9.355" width="83.715" height="65.869"/>
    </clipPath>
    <clipPath id="clippath-11">
      <rect class="cls-14" x="310.749" y="9.355" width="83.715" height="65.869"/>
    </clipPath>
    <clipPath id="clippath-12">
      <rect class="cls-14" x="310.749" y="9.356" width="83.715" height="66.253"/>
    </clipPath>
    <clipPath id="clippath-13">
      <rect class="cls-14" x="173.256" y="9.355" width="84.541" height="65.869"/>
    </clipPath>
    <clipPath id="clippath-14">
      <rect class="cls-14" x="173.256" y="9.355" width="84.541" height="65.869"/>
    </clipPath>
    <clipPath id="clippath-15">
      <rect class="cls-14" x="173.256" y="9.355" width="84.541" height="65.869"/>
    </clipPath>
    <clipPath id="clippath-16">
      <rect class="cls-14" x="173.256" y="9.356" width="84.541" height="66.253"/>
    </clipPath>
    <clipPath id="clippath-17">
      <rect class="cls-14" x="35.209" y="9.355" width="85.423" height="65.869"/>
    </clipPath>
    <clipPath id="clippath-18">
      <rect class="cls-14" x="35.209" y="9.355" width="85.423" height="65.869"/>
    </clipPath>
    <clipPath id="clippath-19">
      <rect class="cls-14" x="35.209" y="9.355" width="85.423" height="65.869"/>
    </clipPath>
    <clipPath id="clippath-20">
      <rect class="cls-14" x="35.209" y="9.356" width="85.423" height="66.253"/>
    </clipPath>
  </defs>
  <rect class="cls-15" x="305.849" y="118.088" width="86.029" height="65.87"/>
  <line class="cls-29" x1="305.849" y1="183.958" x2="305.849" y2="118.088"/>
  <line class="cls-29" x1="303.813" y1="183.958" x2="305.849" y2="183.958"/>
  <line class="cls-29" x1="303.813" y1="170.772" x2="305.849" y2="170.772"/>
  <line class="cls-29" x1="303.813" y1="157.588" x2="305.849" y2="157.588"/>
  <line class="cls-29" x1="303.813" y1="144.458" x2="305.849" y2="144.458"/>
  <line class="cls-29" x1="303.813" y1="131.273" x2="305.849" y2="131.273"/>
  <line class="cls-29" x1="303.813" y1="118.088" x2="305.849" y2="118.088"/>
  <line class="cls-29" x1="305.849" y1="183.958" x2="391.878" y2="183.958"/>
  <line class="cls-29" x1="305.849" y1="183.958" x2="305.849" y2="185.991"/>
  <line class="cls-29" x1="320.216" y1="183.958" x2="320.216" y2="185.991"/>
  <line class="cls-29" x1="334.526" y1="183.958" x2="334.526" y2="185.991"/>
  <line class="cls-29" x1="348.89" y1="183.958" x2="348.89" y2="185.991"/>
  <line class="cls-29" x1="363.2" y1="183.958" x2="363.2" y2="185.991"/>
  <line class="cls-29" x1="377.567" y1="183.958" x2="377.567" y2="185.991"/>
  <line class="cls-29" x1="391.878" y1="183.958" x2="391.878" y2="185.991"/>
  <g class="cls-86">
    <line class="cls-31" x1="304.804" y1="118.088" x2="306.895" y2="118.088"/>
    <line class="cls-31" x1="391.878" y1="173.849" x2="391.878" y2="158.523"/>
    <line class="cls-31" x1="390.831" y1="173.849" x2="392.923" y2="173.849"/>
    <line class="cls-31" x1="390.831" y1="158.522" x2="392.923" y2="158.522"/>
    <line class="cls-31" x1="304.804" y1="118.088" x2="306.895" y2="118.088"/>
    <line class="cls-31" x1="391.878" y1="159.401" x2="391.878" y2="145.557"/>
    <line class="cls-31" x1="390.831" y1="159.401" x2="392.923" y2="159.401"/>
    <line class="cls-31" x1="390.831" y1="145.557" x2="392.923" y2="145.557"/>
  </g>
  <g class="cls-56">
    <polyline class="cls-30" points="234.242 102.651 248.552 111.825 262.919 114.518 277.175 116.936 291.54 118.364 305.849 118.088 320.216 140.557 334.525 153.249 348.889 161.104 363.199 166.049 377.566 170.717 391.877 174.014"/>
    <polyline class="cls-33" points="234.242 102.651 248.552 111.825 262.919 114.518 277.175 116.936 291.54 118.364 305.849 118.088 320.216 119.408 334.525 121.989 348.889 124.296 363.199 125.121 377.566 127.374 391.877 128.252"/>
  </g>
  <polyline class="cls-17" points="305.858 116.44 307.446 118.043 305.858 119.627 304.253 118.043 305.858 116.44"/>
  <polygon class="cls-28" points="305.858 116.44 307.446 118.043 305.858 119.627 304.253 118.043 305.858 116.44"/>
  <polyline class="cls-17" points="391.831 165.335 393.419 166.937 391.831 168.521 390.225 166.937 391.831 165.335"/>
  <polygon class="cls-28" points="391.831 165.335 393.419 166.937 391.831 168.521 390.227 166.937 391.831 165.335"/>
  <rect class="cls-10" x="304.253" y="116.441" width="3.193" height="3.186"/>
  <rect class="cls-32" x="304.253" y="116.44" width="3.193" height="3.186"/>
  <rect class="cls-10" x="390.225" y="150.831" width="3.194" height="3.185"/>
  <rect class="cls-32" x="390.227" y="150.831" width="3.192" height="3.185"/>
  <text class="cls-5" transform="translate(289.81 185.787)"><tspan class="cls-71" x="0" y="0">-2.</tspan><tspan x="6.829" y="0">5</tspan></text>
  <text class="cls-4" transform="translate(294.686 172.612)"><tspan x="0" y="0">-2</tspan></text>
  <text class="cls-5" transform="translate(289.81 159.438)"><tspan class="cls-71" x="0" y="0">-1.</tspan><tspan x="6.829" y="0">5</tspan></text>
  <text class="cls-4" transform="translate(294.686 146.263)"><tspan x="0" y="0">-1</tspan></text>
  <text class="cls-5" transform="translate(289.81 133.088)"><tspan class="cls-71" x="0" y="0">-0.</tspan><tspan x="6.829" y="0">5</tspan></text>
  <text class="cls-5" transform="translate(296.651 119.914)"><tspan x="0" y="0">0</tspan></text>
  <text class="cls-5" transform="translate(304.235 194.121)"><tspan class="cls-27" x="0" y="0">012345</tspan><tspan x="85.841" y="0">6</tspan></text>
  <text class="cls-73" transform="translate(286.703 176.34) rotate(-90)"><tspan class="cls-46" x="0" y="0">Δ</tspan><tspan class="cls-63" x="3.72" y="0"> </tspan><tspan class="cls-46" x="5.146" y="0">Bod</tspan><tspan class="cls-41" x="15.674" y="0">y</tspan><tspan class="cls-116" x="18.698" y="0"> </tspan><tspan class="cls-64" x="20.081" y="0">W</tspan><tspan class="cls-88" x="25.693" y="0">ei</tspan><tspan class="cls-63" x="30.515" y="0">g</tspan><tspan class="cls-118" x="33.536" y="0">h</tspan><tspan class="cls-104" x="36.947" y="0">t</tspan><tspan class="cls-40" x="39.188" y="0"> </tspan><tspan class="cls-90" x="40.57" y="0">(</tspan><tspan class="cls-112" x="42.554" y="0">k</tspan><tspan class="cls-39" x="45.633" y="0">g</tspan><tspan class="cls-88" x="48.66" y="0">)</tspan></text>
  <text class="cls-73" transform="translate(333.512 203.318)"><tspan x="0" y="0">Time</tspan><tspan class="cls-50" x="13.225" y="0"> </tspan><tspan x="14.608" y="0">(d</tspan><tspan class="cls-75" x="20.059" y="0">a</tspan><tspan class="cls-61" x="23.136" y="0">y</tspan><tspan x="26.103" y="0">s)</tspan></text>
  <rect class="cls-15" x="168.357" y="118.144" width="86.028" height="65.871"/>
  <line class="cls-29" x1="168.357" y1="184.015" x2="168.357" y2="118.145"/>
  <line class="cls-29" x1="166.321" y1="184.015" x2="168.357" y2="184.015"/>
  <line class="cls-29" x1="166.321" y1="167.533" x2="168.357" y2="167.533"/>
  <line class="cls-29" x1="166.321" y1="151.051" x2="168.357" y2="151.051"/>
  <line class="cls-29" x1="166.321" y1="134.625" x2="168.357" y2="134.625"/>
  <line class="cls-29" x1="166.321" y1="118.144" x2="168.357" y2="118.144"/>
  <line class="cls-29" x1="168.357" y1="184.015" x2="254.385" y2="184.015"/>
  <line class="cls-29" x1="168.357" y1="184.015" x2="168.357" y2="186.046"/>
  <line class="cls-29" x1="182.723" y1="184.015" x2="182.723" y2="186.046"/>
  <line class="cls-29" x1="197.033" y1="184.015" x2="197.033" y2="186.046"/>
  <line class="cls-29" x1="211.398" y1="184.015" x2="211.398" y2="186.046"/>
  <line class="cls-29" x1="225.708" y1="184.015" x2="225.708" y2="186.046"/>
  <line class="cls-29" x1="240.075" y1="184.015" x2="240.075" y2="186.046"/>
  <line class="cls-29" x1="254.385" y1="184.015" x2="254.385" y2="186.046"/>
  <g class="cls-43">
    <line class="cls-31" x1="167.311" y1="134.625" x2="169.403" y2="134.625"/>
    <line class="cls-31" x1="254.385" y1="163.084" x2="254.385" y2="142.481"/>
    <line class="cls-31" x1="253.339" y1="163.084" x2="255.431" y2="163.084"/>
    <line class="cls-31" x1="253.339" y1="142.481" x2="255.431" y2="142.481"/>
    <line class="cls-31" x1="167.311" y1="134.625" x2="169.403" y2="134.625"/>
    <line class="cls-31" x1="254.385" y1="178.082" x2="254.385" y2="130.34"/>
    <line class="cls-31" x1="253.339" y1="178.082" x2="255.431" y2="178.082"/>
    <line class="cls-31" x1="253.339" y1="130.34" x2="255.431" y2="130.34"/>
  </g>
  <g class="cls-94">
    <polyline class="cls-30" points="96.749 134.625 111.06 134.736 125.425 134.351 154.046 134.57 168.357 134.241 182.723 134.9 197.032 136.603 211.397 138.526 225.707 139.9 240.074 141.932 254.384 143.361"/>
    <polyline class="cls-33" points="96.749 134.625 111.06 134.736 125.425 134.351 154.046 134.57 168.357 134.241 182.723 136.549 197.032 139.296 211.397 141.988 225.707 144.186 240.074 146.767 254.384 148.799"/>
  </g>
  <polyline class="cls-17" points="168.366 132.977 169.953 134.58 168.366 136.163 166.761 134.58 168.366 132.977"/>
  <polygon class="cls-28" points="168.366 132.977 169.953 134.58 168.366 136.163 166.761 134.58 168.366 132.977"/>
  <polyline class="cls-17" points="254.337 151.162 255.925 152.765 254.337 154.348 252.733 152.765 254.337 151.162"/>
  <polygon class="cls-28" points="254.337 151.162 255.925 152.765 254.337 154.348 252.733 152.765 254.337 151.162"/>
  <rect class="cls-10" x="166.761" y="132.978" width="3.192" height="3.186"/>
  <rect class="cls-32" x="166.761" y="132.977" width="3.192" height="3.186"/>
  <rect class="cls-10" x="252.733" y="152.59" width="3.192" height="3.186"/>
  <rect class="cls-32" x="252.733" y="152.59" width="3.192" height="3.186"/>
  <text class="cls-2" transform="translate(152.331 185.831)"><tspan class="cls-72" x="0" y="0">-1</tspan><tspan class="cls-54" x="5.213" y="0">.</tspan><tspan x="6.823" y="0">5</tspan></text>
  <text class="cls-2" transform="translate(157.206 169.361)"><tspan class="cls-111" x="0" y="0">-</tspan><tspan x="1.974" y="0">1</tspan></text>
  <text class="cls-2" transform="translate(152.331 152.893)"><tspan class="cls-72" x="0" y="0">-0</tspan><tspan class="cls-54" x="5.213" y="0">.</tspan><tspan x="6.823" y="0">5</tspan></text>
  <text class="cls-2" transform="translate(159.172 136.424)"><tspan x="0" y="0">0</tspan></text>
  <text class="cls-2" transform="translate(154.296 119.955)"><tspan class="cls-54" x="0" y="0">0</tspan><tspan class="cls-115" x="3.245" y="0">.</tspan><tspan x="4.887" y="0">5</tspan></text>
  <text class="cls-2" transform="translate(166.757 194.164)"><tspan class="cls-52" x="0" y="0">012345</tspan><tspan x="85.842" y="0">6</tspan></text>
  <text class="cls-6" transform="translate(149.225 181.44) rotate(-90)"><tspan class="cls-106" x="0" y="0">Δ</tspan><tspan class="cls-108" x="3.719" y="0"> </tspan><tspan class="cls-1" x="5.153" y="0">F</tspan><tspan class="cls-35" x="7.962" y="0">a</tspan><tspan class="cls-106" x="11.096" y="0">t</tspan><tspan class="cls-117" x="13.331" y="0"> </tspan><tspan class="cls-106" x="14.662" y="0">Mass</tspan><tspan class="cls-47" x="28.607" y="0"> </tspan><tspan class="cls-35" x="29.99" y="0">b</tspan><tspan class="cls-65" x="33.4" y="0">y</tspan><tspan class="cls-34" x="36.425" y="0"> </tspan><tspan class="cls-1" x="37.904" y="0">D</tspan><tspan class="cls-108" x="41.814" y="0">X</tspan><tspan class="cls-106" x="45.335" y="0">A</tspan><tspan class="cls-108" x="49.237" y="0" xml:space="preserve"> (</tspan><tspan class="cls-119" x="52.654" y="0">k</tspan><tspan class="cls-65" x="55.739" y="0">g</tspan><tspan x="58.767" y="0">)</tspan></text>
  <text class="cls-6" transform="translate(196.035 203.363)"><tspan x="0" y="0">Time</tspan><tspan class="cls-83" x="13.226" y="0"> </tspan><tspan x="14.608" y="0">(d</tspan><tspan class="cls-89" x="20.06" y="0">a</tspan><tspan class="cls-70" x="23.136" y="0">y</tspan><tspan class="cls-20" x="26.104" y="0">s)</tspan></text>
  <rect class="cls-15" x="31.961" y="118.088" width="84.376" height="65.87"/>
  <line class="cls-29" x1="31.961" y1="183.958" x2="31.961" y2="118.088"/>
  <line class="cls-29" x1="29.925" y1="183.958" x2="31.961" y2="183.958"/>
  <line class="cls-29" x1="29.925" y1="172.97" x2="31.961" y2="172.97"/>
  <line class="cls-29" x1="29.925" y1="161.982" x2="31.961" y2="161.982"/>
  <line class="cls-29" x1="29.925" y1="150.996" x2="31.961" y2="150.996"/>
  <line class="cls-29" x1="29.925" y1="140.063" x2="31.961" y2="140.063"/>
  <line class="cls-29" x1="29.925" y1="129.076" x2="31.961" y2="129.076"/>
  <line class="cls-29" x1="29.925" y1="118.088" x2="31.961" y2="118.088"/>
  <line class="cls-29" x1="31.961" y1="183.958" x2="116.337" y2="183.958"/>
  <line class="cls-29" x1="31.961" y1="183.958" x2="31.961" y2="185.991"/>
  <line class="cls-29" x1="45.996" y1="183.958" x2="45.996" y2="185.991"/>
  <line class="cls-29" x1="60.087" y1="183.958" x2="60.087" y2="185.991"/>
  <line class="cls-29" x1="74.122" y1="183.958" x2="74.122" y2="185.991"/>
  <line class="cls-29" x1="88.212" y1="183.958" x2="88.212" y2="185.991"/>
  <line class="cls-29" x1="102.248" y1="183.958" x2="102.248" y2="185.991"/>
  <line class="cls-29" x1="116.337" y1="183.958" x2="116.337" y2="185.991"/>
  <g class="cls-59">
    <line class="cls-31" x1="30.916" y1="118.088" x2="33.007" y2="118.088"/>
  </g>
  <line class="cls-31" x1="45.996" y1="120.396" x2="45.996" y2="118.968"/>
  <line class="cls-31" x1="45.006" y1="120.396" x2="47.043" y2="120.396"/>
  <line class="cls-31" x1="45.006" y1="118.967" x2="47.043" y2="118.967"/>
  <line class="cls-31" x1="88.212" y1="136.547" x2="88.212" y2="130.065"/>
  <line class="cls-31" x1="87.166" y1="136.547" x2="89.258" y2="136.547"/>
  <line class="cls-31" x1="87.166" y1="130.065" x2="89.258" y2="130.065"/>
  <g class="cls-105">
    <line class="cls-31" x1="116.337" y1="149.512" x2="116.337" y2="140.558"/>
    <line class="cls-31" x1="115.292" y1="149.512" x2="117.383" y2="149.512"/>
    <line class="cls-31" x1="115.292" y1="140.557" x2="117.383" y2="140.557"/>
    <line class="cls-31" x1="30.915" y1="118.088" x2="33.006" y2="118.088"/>
  </g>
  <line class="cls-31" x1="45.996" y1="122.978" x2="45.996" y2="121.825"/>
  <line class="cls-31" x1="45.006" y1="122.978" x2="47.043" y2="122.978"/>
  <line class="cls-31" x1="45.006" y1="121.825" x2="47.043" y2="121.825"/>
  <line class="cls-31" x1="88.212" y1="154.346" x2="88.212" y2="144.403"/>
  <line class="cls-31" x1="87.166" y1="154.346" x2="89.258" y2="154.346"/>
  <line class="cls-31" x1="87.166" y1="144.403" x2="89.258" y2="144.403"/>
  <g class="cls-51">
    <line class="cls-31" x1="116.337" y1="176.872" x2="116.337" y2="160.994"/>
    <line class="cls-31" x1="115.292" y1="176.872" x2="117.383" y2="176.872"/>
    <line class="cls-31" x1="115.292" y1="160.994" x2="117.383" y2="160.994"/>
  </g>
  <g class="cls-55">
    <polyline class="cls-30" points="31.961 118.088 45.996 120.176 88.212 134.955 116.337 146.437"/>
    <polyline class="cls-33" points="31.961 118.088 45.996 122.538 88.212 148.415 116.337 164.84"/>
  </g>
  <polyline class="cls-17" points="31.916 116.44 33.502 118.043 31.916 119.627 30.311 118.043 31.916 116.44"/>
  <polygon class="cls-28" points="31.916 116.44 33.502 118.043 31.916 119.627 30.311 118.043 31.916 116.44"/>
  <polyline class="cls-17" points="46.006 118.088 47.593 119.691 46.006 121.275 44.401 119.691 46.006 118.088"/>
  <polygon class="cls-28" points="46.006 118.088 47.593 119.691 46.006 121.275 44.401 119.691 46.006 118.088"/>
  <polyline class="cls-17" points="88.166 131.713 89.753 133.315 88.166 134.899 86.561 133.315 88.166 131.713"/>
  <polygon class="cls-28" points="88.166 131.713 89.753 133.315 88.166 134.899 86.561 133.315 88.166 131.713"/>
  <polyline class="cls-17" points="116.292 143.414 117.878 145.017 116.292 146.601 114.687 145.017 116.292 143.414"/>
  <polygon class="cls-28" points="116.292 143.414 117.879 145.017 116.292 146.601 114.687 145.017 116.292 143.414"/>
  <rect class="cls-10" x="30.31" y="116.441" width="3.192" height="3.186"/>
  <rect class="cls-32" x="30.31" y="116.44" width="3.192" height="3.186"/>
  <rect class="cls-10" x="44.401" y="120.78" width="3.192" height="3.186"/>
  <rect class="cls-32" x="44.401" y="120.78" width="3.192" height="3.186"/>
  <rect class="cls-10" x="86.561" y="147.754" width="3.192" height="3.186"/>
  <rect class="cls-32" x="86.561" y="147.754" width="3.192" height="3.186"/>
  <rect class="cls-10" x="114.687" y="167.312" width="3.192" height="3.185"/>
  <rect class="cls-32" x="114.687" y="167.312" width="3.192" height="3.185"/>
  <text class="cls-5" transform="translate(14.284 185.787)"><tspan class="cls-71" x="0" y="0">-60</tspan><tspan x="8.464" y="0">0</tspan></text>
  <text class="cls-5" transform="translate(14.284 174.808)"><tspan class="cls-71" x="0" y="0">-50</tspan><tspan x="8.464" y="0">0</tspan></text>
  <text class="cls-5" transform="translate(14.284 163.83)"><tspan class="cls-71" x="0" y="0">-40</tspan><tspan x="8.464" y="0">0</tspan></text>
  <text class="cls-5" transform="translate(14.284 152.85)"><tspan class="cls-71" x="0" y="0">-30</tspan><tspan x="8.464" y="0">0</tspan></text>
  <text class="cls-5" transform="translate(14.284 141.872)"><tspan class="cls-71" x="0" y="0">-20</tspan><tspan x="8.464" y="0">0</tspan></text>
  <text class="cls-5" transform="translate(14.284 130.893)"><tspan class="cls-71" x="0" y="0">-10</tspan><tspan x="8.464" y="0">0</tspan></text>
  <text class="cls-5" transform="translate(22.758 119.914)"><tspan x="0" y="0">0</tspan></text>
  <text class="cls-5" transform="translate(30.343 194.121)"><tspan class="cls-113" x="0" y="0">012345</tspan><tspan x="84.183" y="0">6</tspan></text>
  <path class="cls-13" d="m9.485,119.86c.238,0,.47.013.702.039.225.032.457.071.683.129.225.058.444.128.67.212.219.083.438.18.657.295.013.006.026.019.039.032.013.019.019.039.026.064.006.032.013.064.019.109.006.039.006.09.006.148,0,.09-.006.154-.013.199-.006.051-.019.083-.039.109-.013.019-.039.032-.058.032-.026,0-.058-.006-.09-.019-.406-.173-.831-.308-1.269-.405-.431-.09-.876-.135-1.339-.135-.457,0-.901.045-1.333.135-.438.09-.856.225-1.269.405-.026.013-.052.013-.071.013-.026-.006-.045-.019-.058-.045s-.026-.064-.032-.109-.013-.109-.013-.186c0-.064,0-.116.006-.161,0-.039.006-.077.013-.103.006-.026.019-.045.026-.058.006-.013.019-.019.026-.026.444-.218.889-.385,1.333-.501.451-.116.908-.173,1.378-.173Zm-2.608,5.031c.412.173.831.308,1.269.398.431.09.876.135,1.333.135.464,0,.908-.045,1.339-.135.431-.096.856-.225,1.269-.398.032-.013.064-.019.09-.019.019,0,.045.013.058.032.019.026.032.064.039.109.006.045.013.109.013.199,0,.058,0,.109-.006.148-.006.045-.013.077-.019.109-.006.026-.013.045-.026.064-.013.013-.026.026-.039.032-.219.116-.438.212-.657.295-.225.084-.444.154-.67.206-.225.058-.457.096-.683.129-.232.026-.464.039-.702.039-.232,0-.464-.013-.695-.045-.225-.026-.457-.071-.683-.122-.225-.058-.444-.128-.67-.212-.219-.083-.444-.18-.663-.289-.006-.006-.019-.013-.026-.026s-.019-.032-.026-.058-.013-.058-.013-.103c-.006-.039-.006-.096-.006-.161,0-.077.006-.141.013-.186.006-.051.019-.083.032-.109s.032-.039.058-.045c.019,0,.045,0,.071.013Zm4.192,16.296c.026,0,.045.006.058.019.013.013.026.032.039.064.013.026.019.071.026.122s.006.109.006.186,0,.141-.006.193-.013.096-.026.122c-.013.032-.026.051-.039.064-.013.013-.032.019-.058.019h-1.597c-.135,0-.245.013-.322.032-.077.019-.142.045-.2.083-.058.039-.097.083-.129.148-.032.058-.045.129-.045.206,0,.103.039.199.109.302s.18.212.322.321h1.861c.026,0,.045.006.058.019.013.013.026.032.039.064s.019.071.026.122.006.109.006.186c0,.083,0,.141-.006.193s-.013.09-.026.122c-.013.032-.026.051-.039.064-.013.013-.032.019-.058.019h-4.134c-.019,0-.039-.006-.058-.019-.013-.013-.032-.032-.039-.064-.013-.032-.026-.071-.032-.122s-.006-.109-.006-.193c0-.077,0-.135.006-.186s.019-.09.032-.122c.006-.032.026-.051.039-.064.019-.013.039-.019.058-.019h1.552c-.135-.135-.232-.276-.303-.418-.064-.141-.097-.289-.097-.437,0-.193.032-.353.097-.482.058-.135.148-.238.258-.321.109-.077.232-.135.38-.173.148-.032.322-.051.528-.051h1.719Zm0,30.827c.026,0,.045.006.058.019s.026.032.039.064.019.071.026.122.006.109.006.186c0,.083,0,.141-.006.193s-.013.09-.026.122c-.013.032-.026.051-.039.064-.013.013-.032.019-.058.019h-4.134c-.019,0-.039-.006-.058-.019-.013-.013-.032-.032-.039-.064-.013-.032-.026-.071-.032-.122s-.006-.109-.006-.193c0-.077,0-.135.006-.186s.019-.09.032-.122c.006-.032.026-.051.039-.064.019-.013.039-.019.058-.019h4.134Zm-3.748-6.961c.155,0,.264.032.328.096.058.064.09.186.09.36,0,.18-.032.302-.09.366-.058.058-.161.09-.316.09-.161,0-.27-.032-.335-.096-.058-.064-.09-.186-.09-.36,0-.18.032-.302.09-.36.058-.064.167-.096.322-.096Zm3.239-20.635c.058,0,.103,0,.135.006.039,0,.071.006.097.013.026.006.052.013.071.026.019.006.039.026.064.051.019.019.052.064.09.128.039.071.071.148.103.244.039.096.064.206.09.328.019.122.032.25.032.392,0,.283-.045.533-.129.758-.084.218-.212.411-.386.565-.167.161-.38.276-.637.36-.258.084-.554.128-.895.128s-.65-.045-.921-.135c-.264-.096-.489-.225-.676-.385-.18-.167-.316-.366-.412-.597s-.142-.482-.142-.764c0-.109.006-.218.026-.328.019-.103.045-.199.077-.289.032-.083.064-.167.103-.238.045-.071.077-.122.103-.148.032-.032.052-.051.071-.058.019-.013.045-.019.077-.026.026-.006.058-.013.103-.013.039-.006.084-.006.142-.006.064,0,.116,0,.161.006.045.006.084.013.109.019.026.013.045.026.058.039.013.019.019.032.019.051,0,.032-.019.071-.058.122-.032.045-.077.109-.122.186-.039.071-.084.167-.116.27-.039.103-.058.231-.058.379,0,.161.032.302.097.43.071.122.161.231.283.321s.27.154.444.199.373.071.586.071c.245,0,.451-.026.625-.071.174-.051.316-.122.431-.212.109-.09.193-.199.251-.328s.084-.276.084-.437c0-.148-.019-.27-.052-.379-.032-.103-.071-.199-.116-.27-.039-.077-.077-.141-.109-.193-.032-.045-.052-.083-.052-.109s.006-.039.013-.051c.006-.013.026-.026.052-.032.026-.006.058-.013.103-.019.045-.006.109-.006.18-.006Zm0,41.102c.058,0,.103,0,.135.006.039,0,.071.006.097.013.026.006.052.013.071.026.019.006.039.026.064.051.019.019.052.064.09.128.039.071.071.148.103.244.039.096.064.206.09.328.019.122.032.251.032.392,0,.283-.045.533-.129.758-.084.218-.212.411-.386.565-.167.161-.38.276-.637.36-.258.084-.554.128-.895.128s-.65-.045-.921-.135c-.264-.096-.489-.225-.676-.385-.18-.167-.316-.366-.412-.597s-.142-.482-.142-.764c0-.109.006-.218.026-.328.019-.103.045-.199.077-.289.032-.083.064-.167.103-.238.045-.071.077-.122.103-.148.032-.032.052-.051.071-.058.019-.013.045-.019.077-.026.026-.006.058-.013.103-.013.039-.006.084-.006.142-.006.064,0,.116,0,.161.006.045.006.084.013.109.019.026.013.045.026.058.039.013.019.019.032.019.051,0,.032-.019.071-.058.122-.032.045-.077.109-.122.186-.039.071-.084.167-.116.27-.039.103-.058.231-.058.379,0,.161.032.302.097.43.071.122.161.231.283.321s.27.154.444.199c.174.045.373.071.586.071.245,0,.451-.026.625-.071.174-.051.316-.122.431-.212.109-.09.193-.199.251-.328s.084-.276.084-.437c0-.148-.019-.27-.052-.379-.032-.103-.071-.199-.116-.27-.039-.077-.077-.141-.109-.193-.032-.045-.052-.083-.052-.109s.006-.039.013-.051c.006-.013.026-.026.052-.032s.058-.013.103-.019c.045-.006.109-.006.18-.006Zm-3.11-31.016c.064,0,.116,0,.155.006.045.006.077.013.103.026.026.013.045.026.058.039.013.019.019.032.019.051v1.33h1.095v-1.246c0-.019.006-.039.013-.051.013-.013.032-.026.058-.039.026-.013.058-.019.097-.026.045-.006.097-.006.161-.006s.116,0,.155.006c.045.006.077.013.103.026.032.013.052.026.058.039.013.013.019.032.019.051v1.246h1.513c.026,0,.045.006.064.019.013.013.032.032.039.064.013.032.026.077.032.128,0,.051.006.122.006.199,0,.084-.006.148-.006.206-.006.051-.019.09-.032.122-.006.032-.026.058-.039.071-.019.013-.039.019-.064.019h-3.683c-.097,0-.161-.026-.2-.071-.045-.045-.064-.103-.064-.173v-1.914c0-.019.006-.032.019-.051.006-.013.026-.026.052-.039.032-.013.064-.019.109-.026s.097-.006.161-.006Zm3.348-5.275c.09,0,.161.006.212.019.045.006.084.026.103.045.019.019.039.045.052.084.013.032.032.077.039.128.013.045.026.103.032.161,0,.058.006.116.006.173,0,.154-.019.289-.058.405-.039.116-.103.212-.187.289s-.187.128-.309.167c-.129.032-.277.051-.451.051h-1.436v.34c0,.039-.026.071-.077.09-.045.019-.129.032-.245.032-.058,0-.109,0-.155-.006s-.077-.013-.097-.026c-.026-.013-.045-.026-.058-.039-.006-.019-.013-.032-.013-.058v-.334h-.625c-.026,0-.045-.006-.058-.019-.019-.006-.032-.032-.045-.064-.013-.026-.019-.071-.026-.122s-.006-.109-.006-.186,0-.141.006-.193.013-.096.026-.122c.013-.032.026-.051.045-.064.013-.013.032-.019.058-.019h.625v-.61c0-.019.006-.039.013-.051.013-.013.032-.032.058-.039.019-.013.052-.019.097-.026s.097-.006.155-.006c.116,0,.2.013.245.032.052.019.077.051.077.09v.61h1.32c.148,0,.264-.026.341-.071.077-.051.116-.135.116-.257,0-.045-.006-.077-.013-.116-.006-.032-.013-.064-.026-.09-.006-.026-.013-.045-.026-.064-.006-.019-.006-.032-.006-.045s0-.026.006-.039c.013-.013.026-.019.045-.026.026-.006.052-.013.09-.019s.09-.006.148-.006Zm-2.64,16.12c0-.09.019-.154.058-.186s.09-.051.161-.051h2.692c.026,0,.045.006.058.019.013.013.026.032.039.064.013.026.019.071.026.122s.006.109.006.186,0,.141-.006.193-.013.096-.026.122c-.013.032-.026.051-.039.064s-.032.019-.058.019h-2.267v1.253h1.32c.148,0,.264-.026.341-.071.077-.051.116-.135.116-.257,0-.045-.006-.077-.013-.116-.006-.032-.013-.064-.026-.09-.006-.026-.013-.045-.026-.064-.006-.019-.006-.032-.006-.045s0-.026.006-.039c.013-.013.026-.019.045-.026.026-.006.052-.013.09-.019.039-.006.09-.006.148-.006.09,0,.161.006.206.013.045.013.084.026.103.045.026.019.045.051.058.083.013.039.032.084.039.135.013.045.026.103.032.161,0,.058.006.116.006.173,0,.154-.019.289-.058.405-.039.116-.103.212-.187.289s-.187.128-.309.167c-.129.032-.277.051-.451.051h-1.436v.341c0,.039-.026.071-.077.09-.045.019-.129.032-.245.032-.058,0-.109,0-.155-.006s-.077-.013-.097-.026c-.026-.013-.045-.026-.058-.039-.006-.019-.013-.032-.013-.058v-.334h-.625c-.026,0-.045-.006-.058-.019-.019-.006-.032-.032-.045-.064-.013-.026-.019-.071-.026-.122s-.006-.109-.006-.186,0-.141.006-.193.013-.096.026-.122c.013-.032.026-.051.045-.064.013-.013.032-.019.058-.019h.625v-1.805Zm1.43-37.149c.097,0,.167.019.212.064.045.045.071.103.071.18v1.702c.116,0,.225-.013.322-.045.097-.026.18-.071.251-.135.064-.058.116-.141.155-.238.032-.096.052-.212.052-.347,0-.141-.013-.257-.032-.366-.019-.103-.039-.193-.064-.27s-.045-.141-.064-.186c-.019-.051-.032-.096-.032-.122,0-.019.006-.039.013-.051.006-.013.019-.019.039-.032.019-.006.045-.013.077-.013.039-.006.077-.006.129-.006h.122c.032.006.058.006.084.013.019.006.039.013.058.019.013.006.026.019.045.032.013.013.032.051.058.109.026.064.052.141.077.231.026.096.045.206.064.328s.026.25.026.385c0,.251-.032.469-.097.655-.058.186-.155.34-.283.469-.129.122-.29.218-.483.283-.193.058-.425.09-.689.09-.245,0-.47-.032-.67-.096-.2-.064-.373-.161-.509-.283-.142-.122-.251-.276-.322-.45-.071-.18-.109-.379-.109-.597,0-.238.032-.437.103-.604s.167-.302.29-.411c.122-.103.264-.18.431-.231.174-.051.354-.077.547-.077h.129Zm1.481,6.341c.026,0,.045.006.058.019.013.013.026.032.039.064.013.026.019.071.026.122s.006.109.006.186,0,.141-.006.193-.013.096-.026.122c-.013.032-.026.051-.039.064-.013.013-.032.019-.058.019h-1.597c-.135,0-.245.013-.322.032-.077.019-.142.045-.2.084-.058.039-.097.083-.129.148-.032.058-.045.128-.045.206,0,.103.039.199.109.302s.18.212.322.321h1.861c.026,0,.045.006.058.019.013.013.026.032.039.064s.019.071.026.122.006.109.006.186c0,.083,0,.141-.006.193s-.013.09-.026.122-.026.051-.039.064c-.013.013-.032.019-.058.019h-2.801c-.026,0-.045-.006-.058-.013-.013-.013-.026-.032-.039-.058s-.019-.064-.026-.109c-.006-.039-.006-.096-.006-.161s0-.122.006-.167c.006-.039.013-.077.026-.096.013-.026.026-.045.039-.058.013-.006.032-.013.058-.013h.322c-.167-.154-.296-.315-.38-.469-.084-.161-.122-.328-.122-.501,0-.193.032-.353.097-.482.058-.135.148-.238.251-.321.109-.077.238-.135.38-.173.148-.032.322-.051.522-.051h1.732Zm.013,3.474c.026,0,.052.013.071.032.013.019.026.051.032.096.006.045.013.116.013.199,0,.096-.006.167-.013.212-.006.039-.019.071-.032.09-.019.019-.045.026-.071.026h-.225c.122.116.219.244.29.392.071.148.103.308.103.488,0,.154-.019.289-.058.411-.039.122-.097.231-.174.321-.077.096-.167.161-.283.212s-.245.077-.399.077c-.161,0-.303-.032-.425-.096-.116-.064-.219-.161-.296-.283-.077-.128-.135-.283-.174-.475-.039-.186-.058-.405-.058-.655v-.27h-.167c-.09,0-.167.006-.232.026-.071.019-.122.045-.167.09-.045.039-.077.096-.097.161-.019.071-.032.154-.032.25,0,.135.013.251.045.353.026.103.058.199.097.276s.071.148.097.199c.032.051.045.096.045.128,0,.026-.006.045-.019.064-.019.013-.039.032-.064.039-.026.013-.064.026-.103.032s-.084.006-.129.006c-.064,0-.116-.006-.155-.013-.039-.013-.071-.032-.103-.064-.032-.026-.064-.077-.103-.154-.032-.071-.071-.154-.097-.257-.032-.096-.058-.206-.077-.321-.019-.116-.032-.231-.032-.36,0-.218.019-.405.064-.559.045-.161.109-.283.2-.385s.2-.173.341-.218c.142-.045.309-.071.502-.071h1.887Zm0,13.621c.026,0,.052.013.071.032.013.019.026.051.032.096s.013.116.013.199c0,.096-.006.167-.013.212-.006.039-.019.071-.032.09-.019.019-.045.026-.071.026h-.225c.122.116.219.244.29.392.071.148.103.308.103.488,0,.154-.019.289-.058.411-.039.122-.097.231-.174.321-.077.096-.167.161-.283.212s-.245.077-.399.077c-.161,0-.303-.032-.425-.096-.116-.064-.219-.161-.296-.283-.077-.129-.135-.283-.174-.475-.039-.186-.058-.405-.058-.655v-.27h-.167c-.09,0-.167.006-.232.026-.071.019-.122.045-.167.09-.045.039-.077.096-.097.161-.019.071-.032.154-.032.251,0,.135.013.25.045.353.026.103.058.199.097.276s.071.148.097.199c.032.051.045.096.045.128,0,.026-.006.045-.019.064-.019.013-.039.032-.064.039-.026.013-.064.026-.103.032s-.084.006-.129.006c-.064,0-.116-.006-.155-.013-.039-.013-.071-.032-.103-.064-.032-.026-.064-.077-.103-.154-.032-.071-.071-.154-.097-.257-.032-.096-.058-.206-.077-.321-.019-.116-.032-.231-.032-.36,0-.218.019-.405.064-.559.045-.161.109-.283.2-.385s.2-.173.341-.218c.142-.045.309-.071.502-.071h1.887Zm-1.494,7.119c.097,0,.167.019.212.064.045.045.071.103.071.18v1.702c.116,0,.225-.013.322-.045.097-.026.18-.071.251-.135.064-.058.116-.141.155-.238.032-.096.052-.212.052-.347,0-.141-.013-.257-.032-.366-.019-.103-.039-.193-.064-.27s-.045-.141-.064-.186c-.019-.051-.032-.096-.032-.122,0-.019.006-.039.013-.051.006-.013.019-.019.039-.032.019-.006.045-.013.077-.013.039-.006.077-.006.129-.006h.122c.032.006.058.006.084.013.019.006.039.013.058.019.013.006.026.019.045.032.013.013.032.051.058.109.026.064.052.141.077.231.026.096.045.206.064.328s.026.25.026.385c0,.251-.032.469-.097.655-.058.186-.155.34-.283.469-.129.122-.29.218-.483.283-.193.058-.425.09-.689.09-.245,0-.47-.032-.67-.096-.2-.064-.373-.161-.509-.283-.142-.122-.251-.276-.322-.45-.071-.18-.109-.379-.109-.597,0-.238.032-.437.103-.604s.167-.302.29-.411c.122-.103.264-.18.431-.231.174-.051.354-.077.547-.077h.129Zm1.494,10.074c.026,0,.052.013.071.032.013.019.026.051.032.096.006.045.013.116.013.199,0,.096-.006.167-.013.212-.006.039-.019.071-.032.09-.019.019-.045.026-.071.026h-.225c.122.116.219.244.29.392s.103.308.103.488c0,.154-.019.289-.058.411s-.097.231-.174.321c-.077.096-.167.161-.283.212s-.245.077-.399.077c-.161,0-.303-.032-.425-.096-.116-.064-.219-.161-.296-.283-.077-.128-.135-.283-.174-.475-.039-.186-.058-.405-.058-.655v-.27h-.167c-.09,0-.167.006-.232.026-.071.019-.122.045-.167.09-.045.039-.077.096-.097.161-.019.071-.032.154-.032.251,0,.135.013.251.045.353.026.103.058.199.097.276s.071.148.097.199c.032.051.045.096.045.128,0,.026-.006.045-.019.064-.019.013-.039.032-.064.039-.026.013-.064.026-.103.032s-.084.006-.129.006c-.064,0-.116-.006-.155-.013-.039-.013-.071-.032-.103-.064-.032-.026-.064-.077-.103-.154-.032-.071-.071-.154-.097-.257-.032-.096-.058-.206-.077-.321-.019-.116-.032-.231-.032-.36,0-.218.019-.405.064-.559.045-.161.109-.283.2-.385s.2-.173.341-.218.309-.071.502-.071h1.887Zm-.013,8.219c.026,0,.045.006.058.019s.026.032.039.064c.013.026.019.071.026.116.006.051.006.116.006.193,0,.084,0,.148-.006.199-.006.045-.013.09-.026.116-.013.032-.026.058-.039.064-.013.013-.032.019-.058.019h-1.661c-.097,0-.18.006-.258.026s-.142.045-.2.083c-.058.032-.097.084-.129.135-.032.058-.045.122-.045.199,0,.096.039.186.109.283.071.096.18.199.322.315h1.861c.026,0,.045.006.058.019.013.013.026.032.039.064.013.032.019.071.026.122s.006.109.006.186,0,.141-.006.193-.013.09-.026.122-.026.051-.039.064-.032.019-.058.019h-1.661c-.097,0-.18.006-.258.026-.077.019-.142.045-.2.084-.058.032-.097.077-.129.135-.032.058-.045.122-.045.199,0,.096.039.193.109.289.071.096.18.199.322.308h1.861c.026,0,.045.006.058.019s.026.032.039.064.019.071.026.122.006.109.006.186c0,.083,0,.141-.006.193s-.013.09-.026.122c-.013.032-.026.051-.039.064-.013.013-.032.019-.058.019h-2.801c-.026,0-.045-.006-.058-.013-.013-.013-.026-.032-.039-.058s-.019-.064-.026-.109c-.006-.039-.006-.096-.006-.161s0-.122.006-.167c.006-.039.013-.077.026-.096.013-.026.026-.045.039-.058.013-.006.032-.013.058-.013h.322c-.167-.154-.296-.308-.38-.463s-.122-.315-.122-.482c0-.116.013-.218.039-.308.019-.096.058-.18.103-.251.045-.071.097-.135.161-.186.058-.051.129-.096.206-.128-.09-.084-.167-.167-.232-.251-.064-.077-.116-.161-.155-.238-.045-.077-.071-.154-.09-.231-.019-.084-.032-.161-.032-.244,0-.186.032-.34.097-.469.058-.128.148-.231.251-.308.109-.077.238-.135.38-.167.148-.032.303-.051.464-.051h1.79Zm-2.608-55.412c.103,0,.174.013.225.032.045.026.071.051.071.083v.334c.052-.045.109-.083.174-.103.058-.019.129-.026.193-.026.167,0,.309.026.438.077.129.058.232.135.322.238.084.103.155.225.2.366.045.141.064.302.064.475,0,.09-.013.18-.032.257-.026.083-.052.148-.077.193.026.026.058.045.097.064s.084.032.129.032c.058,0,.109-.026.148-.083.039-.051.058-.128.064-.225l.026-.674c.006-.161.026-.302.064-.43.039-.122.097-.225.167-.308.071-.09.155-.154.251-.199.097-.045.212-.064.335-.064.142,0,.27.026.393.09.122.058.232.154.322.27.09.122.161.276.212.456.052.186.077.398.077.642,0,.238-.019.443-.058.61-.039.167-.09.308-.155.418-.071.103-.148.186-.245.231-.09.051-.193.077-.303.077-.071,0-.135-.013-.2-.026-.064-.019-.122-.045-.18-.084-.058-.032-.109-.077-.167-.122-.052-.051-.103-.109-.148-.173-.045.09-.116.161-.2.206-.077.051-.167.077-.27.077-.122,0-.238-.032-.335-.083-.103-.058-.193-.135-.277-.225-.071.077-.161.135-.264.18s-.232.064-.386.064c-.161,0-.309-.026-.438-.084s-.238-.141-.322-.244c-.09-.103-.161-.225-.206-.366-.045-.141-.071-.295-.071-.469,0-.09.006-.173.013-.251.013-.083.026-.161.045-.225v-.893c0-.032.026-.064.071-.083.045-.019.122-.032.232-.032Zm0,9.598c.103,0,.174.013.225.032.045.026.071.051.071.083v.334c.052-.045.109-.083.174-.103.058-.019.129-.026.193-.026.167,0,.309.026.438.077.129.058.232.135.322.238.084.103.155.225.2.366.045.141.064.302.064.475,0,.09-.013.18-.032.257-.026.083-.052.148-.077.193.026.026.058.045.097.064s.084.032.129.032c.058,0,.109-.026.148-.083.039-.051.058-.128.064-.225l.026-.674c.006-.161.026-.302.064-.43.039-.122.097-.225.167-.308.071-.09.155-.154.251-.199.097-.045.212-.064.335-.064.142,0,.27.026.393.09.122.058.232.154.322.27.09.122.161.276.212.456.052.186.077.398.077.642,0,.238-.019.443-.058.61-.039.167-.09.308-.155.418-.071.103-.148.186-.245.231-.09.051-.193.077-.303.077-.071,0-.135-.013-.2-.026-.064-.019-.122-.045-.18-.083-.058-.032-.109-.077-.167-.122-.052-.051-.103-.109-.148-.173-.045.09-.116.161-.2.206-.077.051-.167.077-.27.077-.122,0-.238-.032-.335-.083-.103-.058-.193-.135-.277-.225-.071.077-.161.135-.264.18s-.232.064-.386.064c-.161,0-.309-.026-.438-.083-.129-.058-.238-.141-.322-.244-.09-.103-.161-.225-.206-.366-.045-.141-.071-.296-.071-.469,0-.09.006-.173.013-.25.013-.084.026-.161.045-.225v-.893c0-.032.026-.064.071-.083s.122-.032.232-.032Zm-.2,30.498c.013,0,.026.006.039.006s.032,0,.045.006c.019,0,.039.006.064.013.026,0,.052.013.077.019l2.543.842c.032.006.064.019.084.039.019.019.039.045.052.09.013.039.019.096.026.167.006.071.006.161.006.27,0,.116,0,.206-.006.276-.006.064-.013.122-.026.161-.013.039-.032.071-.052.09-.026.013-.052.026-.084.039l-2.543.842c-.039.013-.077.019-.109.026-.039.006-.058.013-.077.013h-.039c-.019,0-.039,0-.052-.013-.019-.013-.032-.032-.045-.064-.006-.026-.013-.064-.019-.116s-.006-.116-.006-.193c0-.09,0-.154.006-.206.006-.058.013-.096.026-.128.006-.026.019-.051.039-.064.019-.013.039-.019.064-.032l2.061-.636.077-.019-.077-.013-2.061-.63c-.026,0-.045-.013-.064-.026-.019-.013-.032-.039-.039-.064-.013-.032-.019-.071-.026-.122-.006-.045-.006-.109-.006-.193,0-.077,0-.141.006-.186.006-.051.013-.09.019-.116.013-.026.026-.045.045-.058.013-.013.032-.019.052-.019Zm2.807,11.88c.026,0,.045.006.058.013.013.013.026.032.039.058s.019.058.026.103.006.096.006.161c0,.071,0,.128-.006.167-.006.045-.013.077-.026.103s-.026.045-.039.051c-.013.013-.032.019-.058.019h-.322c.167.154.296.315.38.475.077.154.122.321.122.495,0,.193-.032.353-.097.488-.058.128-.148.231-.258.315s-.232.141-.38.173c-.142.032-.322.051-.534.051h-1.713c-.026,0-.045-.006-.058-.019-.013-.006-.026-.032-.039-.064-.013-.026-.019-.071-.026-.122s-.006-.109-.006-.186,0-.141.006-.193.013-.09.026-.122c.013-.032.026-.051.039-.064.013-.013.032-.019.058-.019h1.584c.142,0,.258-.006.335-.026s.142-.051.2-.09.097-.09.129-.148c.032-.058.045-.128.045-.206,0-.103-.039-.206-.109-.302-.071-.103-.18-.212-.322-.328h-1.861c-.026,0-.045-.006-.058-.019-.013-.006-.026-.032-.039-.058-.013-.032-.019-.071-.026-.122s-.006-.116-.006-.193,0-.141.006-.193.013-.09.026-.116c.013-.032.026-.051.039-.064s.032-.019.058-.019h2.801Zm0,8.697c.026,0,.045.006.058.013.013.013.026.032.039.058s.019.058.026.103.006.096.006.161c0,.071,0,.128-.006.167-.006.045-.013.077-.026.103s-.026.045-.039.051c-.013.013-.032.019-.058.019h-.322c.167.154.296.315.38.475.077.154.122.321.122.495,0,.193-.032.353-.097.488-.058.128-.148.231-.258.315s-.232.141-.38.173c-.142.032-.322.051-.534.051h-1.713c-.026,0-.045-.006-.058-.019-.013-.006-.026-.032-.039-.064-.013-.026-.019-.071-.026-.122s-.006-.109-.006-.186,0-.141.006-.193.013-.09.026-.122c.013-.032.026-.051.039-.064.013-.013.032-.019.058-.019h1.584c.142,0,.258-.006.335-.026s.142-.051.2-.09.097-.09.129-.148c.032-.058.045-.128.045-.206,0-.103-.039-.206-.109-.302-.071-.103-.18-.212-.322-.328h-1.861c-.026,0-.045-.006-.058-.019-.013-.006-.026-.032-.039-.058-.013-.032-.019-.071-.026-.122s-.006-.116-.006-.193,0-.141.006-.193.013-.09.026-.116c.013-.032.026-.051.039-.064s.032-.019.058-.019h2.801Zm-1.945-59.657c-.148,0-.264.039-.348.122s-.129.206-.129.353c0,.077.013.148.039.206.026.058.064.109.109.148.045.039.097.064.155.084.058.019.122.032.187.032.142,0,.258-.045.341-.128.084-.084.122-.199.122-.347,0-.083-.013-.148-.039-.206s-.058-.109-.103-.148c-.045-.039-.097-.071-.155-.09s-.116-.026-.18-.026Zm.238,6.313c-.225-.006-.399.039-.522.135-.129.096-.193.244-.193.443,0,.096.019.186.058.257.039.077.09.141.155.186.058.051.135.09.225.116.084.026.18.039.277.045v-1.182Zm-.238,3.285c-.148,0-.264.039-.348.122-.084.083-.129.206-.129.353,0,.077.013.148.039.206.026.058.064.109.109.148.045.039.097.064.155.083.058.019.122.032.187.032.142,0,.258-.045.341-.128s.122-.199.122-.347c0-.083-.013-.148-.039-.206-.026-.058-.058-.109-.103-.148-.045-.039-.097-.071-.155-.09s-.116-.026-.18-.026Zm.238,27.271c-.225-.006-.399.039-.522.135-.129.096-.193.244-.193.443,0,.096.019.186.058.257.039.077.09.141.155.186.058.051.135.09.225.116.084.026.18.039.277.045v-1.182Zm.515-20.728v.302c0,.128.006.238.026.328.019.084.052.161.09.218.032.051.084.096.135.122s.116.039.18.039c.122,0,.212-.039.277-.109.071-.077.103-.18.103-.308,0-.116-.026-.212-.084-.308-.058-.09-.142-.186-.251-.283h-.477Zm0,13.621v.302c0,.128.006.238.026.328.019.083.052.161.09.218.032.051.084.096.135.122s.116.039.18.039c.122,0,.212-.039.277-.109.071-.077.103-.18.103-.308,0-.116-.026-.212-.084-.308-.058-.09-.142-.186-.251-.283h-.477Zm0,17.193v.302c0,.128.006.238.026.328.019.083.052.161.09.218.032.051.084.096.135.122s.116.039.18.039c.122,0,.212-.039.277-.109.071-.077.103-.18.103-.308,0-.116-.026-.212-.084-.308-.058-.09-.142-.186-.251-.283h-.477Zm1.487-47.142c-.097,0-.167.039-.219.109-.052.077-.077.18-.084.315l-.013.559c.039.058.077.096.116.128.032.032.071.058.103.083.032.019.064.032.097.039.032.006.064.006.097.006.109,0,.187-.051.238-.161.058-.103.084-.251.084-.443,0-.122-.013-.218-.039-.302-.019-.084-.052-.148-.09-.199-.045-.051-.09-.083-.135-.103-.052-.026-.103-.032-.155-.032Zm0,9.598c-.097,0-.167.039-.219.109-.052.077-.077.18-.084.315l-.013.559c.039.058.077.096.116.128.032.032.071.058.103.083.032.019.064.032.097.039s.064.006.097.006c.109,0,.187-.051.238-.161.058-.103.084-.251.084-.443,0-.122-.013-.218-.039-.302-.019-.083-.052-.148-.09-.199-.045-.051-.09-.083-.135-.103-.052-.026-.103-.032-.155-.032Z"/>
  <text class="cls-73" transform="translate(58.804 203.318)"><tspan x="0" y="0">Time</tspan><tspan class="cls-48" x="13.226" y="0"> </tspan><tspan x="14.608" y="0">(d</tspan><tspan class="cls-79" x="20.059" y="0">a</tspan><tspan class="cls-61" x="23.136" y="0">y</tspan><tspan x="26.103" y="0">s)</tspan></text>
  <rect class="cls-15" x="310.749" y="9.41" width="83.441" height="65.869"/>
  <line class="cls-29" x1="310.749" y1="75.279" x2="310.749" y2="9.411"/>
  <line class="cls-29" x1="308.712" y1="75.279" x2="310.749" y2="75.279"/>
  <line class="cls-29" x1="308.712" y1="64.292" x2="310.749" y2="64.292"/>
  <line class="cls-29" x1="308.712" y1="53.304" x2="310.749" y2="53.304"/>
  <line class="cls-29" x1="308.712" y1="42.317" x2="310.749" y2="42.317"/>
  <line class="cls-29" x1="308.712" y1="31.385" x2="310.749" y2="31.385"/>
  <line class="cls-29" x1="308.712" y1="20.398" x2="310.749" y2="20.398"/>
  <line class="cls-29" x1="308.712" y1="9.411" x2="310.749" y2="9.411"/>
  <line class="cls-29" x1="310.749" y1="75.28" x2="394.19" y2="75.28"/>
  <line class="cls-29" x1="310.749" y1="75.28" x2="310.749" y2="77.313"/>
  <line class="cls-29" x1="319.995" y1="75.28" x2="319.995" y2="77.313"/>
  <line class="cls-29" x1="329.298" y1="75.28" x2="329.298" y2="77.313"/>
  <line class="cls-29" x1="338.544" y1="75.28" x2="338.544" y2="77.313"/>
  <line class="cls-29" x1="347.845" y1="75.28" x2="347.845" y2="77.313"/>
  <line class="cls-29" x1="357.093" y1="75.28" x2="357.093" y2="77.313"/>
  <line class="cls-29" x1="366.339" y1="75.28" x2="366.339" y2="77.313"/>
  <line class="cls-29" x1="375.641" y1="75.28" x2="375.641" y2="77.313"/>
  <line class="cls-29" x1="384.888" y1="75.28" x2="384.888" y2="77.313"/>
  <line class="cls-29" x1="394.19" y1="75.28" x2="394.19" y2="77.313"/>
  <g class="cls-96">
    <line class="cls-31" x1="310.749" y1="22.21" x2="310.749" y2="9.686"/>
    <line class="cls-31" x1="309.702" y1="22.21" x2="311.794" y2="22.21"/>
    <line class="cls-31" x1="309.702" y1="9.685" x2="311.794" y2="9.685"/>
  </g>
  <line class="cls-31" x1="337.497" y1="20.398" x2="339.589" y2="20.398"/>
  <line class="cls-31" x1="347.845" y1="30.945" x2="347.845" y2="16.223"/>
  <line class="cls-31" x1="346.8" y1="30.945" x2="348.837" y2="30.945"/>
  <line class="cls-31" x1="346.8" y1="16.222" x2="348.837" y2="16.222"/>
  <line class="cls-31" x1="375.641" y1="21.496" x2="375.641" y2="12.926"/>
  <line class="cls-31" x1="374.595" y1="21.496" x2="376.686" y2="21.496"/>
  <line class="cls-31" x1="374.595" y1="12.926" x2="376.686" y2="12.926"/>
  <g class="cls-84">
    <line class="cls-31" x1="394.19" y1="30.122" x2="394.19" y2="15.18"/>
    <line class="cls-31" x1="393.143" y1="30.122" x2="395.181" y2="30.122"/>
    <line class="cls-31" x1="393.143" y1="15.179" x2="395.181" y2="15.179"/>
    <line class="cls-31" x1="310.749" y1="29.903" x2="310.749" y2="6.83"/>
    <line class="cls-31" x1="309.702" y1="29.903" x2="311.794" y2="29.903"/>
    <line class="cls-31" x1="309.702" y1="6.83" x2="311.794" y2="6.83"/>
  </g>
  <line class="cls-31" x1="337.497" y1="20.398" x2="339.589" y2="20.398"/>
  <g class="cls-109">
    <line class="cls-31" x1="347.845" y1="22.595" x2="347.845" y2="8.807"/>
    <line class="cls-31" x1="346.8" y1="22.595" x2="348.837" y2="22.595"/>
    <line class="cls-31" x1="346.8" y1="8.806" x2="348.837" y2="8.806"/>
  </g>
  <line class="cls-31" x1="375.641" y1="29.187" x2="375.641" y2="9.52"/>
  <line class="cls-31" x1="374.595" y1="29.187" x2="376.686" y2="29.187"/>
  <line class="cls-31" x1="374.595" y1="9.52" x2="376.686" y2="9.52"/>
  <g class="cls-19">
    <line class="cls-31" x1="394.19" y1="23.145" x2="394.19" y2="9.905"/>
    <line class="cls-31" x1="393.143" y1="23.145" x2="395.181" y2="23.145"/>
    <line class="cls-31" x1="393.143" y1="9.905" x2="395.181" y2="9.905"/>
  </g>
  <g class="cls-68">
    <polyline class="cls-30" points="310.749 20.453 319.995 19.52 329.298 19.575 338.544 20.398 347.845 26.716 357.093 25.069 366.339 24.682 375.641 25.398 384.888 24.189 394.19 25.014"/>
    <polyline class="cls-33" points="310.749 20.453 319.995 19.52 329.298 19.575 338.544 20.398 347.845 20.783 357.093 19.794 366.339 19.629 375.641 20.288 384.888 19.354 394.19 20.069"/>
  </g>
  <polyline class="cls-17" points="310.757 14.354 312.345 15.957 310.757 17.541 309.151 15.957 310.757 14.354"/>
  <polygon class="cls-28" points="310.757 14.354 312.345 15.957 310.757 17.541 309.151 15.957 310.757 14.354"/>
  <polyline class="cls-17" points="338.552 18.749 340.14 20.352 338.552 21.936 336.946 20.352 338.552 18.749"/>
  <polygon class="cls-28" points="338.552 18.749 340.14 20.352 338.552 21.936 336.946 20.352 338.552 18.749"/>
  <polyline class="cls-17" points="347.8 21.935 349.386 23.538 347.8 25.122 346.194 23.538 347.8 21.935"/>
  <polygon class="cls-28" points="347.8 21.935 349.386 23.538 347.8 25.122 346.194 23.538 347.8 21.935"/>
  <polyline class="cls-17" points="375.595 15.619 377.183 17.221 375.595 18.805 373.989 17.221 375.595 15.619"/>
  <polygon class="cls-28" points="375.595 15.619 377.183 17.221 375.595 18.805 373.989 17.221 375.595 15.619"/>
  <polyline class="cls-17" points="394.143 21.057 395.729 22.66 394.143 24.244 392.538 22.66 394.143 21.057"/>
  <polygon class="cls-28" points="394.143 21.057 395.729 22.66 394.143 24.244 392.538 22.66 394.143 21.057"/>
  <rect class="cls-10" x="309.151" y="16.772" width="3.194" height="3.186"/>
  <rect class="cls-32" x="309.151" y="16.771" width="3.194" height="3.186"/>
  <rect class="cls-10" x="336.946" y="18.749" width="3.194" height="3.186"/>
  <rect class="cls-32" x="336.946" y="18.749" width="3.194" height="3.186"/>
  <rect class="cls-10" x="346.194" y="14.08" width="3.192" height="3.186"/>
  <rect class="cls-32" x="346.194" y="14.08" width="3.194" height="3.186"/>
  <rect class="cls-10" x="373.989" y="17.705" width="3.194" height="3.186"/>
  <rect class="cls-32" x="373.989" y="17.705" width="3.194" height="3.186"/>
  <rect class="cls-10" x="392.538" y="14.903" width="3.191" height="3.186"/>
  <rect class="cls-32" x="392.538" y="14.903" width="3.191" height="3.185"/>
  <text class="cls-5" transform="translate(289.81 77.109)"><tspan class="cls-71" x="0" y="0">-100</tspan><tspan x="11.715" y="0">0</tspan></text>
  <text class="cls-5" transform="translate(293.064 66.129)"><tspan class="cls-71" x="0" y="0">-80</tspan><tspan class="cls-107" x="8.464" y="0">0</tspan></text>
  <text class="cls-5" transform="translate(293.064 55.151)"><tspan class="cls-71" x="0" y="0">-60</tspan><tspan class="cls-107" x="8.464" y="0">0</tspan></text>
  <text class="cls-5" transform="translate(293.064 44.173)"><tspan class="cls-71" x="0" y="0">-40</tspan><tspan class="cls-107" x="8.464" y="0">0</tspan></text>
  <text class="cls-5" transform="translate(293.064 33.195)"><tspan class="cls-71" x="0" y="0">-20</tspan><tspan class="cls-107" x="8.464" y="0">0</tspan></text>
  <text class="cls-5" transform="translate(301.538 22.215)"><tspan x="0" y="0">0</tspan></text>
  <text class="cls-5" transform="translate(295.03 11.237)"><tspan class="cls-57" x="0" y="0">20</tspan><tspan x="6.49" y="0">0</tspan></text>
  <text class="cls-5" transform="translate(308.138 85.443)"><tspan class="cls-87" x="0" y="0">-</tspan><tspan class="cls-98" x="1.974" y="0">3</tspan><tspan class="cls-87" x="9.249" y="0">-</tspan><tspan class="cls-98" x="11.223" y="0">2</tspan><tspan class="cls-87" x="18.498" y="0">-</tspan><tspan class="cls-92" x="20.472" y="0">1</tspan><tspan class="cls-91" x="28.724" y="0">012345</tspan><tspan class="cls-107" x="84.214" y="0">6</tspan></text>
  <text class="cls-73" transform="translate(286.703 79.641) rotate(-90)"><tspan x="0" y="0">Δ</tspan><tspan class="cls-110" x="3.713" y="0"> </tspan><tspan x="5.153" y="0">Protein</tspan><tspan class="cls-81" x="24.807" y="0"> </tspan><tspan class="cls-88" x="26.079" y="0">Balance</tspan><tspan class="cls-53" x="46.981" y="0"> </tspan><tspan x="48.312" y="0">(</tspan><tspan class="cls-77" x="50.314" y="0">k</tspan><tspan class="cls-24" x="53.239" y="0">c</tspan><tspan class="cls-46" x="55.884" y="0">a</tspan><tspan class="cls-44" x="59.063" y="0">l/d)</tspan></text>
  <text class="cls-73" transform="translate(337.102 94.64)"><tspan x="0" y="0">Time</tspan><tspan class="cls-50" x="13.225" y="0"> </tspan><tspan x="14.608" y="0">(d</tspan><tspan class="cls-75" x="20.059" y="0">a</tspan><tspan class="cls-61" x="23.136" y="0">y</tspan><tspan x="26.103" y="0">s)</tspan></text>
  <rect class="cls-15" x="173.256" y="9.41" width="84.21" height="65.869"/>
  <line class="cls-29" x1="173.256" y1="75.279" x2="173.256" y2="9.411"/>
  <line class="cls-29" x1="171.219" y1="75.279" x2="173.256" y2="75.279"/>
  <line class="cls-29" x1="171.219" y1="64.292" x2="173.256" y2="64.292"/>
  <line class="cls-29" x1="171.219" y1="53.304" x2="173.256" y2="53.304"/>
  <line class="cls-29" x1="171.219" y1="42.317" x2="173.256" y2="42.317"/>
  <line class="cls-29" x1="171.219" y1="31.385" x2="173.256" y2="31.385"/>
  <line class="cls-29" x1="171.219" y1="20.398" x2="173.256" y2="20.398"/>
  <line class="cls-29" x1="171.219" y1="9.411" x2="173.256" y2="9.411"/>
  <line class="cls-29" x1="173.256" y1="75.28" x2="257.466" y2="75.28"/>
  <line class="cls-29" x1="173.256" y1="75.28" x2="173.256" y2="77.313"/>
  <line class="cls-29" x1="182.612" y1="75.28" x2="182.612" y2="77.313"/>
  <line class="cls-29" x1="191.969" y1="75.28" x2="191.969" y2="77.313"/>
  <line class="cls-29" x1="201.326" y1="75.28" x2="201.326" y2="77.313"/>
  <line class="cls-29" x1="210.683" y1="75.28" x2="210.683" y2="77.313"/>
  <line class="cls-29" x1="220.039" y1="75.28" x2="220.039" y2="77.313"/>
  <line class="cls-29" x1="229.397" y1="75.28" x2="229.397" y2="77.313"/>
  <line class="cls-29" x1="238.753" y1="75.28" x2="238.753" y2="77.313"/>
  <line class="cls-29" x1="248.111" y1="75.28" x2="248.111" y2="77.313"/>
  <line class="cls-29" x1="257.466" y1="75.28" x2="257.466" y2="77.313"/>
  <g class="cls-45">
    <line class="cls-31" x1="173.256" y1="24.848" x2="173.256" y2="15.51"/>
    <line class="cls-31" x1="172.21" y1="24.848" x2="174.301" y2="24.848"/>
    <line class="cls-31" x1="172.21" y1="15.51" x2="174.301" y2="15.51"/>
  </g>
  <line class="cls-31" x1="200.281" y1="20.398" x2="202.372" y2="20.398"/>
  <line class="cls-31" x1="210.683" y1="46.877" x2="210.683" y2="38.856"/>
  <line class="cls-31" x1="209.637" y1="46.877" x2="211.729" y2="46.877"/>
  <line class="cls-31" x1="209.637" y1="38.856" x2="211.729" y2="38.856"/>
  <line class="cls-31" x1="238.753" y1="38.747" x2="238.753" y2="30.671"/>
  <line class="cls-31" x1="237.707" y1="38.747" x2="239.799" y2="38.747"/>
  <line class="cls-31" x1="237.707" y1="30.671" x2="239.799" y2="30.671"/>
  <g class="cls-102">
    <line class="cls-31" x1="257.465" y1="33.692" x2="257.465" y2="22.266"/>
    <line class="cls-31" x1="256.42" y1="33.692" x2="258.512" y2="33.692"/>
    <line class="cls-31" x1="256.42" y1="22.265" x2="258.512" y2="22.265"/>
    <line class="cls-31" x1="173.255" y1="26.44" x2="173.255" y2="13.255"/>
    <line class="cls-31" x1="172.209" y1="26.44" x2="174.3" y2="26.44"/>
    <line class="cls-31" x1="172.209" y1="13.255" x2="174.3" y2="13.255"/>
  </g>
  <line class="cls-31" x1="200.281" y1="20.398" x2="202.372" y2="20.398"/>
  <line class="cls-31" x1="210.683" y1="34.187" x2="210.683" y2="23.42"/>
  <line class="cls-31" x1="209.637" y1="34.187" x2="211.729" y2="34.187"/>
  <line class="cls-31" x1="209.637" y1="23.419" x2="211.729" y2="23.419"/>
  <line class="cls-31" x1="238.753" y1="30.011" x2="238.753" y2="16.442"/>
  <line class="cls-31" x1="237.707" y1="30.011" x2="239.799" y2="30.011"/>
  <line class="cls-31" x1="237.707" y1="16.442" x2="239.799" y2="16.442"/>
  <g class="cls-49">
    <line class="cls-31" x1="257.465" y1="22.705" x2="257.465" y2="10.455"/>
    <line class="cls-31" x1="256.42" y1="22.705" x2="258.512" y2="22.705"/>
    <line class="cls-31" x1="256.42" y1="10.455" x2="258.512" y2="10.455"/>
  </g>
  <g class="cls-21">
    <polyline class="cls-30" points="173.256 20.562 182.612 23.2 191.969 22.871 201.326 20.397 210.683 32.153 220.039 29.023 238.753 23.528 248.111 23.913 257.466 22.155"/>
    <polyline class="cls-33" points="173.256 20.562 182.612 23.2 191.969 22.871 201.326 20.397 210.683 18.86 220.039 21.332 229.397 20.947 238.753 18.64 248.111 21.277 257.466 18.97"/>
  </g>
  <polyline class="cls-17" points="173.265 18.585 174.851 20.187 173.265 21.771 171.659 20.187 173.265 18.585"/>
  <polygon class="cls-28" points="173.265 18.585 174.851 20.187 173.265 21.771 171.659 20.187 173.265 18.585"/>
  <polyline class="cls-17" points="201.28 18.749 202.867 20.352 201.28 21.936 199.675 20.352 201.28 18.749"/>
  <polygon class="cls-28" points="201.28 18.749 202.867 20.352 201.28 21.936 199.675 20.352 201.28 18.749"/>
  <polyline class="cls-17" points="210.637 41.218 212.224 42.821 210.637 44.405 209.032 42.821 210.637 41.218"/>
  <polygon class="cls-28" points="210.637 41.218 212.224 42.821 210.637 44.405 209.032 42.821 210.637 41.218"/>
  <polyline class="cls-17" points="238.706 33.088 240.293 34.691 238.706 36.275 237.101 34.691 238.706 33.088"/>
  <polygon class="cls-28" points="238.706 33.088 240.293 34.691 238.706 36.274 237.101 34.691 238.706 33.088"/>
  <polyline class="cls-17" points="257.42 26.33 259.008 27.933 257.42 29.516 255.816 27.933 257.42 26.33"/>
  <polygon class="cls-28" points="257.42 26.33 259.008 27.933 257.42 29.516 255.816 27.933 257.42 26.33"/>
  <rect class="cls-10" x="171.659" y="18.256" width="3.192" height="3.186"/>
  <rect class="cls-32" x="171.659" y="18.255" width="3.192" height="3.186"/>
  <rect class="cls-10" x="199.675" y="18.749" width="3.192" height="3.186"/>
  <rect class="cls-32" x="199.675" y="18.749" width="3.192" height="3.186"/>
  <rect class="cls-10" x="209.032" y="27.155" width="3.192" height="3.185"/>
  <rect class="cls-32" x="209.032" y="27.155" width="3.192" height="3.185"/>
  <rect class="cls-10" x="237.102" y="21.606" width="3.192" height="3.185"/>
  <rect class="cls-32" x="237.102" y="21.606" width="3.192" height="3.185"/>
  <rect class="cls-10" x="255.816" y="14.96" width="3.192" height="3.185"/>
  <rect class="cls-32" x="255.816" y="14.96" width="3.192" height="3.185"/>
  <text class="cls-5" transform="translate(152.317 77.109)"><tspan class="cls-71" x="0" y="0">-100</tspan><tspan x="11.715" y="0">0</tspan></text>
  <text class="cls-5" transform="translate(155.573 66.129)"><tspan class="cls-71" x="0" y="0">-80</tspan><tspan x="8.464" y="0">0</tspan></text>
  <text class="cls-5" transform="translate(155.573 55.151)"><tspan class="cls-71" x="0" y="0">-60</tspan><tspan x="8.464" y="0">0</tspan></text>
  <text class="cls-5" transform="translate(155.573 44.173)"><tspan class="cls-71" x="0" y="0">-40</tspan><tspan x="8.464" y="0">0</tspan></text>
  <text class="cls-5" transform="translate(155.573 33.195)"><tspan class="cls-71" x="0" y="0">-20</tspan><tspan x="8.464" y="0">0</tspan></text>
  <text class="cls-5" transform="translate(164.045 22.215)"><tspan x="0" y="0">0</tspan></text>
  <text class="cls-5" transform="translate(157.537 11.237)"><tspan class="cls-57" x="0" y="0">20</tspan><tspan x="6.49" y="0">0</tspan></text>
  <text class="cls-5" transform="translate(170.647 85.443)"><tspan class="cls-100" x="0" y="0">-</tspan><tspan class="cls-62" x="1.974" y="0">3</tspan><tspan class="cls-100" x="9.333" y="0">-</tspan><tspan class="cls-25" x="11.307" y="0">2</tspan><tspan class="cls-100" x="18.666" y="0">-</tspan><tspan class="cls-74" x="20.64" y="0">1</tspan><tspan class="cls-23" x="28.982" y="0">0</tspan><tspan class="cls-97" x="38.314" y="0">1</tspan><tspan class="cls-76" x="47.652" y="0">23</tspan><tspan class="cls-37" x="66.315" y="0">4</tspan><tspan class="cls-60" x="75.654" y="0">5</tspan><tspan x="84.985" y="0">6</tspan></text>
  <text class="cls-73" transform="translate(149.211 72.938) rotate(-90)"><tspan x="0" y="0">Δ</tspan><tspan class="cls-82" x="3.713" y="0"> </tspan><tspan x="5.153" y="0">CHO</tspan><tspan class="cls-78" x="16.957" y="0"> </tspan><tspan x="18.339" y="0">Balance</tspan><tspan class="cls-53" x="39.241" y="0"> </tspan><tspan x="40.572" y="0">(</tspan><tspan class="cls-26" x="42.575" y="0">k</tspan><tspan class="cls-67" x="45.499" y="0">c</tspan><tspan class="cls-58" x="48.144" y="0">a</tspan><tspan x="51.323" y="0">l/d)</tspan></text>
  <text class="cls-73" transform="translate(200.004 94.64)"><tspan x="0" y="0">Time</tspan><tspan class="cls-48" x="13.226" y="0"> </tspan><tspan x="14.608" y="0">(d</tspan><tspan class="cls-66" x="20.059" y="0">a</tspan><tspan class="cls-61" x="23.136" y="0">y</tspan><tspan x="26.103" y="0">s)</tspan></text>
  <rect class="cls-15" x="35.209" y="9.41" width="85.147" height="65.869"/>
  <line class="cls-29" x1="35.209" y1="75.279" x2="35.209" y2="9.411"/>
  <line class="cls-29" x1="33.173" y1="75.279" x2="35.209" y2="75.279"/>
  <line class="cls-29" x1="33.173" y1="64.292" x2="35.209" y2="64.292"/>
  <line class="cls-29" x1="33.173" y1="53.304" x2="35.209" y2="53.304"/>
  <line class="cls-29" x1="33.173" y1="42.317" x2="35.209" y2="42.317"/>
  <line class="cls-29" x1="33.173" y1="31.385" x2="35.209" y2="31.385"/>
  <line class="cls-29" x1="33.173" y1="20.398" x2="35.209" y2="20.398"/>
  <line class="cls-29" x1="33.173" y1="9.411" x2="35.209" y2="9.411"/>
  <line class="cls-29" x1="35.209" y1="75.28" x2="120.356" y2="75.28"/>
  <line class="cls-29" x1="35.209" y1="75.28" x2="35.209" y2="77.313"/>
  <line class="cls-29" x1="44.676" y1="75.28" x2="44.676" y2="77.313"/>
  <line class="cls-29" x1="54.143" y1="75.28" x2="54.143" y2="77.313"/>
  <line class="cls-29" x1="63.61" y1="75.28" x2="63.61" y2="77.313"/>
  <line class="cls-29" x1="73.022" y1="75.28" x2="73.022" y2="77.313"/>
  <line class="cls-29" x1="82.489" y1="75.28" x2="82.489" y2="77.313"/>
  <line class="cls-29" x1="91.956" y1="75.28" x2="91.956" y2="77.313"/>
  <line class="cls-29" x1="101.423" y1="75.28" x2="101.423" y2="77.313"/>
  <line class="cls-29" x1="110.89" y1="75.28" x2="110.89" y2="77.313"/>
  <line class="cls-29" x1="120.356" y1="75.28" x2="120.356" y2="77.313"/>
  <g class="cls-103">
    <line class="cls-31" x1="35.209" y1="26.221" x2="35.209" y2="16.114"/>
    <line class="cls-31" x1="34.163" y1="26.221" x2="36.254" y2="26.221"/>
    <line class="cls-31" x1="34.163" y1="16.114" x2="36.254" y2="16.114"/>
  </g>
  <line class="cls-31" x1="62.564" y1="20.398" x2="64.6" y2="20.398"/>
  <line class="cls-31" x1="73.021" y1="41.824" x2="73.021" y2="29.024"/>
  <line class="cls-31" x1="72.03" y1="41.824" x2="74.067" y2="41.824"/>
  <line class="cls-31" x1="72.03" y1="29.024" x2="74.067" y2="29.024"/>
  <line class="cls-31" x1="101.422" y1="50.998" x2="101.422" y2="44.79"/>
  <line class="cls-31" x1="100.376" y1="50.998" x2="102.467" y2="50.998"/>
  <line class="cls-31" x1="100.376" y1="44.79" x2="102.467" y2="44.79"/>
  <g class="cls-101">
    <line class="cls-31" x1="120.355" y1="54.293" x2="120.355" y2="41.439"/>
    <line class="cls-31" x1="119.31" y1="54.293" x2="121.346" y2="54.293"/>
    <line class="cls-31" x1="119.31" y1="41.439" x2="121.346" y2="41.439"/>
    <line class="cls-31" x1="35.208" y1="27.705" x2="35.208" y2="16.443"/>
    <line class="cls-31" x1="34.162" y1="27.705" x2="36.253" y2="27.705"/>
    <line class="cls-31" x1="34.162" y1="16.442" x2="36.253" y2="16.442"/>
  </g>
  <line class="cls-31" x1="62.564" y1="20.398" x2="64.6" y2="20.398"/>
  <line class="cls-31" x1="73.021" y1="64.457" x2="73.021" y2="53.91"/>
  <line class="cls-31" x1="72.03" y1="64.457" x2="74.067" y2="64.457"/>
  <line class="cls-31" x1="72.03" y1="53.91" x2="74.067" y2="53.91"/>
  <line class="cls-31" x1="101.422" y1="71.05" x2="101.422" y2="53.25"/>
  <line class="cls-31" x1="100.376" y1="71.05" x2="102.467" y2="71.05"/>
  <line class="cls-31" x1="100.376" y1="53.25" x2="102.467" y2="53.25"/>
  <g class="cls-93">
    <line class="cls-31" x1="120.355" y1="72.642" x2="120.355" y2="60.447"/>
    <line class="cls-31" x1="119.31" y1="72.642" x2="121.346" y2="72.642"/>
    <line class="cls-31" x1="119.31" y1="60.447" x2="121.346" y2="60.447"/>
  </g>
  <g class="cls-18">
    <polyline class="cls-30" points="35.209 20.288 44.676 28.254 54.143 28.53 63.61 20.398 73.021 39.956 82.489 53.361 91.956 55.448 101.423 47.263 110.89 56.327 120.356 47.372"/>
    <polyline class="cls-33" points="35.209 20.288 44.676 28.254 54.143 28.53 63.61 20.398 73.021 62.206 82.489 68.908 91.956 68.194 101.423 59.733 110.89 66.215 120.356 58.085"/>
  </g>
  <polyline class="cls-17" points="35.217 19.573 36.804 21.176 35.217 22.76 33.612 21.176 35.217 19.573"/>
  <polygon class="cls-28" points="35.217 19.573 36.804 21.176 35.217 22.76 33.612 21.176 35.217 19.573"/>
  <polyline class="cls-17" points="63.563 18.749 65.15 20.352 63.563 21.936 61.958 20.352 63.563 18.749"/>
  <polygon class="cls-28" points="63.563 18.749 65.15 20.352 63.563 21.936 61.958 20.352 63.563 18.749"/>
  <polyline class="cls-17" points="73.03 33.802 74.617 35.405 73.03 36.988 71.425 35.405 73.03 33.802"/>
  <polygon class="cls-28" points="73.03 33.802 74.617 35.405 73.03 36.988 71.425 35.405 73.03 33.802"/>
  <polyline class="cls-17" points="101.376 46.273 102.963 47.875 101.376 49.458 99.77 47.875 101.376 46.273"/>
  <polygon class="cls-28" points="101.376 46.273 102.963 47.875 101.376 49.458 99.77 47.875 101.376 46.273"/>
  <polyline class="cls-17" points="120.31 46.273 121.896 47.875 120.31 49.458 118.705 47.875 120.31 46.273"/>
  <polygon class="cls-28" points="120.31 46.273 121.896 47.875 120.31 49.458 118.705 47.875 120.31 46.273"/>
  <rect class="cls-10" x="33.612" y="20.453" width="3.192" height="3.185"/>
  <rect class="cls-32" x="33.612" y="20.453" width="3.192" height="3.185"/>
  <rect class="cls-10" x="61.958" y="18.749" width="3.192" height="3.186"/>
  <rect class="cls-32" x="61.958" y="18.749" width="3.192" height="3.186"/>
  <rect class="cls-10" x="71.425" y="57.534" width="3.193" height="3.187"/>
  <rect class="cls-32" x="71.425" y="57.534" width="3.193" height="3.187"/>
  <rect class="cls-10" x="99.77" y="60.556" width="3.193" height="3.185"/>
  <rect class="cls-32" x="99.77" y="60.556" width="3.193" height="3.185"/>
  <rect class="cls-10" x="118.705" y="64.896" width="3.191" height="3.186"/>
  <rect class="cls-32" x="118.705" y="64.896" width="3.191" height="3.186"/>
  <text class="cls-5" transform="translate(14.27 77.109)"><tspan class="cls-71" x="0" y="0">-100</tspan><tspan x="11.715" y="0">0</tspan></text>
  <text class="cls-5" transform="translate(17.525 66.129)"><tspan class="cls-71" x="0" y="0">-80</tspan><tspan x="8.464" y="0">0</tspan></text>
  <text class="cls-5" transform="translate(17.525 55.151)"><tspan class="cls-71" x="0" y="0">-60</tspan><tspan x="8.464" y="0">0</tspan></text>
  <text class="cls-5" transform="translate(17.525 44.173)"><tspan class="cls-71" x="0" y="0">-40</tspan><tspan x="8.464" y="0">0</tspan></text>
  <text class="cls-5" transform="translate(17.525 33.195)"><tspan class="cls-71" x="0" y="0">-20</tspan><tspan x="8.464" y="0">0</tspan></text>
  <text class="cls-5" transform="translate(25.999 22.215)"><tspan x="0" y="0">0</tspan></text>
  <text class="cls-5" transform="translate(19.491 11.237)"><tspan class="cls-57" x="0" y="0">20</tspan><tspan x="6.49" y="0">0</tspan></text>
  <text class="cls-5" transform="translate(32.601 85.443)"><tspan class="cls-100" x="0" y="0">-</tspan><tspan class="cls-22" x="1.974" y="0">3</tspan><tspan class="cls-100" x="9.435" y="0">-</tspan><tspan class="cls-114" x="11.41" y="0">2</tspan><tspan class="cls-100" x="18.871" y="0">-</tspan><tspan class="cls-95" x="20.846" y="0">1</tspan><tspan class="cls-69" x="29.29" y="0">012345</tspan><tspan class="cls-36" x="85.898" y="0">6</tspan></text>
  <text class="cls-73" transform="translate(11.164 71.072) rotate(-90)"><tspan x="0" y="0">Δ</tspan><tspan class="cls-82" x="3.713" y="0"> </tspan><tspan class="cls-80" x="5.153" y="0">F</tspan><tspan class="cls-42" x="7.956" y="0">a</tspan><tspan x="11.09" y="0">t</tspan><tspan class="cls-85" x="13.318" y="0"> </tspan><tspan x="14.649" y="0">Balance</tspan><tspan class="cls-53" x="35.551" y="0"> </tspan><tspan x="36.882" y="0">(</tspan><tspan class="cls-26" x="38.885" y="0">k</tspan><tspan class="cls-24" x="41.809" y="0">c</tspan><tspan class="cls-46" x="44.454" y="0">a</tspan><tspan x="47.633" y="0">l/d)</tspan></text>
  <text class="cls-73" transform="translate(62.416 94.64)"><tspan x="0" y="0">Time</tspan><tspan class="cls-48" x="13.226" y="0"> </tspan><tspan x="14.608" y="0">(d</tspan><tspan class="cls-79" x="20.059" y="0">a</tspan><tspan class="cls-61" x="23.136" y="0">y</tspan><tspan x="26.103" y="0">s)</tspan></text>
  <text class="cls-7" transform="translate(135.546 7.92)"><tspan x="0" y="0">B</tspan></text>
  <text class="cls-7" transform="translate(0 7.92)"><tspan x="0" y="0">A</tspan></text>
  <text class="cls-7" transform="translate(135.546 110.378)"><tspan x="0" y="0">E</tspan></text>
  <text class="cls-7" transform="translate(272.628 7.92)"><tspan x="0" y="0">C</tspan></text>
  <text class="cls-7" transform="translate(2.183 110.378)"><tspan x="0" y="0">D</tspan></text>
  <text class="cls-7" transform="translate(272.628 110.378)"><tspan x="0" y="0">F</tspan></text>
  <text class="cls-3" transform="translate(69.092 25.586)"><tspan class="cls-99" x="0" y="0">*</tspan><tspan x="4.922" y="0">*</tspan></text>
  <text class="cls-3" transform="translate(98.712 40.203)"><tspan x="0" y="0">*</tspan></text>
  <text class="cls-3" transform="translate(115.646 40.372)"><tspan class="cls-99" x="0" y="0">*</tspan><tspan x="4.922" y="0">*</tspan></text>
  <text class="cls-3" transform="translate(205.409 56.038)"><tspan class="cls-99" x="0" y="0">*</tspan><tspan x="4.922" y="0">*</tspan></text>
  <text class="cls-3" transform="translate(232.086 48.997)"><tspan class="cls-99" x="0" y="0">*</tspan><tspan class="cls-38" x="4.922" y="0">*</tspan></text>
  <text class="cls-3" transform="translate(254.002 44.769)"><tspan x="0" y="0">*</tspan></text>
  <text class="cls-3" transform="translate(43.265 120.041)"><tspan class="cls-99" x="0" y="0">*</tspan><tspan x="4.922" y="0">*</tspan></text>
  <text class="cls-3" transform="translate(82.282 130.855)"><tspan class="cls-99" x="0" y="0">*</tspan><tspan x="4.922" y="0">*</tspan></text>
  <text class="cls-3" transform="translate(110.97 139.482)"><tspan class="cls-99" x="0" y="0">*</tspan><tspan x="4.922" y="0">*</tspan></text>
  <text class="cls-3" transform="translate(389.129 143.877)"><tspan x="0" y="0">*</tspan></text>
  <g>
    <polyline class="cls-12" points="412.122 33.639 413.753 32.011 415.384 33.639 413.753 35.267 412.122 33.639"/>
    <polyline class="cls-16" points="413.633 32.129 415.265 33.757 415.502 33.52 413.872 31.892"/>
    <polyline class="cls-16" points="415.265 33.52 413.633 35.149 413.872 35.385 415.502 33.757"/>
    <polyline class="cls-16" points="413.872 35.149 412.24 33.52 412.002 33.758 413.633 35.386"/>
    <path class="cls-12" d="m409.281,44.832h8.948c.278,0,.505-.225.505-.502s-.227-.503-.505-.503h-8.948c-.279,0-.504.225-.504.503s.225.502.504.502"/>
    <rect class="cls-9" x="412.134" y="53.318" width="3.244" height="3.293"/>
    <polyline class="cls-11" points="412.132 53.318 412.132 53.486 415.209 53.486 415.209 56.445 412.3 56.445 412.3 53.318 412.132 53.318 412.132 53.486 412.132 53.318 411.966 53.318 411.966 56.612 412.014 56.731 412.132 56.779 415.377 56.779 415.497 56.731 415.545 56.612 415.545 53.318 415.497 53.2 415.377 53.15 412.132 53.15 412.014 53.2 411.966 53.318 412.132 53.318"/>
    <path class="cls-9" d="m409.281,66.103h8.948c.278,0,.505-.225.505-.503s-.227-.502-.505-.502h-8.948c-.279,0-.504.225-.504.502s.225.503.504.503"/>
    <text class="cls-8" transform="translate(420.482 35.954)"><tspan x="0" y="0">저탄수화물 (RC)</tspan><tspan x="0" y="10">저탄수화물 모델</tspan></text>
    <text class="cls-8" transform="translate(420.089 57.031)"><tspan x="0" y="0">저지방 (RF)</tspan><tspan x="0" y="10">저지방 모델</tspan></text>
  </g>
  <g>
    <polyline class="cls-12" points="412.122 139.145 413.753 137.517 415.384 139.145 413.753 140.773 412.122 139.145"/>
    <polyline class="cls-16" points="413.633 137.635 415.265 139.263 415.502 139.026 413.872 137.398"/>
    <polyline class="cls-16" points="415.265 139.026 413.633 140.655 413.872 140.891 415.502 139.263"/>
    <polyline class="cls-16" points="413.872 140.655 412.24 139.026 412.002 139.264 413.633 140.892"/>
    <path class="cls-12" d="m409.281,150.338h8.948c.278,0,.505-.225.505-.502s-.227-.503-.505-.503h-8.948c-.279,0-.504.225-.504.503s.225.502.504.502"/>
    <rect class="cls-9" x="412.134" y="158.824" width="3.244" height="3.293"/>
    <polyline class="cls-11" points="412.132 158.824 412.132 158.992 415.209 158.992 415.209 161.951 412.3 161.951 412.3 158.824 412.132 158.824 412.132 158.992 412.132 158.824 411.966 158.824 411.966 162.118 412.014 162.237 412.132 162.285 415.377 162.285 415.497 162.237 415.545 162.118 415.545 158.824 415.497 158.706 415.377 158.656 412.132 158.656 412.014 158.706 411.966 158.824 412.132 158.824"/>
    <path class="cls-9" d="m409.281,171.609h8.948c.278,0,.505-.225.505-.503s-.227-.502-.505-.502h-8.948c-.279,0-.504.225-.504.502s.225.503.504.503"/>
    <text class="cls-8" transform="translate(420.482 141.46)"><tspan x="0" y="0">저탄수화물 (RC)</tspan><tspan x="0" y="10">저탄수화물 모델</tspan></text>
    <text class="cls-8" transform="translate(420.089 162.537)"><tspan x="0" y="0">저지방 (RF)</tspan><tspan x="0" y="10">저지방 모델</tspan></text>
  </g>
</svg>