<?xml version="1.0" encoding="UTF-8"?>
<svg id="_레이어_1" data-name="레이어 1" xmlns="http://www.w3.org/2000/svg" xmlns:xlink="http://www.w3.org/1999/xlink" viewBox="0 0 354.457 105.876">
  <defs>
    <style>
      .cls-1 {
        font-size: 6.327px;
      }

      .cls-1, .cls-2, .cls-3 {
        font-family: AppleSDGothicNeoH00, AppleSDGothicNeoH00;
      }

      .cls-1, .cls-3 {
        fill: #231f20;
      }

      .cls-2 {
        font-size: 9px;
      }

      .cls-4 {
        fill: #b65457;
      }

      .cls-4, .cls-5, .cls-6, .cls-7, .cls-8, .cls-9 {
        stroke-width: 0px;
      }

      .cls-5 {
        fill: #507eb1;
      }

      .cls-10 {
        clip-path: url(#clippath-2);
      }

      .cls-7 {
        fill: none;
      }

      .cls-11 {
        clip-path: url(#clippath-1);
      }

      .cls-8 {
        fill: #848589;
      }

      .cls-9 {
        fill: #fff;
      }

      .cls-3 {
        font-size: 5.592px;
      }

      .cls-12 {
        clip-path: url(#clippath);
      }
    </style>
    <clipPath id="clippath">
      <polyline class="cls-7" points="121.593 20.559 26.616 20.559 26.616 103.909"/>
    </clipPath>
    <clipPath id="clippath-1">
      <polyline class="cls-7" points="121.593 20.559 26.616 20.559 26.616 103.909"/>
    </clipPath>
    <clipPath id="clippath-2">
      <polyline class="cls-7" points="121.593 20.559 26.616 20.559 26.616 103.909"/>
    </clipPath>
  </defs>
  <path class="cls-5" d="m61.352,20.559h12.585v.39h-12.585v-.39Zm31.546,0h12.585v.725h-12.585v-.725Zm-63.038,0h12.529v65.875h-12.529V20.559Z"/>
  <path class="cls-4" d="m105.484,20.559h12.529v.111h-12.529v-.111Zm-63.095,0h12.585v.334h-12.585v-.334Zm31.548,0h12.529v30.091h-12.529v-30.091Z"/>
  <path class="cls-6" d="m35.062,81.578h2.125v-.335h-2.125v.335Zm0,10.049h2.125v-.335h-2.125v.335Zm.895-.168h.336v-10.049h-.336v10.049Z"/>
  <g class="cls-12">
    <path class="cls-6" d="m66.609,20.113h2.07v-.335h-2.07v.335Zm0,1.954h2.07v-.335h-2.07v.335Zm.896-.168h.335v-1.954h-.335v1.954Z"/>
  </g>
  <path class="cls-6" d="m98.1,20.838h2.126v-.335h-2.126v.335Zm0,1.229h2.126v-.335h-2.126v.335Zm.895-.168h.335v-1.228h-.335v1.228Z"/>
  <g class="cls-11">
    <path class="cls-6" d="m47.647,20.391h2.07v-.335h-2.07v.335Zm0,1.34h2.07v-.335h-2.07v.335Zm.84-.167h.335v-1.34h-.335v1.34Z"/>
  </g>
  <path class="cls-6" d="m79.138,48.36h2.125v-.335h-2.125v.335Zm0,4.914h2.125v-.335h-2.125v.335Zm.895-.168h.336v-4.914h-.336v4.914Z"/>
  <g class="cls-10">
    <path class="cls-6" d="m110.686,20.224h2.125v-.335h-2.125v.335Zm0,1.229h2.125v-.335h-2.125v.335Zm.895-.168h.335v-1.228h-.335v1.228Z"/>
  </g>
  <rect class="cls-8" x="26.448" y="20.559" width=".335" height="83.405"/>
  <path class="cls-8" d="m24.546,20.727h2.07v-.335h-2.07v.335Zm0,16.691h2.07v-.334h-2.07v.334Zm0,16.637h2.07v-.335h-2.07v.335Zm0,16.692h2.07v-.335h-2.07v.335Zm0,16.693h2.07v-.335h-2.07v.335Zm0,16.692h2.07v-.335h-2.07v.335Z"/>
  <rect class="cls-8" x="26.616" y="20.391" width="94.584" height=".334"/>
  <path class="cls-6" d="m19.817,104.223c-.01.14-.028.272-.053.393-.025.121-.06.232-.102.332-.044.1-.097.185-.161.257-.066.071-.143.125-.234.164-.091.038-.196.057-.315.057-.154,0-.284-.031-.391-.093-.108-.061-.196-.16-.265-.296-.07-.136-.12-.312-.152-.528-.032-.216-.048-.477-.048-.786,0-.23.012-.444.035-.644.023-.2.068-.374.133-.523.065-.15.153-.266.266-.351.113-.085.26-.127.441-.127.103,0,.195.013.277.039.082.027.155.07.218.128.064.059.12.133.165.224.045.09.083.197.112.322.029.126.051.271.066.434.015.164.022.349.022.556,0,.152-.006.3-.014.442m.508-1.385c-.047-.262-.123-.484-.232-.664-.109-.179-.252-.315-.43-.407-.178-.093-.398-.14-.659-.14-.273,0-.503.052-.691.156-.187.102-.339.248-.453.437-.116.188-.199.413-.25.675-.051.263-.077.552-.077.866,0,.34.023.642.069.904.047.264.123.484.232.664.108.179.252.316.43.408.178.093.396.139.657.139.274,0,.505-.051.693-.155.187-.103.339-.248.455-.437.116-.188.199-.413.249-.675.05-.261.076-.55.076-.867,0-.34-.023-.642-.069-.904m-3.475,1.163c-.058-.147-.143-.272-.258-.375-.114-.104-.256-.183-.426-.24-.171-.055-.37-.084-.598-.084-.099,0-.185.002-.259.004-.076.002-.149.008-.22.018v-1.158h1.478l.085-.063c.021-.043.031-.102.031-.179l-.008-.105-.023-.073-.041-.043-.049-.015h-1.832l-.142.051c-.033.035-.049.087-.049.157v1.681c0,.078.013.131.037.159l.129.041c.081,0,.168-.006.261-.019.095-.013.207-.019.336-.019.183,0,.341.016.473.05.132.033.241.082.328.149.086.067.151.151.191.252.042.101.062.218.062.35,0,.157-.024.29-.073.4-.049.109-.116.201-.203.272-.086.073-.189.125-.308.16-.12.034-.251.051-.393.051-.154,0-.286-.014-.398-.042-.112-.027-.205-.056-.281-.087-.076-.031-.135-.06-.18-.086l-.099-.04-.04.013-.031.04-.018.069-.004.098.003.099.011.068.017.046.034.041.111.062c.057.025.13.051.22.078.09.027.192.049.306.067.116.018.237.027.365.027.231,0,.44-.031.628-.092.189-.062.351-.152.487-.27.137-.119.242-.263.317-.435.075-.173.112-.37.112-.591,0-.178-.03-.341-.089-.487m-3.198,1.478l-.026-.072-.042-.043-.05-.014h-1.799l.655-.683c.237-.243.427-.456.57-.643.142-.186.252-.354.327-.507.075-.152.125-.293.149-.423.023-.132.035-.263.035-.395,0-.146-.025-.284-.074-.414-.049-.13-.123-.244-.222-.342s-.224-.174-.374-.231c-.149-.056-.325-.085-.525-.085-.126,0-.247.014-.36.039-.114.025-.218.057-.314.094-.094.037-.173.075-.236.114l-.133.09-.05.056-.021.048-.011.061-.003.082.006.116.019.075.029.042.041.013.12-.055c.054-.035.122-.075.202-.117.08-.042.173-.082.28-.119.107-.035.227-.053.361-.053.114,0,.215.018.303.053.088.037.161.086.22.147.058.062.102.134.133.215.031.082.046.169.046.261,0,.091-.009.189-.029.293-.021.105-.061.22-.123.347-.063.128-.152.27-.268.425-.114.156-.268.33-.459.526l-.826.848-.065.079-.041.073-.021.084-.006.113.012.117.036.073.056.037.079.011h2.285l.052-.014.039-.044.023-.076.007-.101-.007-.101Zm-3.184-1.376l-.022-.069-.035-.037-.047-.009h-1.335l-.087.048c-.018.032-.029.088-.029.169s.011.137.029.17l.087.049h1.335l.083-.047c.02-.032.029-.089.029-.172l-.008-.102Z"/>
  <path class="cls-6" d="m19.817,87.546c-.01.14-.028.272-.053.393-.025.121-.06.232-.102.332-.044.1-.097.185-.161.257-.066.071-.143.125-.234.164-.091.038-.196.057-.315.057-.154,0-.284-.031-.391-.093-.108-.061-.196-.16-.265-.296-.07-.136-.12-.312-.152-.528-.032-.216-.048-.477-.048-.786,0-.23.012-.444.035-.644.023-.2.068-.374.133-.523.065-.15.153-.266.266-.351.113-.085.26-.127.441-.127.103,0,.195.013.277.039s.155.07.218.128c.064.059.12.133.165.224.045.09.083.198.112.323s.051.27.066.433c.015.164.022.349.022.556,0,.153-.006.3-.014.442m.508-1.385c-.047-.262-.123-.484-.232-.664-.109-.179-.252-.315-.43-.407-.178-.093-.398-.14-.659-.14-.273,0-.503.052-.691.156-.187.102-.339.248-.453.437-.116.188-.199.413-.25.675-.051.263-.077.552-.077.866,0,.34.023.642.069.904.047.264.123.484.232.664.108.179.252.315.43.408.178.093.396.139.657.139.274,0,.505-.051.693-.155.187-.103.339-.248.455-.437.116-.188.199-.413.249-.675.05-.261.076-.55.076-.867,0-.34-.023-.641-.069-.904m-3.807,1.385c-.01.14-.027.272-.053.393-.025.121-.059.232-.102.332-.043.1-.096.185-.161.257-.065.071-.143.125-.233.164-.091.038-.196.057-.315.057-.153,0-.284-.031-.392-.093-.108-.061-.195-.16-.265-.296-.069-.136-.12-.312-.151-.528-.032-.216-.048-.477-.048-.786,0-.23.011-.444.034-.644.024-.2.068-.374.133-.523.065-.15.154-.266.267-.351.113-.085.26-.127.441-.127.102,0,.194.013.276.039s.156.07.219.128c.065.059.119.133.165.224.046.09.083.198.112.323s.05.27.065.433c.015.164.023.349.023.556,0,.153-.006.3-.015.442m.508-1.385c-.046-.262-.122-.484-.231-.664-.109-.179-.252-.315-.43-.407-.178-.093-.398-.14-.66-.14-.272,0-.503.052-.69.156-.187.102-.339.248-.454.437-.115.188-.198.413-.249.675-.052.263-.077.552-.077.866,0,.34.023.642.068.904.046.264.124.484.232.664.109.179.253.315.43.408.178.093.396.139.657.139.274,0,.506-.051.693-.155.188-.103.34-.248.456-.437.116-.188.199-.413.249-.675.05-.261.075-.55.075-.867,0-.34-.024-.641-.069-.904m-3.374,2.641l-.026-.072-.042-.043-.05-.014h-1.799l.655-.682c.237-.244.427-.457.57-.644.142-.186.252-.354.327-.506.075-.153.125-.294.149-.425.023-.131.035-.262.035-.394,0-.146-.025-.285-.074-.414-.049-.13-.123-.243-.222-.342-.099-.098-.224-.175-.374-.231-.149-.056-.325-.085-.525-.085-.126,0-.247.014-.36.04-.114.024-.218.056-.314.093-.094.037-.173.075-.236.114l-.133.09-.05.057-.021.047-.011.061-.003.082.006.116.019.075.029.042.041.013.12-.055c.054-.036.122-.075.202-.117.08-.042.173-.082.28-.119.107-.036.227-.053.361-.053.114,0,.215.017.303.053.088.037.161.086.22.148.058.062.102.133.133.214.031.082.046.169.046.261,0,.091-.009.189-.029.293-.021.104-.061.22-.123.348-.063.127-.152.268-.268.424-.114.156-.268.33-.459.526l-.826.849-.065.078-.041.073-.021.084-.006.112.012.118.036.074.056.036.079.011h2.285l.052-.014.039-.045.023-.075.007-.102-.007-.1Zm-3.184-1.376l-.022-.069-.035-.037-.047-.009h-1.335l-.087.048c-.018.032-.029.088-.029.169s.011.137.029.17l.087.049h1.335l.083-.047c.02-.032.029-.089.029-.172l-.008-.102Z"/>
  <path class="cls-6" d="m19.817,70.869c-.01.141-.028.273-.053.394-.025.121-.06.232-.102.332-.044.1-.097.185-.161.256-.066.072-.143.126-.234.165-.091.038-.196.056-.315.056-.154,0-.284-.03-.391-.092-.108-.062-.196-.159-.265-.296-.07-.136-.12-.313-.152-.528-.032-.216-.048-.477-.048-.786,0-.23.012-.444.035-.644.023-.201.068-.374.133-.523.065-.15.153-.267.266-.351.113-.085.26-.127.441-.127.103,0,.195.012.277.039.082.026.155.069.218.127.064.06.12.134.165.224s.083.198.112.324c.029.125.051.269.066.433s.022.349.022.556c0,.152-.006.3-.014.441m.508-1.384c-.047-.262-.123-.484-.232-.664-.109-.179-.252-.315-.43-.408-.178-.092-.398-.139-.659-.139-.273,0-.503.052-.691.155-.187.103-.339.249-.453.438-.116.187-.199.413-.25.675-.051.263-.077.552-.077.866,0,.341.023.642.069.904.047.263.123.484.232.664.108.179.252.315.43.407.178.093.396.139.657.139.274,0,.505-.051.693-.154.187-.103.339-.249.455-.437.116-.188.199-.413.249-.675.05-.26.076-.551.076-.867,0-.34-.023-.642-.069-.904m-3.475,1.162c-.058-.146-.143-.271-.258-.375-.114-.103-.256-.182-.426-.239-.171-.055-.37-.084-.598-.084-.099,0-.185.001-.259.003-.076.003-.149.009-.22.019v-1.158h1.478l.085-.064c.021-.042.031-.102.031-.178l-.008-.105-.023-.074-.041-.042-.049-.015h-1.832l-.142.051c-.033.034-.049.086-.049.156v1.681c0,.079.013.132.037.159l.129.042c.081,0,.168-.007.261-.019.095-.013.207-.019.336-.019.183,0,.341.016.473.049.132.034.241.083.328.15.086.067.151.152.191.252.042.101.062.218.062.35,0,.157-.024.29-.073.399-.049.11-.116.201-.203.273-.086.073-.189.125-.308.16-.12.033-.251.05-.393.05-.154,0-.286-.013-.398-.041-.112-.027-.205-.056-.281-.087-.076-.031-.135-.06-.18-.087l-.099-.039-.04.013-.031.04-.018.069-.004.098.003.098.011.07.017.046.034.041.111.061c.057.025.13.051.22.078.09.026.192.049.306.067.116.018.237.026.365.026.231,0,.44-.03.628-.092.189-.061.351-.152.487-.269.137-.119.242-.264.317-.435.075-.173.112-.37.112-.591,0-.178-.03-.341-.089-.488m-3.19,1.499l-.021-.068-.037-.042-.049-.014h-.747v-3.627l-.01-.036-.038-.029-.08-.017-.128-.006h-.096s-.067.009-.067.009l-.048.013-.032.015-.952.61-.046.038-.028.045-.014.064-.005.092.009.121.03.068.06.015.096-.038.799-.475v3.138h-.863l-.045.014-.036.042-.024.068-.009.1.009.101.028.067.036.037.041.011h2.16l.044-.011.036-.037.026-.067.01-.101-.009-.1Zm-3.192-1.397l-.022-.068-.035-.037-.047-.009h-1.335l-.087.048c-.018.031-.029.088-.029.168,0,.081.011.138.029.171l.087.049h1.335l.083-.047c.02-.032.029-.09.029-.173l-.008-.102Z"/>
  <path class="cls-6" d="m19.817,54.192c-.01.142-.028.273-.053.394-.025.121-.06.232-.102.332-.044.1-.097.186-.161.257-.066.071-.143.126-.234.164-.091.039-.196.057-.315.057-.154,0-.284-.03-.391-.093-.108-.061-.196-.159-.265-.295-.07-.137-.12-.313-.152-.529-.032-.215-.048-.477-.048-.785,0-.23.012-.445.035-.645.023-.2.068-.374.133-.523.065-.149.153-.266.266-.35.113-.086.26-.128.441-.128.103,0,.195.013.277.039.082.027.155.069.218.128.064.059.12.133.165.224.045.09.083.198.112.323s.051.27.066.433c.015.165.022.349.022.556,0,.153-.006.301-.014.441m.508-1.384c-.047-.262-.123-.484-.232-.663-.109-.18-.252-.316-.43-.408-.178-.093-.398-.139-.659-.139-.273,0-.503.052-.691.155-.187.103-.339.249-.453.437-.116.188-.199.414-.25.676-.051.262-.077.551-.077.866,0,.34.023.641.069.903.047.264.123.484.232.665.108.179.252.315.43.407.178.093.396.139.657.139.274,0,.505-.051.693-.154.187-.104.339-.249.455-.438.116-.187.199-.413.249-.675.05-.26.076-.55.076-.867,0-.34-.023-.642-.069-.904m-3.807,1.384c-.01.142-.027.273-.053.394-.025.121-.059.232-.102.332-.043.1-.096.186-.161.257-.065.071-.143.126-.233.164-.091.039-.196.057-.315.057-.153,0-.284-.03-.392-.093-.108-.061-.195-.159-.265-.295-.069-.137-.12-.313-.151-.529-.032-.215-.048-.477-.048-.785,0-.23.011-.445.034-.645.024-.2.068-.374.133-.523.065-.149.154-.266.267-.35.113-.086.26-.128.441-.128.102,0,.194.013.276.039.082.027.156.069.219.128.065.059.119.133.165.224.046.09.083.198.112.323s.05.27.065.433c.015.165.023.349.023.556,0,.153-.006.301-.015.441m.508-1.384c-.046-.262-.122-.484-.231-.663-.109-.18-.252-.316-.43-.408-.178-.093-.398-.139-.66-.139-.272,0-.503.052-.69.155-.187.103-.339.249-.454.437-.115.188-.198.414-.249.676-.052.262-.077.551-.077.866,0,.34.023.641.068.903.046.264.124.484.232.665.109.179.253.315.43.407.178.093.396.139.657.139.274,0,.506-.051.693-.154.188-.104.34-.249.456-.438.116-.187.199-.413.249-.675.05-.26.075-.55.075-.867,0-.34-.024-.642-.069-.904m-3.366,2.662l-.021-.069-.037-.041-.049-.015h-.747v-3.626l-.01-.037-.038-.028-.08-.017-.128-.007-.096.002-.067.007-.048.014-.032.015-.952.61-.046.038-.028.044-.014.064-.005.093.009.121.03.068.06.014.096-.038.799-.475v3.138h-.863l-.045.015-.036.041-.024.069-.009.099.009.102.028.067.036.036.041.011h2.16l.044-.011.036-.036.026-.067.01-.102-.009-.099Zm-3.192-1.397l-.022-.069-.035-.036-.047-.01h-1.335l-.087.048c-.018.032-.029.088-.029.169s.011.137.029.17l.087.05h1.335l.083-.048c.02-.032.029-.089.029-.172l-.008-.102Z"/>
  <path class="cls-6" d="m19.826,37.517c-.01.14-.027.272-.053.393-.025.121-.059.232-.102.332s-.096.185-.162.257c-.064.071-.142.125-.233.164-.09.039-.195.057-.314.057-.153,0-.284-.03-.392-.092-.108-.062-.195-.161-.265-.297-.069-.136-.12-.312-.152-.528-.031-.216-.047-.477-.047-.785,0-.231.011-.445.034-.645.025-.2.068-.374.133-.523.065-.149.154-.266.267-.351.113-.085.26-.127.441-.127.103,0,.194.013.276.039s.155.07.219.128c.065.059.119.133.165.224.046.09.083.198.112.323s.05.27.065.433c.015.165.023.349.023.556,0,.153-.005.3-.015.442m.508-1.385c-.046-.262-.123-.483-.231-.663-.109-.18-.252-.316-.43-.408-.178-.093-.398-.139-.66-.139-.272,0-.502.051-.69.155-.187.102-.339.248-.454.437-.115.188-.198.413-.25.676-.05.262-.076.551-.076.866,0,.34.023.641.068.904.046.263.124.483.232.664.109.178.253.315.43.407.178.093.396.139.657.139.275,0,.506-.051.693-.154.188-.104.339-.249.456-.438.116-.187.199-.413.248-.675.051-.261.075-.55.075-.867,0-.34-.023-.641-.068-.904m-3.474,1.163c-.058-.147-.145-.271-.258-.375-.114-.104-.256-.183-.427-.239-.17-.057-.369-.085-.597-.085-.098,0-.185.002-.261.004-.074.002-.148.008-.219.018v-1.157h1.478l.086-.064c.02-.042.03-.102.03-.178l-.007-.106-.025-.073-.04-.043-.05-.014h-1.83l-.142.05c-.034.035-.05.087-.05.157v1.681c0,.078.013.132.039.159l.127.041c.081,0,.169-.006.263-.019.093-.012.205-.019.335-.019.183,0,.341.017.473.05.132.033.241.082.328.15.086.066.149.15.191.251.042.102.062.218.062.35,0,.157-.024.29-.073.4-.049.11-.116.201-.203.273-.087.072-.189.125-.308.159s-.251.051-.393.051c-.154,0-.286-.014-.398-.041-.111-.028-.206-.057-.282-.088-.075-.031-.135-.06-.18-.086l-.099-.04-.039.013-.032.04-.017.07-.005.097.003.099.012.069.017.045.034.042.11.061c.058.025.131.051.221.079.089.026.191.048.306.066.115.018.236.027.364.027.23,0,.44-.031.628-.092.189-.062.352-.152.488-.27.136-.118.241-.263.316-.435.074-.173.112-.369.112-.591,0-.178-.029-.341-.088-.487m-3.084.102l-.022-.069-.035-.037-.047-.009h-1.335l-.087.048c-.019.032-.029.088-.029.169s.01.137.029.171l.087.049h1.335l.083-.048c.019-.032.029-.089.029-.172l-.008-.102Z"/>
  <path class="cls-6" d="m19.818,20.839c-.01.142-.027.273-.053.394-.026.122-.06.233-.102.332-.043.101-.097.186-.162.257s-.142.126-.233.165c-.09.038-.195.057-.315.057-.153,0-.284-.031-.391-.092-.108-.062-.196-.161-.265-.297-.069-.137-.12-.312-.152-.529-.032-.215-.048-.477-.048-.785,0-.23.012-.445.036-.645.023-.199.067-.373.132-.523.065-.148.154-.266.267-.35.112-.086.259-.128.441-.128.102,0,.194.013.276.04.082.027.155.069.219.128.064.058.119.133.165.222.045.091.083.199.111.325.029.125.051.269.066.434.015.163.022.348.022.554,0,.153-.004.301-.014.441m.508-1.383c-.046-.263-.123-.484-.232-.664-.108-.179-.251-.316-.43-.408-.177-.093-.397-.139-.659-.139-.273,0-.503.052-.691.155-.187.103-.338.248-.453.437-.116.188-.199.413-.25.676s-.076.551-.076.866c0,.34.023.641.069.904.046.263.122.483.231.663s.252.316.43.408c.178.093.397.139.657.139.274,0,.506-.051.692-.154.189-.103.34-.249.456-.437s.2-.413.25-.675c.049-.261.075-.551.075-.868,0-.339-.023-.641-.069-.903"/>
  <path class="cls-6" d="m44.596,9.952l-.02-.057-.069-.041-.128-.026c-.053-.006-.121-.009-.205-.009-.08,0-.147.003-.201.009l-.129.026-.07.041-.021.057v3.897l.021.058.068.041.129.026c.055.006.123.01.203.01.084,0,.152-.004.205-.01l.128-.026.069-.041.02-.058v-3.897m-1.458,3.204l-.02-.107-.031-.051-.051-.013-.117.051c-.05.035-.113.072-.192.115-.077.043-.17.082-.279.117-.109.035-.238.052-.387.052-.164,0-.312-.028-.443-.084-.131-.057-.243-.143-.335-.257-.093-.115-.164-.261-.215-.439-.049-.177-.074-.387-.074-.63,0-.221.023-.419.07-.596.047-.177.116-.327.205-.451.092-.125.202-.221.33-.288.129-.066.276-.1.439-.1.149,0,.279.018.386.056.108.037.2.079.278.125.078.045.14.086.19.124l.121.055.051-.019.039-.06.022-.108.007-.163-.006-.15-.014-.105-.025-.074-.059-.072c-.029-.029-.08-.063-.152-.103-.073-.041-.154-.076-.245-.107-.09-.031-.188-.055-.295-.075-.107-.019-.217-.029-.333-.029-.283,0-.543.049-.778.143-.235.097-.437.237-.605.422-.169.185-.299.413-.393.685-.094.273-.14.584-.14.935,0,.344.042.647.127.906.086.259.208.476.368.649.16.173.353.303.581.391.228.086.484.13.768.13.144,0,.279-.011.403-.035.125-.024.235-.053.332-.087.098-.036.179-.072.247-.11.067-.039.112-.07.135-.095l.052-.065.025-.069.014-.095.005-.135c0-.077-.002-.139-.006-.184"/>
  <path class="cls-6" d="m75.904,9.953l-.021-.058-.069-.041-.127-.025c-.053-.007-.122-.01-.205-.01-.081,0-.148.003-.201.01l-.13.025-.07.041-.021.058v3.897l.021.058.069.041.13.026c.053.006.121.009.202.009.083,0,.152-.003.205-.009l.127-.026.069-.041.021-.058v-3.897m-1.552.067l-.026-.107-.039-.058-.052-.017h-1.946c-.07,0-.129.02-.177.062-.048.042-.071.109-.071.203v3.741l.02.06.068.043.13.028c.055.006.122.009.203.009.083,0,.151-.003.204-.009l.13-.028.068-.043.02-.06v-1.538h1.268l.052-.017.039-.059.026-.105.008-.16-.008-.159-.026-.102-.039-.055-.052-.016h-1.268v-1.109h1.351l.052-.02.039-.057.026-.103.008-.161-.008-.163Z"/>
  <path class="cls-6" d="m107.641,9.953l-.021-.058-.069-.041-.127-.026c-.053-.006-.121-.009-.205-.009-.08,0-.148.003-.201.009l-.13.026-.07.041-.021.058v3.897l.021.058.069.041.13.025c.053.007.122.01.202.01.084,0,.152-.003.205-.01l.127-.025.069-.041.021-.058v-3.897m-2.405,1.494c-.029.09-.073.169-.131.233-.057.064-.131.115-.222.151-.09.036-.203.054-.337.054h-.377v-1.399h.358c.087,0,.172.005.254.017.082.011.16.04.235.084.074.045.138.114.188.207.051.094.077.213.077.358,0,.106-.015.204-.045.295m.854-.81c-.047-.135-.115-.253-.205-.354-.089-.102-.198-.185-.324-.25-.127-.067-.252-.112-.376-.136-.123-.025-.229-.041-.318-.048-.088-.007-.181-.011-.279-.011h-.975c-.085,0-.154.025-.206.075-.052.05-.078.124-.078.224v3.713l.019.058.067.041.129.025c.055.007.122.01.203.01.084,0,.151-.003.205-.01l.128-.025.068-.041.021-.058v-1.317h.345c.273,0,.509-.032.711-.096.202-.064.371-.157.51-.279.138-.122.243-.273.317-.451.073-.178.108-.384.108-.616,0-.168-.024-.32-.07-.454"/>
  <path class="cls-6" d="m2.417,33.955c-.457.114-.909.282-1.356.504l-.029.026-.024.06-.016.105c-.003.042-.005.097-.005.162,0,.079.004.142.012.19l.033.112.058.044.077-.01c.415-.181.843-.317,1.285-.409.443-.091.896-.137,1.36-.137.467,0,.922.046,1.363.139.442.092.871.227,1.29.404l.087.018.062-.035.039-.107c.009-.047.013-.115.013-.202l-.007-.153-.018-.107-.029-.067-.039-.033c-.222-.116-.444-.215-.67-.298-.224-.085-.451-.155-.68-.211-.229-.057-.46-.098-.693-.126-.234-.028-.47-.042-.711-.042-.478,0-.945.057-1.402.173m2.053,2.732c.086.068.157.131.216.189l.142.166.078.161.025.16c0,.112-.028.202-.08.275-.054.072-.124.13-.213.174-.088.043-.189.075-.302.094s-.228.029-.349.029c-.111,0-.222-.012-.33-.034-.107-.023-.205-.057-.292-.102-.087-.046-.157-.107-.21-.182-.052-.076-.078-.166-.078-.27,0-.114.038-.224.116-.329.076-.105.187-.216.332-.331h.945Zm-3.233-.797l-.058.019-.044.063-.026.122c-.006.051-.01.116-.01.195s.004.144.01.194l.026.123.044.064.058.017h1.543c-.126.128-.221.256-.286.386-.065.13-.097.274-.097.434,0,.202.037.38.114.535.077.156.187.285.33.39.143.104.315.183.518.237.202.055.43.082.683.082.211,0,.412-.022.602-.064.191-.043.358-.111.501-.206.142-.094.256-.216.34-.367.084-.149.126-.333.126-.55,0-.195-.043-.374-.13-.534-.088-.16-.211-.314-.369-.461h.317l.059-.017.04-.057.022-.104c.005-.042.007-.098.007-.166l-.007-.161-.022-.104-.04-.054-.059-.016H1.237Zm-.24,3.184l-.094-.01-.066.048-.038.122c-.009.055-.013.127-.013.217,0,.068.003.125.008.173l.024.116.043.07.069.039,5.365,1.906.094.014.066-.05.038-.125c.009-.056.013-.127.013-.215,0-.069-.003-.127-.008-.173l-.025-.115-.041-.071-.067-.042-5.368-1.904Zm4.887,3.853l.136.109c.041.051.073.117.097.201.025.082.038.184.038.306,0,.195-.028.347-.084.454-.055.107-.136.162-.242.162l-.099-.011-.1-.039-.107-.08-.117-.132.017-.571c.004-.135.032-.239.083-.316.051-.076.124-.114.22-.114l.158.031Zm-2.25.186l.156.09.106.149c.025.059.038.129.038.21,0,.151-.042.269-.127.354-.083.085-.198.127-.343.127-.066,0-.13-.009-.19-.029l-.16-.087-.109-.148c-.027-.06-.039-.129-.039-.207,0-.156.042-.276.127-.361s.205-.128.358-.128l.183.03Zm-1.093-1.026l-.071.088v.902c-.019.07-.034.146-.045.228-.011.082-.015.168-.015.257,0,.175.023.333.071.478.048.145.118.269.208.374.09.103.201.185.333.244.13.058.279.087.444.087.156,0,.287-.022.391-.066.104-.045.194-.105.269-.18.083.092.175.167.279.224.103.057.218.086.343.086.1,0,.193-.025.277-.075s.15-.121.2-.212c.049.066.099.124.153.176l.168.129.184.079c.064.018.13.027.2.027.114,0,.218-.024.312-.075.095-.049.176-.13.245-.239.068-.109.122-.25.16-.421.038-.17.057-.377.057-.62,0-.248-.027-.466-.08-.652-.053-.187-.126-.341-.217-.464-.091-.123-.2-.216-.324-.278-.125-.061-.258-.093-.398-.093-.128,0-.242.023-.343.069-.099.046-.185.112-.256.198-.072.086-.126.192-.166.319-.04.126-.063.27-.069.432l-.026.692c-.004.098-.026.174-.065.228l-.152.081-.127-.029-.1-.069c.03-.045.056-.109.079-.191.022-.084.032-.171.032-.262,0-.179-.022-.341-.068-.487-.045-.145-.113-.269-.201-.373-.089-.103-.197-.182-.326-.237-.129-.055-.277-.083-.442-.083-.071,0-.139.01-.204.03-.064.02-.122.054-.174.1v-.334l-.073-.087c-.049-.023-.125-.034-.227-.034-.111,0-.189.011-.236.033m-1.451,3.281l-.058.042-.033.112c-.008.049-.012.112-.012.189,0,.068.002.123.005.166l.016.104.024.058.029.025c.224.113.448.211.674.295.226.084.454.155.682.213.229.056.46.1.694.128.233.029.469.044.708.044.241,0,.477-.015.711-.042.233-.028.464-.07.693-.126.229-.056.456-.127.68-.212.226-.085.448-.185.67-.3l.039-.033.029-.067.018-.107.007-.153c0-.085-.004-.152-.013-.199l-.039-.107-.062-.035-.087.018c-.422.175-.854.309-1.293.401-.44.092-.893.138-1.36.138-.464,0-.917-.046-1.36-.136-.442-.092-.87-.227-1.285-.405l-.077-.011Zm2.6,5.298c-.099-.005-.194-.02-.282-.046-.088-.027-.165-.065-.23-.115-.066-.05-.117-.113-.155-.188-.039-.075-.057-.165-.057-.266,0-.202.063-.352.192-.449.13-.097.307-.142.532-.136v1.2Zm.103-1.977c-.2,0-.386.025-.557.076-.169.051-.317.131-.441.239-.125.109-.223.247-.293.417-.071.169-.105.372-.105.611,0,.224.037.427.111.606.075.18.183.333.324.459.142.125.315.221.518.286.204.066.432.099.686.099.265,0,.498-.031.697-.094.198-.062.361-.158.492-.285.13-.128.227-.287.29-.477.064-.19.096-.412.096-.665,0-.14-.009-.272-.027-.396-.018-.123-.039-.233-.063-.328-.025-.096-.05-.174-.076-.236l-.061-.113-.045-.034-.061-.019-.084-.009-.12-.003-.132.004-.081.018-.041.031-.011.049.03.124c.021.051.043.115.067.193.025.078.048.169.067.276.021.106.031.229.031.37,0,.138-.018.257-.054.356-.037.099-.089.179-.158.242-.07.062-.154.108-.253.136-.099.029-.209.044-.33.044v-1.732c0-.076-.024-.137-.071-.18-.047-.044-.119-.065-.217-.065h-.128Zm1.555,2.96l-.111.056-1.492.962-.946-.832-.115-.071-.102-.024-.059.019-.04.069-.024.13c-.005.055-.008.121-.008.2,0,.081.003.147.008.199l.024.131.045.085.066.057,1.135.842H1.227l-.058.019-.043.066-.027.122c-.006.051-.009.116-.009.194,0,.079.003.143.009.195l.027.123.043.065.058.019h4.202l.056-.019.04-.065.024-.123c.005-.052.008-.116.008-.195,0-.078-.003-.143-.008-.194l-.024-.122-.04-.066-.056-.019h-1.508l1.502-.948.066-.05.041-.082.02-.133c.005-.055.007-.126.007-.213,0-.085-.003-.154-.008-.207l-.022-.126-.039-.064-.056-.018-.084.018Zm-.644,4.228c.111.098.195.194.252.289.057.094.086.199.086.31,0,.135-.033.24-.101.314-.07.076-.163.114-.282.114-.07,0-.133-.013-.187-.04l-.139-.126c-.038-.056-.067-.132-.087-.223-.019-.091-.029-.202-.029-.333v-.305h.487Zm-1.183-.788c-.195,0-.365.024-.508.07-.143.047-.259.122-.35.224-.09.102-.158.232-.201.391-.044.158-.065.349-.065.572,0,.126.01.247.03.365s.046.227.078.327c.032.1.066.187.104.262.037.074.071.126.102.156l.104.06c.038.011.09.016.156.016l.135-.01.102-.027.064-.044.023-.062-.046-.132c-.029-.054-.062-.122-.098-.203s-.069-.174-.1-.279c-.029-.105-.044-.225-.044-.359,0-.102.011-.188.032-.257.021-.068.054-.123.099-.165.045-.042.101-.072.168-.09.067-.018.145-.027.234-.027h.174v.277c0,.254.018.476.057.667.038.192.097.351.177.48.08.129.181.225.304.291.122.064.266.097.433.097.153,0,.287-.026.403-.077.114-.051.21-.123.288-.215.079-.093.137-.202.176-.329.039-.126.059-.265.059-.416,0-.183-.035-.35-.105-.499-.07-.15-.168-.283-.295-.4h.228l.07-.028.037-.092c.007-.044.011-.113.011-.209,0-.089-.004-.157-.011-.202l-.037-.101-.07-.032h-1.918Zm1.48,2.981l-.091.018-.045.028-.011.036.011.05.025.066.026.091.012.115c0,.125-.039.212-.117.261-.077.049-.194.073-.35.073h-1.339v-.621l-.075-.092c-.05-.021-.134-.033-.251-.033l-.156.008-.101.025-.053.039-.016.056v.618h-.636l-.057.02-.043.064-.026.122c-.005.053-.009.118-.009.197,0,.076.004.14.009.193l.026.124.043.064.057.017h.636v.339l.016.055.053.04.101.024.156.008c.117,0,.201-.011.251-.032l.075-.092v-.342h1.46c.175,0,.326-.017.454-.054.128-.036.233-.093.318-.169.084-.076.147-.173.187-.29.041-.117.06-.255.06-.415l-.009-.177-.027-.162-.042-.131-.054-.085-.105-.046c-.051-.012-.122-.018-.216-.018l-.147.008Zm-1.333,2.421c-.206,0-.383.017-.53.053-.148.036-.276.096-.385.178-.11.082-.197.19-.261.321-.063.134-.095.297-.095.49,0,.176.042.347.127.509s.214.323.384.479h-.329l-.056.017-.04.052-.024.105c-.005.044-.008.101-.008.169,0,.065.003.12.008.163l.024.108.04.057.056.015h2.85l.056-.019.04-.065.024-.123c.005-.05.008-.116.008-.194,0-.079-.003-.144-.008-.195l-.024-.122-.04-.066-.056-.019h-1.895c-.143-.113-.252-.222-.326-.326-.075-.104-.112-.207-.112-.309,0-.08.016-.151.047-.212l.131-.148c.056-.039.124-.068.203-.088.079-.02.187-.03.325-.03h1.627l.056-.02.04-.063.024-.123c.005-.052.008-.117.008-.196,0-.076-.003-.141-.008-.193l-.024-.123-.04-.064-.056-.018h-1.761Zm-2.15,3.557l-.058.021-.041.069-.026.128c-.006.052-.009.121-.009.204,0,.081.003.148.009.201l.026.129.041.07.058.021h3.905l.058-.021.041-.069.026-.129c.005-.054.009-.121.009-.202,0-.083-.004-.152-.009-.204l-.026-.128-.041-.069-.058-.021H1.518Zm3.362,3.836v1.725l-2.672-.861v-.007l2.672-.857Zm.252-.932l-.098.005-.119.021-.149.039c-.056.016-.12.037-.191.063l-3.016,1.043-.096.048-.052.087c-.012.042-.019.1-.023.173-.003.076-.004.175-.004.301,0,.11,0,.199.004.266.004.067.011.119.023.157l.051.079.088.044,3.029,1.048c.071.024.133.043.187.06l.147.038.12.02.099.007h.114c.094,0,.167-.024.217-.07.05-.047.075-.112.075-.194v-2.967c0-.083-.025-.148-.075-.196-.05-.049-.123-.072-.217-.072h-.114Z"/>
  <text class="cls-2" transform="translate(0 16.829)"><tspan x="0" y="0">A</tspan></text>
  <g>
    <rect class="cls-5" x="112.811" y="54.836" width="3.58" height="3.573"/>
    <rect class="cls-4" x="112.811" y="61.665" width="3.58" height="3.573"/>
    <text class="cls-3" transform="translate(117.961 58.76)"><tspan x="0" y="0">저탄수화물 (RC)</tspan></text>
    <text class="cls-3" transform="translate(118.08 65.265)"><tspan x="0" y="0">저지방 (RF)</tspan></text>
  </g>
  <text class="cls-1" transform="translate(31.95 5.568)"><tspan x="0" y="0">탄수화물</tspan></text>
  <text class="cls-1" transform="translate(68.951 5.568)"><tspan x="0" y="0">지방</tspan></text>
  <text class="cls-1" transform="translate(98.446 5.568)"><tspan x="0" y="0">단백질</tspan></text>
  <rect class="cls-9" x="228.615" y="14.614" width="109.017" height="88.491"/>
  <rect class="cls-5" x="250.151" y="44.149" width="28.639" height="32.94"/>
  <rect class="cls-4" x="287.403" y="44.149" width="28.695" height="2.568"/>
  <path class="cls-6" d="m263.407,57.158h2.126v-.334h-2.126v.334Zm0,40.254h2.126v-.335h-2.126v.335Zm.896-.168h.335v-40.254h-.335v40.254Z"/>
  <path class="cls-6" d="m300.716,25.335h2.07v-.336h-2.07v.336Zm0,43.045h2.07v-.335h-2.07v.335Zm.895-.168h.336V25.167h-.336v43.045Z"/>
  <rect class="cls-8" x="228.448" y="14.616" width=".335" height="88.49"/>
  <path class="cls-8" d="m226.546,14.782h2.069v-.335h-2.069v.335Zm0,14.739h2.069v-.335h-2.069v.335Zm0,14.796h2.069v-.335h-2.069v.335Zm0,14.739h2.069v-.335h-2.069v.335Zm0,14.739h2.069v-.334h-2.069v.334Zm0,14.739h2.069v-.335h-2.069v.335Zm0,14.739h2.069v-.334h-2.069v.334Z"/>
  <rect class="cls-8" x="228.616" y="43.982" width="109.016" height=".335"/>
  <path class="cls-6" d="m221.767,103.392c-.011.141-.028.272-.053.393-.026.121-.06.232-.103.332-.042.1-.096.186-.161.257-.065.071-.143.126-.233.164-.091.039-.196.058-.315.058-.153,0-.284-.031-.391-.092-.108-.062-.197-.161-.266-.297-.069-.137-.12-.313-.152-.529-.032-.215-.048-.477-.048-.786,0-.229.012-.444.036-.644.023-.2.067-.373.132-.523.065-.149.154-.266.266-.351.114-.085.261-.127.442-.127.102,0,.195.013.276.039.082.027.155.07.22.128.063.059.118.133.164.224.046.09.083.198.111.322.029.126.052.271.066.434.015.165.023.35.023.556,0,.153-.005.301-.014.442m.508-1.385c-.046-.262-.124-.483-.233-.663-.108-.18-.251-.316-.429-.408-.177-.093-.398-.139-.66-.139-.273,0-.503.052-.69.155-.188.103-.339.249-.454.436-.115.189-.198.414-.249.677-.052.262-.078.551-.078.866,0,.34.023.642.069.904.047.263.124.483.232.664.109.179.252.315.43.407.178.093.397.139.657.139.275,0,.505-.051.693-.154.187-.104.34-.249.456-.437.116-.188.199-.414.249-.675.049-.261.075-.551.075-.868,0-.34-.023-.641-.068-.904m-4.33,1.577h-1.336l1.329-2.264h.007v2.264Zm1.104.057l-.088-.057h-.466v-2.634l-.026-.049-.075-.034-.128-.021c-.055-.005-.117-.007-.188-.007-.065,0-.121.001-.169.004l-.12.018-.081.032-.047.044-1.474,2.507-.038.078-.025.077-.013.088-.003.108.008.125.029.073.045.035.063.01h1.692v.867l.012.043.043.031.083.019.132.006.135-.006.086-.019.046-.031.013-.043v-.867h.466l.09-.062c.021-.039.032-.095.032-.165,0-.077-.011-.133-.034-.17m-3.333-.369l-.023-.069-.034-.036-.047-.01h-1.335l-.087.048c-.019.032-.029.088-.029.169s.01.137.029.171l.087.049h1.335l.083-.047c.019-.032.029-.09.029-.173l-.008-.102Z"/>
  <path class="cls-6" d="m221.767,88.643c-.011.141-.028.272-.053.393-.026.121-.06.232-.103.332-.042.1-.096.186-.161.257-.065.072-.143.126-.233.164-.091.039-.196.058-.315.058-.153,0-.284-.03-.391-.092-.108-.062-.197-.161-.266-.297-.069-.136-.12-.313-.152-.528-.032-.216-.048-.478-.048-.787,0-.229.012-.443.036-.643.023-.201.067-.375.132-.524.065-.149.154-.266.266-.351.114-.085.261-.128.442-.128.102,0,.195.014.276.041.082.026.155.069.22.127.063.059.118.133.164.224.046.09.083.198.111.323.029.126.052.27.066.434.015.164.023.349.023.555,0,.153-.005.3-.014.442m.508-1.385c-.046-.263-.124-.483-.233-.663-.108-.179-.251-.316-.429-.408-.177-.092-.398-.139-.66-.139-.273,0-.503.051-.69.155-.188.103-.339.248-.454.436-.115.189-.198.414-.249.677-.052.262-.078.551-.078.866,0,.341.023.641.069.904.047.263.124.483.232.664.109.18.252.315.43.407.178.093.397.139.657.139.275,0,.505-.051.693-.154.187-.104.34-.249.456-.437.116-.188.199-.414.249-.675.049-.261.075-.55.075-.867,0-.34-.023-.642-.068-.905m-3.472,1.433c-.048-.114-.115-.214-.199-.298-.085-.086-.187-.157-.306-.213-.118-.056-.249-.092-.391-.107v-.006c.125-.023.237-.066.332-.126.096-.061.178-.134.243-.22.066-.086.116-.185.151-.297.033-.112.05-.232.05-.362,0-.151-.023-.289-.071-.413-.049-.124-.121-.231-.217-.32-.098-.09-.218-.158-.363-.208-.146-.049-.314-.073-.506-.073-.135,0-.263.013-.381.038-.118.026-.223.057-.313.094-.091.038-.167.075-.229.114l-.123.087-.043.054-.022.048-.013.064-.003.084.004.114.017.067.029.031.039.009.112-.055c.053-.038.12-.078.201-.12.081-.044.174-.083.277-.12.103-.037.216-.056.34-.056.113,0,.212.016.298.05.087.033.158.078.213.135.055.057.097.125.125.203.027.077.042.158.042.243,0,.118-.021.223-.063.318-.042.095-.101.176-.179.244-.078.068-.172.12-.285.156-.111.036-.237.054-.378.054h-.361l-.051.011-.04.035-.028.064-.009.1.012.11.03.066.042.036.052.012h.405c.17,0,.322.018.454.055.134.035.245.088.337.156.091.068.16.148.208.242.047.093.071.198.071.315,0,.107-.019.206-.056.296-.037.09-.092.168-.167.234-.074.066-.167.117-.275.153-.11.037-.237.054-.381.054-.148,0-.283-.017-.405-.051-.121-.033-.227-.071-.318-.11-.09-.039-.165-.076-.222-.11l-.116-.05-.066.044c-.015.03-.023.083-.023.159l.005.113.014.079.022.054.037.044.117.073c.061.033.139.064.232.095.094.031.202.058.322.08.12.022.25.033.388.033.228,0,.433-.029.614-.087.181-.059.333-.142.457-.251.123-.108.217-.239.284-.391.066-.151.099-.322.099-.511,0-.131-.024-.252-.072-.365m-3.087-.168l-.023-.069-.034-.036-.047-.01h-1.335l-.087.048c-.019.032-.029.089-.029.169,0,.081.01.137.029.171l.087.049h1.335l.083-.048c.019-.032.029-.089.029-.172l-.008-.102Z"/>
  <path class="cls-6" d="m221.767,73.894c-.011.14-.028.272-.053.393-.026.121-.06.232-.103.332-.042.1-.096.185-.161.257-.065.071-.143.126-.233.164-.091.038-.196.058-.315.058-.153,0-.284-.032-.391-.093-.108-.062-.197-.161-.265-.297-.07-.136-.121-.312-.153-.528-.032-.216-.048-.477-.048-.786,0-.23.012-.444.036-.644.023-.2.067-.374.132-.523.065-.15.155-.266.266-.351.114-.085.261-.128.442-.128.102,0,.195.014.276.04.082.027.155.07.22.128.063.059.118.133.164.224.046.09.083.197.111.322.029.126.052.271.066.434.015.164.023.349.023.556,0,.153-.005.3-.014.442m.508-1.385c-.046-.263-.124-.484-.233-.664-.107-.179-.251-.315-.429-.407-.177-.093-.398-.14-.66-.14-.273,0-.503.052-.69.156-.188.102-.339.248-.454.436-.115.189-.198.413-.249.676-.052.263-.078.552-.078.866,0,.341.023.642.069.904.047.264.124.484.232.664.109.18.253.316.43.408.178.093.397.138.657.138.275,0,.506-.05.693-.154.187-.103.34-.248.456-.436.116-.189.199-.414.249-.676.049-.261.075-.55.075-.867,0-.34-.023-.641-.068-.904m-3.376,2.641l-.025-.072-.042-.043-.05-.014h-1.799l.655-.682c.237-.244.427-.457.57-.644.142-.186.251-.354.328-.506.074-.153.124-.294.147-.425.025-.131.036-.262.036-.394,0-.147-.025-.284-.074-.414-.049-.13-.123-.243-.222-.342-.099-.098-.223-.174-.374-.231-.15-.057-.325-.085-.525-.085-.127,0-.246.014-.36.038-.114.026-.218.058-.313.095s-.174.075-.237.114l-.133.09-.05.056-.021.048-.011.061-.003.082.006.116.018.075.03.042.041.013.12-.055c.054-.036.121-.075.201-.117.081-.043.174-.082.281-.118.107-.037.227-.055.361-.055.114,0,.215.018.303.055.088.036.161.085.22.147.058.062.103.133.133.214.031.082.046.169.046.261,0,.091-.01.189-.03.293-.02.104-.061.22-.123.348-.062.127-.152.268-.266.424-.116.156-.269.331-.46.526l-.826.848-.065.079-.041.073-.021.084-.005.112.011.118.035.074.058.036.078.011h2.285l.052-.014.039-.045.022-.074.009-.103-.009-.1Zm-3.183-1.376l-.023-.069-.034-.037-.047-.009h-1.335l-.087.048c-.019.032-.029.088-.029.169,0,.08.01.137.029.17l.087.049h1.335l.083-.047c.019-.032.029-.089.029-.172l-.008-.102Z"/>
  <path class="cls-6" d="m221.767,59.144c-.011.141-.028.272-.053.394-.026.121-.06.232-.103.331-.042.1-.096.186-.161.257-.065.072-.143.126-.233.164-.091.039-.196.058-.315.058-.153,0-.284-.03-.391-.092-.108-.062-.197-.161-.266-.297-.069-.136-.12-.313-.152-.528-.032-.216-.048-.478-.048-.786,0-.23.012-.445.036-.644.023-.201.067-.374.132-.524.065-.149.154-.265.266-.35.114-.086.261-.128.442-.128.102,0,.195.013.276.039.082.028.155.07.22.128.063.059.118.133.164.224.046.09.083.198.111.323.029.125.052.27.066.434.015.164.023.349.023.556,0,.152-.005.3-.014.441m.508-1.384c-.046-.263-.124-.484-.233-.664-.108-.179-.251-.315-.429-.408-.177-.092-.398-.139-.66-.139-.273,0-.503.052-.69.155-.188.103-.339.249-.454.436-.115.189-.198.414-.249.677-.052.262-.078.551-.078.866,0,.341.023.642.069.904.047.263.124.483.232.664.109.18.252.315.43.407.178.093.397.139.657.139.275,0,.505-.051.693-.154.187-.104.34-.249.456-.437.116-.188.199-.413.249-.675.049-.261.075-.551.075-.868,0-.34-.023-.641-.068-.903m-3.366,2.662l-.023-.07-.036-.041-.048-.014h-.748v-3.626l-.01-.038-.038-.028-.08-.018-.128-.006-.096.002-.067.007-.047.014-.033.015-.952.61-.046.038-.027.045-.015.063-.004.093.008.121.03.068.059.015.098-.039.798-.475v3.139h-.863l-.046.014-.035.041-.024.07-.009.098.009.102.027.067.037.037.041.01h2.161l.043-.01.036-.037.026-.067.01-.102-.008-.098Zm-3.193-1.398l-.023-.068-.034-.037-.047-.009h-1.335l-.087.047c-.019.032-.029.089-.029.169,0,.081.01.138.029.171l.087.049h1.335l.083-.047c.019-.032.029-.09.029-.173l-.008-.102Z"/>
  <path class="cls-6" d="m221.758,44.394c-.008.141-.027.273-.052.394-.026.122-.06.232-.102.331-.043.1-.097.186-.162.258-.065.07-.142.125-.233.164-.09.037-.195.057-.315.057-.153,0-.284-.031-.392-.092-.107-.062-.195-.161-.265-.297-.069-.137-.12-.312-.152-.528-.031-.215-.047-.478-.047-.786,0-.23.011-.444.035-.644.023-.2.067-.375.133-.524.065-.148.153-.266.267-.35.112-.085.259-.128.44-.128.103,0,.194.014.277.04.082.027.155.069.219.127.063.059.119.133.164.223.046.091.083.198.113.324.028.126.049.271.064.434.016.164.023.349.023.555,0,.153-.005.301-.015.442m.509-1.384c-.046-.263-.124-.484-.232-.663-.109-.18-.252-.316-.43-.409-.178-.092-.398-.139-.66-.139-.273,0-.503.051-.69.155-.188.103-.339.248-.453.437-.116.188-.199.414-.25.676-.051.263-.076.551-.076.866,0,.34.023.642.068.904.046.263.123.485.232.663.108.18.251.317.43.409.178.093.396.139.657.139.274,0,.506-.052.693-.156.188-.102.339-.248.455-.436.116-.189.199-.413.249-.675.051-.261.075-.55.075-.867,0-.34-.023-.642-.068-.904"/>
  <path class="cls-6" d="m221.75,29.645c-.01.141-.028.272-.053.393-.025.122-.059.233-.102.332-.042.101-.096.186-.161.257-.066.071-.143.126-.233.165-.092.038-.197.057-.316.057-.154,0-.284-.031-.391-.093-.108-.061-.196-.16-.265-.296-.069-.137-.12-.312-.152-.529-.032-.215-.048-.477-.048-.785,0-.23.012-.445.035-.645.023-.199.068-.373.133-.522.064-.15.153-.266.266-.351.113-.085.261-.128.442-.128.102,0,.193.013.276.04.082.026.155.069.219.127.063.059.119.133.165.224.045.09.082.198.111.323.029.125.05.271.066.434.015.164.022.349.022.555,0,.153-.004.301-.014.442m.508-1.385c-.047-.262-.123-.483-.232-.663-.109-.179-.252-.315-.43-.408-.178-.093-.398-.139-.659-.139-.273,0-.503.052-.691.155-.187.103-.339.249-.454.437-.115.188-.198.414-.249.676-.051.263-.077.551-.077.866,0,.34.023.642.07.904.046.263.123.483.231.664.109.179.252.315.43.408.178.093.396.138.657.138.274,0,.505-.051.693-.154.187-.103.34-.249.455-.437.116-.188.199-.413.249-.674.05-.262.076-.551.076-.869,0-.339-.023-.641-.069-.904m-3.365,2.662l-.023-.069-.036-.041-.048-.015h-.748v-3.626l-.01-.037-.038-.028-.08-.017-.128-.007-.096.002-.067.008-.048.013-.032.015-.952.61-.046.038-.027.045-.015.063-.005.093.007.121.032.068.058.014.098-.038.799-.475v3.138h-.863l-.046.015-.036.041-.023.069-.01.099.01.102.027.067.036.037.042.011h2.161l.043-.011.036-.037.026-.067.009-.102-.007-.099Z"/>
  <path class="cls-6" d="m221.75,14.896c-.01.141-.027.272-.053.394-.025.12-.059.232-.102.331-.043.1-.096.186-.162.257-.064.072-.142.127-.233.164-.09.039-.196.058-.314.058-.154,0-.284-.03-.392-.092s-.196-.161-.265-.297c-.07-.136-.12-.313-.152-.528-.032-.216-.048-.478-.048-.786,0-.23.012-.444.035-.644.024-.201.068-.374.133-.524.065-.149.154-.265.266-.351.114-.085.261-.127.442-.127.102,0,.195.013.276.04.082.027.155.069.219.127.064.059.119.133.164.224.046.09.083.198.112.323.029.126.051.271.067.434.013.164.021.349.021.556,0,.152-.004.3-.014.441m.508-1.385c-.046-.262-.123-.483-.232-.663-.108-.179-.252-.315-.429-.408-.178-.092-.398-.139-.661-.139-.272,0-.502.052-.69.155-.187.103-.338.249-.454.436-.114.189-.197.414-.249.677-.051.262-.077.552-.077.866,0,.341.023.642.07.904.045.263.123.484.231.664.109.18.252.316.43.407.178.093.397.139.657.139.274,0,.505-.051.693-.154.187-.103.339-.249.455-.437.117-.188.2-.413.25-.675.049-.261.075-.55.075-.867,0-.34-.023-.641-.069-.905m-3.375,2.642l-.026-.072-.042-.043-.049-.014h-1.799l.655-.683c.236-.243.426-.456.569-.643.142-.187.252-.355.328-.507.075-.152.125-.293.148-.424.024-.131.035-.262.035-.394,0-.147-.024-.284-.073-.415-.049-.13-.123-.243-.222-.341-.099-.098-.223-.174-.374-.232-.15-.056-.325-.084-.526-.084-.126,0-.246.013-.36.038-.114.026-.218.058-.313.095-.094.037-.173.074-.236.113l-.132.091-.052.056-.02.047-.012.061-.003.083.006.115.019.076.03.042.041.013.12-.055c.054-.036.121-.075.201-.118.08-.043.174-.081.281-.118.107-.036.227-.054.36-.054.114,0,.216.018.304.054.088.037.161.086.219.147.059.062.102.134.134.215.03.082.046.169.046.26s-.01.19-.03.294c-.019.104-.061.22-.123.347-.062.128-.152.269-.267.425-.115.154-.268.33-.459.526l-.827.849-.064.077-.041.074-.022.084-.004.112.011.118.035.074.057.036.078.01h2.286l.052-.014.039-.044.022-.075.008-.102-.008-.1Z"/>
  <path class="cls-6" d="m209.975,76.615l-.107.019-.052.032-.011.051.05.116c.035.051.073.114.115.191.043.079.082.171.117.28.035.108.053.237.053.386,0,.163-.029.311-.085.441-.056.132-.142.243-.257.336-.115.092-.262.163-.44.214-.177.049-.388.074-.631.074-.222,0-.421-.023-.597-.071-.177-.046-.328-.115-.453-.205-.124-.09-.22-.199-.287-.329-.067-.128-.101-.274-.101-.438,0-.148.019-.277.056-.384.037-.108.079-.2.125-.278.045-.077.087-.141.125-.189l.055-.122-.019-.051-.061-.038-.108-.022-.163-.007-.151.005-.105.015-.073.025-.073.059c-.028.029-.063.079-.104.151-.04.073-.075.154-.106.245-.031.09-.056.188-.075.294-.02.107-.029.217-.029.333,0,.282.048.541.144.776.095.234.236.437.421.604.186.168.415.299.687.392.273.095.585.141.937.141.345,0,.647-.042.908-.128.259-.085.476-.206.65-.367.173-.159.304-.353.391-.58.088-.228.131-.483.131-.765,0-.145-.012-.28-.035-.403-.024-.126-.053-.236-.088-.333-.035-.096-.072-.178-.11-.246-.038-.066-.07-.111-.095-.135l-.065-.051-.068-.025-.097-.015-.136-.004c-.076,0-.137.002-.183.006m-2.066,4.812l-.1.01-.053.015-.035.024-.03.056-.026.09-.016.099-.005.089.023.179.086.178c.04.06.095.122.164.189.069.065.157.136.264.21h-.355l-.056.015-.04.054-.024.103c-.005.046-.008.101-.008.169,0,.066.003.121.008.165l.024.107.04.056.056.017h2.851l.055-.019.04-.066.024-.123c.006-.05.008-.115.008-.194s-.002-.144-.008-.194l-.024-.124-.04-.065-.055-.019h-1.777c-.094-.059-.173-.116-.237-.167l-.153-.15-.085-.139-.027-.134.012-.106.023-.087.024-.071.011-.058-.015-.053-.058-.033-.116-.019c-.048-.005-.111-.007-.188-.007-.076,0-.137.002-.182.003m1.019,2.625c-.21,0-.39.018-.538.054-.148.037-.277.095-.388.177-.111.083-.198.189-.262.322-.064.133-.096.296-.096.49,0,.155.033.304.1.448.068.143.169.285.305.423h-1.575l-.057.019-.043.065-.028.123c-.006.051-.009.115-.009.194s.003.144.009.195l.028.122.043.066.057.02h4.203l.055-.02.04-.066.024-.122c.006-.051.008-.116.008-.195s-.002-.143-.008-.194l-.024-.123-.04-.065-.055-.019h-1.895c-.143-.114-.252-.221-.326-.325-.075-.105-.113-.208-.113-.31,0-.081.016-.151.047-.212l.131-.148c.057-.038.124-.068.203-.088.079-.02.187-.031.326-.031h1.627l.055-.019.04-.063.024-.123c.006-.052.008-.118.008-.196,0-.077-.002-.141-.008-.193l-.024-.124-.04-.062-.055-.02h-1.749Zm.33,6.04v1.093l-1.902-1.086v-.007h1.902Zm.078-1.262l-.078.087v.368h-2.49l-.06.032-.043.1c-.012.046-.021.107-.026.184-.005.076-.008.168-.008.277,0,.1.002.185.006.256.005.07.011.127.022.172l.034.108.05.054,2.266,1.283.115.052.115.032.136.016c.049.002.108.004.176.004.083,0,.15-.004.2-.01l.116-.036.051-.058.01-.081v-1.578h.749l.055-.018.04-.064.024-.124c.006-.052.008-.117.008-.193,0-.081-.002-.146-.008-.197l-.024-.125-.04-.067-.055-.019h-.749v-.368l-.084-.09c-.056-.023-.139-.033-.248-.033-.121,0-.208.012-.26.036m.952,3.393l-.105.028-.06.047-.019.059v1.627l-.495-.482c-.24-.242-.452-.437-.634-.584-.182-.147-.348-.26-.499-.341-.15-.081-.29-.134-.42-.16-.13-.025-.262-.038-.396-.038-.154,0-.297.026-.43.078-.133.053-.249.132-.346.239-.096.105-.172.239-.225.399-.055.161-.082.349-.082.563,0,.136.012.268.038.393s.057.239.094.344c.038.104.076.192.116.263.039.071.071.12.096.147l.066.056.064.025.086.014.124.005c.072,0,.134-.002.183-.008l.12-.02.064-.034.019-.05-.049-.114c-.034-.049-.07-.11-.109-.183-.039-.074-.075-.159-.108-.256-.031-.097-.047-.208-.047-.333,0-.089.013-.167.04-.232.026-.066.063-.121.11-.165l.165-.099c.062-.022.129-.034.199-.034.077,0,.158.009.243.028.086.018.179.051.28.1s.212.117.335.205c.123.086.259.201.408.344l.767.714.122.103.116.066.134.036c.05.005.11.009.181.009.074,0,.135-.006.182-.014l.107-.047.049-.082.013-.122v-2.373l-.017-.057-.06-.042-.106-.023-.159-.008-.155.009Z"/>
  <path class="cls-6" d="m209.024,74.645l-.102.027-.054.046-.016.066v1.327l.073.115c.049.023.134.035.253.035.121,0,.207-.012.257-.035l.075-.115v-1.327l-.073-.112c-.049-.023-.136-.035-.259-.035l-.154.008"/>
  <path class="cls-6" d="m207.665,23.007c-.457.114-.91.282-1.357.504l-.029.026-.023.06-.017.105c-.003.042-.004.097-.004.163,0,.078.004.141.011.189l.033.112.057.044.078-.01c.415-.181.844-.317,1.286-.409.442-.091.895-.137,1.36-.137s.92.046,1.363.138c.442.093.871.227,1.289.404l.087.02.063-.036.038-.106c.009-.049.013-.116.013-.203l-.006-.153-.018-.107-.029-.067-.04-.033c-.221-.115-.444-.215-.669-.298-.225-.085-.452-.155-.681-.211-.229-.057-.46-.098-.693-.126-.233-.027-.47-.042-.712-.042-.476,0-.943.058-1.4.173m1.273,3.759c-.101-.004-.194-.02-.282-.046-.089-.028-.166-.065-.23-.116-.066-.049-.117-.112-.156-.187-.038-.076-.057-.165-.057-.267,0-.202.064-.351.193-.448.13-.096.306-.142.532-.136v1.2Zm.103-1.978c-.201,0-.386.026-.557.077-.171.05-.318.131-.442.239-.125.108-.223.248-.292.416-.071.169-.106.372-.106.611,0,.226.038.428.112.608.075.179.183.332.324.458.142.125.315.22.518.286.203.066.432.099.686.099.265,0,.498-.031.695-.094.199-.063.363-.157.493-.285.13-.127.227-.287.291-.477.064-.19.095-.412.095-.665,0-.14-.008-.272-.027-.396-.018-.123-.039-.232-.064-.328-.024-.096-.049-.174-.075-.236l-.06-.113-.047-.033-.059-.02-.084-.009-.121-.004-.133.005-.08.017-.04.033-.012.047.031.124c.02.052.042.116.067.194.025.078.047.169.067.276.02.106.03.229.03.37,0,.138-.018.256-.054.355s-.089.18-.158.243c-.069.062-.153.108-.252.137-.099.029-.209.043-.331.043v-1.732c0-.077-.023-.137-.071-.181-.046-.043-.119-.065-.217-.065h-.127Zm2.091,3.953l.136.109c.04.051.072.118.097.2.024.084.036.185.036.307,0,.196-.026.347-.082.454s-.137.161-.242.161l-.1-.009-.1-.041-.106-.079-.117-.133.016-.57c.004-.134.032-.239.083-.316.052-.076.124-.115.221-.115l.158.032Zm-2.25.187l.155.089.105.149c.026.06.039.13.039.209,0,.152-.042.27-.126.355-.085.085-.199.127-.344.127-.066,0-.129-.008-.19-.028l-.16-.088-.108-.148c-.027-.06-.04-.129-.04-.207,0-.156.042-.276.127-.361.086-.085.205-.127.359-.127l.183.03Zm-1.095-1.027l-.07.088v.902c-.019.071-.033.147-.044.228-.011.082-.017.168-.017.256,0,.175.025.335.073.479.048.144.116.269.208.373.09.105.201.186.332.245.131.058.279.087.445.087.156,0,.286-.022.39-.066.105-.045.194-.105.268-.18.084.092.177.167.28.224.104.057.218.086.344.086.1,0,.192-.025.276-.075s.151-.121.2-.212c.049.066.1.124.153.175l.168.13.184.08c.064.018.13.026.201.026.113,0,.217-.024.312-.075.094-.05.176-.129.244-.239.068-.109.121-.249.16-.421.038-.171.057-.378.057-.62,0-.249-.026-.467-.079-.652-.054-.186-.126-.341-.218-.464-.091-.124-.199-.216-.324-.278-.124-.062-.257-.093-.398-.093-.127,0-.241.023-.342.069-.1.045-.186.111-.257.198-.072.086-.127.192-.166.319-.04.126-.063.271-.069.431l-.025.694c-.005.097-.027.172-.066.227l-.151.082-.128-.031-.1-.068c.031-.045.057-.109.078-.192.023-.082.034-.17.034-.261,0-.179-.023-.341-.069-.487-.046-.145-.112-.269-.201-.372-.088-.104-.198-.183-.325-.238-.129-.056-.277-.084-.443-.084-.071,0-.139.011-.203.031-.066.021-.123.054-.175.1v-.334l-.073-.086c-.049-.024-.125-.036-.227-.036-.11,0-.189.011-.237.034m1.129,3.33c-.207,0-.383.019-.531.054-.147.037-.275.096-.385.177-.109.082-.197.19-.26.323-.064.132-.096.296-.096.489,0,.177.043.346.128.509.085.163.212.322.383.48h-.329l-.056.015-.04.053-.023.104c-.006.045-.009.101-.009.169,0,.066.003.121.009.164l.023.107.04.057.056.016h2.85l.056-.018.04-.065.024-.124c.006-.051.009-.115.009-.194s-.003-.144-.009-.195l-.024-.123-.04-.065-.056-.02h-1.894c-.143-.112-.252-.22-.326-.324-.075-.105-.112-.208-.112-.31,0-.08.015-.152.047-.212l.13-.148c.057-.039.124-.068.203-.088.079-.021.188-.03.326-.03h1.626l.056-.019.04-.064.024-.123c.006-.052.009-.118.009-.196,0-.077-.003-.141-.009-.194l-.024-.122-.04-.064-.056-.019h-1.76Zm1.035,4.322c.111.097.195.193.252.288.058.094.087.198.087.311,0,.134-.035.238-.103.315-.068.075-.162.113-.281.113-.07,0-.133-.014-.187-.041l-.139-.126c-.038-.057-.066-.132-.086-.223-.019-.092-.029-.202-.029-.331v-.306h.486Zm-1.182-.788c-.197,0-.366.023-.508.07-.143.047-.26.121-.35.223-.09.102-.158.232-.202.391-.043.158-.065.349-.065.572,0,.126.01.247.031.365.019.118.046.227.077.327.032.1.067.187.104.262.038.074.072.126.102.156l.104.061c.039.01.091.016.157.016l.134-.009.103-.028.064-.044.022-.063-.045-.133c-.03-.053-.063-.121-.099-.202-.036-.081-.069-.174-.099-.279-.03-.105-.045-.224-.045-.358,0-.103.011-.188.033-.257.02-.07.053-.125.098-.167.045-.041.101-.07.168-.088.068-.019.146-.027.235-.027h.172v.277c0,.253.019.475.059.666.037.192.097.352.177.48.079.129.18.226.303.291.122.064.267.097.433.097.154,0,.288-.025.402-.077.116-.051.212-.123.29-.215.078-.093.136-.202.175-.329.04-.126.059-.265.059-.416,0-.183-.035-.349-.105-.499-.07-.149-.168-.283-.294-.4h.227l.071-.028.036-.092c.007-.043.012-.113.012-.208,0-.09-.005-.157-.012-.204l-.036-.099-.071-.032h-1.917Zm.16,3.223c-.212,0-.391.018-.538.054-.149.036-.279.096-.389.177-.111.083-.199.19-.262.323-.064.132-.096.295-.096.489,0,.155.033.305.101.448.067.143.169.285.305.423h-1.575l-.058.019-.043.065-.027.123c-.007.051-.011.115-.011.195,0,.079.004.143.011.194l.027.123.043.065.058.019h4.201l.056-.019.04-.065.024-.123c.006-.051.009-.115.009-.194,0-.08-.003-.144-.009-.195l-.024-.123-.04-.065-.056-.019h-1.894c-.143-.114-.252-.221-.326-.325-.075-.105-.112-.209-.112-.31,0-.081.015-.151.047-.212l.13-.149c.057-.038.124-.067.203-.087.079-.02.188-.03.326-.03h1.626l.056-.02.04-.064.024-.122c.006-.052.009-.118.009-.196,0-.077-.003-.142-.009-.193l-.024-.123-.04-.064-.056-.019h-1.747Zm1.122,3.306l-.111.018-.06.03-.015.048.05.102.11.15c.04.06.077.129.11.209.033.08.05.175.05.286,0,.108-.02.203-.06.285-.039.082-.098.15-.177.204-.079.055-.177.095-.294.123-.117.027-.252.041-.405.041-.312,0-.547-.055-.709-.166-.161-.11-.241-.27-.241-.478,0-.106.014-.198.045-.274.03-.077.063-.143.099-.198l.099-.143.044-.115-.075-.083c-.05-.022-.136-.031-.26-.031l-.136.004-.094.013-.063.022-.059.049-.083.12c-.032.056-.06.12-.086.191-.025.071-.045.148-.061.23-.014.083-.022.165-.022.25,0,.208.033.4.099.575.066.174.168.324.304.452.137.127.308.227.516.298.208.072.454.107.74.107.247,0,.466-.029.658-.087s.354-.145.487-.261c.133-.114.234-.256.302-.425.068-.169.103-.363.103-.582,0-.098-.009-.194-.026-.286-.018-.092-.04-.178-.067-.257-.028-.078-.06-.149-.095-.21l-.089-.131-.06-.049-.063-.019-.094-.013-.139-.005c-.071,0-.128.002-.172.006m-3.324,4.64l-.08-.039-.061.021-.038.09c-.008.041-.012.097-.012.167l.006.156.022.11.041.075.061.058,4.036,2.94.082.04.058-.022.039-.089c.008-.042.013-.098.013-.167l-.006-.156-.023-.11-.04-.074-.062-.06-4.036-2.94Zm3.315.229c.08.011.145.029.197.053l.113.097.037.154-.027.14-.099.102c-.049.028-.114.048-.198.063-.085.015-.193.023-.325.023-.115,0-.212-.007-.293-.019-.079-.013-.144-.033-.195-.059l-.107-.101-.035-.141.036-.149.112-.102c.051-.025.117-.045.2-.057.082-.013.181-.02.298-.02.111,0,.206.006.286.016m-.717-.605c-.131.027-.244.076-.342.146-.098.07-.176.166-.233.289-.058.122-.086.278-.086.467,0,.172.027.32.08.442.055.122.131.222.229.3.098.078.214.134.347.171.133.036.28.053.44.053.159,0,.305-.014.437-.044.133-.03.246-.081.34-.154.096-.071.169-.168.222-.29.053-.121.081-.272.081-.452,0-.171-.028-.317-.081-.439-.053-.122-.127-.223-.223-.302-.096-.078-.212-.136-.348-.173-.134-.037-.286-.056-.454-.056-.143,0-.279.014-.409.042m-1.35,3.094c.079.01.145.027.196.052l.113.097.037.153-.027.141-.098.102c-.049.027-.114.048-.199.064-.084.015-.192.022-.324.022-.116,0-.213-.007-.293-.019-.08-.013-.144-.033-.195-.059l-.108-.101-.035-.14.037-.15.111-.103c.051-.024.118-.044.199-.056.083-.013.183-.019.299-.019.112,0,.207.004.287.016m-.718-.607c-.13.028-.244.076-.342.147-.097.07-.175.166-.233.289-.057.122-.086.278-.086.467,0,.172.027.319.081.442.054.122.131.222.229.299.098.078.214.135.346.171.133.036.281.054.439.054.16,0,.307-.015.438-.044.133-.03.246-.081.341-.153.095-.073.169-.169.222-.291.053-.121.08-.272.08-.453,0-.169-.027-.315-.08-.438-.053-.123-.127-.223-.223-.301-.096-.079-.212-.137-.347-.174-.136-.038-.287-.056-.455-.056-.143,0-.279.014-.41.041m-.921,2.343l-.057.043-.033.112c-.007.049-.011.112-.011.188,0,.068.001.125.004.167l.017.104.023.058.029.026c.224.112.449.21.674.294.226.084.454.155.683.212.229.058.46.101.693.129.233.029.47.043.707.043.242,0,.479-.013.712-.041.233-.027.464-.07.693-.125.229-.058.456-.128.681-.213.225-.085.448-.185.669-.299l.04-.034.029-.067.018-.107.006-.153c0-.085-.004-.151-.013-.199l-.038-.107-.063-.035-.087.019c-.422.174-.853.308-1.294.401-.439.091-.892.137-1.358.137s-.918-.045-1.36-.137c-.442-.09-.871-.226-1.286-.404l-.078-.012Zm2.602,5.243c-.101-.004-.194-.02-.282-.046-.089-.027-.166-.065-.23-.115-.066-.05-.117-.112-.156-.189-.038-.075-.057-.164-.057-.266,0-.201.064-.35.193-.447.13-.097.306-.143.532-.136v1.199Zm.103-1.977c-.201,0-.386.025-.557.076-.171.051-.318.131-.442.239-.125.108-.223.248-.292.417-.071.169-.106.373-.106.61,0,.225.038.429.112.608.075.18.183.332.324.457.142.126.315.222.518.288s.432.099.686.099c.265,0,.498-.032.695-.094.199-.063.363-.158.493-.286.13-.127.227-.287.291-.477.064-.19.095-.412.095-.664,0-.142-.008-.273-.027-.396-.018-.124-.039-.232-.064-.329-.024-.095-.049-.174-.075-.236l-.06-.113-.047-.033-.059-.02-.084-.009-.121-.003-.133.004-.08.018-.04.032-.012.047.031.125c.02.051.042.115.067.194.025.076.047.169.067.275.02.107.03.23.03.37,0,.138-.018.257-.054.356-.036.098-.089.18-.158.242-.069.063-.153.108-.252.137-.099.028-.209.043-.331.043v-1.732c0-.076-.023-.136-.071-.179-.046-.045-.119-.066-.217-.066h-.127Zm.677,4.244c.085.068.157.131.216.189l.141.167.079.159.024.162c0,.11-.026.202-.08.274-.053.072-.124.13-.212.174s-.19.074-.303.093c-.113.02-.229.029-.348.029-.112,0-.223-.01-.331-.033-.108-.022-.205-.056-.292-.102-.087-.046-.157-.106-.21-.182-.051-.075-.078-.165-.078-.269,0-.116.039-.225.116-.331.077-.105.187-.215.332-.33h.946Zm-3.234-.797l-.058.019-.043.064-.027.121c-.006.051-.009.117-.009.195s.003.143.009.195l.027.122.043.064.058.017h1.544c-.126.128-.222.257-.286.386-.066.13-.098.275-.098.434,0,.202.038.381.115.536.076.155.186.285.329.389.142.104.315.183.517.238.204.053.431.081.684.081.212,0,.413-.021.603-.064.191-.042.357-.112.5-.206.143-.095.256-.217.34-.366.084-.15.126-.334.126-.55,0-.196-.044-.374-.13-.535-.087-.16-.21-.314-.368-.46h.316l.059-.019.04-.057.023-.103c.004-.043.007-.098.007-.166l-.007-.16-.023-.105-.04-.055-.059-.015h-4.192Zm.053,3.549c-.061.064-.091.186-.091.364,0,.18.032.304.094.369.063.065.175.097.337.097.156,0,.263-.032.323-.094.059-.063.089-.185.089-.365,0-.179-.03-.302-.093-.368-.061-.065-.174-.098-.335-.098-.156,0-.263.032-.324.095m1.296-.035l-.056.02-.042.065-.027.123c-.006.05-.01.115-.01.195,0,.077.004.143.01.194l.027.123.042.065.056.019h2.843l.056-.019.04-.065.024-.123c.006-.051.009-.117.009-.194,0-.08-.003-.145-.009-.195l-.024-.123-.04-.065-.056-.02h-2.843Zm2.416,1.416l-.091.019-.046.027-.011.037.011.049.026.066.026.092.01.114c0,.126-.038.214-.115.262-.079.049-.196.073-.351.073h-1.338v-.621l-.076-.093c-.05-.021-.133-.032-.251-.032l-.157.007-.1.025-.053.039-.016.057v.618h-.635l-.058.019-.043.064-.026.123c-.005.052-.007.117-.007.197,0,.076.002.14.007.192l.026.125.043.064.058.017h.635v.338l.016.056.053.04.1.024.157.008c.118,0,.201-.011.251-.032l.076-.093v-.341h1.46c.175,0,.326-.018.454-.054.127-.036.233-.092.317-.169.085-.077.147-.174.187-.291.041-.116.061-.255.061-.415l-.009-.176-.028-.163-.041-.13-.055-.085-.105-.046c-.05-.012-.122-.018-.216-.018l-.146.007Zm-.656,3.2c.109.022.206.056.293.103.086.047.156.107.209.18.053.074.079.163.079.267,0,.11-.038.217-.115.319-.079.102-.189.209-.331.322h-.94c-.085-.064-.157-.124-.214-.182l-.141-.168-.078-.159-.024-.158c0-.106.026-.195.078-.266.052-.071.122-.129.209-.172.088-.044.187-.075.299-.092.112-.019.229-.028.35-.028.109,0,.217.011.326.034m-.99-.806c-.189.043-.356.11-.499.203-.143.092-.254.212-.337.359-.082.147-.123.324-.123.532,0,.1.011.195.032.283.021.087.053.173.097.256.044.083.098.164.164.244.064.081.14.161.225.244h-.336l-.056.016-.04.056-.023.105-.009.162c0,.065.003.12.009.164l.023.105.04.056.056.016h3.982l.058-.02.043-.065.027-.122c.006-.052.009-.116.009-.195s-.003-.144-.009-.194l-.027-.124-.043-.065-.058-.019h-1.343c.066-.068.124-.134.173-.197.049-.065.09-.129.123-.194.032-.064.058-.132.073-.201.017-.069.024-.145.024-.227,0-.2-.037-.378-.114-.533-.077-.156-.187-.286-.329-.39-.143-.103-.317-.183-.52-.238-.203-.053-.432-.08-.685-.08-.215,0-.418.021-.607.063m.335,5.444c-.101-.005-.194-.02-.282-.047-.089-.026-.166-.064-.23-.115-.066-.05-.117-.112-.156-.187-.038-.076-.057-.165-.057-.267,0-.202.064-.351.193-.448.13-.097.306-.142.532-.136v1.2Zm.103-1.978c-.201,0-.386.026-.557.077-.171.05-.318.13-.442.239-.125.109-.223.247-.292.416-.071.169-.106.372-.106.611,0,.225.038.428.112.607.075.18.183.333.324.458.142.126.315.221.518.287s.432.099.686.099c.265,0,.498-.032.695-.094.199-.063.363-.158.493-.286.13-.128.227-.286.291-.477.064-.189.095-.412.095-.665,0-.139-.008-.271-.027-.395-.018-.123-.039-.233-.064-.329-.024-.095-.049-.174-.075-.236l-.06-.113-.047-.033-.059-.019-.084-.01-.121-.003-.133.005-.08.017-.04.032-.012.048.031.125c.02.05.042.115.067.192.025.078.047.17.067.276.02.106.03.23.03.37,0,.139-.018.257-.054.356s-.089.18-.158.242c-.069.063-.153.109-.252.138-.099.028-.209.043-.331.043v-1.732c0-.077-.023-.137-.071-.181-.046-.044-.119-.065-.217-.065h-.127Zm.552,4.151c.109.022.206.057.293.103.086.047.156.107.209.181.053.073.079.162.079.265,0,.111-.038.218-.115.32-.079.101-.189.209-.331.322h-.94c-.085-.064-.157-.124-.214-.182l-.141-.167-.078-.16-.024-.158c0-.106.026-.195.078-.266.052-.071.122-.128.209-.172.088-.043.187-.075.299-.093s.229-.026.35-.026c.109,0,.217.01.326.033m-.99-.806c-.189.043-.356.111-.499.203-.143.093-.254.212-.337.359-.082.146-.123.324-.123.532,0,.101.011.194.032.282.021.089.053.174.097.257.044.083.098.164.164.245.064.079.14.16.225.244h-.336l-.056.015-.04.056-.023.105-.009.161c0,.067.003.122.009.165l.023.105.04.056.056.016h3.982l.058-.019.043-.066.027-.122c.006-.052.009-.116.009-.195s-.003-.144-.009-.194l-.027-.123-.043-.066-.058-.019h-1.343c.066-.067.124-.134.173-.198.049-.063.09-.128.123-.193.032-.064.058-.132.073-.201.017-.069.024-.145.024-.228,0-.2-.037-.378-.114-.532-.077-.156-.187-.285-.329-.39-.143-.104-.317-.183-.52-.237-.203-.054-.432-.081-.685-.081-.215,0-.418.021-.607.063"/>
  <path class="cls-6" d="m265.553,103.381l1.184-.521.063-.121c-.002-.057-.042-.147-.117-.272-.075-.131-.137-.212-.184-.241h-.13l-1.047.757.137-1.283-.063-.117c-.053-.027-.154-.04-.305-.04-.152,0-.252.013-.305.04l-.064.117.138,1.283-1.042-.757h-.132c-.05.029-.111.109-.187.236-.076.127-.114.22-.116.277l.067.121,1.184.521-1.184.526-.067.115c.002.058.04.151.116.278.076.131.137.211.187.241h.132l1.042-.762-.138,1.287.064.113c.053.027.153.04.305.04.151,0,.252-.013.305-.04l.063-.113-.137-1.287,1.047.762h.13c.047-.03.109-.11.184-.241.075-.127.115-.22.117-.278l-.063-.115-1.184-.526"/>
  <text class="cls-2" transform="translate(191.769 18.031)"><tspan x="0" y="0">B</tspan></text>
  <text class="cls-1" transform="translate(246.948 29.354)"><tspan x="0" y="0">C-peptide는 </tspan><tspan x="0" y="7.593">인슐린을 나타냄</tspan></text>
  <g>
    <rect class="cls-5" x="312.611" y="54.836" width="3.58" height="3.573"/>
    <rect class="cls-4" x="312.611" y="61.665" width="3.58" height="3.573"/>
    <text class="cls-3" transform="translate(317.761 58.76)"><tspan x="0" y="0">저탄수화물 (RC)</tspan></text>
    <text class="cls-3" transform="translate(317.88 65.265)"><tspan x="0" y="0">저지방 (RF)</tspan></text>
  </g>
</svg>