<?xml version="1.0" encoding="utf-8"?>
<!-- Generator: Adobe Illustrator 28.0.0, SVG Export Plug-In . SVG Version: 6.00 Build 0)  -->
<svg version="1.1" id="레이어_1" xmlns="http://www.w3.org/2000/svg" xmlns:xlink="http://www.w3.org/1999/xlink" x="0px"
	 y="0px" viewBox="0 0 202.938 192.38" enable-background="new 0 0 202.938 192.38" xml:space="preserve">
<circle fill="#FFFFFF" stroke="#000000" stroke-width="0.6662" stroke-miterlimit="10" cx="101.822" cy="87.6" r="23.594"/>
<g>
	<path fill="#E60013" d="M13.941,85.174h-3.159v-3.129h0.967v0.894h1.202v-0.887h0.989V85.174z M11.471,85.768h4.316v2.418h-0.982
		V86.53h-3.334V85.768z M12.951,84.405v-0.718h-1.202v0.718H12.951z M16.696,84.002h-0.909v1.488H14.82v-3.84h0.967v1.561h0.909
		V84.002z"/>
	<path fill="#E60013" d="M18.073,85.885h0.103c0.645,0,1.17-0.039,1.575-0.117c0.01,0.098,0.023,0.241,0.041,0.429
		s0.025,0.292,0.025,0.312c-0.449,0.093-1.202,0.139-2.257,0.139c-0.195,0-0.328-0.002-0.396-0.007v-4.25h2.455v0.762h-1.546v0.901
		h1.341v0.77h-1.341V85.885z M20.36,84.632h-0.704v-0.799h0.704v-2.081h0.901v6.133H20.36V84.632z M22.566,88.179h-0.923V81.65
		h0.923V88.179z"/>
	<path fill="#E60013" d="M27.255,85.695l0.103,0.777c-0.601,0.142-1.598,0.212-2.99,0.212c-0.078,0-0.194-0.001-0.348-0.004
		c-0.154-0.002-0.255-0.003-0.304-0.003v-2.785h2.008v-0.945h-2.022v-0.755h2.997v2.462h-2.008v1.231
		C25.707,85.919,26.562,85.856,27.255,85.695z M27.775,81.65h0.975v6.529h-0.975V81.65z"/>
	<path fill="#E60013" d="M29.695,84.427c0-0.699,0.155-1.267,0.465-1.704c0.311-0.437,0.729-0.656,1.257-0.656
		c0.528,0,0.947,0.219,1.257,0.656c0.31,0.438,0.465,1.005,0.465,1.704c0,0.684-0.155,1.245-0.465,1.682s-0.729,0.656-1.257,0.656
		c-0.527,0-0.946-0.217-1.257-0.652C29.851,85.678,29.695,85.116,29.695,84.427z M32.224,84.427c0-0.484-0.073-0.855-0.22-1.114
		c-0.146-0.259-0.342-0.388-0.586-0.388c-0.234,0-0.424,0.129-0.568,0.388c-0.144,0.259-0.216,0.63-0.216,1.114
		c0,0.474,0.073,0.841,0.22,1.103c0.146,0.262,0.334,0.392,0.564,0.392c0.244,0,0.44-0.129,0.586-0.388S32.224,84.906,32.224,84.427
		z M34.803,81.65v2.462h0.909v0.792h-0.909v3.276h-0.967V81.65H34.803z"/>
</g>
<g>
	<path fill="#E60013" d="M137.573,53.437v-5.027h1.722c1.627,0,2.44,0.796,2.44,2.389v0.146c0,0.816-0.205,1.435-0.616,1.857
		c-0.41,0.423-1.016,0.634-1.817,0.634H137.573z M138.613,52.638h0.688c0.464,0,0.803-0.124,1.015-0.37s0.319-0.658,0.319-1.235
		v-0.249c0-0.586-0.115-0.998-0.344-1.235c-0.23-0.237-0.579-0.355-1.048-0.355h-0.63V52.638z"/>
	<path fill="#E60013" d="M142.079,53.437l1.788-5.027h1.084l1.766,5.027h-1.07l-0.417-1.202h-1.788l-0.411,1.202H142.079z
		 M144.307,49.589l-0.63,1.906h1.312l-0.652-1.906H144.307z"/>
	<path fill="#E60013" d="M147.304,53.437v-5.027h1.443l1.143,3.576h0.022l1.129-3.576h1.421v5.027h-1.026v-3.759h-0.022
		l-1.194,3.759h-0.813l-1.18-3.767h-0.022v3.767H147.304z"/>
	<path fill="#E60013" d="M153.489,53.437v-5.027h1.861c1.216,0,1.825,0.511,1.825,1.532c0,0.533-0.158,0.944-0.473,1.235
		c-0.315,0.291-0.751,0.436-1.308,0.436h-0.865v1.825H153.489z M154.53,50.85h0.681c0.313,0,0.538-0.07,0.674-0.209
		s0.205-0.358,0.205-0.656c0-0.308-0.064-0.517-0.194-0.626c-0.13-0.11-0.353-0.165-0.671-0.165h-0.696V50.85z"/>
</g>
<g>
	<path fill="#E60013" d="M152.565,119.491c0-0.45,0.163-0.817,0.487-1.103c0.325-0.286,0.732-0.429,1.22-0.429
		c0.494,0,0.904,0.143,1.231,0.429c0.328,0.286,0.491,0.653,0.491,1.103c0,0.454-0.164,0.827-0.491,1.117
		c-0.327,0.291-0.737,0.436-1.231,0.436s-0.901-0.145-1.224-0.436C152.726,120.318,152.565,119.945,152.565,119.491z
		 M157.636,124.027h-4.316v-2.462h4.316V124.027z M153.715,118.953c-0.147,0.139-0.22,0.321-0.22,0.546s0.073,0.404,0.22,0.539
		c0.146,0.134,0.332,0.201,0.557,0.201c0.234,0,0.425-0.066,0.572-0.198s0.22-0.312,0.22-0.542c0-0.225-0.076-0.407-0.227-0.546
		c-0.151-0.14-0.34-0.209-0.564-0.209S153.862,118.813,153.715,118.953z M156.676,123.28v-0.982h-2.382v0.982H156.676z
		 M158.508,119.857h-0.872v1.437h-0.967v-3.723h0.967v1.495h0.872V119.857z"/>
	<path fill="#E60013" d="M162.172,121.785l-0.579,0.755c-0.215-0.137-0.438-0.351-0.67-0.641s-0.385-0.573-0.458-0.847
		c-0.083,0.308-0.244,0.619-0.484,0.935c-0.239,0.315-0.5,0.553-0.784,0.714l-0.55-0.726c0.444-0.269,0.778-0.636,1-1.103
		c0.222-0.467,0.333-1.062,0.333-1.785v-0.887h0.968v0.872c0,0.718,0.103,1.286,0.308,1.704
		C161.461,121.195,161.766,121.531,162.172,121.785z M163.095,123.807h-0.879v-3.217h-0.777v-0.813h0.777v-2.088h0.879V123.807z
		 M164.414,124.101h-0.909v-6.529h0.909V124.101z"/>
	<path fill="#E60013" d="M171.083,123.287h-5.899v-0.755h2.47v-1.172h-1.942v-0.762h0.923l-0.205-1.407l0.96-0.095l0.132,1.502
		h1.231l0.146-1.495l0.96,0.103l-0.249,1.393h0.909v0.762h-1.905v1.172h2.47V123.287z M170.533,118.846h-4.829v-0.77h4.829V118.846z
		"/>
</g>
<g>
	<path d="M47.844,33.389h-2.909v-3.122h0.652v1.055h1.612v-1.055h0.645V33.389z M49.386,34.141c0.388,0.212,0.583,0.502,0.583,0.868
		c0,0.367-0.194,0.656-0.583,0.869c-0.388,0.212-0.937,0.319-1.645,0.319c-0.699,0-1.244-0.106-1.634-0.319
		c-0.391-0.213-0.586-0.502-0.586-0.869c0-0.366,0.195-0.656,0.586-0.868c0.391-0.212,0.936-0.319,1.634-0.319
		C48.449,33.822,48.998,33.928,49.386,34.141z M47.199,32.862v-1.019h-1.612v1.019H47.199z M48.884,35.507
		c0.273-0.117,0.41-0.283,0.41-0.499c0-0.215-0.137-0.383-0.41-0.505c-0.274-0.122-0.655-0.184-1.143-0.184
		c-0.479,0-0.855,0.062-1.129,0.184c-0.273,0.122-0.41,0.291-0.41,0.505c0,0.21,0.136,0.375,0.407,0.495
		c0.271,0.12,0.648,0.18,1.132,0.18C48.23,35.683,48.61,35.625,48.884,35.507z M49.932,29.843v3.994H49.28V32.73h-1.099v-0.513
		h1.099v-0.835h-1.099v-0.527h1.099v-1.011H49.932z"/>
	<path d="M53.435,34.489h-0.652v-1.136c-0.244,0.01-0.583,0.02-1.015,0.029c-0.433,0.01-0.676,0.015-0.729,0.015l-0.103-0.535
		c0.835,0,1.546-0.012,2.133-0.037c0.806-0.034,1.49-0.083,2.052-0.146l0.044,0.483c-0.372,0.059-0.948,0.11-1.729,0.154V34.489z
		 M54.754,31.337c0,0.357-0.157,0.643-0.473,0.857c-0.315,0.215-0.724,0.323-1.227,0.323c-0.499,0-0.907-0.107-1.224-0.323
		c-0.317-0.215-0.476-0.503-0.476-0.865c0-0.356,0.159-0.644,0.476-0.861s0.726-0.326,1.224-0.326c0.498,0,0.906,0.109,1.224,0.326
		C54.595,30.687,54.754,30.976,54.754,31.337z M56.44,36.086h-4.646v-1.869h0.645v1.341h4.001V36.086z M54.058,31.337
		c0-0.195-0.093-0.356-0.279-0.483s-0.427-0.191-0.725-0.191c-0.298,0-0.54,0.064-0.726,0.191c-0.186,0.127-0.279,0.288-0.279,0.483
		c0,0.19,0.092,0.348,0.275,0.473s0.426,0.187,0.729,0.187c0.303,0,0.546-0.062,0.729-0.187S54.058,31.528,54.058,31.337z
		 M56.315,34.767h-0.638v-0.682h-1.26v-0.483h1.26v-3.759h0.638V34.767z"/>
	<path d="M61.026,32.825l-0.381,0.505c-0.308-0.137-0.596-0.331-0.865-0.583c-0.269-0.251-0.464-0.529-0.586-0.832
		c-0.098,0.322-0.29,0.63-0.575,0.923s-0.607,0.52-0.963,0.682l-0.403-0.506c0.484-0.205,0.872-0.497,1.165-0.875
		c0.293-0.379,0.44-0.81,0.44-1.293v-0.645h0.66v0.616c0,0.474,0.15,0.892,0.451,1.253C60.268,32.432,60.621,32.684,61.026,32.825z
		 M62.093,34.097c0.378,0.222,0.568,0.526,0.568,0.912c0,0.386-0.189,0.689-0.568,0.909c-0.379,0.22-0.91,0.33-1.594,0.33
		c-0.679,0-1.208-0.11-1.587-0.33c-0.378-0.22-0.568-0.522-0.568-0.909c0-0.386,0.189-0.69,0.568-0.912
		c0.379-0.222,0.908-0.333,1.587-0.333C61.183,33.763,61.714,33.875,62.093,34.097z M60.499,34.283
		c-0.469,0-0.835,0.065-1.099,0.194c-0.264,0.129-0.396,0.307-0.396,0.531c0,0.225,0.132,0.401,0.396,0.528
		c0.264,0.127,0.63,0.19,1.099,0.19c0.474,0,0.843-0.063,1.106-0.19s0.396-0.303,0.396-0.528c0-0.225-0.132-0.402-0.396-0.531
		S60.973,34.283,60.499,34.283z M61.957,31.807h-1.231v-0.528h1.231v-1.436h0.652v3.913h-0.652V31.807z"/>
	<path d="M69.029,34.613h-3.07v-4.126h3.07V34.613z M68.384,34.078v-3.063h-1.781v3.063H68.384z M70.861,36.248h-0.645v-6.405h0.645
		V36.248z"/>
	<path d="M75.163,32.818l-0.345,0.491c-0.229-0.112-0.469-0.292-0.718-0.539c-0.25-0.247-0.42-0.48-0.513-0.7
		c-0.078,0.254-0.241,0.521-0.487,0.802c-0.247,0.281-0.512,0.5-0.795,0.656l-0.389-0.469c0.381-0.205,0.701-0.492,0.96-0.861
		c0.259-0.369,0.389-0.776,0.389-1.22v-0.77h0.63v0.755c0,0.435,0.128,0.814,0.385,1.14C74.536,32.428,74.83,32.667,75.163,32.818z
		 M76.848,34.133c0.391,0.217,0.586,0.514,0.586,0.89c0,0.376-0.195,0.673-0.586,0.891c-0.391,0.217-0.931,0.326-1.62,0.326
		c-0.684,0-1.22-0.109-1.608-0.326c-0.389-0.217-0.583-0.514-0.583-0.891c0-0.376,0.194-0.673,0.583-0.89
		c0.388-0.217,0.924-0.326,1.608-0.326C75.918,33.807,76.457,33.916,76.848,34.133z M75.229,34.334
		c-0.459,0-0.826,0.062-1.099,0.187c-0.274,0.125-0.411,0.292-0.411,0.502c0,0.21,0.136,0.376,0.407,0.499s0.639,0.183,1.103,0.183
		c0.469,0,0.841-0.061,1.118-0.183c0.276-0.122,0.414-0.288,0.414-0.499c0-0.21-0.138-0.377-0.414-0.502
		C76.07,34.397,75.697,34.334,75.229,34.334z M77.368,33.851h-0.623v-1.817h-0.718v1.488h-0.616V29.96h0.616v1.546h0.718v-1.663
		h0.623V33.851z"/>
	<path d="M83.633,36.204H78.98v-1.517h3.767v-0.469h-3.811V33.69h1.913v-0.579h-2.55v-0.513h5.782v0.513h-2.58v0.579h1.891v1.48
		h-3.767v0.499h4.008V36.204z M83.355,32.085h-4.309v-1.993h4.309V32.085z M82.695,31.564v-0.953h-3.004v0.953H82.695z"/>
	<path d="M48.327,40.183h-3.686v-0.52h3.686V40.183z M47.543,40.721c0.279,0.193,0.418,0.448,0.418,0.766
		c0,0.317-0.139,0.573-0.418,0.766c-0.278,0.193-0.632,0.29-1.062,0.29c-0.43,0-0.784-0.097-1.062-0.29s-0.417-0.448-0.417-0.766
		c0-0.323,0.138-0.579,0.414-0.77c0.276-0.19,0.631-0.286,1.066-0.286C46.911,40.432,47.265,40.528,47.543,40.721z M49.698,43.927
		c0,0.352-0.186,0.627-0.557,0.825s-0.899,0.297-1.583,0.297c-0.688,0-1.217-0.098-1.586-0.293
		c-0.369-0.195-0.553-0.471-0.553-0.828c0-0.356,0.185-0.634,0.553-0.832c0.369-0.198,0.898-0.297,1.586-0.297
		c0.684,0,1.212,0.099,1.583,0.297S49.698,43.571,49.698,43.927z M47.419,39.267h-1.861v-0.535h1.861V39.267z M47.07,41.894
		c0.164-0.105,0.246-0.241,0.246-0.407s-0.082-0.302-0.246-0.407c-0.164-0.105-0.36-0.158-0.59-0.158
		c-0.234,0-0.434,0.053-0.597,0.158s-0.246,0.241-0.246,0.407s0.083,0.302,0.25,0.407c0.166,0.105,0.364,0.157,0.593,0.157
		S46.907,41.999,47.07,41.894z M48.643,43.477c-0.264-0.11-0.625-0.165-1.085-0.165c-0.459,0-0.82,0.055-1.084,0.165
		c-0.264,0.11-0.396,0.26-0.396,0.451c0,0.186,0.13,0.333,0.392,0.443c0.261,0.11,0.624,0.165,1.088,0.165
		c0.464,0,0.827-0.054,1.088-0.161s0.392-0.256,0.392-0.447C49.038,43.737,48.906,43.586,48.643,43.477z M50.592,41.106h-0.967
		v1.678H48.98v-4.147h0.645v1.927h0.967V41.106z"/>
	<path d="M54.205,43.217l-0.381,0.469c-0.254-0.156-0.502-0.378-0.744-0.667c-0.242-0.288-0.404-0.579-0.487-0.872
		c-0.078,0.313-0.238,0.629-0.48,0.949s-0.507,0.568-0.795,0.744l-0.411-0.432c0.909-0.567,1.363-1.41,1.363-2.528v-0.11h-1.209
		v-0.528h3.02v0.528h-1.173v0.088c0,0.577,0.121,1.062,0.363,1.455C53.512,42.705,53.823,43.007,54.205,43.217z M51.75,39.677
		v-0.535h1.686v0.535H51.75z M54.564,41.941h-0.916v-0.527h0.916v-2.631h0.608v5.943h-0.608V41.941z M56.425,45.042h-0.623v-6.405
		h0.623V45.042z"/>
	<path d="M59.246,39.054c0.499,0,0.917,0.146,1.257,0.436c0.34,0.291,0.509,0.663,0.509,1.118c0,0.4-0.132,0.733-0.396,0.997
		s-0.604,0.427-1.019,0.491v1.048c0.855-0.053,1.417-0.103,1.686-0.146l0.066,0.521c-0.523,0.073-1.258,0.132-2.206,0.176
		c-0.689,0.044-1.294,0.066-1.817,0.066l-0.095-0.557c0.733,0,1.307-0.007,1.722-0.022v-1.078c-0.425-0.054-0.773-0.213-1.044-0.48
		c-0.271-0.266-0.407-0.602-0.407-1.007c0-0.455,0.167-0.828,0.502-1.121C58.338,39.201,58.753,39.054,59.246,39.054z
		 M59.246,39.604c-0.303,0-0.558,0.093-0.766,0.278s-0.312,0.428-0.312,0.726c0,0.288,0.104,0.521,0.312,0.7
		s0.463,0.268,0.766,0.268c0.313,0,0.57-0.088,0.773-0.264c0.203-0.176,0.304-0.411,0.304-0.704c0-0.308-0.101-0.552-0.301-0.733
		S59.564,39.604,59.246,39.604z M63.32,41.824h-0.989v3.217h-0.638v-6.405h0.638v2.645h0.989V41.824z"/>
	<path d="M68.897,38.966c-0.054,0.796-0.343,1.454-0.869,1.971c-0.525,0.518-1.198,0.892-2.019,1.121l-0.352-0.513
		c0.66-0.146,1.212-0.401,1.656-0.762s0.728-0.787,0.85-1.275h-2.184v-0.542H68.897z M71.095,45.005h-4.36v-1.649h3.488v-0.608
		h-3.54v-0.521h4.192v1.612H67.38v0.638h3.715V45.005z M68.97,40.058v-0.505h1.253v-0.916h0.652v3.246h-0.652V41.23H68.89v-0.505
		h1.333v-0.667H68.97z"/>
	<path d="M75.646,40.109h-3.723v-0.505h3.723V40.109z M75.302,41.407c0,0.303-0.137,0.549-0.411,0.74
		c-0.273,0.191-0.632,0.286-1.077,0.286c-0.444,0-0.802-0.094-1.073-0.282c-0.271-0.188-0.407-0.436-0.407-0.744
		c0-0.313,0.135-0.563,0.407-0.751c0.271-0.188,0.629-0.282,1.073-0.282c0.445,0,0.804,0.094,1.077,0.282
		C75.165,40.844,75.302,41.094,75.302,41.407z M76.907,44.975h-4.067V42.66h0.645v0.63h2.777v-0.638h0.645V44.975z M74.701,39.208
		h-1.817v-0.513h1.817V39.208z M74.657,41.407c0-0.162-0.083-0.292-0.249-0.392s-0.364-0.15-0.594-0.15
		c-0.234,0-0.434,0.05-0.597,0.15s-0.246,0.23-0.246,0.392c0,0.156,0.083,0.285,0.25,0.385c0.166,0.1,0.364,0.15,0.593,0.15
		s0.428-0.05,0.594-0.15S74.657,41.563,74.657,41.407z M76.262,44.455v-0.652h-2.777v0.652H76.262z M77.859,40.981h-0.953v1.356
		h-0.645v-3.701h0.645v1.803h0.953V40.981z"/>
</g>
<g>
	<path fill="#E60013" d="M21.38,118.203h-3.129v-4.404h0.96v1.539h1.187v-1.539h0.982V118.203z M20.399,117.44v-1.363h-1.187v1.363
		H20.399z M23.147,113.278v2.418h0.872v0.792h-0.872v3.32h-0.96v-6.529H23.147z"/>
	<path fill="#E60013" d="M24.531,116.056c0-0.699,0.153-1.267,0.458-1.704c0.306-0.437,0.722-0.656,1.25-0.656
		c0.533,0,0.953,0.219,1.261,0.656c0.308,0.438,0.461,1.005,0.461,1.704c0,0.688-0.154,1.25-0.461,1.685
		c-0.308,0.435-0.728,0.652-1.261,0.652c-0.522,0-0.938-0.217-1.246-0.652C24.686,117.306,24.531,116.744,24.531,116.056z
		 M27.052,116.056c0-0.484-0.074-0.855-0.224-1.114c-0.149-0.259-0.346-0.388-0.59-0.388c-0.229,0-0.417,0.131-0.564,0.392
		s-0.22,0.631-0.22,1.11c0,0.474,0.074,0.841,0.22,1.103c0.146,0.262,0.334,0.392,0.564,0.392c0.244,0,0.441-0.129,0.59-0.388
		C26.978,116.903,27.052,116.534,27.052,116.056z M29.778,119.808h-0.967v-6.529h0.967V119.808z"/>
	<path fill="#E60013" d="M34.263,117.331l0.081,0.784c-0.586,0.132-1.524,0.198-2.814,0.198c-0.161,0-0.378-0.005-0.652-0.015
		v-2.777h2.008v-0.945H30.87v-0.755h2.99v2.462h-2v1.224C32.582,117.541,33.383,117.482,34.263,117.331z M36.109,119.808h-0.975
		v-3.393h-0.894v-0.813h0.894v-2.323h0.975V119.808z"/>
	<path fill="#E60013" d="M42.932,118.972h-5.899v-0.77h5.899V118.972z M42.771,116.253l-0.432,0.784
		c-0.464-0.093-0.932-0.297-1.403-0.612c-0.472-0.315-0.792-0.692-0.964-1.132c-0.166,0.439-0.48,0.816-0.941,1.128
		c-0.462,0.312-0.93,0.518-1.403,0.616c-0.024-0.049-0.09-0.166-0.198-0.352c-0.108-0.186-0.188-0.33-0.242-0.432
		c0.582-0.073,1.105-0.307,1.572-0.7c0.466-0.394,0.7-0.871,0.7-1.433v-0.388h1.041v0.388c0,0.562,0.231,1.039,0.692,1.429
		C41.653,115.941,42.18,116.175,42.771,116.253z"/>
</g>
<g>
	<path d="M40.941,150.172l-0.396,0.455c-0.249-0.171-0.493-0.42-0.732-0.748c-0.24-0.327-0.406-0.657-0.499-0.989
		c-0.078,0.352-0.238,0.704-0.48,1.055s-0.521,0.635-0.839,0.85l-0.403-0.454c0.4-0.259,0.735-0.64,1.004-1.144
		c0.269-0.503,0.403-1.062,0.403-1.678v-1.092h0.623v1.084c0,0.591,0.124,1.123,0.37,1.594
		C40.238,149.577,40.555,149.933,40.941,150.172z M41.894,151.909h-0.616v-3.283h-1.011v-0.535h1.011v-2.125h0.616V151.909z
		 M43.161,152.224h-0.623v-6.405h0.623V152.224z"/>
	<path d="M49.361,149.601h-2.066v1.282h2.58v0.528h-5.782v-0.528h2.55v-1.282h-2.074v-0.528h1.07l-0.168-1.671l0.66-0.095
		l0.125,1.766h1.451l0.25-1.751l0.63,0.11l-0.271,1.642h1.048V149.601z M49.368,146.992h-4.807v-0.521h4.807V146.992z"/>
	<path d="M52.629,146.295h2.902c-0.034,0.831-0.312,1.528-0.832,2.092c-0.52,0.564-1.208,0.961-2.062,1.191l-0.337-0.521
		c0.616-0.122,1.167-0.388,1.656-0.799c0.488-0.41,0.774-0.884,0.857-1.421h-2.184V146.295z M57.304,152.136h-4.06v-2.308h4.06
		V152.136z M56.659,151.623v-1.275h-2.77v1.275H56.659z M58.257,147.981h-0.953v1.524h-0.652v-3.686h0.652v1.626h0.953V147.981z"/>
	<path d="M60.389,146.171c0.45,0,0.832,0.146,1.147,0.439c0.315,0.293,0.473,0.667,0.473,1.122c0,0.449-0.155,0.812-0.465,1.088
		c-0.311,0.276-0.695,0.414-1.154,0.414c-0.454,0-0.838-0.138-1.15-0.414c-0.313-0.276-0.469-0.639-0.469-1.088
		c0-0.45,0.156-0.822,0.469-1.118C59.551,146.319,59.935,146.171,60.389,146.171z M60.389,146.728c-0.288,0-0.525,0.095-0.711,0.286
		s-0.278,0.428-0.278,0.711c0,0.288,0.093,0.526,0.278,0.714s0.423,0.282,0.711,0.282c0.293,0,0.53-0.093,0.711-0.279
		c0.181-0.186,0.271-0.422,0.271-0.71c0-0.293-0.089-0.534-0.268-0.722C60.925,146.822,60.687,146.728,60.389,146.728z
		 M63.951,152.136h-4.133v-2.279h4.133V152.136z M63.298,151.623v-1.246h-2.836v1.246H63.298z M62.221,147.197l-0.015-0.542h1.092
		v-0.835h0.652v3.723h-0.652v-0.865h-1.092l0.015-0.542h1.077v-0.938H62.221z"/>
</g>
<g>
	<path d="M88.105,154.38l-0.396,0.455c-0.249-0.171-0.493-0.42-0.732-0.748c-0.24-0.327-0.406-0.657-0.499-0.989
		c-0.078,0.352-0.238,0.704-0.48,1.055s-0.521,0.635-0.839,0.85l-0.403-0.454c0.4-0.259,0.735-0.64,1.004-1.144
		c0.269-0.503,0.403-1.062,0.403-1.678v-1.092h0.623v1.084c0,0.591,0.124,1.123,0.37,1.594
		C87.402,153.786,87.719,154.141,88.105,154.38z M89.058,156.117h-0.616v-3.283h-1.011v-0.535h1.011v-2.125h0.616V156.117z
		 M90.325,156.433h-0.623v-6.405h0.623V156.433z"/>
	<path d="M96.525,153.809h-2.066v1.282h2.58v0.528h-5.782v-0.528h2.55v-1.282h-2.074v-0.528h1.07l-0.168-1.671l0.66-0.095
		l0.125,1.766h1.451l0.25-1.751l0.63,0.11l-0.271,1.642h1.048V153.809z M96.532,151.2h-4.807v-0.521h4.807V151.2z"/>
	<path d="M101.368,154.388l-0.388,0.484c-0.312-0.205-0.623-0.489-0.931-0.85s-0.518-0.716-0.63-1.062
		c-0.107,0.386-0.307,0.767-0.597,1.143c-0.291,0.376-0.619,0.687-0.985,0.931l-0.403-0.483c0.494-0.308,0.892-0.723,1.194-1.246
		c0.303-0.522,0.455-1.075,0.455-1.656v-1.07h0.667v1.041c0,0.577,0.151,1.109,0.454,1.598
		C100.506,153.704,100.895,154.095,101.368,154.388z M103.538,153.113h-0.997v3.32h-0.645v-6.405h0.645v2.55h0.997V153.113z"/>
	<path d="M107.136,153.04h-2.917v-2.667h2.917V153.04z M106.491,152.519v-1.626h-1.634v1.626H106.491z M109.415,156.389h-4.39
		v-1.656h3.51v-0.586h-3.532v-0.52h4.185v1.597h-3.518v0.63h3.745V156.389z M107.451,151.354v-0.506h1.084v-0.82h0.652v3.29h-0.652
		v-0.777h-1.084v-0.498h1.084v-0.689H107.451z"/>
</g>
<g>
	<line x1="51.043" y1="83.436" x2="74.527" y2="83.436"/>
	<g>
		
			<line fill="none" stroke="#000000" stroke-width="0.6662" stroke-miterlimit="10" x1="51.043" y1="83.436" x2="71.345" y2="83.436"/>
		<g>
			<polygon points="69.848,85.41 70.687,83.436 69.848,81.462 74.527,83.436 			"/>
		</g>
	</g>
</g>
<g>
	<line x1="47.694" y1="114.432" x2="75.276" y2="102.867"/>
	<g>
		
			<line fill="none" stroke="#000000" stroke-width="0.6393" stroke-miterlimit="10" x1="47.694" y1="114.432" x2="72.46" y2="104.047"/>
		<g>
			<polygon points="71.868,106.349 71.878,104.291 70.403,102.856 75.276,102.867 			"/>
		</g>
	</g>
</g>
<g>
	<g>
		<path fill="none" stroke="#00A1E9" stroke-width="0.6662" stroke-miterlimit="10" d="M34.74,124.703
			c0,0-1.275,10.172,5.355,14.701"/>
		<g>
			<polygon fill="#00A1E9" points="37.894,140.396 39.548,139.032 39.714,136.894 42.956,140.802 			"/>
		</g>
	</g>
</g>
<g>
	<g>
		<path fill="none" stroke="#00A1E9" stroke-width="0.6662" stroke-miterlimit="10" d="M60.648,155.532
			c0,0,8.257,4.178,18.296,1.115"/>
		<g>
			<polygon fill="#00A1E9" points="78.185,158.963 78.312,156.822 76.859,155.245 81.929,155.532 			"/>
		</g>
	</g>
</g>
<g>
	<g>
		
			<line fill="none" stroke="#000000" stroke-width="0.6662" stroke-miterlimit="10" x1="96.733" y1="140.34" x2="97.934" y2="119.91"/>
		<g>
			<polygon points="99.817,121.52 97.896,120.567 95.876,121.288 98.121,116.734 			"/>
		</g>
	</g>
</g>
<g>
	<g>
		<path fill="none" stroke="#00A1E9" stroke-width="0.6662" stroke-miterlimit="10" d="M156.413,128.537
			c0,0-8.914,20.031-30.595,22.252"/>
		<g>
			<polygon fill="#00A1E9" points="127.156,148.659 126.469,150.69 127.455,152.595 122.64,150.98 			"/>
		</g>
	</g>
</g>
<g>
	<g>
		
			<line fill="none" stroke="#000000" stroke-width="0.6662" stroke-miterlimit="10" x1="140.905" y1="57.066" x2="126.477" y2="68.925"/>
		<g>
			<polygon points="126.38,66.45 126.985,68.507 128.886,69.499 124.019,70.945 			"/>
		</g>
	</g>
</g>
<g>
	<g>
		<path fill="none" stroke="#00A1E9" stroke-width="0.6662" stroke-miterlimit="10" d="M24.044,75.559
			c0,0-0.891-17.597,14.216-25.481"/>
		<g>
			<polygon fill="#00A1E9" points="37.753,52.531 37.68,50.388 36.087,48.953 41.161,48.767 			"/>
		</g>
	</g>
</g>
<g>
	<g>
		
			<line fill="none" stroke="#000000" stroke-width="0.6662" stroke-miterlimit="10" x1="67.587" y1="47.392" x2="82.36" y2="61.785"/>
		<g>
			<polygon points="79.91,62.154 81.888,61.326 82.665,59.327 84.639,64.005 			"/>
		</g>
	</g>
</g>
<g>
	<g>
		<path fill="none" stroke="#00A1E9" stroke-width="0.6662" stroke-miterlimit="10" d="M4.231,110.888
			c0,0-20.969-59.326,34.357-71.974"/>
		<g>
			<polygon fill="#00A1E9" points="37.568,41.211 37.957,39.102 36.709,37.358 41.705,38.267 			"/>
		</g>
	</g>
</g>
<g>
	<path d="M54.142,5.584V0.659h1.524c1.07,0,1.605,0.416,1.605,1.246c0,0.537-0.269,0.892-0.806,1.062v0.029
		c0.674,0.127,1.011,0.523,1.011,1.187c0,0.42-0.144,0.758-0.432,1.015c-0.289,0.256-0.706,0.385-1.253,0.385H54.142z M54.787,2.777
		h0.77c0.694,0,1.041-0.262,1.041-0.784c0-0.293-0.079-0.496-0.238-0.608c-0.159-0.112-0.407-0.168-0.744-0.168h-0.828V2.777z
		 M54.787,5.042h0.967c0.699,0,1.048-0.295,1.048-0.887c0-0.303-0.092-0.521-0.275-0.656s-0.456-0.202-0.817-0.202h-0.923V5.042z"/>
	<path d="M61.257,4.353l-0.396,0.455c-0.249-0.171-0.493-0.42-0.732-0.748c-0.24-0.327-0.406-0.657-0.499-0.989
		c-0.078,0.352-0.238,0.704-0.48,1.055s-0.521,0.635-0.839,0.85l-0.403-0.454c0.4-0.259,0.735-0.64,1.004-1.144
		c0.269-0.503,0.403-1.062,0.403-1.678V0.608h0.623v1.084c0,0.591,0.124,1.123,0.37,1.594C60.555,3.758,60.871,4.113,61.257,4.353z
		 M62.21,6.089h-0.616V2.807h-1.011V2.271h1.011V0.146h0.616V6.089z M63.478,6.405h-0.623V0h0.623V6.405z"/>
	<path d="M69.677,3.781h-2.066v1.282h2.58v0.528h-5.782V5.063h2.55V3.781h-2.074V3.253h1.07l-0.168-1.671l0.66-0.095l0.125,1.766
		h1.451l0.25-1.751l0.63,0.11l-0.271,1.642h1.048V3.781z M69.685,1.172h-4.807V0.652h4.807V1.172z"/>
	<path d="M72.154,6.331c-0.381-0.376-0.691-0.818-0.931-1.326c-0.24-0.508-0.359-1.062-0.359-1.664V3.217
		c0-1.148,0.43-2.142,1.29-2.982h0.549c-0.352,0.391-0.639,0.84-0.861,1.348c-0.222,0.508-0.333,1.033-0.333,1.576v0.19
		c0,0.528,0.112,1.06,0.337,1.598c0.225,0.538,0.511,0.999,0.857,1.385H72.154z"/>
	<path d="M76.727,1.546h-3.686v-0.52h3.686V1.546z M75.942,2.084c0.279,0.193,0.418,0.448,0.418,0.766
		c0,0.317-0.139,0.573-0.418,0.766c-0.278,0.193-0.632,0.29-1.062,0.29c-0.43,0-0.784-0.097-1.062-0.29S73.4,3.168,73.4,2.851
		c0-0.323,0.138-0.579,0.414-0.77c0.276-0.19,0.631-0.286,1.066-0.286C75.31,1.795,75.664,1.892,75.942,2.084z M78.097,5.291
		c0,0.352-0.186,0.627-0.557,0.825s-0.899,0.297-1.583,0.297c-0.688,0-1.217-0.098-1.586-0.293
		c-0.369-0.195-0.553-0.471-0.553-0.828c0-0.356,0.185-0.634,0.553-0.832c0.369-0.198,0.898-0.297,1.586-0.297
		c0.684,0,1.212,0.099,1.583,0.297S78.097,4.934,78.097,5.291z M75.818,0.63h-1.861V0.095h1.861V0.63z M75.47,3.257
		c0.164-0.105,0.246-0.241,0.246-0.407s-0.082-0.302-0.246-0.407c-0.164-0.105-0.36-0.158-0.59-0.158
		c-0.234,0-0.434,0.053-0.597,0.158s-0.246,0.241-0.246,0.407s0.083,0.302,0.25,0.407c0.166,0.105,0.364,0.157,0.593,0.157
		S75.306,3.362,75.47,3.257z M77.042,4.84c-0.264-0.11-0.625-0.165-1.085-0.165c-0.459,0-0.82,0.055-1.084,0.165
		c-0.264,0.11-0.396,0.26-0.396,0.451c0,0.186,0.13,0.333,0.392,0.443c0.261,0.11,0.624,0.165,1.088,0.165
		c0.464,0,0.827-0.054,1.088-0.161s0.392-0.256,0.392-0.447C77.438,5.1,77.306,4.95,77.042,4.84z M78.991,2.469h-0.967v1.678h-0.645
		V0h0.645v1.927h0.967V2.469z"/>
	<path d="M82.604,4.58l-0.381,0.469c-0.254-0.156-0.502-0.378-0.744-0.667c-0.242-0.288-0.404-0.579-0.487-0.872
		c-0.078,0.313-0.238,0.629-0.48,0.949s-0.507,0.568-0.795,0.744l-0.411-0.432c0.909-0.567,1.363-1.41,1.363-2.528v-0.11H79.46
		V1.604h3.02v0.528h-1.173V2.22c0,0.577,0.121,1.062,0.363,1.455C81.912,4.068,82.223,4.37,82.604,4.58z M80.149,1.041V0.505h1.686
		v0.535H80.149z M82.963,3.305h-0.916V2.777h0.916V0.146h0.608v5.943h-0.608V3.305z M84.824,6.405h-0.623V0h0.623V6.405z"/>
	<path d="M90.885,2.975L90.54,3.466c-0.229-0.112-0.469-0.292-0.718-0.539c-0.25-0.247-0.42-0.48-0.513-0.7
		c-0.078,0.254-0.241,0.521-0.487,0.802c-0.247,0.281-0.512,0.5-0.795,0.656l-0.389-0.469c0.381-0.205,0.701-0.492,0.96-0.861
		c0.259-0.369,0.389-0.776,0.389-1.22v-0.77h0.63v0.755c0,0.435,0.128,0.814,0.385,1.14C90.258,2.585,90.552,2.824,90.885,2.975z
		 M92.57,4.291c0.391,0.217,0.586,0.514,0.586,0.89c0,0.376-0.195,0.673-0.586,0.891c-0.391,0.217-0.931,0.326-1.62,0.326
		c-0.684,0-1.22-0.109-1.608-0.326c-0.389-0.217-0.583-0.514-0.583-0.891c0-0.376,0.194-0.673,0.583-0.89
		c0.388-0.217,0.924-0.326,1.608-0.326C91.64,3.964,92.179,4.073,92.57,4.291z M90.951,4.492c-0.459,0-0.826,0.062-1.099,0.187
		c-0.274,0.125-0.411,0.292-0.411,0.502c0,0.21,0.136,0.376,0.407,0.499s0.639,0.183,1.103,0.183c0.469,0,0.841-0.061,1.118-0.183
		c0.276-0.122,0.414-0.288,0.414-0.499c0-0.21-0.138-0.377-0.414-0.502C91.792,4.554,91.42,4.492,90.951,4.492z M93.09,4.008h-0.623
		V2.191H91.75v1.488h-0.616V0.117h0.616v1.546h0.718V0h0.623V4.008z"/>
	<path d="M97.67,3.114l-0.381,0.513c-0.313-0.142-0.608-0.346-0.887-0.612c-0.278-0.266-0.486-0.556-0.623-0.868
		c-0.093,0.327-0.287,0.648-0.583,0.963c-0.295,0.315-0.612,0.551-0.949,0.708l-0.403-0.513c0.455-0.186,0.834-0.482,1.14-0.89
		c0.305-0.408,0.458-0.854,0.458-1.337V0.359h0.66v0.689c0,0.488,0.156,0.918,0.469,1.29C96.883,2.709,97.25,2.968,97.67,3.114z
		 M99.238,6.207h-4.265V4.191h0.652v1.488h3.613V6.207z M99.927,2.462h-0.96v2.191h-0.645V0h0.645v1.92h0.96V2.462z"/>
	<path d="M100.162,6.331c0.356-0.391,0.646-0.84,0.869-1.348c0.222-0.508,0.333-1.033,0.333-1.576V3.209
		c0-0.527-0.112-1.059-0.337-1.594c-0.225-0.535-0.513-0.996-0.865-1.381h0.557c0.386,0.376,0.698,0.817,0.938,1.323
		c0.239,0.505,0.359,1.059,0.359,1.66v0.125c0,0.601-0.12,1.156-0.359,1.664c-0.24,0.508-0.552,0.95-0.938,1.326H100.162z"/>
</g>
<g>
	<path d="M15.347,180.802l-0.396,0.455c-0.249-0.171-0.493-0.42-0.732-0.748c-0.24-0.327-0.406-0.657-0.499-0.989
		c-0.078,0.352-0.238,0.704-0.48,1.055s-0.521,0.635-0.839,0.85l-0.403-0.454c0.4-0.259,0.735-0.64,1.004-1.144
		c0.269-0.503,0.403-1.062,0.403-1.678v-1.092h0.623v1.084c0,0.591,0.124,1.123,0.37,1.594
		C14.645,180.207,14.961,180.562,15.347,180.802z M16.3,182.539h-0.616v-3.283h-1.011v-0.535h1.011v-2.125H16.3V182.539z
		 M17.567,182.854h-0.623v-6.405h0.623V182.854z"/>
	<path d="M23.767,180.23h-2.066v1.282h2.58v0.528h-5.782v-0.528h2.55v-1.282h-2.074v-0.528h1.07l-0.168-1.671l0.66-0.095
		l0.125,1.766h1.451l0.25-1.751l0.63,0.11l-0.271,1.642h1.048V180.23z M23.774,177.622h-4.807v-0.521h4.807V177.622z"/>
	<path d="M29.915,178.882h-1.869v0.733h2.572v0.528h-5.782v-0.528h2.558v-0.733h-1.795v-2.169h4.272v0.527h-3.627v1.122h3.671
		V178.882z M25.503,180.736h4.36v2.147h-0.652v-1.627h-3.708V180.736z"/>
	<path d="M34.847,179.432l-0.381,0.505c-0.308-0.137-0.596-0.331-0.865-0.583c-0.269-0.251-0.464-0.529-0.586-0.832
		c-0.098,0.322-0.29,0.63-0.575,0.923s-0.607,0.52-0.963,0.682l-0.403-0.506c0.484-0.205,0.872-0.497,1.165-0.875
		c0.293-0.379,0.44-0.81,0.44-1.293v-0.645h0.66v0.616c0,0.474,0.15,0.892,0.451,1.253C34.088,179.039,34.441,179.29,34.847,179.432
		z M35.913,180.703c0.378,0.222,0.568,0.526,0.568,0.912c0,0.386-0.189,0.689-0.568,0.909c-0.379,0.22-0.91,0.33-1.594,0.33
		c-0.679,0-1.208-0.11-1.587-0.33c-0.378-0.22-0.568-0.522-0.568-0.909c0-0.386,0.189-0.69,0.568-0.912
		c0.379-0.222,0.908-0.333,1.587-0.333C35.003,180.37,35.534,180.481,35.913,180.703z M34.319,180.89
		c-0.469,0-0.835,0.065-1.099,0.194c-0.264,0.129-0.396,0.307-0.396,0.531c0,0.225,0.132,0.401,0.396,0.528
		c0.264,0.127,0.63,0.19,1.099,0.19c0.474,0,0.843-0.063,1.106-0.19s0.396-0.303,0.396-0.528c0-0.225-0.132-0.402-0.396-0.531
		S34.793,180.89,34.319,180.89z M35.777,178.413h-1.231v-0.528h1.231v-1.436h0.652v3.913h-0.652V178.413z"/>
	<path d="M40.797,182.033v-4.368h-1.458v-0.557h3.554v0.557h-1.458v4.368H40.797z"/>
	<path d="M46.535,180.802l-0.396,0.455c-0.249-0.171-0.493-0.42-0.732-0.748c-0.24-0.327-0.406-0.657-0.499-0.989
		c-0.078,0.352-0.238,0.704-0.48,1.055s-0.521,0.635-0.839,0.85l-0.403-0.454c0.4-0.259,0.735-0.64,1.004-1.144
		c0.269-0.503,0.403-1.062,0.403-1.678v-1.092h0.623v1.084c0,0.591,0.124,1.123,0.37,1.594
		C45.833,180.207,46.149,180.562,46.535,180.802z M47.488,182.539h-0.616v-3.283h-1.011v-0.535h1.011v-2.125h0.616V182.539z
		 M48.755,182.854h-0.623v-6.405h0.623V182.854z"/>
	<path d="M54.955,180.23h-2.066v1.282h2.58v0.528h-5.782v-0.528h2.55v-1.282h-2.074v-0.528h1.07l-0.168-1.671l0.66-0.095
		l0.125,1.766h1.451l0.25-1.751l0.63,0.11l-0.271,1.642h1.048V180.23z M54.962,177.622h-4.807v-0.521h4.807V177.622z"/>
	<path d="M12.482,190.827v-4.925h0.762l2.257,3.825h0.015v-3.825h0.594v4.925h-0.667l-2.353-4.031h-0.015v4.031H12.482z"/>
	<path d="M17.311,190.827v-4.925h0.645v4.925H17.311z M20.066,190.827l-2.052-2.514l2.03-2.411h0.688l-1.993,2.338l2.088,2.587
		H20.066z"/>
	<path d="M24.434,189.596l-0.396,0.455c-0.249-0.171-0.493-0.42-0.732-0.748c-0.24-0.327-0.406-0.657-0.499-0.989
		c-0.078,0.352-0.238,0.704-0.48,1.055s-0.521,0.635-0.839,0.85l-0.403-0.454c0.4-0.259,0.735-0.64,1.004-1.144
		c0.269-0.503,0.403-1.062,0.403-1.678v-1.092h0.623v1.084c0,0.591,0.124,1.123,0.37,1.594
		C23.732,189.001,24.048,189.356,24.434,189.596z M25.387,191.333h-0.616v-3.283H23.76v-0.535h1.011v-2.125h0.616V191.333z
		 M26.654,191.648h-0.623v-6.405h0.623V191.648z"/>
	<path d="M32.854,189.024h-2.066v1.282h2.58v0.528h-5.782v-0.528h2.55v-1.282h-2.074v-0.528h1.07l-0.168-1.671l0.66-0.095
		l0.125,1.766h1.451l0.25-1.751l0.63,0.11l-0.271,1.642h1.048V189.024z M32.861,186.416h-4.807v-0.521h4.807V186.416z"/>
</g>
<g>
	<path d="M162.539,157.123l-0.396,0.455c-0.249-0.171-0.493-0.42-0.732-0.748c-0.24-0.327-0.406-0.657-0.499-0.989
		c-0.078,0.352-0.238,0.704-0.48,1.055s-0.521,0.635-0.839,0.85l-0.403-0.454c0.4-0.259,0.735-0.64,1.004-1.144
		c0.269-0.503,0.403-1.062,0.403-1.678v-1.092h0.623v1.084c0,0.591,0.124,1.123,0.37,1.594
		C161.836,156.528,162.152,156.884,162.539,157.123z M163.491,158.86h-0.616v-3.283h-1.011v-0.535h1.011v-2.125h0.616V158.86z
		 M164.759,159.175h-0.623v-6.405h0.623V159.175z"/>
	<path d="M170.959,156.552h-2.066v1.282h2.58v0.528h-5.782v-0.528h2.55v-1.282h-2.074v-0.528h1.07l-0.168-1.671l0.66-0.095
		l0.125,1.766h1.451l0.25-1.751l0.63,0.11l-0.271,1.642h1.048V156.552z M170.966,153.943h-4.807v-0.521h4.807V153.943z"/>
	<path d="M177.107,155.203h-1.869v0.733h2.572v0.528h-5.782v-0.528h2.558v-0.733h-1.795v-2.169h4.272v0.527h-3.627v1.122h3.671
		V155.203z M172.695,157.057h4.36v2.147h-0.652v-1.627h-3.708V157.057z"/>
	<path d="M182.038,155.753l-0.381,0.505c-0.308-0.137-0.596-0.331-0.865-0.583c-0.269-0.251-0.464-0.529-0.586-0.832
		c-0.098,0.322-0.29,0.63-0.575,0.923s-0.607,0.52-0.963,0.682l-0.403-0.506c0.484-0.205,0.872-0.497,1.165-0.875
		c0.293-0.379,0.44-0.81,0.44-1.293v-0.645h0.66v0.616c0,0.474,0.15,0.892,0.451,1.253
		C181.28,155.36,181.633,155.611,182.038,155.753z M183.105,157.024c0.378,0.222,0.568,0.526,0.568,0.912
		c0,0.386-0.189,0.689-0.568,0.909c-0.379,0.22-0.91,0.33-1.594,0.33c-0.679,0-1.208-0.11-1.587-0.33
		c-0.378-0.22-0.568-0.522-0.568-0.909c0-0.386,0.189-0.69,0.568-0.912c0.379-0.222,0.908-0.333,1.587-0.333
		C182.194,156.691,182.726,156.802,183.105,157.024z M181.511,157.211c-0.469,0-0.835,0.065-1.099,0.194
		c-0.264,0.129-0.396,0.307-0.396,0.531c0,0.225,0.132,0.401,0.396,0.528c0.264,0.127,0.63,0.19,1.099,0.19
		c0.474,0,0.843-0.063,1.106-0.19s0.396-0.303,0.396-0.528c0-0.225-0.132-0.402-0.396-0.531S181.984,157.211,181.511,157.211z
		 M182.969,154.734h-1.231v-0.528h1.231v-1.436h0.652v3.913h-0.652V154.734z"/>
	<path d="M187.989,158.354v-4.368h-1.458v-0.557h3.554v0.557h-1.458v4.368H187.989z"/>
	<path d="M193.727,157.123l-0.396,0.455c-0.249-0.171-0.493-0.42-0.732-0.748c-0.24-0.327-0.406-0.657-0.499-0.989
		c-0.078,0.352-0.238,0.704-0.48,1.055s-0.521,0.635-0.839,0.85l-0.403-0.454c0.4-0.259,0.735-0.64,1.004-1.144
		c0.269-0.503,0.403-1.062,0.403-1.678v-1.092h0.623v1.084c0,0.591,0.124,1.123,0.37,1.594
		C193.024,156.528,193.34,156.884,193.727,157.123z M194.679,158.86h-0.616v-3.283h-1.011v-0.535h1.011v-2.125h0.616V158.86z
		 M195.947,159.175h-0.623v-6.405h0.623V159.175z"/>
	<path d="M202.146,156.552h-2.066v1.282h2.58v0.528h-5.782v-0.528h2.55v-1.282h-2.074v-0.528h1.07l-0.168-1.671l0.66-0.095
		l0.125,1.766h1.451l0.25-1.751l0.63,0.11l-0.271,1.642h1.048V156.552z M202.153,153.943h-4.807v-0.521h4.807V153.943z"/>
	<path d="M159.673,167.148v-4.925h0.762l2.257,3.825h0.015v-3.825h0.594v4.925h-0.667l-2.353-4.031h-0.015v4.031H159.673z"/>
	<path d="M164.503,167.148v-4.925h0.645v4.925H164.503z M167.258,167.148l-2.052-2.514l2.03-2.411h0.688l-1.993,2.338l2.088,2.587
		H167.258z"/>
	<path d="M171.626,165.917l-0.396,0.455c-0.249-0.171-0.493-0.42-0.732-0.748c-0.24-0.327-0.406-0.657-0.499-0.989
		c-0.078,0.352-0.238,0.704-0.48,1.055s-0.521,0.635-0.839,0.85l-0.403-0.454c0.4-0.259,0.735-0.64,1.004-1.144
		c0.269-0.503,0.403-1.062,0.403-1.678v-1.092h0.623v1.084c0,0.591,0.124,1.123,0.37,1.594
		C170.923,165.322,171.239,165.678,171.626,165.917z M172.578,167.654h-0.616v-3.283h-1.011v-0.535h1.011v-2.125h0.616V167.654z
		 M173.846,167.969h-0.623v-6.405h0.623V167.969z"/>
	<path d="M180.045,165.346h-2.066v1.282h2.58v0.528h-5.782v-0.528h2.55v-1.282h-2.074v-0.528h1.07l-0.168-1.671l0.66-0.095
		l0.125,1.766h1.451l0.25-1.751l0.63,0.11l-0.271,1.642h1.048V165.346z M180.052,162.737h-4.807v-0.521h4.807V162.737z"/>
</g>
<g>
	<path d="M89.89,86.833c0.213,0.011,0.399,0.016,0.56,0.016c0.836,0,1.554-0.05,2.15-0.152c0.005,0.085,0.016,0.217,0.032,0.396
		c0.016,0.178,0.026,0.313,0.032,0.403c-0.527,0.123-1.479,0.184-2.854,0.184c-0.117,0-0.278-0.002-0.483-0.008
		c-0.206-0.005-0.359-0.008-0.46-0.008v-3.461h3.238v0.823H89.89v0.456h2.062v0.831H89.89V86.833z M94.238,90.709H89.49v-2.566
		h4.749V90.709z M93.183,89.902v-0.951h-2.622v0.951H93.183z M95.198,86.257h-0.959v1.607h-1.063v-4.141h1.063v1.679h0.959V86.257z"
		/>
	<path d="M99.946,86.752l-0.567,0.839c-0.293-0.101-0.594-0.284-0.903-0.548c-0.309-0.264-0.528-0.54-0.656-0.827
		c-0.096,0.32-0.314,0.63-0.655,0.931c-0.341,0.301-0.688,0.51-1.04,0.627l-0.543-0.831c0.533-0.181,0.947-0.468,1.243-0.859
		c0.296-0.392,0.443-0.849,0.443-1.371V84.13h1.08v0.527c0,0.544,0.145,0.987,0.436,1.331S99.462,86.587,99.946,86.752z
		 M96.605,88.191h4.892v2.662h-1.063v-1.831h-3.829V88.191z M101.489,87.912h-1.079v-4.189h1.079V87.912z"/>
	<path d="M102.577,84.954v-0.855h3.757v0.855h-1.295c0.038,0.479,0.201,0.882,0.492,1.207c0.291,0.325,0.66,0.565,1.107,0.72
		l-0.568,0.823c-0.282-0.09-0.582-0.274-0.899-0.552c-0.317-0.277-0.54-0.56-0.667-0.847c-0.09,0.314-0.304,0.629-0.639,0.943
		c-0.336,0.314-0.677,0.527-1.023,0.64l-0.56-0.848c0.512-0.17,0.911-0.434,1.199-0.792c0.288-0.357,0.442-0.789,0.463-1.295
		H102.577z M103.384,88.199h4.709v2.654h-1.056v-1.815h-3.653V88.199z M109.068,86.249h-0.991v1.647h-1.047v-4.173h1.047v1.655
		h0.991V86.249z"/>
	<path d="M110.083,85.25c0-0.4,0.228-0.726,0.684-0.979c0.456-0.253,1.07-0.38,1.843-0.38c0.772,0,1.39,0.127,1.851,0.38
		c0.461,0.253,0.691,0.58,0.691,0.979c0,0.432-0.269,0.778-0.807,1.039v0.76h1.487v0.831h-6.436v-0.831h1.439v-0.792
		C110.334,86.012,110.083,85.676,110.083,85.25z M115.096,89.486c0,0.405-0.223,0.729-0.667,0.971
		c-0.445,0.243-1.049,0.364-1.811,0.364c-0.773,0-1.38-0.121-1.823-0.364c-0.442-0.242-0.664-0.566-0.664-0.971
		c0-0.41,0.22-0.737,0.66-0.979c0.44-0.243,1.043-0.364,1.811-0.364c0.773,0,1.382,0.121,1.827,0.364
		C114.873,88.75,115.096,89.076,115.096,89.486z M111.194,85.257c0,0.176,0.126,0.316,0.38,0.42
		c0.253,0.104,0.598,0.156,1.035,0.156c0.442,0,0.792-0.052,1.047-0.156s0.383-0.244,0.383-0.42c0-0.17-0.129-0.309-0.388-0.416
		c-0.258-0.106-0.606-0.16-1.043-0.16c-0.432,0-0.775,0.054-1.031,0.16S111.194,85.087,111.194,85.257z M114.008,89.502
		c0-0.165-0.126-0.294-0.38-0.388c-0.253-0.093-0.595-0.14-1.027-0.14c-0.421,0-0.757,0.047-1.007,0.14
		c-0.251,0.093-0.376,0.223-0.376,0.388c0,0.144,0.128,0.264,0.384,0.36c0.256,0.096,0.589,0.144,0.999,0.144
		c0.421,0,0.761-0.048,1.02-0.144C113.879,89.766,114.008,89.646,114.008,89.502z M112.609,86.608c-0.256,0-0.49-0.016-0.704-0.048
		v0.488h1.383v-0.48C113.118,86.595,112.892,86.608,112.609,86.608z"/>
</g>
<g>
	<line x1="62.785" y1="11.653" x2="62.785" y2="24.144"/>
	<g>
		
			<line fill="none" stroke="#C30F23" stroke-width="0.6662" stroke-miterlimit="10" x1="62.785" y1="11.653" x2="62.785" y2="20.167"/>
		<g>
			<polygon fill="#C30F23" points="60.318,18.296 62.785,19.344 65.252,18.296 62.785,24.144 			"/>
		</g>
	</g>
</g>
<g>
	<line x1="45.843" y1="172.724" x2="45.843" y2="156.069"/>
	<g>
		
			<line fill="none" stroke="#C30F23" stroke-width="0.6662" stroke-miterlimit="10" x1="45.843" y1="172.724" x2="45.843" y2="160.046"/>
		<g>
			<polygon fill="#C30F23" points="48.31,161.917 45.843,160.869 43.376,161.917 45.843,156.069 			"/>
		</g>
	</g>
</g>
<g>
	<line x1="163.815" y1="148.667" x2="163.815" y2="132.012"/>
	<g>
		
			<line fill="none" stroke="#C30F23" stroke-width="0.6662" stroke-miterlimit="10" x1="163.815" y1="148.667" x2="163.815" y2="135.989"/>
		<g>
			<polygon fill="#C30F23" points="166.282,137.86 163.815,136.812 161.348,137.86 163.815,132.012 			"/>
		</g>
	</g>
</g>
<g>
</g>
<g>
</g>
<g>
</g>
<g>
</g>
<g>
</g>
<g>
</g>
<g>
</g>
</svg>
