<?xml version="1.0" encoding="utf-8"?>
<!-- Generator: Adobe Illustrator 28.0.0, SVG Export Plug-In . SVG Version: 6.00 Build 0)  -->
<svg version="1.1" id="레이어_1" xmlns="http://www.w3.org/2000/svg" xmlns:xlink="http://www.w3.org/1999/xlink" x="0px"
	 y="0px" viewBox="0 0 286.318 171.503" enable-background="new 0 0 286.318 171.503" xml:space="preserve">
<g>
	<path d="M18.636,2.604h-3.372V3.66h3.192v0.864h-3.192V5.64c0.912,0,1.656-0.02,2.232-0.06c0.576-0.04,1.152-0.116,1.728-0.228
		l0.108,0.852c-0.616,0.112-1.24,0.188-1.872,0.228c-0.632,0.04-1.464,0.06-2.496,0.06h-0.756V1.728h4.428V2.604z M21.288,10.86
		h-6.096V7.404h6.096V10.86z M16.224,9.996h4.032v-1.74h-4.032V9.996z M21.288,3.528h1.356v0.9h-1.356v2.484h-1.056V1.128h1.056
		V3.528z"/>
	<path d="M26.964,4.422c0.416,0.564,0.984,0.974,1.704,1.23l-0.504,0.852c-0.552-0.2-1.026-0.488-1.422-0.864
		s-0.702-0.824-0.918-1.344c-0.216,0.552-0.528,1.034-0.936,1.446s-0.892,0.722-1.452,0.93L22.908,5.82
		c0.736-0.264,1.314-0.698,1.734-1.302s0.63-1.262,0.63-1.974V1.596h1.068v0.948C26.34,3.232,26.548,3.858,26.964,4.422z
		 M30.756,10.992H29.7V8.388h-5.388V7.512h6.444V10.992z M30.756,7.044H29.7V1.128h1.056V7.044z"/>
	<path d="M35.892,4.662c0.4,0.54,0.96,0.934,1.68,1.182l-0.528,0.84c-0.536-0.192-0.994-0.466-1.374-0.822
		c-0.38-0.355-0.678-0.778-0.894-1.266c-0.216,0.528-0.524,0.988-0.924,1.38c-0.4,0.392-0.876,0.684-1.428,0.876l-0.54-0.816
		c0.728-0.256,1.302-0.674,1.722-1.254s0.63-1.214,0.63-1.902V2.652h-2.064V1.776h5.136v0.876h-2.016V2.88
		C35.292,3.528,35.492,4.122,35.892,4.662z M39.42,10.992h-1.056V8.436h-5.232V7.56h6.288V10.992z M39.42,3.66h1.356v0.9H39.42
		v2.508h-1.056v-5.94h1.056V3.66z"/>
	<path d="M49.68,6.792h-8.664V5.94h2.064V4.62c-0.368-0.16-0.65-0.362-0.846-0.606C42.038,3.77,41.94,3.488,41.94,3.168
		c0-0.584,0.304-1.04,0.912-1.368c0.608-0.328,1.44-0.492,2.496-0.492c1.048,0,1.874,0.164,2.478,0.492
		c0.604,0.328,0.906,0.784,0.906,1.368c0,0.32-0.098,0.604-0.294,0.852c-0.196,0.248-0.478,0.452-0.846,0.612V5.94h2.088V6.792z
		 M47.754,7.92c0.58,0.304,0.87,0.736,0.87,1.296c0,0.56-0.29,0.992-0.87,1.296c-0.58,0.304-1.386,0.456-2.418,0.456
		c-1.04,0-1.85-0.152-2.43-0.456c-0.58-0.304-0.87-0.736-0.87-1.296c0-0.56,0.29-0.992,0.87-1.296c0.58-0.304,1.39-0.456,2.43-0.456
		C46.368,7.464,47.174,7.616,47.754,7.92z M43.625,2.412c-0.412,0.176-0.618,0.428-0.618,0.756c0,0.32,0.206,0.568,0.618,0.744
		s0.986,0.264,1.722,0.264c0.728,0,1.296-0.088,1.704-0.264s0.612-0.424,0.612-0.744c0-0.328-0.204-0.58-0.612-0.756
		s-0.976-0.264-1.704-0.264C44.612,2.148,44.038,2.236,43.625,2.412z M43.686,8.526c-0.388,0.164-0.582,0.394-0.582,0.69
		c0,0.304,0.192,0.536,0.576,0.696c0.384,0.16,0.936,0.24,1.656,0.24c0.72,0,1.272-0.08,1.656-0.24s0.576-0.392,0.576-0.696
		c0-0.296-0.194-0.526-0.582-0.69c-0.388-0.164-0.938-0.246-1.65-0.246C44.624,8.28,44.074,8.362,43.686,8.526z M46.548,5.94V4.92
		c-0.344,0.056-0.744,0.084-1.2,0.084c-0.464,0-0.868-0.028-1.212-0.084v1.02H46.548z"/>
	<path d="M56.04,5.538c0.208,0.556,0.498,1.056,0.87,1.5c0.372,0.444,0.798,0.778,1.278,1.002l-0.624,0.852
		c-0.536-0.272-1.008-0.674-1.416-1.206c-0.408-0.532-0.72-1.138-0.936-1.818c-0.216,0.72-0.532,1.366-0.948,1.938
		c-0.417,0.572-0.896,1.002-1.44,1.29l-0.624-0.852c0.48-0.24,0.906-0.59,1.278-1.05c0.372-0.46,0.662-0.982,0.87-1.566
		c0.208-0.584,0.312-1.172,0.312-1.764V3h-2.076V2.124h5.244V3h-2.1v0.864C55.728,4.424,55.832,4.982,56.04,5.538z M60.251,11.004
		h-1.056v-5.46h-1.92V4.668h1.92v-3.54h1.056V11.004z"/>
	<path d="M66.972,3.552h-5.628V2.676h2.316V1.272h1.044v1.404h2.268V3.552z M65.412,4.554c0.36,0.196,0.642,0.468,0.846,0.816
		s0.306,0.742,0.306,1.182c0,0.448-0.102,0.846-0.306,1.194s-0.486,0.62-0.846,0.816c-0.36,0.196-0.764,0.294-1.212,0.294
		c-0.456,0-0.864-0.096-1.224-0.288c-0.36-0.192-0.642-0.464-0.846-0.816C61.926,7.4,61.824,7,61.824,6.552
		c0-0.44,0.102-0.834,0.306-1.182c0.204-0.348,0.486-0.62,0.846-0.816c0.36-0.196,0.768-0.294,1.224-0.294
		C64.647,4.26,65.052,4.358,65.412,4.554z M63.209,5.538c-0.26,0.26-0.39,0.598-0.39,1.014c0,0.424,0.128,0.766,0.384,1.026
		s0.588,0.39,0.996,0.39c0.392,0,0.716-0.13,0.972-0.39c0.256-0.26,0.384-0.602,0.384-1.026c0-0.408-0.128-0.744-0.384-1.008
		c-0.256-0.264-0.58-0.396-0.972-0.396C63.8,5.148,63.47,5.278,63.209,5.538z M68.808,5.124h1.5V6h-1.5v4.992h-1.032V1.128h1.032
		V5.124z"/>
</g>
<g>
	<path d="M171.444,4.674c0.4,0.524,0.952,0.902,1.656,1.134l-0.48,0.84c-0.528-0.168-0.986-0.426-1.374-0.774
		s-0.69-0.754-0.906-1.218c-0.216,0.536-0.526,1.004-0.93,1.404s-0.89,0.7-1.458,0.9l-0.516-0.864
		c0.728-0.256,1.302-0.67,1.722-1.242c0.42-0.572,0.63-1.202,0.63-1.89V2.712h-2.064V1.848h5.136v0.864h-2.016v0.24
		C170.844,3.576,171.043,4.15,171.444,4.674z M174.228,7.77c0.56,0.324,0.84,0.774,0.84,1.35c0,0.584-0.282,1.038-0.846,1.362
		c-0.564,0.324-1.338,0.486-2.322,0.486c-0.992,0-1.772-0.164-2.34-0.492s-0.852-0.78-0.852-1.356c0-0.576,0.284-1.026,0.852-1.35
		s1.348-0.486,2.34-0.486C172.892,7.284,173.667,7.446,174.228,7.77z M170.316,8.388c-0.376,0.168-0.564,0.412-0.564,0.732
		s0.188,0.568,0.564,0.744c0.375,0.176,0.904,0.264,1.584,0.264c0.68,0,1.206-0.088,1.578-0.264
		c0.372-0.176,0.558-0.424,0.558-0.744s-0.186-0.564-0.558-0.732s-0.898-0.252-1.578-0.252C171.22,8.136,170.691,8.22,170.316,8.388
		z M174.972,3.564h1.356v0.888h-1.356v2.592h-1.056V1.128h1.056V3.564z"/>
	<path d="M179.447,6.132c1.088-0.04,2.088-0.124,3-0.252l0.048,0.768c-1.488,0.272-3.456,0.408-5.904,0.408l-0.096-0.864
		c0.816,0,1.456-0.008,1.92-0.024V4.116h1.032V6.132z M181.859,2.436c0,0.496-0.014,0.966-0.042,1.41
		c-0.028,0.444-0.094,0.942-0.198,1.494l-1.02-0.108c0.152-0.84,0.228-1.664,0.228-2.472h-3.768V1.884h4.8V2.436z M184.392,10.788
		h-6.48V7.872h1.068v2.04h5.412V10.788z M184.091,4.26h1.284v0.912h-1.284v3.36h-1.056V1.128h1.056V4.26z"/>
	<path d="M190.488,2.808h2.028V1.14h1.056v7.188h-1.056V5.784h-2.028v0.864h-4.416V1.98h4.416V2.808z M187.092,5.796h2.376V2.844
		h-2.376V5.796z M193.788,10.788h-6.444V7.68h1.056v2.232h5.388V10.788z M192.516,4.92V3.684h-2.028V4.92H192.516z"/>
	<path d="M202.644,6.948h-1.056V5.604h-2.316c-0.224,0.272-0.502,0.484-0.834,0.636s-0.698,0.228-1.098,0.228
		c-0.472,0-0.898-0.104-1.278-0.312s-0.678-0.494-0.894-0.858c-0.216-0.364-0.324-0.778-0.324-1.242
		c0-0.456,0.108-0.864,0.324-1.224s0.514-0.642,0.894-0.846c0.38-0.204,0.806-0.306,1.278-0.306c0.392,0,0.756,0.074,1.092,0.222
		c0.336,0.148,0.616,0.358,0.84,0.63h2.316V1.128h1.056V6.948z M196.266,3.006c-0.284,0.268-0.426,0.618-0.426,1.05
		c0,0.448,0.14,0.81,0.42,1.086c0.28,0.276,0.64,0.414,1.08,0.414c0.424,0,0.776-0.14,1.056-0.42c0.28-0.28,0.42-0.64,0.42-1.08
		c0-0.424-0.142-0.772-0.426-1.044c-0.284-0.272-0.634-0.408-1.05-0.408C196.908,2.604,196.549,2.738,196.266,3.006z
		 M202.644,10.992h-1.056V8.316h-5.4V7.464h6.456V10.992z M201.587,4.728v-1.32h-1.86c0.056,0.2,0.084,0.416,0.084,0.648
		c0,0.248-0.028,0.472-0.084,0.672H201.587z"/>
	<path d="M209.987,2.004c0.384,0.2,0.686,0.48,0.905,0.84c0.221,0.36,0.33,0.764,0.33,1.212c0,0.456-0.109,0.864-0.33,1.224
		c-0.22,0.36-0.521,0.64-0.905,0.84c-0.385,0.2-0.82,0.3-1.309,0.3c-0.479,0-0.912-0.1-1.296-0.3s-0.686-0.48-0.906-0.84
		c-0.22-0.36-0.329-0.768-0.329-1.224c0-0.448,0.109-0.852,0.329-1.212c0.221-0.36,0.524-0.64,0.912-0.84
		c0.389-0.2,0.818-0.3,1.29-0.3C209.167,1.704,209.603,1.804,209.987,2.004z M207.605,3.024c-0.284,0.264-0.427,0.608-0.427,1.032
		c0,0.44,0.143,0.794,0.427,1.062c0.283,0.268,0.642,0.402,1.073,0.402c0.44,0,0.805-0.134,1.093-0.402
		c0.287-0.268,0.432-0.622,0.432-1.062c0-0.424-0.145-0.768-0.432-1.032c-0.288-0.264-0.652-0.396-1.093-0.396
		C208.247,2.628,207.889,2.76,207.605,3.024z M213.503,10.992h-1.056v-2.7h-5.244V7.416h6.3V10.992z M214.823,3.456h-1.32V4.68h1.32
		v0.888h-1.32V6.96h-1.056V1.128h1.056v1.44h1.32V3.456z"/>
	<path d="M217.476,8.28V7.284c-0.545-0.088-0.973-0.29-1.284-0.606c-0.312-0.316-0.468-0.71-0.468-1.182
		c0-0.552,0.21-0.996,0.63-1.332s0.974-0.504,1.662-0.504c0.672,0,1.22,0.168,1.644,0.504s0.636,0.78,0.636,1.332
		c0,0.472-0.158,0.866-0.474,1.182c-0.316,0.316-0.746,0.518-1.29,0.606v0.948c0.872-0.04,1.684-0.112,2.436-0.216l0.072,0.78
		c-0.912,0.168-1.846,0.278-2.802,0.33c-0.956,0.052-1.994,0.078-3.114,0.078l-0.144-0.9C216.051,8.304,216.883,8.296,217.476,8.28z
		 M220.848,3.156h-5.7V2.304h2.328V1.176h1.056v1.128h2.316V3.156z M217.067,4.764c-0.24,0.184-0.36,0.428-0.36,0.732
		s0.12,0.546,0.36,0.726c0.24,0.18,0.556,0.27,0.948,0.27c0.384,0,0.693-0.09,0.93-0.27c0.235-0.18,0.354-0.422,0.354-0.726
		s-0.118-0.548-0.354-0.732c-0.236-0.184-0.546-0.276-0.93-0.276C217.623,4.488,217.308,4.58,217.067,4.764z M222.551,5.256h1.404
		v0.9h-1.404v4.836h-1.044V1.128h1.044V5.256z"/>
</g>
<g>
	<path d="M179.603,47.214h-2.184v3.42h-1.056v-3.42h-2.244v3.42h-1.068v-3.42h-2.148V46.35h8.7V47.214z M176.999,41.417
		c0.512,0.176,0.912,0.428,1.2,0.756s0.432,0.712,0.432,1.152c0,0.432-0.144,0.81-0.432,1.134c-0.288,0.324-0.688,0.574-1.2,0.75
		c-0.512,0.176-1.104,0.264-1.776,0.264c-0.664,0-1.252-0.088-1.764-0.264c-0.512-0.176-0.91-0.426-1.194-0.75
		c-0.284-0.324-0.426-0.702-0.426-1.134c0-0.44,0.142-0.824,0.426-1.152c0.284-0.328,0.682-0.58,1.194-0.756
		c0.512-0.176,1.1-0.264,1.764-0.264C175.895,41.154,176.487,41.242,176.999,41.417z M173.543,42.366
		c-0.416,0.232-0.624,0.552-0.624,0.96c0,0.4,0.208,0.716,0.624,0.948c0.416,0.232,0.976,0.348,1.68,0.348
		c0.712,0,1.278-0.116,1.698-0.348c0.42-0.232,0.63-0.548,0.63-0.948c0-0.408-0.21-0.728-0.63-0.96
		c-0.42-0.232-0.986-0.348-1.698-0.348C174.519,42.018,173.959,42.134,173.543,42.366z"/>
	<path d="M184.667,43.266h-4.704V42.39h1.836v-1.32h1.044v1.32h1.824V43.266z M183.389,44.142c0.316,0.192,0.562,0.46,0.738,0.804
		c0.176,0.344,0.264,0.736,0.264,1.176s-0.088,0.834-0.264,1.182c-0.176,0.348-0.422,0.62-0.738,0.816
		c-0.316,0.196-0.674,0.294-1.074,0.294c-0.392,0-0.744-0.098-1.056-0.294c-0.312-0.196-0.558-0.468-0.738-0.816
		c-0.18-0.348-0.27-0.742-0.27-1.182s0.09-0.832,0.27-1.176c0.18-0.344,0.426-0.612,0.738-0.804s0.664-0.288,1.056-0.288
		C182.715,43.854,183.073,43.95,183.389,44.142z M181.493,45.132c-0.212,0.252-0.318,0.582-0.318,0.99
		c0,0.408,0.106,0.738,0.318,0.99c0.211,0.252,0.486,0.378,0.822,0.378s0.612-0.126,0.828-0.378c0.216-0.252,0.324-0.582,0.324-0.99
		c0-0.408-0.108-0.738-0.324-0.99c-0.216-0.252-0.492-0.378-0.828-0.378S181.705,44.879,181.493,45.132z M188.135,50.634h-0.996
		V45.75h-1.068v4.416h-0.972v-9.18h0.972v3.888h1.068V40.77h0.996V50.634z"/>
	<path d="M196.667,42.065c0,0.552-0.012,1.042-0.036,1.47c-0.024,0.428-0.08,0.902-0.168,1.422h1.284v0.876h-2.316v2.28h-1.032
		v-2.28h-1.428v2.28h-1.032v-2.28h-2.88v-0.876h6.348c0.096-0.512,0.156-0.976,0.18-1.392c0.024-0.416,0.036-0.888,0.036-1.416
		h-5.496v-0.852h6.54V42.065z M196.919,50.43h-6.852v-3.132h1.044v2.256h5.808V50.43z"/>
	<path d="M209.027,46.278h-8.665v-0.864h8.665V46.278z M208.235,42.138h-2.844c0.039,0.312,0.203,0.602,0.491,0.87
		s0.666,0.494,1.135,0.678c0.468,0.184,0.989,0.304,1.565,0.36l-0.372,0.852c-0.84-0.096-1.572-0.313-2.195-0.654
		c-0.624-0.34-1.064-0.77-1.32-1.29c-0.256,0.52-0.696,0.95-1.32,1.29c-0.624,0.34-1.36,0.558-2.208,0.654l-0.348-0.852
		c0.568-0.056,1.086-0.176,1.554-0.36c0.468-0.184,0.844-0.41,1.128-0.678c0.284-0.268,0.446-0.558,0.486-0.87h-2.82v-0.876h7.068
		V42.138z M207.102,47.501c0.579,0.312,0.869,0.756,0.869,1.332c0,0.56-0.29,0.996-0.869,1.308c-0.58,0.312-1.387,0.468-2.418,0.468
		c-1.033,0-1.841-0.156-2.425-0.468s-0.876-0.748-0.876-1.308c0-0.576,0.292-1.02,0.876-1.332s1.392-0.468,2.425-0.468
		C205.715,47.034,206.521,47.189,207.102,47.501z M203.027,48.12c-0.384,0.164-0.576,0.402-0.576,0.714
		c0,0.304,0.192,0.536,0.576,0.696c0.384,0.16,0.936,0.24,1.657,0.24c0.72,0,1.271-0.08,1.655-0.24s0.576-0.392,0.576-0.696
		c0-0.312-0.192-0.55-0.576-0.714s-0.936-0.246-1.655-0.246C203.963,47.874,203.411,47.956,203.027,48.12z"/>
	<path d="M213.527,44.063c0.415,0.564,0.983,0.974,1.703,1.23l-0.504,0.852c-0.552-0.2-1.025-0.488-1.422-0.864
		c-0.396-0.376-0.702-0.824-0.918-1.344c-0.216,0.552-0.527,1.034-0.936,1.446s-0.893,0.722-1.452,0.93l-0.528-0.852
		c0.736-0.264,1.314-0.698,1.734-1.302s0.63-1.262,0.63-1.974v-0.948h1.068v0.948C212.903,42.874,213.111,43.5,213.527,44.063z
		 M217.319,50.634h-1.057V48.03h-5.388v-0.876h6.444V50.634z M217.319,46.686h-1.057V40.77h1.057V46.686z"/>
</g>
<g>
	<path d="M167.988,83.958c0.4,0.524,0.952,0.902,1.656,1.134l-0.48,0.84c-0.528-0.168-0.986-0.426-1.374-0.774
		s-0.69-0.754-0.906-1.218c-0.216,0.536-0.526,1.004-0.93,1.404s-0.89,0.7-1.458,0.9l-0.516-0.864
		c0.728-0.256,1.302-0.67,1.722-1.242c0.42-0.572,0.63-1.202,0.63-1.89v-0.252h-2.064v-0.864h5.136v0.864h-2.016v0.24
		C167.388,82.86,167.587,83.434,167.988,83.958z M170.771,87.054c0.56,0.324,0.84,0.774,0.84,1.35c0,0.584-0.282,1.038-0.846,1.362
		c-0.564,0.324-1.338,0.486-2.322,0.486c-0.992,0-1.772-0.164-2.34-0.492s-0.852-0.78-0.852-1.356c0-0.576,0.284-1.026,0.852-1.35
		s1.348-0.486,2.34-0.486C169.436,86.568,170.211,86.729,170.771,87.054z M166.86,87.672c-0.376,0.168-0.564,0.412-0.564,0.732
		s0.188,0.568,0.564,0.744c0.375,0.176,0.904,0.264,1.584,0.264c0.68,0,1.206-0.088,1.578-0.264
		c0.372-0.176,0.558-0.424,0.558-0.744s-0.186-0.564-0.558-0.732s-0.898-0.252-1.578-0.252
		C167.764,87.42,167.235,87.504,166.86,87.672z M171.516,82.848h1.356v0.888h-1.356v2.592h-1.056v-5.916h1.056V82.848z"/>
	<path d="M181.799,86.76h-3.852v3.516h-1.056V86.76h-3.78v-0.888h8.688V86.76z M180.828,84.516h-6.612v-3.612h1.044v2.748h5.568
		V84.516z"/>
	<path d="M190.848,86.784h-3.828v3.492h-1.044v-3.492h-3.792v-0.888h8.664V86.784z M187.53,82.512c0.3,0.4,0.708,0.74,1.224,1.02
		c0.516,0.28,1.086,0.464,1.71,0.552l-0.408,0.864c-0.792-0.128-1.5-0.39-2.124-0.786s-1.092-0.882-1.404-1.458
		c-0.312,0.576-0.782,1.062-1.41,1.458s-1.334,0.658-2.118,0.786l-0.408-0.864c0.624-0.088,1.194-0.271,1.71-0.552
		c0.516-0.28,0.924-0.618,1.224-1.014c0.3-0.396,0.45-0.81,0.45-1.242v-0.528h1.104v0.528C187.08,81.7,187.229,82.112,187.53,82.512
		z"/>
	<path d="M199.943,89.1h-8.688v-0.888h3.804v-1.716h-2.76v-3.144h5.556v-1.356h-5.568V81.12h6.612v3.072h-5.544v1.428h5.76v0.876
		h-3.012v1.716h3.84V89.1z"/>
	<path d="M206.573,81.408c0.388,0.208,0.691,0.498,0.912,0.87c0.22,0.372,0.33,0.794,0.33,1.266c0,0.472-0.11,0.894-0.33,1.266
		c-0.221,0.372-0.524,0.662-0.912,0.87c-0.389,0.208-0.818,0.312-1.29,0.312c-0.473,0-0.902-0.104-1.29-0.312
		s-0.694-0.5-0.918-0.876c-0.224-0.376-0.336-0.796-0.336-1.26s0.112-0.884,0.336-1.26c0.224-0.376,0.53-0.668,0.918-0.876
		s0.817-0.312,1.29-0.312C205.755,81.096,206.185,81.2,206.573,81.408z M204.203,82.452c-0.288,0.28-0.432,0.644-0.432,1.092
		c0,0.448,0.144,0.812,0.432,1.092c0.288,0.28,0.647,0.42,1.08,0.42c0.432,0,0.792-0.14,1.08-0.42
		c0.288-0.28,0.432-0.644,0.432-1.092c0-0.448-0.144-0.812-0.432-1.092c-0.288-0.28-0.648-0.42-1.08-0.42
		C204.851,82.032,204.491,82.172,204.203,82.452z M210.719,90.072h-6.503v-3.216h1.055v2.34h5.448V90.072z M210.455,87.576h-1.056
		v-7.152h1.056V87.576z"/>
	<path d="M217.295,82.428h-5.651v-0.852h2.304v-1.152h1.056v1.152h2.292V82.428z M216.138,83.412
		c0.428,0.344,0.642,0.792,0.642,1.344c0,0.56-0.212,1.008-0.636,1.344c-0.425,0.336-0.98,0.504-1.668,0.504
		c-0.696,0-1.257-0.168-1.681-0.504s-0.636-0.784-0.636-1.344c0-0.552,0.214-1,0.642-1.344c0.429-0.344,0.986-0.516,1.675-0.516
		C215.155,82.896,215.709,83.068,216.138,83.412z M219.503,90.072h-6.432v-2.844h1.044v1.968h5.388V90.072z M213.533,84.012
		c-0.236,0.184-0.354,0.432-0.354,0.744s0.117,0.56,0.354,0.744c0.236,0.185,0.55,0.276,0.942,0.276
		c0.392,0,0.708-0.092,0.947-0.276c0.24-0.184,0.36-0.432,0.36-0.744s-0.12-0.56-0.36-0.744c-0.239-0.184-0.556-0.276-0.947-0.276
		C214.083,83.736,213.77,83.828,213.533,84.012z M219.107,83.592h1.368v0.888h-1.368v3.324h-1.044v-7.38h1.044V83.592z"/>
	<path d="M223.643,81.083h1.128v7.62h4.044v0.912h-5.172V81.083z"/>
	<path d="M231.047,89.616h-1.128v-8.532h3.144c0.632,0,1.174,0.11,1.626,0.33c0.452,0.22,0.794,0.526,1.026,0.918
		c0.231,0.392,0.348,0.844,0.348,1.356c0,0.824-0.26,1.46-0.779,1.908c-0.521,0.448-1.261,0.672-2.221,0.672h-2.016V89.616z
		 M231.047,85.356h2.016c0.632,0,1.101-0.15,1.404-0.45s0.456-0.702,0.456-1.206c0-0.48-0.156-0.882-0.468-1.206
		c-0.312-0.324-0.776-0.486-1.393-0.486h-2.016V85.356z"/>
	<path d="M241.661,86.76c-0.116-0.184-0.318-0.35-0.606-0.498s-0.704-0.302-1.248-0.462c-0.896-0.256-1.58-0.582-2.052-0.978
		c-0.473-0.396-0.708-0.906-0.708-1.53c0-0.439,0.12-0.838,0.359-1.194c0.24-0.356,0.58-0.634,1.021-0.834
		c0.439-0.2,0.943-0.3,1.512-0.3c0.616,0,1.154,0.12,1.614,0.36s0.81,0.556,1.05,0.948c0.24,0.392,0.36,0.816,0.36,1.272h-1.152
		c0-0.504-0.158-0.906-0.474-1.206c-0.316-0.3-0.782-0.45-1.398-0.45c-0.576,0-1.012,0.126-1.308,0.378s-0.444,0.586-0.444,1.002
		c0,0.36,0.156,0.66,0.468,0.9c0.312,0.24,0.82,0.46,1.524,0.66c0.976,0.272,1.686,0.612,2.13,1.02
		c0.444,0.408,0.666,0.94,0.666,1.596c0,0.456-0.122,0.858-0.366,1.206c-0.244,0.348-0.592,0.616-1.044,0.804
		s-0.974,0.282-1.565,0.282c-0.545,0-1.062-0.1-1.555-0.3c-0.491-0.2-0.892-0.496-1.199-0.888c-0.309-0.392-0.463-0.86-0.463-1.404
		h1.129c0,0.552,0.199,0.97,0.6,1.254c0.399,0.284,0.896,0.426,1.488,0.426c0.584,0,1.035-0.122,1.355-0.366
		c0.32-0.244,0.48-0.578,0.48-1.002C241.835,87.176,241.776,86.944,241.661,86.76z"/>
	<path d="M254.446,86.856h-2.184v3.42h-1.056v-3.42h-2.244v3.42h-1.068v-3.42h-2.147v-0.864h8.699V86.856z M251.843,81.06
		c0.512,0.176,0.912,0.428,1.2,0.756s0.432,0.712,0.432,1.152c0,0.432-0.144,0.81-0.432,1.134c-0.288,0.324-0.688,0.574-1.2,0.75
		c-0.512,0.176-1.104,0.264-1.776,0.264c-0.664,0-1.252-0.088-1.764-0.264c-0.512-0.176-0.91-0.426-1.194-0.75
		c-0.284-0.324-0.426-0.702-0.426-1.134c0-0.44,0.142-0.824,0.426-1.152s0.683-0.58,1.194-0.756c0.512-0.176,1.1-0.264,1.764-0.264
		C250.738,80.796,251.331,80.884,251.843,81.06z M248.387,82.008c-0.416,0.232-0.624,0.552-0.624,0.96
		c0,0.4,0.208,0.716,0.624,0.948c0.416,0.232,0.976,0.348,1.68,0.348c0.712,0,1.278-0.116,1.698-0.348
		c0.42-0.232,0.63-0.548,0.63-0.948c0-0.408-0.21-0.728-0.63-0.96s-0.986-0.348-1.698-0.348
		C249.362,81.66,248.803,81.776,248.387,82.008z"/>
	<path d="M258.856,81.162c0.388,0.196,0.69,0.468,0.906,0.816c0.216,0.348,0.324,0.742,0.324,1.182c0,0.448-0.108,0.846-0.324,1.194
		c-0.216,0.348-0.519,0.618-0.906,0.81c-0.388,0.192-0.822,0.288-1.302,0.288c-0.48,0-0.914-0.096-1.303-0.288
		c-0.388-0.192-0.691-0.462-0.911-0.81c-0.221-0.348-0.33-0.746-0.33-1.194c0-0.44,0.109-0.834,0.33-1.182
		c0.22-0.348,0.523-0.62,0.911-0.816c0.389-0.196,0.822-0.294,1.303-0.294C258.034,80.868,258.469,80.966,258.856,81.162z
		 M256.456,82.152c-0.283,0.256-0.426,0.592-0.426,1.008s0.143,0.752,0.426,1.008c0.284,0.256,0.65,0.384,1.099,0.384
		c0.439,0,0.8-0.128,1.08-0.384c0.279-0.256,0.42-0.592,0.42-1.008s-0.141-0.752-0.42-1.008c-0.28-0.256-0.641-0.384-1.08-0.384
		C257.106,81.768,256.74,81.896,256.456,82.152z M257.494,87.276h4.188v-1.092h1.032v3.96h-6.229v-3.96h1.008V87.276z
		 M261.683,89.268v-1.152h-4.188v1.152H261.683z M262.715,85.716h-1.044v-5.304h1.044V85.716z"/>
	<path d="M274.798,85.92h-8.664v-0.864h8.664V85.92z M274.006,81.78h-2.844c0.04,0.312,0.204,0.602,0.492,0.87
		s0.666,0.494,1.134,0.678s0.99,0.304,1.566,0.36l-0.372,0.852c-0.84-0.096-1.572-0.313-2.196-0.654
		c-0.624-0.34-1.064-0.77-1.32-1.29c-0.256,0.52-0.695,0.95-1.319,1.29c-0.624,0.34-1.36,0.558-2.208,0.654l-0.349-0.852
		c0.568-0.056,1.086-0.176,1.555-0.36c0.468-0.184,0.844-0.41,1.128-0.678c0.283-0.268,0.445-0.558,0.485-0.87h-2.819v-0.876h7.067
		V81.78z M272.872,87.144c0.58,0.312,0.87,0.756,0.87,1.332c0,0.56-0.29,0.996-0.87,1.308s-1.386,0.468-2.418,0.468
		s-1.84-0.156-2.424-0.468s-0.876-0.748-0.876-1.308c0-0.576,0.292-1.02,0.876-1.332s1.392-0.468,2.424-0.468
		S272.292,86.832,272.872,87.144z M268.798,87.762c-0.384,0.164-0.576,0.402-0.576,0.714c0,0.304,0.192,0.536,0.576,0.696
		c0.385,0.16,0.937,0.24,1.656,0.24s1.272-0.08,1.656-0.24s0.576-0.392,0.576-0.696c0-0.312-0.192-0.55-0.576-0.714
		s-0.937-0.246-1.656-0.246S269.183,87.598,268.798,87.762z"/>
	<path d="M279.089,85.512c-0.692,1.192-1.79,2.172-3.295,2.94l-0.575-0.816c2.352-1.232,3.636-2.992,3.852-5.28h-3.384v-0.888h4.439
		C280.126,82.972,279.78,84.32,279.089,85.512z M282.622,84.336h1.452v0.888h-1.452v5.028h-1.044v-9.84h1.044V84.336z"/>
</g>
<g>
	<path d="M9.57,41.538c0.332,0.144,0.61,0.348,0.834,0.612h2.316v-1.38h1.056v5.628H12.72v-1.176h-2.34
		c-0.224,0.256-0.5,0.454-0.828,0.594c-0.328,0.14-0.688,0.21-1.08,0.21c-0.472,0-0.898-0.1-1.278-0.3
		c-0.38-0.2-0.678-0.478-0.894-0.834s-0.324-0.758-0.324-1.206c0-0.456,0.108-0.864,0.324-1.224c0.216-0.36,0.514-0.64,0.894-0.84
		c0.38-0.2,0.806-0.3,1.278-0.3C8.872,41.322,9.238,41.394,9.57,41.538z M7.398,42.636c-0.284,0.268-0.426,0.618-0.426,1.05
		c0,0.424,0.14,0.768,0.42,1.032c0.28,0.264,0.64,0.396,1.08,0.396c0.432,0,0.786-0.132,1.062-0.396
		c0.276-0.264,0.414-0.608,0.414-1.032c0-0.432-0.138-0.782-0.414-1.05c-0.276-0.268-0.63-0.402-1.062-0.402
		C8.04,42.233,7.682,42.368,7.398,42.636z M13.776,50.501H7.5V46.89h6.276V50.501z M8.52,49.638h4.224v-1.884H8.52V49.638z
		 M10.944,43.686c0,0.232-0.028,0.448-0.084,0.648h1.86v-1.332h-1.872C10.912,43.234,10.944,43.462,10.944,43.686z"/>
	<path d="M23.58,46.278h-8.664v-0.864h8.664V46.278z M22.788,42.138h-2.844c0.04,0.312,0.204,0.602,0.492,0.87
		s0.666,0.494,1.134,0.678c0.468,0.184,0.99,0.304,1.566,0.36l-0.372,0.852c-0.84-0.096-1.572-0.313-2.196-0.654
		c-0.624-0.34-1.064-0.77-1.32-1.29c-0.256,0.52-0.696,0.95-1.32,1.29c-0.624,0.34-1.36,0.558-2.208,0.654l-0.348-0.852
		c0.568-0.056,1.086-0.176,1.554-0.36c0.468-0.184,0.844-0.41,1.128-0.678c0.284-0.268,0.446-0.558,0.486-0.87h-2.82v-0.876h7.068
		V42.138z M21.654,47.501c0.58,0.312,0.87,0.756,0.87,1.332c0,0.56-0.29,0.996-0.87,1.308c-0.58,0.312-1.386,0.468-2.418,0.468
		c-1.032,0-1.84-0.156-2.424-0.468s-0.876-0.748-0.876-1.308c0-0.576,0.292-1.02,0.876-1.332s1.392-0.468,2.424-0.468
		C20.268,47.034,21.074,47.189,21.654,47.501z M17.58,48.12c-0.384,0.164-0.576,0.402-0.576,0.714c0,0.304,0.192,0.536,0.576,0.696
		c0.384,0.16,0.936,0.24,1.656,0.24c0.72,0,1.272-0.08,1.656-0.24s0.576-0.392,0.576-0.696c0-0.312-0.192-0.55-0.576-0.714
		s-0.936-0.246-1.656-0.246C18.516,47.874,17.964,47.956,17.58,48.12z"/>
	<path d="M32.676,47.214h-2.184v3.42h-1.056v-3.42h-2.244v3.42h-1.068v-3.42h-2.148V46.35h8.7V47.214z M30.072,41.417
		c0.512,0.176,0.912,0.428,1.2,0.756s0.432,0.712,0.432,1.152c0,0.432-0.144,0.81-0.432,1.134c-0.288,0.324-0.688,0.574-1.2,0.75
		c-0.512,0.176-1.104,0.264-1.776,0.264c-0.664,0-1.252-0.088-1.764-0.264c-0.512-0.176-0.91-0.426-1.194-0.75
		c-0.284-0.324-0.426-0.702-0.426-1.134c0-0.44,0.142-0.824,0.426-1.152c0.284-0.328,0.682-0.58,1.194-0.756
		c0.512-0.176,1.1-0.264,1.764-0.264C28.968,41.154,29.56,41.242,30.072,41.417z M26.616,42.366
		c-0.416,0.232-0.624,0.552-0.624,0.96c0,0.4,0.208,0.716,0.624,0.948c0.416,0.232,0.976,0.348,1.68,0.348
		c0.712,0,1.278-0.116,1.698-0.348c0.42-0.232,0.63-0.548,0.63-0.948c0-0.408-0.21-0.728-0.63-0.96
		c-0.42-0.232-0.986-0.348-1.698-0.348C27.592,42.018,27.032,42.134,26.616,42.366z"/>
	<path d="M34.464,42.521h2.424v-1.32h1.032v4.296h-4.5v-4.296h1.044V42.521z M40.548,48.762h-5.124v0.924h5.436v0.852h-6.456v-2.556
		h5.1v-0.864H34.38v-0.84h6.168V48.762z M36.888,44.646V43.35h-2.424v1.296H36.888z M40.548,42.822h1.356v0.876h-1.356v2.148h-1.056
		V40.77h1.056V42.822z"/>
	<path d="M50.796,45.702H46.98v0.84h2.724v2.328h-5.496v0.84h5.76v0.828h-6.792v-2.436h5.496v-0.744h-5.52v-0.816h2.772v-0.84
		h-3.792V44.85h8.664V45.702z M49.68,44.129h-6.444v-3.036h6.444V44.129z M44.268,43.29h4.368v-1.344h-4.368V43.29z"/>
	<path d="M56.808,42.174h-2.064c0.008,0.6,0.222,1.146,0.642,1.638c0.42,0.492,0.994,0.846,1.722,1.062l-0.492,0.84
		c-0.56-0.168-1.042-0.426-1.446-0.774c-0.404-0.348-0.718-0.762-0.942-1.242c-0.216,0.528-0.53,0.982-0.942,1.362
		s-0.91,0.666-1.494,0.858l-0.504-0.852c0.736-0.232,1.316-0.612,1.74-1.14c0.424-0.528,0.64-1.112,0.648-1.752h-2.1v-0.876h5.232
		V42.174z M59.1,48.773h-5.232v0.924h5.52v0.84H52.86v-2.532h5.196v-0.864h-5.232v-0.828H59.1V48.773z M59.088,45.857h-1.044V40.77
		h1.044V45.857z"/>
	<path d="M66.467,44.55c0.408,0.544,0.968,0.94,1.68,1.188l-0.576,0.816c-0.52-0.192-0.968-0.464-1.344-0.816
		c-0.376-0.352-0.672-0.772-0.888-1.26c-0.216,0.544-0.524,1.016-0.924,1.416c-0.4,0.4-0.876,0.704-1.428,0.912l-0.54-0.852
		c0.728-0.264,1.302-0.69,1.722-1.278c0.42-0.588,0.63-1.23,0.63-1.926v-0.288h-2.028v-0.864h5.1v0.864h-2.016v0.288
		C65.855,43.406,66.06,44.006,66.467,44.55z M70.379,50.43h-6.432v-3.108h1.044v2.232h5.388V50.43z M69.983,43.746h1.356v0.888
		h-1.356v3.36h-1.056v-7.212h1.056V43.746z"/>
	<path d="M80.267,47.466h-2.172v3.168h-1.056v-3.168h-2.256v3.168h-1.032v-3.168h-2.184v-0.852h8.7V47.466z M79.235,43.793h-5.556
		v1.056h5.76v0.876h-6.816v-2.748h5.532v-0.972h-5.556v-0.876h6.636V43.793z"/>
</g>
<g>
	<path d="M13.086,84.923c0.212,0.536,0.506,1.013,0.882,1.428c0.376,0.416,0.804,0.732,1.284,0.948L14.7,88.152
		c-0.56-0.256-1.052-0.639-1.476-1.146c-0.424-0.508-0.748-1.09-0.972-1.746c-0.216,0.704-0.536,1.334-0.96,1.891
		c-0.424,0.556-0.908,0.974-1.452,1.254L9.228,87.54c0.472-0.224,0.896-0.562,1.272-1.014c0.375-0.452,0.67-0.96,0.882-1.524
		s0.318-1.126,0.318-1.686v-1.021H9.552v-0.888h5.376v0.888h-2.16v1.021C12.768,83.851,12.874,84.387,13.086,84.923z M17.136,90.276
		H16.08v-9.864h1.056V90.276z"/>
	<path d="M27.024,86.183h-8.688v-0.876h3.804v-1.428h1.044v1.428h3.84V86.183z M23.628,82.145c0.288,0.364,0.682,0.673,1.182,0.925
		s1.058,0.418,1.674,0.498l-0.396,0.852c-0.76-0.12-1.446-0.362-2.058-0.726c-0.612-0.364-1.07-0.811-1.374-1.338
		c-0.304,0.535-0.76,0.983-1.368,1.344c-0.608,0.359-1.296,0.6-2.064,0.72l-0.396-0.852c0.608-0.08,1.164-0.246,1.668-0.498
		s0.902-0.562,1.194-0.931c0.292-0.367,0.438-0.756,0.438-1.164V80.58h1.068v0.396C23.196,81.391,23.34,81.782,23.628,82.145z
		 M25.944,90.276h-1.068v-2.389h-5.568v-0.84h6.636V90.276z"/>
	<path d="M31.434,83.921c0.404,0.548,0.954,0.946,1.65,1.194l-0.516,0.84c-0.52-0.184-0.974-0.458-1.362-0.822
		c-0.388-0.363-0.69-0.794-0.906-1.29c-0.208,0.544-0.514,1.019-0.918,1.422c-0.404,0.404-0.886,0.706-1.446,0.906l-0.528-0.852
		c0.72-0.256,1.29-0.677,1.71-1.261c0.42-0.583,0.63-1.216,0.63-1.896v-0.24h-2.04v-0.864h5.136v0.864h-2.016v0.229
		C30.828,82.784,31.03,83.374,31.434,83.921z M35.34,90.276h-1.068v-2.604h-5.388v-0.876h6.456V90.276z M35.34,86.303h-1.068v-2.496
		h-1.716v-0.888h1.716v-2.508h1.068V86.303z"/>
	<path d="M43.56,82.091h2.028v-1.668h1.056v7.188h-1.056v-2.544H43.56v0.863h-4.416v-4.668h4.416V82.091z M40.164,85.08h2.376
		v-2.952h-2.376V85.08z M46.86,90.072h-6.444v-3.108h1.056v2.232h5.388V90.072z M45.588,84.204v-1.236H43.56v1.236H45.588z"/>
	<path d="M55.716,86.232H54.66v-1.345h-2.316c-0.224,0.272-0.502,0.484-0.834,0.637c-0.332,0.151-0.698,0.228-1.098,0.228
		c-0.472,0-0.898-0.104-1.278-0.312s-0.678-0.494-0.894-0.858s-0.324-0.778-0.324-1.242c0-0.456,0.108-0.864,0.324-1.224
		c0.216-0.36,0.514-0.643,0.894-0.847c0.38-0.203,0.806-0.306,1.278-0.306c0.392,0,0.756,0.074,1.092,0.222
		c0.336,0.148,0.616,0.358,0.84,0.631h2.316v-1.404h1.056V86.232z M49.338,82.29c-0.284,0.268-0.426,0.618-0.426,1.05
		c0,0.448,0.14,0.811,0.42,1.086c0.28,0.276,0.64,0.414,1.08,0.414c0.424,0,0.776-0.14,1.056-0.42c0.28-0.28,0.42-0.64,0.42-1.08
		c0-0.424-0.142-0.771-0.426-1.044c-0.284-0.271-0.634-0.408-1.05-0.408C49.98,81.887,49.622,82.022,49.338,82.29z M55.716,90.276
		H54.66v-2.677h-5.4v-0.852h6.456V90.276z M54.66,84.011v-1.319H52.8c0.056,0.199,0.084,0.416,0.084,0.647
		c0,0.248-0.028,0.473-0.084,0.672H54.66z"/>
	<path d="M62.724,84.875c0.2,0.528,0.484,1.006,0.852,1.434c0.368,0.429,0.788,0.759,1.26,0.99l-0.588,0.853
		c-0.52-0.256-0.984-0.643-1.392-1.158c-0.408-0.517-0.72-1.103-0.936-1.758c-0.224,0.712-0.546,1.348-0.966,1.907
		c-0.42,0.561-0.898,0.98-1.434,1.261l-0.6-0.864c0.472-0.232,0.894-0.576,1.266-1.032s0.664-0.966,0.876-1.53
		c0.212-0.563,0.318-1.117,0.318-1.661v-1.021h-2.124v-0.888h5.208v0.888h-2.04v1.021C62.424,83.828,62.524,84.347,62.724,84.875z
		 M66.504,84.311h1.5v0.912h-1.5v5.053H65.46v-9.864h1.044V84.311z"/>
	<path d="M75.768,81.564c0,0.527-0.012,1.012-0.036,1.451c-0.024,0.44-0.088,0.94-0.192,1.5h1.308v0.876H68.16v-0.876h6.324
		c0.16-0.88,0.24-1.804,0.24-2.771h-5.472v-0.876h6.516V81.564z M75.816,90.288H74.76v-2.688h-5.676v-0.852h6.732V90.288z"/>
</g>
<g>
	<path d="M5.04,121.733h2.028v-1.668h1.056v7.188H7.068v-2.544H5.04v0.864H0.624v-4.668H5.04V121.733z M1.644,124.721H4.02v-2.952
		H1.644V124.721z M8.34,129.713H1.896v-3.108h1.056v2.232H8.34V129.713z M7.068,123.845v-1.236H5.04v1.236H7.068z"/>
	<path d="M17.196,125.873H16.14v-1.344h-2.316c-0.224,0.272-0.502,0.484-0.834,0.636s-0.698,0.228-1.098,0.228
		c-0.472,0-0.898-0.104-1.278-0.312s-0.678-0.494-0.894-0.858c-0.216-0.364-0.324-0.778-0.324-1.242
		c0-0.456,0.108-0.864,0.324-1.224s0.514-0.642,0.894-0.846c0.38-0.204,0.806-0.306,1.278-0.306c0.392,0,0.756,0.074,1.092,0.222
		c0.336,0.148,0.616,0.358,0.84,0.63h2.316v-1.404h1.056V125.873z M10.818,121.931c-0.284,0.268-0.426,0.618-0.426,1.05
		c0,0.448,0.14,0.81,0.42,1.086c0.28,0.276,0.64,0.414,1.08,0.414c0.424,0,0.776-0.14,1.056-0.42c0.28-0.28,0.42-0.64,0.42-1.08
		c0-0.424-0.142-0.772-0.426-1.044c-0.284-0.272-0.634-0.408-1.05-0.408C11.46,121.529,11.102,121.663,10.818,121.931z
		 M17.196,129.917H16.14v-2.676h-5.4v-0.852h6.456V129.917z M16.14,123.653v-1.32h-1.86c0.056,0.2,0.084,0.416,0.084,0.648
		c0,0.248-0.028,0.472-0.084,0.672H16.14z"/>
	<path d="M21.726,125.093c0.324,0.744,0.794,1.312,1.41,1.704l-0.588,0.828c-0.424-0.264-0.788-0.624-1.092-1.08
		c-0.304-0.456-0.54-0.972-0.708-1.548c-0.176,0.632-0.426,1.196-0.75,1.692s-0.71,0.88-1.158,1.152l-0.636-0.792
		c0.648-0.408,1.148-1.002,1.5-1.782c0.352-0.78,0.528-1.614,0.528-2.502v-1.8h1.008v1.764
		C21.24,123.561,21.402,124.349,21.726,125.093z M24.54,129.437h-0.984v-5.04h-1.452v-0.888h1.452v-3.252h0.984V129.437z
		 M26.508,129.917h-0.996v-9.864h0.996V129.917z"/>
	<path d="M36.096,128.741h-8.688v-0.912H31.2v-2.064h-3.024v-0.852h1.392v-3.072H28.14v-0.876h7.176v0.876h-1.428v3.072h1.404v0.852
		h-3.048v2.064h3.852V128.741z M32.856,124.913v-3.072H30.6v3.072H32.856z"/>
	<path d="M39.804,126.875c1.016-0.044,1.98-0.134,2.892-0.27l0.096,0.792c-0.944,0.184-1.904,0.302-2.88,0.354
		c-0.976,0.052-2.064,0.078-3.264,0.078l-0.12-0.888C37.696,126.941,38.788,126.919,39.804,126.875z M40.896,121.061
		c0.392,0.2,0.7,0.478,0.924,0.834c0.224,0.356,0.336,0.762,0.336,1.218s-0.112,0.862-0.336,1.218
		c-0.224,0.356-0.532,0.634-0.924,0.834c-0.392,0.2-0.836,0.3-1.332,0.3c-0.488,0-0.93-0.1-1.326-0.3
		c-0.396-0.2-0.708-0.478-0.936-0.834s-0.342-0.762-0.342-1.218s0.114-0.862,0.342-1.218s0.54-0.634,0.936-0.834
		c0.396-0.2,0.838-0.3,1.326-0.3C40.06,120.761,40.504,120.861,40.896,121.061z M38.448,122.081
		c-0.296,0.264-0.444,0.608-0.444,1.032c0,0.424,0.148,0.768,0.444,1.032c0.296,0.264,0.667,0.396,1.116,0.396
		c0.456,0,0.832-0.132,1.128-0.396c0.296-0.264,0.444-0.608,0.444-1.032c0-0.424-0.148-0.768-0.444-1.032
		c-0.296-0.264-0.672-0.396-1.128-0.396C39.116,121.685,38.744,121.817,38.448,122.081z M44.34,129.929h-1.032v-9.876h1.032V129.929
		z"/>
	<path d="M50.652,126.881c1.176-0.056,2.164-0.136,2.964-0.24l0.06,0.804c-1.512,0.248-3.468,0.372-5.868,0.372l-0.108-0.876
		l1.92-0.024v-2.988h1.032V126.881z M53.088,121.733c0,0.632-0.016,1.242-0.048,1.83c-0.032,0.588-0.112,1.266-0.24,2.034
		l-1.02-0.096c0.176-1.144,0.264-2.316,0.264-3.516h-3.828v-0.876h4.872V121.733z M55.2,124.121h1.428v0.912H55.2v4.884h-1.056
		v-9.864H55.2V124.121z"/>
	<path d="M60.881,120.971c0.388,0.196,0.69,0.468,0.906,0.816c0.216,0.348,0.324,0.746,0.324,1.194c0,0.456-0.108,0.86-0.324,1.212
		s-0.518,0.626-0.906,0.822c-0.388,0.196-0.822,0.294-1.302,0.294c-0.488,0-0.924-0.098-1.308-0.294
		c-0.384-0.196-0.686-0.47-0.906-0.822c-0.22-0.352-0.33-0.756-0.33-1.212c0-0.448,0.11-0.846,0.33-1.194
		c0.22-0.348,0.524-0.62,0.912-0.816c0.388-0.196,0.822-0.294,1.302-0.294S60.494,120.775,60.881,120.971z M58.481,121.955
		c-0.284,0.26-0.426,0.602-0.426,1.026s0.142,0.766,0.426,1.026c0.284,0.26,0.65,0.39,1.098,0.39c0.44,0,0.8-0.13,1.08-0.39
		c0.28-0.26,0.42-0.602,0.42-1.026s-0.14-0.766-0.42-1.026c-0.28-0.26-0.64-0.39-1.08-0.39
		C59.131,121.565,58.766,121.695,58.481,121.955z M63.912,126.605c0.576,0.336,0.864,0.8,0.864,1.392
		c0,0.592-0.288,1.056-0.864,1.392s-1.364,0.504-2.364,0.504c-1.016,0-1.81-0.167-2.382-0.498c-0.572-0.332-0.858-0.798-0.858-1.398
		c0-0.6,0.286-1.066,0.858-1.398c0.572-0.332,1.366-0.498,2.382-0.498C62.547,126.101,63.335,126.269,63.912,126.605z
		 M59.928,127.223c-0.376,0.18-0.564,0.438-0.564,0.774c0,0.344,0.19,0.606,0.57,0.786c0.38,0.18,0.918,0.27,1.614,0.27
		c0.688,0,1.224-0.092,1.608-0.276c0.384-0.184,0.576-0.444,0.576-0.78c0-0.336-0.192-0.594-0.576-0.774
		c-0.384-0.18-0.92-0.27-1.608-0.27C60.844,126.953,60.304,127.043,59.928,127.223z M64.74,125.885h-1.044v-5.82h1.044V125.885z"/>
	<path d="M70.559,124.889v-0.54c-0.552-0.056-0.984-0.196-1.296-0.42c-0.312-0.224-0.468-0.512-0.468-0.864
		c0-0.4,0.206-0.714,0.618-0.942s0.962-0.342,1.65-0.342c0.696,0,1.25,0.114,1.662,0.342s0.618,0.542,0.618,0.942
		c0,0.352-0.156,0.64-0.468,0.864c-0.312,0.224-0.736,0.364-1.272,0.42v0.504c0.896-0.04,1.724-0.112,2.484-0.216l0.06,0.684
		c-0.896,0.152-1.818,0.25-2.766,0.294c-0.948,0.044-2.006,0.066-3.174,0.066l-0.108-0.768
		C69.139,124.913,69.959,124.905,70.559,124.889z M73.812,121.505h-5.484v-0.732h2.232v-0.792h1.044v0.792h2.208V121.505z
		 M75.659,128.345h-5.244v0.732h5.58v0.744h-6.612v-2.148h5.232v-0.66h-5.256v-0.72h6.3V128.345z M70.139,122.633
		c-0.224,0.104-0.336,0.248-0.336,0.432c0,0.192,0.112,0.342,0.336,0.45c0.224,0.108,0.532,0.162,0.924,0.162
		c0.4,0,0.712-0.054,0.936-0.162c0.224-0.108,0.336-0.258,0.336-0.45c0-0.184-0.112-0.328-0.336-0.432
		c-0.224-0.104-0.536-0.156-0.936-0.156C70.671,122.477,70.363,122.529,70.139,122.633z M75.659,122.513h1.32v0.888h-1.32v2.472
		h-1.056v-5.82h1.056V122.513z"/>
	<path d="M81.233,123.419c0.404,0.564,0.958,0.962,1.662,1.194l-0.552,0.84c-0.521-0.192-0.968-0.47-1.344-0.834
		c-0.376-0.364-0.668-0.79-0.876-1.278c-0.208,0.568-0.514,1.058-0.918,1.47c-0.404,0.412-0.894,0.726-1.47,0.942l-0.552-0.864
		c0.752-0.256,1.338-0.686,1.758-1.29c0.42-0.604,0.63-1.282,0.63-2.034v-0.972h1.056v0.936
		C80.627,122.225,80.83,122.855,81.233,123.419z M84.324,126.647c0.568,0.332,0.852,0.794,0.852,1.386
		c0,0.592-0.284,1.05-0.852,1.374c-0.568,0.324-1.356,0.486-2.364,0.486c-1,0-1.786-0.162-2.358-0.486
		c-0.572-0.324-0.858-0.782-0.858-1.374c0-0.592,0.286-1.054,0.858-1.386c0.572-0.332,1.358-0.498,2.358-0.498
		C82.968,126.149,83.755,126.315,84.324,126.647z M80.352,127.265c-0.384,0.184-0.576,0.44-0.576,0.768
		c0,0.32,0.192,0.57,0.576,0.75c0.384,0.18,0.92,0.27,1.608,0.27s1.224-0.09,1.608-0.27c0.384-0.18,0.576-0.43,0.576-0.75
		c0-0.328-0.192-0.584-0.576-0.768c-0.384-0.184-0.92-0.276-1.608-0.276S80.735,127.081,80.352,127.265z M85.164,125.873h-1.068
		v-2.94h-1.968v-0.888h1.968v-1.992h1.068V125.873z"/>
</g>
<g>
	<path fill="#BE1E2D" d="M19.728,165.191h-4.452v-4.62h4.452V165.191z M16.308,164.327h2.412v-2.904h-2.412V164.327z M22.8,169.355
		h-6.432v-3.132H17.4v2.256h5.4V169.355z M22.404,162.647h1.356v0.888h-1.356v3.384h-1.056v-7.212h1.056V162.647z"/>
	<path fill="#BE1E2D" d="M27.99,163.061c0.404,0.564,0.958,0.962,1.662,1.194l-0.552,0.84c-0.521-0.192-0.968-0.47-1.344-0.834
		c-0.376-0.364-0.668-0.79-0.876-1.278c-0.208,0.568-0.514,1.058-0.918,1.47c-0.404,0.412-0.894,0.726-1.47,0.942l-0.552-0.864
		c0.752-0.256,1.338-0.686,1.758-1.29c0.42-0.604,0.63-1.282,0.63-2.034v-0.972h1.056v0.936
		C27.384,161.867,27.586,162.497,27.99,163.061z M31.08,166.289c0.568,0.332,0.852,0.794,0.852,1.386
		c0,0.592-0.284,1.05-0.852,1.374c-0.568,0.324-1.356,0.486-2.364,0.486c-1,0-1.786-0.162-2.358-0.486
		c-0.572-0.324-0.858-0.782-0.858-1.374c0-0.592,0.286-1.054,0.858-1.386c0.572-0.332,1.358-0.498,2.358-0.498
		C29.724,165.791,30.512,165.957,31.08,166.289z M27.108,166.907c-0.384,0.184-0.576,0.44-0.576,0.768c0,0.32,0.192,0.57,0.576,0.75
		c0.384,0.18,0.92,0.27,1.608,0.27s1.224-0.09,1.608-0.27c0.384-0.18,0.576-0.43,0.576-0.75c0-0.328-0.192-0.584-0.576-0.768
		c-0.384-0.184-0.92-0.276-1.608-0.276S27.492,166.723,27.108,166.907z M31.92,165.515h-1.068v-2.94h-1.968v-0.888h1.968v-1.992
		h1.068V165.515z"/>
	<path fill="#BE1E2D" d="M36.786,160.463c0.332,0.144,0.61,0.348,0.834,0.612h2.316v-1.38h1.056v5.628h-1.056v-1.176h-2.34
		c-0.224,0.256-0.5,0.454-0.828,0.594c-0.328,0.14-0.688,0.21-1.08,0.21c-0.472,0-0.898-0.1-1.278-0.3
		c-0.38-0.2-0.678-0.478-0.894-0.834s-0.324-0.758-0.324-1.206c0-0.456,0.108-0.864,0.324-1.224c0.216-0.36,0.514-0.64,0.894-0.84
		c0.38-0.2,0.806-0.3,1.278-0.3C36.088,160.247,36.454,160.319,36.786,160.463z M34.614,161.561
		c-0.284,0.268-0.426,0.618-0.426,1.05c0,0.424,0.14,0.768,0.42,1.032c0.28,0.264,0.64,0.396,1.08,0.396
		c0.432,0,0.786-0.132,1.062-0.396c0.276-0.264,0.414-0.608,0.414-1.032c0-0.432-0.138-0.782-0.414-1.05
		c-0.276-0.268-0.63-0.402-1.062-0.402C35.256,161.159,34.898,161.293,34.614,161.561z M40.992,169.427h-6.276v-3.612h6.276V169.427
		z M35.736,168.563h4.224v-1.884h-4.224V168.563z M38.16,162.611c0,0.232-0.028,0.448-0.084,0.648h1.86v-1.332h-1.872
		C38.128,162.159,38.16,162.387,38.16,162.611z"/>
	<path fill="#BE1E2D" d="M50.796,165.203h-8.664v-0.864h8.664V165.203z M50.004,161.063H47.16c0.04,0.312,0.204,0.602,0.492,0.87
		s0.666,0.494,1.134,0.678c0.468,0.184,0.99,0.304,1.566,0.36l-0.372,0.852c-0.84-0.096-1.572-0.313-2.196-0.654
		c-0.624-0.34-1.064-0.77-1.32-1.29c-0.256,0.52-0.696,0.95-1.32,1.29c-0.624,0.34-1.36,0.558-2.208,0.654l-0.348-0.852
		c0.568-0.056,1.086-0.176,1.554-0.36c0.468-0.184,0.844-0.41,1.128-0.678c0.284-0.268,0.446-0.558,0.486-0.87h-2.82v-0.876h7.068
		V161.063z M48.87,166.427c0.58,0.312,0.87,0.756,0.87,1.332c0,0.56-0.29,0.996-0.87,1.308c-0.58,0.312-1.386,0.468-2.418,0.468
		c-1.032,0-1.84-0.156-2.424-0.468s-0.876-0.748-0.876-1.308c0-0.576,0.292-1.02,0.876-1.332s1.392-0.468,2.424-0.468
		C47.484,165.959,48.29,166.115,48.87,166.427z M44.796,167.045c-0.384,0.164-0.576,0.402-0.576,0.714
		c0,0.304,0.192,0.536,0.576,0.696c0.384,0.16,0.936,0.24,1.656,0.24c0.72,0,1.272-0.08,1.656-0.24s0.576-0.392,0.576-0.696
		c0-0.312-0.192-0.55-0.576-0.714s-0.936-0.246-1.656-0.246C45.732,166.799,45.18,166.881,44.796,167.045z"/>
	<path fill="#BE1E2D" d="M57.348,163.073c0.408,0.54,0.96,0.93,1.656,1.17l-0.552,0.852c-0.512-0.192-0.958-0.47-1.338-0.834
		c-0.38-0.364-0.674-0.786-0.882-1.266c-0.208,0.552-0.51,1.032-0.906,1.44c-0.396,0.408-0.866,0.716-1.41,0.924l-0.54-0.852
		c0.728-0.264,1.296-0.698,1.704-1.302c0.408-0.604,0.612-1.278,0.612-2.022v-0.96h1.044v1.056
		C56.736,161.935,56.939,162.533,57.348,163.073z M60.162,166.361c0.564,0.324,0.846,0.77,0.846,1.338
		c0,0.584-0.282,1.036-0.846,1.356c-0.564,0.32-1.338,0.48-2.322,0.48c-1,0-1.782-0.16-2.346-0.48
		c-0.564-0.32-0.846-0.771-0.846-1.356c0-0.568,0.284-1.014,0.852-1.338c0.568-0.324,1.348-0.486,2.34-0.486
		C58.824,165.875,59.598,166.037,60.162,166.361z M56.256,166.973c-0.376,0.172-0.564,0.414-0.564,0.726
		c0,0.32,0.188,0.566,0.564,0.738c0.375,0.172,0.904,0.258,1.584,0.258c0.68,0,1.206-0.086,1.578-0.258s0.558-0.418,0.558-0.738
		c0-0.312-0.186-0.554-0.558-0.726c-0.372-0.172-0.898-0.258-1.578-0.258C57.16,166.715,56.631,166.801,56.256,166.973z
		 M60.912,162.167h1.356v0.888h-1.356v2.58h-1.056v-5.94h1.056V162.167z"/>
	<path fill="#BE1E2D" d="M66.672,161.651h-2.808v1.74h2.652v0.84h-2.652v2.052c0.672,0,1.236-0.014,1.692-0.042
		c0.456-0.028,0.924-0.085,1.404-0.174l0.084,0.876c-0.536,0.096-1.062,0.162-1.578,0.198c-0.516,0.036-1.17,0.054-1.962,0.054
		H62.88v-6.396h3.792V161.651z M70.68,169.559h-0.996v-5.076H68.58v4.596h-0.996v-9.18h0.996v3.708h1.104v-3.912h0.996V169.559z"/>
</g>
<g>
	<g>
		<line fill="none" stroke="#000000" stroke-miterlimit="10" x1="85.896" y1="4.776" x2="145.456" y2="4.776"/>
		<g>
			<polygon points="144.435,8.267 150.479,4.776 144.435,1.286 			"/>
		</g>
	</g>
</g>
<g>
	<g>
		<line fill="none" stroke="#000000" stroke-miterlimit="10" x1="45.236" y1="17.971" x2="45.236" y2="29.615"/>
		<g>
			<polygon points="41.745,28.593 45.236,34.638 48.726,28.593 			"/>
		</g>
	</g>
</g>
<g>
	<g>
		<line fill="none" stroke="#000000" stroke-miterlimit="10" x1="195.822" y1="17.971" x2="195.822" y2="29.615"/>
		<g>
			<polygon points="192.332,28.593 195.822,34.638 199.313,28.593 			"/>
		</g>
	</g>
</g>
<g>
	<g>
		<line fill="none" stroke="#000000" stroke-miterlimit="10" x1="195.822" y1="58.616" x2="195.822" y2="70.26"/>
		<g>
			<polygon points="192.332,69.238 195.822,75.283 199.313,69.238 			"/>
		</g>
	</g>
</g>
<g>
	<g>
		<line fill="none" stroke="#000000" stroke-miterlimit="10" x1="45.236" y1="56.293" x2="45.236" y2="67.937"/>
		<g>
			<polygon points="41.745,66.916 45.236,72.96 48.726,66.916 			"/>
		</g>
	</g>
</g>
<g>
	<g>
		<line fill="none" stroke="#000000" stroke-miterlimit="10" x1="45.236" y1="96.552" x2="45.236" y2="108.195"/>
		<g>
			<polygon points="41.745,107.174 45.236,113.218 48.726,107.174 			"/>
		</g>
	</g>
</g>
<g>
	<g>
		<line fill="none" stroke="#000000" stroke-miterlimit="10" x1="45.236" y1="137.971" x2="45.236" y2="149.615"/>
		<g>
			<polygon points="41.745,148.593 45.236,154.638 48.726,148.593 			"/>
		</g>
	</g>
</g>
<g>
	<g>
		<line fill="none" stroke="#000000" stroke-miterlimit="10" x1="159.435" y1="83.691" x2="88.841" y2="48.758"/>
		<g>
			<polygon points="91.304,46.082 84.339,46.53 88.208,52.339 			"/>
		</g>
	</g>
</g>
<g>
	<path fill="#1A1A1A" d="M244.239,45.191h-1.321c-0.056-0.803-0.353-1.541-0.822-2.146l1.078-1.025
		c0.199-0.189,0.207-0.504,0.018-0.704c-0.189-0.199-0.504-0.207-0.704-0.018l-1.092,1.038c-0.379-0.299-0.813-0.533-1.285-0.686
		v-1.43c0-0.275-0.223-0.498-0.498-0.498s-0.498,0.223-0.498,0.498v1.24c-0.096-0.007-0.192-0.014-0.29-0.014h-2.147V40.22
		c0-0.275-0.223-0.498-0.498-0.498s-0.498,0.223-0.498,0.498v1.225h-2.281v-1.252c0-0.275-0.223-0.498-0.498-0.498
		c-0.275,0-0.498,0.223-0.498,0.498v1.252h-2.468V40.22c0-0.275-0.223-0.498-0.498-0.498s-0.498,0.223-0.498,0.498v1.331
		c-0.652,0.147-1.244,0.446-1.737,0.857l-0.972-0.924c-0.199-0.189-0.514-0.182-0.704,0.018c-0.189,0.199-0.181,0.514,0.018,0.704
		l0.978,0.93c-0.429,0.588-0.699,1.292-0.753,2.055h-1.321c-0.275,0-0.498,0.223-0.498,0.498s0.223,0.498,0.498,0.498h1.376
		c0.135,0.728,0.469,1.387,0.947,1.923l-1.095,0.974c-0.206,0.183-0.224,0.497-0.041,0.703c0.098,0.111,0.235,0.167,0.372,0.167
		c0.118,0,0.236-0.042,0.331-0.126l1.186-1.055c0.421,0.287,0.9,0.497,1.415,0.614v1.349c0,0.275,0.223,0.498,0.498,0.498
		s0.498-0.223,0.498-0.498v-1.242h2.406v1.242c0,0.275,0.223,0.498,0.498,0.498c0.275,0,0.498-0.223,0.498-0.498v-1.242h2.468v1.242
		c0,0.275,0.223,0.498,0.498,0.498s0.498-0.223,0.498-0.498v-1.242h2.022c0.14,0,0.278-0.007,0.415-0.021v1.263
		c0,0.275,0.223,0.498,0.498,0.498c0.275,0,0.498-0.223,0.498-0.498v-1.492c0.473-0.17,0.904-0.421,1.278-0.739l1.209,1.075
		c0.095,0.084,0.213,0.126,0.331,0.126c0.137,0,0.274-0.056,0.372-0.167c0.183-0.205,0.164-0.52-0.041-0.703l-1.196-1.064
		c0.333-0.466,0.567-1.003,0.675-1.584h1.376c0.275,0,0.498-0.223,0.498-0.498S244.514,45.191,244.239,45.191z M238.826,48.248
		h-8.96c-1.578,0-2.862-1.247-2.862-2.779c0-1.532,1.284-2.779,2.862-2.779h8.96c1.578,0,2.862,1.247,2.862,2.779
		C241.688,47.001,240.404,48.248,238.826,48.248z"/>
	<path fill="#1A1A1A" d="M229.503,45.655c-0.686,0-1.244-0.558-1.244-1.244c0-0.686,0.558-1.244,1.244-1.244
		c0.686,0,1.244,0.558,1.244,1.244C230.748,45.097,230.189,45.655,229.503,45.655z M229.503,43.664
		c-0.412,0-0.747,0.335-0.747,0.747c0,0.412,0.335,0.747,0.747,0.747c0.412,0,0.747-0.335,0.747-0.747
		C230.25,43.999,229.915,43.664,229.503,43.664z"/>
	<path fill="#1A1A1A" d="M237.94,47.729c-0.686,0-1.244-0.558-1.244-1.244c0-0.686,0.558-1.244,1.244-1.244
		c0.686,0,1.244,0.558,1.244,1.244C239.184,47.171,238.626,47.729,237.94,47.729z M237.94,45.738c-0.412,0-0.747,0.335-0.747,0.747
		c0,0.412,0.335,0.747,0.747,0.747s0.747-0.335,0.747-0.747C238.687,46.073,238.352,45.738,237.94,45.738z"/>
	<path fill="#1A1A1A" d="M234.346,47.181c-0.686,0-1.244-0.558-1.244-1.244c0-0.686,0.558-1.244,1.244-1.244
		c0.686,0,1.244,0.558,1.244,1.244C235.59,46.622,235.032,47.181,234.346,47.181z M234.346,45.19c-0.412,0-0.747,0.335-0.747,0.747
		c0,0.412,0.335,0.747,0.747,0.747c0.412,0,0.747-0.335,0.747-0.747C235.093,45.525,234.758,45.19,234.346,45.19z"/>
	<path fill="#1A1A1A" d="M231.513,47.181c-0.446,0-0.809-0.363-0.809-0.809c0-0.446,0.363-0.809,0.809-0.809
		c0.446,0,0.809,0.363,0.809,0.809C232.322,46.818,231.959,47.181,231.513,47.181z M231.513,46.06c-0.172,0-0.311,0.14-0.311,0.311
		c0,0.172,0.14,0.311,0.311,0.311c0.172,0,0.311-0.14,0.311-0.311C231.824,46.2,231.685,46.06,231.513,46.06z"/>
	<path fill="#1A1A1A" d="M232.344,44.722c-0.446,0-0.809-0.363-0.809-0.809c0-0.446,0.363-0.809,0.809-0.809
		c0.446,0,0.809,0.363,0.809,0.809C233.153,44.359,232.79,44.722,232.344,44.722z M232.344,43.602c-0.172,0-0.311,0.14-0.311,0.311
		c0,0.172,0.14,0.311,0.311,0.311c0.172,0,0.311-0.14,0.311-0.311C232.656,43.741,232.516,43.602,232.344,43.602z"/>
	<path fill="#1A1A1A" d="M239.178,44.66c-0.446,0-0.809-0.363-0.809-0.809c0-0.446,0.363-0.809,0.809-0.809
		c0.446,0,0.809,0.363,0.809,0.809C239.987,44.297,239.624,44.66,239.178,44.66z M239.178,43.54c-0.172,0-0.311,0.14-0.311,0.311
		c0,0.172,0.14,0.311,0.311,0.311c0.172,0,0.311-0.14,0.311-0.311C239.49,43.679,239.35,43.54,239.178,43.54z"/>
	<path fill="#1A1A1A" d="M240.373,46.362c-0.371,0-0.673-0.302-0.673-0.673s0.302-0.673,0.673-0.673s0.673,0.302,0.673,0.673
		S240.745,46.362,240.373,46.362z M240.373,45.513c-0.097,0-0.175,0.079-0.175,0.175s0.079,0.175,0.175,0.175
		c0.097,0,0.176-0.079,0.176-0.175S240.47,45.513,240.373,45.513z"/>
	<path fill="#1A1A1A" d="M228.721,47.469c-0.371,0-0.673-0.302-0.673-0.673s0.302-0.673,0.673-0.673s0.673,0.302,0.673,0.673
		S229.092,47.469,228.721,47.469z M228.721,46.621c-0.097,0-0.176,0.079-0.176,0.175s0.079,0.175,0.176,0.175
		c0.097,0,0.175-0.079,0.175-0.175S228.817,46.621,228.721,46.621z"/>
	<path fill="#1A1A1A" d="M236.384,45.033c-0.446,0-0.809-0.363-0.809-0.809c0-0.446,0.363-0.809,0.809-0.809
		c0.446,0,0.809,0.363,0.809,0.809C237.193,44.67,236.83,45.033,236.384,45.033z M236.384,43.913c-0.172,0-0.311,0.14-0.311,0.311
		s0.14,0.311,0.311,0.311c0.172,0,0.311-0.14,0.311-0.311S236.556,43.913,236.384,43.913z"/>
</g>
<g>
	<path fill="#BE1E2D" d="M165.4,100.905h0.846v5.715h3.033v0.684H165.4V100.905z"/>
	<path fill="#BE1E2D" d="M170.954,107.304h-0.846v-6.399h2.358c0.474,0,0.88,0.083,1.219,0.248s0.596,0.395,0.77,0.688
		s0.261,0.633,0.261,1.017c0,0.618-0.195,1.095-0.585,1.431c-0.39,0.336-0.945,0.504-1.665,0.504h-1.512V107.304z M170.954,104.109
		h1.512c0.474,0,0.825-0.113,1.053-0.338c0.228-0.225,0.342-0.526,0.342-0.904c0-0.36-0.117-0.662-0.351-0.904
		c-0.234-0.243-0.582-0.365-1.044-0.365h-1.512V104.109z"/>
	<path fill="#BE1E2D" d="M178.914,105.162c-0.087-0.138-0.238-0.262-0.454-0.374c-0.216-0.111-0.528-0.226-0.936-0.346
		c-0.672-0.192-1.185-0.437-1.539-0.734c-0.354-0.297-0.531-0.679-0.531-1.147c0-0.33,0.09-0.628,0.27-0.896
		c0.18-0.267,0.435-0.475,0.765-0.625c0.33-0.15,0.708-0.225,1.134-0.225c0.462,0,0.866,0.09,1.211,0.27
		c0.345,0.18,0.607,0.417,0.787,0.711c0.18,0.294,0.27,0.612,0.27,0.954h-0.864c0-0.378-0.119-0.679-0.355-0.904
		c-0.237-0.225-0.586-0.337-1.049-0.337c-0.432,0-0.759,0.094-0.981,0.283c-0.222,0.189-0.333,0.44-0.333,0.751
		c0,0.27,0.117,0.495,0.351,0.675s0.615,0.345,1.143,0.495c0.732,0.204,1.265,0.459,1.598,0.765c0.333,0.306,0.5,0.705,0.5,1.197
		c0,0.342-0.092,0.644-0.274,0.904c-0.183,0.261-0.444,0.462-0.783,0.603c-0.339,0.141-0.73,0.211-1.174,0.211
		c-0.408,0-0.797-0.075-1.166-0.225c-0.369-0.15-0.669-0.372-0.9-0.666s-0.346-0.645-0.346-1.053h0.846
		c0,0.414,0.15,0.728,0.45,0.94c0.3,0.213,0.672,0.319,1.116,0.319c0.438,0,0.777-0.091,1.017-0.274
		c0.24-0.183,0.36-0.433,0.36-0.751C179.044,105.474,179,105.3,178.914,105.162z"/>
	<path fill="#BE1E2D" d="M186.83,104.766h-6.525v-0.639h6.525V104.766z M186.119,107.619h-5.013v-2.16h0.792v1.512h4.221V107.619z
		 M186.091,103.2h-4.932v-2.529h0.792v1.881h4.14V103.2z"/>
	<path fill="#BE1E2D" d="M191.806,105.855h-2.781v-4.626h2.781V105.855z M189.763,105.225h1.305v-3.357h-1.305V105.225z
		 M194.92,107.799h-0.747v-3.834h-0.855v3.474h-0.747v-6.885h0.747v2.745h0.855v-2.898h0.747V107.799z"/>
	<path fill="#BE1E2D" d="M202.112,105.261h-2.889v2.538h-0.783v-2.538h-2.854v-0.657h6.525V105.261z M200.159,100.887
		c0.384,0.132,0.684,0.323,0.9,0.571c0.216,0.249,0.323,0.539,0.323,0.869c0,0.324-0.107,0.609-0.323,0.855
		c-0.217,0.246-0.518,0.437-0.905,0.572c-0.387,0.135-0.829,0.202-1.327,0.202s-0.939-0.067-1.323-0.202
		c-0.384-0.135-0.683-0.326-0.896-0.572s-0.319-0.531-0.319-0.855c0-0.33,0.106-0.62,0.319-0.869
		c0.213-0.249,0.512-0.439,0.896-0.571s0.825-0.198,1.323-0.198C199.331,100.689,199.775,100.755,200.159,100.887z M197.571,101.603
		c-0.314,0.177-0.472,0.418-0.472,0.725s0.157,0.548,0.472,0.725c0.315,0.177,0.733,0.266,1.256,0.266
		c0.534,0,0.959-0.089,1.273-0.266c0.315-0.177,0.473-0.418,0.473-0.725s-0.157-0.547-0.473-0.725
		c-0.314-0.177-0.739-0.265-1.273-0.265C198.304,101.337,197.886,101.426,197.571,101.603z"/>
	<path fill="#BE1E2D" d="M206.851,103.367c-0.585,0.675-1.409,1.171-2.471,1.489l-0.315-0.648c0.829-0.246,1.486-0.597,1.972-1.053
		c0.485-0.456,0.762-0.978,0.827-1.566h-2.484v-0.657h3.348C207.728,101.88,207.436,102.692,206.851,103.367z M209.123,105.261
		c0.426,0.264,0.639,0.621,0.639,1.071c0,0.45-0.213,0.806-0.639,1.067c-0.427,0.261-0.999,0.391-1.72,0.391
		c-0.474,0-0.891-0.058-1.251-0.175c-0.359-0.117-0.638-0.287-0.832-0.509c-0.195-0.222-0.293-0.479-0.293-0.774
		c0-0.45,0.217-0.807,0.648-1.071s1.008-0.396,1.728-0.396C208.124,104.865,208.696,104.997,209.123,105.261z M206.238,105.725
		c-0.285,0.147-0.428,0.35-0.428,0.607c0,0.258,0.143,0.459,0.428,0.603s0.674,0.216,1.165,0.216c0.492,0,0.879-0.072,1.161-0.216
		s0.423-0.345,0.423-0.603c0-0.258-0.141-0.46-0.423-0.607s-0.669-0.22-1.161-0.22C206.912,105.504,206.523,105.578,206.238,105.725
		z M209.681,102.264h1.017v0.657h-1.017v1.854h-0.783v-4.374h0.783V102.264z"/>
	<path fill="#BE1E2D" d="M215.125,101.913h-4.238v-0.639h1.728v-0.864h0.792v0.864h1.719V101.913z M214.257,102.651
		c0.321,0.258,0.481,0.594,0.481,1.008c0,0.42-0.159,0.756-0.477,1.008c-0.318,0.252-0.735,0.378-1.251,0.378
		c-0.522,0-0.942-0.126-1.261-0.378c-0.317-0.252-0.477-0.588-0.477-1.008c0-0.414,0.16-0.75,0.481-1.008
		c0.321-0.258,0.739-0.387,1.256-0.387C213.521,102.264,213.936,102.393,214.257,102.651z M216.781,107.646h-4.824v-2.133h0.783
		v1.476h4.041V107.646z M212.304,103.101c-0.177,0.138-0.266,0.324-0.266,0.558s0.089,0.42,0.266,0.558s0.413,0.207,0.707,0.207
		s0.53-0.069,0.711-0.207c0.18-0.138,0.27-0.324,0.27-0.558s-0.09-0.42-0.27-0.558c-0.181-0.138-0.417-0.207-0.711-0.207
		S212.48,102.963,212.304,103.101z M216.484,102.786h1.026v0.666h-1.026v2.493h-0.783v-5.535h0.783V102.786z"/>
	<path fill="#BE1E2D" d="M222.149,100.977c0.249,0.108,0.457,0.261,0.626,0.459h1.736v-1.035h0.792v4.221h-0.792v-0.882h-1.755
		c-0.168,0.192-0.375,0.34-0.621,0.445s-0.516,0.158-0.81,0.158c-0.354,0-0.674-0.075-0.959-0.225s-0.508-0.358-0.67-0.625
		s-0.243-0.568-0.243-0.904c0-0.342,0.081-0.648,0.243-0.918s0.385-0.48,0.67-0.63c0.285-0.15,0.604-0.225,0.959-0.225
		C221.626,100.815,221.9,100.869,222.149,100.977z M220.521,101.801c-0.213,0.201-0.319,0.463-0.319,0.788
		c0,0.318,0.104,0.576,0.314,0.774c0.21,0.198,0.48,0.297,0.811,0.297c0.324,0,0.589-0.099,0.796-0.297
		c0.207-0.198,0.311-0.456,0.311-0.774c0-0.324-0.104-0.586-0.311-0.788s-0.472-0.302-0.796-0.302S220.733,101.6,220.521,101.801z
		 M225.304,107.7h-4.707v-2.709h4.707V107.7z M221.362,107.052h3.168v-1.413h-3.168V107.052z M223.18,102.588
		c0,0.174-0.021,0.336-0.062,0.486h1.395v-0.999h-1.403C223.156,102.25,223.18,102.42,223.18,102.588z"/>
	<path fill="#BE1E2D" d="M232.657,104.532h-6.498v-0.648h6.498V104.532z M232.063,101.427h-2.133
		c0.03,0.234,0.153,0.452,0.369,0.652c0.216,0.201,0.499,0.371,0.851,0.509c0.351,0.138,0.742,0.228,1.174,0.27l-0.278,0.639
		c-0.63-0.072-1.18-0.235-1.647-0.49s-0.798-0.578-0.99-0.968c-0.191,0.39-0.521,0.713-0.989,0.968
		c-0.469,0.255-1.021,0.418-1.656,0.49l-0.261-0.639c0.426-0.042,0.814-0.132,1.165-0.27c0.352-0.138,0.633-0.308,0.846-0.509
		c0.213-0.201,0.335-0.418,0.365-0.652h-2.115v-0.657h5.301V101.427z M231.213,105.45c0.436,0.234,0.652,0.567,0.652,0.999
		c0,0.42-0.217,0.747-0.652,0.981c-0.435,0.234-1.039,0.351-1.813,0.351c-0.773,0-1.38-0.117-1.817-0.351
		c-0.438-0.234-0.657-0.561-0.657-0.981c0-0.432,0.219-0.765,0.657-0.999c0.438-0.234,1.044-0.351,1.817-0.351
		C230.174,105.099,230.778,105.216,231.213,105.45z M228.157,105.914c-0.288,0.123-0.432,0.302-0.432,0.536
		c0,0.228,0.144,0.402,0.432,0.522s0.702,0.18,1.242,0.18s0.954-0.06,1.242-0.18s0.432-0.294,0.432-0.522
		c0-0.234-0.144-0.413-0.432-0.536c-0.288-0.123-0.702-0.185-1.242-0.185S228.445,105.791,228.157,105.914z"/>
	<path fill="#BE1E2D" d="M239.479,105.234h-1.638v2.565h-0.792v-2.565h-1.684v2.565h-0.801v-2.565h-1.611v-0.648h6.525V105.234z
		 M237.526,100.887c0.384,0.132,0.684,0.321,0.9,0.567c0.216,0.246,0.323,0.534,0.323,0.864c0,0.324-0.107,0.607-0.323,0.85
		c-0.217,0.243-0.517,0.431-0.9,0.562c-0.384,0.132-0.828,0.198-1.332,0.198c-0.498,0-0.939-0.066-1.323-0.198
		c-0.384-0.132-0.683-0.319-0.896-0.562c-0.213-0.243-0.319-0.526-0.319-0.85c0-0.33,0.106-0.618,0.319-0.864
		s0.512-0.435,0.896-0.567s0.825-0.198,1.323-0.198C236.698,100.689,237.143,100.755,237.526,100.887z M234.935,101.598
		c-0.312,0.174-0.468,0.414-0.468,0.72c0,0.3,0.155,0.537,0.468,0.711c0.312,0.174,0.731,0.261,1.26,0.261
		c0.534,0,0.959-0.087,1.273-0.261c0.315-0.174,0.473-0.411,0.473-0.711c0-0.306-0.157-0.546-0.473-0.72
		c-0.314-0.174-0.739-0.261-1.273-0.261C235.666,101.337,235.246,101.424,234.935,101.598z"/>
	<path fill="#BE1E2D" d="M240.82,101.715h1.817v-0.99h0.774v3.222h-3.375v-3.222h0.783V101.715z M245.383,106.395h-3.843v0.693
		h4.077v0.639h-4.842v-1.917h3.824v-0.648h-3.843v-0.63h4.626V106.395z M242.638,103.308v-0.972h-1.817v0.972H242.638z
		 M245.383,101.94h1.018v0.657h-1.018v1.611h-0.792v-3.807h0.792V101.94z"/>
	<path fill="#BE1E2D" d="M254.743,104.1h-2.861v0.63h2.043v1.746h-4.122v0.63h4.32v0.621h-5.095V105.9h4.122v-0.558h-4.14v-0.612
		h2.079v-0.63h-2.845v-0.639h6.498V104.1z M253.906,102.921h-4.833v-2.277h4.833V102.921z M249.848,102.291h3.276v-1.008h-3.276
		V102.291z"/>
	<path fill="#BE1E2D" d="M259.252,101.454h-1.548c0.006,0.45,0.167,0.859,0.481,1.229c0.315,0.369,0.746,0.635,1.292,0.796
		l-0.369,0.63c-0.42-0.126-0.781-0.32-1.085-0.581c-0.303-0.261-0.538-0.572-0.706-0.932c-0.162,0.396-0.397,0.737-0.707,1.021
		c-0.309,0.285-0.683,0.5-1.12,0.644l-0.378-0.639c0.552-0.174,0.987-0.459,1.305-0.855c0.318-0.396,0.48-0.834,0.486-1.314h-1.575
		v-0.657h3.924V101.454z M260.972,106.404h-3.925v0.693h4.141v0.63h-4.896v-1.899h3.897v-0.648h-3.924v-0.621h4.707V106.404z
		 M260.962,104.217h-0.782v-3.816h0.782V104.217z"/>
	<path fill="#BE1E2D" d="M268.369,106.917h-6.517v-0.666h2.854v-1.287h-2.07v-2.358h4.167v-1.017h-4.176v-0.657h4.959v2.304h-4.158
		v1.071h4.32v0.657h-2.259v1.287h2.88V106.917z"/>
	<path fill="#BE1E2D" d="M165.977,116.025c0.774-0.024,1.491-0.102,2.151-0.234l0.09,0.702c-0.804,0.156-1.656,0.234-2.556,0.234
		h-0.459v-4.653h0.774V116.025z M170.98,118.599h-0.756v-3.78h-0.882v3.402h-0.738v-6.858h0.738v2.799h0.882v-2.961h0.756V118.599z"
		/>
	<path fill="#BE1E2D" d="M178.172,115.494h-6.498v-0.639h2.853v-0.801h-2.043v-2.538h4.896v0.639h-4.113v1.242h4.185v0.657h-2.133
		v0.801h2.853V115.494z M177.38,118.644h-0.774v-1.854h-4.203v-0.648h4.977V118.644z"/>
	<path fill="#BE1E2D" d="M184.994,117.663h-6.516v-0.648h2.835v-1.755h0.783v1.755h2.898V117.663z M182.469,113.325
		c0.237,0.354,0.555,0.657,0.954,0.909s0.83,0.417,1.292,0.495l-0.333,0.675c-0.588-0.12-1.124-0.355-1.606-0.707
		c-0.483-0.351-0.841-0.772-1.075-1.264c-0.234,0.486-0.591,0.906-1.071,1.26s-1.011,0.591-1.593,0.711l-0.342-0.675
		c0.462-0.078,0.891-0.243,1.287-0.495s0.711-0.555,0.945-0.909c0.234-0.354,0.351-0.72,0.351-1.098v-0.54h0.837v0.54
		C182.113,112.605,182.232,112.971,182.469,113.325z"/>
	<path fill="#BE1E2D" d="M188.837,114.603h-2.466v1.575c0.636,0,1.191-0.017,1.665-0.05c0.474-0.033,0.96-0.097,1.458-0.193
		l0.072,0.648c-0.54,0.102-1.07,0.172-1.589,0.211s-1.12,0.059-1.804,0.059h-0.594v-2.898h2.475v-1.431h-2.484v-0.657h3.267V114.603
		z M190.844,114.09h1.134v0.675h-1.134v3.843h-0.765v-7.407h0.765V114.09z"/>
	<path fill="#BE1E2D" d="M198.583,117.609h-6.498v-0.657h2.457v-2.61h0.774v2.61h3.267V117.609z M197.873,112.632
		c0,0.63-0.015,1.196-0.045,1.697s-0.107,1.087-0.233,1.759l-0.792-0.09c0.119-0.63,0.194-1.194,0.225-1.692
		s0.045-1.056,0.045-1.674v-0.063h-4.302v-0.657h5.103V112.632z"/>
	<path fill="#BE1E2D" d="M204.677,115.251h-2.151v1.782h2.88v0.666h-6.517v-0.666h2.854v-1.782h-2.052v-3.474h4.915v0.648h-4.123
		v2.178h4.194V115.251z"/>
	<path fill="#BE1E2D" d="M211.615,112.713h-4.238v-0.639h1.728v-0.864h0.792v0.864h1.719V112.713z M210.747,113.451
		c0.321,0.258,0.481,0.594,0.481,1.008c0,0.42-0.159,0.756-0.477,1.008c-0.318,0.252-0.735,0.378-1.251,0.378
		c-0.522,0-0.942-0.126-1.261-0.378c-0.317-0.252-0.477-0.588-0.477-1.008c0-0.414,0.16-0.75,0.481-1.008
		c0.321-0.258,0.739-0.387,1.256-0.387C210.011,113.064,210.426,113.193,210.747,113.451z M213.271,118.446h-4.824v-2.133h0.783
		v1.476h4.041V118.446z M208.794,113.901c-0.177,0.138-0.266,0.324-0.266,0.558s0.089,0.42,0.266,0.558s0.413,0.207,0.707,0.207
		s0.53-0.069,0.711-0.207c0.18-0.138,0.27-0.324,0.27-0.558s-0.09-0.42-0.27-0.558c-0.181-0.138-0.417-0.207-0.711-0.207
		S208.971,113.763,208.794,113.901z M212.975,113.586h1.026v0.666h-1.026v2.493h-0.783v-5.535h0.783V113.586z"/>
	<path fill="#BE1E2D" d="M217.816,112.578h-2.556v3.528c0.642-0.006,1.195-0.025,1.66-0.059c0.465-0.033,0.938-0.094,1.417-0.185
		l0.091,0.684c-0.528,0.096-1.046,0.161-1.553,0.194c-0.507,0.033-1.111,0.049-1.813,0.049h-0.585v-4.869h3.339V112.578z
		 M219.733,114.063h1.134v0.666h-1.134v3.879h-0.783v-7.407h0.783V114.063z"/>
	<path fill="#BE1E2D" d="M221.597,117.326c0.091-0.093,0.213-0.14,0.369-0.14c0.162,0,0.288,0.046,0.378,0.14
		c0.09,0.093,0.136,0.211,0.136,0.355c0,0.138-0.046,0.25-0.136,0.337s-0.216,0.13-0.378,0.13c-0.156,0-0.278-0.043-0.369-0.13
		c-0.09-0.087-0.135-0.199-0.135-0.337C221.462,117.537,221.507,117.418,221.597,117.326z"/>
</g>
<g>
</g>
<g>
</g>
<g>
</g>
<g>
</g>
<g>
</g>
<g>
</g>
<g>
</g>
</svg>
