<?xml version="1.0" encoding="utf-8"?>
<!-- Generator: Adobe Illustrator 28.0.0, SVG Export Plug-In . SVG Version: 6.00 Build 0)  -->
<svg version="1.1" id="레이어_1" xmlns="http://www.w3.org/2000/svg" xmlns:xlink="http://www.w3.org/1999/xlink" x="0px"
	 y="0px" viewBox="0 0 316.352 195.12" enable-background="new 0 0 316.352 195.12" xml:space="preserve">
<path fill="none" stroke="#C9501B" stroke-width="5" stroke-miterlimit="10" d="M45.355,84.621c0,0,44.632-69.26,122.695,2.935
	s90.746,68.78,138.063,0"/>
<g>
	<path d="M10.488,92.758v0.899H0v-0.899H10.488z M5.304,95.758v1.668H4.548v-1.668H0.252v-0.889H9.96v0.889H5.304z M1.644,100.461
		H0.828v-2.771h0.816V100.461z M3.42,96.598v2.027h0.348c0.904,0,1.666-0.213,2.286-0.642c0.62-0.428,1.09-0.954,1.41-1.578
		l0.672,0.54C7.88,97.41,7.518,97.848,7.05,98.26c-0.468,0.412-0.962,0.689-1.482,0.834c0.536,0.119,1.064,0.384,1.584,0.791
		c0.52,0.408,0.94,0.869,1.26,1.381l-0.624,0.516c-0.4-0.656-0.936-1.189-1.608-1.602c-0.672-0.412-1.468-0.618-2.388-0.618H3.42
		v2.017H2.652v-4.98H3.42z"/>
	<path d="M2.364,82.846c0.616,0,1.103,0.284,1.458,0.852c0.356,0.568,0.558,1.368,0.606,2.4H5.58v-4.296h0.756v9.468H5.58v-4.26
		H4.428c-0.048,1.023-0.25,1.814-0.606,2.369c-0.355,0.557-0.842,0.834-1.458,0.834c-0.656,0-1.162-0.323-1.518-0.971
		c-0.356-0.648-0.534-1.553-0.534-2.713s0.178-2.063,0.534-2.712C1.202,83.17,1.708,82.846,2.364,82.846z M1.404,84.483
		c-0.224,0.501-0.336,1.183-0.336,2.046c0,0.864,0.112,1.545,0.336,2.041c0.224,0.496,0.548,0.743,0.972,0.743
		c0.416,0,0.736-0.247,0.96-0.743c0.224-0.496,0.336-1.172,0.336-2.029c0-0.863-0.112-1.547-0.336-2.051
		c-0.224-0.505-0.544-0.757-0.96-0.757C1.952,83.733,1.628,83.984,1.404,84.483z M10.188,82.87v7.152H7.152v-0.912H9.42v-6.24
		H10.188z"/>
</g>
<path fill="none" stroke="#D9D9D9" stroke-width="0.3429" stroke-linejoin="round" stroke-miterlimit="10" d="M42.832,137.338
	h265.803 M42.832,93.445h265.803 M42.832,49.894h265.803 M42.832,6.001h265.803"/>
<g>
	<defs>
		<polygon id="SVGID_1_" points="23.797,195.12 316.352,195.12 316.352,0 23.797,0 23.797,195.12 		"/>
	</defs>
	<clipPath id="SVGID_00000160903994045304936460000006485660018394252676_">
		<use xlink:href="#SVGID_1_"  overflow="visible"/>
	</clipPath>
	
		<polygon clip-path="url(#SVGID_00000160903994045304936460000006485660018394252676_)" fill="none" stroke="#000000" stroke-width="0.3429" stroke-linejoin="round" stroke-miterlimit="10" points="
		42.832,6.001 308.635,6.001 308.635,180.889 42.832,180.889 42.832,6.001 	"/>
</g>
<g>
	<defs>
		<polygon id="SVGID_00000036239982464550157920000008879200172492580525_" points="23.797,195.12 316.352,195.12 316.352,0 
			23.797,0 23.797,195.12 		"/>
	</defs>
	<clipPath id="SVGID_00000006690785226596561420000013382408621170255017_">
		<use xlink:href="#SVGID_00000036239982464550157920000008879200172492580525_"  overflow="visible"/>
	</clipPath>
	
		<line clip-path="url(#SVGID_00000006690785226596561420000013382408621170255017_)" fill="none" stroke="#C0BFBF" stroke-width="0.3429" stroke-linejoin="round" stroke-miterlimit="10" x1="42.832" y1="180.889" x2="42.832" y2="6.001"/>
</g>
<g>
	<defs>
		<polygon id="SVGID_00000018939116618237556730000002965236416430432387_" points="23.797,195.12 316.352,195.12 316.352,0 
			23.797,0 23.797,195.12 		"/>
	</defs>
	<clipPath id="SVGID_00000110428995065871212860000007325483305115197572_">
		<use xlink:href="#SVGID_00000018939116618237556730000002965236416430432387_"  overflow="visible"/>
	</clipPath>
	
		<path clip-path="url(#SVGID_00000110428995065871212860000007325483305115197572_)" fill="none" stroke="#C0BFBF" stroke-width="0.3429" stroke-linejoin="round" stroke-miterlimit="10" d="
		M40.774,180.889h2.058 M40.774,137.338h2.058 M40.774,93.445h2.058 M40.774,49.894h2.058 M40.774,6.001h2.058"/>
</g>
<g>
	<defs>
		<polygon id="SVGID_00000082330553088256904680000017849696374088373150_" points="23.797,195.12 316.352,195.12 316.352,0 
			23.797,0 23.797,195.12 		"/>
	</defs>
	<clipPath id="SVGID_00000051374733326788082300000003940837345530993843_">
		<use xlink:href="#SVGID_00000082330553088256904680000017849696374088373150_"  overflow="visible"/>
	</clipPath>
	
		<line clip-path="url(#SVGID_00000051374733326788082300000003940837345530993843_)" fill="none" stroke="#C0BFBF" stroke-width="0.3429" stroke-linejoin="round" stroke-miterlimit="10" x1="42.832" y1="180.889" x2="308.635" y2="180.889"/>
</g>
<g>
	<defs>
		<polygon id="SVGID_00000162332720795297986740000001393148518769132187_" points="23.797,195.12 316.352,195.12 316.352,0 
			23.797,0 23.797,195.12 		"/>
	</defs>
	<clipPath id="SVGID_00000121265758967454537280000013283487743925791389_">
		<use xlink:href="#SVGID_00000162332720795297986740000001393148518769132187_"  overflow="visible"/>
	</clipPath>
	
		<path clip-path="url(#SVGID_00000121265758967454537280000013283487743925791389_)" fill="none" stroke="#C0BFBF" stroke-width="0.3429" stroke-linejoin="round" stroke-miterlimit="10" d="
		M42.832,180.889v2.057 M64.782,180.889v2.057 M87.075,180.889v2.057 M109.368,180.889v2.057 M131.319,180.889v2.057
		 M153.612,180.889v2.057 M175.562,180.889v2.057 M197.855,180.889v2.057 M219.805,180.889v2.057 M242.099,180.889v2.057
		 M264.392,180.889v2.057 M286.342,180.889v2.057 M308.635,180.889v2.057"/>
</g>
<g>
	<g>
		<path fill="#595959" d="M41.477,192.864h-0.621v-4.965c-0.12,0.12-0.315,0.249-0.586,0.389s-0.519,0.236-0.742,0.291v-0.664
			c0.286-0.081,0.594-0.212,0.922-0.395s0.587-0.359,0.777-0.531h0.25V192.864z"/>
		<path fill="#595959" d="M46.332,188.649c0-0.344-0.102-0.613-0.305-0.809s-0.473-0.293-0.809-0.293
			c-0.24,0-0.479,0.062-0.72,0.186c-0.239,0.124-0.455,0.294-0.648,0.51v-0.672c0.373-0.367,0.854-0.551,1.446-0.551
			c0.492,0,0.889,0.142,1.189,0.426s0.451,0.667,0.451,1.148c0,0.414-0.097,0.776-0.289,1.088c-0.193,0.312-0.521,0.632-0.984,0.963
			c-0.438,0.308-0.742,0.54-0.912,0.699c-0.171,0.159-0.291,0.31-0.36,0.451c-0.068,0.142-0.104,0.311-0.104,0.506h2.79v0.562h-3.45
			v-0.281c0-0.315,0.044-0.584,0.131-0.807c0.088-0.223,0.233-0.44,0.438-0.652c0.205-0.212,0.532-0.475,0.983-0.787
			c0.411-0.284,0.706-0.554,0.885-0.811C46.242,189.27,46.332,188.978,46.332,188.649z"/>
	</g>
	<g>
		<path fill="#595959" d="M63.624,192.864h-0.621v-4.965c-0.12,0.12-0.315,0.249-0.586,0.389s-0.519,0.236-0.742,0.291v-0.664
			c0.286-0.081,0.594-0.212,0.922-0.395s0.587-0.359,0.777-0.531h0.25V192.864z"/>
		<path fill="#595959" d="M68.708,187.114v3.797h0.758v0.562h-0.758v1.391h-0.613v-1.391h-2.704v-0.527
			c0.565-0.636,1.084-1.292,1.558-1.969c0.473-0.677,0.838-1.298,1.096-1.863H68.708z M66.11,190.911h1.985v-2.836
			c-0.5,0.87-1.022,1.641-1.567,2.312L66.11,190.911z"/>
	</g>
	<g>
		<path fill="#595959" d="M85.771,192.864H85.15v-4.965c-0.12,0.12-0.315,0.249-0.586,0.389c-0.271,0.14-0.519,0.236-0.743,0.291
			v-0.664c0.287-0.081,0.594-0.212,0.923-0.395c0.328-0.183,0.587-0.359,0.777-0.531h0.25V192.864z"/>
		<path fill="#595959" d="M91.203,187.778c-0.302-0.151-0.615-0.227-0.941-0.227c-0.531,0-0.948,0.233-1.25,0.701
			s-0.452,1.083-0.449,1.846h0.02c0.266-0.55,0.704-0.824,1.316-0.824c0.508,0,0.91,0.164,1.207,0.492s0.445,0.757,0.445,1.285
			c0,0.544-0.167,0.999-0.502,1.363c-0.334,0.364-0.765,0.547-1.291,0.547c-0.591,0-1.045-0.231-1.361-0.695
			s-0.475-1.105-0.475-1.926c0-0.969,0.204-1.765,0.613-2.387s0.981-0.934,1.719-0.934c0.398,0,0.715,0.055,0.949,0.164V187.778z
			 M88.609,190.981c0,0.403,0.108,0.747,0.324,1.029s0.499,0.424,0.848,0.424c0.336,0,0.609-0.126,0.818-0.377
			c0.21-0.251,0.314-0.561,0.314-0.928c0-0.417-0.1-0.741-0.301-0.975c-0.2-0.233-0.48-0.35-0.84-0.35
			c-0.328,0-0.604,0.114-0.828,0.342S88.609,190.653,88.609,190.981z"/>
	</g>
	<g>
		<path fill="#595959" d="M107.92,192.864h-0.621v-4.965c-0.12,0.12-0.315,0.249-0.586,0.389s-0.519,0.236-0.742,0.291v-0.664
			c0.286-0.081,0.594-0.212,0.922-0.395s0.587-0.359,0.777-0.531h0.25V192.864z"/>
		<path fill="#595959" d="M110.004,191.263c0-0.323,0.099-0.627,0.295-0.912c0.197-0.285,0.453-0.486,0.768-0.604
			c-0.247-0.128-0.446-0.304-0.598-0.527c-0.15-0.224-0.227-0.468-0.227-0.73c0-0.273,0.069-0.522,0.207-0.748
			c0.139-0.226,0.331-0.401,0.578-0.529c0.248-0.128,0.521-0.191,0.821-0.191c0.463,0,0.848,0.139,1.152,0.416
			s0.457,0.628,0.457,1.053c0,0.266-0.077,0.51-0.23,0.732c-0.154,0.223-0.35,0.397-0.586,0.525c0.312,0.12,0.566,0.321,0.762,0.605
			s0.293,0.587,0.293,0.91c0,0.508-0.172,0.918-0.516,1.23s-0.788,0.469-1.332,0.469c-0.539,0-0.981-0.158-1.327-0.475
			C110.177,192.171,110.004,191.763,110.004,191.263z M110.637,191.204c0,0.375,0.113,0.674,0.34,0.896
			c0.228,0.223,0.519,0.334,0.876,0.334c0.354,0,0.646-0.114,0.877-0.344s0.346-0.524,0.346-0.887c0-0.336-0.115-0.62-0.346-0.854
			s-0.523-0.35-0.877-0.35c-0.342,0-0.629,0.112-0.864,0.338C110.754,190.564,110.637,190.853,110.637,191.204z M110.879,188.54
			c0,0.278,0.097,0.512,0.29,0.699c0.192,0.188,0.42,0.281,0.684,0.281c0.263,0,0.491-0.094,0.686-0.281
			c0.193-0.188,0.291-0.421,0.291-0.699c0-0.286-0.093-0.522-0.277-0.709c-0.186-0.187-0.418-0.279-0.699-0.279
			c-0.276,0-0.508,0.092-0.693,0.275C110.973,188.011,110.879,188.248,110.879,188.54z"/>
	</g>
	<g>
		<path fill="#595959" d="M130.427,188.649c0-0.344-0.102-0.613-0.305-0.809s-0.473-0.293-0.809-0.293
			c-0.24,0-0.479,0.062-0.72,0.186c-0.239,0.124-0.455,0.294-0.648,0.51v-0.672c0.373-0.367,0.854-0.551,1.446-0.551
			c0.492,0,0.889,0.142,1.189,0.426s0.451,0.667,0.451,1.148c0,0.414-0.097,0.776-0.289,1.088c-0.193,0.312-0.521,0.632-0.984,0.963
			c-0.438,0.308-0.742,0.54-0.912,0.699c-0.171,0.159-0.291,0.31-0.36,0.451c-0.068,0.142-0.104,0.311-0.104,0.506h2.79v0.562h-3.45
			v-0.281c0-0.315,0.044-0.584,0.131-0.807c0.088-0.223,0.233-0.44,0.438-0.652c0.205-0.212,0.532-0.475,0.983-0.787
			c0.411-0.284,0.706-0.554,0.885-0.811C130.337,189.27,130.427,188.978,130.427,188.649z"/>
		<path fill="#595959" d="M132.121,190.106c0-1.016,0.165-1.784,0.496-2.305s0.808-0.781,1.43-0.781
			c1.195,0,1.793,0.981,1.793,2.945c0,0.969-0.166,1.71-0.498,2.225s-0.807,0.771-1.424,0.771c-0.583,0-1.028-0.249-1.336-0.748
			S132.121,191.013,132.121,190.106z M132.753,190.075c0,1.573,0.41,2.359,1.23,2.359c0.815,0,1.223-0.798,1.223-2.395
			c0-1.659-0.396-2.488-1.191-2.488C133.174,187.552,132.753,188.393,132.753,190.075z"/>
	</g>
	<g>
		<path fill="#595959" d="M152.574,188.649c0-0.344-0.102-0.613-0.305-0.809s-0.473-0.293-0.809-0.293
			c-0.24,0-0.479,0.062-0.72,0.186c-0.239,0.124-0.455,0.294-0.648,0.51v-0.672c0.373-0.367,0.854-0.551,1.446-0.551
			c0.492,0,0.889,0.142,1.189,0.426s0.451,0.667,0.451,1.148c0,0.414-0.097,0.776-0.289,1.088c-0.193,0.312-0.521,0.632-0.984,0.963
			c-0.438,0.308-0.742,0.54-0.912,0.699c-0.171,0.159-0.291,0.31-0.36,0.451c-0.068,0.142-0.104,0.311-0.104,0.506h2.79v0.562h-3.45
			v-0.281c0-0.315,0.044-0.584,0.131-0.807c0.088-0.223,0.233-0.44,0.438-0.652c0.205-0.212,0.532-0.475,0.983-0.787
			c0.411-0.284,0.706-0.554,0.885-0.811C152.484,189.27,152.574,188.978,152.574,188.649z"/>
		<path fill="#595959" d="M157.068,188.649c0-0.344-0.102-0.613-0.305-0.809s-0.473-0.293-0.809-0.293
			c-0.239,0-0.479,0.062-0.719,0.186s-0.456,0.294-0.648,0.51v-0.672c0.372-0.367,0.854-0.551,1.445-0.551
			c0.492,0,0.889,0.142,1.189,0.426s0.451,0.667,0.451,1.148c0,0.414-0.096,0.776-0.289,1.088c-0.192,0.312-0.521,0.632-0.984,0.963
			c-0.438,0.308-0.741,0.54-0.912,0.699s-0.29,0.31-0.359,0.451s-0.104,0.311-0.104,0.506h2.789v0.562h-3.449v-0.281
			c0-0.315,0.043-0.584,0.131-0.807c0.087-0.223,0.233-0.44,0.438-0.652s0.532-0.475,0.982-0.787
			c0.411-0.284,0.707-0.554,0.885-0.811C156.979,189.27,157.068,188.978,157.068,188.649z"/>
	</g>
	<g>
		<path fill="#595959" d="M174.724,188.649c0-0.344-0.102-0.613-0.305-0.809s-0.473-0.293-0.809-0.293
			c-0.24,0-0.479,0.062-0.72,0.186c-0.239,0.124-0.455,0.294-0.648,0.51v-0.672c0.373-0.367,0.854-0.551,1.446-0.551
			c0.492,0,0.889,0.142,1.189,0.426s0.451,0.667,0.451,1.148c0,0.414-0.097,0.776-0.289,1.088c-0.193,0.312-0.521,0.632-0.984,0.963
			c-0.438,0.308-0.742,0.54-0.912,0.699c-0.171,0.159-0.291,0.31-0.36,0.451c-0.068,0.142-0.104,0.311-0.104,0.506h2.79v0.562h-3.45
			v-0.281c0-0.315,0.044-0.584,0.131-0.807c0.088-0.223,0.233-0.44,0.438-0.652c0.205-0.212,0.532-0.475,0.983-0.787
			c0.411-0.284,0.706-0.554,0.885-0.811C174.634,189.27,174.724,188.978,174.724,188.649z"/>
		<path fill="#595959" d="M179.449,187.114v3.797h0.758v0.562h-0.758v1.391h-0.613v-1.391h-2.703v-0.527
			c0.564-0.636,1.084-1.292,1.557-1.969s0.838-1.298,1.096-1.863H179.449z M176.851,190.911h1.984v-2.836
			c-0.5,0.87-1.022,1.641-1.566,2.312L176.851,190.911z"/>
	</g>
</g>
<g>
	<path fill="#595959" d="M199.437,188.648c0-0.344-0.102-0.613-0.305-0.809s-0.473-0.293-0.809-0.293
		c-0.24,0-0.479,0.062-0.72,0.186c-0.239,0.124-0.455,0.294-0.648,0.51v-0.672c0.373-0.367,0.854-0.551,1.446-0.551
		c0.492,0,0.889,0.142,1.189,0.426s0.451,0.667,0.451,1.148c0,0.414-0.097,0.776-0.289,1.088c-0.193,0.312-0.521,0.632-0.984,0.963
		c-0.438,0.308-0.742,0.54-0.912,0.699c-0.171,0.159-0.291,0.31-0.36,0.451c-0.068,0.142-0.104,0.311-0.104,0.506h2.79v0.562h-3.45
		v-0.281c0-0.315,0.044-0.584,0.131-0.807c0.088-0.223,0.233-0.44,0.438-0.652c0.205-0.212,0.532-0.475,0.983-0.787
		c0.411-0.284,0.706-0.554,0.885-0.811C199.347,189.269,199.437,188.977,199.437,188.648z"/>
</g>
<g>
	<path fill="#595959" d="M221.814,187.113v3.797h0.758v0.562h-0.758v1.391h-0.613v-1.391h-2.704v-0.527
		c0.565-0.636,1.084-1.292,1.558-1.969c0.473-0.677,0.838-1.298,1.096-1.863H221.814z M219.215,190.91h1.985v-2.836
		c-0.5,0.87-1.022,1.641-1.567,2.312L219.215,190.91z"/>
</g>
<g>
	<path fill="#595959" d="M244.312,187.777c-0.302-0.151-0.615-0.227-0.941-0.227c-0.531,0-0.948,0.233-1.25,0.701
		s-0.452,1.083-0.449,1.846h0.02c0.266-0.55,0.704-0.824,1.316-0.824c0.508,0,0.91,0.164,1.207,0.492s0.445,0.757,0.445,1.285
		c0,0.544-0.167,0.999-0.502,1.363c-0.334,0.364-0.765,0.547-1.291,0.547c-0.591,0-1.045-0.231-1.361-0.695
		s-0.475-1.105-0.475-1.926c0-0.969,0.204-1.765,0.613-2.387s0.981-0.934,1.719-0.934c0.398,0,0.715,0.055,0.949,0.164V187.777z
		 M241.718,190.98c0,0.403,0.108,0.747,0.324,1.029s0.499,0.424,0.848,0.424c0.336,0,0.609-0.126,0.818-0.377
		c0.21-0.251,0.314-0.561,0.314-0.928c0-0.417-0.1-0.741-0.301-0.975c-0.2-0.233-0.48-0.35-0.84-0.35
		c-0.328,0-0.604,0.114-0.828,0.342S241.718,190.652,241.718,190.98z"/>
</g>
<g>
	<path fill="#595959" d="M263.11,191.262c0-0.323,0.099-0.627,0.295-0.912c0.197-0.285,0.453-0.486,0.768-0.604
		c-0.247-0.128-0.446-0.304-0.598-0.527c-0.15-0.224-0.227-0.468-0.227-0.73c0-0.273,0.069-0.522,0.207-0.748
		c0.139-0.226,0.331-0.401,0.578-0.529c0.248-0.128,0.521-0.191,0.821-0.191c0.463,0,0.848,0.139,1.152,0.416
		s0.457,0.628,0.457,1.053c0,0.266-0.077,0.51-0.23,0.732c-0.154,0.223-0.35,0.397-0.586,0.525c0.312,0.12,0.566,0.321,0.762,0.605
		s0.293,0.587,0.293,0.91c0,0.508-0.172,0.918-0.516,1.23s-0.788,0.469-1.332,0.469c-0.539,0-0.981-0.158-1.327-0.475
		C263.283,192.17,263.11,191.762,263.11,191.262z M263.743,191.203c0,0.375,0.113,0.674,0.34,0.896
		c0.228,0.223,0.519,0.334,0.876,0.334c0.354,0,0.646-0.114,0.877-0.344s0.346-0.524,0.346-0.887c0-0.336-0.115-0.62-0.346-0.854
		s-0.523-0.35-0.877-0.35c-0.342,0-0.629,0.112-0.864,0.338C263.86,190.563,263.743,190.852,263.743,191.203z M263.985,188.539
		c0,0.278,0.097,0.512,0.29,0.699c0.192,0.188,0.42,0.281,0.684,0.281c0.263,0,0.491-0.094,0.686-0.281
		c0.193-0.188,0.291-0.421,0.291-0.699c0-0.286-0.093-0.522-0.277-0.709c-0.186-0.187-0.418-0.279-0.699-0.279
		c-0.276,0-0.508,0.092-0.693,0.275C264.079,188.01,263.985,188.247,263.985,188.539z"/>
</g>
<g>
	<path fill="#595959" d="M286.161,192.863h-0.621v-4.965c-0.12,0.12-0.315,0.249-0.586,0.389s-0.519,0.236-0.742,0.291v-0.664
		c0.286-0.081,0.594-0.212,0.922-0.395s0.587-0.359,0.777-0.531h0.25V192.863z"/>
	<path fill="#595959" d="M288.213,190.105c0-1.016,0.166-1.784,0.496-2.305c0.331-0.521,0.808-0.781,1.431-0.781
		c1.195,0,1.793,0.981,1.793,2.945c0,0.969-0.166,1.71-0.498,2.225s-0.807,0.771-1.424,0.771c-0.584,0-1.029-0.249-1.337-0.748
		C288.368,191.714,288.213,191.012,288.213,190.105z M288.846,190.074c0,1.573,0.41,2.359,1.231,2.359
		c0.814,0,1.223-0.798,1.223-2.395c0-1.659-0.397-2.488-1.191-2.488C289.267,187.551,288.846,188.392,288.846,190.074z"/>
</g>
<g>
	<path fill="#595959" d="M304.251,192.863h-0.621v-4.965c-0.12,0.12-0.315,0.249-0.586,0.389c-0.271,0.14-0.519,0.236-0.743,0.291
		v-0.664c0.287-0.081,0.594-0.212,0.923-0.395c0.328-0.183,0.587-0.359,0.777-0.531h0.25V192.863z"/>
	<path fill="#595959" d="M309.017,188.648c0-0.344-0.102-0.613-0.305-0.809s-0.473-0.293-0.809-0.293
		c-0.239,0-0.479,0.062-0.719,0.186s-0.456,0.294-0.648,0.51v-0.672c0.372-0.367,0.854-0.551,1.445-0.551
		c0.492,0,0.889,0.142,1.189,0.426s0.451,0.667,0.451,1.148c0,0.414-0.096,0.776-0.289,1.088c-0.192,0.312-0.521,0.632-0.984,0.963
		c-0.438,0.308-0.741,0.54-0.912,0.699s-0.29,0.31-0.359,0.451s-0.104,0.311-0.104,0.506h2.789v0.562h-3.449v-0.281
		c0-0.315,0.043-0.584,0.131-0.807c0.087-0.223,0.233-0.44,0.438-0.652s0.532-0.475,0.982-0.787
		c0.411-0.284,0.707-0.554,0.885-0.811C308.928,189.269,309.017,188.977,309.017,188.648z"/>
</g>
<g>
	<path fill="#595959" d="M23.311,6.668c0.396,0.312,0.839,0.469,1.329,0.469c0.4,0,0.725-0.102,0.971-0.305s0.369-0.478,0.369-0.824
		c0-0.769-0.541-1.152-1.621-1.152h-0.478V4.328h0.454c0.961,0,1.441-0.359,1.441-1.078c0-0.664-0.366-0.996-1.098-0.996
		c-0.407,0-0.788,0.14-1.146,0.418V2.051c0.365-0.219,0.799-0.328,1.302-0.328c0.458,0,0.835,0.126,1.131,0.379
		c0.295,0.253,0.443,0.582,0.443,0.988c0,0.753-0.385,1.241-1.152,1.465v0.012c0.414,0.036,0.744,0.181,0.99,0.434
		s0.369,0.566,0.369,0.941c0,0.523-0.189,0.941-0.568,1.254s-0.86,0.469-1.443,0.469c-0.537,0-0.968-0.103-1.294-0.309V6.668z"/>
	<path fill="#595959" d="M27.578,5.965c0-0.323,0.098-0.627,0.295-0.912c0.196-0.285,0.452-0.486,0.768-0.604
		c-0.247-0.128-0.446-0.304-0.598-0.527c-0.151-0.224-0.227-0.468-0.227-0.73c0-0.273,0.068-0.522,0.207-0.748
		c0.138-0.226,0.331-0.401,0.578-0.529s0.521-0.191,0.82-0.191c0.464,0,0.848,0.139,1.152,0.416s0.457,0.628,0.457,1.053
		c0,0.266-0.076,0.51-0.23,0.732c-0.153,0.223-0.349,0.397-0.586,0.525c0.312,0.12,0.566,0.321,0.762,0.605s0.293,0.587,0.293,0.91
		c0,0.508-0.172,0.918-0.516,1.23s-0.787,0.469-1.332,0.469c-0.539,0-0.981-0.158-1.326-0.475
		C27.75,6.873,27.578,6.465,27.578,5.965z M28.21,5.906c0,0.375,0.113,0.674,0.34,0.896s0.519,0.334,0.875,0.334
		c0.354,0,0.646-0.114,0.877-0.344s0.346-0.524,0.346-0.887c0-0.336-0.115-0.62-0.346-0.854s-0.522-0.35-0.877-0.35
		c-0.341,0-0.629,0.112-0.863,0.338S28.21,5.555,28.21,5.906z M28.453,3.242c0,0.278,0.097,0.512,0.289,0.699
		c0.192,0.188,0.421,0.281,0.684,0.281s0.492-0.094,0.686-0.281c0.194-0.188,0.291-0.421,0.291-0.699
		c0-0.286-0.092-0.522-0.277-0.709c-0.185-0.187-0.418-0.279-0.699-0.279c-0.276,0-0.507,0.092-0.693,0.275
		S28.453,2.95,28.453,3.242z"/>
	<path fill="#595959" d="M32.05,7.223c0-0.122,0.043-0.226,0.129-0.311s0.187-0.127,0.301-0.127c0.115,0,0.215,0.042,0.301,0.127
		s0.129,0.188,0.129,0.311c0,0.114-0.042,0.216-0.127,0.303c-0.084,0.087-0.186,0.131-0.303,0.131s-0.218-0.042-0.303-0.127
		C32.093,7.444,32.05,7.343,32.05,7.223z"/>
	<path fill="#595959" d="M33.704,4.809c0-1.016,0.165-1.784,0.496-2.305s0.808-0.781,1.43-0.781c1.195,0,1.793,0.981,1.793,2.945
		c0,0.969-0.166,1.71-0.498,2.225S36.118,7.664,35.5,7.664c-0.583,0-1.028-0.249-1.336-0.748S33.704,5.715,33.704,4.809z
		 M34.336,4.777c0,1.573,0.41,2.359,1.23,2.359c0.815,0,1.223-0.798,1.223-2.395c0-1.659-0.396-2.488-1.191-2.488
		C34.757,2.254,34.336,3.095,34.336,4.777z"/>
</g>
<g>
	<path fill="#595959" d="M23.312,52.773c0.396,0.312,0.839,0.469,1.328,0.469c0.401,0,0.725-0.102,0.971-0.305
		s0.369-0.478,0.369-0.824c0-0.769-0.54-1.152-1.621-1.152h-0.477v-0.527h0.453c0.961,0,1.441-0.359,1.441-1.078
		c0-0.664-0.366-0.996-1.098-0.996c-0.406,0-0.788,0.14-1.145,0.418v-0.621c0.364-0.219,0.798-0.328,1.301-0.328
		c0.458,0,0.836,0.126,1.131,0.379c0.296,0.253,0.443,0.582,0.443,0.988c0,0.753-0.384,1.241-1.152,1.465v0.012
		c0.414,0.036,0.744,0.181,0.99,0.434s0.369,0.566,0.369,0.941c0,0.523-0.189,0.941-0.568,1.254s-0.86,0.469-1.443,0.469
		c-0.536,0-0.968-0.103-1.293-0.309V52.773z"/>
	<path fill="#595959" d="M31.215,48.3c-0.612,1.075-1.091,2.066-1.436,2.973c-0.346,0.906-0.56,1.706-0.643,2.398H28.46
		c0.062-0.442,0.18-0.933,0.353-1.471c0.172-0.538,0.391-1.104,0.656-1.701s0.605-1.267,1.02-2.012h-2.927v-0.566h3.653V48.3z"/>
	<path fill="#595959" d="M32.051,53.328c0-0.122,0.043-0.226,0.129-0.311s0.186-0.127,0.301-0.127c0.114,0,0.215,0.042,0.301,0.127
		s0.129,0.188,0.129,0.311c0,0.114-0.042,0.216-0.127,0.303s-0.186,0.131-0.303,0.131s-0.219-0.042-0.303-0.127
		C32.093,53.549,32.051,53.448,32.051,53.328z"/>
	<path fill="#595959" d="M37.197,51.917c0,0.567-0.182,1.019-0.545,1.352s-0.85,0.5-1.459,0.5c-0.534,0-0.932-0.079-1.192-0.238
		v-0.672c0.398,0.255,0.799,0.383,1.2,0.383c0.411,0,0.742-0.119,0.994-0.357c0.251-0.238,0.377-0.548,0.377-0.928
		c0-0.388-0.128-0.688-0.383-0.9c-0.256-0.212-0.624-0.318-1.105-0.318c-0.323,0-0.647,0.02-0.974,0.059l0.195-2.875h2.638v0.566
		h-2.079l-0.125,1.73c0.201-0.019,0.385-0.027,0.552-0.027c0.596,0,1.062,0.154,1.4,0.463
		C37.028,50.962,37.197,51.383,37.197,51.917z"/>
</g>
<g>
	<path fill="#595959" d="M23.312,93.547c0.396,0.312,0.839,0.469,1.328,0.469c0.401,0,0.725-0.102,0.971-0.305
		s0.369-0.478,0.369-0.824c0-0.769-0.54-1.152-1.621-1.152h-0.477v-0.527h0.453c0.961,0,1.441-0.359,1.441-1.078
		c0-0.664-0.366-0.996-1.098-0.996c-0.406,0-0.788,0.14-1.145,0.418V88.93c0.364-0.219,0.798-0.328,1.301-0.328
		c0.458,0,0.836,0.126,1.131,0.379c0.296,0.253,0.443,0.582,0.443,0.988c0,0.753-0.384,1.241-1.152,1.465v0.012
		c0.414,0.036,0.744,0.181,0.99,0.434s0.369,0.566,0.369,0.941c0,0.523-0.189,0.941-0.568,1.254s-0.86,0.469-1.443,0.469
		c-0.536,0-0.968-0.103-1.293-0.309V93.547z"/>
	<path fill="#595959" d="M31.215,89.074c-0.612,1.075-1.091,2.066-1.436,2.973c-0.346,0.906-0.56,1.706-0.643,2.398H28.46
		c0.062-0.442,0.18-0.933,0.353-1.471c0.172-0.538,0.391-1.104,0.656-1.701s0.605-1.267,1.02-2.012h-2.927v-0.566h3.653V89.074z"/>
	<path fill="#595959" d="M32.051,94.102c0-0.122,0.043-0.226,0.129-0.311s0.186-0.127,0.301-0.127c0.114,0,0.215,0.042,0.301,0.127
		s0.129,0.188,0.129,0.311c0,0.114-0.042,0.216-0.127,0.303s-0.186,0.131-0.303,0.131s-0.219-0.042-0.303-0.127
		C32.093,94.323,32.051,94.222,32.051,94.102z"/>
	<path fill="#595959" d="M33.704,91.687c0-1.016,0.166-1.784,0.496-2.305c0.331-0.521,0.808-0.781,1.431-0.781
		c1.195,0,1.793,0.981,1.793,2.945c0,0.969-0.166,1.71-0.498,2.225s-0.807,0.771-1.424,0.771c-0.584,0-1.029-0.249-1.337-0.748
		C33.858,93.296,33.704,92.594,33.704,91.687z M34.336,91.656c0,1.573,0.41,2.359,1.231,2.359c0.814,0,1.223-0.798,1.223-2.395
		c0-1.659-0.397-2.488-1.191-2.488C34.757,89.133,34.336,89.974,34.336,91.656z"/>
</g>
<g>
	<path fill="#595959" d="M23.311,138.512c0.396,0.312,0.839,0.469,1.329,0.469c0.4,0,0.725-0.102,0.971-0.305
		s0.369-0.478,0.369-0.824c0-0.769-0.541-1.152-1.621-1.152h-0.478v-0.527h0.454c0.961,0,1.441-0.359,1.441-1.078
		c0-0.664-0.366-0.996-1.098-0.996c-0.407,0-0.788,0.14-1.146,0.418v-0.621c0.365-0.219,0.799-0.328,1.302-0.328
		c0.458,0,0.835,0.126,1.131,0.379c0.295,0.253,0.443,0.582,0.443,0.988c0,0.753-0.385,1.241-1.152,1.465v0.012
		c0.414,0.036,0.744,0.181,0.99,0.434s0.369,0.566,0.369,0.941c0,0.523-0.189,0.941-0.568,1.254s-0.86,0.469-1.443,0.469
		c-0.537,0-0.968-0.103-1.294-0.309V138.512z"/>
	<path fill="#595959" d="M30.925,134.324c-0.302-0.151-0.615-0.227-0.941-0.227c-0.531,0-0.948,0.233-1.25,0.701
		s-0.452,1.083-0.449,1.846h0.02c0.266-0.55,0.704-0.824,1.316-0.824c0.508,0,0.91,0.164,1.207,0.492s0.445,0.757,0.445,1.285
		c0,0.544-0.167,0.999-0.502,1.363c-0.334,0.364-0.765,0.547-1.291,0.547c-0.591,0-1.045-0.231-1.361-0.695
		s-0.475-1.105-0.475-1.926c0-0.969,0.204-1.765,0.613-2.387s0.981-0.934,1.719-0.934c0.398,0,0.715,0.055,0.949,0.164V134.324z
		 M28.332,137.527c0,0.403,0.108,0.747,0.324,1.029s0.499,0.424,0.848,0.424c0.336,0,0.609-0.126,0.818-0.377
		c0.21-0.251,0.314-0.561,0.314-0.928c0-0.417-0.1-0.741-0.301-0.975c-0.2-0.233-0.48-0.35-0.84-0.35
		c-0.328,0-0.604,0.114-0.828,0.342S28.332,137.199,28.332,137.527z"/>
	<path fill="#595959" d="M32.05,139.066c0-0.122,0.043-0.226,0.129-0.311s0.187-0.127,0.301-0.127c0.115,0,0.215,0.042,0.301,0.127
		s0.129,0.188,0.129,0.311c0,0.114-0.042,0.216-0.127,0.303c-0.084,0.087-0.186,0.131-0.303,0.131s-0.218-0.042-0.303-0.127
		C32.093,139.288,32.05,139.186,32.05,139.066z"/>
	<path fill="#595959" d="M37.196,137.656c0,0.567-0.182,1.019-0.545,1.352s-0.85,0.5-1.459,0.5c-0.534,0-0.931-0.079-1.191-0.238
		v-0.672c0.398,0.255,0.798,0.383,1.199,0.383c0.411,0,0.743-0.119,0.994-0.357c0.252-0.238,0.377-0.548,0.377-0.928
		c0-0.388-0.127-0.688-0.383-0.9c-0.255-0.212-0.624-0.318-1.105-0.318c-0.323,0-0.647,0.02-0.973,0.059l0.195-2.875h2.637v0.566
		h-2.078l-0.125,1.73c0.2-0.019,0.384-0.027,0.551-0.027c0.597,0,1.063,0.154,1.4,0.463
		C37.028,136.701,37.196,137.122,37.196,137.656z"/>
</g>
<g>
	<path fill="#595959" d="M23.312,178.425c0.396,0.312,0.839,0.469,1.328,0.469c0.401,0,0.725-0.102,0.971-0.305
		s0.369-0.478,0.369-0.824c0-0.769-0.54-1.152-1.621-1.152h-0.477v-0.527h0.453c0.961,0,1.441-0.359,1.441-1.078
		c0-0.664-0.366-0.996-1.098-0.996c-0.406,0-0.788,0.14-1.145,0.418v-0.621c0.364-0.219,0.798-0.328,1.301-0.328
		c0.458,0,0.836,0.126,1.131,0.379c0.296,0.253,0.443,0.582,0.443,0.988c0,0.753-0.384,1.241-1.152,1.465v0.012
		c0.414,0.036,0.744,0.181,0.99,0.434s0.369,0.566,0.369,0.941c0,0.523-0.189,0.941-0.568,1.254s-0.86,0.469-1.443,0.469
		c-0.536,0-0.968-0.103-1.293-0.309V178.425z"/>
	<path fill="#595959" d="M30.926,174.237c-0.303-0.151-0.616-0.227-0.941-0.227c-0.531,0-0.948,0.233-1.25,0.701
		c-0.303,0.468-0.452,1.083-0.45,1.846h0.02c0.266-0.55,0.705-0.824,1.317-0.824c0.508,0,0.91,0.164,1.207,0.492
		s0.445,0.757,0.445,1.285c0,0.544-0.167,0.999-0.502,1.363s-0.766,0.547-1.291,0.547c-0.592,0-1.046-0.231-1.362-0.695
		s-0.475-1.105-0.475-1.926c0-0.969,0.205-1.765,0.613-2.387c0.409-0.622,0.982-0.934,1.72-0.934c0.398,0,0.715,0.055,0.949,0.164
		V174.237z M28.332,177.44c0,0.403,0.108,0.747,0.324,1.029c0.217,0.282,0.499,0.424,0.849,0.424c0.336,0,0.608-0.126,0.818-0.377
		c0.209-0.251,0.314-0.561,0.314-0.928c0-0.417-0.101-0.741-0.301-0.975c-0.201-0.233-0.48-0.35-0.84-0.35
		c-0.328,0-0.604,0.114-0.829,0.342C28.444,176.834,28.332,177.112,28.332,177.44z"/>
	<path fill="#595959" d="M32.051,178.979c0-0.122,0.043-0.226,0.129-0.311s0.186-0.127,0.301-0.127c0.114,0,0.215,0.042,0.301,0.127
		s0.129,0.188,0.129,0.311c0,0.114-0.042,0.216-0.127,0.303s-0.186,0.131-0.303,0.131s-0.219-0.042-0.303-0.127
		C32.093,179.201,32.051,179.1,32.051,178.979z"/>
	<path fill="#595959" d="M33.704,176.565c0-1.016,0.166-1.784,0.496-2.305c0.331-0.521,0.808-0.781,1.431-0.781
		c1.195,0,1.793,0.981,1.793,2.945c0,0.969-0.166,1.71-0.498,2.225s-0.807,0.771-1.424,0.771c-0.584,0-1.029-0.249-1.337-0.748
		C33.858,178.174,33.704,177.472,33.704,176.565z M34.336,176.534c0,1.573,0.41,2.359,1.231,2.359c0.814,0,1.223-0.798,1.223-2.395
		c0-1.659-0.397-2.488-1.191-2.488C34.757,174.011,34.336,174.852,34.336,176.534z"/>
</g>
<g>
	<path d="M144.501,19.037h-6.192v-0.756h6.192V19.037z M143.877,21.881c0,0.616-0.229,1.13-0.685,1.542s-1.044,0.618-1.764,0.618
		s-1.308-0.204-1.764-0.612s-0.685-0.924-0.685-1.548s0.229-1.142,0.685-1.554s1.044-0.618,1.764-0.618s1.308,0.206,1.764,0.618
		S143.877,21.257,143.877,21.881z M142.953,17.261h-3.084v-0.78h3.084V17.261z M142.965,21.881c0-0.416-0.145-0.754-0.433-1.014
		c-0.287-0.26-0.655-0.39-1.104-0.39c-0.44,0-0.806,0.132-1.098,0.396c-0.293,0.264-0.438,0.6-0.438,1.008
		c0,0.408,0.146,0.744,0.438,1.008c0.292,0.264,0.657,0.396,1.098,0.396c0.448,0,0.816-0.132,1.104-0.396
		C142.821,22.624,142.965,22.289,142.965,21.881z M148.125,20.957h-1.704v5.292h-0.912V15.761h0.912v4.428h1.704V20.957z"/>
	<path d="M153.909,26.165h-0.912v-3.336h-4.26v-0.768h9.468v0.768h-4.296V26.165z M157.317,20.957h-7.416v-2.82h6.216V16.96h-6.239
		v-0.768h7.151v2.7h-6.216v1.296h6.504V20.957z"/>
	<path d="M167.541,24.353c0,0.592-0.326,1.05-0.978,1.374c-0.652,0.324-1.559,0.486-2.718,0.486c-1.152,0-2.053-0.162-2.7-0.486
		c-0.648-0.324-0.972-0.782-0.972-1.374c0-0.544,0.279-0.976,0.84-1.296c0.56-0.32,1.348-0.504,2.363-0.552v-1.104h-4.26v-0.756
		h9.468v0.756h-4.296v1.104c1.024,0.04,1.822,0.22,2.395,0.54C167.254,23.365,167.541,23.801,167.541,24.353z M168.093,19.217
		l-0.408,0.768c-0.88-0.144-1.674-0.41-2.382-0.798c-0.708-0.388-1.194-0.822-1.458-1.302c-0.2,0.488-0.656,0.928-1.368,1.32
		c-0.712,0.392-1.532,0.656-2.46,0.792l-0.408-0.768c0.88-0.08,1.686-0.313,2.418-0.702s1.17-0.878,1.314-1.47h-3.336v-0.744h7.68
		v0.744h-3.3c0.144,0.576,0.594,1.062,1.35,1.458S167.277,19.144,168.093,19.217z M163.845,23.248c-0.849,0-1.517,0.094-2.004,0.282
		c-0.488,0.188-0.732,0.462-0.732,0.822c0,0.376,0.242,0.656,0.726,0.84c0.484,0.184,1.154,0.276,2.011,0.276
		c0.863,0,1.54-0.092,2.027-0.276c0.488-0.184,0.732-0.464,0.732-0.84c0-0.36-0.246-0.634-0.738-0.822
		S164.701,23.248,163.845,23.248z"/>
	<path d="M177.705,19.181h-2.028v0.348c0,0.904,0.214,1.666,0.643,2.286c0.428,0.62,0.954,1.09,1.578,1.41l-0.54,0.672
		c-0.465-0.256-0.902-0.618-1.314-1.086c-0.412-0.468-0.69-0.962-0.834-1.482c-0.12,0.536-0.384,1.064-0.792,1.584
		s-0.868,0.94-1.38,1.26l-0.516-0.624c0.655-0.4,1.189-0.936,1.602-1.608c0.412-0.672,0.618-1.468,0.618-2.388v-0.372h-2.017v-0.768
		h4.98V19.181z M173.84,17.405v-0.816h2.772v0.816H173.84z M178.544,21.064h-1.668v-0.756h1.668v-4.296h0.888v9.708h-0.888V21.064z
		 M181.544,26.248h-0.899V15.761h0.899V26.248z"/>
	<path d="M191.457,18.124c0,0.616-0.284,1.103-0.853,1.458c-0.567,0.356-1.367,0.558-2.399,0.606v1.152h4.296v0.756h-9.468v-0.756
		h4.26v-1.152c-1.024-0.048-1.814-0.25-2.37-0.606c-0.556-0.355-0.834-0.842-0.834-1.458c0-0.656,0.324-1.162,0.972-1.518
		c0.648-0.356,1.553-0.534,2.712-0.534c1.16,0,2.064,0.178,2.713,0.534C191.132,16.963,191.457,17.469,191.457,18.124z
		 M191.432,25.949h-7.151v-3.036h0.912v2.268h6.239V25.949z M189.819,17.165c-0.501-0.224-1.183-0.336-2.047-0.336
		c-0.863,0-1.544,0.112-2.04,0.336c-0.496,0.224-0.743,0.548-0.743,0.972c0,0.416,0.247,0.736,0.743,0.96
		c0.496,0.224,1.172,0.336,2.028,0.336c0.864,0,1.548-0.112,2.052-0.336c0.505-0.224,0.757-0.544,0.757-0.96
		C190.569,17.713,190.318,17.389,189.819,17.165z"/>
	<path d="M201.644,21.761h-4.608v-5.304h0.912v1.92h2.772v-1.92h0.924V21.761z M200.72,21.005v-1.872h-2.772v1.872H200.72z
		 M205.4,25.901h-7.02v-3.18h0.912v2.412h6.107V25.901z M205.136,15.761v7.74h-0.912v-2.904h-2.004v-0.756h2.004v-1.56h-2.004
		v-0.768h2.004v-1.752H205.136z"/>
	<path d="M213.488,23.416l0.061,0.744c-1.057,0.128-2.213,0.232-3.469,0.312c-0.775,0.048-1.823,0.072-3.144,0.072l-0.168-0.792
		c0.872,0.032,1.812,0.028,2.82-0.012v-1.044c-0.608-0.064-1.095-0.25-1.458-0.558c-0.364-0.308-0.547-0.698-0.547-1.17
		c0-0.544,0.229-0.976,0.685-1.296s1.056-0.48,1.8-0.48c0.752,0,1.354,0.16,1.806,0.48c0.452,0.32,0.679,0.752,0.679,1.296
		c0,0.48-0.185,0.872-0.553,1.176c-0.367,0.304-0.863,0.488-1.487,0.552v0.996C211.839,23.613,212.832,23.521,213.488,23.416z
		 M213.224,18.653h-6.24v-0.756h6.24V18.653z M211.664,20.969c0-0.304-0.146-0.55-0.438-0.738c-0.292-0.188-0.678-0.282-1.158-0.282
		c-0.472,0-0.858,0.094-1.158,0.282c-0.3,0.188-0.45,0.434-0.45,0.738c0,0.296,0.15,0.538,0.45,0.726s0.687,0.282,1.158,0.282
		c0.48,0,0.866-0.094,1.158-0.282S211.664,21.265,211.664,20.969z M211.556,17.045h-3.013v-0.768h3.013V17.045z M216.716,21.197
		h-1.681v5.052h-0.924V15.761h0.924v4.656h1.681V21.197z"/>
</g>
<g>
</g>
<g>
</g>
<g>
</g>
<g>
</g>
<g>
</g>
<g>
</g>
</svg>
