<?xml version="1.0" encoding="utf-8"?>
<!-- Generator: Adobe Illustrator 28.0.0, SVG Export Plug-In . SVG Version: 6.00 Build 0)  -->
<svg version="1.1" id="레이어_1" xmlns="http://www.w3.org/2000/svg" xmlns:xlink="http://www.w3.org/1999/xlink" x="0px"
	 y="0px" viewBox="0 0 359.738 272.374" enable-background="new 0 0 359.738 272.374" xml:space="preserve">
<g>
	<polygon fill="#5893C9" points="75.098,166.728 110.618,166.728 110.618,222.376 75.098,222.376 75.098,166.728 	"/>
</g>
<polygon fill="#5893C9" points="131.803,166.728 167.324,166.728 167.324,222.376 131.803,222.376 131.803,166.728 "/>
<polygon fill="#E37933" points="131.803,148.251 167.324,148.251 167.324,166.728 131.803,166.728 131.803,148.251 "/>
<g>
	<polygon fill="#5893C9" points="188.429,166.728 223.95,166.728 223.95,222.376 188.429,222.376 188.429,166.728 	"/>
	<polygon fill="#E37933" points="188.429,88.929 223.95,88.929 223.95,166.728 188.429,166.728 188.429,88.929 	"/>
</g>
<g>
	<polygon fill="#5893C9" points="245.135,166.728 280.655,166.728 280.655,222.376 245.135,222.376 245.135,166.728 	"/>
	<polygon fill="#E37933" points="245.135,74.125 280.655,74.125 280.655,166.728 245.135,166.728 245.135,74.125 	"/>
</g>
<g>
	<polygon fill="#5893C9" points="301.84,166.728 337.361,166.728 337.361,222.376 301.84,222.376 301.84,166.728 	"/>
	<polygon fill="#E37933" points="301.84,74.125 337.361,74.125 337.361,166.728 301.84,166.728 301.84,74.125 	"/>
	<polygon fill-rule="evenodd" clip-rule="evenodd" fill="#DD262C" points="301.84,0 337.361,0 337.361,74.125 301.84,74.125 
		301.84,0 	"/>
</g>
<g>
	<path d="M80.125,126.817c-1.419,0-2.523-0.409-3.313-1.229c-0.791-0.818-1.186-2.037-1.186-3.656v-0.356
		c0-0.857,0.119-1.607,0.357-2.25c0.238-0.643,0.573-1.149,1.007-1.521c0.433-0.372,0.923-0.647,1.471-0.829
		c0.547-0.181,1.154-0.271,1.821-0.271c1.066,0,1.899,0.162,2.5,0.486v1.528c-0.876-0.286-1.624-0.429-2.242-0.429
		c-0.867,0-1.541,0.252-2.021,0.757c-0.481,0.505-0.722,1.285-0.722,2.343v0.485c0,1.095,0.219,1.923,0.657,2.485
		c0.438,0.562,1.138,0.843,2.1,0.843c0.79,0,1.557-0.167,2.299-0.5v1.528C82.148,126.623,81.239,126.817,80.125,126.817z"/>
	<path d="M83.467,126.66l3.485-9.798h2.114l3.442,9.798h-2.085l-0.814-2.342h-3.485l-0.8,2.342H83.467z M87.809,119.162
		l-1.229,3.714h2.557l-1.271-3.714H87.809z"/>
	<path d="M93.651,126.66v-9.798h6.284v1.528h-4.256v2.485h3.328v1.514h-3.328v2.714h4.356v1.557H93.651z"/>
	<path d="M101.735,126.66v-9.798h2.271l3.785,6.514h0.043v-6.514h1.785v9.798h-2l-4.056-7.026h-0.043v7.026H101.735z"/>
</g>
<line stroke="#000000" stroke-width="0.5154" stroke-miterlimit="10" stroke-dasharray="3.0921,3.0921,2.0614,0,0,0" x1="347.711" y1="74.125" x2="52.745" y2="74.125"/>
<line fill="none" stroke="#000000" stroke-width="0.5154" stroke-miterlimit="10" stroke-dasharray="3.0921,3.0921,2.0614,0,0,0" x1="347.711" y1="148.251" x2="52.745" y2="148.251"/>
<g>
	<g>
		<line fill="none" stroke="#000000" stroke-miterlimit="10" x1="114.284" y1="81.186" x2="114.284" y2="159.668"/>
		<g>
			<polygon points="114.284,74.125 110.219,84.075 114.284,81.714 118.348,84.075 			"/>
		</g>
		<g>
			<polygon points="114.284,166.728 110.219,156.779 114.284,159.14 118.348,156.779 			"/>
		</g>
	</g>
</g>
<g>
	<path d="M43.966,258.532l-0.549-1.146l5.098-2.441l0.549,1.147l-1.775,0.85c0.269,0.413,0.685,0.688,1.248,0.826
		c0.562,0.139,1.115,0.145,1.658,0.019c-0.054,0.629-0.099,1.093-0.132,1.394c-0.442,0.113-0.952,0.109-1.529-0.014
		c-0.578-0.122-1.038-0.318-1.38-0.59c0.027,0.43-0.088,0.914-0.35,1.451s-0.6,0.994-1.014,1.37
		c-0.205-0.132-0.607-0.387-1.205-0.767c0.501-0.436,0.866-0.919,1.096-1.449c0.229-0.531,0.26-1.036,0.092-1.515L43.966,258.532z
		 M44.334,256.467l-0.544-1.137l2.879-1.378l0.544,1.136L44.334,256.467z M54.741,261.529l-6.419,3.073l-1.617-3.377l6.419-3.073
		L54.741,261.529z M52.761,261.119l-0.569-1.189l-3.528,1.689l0.57,1.189L52.761,261.119z M52.932,257.752l-1.45,0.694l-2.757-5.758
		l1.45-0.694L52.932,257.752z"/>
	<path d="M56.227,256.853l0.216-0.104c1.062-0.508,1.846-0.963,2.354-1.365l0.659,1.015c-0.719,0.557-1.741,1.153-3.068,1.788
		l-1.039,0.498l-3.032-6.332l3.658-1.752l0.534,1.115l-2.229,1.067L56.227,256.853z M64.37,257.052l-1.363,0.653l-2.28-4.763
		l-0.714,0.342l2.067,4.318l-1.342,0.643l-4.327-9.038l1.342-0.643l1.71,3.572l0.715-0.342l-1.788-3.734l1.363-0.652L64.37,257.052z
		"/>
	<path d="M71.528,253.078l-1.32,0.633l-2.129-4.448l-0.596,0.285c0.216,0.562,0.354,1.092,0.415,1.59
		c0.062,0.499,0.006,0.971-0.166,1.417c-0.173,0.446-0.479,0.774-0.919,0.985c-0.49,0.235-0.99,0.248-1.498,0.038
		c-0.508-0.208-0.949-0.538-1.325-0.988c-0.374-0.449-0.709-0.981-1.003-1.595c-0.287-0.6-0.485-1.181-0.596-1.744
		c-0.109-0.563-0.085-1.104,0.074-1.625c0.158-0.521,0.483-0.896,0.975-1.132c0.426-0.204,0.857-0.242,1.296-0.114
		c0.437,0.127,0.826,0.355,1.165,0.685c0.34,0.33,0.66,0.742,0.959,1.237l0.617-0.295l-1.586-3.312l1.32-0.633L71.528,253.078z
		 M65.909,249.623c-0.695-1.451-1.301-2.052-1.82-1.803c-0.513,0.245-0.422,1.093,0.272,2.544c0.691,1.442,1.292,2.041,1.805,1.796
		C66.686,251.911,66.6,251.066,65.909,249.623z M73.733,252.57l-1.343,0.643l-4.617-9.645l1.342-0.643L73.733,252.57z"/>
	<path d="M79.134,245.845l-0.256,1.547c-0.565-0.03-1.18-0.17-1.843-0.415c-0.663-0.246-1.171-0.56-1.521-0.941
		c0.112,0.531,0.067,1.17-0.135,1.914s-0.474,1.344-0.815,1.8l-1.404-0.685c1.106-1.708,1.18-3.566,0.219-5.572l-0.637-1.332
		l1.482-0.71l0.617,1.288C75.77,244.68,77.2,245.715,79.134,245.845z M82.922,248.17l-1.45,0.694l-2.487-5.195l-1.754,0.839
		l-0.57-1.19l1.754-0.84l-1.56-3.258l1.45-0.694L82.922,248.17z"/>
	<path d="M92.096,235.208l-7.987,3.825l-0.539-1.126l7.987-3.825L92.096,235.208z M85.623,236.472l-0.529-1.104l3.528-1.688
		l0.529,1.104L85.623,236.472z M90.471,244.541l-1.45,0.694l-0.979-2.046l-1.948,0.934l-0.539-1.126l8.713-4.172l0.539,1.126
		l-2.013,0.964l0.979,2.045l-1.43,0.685l-0.979-2.046l-1.873,0.896L90.471,244.541z M90.863,236.651
		c0.719,0.01,1.192,0.254,1.421,0.729c0.228,0.477,0.12,0.993-0.322,1.551c-0.442,0.559-1.184,1.086-2.222,1.584
		c-1.039,0.497-1.911,0.741-2.616,0.732c-0.705-0.008-1.171-0.25-1.398-0.727c-0.229-0.476-0.125-0.996,0.311-1.56
		c0.436-0.562,1.169-1.092,2.201-1.586C89.269,236.881,90.144,236.64,90.863,236.651z M90.42,238.725
		c0.272-0.255,0.376-0.45,0.311-0.587c-0.065-0.138-0.282-0.178-0.649-0.122c-0.368,0.057-0.809,0.207-1.32,0.452
		c-0.506,0.242-0.895,0.489-1.17,0.74c-0.274,0.251-0.379,0.445-0.312,0.583c0.064,0.137,0.281,0.179,0.646,0.128
		c0.366-0.051,0.805-0.198,1.317-0.444C89.755,239.23,90.147,238.98,90.42,238.725z"/>
	<path d="M99.717,233.315l-0.224,1.506c-0.463,0.053-0.989,0-1.578-0.156c-0.59-0.157-1.064-0.389-1.424-0.695
		c0.078,0.495-0.018,1.058-0.284,1.687c-0.267,0.628-0.6,1.136-1,1.522l-1.275-0.773c0.604-0.59,0.979-1.247,1.126-1.969
		c0.146-0.723,0.051-1.437-0.287-2.144l-0.379-0.79l1.461-0.7l0.343,0.715c0.352,0.735,0.836,1.241,1.452,1.52
		C98.264,233.313,98.953,233.405,99.717,233.315z M96.126,237.43l6.624-3.172l1.726,3.604l-1.439,0.689l-1.188-2.479l-5.184,2.482
		L96.126,237.43z M102.558,233.885l-1.461,0.699l-2.716-5.671l1.461-0.7L102.558,233.885z"/>
</g>
<g>
	<path d="M119.669,248.908l-0.131,1.394c-0.521,0.099-1.082,0.094-1.684-0.014c-0.601-0.105-1.086-0.307-1.457-0.599
		c0.035,0.48-0.099,1.017-0.4,1.609s-0.678,1.084-1.129,1.478l-1.236-0.832c1.323-1.184,1.734-2.36,1.236-3.531l-2.045,0.979
		l-0.539-1.126l5.487-2.627l0.539,1.125l-1.98,0.948c0.28,0.514,0.725,0.868,1.333,1.065
		C118.272,248.974,118.941,249.018,119.669,248.908z M121.248,252.344c-0.902,0.635-1.986,1.279-3.254,1.93
		c-1.028,0.537-1.864,0.959-2.506,1.267l-0.729-1.048c0.605-0.29,1.437-0.705,2.49-1.246l-0.912-1.905l1.429-0.684l0.876,1.829
		c0.625-0.343,1.288-0.736,1.989-1.179L121.248,252.344z M119.389,243.96l1.818,3.799l1.147-0.549l0.565,1.18l-1.147,0.55
		l2.233,4.665l-1.417,0.679l-4.618-9.645L119.389,243.96z"/>
	<path d="M128.929,244.434l-0.225,1.506c-0.462,0.053-0.988,0-1.577-0.156c-0.59-0.157-1.064-0.389-1.425-0.695
		c0.078,0.495-0.017,1.058-0.283,1.687c-0.267,0.628-0.6,1.136-1,1.522l-1.275-0.773c0.604-0.59,0.979-1.247,1.126-1.969
		c0.146-0.723,0.051-1.437-0.288-2.144l-0.379-0.79l1.462-0.7l0.342,0.715c0.353,0.735,0.836,1.241,1.453,1.52
		C127.475,244.432,128.166,244.525,128.929,244.434z M125.337,248.549l6.625-3.172l1.726,3.604l-1.44,0.689l-1.187-2.479
		l-5.185,2.482L125.337,248.549z M131.769,245.004l-1.461,0.699l-2.716-5.671l1.462-0.7L131.769,245.004z"/>
	<path d="M137.24,240.535l-0.229,1.467c-0.383,0.016-0.82-0.06-1.312-0.224s-0.87-0.377-1.138-0.64
		c0.049,0.492-0.003,1.009-0.155,1.551c-0.152,0.544-0.388,0.993-0.704,1.349l-1.324-0.735c0.485-0.561,0.757-1.194,0.813-1.9
		c0.057-0.705-0.081-1.404-0.412-2.098l-0.368-0.768l1.396-0.669l0.352,0.735c0.312,0.65,0.733,1.143,1.266,1.477
		C135.958,240.415,136.563,240.568,137.24,240.535z M142.305,242.474c0.28,0.584,0.192,1.197-0.265,1.836
		c-0.457,0.64-1.219,1.216-2.286,1.727c-1.054,0.505-1.968,0.731-2.741,0.681c-0.773-0.05-1.301-0.368-1.58-0.953
		c-0.276-0.577-0.191-1.181,0.256-1.812c0.448-0.632,1.198-1.199,2.252-1.704c1.067-0.511,1.993-0.745,2.775-0.703
		C141.5,241.587,142.029,241.897,142.305,242.474z M141.436,240.629l-1.343,0.643l-1.166-2.436l-0.648,0.311l0.969,2.024
		l-1.288,0.617l-2.534-5.293l1.288-0.617l1.026,2.144l0.648-0.312l-1.108-2.316l1.342-0.643L141.436,240.629z M140.823,243.184
		c-0.11-0.231-0.376-0.327-0.797-0.29c-0.422,0.037-0.935,0.202-1.541,0.492c-0.585,0.279-1.021,0.572-1.309,0.879
		s-0.378,0.571-0.271,0.795c0.118,0.245,0.387,0.354,0.808,0.325c0.422-0.028,0.924-0.183,1.508-0.462
		c0.614-0.294,1.063-0.596,1.35-0.906S140.941,243.429,140.823,243.184z"/>
	<path d="M146.565,233.809l-5.498,2.633l-0.472-0.985l5.498-2.632L146.565,233.809z M141.987,234.444l-0.456-0.952l2.673-1.279
		l0.456,0.952L141.987,234.444z M148.439,237.277c-1.775,1.089-3.656,2.108-5.641,3.059c-0.178-0.242-0.408-0.575-0.691-0.999
		c0.516-0.221,1.062-0.469,1.639-0.745l0.758-0.363l-0.113-0.237c-0.54,0.17-1.009,0.223-1.407,0.161
		c-0.397-0.062-0.664-0.234-0.799-0.516c-0.18-0.375-0.105-0.786,0.223-1.23c0.328-0.445,0.842-0.836,1.542-1.171
		c0.699-0.335,1.329-0.492,1.889-0.473c0.561,0.021,0.932,0.223,1.115,0.604c0.134,0.281,0.099,0.596-0.108,0.943
		c-0.206,0.347-0.544,0.677-1.015,0.991l0.082,0.173c0.734-0.413,1.393-0.799,1.974-1.157
		C148.021,236.544,148.206,236.863,148.439,237.277z M145.513,236.056c-0.115-0.238-0.489-0.205-1.124,0.099
		c-0.636,0.304-0.896,0.574-0.781,0.813c0.041,0.086,0.159,0.123,0.353,0.11c0.192-0.012,0.445-0.094,0.755-0.242
		c0.311-0.148,0.531-0.293,0.663-0.437C145.509,236.257,145.554,236.143,145.513,236.056z M152.339,240.117l-6.926,3.316
		l-0.975-2.035l5.281-2.528l-0.16-0.336l-5.293,2.534l-0.44-0.919l6.722-3.219l0.994,2.078l-5.271,2.523l0.155,0.325l5.487-2.627
		L152.339,240.117z M150.429,233.82l-1.115,0.534l1.032,2.154l-1.418,0.679l-2.871-5.996l1.418-0.679l1.28,2.673l1.114-0.533
		L150.429,233.82z"/>
</g>
<g>
	<path d="M148.006,257.299c0.64,1.281,1.091,2.493,1.354,3.637l1.374-0.658l0.539,1.125l-8.713,4.172l-0.539-1.126l6.019-2.881
		c-0.063-0.28-0.192-0.679-0.385-1.193c-0.193-0.515-0.372-0.933-0.534-1.255l-5.055,2.421l-0.545-1.137L148.006,257.299z
		 M144.161,266.245l6.58-3.15l1.705,3.56l-1.429,0.685l-1.166-2.435l-5.151,2.467L144.161,266.245z"/>
	<path d="M158.573,259.584l-0.262,1.51c-0.537-0.046-1.152-0.21-1.846-0.494c-0.695-0.283-1.223-0.614-1.58-0.993
		c0.107,0.578,0.068,1.249-0.121,2.015c-0.188,0.764-0.451,1.377-0.788,1.84l-1.373-0.699c0.577-0.854,0.878-1.729,0.904-2.629
		c0.025-0.898-0.21-1.877-0.707-2.935l-1.851,0.886l-0.57-1.189l5.185-2.482l0.569,1.19l-1.85,0.886
		C155.254,258.462,156.685,259.495,158.573,259.584z M162.213,261.992l-1.461,0.699l-4.618-9.644l1.462-0.7L162.213,261.992z"/>
	<path d="M166.269,254.569l-4.653,2.229l-2.208-4.611l1.417-0.679l0.622,1.299l1.797-0.86l-0.632-1.32l1.439-0.688L166.269,254.569z
		 M164.286,254.121l-0.514-1.072l-1.797,0.86l0.514,1.072L164.286,254.121z M170.281,255.695c0.287,0.599,0.208,1.218-0.235,1.856
		c-0.444,0.638-1.196,1.211-2.257,1.719c-1.054,0.505-1.965,0.728-2.733,0.67c-0.768-0.058-1.296-0.387-1.583-0.985
		c-0.29-0.606-0.219-1.23,0.215-1.872c0.433-0.643,1.177-1.215,2.23-1.72c1.061-0.508,1.979-0.731,2.76-0.669
		C169.456,254.754,169.991,255.088,170.281,255.695z M166.467,256.51c-0.607,0.29-1.048,0.592-1.323,0.905s-0.353,0.597-0.231,0.85
		s0.389,0.368,0.805,0.347c0.415-0.021,0.926-0.177,1.532-0.467c0.628-0.301,1.078-0.605,1.352-0.914
		c0.274-0.309,0.351-0.589,0.229-0.842s-0.389-0.371-0.802-0.354C167.615,256.05,167.094,256.209,166.467,256.51z M169.525,250.921
		l-1.343,0.643l1.031,2.153l-1.428,0.684l-2.7-5.639l1.429-0.684l1.109,2.316l1.342-0.643L169.525,250.921z"/>
	<path d="M178.94,253.438l-1.32,0.633l-2.131-4.448l-0.596,0.285c0.217,0.562,0.355,1.092,0.416,1.59
		c0.062,0.499,0.006,0.971-0.166,1.417s-0.479,0.774-0.919,0.985c-0.491,0.235-0.99,0.248-1.498,0.038
		c-0.509-0.208-0.949-0.538-1.325-0.988c-0.375-0.449-0.709-0.981-1.004-1.595c-0.286-0.6-0.484-1.181-0.595-1.745
		c-0.11-0.562-0.086-1.104,0.073-1.624s0.484-0.896,0.975-1.132c0.426-0.204,0.857-0.242,1.296-0.114
		c0.438,0.127,0.827,0.355,1.166,0.685c0.34,0.33,0.659,0.742,0.959,1.237l0.617-0.295l-1.586-3.312l1.32-0.633L178.94,253.438z
		 M173.32,249.983c-0.694-1.451-1.302-2.052-1.821-1.803c-0.513,0.245-0.422,1.093,0.273,2.543c0.69,1.443,1.292,2.042,1.805,1.797
		C174.096,252.271,174.01,251.425,173.32,249.983z M181.143,252.929l-1.342,0.643l-4.617-9.645l1.342-0.642L181.143,252.929z"/>
	<path d="M186.545,246.204l-0.258,1.547c-0.564-0.03-1.18-0.17-1.842-0.415c-0.663-0.246-1.171-0.56-1.521-0.941
		c0.112,0.531,0.067,1.17-0.135,1.914c-0.203,0.744-0.475,1.344-0.814,1.8l-1.405-0.685c1.106-1.708,1.179-3.566,0.219-5.572
		l-0.638-1.332l1.482-0.71l0.617,1.288C183.18,245.039,184.612,246.074,186.545,246.204z M190.333,248.529l-1.451,0.694
		l-2.486-5.195l-1.754,0.839l-0.57-1.19l1.754-0.84l-1.561-3.258l1.45-0.694L190.333,248.529z"/>
	<path d="M199.309,235.436l-7.759,3.716l-0.514-1.071l7.761-3.716L199.309,235.436z M192.997,236.756l-0.492-1.029l3.529-1.688
		l0.492,1.028L192.997,236.756z M198.809,242.394l-1.438,0.689l-0.551-1.147l-3.691,1.768l-0.539-1.126l8.712-4.172l0.539,1.126
		l-3.582,1.715L198.809,242.394z M199.256,237.377c0.186,0.391,0.08,0.834-0.322,1.331c-0.4,0.499-1.113,0.992-2.137,1.482
		c-1.031,0.494-1.865,0.741-2.5,0.738c-0.635-0.001-1.046-0.197-1.232-0.587c-0.19-0.396-0.089-0.848,0.303-1.354
		c0.391-0.507,1.103-1.008,2.135-1.502c1.023-0.491,1.857-0.729,2.502-0.719S199.064,236.981,199.256,237.377z M202.146,242.779
		l-6.785,3.249l-1.089-2.272l1.417-0.679l0.561,1.168l5.367-2.57L202.146,242.779z M197.68,238.145
		c-0.131-0.273-0.703-0.169-1.713,0.314c-1.023,0.491-1.47,0.873-1.34,1.147c0.031,0.065,0.102,0.104,0.211,0.119
		c0.109,0.014,0.295-0.015,0.557-0.087s0.582-0.198,0.957-0.378C197.361,238.778,197.805,238.404,197.68,238.145z"/>
	<path d="M207.033,235.783c-0.732,0.509-1.77,1.086-3.111,1.729c-0.34,0.162-0.836,0.392-1.492,0.688l-1.52-3.172l2.891-1.383
		l-0.42-0.876l-2.879,1.378l-0.555-1.158l4.318-2.067l1.492,3.116l-2.879,1.379l0.467,0.975c0.129-0.045,0.354-0.143,0.67-0.295
		c0.902-0.432,1.699-0.889,2.391-1.37c0.066,0.101,0.135,0.211,0.205,0.328c0.068,0.117,0.145,0.249,0.229,0.396
		C206.922,235.596,206.988,235.707,207.033,235.783z M211.924,237.911l-6.766,3.239l-1.389-2.9l1.439-0.689l0.855,1.785l5.324-2.55
		L211.924,237.911z M210.656,235.738l-1.449,0.693l-1.137-2.371l-1.244,0.597l-0.545-1.137l1.246-0.596l-0.432-0.898l-1.254,0.601
		l-0.561-1.168l1.256-0.602l-0.756-1.58l1.449-0.694L210.656,235.738z"/>
</g>
<g>
	<path d="M204.399,257.438l-0.56-1.169l5.088-2.436l0.559,1.169l-1.775,0.851c0.369,0.604,0.849,1.02,1.437,1.248
		s1.231,0.295,1.932,0.199l-0.241,1.499c-0.455,0.067-0.979,0.022-1.572-0.132c-0.593-0.155-1.07-0.387-1.43-0.692
		c0.078,0.477-0.016,1.036-0.281,1.677c-0.265,0.643-0.603,1.154-1.014,1.537l-1.27-0.789c0.568-0.556,0.934-1.159,1.097-1.809
		c0.163-0.65,0.109-1.322-0.161-2.019L204.399,257.438z M214.908,259.631c0.28,0.584,0.197,1.189-0.248,1.814
		c-0.445,0.626-1.198,1.192-2.259,1.7c-1.054,0.505-1.964,0.734-2.731,0.689c-0.766-0.046-1.289-0.36-1.569-0.945
		c-0.283-0.592-0.205-1.203,0.233-1.834c0.438-0.631,1.188-1.201,2.248-1.709s1.977-0.735,2.746-0.683
		C214.099,258.717,214.625,259.038,214.908,259.631z M210.042,256.719l-0.555-1.158l1.32-0.632l-1.072-2.241l1.45-0.694l2.768,5.779
		l-1.451,0.695l-1.14-2.381L210.042,256.719z M211.126,260.484c-0.613,0.293-1.059,0.591-1.335,0.893
		c-0.277,0.301-0.357,0.574-0.24,0.819c0.111,0.23,0.372,0.332,0.784,0.304c0.411-0.029,0.921-0.188,1.527-0.479
		c0.62-0.298,1.07-0.594,1.349-0.893c0.279-0.298,0.361-0.565,0.247-0.803c-0.117-0.245-0.38-0.355-0.788-0.328
		C212.261,260.025,211.747,260.186,211.126,260.484z"/>
	<path d="M220.341,247.995c0.536,1.065,0.912,2.118,1.127,3.16l1.374-0.658l0.539,1.125l-8.713,4.172l-0.539-1.125l6.019-2.882
		c-0.121-0.643-0.354-1.303-0.696-1.982l-5.055,2.42l-0.539-1.125L220.341,247.995z M225.026,257.061l-6.883,3.296l-1.275-2.663
		l5.152-2.467l-0.274-0.573l-5.163,2.472l-0.544-1.136l6.592-3.156l1.284,2.684l-5.162,2.472l0.259,0.542l5.466-2.616
		L225.026,257.061z"/>
	<path d="M232.539,253.078l-1.32,0.632l-2.129-4.448l-0.596,0.285c0.216,0.562,0.354,1.092,0.415,1.59
		c0.062,0.499,0.006,0.971-0.166,1.417c-0.173,0.446-0.479,0.774-0.919,0.985c-0.49,0.235-0.99,0.248-1.498,0.039
		s-0.949-0.538-1.325-0.989c-0.374-0.449-0.709-0.981-1.003-1.595c-0.287-0.6-0.485-1.18-0.596-1.744
		c-0.109-0.563-0.085-1.104,0.074-1.625c0.158-0.52,0.483-0.896,0.975-1.132c0.426-0.203,0.857-0.242,1.296-0.114
		c0.437,0.127,0.826,0.355,1.165,0.685c0.34,0.33,0.66,0.742,0.959,1.237l0.617-0.295l-1.586-3.312l1.32-0.632L232.539,253.078z
		 M226.92,249.622c-0.695-1.451-1.301-2.052-1.82-1.803c-0.513,0.245-0.422,1.093,0.272,2.544c0.691,1.442,1.292,2.041,1.805,1.796
		C227.696,251.91,227.61,251.065,226.92,249.622z M234.744,252.569l-1.343,0.643l-4.617-9.644l1.342-0.643L234.744,252.569z"/>
	<path d="M240.145,245.844l-0.256,1.547c-0.565-0.03-1.18-0.17-1.843-0.415c-0.663-0.246-1.171-0.56-1.521-0.94
		c0.112,0.53,0.067,1.169-0.135,1.913s-0.474,1.345-0.815,1.8l-1.404-0.684c1.106-1.709,1.18-3.567,0.219-5.573l-0.637-1.331
		l1.482-0.71l0.617,1.287C236.78,244.679,238.211,245.714,240.145,245.844z M243.933,248.169l-1.45,0.694l-2.487-5.195l-1.754,0.84
		l-0.57-1.191l1.754-0.84l-1.56-3.258l1.45-0.694L243.933,248.169z"/>
	<path d="M252.91,235.075l-7.761,3.716l-0.513-1.071l7.76-3.716L252.91,235.075z M246.598,236.396l-0.493-1.028l3.528-1.689
		l0.492,1.028L246.598,236.396z M252.41,242.034l-1.439,0.688l-0.549-1.147l-3.691,1.768l-0.539-1.126l8.713-4.171l0.539,1.125
		l-3.583,1.716L252.41,242.034z M252.855,237.018c0.187,0.39,0.08,0.834-0.32,1.331c-0.4,0.498-1.113,0.991-2.138,1.482
		c-1.032,0.493-1.865,0.74-2.501,0.737c-0.635-0.001-1.045-0.197-1.232-0.587c-0.189-0.396-0.089-0.848,0.303-1.354
		s1.104-1.008,2.135-1.502c1.024-0.49,1.859-0.729,2.503-0.719S252.665,236.62,252.855,237.018z M255.748,242.418l-6.787,3.25
		l-1.088-2.273l1.417-0.679l0.56,1.168l5.369-2.57L255.748,242.418z M251.28,237.785c-0.132-0.274-0.702-0.17-1.712,0.314
		c-1.025,0.49-1.471,0.873-1.34,1.146c0.031,0.065,0.101,0.104,0.21,0.119c0.108,0.014,0.294-0.015,0.558-0.087
		c0.262-0.072,0.58-0.198,0.956-0.378C250.962,238.417,251.404,238.045,251.28,237.785z"/>
	<path d="M260.633,235.423c-0.731,0.509-1.768,1.086-3.11,1.729c-0.339,0.162-0.837,0.392-1.493,0.688l-1.518-3.172l2.889-1.384
		l-0.419-0.876l-2.88,1.379l-0.555-1.158l4.319-2.068l1.492,3.117l-2.879,1.378l0.467,0.975c0.129-0.045,0.353-0.143,0.67-0.295
		c0.902-0.432,1.699-0.889,2.392-1.37c0.065,0.101,0.133,0.211,0.203,0.328c0.069,0.117,0.146,0.25,0.229,0.396
		C260.523,235.236,260.588,235.347,260.633,235.423z M265.524,237.551l-6.765,3.239l-1.389-2.9l1.439-0.689l0.854,1.785l5.325-2.55
		L265.524,237.551z M264.257,235.378l-1.45,0.694l-1.135-2.371l-1.245,0.596l-0.544-1.137l1.244-0.596l-0.43-0.898l-1.256,0.602
		l-0.56-1.169l1.256-0.602l-0.757-1.58l1.45-0.694L264.257,235.378z"/>
</g>
<g>
	<path d="M268.632,257.938c0.246-0.101,0.552-0.261,0.921-0.481s0.65-0.417,0.843-0.59l0.715,1.162
		c-0.984,0.684-2.102,1.276-3.353,1.777l-1.788-3.734l3.236-1.549l0.539,1.126l-1.797,0.86L268.632,257.938z M274.615,263.041
		l-1.417,0.679l-1.581-3.3l-3.637,1.741l-0.545-1.138l8.713-4.172l0.545,1.138l-3.658,1.752L274.615,263.041z M274.997,256.419
		l-3.345,1.602l-1.818-3.799l3.269-1.565l0.544,1.137l-1.818,0.87l0.735,1.537l1.895-0.906L274.997,256.419z"/>
	<path d="M285.071,253.591l-6.786,3.25l-1.565-3.269l5.109-2.446l-0.451-0.942l-5.119,2.451l-0.549-1.146l6.547-3.135l1.545,3.226
		l-5.109,2.446l0.482,1.006l5.357-2.565L285.071,253.591z M287.092,255.671l-8.713,4.172l-0.55-1.147l8.713-4.172L287.092,255.671z"
		/>
	<path d="M293.975,248.651l-6.581,3.151l-2.249-4.697l6.505-3.115l0.544,1.137l-5.087,2.436l1.161,2.424l5.162-2.472
		L293.975,248.651z M295.868,249.966l0.539,1.126l-8.713,4.171l-0.539-1.126L295.868,249.966z"/>
	<path d="M304.674,239.097l-7.133,3.415l-0.544-1.137l7.133-3.415L304.674,239.097z M306.497,242.96l-7.101,3.399l-0.533-1.114
		l1.353-0.647l-1.318-2.003l1.355-0.81l1.272,2.186l1.829-0.876l-0.867-2.366l1.491-0.527l0.653,2.282l1.331-0.638L306.497,242.96z
		 M308.615,245.246l-8.713,4.172l-0.538-1.126l8.713-4.172L308.615,245.246z"/>
	<path d="M313.31,239.1c-0.276,0.239-0.758,0.561-1.447,0.965c-0.688,0.406-1.336,0.754-1.941,1.044
		c-0.174,0.083-0.355,0.168-0.545,0.253c-0.188,0.087-0.4,0.182-0.635,0.285s-0.416,0.187-0.547,0.248l-1.451-3.03l2.857-1.368
		l-0.362-0.758l-2.857,1.368l-0.539-1.126l4.319-2.067l1.404,2.933l-2.879,1.379l0.42,0.876c0.28-0.115,0.508-0.216,0.681-0.299
		c1.184-0.566,2.146-1.142,2.885-1.728C312.958,238.524,313.17,238.865,313.31,239.1z M315.076,239.691
		c0.757,0.056,1.276,0.374,1.556,0.958c0.28,0.585,0.204,1.191-0.227,1.818c-0.432,0.628-1.163,1.189-2.194,1.683
		c-1.039,0.498-1.937,0.717-2.692,0.657s-1.273-0.381-1.554-0.966c-0.276-0.577-0.2-1.179,0.228-1.806
		c0.427-0.624,1.16-1.187,2.199-1.685C313.424,239.858,314.317,239.637,315.076,239.691z M314.393,241.029
		c-0.404,0.008-0.896,0.15-1.473,0.426c-0.577,0.276-0.996,0.568-1.257,0.876c-0.262,0.307-0.336,0.575-0.226,0.806
		c0.11,0.231,0.365,0.339,0.767,0.325c0.401-0.015,0.891-0.16,1.468-0.437c0.584-0.28,1.005-0.572,1.263-0.878
		c0.258-0.305,0.333-0.569,0.226-0.793C315.054,241.13,314.798,241.022,314.393,241.029z M315.814,235.745l-1.342,0.643l1.114,2.327
		l-1.418,0.68l-2.778-5.802l1.418-0.68l1.104,2.306l1.342-0.643L315.814,235.745z"/>
	<path d="M325.184,232.39l-0.084,1.464c-0.751,0.191-1.587,0.221-2.505,0.089c-0.92-0.133-1.66-0.462-2.225-0.991
		c0.066,0.768-0.131,1.546-0.592,2.333c-0.461,0.788-1.007,1.423-1.638,1.901c-0.07-0.055-0.251-0.182-0.541-0.38
		c-0.29-0.197-0.511-0.354-0.663-0.467c0.807-0.52,1.416-1.234,1.827-2.146c0.41-0.91,0.417-1.781,0.021-2.611l-0.275-0.573
		l1.537-0.736l0.275,0.574c0.396,0.829,1.074,1.37,2.032,1.621S324.256,232.693,325.184,232.39z M327.345,236.291l-8.713,4.172
		l-0.544-1.136l8.713-4.172L327.345,236.291z"/>
</g>
<g>
	<path d="M0.576,81.075v-0.983l1.428-1.524c0.472-0.504,0.832-0.902,1.08-1.194s0.482-0.632,0.702-1.02
		c0.22-0.388,0.33-0.734,0.33-1.038c0-0.472-0.13-0.806-0.39-1.002c-0.26-0.196-0.654-0.294-1.182-0.294
		c-0.48,0-1.032,0.164-1.656,0.492L0.672,73.3c0.696-0.393,1.488-0.589,2.376-0.589c0.936,0,1.642,0.202,2.118,0.606
		s0.714,0.99,0.714,1.758c0,0.353-0.07,0.71-0.21,1.074s-0.352,0.732-0.636,1.104c-0.284,0.372-0.512,0.658-0.684,0.858
		c-0.172,0.2-0.418,0.464-0.738,0.792L2.76,79.767h3.144v1.308H0.576z"/>
	<path d="M10.284,81.219c-0.992,0-1.79-0.328-2.394-0.984s-0.906-1.66-0.906-3.012v-0.433c0-0.72,0.09-1.35,0.27-1.89
		c0.18-0.54,0.428-0.966,0.744-1.278c0.316-0.312,0.668-0.542,1.056-0.689c0.388-0.148,0.806-0.223,1.254-0.223
		c0.96,0,1.748,0.33,2.364,0.99c0.616,0.66,0.924,1.679,0.924,3.055v0.42c0,1.392-0.31,2.414-0.93,3.065
		C12.046,80.893,11.252,81.219,10.284,81.219z M10.284,79.947c0.528,0,0.918-0.21,1.17-0.63s0.378-1.102,0.378-2.046v-0.516
		c0-1.849-0.512-2.772-1.536-2.772c-0.52,0-0.904,0.216-1.152,0.648c-0.248,0.432-0.372,1.111-0.372,2.039v0.517
		c0,0.936,0.122,1.63,0.366,2.082C9.382,79.721,9.764,79.947,10.284,79.947z"/>
	<path d="M14.532,82.767l0.492-2.496h1.644l-0.888,2.496H14.532z"/>
	<path d="M21.132,81.219c-0.992,0-1.79-0.328-2.394-0.984s-0.906-1.66-0.906-3.012v-0.433c0-0.72,0.09-1.35,0.27-1.89
		c0.18-0.54,0.428-0.966,0.744-1.278c0.316-0.312,0.668-0.542,1.056-0.689c0.388-0.148,0.806-0.223,1.254-0.223
		c0.96,0,1.748,0.33,2.364,0.99c0.616,0.66,0.924,1.679,0.924,3.055v0.42c0,1.392-0.31,2.414-0.93,3.065
		C22.894,80.893,22.1,81.219,21.132,81.219z M21.132,79.947c0.528,0,0.918-0.21,1.17-0.63s0.378-1.102,0.378-2.046v-0.516
		c0-1.849-0.512-2.772-1.536-2.772c-0.52,0-0.904,0.216-1.152,0.648c-0.248,0.432-0.372,1.111-0.372,2.039v0.517
		c0,0.936,0.122,1.63,0.366,2.082C20.229,79.721,20.612,79.947,21.132,79.947z"/>
	<path d="M28.956,81.219c-0.992,0-1.79-0.328-2.394-0.984s-0.906-1.66-0.906-3.012v-0.433c0-0.72,0.09-1.35,0.27-1.89
		c0.18-0.54,0.428-0.966,0.744-1.278c0.316-0.312,0.668-0.542,1.056-0.689c0.388-0.148,0.806-0.223,1.254-0.223
		c0.96,0,1.748,0.33,2.364,0.99c0.616,0.66,0.924,1.679,0.924,3.055v0.42c0,1.392-0.31,2.414-0.93,3.065
		C30.718,80.893,29.924,81.219,28.956,81.219z M28.956,79.947c0.528,0,0.918-0.21,1.17-0.63s0.378-1.102,0.378-2.046v-0.516
		c0-1.849-0.512-2.772-1.536-2.772c-0.52,0-0.904,0.216-1.152,0.648c-0.248,0.432-0.372,1.111-0.372,2.039v0.517
		c0,0.936,0.122,1.63,0.366,2.082C28.054,79.721,28.436,79.947,28.956,79.947z"/>
	<path d="M36.78,81.219c-0.992,0-1.79-0.328-2.394-0.984s-0.906-1.66-0.906-3.012v-0.433c0-0.72,0.09-1.35,0.27-1.89
		c0.18-0.54,0.428-0.966,0.744-1.278c0.316-0.312,0.668-0.542,1.056-0.689c0.388-0.148,0.806-0.223,1.254-0.223
		c0.96,0,1.748,0.33,2.364,0.99c0.616,0.66,0.924,1.679,0.924,3.055v0.42c0,1.392-0.31,2.414-0.93,3.065
		C38.542,80.893,37.748,81.219,36.78,81.219z M36.78,79.947c0.528,0,0.918-0.21,1.17-0.63s0.378-1.102,0.378-2.046v-0.516
		c0-1.849-0.512-2.772-1.536-2.772c-0.52,0-0.904,0.216-1.152,0.648c-0.248,0.432-0.372,1.111-0.372,2.039v0.517
		c0,0.936,0.122,1.63,0.366,2.082C35.877,79.721,36.26,79.947,36.78,79.947z"/>
	<path d="M41.436,81.075v-8.771h1.584v8.771H41.436z M45.18,81.075c-0.992-1.464-1.704-2.536-2.136-3.216
		c0.328-0.488,1.024-1.483,2.088-2.988h1.608l-2.064,2.88c0.392,0.593,1.128,1.7,2.208,3.324H45.18z"/>
	<path d="M49.079,81.147c-0.672,0-1.24-0.116-1.704-0.348v-1.225c0.368,0.137,0.792,0.204,1.272,0.204
		c0.808,0,1.212-0.388,1.212-1.164v-5.771h1.728v5.951c0,0.704-0.212,1.272-0.636,1.704C50.527,80.931,49.903,81.147,49.079,81.147z
		"/>
</g>
<g>
	<path d="M1.692,152.008v-6.611l-1.344,0.252v-0.996l2.184-0.96h0.876v8.315H1.692z"/>
	<path d="M8.352,152.104c-0.992,0-1.79-0.328-2.394-0.984s-0.906-1.66-0.906-3.012v-0.433c0-0.72,0.09-1.35,0.27-1.89
		c0.18-0.54,0.428-0.966,0.744-1.278c0.316-0.312,0.668-0.542,1.056-0.689c0.388-0.148,0.806-0.223,1.254-0.223
		c0.96,0,1.748,0.33,2.364,0.99c0.616,0.66,0.924,1.679,0.924,3.055v0.42c0,1.392-0.31,2.414-0.93,3.065
		C10.114,151.778,9.32,152.104,8.352,152.104z M8.352,150.832c0.528,0,0.918-0.21,1.17-0.63S9.9,149.1,9.9,148.156v-0.516
		c0-1.849-0.512-2.772-1.536-2.772c-0.52,0-0.904,0.216-1.152,0.648c-0.248,0.432-0.372,1.111-0.372,2.039v0.517
		c0,0.936,0.122,1.63,0.366,2.082C7.45,150.606,7.832,150.832,8.352,150.832z"/>
	<path d="M12.6,153.652l0.492-2.496h1.644l-0.888,2.496H12.6z"/>
	<path d="M19.2,152.104c-0.992,0-1.79-0.328-2.394-0.984s-0.906-1.66-0.906-3.012v-0.433c0-0.72,0.09-1.35,0.27-1.89
		c0.18-0.54,0.428-0.966,0.744-1.278c0.316-0.312,0.668-0.542,1.056-0.689c0.388-0.148,0.806-0.223,1.254-0.223
		c0.96,0,1.748,0.33,2.364,0.99c0.616,0.66,0.924,1.679,0.924,3.055v0.42c0,1.392-0.31,2.414-0.93,3.065
		C20.962,151.778,20.168,152.104,19.2,152.104z M19.2,150.832c0.528,0,0.918-0.21,1.17-0.63s0.378-1.102,0.378-2.046v-0.516
		c0-1.849-0.512-2.772-1.536-2.772c-0.52,0-0.904,0.216-1.152,0.648c-0.248,0.432-0.372,1.111-0.372,2.039v0.517
		c0,0.936,0.122,1.63,0.366,2.082C18.298,150.606,18.68,150.832,19.2,150.832z"/>
	<path d="M27.024,152.104c-0.992,0-1.79-0.328-2.394-0.984s-0.906-1.66-0.906-3.012v-0.433c0-0.72,0.09-1.35,0.27-1.89
		c0.18-0.54,0.428-0.966,0.744-1.278c0.316-0.312,0.668-0.542,1.056-0.689c0.388-0.148,0.806-0.223,1.254-0.223
		c0.96,0,1.748,0.33,2.364,0.99c0.616,0.66,0.924,1.679,0.924,3.055v0.42c0,1.392-0.31,2.414-0.93,3.065
		C28.786,151.778,27.992,152.104,27.024,152.104z M27.024,150.832c0.528,0,0.918-0.21,1.17-0.63s0.378-1.102,0.378-2.046v-0.516
		c0-1.849-0.512-2.772-1.536-2.772c-0.52,0-0.904,0.216-1.152,0.648c-0.248,0.432-0.372,1.111-0.372,2.039v0.517
		c0,0.936,0.122,1.63,0.366,2.082C26.122,150.606,26.504,150.832,27.024,150.832z"/>
	<path d="M34.848,152.104c-0.992,0-1.79-0.328-2.394-0.984s-0.906-1.66-0.906-3.012v-0.433c0-0.72,0.09-1.35,0.27-1.89
		c0.18-0.54,0.428-0.966,0.744-1.278c0.316-0.312,0.668-0.542,1.056-0.689c0.388-0.148,0.806-0.223,1.254-0.223
		c0.96,0,1.748,0.33,2.364,0.99c0.616,0.66,0.924,1.679,0.924,3.055v0.42c0,1.392-0.31,2.414-0.93,3.065
		C36.609,151.778,35.815,152.104,34.848,152.104z M34.848,150.832c0.528,0,0.918-0.21,1.17-0.63s0.378-1.102,0.378-2.046v-0.516
		c0-1.849-0.512-2.772-1.536-2.772c-0.52,0-0.904,0.216-1.152,0.648c-0.248,0.432-0.372,1.111-0.372,2.039v0.517
		c0,0.936,0.122,1.63,0.366,2.082C33.945,150.606,34.328,150.832,34.848,150.832z"/>
	<path d="M39.504,151.96v-8.771h1.584v8.771H39.504z M43.248,151.96c-0.992-1.464-1.704-2.536-2.136-3.216
		c0.328-0.488,1.024-1.483,2.088-2.988h1.608l-2.064,2.88c0.392,0.593,1.128,1.7,2.208,3.324H43.248z"/>
	<path d="M47.147,152.032c-0.672,0-1.24-0.116-1.704-0.348v-1.225c0.368,0.137,0.792,0.204,1.272,0.204
		c0.808,0,1.212-0.388,1.212-1.164v-5.771h1.728v5.951c0,0.704-0.212,1.272-0.636,1.704
		C48.596,151.816,47.972,152.032,47.147,152.032z"/>
</g>
<polyline fill-rule="evenodd" clip-rule="evenodd" fill="none" stroke="#000000" stroke-width="0.75" stroke-miterlimit="10" points="
	52.745,0 52.745,222.376 359.738,222.376 "/>
<g>
	<path fill="#FFFFFF" d="M81.829,201.951v-8.231h3.084c1.832,0,2.748,0.691,2.748,2.075c0,0.912-0.456,1.517-1.368,1.812v0.036
		c1.136,0.191,1.704,0.844,1.704,1.956c0,0.704-0.244,1.271-0.731,1.704c-0.488,0.432-1.212,0.647-2.173,0.647H81.829z
		 M83.521,197.199h1.056c0.928,0,1.393-0.384,1.393-1.152c0-0.407-0.11-0.697-0.33-0.869c-0.221-0.172-0.559-0.259-1.015-0.259
		h-1.104V197.199z M83.521,200.739h1.271c0.968,0,1.452-0.424,1.452-1.271c0-0.809-0.504-1.213-1.512-1.213h-1.212V200.739z"/>
	<path fill="#FFFFFF" d="M89.257,201.951v-8.231h2.364l1.872,5.855h0.036l1.848-5.855h2.328v8.231h-1.68v-6.156h-0.036l-1.956,6.156
		h-1.332l-1.933-6.168h-0.035v6.168H89.257z"/>
	<path fill="#FFFFFF" d="M99.385,201.951v-8.231h2.952c1.976,0,2.964,0.815,2.964,2.447c0,1.04-0.488,1.744-1.464,2.112v0.061
		l2.04,3.611h-1.956l-1.632-3.24h-1.2v3.24H99.385z M101.077,197.596h1.056c0.496,0,0.854-0.11,1.074-0.33
		c0.22-0.22,0.33-0.559,0.33-1.015c0-0.447-0.11-0.771-0.33-0.972c-0.221-0.2-0.582-0.3-1.086-0.3h-1.044V197.596z"/>
</g>
<g>
	<path fill="#FFFFFF" d="M138.885,201.951v-8.231h3.084c1.832,0,2.748,0.691,2.748,2.075c0,0.912-0.456,1.517-1.368,1.812v0.036
		c1.136,0.191,1.704,0.844,1.704,1.956c0,0.704-0.244,1.271-0.731,1.704c-0.488,0.432-1.212,0.647-2.173,0.647H138.885z
		 M140.578,197.199h1.056c0.928,0,1.393-0.384,1.393-1.152c0-0.407-0.11-0.697-0.33-0.869c-0.221-0.172-0.559-0.259-1.015-0.259
		h-1.104V197.199z M140.578,200.739h1.271c0.968,0,1.452-0.424,1.452-1.271c0-0.809-0.504-1.213-1.512-1.213h-1.212V200.739z"/>
	<path fill="#FFFFFF" d="M146.313,201.951v-8.231h2.364l1.872,5.855h0.036l1.848-5.855h2.328v8.231h-1.68v-6.156h-0.036
		l-1.956,6.156h-1.332l-1.933-6.168h-0.035v6.168H146.313z"/>
	<path fill="#FFFFFF" d="M156.441,201.951v-8.231h2.952c1.976,0,2.964,0.815,2.964,2.447c0,1.04-0.488,1.744-1.464,2.112v0.061
		l2.04,3.611h-1.956l-1.632-3.24h-1.2v3.24H156.441z M158.133,197.596h1.056c0.496,0,0.854-0.11,1.074-0.33
		c0.22-0.22,0.33-0.559,0.33-1.015c0-0.447-0.11-0.771-0.33-0.972c-0.221-0.2-0.582-0.3-1.086-0.3h-1.044V197.596z"/>
</g>
<g>
	<path fill="#FFFFFF" d="M195.528,201.951v-8.231h3.084c1.832,0,2.748,0.691,2.748,2.075c0,0.912-0.456,1.517-1.368,1.812v0.036
		c1.136,0.191,1.704,0.844,1.704,1.956c0,0.704-0.244,1.271-0.731,1.704c-0.488,0.432-1.212,0.647-2.173,0.647H195.528z
		 M197.221,197.199h1.056c0.928,0,1.393-0.384,1.393-1.152c0-0.407-0.11-0.697-0.33-0.869c-0.221-0.172-0.559-0.259-1.015-0.259
		h-1.104V197.199z M197.221,200.739h1.271c0.968,0,1.452-0.424,1.452-1.271c0-0.809-0.504-1.213-1.512-1.213h-1.212V200.739z"/>
	<path fill="#FFFFFF" d="M202.956,201.951v-8.231h2.364l1.872,5.855h0.036l1.848-5.855h2.328v8.231h-1.68v-6.156h-0.036
		l-1.956,6.156H206.4l-1.933-6.168h-0.035v6.168H202.956z"/>
	<path fill="#FFFFFF" d="M213.084,201.951v-8.231h2.952c1.976,0,2.964,0.815,2.964,2.447c0,1.04-0.488,1.744-1.464,2.112v0.061
		l2.04,3.611h-1.956l-1.632-3.24h-1.2v3.24H213.084z M214.776,197.596h1.056c0.496,0,0.854-0.11,1.074-0.33
		c0.22-0.22,0.33-0.559,0.33-1.015c0-0.447-0.11-0.771-0.33-0.972c-0.221-0.2-0.582-0.3-1.086-0.3h-1.044V197.596z"/>
</g>
<g>
	<path fill="#FFFFFF" d="M250.137,201.951v-8.231h3.084c1.832,0,2.748,0.691,2.748,2.075c0,0.912-0.456,1.517-1.368,1.812v0.036
		c1.136,0.191,1.704,0.844,1.704,1.956c0,0.704-0.244,1.271-0.731,1.704c-0.488,0.432-1.212,0.647-2.173,0.647H250.137z
		 M251.829,197.199h1.056c0.928,0,1.393-0.384,1.393-1.152c0-0.407-0.11-0.697-0.33-0.869c-0.221-0.172-0.559-0.259-1.015-0.259
		h-1.104V197.199z M251.829,200.739h1.271c0.968,0,1.452-0.424,1.452-1.271c0-0.809-0.504-1.213-1.512-1.213h-1.212V200.739z"/>
	<path fill="#FFFFFF" d="M257.564,201.951v-8.231h2.364l1.872,5.855h0.036l1.848-5.855h2.328v8.231h-1.68v-6.156h-0.036
		l-1.956,6.156h-1.332l-1.933-6.168h-0.035v6.168H257.564z"/>
	<path fill="#FFFFFF" d="M267.692,201.951v-8.231h2.952c1.976,0,2.964,0.815,2.964,2.447c0,1.04-0.488,1.744-1.464,2.112v0.061
		l2.04,3.611h-1.956l-1.632-3.24h-1.2v3.24H267.692z M269.385,197.596h1.056c0.496,0,0.854-0.11,1.074-0.33
		c0.22-0.22,0.33-0.559,0.33-1.015c0-0.447-0.11-0.771-0.33-0.972c-0.221-0.2-0.582-0.3-1.086-0.3h-1.044V197.596z"/>
</g>
<g>
	<path fill="#FFFFFF" d="M306.779,201.951v-8.231h3.084c1.832,0,2.748,0.691,2.748,2.075c0,0.912-0.456,1.517-1.368,1.812v0.036
		c1.136,0.191,1.704,0.844,1.704,1.956c0,0.704-0.244,1.271-0.731,1.704c-0.488,0.432-1.212,0.647-2.173,0.647H306.779z
		 M308.472,197.199h1.056c0.928,0,1.393-0.384,1.393-1.152c0-0.407-0.11-0.697-0.33-0.869c-0.221-0.172-0.559-0.259-1.015-0.259
		h-1.104V197.199z M308.472,200.739h1.271c0.968,0,1.452-0.424,1.452-1.271c0-0.809-0.504-1.213-1.512-1.213h-1.212V200.739z"/>
	<path fill="#FFFFFF" d="M314.207,201.951v-8.231h2.364l1.872,5.855h0.036l1.848-5.855h2.328v8.231h-1.68v-6.156h-0.036
		l-1.956,6.156h-1.332l-1.933-6.168h-0.035v6.168H314.207z"/>
	<path fill="#FFFFFF" d="M324.335,201.951v-8.231h2.952c1.976,0,2.964,0.815,2.964,2.447c0,1.04-0.488,1.744-1.464,2.112v0.061
		l2.04,3.611h-1.956l-1.632-3.24h-1.2v3.24H324.335z M326.027,197.596h1.056c0.496,0,0.854-0.11,1.074-0.33
		c0.22-0.22,0.33-0.559,0.33-1.015c0-0.447-0.11-0.771-0.33-0.972c-0.221-0.2-0.582-0.3-1.086-0.3h-1.044V197.596z"/>
</g>
<g>
</g>
<g>
</g>
<g>
</g>
<g>
</g>
<g>
</g>
<g>
</g>
<g>
</g>
</svg>
