<?xml version="1.0" encoding="utf-8"?>
<!-- Generator: Adobe Illustrator 28.0.0, SVG Export Plug-In . SVG Version: 6.00 Build 0)  -->
<svg version="1.1" id="레이어_1" xmlns="http://www.w3.org/2000/svg" xmlns:xlink="http://www.w3.org/1999/xlink" x="0px"
	 y="0px" viewBox="0 0 425.86 354.026" enable-background="new 0 0 425.86 354.026" xml:space="preserve">
<circle fill="#F0EFEF" cx="372.064" cy="170.996" r="17.553"/>
<circle fill="#F0EFEF" cx="337.379" cy="241.673" r="17.553"/>
<circle fill="#F0EFEF" cx="406.759" cy="241.673" r="17.553"/>
<circle fill="#F0EFEF" cx="406.759" cy="303.445" r="17.553"/>
<circle fill="#F0EFEF" cx="286.31" cy="170.996" r="17.553"/>
<g>
	<circle fill="#F0EFEF" cx="23.073" cy="209.759" r="23.073"/>
</g>
<g>
	<circle fill="#F0EFEF" cx="23.073" cy="278.16" r="17.553"/>
</g>
<g>
	<circle fill="#F0EFEF" cx="129.056" cy="170.996" r="17.553"/>
</g>
<g>
	<circle fill="#F0EFEF" cx="182.047" cy="170.996" r="17.553"/>
</g>
<circle fill="#F0EFEF" cx="102.56" cy="100.319" r="17.553"/>
<circle fill="#F0EFEF" cx="75.783" cy="170.996" r="17.553"/>
<circle fill="#F0EFEF" cx="208.543" cy="260.169" r="17.553"/>
<circle fill="#F0EFEF" cx="261.534" cy="260.169" r="17.553"/>
<circle fill="#F0EFEF" cx="102.56" cy="260.169" r="17.553"/>
<circle fill="#F0EFEF" cx="155.59" cy="260.169" r="17.553"/>
<g>
	<circle fill="#F0EFEF" cx="261.534" cy="321.94" r="17.553"/>
</g>
<circle fill="#F0EFEF" cx="213.383" cy="50.535" r="17.553"/>
<g>
	
		<ellipse transform="matrix(0.4578 -0.8891 0.8891 0.4578 -111.4247 159.2977)" fill="#CD5351" cx="74.881" cy="170.996" rx="10.65" ry="13.727"/>
	
		<ellipse transform="matrix(0.4578 -0.8891 0.8891 0.4578 -109.7667 160.0142)" fill="#C03D3D" cx="76.298" cy="169.995" rx="4.984" ry="7.875"/>
	
		<ellipse transform="matrix(0.4578 -0.8891 0.8891 0.4578 -110.9359 160.0991)" fill="none" stroke="#343752" stroke-width="0.7211" stroke-linecap="round" stroke-linejoin="round" stroke-miterlimit="10" cx="75.783" cy="170.996" rx="10.65" ry="13.727"/>
	
		<path fill="none" stroke="#343752" stroke-width="0.7211" stroke-linecap="round" stroke-linejoin="round" stroke-miterlimit="10" d="
		M83.3,173.6c-1.26,2.447-5.416,2.818-9.283,0.827c-3.867-1.991-5.98-5.589-4.72-8.036"/>
	
		<linearGradient id="SVGID_1_" gradientUnits="userSpaceOnUse" x1="1239.1809" y1="1129.7999" x2="1239.1809" y2="1137.1624" gradientTransform="matrix(0.8891 0.4578 -0.4578 0.8891 -506.4156 -1405.3409)">
		<stop  offset="0" style="stop-color:#CD5351"/>
		<stop  offset="1" style="stop-color:#C03D3D"/>
	</linearGradient>
	<path fill="url(#SVGID_1_)" d="M81.688,171.834c-0.901,1.751-3.875,2.016-6.641,0.591s-4.278-3.998-3.377-5.749
		c0.901-1.751,3.875-2.016,6.641-0.591C81.078,167.509,82.59,170.083,81.688,171.834z"/>
	<g>
		
			<linearGradient id="SVGID_00000056429882735160873910000015365322923328460215_" gradientUnits="userSpaceOnUse" x1="1239.1809" y1="1145.5498" x2="1239.1809" y2="1131.1288" gradientTransform="matrix(0.8891 0.4578 -0.4578 0.8891 -506.4156 -1405.3409)">
			<stop  offset="0" style="stop-color:#F8AFAE"/>
			<stop  offset="1" style="stop-color:#CD5351"/>
		</linearGradient>
		<path fill="url(#SVGID_00000056429882735160873910000015365322923328460215_)" d="M67.48,163.441
			c0.505,0.26,0.76,0.772,0.568,1.144c-1.821,3.537,0.61,8.429,5.42,10.906c4.81,2.476,10.204,1.613,12.025-1.924
			c0.191-0.372,0.756-0.462,1.261-0.202c0.505,0.26,0.76,0.772,0.568,1.144c-2.203,4.279-8.729,5.323-14.548,2.327
			c-5.819-2.996-8.76-8.914-6.557-13.193C66.411,163.271,66.975,163.18,67.48,163.441z"/>
	</g>
</g>
<g>
	<g>
		<path fill="#7F5A9A" d="M25.355,285.364c-0.87-0.214,0.158-1.772,0.676-3.878c0.519-2.106,0.331-3.962,1.202-3.748
			c0.87,0.214,2.468,2.418,1.949,4.524C28.663,284.368,26.225,285.578,25.355,285.364z"/>
		
			<path fill="none" stroke="#343752" stroke-width="0.7211" stroke-linecap="round" stroke-linejoin="round" stroke-miterlimit="10" d="
			M26.256,285.364c-0.87-0.214,0.158-1.772,0.676-3.878c0.519-2.106,0.331-3.962,1.202-3.748c0.87,0.214,2.468,2.418,1.949,4.524
			C29.565,284.368,27.126,285.578,26.256,285.364z"/>
	</g>
	<g>
		<path fill="#B798C6" d="M28.596,273.661c-0.021-0.896,1.751-0.312,3.919-0.363c2.168-0.051,3.911-0.718,3.932,0.178
			s-1.688,3.015-3.856,3.066C30.424,276.594,28.617,274.557,28.596,273.661z"/>
		
			<path fill="none" stroke="#343752" stroke-width="0.7211" stroke-linecap="round" stroke-linejoin="round" stroke-miterlimit="10" d="
			M29.498,273.661c-0.021-0.896,1.751-0.312,3.919-0.363c2.168-0.051,3.911-0.718,3.932,0.178c0.021,0.896-1.688,3.015-3.856,3.066
			C31.325,276.594,29.519,274.557,29.498,273.661z"/>
	</g>
	<g>
		<path fill="#B798C6" d="M22.011,273.182c-0.689-0.573-0.444-2.709,0.941-4.378c1.386-1.668,3.387-2.236,4.076-1.664
			c0.689,0.573-0.194,2.069-1.58,3.737C24.063,272.546,22.7,273.755,22.011,273.182z"/>
		
			<path fill="none" stroke="#343752" stroke-width="0.7211" stroke-linecap="round" stroke-linejoin="round" stroke-miterlimit="10" d="
			M22.912,273.182c-0.689-0.573-0.444-2.709,0.941-4.378c1.386-1.668,3.387-2.236,4.076-1.664c0.689,0.573-0.194,2.069-1.58,3.737
			C24.964,272.546,23.602,273.755,22.912,273.182z"/>
	</g>
	<g>
		<path fill="#B798C6" d="M19.172,289.272c0.308-0.841,2.404-1.327,4.44-0.58c2.036,0.746,3.242,2.441,2.934,3.283
			c-0.308,0.841-2.014,0.51-4.051-0.236C20.459,290.992,18.864,290.113,19.172,289.272z"/>
		
			<path fill="none" stroke="#343752" stroke-width="0.7211" stroke-linecap="round" stroke-linejoin="round" stroke-miterlimit="10" d="
			M20.074,289.272c0.308-0.841,2.404-1.327,4.44-0.58c2.036,0.746,3.242,2.441,2.934,3.283c-0.308,0.841-2.014,0.51-4.051-0.236
			C21.361,290.992,19.765,290.113,20.074,289.272z"/>
	</g>
	<g>
		<path fill="#B798C6" d="M15.869,276.672c0.43-0.786,2.574-0.956,4.477,0.084c1.903,1.04,2.845,2.895,2.415,3.681
			c-0.43,0.786-2.068,0.206-3.971-0.833C16.887,278.564,15.44,277.458,15.869,276.672z"/>
		
			<path fill="none" stroke="#343752" stroke-width="0.7211" stroke-linecap="round" stroke-linejoin="round" stroke-miterlimit="10" d="
			M16.77,276.672c0.43-0.786,2.574-0.956,4.477,0.084c1.903,1.04,2.845,2.895,2.415,3.681c-0.43,0.786-2.068,0.206-3.971-0.833
			C17.789,278.564,16.341,277.458,16.77,276.672z"/>
	</g>
	<g>
		<path fill="#7F5A9A" d="M12.152,287.853c-0.471-0.762-0.731-2.71,1.114-3.851c1.844-1.141,5.996-0.141,6.467,0.621
			c0.471,0.762-2.916,0.998-4.76,2.139C13.128,287.903,12.623,288.615,12.152,287.853z"/>
		
			<path fill="none" stroke="#343752" stroke-width="0.7211" stroke-linecap="round" stroke-linejoin="round" stroke-miterlimit="10" d="
			M13.053,287.853c-0.471-0.762-0.731-2.71,1.114-3.851c1.844-1.141,5.996-0.141,6.467,0.621c0.471,0.762-2.916,0.998-4.76,2.139
			C14.029,287.903,13.525,288.615,13.053,287.853z"/>
	</g>
	<g>
		<path fill="#B798C6" d="M10.377,271.678c-0.021-0.896,1.751-2.114,3.919-2.165s3.911,1.085,3.932,1.981
			c0.021,0.896-1.688,1.212-3.856,1.263C12.205,272.808,10.398,272.574,10.377,271.678z"/>
		
			<path fill="none" stroke="#343752" stroke-width="0.7211" stroke-linecap="round" stroke-linejoin="round" stroke-miterlimit="10" d="
			M11.279,271.678c-0.021-0.896,1.751-2.114,3.919-2.165s3.911,1.085,3.932,1.981c0.021,0.896-1.688,1.212-3.856,1.263
			C13.106,272.808,11.3,272.574,11.279,271.678z"/>
	</g>
</g>
<g>
	
		<ellipse transform="matrix(0.4509 -0.8926 0.8926 0.4509 -47.9805 528.9005)" fill="#FEC359" cx="405.858" cy="303.445" rx="10.709" ry="16.82"/>
	
		<ellipse transform="matrix(0.4509 -0.8926 0.8926 0.4509 -47.9806 528.9002)" fill="#FFD79A" cx="405.858" cy="303.445" rx="7.595" ry="11.929"/>
	
		<ellipse transform="matrix(0.4509 -0.8926 0.8926 0.4509 -47.4855 529.7051)" fill="none" stroke="#343752" stroke-width="0.7211" stroke-linecap="round" stroke-linejoin="round" stroke-miterlimit="10" cx="406.759" cy="303.445" rx="10.709" ry="16.82"/>
	<circle fill="#7F5A9A" cx="413.699" cy="307.55" r="6.938"/>
	<path opacity="0.2" fill="#FFFFFF" d="M418.16,309.659c-2.185,4.326-9.465-4.127-16.259-7.559
		c-6.795-3.432-10.531-0.544-8.346-4.87c2.185-4.326,9.465-5.051,16.259-1.619C416.609,299.044,420.345,305.333,418.16,309.659z"/>
</g>
<g>
	<g>
		<circle fill="#E7CEE4" cx="406.308" cy="241.673" r="11.29"/>
		
			<circle fill="none" stroke="#343752" stroke-width="0.7211" stroke-linecap="round" stroke-linejoin="round" stroke-miterlimit="10" cx="407.21" cy="241.673" r="11.29"/>
		<circle fill="#7F5A9A" cx="408.51" cy="240.437" r="7.314"/>
	</g>
	<path opacity="0.2" fill="#FFFFFF" d="M414.096,248.141c-3.67,3.67-16.96-9.62-13.29-13.29c3.67-3.67,9.62-3.67,13.29,0
		C417.766,238.521,417.766,244.471,414.096,248.141z"/>
</g>
<g>
	<g>
		<circle fill="#FCE0E6" cx="336.929" cy="241.673" r="11.29"/>
		
			<circle fill="none" stroke="#343752" stroke-width="0.7211" stroke-linecap="round" stroke-linejoin="round" stroke-miterlimit="10" cx="337.83" cy="241.673" r="11.29"/>
		<circle fill="#7F5A9A" cx="336.426" cy="244.223" r="7.314"/>
	</g>
	<path opacity="0.2" fill="#FFFFFF" d="M344.868,247.901c-3.67,3.67-16.96-9.62-13.29-13.29c3.67-3.67,9.62-3.67,13.29,0
		C348.538,238.281,348.538,244.231,344.868,247.901z"/>
</g>
<g>
	<g>
		<circle fill="#FCE0E6" cx="371.162" cy="170.996" r="11.29"/>
		
			<circle fill="none" stroke="#343752" stroke-width="0.7211" stroke-linecap="round" stroke-linejoin="round" stroke-miterlimit="10" cx="372.064" cy="170.996" r="11.29"/>
		<circle fill="#7F5A9A" cx="370.66" cy="173.546" r="7.314"/>
	</g>
	<path opacity="0.2" fill="#FFFFFF" d="M378.581,177.45c-3.67,3.67-16.96-9.62-13.29-13.29s9.62-3.67,13.29,0
		C382.251,167.83,382.251,173.78,378.581,177.45z"/>
</g>
<g>
	<g>
		<path fill="#FDD8CD" d="M300.458,170.996c0,2.704-1.106,5.137-2.369,7.32c-1.303,2.253-2.902,4.411-5.154,5.715
			c-2.184,1.263-4.821,1.604-7.525,1.604s-5.342-0.341-7.525-1.604c-2.253-1.303-3.851-3.462-5.154-5.715
			c-1.263-2.184-2.369-4.616-2.369-7.32s1.106-5.137,2.369-7.32c1.303-2.253,2.902-4.411,5.154-5.715
			c2.184-1.263,4.821-1.604,7.525-1.604s5.342,0.341,7.525,1.604c2.253,1.303,3.851,3.462,5.154,5.715
			C299.352,165.859,300.458,168.292,300.458,170.996z"/>
		
			<path fill="none" stroke="#343752" stroke-width="0.7211" stroke-linecap="round" stroke-linejoin="round" stroke-miterlimit="10" d="
			M301.359,170.996c0,2.704-1.105,5.137-2.369,7.32c-1.303,2.253-2.902,4.411-5.154,5.715c-2.184,1.263-4.821,1.604-7.525,1.604
			c-2.704,0-5.342-0.341-7.525-1.604c-2.253-1.303-3.851-3.462-5.154-5.715c-1.263-2.184-2.369-4.616-2.369-7.32
			s1.106-5.137,2.369-7.32c1.303-2.253,2.902-4.411,5.154-5.715c2.184-1.263,4.821-1.604,7.525-1.604s5.342,0.341,7.525,1.604
			c2.253,1.303,3.851,3.462,5.154,5.715C300.254,165.859,301.359,168.292,301.359,170.996z"/>
		<circle fill="#7F5A9A" cx="290.474" cy="171.528" r="8.337"/>
		<circle fill="#E6AFC0" cx="286.31" cy="160.124" r="1.7"/>
		<circle fill="#CD6666" cx="280.436" cy="162.123" r="1.7"/>
		<circle fill="#E6AFC0" cx="281.31" cy="166.162" r="1.249"/>
		<circle fill="#CD6666" cx="279.038" cy="172.901" r="1.7"/>
		<path fill="#E6AFC0" d="M283.737,181.684c0.479,0.149,0.746,0.658,0.597,1.137c-0.149,0.479-0.658,0.746-1.137,0.597
			c-0.479-0.149-0.746-0.658-0.597-1.137C282.75,181.802,283.259,181.535,283.737,181.684z"/>
		<path fill="#CD6666" d="M279.86,176.171c0.659,0.205,1.026,0.906,0.821,1.564c-0.205,0.659-0.906,1.026-1.564,0.821
			c-0.659-0.205-1.026-0.906-0.821-1.564C278.501,176.333,279.202,175.966,279.86,176.171z"/>
		<path fill="#CD6666" d="M275.778,175.536c0.659,0.205,1.026,0.906,0.821,1.564c-0.205,0.659-0.906,1.026-1.564,0.821
			c-0.659-0.205-1.026-0.906-0.821-1.564C274.418,175.698,275.119,175.331,275.778,175.536z"/>
		<path fill="#CD6666" d="M274.906,168.554c0.659,0.205,1.026,0.906,0.821,1.564c-0.205,0.659-0.906,1.026-1.564,0.821
			c-0.659-0.205-1.026-0.906-0.821-1.564C273.547,168.716,274.248,168.348,274.906,168.554z"/>
		<path fill="#CD6666" d="M287.573,181.111c0.659,0.205,1.026,0.906,0.821,1.564c-0.205,0.659-0.906,1.026-1.564,0.821
			c-0.659-0.205-1.026-0.906-0.821-1.564C286.214,181.273,286.914,180.906,287.573,181.111z"/>
		<path fill="#CD6666" d="M294.082,160.632c0.659,0.205,1.026,0.906,0.821,1.564c-0.205,0.659-0.906,1.026-1.564,0.821
			c-0.659-0.205-1.026-0.906-0.821-1.564C292.723,160.794,293.423,160.426,294.082,160.632z"/>
	</g>
	<path opacity="0.2" fill="#FFFFFF" d="M295.726,179.585c-2.497,2.497-1.926-6.037-6.433-10.715
		c-4.209-4.369-13.683-4.737-11.351-7.069c4.829-4.829,12.724-4.762,17.635,0.149C300.487,166.861,300.554,174.756,295.726,179.585z
		"/>
</g>
<g>
	<g>
		<path fill="#D1B8D9" d="M219.462,38.837c1.217,0.68,1.705,2.261,2.604,3.231c0.932,1.005,2.463,1.622,3.025,2.841
			c0.568,1.231,0.042,2.8,0.204,4.146c0.161,1.333,1.049,2.731,0.783,4.076c-0.256,1.298-1.595,2.255-2.275,3.473
			c-0.68,1.217-0.792,2.859-1.762,3.759c-1.005,0.932-2.662,0.91-3.88,1.473c-1.231,0.568-2.29,1.84-3.636,2.002
			c-1.333,0.161-2.661-0.818-4.006-1.084c-1.298-0.256-2.9,0.159-4.117-0.521c-1.217-0.68-1.705-2.261-2.604-3.231
			c-0.932-1.005-2.463-1.622-3.025-2.841c-0.568-1.231-0.042-2.8-0.204-4.146c-0.161-1.333-1.049-2.731-0.783-4.076
			c0.256-1.298,1.595-2.255,2.275-3.473c0.68-1.217,0.792-2.859,1.762-3.759c1.005-0.932,2.662-0.91,3.88-1.473
			c1.231-0.568,2.29-1.84,3.636-2.002c1.333-0.161,2.661,0.818,4.006,1.084C216.643,38.573,218.245,38.158,219.462,38.837z"/>
		<circle fill="#CBEBF7" cx="213.834" cy="50.535" r="9.538"/>
		<circle fill="#29A8E0" cx="216.949" cy="47.287" r="4.396"/>
		
			<path fill="none" stroke="#343752" stroke-width="0.7211" stroke-linecap="round" stroke-linejoin="round" stroke-miterlimit="10" d="
			M220.364,38.837c1.217,0.68,1.705,2.261,2.604,3.231c0.932,1.005,2.463,1.622,3.025,2.841c0.568,1.231,0.042,2.8,0.204,4.146
			c0.161,1.333,1.049,2.731,0.783,4.076c-0.256,1.298-1.595,2.255-2.275,3.473s-0.792,2.859-1.762,3.759
			c-1.005,0.932-2.662,0.91-3.88,1.473c-1.231,0.568-2.29,1.84-3.636,2.002c-1.333,0.161-2.661-0.818-4.006-1.084
			c-1.298-0.256-2.9,0.159-4.117-0.521c-1.217-0.68-1.705-2.261-2.604-3.231c-0.932-1.005-2.463-1.622-3.025-2.841
			c-0.568-1.231-0.042-2.8-0.204-4.146c-0.161-1.333-1.049-2.731-0.783-4.076c0.256-1.298,1.595-2.255,2.275-3.473
			c0.68-1.217,0.792-2.859,1.762-3.759c1.005-0.932,2.662-0.91,3.88-1.473c1.231-0.568,2.29-1.84,3.636-2.002
			c1.333-0.161,2.661,0.818,4.006,1.084C217.544,38.573,219.146,38.158,220.364,38.837z"/>
	</g>
	<path opacity="0.2" fill="#FFFFFF" d="M221.719,57.95c-2.153,2.153-1.613-5.159-5.446-9.138c-3.579-3.716-11.69-3.976-9.679-5.987
		c4.163-4.164,10.924-4.153,15.101,0.024C225.872,47.025,225.882,53.786,221.719,57.95z"/>
</g>
<g>
	<g>
		<path fill="#D1B8D9" d="M108.639,88.621c1.217,0.68,1.705,2.261,2.604,3.231c0.932,1.005,2.463,1.622,3.025,2.841
			c0.568,1.231,0.042,2.8,0.204,4.146c0.161,1.333,1.049,2.731,0.783,4.076c-0.256,1.298-1.595,2.255-2.275,3.473
			c-0.68,1.217-0.792,2.859-1.762,3.759c-1.005,0.932-2.662,0.91-3.88,1.473c-1.231,0.568-2.29,1.84-3.636,2.002
			c-1.333,0.161-2.661-0.818-4.006-1.084c-1.298-0.256-2.9,0.159-4.117-0.521c-1.217-0.68-1.705-2.261-2.604-3.231
			c-0.932-1.005-2.463-1.622-3.025-2.841c-0.568-1.231-0.042-2.8-0.204-4.146c-0.161-1.333-1.049-2.731-0.783-4.076
			c0.256-1.298,1.595-2.255,2.275-3.473c0.68-1.217,0.792-2.859,1.762-3.759c1.005-0.932,2.662-0.91,3.881-1.473
			c1.231-0.568,2.29-1.84,3.636-2.002c1.333-0.161,2.661,0.818,4.006,1.084C105.819,88.357,107.421,87.941,108.639,88.621z"/>
		<circle fill="#CBEBF7" cx="103.011" cy="100.319" r="9.538"/>
		
			<ellipse transform="matrix(0.9154 -0.4027 0.4027 0.9154 -30.2803 50.6453)" fill="#29A8E0" cx="105.314" cy="97.341" rx="4.396" ry="4.396"/>
		
			<path fill="none" stroke="#343752" stroke-width="0.7211" stroke-linecap="round" stroke-linejoin="round" stroke-miterlimit="10" d="
			M109.54,88.621c1.217,0.68,1.705,2.261,2.604,3.231c0.932,1.005,2.463,1.622,3.025,2.841c0.568,1.231,0.042,2.8,0.204,4.146
			c0.161,1.333,1.049,2.731,0.783,4.076c-0.256,1.298-1.595,2.255-2.275,3.473c-0.68,1.217-0.792,2.859-1.762,3.759
			c-1.005,0.932-2.662,0.91-3.881,1.473c-1.231,0.568-2.29,1.84-3.636,2.002c-1.333,0.161-2.661-0.818-4.006-1.084
			c-1.298-0.256-2.9,0.159-4.117-0.521c-1.217-0.68-1.705-2.261-2.604-3.231c-0.932-1.005-2.463-1.622-3.025-2.841
			c-0.568-1.231-0.042-2.8-0.204-4.146c-0.161-1.333-1.049-2.731-0.783-4.076c0.256-1.298,1.595-2.255,2.275-3.473
			c0.68-1.217,0.792-2.859,1.762-3.759c1.005-0.932,2.662-0.91,3.88-1.473c1.231-0.568,2.29-1.84,3.636-2.002
			c1.333-0.161,2.661,0.818,4.006,1.084C106.721,88.357,108.323,87.941,109.54,88.621z"/>
	</g>
	<path opacity="0.2" fill="#FFFFFF" d="M110.726,107.288c-2.153,2.153-1.613-5.159-5.446-9.138
		c-3.579-3.716-11.69-3.976-9.679-5.987c4.164-4.164,10.924-4.153,15.101,0.024C114.879,96.364,114.89,103.125,110.726,107.288z"/>
</g>
<g>
	<g>
		<path fill="#FDD8CD" d="M197.722,173.141c-0.306,2.247-2.601,3.786-4.13,5.426c-1.578,1.692-2.842,3.912-5.277,4.684
			c-2.36,0.748-5.222-0.124-7.968-0.498c-2.746-0.373-5.737-0.297-7.812-1.648c-2.14-1.394-2.766-3.871-3.835-5.923
			c-1.036-1.989-2.837-4.085-2.531-6.332s2.601-3.786,4.13-5.426c1.578-1.692,2.842-3.912,5.277-4.684
			c2.36-0.748,5.222,0.124,7.968,0.498c2.746,0.373,5.737,0.297,7.812,1.648c2.14,1.394,2.766,3.871,3.835,5.923
			C196.226,168.798,198.027,170.894,197.722,173.141z"/>
		<path fill="#CD6666" d="M188.222,173.604c0.165,1.59-1.151,3.027-1.925,4.406c-0.799,1.422-1.295,3.153-2.835,4.088
			c-1.492,0.906-3.598,0.785-5.542,0.987c-1.943,0.202-3.98,0.753-5.626,0.173c-1.698-0.598-2.54-2.191-3.614-3.418
			c-1.041-1.19-2.624-2.326-2.789-3.916c-0.165-1.59,1.151-3.027,1.925-4.406c0.799-1.422,1.295-3.153,2.835-4.088
			c1.492-0.906,3.598-0.785,5.542-0.987s3.98-0.753,5.626-0.173c1.698,0.598,2.54,2.191,3.614,3.418
			C186.474,170.878,188.057,172.014,188.222,173.604z"/>
		
			<path fill="none" stroke="#343752" stroke-width="0.7211" stroke-linecap="round" stroke-linejoin="round" stroke-miterlimit="10" d="
			M196.092,166.809c-1.069-2.052-1.695-4.529-3.835-5.923c-2.074-1.351-5.066-1.275-7.812-1.648
			c-2.746-0.373-5.608-1.246-7.968-0.498c-2.435,0.772-3.699,2.992-5.277,4.684c-1.529,1.64-3.825,3.179-4.13,5.426
			c-0.174,1.282,0.337,2.515,1.001,3.706c-0.69,1.062-1.403,2.171-1.279,3.366c0.165,1.59,1.748,2.726,2.789,3.916
			c1.074,1.227,1.916,2.82,3.614,3.418c1.646,0.58,3.683,0.029,5.626-0.173c1.004-0.104,2.052-0.123,3.036-0.241
			c2.556,0.403,5.173,1.1,7.358,0.407c2.435-0.772,3.699-2.992,5.277-4.684c1.529-1.64,3.825-3.179,4.13-5.426
			C198.929,170.894,197.128,168.798,196.092,166.809z"/>
		<circle fill="#EA9289" cx="177.761" cy="170.892" r="1.967"/>
		<circle fill="#EA9289" cx="177.358" cy="177.56" r="1.967"/>
		<circle fill="#EA9289" cx="183.968" cy="172.963" r="1.967"/>
	</g>
	<path opacity="0.2" fill="#FFFFFF" d="M190.933,178.751c-2.153,2.153-14.406-6.422-18.238-10.402
		c-3.579-3.716,0.214-3.914,3.099-4.977c5.525-2.035,10.939-3.899,15.116,0.278S195.097,174.588,190.933,178.751z"/>
</g>
<g>
	<g>
		<g>
			<g>
				<path fill="#B798C6" d="M131.067,182.112c-5.31,2.749-12.041,0.291-15.035-5.491s-1.117-12.698,4.193-15.448
					c5.31-2.749,18.734-3.757,21.728,2.025C144.947,168.98,136.377,179.362,131.067,182.112z"/>
				
					<ellipse transform="matrix(0.7794 -0.6265 0.6265 0.7794 -78.5499 118.2153)" fill="#7F5A9A" cx="128.589" cy="170.647" rx="5.803" ry="5.082"/>
				
					<ellipse transform="matrix(0.7794 -0.6265 0.6265 0.7794 -76.4793 123.4924)" fill="#7F5A9A" cx="137.119" cy="170.347" rx="1.828" ry="1.601"/>
				
					<ellipse transform="matrix(0.7794 -0.6266 0.6266 0.7794 -77.2843 125.6887)" fill="#7F5A9A" cx="139.832" cy="172.586" rx="1.828" ry="1.601"/>
				
					<ellipse transform="matrix(0.7794 -0.6265 0.6265 0.7794 -86.2181 116.3928)" fill="#7F5A9A" cx="122.168" cy="180.626" rx="1.828" ry="1.601"/>
				
					<ellipse transform="matrix(0.0098 -1 1 0.0098 -29.7467 306.3932)" fill="#7F5A9A" cx="139.832" cy="168.216" rx="1.601" ry="1.828"/>
				
					<ellipse transform="matrix(0.7794 -0.6266 0.6266 0.7794 -72.4519 120.5652)" fill="#7F5A9A" cx="134.973" cy="163.162" rx="1.828" ry="1.601"/>
				
					<ellipse transform="matrix(0.0098 -1 1 0.0098 -23.7613 298.0692)" fill="#7F5A9A" cx="138.619" cy="161.032" rx="1.601" ry="1.828"/>
				
					<ellipse transform="matrix(0.1463 -0.9892 0.9892 0.1463 -50.6345 262.0474)" fill="#7F5A9A" cx="126.51" cy="160.361" rx="1.601" ry="1.828"/>
				
					<ellipse transform="matrix(0.7404 -0.6721 0.6721 0.7404 -74.4809 128.7898)" fill="#7F5A9A" cx="129.511" cy="160.83" rx="1.601" ry="1.828"/>
				
					<ellipse transform="matrix(0.1463 -0.9892 0.9892 0.1463 -58.8114 257.5081)" fill="#7F5A9A" cx="119.793" cy="162.829" rx="1.601" ry="1.828"/>
				<path fill="#7F5A9A" d="M124.428,164.726c-0.655,0.594-1.736,0.47-2.414-0.278c-0.679-0.748-0.698-1.836-0.043-2.43
					c0.655-0.594,1.736-0.47,2.414,0.278C125.063,163.044,125.082,164.132,124.428,164.726z"/>
				
					<ellipse transform="matrix(0.1463 -0.9892 0.9892 0.1463 -65.5533 281.765)" fill="#7F5A9A" cx="130.476" cy="178.864" rx="1.601" ry="1.828"/>
				
					<ellipse transform="matrix(0.1463 -0.9892 0.9892 0.1463 -59.1951 286.6677)" fill="#7F5A9A" cx="136.494" cy="177.631" rx="1.601" ry="1.828"/>
				
					<ellipse transform="matrix(0.7794 -0.6266 0.6266 0.7794 -84.4399 113.1087)" fill="#7F5A9A" cx="118.392" cy="176.457" rx="1.828" ry="1.601"/>
				
					<ellipse transform="matrix(0.7794 -0.6265 0.6265 0.7794 -84.45 115.2262)" fill="#7F5A9A" cx="121.396" cy="177.532" rx="1.828" ry="1.601"/>
				
					<ellipse transform="matrix(0.0098 -1 1 0.0098 -51.1502 291.8055)" fill="#7F5A9A" cx="121.764" cy="171.73" rx="1.601" ry="1.828"/>
				
					<ellipse transform="matrix(0.0098 -1 1 0.0098 -53.5817 305.958)" fill="#7F5A9A" cx="127.694" cy="180.034" rx="1.601" ry="1.828"/>
				
					<ellipse transform="matrix(0.0098 -1 1 0.0098 -52.4549 300.7398)" fill="#7F5A9A" cx="125.62" cy="176.855" rx="1.601" ry="1.828"/>
				<path fill="#7F5A9A" d="M141.91,165.289c-0.009,0.884-0.834,1.593-1.844,1.583s-1.821-0.735-1.812-1.619
					c0.009-0.884,0.834-1.593,1.844-1.583C141.107,163.68,141.919,164.404,141.91,165.289z"/>
				
					<ellipse transform="matrix(0.0098 -1 1 0.0098 -31.708 299.9357)" fill="#7F5A9A" cx="135.59" cy="165.978" rx="1.601" ry="1.828"/>
				
					<ellipse transform="matrix(0.0098 -1 1 0.0098 -23.4806 300.6877)" fill="#7F5A9A" cx="140.082" cy="162.2" rx="1.601" ry="1.828"/>
				
					<ellipse transform="matrix(0.0098 -1 1 0.0098 -39.9132 309.2208)" fill="#7F5A9A" cx="136.176" cy="174.763" rx="1.601" ry="1.828"/>
				
					<ellipse transform="matrix(0.0098 -1 1 0.0098 -36.3998 290.8438)" fill="#7F5A9A" cx="128.652" cy="163.801" rx="1.601" ry="1.828"/>
				
					<ellipse transform="matrix(0.0098 -1 1 0.0098 -48.444 290.8612)" fill="#7F5A9A" cx="122.639" cy="169.891" rx="1.601" ry="1.828"/>
				
					<ellipse transform="matrix(0.7794 -0.6265 0.6265 0.7794 -79.6175 110.1025)" fill="#7F5A9A" cx="116.537" cy="168.108" rx="1.828" ry="1.601"/>
				
					<ellipse transform="matrix(0.0098 -1 1 0.0098 -47.8898 283.5939)" fill="#7F5A9A" cx="119.25" cy="165.978" rx="1.601" ry="1.828"/>
				
					<ellipse transform="matrix(0.1463 -0.9892 0.9892 0.1463 -71.7655 264.1337)" fill="#7F5A9A" cx="117.154" cy="173.647" rx="1.601" ry="1.828"/>
				
					<ellipse transform="matrix(0.7404 -0.6721 0.6721 0.7404 -85.8328 136.5495)" fill="#7F5A9A" cx="133.882" cy="179.407" rx="1.601" ry="1.828"/>
			</g>
			
				<path fill="none" stroke="#343752" stroke-width="0.7211" stroke-linecap="round" stroke-linejoin="round" stroke-miterlimit="10" d="
				M142.886,163.198c-0.266-0.513-0.615-0.972-1.032-1.381c-0.19-0.671-0.863-1.176-1.679-1.214
				c-0.306-0.165-0.628-0.315-0.965-0.453c-0.325-0.428-0.877-0.713-1.508-0.719c-0.195-0.002-0.383,0.024-0.56,0.071
				c-2.844-0.663-6.247-0.658-9.334-0.223c-0.276-0.256-0.643-0.44-1.064-0.502c-0.913-0.135-1.753,0.347-1.99,1.098
				c-1.393,0.355-2.63,0.797-3.596,1.298c-0.169,0.088-0.335,0.18-0.497,0.276c-0.192-0.098-0.405-0.169-0.634-0.203
				c-0.999-0.148-1.913,0.442-2.043,1.316c-0.05,0.339,0.026,0.671,0.196,0.96c-0.753,0.87-1.354,1.862-1.791,2.933
				c-0.298,0.061-0.593,0.195-0.856,0.406c-0.787,0.633-0.976,1.704-0.422,2.393c0.135,0.168,0.302,0.297,0.489,0.388
				c-0.1,0.987-0.076,2,0.075,3.015c-0.172,0.204-0.29,0.449-0.33,0.723c-0.099,0.668,0.29,1.308,0.923,1.64
				c0.136,0.38,0.291,0.758,0.466,1.132c-0.161,0.505-0.095,1.044,0.232,1.451c0.231,0.288,0.556,0.462,0.912,0.523
				c0.731,1.037,1.595,1.933,2.549,2.672c-0.01,0.351,0.09,0.694,0.315,0.974c0.443,0.551,1.227,0.69,1.926,0.4
				c2.954,1.387,6.364,1.477,9.331-0.059c0.527-0.273,1.087-0.623,1.665-1.034c0.517,0.135,1.057,0.037,1.446-0.316
				c0.345-0.313,0.501-0.764,0.474-1.23c0.137-0.122,0.274-0.248,0.411-0.375c0.086,0.024,0.173,0.045,0.264,0.059
				c0.999,0.148,1.913-0.442,2.043-1.316c0.049-0.33-0.021-0.653-0.181-0.936c0.782-0.891,1.529-1.844,2.205-2.828
				c0.177-0.073,0.35-0.172,0.509-0.3c0.548-0.441,0.805-1.094,0.724-1.683C143.337,168.962,144.162,165.662,142.886,163.198z"/>
			
				<path fill="none" stroke="#343752" stroke-width="0.7211" stroke-linecap="round" stroke-linejoin="round" stroke-miterlimit="10" d="
				M135.068,178.331c0.679,0.748,0.698,1.836,0.043,2.43c-0.655,0.594-1.736,0.47-2.414-0.278c-0.679-0.748-0.698-1.836-0.043-2.43"
				/>
			
				<path fill="none" stroke="#343752" stroke-width="0.7211" stroke-linecap="round" stroke-linejoin="round" stroke-miterlimit="10" d="
				M117.54,169.356c-0.787,0.633-1.874,0.587-2.428-0.102s-0.365-1.761,0.422-2.393c0.787-0.633,1.874-0.587,2.428,0.102"/>
			
				<path fill="none" stroke="#343752" stroke-width="0.7211" stroke-linecap="round" stroke-linejoin="round" stroke-miterlimit="10" d="
				M119.395,177.705c-0.787,0.633-1.874,0.587-2.428-0.102c-0.554-0.689-0.365-1.761,0.422-2.393"/>
			
				<path fill="none" stroke="#343752" stroke-width="0.7211" stroke-linecap="round" stroke-linejoin="round" stroke-miterlimit="10" d="
				M126.276,161.945c-0.999-0.148-1.704-0.977-1.574-1.851s1.044-1.464,2.043-1.316c0.999,0.148,1.704,0.977,1.574,1.851"/>
		</g>
	</g>
	<path opacity="0.2" fill="#FFFFFF" d="M122.505,178.134c-2.412-1.858,2.766-2.93,6.22-7.242c3.225-4.027,4.582-11.437,6.835-9.701
		c4.664,3.594,5.523,10.3,1.918,14.979C133.872,180.848,127.169,181.728,122.505,178.134z"/>
</g>
<g>
	<g>
		<path fill="#C497BD" d="M38.078,220.122c-6.32,7.621-17.622,8.676-25.243,2.356c-7.621-6.32-8.676-17.622-2.356-25.243
			s13.926-4.219,21.547,2.101C39.647,205.656,44.398,212.501,38.078,220.122z"/>
		
			<ellipse transform="matrix(0.7895 -0.6137 0.6137 0.7895 -121.5931 61.0425)" fill="#7F5A9A" cx="28.203" cy="207.803" rx="3.45" ry="4.928"/>
		
			<ellipse transform="matrix(0.8107 -0.5854 0.5854 0.8107 -119.2115 54.9904)" fill="#735587" cx="25.44" cy="211.862" rx="3.996" ry="5.709"/>
		
			<ellipse transform="matrix(0.8107 -0.5854 0.5854 0.8107 -115.9462 53.3508)" fill="#674A80" cx="24.536" cy="205.991" rx="3.996" ry="5.709"/>
		
			<ellipse transform="matrix(0.2176 -0.976 0.976 0.2176 -191.3194 182.5058)" fill="#674A80" cx="18.175" cy="210.585" rx="3.996" ry="5.709"/>
		
			<ellipse transform="matrix(0.0414 -0.9991 0.9991 0.0414 -189.158 223.1377)" fill="#7F5A9A" cx="21.71" cy="210.15" rx="5.709" ry="3.996"/>
		
			<ellipse transform="matrix(0.8215 -0.5703 0.5703 0.8215 -119.5198 51.0513)" fill="#674A80" cx="21.768" cy="216.396" rx="3.537" ry="5.052"/>
		<circle fill="#C497BD" cx="38.941" cy="207.184" r="2.55"/>
		<circle fill="#C497BD" cx="6.671" cy="205.652" r="2.55"/>
		<circle fill="#C497BD" cx="7.643" cy="214.783" r="2.55"/>
		<circle fill="#C497BD" cx="2.895" cy="212.811" r="1.632"/>
		<circle fill="#C497BD" cx="30.641" cy="198.42" r="1.632"/>
		<circle fill="#C497BD" cx="38.348" cy="219.379" r="1.632"/>
		<circle fill="#C497BD" cx="36.5" cy="198.647" r="1.632"/>
		
			<path fill="none" stroke="#343752" stroke-width="0.7211" stroke-linecap="round" stroke-linejoin="round" stroke-miterlimit="10" d="
			M41.216,209.332c0.707-0.453,1.177-1.246,1.177-2.148c0-1.408-1.142-2.55-2.55-2.55c-0.445,0-0.864,0.115-1.229,0.315
			c-1.525-1.919-3.486-3.788-5.687-5.614c-0.008-0.006-0.015-0.012-0.023-0.019c0.17-0.258,0.27-0.566,0.27-0.898
			c0-0.901-0.731-1.632-1.632-1.632c-0.475,0-0.901,0.204-1.199,0.528c-6.742-4.927-13.358-6.839-18.963-0.08
			c-1.498,1.807-2.581,3.821-3.261,5.926c-0.176-0.038-0.359-0.059-0.546-0.059c-1.408,0-2.55,1.142-2.55,2.55
			c0,1.302,0.976,2.375,2.236,2.53c-0.038,1.415,0.091,2.831,0.384,4.216c-0.963,0.364-1.648,1.295-1.648,2.385
			c0,1.408,1.142,2.55,2.55,2.55c0.299,0,0.585-0.052,0.851-0.146c1.062,1.971,2.511,3.775,4.341,5.292
			c7.397,6.134,18.261,5.32,24.672-1.702c0.246,0.148,0.532,0.235,0.84,0.235c0.901,0,1.632-0.731,1.632-1.632
			c0-0.472-0.201-0.895-0.521-1.193C42.201,215.114,42.298,212.168,41.216,209.332z"/>
	</g>
	<path opacity="0.2" fill="#FFFFFF" d="M35.631,221.8c-2.428,2.428-2.953-6.952-8.582-12.747
		c-5.257-5.412-15.806-7.106-13.538-9.373c4.696-4.696,13.455-3.551,19.563,2.557C39.183,208.345,40.327,217.104,35.631,221.8z"/>
</g>
<g>
	<path fill="#CBEBF7" d="M112.727,250.403c0.562,0.637,0.379,1.811,0.808,2.511c0.441,0.72,1.567,1.094,1.868,1.862
		c0.307,0.782-0.267,1.823-0.103,2.636c0.165,0.821,1.095,1.558,1.115,2.391c0.02,0.834-0.873,1.617-0.997,2.442
		c-0.124,0.823,0.5,1.834,0.234,2.627c-0.264,0.786-1.369,1.217-1.771,1.955c-0.395,0.725-0.154,1.889-0.682,2.548
		c-0.513,0.641-1.698,0.666-2.335,1.228c-0.637,0.562-0.809,1.735-1.509,2.164c-0.72,0.441-1.845,0.058-2.613,0.359
		c-0.782,0.307-1.347,1.35-2.16,1.514c-0.821,0.165-1.746-0.58-2.578-0.56c-0.834,0.02-1.722,0.809-2.547,0.685
		c-0.823-0.124-1.439-1.138-2.233-1.404c-0.44-0.147-0.979-0.075-1.499-0.053c-0.409,0.017-0.805,0.004-1.13-0.173
		c-0.725-0.395-0.956-1.558-1.615-2.086c-0.641-0.513-1.829-0.478-2.391-1.115c-0.562-0.637-0.379-1.811-0.808-2.511
		c-0.441-0.72-1.567-1.094-1.868-1.862c-0.307-0.782,0.267-1.823,0.103-2.636c-0.165-0.821-1.095-1.559-1.115-2.391
		c-0.02-0.834,0.873-1.617,0.997-2.442c0.124-0.823-0.5-1.834-0.234-2.627c0.264-0.786,1.369-1.217,1.771-1.955
		c0.395-0.725,0.154-1.889,0.682-2.548c0.513-0.641,1.698-0.666,2.335-1.228c0.637-0.562,0.809-1.735,1.509-2.164
		c0.72-0.441,1.845-0.058,2.613-0.359c0.782-0.307,1.347-1.35,2.16-1.514c0.821-0.165,1.746,0.58,2.578,0.56
		c0.834-0.02,1.722-0.809,2.547-0.685c0.823,0.124,1.439,1.138,2.233,1.404c0.786,0.264,1.89-0.176,2.628,0.226
		c0.725,0.395,0.956,1.558,1.615,2.085C110.978,249.801,112.165,249.766,112.727,250.403z"/>
	<path fill="#29A8E0" d="M103.45,249.954c-2.474-0.018-4.595,1.685-5.219,4.078c-0.751,2.877,2.3,0.862,5.2,1.63
		c0.009,0.002,0.018,0.005,0.028,0.007c1.425,0.387,2.203,1.916,1.748,3.321c-0.306,0.945-0.711,1.942-1.361,2.829
		c-2.484,3.392-7.592,3.876-4.2,6.36c3.392,2.484,8.156,1.748,10.64-1.644c2.218-3.029,1.868-7.152-0.649-9.768
		c-0.417-0.433-0.675-0.993-0.7-1.594c-0.064-1.51-0.758-2.92-1.887-3.894C106.113,250.472,104.875,249.965,103.45,249.954z"/>
	<circle fill="#57406C" cx="94.186" cy="251.955" r="0.981"/>
	<circle fill="#735587" cx="95.888" cy="259.026" r="1.685"/>
	<path fill="#735587" d="M101.381,257.373c0.356,0.404,0.318,1.02-0.086,1.376c-0.404,0.356-1.02,0.318-1.376-0.086
		c-0.356-0.404-0.318-1.02,0.086-1.376C100.409,256.931,101.025,256.969,101.381,257.373z"/>
	<path fill="#735587" d="M115.098,255.434c0.356,0.404,0.318,1.02-0.086,1.376c-0.404,0.356-1.02,0.318-1.376-0.086
		c-0.356-0.404-0.318-1.02,0.086-1.376C114.125,254.991,114.742,255.03,115.098,255.434z"/>
	<path fill="#735587" d="M93.955,260.454c0.356,0.404,0.318,1.02-0.086,1.376c-0.404,0.356-1.02,0.318-1.376-0.086
		c-0.356-0.404-0.318-1.02,0.086-1.376C92.982,260.012,93.598,260.05,93.955,260.454z"/>
	<path fill="#735587" d="M110.232,249.918c0.356,0.404,0.318,1.02-0.086,1.376c-0.404,0.356-1.02,0.318-1.376-0.086
		c-0.356-0.404-0.318-1.02,0.086-1.376C109.259,249.476,109.875,249.514,110.232,249.918z"/>
	<path fill="#735587" d="M94.469,254.314c0.356,0.404,0.318,1.02-0.086,1.376c-0.404,0.356-1.02,0.318-1.376-0.086
		c-0.356-0.404-0.318-1.02,0.086-1.376C93.496,253.872,94.113,253.91,94.469,254.314z"/>
	<path fill="#735587" d="M114.089,259.709c0.356,0.404,0.318,1.02-0.086,1.376c-0.404,0.356-1.02,0.318-1.376-0.086
		c-0.356-0.404-0.318-1.02,0.086-1.376C113.116,259.267,113.732,259.305,114.089,259.709z"/>
	<circle fill="#735587" cx="98.573" cy="261.769" r="1.173"/>
	<path fill="#57406C" d="M100.227,270.928c0.429,0.486,0.382,1.227-0.104,1.656c-0.486,0.429-1.227,0.382-1.656-0.104
		c-0.429-0.486-0.382-1.227,0.104-1.656S99.799,270.442,100.227,270.928z"/>
	<path fill="#735587" d="M108.745,268.165c0.429,0.486,0.382,1.227-0.104,1.656s-1.227,0.382-1.656-0.104
		c-0.429-0.486-0.382-1.227,0.104-1.656C107.575,267.633,108.316,267.68,108.745,268.165z"/>
	<circle fill="#57406C" cx="104.73" cy="261.168" r="1.763"/>
	<path fill="#735587" d="M100.691,247.672c0.399,0.452,0.356,1.142-0.096,1.541s-1.142,0.356-1.541-0.096s-0.356-1.142,0.096-1.541
		S100.292,247.219,100.691,247.672z"/>
	<circle fill="#57406C" cx="91.99" cy="262.617" r="1.799"/>
	<path fill="#735587" d="M96.966,266.058c0.356,0.404,0.318,1.02-0.086,1.376c-0.404,0.356-1.02,0.318-1.376-0.086
		c-0.356-0.404-0.318-1.02,0.086-1.376C95.994,265.615,96.61,265.654,96.966,266.058z"/>
	<path fill="#57406C" d="M110.724,262.213c0.356,0.404,0.318,1.02-0.086,1.376c-0.404,0.356-1.02,0.318-1.376-0.086
		c-0.356-0.404-0.318-1.02,0.086-1.376S110.368,261.809,110.724,262.213z"/>
	<path fill="#57406C" d="M104.18,265.876c0.222,0.251,0.198,0.635-0.054,0.857c-0.251,0.222-0.635,0.198-0.857-0.054
		c-0.222-0.251-0.198-0.635,0.054-0.857C103.574,265.601,103.958,265.625,104.18,265.876z"/>
	<path fill="#735587" d="M108.724,256.494c0.222,0.251,0.198,0.635-0.054,0.857s-0.635,0.198-0.857-0.054
		c-0.222-0.251-0.198-0.635,0.054-0.857C108.118,256.219,108.502,256.243,108.724,256.494z"/>
	
		<path fill="none" stroke="#343752" stroke-width="0.7211" stroke-linecap="round" stroke-linejoin="round" stroke-miterlimit="10" d="
		M113.628,250.403c0.562,0.637,0.379,1.811,0.808,2.511c0.441,0.72,1.567,1.094,1.868,1.862c0.307,0.782-0.267,1.823-0.103,2.636
		c0.165,0.821,1.095,1.558,1.115,2.391c0.02,0.834-0.873,1.617-0.997,2.442c-0.124,0.823,0.5,1.834,0.234,2.627
		c-0.264,0.786-1.369,1.217-1.771,1.955c-0.395,0.725-0.154,1.889-0.682,2.548c-0.513,0.641-1.698,0.666-2.335,1.228
		c-0.637,0.562-0.809,1.735-1.509,2.164c-0.72,0.441-1.845,0.058-2.613,0.359c-0.782,0.307-1.347,1.35-2.16,1.514
		c-0.821,0.165-1.746-0.58-2.578-0.56c-0.834,0.02-1.722,0.809-2.547,0.685c-0.823-0.124-1.439-1.138-2.233-1.404
		c-0.44-0.147-0.979-0.075-1.499-0.053c-0.409,0.017-0.805,0.004-1.13-0.173c-0.725-0.395-0.956-1.558-1.615-2.086
		c-0.641-0.513-1.829-0.478-2.391-1.115s-0.379-1.811-0.808-2.511c-0.441-0.72-1.567-1.094-1.868-1.862
		c-0.307-0.782,0.267-1.823,0.103-2.636c-0.165-0.821-1.095-1.559-1.115-2.391c-0.02-0.834,0.873-1.617,0.997-2.442
		c0.124-0.823-0.5-1.834-0.234-2.627c0.264-0.786,1.369-1.217,1.771-1.955c0.395-0.725,0.154-1.889,0.682-2.548
		c0.513-0.641,1.698-0.666,2.335-1.228c0.637-0.562,0.809-1.735,1.509-2.164c0.72-0.441,1.845-0.058,2.613-0.359
		c0.782-0.307,1.347-1.35,2.16-1.514c0.821-0.165,1.746,0.58,2.578,0.56c0.834-0.02,1.722-0.809,2.547-0.685
		c0.823,0.124,1.439,1.138,2.233,1.404c0.786,0.264,1.89-0.176,2.628,0.226c0.725,0.395,0.956,1.558,1.615,2.085
		C111.879,249.801,113.067,249.766,113.628,250.403z"/>
	<path opacity="0.2" fill="#FFFFFF" d="M111.098,266.944c-2.153,2.153-1.613-5.159-5.446-9.138
		c-3.579-3.716-11.69-3.976-9.679-5.987c4.164-4.163,10.924-4.153,15.101,0.024C115.251,256.019,115.262,262.78,111.098,266.944z"/>
</g>
<g>
	<path fill="#E7E0EF" d="M170.205,260.169c0,2.646-2.557,4.63-3.794,6.767c-1.275,2.204-1.759,5.397-3.963,6.672
		c-2.137,1.236-5.114,0.094-7.76,0.094c-2.646,0-5.623,1.142-7.76-0.094c-2.204-1.275-2.688-4.468-3.963-6.673
		c-1.236-2.137-3.794-4.121-3.794-6.767c0-2.646,2.557-4.63,3.794-6.767c1.275-2.204,1.759-5.397,3.963-6.673
		c2.137-1.236,5.114-0.094,7.76-0.094s5.623-1.142,7.76,0.094c2.204,1.275,2.688,4.468,3.963,6.673
		C167.648,255.539,170.205,257.523,170.205,260.169z"/>
	<path fill="#7F5A9A" d="M153.419,249.934c-3.496,0.242-4.326-0.146-5.048,0.586c-1.021,1.035-0.932,3.408,0.18,4.597
		c1.745,1.866,6.3,1.132,8.653-1.037c0.806-0.742,1.086-1.406,1.668-1.352c1.524,0.141,1.368,4.855,3.651,5.589
		c1.456,0.468,2.757-1.052,3.425-0.451c0.627,0.564,0.319,2.653-0.856,3.425c-2.173,1.429-5.949-2.543-7.572-1.307
		c-1.567,1.193,0.849,5.734-0.586,6.715c-1.469,1.005-5.019-3.061-6.084-2.254c-1.031,0.781,0.123,6.227,3.561,7.301
		c2.705,0.845,5.632-1.388,6.941-3.245c1.339-1.9,0.608-2.874,2.073-4.597c1.927-2.268,4.244-1.82,4.687-3.38
		c0.37-1.303-1.144-1.972-2.524-4.642c-2.193-4.244-0.865-7.39-2.569-8.113c-1.062-0.451-1.609,0.759-5.048,1.577
		C156.366,249.73,154.973,249.827,153.419,249.934z"/>
	<circle fill="#735587" cx="146.64" cy="255.082" r="1.018"/>
	<circle fill="#FFFFFF" cx="161.361" cy="268.328" r="1.018"/>
	<path fill="#735587" d="M148.167,257.934c0,0.281-0.228,0.509-0.509,0.509s-0.509-0.228-0.509-0.509s0.228-0.509,0.509-0.509
		S148.167,257.653,148.167,257.934z"/>
	<circle fill="#FFFFFF" cx="163.861" cy="266.152" r="0.509"/>
	<circle fill="#FFFFFF" cx="162.61" cy="252.711" r="0.509"/>
	<path fill="#735587" d="M152.427,271.083c0,0.281-0.228,0.509-0.509,0.509c-0.281,0-0.509-0.228-0.509-0.509
		s0.228-0.509,0.509-0.509C152.199,270.574,152.427,270.802,152.427,271.083z"/>
	<path fill="#735587" d="M146.775,266.01c0,0.281-0.228,0.509-0.509,0.509s-0.509-0.228-0.509-0.509s0.228-0.509,0.509-0.509
		S146.775,265.729,146.775,266.01z"/>
	<circle fill="#FFFFFF" cx="161.426" cy="250.71" r="0.769"/>
	
		<path fill="none" stroke="#343752" stroke-width="0.7211" stroke-linecap="round" stroke-linejoin="round" stroke-miterlimit="10" d="
		M171.106,260.169c0,2.646-2.557,4.63-3.794,6.767c-1.275,2.204-1.759,5.397-3.963,6.672c-2.137,1.236-5.114,0.094-7.76,0.094
		c-2.646,0-5.623,1.142-7.76-0.094c-2.204-1.275-2.688-4.468-3.963-6.673c-1.236-2.137-3.794-4.121-3.794-6.767
		c0-2.646,2.557-4.63,3.794-6.767c1.275-2.204,1.759-5.397,3.963-6.673c2.137-1.236,5.114-0.094,7.76-0.094
		c2.646,0,5.623-1.142,7.76,0.094c2.204,1.275,2.688,4.468,3.963,6.673C168.549,255.539,171.106,257.523,171.106,260.169z"/>
	<path opacity="0.2" fill="#FFFFFF" d="M163.631,266.842c-2.153,2.153-1.613-5.159-5.446-9.138
		c-3.579-3.716-11.69-3.976-9.679-5.987c4.164-4.163,10.924-4.153,15.101,0.024C167.784,255.917,167.794,262.678,163.631,266.842z"
		/>
</g>
<g>
	<g>
		<path fill="#E6AFC0" d="M221.484,263.595c-0.207,0.985-1.57,1.575-1.973,2.453c-0.417,0.906,0.81,3.058,0.215,3.83
			c-0.605,0.784-2.882-0.011-3.638,0.613c-0.76,0.627-0.984,2.094-1.864,2.537c-0.876,0.441-2.187-0.251-3.148-0.014
			c-0.946,0.234-1.783,1.461-2.78,1.477c-0.966,0.016-1.843-1.176-2.829-1.384s-2.269,0.531-3.146,0.127
			c-0.906-0.417-1.178-1.877-1.95-2.471c-0.784-0.605-2.263-0.499-2.887-1.255c-0.627-0.76-0.241-2.193-0.684-3.073
			c-0.441-0.876-3.791-1.074-4.029-2.036c-0.234-0.946,2.701-2.412,2.685-3.41c-0.016-0.966-1.026-2.054-0.819-3.04
			s1.57-1.575,1.973-2.453c0.417-0.906-0.016-2.323,0.579-3.095c0.605-0.784,2.088-0.725,2.845-1.349
			c0.76-0.627,0.984-2.094,1.864-2.537c0.876-0.441,2.187,0.251,3.148,0.014c0.946-0.234,1.783-1.461,2.78-1.477
			c0.966-0.016,1.843,1.176,2.829,1.384c0.985,0.207,3.195-2.232,4.073-1.828c0.906,0.417,0.252,3.577,1.024,4.172
			c0.784,0.605,2.263,0.499,2.887,1.255c0.627,0.76,0.241,2.193,0.684,3.073c0.441,0.876,3.973,1.113,4.21,2.074
			c0.234,0.946-2.882,2.374-2.866,3.372C220.681,261.521,221.691,262.609,221.484,263.595z"/>
		<path fill="#7F5A9A" d="M209.585,251.326c3.383,0.348,5.844,3.372,5.497,6.755c-0.348,3.383-2.773,0.016-6.157-0.332
			c-3.383-0.348-6.443,2.457-6.096-0.927C203.177,253.44,206.202,250.979,209.585,251.326z"/>
		<path fill="#674A80" d="M202.961,267.61c-2.655-2.126-3.084-6.001-0.959-8.656s2.339,1.49,4.994,3.615
			c2.655,2.126,6.746,1.427,4.621,4.082S205.617,269.736,202.961,267.61z"/>
		<circle fill="#CD6666" cx="214.253" cy="254.016" r="1.055"/>
		<circle fill="#CD6666" cx="218.005" cy="264.343" r="1.055"/>
		<circle fill="#CD6666" cx="214.253" cy="251.294" r="0.745"/>
		<circle fill="#CD6666" cx="200.595" cy="264.033" r="0.745"/>
		<circle fill="#CD6666" cx="212.764" cy="261.367" r="0.745"/>
		<circle fill="#CD6666" cx="217.402" cy="258.093" r="0.745"/>
		<circle fill="#CD6666" cx="198.668" cy="265.088" r="0.745"/>
		<circle fill="#CD6666" cx="200.884" cy="255.058" r="0.372"/>
		<circle fill="#CD6666" cx="203.829" cy="270.247" r="0.372"/>
		<circle fill="#CD6666" cx="215.681" cy="261.993" r="0.372"/>
		<circle fill="#CD6666" cx="203.175" cy="252.779" r="0.372"/>
		<path fill="#CD6666" d="M219.338,262.112c0,0.329-0.267,0.595-0.595,0.595s-0.595-0.267-0.595-0.595
			c0-0.329,0.267-0.595,0.595-0.595S219.338,261.783,219.338,262.112z"/>
		<circle fill="#CD6666" cx="214.253" cy="265.088" r="0.99"/>
		<circle fill="#CD6666" cx="213.509" cy="268.328" r="0.99"/>
		<circle fill="#CD6666" cx="208.959" cy="257.849" r="0.99"/>
		<circle fill="#CD6666" cx="209.532" cy="271.933" r="0.99"/>
		<circle fill="#CD6666" cx="200.512" cy="266.984" r="0.662"/>
		
			<path fill="none" stroke="#343752" stroke-width="0.7211" stroke-linecap="round" stroke-linejoin="round" stroke-miterlimit="10" d="
			M222.409,263.595c-0.207,0.985-1.57,1.575-1.973,2.453c-0.417,0.906,0.81,3.058,0.215,3.83c-0.605,0.784-2.882-0.011-3.638,0.613
			c-0.76,0.627-0.984,2.094-1.864,2.537c-0.876,0.441-2.187-0.251-3.148-0.014c-0.946,0.234-1.783,1.461-2.78,1.477
			c-0.966,0.016-1.843-1.176-2.829-1.384s-2.269,0.531-3.146,0.127c-0.906-0.417-1.178-1.877-1.95-2.471
			c-0.784-0.605-2.263-0.499-2.887-1.255c-0.627-0.76-0.241-2.193-0.684-3.073c-0.441-0.876-3.791-1.074-4.029-2.036
			c-0.234-0.946,2.701-2.412,2.685-3.41c-0.016-0.966-1.026-2.054-0.819-3.04c0.207-0.985,1.57-1.575,1.973-2.453
			c0.417-0.906-0.016-2.323,0.579-3.095c0.605-0.784,2.088-0.725,2.845-1.349c0.76-0.627,0.984-2.094,1.864-2.537
			c0.876-0.441,2.187,0.251,3.148,0.014c0.946-0.234,1.783-1.461,2.78-1.477c0.966-0.016,1.843,1.176,2.829,1.384
			c0.985,0.207,3.195-2.232,4.073-1.828c0.906,0.417,0.252,3.577,1.024,4.172c0.784,0.605,2.263,0.499,2.887,1.255
			c0.627,0.76,0.241,2.193,0.684,3.073c0.441,0.876,3.973,1.113,4.21,2.074c0.234,0.946-2.882,2.374-2.866,3.372
			C221.606,261.521,222.616,262.609,222.409,263.595z"/>
	</g>
	<path opacity="0.2" fill="#FFFFFF" d="M217.234,267.369c-2.153,2.153-1.613-5.159-5.446-9.138
		c-3.579-3.716-11.69-3.976-9.679-5.987c4.164-4.164,10.924-4.153,15.101,0.024C221.387,256.445,221.398,263.206,217.234,267.369z"
		/>
</g>
<g>
	<g>
		<path fill="#87C4EA" d="M273.235,249.995c4.348,5.753,2.055,14.813-5.121,20.236s-16.518,5.157-20.866-0.596
			c-4.348-5.753-0.941-13.339,6.235-18.762C260.659,245.45,268.887,244.242,273.235,249.995z"/>
		<path fill="#7F5A9A" d="M269.892,266.787c-3.916,5.085-13.265,7.748-16.349,2.079c-2.092-3.847,2.725-4.469,6.641-9.554
			c3.916-5.085,3.734-8.632,7.539-8.862C274.165,250.061,273.808,261.701,269.892,266.787z"/>
		<circle fill="#FFFFFF" cx="254.842" cy="255.818" r="1.291"/>
		<circle fill="#FFFFFF" cx="264.393" cy="251.281" r="1.291"/>
		<circle fill="#FFFFFF" cx="272.911" cy="260.169" r="1.291"/>
		<path fill="#FFFFFF" d="M251.42,263.495c0.502-0.036,0.939,0.342,0.975,0.844c0.036,0.502-0.342,0.939-0.844,0.975
			c-0.502,0.036-0.939-0.342-0.975-0.844C250.539,263.968,250.917,263.531,251.42,263.495z"/>
		<circle fill="#FFFFFF" cx="262.879" cy="268.746" r="0.912"/>
		<path fill="#FFFFFF" d="M252.331,268.749c0.502-0.036,0.939,0.342,0.975,0.844c0.036,0.502-0.342,0.939-0.844,0.975
			c-0.502,0.036-0.939-0.342-0.975-0.844C251.451,269.221,251.829,268.785,252.331,268.749z"/>
		<path fill="#FFFFFF" d="M251.96,260.333c0.251-0.018,0.469,0.171,0.487,0.422s-0.171,0.469-0.422,0.487
			c-0.251,0.018-0.469-0.171-0.487-0.422C251.52,260.57,251.709,260.351,251.96,260.333z"/>
		<path fill="#FFFFFF" d="M274.625,254.506c0.251-0.018,0.469,0.171,0.487,0.422c0.018,0.251-0.171,0.469-0.422,0.487
			c-0.251,0.018-0.469-0.171-0.487-0.422C274.185,254.742,274.374,254.524,274.625,254.506z"/>
		<path fill="#FFFFFF" d="M265.196,266.247c0.251-0.018,0.469,0.171,0.487,0.422c0.018,0.251-0.171,0.469-0.422,0.487
			c-0.251,0.018-0.469-0.171-0.487-0.422C264.756,266.483,264.945,266.265,265.196,266.247z"/>
		<path fill="#FFFFFF" d="M258.946,251.283c0.402-0.029,0.75,0.273,0.779,0.675c0.029,0.402-0.273,0.75-0.675,0.779
			c-0.402,0.029-0.75-0.273-0.779-0.675S258.545,251.311,258.946,251.283z"/>
		
			<ellipse transform="matrix(0.2403 -0.9707 0.9707 0.2403 -52.2663 445.5628)" fill="#FFFFFF" cx="258.516" cy="256.172" rx="1.211" ry="1.211"/>
		
			<path fill="none" stroke="#343752" stroke-width="0.7211" stroke-linecap="round" stroke-linejoin="round" stroke-miterlimit="10" d="
			M274.136,249.995c4.348,5.753,2.055,14.813-5.121,20.236s-16.518,5.157-20.866-0.596c-4.348-5.753-0.941-13.339,6.235-18.762
			C261.56,245.45,269.788,244.242,274.136,249.995z"/>
	</g>
	<path opacity="0.2" fill="#FFFFFF" d="M271.738,264.915c-2.153,2.153-1.419-4.964-5.026-8.719
		c-3.369-3.507-11.239-3.525-9.229-5.536c4.164-4.163,10.73-4.348,14.666-0.411C276.086,254.185,275.902,260.751,271.738,264.915z"
		/>
</g>
<g>
	<g>
		<path fill="#FFD79A" d="M278.33,322.299c0,1.363-3.927,3.217-4.327,4.447c-0.414,1.275,1.253,4.467,0.481,5.529
			c-0.78,1.072-5.569-0.82-6.641-0.04c-1.061,0.772-1.439,2.97-2.714,3.384c-1.23,0.399-2.822-1.143-4.185-1.143
			s-2.955,1.543-4.185,1.143c-1.275-0.414-2.367-1.37-3.429-2.142c-1.072-0.78-5.53,0.351-6.31-0.721
			c-0.772-1.061,3.172-5.114,2.758-6.389c-0.399-1.23-6.844-2.403-6.844-3.767s4.288-2.796,4.687-4.026
			c0.414-1.275-0.232-4.648,0.541-5.709c0.78-1.072,4.811,1.157,5.883,0.377c1.061-0.772,0.414-6.033,1.689-6.447
			c1.23-0.399,3.846,4.207,5.21,4.207c1.363,0,2.955-1.543,4.185-1.143c1.275,0.414,1.652,2.611,2.714,3.384
			c1.072,0.78,6.101-2.531,6.881-1.459c0.772,1.061-3.028,6.052-2.614,7.327C272.51,320.34,278.33,320.936,278.33,322.299z"/>
		
			<path fill="none" stroke="#343752" stroke-width="0.7211" stroke-linecap="round" stroke-linejoin="round" stroke-miterlimit="10" d="
			M279.232,322.299c0,1.363-3.927,3.217-4.327,4.447c-0.414,1.275,1.253,4.467,0.481,5.529c-0.78,1.072-5.569-0.82-6.641-0.04
			c-1.061,0.772-1.439,2.97-2.714,3.384c-1.23,0.399-2.822-1.143-4.185-1.143s-2.955,1.543-4.185,1.143
			c-1.275-0.414-2.367-1.37-3.429-2.142c-1.072-0.78-5.53,0.351-6.31-0.721c-0.772-1.061,3.172-5.114,2.758-6.389
			c-0.399-1.23-6.844-2.403-6.844-3.767s4.288-2.796,4.687-4.026c0.414-1.275-0.232-4.648,0.541-5.709
			c0.78-1.072,4.811,1.157,5.883,0.377c1.061-0.772,0.414-6.033,1.689-6.447c1.23-0.399,3.846,4.207,5.21,4.207
			c1.363,0,2.955-1.543,4.185-1.143c1.275,0.414,1.652,2.611,2.714,3.384c1.072,0.78,6.101-2.531,6.881-1.459
			c0.772,1.061-3.028,6.052-2.614,7.327C273.411,320.34,279.232,320.936,279.232,322.299z"/>
		<circle fill="#7F5A9A" cx="263.209" cy="319.82" r="4.507"/>
		<g>
			<path fill="#FFFFFF" d="M254.844,315.749c0.306,0.347,0.273,0.875-0.074,1.181s-0.875,0.273-1.181-0.074
				c-0.306-0.346-0.273-0.875,0.074-1.181C254.01,315.37,254.538,315.403,254.844,315.749z"/>
			<circle fill="#735587" cx="255.669" cy="322.333" r="1.437"/>
			<path fill="#735587" d="M265.379,327.358c0.304,0.344,0.271,0.87-0.073,1.174c-0.344,0.304-0.87,0.271-1.174-0.073
				c-0.304-0.344-0.271-0.87,0.073-1.174C264.549,326.98,265.075,327.013,265.379,327.358z"/>
			<path fill="#735587" d="M271.358,319.856c0.304,0.344,0.271,0.87-0.073,1.174s-0.87,0.271-1.174-0.073
				c-0.304-0.344-0.271-0.87,0.073-1.174C270.528,319.479,271.054,319.511,271.358,319.856z"/>
			<path fill="#735587" d="M252.356,314.479c0.304,0.344,0.271,0.87-0.073,1.174s-0.87,0.271-1.174-0.073
				c-0.304-0.344-0.271-0.87,0.073-1.174S252.052,314.134,252.356,314.479z"/>
			<circle fill="#FFFFFF" cx="253.396" cy="324.102" r="0.832"/>
			<path fill="#735587" d="M252.356,330.239c0.304,0.344,0.271,0.87-0.073,1.174c-0.344,0.304-0.87,0.271-1.174-0.073
				c-0.304-0.344-0.271-0.87,0.073-1.174S252.052,329.895,252.356,330.239z"/>
			<path fill="#735587" d="M256.121,330.764c0.304,0.344,0.271,0.87-0.073,1.174c-0.344,0.304-0.87,0.271-1.174-0.073
				c-0.304-0.344-0.271-0.87,0.073-1.174C255.292,330.386,255.817,330.419,256.121,330.764z"/>
			<path fill="#FFFFFF" d="M259.937,327.968c0.304,0.344,0.271,0.87-0.073,1.174s-0.87,0.271-1.174-0.073
				c-0.304-0.344-0.271-0.87,0.073-1.174S259.633,327.624,259.937,327.968z"/>
			<path fill="#FFFFFF" d="M267.901,314.566c0.304,0.344,0.271,0.87-0.073,1.174s-0.87,0.271-1.174-0.073s-0.271-0.87,0.073-1.174
				S267.597,314.221,267.901,314.566z"/>
			<path fill="#735587" d="M254.458,318.315c0.304,0.344,0.271,0.87-0.073,1.174s-0.87,0.271-1.174-0.073s-0.271-0.87,0.073-1.174
				C253.629,317.938,254.154,317.97,254.458,318.315z"/>
			<circle fill="#735587" cx="270.567" cy="323.466" r="0.832"/>
			<path fill="#FFFFFF" d="M258.708,324.011c0.366,0.414,0.326,1.046-0.088,1.412c-0.414,0.366-1.046,0.326-1.412-0.088
				c-0.366-0.414-0.326-1.046,0.088-1.412S258.342,323.597,258.708,324.011z"/>
			<path fill="#57406C" d="M259.369,332.484c0.366,0.414,0.326,1.046-0.088,1.412c-0.414,0.366-1.046,0.326-1.412-0.088
				c-0.366-0.414-0.326-1.046,0.088-1.412S259.003,332.07,259.369,332.484z"/>
			<path fill="#735587" d="M266.633,330.128c0.366,0.414,0.326,1.046-0.088,1.412s-1.046,0.326-1.412-0.088
				c-0.366-0.414-0.326-1.046,0.088-1.412C265.635,329.674,266.267,329.714,266.633,330.128z"/>
			<path fill="#FFFFFF" d="M264.336,323.166c0.549,0.623,0.49,1.573-0.133,2.122c-0.623,0.549-1.573,0.49-2.122-0.133
				s-0.49-1.573,0.133-2.122S263.787,322.543,264.336,323.166z"/>
			<path fill="#FFFFFF" d="M259.764,312.65c0.34,0.386,0.303,0.974-0.082,1.314c-0.386,0.34-0.974,0.303-1.314-0.082
				c-0.34-0.386-0.303-0.974,0.082-1.314S259.424,312.264,259.764,312.65z"/>
			<path fill="#FFFFFF" d="M251.511,320.925c0.561,0.635,0.5,1.605-0.135,2.166c-0.635,0.561-1.605,0.5-2.166-0.135
				c-0.561-0.635-0.5-1.605,0.135-2.166C249.981,320.229,250.951,320.29,251.511,320.925z"/>
			<path fill="#735587" d="M256.588,328.33c0.304,0.344,0.271,0.87-0.073,1.174c-0.344,0.304-0.87,0.271-1.174-0.073
				c-0.304-0.344-0.271-0.87,0.073-1.174S256.284,327.986,256.588,328.33z"/>
			<path fill="#FFFFFF" d="M268.321,325.051c0.304,0.344,0.271,0.87-0.073,1.174s-0.87,0.271-1.174-0.073s-0.271-0.87,0.073-1.174
				S268.017,324.707,268.321,325.051z"/>
			<path fill="#FFFFFF" d="M271.562,328.486c0.304,0.344,0.271,0.87-0.073,1.174s-0.87,0.271-1.174-0.073s-0.271-0.87,0.073-1.174
				C270.733,328.109,271.258,328.142,271.562,328.486z"/>
			<path fill="#FFFFFF" d="M275.438,323.551c0.304,0.344,0.271,0.87-0.073,1.174c-0.344,0.304-0.87,0.271-1.174-0.073
				s-0.271-0.87,0.073-1.174C274.609,323.174,275.134,323.207,275.438,323.551z"/>
			<path fill="#57406C" d="M262.74,328.176c0.189,0.214,0.169,0.542-0.046,0.731c-0.214,0.189-0.542,0.169-0.731-0.046
				s-0.169-0.542,0.046-0.731S262.551,327.961,262.74,328.176z"/>
			<path fill="#735587" d="M271.641,326.608c0.189,0.214,0.169,0.542-0.046,0.731s-0.542,0.169-0.731-0.046
				s-0.169-0.542,0.046-0.731S271.451,326.394,271.641,326.608z"/>
			<path fill="#735587" d="M273.853,325.108c0.189,0.214,0.169,0.542-0.046,0.731s-0.542,0.169-0.731-0.046
				s-0.169-0.542,0.046-0.731S273.664,324.894,273.853,325.108z"/>
		</g>
	</g>
	<path opacity="0.2" fill="#FFFFFF" d="M255.03,329.935c-2.354-1.931,4.8-1.9,8.182-5.859c3.158-3.698,2.403-11.531,4.602-9.728
		c4.553,3.734,5.382,10.25,1.852,14.555C266.136,333.206,259.583,333.668,255.03,329.935z"/>
</g>
<g>
	<g>
		<path d="M203.614,80.956h-8.05v-0.91h3.41v-1.99h1.18v1.99h3.46V80.956z M203.374,77.396l-0.59,0.91
			c-0.667-0.153-1.307-0.432-1.92-0.835c-0.614-0.403-1.04-0.882-1.28-1.435c-0.213,0.56-0.631,1.042-1.255,1.445
			c-0.624,0.404-1.275,0.682-1.955,0.835l-0.56-0.95c0.487-0.066,0.955-0.208,1.405-0.425c0.45-0.216,0.841-0.518,1.175-0.905
			s0.523-0.81,0.57-1.27h-2.71v-0.92h6.67v0.92h-2.71c0.046,0.454,0.245,0.877,0.595,1.27c0.35,0.394,0.75,0.7,1.2,0.92
			C202.459,77.176,202.914,77.322,203.374,77.396z"/>
		<path d="M208.984,75.466h-4.71v-0.88h4.71V75.466z M208.814,77.026c0,0.406-0.2,0.736-0.6,0.99c-0.4,0.253-0.9,0.38-1.5,0.38
			c-0.6,0-1.1-0.126-1.5-0.38c-0.4-0.253-0.6-0.583-0.6-0.99c0-0.4,0.2-0.729,0.6-0.985c0.4-0.256,0.9-0.385,1.5-0.385
			c0.6,0,1.1,0.128,1.5,0.385C208.614,76.297,208.814,76.625,208.814,77.026z M205.454,74.176v-0.88h2.45v0.88H205.454z
			 M211.844,82.056h-6.29v-2.12h4.86v-0.42h-4.86v-0.87h6.02v2.09h-4.83v0.44h5.1V82.056z M205.754,77.026
			c0,0.16,0.093,0.29,0.28,0.39c0.187,0.1,0.413,0.15,0.68,0.15s0.494-0.05,0.68-0.15s0.28-0.23,0.28-0.39
			c0-0.153-0.093-0.28-0.28-0.38s-0.414-0.15-0.68-0.15s-0.493,0.05-0.68,0.15C205.847,76.746,205.754,76.873,205.754,77.026z
			 M211.574,78.246h-1.16v-0.77h-1.19v-0.88h1.19v-0.68h-1.18v-0.87h1.18v-1.88h1.16V78.246z"/>
		<path d="M220.914,80.956h-8.05v-0.93h3.42v-1.89h-2.45v-4.27h6.12v4.27h-2.5v1.89h3.46V80.956z M218.784,77.206v-2.42h-3.79v2.42
			H218.784z"/>
		<path d="M226.013,79.076l-0.659,0.83c-0.32-0.2-0.644-0.501-0.971-0.905c-0.326-0.403-0.543-0.812-0.649-1.225
			c-0.127,0.466-0.347,0.913-0.66,1.34s-0.677,0.763-1.09,1.01l-0.69-0.8c0.587-0.38,1.045-0.907,1.375-1.58s0.495-1.47,0.495-2.39
			v-1.33h1.12v1.32c0,0.86,0.151,1.615,0.455,2.265C225.042,78.261,225.467,78.749,226.013,79.076z M227.314,81.666h-1.091v-4.48
			h-1.199v-0.95h1.199v-2.9h1.091V81.666z M229.093,82.076h-1.109v-8.91h1.109V82.076z"/>
		<path d="M238.213,80.956h-8.05v-0.92h3.42v-1.72h-2.68v-0.93h1.31l-0.25-2.05l1.17-0.15l0.181,2.2h1.779l0.32-2.18l1.13,0.19
			l-0.37,1.99h1.26v0.93h-2.68v1.72h3.46V80.956z M237.454,74.766h-6.57v-0.93h6.57V74.766z"/>
	</g>
</g>
<g>
	<path d="M86.211,121.425h-8.05v-0.93h3.01v-1.38h1.16v1.38h3.88V121.425z M85.491,125.896h-6.41v-2.33h4.91v-0.6h-4.97v-0.92h6.14
		v2.33h-4.91v0.58h5.24V125.896z M85.181,117.275c0,1.32-0.066,2.253-0.2,2.8l-1.12-0.12c0.106-0.507,0.16-1.09,0.16-1.75h-4.94
		v-0.93H85.181z"/>
	<path d="M91.401,126.015h-1.18v-3.17h-3.41v-0.92h8.05v0.92h-3.46V126.015z M94.531,120.235l-0.51,0.95
		c-0.673-0.1-1.318-0.343-1.935-0.73c-0.617-0.387-1.032-0.82-1.245-1.3c-0.193,0.48-0.595,0.912-1.205,1.295
		c-0.61,0.384-1.262,0.632-1.955,0.745l-0.5-0.96c0.813-0.086,1.523-0.363,2.13-0.83c0.607-0.466,0.91-1.02,0.91-1.66v-0.46h1.24
		v0.46c0,0.427,0.158,0.827,0.475,1.2c0.317,0.374,0.707,0.67,1.17,0.89C93.569,120.055,94.044,120.189,94.531,120.235z"/>
	<path d="M100.791,121.045l-0.67,0.91c-0.367-0.147-0.743-0.389-1.13-0.725c-0.387-0.337-0.67-0.698-0.85-1.085
		c-0.126,0.44-0.395,0.852-0.805,1.235c-0.41,0.383-0.832,0.648-1.265,0.795l-0.7-0.93c0.66-0.24,1.183-0.611,1.57-1.115
		s0.58-1.085,0.58-1.745v-0.88h1.21v0.82c0,0.654,0.202,1.224,0.605,1.71C99.739,120.522,100.225,120.859,100.791,121.045z
		 M102.891,124.206c0,0.546-0.27,0.981-0.81,1.305s-1.293,0.485-2.26,0.485c-0.947,0-1.688-0.162-2.225-0.485
		s-0.805-0.758-0.805-1.305c0-0.56,0.267-1.002,0.8-1.325c0.533-0.323,1.276-0.485,2.23-0.485c0.966,0,1.72,0.162,2.26,0.485
		S102.891,123.646,102.891,124.206z M99.821,123.335c-0.574,0-1.022,0.077-1.345,0.23s-0.485,0.367-0.485,0.64
		c0,0.267,0.162,0.475,0.485,0.625c0.323,0.15,0.771,0.225,1.345,0.225c0.593,0,1.051-0.075,1.375-0.225
		c0.323-0.15,0.485-0.358,0.485-0.625c0-0.273-0.162-0.487-0.485-0.64C100.873,123.412,100.415,123.335,99.821,123.335z
		 M102.831,122.295h-1.17v-2.42h-1.52v-0.93h1.52v-1.85h1.17V122.295z"/>
	<path d="M107.051,118.765v-0.96h4.7v0.96h-1.71c0.006,0.647,0.202,1.212,0.585,1.695s0.848,0.812,1.395,0.985l-0.64,0.92
		c-0.354-0.133-0.718-0.37-1.095-0.71c-0.377-0.34-0.655-0.707-0.835-1.1c-0.133,0.427-0.401,0.838-0.805,1.235
		c-0.403,0.396-0.825,0.671-1.265,0.825l-0.69-0.92c0.653-0.24,1.175-0.617,1.565-1.13s0.585-1.104,0.585-1.77v-0.03H107.051z
		 M114.301,125.765h-6.15v-2.81h1.18v1.89h4.97V125.765z M114.111,123.555h-1.17v-3.15h-1.34v-0.94h1.34v-2.37h1.17V123.555z"/>
	<path d="M122.411,117.575c0,1.547-0.097,2.813-0.29,3.8h1.32v0.93h-3.46v3.7h-1.17v-3.7h-3.42v-0.93h5.62
		c0.16-0.773,0.24-1.727,0.24-2.86h-4.87v-0.94H122.411z"/>
	<path d="M128.541,123.005l-0.66,0.83c-0.32-0.2-0.644-0.501-0.97-0.905c-0.327-0.403-0.543-0.812-0.65-1.225
		c-0.127,0.466-0.347,0.913-0.66,1.34s-0.677,0.763-1.09,1.01l-0.69-0.8c0.586-0.38,1.045-0.907,1.375-1.58s0.495-1.47,0.495-2.39
		v-1.33h1.12v1.32c0,0.86,0.152,1.615,0.455,2.265C127.569,122.19,127.994,122.679,128.541,123.005z M129.841,125.595h-1.09v-4.48
		h-1.2v-0.95h1.2v-2.9h1.09V125.595z M131.621,126.005h-1.11v-8.91h1.11V126.005z"/>
	<path d="M140.741,124.885h-8.05v-0.92h3.42v-1.72h-2.68v-0.93h1.31l-0.25-2.05l1.17-0.15l0.18,2.2h1.78l0.32-2.18l1.13,0.19
		l-0.37,1.99h1.26v0.93h-2.68v1.72h3.46V124.885z M139.98,118.695h-6.57v-0.93h6.57V118.695z"/>
</g>
<g>
	<g>
		<circle fill="#F0EFEF" cx="329.256" cy="100.319" r="17.553"/>
	</g>
	<g>
		<g>
			<path fill="#D1B8D9" d="M335.335,88.621c1.217,0.68,1.705,2.261,2.604,3.231c0.932,1.005,2.463,1.622,3.025,2.841
				c0.568,1.231,0.042,2.8,0.204,4.146c0.161,1.333,1.049,2.731,0.783,4.076c-0.256,1.298-1.595,2.255-2.275,3.473
				c-0.68,1.217-0.792,2.859-1.762,3.759c-1.005,0.932-2.662,0.91-3.88,1.473c-1.231,0.568-2.29,1.84-3.636,2.002
				c-1.333,0.161-2.661-0.818-4.006-1.084c-1.298-0.256-2.9,0.159-4.117-0.521s-1.705-2.261-2.604-3.231
				c-0.932-1.005-2.463-1.622-3.025-2.841c-0.568-1.231-0.042-2.8-0.204-4.146c-0.161-1.333-1.049-2.731-0.783-4.076
				c0.256-1.298,1.595-2.255,2.275-3.473s0.792-2.859,1.762-3.759c1.005-0.932,2.662-0.91,3.88-1.473
				c1.231-0.568,2.29-1.84,3.636-2.002c1.333-0.161,2.661,0.818,4.006,1.084C332.515,88.357,334.117,87.941,335.335,88.621z"/>
			
				<ellipse transform="matrix(0.1066 -0.9943 0.9943 0.1066 194.798 417.4462)" fill="#CBEBF7" cx="329.707" cy="100.319" rx="9.538" ry="9.538"/>
			<circle fill="#29A8E0" cx="327.954" cy="102.909" r="4.396"/>
			
				<path fill="none" stroke="#343752" stroke-width="0.7211" stroke-linecap="round" stroke-linejoin="round" stroke-miterlimit="10" d="
				M336.236,88.621c1.217,0.68,1.705,2.261,2.604,3.231c0.932,1.005,2.463,1.622,3.025,2.841c0.568,1.231,0.042,2.8,0.204,4.146
				c0.161,1.333,1.049,2.731,0.783,4.076c-0.256,1.298-1.595,2.255-2.275,3.473c-0.68,1.217-0.792,2.859-1.762,3.759
				c-1.005,0.932-2.662,0.91-3.88,1.473c-1.231,0.568-2.29,1.84-3.636,2.002c-1.333,0.161-2.661-0.818-4.006-1.084
				c-1.298-0.256-2.9,0.159-4.117-0.521s-1.705-2.261-2.604-3.231c-0.932-1.005-2.463-1.622-3.025-2.841
				c-0.568-1.231-0.042-2.8-0.204-4.146c-0.161-1.333-1.049-2.731-0.783-4.076c0.256-1.298,1.595-2.255,2.275-3.473
				s0.792-2.859,1.762-3.759c1.005-0.932,2.662-0.91,3.88-1.473c1.231-0.568,2.29-1.84,3.636-2.002
				c1.333-0.161,2.661,0.818,4.006,1.084C333.417,88.357,335.019,87.941,336.236,88.621z"/>
		</g>
		<path opacity="0.2" fill="#FFFFFF" d="M337.784,107.438c-2.153,2.153-1.613-5.159-5.446-9.138
			c-3.579-3.716-11.69-3.976-9.679-5.987c4.163-4.164,10.924-4.153,15.101,0.024C341.936,96.514,341.947,103.275,337.784,107.438z"
			/>
	</g>
	<g>
		<path d="M298.304,120.065l0.12,0.9c-0.387,0.094-0.941,0.168-1.665,0.225s-1.398,0.085-2.024,0.085h-1.2v-2.74h2.88v-0.79h-2.91
			v-0.92h4.07v2.59h-2.87v0.92c0.486,0.027,1.125,0.012,1.915-0.045S297.971,120.159,298.304,120.065z M300.445,125.096h-6.061
			v-3.09h6.061V125.096z M299.285,124.175v-1.28h-3.73v1.28H299.285z M300.445,121.545h-1.16v-5.25h1.16V121.545z"/>
		<path d="M309.785,124.036h-8.051v-0.93h8.051V124.036z M309.024,117.906h-6.569v-0.93h6.569V117.906z M309.004,121.536h-6.53
			v-0.93h1.311l-0.25-2.06l1.17-0.14l0.18,2.2h1.78l0.319-2.18l1.131,0.18l-0.37,2h1.26V121.536z"/>
		<path d="M317.404,116.775c0,1.547-0.097,2.813-0.29,3.8h1.32v0.93h-3.46v3.7h-1.17v-3.7h-3.42v-0.93h5.62
			c0.16-0.773,0.24-1.727,0.24-2.86h-4.87v-0.94H317.404z"/>
		<path d="M324.364,120.246l-0.67,0.91c-0.366-0.147-0.743-0.389-1.13-0.725c-0.387-0.337-0.67-0.698-0.85-1.085
			c-0.127,0.44-0.396,0.852-0.806,1.235c-0.409,0.383-0.831,0.648-1.265,0.795l-0.7-0.93c0.66-0.24,1.184-0.611,1.57-1.115
			s0.58-1.085,0.58-1.745v-0.88h1.21v0.82c0,0.654,0.201,1.224,0.604,1.71C323.312,119.722,323.797,120.059,324.364,120.246z
			 M326.464,123.406c0,0.546-0.271,0.981-0.811,1.305s-1.293,0.485-2.26,0.485c-0.946,0-1.688-0.162-2.225-0.485
			c-0.537-0.323-0.806-0.758-0.806-1.305c0-0.56,0.267-1.002,0.801-1.325c0.533-0.323,1.276-0.485,2.229-0.485
			c0.967,0,1.72,0.162,2.26,0.485S326.464,122.846,326.464,123.406z M323.394,122.536c-0.573,0-1.021,0.077-1.345,0.23
			s-0.485,0.367-0.485,0.64c0,0.267,0.162,0.475,0.485,0.625c0.323,0.15,0.771,0.225,1.345,0.225c0.594,0,1.052-0.075,1.375-0.225
			c0.323-0.15,0.485-0.358,0.485-0.625c0-0.273-0.162-0.487-0.485-0.64S323.988,122.536,323.394,122.536z M326.404,121.496h-1.17
			v-2.42h-1.52v-0.93h1.52v-1.85h1.17V121.496z"/>
		<path d="M330.624,117.965v-0.96h4.7v0.96h-1.71c0.007,0.647,0.202,1.212,0.585,1.695c0.384,0.483,0.849,0.812,1.396,0.985
			l-0.641,0.92c-0.354-0.133-0.718-0.37-1.095-0.71s-0.655-0.707-0.835-1.1c-0.134,0.427-0.401,0.838-0.805,1.235
			c-0.403,0.396-0.825,0.671-1.266,0.825l-0.689-0.92c0.653-0.24,1.175-0.617,1.564-1.13c0.391-0.513,0.585-1.104,0.585-1.77v-0.03
			H330.624z M337.874,124.965h-6.149v-2.81h1.18v1.89h4.97V124.965z M337.684,122.755h-1.17v-3.15h-1.34v-0.94h1.34v-2.37h1.17
			V122.755z"/>
		<path d="M345.984,116.775c0,1.547-0.097,2.813-0.29,3.8h1.32v0.93h-3.46v3.7h-1.17v-3.7h-3.421v-0.93h5.62
			c0.16-0.773,0.24-1.727,0.24-2.86h-4.87v-0.94H345.984z"/>
		<path d="M352.114,122.206l-0.66,0.83c-0.32-0.2-0.644-0.501-0.97-0.905c-0.327-0.403-0.544-0.812-0.65-1.225
			c-0.127,0.466-0.347,0.913-0.66,1.34s-0.677,0.763-1.09,1.01l-0.689-0.8c0.586-0.38,1.045-0.907,1.375-1.58s0.495-1.47,0.495-2.39
			v-1.33h1.119v1.32c0,0.86,0.152,1.615,0.455,2.265C351.142,121.391,351.567,121.879,352.114,122.206z M353.414,124.795h-1.09
			v-4.48h-1.2v-0.95h1.2v-2.9h1.09V124.795z M355.194,125.206h-1.11v-8.91h1.11V125.206z"/>
		<path d="M364.314,124.085h-8.051v-0.92h3.421v-1.72h-2.681v-0.93h1.311l-0.25-2.05l1.17-0.15l0.18,2.2h1.78l0.319-2.18l1.131,0.19
			l-0.37,1.99h1.26v0.93h-2.68v1.72h3.46V124.085z M363.553,117.896h-6.569v-0.93h6.569V117.896z"/>
	</g>
</g>
<g>
	<path d="M271.376,199.642v-6.86h1.38l2.851,4.84h0.029v-4.84h1.091v6.86h-1.221l-3.01-5.17h-0.03v5.17H271.376z"/>
	<path d="M278.336,199.642v-6.86h1.23v6.86H278.336z M282.216,199.642l-2.529-3.48c0.8-1.08,1.646-2.207,2.54-3.38h1.27l-2.46,3.25
		c1.16,1.6,2.026,2.803,2.6,3.61H282.216z"/>
	<path d="M288.646,197.842l-0.659,0.83c-0.32-0.2-0.644-0.501-0.971-0.905c-0.326-0.403-0.543-0.812-0.649-1.225
		c-0.127,0.466-0.347,0.913-0.66,1.34s-0.677,0.763-1.09,1.01l-0.69-0.8c0.587-0.38,1.045-0.907,1.375-1.58s0.495-1.47,0.495-2.39
		v-1.33h1.12v1.32c0,0.86,0.151,1.615,0.455,2.265C287.674,197.027,288.1,197.515,288.646,197.842z M289.947,200.432h-1.091v-4.48
		h-1.199v-0.95h1.199v-2.9h1.091V200.432z M291.726,200.842h-1.109v-8.91h1.109V200.842z"/>
	<path d="M300.846,199.722h-8.05v-0.92h3.42v-1.72h-2.68v-0.93h1.31l-0.25-2.05l1.17-0.15l0.181,2.2h1.779l0.32-2.18l1.13,0.19
		l-0.37,1.99h1.26v0.93h-2.68v1.72h3.46V199.722z M300.086,193.532h-6.57v-0.93h6.57V193.532z"/>
</g>
<g>
	<path d="M365.393,195.702l0.12,0.9c-0.387,0.094-0.942,0.168-1.665,0.225c-0.724,0.057-1.398,0.085-2.025,0.085h-1.2v-2.74h2.88
		v-0.79h-2.909v-0.92h4.069v2.59h-2.87v0.92c0.487,0.027,1.125,0.012,1.915-0.045S365.059,195.795,365.393,195.702z
		 M367.533,200.732h-6.06v-3.09h6.06V200.732z M366.373,199.812v-1.28h-3.729v1.28H366.373z M367.533,197.182h-1.16v-5.25h1.16
		V197.182z"/>
	<path d="M376.873,199.672h-8.05v-0.93h8.05V199.672z M376.113,193.542h-6.57v-0.93h6.57V193.542z M376.092,197.172h-6.529v-0.93
		h1.31l-0.25-2.06l1.17-0.14l0.181,2.2h1.779l0.32-2.18l1.13,0.18l-0.37,2h1.26V197.172z"/>
	<path d="M384.493,192.412c0,1.547-0.097,2.813-0.29,3.8h1.32v0.93h-3.46v3.7h-1.17v-3.7h-3.421v-0.93h5.62
		c0.16-0.773,0.24-1.727,0.24-2.86h-4.87v-0.94H384.493z"/>
</g>
<g>
	<path d="M322.407,266.475v-5.89h-1.97v-0.97h5.149v0.97h-1.949v5.89H322.407z"/>
	<path d="M331.397,262.535l0.12,0.9c-0.387,0.094-0.942,0.168-1.665,0.225c-0.724,0.057-1.398,0.085-2.025,0.085h-1.2v-2.74h2.88
		v-0.79h-2.909v-0.92h4.069v2.59h-2.87v0.92c0.487,0.027,1.125,0.012,1.915-0.045S331.063,262.629,331.397,262.535z
		 M333.537,267.565h-6.06v-3.09h6.06V267.565z M332.376,266.645v-1.28h-3.729v1.28H332.376z M333.537,264.015h-1.16v-5.25h1.16
		V264.015z"/>
	<path d="M342.876,266.505h-8.05v-0.93h8.05V266.505z M342.117,260.375h-6.57v-0.93h6.57V260.375z M342.096,264.005h-6.529v-0.93
		h1.31l-0.25-2.06l1.17-0.14l0.181,2.2h1.779l0.32-2.18l1.13,0.18l-0.37,2h1.26V264.005z"/>
	<path d="M350.497,259.245c0,1.547-0.097,2.813-0.29,3.8h1.32v0.93h-3.46v3.7h-1.17v-3.7h-3.421v-0.93h5.62
		c0.16-0.773,0.24-1.727,0.24-2.86h-4.87v-0.94H350.497z"/>
</g>
<g>
	<path d="M391.26,267.918v-6.86h2.399c1.508,0,2.261,0.577,2.261,1.73c0,0.76-0.374,1.26-1.12,1.5v0.03
		c0.946,0.173,1.42,0.72,1.42,1.64c0,0.594-0.203,1.068-0.609,1.425c-0.407,0.356-1,0.535-1.781,0.535H391.26z M392.48,263.978
		h0.961c0.84,0,1.26-0.34,1.26-1.02c0-0.36-0.1-0.615-0.295-0.765c-0.197-0.15-0.502-0.225-0.916-0.225h-1.01V263.978z
		 M392.48,266.998h1.18c0.848,0,1.271-0.37,1.271-1.11c0-0.387-0.112-0.665-0.335-0.835c-0.224-0.17-0.559-0.255-1.005-0.255h-1.11
		V266.998z"/>
	<path d="M402.18,263.978l0.12,0.9c-0.387,0.094-0.941,0.168-1.665,0.225s-1.398,0.085-2.024,0.085h-1.201v-2.74h2.881v-0.79h-2.91
		v-0.92h4.07v2.59h-2.871v0.92c0.487,0.027,1.125,0.012,1.916-0.045C401.285,264.146,401.847,264.072,402.18,263.978z
		 M404.32,269.008h-6.06v-3.09h6.06V269.008z M403.16,268.088v-1.28h-3.729v1.28H403.16z M404.32,265.458h-1.16v-5.25h1.16V265.458z
		"/>
	<path d="M413.66,267.948h-8.05v-0.93h8.05V267.948z M412.9,261.818h-6.57v-0.93h6.57V261.818z M412.88,265.448h-6.53v-0.93h1.31
		l-0.25-2.06l1.17-0.14l0.181,2.2h1.78l0.319-2.18l1.13,0.18l-0.369,2h1.26V265.448z"/>
	<path d="M421.28,260.688c0,1.547-0.097,2.813-0.29,3.8h1.32v0.93h-3.46v3.7h-1.17v-3.7h-3.421v-0.93h5.621
		c0.16-0.773,0.24-1.727,0.24-2.86h-4.871v-0.94H421.28z"/>
</g>
<g>
	<path d="M396.33,330.104h-4.68v-0.91h4.68V330.104z M395.58,330.764c0.4,0.273,0.601,0.63,0.601,1.07c0,0.439-0.2,0.797-0.601,1.07
		c-0.399,0.273-0.906,0.409-1.52,0.409s-1.12-0.136-1.521-0.409c-0.399-0.273-0.6-0.631-0.6-1.07c0-0.44,0.198-0.797,0.595-1.07
		s0.905-0.41,1.525-0.41C394.673,330.354,395.18,330.49,395.58,330.764z M392.82,328.813v-0.909h2.5v0.909H392.82z M399.01,334.964
		c0,0.493-0.273,0.877-0.82,1.15c-0.547,0.272-1.307,0.409-2.28,0.409c-0.96,0-1.711-0.137-2.255-0.409
		c-0.543-0.273-0.814-0.657-0.814-1.15c0-0.486,0.273-0.866,0.819-1.14c0.547-0.273,1.297-0.41,2.25-0.41
		c0.967,0,1.726,0.137,2.275,0.41S399.01,334.478,399.01,334.964z M393.375,331.384c-0.19,0.12-0.285,0.271-0.285,0.45
		s0.095,0.328,0.285,0.445c0.189,0.116,0.418,0.175,0.685,0.175s0.495-0.059,0.685-0.175c0.19-0.117,0.285-0.266,0.285-0.445
		s-0.095-0.33-0.285-0.45c-0.189-0.12-0.418-0.18-0.685-0.18S393.565,331.264,393.375,331.384z M395.91,334.324
		c-0.573,0-1.026,0.06-1.359,0.18c-0.334,0.12-0.5,0.273-0.5,0.46c0,0.2,0.166,0.36,0.5,0.479c0.333,0.12,0.786,0.181,1.359,0.181
		c0.594,0,1.054-0.061,1.38-0.181c0.327-0.119,0.49-0.279,0.49-0.479c0-0.193-0.165-0.349-0.495-0.465
		C396.955,334.382,396.497,334.324,395.91,334.324z M398.93,333.394h-1.17v-1.1h-1.17v-0.9h1.17v-0.79h-1.16v-0.89h1.16v-2.15h1.17
		V333.394z"/>
	<path d="M400.61,328.974v-0.93h4.7v0.93h-1.68c0.073,0.533,0.288,0.976,0.645,1.325s0.788,0.605,1.295,0.765l-0.64,0.91
		c-0.347-0.126-0.705-0.35-1.075-0.67s-0.651-0.666-0.845-1.04c-0.134,0.427-0.397,0.82-0.79,1.18
		c-0.394,0.36-0.813,0.62-1.261,0.78l-0.699-0.89c1.279-0.474,1.986-1.26,2.12-2.36H400.61z M407.85,336.404h-6.13v-2.381h4.689
		v-0.569h-4.75v-0.931h5.91v2.36h-4.67v0.58h4.95V336.404z M407.57,332.074h-1.16v-4.511h1.16V332.074z"/>
	<path d="M413.36,333.474l-0.66,0.83c-0.32-0.2-0.644-0.501-0.97-0.905c-0.327-0.403-0.544-0.812-0.65-1.225
		c-0.127,0.467-0.347,0.913-0.66,1.34s-0.677,0.764-1.09,1.01l-0.689-0.8c0.586-0.38,1.045-0.906,1.375-1.58
		c0.33-0.673,0.495-1.47,0.495-2.39v-1.33h1.119v1.32c0,0.859,0.152,1.614,0.455,2.265
		C412.388,332.659,412.813,333.147,413.36,333.474z M414.66,336.063h-1.09v-4.479h-1.2v-0.95h1.2v-2.9h1.09V336.063z
		 M416.44,336.474h-1.11v-8.91h1.11V336.474z"/>
	<path d="M425.56,335.354h-8.051v-0.92h3.421v-1.72h-2.681v-0.93h1.311l-0.25-2.051l1.17-0.149l0.18,2.2h1.78l0.319-2.181
		l1.131,0.19l-0.37,1.99h1.26v0.93h-2.68v1.72h3.46V335.354z M424.799,329.164h-6.569v-0.931h6.569V329.164z"/>
</g>
<g>
	<path d="M247.952,349.406c1.047,0.033,1.907-0.034,2.58-0.2l0.11,0.92c-0.594,0.16-1.597,0.24-3.01,0.24h-0.851v-5.74h3.37v0.93
		c-0.24,0-0.604-0.001-1.095-0.004c-0.49-0.004-0.858-0.006-1.105-0.006V349.406z M254.102,352.476h-1.12v-4.47h-0.79v4.06h-1.1
		v-8.34h1.1v3.351h0.79v-3.511h1.12V352.476z"/>
	<path d="M260.612,347.427l-0.67,0.899c-0.367-0.134-0.745-0.368-1.135-0.705c-0.391-0.337-0.679-0.698-0.865-1.085
		c-0.127,0.434-0.392,0.842-0.795,1.225c-0.403,0.384-0.825,0.652-1.266,0.805l-0.71-0.93c0.66-0.24,1.186-0.611,1.575-1.115
		c0.391-0.503,0.585-1.088,0.585-1.754v-0.771h1.21v0.71c0,0.653,0.203,1.224,0.61,1.71
		C259.558,346.903,260.045,347.239,260.612,347.427z M256.512,349.246h6.04v3.239h-1.181v-2.309h-4.859V349.246z M262.542,348.815
		h-1.17v-5.239h1.17V348.815z"/>
	<path d="M268.322,349.476l-0.66,0.83c-0.32-0.199-0.644-0.501-0.97-0.904c-0.327-0.404-0.544-0.812-0.65-1.225
		c-0.127,0.466-0.347,0.912-0.66,1.34c-0.313,0.426-0.677,0.763-1.09,1.01l-0.689-0.801c0.586-0.379,1.045-0.906,1.375-1.58
		c0.33-0.673,0.495-1.469,0.495-2.39v-1.329h1.119v1.319c0,0.86,0.152,1.614,0.455,2.265
		C267.35,348.661,267.775,349.149,268.322,349.476z M269.622,352.065h-1.09v-4.479h-1.2v-0.95h1.2v-2.9h1.09V352.065z
		 M271.402,352.476h-1.11v-8.91h1.11V352.476z"/>
	<path d="M280.522,351.356h-8.051v-0.92h3.421v-1.721h-2.681v-0.93h1.311l-0.25-2.051l1.17-0.149l0.18,2.2h1.78l0.319-2.18
		l1.131,0.189l-0.37,1.99h1.26v0.93h-2.68v1.721h3.46V351.356z M279.761,345.166h-6.569v-0.931h6.569V345.166z"/>
</g>
<g>
	<path d="M202.399,288.063h-8.05v-0.93h3.42v-0.87c-0.694-0.073-1.24-0.255-1.64-0.545s-0.6-0.651-0.6-1.085
		c0-0.493,0.26-0.892,0.78-1.195c0.52-0.304,1.21-0.455,2.07-0.455s1.55,0.151,2.07,0.455c0.52,0.303,0.78,0.702,0.78,1.195
		c0,0.44-0.205,0.807-0.615,1.1s-0.968,0.473-1.675,0.54v0.86h3.46V288.063z M201.909,282.693h-7.07v-0.92h7.07V282.693z
		 M200.04,284.633c0-0.24-0.159-0.428-0.475-0.565c-0.317-0.137-0.712-0.205-1.185-0.205c-0.474,0-0.869,0.068-1.185,0.205
		c-0.317,0.137-0.475,0.325-0.475,0.565c0,0.247,0.157,0.437,0.47,0.57c0.313,0.134,0.71,0.2,1.19,0.2s0.876-0.066,1.19-0.2
		C199.883,285.069,200.04,284.879,200.04,284.633z M196.79,281.313v-0.92h3.15v0.92H196.79z"/>
	<path d="M208.189,284.413l-0.67,0.91c-0.353-0.14-0.728-0.392-1.125-0.755c-0.396-0.363-0.685-0.742-0.865-1.135
		c-0.133,0.44-0.4,0.865-0.8,1.275c-0.4,0.41-0.813,0.699-1.24,0.865l-0.7-0.92c0.646-0.233,1.164-0.625,1.55-1.175
		c0.386-0.55,0.58-1.161,0.58-1.835v-0.94h1.2v0.88c0,0.66,0.207,1.252,0.62,1.775C207.152,283.881,207.636,284.233,208.189,284.413
		z M210.189,288.883h-5.89v-2.89h1.17v1.97h4.72V288.883z M209.969,280.203v2.55h1.27v0.97h-1.27v2.94h-1.17v-6.46H209.969z"/>
	<path d="M218.668,280.683c0,1.547-0.097,2.813-0.29,3.8h1.32v0.93h-3.46v3.7h-1.17v-3.7h-3.42v-0.93h5.62
		c0.16-0.773,0.24-1.727,0.24-2.86h-4.87v-0.94H218.668z"/>
</g>
<g>
	<path d="M95.285,288.063h-8.05v-0.93h3.42v-0.87c-0.694-0.073-1.24-0.255-1.64-0.545s-0.6-0.651-0.6-1.085
		c0-0.493,0.26-0.892,0.78-1.195c0.52-0.304,1.21-0.455,2.07-0.455s1.55,0.151,2.07,0.455c0.52,0.303,0.78,0.702,0.78,1.195
		c0,0.44-0.205,0.807-0.615,1.1s-0.968,0.473-1.675,0.54v0.86h3.46V288.063z M94.795,282.693h-7.07v-0.92h7.07V282.693z
		 M92.925,284.633c0-0.24-0.159-0.428-0.475-0.565c-0.317-0.137-0.712-0.205-1.185-0.205c-0.474,0-0.869,0.068-1.185,0.205
		c-0.317,0.137-0.475,0.325-0.475,0.565c0,0.247,0.157,0.437,0.47,0.57c0.313,0.134,0.71,0.2,1.19,0.2s0.876-0.066,1.19-0.2
		C92.769,285.069,92.925,284.879,92.925,284.633z M89.675,281.313v-0.92h3.15v0.92H89.675z"/>
	<path d="M95.955,282.823c0-0.606,0.218-1.115,0.655-1.525c0.437-0.41,0.981-0.615,1.635-0.615c0.653,0,1.2,0.204,1.64,0.61
		c0.44,0.407,0.66,0.917,0.66,1.53c0,0.627-0.218,1.13-0.655,1.51c-0.437,0.38-0.985,0.57-1.645,0.57
		c-0.654,0-1.199-0.191-1.635-0.575C96.173,283.944,95.955,283.443,95.955,282.823z M97.085,282.823c0,0.347,0.106,0.63,0.32,0.85
		c0.213,0.22,0.494,0.33,0.84,0.33c0.353,0,0.638-0.112,0.855-0.335c0.216-0.224,0.325-0.505,0.325-0.845s-0.106-0.62-0.32-0.84
		c-0.213-0.22-0.5-0.33-0.86-0.33c-0.34,0-0.619,0.113-0.835,0.34C97.193,282.219,97.085,282.496,97.085,282.823z M103.255,289.003
		h-5.87v-3.39h5.87V289.003z M102.085,288.093v-1.58h-3.52v1.58H102.085z M103.255,285.183h-1.17v-0.89h-1.25l0.03-0.99h1.22v-1.03
		h-1.22l-0.03-0.99h1.25v-1.08h1.17V285.183z"/>
	<path d="M111.555,280.683c0,1.547-0.097,2.813-0.29,3.8h1.32v0.93h-3.46v3.7h-1.17v-3.7h-3.42v-0.93h5.62
		c0.16-0.773,0.24-1.727,0.24-2.86h-4.87v-0.94H111.555z"/>
</g>
<g>
	<path d="M14.057,302.5h-4.71v-0.88h4.71V302.5z M13.887,304.06c0,0.406-0.2,0.736-0.6,0.99c-0.4,0.253-0.9,0.38-1.5,0.38
		c-0.6,0-1.1-0.126-1.5-0.38c-0.4-0.253-0.6-0.583-0.6-0.99c0-0.4,0.2-0.729,0.6-0.985c0.4-0.256,0.9-0.385,1.5-0.385
		c0.6,0,1.1,0.128,1.5,0.385C13.687,303.332,13.887,303.66,13.887,304.06z M10.527,301.21v-0.88h2.45v0.88H10.527z M16.917,309.09
		h-6.29v-2.12h4.86v-0.42h-4.86v-0.87h6.02v2.09h-4.83v0.44h5.1V309.09z M10.827,304.06c0,0.16,0.093,0.29,0.28,0.39
		c0.187,0.1,0.413,0.15,0.68,0.15s0.494-0.05,0.68-0.15s0.28-0.23,0.28-0.39c0-0.153-0.093-0.28-0.28-0.38s-0.414-0.15-0.68-0.15
		s-0.493,0.05-0.68,0.15C10.92,303.78,10.827,303.907,10.827,304.06z M16.647,305.28h-1.16v-0.77h-1.19v-0.88h1.19v-0.68h-1.18
		v-0.87h1.18v-1.88h1.16V305.28z"/>
	<path d="M25.987,308h-8.05v-0.92h3.41v-2.12h1.18v2.12h3.46V308z M25.757,304.15l-0.55,0.92c-0.653-0.153-1.298-0.45-1.935-0.89
		s-1.075-0.937-1.315-1.49c-0.146,0.38-0.403,0.74-0.77,1.08c-0.367,0.34-0.765,0.618-1.195,0.835s-0.855,0.372-1.275,0.465
		l-0.53-0.95c0.5-0.073,0.987-0.235,1.46-0.485c0.474-0.25,0.877-0.593,1.21-1.03c0.333-0.437,0.5-0.905,0.5-1.405v-0.54h1.22v0.54
		c0,0.374,0.102,0.735,0.305,1.085c0.203,0.35,0.463,0.65,0.78,0.9c0.317,0.25,0.658,0.46,1.025,0.63S25.41,304.097,25.757,304.15z"
		/>
	<path d="M31.977,305.37c-1.207,0.214-3.013,0.32-5.42,0.32c-0.073-0.467-0.127-0.79-0.16-0.97h1.17l-0.22-2.3l1.15-0.14
		c0.02,0.514,0.057,1.32,0.11,2.42l1.08-0.03l0.12-2.38l1.11,0.12c-0.02,0.213-0.042,0.443-0.065,0.69
		c-0.023,0.247-0.05,0.52-0.08,0.82c-0.03,0.3-0.052,0.533-0.065,0.7c0.48-0.04,0.874-0.09,1.18-0.15L31.977,305.37z M31.646,301.89
		h-4.96v-0.92h4.96V301.89z M33.767,308.85h-6v-2.76h1.16v1.82h4.84V308.85z M33.546,300.2v2.51h1.27v0.97h-1.27v2.98h-1.16v-6.46
		H33.546z"/>
</g>
<g>
	<path d="M4.83,233.007c-0.074,2.86-1.4,4.997-3.98,6.41l-0.72-0.88c0.954-0.433,1.743-1.075,2.37-1.925
		c0.626-0.85,0.98-1.729,1.06-2.635H0.68v-0.97H4.83z M7.67,240.987H6.5v-4.47H4.8v-0.98h1.7v-3.46h1.17V240.987z"/>
	<path d="M10.38,237.917c1.046,0.033,1.907-0.034,2.58-0.2l0.11,0.92c-0.593,0.16-1.597,0.24-3.01,0.24H9.21v-5.74h3.37v0.93
		c-0.24,0-0.605-0.001-1.095-0.005c-0.49-0.003-0.858-0.005-1.105-0.005V237.917z M16.53,240.987h-1.12v-4.47h-0.79v4.06h-1.1v-8.34
		h1.1v3.35h0.79v-3.51h1.12V240.987z"/>
	<path d="M17.61,234.667v-0.91h4.3v0.91H17.61z M21.75,236.367c0,0.427-0.174,0.772-0.52,1.035c-0.347,0.263-0.807,0.395-1.38,0.395
		s-1.03-0.132-1.37-0.395c-0.34-0.263-0.51-0.608-0.51-1.035c0-0.413,0.172-0.753,0.515-1.02s0.798-0.4,1.365-0.4
		c0.573,0,1.034,0.133,1.38,0.4C21.576,235.613,21.75,235.954,21.75,236.367z M18.61,233.367v-0.9h2.41v0.9H18.61z M19,238.237h6.19
		v2.76h-1.17v-1.83H19V238.237z M20.67,236.367c0-0.146-0.074-0.271-0.22-0.375c-0.146-0.103-0.347-0.155-0.6-0.155
		s-0.455,0.052-0.605,0.155c-0.15,0.104-0.225,0.229-0.225,0.375c0,0.153,0.076,0.285,0.23,0.395c0.153,0.11,0.353,0.165,0.6,0.165
		s0.445-0.055,0.595-0.165S20.67,236.52,20.67,236.367z M25.18,237.867h-1.11v-2.27h-0.73v2.18h-1.09v-5.54h1.09v2.42h0.73v-2.58
		h1.11V237.867z"/>
	<path d="M30.75,237.987l-0.66,0.83c-0.32-0.2-0.644-0.501-0.97-0.905c-0.327-0.403-0.543-0.812-0.65-1.225
		c-0.127,0.466-0.347,0.913-0.66,1.34s-0.677,0.763-1.09,1.01l-0.69-0.8c0.586-0.38,1.045-0.907,1.375-1.58s0.495-1.47,0.495-2.39
		v-1.33h1.12v1.32c0,0.86,0.152,1.615,0.455,2.265C29.778,237.172,30.203,237.66,30.75,237.987z M32.05,240.577h-1.09v-4.48h-1.2
		v-0.95h1.2v-2.9h1.09V240.577z M33.83,240.987h-1.11v-8.91h1.11V240.987z"/>
	<path d="M42.95,239.867h-8.05v-0.92h3.42v-1.72h-2.68v-0.93h1.31l-0.25-2.05l1.17-0.15l0.18,2.2h1.78l0.32-2.18l1.13,0.19
		l-0.37,1.99h1.26v0.93h-2.68v1.72h3.46V239.867z M42.189,233.677h-6.57v-0.93h6.57V233.677z"/>
</g>
<g>
	<path d="M63.248,190.415v-0.96h4.7v0.96h-1.71c0.026,0.627,0.228,1.16,0.605,1.6c0.376,0.44,0.835,0.75,1.375,0.93l-0.64,0.91
		c-0.36-0.126-0.727-0.353-1.1-0.68c-0.373-0.327-0.65-0.684-0.83-1.07c-0.133,0.42-0.4,0.82-0.8,1.2s-0.823,0.646-1.27,0.8
		l-0.69-0.92c0.653-0.233,1.171-0.59,1.555-1.07c0.383-0.48,0.582-1.047,0.595-1.7H63.248z M64.278,194.575h6.04v3.24h-1.18v-2.32
		h-4.86V194.575z M70.308,194.115h-1.17v-2.11h-1.32v-0.94h1.32v-2.17h1.17V194.115z"/>
	<path d="M76.357,191.195h-4.71v-0.88h4.71V191.195z M76.188,192.755c0,0.406-0.2,0.736-0.6,0.99c-0.4,0.253-0.9,0.38-1.5,0.38
		c-0.6,0-1.1-0.126-1.5-0.38c-0.4-0.253-0.6-0.583-0.6-0.99c0-0.4,0.2-0.729,0.6-0.985c0.4-0.256,0.9-0.385,1.5-0.385
		c0.6,0,1.1,0.128,1.5,0.385C75.988,192.026,76.188,192.354,76.188,192.755z M72.828,189.905v-0.88h2.45v0.88H72.828z
		 M79.218,197.785h-6.29v-2.12h4.86v-0.42h-4.86v-0.87h6.02v2.09h-4.83v0.44h5.1V197.785z M73.127,192.755
		c0,0.16,0.093,0.29,0.28,0.39c0.187,0.1,0.413,0.15,0.68,0.15s0.494-0.05,0.68-0.15s0.28-0.23,0.28-0.39
		c0-0.153-0.093-0.28-0.28-0.38s-0.414-0.15-0.68-0.15s-0.493,0.05-0.68,0.15C73.221,192.475,73.127,192.602,73.127,192.755z
		 M78.948,193.975h-1.16v-0.77h-1.19v-0.88h1.19v-0.68h-1.18v-0.87h1.18v-1.88h1.16V193.975z"/>
	<path d="M87.257,189.375c0,1.547-0.097,2.813-0.29,3.8h1.32v0.93h-3.46v3.7h-1.17v-3.7h-3.42v-0.93h5.62
		c0.16-0.773,0.24-1.727,0.24-2.86h-4.87v-0.94H87.257z"/>
</g>
<g>
	<path d="M115.426,195.604h-4.21v-5.99h1.16v2.14h1.87v-2.16h1.18V195.604z M114.246,194.685v-2.01h-1.87v2.01H114.246z
		 M118.136,197.805h-1.16v-8.91h1.16V197.805z"/>
	<path d="M123.855,193.774h-4.17v-4.2h4.17V193.774z M126.605,197.544h-5.99v-2.85h1.17v1.92h4.82V197.544z M122.695,192.854v-2.37
		h-1.85v2.37H122.695z M126.396,188.895v2.54h1.27v0.97h-1.27v2.95h-1.19v-6.46H126.396z"/>
	<path d="M132.575,194.805l-0.66,0.83c-0.32-0.2-0.644-0.501-0.97-0.905c-0.327-0.403-0.543-0.812-0.65-1.225
		c-0.127,0.466-0.347,0.913-0.66,1.34s-0.677,0.763-1.09,1.01l-0.69-0.8c0.586-0.38,1.045-0.907,1.375-1.58s0.495-1.47,0.495-2.39
		v-1.33h1.12v1.32c0,0.86,0.152,1.615,0.455,2.265C131.604,193.99,132.029,194.478,132.575,194.805z M133.875,197.395h-1.09v-4.48
		h-1.2v-0.95h1.2v-2.9h1.09V197.395z M135.655,197.805h-1.11v-8.91h1.11V197.805z"/>
	<path d="M144.775,196.685h-8.05v-0.92h3.42v-1.72h-2.68v-0.93h1.31l-0.25-2.05l1.17-0.15l0.18,2.2h1.78l0.32-2.18l1.13,0.19
		l-0.37,1.99h1.26v0.93h-2.68v1.72h3.46V196.685z M144.015,190.495h-6.57v-0.93h6.57V190.495z"/>
</g>
<g>
	<path d="M174.484,193.225h-8.05v-0.93h3.01v-1.38h1.16v1.38h3.88V193.225z M173.764,197.695h-6.41v-2.33h4.91v-0.6h-4.97v-0.92
		h6.14v2.33h-4.91v0.58h5.24V197.695z M173.454,189.075c0,1.32-0.066,2.253-0.2,2.8l-1.12-0.12c0.106-0.507,0.16-1.09,0.16-1.75
		h-4.94v-0.93H173.454z"/>
	<path d="M179.674,197.814h-1.18v-3.17h-3.41v-0.92h8.05v0.92h-3.46V197.814z M182.804,192.035l-0.51,0.95
		c-0.673-0.1-1.318-0.343-1.935-0.73c-0.617-0.387-1.032-0.82-1.245-1.3c-0.193,0.48-0.595,0.912-1.205,1.295
		c-0.61,0.384-1.262,0.632-1.955,0.745l-0.5-0.96c0.813-0.086,1.523-0.363,2.13-0.83c0.607-0.466,0.91-1.02,0.91-1.66v-0.46h1.24
		v0.46c0,0.427,0.158,0.827,0.475,1.2c0.317,0.374,0.707,0.67,1.17,0.89C181.842,191.854,182.317,191.988,182.804,192.035z"/>
	<path d="M183.804,192.695c0-0.954,0.207-1.724,0.62-2.31c0.413-0.587,0.977-0.88,1.69-0.88c0.72,0,1.285,0.293,1.695,0.88
		c0.41,0.586,0.615,1.356,0.615,2.31c0,0.947-0.205,1.711-0.615,2.295s-0.975,0.875-1.695,0.875c-0.713,0-1.277-0.292-1.69-0.875
		C184.011,194.406,183.804,193.642,183.804,192.695z M187.304,192.695c0-0.693-0.11-1.242-0.33-1.645
		c-0.22-0.403-0.507-0.605-0.86-0.605c-0.34,0-0.62,0.202-0.84,0.605c-0.22,0.403-0.33,0.952-0.33,1.645
		c0,0.687,0.11,1.23,0.33,1.63c0.22,0.4,0.5,0.6,0.84,0.6c0.353,0,0.64-0.2,0.86-0.6
		C187.194,193.925,187.304,193.381,187.304,192.695z M190.704,188.895v3.42h1.32v0.97h-1.32v4.52h-1.19v-8.91H190.704z"/>
	<path d="M196.884,194.805l-0.66,0.83c-0.32-0.2-0.644-0.501-0.97-0.905c-0.327-0.403-0.543-0.812-0.65-1.225
		c-0.127,0.466-0.347,0.913-0.66,1.34s-0.677,0.763-1.09,1.01l-0.69-0.8c0.586-0.38,1.045-0.907,1.375-1.58s0.495-1.47,0.495-2.39
		v-1.33h1.12v1.32c0,0.86,0.152,1.615,0.455,2.265C195.912,193.99,196.337,194.478,196.884,194.805z M198.184,197.395h-1.09v-4.48
		h-1.2v-0.95h1.2v-2.9h1.09V197.395z M199.964,197.805h-1.11v-8.91h1.11V197.805z"/>
	<path d="M209.084,196.685h-8.05v-0.92h3.42v-1.72h-2.68v-0.93h1.31l-0.25-2.05l1.17-0.15l0.18,2.2h1.78l0.32-2.18l1.13,0.19
		l-0.37,1.99h1.26v0.93h-2.68v1.72h3.46V196.685z M208.324,190.495h-6.57v-0.93h6.57V190.495z"/>
</g>
<g>
	<path d="M150.26,288.063h-8.05v-0.93h3.42v-0.87c-0.694-0.073-1.24-0.255-1.64-0.545s-0.6-0.651-0.6-1.085
		c0-0.493,0.26-0.892,0.78-1.195c0.52-0.304,1.21-0.455,2.07-0.455s1.55,0.151,2.07,0.455c0.52,0.303,0.78,0.702,0.78,1.195
		c0,0.44-0.205,0.807-0.615,1.1s-0.968,0.473-1.675,0.54v0.86h3.46V288.063z M149.77,282.693h-7.07v-0.92h7.07V282.693z
		 M147.9,284.633c0-0.24-0.159-0.428-0.475-0.565c-0.317-0.137-0.712-0.205-1.185-0.205c-0.474,0-0.869,0.068-1.185,0.205
		c-0.317,0.137-0.475,0.325-0.475,0.565c0,0.247,0.157,0.437,0.47,0.57c0.313,0.134,0.71,0.2,1.19,0.2s0.876-0.066,1.19-0.2
		C147.743,285.069,147.9,284.879,147.9,284.633z M144.65,281.313v-0.92h3.15v0.92H144.65z"/>
	<path d="M158.91,285.253h-3.46v0.57c0.827,0.053,1.468,0.222,1.925,0.505c0.457,0.284,0.685,0.648,0.685,1.095
		c0,0.5-0.278,0.892-0.835,1.175s-1.338,0.425-2.345,0.425c-1,0-1.778-0.142-2.335-0.425s-0.835-0.675-0.835-1.175
		c0-0.447,0.225-0.812,0.675-1.095c0.45-0.283,1.082-0.452,1.895-0.505v-0.57h-3.42v-0.94h8.05V285.253z M158.5,283.063l-0.5,0.93
		c-0.653-0.053-1.271-0.236-1.855-0.55s-1.005-0.684-1.265-1.11c-0.227,0.44-0.625,0.812-1.195,1.115s-1.208,0.485-1.915,0.545
		c-0.06-0.12-0.148-0.287-0.265-0.5s-0.191-0.35-0.225-0.41c0.713-0.033,1.338-0.187,1.875-0.46c0.536-0.273,0.881-0.63,1.035-1.07
		h-2.5v-0.93h6.42v0.93h-2.51c0.173,0.427,0.542,0.778,1.105,1.055C157.268,282.884,157.866,283.036,158.5,283.063z M156.87,287.433
		c0-0.22-0.18-0.392-0.54-0.515c-0.36-0.124-0.847-0.185-1.46-0.185c-0.607,0-1.087,0.062-1.44,0.185
		c-0.354,0.123-0.53,0.295-0.53,0.515c0,0.213,0.177,0.38,0.53,0.5c0.353,0.12,0.833,0.18,1.44,0.18c0.613,0,1.1-0.06,1.46-0.18
		C156.689,287.813,156.87,287.646,156.87,287.433z"/>
	<path d="M166.529,280.683c0,1.547-0.097,2.813-0.29,3.8h1.32v0.93h-3.46v3.7h-1.17v-3.7h-3.42v-0.93h5.62
		c0.16-0.773,0.24-1.727,0.24-2.86h-4.87v-0.94H166.529z"/>
</g>
<g>
	<path d="M247.972,280.145c1.486,0,2.649-0.086,3.49-0.26c0.026,0.22,0.079,0.517,0.159,0.89c-0.866,0.207-2.18,0.31-3.939,0.31
		h-0.87v-4.21h3.97v0.92h-2.81V280.145z M253.692,284.795h-5.92v-2.84h1.17v1.9h4.75V284.795z M254.751,279.535h-1.27v3.04h-1.18
		v-6.43h1.18v2.43h1.27V279.535z"/>
	<path d="M255.182,278.735v-0.91h4.3v0.91H255.182z M259.322,280.435c0,0.427-0.174,0.772-0.52,1.035
		c-0.347,0.263-0.808,0.395-1.381,0.395s-1.029-0.132-1.369-0.395c-0.341-0.263-0.511-0.608-0.511-1.035
		c0-0.413,0.172-0.753,0.516-1.02c0.343-0.267,0.798-0.4,1.364-0.4c0.573,0,1.034,0.133,1.381,0.4
		C259.148,279.682,259.322,280.022,259.322,280.435z M256.182,277.435v-0.9h2.41v0.9H256.182z M256.572,282.305h6.19v2.76h-1.17
		v-1.83h-5.021V282.305z M258.242,280.435c0-0.146-0.073-0.271-0.22-0.375c-0.146-0.103-0.347-0.155-0.601-0.155
		c-0.253,0-0.454,0.052-0.604,0.155c-0.15,0.104-0.225,0.229-0.225,0.375c0,0.153,0.076,0.285,0.229,0.395s0.354,0.165,0.6,0.165
		c0.247,0,0.445-0.055,0.596-0.165C258.167,280.72,258.242,280.588,258.242,280.435z M262.751,281.935h-1.109v-2.27h-0.73v2.18
		h-1.09v-5.54h1.09v2.42h0.73v-2.58h1.109V281.935z"/>
	<path d="M270.841,276.625c0,1.547-0.097,2.813-0.29,3.8h1.32v0.93h-3.46v3.7h-1.17v-3.7h-3.42v-0.93h5.62
		c0.16-0.773,0.24-1.727,0.24-2.86h-4.87v-0.94H270.841z"/>
</g>
<path id="path5862" fill="none" stroke="#010101" stroke-linecap="round" stroke-linejoin="round" stroke-miterlimit="8.5714" d="
	M100.769,129.86v12.561"/>
<g id="path5864">
	<g>
		<polyline fill="none" stroke="#010101" stroke-linecap="round" stroke-linejoin="round" points="178.823,149.447 178.823,142.495 
			20.921,142.495 20.921,177.466 		"/>
		<g>
			<polygon fill="#010101" points="181.317,148.717 178.823,153.034 176.33,148.717 			"/>
		</g>
		<g>
			<polygon fill="#010101" points="18.428,176.737 20.921,181.054 23.414,176.737 			"/>
		</g>
	</g>
</g>
<g id="path5866">
	<g>
		
			<line fill="none" stroke="#010101" stroke-linecap="round" stroke-linejoin="round" x1="81.586" y1="142.719" x2="81.586" y2="153.636"/>
		<g>
			<polygon fill="#010101" points="79.093,152.906 81.586,157.223 84.079,152.906 			"/>
		</g>
	</g>
</g>
<g id="path5868">
	<g>
		
			<line fill="none" stroke="#010101" stroke-linecap="round" stroke-linejoin="round" x1="123.797" y1="142.719" x2="123.797" y2="149.898"/>
		<g>
			<polygon fill="#010101" points="121.303,149.168 123.797,153.486 126.29,149.168 			"/>
		</g>
	</g>
</g>
<path id="path5852" fill="none" stroke="#010101" stroke-linecap="round" stroke-linejoin="round" stroke-miterlimit="8.5714" d="
	M330.176,131.232v10.567"/>
<g id="path5854">
	<g>
		<polyline fill="none" stroke="#010101" stroke-linecap="round" stroke-linejoin="round" points="285.317,149.156 285.317,141.799 
			373.117,141.799 373.117,150.021 		"/>
		<g>
			<polygon fill="#010101" points="287.81,148.427 285.317,152.744 282.824,148.427 			"/>
		</g>
		<g>
			<polygon fill="#010101" points="370.624,149.291 373.117,153.609 375.61,149.291 			"/>
		</g>
	</g>
</g>
<path id="path5852_00000036941964770602547160000004098494464602122650_" fill="none" stroke="#010101" stroke-width="0.8691" stroke-linecap="round" stroke-linejoin="round" stroke-miterlimit="8.5714" d="
	M372.245,201.622v10.567"/>
<g id="path5854_00000006667305714338155980000012471153933754690716_">
	<g>
		<polyline fill="none" stroke="#010101" stroke-linecap="round" stroke-linejoin="round" points="338.36,219.546 338.36,212.189 
			404.681,212.189 404.681,220.411 		"/>
		<g>
			<polygon fill="#010101" points="340.853,218.817 338.36,223.134 335.867,218.817 			"/>
		</g>
		<g>
			<polygon fill="#010101" points="402.188,219.682 404.681,223.999 407.174,219.682 			"/>
		</g>
	</g>
</g>
<g>
	<g>
		<polyline fill="none" stroke="#010101" stroke-linecap="round" stroke-linejoin="round" points="102.56,79.178 102.56,55.926 
			190.99,55.926 		"/>
		<g>
			<polygon fill="#010101" points="105.053,78.449 102.56,82.766 100.067,78.449 			"/>
		</g>
	</g>
</g>
<g>
	<g>
		<polyline fill="none" stroke="#010101" stroke-linecap="round" stroke-linejoin="round" points="329.352,79.178 329.352,55.926 
			237.921,55.926 		"/>
		<g>
			<polygon fill="#010101" points="331.845,78.449 329.352,82.766 326.859,78.449 			"/>
		</g>
	</g>
</g>
<path id="path5872" fill="none" stroke="#010101" stroke-width="1.2597" stroke-linecap="round" stroke-linejoin="round" stroke-miterlimit="8.5714" d="
	M181.11,206.49v17.444"/>
<g id="path5872_00000116931381753248840810000018345230704013264042_">
	<g>
		
			<line fill="none" stroke="#010101" stroke-linecap="round" stroke-linejoin="round" x1="406.759" y1="273.893" x2="406.759" y2="282.626"/>
		<g>
			<polygon fill="#010101" points="404.266,281.897 406.759,286.214 409.252,281.897 			"/>
		</g>
	</g>
</g>
<g id="path5872_00000160179049176601625720000000103597355916052899_">
	<g>
		
			<line fill="none" stroke="#010101" stroke-linecap="round" stroke-linejoin="round" x1="262.879" y1="292.214" x2="262.879" y2="300.947"/>
		<g>
			<polygon fill="#010101" points="260.386,300.217 262.879,304.534 265.372,300.217 			"/>
		</g>
	</g>
</g>
<g id="path5872_00000075128969860318898510000006282369039413008319_">
	<g>
		
			<line fill="none" stroke="#010101" stroke-linecap="round" stroke-linejoin="round" x1="20.921" y1="244.549" x2="20.921" y2="253.282"/>
		<g>
			<polygon fill="#010101" points="18.428,252.553 20.921,256.87 23.414,252.553 			"/>
		</g>
	</g>
</g>
<g id="path5874">
	<g>
		<polyline fill="none" stroke="#010101" stroke-linecap="round" stroke-linejoin="round" points="101.237,233.35 101.237,223.934 
			263.64,223.934 263.64,235.662 		"/>
		<g>
			<polygon fill="#010101" points="103.73,232.62 101.237,236.938 98.744,232.62 			"/>
		</g>
		<g>
			<polygon fill="#010101" points="261.146,234.933 263.64,239.25 266.132,234.933 			"/>
		</g>
	</g>
</g>
<g id="path5876">
	<g>
		
			<line fill="none" stroke="#010101" stroke-linecap="round" stroke-linejoin="round" x1="204.368" y1="224.421" x2="204.368" y2="233.95"/>
		<g>
			<polygon fill="#010101" points="201.875,233.221 204.368,237.538 206.861,233.221 			"/>
		</g>
	</g>
</g>
<g id="path5878">
	<g>
		
			<line fill="none" stroke="#010101" stroke-linecap="round" stroke-linejoin="round" x1="157.196" y1="224.673" x2="157.196" y2="233.95"/>
		<g>
			<polygon fill="#010101" points="154.702,233.221 157.196,237.538 159.689,233.221 			"/>
		</g>
	</g>
</g>
<g>
	<path d="M172.458,11.537h-8.508v-8.59h8.508V11.537z M178.761,19.262h-12.443v-5.686h2.39v3.77h10.053V19.262z M170.068,9.662V4.8
		h-3.729v4.862H170.068z M176.001,6.181h-2.555V4.285h2.555V1.401h2.39v13.308h-2.39v-4.491h-2.555V8.323h2.555V6.181z"/>
	<path d="M182.562,9.96c-0.9-0.803-1.35-1.844-1.35-3.121c0-1.277,0.45-2.345,1.35-3.204c0.899-0.858,2.015-1.288,3.348-1.288
		c1.332,0,2.451,0.429,3.358,1.288c0.906,0.858,1.359,1.926,1.359,3.204c0,1.277-0.446,2.317-1.339,3.121
		c-0.893,0.804-2.019,1.206-3.378,1.206C184.577,11.166,183.461,10.764,182.562,9.96z M183.438,12.855h12.793v6.922h-2.41v-5.006
		h-10.383V12.855z M183.541,6.819c0,0.729,0.216,1.322,0.649,1.782c0.433,0.46,1.006,0.69,1.72,0.69c0.714,0,1.294-0.233,1.741-0.7
		c0.446-0.467,0.669-1.058,0.669-1.772c0-0.7-0.216-1.287-0.649-1.761c-0.433-0.474-1.02-0.71-1.761-0.71
		c-0.701,0-1.271,0.24-1.71,0.721C183.76,5.549,183.541,6.132,183.541,6.819z M191.183,9.93l0.062-2.019h2.575V5.666h-2.575
		l-0.062-2.019h2.637V1.401h2.41v10.506h-2.41V9.93H191.183z"/>
	<path d="M208.138,13.576l-1.359,1.71c-0.659-0.412-1.326-1.033-1.999-1.865c-0.673-0.831-1.119-1.672-1.339-2.523
		c-0.261,0.961-0.714,1.882-1.36,2.761s-1.394,1.573-2.245,2.081l-1.421-1.648c1.208-0.783,2.152-1.868,2.833-3.255
		c0.68-1.387,1.02-3.028,1.02-4.924v-2.74h2.307v2.719c0,1.771,0.312,3.327,0.938,4.666S207.012,12.903,208.138,13.576z
		 M210.816,18.912h-2.246V9.683h-2.472V7.726h2.472V1.751h2.246V18.912z M214.483,19.756h-2.287V1.401h2.287V19.756z"/>
	<path d="M233.27,17.449h-16.583v-1.896h7.044V12.01h-5.52v-1.916h2.698l-0.515-4.223l2.41-0.309l0.371,4.532h3.666l0.66-4.491
		l2.328,0.392l-0.764,4.1h2.596v1.916h-5.52v3.543h7.127V17.449z M231.704,4.697h-13.534V2.781h13.534V4.697z"/>
	<path d="M249.585,15.739h-2.411v-3.008h-7.251v-1.895h16.584v1.895h-6.922V15.739z M254.385,9.436h-12.34V2.143h2.41v1.896h7.54
		V2.122h2.39V9.436z M254.571,19.262h-12.525v-5.15h2.41v3.255h10.115V19.262z M251.996,7.52V5.913h-7.54V7.52H251.996z"/>
	<path d="M267.714,10.651c0,0.755-0.278,1.397-0.834,1.926c-0.557,0.529-1.302,0.889-2.235,1.082v1.195
		c1.964-0.124,3.357-0.24,4.182-0.351c0,0.055,0.023,0.316,0.072,0.783c0.048,0.467,0.086,0.817,0.113,1.05
		c-1.785,0.261-3.853,0.454-6.201,0.577c-1.95,0.083-3.577,0.124-4.882,0.124l-0.33-1.999c2.061,0,3.599-0.021,4.615-0.062v-1.298
		c-0.976-0.151-1.759-0.501-2.349-1.051c-0.591-0.549-0.886-1.208-0.886-1.978c0-0.907,0.411-1.648,1.235-2.225
		c0.824-0.577,1.868-0.865,3.132-0.865c1.277,0,2.324,0.289,3.142,0.865C267.305,9.003,267.714,9.744,267.714,10.651z M268.58,6.984
		h-10.465V5.15h10.465V6.984z M260.813,4.368V2.514h5.191v1.854H260.813z M265.325,10.651c0-0.357-0.186-0.656-0.557-0.896
		c-0.37-0.24-0.845-0.361-1.421-0.361c-0.563,0-1.027,0.121-1.391,0.361c-0.364,0.24-0.546,0.539-0.546,0.896
		c0,0.343,0.186,0.642,0.556,0.896c0.371,0.254,0.831,0.381,1.381,0.381c0.562,0,1.033-0.127,1.411-0.381
		C265.135,11.293,265.325,10.994,265.325,10.651z M272.247,1.401V8.9h2.369v1.978h-2.369v8.879h-2.39V1.401H272.247z"/>
</g>
<g>
</g>
<g>
</g>
<g>
</g>
<g>
</g>
<g>
</g>
<g>
</g>
<g>
</g>
</svg>
