<?xml version="1.0" encoding="UTF-8"?>
<svg id="_迹_1" data-name=" 迹 1" xmlns="http://www.w3.org/2000/svg" viewBox="0 0 2164.832 1162.438">
  <defs>
    <style>
      .cls-1 {
        fill: #f3c8dc;
      }

      .cls-1, .cls-2, .cls-3, .cls-4, .cls-5 {
        stroke-width: 0px;
      }

      .cls-2 {
        fill: #eff6fa;
      }

      .cls-3 {
        fill: #e0ffcb;
      }

      .cls-6 {
        fill: none;
        stroke: #000;
        stroke-linecap: round;
        stroke-linejoin: round;
        stroke-width: 6px;
      }

      .cls-4 {
        fill: #eef;
      }

      .cls-5 {
        fill: #fefbd4;
      }
    </style>
  </defs>
  <path class="cls-2" d="m2164.832,0v1059.13c-163.03,7.98-199.63-24.83-267-52.13-143.34-58.08-209,43-393,134-79.52,39.33-274.27,48.53-382-189-98.01-216.09-249.27-77.61-275-156-8.21-24.98,19.97-49.97,40-67,130.4-110.86,73.2-366.71-142-417-229.51-53.63-323.77,53.87-467,57C95.832,373-106.568,175,64.832,0h2100Z"/>
  <g>
    <path class="cls-1" d="m827.632,1136.53c117.61-5.45,240.81-4.06,253.2-80.53,4.49-27.73-5.08-50.15-37.78-58.69-56.97-14.89-176.66,10.6-324.22,3.69-18.89-.88-154.5,12.37-120.87,35.3,21.11,14.4,156.42,16.33,196.87,13.7,185-12,284.07,27.04,118.19,52.41-104.59,16-259.59-1.45-303.03,18.13-20.5,9.24.63,26.06,217.64,16v-.01Z"/>
    <path class="cls-5" d="m672.232,939.66c-24.46-35.38,57.61-59.45,140.6-60.66,105.13-1.53,202.63-4.63,194.87,55.48-11.28,87.41-97.59,90.07-226.8,96.42-21.51,1.06-91.98,7.7-83.6-16.19,5.82-16.58,37.18-2.01,54.23-.46,244.7,22.29,245.34-94.81,33.3-69.25-28.86,3.48-101.58,10.61-112.6-5.34Z"/>
    <g>
      <path class="cls-3" d="m820.632,495.37c32.91,5.11,32.67,21.26,44.37,55.47,9.46,27.67,12.17,66.03-29.75,61.11-30.68-3.6-47.35-53.94-46.79-81.08.68-33.11,17-37.85,32.17-35.5h0Z"/>
      <path class="cls-3" d="m603.902,487.65c34.58-19.76,107.84-63.27,137.73-13.97,42.46,70.01-99.49,87.2-135.74,64.88-36.27-22.34-29.94-34.93-2-50.9l.01-.01Z"/>
      <path class="cls-3" d="m684.182,566.37c29.36-5.69,68.85-28.6,85.62,9.25,27.45,61.98-146.83,86.24-182.98,63.42-41.9-26.45,13.94-56.52,97.36-72.67Z"/>
      <path class="cls-3" d="m562.552,665.47c50.45-19.62,77.36,12.64,83.29,51.94,9.88,65.49-79.85,33.9-91.78.87-4.97-13.77-19.73-41.84,8.49-52.81h0Z"/>
      <path class="cls-3" d="m714.132,649.57c42.68-13.38,96.23-31.72,137.56-13.31s38.04,42.15,3.01,64.87c-37.82,24.53-103.46,40.6-148.24,27.43-40.33-11.86-106.47-43.21,7.67-78.99Z"/>
      <path class="cls-3" d="m499.232,568.36c1.04,17.25,11.27,27.56,28.88,26.72,14.44-.69,21.83-13.64,29.74-25,9.59-13.75,14.01-27.11,5.81-43.09-10.08-19.65-29.88-26.84-47.4-12.94-16.86,13.38-20.48,46.43-17.03,54.3v.01Z"/>
    </g>
    <path class="cls-4" d="m415.832,1157c-132.88,11.9-167-1-202.64-130.8-34.29-124.9-95.53-275.24-19.97-390.75,16.19-24.74,19.26-53.89,31.65-80.34,4.83-10.31,15.17-22.23,16.06-33.61,1.45-18.6-14.64-25.72-24.4-39.83-12.72-18.39-20.81-88.76,12.3-70.66,64,35,249.01,223.08,238.33,252.16-6.12,16.66-86.16,68.11-97.33,61.84-28-15.72-46.44-88.52-114-36-51.18,39.79-22.06,82.78,7.76,136.76,39.62,71.72,136.65,42.04,201.51,43.77,92.74,2.47,110.24,24.64,72.74,45.47-36.22,20.12-125.31,34.03-156,64-44.65,43.61-30.86,89.09,23.1,109.79,86.74,33.27,180.86,4.26,174.34,43.92-3.97,24.14-131.77,21.45-163.44,24.29l-.01-.01Z"/>
  </g>
  <path class="cls-6" d="m34.832,23c92,50,24.99,209.74,3,201-31.25-12.42-14.78-36.6,10.26-47.1,40.97-17.17,113.26,59.15,65.25,189.83-20.52,55.86-50.08,145.11-34.51,176.27,21,42,52,23,38,2-20.46-30.7-121.15,31-50.79,140.41,36.17,56.23,60.24,94.47,119.33,194.49,51.46,87.11,30.31,172.11,30.31,172.11,0,0-175.85-233-41.96-420.34,5.1-7.14,12.15-12.28,8.72-20.35-3.88-9.11-9.1-34.4,10.91-56.08,12.32-13.35,17.63-9.81,28.35-20.85-6.55-6.99-10.13-13.29-12.05-17.71-1.57-3.62-.88-7.82,1.8-10.71l6.91-7.44s-16.14-17.35-19.18-26.68c-1.52,1.7-8.79,3.2-10.84,4.17-.07-.09-39.27-42.79-39.19-51.7.13-15.58,36.69-35.89,49.2-35.02,15.01,20.01,23.35,25.02,35.74,49.7-8.3,7.33-17.71,13.12-25.87,20.66,7.27-2.73,15.17-6.27,19.32-12.82,9.33,6.75,17.23,15.91,23.35,25.85-2.85,10.94-13.83,14.9-20.98,23.16,11.11-9.36,25.99-18.74,39.81-28.73,4.04-2.92,9.68-2,12.55,2.08,8.15,11.55,23.85,26.02,96.21,115.23,19.22,23.69,33.36,30.02-27.52,65.04,9.01-8.73,42.91-50.58,41.34-64.19,19.82,18.07,39.94,49.09,54.52,71.84,53.97,84.21,181.12,145.54,307.02,92.89,150.55-62.96,156-242,48-336-112.6-98.01-349-38-358.32,127.89-9.51,169.28,185.55,230.41,168.44,119.25-3-19.48-18.38-34.7-45.86-30.85-41.69,5.84-13.86,66.71,8.34,66.71,19.18,0,26.73-22.23,26.79-34.6.04-10.44-14.3-17.53-16.64-5.78-13,65.35,206.9,21.27,228.86-12.03,25.85-39.19,5.3-73.37-31.38-71.83-257.71,10.83-161.03,143.4-67.63,73.04,10.26-7.73,17.38-24.37-2.76-26.6-14.34-1.58-34.53,22.64,3.77,23,32.81.31,98.68-23.98,95.81-88.62-4.31-97.16-74.71-92.7-68.28-29.42,2.4,23.58,22.1,60.8,38.74,33.27,12.3-20.34-19.81-60.37-24.82-35.79-4.02,19.74,29.98,18.83,12.33-1.63-9.07-10.52-43.27-19.37-57.21-20.63-28.15-2.55-162.39,35.39-174.91,66.52-16.69,41.47,25.13,56.15,58.2,52.53,161.75-17.72,158.07-120.97,63.63-102.83-17.93,3.44-43.87,9.81-52.64,28.14-19.3,40.36,53.55,33.13,47,10.39-3.26-11.33-29.75-6.13-35.7-1.28,24.42-.86,100.26-35.94,99.42-75.97-1.57-75.21-146.51-17.91-155.94-9.17-20.44,18.95-13.93,54.75,12.51,55.04,21.47.23,78.06-9.69,88.68-32.6,12.37-26.68-66.75-27.81-58.29-1.77,2.87,8.84,23.49,1.31,23.81-7.32,1.08-28.72-98.46,3.24-107.57,10.84-25.02,20.85-62.54,79.22-5.84,82.55,19.16,1.13,37.53-52.7,32.52-65.04-21.23-52.32-51.34,61.43-25.85,48.37,39.63-20.31-76.82-38.83-11.67,110.91,35.87,82.45,234.59,136.09,324.44-3.64,72.41-112.61-15.02-327.2-236-273-81.25,19.93-204.45,114.46-147.23,254.54,2.36,5.77-4.73,14.5-10.06,17.74-4.77,2.9-10.17,4.49-14.98,7.68,7.87,8.98,13.77,14.19,15.45,25.87-16.68,10.01-31.69,24.18-48.37,33.36-4.42-3.83-11.86-10.23-15.84-14.52,7.05-12.12,23.46-17.56,31.48-29.86-27.97,11.69-41.49,34.37-54.9,37.36-10.55,2.35-24.28-16.07-46.78-51.29,16.71-8.53,14.38-8.47,30.17-18.41-5.91,16.27-7.5,20.85.51,36.8-.04-.08-58.83-90.09-58.88-90.17-3.6,25.41-27.04,40.36-52.53,30.02-30.85-12.51-36.28-56.35,0-75.05,38.29-19.74,70.4,8.73,72.4,47.28,2.65,51.12-35.71,51.96-64.06,51.96-81.82,0-4.28,179.72,48.37,191.79,23.55,5.4,111.74,15.01,110.52-1.39-22.5-6.14-61.32,1.39-62.15-7.78-1.04-11.42,7.84-10.14,19.29-10.76,139.98-7.58,143.83-5.21,142.48,11.6-14.33,1.94-27.84,1.54-45.03,4.17-16.68,3.34-20.47,11-4.17,10.84.09,0,95.37-.06,95.37-.06,0,0-1.05,27.05-1.14,45.09-157.2-3.91-224.56-3.21-249.75,1.4,35.84,193.33-49.39,183.98-44.61,173.72,14.45-31.06,37.76-128.33-3.34-160.11,41.47-.68,228.88-6.25,261.84-1.67-117.05,23.87-216.05,55.87-141.05,142.87,26.12,30.3,102.41,29.41,162,39-94.23,0-115.33-5.01-319.96-.08,0,11.67-.4,24.08,5.18,35.99,230.61,2.1,288.5,5.18,360.55,1.53-.76-12.57,1.52-11.4,0-9.19,83.23,2.74,387.99,11.45,395.23-7.26,6.71-17.33,14.38-71.56-15-71-157,3-297,8-357,4,30.1,25.58-3.93,66.62-6,66,117-2,321.33-1.59,383-6,23.35-1.67,16.82-42.09,6-71-5.01-13.38-141,2-378-1-27.48-.35-37.95-.96-30-8,13.66-12.09,46.36-24.9,69-36,8.56-.31-6.4,10.04,2,15,9.62,5.67,42.76,4.8,237,0,19.18-.47,22.12-2.25,24-15,5.66-38.46,2-70-7-72-18,1-190.3-3.58-238,1,24.37,38.6,11,55-1,80,118.41-5,252,1,255.82-8.02,8.75-20.64,10.11-63.23-6.82-81.98-53-2-200.82,2.8-258.96,2.23-3.89-.04-5.34-5.12-2.05-7.2,16.1-10.16,63.86-29.03,104.86-41.03,13.42-3.93,44.73.41,180.65-2.93,34-.83,63.86,1.14,68.2,45.87,5.18,53.36-9.55,51.58-45.7,67.06,114.24-10.01,131.85-16,130.94,62.2-.3,25.8-61.94,56.8-81.94,60.8-8.66-18.32,39.58-28.44,50.72-28.34,46.77.41,97.32,18.96,142,31.92,181.61,52.69,181.55-9.32,172.83-38.08-4.7-15.5-31.7-.97-7.7,33.5,55,79,214.53-47.56,345-66,91.89-12.99,160,35,151,79-10.08,49.27-56,22-21.14-15.76,74.49-80.68,201.29,56.76,313.29,33.76"/>
</svg>