<?xml version="1.0" encoding="UTF-8"?>
<svg id="_Layer_" data-name="&amp;lt;Layer&amp;gt;" xmlns="http://www.w3.org/2000/svg" viewBox="0 0 2747.52 1831.68">
  <defs>
    <style>
      .cls-1 {
        fill: #b3918f;
      }

      .cls-1, .cls-2, .cls-3, .cls-4, .cls-5, .cls-6, .cls-7, .cls-8, .cls-9, .cls-10, .cls-11, .cls-12, .cls-13 {
        stroke-width: 0px;
      }

      .cls-2 {
        fill: #7ba4d0;
      }

      .cls-3 {
        fill: #f7ccbb;
      }

      .cls-4 {
        fill: #fee4d6;
      }

      .cls-5 {
        fill: #de6f68;
      }

      .cls-6 {
        fill: #a7cee7;
      }

      .cls-7 {
        fill: #b8d7eb;
      }

      .cls-8 {
        fill: #8b6263;
      }

      .cls-9 {
        fill: #fff;
      }

      .cls-10 {
        fill: #4c5263;
      }

      .cls-11 {
        fill: #e2e2e2;
      }

      .cls-12 {
        fill: #d4f0fd;
      }

      .cls-13 {
        fill: #a4aecd;
      }
    </style>
  </defs>
  <path class="cls-7" d="m0,0h2747.52v1831.68H0V0Z"/>
  <g>
    <g>
      <path class="cls-6" d="m1081.148,1031.235c-14.194,39.839-203.315,262.388-226.212,268.341-22.896,5.952-171.72,35.26-187.747,36.634-16.027,1.373-15.57-30.223-15.57-30.223-18.316-80.594-10.99-159.357-41.213-237.661-15.11-39.839-43.959-72.81-54.491-114.48-3.206-12.364-11.448-39.839,1.373-50.372,24.27-19.69,67.314,13.28,90.668,18.318,73.726,15.568,158.899-10.99,233.54-10.99,64.108,0,115.854,4.579,176.756-18.775,13.739-5.495,42.587-16.943,50.372,2.747.458.458-13.279,96.622-27.476,136.461Z"/>
      <path class="cls-6" d="m1967.224,1610.962c-21.98-10.989-53.118-56.324-59.987-63.651-104.406-112.647-81.968-444.182-81.968-444.182l57.698-77.39c17.859-28.391,6.411-12.363,54.951-55.407,13.279-11.906,53.118-36.634,72.809-24.271,20.607,12.822,30.68,42.129,43.044,61.82,13.28,20.148,30.223,32.97,50.372,47.165,45.791,32.513,141.496,12.821,199.653,31.596,13.279,4.122,54.95,11.448,61.36,32.055,8.702,27.018-17.859,51.287-32.97,70.52-19.233,25.186-34.345,54.95-51.287,81.509-34.344,53.12-65.483,110.359-107.153,158.441-30.224,34.343-65.94,63.65-95.247,98.453-16.485,19.689-29.765,47.165-48.998,66.396-1.831,2.291-23.811,35.719-62.277,16.944Z"/>
    </g>
    <g>
      <path class="cls-9" d="m1093.054,1290.417c-6.409-2.746,19.692-18.316,25.645-22.896,36.176-27.017,48.998-76.015,68.23-114.479,26.56-53.118,70.978-91.127,90.211-147.908,15.11-44.876,16.486-93.416,32.055-139.207,5.495-16.028,9.616-41.213,21.979-53.12,18.774-18.774,43.046,9.617,64.109,4.58,15.112-3.663,27.933-18.317,38.466-28.849,4.578-4.581,10.074-12.823,17.857-11.449,10.991,1.831,5.496,22.438,4.122,28.391-7.327,29.308-19.691,57.698-21.979,87.92-5.496,81.969,6.41,160.73,31.139,239.493,11.904,38.923,32.512,83.341,57.239,115.853,37.092,48.539,91.584,79.679,133.712,123.181,16.944,17.4,36.635,49.455,31.598,75.1-4.122,19.69-19.69,37.548-32.513,51.744-12.364,14.652-9.616,11.448-27.017,19.691-17.859,8.241-9.618,3.204-43.046-34.344-16.942-19.233-53.577-59.53-92.499-85.174-10.532-6.868-85.174-53.118-165.311-74.183-36.174-9.617-122.722-12.363-166.683-19.691-29.765-5.036-36.174-5.953-43.501-9.616-7.328-5.037-22.896-4.578-23.813-5.037Z"/>
      <path class="cls-2" d="m1458.475,593.921c15.112,8.701,25.644,16.944,36.635,30.223,10.99,13.279,42.586,48.54,59.071,61.362,26.56,20.606,52.661,30.68,80.136,41.67,5.037,1.833,8.242,2.29,16.484,4.579,27.934,8.7,38.467,10.533,65.483,29.766,35.718,25.643,70.061,87.004,101.658,149.739,23.353,46.709,47.624,96.163,58.155,121.35,21.522,52.66,54.95,136.001,69.605,181.794,11.446,36.633,17.857,54.492,27.932,91.125,4.579,17.401,14.653,55.868,18.316,77.848,5.496,31.139,16.486,57.696,14.196,82.883-2.289,21.981-16.026,42.587-44.876,59.072-12.364,7.327-40.296,17.858-55.866,18.316-5.952,0-6.869-4.122-11.905-4.579-7.328-1.373-13.739,7.784-21.522,6.869-10.074-.916-16.944-1.832-34.802-3.205-38.466-2.748-74.185-8.244-112.649-6.411-34.344,1.374-92.957,17.858-117.685,13.278-8.701-1.83-5.954-16.484-.459-27.475,5.496-11.447,16.485-12.363,25.645-19.233,10.99-8.7,28.848-46.708,27.017-48.998-3.206-4.121-14.195-9.615-23.354-18.316-11.447-10.532-32.97-27.934-37.549-30.223-8.7-4.121-21.522-7.326-38.008-16.485-20.148-10.99-41.213-28.85-57.24-47.166-10.074-11.448-24.269-30.223-31.139-42.587-10.531-17.857-12.822-29.765-23.353-48.996-13.279-24.271-33.886-61.362-43.502-87.005-8.242-21.523-19.233-45.792-24.728-67.773-5.495-21.064-11.448-41.67-16.942-62.277-14.654-52.66-21.522-75.557,0-144.245,4.12-12.822,12.363-51.744,22.436-60.444,6.87-5.954,16.027-3.663,23.812,2.289,2.289,1.831,11.448,16.027,16.026,13.279,2.291-1.374,3.664-10.531,5.496-17.401,3.205-12.363,19.233-44.417,20.605-49.913,7.785-30.222,8.243-38.922,13.281-70.061,2.289-13.281,9.615-48.083,7.784-54.035-2.29-5.953-30.223-18.316-29.308-38.007,0-6.411,5.496-26.56,15.111-20.607Z"/>
      <path class="cls-2" d="m1256.99,724.887c10.99-3.205,22.438,26.101,28.391,33.428,9.159,10.533,20.149,17.859,25.644,31.139,15.568,37.55-2.291,81.052-6.869,119.976-3.663,31.596-13.279,63.651-17.859,94.788-1.374,10.074-13.279,51.287-20.605,59.531-18.775,20.605-48.998,6.868-60.904,33.885-10.989,25.185-31.597,93.874-41.213,119.976-11.905,32.054-38.923,53.577-54.033,64.108-5.954,4.121-10.074,8.243-10.074,8.243,0,0-16.028,5.494-76.932,7.785-60.903,2.289-167.14,1.831-167.14,1.831,0,0-22.438-11.905-7.785-41.213,10.533-21.064,20.149-28.391,31.596-49.455,16.028-30.681,38.923-62.277,54.035-97.079,27.476-61.819,41.214-66.856,85.174-84.257,8.242-3.206,14.653-7.327,20.147-9.617,3.665-1.373,8.244.458,9.159-5.036,5.037-23.812,27.476-57.24,37.55-73.269,12.822-20.147,37.091-58.614,57.24-96.62,14.196-27.018,20.605-43.503,23.353-49.914,7.785-17.859,8.243-17.859,21.523-30.223,7.785-7.784,36.634-24.27,48.081-29.307,7.785-3.663,17.401-7.785,21.522-8.7Z"/>
      <path class="cls-4" d="m1249.664,715.727c-9.159-9.157-15.57-27.932-22.438-38.922-10.074-15.112-16.485-30.223-25.644-43.045-7.326-10.532-10.072-16.943-15.11-27.476-5.953-13.279-10.074-28.391-10.532-43.502-.915-43.502,45.792-72.808,82.426-80.593,44.876-9.616,101.199-11.448,139.208,18.775,11.905,9.159,19.69,54.492,32.054,45.792,3.663-2.289,16.942-1.374,22.439,4.579,11.905,13.281,11.448,29.308,7.784,47.167-1.374,6.41-12.363,12.364-10.074,19.232,3.663,10.533,18.775,32.054,23.812,35.717,2.747,1.833-3.663,20.607-8.242,52.203-4.58,29.308-8.702,69.604-21.065,81.511-6.41,5.952-17.858,15.111-30.681,21.523-10.074,4.579-20.605,7.783-31.139,5.952-1.374,0,10.99,11.448,5.496,14.196-9.159,4.12-10.991,20.148-15.111,33.885-11.905,35.719-19.691,74.185-21.981,69.147-2.289-4.58-12.821-13.738-26.102-23.812-12.363-9.159-27.017-18.316-38.464-28.391-7.785-6.869-14.196-15.111-17.859-21.522-13.737-22.896-.458-19.69-5.037-23.812-8.7-7.785-13.737-28.849-14.653-35.717-1.373-10.533,4.579-7.327,2.748-12.822-3.206-10.99.457-27.934,2.289-28.85,5.037-2.289,1.373-8.7-.458-10.99-5.495-7.327,1.831-16.027,5.495-17.859,2.747-1.373-6.869-10.074-9.158-12.364Z"/>
      <path class="cls-1" d="m1187.387,611.78c-1.374-2.748-6.869-.458-20.608-12.364-15.568-13.737-22.437-46.708-20.147-66.856,1.831-13.28,9.616-21.981,14.653-33.886,3.205-8.7,8.7-18.775,11.905-27.934,5.953-15.569,8.243-23.812,18.775-36.176,9.158-10.99,24.27-22.895,36.634-30.222,19.69-11.448,37.092-21.064,56.323-23.812,16.944-2.289,27.476.916,45.793,5.037,9.616,2.289,35.718,1.831,45.792,5.037,23.354,7.327,38.007,27.932,52.203,50.829,16.485,27.017,16.026,55.407,18.316,80.593.458,3.664,5.952,28.849-1.374,25.643-7.327-2.747-23.354-2.29-30.681,8.701-6.869,10.991-5.952,47.166-9.616,41.671-4.121-5.496-9.617-16.944-12.364-19.233-8.242-7.327-32.512-10.531-42.129-14.653-10.531-4.579-19.69-1.374-32.97.916-18.774,3.207-38.465,5.037-55.867-.457-17.401-5.496-21.521,3.664-33.427,5.953-12.365,2.29-21.065,5.953-31.14,14.196-6.868,5.953-18.316-.459-16.027,8.242,1.374,6.411,5.954,19.231,5.954,18.774Z"/>
      <path class="cls-9" d="m1264.775,848.982c-4.122-3.205-4.58-8.242-7.328-10.074-4.12-3.205-13.279,3.206-17.857.917-5.037-1.833-7.327-16.028-12.364-20.149s-13.737-1.832-16.943-8.7c-2.748-5.952,5.037-10.074,4.121-13.28-.458-1.373-5.952-3.205-7.326-4.579-6.411-7.326-21.979-21.979-13.737-28.391,8.241-6.411,39.38-7.785,49.454-10.99,2.748-.916,9.159-8.244,10.99-5.037,6.411,9.616-3.205,7.785-4.579,16.942-.915,5.954,4.579,15.57,2.29,20.607-2.748,6.41-4.579,11.447-1.831,18.775,3.663,9.157,6.411,19.69,11.905,28.848,2.289,3.206.458,7.785,1.374,11.906,0,.916,3.663,5.037,1.832,3.205Z"/>
      <path class="cls-9" d="m1321.557,778.463c-8.7-9.616-18.774-20.149-29.308-28.391-6.868-5.495-16.942-15.57-19.69-20.148-4.578-7.785,6.411-27.934,11.449-34.344,3.663-4.58,5.952-5.954,11.906-7.785,10.074-3.207,18.774,10.531,22.895,16.942,1.374,1.833,4.121,5.037,3.663,7.785-.457,2.289-4.12,2.289-5.494,3.663-3.207,3.205-6.411,9.159-7.328,13.738-1.373,5.496-.916,11.448.458,17.401,1.374,7.327,4.579,13.738,8.244,20.149.457,2.289,5.037,13.279,3.204,10.99Z"/>
      <path class="cls-13" d="m625.977,1626.53s-3.663-33.885-7.785-52.202c-12.364-51.286-17.401-114.021-17.401-119.975-2.29-49.914,4.121-101.659,46.25-119.976,18.775-8.242,86.548-21.979,112.191-23.811,54.035-4.121,122.722-10.532,176.757-11.906,47.166-1.374,60.445-2.289,113.565-4.121,42.129-1.831,58.613-5.037,59.529-4.122,5.953,5.954,38.466,11.448,51.286,12.822,26.56,3.206,55.868,4.122,86.09,8.242,40.297,5.495,59.072,3.663,120.433,23.811,46.25,15.111,106.237,44.877,153.403,83.342,20.148,16.485,52.661,47.167,70.062,67.314,9.158,10.533,12.82,15.111,19.231,30.223,2.748,7.327-2.289.916-5.494,13.279-3.206,11.907,5.494,16.029-1.832,20.608-14.653,10.074-50.371,12.363-69.146,15.568-67.772,10.533-134.171,9.159-210.644,3.664-36.633-2.748-69.145-8.701-92.5-7.327-16.484.917-27.476-.458-43.503,8.7-21.522,11.907-67.772,82.885-67.772,82.885,0,0-51.287,8.7-105.322,7.326-54.034-1.373-109.9-12.822-109.9-12.822,0,0,16.027-41.213,17.858-48.539,24.728-88.836,44.419-114.022,36.176-110.358-1.831.915-32.054,3.663-38.924,4.12-46.707,3.207-53.575,1.832-95.704-2.289-24.729-2.748-33.429-6.868-32.971-.916.915,6.412,1.83,29.307,1.373,54.034-.458,16.028-2.748,31.139-3.205,44.419,0,13.279.915,28.391.915,28.391,0,0-24.727,13.738-75.1,15.112-48.997.458-87.92-5.953-87.92-5.496Z"/>
      <path class="cls-5" d="m1267.98,1064.205c-15.111-3.663-37.092-3.663-52.661-3.205-15.569.457-45.334,3.663-57.24,6.868-11.905,3.206-16.027,9.617-16.027,9.617,0,0,1.833,19.69,2.748,28.391.915,8.701,21.522,132.797,21.522,132.797,2.289,6.869,4.579,13.279,6.868,18.316,5.954,12.363,25.186,19.233,53.12,19.691,27.932.457,52.202-7.785,55.866-22.438,21.979-82.885,19.231-171.264,17.857-175.385-2.289-7.327-16.942-10.99-32.054-14.653Z"/>
      <path class="cls-4" d="m1143.426,1078.858c.459,5.954.916,11.906,1.374,17.859.458,2.289-.458,6.869,1.374,8.243,4.578,3.205,12.363,4.578,17.4,7.326,8.242,4.12,11.906,5.953,19.69,10.99,3.206,2.289,19.233,10.074,16.485,16.485-2.289,6.409-12.822,3.663-16.943,2.746-.457,0-7.326.459-6.868.917,3.206,3.663,10.532,4.12,14.653,6.411,7.785,5.036,14.652,9.157,21.979,14.194,1.374.916,9.159,9.616,8.243,11.907-3.206,6.868-20.148,5.036-25.644,4.12,0,0-10.989-2.289-10.074,0,.917,3.206,11.907,6.87,12.822,7.327,10.074,4.58,24.27,8.7,26.102,21.523.915,7.326-27.476,5.037-27.017,5.952.458,1.833,3.663,2.29,5.494,2.748,5.954,2.289,27.934,10.533,14.654,17.401-6.869,3.663-37.55,2.289-51.746-2.29-8.698-2.747-18.773-9.615-22.894-17.4-2.29-4.122-5.953-8.701-6.87-9.159-3.663-2.289-9.615-3.663-14.194-4.579-12.822-3.206-22.438-8.7-34.802-14.195-17.859-7.784-41.213-26.559-42.129-32.513-2.291-12.821,15.11-59.529,41.212-71.894,15.111-7.326,49.913-10.989,53.12-10.531,1.83.457,4.12,5.494,4.578,6.41Z"/>
      <path class="cls-8" d="m1157.164,1087.559c0-5.495,29.307-12.822,64.109-12.822,35.259,0,63.649,6.411,63.649,11.905s-32.97,10.075-68.229,10.075c-35.26-.459-59.529-3.664-59.529-9.158Z"/>
      <path class="cls-9" d="m1837.176,1603.635c-1.374,1.832-6.87-.915-7.328-3.662-.916-8.244-1.831-25.645,2.748-32.514,2.747-4.121,10.991-16.026,17.4-13.737,6.411,2.29,8.7,5.496,15.57,1.833,8.242-4.122,15.111-14.655,23.812-16.029,6.868-1.372,10.99,2.748,16.027,7.327,12.822,11.906,17.858,31.597,21.521,47.624,1.832,6.869,9.617,22.896,6.869,29.765-6.411,16.944-22.438,1.374-34.802,4.58-10.074,2.289-27.934,12.364-38.465,7.784-8.701-4.121-13.738-8.242-17.401-16.484-.458-1.832-5.495-16.486-5.952-16.486Z"/>
      <path class="cls-9" d="m2000.652,1598.598c4.121,0,5.952-.915,10.074-1.832,13.279-3.205,18.774,0,31.597,4.122,3.663,1.374,15.112,9.159,17.858,10.989,6.411,4.579,27.475,10.533,20.607,22.439-3.664,6.411-8.701,6.411-10.533,13.279-1.374,5.495,5.953,14.196,1.832,18.774-3.663,4.58-10.989,5.955-16.485,6.87-22.896,3.663-46.25-14.196-67.772-18.774-10.532-2.29-22.896,1.373-30.223-9.616-8.244-13.281,5.952-18.318,11.448-27.019,5.037-8.242,4.578-16.027,14.652-20.605,6.412-2.29,16.027,1.373,16.943,1.373Z"/>
      <path class="cls-11" d="m1601.805,1583.486l77.389-10.531,113.562,44.418-66.398,20.148-124.554-54.035Z"/>
      <path class="cls-9" d="m1645.307,1591.728s-4.58.917-6.411-.457c-2.289-1.832-1.832-5.953.458-7.326,2.747-1.832,7.784.457,9.158,3.205.458.458.917,2.747.458,3.206-.915.915-4.578,2.289-3.663,1.372Z"/>
      <path class="cls-9" d="m1681.024,1587.15c-3.664-.459-6.868,1.373-9.616-2.748-1.832-2.748,5.037-6.868,7.326-5.953,2.748,1.374,8.242,9.616,2.29,8.701Z"/>
      <path class="cls-9" d="m1680.566,1605.01c-.915,2.747-17.4,1.372-14.653-5.496,3.664-8.7,17.859-3.205,14.653,5.496Z"/>
      <path class="cls-9" d="m1713.995,1598.14c-1.833.915-3.665,1.374-5.954.915-1.373-.457-3.205-.915-4.12-1.83-1.374-1.374-2.29-3.207-.917-5.037,2.748-3.664,8.243-2.748,10.532.915,1.374,1.374,4.122,3.663.459,5.037Z"/>
      <path class="cls-9" d="m1719.032,1621.951c-1.374,3.664-17.401,2.748-14.196-5.495,2.748-7.326,17.401-3.205,14.196,5.495Z"/>
      <path class="cls-9" d="m1756.123,1611.877c-4.58,5.496-21.064,2.29-14.195-4.578,2.747-2.748,7.784-3.664,11.448-1.832,1.374.915,4.121,5.037,2.747,6.41Z"/>
      <path class="cls-9" d="m1672.782,1630.652c-1.374,1.832-2.291,2.748-3.663,3.205-4.122,1.832-10.533,1.373-14.655,0-17.4-5.036,3.206-12.364,11.907-10.99,2.289.459,5.495,1.374,6.411,4.122.457.915.457,3.206,0,3.663Z"/>
      <path class="cls-9" d="m1805.12,1603.635c1.832-.915-2.29,3.205-3.663,3.664-3.205.915-20.147,2.748-18.316-4.579,1.832-6.411,14.195-5.954,18.774-3.665,2.289.918,2.289,5.037,3.205,4.58Z"/>
      <path class="cls-9" d="m1819.316,1632.484c.458-.917.458.457-.459,2.289-.457,1.375-2.746,2.29-3.663,2.748-4.12,1.373-15.111-.458-17.858-5.037-3.206-6.869,11.906-5.954,14.653-5.495,2.748.458,6.868,6.411,7.327,5.495Z"/>
      <path class="cls-12" d="m1340.332,643.834c2.748-2.748,14.653-16.027,18.774-8.242,3.663,7.784-9.617,14.653-15.569,14.653-4.579.458-6.411-2.748-3.205-6.411Z"/>
      <path class="cls-12" d="m1243.711,674.515c9.616,15.111-15.569,10.533-15.569,4.122-.459-5.494,12.821-8.242,15.569-4.122Z"/>
      <path class="cls-3" d="m1271.187,667.646c7.783-10.074,48.997-21.979,51.286-2.289,1.374,10.074-43.044,24.727-51.744,21.064-5.037-2.289-5.496-11.448.458-18.775Z"/>
    </g>
    <g>
      <path class="cls-10" d="m1256.532,726.719c-.916,0-1.374-.458-1.831-.916-3.663-4.121-10.533-11.449-12.364-17.401-.458-1.374.457-3.205,1.831-3.664,1.374-.457,3.205.458,3.664,1.833.916,3.205,5.037,8.7,10.989,15.111.915.916.915,2.747,0,3.664-.915,1.373-1.831,1.373-2.289,1.373Z"/>
      <path class="cls-10" d="m1354.985,768.389c-.916,0-2.29-.458-2.748-1.831-.457-1.374,0-3.207,1.374-3.665,48.998-18.773,72.352-66.856,73.267-105.78,0-1.373,1.374-2.747,2.748-2.747s2.748,1.374,2.748,2.747c-1.374,40.756-25.645,90.669-76.931,110.817,0,.458-.458.458-.458.458Z"/>
      <path class="cls-10" d="m1199.75,633.76c-.915,0-1.832-.457-2.289-.916-10.533-13.738-15.57-29.308-20.607-45.335l-1.373-4.12c-.457-1.374.458-3.206,1.832-3.663,1.374-.458,3.205.457,3.663,1.831l1.374,4.122c5.037,15.568,10.074,30.68,19.69,43.96.915,1.373.457,2.747-.459,3.664-.915.457-1.374.457-1.831.457Z"/>
      <path class="cls-10" d="m1243.711,645.667c-3.664,0-6.869,0-10.074-.458h-3.206c-1.374,0-2.748-1.374-2.748-2.748s1.374-2.748,2.748-2.748h3.206c8.7.459,18.773,1.374,25.642-2.289,1.374-.457,3.205,0,3.664,1.374.458,1.374,0,3.206-1.374,3.663-5.037,2.29-11.905,3.207-17.858,3.207Z"/>
      <path class="cls-10" d="m1299.577,626.434c-.917,0-2.291-.916-2.748-1.831-.458-1.374.457-3.206,1.831-3.663,5.037-1.832,9.617-5.496,14.196-9.617,3.663-3.205,7.785-6.868,12.364-9.158,1.373-.917,3.206,0,3.663,1.373.915,1.374,0,3.206-1.374,3.664-4.12,2.29-7.326,5.037-11.448,8.242-5.037,4.122-10.073,8.242-16.027,10.531,0,.458-.457.458-.457.458Z"/>
      <path class="cls-10" d="m1294.997,634.676c-2.748,0-4.579-1.373-6.868-2.747-1.374-.917-1.374-2.748-.458-3.663.917-1.374,2.747-1.374,3.663-.458,2.289,1.831,3.206,1.831,5.037,1.374,1.374-.458,2.748.458,3.206,1.831.457,1.374-.458,2.748-1.832,3.206-1.374.457-2.29.457-2.748.457Z"/>
      <path class="cls-10" d="m1289.503,684.589c-1.374,0-2.291-.915-2.748-2.289-.458-2.748-.915-5.037-.915-7.785-.459-5.953-.917-12.364-5.496-19.232-.915-1.374-.458-2.748.916-3.663s2.748-.459,3.663.916c5.495,8.242,5.954,15.57,6.411,21.979,0,2.748.458,5.037.915,7.328.459,1.373-.457,2.746-2.289,3.205q0-.459-.457-.459Z"/>
      <path class="cls-10" d="m1439.242,622.77c-1.373,0-2.29-.916-2.748-1.831-.457-1.374.458-3.206,1.832-3.665,12.822-4.12,19.69-21.064,20.148-35.259.457-11.907-3.206-26.56-15.111-32.054-5.495-2.291-15.111.457-21.979,6.41-2.291,2.291-7.326,7.785-5.495,14.196.458,1.374-.457,3.205-1.831,3.664-1.374.458-3.206-.458-3.663-1.831-2.29-6.87.457-14.196,6.867-20.149,6.868-6.411,19.233-10.99,27.476-7.327,11.905,5.495,19.232,19.69,18.316,37.091-.915,16.485-8.7,34.802-24.269,40.296,1.373.458.915.458.457.458Z"/>
      <path class="cls-10" d="m1435.121,591.632c-1.373,0-2.289-.916-2.747-1.831-2.748-7.785,3.663-17.401,7.326-22.896.915-1.374,2.748-1.374,3.663-.459,1.374.917,1.374,2.748.459,3.663-5.496,7.328-7.785,14.196-6.411,17.859.458,1.374-.459,3.205-1.833,3.664h-.457Z"/>
      <path class="cls-10" d="m1225.852,573.772c-2.289,0-5.037-.457-7.326-2.289-1.374-.916-1.832-2.29-.917-3.663.917-1.374,2.291-1.831,3.665-.915,5.494,3.204,10.074.458,17.4-4.579l1.373-.917c5.495-3.663,10.532-7.784,15.569-11.447,15.569-12.364,29.765-23.812,51.745-25.186,1.373,0,2.747.916,2.747,2.748,0,1.373-.915,2.747-2.747,2.747-20.149.917-33.886,12.364-48.54,23.812-5.037,4.122-10.074,8.243-15.568,11.907l-1.374.916c-4.579,3.204-10.074,6.868-16.027,6.868Z"/>
      <path class="cls-10" d="m1404.898,601.247c-.916,0-2.289-.457-2.748-1.831-5.037-13.737-10.074-20.148-24.727-22.438-1.374-.459-2.289-1.832-2.289-3.206.458-1.373,1.831-2.289,3.205-2.289,17.4,2.748,23.353,10.99,28.849,26.101.459,1.374,0,3.206-1.374,3.663-.457-.457-.915,0-.915,0Z"/>
      <path class="cls-10" d="m1196.544,588.427c-.457,0-.915,0-1.374-.459-6.409-3.205-8.699-10.074-7.783-21.064,1.831-20.608,13.279-32.513,27.933-46.707.917-.917,2.747-.917,3.663,0,.917.915.917,2.746,0,3.662-13.738,13.281-24.728,24.729-26.559,43.046-.915,8.242.916,13.279,5.037,15.568,1.374.458,1.831,2.291,1.374,3.664-.458,1.832-1.374,2.291-2.291,2.291Z"/>
      <path class="cls-10" d="m1447.943,533.017c-1.375,0-2.747-.915-2.747-2.289-.917-7.785-1.374-15.569-1.833-23.354-.457-5.496-.457-11.448-1.374-16.944-2.747-29.765-21.979-70.977-49.913-89.294-14.653-9.616-29.765-11.905-45.333-6.41-1.374.457-3.206-.458-3.663-1.832-.459-1.374.458-3.205,1.83-3.664,17.401-5.496,34.346-3.206,50.372,7.327,30.224,19.69,49.455,62.734,52.203,93.416.458,5.953.915,11.448,1.374,17.401.457,7.785.915,15.568,1.831,22.895,0,1.374-.916,2.748-2.747,2.748h0Z"/>
      <path class="cls-10" d="m1319.268,654.824c-.458,0-.915,0-1.832-.457-1.373-.917-1.373-2.747-.457-3.663,7.326-10.074,17.4-12.365,21.522-13.281h.915c1.374-.457,2.747.459,3.205,1.833.459,1.374-.458,2.748-1.831,3.205h-.917c-3.204.916-12.363,2.748-18.316,10.99-.458.917-1.373,1.374-2.289,1.374Z"/>
      <path class="cls-10" d="m1263.401,674.058c-.458,0-.917,0-1.374-.459-4.121-2.29-13.737-1.831-18.316-.458-1.374.458-2.748-.457-3.206-1.831-.458-1.373.458-2.747,1.832-3.205,4.579-1.374,16.027-2.291,21.98.916,1.374.457,1.831,2.289,1.374,3.663-.459.916-1.374,1.374-2.29,1.374Z"/>
      <path class="cls-10" d="m1272.559,728.091h-.457c-1.373-.457-2.29-1.831-2.29-3.205.917-5.496,6.411-32.513,21.522-38.465,6.411-2.748,13.279-1.374,20.148,4.122,5.037,3.664,7.327,8.242,9.616,12.821,1.374,2.29,2.291,4.581,3.663,6.87.917,1.374.459,2.748-.457,3.663-1.374.916-2.748.457-3.663-.458-1.832-2.289-3.206-5.037-4.122-7.327-2.289-4.122-4.121-8.242-8.242-10.99-5.495-4.122-10.532-5.496-15.111-3.663-9.615,4.121-15.57,21.064-17.859,34.344-.458,1.373-1.831,2.289-2.748,2.289Z"/>
      <path class="cls-10" d="m1264.317,853.104c-4.579,0-5.953-4.579-7.327-6.87-.458-1.831-1.374-3.663-2.289-4.12-1.374-.458-3.663,0-5.953.916-2.747.915-5.495,1.373-8.243.915-2.289-.457-3.663-2.746-9.157-11.905-2.291-3.663-5.037-8.7-6.411-9.616-1.374-1.374-3.663-1.832-6.411-2.748-5.037-1.832-12.822-4.121-10.074-13.28,2.289-7.326,9.157-11.905,15.569-16.942,7.327-5.494,15.11-10.99,16.484-19.69.458-1.374,1.832-2.289,3.206-2.289,1.373.457,2.29,1.831,2.29,3.205-1.833,10.99-10.99,17.401-18.775,23.354-5.952,4.58-11.906,8.243-13.737,13.737-.916,3.206,0,4.122,6.411,6.411,2.746.915,5.952,1.832,8.242,4.122,1.831,1.373,4.121,5.037,7.326,10.989,1.832,3.205,5.037,8.242,5.952,9.616,1.374,0,3.207-.457,5.038-.916,3.206-.915,5.952-1.83,9.158-.915,3.206.915,4.579,4.579,5.953,7.326,1.374,3.205,1.832,3.664,2.289,3.664,1.374-.459,2.748.915,3.206,2.289.457,1.374-.915,2.748-2.289,3.206,0-.458-.458-.458-.458-.458Zm-21.98-14.653h0Z"/>
      <path class="cls-10" d="m1387.497,826.087c-.915,0-1.831-.458-2.289-1.373-6.411-11.448-14.196-21.981-21.522-32.056-8.7-11.905-17.858-23.811-24.728-37.548-2.289-4.581-3.663-9.618-5.037-15.57-2.29-8.7-4.579-17.401-9.616-21.98-1.374-.916-1.832-.916-2.291-.916-3.204.916-6.868,8.701-7.783,12.821-3.663,15.112,0,21.981,5.494,32.971,1.832,3.205,3.663,7.326,5.496,11.448.458,1.372,0,3.205-1.374,3.663-1.374.457-3.205,0-3.663-1.374-1.831-4.122-3.664-7.785-5.038-10.99-5.495-10.991-10.074-20.149-5.952-37.093.915-2.746,5.037-14.653,11.906-16.484,1.831-.458,4.579-.917,7.327,1.831,6.409,5.496,8.699,15.111,11.446,24.728,1.374,5.496,2.748,10.533,4.58,14.653,6.868,13.281,15.569,25.186,24.269,36.634,7.785,10.533,15.57,21.064,21.981,32.513.915,1.374.457,3.205-.917,3.663-1.374.458-1.831.458-2.29.458Z"/>
      <path class="cls-10" d="m1286.297,794.49c-.916,0-1.831-.458-2.289-1.374-2.748-4.121-6.412-7.785-9.616-11.905-3.206-3.663-6.87-7.785-9.617-11.907-.916-.916-1.831-2.289-2.747-3.663-5.952-8.242-14.195-19.232-13.279-27.932.457-4.581,5.036-10.075,10.531-12.364,4.122-1.833,8.242-1.374,10.99.916,6.868,5.037,19.233,17.401,31.139,29.306,11.906,11.448,24.27,23.812,29.765,27.933,1.374.916,1.374,2.748.458,3.664-.915,1.374-2.747,1.374-3.663.457-5.954-4.579-17.859-16.027-30.223-28.391-11.905-11.905-24.27-23.812-30.681-28.849-1.373-.916-3.206-1.373-5.495-.457-3.663,1.831-6.87,5.494-7.327,7.785-.458,6.868,7.327,17.401,12.364,24.269.915,1.373,2.289,2.747,2.748,3.663,2.746,4.122,6.411,7.785,9.615,11.448,3.205,3.664,6.87,7.785,9.616,12.364.917,1.374.459,2.748-.457,3.663-.458.916-.917,1.374-1.832,1.374Z"/>
      <path class="cls-10" d="m1273.476,822.424c-.917,0-2.289-.458-2.747-1.832-2.29-5.496-5.953-10.074-10.075-15.111-5.952-7.327-11.905-14.653-13.28-24.269,0,0-1.831-21.523,3.206-26.101,1.374-.917,2.748-1.374,4.122-.917,1.374.458,2.289,1.832,1.831,3.663-.457,1.374-1.374,1.833-2.748,1.833-1.831,2.748-1.831,16.485-1.374,21.064,1.374,7.785,6.411,14.653,11.907,21.522,4.121,5.037,8.241,10.531,10.989,16.485.459,1.372,0,3.205-1.374,3.663.459,0,0,0-.457,0Z"/>
      <path class="cls-10" d="m1277.596,859.057c-.915,0-1.83-.457-2.289-1.374-1.831-2.289-3.205-4.578-5.037-6.868-10.074-13.28-20.148-27.475-22.896-44.417,0-.917-.457-1.833-.457-3.207-.915-4.578-2.289-10.532,0-13.737.916-1.374,2.748-1.374,3.663-.458,1.374.916,1.374,2.747.459,3.663-.917,1.374.457,6.869.915,9.158.457,1.374.457,2.748.916,3.664,2.289,16.026,12.363,29.308,21.522,42.128,1.832,2.29,3.663,4.58,5.037,7.327.915,1.373.457,2.747-.459,3.664-.457.457-.915.457-1.374.457Z"/>
      <path class="cls-10" d="m1348.117,933.241c-.917,0-1.833-.459-2.29-1.374-7.784-11.448-20.606-20.149-34.345-29.308-22.437-15.112-47.624-32.055-53.118-65.025-.458-1.372.915-2.746,2.289-3.205,1.374,0,2.748.916,3.205,2.29,4.58,30.682,27.934,46.25,50.372,61.361,14.196,9.616,27.476,18.316,35.717,30.68.917,1.374.459,2.748-.915,3.664,0,.917-.458.917-.915.917Z"/>
      <path class="cls-10" d="m1212.571,803.649c-.915,0-1.831-.459-2.289-1.374-2.29-4.58-6.41-9.159-10.532-13.737-6.41-7.327-12.822-14.196-10.989-20.607,1.372-4.579,5.952-7.327,15.111-9.616,1.372-.458,3.205-.915,4.579-1.374,2.748-.915,5.495-1.831,8.242-1.831,3.206-.459,6.869-.917,10.074-.917,8.242-.457,16.485-1.374,23.353-5.953,1.374-.916,2.748-.459,3.663.915.917,1.374.458,2.748-.915,3.663-8.242,5.496-16.943,5.954-26.102,6.87-3.205,0-6.411.458-9.616.916-2.291.459-5.037.917-7.326,1.833-1.833.457-3.207.915-5.038,1.373-8.243,1.831-10.532,4.121-10.989,5.953-.917,3.664,4.12,9.616,9.616,15.568,4.12,5.037,8.7,9.618,11.446,15.112.459,1.373,0,3.206-1.372,3.663q-.459-.457-.917-.457Z"/>
      <path class="cls-10" d="m1469.924,653.909c-.917,0-1.374-.459-1.833-.916-8.242-8.243-12.82-17.859-16.942-27.475-1.374-2.748-2.289-5.037-3.663-7.785-.458-1.374,0-3.205,1.374-3.663s3.205,0,3.663,1.374c1.372,2.748,2.748,5.496,3.663,7.785,4.579,9.616,8.701,18.316,16.027,26.101.915.916.915,2.748,0,3.663-.916.916-1.832.916-2.289.916Z"/>
      <path class="cls-10" d="m1430.084,837.534c-1.373,0-2.747-1.372-2.747-2.746,0-9.159,6.411-22.438,12.363-35.261,4.122-8.7,8.242-16.942,9.616-22.896,4.58-18.316,7.326-36.633,10.532-54.492,2.29-13.737,4.579-27.932,7.327-41.67,3.663-17.401,10.989-53.12-3.663-71.894-.916-1.373-.916-2.747.457-3.663,1.375-.915,2.747-.915,3.664.458,16.484,21.064,8.7,58.614,5.037,76.474-2.747,13.736-5.037,27.932-7.326,41.67-2.748,17.859-5.954,36.634-10.533,54.951-1.831,6.411-5.952,15.112-10.074,24.269-5.495,11.448-11.905,24.727-11.905,32.971,0,.459-1.374,1.831-2.748,1.831Z"/>
      <path class="cls-10" d="m1481.37,834.788c-.457,0-1.372-.459-1.831-.917-.915-.916-1.374-2.746,0-3.663,31.139-34.344,73.268-57.697,109.901-76.015,5.494-2.747,12.821-4.579,20.149-6.868,11.446-3.205,23.354-6.87,29.306-12.364-1.374-2.29-8.7-6.411-10.989-7.327-20.607-8.243-38.924-16.027-57.24-26.559-22.897-13.738-40.298-33.428-56.783-52.203-12.363-13.738-25.184-28.391-39.839-40.297-1.373-.916-1.373-2.747-.457-3.663.915-1.374,2.747-1.374,3.663-.457,15.111,12.363,27.933,26.558,40.755,40.754,16.485,18.775,33.428,38.007,55.866,51.287,17.859,10.532,36.176,18.316,56.324,26.559,0,0,13.279,5.954,14.653,11.448.458,1.833,0,3.207-1.374,4.122-6.868,6.868-19.69,10.532-32.055,14.195-7.326,2.291-14.195,4.122-19.233,6.411-36.176,18.318-77.388,41.213-108.069,74.641-1.374.458-1.831.917-2.748.917Zm157.067-99.827h0Z"/>
      <path class="cls-10" d="m1612.336,1553.722c-5.494,0-7.784-.915-8.701-2.747-.915-1.375-.457-3.205.917-3.664,1.373-.458,2.748-.458,3.205.459,4.122,1.372,29.765-1.832,52.661-5.037,30.222-4.122,68.23-9.159,92.958-8.701,17.4.457,35.717,2.29,54.95,4.579,20.605,2.289,41.67,4.579,62.735,5.037,1.373,0,2.747,1.374,2.747,2.748s-1.374,2.747-2.747,2.747c-21.065-.458-42.13-2.747-63.193-5.037-19.232-2.29-37.55-4.121-54.492-4.58-23.812-.457-61.819,4.58-92.042,8.701-26.56,3.663-41.213,5.495-48.998,5.495Z"/>
      <path class="cls-10" d="m1907.694,1547.31c-1.374,0-2.747-.915-2.747-2.289s.916-2.748,2.289-3.206c38.008-5.037,66.857-21.065,87.005-48.997,13.28-18.317,9.617-44.876,4.121-71.435l-.915-4.579c-10.074-45.792-20.607-92.957-34.345-138.75-39.839-132.797-96.162-269.715-162.561-395.185-43.044-81.053-80.137-139.666-164.394-150.198-1.374,0-2.747-1.374-2.289-3.206,0-1.374,1.374-2.748,3.205-2.29,93.874,11.907,133.713,86.547,168.515,152.945,66.856,126.387,123.181,263.305,163.02,396.56,13.738,45.792,24.27,92.958,34.344,139.208l.917,4.578c5.952,27.475,9.616,55.408-5.037,75.557-21.064,29.308-50.829,45.792-91.127,51.287q.459,0,0,0Z"/>
      <path class="cls-10" d="m1535.405,1185.555c-.458,0-.915,0-1.374-.459-1.374-.915-1.374-2.747-.457-3.663,28.848-41.213,15.568-123.181,8.242-156.608,0-.915-1.374-3.663-2.289-7.326-8.701-27.476-12.364-43.046-6.411-47.166,4.579-3.206,11.905,2.748,19.233,9.157.915.917,1.372,1.374,1.831,1.833,7.784,6.411,14.652,13.737,21.522,21.522,8.7,10.073,18.316,20.147,29.765,27.017,9.616,5.494,18.774,11.448,27.476,17.401,7.783,5.037,16.026,10.531,23.811,15.568,1.372.917,1.831,2.289.915,3.663-.915,1.374-2.289,1.832-3.663.917-8.241-5.037-16.485-10.533-24.269-15.57-8.702-5.952-17.859-11.905-27.019-17.4-12.363-7.327-21.979-17.859-31.139-28.391-6.409-7.327-13.279-14.653-20.605-20.607-.459-.458-1.374-.917-2.29-1.832-8.243-7.326-11.447-8.7-12.363-8.7-1.374,1.374-1.374,10.074,8.7,40.754,1.373,4.122,2.29,6.411,2.29,7.785,7.326,33.887,20.605,118.144-9.159,160.73-.915.915-1.832,1.374-2.748,1.374Z"/>
      <path class="cls-10" d="m1896.705,1518.462c-13.738,0-28.85-2.29-31.598-2.747-53.576-8.701-120.433-9.158-179.046-.916-1.374,0-2.748-.916-3.205-2.29,0-1.374.915-2.747,2.289-3.206,59.071-8.242,126.844-8.242,180.421.917,21.522,3.663,47.624,4.12,48.996-.917.459-.916,0-1.373-.457-2.289-4.121-5.953-25.645-10.531-38.008-11.906-13.737-1.373-27.017-3.662-39.839-5.952-8.7-1.374-17.858-3.206-26.559-4.58-5.953-.915-11.448.917-17.401,2.748-4.121,1.374-8.7,2.747-12.822,3.206-11.448,1.373-23.811-.459-35.717-2.289-3.663-.459-7.326-.917-10.99-1.374-48.539-5.496-93.416-42.587-129.592-72.811l-.458-.457c-7.783-6.411-16.942-9.617-26.559-13.28-5.495-1.831-10.989-4.12-16.485-6.868-25.644-12.822-47.166-36.634-65.94-57.698l-2.289-2.289c-15.112-16.486-24.729-37.092-33.887-56.782-4.579-10.074-9.616-20.607-15.111-30.223-35.261-61.819-58.614-120.433-73.726-184.084-2.289-10.533-5.494-21.065-8.7-31.597-6.868-23.812-14.195-48.082-14.195-72.809s7.785-49.914,15.569-74.185c2.289-7.326,4.58-14.194,6.41-21.521.459-1.373.916-2.747,1.374-4.58,2.748-11.905,7.785-31.596,20.606-33.428,16.485-2.748,27.934,11.907,37.091,23.354,1.833,2.291,3.665,4.58,5.496,6.411,1.374,1.374,3.206,4.122,5.952,6.87,20.148,23.812,74.184,87.463,96.164,103.031,1.374.915,1.374,2.748.915,3.663-.915,1.374-2.746,1.374-3.663.916-22.896-16.027-76.931-79.679-97.536-103.947-2.748-3.206-4.58-5.496-5.952-6.87-1.833-1.831-3.665-4.578-5.496-6.868-8.7-10.989-18.316-23.811-32.054-21.522-9.159,1.374-13.738,19.69-16.027,29.308-.458,1.831-.917,3.663-1.374,5.037-1.832,6.868-4.122,14.195-6.411,21.521-7.785,23.812-15.568,48.54-15.568,72.352s7.326,48.083,14.194,70.978c3.206,10.533,6.411,21.522,8.701,32.055,14.652,63.193,38.006,121.35,73.267,182.709,5.495,10.075,10.532,20.608,15.57,30.682,9.157,19.232,18.316,39.381,32.969,55.408l2.29,2.29c18.317,20.607,39.382,43.96,64.567,56.324,5.037,2.289,10.532,4.58,15.569,6.41,9.615,3.664,19.69,7.327,28.391,14.196l.458.457c35.718,29.765,79.679,66.399,126.386,71.436,3.663.458,7.326.915,10.991,1.374,11.446,1.374,23.354,3.204,34.343,2.289,4.121-.458,7.785-1.832,11.906-3.205,6.41-2.29,12.821-4.122,19.69-3.206,9.159,1.374,18.318,2.748,27.019,4.579,12.821,2.289,25.644,4.58,39.381,5.954,3.663.457,35.26,3.662,42.128,14.194,1.374,2.289,1.833,4.579.916,7.327-1.374,7.326-11.905,8.7-23.354,8.7Z"/>
      <path class="cls-10" d="m1605.009,1551.89c-1.374,0-2.289-.915-2.747-1.831-3.664-10.99-2.747-20.608,2.29-28.391,11.447-19.233,43.044-24.729,62.277-27.934,3.662-.459,6.41-1.374,9.157-1.832.917-.457,2.748-.457,4.579-.916,5.037-.916,19.692-3.205,19.692-7.326,0-1.374,1.373-2.748,2.746-2.748s2.748,1.374,2.748,2.748c0,8.7-14.653,10.989-24.27,12.363-1.832.459-3.206.459-4.579.916-2.29.458-5.495.916-9.158,1.832-17.859,3.205-48.081,8.7-58.614,25.643-4.122,6.869-4.579,14.654-1.374,23.812.459,1.373-.457,3.206-1.831,3.663h-.917Z"/>
      <path class="cls-10" d="m1586.692,959.342c-1.374,0-2.747-1.373-2.747-2.747,0-32.513,6.411-92.501,49.913-128.677,1.374-.915,2.748-.915,3.663.459.916,1.374.916,2.748-.458,3.663-41.67,34.802-47.623,92.957-47.623,124.555,0,1.831-1.374,2.747-2.748,2.747Z"/>
      <path class="cls-10" d="m1043.599,1049.094c-1.372,0-2.747-1.373-2.747-2.747,0-43.502,22.437-78.763,44.419-112.648,5.494-8.701,11.448-17.858,16.942-27.018,15.111-25.645,32.971-56.324,48.539-87.463,2.748-5.037,5.038-10.531,7.327-16.027,5.495-13.279,11.448-27.017,21.522-37.549,17.859-17.858,49.914-33.886,71.894-41.213,1.374-.457,3.206.459,3.663,1.833.458,1.373-.457,3.205-1.831,3.663-21.522,7.327-52.661,22.895-69.603,40.296-9.616,9.618-15.112,22.896-20.607,35.719-2.289,5.494-4.579,11.448-7.326,16.485-15.569,31.596-33.429,62.277-48.997,87.92-5.495,9.159-11.448,18.316-16.943,27.018-22.438,34.802-43.503,67.314-43.503,109.442,0,.917-.915,2.29-2.748,2.29Z"/>
      <path class="cls-10" d="m852.188,1300.95c-.915,0-1.373-.459-1.831-.916-21.981-21.98-.917-52.661,14.653-75.1,3.664-5.494,7.327-10.989,10.075-15.111,5.494-10.074,11.905-20.147,17.859-29.765,7.783-12.82,16.025-26.102,22.895-39.381,5.037-9.158,9.616-18.774,13.737-28.391,9.616-21.065,19.232-43.045,36.176-59.987,13.279-13.279,32.97-20.608,52.203-27.934,9.159-3.664,17.401-6.868,24.727-10.532,1.374-.915,3.205,0,3.663,1.374.459,1.374,0,3.205-1.374,3.663-7.783,3.664-16.026,7.327-25.185,10.532-18.776,7.326-38.008,14.652-49.913,27.017-16.028,16.028-26.102,37.55-35.261,58.157-4.121,9.615-8.7,19.231-13.737,28.849-7.327,13.279-15.568,26.559-23.353,39.381-5.954,9.616-11.907,19.69-17.401,29.765-2.748,4.579-6.411,10.074-10.075,15.568-15.111,21.981-34.345,48.998-15.111,68.231.915.915.915,2.746,0,3.663-1.374.457-1.831.916-2.748.916Z"/>
      <path class="cls-10" d="m1679.65,722.597c-1.374,0-2.748-1.374-2.748-2.748,0-3.205-12.82-5.496-16.942-5.953-3.205-.458-4.579-.915-5.496-1.373-3.204-1.374-3.663-4.579-4.12-6.411,0-.916-.458-1.831-.458-2.29-1.374-.916-3.663.458-6.87,2.29-2.746,1.833-5.952,3.663-8.699,2.748-3.206-.915-4.121-4.122-4.58-5.953-.457-2.291-.915-2.748-1.83-3.206-.459,0-2.748.458-4.122.458-5.037.916-9.159,1.831-10.99-1.374-.915-1.833-1.374-3.663-1.374-5.496s0-2.289-.915-3.205c-.917-.916-.917-2.748,0-3.664.915-.916,2.746-.916,3.663,0,2.289,2.29,2.289,4.579,2.289,6.868,0,.917,0,1.832.459,2.291,1.372,0,3.662-.458,5.494-.917,3.206-.457,5.037-.916,6.869-.457,4.121.915,5.037,4.579,5.494,6.868,0,.916.459,1.832.917,2.289.916,0,3.205-1.373,4.579-2.289,3.663-2.29,8.7-5.495,13.279-1.831,1.832,1.374,2.289,4.12,2.748,5.953,0,.916.458,2.29.458,2.29.457,0,2.748.459,4.579.916,8.7,1.374,21.523,3.206,21.523,11.448-.458,1.374-1.832,2.748-3.206,2.748Z"/>
      <path class="cls-10" d="m1127.857,836.619c-.459,0-.917,0-1.374-.457-1.374-.459-1.832-2.291-1.374-3.665,1.374-2.746,2.748-5.494,3.663-8.242,4.12-9.159,8.701-19.233,16.027-25.185,1.374-.916,1.374-3.663,1.374-6.411,0-3.663,0-8.242,3.663-10.99,1.832-1.373,3.663-.915,4.579-.457,1.374-2.748,2.748-5.037,3.663-7.326,2.289-5.954,4.122-10.533,14.653-14.655,2.291-.916,2.748-2.746,3.206-6.411,0-2.747.458-6.41,3.206-8.242,2.289-1.831,6.41-1.831,12.364,0,1.372.458,2.289,1.832,1.831,3.205-.459,1.374-1.831,2.291-3.205,1.833-5.496-1.374-7.328-.916-7.328-.459-.457.459-.916,2.291-.916,4.122-.457,3.663-.457,9.159-6.41,11.448-8.242,3.205-9.158,5.953-11.447,11.448-.917,2.289-2.289,5.494-4.58,9.157-.457.917-2.289,3.207-5.494,1.374-.917,1.374-.917,3.206-.917,6.411,0,3.663,0,7.785-3.663,10.533-6.411,5.494-10.531,14.653-14.653,23.353-1.374,2.748-2.748,5.952-4.122,8.242-.915.917-1.831,1.374-2.746,1.374Z"/>
      <path class="cls-10" d="m1870.145,974.452h-.458c-1.372-.457-2.289-1.831-2.289-3.205.917-4.578-.916-6.411-3.663-8.7-1.831-1.831-4.121-4.121-4.579-7.326-1.374-5.037-3.205-7.785-5.953-10.533-1.832-2.289-3.206-4.12-5.037-7.326-.917-2.29-.917-4.579-.458-6.868,0-2.748.458-4.122-.459-5.037-2.289-2.29-3.204-2.29-4.12-2.29h0c-3.663,0-4.579-2.29-6.869-10.074-.457-1.374.458-3.206,1.832-3.663,1.374-.458,3.205.457,3.663,1.831.457,1.374,1.831,5.037,2.29,6.411,1.832,0,3.663.458,7.326,3.205,3.206,2.747,2.748,6.869,2.289,9.617,0,1.374-.457,3.205,0,3.663,1.374,2.748,2.748,4.579,4.122,6.411,2.748,3.205,5.037,6.409,6.868,12.82.458,1.833,1.832,3.207,3.206,4.581,2.748,2.746,6.411,6.409,5.037,13.737-.458,1.831-1.374,2.746-2.748,2.746Z"/>
      <path class="cls-10" d="m945.147,1064.205h0c-1.375,0-2.748-1.374-2.748-2.748,0-4.12,4.579-9.616,11.447-17.401,1.832-1.83,3.206-3.663,4.122-4.578,2.289-3.205,5.952-1.374,7.784-.916.457,0,.916.457,1.374.457,1.374-1.372,2.289-3.204,3.205-5.035,1.832-3.206,3.663-7.328,7.326-8.701,2.748-1.373,5.496,0,7.328.916,1.373.457,1.831.915,2.289.915,1.831-.915,2.29-2.289,2.747-4.578.917-3.207,2.291-8.244,10.989-6.411,1.376.458,2.291,1.831,2.291,3.204-.458,1.374-1.832,2.29-3.206,2.29-4.12-.916-4.12-.457-5.037,2.291-.457,2.289-1.831,5.952-5.953,7.783-2.747,1.374-5.495,0-7.326-.915-1.374-.916-2.289-.916-2.748-.916-1.831.916-3.204,3.663-4.578,6.411-1.374,2.746-2.748,5.494-5.496,7.326-2.289,1.831-5.037.457-6.409-.458-.459,0-.917-.457-1.376-.457-.915,1.372-2.289,2.746-4.12,4.579-3.206,3.204-10.074,11.448-10.074,13.737.915,1.831-.459,3.205-1.831,3.205Z"/>
      <path class="cls-10" d="m903.933,1647.595h-.915c-1.374-.457-2.289-2.289-1.374-3.663,8.701-21.522,16.028-44.418,23.355-66.856,14.194-43.96,28.848-89.294,54.492-127.759,38.465-57.698,114.021-66.398,180.877-73.726,12.364-1.374,24.27-2.748,35.261-4.579,20.607-3.206,41.213-8.7,61.361-13.737,7.327-1.832,14.653-4.122,21.98-5.952,1.374-.459,2.748.457,3.207,1.83.457,1.374-.459,2.748-1.833,3.207-7.326,1.83-14.652,3.663-21.98,5.952-20.148,5.494-41.213,10.99-61.818,14.194-11.448,1.833-22.896,3.207-35.719,4.58-65.482,7.327-139.666,16.027-176.758,71.435-25.186,37.549-39.839,82.426-53.576,126.387-7.327,22.438-14.653,45.791-23.354,67.314-1.373.915-2.289,1.372-3.206,1.372Z"/>
      <path class="cls-10" d="m1630.195,1507.472c-.916,0-1.832-.458-2.289-1.374-.916-1.374-.459-2.746.915-3.663,9.159-5.952,23.811-36.176,28.391-47.624.458-1.373,2.291-2.289,3.663-1.373,1.374.457,2.29,2.29,1.374,3.664-3.205,8.242-18.774,42.128-30.222,49.912-.917.458-1.374.458-1.832.458Z"/>
      <path class="cls-10" d="m1119.157,1654.923c-.459,0-1.374,0-1.833-.458-1.374-.916-1.374-2.748-.457-3.664,5.037-6.411,10.073-14.195,15.568-22.896,16.027-23.812,33.887-51.287,55.408-61.818,27.476-13.279,67.772-7.785,103.033-3.205,12.363,1.831,24.268,3.205,34.344,4.12,84.715,5.037,183.168,7.785,272.462-17.401,1.374-.458,3.205.459,3.205,1.833.458,1.374-.457,3.205-1.831,3.205-90.211,25.644-188.662,22.438-274.295,17.4-10.531-.458-22.438-2.289-34.802-4.12-34.802-4.58-74.183-10.074-99.825,2.746-20.607,10.074-38.009,36.635-53.577,59.988-5.495,8.242-10.991,16.485-16.026,22.897-.002.916-.459,1.374-1.374,1.374Z"/>
      <path class="cls-10" d="m625.977,1628.821c-1.374,0-2.748-.917-2.748-2.291-2.289-21.979-6.411-44.876-10.99-68.686-11.906-65.025-24.27-131.881-2.29-190.953,11.906-32.055,59.53-42.587,82.426-47.624,66.397-14.653,217.512-25.185,308.179-24.27,25.644,0,70.52-2.748,99.369-6.869,1.374,0,2.748.917,3.205,2.291.458,1.372-.916,2.746-2.29,3.204-29.306,4.122-74.183,6.868-100.284,6.868-90.667-.457-240.866,9.618-306.805,24.27-22.438,5.037-67.773,15.111-78.763,44.418-21.523,57.698-9.159,124.098,2.747,188.205,4.579,24.27,8.701,47.166,10.99,69.145,0,.917-.916,2.291-2.748,2.291h0Z"/>
      <path class="cls-10" d="m896.606,1496.939c-39.38,0-81.967-3.662-101.658-5.953-1.374,0-2.748-1.374-2.29-3.205.458-1.832,1.374-2.748,3.207-2.289,31.595,3.663,122.263,10.99,161.646.915,1.372-.458,2.746.459,3.204,1.833.459,1.372-.458,2.746-1.832,3.205-15.568,4.121-38.007,5.494-62.277,5.494Z"/>
      <path class="cls-10" d="m788.538,1613.251c-1.374,0-2.289-.915-2.746-2.289-2.291-9.159-1.375-21.523-.458-32.054,0-3.664.458-6.87.458-10.074,1.372-38.466,2.289-78.305-6.869-117.686-.458-1.374.458-2.748,1.832-3.205,1.373-.458,2.747.457,3.205,2.289,9.159,39.839,7.785,80.137,6.869,119.06,0,3.206-.458,6.41-.458,10.074-.458,10.532-1.374,21.979.458,30.682.457,1.372-.458,2.746-1.832,3.204h-.458Z"/>
      <path class="cls-10" d="m1221.273,1099.924c-32.972,0-81.511-5.496-81.511-20.607s48.998-20.605,81.511-20.605c32.969,0,81.509,5.494,81.509,20.605s-48.998,20.607-81.509,20.607Zm0-35.261c-46.25,0-76.016,8.7-76.016,15.111s29.766,15.112,76.016,15.112,76.013-8.701,76.013-15.112-29.765-15.111-76.013-15.111Z"/>
      <path class="cls-10" d="m1227.683,1279.886h-1.831c-28.849-.459-48.998-8.242-55.409-21.064-2.289-5.037-5.037-11.448-7.326-18.774-.457-1.374.458-3.205,1.832-3.663,1.374-.459,3.205.458,3.663,1.83,2.29,6.87,4.579,13.281,6.869,17.859,5.495,11.448,23.811,17.859,50.371,18.316,27.934,0,49.914-7.783,53.118-20.147,20.607-77.848,18.316-168.516,17.859-174.012v-.457c0-.916.457-2.289,1.374-2.747.916-.459,2.29-.459,2.748.458,0,0,.457.916.457,2.289h.459c0,.457,0,.916-.459.916,1.832,17.859.916,104.864-17.857,174.925-2.748,14.654-25.187,24.27-55.868,24.27Z"/>
      <path class="cls-10" d="m1144.8,1107.707c-1.374,0-2.748-.915-2.748-2.289-.915-7.785-1.374-14.653-1.831-19.232,0-2.747-.458-4.58-.458-5.495v-.916c0-3.206,2.289-3.206,2.748-3.206q2.747,0,3.663,9.617c.458,4.579.915,10.99,1.831,19.232-.457.915-1.831,2.289-3.205,2.289h0Z"/>
      <path class="cls-10" d="m1131.062,1206.618h-.459c-27.475-6.869-66.855-23.811-87.92-49.454-.916-1.374-.916-2.748.458-3.665,1.374-.916,2.747-.916,3.664.458,20.148,24.727,58.155,40.755,84.715,47.166,1.374.458,2.289,1.832,1.831,3.206,0,1.374-1.374,2.289-2.289,2.289Z"/>
      <path class="cls-10" d="m1197.461,1240.047c-8.243,0-16.485-.916-19.233-.916-29.765-3.206-48.996-26.101-48.996-57.698,0-1.374,1.372-2.748,2.746-2.748s2.748,1.374,2.748,2.748c0,28.85,17.4,49.455,44.419,52.203,13.736,1.374,35.259,1.831,38.922-2.748,0,0,.459-.457,0-1.374-2.289-5.494-32.512-14.653-42.128-17.4-2.748-.916-5.037-1.374-6.411-1.831-1.374-.459-2.289-1.833-1.831-3.664.457-1.832,1.831-2.289,3.663-1.832,1.373.459,3.664,1.374,6.41,1.832,26.559,7.785,43.045,14.195,45.793,20.606.915,2.289.915,5.037-.917,6.869-3.662,5.037-14.653,5.953-25.184,5.953Z"/>
      <path class="cls-10" d="m1209.366,1216.693c-2.289,0-4.579,0-7.326-.459-19.233-1.374-36.635-7.326-53.118-18.774-10.533-7.327-19.69-19.69-12.822-30.224.915-1.372,2.748-1.831,3.663-.915,1.374.915,1.832,2.748.915,3.663-6.409,9.617,9.616,21.522,11.448,22.896,15.569,10.99,31.598,16.942,50.371,17.858,17.4,1.374,18.776-2.29,18.776-2.29,0,0,.457-3.204-13.281-11.905-5.952-3.663-10.989-6.869-16.942-9.158-3.663-1.374-7.326-3.205-11.448-5.037-1.374-.457-1.832-2.29-1.374-3.664.459-1.374,2.29-1.831,3.663-1.374,3.664,1.833,7.785,3.664,10.99,5.038,5.954,2.29,11.448,5.495,17.859,9.617,12.363,7.326,16.942,13.279,15.568,18.316-.915,4.121-6.409,6.411-16.942,6.411Z"/>
      <path class="cls-10" d="m1206.618,1183.265h-4.578c-17.401-1.373-34.802-5.954-54.951-15.111-6.411-2.748-14.196-9.159-16.485-18.317-1.372-6.41,0-12.821,5.037-18.775.917-1.372,2.748-1.372,3.665-.457,1.372.916,1.372,2.748.457,3.663-3.663,4.579-5.037,9.159-3.663,14.196,1.374,6.41,7.785,11.905,13.279,14.653,19.232,8.7,36.176,13.279,52.661,14.653,10.531.915,15.111-1.374,15.568-2.748,0-.457-.915-3.205-7.783-8.242-2.291-1.374-4.581-3.206-6.411-4.58-1.833-1.372-4.122-3.205-5.953-4.578-7.328-4.579-16.485-8.701-25.186-11.906l-.459-.458c-1.374-.458-2.289-2.289-1.374-3.663.459-1.374,2.29-2.289,3.665-1.374l.457.458c8.7,3.664,18.316,7.327,26.102,12.364,2.289,1.374,4.121,3.205,6.411,4.579,1.832,1.832,4.122,3.204,5.952,4.578,8.244,5.496,11.448,10.074,10.074,14.654-1.373,5.495-9.615,6.411-16.485,6.411Z"/>
      <path class="cls-10" d="m1191.966,1145.715c-16.485,0-45.334-10.074-48.081-11.448-7.785-3.663-12.822-8.7-13.281-14.195-.457-5.037,2.289-10.075,8.701-14.653,1.373-.916,2.747-.457,3.663.458.917,1.374.458,2.748-.457,3.663-3.206,2.29-6.87,5.953-6.411,9.616.458,3.663,4.121,6.87,10.074,10.074,10.533,5.037,47.624,14.196,50.829,10.075h0s0-2.29-7.785-8.701c-2.29-1.832-5.494-3.663-8.242-5.037-1.374-.458-2.748-1.374-4.122-2.289-2.289-1.374-5.037-2.748-8.242-4.122-5.495-2.748-11.447-5.037-15.569-8.7-1.373-.916-1.373-2.748-.457-3.663.915-.916,2.746-1.374,3.663-.459,3.663,3.206,9.157,5.496,14.194,8.244,3.207,1.373,5.954,2.747,8.702,4.12,1.373.458,2.289,1.374,3.662,1.832,3.206,1.832,6.411,3.205,9.617,5.953,5.953,5.037,11.905,10.989,8.7,16.026-.458,2.291-4.58,3.206-9.158,3.206Z"/>
      <path class="cls-10" d="m987.732,1193.338c-.915,0-1.373,0-1.83-.457-6.87-4.122-6.411-15.57-5.953-21.979.916-18.775,8.699-38.924,23.354-62.277,30.681-47.167,65.023-64.109,125.929-61.361,8.699.458,16.026,3.204,23.353,5.952,5.952,2.289,11.448,4.579,16.942,5.037,1.374,0,2.748,1.374,2.289,3.205,0,1.374-1.374,2.748-3.205,2.291-6.41-.917-12.363-3.206-18.316-5.496-7.327-2.748-13.737-5.494-21.522-5.952-58.613-2.29-91.583,13.737-120.891,59.07-14.196,21.981-21.979,42.129-22.438,59.072,0,4.579-.457,13.279,2.748,16.486,1.832-3.207,5.494-13.281,8.242-24.271,5.037-16.943,11.448-32.055,18.774-47.624,1.374-2.747,2.748-5.953,4.122-9.158.458-1.374,2.289-1.832,3.663-1.374,1.374.459,1.832,2.29,1.374,3.664-1.374,3.204-2.748,5.952-4.122,9.158-6.868,15.569-13.737,30.222-18.316,46.707-2.747,11.906-7.326,26.561-11.905,28.85-1.375.457-1.832.457-2.291.457Z"/>
      <path class="cls-10" d="m1264.775,1063.748c-.458,0-1.374,0-1.832-.917-.916-.916-1.374-2.746,0-3.663,10.532-11.905,14.195-29.765,17.4-45.792.459-3.205,1.374-5.953,1.833-8.7,8.241-37.55,14.652-70.978,19.231-103.032,0-1.374,1.832-2.748,3.206-2.289,1.374,0,2.747,1.831,2.29,3.205-4.58,32.054-10.99,65.941-19.233,103.49-.459,2.747-1.374,5.495-1.831,8.7-3.206,16.485-7.327,35.717-18.775,48.539-.915.459-1.373.459-2.289.459Z"/>
      <path class="cls-10" d="m1178.228,1059.626c-.458,0-1.374,0-1.831-.458-10.074-8.242-27.018-10.531-43.045-12.821-27.933-4.121-57.24-8.243-55.866-43.045,0-1.374,1.374-2.748,2.748-2.748s2.748,1.374,2.748,2.748c-.916,29.765,23.353,33.428,51.287,37.091,16.942,2.291,34.343,5.037,45.792,14.196,1.373.915,1.373,2.748.457,3.663-.457,1.374-1.373,1.374-2.29,1.374Z"/>
      <path class="cls-10" d="m1089.85,1239.588c-19.232,0-37.092-15.568-44.877-33.885-14.652-33.887-.457-79.221,18.775-107.153,15.111-21.982,49.455-27.019,75.558-27.476,1.372-.458,2.746,1.374,2.746,2.748s-1.374,2.746-2.746,2.746c-24.729.459-57.24,5.037-70.979,25.186-19.231,27.475-31.596,71.436-18.316,102.116,7.327,16.943,27.934,37.091,50.372,28.849,14.194-5.037,27.933-14.652,37.092-21.522,1.374-.915,2.747-.458,3.663.459.915,1.373.458,2.747-.459,3.663-9.615,6.868-23.811,16.485-38.465,21.98-4.122,1.832-8.242,2.289-12.363,2.289Z"/>
      <path class="cls-10" d="m1610.047,1519.377c-.916,0-2.29-.457-2.748-1.831-8.242-20.148-44.418-55.409-61.819-71.893l-3.663-3.663c-44.876-43.961-107.611-80.596-176.299-103.49-50.83-16.944-104.405-22.897-155.235-27.934l-5.953-.916c-28.391-2.748-81.509-7.785-105.321-20.148-1.374-.916-1.832-2.29-.917-3.664.917-1.373,2.291-1.83,3.665-.915,22.895,12.363,75.098,16.942,103.488,19.69l5.955.458c51.285,5.038,105.32,10.99,156.607,28.392,69.605,23.354,132.797,60.444,178.589,104.863l3.663,3.664c17.859,16.941,54.493,52.659,63.192,73.725.459,1.373,0,3.205-1.372,3.662-.917-.457-1.374,0-1.832,0Z"/>
      <path class="cls-10" d="m1184.181,613.154c-6.868,0-13.738-6.87-18.316-11.448l-1.374-1.374c-10.99-10.99-18.316-28.849-19.69-47.624,0-2.746-.458-5.953-.458-9.157,0-9.618,0-18.775-5.953-26.101-.915-1.374-.915-2.748.459-3.663,1.373-.917,2.747-.917,3.663.457,6.868,8.7,6.868,19.233,7.326,29.308,0,2.746,0,5.953.458,8.7,1.374,17.401,7.784,34.344,17.858,44.418l1.374,1.374c4.122,4.122,10.99,10.99,16.027,9.616,1.373-.457,2.747.458,3.206,1.833.458,1.374-.459,2.746-1.833,3.205-.915.459-1.83.459-2.747.459Z"/>
      <path class="cls-10" d="m1156.707,503.711c-.917,0-1.376-.459-1.833-.916-.915-.917-.915-2.748,0-3.665,8.7-8.7,13.279-20.606,17.858-33.428,3.664-10.532,7.785-21.065,14.195-29.765,7.327-9.616,16.486-16.943,25.644-23.811,9.616-7.328,19.69-14.654,26.559-25.644.916-1.374,2.748-1.831,3.663-.916,1.374.916,1.833,2.748.917,3.663-7.785,11.448-17.859,19.232-27.934,27.017-9.159,6.87-17.859,13.738-24.728,22.896-5.952,8.242-9.616,18.316-13.737,28.391-4.58,12.822-9.616,26.102-19.233,35.26,0,.457-.457.916-1.372.916Z"/>
      <path class="cls-10" d="m1252.869,397.474c-.916,0-1.374-.457-1.831-.915-.917-.916-.917-2.748,0-3.663,13.279-13.279,36.633-18.775,61.818-14.196,2.748.458,5.496.917,8.242,1.832,6.411,1.831,12.365,3.205,17.859,1.831,1.374-.457,2.748.458,3.205,1.833.458,1.374-.457,2.748-1.831,3.205-6.868,1.832-14.196-.457-20.607-1.831-2.746-.916-5.494-1.374-7.783-1.833-23.812-4.12-45.335.917-57.24,12.822-.459.458-.917.915-1.832.915Z"/>
      <path class="cls-10" d="m1392.076,817.387c-3.205,0-5.953-.458-8.7-1.374-1.374-.458-2.29-2.289-1.374-3.663.458-1.374,2.291-2.291,3.664-1.374,17.401,6.868,52.203-17.859,63.193-33.428.915-1.374,2.746-1.374,3.663-.917,1.372.917,1.372,2.748.915,3.664-9.615,13.281-39.38,37.092-61.361,37.092Z"/>
      <path class="cls-10" d="m656.2,1331.63c-1.374,0-2.289-.915-2.748-2.289-7.327-32.513-10.99-66.856-15.111-103.947-5.953-53.577-11.905-109.443-29.765-156.151-6.411-16.942-15.569-32.513-24.27-48.081-11.906-21.065-24.269-42.587-30.222-66.857l-.916-3.205c-3.663-13.737-10.074-38.924,3.206-49.913,18.316-15.111,45.792-2.29,68.23,8.243,9.159,4.12,18.316,8.242,24.727,9.616,45.335,9.615,95.248,3.205,143.788-3.206,29.765-3.664,60.445-7.784,88.835-7.784h27.017c52.203.457,97.079.916,148.825-18.774l1.374-.459c11.447-4.121,30.224-11.448,42.587-5.952,4.579,2.289,7.783,5.495,10.074,10.531.457,1.374,0,3.206-1.375,3.665-1.373.457-3.205,0-3.662-1.374-1.375-3.664-3.664-6.411-6.869-7.785-10.531-4.579-27.934,2.289-38.007,5.952l-1.374.459c-52.661,20.149-97.996,19.69-150.656,19.231h-27.018c-28.391,0-57.24,3.663-88.378,7.785-48.997,6.411-99.368,12.822-145.619,3.205-7.327-1.373-16.484-5.953-26.101-10.073-21.98-10.074-46.707-21.523-62.277-8.7-10.532,8.7-4.58,31.596-1.373,44.418l.916,3.204c5.953,23.354,17.858,44.877,29.765,65.483,8.7,15.569,17.858,31.596,24.728,48.997,18.316,47.166,24.27,103.49,30.223,157.525,4.12,36.633,7.784,71.435,15.111,103.49.457,1.372-.459,2.746-2.291,3.204-.915-.458-1.373-.458-1.373-.458Z"/>
      <path class="cls-10" d="m1967.683,1615.084h-.917c-16.484-6.87-28.848-23.355-39.381-38.009-3.205-4.578-6.411-8.7-9.615-12.821-.917-1.373-.917-2.747.458-3.662,1.372-.917,2.746-.917,3.662.457,3.206,4.121,6.411,8.242,10.074,12.822,10.991,14.652,21.981,29.764,37.093,36.176,1.374.457,1.831,2.289,1.374,3.663-.459.457-1.833,1.374-2.748,1.374Z"/>
      <path class="cls-10" d="m2029.96,1596.766c-.917,0-1.374-.457-1.833-.915-.915-.916-.915-2.748,0-3.663,10.533-10.533,19.69-24.27,28.391-37.55,6.87-10.532,13.281-20.149,20.607-28.392,15.568-18.317,32.97-35.717,50.371-52.202,15.111-14.653,31.139-30.224,45.334-46.25,30.223-34.344,54.951-74.642,78.763-113.565,9.158-14.652,18.316-29.764,27.933-44.417,6.411-10.074,12.822-20.606,18.775-31.139,10.074-17.401,20.606-35.261,32.971-50.829,2.748-3.206,5.494-6.869,8.242-10.074,14.195-17.401,30.68-36.635,24.27-58.155-5.037-15.57-33.429-22.897-50.371-27.476-3.664-.916-6.868-1.832-9.159-2.748-24.728-7.785-56.324-9.159-87.462-10.074-42.587-1.374-86.089-2.748-113.108-21.979-21.522-15.111-38.007-27.934-51.286-48.083-3.663-5.952-7.326-12.363-10.991-19.231-8.699-16.027-17.4-32.971-31.596-41.672-17.859-10.989-56.324,12.364-69.604,24.271-15.57,14.195-25.186,21.98-31.139,27.017q-10.989,9.158-20.148,23.353l-2.748,4.58c-.915,1.374-2.289,1.831-3.663.915-1.374-.915-1.831-2.289-.915-3.663l2.747-4.579c9.157-14.654,9.616-15.111,21.064-24.729,5.952-5.037,15.568-12.821,31.139-27.017,12.82-11.448,54.492-38.466,76.015-24.728,15.111,9.615,24.27,27.017,33.428,43.961,3.664,6.868,6.868,13.278,10.531,18.774,12.822,19.231,28.393,31.596,49.914,46.707,25.645,18.316,68.689,19.69,110.359,21.065,31.138.915,63.65,2.289,88.836,10.074,2.289.916,5.037,1.374,8.7,2.289,18.316,5.037,48.54,12.822,54.494,31.139,7.783,23.812-10.533,45.792-25.186,63.193-2.748,3.663-5.495,6.869-8.243,10.074-11.905,15.569-22.438,32.971-32.513,50.372-5.952,10.531-12.363,21.063-18.773,31.139-9.617,14.652-18.776,29.765-27.934,44.417-24.27,38.924-48.998,79.222-79.678,114.023-14.196,16.484-30.224,32.054-45.792,46.707-16.944,16.485-34.345,33.428-49.913,51.744-6.87,8.244-13.279,17.859-20.149,27.934-8.7,13.279-17.859,27.476-28.849,38.466-.457.458-.916.915-1.831.915Z"/>
      <path class="cls-10" d="m1966.309,1150.753c-.916,0-1.832-.459-2.289-1.374-.917-1.374-.459-2.748.915-3.664,54.95-35.719,103.032-56.324,156.608-67.314,1.374-.459,2.748.457,3.206,2.289.457,1.374-.458,2.748-2.289,3.205-52.661,10.532-100.285,31.139-154.777,66.398-.459,0-.917.459-1.374.459Z"/>
      <path class="cls-10" d="m2067.967,1357.731c-.916,0-1.831-.457-2.29-1.372-18.774-32.972-45.792-74.184-85.174-98.912-1.372-.915-1.831-2.289-.915-3.663.915-1.374,2.289-1.831,3.663-.915,40.755,25.643,67.772,67.315,87.005,101.199.915,1.374.458,3.206-.916,3.663h-1.373Z"/>
      <path class="cls-10" d="m908.97,1079.774c-.457,0-.915,0-1.372-.458-38.466-24.27-73.269-37.55-107.153-40.755-1.374,0-2.748-1.374-2.29-3.204,0-1.374,1.373-2.748,3.205-2.291,34.802,3.663,70.519,16.943,109.901,41.671,1.374.916,1.831,2.29.916,3.664-1.374.915-2.29,1.373-3.207,1.373Z"/>
      <path class="cls-10" d="m797.238,1239.131c-.457,0-1.372-.458-1.831-.917-.917-.915-.917-2.746,0-3.663,19.232-20.147,29.765-31.139,36.633-38.922q12.364-13.28,30.223-27.476c3.663-2.748,8.243-6.411,13.738-10.989,1.373-.917,2.748-.917,3.663.457.917,1.373.917,2.747-.458,3.663-5.494,4.58-10.073,7.785-13.736,10.991q-17.401,13.736-29.765,26.559c-6.87,7.326-17.401,18.774-36.634,38.923-.458.916-1.374,1.374-1.832,1.374Z"/>
      <path class="cls-10" d="m2394.464,1021.618h0c-93.416-12.364-255.062-20.147-343.44-23.81-1.373,0-2.747-1.374-2.747-2.748s1.374-2.748,2.747-2.748c88.379,3.663,250.483,11.448,343.44,23.812,1.374,0,2.746,1.374,2.289,3.204.457.917-.915,2.29-2.289,2.29Z"/>
      <path class="cls-10" d="m1906.779,993.227h0c-15.111-.457-29.765-.457-43.502-.916-1.374,0-2.748-1.374-2.748-2.748s1.374-2.747,2.748-2.747h0c13.737.458,27.932.458,43.502.917,1.374,0,2.746,1.373,2.746,2.747s-.915,2.747-2.746,2.747Z"/>
      <path class="cls-10" d="m2230.527,1597.225h-.915c-31.139-9.159-140.582-24.27-175.384-27.934-1.374,0-2.748-1.373-2.289-3.205,0-1.374,1.374-2.748,3.206-2.289,31.138,3.204,142.412,18.316,176.299,27.932,1.372.459,2.289,1.832,1.831,3.206-.459,1.374-1.373,2.29-2.748,2.29Z"/>
      <path class="cls-10" d="m1681.483,1754.291c-.458,0-.917,0-1.374-.458-46.25-27.935-220.26-72.809-531.187-136.919-1.374-.458-2.29-1.83-2.29-3.204.457-1.374,1.831-2.291,3.205-2.291,315.965,65.024,485.396,108.527,532.562,137.376,1.373.916,1.832,2.29.915,3.664,0,1.374-.915,1.832-1.831,1.832Z"/>
      <path class="cls-10" d="m924.54,1572.038h-.458l-134.629-26.101c-1.373-.459-2.29-1.832-2.29-3.205.458-1.374,1.832-2.29,3.207-2.29l134.629,26.101c1.372.458,2.289,1.832,2.289,3.206-.458,1.374-1.374,2.289-2.748,2.289Z"/>
      <path class="cls-10" d="m596.212,1474.959h-.458c-21.064-4.578-35.717-8.242-43.96-10.989-1.374-.459-2.29-1.831-1.832-3.663.458-1.375,1.832-2.29,3.663-1.832,8.243,2.747,22.438,6.41,43.502,10.99,1.373.457,2.289,1.831,2.289,3.205-.915,1.374-1.83,2.289-3.205,2.289Z"/>
      <path class="cls-10" d="m495.469,1618.289c-1.374,0-2.748-1.375-2.748-2.748-.458-34.344-3.206-75.557-5.953-119.518-7.327-115.854-14.654-235.371,10.074-261.014,7.327-7.785,53.577-18.775,137.834-32.513,1.374-.459,2.748.915,3.205,2.289.458,1.374-.916,2.748-2.29,3.206-112.647,18.317-131.881,27.476-134.628,30.681-23.355,23.811-15.569,147.907-8.701,256.894,2.748,43.959,5.495,85.172,5.953,119.517,0,1.83-1.374,3.205-2.748,3.205h0Z"/>
      <path class="cls-10" d="m361.298,1662.249c-1.373,0-2.747-1.374-2.747-2.747-.459-31.598-2.748-74.642-5.495-119.977-7.328-138.748-16.028-295.815,9.616-322.375,10.991-10.99,149.74-32.055,264.22-47.166,1.374,0,2.748.915,3.206,2.289,0,1.374-.917,2.748-2.29,3.207-156.15,21.064-253.687,38.006-261.014,45.791-23.811,24.728-15.111,187.29-8.242,318.254,2.29,45.335,4.579,88.379,5.495,120.434,0,.916-1.374,2.29-2.748,2.29h0Z"/>
      <path class="cls-10" d="m519.281,1636.148c-1.373,0-2.747-1.375-2.747-2.748,0-10.074-.458-21.981-1.374-33.887-2.748-50.372-5.953-113.106,29.307-148.366,8.7-8.7,31.139-16.027,48.54-20.606,1.374-.458,2.747.459,3.205,1.831.458,1.374-.458,2.748-1.831,3.206-23.354,6.412-39.839,13.279-45.792,19.232-33.428,33.43-30.223,94.789-27.933,144.244.457,12.365,1.374,23.812,1.374,34.346,0,1.373-1.374,2.748-2.748,2.748Z"/>
      <path class="cls-10" d="m1726.816,1640.267h-.915l-125.013-54.033c-.916-.459-1.831-1.832-1.831-2.748,0-1.373.915-2.289,2.289-2.289l77.389-10.533h1.374l113.565,44.42c.916.457,1.831,1.373,1.831,2.748s-.915,2.289-1.831,2.746l-66.398,20.148q0-.459-.459-.459Zm-114.937-55.407l114.937,49.455,57.698-17.859-105.779-41.212-66.855,9.616Z"/>
      <path class="cls-10" d="m1643.475,1594.476c-5.494,0-9.158-2.748-9.158-6.411s4.121-7.784,9.158-7.784c4.58,0,9.615,3.664,9.615,7.784-.457,3.663-4.12,6.411-9.615,6.411Zm-3.664-6.868c.459.457,1.833.915,3.664.915,2.289,0,3.663-.915,3.663-.915,0,0-1.831-1.833-4.12-1.833-1.374,0-2.748,1.375-3.207,1.833Z"/>
      <path class="cls-10" d="m1678.276,1589.897c-5.494,0-9.157-2.747-9.157-6.411s4.12-7.785,9.157-7.785c4.58,0,9.617,3.664,9.617,7.785-.458,3.664-4.58,6.411-9.617,6.411Zm-4.12-6.411c.457.459,1.83.916,3.663.916,2.289,0,3.663-.916,3.663-.916,0,0-1.832-1.832-4.122-1.832-1.374,0-2.747.917-3.204,1.832Z"/>
      <path class="cls-10" d="m1674.156,1609.588c-5.954,0-10.533-3.206-10.533-6.868,0-4.122,4.579-8.702,10.533-8.702s10.989,4.58,10.989,8.702-4.58,6.868-10.989,6.868Zm-5.037-6.868c.457.457,2.289,1.831,5.037,1.831,3.204,0,5.037-1.374,5.037-1.831,0-.917-2.29-3.206-5.496-3.206-2.289,0-4.578,2.289-4.578,3.206Z"/>
      <path class="cls-10" d="m1708.958,1602.72c-5.954,0-10.533-3.206-10.533-6.869,0-4.122,4.579-8.7,10.533-8.7,5.494,0,10.989,4.121,10.989,8.7-.458,4.122-5.037,6.869-10.989,6.869Zm-5.496-6.869c.459.458,2.29,1.832,5.037,1.832,3.206,0,5.037-1.374,5.037-1.832,0-.916-2.289-3.205-5.495-3.205-2.289,0-4.12,2.289-4.579,3.205Z"/>
      <path class="cls-10" d="m1711.704,1627.447c-6.409,0-11.446-3.206-11.446-7.326s5.037-9.159,10.989-9.159,11.447,5.037,11.447,9.159c.458,4.12-4.579,7.326-10.99,7.326Zm-5.494-7.326c0,.457,2.289,1.83,5.952,1.83s5.496-1.373,5.953-1.83c0-.917-2.748-3.665-5.953-3.665-3.663,0-5.952,2.291-5.952,3.665Zm0,0h0Z"/>
      <path class="cls-10" d="m1750.171,1617.83c-6.411,0-11.448-3.205-11.448-7.326s5.037-9.158,10.989-9.158,11.448,5.036,11.448,9.158-4.58,7.326-10.989,7.326Zm-5.954-7.783c0,.457,2.291,1.83,5.952,1.83s5.496-1.373,5.954-1.83c0-.917-2.747-3.664-5.954-3.664-3.661.457-5.952,2.747-5.952,3.664Zm0,0h0Z"/>
      <path class="cls-10" d="m1807.868,1641.185c-8.242,0-14.195-4.122-14.195-9.159s5.953-9.159,14.195-9.159,14.195,4.122,14.195,9.159-6.411,9.159-14.195,9.159Zm0-12.822c-5.496,0-8.701,2.289-8.701,3.663s3.206,3.663,8.701,3.663,8.7-2.289,8.7-3.663-3.205-3.663-8.7-3.663Z"/>
      <path class="cls-10" d="m1794.13,1611.877c-8.242,0-14.196-4.12-14.196-9.157s5.954-9.159,14.196-9.159,14.196,4.122,14.196,9.159-5.953,9.157-14.196,9.157Zm0-12.822c-5.494,0-8.7,2.291-8.7,3.665s3.206,3.662,8.7,3.662,8.7-2.29,8.7-3.662-3.204-3.665-8.7-3.665Z"/>
      <path class="cls-10" d="m1661.334,1638.437c-8.244,0-14.196-4.122-14.196-9.159s5.952-9.157,14.196-9.157,14.194,4.12,14.194,9.157-6.409,9.159-14.194,9.159Zm0-12.822c-5.496,0-8.701,2.289-8.701,3.663s3.205,3.663,8.701,3.663,8.7-2.289,8.7-3.663-3.205-3.663-8.7-3.663Z"/>
      <path class="cls-10" d="m1867.855,1639.81c-2.289,0-4.578,0-6.868-.916-5.495-1.373-11.448-5.953-16.485-13.736-4.122-6.869-7.328-14.654-8.243-21.523v.457c-.916,1.375-2.29,1.833-3.663.918-5.494-2.748-5.494-10.075-5.037-15.112v-3.206c-.916-15.568,1.373-21.065,13.28-32.054,5.037-4.579,10.531-3.663,15.111-2.748,2.746.458,5.494.917,7.784.458,4.121-.915,7.326-3.663,10.989-6.867,3.663-2.748,7.327-5.955,11.907-7.328,5.494-1.831,10.531-.916,15.568,1.832,15.57,9.615,24.27,38.924,26.101,48.539.458,3.205,1.832,7.327,3.663,11.449,2.748,8.7,5.954,17.4,5.037,23.354-.457,3.663-2.289,6.41-5.037,8.241-5.953,3.663-14.653,1.833-21.522,0-3.206-.915-5.954-1.372-7.785-1.372-5.495,0-10.074,1.831-15.111,4.12-6.411,3.206-12.364,5.495-19.69,5.495Zm1.831-70.977c-.915,0-2.289.915-5.952,5.037-.457.915-.916,1.373-1.374,1.83-2.747,2.748-5.953,4.58-9.158,5.953-5.495,3.206-10.074,5.496-11.906,13.28-1.374,6.411,1.832,18.316,7.785,27.476,4.121,6.41,8.7,10.531,12.822,11.447,9.157,1.832,15.568-.916,22.895-3.662,5.037-2.291,10.533-4.122,16.944-4.58,2.748,0,5.494.915,9.157,1.374,5.954,1.374,13.737,3.206,17.401.915,1.373-.915,2.29-2.289,2.747-4.578.916-5.037-2.289-13.279-4.578-20.606-1.374-4.58-3.206-8.702-3.663-12.365-2.29-11.446-10.533-37.091-23.812-44.874-3.663-2.291-7.326-2.748-10.99-1.375-3.663.916-6.869,3.664-10.074,6.412-4.121,3.204-7.785,6.867-13.279,7.783-3.663.917-7.328.458-10.074-.457-4.58-.917-7.328-1.374-10.532,1.372-10.99,9.618-12.364,13.281-11.448,27.476v3.663c0,4.122,0,9.159,2.289,10.533.458,0,.917.458.917.915-.459-2.748,0-5.494.458-7.785,2.289-10.074,8.699-13.736,14.653-16.942,2.748-1.374,5.494-3.206,7.785-5.495.457-.457.457-.916.915-1.373,2.748-3.206,7.785-8.701,12.821-6.41,3.206,1.373,5.495,4.119,8.243,6.41,2.289,2.29,4.12,4.121,6.868,5.494,2.289,1.374,4.58,2.29,6.411,3.207,7.326,3.205,13.737,5.952,16.027,17.857.916,3.664-.457,5.953-1.831,6.869-4.122,3.664-11.907,2.29-21.522,0-1.833-.458-3.664-.916-4.579-.916-.458.458-1.374,1.832-2.291,2.291-.915,1.372-1.831,1.83-2.289,2.289-2.748,2.289-5.494,2.748-8.242,1.831-4.579-1.831-5.952-7.785-6.869-11.905,0-.917-.457-1.833-.457-2.29-.459-1.374,0-3.206,1.831-3.663,1.373-.458,3.206,0,3.663,1.831.458.458.458,1.832.917,2.748.457,2.289,1.83,7.326,3.663,7.784.457,0,1.831,0,3.204-.916.459-.457.917-.916,1.374-1.373,1.833-2.291,3.664-4.58,5.953-4.58,1.374,0,3.663.459,5.952,1.374,4.122.915,14.196,3.206,16.027,1.374.459-.459.459-1.374,0-1.831-1.831-8.702-5.952-10.532-12.82-13.739-2.29-.915-4.58-1.83-6.87-3.205-3.204-1.832-5.494-4.121-8.242-6.41-1.832-2.29-4.121-4.121-6.869-5.494q.458,0,0,0Zm11.907,33.886h0Z"/>
      <path class="cls-10" d="m2050.566,1677.361c-11.905,0-24.728-5.496-36.176-10.533-7.785-3.206-15.111-6.411-21.522-7.785-2.289-.457-5.036-.457-7.784-.916-11.448-.915-26.56-1.832-30.681-15.568-2.748-10.074,2.289-14.654,6.869-18.775,2.289-1.832,4.578-4.121,5.952-6.869,1.374-2.747,2.29-5.037,3.205-7.326,4.122-9.158,7.328-16.942,23.355-14.653,1.374,0,2.746,1.373,2.289,3.205,0,1.374-1.374,2.748-3.206,2.29-11.905-1.832-13.738,2.289-17.401,11.447-.915,2.29-2.289,4.579-3.663,7.327-1.831,3.663-4.579,6.411-7.326,8.7-4.121,3.663-6.868,6.411-5.037,13.279,2.747,9.617,14.652,10.533,25.644,11.448,3.205.458,5.953.458,8.701.917,6.868,1.374,14.653,4.578,22.895,7.783,18.775,8.244,38.466,16.486,53.12,2.29.915-.916-.459-4.579-1.374-6.868-1.374-3.205-2.291-6.411-1.832-9.159.917-4.579,4.578-7.327,7.326-9.616,3.206-2.748,5.037-4.121,4.58-7.326-1.374-6.411-9.159-11.448-15.111-15.111l-2.289-1.374c-20.608-13.279-37.55-17.858-50.372-14.653-8.701,2.289-15.568,8.7-20.605,18.316-1.374,2.291-2.29,4.121-2.748,5.037q-1.374,2.748-1.374,5.496v.915c0,1.374-.916,2.748-2.29,3.206-1.373,0-2.747-.917-3.206-2.289v-.917c-.457-4.12-.457-4.579,1.833-8.7.458-1.374,1.373-2.746,2.747-5.037,5.953-11.449,13.738-18.316,23.812-21.064,14.653-4.12,32.97,1.374,54.949,15.111l2.291,1.374c6.868,4.122,16.026,10.074,17.857,18.774,1.374,6.412-3.204,10.074-6.409,12.364-2.748,1.831-4.58,3.663-5.496,6.411-.458,1.374.916,3.663,1.374,5.953,1.374,4.121,3.663,9.615,0,12.821-6.869,7.327-14.654,10.075-22.896,10.075Z"/>
      <path class="cls-10" d="m1760.244,1229.973c-1.373,0-2.29-.916-2.747-1.831-10.532-36.176-35.719-103.949-88.837-147.91-1.374-.915-1.374-2.746-.458-3.663.917-1.374,2.747-1.374,3.663-.457,54.035,45.334,80.137,113.564,90.668,150.656.458,1.372-.457,3.205-1.831,3.205h-.458Z"/>
      <path class="cls-10" d="m1760.244,1107.707c-.916,0-1.373-.457-1.831-.915-12.822-12.822-31.598-18.316-49.455-23.354-10.991-3.207-22.896-6.411-32.972-11.448-1.373-.459-1.83-2.29-1.373-3.664.458-1.373,2.29-1.832,3.663-1.373,9.617,5.037,20.607,7.784,32.054,10.989,18.776,5.037,38.008,10.533,51.746,24.728.915.917.915,2.748,0,3.663-.459,1.374-.916,1.374-1.832,1.374Z"/>
      <path class="cls-10" d="m1099.008,1289.96c-.917,0-1.832-.458-2.289-1.374-.917-1.374-.459-3.205.915-3.663,18.775-10.531,43.503-28.85,55.408-54.035.458-1.372,2.289-1.831,3.665-1.372,1.372.457,1.83,2.289,1.372,3.663-12.364,26.559-38.007,45.333-57.697,56.323-.458.458-.915.458-1.374.458Z"/>
      <path class="cls-10" d="m1287.212,571.941c-8.242,0-16.483-1.374-24.727-5.037-1.372-.459-1.831-2.29-1.372-3.664.457-1.374,2.289-1.832,3.663-1.374,16.485,6.868,32.511,4.122,49.912,1.374,12.822-2.289,26.103-4.579,39.382-2.748,1.374,0,2.748,1.832,2.29,3.205,0,1.374-1.374,2.748-3.205,2.291-12.822-1.833-25.186.457-37.55,2.747-9.616,1.374-18.775,3.206-28.393,3.206Z"/>
      <path class="cls-9" d="m1212.114,1076.111c1.832-4.58,4.579-8.7,5.037-13.28,5.952-38.922-54.035-22.896-70.519-41.213-6.869-7.327-8.7-18.773-4.58-28.391,5.037-10.99,15.57-25.644,6.411-37.549-13.279-17.4-41.213-13.28-48.539-38.924-.457-1.832-4.122-14.652-1.374-16.026.458,0,3.663,10.989,4.122,10.989,1.83,5.037,5.494,9.159,9.615,12.364,16.944,13.737,38.008,8.242,52.203,28.391,15.111,21.523-15.568,39.381-3.663,58.614,11.905,19.233,45.791,6.868,60.903,26.559,7.326,9.616,5.495,21.522,1.373,32.054-1.83,3.663-14.194,14.195-10.989,6.411Z"/>
      <path class="cls-9" d="m1226.311,1054.131c5.494-33.886-32.971-28.849-46.709-45.334-5.952-7.326-6.869-17.859-8.242-27.017-.458-2.748-.458-5.495-.458-8.7,0-.459.458-4.122.458-4.122,1.831,1.831,2.29,9.159,3.205,11.905,2.289,7.785,5.037,14.654,11.448,20.148,13.279,10.99,31.139,6.411,42.587,21.064,5.494,6.87,7.326,14.653,4.579,22.896,0,3.205-7.327,13.738-6.868,9.158Z"/>
      <path class="cls-9" d="m1185.555,982.237c-4.579-.458-4.579-10.531-5.494-15.111-3.207-14.195,4.578-27.017-7.785-38.466-22.438-20.605-45.792-13.737-63.193-66.855-1.373-4.579-4.121-15.111-.458-19.233.915-.915.915,9.617,1.374,13.28,1.374,9.616,7.785,24.728,14.653,31.139,21.063,21.064,52.661,19.69,69.146,48.54,7.783,13.737-3.206,19.231-7.785,30.222-1.374,3.206-2.289,6.869-1.832,10.074.458,2.291,3.663,6.411,1.374,6.411Z"/>
      <path class="cls-10" d="m1295.914,901.185c-.917,0-1.374-.457-1.832-.916-2.29-2.289-4.579-2.747-7.785-3.204-.916,0-1.831-.459-2.746-.459-2.748-.458-3.665-2.748-3.665-4.122-1.373.459-4.579.459-5.953-2.747-.457-.916-.457-1.831-.457-2.747v-1.373h-.458c-1.374,0-3.663.457-5.037-.459-3.663-2.289-3.206-5.952-3.206-7.785v-1.372h-.916c-1.831,0-3.663,0-4.579-1.374-1.373-1.374-3.204-5.037-2.747-7.785.458-1.374,1.832-2.289,3.204-2.748,1.376,0,2.748.916,3.207,2.29,0,.915,0,1.832-.916,2.289,0,.458.457.917.457,1.374h1.374c1.833,0,4.122,0,5.037,1.832,1.374,2.289,1.374,4.579.916,5.953-.457,1.831,0,1.831.458,2.289,0,0,.917,0,1.374-.458,1.374,0,3.205-.457,4.579.458,1.832,1.374,2.29,4.122,2.29,5.953v.458h0c.916-.458,2.747-.458,4.121.458,1.832,1.374,1.832,3.205,1.832,4.121h1.374c3.662.458,7.783.916,11.446,5.037.917.917.917,2.747,0,3.663,0,.917-.457,1.374-1.372,1.374Zm-31.139-26.559h0Z"/>
      <path class="cls-10" d="m1335.753,650.246c-.917,0-1.832-.459-2.289-1.374-.459-1.373,0-3.205,1.372-3.663l.917-.458c1.831-.916,2.29-.916,3.663-1.374.916,0,2.29-.457,5.494-1.373,1.374-.458,2.748.457,3.207,1.831.457,1.374-.459,2.748-1.833,3.205-3.204.917-5.037,1.373-5.952,1.373q-.916.458-2.748.917l-.915.457c0,.459-.459.459-.916.459Z"/>
      <path class="cls-10" d="m1242.794,679.095h-3.204c-1.374,0-2.748-1.374-2.29-3.206,0-1.374,1.831-2.747,3.205-2.29h3.206c.916,0,1.831,0,4.579-.457,1.374,0,2.748.916,2.748,2.747s-.917,2.748-2.748,2.748c-2.289,0-3.663,0-4.122.458h-1.374Z"/>
    </g>
  </g>
</svg>